<svg xmlns="http://www.w3.org/2000/svg" xmlns:v="http://schemas.microsoft.com/visio/2003/SVGExtensions/" width="85.5" height="97.5" viewBox="0 0 64.125 73.125" color-interpolation-filters="sRGB" fill="none" fill-rule="evenodd" font-size="12" overflow="visible" stroke-linecap="square" stroke-miterlimit="3">
  <v:documentProperties v:langID="4108" v:metric="true" v:viewMarkup="false"/>
  <style>
    .st1,.st2{fill:#fff;stroke:none;stroke-linecap:butt;stroke-width:.75}.st2{fill:#515150}
  </style>
  <g v:mID="0" v:index="1" v:groupContext="foregroundPage">
    <v:pageProperties v:drawingScale=".039" v:pageScale=".039" v:drawingUnits="24" v:shadowOffsetX="8.504" v:shadowOffsetY="-8.504"/>
    <v:layer v:name="symbols" v:index="0"/>
    <g id="group352-1" transform="translate(2.813 -7.688)" v:mID="352" v:groupContext="group" v:layerMember="0">
      <g id="group353-2" transform="translate(0 -4.5)" v:mID="353" v:groupContext="group" v:layerMember="0">
        <g id="shape354-3" v:mID="354" v:groupContext="shape" v:layerMember="0">
          <path d="M8.17 73.13h31.2c4.65-.38 8.25-4.28 8.25-8.93V35.63h1.35c4.28-.15 7.65-3.6 7.65-7.88 0-4.27-3.45-7.8-7.72-7.87H16.87c-4.94 0-8.99 4.05-9 9v27.75C3.52 56.85 0 60.45 0 64.88c0 4.27 3.3 7.8 7.5 8.17l.67.08z" class="st1"/>
        </g>
        <g id="shape355-5" v:mID="355" v:groupContext="shape" v:layerMember="0" transform="translate(47.625 -39.375)">
          <path d="M6.23 63.83H3.9c-2.17 0-3.9 1.72-3.9 3.9v5.4h.82c3.46 0 6.23-2.78 6.23-6.23 0-1.12-.3-2.17-.82-3.07z" class="st2"/>
        </g>
        <g id="shape356-7" v:mID="356" v:groupContext="shape" v:layerMember="0" transform="translate(10.125 -2.175)">
          <path d="M35.25 30.15c.15-2.85 2.32-5.25 5.17-5.62h.08c-.45-.15-.98-.15-1.43-.15h-.3H6.75C3 24.38 0 27.38 0 31.13V58.8h25.5c1.05 0 1.88.9 1.88 1.95 0 .75-.46 1.05-.46 1.05-1.95.98-3.3 3-3.3 5.33 0 3.22 2.56 5.85 5.78 6 3.3-.45 5.85-3.23 5.92-6.68v-36.3h-.07z" class="st2"/>
        </g>
        <g id="shape357-9" v:mID="357" v:groupContext="shape" v:layerMember="0" transform="translate(2.175 -2.25)">
          <path d="M31.87 73.13a8.217 8.217 0 0 1-2.55-6c0-2.33.98-4.43 2.55-6H6c-3.3 0-6 2.7-6 6s2.7 6 6 6h25.87z" class="st2"/>
        </g>
      </g>
      <g id="group358-11" transform="translate(25.875)" v:mID="358" v:groupContext="group" v:layerMember="0">
        <g id="shape359-12" v:mID="359" v:groupContext="shape" v:layerMember="0">
          <path d="M31.43 48.68a4.116 4.116 0 0 0-4.05-3.3h-7.8c-1.05 0-2.1.37-3.08 1.12-.97-.75-2.02-1.12-3.07-1.12h-7.8c-2.18 0-3.9 1.65-4.13 3.75-.9.67-1.5 1.8-1.5 3V68.7c0 2.1 1.65 3.68 3.75 3.68h9.3c.52.45 1.2.75 1.95.75h3c.75 0 1.43-.3 1.95-.75H30c2.1 0 3.75-1.65 3.75-3.68V52.13c0-1.58-.97-2.93-2.32-3.45z" class="st1"/>
        </g>
        <g id="shape360-14" v:mID="360" v:groupContext="shape" v:layerMember="0" transform="translate(2.25 -2.25)">
          <path d="M27.75 52.88H1.5c-.82 0-1.5.67-1.5 1.5v16.57c0 .83.68 1.43 1.5 1.43H12c0 .45.3.75.75.75h3c.45 0 .75-.3.75-.75h11.25c.83 0 1.5-.6 1.5-1.43V54.38c0-.83-.67-1.5-1.5-1.5z" class="st2"/>
        </g>
        <g id="shape361-16" v:mID="361" v:groupContext="shape" v:layerMember="0" transform="translate(3.75 -3.6)">
          <path d="M12.75 53.48c-.67-1.13-1.8-2.25-3.07-2.25h-7.8C.83 51.23 0 52.05 0 53.1v19.13H9.38c1.2 0 2.32-.15 3 .75l.37.15.38-.15c.67-.9 1.8-.75 3-.75H25.5V53.1c0-1.05-.82-1.87-1.87-1.87h-7.8c-1.28 0-2.4 1.12-3.08 2.25z" class="st2"/>
        </g>
        <g id="shape362-18" v:mID="362" v:groupContext="shape" v:layerMember="0" transform="translate(5.25 -5.25)">
          <path d="M12 57.38c0-1.35 1.2-3 3.08-3h7.05c.22 0 .37.15.37.37v17.63h-7.87c-1.13 0-2.03.52-2.63.75V57.38zm-1.5 15.75c-.6-.23-1.27-.75-2.62-.75H0V54.75c0-.22.15-.37.38-.37h7.05c1.95 0 3.07 1.72 3.07 3v15.75z" class="st1"/>
        </g>
        <g id="shape363-20" v:mID="363" v:groupContext="shape" v:layerMember="0" transform="translate(29.25 -15.75)">
          <path d="M0 73.13c.45 0 .75-.3.75-.75v-3c0-.45-.3-.75-.75-.75v4.5z" class="st1"/>
        </g>
        <g id="shape364-22" v:mID="364" v:groupContext="shape" v:layerMember="0" transform="translate(29.25 -11.25)">
          <path d="M0 73.13c.45 0 .75-.3.75-.75v-3c0-.45-.3-.75-.75-.75v4.5z" class="st1"/>
        </g>
        <g id="shape365-24" v:mID="365" v:groupContext="shape" v:layerMember="0" transform="translate(29.25 -6.75)">
          <path d="M0 73.13c.45 0 .75-.3.75-.75v-3c0-.45-.3-.75-.75-.75v4.5z" class="st1"/>
        </g>
        <g id="group366-26" transform="translate(7.5 -9)" v:mID="366" v:groupContext="group" v:layerMember="0">
          <g id="group367-27" transform="translate(0 -6)" v:mID="367" v:groupContext="group" v:layerMember="0">
            <g id="shape368-28" v:mID="368" v:groupContext="shape" v:layerMember="0">
              <path d="M5.78 71.03c-.08-.53-.23-.75-.6-.98-.38-.22-.6-.37-.75-.37h-.15c-.08.07-.23.15-.3.22H3.9c-.07.23-.15.23-.3.3-.22.08-.37.08-.6.08-.22 0-.45-.08-.6-.08-.07 0-.22-.07-.3-.15-.15-.07-.22-.15-.37-.22h-.15c-.15 0-.3.07-.75.37-.38.23-.53.45-.6.98-.08.3-.23 1.5-.23 1.95h6c0-.45-.15-1.65-.22-2.1z" class="st2"/>
            </g>
            <g id="shape369-30" v:mID="369" v:groupContext="shape" v:layerMember="0" transform="translate(1.5 -3.45)">
              <ellipse cx="1.5" cy="71.475" rx="1.5" ry="1.65" class="st2"/>
            </g>
          </g>
          <g id="shape370-32" v:mID="370" v:groupContext="shape" v:layerMember="0" transform="translate(0 -3)">
            <path class="st2" d="M0 71.625h6v1.5H0z"/>
          </g>
          <g id="shape371-34" v:mID="371" v:groupContext="shape" v:layerMember="0">
            <path class="st2" d="M0 71.625h6v1.5H0z"/>
          </g>
        </g>
        <g id="group372-36" transform="translate(19.5 -9)" v:mID="372" v:groupContext="group" v:layerMember="0">
          <g id="group373-37" transform="translate(0 -6)" v:mID="373" v:groupContext="group" v:layerMember="0">
            <g id="shape374-38" v:mID="374" v:groupContext="shape" v:layerMember="0">
              <path d="M5.78 71.03c-.08-.53-.23-.75-.6-.98-.38-.22-.6-.37-.75-.37h-.15c-.08.07-.23.15-.3.22H3.9c-.07.23-.15.23-.3.3-.22.08-.37.08-.6.08-.22 0-.45-.08-.6-.08-.07 0-.22-.07-.3-.15-.15-.07-.22-.15-.37-.22h-.15c-.15 0-.3.07-.75.37-.38.23-.53.45-.61.98-.07.3-.22 1.5-.22 1.95h6c0-.45-.15-1.65-.22-2.1z" class="st2"/>
            </g>
            <g id="shape375-40" v:mID="375" v:groupContext="shape" v:layerMember="0" transform="translate(1.5 -3.45)">
              <ellipse cx="1.5" cy="71.475" rx="1.5" ry="1.65" class="st2"/>
            </g>
          </g>
          <g id="shape376-42" v:mID="376" v:groupContext="shape" v:layerMember="0" transform="translate(0 -3)">
            <path class="st2" d="M0 71.625h6v1.5H0z"/>
          </g>
          <g id="shape377-44" v:mID="377" v:groupContext="shape" v:layerMember="0">
            <path class="st2" d="M0 71.625h6v1.5H0z"/>
          </g>
        </g>
      </g>
    </g>
  </g>
</svg>
