<svg xmlns="http://www.w3.org/2000/svg" xmlns:v="http://schemas.microsoft.com/visio/2003/SVGExtensions/" width="87" height="97.5" viewBox="0 0 65.25 73.125" color-interpolation-filters="sRGB" fill="none" fill-rule="evenodd" font-size="12" overflow="visible" stroke-linecap="square" stroke-miterlimit="3">
  <v:documentProperties v:langID="4108" v:metric="true" v:viewMarkup="false"/>
  <style>
    .st1,.st2{fill:#fff;stroke:none;stroke-linecap:butt;stroke-width:.75}.st2{fill:#515150}
  </style>
  <g v:mID="0" v:index="1" v:groupContext="foregroundPage">
    <v:pageProperties v:drawingScale=".039" v:pageScale=".039" v:drawingUnits="24" v:shadowOffsetX="8.504" v:shadowOffsetY="-8.504"/>
    <v:layer v:name="symbols" v:index="0"/>
    <g id="group378-1" transform="translate(1.688 -7.688)" v:mID="378" v:groupContext="group" v:layerMember="0">
      <g id="group379-2" transform="translate(0 -4.5)" v:mID="379" v:groupContext="group" v:layerMember="0">
        <g id="shape380-3" v:mID="380" v:groupContext="shape" v:layerMember="0">
          <path d="M8.17 73.13h31.2c4.65-.38 8.25-4.28 8.25-8.93V35.63h1.35c4.28-.15 7.65-3.6 7.65-7.88 0-4.27-3.45-7.8-7.72-7.87H16.87c-4.94 0-8.99 4.05-9 9v27.75C3.52 56.85 0 60.45 0 64.88c0 4.27 3.3 7.8 7.5 8.17l.67.08z" class="st1"/>
        </g>
        <g id="shape381-5" v:mID="381" v:groupContext="shape" v:layerMember="0" transform="translate(47.625 -39.375)">
          <path d="M6.23 63.83H3.9c-2.17 0-3.9 1.72-3.9 3.9v5.4h.82c3.46 0 6.23-2.78 6.23-6.23 0-1.12-.3-2.17-.82-3.07z" class="st2"/>
        </g>
        <g id="shape382-7" v:mID="382" v:groupContext="shape" v:layerMember="0" transform="translate(10.125 -2.175)">
          <path d="M35.25 30.15c.15-2.85 2.32-5.25 5.17-5.62h.08c-.45-.15-.98-.15-1.43-.15h-.3H6.75C3 24.38 0 27.38 0 31.13V58.8h25.5c1.05 0 1.88.9 1.88 1.95 0 .75-.46 1.05-.46 1.05-1.95.98-3.3 3-3.3 5.33 0 3.22 2.56 5.85 5.78 6 3.3-.45 5.85-3.23 5.92-6.68v-36.3h-.07z" class="st2"/>
        </g>
        <g id="shape383-9" v:mID="383" v:groupContext="shape" v:layerMember="0" transform="translate(2.175 -2.25)">
          <path d="M31.87 73.13a8.217 8.217 0 0 1-2.55-6c0-2.33.98-4.43 2.55-6H6c-3.3 0-6 2.7-6 6s2.7 6 6 6h25.87z" class="st2"/>
        </g>
      </g>
      <g id="group384-11" transform="translate(25.875)" v:mID="384" v:groupContext="group" v:layerMember="0">
        <g id="shape385-12" v:mID="385" v:groupContext="shape" v:layerMember="0">
          <path class="st1" d="M0 45.375h33.75v27.75H0z"/>
        </g>
        <g id="shape386-14" v:mID="386" v:groupContext="shape" v:layerMember="0" transform="translate(2.25 -2.25)">
          <path d="M0 49.88v23.25h29.25V49.88H0zm27.75 21.75H1.5V51.38h26.25v20.25z" class="st2"/>
        </g>
        <g id="shape387-16" v:mID="387" v:groupContext="shape" v:layerMember="0" transform="translate(24 -17.25)">
          <path class="st2" d="M0 68.625h3.75v4.5H0z"/>
        </g>
        <g id="shape388-18" v:mID="388" v:groupContext="shape" v:layerMember="0" transform="translate(8.25 -12)">
          <path class="st2" d="M0 71.625h11.25v1.5H0z"/>
        </g>
        <g id="shape389-20" v:mID="389" v:groupContext="shape" v:layerMember="0" transform="translate(8.25 -8.25)">
          <path class="st2" d="M0 71.625h15v1.5H0z"/>
        </g>
      </g>
    </g>
  </g>
</svg>
