<svg xmlns="http://www.w3.org/2000/svg" xmlns:v="http://schemas.microsoft.com/visio/2003/SVGExtensions/" width="99" height="99" viewBox="0 0 74.25 74.25" color-interpolation-filters="sRGB" fill="none" fill-rule="evenodd" font-size="12" overflow="visible" stroke-linecap="square" stroke-miterlimit="3">
  <v:documentProperties v:langID="4108" v:metric="true" v:viewMarkup="false"/>
  <style>
    .st1,.st3{fill:#fff;stroke:none;stroke-linecap:butt;stroke-width:.75}.st3{fill:#515150}
  </style>
  <g v:mID="0" v:index="1" v:groupContext="foregroundPage">
    <v:pageProperties v:drawingScale=".039" v:pageScale=".039" v:drawingUnits="24" v:shadowOffsetX="8.504" v:shadowOffsetY="-8.504"/>
    <v:layer v:name="symbols" v:index="0"/>
    <g id="group55-1" transform="translate(9.3 -3.563)" v:mID="55" v:groupContext="group" v:layerMember="0">
      <g id="group56-2" transform="translate(0 -5.25)" v:mID="56" v:groupContext="group" v:layerMember="0">
        <g id="shape57-3" v:mID="57" v:groupContext="shape" v:layerMember="0">
          <path d="M21.75 26.25v-10.5H0v58.5h37.5v-36h-2.25v-6H33v-6h-2.25V19.5H24v6.75h-2.25z" class="st1"/>
        </g>
        <g id="shape58-5" v:mID="58" v:groupContext="shape" v:layerMember="0" transform="translate(2.25 -2.25)">
          <path d="M30.75 42.75v-6H28.5v-6h-2.25V24H24v6.75h-2.25v6H19.5v6h-2.25v-22.5H0v54h33v-31.5h-2.25zm-24 18.75h-3v-3h3v3zm0-6.75h-3v-3h3v3zm0-6.75h-3v-3h3v3zm0-6.75h-3v-3h3v3zm0-6.75h-3v-3h3v3zm0-6.75h-3v-3h3v3zM13.5 61.5h-3v-3h3v3zm0-6.75h-3v-3h3v3zm0-6.75h-3v-3h3v3zm0-6.75h-3v-3h3v3zm0-6.75h-3v-3h3v3zm0-6.75h-3v-3h3v3zm9.75 31.5h-3v-3h3v3zm0-10.5h-3v-3h3v3zm6 5.25h-3v-3h3v3z" fill="#535352" stroke-linecap="butt" stroke-width=".75"/>
        </g>
      </g>
      <g id="group59-7" transform="translate(33 -35.25)" v:mID="59" v:groupContext="group" v:layerMember="0">
        <g id="shape60-8" v:mID="60" v:groupContext="shape" v:layerMember="0">
          <path d="M22.5 59.25H24v-7.5H13.5l1.35-1.35v-3.15H7.87L0 55.43l6.45 6.82h-1.2v7.5h10.12L14.1 71.1v3.15H21l7.87-8.17-6.37-6.83z" class="st1"/>
        </g>
        <g id="shape61-10" v:mID="61" v:groupContext="shape" v:layerMember="0" transform="translate(3.075 -12.75)">
          <path d="M18.67 66.75H5.02l4.5-4.5H5.77l-5.77 6 5.77 6h3.75l-4.5-4.5h13.65v-3z" class="st3"/>
        </g>
        <g id="shape62-12" v:mID="62" v:groupContext="shape" v:layerMember="0" transform="translate(7.5 -2.25)">
          <path d="M0 69.75h13.35l-4.5 4.5h3.75l5.7-6-5.7-6H8.85l4.5 4.5H0v3z" class="st3"/>
        </g>
      </g>
      <g id="group63-14" transform="translate(28.575)" v:mID="63" v:groupContext="group" v:layerMember="0">
        <g id="shape64-15" v:mID="64" v:groupContext="shape" v:layerMember="0">
          <path d="M20.85 74.25c-1.2 0-2.32-.75-2.77-1.87l-.68-1.58h-1.28l-.67 1.58c-.37 1.12-1.5 1.87-2.7 1.87-.37 0-.82-.07-1.12-.22l-2.86-1.2c-.74-.3-1.35-.9-1.65-1.65-.29-.75-.29-1.58 0-2.33l.68-1.57-.83-.83-1.57.68c-.37.15-.75.22-1.12.22-1.2 0-2.33-.75-2.78-1.87L.3 62.63c-.3-.75-.3-1.58 0-2.33s.9-1.35 1.65-1.65l1.57-.67v-1.2l-1.57-.68C1.2 55.8.6 55.2.3 54.45c-.3-.75-.3-1.57 0-2.32l1.2-2.85a3.023 3.023 0 0 1 2.78-1.88c.37 0 .75.08 1.12.23l1.57.67.83-.82-.68-1.58c-.29-.75-.29-1.57 0-2.32.3-.75.91-1.35 1.65-1.65l2.86-1.2c.37-.15.75-.23 1.12-.23 1.2 0 2.33.75 2.78 1.88l.59 1.5h1.28l.6-1.58a3.029 3.029 0 0 1 2.78-1.87c.37 0 .75.07 1.12.22l2.85 1.2c.75.3 1.35.9 1.65 1.65.3.75.3 1.58 0 2.33l-.68 1.57.83.83 1.58-.68c.37-.15.75-.22 1.12-.22 1.2 0 2.33.75 2.78 1.87l1.2 2.85c.3.75.3 1.58 0 2.33s-.9 1.35-1.65 1.65L30 56.7v1.2l1.58.68c1.57.67 2.25 2.4 1.65 3.97l-1.2 2.85a3.023 3.023 0 0 1-2.78 1.88c-.37 0-.82-.08-1.2-.23l-1.57-.67-.83.82.68 1.58c.29.75.29 1.57 0 2.32-.3.75-.9 1.35-1.65 1.65l-2.86 1.2c-.14.23-.59.3-.97.3zM16.8 51.9c-3 0-5.47 2.48-5.47 5.48-.01 3 2.47 5.47 5.47 5.47 3 0 5.47-2.47 5.47-5.47 0-3-2.47-5.48-5.47-5.48z" class="st1"/>
        </g>
        <g id="shape65-17" v:mID="65" v:groupContext="shape" v:layerMember="0" transform="translate(2.025 -2.1)">
          <path d="M28.95 62.85l-2.4-.97c-.37-.15-.67-.38-.67-.45 0-.08.07-.53.07-.9v-1.95c0-.45-.07-.83-.07-.9 0-.08.3-.3.67-.45l2.4-.98c.38-.15.6-.6.45-1.05l-1.2-2.85c-.15-.37-.6-.6-1.05-.45l-2.4.98c-.37.15-.75.22-.82.15-.08-.08-.31-.38-.61-.75l-1.42-1.35c-.3-.3-.67-.53-.67-.6-.08-.08 0-.38.15-.83l.97-2.4c.15-.37 0-.82-.45-1.05l-2.85-1.2c-.38-.15-.83 0-1.05.45l-.97 2.4c-.15.38-.38.68-.45.68-.08 0-.53-.08-.9-.15 0 0-.38-.08-.98-.08s-.98.08-.98.08c-.45.07-.82.07-.9.15-.07 0-.3-.3-.45-.68l-.97-2.4c-.15-.37-.6-.6-1.05-.45l-2.85 1.2c-.37.15-.6.6-.45 1.05l.97 2.4c.15.38.23.75.15.83-.07.07-.37.3-.67.6l-1.42 1.42c-.3.3-.53.68-.6.75-.08.08-.38 0-.83-.15L2.4 51.83c-.37-.15-.82 0-1.05.45l-1.2 2.85c-.15.37 0 .82.45 1.05l2.4.97c.37.15.67.38.67.45 0 .08-.07.53-.07.9v1.95c0 .45.07.83.07.9 0 .08-.3.3-.67.45L.6 62.85c-.37.15-.6.6-.45 1.05l1.2 2.85c.15.38.6.6 1.05.45l2.4-.97c.38-.15.75-.23.83-.15.07.07.3.37.6.75l1.42 1.35c.3.3.67.52.75.6.07.07 0 .45-.15.82l-1.12 2.25c-.15.38 0 .83.44 1.05l2.86 1.2c.37.15.82 0 1.05-.45l.97-2.4c.15-.37.37-.67.45-.67.07 0 .52.07.9.15 0 0 .37.07.98.07.6 0 .97-.07.97-.07.45-.08.83-.08.9-.15.08 0 .3.3.45.67l.97 2.4c.15.38.6.6 1.05.45l2.86-1.2c.37-.15.59-.6.44-1.05l-.97-2.4c-.15-.37-.22-.75-.15-.82.08-.08.38-.3.75-.6l1.42-1.43c.3-.3.53-.67.6-.75.08-.07.38 0 .83.15l2.4.98c.37.15.82 0 1.05-.45l1.2-2.85c-.07-.23-.22-.68-.6-.83zM14.78 67.2c-4.28 0-7.73-3.45-7.73-7.72 0-4.28 3.45-7.73 7.73-7.73 4.27 0 7.72 3.45 7.72 7.73 0 4.27-3.45 7.72-7.72 7.72z" class="st3"/>
        </g>
      </g>
    </g>
  </g>
</svg>
