<svg xmlns="http://www.w3.org/2000/svg" xmlns:v="http://schemas.microsoft.com/visio/2003/SVGExtensions/" width="99" height="97.5" viewBox="0 0 74.25 73.125" color-interpolation-filters="sRGB" fill="none" fill-rule="evenodd" font-size="12" overflow="visible" stroke-linecap="square" stroke-miterlimit="3">
  <v:documentProperties v:langID="4108" v:metric="true" v:viewMarkup="false"/>
  <style>
    .st1,.st3{fill:#fff;stroke:none;stroke-linecap:butt;stroke-width:.75}.st3{fill:#515150}
  </style>
  <g v:mID="0" v:index="1" v:groupContext="foregroundPage">
    <v:pageProperties v:drawingScale=".039" v:pageScale=".039" v:drawingUnits="24" v:shadowOffsetX="8.504" v:shadowOffsetY="-8.504"/>
    <v:layer v:name="symbols" v:index="0"/>
    <g id="group66-1" transform="translate(9.563 -3.563)" v:mID="66" v:groupContext="group" v:layerMember="0">
      <g id="group67-2" transform="translate(0 -5.25)" v:mID="67" v:groupContext="group" v:layerMember="0">
        <g id="shape68-3" v:mID="68" v:groupContext="shape" v:layerMember="0">
          <path d="M21.75 25.12v-10.5H0v58.5h37.5v-36h-2.25v-6H33v-6h-2.25v-6.75H24v6.75h-2.25z" class="st1"/>
        </g>
        <g id="shape69-5" v:mID="69" v:groupContext="shape" v:layerMember="0" transform="translate(2.25 -2.25)">
          <path d="M30.75 41.62v-6H28.5v-6h-2.25v-6.75H24v6.75h-2.25v6H19.5v6h-2.25v-22.5H0v54h33v-31.5h-2.25zm-24 18.75h-3v-3h3v3zm0-6.75h-3v-3h3v3zm0-6.75h-3v-3h3v3zm0-6.75h-3v-3h3v3zm0-6.75h-3v-3h3v3zm0-6.75h-3v-3h3v3zm6.75 33.75h-3v-3h3v3zm0-6.75h-3v-3h3v3zm0-6.75h-3v-3h3v3zm0-6.75h-3v-3h3v3zm0-6.75h-3v-3h3v3zm0-6.75h-3v-3h3v3zm9.75 31.5h-3v-3h3v3zm0-10.5h-3v-3h3v3zm6 5.25h-3v-3h3v3z" fill="#535352" stroke-linecap="butt" stroke-width=".75"/>
        </g>
      </g>
      <g id="group70-7" transform="translate(33 -35.25)" v:mID="70" v:groupContext="group" v:layerMember="0">
        <g id="shape71-8" v:mID="71" v:groupContext="shape" v:layerMember="0">
          <path d="M22.5 58.12H24v-7.5H13.5l1.35-1.35v-3.15H7.87L0 54.3l6.45 6.82h-1.2v7.5h10.13l-1.28 1.35v3.15H21l7.88-8.17-6.38-6.83z" class="st1"/>
        </g>
        <g id="shape72-10" v:mID="72" v:groupContext="shape" v:layerMember="0" transform="translate(3.075 -12.75)">
          <path d="M18.68 65.62H5.02l4.51-4.5H5.77l-5.77 6 5.77 6h3.76l-4.51-4.5h13.66v-3z" class="st3"/>
        </g>
        <g id="shape73-12" v:mID="73" v:groupContext="shape" v:layerMember="0" transform="translate(7.5 -2.25)">
          <path d="M0 68.62h13.35l-4.5 4.5h3.75l5.7-6-5.7-6H8.85l4.5 4.5H0v3z" class="st3"/>
        </g>
      </g>
      <g id="group74-14" transform="translate(30)" v:mID="74" v:groupContext="group" v:layerMember="0">
        <g id="shape75-15" v:mID="75" v:groupContext="shape" v:layerMember="0">
          <path d="M16.13 73.12C7.2 73.12 0 65.92 0 57c0-8.93 7.2-16.13 16.13-16.13 8.92 0 16.12 7.2 16.12 16.13 0 8.92-7.2 16.12-16.12 16.12z" class="st1"/>
        </g>
        <g id="shape76-17" v:mID="76" v:groupContext="shape" v:layerMember="0" transform="translate(2.25 -2.25)">
          <path d="M13.88 45.37C6.22 45.37 0 51.6 0 59.25s6.22 13.87 13.88 13.87c7.65 0 13.87-6.22 13.87-13.87 0-7.65-6.22-13.88-13.87-13.88zm8.7 8.18L11.93 67.12 5.4 59.7c-.15-.23-.15-.53 0-.68l1.73-1.57c.14-.15.44-.15.67.07l4.13 4.5 8.02-10.65c.15-.22.45-.22.68-.07l1.8 1.5c.3.22.3.52.15.75z" fill="#515050" stroke-linecap="butt" stroke-width=".75"/>
        </g>
      </g>
    </g>
  </g>
</svg>
