<svg xmlns="http://www.w3.org/2000/svg" xmlns:v="http://schemas.microsoft.com/visio/2003/SVGExtensions/" width="101.7" height="88.5" viewBox="0 0 76.275 66.375" color-interpolation-filters="sRGB" fill="none" fill-rule="evenodd" font-size="12" overflow="visible" stroke-linecap="square" stroke-miterlimit="3">
  <v:documentProperties v:langID="4108" v:metric="true" v:viewMarkup="false"/>
  <style>
    .st1,.st2{fill:#fff;stroke:none;stroke-linecap:butt;stroke-width:.75}.st2{fill:#515150}
  </style>
  <g v:mID="0" v:index="1" v:groupContext="foregroundPage">
    <v:pageProperties v:drawingScale=".039" v:pageScale=".039" v:drawingUnits="24" v:shadowOffsetX="8.504" v:shadowOffsetY="-8.504"/>
    <v:layer v:name="symbols" v:index="0"/>
    <g id="group77-1" transform="translate(9.938 -3.938)" v:mID="77" v:groupContext="group" v:layerMember="0">
      <g id="group78-2" transform="translate(0 -12.75)" v:mID="78" v:groupContext="group" v:layerMember="0">
        <g id="shape79-3" v:mID="79" v:groupContext="shape" v:layerMember="0">
          <path class="st1" d="M0 25.125h51v41.25H0z"/>
        </g>
        <g id="group80-5" transform="translate(2.25 -2.25)" v:mID="80" v:groupContext="group" v:layerMember="0">
          <g id="shape81-6" v:mID="81" v:groupContext="shape" v:layerMember="0" transform="translate(0 -16.425)">
            <path d="M0 46.05v3.75l21 15.67c1.28.9 3.22.9 4.5 0l21-15.67v-3.75H0z" class="st2"/>
          </g>
          <g id="shape82-8" v:mID="82" v:groupContext="shape" v:layerMember="0">
            <path d="M26.85 50.85c-.97.75-2.25 1.13-3.6 1.13s-2.63-.38-3.6-1.13L0 36.15v30.22h46.5V36.15l-19.65 14.7z" class="st2"/>
          </g>
        </g>
      </g>
      <g id="group83-10" transform="translate(27.75)" v:mID="83" v:groupContext="group" v:layerMember="0">
        <g id="shape84-11" v:mID="84" v:groupContext="shape" v:layerMember="0">
          <path d="M16.12 66.37C7.2 66.37 0 59.17 0 50.25c0-8.92 7.2-16.12 16.12-16.12 8.93 0 16.13 7.2 16.13 16.12 0 8.92-7.2 16.12-16.13 16.12z" class="st1"/>
        </g>
        <g id="shape85-13" v:mID="85" v:groupContext="shape" v:layerMember="0" transform="translate(2.25 -2.25)">
          <path d="M13.88 38.63C6.22 38.63 0 44.85 0 52.5c0 7.65 6.22 13.87 13.88 13.87 7.65 0 13.87-6.22 13.87-13.87 0-7.65-6.22-13.87-13.87-13.87zm7.87 15.75H6v-3.76h15.75v3.76z" class="st2"/>
        </g>
      </g>
    </g>
  </g>
</svg>
