<svg xmlns="http://www.w3.org/2000/svg" xmlns:v="http://schemas.microsoft.com/visio/2003/SVGExtensions/" width="79.5" height="97.5" viewBox="0 0 59.625 73.125" color-interpolation-filters="sRGB" fill="none" fill-rule="evenodd" font-size="12" overflow="visible" stroke-linecap="square" stroke-miterlimit="3">
  <v:documentProperties v:langID="4108" v:metric="true" v:viewMarkup="false"/>
  <g v:mID="0" v:index="1" v:groupContext="foregroundPage">
    <v:pageProperties v:drawingScale=".039" v:pageScale=".039" v:drawingUnits="24" v:shadowOffsetX="8.504" v:shadowOffsetY="-8.504"/>
    <v:layer v:name="symbols" v:index="0"/>
    <g transform="translate(8.588 -8.063)" v:mID="207" v:groupContext="group" v:layerMember="0">
      <g v:mID="208" v:groupContext="group" v:layerMember="0">
        <g v:mID="209" v:groupContext="shape" v:layerMember="0">
          <path d="M5.25 73.13C2.33 73.13 0 70.8 0 67.88V44.63c0-2.4 1.58-4.35 3.75-5.03v-5.85c0-9.75 7.87-17.62 17.62-17.62C31.13 16.13 39 24 39 33.75v5.85c2.17.68 3.75 2.63 3.75 5.03v23.25c0 2.92-2.32 5.25-5.25 5.25H5.25zM30 39.38v-5.63c0-4.72-3.9-8.62-8.63-8.62-4.72 0-8.62 3.9-8.62 8.62v5.63H30z" fill="#fff" stroke-linecap="butt" stroke-width=".75"/>
        </g>
        <g v:mID="210" v:groupContext="shape" v:layerMember="0" transform="translate(2.25 -2.25)">
          <path d="M35.25 43.88h-.75V36c0-8.47-6.9-15.37-15.38-15.37-8.47 0-15.37 6.9-15.37 15.37v7.88H3c-1.65 0-3 1.35-3 3v23.25c0 1.65 1.35 3 3 3h32.25c1.65 0 3-1.35 3-3V46.88c0-1.65-1.35-3-3-3zM8.25 36c0-6 4.87-10.87 10.87-10.87C25.12 25.13 30 30 30 36v7.88H8.25V36z" fill="#7fba42" stroke-linecap="butt" stroke-width=".75"/>
        </g>
      </g>
    </g>
  </g>
</svg>
