<svg xmlns="http://www.w3.org/2000/svg" xmlns:v="http://schemas.microsoft.com/visio/2003/SVGExtensions/" width="87" height="99" viewBox="0 0 65.25 74.25" color-interpolation-filters="sRGB" fill="none" fill-rule="evenodd" font-size="12" overflow="visible" stroke-linecap="square" stroke-miterlimit="3">
  <v:documentProperties v:langID="4108" v:metric="true" v:viewMarkup="false"/>
  <style>
    .st1,.st2{fill:#fff;stroke:none;stroke-linecap:butt;stroke-width:.75}.st2{fill:#515251}
  </style>
  <g v:mID="0" v:index="1" v:groupContext="foregroundPage">
    <v:pageProperties v:drawingScale=".039" v:pageScale=".039" v:drawingUnits="24" v:shadowOffsetX="8.504" v:shadowOffsetY="-8.504"/>
    <v:layer v:name="symbols" v:index="0"/>
    <g id="group247-1" transform="translate(8.1 -3.112)" v:mID="247" v:groupContext="group" v:layerMember="0">
      <g id="group248-2" v:mID="248" v:groupContext="group" v:layerMember="0">
        <g id="group249-3" transform="translate(0 -5.4)" v:mID="249" v:groupContext="group" v:layerMember="0">
          <g id="shape250-4" v:mID="250" v:groupContext="shape" v:layerMember="0">
            <path d="M5.25 74.25C2.33 74.25 0 71.92 0 69V45.75c0-2.4 1.57-4.35 3.75-5.03v-5.85c0-9.75 7.87-17.62 17.62-17.62C31.13 17.25 39 25.2 39 34.87v5.85c2.17.68 3.75 2.63 3.75 5.03V69c0 2.92-2.33 5.25-5.25 5.25H5.25zM30 40.5v-5.63c0-4.72-3.9-8.62-8.63-8.62-4.72 0-8.62 3.9-8.62 8.62v5.63H30z" class="st1"/>
          </g>
          <g id="shape251-6" v:mID="251" v:groupContext="shape" v:layerMember="0" transform="translate(2.25 -2.25)">
            <path d="M35.25 45.15h-.75v-8.03c0-8.47-6.9-15.37-15.38-15.37-8.47 0-15.37 6.9-15.37 15.37v8.03H3c-1.65 0-3 1.2-3 2.85v23.25c0 1.65 1.35 3 3 3h32.25c1.65 0 3-1.35 3-3V48c0-1.65-1.35-2.85-3-2.85zm-27-8.03c0-6 4.87-10.87 10.87-10.87 6 0 10.88 4.87 10.88 10.87v8.03H8.25v-8.03z" class="st2"/>
          </g>
        </g>
        <g id="group252-8" transform="translate(32.175)" v:mID="252" v:groupContext="group" v:layerMember="0">
          <g id="shape253-9" v:mID="253" v:groupContext="shape" v:layerMember="0">
            <path d="M4.65 69.9l3.98 4.35h1.94l5.18-5.4-2.17-2.25 1.49-1.58-.22-1.95-1.58-1.72.98-1.2v-2.33c2.78-1.65 4.5-4.65 4.5-8.02 0-5.18-4.2-9.38-9.37-9.38A9.38 9.38 0 0 0 0 49.8c0 3.37 1.73 6.37 4.58 8.02V69.9h.07z" class="st1"/>
          </g>
          <g id="shape254-11" v:mID="254" v:groupContext="shape" v:layerMember="0" transform="translate(2.4 -2.25)">
            <path d="M9.75 60.82v-2.1c2.63-1.05 4.5-3.6 4.5-6.6 0-3.9-3.22-7.12-7.12-7.12C3.22 45 0 48.22 0 52.12c0 3 1.87 5.63 4.58 6.68v12.45l2.77 3 3.08-3.15-2.18-2.25 2.25-2.4v-.15l-2.55-2.55 1.72-2.1v-.83h.08zM7.13 48C8.18 48 9 48.82 9 49.87c0 1.05-.82 1.88-1.87 1.88-1.06 0-1.88-.83-1.88-1.88 0-1.05.82-1.87 1.88-1.87z" class="st2"/>
          </g>
        </g>
      </g>
    </g>
  </g>
</svg>
