<svg xmlns="http://www.w3.org/2000/svg" xmlns:v="http://schemas.microsoft.com/visio/2003/SVGExtensions/" width="84" height="91.5" viewBox="0 0 63 68.625" color-interpolation-filters="sRGB" fill="none" fill-rule="evenodd" font-size="12" overflow="visible" stroke-linecap="square" stroke-miterlimit="3">
  <v:documentProperties v:langID="4108" v:metric="true" v:viewMarkup="false"/>
  <style>
    .st2{fill:#515150;stroke:none;stroke-linecap:butt;stroke-width:.75}
  </style>
  <g v:mID="0" v:index="1" v:groupContext="foregroundPage">
    <v:pageProperties v:drawingScale=".039" v:pageScale=".039" v:drawingUnits="24" v:shadowOffsetX="8.504" v:shadowOffsetY="-8.504"/>
    <v:layer v:name="symbols" v:index="0"/>
    <g id="group304-1" transform="translate(3.188 -7.688)" v:mID="304" v:groupContext="group" v:layerMember="0">
      <g id="group305-2" v:mID="305" v:groupContext="group" v:layerMember="0">
        <g id="shape306-3" v:mID="306" v:groupContext="shape" v:layerMember="0">
          <path d="M8.17 68.63h31.21c4.65-.38 8.25-4.28 8.25-8.93V31.12h1.35c4.27-.15 7.64-3.59 7.64-7.87 0-4.27-3.44-7.8-7.72-7.87H16.87c-4.94 0-8.99 4.05-8.99 9v27.75C3.52 52.35 0 55.95 0 60.38c0 4.27 3.3 7.8 7.5 8.17l.67.08z" fill="#fff" stroke-linecap="butt" stroke-width=".75"/>
        </g>
        <g id="shape307-5" v:mID="307" v:groupContext="shape" v:layerMember="0" transform="translate(47.625 -39.375)">
          <path d="M6.23 59.33H3.9c-2.17 0-3.9 1.72-3.9 3.9v5.4h.82c3.46 0 6.23-2.78 6.23-6.23 0-1.12-.3-2.17-.82-3.07z" class="st2"/>
        </g>
        <g id="shape308-7" v:mID="308" v:groupContext="shape" v:layerMember="0" transform="translate(10.125 -2.175)">
          <path d="M35.25 25.65c.15-2.85 2.33-5.25 5.18-5.63h.07c-.45-.14-.97-.14-1.43-.14h-.29H6.75C3 19.88 0 22.88 0 26.63V54.3h25.5c1.05 0 1.88.9 1.88 1.95 0 .75-.46 1.05-.46 1.05-1.94.98-3.3 3-3.3 5.33 0 3.22 2.56 5.85 5.78 6 3.3-.45 5.85-3.23 5.92-6.68v-36.3h-.07z" class="st2"/>
        </g>
        <g id="shape309-9" v:mID="309" v:groupContext="shape" v:layerMember="0" transform="translate(2.175 -2.25)">
          <path d="M31.88 68.63c-1.58-1.5-2.55-3.6-2.55-6 0-2.33.97-4.43 2.55-6.01H6c-3.3 0-6 2.7-6 6.01 0 3.3 2.7 6 6 6h25.88z" class="st2"/>
        </g>
      </g>
    </g>
  </g>
</svg>
