<svg xmlns="http://www.w3.org/2000/svg" xmlns:v="http://schemas.microsoft.com/visio/2003/SVGExtensions/" width="88.25" height="93" viewBox="0 0 66.188 69.75" color-interpolation-filters="sRGB" fill="none" fill-rule="evenodd" font-size="12" overflow="visible" stroke-linecap="square" stroke-miterlimit="3">
  <v:documentProperties v:langID="4108" v:metric="true" v:viewMarkup="false"/>
  <style>
    .st1,.st2,.st3{fill:#fff;stroke:none;stroke-linecap:butt;stroke-width:.75}.st2,.st3{fill:#515150}.st3{fill:#515050}
  </style>
  <g v:mID="0" v:index="1" v:groupContext="foregroundPage">
    <v:pageProperties v:drawingScale=".039" v:pageScale=".039" v:drawingUnits="24" v:shadowOffsetX="8.504" v:shadowOffsetY="-8.504"/>
    <v:layer v:name="symbols" v:index="0"/>
    <g id="group317-1" transform="translate(.75 -3.938)" v:mID="317" v:groupContext="group" v:layerMember="0">
      <g id="group318-2" v:mID="318" v:groupContext="group" v:layerMember="0">
        <g id="group319-3" transform="translate(0 -5.25)" v:mID="319" v:groupContext="group" v:layerMember="0">
          <g id="shape320-4" v:mID="320" v:groupContext="shape" v:layerMember="0">
            <path d="M8.17 69.75h31.21c4.65-.38 8.25-4.27 8.25-8.93V32.25h1.35c4.27-.15 7.65-3.6 7.65-7.88 0-4.27-3.45-7.79-7.73-7.87H16.87c-4.94 0-8.99 4.05-8.99 9v27.75C3.53 53.48 0 57.08 0 61.5c0 4.28 3.3 7.8 7.5 8.18l.67.07z" class="st1"/>
          </g>
          <g id="shape321-6" v:mID="321" v:groupContext="shape" v:layerMember="0" transform="translate(47.625 -39.375)">
            <path d="M6.23 60.45H3.9a3.88 3.88 0 0 0-3.9 3.9v5.4h.82c3.46 0 6.23-2.77 6.23-6.22 0-1.13-.3-2.18-.82-3.08z" class="st2"/>
          </g>
          <g id="shape322-8" v:mID="322" v:groupContext="shape" v:layerMember="0" transform="translate(10.125 -2.175)">
            <path d="M35.25 26.77c.15-2.85 2.33-5.25 5.18-5.62h.07c-.45-.15-.97-.15-1.43-.15h-.29H6.75C3 21 0 24 0 27.75v27.68h25.5c1.05 0 1.88.89 1.88 1.95 0 .74-.46 1.05-.46 1.05-1.94.97-3.3 3-3.3 5.32 0 3.22 2.56 5.85 5.78 6 3.3-.45 5.85-3.22 5.92-6.68v-36.3h-.07z" class="st2"/>
          </g>
          <g id="shape323-10" v:mID="323" v:groupContext="shape" v:layerMember="0" transform="translate(2.175 -2.25)">
            <path d="M31.88 69.75c-1.58-1.5-2.55-3.6-2.55-6 0-2.33.97-4.43 2.55-6H6c-3.3 0-6 2.7-6 6s2.7 6 6 6h25.88z" class="st2"/>
          </g>
        </g>
        <g id="group324-12" transform="translate(28.125)" v:mID="324" v:groupContext="group" v:layerMember="0">
          <g id="group325-13" v:mID="325" v:groupContext="group" v:layerMember="0">
            <g id="shape326-14" v:mID="326" v:groupContext="shape" v:layerMember="0">
              <path d="M15 69.75c-7.8 0-10.8-2.78-11.1-3.15l-.75-.75L0 39.15v-.23c0-.14 0-.52.07-.82.08-.38.38-.9.53-1.13C2.25 34.27 6.98 33 15 33c8.03 0 12.75 1.27 14.4 3.9.08.07.45.75.6 1.5 0 0 .08.3.08.45v.45l-3.15 26.55-.76.75c-.37.37-3.37 3.15-11.17 3.15z" class="st1"/>
            </g>
            <g id="shape327-16" v:mID="327" v:groupContext="shape" v:layerMember="0" transform="translate(2.175 -2.25)">
              <path d="M.07 41.25l3.01 25.87.14.16c.15.07 2.63 2.47 9.61 2.47 6.97 0 9.45-2.4 9.52-2.47l.15-.16 3-25.72V41.1c-.15-1.05-1.72-3.52-12.75-3.53C1.72 37.58.22 40.05 0 41.1c.07-.07.07.15.07.15zM12.83 39c8.62 0 10.65 1.57 11.1 2.17-.45.53-2.48 2.33-11.1 2.33-8.63 0-10.65-1.8-11.11-2.4.46-.53 2.48-2.1 11.11-2.1zm8.47 25.72s-2.17 2.03-8.47 2.03c-6.3 0-8.48-2.03-8.48-2.03L1.8 43.12c1.65.9 4.87 1.81 11.03 1.81 6.14 0 9.37-.91 11.02-1.81l-2.55 21.6z" class="st3"/>
            </g>
          </g>
          <g id="shape328-18" v:mID="328" v:groupContext="shape" v:layerMember="0" transform="translate(7.5 -9.3)">
            <path d="M14.63 62.7l-1.2-2.02-3 1.72 1.65 2.78c.07.15-.08.29-.23.29H9.67v-1.19l-2.25 2.69 2.25 2.78v-1.27h1.73c.9 0 1.43-.75 1.43-.75l1.95-3.38c.37-.9-.15-1.65-.15-1.65zM3.22 65.47c-.22 0-.22-.22-.15-.37l1.05-1.87 1.05.6-1.57-3.38-3.6.45 1.12.68-.67 1.27c-.45.83-.07 1.57-.07 1.57l1.87 3.31c.67.9 1.57.82 1.57.82h3.15v-3l-3.75-.08zm4.51-7.72l1.12 1.88-1.05.67 3.68.3 1.5-3.37-1.13.67-.75-1.27c-.52-.75-1.35-.83-1.35-.83H5.4c-1.13.15-1.5.9-1.5.9l-1.28 2.03 3 1.72 1.73-2.77c.15-.08.3-.08.38.07z" class="st3"/>
          </g>
        </g>
      </g>
    </g>
  </g>
</svg>
