<svg xmlns="http://www.w3.org/2000/svg" xmlns:v="http://schemas.microsoft.com/visio/2003/SVGExtensions/" width="87" height="97.5" viewBox="0 0 65.25 73.125" color-interpolation-filters="sRGB" fill="none" fill-rule="evenodd" font-size="12" overflow="visible" stroke-linecap="square" stroke-miterlimit="3">
  <v:documentProperties v:langID="4108" v:metric="true" v:viewMarkup="false"/>
  <style>
    .st1,.st2{fill:#fff;stroke:none;stroke-linecap:butt;stroke-width:.75}.st2{fill:#515251}
  </style>
  <g v:mID="0" v:index="1" v:groupContext="foregroundPage">
    <v:pageProperties v:drawingScale=".039" v:pageScale=".039" v:drawingUnits="24" v:shadowOffsetX="8.504" v:shadowOffsetY="-8.504"/>
    <v:layer v:name="symbols" v:index="0"/>
    <g id="group329-1" transform="translate(1.988 -3.15)" v:mID="329" v:groupContext="group" v:layerMember="0">
      <g id="group330-2" transform="translate(0 -9.15)" v:mID="330" v:groupContext="group" v:layerMember="0">
        <g id="shape331-3" v:mID="331" v:groupContext="shape" v:layerMember="0">
          <path d="M8.25 73.13h31.2c4.57-.38 8.17-4.28 8.17-8.93V35.63H48.98c4.27-.08 7.64-3.6 7.64-7.8 0-4.35-3.45-7.8-7.72-7.88H16.95c-4.95 0-9 4.05-9 9V56.7C3.52 56.85 0 60.53 0 64.95c0 4.28 3.3 7.8 7.5 8.18h.75z" class="st1"/>
        </g>
        <g id="shape332-5" v:mID="332" v:groupContext="shape" v:layerMember="0" transform="translate(47.625 -39.375)">
          <path d="M6.23 63.83H3.9c-2.17 0-3.9 1.72-3.9 3.9v5.4h.82c3.46 0 6.23-2.78 6.23-6.23 0-1.12-.3-2.17-.82-3.07z" class="st2"/>
        </g>
        <g id="shape333-7" v:mID="333" v:groupContext="shape" v:layerMember="0" transform="translate(10.2 -2.175)">
          <path d="M35.17 30.23c.15-2.85 2.33-5.25 5.18-5.63h.07c-.45-.15-.9-.22-1.42-.22h-.3H6.75C3 24.38 0 27.38 0 31.13V58.8h25.5c1.05 0 1.87.9 1.87 1.95 0 .75-.45 1.05-.45 1.05-1.95.98-3.3 3-3.3 5.33 0 3.22 2.55 5.85 5.78 6 3.3-.45 5.85-3.23 5.92-6.68V30.23h-.15z" class="st2"/>
        </g>
        <g id="shape334-9" v:mID="334" v:groupContext="shape" v:layerMember="0" transform="translate(2.25 -2.25)">
          <path d="M31.87 73.13a8.217 8.217 0 0 1-2.55-6c0-2.33.98-4.43 2.55-6H6c-3.3 0-6 2.7-6 6s2.7 6 6 6h25.87z" class="st2"/>
        </g>
      </g>
      <g id="group335-11" transform="translate(26.625)" v:mID="335" v:groupContext="group" v:layerMember="0">
        <g id="shape336-12" v:mID="336" v:groupContext="shape" v:layerMember="0">
          <path d="M16.95 39.38C7.57 39.38 0 46.95 0 56.25s7.57 16.88 16.95 16.88c9.3 0 16.87-7.58 16.87-16.88 0-9.3-7.57-16.87-16.87-16.87z" class="st1"/>
        </g>
        <g id="shape337-14" v:mID="337" v:groupContext="shape" v:layerMember="0" transform="translate(2.25 -2.25)">
          <path d="M14.7 43.88C6.6 43.88 0 50.4 0 58.5s6.52 14.63 14.62 14.63S29.25 66.6 29.25 58.5c.08-8.1-6.53-14.62-14.55-14.62zm0 26.85c-6.75 0-12.22-5.48-12.23-12.23.01-6.75 5.48-12.22 12.23-12.22s12.23 5.47 12.23 12.22c-.08 6.75-5.55 12.23-12.23 12.23z" class="st2"/>
        </g>
        <g id="shape338-16" v:mID="338" v:groupContext="shape" v:layerMember="0" transform="translate(15.75 -10.5)">
          <path d="M7.5 73.13c-.15 0-.3-.08-.45-.15L.3 67.73c-.15-.15-.3-.38-.3-.6v-10.5c0-.45.3-.75.75-.75s.75.3.75.75v10.12l6.45 5.03c.3.22.37.75.15 1.05a.7.7 0 0 1-.6.3z" class="st2"/>
        </g>
      </g>
    </g>
  </g>
</svg>
