<svg xmlns="http://www.w3.org/2000/svg" xmlns:v="http://schemas.microsoft.com/visio/2003/SVGExtensions/" width="99.9" height="81" viewBox="0 0 74.925 60.75" color-interpolation-filters="sRGB" fill="none" fill-rule="evenodd" font-size="12" overflow="visible" stroke-linecap="square" stroke-miterlimit="3">
  <v:documentProperties v:langID="4108" v:metric="true" v:viewMarkup="false"/>
  <style>
    .st1,.st2{fill:#fff;stroke:none;stroke-linecap:butt;stroke-width:.75}.st2{fill:#515150}
  </style>
  <g v:mID="0" v:index="1" v:groupContext="foregroundPage">
    <v:pageProperties v:drawingScale=".039" v:pageScale=".039" v:drawingUnits="24" v:shadowOffsetX="8.504" v:shadowOffsetY="-8.504"/>
    <v:layer v:name="symbols" v:index="0"/>
    <g id="group439-1" transform="translate(8.813 -2.438)" v:mID="439" v:groupContext="group" v:layerMember="0">
      <g id="group440-2" transform="translate(0 -9)" v:mID="440" v:groupContext="group" v:layerMember="0">
        <g id="shape441-3" v:mID="441" v:groupContext="shape" v:layerMember="0">
          <path class="st1" d="M0 19.5h51.75v41.25H0z"/>
        </g>
        <g id="shape442-5" v:mID="442" v:groupContext="shape" v:layerMember="0" transform="translate(38.25 -27)">
          <path class="st2" d="M0 54h6v6.75H0z"/>
        </g>
        <g id="shape443-7" v:mID="443" v:groupContext="shape" v:layerMember="0" transform="translate(11.25 -18)">
          <path class="st2" d="M0 58.5h21v2.25H0z"/>
        </g>
        <g id="shape444-9" v:mID="444" v:groupContext="shape" v:layerMember="0" transform="translate(11.25 -12)">
          <path class="st2" d="M0 58.5h25.5v2.25H0z"/>
        </g>
        <g id="shape445-11" v:mID="445" v:groupContext="shape" v:layerMember="0" transform="translate(2.25 -2.25)">
          <path d="M45 26.25V58.5H2.25V26.25H45zM47.25 24H0v36.75h47.25V24z" fill="#525352" stroke-linecap="butt" stroke-width=".75"/>
        </g>
      </g>
      <g id="group446-13" transform="translate(33.75)" v:mID="446" v:groupContext="group" v:layerMember="0">
        <g id="shape447-14" v:mID="447" v:groupContext="shape" v:layerMember="0">
          <path d="M3.75 60.75C1.65 60.75 0 59.1 0 57V43.5c0-1.5.9-2.85 2.25-3.45V37.5c0-5.78 4.73-10.5 10.5-10.5s10.5 4.72 10.5 10.5v2.55c1.35.6 2.25 1.87 2.25 3.45V57c0 2.1-1.65 3.75-3.75 3.75h-18z" class="st1"/>
        </g>
        <g id="shape448-16" v:mID="448" v:groupContext="shape" v:layerMember="0" transform="translate(2.25 -2.25)">
          <path d="M19.5 44.25h-.75v-4.5c0-4.58-3.68-8.25-8.25-8.25s-8.25 3.67-8.25 8.25v4.5H1.5c-.83 0-1.5.67-1.5 1.5v13.5c0 .82.67 1.5 1.5 1.5h18c.82 0 1.5-.68 1.5-1.5v-13.5c0-.83-.68-1.5-1.5-1.5zm-14.25-4.5c0-2.93 2.33-5.25 5.25-5.25s5.25 2.32 5.25 5.25v4.5H5.25v-4.5z" class="st2"/>
        </g>
      </g>
    </g>
  </g>
</svg>
