<svg xmlns="http://www.w3.org/2000/svg" xmlns:v="http://schemas.microsoft.com/visio/2003/SVGExtensions/" width="103.5" height="94.5" viewBox="0 0 77.625 70.875" color-interpolation-filters="sRGB" fill="none" fill-rule="evenodd" font-size="12" overflow="visible" stroke-linecap="square" stroke-miterlimit="3">
  <v:documentProperties v:langID="4108" v:metric="true" v:viewMarkup="false"/>
  <style>
    .st1{fill:#fff;stroke:none;stroke-linecap:butt;stroke-width:.75}
  </style>
  <g v:mID="0" v:index="1" v:groupContext="foregroundPage">
    <v:pageProperties v:drawingScale=".039" v:pageScale=".039" v:drawingUnits="24" v:shadowOffsetX="8.504" v:shadowOffsetY="-8.504"/>
    <v:layer v:name="symbols" v:index="0"/>
    <g id="group430-1" transform="translate(8.625 -8.063)" v:mID="430" v:groupContext="group" v:layerMember="0">
      <g id="group431-2" v:mID="431" v:groupContext="group" v:layerMember="0">
        <g id="shape432-3" v:mID="432" v:groupContext="shape" v:layerMember="0">
          <path d="M5.25 70.88C2.33 70.88 0 68.55 0 65.63V42.38c0-2.4 1.58-4.35 3.75-5.03V31.5c0-9.75 7.87-17.62 17.63-17.62C31.13 13.88 39 21.75 39 31.5v5.85c2.18.68 3.75 2.63 3.75 5.03v23.25c0 2.92-2.32 5.25-5.25 5.25H5.25zM30 37.13V31.5c0-4.72-3.9-8.62-8.62-8.62-4.73 0-8.63 3.9-8.63 8.62v5.63H30z" class="st1"/>
        </g>
        <g id="shape433-5" v:mID="433" v:groupContext="shape" v:layerMember="0" transform="translate(2.25 -2.25)">
          <path d="M35.25 41.63h-.75v-7.88c0-8.47-6.9-15.37-15.37-15.37-8.48 0-15.38 6.9-15.38 15.37v7.88H3c-1.65 0-3 1.35-3 3v23.25c0 1.65 1.35 3 3 3h32.25c1.65 0 3-1.35 3-3V44.63c0-1.65-1.35-3-3-3zm-27-7.88c0-6 4.87-10.87 10.88-10.87 6 0 10.87 4.87 10.87 10.87v7.88H8.25v-7.88z" fill="#515150" stroke-linecap="butt" stroke-width=".75"/>
        </g>
      </g>
      <g id="group434-7" transform="translate(39 -30.75)" v:mID="434" v:groupContext="group" v:layerMember="0">
        <g id="shape435-8" v:mID="435" v:groupContext="shape" v:layerMember="0">
          <path d="M27.9 53.4c-.6-.6-1.42-1.05-2.25-1.27a7.756 7.756 0 0 0-2.7-2.7c-.45-2.03-2.1-3.53-4.2-3.68v-3.37h-2.4L0 44.93v23.32l16.35 2.63h2.4V67.5c2.1-.15 3.75-1.65 4.2-3.6a9.264 9.264 0 0 0 2.7-2.7c2.1-.45 3.6-2.32 3.6-4.5 0-1.27-.45-2.47-1.35-3.3z" class="st1"/>
        </g>
        <g id="shape436-10" v:mID="436" v:groupContext="shape" v:layerMember="0" transform="translate(2.25 -2.25)">
          <path d="M14.25 46.88L0 49.13v19.5l14.25 2.25v-24z" fill="#2372ba" stroke-linecap="butt" stroke-width=".75"/>
        </g>
        <g id="shape437-12" v:mID="437" v:groupContext="shape" v:layerMember="0" transform="translate(6.525 -9.525)">
          <path d="M3.08 60.9c-1.2.08-2.33.75-2.7 1.95-.38 1.28.07 2.48 1.12 3.23.68.52 2.48 1.12 1.88 2.32-.3.53-.9.53-1.43.45-.67-.07-1.2-.45-1.73-.97V69.68c0 .22.08.22.31.37 1.5.83 4.05.68 4.65-1.2.3-.82.22-1.87-.3-2.62-.53-.75-1.28-1.13-2.03-1.58-.3-.22-.67-.45-.82-.82-.15-.38-.08-.83.22-1.13.75-.67 2.03-.22 2.7.3v-1.5-.37c0-.15-.07-.15-.22-.15-.45-.08-1.05-.08-1.65-.08z" class="st1"/>
        </g>
        <g id="shape438-14" v:mID="438" v:groupContext="shape" v:layerMember="0" transform="translate(17.325 -5.4)">
          <path d="M7.35 59.7c-.15 0-.3 0-.45.08-.6-1.58-1.88-2.85-3.52-3.53 0-.15.07-.3.07-.45 0-1.27-1.05-2.32-2.33-2.32-.37 0-.74.07-1.12.3v4.12c.3.15.67.3 1.12.3.68 0 1.28-.3 1.73-.75 1.35.53 2.4 1.58 2.92 3-.44.45-.75 1.05-.74 1.73-.01.67.3 1.27.74 1.72-.52 1.35-1.57 2.48-2.92 3-.45-.45-1.05-.75-1.73-.75-.37 0-.74.08-1.12.3v4.13c.3.15.67.3 1.12.3 1.28 0 2.33-1.05 2.33-2.33 0-.15 0-.3-.07-.45 1.57-.67 2.85-1.87 3.45-3.52.15 0 .29.07.44.07 1.28 0 2.33-1.05 2.33-2.32.07-1.58-.98-2.63-2.25-2.63z" fill="#2073b7" stroke-linecap="butt" stroke-width=".75"/>
        </g>
      </g>
    </g>
  </g>
</svg>
