<svg xmlns="http://www.w3.org/2000/svg" xmlns:v="http://schemas.microsoft.com/visio/2003/SVGExtensions/" width="85.5" height="93" viewBox="0 0 64.125 69.75" color-interpolation-filters="sRGB" fill="none" fill-rule="evenodd" font-size="12" overflow="visible" stroke-linecap="square" stroke-miterlimit="3">
  <v:documentProperties v:langID="4108" v:metric="true" v:viewMarkup="false"/>
  <style>
    .st1,.st2{fill:#fff;stroke:none;stroke-linecap:butt;stroke-width:.75}.st2{fill:#515150}
  </style>
  <g v:mID="0" v:index="1" v:groupContext="foregroundPage">
    <v:pageProperties v:drawingScale=".039" v:pageScale=".039" v:drawingUnits="24" v:shadowOffsetX="8.504" v:shadowOffsetY="-8.504"/>
    <v:layer v:name="symbols" v:index="0"/>
    <g id="group339-1" transform="translate(1.125 -4.313)" v:mID="339" v:groupContext="group" v:layerMember="0">
      <g id="group340-2" transform="translate(0 -4.5)" v:mID="340" v:groupContext="group" v:layerMember="0">
        <g id="shape341-3" v:mID="341" v:groupContext="shape" v:layerMember="0">
          <path d="M8.17 69.75h31.21c4.64-.37 8.25-4.27 8.24-8.92V32.25H48.98c4.27-.15 7.64-3.6 7.64-7.87 0-4.28-3.45-7.8-7.72-7.88H16.87c-4.94 0-8.99 4.05-9 9v27.75C3.52 53.48 0 57.08 0 61.5c0 4.28 3.3 7.8 7.5 8.18l.67.07z" class="st1"/>
        </g>
        <g id="shape342-5" v:mID="342" v:groupContext="shape" v:layerMember="0" transform="translate(47.625 -39.375)">
          <path d="M6.23 60.45H3.9a3.88 3.88 0 0 0-3.9 3.9v5.4h.82c3.46 0 6.23-2.77 6.23-6.22 0-1.13-.3-2.18-.82-3.08z" class="st2"/>
        </g>
        <g id="shape343-7" v:mID="343" v:groupContext="shape" v:layerMember="0" transform="translate(10.125 -2.175)">
          <path d="M35.25 26.78c.15-2.85 2.32-5.25 5.17-5.63h.08c-.45-.15-.98-.15-1.43-.15h-.3H6.75C3 21 0 24 0 27.75v27.68h25.5c1.05 0 1.88.9 1.88 1.95 0 .75-.46 1.05-.46 1.05-1.94.97-3.3 3-3.3 5.32 0 3.23 2.56 5.85 5.78 6 3.3-.45 5.85-3.22 5.92-6.67v-36.3h-.07z" class="st2"/>
        </g>
        <g id="shape344-9" v:mID="344" v:groupContext="shape" v:layerMember="0" transform="translate(2.175 -2.25)">
          <path d="M31.87 69.75a8.217 8.217 0 0 1-2.55-6c0-2.32.98-4.42 2.55-6H6c-3.3 0-6 2.7-6 6s2.7 6 6 6h25.87z" class="st2"/>
        </g>
      </g>
      <g id="group345-11" transform="translate(28.125)" v:mID="345" v:groupContext="group" v:layerMember="0">
        <g id="shape346-12" v:mID="346" v:groupContext="shape" v:layerMember="0">
          <path d="M16.13 69.75C7.2 69.75 0 62.55 0 53.63 0 44.7 7.2 37.5 16.13 37.5c8.92 0 16.12 7.2 16.12 16.13 0 8.92-7.2 16.12-16.12 16.12z" class="st1"/>
        </g>
        <g id="shape347-14" v:mID="347" v:groupContext="shape" v:layerMember="0" transform="translate(2.25 -2.25)">
          <path d="M13.88 42C6.22 42 0 48.23 0 55.88s6.22 13.87 13.88 13.87c7.65 0 13.87-6.22 13.87-13.87 0-7.65-6.22-13.88-13.87-13.88z" class="st2"/>
        </g>
        <g id="group348-16" transform="translate(5.25 -6.375)" v:mID="348" v:groupContext="group" v:layerMember="0">
          <g id="shape349-17" v:mID="349" v:groupContext="shape" v:layerMember="0" transform="translate(3.375 -13.125)">
            <path d="M9 68.25a2.71 2.71 0 0 0 3.82 0 2.71 2.71 0 0 0 0-3.82 2.71 2.71 0 0 0-3.82 0l-.08.07c-.37-.07-.75-.07-1.19-.07-3.38 0-6.23 1.87-7.73 4.65.68.07 1.27.3 1.8.67 1.2-2.02 3.37-3.37 5.85-3.37h.45c.07.67.37 1.35.9 1.87z" class="st1"/>
          </g>
          <g id="shape350-19" v:mID="350" v:groupContext="shape" v:layerMember="0" transform="translate(0 -.975)">
            <path d="M10.2 67.73a6.876 6.876 0 0 1-5.55-4.58c.08-.07.15-.15.22-.22a2.722 2.722 0 0 0 0-3.83c-1.04-1.05-2.77-1.05-3.82 0a2.722 2.722 0 0 0 0 3.83c.52.52 1.13.75 1.8.82a8.79 8.79 0 0 0 7.8 6c-.3-.67-.45-1.27-.45-2.02z" class="st1"/>
          </g>
          <g id="shape351-21" v:mID="351" v:groupContext="shape" v:layerMember="0" transform="translate(11.325)">
            <path d="M8.55 60c0-1.95-.68-3.82-1.8-5.25-.23.53-.53.98-.9 1.35l-.3.3A6.783 6.783 0 0 1 6.6 60c0 1.8-.75 3.45-1.88 4.73-1.05-.9-2.62-.83-3.67.15a2.71 2.71 0 0 0 0 3.82 2.71 2.71 0 0 0 3.82 0c.6-.6.9-1.5.75-2.25 1.8-1.57 2.93-3.9 2.93-6.45z" class="st1"/>
          </g>
        </g>
      </g>
    </g>
  </g>
</svg>
