<svg xmlns="http://www.w3.org/2000/svg" xmlns:v="http://schemas.microsoft.com/visio/2003/SVGExtensions/" width="97.125" height="93" viewBox="0 0 72.844 69.75" color-interpolation-filters="sRGB" fill="none" fill-rule="evenodd" font-size="12" overflow="visible" stroke-linecap="square" stroke-miterlimit="3">
  <v:documentProperties v:langID="4108" v:metric="true" v:viewMarkup="false"/>
  <style>
    .st1,.st2{fill:#fff;stroke:none;stroke-linecap:butt;stroke-width:.75}.st2{fill:#505050}
  </style>
  <g v:mID="0" v:index="1" v:groupContext="foregroundPage">
    <v:pageProperties v:drawingScale=".039" v:pageScale=".039" v:drawingUnits="24" v:shadowOffsetX="8.504" v:shadowOffsetY="-8.504"/>
    <v:layer v:name="symbols" v:index="0"/>
    <g id="group493-1" transform="translate(3.844 -3.112)" v:mID="493" v:groupContext="group" v:layerMember="0">
      <g id="group494-2" v:mID="494" v:groupContext="group" v:layerMember="0">
        <g id="group495-3" transform="translate(0 -3)" v:mID="495" v:groupContext="group" v:layerMember="0">
          <g id="shape496-4" v:mID="496" v:groupContext="shape" v:layerMember="0">
            <path d="M34.88 44.18c3.52-3.45 5.62-8.18 5.62-13.2 0-10.13-8.25-18.38-18.37-18.38C12 12.6 3.67 20.85 3.68 30.98 3.67 36.22 6 41.25 9.9 44.7L0 63.53l1.58 1.57 9.07-1.57 5.85 6.22 2.1-.6 3.98-14.32 5.1 14.02 2.17.3 5.4-7.5 10.2 2.33 1.73-1.73-12.3-18.07z" class="st1"/>
          </g>
          <g id="group497-6" transform="translate(3 -2.85)" v:mID="497" v:groupContext="group" v:layerMember="0">
            <g id="shape498-7" v:mID="498" v:groupContext="shape" v:layerMember="0" transform="translate(9.15 -26.025)">
              <path d="M9.9 52.05c4.28 0 7.8 3.52 7.8 7.8 0 4.27-3.45 7.8-7.8 7.8s-7.8-3.53-7.8-7.8c0-4.28 3.53-7.8 7.8-7.8zm0-2.1c-5.4 0-9.9 4.5-9.9 9.9s4.5 9.9 9.9 9.9 9.9-4.5 9.9-9.9-4.35-9.9-9.9-9.9z" class="st2"/>
            </g>
            <g id="shape499-9" v:mID="499" v:groupContext="shape" v:layerMember="0">
              <path d="M28.88 46.65c3.82-2.92 6.37-7.57 6.37-12.82 0-8.85-7.2-16.13-16.12-16.13C10.28 17.7 3 24.98 3 33.83c0 5.4 2.7 10.2 6.9 13.12L0 65.48l8.4-1.43 5.4 5.7 5.4-19.42 6.9 18.82 5.18-7.2 9.45 2.18-11.85-17.48zM6.08 33.83c-.01-7.13 5.85-12.98 12.97-12.98 7.12 0 12.98 5.85 12.98 12.98 0 7.12-5.78 13.04-12.98 13.05-7.2-.01-12.98-5.85-12.97-13.05z" class="st2"/>
            </g>
          </g>
        </g>
        <g id="group500-11" transform="translate(31.575)" v:mID="500" v:groupContext="group" v:layerMember="0">
          <g id="shape501-12" v:mID="501" v:groupContext="shape" v:layerMember="0">
            <path d="M20.85 69.75c-1.2 0-2.32-.75-2.77-1.87l-.68-1.58h-1.27l-.68 1.58c-.37 1.12-1.5 1.87-2.7 1.87-.37 0-.82-.07-1.12-.22l-2.85-1.2c-.75-.3-1.35-.91-1.65-1.65-.3-.76-.3-1.58 0-2.33l.67-1.57-.82-.83-1.58.68c-.37.15-.75.22-1.12.22-1.2 0-2.33-.75-2.78-1.87L.3 58.13c-.3-.75-.3-1.58 0-2.33s.9-1.35 1.65-1.65l1.58-.67v-1.2l-1.58-.68C1.2 51.3.6 50.7.3 49.95c-.3-.75-.3-1.57 0-2.32l1.2-2.85a3.023 3.023 0 0 1 2.78-1.88c.37 0 .75.08 1.12.23l1.58.67.82-.82-.67-1.58c-.3-.75-.3-1.57 0-2.32.3-.75.9-1.35 1.65-1.65l2.85-1.2c.37-.15.75-.23 1.12-.23 1.2 0 2.33.75 2.78 1.88l.6 1.5h1.27l.6-1.58a3.029 3.029 0 0 1 2.78-1.87c.37 0 .75.07 1.12.22l2.85 1.2c.75.3 1.35.9 1.65 1.65.3.75.3 1.58 0 2.33l-.67 1.57.82.83 1.58-.68c.37-.15.75-.22 1.12-.22 1.2 0 2.33.75 2.78 1.87l1.2 2.85c.3.75.3 1.57 0 2.33-.3.75-.9 1.34-1.65 1.65L30 52.2v1.2l1.58.68c1.57.67 2.25 2.39 1.65 3.97l-1.2 2.85a3.038 3.038 0 0 1-2.78 1.88c-.37 0-.82-.08-1.2-.23l-1.57-.67-.83.82.68 1.58c.3.74.3 1.57 0 2.32-.3.75-.9 1.35-1.65 1.65l-2.85 1.2c-.15.23-.6.3-.98.3zM16.8 47.4c-3 0-5.47 2.48-5.47 5.48 0 3 2.47 5.47 5.47 5.47 3 0 5.48-2.47 5.48-5.47 0-3-2.48-5.48-5.48-5.48z" class="st1"/>
          </g>
          <g id="shape502-14" v:mID="502" v:groupContext="shape" v:layerMember="0" transform="translate(2.025 -2.1)">
            <path d="M28.95 58.35l-2.4-.97c-.37-.15-.67-.38-.67-.45 0-.08.07-.53.07-.9v-1.95c0-.45-.07-.83-.07-.9 0-.08.3-.31.67-.45l2.4-.98c.38-.15.6-.6.45-1.05l-1.2-2.85c-.15-.37-.6-.6-1.05-.45l-2.4.98c-.37.15-.75.22-.82.15-.08-.08-.3-.38-.6-.75l-1.43-1.35c-.3-.3-.67-.53-.67-.6-.08-.08 0-.38.15-.83l.97-2.4c.15-.37 0-.82-.45-1.05l-2.85-1.2c-.37-.15-.82 0-1.05.45l-.97 2.4c-.15.38-.38.68-.45.68-.08 0-.53-.08-.9-.15 0 0-.38-.08-.98-.08s-.97.08-.97.08c-.45.07-.83.07-.9.15-.08 0-.31-.3-.45-.68l-.98-2.4c-.15-.37-.6-.6-1.05-.45l-2.85 1.2c-.37.15-.6.6-.45 1.05l.98 2.4c.14.38.22.75.15.83-.08.07-.38.3-.68.6l-1.42 1.42c-.3.3-.53.68-.6.75-.08.08-.38 0-.83-.15L2.4 47.33c-.37-.15-.82 0-1.05.45l-1.2 2.85c-.15.37 0 .82.45 1.05l2.4.97c.37.15.67.37.68.45-.01.07-.08.53-.08.9v1.95c0 .45.07.83.08.9-.01.08-.31.3-.68.45L.6 58.35c-.37.15-.6.6-.45 1.05l1.2 2.85c.15.37.6.6 1.05.45l2.4-.97c.38-.15.75-.23.83-.15.07.07.3.37.6.75l1.42 1.35c.3.29.67.52.75.6.07.07 0 .45-.15.82l-1.12 2.25c-.15.38 0 .82.45 1.05l2.85 1.2c.37.15.82 0 1.05-.45l.97-2.4c.15-.37.37-.67.45-.67.07 0 .53.07.9.15 0 0 .38.07.98.07s.97-.07.97-.07c.45-.08.83-.08.9-.15.08 0 .3.3.45.67l.98 2.4c.15.38.6.6 1.05.45l2.85-1.2c.37-.15.6-.6.45-1.05l-.98-2.4c-.15-.37-.22-.75-.15-.82.08-.08.38-.31.75-.6l1.43-1.43c.3-.3.52-.67.6-.75.07-.07.37 0 .82.15l2.4.98c.38.14.83-.01 1.05-.45l1.2-2.85c-.07-.23-.22-.68-.6-.83zM14.78 62.7c-4.28 0-7.73-3.45-7.73-7.72 0-4.28 3.45-7.73 7.73-7.73 4.27 0 7.72 3.45 7.72 7.73 0 4.27-3.45 7.72-7.72 7.72z" fill="#505150" stroke-linecap="butt" stroke-width=".75"/>
          </g>
        </g>
      </g>
    </g>
  </g>
</svg>
