<svg xmlns="http://www.w3.org/2000/svg" xmlns:v="http://schemas.microsoft.com/visio/2003/SVGExtensions/" width="105" height="88.5" viewBox="0 0 78.75 66.375" color-interpolation-filters="sRGB" fill="none" fill-rule="evenodd" font-size="12" overflow="visible" stroke-linecap="square" stroke-miterlimit="3">
  <v:documentProperties v:langID="4108" v:metric="true" v:viewMarkup="false"/>
  <style>
    .st1,.st2{fill:#fff;stroke:none;stroke-linecap:butt;stroke-width:.75}.st2{fill:#515251}
  </style>
  <g v:mID="0" v:index="1" v:groupContext="foregroundPage">
    <v:pageProperties v:drawingScale=".039" v:pageScale=".039" v:drawingUnits="24" v:shadowOffsetX="8.504" v:shadowOffsetY="-8.504"/>
    <v:layer v:name="symbols" v:index="0"/>
    <g id="group521-1" transform="translate(7.763 -2.138)" v:mID="521" v:groupContext="group" v:layerMember="0">
      <g id="group522-2" transform="translate(0 -14.175)" v:mID="522" v:groupContext="group" v:layerMember="0">
        <g id="group523-3" transform="translate(24.75 -7.95)" v:mID="523" v:groupContext="group" v:layerMember="0">
          <g id="shape524-4" v:mID="524" v:groupContext="shape" v:layerMember="0">
            <path d="M0 66.38l.15-2.4C.3 61.35.98 55.95 1.5 53.4c.67-2.92 1.57-4.95 4.42-6.52l.98-.53c1.95-1.12 2.85-1.65 4.05-1.65.67 0 1.28.15 1.87.45l.23.15.22.15c.45.45.98.83 1.51 1.05.44.3.82.45 1.27.6h.07c.83.3 1.73.45 2.55.45.91 0 1.73-.15 2.55-.45.53-.15.9-.3 1.28-.6l.22-.15.23-.15c.37-.22.75-.52 1.05-.82l.22-.15.23-.15c.6-.3 1.2-.45 1.87-.45 1.2 0 2.25.6 3.98 1.57.3.15.67.38 1.05.6 2.85 1.58 3.75 3.6 4.42 6.53.6 2.55 1.2 7.95 1.35 10.57l.15 2.4H0v.08z" class="st1"/>
          </g>
          <g id="shape525-6" v:mID="525" v:groupContext="shape" v:layerMember="0" transform="translate(2.25 -2.25)">
            <path d="M31.35 56.18c-.6-2.7-1.35-3.98-3.38-5.1-2.02-1.13-3.15-1.88-3.9-1.88-.3 0-.6.08-.82.23-.53.45-1.05.82-1.58 1.2-.07.07-.14.15-.3.15-.6.37-1.12.6-1.72.75-1.05.37-2.18.6-3.3.6-1.2 0-2.25-.23-3.3-.6-.6-.15-1.13-.45-1.72-.75-.68-.38-1.28-.83-1.88-1.35-.22-.15-.45-.23-.82-.23-.75 0-1.51.53-3.91 1.88-2.02 1.12-2.7 2.4-3.37 5.1C.83 58.5.22 63.83 0 66.38h32.55c0-2.55-.68-7.88-1.2-10.2z" class="st2"/>
          </g>
          <g id="shape526-8" v:mID="526" v:groupContext="shape" v:layerMember="0" transform="translate(8.475 -17.85)">
            <path d="M10.2 66.38C4.57 66.38 0 61.43 0 55.28c0-6.15 4.57-11.03 10.2-11.03 5.62 0 10.2 4.95 10.2 11.1 0 6.15-4.58 11.03-10.2 11.03z" class="st1"/>
          </g>
          <g id="shape527-10" v:mID="527" v:groupContext="shape" v:layerMember="0" transform="translate(10.725 -20.1)">
            <path d="M7.95 66.38C3.6 66.38 0 62.4 0 57.53c0-4.88 3.6-8.85 7.95-8.85s7.95 3.97 7.95 8.85c0 4.95-3.6 8.85-7.95 8.85z" class="st2"/>
          </g>
        </g>
        <g id="group528-12" v:mID="528" v:groupContext="group" v:layerMember="0">
          <g id="shape529-13" v:mID="529" v:groupContext="shape" v:layerMember="0">
            <path d="M0 66.38l.15-2.4C.3 61.35.98 55.95 1.5 53.4c.68-2.92 1.57-4.95 4.42-6.52l.98-.53c1.95-1.12 2.85-1.65 4.05-1.65.68 0 1.27.15 1.87.45l.23.15.23.15c.44.45.97.83 1.5 1.05.44.3.82.45 1.27.6h.07c.83.3 1.73.45 2.55.45.91 0 1.73-.15 2.56-.45.52-.15.9-.3 1.27-.6l.23-.15.22-.15c.37-.22.75-.52 1.05-.82l.22-.15.23-.15c.6-.3 1.2-.45 1.87-.45 1.21 0 2.26.6 3.98 1.57.3.15.68.38 1.05.6 2.85 1.58 3.75 3.6 4.42 6.6.61 2.55 1.2 7.95 1.36 10.58l.22 2.4H0z" class="st1"/>
          </g>
          <g id="shape530-15" v:mID="530" v:groupContext="shape" v:layerMember="0" transform="translate(2.4 -2.25)">
            <path d="M31.2 56.18c-.6-2.7-1.35-3.98-3.37-5.1-1.95-1.2-3.08-1.95-3.83-1.95-.3 0-.6.07-.82.22-.53.45-1.05.83-1.58 1.2-.07.08-.15.15-.3.15-.6.38-1.13.6-1.73.75-1.05.38-2.17.6-3.3.6-1.19 0-2.24-.22-3.29-.6-.61-.15-1.13-.45-1.73-.75-.67-.37-1.27-.82-1.88-1.35-.22-.15-.44-.22-.82-.22-.75 0-1.5.52-3.9 1.87-2.03 1.13-2.7 2.4-3.38 5.1C.75 58.5.15 63.83 0 66.38h32.55c-.15-2.55-.83-7.88-1.35-10.2z" class="st2"/>
          </g>
          <g id="shape531-17" v:mID="531" v:groupContext="shape" v:layerMember="0" transform="translate(8.475 -17.85)">
            <path d="M10.2 66.38C4.57 66.38 0 61.43 0 55.28c0-6.15 4.57-11.1 10.2-11.1 5.62 0 10.2 4.95 10.2 11.1 0 6.15-4.58 11.1-10.2 11.1z" class="st1"/>
          </g>
          <g id="shape532-19" v:mID="532" v:groupContext="shape" v:layerMember="0" transform="translate(10.725 -20.1)">
            <path d="M7.95 66.38C3.6 66.38 0 62.4 0 57.53c0-4.88 3.6-8.85 7.95-8.85s7.95 3.97 7.95 8.85c0 4.87-3.6 8.85-7.95 8.85z" class="st2"/>
          </g>
        </g>
      </g>
      <g id="group533-21" transform="translate(33 -2.925)" v:mID="533" v:groupContext="group" v:layerMember="0">
        <g id="shape534-22" v:mID="534" v:groupContext="shape" v:layerMember="0">
          <path d="M3.53 66.38C1.57 66.38 0 64.8 0 62.85V51.3c0-1.35.75-2.55 1.95-3.15v-2.02c0-5.18 4.2-9.3 9.3-9.3 5.1 0 9.3 4.12 9.3 9.3v2.02c1.12.6 1.95 1.8 1.95 3.15v11.55c0 1.95-1.57 3.53-3.53 3.53H3.53z" class="st1"/>
        </g>
        <g id="shape535-24" v:mID="535" v:groupContext="shape" v:layerMember="0" transform="translate(2.175 -2.325)">
          <path d="M16.72 52.28h-.67v-3.83c0-3.9-3.15-7.05-7.05-7.05s-7.05 3.15-7.05 7.05v3.83h-.68c-.67 0-1.27.6-1.27 1.27V65.1c0 .68.6 1.28 1.27 1.28h15.45c.68 0 1.28-.6 1.28-1.28V53.63c.07-.75-.53-1.35-1.28-1.35zM4.57 48.45c0-2.47 2.03-4.5 4.5-4.5 2.48 0 4.5 2.03 4.5 4.5v3.83h-9v-3.83z" fill="#515150" stroke-linecap="butt" stroke-width=".75"/>
        </g>
      </g>
      <g id="group536-26" transform="translate(49.05)" v:mID="536" v:groupContext="group" v:layerMember="0">
        <g id="shape537-27" v:mID="537" v:groupContext="shape" v:layerMember="0">
          <path d="M10.65 61.35l-.38-.37.38-.38v-2.1l-.6-.75.3-.37V56.1c1.65-1.2 2.7-3.15 2.7-5.32 0-3.6-2.93-6.53-6.53-6.53S0 47.18 0 50.78c0 2.17 1.05 4.12 2.77 5.32v7.05l2.93 3.23h1.87l3.15-3.23v-1.8h-.07z" class="st1"/>
        </g>
        <g id="shape538-29" v:mID="538" v:groupContext="shape" v:layerMember="0" transform="translate(2.25 -2.25)">
          <path d="M5.85 58.35v-1.27c1.57-.6 2.7-2.18 2.7-3.98 0-2.4-1.95-4.27-4.28-4.27C1.88 48.83 0 50.78 0 53.1c0 1.8 1.12 3.38 2.77 3.98v7.5l1.65 1.8 1.8-1.88-1.27-1.35 1.35-1.42v-.08l-1.5-1.57 1.05-1.28v-.45zm-1.58-7.8c.6 0 1.13.53 1.13 1.13 0 .6-.53 1.12-1.13 1.12-.6 0-1.12-.52-1.12-1.12 0-.6.45-1.13 1.12-1.13z" fill="#525352" stroke-linecap="butt" stroke-width=".75"/>
        </g>
      </g>
    </g>
  </g>
</svg>
