<svg xmlns="http://www.w3.org/2000/svg" xmlns:v="http://schemas.microsoft.com/visio/2003/SVGExtensions/" width="97.5" height="90" viewBox="0 0 73.125 67.5" color-interpolation-filters="sRGB" fill="none" fill-rule="evenodd" font-size="12" overflow="visible" stroke-linecap="square" stroke-miterlimit="3">
  <v:documentProperties v:langID="4108" v:metric="true" v:viewMarkup="false"/>
  <style>
    .st1,.st2{fill:#fff;stroke:none;stroke-linecap:butt;stroke-width:.75}.st2{fill:#515150}
  </style>
  <g v:mID="0" v:index="1" v:groupContext="foregroundPage">
    <v:pageProperties v:drawingScale=".039" v:pageScale=".039" v:drawingUnits="24" v:shadowOffsetX="8.504" v:shadowOffsetY="-8.504"/>
    <v:layer v:name="symbols" v:index="0"/>
    <g id="group1-1" transform="translate(3.375 -1.688)" v:mID="1" v:groupContext="group" v:layerMember="0">
      <g id="group2-2" transform="translate(0 -6)" v:mID="2" v:groupContext="group" v:layerMember="0">
        <g id="shape3-3" v:mID="3" v:groupContext="shape" v:layerMember="0">
          <path d="M50.92 67.5l-.15-2.4c-.22-3.68-1.12-11.33-1.95-14.85-.9-3.9-2.1-6.6-5.85-8.7l-1.35-.75c-2.62-1.5-3.75-2.18-5.25-2.18-.82 0-1.5.15-2.24.53l-1.13.6.9-.75c3.07-2.7 5.02-6.83 5.02-11.48.08-8.17-5.99-14.77-13.42-14.77h-.08c-7.42 0-13.49 6.6-13.49 14.77 0 4.65 1.94 8.78 5.02 11.48l.9.75-1.2-.6c-.68-.38-1.42-.53-2.25-.53-1.5 0-2.7.68-5.25 2.18l-1.35.75c-3.6 2.17-4.8 4.8-5.7 8.7C1.28 53.77.45 61.42.15 65.1L0 67.5h50.92z" class="st1"/>
        </g>
        <g id="shape4-5" v:mID="4" v:groupContext="shape" v:layerMember="0" transform="translate(2.625 -2.325)">
          <path d="M44.03 53.1c-.9-3.83-1.88-5.63-4.73-7.2-2.85-1.65-4.43-2.63-5.48-2.63-.44 0-.82.08-1.12.3-.68.6-1.43 1.2-2.25 1.65-.15.08-.3.15-.38.23-.82.52-1.64.82-2.4 1.12-1.49.53-3.07.83-4.72.83s-3.23-.3-4.73-.83c-.82-.22-1.57-.6-2.39-1.12-.98-.53-1.88-1.2-2.63-1.95-.3-.15-.68-.3-1.12-.3-1.06 0-2.18.75-5.48 2.62-2.85 1.65-3.9 3.45-4.73 7.2C1.12 56.32.22 63.9 0 67.5h46.12c-.52-3.53-1.35-11.1-2.09-14.4z" class="st2"/>
        </g>
        <g id="shape5-7" v:mID="5" v:groupContext="shape" v:layerMember="0" transform="translate(14.175 -27.525)">
          <path d="M11.25 67.5C5.02 67.5 0 61.87 0 54.97c0-6.9 5.1-12.45 11.25-12.45 6.22 0 11.25 5.63 11.25 12.53 0 6.9-5.03 12.45-11.25 12.45z" class="st2"/>
        </g>
      </g>
      <g id="group6-9" transform="translate(40.425)" v:mID="6" v:groupContext="group" v:layerMember="0">
        <g id="shape7-10" v:mID="7" v:groupContext="shape" v:layerMember="0">
          <path d="M18.37 34.65l-1.72-.9H1.2v5.92l.3 2.48v8.47c-.9.53-1.5 1.5-1.5 2.63V64.5c0 1.65 1.35 3 3 3h11.62c2.7 0 4.88-2.18 4.88-4.88V47.77c1.87-1.5 3-3.75 3-6.15.07-2.92-1.5-5.62-4.13-6.97z" class="st1"/>
        </g>
        <g id="shape8-12" v:mID="8" v:groupContext="shape" v:layerMember="0" transform="translate(2.325 -2.25)">
          <path d="M3.75 67.5c.45 0 .75-.3.75-.75V55.5c0-.45-.3-.75-.75-.75H3v-10.5l.3-2.48v-3.52H1.2v3.52l.3 2.48v10.5H.75c-.45 0-.75.37-.75.75v11.25c0 .45.37.75.75.75h3z" class="st2"/>
        </g>
        <g id="shape9-14" v:mID="9" v:groupContext="shape" v:layerMember="0" transform="translate(9.075 -2.25)">
          <path d="M8.25 38.92v4.58L5.62 45 3 43.5v-4.58c-1.8.98-3 2.85-3 4.95s1.2 4.05 3 4.95v16.05c0 1.43 1.2 2.63 2.62 2.63 1.43 0 2.63-1.2 2.63-2.63V48.82c1.8-.97 3-2.85 3-4.95s-1.2-4.05-3-4.95zM5.62 66c-.6 0-1.12-.53-1.12-1.13 0-.6.52-1.12 1.12-1.12.6 0 1.13.52 1.13 1.12 0 .6-.53 1.13-1.13 1.13z" class="st2"/>
        </g>
      </g>
    </g>
  </g>
</svg>
