<svg xmlns="http://www.w3.org/2000/svg" xmlns:v="http://schemas.microsoft.com/visio/2003/SVGExtensions/" width="95.1" height="91.5" viewBox="0 0 71.325 68.625" color-interpolation-filters="sRGB" fill="none" fill-rule="evenodd" font-size="12" overflow="visible" stroke-linecap="square" stroke-miterlimit="3">
  <v:documentProperties v:langID="4108" v:metric="true" v:viewMarkup="false"/>
  <style>
    .st1,.st2{fill:#fff;stroke:none;stroke-linecap:butt;stroke-width:.75}.st2{fill:#505050}
  </style>
  <g v:mID="0" v:index="1" v:groupContext="foregroundPage">
    <v:pageProperties v:drawingScale=".039" v:pageScale=".039" v:drawingUnits="24" v:shadowOffsetX="8.504" v:shadowOffsetY="-8.504"/>
    <v:layer v:name="symbols" v:index="0"/>
    <g id="group10-1" transform="translate(3 -6.938)" v:mID="10" v:groupContext="group" v:layerMember="0">
      <g id="group11-2" v:mID="11" v:groupContext="group" v:layerMember="0">
        <g id="group12-3" v:mID="12" v:groupContext="group" v:layerMember="0">
          <g id="shape13-4" v:mID="13" v:groupContext="shape" v:layerMember="0">
            <path d="M50.92 68.62l-.15-2.4c-.22-3.67-1.12-11.32-1.95-14.85-.9-3.9-2.1-6.6-5.85-8.7l-1.35-.75c-2.62-1.5-3.75-2.17-5.25-2.17-.82 0-1.5.15-2.25.52l-1.12.6.9-.75c3.07-2.7 5.02-6.82 5.02-11.47.08-8.18-6-14.78-13.42-14.78h-.08c-7.42 0-13.49 6.6-13.5 14.78.01 4.65 1.95 8.77 5.03 11.47l.9.75-1.2-.6c-.68-.37-1.43-.52-2.25-.52-1.5 0-2.7.67-5.25 2.17l-1.35.75c-3.68 2.1-4.95 4.8-5.85 8.7C1.13 54.9.3 62.55 0 66.22v2.4h50.92z" class="st1"/>
          </g>
          <g id="shape14-6" v:mID="14" v:groupContext="shape" v:layerMember="0" transform="translate(2.55 -2.325)">
            <path d="M44.02 54.22c-.89-3.82-1.87-5.62-4.72-7.2-2.85-1.65-4.43-2.62-5.48-2.62-.45 0-.82.07-1.12.3-.68.6-1.42 1.2-2.25 1.65-.15.07-.3.15-.38.22-.82.53-1.64.83-2.4 1.13-1.49.52-3.07.82-4.72.82s-3.23-.3-4.73-.82c-.82-.23-1.57-.6-2.4-1.13-.97-.52-1.87-1.2-2.62-1.95-.3-.15-.68-.3-1.13-.3-1.05 0-2.17.75-5.47 2.63-2.85 1.65-3.9 3.45-4.72 7.2C1.12 57.45.22 65.02 0 68.62h46.12c-.45-3.52-1.35-11.1-2.1-14.4z" class="st2"/>
          </g>
          <g id="shape15-8" v:mID="15" v:groupContext="shape" v:layerMember="0" transform="translate(14.175 -27.525)">
            <path d="M11.25 68.62C5.02 68.62 0 63 0 56.1c0-6.9 5.02-12.45 11.25-12.45 6.22 0 11.25 5.62 11.25 12.52 0 6.9-5.03 12.45-11.25 12.45z" class="st2"/>
          </g>
        </g>
        <g id="group16-10" transform="translate(43.2 -23.25)" v:mID="16" v:groupContext="group" v:layerMember="0">
          <g id="shape17-11" v:mID="17" v:groupContext="shape" v:layerMember="0">
            <path d="M13.65 68.62c-.75 0-1.42-.3-1.95-.82L9 65.1l-2.7 2.7c-.52.52-1.2.82-1.95.82s-1.42-.3-1.95-.82L.83 66.22A2.7 2.7 0 0 1 0 64.27c0-.75.3-1.42.83-1.95l2.7-2.7-2.7-2.7A2.7 2.7 0 0 1 0 54.97c0-.75.3-1.42.83-1.95l1.57-1.57c.53-.53 1.2-.83 1.95-.83s1.43.3 1.95.83l2.7 2.7 2.7-2.7c.53-.53 1.2-.83 1.95-.83s1.43.3 1.95.83l1.58 1.57c.52.53.82 1.2.82 1.95s-.3 1.43-.82 1.95l-2.63 2.7 2.7 2.7c.53.53.83 1.2.83 1.95s-.3 1.43-.83 1.95l-1.57 1.58c-.6.52-1.28.82-2.03.82z" class="st1"/>
          </g>
          <g id="shape18-13" v:mID="18" v:groupContext="shape" v:layerMember="0" transform="translate(2.175 -2.175)">
            <path d="M6.83 64.12L2.55 68.4c-.22.22-.52.22-.75 0L.23 66.82c-.23-.22-.23-.52 0-.75L4.5 61.8.23 57.52C0 57.3 0 57 .23 56.77L1.8 55.2c.23-.23.53-.23.75 0l4.28 4.27 4.27-4.27c.23-.23.53-.23.75 0l1.58 1.57c.22.23.22.53 0 .75L9.15 61.8l4.28 4.27c.22.23.22.53 0 .75l-1.58 1.58c-.22.22-.52.22-.75 0l-4.27-4.28z" class="st2"/>
          </g>
        </g>
        <g id="group19-15" transform="translate(41.625 -37.725)" v:mID="19" v:groupContext="group" v:layerMember="0">
          <g id="shape20-16" v:mID="20" v:groupContext="shape" v:layerMember="0">
            <path d="M.97 59.32c-.97-1.12-.9-2.85.15-3.82l1.73-1.58c.53-.45 1.12-.67 1.8-.67.75 0 1.5.3 2.02.9l2.25 2.47 6.38-8.47c.52-.68 1.35-1.05 2.17-1.05.6 0 1.2.22 1.73.6l1.87 1.5c.53.45.9 1.05.98 1.8.07.75-.08 1.42-.53 2.02l-12.3 15.6-8.25-9.3z" class="st1"/>
          </g>
          <g id="shape21-18" v:mID="21" v:groupContext="shape" v:layerMember="0" transform="translate(2.475 -3.525)">
            <path d="M17.25 55.12L6.67 68.62.15 61.27c-.15-.22-.15-.52 0-.67l1.72-1.58c.16-.15.45-.15.68.08l4.12 4.42 7.95-10.42c.15-.23.45-.3.68-.15l1.8 1.5c.22.15.3.45.15.67z" class="st2"/>
          </g>
        </g>
      </g>
    </g>
  </g>
</svg>
