<svg xmlns="http://www.w3.org/2000/svg" xmlns:v="http://schemas.microsoft.com/visio/2003/SVGExtensions/" width="87" height="103.5" viewBox="0 0 65.25 77.625" color-interpolation-filters="sRGB" fill="none" fill-rule="evenodd" font-size="12" overflow="visible" stroke-linecap="square" stroke-miterlimit="3">
  <v:documentProperties v:langID="4108" v:metric="true" v:viewMarkup="false"/>
  <style>
    .st1,.st2{fill:#fff;stroke:none;stroke-linecap:butt;stroke-width:.75}.st2{fill:#515251}
  </style>
  <g v:mID="0" v:index="1" v:groupContext="foregroundPage">
    <v:pageProperties v:drawingScale=".039" v:pageScale=".039" v:drawingUnits="24" v:shadowOffsetX="8.504" v:shadowOffsetY="-8.504"/>
    <v:layer v:name="symbols" v:index="0"/>
    <g id="group38-1" transform="translate(1.65 -7.688)" v:mID="38" v:groupContext="group" v:layerMember="0">
      <g id="group39-2" v:mID="39" v:groupContext="group" v:layerMember="0">
        <g id="group40-3" v:mID="40" v:groupContext="group" v:layerMember="0">
          <g id="shape41-4" v:mID="41" v:groupContext="shape" v:layerMember="0">
            <path d="M0 77.62l.15-2.4C.37 71.85 1.2 64.95 1.87 61.8c.83-3.6 1.95-6 5.33-7.95l1.2-.68c2.4-1.35 3.45-2.02 4.87-2.02.38 0 .76.07 1.05.15l.6.15-.44-.45c-2.41-2.55-3.76-6-3.76-9.68 0-7.42 5.55-13.5 12.38-13.5 6.82 0 12.45 6.08 12.45 13.5 0 3.68-1.35 7.13-3.75 9.68l-.3.45.6-.15c.37-.08.67-.15 1.05-.15 1.42 0 2.47.6 4.87 2.02l1.2.68c3.38 1.95 4.5 4.42 5.33 7.95.75 3.22 1.5 10.12 1.72 13.42l.23 2.4H0z" class="st1"/>
          </g>
          <g id="shape42-6" v:mID="42" v:groupContext="shape" v:layerMember="0" transform="translate(2.4 -2.25)">
            <path d="M39.97 64.57c-.75-3.45-1.72-5.1-4.27-6.52-2.63-1.43-4.05-2.4-4.95-2.4-.45 0-.75.07-1.05.22-.6.6-1.28 1.05-2.03 1.5-.15.08-.22.15-.37.23-.75.45-1.43.75-2.18.97-1.34.45-2.77.75-4.27.75-1.5 0-2.93-.3-4.28-.75-.74-.22-1.42-.52-2.17-.97-.9-.53-1.65-1.05-2.4-1.73-.3-.15-.6-.22-1.05-.22-.97 0-1.95.67-4.95 2.4-2.55 1.5-3.52 3.07-4.28 6.52-.67 3-1.5 9.83-1.72 13.05h41.7c-.23-3.3-1.05-10.05-1.73-13.05z" class="st2"/>
          </g>
          <g id="shape43-8" v:mID="43" v:groupContext="shape" v:layerMember="0" transform="translate(13.05 -25.05)">
            <path d="M10.2 77.62C4.57 77.62 0 72.52 0 66.3c0-6.23 4.57-11.25 10.2-11.25 5.62 0 10.2 5.1 10.2 11.32 0 6.23-4.58 11.25-10.2 11.25z" class="st2"/>
          </g>
        </g>
        <g id="group44-10" transform="translate(25.5 -28.5)" v:mID="44" v:groupContext="group" v:layerMember="0">
          <g id="shape45-11" v:mID="45" v:groupContext="shape" v:layerMember="0">
            <path d="M29.25 43.87H3.75c-2.1 0-3.75 1.65-3.75 3.75v18.75c0 2.1 1.65 3.75 3.75 3.75h10.5v5.25c0 .98.6 1.8 1.5 2.1.22.08.52.15.75.15.68 0 1.27-.3 1.72-.82l5.7-6.68h5.33c2.1 0 3.75-1.65 3.75-3.75V47.62c0-2.1-1.65-3.75-3.75-3.75z" class="st1"/>
          </g>
          <g id="shape46-13" v:mID="46" v:groupContext="shape" v:layerMember="0" transform="translate(2.25 -2.25)">
            <path d="M27 48.37H1.5c-.83 0-1.5.68-1.5 1.5v18.75c0 .83.67 1.5 1.5 1.5h12.75v7.5l6.37-7.5H27c.82 0 1.5-.67 1.5-1.5V49.87c0-.82-.68-1.5-1.5-1.5zm-20.25 7.5h9.75v1.5H6.75v-1.5zm12.75 6.75H6.75v-1.5H19.5v1.5z" fill="#525352" stroke-linecap="butt" stroke-width=".75"/>
          </g>
        </g>
      </g>
    </g>
  </g>
</svg>
