<svg xmlns="http://www.w3.org/2000/svg" xmlns:v="http://schemas.microsoft.com/visio/2003/SVGExtensions/" width="88.5" height="100.5" viewBox="0 0 66.375 75.375" color-interpolation-filters="sRGB" fill="none" fill-rule="evenodd" font-size="12" overflow="visible" stroke-linecap="square" stroke-miterlimit="3">
  <v:documentProperties v:langID="4108" v:metric="true" v:viewMarkup="false"/>
  <style>
    .st1,.st2,.st3{fill:#fff;stroke:none;stroke-linecap:butt;stroke-width:.75}.st2,.st3{fill:#515251}.st3{fill:#515050}
  </style>
  <g v:mID="0" v:index="1" v:groupContext="foregroundPage">
    <v:pageProperties v:drawingScale=".039" v:pageScale=".039" v:drawingUnits="24" v:shadowOffsetX="8.504" v:shadowOffsetY="-8.504"/>
    <v:layer v:name="symbols" v:index="0"/>
    <g id="group47-1" transform="translate(1.875 -5.063)" v:mID="47" v:groupContext="group" v:layerMember="0">
      <g id="group48-2" transform="translate(0 -3.75)" v:mID="48" v:groupContext="group" v:layerMember="0">
        <g id="shape49-3" v:mID="49" v:groupContext="shape" v:layerMember="0">
          <path d="M50.77 72.97c-.22-3.67-1.12-11.32-1.94-14.85-.91-3.9-2.1-6.6-5.86-8.7l-1.34-.75c-2.63-1.5-3.75-2.17-5.26-2.17-.82 0-1.5.15-2.24.52l-1.13.6.9-.75c.82-.75 1.65-1.65 2.33-2.62 2.62-.15 5.47-3 6.07-5.93.75-.6 1.2-1.57 1.2-2.55 0-10.87-8.1-19.65-18.08-19.65-9.97 0-18.07 8.78-18.07 19.65 0 .98.45 1.88 1.12 2.55v1.73c0 3 1.05 5.62 2.63 7.65-.53.3-1.2.67-1.95 1.12l-1.35.75c-3.6 2.03-4.87 4.65-5.78 8.55C1.2 61.65.38 69.3.07 72.97L0 75.37h50.92l-.15-2.4z" class="st1"/>
        </g>
        <g id="shape50-5" v:mID="50" v:groupContext="shape" v:layerMember="0" transform="translate(2.55 -2.325)">
          <path d="M44.03 60.97c-.9-3.82-1.88-5.62-4.73-7.2-2.85-1.65-4.42-2.62-5.48-2.62-.44 0-.82.07-1.12.3-.67.6-1.42 1.2-2.25 1.65-.15.07-.3.15-.38.22-.82.53-1.64.83-2.39 1.13-1.5.52-3.08.82-4.73.82-1.65 0-3.23-.3-4.73-.82-.82-.23-1.57-.6-2.39-1.13-.98-.52-1.88-1.2-2.63-1.95-.3-.15-.68-.3-1.12-.3-1.06 0-2.18.75-5.48 2.63-2.85 1.65-3.9 3.45-4.72 7.2C1.13 64.2.23 71.77 0 75.37h46.13c-.46-3.52-1.36-11.1-2.1-14.4z" class="st2"/>
        </g>
        <g id="shape51-7" v:mID="51" v:groupContext="shape" v:layerMember="0" transform="translate(14.175 -27.525)">
          <path d="M11.25 75.37C5.02 75.37 0 69.75 0 62.85c0-6.9 5.02-12.45 11.25-12.45S22.5 56.02 22.5 62.92c0 6.9-5.02 12.45-11.25 12.45z" class="st2"/>
        </g>
        <g id="shape52-9" v:mID="52" v:groupContext="shape" v:layerMember="0" transform="translate(9.225 -23.85)">
          <path d="M11.25 75.37C5.85 75.37 0 70.72 0 63.82v-4.57h4.05v4.57c0 4.88 4.28 7.5 7.2 7.5h1.5v4.05h-1.5z" class="st1"/>
        </g>
        <g id="shape53-11" v:mID="53" v:groupContext="shape" v:layerMember="0" transform="translate(18.45 -22.95)">
          <path d="M3.37 75.37C1.8 75.37 0 74.25 0 72.52c0-1.57 1.58-2.92 3.37-2.92h4.58c1.8 0 3.38 1.35 3.38 2.92 0 1.73-1.73 2.85-3.38 2.85H3.37z" class="st1"/>
        </g>
        <g id="shape54-13" v:mID="54" v:groupContext="shape" v:layerMember="0" transform="translate(9.3 -31.8)">
          <path d="M5.62 75.37C2.85 75.37 0 71.47 0 68.7c0-3.68 2.85-5.63 5.62-5.63.83 0 1.43.38 1.73.68.75.75.75 1.87.75 2.77v5.7c-.08.75-.15 3.15-2.48 3.15z" class="st1"/>
        </g>
        <g id="shape55-15" v:mID="55" v:groupContext="shape" v:layerMember="0" transform="translate(33.525 -31.8)">
          <path d="M2.48 75.37C.07 75.37 0 72.97 0 72.15V66.6c0-.68 0-1.35.23-1.95C.6 63.6 1.42 63 2.55 63c2.78 0 5.63 2.25 5.63 5.92-.08 3-3.08 6.45-5.7 6.45z" class="st1"/>
        </g>
        <g id="shape56-17" v:mID="56" v:groupContext="shape" v:layerMember="0" transform="translate(9.225 -23.85)">
          <path d="M11.25 75.37C5.85 75.37 0 70.72 0 63.82v-4.57h4.05v4.57c0 4.88 4.28 7.5 7.2 7.5h1.5v4.05h-1.5z" class="st1"/>
        </g>
        <g id="shape57-19" v:mID="57" v:groupContext="shape" v:layerMember="0" transform="translate(33.525 -31.8)">
          <path d="M2.48 75.37C.07 75.37 0 72.97 0 72.15V66.6c0-.68 0-1.35.23-1.95C.6 63.6 1.42 63 2.55 63c2.78 0 5.63 2.25 5.63 5.92-.08 3-3.08 6.45-5.7 6.45z" class="st1"/>
        </g>
        <g id="shape58-21" v:mID="58" v:groupContext="shape" v:layerMember="0" transform="translate(10.725 -25.35)">
          <path d="M9.75 75.37C5.32 75.37 0 71.47 0 65.32v-3.07h1.05v3.07c0 5.63 4.8 9 8.7 9v1.05z" class="st3"/>
        </g>
        <g id="shape59-23" v:mID="59" v:groupContext="shape" v:layerMember="0" transform="translate(19.95 -24.45)">
          <path d="M6.45 75.37c.9 0 1.87-.67 1.87-1.35 0-.75-.9-1.42-1.87-1.42H1.87c-.89 0-1.87.67-1.87 1.42 0 .75.9 1.35 1.87 1.35h4.58z" class="st3"/>
        </g>
        <g id="shape60-25" v:mID="60" v:groupContext="shape" v:layerMember="0" transform="translate(10.8 -33.375)">
          <path d="M5.1 68.17c0-1.05.07-2.1-.98-2.1C2.02 66.07 0 67.5 0 70.2c0 2.17 2.4 5.17 4.12 5.17 1.05 0 .9-1.05.98-2.1v-5.1z" class="st3"/>
        </g>
        <g id="shape61-27" v:mID="61" v:groupContext="shape" v:layerMember="0" transform="translate(34.95 -33.375)">
          <path d="M0 68.17c0-1.05 0-2.1 1.05-2.1 2.1 0 4.12 1.73 4.12 4.43 0 2.17-2.4 4.87-4.12 4.87-1.05 0-.97-1.05-1.05-2.1v-5.1z" class="st3"/>
        </g>
        <g id="shape62-29" v:mID="62" v:groupContext="shape" v:layerMember="0" transform="translate(9.6 -38.475)">
          <path d="M30.53 75.37c-.6 0-1.13-.52-1.13-1.12 0-8.4-6.07-15.15-13.57-15.15S2.25 65.85 2.25 74.25c0 .6-.52 1.12-1.13 1.12-.6 0-1.12-.52-1.12-1.12 0-9.6 7.12-17.4 15.83-17.4 8.7 0 15.82 7.8 15.82 17.4 0 .6-.52 1.12-1.12 1.12z" class="st2"/>
        </g>
      </g>
      <g id="group63-31" transform="translate(29.25)" v:mID="63" v:groupContext="group" v:layerMember="0">
        <g id="shape64-32" v:mID="64" v:groupContext="shape" v:layerMember="0">
          <path d="M8.1 75.37c-2.03 0-3.83-.6-5.55-1.72l-.22-.15-.15-.15C1.5 72.82.9 72.15.6 71.32l-.07-.15c-.53-1.5-.23-3.45.74-4.87l1.88-2.78c1.12-1.57 2.7-2.47 4.2-2.47.22 0 .52 0 .75.07.6.15 1.2.38 1.73.75l1.42 1.05 5.85-8.25-1.43-.97c-.52-.38-.89-.83-1.2-1.35-.89-1.58-.67-3.68.53-5.4l2.02-2.78c.98-1.35 2.71-2.32 4.28-2.32h.15c.9 0 1.73.3 2.47.75l.38.22c1.65 1.2 2.77 2.78 3.45 4.65 1.2 3.38.67 7.5-1.35 11.25-.23.53-1.35 2.7-3.22 5.48l-.76 1.05c-2.02 2.77-3.67 4.5-4.12 4.95-2.85 3.37-6.52 5.17-10.2 5.17z" class="st1"/>
        </g>
        <g id="shape65-34" v:mID="65" v:groupContext="shape" v:layerMember="0" transform="translate(2.475 -2.25)">
          <path d="M18.08 66.37c-2.11 2.85-3.91 4.65-3.91 4.65-2.47 2.78-5.54 4.35-8.47 4.35-1.57 0-3-.45-4.28-1.35l-.22-.07-.15-.15c-.38-.23-.6-.6-.75-1.05v-.08c-.3-.82-.08-1.95.45-2.77l1.87-2.78c.75-.97 1.8-1.57 2.63-1.42.3.07.52.15.82.37l1.65 1.2c.91.6 2.1.38 2.7-.45l6.15-8.7c.6-.9.38-2.1-.45-2.7l-1.65-1.2c-.22-.15-.44-.37-.6-.67-.45-.75-.22-1.95.46-3l2.02-2.7c.6-.83 1.57-1.43 2.48-1.35h.07c.45 0 .9.15 1.2.37l.15.15.15.08c1.27.9 2.17 2.1 2.7 3.6.97 2.77.52 6.22-1.28 9.45.01.07-1.12 2.32-3.07 5.25l-.67.97z" class="st2"/>
        </g>
      </g>
    </g>
  </g>
</svg>
