<svg xmlns="http://www.w3.org/2000/svg" xmlns:v="http://schemas.microsoft.com/visio/2003/SVGExtensions/" width="92.325" height="94.5" viewBox="0 0 69.244 70.875" color-interpolation-filters="sRGB" fill="none" fill-rule="evenodd" font-size="12" overflow="visible" stroke-linecap="square" stroke-miterlimit="3">
  <v:documentProperties v:langID="4108" v:metric="true" v:viewMarkup="false"/>
  <style>
    .st1,.st2{fill:#fff;stroke:none;stroke-linecap:butt;stroke-width:.75}.st2{fill:#515251}
  </style>
  <g v:mID="0" v:index="1" v:groupContext="foregroundPage">
    <v:pageProperties v:drawingScale=".039" v:pageScale=".039" v:drawingUnits="24" v:shadowOffsetX="8.504" v:shadowOffsetY="-8.504"/>
    <v:layer v:name="symbols" v:index="0"/>
    <g id="group66-1" transform="translate(5.831 -1.688)" v:mID="66" v:groupContext="group" v:layerMember="0">
      <g id="group67-2" v:mID="67" v:groupContext="group" v:layerMember="0">
        <g id="group68-3" transform="translate(0 -8.25)" v:mID="68" v:groupContext="group" v:layerMember="0">
          <g id="shape69-4" v:mID="69" v:groupContext="shape" v:layerMember="0">
            <path d="M50.92 70.88l-.15-2.4c-.22-3.68-1.12-11.33-1.95-14.85-.9-3.9-2.09-6.6-5.85-8.7l-1.35-.75C39 42.68 37.88 42 36.37 42c-.82 0-1.5.15-2.24.53l-1.13.6.9-.75c3.07-2.7 5.03-6.83 5.03-11.48.07-8.17-6-14.77-13.43-14.77h-.08c-7.42 0-13.49 6.6-13.49 14.77 0 4.65 1.94 8.78 5.02 11.48l.9.75-1.2-.6c-.68-.38-1.42-.53-2.25-.53-1.5 0-2.7.68-5.25 2.18l-1.35.75c-3.6 2.17-4.8 4.8-5.7 8.7C1.28 57.15.45 64.8.15 68.48L0 70.88h50.92z" class="st1"/>
          </g>
          <g id="shape70-6" v:mID="70" v:groupContext="shape" v:layerMember="0" transform="translate(2.625 -2.325)">
            <path d="M44.03 56.48c-.9-3.83-1.88-5.63-4.73-7.2-2.85-1.65-4.42-2.63-5.48-2.63-.44 0-.82.08-1.12.3-.68.6-1.43 1.2-2.25 1.65-.15.08-.3.15-.38.23-.82.52-1.64.82-2.4 1.12-1.49.53-3.07.83-4.72.83s-3.23-.3-4.73-.83c-.82-.22-1.57-.6-2.39-1.12-.98-.53-1.88-1.2-2.63-1.95-.3-.15-.68-.3-1.12-.3-1.06 0-2.18.75-5.48 2.62-2.85 1.65-3.9 3.45-4.73 7.2C1.12 59.7.23 67.28 0 70.88h46.13c-.53-3.53-1.36-11.1-2.1-14.4z" class="st2"/>
          </g>
          <g id="shape71-8" v:mID="71" v:groupContext="shape" v:layerMember="0" transform="translate(14.175 -27.525)">
            <path d="M11.25 70.88C5.02 70.88 0 65.25 0 58.35c0-6.9 5.1-12.45 11.25-12.45 6.22 0 11.25 5.63 11.25 12.53 0 6.9-5.03 12.45-11.25 12.45z" class="st2"/>
          </g>
        </g>
        <g id="group72-10" transform="translate(29.1)" v:mID="72" v:groupContext="group" v:layerMember="0">
          <g id="shape73-11" v:mID="73" v:groupContext="shape" v:layerMember="0">
            <path d="M16.12 70.88C7.2 70.88 0 63.68 0 54.75c0-8.92 7.2-16.12 16.12-16.12 8.93 0 16.13 7.2 16.13 16.12 0 8.93-7.28 16.13-16.13 16.13z" class="st1"/>
          </g>
          <g id="shape74-13" v:mID="74" v:groupContext="shape" v:layerMember="0" transform="translate(2.25 -2.25)">
            <path d="M13.87 43.13C6.15 43.13 0 49.35 0 57c0 7.65 6.15 13.88 13.87 13.88 7.66 0 13.88-6.23 13.88-13.88s-6.22-13.87-13.88-13.87zm8.7 8.17L11.92 64.88 5.4 57.45c-.15-.22-.15-.52 0-.67l1.73-1.58c.14-.15.44-.15.67.08l4.12 4.5 8.03-10.65c.15-.23.45-.23.67-.08l1.8 1.5c.23.23.3.53.15.75z" fill="#515150" stroke-linecap="butt" stroke-width=".75"/>
          </g>
        </g>
      </g>
    </g>
  </g>
</svg>
