<svg xmlns="http://www.w3.org/2000/svg" xmlns:v="http://schemas.microsoft.com/visio/2003/SVGExtensions/" width="97.5" height="79.5" viewBox="0 0 73.125 59.625" color-interpolation-filters="sRGB" fill="none" fill-rule="evenodd" font-size="12" overflow="visible" stroke-linecap="square" stroke-miterlimit="3">
  <v:documentProperties v:langID="4108" v:metric="true" v:viewMarkup="false"/>
  <style>
    .st1,.st2{fill:#fff;stroke:none;stroke-linecap:butt;stroke-width:.75}.st2{fill:#505050}
  </style>
  <g v:mID="0" v:index="1" v:groupContext="foregroundPage">
    <v:pageProperties v:drawingScale=".039" v:pageScale=".039" v:drawingUnits="24" v:shadowOffsetX="8.504" v:shadowOffsetY="-8.504"/>
    <v:layer v:name="symbols" v:index="0"/>
    <g id="group75-1" transform="translate(8.738 -4.688)" v:mID="75" v:groupContext="group" v:layerMember="0">
      <g id="group76-2" v:mID="76" v:groupContext="group" v:layerMember="0">
        <g id="group77-3" transform="translate(0 -6.75)" v:mID="77" v:groupContext="group" v:layerMember="0">
          <g id="shape78-4" v:mID="78" v:groupContext="shape" v:layerMember="0">
            <path d="M5.25 59.62C2.32 59.62 0 57.3 0 54.37V23.62c0-2.92 2.32-5.25 5.25-5.25h42c2.93 0 5.25 2.33 5.25 5.25v30.75c0 2.93-2.32 5.25-5.25 5.25h-42z" class="st1"/>
          </g>
          <g id="shape79-6" v:mID="79" v:groupContext="shape" v:layerMember="0" transform="translate(2.25 -2.25)">
            <path d="M45 22.87H3c-1.65 0-3 1.35-3 3v30.75c0 1.65 1.35 3 3 3h42c1.65 0 3-1.35 3-3V25.87c0-1.65-1.35-3-3-3zm-21.75 9v5.25H13.5v-5.25h9.75zm-9.75-1.5v-5.25h9.75v5.25H13.5zm9.75 8.25v5.25H13.5v-5.25h9.75zM12 37.12H2.25v-5.25H12v5.25zm0 1.5v5.25H2.25v-5.25H12zm0 6.75v5.25H2.25v-5.25H12zm1.5 0h9.75v5.25H13.5v-5.25zm9.75 6.75v5.25H13.5v-5.25h9.75zm1.5 0h9.75v5.25h-9.75v-5.25zm0-1.5v-5.25h9.75v5.25h-9.75zm0-6.75v-5.25h9.75v5.25h-9.75zm0-6.75v-5.25h9.75v5.25h-9.75zm0-6.75v-5.25h9.75v5.25h-9.75zM3 25.12h9v5.25H2.25v-4.5c0-.37.38-.75.75-.75zm-.75 31.5v-4.5H12v5.25H3c-.37 0-.75-.37-.75-.75zm43.5 0c0 .38-.37.75-.75.75h-9v-5.25h9.75v4.5zm0-6H36v-5.25h9.75v5.25zm0-6.75H36v-5.25h9.75v5.25zm0-6.75H36v-5.25h9.75v5.25zm0-6.75H36v-5.25h9c.38 0 .75.38.75.75v4.5z" class="st2"/>
          </g>
        </g>
        <g id="group80-8" transform="translate(32.25)" v:mID="80" v:groupContext="group" v:layerMember="0">
          <g id="shape81-9" v:mID="81" v:groupContext="shape" v:layerMember="0">
            <path d="M31.12 57.22c-.15-2.17-.67-6.6-1.12-8.7-.6-2.47-1.43-4.27-3.82-5.62-.31-.15-.61-.3-.83-.45-1.05-.6-1.88-1.05-2.63-1.28 1.05-1.57 1.66-3.45 1.66-5.55 0-5.17-3.9-9.45-8.7-9.45-4.8 0-8.71 4.2-8.7 9.45-.01 2.1.59 3.98 1.65 5.55-.75.15-1.5.6-2.78 1.28l-.75.45c-2.4 1.35-3.22 3.15-3.82 5.62-.46 2.1-.98 6.53-1.13 8.7L0 59.62h31.27l-.15-2.4z" class="st1"/>
          </g>
          <g id="shape82-11" v:mID="82" v:groupContext="shape" v:layerMember="0" transform="translate(2.55 -2.25)">
            <path d="M25.27 51.3c-.52-2.18-1.12-3.23-2.69-4.13-1.66-.9-2.56-1.5-3.15-1.5-.31 0-.45.08-.68.15-.37.38-.82.68-1.28.98.01 0 .01 0 0 0-.07.07-.15.07-.22.15-.45.3-.9.45-1.43.6-.82.3-1.72.45-2.7.45-.97 0-1.87-.15-2.7-.45-.44-.15-.89-.38-1.35-.6a7.29 7.29 0 0 1-1.5-1.13c-.14-.07-.37-.15-.67-.15-.6 0-1.27.45-3.15 1.5-1.65.9-2.25 1.95-2.7 4.13C.6 53.17.08 57.52 0 59.62h26.47c-.3-2.1-.75-6.37-1.2-8.32z" class="st2"/>
          </g>
          <g id="shape83-13" v:mID="83" v:groupContext="shape" v:layerMember="0" transform="translate(9.225 -16.725)">
            <path d="M6.45 59.62c-3.6 0-6.45-3.22-6.45-7.2 0-3.97 2.93-7.2 6.45-7.2 3.6 0 6.45 3.23 6.45 7.2 0 3.98-2.92 7.2-6.45 7.2z" class="st2"/>
          </g>
        </g>
      </g>
    </g>
  </g>
</svg>
