<svg xmlns="http://www.w3.org/2000/svg" xmlns:v="http://schemas.microsoft.com/visio/2003/SVGExtensions/" width="97.125" height="102" viewBox="0 0 72.844 76.5" color-interpolation-filters="sRGB" fill="none" fill-rule="evenodd" font-size="12" overflow="visible" stroke-linecap="square" stroke-miterlimit="3">
  <v:documentProperties v:langID="4108" v:metric="true" v:viewMarkup="false"/>
  <style>
    .st1,.st2,.st3{fill:#fff;stroke:none;stroke-linecap:butt;stroke-width:.75}.st2,.st3{fill:#515251}.st3{fill:#515050}
  </style>
  <g v:mID="0" v:index="1" v:groupContext="foregroundPage">
    <v:pageProperties v:drawingScale=".039" v:pageScale=".039" v:drawingUnits="24" v:shadowOffsetX="8.504" v:shadowOffsetY="-8.504"/>
    <v:layer v:name="symbols" v:index="0"/>
    <g id="group126-1" transform="translate(5.006 -6.938)" v:mID="126" v:groupContext="group" v:layerMember="0">
      <g id="group127-2" transform="translate(0 -9)" v:mID="127" v:groupContext="group" v:layerMember="0">
        <g id="shape128-3" v:mID="128" v:groupContext="shape" v:layerMember="0">
          <path d="M50.92 76.5l-.15-2.4c-.22-3.68-1.12-11.33-1.95-14.85-.9-3.9-2.1-6.6-5.85-8.7l-1.35-.75c-2.62-1.5-3.75-2.18-5.25-2.18-.82 0-1.5.15-2.24.53l-1.13.6.9-.75c3.07-2.7 5.02-6.83 5.02-11.48.08-8.17-6-14.77-13.42-14.77h-.08c-7.42 0-13.49 6.6-13.5 14.77.01 4.65 1.95 8.78 5.03 11.48l.9.75-1.2-.6c-.68-.38-1.43-.53-2.25-.53-1.5 0-2.7.68-5.25 2.18l-1.35.75c-3.6 2.17-4.88 4.8-5.78 8.7C1.2 62.77.37 70.42.07 74.1L0 76.5h50.92z" class="st1"/>
        </g>
        <g id="shape129-5" v:mID="129" v:groupContext="shape" v:layerMember="0" transform="translate(2.55 -2.325)">
          <path d="M44.03 62.1c-.9-3.83-1.88-5.63-4.73-7.2-2.85-1.65-4.43-2.63-5.48-2.63-.44 0-.82.08-1.12.3-.68.6-1.43 1.2-2.25 1.65-.15.08-.3.15-.38.23-.82.52-1.64.82-2.4 1.12-1.49.53-3.07.83-4.72.83s-3.23-.3-4.73-.83c-.82-.22-1.57-.6-2.39-1.12-.98-.53-1.88-1.2-2.63-1.95-.3-.15-.68-.3-1.12-.3-1.06 0-2.18.75-5.48 2.62-2.85 1.65-3.9 3.45-4.73 7.2C1.12 65.32.22 72.9 0 76.5h46.12c-.45-3.53-1.35-11.1-2.09-14.4z" class="st2"/>
        </g>
        <g id="shape130-7" v:mID="130" v:groupContext="shape" v:layerMember="0" transform="translate(14.175 -27.525)">
          <path d="M11.25 76.5C5.02 76.5 0 70.87 0 63.97c0-6.9 5.02-12.45 11.25-12.45 6.22 0 11.25 5.63 11.25 12.53 0 6.9-5.03 12.45-11.25 12.45z" class="st2"/>
        </g>
      </g>
      <g id="group131-9" transform="translate(27.675)" v:mID="131" v:groupContext="group" v:layerMember="0">
        <g id="shape132-10" v:mID="132" v:groupContext="shape" v:layerMember="0">
          <path class="st1" d="M0 48h35.25v28.5H0z"/>
        </g>
        <g id="group133-12" transform="translate(2.25 -2.25)" v:mID="133" v:groupContext="group" v:layerMember="0">
          <g id="shape134-13" v:mID="134" v:groupContext="shape" v:layerMember="0">
            <path class="st1" d="M0 52.5h30.75v24H0z"/>
          </g>
          <g id="shape135-15" v:mID="135" v:groupContext="shape" v:layerMember="0">
            <path d="M29.25 54v21H1.5V54h27.75zm1.5-1.5H0v24h30.75v-24z" class="st3"/>
          </g>
        </g>
        <g id="shape136-17" v:mID="136" v:groupContext="shape" v:layerMember="0" transform="translate(8.25 -12.75)">
          <path class="st3" d="M0 75h13.5v1.5H0z"/>
        </g>
        <g id="shape137-19" v:mID="137" v:groupContext="shape" v:layerMember="0" transform="translate(8.25 -8.25)">
          <path class="st3" d="M0 75h17.25v1.5H0z"/>
        </g>
        <g id="shape138-21" v:mID="138" v:groupContext="shape" v:layerMember="0" transform="translate(25.5 -18)">
          <path class="st3" d="M0 72h3.75v4.5H0z"/>
        </g>
      </g>
    </g>
  </g>
</svg>
