<svg xmlns="http://www.w3.org/2000/svg" xmlns:v="http://schemas.microsoft.com/visio/2003/SVGExtensions/" width="105" height="81" viewBox="0 0 78.75 60.75" color-interpolation-filters="sRGB" fill="none" fill-rule="evenodd" font-size="12" overflow="visible" stroke-linecap="square" stroke-miterlimit="3">
  <v:documentProperties v:langID="4108" v:metric="true" v:viewMarkup="false"/>
  <style>
    .st3,.st4{fill:#fff;stroke:none;stroke-linecap:butt;stroke-width:.75}.st4{fill:#515251}
  </style>
  <g v:mID="0" v:index="1" v:groupContext="foregroundPage">
    <v:pageProperties v:drawingScale=".039" v:pageScale=".039" v:drawingUnits="24" v:shadowOffsetX="8.504" v:shadowOffsetY="-8.504"/>
    <v:layer v:name="symbols" v:index="0"/>
    <g id="group139-1" transform="translate(7.5 -9.488)" v:mID="139" v:groupContext="group" v:layerMember="0">
      <g id="shape140-2" v:mID="140" v:groupContext="shape" v:layerMember="0" transform="translate(0 -7.5)">
        <path d="M0 60.75h24.15l-.15-2.4c-.08-1.57-.53-4.87-.83-6.45-.45-1.87-1.12-3.37-3.07-4.5l-.6-.37c-1.05-.6-1.88-1.05-2.85-1.05-.53 0-1.05.15-1.58.37l-.22.15-.23.15c-.07.08-.22.23-.37.3h-.08l-.3.23h-.07c-.15.07-.3.15-.6.22-.38.15-.83.23-1.28.23-.45 0-.82-.08-1.35-.23-.15-.07-.37-.15-.6-.3-.22-.15-.52-.3-.75-.52v-.08L9 46.35c-.45-.22-.98-.37-1.58-.37-.97 0-1.72.37-2.85 1.12l-.52.3C2.1 48.53 1.42 50.03.97 51.9L0 60.75z" fill="#fff"/>
        <path d="M0 60.75h24.15l-.15-2.4c-.08-1.57-.53-4.87-.83-6.45-.45-1.87-1.12-3.37-3.07-4.5l-.6-.37c-1.05-.6-1.88-1.05-2.85-1.05-.53 0-1.05.15-1.58.37l-.22.15-.23.15c-.07.08-.22.23-.37.3h-.08l-.3.23h-.07c-.15.07-.3.15-.6.22-.38.15-.83.23-1.28.23-.45 0-.82-.08-1.35-.23-.15-.07-.37-.15-.6-.3-.22-.15-.52-.3-.75-.52v-.08L9 46.35c-.45-.22-.98-.37-1.58-.37-.97 0-1.72.37-2.85 1.12l-.52.3C2.1 48.53 1.42 50.03.97 51.9" stroke-linecap="butt" stroke-width=".75"/>
      </g>
      <g id="shape141-5" v:mID="141" v:groupContext="shape" v:layerMember="0" transform="translate(39.6 -7.5)">
        <path d="M24.15 59.33l-.08-.98c-.07-1.57-.52-4.87-.82-6.45-.45-1.87-1.13-3.37-3.08-4.5l-.6-.37c-1.05-.6-1.87-1.05-2.77-1.05-.53 0-1.05.15-1.58.37l-.3.15-.22.15c-.15.15-.38.3-.6.45l-.15.15c-.15.08-.38.15-.6.23-.38.15-.83.22-1.28.22-.45 0-.82-.07-1.35-.22-.15-.08-.37-.15-.6-.3-.22-.15-.52-.3-.75-.53l-.07-.15-.23-.15a3.53 3.53 0 0 0-1.57-.37c-.98 0-1.73.37-2.85 1.12l-.6.3C2.1 48.53 1.43 50.03.98 51.9.6 53.48.23 56.78.15 58.35L0 60.75h24.15v-1.42z" class="st3"/>
      </g>
      <g id="group142-7" transform="translate(20.025 -17.25)" v:mID="142" v:groupContext="group" v:layerMember="0">
        <g id="shape143-8" v:mID="143" v:groupContext="shape" v:layerMember="0">
          <path d="M0 60.75l.15-2.4c.08-1.57.52-4.87.82-6.45.45-1.87 1.13-3.37 3.08-4.5l.6-.3c1.2-.67 1.87-1.12 2.85-1.12.52 0 1.05.15 1.57.37l.23.15.22.15c.23.23.45.38.75.53.23.15.38.22.6.3.45.15.9.22 1.35.22.45 0 .83-.07 1.28-.22.22-.08.45-.15.6-.23l.07-.07.15-.08c.23-.15.38-.3.6-.45l.23-.15.22-.15c.45-.22.98-.37 1.58-.37.97 0 1.72.45 2.85 1.05l.6.37c1.95 1.13 2.62 2.63 3.07 4.5.38 1.58.75 4.88.83 6.45l-.08 2.4H0z" class="st3"/>
        </g>
        <g id="shape144-10" v:mID="144" v:groupContext="shape" v:layerMember="0" transform="translate(2.4 -2.25)">
          <path d="M18.6 54.68c-.38-1.58-.83-2.4-2.03-3.08-1.2-.67-1.87-1.12-2.32-1.12-.23 0-.38.07-.45.15-.3.3-.6.52-.98.67-.07 0-.07.08-.15.08-.37.22-.67.37-1.05.45-.6.22-1.27.37-1.95.37-.67 0-1.35-.15-1.95-.37-.37-.08-.67-.23-1.05-.45-.37-.23-.75-.53-1.12-.83-.15-.07-.3-.15-.45-.15-.45 0-.9.3-2.33 1.13-1.2.67-1.65 1.42-2.02 3.07-.3 1.43-.67 4.65-.75 6.15h19.42c-.15-1.5-.45-4.72-.82-6.07z" class="st4"/>
        </g>
        <g id="shape145-12" v:mID="145" v:groupContext="shape" v:layerMember="0" transform="translate(5.1 -10.65)">
          <path d="M6.97 60.75c-3.82 0-6.97-3.37-6.97-7.5 0-4.12 3.15-7.5 6.97-7.5 3.83 0 6.98 3.38 6.98 7.5 0 4.13-3.08 7.5-6.98 7.5z" class="st3"/>
        </g>
        <g id="shape146-14" v:mID="146" v:groupContext="shape" v:layerMember="0" transform="translate(7.35 -12.9)">
          <path d="M4.72 60.75C2.1 60.75 0 58.35 0 55.5c0-2.92 2.1-5.25 4.72-5.25 2.63 0 4.73 2.4 4.73 5.25.07 2.85-2.1 5.25-4.73 5.25z" class="st4"/>
        </g>
      </g>
      <g id="group147-16" transform="translate(2.325 -9.75)" v:mID="147" v:groupContext="group" v:layerMember="0">
        <g id="shape148-17" v:mID="148" v:groupContext="shape" v:layerMember="0">
          <path d="M18.6 54.68c-.38-1.58-.83-2.4-2.03-3.08-1.2-.67-1.87-1.12-2.32-1.12-.23 0-.38.07-.45.15-.3.3-.6.52-.98.67-.07 0-.07.08-.15.08-.37.22-.67.37-1.05.45-.6.22-1.27.37-1.95.37-.67 0-1.35-.15-1.94-.37-.38-.08-.68-.23-1.06-.45-.37-.23-.74-.53-1.12-.83-.15-.07-.3-.15-.45-.15-.45 0-.9.3-2.33 1.13-1.2.67-1.65 1.42-2.02 3.07-.3 1.43-.67 4.65-.75 6.15h19.42c-.07-1.5-.45-4.72-.82-6.07z" class="st4"/>
        </g>
        <g id="shape149-19" v:mID="149" v:groupContext="shape" v:layerMember="0" transform="translate(2.7 -8.4)">
          <path d="M6.97 60.75c-3.82 0-6.97-3.37-6.97-7.5 0-4.12 3.15-7.5 6.97-7.5 3.83 0 6.98 3.38 6.98 7.5 0 4.13-3.07 7.5-6.98 7.5z" class="st3"/>
        </g>
        <g id="shape150-21" v:mID="150" v:groupContext="shape" v:layerMember="0" transform="translate(4.95 -10.65)">
          <path d="M4.72 60.75C2.1 60.75 0 58.35 0 55.5c0-2.92 2.1-5.25 4.72-5.25 2.63 0 4.73 2.4 4.73 5.25.07 2.85-2.1 5.25-4.73 5.25z" class="st4"/>
        </g>
      </g>
      <g id="group151-23" transform="translate(42 -9.75)" v:mID="151" v:groupContext="group" v:layerMember="0">
        <g id="shape152-24" v:mID="152" v:groupContext="shape" v:layerMember="0">
          <path d="M18.67 54.68c-.37-1.58-.82-2.4-2.02-3.08-1.2-.67-1.88-1.12-2.33-1.12-.22 0-.37.07-.45.15-.3.3-.6.52-.97.67-.08 0-.08.08-.15.08-.38.22-.68.37-1.05.45-.6.22-1.27.37-1.95.37-.67 0-1.35-.15-1.95-.37-.38-.08-.67-.23-1.05-.45-.37-.23-.75-.53-1.13-.83-.15-.07-.29-.15-.44-.15-.46 0-.91.3-2.33 1.13-1.2.67-1.65 1.42-2.02 3.07-.38 1.43-.75 4.65-.83 6.15h19.42c-.07-1.5-.45-4.72-.75-6.07z" class="st4"/>
        </g>
        <g id="shape153-26" v:mID="153" v:groupContext="shape" v:layerMember="0" transform="translate(2.775 -8.4)">
          <path d="M6.97 60.75c-3.82 0-6.97-3.37-6.97-7.5 0-4.12 3.15-7.5 6.97-7.5 3.83 0 6.98 3.38 6.98 7.5 0 4.13-3.15 7.5-6.98 7.5z" class="st3"/>
        </g>
        <g id="shape154-28" v:mID="154" v:groupContext="shape" v:layerMember="0" transform="translate(5.025 -10.65)">
          <path d="M4.73 60.75C2.1 60.75 0 58.35 0 55.5c0-2.92 2.1-5.25 4.73-5.25 2.62 0 4.72 2.4 4.72 5.25s-2.17 5.25-4.72 5.25z" class="st4"/>
        </g>
      </g>
      <g id="shape155-30" v:mID="155" v:groupContext="shape" v:layerMember="0" transform="translate(9)">
        <path d="M0 60.75v-5.92l11.55-16.58H34.2L45 54.83v5.92H0z" class="st3"/>
      </g>
      <g id="shape156-32" v:mID="156" v:groupContext="shape" v:layerMember="0" transform="translate(11.25 -2.25)">
        <path d="M0 57.75v3h40.5v-3l-9.75-15H10.5L0 57.75z" class="st4"/>
      </g>
    </g>
  </g>
</svg>
