<svg xmlns="http://www.w3.org/2000/svg" xmlns:v="http://schemas.microsoft.com/visio/2003/SVGExtensions/" width="97.5" height="97.5" viewBox="0 0 73.125 73.125" color-interpolation-filters="sRGB" fill="none" fill-rule="evenodd" font-size="12" overflow="visible" stroke-linecap="square" stroke-miterlimit="3">
  <v:documentProperties v:langID="4108" v:metric="true" v:viewMarkup="false"/>
  <style>
    .st1{fill:#fff}.st2,.st3{stroke:none;stroke-linecap:butt;stroke-width:.75}.st3{fill:#515251}
  </style>
  <g v:mID="0" v:index="1" v:groupContext="foregroundPage">
    <v:pageProperties v:drawingScale=".039" v:pageScale=".039" v:drawingUnits="24" v:shadowOffsetX="8.504" v:shadowOffsetY="-8.504"/>
    <v:layer v:name="symbols" v:index="0"/>
    <g id="group203-1" transform="translate(9.338 -7.688)" v:mID="203" v:groupContext="group" v:layerMember="0">
      <g id="group204-2" transform="translate(0 -11.25)" v:mID="204" v:groupContext="group" v:layerMember="0">
        <g id="shape205-3" v:mID="205" v:groupContext="shape" v:layerMember="0">
          <path d="M0 67.58c.15 2.55 1.65 4.35 4.05 5.02 1.2.38 2.25.53 3.37.53 1.21 0 2.41-.15 3.6-.53 1.13-.3 2.1-.9 2.78-1.72.98 1.35 2.48 2.17 4.27 2.17h30.01c2.92 0 5.25-2.32 5.25-5.25V31.88c0-2.93-2.33-5.25-5.25-5.25H18.07c-1.72 0-3.29.82-4.27 2.17-.68-.75-1.58-1.35-2.7-1.72-1.2-.38-1.87-.45-3.53-.45-1.72 0-2.32.07-3.6.45-2.39.75-3.82 2.47-3.97 4.95v35.55z" class="st1"/>
          <path d="M0 67.58c.15 2.55 1.65 4.35 4.05 5.02 1.2.38 2.25.53 3.37.53 1.21 0 2.41-.15 3.6-.53 1.13-.3 2.1-.9 2.78-1.72.98 1.35 2.48 2.17 4.27 2.17h30.01c2.92 0 5.25-2.32 5.25-5.25V31.88c0-2.93-2.33-5.25-5.25-5.25H18.07c-1.72 0-3.29.82-4.27 2.17-.68-.75-1.58-1.35-2.7-1.72-1.2-.38-1.87-.45-3.53-.45-1.72 0-2.32.07-3.6.45-2.39.75-3.82 2.47-3.97 4.95" class="st2"/>
        </g>
        <g id="shape206-6" v:mID="206" v:groupContext="shape" v:layerMember="0" transform="translate(.075 -10.275)">
          <path d="M0 46.13c.07 2.62.22 6.97.22 14.47 0 6-.15 9.98-.22 12.53v-27z" class="st1"/>
          <path d="M0 46.13c.07 2.62.22 6.97.22 14.47 0 6-.15 9.98-.22 12.53" class="st2"/>
        </g>
        <g id="shape207-9" v:mID="207" v:groupContext="shape" v:layerMember="0" transform="translate(2.1 -2.25)">
          <path d="M10.72 34.5c-.14-1.65-.97-2.55-2.39-3-.9-.3-1.35-.37-2.85-.37-1.58 0-1.96.07-2.93.37-1.42.45-2.32 1.35-2.4 3-.15 1.8.3 5.48.3 18.15 0 10.73-.45 14.63-.3 17.1.08 1.65.98 2.63 2.4 3 .9.23 1.8.38 2.77.38.98 0 2.03-.15 3.01-.38 1.42-.37 2.32-1.35 2.39-3 .16-2.47-.22-6.15-.22-16.87 0-12.68.38-16.58.22-18.38z" class="st3"/>
        </g>
        <g id="shape208-11" v:mID="208" v:groupContext="shape" v:layerMember="0" transform="translate(15.075 -2.25)">
          <path d="M33 31.13H3c-1.65 0-3 1.35-3 3v36c0 1.65 1.35 3 3 3h30c1.65 0 3-1.35 3-3v-36c0-1.65-1.35-3-3-3zM12.75 63.38c0 .45-.3.75-.75.75H8.25c-.45 0-.75-.3-.75-.75v-1.5c0-.45.3-.75.75-.75H12c.45 0 .75.3.75.75v1.5zm0-5.25c0 .45-.3.75-.75.75H8.25c-.45 0-.75-.3-.75-.75v-1.5c0-.45.3-.75.75-.75H12c.45 0 .75.3.75.75v1.5zm0-5.25c0 .45-.3.75-.75.75H8.25c-.45 0-.75-.3-.75-.75v-1.5c0-.45.3-.75.75-.75H12c.45 0 .75.3.75.75v1.5zm7.5 5.25c0 .45-.3.75-.75.75h-3.75c-.45 0-.75-.3-.75-.75v-1.5c0-.45.3-.75.75-.75h3.75c.45 0 .75.3.75.75v1.5zm0-5.25c0 .45-.3.75-.75.75h-3.75c-.45 0-.75-.3-.75-.75v-1.5c0-.45.3-.75.75-.75h3.75c.45 0 .75.3.75.75v1.5zm7.5 5.25c0 .45-.3.75-.75.75h-3.75c-.45 0-.75-.3-.75-.75v-1.5c0-.45.3-.75.75-.75H27c.45 0 .75.3.75.75v1.5zm0-5.25c0 .45-.3.75-.75.75h-3.75c-.45 0-.75-.3-.75-.75v-1.5c0-.45.3-.75.75-.75H27c.45 0 .75.3.75.75v1.5zM30 44.63c0 .45-.3.75-.75.75H6.75c-.45 0-.75-.3-.75-.75v-8.25c0-.45.3-.75.75-.75h22.5c.45 0 .75.3.75.75v8.25z" class="st3"/>
        </g>
      </g>
      <g id="group209-13" transform="translate(23.025)" v:mID="209" v:groupContext="group" v:layerMember="0">
        <g id="shape210-14" v:mID="210" v:groupContext="shape" v:layerMember="0">
          <path d="M24 68.33h15.3l-.15-2.4c-.07-1.58-.52-4.95-.82-6.53-.45-1.95-1.13-3.45-3.08-4.5l-.6-.37c-.52-.3-.97-.53-1.42-.75.6-1.13.97-2.4.97-3.75 0-4.2-3.15-7.58-7.05-7.58s-7.05 3.38-7.05 7.58c0 1.35.38 2.62.98 3.75-.46.15-.91.45-1.43.75l-.3.15c0-4.13-3.15-7.5-7.05-7.5s-7.05 3.37-7.05 7.57c0 1.35.38 2.63.98 3.75-.45.15-.9.45-1.43.75l-.52.3c-1.96 1.13-2.63 2.63-3.08 4.5-.37 1.58-.75 4.88-.83 6.53L0 73.13h24.38l-.15-2.4c0-.6-.08-1.43-.23-2.4z" fill="#fff" stroke-linecap="butt" stroke-width=".75"/>
        </g>
        <g id="shape211-16" v:mID="211" v:groupContext="shape" v:layerMember="0" transform="translate(22.275 -17.775)">
          <path d="M4.8 73.13c-2.62 0-4.8-2.4-4.8-5.33 0-2.92 2.18-5.32 4.8-5.32 2.63 0 4.8 2.4 4.8 5.32 0 2.93-2.17 5.33-4.8 5.33z" class="st3"/>
        </g>
        <g id="shape212-18" v:mID="212" v:groupContext="shape" v:layerMember="0" transform="translate(18 -6.9)">
          <path d="M1.2 67.05c.23.08.38.23.6.38 1.73.97 2.25 2.17 2.7 3.97.07.45.23 1.05.3 1.73h14.1c-.07-1.58-.45-4.73-.82-6.15-.38-1.58-.83-2.4-2.03-3.08-1.2-.67-1.87-1.12-2.32-1.12-.23 0-.38.07-.53.15-.3.3-.6.52-.97.75-.08 0-.15.07-.15.07-.38.23-.68.38-1.06.45-.59.23-1.27.38-2.02.38-.67 0-1.35-.15-2.02-.38-.38-.07-.68-.22-1.06-.45-.37-.22-.75-.52-1.12-.82-.15-.08-.3-.15-.52-.15-.46 0-.9.3-2.33 1.12C.83 64.5.38 65.25 0 66.6c.53 0 .83.15 1.2.45z" class="st3"/>
        </g>
        <g id="shape213-20" v:mID="213" v:groupContext="shape" v:layerMember="0" transform="translate(2.25 -2.25)">
          <path d="M18.98 66.98c-.38-1.58-.83-2.4-2.03-3.08-1.2-.67-1.87-1.12-2.32-1.12-.23 0-.38.07-.53.15-.3.3-.6.52-.97.75-.08 0-.15.07-.15.07-.38.23-.68.38-1.06.45-.59.23-1.27.38-2.02.38-.67 0-1.35-.15-2.02-.38-.38-.07-.68-.22-1.05-.45-.38-.22-.75-.52-1.13-.82-.15-.08-.3-.15-.53-.15-.44 0-.89.3-2.32 1.12-1.2.68-1.65 1.43-2.02 3.08C.52 68.4.15 71.63 0 73.13h19.58c.07-1.58-.3-4.73-.6-6.15z" class="st3"/>
        </g>
        <g id="shape214-22" v:mID="214" v:groupContext="shape" v:layerMember="0" transform="translate(7.425 -12.975)">
          <path d="M4.8 73.13c-2.62 0-4.8-2.4-4.8-5.33 0-2.92 2.18-5.32 4.8-5.32 2.63 0 4.8 2.4 4.8 5.32 0 2.93-2.17 5.33-4.8 5.33z" class="st3"/>
        </g>
      </g>
    </g>
  </g>
</svg>
