<svg xmlns="http://www.w3.org/2000/svg" xmlns:v="http://schemas.microsoft.com/visio/2003/SVGExtensions/" width="93" height="91.5" viewBox="0 0 69.75 68.625" color-interpolation-filters="sRGB" fill="none" fill-rule="evenodd" font-size="12" overflow="visible" stroke-linecap="square" stroke-miterlimit="3">
  <v:documentProperties v:langID="4108" v:metric="true" v:viewMarkup="false"/>
  <style>
    .st1,.st3{fill:#fff;stroke:none;stroke-linecap:butt;stroke-width:.75}.st3{fill:#505050}
  </style>
  <g v:mID="0" v:index="1" v:groupContext="foregroundPage">
    <v:pageProperties v:drawingScale=".039" v:pageScale=".039" v:drawingUnits="24" v:shadowOffsetX="8.504" v:shadowOffsetY="-8.504"/>
    <v:layer v:name="symbols" v:index="0"/>
    <g id="group233-1" transform="translate(3.188 -6.563)" v:mID="233" v:groupContext="group" v:layerMember="0">
      <g id="group234-2" v:mID="234" v:groupContext="group" v:layerMember="0">
        <g id="group235-3" transform="translate(37.35 -33.75)" v:mID="235" v:groupContext="group" v:layerMember="0">
          <g id="shape236-4" v:mID="236" v:groupContext="shape" v:layerMember="0">
            <path d="M17.92 68.62c-1.2 0-2.32-.22-3.37-.75-.45.08-.97.08-1.35.08C6.3 67.95.67 62.32.67 55.42c0-.44 0-.9.08-1.42C.3 52.95 0 51.75 0 50.62c.07-4.5 3.75-8.25 8.4-8.25 1.2.01 2.32.23 3.37.75.45-.07.98-.07 1.43-.07 6.9 0 12.52 5.63 12.52 12.52 0 .46 0 .91-.07 1.43.45 1.05.75 2.25.75 3.37-.15 4.51-3.83 8.25-8.48 8.25z" class="st1"/>
          </g>
          <g id="shape237-6" v:mID="237" v:groupContext="shape" v:layerMember="0" transform="translate(2.325 -2.175)">
            <path d="M20.92 59.48c.08-.61.15-1.21.15-1.8 0-5.63-4.57-10.28-10.27-10.28-.6 0-1.2.08-1.8.15a6.06 6.06 0 0 0-3-.82c-3.3.07-6 2.77-6 6.15 0 1.12.3 2.09.82 3-.07.59-.15 1.2-.15 1.8 0 5.62 4.58 10.27 10.28 10.27.6 0 1.2-.08 1.8-.15.9.52 1.95.82 3 .82 3.37 0 6.07-2.7 6.07-6.07-.15-1.2-.37-2.17-.9-3.07z" fill="#29aae1" stroke-linecap="butt" stroke-width=".75"/>
          </g>
          <g id="shape238-8" v:mID="238" v:groupContext="shape" v:layerMember="0" transform="translate(7.875 -6.6)">
            <path d="M5.32 68.63C1.73 68.63 0 66.82 0 65.47c0-.67.52-1.19 1.2-1.2 1.57.01 1.12 2.33 4.05 2.33 1.5 0 2.4-.9 2.4-1.73 0-.52-.3-1.04-1.28-1.27l-3.22-.83C.52 62.1.08 60.67.08 59.32c0-2.77 2.54-3.75 4.94-3.75 2.25 0 4.88 1.2 4.88 2.93 0 .75-.6 1.12-1.28 1.12-1.35 0-1.12-1.87-3.75-1.87-1.35 0-2.02.6-2.02 1.5 0 .82 1.05 1.2 1.95 1.35l2.4.52c2.62.6 3.3 2.1 3.3 3.53.07 2.25-1.73 3.98-5.18 3.98z" class="st1"/>
          </g>
        </g>
        <g id="group239-10" v:mID="239" v:groupContext="group" v:layerMember="0">
          <g id="shape240-11" v:mID="240" v:groupContext="shape" v:layerMember="0">
            <path d="M50.85 68.62l-.15-2.4c-.23-3.67-1.12-11.32-1.95-14.85-.9-3.89-2.1-6.59-5.85-8.7l-1.35-.75c-2.62-1.49-3.75-2.17-5.25-2.17-.83 0-1.5.15-2.25.53l-1.12.59.9-.75c3.07-2.69 5.02-6.82 5.02-11.47.08-8.17-5.93-14.77-13.43-14.78-7.42.01-13.5 6.61-13.5 14.78 0 4.65 1.95 8.78 5.03 11.47l.9.75-1.2-.59c-.67-.38-1.42-.53-2.25-.53-1.5 0-2.7.68-5.25 2.17l-1.35.75c-3.68 2.11-4.95 4.81-5.85 8.7C1.13 54.9.3 62.55 0 66.22v2.4h50.85z" class="st1"/>
          </g>
          <g id="shape241-13" v:mID="241" v:groupContext="shape" v:layerMember="0" transform="translate(2.475 -2.325)">
            <path d="M44.03 54.22c-.9-3.82-1.88-5.62-4.73-7.2-2.85-1.65-4.42-2.62-5.47-2.62-.45 0-.83.07-1.13.3-.68.6-1.43 1.2-2.25 1.65-.15.07-.3.15-.37.22-.83.53-1.65.83-2.4 1.13-1.5.52-3.08.82-4.73.82-1.65 0-3.23-.3-4.73-.82-.82-.23-1.57-.6-2.39-1.13-.98-.52-1.88-1.2-2.63-1.95-.3-.15-.68-.3-1.12-.3-1.06 0-2.18.75-5.48 2.63-2.85 1.65-3.9 3.45-4.72 7.2C1.12 57.45.23 65.02 0 68.62h46.13c-.46-3.52-1.36-11.1-2.1-14.4z" class="st3"/>
          </g>
          <g id="shape242-15" v:mID="242" v:groupContext="shape" v:layerMember="0" transform="translate(14.175 -27.525)">
            <path d="M11.25 68.62C5.02 68.62 0 63 0 56.1c0-6.9 5.02-12.45 11.25-12.45 6.22 0 11.25 5.63 11.25 12.53 0 6.9-5.03 12.44-11.25 12.44z" class="st3"/>
          </g>
        </g>
      </g>
    </g>
  </g>
</svg>
