<svg xmlns="http://www.w3.org/2000/svg" xmlns:v="http://schemas.microsoft.com/visio/2003/SVGExtensions/" width="93" height="91.5" viewBox="0 0 69.75 68.625" color-interpolation-filters="sRGB" fill="none" fill-rule="evenodd" font-size="12" overflow="visible" stroke-linecap="square" stroke-miterlimit="3">
  <v:documentProperties v:langID="4108" v:metric="true" v:viewMarkup="false"/>
  <style>
    .st1,.st2,.st3{fill:#fff;stroke:none;stroke-linecap:butt;stroke-width:.75}.st2,.st3{fill:#505050}.st3{fill:#00adeb}
  </style>
  <g v:mID="0" v:index="1" v:groupContext="foregroundPage">
    <v:pageProperties v:drawingScale=".039" v:pageScale=".039" v:drawingUnits="24" v:shadowOffsetX="8.504" v:shadowOffsetY="-8.504"/>
    <v:layer v:name="symbols" v:index="0"/>
    <g id="group243-1" transform="translate(3.375 -6.563)" v:mID="243" v:groupContext="group" v:layerMember="0">
      <g id="group244-2" v:mID="244" v:groupContext="group" v:layerMember="0">
        <g id="group245-3" v:mID="245" v:groupContext="group" v:layerMember="0">
          <g id="shape246-4" v:mID="246" v:groupContext="shape" v:layerMember="0">
            <path d="M50.92 68.62l-.15-2.4c-.22-3.67-1.12-11.32-1.95-14.85-.9-3.89-2.1-6.59-5.85-8.7l-1.35-.75c-2.62-1.49-3.75-2.17-5.25-2.17-.82 0-1.5.15-2.25.53l-1.12.59.9-.75c3.07-2.69 5.02-6.82 5.02-11.47.08-8.17-6-14.77-13.42-14.78h-.08c-7.42.01-13.49 6.61-13.5 14.78.01 4.65 1.95 8.78 5.03 11.47l.9.75-1.2-.59c-.68-.38-1.42-.53-2.25-.53-1.5 0-2.7.68-5.25 2.17l-1.35.75c-3.68 2.11-4.95 4.81-5.85 8.7C1.13 54.9.3 62.55 0 66.22v2.4h50.92z" class="st1"/>
          </g>
          <g id="shape247-6" v:mID="247" v:groupContext="shape" v:layerMember="0" transform="translate(2.55 -2.325)">
            <path d="M44.02 54.22c-.89-3.82-1.87-5.62-4.72-7.2-2.85-1.65-4.43-2.62-5.48-2.62-.44 0-.82.07-1.12.3-.68.6-1.42 1.2-2.25 1.65-.15.07-.3.15-.38.22-.82.53-1.64.83-2.4 1.13-1.49.52-3.07.82-4.72.82s-3.23-.3-4.73-.82c-.82-.23-1.57-.6-2.4-1.13-.97-.52-1.87-1.2-2.62-1.95-.3-.15-.68-.3-1.13-.3-1.05 0-2.17.75-5.47 2.63-2.85 1.65-3.9 3.45-4.72 7.2C1.12 57.45.22 65.02 0 68.62h46.12c-.45-3.52-1.35-11.1-2.1-14.4z" class="st2"/>
          </g>
          <g id="shape248-8" v:mID="248" v:groupContext="shape" v:layerMember="0" transform="translate(14.175 -27.525)">
            <path d="M11.25 68.62C5.02 68.62 0 63 0 56.1c0-6.9 5.02-12.45 11.25-12.45 6.22 0 11.25 5.63 11.25 12.53 0 6.9-5.03 12.44-11.25 12.44z" class="st2"/>
          </g>
        </g>
        <g id="group249-10" transform="translate(37.425 -33.75)" v:mID="249" v:groupContext="group" v:layerMember="0">
          <g id="shape250-11" v:mID="250" v:groupContext="shape" v:layerMember="0">
            <path d="M17.92 68.62c-1.2 0-2.32-.22-3.37-.75-.45.08-.9.08-1.43.08C6.23 67.95.68 62.32.67 55.5c0-.45 0-.9.08-1.43C.3 53.03 0 51.82 0 50.7c0-4.58 3.75-8.32 8.32-8.33 1.2.01 2.33.23 3.38.75.45-.07.9-.07 1.42-.07 6.9 0 12.45 5.63 12.45 12.45 0 .45 0 .9-.07 1.42.45 1.05.75 2.25.75 3.38 0 4.58-3.75 8.32-8.33 8.32z" class="st1"/>
          </g>
          <g id="shape251-13" v:mID="251" v:groupContext="shape" v:layerMember="0" transform="translate(2.25 -2.25)">
            <path d="M20.92 59.55c.08-.6.15-1.2.15-1.8 0-5.62-4.57-10.2-10.2-10.2-.6 0-1.2.07-1.8.15-.9-.52-1.95-.83-3-.83A6.05 6.05 0 0 0 0 52.95c0 1.12.3 2.1.82 3-.07.6-.14 1.2-.15 1.8.01 5.62 4.58 10.2 10.2 10.2.6 0 1.2-.08 1.8-.15.9.52 1.95.82 3 .82 3.38 0 6.08-2.69 6.08-6.07 0-1.12-.3-2.1-.83-3zm-5.25 7.5c-.82 0-1.57-.23-2.25-.6l-.52-.3-.53.07c-.45.08-.97.15-1.5.15-4.79 0-8.7-3.9-8.7-8.7 0-.52.08-1.04.15-1.5l.08-.52-.3-.45c-.38-.68-.6-1.43-.6-2.25 0-2.48 2.02-4.5 4.5-4.5.83 0 1.58.23 2.25.6l.52.3.53-.08c.52-.07.97-.15 1.5-.15 4.8 0 8.7 3.91 8.7 8.7 0 .53-.08 1.05-.15 1.5l-.08.53.3.52c.38.68.6 1.43.6 2.25 0 2.41-2.02 4.43-4.5 4.43z" class="st3"/>
          </g>
          <g id="shape252-15" v:mID="252" v:groupContext="shape" v:layerMember="0" transform="translate(7.95 -6.9)">
            <path d="M7.05 61.42l-2.33-.52c-.9-.23-1.87-.45-1.87-1.35 0-.83.67-1.43 1.95-1.43 2.55 0 2.32 1.8 3.6 1.8.67 0 1.27-.37 1.27-1.05 0-1.57-2.55-2.77-4.72-2.77-2.33 0-4.8.97-4.8 3.6 0 1.27.45 2.62 2.92 3.3l3.08.75c.97.22 1.2.75 1.2 1.27 0 .83-.83 1.65-2.25 1.65-2.78 0-2.4-2.25-3.9-2.25-.68 0-1.2.45-1.2 1.13 0 1.27 1.57 3.07 5.1 3.07 3.3 0 5.02-1.65 5.02-3.82.08-1.35-.6-2.78-3.07-3.38z" class="st3"/>
          </g>
        </g>
      </g>
    </g>
  </g>
</svg>
