<svg xmlns="http://www.w3.org/2000/svg" xmlns:v="http://schemas.microsoft.com/visio/2003/SVGExtensions/" width="95.625" height="99" viewBox="0 0 71.719 74.25" color-interpolation-filters="sRGB" fill="none" fill-rule="evenodd" font-size="12" overflow="visible" stroke-linecap="square" stroke-miterlimit="3">
  <v:documentProperties v:langID="4108" v:metric="true" v:viewMarkup="false"/>
  <style>
    .st1,.st2{fill:#fff;stroke:none;stroke-linecap:butt;stroke-width:.75}.st2{fill:#515251}
  </style>
  <g v:mID="0" v:index="1" v:groupContext="foregroundPage">
    <v:pageProperties v:drawingScale=".039" v:pageScale=".039" v:drawingUnits="24" v:shadowOffsetX="8.504" v:shadowOffsetY="-8.504"/>
    <v:layer v:name="symbols" v:index="0"/>
    <g id="group262-1" transform="translate(4.781 -6.188)" v:mID="262" v:groupContext="group" v:layerMember="0">
      <g id="group263-2" transform="translate(0 -8.25)" v:mID="263" v:groupContext="group" v:layerMember="0">
        <g id="shape264-3" v:mID="264" v:groupContext="shape" v:layerMember="0">
          <path d="M50.93 74.25l-.15-2.4c-.23-3.68-1.13-11.33-1.95-14.85-.9-3.9-2.1-6.6-5.85-8.7l-1.35-.75c-2.63-1.5-3.75-2.18-5.26-2.18-.82 0-1.49.15-2.24.53l-1.13.6.9-.75c3.08-2.7 5.03-6.83 5.03-11.48.07-8.17-6-14.77-13.43-14.77h-.08c-7.42 0-13.49 6.6-13.49 14.77 0 4.65 1.94 8.78 5.02 11.48l.9.75-1.2-.6c-.68-.38-1.42-.53-2.25-.53-1.5 0-2.7.68-5.25 2.18l-1.35.75C4.2 50.47 3 53.1 2.1 57 1.28 60.52.45 68.17.15 71.85L0 74.25h50.93z" class="st1"/>
        </g>
        <g id="shape265-5" v:mID="265" v:groupContext="shape" v:layerMember="0" transform="translate(2.625 -2.325)">
          <path d="M44.03 59.85c-.9-3.83-1.88-5.63-4.73-7.2-2.85-1.65-4.42-2.63-5.47-2.63-.45 0-.83.08-1.13.3-.67.6-1.42 1.2-2.25 1.65-.15.08-.3.15-.37.23-.83.52-1.65.82-2.4 1.12-1.5.53-3.08.83-4.73.83-1.65 0-3.23-.3-4.72-.83-.83-.22-1.58-.6-2.4-1.12-.98-.53-1.88-1.2-2.63-1.95-.3-.15-.68-.3-1.12-.3-1.06 0-2.18.75-5.48 2.62-2.85 1.65-3.9 3.45-4.72 7.2C1.13 63.07.23 70.65 0 74.25h46.13c-.53-3.53-1.35-11.1-2.1-14.4z" class="st2"/>
        </g>
        <g id="shape266-7" v:mID="266" v:groupContext="shape" v:layerMember="0" transform="translate(14.175 -27.525)">
          <path d="M11.25 74.25C5.02 74.25 0 68.62 0 61.72c0-6.9 5.1-12.45 11.25-12.45 6.23 0 11.25 5.63 11.25 12.53 0 6.9-5.02 12.45-11.25 12.45z" class="st2"/>
        </g>
      </g>
      <g id="group267-9" transform="translate(29.475)" v:mID="267" v:groupContext="group" v:layerMember="0">
        <g id="shape268-10" v:mID="268" v:groupContext="shape" v:layerMember="0">
          <path d="M29.77 45H11.78c-1.05 0-1.96.37-2.63.97a3.8 3.8 0 0 0-1.35-.67c-.82-.23-1.27-.3-2.32-.3-1.05 0-1.58.07-2.41.3-1.79.52-2.84 1.87-2.99 3.75-.08.52 0 1.2 0 2.32.07 1.58.15 4.13.15 8.55 0 3.53-.08 5.78-.15 7.35-.08 1.28-.08 2.1 0 2.85.07 1.88 1.27 3.3 3.07 3.83.75.22 1.5.3 2.25.3.83 0 1.58-.08 2.4-.3.53-.15 1.05-.38 1.42-.75.68.6 1.58.97 2.63.97h18c2.17 0 3.75-1.57 3.75-3.75V48.75c-.07-2.18-1.65-3.75-3.83-3.75z" class="st1"/>
        </g>
        <g id="shape269-12" v:mID="269" v:groupContext="shape" v:layerMember="0" transform="translate(2.1 -2.175)">
          <path d="M6.45 51.37c-.07-.97-.6-1.5-1.42-1.8-.53-.15-.75-.22-1.73-.22-.9 0-1.13.07-1.72.22-.83.3-1.36.83-1.43 1.8C.07 52.42.3 54.6.3 62.1c0 6.3-.3 8.62-.15 10.12.07.98.6 1.5 1.43 1.8.52.15 1.04.23 1.65.23.59 0 1.2-.08 1.72-.23.83-.22 1.35-.82 1.43-1.8.07-1.5-.15-3.6-.15-9.97.07-7.43.3-9.75.22-10.88z" fill="#515150" stroke-linecap="butt" stroke-width=".75"/>
        </g>
        <g id="shape270-14" v:mID="270" v:groupContext="shape" v:layerMember="0" transform="translate(10.275 -2.25)">
          <path d="M19.5 49.5h-18c-.98 0-1.5.52-1.5 1.5v21.75c0 .97.52 1.5 1.5 1.5h18c.97 0 1.5-.53 1.5-1.5V51c0-.98-.53-1.5-1.5-1.5zm-12 20.25c0 .45-.3.75-.75.75h-1.5c-.45 0-.75-.3-.75-.75V69c0-.45.3-.75.75-.75h1.5c.45 0 .75.3.75.75v.75zm0-3.75c0 .45-.3.75-.75.75h-1.5c-.45 0-.75-.3-.75-.75v-.75c0-.45.3-.75.75-.75h1.5c.45 0 .75.3.75.75V66zm0-3.75c0 .45-.3.75-.75.75h-1.5c-.45 0-.75-.3-.75-.75v-.75c0-.45.3-.75.75-.75h1.5c.45 0 .75.3.75.75v.75zm4.5 7.5c0 .45-.3.75-.75.75h-1.5c-.45 0-.75-.3-.75-.75V69c0-.45.3-.75.75-.75h1.5c.45 0 .75.3.75.75v.75zM12 66c0 .45-.3.75-.75.75h-1.5c-.45 0-.75-.3-.75-.75v-.75c0-.45.3-.75.75-.75h1.5c.45 0 .75.3.75.75V66zm0-3.75c0 .45-.3.75-.75.75h-1.5c-.45 0-.75-.3-.75-.75v-.75c0-.45.3-.75.75-.75h1.5c.45 0 .75.3.75.75v.75zm4.5 7.5c0 .45-.3.75-.75.75h-1.5c-.45 0-.75-.3-.75-.75V69c0-.45.3-.75.75-.75h1.5c.45 0 .75.3.75.75v.75zm0-3.75c0 .45-.3.75-.75.75h-1.5c-.45 0-.75-.3-.75-.75v-.75c0-.45.3-.75.75-.75h1.5c.45 0 .75.3.75.75V66zm0-3.75c0 .45-.3.75-.75.75h-1.5c-.45 0-.75-.3-.75-.75v-.75c0-.45.3-.75.75-.75h1.5c.45 0 .75.3.75.75v.75zm.75-4.5H3.75V52.5h13.5v5.25z" fill="#525352" stroke-linecap="butt" stroke-width=".75"/>
        </g>
      </g>
    </g>
  </g>
</svg>
