<svg xmlns="http://www.w3.org/2000/svg" xmlns:v="http://schemas.microsoft.com/visio/2003/SVGExtensions/" width="88.5" height="82.5" viewBox="0 0 66.375 61.875" color-interpolation-filters="sRGB" fill="none" fill-rule="evenodd" font-size="12" overflow="visible" stroke-linecap="square" stroke-miterlimit="3">
  <v:documentProperties v:langID="4108" v:metric="true" v:viewMarkup="false"/>
  <style>
    .st1,.st2,.st3{fill:#fff;stroke:none;stroke-linecap:butt;stroke-width:.75}.st2,.st3{fill:#9b9b9b}.st3{fill:#cccbcb}
  </style>
  <g v:mID="0" v:index="1" v:groupContext="foregroundPage">
    <v:pageProperties v:drawingScale=".039" v:pageScale=".039" v:drawingUnits="24" v:shadowOffsetX="8.504" v:shadowOffsetY="-8.504"/>
    <v:layer v:name="symbols" v:index="0"/>
    <g id="group439-1" transform="translate(3.788 -6.15)" v:mID="439" v:groupContext="group" v:layerMember="0">
      <g id="group440-2" v:mID="440" v:groupContext="group" v:layerMember="0">
        <g id="group441-3" transform="translate(22.35 -17.475)" v:mID="441" v:groupContext="group" v:layerMember="0">
          <g id="shape442-4" v:mID="442" v:groupContext="shape" v:layerMember="0">
            <path d="M0 61.87l.15-2.4c.15-2.4.75-7.27 1.28-9.6.59-2.7 1.49-4.57 4.12-6.07l.83-.53c1.72-.97 2.62-1.5 3.75-1.5.67 0 1.19.15 1.79.45l.23.15.22.23c.45.37.83.67 1.28.97.38.23.75.38 1.13.53h.07c.75.22 1.5.37 2.25.37s1.5-.15 2.25-.37c.45-.15.75-.3 1.12-.53h.08l.52-.45h.15c.23-.15.45-.3.6-.52l.23-.23.22-.15c.53-.3 1.13-.45 1.8-.45 1.13 0 2.1.53 3.68 1.43.3.15.6.37.97.52 2.63 1.5 3.53 3.38 4.13 6.08.52 2.32 1.12 7.2 1.27 9.6l.15 2.4H0v.07z" class="st1"/>
          </g>
          <g id="shape443-6" v:mID="443" v:groupContext="shape" v:layerMember="0" transform="translate(2.4 -2.25)">
            <path d="M28.27 52.65c-.52-2.4-1.2-3.6-3-4.65-1.87-1.05-2.85-1.65-3.52-1.65-.3 0-.53.07-.75.15-.45.37-.9.75-1.43 1.05-.07.07-.15.07-.22.15-.52.3-1.05.52-1.58.67-.97.3-1.95.53-3 .53s-2.02-.15-3-.53c-.52-.15-1.05-.37-1.57-.67-.6-.38-1.2-.75-1.72-1.28-.23-.07-.45-.15-.76-.15-.67 0-1.35.45-3.52 1.73-1.8 1.05-2.48 2.17-3 4.65-.45 2.1-1.05 6.9-1.2 9.22h29.47c-.15-2.32-.75-7.12-1.2-9.22z" class="st2"/>
          </g>
          <g id="shape444-8" v:mID="444" v:groupContext="shape" v:layerMember="0" transform="translate(7.725 -16.125)">
            <path d="M9.45 61.87C4.28 61.87 0 57.3 0 51.67 0 46.05 4.2 41.4 9.45 41.4c5.17 0 9.45 4.57 9.45 10.2 0 5.62-4.28 10.27-9.45 10.27z" class="st1"/>
          </g>
          <g id="shape445-10" v:mID="445" v:groupContext="shape" v:layerMember="0" transform="translate(9.975 -18.375)">
            <path d="M7.2 61.87c-3.98 0-7.2-3.6-7.2-7.95s3.22-7.95 7.2-7.95 7.2 3.6 7.2 7.95-3.3 7.95-7.2 7.95z" class="st2"/>
          </g>
        </g>
        <g id="group446-12" transform="translate(0 -10.275)" v:mID="446" v:groupContext="group" v:layerMember="0">
          <g id="shape447-13" v:mID="447" v:groupContext="shape" v:layerMember="0">
            <path d="M0 61.87l.15-2.4c.15-2.4.75-7.27 1.28-9.6.59-2.7 1.49-4.57 4.12-6.07l.82-.45c1.73-.98 2.63-1.5 3.75-1.5.68 0 1.28.15 1.81.45l.22.15.22.15c.45.37.83.67 1.28.97.38.23.75.38 1.12.53h.08c.75.22 1.5.37 2.25.37s1.5-.15 2.25-.37h.07c.38-.15.68-.3 1.05-.45l.15-.08.53-.45h.07c.23-.15.45-.3.6-.52l.23-.15.22-.15c.53-.3 1.13-.45 1.8-.45 1.13 0 2.1.52 3.68 1.42.3.15.6.38.9.53 2.62 1.5 3.52 3.37 4.12 6.07.53 2.33 1.13 7.2 1.28 9.6l.15 2.4H0z" class="st1"/>
          </g>
          <g id="shape448-15" v:mID="448" v:groupContext="shape" v:layerMember="0" transform="translate(2.4 -2.4)">
            <path d="M28.27 52.72c-.52-2.4-1.2-3.6-2.99-4.65-1.81-1.05-2.86-1.72-3.53-1.72-.3 0-.53.07-.75.15-.45.37-.9.75-1.43 1.05-.07.07-.15.07-.22.15-.52.3-1.05.52-1.58.67-.97.3-1.95.53-3 .53s-2.02-.15-3-.53c-.52-.15-1.05-.37-1.57-.67-.6-.38-1.2-.75-1.72-1.28-.23-.07-.45-.15-.76-.15-.67 0-1.35.45-3.52 1.73-1.8 1.05-2.48 2.17-3 4.65-.45 2.1-1.05 6.9-1.2 9.22h29.47c-.15-2.17-.75-6.97-1.2-9.15z" class="st2"/>
          </g>
          <g id="shape449-17" v:mID="449" v:groupContext="shape" v:layerMember="0" transform="translate(7.65 -16.125)">
            <path d="M9.45 61.87C4.28 61.87 0 57.3 0 51.67c0-5.62 4.2-10.2 9.45-10.2 5.17 0 9.45 4.58 9.45 10.2 0 5.55-4.2 10.2-9.45 10.2z" class="st1"/>
          </g>
          <g id="shape450-19" v:mID="450" v:groupContext="shape" v:layerMember="0" transform="translate(9.9 -18.375)">
            <path d="M7.2 61.87c-3.98 0-7.2-3.6-7.2-7.95 0-4.42 3.22-7.95 7.2-7.95s7.2 3.6 7.2 7.95-3.22 7.95-7.2 7.95z" class="st2"/>
          </g>
        </g>
        <g id="group451-21" transform="translate(15.825)" v:mID="451" v:groupContext="group" v:layerMember="0">
          <g id="shape452-22" v:mID="452" v:groupContext="shape" v:layerMember="0">
            <path d="M0 61.87l.15-2.4c.15-2.4.75-7.35 1.28-9.6.6-2.7 1.49-4.57 4.12-6.07l.82-.53c1.73-.97 2.63-1.5 3.75-1.5.68 0 1.28.15 1.81.45l.22.15.22.15c.38.38.83.68 1.28.98.38.22.75.37 1.12.52h.08c.75.23 1.5.38 2.25.38s1.5-.15 2.25-.38h.07c.38-.15.68-.3 1.05-.45l.08-.07.52-.45h.15c.23-.15.45-.3.6-.53l.23-.15.22-.15c.53-.3 1.13-.45 1.8-.45 1.13 0 2.1.53 3.68 1.43.3.15.6.37.9.52 2.62 1.5 3.52 3.38 4.12 6.08.53 2.25 1.13 7.2 1.28 9.6l.15 2.4-34.2.07z" class="st1"/>
          </g>
          <g id="shape453-24" v:mID="453" v:groupContext="shape" v:layerMember="0" transform="translate(2.325 -2.325)">
            <path d="M28.27 52.72c-.52-2.4-1.2-3.6-2.99-4.65-1.81-1.05-2.86-1.72-3.53-1.72-.3 0-.53.07-.75.15-.45.37-.9.75-1.43 1.05-.07.07-.15.07-.22.15-.52.3-1.05.52-1.58.67-.97.3-1.95.53-3 .53s-2.02-.23-3-.53c-.52-.15-1.05-.37-1.57-.67-.6-.38-1.2-.75-1.72-1.28-.23-.07-.45-.15-.76-.15-.67 0-1.35.45-3.52 1.73-1.8 1.05-2.48 2.17-3 4.65-.45 2.1-1.05 6.9-1.2 9.22h29.47c-.15-2.25-.67-7.05-1.2-9.15z" class="st2"/>
          </g>
          <g id="shape454-26" v:mID="454" v:groupContext="shape" v:layerMember="0" transform="translate(7.65 -16.125)">
            <path d="M9.45 61.87C4.28 61.87 0 57.3 0 51.67c0-5.62 4.2-10.2 9.45-10.2 5.17 0 9.45 4.58 9.45 10.2 0 5.63-4.28 10.2-9.45 10.2z" class="st1"/>
          </g>
          <g id="shape455-28" v:mID="455" v:groupContext="shape" v:layerMember="0" transform="translate(9.9 -18.375)">
            <path d="M7.2 61.87c-3.98 0-7.2-3.6-7.2-7.95s3.22-7.95 7.2-7.95 7.2 3.6 7.2 7.95-3.22 7.95-7.2 7.95z" class="st2"/>
          </g>
        </g>
        <g id="group456-30" transform="translate(2.4)" v:mID="456" v:groupContext="group" v:layerMember="0">
          <g id="shape457-31" v:mID="457" v:groupContext="shape" v:layerMember="0" transform="translate(7.8 -39)">
            <path d="M0 61.87l5.33-5.4c-2.48.68-4.58 2.7-5.33 5.4z" class="st3"/>
          </g>
          <g id="shape458-33" v:mID="458" v:groupContext="shape" v:layerMember="0" transform="translate(7.5 -34.425)">
            <path d="M9.75 52.27c-.52-.22-1.05-.37-1.65-.45L0 60c0 .67.15 1.27.3 1.87l9.45-9.6z" class="st3"/>
          </g>
          <g id="shape459-35" v:mID="459" v:groupContext="shape" v:layerMember="0" transform="translate(8.475 -31.425)">
            <path d="M.82 61.87L11.4 51.22c-.3-.37-.68-.75-1.13-1.05L0 60.6c.22.45.45.9.82 1.27z" class="st3"/>
          </g>
          <g id="shape460-37" v:mID="460" v:groupContext="shape" v:layerMember="0" transform="translate(1.8 -23.85)">
            <path d="M2.4 59.17c-1.2.75-1.95 1.5-2.4 2.7l3-3.07c-.23.15-.38.22-.6.37z" class="st3"/>
          </g>
          <g id="shape461-39" v:mID="461" v:groupContext="shape" v:layerMember="0" transform="translate(10.35 -29.4)">
            <path d="M1.35 61.87l9.75-9.82c-.15-.53-.38-1.05-.68-1.5L0 61.05c.45.3.9.6 1.35.82z" class="st3"/>
          </g>
          <g id="shape462-41" v:mID="462" v:groupContext="shape" v:layerMember="0" transform="translate(.6 -18.225)">
            <path d="M9 52.87c-.38-.22-.75-.52-1.13-.9H7.8L.37 59.4c-.15.75-.22 1.57-.37 2.47l9-9z" class="st3"/>
          </g>
          <g id="shape463-43" v:mID="463" v:groupContext="shape" v:layerMember="0" transform="translate(29.925 -43.2)">
            <path d="M0 61.27v.6l8.4-8.4c-.37-.07-.75-.15-1.2-.15-.3 0-.6 0-.9.08L.15 59.55c-.07.6-.15 1.12-.15 1.72z" class="st3"/>
          </g>
          <g id="shape464-45" v:mID="464" v:groupContext="shape" v:layerMember="0" transform="translate(0 -13.125)">
            <path d="M0 61.87l12.68-12.82c-.3-.08-.68-.15-.98-.3-.22-.08-.45-.15-.67-.23L.23 59.55c-.08.9-.15 1.65-.23 2.32z" class="st3"/>
          </g>
          <g id="shape465-47" v:mID="465" v:groupContext="shape" v:layerMember="0" transform="translate(13.5 -28.65)">
            <path d="M1.2 61.87c.3 0 .52 0 .83-.07l6.22-6.23c.08-.52.15-1.05.15-1.65v-.6L0 61.72c.38.08.75.15 1.2.15z" class="st3"/>
          </g>
          <g id="shape466-49" v:mID="466" v:groupContext="shape" v:layerMember="0" transform="translate(30.3 -39.675)">
            <path d="M0 60.37c.15.53.38 1.05.6 1.5l10.42-10.5c-.37-.3-.82-.6-1.27-.82L0 60.37z" class="st3"/>
          </g>
          <g id="shape467-51" v:mID="467" v:groupContext="shape" v:layerMember="0" transform="translate(1.95 -12.675)">
            <path d="M12.9 48.9L0 61.87h2.1l13.35-13.42c-.82.3-1.65.45-2.55.45z" class="st3"/>
          </g>
          <g id="shape468-53" v:mID="468" v:groupContext="shape" v:layerMember="0" transform="translate(6.45 -12.675)">
            <path d="M14.7 49.2c0-.3-.08-.68-.08-.98 0-.37 0-.75.08-1.12L0 61.87h2.1L14.7 49.2z" class="st3"/>
          </g>
          <g id="shape469-55" v:mID="469" v:groupContext="shape" v:layerMember="0" transform="translate(23.475 -27.75)">
            <path d="M6.53 55.35c-1.2.07-2.33.52-3.3 1.2l-1.8 1.8C.68 59.4.23 60.6 0 61.87l6.53-6.52z" class="st3"/>
          </g>
          <g id="shape470-57" v:mID="470" v:groupContext="shape" v:layerMember="0" transform="translate(31.95 -37.275)">
            <path d="M1.05 61.87L11.4 51.45c-.23-.45-.53-.9-.83-1.28L0 60.82c.3.38.67.75 1.05 1.05z" class="st3"/>
          </g>
          <g id="shape471-59" v:mID="471" v:groupContext="shape" v:layerMember="0" transform="translate(34.5 -35.925)">
            <path d="M0 61.42c.53.23 1.05.38 1.65.45l8.17-8.17c0-.68-.15-1.28-.3-1.88L0 61.42z" class="st3"/>
          </g>
          <g id="shape472-61" v:mID="472" v:groupContext="shape" v:layerMember="0" transform="translate(10.95 -12.675)">
            <path d="M2.1 61.87l9.08-9.07c-.23-.53-.45-.98-.6-1.58L0 61.87h2.1z" class="st3"/>
          </g>
          <g id="shape473-63" v:mID="473" v:groupContext="shape" v:layerMember="0" transform="translate(23.4 -23.475)">
            <path d="M10.28 51.9c-.45-.23-.98-.45-1.5-.6L0 60.15c.08.6.23 1.2.38 1.72l9.9-9.97z" class="st3"/>
          </g>
          <g id="shape474-65" v:mID="474" v:groupContext="shape" v:layerMember="0" transform="translate(24.6 -20.7)">
            <path d="M10.5 50.1L0 60.67c.3.45.6.83.9 1.2l10.65-10.65c-.38-.37-.68-.75-1.05-1.12z" class="st3"/>
          </g>
          <g id="shape475-67" v:mID="475" v:groupContext="shape" v:layerMember="0" transform="translate(22.65 -19.95)">
            <path d="M.3 61.57l-.3.3c.15-.07.3-.07.45-.07-.07-.08-.07-.15-.15-.23z" class="st3"/>
          </g>
          <g id="shape476-69" v:mID="476" v:groupContext="shape" v:layerMember="0" transform="translate(38.625 -36.075)">
            <path d="M5.33 56.55L0 61.87c2.48-.6 4.58-2.62 5.33-5.32z" class="st3"/>
          </g>
          <g id="shape477-71" v:mID="477" v:groupContext="shape" v:layerMember="0" transform="translate(17.1 -12.3)">
            <path d="M2.85 57.97c-1.57.98-2.32 1.95-2.85 3.9l5.33-5.32c-.53.3-1.28.75-2.48 1.42z" class="st3"/>
          </g>
          <g id="shape478-73" v:mID="478" v:groupContext="shape" v:layerMember="0" transform="translate(26.775 -18.825)">
            <path d="M10.72 52.42c-.15-.52-.3-1.05-.52-1.57L0 61.12c.45.3.9.53 1.35.75l9.37-9.45z" class="st3"/>
          </g>
          <g id="shape479-75" v:mID="479" v:groupContext="shape" v:layerMember="0" transform="translate(16.2 -6.9)">
            <path d="M9.67 52.2c-.45-.3-.82-.53-1.27-.9L.37 59.4c-.14.75-.22 1.65-.37 2.47l9.67-9.67z" class="st3"/>
          </g>
          <g id="shape480-77" v:mID="480" v:groupContext="shape" v:layerMember="0" transform="translate(38.625 -30.075)">
            <path d="M5.78 56.77c-.08 0-.23-.07-.3-.07-.3 0-.53.07-.75.15-.45.37-.9.75-1.43 1.05-.07.07-.15.07-.22.15-.45.22-.83.45-1.28.6L0 60.45c.23.45.45.97.68 1.42l5.1-5.1z" class="st3"/>
          </g>
          <g id="shape481-79" v:mID="481" v:groupContext="shape" v:layerMember="0" transform="translate(15.75 -2.325)">
            <path d="M11.92 48.45L.15 60.37c-.08.53-.08 1.05-.15 1.5h.75l12.9-13.05c-.6-.07-1.13-.22-1.73-.37z" class="st3"/>
          </g>
          <g id="shape482-81" v:mID="482" v:groupContext="shape" v:layerMember="0" transform="translate(30.3 -18.45)">
            <path d="M7.42 54.37L0 61.87h.23c.74 0 1.49-.15 2.24-.37l4.35-4.43c.38-.82.53-1.72.6-2.7z" class="st3"/>
          </g>
          <g id="shape483-83" v:mID="483" v:groupContext="shape" v:layerMember="0" transform="translate(13.425)">
            <path d="M0 61.8v.07-.07z" class="st3"/>
          </g>
          <g id="shape484-85" v:mID="484" v:groupContext="shape" v:layerMember="0" transform="translate(39.825 -26.1)">
            <path d="M0 59.92c.07.6.15 1.13.15 1.73v.22l7.5-7.57c-.53-.3-.98-.53-1.35-.75L0 59.92z" class="st3"/>
          </g>
          <g id="shape485-87" v:mID="485" v:groupContext="shape" v:layerMember="0" transform="translate(18.825 -2.325)">
            <path d="M15.98 47.85c-.45.22-.9.45-1.28.52-.6.15-1.12.3-1.72.45L0 61.87h2.1l13.88-14.02z" class="st3"/>
          </g>
          <g id="shape486-89" v:mID="486" v:groupContext="shape" v:layerMember="0" transform="translate(37.95 -20.025)">
            <path d="M10.88 49.2l-9.31 9.45C1.2 59.85.68 60.9 0 61.8c.15 0 .3.07.45.07l11.4-11.47c-.3-.45-.6-.83-.97-1.2z" class="st3"/>
          </g>
          <g id="shape487-91" v:mID="487" v:groupContext="shape" v:layerMember="0" transform="translate(40.5 -19.725)">
            <path d="M9.9 51.82L0 61.87h2.1l8.18-8.32c-.08-.38-.15-.68-.15-.9-.08-.3-.15-.53-.23-.83z" class="st3"/>
          </g>
          <g id="shape488-93" v:mID="488" v:groupContext="shape" v:layerMember="0" transform="translate(23.325 -2.325)">
            <path d="M16.5 47.32c-.52-.3-.97-.6-1.35-.75L0 61.87h2.1l14.4-14.55z" class="st3"/>
          </g>
          <g id="shape489-95" v:mID="489" v:groupContext="shape" v:layerMember="0" transform="translate(27.9 -2.325)">
            <path d="M14.55 49.2c-.3-.38-.67-.68-1.2-.98L0 61.87h2.1L14.55 49.2z" class="st3"/>
          </g>
          <g id="shape490-97" v:mID="490" v:groupContext="shape" v:layerMember="0" transform="translate(45 -19.725)">
            <path d="M0 61.87h2.1l4.27-4.35-.22-1.87L0 61.87z" class="st3"/>
          </g>
          <g id="shape491-99" v:mID="491" v:groupContext="shape" v:layerMember="0" transform="translate(32.4 -2.325)">
            <path d="M11.03 50.7L0 61.87h2.1l9.38-9.6c-.08-.6-.3-1.12-.45-1.57z" class="st3"/>
          </g>
          <g id="shape492-101" v:mID="492" v:groupContext="shape" v:layerMember="0" transform="translate(49.5 -19.725)">
            <path d="M0 61.87h2.1l.22-.22c-.07-.53-.07-1.2-.15-1.95L0 61.87z" class="st3"/>
          </g>
          <g id="shape493-103" v:mID="493" v:groupContext="shape" v:layerMember="0" transform="translate(36.825 -2.325)">
            <path d="M7.8 56.1c-.08-.68-.15-1.28-.3-1.88L0 61.87h2.1l5.7-5.77z" class="st3"/>
          </g>
          <g id="shape494-105" v:mID="494" v:groupContext="shape" v:layerMember="0" transform="translate(41.325 -2.325)">
            <path d="M0 61.87h2.1l1.65-1.65c-.07-.6-.15-1.27-.22-1.95L0 61.87z" class="st3"/>
          </g>
        </g>
      </g>
    </g>
  </g>
</svg>
