<svg xmlns="http://www.w3.org/2000/svg" xmlns:v="http://schemas.microsoft.com/visio/2003/SVGExtensions/" width="75" height="91.5" viewBox="0 0 56.25 68.625" color-interpolation-filters="sRGB" fill="none" fill-rule="evenodd" font-size="12" overflow="visible" stroke-linecap="square" stroke-miterlimit="3">
  <v:documentProperties v:langID="4108" v:metric="true" v:viewMarkup="false"/>
  <style>
    .st2{fill:#7fba42;stroke:none;stroke-linecap:butt;stroke-width:.75}
  </style>
  <g v:mID="0" v:index="1" v:groupContext="foregroundPage">
    <v:pageProperties v:drawingScale=".039" v:pageScale=".039" v:drawingUnits="24" v:shadowOffsetX="8.504" v:shadowOffsetY="-8.504"/>
    <v:layer v:name="symbols" v:index="0"/>
    <g id="group326-1" transform="translate(2.513 -6.938)" v:mID="326" v:groupContext="group" v:layerMember="0">
      <g id="group327-2" v:mID="327" v:groupContext="group" v:layerMember="0">
        <g id="shape328-3" v:mID="328" v:groupContext="shape" v:layerMember="0">
          <path d="M50.92 68.62l-.15-2.4c-.22-3.67-1.12-11.32-1.94-14.85-.91-3.9-2.1-6.6-5.86-8.7l-1.34-.75c-2.63-1.5-3.75-2.17-5.26-2.17-.82 0-1.5.15-2.24.52l-1.13.6.9-.75c3.07-2.7 5.03-6.82 5.03-11.47.07-8.18-6-14.78-13.43-14.78h-.08c-7.42 0-13.49 6.6-13.49 14.78 0 4.65 1.94 8.77 5.02 11.47l.9.75-1.2-.6c-.68-.37-1.42-.52-2.25-.52-1.5 0-2.7.67-5.25 2.17l-1.35.75c-3.68 2.1-4.95 4.8-5.85 8.7C1.13 54.9.3 62.55 0 66.22v2.4h50.92z" fill="#fff" stroke-linecap="butt" stroke-width=".75"/>
        </g>
        <g id="shape329-5" v:mID="329" v:groupContext="shape" v:layerMember="0" transform="translate(2.55 -2.325)">
          <path d="M44.03 54.22c-.9-3.82-1.88-5.62-4.73-7.2-2.85-1.65-4.42-2.62-5.48-2.62-.44 0-.82.07-1.12.3-.67.6-1.43 1.2-2.25 1.65-.15.07-.3.15-.38.22-.82.53-1.64.83-2.39 1.13-1.5.52-3.08.82-4.73.82-1.65 0-3.23-.3-4.73-.82-.82-.23-1.57-.6-2.39-1.13-.98-.52-1.88-1.2-2.63-1.95-.3-.15-.68-.3-1.12-.3-1.06 0-2.18.75-5.48 2.63-2.85 1.65-3.9 3.45-4.72 7.2C1.13 57.45.23 65.02 0 68.62h46.13c-.46-3.52-1.36-11.1-2.1-14.4z" class="st2"/>
        </g>
        <g id="shape330-7" v:mID="330" v:groupContext="shape" v:layerMember="0" transform="translate(14.175 -27.525)">
          <path d="M11.25 68.62C5.02 68.62 0 63 0 56.1c0-6.9 5.02-12.45 11.25-12.45S22.5 49.27 22.5 56.17c0 6.9-5.02 12.45-11.25 12.45z" class="st2"/>
        </g>
      </g>
    </g>
  </g>
</svg>
