<svg xmlns="http://www.w3.org/2000/svg" xmlns:v="http://schemas.microsoft.com/visio/2003/SVGExtensions/" width="87.525" height="97.5" viewBox="0 0 65.644 73.125" color-interpolation-filters="sRGB" fill="none" fill-rule="evenodd" font-size="12" overflow="visible" stroke-linecap="square" stroke-miterlimit="3">
  <v:documentProperties v:langID="4108" v:metric="true" v:viewMarkup="false"/>
  <style>
    .st1,.st4{fill:#fff;stroke:none;stroke-linecap:butt;stroke-width:.75}.st4{fill:#525352}
  </style>
  <g v:mID="0" v:index="1" v:groupContext="foregroundPage">
    <v:pageProperties v:drawingScale=".039" v:pageScale=".039" v:drawingUnits="24" v:shadowOffsetX="8.504" v:shadowOffsetY="-8.504"/>
    <v:layer v:name="symbols" v:index="0"/>
    <g id="group596-1" transform="translate(9.131 -6.938)" v:mID="596" v:groupContext="group" v:layerMember="0">
      <g id="group597-2" v:mID="597" v:groupContext="group" v:layerMember="0">
        <g id="group598-3" transform="translate(0 -6)" v:mID="598" v:groupContext="group" v:layerMember="0">
          <g id="shape599-4" v:mID="599" v:groupContext="shape" v:layerMember="0">
            <path d="M39.75 29.25V64.35C39.07 72 27 73.12 19.87 73.12 12.75 73.12.68 72 0 64.35v-36.6c0-5.48 9.98-7.88 19.87-7.88 9.91 0 19.88 2.4 19.88 7.88v1.5z" class="st1"/>
          </g>
          <g id="shape600-6" v:mID="600" v:groupContext="shape" v:layerMember="0" transform="translate(2.25 -2.25)">
            <path d="M17.62 37.87c-7.05 0-14.1-1.2-17.62-3.9v32.4c.53 6.23 13.2 6.75 17.62 6.75 4.43 0 17.03-.52 17.63-6.75v-32.4c-3.53 2.7-10.58 3.9-17.63 3.9z" fill="#515251" stroke-linecap="butt" stroke-width=".75"/>
          </g>
          <g id="shape601-8" v:mID="601" v:groupContext="shape" v:layerMember="0" transform="translate(2.25 -39.75)">
            <ellipse cx="17.625" cy="67.5" rx="17.625" ry="5.625" fill="#515150" stroke-linecap="butt" stroke-width=".75"/>
          </g>
        </g>
        <g id="group602-10" transform="translate(23.25)" v:mID="602" v:groupContext="group" v:layerMember="0">
          <g id="shape603-11" v:mID="603" v:groupContext="shape" v:layerMember="0">
            <path d="M31.13 70.72c-.15-2.17-.68-6.6-1.13-8.7-.6-2.47-1.42-4.27-3.82-5.62-.3-.15-.61-.3-.83-.45-1.05-.6-1.87-1.05-2.62-1.28 1.05-1.57 1.65-3.45 1.65-5.55 0-5.17-3.9-9.45-8.7-9.45-4.8 0-8.71 4.2-8.71 9.45 0 2.1.61 3.98 1.66 5.55-.75.15-1.5.6-2.78 1.28l-.75.45c-2.4 1.35-3.22 3.15-3.82 5.62-.45 2.1-.98 6.53-1.13 8.7L0 73.12h31.28l-.15-2.4z" class="st1"/>
          </g>
          <g id="shape604-13" v:mID="604" v:groupContext="shape" v:layerMember="0" transform="translate(2.55 -2.25)">
            <path d="M25.28 64.8c-.53-2.18-1.13-3.23-2.7-4.13-1.66-.9-2.56-1.5-3.15-1.5-.31 0-.45.08-.68.15-.37.38-.82.68-1.27.98-.08.07-.15.07-.23.15-.45.3-.9.45-1.42.6-.83.3-1.73.45-2.7.45-.98 0-1.88-.15-2.7-.45-.45-.15-.9-.38-1.35-.6-.53-.3-1.06-.68-1.51-1.13-.14-.07-.37-.15-.67-.15-.6 0-1.27.45-3.15 1.5-1.65.9-2.25 1.95-2.7 4.13C.6 66.67.08 71.02 0 73.12h26.48c-.3-2.1-.75-6.37-1.2-8.32z" class="st4"/>
          </g>
          <g id="shape605-15" v:mID="605" v:groupContext="shape" v:layerMember="0" transform="translate(9.225 -16.725)">
            <path d="M6.45 73.12c-3.6 0-6.45-3.22-6.45-7.2 0-3.97 2.93-7.2 6.45-7.2 3.6 0 6.45 3.23 6.45 7.2 0 3.98-2.92 7.2-6.45 7.2z" class="st4"/>
          </g>
        </g>
      </g>
    </g>
  </g>
</svg>
