<svg xmlns="http://www.w3.org/2000/svg" xmlns:v="http://schemas.microsoft.com/visio/2003/SVGExtensions/" width="75" height="91.5" viewBox="0 0 56.25 68.625" color-interpolation-filters="sRGB" fill="none" fill-rule="evenodd" font-size="12" overflow="visible" stroke-linecap="square" stroke-miterlimit="3">
  <v:documentProperties v:langID="4108" v:metric="true" v:viewMarkup="false"/>
  <style>
    .st2,.st3{fill:#9b9b9b;stroke:none;stroke-linecap:butt;stroke-width:.75}.st3{fill:#cccbcb}
  </style>
  <g v:mID="0" v:index="1" v:groupContext="foregroundPage">
    <v:pageProperties v:drawingScale=".039" v:pageScale=".039" v:drawingUnits="24" v:shadowOffsetX="8.504" v:shadowOffsetY="-8.504"/>
    <v:layer v:name="symbols" v:index="0"/>
    <g id="group331-1" transform="translate(2.663 -6.938)" v:mID="331" v:groupContext="group" v:layerMember="0">
      <g id="group332-2" v:mID="332" v:groupContext="group" v:layerMember="0">
        <g id="group333-3" v:mID="333" v:groupContext="group" v:layerMember="0">
          <g id="shape334-4" v:mID="334" v:groupContext="shape" v:layerMember="0">
            <path d="M50.92 68.62l-.15-2.4c-.22-3.67-1.12-11.32-1.94-14.85-.91-3.9-2.1-6.6-5.86-8.7l-1.34-.75c-2.63-1.5-3.75-2.17-5.26-2.17-.82 0-1.5.15-2.24.52l-1.13.6.9-.75c3.07-2.7 5.03-6.82 5.03-11.47.07-8.18-6-14.78-13.43-14.78h-.08c-7.42 0-13.49 6.6-13.49 14.78 0 4.65 1.94 8.77 5.02 11.47l.9.75-1.2-.6c-.68-.37-1.42-.52-2.25-.52-1.5 0-2.7.67-5.25 2.17l-1.35.75c-3.68 2.1-4.95 4.8-5.85 8.7C1.13 54.9.3 62.55 0 66.22v2.4h50.92z" fill="#fff" stroke-linecap="butt" stroke-width=".75"/>
          </g>
          <g id="shape335-6" v:mID="335" v:groupContext="shape" v:layerMember="0" transform="translate(2.55 -2.325)">
            <path d="M44.03 54.22c-.9-3.82-1.88-5.62-4.73-7.2-2.85-1.65-4.42-2.62-5.48-2.62-.44 0-.82.07-1.12.3-.67.6-1.43 1.2-2.25 1.65-.15.07-.3.15-.38.22-.82.53-1.64.83-2.39 1.13-1.5.52-3.08.82-4.73.82-1.65 0-3.23-.3-4.73-.82-.82-.23-1.57-.6-2.39-1.13-.98-.52-1.88-1.2-2.63-1.95-.3-.15-.68-.3-1.12-.3-1.06 0-2.18.75-5.48 2.63-2.85 1.65-3.9 3.45-4.72 7.2C1.13 57.45.23 65.02 0 68.62h46.13c-.46-3.52-1.36-11.1-2.1-14.4z" class="st2"/>
          </g>
          <g id="shape336-8" v:mID="336" v:groupContext="shape" v:layerMember="0" transform="translate(14.175 -27.525)">
            <path d="M11.25 68.62C5.02 68.62 0 63 0 56.1c0-6.9 5.02-12.45 11.25-12.45S22.5 49.27 22.5 56.17c0 6.9-5.02 12.45-11.25 12.45z" class="st2"/>
          </g>
        </g>
        <g id="group337-10" transform="translate(2.55 -2.325)" v:mID="337" v:groupContext="group" v:layerMember="0">
          <g id="shape338-11" v:mID="338" v:groupContext="shape" v:layerMember="0" transform="translate(11.7 -38.775)">
            <path d="M11.17 57.22c-.82 0-1.65.08-2.4.3L.45 66c-.22.82-.37 1.72-.45 2.62l11.17-11.4z" class="st3"/>
          </g>
          <g id="shape339-13" v:mID="339" v:groupContext="shape" v:layerMember="0" transform="translate(11.7 -34.65)">
            <path d="M13.35 53.32L0 66.82c.08.6.15 1.2.3 1.8L15 53.85c-.53-.23-1.05-.38-1.65-.53z" class="st3"/>
          </g>
          <g id="shape340-15" v:mID="340" v:groupContext="shape" v:layerMember="0" transform="translate(12.525 -31.425)">
            <path d="M16.95 52.27c-.37-.3-.82-.6-1.2-.9L0 67.2c.23.52.45.97.67 1.42l16.28-16.35z" class="st3"/>
          </g>
          <g id="shape341-17" v:mID="341" v:groupContext="shape" v:layerMember="0" transform="translate(14.1 -28.65)">
            <path d="M0 67.42c.3.38.6.83.98 1.2L17.55 51.9c-.3-.45-.6-.83-.98-1.2L0 67.42z" class="st3"/>
          </g>
          <g id="shape342-19" v:mID="342" v:groupContext="shape" v:layerMember="0" transform="translate(2.175 -15.75)">
            <path d="M7.8 60.82c-.83.45-1.88 1.05-3.38 1.88-2.47 1.42-3.6 3-4.42 5.92l7.8-7.8z" class="st3"/>
          </g>
          <g id="shape343-21" v:mID="343" v:groupContext="shape" v:layerMember="0" transform="translate(16.275 -26.7)">
            <path d="M0 67.72c.38.3.82.6 1.28.9L16.95 52.8c-.23-.53-.45-.98-.67-1.43L0 67.72z" class="st3"/>
          </g>
          <g id="shape344-23" v:mID="344" v:groupContext="shape" v:layerMember="0" transform="translate(1.125 -10.125)">
            <path d="M12.07 54.75c-.07-.08-.22-.08-.3-.15L.37 66.07c-.14.75-.3 1.65-.37 2.55l12.97-13.05c-.3-.3-.6-.52-.9-.82z" class="st3"/>
          </g>
          <g id="shape345-25" v:mID="345" v:groupContext="shape" v:layerMember="0" transform="translate(19.125 -25.425)">
            <path d="M1.65 68.62l13.27-13.35c-.07-.6-.14-1.27-.3-1.87L0 68.1c.53.22 1.13.37 1.65.52z" class="st3"/>
          </g>
          <g id="shape346-27" v:mID="346" v:groupContext="shape" v:layerMember="0" transform="translate(.45 -5.025)">
            <path d="M16.43 52.2c-.31-.15-.68-.38-1.05-.6-.15-.08-.23-.15-.31-.23L.3 66.22c-.08.83-.22 1.65-.3 2.4L16.43 52.2z" class="st3"/>
          </g>
          <g id="shape347-29" v:mID="347" v:groupContext="shape" v:layerMember="0">
            <path d="M0 68.62L20.25 48.3c-.6-.15-1.12-.23-1.65-.45L.22 66.3c-.14.82-.14 1.65-.22 2.32z" class="st3"/>
          </g>
          <g id="shape348-31" v:mID="348" v:groupContext="shape" v:layerMember="0" transform="translate(22.95 -25.2)">
            <path d="M0 68.62c.82 0 1.65-.15 2.4-.3l8.25-8.25c.22-.82.45-1.72.52-2.62L0 68.62z" class="st3"/>
          </g>
          <g id="shape349-33" v:mID="349" v:groupContext="shape" v:layerMember="0" transform="translate(2.325)">
            <path d="M20.63 48.52h-.6L0 68.62h2.1l20.1-20.17c-.52 0-1.05.07-1.57.07z" class="st3"/>
          </g>
          <g id="shape350-35" v:mID="350" v:groupContext="shape" v:layerMember="0" transform="translate(6.825)">
            <path d="M25.95 44.7s-.08 0 0 0c-.75.6-1.5 1.2-2.33 1.65-.15.07-.3.15-.37.22-.83.53-1.65.83-2.4 1.13h-.08L0 68.62h2.1L25.95 44.7z" class="st3"/>
          </g>
          <g id="shape351-37" v:mID="351" v:groupContext="shape" v:layerMember="0" transform="translate(11.625)">
            <path d="M23.55 44.77L0 68.62h2.1l22.87-23.17c-.52-.3-.97-.53-1.42-.68z" class="st3"/>
          </g>
          <g id="shape352-39" v:mID="352" v:groupContext="shape" v:layerMember="0" transform="translate(16.05)">
            <path d="M23.4 47.1c-.08 0-.08-.08-.15-.08-.45-.22-.83-.45-1.2-.67L0 68.62h2.1L23.4 47.1z" class="st3"/>
          </g>
          <g id="shape353-41" v:mID="353" v:groupContext="shape" v:layerMember="0" transform="translate(20.625)">
            <path d="M21.3 49.12c-.3-.37-.67-.75-1.05-1.05L0 68.62h2.1l19.2-19.5z" class="st3"/>
          </g>
          <g id="shape354-43" v:mID="354" v:groupContext="shape" v:layerMember="0" transform="translate(25.125)">
            <path d="M18.3 52.12c-.15-.52-.37-1.05-.6-1.5L0 68.62h2.1l16.2-16.5z" class="st3"/>
          </g>
          <g id="shape355-45" v:mID="355" v:groupContext="shape" v:layerMember="0" transform="translate(29.625)">
            <path d="M14.4 54.22c0-.07 0-.15-.07-.22L0 68.62h2.1L14.7 55.8c-.08-.6-.23-1.13-.3-1.58z" class="st3"/>
          </g>
          <g id="shape356-47" v:mID="356" v:groupContext="shape" v:layerMember="0" transform="translate(34.05)">
            <path d="M10.87 59.62c-.07-.67-.15-1.27-.3-1.87L0 68.62h2.1l8.77-9z" class="st3"/>
          </g>
          <g id="shape357-49" v:mID="357" v:groupContext="shape" v:layerMember="0" transform="translate(38.55)">
            <path d="M6.68 61.8L0 68.62h2.1l4.8-4.95c0-.6-.15-1.27-.22-1.87z" class="st3"/>
          </g>
          <g id="shape358-51" v:mID="358" v:groupContext="shape" v:layerMember="0" transform="translate(42.975)">
            <path d="M3 67.65c-.08-.6-.15-1.2-.23-1.88L0 68.62h2.1l.9-.97z" class="st3"/>
          </g>
        </g>
      </g>
    </g>
  </g>
</svg>
