<svg xmlns="http://www.w3.org/2000/svg" xmlns:v="http://schemas.microsoft.com/visio/2003/SVGExtensions/" width="97.125" height="97.5" viewBox="0 0 72.844 73.125" color-interpolation-filters="sRGB" fill="none" fill-rule="evenodd" font-size="12" overflow="visible" stroke-linecap="square" stroke-miterlimit="3">
  <v:documentProperties v:langID="4108" v:metric="true" v:viewMarkup="false"/>
  <style>
    .st1,.st2{fill:#fff;stroke:none;stroke-linecap:butt;stroke-width:.75}.st2{fill:#505050}
  </style>
  <g v:mID="0" v:index="1" v:groupContext="foregroundPage">
    <v:pageProperties v:drawingScale=".039" v:pageScale=".039" v:drawingUnits="24" v:shadowOffsetX="8.504" v:shadowOffsetY="-8.504"/>
    <v:layer v:name="symbols" v:index="0"/>
    <g id="group364-1" transform="translate(4.556 -9.188)" v:mID="364" v:groupContext="group" v:layerMember="0">
      <g id="group365-2" v:mID="365" v:groupContext="group" v:layerMember="0">
        <g id="shape366-3" v:mID="366" v:groupContext="shape" v:layerMember="0">
          <path d="M50.92 73.12l-.15-2.4c-.22-3.67-1.12-11.32-1.95-14.85-.9-3.89-2.1-6.59-5.85-8.7l-1.35-.75c-2.62-1.49-3.75-2.17-5.25-2.17-.82 0-1.5.15-2.25.53l-1.12.59.9-.75c3.07-2.69 5.02-6.82 5.02-11.47.08-8.17-6-14.77-13.42-14.78h-.08c-7.42.01-13.49 6.61-13.5 14.78.01 4.65 1.95 8.77 5.03 11.47l.9.75-1.2-.59c-.68-.38-1.42-.53-2.25-.53-1.5 0-2.7.68-5.25 2.17l-1.35.75c-3.68 2.11-4.95 4.81-5.85 8.7C1.13 59.4.3 67.05 0 70.72v2.4h50.92z" class="st1"/>
        </g>
        <g id="shape367-5" v:mID="367" v:groupContext="shape" v:layerMember="0" transform="translate(2.55 -2.325)">
          <path d="M44.02 58.72c-.89-3.82-1.87-5.62-4.72-7.2-2.85-1.65-4.43-2.62-5.48-2.62-.44 0-.82.07-1.12.3-.68.6-1.42 1.2-2.25 1.65-.15.07-.3.15-.38.22-.82.53-1.64.83-2.4 1.13-1.49.52-3.07.82-4.72.82s-3.23-.3-4.73-.82c-.82-.23-1.57-.6-2.4-1.13-.97-.52-1.87-1.2-2.62-1.95-.3-.15-.68-.3-1.13-.3-1.05 0-2.17.75-5.47 2.63-2.85 1.65-3.9 3.45-4.72 7.2C1.12 61.95.22 69.52 0 73.12h46.12c-.45-3.52-1.35-11.1-2.1-14.4z" class="st2"/>
        </g>
        <g id="shape368-7" v:mID="368" v:groupContext="shape" v:layerMember="0" transform="translate(14.175 -27.525)">
          <path d="M11.25 73.12C5.02 73.12 0 67.5 0 60.6c0-6.9 5.02-12.45 11.25-12.45 6.22 0 11.25 5.63 11.25 12.53 0 6.9-5.03 12.44-11.25 12.44z" class="st2"/>
        </g>
      </g>
      <g id="group369-9" transform="translate(42.225 -32.55)" v:mID="369" v:groupContext="group" v:layerMember="0">
        <g id="shape370-10" v:mID="370" v:groupContext="shape" v:layerMember="0">
          <path d="M13.13 70.87l2.25 2.26 6.07-6.08-.3-15-15.07-.38L0 57.75 2.25 60H6.9L.23 66.6l6.22 6.22 6.68-6.6v4.65z" class="st1"/>
        </g>
        <g id="shape371-12" v:mID="371" v:groupContext="shape" v:layerMember="0" transform="translate(3.225 -3.225)">
          <path d="M3.22 72.9l8.93-8.93v9.15l3.83-3.75-.23-11.92-12-.3L0 60.97h9.15l-9 8.85 3.07 3.08z" fill="#505150" stroke-linecap="butt" stroke-width=".75"/>
        </g>
      </g>
    </g>
  </g>
</svg>
