<svg xmlns="http://www.w3.org/2000/svg" xmlns:v="http://schemas.microsoft.com/visio/2003/SVGExtensions/" width="93.9" height="99" viewBox="0 0 70.425 74.25" color-interpolation-filters="sRGB" fill="none" fill-rule="evenodd" font-size="12" overflow="visible" stroke-linecap="square" stroke-miterlimit="3">
  <v:documentProperties v:langID="4108" v:metric="true" v:viewMarkup="false"/>
  <style>
    .st1,.st2{fill:#fff;stroke:none;stroke-linecap:butt;stroke-width:.75}.st2{fill:#515251}
  </style>
  <g v:mID="0" v:index="1" v:groupContext="foregroundPage">
    <v:pageProperties v:drawingScale=".039" v:pageScale=".039" v:drawingUnits="24" v:shadowOffsetX="8.504" v:shadowOffsetY="-8.504"/>
    <v:layer v:name="symbols" v:index="0"/>
    <g id="group606-1" transform="translate(4.575 -5.063)" v:mID="606" v:groupContext="group" v:layerMember="0">
      <g id="group607-2" transform="translate(0 -8.25)" v:mID="607" v:groupContext="group" v:layerMember="0">
        <g id="shape608-3" v:mID="608" v:groupContext="shape" v:layerMember="0">
          <path d="M50.92 74.25l-.15-2.4c-.22-3.67-1.12-11.32-1.94-14.85-.91-3.9-2.1-6.6-5.86-8.7l-1.35-.75c-2.62-1.5-3.74-2.17-5.25-2.17-.82 0-1.5.15-2.24.52l-1.13.6.9-.75c3.07-2.7 5.03-6.82 5.03-11.47.07-8.18-6-14.78-13.43-14.78h-.08c-7.42 0-13.49 6.6-13.49 14.78 0 4.65 1.94 8.77 5.02 11.47l.9.75-1.2-.6c-.68-.37-1.42-.52-2.25-.52-1.5 0-2.7.67-5.25 2.17l-1.35.75C4.2 50.48 3 53.1 2.1 57 1.28 60.53.45 68.18.15 71.85L0 74.25h50.92z" class="st1"/>
        </g>
        <g id="shape609-5" v:mID="609" v:groupContext="shape" v:layerMember="0" transform="translate(2.475 -2.325)">
          <path d="M44.17 59.85c-.89-3.82-1.87-5.62-4.72-7.2-2.92-1.65-4.5-2.7-5.55-2.7-.45 0-.82.08-1.12.3-.75.6-1.5 1.2-2.25 1.65-.16.08-.3.15-.38.23-.82.52-1.65.82-2.4 1.12-1.5.53-3.07.83-4.72.83-1.66 0-3.23-.3-4.73-.83-.82-.22-1.57-.6-2.4-1.12-.97-.53-1.87-1.2-2.63-1.95-.37-.15-.75-.23-1.19-.23-1.06 0-2.18.75-5.48 2.63-2.85 1.65-3.9 3.45-4.72 7.2C1.13 63.08.23 70.65 0 74.25h46.13c-.38-3.52-1.2-11.1-1.96-14.4z" class="st2"/>
        </g>
        <g id="shape610-7" v:mID="610" v:groupContext="shape" v:layerMember="0" transform="translate(14.175 -27.525)">
          <path d="M11.25 74.25C5.02 74.25 0 68.63 0 61.73c0-6.9 5.02-12.53 11.25-12.53S22.5 54.83 22.5 61.73c0 6.9-5.02 12.52-11.25 12.52z" class="st2"/>
        </g>
      </g>
      <g id="group611-9" transform="translate(22.425)" v:mID="611" v:groupContext="group" v:layerMember="0">
        <g id="shape612-10" v:mID="612" v:groupContext="shape" v:layerMember="0">
          <path d="M2.77 74.25c-.82 0-1.57-.37-2.09-.97-.53-.6-.68-1.5-.53-2.33l.07-.37 5.7-9.15 19.21-19.28 2.84-2.85c.68-.67 1.66-1.12 2.63-1.12.9 0 1.8.37 2.4.97l2.03 2.03c.67.67.97 1.5.97 2.4 0 .97-.38 1.95-1.13 2.62l-2.85 2.85L12.9 68.48 3.75 74.1l-.38.08c-.22.07-.37.07-.6.07z" class="st1"/>
        </g>
        <g id="shape613-12" v:mID="613" v:groupContext="shape" v:layerMember="0" transform="translate(2.25 -2.25)">
          <path d="M31.28 45.08l-2.03-2.03c-.53-.52-1.35-.45-1.88.15l-1.5 1.5-1.35 1.35L5.47 65.1.08 73.65c-.08.38.07.6.45.6h.15l8.62-5.32 18.97-19.05 1.35-1.35 1.5-1.5c.53-.6.6-1.43.16-1.95zM3.3 71.48l-.45-.45 2.78-4.43 2.17 2.18-4.5 2.7z" fill="#515050" stroke-linecap="butt" stroke-width=".75"/>
        </g>
      </g>
    </g>
  </g>
</svg>
