<svg xmlns="http://www.w3.org/2000/svg" xmlns:v="http://schemas.microsoft.com/visio/2003/SVGExtensions/" width="78.96" height="80" viewBox="0 0 59.22 60" color-interpolation-filters="sRGB" fill="none" fill-rule="evenodd" font-size="12" overflow="visible" stroke-linecap="square" stroke-miterlimit="3">
  <v:documentProperties v:langID="4108" v:metric="true" v:viewMarkup="false"/>
  <style>
    .st1{fill:#fff;stroke:none;stroke-linecap:butt;stroke-width:.75}
  </style>
  <g v:mID="0" v:index="1" v:groupContext="foregroundPage">
    <v:pageProperties v:drawingScale=".039" v:pageScale=".039" v:drawingUnits="24" v:shadowOffsetX="8.504" v:shadowOffsetY="-8.504"/>
    <g id="group35-1" transform="translate(.645 -.75)" v:mID="35" v:groupContext="group">
      <g id="group36-2" v:mID="36" v:groupContext="group">
        <g id="group37-3" transform="translate(0 -6.675)" v:mID="37" v:groupContext="group">
          <g id="shape38-4" v:mID="38" v:groupContext="shape">
            <path d="M32.48 59.93c-1.43 0-2.7-.83-3.23-2.18l-1.42-3.37c-.01-.01-.01-.01-.08 0-.08-.01-.82.07-1.8.07-1.05 0-1.8-.08-1.88-.07 0-.01 0-.01-.07 0l-1.42 3.45C22.05 59.1 20.77 60 19.35 60c-.45 0-.9-.07-1.35-.3l-4.65-1.95c-.9-.37-1.58-1.05-1.88-1.87-.37-.9-.37-1.8 0-2.7l1.43-3.45c0-.01-.15-.16-.15-.15l-2.32-2.4s-.08-.15-.15-.15l-3.45 1.42c-.45.15-.91.3-1.35.3-1.43 0-2.7-.82-3.23-2.17L.38 41.93c-.38-.83-.38-1.8 0-2.7.37-.9 1.05-1.58 1.87-1.88l3.45-1.42v-3.6-.23l-3.45-1.42C1.35 30.3.67 29.63.38 28.8 0 27.9 0 27 .38 26.1l1.95-4.65c.52-1.35 1.8-2.18 3.22-2.18.45 0 .9.08 1.35.3L10.35 21l.15-.15 2.4-2.4s.15-.08.15-.15l-1.5-3.38c-.38-.82-.38-1.79 0-2.7.37-.9 1.05-1.57 1.88-1.87l4.65-1.88c.37-.22.82-.3 1.35-.3 1.42 0 2.69.83 3.22 2.18l1.42 3.37h.08c.07 0 .82-.07 1.8-.07 1.05 0 1.8.07 1.88.07h.07l1.43-3.45c.52-1.27 1.72-2.1 3.15-2.1.45 0 .89.08 1.35.3l4.64 1.95c.91.38 1.58 1.05 1.88 1.88.37.9.37 1.8 0 2.7l-1.42 3.45.15.15 2.4 2.33c0-.01.07.15.15.15l3.45-1.43c.45-.15.9-.3 1.35-.3 1.42 0 2.7.83 3.22 2.18l1.95 4.65c.38.9.38 1.8 0 2.7-.37.89-1.05 1.57-1.87 1.87l-3.53 1.43V36l3.45 1.43c1.8.74 2.63 2.77 1.87 4.57l-1.94 4.65c-.53 1.35-1.8 2.18-3.23 2.18-.45 0-.9-.08-1.35-.3l-3.45-1.43c-.07.08-.15.15-.15.15l-2.32 2.33c0-.01-.15.07-.15.15l1.42 3.45c.37.9.37 1.8 0 2.7-.38.9-1.05 1.57-1.88 1.87l-4.64 1.88c-.38.22-.83.3-1.35.3zm-6.53-36.15c-5.7 0-10.28 4.57-10.27 10.27-.01 5.7 4.57 10.28 10.27 10.28 5.7 0 10.28-4.58 10.27-10.28.01-5.7-4.57-10.27-10.27-10.27z" class="st1"/>
          </g>
          <g id="shape39-6" v:mID="39" v:groupContext="shape" transform="translate(2.175 -2.025)">
            <path d="M46.65 41.48l-3.82-1.58c-.6-.3-1.13-.6-1.13-.75 0-.15.08-.82.15-1.5V34.5c-.07-.67-.15-1.35-.15-1.5 0-.15.45-.45 1.13-.75l3.82-1.57c.6-.31.98-.98.68-1.65l-1.95-4.65c-.23-.6-.98-.9-1.65-.68l-3.83 1.65c-.6.3-1.2.37-1.27.3-.08-.08-.53-.6-.98-1.12l-2.25-2.25c-.52-.46-1.05-.91-1.12-.98-.08-.08 0-.68.3-1.27l1.57-3.83c.3-.6-.07-1.35-.67-1.65l-4.65-1.95c-.68-.3-1.35 0-1.65.6l-1.58 3.83c-.22.67-.6 1.12-.75 1.12-.15 0-.82-.07-1.5-.22 0 0-.67-.08-1.65-.08-.97 0-1.57.08-1.57.08-.68.07-1.35.15-1.5.15-.15 0-.46-.45-.75-1.13l-1.5-3.75c-.23-.6-.98-.9-1.65-.68l-4.65 1.96c-.61.22-.9.97-.68 1.65l1.58 3.82c.29.6.37 1.2.3 1.28-.08.07-.61.52-1.13.97L9.9 24.45c-.45.52-.9 1.05-.97 1.13-.08.07-.68-.01-1.28-.3L3.83 23.7c-.6-.3-1.35.08-1.65.68L.23 29.03C0 29.7.3 30.45.9 30.68l3.83 1.57c.67.3 1.12.6 1.12.75 0 .15-.07.83-.15 1.5v3.15c.08.68.15 1.35.15 1.5 0 .15-.45.45-1.12.75L.9 41.48c-.6.22-.9.97-.67 1.65l1.95 4.65c.3.6.97.97 1.65.67l3.82-1.57c.6-.23 1.2-.38 1.28-.3.07.07.52.6.97 1.12l2.25 2.25c.52.45 1.05.9 1.13.98.07.07-.01.67-.3 1.27l-1.58 3.83c-.3.6.07 1.35.68 1.65l4.65 1.95c.6.3 1.35-.08 1.65-.68l1.57-3.82c.3-.68.6-1.13.75-1.13.15 0 .83.08 1.5.23 0 0 .68.07 1.65.07.9 0 1.58-.07 1.58-.07.67-.08 1.35-.15 1.5-.15.14 0 .45.44.75 1.12l1.57 3.83c.3.6.98.97 1.65.67l4.65-1.95c.68-.22.98-.97.68-1.65l-1.73-3.9c-.22-.67-.37-1.2-.3-1.27.08-.08.6-.53 1.13-.98l2.25-2.25c.45-.52.9-1.05.97-1.12.07-.08.68 0 1.28.3l3.82 1.57c.6.3 1.35-.07 1.65-.67l1.95-4.65c.3-.68 0-1.43-.6-1.65zM23.78 48.6c-6.9 0-12.53-5.62-12.53-12.52 0-6.9 5.63-12.53 12.53-12.53 6.9 0 12.52 5.63 12.52 12.53 0 6.9-5.62 12.52-12.52 12.52z" fill="#535352" stroke-linecap="butt" stroke-width=".75"/>
          </g>
        </g>
        <g id="group40-8" transform="translate(27.825)" v:mID="40" v:groupContext="group">
          <g id="group41-9" v:mID="41" v:groupContext="group">
            <g id="shape42-10" v:mID="42" v:groupContext="shape">
              <path d="M4.5 60C2.03 60 0 57.98 0 55.5v-21C0 32.03 2.03 30 4.5 30h21c2.48 0 4.5 2.03 4.5 4.5v21c0 2.48-2.02 4.5-4.5 4.5h-21z" class="st1"/>
            </g>
            <g id="shape43-12" v:mID="43" v:groupContext="shape" transform="translate(2.25 -2.25)">
              <path d="M25.5 57.75c0 1.28-.98 2.25-2.25 2.25h-21C.98 60 0 59.03 0 57.75v-21c0-1.27.98-2.25 2.25-2.25h21c1.27 0 2.25.98 2.25 2.25v21z" fill="#515050" stroke-linecap="butt" stroke-width=".75"/>
            </g>
          </g>
          <g id="group44-14" transform="translate(7.65 -8.25)" v:mID="44" v:groupContext="group">
            <g id="shape45-15" v:mID="45" v:groupContext="shape">
              <path d="M6.67 58.95C5.85 59.63 4.65 60 3.15 60c-1.28 0-2.33-.22-3.15-.6V57c.82.6 1.8.9 2.92.9.68 0 1.28-.15 1.65-.45.38-.3.61-.75.6-1.27.01-.6-.22-.98-.75-1.28-.52-.3-1.12-.45-2.02-.45H1.2v-2.1h1.05c1.65 0 2.47-.52 2.47-1.65 0-1.05-.6-1.57-1.87-1.57-.82 0-1.65.3-2.48.82V47.7c.91-.45 1.95-.67 3.08-.67 1.27 0 2.32.3 3 .9.67.6 1.05 1.35 1.05 2.25 0 1.65-.83 2.7-2.48 3.07.9.08 1.58.45 2.1.98.53.52.75 1.2.75 1.95.08 1.2-.3 2.1-1.2 2.77z" class="st1"/>
            </g>
            <g id="group46-17" transform="translate(9.375 -7.2)" v:mID="46" v:groupContext="group">
              <g id="shape47-18" v:mID="47" v:groupContext="shape">
                <path d="M1.95 57.3c-.08-.07-.23-.07-.38-.07-.22 0-.45.07-.6.3-.15.22-.22.45-.22.82V60H0v-3.37h.75v.67c.07-.22.22-.45.37-.52.15-.15.3-.23.53-.23.15 0 .22 0 .3.08v.67z" class="st1"/>
              </g>
              <g id="shape48-20" v:mID="48" v:groupContext="shape" transform="translate(2.25)">
                <path d="M3.22 59.93h-.75v-.6c-.22.45-.6.67-1.12.67-.45 0-.75-.15-.98-.45-.22-.3-.37-.75-.37-1.2 0-.52.15-.97.45-1.35.3-.3.67-.52 1.12-.52.45 0 .75.15.98.52v-2.1h.75v5.03h-.08zm-.75-1.5v-.45c0-.23-.07-.45-.22-.6a.864.864 0 0 0-.6-.23c-.3 0-.53.08-.68.3-.15.23-.22.53-.22.9 0 .38.07.6.22.83.15.22.38.3.6.3.23 0 .45-.08.6-.3.15-.23.3-.45.3-.75z" class="st1"/>
              </g>
            </g>
          </g>
        </g>
      </g>
    </g>
  </g>
</svg>
