<svg xmlns="http://www.w3.org/2000/svg" xmlns:v="http://schemas.microsoft.com/visio/2003/SVGExtensions/" width="83" height="73" viewBox="0 0 62.25 54.75" color-interpolation-filters="sRGB" fill="none" fill-rule="evenodd" font-size="12" overflow="visible" stroke-linecap="square" stroke-miterlimit="3">
  <v:documentProperties v:langID="4108" v:metric="true" v:viewMarkup="false"/>
  <style>
    .st1,.st2,.st3{fill:#fff;stroke:none;stroke-linecap:butt;stroke-width:.75}.st2,.st3{fill:#515150}.st3{fill:#515050}
  </style>
  <g v:mID="0" v:index="1" v:groupContext="foregroundPage">
    <v:pageProperties v:drawingScale=".039" v:pageScale=".039" v:drawingUnits="24" v:shadowOffsetX="8.504" v:shadowOffsetY="-8.504"/>
    <g id="group49-1" transform="translate(.75 -.75)" v:mID="49" v:groupContext="group">
      <g id="group50-2" transform="translate(0 -6.75)" v:mID="50" v:groupContext="group">
        <g id="shape51-3" v:mID="51" v:groupContext="shape">
          <path d="M50.62 28.5h-.37V8.25H6.75V28.5h-.38L0 36.75v18h57v-18l-6.38-8.25z" class="st1"/>
        </g>
        <g id="shape52-5" v:mID="52" v:groupContext="shape" transform="translate(9 -19.5)">
          <path class="st2" d="M0 52.5h39v2.25H0z"/>
        </g>
        <g id="shape53-7" v:mID="53" v:groupContext="shape" transform="translate(9 -24)">
          <path class="st2" d="M0 52.5h39v2.25H0z"/>
        </g>
        <g id="shape54-9" v:mID="54" v:groupContext="shape" transform="translate(9 -28.5)">
          <path class="st2" d="M0 52.5h39v2.25H0z"/>
        </g>
        <g id="shape55-11" v:mID="55" v:groupContext="shape" transform="translate(9 -33)">
          <path class="st2" d="M0 52.5h39v2.25H0z"/>
        </g>
        <g id="shape56-13" v:mID="56" v:groupContext="shape" transform="translate(9 -37.5)">
          <path class="st2" d="M0 52.5h39v2.25H0z"/>
        </g>
        <g id="shape57-15" v:mID="57" v:groupContext="shape" transform="translate(2.25 -2.25)">
          <path d="M48 33.98v5.77H4.5v-5.77L0 39.75v15h52.5v-15L48 33.98z" class="st2"/>
        </g>
        <g id="shape58-17" v:mID="58" v:groupContext="shape" transform="translate(9 -42)">
          <path class="st2" d="M0 52.5h39v2.25H0z"/>
        </g>
      </g>
      <g id="group59-19" transform="translate(27)" v:mID="59" v:groupContext="group">
        <g id="group60-20" v:mID="60" v:groupContext="group">
          <g id="shape61-21" v:mID="61" v:groupContext="shape">
            <path d="M3.75 54.75C1.65 54.75 0 53.1 0 51V27.75C0 25.65 1.65 24 3.75 24H30c2.1 0 3.75 1.65 3.75 3.75V51c0 2.1-1.65 3.75-3.75 3.75H3.75z" class="st1"/>
          </g>
          <g id="shape62-23" v:mID="62" v:groupContext="shape" transform="translate(2.25 -2.25)">
            <path d="M27.75 28.5H1.5c-.9 0-1.5.6-1.5 1.5v23.25c0 .9.6 1.5 1.5 1.5h26.25c.9 0 1.5-.6 1.5-1.5V30c0-.9-.6-1.5-1.5-1.5zm0 24.75H1.5V33h26.25v20.25z" class="st2"/>
          </g>
          <g id="shape63-25" v:mID="63" v:groupContext="shape" transform="translate(28.5 -25.5)">
            <path class="st1" d="M0 53.25h1.5v1.5H0z"/>
          </g>
          <g id="shape64-27" v:mID="64" v:groupContext="shape" transform="translate(25.5 -25.5)">
            <path class="st1" d="M0 53.25h1.5v1.5H0z"/>
          </g>
          <g id="shape65-29" v:mID="65" v:groupContext="shape" transform="translate(22.5 -25.5)">
            <path class="st1" d="M0 53.25h1.5v1.5H0z"/>
          </g>
        </g>
        <g id="group66-31" transform="translate(7.275 -5.025)" v:mID="66" v:groupContext="group">
          <g id="shape67-32" v:mID="67" v:groupContext="shape" transform="translate(2.925 -11.55)">
            <path d="M7.95 53.4c.9.9 2.48.9 3.38 0 .9-.9.9-2.47 0-3.37-.9-.9-2.48-.9-3.38 0l-.07.07c-.38-.07-.68-.07-1.05-.07-2.93 0-5.48 1.65-6.83 4.12.6.08 1.13.23 1.58.6 1.05-1.8 3-3 5.17-3h.38c.15.6.37 1.2.82 1.65z" class="st3"/>
          </g>
          <g id="shape68-34" v:mID="68" v:groupContext="shape" transform="translate(0 -.975)">
            <path d="M9 53.03a5.94 5.94 0 0 1-4.87-4.05c.07-.08.15-.08.22-.15.9-.9.9-2.48 0-3.38-.9-.9-2.47-.9-3.37 0-.98.9-.98 2.48 0 3.38.45.45 1.04.67 1.57.67.98 2.93 3.68 5.1 6.9 5.25-.3-.45-.45-1.05-.45-1.72 0 .07 0 .07 0 0z" class="st3"/>
          </g>
          <g id="shape69-36" v:mID="69" v:groupContext="shape" transform="translate(9.9)">
            <path d="M7.58 46.13c0-1.73-.6-3.38-1.58-4.65-.15.45-.45.82-.82 1.2-.08.07-.15.15-.3.22.6.9.9 2.03.9 3.23 0 1.57-.68 3.07-1.65 4.12-.98-.75-2.33-.75-3.23.15-.9.98-.9 2.48 0 3.38.9.97 2.48.97 3.38 0 .52-.53.75-1.28.67-2.03 1.65-1.35 2.63-3.37 2.63-5.62z" class="st3"/>
          </g>
        </g>
      </g>
    </g>
  </g>
</svg>
