<svg xmlns="http://www.w3.org/2000/svg" xmlns:v="http://schemas.microsoft.com/visio/2003/SVGExtensions/" width="75.689" height="80.3" viewBox="0 0 56.767 60.225" color-interpolation-filters="sRGB" fill="none" fill-rule="evenodd" font-size="12" overflow="visible" stroke-linecap="square" stroke-miterlimit="3">
  <v:documentProperties v:langID="4108" v:metric="true" v:viewMarkup="false"/>
  <style>
    .st1,.st2{fill:#fff;stroke:none;stroke-linecap:butt;stroke-width:.75}.st2{fill:#515150}
  </style>
  <g v:mID="0" v:index="1" v:groupContext="foregroundPage">
    <v:pageProperties v:drawingScale=".039" v:pageScale=".039" v:drawingUnits="24" v:shadowOffsetX="8.504" v:shadowOffsetY="-8.504"/>
    <g id="group94-1" transform="translate(.75 -.75)" v:mID="94" v:groupContext="group">
      <g id="group95-2" v:mID="95" v:groupContext="group">
        <g id="group96-3" transform="translate(0 -5.475)" v:mID="96" v:groupContext="group">
          <g id="shape97-4" v:mID="97" v:groupContext="shape">
            <path d="M39.75 16.35V51.45c-.68 7.65-12.75 8.77-19.88 8.77C12.75 60.22.68 59.1 0 51.45v-36.6c0-5.4 9.98-7.87 19.87-7.88 9.9.01 19.88 2.48 19.88 7.88v1.5z" class="st1"/>
          </g>
          <g id="shape98-6" v:mID="98" v:groupContext="shape" transform="translate(2.25 -2.25)">
            <path d="M17.62 24.98c-7.05 0-14.1-1.2-17.62-3.9v32.39c.53 6.23 13.2 6.75 17.62 6.75 4.43 0 17.03-.52 17.63-6.75V21.08c-3.53 2.7-10.58 3.9-17.63 3.9z" class="st2"/>
          </g>
          <g id="shape99-8" v:mID="99" v:groupContext="shape" transform="translate(2.25 -39.75)">
            <ellipse cx="17.625" cy="54.6" rx="17.625" ry="5.625" class="st2"/>
          </g>
        </g>
        <g id="group100-10" transform="translate(21.825)" v:mID="100" v:groupContext="group">
          <g id="shape101-11" v:mID="101" v:groupContext="shape">
            <path d="M20.85 60.22c-1.2 0-2.32-.75-2.77-1.87l-.68-1.58h-1.27l-.68 1.58c-.37 1.12-1.5 1.87-2.7 1.87-.37 0-.82-.07-1.12-.22l-2.85-1.2c-.75-.3-1.35-.9-1.65-1.65-.3-.75-.3-1.58 0-2.32l.67-1.58-.82-.82-1.58.67c-.37.15-.75.22-1.12.23-1.2-.01-2.33-.76-2.78-1.88L.3 48.6c-.3-.75-.3-1.57 0-2.32.3-.75.9-1.35 1.65-1.65l1.58-.68v-1.2l-1.58-.67C1.2 41.77.6 41.18.3 40.43c-.3-.75-.3-1.58 0-2.33l1.2-2.85a3.029 3.029 0 0 1 2.78-1.87c.37 0 .75.07 1.12.22l1.58.68.82-.83-.67-1.57c-.3-.75-.3-1.58 0-2.33.29-.75.9-1.35 1.65-1.65l2.85-1.2c.37-.15.75-.22 1.12-.22 1.2 0 2.33.75 2.78 1.87l.6 1.5h1.27l.6-1.57a3.023 3.023 0 0 1 2.78-1.88c.37 0 .75.08 1.12.23l2.85 1.2c.75.3 1.35.9 1.65 1.65.3.75.3 1.57 0 2.32l-.67 1.58.82.82 1.58-.67c.37-.15.75-.23 1.12-.23 1.2 0 2.33.75 2.78 1.88l1.2 2.85c.3.75.3 1.57 0 2.32-.3.75-.9 1.35-1.65 1.65l-1.58.68v1.2l1.58.67c1.57.67 2.25 2.4 1.65 3.98l-1.2 2.85a3.029 3.029 0 0 1-2.78 1.87c-.37 0-.82-.07-1.2-.22l-1.57-.68-.83.83.68 1.57c.29.75.3 1.57 0 2.32-.3.75-.9 1.35-1.65 1.65l-2.85 1.2c-.15.23-.6.3-.98.3z" class="st1"/>
          </g>
          <g id="shape102-13" v:mID="102" v:groupContext="shape" transform="translate(2.025 -2.1)">
            <path d="M28.95 48.83l-2.4-.98c-.37-.15-.67-.37-.67-.45 0-.07.07-.52.07-.9v-1.95c0-.45-.07-.82-.07-.9 0-.07.3-.3.67-.45l2.4-.97c.38-.15.6-.6.45-1.05l-1.2-2.85c-.15-.38-.6-.6-1.05-.45l-2.4.97c-.37.15-.75.23-.82.15-.08-.07-.3-.37-.6-.75L21.9 36.9c-.3-.3-.67-.52-.67-.6-.08-.07 0-.37.15-.82l.97-2.4c.15-.38 0-.83-.45-1.05l-2.85-1.2c-.37-.15-.83 0-1.05.45l-.97 2.4c-.15.37-.38.67-.45.67-.08 0-.53-.07-.9-.15 0 0-.38-.07-.98-.07s-.98.07-.97.07c-.46.08-.83.08-.9.15-.08 0-.31-.3-.45-.67l-.98-2.4c-.15-.38-.6-.6-1.05-.45l-2.85 1.2c-.37.15-.6.6-.45 1.05l.98 2.4c.14.37.22.75.15.82-.08.08-.38.3-.68.6l-1.42 1.43c-.3.3-.53.67-.6.75-.08.07-.38 0-.83-.15L2.4 37.8c-.37-.15-.82 0-1.05.45L.15 41.1c-.15.38 0 .83.45 1.05l2.4.98c.37.15.67.37.68.45-.01.07-.08.52-.08.9v1.95c0 .45.07.82.08.9-.01.07-.31.3-.68.45L.6 48.83c-.37.14-.6.6-.45 1.05l1.2 2.85c.15.37.6.59 1.05.45l2.4-.98c.38-.15.75-.22.83-.15.07.08.3.38.6.75l1.42 1.35c.3.3.67.52.75.6.07.07 0 .45-.15.82l-1.12 2.25c-.15.38 0 .83.45 1.05l2.85 1.2c.37.15.82 0 1.05-.45l.97-2.4c.15-.37.37-.67.45-.67.07 0 .52.08.9.15 0 0 .38.08.98.07.6.01.97-.07.97-.07.45-.07.83-.07.9-.15.08 0 .3.3.45.67l.98 2.4c.14.38.6.6 1.05.45l2.85-1.2c.37-.15.59-.6.45-1.05l-.98-2.4c-.15-.37-.22-.75-.15-.82.08-.08.38-.3.75-.6l1.43-1.42c.3-.3.52-.68.6-.75.07-.08.37 0 .82.15l2.4.97c.37.15.83 0 1.05-.45l1.2-2.85c-.07-.22-.22-.68-.6-.82zm-14.17 4.35a7.723 7.723 0 0 1-7.73-7.73c0-4.27 3.45-7.72 7.73-7.72 4.27 0 7.72 3.45 7.72 7.72a7.72 7.72 0 0 1-7.72 7.73z" class="st2"/>
          </g>
        </g>
      </g>
    </g>
  </g>
</svg>
