<svg xmlns="http://www.w3.org/2000/svg" xmlns:v="http://schemas.microsoft.com/visio/2003/SVGExtensions/" width="69" height="71" viewBox="0 0 51.75 53.25" color-interpolation-filters="sRGB" fill="none" fill-rule="evenodd" font-size="12" overflow="visible" stroke-linecap="square" stroke-miterlimit="3">
  <v:documentProperties v:langID="4108" v:metric="true" v:viewMarkup="false"/>
  <style>
    .st1,.st2{fill:#fff;stroke:none;stroke-linecap:butt;stroke-width:.75}.st2{fill:#515050}
  </style>
  <g v:mID="0" v:index="1" v:groupContext="foregroundPage">
    <v:pageProperties v:drawingScale=".039" v:pageScale=".039" v:drawingUnits="24" v:shadowOffsetX="8.504" v:shadowOffsetY="-8.504"/>
    <g id="group103-1" transform="translate(.75 -.75)" v:mID="103" v:groupContext="group">
      <g id="group104-2" v:mID="104" v:groupContext="group">
        <g id="group105-3" v:mID="105" v:groupContext="group">
          <g id="shape106-4" v:mID="106" v:groupContext="shape">
            <path d="M45 1.5H5.25C2.33 1.5 0 3.82 0 6.75v28.5c0 2.92 2.33 5.25 5.25 5.25h17.33V51c-.01.98.6 1.8 1.49 2.1.23.07.53.15.76.15.67 0 1.27-.3 1.72-.83l10.2-11.92H45c2.92 0 5.25-2.33 5.25-5.25V6.75c0-2.93-2.33-5.25-5.25-5.25z" class="st1"/>
          </g>
          <g id="shape107-6" v:mID="107" v:groupContext="shape" transform="translate(2.25 -2.25)">
            <path d="M42.75 6H3C1.35 6 0 7.35 0 9v28.5c0 1.65 1.35 3 3 3h19.58v12.75L33.45 40.5h9.3c1.65 0 3-1.35 3-3V9c0-1.65-1.35-3-3-3z" class="st2"/>
          </g>
        </g>
        <g id="group108-8" transform="translate(6.075 -27)" v:mID="108" v:groupContext="group">
          <g id="shape109-9" v:mID="109" v:groupContext="shape">
            <path d="M13.5 48.83c-.3-1.13-.6-1.73-1.42-2.25-.9-.45-1.43-.83-1.73-.83-.15 0-.22 0-.37.08-.23.22-.45.37-.68.52-.07 0-.07.08-.15.08-.22.15-.52.22-.75.3-.45.15-.97.22-1.42.22-.53 0-.98-.07-1.43-.22-.22-.08-.52-.15-.75-.3-.3-.15-.6-.38-.82-.6-.08 0-.23-.08-.3-.08-.3 0-.68.23-1.65.83-.9.52-1.2 1.05-1.43 2.25-.22 1.05-.52 3.29-.6 4.42h14.18c-.15-1.12-.45-3.45-.68-4.42z" class="st1"/>
          </g>
          <g id="shape110-11" v:mID="110" v:groupContext="shape" transform="translate(3.525 -7.725)">
            <path d="M3.45 53.25C1.58 53.25 0 51.53 0 49.42c0-2.1 1.58-3.82 3.45-3.82 1.88 0 3.45 1.72 3.45 3.82 0 2.11-1.5 3.83-3.45 3.83z" class="st1"/>
          </g>
        </g>
        <g id="group111-13" transform="translate(30.075 -27)" v:mID="111" v:groupContext="group">
          <g id="shape112-14" v:mID="112" v:groupContext="shape">
            <path d="M13.58 48.83c-.3-1.13-.6-1.73-1.43-2.25-.9-.45-1.35-.83-1.72-.83-.15 0-.23 0-.38.08-.22.22-.45.37-.67.52-.08 0-.08.08-.15.08-.23.15-.53.22-.75.3-.45.15-.98.22-1.43.22-.52 0-.97-.07-1.42-.22-.23-.08-.53-.15-.75-.3-.3-.15-.6-.38-.83-.6-.07-.08-.22-.08-.37-.08-.3 0-.68.23-1.65.83-.9.52-1.2 1.05-1.43 2.25-.23 1.05-.53 3.29-.6 4.42h14.18c-.08-1.12-.38-3.45-.6-4.42z" class="st1"/>
          </g>
          <g id="shape113-16" v:mID="113" v:groupContext="shape" transform="translate(3.675 -7.725)">
            <path d="M3.45 53.25C1.58 53.25 0 51.53 0 49.42c0-2.1 1.58-3.82 3.45-3.82 1.88 0 3.45 1.72 3.45 3.82 0 2.11-1.57 3.83-3.45 3.83z" class="st1"/>
          </g>
        </g>
        <g id="group114-18" transform="translate(16.425 -20.25)" v:mID="114" v:groupContext="group">
          <g id="shape115-19" v:mID="115" v:groupContext="shape">
            <path d="M0 53.25l.08-1.58c.07-1.12.37-3.52.6-4.65.3-1.35.82-2.4 2.17-3.15l.38-.22c.9-.53 1.34-.75 2.02-.75.37 0 .75.07 1.05.3l.15.07.15.15c.15.15.38.3.53.38.15.07.3.15.45.22.37.15.67.15.97.15.3 0 .68-.07.98-.15.15-.07.3-.07.45-.15l.15-.15.15-.07c.15-.08.22-.15.3-.3l.15-.15.15-.08c.3-.15.67-.3 1.05-.3.67 0 1.2.3 1.95.75l.45.23c1.35.75 1.87 1.8 2.17 3.22.23 1.13.53 3.53.6 4.65l.23 1.58H0z" class="st2"/>
          </g>
          <g id="shape116-21" v:mID="116" v:groupContext="shape" transform="translate(1.65 -1.5)">
            <path d="M13.5 48.82c-.3-1.12-.6-1.72-1.42-2.25-.9-.45-1.43-.82-1.73-.82-.15 0-.22 0-.37.07-.23.23-.45.38-.68.53-.07 0-.07.07-.15.07-.22.15-.52.23-.75.3-.45.15-.97.23-1.42.23-.53 0-.98-.08-1.43-.23-.22-.07-.52-.15-.75-.3-.3-.15-.6-.37-.82-.6-.08 0-.23-.07-.3-.07-.3 0-.68.22-1.65.82-.9.53-1.2 1.05-1.43 2.25-.23 1.05-.53 3.3-.6 4.43h14.18c-.15-1.13-.45-3.45-.68-4.43z" class="st1"/>
          </g>
          <g id="shape117-23" v:mID="117" v:groupContext="shape" transform="translate(3.675 -7.725)">
            <path d="M4.95 53.25c-2.7 0-4.95-2.4-4.95-5.33C0 45 2.25 42.6 4.95 42.6S9.9 45 9.9 47.92c0 2.93-2.17 5.33-4.95 5.33z" class="st2"/>
          </g>
          <g id="shape118-25" v:mID="118" v:groupContext="shape" transform="translate(5.175 -9.225)">
            <path d="M3.45 53.25C1.58 53.25 0 51.52 0 49.42s1.58-3.82 3.45-3.82c1.88 0 3.45 1.72 3.45 3.82 0 2.1-1.5 3.83-3.45 3.83z" class="st1"/>
          </g>
        </g>
      </g>
    </g>
  </g>
</svg>
