<svg xmlns="http://www.w3.org/2000/svg" xmlns:v="http://schemas.microsoft.com/visio/2003/SVGExtensions/" width="86.7" height="87" viewBox="0 0 65.025 65.25" color-interpolation-filters="sRGB" fill="none" fill-rule="evenodd" font-size="12" overflow="visible" stroke-linecap="square" stroke-miterlimit="3">
  <v:documentProperties v:langID="4108" v:metric="true" v:viewMarkup="false"/>
  <style>
    .st1,.st3{fill:#fff;stroke:none;stroke-linecap:butt;stroke-width:.75}.st3{fill:#515251}
  </style>
  <g v:mID="0" v:index="1" v:groupContext="foregroundPage">
    <v:pageProperties v:drawingScale=".039" v:pageScale=".039" v:drawingUnits="24" v:shadowOffsetX="8.504" v:shadowOffsetY="-8.504"/>
    <g id="group119-1" transform="translate(.75 -.75)" v:mID="119" v:groupContext="group">
      <g id="group120-2" transform="translate(0 -16.5)" v:mID="120" v:groupContext="group">
        <g id="group121-3" v:mID="121" v:groupContext="group">
          <g id="shape122-4" v:mID="122" v:groupContext="shape">
            <path class="st1" d="M0 18h57v47.25H0z"/>
          </g>
          <g id="shape123-6" v:mID="123" v:groupContext="shape" transform="translate(2.25 -2.25)">
            <path fill="#515150" stroke-linecap="butt" stroke-width=".75" d="M0 22.5h52.5v42.75H0z"/>
          </g>
        </g>
        <g id="shape124-8" v:mID="124" v:groupContext="shape" transform="translate(4.5 -4.5)">
          <path class="st1" d="M0 27h48v38.25H0z"/>
        </g>
      </g>
      <g id="group125-10" transform="translate(30.075)" v:mID="125" v:groupContext="group">
        <g id="shape126-11" v:mID="126" v:groupContext="shape">
          <path d="M20.85 65.25c-1.2 0-2.33-.75-2.78-1.88l-.67-1.57h-1.28l-.67 1.57c-.38 1.13-1.5 1.88-2.7 1.88-.37 0-.82-.08-1.13-.22l-2.85-1.21c-.74-.3-1.35-.9-1.65-1.65-.29-.75-.29-1.57 0-2.32l.68-1.58-.83-.82-1.57.67c-.37.15-.75.23-1.13.23-1.2 0-2.32-.75-2.77-1.88L.3 53.62c-.3-.74-.3-1.57 0-2.32.3-.75.9-1.35 1.65-1.65l1.57-.68v-1.2l-1.57-.67C1.2 46.8.6 46.2.3 45.45c-.3-.75-.3-1.57 0-2.33l1.2-2.85a3.015 3.015 0 0 1 2.77-1.87c.38 0 .76.07 1.13.22l1.57.68.83-.83-.68-1.57c-.29-.75-.29-1.58 0-2.33.3-.74.91-1.35 1.65-1.65l2.85-1.2c.38-.15.76-.22 1.13-.22 1.2 0 2.32.75 2.77 1.87l.6 1.5h1.28l.6-1.57a3.009 3.009 0 0 1 2.77-1.88c.38 0 .75.08 1.13.23l2.85 1.2c.75.3 1.35.9 1.65 1.65.3.75.3 1.57 0 2.32l-.68 1.58.83.82 1.57-.67c.38-.15.75-.23 1.13-.23 1.2 0 2.32.76 2.77 1.88l1.2 2.85c.3.75.3 1.57 0 2.32-.3.75-.9 1.35-1.65 1.65L30 47.7v1.2l1.57.67c1.58.68 2.25 2.4 1.65 3.98l-1.2 2.85a3.015 3.015 0 0 1-2.77 1.87c-.38 0-.83-.07-1.2-.22l-1.58-.68-.82.83.67 1.57c.3.75.3 1.58 0 2.33s-.9 1.35-1.65 1.65l-2.85 1.2c-.15.22-.6.3-.97.3z" class="st1"/>
        </g>
        <g id="shape127-13" v:mID="127" v:groupContext="shape" transform="translate(2.025 -2.1)">
          <path d="M28.95 53.85l-2.4-.98c-.38-.14-.68-.37-.68-.45 0-.07.08-.52.08-.9v-1.95c0-.45-.08-.82-.08-.9 0-.07.3-.3.68-.45l2.4-.97c.37-.15.6-.6.45-1.05l-1.2-2.85c-.15-.37-.6-.6-1.05-.45l-2.4.97c-.38.15-.75.23-.83.15-.07-.07-.3-.37-.6-.75l-1.42-1.35c-.3-.3-.68-.52-.68-.6-.07-.07 0-.37.15-.82l.98-2.4c.15-.37 0-.82-.45-1.05l-2.85-1.2c-.38-.15-.83 0-1.05.45l-.98 2.4c-.15.37-.37.67-.45.67-.07 0-.52-.07-.9-.15 0 0-.37-.07-.97-.07s-.98.07-.98.07c-.45.08-.82.08-.9.15-.07 0-.3-.3-.45-.67l-.97-2.4c-.15-.38-.6-.6-1.05-.45l-2.85 1.2c-.37.15-.6.6-.45 1.05l.97 2.4c.15.37.23.75.15.82-.07.08-.37.3-.67.6l-1.43 1.43c-.3.3-.52.67-.6.75-.07.07-.37 0-.82-.15L2.4 42.82c-.38-.14-.83.01-1.05.45l-1.2 2.85c-.15.38 0 .83.45 1.05l2.4.98c.37.15.67.37.67.45 0 .07-.07.52-.07.9v1.95c0 .45.07.83.07.9 0 .08-.3.3-.67.45L.6 53.85c-.37.15-.6.6-.45 1.05l1.2 2.85c.15.37.6.6 1.05.45l2.4-.98c.37-.14.75-.22.82-.15.08.08.3.38.6.75l1.43 1.35c.3.3.67.53.75.6.07.08 0 .45-.15.83l-1.13 2.25c-.14.37.01.82.45 1.05l2.85 1.2c.38.15.83 0 1.05-.45l.98-2.4c.15-.37.37-.67.45-.68.07.01.52.08.9.15 0 .01.37.08.97.08s.98-.07.98-.08c.45-.07.82-.07.9-.15.07.01.3.31.45.68l.97 2.4c.15.38.6.6 1.05.45l2.85-1.2c.38-.15.6-.6.45-1.05l-.97-2.4c-.15-.38-.23-.75-.15-.83.07-.07.37-.3.75-.6l1.42-1.42c.3-.3.53-.67.6-.75.08-.07.38 0 .83.15l2.4.97c.37.15.82 0 1.05-.45l1.2-2.85c-.08-.22-.23-.67-.6-.82zM14.77 58.2c-4.27 0-7.72-3.45-7.72-7.73 0-4.27 3.45-7.72 7.72-7.72 4.28 0 7.73 3.45 7.73 7.72 0 4.28-3.45 7.73-7.73 7.73z" class="st3"/>
        </g>
      </g>
      <g id="group128-15" transform="translate(9.525 -28.2)" v:mID="128" v:groupContext="group">
        <g id="shape129-16" v:mID="129" v:groupContext="shape" transform="translate(3.15 -4.425)">
          <path d="M10.42 48.38h-8.1C1.05 48.45 0 49.42 0 50.7v6.45c0 1.35 1.05 2.33 2.32 2.33h8.1c2.25 0 9.53.45 13.95 5.32.38.45 1.13-.08 1.13-.68V43.2c0-.6-.83-1.05-1.2-.6-4.5 4.8-11.55 5.78-13.88 5.78z" class="st3"/>
        </g>
        <g id="shape130-18" v:mID="130" v:groupContext="shape" transform="translate(0 -11.775)">
          <path d="M3 65.25h1.87c1.65 0 3-1.72 3-3.9v-.07c0-2.25-1.35-3.9-3-3.9H3c-1.65 0-3 1.72-3 3.9v.07c0 2.18 1.35 3.9 3 3.9z" class="st3"/>
        </g>
        <g id="shape131-20" v:mID="131" v:groupContext="shape" transform="translate(5.55)">
          <path d="M1.05 56.93c.15.52 1.27 3.22 1.5 4.05.3 1.05.9 2.47.9 3 0 .52.15 1.27.52 1.27.83 0 3-1.5 3.08-1.8.15-.67-.9-.82-.83-1.35.15-1.42-.52-3.22-.67-3.82-.08-.15 0-.3.22-.38.23-.07.6-.15.68-.45.22-.6-.3-1.27-.38-1.65-.07-.37.68-.6.9-.67.75-.08 1.58-.15 2.4-.15.23 0-1.05-.53-1.05-.53L5.77 54H.9s-.3-1.05-.6-.6c-.3.6-.15 1.58-.15 1.58l.9 1.95z" class="st3"/>
        </g>
        <g id="group132-22" transform="translate(22.95 -8.175)" v:mID="132" v:groupContext="group">
          <g id="shape133-23" v:mID="133" v:groupContext="shape" transform="translate(0 -4.875)">
            <path d="M0 62.25c0 1.2.6 2.32 1.57 3H6c.9-.68 1.58-1.72 1.57-3 .01-1.43-.75-2.55-1.95-3.23l-2.92-.3C1.13 59.25 0 60.6 0 62.25z" class="st3"/>
          </g>
          <g id="shape134-25" v:mID="134" v:groupContext="shape" transform="translate(8.175 -2.85)">
            <path d="M.9 54.97L0 56.25a5.877 5.877 0 0 1 1.58 3.98c0 1.49-.53 2.84-1.43 3.89l.97 1.13c1.21-1.35 1.96-3.07 1.96-5.02A7.51 7.51 0 0 0 .9 54.97z" class="st3"/>
          </g>
          <g id="shape135-27" v:mID="135" v:groupContext="shape" transform="translate(10.35)">
            <path d="M.9 49.05l-.9 1.2c1.95 1.8 3.15 4.27 3.15 7.12 0 2.63-1.05 4.95-2.7 6.76l.97 1.12c2.03-2.03 3.23-4.8 3.23-7.88 0-3.29-1.43-6.3-3.75-8.32z" class="st3"/>
          </g>
        </g>
      </g>
    </g>
  </g>
</svg>
