<svg xmlns="http://www.w3.org/2000/svg" xmlns:v="http://schemas.microsoft.com/visio/2003/SVGExtensions/" width="80.169" height="73" viewBox="0 0 60.126 54.75" color-interpolation-filters="sRGB" fill="none" fill-rule="evenodd" font-size="12" overflow="visible" stroke-linecap="square" stroke-miterlimit="3">
  <v:documentProperties v:langID="4108" v:metric="true" v:viewMarkup="false"/>
  <style>
    .st1,.st2{fill:#fff;stroke:none;stroke-linecap:butt;stroke-width:.75}.st2{fill:#515150}
  </style>
  <g v:mID="0" v:index="1" v:groupContext="foregroundPage">
    <v:pageProperties v:drawingScale=".039" v:pageScale=".039" v:drawingUnits="24" v:shadowOffsetX="8.504" v:shadowOffsetY="-8.504"/>
    <g id="group149-1" transform="translate(.576 -.75)" v:mID="149" v:groupContext="group">
      <g id="group150-2" transform="translate(1.8)" v:mID="150" v:groupContext="group">
        <g id="group151-3" v:mID="151" v:groupContext="group">
          <g id="shape152-4" v:mID="152" v:groupContext="shape">
            <path d="M0 39.75v15h57V37.2l-.45-1.95-3.75-15.67h-1.05V7.5h-1.5v-6H6.75v6h-1.5v12.08H4.2L.45 35.25 0 37.2v2.55z" class="st1"/>
          </g>
          <g id="group153-6" transform="translate(15 -21.75)" v:mID="153" v:groupContext="group">
            <g id="shape154-7" v:mID="154" v:groupContext="shape" transform="translate(23.25 -11.25)">
              <path class="st2" d="M0 48h6v6.75H0z"/>
            </g>
            <g id="shape155-9" v:mID="155" v:groupContext="shape" transform="translate(0 -5.25)">
              <path class="st2" d="M0 52.5h15.75v2.25H0z"/>
            </g>
            <g id="shape156-11" v:mID="156" v:groupContext="shape">
              <path class="st2" d="M0 52.5h20.25v2.25H0z"/>
            </g>
          </g>
          <g id="shape157-13" v:mID="157" v:groupContext="shape" transform="translate(9 -47.25)">
            <path d="M0 51v3.75h2.25v-1.5h34.5v1.5H39V51H0z" class="st2"/>
          </g>
        </g>
        <g id="shape158-15" v:mID="158" v:groupContext="shape" transform="translate(2.25 -2.25)">
          <path d="M48.75 24.08h-1.5V12h-42v12.08h-1.5L0 39.75v15h52.5v-15l-3.75-15.67zm-3.75 0v15.67H7.5v-25.5H45v9.83z" class="st2"/>
        </g>
      </g>
      <g id="group159-17" transform="translate(0 -.75)" v:mID="159" v:groupContext="group">
        <g id="shape160-18" v:mID="160" v:groupContext="shape">
          <path d="M24.98 15.67c-7.88 0-14.33 6.45-14.33 14.33 0 2.25.53 4.5 1.58 6.52-.83.3-1.58.75-2.18 1.35L1.8 46.05c-.82.82-1.42 2.03-1.57 3.22-.23 1.51.29 3 1.35 4.05.97.98 2.1 1.43 3.45 1.43 1.42 0 2.92-.6 3.9-1.65l8.17-8.18c.6-.6 1.05-1.34 1.35-2.25 2.02 1.06 4.28 1.58 6.53 1.58 7.87.07 14.32-6.38 14.32-14.25 0-7.88-6.45-14.33-14.32-14.33zm0 21.98c-4.21 0-7.65-3.45-7.65-7.65s3.45-7.65 7.65-7.65 7.65 3.45 7.65 7.65-3.45 7.65-7.65 7.65z" class="st1"/>
        </g>
        <g id="shape161-20" v:mID="161" v:groupContext="shape" transform="translate(2.4 -2.25)">
          <path d="M22.58 20.18c-6.68 0-12.08 5.39-12.08 12.07 0 2.78.98 5.32 2.55 7.35l-1.2 1.2h-.3c-.82 0-1.73.37-2.32.98l-8.25 8.1c-.53.52-.83 1.2-.9 1.94-.08.83.15 1.66.75 2.18.45.45 1.12.75 1.8.75.82 0 1.72-.38 2.32-.97l8.18-8.18c.52-.52.82-1.27.9-2.02-.01-.23-.01-.45 0-.6l1.2-1.2c2.02 1.57 4.57 2.55 7.35 2.55 6.67 0 12.07-5.41 12.07-12.08 0-6.68-5.4-12.07-12.07-12.07zm0 21.97c-5.48 0-9.9-4.42-9.9-9.9s4.42-9.9 9.9-9.9c5.47 0 9.9 4.42 9.9 9.9s-4.43 9.9-9.9 9.9z" class="st2"/>
        </g>
      </g>
    </g>
  </g>
</svg>
