<svg xmlns="http://www.w3.org/2000/svg" xmlns:v="http://schemas.microsoft.com/visio/2003/SVGExtensions/" width="87" height="81" viewBox="0 0 65.25 60.75" color-interpolation-filters="sRGB" fill="none" fill-rule="evenodd" font-size="12" overflow="visible" stroke-linecap="square" stroke-miterlimit="3">
  <v:documentProperties v:langID="4108" v:metric="true" v:viewMarkup="false"/>
  <style>
    .st1,.st2{fill:#fff;stroke:none;stroke-linecap:butt;stroke-width:.75}.st2{fill:#515150}
  </style>
  <g v:mID="0" v:index="1" v:groupContext="foregroundPage">
    <v:pageProperties v:drawingScale=".039" v:pageScale=".039" v:drawingUnits="24" v:shadowOffsetX="8.504" v:shadowOffsetY="-8.504"/>
    <g id="group136-1" transform="translate(.75 -.75)" v:mID="136" v:groupContext="group">
      <g id="group137-2" transform="translate(0 -6)" v:mID="137" v:groupContext="group">
        <g id="group138-3" v:mID="138" v:groupContext="group">
          <g id="shape139-4" v:mID="139" v:groupContext="shape">
            <path d="M0 45.75v15h57V43.2l-.45-1.95-3.75-15.67h-1.05V13.5h-1.5v-6H6.75v6h-1.5v12.08H4.2L.45 41.25 0 43.2v2.55z" class="st1"/>
          </g>
          <g id="group140-6" transform="translate(15 -21.75)" v:mID="140" v:groupContext="group">
            <g id="shape141-7" v:mID="141" v:groupContext="shape" transform="translate(23.25 -11.25)">
              <path class="st2" d="M0 54h6v6.75H0z"/>
            </g>
            <g id="shape142-9" v:mID="142" v:groupContext="shape" transform="translate(0 -5.25)">
              <path class="st2" d="M0 58.5h15.75v2.25H0z"/>
            </g>
            <g id="shape143-11" v:mID="143" v:groupContext="shape">
              <path class="st2" d="M0 58.5h20.25v2.25H0z"/>
            </g>
          </g>
          <g id="shape144-13" v:mID="144" v:groupContext="shape" transform="translate(9 -47.25)">
            <path d="M0 57v3.75h2.25v-1.5h34.5v1.5H39V57H0z" class="st2"/>
          </g>
        </g>
        <g id="shape145-15" v:mID="145" v:groupContext="shape" transform="translate(2.25 -2.25)">
          <path d="M48.75 30.08h-1.5V18h-42v12.08h-1.5L0 45.75v15h52.5v-15l-3.75-15.67zm-3.75 0v15.67H7.5v-25.5H45v9.83z" class="st2"/>
        </g>
      </g>
      <g id="group146-17" transform="translate(31.5)" v:mID="146" v:groupContext="group">
        <g id="shape147-18" v:mID="147" v:groupContext="shape">
          <path d="M16.13 60.75C7.2 60.75 0 53.55 0 44.63 0 35.7 7.2 28.5 16.13 28.5c8.92 0 16.12 7.2 16.12 16.13 0 8.92-7.2 16.12-16.12 16.12z" class="st1"/>
        </g>
        <g id="shape148-20" v:mID="148" v:groupContext="shape" transform="translate(2.25 -2.25)">
          <path d="M13.88 33C6.22 33 0 39.23 0 46.88s6.22 13.87 13.88 13.87c7.65 0 13.87-6.22 13.87-13.87 0-7.65-6.22-13.88-13.87-13.88zM21 47.55l-7.12 7.2-7.13-7.27V43.5L12 48.75V39h3.75v9.75L21 43.5v4.05z" class="st2"/>
        </g>
      </g>
    </g>
  </g>
</svg>
