<svg xmlns="http://www.w3.org/2000/svg" xmlns:v="http://schemas.microsoft.com/visio/2003/SVGExtensions/" width="85.9" height="87" viewBox="0 0 64.425 65.25" color-interpolation-filters="sRGB" fill="none" fill-rule="evenodd" font-size="12" overflow="visible" stroke-linecap="square" stroke-miterlimit="3">
  <v:documentProperties v:langID="4108" v:metric="true" v:viewMarkup="false"/>
  <style>
    .st1,.st2,.st3{fill:#fff;stroke:none;stroke-linecap:butt;stroke-width:.75}.st2,.st3{fill:#515251}.st3{fill:#515050}
  </style>
  <g v:mID="0" v:index="1" v:groupContext="foregroundPage">
    <v:pageProperties v:drawingScale=".039" v:pageScale=".039" v:drawingUnits="24" v:shadowOffsetX="8.504" v:shadowOffsetY="-8.504"/>
    <g id="group162-1" transform="translate(.75 -.75)" v:mID="162" v:groupContext="group">
      <g id="group163-2" transform="translate(24.75 -23.775)" v:mID="163" v:groupContext="group">
        <g id="shape164-3" v:mID="164" v:groupContext="shape">
          <path d="M0 65.25l.15-2.4c.15-2.63.83-8.03 1.35-10.58.68-2.92 1.58-4.95 4.43-6.52l.97-.53c1.95-1.12 2.85-1.65 4.05-1.65.67 0 1.28.15 1.88.45l.22.15.23.15c.45.45.97.83 1.5 1.05.44.3.82.45 1.27.6h.08c.82.3 1.72.45 2.55.45.9 0 1.72-.15 2.55-.45.52-.15.9-.3 1.27-.6l.23-.15.22-.15c.38-.22.75-.52 1.05-.82l.23-.15.22-.15c.6-.3 1.2-.45 1.88-.45 1.2 0 2.24.6 3.97 1.57.3.15.68.38 1.05.6 2.85 1.58 3.75 3.6 4.43 6.6.6 2.55 1.2 7.95 1.35 10.58l.15 2.4H0z" class="st1"/>
        </g>
        <g id="shape165-5" v:mID="165" v:groupContext="shape" transform="translate(2.325 -2.25)">
          <path d="M31.28 55.05c-.6-2.7-1.35-3.97-3.38-5.1-2.02-1.12-3.15-1.87-3.9-1.87-.3 0-.6.07-.82.22-.53.45-1.05.83-1.58 1.2-.07.07-.15.15-.3.15-.6.38-1.12.6-1.72.75-.98.38-2.11.6-3.23.6-1.2 0-2.25-.22-3.3-.6-.6-.15-1.12-.45-1.72-.75-.68-.37-1.28-.82-1.88-1.35-.22-.15-.45-.22-.82-.22-.75 0-1.5.52-3.9 1.87-2.03 1.13-2.7 2.4-3.38 5.1C.83 57.38.22 62.7 0 65.25h32.55c-.07-2.55-.75-7.87-1.27-10.2z" class="st2"/>
        </g>
        <g id="shape166-7" v:mID="166" v:groupContext="shape" transform="translate(8.475 -17.85)">
          <path d="M10.2 65.25C4.57 65.25 0 60.3 0 54.15c0-6.08 4.57-11.03 10.2-11.03 5.63 0 10.2 4.95 10.2 11.1 0 6.08-4.57 11.03-10.2 11.03z" class="st1"/>
        </g>
        <g id="shape167-9" v:mID="167" v:groupContext="shape" transform="translate(10.725 -20.1)">
          <path d="M7.95 65.25C3.6 65.25 0 61.27 0 56.4c0-4.8 3.53-8.77 7.95-8.77 4.35 0 7.95 3.97 7.95 8.84 0 4.88-3.6 8.78-7.95 8.78z" class="st2"/>
        </g>
      </g>
      <g id="group168-11" transform="translate(0 -15.825)" v:mID="168" v:groupContext="group">
        <g id="shape169-12" v:mID="169" v:groupContext="shape">
          <path d="M0 65.25l.15-2.4C.3 60.22.9 54.82 1.5 52.27c.68-2.92 1.65-4.95 4.43-6.52l.97-.53c1.95-1.12 2.85-1.65 4.05-1.65.68 0 1.28.15 1.88.45l.22.15.23.15c.45.45.97.83 1.5 1.05.44.3.82.45 1.27.6h.08c.82.3 1.72.45 2.55.45.9 0 1.72-.15 2.55-.45.52-.15.9-.3 1.27-.6l.23-.15.22-.15c.38-.22.75-.52 1.05-.82l.23-.15.22-.15c.6-.3 1.2-.45 1.88-.45 1.2 0 2.24.6 3.97 1.57.3.15.68.38 1.05.6 2.85 1.58 3.75 3.6 4.43 6.6.6 2.55 1.2 7.95 1.35 10.58l.15 2.4H0z" class="st1"/>
        </g>
        <g id="shape170-14" v:mID="170" v:groupContext="shape" transform="translate(2.325 -2.25)">
          <path d="M31.28 55.05c-.6-2.7-1.35-3.97-3.38-5.1-2.02-1.12-3.15-1.87-3.9-1.87-.3 0-.6.07-.82.22-.53.45-1.05.83-1.58 1.2-.07.07-.15.15-.3.15-.6.38-1.13.6-1.72.75-1.06.38-2.18.6-3.3.6-1.2 0-2.25-.22-3.3-.6-.61-.15-1.13-.45-1.73-.75-.67-.37-1.27-.82-1.87-1.35-.23-.15-.45-.22-.83-.22-.75 0-1.5.52-3.9 1.87-1.95 1.13-2.62 2.4-3.3 5.1C.83 57.37.23 62.7 0 65.25h32.55c-.07-2.55-.75-7.88-1.27-10.2z" class="st2"/>
        </g>
        <g id="shape171-16" v:mID="171" v:groupContext="shape" transform="translate(8.475 -17.85)">
          <path d="M10.2 65.25C4.57 65.25 0 60.3 0 54.15 0 48 4.57 43.12 10.2 43.12c5.63 0 10.2 4.95 10.2 11.1 0 6.15-4.57 11.03-10.2 11.03z" class="st1"/>
        </g>
        <g id="shape172-18" v:mID="172" v:groupContext="shape" transform="translate(10.725 -20.1)">
          <path d="M7.95 65.25C3.6 65.25 0 61.27 0 56.4c0-4.87 3.6-8.85 7.95-8.85s7.95 3.98 7.95 8.85c0 4.87-3.6 8.85-7.95 8.85z" class="st2"/>
        </g>
      </g>
      <g id="group173-20" transform="translate(27.675)" v:mID="173" v:groupContext="group">
        <g id="shape174-21" v:mID="174" v:groupContext="shape">
          <path class="st1" d="M0 36.75h35.25v28.5H0z"/>
        </g>
        <g id="group175-23" transform="translate(2.25 -2.25)" v:mID="175" v:groupContext="group">
          <g id="shape176-24" v:mID="176" v:groupContext="shape">
            <path class="st1" d="M0 41.25h30.75v24H0z"/>
          </g>
          <g id="shape177-26" v:mID="177" v:groupContext="shape">
            <path d="M29.25 42.75v21H1.5v-21h27.75zm1.5-1.5H0v24h30.75v-24z" class="st3"/>
          </g>
        </g>
        <g id="shape178-28" v:mID="178" v:groupContext="shape" transform="translate(8.25 -12.75)">
          <path class="st3" d="M0 63.75h13.5v1.5H0z"/>
        </g>
        <g id="shape179-30" v:mID="179" v:groupContext="shape" transform="translate(8.25 -8.25)">
          <path class="st3" d="M0 63.75h17.25v1.5H0z"/>
        </g>
        <g id="shape180-32" v:mID="180" v:groupContext="shape" transform="translate(25.5 -18)">
          <path class="st3" d="M0 60.75h3.75v4.5H0z"/>
        </g>
      </g>
      <g id="shape181-34" v:mID="181" v:groupContext="shape" transform="translate(3.675)">
        <path d="M21.68 42.75H12v2.77l3.9 3.98H0v8.92h15.9l-3.9 3.9v2.93h9.45L32.7 53.92 21.68 42.75z" class="st1"/>
      </g>
      <g id="shape182-36" v:mID="182" v:groupContext="shape" transform="translate(5.925 -2.25)">
        <path d="M18.45 47.25h-6.08L19.05 54H0v4.42h19.05l-6.83 6.83h6.08l9-9.08-8.85-8.92z" class="st3"/>
      </g>
    </g>
  </g>
</svg>
