<svg xmlns="http://www.w3.org/2000/svg" xmlns:v="http://schemas.microsoft.com/visio/2003/SVGExtensions/" width="84" height="71" viewBox="0 0 63 53.25" color-interpolation-filters="sRGB" fill="none" fill-rule="evenodd" font-size="12" overflow="visible" stroke-linecap="square" stroke-miterlimit="3">
  <v:documentProperties v:langID="4108" v:metric="true" v:viewMarkup="false"/>
  <style>
    .st1,.st2{fill:#fff;stroke:none;stroke-linecap:butt;stroke-width:.75}.st2{fill:#515150}
  </style>
  <g v:mID="0" v:index="1" v:groupContext="foregroundPage">
    <v:pageProperties v:drawingScale=".039" v:pageScale=".039" v:drawingUnits="24" v:shadowOffsetX="8.504" v:shadowOffsetY="-8.504"/>
    <g id="group195-1" transform="translate(.75 -.75)" v:mID="195" v:groupContext="group">
      <g id="group196-2" transform="translate(0 -5.25)" v:mID="196" v:groupContext="group">
        <g id="shape197-3" v:mID="197" v:groupContext="shape">
          <path d="M50.62 27h-.37V6.75H6.75V27h-.38L0 35.25v18h57v-18L50.62 27z" class="st1"/>
        </g>
        <g id="shape198-5" v:mID="198" v:groupContext="shape" transform="translate(9 -19.5)">
          <path class="st2" d="M0 51h39v2.25H0z"/>
        </g>
        <g id="shape199-7" v:mID="199" v:groupContext="shape" transform="translate(9 -24)">
          <path class="st2" d="M0 51h39v2.25H0z"/>
        </g>
        <g id="shape200-9" v:mID="200" v:groupContext="shape" transform="translate(9 -28.5)">
          <path class="st2" d="M0 51h39v2.25H0z"/>
        </g>
        <g id="shape201-11" v:mID="201" v:groupContext="shape" transform="translate(9 -33)">
          <path class="st2" d="M0 51h39v2.25H0z"/>
        </g>
        <g id="shape202-13" v:mID="202" v:groupContext="shape" transform="translate(9 -37.5)">
          <path class="st2" d="M0 51h39v2.25H0z"/>
        </g>
        <g id="shape203-15" v:mID="203" v:groupContext="shape" transform="translate(2.25 -2.25)">
          <path d="M48 32.47v5.78H4.5v-5.78L0 38.25v15h52.5v-15L48 32.47z" class="st2"/>
        </g>
        <g id="shape204-17" v:mID="204" v:groupContext="shape" transform="translate(9 -42)">
          <path class="st2" d="M0 51h39v2.25H0z"/>
        </g>
      </g>
      <g id="group205-19" transform="translate(26.25)" v:mID="205" v:groupContext="group">
        <g id="shape206-20" v:mID="206" v:groupContext="shape">
          <path class="st1" d="M0 24h35.25v29.25H0z"/>
        </g>
        <g id="shape207-22" v:mID="207" v:groupContext="shape" transform="translate(2.25 -2.25)">
          <path d="M0 28.5v24.75h30.75V28.5H0zm29.25 23.25H1.5V30h27.75v21.75z" class="st2"/>
        </g>
        <g id="shape208-24" v:mID="208" v:groupContext="shape" transform="translate(25.5 -18.75)">
          <path class="st2" d="M0 48.75h3.75v4.5H0z"/>
        </g>
        <g id="shape209-26" v:mID="209" v:groupContext="shape" transform="translate(8.25 -12.75)">
          <path class="st2" d="M0 51.75h12.75v1.5H0z"/>
        </g>
        <g id="shape210-28" v:mID="210" v:groupContext="shape" transform="translate(8.25 -9)">
          <path class="st2" d="M0 51.75h16.5v1.5H0z"/>
        </g>
      </g>
    </g>
  </g>
</svg>
