<svg xmlns="http://www.w3.org/2000/svg" xmlns:v="http://schemas.microsoft.com/visio/2003/SVGExtensions/" width="85" height="83" viewBox="0 0 63.75 62.25" color-interpolation-filters="sRGB" fill="none" fill-rule="evenodd" font-size="12" overflow="visible" stroke-linecap="square" stroke-miterlimit="3">
  <v:documentProperties v:langID="4108" v:metric="true" v:viewMarkup="false"/>
  <style>
    .st1,.st2{fill:#fff;stroke:none;stroke-linecap:butt;stroke-width:.75}.st2{fill:#515150}
  </style>
  <g v:mID="0" v:index="1" v:groupContext="foregroundPage">
    <v:pageProperties v:drawingScale=".039" v:pageScale=".039" v:drawingUnits="24" v:shadowOffsetX="8.504" v:shadowOffsetY="-8.504"/>
    <g id="group328-1" transform="translate(.75 -.75)" v:mID="328" v:groupContext="group">
      <g id="group329-2" v:mID="329" v:groupContext="group">
        <g id="group330-3" transform="translate(0 -7.5)" v:mID="330" v:groupContext="group">
          <g id="group331-4" v:mID="331" v:groupContext="group">
            <g id="shape332-5" v:mID="332" v:groupContext="shape">
              <path d="M0 47.25v15h57V44.7l-.45-1.95-3.75-15.68h-1.05V15h-1.5V9H6.75v6h-1.5v12.07H4.2L.45 42.75 0 44.7v2.55z" class="st1"/>
            </g>
            <g id="group333-7" transform="translate(15 -21.75)" v:mID="333" v:groupContext="group">
              <g id="shape334-8" v:mID="334" v:groupContext="shape" transform="translate(23.25 -11.25)">
                <path class="st2" d="M0 55.5h6v6.75H0z"/>
              </g>
              <g id="shape335-10" v:mID="335" v:groupContext="shape" transform="translate(0 -5.25)">
                <path class="st2" d="M0 60h15.75v2.25H0z"/>
              </g>
              <g id="shape336-12" v:mID="336" v:groupContext="shape">
                <path class="st2" d="M0 60h20.25v2.25H0z"/>
              </g>
            </g>
            <g id="shape337-14" v:mID="337" v:groupContext="shape" transform="translate(9 -47.25)">
              <path d="M0 58.5v3.75h2.25v-1.5h34.5v1.5H39V58.5H0z" class="st2"/>
            </g>
          </g>
          <g id="shape338-16" v:mID="338" v:groupContext="shape" transform="translate(2.25 -2.25)">
            <path d="M48.75 31.57h-1.5V19.5h-42v12.07h-1.5L0 47.25v15h52.5v-15l-3.75-15.68zm-3.75 0v15.68H7.5v-25.5H45v9.82z" class="st2"/>
          </g>
        </g>
        <g id="group339-18" transform="translate(29.25)" v:mID="339" v:groupContext="group">
          <g id="shape340-19" v:mID="340" v:groupContext="shape">
            <path d="M21.75 39.75h-9v3l3.37 3.75H0v9h16.12l-3.37 3.75v3h9L33 51 21.75 39.75z" class="st1"/>
          </g>
          <g id="shape341-21" v:mID="341" v:groupContext="shape" transform="translate(2.25 -2.25)">
            <path d="M19.35 51l-6.6-6.75H18l9.6 9-8.85 9h-6l6.6-6.75H0V51h19.35z" class="st2"/>
          </g>
        </g>
      </g>
    </g>
  </g>
</svg>
