<svg xmlns="http://www.w3.org/2000/svg" xmlns:v="http://schemas.microsoft.com/visio/2003/SVGExtensions/" width="108.1" height="70.9" viewBox="0 0 81.075 53.175" color-interpolation-filters="sRGB" fill="none" fill-rule="evenodd" font-size="12" overflow="visible" stroke-linecap="square" stroke-miterlimit="3">
  <v:documentProperties v:langID="4108" v:metric="true" v:viewMarkup="false"/>
  <style>
    .st1,.st4{fill:#fff;stroke:none;stroke-linecap:butt;stroke-width:.75}.st4{fill:#0773b8}
  </style>
  <g v:mID="0" v:index="1" v:groupContext="foregroundPage">
    <v:pageProperties v:drawingScale=".039" v:pageScale=".039" v:drawingUnits="24" v:shadowOffsetX="8.504" v:shadowOffsetY="-8.504"/>
    <g id="group395-1" transform="translate(.75 -.75)" v:mID="395" v:groupContext="group">
      <g id="group396-2" v:mID="396" v:groupContext="group">
        <g id="group397-3" v:mID="397" v:groupContext="group">
          <g id="shape398-4" v:mID="398" v:groupContext="shape">
            <path d="M5.18 53.17C2.33 53.17 0 50.85 0 48V8.92c0-2.85 2.33-5.17 5.18-5.17h39.07c2.85 0 5.18 2.32 5.18 5.17V48c0 2.85-2.33 5.17-5.18 5.17H5.18z" class="st1"/>
          </g>
          <g id="shape399-6" v:mID="399" v:groupContext="shape" transform="translate(2.25 -2.25)">
            <path d="M42 53.17H2.93C1.35 53.17 0 51.82 0 50.25V11.17c0-1.65 1.35-2.92 2.93-2.92H42c1.65 0 2.93 1.35 2.93 2.92v39.08c0 1.57-1.28 2.92-2.93 2.92z" fill="#515050" stroke-linecap="butt" stroke-width=".75"/>
          </g>
        </g>
        <g id="group400-8" transform="translate(11.7 -11.4)" v:mID="400" v:groupContext="group">
          <g id="shape401-9" v:mID="401" v:groupContext="shape">
            <path d="M2.7 53.17c-.68 0-1.42-.3-1.87-.9-.83-1.05-.61-2.55.37-3.45l10.35-9.15L1.2 29.85c-.98-.9-1.12-2.4-.3-3.38.9-1.05 2.47-1.12 3.53-.22l13.12 12.37c.6.6.6 1.58 0 2.1l-.82.75-12.38 11.1c-.45.38-1.05.6-1.65.6z" class="st1"/>
          </g>
          <g id="shape402-11" v:mID="402" v:groupContext="shape" transform="translate(12.375)">
            <path d="M12.23 53.17H1.88A1.85 1.85 0 0 1 0 51.3c0-1.05.82-1.88 1.88-1.88h10.35c1.05 0 1.87.83 1.87 1.88 0 1.05-.82 1.87-1.87 1.87z" class="st1"/>
          </g>
        </g>
      </g>
      <g id="group403-13" transform="translate(49.5 -23.25)" v:mID="403" v:groupContext="group">
        <g id="shape404-14" v:mID="404" v:groupContext="shape">
          <path d="M30.08 39.37c0-4.12-3.38-7.5-7.5-7.5h-.38l-.83-1.05c-.67-.9-1.57-1.42-2.62-1.5v-4.57h-2.4L0 27.3v23.32l16.28 2.55h2.47v-6.45c.37.08.67.08 1.05.08h.38l.82 1.05c.68.97 1.73 1.5 2.85 1.5 1.95 0 3.45-1.58 3.45-3.45 0-.23 0-.45-.08-.68 1.73-1.35 2.86-3.52 2.86-5.85z" class="st1"/>
        </g>
        <g id="shape405-16" v:mID="405" v:groupContext="shape" transform="translate(2.25 -2.175)">
          <path d="M14.25 29.17L0 31.42v19.5l14.25 2.25v-24z" fill="#2372ba" stroke-linecap="butt" stroke-width=".75"/>
        </g>
        <g id="shape406-18" v:mID="406" v:groupContext="shape" transform="translate(7.575 -9.225)">
          <path d="M1.8 43.27l-1.8.08v9.52l4.95.3v-1.95l-3.15-.07v-7.88z" class="st1"/>
        </g>
        <g id="shape407-20" v:mID="407" v:groupContext="shape" transform="translate(17.25 -15.225)">
          <path d="M.9 49.5c-.3.07-.6.22-.9.37v3.3a2.87 2.87 0 0 1 2.55-1.57H5.7l-1.88-2.4-1.5-1.88c-.22-.37-.6-.6-1.05-.6-.67 0-1.19.53-1.19 1.2 0 .23.07.45.15.68l.67.9z" class="st4"/>
        </g>
        <g id="shape408-22" v:mID="408" v:groupContext="shape" transform="translate(17.25 -8.55)">
          <path d="M0 49.2v3.3c.75.37 1.57.67 2.47.67H3l-2.7-3.3c-.07-.22-.23-.45-.3-.67z" class="st4"/>
        </g>
        <g id="shape409-24" v:mID="409" v:groupContext="shape" transform="translate(19.425 -6.075)">
          <path d="M8.4 45.45c0-2.93-2.33-5.25-5.25-5.25h-.52l2.7 3.3c.37.45.67 1.2.67 1.95 0 1.57-1.27 2.85-2.85 2.85H0l1.87 2.4 1.5 1.87c.23.38.6.6 1.05.6.68 0 1.21-.52 1.2-1.2.01-.22-.07-.45-.15-.67l-.67-.9c2.1-.6 3.6-2.63 3.6-4.95z" class="st4"/>
        </g>
      </g>
    </g>
  </g>
</svg>
