<svg xmlns="http://www.w3.org/2000/svg" xmlns:v="http://schemas.microsoft.com/visio/2003/SVGExtensions/" width="113.1" height="67" viewBox="0 0 84.825 50.25" color-interpolation-filters="sRGB" fill="none" fill-rule="evenodd" font-size="12" overflow="visible" stroke-linecap="square" stroke-miterlimit="3">
  <v:documentProperties v:langID="4108" v:metric="true" v:viewMarkup="false"/>
  <style>
    .st1,.st2,.st4{fill:#fff;stroke:none;stroke-linecap:butt;stroke-width:.75}.st2,.st4{fill:#515150}.st4{fill:#0773b8}
  </style>
  <g v:mID="0" v:index="1" v:groupContext="foregroundPage">
    <v:pageProperties v:drawingScale=".039" v:pageScale=".039" v:drawingUnits="24" v:shadowOffsetX="8.504" v:shadowOffsetY="-8.504"/>
    <g id="group357-1" transform="translate(.75 -.75)" v:mID="357" v:groupContext="group">
      <g id="group358-2" v:mID="358" v:groupContext="group">
        <g id="shape359-3" v:mID="359" v:groupContext="shape">
          <path d="M48.08 3.75h-30c-1.73 0-3.3.82-4.28 2.17-.68-.75-1.58-1.35-2.7-1.72-1.2-.37-1.87-.45-3.52-.45-1.66 0-2.33.08-3.53.45C1.65 4.95.22 6.67.08 9.15c-.08.83-.01 1.88.07 3.82.07 2.63.22 6.98.23 14.48-.01 6-.16 9.97-.23 12.52C0 42.15 0 43.5 0 44.7c.15 2.55 1.65 4.35 4.05 5.02 1.2.38 2.25.53 3.37.53 1.21 0 2.41-.15 3.6-.53 1.13-.3 2.1-.9 2.78-1.72.98 1.35 2.47 2.17 4.28 2.17h30a5.21 5.21 0 0 0 5.24-5.25V9a5.21 5.21 0 0 0-5.24-5.25z" class="st1"/>
        </g>
        <g id="shape360-5" v:mID="360" v:groupContext="shape" transform="translate(2.25 -2.25)">
          <path d="M10.65 11.62c-.15-1.64-.98-2.54-2.4-2.99-.9-.31-1.35-.38-2.85-.38-1.57 0-1.95.07-2.85.38-1.42.45-2.33 1.35-2.4 2.99-.15 1.81.3 5.48.3 18.15C.45 40.5 0 44.4.15 46.87c.07 1.65.98 2.63 2.4 3 .82.23 1.72.38 2.7.38.98 0 2.02-.15 3-.38 1.42-.37 2.33-1.35 2.4-3 .15-2.47-.22-6.15-.23-16.87.01-12.67.38-16.57.23-18.38z" class="st2"/>
        </g>
        <g id="shape361-7" v:mID="361" v:groupContext="shape" transform="translate(15.075 -2.25)">
          <path d="M33 8.25H3c-1.65 0-3 1.35-3 3v36c0 1.65 1.35 3 3 3h30c1.65 0 2.93-1.35 2.93-3v-36c0-1.65-1.28-3-2.93-3zM12.75 40.5c0 .45-.3.75-.75.75H8.25c-.45 0-.75-.3-.75-.75V39c0-.45.3-.75.75-.75H12c.45 0 .75.3.75.75v1.5zm0-5.25c0 .45-.3.75-.75.75H8.25c-.45 0-.75-.3-.75-.75v-1.5c0-.45.3-.75.75-.75H12c.45 0 .75.3.75.75v1.5zm0-5.25c0 .45-.3.75-.75.75H8.25c-.45 0-.75-.3-.75-.75v-1.5c0-.45.3-.75.75-.75H12c.45 0 .75.3.75.75V30zm7.5 10.5c0 .45-.3.75-.75.75h-3.75c-.45 0-.75-.3-.75-.75V39c0-.45.3-.75.75-.75h3.75c.45 0 .75.3.75.75v1.5zm0-5.25c0 .45-.3.75-.75.75h-3.75c-.45 0-.75-.3-.75-.75v-1.5c0-.45.3-.75.75-.75h3.75c.45 0 .75.3.75.75v1.5zm0-5.25c0 .45-.3.75-.75.75h-3.75c-.45 0-.75-.3-.75-.75v-1.5c0-.45.3-.75.75-.75h3.75c.45 0 .75.3.75.75V30zm7.5 10.5c0 .45-.3.75-.75.75h-3.75c-.45 0-.75-.3-.75-.75V39c0-.45.3-.75.75-.75H27c.45 0 .75.3.75.75v1.5zm0-5.25c0 .45-.3.75-.75.75h-3.75c-.45 0-.75-.3-.75-.75v-1.5c0-.45.3-.75.75-.75H27c.45 0 .75.3.75.75v1.5zm0-5.25c0 .45-.3.75-.75.75h-3.75c-.45 0-.75-.3-.75-.75v-1.5c0-.45.3-.75.75-.75H27c.45 0 .75.3.75.75V30zM30 21.75c0 .45-.3.75-.75.75H6.75c-.45 0-.83-.3-.82-.75V13.5c-.01-.45.37-.75.82-.75h22.5c.45 0 .75.3.75.75v8.25z" class="st2"/>
        </g>
      </g>
      <g id="group362-9" transform="translate(53.25 -20.25)" v:mID="362" v:groupContext="group">
        <g id="shape363-10" v:mID="363" v:groupContext="shape">
          <path d="M30.07 36.37c0-4.12-3.37-7.5-7.5-7.5h-.37l-.83-1.05c-.67-.9-1.57-1.42-2.62-1.5v-4.57h-2.4L0 24.3v23.32l16.35 2.63h2.4V43.8c.37.07.67.07 1.05.07h.37l.83 1.05a3.4 3.4 0 0 0 2.85 1.5c1.95 0 3.45-1.57 3.45-3.45 0-.22 0-.45-.08-.67 1.8-1.35 2.85-3.53 2.85-5.93z" class="st1"/>
        </g>
        <g id="shape364-12" v:mID="364" v:groupContext="shape" transform="translate(2.25 -2.25)">
          <path d="M14.25 26.25L0 28.5V48l14.25 2.25v-24z" fill="#2372ba" stroke-linecap="butt" stroke-width=".75"/>
        </g>
        <g id="shape365-14" v:mID="365" v:groupContext="shape" transform="translate(7.575 -9.225)">
          <path d="M1.8 40.35l-1.8.07v9.53l4.95.3V48.3l-3.15-.08v-7.87z" class="st1"/>
        </g>
        <g id="shape366-16" v:mID="366" v:groupContext="shape" transform="translate(17.25 -15.225)">
          <path d="M.9 46.57c-.3.08-.6.23-.9.38v3.3a2.88 2.88 0 0 1 2.55-1.58H5.7l-1.88-2.4-1.5-1.87c-.22-.38-.6-.6-1.05-.6-.67 0-1.19.52-1.19 1.2 0 .22.07.45.15.67l.67.9z" class="st4"/>
        </g>
        <g id="shape367-18" v:mID="367" v:groupContext="shape" transform="translate(17.25 -8.55)">
          <path d="M0 46.27v3.3c.75.38 1.58.68 2.48.68H3l-2.7-3.3c-.08-.3-.15-.45-.3-.68z" class="st4"/>
        </g>
        <g id="shape368-20" v:mID="368" v:groupContext="shape" transform="translate(19.425 -6.15)">
          <path d="M8.4 42.52c0-2.92-2.32-5.25-5.25-5.25h-.52l2.69 3.3c.38.45.68 1.2.68 1.95 0 1.58-1.28 2.85-2.85 2.85H0l1.87 2.4 1.5 1.88c.23.37.61.6 1.05.6.68 0 1.21-.53 1.2-1.2.01-.23-.07-.45-.15-.68l-.67-.9c2.1-.6 3.6-2.62 3.6-4.95z" class="st4"/>
        </g>
      </g>
    </g>
  </g>
</svg>
