<svg xmlns="http://www.w3.org/2000/svg" xmlns:v="http://schemas.microsoft.com/visio/2003/SVGExtensions/" width="113.6" height="62.9" viewBox="0 0 85.2 47.175" color-interpolation-filters="sRGB" fill="none" fill-rule="evenodd" font-size="12" overflow="visible" stroke-linecap="square" stroke-miterlimit="3">
  <v:documentProperties v:langID="4108" v:metric="true" v:viewMarkup="false"/>
  <style>
    .st1,.st2,.st4{fill:#fff;stroke:none;stroke-linecap:butt;stroke-width:.75}.st2,.st4{fill:#515251}.st4{fill:#0773b8}
  </style>
  <g v:mID="0" v:index="1" v:groupContext="foregroundPage">
    <v:pageProperties v:drawingScale=".039" v:pageScale=".039" v:drawingUnits="24" v:shadowOffsetX="8.504" v:shadowOffsetY="-8.504"/>
    <g id="group369-1" transform="translate(.75 -.75)" v:mID="369" v:groupContext="group">
      <g id="group370-2" v:mID="370" v:groupContext="group">
        <g id="shape371-3" v:mID="371" v:groupContext="shape" transform="translate(0 -6.75)">
          <path d="M0 47.1v-1.5l.07-.9c.08-1.43.45-4.5.75-5.85.38-1.73 1.05-3.15 2.85-4.2l.53-.3c1.13-.6 1.72-1.05 2.7-1.05.52 0 1.05.15 1.5.37l.22.15.23.23c.22.15.37.3.6.45.15.07.3.15.45.22.37.15.75.23 1.12.23.38 0 .75-.08 1.05-.15.23-.08.38-.15.53-.23l.37-.22h.08c.07-.08.15-.15.22-.23l.15-.15.23-.15c.45-.22.97-.37 1.5-.37.9 0 1.65.45 2.62.97l.53.3c1.8 1.05 2.47 2.4 2.92 4.2.3 1.43.68 4.43.75 5.85l.15 2.4L0 47.1z" class="st1"/>
        </g>
        <g id="shape372-5" v:mID="372" v:groupContext="shape" transform="translate(35.85 -6.75)">
          <path d="M0 47.1l.15-2.4c.08-1.43.45-4.5.75-5.85.37-1.73 1.05-3.15 2.85-4.2l.52-.3c1.13-.6 1.73-1.05 2.7-1.05.53 0 1.05.15 1.5.37l.23.15.22.23c.23.15.38.3.6.45.15.07.3.15.45.22.38.15.75.23 1.13.23.37 0 .75-.08 1.05-.15.22-.08.37-.15.52-.23l.15-.07c.23-.15.38-.23.53-.38l.15-.15.22-.15c.45-.22.98-.37 1.5-.37.9 0 1.65.45 2.63.97l.52.3c1.8 1.05 2.48 2.4 2.93 4.2.3 1.43.67 4.43.75 5.85l.07.9v1.5L0 47.1z" class="st1"/>
        </g>
        <g id="group373-7" transform="translate(18.3 -15.825)" v:mID="373" v:groupContext="group">
          <g id="shape374-8" v:mID="374" v:groupContext="shape">
            <path d="M0 47.17L.15 45c.07-1.43.45-4.43.75-5.85.38-1.73 1.05-3.08 2.78-4.05l.52-.3c1.05-.6 1.73-.98 2.63-.98.52 0 .97.15 1.42.38l.23.15.15.15c.22.22.45.37.67.45.23.15.37.22.53.22.44.15.82.23 1.2.23.37 0 .74-.08 1.12-.23.22-.07.38-.15.53-.22l.07-.08.15-.07c.15-.15.38-.23.53-.38l.15-.15.22-.15c.45-.22.9-.37 1.43-.37.9 0 1.57.37 2.55.97l.52.3c1.8.98 2.4 2.33 2.78 4.05.3 1.43.67 4.43.75 5.85l.15 2.18L0 47.17z" class="st1"/>
          </g>
          <g id="shape375-10" v:mID="375" v:groupContext="shape" transform="translate(2.175 -2.025)">
            <path d="M16.88 41.62c-.3-1.42-.75-2.17-1.8-2.77-1.13-.6-1.73-1.05-2.1-1.05-.15 0-.3.07-.45.07-.3.23-.53.45-.83.68-.07 0-.07.07-.15.07-.3.23-.6.3-.9.45-.6.23-1.2.3-1.8.3-.6 0-1.2-.07-1.8-.3-.3-.07-.6-.22-.9-.45-.37-.22-.67-.45-1.05-.75-.15-.07-.22-.07-.45-.07-.37 0-.83.3-2.1 1.05-1.05.6-1.5 1.35-1.8 2.77-.3 1.28-.6 4.13-.75 5.55h17.63c-.15-1.42-.45-4.27-.75-5.55z" class="st2"/>
          </g>
          <g id="shape376-12" v:mID="376" v:groupContext="shape" transform="translate(4.425 -9.45)">
            <path d="M6.52 47.17C2.92 47.17 0 44.02 0 40.2c0-3.83 2.92-6.98 6.52-6.98 3.61 0 6.53 3.15 6.53 6.98 0 3.82-2.92 6.97-6.53 6.97z" class="st1"/>
          </g>
          <g id="shape377-14" v:mID="377" v:groupContext="shape" transform="translate(6.675 -11.7)">
            <path d="M4.27 47.17C1.88 47.17 0 45 0 42.37c0-2.62 1.95-4.8 4.27-4.8 2.4 0 4.28 2.18 4.28 4.8.07 2.63-1.88 4.8-4.28 4.8z" class="st2"/>
          </g>
        </g>
        <g id="group378-16" transform="translate(2.25 -9)" v:mID="378" v:groupContext="group">
          <g id="shape379-17" v:mID="379" v:groupContext="shape">
            <path d="M16.88 41.62c-.3-1.42-.75-2.17-1.8-2.77-1.13-.6-1.73-1.05-2.1-1.05-.15 0-.3.07-.45.07-.3.23-.53.45-.83.68-.07 0-.07.07-.15.07-.3.23-.6.3-.9.45-.6.23-1.2.3-1.8.3-.6 0-1.2-.07-1.8-.3-.3-.07-.6-.22-.9-.45-.37-.22-.67-.45-1.05-.75-.15-.07-.22-.07-.45-.07-.38 0-.83.3-2.1 1.05-1.05.6-1.5 1.35-1.8 2.77-.3 1.28-.6 4.13-.75 5.55h17.63c-.08-1.42-.45-4.35-.75-5.55z" class="st2"/>
          </g>
          <g id="shape380-19" v:mID="380" v:groupContext="shape" transform="translate(2.325 -7.5)">
            <path d="M6.53 47.17C2.92 47.17 0 44.03 0 40.2c0-3.83 2.92-6.97 6.53-6.97 3.6 0 6.52 3.14 6.52 6.97 0 3.83-2.92 6.97-6.52 6.97z" class="st1"/>
          </g>
          <g id="shape381-21" v:mID="381" v:groupContext="shape" transform="translate(4.575 -9.675)">
            <path d="M4.27 47.17C1.88 47.17 0 45 0 42.37c0-2.62 1.95-4.8 4.27-4.8 2.4 0 4.28 2.18 4.28 4.8 0 2.63-1.95 4.8-4.28 4.8z" class="st2"/>
          </g>
        </g>
        <g id="group382-23" transform="translate(38.25 -9)" v:mID="382" v:groupContext="group">
          <g id="shape383-24" v:mID="383" v:groupContext="shape">
            <path d="M16.88 41.62c-.3-1.42-.75-2.17-1.8-2.77-1.13-.6-1.73-1.05-2.1-1.05-.16 0-.3.07-.45.07-.3.23-.53.45-.83.68-.07 0-.07.07-.15.07-.3.23-.6.3-.9.45-.6.23-1.2.3-1.8.3-.6 0-1.2-.07-1.8-.3-.3-.07-.6-.22-.9-.45-.37-.22-.67-.45-1.05-.75-.15-.07-.22-.07-.45-.07-.38 0-.83.3-2.1 1.05-1.05.6-1.5 1.35-1.8 2.77-.3 1.28-.6 4.13-.75 5.55h17.63c-.15-1.42-.45-4.35-.75-5.55z" class="st2"/>
          </g>
          <g id="shape384-26" v:mID="384" v:groupContext="shape" transform="translate(2.25 -7.5)">
            <path d="M6.53 47.17C2.92 47.17 0 44.03 0 40.2c0-3.83 2.92-6.97 6.53-6.97 3.6 0 6.52 3.14 6.52 6.97 0 3.83-2.92 6.97-6.52 6.97z" class="st1"/>
          </g>
          <g id="shape385-28" v:mID="385" v:groupContext="shape" transform="translate(4.5 -9.675)">
            <path d="M4.27 47.17C1.88 47.17 0 45 0 42.37c0-2.62 1.95-4.8 4.27-4.8 2.41 0 4.28 2.18 4.28 4.8 0 2.63-1.87 4.8-4.28 4.8z" class="st2"/>
          </g>
        </g>
        <g id="shape386-30" v:mID="386" v:groupContext="shape" transform="translate(8.1)">
          <path d="M0 47.17v-5.7l10.57-15.14h20.78l9.9 15.22v5.62H0z" class="st1"/>
        </g>
        <g id="shape387-32" v:mID="387" v:groupContext="shape" transform="translate(10.35 -2.25)">
          <path d="M0 44.47v2.7h36.67v-2.7L27.9 30.83H9.52L0 44.47z" class="st2"/>
        </g>
      </g>
      <g id="group388-34" transform="translate(53.625 -17.25)" v:mID="388" v:groupContext="group">
        <g id="shape389-35" v:mID="389" v:groupContext="shape">
          <path d="M30.07 33.37c0-4.12-3.37-7.5-7.5-7.5h-.37l-.83-1.05c-.67-.9-1.57-1.42-2.62-1.5v-4.57h-2.4L0 21.3v23.32l16.35 2.55h2.4v-6.45c.37.08.67.08 1.05.08h.37l.83 1.05c.67.97 1.73 1.5 2.85 1.5 1.95 0 3.45-1.58 3.45-3.45 0-.22 0-.45-.08-.68 1.8-1.35 2.85-3.52 2.85-5.85z" class="st1"/>
        </g>
        <g id="shape390-37" v:mID="390" v:groupContext="shape" transform="translate(2.25 -2.175)">
          <path d="M14.25 23.17L0 25.42v19.5l14.25 2.25v-24z" fill="#2372ba" stroke-linecap="butt" stroke-width=".75"/>
        </g>
        <g id="shape391-39" v:mID="391" v:groupContext="shape" transform="translate(7.575 -9.225)">
          <path d="M1.8 37.28l-1.8.07v9.52l4.95.3v-1.95l-3.15-.07v-7.87z" class="st1"/>
        </g>
        <g id="shape392-41" v:mID="392" v:groupContext="shape" transform="translate(17.25 -15.225)">
          <path d="M.9 43.5c-.3.08-.6.23-.9.38v3.29a2.87 2.87 0 0 1 2.55-1.57H5.7l-1.88-2.4-1.5-1.87c-.22-.38-.6-.6-1.05-.6-.67 0-1.19.52-1.19 1.2 0 .22.07.45.15.67l.67.9z" class="st4"/>
        </g>
        <g id="shape393-43" v:mID="393" v:groupContext="shape" transform="translate(17.25 -8.55)">
          <path d="M0 43.2v3.3c.75.37 1.57.67 2.47.67H3L.3 43.88c-.07-.23-.15-.45-.3-.68z" class="st4"/>
        </g>
        <g id="shape394-45" v:mID="394" v:groupContext="shape" transform="translate(19.425 -6.075)">
          <path d="M8.4 39.45c0-2.93-2.32-5.25-5.25-5.25h-.52l2.7 3.3c.37.45.67 1.2.67 1.95 0 1.57-1.28 2.85-2.85 2.85H0l1.88 2.4 1.49 1.87c.23.38.61.6 1.05.6.68 0 1.21-.52 1.2-1.2.01-.22-.07-.44-.15-.67l-.67-.9c2.1-.6 3.6-2.63 3.6-4.95z" class="st4"/>
        </g>
      </g>
    </g>
  </g>
</svg>
