<svg xmlns="http://www.w3.org/2000/svg" xmlns:v="http://schemas.microsoft.com/visio/2003/SVGExtensions/" width="95" height="86" viewBox="0 0 71.25 64.5" color-interpolation-filters="sRGB" fill="none" fill-rule="evenodd" font-size="12" overflow="visible" stroke-linecap="square" stroke-miterlimit="3">
  <v:documentProperties v:langID="4108" v:metric="true" v:viewMarkup="false"/>
  <style>
    .st1,.st2,.st4{fill:#fff;stroke:none;stroke-linecap:butt;stroke-width:.75}.st2,.st4{fill:#515150}.st4{fill:#0773b8}
  </style>
  <g v:mID="0" v:index="1" v:groupContext="foregroundPage">
    <v:pageProperties v:drawingScale=".039" v:pageScale=".039" v:drawingUnits="24" v:shadowOffsetX="8.504" v:shadowOffsetY="-8.504"/>
    <g id="group410-1" transform="translate(.75 -.75)" v:mID="410" v:groupContext="group">
      <g id="group411-2" v:mID="411" v:groupContext="group">
        <g id="group412-3" transform="translate(0 -5.475)" v:mID="412" v:groupContext="group">
          <g id="shape413-4" v:mID="413" v:groupContext="shape">
            <path d="M39.75 20.62v35.1C39.08 63.37 27 64.5 19.88 64.5 12.75 64.5.68 63.37 0 55.72v-36.6c0-5.4 9.98-7.87 19.88-7.87 9.9 0 19.87 2.47 19.87 7.87v1.5z" class="st1"/>
          </g>
          <g id="shape414-6" v:mID="414" v:groupContext="shape" transform="translate(2.25 -2.25)">
            <path d="M17.63 29.25c-7.05 0-14.1-1.2-17.63-3.9v32.4c.53 6.22 13.2 6.75 17.63 6.75 4.42 0 17.02-.53 17.62-6.75v-32.4c-3.52 2.7-10.57 3.9-17.62 3.9z" class="st2"/>
          </g>
          <g id="shape415-8" v:mID="415" v:groupContext="shape" transform="translate(2.25 -39.75)">
            <ellipse cx="17.625" cy="58.875" rx="17.625" ry="5.625" class="st2"/>
          </g>
        </g>
        <g id="group416-10" transform="translate(21.825)" v:mID="416" v:groupContext="group">
          <g id="shape417-11" v:mID="417" v:groupContext="shape">
            <path d="M20.85 64.5c-1.2 0-2.33-.75-2.78-1.88l-.67-1.57h-1.28l-.67 1.57c-.37 1.13-1.5 1.88-2.7 1.88-.38 0-.83-.08-1.13-.23l-2.85-1.2c-.75-.3-1.34-.9-1.65-1.65-.3-.75-.3-1.57 0-2.32l.68-1.58-.83-.82-1.57.67c-.37.15-.75.23-1.13.23-1.2 0-2.32-.75-2.77-1.88L.3 52.87c-.3-.75-.3-1.57 0-2.32.3-.75.9-1.35 1.65-1.65l1.57-.68v-1.2l-1.57-.67C1.2 46.05.6 45.45.3 44.7c-.3-.75-.3-1.58 0-2.33l1.2-2.85a3.015 3.015 0 0 1 2.77-1.87c.38 0 .76.07 1.13.22l1.57.68.83-.83-.68-1.57c-.3-.75-.3-1.58 0-2.33.31-.75.9-1.35 1.65-1.65l2.85-1.2c.38-.15.75-.22 1.13-.22 1.2 0 2.33.75 2.77 1.87l.6 1.5h1.28l.6-1.57c.52-1.05 1.65-1.8 2.85-1.8.37 0 .75.07 1.12.22l2.85 1.2c.75.3 1.35.9 1.65 1.65.3.75.3 1.58 0 2.33l-.67 1.57.82.83 1.58-.68c.37-.15.75-.22 1.12-.22 1.2 0 2.33.75 2.78 1.87l1.2 2.85c.3.75.3 1.58 0 2.33s-.9 1.35-1.65 1.65l-1.58.67v1.2l1.58.68c1.57.67 2.25 2.4 1.65 3.97l-1.2 2.85a3.023 3.023 0 0 1-2.78 1.88c-.37 0-.82-.08-1.2-.23l-1.57-.67-.83.82.68 1.58c.3.75.3 1.57 0 2.32-.3.75-.9 1.35-1.65 1.65l-2.85 1.2c-.3.15-.68.23-1.05.23z" class="st1"/>
          </g>
          <g id="shape418-13" v:mID="418" v:groupContext="shape" transform="translate(1.8 -2.1)">
            <path d="M29.1 53.1l-2.4-.98c-.38-.15-.68-.37-.68-.45 0-.07.08-.52.08-.9v-1.95c0-.45-.08-.82-.08-.9 0-.07.3-.3.68-.45l2.4-.97c.37-.15.6-.6.45-1.05l-1.2-2.85c-.15-.38-.6-.6-1.05-.45l-2.4.97c-.38.15-.75.23-.83.15-.07-.07-.29-.37-.6-.75l-1.42-1.35c-.3-.3-.68-.52-.68-.6-.07-.07 0-.37.15-.82l.98-2.4c.15-.38 0-.83-.45-1.05l-2.85-1.2c-.37-.15-.83 0-1.05.45l-.98 2.4c-.14.37-.37.67-.45.67-.07 0-.52-.07-.9-.15 0 0-.37-.07-.97-.07s-.97.07-.98.07c-.45.08-.82.08-.9.15-.07 0-.29-.3-.45-.67l-.97-2.4c-.15-.38-.6-.6-1.05-.45l-2.85 1.2c-.38.15-.6.6-.45 1.05l.97 2.4c.16.37.23.75.16.82-.08.08-.38.3-.68.6L6.22 42.6c-.29.3-.52.67-.6.75-.07.07-.37 0-.82-.15l-2.4-.98c-.37-.15-.83 0-1.05.45l-1.2 2.85c-.15.38 0 .83.45 1.05l2.4.98c.37.15.67.37.67.45 0 .07-.07.52-.07.9v1.95c0 .45.07.82.07.9 0 .07-.3.3-.67.45l-2.18.9c-.37.15-.6.6-.45 1.05L1.57 57c.15.37.6.6 1.05.45l2.4-.98c.38-.15.75-.22.83-.15.08.08.3.38.6.75l1.42 1.35c.3.3.68.53.75.6.08.08 0 .45-.15.83L7.35 62.1c-.15.37 0 .82.45 1.05l2.85 1.2c.37.15.83 0 1.05-.45l.97-2.4c.15-.38.38-.68.45-.68.08 0 .53.08.9.15 0 0 .38.08.98.08s.97-.08.97-.08c.45-.07.83-.07.9-.15.08 0 .3.3.45.68l.98 2.4c.15.37.6.6 1.05.45l2.85-1.2c.37-.15.6-.6.45-1.05l-.98-2.4c-.15-.38-.22-.75-.15-.83.08-.07.38-.3.75-.6l1.43-1.42c.3-.3.52-.68.6-.75.07-.08.37 0 .82.15l2.4.97c.38.15.83 0 1.05-.45l1.2-2.85c-.07-.22-.22-.67-.67-.82zM15 57.45c-4.28 0-7.73-3.45-7.73-7.73C7.27 45.45 10.72 42 15 42c4.27 0 7.72 3.45 7.72 7.72 0 4.28-3.45 7.73-7.72 7.73z" class="st2"/>
          </g>
        </g>
        <g id="group419-15" transform="translate(39.675 -34.5)" v:mID="419" v:groupContext="group">
          <g id="shape420-16" v:mID="420" v:groupContext="shape">
            <path d="M30.07 50.62c0-4.12-3.37-7.5-7.5-7.5h-.37l-.83-1.05c-.67-.9-1.57-1.42-2.62-1.5V36h-2.4L0 38.55v23.32l16.35 2.63h2.4v-6.45c.37.07.67.07 1.05.07h.37l.83 1.05a3.4 3.4 0 0 0 2.85 1.5c1.95 0 3.45-1.57 3.45-3.45 0-.22 0-.45-.08-.67 1.8-1.35 2.85-3.53 2.85-5.93z" class="st1"/>
          </g>
          <g id="shape421-18" v:mID="421" v:groupContext="shape" transform="translate(2.25 -2.25)">
            <path d="M14.25 40.5L0 42.75v19.5l14.25 2.25v-24z" fill="#2172b9" stroke-linecap="butt" stroke-width=".75"/>
          </g>
          <g id="shape422-20" v:mID="422" v:groupContext="shape" transform="translate(7.575 -9.225)">
            <path d="M1.8 54.6l-1.8.07v9.53l4.95.3v-1.95l-3.15-.08V54.6z" class="st1"/>
          </g>
          <g id="shape423-22" v:mID="423" v:groupContext="shape" transform="translate(17.25 -15.225)">
            <path d="M.9 60.82c-.3.08-.6.23-.9.38v3.3a2.88 2.88 0 0 1 2.55-1.58H5.7l-1.88-2.4-1.5-1.87c-.22-.38-.6-.6-1.05-.6-.67 0-1.19.52-1.19 1.2 0 .22.07.45.15.67l.67.9z" class="st4"/>
          </g>
          <g id="shape424-24" v:mID="424" v:groupContext="shape" transform="translate(17.25 -8.55)">
            <path d="M0 60.52v3.3c.75.38 1.57.68 2.55.68h.52L.38 61.2c-.16-.3-.31-.45-.38-.68z" class="st4"/>
          </g>
          <g id="shape425-26" v:mID="425" v:groupContext="shape" transform="translate(19.425 -6.15)">
            <path d="M8.4 56.77c0-2.92-2.33-5.25-5.25-5.25h-.53l2.7 3.3c.38.45.68 1.2.68 1.95 0 1.58-1.28 2.85-2.85 2.85H0l1.87 2.4 1.5 1.88c.23.37.6.6 1.05.6.68 0 1.2-.53 1.2-1.2 0-.23-.07-.45-.15-.68l-.67-.9c2.1-.6 3.6-2.62 3.6-4.95z" class="st4"/>
          </g>
        </g>
      </g>
    </g>
  </g>
</svg>
