<svg xmlns="http://www.w3.org/2000/svg" xmlns:v="http://schemas.microsoft.com/visio/2003/SVGExtensions/" width="85.903" height="83" viewBox="0 0 64.428 62.25" color-interpolation-filters="sRGB" fill="none" fill-rule="evenodd" font-size="12" overflow="visible" stroke-linecap="square" stroke-miterlimit="3">
  <v:documentProperties v:langID="4108" v:metric="true" v:viewMarkup="false"/>
  <style>
    .st1,.st2{fill:#fff;stroke:none;stroke-linecap:butt;stroke-width:.75}.st2{fill:#515150}
  </style>
  <g v:mID="0" v:index="1" v:groupContext="foregroundPage">
    <v:pageProperties v:drawingScale=".039" v:pageScale=".039" v:drawingUnits="24" v:shadowOffsetX="8.504" v:shadowOffsetY="-8.504"/>
    <g id="group476-1" transform="translate(.75 -.75)" v:mID="476" v:groupContext="group">
      <g id="group477-2" v:mID="477" v:groupContext="group">
        <g id="group478-3" transform="translate(0 -7.5)" v:mID="478" v:groupContext="group">
          <g id="group479-4" v:mID="479" v:groupContext="group">
            <g id="shape480-5" v:mID="480" v:groupContext="shape">
              <path d="M0 47.25v15h57V44.7l-.45-1.95-3.75-15.68h-1.05V15h-1.5V9H6.75v6h-1.5v12.07H4.2L.45 42.75 0 44.7v2.55z" class="st1"/>
            </g>
            <g id="group481-7" transform="translate(15 -21.75)" v:mID="481" v:groupContext="group">
              <g id="shape482-8" v:mID="482" v:groupContext="shape" transform="translate(23.25 -11.25)">
                <path class="st2" d="M0 55.5h6v6.75H0z"/>
              </g>
              <g id="shape483-10" v:mID="483" v:groupContext="shape" transform="translate(0 -5.25)">
                <path class="st2" d="M0 60h15.75v2.25H0z"/>
              </g>
              <g id="shape484-12" v:mID="484" v:groupContext="shape">
                <path class="st2" d="M0 60h20.25v2.25H0z"/>
              </g>
            </g>
            <g id="shape485-14" v:mID="485" v:groupContext="shape" transform="translate(9 -47.25)">
              <path d="M0 58.5v3.75h2.25v-1.5h34.5v1.5H39V58.5H0z" class="st2"/>
            </g>
          </g>
          <g id="shape486-16" v:mID="486" v:groupContext="shape" transform="translate(2.25 -2.25)">
            <path d="M48.75 31.57h-1.5V19.5h-42v12.07h-1.5L0 47.25v15h52.5v-15l-3.75-15.68zm-3.75 0v15.68H7.5v-25.5H45v9.82z" class="st2"/>
          </g>
        </g>
        <g id="group487-18" transform="translate(40.425)" v:mID="487" v:groupContext="group">
          <g id="shape488-19" v:mID="488" v:groupContext="shape">
            <path d="M18.37 29.4l-1.72-.9H1.2v5.92l.3 2.48v8.47C.6 45.9 0 46.87 0 48v11.25c0 1.65 1.35 3 3 3h11.62c2.7 0 4.88-2.18 4.88-4.88V42.52c1.87-1.5 3-3.75 3-6.15.07-2.92-1.5-5.62-4.13-6.97z" class="st1"/>
          </g>
          <g id="shape489-21" v:mID="489" v:groupContext="shape" transform="translate(2.325 -2.25)">
            <path d="M3.75 62.25c.45 0 .75-.3.75-.75V50.25c0-.45-.3-.75-.75-.75H3V39l.3-2.48V33H1.2v3.52L1.5 39v10.5H.75c-.45 0-.75.37-.75.75V61.5c0 .45.37.75.75.75h3z" class="st2"/>
          </g>
          <g id="shape490-23" v:mID="490" v:groupContext="shape" transform="translate(9.075 -2.25)">
            <path d="M8.25 33.67v4.58l-2.63 1.5L3 38.25v-4.58c-1.8.98-3 2.85-3 4.95s1.2 4.05 3 4.95v16.05c0 1.43 1.2 2.63 2.62 2.63 1.43 0 2.63-1.2 2.63-2.63V43.57c1.8-.97 3-2.85 3-4.95s-1.2-4.05-3-4.95zM5.62 60.75c-.6 0-1.12-.53-1.12-1.13 0-.6.52-1.12 1.12-1.12.6 0 1.13.52 1.13 1.12 0 .6-.53 1.13-1.13 1.13z" class="st2"/>
          </g>
        </g>
      </g>
    </g>
  </g>
</svg>
