<svg xmlns="http://www.w3.org/2000/svg" xmlns:v="http://schemas.microsoft.com/visio/2003/SVGExtensions/" width="87" height="84" viewBox="0 0 65.25 63" color-interpolation-filters="sRGB" fill="none" fill-rule="evenodd" font-size="12" overflow="visible" stroke-linecap="square" stroke-miterlimit="3">
  <v:documentProperties v:langID="4108" v:metric="true" v:viewMarkup="false"/>
  <style>
    .st1,.st2,.st3{fill:#fff;stroke:none;stroke-linecap:butt;stroke-width:.75}.st2,.st3{fill:#525352}.st3{fill:#515150}
  </style>
  <g v:mID="0" v:index="1" v:groupContext="foregroundPage">
    <v:pageProperties v:drawingScale=".039" v:pageScale=".039" v:drawingUnits="24" v:shadowOffsetX="8.504" v:shadowOffsetY="-8.504"/>
    <g id="group491-1" transform="translate(.75 -.75)" v:mID="491" v:groupContext="group">
      <g id="group492-2" transform="translate(9 -20.25)" v:mID="492" v:groupContext="group">
        <g id="shape493-3" v:mID="493" v:groupContext="shape">
          <path class="st1" d="M0 21.75h51.75V63H0z"/>
        </g>
        <g id="shape494-5" v:mID="494" v:groupContext="shape" transform="translate(2.25 -2.25)">
          <path d="M45 28.5v32.25H2.25V28.5H45zm2.25-2.25H0V63h47.25V26.25z" class="st2"/>
        </g>
      </g>
      <g id="group495-7" transform="translate(4.5 -13.5)" v:mID="495" v:groupContext="group">
        <g id="shape496-8" v:mID="496" v:groupContext="shape">
          <path class="st1" d="M0 21.75h51.75V63H0z"/>
        </g>
        <g id="shape497-10" v:mID="497" v:groupContext="shape" transform="translate(2.25 -2.25)">
          <path d="M45 28.5v32.25H2.25V28.5H45zm2.25-2.25H0V63h47.25V26.25z" class="st2"/>
        </g>
      </g>
      <g id="group498-12" transform="translate(0 -6.75)" v:mID="498" v:groupContext="group">
        <g id="shape499-13" v:mID="499" v:groupContext="shape">
          <path class="st1" d="M0 21.75h51.75V63H0z"/>
        </g>
        <g id="shape500-15" v:mID="500" v:groupContext="shape" transform="translate(38.25 -27)">
          <path class="st3" d="M0 56.25h6V63H0z"/>
        </g>
        <g id="shape501-17" v:mID="501" v:groupContext="shape" transform="translate(11.25 -18)">
          <path class="st3" d="M0 60.75h21V63H0z"/>
        </g>
        <g id="shape502-19" v:mID="502" v:groupContext="shape" transform="translate(11.25 -12)">
          <path class="st3" d="M0 60.75h25.5V63H0z"/>
        </g>
        <g id="shape503-21" v:mID="503" v:groupContext="shape" transform="translate(2.25 -2.25)">
          <path d="M45 28.5v32.25H2.25V28.5H45zm2.25-2.25H0V63h47.25V26.25z" class="st2"/>
        </g>
      </g>
      <g id="group504-23" transform="translate(38.25)" v:mID="504" v:groupContext="group">
        <g id="shape505-24" v:mID="505" v:groupContext="shape">
          <path d="M22.35 51.75l-5.1-5.1V63h-9V46.65l-5.1 5.1H0v-9.22l12.75-12.68L25.5 42.53v9.22h-3.15z" class="st1"/>
        </g>
        <g id="shape506-26" v:mID="506" v:groupContext="shape" transform="translate(2.25 -2.25)">
          <path d="M8.25 43.5L0 51.75v-6.07l10.5-10.43L21 45.68v6.07l-8.25-8.25V63h-4.5V43.5z" class="st3"/>
        </g>
      </g>
    </g>
  </g>
</svg>
