<svg xmlns="http://www.w3.org/2000/svg" xmlns:v="http://schemas.microsoft.com/visio/2003/SVGExtensions/" width="86" height="78" viewBox="0 0 64.5 58.5" color-interpolation-filters="sRGB" fill="none" fill-rule="evenodd" font-size="12" overflow="visible" stroke-linecap="square" stroke-miterlimit="3">
  <v:documentProperties v:langID="4108" v:metric="true" v:viewMarkup="false"/>
  <style>
    .st1,.st2{fill:#fff;stroke:none;stroke-linecap:butt;stroke-width:.75}.st2{fill:#515251}
  </style>
  <g v:mID="0" v:index="1" v:groupContext="foregroundPage">
    <v:pageProperties v:drawingScale=".039" v:pageScale=".039" v:drawingUnits="24" v:shadowOffsetX="8.504" v:shadowOffsetY="-8.504"/>
    <g id="group507-1" transform="translate(.75 -.75)" v:mID="507" v:groupContext="group">
      <g id="group508-2" v:mID="508" v:groupContext="group">
        <g id="group509-3" transform="translate(0 -9)" v:mID="509" v:groupContext="group">
          <g id="shape510-4" v:mID="510" v:groupContext="shape">
            <path d="M54.67 15.82c-.3-3-2.84-5.32-5.92-5.32h-13.5c-2.55 0-4.8.97-6.53 2.55-1.72-1.58-3.9-2.55-6.22-2.55H9c-3.22 0-5.85 2.55-6 5.77-1.8.83-3 1.88-3 3.98V52.5c0 2.92 2.33 5.25 5.25 5.25h19.5c.6.45 1.35.75 2.1.75h4.05c.82 0 1.5-.3 2.1-.75h21c2.93 0 5.25-2.33 5.25-5.25V21c0-2.63-1.95-4.88-4.58-5.18z" class="st1"/>
          </g>
          <g id="shape511-6" v:mID="511" v:groupContext="shape" transform="translate(2.25 -2.25)">
            <path d="M51.75 20.25h-1.5v-1.5c0-2.1-1.65-3.75-3.75-3.75H33c-2.78 0-5.25 1.57-6.53 3.82-1.35-2.25-3.6-3.82-6.22-3.82H6.75C4.65 15 3 16.65 3 18.75v1.5c-1.65 0-3 1.35-3 3v31.5c0 1.65 1.35 3 3 3h20.4c.22.45.67.75 1.2.75h4.05c.53 0 .9-.3 1.2-.75h21.9c1.65 0 3-1.35 3-3v-31.5c0-1.65-1.35-3-3-3zm-18.75-3h13.5c.83 0 1.5.67 1.5 1.5v1.5H28.27c.83-1.8 2.63-3 4.73-3zm-27.75 1.5c0-.83.67-1.5 1.5-1.5h13.5c1.88 0 3.53 1.27 4.42 3H5.25v-1.5z" class="st2"/>
          </g>
          <g id="shape512-8" v:mID="512" v:groupContext="shape" transform="translate(7.5 -5.25)">
            <path d="M0 55.5V21.75c0-.83.68-1.5 1.5-1.5H15c2.93 0 5.25 3.07 5.25 6V58.5c-1.27-1.88-3-3-6-3H0zm42.75 0H28.5c-3 0-4.43 1.12-6 3v-33c0-2.93 2.32-5.25 5.25-5.25h13.5c.82 0 1.5.67 1.5 1.5V55.5z" class="st1"/>
          </g>
          <g id="shape513-10" v:mID="513" v:groupContext="shape" transform="translate(52.5 -29.25)">
            <path d="M.75 50.25H0v8.25h.75c.83 0 1.5-.68 1.5-1.5v-5.25c0-.83-.67-1.5-1.5-1.5z" class="st1"/>
          </g>
          <g id="shape514-12" v:mID="514" v:groupContext="shape" transform="translate(52.5 -19.5)">
            <path d="M.75 50.25H0v8.25h.75c.83 0 1.5-.68 1.5-1.5v-5.25c0-.83-.67-1.5-1.5-1.5z" class="st1"/>
          </g>
          <g id="shape515-14" v:mID="515" v:groupContext="shape" transform="translate(52.5 -9.75)">
            <path d="M.75 50.25H0v8.25h.75c.83 0 1.5-.68 1.5-1.5v-5.25c0-.83-.67-1.5-1.5-1.5z" class="st1"/>
          </g>
          <g id="group516-16" transform="translate(11.475 -24.75)" v:mID="516" v:groupContext="group">
            <g id="shape517-17" v:mID="517" v:groupContext="shape">
              <path d="M12 54.52c-.23-1.05-.53-1.57-1.28-2.02-.82-.45-1.2-.75-1.5-.75-.15 0-.22 0-.3.07-.22.15-.37.3-.6.45-.07 0-.07.08-.07.08-.23.15-.45.22-.68.3-.37.15-.82.22-1.27.22-.45 0-.9-.07-1.28-.22-.22-.08-.45-.15-.67-.3-.3-.15-.53-.3-.75-.53-.08-.07-.23-.07-.3-.07-.3 0-.6.22-1.5.75-.75.45-1.05.97-1.28 2.02-.22.9-.45 3-.52 3.98h12.75c-.3-.98-.53-3.08-.75-3.98z" class="st2"/>
            </g>
            <g id="shape518-19" v:mID="518" v:groupContext="shape" transform="translate(3.075 -6.975)">
              <path d="M3.07 58.5C1.35 58.5 0 56.92 0 55.05c0-1.88 1.42-3.45 3.07-3.45 1.73 0 3.08 1.57 3.08 3.45 0 1.87-1.35 3.45-3.08 3.45z" class="st2"/>
            </g>
          </g>
          <g id="shape519-21" v:mID="519" v:groupContext="shape" transform="translate(11.25 -18.75)">
            <path class="st2" d="M0 56.25h12.75v2.25H0z"/>
          </g>
          <g id="shape520-23" v:mID="520" v:groupContext="shape" transform="translate(11.25 -14.25)">
            <path class="st2" d="M0 56.25h12.75v2.25H0z"/>
          </g>
          <g id="group521-25" transform="translate(33.975 -24.75)" v:mID="521" v:groupContext="group">
            <g id="shape522-26" v:mID="522" v:groupContext="shape">
              <path d="M12 54.52c-.23-1.05-.53-1.57-1.28-2.02-.82-.45-1.2-.75-1.5-.75-.15 0-.22 0-.3.07-.22.15-.37.3-.6.45-.07 0-.07.08-.07.08-.23.15-.45.22-.68.3-.37.15-.82.22-1.27.22-.45 0-.9-.07-1.28-.22-.22-.08-.45-.15-.67-.3-.3-.15-.53-.3-.75-.53-.08-.07-.23-.07-.3-.07-.3 0-.6.22-1.5.75-.75.45-1.05.97-1.28 2.02-.22.9-.45 3-.52 3.98h12.75c-.3-.98-.53-3.08-.75-3.98z" class="st2"/>
            </g>
            <g id="shape523-28" v:mID="523" v:groupContext="shape" transform="translate(3.075 -6.975)">
              <path d="M3.07 58.5C1.35 58.5 0 56.92 0 55.05c0-1.88 1.42-3.45 3.07-3.45 1.73 0 3.08 1.57 3.08 3.45 0 1.87-1.35 3.45-3.08 3.45z" class="st2"/>
            </g>
          </g>
          <g id="shape524-30" v:mID="524" v:groupContext="shape" transform="translate(33.75 -13.5)">
            <path class="st2" d="M0 56.25h12.75v2.25H0z"/>
          </g>
        </g>
        <g id="group525-32" transform="translate(30.75)" v:mID="525" v:groupContext="group">
          <g id="shape526-33" v:mID="526" v:groupContext="shape">
            <path d="M16.12 58.5C7.2 58.5 0 51.3 0 42.37c0-8.92 7.2-16.12 16.12-16.12 8.93 0 16.13 7.2 16.13 16.12 0 8.93-7.2 16.13-16.13 16.13z" class="st1"/>
          </g>
          <g id="shape527-35" v:mID="527" v:groupContext="shape" transform="translate(2.25 -2.25)">
            <path d="M13.87 30.75C6.22 30.75 0 36.97 0 44.62 0 52.27 6.22 58.5 13.87 58.5c7.66 0 13.88-6.23 13.88-13.88s-6.22-13.87-13.88-13.87zM21 45.3l-7.13 7.2-7.12-7.28v-3.97L12 46.5v-9.75h3.75v9.75L21 41.25v4.05z" class="st2"/>
          </g>
        </g>
      </g>
    </g>
  </g>
</svg>
