<svg xmlns="http://www.w3.org/2000/svg" xmlns:v="http://schemas.microsoft.com/visio/2003/SVGExtensions/" width="86.589" height="85.1" viewBox="0 0 64.942 63.825" color-interpolation-filters="sRGB" fill="none" fill-rule="evenodd" font-size="12" overflow="visible" stroke-linecap="square" stroke-miterlimit="3">
  <v:documentProperties v:langID="4108" v:metric="true" v:viewMarkup="false"/>
  <style>
    .st1,.st2{fill:#fff;stroke:none;stroke-linecap:butt;stroke-width:.75}.st2{fill:#525352}
  </style>
  <g v:mID="0" v:index="1" v:groupContext="foregroundPage">
    <v:pageProperties v:drawingScale=".039" v:pageScale=".039" v:drawingUnits="24" v:shadowOffsetX="8.504" v:shadowOffsetY="-8.504"/>
    <g id="group545-1" transform="translate(.75 -.75)" v:mID="545" v:groupContext="group">
      <g id="group546-2" v:mID="546" v:groupContext="group">
        <g id="group547-3" v:mID="547" v:groupContext="group">
          <g id="group548-4" transform="translate(0 -12.15)" v:mID="548" v:groupContext="group">
            <g id="shape549-5" v:mID="549" v:groupContext="shape">
              <path d="M11.02 63.83C4.95 63.83 0 58.65 0 52.28c0-6.23 4.65-11.25 10.43-11.55 1.8-2.1 4.19-3.3 6.89-3.53 1.28-5.77 6.23-10.05 12.01-10.05 3.82 0 7.34 1.88 9.67 5.03 1.05-.3 2.1-.45 3.15-.45 6.6 0 12 5.7 12 12.6 2.7 2.02 4.28 5.25 4.28 8.7 0 4.95-3.16 9.22-7.73 10.42h-.07l-1.5.3h-38.1l-.01.08z" class="st1"/>
            </g>
            <g id="shape550-7" v:mID="550" v:groupContext="shape" transform="translate(2.25 -2.25)">
              <path d="M49.65 47.78c.07-.38.07-.75.08-1.13-.01-5.77-4.35-10.42-9.75-10.42-1.43 0-2.78.3-4.05.97-1.88-3.37-5.18-5.55-8.85-5.55-5.4 0-9.76 4.5-10.13 10.13-.45-.08-.83-.15-1.27-.15-2.55 0-4.96 1.35-6.46 3.52h-.59C3.9 45.23 0 49.43 0 54.53c0 5.1 3.9 9.3 8.77 9.3h37.96l1.2-.23c3.6-.97 6.07-4.35 6.07-8.25 0-3.22-1.72-6.15-4.35-7.57zM47.4 61.43l-.9.15H8.77c-3.6 0-6.52-3.15-6.52-7.05s2.85-7.05 6.45-7.05h.45l1.28.07.75-1.12c1.05-1.65 2.77-2.55 4.57-2.55.3 0 .6 0 .9.07l2.47.45.16-2.55c.22-4.42 3.67-7.95 7.8-7.95 2.77 0 5.4 1.65 6.75 4.35l1.05 1.95 1.95-.97c.97-.45 2.02-.75 3.07-.75 4.13 0 7.5 3.67 7.5 8.17 0 .3 0 .6-.07.9l-.15 1.5 1.35.75c1.94 1.05 3.14 3.23 3.15 5.55.07 2.85-1.73 5.33-4.28 6.08z" class="st2"/>
            </g>
          </g>
          <g id="group551-9" transform="translate(30)" v:mID="551" v:groupContext="group">
            <g id="shape552-10" v:mID="552" v:groupContext="shape">
              <path d="M20.92 63.83a3.02 3.02 0 0 1-2.77-1.88l-.68-1.57H16.2l-.68 1.57c-.44 1.13-1.57 1.88-2.77 1.88-.37 0-.82-.08-1.13-.23l-2.85-1.2c-.74-.3-1.35-.9-1.65-1.65-.29-.75-.29-1.57 0-2.32l.68-1.58-.83-.82-1.57.67c-.37.15-.75.23-1.13.23-1.2 0-2.32-.75-2.77-1.88L.3 52.2c-.3-.75-.3-1.57 0-2.32.3-.75.9-1.35 1.65-1.65l1.57-.68v-1.2l-1.57-.67c-.75-.3-1.35-.9-1.65-1.65-.3-.75-.3-1.58 0-2.33l1.2-2.85a3.015 3.015 0 0 1 2.77-1.87c.38 0 .76.07 1.13.22l1.57.68.83-.83-.68-1.57c-.29-.75-.29-1.58 0-2.33.3-.75.91-1.35 1.65-1.65l2.85-1.2c.38-.15.76-.22 1.13-.22 1.2 0 2.33.75 2.77 1.87l.6 1.5h1.28l.6-1.57A3.009 3.009 0 0 1 20.77 30c.38 0 .76.08 1.13.23l2.85 1.2c.75.3 1.35.9 1.65 1.65.3.75.3 1.57 0 2.32l-.68 1.58.83.82 1.57-.67c.38-.15.76-.23 1.13-.23 1.2 0 2.32.75 2.77 1.88l1.2 2.85c.3.75.3 1.57 0 2.32-.3.75-.89 1.35-1.65 1.65l-1.57.68v1.2l1.57.67c1.58.68 2.25 2.4 1.65 3.98l-1.2 2.85a3.015 3.015 0 0 1-2.77 1.87c-.37 0-.82-.07-1.2-.22l-1.58-.68-.82.83.67 1.57c.3.75.3 1.58 0 2.33s-.89 1.35-1.65 1.65l-2.85 1.2c-.07.22-.52.3-.9.3z" class="st1"/>
            </g>
            <g id="shape553-12" v:mID="553" v:groupContext="shape" transform="translate(2.1 -2.175)">
              <path d="M28.95 52.43l-2.4-.98c-.38-.15-.68-.37-.68-.45 0-.07.08-.52.08-.9v-1.95c0-.45-.08-.82-.08-.9 0-.07.3-.3.68-.45l2.4-.97c.37-.15.6-.6.45-1.05l-1.2-2.85c-.15-.38-.6-.6-1.05-.45l-2.4.97c-.38.15-.75.23-.83.15-.07-.07-.3-.37-.6-.75L21.9 40.5c-.3-.3-.68-.52-.68-.6-.07-.07 0-.37.15-.82l.98-2.4c.15-.38 0-.83-.45-1.05l-2.85-1.2c-.38-.15-.83 0-1.05.45l-.98 2.4c-.14.37-.37.67-.45.67-.07 0-.52-.07-.9-.15 0 0-.37-.07-.97-.07s-.98.07-.98.07c-.45.08-.82.08-.9.15-.07 0-.3-.3-.45-.67l-.97-2.33c-.15-.37-.6-.6-1.05-.45L7.5 35.7c-.37.15-.6.6-.45 1.05l.97 2.4c.15.38.23.75.15.83-.07.07-.37.3-.75.6l-1.2 1.35c-.29.3-.52.67-.6.75-.07.07-.37 0-.82-.15l-2.4-1.05c-.38-.15-.83 0-1.05.45l-1.2 2.85c-.15.37 0 .82.45 1.05l2.4.97c.37.15.67.38.67.45 0 .08-.07.53-.07.9v1.95c0 .45.07.83.07.9 0 .08-.3.3-.67.45l-2.4.98c-.37.15-.6.6-.45 1.05l1.2 2.85c.15.37.6.6.97.45l2.4-.98c.38-.15.76-.22.83-.15.08.08.3.38.6.75l1.42 1.35c.3.3.68.53.75.6.08.08 0 .45-.15.83l-1.05 2.25c-.14.37.01.82.45 1.05l2.85 1.2c.38.15.83 0 1.05-.45l.98-2.4c.15-.38.37-.68.45-.68.07 0 .52.08.9.15 0 0 .37.08.97.08s.98-.08.98-.08c.45-.07.83-.07.9-.15.08 0 .3.3.45.68l.97 2.4c.15.37.6.6 1.05.45l2.85-1.2c.38-.15.6-.6.45-1.05l-.97-2.4c-.15-.38-.23-.75-.15-.83.07-.07.38-.3.75-.6l1.42-1.42c.3-.3.53-.68.6-.75.08-.08.38 0 .83.15l2.4.97c.37.15.82 0 1.05-.45l1.2-2.85c-.08-.22-.23-.67-.6-.82zm-14.18 4.42c-4.27 0-7.72-3.45-7.72-7.72 0-4.28 3.45-7.73 7.72-7.73 4.28 0 7.73 3.45 7.73 7.73 0 4.27-3.45 7.72-7.73 7.72z" class="st2"/>
            </g>
          </g>
          <g id="group554-14" transform="translate(31.5 -30.075)" v:mID="554" v:groupContext="group">
            <g id="shape555-15" v:mID="555" v:groupContext="shape">
              <path d="M27.75 31.58h-24c-2.1 0-3.75 1.64-3.75 3.75v17.25c0 2.1 1.65 3.75 3.75 3.75h9.75v5.25c0 .97.6 1.8 1.5 2.1.23.07.53.15.75.15.68 0 1.28-.3 1.73-.83l5.7-6.67h4.57c2.1 0 3.75-1.65 3.75-3.75V35.33c0-2.11-1.65-3.75-3.75-3.75z" class="st1"/>
            </g>
            <g id="shape556-17" v:mID="556" v:groupContext="shape" transform="translate(2.25 -2.25)">
              <path d="M25.5 36.08h-24c-.82 0-1.5.67-1.5 1.5v17.25c0 .82.68 1.5 1.5 1.5h12v7.5l6.38-7.5h5.62c.83 0 1.5-.68 1.5-1.5V37.58c0-.83-.67-1.5-1.5-1.5z" class="st2"/>
            </g>
          </g>
        </g>
        <g id="group557-19" transform="translate(40.2 -43.05)" v:mID="557" v:groupContext="group">
          <g id="group558-20" transform="translate(.225 -.75)" v:mID="558" v:groupContext="group">
            <g id="shape559-21" v:mID="559" v:groupContext="shape" transform="translate(.375 -3.6)">
              <path d="M.6 63.83c-.37-.83-.6-1.8-.6-2.7 0-.3 0-.6.08-.9.22.45.9 1.12 1.5 1.65.15.07.22.22.37.37-.45.15-.9.38-1.12.53-.38.22-.38.6-.23 1.05z" class="st1"/>
            </g>
            <g id="shape560-23" v:mID="560" v:groupContext="shape">
              <path d="M.75 57.6l.83.83c-.45.22-.6.37-.68.37-.07-.37-.15-.75-.15-1.2zm.23-3.67c-.6 1.05-.98 2.25-.98 3.6 0 2.77 1.65 5.17 4.05 6.3-.75-.75-1.27-1.88-2.17-2.18.15-.3-.9-1.72-.38-2.25.23-.22 1.5-.6 1.5-.6-.15-.3-1.8-1.65-2.1-2.32-.3-.68-.15-1.35-.07-1.8-.15-.23 0-.53.15-.75z" class="st1"/>
            </g>
          </g>
          <g id="group561-25" transform="translate(2.475 -.3)" v:mID="561" v:groupContext="group">
            <g id="group562-26" transform="translate(10.125 -5.25)" v:mID="562" v:groupContext="group">
              <g id="shape563-27" v:mID="563" v:groupContext="shape">
                <path d="M1.27 63.83c.15-.53.15-1.05.15-1.58 0-1.57-.52-3-1.42-4.2.67 1.05 1.65 3.6 1.27 5.78z" class="st1"/>
              </g>
              <g id="shape564-29" v:mID="564" v:groupContext="shape">
                <path d="M0 58.05c.6 1.05 1.65 3.6 1.27 5.78.15-.53.15-1.05.15-1.58 0-1.57-.52-3-1.42-4.2z" class="st1"/>
              </g>
            </g>
            <g id="group565-31" v:mID="565" v:groupContext="group">
              <g id="shape566-32" v:mID="566" v:groupContext="shape" transform="translate(.6 -.15)">
                <path d="M3.83 63.75c.15-.3.22-.67.3-.97.07-.45.22-.83.45-1.2.82-1.2.6-2.18.22-2.63 0-.07-.07-.15-.15-.3-.22-.3-.67-.3-1.05-.3-.3 0-.6 0-.97.08-.23 0-.53.07-.68.07H1.8C0 57 .08 56.55.08 56.48c0 0 .07-.08.22-.08.08 0 .15 0 .23.08.07.45.37.97 1.35 1.35l.22.07.15-.15c.23-.22.15-.6-.07-1.12-.08-.15-.15-.38-.15-.38 0-.3.45-1.2.67-1.35.53 0 .75-.3.98-.45.15-.22.3-.37.9-.37.22 0 .37-.15.52-.45.15-.45.3-1.58-.3-2.1-.22-.23-.52-.38-.82-.38-.53 0-.98.38-1.28.68-.08.07-.15.07-.15.15 0-.08-.07-.15-.07-.23-.16-.37-.3-.6-.53-.75.67-.22 1.35-.3 2.03-.3 1.2 0 2.32.3 3.37.9-.3.15-.52.38-.82.75-.45.6-.53 1.13-.3 1.5.22.38.67.53 1.12.53-.82.6-2.1 1.65-1.95 3 .08.82 1.73 1.42 2.48 1.65.15.67.67 1.87 1.35 2.25a6.592 6.592 0 0 1-5.18 2.55c-.07-.08-.15-.08-.22-.08z" class="st1"/>
              </g>
              <g id="shape567-34" v:mID="567" v:groupContext="shape">
                <path d="M5.63 50.93c.6.07 1.2.3 1.72.52-.15.15-.3.3-.37.53-.15.3-.75 1.12-.38 1.87.15.3.38.45.6.53-.75.67-1.57 1.57-1.42 2.85.07 1.05 1.65 1.65 2.55 1.87.15.6.52 1.5 1.12 2.03-1.05 1.2-2.62 2.02-4.27 2.1.07-.15.07-.3.15-.53.07-.37.15-.75.37-1.05.9-1.27.68-2.4.23-3 0-.15-.08-.22-.15-.37-.3-.38-.83-.45-1.35-.45-.3 0-.68 0-.98.07H3.3l.08-.07c.45-.38.22-.98 0-1.5 0-.08-.08-.23-.08-.3 0-.23.23-.68.38-.9.6-.08.9-.38 1.12-.6.15-.15.23-.23.6-.23.23 0 .6-.07.83-.67.22-.53.37-1.88-.38-2.48l-.22-.22zm-2.03 0c-.07.07-.15.15-.3.22 0-.07-.07-.07-.07-.15.15 0 .3-.07.37-.07zm1.05-.83c-1.27 0-2.47.38-3.45.9.23-.07.38-.15.6-.15.38 0 .75.23.98.83.14.3.07.45.37.45h.08c.3 0 .75-.83 1.42-.83.15 0 .38.08.6.23.53.45.23 1.87 0 1.87-1.35 0-.97.83-1.87.83H3.3c-.38 0-.97 1.27-.97 1.72 0 .23.45 1.13.3 1.2-.68-.3-1.13-.67-1.13-1.2-.07-.15-.37-.22-.6-.22-.22 0-.53.07-.6.22-.3.6.97 1.8 1.88 2.55.07 0 .15.08.3.08.44 0 1.12-.08 1.65-.08.52 0 .9.08.82.38.3.3.68 1.12-.15 2.25-.67.97-.37 2.32-1.27 2.62.37.08.67.08 1.05.08 2.85 0 5.32-1.8 6.37-4.28-.15.3-.3.6-.52.9-.08.15-.23.15-.3.15-.6 0-1.35-1.8-1.35-2.25-.15 0-2.33-.67-2.4-1.35-.15-1.72 2.4-2.92 2.55-3.22 0-.08-.15-.08-.38-.08h-.22c-.75 0-1.8-.07-.83-1.42.38-.53.75-.75 1.05-.75.23 0 .45.07.68.22-1.2-.97-2.78-1.65-4.58-1.65z" class="st1"/>
              </g>
            </g>
          </g>
          <g id="shape568-36" v:mID="568" v:groupContext="shape">
            <path d="M7.13 49.58v.75c3.52 0 6.37 2.85 6.37 6.37 0 1.73-.67 3.3-1.87 4.5-1.2 1.2-2.78 1.88-4.5 1.88-3.53 0-6.38-2.85-6.38-6.38a6.37 6.37 0 0 1 6.38-6.37v-.75zm0 0C3.15 49.58 0 52.8 0 56.7s3.23 7.13 7.13 7.13 7.12-3.23 7.12-7.13-3.22-7.12-7.12-7.12z" class="st1"/>
          </g>
        </g>
      </g>
    </g>
  </g>
</svg>
