<svg xmlns="http://www.w3.org/2000/svg" xmlns:v="http://schemas.microsoft.com/visio/2003/SVGExtensions/" width="86" height="83" viewBox="0 0 64.5 62.25" color-interpolation-filters="sRGB" fill="none" fill-rule="evenodd" font-size="12" overflow="visible" stroke-linecap="square" stroke-miterlimit="3">
  <v:documentProperties v:langID="4108" v:metric="true" v:viewMarkup="false"/>
  <style>
    .st1,.st2{fill:#fff;stroke:none;stroke-linecap:butt;stroke-width:.75}.st2{fill:#515150}
  </style>
  <g v:mID="0" v:index="1" v:groupContext="foregroundPage">
    <v:pageProperties v:drawingScale=".039" v:pageScale=".039" v:drawingUnits="24" v:shadowOffsetX="8.504" v:shadowOffsetY="-8.504"/>
    <g id="group602-1" transform="translate(.75 -.75)" v:mID="602" v:groupContext="group">
      <g id="group603-2" v:mID="603" v:groupContext="group">
        <g id="group604-3" transform="translate(0 -7.5)" v:mID="604" v:groupContext="group">
          <g id="group605-4" v:mID="605" v:groupContext="group">
            <g id="shape606-5" v:mID="606" v:groupContext="shape">
              <path d="M0 47.25v15h57V44.7l-.45-1.95-3.75-15.67h-1.05V15h-1.5V9H6.75v6h-1.5v12.08H4.2L.45 42.75 0 44.7v2.55z" class="st1"/>
            </g>
            <g id="group607-7" transform="translate(15 -21.75)" v:mID="607" v:groupContext="group">
              <g id="shape608-8" v:mID="608" v:groupContext="shape" transform="translate(23.25 -11.25)">
                <path class="st2" d="M0 55.5h6v6.75H0z"/>
              </g>
              <g id="shape609-10" v:mID="609" v:groupContext="shape" transform="translate(0 -5.25)">
                <path class="st2" d="M0 60h15.75v2.25H0z"/>
              </g>
              <g id="shape610-12" v:mID="610" v:groupContext="shape">
                <path class="st2" d="M0 60h20.25v2.25H0z"/>
              </g>
            </g>
            <g id="shape611-14" v:mID="611" v:groupContext="shape" transform="translate(9 -47.25)">
              <path d="M0 58.5v3.75h2.25v-1.5h34.5v1.5H39V58.5H0z" class="st2"/>
            </g>
          </g>
          <g id="shape612-16" v:mID="612" v:groupContext="shape" transform="translate(2.25 -2.25)">
            <path d="M48.75 31.58h-1.5V19.5h-42v12.08h-1.5L0 47.25v15h52.5v-15l-3.75-15.67zm-3.75 0v15.67H7.5v-25.5H45v9.83z" class="st2"/>
          </g>
        </g>
        <g id="group613-18" transform="translate(30)" v:mID="613" v:groupContext="group">
          <g id="shape614-19" v:mID="614" v:groupContext="shape">
            <ellipse cx="16.5" cy="45.75" rx="16.5" ry="16.5" class="st1"/>
          </g>
          <g id="group615-21" transform="translate(2.325 -2.325)" v:mID="615" v:groupContext="group">
            <g id="shape616-22" v:mID="616" v:groupContext="shape" transform="translate(15.075 -14.625)">
              <path d="M5.63 55.05c-1.73.53-3.68.83-5.63.9v6.3c2.4-.07 4.73-.37 6.83-.97-.23-2.25-.6-4.35-1.2-6.23z" class="st2"/>
            </g>
            <g id="shape617-24" v:mID="617" v:groupContext="shape" transform="translate(4.725 -23.775)">
              <path d="M4.5 58.5c-1.65.6-3.15 1.58-4.5 2.7.68.38 1.43.75 2.18 1.05.67-1.42 1.42-2.7 2.32-3.75z" class="st2"/>
            </g>
            <g id="shape618-26" v:mID="618" v:groupContext="shape" transform="translate(8.4 -22.35)">
              <path d="M0 61.43c1.57.45 3.3.75 5.1.82v-6h-.6c-1.8.6-3.38 2.48-4.5 5.18z" class="st2"/>
            </g>
            <g id="shape619-28" v:mID="619" v:groupContext="shape" transform="translate(6.75 -14.625)">
              <path d="M0 61.28c2.1.6 4.43.9 6.83.97v-6.3c-1.95-.07-3.9-.37-5.63-.9C.45 56.93.07 59.03 0 61.28z" class="st2"/>
            </g>
            <g id="shape620-30" v:mID="620" v:groupContext="shape" transform="translate(22.65 -8.4)">
              <path d="M.68 56.33c0 2.1-.23 4.12-.68 5.92 2.03-.75 3.9-1.72 5.48-2.92.22-.98.3-1.95.3-2.93 0-.9-.08-1.8-.23-2.62-1.42.97-3.07 1.72-4.95 2.32.08.15.08.15.08.23z" class="st2"/>
            </g>
            <g id="shape621-32" v:mID="621" v:groupContext="shape" transform="translate(0 -8.25)">
              <path d="M5.17 56.18v-.23c-1.79-.6-3.52-1.42-4.95-2.32-.15.82-.22 1.72-.22 2.62 0 1.2.15 2.33.45 3.38 1.65 1.12 3.45 2.02 5.4 2.62-.45-1.8-.68-3.83-.68-6.07z" class="st2"/>
            </g>
            <g id="shape622-34" v:mID="622" v:groupContext="shape" transform="translate(.675 -16.05)">
              <path d="M3 54.6c-1.35 1.5-2.4 3.3-3 5.33 1.27.97 2.85 1.72 4.58 2.32.15-2.25.52-4.42 1.2-6.22-1.05-.45-1.96-.9-2.78-1.43z" class="st2"/>
            </g>
            <g id="shape623-36" v:mID="623" v:groupContext="shape" transform="translate(14.925 -22.425)">
              <path d="M.07 62.25c1.8-.07 3.53-.37 5.1-.82C4.05 58.8 2.4 56.85.6 56.25H0v6h.07z" class="st2"/>
            </g>
            <g id="shape624-38" v:mID="624" v:groupContext="shape" transform="translate(1.2 -.825)">
              <path d="M5.17 56.62C3.3 56.1 1.58 55.35 0 54.45c1.58 3.6 4.58 6.45 8.33 7.8-1.35-1.35-2.41-3.3-3.16-5.63z" class="st2"/>
            </g>
            <g id="shape625-40" v:mID="625" v:groupContext="shape" transform="translate(19.275 -23.7)">
              <path d="M0 58.43c.9 1.05 1.65 2.32 2.25 3.82.75-.3 1.5-.67 2.18-1.05-1.2-1.2-2.7-2.17-4.43-2.77z" class="st2"/>
            </g>
            <g id="shape626-42" v:mID="626" v:groupContext="shape" transform="translate(22.125 -16.05)">
              <path d="M5.78 59.93a13.82 13.82 0 0 0-3-5.33c-.83.53-1.73.98-2.78 1.43.6 1.87 1.05 3.97 1.2 6.22 1.73-.6 3.23-1.42 4.58-2.32z" class="st2"/>
            </g>
            <g id="shape627-44" v:mID="627" v:groupContext="shape" transform="translate(19.05 -.825)">
              <path d="M3.15 56.47c-.75 2.4-1.8 4.35-3.15 5.78 3.82-1.35 6.9-4.35 8.4-8.18-1.58 1.05-3.3 1.8-5.25 2.4z" class="st2"/>
            </g>
            <g id="shape628-46" v:mID="628" v:groupContext="shape" transform="translate(8.1)">
              <path d="M5.4 62.25v-5.33c-1.87 0-3.67-.22-5.4-.6 1.28 3.23 3.23 5.48 5.4 5.93z" class="st2"/>
            </g>
            <g id="shape629-48" v:mID="629" v:groupContext="shape" transform="translate(15 -6.825)">
              <path d="M6.83 55.05c-2.1.53-4.43.9-6.83.98v6.22c2.03-.07 4.05-.37 6-.9.53-1.95.83-4.12.83-6.3z" class="st2"/>
            </g>
            <g id="shape630-50" v:mID="630" v:groupContext="shape" transform="translate(6.675 -6.9)">
              <path d="M6.83 62.25v-6.22c-2.4-.08-4.73-.38-6.83-.98 0 2.33.38 4.5.9 6.38 1.88.52 3.9.82 5.93.82z" class="st2"/>
            </g>
            <g id="shape631-52" v:mID="631" v:groupContext="shape" transform="translate(15 -.075)">
              <path d="M0 56.93v5.32c2.18-.45 4.2-2.77 5.4-6.07-1.72.45-3.52.67-5.4.75z" class="st2"/>
            </g>
          </g>
        </g>
      </g>
    </g>
  </g>
</svg>
