<svg xmlns="http://www.w3.org/2000/svg" xmlns:v="http://schemas.microsoft.com/visio/2003/SVGExtensions/" width="85.1" height="79" viewBox="0 0 63.825 59.25" color-interpolation-filters="sRGB" fill="none" fill-rule="evenodd" font-size="12" overflow="visible" stroke-linecap="square" stroke-miterlimit="3">
  <v:documentProperties v:langID="4108" v:metric="true" v:viewMarkup="false"/>
  <style>
    .st1{fill:#fff}.st2,.st3{stroke:none;stroke-linecap:butt;stroke-width:.75}.st3{fill:#515251}
  </style>
  <g v:mID="0" v:index="1" v:groupContext="foregroundPage">
    <v:pageProperties v:drawingScale=".039" v:pageScale=".039" v:drawingUnits="24" v:shadowOffsetX="8.504" v:shadowOffsetY="-8.504"/>
    <g id="group664-1" transform="translate(.75 -.75)" v:mID="664" v:groupContext="group">
      <g id="group665-2" transform="translate(0 -11.25)" v:mID="665" v:groupContext="group">
        <g id="shape666-3" v:mID="666" v:groupContext="shape">
          <path d="M0 53.7c.15 2.55 1.65 4.35 4.05 5.03 1.2.37 2.25.52 3.38.52 1.2 0 2.4-.15 3.6-.52 1.12-.3 2.09-.9 2.77-1.73.98 1.35 2.48 2.18 4.28 2.18h30c2.92 0 5.25-2.33 5.25-5.25V18c0-2.92-2.33-5.25-5.25-5.25h-30c-1.73 0-3.3.83-4.28 2.18-.68-.76-1.58-1.35-2.7-1.73-1.2-.37-1.87-.45-3.52-.45-1.73 0-2.33.08-3.6.45-2.4.75-3.83 2.48-3.98 4.95V53.7z" class="st1"/>
          <path d="M0 53.7c.15 2.55 1.65 4.35 4.05 5.03 1.2.37 2.25.52 3.38.52 1.2 0 2.4-.15 3.6-.52 1.12-.3 2.09-.9 2.77-1.73.98 1.35 2.48 2.18 4.28 2.18h30c2.92 0 5.25-2.33 5.25-5.25V18c0-2.92-2.33-5.25-5.25-5.25h-30c-1.73 0-3.3.83-4.28 2.18-.68-.76-1.58-1.35-2.7-1.73-1.2-.37-1.87-.45-3.52-.45-1.73 0-2.33.08-3.6.45-2.4.75-3.83 2.48-3.98 4.95" class="st2"/>
        </g>
        <g id="shape667-6" v:mID="667" v:groupContext="shape" transform="translate(.075 -10.275)">
          <path d="M0 32.25c.07 2.63.22 6.98.22 14.48 0 6-.15 9.97-.22 12.52v-27z" class="st1"/>
          <path d="M0 32.25c.07 2.63.22 6.98.22 14.48 0 6-.15 9.97-.22 12.52" class="st2"/>
        </g>
        <g id="shape668-9" v:mID="668" v:groupContext="shape" transform="translate(2.1 -2.25)">
          <path d="M10.73 20.63c-.15-1.65-.98-2.55-2.4-3-.9-.3-1.35-.38-2.85-.38-1.58 0-1.96.08-2.93.38-1.42.45-2.32 1.35-2.4 3-.15 1.8.3 5.47.3 18.15C.45 49.5 0 53.4.15 55.88c.08 1.65.98 2.62 2.4 3 .9.22 1.8.37 2.78.37.97 0 2.02-.15 3-.37 1.42-.38 2.32-1.35 2.4-3 .15-2.48-.23-6.15-.23-16.88 0-12.67.38-16.57.23-18.37z" class="st3"/>
        </g>
        <g id="shape669-11" v:mID="669" v:groupContext="shape" transform="translate(15.075 -2.25)">
          <path d="M33 17.25H3c-1.65 0-3 1.35-3 3v36c0 1.65 1.35 3 3 3h30c1.65 0 3-1.35 3-3v-36c0-1.65-1.35-3-3-3zM12.75 49.5c0 .45-.3.75-.75.75H8.25c-.45 0-.75-.3-.75-.75V48c0-.45.3-.75.75-.75H12c.45 0 .75.3.75.75v1.5zm0-5.25c0 .45-.3.75-.75.75H8.25c-.45 0-.75-.3-.75-.75v-1.5c0-.45.3-.75.75-.75H12c.45 0 .75.3.75.75v1.5zm0-5.25c0 .45-.3.75-.75.75H8.25c-.45 0-.75-.3-.75-.75v-1.5c0-.45.3-.75.75-.75H12c.45 0 .75.3.75.75V39zm7.5 5.25c0 .45-.3.75-.75.75h-3.75c-.45 0-.75-.3-.75-.75v-1.5c0-.45.3-.75.75-.75h3.75c.45 0 .75.3.75.75v1.5zm0-5.25c0 .45-.3.75-.75.75h-3.75c-.45 0-.75-.3-.75-.75v-1.5c0-.45.3-.75.75-.75h3.75c.45 0 .75.3.75.75V39zm7.5 5.25c0 .45-.3.75-.75.75h-3.75c-.45 0-.75-.3-.75-.75v-1.5c0-.45.3-.75.75-.75H27c.45 0 .75.3.75.75v1.5zm0-5.25c0 .45-.3.75-.75.75h-3.75c-.45 0-.75-.3-.75-.75v-1.5c0-.45.3-.75.75-.75H27c.45 0 .75.3.75.75V39zM30 30.75c0 .45-.3.75-.75.75H6.75c-.45 0-.75-.3-.75-.75V22.5c0-.45.3-.75.75-.75h22.5c.45 0 .75.3.75.75v8.25z" class="st3"/>
        </g>
      </g>
      <g id="group670-13" transform="translate(23.025)" v:mID="670" v:groupContext="group">
        <g id="shape671-14" v:mID="671" v:groupContext="shape">
          <path d="M24 54.45h15.3l-.15-2.4c-.07-1.57-.52-4.95-.82-6.52-.45-1.95-1.13-3.45-3.08-4.5l-.6-.38c-.52-.3-.97-.52-1.42-.75.6-1.12.97-2.4.97-3.75 0-4.2-3.15-7.57-7.05-7.57s-7.05 3.37-7.05 7.57c0 1.35.37 2.63.98 3.75-.46.15-.91.45-1.43.75l-.3.15c0-4.12-3.15-7.5-7.05-7.5s-7.05 3.38-7.05 7.58c0 1.35.38 2.62.98 3.75-.45.15-.9.45-1.43.75l-.52.3c-1.96 1.12-2.63 2.62-3.08 4.5-.37 1.57-.75 4.87-.83 6.52L0 59.25h24.38l-.15-2.4c0-.6-.08-1.42-.23-2.4z" fill="#fff" stroke-linecap="butt" stroke-width=".75"/>
        </g>
        <g id="shape672-16" v:mID="672" v:groupContext="shape" transform="translate(22.275 -17.775)">
          <path d="M4.8 59.25c-2.62 0-4.8-2.4-4.8-5.32C0 51 2.18 48.6 4.8 48.6c2.63 0 4.8 2.4 4.8 5.33 0 2.92-2.17 5.32-4.8 5.32z" class="st3"/>
        </g>
        <g id="shape673-18" v:mID="673" v:groupContext="shape" transform="translate(18 -6.9)">
          <path d="M1.2 53.18c.23.07.38.22.6.37 1.73.98 2.25 2.18 2.7 3.98.07.45.23 1.05.3 1.72h14.1c-.07-1.57-.45-4.72-.82-6.15-.38-1.57-.83-2.4-2.03-3.07-1.2-.68-1.87-1.13-2.32-1.13-.23 0-.38.08-.53.15-.3.3-.6.53-.97.75-.08 0-.15.08-.15.08-.38.22-.68.37-1.05.45-.6.22-1.28.37-2.03.37-.67 0-1.35-.15-2.02-.37-.38-.08-.68-.23-1.05-.45-.38-.23-.76-.53-1.13-.83-.15-.07-.3-.15-.52-.15-.46 0-.9.3-2.33 1.13-1.12.6-1.57 1.35-1.95 2.7.53 0 .83.15 1.2.45z" class="st3"/>
        </g>
        <g id="shape674-20" v:mID="674" v:groupContext="shape" transform="translate(2.25 -2.25)">
          <path d="M18.98 53.1c-.38-1.57-.83-2.4-2.03-3.07-1.2-.68-1.87-1.13-2.32-1.13-.23 0-.38.08-.53.15-.3.3-.6.53-.97.75-.08 0-.15.08-.15.08-.38.22-.68.37-1.05.45-.6.22-1.28.37-2.03.37-.67 0-1.35-.15-2.02-.37-.38-.08-.68-.23-1.05-.45-.38-.23-.75-.53-1.13-.83-.15-.07-.3-.15-.52-.15-.45 0-.9.3-2.33 1.13-1.2.67-1.65 1.42-2.02 3.07-.31 1.43-.68 4.65-.83 6.15h19.58c.07-1.57-.3-4.72-.6-6.15z" class="st3"/>
        </g>
        <g id="shape675-22" v:mID="675" v:groupContext="shape" transform="translate(7.425 -12.975)">
          <path d="M4.8 59.25c-2.62 0-4.8-2.4-4.8-5.32C0 51 2.18 48.6 4.8 48.6c2.63 0 4.8 2.4 4.8 5.33 0 2.92-2.17 5.32-4.8 5.32z" class="st3"/>
        </g>
      </g>
    </g>
  </g>
</svg>
