<svg xmlns="http://www.w3.org/2000/svg" xmlns:v="http://schemas.microsoft.com/visio/2003/SVGExtensions/" width="87" height="81" viewBox="0 0 65.25 60.75" color-interpolation-filters="sRGB" fill="none" fill-rule="evenodd" font-size="12" overflow="visible" stroke-linecap="square" stroke-miterlimit="3">
  <v:documentProperties v:langID="4108" v:metric="true" v:viewMarkup="false"/>
  <style>
    .st3,.st4{fill:#515150;stroke:none;stroke-linecap:butt;stroke-width:.75}.st4{fill:#fff}
  </style>
  <g v:mID="0" v:index="1" v:groupContext="foregroundPage">
    <v:pageProperties v:drawingScale=".039" v:pageScale=".039" v:drawingUnits="24" v:shadowOffsetX="8.504" v:shadowOffsetY="-8.504"/>
    <g id="group719-1" transform="translate(.75 -.75)" v:mID="719" v:groupContext="group">
      <g id="shape720-2" v:mID="720" v:groupContext="shape" transform="translate(0 -6)">
        <path d="M0 60.75h57V43.2l-.45-1.95-3.75-15.67h-1.05V13.5h-1.5v-6H6.75v6h-1.5v12.08H4.2L.45 41.25 0 60.75z" fill="#fff"/>
        <path d="M0 60.75h57V43.2l-.45-1.95-3.75-15.67h-1.05V13.5h-1.5v-6H6.75v6h-1.5v12.08H4.2L.45 41.25" stroke-linecap="butt" stroke-width=".75"/>
      </g>
      <g id="group721-5" transform="translate(15 -27.75)" v:mID="721" v:groupContext="group">
        <g id="shape722-6" v:mID="722" v:groupContext="shape" transform="translate(23.25 -11.25)">
          <path class="st3" d="M0 54h6v6.75H0z"/>
        </g>
        <g id="shape723-8" v:mID="723" v:groupContext="shape" transform="translate(0 -5.25)">
          <path class="st3" d="M0 58.5h15.75v2.25H0z"/>
        </g>
        <g id="shape724-10" v:mID="724" v:groupContext="shape">
          <path class="st3" d="M0 58.5h20.25v2.25H0z"/>
        </g>
      </g>
      <g id="shape725-12" v:mID="725" v:groupContext="shape" transform="translate(9 -53.25)">
        <path d="M0 57v3.75h2.25v-1.5h34.5v1.5H39V57H0z" class="st3"/>
      </g>
      <g id="shape726-14" v:mID="726" v:groupContext="shape" transform="translate(2.25 -8.25)">
        <path d="M48.75 30.08h-1.5V18h-42v12.08h-1.5L0 45.75v15h52.5v-15l-3.75-15.67zm-3.75 0v15.67H7.5v-25.5H45v9.83z" class="st3"/>
      </g>
      <g id="group727-16" transform="translate(31.5)" v:mID="727" v:groupContext="group">
        <g id="shape728-17" v:mID="728" v:groupContext="shape">
          <path d="M16.13 60.75C7.2 60.75 0 53.55 0 44.63 0 35.7 7.2 28.5 16.13 28.5c8.92 0 16.12 7.2 16.12 16.13 0 8.92-7.2 16.12-16.12 16.12z" class="st4"/>
        </g>
        <g id="shape729-19" v:mID="729" v:groupContext="shape" transform="translate(2.25 -2.25)">
          <path d="M13.88 33C6.22 33 0 39.23 0 46.88s6.22 13.87 13.88 13.87c7.65 0 13.87-6.22 13.87-13.87 0-7.65-6.22-13.88-13.87-13.88z" class="st3"/>
        </g>
        <g id="group730-21" transform="translate(5.25 -6.375)" v:mID="730" v:groupContext="group">
          <g id="shape731-22" v:mID="731" v:groupContext="shape" transform="translate(3.375 -13.125)">
            <path d="M9 59.25a2.722 2.722 0 0 0 3.83 0 2.71 2.71 0 0 0 0-3.82 2.722 2.722 0 0 0-3.83 0s-.08.07-.07.07c-.38-.07-.75-.07-1.2-.07-3.38 0-6.23 1.87-7.73 4.65.68.07 1.28.3 1.8.67 1.2-2.02 3.37-3.37 5.85-3.37h.45c.08.67.38 1.35.9 1.87z" class="st4"/>
          </g>
          <g id="shape732-24" v:mID="732" v:groupContext="shape" transform="translate(0 -.975)">
            <path d="M10.2 58.73a6.876 6.876 0 0 1-5.55-4.58c.08-.07.15-.15.22-.22a2.722 2.722 0 0 0 0-3.83 2.71 2.71 0 0 0-3.82 0 2.722 2.722 0 0 0 0 3.83c.52.52 1.13.75 1.8.82a8.8 8.8 0 0 0 7.8 6c-.3-.67-.45-1.27-.45-2.02z" class="st4"/>
          </g>
          <g id="shape733-26" v:mID="733" v:groupContext="shape" transform="translate(11.325)">
            <path d="M8.55 51c0-1.95-.67-3.82-1.8-5.25-.23.53-.52.98-.9 1.35-.07.08-.22.23-.3.3A6.695 6.695 0 0 1 6.6 51c0 1.8-.75 3.45-1.88 4.73-1.04-.9-2.62-.83-3.67.15a2.71 2.71 0 0 0 0 3.82 2.71 2.71 0 0 0 3.82 0c.6-.6.91-1.5.75-2.25A8.53 8.53 0 0 0 8.55 51z" class="st4"/>
          </g>
        </g>
      </g>
    </g>
  </g>
</svg>
