<svg xmlns="http://www.w3.org/2000/svg" xmlns:v="http://schemas.microsoft.com/visio/2003/SVGExtensions/" width="105.3" height="99" viewBox="0 0 78.975 74.25" color-interpolation-filters="sRGB" fill="none" fill-rule="evenodd" font-size="12" overflow="visible" stroke-linecap="square" stroke-miterlimit="3">
  <v:documentProperties v:langID="4108" v:metric="true" v:viewMarkup="false"/>
  <style>
    .st1,.st2,.st3{fill:#fff;stroke:none;stroke-linecap:butt;stroke-width:.75}.st2,.st3{fill:#505050}.st3{fill:#00adeb}
  </style>
  <g v:mID="0" v:index="1" v:groupContext="foregroundPage">
    <v:pageProperties v:drawingScale=".039" v:pageScale=".039" v:drawingUnits="24" v:shadowOffsetX="8.504" v:shadowOffsetY="-8.504"/>
    <v:layer v:name="symbols" v:index="0"/>
    <g id="group762-1" transform="translate(8.1 -6.188)" v:mID="762" v:groupContext="group" v:layerMember="0">
      <g id="group763-2" v:mID="763" v:groupContext="group" v:layerMember="0">
        <g id="group764-3" v:mID="764" v:groupContext="group" v:layerMember="0">
          <g id="group765-4" v:mID="765" v:groupContext="group" v:layerMember="0">
            <g id="shape766-5" v:mID="766" v:groupContext="shape" v:layerMember="0">
              <path d="M3.75 74.25C1.65 74.25 0 72.6 0 70.5V50.25c0-1.8 1.28-3.3 3-3.67V27.9l-.75-5.25V13.5h9v9.15l-.75 5.25v18.68c1.73.37 3 1.79 3 3.67V70.5c0 2.1-1.65 3.75-3.75 3.75h-6z" class="st1"/>
            </g>
            <g id="shape767-7" v:mID="767" v:groupContext="shape" v:layerMember="0" transform="translate(2.25 -2.25)">
              <path d="M7.5 51H6V30l.75-5.25V18h-4.5v6.75L3 30v21H1.58C.68 51 0 51.68 0 52.5v20.25c0 .82.68 1.5 1.5 1.5h6c.83 0 1.5-.68 1.5-1.5V52.5c0-.82-.67-1.5-1.5-1.5z" class="st2"/>
            </g>
          </g>
          <g id="group768-9" transform="translate(16.425 -.075)" v:mID="768" v:groupContext="group" v:layerMember="0">
            <g id="shape769-10" v:mID="769" v:groupContext="shape" v:layerMember="0">
              <path d="M23.03 16.5c-.9-.9-1.95-1.73-3.15-2.32l-1.13-.61h-2.17v10.8l-3 1.95-3-1.95v-10.8H8.4l-1.12.61c-1.28.67-2.33 1.49-3.23 2.32C1.43 19.05 0 22.5 0 26.17c0 3.68 1.43 7.13 3.98 9.68.6.6 1.27 1.28 2.17 1.88V66.9c0 3.97 2.93 7.35 7.5 7.35 1.35 0 3.75-.75 5.1-2.1a7.37 7.37 0 0 0 2.18-5.25V37.8c.75-.52 1.42-1.13 2.17-1.87 2.55-2.63 3.98-6.08 3.98-9.68 0-3.68-1.43-7.12-4.05-9.75z" class="st1"/>
            </g>
            <g id="shape770-12" v:mID="770" v:groupContext="shape" v:layerMember="0" transform="translate(1.125 -2.175)">
              <path d="M7.28 38.7V69.15c0 2.78 2.25 5.1 5.1 5.1 2.77 0 5.17-2.32 5.17-5.1V38.7c1.13-.53 1.88-1.27 2.78-2.17 4.5-4.51 4.42-11.78 0-16.2-.83-.83-1.65-1.43-2.63-1.95v9.37l-5.25 3.45-5.25-3.45v-9.37c-.98.52-1.87 1.12-2.7 1.95-4.5 4.5-4.5 11.69 0 16.2.75.75 1.43 1.34 2.18 1.8l.6.37zm5.17 32.47c-1.12 0-2.02-.89-2.02-2.02a2.025 2.025 0 0 1 4.05 0c0 1.13-.9 2.02-2.03 2.02z" class="st2"/>
            </g>
          </g>
        </g>
        <g id="group771-14" transform="translate(42.75 -36.75)" v:mID="771" v:groupContext="group" v:layerMember="0">
          <g id="shape772-15" v:mID="772" v:groupContext="shape" v:layerMember="0">
            <path d="M17.93 74.25c-1.2 0-2.33-.23-3.38-.75-.45.07-.9.07-1.42.07-6.9 0-12.46-5.62-12.45-12.45-.01-.45-.01-.9.07-1.42C.3 58.65 0 57.45 0 56.32 0 51.75 3.75 48 8.33 48c1.2 0 2.32.22 3.37.75.45-.08.9-.08 1.43-.08 6.9 0 12.45 5.63 12.45 12.45 0 .45 0 .9-.08 1.43.45 1.05.75 2.25.75 3.37 0 4.58-3.75 8.33-8.32 8.33z" class="st1"/>
          </g>
          <g id="shape773-17" v:mID="773" v:groupContext="shape" v:layerMember="0" transform="translate(2.25 -2.25)">
            <path d="M20.93 65.17c.07-.6.15-1.2.15-1.8 0-5.62-4.58-10.2-10.2-10.2-.6 0-1.2.08-1.8.15a6.06 6.06 0 0 0-3-.82A6.05 6.05 0 0 0 0 58.57c0 1.13.3 2.1.83 3-.08.6-.16 1.2-.15 1.8-.01 5.63 4.57 10.2 10.2 10.2.6 0 1.2-.07 1.8-.15.9.53 1.95.83 3 .83 3.37 0 6.07-2.7 6.07-6.08 0-1.12-.3-2.1-.82-3zm-5.25 7.5c-.83 0-1.58-.22-2.25-.6l-.53-.3-.52.08c-.45.07-.98.15-1.5.15-4.8 0-8.7-3.9-8.7-8.7 0-.53.07-1.05.15-1.5l.07-.53-.3-.45c-.37-.67-.6-1.42-.6-2.25 0-2.47 2.03-4.5 4.5-4.5.83 0 1.58.23 2.25.6l.53.3.52-.07c.53-.08.98-.15 1.5-.15 4.8 0 8.7 3.9 8.7 8.7 0 .52-.07 1.05-.15 1.5l-.07.52.3.53c.37.67.6 1.42.6 2.25 0 2.4-2.03 4.42-4.5 4.42z" class="st3"/>
          </g>
          <g id="shape774-19" v:mID="774" v:groupContext="shape" v:layerMember="0" transform="translate(7.95 -6.9)">
            <path d="M7.05 67.05l-2.32-.53c-.9-.22-1.88-.45-1.88-1.35 0-.82.68-1.42 1.95-1.42 2.55 0 2.33 1.8 3.6 1.8.68 0 1.28-.38 1.28-1.05 0-1.58-2.55-2.78-4.73-2.78-2.32 0-4.8.98-4.8 3.6 0 1.28.45 2.63 2.93 3.3l3.07.75c.98.23 1.2.75 1.2 1.28 0 .82-.82 1.65-2.25 1.65-2.77 0-2.4-2.25-3.9-2.25-.68 0-1.2.45-1.2 1.12 0 1.28 1.57 3.08 5.1 3.08 3.3 0 5.03-1.65 5.03-3.83.07-1.35-.6-2.77-3.08-3.37z" class="st3"/>
          </g>
        </g>
      </g>
    </g>
  </g>
</svg>
