<svg xmlns="http://www.w3.org/2000/svg" xmlns:v="http://schemas.microsoft.com/visio/2003/SVGExtensions/" width="120" height="93" viewBox="0 0 90 69.75" color-interpolation-filters="sRGB" fill="none" fill-rule="evenodd" font-size="12" overflow="visible" stroke-linecap="square" stroke-miterlimit="3">
  <v:documentProperties v:langID="4108" v:metric="true" v:viewMarkup="false"/>
  <style>
    .st1,.st2{fill:#fff;stroke:none;stroke-linecap:butt;stroke-width:.75}.st2{fill:#00adeb}
  </style>
  <g v:mID="0" v:index="1" v:groupContext="foregroundPage">
    <v:pageProperties v:drawingScale=".039" v:pageScale=".039" v:drawingUnits="24" v:shadowOffsetX="8.504" v:shadowOffsetY="-8.504"/>
    <v:layer v:name="symbols" v:index="0"/>
    <g id="group808-1" transform="translate(9.938 -9.6)" v:mID="808" v:groupContext="group" v:layerMember="0">
      <g id="group809-2" transform="translate(49.5 -25.425)" v:mID="809" v:groupContext="group" v:layerMember="0">
        <g id="shape810-3" v:mID="810" v:groupContext="shape" v:layerMember="0">
          <path d="M17.93 69.75c-1.2 0-2.33-.22-3.38-.75-.45.07-.9.07-1.42.07-6.9 0-12.45-5.62-12.45-12.44 0-.46 0-.9.07-1.43C.3 54.15 0 52.95 0 51.83c0-4.58 3.75-8.33 8.33-8.33 1.2 0 2.32.23 3.37.75.45-.07.9-.07 1.43-.07 6.9 0 12.45 5.62 12.45 12.45 0 .45 0 .89-.08 1.42.45 1.05.75 2.25.75 3.37 0 4.58-3.75 8.33-8.32 8.33z" class="st1"/>
        </g>
        <g id="shape811-5" v:mID="811" v:groupContext="shape" v:layerMember="0" transform="translate(2.25 -2.25)">
          <path d="M20.93 60.68c.07-.61.15-1.21.15-1.8 0-5.63-4.58-10.2-10.2-10.2-.6 0-1.2.07-1.8.14a6.06 6.06 0 0 0-3-.82C2.7 48 0 50.7 0 54.08c0 1.12.3 2.1.83 3-.08.6-.16 1.2-.15 1.8-.01 5.62 4.57 10.19 10.2 10.19.6 0 1.2-.07 1.8-.15.9.53 1.95.83 3 .83 3.37 0 6.07-2.7 6.07-6.08 0-1.12-.3-2.1-.82-2.99zm-5.25 7.49a4.4 4.4 0 0 1-2.25-.6l-.53-.29-.52.07c-.45.07-.98.15-1.5.15-4.8 0-8.7-3.9-8.7-8.7 0-.52.07-1.05.15-1.5l.07-.52-.3-.45c-.37-.68-.6-1.43-.6-2.25 0-2.48 2.03-4.5 4.5-4.5.83 0 1.58.22 2.25.59l.53.31.52-.08c.53-.07.98-.15 1.5-.15 4.8 0 8.7 3.9 8.7 8.7 0 .52-.07 1.05-.15 1.5l-.07.52.3.53c.37.67.6 1.42.6 2.25 0 2.4-2.03 4.43-4.5 4.42z" class="st2"/>
        </g>
        <g id="shape812-7" v:mID="812" v:groupContext="shape" v:layerMember="0" transform="translate(7.95 -6.9)">
          <path d="M7.05 62.55l-2.32-.53c-.9-.22-1.88-.44-1.88-1.35 0-.82.68-1.42 1.95-1.42 2.55 0 2.33 1.8 3.6 1.8.68 0 1.28-.38 1.28-1.05 0-1.58-2.55-2.78-4.73-2.78-2.32 0-4.8.98-4.8 3.6 0 1.28.45 2.63 2.93 3.3l3.07.75c.98.23 1.2.75 1.2 1.28 0 .83-.82 1.65-2.25 1.65-2.77 0-2.4-2.25-3.9-2.25-.68 0-1.2.45-1.2 1.12 0 1.28 1.57 3.08 5.1 3.08 3.3 0 5.03-1.65 5.03-3.83.07-1.35-.6-2.77-3.08-3.37z" class="st2"/>
        </g>
      </g>
      <g id="group813-9" v:mID="813" v:groupContext="group" v:layerMember="0">
        <g id="group814-10" v:mID="814" v:groupContext="group" v:layerMember="0">
          <g id="shape815-11" v:mID="815" v:groupContext="shape" v:layerMember="0">
            <path d="M5.17 69.75C2.32 69.75 0 67.42 0 64.57V25.5c0-2.85 2.32-5.18 5.17-5.18h39.08c2.85 0 5.17 2.33 5.17 5.18v39.07c0 2.85-2.32 5.18-5.17 5.18H5.17z" class="st1"/>
          </g>
          <g id="shape816-13" v:mID="816" v:groupContext="shape" v:layerMember="0" transform="translate(2.25 -2.25)">
            <path d="M42 69.75H2.92C1.35 69.75 0 68.4 0 66.82V27.75c0-1.65 1.35-2.92 2.92-2.92H42c1.65 0 2.92 1.34 2.92 2.92v39.07c0 1.58-1.27 2.93-2.92 2.93z" fill="#505150" stroke-linecap="butt" stroke-width=".75"/>
          </g>
        </g>
        <g id="group817-15" transform="translate(11.7 -11.4)" v:mID="817" v:groupContext="group" v:layerMember="0">
          <g id="shape818-16" v:mID="818" v:groupContext="shape" v:layerMember="0">
            <path d="M2.7 69.75c-.68 0-1.43-.3-1.88-.9C0 67.8.22 66.3 1.2 65.4l10.35-9.15L1.2 46.43c-.98-.9-1.13-2.4-.3-3.38.9-1.05 2.47-1.12 3.52-.22L17.55 55.2c.6.6.6 1.58 0 2.1l-.83.75-12.37 11.1c-.45.37-1.05.6-1.65.6z" class="st1"/>
          </g>
          <g id="shape819-18" v:mID="819" v:groupContext="shape" v:layerMember="0" transform="translate(12.375)">
            <path d="M12.22 69.75H1.87C.82 69.75 0 68.93 0 67.88 0 66.83.82 66 1.87 66h10.35c1.05 0 1.88.83 1.88 1.88 0 1.05-.83 1.87-1.88 1.87z" class="st1"/>
          </g>
        </g>
      </g>
    </g>
  </g>
</svg>
