<svg xmlns="http://www.w3.org/2000/svg" xmlns:v="http://schemas.microsoft.com/visio/2003/SVGExtensions/" width="120" height="78" viewBox="0 0 90 58.5" color-interpolation-filters="sRGB" fill="none" fill-rule="evenodd" font-size="12" overflow="visible" stroke-linecap="square" stroke-miterlimit="3">
  <v:documentProperties v:langID="4108" v:metric="true" v:viewMarkup="false"/>
  <style>
    .st1,.st2,.st3{fill:#fff;stroke:none;stroke-linecap:butt;stroke-width:.75}.st2,.st3{fill:#00adeb}.st3{fill:#505050}
  </style>
  <g v:mID="0" v:index="1" v:groupContext="foregroundPage">
    <v:pageProperties v:drawingScale=".039" v:pageScale=".039" v:drawingUnits="24" v:shadowOffsetX="8.504" v:shadowOffsetY="-8.504"/>
    <v:layer v:name="symbols" v:index="0"/>
    <g id="group784-1" transform="translate(6.469 -8.475)" v:mID="784" v:groupContext="group" v:layerMember="0">
      <g id="group785-2" v:mID="785" v:groupContext="group" v:layerMember="0">
        <g id="group786-3" transform="translate(51.45 -18.675)" v:mID="786" v:groupContext="group" v:layerMember="0">
          <g id="shape787-4" v:mID="787" v:groupContext="shape" v:layerMember="0">
            <path d="M17.93 58.5c-1.2 0-2.33-.22-3.38-.75-.45.07-.9.07-1.42.07C6.23 57.82.68 52.2.68 45.38c0-.46 0-.9.07-1.43C.3 42.9 0 41.7 0 40.58c0-4.58 3.75-8.33 8.33-8.33 1.19 0 2.32.23 3.37.75.45-.07.9-.07 1.43-.07 6.9 0 12.45 5.62 12.45 12.45 0 .45 0 .89-.08 1.42.45 1.05.75 2.25.75 3.37 0 4.58-3.75 8.33-8.32 8.33z" class="st1"/>
          </g>
          <g id="shape788-6" v:mID="788" v:groupContext="shape" v:layerMember="0" transform="translate(2.25 -2.25)">
            <path d="M20.93 49.43c.07-.61.15-1.21.15-1.8 0-5.63-4.58-10.2-10.2-10.2-.6 0-1.2.07-1.8.15-.9-.53-1.95-.83-3-.83-3.38 0-6.08 2.7-6.08 6.08 0 1.12.3 2.1.83 3-.08.6-.16 1.2-.16 1.8 0 5.62 4.58 10.19 10.21 10.19.6 0 1.2-.07 1.8-.15.9.53 1.95.83 3 .83 3.37 0 6.07-2.7 6.07-6.08 0-1.12-.3-2.1-.82-2.99zm-5.25 7.49a4.4 4.4 0 0 1-2.25-.6l-.53-.29-.52.07c-.45.07-.98.15-1.5.15-4.8 0-8.7-3.9-8.7-8.7 0-.52.07-1.05.15-1.5l.07-.52-.3-.45c-.37-.68-.6-1.43-.6-2.25 0-2.48 2.03-4.5 4.5-4.5.83 0 1.58.22 2.25.59l.53.31.52-.08c.52-.07.98-.15 1.5-.15 4.8 0 8.7 3.9 8.7 8.7 0 .52-.07 1.05-.15 1.5l-.07.52.3.53c.37.67.6 1.42.6 2.25 0 2.4-2.03 4.42-4.5 4.42z" class="st2"/>
          </g>
          <g id="shape789-8" v:mID="789" v:groupContext="shape" v:layerMember="0" transform="translate(7.95 -6.9)">
            <path d="M7.05 51.3l-2.32-.53c-.9-.22-1.88-.44-1.88-1.35 0-.82.68-1.42 1.95-1.42 2.55 0 2.33 1.8 3.6 1.8.68 0 1.28-.38 1.28-1.05 0-1.58-2.55-2.78-4.73-2.78-2.32 0-4.8.98-4.8 3.6 0 1.28.45 2.63 2.93 3.3l3.07.75c.98.23 1.2.75 1.2 1.28 0 .83-.82 1.65-2.25 1.65-2.77 0-2.4-2.25-3.9-2.25-.68 0-1.2.45-1.2 1.12 0 1.28 1.57 3.08 5.1 3.08 3.3 0 5.03-1.65 5.03-3.83.07-1.35-.6-2.77-3.08-3.37z" class="st2"/>
          </g>
        </g>
        <g id="group790-10" v:mID="790" v:groupContext="group" v:layerMember="0">
          <g id="shape791-11" v:mID="791" v:groupContext="shape" v:layerMember="0" transform="translate(0 -6.75)">
            <path d="M0 58.42v-1.5l.08-.9c.07-1.42.45-4.49.75-5.85.37-1.72 1.04-3.15 2.85-4.2l.52-.3c1.13-.6 1.72-1.05 2.7-1.05.52 0 1.05.15 1.5.38l.23.15.22.22c.22.15.37.3.6.45.15.08.3.15.45.23.38.15.75.22 1.13.22.37 0 .75-.07 1.05-.15.22-.07.37-.15.52-.22l.38-.23h.07c.08-.07.15-.15.23-.22l.15-.15.22-.15c.45-.23.98-.38 1.5-.38.9 0 1.65.45 2.63.98l.52.3c1.8 1.05 2.48 2.4 2.93 4.2.29 1.42.67 4.42.75 5.85l.15 2.4L0 58.42z" class="st1"/>
          </g>
          <g id="shape792-13" v:mID="792" v:groupContext="shape" v:layerMember="0" transform="translate(35.85 -6.75)">
            <path d="M0 58.42l.15-2.4c.08-1.42.45-4.49.75-5.85.38-1.72 1.05-3.15 2.85-4.2l.53-.3c1.12-.6 1.72-1.05 2.7-1.05.52 0 1.05.15 1.5.38l.22.15.23.22c.22.15.37.3.6.45.15.08.3.15.45.23.37.15.74.22 1.12.22.38 0 .75-.07 1.05-.15.22-.07.37-.15.53-.22l.15-.08c.22-.15.37-.22.52-.37l.15-.15.23-.15c.44-.23.97-.38 1.5-.38.89 0 1.65.45 2.62.98l.53.3c1.8 1.05 2.47 2.4 2.92 4.2.3 1.42.68 4.42.75 5.85l.08.9v1.5L0 58.42z" class="st1"/>
          </g>
          <g id="group793-15" transform="translate(18.3 -15.825)" v:mID="793" v:groupContext="group" v:layerMember="0">
            <g id="shape794-16" v:mID="794" v:groupContext="shape" v:layerMember="0">
              <path d="M0 58.5l.15-2.18C.22 54.9.6 51.9.9 50.47c.38-1.72 1.05-3.07 2.78-4.05l.52-.3c1.05-.59 1.73-.97 2.63-.97.52 0 .97.15 1.42.37l.23.15.15.15c.22.23.45.38.67.45.23.15.38.23.53.23.45.15.82.22 1.2.22.37 0 .75-.07 1.12-.22.23-.08.38-.15.53-.23l.07-.07.15-.08c.15-.15.38-.22.53-.37l.15-.15.22-.15c.45-.23.9-.38 1.43-.38.9 0 1.57.38 2.55.98l.52.3c1.8.97 2.4 2.33 2.78 4.05.3 1.43.67 4.42.75 5.85l.15 2.17L0 58.5z" class="st1"/>
            </g>
            <g id="shape795-18" v:mID="795" v:groupContext="shape" v:layerMember="0" transform="translate(2.175 -2.025)">
              <path d="M16.88 52.95c-.3-1.43-.75-2.18-1.8-2.78-1.13-.6-1.73-1.05-2.1-1.05-.15 0-.3.08-.45.08-.3.22-.53.45-.83.67-.07 0-.07.08-.15.08-.3.22-.6.3-.9.45-.6.22-1.2.3-1.8.3-.6 0-1.2-.08-1.8-.3-.3-.08-.6-.23-.9-.45-.37-.23-.67-.45-1.05-.75-.15-.08-.22-.08-.45-.08-.37 0-.83.3-2.1 1.05-1.05.6-1.5 1.35-1.8 2.78-.3 1.27-.6 4.12-.75 5.55h17.63c-.15-1.43-.45-4.28-.75-5.55z" class="st3"/>
            </g>
            <g id="shape796-20" v:mID="796" v:groupContext="shape" v:layerMember="0" transform="translate(4.425 -9.45)">
              <path d="M6.53 58.5C2.92 58.5 0 55.35 0 51.52c0-3.82 2.92-6.97 6.53-6.97 3.6 0 6.52 3.15 6.52 6.97 0 3.83-2.92 6.98-6.52 6.98z" class="st1"/>
            </g>
            <g id="shape797-22" v:mID="797" v:groupContext="shape" v:layerMember="0" transform="translate(6.675 -11.7)">
              <path d="M4.28 58.5C1.88 58.5 0 56.32 0 53.7c0-2.63 1.95-4.8 4.28-4.8 2.4 0 4.27 2.17 4.27 4.8.08 2.62-1.87 4.8-4.27 4.8z" class="st3"/>
            </g>
          </g>
          <g id="group798-24" transform="translate(2.25 -9)" v:mID="798" v:groupContext="group" v:layerMember="0">
            <g id="shape799-25" v:mID="799" v:groupContext="shape" v:layerMember="0">
              <path d="M16.88 52.95c-.3-1.42-.75-2.18-1.8-2.78-1.13-.59-1.73-1.05-2.1-1.05-.15.01-.3.08-.45.08-.3.22-.53.45-.83.67-.07.01-.07.08-.15.08-.3.22-.6.3-.9.45-.6.22-1.2.3-1.8.3-.6 0-1.2-.08-1.8-.3-.3-.08-.6-.23-.9-.45-.37-.22-.67-.45-1.05-.75-.15-.08-.22-.07-.45-.08-.37.01-.83.3-2.1 1.05-1.05.61-1.5 1.36-1.8 2.78-.3 1.27-.6 4.12-.75 5.55h17.63c-.08-1.43-.45-4.35-.75-5.55z" class="st3"/>
            </g>
            <g id="shape800-27" v:mID="800" v:groupContext="shape" v:layerMember="0" transform="translate(2.325 -7.5)">
              <path d="M6.53 58.5C2.92 58.5 0 55.35 0 51.53c0-3.83 2.92-6.98 6.53-6.98 3.6 0 6.52 3.15 6.52 6.98 0 3.82-2.92 6.97-6.52 6.97z" class="st1"/>
            </g>
            <g id="shape801-29" v:mID="801" v:groupContext="shape" v:layerMember="0" transform="translate(4.575 -9.675)">
              <path d="M4.28 58.5C1.88 58.5 0 56.32 0 53.7c0-2.62 1.95-4.8 4.28-4.8 2.4 0 4.27 2.18 4.27 4.8 0 2.62-1.95 4.8-4.27 4.8z" class="st3"/>
            </g>
          </g>
          <g id="group802-31" transform="translate(38.25 -9)" v:mID="802" v:groupContext="group" v:layerMember="0">
            <g id="shape803-32" v:mID="803" v:groupContext="shape" v:layerMember="0">
              <path d="M16.88 52.95c-.3-1.42-.75-2.18-1.8-2.78-1.13-.59-1.73-1.05-2.1-1.05-.15.01-.3.08-.45.08-.3.22-.53.45-.83.67-.07.01-.07.08-.15.08-.3.22-.6.3-.9.45-.6.22-1.2.3-1.8.3-.6 0-1.2-.08-1.8-.3-.3-.08-.6-.23-.9-.45-.37-.22-.67-.45-1.05-.75-.15-.08-.22-.07-.45-.08-.37.01-.83.3-2.1 1.05-1.05.61-1.5 1.36-1.8 2.78-.3 1.27-.6 4.12-.75 5.55h17.63c-.15-1.43-.45-4.35-.75-5.55z" class="st3"/>
            </g>
            <g id="shape804-34" v:mID="804" v:groupContext="shape" v:layerMember="0" transform="translate(2.25 -7.5)">
              <path d="M6.53 58.5C2.92 58.5 0 55.35 0 51.53c0-3.83 2.92-6.98 6.53-6.98 3.6 0 6.52 3.15 6.52 6.98 0 3.82-2.92 6.97-6.52 6.97z" class="st1"/>
            </g>
            <g id="shape805-36" v:mID="805" v:groupContext="shape" v:layerMember="0" transform="translate(4.5 -9.675)">
              <path d="M4.28 58.5C1.87 58.5 0 56.32 0 53.7c0-2.62 1.95-4.8 4.28-4.8 2.4 0 4.27 2.18 4.27 4.8 0 2.62-1.87 4.8-4.27 4.8z" class="st3"/>
            </g>
          </g>
          <g id="shape806-38" v:mID="806" v:groupContext="shape" v:layerMember="0" transform="translate(8.1)">
            <path d="M0 58.5v-5.7l10.58-15.15h20.77l9.9 15.23v5.62H0z" class="st1"/>
          </g>
          <g id="shape807-40" v:mID="807" v:groupContext="shape" v:layerMember="0" transform="translate(10.35 -2.25)">
            <path d="M0 55.8v2.7h36.68v-2.7L27.9 42.15H9.53L0 55.8z" class="st3"/>
          </g>
        </g>
      </g>
    </g>
  </g>
</svg>
