<svg xmlns="http://www.w3.org/2000/svg" xmlns:v="http://schemas.microsoft.com/visio/2003/SVGExtensions/" width="124.5" height="97.5" viewBox="0 0 93.375 73.125" color-interpolation-filters="sRGB" fill="none" fill-rule="evenodd" font-size="12" overflow="visible" stroke-linecap="square" stroke-miterlimit="3">
  <v:documentProperties v:langID="4108" v:metric="true" v:viewMarkup="false"/>
  <style>
    .st1,.st2,.st3{fill:#fff;stroke:none;stroke-linecap:butt;stroke-width:.75}.st2,.st3{fill:#00adeb}.st3{fill:#505150}
  </style>
  <g v:mID="0" v:index="1" v:groupContext="foregroundPage">
    <v:pageProperties v:drawingScale=".039" v:pageScale=".039" v:drawingUnits="24" v:shadowOffsetX="8.504" v:shadowOffsetY="-8.504"/>
    <v:layer v:name="symbols" v:index="0"/>
    <g id="group832-1" transform="translate(7.303 -8.85)" v:mID="832" v:groupContext="group" v:layerMember="0">
      <g id="group833-2" transform="translate(57.75 -29.175)" v:mID="833" v:groupContext="group" v:layerMember="0">
        <g id="shape834-3" v:mID="834" v:groupContext="shape" v:layerMember="0">
          <path d="M17.93 73.12c-1.2 0-2.33-.22-3.38-.75-.45.08-.9.08-1.42.08C6.23 72.45.68 66.82.68 60c0-.45 0-.9.07-1.42C.3 57.53 0 56.33 0 55.2c0-4.58 3.75-8.32 8.33-8.32 1.19 0 2.32.22 3.37.75.45-.08.9-.08 1.43-.08 6.89 0 12.44 5.62 12.45 12.45-.01.45-.01.9-.08 1.42.45 1.05.75 2.26.75 3.38 0 4.58-3.75 8.32-8.32 8.32z" class="st1"/>
        </g>
        <g id="shape835-5" v:mID="835" v:groupContext="shape" v:layerMember="0" transform="translate(2.25 -2.25)">
          <path d="M20.93 64.05c.07-.6.15-1.2.15-1.8 0-5.62-4.58-10.2-10.2-10.2-.6 0-1.2.07-1.8.15-.9-.52-1.96-.83-3-.83-3.38 0-6.08 2.7-6.08 6.08 0 1.12.3 2.1.82 3-.07.6-.15 1.2-.15 1.8 0 5.62 4.58 10.2 10.21 10.2.59 0 1.19-.08 1.8-.15.89.52 1.95.82 3 .82 3.37 0 6.07-2.69 6.07-6.07 0-1.12-.3-2.1-.82-3zm-5.25 7.5c-.83 0-1.58-.23-2.25-.6l-.53-.3-.53.07c-.44.08-.97.15-1.49.15-4.8 0-8.7-3.9-8.71-8.7.01-.52.08-1.04.16-1.5l.07-.52-.3-.45c-.38-.68-.6-1.43-.6-2.25 0-2.48 2.02-4.5 4.5-4.5.83 0 1.58.23 2.25.6l.52.3.53-.07c.52-.08.98-.16 1.5-.16 4.8.01 8.7 3.91 8.7 8.7 0 .53-.08 1.05-.15 1.5l-.07.53.3.52c.37.68.6 1.43.6 2.25-.01 2.41-2.03 4.43-4.5 4.43z" class="st2"/>
        </g>
        <g id="shape836-7" v:mID="836" v:groupContext="shape" v:layerMember="0" transform="translate(7.95 -6.9)">
          <path d="M7.05 65.92l-2.32-.52c-.9-.23-1.88-.45-1.88-1.35 0-.83.68-1.43 1.95-1.43 2.55 0 2.32 1.8 3.6 1.8.68.01 1.28-.37 1.28-1.05 0-1.57-2.56-2.77-4.73-2.77-2.32 0-4.8.97-4.8 3.6 0 1.27.45 2.62 2.93 3.3l3.07.75c.97.22 1.2.75 1.2 1.27 0 .83-.82 1.65-2.25 1.65-2.77.01-2.4-2.24-3.9-2.25-.67.01-1.2.45-1.2 1.13 0 1.27 1.57 3.08 5.1 3.08 3.3 0 5.03-1.66 5.03-3.83.07-1.35-.6-2.78-3.08-3.38z" class="st2"/>
        </g>
      </g>
      <g id="group837-9" v:mID="837" v:groupContext="group" v:layerMember="0">
        <g id="group838-10" transform="translate(0 -8.175)" v:mID="838" v:groupContext="group" v:layerMember="0">
          <g id="shape839-11" v:mID="839" v:groupContext="shape" v:layerMember="0">
            <path d="M5.25 73.12C2.32 73.12 0 70.8 0 67.87v-34.5c0-2.92 2.32-5.25 5.25-5.25H52.5c2.92.01 5.25 2.33 5.25 5.25v34.5c0 2.93-2.33 5.25-5.25 5.25H5.25z" class="st1"/>
          </g>
          <g id="shape840-13" v:mID="840" v:groupContext="shape" v:layerMember="0" transform="translate(2.25 -2.25)">
            <path d="M50.25 32.62H3c-1.65.01-3 1.35-3 3v34.5c0 1.66 1.35 3 3 3h47.25c1.65 0 3-1.34 3-3v-34.5c0-1.65-1.35-3-3-3zm-6 2.25h2.25v2.25h-2.25v-2.25zm-4.5 0H42v2.25h-2.25v-2.25zM51 70.12c0 .45-.3.75-.75.75H3c-.45 0-.75-.3-.75-.75v-30H51v30zm0-33h-2.25v-2.25H51v2.25z" class="st3"/>
          </g>
        </g>
        <g id="group841-15" transform="translate(27.6)" v:mID="841" v:groupContext="group" v:layerMember="0">
          <g id="shape842-16" v:mID="842" v:groupContext="shape" v:layerMember="0">
            <ellipse cx="16.5" cy="56.625" rx="16.5" ry="16.5" class="st1"/>
          </g>
          <g id="group843-18" transform="translate(2.325 -2.325)" v:mID="843" v:groupContext="group" v:layerMember="0">
            <g id="shape844-19" v:mID="844" v:groupContext="shape" v:layerMember="0" transform="translate(15 -14.55)">
              <path d="M5.63 65.93c-1.73.52-3.68.82-5.63.9v6.29c2.4-.07 4.73-.37 6.83-.97-.15-2.32-.53-4.42-1.2-6.22z" class="st3"/>
            </g>
            <g id="shape845-21" v:mID="845" v:groupContext="shape" v:layerMember="0" transform="translate(4.725 -23.775)">
              <path d="M4.5 69.38c-1.65.6-3.15 1.57-4.5 2.7.68.37 1.43.74 2.18 1.04.6-1.42 1.42-2.69 2.32-3.74z" class="st3"/>
            </g>
            <g id="shape846-23" v:mID="846" v:groupContext="shape" v:layerMember="0" transform="translate(8.325 -22.35)">
              <path d="M0 72.3c1.57.45 3.3.75 5.1.82v-5.99h-.6c-1.73.6-3.3 2.55-4.5 5.17z" class="st3"/>
            </g>
            <g id="shape847-25" v:mID="847" v:groupContext="shape" v:layerMember="0" transform="translate(6.675 -14.625)">
              <path d="M0 72.15c2.1.6 4.43.9 6.83.97V66.9c-1.96-.08-3.9-.37-5.63-.9C.53 67.8.15 69.9 0 72.15z" class="st3"/>
            </g>
            <g id="shape848-27" v:mID="848" v:groupContext="shape" v:layerMember="0" transform="translate(22.65 -8.325)">
              <path d="M.68 67.2c0 2.1-.23 4.13-.68 5.92 2.02-.75 3.9-1.72 5.47-2.92.23-.98.31-1.95.31-2.93-.01-.9-.08-1.8-.23-2.62-1.43.97-3.07 1.72-4.95 2.32.08.08.08.15.08.23z" class="st3"/>
            </g>
            <g id="shape849-29" v:mID="849" v:groupContext="shape" v:layerMember="0" transform="translate(0 -8.175)">
              <path d="M5.17 67.05v-.22c-1.79-.6-3.52-1.43-4.95-2.33-.15.83-.22 1.73-.22 2.63 0 1.2.15 2.32.45 3.37a19.87 19.87 0 0 0 5.4 2.62c-.45-1.79-.68-3.89-.68-6.07z" class="st3"/>
            </g>
            <g id="shape850-31" v:mID="850" v:groupContext="shape" v:layerMember="0" transform="translate(.675 -16.05)">
              <path d="M3 65.47c-1.35 1.5-2.4 3.3-3 5.33 1.27.97 2.85 1.72 4.58 2.32.15-2.24.52-4.42 1.2-6.22-1.05-.38-1.96-.9-2.78-1.43z" class="st3"/>
            </g>
            <g id="shape851-33" v:mID="851" v:groupContext="shape" v:layerMember="0" transform="translate(14.925 -22.35)">
              <path d="M.07 73.12c1.8-.07 3.53-.37 5.1-.82C4.05 69.68 2.4 67.73.6 67.13H0l.07 5.99z" class="st3"/>
            </g>
            <g id="shape852-35" v:mID="852" v:groupContext="shape" v:layerMember="0" transform="translate(1.125 -.75)">
              <path d="M5.17 67.5c-1.87-.53-3.6-1.28-5.17-2.18 1.57 3.6 4.57 6.45 8.32 7.8-1.27-1.42-2.4-3.37-3.15-5.62z" class="st3"/>
            </g>
            <g id="shape853-37" v:mID="853" v:groupContext="shape" v:layerMember="0" transform="translate(19.275 -23.7)">
              <path d="M0 69.3c.9 1.05 1.65 2.32 2.25 3.82.75-.3 1.5-.67 2.18-1.05-1.2-1.2-2.78-2.1-4.43-2.77z" class="st3"/>
            </g>
            <g id="shape854-39" v:mID="854" v:groupContext="shape" v:layerMember="0" transform="translate(22.125 -16.05)">
              <path d="M5.78 70.8c-.6-2.03-1.66-3.83-3-5.33-.83.53-1.73.98-2.78 1.43.6 1.87 1.05 3.98 1.2 6.22 1.65-.59 3.23-1.34 4.58-2.32z" class="st3"/>
            </g>
            <g id="shape855-41" v:mID="855" v:groupContext="shape" v:layerMember="0" transform="translate(19.05 -.75)">
              <path d="M3.15 67.35c-.75 2.4-1.8 4.35-3.15 5.77 3.82-1.35 6.9-4.35 8.4-8.17-1.58.97-3.38 1.8-5.25 2.4z" class="st3"/>
            </g>
            <g id="shape856-43" v:mID="856" v:groupContext="shape" v:layerMember="0" transform="translate(8.1)">
              <path d="M5.4 73.12V67.8c-1.87 0-3.67-.23-5.4-.6 1.28 3.23 3.23 5.47 5.4 5.92z" class="st3"/>
            </g>
            <g id="shape857-45" v:mID="857" v:groupContext="shape" v:layerMember="0" transform="translate(15 -6.825)">
              <path d="M6.83 65.93c-2.1.52-4.43.9-6.83.97v6.22c2.03-.07 4.05-.37 6-.89.53-1.95.83-4.05.83-6.3z" class="st3"/>
            </g>
            <g id="shape858-47" v:mID="858" v:groupContext="shape" v:layerMember="0" transform="translate(6.675 -6.825)">
              <path d="M6.83 73.12V66.9c-2.4-.07-4.73-.37-6.83-.97 0 2.32.37 4.5.9 6.37 1.88.52 3.9.75 5.93.82z" class="st3"/>
            </g>
            <g id="shape859-49" v:mID="859" v:groupContext="shape" v:layerMember="0" transform="translate(15 -.075)">
              <path d="M0 67.8v5.32c2.18-.44 4.2-2.77 5.4-6.07-1.72.53-3.52.75-5.4.75z" class="st3"/>
            </g>
          </g>
        </g>
      </g>
    </g>
  </g>
</svg>
