<svg xmlns="http://www.w3.org/2000/svg" xmlns:v="http://schemas.microsoft.com/visio/2003/SVGExtensions/" width="126" height="87" viewBox="0 0 94.5 65.25" color-interpolation-filters="sRGB" fill="none" fill-rule="evenodd" font-size="12" overflow="visible" stroke-linecap="square" stroke-miterlimit="3">
  <v:documentProperties v:langID="4108" v:metric="true" v:viewMarkup="false"/>
  <style>
    .st1,.st2,.st3{fill:#fff;stroke:none;stroke-linecap:butt;stroke-width:.75}.st2,.st3{fill:#505050}.st3{fill:#00adeb}
  </style>
  <g v:mID="0" v:index="1" v:groupContext="foregroundPage">
    <v:pageProperties v:drawingScale=".039" v:pageScale=".039" v:drawingUnits="24" v:shadowOffsetX="8.504" v:shadowOffsetY="-8.504"/>
    <v:layer v:name="symbols" v:index="0"/>
    <g id="group775-1" transform="translate(9.713 -8.813)" v:mID="775" v:groupContext="group" v:layerMember="0">
      <g id="group776-2" v:mID="776" v:groupContext="group" v:layerMember="0">
        <g id="shape777-3" v:mID="777" v:groupContext="shape" v:layerMember="0">
          <path d="M48.07 18.75h-30c-1.72 0-3.29.83-4.27 2.18-.68-.75-1.58-1.35-2.7-1.73-1.2-.37-1.87-.45-3.53-.45-1.65 0-2.32.08-3.52.45-2.4.75-3.83 2.48-3.98 4.95-.07.83 0 1.88.08 3.83.07 2.62.22 6.97.22 14.47 0 6-.15 9.98-.22 12.53C0 57.15 0 58.5 0 59.7c.15 2.55 1.65 4.35 4.05 5.03 1.2.37 2.25.52 3.37.52 1.21 0 2.41-.15 3.6-.52 1.13-.31 2.1-.91 2.78-1.73.98 1.35 2.47 2.18 4.27 2.18h30c2.93 0 5.25-2.33 5.25-5.25V24c0-2.92-2.32-5.25-5.25-5.25z" class="st1"/>
        </g>
        <g id="shape778-5" v:mID="778" v:groupContext="shape" v:layerMember="0" transform="translate(2.25 -2.25)">
          <path d="M10.65 26.63c-.15-1.65-.98-2.55-2.4-3-.9-.3-1.35-.38-2.85-.38-1.57 0-1.95.08-2.85.38-1.42.45-2.33 1.35-2.4 3-.15 1.8.3 5.47.3 18.15C.45 55.5 0 59.4.15 61.88c.07 1.65.98 2.62 2.4 3 .82.22 1.72.37 2.7.37.97 0 2.02-.15 3-.37 1.42-.38 2.32-1.35 2.4-3 .15-2.48-.23-6.15-.23-16.88 0-12.67.38-16.57.23-18.37z" class="st2"/>
        </g>
        <g id="shape779-7" v:mID="779" v:groupContext="shape" v:layerMember="0" transform="translate(15.075 -2.25)">
          <path d="M33 23.25H3c-1.65 0-3 1.35-3 3v36c0 1.65 1.35 3 3 3h30c1.65 0 2.92-1.35 2.92-3v-36c0-1.65-1.27-3-2.92-3zM12.75 55.5c0 .45-.3.75-.75.75H8.25c-.45 0-.75-.3-.75-.75V54c0-.45.3-.75.75-.75H12c.45 0 .75.3.75.75v1.5zm0-5.25c0 .45-.3.75-.75.75H8.25c-.45 0-.75-.3-.75-.75v-1.5c0-.45.3-.75.75-.75H12c.45 0 .75.3.75.75v1.5zm0-5.25c0 .45-.3.75-.75.75H8.25c-.45 0-.75-.3-.75-.75v-1.5c0-.45.3-.75.75-.75H12c.45 0 .75.3.75.75V45zm7.5 10.5c0 .45-.3.75-.75.75h-3.75c-.45 0-.75-.3-.75-.75V54c0-.45.3-.75.75-.75h3.75c.45 0 .75.3.75.75v1.5zm0-5.25c0 .45-.3.75-.75.75h-3.75c-.45 0-.75-.3-.75-.75v-1.5c0-.45.3-.75.75-.75h3.75c.45 0 .75.3.75.75v1.5zm0-5.25c0 .45-.3.75-.75.75h-3.75c-.45 0-.75-.3-.75-.75v-1.5c0-.45.3-.75.75-.75h3.75c.45 0 .75.3.75.75V45zm7.5 10.5c0 .45-.3.75-.75.75h-3.75c-.45 0-.75-.3-.75-.75V54c0-.45.3-.75.75-.75H27c.45 0 .75.3.75.75v1.5zm0-5.25c0 .45-.3.75-.75.75h-3.75c-.45 0-.75-.3-.75-.75v-1.5c0-.45.3-.75.75-.75H27c.45 0 .75.3.75.75v1.5zm0-5.25c0 .45-.3.75-.75.75h-3.75c-.45 0-.75-.3-.75-.75v-1.5c0-.45.3-.75.75-.75H27c.45 0 .75.3.75.75V45zM30 36.75c0 .45-.3.75-.75.75H6.75c-.45 0-.83-.3-.83-.75V28.5c0-.45.38-.75.83-.75h22.5c.45 0 .75.3.75.75v8.25z" class="st2"/>
        </g>
      </g>
      <g id="group780-9" transform="translate(53.325 -22.5)" v:mID="780" v:groupContext="group" v:layerMember="0">
        <g id="shape781-10" v:mID="781" v:groupContext="shape" v:layerMember="0">
          <path d="M17.93 65.25c-1.2 0-2.33-.22-3.38-.75-.45.07-.9.07-1.42.07-6.9 0-12.45-5.62-12.45-12.45 0-.45 0-.89.07-1.42C.3 49.65 0 48.45 0 47.32 0 42.75 3.75 39 8.33 39c1.2 0 2.32.22 3.37.75.45-.07.9-.07 1.43-.08 6.9.01 12.45 5.63 12.45 12.45 0 .46 0 .9-.08 1.43.45 1.05.75 2.25.75 3.37 0 4.58-3.75 8.33-8.32 8.33z" class="st1"/>
        </g>
        <g id="shape782-12" v:mID="782" v:groupContext="shape" v:layerMember="0" transform="translate(2.25 -2.25)">
          <path d="M20.93 56.17c.07-.6.15-1.2.15-1.8 0-5.62-4.58-10.2-10.2-10.2-.6 0-1.2.08-1.8.15a6.06 6.06 0 0 0-3-.82A6.05 6.05 0 0 0 0 49.57c0 1.13.3 2.1.83 3-.08.61-.16 1.2-.15 1.8-.01 5.63 4.57 10.2 10.2 10.2.6 0 1.2-.07 1.8-.15.9.53 1.95.83 3 .83 3.37 0 6.07-2.7 6.07-6.08 0-1.12-.3-2.1-.82-3zm-5.25 7.5c-.83 0-1.58-.22-2.25-.6l-.53-.3-.52.08c-.45.07-.98.15-1.5.15-4.8 0-8.7-3.9-8.7-8.7 0-.53.07-1.05.15-1.5l.07-.53-.3-.45c-.38-.67-.6-1.42-.6-2.25 0-2.47 2.03-4.5 4.5-4.5.83 0 1.58.23 2.25.6l.53.3.52-.07c.53-.08.98-.15 1.5-.15 4.8 0 8.7 3.9 8.7 8.7 0 .52-.07 1.05-.15 1.5l-.07.52.3.53c.37.67.6 1.42.6 2.25 0 2.4-2.03 4.42-4.5 4.42z" class="st3"/>
        </g>
        <g id="shape783-14" v:mID="783" v:groupContext="shape" v:layerMember="0" transform="translate(7.95 -6.9)">
          <path d="M7.05 58.05l-2.32-.53c-.9-.22-1.88-.45-1.88-1.35 0-.82.68-1.42 1.95-1.42 2.55 0 2.33 1.8 3.6 1.8.68 0 1.28-.38 1.28-1.05 0-1.58-2.55-2.78-4.73-2.78-2.32 0-4.8.98-4.8 3.6 0 1.28.45 2.63 2.93 3.3l3.07.75c.98.23 1.2.75 1.2 1.28 0 .82-.82 1.65-2.25 1.65-2.77 0-2.4-2.25-3.9-2.25-.67 0-1.2.45-1.2 1.12 0 1.28 1.58 3.08 5.1 3.08 3.3 0 5.03-1.65 5.03-3.83.07-1.35-.6-2.77-3.08-3.37z" class="st3"/>
        </g>
      </g>
    </g>
  </g>
</svg>
