<svg xmlns="http://www.w3.org/2000/svg" xmlns:v="http://schemas.microsoft.com/visio/2003/SVGExtensions/" width="87" height="69" viewBox="0 0 65.25 51.75" color-interpolation-filters="sRGB" fill="none" fill-rule="evenodd" font-size="12" overflow="visible" stroke-linecap="square" stroke-miterlimit="3">
  <v:documentProperties v:langID="4108" v:metric="true" v:viewMarkup="false"/>
  <style>
    .st1,.st2{fill:#fff;stroke:none;stroke-linecap:butt;stroke-width:.75}.st2{fill:#515050}
  </style>
  <g v:mID="0" v:index="1" v:groupContext="foregroundPage">
    <v:pageProperties v:drawingScale=".039" v:pageScale=".039" v:drawingUnits="24" v:shadowOffsetX="8.504" v:shadowOffsetY="-8.504"/>
    <g id="group906-1" transform="translate(.75 -.75)" v:mID="906" v:groupContext="group">
      <g id="group907-2" transform="translate(0 -18)" v:mID="907" v:groupContext="group">
        <g id="shape908-3" v:mID="908" v:groupContext="shape">
          <path d="M0 51.75V25.13c0-2.93 2.78-5.63 5.77-5.63H54.3c3 0 5.77 2.7 5.77 5.63v26.62H0z" class="st1"/>
        </g>
        <g id="shape909-5" v:mID="909" v:groupContext="shape" transform="translate(2.25 -2.25)">
          <path d="M44.7 24H3.52C1.72 24 0 25.73 0 27.38v24.37h55.5V27.38c0-1.73-1.73-3.38-3.45-3.38H44.7z" class="st2"/>
        </g>
        <g id="group910-7" transform="translate(30.75 -15)" v:mID="910" v:groupContext="group">
          <g id="group911-8" transform="translate(0 -6)" v:mID="911" v:groupContext="group">
            <g id="shape912-9" v:mID="912" v:groupContext="shape">
              <ellipse cx="1.5" cy="50.25" rx="1.5" ry="1.5" class="st1"/>
            </g>
            <g id="shape913-11" v:mID="913" v:groupContext="shape" transform="translate(6)">
              <ellipse cx="1.5" cy="50.25" rx="1.5" ry="1.5" class="st1"/>
            </g>
            <g id="shape914-13" v:mID="914" v:groupContext="shape" transform="translate(12)">
              <ellipse cx="1.5" cy="50.25" rx="1.5" ry="1.5" class="st1"/>
            </g>
            <g id="shape915-15" v:mID="915" v:groupContext="shape" transform="translate(18)">
              <ellipse cx="1.5" cy="50.25" rx="1.5" ry="1.5" class="st1"/>
            </g>
          </g>
          <g id="group916-17" v:mID="916" v:groupContext="group">
            <g id="shape917-18" v:mID="917" v:groupContext="shape">
              <ellipse cx="1.5" cy="50.25" rx="1.5" ry="1.5" class="st1"/>
            </g>
            <g id="shape918-20" v:mID="918" v:groupContext="shape" transform="translate(6)">
              <ellipse cx="1.5" cy="50.25" rx="1.5" ry="1.5" class="st1"/>
            </g>
            <g id="shape919-22" v:mID="919" v:groupContext="shape" transform="translate(12)">
              <ellipse cx="1.5" cy="50.25" rx="1.5" ry="1.5" class="st1"/>
            </g>
            <g id="shape920-24" v:mID="920" v:groupContext="shape" transform="translate(18)">
              <ellipse cx="1.5" cy="50.25" rx="1.5" ry="1.5" class="st1"/>
            </g>
          </g>
        </g>
        <g id="group921-26" transform="translate(8.25 -13.5)" v:mID="921" v:groupContext="group">
          <g id="shape922-27" v:mID="922" v:groupContext="shape">
            <path class="st1" d="M0 41.25h16.5v10.5H0z"/>
          </g>
          <g id="shape923-29" v:mID="923" v:groupContext="shape" transform="translate(1.5 -2.25)">
            <path class="st2" d="M0 45h13.5v6.75H0z"/>
          </g>
        </g>
        <g id="shape924-31" v:mID="924" v:groupContext="shape" transform="translate(8.25 -9)">
          <path class="st1" d="M0 50.25h16.5v1.5H0z"/>
        </g>
      </g>
      <g id="group925-33" transform="translate(33.75)" v:mID="925" v:groupContext="group">
        <g id="group926-34" v:mID="926" v:groupContext="group">
          <g id="shape927-35" v:mID="927" v:groupContext="shape">
            <path d="M4.5 51.75c-2.47 0-4.5-2.02-4.5-4.5v-21c0-2.47 2.03-4.5 4.5-4.5h21c2.48 0 4.5 2.03 4.5 4.5v21c0 2.48-2.02 4.5-4.5 4.5h-21z" class="st1"/>
          </g>
          <g id="shape928-37" v:mID="928" v:groupContext="shape" transform="translate(2.25 -2.25)">
            <path d="M25.5 49.5c0 1.28-.97 2.25-2.25 2.25h-21C.98 51.75 0 50.78 0 49.5v-21c0-1.27.98-2.25 2.25-2.25h21c1.28 0 2.25.98 2.25 2.25v21z" class="st2"/>
          </g>
        </g>
        <g id="shape929-39" v:mID="929" v:groupContext="shape" transform="translate(12 -17.25)">
          <path d="M3.75 51.75V46.8L6 49.05V46.8l-3-3-3 3v2.25l2.25-2.25v4.95h1.5z" class="st1"/>
        </g>
        <g id="shape930-41" v:mID="930" v:groupContext="shape" transform="translate(12 -4.8)">
          <path d="M2.25 43.8v4.95L0 46.5v2.25l3 3 3-3V46.5l-2.25 2.25V43.8h-1.5z" class="st1"/>
        </g>
        <g id="shape931-43" v:mID="931" v:groupContext="shape" transform="translate(17.55 -12)">
          <path d="M7.95 49.5H3l2.25 2.25H3l-3-3 3-3h2.25L3 48h4.95v1.5z" class="st1"/>
        </g>
        <g id="shape932-45" v:mID="932" v:groupContext="shape" transform="translate(4.5 -12)">
          <path d="M0 48h4.95L2.7 45.75h2.25l3 3-3 3H2.7l2.25-2.25H0V48z" class="st1"/>
        </g>
      </g>
    </g>
  </g>
</svg>
