<svg xmlns="http://www.w3.org/2000/svg" xmlns:v="http://schemas.microsoft.com/visio/2003/SVGExtensions/" width="82.1" height="83" viewBox="0 0 61.575 62.25" color-interpolation-filters="sRGB" fill="none" fill-rule="evenodd" font-size="12" overflow="visible" stroke-linecap="square" stroke-miterlimit="3">
  <v:documentProperties v:langID="4108" v:metric="true" v:viewMarkup="false"/>
  <style>
    .st1,.st2{fill:#fff;stroke:none;stroke-linecap:butt;stroke-width:.75}.st2{fill:#515050}
  </style>
  <g v:mID="0" v:index="1" v:groupContext="foregroundPage">
    <v:pageProperties v:drawingScale=".039" v:pageScale=".039" v:drawingUnits="24" v:shadowOffsetX="8.504" v:shadowOffsetY="-8.504"/>
    <g id="group933-1" transform="translate(.75 -.75)" v:mID="933" v:groupContext="group">
      <g id="group934-2" transform="translate(0 -6)" v:mID="934" v:groupContext="group">
        <g id="shape935-3" v:mID="935" v:groupContext="shape">
          <path d="M0 62.25V7.5h30.9l13.35 13.35v41.4H0z" class="st1"/>
        </g>
        <g id="shape936-5" v:mID="936" v:groupContext="shape" transform="translate(2.25 -2.25)">
          <path d="M39.75 62.25V24l-12-12H0v50.25h39.75zM2.25 60V14.25h24v12H37.5V60H2.25z" class="st2"/>
        </g>
        <g id="shape937-7" v:mID="937" v:groupContext="shape" transform="translate(14.25 -18.75)">
          <path class="st2" d="M0 60h18.75v2.25H0z"/>
        </g>
        <g id="shape938-9" v:mID="938" v:groupContext="shape" transform="translate(14.25 -11.25)">
          <path class="st2" d="M0 60h18.75v2.25H0z"/>
        </g>
      </g>
      <g id="shape939-11" v:mID="939" v:groupContext="shape" transform="translate(8.25 -24)">
        <ellipse cx="1.875" cy="60.375" rx="1.875" ry="1.875" class="st2"/>
      </g>
      <g id="shape940-13" v:mID="940" v:groupContext="shape" transform="translate(8.25 -16.5)">
        <ellipse cx="1.875" cy="60.375" rx="1.875" ry="1.875" class="st2"/>
      </g>
      <g id="group941-15" transform="translate(7.725 -32.25)" v:mID="941" v:groupContext="group">
        <g id="shape942-16" v:mID="942" v:groupContext="shape">
          <path d="M6.98 54.15h-2.7v8.1H2.7v-8.1H0V52.8h6.98v1.35z" class="st2"/>
        </g>
        <g id="shape943-18" v:mID="943" v:groupContext="shape" transform="translate(8.4)">
          <path d="M5.33 62.25H0V52.8h5.1v1.35H1.58v2.7H4.8v1.35H1.58v2.77h3.75v1.28z" class="st2"/>
        </g>
        <g id="shape944-20" v:mID="944" v:groupContext="shape" transform="translate(15.375)">
          <path d="M5.25 62.25H0V52.8h1.57v8.1h3.68v1.35z" class="st2"/>
        </g>
      </g>
      <g id="group945-22" transform="translate(26.475)" v:mID="945" v:groupContext="group">
        <g id="shape946-23" v:mID="946" v:groupContext="shape">
          <path d="M29.78 33h-18c-1.05 0-1.96.37-2.63.97a3.8 3.8 0 0 0-1.35-.67c-.82-.23-1.27-.3-2.32-.3-1.05 0-1.58.07-2.4.3-1.8.52-2.85 1.87-3 3.75-.08.52 0 1.2 0 2.32.07 1.58.15 4.13.15 8.55 0 3.53-.08 5.78-.15 7.35-.08 1.28-.08 2.1 0 2.85.07 1.88 1.27 3.3 3.07 3.83.75.22 1.5.3 2.25.3.83 0 1.58-.08 2.4-.3.53-.15 1.05-.38 1.43-.75.67.6 1.57.97 2.62.97h18c2.18 0 3.75-1.57 3.75-3.75V36.75c-.07-2.18-1.65-3.75-3.82-3.75z" class="st1"/>
        </g>
        <g id="shape947-25" v:mID="947" v:groupContext="shape" transform="translate(2.1 -2.175)">
          <path d="M6.45 39.37c-.07-.97-.6-1.5-1.42-1.8-.53-.15-.75-.22-1.73-.22-.9 0-1.12.07-1.72.22-.83.3-1.35.83-1.43 1.8C.07 40.42.3 42.6.3 50.1c0 6.3-.3 8.62-.15 10.12.08.98.6 1.5 1.43 1.8.52.15 1.05.23 1.65.23.6 0 1.2-.08 1.72-.23.83-.22 1.35-.82 1.43-1.8.07-1.5-.15-3.6-.15-9.97.07-7.43.3-9.75.22-10.88z" class="st2"/>
        </g>
        <g id="shape948-27" v:mID="948" v:groupContext="shape" transform="translate(10.275 -2.25)">
          <path d="M19.5 37.5h-18c-.97 0-1.5.52-1.5 1.5v21.75c0 .97.53 1.5 1.5 1.5h18c.98 0 1.5-.53 1.5-1.5V39c0-.98-.52-1.5-1.5-1.5zm-12 20.25c0 .45-.3.75-.75.75h-1.5c-.45 0-.75-.3-.75-.75V57c0-.45.3-.75.75-.75h1.5c.45 0 .75.3.75.75v.75zm0-3.75c0 .45-.3.75-.75.75h-1.5c-.45 0-.75-.3-.75-.75v-.75c0-.45.3-.75.75-.75h1.5c.45 0 .75.3.75.75V54zm0-3.75c0 .45-.3.75-.75.75h-1.5c-.45 0-.75-.3-.75-.75v-.75c0-.45.3-.75.75-.75h1.5c.45 0 .75.3.75.75v.75zm4.5 7.5c0 .45-.3.75-.75.75h-1.5c-.45 0-.75-.3-.75-.75V57c0-.45.3-.75.75-.75h1.5c.45 0 .75.3.75.75v.75zM12 54c0 .45-.3.75-.75.75h-1.5c-.45 0-.75-.3-.75-.75v-.75c0-.45.3-.75.75-.75h1.5c.45 0 .75.3.75.75V54zm0-3.75c0 .45-.3.75-.75.75h-1.5c-.45 0-.75-.3-.75-.75v-.75c0-.45.3-.75.75-.75h1.5c.45 0 .75.3.75.75v.75zm4.5 7.5c0 .45-.3.75-.75.75h-1.5c-.45 0-.75-.3-.75-.75V57c0-.45.3-.75.75-.75h1.5c.45 0 .75.3.75.75v.75zm0-3.75c0 .45-.3.75-.75.75h-1.5c-.45 0-.75-.3-.75-.75v-.75c0-.45.3-.75.75-.75h1.5c.45 0 .75.3.75.75V54zm0-3.75c0 .45-.3.75-.75.75h-1.5c-.45 0-.75-.3-.75-.75v-.75c0-.45.3-.75.75-.75h1.5c.45 0 .75.3.75.75v.75zm.75-4.5H3.75V40.5h13.5v5.25z" class="st2"/>
        </g>
      </g>
    </g>
  </g>
</svg>
