<svg xmlns="http://www.w3.org/2000/svg" xmlns:v="http://schemas.microsoft.com/visio/2003/SVGExtensions/" width="79" height="62" viewBox="0 0 59.25 46.5" color-interpolation-filters="sRGB" fill="none" fill-rule="evenodd" font-size="12" overflow="visible" stroke-linecap="square" stroke-miterlimit="3">
  <v:documentProperties v:langID="4108" v:metric="true" v:viewMarkup="false"/>
  <style>
    .st3{fill:#515050;stroke:none;stroke-linecap:butt;stroke-width:.75}
  </style>
  <g v:mID="0" v:index="1" v:groupContext="foregroundPage">
    <v:pageProperties v:drawingScale=".039" v:pageScale=".039" v:drawingUnits="24" v:shadowOffsetX="8.504" v:shadowOffsetY="-8.504"/>
    <g id="group78-1" transform="translate(.75 -.75)" v:mID="78" v:groupContext="group">
      <g id="group79-2" v:mID="79" v:groupContext="group">
        <g id="group80-3" v:mID="80" v:groupContext="group">
          <g id="shape81-4" v:mID="81" v:groupContext="shape">
            <path d="M5.25 46.5C2.32 46.5 0 44.17 0 41.25V6.75C0 3.83 2.32 1.5 5.25 1.5H52.5c2.92 0 5.25 2.33 5.25 5.25v34.5c0 2.92-2.33 5.25-5.25 5.25H5.25z" fill="#fff" stroke-linecap="butt" stroke-width=".75"/>
          </g>
          <g id="shape82-6" v:mID="82" v:groupContext="shape" transform="translate(2.25 -2.25)">
            <path d="M50.25 6H3C1.35 6 0 7.35 0 9v34.5c0 1.65 1.35 3 3 3h47.25c1.65 0 3-1.35 3-3V9c0-1.65-1.35-3-3-3zm-6 2.25h2.25v2.25h-2.25V8.25zm-4.5 0H42v2.25h-2.25V8.25zM51 43.5c0 .45-.3.75-.75.75H3c-.45 0-.75-.3-.75-.75v-30H51v30zm0-33h-2.25V8.25H51v2.25z" fill="#515150" stroke-linecap="butt" stroke-width=".75"/>
          </g>
        </g>
        <g id="group83-8" transform="translate(14.7 -9)" v:mID="83" v:groupContext="group">
          <g id="shape84-9" v:mID="84" v:groupContext="shape">
            <path d="M16.05 45.3c-1.58.82-3.52 1.2-5.93 1.2-3.07 0-5.47-.98-7.34-2.85C.98 41.7 0 39.23 0 36.07 0 32.7 1.05 30 3.08 27.9c2.1-2.1 4.64-3.08 7.8-3.08 2.02 0 3.75.3 5.02.9v3.45c-1.43-.82-3-1.27-4.72-1.27-2.26 0-4.13.75-5.55 2.17-1.43 1.43-2.1 3.38-2.1 5.85 0 2.33.67 4.13 1.95 5.55 1.34 1.35 3.07 2.03 5.17 2.03 1.95 0 3.68-.45 5.18-1.43v3.23h.22z" class="st3"/>
          </g>
          <g id="shape85-11" v:mID="85" v:groupContext="shape" transform="translate(17.775 -4.5)">
            <path d="M11.48 38.25l.3-1.5H9.45L10.2 33H8.55l-.75 3.75H5.18L5.93 33H4.28l-.75 3.75H1.05l-.3 1.5h2.48l-.6 3H.3l-.3 1.5h2.33l-.75 3.75h1.65l.75-3.75H6.6l-.75 3.75H7.5l.75-3.75h2.48l.37-1.5H8.63l.6-3h2.25zm-4.58 3H4.28l.6-3H7.5l-.6 3z" class="st3"/>
          </g>
        </g>
      </g>
    </g>
  </g>
</svg>
