<svg xmlns="http://www.w3.org/2000/svg" xmlns:v="http://schemas.microsoft.com/visio/2003/SVGExtensions/" width="79" height="62" viewBox="0 0 59.25 46.5" color-interpolation-filters="sRGB" fill="none" fill-rule="evenodd" font-size="12" overflow="visible" stroke-linecap="square" stroke-miterlimit="3">
  <v:documentProperties v:langID="4108" v:metric="true" v:viewMarkup="false"/>
  <style>
    .st2{fill:#515050;stroke:none;stroke-linecap:butt;stroke-width:.75}
  </style>
  <g v:mID="0" v:index="1" v:groupContext="foregroundPage">
    <v:pageProperties v:drawingScale=".039" v:pageScale=".039" v:drawingUnits="24" v:shadowOffsetX="8.504" v:shadowOffsetY="-8.504"/>
    <g id="group86-1" transform="translate(.75 -.75)" v:mID="86" v:groupContext="group">
      <g id="group87-2" v:mID="87" v:groupContext="group">
        <g id="group88-3" v:mID="88" v:groupContext="group">
          <g id="shape89-4" v:mID="89" v:groupContext="shape">
            <path d="M5.25 46.5C2.32 46.5 0 44.17 0 41.25V6.75C0 3.83 2.32 1.5 5.25 1.5H52.5c2.92 0 5.25 2.33 5.25 5.25v34.5c0 2.92-2.33 5.25-5.25 5.25H5.25z" fill="#fff" stroke-linecap="butt" stroke-width=".75"/>
          </g>
          <g id="shape90-6" v:mID="90" v:groupContext="shape" transform="translate(2.25 -2.25)">
            <path d="M50.25 6H3C1.35 6 0 7.35 0 9v34.5c0 1.65 1.35 3 3 3h47.25c1.65 0 3-1.35 3-3V9c0-1.65-1.35-3-3-3zm-6 2.25h2.25v2.25h-2.25V8.25zm-4.5 0H42v2.25h-2.25V8.25zM51 43.5c0 .45-.3.75-.75.75H3c-.45 0-.75-.3-.75-.75v-30H51v30zm0-33h-2.25V8.25H51v2.25z" class="st2"/>
          </g>
        </g>
        <g id="group91-8" transform="translate(9.75 -10.5)" v:mID="91" v:groupContext="group">
          <g id="shape92-9" v:mID="92" v:groupContext="shape">
            <path d="M0 36.67v1.95l15.75 7.88v-3.08L3.97 37.65l11.78-6.53v-3.15L0 36.67z" class="st2"/>
          </g>
          <g id="shape93-11" v:mID="93" v:groupContext="shape" transform="translate(22.5)">
            <path d="M0 27.97v3.15l11.77 6.53L0 43.42v3.08l15.75-7.88v-1.95L0 27.97z" class="st2"/>
          </g>
        </g>
      </g>
    </g>
  </g>
</svg>
