<svg xmlns="http://www.w3.org/2000/svg" xmlns:v="http://schemas.microsoft.com/visio/2003/SVGExtensions/" width="82.1" height="83" viewBox="0 0 61.575 62.25" color-interpolation-filters="sRGB" fill="none" fill-rule="evenodd" font-size="12" overflow="visible" stroke-linecap="square" stroke-miterlimit="3">
  <v:documentProperties v:langID="4108" v:metric="true" v:viewMarkup="false"/>
  <style>
    .st1,.st2{fill:#fff;stroke:none;stroke-linecap:butt;stroke-width:.75}.st2{fill:#515050}
  </style>
  <g v:mID="0" v:index="1" v:groupContext="foregroundPage">
    <v:pageProperties v:drawingScale=".039" v:pageScale=".039" v:drawingUnits="24" v:shadowOffsetX="8.504" v:shadowOffsetY="-8.504"/>
    <g id="group984-1" transform="translate(.75 -.75)" v:mID="984" v:groupContext="group">
      <g id="shape985-2" v:mID="985" v:groupContext="shape" transform="translate(0 -6)">
        <path d="M0 7.5h30.9l13.35 13.35v41.4H0V7.5z" class="st1"/>
      </g>
      <g id="shape986-4" v:mID="986" v:groupContext="shape" transform="translate(2.25 -8.25)">
        <path d="M39.75 62.25V24l-12-12H0v50.25h39.75zM2.25 60V14.25h24v12H37.5V60H2.25z" class="st2"/>
      </g>
      <g id="shape987-6" v:mID="987" v:groupContext="shape" transform="translate(14.25 -24.75)">
        <path class="st2" d="M0 60h18.75v2.25H0z"/>
      </g>
      <g id="shape988-8" v:mID="988" v:groupContext="shape" transform="translate(14.25 -17.25)">
        <path class="st2" d="M0 60h18.75v2.25H0z"/>
      </g>
      <g id="shape989-10" v:mID="989" v:groupContext="shape" transform="translate(8.25 -24)">
        <ellipse cx="1.875" cy="60.375" rx="1.875" ry="1.875" class="st2"/>
      </g>
      <g id="shape990-12" v:mID="990" v:groupContext="shape" transform="translate(8.25 -16.5)">
        <ellipse cx="1.875" cy="60.375" rx="1.875" ry="1.875" class="st2"/>
      </g>
      <g id="group991-14" transform="translate(8.625 -32.1)" v:mID="991" v:groupContext="group">
        <g id="shape992-15" v:mID="992" v:groupContext="shape" transform="translate(0 -.15)">
          <path d="M5.02 62.25H0v-8.93h4.8v1.28H1.5v2.55h3.07v1.27H1.5v2.63h3.52v1.2z" class="st2"/>
        </g>
        <g id="shape993-17" v:mID="993" v:groupContext="shape" transform="translate(6.15)">
          <path d="M.82 62.25c-.22 0-.45-.08-.59-.23a.847.847 0 0 1-.23-.6c0-.22.08-.45.23-.6.14-.15.37-.22.59-.22.23 0 .46.07.68.22.22.15.3.38.3.6 0 .23-.08.45-.3.6-.15.15-.38.23-.68.23z" class="st2"/>
        </g>
        <g id="shape994-19" v:mID="994" v:groupContext="shape" transform="translate(9.075 -.15)">
          <path d="M3.3 53.1v9.15H1.87V54.9c-.22.15-.52.37-.82.45-.3.15-.68.22-1.05.37v-1.2c.22-.07.45-.15.67-.22.23-.08.45-.15.68-.3.22-.08.45-.23.67-.38.23-.15.45-.3.68-.45h.6v-.07z" class="st2"/>
        </g>
        <g id="shape995-21" v:mID="995" v:groupContext="shape" transform="translate(14.4)">
          <path d="M5.93 59.25c0 .45-.08.82-.23 1.2-.15.37-.37.67-.6.97-.23.3-.6.45-.9.6-.37.15-.75.23-1.2.23-.45 0-.82-.08-1.2-.23-.38-.15-.67-.45-.98-.75-.29-.3-.45-.75-.6-1.27-.15-.53-.22-1.13-.22-1.8 0-.83.08-1.58.3-2.18.23-.6.45-1.2.82-1.57.38-.38.75-.75 1.21-.98.45-.22.97-.3 1.5-.3.3 0 .67 0 .9.08.22.07.52.07.67.15v1.2c-.22-.08-.45-.23-.67-.3-.23-.08-.53-.08-.83-.08-.37 0-.67.08-.97.23-.3.15-.53.37-.75.6-.23.3-.38.6-.53.97-.15.38-.15.83-.22 1.35.22-.3.44-.52.75-.67.29-.15.67-.23 1.12-.23.37 0 .75.08 1.05.23.3.15.6.3.83.52.22.23.37.53.52.9.15.3.23.68.23 1.13zm-1.5.07c-.01-.22-.01-.52-.08-.67-.08-.15-.15-.38-.3-.53-.15-.15-.3-.3-.45-.37-.15-.08-.38-.15-.6-.15-.22 0-.45.07-.67.15-.23.07-.38.22-.45.37-.08.15-.23.3-.31.53-.07.15-.07.37-.07.6 0 .22 0 .45.07.67.08.23.16.45.31.6.14.15.3.3.45.45.22.15.45.15.67.15.22 0 .45-.07.6-.15.15-.07.3-.22.45-.37.15-.15.22-.3.3-.53.07-.22.07-.45.08-.75z" class="st2"/>
        </g>
        <g id="shape996-23" v:mID="996" v:groupContext="shape" transform="translate(21.075 -.15)">
          <path d="M5.48 53.32v5.78h1.35v1.2H5.48v1.95H4.05V60.3H0v-1.2c.38-.38.75-.83 1.13-1.35.37-.45.74-.98 1.12-1.5.37-.53.68-.98.98-1.5.3-.53.52-.98.75-1.43h1.5zM4.05 59.1v-3.75c-.45.82-.9 1.5-1.35 2.1-.45.6-.83 1.12-1.27 1.65h2.62z" class="st2"/>
        </g>
      </g>
      <g id="group997-25" transform="translate(26.475)" v:mID="997" v:groupContext="group">
        <g id="shape998-26" v:mID="998" v:groupContext="shape">
          <path d="M29.78 33h-18c-1.05 0-1.96.37-2.63.97a3.8 3.8 0 0 0-1.35-.67c-.82-.23-1.27-.3-2.32-.3-1.05 0-1.58.07-2.4.3-1.8.52-2.85 1.87-3 3.75-.08.52 0 1.2 0 2.32.07 1.58.15 4.13.15 8.55 0 3.53-.08 5.78-.15 7.35-.08 1.28-.08 2.1 0 2.85.07 1.88 1.27 3.3 3.07 3.83.75.22 1.5.3 2.25.3.83 0 1.58-.08 2.4-.3.53-.15 1.05-.38 1.43-.75.67.6 1.57.97 2.62.97h18c2.18 0 3.75-1.57 3.75-3.75V36.75c-.07-2.18-1.65-3.75-3.82-3.75z" class="st1"/>
        </g>
        <g id="shape999-28" v:mID="999" v:groupContext="shape" transform="translate(2.1 -2.175)">
          <path d="M6.45 39.37c-.07-.97-.6-1.5-1.42-1.8-.53-.15-.75-.22-1.73-.22-.9 0-1.12.07-1.72.22-.83.3-1.35.83-1.43 1.8C.07 40.42.3 42.6.3 50.1c0 6.3-.3 8.62-.15 10.12.08.98.6 1.5 1.43 1.8.52.15 1.05.23 1.65.23.6 0 1.2-.08 1.72-.23.83-.22 1.35-.82 1.43-1.8.07-1.5-.15-3.6-.15-9.97.07-7.43.3-9.75.22-10.88z" class="st2"/>
        </g>
        <g id="shape1000-30" v:mID="1000" v:groupContext="shape" transform="translate(10.275 -2.25)">
          <path d="M19.5 37.5h-18c-.97 0-1.5.52-1.5 1.5v21.75c0 .97.53 1.5 1.5 1.5h18c.98 0 1.5-.53 1.5-1.5V39c0-.98-.52-1.5-1.5-1.5zm-12 20.25c0 .45-.3.75-.75.75h-1.5c-.45 0-.75-.3-.75-.75V57c0-.45.3-.75.75-.75h1.5c.45 0 .75.3.75.75v.75zm0-3.75c0 .45-.3.75-.75.75h-1.5c-.45 0-.75-.3-.75-.75v-.75c0-.45.3-.75.75-.75h1.5c.45 0 .75.3.75.75V54zm0-3.75c0 .45-.3.75-.75.75h-1.5c-.45 0-.75-.3-.75-.75v-.75c0-.45.3-.75.75-.75h1.5c.45 0 .75.3.75.75v.75zm4.5 7.5c0 .45-.3.75-.75.75h-1.5c-.45 0-.75-.3-.75-.75V57c0-.45.3-.75.75-.75h1.5c.45 0 .75.3.75.75v.75zM12 54c0 .45-.3.75-.75.75h-1.5c-.45 0-.75-.3-.75-.75v-.75c0-.45.3-.75.75-.75h1.5c.45 0 .75.3.75.75V54zm0-3.75c0 .45-.3.75-.75.75h-1.5c-.45 0-.75-.3-.75-.75v-.75c0-.45.3-.75.75-.75h1.5c.45 0 .75.3.75.75v.75zm4.5 7.5c0 .45-.3.75-.75.75h-1.5c-.45 0-.75-.3-.75-.75V57c0-.45.3-.75.75-.75h1.5c.45 0 .75.3.75.75v.75zm0-3.75c0 .45-.3.75-.75.75h-1.5c-.45 0-.75-.3-.75-.75v-.75c0-.45.3-.75.75-.75h1.5c.45 0 .75.3.75.75V54zm0-3.75c0 .45-.3.75-.75.75h-1.5c-.45 0-.75-.3-.75-.75v-.75c0-.45.3-.75.75-.75h1.5c.45 0 .75.3.75.75v.75zm.75-4.5H3.75V40.5h13.5v5.25z" class="st2"/>
        </g>
      </g>
    </g>
  </g>
</svg>
