<svg xmlns="http://www.w3.org/2000/svg" xmlns:v="http://schemas.microsoft.com/visio/2003/SVGExtensions/" width="87.1" height="72" viewBox="0 0 65.325 54" color-interpolation-filters="sRGB" fill="none" fill-rule="evenodd" font-size="12" overflow="visible" stroke-linecap="square" stroke-miterlimit="3">
  <v:documentProperties v:langID="4108" v:metric="true" v:viewMarkup="false"/>
  <style>
    .st1,.st2,.st3{fill:#fff;stroke:none;stroke-linecap:butt;stroke-width:.75}.st2,.st3{fill:#515050}.st3{fill:#515150}
  </style>
  <g v:mID="0" v:index="1" v:groupContext="foregroundPage">
    <v:pageProperties v:drawingScale=".039" v:pageScale=".039" v:drawingUnits="24" v:shadowOffsetX="8.504" v:shadowOffsetY="-8.504"/>
    <g id="group1014-1" transform="translate(.75 -.75)" v:mID="1014" v:groupContext="group">
      <g id="group1015-2" v:mID="1015" v:groupContext="group">
        <g id="group1016-3" transform="translate(0 -12.75)" v:mID="1016" v:groupContext="group">
          <g id="shape1017-4" v:mID="1017" v:groupContext="shape">
            <path class="st1" d="M0 14.25h58.5V54H0z"/>
          </g>
          <g id="shape1018-6" v:mID="1018" v:groupContext="shape" transform="translate(2.25 -2.25)">
            <path class="st2" d="M0 18.75h54V54H0z"/>
          </g>
          <g id="shape1019-8" v:mID="1019" v:groupContext="shape" transform="translate(4.5 -4.5)">
            <path class="st1" d="M0 23.25h49.5V54H0z"/>
          </g>
          <g id="group1020-10" transform="translate(6.6 -15.975)" v:mID="1020" v:groupContext="group">
            <g id="shape1021-11" v:mID="1021" v:groupContext="shape" transform="translate(0 -.075)">
              <path d="M2.4 47.55V54H1.35v-5.18c-.15.15-.38.23-.6.3-.23.08-.45.15-.75.23v-.9c.15-.08.3-.15.52-.15.23 0 .3-.15.45-.23-.37.23-.15.08.45-.22.15-.08.3-.23.45-.3h.53z" class="st2"/>
            </g>
            <g id="shape1022-13" v:mID="1022" v:groupContext="shape" transform="translate(3.375)">
              <path d="M2.03 54c-.68 0-1.21-.3-1.5-.83-.3-.52-.53-1.27-.53-2.32 0-1.13.23-1.95.6-2.55.37-.6.98-.83 1.65-.83 1.35 0 2.1 1.05 2.1 3.23 0 1.05-.22 1.87-.6 2.47-.37.6-.97.83-1.72.83zm.15-5.7c-.75 0-1.13.82-1.13 2.55 0 1.57.38 2.4 1.13 2.4.75 0 1.12-.83 1.12-2.4-.07-1.73-.45-2.55-1.12-2.55z" class="st2"/>
            </g>
            <g id="shape1023-15" v:mID="1023" v:groupContext="shape" transform="translate(8.625)">
              <path d="M2.03 54c-.68 0-1.21-.3-1.5-.83-.3-.52-.53-1.27-.53-2.32 0-1.13.23-1.95.6-2.55.37-.6.98-.83 1.65-.83 1.35 0 2.1 1.05 2.1 3.23 0 1.05-.22 1.87-.6 2.47-.37.6-.97.83-1.72.83zm.15-5.7c-.75 0-1.13.82-1.13 2.55 0 1.57.38 2.4 1.13 2.4.75 0 1.12-.83 1.12-2.4-.07-1.73-.45-2.55-1.12-2.55z" class="st2"/>
            </g>
            <g id="shape1024-17" v:mID="1024" v:groupContext="shape" transform="translate(13.875)">
              <path d="M2.03 54c-.68 0-1.21-.3-1.5-.83-.3-.52-.53-1.27-.53-2.32 0-1.13.23-1.95.6-2.55.37-.6.98-.83 1.65-.83 1.35 0 2.1 1.05 2.1 3.23 0 1.05-.22 1.87-.6 2.47-.37.6-.97.83-1.72.83zm.15-5.7c-.75 0-1.13.82-1.13 2.55 0 1.57.38 2.4 1.13 2.4.75 0 1.12-.83 1.12-2.4-.07-1.73-.45-2.55-1.12-2.55z" class="st2"/>
            </g>
          </g>
          <g id="shape1025-19" v:mID="1025" v:groupContext="shape" transform="translate(33.75 -26.25)">
            <path class="st2" d="M0 52.5h16.5V54H0z"/>
          </g>
          <g id="shape1026-21" v:mID="1026" v:groupContext="shape" transform="translate(33.75 -19.5)">
            <path class="st2" d="M0 52.5h16.5V54H0z"/>
          </g>
          <g id="shape1027-23" v:mID="1027" v:groupContext="shape" transform="translate(25.875 -8.625)">
            <path d="M5.62 54c-1.19 0-2.09-.38-2.7-.98-.6-.6-1.05-1.57-1.05-2.85v-3.82c0-.98 0-1.65-.37-2.18-.38-.52-.83-.82-1.5-.82v-1.13c1.35-.15 1.8-1.12 1.8-2.92v-3.9c0-1.35.45-2.25 1.05-2.93.6-.6 1.5-.97 2.7-.97v1.35c-.75.07-1.43.3-1.8.67-.38.38-.38 1.13-.38 2.1v3.75c0 1.88-.45 3-1.65 3.38v.07c1.28.38 1.65 1.58 1.65 3.45v3.6c0 .53 0 .9.08 1.28.15.75.9 1.27 1.2 1.35.3.07.6.15.97.15V54z" class="st2"/>
          </g>
        </g>
        <g id="group1028-25" transform="translate(30.225)" v:mID="1028" v:groupContext="group">
          <g id="shape1029-26" v:mID="1029" v:groupContext="shape">
            <path d="M29.77 24.75h-18c-1.05 0-1.95.37-2.62.97a3.8 3.8 0 0 0-1.35-.67c-.82-.23-1.27-.3-2.33-.3-1.04 0-1.57.07-2.4.3-1.79.52-2.84 1.87-3 3.75-.07.52.01 1.2 0 2.32.08 1.58.16 4.13.16 8.55 0 3.53-.08 5.78-.16 7.35-.07 1.28-.07 2.1 0 2.85.08 1.88 1.28 3.3 3.08 3.83.75.22 1.5.3 2.25.3.83 0 1.58-.08 2.4-.3.53-.15 1.05-.38 1.42-.75.68.6 1.58.97 2.63.97h18c2.17 0 3.75-1.57 3.75-3.75V28.5c-.08-2.18-1.65-3.75-3.83-3.75z" class="st1"/>
          </g>
          <g id="shape1030-28" v:mID="1030" v:groupContext="shape" transform="translate(2.1 -2.175)">
            <path d="M6.45 31.12c-.08-.97-.6-1.5-1.42-1.8-.53-.15-.76-.22-1.73-.22-.9 0-1.13.07-1.72.22-.83.3-1.35.83-1.43 1.8-.08 1.05.15 3.23.15 10.73 0 6.3-.3 8.62-.15 10.12.08.98.6 1.5 1.43 1.8.52.15 1.04.23 1.65.23.6 0 1.2-.08 1.72-.23.83-.22 1.35-.82 1.43-1.8.07-1.5-.15-3.6-.15-9.97.07-7.43.3-9.75.22-10.88z" class="st3"/>
          </g>
          <g id="shape1031-30" v:mID="1031" v:groupContext="shape" transform="translate(10.275 -2.25)">
            <path d="M19.5 29.25h-18c-.98 0-1.5.52-1.5 1.5V52.5c0 .97.52 1.5 1.5 1.5h18c.97 0 1.5-.53 1.5-1.5V30.75c0-.98-.53-1.5-1.5-1.5zM7.5 49.5c0 .45-.3.75-.75.75h-1.5c-.45 0-.75-.3-.75-.75v-.75c0-.45.3-.75.75-.75h1.5c.45 0 .75.3.75.75v.75zm0-3.75c0 .45-.3.75-.75.75h-1.5c-.45 0-.75-.3-.75-.75V45c0-.45.3-.75.75-.75h1.5c.45 0 .75.3.75.75v.75zm0-3.75c0 .45-.3.75-.75.75h-1.5c-.45 0-.75-.3-.75-.75v-.75c0-.45.3-.75.75-.75h1.5c.45 0 .75.3.75.75V42zm4.5 7.5c0 .45-.3.75-.75.75h-1.5c-.45 0-.75-.3-.75-.75v-.75c0-.45.3-.75.75-.75h1.5c.45 0 .75.3.75.75v.75zm0-3.75c0 .45-.3.75-.75.75h-1.5c-.45 0-.75-.3-.75-.75V45c0-.45.3-.75.75-.75h1.5c.45 0 .75.3.75.75v.75zM12 42c0 .45-.3.75-.75.75h-1.5c-.45 0-.75-.3-.75-.75v-.75c0-.45.3-.75.75-.75h1.5c.45 0 .75.3.75.75V42zm4.5 7.5c0 .45-.3.75-.75.75h-1.5c-.45 0-.75-.3-.75-.75v-.75c0-.45.3-.75.75-.75h1.5c.45 0 .75.3.75.75v.75zm0-3.75c0 .45-.3.75-.75.75h-1.5c-.45 0-.75-.3-.75-.75V45c0-.45.3-.75.75-.75h1.5c.45 0 .75.3.75.75v.75zm0-3.75c0 .45-.3.75-.75.75h-1.5c-.45 0-.75-.3-.75-.75v-.75c0-.45.3-.75.75-.75h1.5c.45 0 .75.3.75.75V42zm.75-4.5H3.75v-5.25h13.5v5.25z" class="st3"/>
          </g>
        </g>
      </g>
    </g>
  </g>
</svg>
