<svg xmlns="http://www.w3.org/2000/svg" xmlns:v="http://schemas.microsoft.com/visio/2003/SVGExtensions/" width="87" height="81" viewBox="0 0 65.25 60.75" color-interpolation-filters="sRGB" fill="none" fill-rule="evenodd" font-size="12" overflow="visible" stroke-linecap="square" stroke-miterlimit="3">
  <v:documentProperties v:langID="4108" v:metric="true" v:viewMarkup="false"/>
  <style>
    .st1,.st2{fill:#fff;stroke:none;stroke-linecap:butt;stroke-width:.75}.st2{fill:#515150}
  </style>
  <g v:mID="0" v:index="1" v:groupContext="foregroundPage">
    <v:pageProperties v:drawingScale=".039" v:pageScale=".039" v:drawingUnits="24" v:shadowOffsetX="8.504" v:shadowOffsetY="-8.504"/>
    <g id="group1060-1" transform="translate(.75 -.75)" v:mID="1060" v:groupContext="group">
      <g id="group1061-2" transform="translate(0 -6)" v:mID="1061" v:groupContext="group">
        <g id="group1062-3" v:mID="1062" v:groupContext="group">
          <g id="shape1063-4" v:mID="1063" v:groupContext="shape">
            <path d="M0 45.75v15h57V43.2l-.45-1.95-3.75-15.67h-1.05V13.5h-1.5v-6H6.75v6h-1.5v12.08H4.2L.45 41.25 0 43.2v2.55z" class="st1"/>
          </g>
          <g id="group1064-6" transform="translate(15 -21.75)" v:mID="1064" v:groupContext="group">
            <g id="shape1065-7" v:mID="1065" v:groupContext="shape" transform="translate(23.25 -11.25)">
              <path class="st2" d="M0 54h6v6.75H0z"/>
            </g>
            <g id="shape1066-9" v:mID="1066" v:groupContext="shape" transform="translate(0 -5.25)">
              <path class="st2" d="M0 58.5h15.75v2.25H0z"/>
            </g>
            <g id="shape1067-11" v:mID="1067" v:groupContext="shape">
              <path class="st2" d="M0 58.5h20.25v2.25H0z"/>
            </g>
          </g>
          <g id="shape1068-13" v:mID="1068" v:groupContext="shape" transform="translate(9 -47.25)">
            <path d="M0 57v3.75h2.25v-1.5h34.5v1.5H39V57H0z" class="st2"/>
          </g>
        </g>
        <g id="shape1069-15" v:mID="1069" v:groupContext="shape" transform="translate(2.25 -2.25)">
          <path d="M48.75 30.08h-1.5V18h-42v12.08h-1.5L0 45.75v15h52.5v-15l-3.75-15.67zm-3.75 0v15.67H7.5v-25.5H45v9.83z" class="st2"/>
        </g>
      </g>
      <g id="group1070-17" transform="translate(32.475)" v:mID="1070" v:groupContext="group">
        <g id="shape1071-18" v:mID="1071" v:groupContext="shape">
          <path d="M31.13 58.35c-.15-2.17-.68-6.6-1.13-8.7-.6-2.48-1.42-4.27-3.82-5.62-.3-.16-.61-.3-.83-.45-1.05-.61-1.87-1.05-2.62-1.28 1.05-1.58 1.65-3.45 1.65-5.55 0-5.18-3.9-9.45-8.7-9.45-4.8 0-8.71 4.2-8.7 9.45-.01 2.1.6 3.97 1.65 5.55-.75.15-1.5.6-2.78 1.28l-.75.45c-2.4 1.35-3.22 3.14-3.82 5.62-.45 2.1-.98 6.53-1.13 8.7L0 60.75h31.28l-.15-2.4z" class="st1"/>
        </g>
        <g id="shape1072-20" v:mID="1072" v:groupContext="shape" transform="translate(2.55 -2.25)">
          <path d="M25.28 52.43c-.53-2.18-1.13-3.23-2.7-4.13-1.66-.9-2.56-1.5-3.15-1.5-.31 0-.45.08-.68.15-.37.38-.82.68-1.27.98-.08.07-.15.07-.23.15-.45.3-.9.45-1.42.6-.83.3-1.73.45-2.7.45-.98 0-1.88-.15-2.7-.45-.45-.15-.9-.38-1.35-.6a6.79 6.79 0 0 1-1.5-1.13c-.15-.07-.38-.15-.68-.15-.6 0-1.27.45-3.15 1.5-1.65.9-2.25 1.95-2.7 4.13C.6 54.3.08 58.65 0 60.75h26.48c-.3-2.1-.83-6.37-1.2-8.32z" class="st2"/>
        </g>
        <g id="shape1073-22" v:mID="1073" v:groupContext="shape" transform="translate(9.15 -16.725)">
          <path d="M6.45 60.75c-3.6 0-6.45-3.22-6.45-7.2 0-3.97 2.93-7.2 6.45-7.2 3.6 0 6.45 3.23 6.45 7.2.08 3.98-2.85 7.2-6.45 7.2z" class="st2"/>
        </g>
      </g>
    </g>
  </g>
</svg>
