<svg xmlns="http://www.w3.org/2000/svg" xmlns:v="http://schemas.microsoft.com/visio/2003/SVGExtensions/" width="70" height="83" viewBox="0 0 52.5 62.25" color-interpolation-filters="sRGB" fill="none" fill-rule="evenodd" font-size="12" overflow="visible" stroke-linecap="square" stroke-miterlimit="3">
  <v:documentProperties v:langID="4108" v:metric="true" v:viewMarkup="false"/>
  <style>
    .st1,.st3{fill:#fff;stroke:none;stroke-linecap:butt;stroke-width:.75}.st3{fill:#515150}
  </style>
  <g v:mID="0" v:index="1" v:groupContext="foregroundPage">
    <v:pageProperties v:drawingScale=".039" v:pageScale=".039" v:drawingUnits="24" v:shadowOffsetX="8.504" v:shadowOffsetY="-8.504"/>
    <g id="group1103-1" transform="translate(.75 -.75)" v:mID="1103" v:groupContext="group">
      <g id="group1104-2" transform="translate(0 -3.75)" v:mID="1104" v:groupContext="group">
        <g id="shape1105-3" v:mID="1105" v:groupContext="shape">
          <path d="M0 62.25V10.5c0-2.93 2.33-5.25 5.25-5.25h21c2.93 0 5.25 2.32 5.25 5.25v51.75H0z" class="st1"/>
        </g>
        <g id="shape1106-5" v:mID="1106" v:groupContext="shape" transform="translate(2.25 -2.25)">
          <path d="M24 9.75H3c-1.65 0-3 1.35-3 3v49.5h27v-49.5c0-1.65-1.35-3-3-3zm-2.25 46.5H5.25V54h16.5v2.25zm0-6.75H5.25v-2.25h16.5v2.25zm0-30.75H5.25V16.5h16.5v2.25z" fill="#515050" stroke-linecap="butt" stroke-width=".75"/>
        </g>
      </g>
      <g id="group1107-7" transform="translate(17.25)" v:mID="1107" v:groupContext="group">
        <g id="shape1108-8" v:mID="1108" v:groupContext="shape">
          <path d="M3.75 62.25C1.65 62.25 0 60.6 0 58.5V42.75C0 40.65 1.65 39 3.75 39H30c2.1 0 3.75 1.65 3.75 3.75V58.5c0 2.1-1.65 3.75-3.75 3.75H3.75z" class="st1"/>
        </g>
        <g id="shape1109-10" v:mID="1109" v:groupContext="shape" transform="translate(21 -9.375)">
          <path d="M2.63 57C1.2 57 0 58.2 0 59.62c0 1.43 1.2 2.63 2.63 2.63 1.42 0 2.62-1.2 2.62-2.63 0-1.42-1.2-2.62-2.62-2.62z" class="st3"/>
        </g>
        <g id="shape1110-12" v:mID="1110" v:groupContext="shape" transform="translate(7.5 -9.375)">
          <path d="M2.63 57C1.2 57 0 58.2 0 59.62c0 1.43 1.2 2.63 2.63 2.63 1.42 0 2.62-1.2 2.62-2.63 0-1.42-1.2-2.62-2.62-2.62z" class="st3"/>
        </g>
        <g id="shape1111-14" v:mID="1111" v:groupContext="shape" transform="translate(2.25 -2.25)">
          <path d="M27.75 43.5H1.5c-.83 0-1.5.67-1.5 1.5v15.75c0 .82.67 1.5 1.5 1.5h26.25c.83 0 1.5-.68 1.5-1.5V45c0-.83-.67-1.5-1.5-1.5zm-1.13 9.3c-.14 2.85-2.62 4.95-5.47 4.95H8.1c-2.78 0-5.25-2.1-5.4-4.95-.22-3.3 2.62-5.93 5.92-5.55 2.11.3 3.91 1.87 4.43 3.9.3 1.27.15 2.55-.38 3.6-.14.3.08.67.45.67h3.23c.37 0 .6-.37.45-.67-.52-1.13-.68-2.33-.38-3.6.53-2.1 2.33-3.6 4.43-3.9 3.15-.38 5.93 2.32 5.77 5.55z" class="st3"/>
        </g>
      </g>
    </g>
  </g>
</svg>
