<svg xmlns="http://www.w3.org/2000/svg" xmlns:v="http://schemas.microsoft.com/visio/2003/SVGExtensions/" width="78" height="84.1" viewBox="0 0 58.5 63.075" color-interpolation-filters="sRGB" fill="none" fill-rule="evenodd" font-size="12" overflow="visible" stroke-linecap="square" stroke-miterlimit="3">
  <v:documentProperties v:langID="4108" v:metric="true" v:viewMarkup="false"/>
  <style>
    .st1,.st2{fill:#fff;stroke:none;stroke-linecap:butt;stroke-width:.75}.st2{fill:#515050}
  </style>
  <g v:mID="0" v:index="1" v:groupContext="foregroundPage">
    <v:pageProperties v:drawingScale=".039" v:pageScale=".039" v:drawingUnits="24" v:shadowOffsetX="8.504" v:shadowOffsetY="-8.504"/>
    <g id="group1135-1" transform="translate(.75 -.75)" v:mID="1135" v:groupContext="group">
      <g id="group1136-2" v:mID="1136" v:groupContext="group">
        <g id="shape1137-3" v:mID="1137" v:groupContext="shape" transform="translate(0 -3.075)">
          <path d="M50.25 47.85l-24 13.88v1.35l-1.13-.68-1.12.68v-1.35L0 47.85V19.13l1.57-.9L25.12 4.58l25.13 14.55v28.72z" class="st1"/>
        </g>
        <g id="shape1138-5" v:mID="1138" v:groupContext="shape" transform="translate(4.05 -34.575)">
          <path d="M0 50.85L21.07 38.7l21 12.15-21 12.23L0 50.85z" class="st2"/>
        </g>
        <g id="shape1139-7" v:mID="1139" v:groupContext="shape" transform="translate(2.25 -7.05)">
          <path d="M0 50.48V25.2l21.75 12.6v25.28L0 50.48z" class="st2"/>
        </g>
        <g id="shape1140-9" v:mID="1140" v:groupContext="shape" transform="translate(26.25 -7.05)">
          <path d="M0 37.73l21.75-12.6v25.35L0 63.08V37.73z" class="st2"/>
        </g>
        <g id="group1141-11" transform="translate(18.75)" v:mID="1141" v:groupContext="group">
          <g id="shape1142-12" v:mID="1142" v:groupContext="shape">
            <path d="M25.43 63.08c-1.58 0-3.23-.53-4.5-1.5-.83-.68-1.43-1.43-1.8-2.33-.3.75-.76 1.35-1.35 1.95-1.28 1.28-3.08 1.88-4.88 1.88-1.2 0-1.87 0-2.85-.08-.45 0-.98 0-1.65-.07-2.7-.08-5.62-2.03-6.75-5.25H.9c-.53 0-.9-.45-.9-.98v-3.6c0-.23.08-.45.22-.6l5.41-5.48.45-.45.15-.07c1.04-.83 2.1-1.2 3.15-1.2.74 0 1.5.22 2.1.6 1.87 1.2 2.17 3.22 2.25 4.43h10.8c0-1.21.37-3.23 2.25-4.43.67-.38 1.35-.6 2.1-.6 1.05 0 2.1.37 3.15 1.2l.15.07.75.75 5.1 5.18c.14.15.22.37.22.6v3.6c0 .53-.37.98-.9.98h-.67c-1.05 3.3-3.9 5.25-6.53 5.25-.9 0-1.57 0-2.25.07-.82.08-1.5.08-2.47.08z" class="st1"/>
          </g>
          <g id="shape1143-14" v:mID="1143" v:groupContext="shape" transform="translate(2.25 -2.4)">
            <path d="M29.1 51.3l-.6-.6c-.67-.53-1.8-1.05-2.77-.45-.98.6-1.13 1.72-1.2 2.47-.01.38.3.68.6.68h.3c.37 0 .67-.3.6-.68 0-.52.07-1.2.9-1.05.45.08.9.75.9.75l.52.68 1.43 1.95H4.05l1.35-1.88.68-.82c-.01 0 .45-.53.82-.68.82-.22.9.45.9 1.05 0 .38.23.68.6.68h.3c.38 0 .6-.3.6-.68 0-.75-.22-1.87-1.2-2.47-.98-.6-2.03-.08-2.77.45l-.3.3-4.8 4.88c-.15.15-.23.29-.23.45v1.05c0 .22.22.44.45.45h.75C1.5 61.13 4.05 63 6.15 63c2.1.08 2.78.08 4.65.08 1.8 0 4.43-1.35 4.28-4.5h.22c.15-1.13.75-1.95 1.5-1.95s1.35.82 1.5 1.95h.23c-.23 3.15 2.47 4.5 4.27 4.5 1.88 0 2.93-.08 4.88-.08 1.95 0 4.42-1.87 4.72-5.17h.75c.23 0 .45-.23.45-.45v-1.05c0-.16-.07-.38-.22-.45L29.1 51.3zM9.08 61.8c-2.93-.07-4.2.08-5.03-2.25-.82-2.32.9-3.07 2.48-3.15 1.57-.08 2.62 0 4.12 0s2.55.9 2.48 2.7c-.08 1.8-1.05 2.78-4.05 2.7zm20.7-2.25c-.83 2.33-2.11 2.1-5.03 2.25-2.92.08-3.9-.9-3.97-2.7-.08-1.8.97-2.62 2.47-2.7 1.65 0 3.08-.08 4.43 0 1.35.08 2.92.9 2.1 3.15z" class="st2"/>
          </g>
        </g>
        <g id="shape1144-16" v:mID="1144" v:groupContext="shape" transform="translate(38.775 -11.625)">
          <path d="M5.03 58.88L0 62.1l.9.83 3.98.15.9-.9.22-3-.97-.3z" class="st1"/>
        </g>
      </g>
    </g>
  </g>
</svg>
