<svg xmlns="http://www.w3.org/2000/svg" xmlns:v="http://schemas.microsoft.com/visio/2003/SVGExtensions/" width="84.689" height="77" viewBox="0 0 63.517 57.75" color-interpolation-filters="sRGB" fill="none" fill-rule="evenodd" font-size="12" overflow="visible" stroke-linecap="square" stroke-miterlimit="3">
  <v:documentProperties v:langID="4108" v:metric="true" v:viewMarkup="false"/>
  <style>
    .st1,.st2{fill:#fff;stroke:none;stroke-linecap:butt;stroke-width:.75}.st2{fill:#515050}
  </style>
  <g v:mID="0" v:index="1" v:groupContext="foregroundPage">
    <v:pageProperties v:drawingScale=".039" v:pageScale=".039" v:drawingUnits="24" v:shadowOffsetX="8.504" v:shadowOffsetY="-8.504"/>
    <g id="group1145-1" transform="translate(.75 -.75)" v:mID="1145" v:groupContext="group">
      <g id="group1146-2" v:mID="1146" v:groupContext="group">
        <g id="group1147-3" transform="translate(0 -21)" v:mID="1147" v:groupContext="group">
          <g id="shape1148-4" v:mID="1148" v:groupContext="shape">
            <path d="M0 57.75V22.5h60.75v35.25H0z" class="st1"/>
          </g>
          <g id="group1149-6" transform="translate(9.15 -12)" v:mID="1149" v:groupContext="group">
            <g id="shape1150-7" v:mID="1150" v:groupContext="shape">
              <path d="M7.42 57.75L5.1 53.7c-.08-.07-.08-.15-.08-.3l-.07-.3c-.08.08-.08.23-.08.3 0 .08-.07.15-.15.3l-2.47 4.05H0l3.67-5.55L.3 46.73h2.25l1.95 3.6c.15.3.3.6.37.82.08-.15.08-.22.15-.37.08-.15.15-.3.23-.45l2.1-3.6h2.02L5.92 52.2l3.68 5.55H7.42z" class="st2"/>
            </g>
            <g id="shape1151-9" v:mID="1151" v:groupContext="shape" transform="translate(11.1)">
              <path d="M10.12 57.75V50.7c.01-.75.01-1.42.08-2.02v-.38c-.07.6-.23.98-.3 1.2l-3.37 8.25h-1.2l-3.38-8.1c-.07-.15-.15-.52-.3-1.27h-.08c.08.6.08 1.5.08 2.62v6.75H0V46.73h2.63L5.4 53.7c.3.68.45 1.2.53 1.5H6c.22-.6.45-1.12.6-1.57l2.85-6.98h2.47v11.1h-1.8z" class="st2"/>
            </g>
            <g id="shape1152-11" v:mID="1152" v:groupContext="shape" transform="translate(25.725)">
              <path d="M1.8 53.78v3.97H0V46.73h3.38c1.27 0 2.25.3 2.92.9.67.6 1.05 1.42 1.05 2.55 0 1.05-.38 1.95-1.12 2.62-.76.68-1.8 1.05-3.08 1.05H1.8v-.07zm0-5.48v3.98H3c.75 0 1.35-.15 1.8-.53.45-.37.67-.82.68-1.5-.01-.6-.23-1.12-.6-1.42-.38-.3-.98-.53-1.73-.53H1.8z" class="st2"/>
            </g>
            <g id="shape1153-13" v:mID="1153" v:groupContext="shape" transform="translate(34.5)">
              <path d="M1.8 53.78v3.97H0V46.73h3.38c1.27 0 2.25.3 2.92.9.67.6 1.05 1.42 1.05 2.55 0 1.05-.38 1.95-1.12 2.62-.76.68-1.8 1.05-3.08 1.05H1.8v-.07zm0-5.48v3.98H3c.75 0 1.35-.15 1.8-.53.45-.37.67-.82.68-1.5-.01-.6-.23-1.12-.6-1.42-.38-.3-.98-.53-1.73-.53H1.8z" class="st2"/>
            </g>
          </g>
          <g id="shape1154-15" v:mID="1154" v:groupContext="shape" transform="translate(2.25 -2.25)">
            <path d="M0 27v30.75h56.25V27H0zm54 28.5H2.25V29.25H54V55.5z" class="st2"/>
          </g>
        </g>
        <g id="group1155-17" transform="translate(28.575)" v:mID="1155" v:groupContext="group">
          <g id="shape1156-18" v:mID="1156" v:groupContext="shape">
            <path d="M20.85 57.75c-1.2 0-2.32-.75-2.77-1.87l-.68-1.58h-1.27l-.68 1.58c-.37 1.12-1.5 1.87-2.7 1.87-.37 0-.82-.07-1.12-.22l-2.85-1.2c-.75-.3-1.36-.9-1.65-1.65-.3-.75-.3-1.58 0-2.33l.67-1.57-.82-.83-1.58.68c-.37.15-.75.22-1.12.22-1.2 0-2.33-.75-2.78-1.87L.3 46.13c-.3-.75-.3-1.58 0-2.33s.9-1.35 1.65-1.65l1.58-.67v-1.2l-1.58-.68C1.2 39.3.6 38.7.3 37.95c-.3-.75-.3-1.57 0-2.32l1.2-2.85a3.023 3.023 0 0 1 2.78-1.88c.37 0 .75.08 1.12.23l1.58.67.82-.82-.67-1.58c-.3-.75-.3-1.57 0-2.32.29-.75.9-1.35 1.65-1.65l2.85-1.2c.37-.15.75-.23 1.12-.23 1.2 0 2.33.75 2.78 1.88l.6 1.5h1.27l.6-1.58a3.029 3.029 0 0 1 2.78-1.87c.37 0 .75.07 1.12.22l2.85 1.2c.75.3 1.35.9 1.65 1.65.3.75.3 1.58 0 2.33l-.67 1.57.82.83 1.58-.68c.37-.15.75-.22 1.12-.22 1.2 0 2.33.75 2.78 1.87l1.2 2.85c.3.75.3 1.58 0 2.33s-.9 1.35-1.65 1.65L30 40.2v1.2l1.58.68c1.57.67 2.25 2.4 1.65 3.97l-1.2 2.85a3.023 3.023 0 0 1-2.78 1.88c-.37 0-.82-.08-1.2-.23l-1.57-.67-.83.82.68 1.58c.29.75.29 1.57 0 2.32-.3.75-.9 1.35-1.65 1.65l-2.85 1.2c-.15.23-.6.3-.98.3zM16.8 35.4c-3 0-5.47 2.48-5.47 5.48 0 3 2.47 5.47 5.47 5.47 3 0 5.47-2.47 5.48-5.47-.01-3-2.48-5.48-5.48-5.48z" class="st1"/>
          </g>
          <g id="shape1157-20" v:mID="1157" v:groupContext="shape" transform="translate(2.025 -2.1)">
            <path d="M28.95 46.35l-2.4-.97c-.37-.15-.67-.38-.67-.45 0-.08.07-.53.07-.9v-1.95c0-.45-.07-.83-.07-.9 0-.08.3-.3.67-.45l2.4-.98c.38-.15.6-.6.45-1.05l-1.2-2.85c-.15-.37-.6-.6-1.05-.45l-2.4.98c-.37.15-.75.22-.82.15-.08-.08-.31-.38-.6-.75l-1.43-1.35c-.3-.3-.67-.53-.67-.6-.08-.08 0-.38.15-.83l.97-2.4c.15-.37 0-.82-.45-1.05l-2.85-1.2c-.38-.15-.83 0-1.05.45l-.97 2.4c-.15.38-.38.68-.45.68-.08 0-.53-.08-.9-.15 0 0-.38-.08-.98-.08s-.98.08-.98.08c-.45.07-.82.07-.89.15-.08 0-.31-.3-.46-.68l-.97-2.4c-.15-.37-.6-.6-1.05-.45l-2.85 1.2c-.37.15-.6.6-.45 1.05l.98 2.4c.14.38.22.75.15.83-.08.07-.38.3-.68.6l-1.42 1.42c-.3.3-.53.68-.6.75-.08.08-.38 0-.83-.15L2.4 35.33c-.37-.15-.82 0-1.05.45l-1.2 2.85c-.15.37 0 .82.45 1.05l2.4.97c.37.15.67.38.68.45-.01.08-.08.53-.08.9v1.95c0 .45.07.83.08.9-.01.08-.31.3-.68.45L.6 46.35c-.37.15-.6.6-.45 1.05l1.2 2.85c.15.38.6.6 1.05.45l2.4-.97c.38-.15.75-.23.83-.15.07.07.3.37.6.75l1.42 1.35c.3.3.67.52.75.6.07.07 0 .45-.15.82l-1.12 2.25c-.15.38 0 .83.45 1.05l2.85 1.2c.37.15.82 0 1.04-.45l.98-2.4c.15-.37.37-.67.45-.67.07 0 .52.07.9.15 0 0 .38.07.98.07s.97-.07.97-.07c.45-.08.83-.08.9-.15.08 0 .3.3.45.67l.98 2.4c.14.38.59.6 1.05.45l2.85-1.2c.37-.15.59-.6.45-1.05l-.98-2.4c-.15-.37-.22-.75-.15-.82.08-.08.38-.3.75-.6l1.43-1.43c.29-.3.52-.67.6-.75.07-.07.37 0 .82.15l2.4.98c.37.15.82 0 1.05-.45l1.2-2.85c-.07-.23-.22-.68-.6-.83zM14.78 50.7c-4.28 0-7.73-3.45-7.73-7.72 0-4.28 3.45-7.73 7.73-7.73 4.27 0 7.72 3.45 7.72 7.73 0 4.27-3.45 7.72-7.72 7.72z" fill="#515150" stroke-linecap="butt" stroke-width=".75"/>
          </g>
        </g>
      </g>
    </g>
  </g>
</svg>
