<svg xmlns="http://www.w3.org/2000/svg" xmlns:v="http://schemas.microsoft.com/visio/2003/SVGExtensions/" width="97.125" height="69" viewBox="0 0 72.844 51.75" color-interpolation-filters="sRGB" fill="none" fill-rule="evenodd" font-size="12" overflow="visible" stroke-linecap="square" stroke-miterlimit="3">
  <v:documentProperties v:langID="4108" v:metric="true" v:viewMarkup="false"/>
  <style>
    .st2{fill:#505050;stroke:none;stroke-linecap:butt;stroke-width:.75}
  </style>
  <g v:mID="0" v:index="1" v:groupContext="foregroundPage">
    <v:pageProperties v:drawingScale=".039" v:pageScale=".039" v:drawingUnits="24" v:shadowOffsetX="8.504" v:shadowOffsetY="-8.504"/>
    <v:layer v:name="symbols" v:index="0"/>
    <g id="group107-1" transform="translate(5.269 -5.438)" v:mID="107" v:groupContext="group" v:layerMember="0">
      <g id="group108-2" v:mID="108" v:groupContext="group" v:layerMember="0">
        <g id="shape109-3" v:mID="109" v:groupContext="shape" v:layerMember="0">
          <path d="M49.8 23.7c-2.77-4.57-7.73-7.35-13.12-7.35-.46 0-.83 0-1.28.08l-.08-.08c-2.54-4.13-6.97-6.6-11.85-6.6-5.17 0-9.82 2.85-12.3 7.35C5.02 17.4 0 22.5 0 28.8c0 6.45 5.25 11.77 11.78 11.77h.59v.23c.98 6.38 6.01 10.95 12.08 10.95H48c7.73 0 14.25-6.45 14.25-14.17 0-7.13-5.48-13.13-12.45-13.88z" fill="#fff" stroke-linecap="butt" stroke-width=".75"/>
        </g>
        <g id="shape110-5" v:mID="110" v:groupContext="shape" v:layerMember="0" transform="translate(2.25 -11.25)">
          <path d="M34.35 44.4c-1.5 0-2.78.9-3.38 2.18H9.52c-3.6 0-6.6-2.93-6.6-6.6 0-3.68 2.93-6.6 6.6-6.6h3c.15-.76.38-1.5.68-2.18.15-.22.22-.52.37-.75 1.5-2.62 4.35-4.35 7.58-4.35 2.92 0 5.47 1.43 7.05 3.53.9-.45 1.87-.75 2.85-.98-2.1-3.3-5.7-5.47-9.9-5.47-4.88 0-9.07 3-10.8 7.27v0h-.83C4.28 30.53 0 34.8 0 40.05s4.28 9.53 9.52 9.53h21.53c.6 1.27 1.87 2.17 3.37 2.17 2.03 0 3.68-1.65 3.68-3.67-.08-2.03-1.73-3.68-3.75-3.68z" class="st2"/>
        </g>
        <g id="shape111-7" v:mID="111" v:groupContext="shape" v:layerMember="0" transform="translate(14.625 -2.25)">
          <path d="M33.37 51.75c6.45 0 12-5.48 12-11.93 0-6.45-5.17-11.62-11.62-11.7-2.18-4.35-6.6-7.27-11.78-7.27-6.29 0-11.55 4.42-12.82 10.27-3.08.3-5.7 1.96-7.35 4.28h15.67c1.06-1.35 2.7-2.18 4.58-2.18 3.22 0 5.85 2.63 5.85 5.85 0 3.23-2.63 5.85-5.85 5.85-1.88 0-3.45-.82-4.58-2.17H0c.67 4.95 4.65 9 9.82 9h23.55z" class="st2"/>
        </g>
      </g>
    </g>
  </g>
</svg>
