<svg xmlns="http://www.w3.org/2000/svg" xmlns:v="http://schemas.microsoft.com/visio/2003/SVGExtensions/" width="105" height="78" viewBox="0 0 78.75 58.5" color-interpolation-filters="sRGB" fill="none" fill-rule="evenodd" font-size="12" overflow="visible" stroke-linecap="square" stroke-miterlimit="3">
  <v:documentProperties v:langID="4108" v:metric="true" v:viewMarkup="false"/>
  <style>
    .st1,.st3{fill:#fff;stroke:none;stroke-linecap:butt;stroke-width:.75}.st3{fill:#2372ba}
  </style>
  <g v:mID="0" v:index="1" v:groupContext="foregroundPage">
    <v:pageProperties v:drawingScale=".039" v:pageScale=".039" v:drawingUnits="24" v:shadowOffsetX="8.504" v:shadowOffsetY="-8.504"/>
    <v:layer v:name="symbols" v:index="0"/>
    <g id="group27-1" transform="translate(7.313 -8.438)" v:mID="27" v:groupContext="group" v:layerMember="0">
      <g id="group28-2" v:mID="28" v:groupContext="group" v:layerMember="0">
        <g id="group29-3" v:mID="29" v:groupContext="group" v:layerMember="0">
          <g id="shape30-4" v:mID="30" v:groupContext="shape" v:layerMember="0">
            <path d="M11.02 58.5C4.95 58.5 0 53.32 0 46.95 0 40.72 4.65 35.7 10.42 35.4c1.81-2.1 4.2-3.3 6.9-3.53 1.28-5.77 6.23-10.05 12-10.05 3.83 0 7.35 1.88 9.68 5.03 1.05-.3 2.1-.45 3.15-.45 6.6 0 12 5.7 12 12.6 2.7 2.02 4.27 5.25 4.27 8.7 0 4.95-3.15 9.23-7.72 10.42h-.08l-1.5.31h-38.1v.07z" class="st1"/>
          </g>
          <g id="shape31-6" v:mID="31" v:groupContext="shape" v:layerMember="0" transform="translate(2.25 -2.25)">
            <path d="M49.65 42.45c.07-.38.07-.75.07-1.13 0-5.77-4.35-10.42-9.75-10.42-1.42 0-2.77.3-4.05.97-1.8-3.37-5.17-5.55-8.77-5.55-5.4 0-9.75 4.5-10.13 10.13-.45-.08-.82-.15-1.27-.15-2.55 0-4.95 1.35-6.45 3.52h-.6C3.9 39.9 0 44.1 0 49.2c0 5.1 3.9 9.3 8.77 9.3h37.95l1.2-.23c3.6-.97 6.08-4.34 6.08-8.25 0-3.22-1.72-6.14-4.35-7.57zM47.4 56.1l-.9.15H8.77c-3.6 0-6.52-3.15-6.52-7.05s2.85-7.05 6.45-7.05h.45l1.27.07.75-1.12c1.06-1.65 2.78-2.55 4.58-2.55.3 0 .6 0 .9.07l2.47.45.15-2.55c.23-4.42 3.68-7.95 7.88-7.95 2.78 0 5.4 1.65 6.75 4.35l1.05 1.95 1.95-.97c.97-.45 2.02-.75 3.07-.75 4.13 0 7.5 3.68 7.5 8.17 0 .31.01.6-.07.9l-.15 1.5 1.35.75c1.95 1.06 3.15 3.23 3.15 5.55 0 2.86-1.8 5.33-4.35 6.08z" fill="#505050" stroke-linecap="butt" stroke-width=".75"/>
          </g>
        </g>
        <g id="group32-8" transform="translate(33.75 -12)" v:mID="32" v:groupContext="group" v:layerMember="0">
          <g id="shape33-9" v:mID="33" v:groupContext="shape" v:layerMember="0">
            <path d="M27 34.5h-8.25V30h-2.4L0 32.55v23.33l16.35 2.62h2.4v-3.75H27c1.65 0 3-1.35 3-3V37.5c0-1.65-1.35-3-3-3z" class="st1"/>
          </g>
          <g id="shape34-11" v:mID="34" v:groupContext="shape" v:layerMember="0" transform="translate(20.4 -8.25)">
            <path d="M4.43 54.23c-.75-.6-1.95-1.58-2.85-2.1-.45-.23-.9-.45-.9-.53-.01 0-.08.08-.15.08l-.16.15v.15s2.78 2.7 3.08 3c.07.07.07.22.08.3v1.42c-.01.08-.08.15-.16.15H1.5c-.08 0-.15 0-.23-.07l-.59-.53c-.08-.07-.08-.07-.15 0L0 57v.23s1.13 1.05 1.2 1.12c.08.07.15.15.37.15h3.16c.22 0 .37-.15.37-.37v-3c0-.3-.22-.53-.67-.9z" class="st3"/>
          </g>
          <g id="shape35-13" v:mID="35" v:groupContext="shape" v:layerMember="0" transform="translate(18.675 -14.4)">
            <path d="M0 57.83s.07.07.07.15l.15.15h.16s2.7-2.78 3-3.08c.07-.07.22-.07.3-.07H5.1c.08 0 .15.07.15.15V57c0 .08 0 .15-.07.23l-.6.6c-.08.07-.08.07 0 .15l.75.52h.22s1.05-1.12 1.13-1.2c.07-.07.15-.15.15-.37v-3.15c0-.23-.15-.38-.38-.38h-3c-.23 0-.45.23-.82.68-.6.75-1.58 1.95-2.1 2.85-.23.37-.46.82-.53.9z" class="st3"/>
          </g>
          <g id="shape36-15" v:mID="36" v:groupContext="shape" v:layerMember="0" transform="translate(2.25 -2.25)">
            <path d="M24.75 39h-10.5v-4.5L0 36.75v19.5l14.25 2.25v-3.75h10.5c.45 0 .75-.3.75-.75V39.75c0-.45-.3-.75-.75-.75zm-.37 14.63H14.25V52.5h1.13c.22 0 .45-.22.82-.67.6-.75 1.58-1.95 2.1-2.85.22-.45.45-.9.53-.9 0 0-.08-.08-.08-.15l-.15-.15h-.15s-2.7 2.77-3 3.07c-.07.08-.22.08-.3.08h-.9v-4.2c.45.3 1.13.75 1.28.82.44.23.89.45.9.53-.01 0 .07-.08.15-.08l.15-.15v-.15s-1.5-1.42-2.48-2.4v-2.55h1.35c.08 0 .15 0 .23.08l.67.6c.08.07.08.07.15 0l.53-.75v-.23s-1.13-1.05-1.2-1.12c-.15 0-.23-.08-.45-.08h-1.28v-1.12h10.13v13.5z" class="st3"/>
          </g>
          <g id="shape37-17" v:mID="37" v:groupContext="shape" v:layerMember="0" transform="translate(7.2 -8.925)">
            <path d="M4.35 58.5L0 58.12v-9.29l4.05-.3v1.8l-2.47.07v2.18h2.47v1.8l-2.47-.08v2.18l2.85.15v1.87h-.08z" class="st1"/>
          </g>
        </g>
      </g>
    </g>
  </g>
</svg>
