<svg xmlns="http://www.w3.org/2000/svg" xmlns:v="http://schemas.microsoft.com/visio/2003/SVGExtensions/" width="105" height="78" viewBox="0 0 78.75 58.5" color-interpolation-filters="sRGB" fill="none" fill-rule="evenodd" font-size="12" overflow="visible" stroke-linecap="square" stroke-miterlimit="3">
  <v:documentProperties v:langID="4108" v:metric="true" v:viewMarkup="false"/>
  <style>
    .st1{fill:#fff;stroke:none;stroke-linecap:butt;stroke-width:.75}
  </style>
  <g v:mID="0" v:index="1" v:groupContext="foregroundPage">
    <v:pageProperties v:drawingScale=".039" v:pageScale=".039" v:drawingUnits="24" v:shadowOffsetX="8.504" v:shadowOffsetY="-8.504"/>
    <v:layer v:name="symbols" v:index="0"/>
    <g id="group38-1" transform="translate(7.5 -8.438)" v:mID="38" v:groupContext="group" v:layerMember="0">
      <g id="group39-2" v:mID="39" v:groupContext="group" v:layerMember="0">
        <g id="group40-3" v:mID="40" v:groupContext="group" v:layerMember="0">
          <g id="shape41-4" v:mID="41" v:groupContext="shape" v:layerMember="0">
            <path d="M11.02 58.5C4.95 58.5 0 53.32 0 46.95 0 40.72 4.65 35.7 10.42 35.4c1.81-2.1 4.2-3.3 6.9-3.53 1.28-5.77 6.23-10.05 12-10.05 3.83 0 7.35 1.88 9.68 5.03 1.05-.3 2.1-.45 3.15-.45 6.6 0 12 5.7 12 12.6 2.7 2.02 4.27 5.25 4.27 8.7 0 4.95-3.15 9.23-7.72 10.42h-.08l-1.5.31h-38.1v.07z" class="st1"/>
          </g>
          <g id="shape42-6" v:mID="42" v:groupContext="shape" v:layerMember="0" transform="translate(2.25 -2.25)">
            <path d="M49.65 42.45c.07-.38.07-.75.07-1.13 0-5.77-4.35-10.42-9.75-10.42-1.42 0-2.77.3-4.05.97-1.8-3.37-5.17-5.55-8.77-5.55-5.4 0-9.75 4.5-10.13 10.13-.45-.08-.82-.15-1.27-.15-2.55 0-4.95 1.35-6.45 3.52h-.6C3.9 39.9 0 44.1 0 49.2c0 5.1 3.9 9.3 8.77 9.3h37.95l1.2-.23c3.6-.97 6.08-4.34 6.08-8.25 0-3.22-1.72-6.14-4.35-7.57zM47.4 56.1l-.9.15H8.77c-3.6 0-6.52-3.15-6.52-7.05s2.85-7.05 6.45-7.05h.45l1.27.07.75-1.12c1.06-1.65 2.78-2.55 4.58-2.55.3 0 .6 0 .9.07l2.47.45.15-2.55c.23-4.42 3.68-7.95 7.88-7.95 2.78 0 5.4 1.65 6.75 4.35l1.05 1.95 1.95-.97c.97-.45 2.02-.75 3.07-.75 4.13 0 7.5 3.68 7.5 8.17 0 .31.01.6-.07.9l-.15 1.5 1.35.75c1.95 1.06 3.15 3.23 3.15 5.55 0 2.86-1.8 5.33-4.35 6.08z" fill="#505050" stroke-linecap="butt" stroke-width=".75"/>
          </g>
        </g>
        <g id="group43-8" transform="translate(34.5 -12)" v:mID="43" v:groupContext="group" v:layerMember="0">
          <g id="shape44-9" v:mID="44" v:groupContext="shape" v:layerMember="0">
            <path d="M27.9 41.03c-.6-.6-1.43-1.05-2.25-1.28a7.927 7.927 0 0 0-2.7-2.7c-.45-1.95-2.1-3.52-4.2-3.6V30h-2.4L0 32.55v23.33l16.35 2.62h2.4v-3.37c2.1-.16 3.75-1.65 4.2-3.6a9.512 9.512 0 0 0 2.7-2.7c2.1-.46 3.6-2.33 3.6-4.5 0-1.28-.45-2.48-1.35-3.3z" class="st1"/>
          </g>
          <g id="shape45-11" v:mID="45" v:groupContext="shape" v:layerMember="0" transform="translate(2.25 -2.25)">
            <path d="M14.25 34.5L0 36.75v19.5l14.25 2.25v-24z" fill="#2372ba" stroke-linecap="butt" stroke-width=".75"/>
          </g>
          <g id="shape46-13" v:mID="46" v:groupContext="shape" v:layerMember="0" transform="translate(6.525 -9.525)">
            <path d="M3.08 48.53c-1.2.07-2.33.75-2.7 1.95C0 51.75.45 52.95 1.5 53.7c.67.53 2.47 1.13 1.88 2.33-.3.52-.9.52-1.43.45-.67-.08-1.2-.45-1.72-.98V57.3c0 .23.07.22.3.37 1.5.83 4.04.68 4.65-1.19.3-.83.22-1.88-.3-2.63-.53-.75-1.28-1.12-2.03-1.57-.3-.23-.68-.46-.82-.83-.15-.37-.08-.82.22-1.12.75-.68 2.03-.23 2.7.3v-1.5-.38c0-.15-.07-.15-.22-.15-.45-.07-1.05-.07-1.65-.07z" class="st1"/>
          </g>
          <g id="shape47-15" v:mID="47" v:groupContext="shape" v:layerMember="0" transform="translate(17.325 -5.4)">
            <path d="M7.35 47.33c-.15 0-.3 0-.45.07-.6-1.57-1.88-2.85-3.53-3.52 0-.15.08-.3.08-.45 0-1.28-1.05-2.33-2.33-2.33-.37 0-.75.08-1.12.3v4.13c.3.15.67.3 1.12.3.68 0 1.28-.3 1.73-.75 1.35.52 2.4 1.57 2.92 3-.45.45-.75 1.05-.75 1.72 0 .68.3 1.28.75 1.73-.52 1.34-1.57 2.47-2.92 3-.45-.46-1.05-.75-1.73-.75-.37 0-.75.07-1.12.3v4.12c.3.15.67.3 1.12.3 1.28 0 2.33-1.05 2.33-2.32 0-.16 0-.31-.08-.45 1.58-.68 2.85-1.88 3.45-3.53.15 0 .3.07.45.08 1.28-.01 2.33-1.05 2.33-2.33.07-1.57-.98-2.62-2.25-2.62z" fill="#2073b7" stroke-linecap="butt" stroke-width=".75"/>
          </g>
        </g>
      </g>
    </g>
  </g>
</svg>
