<svg xmlns="http://www.w3.org/2000/svg" xmlns:v="http://schemas.microsoft.com/visio/2003/SVGExtensions/" width="97.125" height="84" viewBox="0 0 72.844 63" color-interpolation-filters="sRGB" fill="none" fill-rule="evenodd" font-size="12" overflow="visible" stroke-linecap="square" stroke-miterlimit="3">
  <v:documentProperties v:langID="4108" v:metric="true" v:viewMarkup="false"/>
  <style>
    .st1,.st2{fill:#fff;stroke:none;stroke-linecap:butt;stroke-width:.75}.st2{fill:#515251}
  </style>
  <g v:mID="0" v:index="1" v:groupContext="foregroundPage">
    <v:pageProperties v:drawingScale=".039" v:pageScale=".039" v:drawingUnits="24" v:shadowOffsetX="8.504" v:shadowOffsetY="-8.504"/>
    <v:layer v:name="symbols" v:index="0"/>
    <g id="group97-1" transform="translate(4.331 -6.6)" v:mID="97" v:groupContext="group" v:layerMember="0">
      <g id="group98-2" transform="translate(0 -14.25)" v:mID="98" v:groupContext="group" v:layerMember="0">
        <g id="shape99-3" v:mID="99" v:groupContext="shape" v:layerMember="0">
          <path d="M11.03 63C4.95 63 0 57.83 0 51.45 0 45.23 4.65 40.2 10.42 39.9c1.81-2.1 4.2-3.3 6.91-3.52 1.27-5.78 6.22-10.05 12-10.05 3.82 0 7.34 1.87 9.67 5.02 1.05-.3 2.1-.45 3.15-.45 6.6 0 12 5.7 12 12.6 2.7 2.03 4.27 5.25 4.27 8.7 0 4.95-3.15 9.23-7.72 10.43h-.08l-1.49.3h-38.1V63z" class="st1"/>
        </g>
        <g id="shape100-5" v:mID="100" v:groupContext="shape" v:layerMember="0" transform="translate(2.25 -2.25)">
          <path d="M49.65 46.95c.07-.37.07-.75.07-1.12 0-5.78-4.34-10.43-9.74-10.43-1.43 0-2.78.3-4.05.98-1.81-3.38-5.11-5.55-8.78-5.55-5.4 0-9.75 4.5-10.12 10.12-.46-.07-.83-.15-1.28-.15-2.55 0-4.95 1.35-6.45 3.53h-.6C3.9 44.4 0 48.6 0 53.7S3.9 63 8.77 63h37.96l1.19-.22c3.61-.98 6.08-4.35 6.08-8.25 0-3.23-1.72-6.15-4.35-7.58zM47.4 60.6l-.9.15H8.77c-3.6 0-6.52-3.15-6.52-7.05s2.85-7.05 6.45-7.05h.45l1.28.08.74-1.13c1.06-1.65 2.78-2.55 4.58-2.55.3 0 .6 0 .9.08l2.48.45.14-2.55c.23-4.5 3.68-8.03 7.88-8.03 2.78 0 5.4 1.65 6.75 4.35l1.05 1.95 1.95-.97c.98-.45 2.02-.75 3.08-.75 4.12 0 7.5 3.67 7.5 8.17 0 .3 0 .6-.08.9l-.15 1.5 1.35.75c1.95 1.05 3.15 3.23 3.15 5.55 0 2.93-1.8 5.4-4.35 6.15z" class="st2"/>
        </g>
      </g>
      <g id="group101-7" transform="translate(30.075)" v:mID="101" v:groupContext="group" v:layerMember="0">
        <g id="shape102-8" v:mID="102" v:groupContext="shape" v:layerMember="0">
          <path d="M20.85 63c-1.2 0-2.33-.75-2.78-1.87l-.67-1.58h-1.28l-.67 1.58c-.38 1.12-1.5 1.87-2.7 1.87-.37 0-.82-.07-1.13-.22l-2.85-1.2c-.74-.3-1.35-.9-1.65-1.65-.29-.75-.29-1.58 0-2.33l.68-1.57-.83-.83-1.57.68c-.37.15-.75.22-1.12.22-1.21 0-2.33-.75-2.78-1.87L.3 51.38c-.3-.75-.3-1.58 0-2.33s.9-1.35 1.65-1.65l1.57-.67v-1.2l-1.57-.68C1.2 44.55.6 43.95.3 43.2c-.3-.75-.3-1.57 0-2.32l1.2-2.85a3.012 3.012 0 0 1 2.78-1.88c.37 0 .75.08 1.12.23l1.57.67.83-.82-.68-1.58c-.29-.75-.29-1.57 0-2.32.3-.75.91-1.35 1.65-1.65l2.85-1.2c.38-.15.76-.23 1.13-.23 1.2 0 2.32.75 2.77 1.88l.6 1.5h1.28l.6-1.58a3.015 3.015 0 0 1 2.77-1.87c.38 0 .75.07 1.13.22l2.85 1.2c.75.3 1.35.9 1.65 1.65.3.75.3 1.58 0 2.33l-.68 1.57.83.83 1.57-.68c.38-.15.75-.22 1.13-.22 1.2 0 2.32.75 2.77 1.87l1.2 2.85c.3.75.3 1.58 0 2.33s-.9 1.35-1.65 1.65l-1.57.67v1.2l1.57.68c1.58.67 2.25 2.4 1.65 3.97l-1.2 2.85a3.009 3.009 0 0 1-2.77 1.88c-.38 0-.83-.08-1.2-.23l-1.58-.67-.82.82.67 1.58c.3.75.3 1.57 0 2.32-.3.75-.9 1.35-1.65 1.65l-2.85 1.2c-.15.23-.6.3-.97.3z" class="st1"/>
        </g>
        <g id="shape103-10" v:mID="103" v:groupContext="shape" v:layerMember="0" transform="translate(2.025 -2.1)">
          <path d="M28.95 51.6l-2.4-.97c-.38-.15-.68-.38-.68-.45 0-.08.08-.53.08-.9v-1.95c0-.45-.08-.83-.08-.9 0-.08.3-.3.68-.45l2.4-.98c.37-.15.6-.6.45-1.05l-1.2-2.85c-.15-.37-.6-.6-1.05-.45l-2.4.98c-.38.15-.75.22-.83.15-.07-.08-.3-.38-.6-.75l-1.42-1.35c-.3-.3-.68-.53-.68-.6-.07-.08 0-.38.15-.83l.98-2.4c.15-.37 0-.82-.45-1.05l-2.85-1.2c-.38-.15-.83 0-1.05.45l-.98 2.4c-.15.38-.37.68-.45.68-.07 0-.52-.08-.9-.15 0 0-.37-.08-.97-.08s-.98.08-.98.08c-.45.07-.82.07-.9.15-.07 0-.3-.3-.45-.68l-.97-2.4c-.15-.37-.6-.6-1.05-.45L7.5 34.8c-.37.15-.6.6-.45 1.05l.97 2.4c.15.38.23.75.15.83-.07.07-.37.3-.74.6L6 41.1c-.3.3-.53.68-.6.75-.08.08-.38 0-.83-.15L2.4 40.58c-.38-.15-.83 0-1.05.45l-1.2 2.85c-.15.37 0 .82.45 1.05l2.4.97c.37.15.67.38.67.45 0 .08-.07.53-.07.9v1.95c0 .45.07.83.07.9 0 .08-.3.3-.67.45L.6 51.6c-.37.15-.6.6-.45 1.05l1.2 2.85c.15.38.6.6.97.45l2.4-.97c.38-.15.75-.23.83-.15.07.07.3.37.6.75l1.42 1.35c.3.3.68.52.75.6.08.07 0 .45-.15.82L7.13 60.6c-.15.38 0 .83.44 1.05l2.85 1.2c.38.15.83 0 1.05-.45l.98-2.4c.15-.37.37-.67.45-.67.07 0 .52.07.9.15 0 0 .37.07.97.07s.98-.07.98-.07c.45-.08.82-.08.9-.15.07 0 .3.3.45.67l.97 2.4c.15.38.6.6 1.05.45l2.85-1.2c.38-.15.6-.6.45-1.05l-.97-2.4c-.15-.37-.23-.75-.15-.82.07-.08.37-.3.75-.6l1.42-1.43c.3-.3.53-.67.6-.75.08-.07.38 0 .83.15l2.4.98c.37.15.82 0 1.05-.45l1.2-2.85c-.08-.23-.23-.68-.6-.83zm-14.18 4.35c-4.27 0-7.72-3.45-7.72-7.72 0-4.28 3.45-7.73 7.72-7.73 4.28 0 7.73 3.45 7.73 7.73 0 4.27-3.45 7.72-7.73 7.72z" class="st2"/>
        </g>
      </g>
      <g id="group104-12" transform="translate(1.5 -5.25)" v:mID="104" v:groupContext="group" v:layerMember="0">
        <g id="shape105-13" v:mID="105" v:groupContext="shape" v:layerMember="0">
          <path d="M21.75 40.5h-9v3l3.37 3.75H0v9h16.12L12.75 60v3h9L33 51.75 21.75 40.5z" class="st1"/>
        </g>
        <g id="shape106-15" v:mID="106" v:groupContext="shape" v:layerMember="0" transform="translate(2.25 -2.25)">
          <path d="M19.35 51.75L12.75 45H18l9.6 9-8.85 9h-6l6.6-6.75H0v-4.5h19.35z" fill="#515050" stroke-linecap="butt" stroke-width=".75"/>
        </g>
      </g>
    </g>
  </g>
</svg>
