<svg xmlns="http://www.w3.org/2000/svg" xmlns:v="http://schemas.microsoft.com/visio/2003/SVGExtensions/" width="97.125" height="81" viewBox="0 0 72.844 60.75" color-interpolation-filters="sRGB" fill="none" fill-rule="evenodd" font-size="12" overflow="visible" stroke-linecap="square" stroke-miterlimit="3">
  <v:documentProperties v:langID="4108" v:metric="true" v:viewMarkup="false"/>
  <style>
    .st1,.st2{fill:#fff;stroke:none;stroke-linecap:butt;stroke-width:.75}.st2{fill:red}
  </style>
  <g v:mID="0" v:index="1" v:groupContext="foregroundPage">
    <v:pageProperties v:drawingScale=".039" v:pageScale=".039" v:drawingUnits="24" v:shadowOffsetX="8.504" v:shadowOffsetY="-8.504"/>
    <v:layer v:name="symbols" v:index="0"/>
    <g id="group21-1" transform="translate(7.256 -7.35)" v:mID="21" v:groupContext="group" v:layerMember="0">
      <g id="shape22-2" v:mID="22" v:groupContext="shape" v:layerMember="0" transform="translate(0 -10.5)">
        <path d="M11.03 60.75C4.95 60.75 0 55.58 0 49.2c0-6.22 4.65-11.25 10.42-11.55 1.81-2.1 4.2-3.3 6.91-3.52 1.27-5.78 6.22-10.05 12-10.05 3.82 0 7.34 1.87 9.67 5.02 1.05-.3 2.1-.45 3.15-.45 6.6 0 12 5.7 12 12.6 2.7 2.03 4.27 5.25 4.27 8.7 0 4.95-3.15 9.23-7.72 10.43h-.08l-1.49.3h-38.1v.07z" class="st1"/>
      </g>
      <g id="shape23-4" v:mID="23" v:groupContext="shape" v:layerMember="0" transform="translate(2.25 -12.75)">
        <path d="M49.65 44.7c.07-.37.07-.75.07-1.12 0-5.78-4.34-10.43-9.74-10.43-1.43 0-2.78.3-4.05.98-1.81-3.38-5.11-5.55-8.78-5.55-5.4 0-9.75 4.5-10.12 10.12-.46-.07-.83-.15-1.28-.15-2.55 0-4.95 1.35-6.45 3.53h-.6c-4.8.07-8.7 4.27-8.7 9.37s3.9 9.3 8.77 9.3h37.96l1.19-.22c3.61-.98 6.08-4.35 6.08-8.25 0-3.23-1.72-6.15-4.35-7.58zM47.4 58.35l-.9.15H8.77c-3.6 0-6.52-3.15-6.52-7.05S5.1 44.4 8.7 44.4h.45l1.28.08.74-1.13c1.06-1.65 2.78-2.55 4.58-2.55.3 0 .6 0 .9.08l2.48.45.14-2.55c.23-4.5 3.68-8.03 7.88-8.03 2.78 0 5.4 1.65 6.75 4.35l1.05 1.95 1.95-.97c.98-.45 2.02-.75 3.08-.75 4.12 0 7.5 3.67 7.5 8.17 0 .3 0 .6-.08.9l-.15 1.5 1.35.75c1.95 1.05 3.15 3.23 3.15 5.55 0 2.93-1.8 5.4-4.35 6.15z" class="st2"/>
      </g>
      <g id="shape24-6" v:mID="24" v:groupContext="shape" v:layerMember="0" transform="translate(23.1)">
        <path d="M3.75 60.75c-1.43 0-2.55-.6-3.15-1.65-.6-1.05-.6-2.4.15-3.6l13.2-24.3c.75-1.27 1.87-1.95 3.08-1.95 1.19 0 2.32.68 3.07 1.88L33.38 55.5c.67 1.2.74 2.48.07 3.53-.6 1.05-1.8 1.65-3.15 1.65H3.75v.07z" class="st1"/>
      </g>
      <g id="shape25-8" v:mID="25" v:groupContext="shape" v:layerMember="0" transform="translate(25.125 -2.25)">
        <path d="M29.4 58.88L16.05 34.5c-.6-1.05-1.57-1.05-2.17 0L.6 58.88c-.6 1.05-.07 1.87 1.13 1.87h26.55c1.2 0 1.72-.82 1.12-1.87z" class="st2"/>
      </g>
      <g id="shape26-10" v:mID="26" v:groupContext="shape" v:layerMember="0" transform="translate(38.625 -6.15)">
        <path d="M1.57 60.75c-.44 0-.82-.15-1.12-.45-.3-.3-.45-.6-.45-.97 0-.38.15-.75.45-1.05.3-.3.68-.45 1.12-.45.45 0 .75.15 1.05.45.3.3.45.6.45 1.05 0 .37-.15.75-.45.97-.3.3-.67.45-1.05.45zm1.2-15.6l-.22 10.88H.52L.23 45.15h2.54z" class="st1"/>
      </g>
    </g>
  </g>
</svg>
