<svg xmlns="http://www.w3.org/2000/svg" xmlns:v="http://schemas.microsoft.com/visio/2003/SVGExtensions/" width="97.125" height="64.5" viewBox="0 0 72.844 48.375" color-interpolation-filters="sRGB" fill="none" fill-rule="evenodd" font-size="12" overflow="visible" stroke-linecap="square" stroke-miterlimit="3">
  <v:documentProperties v:langID="4108" v:metric="true" v:viewMarkup="false"/>
  <style>
    .st1{fill:#fff;stroke:none;stroke-linecap:butt;stroke-width:.75}
  </style>
  <g v:mID="0" v:index="1" v:groupContext="foregroundPage">
    <v:pageProperties v:drawingScale=".039" v:pageScale=".039" v:drawingUnits="24" v:shadowOffsetX="8.504" v:shadowOffsetY="-8.504"/>
    <v:layer v:name="symbols" v:index="0"/>
    <g id="group1-1" transform="translate(4.931 -5.85)" v:mID="1" v:groupContext="group" v:layerMember="0">
      <g id="group2-2" v:mID="2" v:groupContext="group" v:layerMember="0">
        <g id="shape3-3" v:mID="3" v:groupContext="shape" v:layerMember="0">
          <path d="M11.03 48.37C4.95 48.37 0 43.2 0 36.83c0-6.23 4.65-11.25 10.42-11.56 1.81-2.1 4.2-3.3 6.9-3.52 1.28-5.78 6.23-10.05 12.01-10.05 3.82 0 7.34 1.88 9.67 5.03 1.05-.31 2.1-.46 3.15-.45 6.6 0 12 5.69 12 12.6 2.7 2.02 4.27 5.25 4.27 8.7 0 4.94-3.15 9.22-7.72 10.42h-.08l-1.5.3H11.03v.07z" class="st1"/>
        </g>
        <g id="shape4-5" v:mID="4" v:groupContext="shape" v:layerMember="0" transform="translate(2.25 -2.25)">
          <path d="M49.65 32.32c.07-.37.07-.74.07-1.12 0-5.77-4.34-10.43-9.74-10.43-1.43 0-2.78.3-4.05.98-1.81-3.37-5.18-5.55-8.78-5.55-5.4 0-9.75 4.5-10.12 10.12-.46-.07-.83-.14-1.28-.14-2.55 0-4.95 1.34-6.45 3.52h-.6c-4.8.07-8.7 4.27-8.7 9.37s3.9 9.3 8.77 9.3h37.96l1.19-.22C51.53 47.17 54 43.8 54 39.9c0-3.22-1.72-6.15-4.35-7.58zM47.4 45.97l-.9.15H8.77c-3.6 0-6.52-3.15-6.52-7.05s2.85-7.05 6.45-7.05h.45l1.28.08.74-1.12c1.06-1.65 2.78-2.56 4.58-2.55.3 0 .6 0 .9.07l2.48.45.14-2.55c.23-4.42 3.68-7.95 7.88-7.95 2.78 0 5.4 1.65 6.75 4.35l1.05 1.95 1.95-.97c.97-.46 2.02-.76 3.08-.76 4.12 0 7.5 3.68 7.5 8.18 0 .3 0 .6-.08.9l-.15 1.5 1.35.75c1.95 1.05 3.15 3.22 3.15 5.55 0 2.85-1.8 5.32-4.35 6.07z" fill="#515150" stroke-linecap="butt" stroke-width=".75"/>
        </g>
      </g>
      <g id="group5-7" transform="translate(38.25 -12.525)" v:mID="5" v:groupContext="group" v:layerMember="0">
        <g id="shape6-8" v:mID="6" v:groupContext="shape" v:layerMember="0">
          <path d="M0 25.2l1.5-.52 13.8-4.95 9.45 2.47v23.85l-9.45 2.32L0 43.05V25.2z" class="st1"/>
        </g>
        <g id="shape7-10" v:mID="7" v:groupContext="shape" v:layerMember="0" transform="translate(2.25 -2.325)">
          <path d="M20.25 46.65v-20.4l-7.05-1.87L0 29.1v14.7l4.5-1.73V30.08l9-2.1V45.6L0 43.8l13.2 4.57 7.05-1.72z" fill="#da4026" stroke-linecap="butt" stroke-width=".75"/>
        </g>
      </g>
    </g>
  </g>
</svg>
