<svg xmlns="http://www.w3.org/2000/svg" xmlns:v="http://schemas.microsoft.com/visio/2003/SVGExtensions/" width="97.125" height="79.5" viewBox="0 0 72.844 59.625" color-interpolation-filters="sRGB" fill="none" fill-rule="evenodd" font-size="12" overflow="visible" stroke-linecap="square" stroke-miterlimit="3">
  <v:documentProperties v:langID="4108" v:metric="true" v:viewMarkup="false"/>
  <style>
    .st1,.st2{fill:#fff;stroke:none;stroke-linecap:butt;stroke-width:.75}.st2{fill:#515251}
  </style>
  <g v:mID="0" v:index="1" v:groupContext="foregroundPage">
    <v:pageProperties v:drawingScale=".039" v:pageScale=".039" v:drawingUnits="24" v:shadowOffsetX="8.504" v:shadowOffsetY="-8.504"/>
    <v:layer v:name="symbols" v:index="0"/>
    <g id="group119-1" transform="translate(7.369 -6.188)" v:mID="119" v:groupContext="group" v:layerMember="0">
      <g id="group120-2" transform="translate(0 -10.575)" v:mID="120" v:groupContext="group" v:layerMember="0">
        <g id="shape121-3" v:mID="121" v:groupContext="shape" v:layerMember="0">
          <path d="M11.03 59.63C4.95 59.63 0 54.45 0 48.08c0-6.23 4.65-11.25 10.42-11.55 1.81-2.1 4.2-3.3 6.91-3.53 1.27-5.77 6.22-10.05 12-10.05 3.82 0 7.34 1.88 9.67 5.03 1.05-.3 2.1-.45 3.15-.45 6.6 0 12 5.7 12 12.6 2.7 2.02 4.27 5.25 4.27 8.7 0 4.95-3.15 9.22-7.72 10.42h-.08l-1.49.3h-38.1v.08z" class="st1"/>
        </g>
        <g id="shape122-5" v:mID="122" v:groupContext="shape" v:layerMember="0" transform="translate(2.25 -2.25)">
          <path d="M49.65 43.58c.07-.38.07-.75.07-1.13 0-5.77-4.34-10.42-9.74-10.42-1.43 0-2.78.3-4.05.97-1.81-3.37-5.18-5.55-8.78-5.55-5.4 0-9.75 4.5-10.12 10.13-.46-.08-.83-.15-1.28-.15-2.55 0-4.95 1.35-6.45 3.52h-.6c-4.8.08-8.7 4.28-8.7 9.38 0 5.1 3.9 9.3 8.77 9.3h37.96l1.19-.23c3.61-.97 6.08-4.35 6.08-8.25 0-3.22-1.72-6.15-4.35-7.57zM47.4 57.23l-.9.15H8.77c-3.6 0-6.52-3.15-6.52-7.05s2.85-7.05 6.45-7.05h.45l1.28.07.74-1.12c1.06-1.65 2.78-2.55 4.58-2.55.3 0 .6 0 .9.07l2.48.45.14-2.55c.23-4.42 3.68-7.95 7.88-7.95 2.78 0 5.4 1.65 6.75 4.35L34.95 36l1.95-.97c.98-.45 2.02-.75 3.08-.75 4.12 0 7.5 3.67 7.5 8.17 0 .3 0 .6-.08.9l-.15 1.5 1.35.75c1.95 1.05 3.15 3.23 3.15 5.55 0 2.85-1.8 5.33-4.35 6.08z" class="st2"/>
        </g>
      </g>
      <g id="group123-7" transform="translate(23.25)" v:mID="123" v:groupContext="group" v:layerMember="0">
        <g id="shape124-8" v:mID="124" v:groupContext="shape" v:layerMember="0">
          <path d="M31.13 57.23c-.16-2.18-.68-6.6-1.13-8.7-.6-2.48-1.43-4.28-3.83-5.63-.3-.15-.6-.3-.82-.45-1.05-.6-1.88-1.05-2.63-1.27 1.05-1.58 1.65-3.45 1.65-5.55 0-5.18-3.89-9.45-8.69-9.45-4.8 0-8.71 4.2-8.71 9.45 0 2.1.6 3.97 1.65 5.55-.75.15-1.49.6-2.77 1.27l-.75.45c-2.4 1.35-3.22 3.15-3.83 5.63-.45 2.1-.97 6.52-1.12 8.7L0 59.63h31.27l-.14-2.4z" class="st1"/>
        </g>
        <g id="shape125-10" v:mID="125" v:groupContext="shape" v:layerMember="0" transform="translate(2.55 -2.25)">
          <path d="M25.27 51.3c-.52-2.17-1.12-3.22-2.7-4.12-1.65-.9-2.55-1.5-3.15-1.5-.3 0-.45.07-.67.15-.37.37-.82.67-1.27.97-.08.08-.16.08-.23.15-.45.3-.9.45-1.43.6-.82.3-1.72.45-2.69.45-.98 0-1.88-.15-2.7-.45-.45-.15-.9-.37-1.35-.6-.53-.3-1.06-.67-1.51-1.12a1.38 1.38 0 0 0-.67-.15c-.6 0-1.27.45-3.15 1.5-1.65.9-2.25 1.95-2.7 4.12C.6 53.18.08 57.53 0 59.63h26.47c-.3-2.1-.75-6.38-1.2-8.33z" class="st2"/>
        </g>
        <g id="shape126-12" v:mID="126" v:groupContext="shape" v:layerMember="0" transform="translate(9.225 -16.725)">
          <path d="M6.45 59.63c-3.6 0-6.45-3.23-6.45-7.2 0-3.98 2.93-7.2 6.45-7.2 3.6 0 6.45 3.22 6.45 7.2 0 3.97-2.92 7.2-6.45 7.2z" class="st2"/>
        </g>
      </g>
    </g>
  </g>
</svg>
