<svg xmlns="http://www.w3.org/2000/svg" xmlns:v="http://schemas.microsoft.com/visio/2003/SVGExtensions/" width="97.125" height="97.5" viewBox="0 0 72.844 73.125" color-interpolation-filters="sRGB" fill="none" fill-rule="evenodd" font-size="12" overflow="visible" stroke-linecap="square" stroke-miterlimit="3">
  <v:documentProperties v:langID="4108" v:metric="true" v:viewMarkup="false"/>
  <style>
    .st1,.st2{fill:#fff;stroke:none;stroke-linecap:butt;stroke-width:.75}.st2{fill:#515050}
  </style>
  <g v:mID="0" v:index="1" v:groupContext="foregroundPage">
    <v:pageProperties v:drawingScale=".039" v:pageScale=".039" v:drawingUnits="24" v:shadowOffsetX="8.504" v:shadowOffsetY="-8.504"/>
    <v:layer v:name="symbols" v:index="0"/>
    <g id="group112-1" transform="translate(7.106 -4.725)" v:mID="112" v:groupContext="group" v:layerMember="0">
      <g id="group113-2" v:mID="113" v:groupContext="group" v:layerMember="0">
        <g id="shape114-3" v:mID="114" v:groupContext="shape" v:layerMember="0" transform="translate(17.25)">
          <path d="M22.35 64.2l-5.1-5.02v13.95h-9V59.18l-5.1 5.02H0v-9.22L12.75 42.3 25.5 54.98v9.22h-3.15z" class="st1"/>
        </g>
        <g id="group115-5" transform="translate(0 -27)" v:mID="115" v:groupContext="group" v:layerMember="0">
          <g id="shape116-6" v:mID="116" v:groupContext="shape" v:layerMember="0">
            <path d="M11.03 73.13C4.95 73.13 0 67.95 0 61.58c0-6.23 4.65-11.25 10.42-11.55 1.81-2.1 4.2-3.3 6.91-3.53 1.27-5.77 6.22-10.05 12-10.05 3.82 0 7.34 1.88 9.67 5.03 1.05-.3 2.1-.45 3.15-.45 6.6 0 12 5.7 12 12.6 2.7 2.02 4.27 5.25 4.27 8.7 0 4.95-3.15 9.22-7.72 10.42h-.08l-1.49.3h-38.1v.08z" class="st1"/>
          </g>
          <g id="shape117-8" v:mID="117" v:groupContext="shape" v:layerMember="0" transform="translate(2.25 -2.25)">
            <path d="M49.65 57.08c.07-.38.07-.75.07-1.13 0-5.77-4.34-10.42-9.74-10.42-1.43 0-2.78.3-4.05.97-1.88-3.45-5.18-5.55-8.85-5.55-5.4 0-9.76 4.5-10.13 10.13-.45-.08-.83-.15-1.27-.15-2.55 0-4.96 1.35-6.46 3.52h-.6C3.9 54.53 0 58.73 0 63.83c0 5.1 3.9 9.3 8.77 9.3h37.96l1.19-.23c3.61-.97 6.08-4.35 6.08-8.25 0-3.22-1.72-6.15-4.35-7.57zM47.4 70.73l-.9.15H8.77c-3.6 0-6.52-3.15-6.52-7.05s2.85-7.05 6.45-7.05h.45l1.28.07.74-1.12c1.06-1.65 2.78-2.55 4.58-2.55.3 0 .6 0 .9.07l2.48.45.14-2.55c.23-4.5 3.68-8.02 7.88-8.02 2.78 0 5.4 1.65 6.75 4.35l1.05 1.95 1.95-.98c.98-.45 2.02-.75 3.08-.75 4.12 0 7.5 3.68 7.5 8.18 0 .3 0 .6-.08.9l-.15 1.5 1.35.75c1.95 1.05 3.15 3.22 3.15 5.55 0 2.92-1.8 5.4-4.35 6.15z" class="st2"/>
          </g>
        </g>
        <g id="shape118-10" v:mID="118" v:groupContext="shape" v:layerMember="0" transform="translate(19.5 -2.25)">
          <path d="M8.25 55.95L0 64.2v-6l10.5-10.5L21 58.2v6l-8.25-8.25v17.18h-4.5V55.95z" class="st2"/>
        </g>
      </g>
      <v:textBlock v:margins="rect(0,0,0,0)" v:tabSpace="42.52" id="shape112-12" v:mID="112" v:groupContext="groupContent" v:layerMember="0"/>
    </g>
  </g>
</svg>
