<svg xmlns="http://www.w3.org/2000/svg" xmlns:v="http://schemas.microsoft.com/visio/2003/SVGExtensions/" width="97.125" height="67.5" viewBox="0 0 72.844 50.625" color-interpolation-filters="sRGB" fill="none" fill-rule="evenodd" font-size="12" overflow="visible" stroke-linecap="square" stroke-miterlimit="3">
  <v:documentProperties v:langID="4108" v:metric="true" v:viewMarkup="false"/>
  <g v:mID="0" v:index="1" v:groupContext="foregroundPage">
    <v:pageProperties v:drawingScale=".039" v:pageScale=".039" v:drawingUnits="24" v:shadowOffsetX="8.504" v:shadowOffsetY="-8.504"/>
    <v:layer v:name="symbols" v:index="0"/>
    <g transform="translate(7.106 -6.938)" v:mID="48" v:groupContext="group" v:layerMember="0">
      <g v:mID="49" v:groupContext="group" v:layerMember="0">
        <g v:mID="50" v:groupContext="shape" v:layerMember="0">
          <path d="M11.03 50.63C4.95 50.63 0 45.38 0 39c0-6.22 4.65-11.25 10.42-11.55 1.81-2.1 4.2-3.3 6.91-3.52 1.27-5.78 6.22-10.05 12-10.05 3.82 0 7.34 1.87 9.67 5.02 1.05-.3 2.1-.45 3.15-.45 6.6 0 12 5.7 12 12.6 2.7 2.03 4.27 5.25 4.27 8.7 0 4.95-3.15 9.23-7.72 10.43h-.08l-1.49.3h-38.1v.15z" fill="#fff" stroke-linecap="butt" stroke-width=".75"/>
        </g>
        <g v:mID="51" v:groupContext="shape" v:layerMember="0" transform="translate(2.25 -2.25)">
          <path d="M49.65 34.58c.07-.38.07-.75.07-1.13 0-5.77-4.34-10.42-9.74-10.42-1.43 0-2.78.3-4.05.97-1.88-3.45-5.18-5.62-8.85-5.62-5.4 0-9.76 4.5-10.13 10.12-.45-.07-.83-.15-1.27-.15-2.55 0-4.96 1.35-6.46 3.53C4.2 31.65 0 35.93 0 41.25c0 5.18 3.9 9.38 8.77 9.38h37.96l1.19-.23c3.61-.97 6.08-4.35 6.08-8.25 0-3.22-1.72-6.15-4.35-7.57z" fill="#515251" stroke-linecap="butt" stroke-width=".75"/>
        </g>
      </g>
    </g>
  </g>
</svg>
