<svg xmlns="http://www.w3.org/2000/svg" xmlns:v="http://schemas.microsoft.com/visio/2003/SVGExtensions/" width="97.125" height="79.5" viewBox="0 0 72.844 59.625" color-interpolation-filters="sRGB" fill="none" fill-rule="evenodd" font-size="12" overflow="visible" stroke-linecap="square" stroke-miterlimit="3">
  <v:documentProperties v:langID="4108" v:metric="true" v:viewMarkup="false"/>
  <style>
    .st1{fill:#fff;stroke:none;stroke-linecap:butt;stroke-width:.75}
  </style>
  <g v:mID="0" v:index="1" v:groupContext="foregroundPage">
    <v:pageProperties v:drawingScale=".039" v:pageScale=".039" v:drawingUnits="24" v:shadowOffsetX="8.504" v:shadowOffsetY="-8.504"/>
    <v:layer v:name="symbols" v:index="0"/>
    <g id="group52-1" transform="translate(4.556 -2.85)" v:mID="52" v:groupContext="group" v:layerMember="0">
      <g id="group53-2" v:mID="53" v:groupContext="group" v:layerMember="0">
        <g id="group54-3" transform="translate(0 -15)" v:mID="54" v:groupContext="group" v:layerMember="0">
          <g id="shape55-4" v:mID="55" v:groupContext="shape" v:layerMember="0">
            <path d="M11.03 59.62C4.95 59.62 0 54.45 0 48.07c0-6.22 4.65-11.25 10.42-11.55 1.81-2.1 4.2-3.3 6.9-3.52 1.28-5.78 6.23-10.05 12.01-10.05 3.82 0 7.34 1.87 9.67 5.02 1.05-.3 2.1-.45 3.15-.45 6.6 0 12 5.7 12 12.6 2.7 2.03 4.27 5.25 4.27 8.7 0 4.95-3.15 9.23-7.72 10.43h-.08l-1.5.3H11.03v.07z" class="st1"/>
          </g>
          <g id="shape56-6" v:mID="56" v:groupContext="shape" v:layerMember="0" transform="translate(2.25 -2.25)">
            <path d="M49.65 43.57c.07-.37.07-.75.07-1.12 0-5.78-4.35-10.43-9.75-10.43-1.42 0-2.77.3-4.05.98-1.8-3.38-5.1-5.55-8.77-5.55-5.4 0-9.75 4.5-10.12 10.12-.46-.07-.83-.15-1.28-.15-2.55 0-4.95 1.35-6.45 3.53h-.6c-4.8.07-8.7 4.27-8.7 9.37s3.9 9.3 8.77 9.3h37.95l1.2-.22c3.6-.98 6.08-4.35 6.08-8.25 0-3.23-1.72-6.15-4.35-7.58zM47.4 57.22l-.9.15H8.77c-3.6 0-6.52-3.15-6.52-7.05s2.85-7.05 6.45-7.05h.45l1.28.08.74-1.13c1.06-1.65 2.78-2.55 4.58-2.55.3 0 .6 0 .9.08l2.48.45.14-2.55c.23-4.5 3.68-8.03 7.88-8.03 2.78 0 5.4 1.65 6.75 4.35l1.05 1.95 1.95-.97c.97-.45 2.02-.75 3.07-.75 4.13 0 7.5 3.67 7.5 8.17 0 .3 0 .6-.07.9l-.15 1.5 1.35.75c1.95 1.05 3.15 3.23 3.15 5.55 0 2.93-1.8 5.4-4.35 6.15z" fill="#515251" stroke-linecap="butt" stroke-width=".75"/>
          </g>
        </g>
        <g id="group57-8" transform="translate(33.75)" v:mID="57" v:groupContext="group" v:layerMember="0">
          <g id="group58-9" v:mID="58" v:groupContext="group" v:layerMember="0">
            <g id="shape59-10" v:mID="59" v:groupContext="shape" v:layerMember="0">
              <path d="M4.5 59.62c-2.47 0-4.5-2.02-4.5-4.5v-21c0-2.47 2.03-4.5 4.5-4.5h21c2.48 0 4.5 2.03 4.5 4.5v21c0 2.48-2.02 4.5-4.5 4.5h-21z" class="st1"/>
            </g>
            <g id="shape60-12" v:mID="60" v:groupContext="shape" v:layerMember="0" transform="translate(2.25 -2.25)">
              <path d="M25.5 57.37c0 1.28-.97 2.25-2.25 2.25h-21C.98 59.62 0 58.65 0 57.37v-21c0-1.27.98-2.25 2.25-2.25h21c1.28 0 2.25.98 2.25 2.25v21z" fill="#515050" stroke-linecap="butt" stroke-width=".75"/>
            </g>
          </g>
          <g id="group61-14" transform="translate(6.75 -6.75)" v:mID="61" v:groupContext="group" v:layerMember="0">
            <g id="group62-15" transform="translate(.225 -.9)" v:mID="62" v:groupContext="group" v:layerMember="0">
              <g id="shape63-16" v:mID="63" v:groupContext="shape" v:layerMember="0" transform="translate(.375 -3.525)">
                <path d="M1.05 59.62A7.532 7.532 0 0 1 0 55.8c0-.45 0-.9.08-1.28 0 .08.07.15.07.15.23.53.98 1.28 1.73 1.95.15.15.29.3.44.45-.52.15-1.12.45-1.34.68-.46.45-.23 1.2.07 1.87z" class="st1"/>
              </g>
              <g id="shape64-18" v:mID="64" v:groupContext="shape" v:layerMember="0">
                <path d="M.75 52.12c.3.38.75.75 1.27 1.28l.08.07c-.45.23-.75.38-.9.53l-.15.15c-.15-.6-.22-1.2-.22-1.8-.08-.15-.08-.15-.08-.23zm.45-3.97c-.75 1.2-1.2 2.62-1.2 4.2 0 3.22 1.95 6 4.65 7.27-.83-.82-1.5-2.17-2.55-2.47.15-.3-.97-2.03-.45-2.55.22-.3 1.72-.75 1.72-.75-.15-.38-2.09-1.95-2.47-2.7-.38-.83-.23-1.58-.15-2.1.08-.3.23-.6.45-.9z" class="st1"/>
              </g>
            </g>
            <g id="group65-20" transform="translate(3 -.375)" v:mID="65" v:groupContext="group" v:layerMember="0">
              <g id="group66-21" transform="translate(11.625 -6.075)" v:mID="66" v:groupContext="group" v:layerMember="0">
                <g id="shape67-22" v:mID="67" v:groupContext="shape" v:layerMember="0">
                  <path d="M1.43 59.62c.15-.6.22-1.2.22-1.8 0-1.8-.6-3.52-1.65-4.87.75 1.2 1.88 4.12 1.43 6.67z" class="st1"/>
                </g>
                <g id="shape68-24" v:mID="68" v:groupContext="shape" v:layerMember="0">
                  <path d="M0 52.95c.75 1.2 1.88 4.12 1.43 6.67.15-.6.22-1.2.22-1.8 0-1.87-.6-3.52-1.65-4.87z" class="st1"/>
                </g>
              </g>
              <g id="group69-26" v:mID="69" v:groupContext="group" v:layerMember="0">
                <g id="shape70-27" v:mID="70" v:groupContext="shape" v:layerMember="0" transform="translate(.45 -.225)">
                  <path d="M4.8 59.62h-.3c.23-.37.3-.75.38-1.2.15-.45.22-.97.52-1.42.9-1.35.68-2.48.23-3 0-.08-.08-.23-.15-.3-.23-.23-.53-.38-1.2-.38-.38 0-.76 0-1.13.08-.3 0-.6.07-.82.07H2.1C.07 51.75 0 51.22.07 51c0 0 .16-.08.38-.08.15 0 .3 0 .3.08.08.52.38 1.12 1.5 1.57l.22.08.16-.15c.3-.23.14-.6-.08-1.2-.08-.15-.15-.38-.15-.45 0-.38.53-1.5.75-1.58.6 0 .9-.3 1.13-.52.22-.23.37-.45 1.04-.45.23 0 .38-.15.53-.45.15-.53.38-1.73-.3-2.33-.3-.22-.6-.37-.9-.37-.6 0-1.05.45-1.42.75-.08.07-.23.15-.3.22 0-.07-.08-.15-.08-.3-.22-.45-.45-.75-.67-.9.82-.3 1.64-.45 2.47-.45 1.43 0 2.85.38 4.05 1.13-.37.15-.67.45-.97.9-.45.67-.6 1.27-.38 1.65.3.52.9.6 1.43.6-.98.67-2.55 1.87-2.33 3.45.08.97 2.03 1.65 2.85 1.87.15.75.75 2.25 1.58 2.63-1.35 1.72-3.6 2.92-6.08 2.92z" class="st1"/>
                </g>
                <g id="shape71-29" v:mID="71" v:groupContext="shape" v:layerMember="0">
                  <path d="M5.7 44.47c.97.08 1.95.3 2.78.75-.23.15-.38.38-.61.68-.22.3-.82 1.2-.37 2.02.15.38.45.53.83.68-.91.75-1.95 1.87-1.81 3.3.15 1.12 1.96 1.8 2.93 2.1.23.75.68 1.87 1.35 2.4-1.27 1.57-3.22 2.47-5.32 2.55.07-.23.15-.53.22-.75.15-.45.22-.9.45-1.28.98-1.42.75-2.7.3-3.37 0-.15-.07-.23-.15-.38-.3-.45-.9-.52-1.5-.52-.37 0-.75 0-1.12.07-.31 0-.6.08-.75.08h-.08c-.15-.08-.23-.23-.3-.3.07 0 .15.07.22.07l.46.15.37-.3c.45-.37.23-.97 0-1.65-.08-.15-.15-.3-.15-.37 0-.3.3-.9.53-1.2.75-.08 1.04-.45 1.27-.68.15-.22.23-.3.75-.3.23 0 .67-.07.9-.75.23-.6.45-2.02-.45-2.77-.22 0-.45-.15-.75-.23zm-.97 0c-.38.15-.75.38-.98.6-.07-.15-.15-.3-.23-.45.38 0 .75-.07 1.21-.15zm.52-.75c-1.5 0-2.85.38-3.97 1.05.22-.07.44-.15.67-.15.45 0 .9.23 1.2.9.15.38.08.53.45.53h.08c.3 0 .9-.98 1.65-.98.22 0 .44.08.67.3.6.53.3 2.18 0 2.18-1.57 0-1.13.97-2.17.97h-.08c-.45 0-1.13 1.43-1.13 2.03 0 .3.53 1.27.38 1.35-.75-.3-1.28-.75-1.28-1.35a.92.92 0 0 0-.67-.3c-.3 0-.6.07-.67.3-.38.75 1.12 2.02 2.17 2.92.07 0 .23.08.38.08.44 0 1.27-.08 1.87-.08.6 0 .97.08.9.38.38.3.75 1.35-.15 2.62-.75 1.13-.45 2.7-1.5 3.08.38.07.82.07 1.2.07 3.3 0 6.15-2.02 7.35-4.95-.15.38-.37.68-.6.98-.15.15-.22.22-.37.22-.75 0-1.58-2.02-1.58-2.62-.22 0-2.7-.75-2.77-1.58-.23-1.95 2.77-3.37 2.92-3.75 0-.07-.15-.07-.37-.07H9.6c-.82 0-2.02-.08-.97-1.65.45-.6.82-.83 1.27-.83.3 0 .53.08.75.23-1.5-1.13-3.37-1.88-5.4-1.88z" class="st1"/>
                </g>
              </g>
            </g>
            <g id="shape72-31" v:mID="72" v:groupContext="shape" v:layerMember="0">
              <path d="M8.25 43.12v.75c4.13 0 7.5 3.38 7.5 7.5 0 4.13-3.37 7.5-7.5 7.5-4.12 0-7.5-3.37-7.5-7.5 0-4.12 3.38-7.5 7.5-7.5v-.75zm0 0C3.67 43.12 0 46.87 0 51.37a8.22 8.22 0 0 0 8.25 8.25c4.58 0 8.25-3.75 8.25-8.25 0-4.57-3.67-8.25-8.25-8.25z" class="st1"/>
            </g>
          </g>
        </g>
      </g>
    </g>
  </g>
</svg>
