<svg xmlns="http://www.w3.org/2000/svg" xmlns:v="http://schemas.microsoft.com/visio/2003/SVGExtensions/" width="97.125" height="93" viewBox="0 0 72.844 69.75" color-interpolation-filters="sRGB" fill="none" fill-rule="evenodd" font-size="12" overflow="visible" stroke-linecap="square" stroke-miterlimit="3">
  <v:documentProperties v:langID="4108" v:metric="true" v:viewMarkup="false"/>
  <style>
    .st1,.st2{fill:#fff;stroke:none;stroke-linecap:butt;stroke-width:.75}.st2{fill:#525352}
  </style>
  <g v:mID="0" v:index="1" v:groupContext="foregroundPage">
    <v:pageProperties v:drawingScale=".039" v:pageScale=".039" v:drawingUnits="24" v:shadowOffsetX="8.504" v:shadowOffsetY="-8.504"/>
    <v:layer v:name="symbols" v:index="0"/>
    <g id="group73-1" transform="translate(4.631 -2.025)" v:mID="73" v:groupContext="group" v:layerMember="0">
      <g id="group74-2" v:mID="74" v:groupContext="group" v:layerMember="0">
        <g id="group75-3" v:mID="75" v:groupContext="group" v:layerMember="0">
          <g id="group76-4" transform="translate(0 -12.15)" v:mID="76" v:groupContext="group" v:layerMember="0">
            <g id="shape77-5" v:mID="77" v:groupContext="shape" v:layerMember="0">
              <path d="M11.03 69.75C4.95 69.75 0 64.58 0 58.2c0-6.22 4.65-11.25 10.42-11.55 1.81-2.1 4.2-3.3 6.91-3.52 1.27-5.78 6.22-10.05 12-10.05 3.82 0 7.34 1.87 9.67 5.02 1.05-.3 2.1-.45 3.15-.45 6.6 0 12 5.7 12 12.6 2.7 2.03 4.28 5.25 4.28 8.7 0 4.95-3.16 9.23-7.73 10.43h-.08l-1.49.3h-38.1v.07z" class="st1"/>
            </g>
            <g id="shape78-7" v:mID="78" v:groupContext="shape" v:layerMember="0" transform="translate(2.25 -2.25)">
              <path d="M49.65 53.7c.07-.37.07-.75.07-1.12 0-5.78-4.34-10.43-9.74-10.43-1.43 0-2.78.3-4.05.98-1.88-3.38-5.18-5.55-8.85-5.55-5.4 0-9.76 4.5-10.13 10.12-.45-.07-.83-.15-1.27-.15-2.55 0-4.96 1.35-6.46 3.53h-.6C3.9 51.15 0 55.35 0 60.45s3.9 9.3 8.77 9.3h37.96l1.2-.22c3.6-.98 6.07-4.35 6.07-8.25 0-3.23-1.72-6.15-4.35-7.58zM47.4 67.35l-.9.15H8.77c-3.6 0-6.52-3.15-6.52-7.05S5.1 53.4 8.7 53.4h.45l1.28.08.74-1.13c1.06-1.65 2.78-2.55 4.58-2.55.3 0 .6 0 .9.08l2.48.45.14-2.55c.23-4.43 3.68-7.95 7.81-7.95 2.77 0 5.4 1.65 6.75 4.35l1.04 1.95 1.95-.98c.98-.45 2.03-.75 3.08-.75 4.13 0 7.5 3.68 7.5 8.18 0 .3 0 .6-.07.9l-.16 1.5 1.36.75c1.94 1.05 3.14 3.22 3.14 5.55.08 2.85-1.72 5.32-4.27 6.07z" class="st2"/>
            </g>
          </g>
          <g id="group79-9" transform="translate(30)" v:mID="79" v:groupContext="group" v:layerMember="0">
            <g id="shape80-10" v:mID="80" v:groupContext="shape" v:layerMember="0">
              <path d="M20.92 69.75c-1.19 0-2.32-.75-2.77-1.87l-.68-1.58H16.2l-.68 1.58c-.44 1.12-1.57 1.87-2.77 1.87-.37 0-.82-.07-1.12-.22l-2.86-1.2c-.74-.3-1.35-.9-1.65-1.65-.29-.75-.29-1.58 0-2.33l.68-1.57-.83-.83-1.57.68c-.37.15-.75.22-1.12.22-1.21 0-2.33-.75-2.78-1.87L.3 58.13c-.3-.75-.3-1.58 0-2.33s.9-1.35 1.65-1.65l1.57-.67v-1.2l-1.57-.68C1.2 51.3.6 50.7.3 49.95c-.3-.75-.3-1.57 0-2.32l1.2-2.85a3.012 3.012 0 0 1 2.78-1.88c.37 0 .75.08 1.12.23l1.57.67.83-.82-.68-1.58c-.29-.75-.29-1.57 0-2.32.3-.75.91-1.35 1.65-1.65l2.86-1.2c.37-.15.75-.23 1.12-.23 1.2 0 2.33.75 2.77 1.88l.6 1.5h1.28l.6-1.58a3.015 3.015 0 0 1 2.77-1.87c.38 0 .76.07 1.13.22l2.85 1.2c.75.3 1.35.9 1.65 1.65.3.75.3 1.58 0 2.33l-.68 1.57.83.83 1.57-.68c.38-.15.76-.22 1.13-.22 1.2 0 2.32.75 2.77 1.87l1.21 2.85c.29.75.29 1.58 0 2.33-.31.75-.9 1.35-1.66 1.65L30 52.2v1.2l1.57.68c1.58.67 2.25 2.4 1.66 3.97l-1.21 2.85a3.009 3.009 0 0 1-2.77 1.88c-.37 0-.82-.08-1.2-.23l-1.58-.67-.82.82.67 1.58c.3.75.3 1.57 0 2.32-.3.75-.89 1.35-1.65 1.65l-2.85 1.2c-.07.23-.52.3-.9.3z" class="st1"/>
            </g>
            <g id="shape81-12" v:mID="81" v:groupContext="shape" v:layerMember="0" transform="translate(2.1 -2.175)">
              <path d="M28.95 58.35l-2.4-.97c-.38-.15-.68-.38-.68-.45 0-.08.08-.53.08-.9v-1.95c0-.45-.08-.83-.08-.9 0-.08.3-.3.68-.45l2.4-.98c.37-.15.6-.6.45-1.05l-1.2-2.85c-.15-.37-.6-.6-1.05-.45l-2.4.98c-.38.15-.75.22-.83.15-.07-.08-.3-.38-.6-.75l-1.42-1.35c-.3-.3-.68-.53-.68-.6-.07-.08 0-.38.15-.83l.98-2.4c.15-.37 0-.82-.45-1.05l-2.85-1.2c-.38-.15-.83 0-1.05.45l-.97 2.4c-.15.38-.38.68-.45.68-.08 0-.53-.08-.91-.15 0 0-.37-.08-.97-.08s-.98.08-.98.08c-.45.07-.82.07-.9.15-.07 0-.3-.3-.45-.68l-.97-2.32c-.15-.38-.6-.6-1.05-.45l-2.85 1.2c-.37.15-.6.6-.45 1.05l.97 2.4c.15.37.23.75.15.82-.07.08-.37.3-.74.6l-1.2 1.35c-.3.3-.53.68-.6.75-.08.08-.38 0-.83-.15L2.4 47.4c-.38-.15-.83 0-1.05.45L.15 50.7c-.15.38 0 .83.45 1.05l2.4.98c.37.15.67.37.67.45 0 .07-.07.52-.07.9v1.95c0 .45.07.82.07.9 0 .07-.3.3-.67.45l-2.4.97c-.37.15-.6.6-.45 1.05l1.2 2.85c.15.38.6.6.97.45l2.4-.97c.38-.15.76-.23.83-.15.08.07.3.37.6.75l1.42 1.35c.3.3.68.52.75.6.08.07 0 .45-.15.82l-1.04 2.25c-.15.38 0 .83.44 1.05l2.85 1.2c.38.15.83 0 1.06-.45l.97-2.4c.15-.37.37-.67.45-.67.07 0 .52.07.9.15 0 0 .37.07.97.07s.98-.07.98-.07c.45-.08.83-.08.9-.15.08 0 .3.3.45.67l.97 2.4c.15.38.6.6 1.05.45l2.85-1.2c.38-.15.6-.6.45-1.05l-.97-2.4c-.15-.37-.23-.75-.15-.82.07-.08.38-.3.75-.6l1.42-1.43c.3-.3.53-.67.6-.75.08-.07.38 0 .83.15l2.4.98c.37.15.82 0 1.05-.45l1.2-2.85c-.08-.23-.23-.68-.6-.83zm-14.18 4.43c-4.27 0-7.72-3.45-7.72-7.73 0-4.27 3.45-7.72 7.72-7.72 4.28 0 7.73 3.45 7.73 7.72 0 4.28-3.45 7.73-7.73 7.73z" class="st2"/>
            </g>
          </g>
          <g id="group82-14" transform="translate(31.5 -30.075)" v:mID="82" v:groupContext="group" v:layerMember="0">
            <g id="shape83-15" v:mID="83" v:groupContext="shape" v:layerMember="0">
              <path d="M27.75 37.5h-24C1.65 37.5 0 39.15 0 41.25V58.5c0 2.1 1.65 3.75 3.75 3.75h9.75v5.25c0 .98.6 1.8 1.5 2.1.23.08.53.15.75.15.68 0 1.28-.3 1.72-.82l5.71-6.68h4.57c2.1 0 3.75-1.65 3.75-3.75V41.25c0-2.1-1.65-3.75-3.75-3.75z" class="st1"/>
            </g>
            <g id="shape84-17" v:mID="84" v:groupContext="shape" v:layerMember="0" transform="translate(2.25 -2.25)">
              <path d="M25.5 42h-24c-.82 0-1.5.68-1.5 1.5v17.25c0 .83.68 1.5 1.5 1.5h12v7.5l6.38-7.5h5.62c.83 0 1.5-.67 1.5-1.5V43.5c0-.82-.67-1.5-1.5-1.5z" class="st2"/>
            </g>
          </g>
        </g>
        <g id="group85-19" transform="translate(40.2 -43.05)" v:mID="85" v:groupContext="group" v:layerMember="0">
          <g id="group86-20" transform="translate(.225 -.75)" v:mID="86" v:groupContext="group" v:layerMember="0">
            <g id="shape87-21" v:mID="87" v:groupContext="shape" v:layerMember="0" transform="translate(.375 -3.6)">
              <path d="M.6 69.75c-.37-.82-.6-1.8-.6-2.7 0-.3 0-.6.08-.9.22.45.9 1.13 1.5 1.65.15.08.22.23.37.38-.45.15-.9.37-1.12.52-.38.23-.38.6-.23 1.05z" class="st1"/>
            </g>
            <g id="shape88-23" v:mID="88" v:groupContext="shape" v:layerMember="0">
              <path d="M.75 63.53c.23.22.53.52.83.82-.45.23-.6.38-.68.38-.07-.38-.15-.75-.15-1.2zm.23-3.68C.38 60.9 0 62.1 0 63.45c0 2.78 1.65 5.18 4.05 6.3-.75-.75-1.27-1.87-2.17-2.17.15-.3-.9-1.73-.38-2.25.23-.23 1.5-.6 1.5-.6-.15-.3-1.8-1.65-2.1-2.33-.3-.67-.15-1.35-.07-1.8-.15-.22 0-.52.15-.75z" class="st1"/>
            </g>
          </g>
          <g id="group89-25" transform="translate(2.475 -.3)" v:mID="89" v:groupContext="group" v:layerMember="0">
            <g id="group90-26" transform="translate(10.125 -5.25)" v:mID="90" v:groupContext="group" v:layerMember="0">
              <g id="shape91-27" v:mID="91" v:groupContext="shape" v:layerMember="0">
                <path d="M1.28 69.75c.14-.52.14-1.05.14-1.57 0-1.58-.52-3-1.42-4.2.67 1.05 1.65 3.6 1.28 5.77z" class="st1"/>
              </g>
              <g id="shape92-29" v:mID="92" v:groupContext="shape" v:layerMember="0">
                <path d="M0 63.98c.6 1.05 1.65 3.6 1.27 5.77.15-.52.15-1.05.15-1.57 0-1.58-.52-3-1.42-4.2z" class="st1"/>
              </g>
            </g>
            <g id="group93-31" v:mID="93" v:groupContext="group" v:layerMember="0">
              <g id="shape94-32" v:mID="94" v:groupContext="shape" v:layerMember="0" transform="translate(.6 -.15)">
                <path d="M3.83 69.68c.15-.3.22-.68.3-.98.07-.45.22-.82.45-1.2.82-1.2.6-2.17.22-2.62 0-.08-.07-.15-.15-.3-.22-.3-.67-.3-1.05-.3-.3 0-.6 0-.97.07-.23 0-.53.08-.68.08H1.8C0 62.93.08 62.48.08 62.4c0 0 .07-.07.22-.07.08 0 .15 0 .23.07.07.45.37.98 1.35 1.35l.22.08.15-.15c.23-.23.15-.6-.07-1.13-.08-.15-.15-.37-.15-.37 0-.3.45-1.2.67-1.35.53 0 .75-.3.98-.45.15-.23.3-.38.9-.38.22 0 .37-.15.52-.45.15-.45.3-1.57-.3-2.1-.22-.22-.52-.37-.82-.37-.53 0-.98.37-1.28.67-.08.08-.15.08-.15.15 0-.07-.07-.15-.07-.22-.16-.38-.3-.6-.53-.75.67-.23 1.35-.3 2.03-.3 1.2 0 2.32.3 3.37.9-.3.15-.52.37-.82.75-.45.6-.53 1.12-.3 1.5.22.37.67.52 1.12.52-.82.6-2.1 1.65-1.95 3 .08.83 1.73 1.43 2.48 1.65.15.68.67 1.88 1.35 2.25-1.2 1.58-3.15 2.55-5.18 2.55-.07-.07-.15-.07-.22-.07z" class="st1"/>
              </g>
              <g id="shape95-34" v:mID="95" v:groupContext="shape" v:layerMember="0">
                <path d="M5.63 56.85c.6.08 1.2.3 1.72.53-.15.15-.3.3-.37.52-.15.3-.75 1.13-.38 1.88.15.3.38.45.6.52-.75.68-1.57 1.58-1.42 2.85.07 1.05 1.65 1.65 2.55 1.88.15.6.52 1.5 1.12 2.02-1.05 1.2-2.62 2.03-4.27 2.1.07-.15.07-.3.15-.52.07-.38.15-.75.37-1.05.9-1.28.68-2.4.23-3 0-.15-.08-.23-.15-.38-.3-.37-.83-.45-1.35-.45-.3 0-.68 0-.98.08H3.3l.08-.08c.45-.37.22-.97 0-1.5 0-.07-.08-.22-.08-.3 0-.22.23-.67.37-.9.61-.07.91-.37 1.13-.6.15-.15.23-.22.6-.22.23 0 .6-.08.83-.68.22-.52.37-1.87-.38-2.47-.15-.15-.22-.23-.22-.23zm-2.03 0c-.07.08-.15.15-.3.23 0-.08-.07-.08-.07-.15.15 0 .3-.08.37-.08zm1.05-.82c-1.27 0-2.47.37-3.45.9.23-.08.38-.15.6-.15.38 0 .75.22.98.82.14.3.07.45.37.45h.08c.3 0 .75-.82 1.42-.82.15 0 .38.07.6.22.53.45.23 1.88 0 1.88-1.35 0-.97.82-1.87.82H3.3c-.38 0-.97 1.28-.97 1.73 0 .22.45 1.12.3 1.2-.68-.3-1.13-.68-1.13-1.2-.07-.15-.37-.23-.6-.23-.22 0-.53.08-.6.23-.3.6.97 1.8 1.88 2.55.07 0 .15.07.29.07.45 0 1.13-.07 1.66-.07.52 0 .9.07.82.37.3.3.68 1.13-.15 2.25-.67.98-.37 2.33-1.27 2.63.37.07.67.07 1.05.07 2.85 0 5.32-1.8 6.37-4.27-.15.3-.3.6-.52.9-.08.15-.23.15-.3.15-.6 0-1.35-1.8-1.35-2.25-.15 0-2.33-.68-2.4-1.35-.15-1.73 2.4-2.93 2.55-3.23 0-.07-.15-.07-.38-.07h-.22c-.75 0-1.8-.08-.83-1.43.38-.52.75-.75 1.05-.75.23 0 .45.08.68.23a7.222 7.222 0 0 0-4.58-1.65z" class="st1"/>
              </g>
            </g>
          </g>
          <g id="shape96-36" v:mID="96" v:groupContext="shape" v:layerMember="0">
            <path d="M7.13 55.5v.75a6.37 6.37 0 0 1 6.37 6.38c0 1.72-.67 3.3-1.87 4.5A6.298 6.298 0 0 1 7.13 69a6.37 6.37 0 0 1-6.38-6.37c0-3.53 2.85-6.38 6.38-6.38v-.75zm0 0C3.15 55.5 0 58.73 0 62.63s3.23 7.12 7.13 7.12 7.12-3.22 7.12-7.12-3.22-7.13-7.12-7.13z" class="st1"/>
          </g>
        </g>
      </g>
    </g>
  </g>
</svg>
