<svg xmlns="http://www.w3.org/2000/svg" xmlns:v="http://schemas.microsoft.com/visio/2003/SVGExtensions/" width="88.5" height="97.5" viewBox="0 0 66.375 73.125" color-interpolation-filters="sRGB" fill="none" fill-rule="evenodd" font-size="12" overflow="visible" stroke-linecap="square" stroke-miterlimit="3">
  <v:documentProperties v:langID="4108" v:metric="true" v:viewMarkup="false"/>
  <style>
    .st1,.st3{fill:#fff;stroke:none;stroke-linecap:butt;stroke-width:.75}.st3{fill:#515150}
  </style>
  <g v:mID="0" v:index="1" v:groupContext="foregroundPage">
    <v:pageProperties v:drawingScale=".039" v:pageScale=".039" v:drawingUnits="24" v:shadowOffsetX="8.504" v:shadowOffsetY="-8.504"/>
    <v:layer v:name="symbols" v:index="0"/>
    <g id="group1-1" transform="translate(7.875 -7.688)" v:mID="1" v:groupContext="group" v:layerMember="0">
      <g id="group2-2" v:mID="2" v:groupContext="group" v:layerMember="0">
        <g id="group3-3" transform="translate(0 -4.5)" v:mID="3" v:groupContext="group" v:layerMember="0">
          <g id="shape4-4" v:mID="4" v:groupContext="shape" v:layerMember="0">
            <path d="M39.75 29.25v35.1C39.08 72 27 73.13 19.87 73.13 12.75 73.13.68 72 0 64.35v-36.6c0-5.47 9.98-7.87 19.87-7.87 9.91 0 19.88 2.4 19.88 7.87v1.5z" class="st1"/>
          </g>
          <g id="shape5-6" v:mID="5" v:groupContext="shape" v:layerMember="0" transform="translate(2.25 -2.25)">
            <path d="M17.63 37.88c-7.06 0-14.1-1.2-17.63-3.9v32.4c.53 6.22 13.2 6.75 17.63 6.75 4.42 0 17.02-.53 17.62-6.75v-32.4c-3.52 2.7-10.57 3.9-17.62 3.9z" fill="#515251" stroke-linecap="butt" stroke-width=".75"/>
          </g>
          <g id="shape6-8" v:mID="6" v:groupContext="shape" v:layerMember="0" transform="translate(2.25 -39.75)">
            <ellipse cx="17.625" cy="67.5" rx="17.625" ry="5.625" class="st3"/>
          </g>
        </g>
        <g id="group7-10" transform="translate(20.25)" v:mID="7" v:groupContext="group" v:layerMember="0">
          <g id="shape8-11" v:mID="8" v:groupContext="shape" v:layerMember="0">
            <path d="M3.75 73.13c-2.1 0-3.75-1.65-3.75-3.75V49.13c0-2.1 1.65-3.75 3.75-3.75H30c2.1 0 3.75 1.65 3.75 3.75v20.25c0 2.1-1.65 3.75-3.75 3.75H3.75z" class="st1"/>
          </g>
          <g id="shape9-13" v:mID="9" v:groupContext="shape" v:layerMember="0" transform="translate(2.25 -2.25)">
            <path d="M27.75 49.88H1.5c-.9 0-1.5.6-1.5 1.5v20.25c0 .9.6 1.5 1.5 1.5h26.25c.9 0 1.5-.6 1.5-1.5V51.38c0-.9-.6-1.5-1.5-1.5zm0 21.75H1.5V54.38h26.25v17.25z" class="st3"/>
          </g>
          <g id="shape10-15" v:mID="10" v:groupContext="shape" v:layerMember="0" transform="translate(28.5 -22.5)">
            <path class="st1" d="M0 71.625h1.5v1.5H0z"/>
          </g>
          <g id="shape11-17" v:mID="11" v:groupContext="shape" v:layerMember="0" transform="translate(25.5 -22.5)">
            <path class="st1" d="M0 71.625h1.5v1.5H0z"/>
          </g>
          <g id="shape12-19" v:mID="12" v:groupContext="shape" v:layerMember="0" transform="translate(22.5 -22.5)">
            <path class="st1" d="M0 71.625h1.5v1.5H0z"/>
          </g>
        </g>
      </g>
    </g>
  </g>
</svg>
