<svg xmlns="http://www.w3.org/2000/svg" xmlns:v="http://schemas.microsoft.com/visio/2003/SVGExtensions/" width="72" height="97.5" viewBox="0 0 54 73.125" color-interpolation-filters="sRGB" fill="none" fill-rule="evenodd" font-size="12" overflow="visible" stroke-linecap="square" stroke-miterlimit="3">
  <v:documentProperties v:langID="4108" v:metric="true" v:viewMarkup="false"/>
  <style>
    .st2{fill:#2072b8;stroke:none;stroke-linecap:butt;stroke-width:.75}
  </style>
  <g v:mID="0" v:index="1" v:groupContext="foregroundPage">
    <v:pageProperties v:drawingScale=".039" v:pageScale=".039" v:drawingUnits="24" v:shadowOffsetX="8.504" v:shadowOffsetY="-8.504"/>
    <v:layer v:name="symbols" v:index="0"/>
    <g id="group443-1" transform="translate(7.125 -6.188)" v:mID="443" v:groupContext="group" v:layerMember="0">
      <g id="group444-2" v:mID="444" v:groupContext="group" v:layerMember="0">
        <g id="shape445-3" v:mID="445" v:groupContext="shape" v:layerMember="0">
          <path d="M39.75 21.75v-1.5c0-5.47-9.97-7.87-19.88-7.87C9.98 12.38 0 14.78 0 20.25v44.1c.68 7.65 12.75 8.78 19.87 8.78 7.13 0 19.21-1.13 19.88-8.78v-42.6z" fill="#fff" stroke-linecap="butt" stroke-width=".75"/>
        </g>
        <g id="shape446-5" v:mID="446" v:groupContext="shape" v:layerMember="0" transform="translate(2.25 -2.25)">
          <path d="M17.63 60.38c-7.05 0-14.1-1.2-17.63-3.9v9.9c.53 6.22 13.2 6.75 17.63 6.75 4.42 0 17.02-.53 17.62-6.75v-9.9c-3.52 2.62-10.57 3.9-17.62 3.9z" class="st2"/>
        </g>
        <g id="shape447-7" v:mID="447" v:groupContext="shape" v:layerMember="0" transform="translate(2.25 -17.25)">
          <path d="M17.63 60.38c-7.05 0-14.1-1.2-17.63-3.9v9.9c.53 6.22 13.2 6.75 17.63 6.75 4.42 0 17.02-.53 17.62-6.75v-9.9c-3.52 2.62-10.57 3.9-17.62 3.9z" class="st2"/>
        </g>
        <g id="shape448-9" v:mID="448" v:groupContext="shape" v:layerMember="0" transform="translate(2.25 -32.25)">
          <path d="M17.63 60.38c-7.05 0-14.1-1.2-17.63-3.9v9.9c.53 6.22 13.2 6.75 17.63 6.75 4.42 0 17.02-.53 17.62-6.75v-9.9c-3.52 2.62-10.57 3.9-17.62 3.9z" class="st2"/>
        </g>
        <g id="shape449-11" v:mID="449" v:groupContext="shape" v:layerMember="0" transform="translate(2.25 -47.25)">
          <ellipse cx="17.625" cy="67.5" rx="17.625" ry="5.625" class="st2"/>
        </g>
      </g>
    </g>
  </g>
</svg>
