<svg xmlns="http://www.w3.org/2000/svg" xmlns:v="http://schemas.microsoft.com/visio/2003/SVGExtensions/" width="78" height="94.5" viewBox="0 0 58.5 70.875" color-interpolation-filters="sRGB" fill="none" fill-rule="evenodd" font-size="12" overflow="visible" stroke-linecap="square" stroke-miterlimit="3">
  <v:documentProperties v:langID="4108" v:metric="true" v:viewMarkup="false"/>
  <style>
    .st1,.st3,.st4{fill:#fff;stroke:none;stroke-linecap:butt;stroke-width:.75}.st3,.st4{fill:#9c9c9d}.st4{fill:#cccbcb}
  </style>
  <g v:mID="0" v:index="1" v:groupContext="foregroundPage">
    <v:pageProperties v:drawingScale=".039" v:pageScale=".039" v:drawingUnits="24" v:shadowOffsetX="8.504" v:shadowOffsetY="-8.504"/>
    <v:layer v:name="symbols" v:index="0"/>
    <g id="group545-1" transform="translate(7.388 -3.9)" v:mID="545" v:groupContext="group" v:layerMember="0">
      <g id="group546-2" v:mID="546" v:groupContext="group" v:layerMember="0">
        <g id="shape547-3" v:mID="547" v:groupContext="shape" v:layerMember="0" transform="translate(0 -3.75)">
          <path d="M0 70.88V19.13c0-2.93 2.33-5.25 5.25-5.25h21c2.93 0 5.25 2.32 5.25 5.25v51.75H0z" class="st1"/>
        </g>
        <g id="shape548-5" v:mID="548" v:groupContext="shape" v:layerMember="0" transform="translate(21)">
          <path d="M26.17 44.25c0-4.2-7.04-5.7-13.12-5.7-6.08 0-13.05 1.5-13.05 5.7V64.65c.38 3.98 5.03 6.23 13.05 6.23 8.1 0 12.75-2.18 13.05-6.23v-19.5l.07-.9z" class="st1"/>
        </g>
        <g id="shape549-7" v:mID="549" v:groupContext="shape" v:layerMember="0" transform="translate(2.25 -6)">
          <path d="M24 18.38H3c-1.65 0-3 1.35-3 3v49.5h18.75v-6H5.25v-2.25h13.5v-4.5H5.25v-2.25h13.5v-5.63c0-3.07 3.83-4.72 8.25-5.4V21.38c0-1.65-1.35-3-3-3zm-2.25 9H5.25v-2.25h16.5v2.25z" fill="#505150" stroke-linecap="butt" stroke-width=".75"/>
        </g>
        <g id="shape550-9" v:mID="550" v:groupContext="shape" v:layerMember="0" transform="translate(23.25 -2.325)">
          <path d="M10.87 51.53c-4.27 0-8.62-.75-10.87-2.4V66.75c.37 3.83 8.1 4.13 10.8 4.13 2.7 0 10.5-.3 10.8-4.13V49.2c-2.1 1.58-6.45 2.33-10.73 2.33z" class="st3"/>
        </g>
        <g id="shape551-11" v:mID="551" v:groupContext="shape" v:layerMember="0" transform="translate(23.25 -23.175)">
          <ellipse cx="10.875" cy="67.425" rx="10.875" ry="3.45" class="st3"/>
        </g>
        <g id="group552-13" transform="translate(23.25 -2.325)" v:mID="552" v:groupContext="group" v:layerMember="0">
          <g id="shape553-14" v:mID="553" v:groupContext="shape" v:layerMember="0" transform="translate(0 -23.85)">
            <path d="M0 70.43c0 .15 0 .3.07.45l2.7-2.7C1.05 68.7 0 69.53 0 70.43z" class="st4"/>
          </g>
          <g id="shape554-16" v:mID="554" v:groupContext="shape" v:layerMember="0" transform="translate(0 -19.275)">
            <path d="M0 68.78v2.1l1.58-1.58c-.53-.22-.98-.45-1.36-.75l-.22.23z" class="st4"/>
          </g>
          <g id="shape555-18" v:mID="555" v:groupContext="shape" v:layerMember="0" transform="translate(1.275 -22.05)">
            <path d="M4.65 65.55L0 70.2c.37.23.9.45 1.43.68l5.62-5.63c-.82.08-1.65.15-2.4.3z" class="st4"/>
          </g>
          <g id="shape556-20" v:mID="556" v:groupContext="shape" v:layerMember="0" transform="translate(4.725 -21.15)">
            <path d="M0 70.58c.6.15 1.2.22 1.8.3l6.45-6.53c-.67-.07-1.35-.07-2.02-.07L0 70.58z" class="st4"/>
          </g>
          <g id="shape557-22" v:mID="557" v:groupContext="shape" v:layerMember="0" transform="translate(0 -14.55)">
            <path d="M5.25 65.63c-.6-.08-1.2-.23-1.72-.38L0 68.78v2.1l5.25-5.25z" class="st4"/>
          </g>
          <g id="shape558-24" v:mID="558" v:groupContext="shape" v:layerMember="0" transform="translate(8.625 -20.85)">
            <path d="M2.1 70.88l6.23-6.3c-.6-.15-1.2-.23-1.8-.3L0 70.8c.68.08 1.35.08 2.1.08z" class="st4"/>
          </g>
          <g id="shape559-26" v:mID="559" v:groupContext="shape" v:layerMember="0" transform="translate(0 -10.05)">
            <path d="M9.22 61.58c-.67 0-1.34-.08-1.95-.15L0 68.78v2.1l9.22-9.3z" class="st4"/>
          </g>
          <g id="shape560-28" v:mID="560" v:groupContext="shape" v:layerMember="0" transform="translate(0 -5.475)">
            <path d="M11.63 57L0 68.78v2.1l13.8-14.03c-.67.08-1.42.15-2.17.15z" class="st4"/>
          </g>
          <g id="shape561-30" v:mID="561" v:groupContext="shape" v:layerMember="0" transform="translate(13.125 -20.925)">
            <path d="M0 70.88c.82-.08 1.65-.15 2.32-.23l4.81-4.87c-.45-.23-.9-.45-1.5-.6L0 70.88z" class="st4"/>
          </g>
          <g id="shape562-32" v:mID="562" v:groupContext="shape" v:layerMember="0" transform="translate(18.6 -21.825)">
            <path d="M3.15 68.4c0-.22-.07-.45-.15-.6l-3 3.08c1.95-.68 3.15-1.5 3.15-2.48z" class="st4"/>
          </g>
          <g id="shape563-34" v:mID="563" v:groupContext="shape" v:layerMember="0" transform="translate(.225 -2.025)">
            <path d="M16.35 53.1L0 69.68c.23.45.53.82.98 1.2l18.15-18.45c-.83.22-1.8.45-2.78.67z" class="st4"/>
          </g>
          <g id="shape564-36" v:mID="564" v:groupContext="shape" v:layerMember="0" transform="translate(2.775 -.675)">
            <path d="M18.83 51.15L0 70.35c.53.23 1.05.38 1.58.53l17.25-17.63v-2.1z" class="st4"/>
          </g>
          <g id="shape565-38" v:mID="565" v:groupContext="shape" v:layerMember="0" transform="translate(6.3 -.075)">
            <path d="M15.3 57.15v-2.17L0 70.65c.68.08 1.28.15 1.87.23L15.3 57.15z" class="st4"/>
          </g>
          <g id="shape566-40" v:mID="566" v:groupContext="shape" v:layerMember="0" transform="translate(10.5)">
            <path d="M11.1 59.55L0 70.88h.3c.45 0 1.13 0 1.88-.08l8.92-9.15v-2.1z" class="st4"/>
          </g>
          <g id="shape567-42" v:mID="567" v:groupContext="shape" v:layerMember="0" transform="translate(15.225 -.3)">
            <path d="M6.38 66.45v-2.1L0 70.88c.9-.15 1.8-.3 2.62-.53l3.76-3.9z" class="st4"/>
          </g>
        </g>
      </g>
    </g>
  </g>
</svg>
