<svg xmlns="http://www.w3.org/2000/svg" xmlns:v="http://schemas.microsoft.com/visio/2003/SVGExtensions/" width="78" height="94.5" viewBox="0 0 58.5 70.875" color-interpolation-filters="sRGB" fill="none" fill-rule="evenodd" font-size="12" overflow="visible" stroke-linecap="square" stroke-miterlimit="3">
  <v:documentProperties v:langID="4108" v:metric="true" v:viewMarkup="false"/>
  <style>
    .st1,.st2{fill:#fff;stroke:none;stroke-linecap:butt;stroke-width:.75}.st2{fill:#515050}
  </style>
  <g v:mID="0" v:index="1" v:groupContext="foregroundPage">
    <v:pageProperties v:drawingScale=".039" v:pageScale=".039" v:drawingUnits="24" v:shadowOffsetX="8.504" v:shadowOffsetY="-8.504"/>
    <v:layer v:name="symbols" v:index="0"/>
    <g id="group510-1" transform="translate(6.787 -3.9)" v:mID="510" v:groupContext="group" v:layerMember="0">
      <g id="group511-2" transform="translate(0 -3.75)" v:mID="511" v:groupContext="group" v:layerMember="0">
        <g id="shape512-3" v:mID="512" v:groupContext="shape" v:layerMember="0">
          <path d="M0 70.88V19.13c0-2.93 2.33-5.25 5.25-5.25h21c2.93 0 5.25 2.32 5.25 5.25v51.75H0z" class="st1"/>
        </g>
        <g id="shape513-5" v:mID="513" v:groupContext="shape" v:layerMember="0" transform="translate(2.25 -2.25)">
          <path d="M24 18.38H3c-1.65 0-3 1.35-3 3v49.5h27v-49.5c0-1.65-1.35-3-3-3zm-2.25 46.5H5.25v-2.25h16.5v2.25zm0-6.75H5.25v-2.25h16.5v2.25zm0-30.75H5.25v-2.25h16.5v2.25z" class="st2"/>
        </g>
      </g>
      <g id="group514-7" transform="translate(21)" v:mID="514" v:groupContext="group" v:layerMember="0">
        <g id="shape515-8" v:mID="515" v:groupContext="shape" v:layerMember="0">
          <path d="M26.17 44.25c0-4.2-7.04-5.7-13.12-5.7-6.08 0-13.05 1.5-13.05 5.7V64.65c.38 3.98 5.03 6.23 13.05 6.23 8.1 0 12.75-2.18 13.05-6.23v-20.4h.07z" class="st1"/>
        </g>
        <g id="shape516-10" v:mID="516" v:groupContext="shape" v:layerMember="0" transform="translate(2.25 -2.325)">
          <path d="M10.87 51.53c-4.27 0-8.62-.75-10.87-2.4V66.75c.37 3.83 8.1 4.13 10.8 4.13 2.7 0 10.5-.3 10.8-4.13V49.2c-2.1 1.58-6.45 2.33-10.73 2.33z" class="st2"/>
        </g>
        <g id="shape517-12" v:mID="517" v:groupContext="shape" v:layerMember="0" transform="translate(2.25 -23.175)">
          <ellipse cx="10.875" cy="67.425" rx="10.875" ry="3.45" class="st2"/>
        </g>
      </g>
    </g>
  </g>
</svg>
