<svg xmlns="http://www.w3.org/2000/svg" xmlns:v="http://schemas.microsoft.com/visio/2003/SVGExtensions/" width="96" height="93" viewBox="0 0 72 69.75" color-interpolation-filters="sRGB" fill="none" fill-rule="evenodd" font-size="12" overflow="visible" stroke-linecap="square" stroke-miterlimit="3">
  <v:documentProperties v:langID="4108" v:metric="true" v:viewMarkup="false"/>
  <style>
    .st1{fill:#fff;stroke:none;stroke-linecap:butt;stroke-width:.75}
  </style>
  <g v:mID="0" v:index="1" v:groupContext="foregroundPage">
    <v:pageProperties v:drawingScale=".039" v:pageScale=".039" v:drawingUnits="24" v:shadowOffsetX="8.504" v:shadowOffsetY="-8.504"/>
    <v:layer v:name="symbols" v:index="0"/>
    <g id="group601-1" transform="translate(8.063 -1.613)" v:mID="601" v:groupContext="group" v:layerMember="0">
      <g id="group602-2" v:mID="602" v:groupContext="group" v:layerMember="0">
        <g id="group603-3" transform="translate(0 -9.825)" v:mID="603" v:groupContext="group" v:layerMember="0">
          <g id="shape604-4" v:mID="604" v:groupContext="shape" v:layerMember="0">
            <path d="M26.63 69.75C11.92 69.75 0 57.83 0 43.13 0 28.43 11.93 16.5 26.63 16.5s26.62 11.93 26.62 26.63-11.92 26.62-26.62 26.62z" class="st1"/>
          </g>
          <g id="shape605-6" v:mID="605" v:groupContext="shape" v:layerMember="0" transform="translate(2.25 -2.25)">
            <ellipse cx="24.375" cy="45.375" rx="24.375" ry="24.375" fill="#515050" stroke-linecap="butt" stroke-width=".75"/>
          </g>
          <g id="shape606-8" v:mID="606" v:groupContext="shape" v:layerMember="0" transform="translate(25.5 -30)">
            <path d="M2.25 69.75H0V67.5h2.25v2.25zm0-4.5H0V63h2.25v2.25zm0-4.5H0V58.5h2.25v2.25zm0-4.5H0V54h2.25v2.25zm0-4.5H0V49.5h2.25v2.25z" class="st1"/>
          </g>
          <g id="shape607-10" v:mID="607" v:groupContext="shape" v:layerMember="0" transform="translate(3.525 -26.7)">
            <path d="M20.18 67.58l-.53 2.17-2.17-.6.52-2.17 2.18.6zm-4.35-1.13l-.53 2.18-2.17-.53.52-2.17 2.18.52zm-4.36-1.12l-.52 2.17-2.17-.52.52-2.18 2.17.53zM7.13 64.2l-.61 2.25-2.17-.52.52-2.18 2.26.45zM2.7 63.15l-.53 2.18L0 64.8l.53-2.17 2.17.52z" class="st1"/>
          </g>
          <g id="shape608-12" v:mID="608" v:groupContext="shape" v:layerMember="0" transform="translate(11.7 -7.2)">
            <path d="M14.55 48.45l1.8 1.35L15 51.6l-1.8-1.35 1.35-1.8zm-2.62 3.6l1.8 1.35-1.35 1.8-1.8-1.35 1.35-1.8zm-2.7 3.6l1.8 1.35-1.35 1.8-1.8-1.35 1.35-1.8zM6.6 59.33l1.8 1.35-1.35 1.8-1.8-1.35 1.35-1.8zm-2.62 3.6l1.8 1.35-1.35 1.8-1.8-1.35 1.35-1.8zm-2.7 3.67l1.8 1.35-1.28 1.8L0 68.4l1.28-1.8z" class="st1"/>
          </g>
          <g id="shape609-14" v:mID="609" v:groupContext="shape" v:layerMember="0" transform="translate(29.55 -26.775)">
            <path d="M2.17 67.05l.53 2.18-2.17.52L0 67.58l2.17-.53zM6.52 66l.53 2.18-2.18.52-.52-2.17L6.52 66zm4.36-1.12l.52 2.17-2.17.53-.53-2.18 2.18-.52zm4.42-1.13l.53 2.18-2.18.6-.6-2.25 2.25-.53zm4.35-1.12l.53 2.17-2.18.53-.52-2.18 2.17-.52z" class="st1"/>
          </g>
          <g id="shape610-16" v:mID="610" v:groupContext="shape" v:layerMember="0" transform="translate(27.825 -7.2)">
            <path d="M3.15 53.85l-1.8 1.35L0 53.4l1.8-1.35 1.35 1.8zm2.62 3.68l-1.79 1.35-1.36-1.8 1.81-1.35 1.34 1.8zm2.71 3.6l-1.8 1.35-1.35-1.8 1.8-1.35 1.35 1.8zm2.62 3.67l-1.8 1.35-1.35-1.8L9.75 63l1.35 1.8zm2.63 3.6l-1.8 1.35-1.28-1.8 1.8-1.35 1.28 1.8z" class="st1"/>
          </g>
        </g>
        <g id="group611-18" transform="translate(35.25)" v:mID="611" v:groupContext="group" v:layerMember="0">
          <g id="shape612-19" v:mID="612" v:groupContext="shape" v:layerMember="0">
            <path d="M26.25 43.13c0-4.2-7.05-5.7-13.13-5.7-6.07 0-13.12 1.5-13.12 5.7v20.4c.37 3.97 5.02 6.22 13.05 6.22 8.1 0 12.75-2.17 13.05-6.22v-20.4h.15z" class="st1"/>
          </g>
          <g id="shape613-21" v:mID="613" v:groupContext="shape" v:layerMember="0" transform="translate(2.25 -2.325)">
            <path d="M10.87 50.4C6.6 50.4 2.25 49.65 0 48v17.63c.37 3.82 8.1 4.12 10.8 4.12 2.7 0 10.5-.3 10.8-4.12V48c-2.03 1.65-6.38 2.4-10.73 2.4z" fill="#515251" stroke-linecap="butt" stroke-width=".75"/>
          </g>
          <g id="shape614-23" v:mID="614" v:groupContext="shape" v:layerMember="0" transform="translate(2.25 -23.175)">
            <ellipse cx="10.875" cy="66.3" rx="10.875" ry="3.45" fill="#515150" stroke-linecap="butt" stroke-width=".75"/>
          </g>
        </g>
      </g>
    </g>
  </g>
</svg>
