<svg xmlns="http://www.w3.org/2000/svg" xmlns:v="http://schemas.microsoft.com/visio/2003/SVGExtensions/" width="96" height="93" viewBox="0 0 72 69.75" color-interpolation-filters="sRGB" fill="none" fill-rule="evenodd" font-size="12" overflow="visible" stroke-linecap="square" stroke-miterlimit="3">
  <v:documentProperties v:langID="4108" v:metric="true" v:viewMarkup="false"/>
  <style>
    .st1{fill:#fff;stroke:none;stroke-linecap:butt;stroke-width:.75}
  </style>
  <g v:mID="0" v:index="1" v:groupContext="foregroundPage">
    <v:pageProperties v:drawingScale=".039" v:pageScale=".039" v:drawingUnits="24" v:shadowOffsetX="8.504" v:shadowOffsetY="-8.504"/>
    <v:layer v:name="symbols" v:index="0"/>
    <g id="group568-1" transform="translate(7.313 -1.613)" v:mID="568" v:groupContext="group" v:layerMember="0">
      <g id="group569-2" v:mID="569" v:groupContext="group" v:layerMember="0">
        <g id="group570-3" transform="translate(0 -9.825)" v:mID="570" v:groupContext="group" v:layerMember="0">
          <g id="shape571-4" v:mID="571" v:groupContext="shape" v:layerMember="0">
            <path d="M26.63 69.75C11.92 69.75 0 57.83 0 43.13 0 28.43 11.92 16.5 26.63 16.5c14.7 0 26.62 11.93 26.62 26.63S41.33 69.75 26.63 69.75z" class="st1"/>
          </g>
          <g id="shape572-6" v:mID="572" v:groupContext="shape" v:layerMember="0" transform="translate(2.25 -2.25)">
            <ellipse cx="24.375" cy="45.375" rx="24.375" ry="24.375" fill="#515050" stroke-linecap="butt" stroke-width=".75"/>
          </g>
          <g id="shape573-8" v:mID="573" v:groupContext="shape" v:layerMember="0" transform="translate(25.5 -3)">
            <path d="M2.25 69.75H0V67.5h2.25v2.25zm0-4.5H0V63h2.25v2.25zm0-4.5H0V58.5h2.25v2.25zm0-4.5H0V54h2.25v2.25zm0-4.5H0V49.5h2.25v2.25zm0-4.5H0V45h2.25v2.25zm0-4.5H0V40.5h2.25v2.25zm0-4.5H0V36h2.25v2.25zm0-4.5H0V31.5h2.25v2.25zm0-4.5H0V27h2.25v2.25zm0-4.5H0V22.5h2.25v2.25z" class="st1"/>
          </g>
        </g>
        <g id="group574-10" transform="translate(35.25)" v:mID="574" v:groupContext="group" v:layerMember="0">
          <g id="shape575-11" v:mID="575" v:groupContext="shape" v:layerMember="0">
            <path d="M26.18 43.13c0-4.2-7.05-5.7-13.13-5.7-6.07 0-13.05 1.5-13.05 5.7v20.4c.38 3.97 5.03 6.22 13.05 6.22 8.1 0 12.75-2.17 13.05-6.22v-20.4h.08z" class="st1"/>
          </g>
          <g id="shape576-13" v:mID="576" v:groupContext="shape" v:layerMember="0" transform="translate(2.25 -2.325)">
            <path d="M10.88 50.4C6.6 50.4 2.25 49.65 0 48v17.63c.38 3.82 8.1 4.12 10.8 4.12 2.7 0 10.5-.3 10.8-4.12V48c-2.1 1.65-6.45 2.4-10.72 2.4z" fill="#515251" stroke-linecap="butt" stroke-width=".75"/>
          </g>
          <g id="shape577-15" v:mID="577" v:groupContext="shape" v:layerMember="0" transform="translate(2.25 -23.175)">
            <ellipse cx="10.875" cy="66.3" rx="10.875" ry="3.45" fill="#515150" stroke-linecap="butt" stroke-width=".75"/>
          </g>
        </g>
      </g>
    </g>
  </g>
</svg>
