<svg xmlns="http://www.w3.org/2000/svg" xmlns:v="http://schemas.microsoft.com/visio/2003/SVGExtensions/" width="72" height="97.5" viewBox="0 0 54 73.125" color-interpolation-filters="sRGB" fill="none" fill-rule="evenodd" font-size="12" overflow="visible" stroke-linecap="square" stroke-miterlimit="3">
  <v:documentProperties v:langID="4108" v:metric="true" v:viewMarkup="false"/>
  <style>
    .st1,.st2{fill:#fff;stroke:none;stroke-linecap:butt;stroke-width:.75}.st2{fill:#515251}
  </style>
  <g v:mID="0" v:index="1" v:groupContext="foregroundPage">
    <v:pageProperties v:drawingScale=".039" v:pageScale=".039" v:drawingUnits="24" v:shadowOffsetX="8.504" v:shadowOffsetY="-8.504"/>
    <v:layer v:name="symbols" v:index="0"/>
    <g id="group429-1" transform="translate(6.9 -6.188)" v:mID="429" v:groupContext="group" v:layerMember="0">
      <g id="group430-2" v:mID="430" v:groupContext="group" v:layerMember="0">
        <g id="group431-3" v:mID="431" v:groupContext="group" v:layerMember="0">
          <g id="shape432-4" v:mID="432" v:groupContext="shape" v:layerMember="0">
            <path d="M39.75 51.75V64.35C39.08 72 27 73.13 19.87 73.13 12.75 73.13.68 72 0 64.35v-14.1c0-5.47 9.98-7.87 19.87-7.87 9.91 0 19.88 2.4 19.88 7.87v1.5z" class="st1"/>
          </g>
          <g id="shape433-6" v:mID="433" v:groupContext="shape" v:layerMember="0" transform="translate(2.25 -2.25)">
            <path d="M17.63 60.38c-7.05 0-14.1-1.2-17.63-3.9v9.9c.53 6.22 13.2 6.75 17.63 6.75 4.42 0 17.02-.53 17.62-6.75v-9.9c-3.52 2.7-10.57 3.9-17.62 3.9z" class="st2"/>
          </g>
          <g id="shape434-8" v:mID="434" v:groupContext="shape" v:layerMember="0" transform="translate(2.25 -17.25)">
            <ellipse cx="17.625" cy="67.5" rx="17.625" ry="5.625" class="st2"/>
          </g>
        </g>
        <g id="group435-10" transform="translate(0 -15)" v:mID="435" v:groupContext="group" v:layerMember="0">
          <g id="shape436-11" v:mID="436" v:groupContext="shape" v:layerMember="0">
            <path d="M39.75 51.75V64.35C39.08 72 27 73.13 19.87 73.13 12.75 73.13.68 72 0 64.35v-14.1c0-5.47 9.98-7.87 19.87-7.87 9.91 0 19.88 2.4 19.88 7.87v1.5z" class="st1"/>
          </g>
          <g id="shape437-13" v:mID="437" v:groupContext="shape" v:layerMember="0" transform="translate(2.25 -2.25)">
            <path d="M17.63 60.38c-7.05 0-14.1-1.2-17.63-3.9v9.9c.53 6.22 13.2 6.75 17.63 6.75 4.42 0 17.02-.53 17.62-6.75v-9.9c-3.52 2.7-10.57 3.9-17.62 3.9z" class="st2"/>
          </g>
          <g id="shape438-15" v:mID="438" v:groupContext="shape" v:layerMember="0" transform="translate(2.25 -17.25)">
            <ellipse cx="17.625" cy="67.5" rx="17.625" ry="5.625" class="st2"/>
          </g>
        </g>
        <g id="group439-17" transform="translate(0 -30)" v:mID="439" v:groupContext="group" v:layerMember="0">
          <g id="shape440-18" v:mID="440" v:groupContext="shape" v:layerMember="0">
            <path d="M39.75 51.75V64.35C39.08 72 27 73.13 19.87 73.13 12.75 73.13.68 72 0 64.35v-14.1c0-5.47 9.98-7.87 19.87-7.87 9.91 0 19.88 2.4 19.88 7.87v1.5z" class="st1"/>
          </g>
          <g id="shape441-20" v:mID="441" v:groupContext="shape" v:layerMember="0" transform="translate(2.25 -2.25)">
            <path d="M17.63 60.38c-7.05 0-14.1-1.2-17.63-3.9v9.9c.53 6.22 13.2 6.75 17.63 6.75 4.42 0 17.02-.53 17.62-6.75v-9.9c-3.52 2.7-10.57 3.9-17.62 3.9z" class="st2"/>
          </g>
          <g id="shape442-22" v:mID="442" v:groupContext="shape" v:layerMember="0" transform="translate(2.25 -17.25)">
            <ellipse cx="17.625" cy="67.5" rx="17.625" ry="5.625" class="st2"/>
          </g>
        </g>
      </g>
    </g>
  </g>
</svg>
