<svg xmlns="http://www.w3.org/2000/svg" xmlns:v="http://schemas.microsoft.com/visio/2003/SVGExtensions/" width="72" height="81" viewBox="0 0 54 60.75" color-interpolation-filters="sRGB" fill="none" fill-rule="evenodd" font-size="12" overflow="visible" stroke-linecap="square" stroke-miterlimit="3">
  <v:documentProperties v:langID="4108" v:metric="true" v:viewMarkup="false"/>
  <style>
    .st1,.st2{fill:#fff;stroke:none;stroke-linecap:butt;stroke-width:.75}.st2{fill:#515251}
  </style>
  <g v:mID="0" v:index="1" v:groupContext="foregroundPage">
    <v:pageProperties v:drawingScale=".039" v:pageScale=".039" v:drawingUnits="24" v:shadowOffsetX="8.504" v:shadowOffsetY="-8.504"/>
    <v:layer v:name="symbols" v:index="0"/>
    <g id="group366-1" transform="translate(6.9 -8.063)" v:mID="366" v:groupContext="group" v:layerMember="0">
      <g id="group367-2" v:mID="367" v:groupContext="group" v:layerMember="0">
        <g id="group368-3" v:mID="368" v:groupContext="group" v:layerMember="0">
          <g id="shape369-4" v:mID="369" v:groupContext="shape" v:layerMember="0">
            <path d="M39.75 39.38v12.6c-.67 7.65-12.75 8.77-19.88 8.77-7.12 0-19.19-1.12-19.87-8.77v-14.1C0 32.4 9.98 30 19.87 30c9.91 0 19.88 2.4 19.88 7.88v1.5z" class="st1"/>
          </g>
          <g id="shape370-6" v:mID="370" v:groupContext="shape" v:layerMember="0" transform="translate(2.25 -2.25)">
            <path d="M17.63 48C10.58 48 3.53 46.8 0 44.1V54c.53 6.23 13.2 6.75 17.63 6.75 4.42 0 17.02-.52 17.62-6.75v-9.9C31.73 46.8 24.68 48 17.63 48z" class="st2"/>
          </g>
          <g id="shape371-8" v:mID="371" v:groupContext="shape" v:layerMember="0" transform="translate(2.25 -17.25)">
            <ellipse cx="17.625" cy="55.125" rx="17.625" ry="5.625" class="st2"/>
          </g>
        </g>
        <g id="group372-10" transform="translate(0 -15)" v:mID="372" v:groupContext="group" v:layerMember="0">
          <g id="shape373-11" v:mID="373" v:groupContext="shape" v:layerMember="0">
            <path d="M39.75 39.38v12.6c-.67 7.65-12.75 8.77-19.88 8.77-7.12 0-19.19-1.12-19.87-8.77v-14.1C0 32.4 9.98 30 19.87 30c9.91 0 19.88 2.4 19.88 7.88v1.5z" class="st1"/>
          </g>
          <g id="shape374-13" v:mID="374" v:groupContext="shape" v:layerMember="0" transform="translate(2.25 -2.25)">
            <path d="M17.63 48C10.58 48 3.53 46.8 0 44.1V54c.53 6.23 13.2 6.75 17.63 6.75 4.42 0 17.02-.52 17.62-6.75v-9.9C31.73 46.8 24.68 48 17.63 48z" class="st2"/>
          </g>
          <g id="shape375-15" v:mID="375" v:groupContext="shape" v:layerMember="0" transform="translate(2.25 -17.25)">
            <ellipse cx="17.625" cy="55.125" rx="17.625" ry="5.625" class="st2"/>
          </g>
        </g>
      </g>
    </g>
  </g>
</svg>
