<svg xmlns="http://www.w3.org/2000/svg" xmlns:v="http://schemas.microsoft.com/visio/2003/SVGExtensions/" width="85.5" height="94.5" viewBox="0 0 64.125 70.875" color-interpolation-filters="sRGB" fill="none" fill-rule="evenodd" font-size="12" overflow="visible" stroke-linecap="square" stroke-miterlimit="3">
  <v:documentProperties v:langID="4108" v:metric="true" v:viewMarkup="false"/>
  <style>
    .st2{fill:#515050;stroke:none;stroke-linecap:butt;stroke-width:.75}
  </style>
  <g v:mID="0" v:index="1" v:groupContext="foregroundPage">
    <v:pageProperties v:drawingScale=".039" v:pageScale=".039" v:drawingUnits="24" v:shadowOffsetX="8.504" v:shadowOffsetY="-8.504"/>
    <v:layer v:name="symbols" v:index="0"/>
    <g id="group95-1" transform="translate(6.563 -6.6)" v:mID="95" v:groupContext="group" v:layerMember="0">
      <g id="group96-2" v:mID="96" v:groupContext="group" v:layerMember="0">
        <g id="shape97-3" v:mID="97" v:groupContext="shape" v:layerMember="0">
          <path d="M0 56.18V27.6l25.5-14.4L51 27.98V55.8L25.5 70.88 0 56.18z" fill="#fff" stroke-linecap="butt" stroke-width=".75"/>
        </g>
        <g id="group98-5" transform="translate(26.25 -3.225)" v:mID="98" v:groupContext="group" v:layerMember="0">
          <g id="shape99-6" v:mID="99" v:groupContext="shape" v:layerMember="0" transform="translate(16.5 -27.525)">
            <path d="M0 70.88l6-3.6v-7.05l-6 3.52v7.13z" class="st2"/>
          </g>
          <g id="shape100-8" v:mID="100" v:groupContext="shape" v:layerMember="0" transform="translate(8.25 -22.875)">
            <path d="M0 70.88l6.75-3.9v-7.05L0 63.83v7.05z" class="st2"/>
          </g>
          <g id="shape101-10" v:mID="101" v:groupContext="shape" v:layerMember="0" transform="translate(0 -18)">
            <path d="M0 70.88l6.75-3.9v-7.13L0 63.75v7.13z" class="st2"/>
          </g>
          <g id="shape102-12" v:mID="102" v:groupContext="shape" v:layerMember="0" transform="translate(16.5 -18.675)">
            <path d="M0 70.88l6-3.45V60.3l-6 3.45v7.13z" class="st2"/>
          </g>
          <g id="shape103-14" v:mID="103" v:groupContext="shape" v:layerMember="0" transform="translate(8.25 -13.875)">
            <path d="M0 70.88l6.75-3.9v-7.13L0 63.75v7.13z" class="st2"/>
          </g>
          <g id="shape104-16" v:mID="104" v:groupContext="shape" v:layerMember="0" transform="translate(0 -9.075)">
            <path d="M0 70.88l6.75-3.9v-7.13L0 63.75v7.13z" class="st2"/>
          </g>
          <g id="shape105-18" v:mID="105" v:groupContext="shape" v:layerMember="0" transform="translate(16.5 -9.525)">
            <path d="M0 70.88l6-3.53v-7.12l-6 3.52v7.13z" class="st2"/>
          </g>
          <g id="shape106-20" v:mID="106" v:groupContext="shape" v:layerMember="0" transform="translate(8.25 -4.8)">
            <path d="M0 70.88l6.75-3.9v-7.13L0 63.75v7.13z" class="st2"/>
          </g>
          <g id="shape107-22" v:mID="107" v:groupContext="shape" v:layerMember="0">
            <path d="M0 70.88l6.75-3.9v-7.13L0 63.75v7.13z" class="st2"/>
          </g>
        </g>
        <g id="group108-24" transform="translate(2.25 -3.15)" v:mID="108" v:groupContext="group" v:layerMember="0">
          <g id="shape109-25" v:mID="109" v:groupContext="shape" v:layerMember="0" transform="translate(0 -27.525)">
            <path d="M6 70.88l-6-3.6V60.3l6 3.45v7.13z" class="st2"/>
          </g>
          <g id="shape110-27" v:mID="110" v:groupContext="shape" v:layerMember="0" transform="translate(7.5 -22.875)">
            <path d="M6.75 70.88L0 66.98v-7.05l6.75 3.97v6.98z" class="st2"/>
          </g>
          <g id="shape111-29" v:mID="111" v:groupContext="shape" v:layerMember="0" transform="translate(15.75 -18)">
            <path d="M6.75 70.88L0 66.98v-7.13l6.75 3.9v7.13z" class="st2"/>
          </g>
          <g id="shape112-31" v:mID="112" v:groupContext="shape" v:layerMember="0" transform="translate(0 -18.675)">
            <path d="M6 70.88l-6-3.45V60.3l6 3.45v7.13z" class="st2"/>
          </g>
          <g id="shape113-33" v:mID="113" v:groupContext="shape" v:layerMember="0" transform="translate(7.5 -13.875)">
            <path d="M6.75 70.88L0 66.98v-7.13l6.75 3.9v7.13z" class="st2"/>
          </g>
          <g id="shape114-35" v:mID="114" v:groupContext="shape" v:layerMember="0" transform="translate(15.75 -9.075)">
            <path d="M6.75 70.88L0 66.98v-7.13l6.75 3.9v7.13z" class="st2"/>
          </g>
          <g id="shape115-37" v:mID="115" v:groupContext="shape" v:layerMember="0" transform="translate(0 -9.525)">
            <path d="M6 70.88l-6-3.53v-7.12l6 3.52v7.13z" class="st2"/>
          </g>
          <g id="shape116-39" v:mID="116" v:groupContext="shape" v:layerMember="0" transform="translate(7.5 -4.725)">
            <path d="M6.75 70.88L0 66.9v-7.12l6.75 3.97v7.13z" class="st2"/>
          </g>
          <g id="shape117-41" v:mID="117" v:groupContext="shape" v:layerMember="0" transform="translate(15.75)">
            <path d="M6.75 70.88L0 66.98v-7.13l6.75 3.9v7.13z" class="st2"/>
          </g>
        </g>
        <g id="group118-43" transform="translate(3.675 -29.85)" v:mID="118" v:groupContext="group" v:layerMember="0">
          <g id="shape119-44" v:mID="119" v:groupContext="shape" v:layerMember="0" transform="translate(0 -9.075)">
            <path d="M0 67.28l6.22-3.53 6.23 3.53-6.23 3.6L0 67.28z" class="st2"/>
          </g>
          <g id="shape120-46" v:mID="120" v:groupContext="shape" v:layerMember="0" transform="translate(7.95 -13.65)">
            <path d="M0 67.35l6-3.52 6.15 3.52-6.07 3.53L0 67.35z" class="st2"/>
          </g>
          <g id="shape121-48" v:mID="121" v:groupContext="shape" v:layerMember="0" transform="translate(15.6 -18.075)">
            <path d="M0 67.28l6.23-3.6 6.15 3.6-6.15 3.6L0 67.28z" class="st2"/>
          </g>
          <g id="shape122-50" v:mID="122" v:groupContext="shape" v:layerMember="0" transform="translate(7.8 -4.5)">
            <path d="M0 67.2l6.23-3.52 6.15 3.52-6.23 3.68L0 67.2z" class="st2"/>
          </g>
          <g id="shape123-52" v:mID="123" v:groupContext="shape" v:layerMember="0" transform="translate(15.75 -9.075)">
            <path d="M0 67.28l6.08-3.53 6.07 3.45-6.07 3.68L0 67.28z" class="st2"/>
          </g>
          <g id="shape124-54" v:mID="124" v:groupContext="shape" v:layerMember="0" transform="translate(23.475 -13.65)">
            <path d="M0 67.35l6.15-3.52 6.08 3.45-6.15 3.6L0 67.35z" class="st2"/>
          </g>
          <g id="shape125-56" v:mID="125" v:groupContext="shape" v:layerMember="0" transform="translate(15.45)">
            <path d="M0 67.2l6.37-3.52 6.15 3.52-6.15 3.68L0 67.2z" class="st2"/>
          </g>
          <g id="shape126-58" v:mID="126" v:groupContext="shape" v:layerMember="0" transform="translate(23.475 -4.575)">
            <path d="M0 67.28l6.08-3.53 6.22 3.6-6.07 3.53L0 67.28z" class="st2"/>
          </g>
          <g id="shape127-60" v:mID="127" v:groupContext="shape" v:layerMember="0" transform="translate(31.2 -9.075)">
            <path d="M0 67.28l6.15-3.6 6.3 3.6-6.23 3.6L0 67.28z" class="st2"/>
          </g>
        </g>
      </g>
    </g>
  </g>
</svg>
