<svg xmlns="http://www.w3.org/2000/svg" xmlns:v="http://schemas.microsoft.com/visio/2003/SVGExtensions/" width="92.625" height="97.5" viewBox="0 0 69.469 73.125" color-interpolation-filters="sRGB" fill="none" fill-rule="evenodd" font-size="12" overflow="visible" stroke-linecap="square" stroke-miterlimit="3">
  <v:documentProperties v:langID="4108" v:metric="true" v:viewMarkup="false"/>
  <style>
    .st1,.st4{fill:#fff;stroke:none;stroke-linecap:butt;stroke-width:.75}.st4{fill:#525352}
  </style>
  <g v:mID="0" v:index="1" v:groupContext="foregroundPage">
    <v:pageProperties v:drawingScale=".039" v:pageScale=".039" v:drawingUnits="24" v:shadowOffsetX="8.504" v:shadowOffsetY="-8.504"/>
    <v:layer v:name="symbols" v:index="0"/>
    <g id="group683-1" transform="translate(7.969 -6.9)" v:mID="683" v:groupContext="group" v:layerMember="0">
      <g id="group684-2" v:mID="684" v:groupContext="group" v:layerMember="0">
        <g id="group685-3" transform="translate(0 -6)" v:mID="685" v:groupContext="group" v:layerMember="0">
          <g id="shape686-4" v:mID="686" v:groupContext="shape" v:layerMember="0">
            <path d="M39.75 29.25V64.35C39.07 72 27 73.12 19.87 73.12 12.75 73.12.68 72 0 64.35v-36.6c0-5.48 9.98-7.88 19.87-7.88 9.91 0 19.88 2.4 19.88 7.88v1.5z" class="st1"/>
          </g>
          <g id="shape687-6" v:mID="687" v:groupContext="shape" v:layerMember="0" transform="translate(2.25 -2.25)">
            <path d="M17.62 37.87c-7.05 0-14.09-1.2-17.62-3.9v32.4c.53 6.23 13.2 6.75 17.62 6.75 4.43 0 17.03-.52 17.63-6.75v-32.4c-3.53 2.7-10.58 3.9-17.63 3.9z" fill="#515251" stroke-linecap="butt" stroke-width=".75"/>
          </g>
          <g id="shape688-8" v:mID="688" v:groupContext="shape" v:layerMember="0" transform="translate(2.25 -39.75)">
            <ellipse cx="17.625" cy="67.5" rx="17.625" ry="5.625" fill="#515150" stroke-linecap="butt" stroke-width=".75"/>
          </g>
        </g>
        <g id="group689-10" transform="translate(23.25)" v:mID="689" v:groupContext="group" v:layerMember="0">
          <g id="shape690-11" v:mID="690" v:groupContext="shape" v:layerMember="0">
            <path d="M0 73.12v-10.8l2.77-10.95H3v-6.75h.75v-3.75H30v3.75h.75v6.75h.22l2.78 10.95v10.8H0z" class="st1"/>
          </g>
          <g id="shape691-13" v:mID="691" v:groupContext="shape" v:layerMember="0" transform="translate(21.75 -18.75)">
            <path class="st4" d="M0 68.625h3.75v4.5H0z"/>
          </g>
          <g id="shape692-15" v:mID="692" v:groupContext="shape" v:layerMember="0" transform="translate(9.75 -15.75)">
            <path class="st4" d="M0 71.625h9v1.5H0z"/>
          </g>
          <g id="shape693-17" v:mID="693" v:groupContext="shape" v:layerMember="0" transform="translate(9.75 -12.75)">
            <path class="st4" d="M0 71.625h11.25v1.5H0z"/>
          </g>
          <g id="shape694-19" v:mID="694" v:groupContext="shape" v:layerMember="0" transform="translate(6 -27.75)">
            <path d="M0 70.87v2.25h1.5v-.75h18.75v.75h1.5v-2.25H0z" class="st4"/>
          </g>
          <g id="shape695-21" v:mID="695" v:groupContext="shape" v:layerMember="0" transform="translate(2.25 -2.25)">
            <path d="M27 55.87h-.75v-6.75H3v6.75h-.75l-2.25 9v8.25h29.25v-8.25l-2.25-9zm-2.25 0v9H4.5V50.62h20.25v5.25z" class="st4"/>
          </g>
        </g>
      </g>
    </g>
  </g>
</svg>
