<svg xmlns="http://www.w3.org/2000/svg" xmlns:v="http://schemas.microsoft.com/visio/2003/SVGExtensions/" width="90.825" height="97.5" viewBox="0 0 68.119 73.125" color-interpolation-filters="sRGB" fill="none" fill-rule="evenodd" font-size="12" overflow="visible" stroke-linecap="square" stroke-miterlimit="3">
  <v:documentProperties v:langID="4108" v:metric="true" v:viewMarkup="false"/>
  <style>
    .st1,.st4,.st5{fill:#fff;stroke:none;stroke-linecap:butt;stroke-width:.75}.st4,.st5{fill:#515050}.st5{fill:#525352}
  </style>
  <g v:mID="0" v:index="1" v:groupContext="foregroundPage">
    <v:pageProperties v:drawingScale=".039" v:pageScale=".039" v:drawingUnits="24" v:shadowOffsetX="8.504" v:shadowOffsetY="-8.504"/>
    <v:layer v:name="symbols" v:index="0"/>
    <g id="group696-1" transform="translate(7.369 -6.563)" v:mID="696" v:groupContext="group" v:layerMember="0">
      <g id="group697-2" v:mID="697" v:groupContext="group" v:layerMember="0">
        <g id="group698-3" transform="translate(0 -6.75)" v:mID="698" v:groupContext="group" v:layerMember="0">
          <g id="shape699-4" v:mID="699" v:groupContext="shape" v:layerMember="0">
            <path d="M39.75 29.25V64.35C39.08 72 27 73.12 19.88 73.12 12.75 73.12.68 72 0 64.35v-36.6c0-5.48 9.98-7.87 19.88-7.87 9.9 0 19.87 2.39 19.87 7.87v1.5z" class="st1"/>
          </g>
          <g id="shape700-6" v:mID="700" v:groupContext="shape" v:layerMember="0" transform="translate(2.25 -2.25)">
            <path d="M17.63 37.88c-7.05 0-14.1-1.2-17.63-3.9v32.39c.53 6.23 13.2 6.75 17.63 6.75 4.42 0 17.02-.52 17.62-6.75V33.98c-3.52 2.7-10.57 3.9-17.62 3.9z" fill="#515251" stroke-linecap="butt" stroke-width=".75"/>
          </g>
          <g id="shape701-8" v:mID="701" v:groupContext="shape" v:layerMember="0" transform="translate(2.25 -39.75)">
            <ellipse cx="17.625" cy="67.5" rx="17.625" ry="5.625" fill="#515150" stroke-linecap="butt" stroke-width=".75"/>
          </g>
        </g>
        <g id="group702-10" transform="translate(14.25)" v:mID="702" v:groupContext="group" v:layerMember="0">
          <g id="shape703-11" v:mID="703" v:groupContext="shape" v:layerMember="0">
            <path d="M40.5 46.13v-3.76h-3.75v-3.74H0v26.99h3.75v3.76H7.5v3.74h36.75V46.13H40.5z" class="st1"/>
          </g>
          <g id="group704-13" transform="translate(2.25 -9.75)" v:mID="704" v:groupContext="group" v:layerMember="0">
            <g id="shape705-14" v:mID="705" v:groupContext="shape" v:layerMember="0" transform="translate(.75 -.75)">
              <path class="st1" d="M0 52.125h30.75v21H0z"/>
            </g>
            <g id="shape706-16" v:mID="706" v:groupContext="shape" v:layerMember="0">
              <path d="M30.75 52.13v19.49H1.5V52.13h29.25zm1.5-1.51H0v22.5h32.25v-22.5z" class="st4"/>
            </g>
          </g>
          <g id="shape707-18" v:mID="707" v:groupContext="shape" v:layerMember="0" transform="translate(4.5 -4.5)">
            <path class="st1" d="M0 47.625h35.25v25.5H0z"/>
          </g>
          <g id="group708-20" transform="translate(6 -6)" v:mID="708" v:groupContext="group" v:layerMember="0">
            <g id="shape709-21" v:mID="709" v:groupContext="shape" v:layerMember="0" transform="translate(.75 -.75)">
              <path class="st1" d="M0 52.125h30.75v21H0z"/>
            </g>
            <g id="shape710-23" v:mID="710" v:groupContext="shape" v:layerMember="0">
              <path d="M30.75 52.13v19.49H1.5V52.13h29.25zm1.5-1.51H0v22.5h32.25v-22.5z" class="st4"/>
            </g>
          </g>
          <g id="shape711-25" v:mID="711" v:groupContext="shape" v:layerMember="0" transform="translate(8.25 -.75)">
            <path class="st1" d="M0 47.625h35.25v25.5H0z"/>
          </g>
          <g id="group712-27" transform="translate(9.75 -2.25)" v:mID="712" v:groupContext="group" v:layerMember="0">
            <g id="shape713-28" v:mID="713" v:groupContext="shape" v:layerMember="0" transform="translate(.75 -.75)">
              <path class="st1" d="M0 52.125h30.75v21H0z"/>
            </g>
            <g id="shape714-30" v:mID="714" v:groupContext="shape" v:layerMember="0">
              <path d="M30.75 52.13v19.49H1.5V52.13h29.25zm1.5-1.51H0v22.5h32.25v-22.5z" class="st4"/>
            </g>
          </g>
          <g id="group715-32" transform="translate(14.4 -6.75)" v:mID="715" v:groupContext="group" v:layerMember="0">
            <g id="group716-33" v:mID="716" v:groupContext="group" v:layerMember="0">
              <g id="shape717-34" v:mID="717" v:groupContext="shape" v:layerMember="0">
                <path d="M11.32 69c-.22-.97-.52-1.5-1.2-1.87-.75-.45-1.12-.68-1.42-.68-.15 0-.23 0-.3.08-.15.15-.38.3-.6.45l-.08.07c-.22.15-.45.23-.6.3-.37.15-.82.23-1.2.23-.45 0-.82-.08-1.2-.23-.22-.07-.45-.15-.6-.3-.22-.15-.45-.3-.67-.52-.08-.08-.15-.08-.3-.08-.3 0-.53.23-1.43.68-.75.45-.97.9-1.2 1.87-.22.9-.45 3.15-.52 4.12h12c-.23-.97-.45-3.22-.68-4.12z" class="st5"/>
              </g>
              <g id="shape718-36" v:mID="718" v:groupContext="shape" v:layerMember="0" transform="translate(2.925 -6.9)">
                <path d="M2.92 73.12C1.28 73.12 0 71.7 0 69.9c0-1.8 1.35-3.22 2.92-3.22 1.65 0 2.93 1.42 2.93 3.22 0 1.73-1.28 3.22-2.93 3.22z" class="st5"/>
              </g>
            </g>
            <g id="group719-38" transform="translate(14.1 -1.5)" v:mID="719" v:groupContext="group" v:layerMember="0">
              <g id="shape720-39" v:mID="720" v:groupContext="shape" v:layerMember="0" transform="translate(0 -7.5)">
                <path class="st4" d="M0 71.625h9v1.5H0z"/>
              </g>
              <g id="shape721-41" v:mID="721" v:groupContext="shape" v:layerMember="0" transform="translate(0 -3.75)">
                <path class="st4" d="M0 71.625h9v1.5H0z"/>
              </g>
              <g id="shape722-43" v:mID="722" v:groupContext="shape" v:layerMember="0">
                <path class="st4" d="M0 71.625h9v1.5H0z"/>
              </g>
            </g>
          </g>
        </g>
      </g>
    </g>
  </g>
</svg>
