<svg xmlns="http://www.w3.org/2000/svg" xmlns:v="http://schemas.microsoft.com/visio/2003/SVGExtensions/" width="97.125" height="82.5" viewBox="0 0 72.844 61.875" color-interpolation-filters="sRGB" fill="none" fill-rule="evenodd" font-size="12" overflow="visible" stroke-linecap="square" stroke-miterlimit="3">
  <v:documentProperties v:langID="4108" v:metric="true" v:viewMarkup="false"/>
  <style>
    .st1,.st2{fill:#fff;stroke:none;stroke-linecap:butt;stroke-width:.75}.st2{fill:#525251}
  </style>
  <g v:mID="0" v:index="1" v:groupContext="foregroundPage">
    <v:pageProperties v:drawingScale=".039" v:pageScale=".039" v:drawingUnits="24" v:shadowOffsetX="8.504" v:shadowOffsetY="-8.504"/>
    <v:layer v:name="symbols" v:index="0"/>
    <g id="group1-1" transform="translate(6.797 -6.938)" v:mID="1" v:groupContext="group" v:layerMember="0">
      <g id="group2-2" v:mID="2" v:groupContext="group" v:layerMember="0">
        <g id="shape3-3" v:mID="3" v:groupContext="shape" v:layerMember="0">
          <path d="M54.67 19.2c-.37-3-2.84-5.32-5.92-5.33h-13.5c-2.55.01-4.8.98-6.52 2.56-1.73-1.58-3.91-2.56-6.23-2.56H9c-3.22.01-5.85 2.56-6 5.78-1.8.83-3 1.87-3 3.97v32.25c0 2.93 2.33 5.25 5.25 5.25h19.5c.6.45 1.35.75 2.1.75h4.05c.82 0 1.5-.3 2.1-.75h21c2.93 0 5.25-2.32 5.25-5.25V24.38c0-2.63-1.95-4.88-4.58-5.18z" class="st1"/>
        </g>
        <g id="shape4-5" v:mID="4" v:groupContext="shape" v:layerMember="0" transform="translate(2.25 -2.25)">
          <path d="M51.75 23.62h-1.5v-1.5c0-2.09-1.65-3.74-3.75-3.75H33c-2.77 0-5.25 1.58-6.52 3.83-1.36-2.25-3.61-3.83-6.23-3.83H6.75C4.65 18.38 3 20.03 3 22.12v1.5c-1.65 0-3 1.35-3 3v31.51a3 3 0 0 0 3 2.99h20.4c.23.45.67.75 1.2.75h4.05c.53 0 .9-.3 1.2-.75h21.9a3 3 0 0 0 3-2.99V26.62c0-1.65-1.35-3-3-3zm-18.75-3h13.5c.83 0 1.5.68 1.5 1.5v1.5H28.27c.83-1.79 2.63-3 4.73-3zm-27.75 1.5c0-.82.67-1.5 1.5-1.5h13.5c1.88 0 3.53 1.28 4.42 3H5.25v-1.5z" class="st2"/>
        </g>
        <g id="shape5-7" v:mID="5" v:groupContext="shape" v:layerMember="0" transform="translate(7.5 -5.25)">
          <path d="M0 58.87V25.13c0-.83.68-1.51 1.5-1.51H15c2.93.01 5.25 3.08 5.25 6.01v32.24c-1.27-1.87-3-3-6-3H0zm42.75 0H28.5c-3 0-4.43 1.13-6 3v-33c0-2.92 2.33-5.25 5.25-5.25h13.5c.82 0 1.5.68 1.5 1.51v33.74z" class="st1"/>
        </g>
        <g id="shape6-9" v:mID="6" v:groupContext="shape" v:layerMember="0" transform="translate(52.5 -29.25)">
          <path d="M.75 53.62H0v8.25h.75c.83 0 1.5-.67 1.5-1.49v-5.26c0-.82-.67-1.49-1.5-1.5z" class="st1"/>
        </g>
        <g id="shape7-11" v:mID="7" v:groupContext="shape" v:layerMember="0" transform="translate(52.5 -19.5)">
          <path d="M.75 53.62H0v8.26h.75c.83 0 1.5-.68 1.5-1.5v-5.26c0-.82-.67-1.49-1.5-1.5z" class="st1"/>
        </g>
        <g id="shape8-13" v:mID="8" v:groupContext="shape" v:layerMember="0" transform="translate(52.5 -9.75)">
          <path d="M.75 53.62H0v8.26h.75c.83 0 1.5-.68 1.5-1.5v-5.26c0-.82-.67-1.49-1.5-1.5z" class="st1"/>
        </g>
        <g id="group9-15" transform="translate(11.475 -24.75)" v:mID="9" v:groupContext="group" v:layerMember="0">
          <g id="shape10-16" v:mID="10" v:groupContext="shape" v:layerMember="0">
            <path d="M12 57.9c-.23-1.05-.53-1.58-1.28-2.03-.82-.45-1.2-.75-1.5-.75-.15 0-.22 0-.3.08-.22.15-.37.3-.59.45-.01 0-.01 0 0 0-.08 0-.08.07-.08.07-.23.15-.45.23-.68.3-.37.15-.82.23-1.27.23-.45 0-.9-.08-1.28-.23-.22-.07-.45-.15-.67-.3-.3-.15-.53-.3-.75-.52-.08-.08-.23-.08-.3-.08-.3 0-.6.23-1.5.75-.75.45-1.05.98-1.28 2.03-.22.9-.44 3-.52 3.97h12.75c-.3-.97-.53-3.07-.75-3.97z" class="st2"/>
          </g>
          <g id="shape11-18" v:mID="11" v:groupContext="shape" v:layerMember="0" transform="translate(3.075 -6.975)">
            <path d="M3.07 61.87C1.35 61.87 0 60.3 0 58.42c0-1.87 1.42-3.45 3.07-3.45 1.73 0 3.08 1.58 3.08 3.45 0 1.88-1.35 3.45-3.08 3.45z" class="st2"/>
          </g>
        </g>
        <g id="shape12-20" v:mID="12" v:groupContext="shape" v:layerMember="0" transform="translate(11.25 -18.75)">
          <path class="st2" d="M0 59.625h12.75v2.25H0z"/>
        </g>
        <g id="shape13-22" v:mID="13" v:groupContext="shape" v:layerMember="0" transform="translate(11.25 -14.25)">
          <path class="st2" d="M0 59.625h12.75v2.25H0z"/>
        </g>
        <g id="group14-24" transform="translate(33.975 -24.75)" v:mID="14" v:groupContext="group" v:layerMember="0">
          <g id="shape15-25" v:mID="15" v:groupContext="shape" v:layerMember="0">
            <path d="M12 57.9c-.23-1.05-.53-1.58-1.28-2.03-.82-.45-1.2-.75-1.5-.75-.15 0-.22 0-.3.08-.22.15-.37.3-.59.45-.01 0-.01 0 0 0-.08 0-.08.07-.08.07-.23.15-.45.23-.68.3-.37.15-.82.23-1.27.23-.45 0-.9-.08-1.28-.23-.22-.07-.44-.15-.67-.3-.3-.15-.53-.3-.75-.52-.08-.08-.23-.08-.3-.08-.3 0-.6.23-1.5.75-.75.45-1.05.98-1.28 2.03-.22.9-.44 3-.52 3.97h12.75c-.3-.97-.53-3.07-.75-3.97z" class="st2"/>
          </g>
          <g id="shape16-27" v:mID="16" v:groupContext="shape" v:layerMember="0" transform="translate(3.075 -6.975)">
            <path d="M3.07 61.87C1.35 61.87 0 60.3 0 58.42c0-1.87 1.42-3.45 3.07-3.45 1.73 0 3.08 1.58 3.08 3.45 0 1.88-1.35 3.45-3.08 3.45z" class="st2"/>
          </g>
        </g>
        <g id="shape17-29" v:mID="17" v:groupContext="shape" v:layerMember="0" transform="translate(33.75 -14.25)">
          <path class="st2" d="M0 59.625h12.75v2.25H0z"/>
        </g>
        <g id="shape18-31" v:mID="18" v:groupContext="shape" v:layerMember="0" transform="translate(33.75 -18.75)">
          <path class="st2" d="M0 59.625h12.75v2.25H0z"/>
        </g>
      </g>
    </g>
  </g>
</svg>
