<svg xmlns="http://www.w3.org/2000/svg" xmlns:v="http://schemas.microsoft.com/visio/2003/SVGExtensions/" width="97.125" height="79.5" viewBox="0 0 72.844 59.625" color-interpolation-filters="sRGB" fill="none" fill-rule="evenodd" font-size="12" overflow="visible" stroke-linecap="square" stroke-miterlimit="3">
  <v:documentProperties v:langID="4108" v:metric="true" v:viewMarkup="false"/>
  <style>
    .st1,.st3{fill:#fff;stroke:none;stroke-linecap:butt;stroke-width:.75}.st3{fill:#2072b8}
  </style>
  <g v:mID="0" v:index="1" v:groupContext="foregroundPage">
    <v:pageProperties v:drawingScale=".039" v:pageScale=".039" v:drawingUnits="24" v:shadowOffsetX="8.504" v:shadowOffsetY="-8.504"/>
    <v:layer v:name="symbols" v:index="0"/>
    <g id="group56-1" transform="translate(7.547 -7.313)" v:mID="56" v:groupContext="group" v:layerMember="0">
      <g id="group57-2" v:mID="57" v:groupContext="group" v:layerMember="0">
        <g id="shape58-3" v:mID="58" v:groupContext="shape" v:layerMember="0">
          <path d="M5.25 59.62C2.32 59.62 0 57.3 0 54.37V19.88a5.22 5.22 0 0 1 5.25-5.26H52.5c2.92.01 5.25 2.33 5.25 5.26v34.49c0 2.93-2.33 5.25-5.25 5.25H5.25z" class="st1"/>
        </g>
        <g id="shape59-5" v:mID="59" v:groupContext="shape" v:layerMember="0" transform="translate(2.25 -2.25)">
          <path d="M50.25 19.12H3c-1.65.01-3 1.35-3 3v34.5c0 1.66 1.35 3 3 3h47.25c1.65 0 3-1.34 3-3v-34.5c0-1.65-1.35-2.99-3-3zm-6 2.26h2.25v2.24h-2.25v-2.24zm-4.5 0H42v2.24h-2.25v-2.24zM51 56.62c0 .45-.3.75-.75.75H3c-.45 0-.75-.3-.75-.75V26.63H51v29.99zm0-33h-2.25v-2.24H51v2.24z" fill="#515150" stroke-linecap="butt" stroke-width=".75"/>
        </g>
      </g>
      <g id="group60-7" transform="translate(15 -5.55)" v:mID="60" v:groupContext="group" v:layerMember="0">
        <g id="shape61-8" v:mID="61" v:groupContext="shape" v:layerMember="0" transform="translate(5.25 -1.8)">
          <path d="M21.75 53.4l-10.8 6.22L0 53.4V40.95l10.95-6.22 10.8 6.22V53.4z" class="st3"/>
        </g>
        <g id="group62-10" v:mID="62" v:groupContext="group" v:layerMember="0">
          <g id="shape63-11" v:mID="63" v:groupContext="shape" v:layerMember="0">
            <path d="M0 55.58v-7.95l6.75-4.05 6.75 4.05v7.95l-6.75 4.04L0 55.58z" class="st1"/>
          </g>
          <g id="shape64-13" v:mID="64" v:groupContext="shape" v:layerMember="0" transform="translate(1.5 -1.725)">
            <path d="M10.5 56.48l-5.25 3.14L0 56.48v-6.3l5.25-3.15 5.25 3.15v6.3z" class="st3"/>
          </g>
        </g>
      </g>
    </g>
  </g>
</svg>
