<svg xmlns="http://www.w3.org/2000/svg" xmlns:v="http://schemas.microsoft.com/visio/2003/SVGExtensions/" width="93.225" height="81" viewBox="0 0 69.919 60.75" color-interpolation-filters="sRGB" fill="none" fill-rule="evenodd" font-size="12" overflow="visible" stroke-linecap="square" stroke-miterlimit="3">
  <v:documentProperties v:langID="4108" v:metric="true" v:viewMarkup="false"/>
  <style>
    .st1,.st2{fill:#fff;stroke:none;stroke-linecap:butt;stroke-width:.75}.st2{fill:#515150}
  </style>
  <g v:mID="0" v:index="1" v:groupContext="foregroundPage">
    <v:pageProperties v:drawingScale=".039" v:pageScale=".039" v:drawingUnits="24" v:shadowOffsetX="8.504" v:shadowOffsetY="-8.504"/>
    <v:layer v:name="symbols" v:index="0"/>
    <g id="group117-1" transform="translate(6.122 -.975)" v:mID="117" v:groupContext="group" v:layerMember="0">
      <g id="group118-2" v:mID="118" v:groupContext="group" v:layerMember="0">
        <g id="group119-3" transform="translate(0 -8.175)" v:mID="119" v:groupContext="group" v:layerMember="0">
          <g id="shape120-4" v:mID="120" v:groupContext="shape" v:layerMember="0">
            <path d="M5.25 60.75C2.32 60.75 0 58.43 0 55.5V21c0-2.92 2.32-5.25 5.25-5.25H52.5c2.92 0 5.25 2.33 5.25 5.25v34.5c0 2.93-2.33 5.25-5.25 5.25H5.25z" class="st1"/>
          </g>
          <g id="shape121-6" v:mID="121" v:groupContext="shape" v:layerMember="0" transform="translate(2.25 -2.25)">
            <path d="M50.25 20.25H3c-1.65 0-3 1.35-3 3v34.5c0 1.65 1.35 3 3 3h47.25c1.65 0 3-1.35 3-3v-34.5c0-1.65-1.35-3-3-3zm-6 2.25h2.25v2.25h-2.25V22.5zm-4.5 0H42v2.25h-2.25V22.5zM51 57.75c0 .45-.3.75-.75.75H3c-.45 0-.75-.3-.75-.75v-30H51v30zm0-33h-2.25V22.5H51v2.25z" class="st2"/>
          </g>
        </g>
        <g id="group122-8" transform="translate(27.6)" v:mID="122" v:groupContext="group" v:layerMember="0">
          <g id="shape123-9" v:mID="123" v:groupContext="shape" v:layerMember="0">
            <ellipse cx="16.5" cy="44.25" rx="16.5" ry="16.5" class="st1"/>
          </g>
          <g id="group124-11" transform="translate(2.325 -2.325)" v:mID="124" v:groupContext="group" v:layerMember="0">
            <g id="shape125-12" v:mID="125" v:groupContext="shape" v:layerMember="0" transform="translate(15 -14.55)">
              <path d="M5.63 53.55c-1.73.53-3.68.83-5.63.9v6.3c2.4-.07 4.73-.37 6.83-.97-.15-2.33-.53-4.43-1.2-6.23z" class="st2"/>
            </g>
            <g id="shape126-14" v:mID="126" v:groupContext="shape" v:layerMember="0" transform="translate(4.725 -23.775)">
              <path d="M4.5 57c-1.65.6-3.15 1.58-4.5 2.7.68.38 1.43.75 2.18 1.05.6-1.42 1.42-2.7 2.32-3.75z" class="st2"/>
            </g>
            <g id="shape127-16" v:mID="127" v:groupContext="shape" v:layerMember="0" transform="translate(8.325 -22.35)">
              <path d="M0 59.93c1.57.45 3.3.75 5.1.82v-6h-.6c-1.73.6-3.3 2.55-4.5 5.18z" class="st2"/>
            </g>
            <g id="shape128-18" v:mID="128" v:groupContext="shape" v:layerMember="0" transform="translate(6.675 -14.625)">
              <path d="M0 59.78c2.1.6 4.43.9 6.83.97v-6.22c-1.96-.08-3.9-.38-5.63-.9-.67 1.8-1.05 3.9-1.2 6.15z" class="st2"/>
            </g>
            <g id="shape129-20" v:mID="129" v:groupContext="shape" v:layerMember="0" transform="translate(22.65 -8.325)">
              <path d="M.68 54.83c0 2.1-.23 4.12-.68 5.92 2.02-.75 3.9-1.72 5.48-2.92.22-.98.3-1.95.3-2.93 0-.9-.08-1.8-.23-2.62C4.12 53.25 2.48 54 .6 54.6c.08.08.08.15.08.23z" class="st2"/>
            </g>
            <g id="shape130-22" v:mID="130" v:groupContext="shape" v:layerMember="0" transform="translate(0 -8.175)">
              <path d="M5.17 54.68v-.23c-1.79-.6-3.52-1.42-4.95-2.32-.15.82-.22 1.72-.22 2.62 0 1.2.15 2.33.45 3.38 1.65 1.12 3.45 2.02 5.4 2.62-.45-1.8-.68-3.9-.68-6.07z" class="st2"/>
            </g>
            <g id="shape131-24" v:mID="131" v:groupContext="shape" v:layerMember="0" transform="translate(.675 -16.05)">
              <path d="M3 53.1c-1.35 1.5-2.4 3.3-3 5.33 1.27.97 2.85 1.72 4.57 2.32.16-2.25.53-4.42 1.21-6.22-1.05-.38-1.96-.9-2.78-1.43z" class="st2"/>
            </g>
            <g id="shape132-26" v:mID="132" v:groupContext="shape" v:layerMember="0" transform="translate(14.925 -22.35)">
              <path d="M.07 60.75c1.8-.07 3.53-.37 5.1-.82C4.05 57.3 2.4 55.35.6 54.75H0v6h.07z" class="st2"/>
            </g>
            <g id="shape133-28" v:mID="133" v:groupContext="shape" v:layerMember="0" transform="translate(1.125 -.75)">
              <path d="M5.17 55.13C3.3 54.6 1.57 53.85 0 52.95c1.57 3.6 4.57 6.45 8.32 7.8-1.27-1.42-2.4-3.37-3.15-5.62z" class="st2"/>
            </g>
            <g id="shape134-30" v:mID="134" v:groupContext="shape" v:layerMember="0" transform="translate(19.275 -23.7)">
              <path d="M0 56.93c.9 1.05 1.65 2.32 2.25 3.82.75-.3 1.5-.67 2.18-1.05-1.2-1.2-2.78-2.1-4.43-2.77z" class="st2"/>
            </g>
            <g id="shape135-32" v:mID="135" v:groupContext="shape" v:layerMember="0" transform="translate(22.125 -16.05)">
              <path d="M5.78 58.43c-.6-2.03-1.66-3.83-3-5.33-.83.53-1.73.98-2.78 1.43.6 1.87 1.05 3.97 1.2 6.22 1.65-.6 3.23-1.35 4.58-2.32z" class="st2"/>
            </g>
            <g id="shape136-34" v:mID="136" v:groupContext="shape" v:layerMember="0" transform="translate(19.05 -.75)">
              <path d="M3.15 54.98c-.75 2.4-1.8 4.35-3.15 5.77 3.82-1.35 6.9-4.35 8.4-8.17-1.58.97-3.37 1.8-5.25 2.4z" class="st2"/>
            </g>
            <g id="shape137-36" v:mID="137" v:groupContext="shape" v:layerMember="0" transform="translate(8.1)">
              <path d="M5.4 60.75v-5.32c-1.87 0-3.67-.23-5.4-.6 1.28 3.22 3.23 5.47 5.4 5.92z" class="st2"/>
            </g>
            <g id="shape138-38" v:mID="138" v:groupContext="shape" v:layerMember="0" transform="translate(15 -6.825)">
              <path d="M6.83 53.55c-2.1.53-4.43.9-6.83.98v6.22c2.03-.07 4.05-.37 6-.9.53-1.95.83-4.05.83-6.3z" class="st2"/>
            </g>
            <g id="shape139-40" v:mID="139" v:groupContext="shape" v:layerMember="0" transform="translate(6.675 -6.825)">
              <path d="M6.83 60.75v-6.22c-2.4-.08-4.73-.38-6.83-.98 0 2.33.38 4.5.9 6.38 1.88.52 3.9.75 5.93.82z" class="st2"/>
            </g>
            <g id="shape140-42" v:mID="140" v:groupContext="shape" v:layerMember="0" transform="translate(15 -.075)">
              <path d="M0 55.43v5.32c2.18-.45 4.2-2.77 5.4-6.07-1.72.52-3.52.75-5.4.75z" class="st2"/>
            </g>
          </g>
        </g>
      </g>
    </g>
  </g>
</svg>
