<svg xmlns="http://www.w3.org/2000/svg" xmlns:v="http://schemas.microsoft.com/visio/2003/SVGExtensions/" width="60" height="90" viewBox="0 0 45 67.5" color-interpolation-filters="sRGB" fill="none" fill-rule="evenodd" font-size="12" overflow="visible" stroke-linecap="square" stroke-miterlimit="3">
  <v:documentProperties v:langID="4108" v:metric="true" v:viewMarkup="false"/>
  <g v:mID="0" v:index="1" v:groupContext="foregroundPage">
    <v:pageProperties v:drawingScale=".039" v:pageScale=".039" v:drawingUnits="24" v:shadowOffsetX="8.504" v:shadowOffsetY="-8.504"/>
    <v:layer v:name="symbols" v:index="0"/>
    <g transform="translate(9 -8.625)" v:mID="160" v:groupContext="group" v:layerMember="0">
      <g v:mID="161" v:groupContext="group" v:layerMember="0">
        <g v:mID="162" v:groupContext="shape" v:layerMember="0">
          <path d="M13.43 67.5C6 67.5 0 61.5 0 54.15V29.4c0-6.07 4.8-11.02 10.72-11.03 5.85.01 10.58 4.96 10.58 11.03v.22c.45-.15.9-.22 1.42-.22 2.33 0 4.21 1.88 4.2 4.2v20.62c-.15 7.43-5.99 13.28-13.49 13.28z" fill="#fff" stroke-linecap="butt" stroke-width=".75"/>
        </g>
        <g v:mID="163" v:groupContext="shape" v:layerMember="0" transform="translate(2.175 -2.325)">
          <path d="M20.47 33.98c-1.05 0-1.8.9-1.8 1.95v20.7c0 4.05-3.37 7.27-7.42 7.27s-7.43-3.22-7.43-7.27v-24.9c0-2.63 2.1-4.95 4.73-4.95 2.62 0 4.57 2.32 4.57 4.95v19.12c0 1.05-.82 1.95-1.87 1.95-1.05 0-1.87-.9-1.88-1.95v-15.6c.01-1.05-.82-1.95-1.87-1.95-1.05 0-1.8.83-1.8 1.95v15.53c0 3.15 2.4 5.69 5.55 5.69s5.55-2.54 5.55-5.69V31.73c0-4.73-3.6-8.78-8.33-8.78C3.75 22.95 0 27 0 31.73V56.4c0 6.15 4.95 11.1 11.17 11.1 6.15 0 11.1-4.88 11.18-11.03V35.85c.07-.97-.75-1.87-1.88-1.87z" fill="#505050" stroke-linecap="butt" stroke-width=".75"/>
        </g>
      </g>
    </g>
  </g>
</svg>
