<svg xmlns="http://www.w3.org/2000/svg" xmlns:v="http://schemas.microsoft.com/visio/2003/SVGExtensions/" width="97.125" height="97.5" viewBox="0 0 72.844 73.125" color-interpolation-filters="sRGB" fill="none" fill-rule="evenodd" font-size="12" overflow="visible" stroke-linecap="square" stroke-miterlimit="3">
  <v:documentProperties v:langID="4108" v:metric="true" v:viewMarkup="false"/>
  <style>
    .st1,.st2{fill:#fff;stroke:none;stroke-linecap:butt;stroke-width:.75}.st2{fill:#505050}
  </style>
  <g v:mID="0" v:index="1" v:groupContext="foregroundPage">
    <v:pageProperties v:drawingScale=".039" v:pageScale=".039" v:drawingUnits="24" v:shadowOffsetX="8.504" v:shadowOffsetY="-8.504"/>
    <v:layer v:name="symbols" v:index="0"/>
    <g id="group210-1" transform="translate(7.744 -8.4)" v:mID="210" v:groupContext="group" v:layerMember="0">
      <g id="group211-2" v:mID="211" v:groupContext="group" v:layerMember="0">
        <g id="shape212-3" v:mID="212" v:groupContext="shape" v:layerMember="0">
          <path d="M28.65 73.12c-1.5 0-3-.52-4.13-1.57l-1.8-1.65c-.29-.3-.67-.45-1.12-.45h-.38l-2.39.52c-.46.08-.83.15-1.28.15-2.7 0-5.03-1.72-5.85-4.27l-.75-2.32c-.15-.53-.52-.91-1.05-1.06l-2.32-.75c-3.01-.97-4.81-4.05-4.13-7.12l.53-2.4c.07-.53-.01-1.05-.38-1.43l-1.5-1.72C0 46.73 0 43.2 2.1 40.8L3.75 39c.37-.37.53-.9.37-1.43l-.52-2.4c-.68-3.07 1.13-6.15 4.13-7.12l2.32-.75c.53-.15.9-.53 1.05-1.05l.75-2.32c.83-2.55 3.15-4.28 5.85-4.28.45 0 .9.08 1.28.15l2.39.53c.08-.01.23-.01.38 0 .37-.01.83-.16 1.13-.45l1.79-1.65c1.05-.9 2.48-1.43 3.98-1.43s3 .53 4.12 1.57l1.8 1.65c.3.3.68.45 1.13.46.15-.01.22-.01.37 0l2.4-.53c.46-.07.83-.15 1.28-.15 2.7 0 5.02 1.73 5.85 4.27l.75 2.33c.15.52.52.9 1.05 1.05l2.32.75c3 .97 4.81 4.05 4.13 7.12l-.53 2.41c-.07.52.01 1.04.38 1.42l1.65 1.8c2.1 2.32 2.1 5.85 0 8.25L53.7 51c-.37.37-.53.9-.38 1.42l.53 2.4c.68 3.08-1.13 6.16-4.13 7.13l-2.32.75c-.53.15-.9.53-1.05 1.05l-.75 2.32c-.83 2.56-3.15 4.28-5.85 4.28-.45 0-.9-.07-1.28-.15l-2.39-.53h-.38c-.37 0-.83.16-1.12.45l-1.81 1.36a5.954 5.954 0 0 1-4.12 1.64z" class="st1"/>
        </g>
        <g id="shape213-5" v:mID="213" v:groupContext="shape" v:layerMember="0" transform="translate(2.4 -1.95)">
          <path d="M28.88 21.97l1.8 1.65c.89.83 2.17 1.2 3.37.9l2.4-.52c1.95-.45 3.9.67 4.5 2.62l.75 2.33a3.7 3.7 0 0 0 2.48 2.47l2.32.75c1.87.6 3 2.55 2.63 4.5l-.53 2.4c-.23 1.2.08 2.48.9 3.38l1.65 1.8c1.35 1.5 1.35 3.75 0 5.17l-1.65 1.8c-.82.9-1.2 2.18-.9 3.38l.53 2.4c.44 1.95-.68 3.9-2.63 4.5l-2.32.75c-1.2.38-2.1 1.27-2.48 2.47l-.75 2.33c-.6 1.87-2.55 3-4.5 2.62l-2.32-.45c-1.2-.22-2.48.08-3.38.9l-1.87 1.65c-1.51 1.35-3.75 1.35-5.18 0l-1.8-1.65c-.9-.82-2.17-1.2-3.37-.9l-2.48.53c-1.95.45-3.9-.68-4.5-2.63l-.75-2.32c-.37-1.2-1.28-2.1-2.47-2.48L6 61.57c-1.87-.59-3-2.55-2.63-4.5l.53-2.4c.23-1.19-.07-2.47-.9-3.37l-1.65-1.8C0 48 0 45.75 1.35 44.32L3 42.52c.83-.89 1.2-2.17.9-3.37l-.52-2.48c-.45-1.95.67-3.9 2.62-4.5l2.33-.75c1.19-.37 2.1-1.27 2.47-2.47l.75-2.33c.6-1.87 2.55-3 4.5-2.62l2.4.52c1.2.23 2.48-.07 3.37-.9l1.81-1.65c1.5-1.27 3.74-1.27 5.25 0z" class="st2"/>
        </g>
        <g id="shape214-7" v:mID="214" v:groupContext="shape" v:layerMember="0" transform="translate(10.875 -10.425)">
          <path d="M17.78 73.12C7.95 73.12 0 65.18 0 55.35c0-9.83 7.95-17.77 17.78-17.78 9.82.01 17.77 7.95 17.77 17.78 0 9.83-7.95 17.77-17.77 17.77z" class="st1"/>
        </g>
        <g id="shape215-9" v:mID="215" v:groupContext="shape" v:layerMember="0" transform="translate(13.125 -12.675)">
          <path d="M15.52 73.12C6.97 73.12 0 66.15 0 57.6s6.97-15.52 15.52-15.52c8.56 0 15.53 6.97 15.53 15.52s-6.97 15.52-15.53 15.52z" class="st2"/>
        </g>
        <g id="shape216-11" v:mID="216" v:groupContext="shape" v:layerMember="0" transform="translate(19.5 -19.875)">
          <path d="M18.15 58.95L7.05 73.12.22 65.4a.484.484 0 0 1 0-.68l1.8-1.65c.23-.15.53-.15.68.08l4.27 4.65 8.4-11.1c.15-.22.53-.3.75-.08L18 58.2c.22.15.3.53.15.75z" class="st1"/>
        </g>
      </g>
    </g>
  </g>
</svg>
