<svg xmlns="http://www.w3.org/2000/svg" xmlns:v="http://schemas.microsoft.com/visio/2003/SVGExtensions/" width="75" height="90" viewBox="0 0 56.25 67.5" color-interpolation-filters="sRGB" fill="none" fill-rule="evenodd" font-size="12" overflow="visible" stroke-linecap="square" stroke-miterlimit="3">
  <v:documentProperties v:langID="4108" v:metric="true" v:viewMarkup="false"/>
  <style>
    .st1{fill:#fff;stroke:none;stroke-linecap:butt;stroke-width:.75}
  </style>
  <g v:mID="0" v:index="1" v:groupContext="foregroundPage">
    <v:pageProperties v:drawingScale=".039" v:pageScale=".039" v:drawingUnits="24" v:shadowOffsetX="8.504" v:shadowOffsetY="-8.504"/>
    <v:layer v:name="symbols" v:index="0"/>
    <g id="group244-1" transform="translate(10.125 -8.063)" v:mID="244" v:groupContext="group" v:layerMember="0">
      <g id="group245-2" v:mID="245" v:groupContext="group" v:layerMember="0">
        <g id="shape246-3" v:mID="246" v:groupContext="shape" v:layerMember="0">
          <path d="M6 67.5c-3.3 0-6-2.7-6-6V23.25c0-3.3 2.7-6 6-6h24c3.3 0 6 2.7 6 6V61.5c0 3.3-2.7 6-6 6H6z" class="st1"/>
        </g>
        <g id="shape247-5" v:mID="247" v:groupContext="shape" v:layerMember="0" transform="translate(2.25 -2.25)">
          <path d="M27.75 67.5h-24C1.65 67.5 0 65.85 0 63.75V25.5c0-2.1 1.65-3.75 3.75-3.75h24c2.1 0 3.75 1.65 3.75 3.75v38.25c0 2.1-1.65 3.75-3.75 3.75z" fill="#505050" stroke-linecap="butt" stroke-width=".75"/>
        </g>
        <g id="shape248-7" v:mID="248" v:groupContext="shape" v:layerMember="0" transform="translate(6 -34.5)">
          <path d="M22.5 67.5h-21C.68 67.5 0 66.82 0 66v-6.75c0-.83.68-1.5 1.5-1.5h21c.83 0 1.5.67 1.5 1.5V66c0 .82-.67 1.5-1.5 1.5z" class="st1"/>
        </g>
        <g id="shape249-9" v:mID="249" v:groupContext="shape" v:layerMember="0" transform="translate(7.5 -9)">
          <path d="M3.75 52.5h-3c-.45 0-.75-.3-.75-.75v-3c0-.45.3-.75.75-.75h3c.45 0 .75.3.75.75v3c0 .45-.3.75-.75.75zm9-.75v-3c0-.45-.3-.75-.75-.75H9c-.45 0-.75.3-.75.75v3c0 .45.3.75.75.75h3c.45 0 .75-.3.75-.75zm8.25 0v-3c0-.45-.3-.75-.75-.75h-3c-.45 0-.75.3-.75.75v3c0 .45.3.75.75.75h3c.45 0 .75-.3.75-.75zm-16.5 7.5v-3c0-.45-.3-.75-.75-.75h-3c-.45 0-.75.3-.75.75v3c0 .45.3.75.75.75h3c.45 0 .75-.3.75-.75zm8.25 0v-3c0-.45-.3-.75-.75-.75H9c-.45 0-.75.3-.75.75v3c0 .45.3.75.75.75h3c.45 0 .75-.3.75-.75zm8.25 0v-3c0-.45-.3-.75-.75-.75h-3c-.45 0-.75.3-.75.75v3c0 .45.3.75.75.75h3c.45 0 .75-.3.75-.75zm-16.5 7.5v-3c0-.45-.3-.75-.75-.75h-3c-.45 0-.75.3-.75.75v3c0 .45.3.75.75.75h3c.45 0 .75-.3.75-.75zm8.25 0v-3c0-.45-.3-.75-.75-.75H9c-.45 0-.75.3-.75.75v3c0 .45.3.75.75.75h3c.45 0 .75-.3.75-.75zm8.25 0v-3c0-.45-.3-.75-.75-.75h-3c-.45 0-.75.3-.75.75v3c0 .45.3.75.75.75h3c.45 0 .75-.3.75-.75z" class="st1"/>
        </g>
      </g>
    </g>
  </g>
</svg>
