<svg xmlns="http://www.w3.org/2000/svg" xmlns:v="http://schemas.microsoft.com/visio/2003/SVGExtensions/" width="87" height="70.5" viewBox="0 0 65.25 52.875" color-interpolation-filters="sRGB" fill="none" fill-rule="evenodd" font-size="12" overflow="visible" stroke-linecap="square" stroke-miterlimit="3">
  <v:documentProperties v:langID="4108" v:metric="true" v:viewMarkup="false"/>
  <style>
    .st2{fill:#505050;stroke:none;stroke-linecap:butt;stroke-width:.75}
  </style>
  <g v:mID="0" v:index="1" v:groupContext="foregroundPage">
    <v:pageProperties v:drawingScale=".039" v:pageScale=".039" v:drawingUnits="24" v:shadowOffsetX="8.504" v:shadowOffsetY="-8.504"/>
    <v:layer v:name="symbols" v:index="0"/>
    <g id="group278-1" transform="translate(8.953 -8.475)" v:mID="278" v:groupContext="group" v:layerMember="0">
      <g id="group279-2" v:mID="279" v:groupContext="group" v:layerMember="0">
        <g id="shape280-3" v:mID="280" v:groupContext="shape" v:layerMember="0">
          <path d="M42.82 29.7H36.3l5.92-5.93-1.57-1.57c-3.38-3.38-7.95-5.25-12.75-5.25s-9.37 1.87-12.75 5.25c-2.1 2.1-3.67 4.72-4.5 7.5h-5.4C2.32 29.7 0 32.02 0 34.95c0 2.92 2.33 5.17 5.17 5.17h5.4c.83 2.85 2.4 5.4 4.5 7.5 3.38 3.38 7.95 5.25 12.75 5.25S37.2 51 40.57 47.62l1.58-1.57-6-6h6.52c2.85 0 5.18-2.33 5.18-5.18 0-2.85-2.18-5.17-5.03-5.17z" fill="#fff" stroke-linecap="butt" stroke-width=".75"/>
        </g>
        <g id="shape281-5" v:mID="281" v:groupContext="shape" v:layerMember="0" transform="translate(2.25 -2.175)">
          <path d="M25.65 47.92c-3 0-5.7-1.2-7.65-3.15a10.766 10.766 0 0 1-3.15-7.65c0-3 1.2-5.7 3.15-7.65 1.95-1.95 4.65-3.15 7.65-3.15s5.7 1.2 7.65 3.15l3.53-3.52C33.97 23.1 30 21.3 25.65 21.3s-8.33 1.8-11.17 4.65a15.826 15.826 0 0 0-4.36 8.17H2.93c-1.58 0-2.93 1.35-2.93 3s1.35 2.93 2.93 2.93H10.12c.61 3.15 2.18 6 4.36 8.17 2.84 2.85 6.82 4.65 11.17 4.65s8.32-1.8 11.18-4.65L33.3 44.7c-1.95 2.02-4.65 3.22-7.65 3.22z" class="st2"/>
        </g>
        <g id="shape282-7" v:mID="282" v:groupContext="shape" v:layerMember="0" transform="translate(22.575 -12.6)">
          <path d="M20.25 44.55H9.75c-.97-1.43-2.55-2.33-4.42-2.33-2.93 0-5.33 2.4-5.33 5.33 0 2.92 2.4 5.32 5.33 5.32 1.87 0 3.45-.97 4.42-2.4h10.5c1.65 0 2.93-1.35 2.93-2.92 0-1.65-1.35-3-2.93-3z" class="st2"/>
        </g>
      </g>
    </g>
  </g>
</svg>
