<svg xmlns="http://www.w3.org/2000/svg" xmlns:v="http://schemas.microsoft.com/visio/2003/SVGExtensions/" width="97.125" height="82.5" viewBox="0 0 72.844 61.875" color-interpolation-filters="sRGB" fill="none" fill-rule="evenodd" font-size="12" overflow="visible" stroke-linecap="square" stroke-miterlimit="3">
  <v:documentProperties v:langID="4108" v:metric="true" v:viewMarkup="false"/>
  <style>
    .st3{fill:#515050;stroke:none;stroke-linecap:butt;stroke-width:.75}
  </style>
  <g v:mID="0" v:index="1" v:groupContext="foregroundPage">
    <v:pageProperties v:drawingScale=".039" v:pageScale=".039" v:drawingUnits="24" v:shadowOffsetX="8.504" v:shadowOffsetY="-8.504"/>
    <v:layer v:name="symbols" v:index="0"/>
    <g id="group299-1" transform="translate(7.547 -8.438)" v:mID="299" v:groupContext="group" v:layerMember="0">
      <g id="group300-2" v:mID="300" v:groupContext="group" v:layerMember="0">
        <g id="group301-3" v:mID="301" v:groupContext="group" v:layerMember="0">
          <g id="shape302-4" v:mID="302" v:groupContext="shape" v:layerMember="0">
            <path d="M5.25 61.87C2.32 61.87 0 59.55 0 56.62v-34.5c0-2.92 2.32-5.25 5.25-5.25H52.5c2.92 0 5.25 2.33 5.25 5.25v34.5c0 2.93-2.33 5.25-5.25 5.25H5.25z" fill="#fff" stroke-linecap="butt" stroke-width=".75"/>
          </g>
          <g id="shape303-6" v:mID="303" v:groupContext="shape" v:layerMember="0" transform="translate(2.25 -2.25)">
            <path d="M50.25 21.37H3c-1.65 0-3 1.35-3 3v34.5c0 1.65 1.35 3 3 3h47.25c1.65 0 3-1.35 3-3v-34.5c0-1.65-1.35-3-3-3zm-6 2.25h2.25v2.25h-2.25v-2.25zm-4.5 0H42v2.25h-2.25v-2.25zM51 58.87c0 .45-.3.75-.75.75H3c-.45 0-.75-.3-.75-.75v-30H51v30zm0-33h-2.25v-2.25H51v2.25z" fill="#515150" stroke-linecap="butt" stroke-width=".75"/>
          </g>
        </g>
        <g id="shape304-8" v:mID="304" v:groupContext="shape" v:layerMember="0" transform="translate(7.5 -8.25)">
          <path d="M7.5 40.12v20.25h-6V40.12h6zm1.5-1.5H0v23.25h9V38.62z" class="st3"/>
        </g>
        <g id="shape305-10" v:mID="305" v:groupContext="shape" v:layerMember="0" transform="translate(18.75 -8.25)">
          <path d="M7.5 40.12v20.25h-6V40.12h6zm1.5-1.5H0v23.25h9V38.62z" class="st3"/>
        </g>
        <g id="shape306-12" v:mID="306" v:groupContext="shape" v:layerMember="0" transform="translate(30 -8.25)">
          <path d="M7.5 40.12v20.25h-6V40.12h6zm1.5-1.5H0v23.25h9V38.62z" class="st3"/>
        </g>
        <g id="shape307-14" v:mID="307" v:groupContext="shape" v:layerMember="0" transform="translate(41.25 -8.25)">
          <path d="M7.5 40.12v20.25h-6V40.12h6zm1.5-1.5H0v23.25h9V38.62z" class="st3"/>
        </g>
      </g>
    </g>
  </g>
</svg>
