<svg xmlns="http://www.w3.org/2000/svg" xmlns:v="http://schemas.microsoft.com/visio/2003/SVGExtensions/" width="90" height="97.5" viewBox="0 0 67.5 73.125" color-interpolation-filters="sRGB" fill="none" fill-rule="evenodd" font-size="12" overflow="visible" stroke-linecap="square" stroke-miterlimit="3">
  <v:documentProperties v:langID="4108" v:metric="true" v:viewMarkup="false"/>
  <style>
    .st1,.st2{fill:#fff;stroke:none;stroke-linecap:butt;stroke-width:.75}.st2{fill:#515050}
  </style>
  <g v:mID="0" v:index="1" v:groupContext="foregroundPage">
    <v:pageProperties v:drawingScale=".039" v:pageScale=".039" v:drawingUnits="24" v:shadowOffsetX="8.504" v:shadowOffsetY="-8.504"/>
    <v:layer v:name="symbols" v:index="0"/>
    <g id="group352-1" transform="translate(8.25 -7.313)" v:mID="352" v:groupContext="group" v:layerMember="0">
      <g id="shape353-2" v:mID="353" v:groupContext="shape" v:layerMember="0" transform="translate(0 -6.75)">
        <path d="M0 73.12V21.38h30.9l13.35 13.35v38.39H0z" class="st1"/>
      </g>
      <g id="shape354-4" v:mID="354" v:groupContext="shape" v:layerMember="0" transform="translate(2.25 -9)">
        <path d="M39.75 73.12V37.87l-12-12H0v47.25h39.75zm-37.5-2.25V28.12h24v12H37.5v30.75H2.25z" class="st2"/>
      </g>
      <g id="shape355-6" v:mID="355" v:groupContext="shape" v:layerMember="0" transform="translate(6.75)">
        <path d="M0 73.12V21.38h30.9l13.35 13.35v38.39H0z" class="st1"/>
      </g>
      <g id="shape356-8" v:mID="356" v:groupContext="shape" v:layerMember="0" transform="translate(9 -2.25)">
        <path d="M39.75 73.12V37.87l-12-12H0v47.25h39.75zm-37.5-2.25V28.12h24v12H37.5v30.75H2.25z" class="st2"/>
      </g>
      <g id="shape357-10" v:mID="357" v:groupContext="shape" v:layerMember="0" transform="translate(18.75 -24.75)">
        <path class="st2" d="M0 70.875h20.25v2.25H0z"/>
      </g>
      <g id="shape358-12" v:mID="358" v:groupContext="shape" v:layerMember="0" transform="translate(18.75 -18.75)">
        <path class="st2" d="M0 70.875h20.25v2.25H0z"/>
      </g>
      <g id="shape359-14" v:mID="359" v:groupContext="shape" v:layerMember="0" transform="translate(18.75 -12.75)">
        <path class="st2" d="M0 70.875h20.25v2.25H0z"/>
      </g>
    </g>
  </g>
</svg>
