<svg xmlns="http://www.w3.org/2000/svg" xmlns:v="http://schemas.microsoft.com/visio/2003/SVGExtensions/" width="90.825" height="93" viewBox="0 0 68.119 69.75" color-interpolation-filters="sRGB" fill="none" fill-rule="evenodd" font-size="12" overflow="visible" stroke-linecap="square" stroke-miterlimit="3">
  <v:documentProperties v:langID="4108" v:metric="true" v:viewMarkup="false"/>
  <style>
    .st1,.st2{fill:#fff;stroke:none;stroke-linecap:butt;stroke-width:.75}.st2{fill:#515150}
  </style>
  <g v:mID="0" v:index="1" v:groupContext="foregroundPage">
    <v:pageProperties v:drawingScale=".039" v:pageScale=".039" v:drawingUnits="24" v:shadowOffsetX="8.504" v:shadowOffsetY="-8.504"/>
    <v:layer v:name="symbols" v:index="0"/>
    <g id="group337-1" transform="translate(8.306 -4.688)" v:mID="337" v:groupContext="group" v:layerMember="0">
      <g id="group338-2" v:mID="338" v:groupContext="group" v:layerMember="0">
        <g id="group339-3" transform="translate(0 -5.25)" v:mID="339" v:groupContext="group" v:layerMember="0">
          <g id="shape340-4" v:mID="340" v:groupContext="shape" v:layerMember="0">
            <path d="M0 69.75V18h30.9l13.35 13.35v38.4H0z" class="st1"/>
          </g>
          <g id="shape341-6" v:mID="341" v:groupContext="shape" v:layerMember="0" transform="translate(2.25 -2.25)">
            <path d="M39.75 69.75V34.5l-12-12H0v47.25h39.75zM2.25 67.5V24.75h24v12H37.5V67.5H2.25z" class="st2"/>
          </g>
          <g id="shape342-8" v:mID="342" v:groupContext="shape" v:layerMember="0" transform="translate(12 -24.75)">
            <path class="st2" d="M0 67.5h20.25v2.25H0z"/>
          </g>
          <g id="shape343-10" v:mID="343" v:groupContext="shape" v:layerMember="0" transform="translate(12 -18.75)">
            <path class="st2" d="M0 67.5h20.25v2.25H0z"/>
          </g>
          <g id="shape344-12" v:mID="344" v:groupContext="shape" v:layerMember="0" transform="translate(12 -12.75)">
            <path class="st2" d="M0 67.5h20.25v2.25H0z"/>
          </g>
        </g>
        <g id="group345-14" transform="translate(24)" v:mID="345" v:groupContext="group" v:layerMember="0">
          <g id="shape346-15" v:mID="346" v:groupContext="shape" v:layerMember="0">
            <path d="M16.12 69.75C7.2 69.75 0 62.55 0 53.63 0 44.7 7.2 37.5 16.12 37.5c8.93 0 16.13 7.2 16.13 16.13 0 8.92-7.2 16.12-16.13 16.12z" class="st1"/>
          </g>
          <g id="shape347-17" v:mID="347" v:groupContext="shape" v:layerMember="0" transform="translate(2.25 -2.25)">
            <path d="M13.87 42C6.22 42 0 48.23 0 55.88s6.22 13.87 13.87 13.87c7.65 0 13.88-6.22 13.88-13.87 0-7.65-6.22-13.88-13.88-13.88z" class="st2"/>
          </g>
          <g id="group348-19" transform="translate(5.25 -6.375)" v:mID="348" v:groupContext="group" v:layerMember="0">
            <g id="shape349-20" v:mID="349" v:groupContext="shape" v:layerMember="0" transform="translate(3.375 -13.125)">
              <path d="M9 68.25a2.71 2.71 0 0 0 3.82 0 2.71 2.71 0 0 0 0-3.82 2.71 2.71 0 0 0-3.82 0l-.08.07c-.37-.07-.75-.07-1.2-.07-3.37 0-6.22 1.87-7.72 4.65.67.07 1.27.3 1.8.67 1.2-2.02 3.37-3.37 5.85-3.37h.45c.07.67.37 1.35.9 1.87z" class="st1"/>
            </g>
            <g id="shape350-22" v:mID="350" v:groupContext="shape" v:layerMember="0" transform="translate(0 -.975)">
              <path d="M10.2 67.73a6.876 6.876 0 0 1-5.55-4.58l.22-.22a2.722 2.722 0 0 0 0-3.83 2.71 2.71 0 0 0-3.82 0 2.722 2.722 0 0 0 0 3.83c.52.52 1.13.75 1.8.82a8.79 8.79 0 0 0 7.8 6c-.3-.67-.45-1.27-.45-2.02z" class="st1"/>
            </g>
            <g id="shape351-24" v:mID="351" v:groupContext="shape" v:layerMember="0" transform="translate(11.325)">
              <path d="M8.55 60c0-1.95-.68-3.82-1.8-5.25-.23.53-.53.98-.9 1.35l-.3.3A6.783 6.783 0 0 1 6.6 60c0 1.8-.75 3.45-1.88 4.73-1.05-.9-2.62-.83-3.67.15a2.71 2.71 0 0 0 0 3.82 2.71 2.71 0 0 0 3.82 0c.6-.6.9-1.5.75-2.25 1.8-1.57 2.93-3.9 2.93-6.45z" class="st1"/>
            </g>
          </g>
        </g>
      </g>
    </g>
  </g>
</svg>
