<svg xmlns="http://www.w3.org/2000/svg" xmlns:v="http://schemas.microsoft.com/visio/2003/SVGExtensions/" width="95.338" height="94.5" viewBox="0 0 71.503 70.875" color-interpolation-filters="sRGB" fill="none" fill-rule="evenodd" font-size="12" overflow="visible" stroke-linecap="square" stroke-miterlimit="3">
  <v:documentProperties v:langID="4108" v:metric="true" v:viewMarkup="false"/>
  <style>
    .st1,.st2{fill:#fff;stroke:none;stroke-linecap:butt;stroke-width:.75}.st2{fill:#515050}
  </style>
  <g v:mID="0" v:index="1" v:groupContext="foregroundPage">
    <v:pageProperties v:drawingScale=".039" v:pageScale=".039" v:drawingUnits="24" v:shadowOffsetX="8.504" v:shadowOffsetY="-8.504"/>
    <v:layer v:name="symbols" v:index="0"/>
    <g id="group360-1" transform="translate(8.503 -3.563)" v:mID="360" v:groupContext="group" v:layerMember="0">
      <g id="group361-2" v:mID="361" v:groupContext="group" v:layerMember="0">
        <g id="group362-3" transform="translate(0 -3)" v:mID="362" v:groupContext="group" v:layerMember="0">
          <g id="shape363-4" v:mID="363" v:groupContext="shape" v:layerMember="0" transform="translate(0 -6.75)">
            <path d="M0 70.88V19.13h30.9l13.35 13.35v38.4H0z" class="st1"/>
          </g>
          <g id="shape364-6" v:mID="364" v:groupContext="shape" v:layerMember="0" transform="translate(2.25 -9)">
            <path d="M39.75 70.88V35.63l-12-12H0v47.25h39.75zm-37.5-2.25V25.88h24v12H37.5v30.75H2.25z" class="st2"/>
          </g>
          <g id="shape365-8" v:mID="365" v:groupContext="shape" v:layerMember="0" transform="translate(6.75)">
            <path d="M0 70.88V19.13h30.9l13.35 13.35v38.4H0z" class="st1"/>
          </g>
          <g id="shape366-10" v:mID="366" v:groupContext="shape" v:layerMember="0" transform="translate(9 -2.25)">
            <path d="M39.75 70.88V35.63l-12-12H0v47.25h39.75zm-37.5-2.25V25.88h24v12H37.5v30.75H2.25z" class="st2"/>
          </g>
          <g id="shape367-12" v:mID="367" v:groupContext="shape" v:layerMember="0" transform="translate(18.75 -24.75)">
            <path class="st2" d="M0 68.625h20.25v2.25H0z"/>
          </g>
          <g id="shape368-14" v:mID="368" v:groupContext="shape" v:layerMember="0" transform="translate(18.75 -18.75)">
            <path class="st2" d="M0 68.625h20.25v2.25H0z"/>
          </g>
          <g id="shape369-16" v:mID="369" v:groupContext="shape" v:layerMember="0" transform="translate(18.75 -12.75)">
            <path class="st2" d="M0 68.625h20.25v2.25H0z"/>
          </g>
        </g>
        <g id="group370-18" transform="translate(30)" v:mID="370" v:groupContext="group" v:layerMember="0">
          <g id="shape371-19" v:mID="371" v:groupContext="shape" v:layerMember="0">
            <path d="M16.13 70.88C7.2 70.88 0 63.68 0 54.75c0-8.92 7.2-16.12 16.13-16.12 8.92 0 16.12 7.2 16.12 16.12 0 8.93-7.2 16.13-16.12 16.13z" class="st1"/>
          </g>
          <g id="shape372-21" v:mID="372" v:groupContext="shape" v:layerMember="0" transform="translate(2.25 -2.25)">
            <path d="M13.88 43.13C6.22 43.13 0 49.35 0 57c0 7.65 6.22 13.88 13.88 13.88 7.65 0 13.87-6.23 13.87-13.88s-6.22-13.87-13.87-13.87z" fill="#515150" stroke-linecap="butt" stroke-width=".75"/>
          </g>
          <g id="group373-23" transform="translate(5.25 -6.375)" v:mID="373" v:groupContext="group" v:layerMember="0">
            <g id="shape374-24" v:mID="374" v:groupContext="shape" v:layerMember="0" transform="translate(3.375 -13.125)">
              <path d="M9 69.38a2.704 2.704 0 1 0 0-3.83l-.08.08c-.37-.08-.74-.08-1.19-.08-3.38 0-6.23 1.88-7.73 4.65.67.08 1.28.3 1.8.68C3 68.85 5.17 67.5 7.65 67.5h.45c.08.68.38 1.35.9 1.88z" class="st1"/>
            </g>
            <g id="shape375-26" v:mID="375" v:groupContext="shape" v:layerMember="0" transform="translate(0 -.975)">
              <path d="M10.2 68.85a6.849 6.849 0 0 1-5.55-4.57c.08-.08.15-.15.22-.23a2.71 2.71 0 0 0 0-3.82 2.71 2.71 0 0 0-3.82 0 2.71 2.71 0 0 0 0 3.82c.52.53 1.13.75 1.8.83a8.83 8.83 0 0 0 7.8 6c-.3-.68-.45-1.28-.45-2.03z" class="st1"/>
            </g>
            <g id="shape376-28" v:mID="376" v:groupContext="shape" v:layerMember="0" transform="translate(11.325)">
              <path d="M8.55 61.13c0-1.95-.67-3.83-1.8-5.25-.23.52-.52.97-.9 1.35l-.3.3a6.67 6.67 0 0 1 1.05 3.6c0 1.8-.75 3.45-1.87 4.72-1.05-.9-2.63-.82-3.68.15a2.722 2.722 0 0 0 0 3.83 2.71 2.71 0 0 0 3.82 0c.6-.6.91-1.5.75-2.25a8.547 8.547 0 0 0 2.93-6.45z" class="st1"/>
            </g>
          </g>
        </g>
      </g>
    </g>
  </g>
</svg>
