<svg xmlns="http://www.w3.org/2000/svg" xmlns:v="http://schemas.microsoft.com/visio/2003/SVGExtensions/" width="99.9" height="81" viewBox="0 0 74.925 60.75" color-interpolation-filters="sRGB" fill="none" fill-rule="evenodd" font-size="12" overflow="visible" stroke-linecap="square" stroke-miterlimit="3">
  <v:documentProperties v:langID="4108" v:metric="true" v:viewMarkup="false"/>
  <style>
    .st1,.st2{fill:#fff;stroke:none;stroke-linecap:butt;stroke-width:.75}.st2{fill:#505050}
  </style>
  <g v:mID="0" v:index="1" v:groupContext="foregroundPage">
    <v:pageProperties v:drawingScale=".039" v:pageScale=".039" v:drawingUnits="24" v:shadowOffsetX="8.504" v:shadowOffsetY="-8.504"/>
    <v:layer v:name="symbols" v:index="0"/>
    <g id="group414-1" transform="translate(8.24 -1.087)" v:mID="414" v:groupContext="group" v:layerMember="0">
      <g id="group415-2" transform="translate(0 -9.45)" v:mID="415" v:groupContext="group" v:layerMember="0">
        <g id="shape416-3" v:mID="416" v:groupContext="shape" v:layerMember="0">
          <path class="st1" d="M0 19.5h51.75v41.25H0z"/>
        </g>
        <g id="shape417-5" v:mID="417" v:groupContext="shape" v:layerMember="0" transform="translate(38.25 -27)">
          <path class="st2" d="M0 54h6v6.75H0z"/>
        </g>
        <g id="shape418-7" v:mID="418" v:groupContext="shape" v:layerMember="0" transform="translate(11.25 -18)">
          <path class="st2" d="M0 58.5h21v2.25H0z"/>
        </g>
        <g id="shape419-9" v:mID="419" v:groupContext="shape" v:layerMember="0" transform="translate(11.25 -12)">
          <path class="st2" d="M0 58.5h25.5v2.25H0z"/>
        </g>
        <g id="shape420-11" v:mID="420" v:groupContext="shape" v:layerMember="0" transform="translate(2.25 -2.25)">
          <path d="M45 26.25V58.5H2.25V26.25H45zM47.25 24H0v36.75h47.25V24z" class="st2"/>
        </g>
      </g>
      <g id="group421-13" transform="translate(33.75)" v:mID="421" v:groupContext="group" v:layerMember="0">
        <g id="group422-14" v:mID="422" v:groupContext="group" v:layerMember="0">
          <g id="shape423-15" v:mID="423" v:groupContext="shape" v:layerMember="0">
            <path d="M13.42 60.75c-6.74 0-9.45-2.32-9.9-2.85l-.75-.75L0 33.75v-.15-.6c.82-4.95 10.27-4.95 13.42-4.95 3.08 0 12.53 0 13.35 4.95V33.9L24 57.23l-.75.75c-.38.45-3.08 2.77-9.83 2.77z" class="st1"/>
          </g>
          <g id="shape424-17" v:mID="424" v:groupContext="shape" v:layerMember="0" transform="translate(2.175 -2.1)">
            <path d="M11.25 60.75c-6.15 0-8.33-2.1-8.4-2.17l-.15-.15L0 35.78v-.23c.15-.97 1.57-3.22 11.25-3.22 9.67 0 11.1 2.25 11.25 3.15V35.78l-2.63 22.57-.22.23c-.08.07-2.25 2.17-8.4 2.17zM3.9 56.18c.22.22 2.17 1.72 7.35 1.72 5.1 0 7.05-1.5 7.35-1.72l2.17-18.6c-1.42.67-4.2 1.5-9.52 1.5-5.25 0-8.1-.83-9.53-1.5l2.18 18.6zM1.65 35.55c.52.53 2.55 1.95 9.6 1.95s9.07-1.42 9.6-1.95c-.45-.52-2.4-1.72-9.6-1.72-7.2 0-9.15 1.27-9.6 1.72z" class="st2"/>
          </g>
        </g>
        <g id="shape425-19" v:mID="425" v:groupContext="shape" v:layerMember="0" transform="translate(6.825 -8.4)">
          <path d="M12.82 54.6l-1.05-1.8-2.62 1.5 1.42 2.4c.08.15 0 .3-.22.3H8.47v-1.05l-1.95 2.4 1.95 2.4v-1.12h1.5c.83 0 1.2-.6 1.2-.6l1.73-2.93c.37-.9-.08-1.5-.08-1.5zm-9.97 2.48c-.15 0-.23-.15-.15-.3l.9-1.65.97.52-1.35-2.92L0 53.1l.97.6-.6 1.13C0 55.5.3 56.18.3 56.18l1.65 2.85c.6.82 1.35.75 1.35.75H6v-2.63l-3.15-.07zm3.97-6.83l.98 1.65-.9.53 3.22.3 1.28-2.93-.98.6-.67-1.05c-.45-.67-1.13-.75-1.13-.75H4.8c-.98.08-1.35.83-1.35.83l-1.13 1.8 2.63 1.5 1.5-2.4c.07-.23.22-.23.37-.08z" class="st2"/>
        </g>
      </g>
    </g>
  </g>
</svg>
