<svg xmlns="http://www.w3.org/2000/svg" xmlns:v="http://schemas.microsoft.com/visio/2003/SVGExtensions/" width="96" height="78" viewBox="0 0 72 58.5" color-interpolation-filters="sRGB" fill="none" fill-rule="evenodd" font-size="12" overflow="visible" stroke-linecap="square" stroke-miterlimit="3">
  <v:documentProperties v:langID="4108" v:metric="true" v:viewMarkup="false"/>
  <style>
    .st1,.st2{fill:#fff;stroke:none;stroke-linecap:butt;stroke-width:.75}.st2{fill:#505050}
  </style>
  <g v:mID="0" v:index="1" v:groupContext="foregroundPage">
    <v:pageProperties v:drawingScale=".039" v:pageScale=".039" v:drawingUnits="24" v:shadowOffsetX="8.504" v:shadowOffsetY="-8.504"/>
    <v:layer v:name="symbols" v:index="0"/>
    <g id="group426-1" transform="translate(7.978 -1.95)" v:mID="426" v:groupContext="group" v:layerMember="0">
      <g id="group427-2" transform="translate(0 -7.725)" v:mID="427" v:groupContext="group" v:layerMember="0">
        <g id="shape428-3" v:mID="428" v:groupContext="shape" v:layerMember="0">
          <path class="st1" d="M0 17.25h51.75V58.5H0z"/>
        </g>
        <g id="shape429-5" v:mID="429" v:groupContext="shape" v:layerMember="0" transform="translate(38.25 -27)">
          <path class="st2" d="M0 51.75h6v6.75H0z"/>
        </g>
        <g id="shape430-7" v:mID="430" v:groupContext="shape" v:layerMember="0" transform="translate(11.25 -18)">
          <path class="st2" d="M0 56.25h21v2.25H0z"/>
        </g>
        <g id="shape431-9" v:mID="431" v:groupContext="shape" v:layerMember="0" transform="translate(11.25 -12)">
          <path class="st2" d="M0 56.25h25.5v2.25H0z"/>
        </g>
        <g id="shape432-11" v:mID="432" v:groupContext="shape" v:layerMember="0" transform="translate(2.25 -2.25)">
          <path d="M45 24v32.25H2.25V24H45zm2.25-2.25H0V58.5h47.25V21.75z" class="st2"/>
        </g>
      </g>
      <g id="group433-13" transform="translate(32.55)" v:mID="433" v:groupContext="group" v:layerMember="0">
        <g id="shape434-14" v:mID="434" v:groupContext="shape" v:layerMember="0">
          <path d="M20.78 58.5c-.83 0-1.58-.3-2.18-.9l-5.25-5.25L8.1 57.6a3 3 0 0 1-2.17.9c-.83 0-1.58-.3-2.18-.9L1.2 55.05C0 53.85 0 51.9 1.2 50.7l5.25-5.25L1.2 40.2C0 39 0 37.05 1.2 35.85l2.55-2.55c.6-.6 1.35-.9 2.18-.9a3 3 0 0 1 2.17.9l5.25 5.25 5.25-5.25c.6-.6 1.35-.9 2.18-.9a3 3 0 0 1 2.17.9l2.55 2.55c1.2 1.2 1.2 3.15 0 4.35l-5.25 5.25 5.25 5.25c1.2 1.2 1.2 3.15 0 4.35l-2.55 2.55a3 3 0 0 1-2.17.9z" class="st1"/>
        </g>
        <g id="shape435-16" v:mID="435" v:groupContext="shape" v:layerMember="0" transform="translate(2.4 -2.175)">
          <path d="M10.88 51.38L4.05 58.2c-.3.3-.82.3-1.2 0L.3 55.65c-.3-.3-.3-.82 0-1.2l6.83-6.82-6.83-6.9c-.3-.3-.3-.83 0-1.2l2.55-2.55c.3-.3.83-.3 1.2 0l6.83 6.82 6.82-6.82c.3-.3.83-.3 1.2 0l2.55 2.55c.3.3.3.82 0 1.2l-6.82 6.82 6.82 6.83c.3.3.3.82 0 1.2l-2.47 2.62c-.3.3-.83.3-1.2 0l-6.9-6.82z" class="st2"/>
        </g>
      </g>
    </g>
  </g>
</svg>
