<svg xmlns="http://www.w3.org/2000/svg" xmlns:v="http://schemas.microsoft.com/visio/2003/SVGExtensions/" width="90" height="84" viewBox="0 0 67.5 63" color-interpolation-filters="sRGB" fill="none" fill-rule="evenodd" font-size="12" overflow="visible" stroke-linecap="square" stroke-miterlimit="3">
  <v:documentProperties v:langID="4108" v:metric="true" v:viewMarkup="false"/>
  <style>
    .st2,.st3,.st4{fill:#9c9c9d;stroke:none;stroke-linecap:butt;stroke-width:.75}.st3,.st4{fill:none}.st4{fill:#cccbcb}
  </style>
  <g v:mID="0" v:index="1" v:groupContext="foregroundPage">
    <v:pageProperties v:drawingScale=".039" v:pageScale=".039" v:drawingUnits="24" v:shadowOffsetX="8.504" v:shadowOffsetY="-8.504"/>
    <v:layer v:name="symbols" v:index="0"/>
    <g id="group501-1" transform="translate(8.353 -8.438)" v:mID="501" v:groupContext="group" v:layerMember="0">
      <g id="group502-2" v:mID="502" v:groupContext="group" v:layerMember="0">
        <g id="shape503-3" v:mID="503" v:groupContext="shape" v:layerMember="0">
          <path fill="#fff" stroke-linecap="butt" stroke-width=".75" d="M0 15.75h51.75V63H0z"/>
        </g>
        <g id="group504-5" transform="translate(2.25 -2.25)" v:mID="504" v:groupContext="group" v:layerMember="0">
          <g id="shape505-6" v:mID="505" v:groupContext="shape" v:layerMember="0" transform="translate(0 -33.75)">
            <path class="st2" d="M0 54h11.25v9H0z"/>
          </g>
          <g id="shape506-8" v:mID="506" v:groupContext="shape" v:layerMember="0" transform="translate(36 -33.75)">
            <path class="st2" d="M0 54h11.25v9H0z"/>
          </g>
          <g id="shape507-10" v:mID="507" v:groupContext="shape" v:layerMember="0" transform="translate(13.5 -33.75)">
            <path class="st2" d="M0 54h20.25v9H0z"/>
          </g>
          <g id="shape508-12" v:mID="508" v:groupContext="shape" v:layerMember="0" transform="translate(0 -11.25)">
            <path class="st2" d="M0 54h11.25v9H0z"/>
          </g>
          <g id="shape509-14" v:mID="509" v:groupContext="shape" v:layerMember="0" transform="translate(36 -11.25)">
            <path class="st2" d="M0 54h11.25v9H0z"/>
          </g>
          <g id="shape510-16" v:mID="510" v:groupContext="shape" v:layerMember="0" transform="translate(13.5 -11.25)">
            <path class="st2" d="M0 54h20.25v9H0z"/>
          </g>
          <g id="shape511-18" v:mID="511" v:groupContext="shape" v:layerMember="0" transform="translate(0 -22.5)">
            <path class="st2" d="M0 54h22.5v9H0z"/>
          </g>
          <g id="shape512-20" v:mID="512" v:groupContext="shape" v:layerMember="0" transform="translate(24.75 -22.5)">
            <path class="st2" d="M0 54h22.5v9H0z"/>
          </g>
          <g id="shape513-22" v:mID="513" v:groupContext="shape" v:layerMember="0">
            <path class="st2" d="M0 54h22.5v9H0z"/>
          </g>
          <g id="shape514-24" v:mID="514" v:groupContext="shape" v:layerMember="0" transform="translate(24.75)">
            <path class="st2" d="M0 54h22.5v9H0z"/>
          </g>
        </g>
        <g id="group515-26" transform="translate(2.25 -2.25)" v:mID="515" v:groupContext="group" v:layerMember="0">
          <g id="shape516-27" v:mID="516" v:groupContext="shape" v:layerMember="0" transform="translate(20.325 -33.75)">
            <path d="M2.4 63l8.93-9h-2.4L0 63h2.4z" class="st3"/>
          </g>
          <g id="shape517-29" v:mID="517" v:groupContext="shape" v:layerMember="0" transform="translate(29.55 -11.25)">
            <path d="M2.4 63l1.8-1.88V58.8L0 63h2.4z" class="st3"/>
          </g>
          <g id="shape518-31" v:mID="518" v:groupContext="shape" v:layerMember="0" transform="translate(24.825 -33.75)">
            <path d="M2.4 63l6.53-6.6V54L0 63h2.4z" class="st3"/>
          </g>
          <g id="shape519-33" v:mID="519" v:groupContext="shape" v:layerMember="0" transform="translate(13.5 -38.025)">
            <path d="M0 63l4.73-4.73H2.32L0 60.67V63z" class="st3"/>
          </g>
          <g id="shape520-35" v:mID="520" v:groupContext="shape" v:layerMember="0" transform="translate(13.5 -42.525)">
            <path d="M0 62.77V63l.22-.23H0z" class="st3"/>
          </g>
          <g id="shape521-37" v:mID="521" v:groupContext="shape" v:layerMember="0" transform="translate(13.5 -33.75)">
            <path d="M0 63h.3l8.93-9h-2.4L0 60.9V63z" class="st3"/>
          </g>
          <g id="shape522-39" v:mID="522" v:groupContext="shape" v:layerMember="0" transform="translate(0 -28.875)">
            <path d="M.23 60.37L0 60.6V63l2.63-2.63H.23z" class="st3"/>
          </g>
          <g id="shape523-41" v:mID="523" v:groupContext="shape" v:layerMember="0" transform="translate(15.9 -33.75)">
            <path d="M2.33 63l8.92-9H8.93L0 63h2.33z" class="st3"/>
          </g>
          <g id="shape524-43" v:mID="524" v:groupContext="shape" v:layerMember="0" transform="translate(0 -24.375)">
            <path d="M4.73 55.87L0 60.6V63l7.05-7.13H4.73z" class="st3"/>
          </g>
          <g id="shape525-45" v:mID="525" v:groupContext="shape" v:layerMember="0" transform="translate(24.9 -11.25)">
            <path d="M2.55 63l6.3-6.38v-2.55L0 63h2.55z" class="st3"/>
          </g>
          <g id="shape526-47" v:mID="526" v:groupContext="shape" v:layerMember="0" transform="translate(18.45)">
            <path d="M4.05 58.95L0 63h2.32l1.73-1.73v-2.32z" class="st3"/>
          </g>
          <g id="shape527-49" v:mID="527" v:groupContext="shape" v:layerMember="0" transform="translate(13.725)">
            <path d="M8.78 54.15L0 63h2.63l6.15-6.23v-2.62z" class="st3"/>
          </g>
          <g id="shape528-51" v:mID="528" v:groupContext="shape" v:layerMember="0" transform="translate(0 -42.45)">
            <path d="M0 62.7v.3l.3-.3H0z" class="st3"/>
          </g>
          <g id="shape529-53" v:mID="529" v:groupContext="shape" v:layerMember="0" transform="translate(13.65 -22.5)">
            <path d="M2.4 63l6.45-6.53v-2.4L0 63h2.4z" class="st3"/>
          </g>
          <g id="shape530-55" v:mID="530" v:groupContext="shape" v:layerMember="0" transform="translate(2.475 -33.75)">
            <path d="M2.33 63l6.45-6.53v-2.4L0 63h2.33z" class="st3"/>
          </g>
          <g id="shape531-57" v:mID="531" v:groupContext="shape" v:layerMember="0" transform="translate(0 -37.875)">
            <path d="M2.4 58.12L0 60.6V63l4.8-4.88H2.4z" class="st3"/>
          </g>
          <g id="shape532-59" v:mID="532" v:groupContext="shape" v:layerMember="0" transform="translate(29.325 -33.75)">
            <path d="M2.4 63l2.03-2.1v-2.33L0 63h2.4z" class="st3"/>
          </g>
          <g id="shape533-61" v:mID="533" v:groupContext="shape" v:layerMember="0" transform="translate(18.15 -22.5)">
            <path d="M2.4 63l1.95-2.03v-2.32L0 63h2.4z" class="st3"/>
          </g>
          <g id="shape534-63" v:mID="534" v:groupContext="shape" v:layerMember="0" transform="translate(0 -33.75)">
            <path d="M6.9 54L0 60.97V63h.38l8.85-9H6.9z" class="st3"/>
          </g>
          <g id="shape535-65" v:mID="535" v:groupContext="shape" v:layerMember="0" transform="translate(36 -15.375)">
            <path d="M2.47 58.12L0 60.6V63l4.8-4.88H2.47z" class="st3"/>
          </g>
          <g id="shape536-67" v:mID="536" v:groupContext="shape" v:layerMember="0" transform="translate(40.725 -22.5)">
            <path d="M2.33 63l4.2-4.28V56.4L0 63h2.33z" class="st3"/>
          </g>
          <g id="shape537-69" v:mID="537" v:groupContext="shape" v:layerMember="0" transform="translate(15.9 -11.25)">
            <path d="M2.4 63l8.93-9H9l-9 9h2.4z" class="st3"/>
          </g>
          <g id="shape538-71" v:mID="538" v:groupContext="shape" v:layerMember="0" transform="translate(24.75 -31.275)">
            <path d="M0 62.77V63l.22-.23H0z" class="st3"/>
          </g>
          <g id="shape539-73" v:mID="539" v:groupContext="shape" v:layerMember="0" transform="translate(36 -42.6)">
            <path d="M0 62.85V63l.15-.15H0z" class="st3"/>
          </g>
          <g id="shape540-75" v:mID="540" v:groupContext="shape" v:layerMember="0" transform="translate(42.975 -11.25)">
            <path d="M2.4 63l1.88-1.95v-2.4L0 63h2.4z" class="st3"/>
          </g>
          <g id="shape541-77" v:mID="541" v:groupContext="shape" v:layerMember="0" transform="translate(45.15 -22.5)">
            <path d="M2.1 63v-2.1L0 63h2.1z" class="st3"/>
          </g>
          <g id="shape542-79" v:mID="542" v:groupContext="shape" v:layerMember="0" transform="translate(36 -11.25)">
            <path d="M6.9 54L0 60.97V63h.38l8.92-9H6.9z" class="st3"/>
          </g>
          <g id="shape543-81" v:mID="543" v:groupContext="shape" v:layerMember="0" transform="translate(38.55 -11.25)">
            <path d="M2.32 63l6.38-6.45v-2.4L0 63h2.32z" class="st3"/>
          </g>
          <g id="shape544-83" v:mID="544" v:groupContext="shape" v:layerMember="0" transform="translate(13.5 -19.95)">
            <path d="M0 62.7v.3l.3-.3H0z" class="st3"/>
          </g>
          <g id="shape545-85" v:mID="545" v:groupContext="shape" v:layerMember="0" transform="translate(36 -19.875)">
            <path d="M0 62.62V63l.38-.38H0z" class="st3"/>
          </g>
          <g id="shape546-87" v:mID="546" v:groupContext="shape" v:layerMember="0" transform="translate(36 -38.1)">
            <path d="M0 63l4.65-4.65h-2.4L0 60.67V63z" class="st3"/>
          </g>
          <g id="shape547-89" v:mID="547" v:groupContext="shape" v:layerMember="0" transform="translate(27.15 -22.5)">
            <path d="M8.93 54L0 63h2.32l9.01-9h-2.4z" class="st3"/>
          </g>
          <g id="shape548-91" v:mID="548" v:groupContext="shape" v:layerMember="0" transform="translate(31.575 -22.5)">
            <path d="M9 54l-9 9h2.4l8.93-9H9z" class="st3"/>
          </g>
          <g id="shape549-93" v:mID="549" v:groupContext="shape" v:layerMember="0" transform="translate(38.325 -33.75)">
            <path d="M2.32 63l6.61-6.6V54L0 63h2.32z" class="st3"/>
          </g>
          <g id="shape550-95" v:mID="550" v:groupContext="shape" v:layerMember="0" transform="translate(20.4 -11.25)">
            <path d="M2.4 63l8.93-9H9l-9 9h2.4z" class="st3"/>
          </g>
          <g id="shape551-97" v:mID="551" v:groupContext="shape" v:layerMember="0" transform="translate(13.5 -11.25)">
            <path d="M6.9 54L0 60.9V63h.3l9-9H6.9z" class="st3"/>
          </g>
          <g id="shape552-99" v:mID="552" v:groupContext="shape" v:layerMember="0" transform="translate(36.075 -22.5)">
            <path d="M11.18 54H8.93L0 63h2.55l8.63-8.78V54z" class="st3"/>
          </g>
          <g id="shape553-101" v:mID="553" v:groupContext="shape" v:layerMember="0" transform="translate(13.5 -15.45)">
            <path d="M2.4 58.2L0 60.6V63l4.8-4.8H2.4z" class="st3"/>
          </g>
          <g id="shape554-103" v:mID="554" v:groupContext="shape" v:layerMember="0" transform="translate(42.825 -33.75)">
            <path d="M2.33 63l2.1-2.1v-2.4L0 63h2.33z" class="st3"/>
          </g>
          <g id="shape555-105" v:mID="555" v:groupContext="shape" v:layerMember="0" transform="translate(24.75 -26.775)">
            <path d="M2.32 58.27L0 60.67V63l4.73-4.73H2.32z" class="st3"/>
          </g>
          <g id="shape556-107" v:mID="556" v:groupContext="shape" v:layerMember="0" transform="translate(9.225)">
            <path d="M8.93 54L0 63h2.32l9.01-9h-2.4z" class="st3"/>
          </g>
          <g id="shape557-109" v:mID="557" v:groupContext="shape" v:layerMember="0" transform="translate(24.75 -22.5)">
            <path d="M6.83 54L0 60.9V63h.23l9-9h-2.4z" class="st3"/>
          </g>
          <g id="shape558-111" v:mID="558" v:groupContext="shape" v:layerMember="0" transform="translate(36 -33.75)">
            <path d="M0 63h.23l8.92-9h-2.4L0 60.82V63z" class="st3"/>
          </g>
          <g id="shape559-113" v:mID="559" v:groupContext="shape" v:layerMember="0" transform="translate(6.9 -33.75)">
            <path d="M2.4 63l1.95-2.03v-2.32L0 63h2.4z" class="st3"/>
          </g>
          <g id="shape560-115" v:mID="560" v:groupContext="shape" v:layerMember="0" transform="translate(0 -19.875)">
            <path d="M0 62.62V63l.37-.38H0z" class="st3"/>
          </g>
          <g id="shape561-117" v:mID="561" v:groupContext="shape" v:layerMember="0" transform="translate(40.875)">
            <path d="M2.4 63l3.97-4.13v-2.4L0 63h2.4z" class="st3"/>
          </g>
          <g id="shape562-119" v:mID="562" v:groupContext="shape" v:layerMember="0" transform="translate(45.375)">
            <path d="M1.88 63v-1.95L0 63h1.88z" class="st3"/>
          </g>
          <g id="shape563-121" v:mID="563" v:groupContext="shape" v:layerMember="0" transform="translate(.225 -22.5)">
            <path d="M2.4 63l8.93-9h-2.4L0 63h2.4z" class="st3"/>
          </g>
          <g id="shape564-123" v:mID="564" v:groupContext="shape" v:layerMember="0" transform="translate(24.75 -8.475)">
            <path d="M0 62.47V63l.52-.53H0z" class="st3"/>
          </g>
          <g id="shape565-125" v:mID="565" v:groupContext="shape" v:layerMember="0" transform="translate(24.75)">
            <path d="M7.05 54L0 61.12V63h.6l8.85-9h-2.4z" class="st3"/>
          </g>
          <g id="shape566-127" v:mID="566" v:groupContext="shape" v:layerMember="0" transform="translate(9.15 -22.5)">
            <path d="M2.4 63l8.93-9h-2.4L0 63h2.4z" class="st3"/>
          </g>
          <g id="shape567-129" v:mID="567" v:groupContext="shape" v:layerMember="0" transform="translate(0 -15.375)">
            <path d="M2.47 58.12L0 60.6V63l4.8-4.88H2.47z" class="st3"/>
          </g>
          <g id="shape568-131" v:mID="568" v:groupContext="shape" v:layerMember="0" transform="translate(24.75 -3.975)">
            <path d="M2.62 57.97L0 60.6V63l4.95-5.03H2.62z" class="st3"/>
          </g>
          <g id="shape569-133" v:mID="569" v:groupContext="shape" v:layerMember="0" transform="translate(31.95)">
            <path d="M8.85 54L0 63h2.4l8.85-9h-2.4z" class="st3"/>
          </g>
          <g id="shape570-135" v:mID="570" v:groupContext="shape" v:layerMember="0" transform="translate(36.45)">
            <path d="M10.8 54H8.85L0 63h2.33l8.47-8.7V54z" class="st3"/>
          </g>
          <g id="shape571-137" v:mID="571" v:groupContext="shape" v:layerMember="0" transform="translate(0 -11.25)">
            <path d="M0 63h.38l8.92-9H6.98L0 60.97V63z" class="st3"/>
          </g>
          <g id="shape572-139" v:mID="572" v:groupContext="shape" v:layerMember="0" transform="translate(4.725 -22.5)">
            <path d="M2.33 63l8.92-9H8.93L0 63h2.33z" class="st3"/>
          </g>
          <g id="shape573-141" v:mID="573" v:groupContext="shape" v:layerMember="0" transform="translate(0 -1.875)">
            <path d="M4.72 55.87L0 60.67V63l7.12-7.13h-2.4z" class="st3"/>
          </g>
          <g id="shape574-143" v:mID="574" v:groupContext="shape" v:layerMember="0" transform="translate(2.475 -11.25)">
            <path d="M2.4 63l6.38-6.45v-2.4L0 63h2.4z" class="st3"/>
          </g>
          <g id="shape575-145" v:mID="575" v:groupContext="shape" v:layerMember="0" transform="translate(.3)">
            <path d="M8.93 54L0 63h2.33l8.92-9H8.93z" class="st3"/>
          </g>
          <g id="shape576-147" v:mID="576" v:groupContext="shape" v:layerMember="0" transform="translate(0 -6.375)">
            <path d="M.23 60.37l-.23.3V63l2.63-2.63H.23z" class="st3"/>
          </g>
          <g id="shape577-149" v:mID="577" v:groupContext="shape" v:layerMember="0" transform="translate(6.975 -11.25)">
            <path d="M2.33 63l1.94-1.95v-2.33L0 63h2.33z" class="st3"/>
          </g>
          <g id="shape578-151" v:mID="578" v:groupContext="shape" v:layerMember="0" transform="translate(27.45)">
            <path d="M8.85 54L0 63h2.4l8.85-9h-2.4z" class="st3"/>
          </g>
          <g id="shape579-153" v:mID="579" v:groupContext="shape" v:layerMember="0" transform="translate(4.725)">
            <path d="M9 54l-9 9h2.4l8.93-9H9z" class="st3"/>
          </g>
          <g id="shape580-155" v:mID="580" v:groupContext="shape" v:layerMember="0" transform="translate(0 -40.275)">
            <path d="M.3 60.52l-.3.3V63l2.4-2.48H.3z" class="st4"/>
          </g>
          <g id="shape581-157" v:mID="581" v:groupContext="shape" v:layerMember="0" transform="translate(0 -35.775)">
            <path d="M4.8 56.02L0 60.9V63l6.9-6.98H4.8z" class="st4"/>
          </g>
          <g id="shape582-159" v:mID="582" v:groupContext="shape" v:layerMember="0" transform="translate(.375 -33.75)">
            <path d="M10.87 54.07V54H8.85L0 63h2.1l8.77-8.93z" class="st4"/>
          </g>
          <g id="shape583-161" v:mID="583" v:groupContext="shape" v:layerMember="0" transform="translate(0 -31.275)">
            <path d="M0 62.77V63l.23-.23H0z" class="st4"/>
          </g>
          <g id="shape584-163" v:mID="584" v:groupContext="shape" v:layerMember="0" transform="translate(13.5 -40.35)">
            <path d="M0 60.82V63l2.32-2.4H.22l-.22.22z" class="st4"/>
          </g>
          <g id="shape585-165" v:mID="585" v:groupContext="shape" v:layerMember="0" transform="translate(0 -26.775)">
            <path d="M2.63 58.27L0 60.9V63l4.73-4.73h-2.1z" class="st4"/>
          </g>
          <g id="shape586-167" v:mID="586" v:groupContext="shape" v:layerMember="0" transform="translate(4.8 -33.75)">
            <path d="M2.1 63l4.35-4.35v-2.18L0 63h2.1z" class="st4"/>
          </g>
          <g id="shape587-169" v:mID="587" v:groupContext="shape" v:layerMember="0" transform="translate(0 -22.5)">
            <path d="M.22 63l8.93-9h-2.1L0 61.12V63h.22z" class="st4"/>
          </g>
          <g id="shape588-171" v:mID="588" v:groupContext="shape" v:layerMember="0" transform="translate(13.5 -35.85)">
            <path d="M0 63l6.82-6.9h-2.1L0 60.82V63z" class="st4"/>
          </g>
          <g id="shape589-173" v:mID="589" v:groupContext="shape" v:layerMember="0" transform="translate(9.3 -33.75)">
            <path d="M1.95 63v-2.03L0 63h1.95z" class="st4"/>
          </g>
          <g id="shape590-175" v:mID="590" v:groupContext="shape" v:layerMember="0" transform="translate(0 -17.775)">
            <path d="M.37 60.52L0 60.9V63l2.47-2.48H.37z" class="st4"/>
          </g>
          <g id="shape591-177" v:mID="591" v:groupContext="shape" v:layerMember="0" transform="translate(2.625 -22.5)">
            <path d="M2.1 63l8.92-9h-2.1L0 63h2.1z" class="st4"/>
          </g>
          <g id="shape592-179" v:mID="592" v:groupContext="shape" v:layerMember="0" transform="translate(13.8 -33.75)">
            <path d="M2.1 63l8.92-9h-2.1L0 63h2.1z" class="st4"/>
          </g>
          <g id="shape593-181" v:mID="593" v:groupContext="shape" v:layerMember="0" transform="translate(18.225 -33.75)">
            <path d="M2.1 63l8.92-9h-2.1L0 63h2.1z" class="st4"/>
          </g>
          <g id="shape594-183" v:mID="594" v:groupContext="shape" v:layerMember="0" transform="translate(0 -13.275)">
            <path d="M6.98 56.02H4.8L0 60.9V63l6.98-6.98z" class="st4"/>
          </g>
          <g id="shape595-185" v:mID="595" v:groupContext="shape" v:layerMember="0" transform="translate(7.05 -22.5)">
            <path d="M2.1 63l8.92-9h-2.1L0 63h2.1z" class="st4"/>
          </g>
          <g id="shape596-187" v:mID="596" v:groupContext="shape" v:layerMember="0" transform="translate(11.55 -22.5)">
            <path d="M2.1 63l8.85-8.93V54H8.92L0 63h2.1z" class="st4"/>
          </g>
          <g id="shape597-189" v:mID="597" v:groupContext="shape" v:layerMember="0" transform="translate(22.725 -33.75)">
            <path d="M2.1 63l8.92-9h-2.1L0 63h2.1z" class="st4"/>
          </g>
          <g id="shape598-191" v:mID="598" v:groupContext="shape" v:layerMember="0" transform="translate(.375 -11.25)">
            <path d="M2.1 63l8.77-8.85V54H8.92L0 63h2.1z" class="st4"/>
          </g>
          <g id="shape599-193" v:mID="599" v:groupContext="shape" v:layerMember="0" transform="translate(0 -8.7)">
            <path d="M0 62.7v.3l.23-.3H0z" class="st4"/>
          </g>
          <g id="shape600-195" v:mID="600" v:groupContext="shape" v:layerMember="0" transform="translate(27.225 -33.75)">
            <path d="M2.1 63l4.43-4.43V56.4L0 63h2.1z" class="st4"/>
          </g>
          <g id="shape601-197" v:mID="601" v:groupContext="shape" v:layerMember="0" transform="translate(24.75 -29.1)">
            <path d="M.22 60.6l-.22.22V63l2.32-2.4H.22z" class="st4"/>
          </g>
          <g id="shape602-199" v:mID="602" v:groupContext="shape" v:layerMember="0" transform="translate(4.875 -11.25)">
            <path d="M2.1 63l4.27-4.28v-2.17L0 63h2.1z" class="st4"/>
          </g>
          <g id="shape603-201" v:mID="603" v:groupContext="shape" v:layerMember="0" transform="translate(13.5 -17.85)">
            <path d="M.3 60.6l-.3.3V63l2.4-2.4H.3z" class="st4"/>
          </g>
          <g id="shape604-203" v:mID="604" v:groupContext="shape" v:layerMember="0" transform="translate(36 -40.425)">
            <path d="M0 60.82V63l2.25-2.33H.15l-.15.15z" class="st4"/>
          </g>
          <g id="shape605-205" v:mID="605" v:groupContext="shape" v:layerMember="0" transform="translate(0 -4.2)">
            <path d="M2.63 58.2L0 60.82V63l4.73-4.8h-2.1z" class="st4"/>
          </g>
          <g id="shape606-207" v:mID="606" v:groupContext="shape" v:layerMember="0" transform="translate(16.05 -22.5)">
            <path d="M2.1 63l4.35-4.35v-2.18L0 63h2.1z" class="st4"/>
          </g>
          <g id="shape607-209" v:mID="607" v:groupContext="shape" v:layerMember="0" transform="translate(13.5 -13.35)">
            <path d="M4.8 56.1L0 60.9V63l6.9-6.9H4.8z" class="st4"/>
          </g>
          <g id="shape608-211" v:mID="608" v:groupContext="shape" v:layerMember="0">
            <path d="M7.13 54L0 61.12V63h.3l8.93-9h-2.1z" class="st4"/>
          </g>
          <g id="shape609-213" v:mID="609" v:groupContext="shape" v:layerMember="0" transform="translate(20.55 -22.5)">
            <path d="M1.95 63v-2.03L0 63h1.95z" class="st4"/>
          </g>
          <g id="shape610-215" v:mID="610" v:groupContext="shape" v:layerMember="0" transform="translate(24.75 -24.6)">
            <path d="M4.72 56.1L0 60.82V63l6.82-6.9h-2.1z" class="st4"/>
          </g>
          <g id="shape611-217" v:mID="611" v:groupContext="shape" v:layerMember="0" transform="translate(31.725 -33.75)">
            <path d="M2.03 63v-2.1L0 63h2.03z" class="st4"/>
          </g>
          <g id="shape612-219" v:mID="612" v:groupContext="shape" v:layerMember="0" transform="translate(9.3 -11.25)">
            <path d="M1.95 63v-1.95L0 63h1.95z" class="st4"/>
          </g>
          <g id="shape613-221" v:mID="613" v:groupContext="shape" v:layerMember="0" transform="translate(36 -35.925)">
            <path d="M0 63l6.75-6.83h-2.1L0 60.82V63z" class="st4"/>
          </g>
          <g id="shape614-223" v:mID="614" v:groupContext="shape" v:layerMember="0" transform="translate(2.625)">
            <path d="M8.92 54L0 63h2.1l9-9H8.92z" class="st4"/>
          </g>
          <g id="shape615-225" v:mID="615" v:groupContext="shape" v:layerMember="0" transform="translate(24.975 -22.5)">
            <path d="M9 54l-9 9h2.17l8.93-9H9z" class="st4"/>
          </g>
          <g id="shape616-227" v:mID="616" v:groupContext="shape" v:layerMember="0" transform="translate(36.225 -33.75)">
            <path d="M2.1 63l8.92-9h-2.1L0 63h2.1z" class="st4"/>
          </g>
          <g id="shape617-229" v:mID="617" v:groupContext="shape" v:layerMember="0" transform="translate(13.8 -11.25)">
            <path d="M11.1 54H9l-9 9h2.1l9-9z" class="st4"/>
          </g>
          <g id="shape618-231" v:mID="618" v:groupContext="shape" v:layerMember="0" transform="translate(18.3 -11.25)">
            <path d="M2.1 63l9-9H8.93L0 63h2.1z" class="st4"/>
          </g>
          <g id="shape619-233" v:mID="619" v:groupContext="shape" v:layerMember="0" transform="translate(29.475 -22.5)">
            <path d="M9 54l-9 9h2.1l9-9H9z" class="st4"/>
          </g>
          <g id="shape620-235" v:mID="620" v:groupContext="shape" v:layerMember="0" transform="translate(40.65 -33.75)">
            <path d="M2.17 63l4.43-4.5v-2.1L0 63h2.17z" class="st4"/>
          </g>
          <g id="shape621-237" v:mID="621" v:groupContext="shape" v:layerMember="0" transform="translate(7.125)">
            <path d="M8.92 54L0 63h2.1l8.92-9h-2.1z" class="st4"/>
          </g>
          <g id="shape622-239" v:mID="622" v:groupContext="shape" v:layerMember="0" transform="translate(33.975 -22.5)">
            <path d="M8.92 54L0 63h2.1l8.92-9h-2.1z" class="st4"/>
          </g>
          <g id="shape623-241" v:mID="623" v:groupContext="shape" v:layerMember="0" transform="translate(45.15 -33.75)">
            <path d="M2.1 63v-2.1L0 63h2.1z" class="st4"/>
          </g>
          <g id="shape624-243" v:mID="624" v:groupContext="shape" v:layerMember="0" transform="translate(22.8 -11.25)">
            <path d="M2.1 63l8.85-8.93V54H8.92L0 63h2.1z" class="st4"/>
          </g>
          <g id="shape625-245" v:mID="625" v:groupContext="shape" v:layerMember="0" transform="translate(11.55)">
            <path d="M10.95 54H9l-9 9h2.17l8.78-8.85V54z" class="st4"/>
          </g>
          <g id="shape626-247" v:mID="626" v:groupContext="shape" v:layerMember="0" transform="translate(36 -17.775)">
            <path d="M.37 60.52L0 60.9V63l2.47-2.48H.37z" class="st4"/>
          </g>
          <g id="shape627-249" v:mID="627" v:groupContext="shape" v:layerMember="0" transform="translate(27.45 -11.25)">
            <path d="M2.1 63l4.2-4.2v-2.18L0 63h2.1z" class="st4"/>
          </g>
          <g id="shape628-251" v:mID="628" v:groupContext="shape" v:layerMember="0" transform="translate(16.35)">
            <path d="M6.15 56.77L0 63h2.1l4.05-4.05v-2.18z" class="st4"/>
          </g>
          <g id="shape629-253" v:mID="629" v:groupContext="shape" v:layerMember="0" transform="translate(38.625 -22.5)">
            <path d="M0 63h2.1l6.52-6.6v-2.18L0 63z" class="st4"/>
          </g>
          <g id="shape630-255" v:mID="630" v:groupContext="shape" v:layerMember="0" transform="translate(24.75 -6.375)">
            <path d="M.53 60.37L0 60.9V63l2.63-2.63H.53z" class="st4"/>
          </g>
          <g id="shape631-257" v:mID="631" v:groupContext="shape" v:layerMember="0" transform="translate(20.775)">
            <path d="M1.72 61.27L0 63h1.72v-1.73z" class="st4"/>
          </g>
          <g id="shape632-259" v:mID="632" v:groupContext="shape" v:layerMember="0" transform="translate(36 -13.275)">
            <path d="M4.8 56.02L0 60.9V63l6.9-6.98H4.8z" class="st4"/>
          </g>
          <g id="shape633-261" v:mID="633" v:groupContext="shape" v:layerMember="0" transform="translate(31.95 -11.25)">
            <path d="M1.8 63v-1.88L0 63h1.8z" class="st4"/>
          </g>
          <g id="shape634-263" v:mID="634" v:groupContext="shape" v:layerMember="0" transform="translate(24.75 -1.875)">
            <path d="M4.95 55.87L0 60.9V63l7.05-7.13h-2.1z" class="st4"/>
          </g>
          <g id="shape635-265" v:mID="635" v:groupContext="shape" v:layerMember="0" transform="translate(43.05 -22.5)">
            <path d="M2.1 63l2.1-2.1v-2.18L0 63h2.1z" class="st4"/>
          </g>
          <g id="shape636-267" v:mID="636" v:groupContext="shape" v:layerMember="0" transform="translate(36.375 -11.25)">
            <path d="M8.92 54L0 63h2.17l8.7-8.85V54H8.92z" class="st4"/>
          </g>
          <g id="shape637-269" v:mID="637" v:groupContext="shape" v:layerMember="0" transform="translate(25.35)">
            <path d="M8.85 54L0 63h2.1l8.85-9h-2.1z" class="st4"/>
          </g>
          <g id="shape638-271" v:mID="638" v:groupContext="shape" v:layerMember="0" transform="translate(29.85)">
            <path d="M8.85 54L0 63h2.1l8.85-9h-2.1z" class="st4"/>
          </g>
          <g id="shape639-273" v:mID="639" v:groupContext="shape" v:layerMember="0" transform="translate(40.875 -11.25)">
            <path d="M2.1 63l4.27-4.35v-2.1L0 63h2.1z" class="st4"/>
          </g>
          <g id="shape640-275" v:mID="640" v:groupContext="shape" v:layerMember="0" transform="translate(45.375 -11.25)">
            <path d="M1.88 63v-1.95L0 63h1.88z" class="st4"/>
          </g>
          <g id="shape641-277" v:mID="641" v:groupContext="shape" v:layerMember="0" transform="translate(34.35)">
            <path d="M8.85 54L0 63h2.1l8.85-9h-2.1z" class="st4"/>
          </g>
          <g id="shape642-279" v:mID="642" v:groupContext="shape" v:layerMember="0" transform="translate(38.775)">
            <path d="M8.48 56.47V54.3L0 63h2.1l6.38-6.53z" class="st4"/>
          </g>
          <g id="shape643-281" v:mID="643" v:groupContext="shape" v:layerMember="0" transform="translate(43.275)">
            <path d="M2.1 63l1.87-1.95v-2.18L0 63h2.1z" class="st4"/>
          </g>
        </g>
      </g>
    </g>
  </g>
</svg>
