<svg xmlns="http://www.w3.org/2000/svg" xmlns:v="http://schemas.microsoft.com/visio/2003/SVGExtensions/" width="88.5" height="84" viewBox="0 0 66.375 63" color-interpolation-filters="sRGB" fill="none" fill-rule="evenodd" font-size="12" overflow="visible" stroke-linecap="square" stroke-miterlimit="3">
  <v:documentProperties v:langID="4108" v:metric="true" v:viewMarkup="false"/>
  <style>
    .st2{fill:#2072b8;stroke:none;stroke-linecap:butt;stroke-width:.75}
  </style>
  <g v:mID="0" v:index="1" v:groupContext="foregroundPage">
    <v:pageProperties v:drawingScale=".039" v:pageScale=".039" v:drawingUnits="24" v:shadowOffsetX="8.504" v:shadowOffsetY="-8.504"/>
    <v:layer v:name="symbols" v:index="0"/>
    <g id="group459-1" transform="translate(7.678 -8.438)" v:mID="459" v:groupContext="group" v:layerMember="0">
      <g id="group460-2" v:mID="460" v:groupContext="group" v:layerMember="0">
        <g id="shape461-3" v:mID="461" v:groupContext="shape" v:layerMember="0">
          <path fill="#fff" stroke-linecap="butt" stroke-width=".75" d="M0 15.75h51.75V63H0z"/>
        </g>
        <g id="group462-5" transform="translate(2.25 -2.25)" v:mID="462" v:groupContext="group" v:layerMember="0">
          <g id="shape463-6" v:mID="463" v:groupContext="shape" v:layerMember="0" transform="translate(0 -33.75)">
            <path class="st2" d="M0 54h11.25v9H0z"/>
          </g>
          <g id="shape464-8" v:mID="464" v:groupContext="shape" v:layerMember="0" transform="translate(36 -33.75)">
            <path class="st2" d="M0 54h11.25v9H0z"/>
          </g>
          <g id="shape465-10" v:mID="465" v:groupContext="shape" v:layerMember="0" transform="translate(13.5 -33.75)">
            <path class="st2" d="M0 54h20.25v9H0z"/>
          </g>
          <g id="shape466-12" v:mID="466" v:groupContext="shape" v:layerMember="0" transform="translate(0 -11.25)">
            <path class="st2" d="M0 54h11.25v9H0z"/>
          </g>
          <g id="shape467-14" v:mID="467" v:groupContext="shape" v:layerMember="0" transform="translate(36 -11.25)">
            <path class="st2" d="M0 54h11.25v9H0z"/>
          </g>
          <g id="shape468-16" v:mID="468" v:groupContext="shape" v:layerMember="0" transform="translate(13.5 -11.25)">
            <path class="st2" d="M0 54h20.25v9H0z"/>
          </g>
          <g id="shape469-18" v:mID="469" v:groupContext="shape" v:layerMember="0" transform="translate(0 -22.5)">
            <path class="st2" d="M0 54h22.5v9H0z"/>
          </g>
          <g id="shape470-20" v:mID="470" v:groupContext="shape" v:layerMember="0" transform="translate(24.75 -22.5)">
            <path class="st2" d="M0 54h22.5v9H0z"/>
          </g>
          <g id="shape471-22" v:mID="471" v:groupContext="shape" v:layerMember="0">
            <path class="st2" d="M0 54h22.5v9H0z"/>
          </g>
          <g id="shape472-24" v:mID="472" v:groupContext="shape" v:layerMember="0" transform="translate(24.75)">
            <path class="st2" d="M0 54h22.5v9H0z"/>
          </g>
        </g>
      </g>
    </g>
  </g>
</svg>
