<svg xmlns="http://www.w3.org/2000/svg" xmlns:v="http://schemas.microsoft.com/visio/2003/SVGExtensions/" width="103.5" height="88.5" viewBox="0 0 77.625 66.375" color-interpolation-filters="sRGB" fill="none" fill-rule="evenodd" font-size="12" overflow="visible" stroke-linecap="square" stroke-miterlimit="3">
  <v:documentProperties v:langID="4108" v:metric="true" v:viewMarkup="false"/>
  <style>
    .st1,.st2{fill:#fff;stroke:none;stroke-linecap:butt;stroke-width:.75}.st2{fill:#535352}
  </style>
  <g v:mID="0" v:index="1" v:groupContext="foregroundPage">
    <v:pageProperties v:drawingScale=".039" v:pageScale=".039" v:drawingUnits="24" v:shadowOffsetX="8.504" v:shadowOffsetY="-8.504"/>
    <v:layer v:name="symbols" v:index="0"/>
    <g id="group731-1" transform="translate(8.728 -2.813)" v:mID="731" v:groupContext="group" v:layerMember="0">
      <g id="group732-2" v:mID="732" v:groupContext="group" v:layerMember="0">
        <g id="group733-3" transform="translate(0 -9)" v:mID="733" v:groupContext="group" v:layerMember="0">
          <g id="shape734-4" v:mID="734" v:groupContext="shape" v:layerMember="0">
            <path d="M45.75 19.12h-12.6c-2.18 0-3.3 1.13-4.35 2.1l-6.6 6.15H5.25C2.33 27.37 0 29.7 0 32.62v33.75h51v-42c0-2.92-2.33-5.25-5.25-5.25z" class="st1"/>
          </g>
          <g id="shape735-6" v:mID="735" v:groupContext="shape" v:layerMember="0" transform="translate(25.5 -39)">
            <path d="M23.25 66.37v-3c0-1.65-1.35-3-3-3H7.65c-1.27 0-1.88.6-2.77 1.5L0 66.37h23.25z" class="st2"/>
          </g>
          <g id="shape736-8" v:mID="736" v:groupContext="shape" v:layerMember="0" transform="translate(2.25 -2.25)">
            <path d="M3 31.87c-1.65 0-3 1.35-3 3v31.5h46.5v-34.5H3z" class="st2"/>
          </g>
        </g>
        <g id="group737-10" transform="translate(32.25)" v:mID="737" v:groupContext="group" v:layerMember="0">
          <g id="group738-11" v:mID="738" v:groupContext="group" v:layerMember="0">
            <g id="shape739-12" v:mID="739" v:groupContext="shape" v:layerMember="0">
              <path d="M4.5 66.37c-2.48 0-4.5-2.02-4.5-4.5v-21c0-2.47 2.02-4.5 4.5-4.5h21c2.47 0 4.5 2.03 4.5 4.5v21c0 2.48-2.03 4.5-4.5 4.5h-21z" class="st1"/>
            </g>
            <g id="shape740-14" v:mID="740" v:groupContext="shape" v:layerMember="0" transform="translate(2.25 -2.25)">
              <path d="M25.5 64.12c0 1.28-.98 2.25-2.25 2.25h-21C.97 66.37 0 65.4 0 64.12v-21c0-1.27.97-2.25 2.25-2.25h21c1.27 0 2.25.98 2.25 2.25v21z" fill="#515050" stroke-linecap="butt" stroke-width=".75"/>
            </g>
          </g>
          <g id="shape741-16" v:mID="741" v:groupContext="shape" v:layerMember="0" transform="translate(6.75 -9.6)">
            <path d="M12.22 56.47l-1.57 1.58h3.15l-4.28 4.27c-.37-.3-.82-.45-1.34-.45-.53 0-.98.15-1.36.45l-4.27-4.27H5.7l-1.43-1.58H0v4.28l1.57 1.57v-3.15l4.5 4.5c-.07.08-.07.23-.07.45 0 1.28.97 2.25 2.25 2.25 1.27 0 2.25-.97 2.25-2.25 0-.15 0-.37-.08-.52l4.5-4.5v3.15l1.58-1.58v-4.2h-4.28z" class="st1"/>
          </g>
        </g>
      </g>
    </g>
  </g>
</svg>
