<svg xmlns="http://www.w3.org/2000/svg" xmlns:v="http://schemas.microsoft.com/visio/2003/SVGExtensions/" width="96" height="82.5" viewBox="0 0 72 61.875" color-interpolation-filters="sRGB" fill="none" fill-rule="evenodd" font-size="12" overflow="visible" stroke-linecap="square" stroke-miterlimit="3">
  <v:documentProperties v:langID="4108" v:metric="true" v:viewMarkup="false"/>
  <style>
    .st1,.st2{fill:#fff;stroke:none;stroke-linecap:butt;stroke-width:.75}.st2{fill:#525352}
  </style>
  <g v:mID="0" v:index="1" v:groupContext="foregroundPage">
    <v:pageProperties v:drawingScale=".039" v:pageScale=".039" v:drawingUnits="24" v:shadowOffsetX="8.504" v:shadowOffsetY="-8.504"/>
    <v:layer v:name="symbols" v:index="0"/>
    <g id="group719-1" transform="translate(9.253 -1.313)" v:mID="719" v:groupContext="group" v:layerMember="0">
      <g id="group720-2" transform="translate(0 -7.5)" v:mID="720" v:groupContext="group" v:layerMember="0">
        <g id="shape721-3" v:mID="721" v:groupContext="shape" v:layerMember="0">
          <path d="M48.75 12.37h-12.6c-2.17 0-3.3 1.13-4.35 2.1l-6.6 6.15H5.25C2.33 20.62 0 22.95 0 25.87v36h54V17.62c0-2.92-2.33-5.25-5.25-5.25z" class="st1"/>
        </g>
        <g id="shape722-5" v:mID="722" v:groupContext="shape" v:layerMember="0" transform="translate(28.5 -41.25)">
          <path d="M23.25 61.87v-3c0-1.65-1.35-3-3-3H7.65c-1.27 0-1.88.6-2.77 1.5L0 61.87h23.25z" class="st2"/>
        </g>
        <g id="shape723-7" v:mID="723" v:groupContext="shape" v:layerMember="0" transform="translate(2.25 -2.25)">
          <path d="M3 25.12c-1.65 0-3 1.35-3 3v33.75h49.5V25.12H3z" class="st2"/>
        </g>
      </g>
      <g id="group724-9" transform="translate(26.25)" v:mID="724" v:groupContext="group" v:layerMember="0">
        <g id="shape725-10" v:mID="725" v:groupContext="shape" v:layerMember="0">
          <path d="M16.12 61.87C7.2 61.87 0 54.67 0 45.75c0-8.93 7.2-16.13 16.12-16.13 8.93 0 16.13 7.2 16.13 16.13 0 8.92-7.2 16.12-16.13 16.12z" class="st1"/>
        </g>
        <g id="shape726-12" v:mID="726" v:groupContext="shape" v:layerMember="0" transform="translate(2.25 -2.25)">
          <path d="M13.87 34.12C6.22 34.12 0 40.35 0 48s6.22 13.87 13.87 13.87c7.66 0 13.88-6.22 13.88-13.87 0-7.65-6.22-13.88-13.88-13.88z" fill="#515150" stroke-linecap="butt" stroke-width=".75"/>
        </g>
        <g id="group727-14" transform="translate(5.25 -6.375)" v:mID="727" v:groupContext="group" v:layerMember="0">
          <g id="shape728-15" v:mID="728" v:groupContext="shape" v:layerMember="0" transform="translate(3.375 -13.125)">
            <path d="M9 60.37a2.71 2.71 0 0 0 3.82 0 2.71 2.71 0 0 0 0-3.82 2.71 2.71 0 0 0-3.82 0l-.08.07c-.37-.07-.75-.07-1.19-.07-3.38 0-6.23 1.87-7.73 4.65.68.07 1.27.3 1.8.67C3 59.85 5.17 58.5 7.65 58.5h.45c.07.67.37 1.35.9 1.87z" class="st1"/>
          </g>
          <g id="shape729-17" v:mID="729" v:groupContext="shape" v:layerMember="0" transform="translate(0 -.975)">
            <path d="M10.2 59.85a6.876 6.876 0 0 1-5.55-4.58l.22-.22a2.722 2.722 0 0 0 0-3.83 2.71 2.71 0 0 0-3.82 0 2.722 2.722 0 0 0 0 3.83c.52.52 1.13.75 1.8.82a8.79 8.79 0 0 0 7.8 6c-.3-.67-.45-1.27-.45-2.02z" class="st1"/>
          </g>
          <g id="shape730-19" v:mID="730" v:groupContext="shape" v:layerMember="0" transform="translate(11.325)">
            <path d="M8.55 52.12c0-1.95-.68-3.82-1.8-5.25-.23.53-.53.98-.9 1.35l-.3.3a6.783 6.783 0 0 1 1.05 3.6c0 1.8-.75 3.45-1.88 4.73-1.05-.9-2.62-.83-3.67.15a2.71 2.71 0 0 0 0 3.82 2.71 2.71 0 0 0 3.82 0c.6-.6.9-1.5.75-2.25 1.8-1.57 2.93-3.9 2.93-6.45z" class="st1"/>
          </g>
        </g>
      </g>
    </g>
  </g>
</svg>
