<svg xmlns="http://www.w3.org/2000/svg" xmlns:v="http://schemas.microsoft.com/visio/2003/SVGExtensions/" width="93" height="91.5" viewBox="0 0 69.75 68.625" color-interpolation-filters="sRGB" fill="none" fill-rule="evenodd" font-size="12" overflow="visible" stroke-linecap="square" stroke-miterlimit="3">
  <v:documentProperties v:langID="4108" v:metric="true" v:viewMarkup="false"/>
  <style>
    .st1{fill:#fff;stroke:none;stroke-linecap:butt;stroke-width:.75}
  </style>
  <g v:mID="0" v:index="1" v:groupContext="foregroundPage">
    <v:pageProperties v:drawingScale=".039" v:pageScale=".039" v:drawingUnits="24" v:shadowOffsetX="8.504" v:shadowOffsetY="-8.504"/>
    <v:layer v:name="symbols" v:index="0"/>
    <g id="group782-1" transform="translate(8.503 -7.688)" v:mID="782" v:groupContext="group" v:layerMember="0">
      <g id="group783-2" v:mID="783" v:groupContext="group" v:layerMember="0">
        <g id="group784-3" v:mID="784" v:groupContext="group" v:layerMember="0">
          <g id="shape785-4" v:mID="785" v:groupContext="shape" v:layerMember="0">
            <path d="M26.62 68.62C11.92 68.62 0 56.7 0 42c0-14.7 11.92-26.63 26.62-26.63 14.71 0 26.63 11.93 26.63 26.63S41.33 68.62 26.62 68.62z" class="st1"/>
          </g>
          <g id="shape786-6" v:mID="786" v:groupContext="shape" v:layerMember="0" transform="translate(2.25 -2.25)">
            <ellipse cx="24.375" cy="44.25" rx="24.375" ry="24.375" fill="#515150" stroke-linecap="butt" stroke-width=".75"/>
          </g>
        </g>
        <g id="shape787-8" v:mID="787" v:groupContext="shape" v:layerMember="0" transform="translate(19.35 -11.55)">
          <path d="M4.12 59.92c-.15-.37-.22-.75-.3-1.35-.07-.52-.15-1.05-.15-1.65 0-.82.15-1.57.53-2.25.3-.67.75-1.27 1.27-1.87.53-.6 1.05-1.13 1.65-1.73.6-.52 1.13-1.05 1.65-1.57.53-.53.9-1.05 1.28-1.65.3-.6.52-1.2.52-1.88 0-.6-.15-1.12-.37-1.57-.23-.45-.6-.83-1.05-1.13-.45-.3-.9-.52-1.5-.67-.53-.15-1.13-.23-1.8-.23-2.03 0-3.98.9-5.85 2.7v-4.72c2.25-1.28 4.57-1.95 6.97-1.95 1.13 0 2.18.15 3.15.45.98.3 1.88.67 2.55 1.27.75.53 1.35 1.28 1.73 2.1.45.83.6 1.8.6 2.93 0 1.05-.15 1.95-.53 2.77-.37.83-.82 1.58-1.35 2.25-.52.68-1.12 1.28-1.72 1.8-.6.53-1.2 1.05-1.73 1.58-.52.52-.97 1.05-1.34 1.65-.38.6-.53 1.2-.53 1.87 0 .6.07 1.13.22 1.58.15.45.3.9.45 1.2H4.12v.07zm2.33 8.7c-.75 0-1.5-.3-2.1-.82-.6-.53-.83-1.13-.83-1.95 0-.75.3-1.43.83-1.95.6-.53 1.27-.83 2.1-.83.75 0 1.42.3 2.02.83.6.52.83 1.12.83 1.95 0 .75-.3 1.42-.83 1.95-.6.52-1.27.82-2.02.82z" class="st1"/>
        </g>
      </g>
    </g>
  </g>
</svg>
