<svg xmlns="http://www.w3.org/2000/svg" xmlns:v="http://schemas.microsoft.com/visio/2003/SVGExtensions/" width="97.125" height="85.5" viewBox="0 0 72.844 64.125" color-interpolation-filters="sRGB" fill="none" fill-rule="evenodd" font-size="12" overflow="visible" stroke-linecap="square" stroke-miterlimit="3">
  <v:documentProperties v:langID="4108" v:metric="true" v:viewMarkup="false"/>
  <style>
    .st1,.st2,.st3{fill:#fff;stroke:none;stroke-linecap:butt;stroke-width:.75}.st2,.st3{fill:#9b9b9b}.st3{fill:#cccbcb}
  </style>
  <g v:mID="0" v:index="1" v:groupContext="foregroundPage">
    <v:pageProperties v:drawingScale=".039" v:pageScale=".039" v:drawingUnits="24" v:shadowOffsetX="8.504" v:shadowOffsetY="-8.504"/>
    <v:layer v:name="symbols" v:index="0"/>
    <g id="group873-1" transform="translate(7.922 -8.438)" v:mID="873" v:groupContext="group" v:layerMember="0">
      <g id="group874-2" v:mID="874" v:groupContext="group" v:layerMember="0">
        <g id="group875-3" v:mID="875" v:groupContext="group" v:layerMember="0">
          <g id="group876-4" v:mID="876" v:groupContext="group" v:layerMember="0">
            <g id="group877-5" v:mID="877" v:groupContext="group" v:layerMember="0">
              <g id="shape878-6" v:mID="878" v:groupContext="shape" v:layerMember="0">
                <path class="st1" d="M0 16.875h57v47.25H0z"/>
              </g>
              <g id="shape879-8" v:mID="879" v:groupContext="shape" v:layerMember="0" transform="translate(2.25 -2.25)">
                <path class="st2" d="M0 21.375h52.5v42.75H0z"/>
              </g>
            </g>
            <g id="shape880-10" v:mID="880" v:groupContext="shape" v:layerMember="0" transform="translate(4.5 -4.5)">
              <path class="st1" d="M0 25.875h48v38.25H0z"/>
            </g>
          </g>
          <g id="shape881-12" v:mID="881" v:groupContext="shape" v:layerMember="0" transform="translate(14.25 -9)">
            <path d="M11.25 53.62v10.5h-9v-13.8h-1.2c-.6 0-1.05-.37-1.05-.97 0-.3.07-.53.3-.68l12.97-12.6c.15-.15.68-.52 1.05-.52.38 0 .9.37 1.06.52l5.84 5.63v-3.45c0-.45.38-.9.9-.9h2.63c.45 0 .9.37.9.9v7.8l2.77 2.7c.15.15.3.45.3.67 0 .6-.45.98-1.05.98h-1.42v13.72h-9v-10.5h-6z" class="st2"/>
          </g>
        </g>
        <g id="group882-14" transform="translate(2.25 -2.25)" v:mID="882" v:groupContext="group" v:layerMember="0">
          <g id="shape883-15" v:mID="883" v:groupContext="shape" v:layerMember="0" transform="translate(0 -42.525)">
            <path d="M.23 63.9H0v.22l.23-.22z" class="st3"/>
          </g>
          <g id="shape884-17" v:mID="884" v:groupContext="shape" v:layerMember="0" transform="translate(0 -38.025)">
            <path d="M2.25 61.87v-.22h.22l2.26-2.25H2.55L0 62.02v2.1l2.25-2.25z" class="st3"/>
          </g>
          <g id="shape885-19" v:mID="885" v:groupContext="shape" v:layerMember="0" transform="translate(0 -33.45)">
            <path d="M2.25 59.7L0 61.95v2.17l2.25-2.32v-2.1z" class="st3"/>
          </g>
          <g id="shape886-21" v:mID="886" v:groupContext="shape" v:layerMember="0" transform="translate(4.8 -40.5)">
            <path d="M0 64.12h2.18l2.17-2.25h-2.1L0 64.12z" class="st3"/>
          </g>
          <g id="shape887-23" v:mID="887" v:groupContext="shape" v:layerMember="0" transform="translate(0 -28.95)">
            <path d="M2.25 61.8v-2.1L0 61.95v2.17l2.25-2.32z" class="st3"/>
          </g>
          <g id="shape888-25" v:mID="888" v:groupContext="shape" v:layerMember="0" transform="translate(9.3 -40.5)">
            <path d="M2.1 64.12l2.25-2.25H2.18L0 64.12h2.1z" class="st3"/>
          </g>
          <g id="shape889-27" v:mID="889" v:groupContext="shape" v:layerMember="0" transform="translate(13.8 -40.5)">
            <path d="M0 64.12h2.1l2.17-2.25h-2.1L0 64.12z" class="st3"/>
          </g>
          <g id="shape890-29" v:mID="890" v:groupContext="shape" v:layerMember="0" transform="translate(0 -24.45)">
            <path d="M2.25 59.7L0 61.95v2.17l2.25-2.32v-2.1z" class="st3"/>
          </g>
          <g id="shape891-31" v:mID="891" v:groupContext="shape" v:layerMember="0" transform="translate(18.225 -40.5)">
            <path d="M2.1 64.12l2.25-2.25h-2.1L0 64.12h2.1z" class="st3"/>
          </g>
          <g id="shape892-33" v:mID="892" v:groupContext="shape" v:layerMember="0" transform="translate(0 -19.95)">
            <path d="M2.25 61.8v-2.1L0 61.95v2.17l2.25-2.32z" class="st3"/>
          </g>
          <g id="shape893-35" v:mID="893" v:groupContext="shape" v:layerMember="0" transform="translate(22.725 -40.5)">
            <path d="M0 64.12h2.1l2.25-2.25h-2.1L0 64.12z" class="st3"/>
          </g>
          <g id="shape894-37" v:mID="894" v:groupContext="shape" v:layerMember="0" transform="translate(0 -15.45)">
            <path d="M2.25 59.7L0 61.95v2.17l2.25-2.25V59.7z" class="st3"/>
          </g>
          <g id="shape895-39" v:mID="895" v:groupContext="shape" v:layerMember="0" transform="translate(0 -10.95)">
            <path d="M2.25 61.87V59.7L0 61.95v2.17l2.25-2.25z" class="st3"/>
          </g>
          <g id="shape896-41" v:mID="896" v:groupContext="shape" v:layerMember="0" transform="translate(27.225 -40.5)">
            <path d="M2.1 64.12l2.18-2.25h-2.1L0 64.12h2.1z" class="st3"/>
          </g>
          <g id="shape897-43" v:mID="897" v:groupContext="shape" v:layerMember="0" transform="translate(0 -6.45)">
            <path d="M0 64.12l2.25-2.25V59.7L0 61.95v2.17z" class="st3"/>
          </g>
          <g id="shape898-45" v:mID="898" v:groupContext="shape" v:layerMember="0" transform="translate(31.725 -40.5)">
            <path d="M0 64.12h2.1l2.25-2.25H2.18L0 64.12z" class="st3"/>
          </g>
          <g id="shape899-47" v:mID="899" v:groupContext="shape" v:layerMember="0" transform="translate(12.3 -20.55)">
            <path d="M.75 64.12h.97l13.73-13.87-.38-.38c-.15-.15-.52-.37-.82-.45L0 63.82c.15.15.37.3.75.3z" class="st3"/>
          </g>
          <g id="shape900-49" v:mID="900" v:groupContext="shape" v:layerMember="0" transform="translate(36.225 -40.5)">
            <path d="M0 64.12h2.1l2.25-2.25H2.18L0 64.12z" class="st3"/>
          </g>
          <g id="shape901-51" v:mID="901" v:groupContext="shape" v:layerMember="0" transform="translate(0 -1.95)">
            <path d="M0 62.02v2.1l2.25-2.25V59.7L0 62.02z" class="st3"/>
          </g>
          <g id="shape902-53" v:mID="902" v:groupContext="shape" v:layerMember="0" transform="translate(14.25 -16.275)">
            <path d="M14.7 47.17L0 61.95v2.17l15.82-15.9-1.12-1.05z" class="st3"/>
          </g>
          <g id="shape903-55" v:mID="903" v:groupContext="shape" v:layerMember="0" transform="translate(33.225 -30.9)">
            <path d="M0 62.4v1.72l2.63-2.62H.9c-.53 0-.9.45-.9.9z" class="st3"/>
          </g>
          <g id="shape904-57" v:mID="904" v:groupContext="shape" v:layerMember="0" transform="translate(14.25 -11.775)">
            <path d="M18.07 45.9l-1.05-1.05L0 61.95v2.17L18.07 45.9z" class="st3"/>
          </g>
          <g id="shape905-59" v:mID="905" v:groupContext="shape" v:layerMember="0" transform="translate(40.65 -40.5)">
            <path d="M2.1 64.12l2.25-2.25h-2.1L0 64.12h2.1z" class="st3"/>
          </g>
          <g id="shape906-61" v:mID="906" v:groupContext="shape" v:layerMember="0" transform="translate(.375)">
            <path d="M4.35 61.87h-2.1L0 64.12h2.18l2.17-2.25z" class="st3"/>
          </g>
          <g id="shape907-63" v:mID="907" v:groupContext="shape" v:layerMember="0" transform="translate(14.25 -7.275)">
            <path d="M9 55.05v-.9h.9l13.5-13.58v-1.8c0-.07 0-.15-.07-.22L0 62.02v2.1l9-9.07z" class="st3"/>
          </g>
          <g id="shape908-65" v:mID="908" v:groupContext="shape" v:layerMember="0" transform="translate(4.875)">
            <path d="M2.1 64.12l2.25-2.25h-2.1L0 64.12h2.1z" class="st3"/>
          </g>
          <g id="shape909-67" v:mID="909" v:groupContext="shape" v:layerMember="0" transform="translate(45.15 -40.5)">
            <path d="M0 64.12h2.18l2.17-2.25h-2.1L0 64.12z" class="st3"/>
          </g>
          <g id="shape910-69" v:mID="910" v:groupContext="shape" v:layerMember="0" transform="translate(16.05 -6.75)">
            <path d="M7.2 56.92L0 64.12h2.18l5.02-5.1v-2.1z" class="st3"/>
          </g>
          <g id="shape911-71" v:mID="911" v:groupContext="shape" v:layerMember="0" transform="translate(26.55 -17.25)">
            <path d="M2.1 64.12l9-9.07v-2.1L0 64.12h2.1z" class="st3"/>
          </g>
          <g id="shape912-73" v:mID="912" v:groupContext="shape" v:layerMember="0" transform="translate(49.65 -39)">
            <path d="M.6 62.62v1.5l2.25-2.25v-1.5h-.6L0 62.62h.6z" class="st3"/>
          </g>
          <g id="shape913-75" v:mID="913" v:groupContext="shape" v:layerMember="0" transform="translate(9.375)">
            <path d="M2.25 61.87L0 64.12h2.1l2.25-2.25h-2.1z" class="st3"/>
          </g>
          <g id="shape914-77" v:mID="914" v:groupContext="shape" v:layerMember="0" transform="translate(20.55 -6.75)">
            <path d="M2.7 63.52v-2.1L0 64.12h2.1l.6-.6z" class="st3"/>
          </g>
          <g id="shape915-79" v:mID="915" v:groupContext="shape" v:layerMember="0" transform="translate(13.875)">
            <path d="M4.35 61.87H2.18L0 64.12h2.1l2.25-2.25z" class="st3"/>
          </g>
          <g id="shape916-81" v:mID="916" v:groupContext="shape" v:layerMember="0" transform="translate(29.25 -13.35)">
            <path d="M0 61.95v2.17l9.9-9.97-1.05-1.05L0 61.95z" class="st3"/>
          </g>
          <g id="shape917-83" v:mID="917" v:groupContext="shape" v:layerMember="0" transform="translate(50.25 -34.5)">
            <path d="M2.25 59.77L0 62.02v2.1l2.25-2.25v-2.1z" class="st3"/>
          </g>
          <g id="shape918-85" v:mID="918" v:groupContext="shape" v:layerMember="0" transform="translate(18.6)">
            <path d="M2.25 61.87L0 64.12h2.18l2.17-2.25h-2.1z" class="st3"/>
          </g>
          <g id="shape919-87" v:mID="919" v:groupContext="shape" v:layerMember="0" transform="translate(38.85 -20.475)">
            <path d="M.83 64.12c.6 0 1.05-.37 1.05-.97 0-.23-.15-.45-.3-.68L0 64.12h.83z" class="st3"/>
          </g>
          <g id="shape920-89" v:mID="920" v:groupContext="shape" v:layerMember="0" transform="translate(50.25 -29.85)">
            <path d="M0 61.95v2.17l2.25-2.32v-2.1L0 61.95z" class="st3"/>
          </g>
          <g id="shape921-91" v:mID="921" v:groupContext="shape" v:layerMember="0" transform="translate(29.25 -8.625)">
            <path d="M9 52.87l-9 9.15v2.1l9-9.07v-2.18z" class="st3"/>
          </g>
          <g id="shape922-93" v:mID="922" v:groupContext="shape" v:layerMember="0" transform="translate(23.1)">
            <path d="M4.27 61.87h-2.1L0 64.12h2.1l2.17-2.25z" class="st3"/>
          </g>
          <g id="shape923-95" v:mID="923" v:groupContext="shape" v:layerMember="0" transform="translate(29.775 -6.75)">
            <path d="M8.47 57.67V55.5L0 64.12h2.1l6.37-6.45z" class="st3"/>
          </g>
          <g id="shape924-97" v:mID="924" v:groupContext="shape" v:layerMember="0" transform="translate(50.25 -25.35)">
            <path d="M0 64.12l2.25-2.32v-2.1L0 61.95v2.17z" class="st3"/>
          </g>
          <g id="shape925-99" v:mID="925" v:groupContext="shape" v:layerMember="0" transform="translate(34.275 -6.75)">
            <path d="M3.98 62.17v-2.1L0 64.12h2.1l1.88-1.95z" class="st3"/>
          </g>
          <g id="shape926-101" v:mID="926" v:groupContext="shape" v:layerMember="0" transform="translate(27.6)">
            <path d="M4.27 61.87h-2.1L0 64.12h2.1l2.17-2.25z" class="st3"/>
          </g>
          <g id="shape927-103" v:mID="927" v:groupContext="shape" v:layerMember="0" transform="translate(50.25 -20.85)">
            <path d="M0 62.02v2.1l2.25-2.25V59.7L0 62.02z" class="st3"/>
          </g>
          <g id="shape928-105" v:mID="928" v:groupContext="shape" v:layerMember="0" transform="translate(32.1)">
            <path d="M4.35 61.87H2.18L0 64.12h2.1l2.25-2.25z" class="st3"/>
          </g>
          <g id="shape929-107" v:mID="929" v:groupContext="shape" v:layerMember="0" transform="translate(50.25 -16.275)">
            <path d="M0 61.95v2.17l2.25-2.32v-2.1L0 61.95z" class="st3"/>
          </g>
          <g id="shape930-109" v:mID="930" v:groupContext="shape" v:layerMember="0" transform="translate(36.6)">
            <path d="M2.25 61.87L0 64.12h2.1l2.25-2.25h-2.1z" class="st3"/>
          </g>
          <g id="shape931-111" v:mID="931" v:groupContext="shape" v:layerMember="0" transform="translate(50.25 -11.775)">
            <path d="M0 62.02v2.1l2.25-2.25V59.7L0 62.02z" class="st3"/>
          </g>
          <g id="shape932-113" v:mID="932" v:groupContext="shape" v:layerMember="0" transform="translate(50.25 -7.275)">
            <path d="M0 64.12l2.25-2.25V59.7L0 62.02v2.1z" class="st3"/>
          </g>
          <g id="shape933-115" v:mID="933" v:groupContext="shape" v:layerMember="0" transform="translate(41.025)">
            <path d="M4.28 61.87h-2.1L0 64.12h2.1l2.18-2.25z" class="st3"/>
          </g>
          <g id="shape934-117" v:mID="934" v:groupContext="shape" v:layerMember="0" transform="translate(50.25 -2.7)">
            <path d="M2.25 59.7L0 62.02v2.1l2.25-2.32v-2.1z" class="st3"/>
          </g>
          <g id="shape935-119" v:mID="935" v:groupContext="shape" v:layerMember="0" transform="translate(45.525)">
            <path d="M2.18 61.87L0 64.12h2.1l2.18-2.25h-2.1z" class="st3"/>
          </g>
          <g id="shape936-121" v:mID="936" v:groupContext="shape" v:layerMember="0" transform="translate(49.95)">
            <path d="M2.55 63.6v-2.1L0 64.12h2.1l.45-.52z" class="st3"/>
          </g>
        </g>
      </g>
    </g>
  </g>
</svg>
