<svg xmlns="http://www.w3.org/2000/svg" xmlns:v="http://schemas.microsoft.com/visio/2003/SVGExtensions/" width="93" height="91.5" viewBox="0 0 69.75 68.625" color-interpolation-filters="sRGB" fill="none" fill-rule="evenodd" font-size="12" overflow="visible" stroke-linecap="square" stroke-miterlimit="3">
  <v:documentProperties v:langID="4108" v:metric="true" v:viewMarkup="false"/>
  <style>
    .st3{fill:#cccbcb;stroke:none;stroke-linecap:butt;stroke-width:.75}
  </style>
  <g v:mID="0" v:index="1" v:groupContext="foregroundPage">
    <v:pageProperties v:drawingScale=".039" v:pageScale=".039" v:drawingUnits="24" v:shadowOffsetX="8.504" v:shadowOffsetY="-8.504"/>
    <v:layer v:name="symbols" v:index="0"/>
    <g id="group810-1" transform="translate(8.438 -7.237)" v:mID="810" v:groupContext="group" v:layerMember="0">
      <g id="group811-2" v:mID="811" v:groupContext="group" v:layerMember="0">
        <g id="shape812-3" v:mID="812" v:groupContext="shape" v:layerMember="0">
          <path d="M3.75 68.63v-24c-2.1-.15-3.75-1.8-3.75-3.9 0-1.05.37-1.95 1.05-2.7l.07-.15 22.5-21.9c.38-.38 1.88-1.5 3.38-1.5s2.93 1.12 3.37 1.5l6.38 6.15v-.75c0-2.1 1.65-3.75 3.75-3.75H45c2.1 0 3.75 1.65 3.75 3.75V33.9l4.13 3.98.07.07c.68.75 1.05 1.73 1.05 2.7 0 2.1-1.65 3.75-3.75 3.9v24H3.75v.08z" fill="#fff" stroke-linecap="butt" stroke-width=".75"/>
        </g>
        <g id="shape813-5" v:mID="813" v:groupContext="shape" v:layerMember="0" transform="translate(2.25 -2.25)">
          <path d="M19.5 50.63v18H3.75v-24H1.8c-.97 0-1.8-.68-1.8-1.65 0-.45.15-.9.45-1.2l22.5-21.9c.3-.3 1.2-.9 1.8-.9.6 0 1.5.6 1.8.9l10.2 9.75v-6c0-.83.68-1.5 1.5-1.5h4.5c.83 0 1.5.67 1.5 1.5v13.5l4.8 4.65c.3.3.45.75.45 1.2 0 .97-.82 1.65-1.8 1.65h-1.95v24H30v-18H19.5z" fill="#9b9b9b" stroke-linecap="butt" stroke-width=".75"/>
        </g>
        <g id="group814-7" transform="translate(2.325 -2.25)" v:mID="814" v:groupContext="group" v:layerMember="0">
          <g id="shape815-8" v:mID="815" v:groupContext="shape" v:layerMember="0" transform="translate(0 -24.15)">
            <path d="M1.05 68.63l24.82-25.05c-.37-.23-.82-.45-1.2-.45-.22 0-.37.07-.6.15L0 67.58c.15.52.53.9 1.05 1.05z" class="st3"/>
          </g>
          <g id="shape816-10" v:mID="816" v:groupContext="shape" v:layerMember="0" transform="translate(3.3 -22.275)">
            <path d="M24.97 43.88l-1.12-1.05L0 66.9h.37v1.73l24.6-24.75z" class="st3"/>
          </g>
          <g id="shape817-12" v:mID="817" v:groupContext="shape" v:layerMember="0" transform="translate(3.675 -17.775)">
            <path d="M26.85 41.55L25.8 40.5 0 66.53v2.1l26.85-27.08z" class="st3"/>
          </g>
          <g id="shape818-14" v:mID="818" v:groupContext="shape" v:layerMember="0" transform="translate(3.675 -13.275)">
            <path d="M0 66.53v2.1l29.18-29.4-1.05-.98L0 66.53z" class="st3"/>
          </g>
          <g id="shape819-16" v:mID="819" v:groupContext="shape" v:layerMember="0" transform="translate(3.675 -8.775)">
            <path d="M30.45 35.93L0 66.53v2.1l31.5-31.65-1.05-1.05z" class="st3"/>
          </g>
          <g id="shape820-18" v:mID="820" v:groupContext="shape" v:layerMember="0" transform="translate(36.675 -41.925)">
            <path d="M2.4 64.05L0 66.45v2.18l4.5-4.58H2.4z" class="st3"/>
          </g>
          <g id="shape821-20" v:mID="821" v:groupContext="shape" v:layerMember="0" transform="translate(3.675 -4.275)">
            <path d="M40.5 27.9c0-.6-.3-1.05-.82-1.35L33 33.3v.6l-.3-.3L0 66.53v2.1L40.5 27.9z" class="st3"/>
          </g>
          <g id="shape822-22" v:mID="822" v:groupContext="shape" v:layerMember="0" transform="translate(19.725 -18)">
            <path d="M0 68.63h2.1L24.45 46.2v-2.17L0 68.63z" class="st3"/>
          </g>
          <g id="shape823-24" v:mID="823" v:groupContext="shape" v:layerMember="0" transform="translate(3.675)">
            <path d="M15.75 50.93L0 66.75v1.88h.22l15.53-15.6v-2.1z" class="st3"/>
          </g>
          <g id="shape824-26" v:mID="824" v:groupContext="shape" v:layerMember="0" transform="translate(24.225 -18)">
            <path d="M19.95 48.53L0 68.63h2.1L19.95 50.7v-2.17z" class="st3"/>
          </g>
          <g id="shape825-28" v:mID="825" v:groupContext="shape" v:layerMember="0" transform="translate(6.3)">
            <path d="M13.12 55.43L0 68.63h2.1l11.02-11.1v-2.1z" class="st3"/>
          </g>
          <g id="shape826-30" v:mID="826" v:groupContext="shape" v:layerMember="0" transform="translate(10.8)">
            <path d="M8.62 62.03v-2.1L0 68.63h2.1l6.52-6.6z" class="st3"/>
          </g>
          <g id="shape827-32" v:mID="827" v:groupContext="shape" v:layerMember="0" transform="translate(28.65 -17.1)">
            <path d="M1.28 68.63l14.25-14.4v-2.1L0 67.73h1.28v.9z" class="st3"/>
          </g>
          <g id="shape828-34" v:mID="828" v:groupContext="shape" v:layerMember="0" transform="translate(29.925 -12.375)">
            <path d="M15.52 50.78L0 66.45v2.18l16.65-16.88-1.13-.97z" class="st3"/>
          </g>
          <g id="shape829-36" v:mID="829" v:groupContext="shape" v:layerMember="0" transform="translate(15.6)">
            <path d="M0 68.63h2.1l1.73-1.8v-2.1L0 68.63z" class="st3"/>
          </g>
          <g id="shape830-38" v:mID="830" v:groupContext="shape" v:layerMember="0" transform="translate(29.925 -7.875)">
            <path d="M15.75 52.65v-.15h.15l3-3-1.12-1.05L0 66.45v2.18l15.75-15.98z" class="st3"/>
          </g>
          <g id="shape831-40" v:mID="831" v:groupContext="shape" v:layerMember="0" transform="translate(48.3 -24.15)">
            <path d="M1.05 67.58L0 68.63c.53-.15.9-.53 1.05-1.05z" class="st3"/>
          </g>
          <g id="shape832-42" v:mID="832" v:groupContext="shape" v:layerMember="0" transform="translate(29.925 -3.375)">
            <path d="M15.75 52.73v-2.18L0 66.53v2.1l15.75-15.9z" class="st3"/>
          </g>
          <g id="shape833-44" v:mID="833" v:groupContext="shape" v:layerMember="0" transform="translate(29.925)">
            <path d="M15.75 51.75L0 67.73v.9h1.2l14.55-14.78v-2.1z" class="st3"/>
          </g>
          <g id="shape834-46" v:mID="834" v:groupContext="shape" v:layerMember="0" transform="translate(33.525)">
            <path d="M12.15 56.25L0 68.63h2.1l10.05-10.2v-2.18z" class="st3"/>
          </g>
          <g id="shape835-48" v:mID="835" v:groupContext="shape" v:layerMember="0" transform="translate(37.95)">
            <path d="M7.72 62.93v-2.18L0 68.63h2.1l5.62-5.7z" class="st3"/>
          </g>
          <g id="shape836-50" v:mID="836" v:groupContext="shape" v:layerMember="0" transform="translate(42.45)">
            <path d="M0 68.63h2.1l1.12-1.13v-2.17L0 68.63z" class="st3"/>
          </g>
        </g>
      </g>
    </g>
  </g>
</svg>
