<svg xmlns="http://www.w3.org/2000/svg" xmlns:v="http://schemas.microsoft.com/visio/2003/SVGExtensions/" width="84" height="94.5" viewBox="0 0 63 70.875" color-interpolation-filters="sRGB" fill="none" fill-rule="evenodd" font-size="12" overflow="visible" stroke-linecap="square" stroke-miterlimit="3">
  <v:documentProperties v:langID="4108" v:metric="true" v:viewMarkup="false"/>
  <style>
    .st1{fill:#fff;stroke:none;stroke-linecap:butt;stroke-width:.75}
  </style>
  <g v:mID="0" v:index="1" v:groupContext="foregroundPage">
    <v:pageProperties v:drawingScale=".039" v:pageScale=".039" v:drawingUnits="24" v:shadowOffsetX="8.504" v:shadowOffsetY="-8.504"/>
    <v:layer v:name="symbols" v:index="0"/>
    <g id="group955-1" transform="translate(4.378 -6.938)" v:mID="955" v:groupContext="group" v:layerMember="0">
      <g id="group956-2" transform="translate(18.75)" v:mID="956" v:groupContext="group" v:layerMember="0">
        <g id="shape957-3" v:mID="957" v:groupContext="shape" v:layerMember="0">
          <path d="M0 70.88V19.13c0-2.93 2.33-5.25 5.25-5.25h21c2.93 0 5.25 2.32 5.25 5.25v51.75H0z" class="st1"/>
        </g>
        <g id="shape958-5" v:mID="958" v:groupContext="shape" v:layerMember="0" transform="translate(2.25 -2.25)">
          <path d="M24 18.38H3c-1.65 0-3 1.35-3 3v49.5h27v-49.5c0-1.65-1.35-3-3-3zm-2.25 46.5H5.25v-2.25h16.5v2.25zm0-6.75H5.25v-2.25h16.5v2.25zm0-30.75H5.25v-2.25h16.5v2.25z" fill="#515251" stroke-linecap="butt" stroke-width=".75"/>
        </g>
      </g>
      <g id="group959-7" transform="translate(0 -10.5)" v:mID="959" v:groupContext="group" v:layerMember="0">
        <g id="shape960-8" v:mID="960" v:groupContext="shape" v:layerMember="0">
          <path d="M21.6 49.88h-9.15v2.85l3.07 3.15H13.8c-1.72 0-3.6-1.95-4.35-4.35L9 49.88H0l.53 2.7c1.34 6.97 7.05 12.3 13.27 12.3h1.72l-3.07 3.15v2.85h9.15L32.1 60.3 21.6 49.88z" class="st1"/>
        </g>
        <g id="shape961-10" v:mID="961" v:groupContext="shape" v:layerMember="0" transform="translate(2.55 -2.25)">
          <path d="M18.15 54.38h-5.7l5.77 6h-7.05c-2.84 0-5.55-2.63-6.52-6H0c1.13 5.85 5.85 10.5 11.1 10.5h7.05l-5.7 6h5.63l8.24-8.33-8.17-8.17z" fill="#515050" stroke-linecap="butt" stroke-width=".75"/>
        </g>
      </g>
    </g>
  </g>
</svg>
