<svg xmlns="http://www.w3.org/2000/svg" xmlns:v="http://schemas.microsoft.com/visio/2003/SVGExtensions/" width="91.5" height="91.5" viewBox="0 0 68.625 68.625" color-interpolation-filters="sRGB" fill="none" fill-rule="evenodd" font-size="12" overflow="visible" stroke-linecap="square" stroke-miterlimit="3">
  <v:documentProperties v:langID="4108" v:metric="true" v:viewMarkup="false"/>
  <style>
    .st1,.st2{fill:#fff;stroke:none;stroke-linecap:butt;stroke-width:.75}.st2{fill:#515150}
  </style>
  <g v:mID="0" v:index="1" v:groupContext="foregroundPage">
    <v:pageProperties v:drawingScale=".039" v:pageScale=".039" v:drawingUnits="24" v:shadowOffsetX="8.504" v:shadowOffsetY="-8.504"/>
    <v:layer v:name="symbols" v:index="0"/>
    <g id="group1073-1" transform="translate(5.813 -6.938)" v:mID="1073" v:groupContext="group" v:layerMember="0">
      <g id="group1074-2" v:mID="1074" v:groupContext="group" v:layerMember="0">
        <g id="group1075-3" v:mID="1075" v:groupContext="group" v:layerMember="0">
          <g id="group1076-4" v:mID="1076" v:groupContext="group" v:layerMember="0">
            <g id="shape1077-5" v:mID="1077" v:groupContext="shape" v:layerMember="0">
              <path d="M0 52.12v16.5h57V49.57l-.45-1.95-3.75-15.67h-1.05V19.87h-1.5v-6H6.75v6h-1.5v12.08H4.2L.45 47.62 0 49.57v2.55z" class="st1"/>
            </g>
            <g id="group1078-7" transform="translate(15 -23.25)" v:mID="1078" v:groupContext="group" v:layerMember="0">
              <g id="shape1079-8" v:mID="1079" v:groupContext="shape" v:layerMember="0" transform="translate(23.25 -11.25)">
                <path class="st2" d="M0 61.875h6v6.75H0z"/>
              </g>
              <g id="shape1080-10" v:mID="1080" v:groupContext="shape" v:layerMember="0" transform="translate(0 -5.25)">
                <path class="st2" d="M0 66.375h15.75v2.25H0z"/>
              </g>
              <g id="shape1081-12" v:mID="1081" v:groupContext="shape" v:layerMember="0">
                <path class="st2" d="M0 66.375h20.25v2.25H0z"/>
              </g>
            </g>
            <g id="shape1082-14" v:mID="1082" v:groupContext="shape" v:layerMember="0" transform="translate(9 -48.75)">
              <path d="M0 64.87v3.75h2.25v-1.5h34.5v1.5H39v-3.75H0z" class="st2"/>
            </g>
          </g>
          <g id="shape1083-16" v:mID="1083" v:groupContext="shape" v:layerMember="0" transform="translate(2.25 -2.25)">
            <path d="M48.75 36.45h-1.5V24.37h-42v12.08h-1.5L0 52.12v16.5h52.5v-16.5l-3.75-15.67zm-3.75 0v15.67H7.5v-25.5H45v9.83z" class="st2"/>
          </g>
        </g>
        <g id="shape1084-18" v:mID="1084" v:groupContext="shape" v:layerMember="0" transform="translate(4.5 -4.5)">
          <path class="st1" d="M0 56.625h48v12H0z"/>
        </g>
      </g>
    </g>
  </g>
</svg>
