<svg xmlns="http://www.w3.org/2000/svg" xmlns:v="http://schemas.microsoft.com/visio/2003/SVGExtensions/" width="79.5" height="99" viewBox="0 0 59.625 74.25" color-interpolation-filters="sRGB" fill="none" fill-rule="evenodd" font-size="12" overflow="visible" stroke-linecap="square" stroke-miterlimit="3">
  <v:documentProperties v:langID="4108" v:metric="true" v:viewMarkup="false"/>
  <style>
    .st1,.st2{fill:#fff;stroke:none;stroke-linecap:butt;stroke-width:.75}.st2{fill:#515150}
  </style>
  <g v:mID="0" v:index="1" v:groupContext="foregroundPage">
    <v:pageProperties v:drawingScale=".039" v:pageScale=".039" v:drawingUnits="24" v:shadowOffsetX="8.504" v:shadowOffsetY="-8.504"/>
    <v:layer v:name="symbols" v:index="0"/>
    <g id="group1095-1" transform="translate(8.428 -6.188)" v:mID="1095" v:groupContext="group" v:layerMember="0">
      <g id="group1096-2" v:mID="1096" v:groupContext="group" v:layerMember="0">
        <g id="shape1097-3" v:mID="1097" v:groupContext="shape" v:layerMember="0">
          <path d="M3.75 74.25C1.65 74.25 0 72.6 0 70.5V50.25c0-1.8 1.28-3.3 3-3.67V27.9l-.75-5.25V13.5h9v9.15l-.75 5.25v18.68c1.73.37 3 1.8 3 3.67V70.5c0 2.1-1.65 3.75-3.75 3.75h-6z" class="st1"/>
        </g>
        <g id="shape1098-5" v:mID="1098" v:groupContext="shape" v:layerMember="0" transform="translate(2.25 -2.25)">
          <path d="M7.5 51H6V30l.75-5.25V18h-4.5v6.75L3 30v21H1.58C.75 51 0 51.68 0 52.5v20.25c0 .83.68 1.5 1.5 1.5h6c.83 0 1.5-.67 1.5-1.5V52.5c0-.82-.67-1.5-1.5-1.5z" class="st2"/>
        </g>
      </g>
      <g id="group1099-7" transform="translate(16.425 -.075)" v:mID="1099" v:groupContext="group" v:layerMember="0">
        <g id="shape1100-8" v:mID="1100" v:groupContext="shape" v:layerMember="0">
          <path d="M23.02 16.5c-.89-.9-1.95-1.72-3.15-2.32l-1.12-.6h-2.17v10.8l-3 1.95-3.01-1.95v-10.8H8.4l-1.12.6c-1.28.67-2.33 1.5-3.23 2.32C1.42 19.05 0 22.5 0 26.18c0 3.67 1.42 7.12 3.97 9.67.61.6 1.28 1.28 2.18 1.88V66.9c0 3.98 2.92 7.35 7.5 7.35 1.35 0 3.75-.75 5.1-2.1a7.354 7.354 0 0 0 2.18-5.25V37.8c.75-.52 1.42-1.12 2.17-1.87 2.55-2.63 3.98-6.08 3.98-9.68 0-3.67-1.43-7.12-4.06-9.75z" class="st1"/>
        </g>
        <g id="shape1101-10" v:mID="1101" v:groupContext="shape" v:layerMember="0" transform="translate(1.125 -2.175)">
          <path d="M7.28 38.7v30.45c0 2.78 2.25 5.1 5.09 5.1 2.78 0 5.18-2.32 5.18-5.1V38.7c1.13-.52 1.88-1.27 2.78-2.17 4.5-4.5 4.42-11.78 0-16.2-.83-.83-1.65-1.43-2.63-1.95v9.37l-5.25 3.45-5.25-3.45v-9.37c-.98.52-1.87 1.12-2.7 1.95-4.5 4.5-4.5 11.7 0 16.2.75.75 1.43 1.35 2.18 1.8l.6.37zm5.17 32.48a2.025 2.025 0 1 1 0-4.05 2.025 2.025 0 0 1 0 4.05z" class="st2"/>
        </g>
      </g>
    </g>
  </g>
</svg>
