<svg xmlns="http://www.w3.org/2000/svg" xmlns:v="http://schemas.microsoft.com/visio/2003/SVGExtensions/" width="88.5" height="93" viewBox="0 0 66.375 69.75" color-interpolation-filters="sRGB" fill="none" fill-rule="evenodd" font-size="12" overflow="visible" stroke-linecap="square" stroke-miterlimit="3">
  <v:documentProperties v:langID="4108" v:metric="true" v:viewMarkup="false"/>
  <style>
    .st1,.st2{fill:#fff;stroke:none;stroke-linecap:butt;stroke-width:.75}.st2{fill:#515150}
  </style>
  <g v:mID="0" v:index="1" v:groupContext="foregroundPage">
    <v:pageProperties v:drawingScale=".039" v:pageScale=".039" v:drawingUnits="24" v:shadowOffsetX="8.504" v:shadowOffsetY="-8.504"/>
    <v:layer v:name="symbols" v:index="0"/>
    <g id="group1105-1" transform="translate(2.475 -4.313)" v:mID="1105" v:groupContext="group" v:layerMember="0">
      <g id="group1106-2" transform="translate(0 -4.5)" v:mID="1106" v:groupContext="group" v:layerMember="0">
        <g id="shape1107-3" v:mID="1107" v:groupContext="shape" v:layerMember="0">
          <path d="M8.17 69.75h31.21c4.64-.37 8.25-4.27 8.24-8.92V32.25H48.98c4.27-.15 7.64-3.6 7.64-7.87 0-4.28-3.45-7.8-7.72-7.88H16.87c-4.94 0-8.99 4.05-9 9v27.75C3.52 53.48 0 57.08 0 61.5c0 4.28 3.3 7.8 7.5 8.18l.67.07z" class="st1"/>
        </g>
        <g id="shape1108-5" v:mID="1108" v:groupContext="shape" v:layerMember="0" transform="translate(47.625 -39.375)">
          <path d="M6.23 60.45H3.9a3.88 3.88 0 0 0-3.9 3.9v5.4h.82c3.46 0 6.23-2.77 6.23-6.22 0-1.13-.3-2.18-.82-3.08z" class="st2"/>
        </g>
        <g id="shape1109-7" v:mID="1109" v:groupContext="shape" v:layerMember="0" transform="translate(10.125 -2.175)">
          <path d="M35.25 26.78c.15-2.85 2.32-5.25 5.17-5.63h.08c-.45-.15-.98-.15-1.43-.15h-.3H6.75C3 21 0 24 0 27.75v27.68h25.5c1.05 0 1.88.9 1.88 1.95 0 .75-.46 1.05-.46 1.05-1.94.97-3.3 3-3.3 5.32 0 3.23 2.56 5.85 5.78 6 3.3-.45 5.85-3.22 5.92-6.67v-36.3h-.07z" class="st2"/>
        </g>
        <g id="shape1110-9" v:mID="1110" v:groupContext="shape" v:layerMember="0" transform="translate(2.175 -2.25)">
          <path d="M31.87 69.75a8.217 8.217 0 0 1-2.55-6c0-2.32.98-4.42 2.55-6H6c-3.3 0-6 2.7-6 6s2.7 6 6 6h25.87z" class="st2"/>
        </g>
      </g>
      <g id="group1111-11" transform="translate(28.125)" v:mID="1111" v:groupContext="group" v:layerMember="0">
        <g id="shape1112-12" v:mID="1112" v:groupContext="shape" v:layerMember="0">
          <path d="M16.13 69.75C7.2 69.75 0 62.55 0 53.63 0 44.7 7.2 37.5 16.13 37.5c8.92 0 16.12 7.2 16.12 16.13 0 8.92-7.2 16.12-16.12 16.12z" class="st1"/>
        </g>
        <g id="shape1113-14" v:mID="1113" v:groupContext="shape" v:layerMember="0" transform="translate(2.25 -2.25)">
          <path d="M13.88 42C6.22 42 0 48.23 0 55.88s6.22 13.87 13.88 13.87c7.65 0 13.87-6.22 13.87-13.87 0-7.65-6.22-13.88-13.87-13.88zm8.69 8.18L11.92 63.75 5.4 56.33c-.15-.23-.15-.53 0-.68l1.73-1.57c.14-.15.44-.15.67.07l4.12 4.5L19.95 48c.15-.22.45-.22.67-.07l1.81 1.5c.3.22.3.52.14.75z" class="st2"/>
        </g>
      </g>
    </g>
  </g>
</svg>
