<svg xmlns="http://www.w3.org/2000/svg" xmlns:v="http://schemas.microsoft.com/visio/2003/SVGExtensions/" width="97.125" height="79.5" viewBox="0 0 72.844 59.625" color-interpolation-filters="sRGB" fill="none" fill-rule="evenodd" font-size="12" overflow="visible" stroke-linecap="square" stroke-miterlimit="3">
  <v:documentProperties v:langID="4108" v:metric="true" v:viewMarkup="false"/>
  <style>
    .st2{fill:#515150;stroke:none;stroke-linecap:butt;stroke-width:.75}
  </style>
  <g v:mID="0" v:index="1" v:groupContext="foregroundPage">
    <v:pageProperties v:drawingScale=".039" v:pageScale=".039" v:drawingUnits="24" v:shadowOffsetX="8.504" v:shadowOffsetY="-8.504"/>
    <v:layer v:name="symbols" v:index="0"/>
    <g id="group1132-1" transform="translate(7.547 -7.313)" v:mID="1132" v:groupContext="group" v:layerMember="0">
      <g id="group1133-2" v:mID="1133" v:groupContext="group" v:layerMember="0">
        <g id="shape1134-3" v:mID="1134" v:groupContext="shape" v:layerMember="0">
          <path d="M5.25 59.62C2.32 59.62 0 57.3 0 54.37V19.88a5.22 5.22 0 0 1 5.25-5.26H52.5c2.92.01 5.25 2.33 5.25 5.26v34.49c0 2.93-2.33 5.25-5.25 5.25H5.25z" fill="#fff" stroke-linecap="butt" stroke-width=".75"/>
        </g>
        <g id="shape1135-5" v:mID="1135" v:groupContext="shape" v:layerMember="0" transform="translate(2.25 -2.25)">
          <path d="M50.25 19.12H3c-1.65.01-3 1.35-3 3v34.5c0 1.66 1.35 3 3 3h47.25c1.65 0 3-1.34 3-3v-34.5c0-1.65-1.35-2.99-3-3zm-6 2.26h2.25v2.24h-2.25v-2.24zm-4.5 0H42v2.24h-2.25v-2.24zM51 56.62c0 .45-.3.75-.75.75H3c-.45 0-.75-.3-.75-.75V26.63H51v29.99zm0-33h-2.25v-2.24H51v2.24z" class="st2"/>
        </g>
      </g>
      <g id="shape1136-7" v:mID="1136" v:groupContext="shape" v:layerMember="0" transform="translate(3.75 -25.5)">
        <path class="st2" d="M0 57.375h50.25v2.25H0z"/>
      </g>
      <g id="shape1137-9" v:mID="1137" v:groupContext="shape" v:layerMember="0" transform="translate(18 -3.75)">
        <path class="st2" d="M0 37.125h2.25v22.5H0z"/>
      </g>
      <g id="shape1138-11" v:mID="1138" v:groupContext="shape" v:layerMember="0" transform="translate(8.25 -30)">
        <path class="st2" d="M0 56.625h3v3H0z"/>
      </g>
      <g id="shape1139-13" v:mID="1139" v:groupContext="shape" v:layerMember="0" transform="translate(14.25 -30)">
        <path class="st2" d="M0 56.625h3v3H0z"/>
      </g>
      <g id="shape1140-15" v:mID="1140" v:groupContext="shape" v:layerMember="0" transform="translate(20.25 -30)">
        <path class="st2" d="M0 56.625h3v3H0z"/>
      </g>
      <g id="shape1141-17" v:mID="1141" v:groupContext="shape" v:layerMember="0" transform="translate(26.25 -30)">
        <path class="st2" d="M0 56.625h3v3H0z"/>
      </g>
      <g id="shape1142-19" v:mID="1142" v:groupContext="shape" v:layerMember="0" transform="translate(32.25 -30)">
        <path class="st2" d="M0 56.625h3v3H0z"/>
      </g>
      <g id="group1143-21" transform="translate(6.75 -7.5)" v:mID="1143" v:groupContext="group" v:layerMember="0">
        <g id="shape1144-22" v:mID="1144" v:groupContext="shape" v:layerMember="0" transform="translate(0 -13.5)">
          <path class="st2" d="M0 58.125h8.25v1.5H0z"/>
        </g>
        <g id="shape1145-24" v:mID="1145" v:groupContext="shape" v:layerMember="0" transform="translate(3 -9)">
          <path class="st2" d="M0 58.125h5.25v1.5H0z"/>
        </g>
        <g id="shape1146-26" v:mID="1146" v:groupContext="shape" v:layerMember="0" transform="translate(3 -4.5)">
          <path class="st2" d="M0 58.125h5.25v1.5H0z"/>
        </g>
        <g id="shape1147-28" v:mID="1147" v:groupContext="shape" v:layerMember="0">
          <path class="st2" d="M0 58.125h8.25v1.5H0z"/>
        </g>
      </g>
    </g>
  </g>
</svg>
