<svg xmlns="http://www.w3.org/2000/svg" xmlns:v="http://schemas.microsoft.com/visio/2003/SVGExtensions/" width="88.5" height="97.5" viewBox="0 0 66.375 73.125" color-interpolation-filters="sRGB" fill="none" fill-rule="evenodd" font-size="12" overflow="visible" stroke-linecap="square" stroke-miterlimit="3">
  <v:documentProperties v:langID="4108" v:metric="true" v:viewMarkup="false"/>
  <style>
    .st2,.st3{fill:#9b9b9b;stroke:none;stroke-linecap:butt;stroke-width:.75}.st3{fill:#cccbcb}
  </style>
  <g v:mID="0" v:index="1" v:groupContext="foregroundPage">
    <v:pageProperties v:drawingScale=".039" v:pageScale=".039" v:drawingUnits="24" v:shadowOffsetX="8.504" v:shadowOffsetY="-8.504"/>
    <v:layer v:name="symbols" v:index="0"/>
    <g id="group1172-1" transform="translate(8.203 -7.688)" v:mID="1172" v:groupContext="group" v:layerMember="0">
      <g id="group1173-2" v:mID="1173" v:groupContext="group" v:layerMember="0">
        <g id="group1174-3" v:mID="1174" v:groupContext="group" v:layerMember="0">
          <g id="shape1175-4" v:mID="1175" v:groupContext="shape" v:layerMember="0">
            <path d="M25.12 73.13l25.13-14.55V29.93L25.12 15.38 0 29.85v28.73l25.12 14.55z" fill="#fff" stroke-linecap="butt" stroke-width=".75"/>
          </g>
          <g id="shape1176-6" v:mID="1176" v:groupContext="shape" v:layerMember="0" transform="translate(4.05 -30.75)">
            <path d="M0 60.9l21.08-12.22L42.07 60.9 21.08 73.13 0 60.9z" class="st2"/>
          </g>
          <g id="shape1177-8" v:mID="1177" v:groupContext="shape" v:layerMember="0" transform="translate(2.25 -3.225)">
            <path d="M0 60.53V35.25l21.75 12.6v25.28L0 60.53z" class="st2"/>
          </g>
          <g id="shape1178-10" v:mID="1178" v:groupContext="shape" v:layerMember="0" transform="translate(26.25 -3.225)">
            <path d="M0 47.7l21.75-12.6v25.43L0 73.13V47.7z" class="st2"/>
          </g>
        </g>
        <g id="group1179-12" transform="translate(2.25 -3.225)" v:mID="1179" v:groupContext="group" v:layerMember="0">
          <g id="shape1180-13" v:mID="1180" v:groupContext="shape" v:layerMember="0" transform="translate(1.8 -39.675)">
            <path d="M.07 73.13l.3-.3-.37.22.07.08z" class="st3"/>
          </g>
          <g id="shape1181-15" v:mID="1181" v:groupContext="shape" v:layerMember="0" transform="translate(0 -37.725)">
            <path d="M.08 73.05L0 72.98v.15l.08-.08z" class="st3"/>
          </g>
          <g id="shape1182-17" v:mID="1182" v:groupContext="shape" v:layerMember="0" transform="translate(3.375 -38.025)">
            <path d="M1.35 73.13l7.88-8.03-4.95 2.93L0 72.3l1.35.83z" class="st3"/>
          </g>
          <g id="shape1183-19" v:mID="1183" v:groupContext="shape" v:layerMember="0" transform="translate(0 -33.225)">
            <path d="M2.92 70.13l-1.35-.75L0 70.95v2.18l2.92-3z" class="st3"/>
          </g>
          <g id="shape1184-21" v:mID="1184" v:groupContext="shape" v:layerMember="0" transform="translate(6.225 -36.375)">
            <path d="M1.35 73.13L16.72 57.6l-.07-.07-4.65 2.7L0 72.3l1.35.83z" class="st3"/>
          </g>
          <g id="shape1185-23" v:mID="1185" v:groupContext="shape" v:layerMember="0" transform="translate(0 -28.725)">
            <path d="M4.42 66.53L0 70.95v2.18l5.77-5.85-1.35-.75z" class="st3"/>
          </g>
          <g id="shape1186-25" v:mID="1186" v:groupContext="shape" v:layerMember="0" transform="translate(9.075 -34.725)">
            <path d="M1.35 73.13L16.72 57.6l-1.35-.82L0 72.3l1.35.83z" class="st3"/>
          </g>
          <g id="shape1187-27" v:mID="1187" v:groupContext="shape" v:layerMember="0" transform="translate(0 -24.225)">
            <path d="M8.55 64.43l-1.35-.75L0 70.95v2.18l8.55-8.7z" class="st3"/>
          </g>
          <g id="shape1188-29" v:mID="1188" v:groupContext="shape" v:layerMember="0" transform="translate(11.925 -33.075)">
            <path d="M0 72.3l1.35.83L16.72 57.6l-1.35-.82L0 72.3z" class="st3"/>
          </g>
          <g id="shape1189-31" v:mID="1189" v:groupContext="shape" v:layerMember="0" transform="translate(0 -19.725)">
            <path d="M10.05 60.83L0 70.95v2.18l11.4-11.55-1.35-.75z" class="st3"/>
          </g>
          <g id="shape1190-33" v:mID="1190" v:groupContext="shape" v:layerMember="0" transform="translate(14.775 -31.425)">
            <path d="M1.35 73.13L16.72 57.6l-1.35-.82L0 72.3l1.35.83z" class="st3"/>
          </g>
          <g id="shape1191-35" v:mID="1191" v:groupContext="shape" v:layerMember="0" transform="translate(0 -15.225)">
            <path d="M14.25 58.73l-1.35-.75L0 70.95v2.18l14.25-14.4z" class="st3"/>
          </g>
          <g id="shape1192-37" v:mID="1192" v:groupContext="shape" v:layerMember="0" transform="translate(17.625 -29.775)">
            <path d="M0 72.3l1.27.83L16.72 57.6l-1.35-.75L0 72.3z" class="st3"/>
          </g>
          <g id="shape1193-39" v:mID="1193" v:groupContext="shape" v:layerMember="0" transform="translate(0 -11.925)">
            <path d="M15.75 56.33L0 72.15v.3l1.2.68 15.9-16.05-1.35-.75z" class="st3"/>
          </g>
          <g id="shape1194-41" v:mID="1194" v:groupContext="shape" v:layerMember="0" transform="translate(20.475 -28.125)">
            <path d="M0 72.3l1.27.83L16.72 57.6l-1.35-.75L0 72.3z" class="st3"/>
          </g>
          <g id="shape1195-43" v:mID="1195" v:groupContext="shape" v:layerMember="0" transform="translate(2.7 -10.275)">
            <path d="M15.9 56.33L0 72.38l1.35.75 15.9-16.05-1.35-.75z" class="st3"/>
          </g>
          <g id="shape1196-45" v:mID="1196" v:groupContext="shape" v:layerMember="0" transform="translate(5.475 -8.625)">
            <path d="M16.27 58.13v-1.65l-.3-.15L0 72.38l1.35.75 14.92-15z" class="st3"/>
          </g>
          <g id="shape1197-47" v:mID="1197" v:groupContext="shape" v:layerMember="0" transform="translate(24.375 -28.425)">
            <path d="M5.03 70.2l10.64-10.65-1.35-.75L0 73.13l5.03-2.93z" class="st3"/>
          </g>
          <g id="shape1198-49" v:mID="1198" v:groupContext="shape" v:layerMember="0" transform="translate(35.1 -34.65)">
            <path d="M0 73.13l5.03-2.93 2.77-2.77-1.35-.75L0 73.13z" class="st3"/>
          </g>
          <g id="shape1199-51" v:mID="1199" v:groupContext="shape" v:layerMember="0" transform="translate(8.325 -6.975)">
            <path d="M1.35 73.13l12.08-12.15v-2.1L0 72.38l1.35.75z" class="st3"/>
          </g>
          <g id="shape1200-53" v:mID="1200" v:groupContext="shape" v:layerMember="0" transform="translate(24 -21.375)">
            <path d="M9.53 63.53L4.5 66.45 0 71.03v2.1l9.53-9.6z" class="st3"/>
          </g>
          <g id="shape1201-55" v:mID="1201" v:groupContext="shape" v:layerMember="0" transform="translate(11.175 -5.325)">
            <path d="M10.58 61.73L0 72.3l1.35.83 9.23-9.3v-2.1z" class="st3"/>
          </g>
          <g id="shape1202-57" v:mID="1202" v:groupContext="shape" v:layerMember="0" transform="translate(24 -16.875)">
            <path d="M15.07 55.8L0 71.03v2.1l20.1-20.18-5.03 2.85z" class="st3"/>
          </g>
          <g id="shape1203-59" v:mID="1203" v:groupContext="shape" v:layerMember="0" transform="translate(24 -12.375)">
            <path d="M21.75 51.3v-2.17L0 71.03v2.1L21.75 51.3z" class="st3"/>
          </g>
          <g id="shape1204-61" v:mID="1204" v:groupContext="shape" v:layerMember="0" transform="translate(14.025 -3.675)">
            <path d="M7.72 66.68v-2.1L0 72.3l1.35.83 6.37-6.45z" class="st3"/>
          </g>
          <g id="shape1205-63" v:mID="1205" v:groupContext="shape" v:layerMember="0" transform="translate(17.1 -1.95)">
            <path d="M4.65 67.65L0 72.38l1.35.75 3.3-3.38v-2.1z" class="st3"/>
          </g>
          <g id="shape1206-65" v:mID="1206" v:groupContext="shape" v:layerMember="0" transform="translate(24 -7.575)">
            <path d="M0 70.95v2.18l21.75-22.05v-2.1L0 70.95z" class="st3"/>
          </g>
          <g id="shape1207-67" v:mID="1207" v:groupContext="shape" v:layerMember="0" transform="translate(19.875 -.3)">
            <path d="M1.87 72.6v-2.1L0 72.38l1.35.75.52-.53z" class="st3"/>
          </g>
          <g id="shape1208-69" v:mID="1208" v:groupContext="shape" v:layerMember="0" transform="translate(24 -3.075)">
            <path d="M0 73.13l21.75-22.05v-2.1L0 70.95v2.18z" class="st3"/>
          </g>
          <g id="shape1209-71" v:mID="1209" v:groupContext="shape" v:layerMember="0" transform="translate(24)">
            <path d="M21.75 50.4L0 72.45v.68l3.45-1.95 18.3-18.6V50.4z" class="st3"/>
          </g>
          <g id="shape1210-73" v:mID="1210" v:groupContext="shape" v:layerMember="0" transform="translate(33 -5.25)">
            <path d="M12.75 62.33v-2.1L0 73.13l4.95-2.78 7.8-8.02z" class="st3"/>
          </g>
          <g id="shape1211-75" v:mID="1211" v:groupContext="shape" v:layerMember="0" transform="translate(43.5 -11.25)">
            <path d="M0 73.13l2.25-1.35v-.98L0 73.13z" class="st3"/>
          </g>
        </g>
      </g>
    </g>
  </g>
</svg>
