<svg xmlns="http://www.w3.org/2000/svg" xmlns:v="http://schemas.microsoft.com/visio/2003/SVGExtensions/" width="106.5" height="79.6" viewBox="0 0 79.875 59.7" color-interpolation-filters="sRGB" fill="none" fill-rule="evenodd" font-size="12" overflow="visible" stroke-linecap="square" stroke-miterlimit="3">
  <v:documentProperties v:langID="4108" v:metric="true" v:viewMarkup="false"/>
  <style>
    .st1,.st2{fill:#fff;stroke:none;stroke-linecap:butt;stroke-width:.75}.st2{fill:#515150}
  </style>
  <g v:mID="0" v:index="1" v:groupContext="foregroundPage">
    <v:pageProperties v:drawingScale=".039" v:pageScale=".039" v:drawingUnits="24" v:shadowOffsetX="8.504" v:shadowOffsetY="-8.504"/>
    <v:layer v:name="symbols" v:index="0"/>
    <g id="group1230-1" transform="translate(8.738 -.75)" v:mID="1230" v:groupContext="group" v:layerMember="0">
      <g id="group1231-2" v:mID="1231" v:groupContext="group" v:layerMember="0">
        <g id="group1232-3" transform="translate(0 -12.525)" v:mID="1232" v:groupContext="group" v:layerMember="0">
          <g id="shape1233-4" v:mID="1233" v:groupContext="shape" v:layerMember="0">
            <path class="st1" d="M0 20.7h49.5v39H0z"/>
          </g>
          <g id="shape1234-6" v:mID="1234" v:groupContext="shape" v:layerMember="0" transform="translate(2.25 -16.425)">
            <path d="M0 43.73L20.25 58.8c1.27.9 3.23.9 4.5 0L45 43.73v-4.35H0v4.35z" class="st2"/>
          </g>
          <g id="shape1235-8" v:mID="1235" v:groupContext="shape" v:layerMember="0" transform="translate(2.25 -2.25)">
            <path d="M45 32.33l-18.9 14.1c-.98.75-2.25 1.12-3.6 1.12s-2.62-.37-3.6-1.12L0 32.33V59.7h45V32.33z" class="st2"/>
          </g>
        </g>
        <g id="group1236-10" transform="translate(34.425)" v:mID="1236" v:groupContext="group" v:layerMember="0">
          <g id="group1237-11" v:mID="1237" v:groupContext="group" v:layerMember="0">
            <g id="shape1238-12" v:mID="1238" v:groupContext="shape" v:layerMember="0">
              <path d="M14.55 59.7c-1.12 0-2.32-.37-3.22-1.05C4.42 53.25.45 45.68.08 36.68 0 34.73 1.13 32.93 2.85 32.4c2.85-.97 5.33-1.95 8.48-5.47.82-.9 1.95-1.43 3.22-1.43 1.28 0 2.48.53 3.23 1.5 2.85 3.45 5.55 4.43 8.47 5.48 1.73.6 2.85 2.4 2.78 4.27-.38 9-4.28 16.58-11.33 21.98-.82.6-1.95.97-3.15.97z" class="st1"/>
            </g>
            <g id="shape1239-14" v:mID="1239" v:groupContext="shape" v:layerMember="0" transform="translate(2.325 -1.95)">
              <path d="M10.73 30.3c-3.46 3.9-6.3 5.1-9.45 6.15-.83.3-1.28 1.2-1.28 2.1.38 8.85 4.43 15.68 10.43 20.33 1.05.82 2.62.82 3.67 0 6-4.65 10.05-11.4 10.43-20.33.07-.82-.38-1.8-1.28-2.1-3.15-1.12-6.22-2.25-9.45-6.15-.75-.9-2.32-.9-3.07 0z" class="st2"/>
            </g>
          </g>
          <g id="shape1240-16" v:mID="1240" v:groupContext="shape" v:layerMember="0" transform="translate(9.45 -12.3)">
            <path d="M9.9 57.9l-1.8 1.8-3.15-3.15L1.8 59.7 0 57.9l3.15-3.15L0 51.6l1.8-1.8 3.15 3.15L8.1 49.8l1.8 1.8-3.15 3.15L9.9 57.9z" class="st1"/>
          </g>
        </g>
      </g>
    </g>
  </g>
</svg>
