<svg xmlns="http://www.w3.org/2000/svg" xmlns:v="http://schemas.microsoft.com/visio/2003/SVGExtensions/" width="69" height="90" viewBox="0 0 51.75 67.5" color-interpolation-filters="sRGB" fill="none" fill-rule="evenodd" font-size="12" overflow="visible" stroke-linecap="square" stroke-miterlimit="3">
  <v:documentProperties v:langID="4108" v:metric="true" v:viewMarkup="false"/>
  <g v:mID="0" v:index="1" v:groupContext="foregroundPage">
    <v:pageProperties v:drawingScale=".039" v:pageScale=".039" v:drawingUnits="24" v:shadowOffsetX="8.504" v:shadowOffsetY="-8.504"/>
    <v:layer v:name="symbols" v:index="0"/>
    <g transform="translate(11.878 -10.012)" v:mID="1241" v:groupContext="group" v:layerMember="0">
      <g v:mID="1242" v:groupContext="group" v:layerMember="0">
        <g v:mID="1243" v:groupContext="shape" v:layerMember="0">
          <path d="M12.08 66.3c-.76-1.57-1.5-5.4-2.18-15.82H0v-2.25c0-4.5 2.7-8.63 6.75-10.58v-9.07c-2.77-1.65-4.5-4.35-4.5-7.43V18.9h24v2.25c0 3-1.73 5.78-4.5 7.43v9.07c4.05 1.95 6.75 6.08 6.75 10.58v2.25h-9.9c-.75 10.5-1.42 14.32-2.18 15.82-.37.75-1.12 1.2-1.94 1.2h-.46c-.82 0-1.57-.45-1.94-1.2z" fill="#fff" stroke-linecap="butt" stroke-width=".75"/>
        </g>
        <g v:mID="1244" v:groupContext="shape" v:layerMember="0" transform="translate(2.25 -2.025)">
          <path d="M12 67.5c-.68-.3-1.58-6.75-2.25-17.25H0c0-4.12 2.92-7.87 6.75-9.07V29.25c-2.4-.97-4.5-3.15-4.5-6h19.5c0 2.85-2.1 5.03-4.5 6v11.93c3.82 1.2 6.75 4.87 6.75 9.07h-9.75C13.57 60.75 12.67 67.2 12 67.5z" fill="#515050" stroke-linecap="butt" stroke-width=".75"/>
        </g>
      </g>
    </g>
  </g>
</svg>
