<svg xmlns="http://www.w3.org/2000/svg" xmlns:v="http://schemas.microsoft.com/visio/2003/SVGExtensions/" width="104.7" height="88.5" viewBox="0 0 78.525 66.375" color-interpolation-filters="sRGB" fill="none" fill-rule="evenodd" font-size="12" overflow="visible" stroke-linecap="square" stroke-miterlimit="3">
  <v:documentProperties v:langID="4108" v:metric="true" v:viewMarkup="false"/>
  <style>
    .st1,.st2{fill:#fff;stroke:none;stroke-linecap:butt;stroke-width:.75}.st2{fill:#505150}
  </style>
  <g v:mID="0" v:index="1" v:groupContext="foregroundPage">
    <v:pageProperties v:drawingScale=".039" v:pageScale=".039" v:drawingUnits="24" v:shadowOffsetX="8.504" v:shadowOffsetY="-8.504"/>
    <v:layer v:name="symbols" v:index="0"/>
    <g id="group1245-1" transform="translate(11.063 -8.063)" v:mID="1245" v:groupContext="group" v:layerMember="0">
      <g id="group1246-2" v:mID="1246" v:groupContext="group" v:layerMember="0">
        <g id="shape1247-3" v:mID="1247" v:groupContext="shape" v:layerMember="0" transform="translate(42.75 -29.625)">
          <path d="M16.5 44.55C15.6 41.02 12.38 39 7.95 39c-2.47 0-5.02.67-6.9 1.8L0 41.4v8.1h3.23l.52-.45c1.05-.9 2.33-1.5 3.45-1.5h.15s0 .15-.07.3c-.23.45-.75.9-1.35 1.42-.6.53-1.28 1.13-1.88 1.88-1.43 1.95-1.8 4.72-.9 7.05l.23.52c-.6.83-.98 1.8-.98 2.85 0 2.7 2.25 4.8 5.1 4.8 2.85 0 5.1-2.1 5.1-4.8 0-.67-.15-1.35-.45-1.95l-.97-3.45c.07-.07.07-.15.07-.15 0-.45 1.28-1.5 1.8-2.02.38-.3.75-.6.98-.9 2.4-2.33 3.3-5.48 2.47-8.55z" class="st1"/>
        </g>
        <g id="group1248-5" v:mID="1248" v:groupContext="group" v:layerMember="0">
          <g id="shape1249-6" v:mID="1249" v:groupContext="shape" v:layerMember="0">
            <path d="M0 66.37V12.38h19.5v14.25-5.25h2.25v-5.93h6.75v5.93h2.25v5.25H33v5.25h2.25v34.49H0z" class="st1"/>
          </g>
          <g id="shape1250-8" v:mID="1250" v:groupContext="shape" v:layerMember="0" transform="translate(12.825)">
            <path d="M8.7 66.37L7.28 66C3 64.8 0 60.83 0 56.18c0-3.01 1.28-5.78 3.38-7.65.37-6 5.24-10.8 11.1-10.8.59 0 1.27.07 1.87.15 2.1-2.4 5.1-3.75 8.25-3.75 4.95 0 9.23 3.3 10.8 8.1 1.88.37 3.53 1.27 4.88 2.62 5.17.6 9.15 5.17 9.15 10.73 0 5.92-4.58 10.79-10.28 10.79H8.7z" class="st1"/>
          </g>
          <g id="shape1251-10" v:mID="1251" v:groupContext="shape" v:layerMember="0" transform="translate(15.075 -2.25)">
            <path d="M36.9 66.37H6.75l-1.13-.3C2.32 65.18 0 62.02 0 58.42c0-2.69 1.27-5.1 3.37-6.52v-.3c0-5.18 3.98-9.38 8.85-9.38.91 0 1.88.15 2.78.45 1.72-2.55 4.43-4.05 7.35-4.05 4.42 0 8.17 3.38 9 7.95a7.22 7.22 0 0 1 5.62 2.78c4.43 0 7.95 3.82 7.95 8.47 0 4.66-3.59 8.55-8.02 8.55z" class="st2"/>
          </g>
          <g id="shape1252-12" v:mID="1252" v:groupContext="shape" v:layerMember="0" transform="translate(17.4 -4.5)">
            <path d="M4.73 66.37l-.83-.22C1.58 65.55 0 63.3 0 60.67c0-1.95.9-3.67 2.4-4.72l1.05-.68L3.38 54v-.23c0-3.9 2.92-7.12 6.6-7.12.67 0 1.34.15 2.02.37l1.65.6.98-1.42c1.27-1.95 3.37-3.08 5.47-3.08 3.3 0 6.15 2.55 6.75 6.08l.3 1.87h1.88c1.5 0 2.92.68 3.9 1.95l.67.83h1.05c3.15 0 5.7 2.85 5.7 6.22 0 3.45-2.62 6.3-5.77 6.3H4.73z" class="st1"/>
          </g>
          <g id="shape1253-14" v:mID="1253" v:groupContext="shape" v:layerMember="0" transform="translate(2.25 -2.25)">
            <path d="M28.5 36.37v-5.25h-2.25v-5.25H24v-5.92h-2.25v5.92H19.5v5.25h-2.25v5.25H15v-19.5H0v49.5h30.75v-30H28.5z" class="st2"/>
          </g>
          <g id="group1254-16" transform="translate(5.25 -15)" v:mID="1254" v:groupContext="group" v:layerMember="0">
            <g id="group1255-17" transform="translate(0 -30)" v:mID="1255" v:groupContext="group" v:layerMember="0">
              <g id="shape1256-18" v:mID="1256" v:groupContext="shape" v:layerMember="0">
                <path class="st1" d="M0 63.375h3v3H0z"/>
              </g>
              <g id="shape1257-20" v:mID="1257" v:groupContext="shape" v:layerMember="0" transform="translate(6)">
                <path class="st1" d="M0 63.375h3v3H0z"/>
              </g>
            </g>
            <g id="group1258-22" transform="translate(0 -24)" v:mID="1258" v:groupContext="group" v:layerMember="0">
              <g id="shape1259-23" v:mID="1259" v:groupContext="shape" v:layerMember="0">
                <path class="st1" d="M0 63.375h3v3H0z"/>
              </g>
              <g id="shape1260-25" v:mID="1260" v:groupContext="shape" v:layerMember="0" transform="translate(6)">
                <path class="st1" d="M0 63.375h3v3H0z"/>
              </g>
            </g>
            <g id="group1261-27" transform="translate(0 -18)" v:mID="1261" v:groupContext="group" v:layerMember="0">
              <g id="shape1262-28" v:mID="1262" v:groupContext="shape" v:layerMember="0">
                <path class="st1" d="M0 63.375h3v3H0z"/>
              </g>
              <g id="shape1263-30" v:mID="1263" v:groupContext="shape" v:layerMember="0" transform="translate(6)">
                <path class="st1" d="M0 63.375h3v3H0z"/>
              </g>
            </g>
            <g id="group1264-32" transform="translate(0 -12)" v:mID="1264" v:groupContext="group" v:layerMember="0">
              <g id="shape1265-33" v:mID="1265" v:groupContext="shape" v:layerMember="0">
                <path class="st1" d="M0 63.375h3v3H0z"/>
              </g>
              <g id="shape1266-35" v:mID="1266" v:groupContext="shape" v:layerMember="0" transform="translate(6)">
                <path class="st1" d="M0 63.375h3v3H0z"/>
              </g>
            </g>
            <g id="group1267-37" transform="translate(0 -6)" v:mID="1267" v:groupContext="group" v:layerMember="0">
              <g id="shape1268-38" v:mID="1268" v:groupContext="shape" v:layerMember="0">
                <path class="st1" d="M0 63.375h3v3H0z"/>
              </g>
              <g id="shape1269-40" v:mID="1269" v:groupContext="shape" v:layerMember="0" transform="translate(6)">
                <path class="st1" d="M0 63.375h3v3H0z"/>
              </g>
            </g>
            <g id="group1270-42" v:mID="1270" v:groupContext="group" v:layerMember="0">
              <g id="shape1271-43" v:mID="1271" v:groupContext="shape" v:layerMember="0">
                <path class="st1" d="M0 63.375h3v3H0z"/>
              </g>
              <g id="shape1272-45" v:mID="1272" v:groupContext="shape" v:layerMember="0" transform="translate(6)">
                <path class="st1" d="M0 63.375h3v3H0z"/>
              </g>
            </g>
          </g>
          <g id="group1273-47" transform="translate(21 -17.25)" v:mID="1273" v:groupContext="group" v:layerMember="0">
            <g id="shape1274-48" v:mID="1274" v:groupContext="shape" v:layerMember="0" transform="translate(0 -9.75)">
              <path class="st1" d="M0 63.375h3v3H0z"/>
            </g>
            <g id="shape1275-50" v:mID="1275" v:groupContext="shape" v:layerMember="0" transform="translate(5.25 -5.25)">
              <path class="st1" d="M0 63.375h3v3H0z"/>
            </g>
            <g id="shape1276-52" v:mID="1276" v:groupContext="shape" v:layerMember="0">
              <path class="st1" d="M0 63.375h3v3H0z"/>
            </g>
          </g>
        </g>
        <g id="shape1277-54" v:mID="1277" v:groupContext="shape" v:layerMember="0" transform="translate(45.075 -31.8)">
          <path d="M3.07 59.55c-.59-1.58-.37-3.53.6-4.88.98-1.35 2.78-2.17 3.45-3.75.75-1.72-.3-3.45-2.17-3.45-1.87 0-3.6.83-4.95 2.03v-4.65c3.52-2.1 10.8-2.48 12.07 2.47.68 2.4-.15 4.73-1.87 6.38-1.5 1.42-4.73 3.37-3.08 5.92-1.35-.07-2.7-.07-4.05-.07zm2.25 6.82c-1.42 0-2.84-.97-2.85-2.55.01-1.57 1.43-2.55 2.85-2.55 1.43 0 2.85.98 2.85 2.55-.07 1.58-1.35 2.55-2.85 2.55z" class="st2"/>
        </g>
      </g>
    </g>
  </g>
</svg>
