<svg xmlns="http://www.w3.org/2000/svg" xmlns:v="http://schemas.microsoft.com/visio/2003/SVGExtensions/" width="97.125" height="97.5" viewBox="0 0 72.844 73.125" color-interpolation-filters="sRGB" fill="none" fill-rule="evenodd" font-size="12" overflow="visible" stroke-linecap="square" stroke-miterlimit="3">
  <v:documentProperties v:langID="4108" v:metric="true" v:viewMarkup="false"/>
  <style>
    .st1,.st3{fill:#fff;stroke:none;stroke-linecap:butt;stroke-width:.75}.st3{fill:#515050}
  </style>
  <g v:mID="0" v:index="1" v:groupContext="foregroundPage">
    <v:pageProperties v:drawingScale=".039" v:pageScale=".039" v:drawingUnits="24" v:shadowOffsetX="8.504" v:shadowOffsetY="-8.504"/>
    <v:layer v:name="symbols" v:index="0"/>
    <g id="group1278-1" transform="translate(9.131 -9.563)" v:mID="1278" v:groupContext="group" v:layerMember="0">
      <g id="group1279-2" v:mID="1279" v:groupContext="group" v:layerMember="0">
        <g id="group1280-3" v:mID="1280" v:groupContext="group" v:layerMember="0">
          <g id="shape1281-4" v:mID="1281" v:groupContext="shape" v:layerMember="0">
            <path d="M5.25 73.12C2.33 73.12 0 70.8 0 67.87v-43.5c0-2.92 2.33-5.25 5.25-5.25H49.5c2.92 0 5.25 2.33 5.25 5.25v43.5c0 2.93-2.33 5.25-5.25 5.25H5.25z" class="st1"/>
          </g>
          <g id="shape1282-6" v:mID="1282" v:groupContext="shape" v:layerMember="0" transform="translate(2.25 -2.25)">
            <path d="M47.25 23.62H3c-1.65 0-3 1.35-3 3v43.5c0 1.65 1.35 3 3 3h44.25c1.65 0 3-1.35 3-3v-43.5c0-1.65-1.35-3-3-3zm-6 2.25h2.25v2.25h-2.25v-2.25zm-4.5 0H39v2.25h-2.25v-2.25zM48 70.12c0 .45-.3.75-.75.75H3c-.45 0-.75-.3-.75-.75v-39H48v39zm0-42h-2.25v-2.25H48v2.25z" fill="#515150" stroke-linecap="butt" stroke-width=".75"/>
          </g>
        </g>
        <g id="shape1283-8" v:mID="1283" v:groupContext="shape" v:layerMember="0" transform="translate(12 -30.75)">
          <ellipse cx="2.625" cy="70.5" rx="2.625" ry="2.625" class="st3"/>
        </g>
        <g id="group1284-10" transform="translate(12 -21.75)" v:mID="1284" v:groupContext="group" v:layerMember="0">
          <g id="shape1285-11" v:mID="1285" v:groupContext="shape" v:layerMember="0">
            <ellipse cx="2.625" cy="70.5" rx="2.625" ry="2.625" class="st1"/>
          </g>
          <g id="shape1286-13" v:mID="1286" v:groupContext="shape" v:layerMember="0">
            <path d="M2.62 68.62c1.05 0 1.88.83 1.88 1.88 0 1.05-.83 1.87-1.88 1.87-1.05 0-1.87-.82-1.87-1.87 0-1.05.82-1.88 1.87-1.88zm0-.75C1.2 67.87 0 69.07 0 70.5c0 1.42 1.2 2.62 2.62 2.62 1.43 0 2.63-1.2 2.63-2.62 0-1.43-1.2-2.63-2.63-2.63z" class="st3"/>
          </g>
        </g>
        <g id="group1287-15" transform="translate(12 -12.75)" v:mID="1287" v:groupContext="group" v:layerMember="0">
          <g id="shape1288-16" v:mID="1288" v:groupContext="shape" v:layerMember="0">
            <ellipse cx="2.625" cy="70.5" rx="2.625" ry="2.625" class="st1"/>
          </g>
          <g id="shape1289-18" v:mID="1289" v:groupContext="shape" v:layerMember="0">
            <path d="M2.62 68.62c1.05 0 1.88.83 1.88 1.88 0 1.05-.83 1.87-1.88 1.87-1.05 0-1.87-.82-1.87-1.87 0-1.05.82-1.88 1.87-1.88zm0-.75C1.2 67.87 0 69.07 0 70.5c0 1.42 1.2 2.62 2.62 2.62 1.43 0 2.63-1.2 2.63-2.62 0-1.43-1.2-2.63-2.63-2.63z" class="st3"/>
          </g>
        </g>
        <g id="shape1290-20" v:mID="1290" v:groupContext="shape" v:layerMember="0" transform="translate(21 -32.25)">
          <path class="st3" d="M0 70.875h21.75v2.25H0z"/>
        </g>
        <g id="shape1291-22" v:mID="1291" v:groupContext="shape" v:layerMember="0" transform="translate(21 -23.25)">
          <path class="st3" d="M0 70.875h21.75v2.25H0z"/>
        </g>
        <g id="shape1292-24" v:mID="1292" v:groupContext="shape" v:layerMember="0" transform="translate(21 -14.25)">
          <path class="st3" d="M0 70.875h21.75v2.25H0z"/>
        </g>
      </g>
    </g>
  </g>
</svg>
