<svg xmlns="http://www.w3.org/2000/svg" xmlns:v="http://schemas.microsoft.com/visio/2003/SVGExtensions/" width="103.5" height="88.5" viewBox="0 0 77.625 66.375" color-interpolation-filters="sRGB" fill="none" fill-rule="evenodd" font-size="12" overflow="visible" stroke-linecap="square" stroke-miterlimit="3">
  <v:documentProperties v:langID="4108" v:metric="true" v:viewMarkup="false"/>
  <style>
    .st1,.st2{fill:#fff;stroke:none;stroke-linecap:butt;stroke-width:.75}.st2{fill:#515150}
  </style>
  <g v:mID="0" v:index="1" v:groupContext="foregroundPage">
    <v:pageProperties v:drawingScale=".039" v:pageScale=".039" v:drawingUnits="24" v:shadowOffsetX="8.504" v:shadowOffsetY="-8.504"/>
    <v:layer v:name="symbols" v:index="0"/>
    <g id="group1293-1" transform="translate(11.625 -3.563)" v:mID="1293" v:groupContext="group" v:layerMember="0">
      <g id="group1294-2" v:mID="1294" v:groupContext="group" v:layerMember="0">
        <g id="group1295-3" transform="translate(0 -7.5)" v:mID="1295" v:groupContext="group" v:layerMember="0">
          <g id="group1296-4" v:mID="1296" v:groupContext="group" v:layerMember="0">
            <g id="shape1297-5" v:mID="1297" v:groupContext="shape" v:layerMember="0">
              <path d="M5.25 66.38C2.32 66.38 0 64.05 0 61.13v-34.5c0-2.93 2.32-5.25 5.25-5.25h45c2.92 0 5.25 2.32 5.25 5.25v34.5c0 2.92-2.33 5.25-5.25 5.25h-45z" class="st1"/>
            </g>
            <g id="shape1298-7" v:mID="1298" v:groupContext="shape" v:layerMember="0" transform="translate(2.25 -2.25)">
              <path d="M48 25.88H3c-1.65 0-3 1.35-3 3v34.5c0 1.65 1.35 3 3 3h45c1.65 0 3-1.35 3-3v-34.5c0-1.65-1.35-3-3-3zm-6 2.25h2.25v2.25H42v-2.25zm-4.5 0h2.25v2.25H37.5v-2.25zm11.25 35.25c0 .45-.3.75-.75.75H3c-.45 0-.75-.3-.75-.75v-30h46.5v30zm0-33H46.5v-2.25h2.25v2.25z" class="st2"/>
            </g>
          </g>
          <g id="group1299-9" transform="translate(12 -8.25)" v:mID="1299" v:groupContext="group" v:layerMember="0">
            <g id="group1300-10" v:mID="1300" v:groupContext="group" v:layerMember="0">
              <g id="shape1301-11" v:mID="1301" v:groupContext="shape" v:layerMember="0" transform="translate(10.5 -16.5)">
                <path class="st2" d="M0 59.625h10.5v6.75H0z"/>
              </g>
              <g id="shape1302-13" v:mID="1302" v:groupContext="shape" v:layerMember="0" transform="translate(11.25)">
                <path class="st2" d="M0 60.375h9v6H0z"/>
              </g>
              <g id="shape1303-15" v:mID="1303" v:groupContext="shape" v:layerMember="0" transform="translate(22.5)">
                <path class="st2" d="M0 60.375h9v6H0z"/>
              </g>
              <g id="shape1304-17" v:mID="1304" v:groupContext="shape" v:layerMember="0">
                <path class="st2" d="M0 60.375h9v6H0z"/>
              </g>
              <g id="shape1305-19" v:mID="1305" v:groupContext="shape" v:layerMember="0" transform="translate(15 -6)">
                <path class="st2" d="M0 55.125h1.5v11.25H0z"/>
              </g>
              <g id="shape1306-21" v:mID="1306" v:groupContext="shape" v:layerMember="0" transform="translate(4.5 -10.5)">
                <path class="st2" d="M0 64.875h22.5v1.5H0z"/>
              </g>
            </g>
            <g id="shape1307-23" v:mID="1307" v:groupContext="shape" v:layerMember="0" transform="translate(3.75 -5.25)">
              <path class="st2" d="M0 59.625h1.5v6.75H0z"/>
            </g>
            <g id="shape1308-25" v:mID="1308" v:groupContext="shape" v:layerMember="0" transform="translate(26.25 -5.25)">
              <path class="st2" d="M0 59.625h1.5v6.75H0z"/>
            </g>
          </g>
        </g>
        <g id="group1309-27" transform="translate(29.25)" v:mID="1309" v:groupContext="group" v:layerMember="0">
          <g id="shape1310-28" v:mID="1310" v:groupContext="shape" v:layerMember="0">
            <path d="M32.25 56.63v-6.9L24 41.48l-.83.82-.07-.07c-2.55-2.25-5.85-3.53-9.22-3.53C6.22 38.63 0 44.85 0 52.5s6.22 13.88 13.88 13.88c6.75 0 12.44-4.88 13.64-11.33l1.58 1.58h3.15z" class="st1"/>
          </g>
          <g id="shape1311-30" v:mID="1311" v:groupContext="shape" v:layerMember="0" transform="translate(2.25 -2.25)">
            <path d="M21.75 46.88l-6 6v3.75l4.5-4.5v2.62c0 4.73-3.9 8.63-8.62 8.63-4.73 0-8.63-3.9-8.63-8.63 0-4.72 3.9-8.62 8.63-8.62 2.17 0 4.12.82 5.62 2.1l2.1-2.1c-2.03-1.8-4.72-2.93-7.72-2.93C5.18 43.13 0 48.3 0 54.75c0 6.45 5.18 11.63 11.63 11.63 6.37 0 11.55-5.18 11.62-11.55v-2.7l4.5 4.5v-3.75l-6-6z" class="st2"/>
          </g>
        </g>
      </g>
    </g>
  </g>
</svg>
