<svg xmlns="http://www.w3.org/2000/svg" xmlns:v="http://schemas.microsoft.com/visio/2003/SVGExtensions/" width="101.325" height="78" viewBox="0 0 75.994 58.5" color-interpolation-filters="sRGB" fill="none" fill-rule="evenodd" font-size="12" overflow="visible" stroke-linecap="square" stroke-miterlimit="3">
  <v:documentProperties v:langID="4108" v:metric="true" v:viewMarkup="false"/>
  <style>
    .st1,.st2{fill:#fff;stroke:none;stroke-linecap:butt;stroke-width:.75}.st2{fill:#515251}
  </style>
  <g v:mID="0" v:index="1" v:groupContext="foregroundPage">
    <v:pageProperties v:drawingScale=".039" v:pageScale=".039" v:drawingUnits="24" v:shadowOffsetX="8.504" v:shadowOffsetY="-8.504"/>
    <v:layer v:name="symbols" v:index="0"/>
    <g id="group1312-1" transform="translate(4.81 -3.75)" v:mID="1312" v:groupContext="group" v:layerMember="0">
      <g id="group1313-2" v:mID="1313" v:groupContext="group" v:layerMember="0">
        <g id="group1314-3" transform="translate(0 -6.375)" v:mID="1314" v:groupContext="group" v:layerMember="0">
          <g id="shape1315-4" v:mID="1315" v:groupContext="shape" v:layerMember="0">
            <path d="M5.55 58.5c-2.47 0-4.35-.98-5.03-2.7-.52-1.28-.22-2.7.76-3.68.9-.9 2.39-2.4 3.44-3.52V24.75a5.22 5.22 0 0 1 5.26-5.25h41.24c2.93 0 5.25 2.32 5.25 5.25V48.6c1.13 1.12 2.63 2.62 3.45 3.52 1.05 1.05 1.35 2.4.75 3.68-.6 1.72-2.47 2.7-4.87 2.7H5.55z" class="st1"/>
          </g>
          <g id="shape1316-6" v:mID="1316" v:groupContext="shape" v:layerMember="0" transform="translate(1.95 -2.25)">
            <path d="M56.47 55.95c-1.05-1.05-3.07-3.08-4.12-4.2V27c0-1.65-1.35-3-3-3H8.1c-1.65 0-3 1.35-3 3v24.75c-1.05 1.12-3.07 3.15-4.13 4.2C0 57 .97 58.5 3.6 58.5h50.25c2.62 0 3.67-1.5 2.62-2.55zM8.1 27h41.25v24H8.1V27zm25.12 29.32H24.3c-.45 0-.9-.15-.9-.37l1.05-1.65c0-.15.37-.3.75-.3h7.12c.38 0 .68.15.68.3l1.12 1.65c-.07.22-.45.37-.9.37z" class="st2"/>
          </g>
        </g>
        <g id="group1317-8" transform="translate(44.55)" v:mID="1317" v:groupContext="group" v:layerMember="0">
          <g id="shape1318-9" v:mID="1318" v:groupContext="shape" v:layerMember="0">
            <path d="M4.57 54.15l3.98 4.35h1.95l5.18-5.4-2.18-2.25 1.5-1.58-.22-1.95-1.58-1.72.98-1.2v-2.33c2.77-1.65 4.5-4.65 4.5-8.02 0-5.18-4.2-9.38-9.38-9.38-5.1.08-9.3 4.28-9.3 9.45 0 3.38 1.73 6.38 4.57 8.03v12z" class="st1"/>
          </g>
          <g id="shape1319-11" v:mID="1319" v:groupContext="shape" v:layerMember="0" transform="translate(2.25 -2.175)">
            <path d="M9.75 45v-2.1c2.63-1.05 4.5-3.6 4.5-6.6 0-3.9-3.22-7.13-7.12-7.13C3.22 29.17 0 32.4 0 36.3c0 3 1.87 5.62 4.58 6.67V55.5l2.77 3 3.08-3.15-2.18-2.25 2.25-2.4v-.15l-2.47-2.63 1.72-2.1V45zM7.13 32.17C8.18 32.17 9 33 9 34.05c0 1.05-.82 1.87-1.87 1.87a1.85 1.85 0 0 1-1.88-1.87c0-1.05.82-1.88 1.88-1.88z" class="st2"/>
          </g>
        </g>
        <g id="group1320-13" transform="translate(21.9 -21.75)" v:mID="1320" v:groupContext="group" v:layerMember="0">
          <g id="shape1321-14" v:mID="1321" v:groupContext="shape" v:layerMember="0" transform="translate(3.3 -5.175)">
            <path d="M9.9 58.5l1.05-1.05a6.823 6.823 0 0 0-5.47-2.78c-2.25 0-4.28 1.13-5.48 2.78l1.05 1.05c.97-1.43 2.55-2.4 4.43-2.4 1.87.07 3.52 1.05 4.42 2.4z" class="st2"/>
          </g>
          <g id="shape1322-16" v:mID="1322" v:groupContext="shape" v:layerMember="0" transform="translate(0 -8.325)">
            <path d="M1.2 58.5c1.8-2.25 4.5-3.68 7.58-3.68 3.07 0 5.77 1.43 7.57 3.68l1.05-1.05c-2.1-2.48-5.18-4.05-8.7-4.05-3.52 0-6.6 1.57-8.7 4.05l1.2 1.05z" class="st2"/>
          </g>
          <g id="shape1323-18" v:mID="1323" v:groupContext="shape" v:layerMember="0" transform="translate(6.6)">
            <ellipse cx="2.25" cy="56.25" rx="2.25" ry="2.25" class="st2"/>
          </g>
        </g>
      </g>
    </g>
  </g>
</svg>
