<svg xmlns="http://www.w3.org/2000/svg" xmlns:v="http://schemas.microsoft.com/visio/2003/SVGExtensions/" width="79.5" height="94.5" viewBox="0 0 59.625 70.875" color-interpolation-filters="sRGB" fill="none" fill-rule="evenodd" font-size="12" overflow="visible" stroke-linecap="square" stroke-miterlimit="3">
  <v:documentProperties v:langID="4108" v:metric="true" v:viewMarkup="false"/>
  <style>
    .st1,.st2{fill:#fff;stroke:none;stroke-linecap:butt;stroke-width:.75}.st2{fill:#515150}
  </style>
  <g v:mID="0" v:index="1" v:groupContext="foregroundPage">
    <v:pageProperties v:drawingScale=".039" v:pageScale=".039" v:drawingUnits="24" v:shadowOffsetX="8.504" v:shadowOffsetY="-8.504"/>
    <v:layer v:name="symbols" v:index="0"/>
    <g id="group1324-1" transform="translate(2.1 -8.813)" v:mID="1324" v:groupContext="group" v:layerMember="0">
      <g id="group1325-2" v:mID="1325" v:groupContext="group" v:layerMember="0">
        <g id="shape1326-3" v:mID="1326" v:groupContext="shape" v:layerMember="0">
          <path d="M8.17 70.88h31.21c4.65-.38 8.25-4.28 8.25-8.93V33.38h1.35c4.27-.15 7.64-3.6 7.64-7.88 0-4.27-3.44-7.8-7.72-7.87H16.87c-4.94 0-8.99 4.05-8.99 9v27.75C3.52 54.6 0 58.2 0 62.63c0 4.27 3.3 7.8 7.5 8.17l.67.08z" class="st1"/>
        </g>
        <g id="shape1327-5" v:mID="1327" v:groupContext="shape" v:layerMember="0" transform="translate(47.625 -39.375)">
          <path d="M6.23 61.58H3.9c-2.17 0-3.9 1.72-3.9 3.9v5.4h.82c3.46 0 6.23-2.78 6.23-6.23 0-1.12-.3-2.17-.82-3.07z" class="st2"/>
        </g>
        <g id="shape1328-7" v:mID="1328" v:groupContext="shape" v:layerMember="0" transform="translate(10.125 -2.175)">
          <path d="M35.25 27.9c.15-2.85 2.33-5.25 5.18-5.62h.07c-.45-.15-.97-.15-1.43-.15h-.29H6.75C3 22.13 0 25.13 0 28.88v27.67h25.5c1.05 0 1.88.9 1.88 1.95 0 .75-.46 1.05-.46 1.05-1.94.98-3.3 3-3.3 5.33 0 3.22 2.56 5.85 5.78 6 3.3-.45 5.85-3.23 5.92-6.68V27.9h-.07z" class="st2"/>
        </g>
        <g id="shape1329-9" v:mID="1329" v:groupContext="shape" v:layerMember="0" transform="translate(2.175 -2.25)">
          <path d="M31.88 70.88c-1.58-1.5-2.55-3.6-2.55-6 0-2.33.97-4.43 2.55-6H6c-3.3 0-6 2.7-6 6s2.7 6 6 6h25.88z" class="st2"/>
        </g>
      </g>
      <g id="group1330-11" transform="translate(17.625 -23.25)" v:mID="1330" v:groupContext="group" v:layerMember="0">
        <g id="shape1331-12" v:mID="1331" v:groupContext="shape" v:layerMember="0" transform="translate(0 -12)">
          <path class="st1" d="M0 68.625h20.25v2.25H0z"/>
        </g>
        <g id="shape1332-14" v:mID="1332" v:groupContext="shape" v:layerMember="0" transform="translate(0 -6)">
          <path class="st1" d="M0 68.625h20.25v2.25H0z"/>
        </g>
        <g id="shape1333-16" v:mID="1333" v:groupContext="shape" v:layerMember="0">
          <path class="st1" d="M0 68.625h20.25v2.25H0z"/>
        </g>
      </g>
    </g>
  </g>
</svg>
