<svg xmlns="http://www.w3.org/2000/svg" xmlns:v="http://schemas.microsoft.com/visio/2003/SVGExtensions/" width="109.5" height="85.5" viewBox="0 0 82.125 64.125" color-interpolation-filters="sRGB" fill="none" fill-rule="evenodd" font-size="12" overflow="visible" stroke-linecap="square" stroke-miterlimit="3">
  <v:documentProperties v:langID="4108" v:metric="true" v:viewMarkup="false"/>
  <style>
    .st1,.st2{fill:#fff;stroke:none;stroke-linecap:butt;stroke-width:.75}.st2{fill:#515150}
  </style>
  <g v:mID="0" v:index="1" v:groupContext="foregroundPage">
    <v:pageProperties v:drawingScale=".039" v:pageScale=".039" v:drawingUnits="24" v:shadowOffsetX="8.504" v:shadowOffsetY="-8.504"/>
    <v:layer v:name="symbols" v:index="0"/>
    <g id="group1342-1" transform="translate(10.378 -2.438)" v:mID="1342" v:groupContext="group" v:layerMember="0">
      <g id="group1343-2" v:mID="1343" v:groupContext="group" v:layerMember="0">
        <g id="group1344-3" transform="translate(0 -7.5)" v:mID="1344" v:groupContext="group" v:layerMember="0">
          <g id="shape1345-4" v:mID="1345" v:groupContext="shape" v:layerMember="0">
            <path d="M5.25 64.12C2.32 64.12 0 61.8 0 58.87v-34.5c0-2.92 2.32-5.25 5.25-5.25H52.5c2.92 0 5.25 2.33 5.25 5.25v34.5c0 2.93-2.33 5.25-5.25 5.25H5.25z" class="st1"/>
          </g>
          <g id="shape1346-6" v:mID="1346" v:groupContext="shape" v:layerMember="0" transform="translate(2.25 -2.25)">
            <path d="M50.25 23.62H3c-1.65 0-3 1.35-3 3v34.5c0 1.65 1.35 3 3 3h47.25c1.65 0 3-1.35 3-3v-34.5c0-1.65-1.35-3-3-3zm-6 2.25h2.25v2.25h-2.25v-2.25zm-4.5 0H42v2.25h-2.25v-2.25zM51 61.12c0 .45-.3.75-.75.75H3c-.45 0-.75-.3-.75-.75v-30H51v30zm0-33h-2.25v-2.25H51v2.25z" class="st2"/>
          </g>
        </g>
        <g id="group1347-8" transform="translate(30.075)" v:mID="1347" v:groupContext="group" v:layerMember="0">
          <g id="shape1348-9" v:mID="1348" v:groupContext="shape" v:layerMember="0">
            <path d="M20.85 64.12c-1.2 0-2.33-.75-2.78-1.87l-.67-1.58h-1.28l-.67 1.58c-.38 1.12-1.5 1.87-2.7 1.87-.37 0-.82-.07-1.13-.22l-2.85-1.2c-.74-.3-1.35-.9-1.65-1.65-.29-.75-.29-1.58 0-2.33l.68-1.57-.83-.83L5.4 57c-.37.15-.75.22-1.13.22-1.2 0-2.32-.75-2.77-1.87L.3 52.5c-.3-.75-.3-1.58 0-2.33s.9-1.35 1.65-1.65l1.57-.67v-1.2l-1.57-.68C1.2 45.68.6 45.07.3 44.32 0 43.57 0 42.75.3 42l1.2-2.85a3.009 3.009 0 0 1 2.77-1.88c.38 0 .76.08 1.13.23l1.57.67.83-.82-.68-1.58c-.29-.75-.29-1.57 0-2.32.3-.75.91-1.35 1.65-1.65l2.85-1.2c.38-.15.76-.23 1.13-.23 1.2 0 2.32.75 2.77 1.88l.6 1.5h1.28l.6-1.58a3.015 3.015 0 0 1 2.77-1.87c.38 0 .75.07 1.13.22l2.85 1.2c.75.3 1.35.9 1.65 1.65.3.75.3 1.58 0 2.33l-.68 1.57.83.83 1.57-.68c.38-.15.75-.22 1.13-.22 1.2 0 2.32.75 2.77 1.87l1.2 2.85c.3.76.3 1.58 0 2.33s-.9 1.35-1.65 1.65l-1.57.67v1.2l1.57.68c1.58.67 2.25 2.4 1.65 3.97l-1.2 2.85a3.009 3.009 0 0 1-2.77 1.88c-.38 0-.83-.08-1.2-.23l-1.58-.67-.82.82.67 1.58c.3.75.3 1.57 0 2.32-.3.75-.9 1.35-1.65 1.65l-2.85 1.2c-.15.23-.6.3-.97.3z" class="st1"/>
          </g>
          <g id="shape1349-11" v:mID="1349" v:groupContext="shape" v:layerMember="0" transform="translate(2.025 -2.1)">
            <path d="M28.95 52.72l-2.4-.97c-.38-.15-.68-.38-.68-.45 0-.08.08-.53.08-.9v-1.95c0-.45-.08-.83-.08-.9 0-.08.3-.3.68-.45l2.4-.98c.37-.15.6-.6.45-1.05l-1.2-2.85c-.15-.37-.6-.59-1.05-.45l-2.4.98c-.38.15-.75.22-.83.15-.07-.08-.3-.38-.6-.75L21.9 40.8c-.3-.3-.68-.53-.68-.6-.07-.08 0-.38.15-.83l.98-2.4c.15-.37 0-.82-.45-1.05l-2.85-1.2c-.38-.15-.83 0-1.05.45l-.98 2.4c-.15.38-.37.68-.45.68-.07 0-.52-.08-.9-.15 0 0-.37-.08-.97-.08s-.98.08-.98.08c-.45.07-.82.07-.9.15-.07 0-.3-.3-.45-.68l-.97-2.4c-.15-.37-.6-.6-1.05-.45l-2.85 1.2a.85.85 0 0 0-.45 1.05l.97 2.4c.15.38.23.75.15.83-.07.07-.37.3-.67.6l-1.43 1.42c-.3.3-.52.68-.6.75-.07.08-.37 0-.82-.15L2.4 41.7c-.38-.15-.83 0-1.05.45L.15 45c-.15.37 0 .82.45 1.05l2.4.97c.37.15.67.38.67.45 0 .08-.07.53-.07.9v1.95c0 .45.07.83.07.9 0 .08-.3.3-.67.45L.6 52.72c-.37.15-.6.6-.45 1.05l1.2 2.85c.15.38.6.6 1.05.45l2.4-.97c.37-.15.75-.23.82-.15.08.07.3.37.6.75l1.43 1.35c.3.3.67.52.75.6.07.07 0 .45-.15.82l-1.13 2.25c-.14.38.01.83.45 1.05l2.85 1.2c.38.15.83 0 1.05-.45l.98-2.4c.15-.37.37-.67.45-.67.07 0 .52.07.9.15 0 0 .37.07.97.07s.98-.07.98-.07c.45-.08.82-.08.9-.15.07 0 .3.3.45.67l.97 2.4c.15.38.6.6 1.05.45l2.85-1.2c.38-.15.6-.6.45-1.05l-.97-2.4c-.15-.37-.23-.75-.15-.82.07-.08.37-.3.75-.6l1.42-1.43c.3-.3.53-.67.6-.75.08-.07.38 0 .83.15l2.4.98c.37.15.82 0 1.05-.45l1.2-2.85c-.08-.23-.23-.68-.6-.83zm-14.18 4.35c-4.27 0-7.72-3.45-7.72-7.72a7.72 7.72 0 0 1 7.72-7.73c4.28.01 7.73 3.45 7.73 7.73 0 4.27-3.45 7.72-7.73 7.72z" class="st2"/>
          </g>
        </g>
      </g>
    </g>
  </g>
</svg>
