<svg xmlns="http://www.w3.org/2000/svg" xmlns:v="http://schemas.microsoft.com/visio/2003/SVGExtensions/" width="90" height="88.5" viewBox="0 0 67.5 66.375" color-interpolation-filters="sRGB" fill="none" fill-rule="evenodd" font-size="12" overflow="visible" stroke-linecap="square" stroke-miterlimit="3">
  <v:documentProperties v:langID="4108" v:metric="true" v:viewMarkup="false"/>
  <g v:mID="0" v:index="1" v:groupContext="foregroundPage">
    <v:pageProperties v:drawingScale=".039" v:pageScale=".039" v:drawingUnits="24" v:shadowOffsetX="8.504" v:shadowOffsetY="-8.504"/>
    <v:layer v:name="symbols" v:index="0"/>
    <g transform="translate(7.416 -7.275)" v:mID="1350" v:groupContext="group" v:layerMember="0">
      <g v:mID="1351" v:groupContext="group" v:layerMember="0">
        <g v:mID="1352" v:groupContext="shape" v:layerMember="0">
          <path d="M32.48 66.3c-1.43 0-2.7-.82-3.23-2.17l-1.43-3.38h-.07c-.08 0-.83.08-1.8.08-1.05 0-1.8-.08-1.88-.08H24l-1.42 3.45c-.53 1.28-1.81 2.18-3.23 2.18-.45 0-.9-.08-1.35-.3l-4.65-1.95c-.9-.38-1.58-1.05-1.88-1.88-.37-.9-.37-1.8 0-2.7l1.43-3.45-.15-.15-2.32-2.4s-.08-.15-.15-.15l-3.45 1.43c-.45.15-.91.3-1.36.3-1.42 0-2.69-.83-3.22-2.18L.38 48.3c-.38-.82-.38-1.8 0-2.7.37-.9 1.05-1.57 1.87-1.87L5.7 42.3v-3.6-.22l-3.45-1.43C1.35 36.68.67 36 .38 35.18c-.38-.9-.38-1.8 0-2.7l1.94-4.65c.53-1.35 1.8-2.18 3.23-2.18.45 0 .9.08 1.35.3l3.45 1.43.15-.15 2.4-2.4s.15-.08.15-.15l-1.5-3.38c-.38-.82-.38-1.8 0-2.7.37-.9 1.05-1.57 1.88-1.87l4.64-1.88c.38-.22.83-.3 1.36-.3 1.42 0 2.69.83 3.22 2.18l1.42 3.37h.08c.07 0 .82-.07 1.8-.07 1.05 0 1.8.07 1.87.07h.08l1.43-3.45c.52-1.27 1.72-2.1 3.15-2.1.45 0 .89.08 1.34.3l4.66 1.95c.89.38 1.57 1.05 1.87 1.88.37.9.37 1.8 0 2.7l-1.42 3.45.15.15 2.4 2.32s.07.15.15.15l3.45-1.42c.45-.15.89-.3 1.34-.3 1.43 0 2.7.82 3.23 2.17l1.95 4.65c.38.9.38 1.8 0 2.7-.37.9-1.05 1.58-1.88 1.88l-3.52 1.42v3.83l3.45 1.42c1.8.75 2.62 2.78 1.88 4.58l-1.96 4.65c-.52 1.35-1.79 2.17-3.22 2.17-.45 0-.9-.07-1.35-.3l-3.45-1.42-.15.15-2.32 2.32s-.15.08-.15.15l1.42 3.45c.37.9.37 1.8 0 2.7-.38.9-1.05 1.58-1.87 1.88L33.82 66c-.37.23-.82.3-1.34.3zm-6.53-36.15c-5.7 0-10.28 4.58-10.28 10.28 0 5.7 4.58 10.27 10.28 10.27 5.7 0 10.28-4.57 10.27-10.27.01-5.7-4.57-10.28-10.27-10.28z" fill="#fff" stroke-linecap="butt" stroke-width=".75"/>
        </g>
        <g v:mID="1353" v:groupContext="shape" v:layerMember="0" transform="translate(2.1 -2.025)">
          <path d="M46.72 47.85l-3.82-1.57c-.6-.3-1.13-.6-1.13-.75 0-.15.08-.83.15-1.5v-3.15c-.07-.68-.15-1.35-.15-1.5 0-.15.45-.45 1.13-.75l3.82-1.58c.6-.3.98-.97.68-1.65l-1.95-4.65c-.23-.6-.97-.9-1.65-.67l-3.82 1.65c-.6.3-1.2.37-1.28.3l-.98-1.13-2.24-2.25c-.53-.45-1.05-.9-1.13-.97-.07-.08 0-.68.3-1.28l1.57-3.82c.3-.6-.07-1.35-.67-1.65l-4.65-1.95c-.67-.3-1.42 0-1.65.6l-1.58 3.82c-.22.68-.6 1.13-.75 1.13-.15 0-.82-.08-1.49-.23 0 0-.68-.07-1.65-.07-.98 0-1.58.07-1.58.07-.68.08-1.35.15-1.5.15-.15 0-.45-.45-.75-1.12l-1.5-3.75c-.23-.68-.98-.98-1.65-.68l-4.65 1.95c-.6.23-.9.98-.67 1.65l1.57 3.83c.3.6.37 1.2.3 1.27-.08.08-.6.53-1.13.98l-2.24 2.25c-.45.52-.91 1.05-.98 1.12-.08.08-.68 0-1.28-.3L3.9 30.08c-.6-.3-1.35.07-1.65.67L.3 35.4c-.22.68.08 1.43.67 1.65l3.83 1.58c.68.3 1.13.6 1.13.75 0 .15-.08.82-.15 1.5v3.15c.07.67.15 1.35.15 1.5 0 .15-.45.45-1.13.75L.97 47.85c-.67.3-.97.98-.67 1.65l1.95 4.65c.3.6.98.98 1.65.68l3.82-1.58c.6-.22 1.2-.37 1.28-.3.07.08.53.6.98 1.13l2.24 2.25c.53.45 1.05.9 1.13.97.07.08 0 .68-.3 1.28l-1.57 3.82c-.3.6.07 1.35.67 1.65L16.8 66c.6.3 1.35-.07 1.65-.67l1.58-3.83c.3-.67.6-1.12.75-1.12.15 0 .82.07 1.49.22 0 0 .68.08 1.66.08.9 0 1.57-.08 1.57-.08.67-.07 1.35-.15 1.5-.15.15 0 .45.45.75 1.13l1.58 3.82c.3.6.97.98 1.64.68l4.65-1.95c.68-.23.98-.98.68-1.65l-1.72-3.9c-.23-.68-.38-1.2-.3-1.28.07-.07.6-.52 1.12-.97l2.25-2.25c.45-.53.9-1.05.98-1.13.07-.07.67 0 1.27.3l3.83 1.58c.6.3 1.34-.08 1.64-.68l1.95-4.65c.31-.67 0-1.42-.6-1.65zm-22.87 7.13c-6.9 0-12.52-5.63-12.52-12.53 0-6.9 5.62-12.52 12.52-12.52 6.9 0 12.52 5.62 12.52 12.52 0 6.9-5.62 12.53-12.52 12.53z" fill="#515150" stroke-linecap="butt" stroke-width=".75"/>
        </g>
      </g>
    </g>
  </g>
</svg>
