<svg xmlns="http://www.w3.org/2000/svg" xmlns:v="http://schemas.microsoft.com/visio/2003/SVGExtensions/" width="82.5" height="97.5" viewBox="0 0 61.875 73.125" color-interpolation-filters="sRGB" fill="none" fill-rule="evenodd" font-size="12" overflow="visible" stroke-linecap="square" stroke-miterlimit="3">
  <v:documentProperties v:langID="4108" v:metric="true" v:viewMarkup="false"/>
  <style>
    .st2{fill:#515150;stroke:none;stroke-linecap:butt;stroke-width:.75}
  </style>
  <g v:mID="0" v:index="1" v:groupContext="foregroundPage">
    <v:pageProperties v:drawingScale=".039" v:pageScale=".039" v:drawingUnits="24" v:shadowOffsetX="8.504" v:shadowOffsetY="-8.504"/>
    <v:layer v:name="symbols" v:index="0"/>
    <g id="group1386-1" transform="translate(8.813 -8.063)" v:mID="1386" v:groupContext="group" v:layerMember="0">
      <g id="group1387-2" v:mID="1387" v:groupContext="group" v:layerMember="0">
        <g id="shape1388-3" v:mID="1388" v:groupContext="shape" v:layerMember="0">
          <path d="M39.75 22.88h-4.73A6.693 6.693 0 0 0 30 20.63h-.38c-.9-2.63-3.44-4.5-6.37-4.5h-1.5c-2.93 0-5.4 1.87-6.37 4.5H15c-2.03 0-3.75.9-5.02 2.25H5.25C2.33 22.88 0 25.2 0 28.13v39.75c0 2.92 2.33 5.25 5.25 5.25h34.5c2.92 0 5.25-2.33 5.25-5.25V28.13c0-2.93-2.33-5.25-5.25-5.25z" fill="#fff" stroke-linecap="butt" stroke-width=".75"/>
        </g>
        <g id="shape1389-5" v:mID="1389" v:groupContext="shape" v:layerMember="0" transform="translate(2.25 -2.25)">
          <path d="M37.5 27.38h-3v39H6v-39H3c-1.65 0-3 1.35-3 3v39.75c0 1.65 1.35 3 3 3h34.5c1.65 0 3-1.35 3-3V30.38c0-1.65-1.35-3-3-3z" class="st2"/>
        </g>
        <g id="shape1390-7" v:mID="1390" v:groupContext="shape" v:layerMember="0" transform="translate(10.5 -42)">
          <path d="M19.5 64.88h-2.25c0-2.48-2.03-4.5-4.5-4.5h-1.5c-2.48 0-4.5 2.02-4.5 4.5H4.5c-2.48 0-4.5 2.02-4.5 4.5v3.75h24v-3.75c0-2.48-2.03-4.5-4.5-4.5zm-6 1.5h-3v-3h3v3z" class="st2"/>
        </g>
      </g>
      <g id="shape1391-9" v:mID="1391" v:groupContext="shape" v:layerMember="0" transform="translate(10.5 -13.35)">
        <path d="M23.93 53.25l-2.56-2.02c-.3-.23-.74-.15-.97.15L9.3 66.08l-5.7-6.23c-.22-.3-.68-.3-.9-.07L.3 61.95c-.23.23-.3.68 0 .9l9.07 10.28L24 54.23c.3-.3.22-.75-.07-.98z" fill="#515050" stroke-linecap="butt" stroke-width=".75"/>
      </g>
    </g>
  </g>
</svg>
