<svg xmlns="http://www.w3.org/2000/svg" xmlns:v="http://schemas.microsoft.com/visio/2003/SVGExtensions/" width="105" height="82.5" viewBox="0 0 78.75 61.875" color-interpolation-filters="sRGB" fill="none" fill-rule="evenodd" font-size="12" overflow="visible" stroke-linecap="square" stroke-miterlimit="3">
  <v:documentProperties v:langID="4108" v:metric="true" v:viewMarkup="false"/>
  <style>
    .st1,.st2{fill:#fff;stroke:none;stroke-linecap:butt;stroke-width:.75}.st2{fill:#515150}
  </style>
  <g v:mID="0" v:index="1" v:groupContext="foregroundPage">
    <v:pageProperties v:drawingScale=".039" v:pageScale=".039" v:drawingUnits="24" v:shadowOffsetX="8.504" v:shadowOffsetY="-8.504"/>
    <v:layer v:name="symbols" v:index="0"/>
    <g id="group1419-1" transform="translate(9.188 -1.012)" v:mID="1419" v:groupContext="group" v:layerMember="0">
      <g id="group1420-2" transform="translate(0 -8.1)" v:mID="1420" v:groupContext="group" v:layerMember="0">
        <g id="group1421-3" v:mID="1421" v:groupContext="group" v:layerMember="0">
          <g id="shape1422-4" v:mID="1422" v:groupContext="shape" v:layerMember="0">
            <path d="M5.25 61.88C2.33 61.88 0 59.55 0 56.63v-34.5c0-2.93 2.33-5.25 5.25-5.25h45c2.93 0 5.25 2.32 5.25 5.25v34.5c0 2.92-2.32 5.25-5.25 5.25h-45z" class="st1"/>
          </g>
          <g id="shape1423-6" v:mID="1423" v:groupContext="shape" v:layerMember="0" transform="translate(2.25 -2.25)">
            <path d="M48 21.38H3c-1.65 0-3 1.35-3 3v34.5c0 1.65 1.35 3 3 3h45c1.65 0 3-1.35 3-3v-34.5c0-1.65-1.35-3-3-3zm-6 2.25h2.25v2.25H42v-2.25zm-4.5 0h2.25v2.25H37.5v-2.25zm11.25 35.25c0 .45-.3.75-.75.75H3c-.45 0-.75-.3-.75-.75v-30h46.5v30zm0-33H46.5v-2.25h2.25v2.25z" class="st2"/>
          </g>
        </g>
        <g id="group1424-8" transform="translate(12 -8.25)" v:mID="1424" v:groupContext="group" v:layerMember="0">
          <g id="group1425-9" v:mID="1425" v:groupContext="group" v:layerMember="0">
            <g id="shape1426-10" v:mID="1426" v:groupContext="shape" v:layerMember="0" transform="translate(10.5 -16.5)">
              <path class="st2" d="M0 55.125h10.5v6.75H0z"/>
            </g>
            <g id="shape1427-12" v:mID="1427" v:groupContext="shape" v:layerMember="0" transform="translate(11.25)">
              <path class="st2" d="M0 55.875h9v6H0z"/>
            </g>
            <g id="shape1428-14" v:mID="1428" v:groupContext="shape" v:layerMember="0" transform="translate(22.5)">
              <path class="st2" d="M0 55.875h9v6H0z"/>
            </g>
            <g id="shape1429-16" v:mID="1429" v:groupContext="shape" v:layerMember="0">
              <path class="st2" d="M0 55.875h9v6H0z"/>
            </g>
            <g id="shape1430-18" v:mID="1430" v:groupContext="shape" v:layerMember="0" transform="translate(15 -6)">
              <path class="st2" d="M0 50.625h1.5v11.25H0z"/>
            </g>
            <g id="shape1431-20" v:mID="1431" v:groupContext="shape" v:layerMember="0" transform="translate(4.5 -10.5)">
              <path class="st2" d="M0 60.375h22.5v1.5H0z"/>
            </g>
          </g>
          <g id="shape1432-22" v:mID="1432" v:groupContext="shape" v:layerMember="0" transform="translate(3.75 -5.25)">
            <path class="st2" d="M0 55.125h1.5v6.75H0z"/>
          </g>
          <g id="shape1433-24" v:mID="1433" v:groupContext="shape" v:layerMember="0" transform="translate(26.25 -5.25)">
            <path class="st2" d="M0 55.125h1.5v6.75H0z"/>
          </g>
        </g>
      </g>
      <g id="group1434-26" transform="translate(42.75)" v:mID="1434" v:groupContext="group" v:layerMember="0">
        <g id="shape1435-27" v:mID="1435" v:groupContext="shape" v:layerMember="0">
          <path d="M0 38.03v9h2.85L6 44.18v3.97c0 1.73-1.95 3.6-4.35 4.35L0 52.88v9l2.7-.53C9.68 60.08 15 54.38 15 48.08V44.1l3.15 3.08H21v-9.15l-10.58-10.5L0 38.03z" class="st1"/>
        </g>
        <g id="shape1436-29" v:mID="1436" v:groupContext="shape" v:layerMember="0" transform="translate(2.25 -2.55)">
          <path d="M0 41.55v5.63l6-5.78v9.3c0 2.85-2.63 5.55-6 6.53v4.65c5.85-1.13 10.5-5.85 10.5-11.1V41.4l6 5.85v-5.62l-8.32-8.25L0 41.55z" class="st2"/>
        </g>
      </g>
    </g>
  </g>
</svg>
