<svg xmlns="http://www.w3.org/2000/svg" xmlns:v="http://schemas.microsoft.com/visio/2003/SVGExtensions/" width="97.125" height="85.5" viewBox="0 0 72.844 64.125" color-interpolation-filters="sRGB" fill="none" fill-rule="evenodd" font-size="12" overflow="visible" stroke-linecap="square" stroke-miterlimit="3">
  <v:documentProperties v:langID="4108" v:metric="true" v:viewMarkup="false"/>
  <style>
    .st1{fill:#fff;stroke:none;stroke-linecap:butt;stroke-width:.75}
  </style>
  <g v:mID="0" v:index="1" v:groupContext="foregroundPage">
    <v:pageProperties v:drawingScale=".039" v:pageScale=".039" v:drawingUnits="24" v:shadowOffsetX="8.504" v:shadowOffsetY="-8.504"/>
    <v:layer v:name="symbols" v:index="0"/>
    <g id="group1449-1" transform="translate(9.084 -9.6)" v:mID="1449" v:groupContext="group" v:layerMember="0">
      <g id="group1450-2" v:mID="1450" v:groupContext="group" v:layerMember="0">
        <g id="shape1451-3" v:mID="1451" v:groupContext="shape" v:layerMember="0">
          <path d="M5.17 64.13C2.32 64.13 0 61.8 0 58.95V24.38c0-2.85 2.32-5.18 5.17-5.18H49.5c2.85 0 5.18 2.33 5.17 5.18v34.57c0 2.85-2.32 5.18-5.17 5.18H5.18z" class="st1"/>
        </g>
        <g id="shape1452-5" v:mID="1452" v:groupContext="shape" v:layerMember="0" transform="translate(2.25 -2.25)">
          <path d="M47.25 64.13H2.93C1.28 64.13 0 62.78 0 61.2V26.63c0-1.65 1.35-2.93 2.93-2.93h44.32c1.65 0 2.93 1.35 2.93 2.93V61.2c0 1.58-1.28 2.93-2.93 2.93z" fill="#505050" stroke-linecap="butt" stroke-width=".75"/>
        </g>
      </g>
      <g id="shape1453-7" v:mID="1453" v:groupContext="shape" v:layerMember="0" transform="translate(20.25 -12.525)">
        <path d="M0 44.4l17.25 9.83L0 64.13V44.4z" class="st1"/>
      </g>
    </g>
  </g>
</svg>
