<svg xmlns="http://www.w3.org/2000/svg" xmlns:v="http://schemas.microsoft.com/visio/2003/SVGExtensions/" width="97.125" height="75" viewBox="0 0 72.844 56.25" color-interpolation-filters="sRGB" fill="none" fill-rule="evenodd" font-size="12" overflow="visible" stroke-linecap="square" stroke-miterlimit="3">
  <v:documentProperties v:langID="4108" v:metric="true" v:viewMarkup="false"/>
  <style>
    .st2{fill:#505050;stroke:none;stroke-linecap:butt;stroke-width:.75}
  </style>
  <g v:mID="0" v:index="1" v:groupContext="foregroundPage">
    <v:pageProperties v:drawingScale=".039" v:pageScale=".039" v:drawingUnits="24" v:shadowOffsetX="8.504" v:shadowOffsetY="-8.504"/>
    <v:layer v:name="symbols" v:index="0"/>
    <g id="group1619-1" transform="translate(8.081 -5.4)" v:mID="1619" v:groupContext="group" v:layerMember="0">
      <g id="group1620-2" v:mID="1620" v:groupContext="group" v:layerMember="0">
        <g id="shape1621-3" v:mID="1621" v:groupContext="shape" v:layerMember="0">
          <path d="M51 18.68l-1.8-1.58-3.9 5.25.07.08-1.27 1.72v-6.67c0-1.8-1.57-3.3-3.38-3.3-.82 0-1.65.37-2.25.97C32.93 21 24 22.35 21 22.35H9.67c-1.8.08-3.37.97-4.35 2.4-2.99.52-5.32 3.67-5.32 7.5v.08c0 3.89 2.33 6.97 5.4 7.57.75 1.12 1.95 1.87 3.3 2.17l.6 1.28c.15.45.37 1.05.82 2.18.45 1.12 1.06 2.7 1.21 3.22.14.6.37 1.27.59 1.87.23.6.53 1.43.53 1.73 0 2.7 1.5 3.9 3 3.9 1.72 0 6-2.4 6.45-4.28.3-1.49-.52-2.47-1.05-3 0-1.35-.3-2.69-.6-3.82.3-.3.67-.68.83-1.28.22-.59.22-1.2.14-1.72 2.18 0 11.86.45 17.48 6.6.52.6 1.35.98 2.17.97 1.81.01 3.31-1.57 3.3-3.45V39l2.7 3.15 3.3 3.83 1.73-1.73c3.22-3.23 5.1-7.65 5.1-12.37 0-5.11-2.17-9.98-6-13.2z" fill="#fff" stroke-linecap="butt" stroke-width=".75"/>
        </g>
        <g id="shape1622-5" v:mID="1622" v:groupContext="shape" v:layerMember="0" transform="translate(2.25 -2.25)">
          <path d="M39.6 29.7V19.65c0-.82-1.13-1.42-1.65-.82-6.23 6.67-15.97 8.02-19.2 8.02H7.58c-1.43.08-2.63.97-3.08 2.25h-.37C1.87 29.1 0 31.5 0 34.5v.08c0 3 1.87 5.4 4.13 5.4h.37c.45 1.27 1.65 2.17 3 2.17h.37l1.21 2.62c.22.76 1.72 4.43 2.1 5.63.44 1.43 1.27 3.45 1.27 4.13 0 .75.23 1.72.75 1.72 1.12 0 4.12-2.1 4.28-2.47.22-.9-1.28-1.13-1.13-1.88.23-1.95-.75-4.42-.9-5.25-.07-.23 0-.45.3-.53.3-.07.83-.22.9-.59.3-.83-.45-1.73-.52-2.25-.08-.53.89-.83 1.27-.9.37-.08.75-.08 1.2-.08h.3c3.07 0 13.2.6 19.28 7.35.52.6 1.57-.08 1.57-.9v-10.5h.45c1.27-.9 2.18-2.4 2.18-4.12-.15-1.96-1.13-3.45-2.78-4.43z" class="st2"/>
        </g>
        <g id="shape1623-7" v:mID="1623" v:groupContext="shape" v:layerMember="0" transform="translate(45.225 -17.475)">
          <path d="M1.27 42.07L0 43.8c1.35 1.42 2.17 3.45 2.17 5.47 0 2.03-.75 3.98-1.94 5.4l1.34 1.58c1.66-1.87 2.71-4.28 2.7-6.98.08-2.77-1.12-5.32-3-7.2z" class="st2"/>
        </g>
        <g id="shape1624-9" v:mID="1624" v:groupContext="shape" v:layerMember="0" transform="translate(48.3 -13.575)">
          <path d="M1.27 33.9L0 35.55c2.7 2.47 4.35 5.92 4.35 9.82 0 3.6-1.43 6.83-3.75 9.3l1.35 1.58c2.77-2.77 4.42-6.6 4.42-10.88.08-4.5-1.95-8.7-5.1-11.47z" class="st2"/>
        </g>
      </g>
    </g>
  </g>
</svg>
