<svg xmlns="http://www.w3.org/2000/svg" xmlns:v="http://schemas.microsoft.com/visio/2003/SVGExtensions/" width="97.125" height="91.5" viewBox="0 0 72.844 68.625" color-interpolation-filters="sRGB" fill="none" fill-rule="evenodd" font-size="12" overflow="visible" stroke-linecap="square" stroke-miterlimit="3">
  <v:documentProperties v:langID="4108" v:metric="true" v:viewMarkup="false"/>
  <style>
    .st1{fill:#fff;stroke:none;stroke-linecap:butt;stroke-width:.75}
  </style>
  <g v:mID="0" v:index="1" v:groupContext="foregroundPage">
    <v:pageProperties v:drawingScale=".039" v:pageScale=".039" v:drawingUnits="24" v:shadowOffsetX="8.504" v:shadowOffsetY="-8.504"/>
    <v:layer v:name="symbols" v:index="0"/>
    <g id="group1625-1" transform="translate(11.71 -9.6)" v:mID="1625" v:groupContext="group" v:layerMember="0">
      <g id="group1626-2" v:mID="1626" v:groupContext="group" v:layerMember="0">
        <g id="group1627-3" v:mID="1627" v:groupContext="group" v:layerMember="0">
          <g id="shape1628-4" v:mID="1628" v:groupContext="shape" v:layerMember="0">
            <path d="M5.17 68.63C2.32 68.63 0 66.3 0 63.45V24.38c0-2.85 2.32-5.18 5.17-5.18h39.08c2.85 0 5.17 2.33 5.17 5.18v39.07c0 2.85-2.32 5.18-5.17 5.18H5.17z" class="st1"/>
          </g>
          <g id="shape1629-6" v:mID="1629" v:groupContext="shape" v:layerMember="0" transform="translate(2.25 -2.25)">
            <path d="M42 68.63H2.92C1.27 68.63 0 67.28 0 65.7V26.63c0-1.65 1.35-2.93 2.92-2.93H42c1.65 0 2.92 1.35 2.92 2.93V65.7c0 1.65-1.27 2.93-2.92 2.93z" fill="#515050" stroke-linecap="butt" stroke-width=".75"/>
          </g>
        </g>
        <g id="group1630-8" transform="translate(11.7 -11.325)" v:mID="1630" v:groupContext="group" v:layerMember="0">
          <g id="shape1631-9" v:mID="1631" v:groupContext="shape" v:layerMember="0" transform="translate(0 -.075)">
            <path d="M2.7 68.63c-.68 0-1.42-.3-1.87-.9-.83-1.05-.61-2.55.37-3.45l10.35-9.15L1.2 45.3c-.98-.9-1.12-2.4-.3-3.37.9-1.05 2.47-1.13 3.52-.23l13.13 12.45c.6.6.6 1.58 0 2.1l-.82.75L4.35 68.03c-.45.37-1.05.6-1.65.6z" class="st1"/>
          </g>
          <g id="shape1632-11" v:mID="1632" v:groupContext="shape" v:layerMember="0" transform="translate(12.375)">
            <path d="M12.22 68.63H1.88C.82 68.63 0 67.8 0 66.75c0-1.05.82-1.87 1.88-1.87h10.34c1.06 0 1.88.82 1.88 1.87 0 1.05-.82 1.88-1.88 1.88z" class="st1"/>
          </g>
        </g>
      </g>
    </g>
  </g>
</svg>
