<?xml version="1.0" encoding="UTF-8" standalone="no"?>
<!DOCTYPE svg PUBLIC "-//W3C//DTD SVG 1.1//EN" "http://www.w3.org/Graphics/SVG/1.1/DTD/svg11.dtd">
<!-- Generated by Microsoft Visio, SVG Export Active Directory.svg Page-1 -->
<svg xmlns="http://www.w3.org/2000/svg" xmlns:xlink="http://www.w3.org/1999/xlink" xmlns:ev="http://www.w3.org/2001/xml-events"
		xmlns:v="http://schemas.microsoft.com/visio/2003/SVGExtensions/" width="0.8125in" height="0.890625in"
		viewBox="0 0 58.5 64.125" xml:space="preserve" color-interpolation-filters="sRGB" class="st3">
	<v:documentProperties v:langID="4108" v:metric="true" v:viewMarkup="false"/>

	<style type="text/css">
	<![CDATA[
		.st1 {fill:#ffffff;stroke:none;stroke-linecap:butt;stroke-width:0.75}
		.st2 {fill:#505150;stroke:none;stroke-linecap:butt;stroke-width:0.75}
		.st3 {fill:none;fill-rule:evenodd;font-size:12px;overflow:visible;stroke-linecap:square;stroke-miterlimit:3}
	]]>
	</style>

	<g v:mID="0" v:index="1" v:groupContext="foregroundPage">
		<title>Page-1</title>
		<v:pageProperties v:drawingScale="0.0393701" v:pageScale="0.0393701" v:drawingUnits="24" v:shadowOffsetX="8.50394"
				v:shadowOffsetY="-8.50394"/>
		<v:layer v:name="symbols" v:index="0"/>
		<g id="group1-1" transform="translate(0.7875,-6.9375)" v:mID="1" v:groupContext="group" v:layerMember="0">
			<title>Active Directory</title>
			<g id="group2-2" v:mID="2" v:groupContext="group" v:layerMember="0">
				<title>Sheet.2</title>
				<g id="shape3-3" v:mID="3" v:groupContext="shape" v:layerMember="0">
					<title>Sheet.3</title>
					<path d="M4.73 64.12 C2.92 64.12 1.5 63.37 0.75 62.1 C-0 60.82 0.07 59.17 0.98 57.6 L24.45 16.35 C25.35 14.77
								 26.7 13.87 28.27 13.87 C29.77 13.87 31.2 14.77 32.1 16.35 L55.58 57.6 C56.47 59.17 56.55 60.75 55.8
								 62.1 C55.05 63.37 53.55 64.12 51.83 64.12 L4.73 64.12 Z" class="st1"/>
				</g>
				<g id="shape4-5" v:mID="4" v:groupContext="shape" v:layerMember="0" transform="translate(1.875,-2.25)">
					<title>Sheet.4</title>
					<path d="M2.85 64.12 C0.83 64.12 0 62.7 0.97 60.9 L24.45 19.65 C25.43 17.92 27.15 17.92 28.13 19.65 L51.6 60.9
								 C52.57 62.62 51.75 64.12 49.72 64.12 L2.85 64.12 Z" class="st2"/>
				</g>
				<g id="group5-7" transform="translate(12.3,-5.925)" v:mID="5" v:groupContext="group" v:layerMember="0">
					<title>Sheet.5</title>
					<g id="shape6-8" v:mID="6" v:groupContext="shape" v:layerMember="0" transform="translate(17.7,-10.35)">
						<title>Sheet.6</title>
						<path d="M6.68 63.15 L1.87 53.7 C1.35 54.15 0.68 54.52 0 54.75 L4.8 64.12 C5.32 63.75 6 63.37 6.68 63.15 Z"
								class="st1"/>
					</g>
					<g id="group7-10" transform="translate(7.425,-4.725)" v:mID="7" v:groupContext="group" v:layerMember="0">
						<title>Sheet.7</title>
						<g id="shape8-11" v:mID="8" v:groupContext="shape" v:layerMember="0"
								transform="translate(3.975,-1.42109E-14)">
							<title>Sheet.8</title>
							<path d="M9 62.02 L0 62.02 C0.07 62.4 0.07 62.62 0.07 63 C0.07 63.37 0 63.75 0 64.12 L9 64.12 C8.93 63.75
										 8.93 63.37 8.93 63 C8.85 62.62 8.93 62.4 9 62.02 Z" class="st1"/>
						</g>
						<g id="shape9-13" v:mID="9" v:groupContext="shape" v:layerMember="0"
								transform="translate(6.39488E-14,-5.55)">
							<title>Sheet.9</title>
							<path d="M1.95 64.12 L6.75 54.75 C6.07 54.52 5.4 54.15 4.87 53.7 L0 63.07 C0.67 63.3 1.35 63.67 1.95
										 64.12 Z" class="st1"/>
						</g>
					</g>
					<g id="group10-15" transform="translate(10.05,-19.275)" v:mID="10" v:groupContext="group" v:layerMember="0">
						<title>Sheet.10</title>
						<g id="shape11-16" v:mID="11" v:groupContext="shape" v:layerMember="0" transform="translate(0.75,-0.675)">
							<title>Sheet.11</title>
							<path d="M5.1 64.12 C2.25 64.12 0 61.8 0 59.02 C0 56.25 2.33 53.92 5.1 53.92 C7.95 53.92 10.2 56.25 10.2
										 59.02 C10.2 61.8 7.95 64.12 5.1 64.12 Z" class="st1"/>
						</g>
						<g id="shape12-18" v:mID="12" v:groupContext="shape" v:layerMember="0">
							<title>Sheet.12</title>
							<path d="M5.85 53.92 C8.25 53.92 10.2 55.87 10.2 58.27 C10.2 60.67 8.25 62.62 5.85 62.62 C3.45 62.62
										 1.5 60.67 1.5 58.27 C1.5 55.87 3.45 53.92 5.85 53.92 ZM5.85 52.42 C2.62 52.42 0 55.05 0
										 58.27 C-0 61.5 2.62 64.12 5.85 64.12 C9.08 64.12 11.7 61.5 11.7 58.27 C11.7 55.05 9.08 52.42
										 5.85 52.42 Z" class="st2"/>
						</g>
					</g>
					<g id="group13-20" transform="translate(20.1,1.56319E-13)" v:mID="13" v:groupContext="group" v:layerMember="0">
						<title>Sheet.13</title>
						<g id="shape14-21" v:mID="14" v:groupContext="shape" v:layerMember="0" transform="translate(0.75,-0.675)">
							<title>Sheet.14</title>
							<path d="M5.1 64.12 C2.25 64.12 0 61.8 0 59.02 C0 56.17 2.33 53.92 5.1 53.92 C7.88 53.92 10.2 56.25 10.2
										 59.02 C10.2 61.8 7.95 64.12 5.1 64.12 Z" class="st1"/>
						</g>
						<g id="shape15-23" v:mID="15" v:groupContext="shape" v:layerMember="0">
							<title>Sheet.15</title>
							<path d="M5.85 53.92 C8.25 53.92 10.2 55.87 10.2 58.27 C10.2 60.67 8.25 62.62 5.85 62.62 C3.45 62.62
										 1.5 60.67 1.5 58.27 C1.5 55.87 3.45 53.92 5.85 53.92 ZM5.85 52.42 C2.62 52.42 0 55.05 0
										 58.27 C-0 61.5 2.62 64.12 5.85 64.12 C9.08 64.12 11.7 61.5 11.7 58.27 C11.7 55.05 9.08 52.42
										 5.85 52.42 Z" class="st2"/>
						</g>
					</g>
					<g id="group16-25" v:mID="16" v:groupContext="group" v:layerMember="0">
						<title>Sheet.16</title>
						<g id="shape17-26" v:mID="17" v:groupContext="shape" v:layerMember="0" transform="translate(0.75,-0.675)">
							<title>Sheet.17</title>
							<path d="M5.1 64.12 C2.25 64.12 0 61.8 0 59.02 C0 56.17 2.33 53.92 5.1 53.92 C7.88 53.92 10.2 56.25 10.2
										 59.02 C10.2 61.8 7.95 64.12 5.1 64.12 Z" class="st1"/>
						</g>
						<g id="shape18-28" v:mID="18" v:groupContext="shape" v:layerMember="0">
							<title>Sheet.18</title>
							<path d="M5.85 53.92 C8.25 53.92 10.2 55.87 10.2 58.27 C10.2 60.67 8.25 62.62 5.85 62.62 C3.45 62.62
										 1.5 60.67 1.5 58.27 C1.5 55.87 3.45 53.92 5.85 53.92 ZM5.85 52.42 C2.62 52.42 0 55.05 0
										 58.27 C-0 61.5 2.62 64.12 5.85 64.12 C9.08 64.12 11.7 61.5 11.7 58.27 C11.7 55.05 9.08 52.42
										 5.85 52.42 Z" class="st2"/>
						</g>
					</g>
				</g>
			</g>
		</g>
	</g>
</svg>
