<?xml version="1.0" encoding="UTF-8" standalone="no"?>
<!DOCTYPE svg PUBLIC "-//W3C//DTD SVG 1.1//EN" "http://www.w3.org/Graphics/SVG/1.1/DTD/svg11.dtd">
<!-- Generated by Microsoft Visio, SVG Export Address Book Policies.svg Page-1 -->
<svg xmlns="http://www.w3.org/2000/svg" xmlns:xlink="http://www.w3.org/1999/xlink" xmlns:ev="http://www.w3.org/2001/xml-events"
		xmlns:v="http://schemas.microsoft.com/visio/2003/SVGExtensions/" width="0.890625in" height="1.01563in"
		viewBox="0 0 64.125 73.125" xml:space="preserve" color-interpolation-filters="sRGB" class="st3">
	<v:documentProperties v:langID="4108" v:metric="true" v:viewMarkup="false"/>

	<style type="text/css">
	<![CDATA[
		.st1 {fill:#ffffff;stroke:none;stroke-linecap:butt;stroke-width:0.75}
		.st2 {fill:#515150;stroke:none;stroke-linecap:butt;stroke-width:0.75}
		.st3 {fill:none;fill-rule:evenodd;font-size:12px;overflow:visible;stroke-linecap:square;stroke-miterlimit:3}
	]]>
	</style>

	<g v:mID="0" v:index="1" v:groupContext="foregroundPage">
		<title>Page-1</title>
		<v:pageProperties v:drawingScale="0.0393701" v:pageScale="0.0393701" v:drawingUnits="24" v:shadowOffsetX="8.50394"
				v:shadowOffsetY="-8.50394"/>
		<v:layer v:name="symbols" v:index="0"/>
		<g id="group352-1" transform="translate(2.8125,-7.6875)" v:mID="352" v:groupContext="group" v:layerMember="0">
			<title>Address Book Policies</title>
			<g id="group353-2" transform="translate(2.95763E-13,-4.5)" v:mID="353" v:groupContext="group" v:layerMember="0">
				<title>Sheet.353</title>
				<g id="shape354-3" v:mID="354" v:groupContext="shape" v:layerMember="0">
					<title>Sheet.354</title>
					<path d="M8.17 73.13 C8.17 73.13 8.17 73.13 8.17 73.13 L8.4 73.13 L39.37 73.13 C44.02 72.75 47.62 68.85 47.62
								 64.2 L47.62 35.63 L48.37 35.63 L48.97 35.63 C53.25 35.48 56.62 32.03 56.62 27.75 C56.62 23.48 53.17
								 19.95 48.9 19.88 L48.82 19.88 L16.87 19.88 C11.93 19.88 7.88 23.93 7.87 28.88 L7.87 56.63 C3.52
								 56.85 0 60.45 0 64.88 C-0 69.15 3.3 72.68 7.5 73.05 L8.17 73.13 Z" class="st1"/>
				</g>
				<g id="shape355-5" v:mID="355" v:groupContext="shape" v:layerMember="0" transform="translate(47.625,-39.375)">
					<title>Sheet.355</title>
					<path d="M6.23 63.83 L3.9 63.83 C1.73 63.83 0 65.55 0 67.73 L0 73.13 L0.82 73.13 C4.28 73.13 7.05 70.35 7.05
								 66.9 C7.05 65.78 6.75 64.73 6.23 63.83 Z" class="st2"/>
				</g>
				<g id="shape356-7" v:mID="356" v:groupContext="shape" v:layerMember="0" transform="translate(10.125,-2.175)">
					<title>Sheet.356</title>
					<path d="M35.25 30.15 C35.4 27.3 37.57 24.9 40.42 24.53 C40.42 24.53 40.5 24.53 40.5 24.53 C40.05 24.38 39.52
								 24.38 39.07 24.38 C38.92 24.38 38.85 24.38 38.77 24.38 C38.77 24.38 38.7 24.38 38.7 24.38 L36.75
								 24.38 L34.5 24.38 L13.12 24.38 L6.75 24.38 C3 24.38 0 27.38 0 31.13 L0 58.8 L25.5 58.8 C26.55 58.8
								 27.38 59.7 27.38 60.75 C27.38 61.5 26.92 61.8 26.92 61.8 C24.97 62.78 23.62 64.8 23.62 67.13 C23.62
								 70.35 26.18 72.98 29.4 73.13 C32.7 72.68 35.25 69.9 35.32 66.45 L35.32 30.15 L35.25 30.15 Z"
							class="st2"/>
				</g>
				<g id="shape357-9" v:mID="357" v:groupContext="shape" v:layerMember="0" transform="translate(2.175,-2.25)">
					<title>Sheet.357</title>
					<path d="M31.87 73.13 C30.3 71.63 29.32 69.53 29.32 67.13 C29.32 64.8 30.3 62.7 31.87 61.13 L6 61.13 C2.7 61.13
								 0 63.83 0 67.13 C0 70.43 2.7 73.13 6 73.13 L31.87 73.13 Z" class="st2"/>
				</g>
			</g>
			<g id="group358-11" transform="translate(25.875,0)" v:mID="358" v:groupContext="group" v:layerMember="0">
				<title>Sheet.358</title>
				<g id="shape359-12" v:mID="359" v:groupContext="shape" v:layerMember="0">
					<title>Sheet.359</title>
					<path d="M31.43 48.68 C31.05 46.8 29.4 45.38 27.38 45.38 L19.58 45.38 C18.53 45.38 17.48 45.75 16.5 46.5 C15.53
								 45.75 14.48 45.38 13.43 45.38 L5.63 45.38 C3.45 45.38 1.73 47.03 1.5 49.13 C0.6 49.8 0 50.93 0 52.13
								 L0 68.7 C0 70.8 1.65 72.38 3.75 72.38 L13.05 72.38 C13.57 72.83 14.25 73.13 15 73.13 L18 73.13 C18.75
								 73.13 19.43 72.83 19.95 72.38 L30 72.38 C32.1 72.38 33.75 70.73 33.75 68.7 L33.75 52.13 C33.75 50.55
								 32.78 49.2 31.43 48.68 Z" class="st1"/>
				</g>
				<g id="shape360-14" v:mID="360" v:groupContext="shape" v:layerMember="0" transform="translate(2.25,-2.25)">
					<title>Sheet.360</title>
					<path d="M27.75 52.88 L1.5 52.88 C0.68 52.88 0 53.55 0 54.38 L0 70.95 C-0 71.78 0.68 72.38 1.5 72.38 L12 72.38
								 C12 72.83 12.3 73.13 12.75 73.13 L15.75 73.13 C16.2 73.13 16.5 72.83 16.5 72.38 L27.75 72.38 C28.58
								 72.38 29.25 71.78 29.25 70.95 L29.25 54.38 C29.25 53.55 28.58 52.88 27.75 52.88 Z" class="st2"/>
				</g>
				<g id="shape361-16" v:mID="361" v:groupContext="shape" v:layerMember="0" transform="translate(3.75,-3.6)">
					<title>Sheet.361</title>
					<path d="M12.75 53.48 C12.08 52.35 10.95 51.23 9.68 51.23 L1.88 51.23 C0.83 51.23 0 52.05 0 53.1 L0 69.68 L0
								 72.23 L5.25 72.23 L9.38 72.23 C10.58 72.23 11.7 72.08 12.38 72.98 L12.75 73.13 L13.13 72.98 C13.8
								 72.08 14.93 72.23 16.13 72.23 L20.25 72.23 L25.5 72.23 L25.5 69.68 L25.5 53.1 C25.5 52.05 24.68
								 51.23 23.63 51.23 L15.83 51.23 C14.55 51.23 13.43 52.35 12.75 53.48 Z" class="st2"/>
				</g>
				<g id="shape362-18" v:mID="362" v:groupContext="shape" v:layerMember="0" transform="translate(5.25,-5.25)">
					<title>Sheet.362</title>
					<path d="M12 57.38 C12 56.03 13.2 54.38 15.08 54.38 L22.13 54.38 C22.35 54.38 22.5 54.53 22.5 54.75 L22.5 72.38
								 L14.63 72.38 C13.5 72.38 12.6 72.9 12 73.13 L12 57.38 ZM10.5 73.13 C9.9 72.9 9.23 72.38 7.88 72.38
								 L0 72.38 L0 54.75 C-0 54.53 0.15 54.38 0.38 54.38 L7.43 54.38 C9.38 54.38 10.5 56.1 10.5 57.38 L10.5
								 73.13 Z" class="st1"/>
				</g>
				<g id="shape363-20" v:mID="363" v:groupContext="shape" v:layerMember="0" transform="translate(29.25,-15.75)">
					<title>Sheet.363</title>
					<path d="M0 73.13 C0.45 73.13 0.75 72.83 0.75 72.38 L0.75 69.38 C0.75 68.93 0.45 68.63 0 68.63 L0 73.13 Z"
							class="st1"/>
				</g>
				<g id="shape364-22" v:mID="364" v:groupContext="shape" v:layerMember="0" transform="translate(29.25,-11.25)">
					<title>Sheet.364</title>
					<path d="M0 73.13 C0.45 73.13 0.75 72.83 0.75 72.38 L0.75 69.38 C0.75 68.93 0.45 68.63 0 68.63 L0 73.13 Z"
							class="st1"/>
				</g>
				<g id="shape365-24" v:mID="365" v:groupContext="shape" v:layerMember="0" transform="translate(29.25,-6.75)">
					<title>Sheet.365</title>
					<path d="M0 73.13 C0.45 73.13 0.75 72.83 0.75 72.38 L0.75 69.38 C0.75 68.93 0.45 68.63 0 68.63 L0 73.13 Z"
							class="st1"/>
				</g>
				<g id="group366-26" transform="translate(7.5,-9)" v:mID="366" v:groupContext="group" v:layerMember="0">
					<title>Sheet.366</title>
					<g id="group367-27" transform="translate(0,-6)" v:mID="367" v:groupContext="group" v:layerMember="0">
						<title>Sheet.367</title>
						<g id="shape368-28" v:mID="368" v:groupContext="shape" v:layerMember="0">
							<title>Sheet.368</title>
							<path d="M5.78 71.03 C5.7 70.5 5.55 70.28 5.18 70.05 C4.8 69.83 4.58 69.68 4.43 69.68 C4.35 69.68 4.35
										 69.68 4.28 69.68 C4.2 69.75 4.05 69.83 3.98 69.9 C3.98 69.9 3.98 69.9 3.9 69.9 C3.83 70.13
										 3.75 70.13 3.6 70.2 C3.38 70.28 3.23 70.28 3 70.28 C2.78 70.28 2.55 70.2 2.4 70.2 C2.33
										 70.2 2.18 70.13 2.1 70.05 C1.95 69.98 1.88 69.9 1.73 69.83 C1.65 69.83 1.65 69.83 1.58 69.83
										 C1.43 69.83 1.28 69.9 0.83 70.2 C0.45 70.43 0.3 70.65 0.23 71.18 C0.15 71.48 0 72.68 0 73.13
										 L6 73.13 C6 72.68 5.85 71.48 5.78 71.03 Z" class="st2"/>
						</g>
						<g id="shape369-30" v:mID="369" v:groupContext="shape" v:layerMember="0" transform="translate(1.5,-3.45)">
							<title>Sheet.369</title>
							<ellipse cx="1.5" cy="71.475" rx="1.5" ry="1.65" class="st2"/>
						</g>
					</g>
					<g id="shape370-32" v:mID="370" v:groupContext="shape" v:layerMember="0" transform="translate(0,-3)">
						<title>Sheet.370</title>
						<rect x="0" y="71.625" width="6" height="1.5" class="st2"/>
					</g>
					<g id="shape371-34" v:mID="371" v:groupContext="shape" v:layerMember="0">
						<title>Sheet.371</title>
						<rect x="0" y="71.625" width="6" height="1.5" class="st2"/>
					</g>
				</g>
				<g id="group372-36" transform="translate(19.5,-9)" v:mID="372" v:groupContext="group" v:layerMember="0">
					<title>Sheet.372</title>
					<g id="group373-37" transform="translate(0,-6)" v:mID="373" v:groupContext="group" v:layerMember="0">
						<title>Sheet.373</title>
						<g id="shape374-38" v:mID="374" v:groupContext="shape" v:layerMember="0">
							<title>Sheet.374</title>
							<path d="M5.78 71.03 C5.7 70.5 5.55 70.28 5.18 70.05 C4.8 69.83 4.58 69.68 4.43 69.68 C4.35 69.68 4.35
										 69.68 4.28 69.68 C4.2 69.75 4.05 69.83 3.98 69.9 C3.98 69.9 3.98 69.9 3.9 69.9 C3.83 70.13
										 3.75 70.13 3.6 70.2 C3.38 70.28 3.23 70.28 3 70.28 C2.78 70.28 2.55 70.2 2.4 70.2 C2.33
										 70.2 2.18 70.13 2.1 70.05 C1.95 69.98 1.88 69.9 1.73 69.83 C1.65 69.83 1.65 69.83 1.58 69.83
										 C1.43 69.83 1.28 69.9 0.83 70.2 C0.45 70.43 0.3 70.65 0.22 71.18 C0.15 71.48 0 72.68 0 73.13
										 L6 73.13 C6 72.68 5.85 71.48 5.78 71.03 Z" class="st2"/>
						</g>
						<g id="shape375-40" v:mID="375" v:groupContext="shape" v:layerMember="0" transform="translate(1.5,-3.45)">
							<title>Sheet.375</title>
							<ellipse cx="1.5" cy="71.475" rx="1.5" ry="1.65" class="st2"/>
						</g>
					</g>
					<g id="shape376-42" v:mID="376" v:groupContext="shape" v:layerMember="0" transform="translate(0,-3)">
						<title>Sheet.376</title>
						<rect x="0" y="71.625" width="6" height="1.5" class="st2"/>
					</g>
					<g id="shape377-44" v:mID="377" v:groupContext="shape" v:layerMember="0">
						<title>Sheet.377</title>
						<rect x="0" y="71.625" width="6" height="1.5" class="st2"/>
					</g>
				</g>
			</g>
		</g>
	</g>
</svg>
