<?xml version="1.0" encoding="UTF-8" standalone="no"?>
<!DOCTYPE svg PUBLIC "-//W3C//DTD SVG 1.1//EN" "http://www.w3.org/Graphics/SVG/1.1/DTD/svg11.dtd">
<!-- Generated by Microsoft Visio, SVG Export Certificate.svg Page-1 -->
<svg xmlns="http://www.w3.org/2000/svg" xmlns:xlink="http://www.w3.org/1999/xlink" xmlns:ev="http://www.w3.org/2001/xml-events"
		xmlns:v="http://schemas.microsoft.com/visio/2003/SVGExtensions/" width="1.08437in" height="0.921875in"
		viewBox="0 0 78.075 66.375" xml:space="preserve" color-interpolation-filters="sRGB" class="st4">
	<v:documentProperties v:langID="4108" v:metric="true" v:viewMarkup="false"/>

	<style type="text/css">
	<![CDATA[
		.st1 {fill:#ffffff;stroke:none;stroke-linecap:butt;stroke-width:0.75}
		.st2 {fill:#515150;stroke:none;stroke-linecap:butt;stroke-width:0.75}
		.st3 {fill:#515251;stroke:none;stroke-linecap:butt;stroke-width:0.75}
		.st4 {fill:none;fill-rule:evenodd;font-size:12px;overflow:visible;stroke-linecap:square;stroke-miterlimit:3}
	]]>
	</style>

	<g v:mID="0" v:index="1" v:groupContext="foregroundPage">
		<title>Page-1</title>
		<v:pageProperties v:drawingScale="0.0393701" v:pageScale="0.0393701" v:drawingUnits="24" v:shadowOffsetX="8.50394"
				v:shadowOffsetY="-8.50394"/>
		<v:layer v:name="symbols" v:index="0"/>
		<g id="group19-1" transform="translate(10.125,-3.9375)" v:mID="19" v:groupContext="group" v:layerMember="0">
			<title>Certificate</title>
			<g id="group20-2" v:mID="20" v:groupContext="group" v:layerMember="0">
				<title>Sheet.20</title>
				<g id="shape21-3" v:mID="21" v:groupContext="shape" v:layerMember="0" transform="translate(0,-12.75)">
					<title>Sheet.21</title>
					<path d="M16.5 25.12 L14.25 25.12 L12.6 25.12 L0 37.73 L0 39.38 L0 41.62 L0 66.37 L35.62 66.37 L54 42.15 L54
								 25.12 L16.5 25.12 Z" class="st1"/>
				</g>
				<g id="shape22-5" v:mID="22" v:groupContext="shape" v:layerMember="0" transform="translate(2.25,-15)">
					<title>Sheet.22</title>
					<path d="M0 43.87 L0 61.13 L0 63.37 L0 66.37 L3 66.37 L6 66.37 L32.25 66.37 L49.5 43.65 L49.5 34.87 L49.5 32.62
								 L49.5 29.62 L46.5 29.62 L43.5 29.62 L14.25 29.62 L14.25 43.87 L0 43.87 Z" class="st2"/>
				</g>
				<g id="shape23-7" v:mID="23" v:groupContext="shape" v:layerMember="0" transform="translate(27.75,0)">
					<title>Sheet.23</title>
					<path d="M0 61.5 L1.73 63.52 L8.02 62.47 L11.78 66.38 L14.47 66.38 L16.95 57.38 L20.25 66.38 L22.43 66.38 L26.33
								 60.97 L33.38 62.47 L35.25 60.23 L26.55 47.85 C29.03 45.3 30.37 41.92 30.37 38.25 C30.37 30.6 24.15
								 24.37 16.5 24.37 C8.85 24.37 2.63 30.6 2.63 38.25 C2.63 42.07 4.2 45.68 6.97 48.3 L0 61.5 Z"
							class="st1"/>
				</g>
				<g id="shape24-9" v:mID="24" v:groupContext="shape" v:layerMember="0" transform="translate(2.25,-39.75)">
					<title>Sheet.24</title>
					<path d="M0 65.63 L0 66.37 L12 66.37 L12 54.38 L11.25 54.38 L0 65.63 Z" class="st2"/>
				</g>
				<g id="shape25-11" v:mID="25" v:groupContext="shape" v:layerMember="0" transform="translate(30.525,-2.25)">
					<title>Sheet.25</title>
					<path d="M20.78 49.73 C23.55 47.63 25.35 44.25 25.35 40.5 C25.35 34.13 20.18 28.88 13.73 28.88 C7.35 28.88 2.1
								 34.13 2.1 40.5 C2.1 44.4 4.05 47.85 7.05 49.95 L0 63.3 L6.07 62.25 L9.97 66.38 L13.87 52.35 L18.83
								 65.92 L22.58 60.75 L29.4 62.33 L20.78 49.73 ZM4.35 40.5 C4.35 35.33 8.55 31.13 13.73 31.13 C18.9
								 31.13 23.1 35.33 23.1 40.5 C23.1 45.68 18.9 49.88 13.73 49.88 C8.55 49.88 4.35 45.68 4.35 40.5 Z"
							class="st2"/>
				</g>
				<g id="shape26-13" v:mID="26" v:groupContext="shape" v:layerMember="0" transform="translate(37.125,-21)">
					<title>Sheet.26</title>
					<path d="M7.13 53.62 C10.2 53.62 12.75 56.17 12.75 59.25 C12.75 62.32 10.28 64.87 7.13 64.87 C3.98 64.87 1.5
								 62.32 1.5 59.25 C1.5 56.17 4.05 53.62 7.13 53.62 ZM7.13 52.12 C3.22 52.12 0 55.35 0 59.25 C0 63.15
								 3.22 66.37 7.13 66.37 C11.03 66.37 14.25 63.15 14.25 59.25 C14.25 55.35 11.1 52.12 7.13 52.12 Z"
							class="st3"/>
				</g>
				<g id="shape27-15" v:mID="27" v:groupContext="shape" v:layerMember="0" transform="translate(2.25,-39.75)">
					<title>Sheet.27</title>
					<path d="M0 65.63 L0 66.37 L12 66.37 L12 54.38 L11.25 54.38 L0 65.63 Z" class="st2"/>
				</g>
			</g>
		</g>
	</g>
</svg>
