<?xml version="1.0" encoding="UTF-8" standalone="no"?>
<!DOCTYPE svg PUBLIC "-//W3C//DTD SVG 1.1//EN" "http://www.w3.org/Graphics/SVG/1.1/DTD/svg11.dtd">
<!-- Generated by Microsoft Visio, SVG Export Credentials.svg Page-1 -->
<svg xmlns="http://www.w3.org/2000/svg" xmlns:xlink="http://www.w3.org/1999/xlink" xmlns:ev="http://www.w3.org/2001/xml-events"
		xmlns:v="http://schemas.microsoft.com/visio/2003/SVGExtensions/" width="0.984375in" height="1in" viewBox="0 0 70.875 72"
		xml:space="preserve" color-interpolation-filters="sRGB" class="st4">
	<v:documentProperties v:langID="4108" v:metric="true" v:viewMarkup="false"/>

	<style type="text/css">
	<![CDATA[
		.st1 {fill:#ffffff;stroke:none;stroke-linecap:butt;stroke-width:0.75}
		.st2 {fill:#515251;stroke:none;stroke-linecap:butt;stroke-width:0.75}
		.st3 {fill:#515150;stroke:none;stroke-linecap:butt;stroke-width:0.75}
		.st4 {fill:none;fill-rule:evenodd;font-size:12px;overflow:visible;stroke-linecap:square;stroke-miterlimit:3}
	]]>
	</style>

	<g v:mID="0" v:index="1" v:groupContext="foregroundPage">
		<title>Page-1</title>
		<v:pageProperties v:drawingScale="0.0393701" v:pageScale="0.0393701" v:drawingUnits="24" v:shadowOffsetX="8.50394"
				v:shadowOffsetY="-8.50394"/>
		<v:layer v:name="symbols" v:index="0"/>
		<g id="group38-1" transform="translate(6.825,-1.6875)" v:mID="38" v:groupContext="group" v:layerMember="0">
			<title>Credentials</title>
			<g id="group39-2" v:mID="39" v:groupContext="group" v:layerMember="0">
				<title>Sheet.39</title>
				<g id="group40-3" transform="translate(3.03757E-13,-8.25)" v:mID="40" v:groupContext="group" v:layerMember="0">
					<title>Sheet.40</title>
					<g id="shape41-4" v:mID="41" v:groupContext="shape" v:layerMember="0">
						<title>Sheet.41</title>
						<path d="M50.92 72 L50.77 69.6 C50.55 65.92 49.65 58.27 48.82 54.75 C47.92 50.85 46.73 48.15 42.97 46.05
									 L41.62 45.3 C39 43.8 37.88 43.12 36.37 43.12 C35.55 43.12 34.87 43.27 34.13 43.65 L33 44.25
									 L33.9 43.5 C36.97 40.8 38.93 36.67 38.93 32.02 C39 23.85 32.93 17.25 25.5 17.25 L25.42 17.25
									 C18 17.25 11.93 23.85 11.93 32.02 C11.93 36.67 13.87 40.8 16.95 43.5 L17.85 44.25 L16.65 43.65
									 C15.97 43.27 15.23 43.12 14.4 43.12 C12.9 43.12 11.7 43.8 9.15 45.3 L7.8 46.05 C4.2 48.22 3
									 50.85 2.1 54.75 C1.28 58.27 0.45 65.92 0.15 69.6 L0 72 L50.92 72 Z" class="st1"/>
					</g>
					<g id="shape42-6" v:mID="42" v:groupContext="shape" v:layerMember="0" transform="translate(2.625,-2.325)">
						<title>Sheet.42</title>
						<path d="M44.03 57.6 C43.13 53.77 42.15 51.97 39.3 50.4 C36.45 48.75 34.88 47.77 33.82 47.77 C33.38 47.77
									 33 47.85 32.7 48.07 C32.02 48.67 31.27 49.27 30.45 49.72 C30.45 49.72 30.45 49.72 30.45 49.72
									 C30.3 49.8 30.15 49.87 30.07 49.95 C29.25 50.47 28.43 50.77 27.67 51.07 C26.18 51.6 24.6 51.9
									 22.95 51.9 C21.3 51.9 19.72 51.6 18.22 51.07 C17.4 50.85 16.65 50.47 15.83 49.95 C14.85 49.42
									 13.95 48.75 13.2 48 C12.9 47.85 12.52 47.7 12.08 47.7 C11.02 47.7 9.9 48.45 6.6 50.32 C3.75
									 51.97 2.7 53.77 1.87 57.52 C1.12 60.82 0.23 68.4 0 72 L46.13 72 C45.6 68.47 44.77 60.9 44.03
									 57.6 Z" class="st2"/>
					</g>
					<g id="shape43-8" v:mID="43" v:groupContext="shape" v:layerMember="0" transform="translate(14.175,-27.525)">
						<title>Sheet.43</title>
						<path d="M11.25 72 C5.02 72 0 66.37 0 59.47 C0 52.57 5.1 47.02 11.25 47.02 C17.47 47.02 22.5 52.65 22.5 59.55
									 C22.5 66.45 17.47 72 11.25 72 Z" class="st2"/>
					</g>
				</g>
				<g id="group44-10" transform="translate(29.1,0)" v:mID="44" v:groupContext="group" v:layerMember="0">
					<title>Sheet.44</title>
					<g id="shape45-11" v:mID="45" v:groupContext="shape" v:layerMember="0">
						<title>Sheet.45</title>
						<path d="M16.12 72 C7.2 72 0 64.8 0 55.87 C0 46.95 7.2 39.75 16.12 39.75 C25.05 39.75 32.25 46.95 32.25 55.87
									 C32.25 64.8 24.97 72 16.12 72 Z" class="st1"/>
					</g>
					<g id="shape46-13" v:mID="46" v:groupContext="shape" v:layerMember="0" transform="translate(2.25,-2.25)">
						<title>Sheet.46</title>
						<path d="M13.87 44.25 C6.15 44.25 0 50.47 0 58.12 C0 65.77 6.15 72 13.87 72 C21.53 72 27.75 65.77 27.75 58.12
									 C27.75 50.47 21.53 44.25 13.87 44.25 ZM22.57 52.42 L11.92 66 L5.4 58.57 C5.25 58.35 5.25 58.05
									 5.4 57.9 L7.13 56.32 C7.27 56.17 7.57 56.17 7.8 56.4 L11.92 60.9 L19.95 50.25 C20.1 50.02 20.4
									 50.02 20.62 50.17 L22.42 51.67 C22.65 51.9 22.72 52.2 22.57 52.42 Z" class="st3"/>
					</g>
				</g>
			</g>
		</g>
	</g>
</svg>
