<?xml version="1.0" encoding="UTF-8" standalone="no"?>
<!DOCTYPE svg PUBLIC "-//W3C//DTD SVG 1.1//EN" "http://www.w3.org/Graphics/SVG/1.1/DTD/svg11.dtd">
<!-- Generated by Microsoft Visio, SVG Export Domain.svg Page-1 -->
<svg xmlns="http://www.w3.org/2000/svg" xmlns:xlink="http://www.w3.org/1999/xlink" xmlns:ev="http://www.w3.org/2001/xml-events"
		xmlns:v="http://schemas.microsoft.com/visio/2003/SVGExtensions/" width="0.828125in" height="0.921875in"
		viewBox="0 0 59.625 66.375" xml:space="preserve" color-interpolation-filters="sRGB" class="st3">
	<v:documentProperties v:langID="4108" v:metric="true" v:viewMarkup="false"/>

	<style type="text/css">
	<![CDATA[
		.st1 {fill:#ffffff;stroke:none;stroke-linecap:butt;stroke-width:0.75}
		.st2 {fill:#515150;stroke:none;stroke-linecap:butt;stroke-width:0.75}
		.st3 {fill:none;fill-rule:evenodd;font-size:12px;overflow:visible;stroke-linecap:square;stroke-miterlimit:3}
	]]>
	</style>

	<g v:mID="0" v:index="1" v:groupContext="foregroundPage">
		<title>Page-1</title>
		<v:pageProperties v:drawingScale="0.0393701" v:pageScale="0.0393701" v:drawingUnits="24" v:shadowOffsetX="8.50394"
				v:shadowOffsetY="-8.50394"/>
		<v:layer v:name="symbols" v:index="0"/>
		<g id="group47-1" transform="translate(1.6875,-8.0625)" v:mID="47" v:groupContext="group" v:layerMember="0">
			<title>Domain</title>
			<g id="group48-2" v:mID="48" v:groupContext="group" v:layerMember="0">
				<title>Sheet.48</title>
				<g id="shape49-3" v:mID="49" v:groupContext="shape" v:layerMember="0">
					<title>Sheet.49</title>
					<path d="M4.73 66.37 C2.93 66.37 1.5 65.62 0.75 64.35 C-0 63.07 0.07 61.42 0.97 59.85 L24.45 18.6 C25.35 17.02
								 26.7 16.12 28.27 16.12 C29.85 16.12 31.2 17.02 32.1 18.6 L55.57 59.85 C56.47 61.42 56.55 63 55.8
								 64.35 C55.05 65.62 53.55 66.37 51.82 66.37 L4.73 66.37 Z" class="st1"/>
				</g>
				<g id="shape50-5" v:mID="50" v:groupContext="shape" v:layerMember="0" transform="translate(1.875,-2.25)">
					<title>Sheet.50</title>
					<path d="M2.85 66.37 C0.83 66.37 0 64.95 0.97 63.15 L24.45 21.9 C25.43 20.17 27.15 20.17 28.12 21.9 L51.6 63.15
								 C52.57 64.87 51.75 66.37 49.72 66.37 L2.85 66.37 Z" class="st2"/>
				</g>
			</g>
		</g>
	</g>
</svg>
