<?xml version="1.0" encoding="UTF-8" standalone="no"?>
<!DOCTYPE svg PUBLIC "-//W3C//DTD SVG 1.1//EN" "http://www.w3.org/Graphics/SVG/1.1/DTD/svg11.dtd">
<!-- Generated by Microsoft Visio, SVG Export Email Address Policy.svg Page-1 -->
<svg xmlns="http://www.w3.org/2000/svg" xmlns:xlink="http://www.w3.org/1999/xlink" xmlns:ev="http://www.w3.org/2001/xml-events"
		xmlns:v="http://schemas.microsoft.com/visio/2003/SVGExtensions/" width="0.90625in" height="1.01563in"
		viewBox="0 0 65.25 73.125" xml:space="preserve" color-interpolation-filters="sRGB" class="st3">
	<v:documentProperties v:langID="4108" v:metric="true" v:viewMarkup="false"/>

	<style type="text/css">
	<![CDATA[
		.st1 {fill:#ffffff;stroke:none;stroke-linecap:butt;stroke-width:0.75}
		.st2 {fill:#515150;stroke:none;stroke-linecap:butt;stroke-width:0.75}
		.st3 {fill:none;fill-rule:evenodd;font-size:12px;overflow:visible;stroke-linecap:square;stroke-miterlimit:3}
	]]>
	</style>

	<g v:mID="0" v:index="1" v:groupContext="foregroundPage">
		<title>Page-1</title>
		<v:pageProperties v:drawingScale="0.0393701" v:pageScale="0.0393701" v:drawingUnits="24" v:shadowOffsetX="8.50394"
				v:shadowOffsetY="-8.50394"/>
		<v:layer v:name="symbols" v:index="0"/>
		<g id="group378-1" transform="translate(1.6875,-7.6875)" v:mID="378" v:groupContext="group" v:layerMember="0">
			<title>Email Address Policy</title>
			<g id="group379-2" transform="translate(2.95763E-13,-4.5)" v:mID="379" v:groupContext="group" v:layerMember="0">
				<title>Sheet.379</title>
				<g id="shape380-3" v:mID="380" v:groupContext="shape" v:layerMember="0">
					<title>Sheet.380</title>
					<path d="M8.17 73.13 C8.17 73.13 8.17 73.13 8.17 73.13 L8.4 73.13 L39.37 73.13 C44.02 72.75 47.62 68.85 47.62
								 64.2 L47.62 35.63 L48.37 35.63 L48.97 35.63 C53.25 35.48 56.62 32.03 56.62 27.75 C56.62 23.48 53.17
								 19.95 48.9 19.88 L48.82 19.88 L16.87 19.88 C11.93 19.88 7.88 23.93 7.87 28.88 L7.87 56.63 C3.52
								 56.85 0 60.45 0 64.88 C-0 69.15 3.3 72.68 7.5 73.05 L8.17 73.13 Z" class="st1"/>
				</g>
				<g id="shape381-5" v:mID="381" v:groupContext="shape" v:layerMember="0" transform="translate(47.625,-39.375)">
					<title>Sheet.381</title>
					<path d="M6.23 63.83 L3.9 63.83 C1.73 63.83 0 65.55 0 67.73 L0 73.13 L0.82 73.13 C4.28 73.13 7.05 70.35 7.05
								 66.9 C7.05 65.78 6.75 64.73 6.23 63.83 Z" class="st2"/>
				</g>
				<g id="shape382-7" v:mID="382" v:groupContext="shape" v:layerMember="0" transform="translate(10.125,-2.175)">
					<title>Sheet.382</title>
					<path d="M35.25 30.15 C35.4 27.3 37.57 24.9 40.42 24.53 C40.42 24.53 40.5 24.53 40.5 24.53 C40.05 24.38 39.52
								 24.38 39.07 24.38 C38.92 24.38 38.85 24.38 38.77 24.38 C38.77 24.38 38.7 24.38 38.7 24.38 L36.75
								 24.38 L34.5 24.38 L13.12 24.38 L6.75 24.38 C3 24.38 0 27.38 0 31.13 L0 58.8 L25.5 58.8 C26.55 58.8
								 27.38 59.7 27.38 60.75 C27.38 61.5 26.92 61.8 26.92 61.8 C24.97 62.78 23.62 64.8 23.62 67.13 C23.62
								 70.35 26.18 72.98 29.4 73.13 C32.7 72.68 35.25 69.9 35.32 66.45 L35.32 30.15 L35.25 30.15 Z"
							class="st2"/>
				</g>
				<g id="shape383-9" v:mID="383" v:groupContext="shape" v:layerMember="0" transform="translate(2.175,-2.25)">
					<title>Sheet.383</title>
					<path d="M31.87 73.13 C30.3 71.63 29.32 69.53 29.32 67.13 C29.32 64.8 30.3 62.7 31.87 61.13 L6 61.13 C2.7 61.13
								 0 63.83 0 67.13 C0 70.43 2.7 73.13 6 73.13 L31.87 73.13 Z" class="st2"/>
				</g>
			</g>
			<g id="group384-11" transform="translate(25.875,0)" v:mID="384" v:groupContext="group" v:layerMember="0">
				<title>Sheet.384</title>
				<g id="shape385-12" v:mID="385" v:groupContext="shape" v:layerMember="0">
					<title>Sheet.385</title>
					<rect x="0" y="45.375" width="33.75" height="27.75" class="st1"/>
				</g>
				<g id="shape386-14" v:mID="386" v:groupContext="shape" v:layerMember="0" transform="translate(2.25,-2.25)">
					<title>Sheet.386</title>
					<path d="M0 49.88 L0 73.13 L29.25 73.13 L29.25 49.88 L0 49.88 ZM27.75 71.63 L1.5 71.63 L1.5 51.38 L27.75 51.38
								 L27.75 71.63 Z" class="st2"/>
				</g>
				<g id="shape387-16" v:mID="387" v:groupContext="shape" v:layerMember="0" transform="translate(24,-17.25)">
					<title>Sheet.387</title>
					<rect x="0" y="68.625" width="3.75" height="4.5" class="st2"/>
				</g>
				<g id="shape388-18" v:mID="388" v:groupContext="shape" v:layerMember="0" transform="translate(8.25,-12)">
					<title>Sheet.388</title>
					<rect x="0" y="71.625" width="11.25" height="1.5" class="st2"/>
				</g>
				<g id="shape389-20" v:mID="389" v:groupContext="shape" v:layerMember="0" transform="translate(8.25,-8.25)">
					<title>Sheet.389</title>
					<rect x="0" y="71.625" width="15" height="1.5" class="st2"/>
				</g>
			</g>
		</g>
	</g>
</svg>
