<?xml version="1.0" encoding="UTF-8" standalone="no"?>
<!DOCTYPE svg PUBLIC "-//W3C//DTD SVG 1.1//EN" "http://www.w3.org/Graphics/SVG/1.1/DTD/svg11.dtd">
<!-- Generated by Microsoft Visio, SVG Export Federation Trust.svg Page-1 -->
<svg xmlns="http://www.w3.org/2000/svg" xmlns:xlink="http://www.w3.org/1999/xlink" xmlns:ev="http://www.w3.org/2001/xml-events"
		xmlns:v="http://schemas.microsoft.com/visio/2003/SVGExtensions/" width="1.03125in" height="1.01562in"
		viewBox="0 0 74.25 73.125" xml:space="preserve" color-interpolation-filters="sRGB" class="st5">
	<v:documentProperties v:langID="4108" v:metric="true" v:viewMarkup="false"/>

	<style type="text/css">
	<![CDATA[
		.st1 {fill:#ffffff;stroke:none;stroke-linecap:butt;stroke-width:0.75}
		.st2 {fill:#535352;stroke:none;stroke-linecap:butt;stroke-width:0.75}
		.st3 {fill:#515150;stroke:none;stroke-linecap:butt;stroke-width:0.75}
		.st4 {fill:#515050;stroke:none;stroke-linecap:butt;stroke-width:0.75}
		.st5 {fill:none;fill-rule:evenodd;font-size:12px;overflow:visible;stroke-linecap:square;stroke-miterlimit:3}
	]]>
	</style>

	<g v:mID="0" v:index="1" v:groupContext="foregroundPage">
		<title>Page-1</title>
		<v:pageProperties v:drawingScale="0.0393701" v:pageScale="0.0393701" v:drawingUnits="24" v:shadowOffsetX="8.50394"
				v:shadowOffsetY="-8.50394"/>
		<v:layer v:name="symbols" v:index="0"/>
		<g id="group66-1" transform="translate(9.5625,-3.5625)" v:mID="66" v:groupContext="group" v:layerMember="0">
			<title>Federation Trust</title>
			<g id="group67-2" transform="translate(0,-5.25)" v:mID="67" v:groupContext="group" v:layerMember="0">
				<title>Sheet.67</title>
				<g id="shape68-3" v:mID="68" v:groupContext="shape" v:layerMember="0">
					<title>Sheet.68</title>
					<path d="M21.75 25.12 L21.75 14.62 L0 14.62 L0 73.12 L37.5 73.12 L37.5 37.12 L35.25 37.12 L35.25 31.12 L33 31.12
								 L33 25.12 L30.75 25.12 L30.75 18.37 L24 18.37 L24 25.12 L21.75 25.12 Z" class="st1"/>
				</g>
				<g id="shape69-5" v:mID="69" v:groupContext="shape" v:layerMember="0" transform="translate(2.25,-2.25)">
					<title>Sheet.69</title>
					<path d="M30.75 41.62 L30.75 35.62 L28.5 35.62 L28.5 29.62 L26.25 29.62 L26.25 22.87 L24 22.87 L24 29.62 L21.75
								 29.62 L21.75 35.62 L19.5 35.62 L19.5 41.62 L17.25 41.62 L17.25 19.12 L0 19.12 L0 73.12 L33 73.12
								 L33 41.62 L30.75 41.62 ZM6.75 60.37 L3.75 60.37 L3.75 57.37 L6.75 57.37 L6.75 60.37 ZM6.75 53.62
								 L3.75 53.62 L3.75 50.62 L6.75 50.62 L6.75 53.62 ZM6.75 46.87 L3.75 46.87 L3.75 43.87 L6.75 43.87
								 L6.75 46.87 ZM6.75 40.12 L3.75 40.12 L3.75 37.12 L6.75 37.12 L6.75 40.12 ZM6.75 33.37 L3.75 33.37
								 L3.75 30.37 L6.75 30.37 L6.75 33.37 ZM6.75 26.62 L3.75 26.62 L3.75 23.62 L6.75 23.62 L6.75 26.62
								 ZM13.5 60.37 L10.5 60.37 L10.5 57.37 L13.5 57.37 L13.5 60.37 ZM13.5 53.62 L10.5 53.62 L10.5 50.62
								 L13.5 50.62 L13.5 53.62 ZM13.5 46.87 L10.5 46.87 L10.5 43.87 L13.5 43.87 L13.5 46.87 ZM13.5 40.12
								 L10.5 40.12 L10.5 37.12 L13.5 37.12 L13.5 40.12 ZM13.5 33.37 L10.5 33.37 L10.5 30.37 L13.5 30.37
								 L13.5 33.37 ZM13.5 26.62 L10.5 26.62 L10.5 23.62 L13.5 23.62 L13.5 26.62 ZM23.25 58.12 L20.25 58.12
								 L20.25 55.12 L23.25 55.12 L23.25 58.12 ZM23.25 47.62 L20.25 47.62 L20.25 44.62 L23.25 44.62 L23.25
								 47.62 ZM29.25 52.87 L26.25 52.87 L26.25 49.87 L29.25 49.87 L29.25 52.87 Z" class="st2"/>
				</g>
			</g>
			<g id="group70-7" transform="translate(33,-35.25)" v:mID="70" v:groupContext="group" v:layerMember="0">
				<title>Sheet.70</title>
				<g id="shape71-8" v:mID="71" v:groupContext="shape" v:layerMember="0">
					<title>Sheet.71</title>
					<path d="M22.5 58.12 L24 58.12 L24 50.62 L13.5 50.62 L14.85 49.27 L14.85 46.12 L7.87 46.12 L0 54.3 L6.45 61.12
								 L5.25 61.12 L5.25 68.62 L15.38 68.62 L14.1 69.97 L14.1 73.12 L21 73.12 L28.88 64.95 L22.5 58.12
								 Z" class="st1"/>
				</g>
				<g id="shape72-10" v:mID="72" v:groupContext="shape" v:layerMember="0" transform="translate(3.075,-12.75)">
					<title>Sheet.72</title>
					<path d="M18.68 65.62 L8.78 65.62 L5.02 65.62 L9.53 61.12 L5.77 61.12 L0 67.12 L5.77 73.12 L9.53 73.12 L5.02
								 68.62 L8.78 68.62 L18.68 68.62 L18.68 65.62 Z" class="st3"/>
				</g>
				<g id="shape73-12" v:mID="73" v:groupContext="shape" v:layerMember="0" transform="translate(7.5,-2.25)">
					<title>Sheet.73</title>
					<path d="M0 68.62 L9.6 68.62 L13.35 68.62 L8.85 73.12 L12.6 73.12 L18.3 67.12 L12.6 61.12 L8.85 61.12 L13.35
								 65.62 L9.6 65.62 L0 65.62 L0 68.62 Z" class="st3"/>
				</g>
			</g>
			<g id="group74-14" transform="translate(30,1.42109E-14)" v:mID="74" v:groupContext="group" v:layerMember="0">
				<title>Sheet.74</title>
				<g id="shape75-15" v:mID="75" v:groupContext="shape" v:layerMember="0">
					<title>Sheet.75</title>
					<path d="M16.13 73.12 C7.2 73.12 0 65.92 0 57 C0 48.07 7.2 40.87 16.13 40.87 C25.05 40.87 32.25 48.07 32.25 57
								 C32.25 65.92 25.05 73.12 16.13 73.12 Z" class="st1"/>
				</g>
				<g id="shape76-17" v:mID="76" v:groupContext="shape" v:layerMember="0" transform="translate(2.25,-2.25)">
					<title>Sheet.76</title>
					<path d="M13.88 45.37 C6.22 45.37 0 51.6 0 59.25 C0 66.9 6.22 73.12 13.88 73.12 C21.53 73.12 27.75 66.9 27.75
								 59.25 C27.75 51.6 21.53 45.37 13.88 45.37 ZM22.58 53.55 L11.93 67.12 L5.4 59.7 C5.25 59.47 5.25
								 59.17 5.4 59.02 L7.13 57.45 C7.27 57.3 7.57 57.3 7.8 57.52 L11.93 62.02 L19.95 51.37 C20.1 51.15
								 20.4 51.15 20.63 51.3 L22.43 52.8 C22.73 53.02 22.73 53.32 22.58 53.55 Z" class="st4"/>
				</g>
			</g>
		</g>
	</g>
</svg>
