<?xml version="1.0" encoding="UTF-8" standalone="no"?>
<!DOCTYPE svg PUBLIC "-//W3C//DTD SVG 1.1//EN" "http://www.w3.org/Graphics/SVG/1.1/DTD/svg11.dtd">
<!-- Generated by Microsoft Visio, SVG Export Federation Service.svg Page-1 -->
<svg xmlns="http://www.w3.org/2000/svg" xmlns:xlink="http://www.w3.org/1999/xlink" xmlns:ev="http://www.w3.org/2001/xml-events"
		xmlns:v="http://schemas.microsoft.com/visio/2003/SVGExtensions/" width="1.03125in" height="1.03125in"
		viewBox="0 0 74.25 74.25" xml:space="preserve" color-interpolation-filters="sRGB" class="st4">
	<v:documentProperties v:langID="4108" v:metric="true" v:viewMarkup="false"/>

	<style type="text/css">
	<![CDATA[
		.st1 {fill:#ffffff;stroke:none;stroke-linecap:butt;stroke-width:0.75}
		.st2 {fill:#535352;stroke:none;stroke-linecap:butt;stroke-width:0.75}
		.st3 {fill:#515150;stroke:none;stroke-linecap:butt;stroke-width:0.75}
		.st4 {fill:none;fill-rule:evenodd;font-size:12px;overflow:visible;stroke-linecap:square;stroke-miterlimit:3}
	]]>
	</style>

	<g v:mID="0" v:index="1" v:groupContext="foregroundPage">
		<title>Page-1</title>
		<v:pageProperties v:drawingScale="0.0393701" v:pageScale="0.0393701" v:drawingUnits="24" v:shadowOffsetX="8.50394"
				v:shadowOffsetY="-8.50394"/>
		<v:layer v:name="symbols" v:index="0"/>
		<g id="group55-1" transform="translate(9.3,-3.5625)" v:mID="55" v:groupContext="group" v:layerMember="0">
			<title>Federation Service</title>
			<g id="group56-2" transform="translate(0,-5.25)" v:mID="56" v:groupContext="group" v:layerMember="0">
				<title>Sheet.56</title>
				<g id="shape57-3" v:mID="57" v:groupContext="shape" v:layerMember="0">
					<title>Sheet.57</title>
					<path d="M21.75 26.25 L21.75 15.75 L0 15.75 L0 74.25 L37.5 74.25 L37.5 38.25 L35.25 38.25 L35.25 32.25 L33 32.25
								 L33 26.25 L30.75 26.25 L30.75 19.5 L24 19.5 L24 26.25 L21.75 26.25 Z" class="st1"/>
				</g>
				<g id="shape58-5" v:mID="58" v:groupContext="shape" v:layerMember="0" transform="translate(2.25,-2.25)">
					<title>Sheet.58</title>
					<path d="M30.75 42.75 L30.75 36.75 L28.5 36.75 L28.5 30.75 L26.25 30.75 L26.25 24 L24 24 L24 30.75 L21.75 30.75
								 L21.75 36.75 L19.5 36.75 L19.5 42.75 L17.25 42.75 L17.25 20.25 L0 20.25 L0 74.25 L33 74.25 L33 42.75
								 L30.75 42.75 ZM6.75 61.5 L3.75 61.5 L3.75 58.5 L6.75 58.5 L6.75 61.5 ZM6.75 54.75 L3.75 54.75 L3.75
								 51.75 L6.75 51.75 L6.75 54.75 ZM6.75 48 L3.75 48 L3.75 45 L6.75 45 L6.75 48 ZM6.75 41.25 L3.75 41.25
								 L3.75 38.25 L6.75 38.25 L6.75 41.25 ZM6.75 34.5 L3.75 34.5 L3.75 31.5 L6.75 31.5 L6.75 34.5 ZM6.75
								 27.75 L3.75 27.75 L3.75 24.75 L6.75 24.75 L6.75 27.75 ZM13.5 61.5 L10.5 61.5 L10.5 58.5 L13.5 58.5
								 L13.5 61.5 ZM13.5 54.75 L10.5 54.75 L10.5 51.75 L13.5 51.75 L13.5 54.75 ZM13.5 48 L10.5 48 L10.5
								 45 L13.5 45 L13.5 48 ZM13.5 41.25 L10.5 41.25 L10.5 38.25 L13.5 38.25 L13.5 41.25 ZM13.5 34.5 L10.5
								 34.5 L10.5 31.5 L13.5 31.5 L13.5 34.5 ZM13.5 27.75 L10.5 27.75 L10.5 24.75 L13.5 24.75 L13.5 27.75
								 ZM23.25 59.25 L20.25 59.25 L20.25 56.25 L23.25 56.25 L23.25 59.25 ZM23.25 48.75 L20.25 48.75 L20.25
								 45.75 L23.25 45.75 L23.25 48.75 ZM29.25 54 L26.25 54 L26.25 51 L29.25 51 L29.25 54 Z" class="st2"/>
				</g>
			</g>
			<g id="group59-7" transform="translate(33,-35.25)" v:mID="59" v:groupContext="group" v:layerMember="0">
				<title>Sheet.59</title>
				<g id="shape60-8" v:mID="60" v:groupContext="shape" v:layerMember="0">
					<title>Sheet.60</title>
					<path d="M22.5 59.25 L24 59.25 L24 51.75 L13.5 51.75 L14.85 50.4 L14.85 47.25 L7.87 47.25 L0 55.43 L6.45 62.25
								 L5.25 62.25 L5.25 69.75 L15.37 69.75 L14.1 71.1 L14.1 74.25 L21 74.25 L28.87 66.08 L22.5 59.25 Z"
							class="st1"/>
				</g>
				<g id="shape61-10" v:mID="61" v:groupContext="shape" v:layerMember="0" transform="translate(3.075,-12.75)">
					<title>Sheet.61</title>
					<path d="M18.67 66.75 L8.77 66.75 L5.02 66.75 L9.52 62.25 L5.77 62.25 L0 68.25 L5.77 74.25 L9.52 74.25 L5.02
								 69.75 L8.77 69.75 L18.67 69.75 L18.67 66.75 Z" class="st3"/>
				</g>
				<g id="shape62-12" v:mID="62" v:groupContext="shape" v:layerMember="0" transform="translate(7.5,-2.25)">
					<title>Sheet.62</title>
					<path d="M0 69.75 L9.6 69.75 L13.35 69.75 L8.85 74.25 L12.6 74.25 L18.3 68.25 L12.6 62.25 L8.85 62.25 L13.35
								 66.75 L9.6 66.75 L0 66.75 L0 69.75 Z" class="st3"/>
				</g>
			</g>
			<g id="group63-14" transform="translate(28.575,1.42109E-14)" v:mID="63" v:groupContext="group" v:layerMember="0">
				<title>Sheet.63</title>
				<g id="shape64-15" v:mID="64" v:groupContext="shape" v:layerMember="0">
					<title>Sheet.64</title>
					<path d="M20.85 74.25 C19.65 74.25 18.53 73.5 18.08 72.38 L17.4 70.8 C17.25 70.8 17.02 70.8 16.8 70.8 C16.57
								 70.8 16.35 70.8 16.12 70.8 L15.45 72.38 C15.08 73.5 13.95 74.25 12.75 74.25 C12.38 74.25 11.93 74.18
								 11.63 74.03 L8.77 72.83 C8.03 72.53 7.42 71.93 7.12 71.18 C6.83 70.43 6.83 69.6 7.12 68.85 L7.8
								 67.28 L6.97 66.45 L5.4 67.13 C5.03 67.28 4.65 67.35 4.28 67.35 C3.08 67.35 1.95 66.6 1.5 65.48 L0.3
								 62.63 C-0 61.88 0 61.05 0.3 60.3 C0.6 59.55 1.2 58.95 1.95 58.65 L3.52 57.98 L3.52 56.78 L1.95 56.1
								 C1.2 55.8 0.6 55.2 0.3 54.45 C-0 53.7 0 52.88 0.3 52.13 L1.5 49.28 C1.95 48.15 3.08 47.4 4.28 47.4
								 C4.65 47.4 5.03 47.48 5.4 47.63 L6.97 48.3 L7.8 47.48 L7.12 45.9 C6.83 45.15 6.83 44.33 7.12 43.58
								 C7.42 42.83 8.03 42.23 8.77 41.93 L11.63 40.73 C12 40.58 12.38 40.5 12.75 40.5 C13.95 40.5 15.08
								 41.25 15.53 42.38 L16.12 43.88 C16.28 43.88 16.5 43.88 16.73 43.88 C16.95 43.88 17.18 43.88 17.4
								 43.88 L18 42.3 C18.45 41.18 19.58 40.43 20.78 40.43 C21.15 40.43 21.53 40.5 21.9 40.65 L24.75 41.85
								 C25.5 42.15 26.1 42.75 26.4 43.5 C26.7 44.25 26.7 45.08 26.4 45.83 L25.72 47.4 L26.55 48.23 L28.13
								 47.55 C28.5 47.4 28.88 47.33 29.25 47.33 C30.45 47.33 31.58 48.08 32.03 49.2 L33.23 52.05 C33.53
								 52.8 33.53 53.63 33.23 54.38 C32.93 55.13 32.33 55.73 31.58 56.03 L30 56.7 L30 57.9 L31.58 58.58
								 C33.15 59.25 33.83 60.98 33.23 62.55 L32.03 65.4 C31.58 66.53 30.45 67.28 29.25 67.28 C28.88 67.28
								 28.43 67.2 28.05 67.05 L26.48 66.38 L25.65 67.2 L26.33 68.78 C26.62 69.53 26.62 70.35 26.33 71.1
								 C26.03 71.85 25.43 72.45 24.68 72.75 L21.82 73.95 C21.68 74.18 21.23 74.25 20.85 74.25 ZM16.8 51.9
								 C13.8 51.9 11.33 54.38 11.33 57.38 C11.32 60.38 13.8 62.85 16.8 62.85 C19.8 62.85 22.27 60.38 22.27
								 57.38 C22.27 54.38 19.8 51.9 16.8 51.9 Z" class="st1"/>
				</g>
				<g id="shape65-17" v:mID="65" v:groupContext="shape" v:layerMember="0" transform="translate(2.025,-2.1)">
					<title>Sheet.65</title>
					<path d="M28.95 62.85 L26.55 61.88 C26.18 61.73 25.88 61.5 25.88 61.43 C25.88 61.35 25.95 60.9 25.95 60.53 L25.95
								 58.58 C25.95 58.13 25.88 57.75 25.88 57.68 C25.88 57.6 26.18 57.38 26.55 57.23 L28.95 56.25 C29.33
								 56.1 29.55 55.65 29.4 55.2 L28.2 52.35 C28.05 51.98 27.6 51.75 27.15 51.9 L24.75 52.88 C24.38 53.03
								 24 53.1 23.93 53.03 C23.85 52.95 23.62 52.65 23.32 52.28 L21.9 50.93 C21.6 50.63 21.23 50.4 21.23
								 50.33 C21.15 50.25 21.23 49.95 21.38 49.5 L22.35 47.1 C22.5 46.73 22.35 46.28 21.9 46.05 L19.05
								 44.85 C18.67 44.7 18.22 44.85 18 45.3 L17.03 47.7 C16.88 48.08 16.65 48.38 16.58 48.38 C16.5 48.38
								 16.05 48.3 15.68 48.23 C15.68 48.23 15.3 48.15 14.7 48.15 C14.1 48.15 13.72 48.23 13.72 48.23 C13.27
								 48.3 12.9 48.3 12.82 48.38 C12.75 48.38 12.52 48.08 12.37 47.7 L11.4 45.3 C11.25 44.93 10.8 44.7
								 10.35 44.85 L7.5 46.05 C7.13 46.2 6.9 46.65 7.05 47.1 L8.02 49.5 C8.17 49.88 8.25 50.25 8.17 50.33
								 C8.1 50.4 7.8 50.63 7.5 50.93 L6.08 52.35 C5.78 52.65 5.55 53.03 5.48 53.1 C5.4 53.18 5.1 53.1 4.65
								 52.95 L2.4 51.83 C2.03 51.68 1.58 51.83 1.35 52.28 L0.15 55.13 C0 55.5 0.15 55.95 0.6 56.18 L3 57.15
								 C3.37 57.3 3.67 57.53 3.67 57.6 C3.67 57.68 3.6 58.13 3.6 58.5 L3.6 60.45 C3.6 60.9 3.67 61.28 3.67
								 61.35 C3.67 61.43 3.37 61.65 3 61.8 L0.6 62.85 C0.23 63 0 63.45 0.15 63.9 L1.35 66.75 C1.5 67.13
								 1.95 67.35 2.4 67.2 L4.8 66.23 C5.18 66.08 5.55 66 5.63 66.08 C5.7 66.15 5.93 66.45 6.23 66.83 L7.65
								 68.18 C7.95 68.48 8.32 68.7 8.4 68.78 C8.47 68.85 8.4 69.23 8.25 69.6 L7.13 71.85 C6.98 72.23 7.13
								 72.68 7.57 72.9 L10.43 74.1 C10.8 74.25 11.25 74.1 11.48 73.65 L12.45 71.25 C12.6 70.88 12.82 70.58
								 12.9 70.58 C12.97 70.58 13.42 70.65 13.8 70.73 C13.8 70.73 14.17 70.8 14.78 70.8 C15.38 70.8 15.75
								 70.73 15.75 70.73 C16.2 70.65 16.58 70.65 16.65 70.58 C16.73 70.58 16.95 70.88 17.1 71.25 L18.07
								 73.65 C18.22 74.03 18.67 74.25 19.12 74.1 L21.98 72.9 C22.35 72.75 22.57 72.3 22.42 71.85 L21.45
								 69.45 C21.3 69.08 21.23 68.7 21.3 68.63 C21.38 68.55 21.68 68.33 22.05 68.03 L23.47 66.6 C23.77
								 66.3 24 65.93 24.07 65.85 C24.15 65.78 24.45 65.85 24.9 66 L27.3 66.98 C27.67 67.13 28.12 66.98
								 28.35 66.53 L29.55 63.68 C29.48 63.45 29.33 63 28.95 62.85 ZM14.78 67.2 C10.5 67.2 7.05 63.75 7.05
								 59.48 C7.05 55.2 10.5 51.75 14.78 51.75 C19.05 51.75 22.5 55.2 22.5 59.48 C22.5 63.75 19.05 67.2
								 14.78 67.2 Z" class="st3"/>
				</g>
			</g>
		</g>
	</g>
</svg>
