<?xml version="1.0" encoding="UTF-8" standalone="no"?>
<!DOCTYPE svg PUBLIC "-//W3C//DTD SVG 1.1//EN" "http://www.w3.org/Graphics/SVG/1.1/DTD/svg11.dtd">
<!-- Generated by Microsoft Visio, SVG Export IRM-Protected Message.svg Page-1 -->
<svg xmlns="http://www.w3.org/2000/svg" xmlns:xlink="http://www.w3.org/1999/xlink" xmlns:ev="http://www.w3.org/2001/xml-events"
		xmlns:v="http://schemas.microsoft.com/visio/2003/SVGExtensions/" width="1.05937in" height="0.921875in"
		viewBox="0 0 76.275 66.375" xml:space="preserve" color-interpolation-filters="sRGB" class="st3">
	<v:documentProperties v:langID="4108" v:metric="true" v:viewMarkup="false"/>

	<style type="text/css">
	<![CDATA[
		.st1 {fill:#ffffff;stroke:none;stroke-linecap:butt;stroke-width:0.75}
		.st2 {fill:#515150;stroke:none;stroke-linecap:butt;stroke-width:0.75}
		.st3 {fill:none;fill-rule:evenodd;font-size:12px;overflow:visible;stroke-linecap:square;stroke-miterlimit:3}
	]]>
	</style>

	<g v:mID="0" v:index="1" v:groupContext="foregroundPage">
		<title>Page-1</title>
		<v:pageProperties v:drawingScale="0.0393701" v:pageScale="0.0393701" v:drawingUnits="24" v:shadowOffsetX="8.50394"
				v:shadowOffsetY="-8.50394"/>
		<v:layer v:name="symbols" v:index="0"/>
		<g id="group77-1" transform="translate(9.9375,-3.9375)" v:mID="77" v:groupContext="group" v:layerMember="0">
			<title>IRM-Protected Message</title>
			<g id="group78-2" transform="translate(0,-12.75)" v:mID="78" v:groupContext="group" v:layerMember="0">
				<title>Sheet.78</title>
				<g id="shape79-3" v:mID="79" v:groupContext="shape" v:layerMember="0">
					<title>Sheet.79</title>
					<rect x="0" y="25.125" width="51" height="41.25" class="st1"/>
				</g>
				<g id="group80-5" transform="translate(2.25,-2.25)" v:mID="80" v:groupContext="group" v:layerMember="0">
					<title>Sheet.80</title>
					<g id="shape81-6" v:mID="81" v:groupContext="shape" v:layerMember="0" transform="translate(0,-16.425)">
						<title>Sheet.81</title>
						<path d="M0 46.05 L0 49.8 L21 65.47 C22.28 66.37 24.22 66.37 25.5 65.47 L46.5 49.8 L46.5 46.05 L0 46.05 Z"
								class="st2"/>
					</g>
					<g id="shape82-8" v:mID="82" v:groupContext="shape" v:layerMember="0">
						<title>Sheet.82</title>
						<path d="M26.85 50.85 C25.88 51.6 24.6 51.98 23.25 51.98 C21.9 51.98 20.62 51.6 19.65 50.85 L0 36.15 L0 37.12
									 L0 66.37 L46.5 66.37 L46.5 37.12 L46.5 36.15 L26.85 50.85 Z" class="st2"/>
					</g>
				</g>
			</g>
			<g id="group83-10" transform="translate(27.75,0)" v:mID="83" v:groupContext="group" v:layerMember="0">
				<title>Sheet.83</title>
				<g id="shape84-11" v:mID="84" v:groupContext="shape" v:layerMember="0">
					<title>Sheet.84</title>
					<path d="M16.12 66.37 C7.2 66.37 0 59.17 0 50.25 C0 41.33 7.2 34.13 16.12 34.13 C25.05 34.13 32.25 41.33 32.25
								 50.25 C32.25 59.17 25.05 66.37 16.12 66.37 Z" class="st1"/>
				</g>
				<g id="shape85-13" v:mID="85" v:groupContext="shape" v:layerMember="0" transform="translate(2.25,-2.25)">
					<title>Sheet.85</title>
					<path d="M13.88 38.63 C6.22 38.63 0 44.85 0 52.5 C0 60.15 6.22 66.37 13.88 66.37 C21.53 66.37 27.75 60.15 27.75
								 52.5 C27.75 44.85 21.53 38.63 13.88 38.63 ZM21.75 54.38 L6 54.38 L6 50.62 L21.75 50.62 L21.75 54.38
								 Z" class="st2"/>
				</g>
			</g>
		</g>
	</g>
</svg>
