<?xml version="1.0" encoding="UTF-8" standalone="no"?>
<!DOCTYPE svg PUBLIC "-//W3C//DTD SVG 1.1//EN" "http://www.w3.org/Graphics/SVG/1.1/DTD/svg11.dtd">
<!-- Generated by Microsoft Visio, SVG Export Key; Permissions - blue.svg Page-1 -->
<svg xmlns="http://www.w3.org/2000/svg" xmlns:xlink="http://www.w3.org/1999/xlink" xmlns:ev="http://www.w3.org/2001/xml-events"
		xmlns:v="http://schemas.microsoft.com/visio/2003/SVGExtensions/" width="0.625in" height="1.01562in" viewBox="0 0 45 73.125"
		xml:space="preserve" color-interpolation-filters="sRGB" class="st3">
	<v:documentProperties v:langID="4108" v:metric="true" v:viewMarkup="false"/>

	<style type="text/css">
	<![CDATA[
		.st1 {fill:#ffffff;stroke:none;stroke-linecap:butt;stroke-width:0.75}
		.st2 {fill:#2072b8;stroke:none;stroke-linecap:butt;stroke-width:0.75}
		.st3 {fill:none;fill-rule:evenodd;font-size:12px;overflow:visible;stroke-linecap:square;stroke-miterlimit:3}
	]]>
	</style>

	<g v:mID="0" v:index="1" v:groupContext="foregroundPage">
		<title>Page-1</title>
		<v:pageProperties v:drawingScale="0.0393701" v:pageScale="0.0393701" v:drawingUnits="24" v:shadowOffsetX="8.50394"
				v:shadowOffsetY="-8.50394"/>
		<v:layer v:name="symbols" v:index="0"/>
		<g id="group90-1" transform="translate(7.6125,-7.5375)" v:mID="90" v:groupContext="group" v:layerMember="0">
			<title>Key; Permissions - blue</title>
			<g id="group91-2" v:mID="91" v:groupContext="group" v:layerMember="0">
				<title>Sheet.91</title>
				<g id="shape92-3" v:mID="92" v:groupContext="shape" v:layerMember="0">
					<title>Sheet.92</title>
					<path d="M7.5 65.4 L7.5 43.35 C2.92 40.57 0 35.62 0 30.3 C0 21.9 6.6 15.07 14.63 15.07 C22.8 15.07 29.4 21.97
								 29.4 30.37 C29.4 36.37 25.5 40.87 21.75 43.27 L21.75 48.15 L19.05 51.07 L22.5 54.75 L22.72 56.77
								 L19.43 60.22 L23.25 64.27 L14.63 73.12 L7.5 65.4 Z" class="st1"/>
				</g>
				<g id="shape93-5" v:mID="93" v:groupContext="shape" v:layerMember="0" transform="translate(2.25,-3.225)">
					<title>Sheet.93</title>
					<path d="M24.9 33.6 C24.9 26.4 19.35 20.55 12.45 20.55 C5.55 20.55 0 26.32 0 33.52 C0 38.62 3.23 43.12 7.5 45.22
								 L7.5 67.72 L12.45 73.12 L17.92 67.5 L14.1 63.45 L18.15 59.17 L18.15 58.95 L13.65 54.3 L17.25 50.47
								 L17.25 49.05 L17.25 45.22 C21.37 43.05 24.9 38.7 24.9 33.6 ZM12.37 33.97 C10.2 33.97 8.47 32.25
								 8.47 30.07 C8.47 27.9 10.2 26.17 12.37 26.17 C14.55 26.17 16.28 27.9 16.28 30.07 C16.28 32.25 14.55
								 33.97 12.37 33.97 Z" class="st2"/>
				</g>
			</g>
		</g>
	</g>
</svg>
