<?xml version="1.0" encoding="UTF-8" standalone="no"?>
<!DOCTYPE svg PUBLIC "-//W3C//DTD SVG 1.1//EN" "http://www.w3.org/Graphics/SVG/1.1/DTD/svg11.dtd">
<!-- Generated by Microsoft Visio, SVG Export Key; Permissions - ghosted.svg Page-1 -->
<svg xmlns="http://www.w3.org/2000/svg" xmlns:xlink="http://www.w3.org/1999/xlink" xmlns:ev="http://www.w3.org/2001/xml-events"
		xmlns:v="http://schemas.microsoft.com/visio/2003/SVGExtensions/" width="0.59375in" height="1.01562in"
		viewBox="0 0 42.75 73.125" xml:space="preserve" color-interpolation-filters="sRGB" class="st5">
	<v:documentProperties v:langID="4108" v:metric="true" v:viewMarkup="false"/>

	<style type="text/css">
	<![CDATA[
		.st1 {fill:#ffffff;stroke:none;stroke-linecap:butt;stroke-width:0.75}
		.st2 {fill:#9b9b9b;stroke:none;stroke-linecap:butt;stroke-width:0.75}
		.st3 {fill:none;stroke:none;stroke-linecap:butt;stroke-width:0.75}
		.st4 {fill:#cccbcb;stroke:none;stroke-linecap:butt;stroke-width:0.75}
		.st5 {fill:none;fill-rule:evenodd;font-size:12px;overflow:visible;stroke-linecap:square;stroke-miterlimit:3}
	]]>
	</style>

	<g v:mID="0" v:index="1" v:groupContext="foregroundPage">
		<title>Page-1</title>
		<v:pageProperties v:drawingScale="0.0393701" v:pageScale="0.0393701" v:drawingUnits="24" v:shadowOffsetX="8.50394"
				v:shadowOffsetY="-8.50394"/>
		<v:layer v:name="symbols" v:index="0"/>
		<g id="group102-1" transform="translate(7.05,-7.5375)" v:mID="102" v:groupContext="group" v:layerMember="0">
			<title>Key; Permissions - ghosted</title>
			<g id="group103-2" v:mID="103" v:groupContext="group" v:layerMember="0">
				<title>Sheet.103</title>
				<g id="group104-3" v:mID="104" v:groupContext="group" v:layerMember="0">
					<title>Sheet.104</title>
					<g id="shape105-4" v:mID="105" v:groupContext="shape" v:layerMember="0">
						<title>Sheet.105</title>
						<path d="M7.5 65.4 L7.5 43.35 C2.92 40.57 0 35.62 0 30.3 C0 21.9 6.6 15.07 14.63 15.07 C22.8 15.07 29.4 21.97
									 29.4 30.37 C29.4 36.37 25.5 40.87 21.75 43.27 L21.75 48.15 L19.05 51.07 L22.5 54.75 L22.72 56.77
									 L19.43 60.22 L23.25 64.27 L14.63 73.12 L7.5 65.4 Z" class="st1"/>
					</g>
					<g id="shape106-6" v:mID="106" v:groupContext="shape" v:layerMember="0" transform="translate(2.25,-3.225)">
						<title>Sheet.106</title>
						<path d="M24.9 33.6 C24.9 26.4 19.35 20.55 12.45 20.55 C5.55 20.55 0 26.32 0 33.52 C0 38.62 3.23 43.12 7.5
									 45.22 L7.5 67.72 L12.45 73.12 L17.92 67.5 L14.1 63.45 L18.15 59.17 L18.15 58.95 L13.65 54.3
									 L17.25 50.47 L17.25 49.05 L17.25 45.22 C21.37 43.05 24.9 38.7 24.9 33.6 ZM12.37 33.97 C10.2
									 33.97 8.47 32.25 8.47 30.07 C8.47 27.9 10.2 26.17 12.37 26.17 C14.55 26.17 16.28 27.9 16.28
									 30.07 C16.28 32.25 14.55 33.97 12.37 33.97 Z" class="st2"/>
					</g>
				</g>
				<g id="group107-8" transform="translate(2.25,-3.225)" v:mID="107" v:groupContext="group" v:layerMember="0">
					<title>Sheet.107</title>
					<g id="shape108-9" v:mID="108" v:groupContext="shape" v:layerMember="0" transform="translate(8.55,-39.075)">
						<title>Sheet.108</title>
						<path d="M7.65 68.32 C7.5 67.8 7.27 67.27 6.97 66.9 C6.6 66.45 6.22 66.07 5.7 65.77 C5.17 65.47 4.65 65.32
									 4.05 65.32 C3.97 65.32 3.97 65.32 3.9 65.32 C1.73 65.32 0 67.05 0 69.22 C0 69.3 0 69.37 0 69.45
									 C0 70.05 0.22 70.57 0.45 71.1 C0.75 71.62 1.12 72.07 1.57 72.37 C2.03 72.67 2.47 72.9 3 73.05
									 C3.3 73.12 3.52 73.12 3.82 73.12 C4.57 73.12 5.25 72.9 5.77 72.6 C6.37 72.22 6.82 71.77 7.12
									 71.25 C7.42 70.65 7.65 70.05 7.65 69.3 C7.72 68.85 7.65 68.62 7.65 68.32 Z" class="st3"/>
					</g>
					<g id="shape109-11" v:mID="109" v:groupContext="shape" v:layerMember="0" transform="translate(14.25,-45.3)">
						<title>Sheet.109</title>
						<path d="M1.27 73.12 L5.77 68.55 C5.32 68.17 4.87 67.87 4.35 67.57 L0 72 C0.45 72.22 0.9 72.6 1.27 73.12 Z"
								class="st3"/>
					</g>
					<g id="shape110-13" v:mID="110" v:groupContext="shape" v:layerMember="0" transform="translate(7.5,-14.7)">
						<title>Sheet.110</title>
						<path d="M9.75 60.9 L0 70.72 L0 73.12 L9.75 63.3 L9.75 60.9 Z" class="st3"/>
					</g>
					<g id="shape111-15" v:mID="111" v:groupContext="shape" v:layerMember="0" transform="translate(0,-38.775)">
						<title>Sheet.111</title>
						<path d="M12.45 59.32 C12.07 59.32 11.62 59.32 11.25 59.4 L0.07 70.65 C-0 71.17 0 71.77 0 72.3 C0 72.6 0
									 72.82 0 73.12 L13.65 59.4 C13.27 59.32 12.83 59.32 12.45 59.32 Z" class="st3"/>
					</g>
					<g id="shape112-17" v:mID="112" v:groupContext="shape" v:layerMember="0" transform="translate(7.5,-23.7)">
						<title>Sheet.112</title>
						<path d="M16.87 53.7 L0 70.72 L0 73.12 L17.32 55.72 C17.25 54.97 17.1 54.3 16.87 53.7 Z" class="st3"/>
					</g>
					<g id="shape113-19" v:mID="113" v:groupContext="shape" v:layerMember="0" transform="translate(15.75,-41.1)">
						<title>Sheet.113</title>
						<path d="M0.52 71.17 C0.52 71.92 0.3 72.52 0 73.12 L6.45 66.6 C6.07 66.15 5.77 65.7 5.32 65.32 L0.37 70.35
									 C0.45 70.65 0.52 70.87 0.52 71.17 Z" class="st3"/>
					</g>
					<g id="shape114-21" v:mID="114" v:groupContext="shape" v:layerMember="0" transform="translate(0.3,-35.1)">
						<title>Sheet.114</title>
						<path d="M8.17 65.17 C8.17 63 9.9 61.27 12.07 61.27 C12.15 61.27 12.15 61.27 12.22 61.27 L16.87 56.62 C16.27
									 56.4 15.75 56.17 15.15 56.02 L0 71.32 C0.15 71.92 0.3 72.52 0.52 73.12 L8.17 65.4 C8.17 65.32
									 8.17 65.25 8.17 65.17 Z" class="st3"/>
					</g>
					<g id="shape115-23" v:mID="115" v:groupContext="shape" v:layerMember="0" transform="translate(1.575,-32.175)">
						<title>Sheet.115</title>
						<path d="M7.42 64.12 L0 71.62 C0.3 72.15 0.6 72.6 0.9 73.12 L8.55 65.4 C8.02 65.1 7.65 64.65 7.42 64.12 Z"
								class="st3"/>
					</g>
					<g id="shape116-25" v:mID="116" v:groupContext="shape" v:layerMember="0" transform="translate(7.5,-19.2)">
						<title>Sheet.116</title>
						<path d="M17.4 53.25 L0 70.72 L0 73.12 L16.87 56.1 C17.17 55.12 17.32 54.22 17.4 53.25 Z" class="st3"/>
					</g>
					<g id="shape117-27" v:mID="117" v:groupContext="shape" v:layerMember="0" transform="translate(20.625,-30.3)">
						<title>Sheet.117</title>
						<path d="M0.68 72.45 L0 73.12 C0.22 72.82 0.45 72.67 0.68 72.45 Z" class="st3"/>
					</g>
					<g id="shape118-29" v:mID="118" v:groupContext="shape" v:layerMember="0" transform="translate(3.375,-29.85)">
						<title>Sheet.118</title>
						<path d="M9 63.82 C8.7 63.82 8.4 63.82 8.17 63.75 L0 71.92 C0.38 72.37 0.75 72.75 1.2 73.12 L10.95 63.3 C10.43
									 63.6 9.75 63.82 9 63.82 Z" class="st3"/>
					</g>
					<g id="shape119-31" v:mID="119" v:groupContext="shape" v:layerMember="0" transform="translate(8.325,-3.075)">
						<title>Sheet.119</title>
						<path d="M5.7 66.45 L9.75 62.25 L9.75 62.02 L9.75 61.95 L0 71.7 L1.35 73.12 L6.75 67.57 L5.7 66.45 Z"
								class="st3"/>
					</g>
					<g id="shape120-33" v:mID="120" v:groupContext="shape" v:layerMember="0" transform="translate(5.775,-28.05)">
						<title>Sheet.120</title>
						<path d="M17.25 54.82 L0 72.22 C0.45 72.52 0.97 72.82 1.5 73.12 L18.07 56.4 C17.85 55.87 17.55 55.35 17.25
									 54.82 Z" class="st3"/>
					</g>
					<g id="shape121-35" v:mID="121" v:groupContext="shape" v:layerMember="0" transform="translate(10.65,-0.75)">
						<title>Sheet.121</title>
						<path d="M5.48 66.37 L0 71.92 L1.13 73.12 L6.68 67.57 L5.48 66.37 Z" class="st3"/>
					</g>
					<g id="shape122-37" v:mID="122" v:groupContext="shape" v:layerMember="0" transform="translate(7.5,-10.2)">
						<title>Sheet.122</title>
						<path d="M6.23 64.5 L0 70.72 L0 73.12 L7.35 65.7 L6.23 64.5 Z" class="st3"/>
					</g>
					<g id="shape123-39" v:mID="123" v:groupContext="shape" v:layerMember="0" transform="translate(7.5,-5.7)">
						<title>Sheet.123</title>
						<path d="M8.4 62.32 L0 70.72 L0 73.12 L9.53 63.52 L8.4 62.32 Z" class="st3"/>
					</g>
					<g id="shape124-41" v:mID="124" v:groupContext="shape" v:layerMember="0" transform="translate(0.75,-44.025)">
						<title>Sheet.124</title>
						<path d="M0 73.12 L7.8 65.25 C4.2 66.45 1.27 69.37 0 73.12 Z" class="st3"/>
					</g>
					<g id="shape125-43" v:mID="125" v:groupContext="shape" v:layerMember="0" transform="translate(0.075,-41.25)">
						<title>Sheet.125</title>
						<path d="M8.47 62.47 L0.68 70.35 C0.37 71.25 0.15 72.15 0 73.12 L11.17 61.87 C10.27 61.95 9.37 62.17 8.47
									 62.47 Z" class="st4"/>
					</g>
					<g id="shape126-45" v:mID="126" v:groupContext="shape" v:layerMember="0" transform="translate(0,-36.9)">
						<title>Sheet.126</title>
						<path d="M13.65 57.52 L0 71.25 C0.07 71.85 0.15 72.52 0.3 73.12 L15.45 57.82 C14.85 57.67 14.25 57.6 13.65
									 57.52 Z" class="st4"/>
					</g>
					<g id="shape127-47" v:mID="127" v:groupContext="shape" v:layerMember="0" transform="translate(0.9,-33.675)">
						<title>Sheet.127</title>
						<path d="M7.57 63.97 L0 71.7 C0.23 72.22 0.45 72.67 0.67 73.12 L8.1 65.62 C7.8 65.1 7.65 64.57 7.57 63.97
									 Z" class="st4"/>
					</g>
					<g id="shape128-49" v:mID="128" v:groupContext="shape" v:layerMember="0" transform="translate(12.45,-46.425)">
						<title>Sheet.128</title>
						<path d="M1.73 73.12 L6.08 68.7 C5.63 68.4 5.18 68.17 4.65 67.95 L0 72.6 C0.67 72.67 1.28 72.82 1.73 73.12
									 Z" class="st4"/>
					</g>
					<g id="shape129-51" v:mID="129" v:groupContext="shape" v:layerMember="0" transform="translate(2.475,-30.975)">
						<title>Sheet.129</title>
						<path d="M7.65 64.2 L0 71.92 C0.3 72.3 0.6 72.75 0.97 73.12 L9.15 64.95 C8.55 64.72 8.02 64.5 7.65 64.2 Z"
								class="st4"/>
					</g>
					<g id="shape130-53" v:mID="130" v:groupContext="shape" v:layerMember="0" transform="translate(15.525,-43.875)">
						<title>Sheet.130</title>
						<path d="M0.67 73.12 L5.62 68.1 C5.25 67.72 4.87 67.42 4.5 67.12 L0 71.7 C0.3 72.07 0.52 72.6 0.67 73.12 Z"
								class="st4"/>
					</g>
					<g id="shape131-55" v:mID="131" v:groupContext="shape" v:layerMember="0" transform="translate(4.65,-29.025)">
						<title>Sheet.131</title>
						<path d="M17.55 54.52 L11.1 61.05 C10.8 61.65 10.27 62.1 9.75 62.4 L0 72.22 C0.37 72.52 0.75 72.9 1.2 73.12
									 L18.45 55.72 C18.15 55.35 17.85 54.97 17.55 54.52 Z" class="st4"/>
					</g>
					<g id="shape132-57" v:mID="132" v:groupContext="shape" v:layerMember="0" transform="translate(7.275,-26.1)">
						<title>Sheet.132</title>
						<path d="M16.58 54.45 L0 71.17 C0.07 71.25 0.15 71.25 0.22 71.32 L0.22 73.12 L17.1 56.1 C16.95 55.5 16.8
									 54.97 16.58 54.45 Z" class="st4"/>
					</g>
					<g id="shape133-59" v:mID="133" v:groupContext="shape" v:layerMember="0" transform="translate(7.5,-21.675)">
						<title>Sheet.133</title>
						<path d="M17.4 55.27 C17.4 54.75 17.32 54.22 17.32 53.7 L0 71.02 L0 73.12 L17.4 55.72 C17.4 55.57 17.4 55.42
									 17.4 55.27 Z" class="st4"/>
					</g>
					<g id="shape134-61" v:mID="134" v:groupContext="shape" v:layerMember="0" transform="translate(7.5,-17.175)">
						<title>Sheet.134</title>
						<path d="M9.75 62.4 C10.95 61.8 12.15 60.97 13.12 59.92 L13.8 59.25 C15.22 57.75 16.27 55.95 16.87 54 L0
									 71.02 L0 73.12 L9.75 63.3 L9.75 62.4 Z" class="st4"/>
					</g>
					<g id="shape135-63" v:mID="135" v:groupContext="shape" v:layerMember="0" transform="translate(7.5,-12.6)">
						<title>Sheet.135</title>
						<path d="M6.15 66.9 L9.75 63.07 L9.75 61.65 L9.75 61.2 L0 71.02 L0 73.12 L6.22 66.9 L6.15 66.9 Z"
								class="st4"/>
					</g>
					<g id="shape136-65" v:mID="136" v:groupContext="shape" v:layerMember="0" transform="translate(7.5,-8.1)">
						<title>Sheet.136</title>
						<path d="M7.35 63.6 L0 71.02 L0 73.12 L8.4 64.72 L7.35 63.6 Z" class="st4"/>
					</g>
					<g id="shape137-67" v:mID="137" v:groupContext="shape" v:layerMember="0" transform="translate(7.5,-4.5)">
						<title>Sheet.137</title>
						<path d="M9.52 62.32 L0 71.92 L0 72.22 L0.82 73.12 L10.57 63.37 L9.52 62.32 Z" class="st4"/>
					</g>
					<g id="shape138-69" v:mID="138" v:groupContext="shape" v:layerMember="0" transform="translate(9.675,-1.95)">
						<title>Sheet.138</title>
						<path d="M5.4 66.45 L0 72 L0.98 73.12 L6.45 67.57 L5.4 66.45 Z" class="st4"/>
					</g>
					<g id="shape139-71" v:mID="139" v:groupContext="shape" v:layerMember="0"
							transform="translate(11.775,1.13687E-13)">
						<title>Sheet.139</title>
						<path d="M6.08 67.42 L5.55 66.82 L0 72.37 L0.67 73.12 L6.08 67.42 Z" class="st4"/>
					</g>
				</g>
			</g>
		</g>
	</g>
</svg>
