<?xml version="1.0" encoding="UTF-8" standalone="no"?>
<!DOCTYPE svg PUBLIC "-//W3C//DTD SVG 1.1//EN" "http://www.w3.org/Graphics/SVG/1.1/DTD/svg11.dtd">
<!-- Generated by Microsoft Visio, SVG Export Lock with Key; Security - blue.svg Page-1 -->
<svg xmlns="http://www.w3.org/2000/svg" xmlns:xlink="http://www.w3.org/1999/xlink" xmlns:ev="http://www.w3.org/2001/xml-events"
		xmlns:v="http://schemas.microsoft.com/visio/2003/SVGExtensions/" width="0.90625in" height="1.03125in"
		viewBox="0 0 65.25 74.25" xml:space="preserve" color-interpolation-filters="sRGB" class="st4">
	<v:documentProperties v:langID="4108" v:metric="true" v:viewMarkup="false"/>

	<style type="text/css">
	<![CDATA[
		.st1 {fill:#ffffff;stroke:none;stroke-linecap:butt;stroke-width:0.75}
		.st2 {fill:#515251;stroke:none;stroke-linecap:butt;stroke-width:0.75}
		.st3 {fill:#2072b8;stroke:none;stroke-linecap:butt;stroke-width:0.75}
		.st4 {fill:none;fill-rule:evenodd;font-size:12px;overflow:visible;stroke-linecap:square;stroke-miterlimit:3}
	]]>
	</style>

	<g v:mID="0" v:index="1" v:groupContext="foregroundPage">
		<title>Page-1</title>
		<v:pageProperties v:drawingScale="0.0393701" v:pageScale="0.0393701" v:drawingUnits="24" v:shadowOffsetX="8.50394"
				v:shadowOffsetY="-8.50394"/>
		<v:layer v:name="symbols" v:index="0"/>
		<g id="group255-1" transform="translate(8.2875,-3.1125)" v:mID="255" v:groupContext="group" v:layerMember="0">
			<title>Lock with Key; Security - blue</title>
			<g id="group256-2" v:mID="256" v:groupContext="group" v:layerMember="0">
				<title>Sheet.256</title>
				<g id="group257-3" transform="translate(2.55795E-13,-5.4)" v:mID="257" v:groupContext="group" v:layerMember="0">
					<title>Sheet.257</title>
					<g id="shape258-4" v:mID="258" v:groupContext="shape" v:layerMember="0">
						<title>Sheet.258</title>
						<path d="M5.25 74.25 C2.33 74.25 0 71.92 0 69 L0 45.75 C0 43.35 1.57 41.4 3.75 40.72 L3.75 34.87 C3.75 25.12
									 11.62 17.25 21.37 17.25 C31.13 17.25 39 25.2 39 34.87 L39 40.72 C41.17 41.4 42.75 43.35 42.75
									 45.75 L42.75 69 C42.75 71.92 40.42 74.25 37.5 74.25 L5.25 74.25 ZM30 40.5 L30 34.87 C30 30.15
									 26.1 26.25 21.37 26.25 C16.65 26.25 12.75 30.15 12.75 34.87 L12.75 40.5 L30 40.5 Z"
								class="st1"/>
					</g>
					<g id="shape259-6" v:mID="259" v:groupContext="shape" v:layerMember="0" transform="translate(2.25,-2.25)">
						<title>Sheet.259</title>
						<path d="M35.25 45.15 L34.5 45.15 L34.5 37.12 C34.5 28.65 27.6 21.75 19.12 21.75 C10.65 21.75 3.75 28.65
									 3.75 37.12 L3.75 45.15 L3 45.15 C1.35 45.15 0 46.35 0 48 L0 71.25 C0 72.9 1.35 74.25 3 74.25
									 L35.25 74.25 C36.9 74.25 38.25 72.9 38.25 71.25 L38.25 48 C38.25 46.35 36.9 45.15 35.25 45.15
									 ZM8.25 37.12 C8.25 31.12 13.12 26.25 19.12 26.25 C25.12 26.25 30 31.12 30 37.12 L30 45.15 L8.25
									 45.15 L8.25 37.12 Z" class="st2"/>
					</g>
				</g>
				<g id="group260-8" transform="translate(32.175,3.2685E-13)" v:mID="260" v:groupContext="group" v:layerMember="0">
					<title>Sheet.260</title>
					<g id="shape261-9" v:mID="261" v:groupContext="shape" v:layerMember="0">
						<title>Sheet.261</title>
						<path d="M4.65 69.9 L8.63 74.25 L10.57 74.25 L15.75 68.85 L13.58 66.6 L15.07 65.02 L14.85 63.07 L13.27 61.35
									 L14.25 60.15 L14.25 57.82 C17.03 56.17 18.75 53.17 18.75 49.8 C18.75 44.62 14.55 40.42 9.38
									 40.42 C4.2 40.42 0 44.62 0 49.8 C0 53.17 1.73 56.17 4.58 57.82 L4.65 69.9 Z" class="st1"/>
					</g>
					<g id="shape262-11" v:mID="262" v:groupContext="shape" v:layerMember="0" transform="translate(2.4,-2.25)">
						<title>Sheet.262</title>
						<path d="M9.75 60.82 L9.75 58.72 C12.38 57.67 14.25 55.12 14.25 52.12 C14.25 48.22 11.03 45 7.13 45 C3.22
									 45 0 48.22 0 52.12 C-0 55.12 1.87 57.75 4.58 58.8 L4.58 71.25 L7.35 74.25 L10.43 71.1 L8.25
									 68.85 L10.5 66.45 L10.5 66.3 L7.95 63.75 L9.67 61.65 L9.75 60.82 ZM7.13 48 C8.18 48 9 48.82
									 9 49.87 C9 50.92 8.18 51.75 7.13 51.75 C6.07 51.75 5.25 50.92 5.25 49.87 C5.25 48.82 6.07 48
									 7.13 48 Z" class="st3"/>
					</g>
				</g>
			</g>
		</g>
	</g>
</svg>
