<?xml version="1.0" encoding="UTF-8" standalone="no"?>
<!DOCTYPE svg PUBLIC "-//W3C//DTD SVG 1.1//EN" "http://www.w3.org/Graphics/SVG/1.1/DTD/svg11.dtd">
<!-- Generated by Microsoft Visio, SVG Export Lock; Protected - ghosted.svg Page-1 -->
<svg xmlns="http://www.w3.org/2000/svg" xmlns:xlink="http://www.w3.org/1999/xlink" xmlns:ev="http://www.w3.org/2001/xml-events"
		xmlns:v="http://schemas.microsoft.com/visio/2003/SVGExtensions/" width="0.828125in" height="1.01563in"
		viewBox="0 0 59.625 73.125" xml:space="preserve" color-interpolation-filters="sRGB" class="st4">
	<v:documentProperties v:langID="4108" v:metric="true" v:viewMarkup="false"/>

	<style type="text/css">
	<![CDATA[
		.st1 {fill:#ffffff;stroke:none;stroke-linecap:butt;stroke-width:0.75}
		.st2 {fill:#9b9b9b;stroke:none;stroke-linecap:butt;stroke-width:0.75}
		.st3 {fill:#cccbcb;stroke:none;stroke-linecap:butt;stroke-width:0.75}
		.st4 {fill:none;fill-rule:evenodd;font-size:12px;overflow:visible;stroke-linecap:square;stroke-miterlimit:3}
	]]>
	</style>

	<g v:mID="0" v:index="1" v:groupContext="foregroundPage">
		<title>Page-1</title>
		<v:pageProperties v:drawingScale="0.0393701" v:pageScale="0.0393701" v:drawingUnits="24" v:shadowOffsetX="8.50394"
				v:shadowOffsetY="-8.50394"/>
		<v:layer v:name="symbols" v:index="0"/>
		<g id="group211-1" transform="translate(8.8125,-8.0625)" v:mID="211" v:groupContext="group" v:layerMember="0">
			<title>Lock; Protected - ghosted</title>
			<g id="group212-2" v:mID="212" v:groupContext="group" v:layerMember="0">
				<title>Sheet.212</title>
				<g id="group213-3" v:mID="213" v:groupContext="group" v:layerMember="0">
					<title>Sheet.213</title>
					<g id="shape214-4" v:mID="214" v:groupContext="shape" v:layerMember="0">
						<title>Sheet.214</title>
						<path d="M5.25 73.13 C2.33 73.13 0 70.8 0 67.88 L0 44.63 C-0 42.23 1.58 40.28 3.75 39.6 L3.75 33.75 C3.75
									 24 11.62 16.13 21.37 16.13 C31.13 16.13 39 24 39 33.75 L39 39.6 C41.17 40.28 42.75 42.23 42.75
									 44.63 L42.75 67.88 C42.75 70.8 40.43 73.13 37.5 73.13 L5.25 73.13 ZM30 39.38 L30 33.75 C30 29.03
									 26.1 25.13 21.37 25.13 C16.65 25.13 12.75 29.03 12.75 33.75 L12.75 39.38 L30 39.38 Z"
								class="st1"/>
					</g>
					<g id="shape215-6" v:mID="215" v:groupContext="shape" v:layerMember="0" transform="translate(2.25,-2.25)">
						<title>Sheet.215</title>
						<path d="M35.25 43.88 L34.5 43.88 L34.5 36 C34.5 27.53 27.6 20.63 19.12 20.63 C10.65 20.63 3.75 27.53 3.75
									 36 L3.75 43.88 L3 43.88 C1.35 43.88 0 45.23 0 46.88 L0 70.13 C-0 71.78 1.35 73.13 3 73.13 L35.25
									 73.13 C36.9 73.13 38.25 71.78 38.25 70.13 L38.25 46.88 C38.25 45.23 36.9 43.88 35.25 43.88 ZM8.25
									 36 C8.25 30 13.12 25.13 19.12 25.13 C25.12 25.13 30 30 30 36 L30 43.88 L8.25 43.88 L8.25 36
									 Z" class="st2"/>
					</g>
				</g>
				<g id="group216-8" transform="translate(2.25,-2.25)" v:mID="216" v:groupContext="group" v:layerMember="0">
					<title>Sheet.216</title>
					<g id="shape217-9" v:mID="217" v:groupContext="shape" v:layerMember="0" transform="translate(7.275,-46.875)">
						<title>Sheet.217</title>
						<path d="M0 73.13 L1.95 71.18 C1.2 71.78 0.53 72.38 0 73.13 Z" class="st3"/>
					</g>
					<g id="shape218-11" v:mID="218" v:groupContext="shape" v:layerMember="0" transform="translate(3.825,-39)">
						<title>Sheet.218</title>
						<path d="M13.27 59.78 C12.37 59.93 11.47 60.08 10.57 60.38 L0.6 70.43 C0.3 71.33 0.15 72.23 0 73.13 L13.27
									 59.78 Z" class="st3"/>
					</g>
					<g id="shape219-13" v:mID="219" v:groupContext="shape" v:layerMember="0" transform="translate(3.75,-34.35)">
						<title>Sheet.219</title>
						<path d="M5.85 65.1 L0 71.03 L0 73.13 L4.65 68.4 C4.88 67.28 5.25 66.15 5.85 65.1 Z" class="st3"/>
					</g>
					<g id="shape220-15" v:mID="220" v:groupContext="shape" v:layerMember="0" transform="translate(13.8,-46.575)">
						<title>Sheet.220</title>
						<path d="M0 73.13 C0.98 72.53 2.1 72.15 3.3 71.93 L7.73 67.43 C7.13 67.35 6.45 67.28 5.78 67.28 L0 73.13 Z"
								class="st3"/>
					</g>
					<g id="shape221-17" v:mID="221" v:groupContext="shape" v:layerMember="0" transform="translate(19.65,-47.7)">
						<title>Sheet.221</title>
						<path d="M1.88 73.13 L5.4 69.53 C4.88 69.3 4.35 69.15 3.83 69 L0 72.83 C0.6 72.9 1.28 72.98 1.88 73.13 Z"
								class="st3"/>
					</g>
					<g id="shape222-19" v:mID="222" v:groupContext="shape" v:layerMember="0"
							transform="translate(-1.64868E-14,-26.025)">
						<title>Sheet.222</title>
						<path d="M0 72.9 L0 73.13 L3.15 69.9 L3 69.9 C1.35 69.9 -0 71.25 0 72.9 Z" class="st3"/>
					</g>
					<g id="shape223-21" v:mID="223" v:groupContext="shape" v:layerMember="0" transform="translate(3.75,-29.85)">
						<title>Sheet.223</title>
						<path d="M4.5 68.63 L4.5 66.45 L0 71.03 L0 73.13 L4.5 68.63 Z" class="st3"/>
					</g>
					<g id="shape224-23" v:mID="224" v:groupContext="shape" v:layerMember="0" transform="translate(23.325,-46.425)">
						<title>Sheet.224</title>
						<path d="M0 72.38 C0.45 72.6 0.97 72.83 1.43 73.13 L4.65 69.9 C4.2 69.6 3.82 69.3 3.37 69.08 L0 72.38 Z"
								class="st3"/>
					</g>
					<g id="shape225-25" v:mID="225" v:groupContext="shape" v:layerMember="0" transform="translate(0,-21.525)">
						<title>Sheet.225</title>
						<path d="M8.25 64.8 L8.25 62.7 L0 70.95 L0 73.13 L8.25 64.8 Z" class="st3"/>
					</g>
					<g id="shape226-27" v:mID="226" v:groupContext="shape" v:layerMember="0"
							transform="translate(-1.90847E-13,-17.025)">
						<title>Sheet.226</title>
						<path d="M10.05 60.9 L0 71.03 L0 73.13 L12.15 60.9 L10.05 60.9 Z" class="st3"/>
					</g>
					<g id="shape227-29" v:mID="227" v:groupContext="shape" v:layerMember="0" transform="translate(26.175,-44.4)">
						<title>Sheet.227</title>
						<path d="M1.05 73.13 L4.2 69.9 C3.83 69.53 3.53 69.15 3.15 68.85 L0 72.08 C0.3 72.45 0.68 72.75 1.05 73.13
									 Z" class="st3"/>
					</g>
					<g id="shape228-31" v:mID="228" v:groupContext="shape" v:layerMember="0" transform="translate(0,-12.525)">
						<title>Sheet.228</title>
						<path d="M16.65 56.4 L14.48 56.4 L0 71.03 L0 73.13 L16.65 56.4 Z" class="st3"/>
					</g>
					<g id="shape229-33" v:mID="229" v:groupContext="shape" v:layerMember="0" transform="translate(28.2,-41.7)">
						<title>Sheet.229</title>
						<path d="M0.75 73.13 L4.05 69.83 C3.75 69.38 3.53 69 3.23 68.55 L0 71.78 C0.3 72.23 0.6 72.68 0.75 73.13 Z"
								class="st3"/>
					</g>
					<g id="shape230-35" v:mID="230" v:groupContext="shape" v:layerMember="0"
							transform="translate(-1.93845E-13,-8.025)">
						<title>Sheet.230</title>
						<path d="M18.98 51.9 L0 71.03 L0 73.13 L21.15 51.9 L18.98 51.9 Z" class="st3"/>
					</g>
					<g id="shape231-37" v:mID="231" v:groupContext="shape" v:layerMember="0" transform="translate(29.625,-38.1)">
						<title>Sheet.231</title>
						<path d="M0 71.33 C0.15 71.93 0.3 72.53 0.3 73.13 L4.05 69.3 C3.9 68.78 3.68 68.25 3.45 67.8 L0 71.33 Z"
								class="st3"/>
					</g>
					<g id="shape232-39" v:mID="232" v:groupContext="shape" v:layerMember="0" transform="translate(30,-33.675)">
						<title>Sheet.232</title>
						<path d="M4.2 66.75 L0 71.03 L0 73.13 L4.42 68.63 C4.42 68.03 4.35 67.35 4.2 66.75 Z" class="st3"/>
					</g>
					<g id="shape233-41" v:mID="233" v:groupContext="shape" v:layerMember="0"
							transform="translate(1.85851E-13,-3.525)">
						<title>Sheet.233</title>
						<path d="M23.47 47.4 L0 71.03 L0 73.13 L25.57 47.4 L23.47 47.4 Z" class="st3"/>
					</g>
					<g id="shape234-43" v:mID="234" v:groupContext="shape" v:layerMember="0" transform="translate(0.375,-0.525)">
						<title>Sheet.234</title>
						<path d="M34.12 37.8 L29.63 42.3 L29.63 44.4 L27.6 44.4 L0 72.08 C0.22 72.53 0.6 72.9 1.05 73.13 L34.12 39.98
									 L34.12 37.8 Z" class="st3"/>
					</g>
					<g id="shape235-45" v:mID="235" v:groupContext="shape" v:layerMember="0"
							transform="translate(3.675,2.55795E-13)">
						<title>Sheet.235</title>
						<path d="M30.82 43.88 L30.82 41.93 L0 73.13 L2.1 73.13 L31.05 43.88 L30.82 43.88 Z" class="st3"/>
					</g>
					<g id="shape236-47" v:mID="236" v:groupContext="shape" v:layerMember="0" transform="translate(8.1,2.70006E-13)">
						<title>Sheet.236</title>
						<path d="M29.7 45.23 C29.4 44.78 29.02 44.48 28.57 44.18 L0 73.13 L2.1 73.13 L29.7 45.23 Z" class="st3"/>
					</g>
					<g id="shape237-49" v:mID="237" v:groupContext="shape" v:layerMember="0" transform="translate(12.675,0)">
						<title>Sheet.237</title>
						<path d="M25.57 49.28 L25.57 47.18 L0 73.13 L2.1 73.13 L25.57 49.28 Z" class="st3"/>
					</g>
					<g id="shape238-51" v:mID="238" v:groupContext="shape" v:layerMember="0"
							transform="translate(17.175,-2.70006E-13)">
						<title>Sheet.238</title>
						<path d="M21.07 53.85 L21.07 51.68 L0 73.13 L2.1 73.13 L21.07 53.85 Z" class="st3"/>
					</g>
					<g id="shape239-53" v:mID="239" v:groupContext="shape" v:layerMember="0"
							transform="translate(21.675,2.55795E-13)">
						<title>Sheet.239</title>
						<path d="M16.57 56.25 L0 73.13 L2.1 73.13 L16.57 58.43 L16.57 56.25 Z" class="st3"/>
					</g>
					<g id="shape240-55" v:mID="240" v:groupContext="shape" v:layerMember="0" transform="translate(26.1,0)">
						<title>Sheet.240</title>
						<path d="M12.15 62.93 L12.15 60.75 L0 73.13 L2.1 73.13 L12.15 62.93 Z" class="st3"/>
					</g>
					<g id="shape241-57" v:mID="241" v:groupContext="shape" v:layerMember="0"
							transform="translate(30.6,4.26326E-14)">
						<title>Sheet.241</title>
						<path d="M7.65 65.33 L0 73.13 L2.1 73.13 L7.65 67.5 L7.65 65.33 Z" class="st3"/>
					</g>
					<g id="shape242-59" v:mID="242" v:groupContext="shape" v:layerMember="0"
							transform="translate(35.025,-2.84217E-14)">
						<title>Sheet.242</title>
						<path d="M3.22 70.13 L3.22 69.83 L0 73.13 L0.22 73.13 C1.87 73.13 3.22 71.78 3.22 70.13 Z" class="st3"/>
					</g>
				</g>
			</g>
		</g>
	</g>
</svg>
