<?xml version="1.0" encoding="UTF-8" standalone="no"?>
<!DOCTYPE svg PUBLIC "-//W3C//DTD SVG 1.1//EN" "http://www.w3.org/Graphics/SVG/1.1/DTD/svg11.dtd">
<!-- Generated by Microsoft Visio, SVG Export Lock with Key; Security - ghosted.svg Page-1 -->
<svg xmlns="http://www.w3.org/2000/svg" xmlns:xlink="http://www.w3.org/1999/xlink" xmlns:ev="http://www.w3.org/2001/xml-events"
		xmlns:v="http://schemas.microsoft.com/visio/2003/SVGExtensions/" width="0.90625in" height="1.03125in"
		viewBox="0 0 65.25 74.25" xml:space="preserve" color-interpolation-filters="sRGB" class="st5">
	<v:documentProperties v:langID="4108" v:metric="true" v:viewMarkup="false"/>

	<style type="text/css">
	<![CDATA[
		.st1 {fill:#ffffff;stroke:none;stroke-linecap:butt;stroke-width:0.75}
		.st2 {fill:#515251;stroke:none;stroke-linecap:butt;stroke-width:0.75}
		.st3 {fill:#9b9b9b;stroke:none;stroke-linecap:butt;stroke-width:0.75}
		.st4 {fill:#cccbcb;stroke:none;stroke-linecap:butt;stroke-width:0.75}
		.st5 {fill:none;fill-rule:evenodd;font-size:12px;overflow:visible;stroke-linecap:square;stroke-miterlimit:3}
	]]>
	</style>

	<g v:mID="0" v:index="1" v:groupContext="foregroundPage">
		<title>Page-1</title>
		<v:pageProperties v:drawingScale="0.0393701" v:pageScale="0.0393701" v:drawingUnits="24" v:shadowOffsetX="8.50394"
				v:shadowOffsetY="-8.50394"/>
		<v:layer v:name="symbols" v:index="0"/>
		<g id="group279-1" transform="translate(7.875,-3.1125)" v:mID="279" v:groupContext="group" v:layerMember="0">
			<title>Lock with Key; Security - ghosted</title>
			<g id="group280-2" v:mID="280" v:groupContext="group" v:layerMember="0">
				<title>Sheet.280</title>
				<g id="group281-3" transform="translate(2.55795E-13,-5.4)" v:mID="281" v:groupContext="group" v:layerMember="0">
					<title>Sheet.281</title>
					<g id="shape282-4" v:mID="282" v:groupContext="shape" v:layerMember="0">
						<title>Sheet.282</title>
						<path d="M5.25 74.25 C2.33 74.25 0 71.92 0 69 L0 45.75 C0 43.35 1.57 41.4 3.75 40.72 L3.75 34.87 C3.75 25.12
									 11.62 17.25 21.37 17.25 C31.13 17.25 39 25.2 39 34.87 L39 40.72 C41.17 41.4 42.75 43.35 42.75
									 45.75 L42.75 69 C42.75 71.92 40.42 74.25 37.5 74.25 L5.25 74.25 ZM30 40.5 L30 34.87 C30 30.15
									 26.1 26.25 21.37 26.25 C16.65 26.25 12.75 30.15 12.75 34.87 L12.75 40.5 L30 40.5 Z"
								class="st1"/>
					</g>
					<g id="shape283-6" v:mID="283" v:groupContext="shape" v:layerMember="0" transform="translate(2.25,-2.25)">
						<title>Sheet.283</title>
						<path d="M35.25 45.15 L34.5 45.15 L34.5 37.12 C34.5 28.65 27.6 21.75 19.12 21.75 C10.65 21.75 3.75 28.65
									 3.75 37.12 L3.75 45.15 L3 45.15 C1.35 45.15 0 46.35 0 48 L0 71.25 C0 72.9 1.35 74.25 3 74.25
									 L35.25 74.25 C36.9 74.25 38.25 72.9 38.25 71.25 L38.25 48 C38.25 46.35 36.9 45.15 35.25 45.15
									 ZM8.25 37.12 C8.25 31.12 13.12 26.25 19.12 26.25 C25.12 26.25 30 31.12 30 37.12 L30 45.15 L8.25
									 45.15 L8.25 37.12 Z" class="st2"/>
					</g>
				</g>
				<g id="group284-8" transform="translate(32.175,3.2685E-13)" v:mID="284" v:groupContext="group" v:layerMember="0">
					<title>Sheet.284</title>
					<g id="group285-9" v:mID="285" v:groupContext="group" v:layerMember="0">
						<title>Sheet.285</title>
						<g id="shape286-10" v:mID="286" v:groupContext="shape" v:layerMember="0">
							<title>Sheet.286</title>
							<path d="M4.65 69.9 L8.63 74.25 L10.57 74.25 L15.75 68.85 L13.58 66.6 L15.07 65.02 L14.85 63.07 L13.27
										 61.35 L14.25 60.15 L14.25 57.82 C17.03 56.17 18.75 53.17 18.75 49.8 C18.75 44.62 14.55 40.42
										 9.38 40.42 C4.2 40.42 0 44.62 0 49.8 C0 53.17 1.73 56.17 4.58 57.82 L4.65 69.9 Z"
									class="st1"/>
						</g>
						<g id="shape287-12" v:mID="287" v:groupContext="shape" v:layerMember="0" transform="translate(2.4,-2.25)">
							<title>Sheet.287</title>
							<path d="M9.75 60.82 L9.75 58.72 C12.38 57.67 14.25 55.12 14.25 52.12 C14.25 48.22 11.03 45 7.13 45 C3.22
										 45 0 48.22 0 52.12 C-0 55.12 1.87 57.75 4.58 58.8 L4.58 71.25 L7.35 74.25 L10.43 71.1 L8.25
										 68.85 L10.5 66.45 L10.5 66.3 L7.95 63.75 L9.67 61.65 L9.75 60.82 ZM7.13 48 C8.18 48 9 48.82
										 9 49.87 C9 50.92 8.18 51.75 7.13 51.75 C6.07 51.75 5.25 50.92 5.25 49.87 C5.25 48.82 6.07
										 48 7.13 48 Z" class="st3"/>
						</g>
					</g>
					<g id="group288-14" transform="translate(2.4,-3.225)" v:mID="288" v:groupContext="group" v:layerMember="0">
						<title>Sheet.288</title>
						<g id="shape289-15" v:mID="289" v:groupContext="shape" v:layerMember="0" transform="translate(0,-20.625)">
							<title>Sheet.289</title>
							<path d="M0 74.25 L7.57 66.6 C7.42 66.6 7.27 66.6 7.12 66.6 C6.45 66.6 5.85 66.67 5.25 66.9 L0.3 71.92
										 C0.15 72.52 0.08 73.12 0.08 73.72 C-0 73.87 0 74.1 0 74.25 Z" class="st4"/>
						</g>
						<g id="shape290-17" v:mID="290" v:groupContext="shape" v:layerMember="0" transform="translate(0.45,-17.25)">
							<title>Sheet.290</title>
							<path d="M0 72.82 C0.15 73.35 0.45 73.8 0.67 74.25 L5.4 69.52 C5.02 69.15 4.8 68.7 4.8 68.1 C4.8 68.02
										 4.8 68.02 4.8 67.95 L0 72.82 Z" class="st4"/>
						</g>
						<g id="shape291-19" v:mID="291" v:groupContext="shape" v:layerMember="0"
								transform="translate(6.975,-24.675)">
							<title>Sheet.291</title>
							<path d="M0 73.65 C0.07 73.65 0.07 73.65 0.15 73.65 C0.68 73.65 1.2 73.87 1.5 74.25 L3.97 71.77 C3.52
										 71.47 3.07 71.25 2.55 71.1 L0 73.65 Z" class="st4"/>
						</g>
						<g id="shape292-21" v:mID="292" v:groupContext="shape" v:layerMember="0"
								transform="translate(2.325,-15.075)">
							<title>Sheet.292</title>
							<path d="M9.98 63.3 L6.52 66.75 C6.38 67.12 6.08 67.42 5.7 67.57 L0 73.35 C0.38 73.72 0.75 74.02 1.2
										 74.25 L10.95 64.42 C10.57 64.05 10.28 63.67 9.98 63.3 Z" class="st4"/>
						</g>
						<g id="shape293-23" v:mID="293" v:groupContext="shape" v:layerMember="0" transform="translate(4.575,-11.7)">
							<title>Sheet.293</title>
							<path d="M9.67 64.57 C9.67 63.97 9.53 63.3 9.38 62.77 L0 72.15 L0 74.25 L9.67 64.57 Z" class="st4"/>
						</g>
						<g id="shape294-25" v:mID="294" v:groupContext="shape" v:layerMember="0" transform="translate(4.575,-7.2)">
							<title>Sheet.294</title>
							<path d="M5.17 69 L5.17 66.97 L0 72.15 L0 74.25 L5.1 69.15 L5.1 69 L5.17 69 Z" class="st4"/>
						</g>
						<g id="shape295-27" v:mID="295" v:groupContext="shape" v:layerMember="0"
								transform="translate(9.825,-14.55)">
							<title>Sheet.295</title>
							<path d="M0 74.25 C1.8 73.5 3.23 72.07 3.9 70.27 L0 74.25 Z" class="st4"/>
						</g>
						<g id="shape296-29" v:mID="296" v:groupContext="shape" v:layerMember="0" transform="translate(4.575,-2.7)">
							<title>Sheet.296</title>
							<path d="M4.05 68.1 L0 72.15 L0 74.25 L5.1 69.15 L4.05 68.1 Z" class="st4"/>
						</g>
						<g id="shape297-31" v:mID="297" v:groupContext="shape" v:layerMember="0"
								transform="translate(5.4,7.10543E-14)">
							<title>Sheet.297</title>
							<path d="M4.13 71.1 L3.08 70.05 L0 73.12 L1.05 74.25 L4.13 71.1 Z" class="st4"/>
						</g>
					</g>
				</g>
			</g>
		</g>
	</g>
</svg>
