<?xml version="1.0" encoding="UTF-8" standalone="no"?>
<!DOCTYPE svg PUBLIC "-//W3C//DTD SVG 1.1//EN" "http://www.w3.org/Graphics/SVG/1.1/DTD/svg11.dtd">
<!-- Generated by Microsoft Visio, SVG Export Lock; Protected - green.svg Page-1 -->
<svg xmlns="http://www.w3.org/2000/svg" xmlns:xlink="http://www.w3.org/1999/xlink" xmlns:ev="http://www.w3.org/2001/xml-events"
		xmlns:v="http://schemas.microsoft.com/visio/2003/SVGExtensions/" width="0.828125in" height="1.01563in"
		viewBox="0 0 59.625 73.125" xml:space="preserve" color-interpolation-filters="sRGB" class="st3">
	<v:documentProperties v:langID="4108" v:metric="true" v:viewMarkup="false"/>

	<style type="text/css">
	<![CDATA[
		.st1 {fill:#ffffff;stroke:none;stroke-linecap:butt;stroke-width:0.75}
		.st2 {fill:#7fba42;stroke:none;stroke-linecap:butt;stroke-width:0.75}
		.st3 {fill:none;fill-rule:evenodd;font-size:12px;overflow:visible;stroke-linecap:square;stroke-miterlimit:3}
	]]>
	</style>

	<g v:mID="0" v:index="1" v:groupContext="foregroundPage">
		<title>Page-1</title>
		<v:pageProperties v:drawingScale="0.0393701" v:pageScale="0.0393701" v:drawingUnits="24" v:shadowOffsetX="8.50394"
				v:shadowOffsetY="-8.50394"/>
		<v:layer v:name="symbols" v:index="0"/>
		<g id="group207-1" transform="translate(8.5875,-8.0625)" v:mID="207" v:groupContext="group" v:layerMember="0">
			<title>Lock; Protected - green</title>
			<g id="group208-2" v:mID="208" v:groupContext="group" v:layerMember="0">
				<title>Sheet.208</title>
				<g id="shape209-3" v:mID="209" v:groupContext="shape" v:layerMember="0">
					<title>Sheet.209</title>
					<path d="M5.25 73.13 C2.33 73.13 0 70.8 0 67.88 L0 44.63 C-0 42.23 1.58 40.28 3.75 39.6 L3.75 33.75 C3.75 24
								 11.62 16.13 21.37 16.13 C31.13 16.13 39 24 39 33.75 L39 39.6 C41.17 40.28 42.75 42.23 42.75 44.63
								 L42.75 67.88 C42.75 70.8 40.43 73.13 37.5 73.13 L5.25 73.13 ZM30 39.38 L30 33.75 C30 29.03 26.1
								 25.13 21.37 25.13 C16.65 25.13 12.75 29.03 12.75 33.75 L12.75 39.38 L30 39.38 Z" class="st1"/>
				</g>
				<g id="shape210-5" v:mID="210" v:groupContext="shape" v:layerMember="0" transform="translate(2.25,-2.25)">
					<title>Sheet.210</title>
					<path d="M35.25 43.88 L34.5 43.88 L34.5 36 C34.5 27.53 27.6 20.63 19.12 20.63 C10.65 20.63 3.75 27.53 3.75 36
								 L3.75 43.88 L3 43.88 C1.35 43.88 0 45.23 0 46.88 L0 70.13 C-0 71.78 1.35 73.13 3 73.13 L35.25 73.13
								 C36.9 73.13 38.25 71.78 38.25 70.13 L38.25 46.88 C38.25 45.23 36.9 43.88 35.25 43.88 ZM8.25 36 C8.25
								 30 13.12 25.13 19.12 25.13 C25.12 25.13 30 30 30 36 L30 43.88 L8.25 43.88 L8.25 36 Z" class="st2"/>
				</g>
			</g>
		</g>
	</g>
</svg>
