<?xml version="1.0" encoding="UTF-8" standalone="no"?>
<!DOCTYPE svg PUBLIC "-//W3C//DTD SVG 1.1//EN" "http://www.w3.org/Graphics/SVG/1.1/DTD/svg11.dtd">
<!-- Generated by Microsoft Visio, SVG Export Lock; Unprotected.svg Page-1 -->
<svg xmlns="http://www.w3.org/2000/svg" xmlns:xlink="http://www.w3.org/1999/xlink" xmlns:ev="http://www.w3.org/2001/xml-events"
		xmlns:v="http://schemas.microsoft.com/visio/2003/SVGExtensions/" width="0.8125in" height="1.04688in"
		viewBox="0 0 58.5 75.375" xml:space="preserve" color-interpolation-filters="sRGB" class="st3">
	<v:documentProperties v:langID="4108" v:metric="true" v:viewMarkup="false"/>

	<style type="text/css">
	<![CDATA[
		.st1 {fill:#ffffff;stroke:none;stroke-linecap:butt;stroke-width:0.75}
		.st2 {fill:#515251;stroke:none;stroke-linecap:butt;stroke-width:0.75}
		.st3 {fill:none;fill-rule:evenodd;font-size:12px;overflow:visible;stroke-linecap:square;stroke-miterlimit:3}
	]]>
	</style>

	<g v:mID="0" v:index="1" v:groupContext="foregroundPage">
		<title>Page-1</title>
		<v:pageProperties v:drawingScale="0.0393701" v:pageScale="0.0393701" v:drawingUnits="24" v:shadowOffsetX="8.50394"
				v:shadowOffsetY="-8.50394"/>
		<v:layer v:name="symbols" v:index="0"/>
		<g id="group144-1" transform="translate(7.6875,-8.0625)" v:mID="144" v:groupContext="group" v:layerMember="0">
			<title>Lock; Unprotected</title>
			<g id="shape145-2" v:mID="145" v:groupContext="shape" v:layerMember="0">
				<title>Sheet.145</title>
				<path d="M39 41.85 L39 33.75 C39 24 31.13 16.13 21.37 16.13 C11.62 16.13 3.75 24 3.75 33.75 L3.75 38.63 L12.75 38.63
							 L12.75 33.75 C12.75 29.03 16.65 25.13 21.37 25.13 C26.1 25.13 30 29.03 30 33.75 L30 41.63 L14.25 41.63
							 L12.75 41.63 L5.25 41.63 L3.75 41.85 C1.58 42.53 0 44.48 0 46.88 L0 70.13 C0 73.05 2.33 75.38 5.25 75.38
							 L37.5 75.38 C40.43 75.38 42.75 73.05 42.75 70.13 L42.75 46.88 C42.75 44.48 41.17 42.53 39 41.85 Z"
						class="st1"/>
			</g>
			<g id="shape146-4" v:mID="146" v:groupContext="shape" v:layerMember="0" transform="translate(2.25,-2.25)">
				<title>Sheet.146</title>
				<path d="M35.25 46.13 L34.5 46.13 L34.5 36 C34.5 27.53 27.6 20.63 19.12 20.63 C10.65 20.63 3.75 27.53 3.75 36 L3.75
							 38.63 L8.25 38.63 L8.25 36 C8.25 30 13.12 25.13 19.12 25.13 C25.12 25.13 30 30 30 36 L30 46.13 L11.25
							 46.13 L8.25 46.13 L3.75 46.13 L3 46.13 C1.35 46.13 0 47.48 0 49.13 L0 72.38 C-0 74.03 1.35 75.38 3 75.38
							 L35.25 75.38 C36.9 75.38 38.25 74.03 38.25 72.38 L38.25 49.13 C38.25 47.48 36.9 46.13 35.25 46.13 Z"
						class="st2"/>
			</g>
		</g>
	</g>
</svg>
