<?xml version="1.0" encoding="UTF-8" standalone="no"?>
<!DOCTYPE svg PUBLIC "-//W3C//DTD SVG 1.1//EN" "http://www.w3.org/Graphics/SVG/1.1/DTD/svg11.dtd">
<!-- Generated by Microsoft Visio, SVG Export Lock; Unprotected - ghosted.svg Page-1 -->
<svg xmlns="http://www.w3.org/2000/svg" xmlns:xlink="http://www.w3.org/1999/xlink" xmlns:ev="http://www.w3.org/2001/xml-events"
		xmlns:v="http://schemas.microsoft.com/visio/2003/SVGExtensions/" width="0.828125in" height="1.04688in"
		viewBox="0 0 59.625 75.375" xml:space="preserve" color-interpolation-filters="sRGB" class="st4">
	<v:documentProperties v:langID="4108" v:metric="true" v:viewMarkup="false"/>

	<style type="text/css">
	<![CDATA[
		.st1 {fill:#ffffff;stroke:none;stroke-linecap:butt;stroke-width:0.75}
		.st2 {fill:#9b9b9b;stroke:none;stroke-linecap:butt;stroke-width:0.75}
		.st3 {fill:#cccbcb;stroke:none;stroke-linecap:butt;stroke-width:0.75}
		.st4 {fill:none;fill-rule:evenodd;font-size:12px;overflow:visible;stroke-linecap:square;stroke-miterlimit:3}
	]]>
	</style>

	<g v:mID="0" v:index="1" v:groupContext="foregroundPage">
		<title>Page-1</title>
		<v:pageProperties v:drawingScale="0.0393701" v:pageScale="0.0393701" v:drawingUnits="24" v:shadowOffsetX="8.50394"
				v:shadowOffsetY="-8.50394"/>
		<v:layer v:name="symbols" v:index="0"/>
		<g id="group159-1" transform="translate(8.5875,-8.0625)" v:mID="159" v:groupContext="group" v:layerMember="0">
			<title>Lock; Unprotected - ghosted</title>
			<g id="group160-2" v:mID="160" v:groupContext="group" v:layerMember="0">
				<title>Sheet.160</title>
				<g id="group161-3" v:mID="161" v:groupContext="group" v:layerMember="0">
					<title>Sheet.161</title>
					<g id="shape162-4" v:mID="162" v:groupContext="shape" v:layerMember="0">
						<title>Sheet.162</title>
						<path d="M5.25 41.63 L3.75 41.85 C1.58 42.53 0 44.48 0 46.88 L0 70.13 C0 73.05 2.33 75.38 5.25 75.38 L37.5
									 75.38 C40.43 75.38 42.75 73.05 42.75 70.13 L42.75 46.88 C42.75 44.48 41.17 42.53 39 41.85 L39
									 33.75 C39 24 31.13 16.13 21.37 16.13 C11.62 16.13 3.75 24 3.75 33.75 L3.75 38.63 L12.75 38.63
									 L12.75 33.75 C12.75 29.03 16.65 25.13 21.37 25.13 C26.1 25.13 30 29.03 30 33.75 L30 41.63 L5.25
									 41.63 Z" class="st1"/>
					</g>
					<g id="shape163-6" v:mID="163" v:groupContext="shape" v:layerMember="0" transform="translate(2.25,-2.25)">
						<title>Sheet.163</title>
						<path d="M3 46.13 C1.35 46.13 0 47.48 0 49.13 L0 72.38 C-0 74.03 1.35 75.38 3 75.38 L35.25 75.38 C36.9 75.38
									 38.25 74.03 38.25 72.38 L38.25 49.13 C38.25 47.48 36.9 46.13 35.25 46.13 L34.5 46.13 L34.5 36
									 C34.5 27.53 27.6 20.63 19.12 20.63 C10.65 20.63 3.75 27.53 3.75 36 L3.75 38.63 L8.25 38.63 L8.25
									 36 C8.25 30 13.12 25.13 19.12 25.13 C25.12 25.13 30 30 30 36 L30 46.13 L3 46.13 Z" class="st2"/>
					</g>
				</g>
				<g id="group164-8" transform="translate(2.25,-2.25)" v:mID="164" v:groupContext="group" v:layerMember="0">
					<title>Sheet.164</title>
					<g id="shape165-9" v:mID="165" v:groupContext="shape" v:layerMember="0" transform="translate(4.875,-45.225)">
						<title>Sheet.165</title>
						<path d="M0 75.38 L8.25 67.05 C4.57 68.63 1.57 71.63 0 75.38 Z" class="st3"/>
					</g>
					<g id="shape166-11" v:mID="166" v:groupContext="shape" v:layerMember="0" transform="translate(3.75,-39.6)">
						<title>Sheet.166</title>
						<path d="M15 60.23 C14.18 60.23 13.43 60.3 12.68 60.45 L0.22 73.05 C0.08 73.8 0 74.63 0 75.38 L15 60.23 Z"
								class="st3"/>
					</g>
					<g id="shape167-13" v:mID="167" v:groupContext="shape" v:layerMember="0" transform="translate(3.75,-36.75)">
						<title>Sheet.167</title>
						<path d="M4.88 70.13 L0 75 L0 75.38 L1.73 75.38 L4.5 72.53 C4.5 71.7 4.65 70.88 4.88 70.13 Z" class="st3"/>
					</g>
					<g id="shape168-15" v:mID="168" v:groupContext="shape" v:layerMember="0" transform="translate(16.35,-49.875)">
						<title>Sheet.168</title>
						<path d="M0 75.38 C0.83 75.15 1.57 75.08 2.47 75 L6.45 70.95 C5.85 70.8 5.25 70.73 4.65 70.65 L0 75.38 Z"
								class="st3"/>
					</g>
					<g id="shape169-17" v:mID="169" v:groupContext="shape" v:layerMember="0" transform="translate(21,-49.65)">
						<title>Sheet.169</title>
						<path d="M1.72 75.38 L5.1 71.93 C4.65 71.7 4.12 71.48 3.6 71.25 L0 74.93 C0.6 75.08 1.12 75.23 1.72 75.38
									 Z" class="st3"/>
					</g>
					<g id="shape170-19" v:mID="170" v:groupContext="shape" v:layerMember="0" transform="translate(0.075,-26.775)">
						<title>Sheet.170</title>
						<path d="M0 75.38 L2.4 72.98 C1.13 73.2 0.22 74.18 0 75.38 Z" class="st3"/>
					</g>
					<g id="shape171-21" v:mID="171" v:groupContext="shape" v:layerMember="0" transform="translate(7.8,-36.75)">
						<title>Sheet.171</title>
						<path d="M0.45 74.93 L0 75.38 L0.45 75.38 L0.45 74.93 Z" class="st3"/>
					</g>
					<g id="shape172-23" v:mID="172" v:groupContext="shape" v:layerMember="0" transform="translate(0,-22.2)">
						<title>Sheet.172</title>
						<path d="M4.87 68.33 L0 73.2 L0 75.38 L6.97 68.33 L4.87 68.33 Z" class="st3"/>
					</g>
					<g id="shape173-25" v:mID="173" v:groupContext="shape" v:layerMember="0" transform="translate(24.375,-48.075)">
						<title>Sheet.173</title>
						<path d="M0 74.55 C0.45 74.78 0.9 75.08 1.27 75.38 L4.5 72.15 C4.13 71.85 3.68 71.55 3.3 71.25 L0 74.55 Z"
								class="st3"/>
					</g>
					<g id="shape174-27" v:mID="174" v:groupContext="shape" v:layerMember="0" transform="translate(27,-45.825)">
						<title>Sheet.174</title>
						<path d="M0.9 75.38 L4.12 72.15 C3.82 71.78 3.45 71.4 3.15 71.03 L0 74.25 C0.22 74.63 0.6 75 0.9 75.38 Z"
								class="st3"/>
					</g>
					<g id="shape175-29" v:mID="175" v:groupContext="shape" v:layerMember="0" transform="translate(0,-17.7)">
						<title>Sheet.175</title>
						<path d="M11.47 63.83 L9.3 63.83 L0 73.2 L0 75.38 L11.47 63.83 Z" class="st3"/>
					</g>
					<g id="shape176-31" v:mID="176" v:groupContext="shape" v:layerMember="0" transform="translate(0,-13.2)">
						<title>Sheet.176</title>
						<path d="M13.8 59.33 L0 73.2 L0 75.38 L15.9 59.33 L13.8 59.33 Z" class="st3"/>
					</g>
					<g id="shape177-33" v:mID="177" v:groupContext="shape" v:layerMember="0" transform="translate(28.8,-42.825)">
						<title>Sheet.177</title>
						<path d="M0 73.88 C0.23 74.33 0.45 74.85 0.6 75.38 L4.05 71.93 C3.83 71.48 3.53 71.03 3.3 70.58 L0 73.88 Z"
								class="st3"/>
					</g>
					<g id="shape178-35" v:mID="178" v:groupContext="shape" v:layerMember="0" transform="translate(1.8785E-13,-8.7)">
						<title>Sheet.178</title>
						<path d="M18.3 54.83 L0 73.2 L0 75.38 L20.4 54.83 L18.3 54.83 Z" class="st3"/>
					</g>
					<g id="shape179-37" v:mID="179" v:groupContext="shape" v:layerMember="0" transform="translate(29.85,-38.925)">
						<title>Sheet.179</title>
						<path d="M0 73.43 C0.08 73.95 0.15 74.4 0.15 74.93 L0.15 75.38 L4.2 71.33 C4.05 70.8 3.9 70.2 3.68 69.68
									 L0 73.43 Z" class="st3"/>
					</g>
					<g id="shape180-39" v:mID="180" v:groupContext="shape" v:layerMember="0" transform="translate(30,-34.425)">
						<title>Sheet.180</title>
						<path d="M0 75.38 L4.5 70.88 L4.5 70.43 C4.5 69.9 4.5 69.38 4.42 68.85 L0 73.28 L0 75.38 Z" class="st3"/>
					</g>
					<g id="shape181-41" v:mID="181" v:groupContext="shape" v:layerMember="0" transform="translate(0,-4.2)">
						<title>Sheet.181</title>
						<path d="M24.9 50.33 L22.8 50.33 L0 73.2 L0 75.38 L24.9 50.33 Z" class="st3"/>
					</g>
					<g id="shape182-43" v:mID="182" v:groupContext="shape" v:layerMember="0" transform="translate(30,-29.85)">
						<title>Sheet.182</title>
						<path d="M0 73.2 L0 75.38 L4.5 70.8 L4.5 68.7 L0 73.2 Z" class="st3"/>
					</g>
					<g id="shape183-45" v:mID="183" v:groupContext="shape" v:layerMember="0" transform="translate(0.15,-0.75)">
						<title>Sheet.183</title>
						<path d="M27.15 46.88 L0 74.1 C0.15 74.63 0.45 75 0.83 75.38 L29.18 46.88 L27.15 46.88 Z" class="st3"/>
					</g>
					<g id="shape184-47" v:mID="184" v:groupContext="shape" v:layerMember="0"
							transform="translate(2.7,-2.70006E-13)">
						<title>Sheet.184</title>
						<path d="M0 75.38 C0.07 75.38 0.22 75.38 0.3 75.38 L2.1 75.38 L31.8 45.45 L31.8 43.35 L0 75.38 Z"
								class="st3"/>
					</g>
					<g id="shape185-49" v:mID="185" v:groupContext="shape" v:layerMember="0"
							transform="translate(7.125,2.70006E-13)">
						<title>Sheet.185</title>
						<path d="M30.3 47.03 C29.93 46.65 29.47 46.35 28.95 46.2 L0 75.38 L2.1 75.38 L30.3 47.03 Z" class="st3"/>
					</g>
					<g id="shape186-51" v:mID="186" v:groupContext="shape" v:layerMember="0" transform="translate(11.925,0)">
						<title>Sheet.186</title>
						<path d="M26.32 49.13 C26.32 48.98 26.33 48.9 26.32 48.83 L0 75.38 L2.1 75.38 L26.32 50.93 L26.32 49.13 Z"
								class="st3"/>
					</g>
					<g id="shape187-53" v:mID="187" v:groupContext="shape" v:layerMember="0" transform="translate(16.425,0)">
						<title>Sheet.187</title>
						<path d="M21.82 55.43 L21.82 53.25 L0 75.38 L2.1 75.38 L21.82 55.43 Z" class="st3"/>
					</g>
					<g id="shape188-55" v:mID="188" v:groupContext="shape" v:layerMember="0" transform="translate(20.925,0)">
						<title>Sheet.188</title>
						<path d="M17.32 59.93 L17.32 57.83 L0 75.38 L2.1 75.38 L17.32 59.93 Z" class="st3"/>
					</g>
					<g id="shape189-57" v:mID="189" v:groupContext="shape" v:layerMember="0" transform="translate(25.425,0)">
						<title>Sheet.189</title>
						<path d="M12.82 64.5 L12.82 62.33 L0 75.38 L2.1 75.38 L12.82 64.5 Z" class="st3"/>
					</g>
					<g id="shape190-59" v:mID="190" v:groupContext="shape" v:layerMember="0" transform="translate(30,1.13687E-13)">
						<title>Sheet.190</title>
						<path d="M8.25 66.98 L0 75.38 L2.1 75.38 L8.25 69.08 L8.25 66.98 Z" class="st3"/>
					</g>
					<g id="shape191-61" v:mID="191" v:groupContext="shape" v:layerMember="0"
							transform="translate(34.425,4.26326E-14)">
						<title>Sheet.191</title>
						<path d="M3.82 72.38 L3.82 71.48 L0 75.38 L0.82 75.38 C1.65 75.38 2.32 75.08 2.85 74.55 L3 74.4 C3.52 73.88
									 3.82 73.2 3.82 72.38 Z" class="st3"/>
					</g>
				</g>
			</g>
		</g>
	</g>
</svg>
