<?xml version="1.0" encoding="UTF-8" standalone="no"?>
<!DOCTYPE svg PUBLIC "-//W3C//DTD SVG 1.1//EN" "http://www.w3.org/Graphics/SVG/1.1/DTD/svg11.dtd">
<!-- Generated by Microsoft Visio, SVG Export Management Role.svg Page-1 -->
<svg xmlns="http://www.w3.org/2000/svg" xmlns:xlink="http://www.w3.org/1999/xlink" xmlns:ev="http://www.w3.org/2001/xml-events"
		xmlns:v="http://schemas.microsoft.com/visio/2003/SVGExtensions/" width="0.90625in" height="0.90625in"
		viewBox="0 0 65.25 65.25" xml:space="preserve" color-interpolation-filters="sRGB" class="st3">
	<v:documentProperties v:langID="4108" v:metric="true" v:viewMarkup="false"/>

	<style type="text/css">
	<![CDATA[
		.st1 {fill:#ffffff;stroke:none;stroke-linecap:butt;stroke-width:0.75}
		.st2 {fill:#515050;stroke:none;stroke-linecap:butt;stroke-width:0.75}
		.st3 {fill:none;fill-rule:evenodd;font-size:12px;overflow:visible;stroke-linecap:square;stroke-miterlimit:3}
	]]>
	</style>

	<g v:mID="0" v:index="1" v:groupContext="foregroundPage">
		<title>Page-1</title>
		<v:pageProperties v:drawingScale="0.0393701" v:pageScale="0.0393701" v:drawingUnits="24" v:shadowOffsetX="8.50394"
				v:shadowOffsetY="-8.50394"/>
		<v:layer v:name="symbols" v:index="0"/>
		<g id="group298-1" transform="translate(7.875,-8.475)" v:mID="298" v:groupContext="group" v:layerMember="0">
			<title>Management Role</title>
			<g id="group299-2" v:mID="299" v:groupContext="group" v:layerMember="0">
				<title>Sheet.299</title>
				<g id="group300-3" v:mID="300" v:groupContext="group" v:layerMember="0">
					<title>Sheet.300</title>
					<g id="shape301-4" v:mID="301" v:groupContext="shape" v:layerMember="0">
						<title>Sheet.301</title>
						<path d="M5.17 65.25 C2.32 65.25 0 62.93 0 60.08 L0 21 C0 18.15 2.32 15.83 5.17 15.83 L44.25 15.83 C47.1
									 15.83 49.42 18.15 49.42 21 L49.42 60.08 C49.42 62.93 47.1 65.25 44.25 65.25 L5.17 65.25 Z"
								class="st1"/>
					</g>
					<g id="shape302-6" v:mID="302" v:groupContext="shape" v:layerMember="0" transform="translate(2.25,-2.25)">
						<title>Sheet.302</title>
						<path d="M42 65.25 L2.92 65.25 C1.27 65.25 0 63.9 0 62.33 L0 23.25 C0 21.6 1.35 20.33 2.92 20.33 L42 20.33
									 C43.65 20.33 44.92 21.68 44.92 23.25 L44.92 62.33 C44.92 63.9 43.65 65.25 42 65.25 Z"
								class="st2"/>
					</g>
				</g>
				<g id="shape303-8" v:mID="303" v:groupContext="shape" v:layerMember="0" transform="translate(17.1,-8.175)">
					<title>Sheet.303</title>
					<path d="M15.15 41.18 C15.15 36.83 11.78 33.23 7.58 33.23 C3.37 33.23 0 36.75 0 41.1 C0 44.18 2.02 46.95 4.65
								 48.23 L4.65 61.95 L7.58 65.25 L10.88 61.8 L8.55 59.33 L11.03 56.7 L11.03 56.55 L8.33 53.7 L10.5
								 51.38 L10.5 50.55 L10.5 48.23 C12.98 46.95 15.15 44.25 15.15 41.18 ZM7.5 41.4 C6.23 41.4 5.1 40.35
								 5.1 39 C5.1 37.73 6.15 36.6 7.5 36.6 C8.78 36.6 9.9 37.65 9.9 39 C9.9 40.35 8.85 41.4 7.5 41.4 Z"
							class="st1"/>
				</g>
			</g>
		</g>
	</g>
</svg>
