<?xml version="1.0" encoding="UTF-8" standalone="no"?>
<!DOCTYPE svg PUBLIC "-//W3C//DTD SVG 1.1//EN" "http://www.w3.org/Graphics/SVG/1.1/DTD/svg11.dtd">
<!-- Generated by Microsoft Visio, SVG Export Policy.svg Page-1 -->
<svg xmlns="http://www.w3.org/2000/svg" xmlns:xlink="http://www.w3.org/1999/xlink" xmlns:ev="http://www.w3.org/2001/xml-events"
		xmlns:v="http://schemas.microsoft.com/visio/2003/SVGExtensions/" width="0.875in" height="0.953125in"
		viewBox="0 0 63 68.625" xml:space="preserve" color-interpolation-filters="sRGB" class="st3">
	<v:documentProperties v:langID="4108" v:metric="true" v:viewMarkup="false"/>

	<style type="text/css">
	<![CDATA[
		.st1 {fill:#ffffff;stroke:none;stroke-linecap:butt;stroke-width:0.75}
		.st2 {fill:#515150;stroke:none;stroke-linecap:butt;stroke-width:0.75}
		.st3 {fill:none;fill-rule:evenodd;font-size:12px;overflow:visible;stroke-linecap:square;stroke-miterlimit:3}
	]]>
	</style>

	<g v:mID="0" v:index="1" v:groupContext="foregroundPage">
		<title>Page-1</title>
		<v:pageProperties v:drawingScale="0.0393701" v:pageScale="0.0393701" v:drawingUnits="24" v:shadowOffsetX="8.50394"
				v:shadowOffsetY="-8.50394"/>
		<v:layer v:name="symbols" v:index="0"/>
		<g id="group304-1" transform="translate(3.1875,-7.6875)" v:mID="304" v:groupContext="group" v:layerMember="0">
			<title>Policy</title>
			<g id="group305-2" v:mID="305" v:groupContext="group" v:layerMember="0">
				<title>Sheet.305</title>
				<g id="shape306-3" v:mID="306" v:groupContext="shape" v:layerMember="0">
					<title>Sheet.306</title>
					<path d="M8.17 68.63 C8.17 68.63 8.17 68.63 8.17 68.63 L8.4 68.63 L39.38 68.63 C44.03 68.25 47.63 64.35 47.63
								 59.7 L47.63 31.12 L48.37 31.12 L48.98 31.12 C53.25 30.97 56.62 27.53 56.62 23.25 C56.62 18.98 53.18
								 15.45 48.9 15.38 L48.83 15.38 L16.87 15.38 C11.93 15.38 7.88 19.43 7.88 24.38 L7.88 52.13 C3.52
								 52.35 0 55.95 0 60.38 C0 64.65 3.3 68.18 7.5 68.55 L8.17 68.63 Z" class="st1"/>
				</g>
				<g id="shape307-5" v:mID="307" v:groupContext="shape" v:layerMember="0" transform="translate(47.625,-39.375)">
					<title>Sheet.307</title>
					<path d="M6.23 59.33 L3.9 59.33 C1.73 59.33 0 61.05 0 63.23 L0 68.63 L0.82 68.63 C4.28 68.63 7.05 65.85 7.05
								 62.4 C7.05 61.28 6.75 60.23 6.23 59.33 Z" class="st2"/>
				</g>
				<g id="shape308-7" v:mID="308" v:groupContext="shape" v:layerMember="0" transform="translate(10.125,-2.175)">
					<title>Sheet.308</title>
					<path d="M35.25 25.65 C35.4 22.8 37.58 20.4 40.43 20.02 C40.43 20.02 40.5 20.02 40.5 20.02 C40.05 19.88 39.53
								 19.88 39.07 19.88 C38.92 19.88 38.85 19.88 38.78 19.88 C38.78 19.88 38.7 19.88 38.7 19.88 L36.75
								 19.88 L34.5 19.88 L13.12 19.88 L6.75 19.88 C3 19.88 0 22.88 0 26.63 L0 54.3 L25.5 54.3 C26.55 54.3
								 27.38 55.2 27.38 56.25 C27.38 57 26.92 57.3 26.92 57.3 C24.98 58.28 23.62 60.3 23.62 62.63 C23.62
								 65.85 26.18 68.48 29.4 68.63 C32.7 68.18 35.25 65.4 35.32 61.95 L35.32 25.65 L35.25 25.65 Z"
							class="st2"/>
				</g>
				<g id="shape309-9" v:mID="309" v:groupContext="shape" v:layerMember="0" transform="translate(2.175,-2.25)">
					<title>Sheet.309</title>
					<path d="M31.88 68.63 C30.3 67.13 29.33 65.03 29.33 62.63 C29.33 60.3 30.3 58.2 31.88 56.62 L6 56.62 C2.7 56.62
								 0 59.32 0 62.63 C0 65.93 2.7 68.63 6 68.63 L31.88 68.63 Z" class="st2"/>
				</g>
			</g>
		</g>
	</g>
</svg>
