<?xml version="1.0" encoding="UTF-8" standalone="no"?>
<!DOCTYPE svg PUBLIC "-//W3C//DTD SVG 1.1//EN" "http://www.w3.org/Graphics/SVG/1.1/DTD/svg11.dtd">
<!-- Generated by Microsoft Visio, SVG Export Protected Voice Mail.svg Page-1 -->
<svg xmlns="http://www.w3.org/2000/svg" xmlns:xlink="http://www.w3.org/1999/xlink" xmlns:ev="http://www.w3.org/2001/xml-events"
		xmlns:v="http://schemas.microsoft.com/visio/2003/SVGExtensions/" width="1.10937in" height="0.90625in"
		viewBox="0 0 79.875 65.25" xml:space="preserve" color-interpolation-filters="sRGB" class="st3">
	<v:documentProperties v:langID="4108" v:metric="true" v:viewMarkup="false"/>

	<style type="text/css">
	<![CDATA[
		.st1 {fill:#ffffff;stroke:none;stroke-linecap:butt;stroke-width:0.75}
		.st2 {fill:#515150;stroke:none;stroke-linecap:butt;stroke-width:0.75}
		.st3 {fill:none;fill-rule:evenodd;font-size:12px;overflow:visible;stroke-linecap:square;stroke-miterlimit:3}
	]]>
	</style>

	<g v:mID="0" v:index="1" v:groupContext="foregroundPage">
		<title>Page-1</title>
		<v:pageProperties v:drawingScale="0.0393701" v:pageScale="0.0393701" v:drawingUnits="24" v:shadowOffsetX="8.50394"
				v:shadowOffsetY="-8.50394"/>
		<v:layer v:name="symbols" v:index="0"/>
		<g id="group390-1" transform="translate(10.125,-0.9375)" v:mID="390" v:groupContext="group" v:layerMember="0">
			<title>Protected Voice Mail</title>
			<g id="group391-2" v:mID="391" v:groupContext="group" v:layerMember="0">
				<title>Sheet.391</title>
				<g id="group392-3" transform="translate(-3.03757E-13,-17.25)" v:mID="392" v:groupContext="group" v:layerMember="0">
					<title>Sheet.392</title>
					<g id="group393-4" v:mID="393" v:groupContext="group" v:layerMember="0">
						<title>Sheet.393</title>
						<g id="shape394-5" v:mID="394" v:groupContext="shape" v:layerMember="0">
							<title>Sheet.394</title>
							<path d="M4.95 65.25 C2.25 65.25 0 63 0 60.3 L0 31.95 C0 29.25 2.25 27 4.95 27 L53.47 27 C56.25 27 58.5
										 29.25 58.5 31.95 L58.5 60.23 C58.5 63 56.25 65.18 53.55 65.18 L4.95 65.18 L4.95 65.25 Z"
									class="st1"/>
						</g>
						<g id="shape395-7" v:mID="395" v:groupContext="shape" v:layerMember="0" transform="translate(2.25,-2.325)">
							<title>Sheet.395</title>
							<path d="M51.3 31.58 L2.7 31.58 C1.2 31.58 0 32.78 0 34.28 L0 62.55 C0 64.05 1.2 65.25 2.7 65.25 L51.22
										 65.25 C52.72 65.25 53.92 64.05 53.92 62.55 L53.92 34.28 C54 32.78 52.8 31.58 51.3 31.58
										 Z" class="st2"/>
						</g>
					</g>
					<g id="shape396-9" v:mID="396" v:groupContext="shape" v:layerMember="0" transform="translate(8.1,-10.5)">
						<title>Sheet.396</title>
						<path d="M9.67 65.25 C4.65 65.25 0.45 61.5 0.15 56.63 C0 54.08 0.9 51.68 2.62 49.8 C4.35 47.93 6.75 46.95
									 9.3 46.95 C9.67 46.95 10.13 46.95 10.5 47.03 C14.17 47.48 17.33 50.25 18.15 53.85 C18.67 56.03
									 18.45 58.2 17.48 60.15 C17.25 60.53 17.33 60.98 17.55 61.35 C17.77 61.73 18.15 61.95 18.6 61.95
									 L23.62 61.95 C24.08 61.95 24.45 61.73 24.67 61.35 C24.9 60.98 24.9 60.53 24.75 60.15 C23.77
									 58.2 23.55 55.95 24.08 53.85 C24.97 50.25 28.05 47.55 31.72 47.03 C32.1 46.95 32.55 46.95 32.92
									 46.95 C35.47 46.95 37.8 48 39.6 49.8 C41.32 51.68 42.22 54.08 42.07 56.63 C41.78 61.5 37.65
									 65.25 32.62 65.25 L9.67 65.25 ZM32.92 50.93 C30.08 50.93 27.75 53.25 27.75 56.1 C27.75 58.95
									 30.08 61.28 32.92 61.28 C35.78 61.28 38.1 58.95 38.1 56.1 C38.1 53.25 35.78 50.93 32.92 50.93
									 ZM9.3 50.93 C6.45 50.93 4.12 53.25 4.12 56.1 C4.12 58.95 6.45 61.28 9.3 61.28 C12.15 61.28 14.47
									 58.95 14.47 56.1 C14.47 53.25 12.15 50.93 9.3 50.93 Z" class="st1"/>
					</g>
				</g>
				<g id="group397-11" transform="translate(38.25,2.70006E-13)" v:mID="397" v:groupContext="group" v:layerMember="0">
					<title>Sheet.397</title>
					<g id="shape398-12" v:mID="398" v:groupContext="shape" v:layerMember="0">
						<title>Sheet.398</title>
						<path d="M3.75 65.25 C1.65 65.25 0 63.6 0 61.5 L0 48 C0 46.5 0.9 45.15 2.25 44.55 L2.25 42 C2.25 36.23 6.98
									 31.5 12.75 31.5 C18.52 31.5 23.25 36.23 23.25 42 L23.25 44.55 C24.6 45.15 25.5 46.43 25.5 48
									 L25.5 61.5 C25.5 63.6 23.85 65.25 21.75 65.25 L3.75 65.25 Z" class="st1"/>
					</g>
					<g id="shape399-14" v:mID="399" v:groupContext="shape" v:layerMember="0" transform="translate(2.25,-2.25)">
						<title>Sheet.399</title>
						<path d="M19.5 48.75 L18.75 48.75 L18.75 44.25 C18.75 39.68 15.08 36 10.5 36 C5.93 36 2.25 39.68 2.25 44.25
									 L2.25 48.75 L1.5 48.75 C0.67 48.75 0 49.43 0 50.25 L0 63.75 C0 64.58 0.68 65.25 1.5 65.25 L19.5
									 65.25 C20.33 65.25 21 64.58 21 63.75 L21 50.25 C21 49.43 20.33 48.75 19.5 48.75 ZM5.25 44.25
									 C5.25 41.33 7.58 39 10.5 39 C13.42 39 15.75 41.33 15.75 44.25 L15.75 48.75 L5.25 48.75 L5.25
									 44.25 Z" class="st2"/>
					</g>
				</g>
			</g>
		</g>
	</g>
</svg>
