<?xml version="1.0" encoding="UTF-8" standalone="no"?>
<!DOCTYPE svg PUBLIC "-//W3C//DTD SVG 1.1//EN" "http://www.w3.org/Graphics/SVG/1.1/DTD/svg11.dtd">
<!-- Generated by Microsoft Visio, SVG Export Retention Policy Tag.svg Page-1 -->
<svg xmlns="http://www.w3.org/2000/svg" xmlns:xlink="http://www.w3.org/1999/xlink" xmlns:ev="http://www.w3.org/2001/xml-events"
		xmlns:v="http://schemas.microsoft.com/visio/2003/SVGExtensions/" width="0.90625in" height="1.01563in"
		viewBox="0 0 65.25 73.125" xml:space="preserve" color-interpolation-filters="sRGB" class="st3">
	<v:documentProperties v:langID="4108" v:metric="true" v:viewMarkup="false"/>

	<style type="text/css">
	<![CDATA[
		.st1 {fill:#ffffff;stroke:none;stroke-linecap:butt;stroke-width:0.75}
		.st2 {fill:#515251;stroke:none;stroke-linecap:butt;stroke-width:0.75}
		.st3 {fill:none;fill-rule:evenodd;font-size:12px;overflow:visible;stroke-linecap:square;stroke-miterlimit:3}
	]]>
	</style>

	<g v:mID="0" v:index="1" v:groupContext="foregroundPage">
		<title>Page-1</title>
		<v:pageProperties v:drawingScale="0.0393701" v:pageScale="0.0393701" v:drawingUnits="24" v:shadowOffsetX="8.50394"
				v:shadowOffsetY="-8.50394"/>
		<v:layer v:name="symbols" v:index="0"/>
		<g id="group329-1" transform="translate(1.9875,-3.15)" v:mID="329" v:groupContext="group" v:layerMember="0">
			<title>Retention Policy Tag</title>
			<g id="group330-2" transform="translate(0,-9.15)" v:mID="330" v:groupContext="group" v:layerMember="0">
				<title>Sheet.330</title>
				<g id="shape331-3" v:mID="331" v:groupContext="shape" v:layerMember="0">
					<title>Sheet.331</title>
					<path d="M8.25 73.13 C8.25 73.13 8.25 73.13 8.25 73.13 L8.48 73.13 L39.45 73.13 C44.02 72.75 47.62 68.85 47.62
								 64.2 L47.62 35.63 L48.37 35.63 L48.98 35.63 C53.25 35.55 56.62 32.03 56.62 27.83 C56.62 23.48 53.17
								 20.03 48.9 19.95 L48.82 19.95 L16.95 19.95 C12 19.95 7.95 24 7.95 28.95 L7.95 56.7 C3.52 56.85 0
								 60.53 0 64.95 C-0 69.23 3.3 72.75 7.5 73.13 L8.25 73.13 Z" class="st1"/>
				</g>
				<g id="shape332-5" v:mID="332" v:groupContext="shape" v:layerMember="0" transform="translate(47.625,-39.375)">
					<title>Sheet.332</title>
					<path d="M6.23 63.83 L3.9 63.83 C1.73 63.83 0 65.55 0 67.73 L0 73.13 L0.82 73.13 C4.28 73.13 7.05 70.35 7.05
								 66.9 C7.05 65.78 6.75 64.73 6.23 63.83 Z" class="st2"/>
				</g>
				<g id="shape333-7" v:mID="333" v:groupContext="shape" v:layerMember="0" transform="translate(10.2,-2.175)">
					<title>Sheet.333</title>
					<path d="M35.17 30.23 C35.32 27.38 37.5 24.98 40.35 24.6 C40.35 24.6 40.42 24.6 40.42 24.6 C39.97 24.45 39.52
								 24.38 39 24.38 C38.85 24.38 38.77 24.38 38.7 24.38 C38.7 24.38 38.62 24.38 38.62 24.38 L36.75 24.38
								 L34.5 24.38 L13.12 24.38 L6.75 24.38 C3 24.38 0 27.38 0 31.13 L0 58.8 L25.5 58.8 C26.55 58.8 27.37
								 59.7 27.37 60.75 C27.37 61.5 26.92 61.8 26.92 61.8 C24.97 62.78 23.62 64.8 23.62 67.13 C23.62 70.35
								 26.17 72.98 29.4 73.13 C32.7 72.68 35.25 69.9 35.32 66.45 L35.32 30.23 L35.17 30.23 Z" class="st2"/>
				</g>
				<g id="shape334-9" v:mID="334" v:groupContext="shape" v:layerMember="0" transform="translate(2.25,-2.25)">
					<title>Sheet.334</title>
					<path d="M31.87 73.13 C30.3 71.63 29.32 69.53 29.32 67.13 C29.32 64.8 30.3 62.7 31.87 61.13 L6 61.13 C2.7 61.13
								 0 63.83 0 67.13 C0 70.43 2.7 73.13 6 73.13 L31.87 73.13 Z" class="st2"/>
				</g>
			</g>
			<g id="group335-11" transform="translate(26.625,0)" v:mID="335" v:groupContext="group" v:layerMember="0">
				<title>Sheet.335</title>
				<g id="shape336-12" v:mID="336" v:groupContext="shape" v:layerMember="0">
					<title>Sheet.336</title>
					<path d="M16.95 39.38 C7.57 39.38 0 46.95 0 56.25 C0 65.55 7.57 73.13 16.95 73.13 C26.25 73.13 33.82 65.55 33.82
								 56.25 C33.82 46.95 26.25 39.38 16.95 39.38 Z" class="st1"/>
				</g>
				<g id="shape337-14" v:mID="337" v:groupContext="shape" v:layerMember="0" transform="translate(2.25,-2.25)">
					<title>Sheet.337</title>
					<path d="M14.7 43.88 C6.6 43.88 0 50.4 0 58.5 C0 66.6 6.52 73.13 14.62 73.13 C22.72 73.13 29.25 66.6 29.25 58.5
								 C29.33 50.4 22.72 43.88 14.7 43.88 ZM14.7 70.73 C7.95 70.73 2.48 65.25 2.47 58.5 C2.48 51.75 7.95
								 46.28 14.7 46.28 C21.45 46.28 26.93 51.75 26.93 58.5 C26.85 65.25 21.38 70.73 14.7 70.73 Z"
							class="st2"/>
				</g>
				<g id="shape338-16" v:mID="338" v:groupContext="shape" v:layerMember="0" transform="translate(15.75,-10.5)">
					<title>Sheet.338</title>
					<path d="M7.5 73.13 C7.35 73.13 7.2 73.05 7.05 72.98 L0.3 67.73 C0.15 67.58 0 67.35 0 67.13 L0 56.63 C0 56.18
								 0.3 55.88 0.75 55.88 C1.2 55.88 1.5 56.18 1.5 56.63 L1.5 66.75 L7.95 71.78 C8.25 72 8.32 72.53 8.1
								 72.83 C7.95 73.05 7.72 73.13 7.5 73.13 Z" class="st2"/>
				</g>
			</g>
		</g>
	</g>
</svg>
