<?xml version="1.0" encoding="UTF-8" standalone="no"?>
<!DOCTYPE svg PUBLIC "-//W3C//DTD SVG 1.1//EN" "http://www.w3.org/Graphics/SVG/1.1/DTD/svg11.dtd">
<!-- Generated by Microsoft Visio, SVG Export Retention Policy.svg Page-1 -->
<svg xmlns="http://www.w3.org/2000/svg" xmlns:xlink="http://www.w3.org/1999/xlink" xmlns:ev="http://www.w3.org/2001/xml-events"
		xmlns:v="http://schemas.microsoft.com/visio/2003/SVGExtensions/" width="0.919271in" height="0.96875in"
		viewBox="0 0 66.1875 69.75" xml:space="preserve" color-interpolation-filters="sRGB" class="st4">
	<v:documentProperties v:langID="4108" v:metric="true" v:viewMarkup="false"/>

	<style type="text/css">
	<![CDATA[
		.st1 {fill:#ffffff;stroke:none;stroke-linecap:butt;stroke-width:0.75}
		.st2 {fill:#515150;stroke:none;stroke-linecap:butt;stroke-width:0.75}
		.st3 {fill:#515050;stroke:none;stroke-linecap:butt;stroke-width:0.75}
		.st4 {fill:none;fill-rule:evenodd;font-size:12px;overflow:visible;stroke-linecap:square;stroke-miterlimit:3}
	]]>
	</style>

	<g v:mID="0" v:index="1" v:groupContext="foregroundPage">
		<title>Page-1</title>
		<v:pageProperties v:drawingScale="0.0393701" v:pageScale="0.0393701" v:drawingUnits="24" v:shadowOffsetX="8.50394"
				v:shadowOffsetY="-8.50394"/>
		<v:layer v:name="symbols" v:index="0"/>
		<g id="group317-1" transform="translate(0.75,-3.9375)" v:mID="317" v:groupContext="group" v:layerMember="0">
			<title>Retention Policy</title>
			<g id="group318-2" v:mID="318" v:groupContext="group" v:layerMember="0">
				<title>Sheet.318</title>
				<g id="group319-3" transform="translate(0,-5.25)" v:mID="319" v:groupContext="group" v:layerMember="0">
					<title>Sheet.319</title>
					<g id="shape320-4" v:mID="320" v:groupContext="shape" v:layerMember="0">
						<title>Sheet.320</title>
						<path d="M8.17 69.75 C8.17 69.75 8.17 69.75 8.17 69.75 L8.4 69.75 L39.38 69.75 C44.03 69.37 47.63 65.48 47.63
									 60.82 L47.63 32.25 L48.38 32.25 L48.98 32.25 C53.25 32.1 56.63 28.65 56.63 24.37 C56.63 20.1
									 53.18 16.58 48.9 16.5 L48.83 16.5 L16.87 16.5 C11.93 16.5 7.88 20.55 7.88 25.5 L7.88 53.25 C3.53
									 53.48 0 57.08 0 61.5 C0 65.78 3.3 69.3 7.5 69.68 L8.17 69.75 Z" class="st1"/>
					</g>
					<g id="shape321-6" v:mID="321" v:groupContext="shape" v:layerMember="0" transform="translate(47.625,-39.375)">
						<title>Sheet.321</title>
						<path d="M6.23 60.45 L3.9 60.45 C1.73 60.45 0 62.18 0 64.35 L0 69.75 L0.82 69.75 C4.28 69.75 7.05 66.98 7.05
									 63.53 C7.05 62.4 6.75 61.35 6.23 60.45 Z" class="st2"/>
					</g>
					<g id="shape322-8" v:mID="322" v:groupContext="shape" v:layerMember="0" transform="translate(10.125,-2.175)">
						<title>Sheet.322</title>
						<path d="M35.25 26.77 C35.4 23.92 37.58 21.52 40.43 21.15 C40.43 21.15 40.5 21.15 40.5 21.15 C40.05 21 39.53
									 21 39.07 21 C38.93 21 38.85 21 38.78 21 C38.78 21 38.7 21 38.7 21 L36.75 21 L34.5 21 L13.12
									 21 L6.75 21 C3 21 0 24 0 27.75 L0 55.43 L25.5 55.43 C26.55 55.43 27.38 56.32 27.38 57.38 C27.38
									 58.12 26.92 58.43 26.92 58.43 C24.98 59.4 23.62 61.43 23.62 63.75 C23.62 66.97 26.18 69.6 29.4
									 69.75 C32.7 69.3 35.25 66.53 35.32 63.07 L35.32 26.77 L35.25 26.77 Z" class="st2"/>
					</g>
					<g id="shape323-10" v:mID="323" v:groupContext="shape" v:layerMember="0" transform="translate(2.175,-2.25)">
						<title>Sheet.323</title>
						<path d="M31.88 69.75 C30.3 68.25 29.33 66.15 29.33 63.75 C29.33 61.42 30.3 59.32 31.88 57.75 L6 57.75 C2.7
									 57.75 0 60.45 0 63.75 C0 67.05 2.7 69.75 6 69.75 L31.88 69.75 Z" class="st2"/>
					</g>
				</g>
				<g id="group324-12" transform="translate(28.125,2.84217E-13)" v:mID="324" v:groupContext="group" v:layerMember="0">
					<title>Sheet.324</title>
					<g id="group325-13" v:mID="325" v:groupContext="group" v:layerMember="0">
						<title>Layer_3_4_</title>
						<g id="shape326-14" v:mID="326" v:groupContext="shape" v:layerMember="0">
							<title>Sheet.326</title>
							<path d="M15 69.75 C7.2 69.75 4.2 66.97 3.9 66.6 L3.15 65.85 L0 39.15 C0 39.15 0 39 0 38.92 C0 38.78
										 -0 38.4 0.07 38.1 C0.15 37.72 0.45 37.2 0.6 36.97 C2.25 34.27 6.98 33 15 33 C23.03 33 27.75
										 34.27 29.4 36.9 C29.48 36.97 29.85 37.65 30 38.4 C30 38.4 30.08 38.7 30.08 38.85 C30.08
										 38.92 30.08 39.07 30.08 39.07 L30.08 39.3 L26.93 65.85 L26.17 66.6 C25.8 66.97 22.8 69.75
										 15 69.75 Z" class="st1"/>
						</g>
						<g id="shape327-16" v:mID="327" v:groupContext="shape" v:layerMember="0" transform="translate(2.175,-2.25)">
							<title>Sheet.327</title>
							<path d="M0.07 41.25 L3.08 67.12 L3.22 67.28 C3.37 67.35 5.85 69.75 12.83 69.75 C19.8 69.75 22.28 67.35
										 22.35 67.28 L22.5 67.12 L25.5 41.4 C25.5 41.4 25.5 41.25 25.5 41.17 L25.5 41.1 C25.35 40.05
										 23.78 37.58 12.75 37.57 C1.72 37.58 0.22 40.05 0 41.1 C0.07 41.03 0.07 41.25 0.07 41.25
										 ZM12.83 39 C21.45 39 23.48 40.57 23.93 41.17 C23.48 41.7 21.45 43.5 12.83 43.5 C4.2 43.5
										 2.18 41.7 1.72 41.1 C2.18 40.57 4.2 39 12.83 39 ZM21.3 64.72 C21.3 64.72 19.13 66.75 12.83
										 66.75 C6.53 66.75 4.35 64.72 4.35 64.72 L1.8 43.12 C3.45 44.02 6.67 44.93 12.83 44.93 C18.97
										 44.93 22.2 44.02 23.85 43.12 L21.3 64.72 Z" class="st3"/>
						</g>
					</g>
					<g id="shape328-18" v:mID="328" v:groupContext="shape" v:layerMember="0" transform="translate(7.5,-9.3)">
						<title>Sheet.328</title>
						<path d="M14.63 62.7 L13.43 60.68 L10.43 62.4 L12.08 65.18 C12.15 65.33 12 65.47 11.85 65.47 L9.67 65.47
									 L9.67 64.28 L7.42 66.97 L9.67 69.75 L9.67 68.48 L11.4 68.48 C12.3 68.48 12.83 67.73 12.83 67.73
									 L14.78 64.35 C15.15 63.45 14.63 62.7 14.63 62.7 ZM3.22 65.47 C3 65.47 3 65.25 3.07 65.1 L4.12
									 63.23 L5.17 63.83 L3.6 60.45 L0 60.9 L1.12 61.58 L0.45 62.85 C-0 63.68 0.38 64.42 0.38 64.42
									 L2.25 67.73 C2.92 68.63 3.82 68.55 3.82 68.55 L6.97 68.55 L6.97 65.55 L3.22 65.47 ZM7.73 57.75
									 L8.85 59.63 L7.8 60.3 L11.48 60.6 L12.98 57.23 L11.85 57.9 L11.1 56.63 C10.58 55.88 9.75 55.8
									 9.75 55.8 L5.4 55.8 C4.27 55.95 3.9 56.7 3.9 56.7 L2.62 58.73 L5.62 60.45 L7.35 57.68 C7.5 57.6
									 7.65 57.6 7.73 57.75 Z" class="st3"/>
					</g>
				</g>
			</g>
		</g>
	</g>
</svg>
