<?xml version="1.0" encoding="UTF-8" standalone="no"?>
<!DOCTYPE svg PUBLIC "-//W3C//DTD SVG 1.1//EN" "http://www.w3.org/Graphics/SVG/1.1/DTD/svg11.dtd">
<!-- Generated by Microsoft Visio, SVG Export Role Assignment Policy.svg Page-1 -->
<svg xmlns="http://www.w3.org/2000/svg" xmlns:xlink="http://www.w3.org/1999/xlink" xmlns:ev="http://www.w3.org/2001/xml-events"
		xmlns:v="http://schemas.microsoft.com/visio/2003/SVGExtensions/" width="0.953125in" height="1.01563in"
		viewBox="0 0 68.625 73.125" xml:space="preserve" color-interpolation-filters="sRGB" class="st4">
	<v:documentProperties v:langID="4108" v:metric="true" v:viewMarkup="false"/>

	<style type="text/css">
	<![CDATA[
		.st1 {fill:#ffffff;stroke:none;stroke-linecap:butt;stroke-width:0.75}
		.st2 {fill:#515150;stroke:none;stroke-linecap:butt;stroke-width:0.75}
		.st3 {fill:#515050;stroke:none;stroke-linecap:butt;stroke-width:0.75}
		.st4 {fill:none;fill-rule:evenodd;font-size:12px;overflow:visible;stroke-linecap:square;stroke-miterlimit:3}
	]]>
	</style>

	<g v:mID="0" v:index="1" v:groupContext="foregroundPage">
		<title>Page-1</title>
		<v:pageProperties v:drawingScale="0.0393701" v:pageScale="0.0393701" v:drawingUnits="24" v:shadowOffsetX="8.50394"
				v:shadowOffsetY="-8.50394"/>
		<v:layer v:name="symbols" v:index="0"/>
		<g id="group400-1" transform="translate(2.25,-7.3125)" v:mID="400" v:groupContext="group" v:layerMember="0">
			<title>Role Assignment Policy</title>
			<g id="group401-2" v:mID="401" v:groupContext="group" v:layerMember="0">
				<title>Sheet.401</title>
				<g id="group402-3" transform="translate(2.95763E-13,-5.25)" v:mID="402" v:groupContext="group" v:layerMember="0">
					<title>Sheet.402</title>
					<g id="shape403-4" v:mID="403" v:groupContext="shape" v:layerMember="0">
						<title>Sheet.403</title>
						<path d="M8.17 73.12 C8.17 73.12 8.17 73.12 8.17 73.12 L8.4 73.12 L39.37 73.12 C44.02 72.75 47.62 68.85 47.62
									 64.2 L47.62 35.62 L48.37 35.62 L48.97 35.62 C53.25 35.47 56.62 32.03 56.62 27.75 C56.62 23.48
									 53.17 19.95 48.9 19.88 L48.82 19.88 L16.87 19.88 C11.93 19.88 7.88 23.93 7.87 28.87 L7.87 56.62
									 C3.52 56.85 0 60.45 0 64.87 C-0 69.15 3.3 72.68 7.5 73.05 L8.17 73.12 Z" class="st1"/>
					</g>
					<g id="shape404-6" v:mID="404" v:groupContext="shape" v:layerMember="0" transform="translate(47.625,-39.375)">
						<title>Sheet.404</title>
						<path d="M6.23 63.83 L3.9 63.83 C1.73 63.83 0 65.55 0 67.73 L0 73.12 L0.82 73.12 C4.28 73.12 7.05 70.35 7.05
									 66.9 C7.05 65.78 6.75 64.73 6.23 63.83 Z" class="st2"/>
					</g>
					<g id="shape405-8" v:mID="405" v:groupContext="shape" v:layerMember="0" transform="translate(10.125,-2.175)">
						<title>Sheet.405</title>
						<path d="M35.25 30.15 C35.4 27.3 37.57 24.9 40.42 24.52 C40.42 24.52 40.5 24.52 40.5 24.52 C40.05 24.37 39.52
									 24.37 39.07 24.37 C38.92 24.37 38.85 24.37 38.77 24.37 C38.77 24.37 38.7 24.37 38.7 24.37 L36.75
									 24.37 L34.5 24.37 L13.12 24.37 L6.75 24.37 C3 24.37 0 27.37 0 31.13 L0 58.8 L25.5 58.8 C26.55
									 58.8 27.38 59.7 27.38 60.75 C27.38 61.5 26.92 61.8 26.92 61.8 C24.97 62.78 23.62 64.8 23.62
									 67.13 C23.62 70.35 26.18 72.97 29.4 73.12 C32.7 72.67 35.25 69.9 35.32 66.45 L35.32 30.15 L35.25
									 30.15 Z" class="st2"/>
					</g>
					<g id="shape406-10" v:mID="406" v:groupContext="shape" v:layerMember="0" transform="translate(2.175,-2.25)">
						<title>Sheet.406</title>
						<path d="M31.87 73.12 C30.3 71.62 29.32 69.52 29.32 67.12 C29.32 64.8 30.3 62.7 31.87 61.12 L6 61.12 C2.7
									 61.12 0 63.82 0 67.12 C0 70.42 2.7 73.12 6 73.12 L31.87 73.12 Z" class="st2"/>
					</g>
				</g>
				<g id="group407-12" transform="translate(29.625,-2.84217E-13)" v:mID="407" v:groupContext="group" v:layerMember="0">
					<title>Sheet.407</title>
					<g id="group408-13" v:mID="408" v:groupContext="group" v:layerMember="0">
						<title>Sheet.408</title>
						<g id="shape409-14" v:mID="409" v:groupContext="shape" v:layerMember="0">
							<title>Sheet.409</title>
							<path d="M4.5 73.12 C2.02 73.12 0 71.1 0 68.63 L0 47.63 C0 45.15 2.02 43.13 4.5 43.13 L25.5 43.13 C27.97
										 43.13 30 45.15 30 47.63 L30 68.63 C30 71.1 27.97 73.12 25.5 73.12 L4.5 73.12 Z"
									class="st1"/>
						</g>
						<g id="shape410-16" v:mID="410" v:groupContext="shape" v:layerMember="0" transform="translate(2.25,-2.25)">
							<title>Sheet.410</title>
							<path d="M25.5 70.88 C25.5 72.15 24.52 73.12 23.25 73.12 L2.25 73.12 C0.97 73.12 0 72.15 0 70.88 L0 49.88
										 C-0 48.6 0.97 47.63 2.25 47.63 L23.25 47.63 C24.52 47.63 25.5 48.6 25.5 49.88 L25.5 70.88
										 Z" class="st3"/>
						</g>
					</g>
					<g id="shape411-18" v:mID="411" v:groupContext="shape" v:layerMember="0" transform="translate(9.675,-3.975)">
						<title>Sheet.411</title>
						<path d="M9.9 57.53 C9.9 54.68 7.73 52.35 4.95 52.35 C2.25 52.35 0 54.68 0 57.45 C0 59.47 1.35 61.28 3 62.1
									 L3 71.03 L4.95 73.12 L7.12 70.88 L5.63 69.3 L7.2 67.65 L7.2 67.58 L5.47 65.7 L6.9 64.2 L6.9
									 63.6 L6.9 62.1 C8.55 61.28 9.9 59.55 9.9 57.53 ZM4.95 57.68 C4.13 57.68 3.37 57 3.37 56.1 C3.37
									 55.28 4.05 54.53 4.95 54.53 C5.77 54.53 6.53 55.2 6.53 56.1 C6.53 57 5.85 57.68 4.95 57.68 Z"
								class="st1"/>
					</g>
				</g>
			</g>
		</g>
	</g>
</svg>
