<?xml version="1.0" encoding="UTF-8" standalone="no"?>
<!DOCTYPE svg PUBLIC "-//W3C//DTD SVG 1.1//EN" "http://www.w3.org/Graphics/SVG/1.1/DTD/svg11.dtd">
<!-- Generated by Microsoft Visio, SVG Export Role Group.svg Page-1 -->
<svg xmlns="http://www.w3.org/2000/svg" xmlns:xlink="http://www.w3.org/1999/xlink" xmlns:ev="http://www.w3.org/2001/xml-events"
		xmlns:v="http://schemas.microsoft.com/visio/2003/SVGExtensions/" width="1.03984in" height="0.90625in"
		viewBox="0 0 74.8688 65.25" xml:space="preserve" color-interpolation-filters="sRGB" class="st4">
	<v:documentProperties v:langID="4108" v:metric="true" v:viewMarkup="false"/>

	<style type="text/css">
	<![CDATA[
		.st1 {fill:#ffffff;stroke:none;stroke-linecap:butt;stroke-width:0.75}
		.st2 {fill:#515251;stroke:none;stroke-linecap:butt;stroke-width:0.75}
		.st3 {fill:#515050;stroke:none;stroke-linecap:butt;stroke-width:0.75}
		.st4 {fill:none;fill-rule:evenodd;font-size:12px;overflow:visible;stroke-linecap:square;stroke-miterlimit:3}
	]]>
	</style>

	<g v:mID="0" v:index="1" v:groupContext="foregroundPage">
		<title>Page-1</title>
		<v:pageProperties v:drawingScale="0.0393701" v:pageScale="0.0393701" v:drawingUnits="24" v:shadowOffsetX="8.50394"
				v:shadowOffsetY="-8.50394"/>
		<v:layer v:name="symbols" v:index="0"/>
		<g id="group412-1" transform="translate(4.55625,-2.8125)" v:mID="412" v:groupContext="group" v:layerMember="0">
			<title>Role Group</title>
			<g id="group413-2" v:mID="413" v:groupContext="group" v:layerMember="0">
				<title>Sheet.413</title>
				<g id="group414-3" transform="translate(-3.15747E-13,-12.825)" v:mID="414" v:groupContext="group" v:layerMember="0">
					<title>Sheet.414</title>
					<g id="group415-4" transform="translate(24.75,-7.95)" v:mID="415" v:groupContext="group" v:layerMember="0">
						<title>Sheet.415</title>
						<g id="shape416-5" v:mID="416" v:groupContext="shape" v:layerMember="0">
							<title>Sheet.416</title>
							<path d="M0 65.25 L0.15 62.85 C0.3 60.23 0.97 54.83 1.5 52.28 C2.17 49.35 3.08 47.33 5.92 45.75 L6.9
										 45.23 C8.85 44.1 9.75 43.58 10.95 43.58 C11.63 43.58 12.23 43.73 12.82 44.03 L13.05 44.18
										 L13.27 44.33 C13.72 44.78 14.25 45.15 14.78 45.38 C15.22 45.68 15.6 45.83 16.05 45.98 L16.12
										 45.98 C16.95 46.28 17.85 46.43 18.67 46.43 C19.58 46.43 20.4 46.28 21.22 45.98 C21.75 45.83
										 22.13 45.68 22.5 45.38 L22.72 45.23 L22.95 45.08 C23.32 44.85 23.7 44.55 24 44.25 L24.22
										 44.1 L24.45 43.95 C25.05 43.65 25.65 43.5 26.32 43.5 C27.52 43.5 28.57 44.1 30.3 45.08 C30.6
										 45.23 30.97 45.45 31.35 45.68 C34.2 47.25 35.1 49.28 35.77 52.28 C36.37 54.83 36.97 60.23
										 37.12 62.85 L37.27 65.25 L0 65.25 Z" class="st1"/>
						</g>
						<g id="shape417-7" v:mID="417" v:groupContext="shape" v:layerMember="0" transform="translate(2.325,-2.25)">
							<title>Sheet.417</title>
							<path d="M31.35 55.05 C30.75 52.35 30 51.08 27.97 49.95 C25.95 48.83 24.82 48.08 24.07 48.08 C23.77 48.08
										 23.48 48.15 23.25 48.3 C22.72 48.75 22.2 49.13 21.67 49.5 C21.67 49.5 21.67 49.5 21.67 49.5
										 C21.6 49.58 21.53 49.65 21.37 49.65 C20.78 50.03 20.25 50.25 19.65 50.4 C18.6 50.78 17.47
										 51 16.35 51 C15.15 51 14.1 50.78 13.05 50.4 C12.45 50.25 11.93 49.95 11.33 49.65 C10.65
										 49.28 10.05 48.83 9.45 48.3 C9.23 48.15 9 48.08 8.63 48.08 C7.88 48.08 7.12 48.6 4.72 49.95
										 C2.7 51.08 2.02 52.35 1.35 55.05 C0.82 57.38 0.22 62.7 0 65.25 L32.55 65.25 C32.47 62.7
										 31.87 57.38 31.35 55.05 Z" class="st2"/>
						</g>
						<g id="shape418-9" v:mID="418" v:groupContext="shape" v:layerMember="0" transform="translate(8.475,-17.85)">
							<title>Sheet.418</title>
							<path d="M10.2 65.25 C4.57 65.25 0 60.3 0 54.15 C-0 48.08 4.57 43.13 10.2 43.13 C15.82 43.13 20.4 48.08
										 20.4 54.23 C20.4 60.3 15.82 65.25 10.2 65.25 Z" class="st1"/>
						</g>
						<g id="shape419-11" v:mID="419" v:groupContext="shape" v:layerMember="0"
								transform="translate(10.725,-20.1)">
							<title>Sheet.419</title>
							<path d="M7.95 65.25 C3.6 65.25 0 61.28 0 56.4 C0 51.6 3.6 47.63 7.95 47.63 C12.3 47.63 15.9 51.6 15.9
										 56.48 C15.9 61.35 12.37 65.25 7.95 65.25 Z" class="st2"/>
						</g>
					</g>
					<g id="group420-13" v:mID="420" v:groupContext="group" v:layerMember="0">
						<title>Sheet.420</title>
						<g id="shape421-14" v:mID="421" v:groupContext="shape" v:layerMember="0">
							<title>Sheet.421</title>
							<path d="M0 65.25 L0.15 62.85 C0.3 60.23 0.98 54.83 1.57 52.28 C2.18 49.35 3.15 47.33 6 45.75 L6.98 45.23
										 C8.92 44.1 9.82 43.58 11.03 43.58 C11.7 43.58 12.3 43.73 12.9 44.03 L13.13 44.18 L13.35
										 44.33 C13.8 44.78 14.33 45.15 14.85 45.38 C15.3 45.68 15.68 45.83 16.12 45.98 L16.2 45.98
										 C17.03 46.28 17.93 46.43 18.75 46.43 C19.65 46.43 20.48 46.28 21.3 45.98 C21.83 45.83 22.2
										 45.68 22.58 45.38 L22.8 45.23 L23.03 45.08 C23.4 44.85 23.78 44.55 24.07 44.25 L24.3 44.1
										 L24.53 43.95 C25.13 43.65 25.73 43.5 26.4 43.5 C27.6 43.5 28.65 44.1 30.37 45.08 C30.68
										 45.23 31.05 45.45 31.43 45.68 C34.27 47.25 35.18 49.28 35.85 52.28 C36.45 54.83 37.05 60.23
										 37.2 62.85 L37.35 65.25 L0 65.25 Z" class="st1"/>
						</g>
						<g id="shape422-16" v:mID="422" v:groupContext="shape" v:layerMember="0" transform="translate(2.4,-2.25)">
							<title>Sheet.422</title>
							<path d="M31.28 55.05 C30.68 52.35 29.93 51.08 27.9 49.95 C25.88 48.83 24.75 48.08 24 48.08 C23.7 48.08
										 23.4 48.15 23.18 48.3 C22.65 48.75 22.13 49.13 21.6 49.5 C21.6 49.5 21.6 49.5 21.6 49.5
										 C21.53 49.58 21.45 49.65 21.3 49.65 C20.7 50.03 20.17 50.25 19.57 50.4 C18.52 50.78 17.4
										 51 16.28 51 C15.08 51 14.03 50.78 12.98 50.4 C12.37 50.25 11.85 49.95 11.25 49.65 C10.58
										 49.28 9.98 48.83 9.37 48.3 C9.15 48.15 8.93 48.08 8.55 48.08 C7.8 48.08 7.05 48.6 4.65 49.95
										 C2.7 51.08 1.95 52.35 1.35 55.05 C0.83 57.38 0.23 62.7 0 65.25 L32.55 65.25 C32.4 62.7 31.8
										 57.38 31.28 55.05 Z" class="st2"/>
						</g>
						<g id="shape423-18" v:mID="423" v:groupContext="shape" v:layerMember="0"
								transform="translate(8.475,-17.85)">
							<title>Sheet.423</title>
							<path d="M10.2 65.25 C4.57 65.25 0 60.3 0 54.15 C0 48 4.57 43.05 10.2 43.05 C15.83 43.05 20.4 48 20.4
										 54.15 C20.4 60.3 15.83 65.25 10.2 65.25 Z" class="st1"/>
						</g>
						<g id="shape424-20" v:mID="424" v:groupContext="shape" v:layerMember="0"
								transform="translate(10.725,-20.1)">
							<title>Sheet.424</title>
							<path d="M7.95 65.25 C3.6 65.25 0 61.28 0 56.4 C0 51.53 3.6 47.55 7.95 47.55 C12.3 47.55 15.9 51.53 15.9
										 56.4 C15.9 61.28 12.37 65.25 7.95 65.25 Z" class="st2"/>
						</g>
					</g>
				</g>
				<g id="group425-22" transform="translate(33.75,3.12639E-13)" v:mID="425" v:groupContext="group" v:layerMember="0">
					<title>Sheet.425</title>
					<g id="group426-23" v:mID="426" v:groupContext="group" v:layerMember="0">
						<title>Sheet.426</title>
						<g id="shape427-24" v:mID="427" v:groupContext="shape" v:layerMember="0">
							<title>Sheet.427</title>
							<path d="M4.5 65.25 C2.03 65.25 0 63.23 0 60.75 L0 39.75 C0 37.28 2.03 35.25 4.5 35.25 L25.5 35.25 C27.98
										 35.25 30 37.28 30 39.75 L30 60.75 C30 63.23 27.98 65.25 25.5 65.25 L4.5 65.25 Z"
									class="st1"/>
						</g>
						<g id="shape428-26" v:mID="428" v:groupContext="shape" v:layerMember="0" transform="translate(2.25,-2.25)">
							<title>Sheet.428</title>
							<path d="M25.5 63 C25.5 64.28 24.53 65.25 23.25 65.25 L2.25 65.25 C0.98 65.25 0 64.28 0 63 L0 42 C0 40.73
										 0.98 39.75 2.25 39.75 L23.25 39.75 C24.53 39.75 25.5 40.73 25.5 42 L25.5 63 Z" class="st3"/>
						</g>
					</g>
					<g id="shape429-28" v:mID="429" v:groupContext="shape" v:layerMember="0" transform="translate(9.675,-3.975)">
						<title>Sheet.429</title>
						<path d="M9.9 49.65 C9.9 46.8 7.73 44.48 4.95 44.48 C2.25 44.48 0 46.8 0 49.58 C0 51.6 1.35 53.4 3 54.23
									 L3 63.15 L4.95 65.25 L7.13 63 L5.63 61.43 L7.2 59.78 L7.2 59.7 L5.47 57.83 L6.9 56.33 L6.9 55.73
									 L6.9 54.23 C8.55 53.4 9.9 51.68 9.9 49.65 ZM4.95 49.8 C4.13 49.8 3.38 49.13 3.38 48.23 C3.38
									 47.4 4.05 46.65 4.95 46.65 C5.77 46.65 6.53 47.33 6.53 48.23 C6.53 49.13 5.85 49.8 4.95 49.8
									 Z" class="st1"/>
					</g>
				</g>
			</g>
		</g>
	</g>
</svg>
