<?xml version="1.0" encoding="UTF-8" standalone="no"?>
<!DOCTYPE svg PUBLIC "-//W3C//DTD SVG 1.1//EN" "http://www.w3.org/Graphics/SVG/1.1/DTD/svg11.dtd">
<!-- Generated by Microsoft Visio, SVG Export Security Access Portal.svg Page-1 -->
<svg xmlns="http://www.w3.org/2000/svg" xmlns:xlink="http://www.w3.org/1999/xlink" xmlns:ev="http://www.w3.org/2001/xml-events"
		xmlns:v="http://schemas.microsoft.com/visio/2003/SVGExtensions/" width="1.07813in" height="0.984375in"
		viewBox="0 0 77.625 70.875" xml:space="preserve" color-interpolation-filters="sRGB" class="st5">
	<v:documentProperties v:langID="4108" v:metric="true" v:viewMarkup="false"/>

	<style type="text/css">
	<![CDATA[
		.st1 {fill:#ffffff;stroke:none;stroke-linecap:butt;stroke-width:0.75}
		.st2 {fill:#515150;stroke:none;stroke-linecap:butt;stroke-width:0.75}
		.st3 {fill:#2372ba;stroke:none;stroke-linecap:butt;stroke-width:0.75}
		.st4 {fill:#2073b7;stroke:none;stroke-linecap:butt;stroke-width:0.75}
		.st5 {fill:none;fill-rule:evenodd;font-size:12px;overflow:visible;stroke-linecap:square;stroke-miterlimit:3}
	]]>
	</style>

	<g v:mID="0" v:index="1" v:groupContext="foregroundPage">
		<title>Page-1</title>
		<v:pageProperties v:drawingScale="0.0393701" v:pageScale="0.0393701" v:drawingUnits="24" v:shadowOffsetX="8.50394"
				v:shadowOffsetY="-8.50394"/>
		<v:layer v:name="symbols" v:index="0"/>
		<g id="group430-1" transform="translate(8.625,-8.0625)" v:mID="430" v:groupContext="group" v:layerMember="0">
			<title>Security Access Portal</title>
			<g id="group431-2" v:mID="431" v:groupContext="group" v:layerMember="0">
				<title>Sheet.431</title>
				<g id="shape432-3" v:mID="432" v:groupContext="shape" v:layerMember="0">
					<title>Sheet.432</title>
					<path d="M5.25 70.88 C2.33 70.88 0 68.55 0 65.63 L0 42.38 C0 39.98 1.58 38.03 3.75 37.35 L3.75 31.5 C3.75 21.75
								 11.62 13.88 21.38 13.88 C31.13 13.88 39 21.75 39 31.5 L39 37.35 C41.18 38.03 42.75 39.98 42.75 42.38
								 L42.75 65.63 C42.75 68.55 40.43 70.88 37.5 70.88 L5.25 70.88 ZM30 37.13 L30 31.5 C30 26.78 26.1
								 22.88 21.38 22.88 C16.65 22.88 12.75 26.78 12.75 31.5 L12.75 37.13 L30 37.13 Z" class="st1"/>
				</g>
				<g id="shape433-5" v:mID="433" v:groupContext="shape" v:layerMember="0" transform="translate(2.25,-2.25)">
					<title>Sheet.433</title>
					<path d="M35.25 41.63 L34.5 41.63 L34.5 33.75 C34.5 25.28 27.6 18.38 19.13 18.38 C10.65 18.38 3.75 25.28 3.75
								 33.75 L3.75 41.63 L3 41.63 C1.35 41.63 0 42.98 0 44.63 L0 67.88 C0 69.53 1.35 70.88 3 70.88 L35.25
								 70.88 C36.9 70.88 38.25 69.53 38.25 67.88 L38.25 44.63 C38.25 42.98 36.9 41.63 35.25 41.63 ZM8.25
								 33.75 C8.25 27.75 13.12 22.88 19.13 22.88 C25.13 22.88 30 27.75 30 33.75 L30 41.63 L8.25 41.63 L8.25
								 33.75 Z" class="st2"/>
				</g>
			</g>
			<g id="group434-7" transform="translate(39,-30.75)" v:mID="434" v:groupContext="group" v:layerMember="0">
				<title>Sheet.434</title>
				<g id="shape435-8" v:mID="435" v:groupContext="shape" v:layerMember="0">
					<title>Sheet.435</title>
					<path d="M27.9 53.4 C27.3 52.8 26.48 52.35 25.65 52.13 C24.97 51 24.07 50.1 22.95 49.43 C22.5 47.4 20.85 45.9
								 18.75 45.75 L18.75 42.38 L16.35 42.38 L0 44.93 L0 68.25 L16.35 70.88 L18.75 70.88 L18.75 67.5 C20.85
								 67.35 22.5 65.85 22.95 63.9 C24 63.23 24.97 62.25 25.65 61.2 C27.75 60.75 29.25 58.88 29.25 56.7
								 C29.25 55.43 28.8 54.23 27.9 53.4 Z" class="st1"/>
				</g>
				<g id="shape436-10" v:mID="436" v:groupContext="shape" v:layerMember="0" transform="translate(2.25,-2.25)">
					<title>Sheet.436</title>
					<path d="M14.25 46.88 L0 49.13 L0 68.63 L14.25 70.88 L14.25 46.88 Z" class="st3"/>
				</g>
				<g id="shape437-12" v:mID="437" v:groupContext="shape" v:layerMember="0" transform="translate(6.525,-9.525)">
					<title>Sheet.437</title>
					<path d="M3.08 60.9 C1.88 60.98 0.75 61.65 0.38 62.85 C0 64.13 0.45 65.33 1.5 66.08 C2.18 66.6 3.98 67.2 3.38
								 68.4 C3.08 68.93 2.48 68.93 1.95 68.85 C1.28 68.78 0.75 68.4 0.22 67.88 C0.22 68.25 0.22 68.63 0.22
								 69 C0.22 69.23 0.22 69.45 0.22 69.68 C0.22 69.9 0.3 69.9 0.53 70.05 C2.03 70.88 4.58 70.73 5.18
								 68.85 C5.48 68.03 5.4 66.98 4.88 66.23 C4.35 65.48 3.6 65.1 2.85 64.65 C2.55 64.43 2.18 64.2 2.03
								 63.83 C1.88 63.45 1.95 63 2.25 62.7 C3 62.03 4.28 62.48 4.95 63 C4.95 62.48 4.95 61.95 4.95 61.5
								 C4.95 61.35 4.95 61.28 4.95 61.13 C4.95 60.98 4.88 60.98 4.73 60.98 C4.28 60.9 3.68 60.9 3.08 60.9
								 Z" class="st1"/>
				</g>
				<g id="shape438-14" v:mID="438" v:groupContext="shape" v:layerMember="0" transform="translate(17.325,-5.4)">
					<title>Sheet.438</title>
					<path d="M7.35 59.7 C7.2 59.7 7.05 59.7 6.9 59.78 C6.3 58.2 5.02 56.93 3.38 56.25 C3.38 56.1 3.45 55.95 3.45
								 55.8 C3.45 54.53 2.4 53.48 1.12 53.48 C0.75 53.48 0.38 53.55 0 53.78 L0 57.9 C0.3 58.05 0.67 58.2
								 1.12 58.2 C1.8 58.2 2.4 57.9 2.85 57.45 C4.2 57.98 5.25 59.03 5.77 60.45 C5.33 60.9 5.02 61.5 5.03
								 62.18 C5.02 62.85 5.33 63.45 5.77 63.9 C5.25 65.25 4.2 66.38 2.85 66.9 C2.4 66.45 1.8 66.15 1.12
								 66.15 C0.75 66.15 0.38 66.23 0 66.45 L0 70.58 C0.3 70.73 0.67 70.88 1.12 70.88 C2.4 70.88 3.45 69.83
								 3.45 68.55 C3.45 68.4 3.45 68.25 3.38 68.1 C4.95 67.43 6.23 66.23 6.83 64.58 C6.98 64.58 7.12 64.65
								 7.27 64.65 C8.55 64.65 9.6 63.6 9.6 62.33 C9.67 60.75 8.62 59.7 7.35 59.7 Z" class="st4"/>
				</g>
			</g>
		</g>
	</g>
</svg>
