<?xml version="1.0" encoding="UTF-8" standalone="no"?>
<!DOCTYPE svg PUBLIC "-//W3C//DTD SVG 1.1//EN" "http://www.w3.org/Graphics/SVG/1.1/DTD/svg11.dtd">
<!-- Generated by Microsoft Visio, SVG Export Secure Messaging.svg Page-1 -->
<svg xmlns="http://www.w3.org/2000/svg" xmlns:xlink="http://www.w3.org/1999/xlink" xmlns:ev="http://www.w3.org/2001/xml-events"
		xmlns:v="http://schemas.microsoft.com/visio/2003/SVGExtensions/" width="1.04062in" height="0.84375in"
		viewBox="0 0 74.925 60.75" xml:space="preserve" color-interpolation-filters="sRGB" class="st4">
	<v:documentProperties v:langID="4108" v:metric="true" v:viewMarkup="false"/>

	<style type="text/css">
	<![CDATA[
		.st1 {fill:#ffffff;stroke:none;stroke-linecap:butt;stroke-width:0.75}
		.st2 {fill:#515150;stroke:none;stroke-linecap:butt;stroke-width:0.75}
		.st3 {fill:#525352;stroke:none;stroke-linecap:butt;stroke-width:0.75}
		.st4 {fill:none;fill-rule:evenodd;font-size:12px;overflow:visible;stroke-linecap:square;stroke-miterlimit:3}
	]]>
	</style>

	<g v:mID="0" v:index="1" v:groupContext="foregroundPage">
		<title>Page-1</title>
		<v:pageProperties v:drawingScale="0.0393701" v:pageScale="0.0393701" v:drawingUnits="24" v:shadowOffsetX="8.50394"
				v:shadowOffsetY="-8.50394"/>
		<v:layer v:name="symbols" v:index="0"/>
		<g id="group439-1" transform="translate(8.8125,-2.4375)" v:mID="439" v:groupContext="group" v:layerMember="0">
			<title>Secure Messaging</title>
			<g id="group440-2" transform="translate(-2.95763E-13,-9)" v:mID="440" v:groupContext="group" v:layerMember="0">
				<title>Sheet.440</title>
				<g id="shape441-3" v:mID="441" v:groupContext="shape" v:layerMember="0">
					<title>Sheet.441</title>
					<rect x="0" y="19.5" width="51.75" height="41.25" class="st1"/>
				</g>
				<g id="shape442-5" v:mID="442" v:groupContext="shape" v:layerMember="0" transform="translate(38.25,-27)">
					<title>Sheet.442</title>
					<rect x="0" y="54" width="6" height="6.75" class="st2"/>
				</g>
				<g id="shape443-7" v:mID="443" v:groupContext="shape" v:layerMember="0" transform="translate(11.25,-18)">
					<title>Sheet.443</title>
					<rect x="0" y="58.5" width="21" height="2.25" class="st2"/>
				</g>
				<g id="shape444-9" v:mID="444" v:groupContext="shape" v:layerMember="0" transform="translate(11.25,-12)">
					<title>Sheet.444</title>
					<rect x="0" y="58.5" width="25.5" height="2.25" class="st2"/>
				</g>
				<g id="shape445-11" v:mID="445" v:groupContext="shape" v:layerMember="0" transform="translate(2.25,-2.25)">
					<title>Sheet.445</title>
					<path d="M45 26.25 L45 58.5 L2.25 58.5 L2.25 26.25 L45 26.25 ZM47.25 24 L0 24 L0 60.75 L47.25 60.75 L47.25 24
								 Z" class="st3"/>
				</g>
			</g>
			<g id="group446-13" transform="translate(33.75,0)" v:mID="446" v:groupContext="group" v:layerMember="0">
				<title>Sheet.446</title>
				<g id="shape447-14" v:mID="447" v:groupContext="shape" v:layerMember="0">
					<title>Sheet.447</title>
					<path d="M3.75 60.75 C1.65 60.75 0 59.1 0 57 L0 43.5 C0 42 0.9 40.65 2.25 40.05 L2.25 37.5 C2.25 31.72 6.98 27
								 12.75 27 C18.52 27 23.25 31.72 23.25 37.5 L23.25 40.05 C24.6 40.65 25.5 41.92 25.5 43.5 L25.5 57
								 C25.5 59.1 23.85 60.75 21.75 60.75 L3.75 60.75 Z" class="st1"/>
				</g>
				<g id="shape448-16" v:mID="448" v:groupContext="shape" v:layerMember="0" transform="translate(2.25,-2.25)">
					<title>Sheet.448</title>
					<path d="M19.5 44.25 L18.75 44.25 L18.75 39.75 C18.75 35.17 15.07 31.5 10.5 31.5 C5.93 31.5 2.25 35.17 2.25 39.75
								 L2.25 44.25 L1.5 44.25 C0.67 44.25 0 44.92 0 45.75 L0 59.25 C0 60.07 0.67 60.75 1.5 60.75 L19.5
								 60.75 C20.32 60.75 21 60.07 21 59.25 L21 45.75 C21 44.92 20.32 44.25 19.5 44.25 ZM5.25 39.75 C5.25
								 36.82 7.58 34.5 10.5 34.5 C13.42 34.5 15.75 36.82 15.75 39.75 L15.75 44.25 L5.25 44.25 L5.25 39.75
								 Z" class="st2"/>
				</g>
			</g>
		</g>
	</g>
</svg>
