<?xml version="1.0" encoding="UTF-8" standalone="no"?>
<!DOCTYPE svg PUBLIC "-//W3C//DTD SVG 1.1//EN" "http://www.w3.org/Graphics/SVG/1.1/DTD/svg11.dtd">
<!-- Generated by Microsoft Visio, SVG Export Sharing Policy.svg Page-1 -->
<svg xmlns="http://www.w3.org/2000/svg" xmlns:xlink="http://www.w3.org/1999/xlink" xmlns:ev="http://www.w3.org/2001/xml-events"
		xmlns:v="http://schemas.microsoft.com/visio/2003/SVGExtensions/" width="0.890625in" height="0.96875in"
		viewBox="0 0 64.125 69.75" xml:space="preserve" color-interpolation-filters="sRGB" class="st3">
	<v:documentProperties v:langID="4108" v:metric="true" v:viewMarkup="false"/>

	<style type="text/css">
	<![CDATA[
		.st1 {fill:#ffffff;stroke:none;stroke-linecap:butt;stroke-width:0.75}
		.st2 {fill:#515150;stroke:none;stroke-linecap:butt;stroke-width:0.75}
		.st3 {fill:none;fill-rule:evenodd;font-size:12px;overflow:visible;stroke-linecap:square;stroke-miterlimit:3}
	]]>
	</style>

	<g v:mID="0" v:index="1" v:groupContext="foregroundPage">
		<title>Page-1</title>
		<v:pageProperties v:drawingScale="0.0393701" v:pageScale="0.0393701" v:drawingUnits="24" v:shadowOffsetX="8.50394"
				v:shadowOffsetY="-8.50394"/>
		<v:layer v:name="symbols" v:index="0"/>
		<g id="group339-1" transform="translate(1.125,-4.3125)" v:mID="339" v:groupContext="group" v:layerMember="0">
			<title>Sharing Policy</title>
			<g id="group340-2" transform="translate(0,-4.5)" v:mID="340" v:groupContext="group" v:layerMember="0">
				<title>Sheet.340</title>
				<g id="shape341-3" v:mID="341" v:groupContext="shape" v:layerMember="0">
					<title>Sheet.341</title>
					<path d="M8.17 69.75 C8.17 69.75 8.17 69.75 8.17 69.75 L8.4 69.75 L39.38 69.75 C44.02 69.38 47.63 65.48 47.62
								 60.83 L47.62 32.25 L48.37 32.25 L48.98 32.25 C53.25 32.1 56.62 28.65 56.62 24.38 C56.62 20.1 53.17
								 16.58 48.9 16.5 L48.82 16.5 L16.87 16.5 C11.93 16.5 7.88 20.55 7.87 25.5 L7.87 53.25 C3.52 53.48
								 0 57.08 0 61.5 C0 65.78 3.3 69.3 7.5 69.68 L8.17 69.75 Z" class="st1"/>
				</g>
				<g id="shape342-5" v:mID="342" v:groupContext="shape" v:layerMember="0" transform="translate(47.625,-39.375)">
					<title>Sheet.342</title>
					<path d="M6.23 60.45 L3.9 60.45 C1.73 60.45 0 62.18 0 64.35 L0 69.75 L0.82 69.75 C4.28 69.75 7.05 66.98 7.05
								 63.53 C7.05 62.4 6.75 61.35 6.23 60.45 Z" class="st2"/>
				</g>
				<g id="shape343-7" v:mID="343" v:groupContext="shape" v:layerMember="0" transform="translate(10.125,-2.175)">
					<title>Sheet.343</title>
					<path d="M35.25 26.78 C35.4 23.93 37.57 21.53 40.42 21.15 C40.42 21.15 40.5 21.15 40.5 21.15 C40.05 21 39.52
								 21 39.07 21 C38.92 21 38.85 21 38.77 21 C38.77 21 38.7 21 38.7 21 L36.75 21 L34.5 21 L13.12 21 L6.75
								 21 C3 21 0 24 0 27.75 L0 55.43 L25.5 55.43 C26.55 55.43 27.38 56.33 27.38 57.38 C27.38 58.13 26.92
								 58.43 26.92 58.43 C24.98 59.4 23.62 61.43 23.62 63.75 C23.62 66.98 26.18 69.6 29.4 69.75 C32.7 69.3
								 35.25 66.53 35.32 63.08 L35.32 26.78 L35.25 26.78 Z" class="st2"/>
				</g>
				<g id="shape344-9" v:mID="344" v:groupContext="shape" v:layerMember="0" transform="translate(2.175,-2.25)">
					<title>Sheet.344</title>
					<path d="M31.87 69.75 C30.3 68.25 29.32 66.15 29.32 63.75 C29.32 61.43 30.3 59.33 31.87 57.75 L6 57.75 C2.7 57.75
								 0 60.45 0 63.75 C-0 67.05 2.7 69.75 6 69.75 L31.87 69.75 Z" class="st2"/>
				</g>
			</g>
			<g id="group345-11" transform="translate(28.125,0)" v:mID="345" v:groupContext="group" v:layerMember="0">
				<title>Sheet.345</title>
				<g id="shape346-12" v:mID="346" v:groupContext="shape" v:layerMember="0">
					<title>Sheet.346</title>
					<path d="M16.13 69.75 C7.2 69.75 0 62.55 0 53.63 C0 44.7 7.2 37.5 16.13 37.5 C25.05 37.5 32.25 44.7 32.25 53.63
								 C32.25 62.55 25.05 69.75 16.13 69.75 Z" class="st1"/>
				</g>
				<g id="shape347-14" v:mID="347" v:groupContext="shape" v:layerMember="0" transform="translate(2.25,-2.25)">
					<title>Sheet.347</title>
					<path d="M13.88 42 C6.22 42 0 48.23 0 55.88 C0 63.53 6.22 69.75 13.88 69.75 C21.53 69.75 27.75 63.53 27.75 55.88
								 C27.75 48.23 21.53 42 13.88 42 Z" class="st2"/>
				</g>
				<g id="group348-16" transform="translate(5.25,-6.375)" v:mID="348" v:groupContext="group" v:layerMember="0">
					<title>Sheet.348</title>
					<g id="shape349-17" v:mID="349" v:groupContext="shape" v:layerMember="0" transform="translate(3.375,-13.125)">
						<title>Sheet.349</title>
						<path d="M9 68.25 C10.05 69.3 11.77 69.3 12.82 68.25 C13.87 67.2 13.87 65.48 12.82 64.43 C11.77 63.38 10.05
									 63.38 9 64.43 C9 64.43 8.92 64.5 8.92 64.5 C8.55 64.43 8.17 64.43 7.73 64.43 C4.35 64.43 1.5
									 66.3 0 69.08 C0.68 69.15 1.27 69.38 1.8 69.75 C3 67.73 5.17 66.38 7.65 66.38 C7.8 66.38 7.95
									 66.38 8.1 66.38 C8.17 67.05 8.47 67.73 9 68.25 Z" class="st1"/>
					</g>
					<g id="shape350-19" v:mID="350" v:groupContext="shape" v:layerMember="0"
							transform="translate(9.89209E-14,-0.975)">
						<title>Sheet.350</title>
						<path d="M10.2 67.73 C7.57 67.35 5.47 65.55 4.65 63.15 C4.73 63.08 4.8 63 4.87 62.93 C5.92 61.88 5.92 60.15
									 4.87 59.1 C3.83 58.05 2.1 58.05 1.05 59.1 C-0 60.15 0 61.88 1.05 62.93 C1.57 63.45 2.18 63.68
									 2.85 63.75 C3.97 67.13 7.05 69.53 10.65 69.75 C10.35 69.08 10.2 68.48 10.2 67.73 C10.2 67.73
									 10.2 67.73 10.2 67.73 Z" class="st1"/>
					</g>
					<g id="shape351-21" v:mID="351" v:groupContext="shape" v:layerMember="0"
							transform="translate(11.325,1.13687E-13)">
						<title>Sheet.351</title>
						<path d="M8.55 60 C8.55 58.05 7.87 56.18 6.75 54.75 C6.52 55.28 6.22 55.73 5.85 56.1 C5.77 56.18 5.62 56.33
									 5.55 56.4 C6.22 57.45 6.6 58.73 6.6 60 C6.6 61.8 5.85 63.45 4.72 64.73 C3.67 63.83 2.1 63.9
									 1.05 64.88 C-0 65.93 0 67.65 1.05 68.7 C2.1 69.75 3.82 69.75 4.87 68.7 C5.47 68.1 5.77 67.2
									 5.62 66.45 C7.42 64.88 8.55 62.55 8.55 60 Z" class="st1"/>
					</g>
				</g>
			</g>
		</g>
	</g>
</svg>
