<?xml version="1.0" encoding="UTF-8" standalone="no"?>
<!DOCTYPE svg PUBLIC "-//W3C//DTD SVG 1.1//EN" "http://www.w3.org/Graphics/SVG/1.1/DTD/svg11.dtd">
<!-- Generated by Microsoft Visio, SVG Export Split-Domain User.svg Page-1 -->
<svg xmlns="http://www.w3.org/2000/svg" xmlns:xlink="http://www.w3.org/1999/xlink" xmlns:ev="http://www.w3.org/2001/xml-events"
		xmlns:v="http://schemas.microsoft.com/visio/2003/SVGExtensions/" width="1.01563in" height="0.96875in"
		viewBox="0 0 73.125 69.75" xml:space="preserve" color-interpolation-filters="sRGB" class="st6">
	<v:documentProperties v:langID="4108" v:metric="true" v:viewMarkup="false"/>

	<style type="text/css">
	<![CDATA[
		.st1 {fill:#ffffff;stroke:none;stroke-linecap:butt;stroke-width:0.75}
		.st2 {fill:#515050;stroke:none;stroke-linecap:butt;stroke-width:0.75}
		.st3 {fill:#ffffff}
		.st4 {stroke:none;stroke-linecap:butt;stroke-width:0.75}
		.st5 {fill:#515150;stroke:none;stroke-linecap:butt;stroke-width:0.75}
		.st6 {fill:none;fill-rule:evenodd;font-size:12px;overflow:visible;stroke-linecap:square;stroke-miterlimit:3}
	]]>
	</style>

	<g v:mID="0" v:index="1" v:groupContext="foregroundPage">
		<title>Page-1</title>
		<v:pageProperties v:drawingScale="0.0393701" v:pageScale="0.0393701" v:drawingUnits="24" v:shadowOffsetX="8.50394"
				v:shadowOffsetY="-8.50394"/>
		<v:layer v:name="symbols" v:index="0"/>
		<g id="group449-1" transform="translate(8.625,-6.9375)" v:mID="449" v:groupContext="group" v:layerMember="0">
			<title>Split-Domain User</title>
			<g id="group450-2" transform="translate(0,-5.25)" v:mID="450" v:groupContext="group" v:layerMember="0">
				<title>Sheet.450</title>
				<g id="shape451-3" v:mID="451" v:groupContext="shape" v:layerMember="0">
					<title>Sheet.451</title>
					<path d="M53.18 48.3 C51.83 46.88 50.1 45.98 48.22 45.6 C46.72 40.8 42.38 37.5 37.43 37.5 C36.67 37.5 35.93 37.58
								 35.25 37.73 L35.25 35.25 L33 35.25 L33 30 L30.75 30 L30.75 24.75 L28.5 24.75 L28.5 18.83 L21.75
								 18.83 L21.75 24.75 L19.5 24.75 L19.5 15.75 L0 15.75 L0 69.75 L21.6 69.75 L35.25 69.75 L51.97 69.75
								 C57.68 69.75 62.25 64.88 62.25 58.95 C62.25 53.48 58.27 48.9 53.18 48.3 Z" class="st1"/>
				</g>
				<g id="shape452-5" v:mID="452" v:groupContext="shape" v:layerMember="0" transform="translate(15.075,-2.25)">
					<title>Sheet.452</title>
					<path d="M36.9 69.75 L6.75 69.75 L5.63 69.45 C2.32 68.55 0 65.4 0 61.8 C0 59.1 1.27 56.7 3.37 55.28 C3.37 55.2
								 3.37 55.05 3.37 54.98 C3.37 49.8 7.35 45.6 12.22 45.6 C13.13 45.6 14.1 45.75 15 46.05 C16.72 43.5
								 19.43 42 22.35 42 C26.77 42 30.52 45.38 31.35 49.95 C31.35 49.95 31.35 49.95 31.35 49.95 C33.52
								 49.95 35.63 51 36.97 52.73 C41.4 52.73 44.92 56.55 44.92 61.2 C44.92 65.85 41.33 69.75 36.9 69.75
								 Z" class="st2"/>
				</g>
				<g id="shape453-7" v:mID="453" v:groupContext="shape" v:layerMember="0" transform="translate(17.4,-4.5)">
					<title>Sheet.453</title>
					<path d="M4.72 69.75 L3.9 69.53 C1.58 68.93 0 66.68 0 64.05 C-0 62.1 0.9 60.38 2.4 59.33 L3.45 58.65 L3.38 57.38
								 C3.38 57.3 3.38 57.23 3.38 57.15 C3.38 53.25 6.3 50.03 9.98 50.03 C10.65 50.03 11.32 50.18 12 50.4
								 L13.65 51 L14.62 49.58 C15.9 47.63 18 46.5 20.1 46.5 C23.4 46.5 26.25 49.05 26.85 52.58 L27.15 54.45
								 L29.03 54.45 C30.53 54.45 31.95 55.13 32.92 56.4 L33.6 57.23 L34.65 57.23 C37.8 57.23 40.35 60.08
								 40.35 63.45 C40.35 66.9 37.73 69.75 34.57 69.75 L4.72 69.75 Z" class="st1"/>
				</g>
				<g id="group454-9" transform="translate(2.25,-2.25)" v:mID="454" v:groupContext="group" v:layerMember="0">
					<title>Sheet.454</title>
					<g id="shape455-10" v:mID="455" v:groupContext="shape" v:layerMember="0">
						<title>Sheet.455</title>
						<path d="M28.5 39.75 L28.5 34.5 L26.25 34.5 L26.25 29.25 L24 29.25 L24 23.33 L21.75 23.33 L21.75 29.25 L19.5
									 29.25 L19.5 34.5 L17.25 34.5 L17.25 39.75 L15 39.75 L15 20.25 L0 20.25 L0 69.75 L15 69.75 L30.75
									 69.75 L30.75 39.75 L28.5 39.75 Z" class="st2"/>
					</g>
					<g id="group456-12" transform="translate(3,-42.75)" v:mID="456" v:groupContext="group" v:layerMember="0">
						<title>Sheet.456</title>
						<g id="shape457-13" v:mID="457" v:groupContext="shape" v:layerMember="0">
							<title>Sheet.457</title>
							<rect x="0" y="66.75" width="3" height="3" class="st1"/>
						</g>
						<g id="shape458-15" v:mID="458" v:groupContext="shape" v:layerMember="0" transform="translate(6,0)">
							<title>Sheet.458</title>
							<rect x="0" y="66.75" width="3" height="3" class="st1"/>
						</g>
					</g>
					<g id="group459-17" transform="translate(3,-36.75)" v:mID="459" v:groupContext="group" v:layerMember="0">
						<title>Sheet.459</title>
						<g id="shape460-18" v:mID="460" v:groupContext="shape" v:layerMember="0">
							<title>Sheet.460</title>
							<rect x="0" y="66.75" width="3" height="3" class="st1"/>
						</g>
						<g id="shape461-20" v:mID="461" v:groupContext="shape" v:layerMember="0" transform="translate(6,0)">
							<title>Sheet.461</title>
							<rect x="0" y="66.75" width="3" height="3" class="st1"/>
						</g>
					</g>
					<g id="group462-22" transform="translate(3,-30.75)" v:mID="462" v:groupContext="group" v:layerMember="0">
						<title>Sheet.462</title>
						<g id="shape463-23" v:mID="463" v:groupContext="shape" v:layerMember="0">
							<title>Sheet.463</title>
							<rect x="0" y="66.75" width="3" height="3" class="st1"/>
						</g>
						<g id="shape464-25" v:mID="464" v:groupContext="shape" v:layerMember="0" transform="translate(6,0)">
							<title>Sheet.464</title>
							<rect x="0" y="66.75" width="3" height="3" class="st1"/>
						</g>
					</g>
					<g id="group465-27" transform="translate(3,-24.75)" v:mID="465" v:groupContext="group" v:layerMember="0">
						<title>Sheet.465</title>
						<g id="shape466-28" v:mID="466" v:groupContext="shape" v:layerMember="0">
							<title>Sheet.466</title>
							<rect x="0" y="66.75" width="3" height="3" class="st1"/>
						</g>
						<g id="shape467-30" v:mID="467" v:groupContext="shape" v:layerMember="0" transform="translate(6,0)">
							<title>Sheet.467</title>
							<rect x="0" y="66.75" width="3" height="3" class="st1"/>
						</g>
					</g>
					<g id="group468-32" transform="translate(3,-18.75)" v:mID="468" v:groupContext="group" v:layerMember="0">
						<title>Sheet.468</title>
						<g id="shape469-33" v:mID="469" v:groupContext="shape" v:layerMember="0">
							<title>Sheet.469</title>
							<rect x="0" y="66.75" width="3" height="3" class="st1"/>
						</g>
						<g id="shape470-35" v:mID="470" v:groupContext="shape" v:layerMember="0" transform="translate(6,0)">
							<title>Sheet.470</title>
							<rect x="0" y="66.75" width="3" height="3" class="st1"/>
						</g>
					</g>
					<g id="group471-37" transform="translate(3,-12.75)" v:mID="471" v:groupContext="group" v:layerMember="0">
						<title>Sheet.471</title>
						<g id="shape472-38" v:mID="472" v:groupContext="shape" v:layerMember="0">
							<title>Sheet.472</title>
							<rect x="0" y="66.75" width="3" height="3" class="st1"/>
						</g>
						<g id="shape473-40" v:mID="473" v:groupContext="shape" v:layerMember="0" transform="translate(6,0)">
							<title>Sheet.473</title>
							<rect x="0" y="66.75" width="3" height="3" class="st1"/>
						</g>
					</g>
					<g id="shape474-42" v:mID="474" v:groupContext="shape" v:layerMember="0" transform="translate(18.75,-24.75)">
						<title>Sheet.474</title>
						<rect x="0" y="66.75" width="3" height="3" class="st1"/>
					</g>
					<g id="shape475-44" v:mID="475" v:groupContext="shape" v:layerMember="0" transform="translate(24,-20.25)">
						<title>Sheet.475</title>
						<path d="M3 66.75 L3 69.75 L0 69.75 L0 66.75 L3 66.75 Z" class="st3"/>
						<path d="M3 66.75 L3 69.75 L0 69.75 L0 66.75" class="st4"/>
					</g>
					<g id="shape476-47" v:mID="476" v:groupContext="shape" v:layerMember="0" transform="translate(18.75,-15)">
						<title>Sheet.476</title>
						<rect x="0" y="66.75" width="3" height="3" class="st1"/>
					</g>
				</g>
			</g>
			<g id="group477-49" transform="translate(19.05,0)" v:mID="477" v:groupContext="group" v:layerMember="0">
				<title>Sheet.477</title>
				<g id="shape478-50" v:mID="478" v:groupContext="shape" v:layerMember="0">
					<title>Sheet.478</title>
					<path d="M0 69.75 L0.15 67.35 C0.3 65.48 0.75 61.65 1.13 59.85 C1.65 57.68 2.4 56.1 4.5 54.83 L5.17 54.45 C6.53
								 53.63 7.28 53.25 8.33 53.25 C8.93 53.25 9.45 53.4 9.98 53.63 L10.2 53.78 L10.43 53.93 C10.73 54.23
								 11.03 54.45 11.33 54.6 C11.63 54.75 11.85 54.9 12.07 54.98 L12.15 54.98 C12.68 55.13 13.2 55.28
								 13.73 55.28 C14.25 55.28 14.78 55.2 15.3 54.98 L15.38 54.98 C15.6 54.9 15.83 54.83 16.05 54.68 L16.35
								 54.53 C16.58 54.38 16.8 54.23 17.03 54 L17.25 53.85 L17.48 53.7 C18 53.4 18.53 53.33 19.13 53.33
								 C20.18 53.33 21 53.78 22.2 54.53 L22.95 54.9 C25.13 56.1 25.88 57.75 26.4 59.93 C26.78 61.73 27.23
								 65.55 27.38 67.43 L27.45 69.75 L0 69.75 Z" class="st1"/>
				</g>
				<g id="shape479-52" v:mID="479" v:groupContext="shape" v:layerMember="0" transform="translate(2.325,-2.25)">
					<title>Sheet.479</title>
					<path d="M21.83 62.63 C21.38 60.75 20.93 59.85 19.5 59.1 C18.08 58.28 17.33 57.83 16.8 57.83 C16.58 57.83 16.43
								 57.9 16.2 57.98 C15.83 58.28 15.45 58.58 15.08 58.8 C15.08 58.8 15.08 58.8 15.08 58.8 C15 58.88
								 14.93 58.88 14.85 58.95 C14.48 59.18 14.03 59.4 13.65 59.48 C12.9 59.7 12.15 59.85 11.33 59.85 C10.5
								 59.85 9.75 59.7 9 59.48 C8.63 59.33 8.25 59.18 7.8 58.95 C7.35 58.65 6.9 58.35 6.53 57.98 C6.37
								 57.9 6.22 57.83 5.93 57.83 C5.4 57.83 4.88 58.2 3.22 59.1 C1.8 59.93 1.35 60.83 0.9 62.63 C0.53
								 64.28 0.07 67.95 0 69.75 L22.65 69.75 C22.58 67.95 22.2 64.28 21.83 62.63 Z" class="st5"/>
				</g>
				<g id="shape480-54" v:mID="480" v:groupContext="shape" v:layerMember="0" transform="translate(5.925,-12.375)">
					<title>Sheet.480</title>
					<path d="M7.8 69.75 C3.53 69.75 0 66 0 61.35 C0 56.7 3.53 52.95 7.8 52.95 C12.08 52.95 15.6 56.7 15.6 61.35 C15.6
								 66 12.08 69.75 7.8 69.75 Z" class="st1"/>
				</g>
				<g id="shape481-56" v:mID="481" v:groupContext="shape" v:layerMember="0" transform="translate(8.175,-14.625)">
					<title>Sheet.481</title>
					<path d="M5.55 69.75 C2.47 69.75 0 66.98 0 63.6 C0 60.23 2.47 57.45 5.55 57.45 C8.63 57.45 11.1 60.23 11.1 63.6
								 C11.1 66.98 8.63 69.75 5.55 69.75 Z" class="st5"/>
				</g>
			</g>
		</g>
	</g>
</svg>
