<?xml version="1.0" encoding="UTF-8" standalone="no"?>
<!DOCTYPE svg PUBLIC "-//W3C//DTD SVG 1.1//EN" "http://www.w3.org/Graphics/SVG/1.1/DTD/svg11.dtd">
<!-- Generated by Microsoft Visio, SVG Export Token Service.svg Page-1 -->
<svg xmlns="http://www.w3.org/2000/svg" xmlns:xlink="http://www.w3.org/1999/xlink" xmlns:ev="http://www.w3.org/2001/xml-events"
		xmlns:v="http://schemas.microsoft.com/visio/2003/SVGExtensions/" width="1.01172in" height="0.96875in"
		viewBox="0 0 72.8438 69.75" xml:space="preserve" color-interpolation-filters="sRGB" class="st4">
	<v:documentProperties v:langID="4108" v:metric="true" v:viewMarkup="false"/>

	<style type="text/css">
	<![CDATA[
		.st1 {fill:#ffffff;stroke:none;stroke-linecap:butt;stroke-width:0.75}
		.st2 {fill:#505050;stroke:none;stroke-linecap:butt;stroke-width:0.75}
		.st3 {fill:#505150;stroke:none;stroke-linecap:butt;stroke-width:0.75}
		.st4 {fill:none;fill-rule:evenodd;font-size:12px;overflow:visible;stroke-linecap:square;stroke-miterlimit:3}
	]]>
	</style>

	<g v:mID="0" v:index="1" v:groupContext="foregroundPage">
		<title>Page-1</title>
		<v:pageProperties v:drawingScale="0.0393701" v:pageScale="0.0393701" v:drawingUnits="24" v:shadowOffsetX="8.50394"
				v:shadowOffsetY="-8.50394"/>
		<v:layer v:name="symbols" v:index="0"/>
		<g id="group493-1" transform="translate(3.84375,-3.1125)" v:mID="493" v:groupContext="group" v:layerMember="0">
			<title>Token Service</title>
			<g id="group494-2" v:mID="494" v:groupContext="group" v:layerMember="0">
				<title>Sheet.494</title>
				<g id="group495-3" transform="translate(7.19425E-14,-3)" v:mID="495" v:groupContext="group" v:layerMember="0">
					<title>Sheet.495</title>
					<g id="shape496-4" v:mID="496" v:groupContext="shape" v:layerMember="0">
						<title>Sheet.496</title>
						<path d="M34.88 44.18 C38.4 40.73 40.5 36 40.5 30.98 C40.5 20.85 32.25 12.6 22.13 12.6 C12 12.6 3.67 20.85
									 3.68 30.98 C3.67 36.22 6 41.25 9.9 44.7 L0 63.53 L1.58 65.1 L10.65 63.53 L16.5 69.75 L18.6 69.15
									 L22.58 54.83 L27.68 68.85 L29.85 69.15 L35.25 61.65 L45.45 63.98 L47.18 62.25 L34.88 44.18 Z"
								class="st1"/>
					</g>
					<g id="group497-6" transform="translate(3,-2.85)" v:mID="497" v:groupContext="group" v:layerMember="0">
						<title>Sheet.497</title>
						<g id="shape498-7" v:mID="498" v:groupContext="shape" v:layerMember="0" transform="translate(9.15,-26.025)">
							<title>Sheet.498</title>
							<path d="M9.9 52.05 C14.18 52.05 17.7 55.57 17.7 59.85 C17.7 64.12 14.25 67.65 9.9 67.65 C5.55 67.65
										 2.1 64.12 2.1 59.85 C2.1 55.57 5.63 52.05 9.9 52.05 ZM9.9 49.95 C4.5 49.95 0 54.45 0 59.85
										 C-0 65.25 4.5 69.75 9.9 69.75 C15.3 69.75 19.8 65.25 19.8 59.85 C19.8 54.45 15.45 49.95
										 9.9 49.95 Z" class="st2"/>
						</g>
						<g id="shape499-9" v:mID="499" v:groupContext="shape" v:layerMember="0">
							<title>Sheet.499</title>
							<path d="M28.88 46.65 C32.7 43.73 35.25 39.08 35.25 33.83 C35.25 24.98 28.05 17.7 19.13 17.7 C10.28 17.7
										 3 24.98 3 33.83 C3 39.23 5.7 44.03 9.9 46.95 L0 65.48 L8.4 64.05 L13.8 69.75 L19.2 50.33
										 L26.1 69.15 L31.28 61.95 L40.73 64.13 L28.88 46.65 ZM6.08 33.83 C6.07 26.7 11.93 20.85 19.05
										 20.85 C26.17 20.85 32.03 26.7 32.03 33.83 C32.03 40.95 26.25 46.87 19.05 46.88 C11.85 46.87
										 6.07 41.03 6.08 33.83 Z" class="st2"/>
						</g>
					</g>
				</g>
				<g id="group500-11" transform="translate(31.575,-2.27374E-13)" v:mID="500" v:groupContext="group" v:layerMember="0">
					<title>Sheet.500</title>
					<g id="shape501-12" v:mID="501" v:groupContext="shape" v:layerMember="0">
						<title>Sheet.501</title>
						<path d="M20.85 69.75 C19.65 69.75 18.53 69 18.08 67.88 L17.4 66.3 C17.25 66.3 17.03 66.3 16.8 66.3 C16.58
									 66.3 16.35 66.3 16.13 66.3 L15.45 67.88 C15.08 69 13.95 69.75 12.75 69.75 C12.38 69.75 11.93
									 69.68 11.63 69.53 L8.78 68.33 C8.03 68.03 7.43 67.42 7.13 66.68 C6.83 65.92 6.83 65.1 7.13 64.35
									 L7.8 62.78 L6.98 61.95 L5.4 62.63 C5.03 62.78 4.65 62.85 4.28 62.85 C3.08 62.85 1.95 62.1 1.5
									 60.98 L0.3 58.13 C-0 57.38 0 56.55 0.3 55.8 C0.6 55.05 1.2 54.45 1.95 54.15 L3.53 53.48 L3.53
									 52.28 L1.95 51.6 C1.2 51.3 0.6 50.7 0.3 49.95 C-0 49.2 0 48.38 0.3 47.63 L1.5 44.78 C1.95 43.65
									 3.08 42.9 4.28 42.9 C4.65 42.9 5.03 42.98 5.4 43.13 L6.98 43.8 L7.8 42.98 L7.13 41.4 C6.83 40.65
									 6.83 39.83 7.13 39.08 C7.43 38.33 8.03 37.73 8.78 37.43 L11.63 36.23 C12 36.08 12.38 36 12.75
									 36 C13.95 36 15.08 36.75 15.53 37.88 L16.13 39.38 C16.28 39.38 16.5 39.38 16.73 39.38 C16.95
									 39.38 17.18 39.38 17.4 39.38 L18 37.8 C18.45 36.68 19.58 35.93 20.78 35.93 C21.15 35.93 21.53
									 36 21.9 36.15 L24.75 37.35 C25.5 37.65 26.1 38.25 26.4 39 C26.7 39.75 26.7 40.58 26.4 41.33
									 L25.73 42.9 L26.55 43.73 L28.13 43.05 C28.5 42.9 28.88 42.83 29.25 42.83 C30.45 42.83 31.58
									 43.58 32.03 44.7 L33.23 47.55 C33.53 48.3 33.53 49.12 33.23 49.88 C32.93 50.63 32.33 51.22 31.58
									 51.53 L30 52.2 L30 53.4 L31.58 54.08 C33.15 54.75 33.83 56.47 33.23 58.05 L32.03 60.9 C31.58
									 62.02 30.45 62.78 29.25 62.78 C28.88 62.78 28.43 62.7 28.05 62.55 L26.48 61.88 L25.65 62.7 L26.33
									 64.28 C26.63 65.02 26.63 65.85 26.33 66.6 C26.03 67.35 25.43 67.95 24.68 68.25 L21.83 69.45
									 C21.68 69.68 21.23 69.75 20.85 69.75 ZM16.8 47.4 C13.8 47.4 11.33 49.88 11.33 52.88 C11.33 55.88
									 13.8 58.35 16.8 58.35 C19.8 58.35 22.28 55.88 22.28 52.88 C22.28 49.88 19.8 47.4 16.8 47.4 Z"
								class="st1"/>
					</g>
					<g id="shape502-14" v:mID="502" v:groupContext="shape" v:layerMember="0" transform="translate(2.025,-2.1)">
						<title>Sheet.502</title>
						<path d="M28.95 58.35 L26.55 57.38 C26.18 57.23 25.88 57 25.88 56.93 C25.88 56.85 25.95 56.4 25.95 56.03
									 L25.95 54.08 C25.95 53.63 25.88 53.25 25.88 53.18 C25.88 53.1 26.18 52.87 26.55 52.73 L28.95
									 51.75 C29.33 51.6 29.55 51.15 29.4 50.7 L28.2 47.85 C28.05 47.48 27.6 47.25 27.15 47.4 L24.75
									 48.38 C24.38 48.53 24 48.6 23.93 48.53 C23.85 48.45 23.63 48.15 23.33 47.78 L21.9 46.43 C21.6
									 46.13 21.23 45.9 21.23 45.83 C21.15 45.75 21.23 45.45 21.38 45 L22.35 42.6 C22.5 42.23 22.35
									 41.78 21.9 41.55 L19.05 40.35 C18.68 40.2 18.23 40.35 18 40.8 L17.03 43.2 C16.88 43.58 16.65
									 43.88 16.58 43.88 C16.5 43.88 16.05 43.8 15.68 43.73 C15.68 43.73 15.3 43.65 14.7 43.65 C14.1
									 43.65 13.73 43.73 13.73 43.73 C13.28 43.8 12.9 43.8 12.83 43.88 C12.75 43.88 12.52 43.58 12.38
									 43.2 L11.4 40.8 C11.25 40.43 10.8 40.2 10.35 40.35 L7.5 41.55 C7.13 41.7 6.9 42.15 7.05 42.6
									 L8.03 45 C8.17 45.38 8.25 45.75 8.18 45.83 C8.1 45.9 7.8 46.13 7.5 46.43 L6.08 47.85 C5.78 48.15
									 5.55 48.53 5.48 48.6 C5.4 48.68 5.1 48.6 4.65 48.45 L2.4 47.33 C2.03 47.18 1.58 47.33 1.35 47.78
									 L0.15 50.63 C0 51 0.15 51.45 0.6 51.68 L3 52.65 C3.37 52.8 3.67 53.02 3.68 53.1 C3.67 53.17
									 3.6 53.63 3.6 54 L3.6 55.95 C3.6 56.4 3.67 56.78 3.68 56.85 C3.67 56.93 3.37 57.15 3 57.3 L0.6
									 58.35 C0.23 58.5 0 58.95 0.15 59.4 L1.35 62.25 C1.5 62.62 1.95 62.85 2.4 62.7 L4.8 61.73 C5.18
									 61.58 5.55 61.5 5.63 61.58 C5.7 61.65 5.93 61.95 6.23 62.33 L7.65 63.68 C7.95 63.97 8.32 64.2
									 8.4 64.28 C8.47 64.35 8.4 64.73 8.25 65.1 L7.13 67.35 C6.98 67.73 7.13 68.17 7.58 68.4 L10.43
									 69.6 C10.8 69.75 11.25 69.6 11.48 69.15 L12.45 66.75 C12.6 66.38 12.82 66.08 12.9 66.08 C12.97
									 66.08 13.43 66.15 13.8 66.23 C13.8 66.23 14.18 66.3 14.78 66.3 C15.38 66.3 15.75 66.23 15.75
									 66.23 C16.2 66.15 16.58 66.15 16.65 66.08 C16.73 66.08 16.95 66.38 17.1 66.75 L18.08 69.15 C18.23
									 69.53 18.68 69.75 19.13 69.6 L21.98 68.4 C22.35 68.25 22.58 67.8 22.43 67.35 L21.45 64.95 C21.3
									 64.58 21.23 64.2 21.3 64.13 C21.38 64.05 21.68 63.82 22.05 63.53 L23.48 62.1 C23.78 61.8 24
									 61.43 24.08 61.35 C24.15 61.28 24.45 61.35 24.9 61.5 L27.3 62.48 C27.68 62.62 28.13 62.47 28.35
									 62.03 L29.55 59.18 C29.48 58.95 29.33 58.5 28.95 58.35 ZM14.78 62.7 C10.5 62.7 7.05 59.25 7.05
									 54.98 C7.05 50.7 10.5 47.25 14.78 47.25 C19.05 47.25 22.5 50.7 22.5 54.98 C22.5 59.25 19.05
									 62.7 14.78 62.7 Z" class="st3"/>
					</g>
				</g>
			</g>
		</g>
	</g>
</svg>
