<?xml version="1.0" encoding="UTF-8" standalone="no"?>
<!DOCTYPE svg PUBLIC "-//W3C//DTD SVG 1.1//EN" "http://www.w3.org/Graphics/SVG/1.1/DTD/svg11.dtd">
<!-- Generated by Microsoft Visio, SVG Export Token.svg Page-1 -->
<svg xmlns="http://www.w3.org/2000/svg" xmlns:xlink="http://www.w3.org/1999/xlink" xmlns:ev="http://www.w3.org/2001/xml-events"
		xmlns:v="http://schemas.microsoft.com/visio/2003/SVGExtensions/" width="0.765625in" height="0.96875in"
		viewBox="0 0 55.125 69.75" xml:space="preserve" color-interpolation-filters="sRGB" class="st4">
	<v:documentProperties v:langID="4108" v:metric="true" v:viewMarkup="false"/>

	<style type="text/css">
	<![CDATA[
		.st1 {fill:#ffffff;stroke:none;stroke-linecap:butt;stroke-width:0.75}
		.st2 {fill:#515251;stroke:none;stroke-linecap:butt;stroke-width:0.75}
		.st3 {fill:#515150;stroke:none;stroke-linecap:butt;stroke-width:0.75}
		.st4 {fill:none;fill-rule:evenodd;font-size:12px;overflow:visible;stroke-linecap:square;stroke-miterlimit:3}
	]]>
	</style>

	<g v:mID="0" v:index="1" v:groupContext="foregroundPage">
		<title>Page-1</title>
		<v:pageProperties v:drawingScale="0.0393701" v:pageScale="0.0393701" v:drawingUnits="24" v:shadowOffsetX="8.50394"
				v:shadowOffsetY="-8.50394"/>
		<v:layer v:name="symbols" v:index="0"/>
		<g id="group482-1" transform="translate(4.125,-4.6125)" v:mID="482" v:groupContext="group" v:layerMember="0">
			<title>Token</title>
			<g id="group483-2" v:mID="483" v:groupContext="group" v:layerMember="0">
				<title>Sheet.483</title>
				<g id="shape484-3" v:mID="484" v:groupContext="shape" v:layerMember="0">
					<title>Sheet.484</title>
					<path d="M34.8 44.18 C38.33 40.73 40.42 36 40.42 30.98 C40.42 20.85 32.17 12.6 22.05 12.6 C11.92 12.6 3.67 20.85
								 3.67 30.98 C3.67 36.23 6 41.25 9.9 44.7 L0 63.53 L1.58 65.1 L10.65 63.6 L16.5 69.75 L18.6 69.15
								 L22.57 54.83 L27.67 68.85 L29.85 69.15 L35.25 61.65 L45.45 63.98 L47.17 62.25 L34.8 44.18 Z"
							class="st1"/>
				</g>
				<g id="group485-5" transform="translate(3,-2.85)" v:mID="485" v:groupContext="group" v:layerMember="0">
					<title>Sheet.485</title>
					<g id="shape486-6" v:mID="486" v:groupContext="shape" v:layerMember="0" transform="translate(9.15,-26.025)">
						<title>Sheet.486</title>
						<path d="M9.9 52.05 C14.18 52.05 17.7 55.58 17.7 59.85 C17.7 64.13 14.25 67.65 9.9 67.65 C5.55 67.65 2.1
									 64.13 2.1 59.85 C2.1 55.58 5.63 52.05 9.9 52.05 ZM9.9 49.95 C4.5 49.95 0 54.45 0 59.85 C0 65.25
									 4.5 69.75 9.9 69.75 C15.3 69.75 19.8 65.25 19.8 59.85 C19.8 54.45 15.38 49.95 9.9 49.95 Z"
								class="st2"/>
					</g>
					<g id="shape487-8" v:mID="487" v:groupContext="shape" v:layerMember="0">
						<title>Sheet.487</title>
						<path d="M28.8 46.65 C32.63 43.73 35.18 39.08 35.18 33.83 C35.18 24.98 27.98 17.7 19.05 17.7 C10.2 17.7 2.92
									 24.98 2.92 33.83 C2.92 39.23 5.63 44.03 9.82 46.95 L0 65.48 L8.4 64.05 L13.8 69.75 L19.2 50.33
									 L26.1 69.15 L31.27 61.95 L40.73 64.13 L28.8 46.65 ZM6 33.83 C6 26.63 11.85 20.85 18.98 20.85
									 C26.1 20.85 31.95 26.7 31.95 33.83 C31.95 40.95 26.25 46.88 19.05 46.88 C11.85 46.88 6 41.03
									 6 33.83 Z" class="st3"/>
					</g>
				</g>
			</g>
		</g>
	</g>
</svg>
