<?xml version="1.0" encoding="UTF-8" standalone="no"?>
<!DOCTYPE svg PUBLIC "-//W3C//DTD SVG 1.1//EN" "http://www.w3.org/Graphics/SVG/1.1/DTD/svg11.dtd">
<!-- Generated by Microsoft Visio, SVG Export Trusted Application Server.svg Page-1 -->
<svg xmlns="http://www.w3.org/2000/svg" xmlns:xlink="http://www.w3.org/1999/xlink" xmlns:ev="http://www.w3.org/2001/xml-events"
		xmlns:v="http://schemas.microsoft.com/visio/2003/SVGExtensions/" width="0.875in" height="1.04687in" viewBox="0 0 63 75.375"
		xml:space="preserve" color-interpolation-filters="sRGB" class="st4">
	<v:documentProperties v:langID="4108" v:metric="true" v:viewMarkup="false"/>

	<style type="text/css">
	<![CDATA[
		.st1 {fill:#ffffff;stroke:none;stroke-linecap:butt;stroke-width:0.75}
		.st2 {fill:#515251;stroke:none;stroke-linecap:butt;stroke-width:0.75}
		.st3 {fill:#515150;stroke:none;stroke-linecap:butt;stroke-width:0.75}
		.st4 {fill:none;fill-rule:evenodd;font-size:12px;overflow:visible;stroke-linecap:square;stroke-miterlimit:3}
	]]>
	</style>

	<g v:mID="0" v:index="1" v:groupContext="foregroundPage">
		<title>Page-1</title>
		<v:pageProperties v:drawingScale="0.0393701" v:pageScale="0.0393701" v:drawingUnits="24" v:shadowOffsetX="8.50394"
				v:shadowOffsetY="-8.50394"/>
		<v:layer v:name="symbols" v:index="0"/>
		<g id="group503-1" transform="translate(9.375,-5.8125)" v:mID="503" v:groupContext="group" v:layerMember="0">
			<title>Trusted Application Server</title>
			<g id="group504-2" v:mID="504" v:groupContext="group" v:layerMember="0">
				<title>Sheet.504</title>
				<g id="group505-3" transform="translate(-2.43805E-13,-4.5)" v:mID="505" v:groupContext="group" v:layerMember="0">
					<title>Sheet.505</title>
					<g id="shape506-4" v:mID="506" v:groupContext="shape" v:layerMember="0">
						<title>Sheet.506</title>
						<path d="M0 75.37 L0 23.62 C-0 20.7 2.33 18.37 5.25 18.37 L26.25 18.37 C29.18 18.37 31.5 20.7 31.5 23.62
									 L31.5 75.37 L0 75.37 Z" class="st1"/>
					</g>
					<g id="shape507-6" v:mID="507" v:groupContext="shape" v:layerMember="0" transform="translate(2.25,-2.25)">
						<title>Sheet.507</title>
						<path d="M24 22.87 L3 22.87 C1.35 22.87 0 24.22 0 25.87 L0 75.37 L27 75.37 L27 25.87 C27 24.22 25.65 22.87
									 24 22.87 ZM21.75 69.37 L5.25 69.37 L5.25 67.12 L21.75 67.12 L21.75 69.37 ZM21.75 62.62 L5.25
									 62.62 L5.25 60.37 L21.75 60.37 L21.75 62.62 ZM21.75 31.87 L5.25 31.87 L5.25 29.62 L21.75 29.62
									 L21.75 31.87 Z" class="st2"/>
					</g>
				</g>
				<g id="group508-8" transform="translate(18.75,0)" v:mID="508" v:groupContext="group" v:layerMember="0">
					<title>Sheet.508</title>
					<g id="shape509-9" v:mID="509" v:groupContext="shape" v:layerMember="0">
						<title>Sheet.509</title>
						<path d="M16.12 75.37 C7.2 75.37 0 68.17 0 59.25 C-0 50.32 7.2 43.12 16.12 43.12 C25.05 43.12 32.25 50.32
									 32.25 59.25 C32.25 68.17 25.05 75.37 16.12 75.37 Z" class="st1"/>
					</g>
					<g id="shape510-11" v:mID="510" v:groupContext="shape" v:layerMember="0" transform="translate(2.25,-2.25)">
						<title>Sheet.510</title>
						<path d="M13.87 47.62 C6.22 47.62 0 53.85 0 61.5 C-0 69.15 6.22 75.37 13.87 75.37 C21.53 75.37 27.75 69.15
									 27.75 61.5 C27.75 53.85 21.53 47.62 13.87 47.62 ZM22.57 55.8 L11.92 69.37 L5.4 61.95 C5.25 61.72
									 5.25 61.42 5.4 61.27 L7.13 59.7 C7.27 59.55 7.57 59.55 7.8 59.77 L11.92 64.27 L19.95 53.62 C20.1
									 53.4 20.4 53.4 20.62 53.55 L22.43 55.05 C22.72 55.27 22.73 55.57 22.57 55.8 Z" class="st3"/>
					</g>
				</g>
			</g>
		</g>
	</g>
</svg>
