<?xml version="1.0" encoding="UTF-8" standalone="no"?>
<!DOCTYPE svg PUBLIC "-//W3C//DTD SVG 1.1//EN" "http://www.w3.org/Graphics/SVG/1.1/DTD/svg11.dtd">
<!-- Generated by Microsoft Visio, SVG Export UM Mailbox Policy.svg Page-1 -->
<svg xmlns="http://www.w3.org/2000/svg" xmlns:xlink="http://www.w3.org/1999/xlink" xmlns:ev="http://www.w3.org/2001/xml-events"
		xmlns:v="http://schemas.microsoft.com/visio/2003/SVGExtensions/" width="0.984375in" height="1.04688in"
		viewBox="0 0 70.875 75.375" xml:space="preserve" color-interpolation-filters="sRGB" class="st3">
	<v:documentProperties v:langID="4108" v:metric="true" v:viewMarkup="false"/>

	<style type="text/css">
	<![CDATA[
		.st1 {fill:#ffffff;stroke:none;stroke-linecap:butt;stroke-width:0.75}
		.st2 {fill:#515150;stroke:none;stroke-linecap:butt;stroke-width:0.75}
		.st3 {fill:none;fill-rule:evenodd;font-size:12px;overflow:visible;stroke-linecap:square;stroke-miterlimit:3}
	]]>
	</style>

	<g v:mID="0" v:index="1" v:groupContext="foregroundPage">
		<title>Page-1</title>
		<v:pageProperties v:drawingScale="0.0393701" v:pageScale="0.0393701" v:drawingUnits="24" v:shadowOffsetX="8.50394"
				v:shadowOffsetY="-8.50394"/>
		<v:layer v:name="symbols" v:index="0"/>
		<g id="group511-1" transform="translate(2.9625,-8.8125)" v:mID="511" v:groupContext="group" v:layerMember="0">
			<title>UM Mailbox Policy</title>
			<g id="group512-2" transform="translate(0,-4.5)" v:mID="512" v:groupContext="group" v:layerMember="0">
				<title>Sheet.512</title>
				<g id="shape513-3" v:mID="513" v:groupContext="shape" v:layerMember="0">
					<title>Sheet.513</title>
					<path d="M8.17 75.37 C8.17 75.37 8.17 75.37 8.17 75.37 L8.4 75.37 L39.38 75.37 C44.03 75 47.63 71.1 47.63 66.45
								 L47.63 37.87 L48.38 37.87 L48.98 37.87 C53.25 37.72 56.63 34.28 56.63 30 C56.63 25.73 53.18 22.2
								 48.9 22.13 L48.83 22.13 L16.87 22.13 C11.93 22.13 7.88 26.18 7.88 31.12 L7.88 58.87 C3.53 59.1 0
								 62.7 0 67.12 C0 71.4 3.3 74.93 7.5 75.3 L8.17 75.37 Z" class="st1"/>
				</g>
				<g id="shape514-5" v:mID="514" v:groupContext="shape" v:layerMember="0" transform="translate(47.625,-39.375)">
					<title>Sheet.514</title>
					<path d="M6.23 66.08 L3.9 66.08 C1.73 66.08 0 67.8 0 69.98 L0 75.37 L0.82 75.37 C4.28 75.37 7.05 72.6 7.05 69.15
								 C7.05 68.03 6.75 66.98 6.23 66.08 Z" class="st2"/>
				</g>
				<g id="shape515-7" v:mID="515" v:groupContext="shape" v:layerMember="0" transform="translate(10.125,-2.175)">
					<title>Sheet.515</title>
					<path d="M35.25 32.4 C35.4 29.55 37.58 27.15 40.43 26.77 C40.43 26.77 40.5 26.77 40.5 26.77 C40.05 26.63 39.53
								 26.63 39.07 26.63 C38.93 26.63 38.85 26.63 38.78 26.63 C38.78 26.63 38.7 26.63 38.7 26.63 L36.75
								 26.63 L34.5 26.63 L13.12 26.63 L6.75 26.63 C3 26.63 0 29.62 0 33.38 L0 61.05 L25.5 61.05 C26.55
								 61.05 27.38 61.95 27.38 63 C27.38 63.75 26.92 64.05 26.92 64.05 C24.98 65.03 23.62 67.05 23.62 69.38
								 C23.62 72.6 26.18 75.22 29.4 75.37 C32.7 74.92 35.25 72.15 35.32 68.7 L35.32 32.4 L35.25 32.4 Z"
							class="st2"/>
				</g>
				<g id="shape516-9" v:mID="516" v:groupContext="shape" v:layerMember="0" transform="translate(2.175,-2.25)">
					<title>Sheet.516</title>
					<path d="M31.88 75.37 C30.3 73.87 29.33 71.77 29.33 69.37 C29.33 67.05 30.3 64.95 31.88 63.37 L6 63.37 C2.7 63.37
								 0 66.07 0 69.37 C0 72.67 2.7 75.37 6 75.37 L31.88 75.37 Z" class="st2"/>
				</g>
			</g>
			<g id="group517-11" transform="translate(26.1,2.84217E-13)" v:mID="517" v:groupContext="group" v:layerMember="0">
				<title>Sheet.517</title>
				<g id="shape518-12" v:mID="518" v:groupContext="shape" v:layerMember="0">
					<title>Sheet.518</title>
					<path d="M29.77 46.12 L11.78 46.12 C10.73 46.12 9.82 46.5 9.15 47.1 C8.77 46.8 8.33 46.57 7.8 46.42 C6.98 46.2
								 6.53 46.12 5.48 46.12 C4.43 46.12 3.9 46.2 3.08 46.42 C1.28 46.95 0.23 48.3 0.08 50.17 C-0 50.7
								 0.08 51.37 0.08 52.5 C0.15 54.07 0.23 56.62 0.23 61.05 C0.23 64.57 0.15 66.83 0.08 68.4 C-0 69.68
								 0 70.5 0.08 71.25 C0.15 73.12 1.35 74.55 3.15 75.07 C3.9 75.3 4.65 75.37 5.4 75.37 C6.23 75.37 6.98
								 75.3 7.8 75.07 C8.33 74.92 8.85 74.7 9.22 74.32 C9.9 74.92 10.8 75.3 11.85 75.3 L29.85 75.3 C32.03
								 75.3 33.6 73.72 33.6 71.55 L33.6 49.87 C33.53 47.7 31.95 46.12 29.77 46.12 Z" class="st1"/>
				</g>
				<g id="shape519-14" v:mID="519" v:groupContext="shape" v:layerMember="0" transform="translate(2.1,-2.175)">
					<title>Sheet.519</title>
					<path d="M6.45 52.5 C6.38 51.52 5.85 51 5.03 50.7 C4.5 50.55 4.28 50.47 3.3 50.47 C2.4 50.47 2.17 50.55 1.58
								 50.7 C0.75 51 0.23 51.52 0.15 52.5 C0.07 53.55 0.3 55.72 0.3 63.22 C0.3 69.53 0 71.85 0.15 73.35
								 C0.23 74.32 0.75 74.85 1.58 75.15 C2.1 75.3 2.63 75.37 3.23 75.37 C3.83 75.37 4.43 75.3 4.95 75.15
								 C5.78 74.93 6.3 74.32 6.38 73.35 C6.45 71.85 6.23 69.75 6.23 63.38 C6.3 55.95 6.53 53.62 6.45 52.5
								 Z" class="st2"/>
				</g>
				<g id="shape520-16" v:mID="520" v:groupContext="shape" v:layerMember="0" transform="translate(10.275,-2.25)">
					<title>Sheet.520</title>
					<path d="M19.5 50.62 L1.5 50.62 C0.53 50.62 0 51.15 0 52.12 L0 73.87 C-0 74.85 0.53 75.37 1.5 75.37 L19.5 75.37
								 C20.48 75.37 21 74.85 21 73.87 L21 52.12 C21 51.15 20.48 50.62 19.5 50.62 ZM7.5 70.87 C7.5 71.33
								 7.2 71.62 6.75 71.62 L5.25 71.62 C4.8 71.62 4.5 71.33 4.5 70.87 L4.5 70.12 C4.5 69.67 4.8 69.37
								 5.25 69.37 L6.75 69.37 C7.2 69.37 7.5 69.67 7.5 70.12 L7.5 70.87 ZM7.5 67.12 C7.5 67.57 7.2 67.87
								 6.75 67.87 L5.25 67.87 C4.8 67.87 4.5 67.57 4.5 67.12 L4.5 66.37 C4.5 65.92 4.8 65.62 5.25 65.62
								 L6.75 65.62 C7.2 65.62 7.5 65.92 7.5 66.37 L7.5 67.12 ZM7.5 63.37 C7.5 63.82 7.2 64.12 6.75 64.12
								 L5.25 64.12 C4.8 64.12 4.5 63.82 4.5 63.37 L4.5 62.62 C4.5 62.17 4.8 61.87 5.25 61.87 L6.75 61.87
								 C7.2 61.87 7.5 62.17 7.5 62.62 L7.5 63.37 ZM12 70.87 C12 71.33 11.7 71.62 11.25 71.62 L9.75 71.62
								 C9.3 71.62 9 71.33 9 70.87 L9 70.12 C9 69.67 9.3 69.37 9.75 69.37 L11.25 69.37 C11.7 69.37 12 69.67
								 12 70.12 L12 70.87 ZM12 67.12 C12 67.57 11.7 67.87 11.25 67.87 L9.75 67.87 C9.3 67.87 9 67.57 9
								 67.12 L9 66.37 C9 65.92 9.3 65.62 9.75 65.62 L11.25 65.62 C11.7 65.62 12 65.92 12 66.37 L12 67.12
								 ZM12 63.37 C12 63.82 11.7 64.12 11.25 64.12 L9.75 64.12 C9.3 64.12 9 63.82 9 63.37 L9 62.62 C9 62.17
								 9.3 61.87 9.75 61.87 L11.25 61.87 C11.7 61.87 12 62.17 12 62.62 L12 63.37 ZM16.5 70.87 C16.5 71.33
								 16.2 71.62 15.75 71.62 L14.25 71.62 C13.8 71.62 13.5 71.33 13.5 70.87 L13.5 70.12 C13.5 69.67 13.8
								 69.37 14.25 69.37 L15.75 69.37 C16.2 69.37 16.5 69.67 16.5 70.12 L16.5 70.87 ZM16.5 67.12 C16.5
								 67.57 16.2 67.87 15.75 67.87 L14.25 67.87 C13.8 67.87 13.5 67.57 13.5 67.12 L13.5 66.37 C13.5 65.92
								 13.8 65.62 14.25 65.62 L15.75 65.62 C16.2 65.62 16.5 65.92 16.5 66.37 L16.5 67.12 ZM16.5 63.37 C16.5
								 63.82 16.2 64.12 15.75 64.12 L14.25 64.12 C13.8 64.12 13.5 63.82 13.5 63.37 L13.5 62.62 C13.5 62.17
								 13.8 61.87 14.25 61.87 L15.75 61.87 C16.2 61.87 16.5 62.17 16.5 62.62 L16.5 63.37 ZM17.25 58.87
								 L3.75 58.87 L3.75 53.62 L17.25 53.62 L17.25 58.87 Z" class="st2"/>
				</g>
			</g>
		</g>
	</g>
</svg>
