<?xml version="1.0" encoding="UTF-8" standalone="no"?>
<!DOCTYPE svg PUBLIC "-//W3C//DTD SVG 1.1//EN" "http://www.w3.org/Graphics/SVG/1.1/DTD/svg11.dtd">
<!-- Generated by Microsoft Visio, SVG Export Universal Security Group.svg Page-1 -->
<svg xmlns="http://www.w3.org/2000/svg" xmlns:xlink="http://www.w3.org/1999/xlink" xmlns:ev="http://www.w3.org/2001/xml-events"
		xmlns:v="http://schemas.microsoft.com/visio/2003/SVGExtensions/" width="1.09375in" height="0.921875in"
		viewBox="0 0 78.75 66.375" xml:space="preserve" color-interpolation-filters="sRGB" class="st5">
	<v:documentProperties v:langID="4108" v:metric="true" v:viewMarkup="false"/>

	<style type="text/css">
	<![CDATA[
		.st1 {fill:#ffffff;stroke:none;stroke-linecap:butt;stroke-width:0.75}
		.st2 {fill:#515251;stroke:none;stroke-linecap:butt;stroke-width:0.75}
		.st3 {fill:#515150;stroke:none;stroke-linecap:butt;stroke-width:0.75}
		.st4 {fill:#525352;stroke:none;stroke-linecap:butt;stroke-width:0.75}
		.st5 {fill:none;fill-rule:evenodd;font-size:12px;overflow:visible;stroke-linecap:square;stroke-miterlimit:3}
	]]>
	</style>

	<g v:mID="0" v:index="1" v:groupContext="foregroundPage">
		<title>Page-1</title>
		<v:pageProperties v:drawingScale="0.0393701" v:pageScale="0.0393701" v:drawingUnits="24" v:shadowOffsetX="8.50394"
				v:shadowOffsetY="-8.50394"/>
		<v:layer v:name="symbols" v:index="0"/>
		<g id="group521-1" transform="translate(7.7625,-2.1375)" v:mID="521" v:groupContext="group" v:layerMember="0">
			<title>Universal Security Group</title>
			<g id="group522-2" transform="translate(0,-14.175)" v:mID="522" v:groupContext="group" v:layerMember="0">
				<title>Sheet.522</title>
				<g id="group523-3" transform="translate(24.75,-7.95)" v:mID="523" v:groupContext="group" v:layerMember="0">
					<title>Sheet.523</title>
					<g id="shape524-4" v:mID="524" v:groupContext="shape" v:layerMember="0">
						<title>Sheet.524</title>
						<path d="M0 66.38 L0.15 63.98 C0.3 61.35 0.98 55.95 1.5 53.4 C2.17 50.48 3.07 48.45 5.92 46.88 L6.9 46.35
									 C8.85 45.23 9.75 44.7 10.95 44.7 C11.62 44.7 12.23 44.85 12.82 45.15 L13.05 45.3 L13.27 45.45
									 C13.72 45.9 14.25 46.28 14.78 46.5 C15.22 46.8 15.6 46.95 16.05 47.1 L16.12 47.1 C16.95 47.4
									 17.85 47.55 18.67 47.55 C19.58 47.55 20.4 47.4 21.22 47.1 C21.75 46.95 22.12 46.8 22.5 46.5
									 L22.72 46.35 L22.95 46.2 C23.32 45.98 23.7 45.68 24 45.38 L24.22 45.23 L24.45 45.08 C25.05 44.78
									 25.65 44.63 26.32 44.63 C27.52 44.63 28.57 45.23 30.3 46.2 C30.6 46.35 30.97 46.58 31.35 46.8
									 C34.2 48.38 35.1 50.4 35.77 53.33 C36.37 55.88 36.97 61.28 37.12 63.9 L37.27 66.3 L0 66.3 L0
									 66.38 Z" class="st1"/>
					</g>
					<g id="shape525-6" v:mID="525" v:groupContext="shape" v:layerMember="0" transform="translate(2.25,-2.25)">
						<title>Sheet.525</title>
						<path d="M31.35 56.18 C30.75 53.48 30 52.2 27.97 51.08 C25.95 49.95 24.82 49.2 24.07 49.2 C23.77 49.2 23.47
									 49.28 23.25 49.43 C22.72 49.88 22.2 50.25 21.67 50.63 C21.67 50.63 21.67 50.63 21.67 50.63 C21.6
									 50.7 21.53 50.78 21.37 50.78 C20.77 51.15 20.25 51.38 19.65 51.53 C18.6 51.9 17.47 52.13 16.35
									 52.13 C15.15 52.13 14.1 51.9 13.05 51.53 C12.45 51.38 11.92 51.08 11.33 50.78 C10.65 50.4 10.05
									 49.95 9.45 49.43 C9.23 49.28 9 49.2 8.63 49.2 C7.88 49.2 7.12 49.73 4.72 51.08 C2.7 52.2 2.02
									 53.48 1.35 56.18 C0.83 58.5 0.22 63.83 0 66.38 L32.55 66.38 C32.55 63.83 31.87 58.5 31.35 56.18
									 Z" class="st2"/>
					</g>
					<g id="shape526-8" v:mID="526" v:groupContext="shape" v:layerMember="0" transform="translate(8.475,-17.85)">
						<title>Sheet.526</title>
						<path d="M10.2 66.38 C4.57 66.38 0 61.43 0 55.28 C0 49.13 4.57 44.25 10.2 44.25 C15.82 44.25 20.4 49.2 20.4
									 55.35 C20.4 61.5 15.82 66.38 10.2 66.38 Z" class="st1"/>
					</g>
					<g id="shape527-10" v:mID="527" v:groupContext="shape" v:layerMember="0" transform="translate(10.725,-20.1)">
						<title>Sheet.527</title>
						<path d="M7.95 66.38 C3.6 66.38 0 62.4 0 57.53 C0 52.65 3.6 48.68 7.95 48.68 C12.3 48.68 15.9 52.65 15.9
									 57.53 C15.9 62.48 12.3 66.38 7.95 66.38 Z" class="st2"/>
					</g>
				</g>
				<g id="group528-12" v:mID="528" v:groupContext="group" v:layerMember="0">
					<title>Sheet.528</title>
					<g id="shape529-13" v:mID="529" v:groupContext="shape" v:layerMember="0">
						<title>Sheet.529</title>
						<path d="M0 66.38 L0.15 63.98 C0.3 61.35 0.98 55.95 1.5 53.4 C2.18 50.48 3.07 48.45 5.92 46.88 L6.9 46.35
									 C8.85 45.23 9.75 44.7 10.95 44.7 C11.63 44.7 12.22 44.85 12.82 45.15 L13.05 45.3 L13.28 45.45
									 C13.72 45.9 14.25 46.28 14.78 46.5 C15.22 46.8 15.6 46.95 16.05 47.1 L16.12 47.1 C16.95 47.4
									 17.85 47.55 18.67 47.55 C19.58 47.55 20.4 47.4 21.23 47.1 C21.75 46.95 22.13 46.8 22.5 46.5
									 L22.73 46.35 L22.95 46.2 C23.32 45.98 23.7 45.68 24 45.38 L24.22 45.23 L24.45 45.08 C25.05 44.78
									 25.65 44.63 26.32 44.63 C27.53 44.63 28.58 45.23 30.3 46.2 C30.6 46.35 30.98 46.58 31.35 46.8
									 C34.2 48.38 35.1 50.4 35.77 53.4 C36.38 55.95 36.97 61.35 37.13 63.98 L37.35 66.38 L0 66.38
									 Z" class="st1"/>
					</g>
					<g id="shape530-15" v:mID="530" v:groupContext="shape" v:layerMember="0" transform="translate(2.4,-2.25)">
						<title>Sheet.530</title>
						<path d="M31.2 56.18 C30.6 53.48 29.85 52.2 27.83 51.08 C25.88 49.88 24.75 49.13 24 49.13 C23.7 49.13 23.4
									 49.2 23.18 49.35 C22.65 49.8 22.13 50.18 21.6 50.55 C21.6 50.55 21.6 50.55 21.6 50.55 C21.53
									 50.63 21.45 50.7 21.3 50.7 C20.7 51.08 20.17 51.3 19.57 51.45 C18.52 51.83 17.4 52.05 16.27
									 52.05 C15.08 52.05 14.03 51.83 12.98 51.45 C12.37 51.3 11.85 51 11.25 50.7 C10.58 50.33 9.98
									 49.88 9.37 49.35 C9.15 49.2 8.93 49.13 8.55 49.13 C7.8 49.13 7.05 49.65 4.65 51 C2.62 52.13
									 1.95 53.4 1.27 56.1 C0.75 58.5 0.15 63.83 0 66.38 L32.55 66.38 C32.4 63.83 31.72 58.5 31.2 56.18
									 Z" class="st2"/>
					</g>
					<g id="shape531-17" v:mID="531" v:groupContext="shape" v:layerMember="0" transform="translate(8.475,-17.85)">
						<title>Sheet.531</title>
						<path d="M10.2 66.38 C4.57 66.38 0 61.43 0 55.28 C0 49.13 4.57 44.18 10.2 44.18 C15.82 44.18 20.4 49.13 20.4
									 55.28 C20.4 61.43 15.82 66.38 10.2 66.38 Z" class="st1"/>
					</g>
					<g id="shape532-19" v:mID="532" v:groupContext="shape" v:layerMember="0" transform="translate(10.725,-20.1)">
						<title>Sheet.532</title>
						<path d="M7.95 66.38 C3.6 66.38 0 62.4 0 57.53 C0 52.65 3.6 48.68 7.95 48.68 C12.3 48.68 15.9 52.65 15.9
									 57.53 C15.9 62.4 12.3 66.38 7.95 66.38 Z" class="st2"/>
					</g>
				</g>
			</g>
			<g id="group533-21" transform="translate(33,-2.925)" v:mID="533" v:groupContext="group" v:layerMember="0">
				<title>Sheet.533</title>
				<g id="shape534-22" v:mID="534" v:groupContext="shape" v:layerMember="0">
					<title>Sheet.534</title>
					<path d="M3.53 66.38 C1.57 66.38 0 64.8 0 62.85 L0 51.3 C0 49.95 0.75 48.75 1.95 48.15 L1.95 46.13 C1.95 40.95
								 6.15 36.83 11.25 36.83 C16.35 36.83 20.55 40.95 20.55 46.13 L20.55 48.15 C21.67 48.75 22.5 49.95
								 22.5 51.3 L22.5 62.85 C22.5 64.8 20.93 66.38 18.97 66.38 L3.53 66.38 Z" class="st1"/>
				</g>
				<g id="shape535-24" v:mID="535" v:groupContext="shape" v:layerMember="0" transform="translate(2.175,-2.325)">
					<title>Sheet.535</title>
					<path d="M16.72 52.28 L16.05 52.28 L16.05 48.45 C16.05 44.55 12.9 41.4 9 41.4 C5.1 41.4 1.95 44.55 1.95 48.45
								 L1.95 52.28 L1.27 52.28 C0.6 52.28 0 52.88 0 53.55 L0 65.1 C-0 65.78 0.6 66.38 1.27 66.38 L16.72
								 66.38 C17.4 66.38 18 65.78 18 65.1 L18 53.63 C18.07 52.88 17.47 52.28 16.72 52.28 ZM4.57 48.45 C4.57
								 45.98 6.6 43.95 9.07 43.95 C11.55 43.95 13.57 45.98 13.57 48.45 L13.57 52.28 L4.57 52.28 L4.57 48.45
								 Z" class="st3"/>
				</g>
			</g>
			<g id="group536-26" transform="translate(49.05,-3.12639E-13)" v:mID="536" v:groupContext="group" v:layerMember="0">
				<title>Sheet.536</title>
				<g id="shape537-27" v:mID="537" v:groupContext="shape" v:layerMember="0">
					<title>Sheet.537</title>
					<path d="M10.65 61.35 L10.27 60.98 L10.65 60.6 L10.65 58.5 L10.05 57.75 L10.35 57.38 L10.35 56.1 C12 54.9 13.05
								 52.95 13.05 50.78 C13.05 47.18 10.12 44.25 6.52 44.25 C2.92 44.25 0 47.18 0 50.78 C0 52.95 1.05
								 54.9 2.77 56.1 L2.77 63.15 L5.7 66.38 L7.57 66.38 L10.72 63.15 L10.72 61.35 L10.65 61.35 Z"
							class="st1"/>
				</g>
				<g id="shape538-29" v:mID="538" v:groupContext="shape" v:layerMember="0" transform="translate(2.25,-2.25)">
					<title>Sheet.538</title>
					<path d="M5.85 58.35 L5.85 57.08 C7.42 56.48 8.55 54.9 8.55 53.1 C8.55 50.7 6.6 48.83 4.27 48.83 C1.88 48.83
								 0 50.78 0 53.1 C0 54.9 1.12 56.48 2.77 57.08 L2.77 64.58 L4.42 66.38 L6.22 64.5 L4.95 63.15 L6.3
								 61.73 L6.3 61.65 L4.8 60.08 L5.85 58.8 L5.85 58.35 ZM4.27 50.55 C4.87 50.55 5.4 51.08 5.4 51.68
								 C5.4 52.28 4.87 52.8 4.27 52.8 C3.67 52.8 3.15 52.28 3.15 51.68 C3.15 51.08 3.6 50.55 4.27 50.55
								 Z" class="st4"/>
				</g>
			</g>
		</g>
	</g>
</svg>
