<?xml version="1.0" encoding="UTF-8" standalone="no"?>
<!DOCTYPE svg PUBLIC "-//W3C//DTD SVG 1.1//EN" "http://www.w3.org/Graphics/SVG/1.1/DTD/svg11.dtd">
<!-- Generated by Microsoft Visio, SVG Export 3rd-Party Mail Server.svg Page-1 -->
<svg xmlns="http://www.w3.org/2000/svg" xmlns:xlink="http://www.w3.org/1999/xlink" xmlns:ev="http://www.w3.org/2001/xml-events"
		xmlns:v="http://schemas.microsoft.com/visio/2003/SVGExtensions/" width="0.875in" height="1.07813in" viewBox="0 0 63 77.625"
		xml:space="preserve" color-interpolation-filters="sRGB" class="st5">
	<v:documentProperties v:langID="4108" v:metric="true" v:viewMarkup="false"/>

	<style type="text/css">
	<![CDATA[
		.st1 {fill:#ffffff;stroke:none;stroke-linecap:butt;stroke-width:0.75}
		.st2 {fill:#525352;stroke:none;stroke-linecap:butt;stroke-width:0.75}
		.st3 {fill:#515251;stroke:none;stroke-linecap:butt;stroke-width:0.75}
		.st4 {fill:#515050;stroke:none;stroke-linecap:butt;stroke-width:0.75}
		.st5 {fill:none;fill-rule:evenodd;font-size:12px;overflow:visible;stroke-linecap:square;stroke-miterlimit:3}
	]]>
	</style>

	<g v:mID="0" v:index="1" v:groupContext="foregroundPage">
		<title>Page-1</title>
		<v:pageProperties v:drawingScale="0.0393701" v:pageScale="0.0393701" v:drawingUnits="24" v:shadowOffsetX="8.50394"
				v:shadowOffsetY="-8.50394"/>
		<v:layer v:name="symbols" v:index="0"/>
		<g id="group1-1" transform="translate(6.975,-6.9375)" v:mID="1" v:groupContext="group" v:layerMember="0">
			<title>3rd-Party Mail Server</title>
			<g id="group2-2" transform="translate(-2.43805E-13,-4.5)" v:mID="2" v:groupContext="group" v:layerMember="0">
				<title>Sheet.2</title>
				<g id="shape3-3" v:mID="3" v:groupContext="shape" v:layerMember="0">
					<title>Sheet.3</title>
					<path d="M0 77.63 L0 25.88 C0 22.95 2.33 20.63 5.25 20.63 L26.25 20.63 C29.18 20.63 31.5 22.95 31.5 25.88 L31.5
								 77.63 L0 77.63 Z" class="st1"/>
				</g>
				<g id="shape4-5" v:mID="4" v:groupContext="shape" v:layerMember="0" transform="translate(2.25,-2.25)">
					<title>Sheet.4</title>
					<path d="M24 25.13 L3 25.13 C1.35 25.13 0 26.48 0 28.13 L0 77.63 L27 77.63 L27 28.13 C27 26.48 25.65 25.13 24
								 25.13 ZM21.75 71.63 L5.25 71.63 L5.25 69.38 L21.75 69.38 L21.75 71.63 ZM21.75 64.88 L5.25 64.88
								 L5.25 62.63 L21.75 62.63 L21.75 64.88 ZM21.75 34.13 L5.25 34.13 L5.25 31.88 L21.75 31.88 L21.75
								 34.13 Z" class="st2"/>
				</g>
			</g>
			<g id="group5-7" transform="translate(20.25,-39)" v:mID="5" v:groupContext="group" v:layerMember="0">
				<title>Sheet.5</title>
				<g id="shape6-8" v:mID="6" v:groupContext="shape" v:layerMember="0">
					<title>Sheet.6</title>
					<rect x="0" y="52.875" width="30.75" height="24.75" class="st1"/>
				</g>
				<g id="shape7-10" v:mID="7" v:groupContext="shape" v:layerMember="0" transform="translate(2.25,-2.25)">
					<title>Sheet.7</title>
					<path d="M0 57.38 L0 77.63 L26.25 77.63 L26.25 57.38 L0 57.38 ZM24.75 76.13 L1.5 76.13 L1.5 58.88 L24.75 58.88
								 L24.75 76.13 Z" class="st3"/>
				</g>
				<g id="shape8-12" v:mID="8" v:groupContext="shape" v:layerMember="0" transform="translate(21,-14.25)">
					<title>Sheet.8</title>
					<rect x="0" y="73.125" width="3.75" height="4.5" class="st3"/>
				</g>
				<g id="shape9-14" v:mID="9" v:groupContext="shape" v:layerMember="0" transform="translate(7.5,-11.25)">
					<title>Sheet.9</title>
					<rect x="0" y="76.125" width="9" height="1.5" class="st3"/>
				</g>
				<g id="shape10-16" v:mID="10" v:groupContext="shape" v:layerMember="0" transform="translate(7.5,-7.5)">
					<title>Sheet.10</title>
					<rect x="0" y="76.125" width="12.75" height="1.5" class="st3"/>
				</g>
			</g>
			<g id="group11-18" transform="translate(21,0)" v:mID="11" v:groupContext="group" v:layerMember="0">
				<title>Sheet.11</title>
				<g id="group12-19" v:mID="12" v:groupContext="group" v:layerMember="0">
					<title>Sheet.12</title>
					<g id="shape13-20" v:mID="13" v:groupContext="shape" v:layerMember="0">
						<title>Sheet.13</title>
						<path d="M4.5 77.63 C2.03 77.63 0 75.6 0 73.13 L0 52.13 C0 49.65 2.03 47.63 4.5 47.63 L25.5 47.63 C27.98
									 47.63 30 49.65 30 52.13 L30 73.13 C30 75.6 27.98 77.63 25.5 77.63 L4.5 77.63 Z" class="st1"/>
					</g>
					<g id="shape14-22" v:mID="14" v:groupContext="shape" v:layerMember="0" transform="translate(2.25,-2.25)">
						<title>Sheet.14</title>
						<path d="M25.5 75.38 C25.5 76.65 24.53 77.63 23.25 77.63 L2.25 77.63 C0.98 77.63 0 76.65 0 75.38 L0 54.38
									 C0 53.1 0.98 52.13 2.25 52.13 L23.25 52.13 C24.53 52.13 25.5 53.1 25.5 54.38 L25.5 75.38 Z"
								class="st4"/>
					</g>
				</g>
				<g id="group15-24" transform="translate(7.65,-8.25)" v:mID="15" v:groupContext="group" v:layerMember="0">
					<title>Sheet.15</title>
					<g id="shape16-25" v:mID="16" v:groupContext="shape" v:layerMember="0">
						<title>Sheet.16</title>
						<path d="M6.67 76.58 C5.85 77.25 4.65 77.63 3.15 77.63 C1.87 77.63 0.82 77.4 0 77.03 L0 74.63 C0.82 75.23
									 1.8 75.53 2.93 75.53 C3.6 75.53 4.2 75.38 4.58 75.08 C4.95 74.78 5.17 74.33 5.17 73.8 C5.17
									 73.2 4.95 72.83 4.43 72.53 C3.9 72.23 3.3 72.08 2.4 72.08 L1.2 72.08 L1.2 69.98 L2.25 69.98
									 C3.9 69.98 4.72 69.45 4.72 68.33 C4.72 67.28 4.12 66.75 2.85 66.75 C2.02 66.75 1.2 67.05 0.37
									 67.58 L0.37 65.33 C1.28 64.88 2.32 64.65 3.45 64.65 C4.72 64.65 5.77 64.95 6.45 65.55 C7.12
									 66.15 7.5 66.9 7.5 67.8 C7.5 69.45 6.67 70.5 5.02 70.88 C5.92 70.95 6.6 71.33 7.12 71.85 C7.65
									 72.38 7.87 73.05 7.87 73.8 C7.95 75 7.58 75.9 6.67 76.58 Z" class="st1"/>
					</g>
					<g id="group17-27" transform="translate(9.375,-7.2)" v:mID="17" v:groupContext="group" v:layerMember="0">
						<title>Sheet.17</title>
						<g id="shape18-28" v:mID="18" v:groupContext="shape" v:layerMember="0">
							<title>Sheet.18</title>
							<path d="M1.95 74.93 C1.87 74.85 1.72 74.85 1.57 74.85 C1.35 74.85 1.12 74.93 0.97 75.15 C0.82 75.38
										 0.75 75.6 0.75 75.98 L0.75 77.63 L0 77.63 L0 74.25 L0.75 74.25 L0.75 74.93 C0.82 74.7 0.97
										 74.48 1.12 74.4 C1.27 74.25 1.42 74.18 1.65 74.18 C1.8 74.18 1.87 74.18 1.95 74.25 L1.95
										 74.93 Z" class="st1"/>
						</g>
						<g id="shape19-30" v:mID="19" v:groupContext="shape" v:layerMember="0" transform="translate(2.25,0)">
							<title>Sheet.19</title>
							<path d="M3.22 77.55 L2.47 77.55 L2.47 76.95 C2.25 77.4 1.87 77.63 1.35 77.63 C0.9 77.63 0.6 77.48 0.37
										 77.18 C0.15 76.88 0 76.43 0 75.98 C0 75.45 0.15 75 0.45 74.63 C0.75 74.33 1.12 74.1 1.57
										 74.1 C2.02 74.1 2.32 74.25 2.55 74.63 L2.55 72.53 L3.3 72.53 L3.3 77.55 L3.22 77.55 ZM2.47
										 76.05 L2.47 75.6 C2.47 75.38 2.4 75.15 2.25 75 C2.1 74.85 1.87 74.78 1.65 74.78 C1.35 74.78
										 1.12 74.85 0.98 75.08 C0.82 75.3 0.75 75.6 0.75 75.98 C0.75 76.35 0.82 76.58 0.98 76.8 C1.12
										 77.03 1.35 77.1 1.57 77.1 C1.8 77.1 2.02 77.03 2.17 76.8 C2.32 76.58 2.47 76.35 2.47 76.05
										 Z" class="st1"/>
						</g>
					</g>
				</g>
			</g>
		</g>
	</g>
</svg>
