<?xml version="1.0" encoding="UTF-8" standalone="no"?>
<!DOCTYPE svg PUBLIC "-//W3C//DTD SVG 1.1//EN" "http://www.w3.org/Graphics/SVG/1.1/DTD/svg11.dtd">
<!-- Generated by Microsoft Visio, SVG Export Active Directory Federation Services Proxy.svg Page-1 -->
<svg xmlns="http://www.w3.org/2000/svg" xmlns:xlink="http://www.w3.org/1999/xlink" xmlns:ev="http://www.w3.org/2001/xml-events"
		xmlns:v="http://schemas.microsoft.com/visio/2003/SVGExtensions/" width="0.859375in" height="1.01563in"
		viewBox="0 0 61.875 73.125" xml:space="preserve" color-interpolation-filters="sRGB" class="st3">
	<v:documentProperties v:langID="4108" v:metric="true" v:viewMarkup="false"/>

	<style type="text/css">
	<![CDATA[
		.st1 {fill:#ffffff;stroke:none;stroke-linecap:butt;stroke-width:0.75}
		.st2 {fill:#515050;stroke:none;stroke-linecap:butt;stroke-width:0.75}
		.st3 {fill:none;fill-rule:evenodd;font-size:12px;overflow:visible;stroke-linecap:square;stroke-miterlimit:3}
	]]>
	</style>

	<g v:mID="0" v:index="1" v:groupContext="foregroundPage">
		<title>Page-1</title>
		<v:pageProperties v:drawingScale="0.0393701" v:pageScale="0.0393701" v:drawingUnits="24" v:shadowOffsetX="8.50394"
				v:shadowOffsetY="-8.50394"/>
		<v:layer v:name="symbols" v:index="0"/>
		<g id="group20-1" transform="translate(8.175,-6.825)" v:mID="20" v:groupContext="group" v:layerMember="0">
			<title>Active Directory Federation Services Proxy</title>
			<g id="group21-2" v:mID="21" v:groupContext="group" v:layerMember="0">
				<title>Sheet.21</title>
				<g id="shape22-3" v:mID="22" v:groupContext="shape" v:layerMember="0">
					<title>Sheet.22</title>
					<path d="M0 73.13 L0 21.38 C-0 18.45 2.32 16.13 5.25 16.13 L26.25 16.13 C29.17 16.13 31.5 18.45 31.5 21.38 L31.5
								 73.13 L0 73.13 Z" class="st1"/>
				</g>
				<g id="shape23-5" v:mID="23" v:groupContext="shape" v:layerMember="0" transform="translate(2.25,-2.25)">
					<title>Sheet.23</title>
					<path d="M24 20.63 L3 20.63 C1.35 20.63 0 21.98 0 23.63 L0 73.13 L27 73.13 L27 23.63 C27 21.98 25.65 20.63 24
								 20.63 ZM21.75 67.13 L5.25 67.13 L5.25 64.88 L21.75 64.88 L21.75 67.13 ZM21.75 60.38 L5.25 60.38
								 L5.25 58.13 L21.75 58.13 L21.75 60.38 ZM21.75 29.63 L5.25 29.63 L5.25 27.38 L21.75 27.38 L21.75
								 29.63 Z" class="st2"/>
				</g>
			</g>
			<g id="group24-7" transform="translate(17.25,-3.75)" v:mID="24" v:groupContext="group" v:layerMember="0">
				<title>Sheet.24</title>
				<g id="shape25-8" v:mID="25" v:groupContext="shape" v:layerMember="0">
					<title>Sheet.25</title>
					<path d="M22.5 58.13 L24 58.13 L24 50.63 L13.5 50.63 L14.85 49.28 L14.85 46.13 L7.87 46.13 L0 54.3 L6.45 61.13
								 L5.25 61.13 L5.25 68.63 L15.37 68.63 L14.1 69.98 L14.1 73.13 L21 73.13 L28.87 64.95 L22.5 58.13
								 Z" class="st1"/>
				</g>
				<g id="shape26-10" v:mID="26" v:groupContext="shape" v:layerMember="0" transform="translate(3.075,-12.75)">
					<title>Sheet.26</title>
					<path d="M18.67 65.63 L8.77 65.63 L5.02 65.63 L9.53 61.13 L5.77 61.13 L0 67.13 L5.77 73.13 L9.53 73.13 L5.02
								 68.63 L8.77 68.63 L18.67 68.63 L18.67 65.63 Z" class="st2"/>
				</g>
				<g id="shape27-12" v:mID="27" v:groupContext="shape" v:layerMember="0" transform="translate(7.5,-2.25)">
					<title>Sheet.27</title>
					<path d="M0 68.63 L9.6 68.63 L13.35 68.63 L8.85 73.13 L12.6 73.13 L18.3 67.13 L12.6 61.13 L8.85 61.13 L13.35
								 65.63 L9.6 65.63 L0 65.63 L0 68.63 Z" class="st2"/>
				</g>
			</g>
			<g id="group28-14" transform="translate(20.325,-33)" v:mID="28" v:groupContext="group" v:layerMember="0">
				<title>Sheet.28</title>
				<g id="shape29-15" v:mID="29" v:groupContext="shape" v:layerMember="0">
					<title>Sheet.29</title>
					<path d="M3.52 73.13 C2.25 73.13 1.12 72.53 0.6 71.55 C0 70.58 0.07 69.3 0.67 68.18 L11.4 48.45 C12.08 47.25
								 13.13 46.65 14.25 46.65 C15.37 46.65 16.43 47.33 17.1 48.45 L27.9 68.25 C28.5 69.3 28.58 70.58 27.98
								 71.55 C27.37 72.53 26.32 73.13 25.05 73.13 L3.52 73.13 Z" class="st1"/>
				</g>
				<g id="shape30-17" v:mID="30" v:groupContext="shape" v:layerMember="0" transform="translate(2.1,-2.25)">
					<title>Sheet.30</title>
					<path d="M23.85 71.55 L13.05 51.83 C12.52 51 11.77 51 11.25 51.83 L0.53 71.55 C-0 72.38 0.45 73.13 1.43 73.13
								 L22.95 73.13 C23.92 73.13 24.37 72.45 23.85 71.55 ZM12.15 57.08 C13.35 57.08 14.25 58.05 14.25 59.18
								 C14.25 60.38 13.27 61.28 12.15 61.28 C10.95 61.28 10.05 60.3 10.05 59.18 C10.05 57.98 11.02 57.08
								 12.15 57.08 ZM16.65 66.15 C16.2 66.23 15.83 66.38 15.53 66.6 L12.9 61.73 C13.27 61.65 13.65 61.43
								 13.95 61.13 L16.65 66.15 ZM10.35 61.2 C10.65 61.5 11.02 61.65 11.4 61.8 L8.77 66.75 C8.48 66.53
								 8.1 66.3 7.65 66.23 L10.35 61.2 ZM7.12 70.95 C5.92 70.95 5.03 69.98 5.03 68.85 C5.03 67.65 6 66.75
								 7.12 66.75 C8.32 66.75 9.23 67.73 9.23 68.85 C9.23 70.05 8.25 70.95 7.12 70.95 ZM14.47 69.45 L9.75
								 69.45 C9.82 69.23 9.82 69.08 9.82 68.85 C9.82 68.63 9.82 68.48 9.75 68.25 L14.47 68.25 C14.4 68.48
								 14.4 68.63 14.4 68.85 C14.4 69.08 14.4 69.3 14.47 69.45 ZM17.1 70.95 C15.9 70.95 15 69.98 15 68.85
								 C15 67.65 15.98 66.75 17.1 66.75 C18.3 66.75 19.2 67.73 19.2 68.85 C19.2 70.05 18.3 70.95 17.1 70.95
								 Z" class="st2"/>
				</g>
			</g>
		</g>
	</g>
</svg>
