<?xml version="1.0" encoding="UTF-8" standalone="no"?>
<!DOCTYPE svg PUBLIC "-//W3C//DTD SVG 1.1//EN" "http://www.w3.org/Graphics/SVG/1.1/DTD/svg11.dtd">
<!-- Generated by Microsoft Visio, SVG Export Active Directory Federation Services Server - ghosted.svg Page-1 -->
<svg xmlns="http://www.w3.org/2000/svg" xmlns:xlink="http://www.w3.org/1999/xlink" xmlns:ev="http://www.w3.org/2001/xml-events"
		xmlns:v="http://schemas.microsoft.com/visio/2003/SVGExtensions/" width="0.800803in" height="1.01563in"
		viewBox="0 0 57.6578 73.125" xml:space="preserve" color-interpolation-filters="sRGB" class="st5">
	<v:documentProperties v:langID="4108" v:metric="true" v:viewMarkup="false"/>

	<style type="text/css">
	<![CDATA[
		.st1 {fill:#ffffff;stroke:none;stroke-linecap:butt;stroke-width:0.75}
		.st2 {fill:#515050;stroke:none;stroke-linecap:butt;stroke-width:0.75}
		.st3 {fill:#9c9c9d;stroke:none;stroke-linecap:butt;stroke-width:0.75}
		.st4 {fill:#cccbcb;stroke:none;stroke-linecap:butt;stroke-width:0.75}
		.st5 {fill:none;fill-rule:evenodd;font-size:12px;overflow:visible;stroke-linecap:square;stroke-miterlimit:3}
	]]>
	</style>

	<g v:mID="0" v:index="1" v:groupContext="foregroundPage">
		<title>Page-1</title>
		<v:pageProperties v:drawingScale="0.0393701" v:pageScale="0.0393701" v:drawingUnits="24" v:shadowOffsetX="8.50394"
				v:shadowOffsetY="-8.50394"/>
		<v:layer v:name="symbols" v:index="0"/>
		<g id="group62-1" transform="translate(8.1375,-6.5625)" v:mID="62" v:groupContext="group" v:layerMember="0">
			<title>Active Directory Federation Services Server - ghosted</title>
			<g id="group63-2" v:mID="63" v:groupContext="group" v:layerMember="0">
				<title>Sheet.63</title>
				<g id="group64-3" transform="translate(-2.43805E-13,-3)" v:mID="64" v:groupContext="group" v:layerMember="0">
					<title>Sheet.64</title>
					<g id="shape65-4" v:mID="65" v:groupContext="shape" v:layerMember="0">
						<title>Sheet.65</title>
						<path d="M0 73.12 L0 21.37 C0 18.45 2.33 16.12 5.25 16.13 L26.25 16.13 C29.18 16.13 31.5 18.45 31.5 21.37
									 L31.5 73.12 L0 73.12 Z" class="st1"/>
					</g>
					<g id="shape66-6" v:mID="66" v:groupContext="shape" v:layerMember="0" transform="translate(2.25,-2.25)">
						<title>Sheet.66</title>
						<path d="M24 20.62 L3 20.62 C1.35 20.62 0 21.98 0 23.62 L0 73.12 L27 73.12 L27 23.62 C27 21.98 25.65 20.62
									 24 20.62 ZM21.75 67.13 L5.25 67.13 L5.25 64.87 L21.75 64.87 L21.75 67.13 ZM21.75 60.38 L5.25
									 60.38 L5.25 58.12 L21.75 58.12 L21.75 60.38 ZM21.75 29.62 L5.25 29.62 L5.25 27.37 L21.75 27.37
									 L21.75 29.62 Z" class="st2"/>
					</g>
				</g>
				<g id="group67-8" transform="translate(14.85,0)" v:mID="67" v:groupContext="group" v:layerMember="0">
					<title>Sheet.67</title>
					<g id="shape68-9" v:mID="68" v:groupContext="shape" v:layerMember="0">
						<title>Sheet.68</title>
						<path d="M3.75 73.12 C2.32 73.12 1.2 72.53 0.6 71.48 C-0 70.42 0 69.07 0.75 67.87 L13.95 43.57 C14.7 42.3
									 15.82 41.62 17.03 41.62 C18.22 41.63 19.35 42.3 20.1 43.5 L33.37 67.87 C34.05 69.07 34.12 70.35
									 33.45 71.4 C32.85 72.45 31.65 73.05 30.3 73.05 L3.75 73.05 L3.75 73.12 Z" class="st1"/>
					</g>
					<g id="shape69-11" v:mID="69" v:groupContext="shape" v:layerMember="0" transform="translate(2.025,-2.25)">
						<title>Sheet.69</title>
						<path d="M29.4 71.25 L16.05 46.87 C15.45 45.82 14.47 45.82 13.87 46.87 L0.6 71.25 C-0 72.3 0.52 73.12 1.72
									 73.12 L28.27 73.12 C29.47 73.12 30 72.3 29.4 71.25 ZM15 53.32 C16.42 53.32 17.62 54.52 17.62
									 55.95 C17.62 57.37 16.42 58.58 15 58.58 C13.57 58.58 12.37 57.37 12.37 55.95 C12.37 54.52 13.57
									 53.32 15 53.32 ZM20.47 64.58 C19.95 64.65 19.5 64.88 19.12 65.17 L15.9 59.17 C16.42 59.02 16.87
									 58.8 17.25 58.5 L20.47 64.58 ZM12.75 58.5 C13.12 58.8 13.57 59.1 14.1 59.17 L10.8 65.25 C10.42
									 64.95 9.97 64.72 9.45 64.58 L12.75 58.5 ZM8.7 70.5 C7.27 70.5 6.07 69.3 6.07 67.88 C6.07 66.45
									 7.27 65.25 8.7 65.25 C10.12 65.25 11.32 66.45 11.32 67.88 C11.32 69.3 10.2 70.5 8.7 70.5 ZM17.78
									 68.63 L12 68.63 C12.07 68.4 12.07 68.1 12.07 67.88 C12.07 67.65 12.07 67.35 12 67.12 L17.78
									 67.12 C17.7 67.35 17.7 67.65 17.7 67.88 C17.7 68.1 17.7 68.4 17.78 68.63 ZM21.07 70.5 C19.65
									 70.5 18.45 69.3 18.45 67.88 C18.45 66.45 19.65 65.25 21.07 65.25 C22.5 65.25 23.7 66.45 23.7
									 67.88 C23.7 69.3 22.5 70.5 21.07 70.5 Z" class="st3"/>
					</g>
				</g>
				<g id="group70-13" transform="translate(17.55,-2.25)" v:mID="70" v:groupContext="group" v:layerMember="0">
					<title>Sheet.70</title>
					<g id="shape71-14" v:mID="71" v:groupContext="shape" v:layerMember="0" transform="translate(11.25,-22.725)">
						<title>Sheet.71</title>
						<path d="M1.95 69.6 L0 73.12 L3.9 69.22 C3.3 68.55 2.47 68.7 1.95 69.6 Z" class="st4"/>
					</g>
					<g id="shape72-16" v:mID="72" v:groupContext="shape" v:layerMember="0" transform="translate(5.55,-12.15)">
						<title>Sheet.72</title>
						<path d="M2.55 68.33 L0 73.12 L11.25 61.65 L10.5 60.3 L2.55 68.33 Z" class="st4"/>
					</g>
					<g id="shape73-18" v:mID="73" v:groupContext="shape" v:layerMember="0" transform="translate(2.55,-11.25)">
						<title>Sheet.73</title>
					</g>
					<g id="shape74-19" v:mID="74" v:groupContext="shape" v:layerMember="0" transform="translate(15.225,-18.675)">
						<title>Sheet.74</title>
						<path d="M2.4 69.75 L0 72.23 C0.45 72.38 0.9 72.75 1.2 73.12 L3.15 71.1 L2.4 69.75 Z" class="st4"/>
					</g>
					<g id="shape75-21" v:mID="75" v:groupContext="shape" v:layerMember="0"
							transform="translate(-9.99201E-16,-2.175)">
						<title>Sheet.75</title>
						<path d="M11.7 61.43 L12.08 60.68 C12.15 60.75 12.23 60.75 12.3 60.83 L12.83 60.3 C12.38 60 12.08 59.63 11.93
									 59.1 L2.63 68.4 L0 73.12 L11.7 61.43 Z" class="st4"/>
					</g>
					<g id="shape76-23" v:mID="76" v:groupContext="shape" v:layerMember="0" transform="translate(0.45,4.26326E-14)">
						<title>Sheet.76</title>
						<path d="M4.95 68.02 L0 73.05 C0.15 73.12 0.38 73.12 0.6 73.12 L2.02 73.12 L5.55 69.52 C5.25 69.07 5.03 68.55
									 4.95 68.02 Z" class="st4"/>
					</g>
					<g id="shape77-25" v:mID="77" v:groupContext="shape" v:layerMember="0" transform="translate(8.025,-7.275)">
						<title>Sheet.77</title>
						<path d="M8.85 63.6 C8.7 64.73 7.8 65.55 6.68 65.78 L4.5 68.03 L2.03 72.53 C1.65 72.23 1.2 72 0.68 71.85
									 L0 72.53 C0.6 72.53 1.13 72.75 1.5 73.12 L7.42 67.13 L7.05 66.45 C7.57 66.3 8.02 66.08 8.4 65.78
									 L8.55 66 L11.85 62.63 L11.1 61.28 L8.85 63.6 Z" class="st4"/>
					</g>
					<g id="shape78-27" v:mID="78" v:groupContext="shape" v:layerMember="0" transform="translate(4.875,1.42109E-13)">
						<title>Sheet.78</title>
						<path d="M6.53 68.63 L6.45 68.63 C6.53 68.4 6.53 68.1 6.53 67.87 C6.53 67.65 6.53 67.35 6.45 67.13 L8.03
									 67.13 L12.3 62.77 L11.55 61.42 L5.7 67.35 C5.78 67.5 5.78 67.72 5.78 67.87 C5.78 69.3 4.65 70.5
									 3.15 70.5 C3 70.5 2.85 70.5 2.62 70.42 L0 73.12 L2.1 73.12 L6.53 68.63 Z" class="st4"/>
					</g>
					<g id="shape79-29" v:mID="79" v:groupContext="shape" v:layerMember="0" transform="translate(17.55,-11.475)">
						<title>Sheet.79</title>
						<path d="M0 71.78 L0.68 73.12 L4.05 69.75 L3.3 68.4 L0 71.78 Z" class="st4"/>
					</g>
					<g id="shape80-31" v:mID="80" v:groupContext="shape" v:layerMember="0" transform="translate(9.45,-4.26326E-14)">
						<title>Sheet.80</title>
						<path d="M4.42 68.63 L0 73.12 L2.1 73.12 L6.52 68.63 L4.42 68.63 Z" class="st4"/>
					</g>
					<g id="shape81-33" v:mID="81" v:groupContext="shape" v:layerMember="0" transform="translate(15.3,-5.625)">
						<title>Sheet.81</title>
						<path d="M3.83 68.85 L4.5 70.2 C3.98 70.28 3.53 70.5 3.15 70.8 L2.7 69.98 L0 72.75 L1.8 72.75 C1.72 72.9
									 1.72 72.97 1.72 73.12 L7.95 66.82 L7.2 65.47 L3.83 68.85 Z" class="st4"/>
					</g>
					<g id="shape82-35" v:mID="82" v:groupContext="shape" v:layerMember="0"
							transform="translate(13.875,-4.26326E-14)">
						<title>Sheet.82</title>
						<path d="M5.1 70.05 C4.65 69.75 4.35 69.38 4.12 68.93 L0 73.12 L2.1 73.12 L5.1 70.05 Z" class="st4"/>
					</g>
					<g id="shape83-37" v:mID="83" v:groupContext="shape" v:layerMember="0" transform="translate(21.375,-6.75)">
						<title>Sheet.83</title>
						<path d="M2.7 69.45 L0 72.15 C0.45 72.38 0.9 72.68 1.2 73.12 L3.45 70.8 L2.7 69.45 Z" class="st4"/>
					</g>
					<g id="shape84-39" v:mID="84" v:groupContext="shape" v:layerMember="0"
							transform="translate(18.375,-1.42109E-13)">
						<title>Sheet.84</title>
						<path d="M7.27 65.63 L4.58 68.4 C4.35 69.38 3.6 70.13 2.62 70.43 L0 73.12 L2.1 73.12 L8.02 67.05 L7.27 65.63
									 Z" class="st4"/>
					</g>
					<g id="shape85-41" v:mID="85" v:groupContext="shape" v:layerMember="0" transform="translate(22.8,2.84217E-14)">
						<title>Sheet.85</title>
						<path d="M5.18 69.9 L4.43 68.55 L0 73.12 L2.03 73.12 L5.18 69.9 Z" class="st4"/>
					</g>
					<g id="shape86-43" v:mID="86" v:groupContext="shape" v:layerMember="0" transform="translate(27.3,0)">
						<title>Sheet.86</title>
						<path d="M1.58 71.55 L0 73.12 L0.3 73.12 C1.43 73.12 1.95 72.45 1.58 71.55 Z" class="st4"/>
					</g>
				</g>
			</g>
		</g>
	</g>
</svg>
