<?xml version="1.0" encoding="UTF-8" standalone="no"?>
<!DOCTYPE svg PUBLIC "-//W3C//DTD SVG 1.1//EN" "http://www.w3.org/Graphics/SVG/1.1/DTD/svg11.dtd">
<!-- Generated by Microsoft Visio, SVG Export Active Directory Federation Services Server - green.svg Page-1 -->
<svg xmlns="http://www.w3.org/2000/svg" xmlns:xlink="http://www.w3.org/1999/xlink" xmlns:ev="http://www.w3.org/2001/xml-events"
		xmlns:v="http://schemas.microsoft.com/visio/2003/SVGExtensions/" width="0.79872in" height="1.01563in"
		viewBox="0 0 57.5078 73.125" xml:space="preserve" color-interpolation-filters="sRGB" class="st4">
	<v:documentProperties v:langID="4108" v:metric="true" v:viewMarkup="false"/>

	<style type="text/css">
	<![CDATA[
		.st1 {fill:#ffffff;stroke:none;stroke-linecap:butt;stroke-width:0.75}
		.st2 {fill:#515050;stroke:none;stroke-linecap:butt;stroke-width:0.75}
		.st3 {fill:#7fba42;stroke:none;stroke-linecap:butt;stroke-width:0.75}
		.st4 {fill:none;fill-rule:evenodd;font-size:12px;overflow:visible;stroke-linecap:square;stroke-miterlimit:3}
	]]>
	</style>

	<g v:mID="0" v:index="1" v:groupContext="foregroundPage">
		<title>Page-1</title>
		<v:pageProperties v:drawingScale="0.0393701" v:pageScale="0.0393701" v:drawingUnits="24" v:shadowOffsetX="8.50394"
				v:shadowOffsetY="-8.50394"/>
		<v:layer v:name="symbols" v:index="0"/>
		<g id="group54-1" transform="translate(7.9875,-6.5625)" v:mID="54" v:groupContext="group" v:layerMember="0">
			<title>Active Directory Federation Services Server - green</title>
			<g id="group55-2" v:mID="55" v:groupContext="group" v:layerMember="0">
				<title>Sheet.55</title>
				<g id="group56-3" transform="translate(-2.43805E-13,-3)" v:mID="56" v:groupContext="group" v:layerMember="0">
					<title>Sheet.56</title>
					<g id="shape57-4" v:mID="57" v:groupContext="shape" v:layerMember="0">
						<title>Sheet.57</title>
						<path d="M0 73.12 L0 21.37 C0 18.45 2.33 16.12 5.25 16.13 L26.25 16.13 C29.18 16.13 31.5 18.45 31.5 21.37
									 L31.5 73.12 L0 73.12 Z" class="st1"/>
					</g>
					<g id="shape58-6" v:mID="58" v:groupContext="shape" v:layerMember="0" transform="translate(2.25,-2.25)">
						<title>Sheet.58</title>
						<path d="M24 20.62 L3 20.62 C1.35 20.62 0 21.98 0 23.62 L0 73.12 L27 73.12 L27 23.62 C27 21.98 25.65 20.62
									 24 20.62 ZM21.75 67.13 L5.25 67.13 L5.25 64.87 L21.75 64.87 L21.75 67.13 ZM21.75 60.38 L5.25
									 60.38 L5.25 58.12 L21.75 58.12 L21.75 60.38 ZM21.75 29.62 L5.25 29.62 L5.25 27.37 L21.75 27.37
									 L21.75 29.62 Z" class="st2"/>
					</g>
				</g>
				<g id="group59-8" transform="translate(14.85,0)" v:mID="59" v:groupContext="group" v:layerMember="0">
					<title>Sheet.59</title>
					<g id="shape60-9" v:mID="60" v:groupContext="shape" v:layerMember="0">
						<title>Sheet.60</title>
						<path d="M3.75 73.12 C2.32 73.12 1.2 72.53 0.6 71.48 C-0 70.42 0 69.07 0.75 67.87 L13.95 43.57 C14.7 42.3
									 15.82 41.62 17.03 41.62 C18.22 41.63 19.35 42.3 20.1 43.5 L33.37 67.87 C34.05 69.07 34.12 70.35
									 33.45 71.4 C32.85 72.45 31.65 73.05 30.3 73.05 L3.75 73.05 L3.75 73.12 Z" class="st1"/>
					</g>
					<g id="shape61-11" v:mID="61" v:groupContext="shape" v:layerMember="0" transform="translate(2.025,-2.25)">
						<title>Sheet.61</title>
						<path d="M29.4 71.25 L16.05 46.87 C15.45 45.82 14.47 45.82 13.87 46.87 L0.6 71.25 C-0 72.3 0.52 73.12 1.72
									 73.12 L28.27 73.12 C29.47 73.12 30 72.3 29.4 71.25 ZM15 53.32 C16.42 53.32 17.62 54.52 17.62
									 55.95 C17.62 57.37 16.42 58.58 15 58.58 C13.57 58.58 12.37 57.37 12.37 55.95 C12.37 54.52 13.57
									 53.32 15 53.32 ZM20.47 64.58 C19.95 64.65 19.5 64.88 19.12 65.17 L15.9 59.17 C16.42 59.02 16.87
									 58.8 17.25 58.5 L20.47 64.58 ZM12.75 58.5 C13.12 58.8 13.57 59.1 14.1 59.17 L10.8 65.25 C10.42
									 64.95 9.97 64.72 9.45 64.58 L12.75 58.5 ZM8.7 70.5 C7.27 70.5 6.07 69.3 6.07 67.88 C6.07 66.45
									 7.27 65.25 8.7 65.25 C10.12 65.25 11.32 66.45 11.32 67.88 C11.32 69.3 10.2 70.5 8.7 70.5 ZM17.78
									 68.63 L12 68.63 C12.07 68.4 12.07 68.1 12.07 67.88 C12.07 67.65 12.07 67.35 12 67.12 L17.78
									 67.12 C17.7 67.35 17.7 67.65 17.7 67.88 C17.7 68.1 17.7 68.4 17.78 68.63 ZM21.07 70.5 C19.65
									 70.5 18.45 69.3 18.45 67.88 C18.45 66.45 19.65 65.25 21.07 65.25 C22.5 65.25 23.7 66.45 23.7
									 67.88 C23.7 69.3 22.5 70.5 21.07 70.5 Z" class="st3"/>
					</g>
				</g>
			</g>
		</g>
	</g>
</svg>
