<?xml version="1.0" encoding="UTF-8" standalone="no"?>
<!DOCTYPE svg PUBLIC "-//W3C//DTD SVG 1.1//EN" "http://www.w3.org/Graphics/SVG/1.1/DTD/svg11.dtd">
<!-- Generated by Microsoft Visio, SVG Export Application Server - blue.svg Page-1 -->
<svg xmlns="http://www.w3.org/2000/svg" xmlns:xlink="http://www.w3.org/1999/xlink" xmlns:ev="http://www.w3.org/2001/xml-events"
		xmlns:v="http://schemas.microsoft.com/visio/2003/SVGExtensions/" width="0.828125in" height="1.01563in"
		viewBox="0 0 59.625 73.125" xml:space="preserve" color-interpolation-filters="sRGB" class="st4">
	<v:documentProperties v:langID="4108" v:metric="true" v:viewMarkup="false"/>

	<style type="text/css">
	<![CDATA[
		.st1 {fill:#ffffff;stroke:none;stroke-linecap:butt;stroke-width:0.75}
		.st2 {fill:#515050;stroke:none;stroke-linecap:butt;stroke-width:0.75}
		.st3 {fill:#2072b8;stroke:none;stroke-linecap:butt;stroke-width:0.75}
		.st4 {fill:none;fill-rule:evenodd;font-size:12px;overflow:visible;stroke-linecap:square;stroke-miterlimit:3}
	]]>
	</style>

	<g v:mID="0" v:index="1" v:groupContext="foregroundPage">
		<title>Page-1</title>
		<v:pageProperties v:drawingScale="0.0393701" v:pageScale="0.0393701" v:drawingUnits="24" v:shadowOffsetX="8.50394"
				v:shadowOffsetY="-8.50394"/>
		<v:layer v:name="symbols" v:index="0"/>
		<g id="group97-1" transform="translate(7.6875,-6.1875)" v:mID="97" v:groupContext="group" v:layerMember="0">
			<title>Application Server - blue</title>
			<g id="group98-2" v:mID="98" v:groupContext="group" v:layerMember="0">
				<title>Sheet.98</title>
				<g id="group99-3" transform="translate(-2.43805E-13,-3.75)" v:mID="99" v:groupContext="group" v:layerMember="0">
					<title>Sheet.99</title>
					<g id="shape100-4" v:mID="100" v:groupContext="shape" v:layerMember="0">
						<title>Sheet.100</title>
						<path d="M0 73.13 L0 21.38 C-0 18.45 2.33 16.13 5.25 16.13 L26.25 16.13 C29.18 16.13 31.5 18.45 31.5 21.38
									 L31.5 73.13 L0 73.13 Z" class="st1"/>
					</g>
					<g id="shape101-6" v:mID="101" v:groupContext="shape" v:layerMember="0" transform="translate(2.25,-2.25)">
						<title>Sheet.101</title>
						<path d="M24 20.63 L3 20.63 C1.35 20.63 0 21.98 0 23.63 L0 73.13 L27 73.13 L27 23.63 C27 21.98 25.65 20.63
									 24 20.63 ZM21.75 67.13 L5.25 67.13 L5.25 64.88 L21.75 64.88 L21.75 67.13 ZM21.75 60.38 L5.25
									 60.38 L5.25 58.13 L21.75 58.13 L21.75 60.38 ZM21.75 29.63 L5.25 29.63 L5.25 27.38 L21.75 27.38
									 L21.75 29.63 Z" class="st2"/>
					</g>
				</g>
				<g id="group102-8" transform="translate(17.25,-2.98428E-13)" v:mID="102" v:groupContext="group" v:layerMember="0">
					<title>Sheet.102</title>
					<g id="shape103-9" v:mID="103" v:groupContext="shape" v:layerMember="0">
						<title>Sheet.103</title>
						<path d="M3.75 73.13 C1.65 73.13 0 71.48 0 69.38 L0 49.13 C0 47.03 1.65 45.38 3.75 45.38 L30 45.38 C32.1
									 45.38 33.75 47.03 33.75 49.13 L33.75 69.38 C33.75 71.48 32.1 73.13 30 73.13 L3.75 73.13 Z"
								class="st1"/>
					</g>
					<g id="shape104-11" v:mID="104" v:groupContext="shape" v:layerMember="0" transform="translate(2.25,-2.25)">
						<title>Sheet.104</title>
						<path d="M27.75 49.88 L1.5 49.88 C0.6 49.88 0 50.48 0 51.38 L0 71.63 C-0 72.53 0.6 73.13 1.5 73.13 L27.75
									 73.13 C28.65 73.13 29.25 72.53 29.25 71.63 L29.25 51.38 C29.25 50.48 28.65 49.88 27.75 49.88
									 ZM27.75 71.63 L1.5 71.63 L1.5 54.38 L27.75 54.38 L27.75 71.63 Z" class="st3"/>
					</g>
					<g id="shape105-13" v:mID="105" v:groupContext="shape" v:layerMember="0" transform="translate(28.5,-22.5)">
						<title>Sheet.105</title>
						<rect x="0" y="71.625" width="1.5" height="1.5" class="st1"/>
					</g>
					<g id="shape106-15" v:mID="106" v:groupContext="shape" v:layerMember="0" transform="translate(25.5,-22.5)">
						<title>Sheet.106</title>
						<rect x="0" y="71.625" width="1.5" height="1.5" class="st1"/>
					</g>
					<g id="shape107-17" v:mID="107" v:groupContext="shape" v:layerMember="0" transform="translate(22.5,-22.5)">
						<title>Sheet.107</title>
						<rect x="0" y="71.625" width="1.5" height="1.5" class="st1"/>
					</g>
				</g>
			</g>
		</g>
	</g>
</svg>
