<?xml version="1.0" encoding="UTF-8" standalone="no"?>
<!DOCTYPE svg PUBLIC "-//W3C//DTD SVG 1.1//EN" "http://www.w3.org/Graphics/SVG/1.1/DTD/svg11.dtd">
<!-- Generated by Microsoft Visio, SVG Export Application Server - ghosted.svg Page-1 -->
<svg xmlns="http://www.w3.org/2000/svg" xmlns:xlink="http://www.w3.org/1999/xlink" xmlns:ev="http://www.w3.org/2001/xml-events"
		xmlns:v="http://schemas.microsoft.com/visio/2003/SVGExtensions/" width="0.828125in" height="1.01563in"
		viewBox="0 0 59.625 73.125" xml:space="preserve" color-interpolation-filters="sRGB" class="st5">
	<v:documentProperties v:langID="4108" v:metric="true" v:viewMarkup="false"/>

	<style type="text/css">
	<![CDATA[
		.st1 {fill:#ffffff;stroke:none;stroke-linecap:butt;stroke-width:0.75}
		.st2 {fill:#515050;stroke:none;stroke-linecap:butt;stroke-width:0.75}
		.st3 {fill:#9c9c9d;stroke:none;stroke-linecap:butt;stroke-width:0.75}
		.st4 {fill:#cccbcb;stroke:none;stroke-linecap:butt;stroke-width:0.75}
		.st5 {fill:none;fill-rule:evenodd;font-size:12px;overflow:visible;stroke-linecap:square;stroke-miterlimit:3}
	]]>
	</style>

	<g v:mID="0" v:index="1" v:groupContext="foregroundPage">
		<title>Page-1</title>
		<v:pageProperties v:drawingScale="0.0393701" v:pageScale="0.0393701" v:drawingUnits="24" v:shadowOffsetX="8.50394"
				v:shadowOffsetY="-8.50394"/>
		<v:layer v:name="symbols" v:index="0"/>
		<g id="group130-1" transform="translate(7.125,-6.1875)" v:mID="130" v:groupContext="group" v:layerMember="0">
			<title>Application Server - ghosted</title>
			<g id="group131-2" v:mID="131" v:groupContext="group" v:layerMember="0">
				<title>Sheet.131</title>
				<g id="group132-3" transform="translate(-2.43805E-13,-3.75)" v:mID="132" v:groupContext="group" v:layerMember="0">
					<title>Sheet.132</title>
					<g id="shape133-4" v:mID="133" v:groupContext="shape" v:layerMember="0">
						<title>Sheet.133</title>
						<path d="M0 73.13 L0 21.38 C-0 18.45 2.33 16.13 5.25 16.13 L26.25 16.13 C29.18 16.13 31.5 18.45 31.5 21.38
									 L31.5 73.13 L0 73.13 Z" class="st1"/>
					</g>
					<g id="shape134-6" v:mID="134" v:groupContext="shape" v:layerMember="0" transform="translate(2.25,-2.25)">
						<title>Sheet.134</title>
						<path d="M24 20.63 L3 20.63 C1.35 20.63 0 21.98 0 23.63 L0 73.13 L27 73.13 L27 23.63 C27 21.98 25.65 20.63
									 24 20.63 ZM21.75 67.13 L5.25 67.13 L5.25 64.88 L21.75 64.88 L21.75 67.13 ZM21.75 60.38 L5.25
									 60.38 L5.25 58.13 L21.75 58.13 L21.75 60.38 ZM21.75 29.63 L5.25 29.63 L5.25 27.38 L21.75 27.38
									 L21.75 29.63 Z" class="st2"/>
					</g>
				</g>
				<g id="group135-8" transform="translate(17.25,-2.98428E-13)" v:mID="135" v:groupContext="group" v:layerMember="0">
					<title>Sheet.135</title>
					<g id="shape136-9" v:mID="136" v:groupContext="shape" v:layerMember="0">
						<title>Sheet.136</title>
						<path d="M3.75 73.13 C1.65 73.13 0 71.48 0 69.38 L0 49.13 C0 47.03 1.65 45.38 3.75 45.38 L30 45.38 C32.1
									 45.38 33.75 47.03 33.75 49.13 L33.75 69.38 C33.75 71.48 32.1 73.13 30 73.13 L3.75 73.13 Z"
								class="st1"/>
					</g>
					<g id="shape137-11" v:mID="137" v:groupContext="shape" v:layerMember="0" transform="translate(2.25,-2.25)">
						<title>Sheet.137</title>
						<path d="M27.75 49.88 L1.5 49.88 C0.6 49.88 0 50.48 0 51.38 L0 71.63 C-0 72.53 0.6 73.13 1.5 73.13 L27.75
									 73.13 C28.65 73.13 29.25 72.53 29.25 71.63 L29.25 51.38 C29.25 50.48 28.65 49.88 27.75 49.88
									 ZM27.75 71.63 L1.5 71.63 L1.5 54.38 L27.75 54.38 L27.75 71.63 Z" class="st3"/>
					</g>
					<g id="shape138-13" v:mID="138" v:groupContext="shape" v:layerMember="0" transform="translate(28.5,-22.5)">
						<title>Sheet.138</title>
						<rect x="0" y="71.625" width="1.5" height="1.5" class="st1"/>
					</g>
					<g id="shape139-15" v:mID="139" v:groupContext="shape" v:layerMember="0" transform="translate(25.5,-22.5)">
						<title>Sheet.139</title>
						<rect x="0" y="71.625" width="1.5" height="1.5" class="st1"/>
					</g>
					<g id="shape140-17" v:mID="140" v:groupContext="shape" v:layerMember="0" transform="translate(22.5,-22.5)">
						<title>Sheet.140</title>
						<rect x="0" y="71.625" width="1.5" height="1.5" class="st1"/>
					</g>
				</g>
				<g id="group141-19" transform="translate(19.5,-2.25)" v:mID="141" v:groupContext="group" v:layerMember="0">
					<title>Sheet.141</title>
					<g id="shape142-20" v:mID="142" v:groupContext="shape" v:layerMember="0"
							transform="translate(-2.89768E-14,-18.525)">
						<title>Sheet.142</title>
						<path d="M4.65 68.4 L2.55 68.4 L0 70.95 L0 73.13 L4.65 68.4 Z" class="st4"/>
					</g>
					<g id="shape143-22" v:mID="143" v:groupContext="shape" v:layerMember="0"
							transform="translate(1.51129E-14,-14.025)">
						<title>Sheet.143</title>
						<path d="M1.5 69.45 L0 70.95 L0 73.13 L1.5 71.55 L1.5 69.45 Z" class="st4"/>
					</g>
					<g id="shape144-24" v:mID="144" v:groupContext="shape" v:layerMember="0" transform="translate(2.55,-18.75)">
						<title>Sheet.144</title>
						<path d="M2.1 73.13 L6.6 68.63 L4.5 68.63 L0 73.13 L2.1 73.13 Z" class="st4"/>
					</g>
					<g id="shape145-26" v:mID="145" v:groupContext="shape" v:layerMember="0" transform="translate(7.05,-18.75)">
						<title>Sheet.145</title>
						<path d="M2.1 73.13 L6.6 68.63 L4.43 68.63 L0 73.13 L2.1 73.13 Z" class="st4"/>
					</g>
					<g id="shape146-28" v:mID="146" v:groupContext="shape" v:layerMember="0"
							transform="translate(1.51129E-14,-9.525)">
						<title>Sheet.146</title>
						<path d="M1.5 71.55 L1.5 69.45 L0 70.95 L0 73.13 L1.5 71.55 Z" class="st4"/>
					</g>
					<g id="shape147-30" v:mID="147" v:groupContext="shape" v:layerMember="0" transform="translate(11.7,-18.75)">
						<title>Sheet.147</title>
						<path d="M0 73.13 L2.18 73.13 L6.6 68.63 L4.5 68.63 L0 73.13 Z" class="st4"/>
					</g>
					<g id="shape148-32" v:mID="148" v:groupContext="shape" v:layerMember="0"
							transform="translate(1.51129E-14,-4.725)">
						<title>Sheet.148</title>
						<path d="M1.5 69.45 L0 70.95 L0 73.13 L1.5 71.63 L1.5 69.45 Z" class="st4"/>
					</g>
					<g id="shape149-34" v:mID="149" v:groupContext="shape" v:layerMember="0"
							transform="translate(1.51129E-14,-0.525)">
						<title>Sheet.149</title>
						<path d="M1.5 69.75 L0 71.25 L0 72.15 C0 72.53 0.15 72.83 0.3 73.13 L1.5 71.93 L1.5 69.75 Z" class="st4"/>
					</g>
					<g id="shape150-36" v:mID="150" v:groupContext="shape" v:layerMember="0" transform="translate(16.2,-18.75)">
						<title>Sheet.150</title>
						<path d="M2.1 73.13 L4.05 71.18 L4.05 70.13 L5.02 70.13 L6.52 68.63 L4.42 68.63 L0 73.13 L2.1 73.13 Z"
								class="st4"/>
					</g>
					<g id="shape151-38" v:mID="151" v:groupContext="shape" v:layerMember="0" transform="translate(23.625,-20.775)">
						<title>Sheet.151</title>
						<path d="M0 72.15 L1.12 72.15 L1.12 73.13 L3.6 70.65 L1.5 70.65 L0 72.15 Z" class="st4"/>
					</g>
					<g id="shape152-40" v:mID="152" v:groupContext="shape" v:layerMember="0" transform="translate(20.7,-18.75)">
						<title>Sheet.152</title>
						<path d="M3.53 71.63 L2.55 71.63 L2.55 70.5 L0 73.13 L2.1 73.13 L3.53 71.63 Z" class="st4"/>
					</g>
					<g id="shape153-42" v:mID="153" v:groupContext="shape" v:layerMember="0" transform="translate(2.175,0)">
						<title>Sheet.153</title>
						<path d="M3.6 71.63 L1.5 71.63 L0 73.13 L2.1 73.13 L3.6 71.63 Z" class="st4"/>
					</g>
					<g id="shape154-44" v:mID="154" v:groupContext="shape" v:layerMember="0" transform="translate(6.675,0)">
						<title>Sheet.154</title>
						<path d="M3.6 71.63 L1.5 71.63 L0 73.13 L2.1 73.13 L3.6 71.63 Z" class="st4"/>
					</g>
					<g id="shape155-46" v:mID="155" v:groupContext="shape" v:layerMember="0" transform="translate(25.125,-18.75)">
						<title>Sheet.155</title>
						<path d="M3.83 69.23 L2.63 70.5 L2.63 71.63 L1.5 71.63 L0 73.13 L2.1 73.13 L4.12 71.1 L4.12 70.13 C4.12 69.75
									 4.05 69.45 3.83 69.23 Z" class="st4"/>
					</g>
					<g id="shape156-48" v:mID="156" v:groupContext="shape" v:layerMember="0" transform="translate(27.75,-14.7)">
						<title>Sheet.156</title>
						<path d="M0 71.03 L0 73.13 L1.5 71.63 L1.5 69.45 L0 71.03 Z" class="st4"/>
					</g>
					<g id="shape157-50" v:mID="157" v:groupContext="shape" v:layerMember="0" transform="translate(11.25,0)">
						<title>Sheet.157</title>
						<path d="M1.42 71.63 L0 73.13 L2.1 73.13 L3.6 71.63 L1.42 71.63 Z" class="st4"/>
					</g>
					<g id="shape158-52" v:mID="158" v:groupContext="shape" v:layerMember="0" transform="translate(15.675,0)">
						<title>Sheet.158</title>
						<path d="M3.53 71.63 L1.43 71.63 L0 73.13 L2.1 73.13 L3.53 71.63 Z" class="st4"/>
					</g>
					<g id="shape159-54" v:mID="159" v:groupContext="shape" v:layerMember="0" transform="translate(27.75,-10.2)">
						<title>Sheet.159</title>
						<path d="M0 73.13 L1.5 71.63 L1.5 69.45 L0 71.03 L0 73.13 Z" class="st4"/>
					</g>
					<g id="shape160-56" v:mID="160" v:groupContext="shape" v:layerMember="0" transform="translate(27.75,-5.625)">
						<title>Sheet.160</title>
						<path d="M1.5 69.45 L0 71.03 L0 73.13 L1.5 71.63 L1.5 69.45 Z" class="st4"/>
					</g>
					<g id="shape161-58" v:mID="161" v:groupContext="shape" v:layerMember="0" transform="translate(20.175,0)">
						<title>Sheet.161</title>
						<path d="M1.5 71.63 L0 73.13 L2.1 73.13 L3.6 71.63 L1.5 71.63 Z" class="st4"/>
					</g>
					<g id="shape162-60" v:mID="162" v:groupContext="shape" v:layerMember="0"
							transform="translate(24.6,1.13687E-13)">
						<title>Sheet.162</title>
						<path d="M4.65 70.5 L4.65 68.33 L3.15 69.9 L3.15 71.63 L1.43 71.63 L0 73.13 L2.1 73.13 L4.65 70.5 Z"
								class="st4"/>
					</g>
				</g>
			</g>
		</g>
	</g>
</svg>
