<?xml version="1.0" encoding="UTF-8" standalone="no"?>
<!DOCTYPE svg PUBLIC "-//W3C//DTD SVG 1.1//EN" "http://www.w3.org/Graphics/SVG/1.1/DTD/svg11.dtd">
<!-- Generated by Microsoft Visio, SVG Export Call Admission Control Service.svg Page-1 -->
<svg xmlns="http://www.w3.org/2000/svg" xmlns:xlink="http://www.w3.org/1999/xlink" xmlns:ev="http://www.w3.org/2001/xml-events"
		xmlns:v="http://schemas.microsoft.com/visio/2003/SVGExtensions/" width="0.921875in" height="1.03125in"
		viewBox="0 0 66.375 74.25" xml:space="preserve" color-interpolation-filters="sRGB" class="st5">
	<v:documentProperties v:langID="4108" v:metric="true" v:viewMarkup="false"/>

	<style type="text/css">
	<![CDATA[
		.st1 {fill:#ffffff;stroke:none;stroke-linecap:butt;stroke-width:0.75}
		.st2 {fill:#515251;stroke:none;stroke-linecap:butt;stroke-width:0.75}
		.st3 {fill:#525352;stroke:none;stroke-linecap:butt;stroke-width:0.75}
		.st4 {fill:#515150;stroke:none;stroke-linecap:butt;stroke-width:0.75}
		.st5 {fill:none;fill-rule:evenodd;font-size:12px;overflow:visible;stroke-linecap:square;stroke-miterlimit:3}
	]]>
	</style>

	<g v:mID="0" v:index="1" v:groupContext="foregroundPage">
		<title>Page-1</title>
		<v:pageProperties v:drawingScale="0.0393701" v:pageScale="0.0393701" v:drawingUnits="24" v:shadowOffsetX="8.50394"
				v:shadowOffsetY="-8.50394"/>
		<v:layer v:name="symbols" v:index="0"/>
		<g id="group163-1" transform="translate(6.825,-4.6875)" v:mID="163" v:groupContext="group" v:layerMember="0">
			<title>Call Admission Control Service</title>
			<g id="group164-2" v:mID="164" v:groupContext="group" v:layerMember="0">
				<title>Sheet.164</title>
				<g id="group165-3" transform="translate(-2.65787E-13,-3)" v:mID="165" v:groupContext="group" v:layerMember="0">
					<title>Sheet.165</title>
					<g id="shape166-4" v:mID="166" v:groupContext="shape" v:layerMember="0">
						<title>Sheet.166</title>
						<path d="M0 74.25 L0 22.5 C0 19.57 2.33 17.25 5.25 17.25 L26.25 17.25 C29.18 17.25 31.5 19.57 31.5 22.5 L31.5
									 74.25 L0 74.25 Z" class="st1"/>
					</g>
					<g id="shape167-6" v:mID="167" v:groupContext="shape" v:layerMember="0" transform="translate(2.25,-2.25)">
						<title>Sheet.167</title>
						<path d="M24 21.75 L3 21.75 C1.35 21.75 0 23.1 0 24.75 L0 74.25 L27 74.25 L27 24.75 C27 23.1 25.65 21.75
									 24 21.75 ZM21.75 68.25 L5.25 68.25 L5.25 66 L21.75 66 L21.75 68.25 ZM21.75 61.5 L5.25 61.5 L5.25
									 59.25 L21.75 59.25 L21.75 61.5 ZM21.75 30.75 L5.25 30.75 L5.25 28.5 L21.75 28.5 L21.75 30.75
									 Z" class="st2"/>
					</g>
				</g>
				<g id="group168-8" transform="translate(20.325,0)" v:mID="168" v:groupContext="group" v:layerMember="0">
					<title>Sheet.168</title>
					<g id="shape169-9" v:mID="169" v:groupContext="shape" v:layerMember="0">
						<title>Sheet.169</title>
						<path d="M20.85 74.25 C19.65 74.25 18.53 73.5 18.08 72.37 L17.4 70.8 C17.25 70.8 17.02 70.8 16.8 70.8 C16.57
									 70.8 16.35 70.8 16.12 70.8 L15.45 72.37 C15.08 73.5 13.95 74.25 12.75 74.25 C12.38 74.25 11.93
									 74.17 11.63 74.02 L8.77 72.82 C8.03 72.52 7.42 71.92 7.12 71.17 C6.83 70.42 6.83 69.6 7.12 68.85
									 L7.8 67.27 L6.97 66.45 L5.4 67.12 C5.03 67.27 4.65 67.35 4.28 67.35 C3.08 67.35 1.95 66.6 1.5
									 65.47 L0.3 62.62 C-0 61.87 -0 61.05 0.3 60.3 C0.6 59.55 1.2 58.95 1.95 58.65 L3.52 57.97 L3.52
									 56.77 L1.95 56.1 C1.2 55.8 0.6 55.2 0.3 54.45 C-0 53.7 -0 52.87 0.3 52.12 L1.5 49.27 C1.95 48.15
									 3.08 47.4 4.28 47.4 C4.65 47.4 5.03 47.47 5.4 47.62 L6.97 48.3 L7.8 47.47 L7.12 45.9 C6.83 45.15
									 6.83 44.32 7.12 43.57 C7.42 42.82 8.03 42.22 8.77 41.92 L11.63 40.72 C12 40.57 12.38 40.5 12.75
									 40.5 C13.95 40.5 15.08 41.25 15.53 42.37 L16.12 43.87 C16.28 43.87 16.5 43.87 16.73 43.87 C16.95
									 43.87 17.18 43.87 17.4 43.87 L18 42.3 C18.45 41.17 19.57 40.42 20.78 40.42 C21.15 40.42 21.53
									 40.5 21.9 40.65 L24.75 41.85 C25.5 42.15 26.1 42.75 26.4 43.5 C26.7 44.25 26.7 45.07 26.4 45.82
									 L25.72 47.4 L26.55 48.22 L28.13 47.55 C28.5 47.4 28.88 47.32 29.25 47.32 C30.45 47.32 31.58
									 48.07 32.03 49.2 L33.23 52.05 C33.52 52.8 33.52 53.62 33.23 54.37 C32.93 55.12 32.33 55.72 31.58
									 56.02 L30 56.7 L30 57.9 L31.58 58.57 C33.15 59.25 33.83 60.97 33.23 62.55 L32.03 65.4 C31.58
									 66.52 30.45 67.27 29.25 67.27 C28.88 67.27 28.43 67.2 28.05 67.05 L26.48 66.37 L25.65 67.2 L26.33
									 68.77 C26.62 69.52 26.62 70.35 26.33 71.1 C26.03 71.85 25.43 72.45 24.68 72.75 L21.82 73.95
									 C21.68 74.17 21.23 74.25 20.85 74.25 ZM16.8 51.9 C13.8 51.9 11.32 54.37 11.32 57.37 C11.32 60.37
									 13.8 62.85 16.8 62.85 C19.8 62.85 22.27 60.37 22.27 57.37 C22.27 54.37 19.8 51.9 16.8 51.9 Z"
								class="st1"/>
					</g>
					<g id="shape170-11" v:mID="170" v:groupContext="shape" v:layerMember="0" transform="translate(2.025,-2.1)">
						<title>Sheet.170</title>
						<path d="M28.95 62.85 L26.55 61.87 C26.18 61.72 25.88 61.5 25.88 61.42 C25.88 61.35 25.95 60.9 25.95 60.52
									 L25.95 58.57 C25.95 58.12 25.88 57.75 25.88 57.67 C25.88 57.6 26.18 57.37 26.55 57.22 L28.95
									 56.25 C29.32 56.1 29.55 55.65 29.4 55.2 L28.2 52.35 C28.05 51.97 27.6 51.75 27.15 51.9 L24.75
									 52.87 C24.37 53.02 24 53.1 23.92 53.02 C23.85 52.95 23.62 52.65 23.32 52.27 L21.9 50.92 C21.6
									 50.62 21.23 50.4 21.23 50.32 C21.15 50.25 21.23 49.95 21.38 49.5 L22.35 47.1 C22.5 46.72 22.35
									 46.27 21.9 46.05 L19.05 44.85 C18.67 44.7 18.22 44.85 18 45.3 L17.03 47.7 C16.88 48.07 16.65
									 48.37 16.58 48.37 C16.5 48.37 16.05 48.3 15.68 48.22 C15.68 48.22 15.3 48.15 14.7 48.15 C14.1
									 48.15 13.72 48.22 13.72 48.22 C13.27 48.3 12.9 48.3 12.82 48.37 C12.75 48.37 12.52 48.07 12.38
									 47.7 L11.4 45.3 C11.25 44.92 10.8 44.7 10.35 44.85 L7.5 46.05 C7.13 46.2 6.9 46.65 7.05 47.1
									 L8.02 49.5 C8.17 49.87 8.25 50.25 8.17 50.32 C8.1 50.4 7.8 50.62 7.5 50.92 L6.08 52.35 C5.78
									 52.65 5.55 53.02 5.48 53.1 C5.4 53.17 5.1 53.1 4.65 52.95 L2.4 51.82 C2.03 51.67 1.58 51.82
									 1.35 52.27 L0.15 55.12 C-0 55.5 0.15 55.95 0.6 56.17 L3 57.15 C3.37 57.3 3.67 57.52 3.67 57.6
									 C3.67 57.67 3.6 58.12 3.6 58.5 L3.6 60.45 C3.6 60.9 3.67 61.27 3.67 61.35 C3.67 61.42 3.37 61.65
									 3 61.8 L0.6 62.85 C0.23 63 0 63.45 0.15 63.9 L1.35 66.75 C1.5 67.12 1.95 67.35 2.4 67.2 L4.8
									 66.22 C5.18 66.07 5.55 66 5.63 66.07 C5.7 66.15 5.93 66.45 6.23 66.82 L7.65 68.17 C7.95 68.47
									 8.32 68.7 8.4 68.77 C8.47 68.85 8.4 69.22 8.25 69.6 L7.13 71.85 C6.98 72.22 7.13 72.67 7.57
									 72.9 L10.43 74.1 C10.8 74.25 11.25 74.1 11.48 73.65 L12.45 71.25 C12.6 70.87 12.82 70.57 12.9
									 70.57 C12.97 70.57 13.42 70.65 13.8 70.72 C13.8 70.72 14.17 70.8 14.78 70.8 C15.38 70.8 15.75
									 70.72 15.75 70.72 C16.2 70.65 16.58 70.65 16.65 70.57 C16.73 70.57 16.95 70.87 17.1 71.25 L18.07
									 73.65 C18.22 74.02 18.67 74.25 19.12 74.1 L21.98 72.9 C22.35 72.75 22.57 72.3 22.42 71.85 L21.45
									 69.45 C21.3 69.07 21.23 68.7 21.3 68.62 C21.38 68.55 21.68 68.32 22.05 68.02 L23.47 66.6 C23.77
									 66.3 24 65.92 24.07 65.85 C24.15 65.77 24.45 65.85 24.9 66 L27.3 66.97 C27.67 67.12 28.12 66.97
									 28.35 66.52 L29.55 63.67 C29.48 63.45 29.33 63 28.95 62.85 ZM14.78 67.2 C10.5 67.2 7.05 63.75
									 7.05 59.47 C7.05 55.2 10.5 51.75 14.78 51.75 C19.05 51.75 22.5 55.2 22.5 59.47 C22.5 63.75 19.05
									 67.2 14.78 67.2 Z" class="st3"/>
					</g>
				</g>
				<g id="group171-13" transform="translate(19.5,-33.75)" v:mID="171" v:groupContext="group" v:layerMember="0">
					<title>Sheet.171</title>
					<g id="group172-14" v:mID="172" v:groupContext="group" v:layerMember="0">
						<title>Sheet.172</title>
						<g id="shape173-15" v:mID="173" v:groupContext="shape" v:layerMember="0">
							<title>Sheet.173</title>
							<rect x="0" y="44.25" width="34.5" height="30" class="st1"/>
						</g>
						<g id="group174-17" transform="translate(2.25,-2.25)" v:mID="174" v:groupContext="group" v:layerMember="0">
							<title>Sheet.174</title>
							<g id="shape175-18" v:mID="175" v:groupContext="shape" v:layerMember="0">
								<title>Sheet.175</title>
								<rect x="0" y="48.75" width="30" height="25.5" class="st1"/>
							</g>
							<g id="shape176-20" v:mID="176" v:groupContext="shape" v:layerMember="0">
								<title>Sheet.176</title>
								<path d="M28.5 50.25 L28.5 72.75 L1.5 72.75 L1.5 50.25 L28.5 50.25 ZM30 48.75 L0 48.75 L0 74.25 L30
											 74.25 L30 48.75 Z" class="st2"/>
							</g>
						</g>
					</g>
					<g id="shape177-22" v:mID="177" v:groupContext="shape" v:layerMember="0" transform="translate(9,-6.75)">
						<title>Sheet.177</title>
						<path d="M13.88 62.55 L13.88 68.85 L16.5 66.22 L16.35 57.97 L8.03 57.75 L5.4 60.37 L11.7 60.37 L2.63 69.45
									 L2.63 63.15 L0 65.77 L0.15 74.02 L8.48 74.25 L11.1 71.62 L4.8 71.62 L13.88 62.55 Z"
								class="st4"/>
					</g>
				</g>
			</g>
		</g>
	</g>
</svg>
