<?xml version="1.0" encoding="UTF-8" standalone="no"?>
<!DOCTYPE svg PUBLIC "-//W3C//DTD SVG 1.1//EN" "http://www.w3.org/Graphics/SVG/1.1/DTD/svg11.dtd">
<!-- Generated by Microsoft Visio, SVG Export Certificate Authority.svg Page-1 -->
<svg xmlns="http://www.w3.org/2000/svg" xmlns:xlink="http://www.w3.org/1999/xlink" xmlns:ev="http://www.w3.org/2001/xml-events"
		xmlns:v="http://schemas.microsoft.com/visio/2003/SVGExtensions/" width="0.817188in" height="0.984375in"
		viewBox="0 0 58.8375 70.875" xml:space="preserve" color-interpolation-filters="sRGB" class="st5">
	<v:documentProperties v:langID="4108" v:metric="true" v:viewMarkup="false"/>

	<style type="text/css">
	<![CDATA[
		.st1 {fill:#ffffff;stroke:none;stroke-linecap:butt;stroke-width:0.75}
		.st2 {fill:#515050;stroke:none;stroke-linecap:butt;stroke-width:0.75}
		.st3 {fill:#515150;stroke:none;stroke-linecap:butt;stroke-width:0.75}
		.st4 {fill:#515251;stroke:none;stroke-linecap:butt;stroke-width:0.75}
		.st5 {fill:none;fill-rule:evenodd;font-size:12px;overflow:visible;stroke-linecap:square;stroke-miterlimit:3}
	]]>
	</style>

	<g v:mID="0" v:index="1" v:groupContext="foregroundPage">
		<title>Page-1</title>
		<v:pageProperties v:drawingScale="0.0393701" v:pageScale="0.0393701" v:drawingUnits="24" v:shadowOffsetX="8.50394"
				v:shadowOffsetY="-8.50394"/>
		<v:layer v:name="symbols" v:index="0"/>
		<g id="group178-1" transform="translate(8.0625,-1.8375)" v:mID="178" v:groupContext="group" v:layerMember="0">
			<title>Certificate Authority</title>
			<g id="group179-2" transform="translate(-2.3781E-13,-5.7)" v:mID="179" v:groupContext="group" v:layerMember="0">
				<title>Sheet.179</title>
				<g id="shape180-3" v:mID="180" v:groupContext="shape" v:layerMember="0">
					<title>Sheet.180</title>
					<path d="M0 70.87 L0 19.12 C0 16.2 2.33 13.87 5.25 13.87 L26.25 13.87 C29.18 13.87 31.5 16.2 31.5 19.12 L31.5
								 70.87 L0 70.87 Z" class="st1"/>
				</g>
				<g id="shape181-5" v:mID="181" v:groupContext="shape" v:layerMember="0" transform="translate(2.25,-2.25)">
					<title>Sheet.181</title>
					<path d="M24 18.37 L3 18.37 C1.35 18.37 0 19.72 0 21.37 L0 70.87 L27 70.87 L27 21.37 C27 19.72 25.65 18.37 24
								 18.37 ZM21.75 64.87 L5.25 64.87 L5.25 62.62 L21.75 62.62 L21.75 64.87 ZM21.75 58.12 L5.25 58.12
								 L5.25 55.87 L21.75 55.87 L21.75 58.12 ZM21.75 27.37 L5.25 27.37 L5.25 25.12 L21.75 25.12 L21.75
								 27.37 Z" class="st2"/>
				</g>
			</g>
			<g id="group182-7" transform="translate(15.75,0)" v:mID="182" v:groupContext="group" v:layerMember="0">
				<title>Sheet.182</title>
				<g id="shape183-8" v:mID="183" v:groupContext="shape" v:layerMember="0" transform="translate(-1.73861E-13,-5.7)">
					<title>Sheet.183</title>
					<path d="M10.5 46.87 L7.5 46.87 L6.6 46.87 L0 53.47 L0 54.45 L0 57.37 L0 70.87 L20.1 70.87 L30 57.22 L30 46.87
								 L10.5 46.87 Z" class="st1"/>
				</g>
				<g id="group184-10" transform="translate(2.25,0)" v:mID="184" v:groupContext="group" v:layerMember="0">
					<title>Sheet.184</title>
					<g id="shape185-11" v:mID="185" v:groupContext="shape" v:layerMember="0"
							transform="translate(-1.59872E-13,-7.95)">
						<title>Sheet.185</title>
						<path d="M25.5 51.37 L7.5 51.37 L7.5 58.87 L0 58.87 L0 70.87 L16.73 70.87 L25.5 58.8 L25.5 51.37 Z"
								class="st3"/>
					</g>
					<g id="shape186-13" v:mID="186" v:groupContext="shape" v:layerMember="0" transform="translate(12.825,0)">
						<title>Sheet.186</title>
						<path d="M10.65 70.8 L9.23 66.97 L8.18 70.8 L6.38 70.8 L4.5 68.77 L1.2 69.3 L0 67.87 L3.6 61.05 C2.25 59.62
									 1.43 57.75 1.43 55.8 C1.43 51.6 4.8 48.22 9 48.22 C13.2 48.22 16.58 51.67 16.58 55.8 C16.58
									 57.67 15.9 59.4 14.7 60.82 L19.2 67.27 L17.93 68.85 L14.25 68.1 L12.23 70.87 L10.65 70.87 L10.65
									 70.8 Z" class="st1"/>
					</g>
					<g id="shape187-15" v:mID="187" v:groupContext="shape" v:layerMember="0" transform="translate(14.775,-1.65)">
						<title>Sheet.187</title>
						<path d="M10.73 62.25 C12.15 61.12 13.13 59.4 13.13 57.45 C13.13 54.15 10.43 51.45 7.12 51.45 C3.83 51.45
									 1.13 54.15 1.13 57.45 C1.13 59.47 2.1 61.27 3.68 62.4 L0 69.3 L3.15 68.77 L5.17 70.87 L7.2 63.6
									 L9.75 70.65 L11.7 67.95 L15.23 68.77 L10.73 62.25 ZM2.17 57.45 C2.17 54.75 4.35 52.57 7.05 52.57
									 C9.75 52.57 11.92 54.75 11.92 57.45 C11.92 60.15 9.75 62.32 7.05 62.32 C4.35 62.32 2.17 60.15
									 2.17 57.45 Z" class="st3"/>
					</g>
					<g id="shape188-17" v:mID="188" v:groupContext="shape" v:layerMember="0" transform="translate(18.15,-11.4)">
						<title>Sheet.188</title>
						<path d="M3.68 64.27 C5.33 64.27 6.6 65.62 6.6 67.2 C6.6 68.85 5.25 70.12 3.68 70.12 C2.02 70.12 0.75 68.77
									 0.75 67.2 C0.68 65.62 2.02 64.27 3.68 64.27 ZM3.68 63.52 C1.65 63.52 0 65.17 0 67.2 C0 69.22
									 1.65 70.87 3.68 70.87 C5.7 70.87 7.35 69.22 7.35 67.2 C7.35 65.17 5.7 63.52 3.68 63.52 Z"
								class="st4"/>
					</g>
				</g>
				<g id="shape189-19" v:mID="189" v:groupContext="shape" v:layerMember="0" transform="translate(2.25,-21.45)">
					<title>Sheet.189</title>
					<path d="M0 70.12 L0 70.87 L6 70.87 L6 64.87 L5.25 64.87 L0 70.12 Z" class="st3"/>
				</g>
			</g>
		</g>
	</g>
</svg>
