<?xml version="1.0" encoding="UTF-8" standalone="no"?>
<!DOCTYPE svg PUBLIC "-//W3C//DTD SVG 1.1//EN" "http://www.w3.org/Graphics/SVG/1.1/DTD/svg11.dtd">
<!-- Generated by Microsoft Visio, SVG Export Cluster Server  - orange.svg Page-1 -->
<svg xmlns="http://www.w3.org/2000/svg" xmlns:xlink="http://www.w3.org/1999/xlink" xmlns:ev="http://www.w3.org/2001/xml-events"
		xmlns:v="http://schemas.microsoft.com/visio/2003/SVGExtensions/" width="0.9375in" height="1.0625in" viewBox="0 0 67.5 76.5"
		xml:space="preserve" color-interpolation-filters="sRGB" class="st3">
	<v:documentProperties v:langID="4108" v:metric="true" v:viewMarkup="false"/>

	<style type="text/css">
	<![CDATA[
		.st1 {fill:#ffffff;stroke:none;stroke-linecap:butt;stroke-width:0.75}
		.st2 {fill:#da4026;stroke:none;stroke-linecap:butt;stroke-width:0.75}
		.st3 {fill:none;fill-rule:evenodd;font-size:12px;overflow:visible;stroke-linecap:square;stroke-miterlimit:3}
	]]>
	</style>

	<g v:mID="0" v:index="1" v:groupContext="foregroundPage">
		<title>Page-1</title>
		<v:pageProperties v:drawingScale="0.0393701" v:pageScale="0.0393701" v:drawingUnits="24" v:shadowOffsetX="8.50394"
				v:shadowOffsetY="-8.50394"/>
		<v:layer v:name="symbols" v:index="0"/>
		<g id="group211-1" transform="translate(6.9,-6.9375)" v:mID="211" v:groupContext="group" v:layerMember="0">
			<title>Cluster Server  - orange</title>
			<g id="group212-2" v:mID="212" v:groupContext="group" v:layerMember="0">
				<title>Sheet.212</title>
				<g id="group213-3" transform="translate(0,-13.5)" v:mID="213" v:groupContext="group" v:layerMember="0">
					<title>Sheet.213</title>
					<g id="shape214-4" v:mID="214" v:groupContext="shape" v:layerMember="0">
						<title>Sheet.214</title>
						<path d="M0 76.5 L0 31.5 C0 28.57 2.32 26.25 5.25 26.25 L21.75 26.25 C24.68 26.25 27 28.57 27 31.5 L27 76.5
									 L0 76.5 Z" class="st1"/>
					</g>
					<g id="shape215-6" v:mID="215" v:groupContext="shape" v:layerMember="0" transform="translate(2.25,-2.25)">
						<title>Sheet.215</title>
						<path d="M19.5 30.75 L3 30.75 C1.35 30.75 0 32.1 0 33.75 L0 76.5 L22.5 76.5 L22.5 33.75 C22.5 32.1 21.15
									 30.75 19.5 30.75 ZM17.25 70.5 L5.25 70.5 L5.25 68.25 L17.25 68.25 L17.25 70.5 ZM17.25 64.5 L5.25
									 64.5 L5.25 62.25 L17.25 62.25 L17.25 64.5 ZM17.25 39.75 L5.25 39.75 L5.25 37.5 L17.25 37.5 L17.25
									 39.75 Z" class="st2"/>
					</g>
				</g>
				<g id="group216-8" transform="translate(27,-13.5)" v:mID="216" v:groupContext="group" v:layerMember="0">
					<title>Sheet.216</title>
					<g id="shape217-9" v:mID="217" v:groupContext="shape" v:layerMember="0">
						<title>Sheet.217</title>
						<path d="M0 76.5 L0 31.5 C0 28.57 2.32 26.25 5.25 26.25 L21.75 26.25 C24.68 26.25 27 28.57 27 31.5 L27 76.5
									 L0 76.5 Z" class="st1"/>
					</g>
					<g id="shape218-11" v:mID="218" v:groupContext="shape" v:layerMember="0" transform="translate(2.25,-2.25)">
						<title>Sheet.218</title>
						<path d="M19.5 30.75 L3 30.75 C1.35 30.75 0 32.1 0 33.75 L0 76.5 L22.5 76.5 L22.5 33.75 C22.5 32.1 21.15
									 30.75 19.5 30.75 ZM17.25 70.5 L5.25 70.5 L5.25 68.25 L17.25 68.25 L17.25 70.5 ZM17.25 64.5 L5.25
									 64.5 L5.25 62.25 L17.25 62.25 L17.25 64.5 ZM17.25 39.75 L5.25 39.75 L5.25 37.5 L17.25 37.5 L17.25
									 39.75 Z" class="st2"/>
					</g>
				</g>
				<g id="group219-13" transform="translate(13.5,3.12639E-13)" v:mID="219" v:groupContext="group" v:layerMember="0">
					<title>Sheet.219</title>
					<g id="shape220-14" v:mID="220" v:groupContext="shape" v:layerMember="0">
						<title>Sheet.220</title>
						<path d="M0 76.5 L0 31.5 C0 28.57 2.32 26.25 5.25 26.25 L21.75 26.25 C24.68 26.25 27 28.57 27 31.5 L27 76.5
									 L0 76.5 Z" class="st1"/>
					</g>
					<g id="shape221-16" v:mID="221" v:groupContext="shape" v:layerMember="0" transform="translate(2.25,-2.25)">
						<title>Sheet.221</title>
						<path d="M19.5 30.75 L3 30.75 C1.35 30.75 0 32.1 0 33.75 L0 76.5 L22.5 76.5 L22.5 33.75 C22.5 32.1 21.15
									 30.75 19.5 30.75 ZM17.25 70.5 L5.25 70.5 L5.25 68.25 L17.25 68.25 L17.25 70.5 ZM17.25 64.5 L5.25
									 64.5 L5.25 62.25 L17.25 62.25 L17.25 64.5 ZM17.25 39.75 L5.25 39.75 L5.25 37.5 L17.25 37.5 L17.25
									 39.75 Z" class="st2"/>
					</g>
				</g>
			</g>
		</g>
	</g>
</svg>
