<?xml version="1.0" encoding="UTF-8" standalone="no"?>
<!DOCTYPE svg PUBLIC "-//W3C//DTD SVG 1.1//EN" "http://www.w3.org/Graphics/SVG/1.1/DTD/svg11.dtd">
<!-- Generated by Microsoft Visio, SVG Export Cluster Server - ghosted.svg Page-1 -->
<svg xmlns="http://www.w3.org/2000/svg" xmlns:xlink="http://www.w3.org/1999/xlink" xmlns:ev="http://www.w3.org/2001/xml-events"
		xmlns:v="http://schemas.microsoft.com/visio/2003/SVGExtensions/" width="0.921875in" height="1.0625in"
		viewBox="0 0 66.375 76.5" xml:space="preserve" color-interpolation-filters="sRGB" class="st4">
	<v:documentProperties v:langID="4108" v:metric="true" v:viewMarkup="false"/>

	<style type="text/css">
	<![CDATA[
		.st1 {fill:#ffffff;stroke:none;stroke-linecap:butt;stroke-width:0.75}
		.st2 {fill:#9c9c9d;stroke:none;stroke-linecap:butt;stroke-width:0.75}
		.st3 {fill:#cccbcb;stroke:none;stroke-linecap:butt;stroke-width:0.75}
		.st4 {fill:none;fill-rule:evenodd;font-size:12px;overflow:visible;stroke-linecap:square;stroke-miterlimit:3}
	]]>
	</style>

	<g v:mID="0" v:index="1" v:groupContext="foregroundPage">
		<title>Page-1</title>
		<v:pageProperties v:drawingScale="0.0393701" v:pageScale="0.0393701" v:drawingUnits="24" v:shadowOffsetX="8.50394"
				v:shadowOffsetY="-8.50394"/>
		<v:layer v:name="symbols" v:index="0"/>
		<g id="group233-1" transform="translate(6.375,-6.9375)" v:mID="233" v:groupContext="group" v:layerMember="0">
			<title>Cluster Server - ghosted</title>
			<g id="group234-2" v:mID="234" v:groupContext="group" v:layerMember="0">
				<title>Sheet.234</title>
				<g id="group235-3" v:mID="235" v:groupContext="group" v:layerMember="0">
					<title>Sheet.235</title>
					<g id="group236-4" transform="translate(0,-13.5)" v:mID="236" v:groupContext="group" v:layerMember="0">
						<title>Sheet.236</title>
						<g id="shape237-5" v:mID="237" v:groupContext="shape" v:layerMember="0">
							<title>Sheet.237</title>
							<path d="M0 76.5 L0 31.5 C0 28.57 2.32 26.25 5.25 26.25 L21.75 26.25 C24.68 26.25 27 28.57 27 31.5 L27
										 76.5 L0 76.5 Z" class="st1"/>
						</g>
						<g id="shape238-7" v:mID="238" v:groupContext="shape" v:layerMember="0" transform="translate(2.25,-2.25)">
							<title>Sheet.238</title>
							<path d="M19.5 30.75 L3 30.75 C1.35 30.75 0 32.1 0 33.75 L0 76.5 L22.5 76.5 L22.5 33.75 C22.5 32.1 21.15
										 30.75 19.5 30.75 ZM17.25 70.5 L5.25 70.5 L5.25 68.25 L17.25 68.25 L17.25 70.5 ZM17.25 64.5
										 L5.25 64.5 L5.25 62.25 L17.25 62.25 L17.25 64.5 ZM17.25 39.75 L5.25 39.75 L5.25 37.5 L17.25
										 37.5 L17.25 39.75 Z" class="st2"/>
						</g>
					</g>
					<g id="group239-9" transform="translate(27,-13.5)" v:mID="239" v:groupContext="group" v:layerMember="0">
						<title>Sheet.239</title>
						<g id="shape240-10" v:mID="240" v:groupContext="shape" v:layerMember="0">
							<title>Sheet.240</title>
							<path d="M0 76.5 L0 31.5 C0 28.57 2.32 26.25 5.25 26.25 L21.75 26.25 C24.68 26.25 27 28.57 27 31.5 L27
										 76.5 L0 76.5 Z" class="st1"/>
						</g>
						<g id="shape241-12" v:mID="241" v:groupContext="shape" v:layerMember="0" transform="translate(2.25,-2.25)">
							<title>Sheet.241</title>
							<path d="M19.5 30.75 L3 30.75 C1.35 30.75 0 32.1 0 33.75 L0 76.5 L22.5 76.5 L22.5 33.75 C22.5 32.1 21.15
										 30.75 19.5 30.75 ZM17.25 70.5 L5.25 70.5 L5.25 68.25 L17.25 68.25 L17.25 70.5 ZM17.25 64.5
										 L5.25 64.5 L5.25 62.25 L17.25 62.25 L17.25 64.5 ZM17.25 39.75 L5.25 39.75 L5.25 37.5 L17.25
										 37.5 L17.25 39.75 Z" class="st2"/>
						</g>
					</g>
					<g id="group242-14" transform="translate(13.5,3.12639E-13)" v:mID="242" v:groupContext="group"
							v:layerMember="0">
						<title>Sheet.242</title>
						<g id="shape243-15" v:mID="243" v:groupContext="shape" v:layerMember="0">
							<title>Sheet.243</title>
							<path d="M0 76.5 L0 31.5 C0 28.57 2.32 26.25 5.25 26.25 L21.75 26.25 C24.68 26.25 27 28.57 27 31.5 L27
										 76.5 L0 76.5 Z" class="st1"/>
						</g>
						<g id="shape244-17" v:mID="244" v:groupContext="shape" v:layerMember="0" transform="translate(2.25,-2.25)">
							<title>Sheet.244</title>
							<path d="M19.5 30.75 L3 30.75 C1.35 30.75 0 32.1 0 33.75 L0 76.5 L22.5 76.5 L22.5 33.75 C22.5 32.1 21.15
										 30.75 19.5 30.75 ZM17.25 70.5 L5.25 70.5 L5.25 68.25 L17.25 68.25 L17.25 70.5 ZM17.25 64.5
										 L5.25 64.5 L5.25 62.25 L17.25 62.25 L17.25 64.5 ZM17.25 39.75 L5.25 39.75 L5.25 37.5 L17.25
										 37.5 L17.25 39.75 Z" class="st2"/>
						</g>
					</g>
				</g>
				<g id="group245-19" transform="translate(2.25,-2.25)" v:mID="245" v:groupContext="group" v:layerMember="0">
					<title>Sheet.245</title>
					<g id="shape246-20" v:mID="246" v:groupContext="shape" v:layerMember="0"
							transform="translate(-4.89608E-14,-53.85)">
						<title>Sheet.246</title>
						<path d="M5.33 71.1 L3.23 71.1 L0 74.4 L0 76.5 L5.33 71.1 Z" class="st3"/>
					</g>
					<g id="shape247-22" v:mID="247" v:groupContext="shape" v:layerMember="0"
							transform="translate(-4.996E-14,-49.275)">
						<title>Sheet.247</title>
						<path d="M9.83 66.52 L7.73 66.52 L0 74.32 L0 76.5 L9.83 66.52 Z" class="st3"/>
					</g>
					<g id="shape248-24" v:mID="248" v:groupContext="shape" v:layerMember="0" transform="translate(0,-44.775)">
						<title>Sheet.248</title>
						<path d="M5.25 71.02 L5.25 69.07 L0 74.4 L0 76.5 L5.4 71.02 L5.25 71.02 Z" class="st3"/>
					</g>
					<g id="shape249-26" v:mID="249" v:groupContext="shape" v:layerMember="0" transform="translate(5.55,-52.5)">
						<title>Sheet.249</title>
						<path d="M0 76.5 L2.1 76.5 L8.78 69.75 L6.68 69.75 L0 76.5 Z" class="st3"/>
					</g>
					<g id="shape250-28" v:mID="250" v:groupContext="shape" v:layerMember="0" transform="translate(0,-40.275)">
						<title>Sheet.250</title>
						<path d="M9.9 66.52 L7.73 66.52 L0 74.4 L0 76.5 L9.9 66.52 Z" class="st3"/>
					</g>
					<g id="shape251-30" v:mID="251" v:groupContext="shape" v:layerMember="0" transform="translate(9.975,-52.5)">
						<title>Sheet.251</title>
						<path d="M2.1 76.5 L8.78 69.75 L6.68 69.75 L0 76.5 L2.1 76.5 Z" class="st3"/>
					</g>
					<g id="shape252-32" v:mID="252" v:groupContext="shape" v:layerMember="0"
							transform="translate(2.51799E-13,-35.775)">
						<title>Sheet.252</title>
						<path d="M12.22 62.02 L0 74.4 L0 76.5 L14.4 62.02 L12.22 62.02 Z" class="st3"/>
					</g>
					<g id="shape253-34" v:mID="253" v:groupContext="shape" v:layerMember="0" transform="translate(14.475,-52.5)">
						<title>Sheet.253</title>
						<path d="M2.1 76.5 L7.5 71.1 C7.2 70.65 6.82 70.35 6.37 70.12 L0 76.5 L2.1 76.5 Z" class="st3"/>
					</g>
					<g id="shape254-36" v:mID="254" v:groupContext="shape" v:layerMember="0"
							transform="translate(2.47802E-13,-31.275)">
						<title>Sheet.254</title>
						<path d="M11.25 65.17 L11.25 65.02 C11.25 63.97 11.55 63.07 12.07 62.25 L0 74.4 L0 76.5 L11.25 65.17 Z"
								class="st3"/>
					</g>
					<g id="shape255-38" v:mID="255" v:groupContext="shape" v:layerMember="0" transform="translate(13.65,-47.175)">
						<title>Sheet.255</title>
						<path d="M8.85 67.57 L3.6 72.9 L3.6 73.42 L3.07 73.42 L0 76.5 C0.83 75.97 1.8 75.67 2.85 75.67 L2.93 75.67
									 L8.85 69.67 L8.85 67.57 Z" class="st3"/>
					</g>
					<g id="shape256-40" v:mID="256" v:groupContext="shape" v:layerMember="0" transform="translate(13.5,-40.35)">
						<title>Sheet.256</title>
						<path d="M3.23 71.1 L0 74.4 L0 76.5 L5.33 71.1 L3.23 71.1 Z" class="st3"/>
					</g>
					<g id="shape257-42" v:mID="257" v:groupContext="shape" v:layerMember="0" transform="translate(27,-53.925)">
						<title>Sheet.257</title>
						<path d="M0 74.32 L0 76.5 L5.25 71.17 L3.15 71.17 L0 74.32 Z" class="st3"/>
					</g>
					<g id="shape258-44" v:mID="258" v:groupContext="shape" v:layerMember="0" transform="translate(18.975,-48)">
						<title>Sheet.258</title>
						<path d="M0 76.5 L2.1 76.5 L3.53 75.07 L3.53 72.97 L0 76.5 Z" class="st3"/>
					</g>
					<g id="shape259-46" v:mID="259" v:groupContext="shape" v:layerMember="0"
							transform="translate(-2.47802E-13,-26.775)">
						<title>Sheet.259</title>
						<path d="M11.25 63.07 L0 74.4 L0 76.5 L11.25 65.17 L11.25 63.07 Z" class="st3"/>
					</g>
					<g id="shape260-48" v:mID="260" v:groupContext="shape" v:layerMember="0" transform="translate(13.5,-35.85)">
						<title>Sheet.260</title>
						<path d="M9.83 66.6 L7.73 66.6 L0 74.4 L0 76.5 L9.83 66.6 Z" class="st3"/>
					</g>
					<g id="shape261-50" v:mID="261" v:groupContext="shape" v:layerMember="0" transform="translate(27,-49.425)">
						<title>Sheet.261</title>
						<path d="M0 76.5 L9.75 66.67 L7.58 66.67 L0 74.32 L0 76.5 Z" class="st3"/>
					</g>
					<g id="shape262-52" v:mID="262" v:groupContext="shape" v:layerMember="0"
							transform="translate(-2.47802E-13,-22.275)">
						<title>Sheet.262</title>
						<path d="M5.25 71.25 L5.25 71.02 L5.48 71.02 L11.25 65.17 L11.25 63.07 L0 74.4 L0 76.5 L5.25 71.25 Z"
								class="st3"/>
					</g>
					<g id="shape263-54" v:mID="263" v:groupContext="shape" v:layerMember="0" transform="translate(18.975,-39)">
						<title>Sheet.263</title>
						<path d="M0 76.5 L2.18 76.5 L8.85 69.75 L6.75 69.75 L0 76.5 Z" class="st3"/>
					</g>
					<g id="shape264-56" v:mID="264" v:groupContext="shape" v:layerMember="0" transform="translate(32.4,-52.5)">
						<title>Sheet.264</title>
						<path d="M0 76.5 L2.1 76.5 L8.85 69.75 L6.75 69.75 L0 76.5 Z" class="st3"/>
					</g>
					<g id="shape265-58" v:mID="265" v:groupContext="shape" v:layerMember="0" transform="translate(27.975,-48)">
						<title>Sheet.265</title>
						<path d="M4.27 72.15 L0 76.5 L2.1 76.5 L4.35 74.25 L4.27 74.25 L4.27 72.15 Z" class="st3"/>
					</g>
					<g id="shape266-60" v:mID="266" v:groupContext="shape" v:layerMember="0" transform="translate(7.8,-27.75)">
						<title>Sheet.266</title>
						<path d="M2.18 76.5 L3.45 75.22 L3.45 73.05 L0 76.5 L2.18 76.5 Z" class="st3"/>
					</g>
					<g id="shape267-62" v:mID="267" v:groupContext="shape" v:layerMember="0"
							transform="translate(-9.94205E-14,-17.7)">
						<title>Sheet.267</title>
						<path d="M0 76.5 L7.73 68.7 L5.63 68.7 L0 74.32 L0 76.5 Z" class="st3"/>
					</g>
					<g id="shape268-64" v:mID="268" v:groupContext="shape" v:layerMember="0" transform="translate(13.5,-31.35)">
						<title>Sheet.268</title>
						<path d="M5.4 71.1 L5.25 71.1 L5.25 69.07 L0 74.4 L0 76.5 L5.4 71.1 Z" class="st3"/>
					</g>
					<g id="shape269-66" v:mID="269" v:groupContext="shape" v:layerMember="0"
							transform="translate(-9.89209E-14,-13.5)">
						<title>Sheet.269</title>
						<path d="M5.25 70.5 L5.25 69.37 L0 74.62 L0 76.5 L0.3 76.5 L6.23 70.5 L5.25 70.5 Z" class="st3"/>
					</g>
					<g id="shape270-68" v:mID="270" v:groupContext="shape" v:layerMember="0" transform="translate(36.9,-52.5)">
						<title>Sheet.270</title>
						<path d="M0 76.5 L2.1 76.5 L8.85 69.75 L6.75 69.75 L0 76.5 Z" class="st3"/>
					</g>
					<g id="shape271-70" v:mID="271" v:groupContext="shape" v:layerMember="0" transform="translate(23.475,-39)">
						<title>Sheet.271</title>
						<path d="M6.75 69.75 L0 76.5 L2.18 76.5 L8.85 69.75 L6.75 69.75 Z" class="st3"/>
					</g>
					<g id="shape272-72" v:mID="272" v:groupContext="shape" v:layerMember="0" transform="translate(32.475,-47.85)">
						<title>Sheet.272</title>
						<path d="M0 76.35 L0.53 76.35 C0.98 76.35 1.5 76.42 1.87 76.5 L4.27 74.1 L2.17 74.1 L0 76.35 Z" class="st3"/>
					</g>
					<g id="shape273-74" v:mID="273" v:groupContext="shape" v:layerMember="0" transform="translate(6.375,-21.75)">
						<title>Sheet.273</title>
						<path d="M4.87 72.75 L3.67 72.75 L0 76.5 L2.1 76.5 L4.87 73.72 L4.87 72.75 Z" class="st3"/>
					</g>
					<g id="shape274-76" v:mID="274" v:groupContext="shape" v:layerMember="0" transform="translate(13.5,-26.775)">
						<title>Sheet.274</title>
						<path d="M0 76.5 L9.9 66.52 L7.8 66.52 L0 74.32 L0 76.5 Z" class="st3"/>
					</g>
					<g id="shape275-78" v:mID="275" v:groupContext="shape" v:layerMember="0" transform="translate(41.4,-52.5)">
						<title>Sheet.275</title>
						<path d="M2.1 76.5 L7.57 71.02 C7.27 70.57 6.9 70.27 6.45 70.05 L0 76.5 L2.1 76.5 Z" class="st3"/>
					</g>
					<g id="shape276-80" v:mID="276" v:groupContext="shape" v:layerMember="0" transform="translate(10.8,-21.75)">
						<title>Sheet.276</title>
						<path d="M0.45 76.05 L0 76.5 L0.45 76.5 L0.45 76.05 Z" class="st3"/>
					</g>
					<g id="shape277-82" v:mID="277" v:groupContext="shape" v:layerMember="0" transform="translate(13.5,-22.275)">
						<title>Sheet.277</title>
						<path d="M12.23 62.02 L0 74.32 L0 76.5 L14.33 62.02 L12.23 62.02 Z" class="st3"/>
					</g>
					<g id="shape278-84" v:mID="278" v:groupContext="shape" v:layerMember="0" transform="translate(27.975,-39)">
						<title>Sheet.278</title>
						<path d="M6.37 70.05 L0 76.5 L2.1 76.5 L7.5 71.1 C7.2 70.65 6.82 70.35 6.37 70.05 Z" class="st3"/>
					</g>
					<g id="shape279-86" v:mID="279" v:groupContext="shape" v:layerMember="0" transform="translate(36,-46.05)">
						<title>Sheet.279</title>
						<path d="M1.13 76.5 L5.25 72.3 L3.15 72.3 L0 75.45 C0.45 75.75 0.75 76.12 1.13 76.5 Z" class="st3"/>
					</g>
					<g id="shape280-88" v:mID="280" v:groupContext="shape" v:layerMember="0" transform="translate(2.625,-13.5)">
						<title>Sheet.280</title>
						<path d="M8.1 70.5 L6 70.5 L0 76.5 L2.1 76.5 L8.1 70.5 Z" class="st3"/>
					</g>
					<g id="shape281-90" v:mID="281" v:groupContext="shape" v:layerMember="0" transform="translate(7.125,-13.5)">
						<title>Sheet.281</title>
						<path d="M2.1 76.5 L4.12 74.47 L4.12 72.37 L0 76.5 L2.1 76.5 Z" class="st3"/>
					</g>
					<g id="shape282-92" v:mID="282" v:groupContext="shape" v:layerMember="0" transform="translate(13.5,-17.775)">
						<title>Sheet.282</title>
						<path d="M0 76.5 L22.5 53.85 L22.5 51.75 L17.25 57 L17.25 57.52 L16.72 57.52 L0 74.32 L0 76.5 Z"
								class="st3"/>
					</g>
					<g id="shape283-94" v:mID="283" v:groupContext="shape" v:layerMember="0" transform="translate(37.95,-42.675)">
						<title>Sheet.283</title>
						<path d="M6.3 68.32 L6.3 68.92 L5.7 68.92 L0 74.7 C0.22 75.22 0.3 75.82 0.3 76.42 L0.3 76.5 L11.55 65.17
									 L11.55 63.07 L6.3 68.32 Z" class="st3"/>
					</g>
					<g id="shape284-96" v:mID="284" v:groupContext="shape" v:layerMember="0" transform="translate(13.5,-13.275)">
						<title>Sheet.284</title>
						<path d="M22.5 51.75 L0 74.32 L0 76.5 L22.5 53.85 L22.5 51.75 Z" class="st3"/>
					</g>
					<g id="shape285-98" v:mID="285" v:groupContext="shape" v:layerMember="0" transform="translate(38.25,-38.175)">
						<title>Sheet.285</title>
						<path d="M11.25 63.07 L0 74.4 L0 76.5 L11.25 65.17 L11.25 63.07 Z" class="st3"/>
					</g>
					<g id="shape286-100" v:mID="286" v:groupContext="shape" v:layerMember="0" transform="translate(13.5,-8.775)">
						<title>Sheet.286</title>
						<path d="M5.25 71.17 L5.25 71.02 L5.4 71.02 L22.5 53.85 L22.5 51.75 L0 74.32 L0 76.5 L5.25 71.17 Z"
								class="st3"/>
					</g>
					<g id="shape287-102" v:mID="287" v:groupContext="shape" v:layerMember="0" transform="translate(38.25,-33.675)">
						<title>Sheet.287</title>
						<path d="M11.25 65.17 L11.25 63.07 L0 74.4 L0 76.5 L11.25 65.17 Z" class="st3"/>
					</g>
					<g id="shape288-104" v:mID="288" v:groupContext="shape" v:layerMember="0" transform="translate(13.5,-3.975)">
						<title>Sheet.288</title>
						<path d="M5.85 68.47 L0 74.4 L0 76.5 L7.95 68.47 L5.85 68.47 Z" class="st3"/>
					</g>
					<g id="shape289-106" v:mID="289" v:groupContext="shape" v:layerMember="0" transform="translate(38.25,-29.025)">
						<title>Sheet.289</title>
						<path d="M0 74.4 L0 76.5 L11.25 65.1 L11.25 63 L0 74.4 Z" class="st3"/>
					</g>
					<g id="shape290-108" v:mID="290" v:groupContext="shape" v:layerMember="0" transform="translate(21.525,-14.25)">
						<title>Sheet.290</title>
						<path d="M0 76.5 L2.17 76.5 L14.47 64.05 L14.47 61.87 L0 76.5 Z" class="st3"/>
					</g>
					<g id="shape291-110" v:mID="291" v:groupContext="shape" v:layerMember="0" transform="translate(20.1,-8.25)">
						<title>Sheet.291</title>
						<path d="M5.78 72.75 L3.68 72.75 L0 76.5 L2.1 76.5 L5.78 72.75 Z" class="st3"/>
					</g>
					<g id="shape292-112" v:mID="292" v:groupContext="shape" v:layerMember="0" transform="translate(38.25,-24.525)">
						<title>Sheet.292</title>
						<path d="M0 76.5 L0.98 75.52 L0 75.52 L0 76.5 Z" class="st3"/>
					</g>
					<g id="shape293-114" v:mID="293" v:groupContext="shape" v:layerMember="0" transform="translate(26.025,-14.25)">
						<title>Sheet.293</title>
						<path d="M0 76.5 L2.1 76.5 L9.97 68.55 L9.97 66.37 L0 76.5 Z" class="st3"/>
					</g>
					<g id="shape294-116" v:mID="294" v:groupContext="shape" v:layerMember="0" transform="translate(39.375,-27.75)">
						<title>Sheet.294</title>
						<path d="M2.1 76.5 L10.12 68.32 L10.12 66.22 L0 76.5 L2.1 76.5 Z" class="st3"/>
					</g>
					<g id="shape295-118" v:mID="295" v:groupContext="shape" v:layerMember="0"
							transform="translate(13.5,-7.10543E-14)">
						<title>Sheet.295</title>
						<path d="M5.25 70.5 L5.25 69.6 L0 74.92 L0 76.5 L0.52 76.5 L6.45 70.5 L5.25 70.5 Z" class="st3"/>
					</g>
					<g id="shape296-120" v:mID="296" v:groupContext="shape" v:layerMember="0" transform="translate(30.525,-12.375)">
						<title>Sheet.296</title>
						<path d="M0.22 76.5 L5.47 71.17 L5.47 69.07 L0 74.62 L0.22 74.62 L0.22 76.5 Z" class="st3"/>
					</g>
					<g id="shape297-122" v:mID="297" v:groupContext="shape" v:layerMember="0" transform="translate(38.25,-21.75)">
						<title>Sheet.297</title>
						<path d="M3.37 72.75 L0 76.12 L0 76.5 L1.72 76.5 L5.47 72.75 L3.37 72.75 Z" class="st3"/>
					</g>
					<g id="shape298-124" v:mID="298" v:groupContext="shape" v:layerMember="0" transform="translate(24.6,-8.25)">
						<title>Sheet.298</title>
						<path d="M5.78 72.75 L3.68 72.75 L0 76.5 L2.1 76.5 L5.78 72.75 Z" class="st3"/>
					</g>
					<g id="shape299-126" v:mID="299" v:groupContext="shape" v:layerMember="0" transform="translate(16.425,0)">
						<title>Sheet.299</title>
						<path d="M8.02 70.5 L5.92 70.5 L0 76.5 L2.1 76.5 L8.02 70.5 Z" class="st3"/>
					</g>
					<g id="shape300-128" v:mID="300" v:groupContext="shape" v:layerMember="0" transform="translate(43.8,-26.025)">
						<title>Sheet.300</title>
						<path d="M0 74.77 L0.45 74.77 L0.45 76.5 L5.7 71.17 L5.7 69 L0 74.77 Z" class="st3"/>
					</g>
					<g id="shape301-130" v:mID="301" v:groupContext="shape" v:layerMember="0" transform="translate(42.375,-21.525)">
						<title>Sheet.301</title>
						<path d="M0 76.27 L1.87 76.27 L1.87 76.5 L7.12 71.17 L7.12 69.07 L0 76.27 Z" class="st3"/>
					</g>
					<g id="shape302-132" v:mID="302" v:groupContext="shape" v:layerMember="0" transform="translate(21,0)">
						<title>Sheet.302</title>
						<path d="M7.95 70.5 L5.85 70.5 L0 76.5 L2.1 76.5 L7.95 70.5 Z" class="st3"/>
					</g>
					<g id="shape303-134" v:mID="303" v:groupContext="shape" v:layerMember="0" transform="translate(29.1,-7.8)">
						<title>Sheet.303</title>
						<path d="M1.65 76.5 L6.9 71.17 L6.9 69 L0 76.05 L1.65 76.05 L1.65 76.5 Z" class="st3"/>
					</g>
					<g id="shape304-136" v:mID="304" v:groupContext="shape" v:layerMember="0" transform="translate(38.25,-15.45)">
						<title>Sheet.304</title>
						<path d="M1.95 72.45 L0 74.4 L0 76.5 L4.05 72.45 L1.95 72.45 Z" class="st3"/>
					</g>
					<g id="shape305-138" v:mID="305" v:groupContext="shape" v:layerMember="0"
							transform="translate(25.5,5.68434E-14)">
						<title>Sheet.305</title>
						<path d="M10.5 67.95 L10.5 65.85 L0 76.5 L2.1 76.5 L10.5 67.95 Z" class="st3"/>
					</g>
					<g id="shape306-140" v:mID="306" v:groupContext="shape" v:layerMember="0" transform="translate(38.775,-13.5)">
						<title>Sheet.306</title>
						<path d="M0 76.5 L2.1 76.5 L10.73 67.72 L10.73 65.55 L0 76.5 Z" class="st3"/>
					</g>
					<g id="shape307-142" v:mID="307" v:groupContext="shape" v:layerMember="0" transform="translate(43.2,-13.5)">
						<title>Sheet.307</title>
						<path d="M2.1 76.5 L6.3 72.22 L6.3 70.05 L0 76.5 L2.1 76.5 Z" class="st3"/>
					</g>
					<g id="shape308-144" v:mID="308" v:groupContext="shape" v:layerMember="0" transform="translate(29.925,0)">
						<title>Sheet.308</title>
						<path d="M6.07 72.45 L6.07 70.35 L0 76.5 L2.1 76.5 L6.07 72.45 Z" class="st3"/>
					</g>
					<g id="shape309-146" v:mID="309" v:groupContext="shape" v:layerMember="0" transform="translate(47.625,-13.5)">
						<title>Sheet.309</title>
						<path d="M1.88 74.62 L0 76.5 L1.88 76.5 L1.88 74.62 Z" class="st3"/>
					</g>
					<g id="shape310-148" v:mID="310" v:groupContext="shape" v:layerMember="0"
							transform="translate(34.5,2.84217E-14)">
						<title>Sheet.310</title>
						<path d="M0 76.5 L1.5 76.5 L1.5 74.92 L0 76.5 Z" class="st3"/>
					</g>
				</g>
			</g>
		</g>
	</g>
</svg>
