<?xml version="1.0" encoding="UTF-8" standalone="no"?>
<!DOCTYPE svg PUBLIC "-//W3C//DTD SVG 1.1//EN" "http://www.w3.org/Graphics/SVG/1.1/DTD/svg11.dtd">
<!-- Generated by Microsoft Visio, SVG Export Cluster Server.svg Page-1 -->
<svg xmlns="http://www.w3.org/2000/svg" xmlns:xlink="http://www.w3.org/1999/xlink" xmlns:ev="http://www.w3.org/2001/xml-events"
		xmlns:v="http://schemas.microsoft.com/visio/2003/SVGExtensions/" width="0.9375in" height="1.0625in" viewBox="0 0 67.5 76.5"
		xml:space="preserve" color-interpolation-filters="sRGB" class="st3">
	<v:documentProperties v:langID="4108" v:metric="true" v:viewMarkup="false"/>

	<style type="text/css">
	<![CDATA[
		.st1 {fill:#ffffff;stroke:none;stroke-linecap:butt;stroke-width:0.75}
		.st2 {fill:#515050;stroke:none;stroke-linecap:butt;stroke-width:0.75}
		.st3 {fill:none;fill-rule:evenodd;font-size:12px;overflow:visible;stroke-linecap:square;stroke-miterlimit:3}
	]]>
	</style>

	<g v:mID="0" v:index="1" v:groupContext="foregroundPage">
		<title>Page-1</title>
		<v:pageProperties v:drawingScale="0.0393701" v:pageScale="0.0393701" v:drawingUnits="24" v:shadowOffsetX="8.50394"
				v:shadowOffsetY="-8.50394"/>
		<v:layer v:name="symbols" v:index="0"/>
		<g id="group190-1" transform="translate(6.6,-6.9375)" v:mID="190" v:groupContext="group" v:layerMember="0">
			<title>Cluster Server</title>
			<g id="group191-2" transform="translate(0,-13.5)" v:mID="191" v:groupContext="group" v:layerMember="0">
				<title>Sheet.191</title>
				<g id="shape192-3" v:mID="192" v:groupContext="shape" v:layerMember="0">
					<title>Sheet.192</title>
					<path d="M0 76.5 L0 31.5 C0 28.57 2.32 26.25 5.25 26.25 L21.75 26.25 C24.68 26.25 27 28.57 27 31.5 L27 76.5 L0
								 76.5 Z" class="st1"/>
				</g>
				<g id="shape193-5" v:mID="193" v:groupContext="shape" v:layerMember="0" transform="translate(2.25,-2.25)">
					<title>Sheet.193</title>
					<path d="M19.5 30.75 L3 30.75 C1.35 30.75 0 32.1 0 33.75 L0 76.5 L22.5 76.5 L22.5 33.75 C22.5 32.1 21.15 30.75
								 19.5 30.75 ZM17.25 70.5 L5.25 70.5 L5.25 68.25 L17.25 68.25 L17.25 70.5 ZM17.25 64.5 L5.25 64.5
								 L5.25 62.25 L17.25 62.25 L17.25 64.5 ZM17.25 39.75 L5.25 39.75 L5.25 37.5 L17.25 37.5 L17.25 39.75
								 Z" class="st2"/>
				</g>
			</g>
			<g id="group194-7" transform="translate(27,-13.5)" v:mID="194" v:groupContext="group" v:layerMember="0">
				<title>Sheet.194</title>
				<g id="shape195-8" v:mID="195" v:groupContext="shape" v:layerMember="0">
					<title>Sheet.195</title>
					<path d="M0 76.5 L0 31.5 C0 28.57 2.32 26.25 5.25 26.25 L21.75 26.25 C24.68 26.25 27 28.57 27 31.5 L27 76.5 L0
								 76.5 Z" class="st1"/>
				</g>
				<g id="shape196-10" v:mID="196" v:groupContext="shape" v:layerMember="0" transform="translate(2.25,-2.25)">
					<title>Sheet.196</title>
					<path d="M19.5 30.75 L3 30.75 C1.35 30.75 0 32.1 0 33.75 L0 76.5 L22.5 76.5 L22.5 33.75 C22.5 32.1 21.15 30.75
								 19.5 30.75 ZM17.25 70.5 L5.25 70.5 L5.25 68.25 L17.25 68.25 L17.25 70.5 ZM17.25 64.5 L5.25 64.5
								 L5.25 62.25 L17.25 62.25 L17.25 64.5 ZM17.25 39.75 L5.25 39.75 L5.25 37.5 L17.25 37.5 L17.25 39.75
								 Z" class="st2"/>
				</g>
			</g>
			<g id="group197-12" transform="translate(13.5,3.12639E-13)" v:mID="197" v:groupContext="group" v:layerMember="0">
				<title>Sheet.197</title>
				<g id="shape198-13" v:mID="198" v:groupContext="shape" v:layerMember="0">
					<title>Sheet.198</title>
					<path d="M0 76.5 L0 31.5 C0 28.57 2.32 26.25 5.25 26.25 L21.75 26.25 C24.68 26.25 27 28.57 27 31.5 L27 76.5 L0
								 76.5 Z" class="st1"/>
				</g>
				<g id="shape199-15" v:mID="199" v:groupContext="shape" v:layerMember="0" transform="translate(2.25,-2.25)">
					<title>Sheet.199</title>
					<path d="M19.5 30.75 L3 30.75 C1.35 30.75 0 32.1 0 33.75 L0 76.5 L22.5 76.5 L22.5 33.75 C22.5 32.1 21.15 30.75
								 19.5 30.75 ZM17.25 70.5 L5.25 70.5 L5.25 68.25 L17.25 68.25 L17.25 70.5 ZM17.25 64.5 L5.25 64.5
								 L5.25 62.25 L17.25 62.25 L17.25 64.5 ZM17.25 39.75 L5.25 39.75 L5.25 37.5 L17.25 37.5 L17.25 39.75
								 Z" class="st2"/>
				</g>
			</g>
		</g>
	</g>
</svg>
