<?xml version="1.0" encoding="UTF-8" standalone="no"?>
<!DOCTYPE svg PUBLIC "-//W3C//DTD SVG 1.1//EN" "http://www.w3.org/Graphics/SVG/1.1/DTD/svg11.dtd">
<!-- Generated by Microsoft Visio, SVG Export Database Server - orange.svg Page-1 -->
<svg xmlns="http://www.w3.org/2000/svg" xmlns:xlink="http://www.w3.org/1999/xlink" xmlns:ev="http://www.w3.org/2001/xml-events"
		xmlns:v="http://schemas.microsoft.com/visio/2003/SVGExtensions/" width="0.828125in" height="0.984375in"
		viewBox="0 0 59.625 70.875" xml:space="preserve" color-interpolation-filters="sRGB" class="st4">
	<v:documentProperties v:langID="4108" v:metric="true" v:viewMarkup="false"/>

	<style type="text/css">
	<![CDATA[
		.st1 {fill:#ffffff;stroke:none;stroke-linecap:butt;stroke-width:0.75}
		.st2 {fill:#505150;stroke:none;stroke-linecap:butt;stroke-width:0.75}
		.st3 {fill:#da4026;stroke:none;stroke-linecap:butt;stroke-width:0.75}
		.st4 {fill:none;fill-rule:evenodd;font-size:12px;overflow:visible;stroke-linecap:square;stroke-miterlimit:3}
	]]>
	</style>

	<g v:mID="0" v:index="1" v:groupContext="foregroundPage">
		<title>Page-1</title>
		<v:pageProperties v:drawingScale="0.0393701" v:pageScale="0.0393701" v:drawingUnits="24" v:shadowOffsetX="8.50394"
				v:shadowOffsetY="-8.50394"/>
		<v:layer v:name="symbols" v:index="0"/>
		<g id="group328-1" transform="translate(6.975,-3.9375)" v:mID="328" v:groupContext="group" v:layerMember="0">
			<title>Database Server - orange</title>
			<g id="group329-2" v:mID="329" v:groupContext="group" v:layerMember="0">
				<title>Sheet.329</title>
				<g id="group330-3" transform="translate(2.01839E-13,-3.75)" v:mID="330" v:groupContext="group" v:layerMember="0">
					<title>Sheet.330</title>
					<g id="shape331-4" v:mID="331" v:groupContext="shape" v:layerMember="0">
						<title>Sheet.331</title>
						<path d="M0 70.88 L0 19.13 C0 16.2 2.33 13.88 5.25 13.88 L26.25 13.88 C29.18 13.88 31.5 16.2 31.5 19.13 L31.5
									 70.88 L0 70.88 Z" class="st1"/>
					</g>
					<g id="shape332-6" v:mID="332" v:groupContext="shape" v:layerMember="0" transform="translate(2.25,-2.25)">
						<title>Sheet.332</title>
						<path d="M24 18.38 L3 18.38 C1.35 18.38 0 19.73 0 21.38 L0 70.88 L27 70.88 L27 21.38 C27 19.73 25.65 18.38
									 24 18.38 ZM21.75 64.88 L5.25 64.88 L5.25 62.63 L21.75 62.63 L21.75 64.88 ZM21.75 58.13 L5.25
									 58.13 L5.25 55.88 L21.75 55.88 L21.75 58.13 ZM21.75 27.38 L5.25 27.38 L5.25 25.13 L21.75 25.13
									 L21.75 27.38 Z" class="st2"/>
					</g>
				</g>
				<g id="group333-8" transform="translate(21,0)" v:mID="333" v:groupContext="group" v:layerMember="0">
					<title>Sheet.333</title>
					<g id="shape334-9" v:mID="334" v:groupContext="shape" v:layerMember="0">
						<title>Sheet.334</title>
						<path d="M26.17 44.25 C26.17 40.05 19.13 38.55 13.05 38.55 C6.97 38.55 0 40.05 0 44.25 L0 44.93 L0 63.6 L0
									 64.58 L0 64.65 C0.38 68.63 5.03 70.88 13.05 70.88 C21.15 70.88 25.8 68.7 26.1 64.65 L26.1 64.58
									 L26.1 63.53 L26.1 45.15 L26.17 44.25 Z" class="st1"/>
					</g>
					<g id="shape335-11" v:mID="335" v:groupContext="shape" v:layerMember="0" transform="translate(2.25,-2.325)">
						<title>Sheet.335</title>
						<path d="M10.87 51.53 C6.6 51.53 2.25 50.78 0 49.13 L0 65.85 L0 66.75 C0.37 70.58 8.1 70.88 10.8 70.88 C13.5
									 70.88 21.3 70.58 21.6 66.75 L21.6 65.85 L21.6 49.2 C19.5 50.78 15.15 51.53 10.87 51.53 Z"
								class="st3"/>
					</g>
					<g id="shape336-13" v:mID="336" v:groupContext="shape" v:layerMember="0" transform="translate(2.25,-23.175)">
						<title>Sheet.336</title>
						<ellipse cx="10.875" cy="67.425" rx="10.875" ry="3.45" class="st3"/>
					</g>
				</g>
			</g>
		</g>
	</g>
</svg>
