<?xml version="1.0" encoding="UTF-8" standalone="no"?>
<!DOCTYPE svg PUBLIC "-//W3C//DTD SVG 1.1//EN" "http://www.w3.org/Graphics/SVG/1.1/DTD/svg11.dtd">
<!-- Generated by Microsoft Visio, SVG Export DirSync Server.svg Page-1 -->
<svg xmlns="http://www.w3.org/2000/svg" xmlns:xlink="http://www.w3.org/1999/xlink" xmlns:ev="http://www.w3.org/2001/xml-events"
		xmlns:v="http://schemas.microsoft.com/visio/2003/SVGExtensions/" width="0.84375in" height="0.96875in"
		viewBox="0 0 60.75 69.75" xml:space="preserve" color-interpolation-filters="sRGB" class="st5">
	<v:documentProperties v:langID="4108" v:metric="true" v:viewMarkup="false"/>

	<style type="text/css">
	<![CDATA[
		.st1 {fill:#ffffff;stroke:none;stroke-linecap:butt;stroke-width:0.75}
		.st2 {fill:#515050;stroke:none;stroke-linecap:butt;stroke-width:0.75}
		.st3 {fill:#ffffff}
		.st4 {stroke:none;stroke-linecap:butt;stroke-width:0.75}
		.st5 {fill:none;fill-rule:evenodd;font-size:12px;overflow:visible;stroke-linecap:square;stroke-miterlimit:3}
	]]>
	</style>

	<g v:mID="0" v:index="1" v:groupContext="foregroundPage">
		<title>Page-1</title>
		<v:pageProperties v:drawingScale="0.0393701" v:pageScale="0.0393701" v:drawingUnits="24" v:shadowOffsetX="8.50394"
				v:shadowOffsetY="-8.50394"/>
		<v:layer v:name="symbols" v:index="0"/>
		<g id="group405-1" transform="translate(6.6,-2.8125)" v:mID="405" v:groupContext="group" v:layerMember="0">
			<title>DirSync Server</title>
			<g id="group406-2" transform="translate(2.59792E-13,-3.75)" v:mID="406" v:groupContext="group" v:layerMember="0">
				<title>Sheet.406</title>
				<g id="shape407-3" v:mID="407" v:groupContext="shape" v:layerMember="0">
					<title>Sheet.407</title>
					<path d="M0 69.75 L0 18 C-0 15.08 2.32 12.75 5.25 12.75 L26.25 12.75 C29.17 12.75 31.5 15.08 31.5 18 L31.5 69.75
								 L0 69.75 Z" class="st1"/>
				</g>
				<g id="shape408-5" v:mID="408" v:groupContext="shape" v:layerMember="0" transform="translate(2.25,-2.25)">
					<title>Sheet.408</title>
					<path d="M24 17.25 L3 17.25 C1.35 17.25 0 18.6 0 20.25 L0 69.75 L27 69.75 L27 20.25 C27 18.6 25.65 17.25 24 17.25
								 ZM21.75 63.75 L5.25 63.75 L5.25 61.5 L21.75 61.5 L21.75 63.75 ZM21.75 57 L5.25 57 L5.25 54.75 L21.75
								 54.75 L21.75 57 ZM21.75 26.25 L5.25 26.25 L5.25 24 L21.75 24 L21.75 26.25 Z" class="st2"/>
				</g>
			</g>
			<g id="group409-7" transform="translate(19.5,0)" v:mID="409" v:groupContext="group" v:layerMember="0">
				<title>Sheet.409</title>
				<g id="group410-8" v:mID="410" v:groupContext="group" v:layerMember="0">
					<title>Sheet.410</title>
					<g id="shape411-9" v:mID="411" v:groupContext="shape" v:layerMember="0">
						<title>Sheet.411</title>
						<path d="M16.12 69.75 C7.2 69.75 0 62.55 0 53.63 C0 44.7 7.2 37.5 16.12 37.5 C25.05 37.5 32.25 44.7 32.25
									 53.63 C32.25 62.55 25.05 69.75 16.12 69.75 Z" class="st1"/>
					</g>
					<g id="shape412-11" v:mID="412" v:groupContext="shape" v:layerMember="0" transform="translate(2.25,-2.25)">
						<title>Sheet.412</title>
						<ellipse cx="13.875" cy="55.875" rx="13.875" ry="13.875" class="st2"/>
					</g>
				</g>
				<g id="group413-13" transform="translate(5.25,-8.25)" v:mID="413" v:groupContext="group" v:layerMember="0">
					<title>Sheet.413</title>
					<g id="shape414-14" v:mID="414" v:groupContext="shape" v:layerMember="0"
							transform="translate(-9.99201E-16,-8.25)">
						<title>Sheet.414</title>
						<path d="M5.25 69.75 L9 69.75 L4.5 64.5 L0 69.75 L5.25 69.75 Z" class="st3"/>
						<path d="M5.25 69.75 L9 69.75 L4.5 64.5 L0 69.75" class="st4"/>
					</g>
					<g id="shape415-17" v:mID="415" v:groupContext="shape" v:layerMember="0" transform="translate(6.6,-2.25)">
						<title>Sheet.415</title>
						<path d="M12.15 64.5 C12.15 64.35 12.15 64.28 12.15 64.13 C12.15 59.78 8.62 56.25 4.27 56.25 C2.7 56.25 1.27
									 56.7 0 57.53 L1.5 59.25 C2.32 58.8 3.22 58.5 4.27 58.5 C7.35 58.5 9.9 61.05 9.9 64.13 C9.9 64.28
									 9.9 64.35 9.9 64.5 L6.15 64.5 L10.65 69.75 L15.15 64.5 L12.15 64.5 Z" class="st1"/>
					</g>
					<g id="shape416-19" v:mID="416" v:groupContext="shape" v:layerMember="0" transform="translate(12.75,-2.25)">
						<title>Sheet.416</title>
						<path d="M3.75 64.5 L0 64.5 L4.5 69.75 L9 64.5 L3.75 64.5 Z" class="st3"/>
						<path d="M3.75 64.5 L0 64.5 L4.5 69.75 L9 64.5" class="st4"/>
					</g>
					<g id="shape417-22" v:mID="417" v:groupContext="shape" v:layerMember="0">
						<title>Sheet.417</title>
						<path d="M13.65 66.75 C12.82 67.2 11.92 67.5 10.87 67.5 C7.8 67.5 5.25 64.95 5.25 61.88 C5.25 61.73 5.25
									 61.65 5.25 61.5 L9 61.5 L4.5 56.25 L0 61.5 L3 61.5 C3 61.65 3 61.73 3 61.88 C3 66.23 6.52 69.75
									 10.87 69.75 C12.45 69.75 13.87 69.3 15.15 68.48 L13.65 66.75 Z" class="st1"/>
					</g>
				</g>
			</g>
		</g>
	</g>
</svg>
