<?xml version="1.0" encoding="UTF-8" standalone="no"?>
<!DOCTYPE svg PUBLIC "-//W3C//DTD SVG 1.1//EN" "http://www.w3.org/Graphics/SVG/1.1/DTD/svg11.dtd">
<!-- Generated by Microsoft Visio, SVG Export Domain Controller.svg Page-1 -->
<svg xmlns="http://www.w3.org/2000/svg" xmlns:xlink="http://www.w3.org/1999/xlink" xmlns:ev="http://www.w3.org/2001/xml-events"
		xmlns:v="http://schemas.microsoft.com/visio/2003/SVGExtensions/" width="0.8125in" height="1.01562in"
		viewBox="0 0 58.5 73.125" xml:space="preserve" color-interpolation-filters="sRGB" class="st3">
	<v:documentProperties v:langID="4108" v:metric="true" v:viewMarkup="false"/>

	<style type="text/css">
	<![CDATA[
		.st1 {fill:#ffffff;stroke:none;stroke-linecap:butt;stroke-width:0.75}
		.st2 {fill:#515050;stroke:none;stroke-linecap:butt;stroke-width:0.75}
		.st3 {fill:none;fill-rule:evenodd;font-size:12px;overflow:visible;stroke-linecap:square;stroke-miterlimit:3}
	]]>
	</style>

	<g v:mID="0" v:index="1" v:groupContext="foregroundPage">
		<title>Page-1</title>
		<v:pageProperties v:drawingScale="0.0393701" v:pageScale="0.0393701" v:drawingUnits="24" v:shadowOffsetX="8.50394"
				v:shadowOffsetY="-8.50394"/>
		<v:layer v:name="symbols" v:index="0"/>
		<g id="group418-1" transform="translate(7.7625,-6.5625)" v:mID="418" v:groupContext="group" v:layerMember="0">
			<title>Domain Controller</title>
			<g id="group419-2" transform="translate(-2.51799E-13,-3)" v:mID="419" v:groupContext="group" v:layerMember="0">
				<title>Sheet.419</title>
				<g id="shape420-3" v:mID="420" v:groupContext="shape" v:layerMember="0">
					<title>Sheet.420</title>
					<path d="M0 73.12 L0 21.37 C-0 18.45 2.33 16.12 5.25 16.12 L26.25 16.12 C29.18 16.12 31.5 18.45 31.5 21.37 L31.5
								 73.12 L0 73.12 Z" class="st1"/>
				</g>
				<g id="shape421-5" v:mID="421" v:groupContext="shape" v:layerMember="0" transform="translate(2.25,-2.25)">
					<title>Sheet.421</title>
					<path d="M24 20.62 L3 20.62 C1.35 20.62 0 21.97 0 23.62 L0 73.12 L27 73.12 L27 23.62 C27 21.97 25.65 20.62 24
								 20.62 ZM21.75 67.12 L5.25 67.12 L5.25 64.87 L21.75 64.87 L21.75 67.12 ZM21.75 60.37 L5.25 60.37
								 L5.25 58.12 L21.75 58.12 L21.75 60.37 ZM21.75 29.62 L5.25 29.62 L5.25 27.37 L21.75 27.37 L21.75
								 29.62 Z" class="st2"/>
				</g>
			</g>
			<g id="group422-7" transform="translate(15.6,0)" v:mID="422" v:groupContext="group" v:layerMember="0">
				<title>Sheet.422</title>
				<g id="shape423-8" v:mID="423" v:groupContext="shape" v:layerMember="0">
					<title>Sheet.423</title>
					<path d="M3.75 73.12 C2.32 73.12 1.2 72.52 0.6 71.47 C-0 70.42 -0 69.07 0.75 67.87 L13.95 43.57 C14.7 42.3 15.82
								 41.62 17.03 41.62 C18.22 41.62 19.35 42.3 20.1 43.5 L33.37 67.87 C34.05 69.07 34.12 70.35 33.45
								 71.4 C32.85 72.45 31.65 73.05 30.3 73.05 L3.75 73.05 L3.75 73.12 Z" class="st1"/>
				</g>
				<g id="shape424-10" v:mID="424" v:groupContext="shape" v:layerMember="0" transform="translate(2.025,-2.25)">
					<title>Sheet.424</title>
					<path d="M29.4 71.25 L16.05 46.87 C15.45 45.82 14.47 45.82 13.87 46.87 L0.6 71.25 C-0 72.3 0.52 73.12 1.72 73.12
								 L28.27 73.12 C29.47 73.12 30 72.3 29.4 71.25 Z" class="st2"/>
				</g>
			</g>
		</g>
	</g>
</svg>
