<?xml version="1.0" encoding="UTF-8" standalone="no"?>
<!DOCTYPE svg PUBLIC "-//W3C//DTD SVG 1.1//EN" "http://www.w3.org/Graphics/SVG/1.1/DTD/svg11.dtd">
<!-- Generated by Microsoft Visio, SVG Export Exchange 2013 Server.svg Page-1 -->
<svg xmlns="http://www.w3.org/2000/svg" xmlns:xlink="http://www.w3.org/1999/xlink" xmlns:ev="http://www.w3.org/2001/xml-events"
		xmlns:v="http://schemas.microsoft.com/visio/2003/SVGExtensions/" width="0.984375in" height="0.96875in"
		viewBox="0 0 70.875 69.75" xml:space="preserve" color-interpolation-filters="sRGB" class="st4">
	<v:documentProperties v:langID="4108" v:metric="true" v:viewMarkup="false"/>

	<style type="text/css">
	<![CDATA[
		.st1 {fill:#ffffff;stroke:none;stroke-linecap:butt;stroke-width:0.75}
		.st2 {fill:#515150;stroke:none;stroke-linecap:butt;stroke-width:0.75}
		.st3 {fill:#2372ba;stroke:none;stroke-linecap:butt;stroke-width:0.75}
		.st4 {fill:none;fill-rule:evenodd;font-size:12px;overflow:visible;stroke-linecap:square;stroke-miterlimit:3}
	]]>
	</style>

	<g v:mID="0" v:index="1" v:groupContext="foregroundPage">
		<title>Page-1</title>
		<v:pageProperties v:drawingScale="0.0393701" v:pageScale="0.0393701" v:drawingUnits="24" v:shadowOffsetX="8.50394"
				v:shadowOffsetY="-8.50394"/>
		<v:layer v:name="symbols" v:index="0"/>
		<g id="group528-1" transform="translate(8.25,-6.975)" v:mID="528" v:groupContext="group" v:layerMember="0">
			<title>Exchange 2013 Server</title>
			<g id="group529-2" v:mID="529" v:groupContext="group" v:layerMember="0">
				<title>Sheet.529</title>
				<g id="shape530-3" v:mID="530" v:groupContext="shape" v:layerMember="0">
					<title>Sheet.530</title>
					<path d="M0 69.75 L0 18 C0 15.07 2.33 12.75 5.25 12.75 L26.25 12.75 C29.18 12.75 31.5 15.07 31.5 18 L31.5 69.75
								 L0 69.75 Z" class="st1"/>
				</g>
				<g id="shape531-5" v:mID="531" v:groupContext="shape" v:layerMember="0" transform="translate(2.25,-2.25)">
					<title>Sheet.531</title>
					<path d="M24 17.25 L3 17.25 C1.35 17.25 0 18.6 0 20.25 L0 69.75 L27 69.75 L27 20.25 C27 18.6 25.65 17.25 24 17.25
								 ZM21.75 63.75 L5.25 63.75 L5.25 61.5 L21.75 61.5 L21.75 63.75 ZM21.75 57 L5.25 57 L5.25 54.75 L21.75
								 54.75 L21.75 57 ZM21.75 26.25 L5.25 26.25 L5.25 24 L21.75 24 L21.75 26.25 Z" class="st2"/>
				</g>
			</g>
			<g id="group532-7" transform="translate(31.5,-30.75)" v:mID="532" v:groupContext="group" v:layerMember="0">
				<title>Sheet.532</title>
				<g id="shape533-8" v:mID="533" v:groupContext="shape" v:layerMember="0">
					<title>Sheet.533</title>
					<path d="M27 45.75 L18.75 45.75 L18.75 41.25 L16.35 41.25 L0 43.8 L0 67.12 L16.35 69.75 L18.75 69.75 L18.75 66
								 L27 66 C28.65 66 30 64.65 30 63 L30 48.75 C30 47.1 28.65 45.75 27 45.75 Z" class="st1"/>
				</g>
				<g id="shape534-10" v:mID="534" v:groupContext="shape" v:layerMember="0" transform="translate(20.4,-8.25)">
					<title>Sheet.534</title>
					<path d="M4.42 65.47 C3.68 64.87 2.48 63.9 1.58 63.37 C1.13 63.15 0.67 62.92 0.67 62.85 C0.67 62.85 0.6 62.92
								 0.53 62.92 L0.38 63.07 C0.38 63.07 0.38 63.22 0.38 63.22 C0.38 63.22 3.15 65.92 3.45 66.22 C3.52
								 66.3 3.52 66.45 3.52 66.52 L3.52 67.95 C3.52 68.02 3.45 68.1 3.37 68.1 L1.5 68.1 C1.42 68.1 1.35
								 68.1 1.27 68.02 L0.67 67.5 C0.6 67.42 0.6 67.42 0.53 67.5 L0 68.25 C0 68.32 0 68.4 0 68.47 C0 68.47
								 1.13 69.52 1.2 69.6 C1.27 69.67 1.35 69.75 1.57 69.75 L4.72 69.75 C4.95 69.75 5.1 69.6 5.1 69.37
								 L5.1 66.37 C5.1 66.07 4.88 65.85 4.42 65.47 Z" class="st3"/>
				</g>
				<g id="shape535-12" v:mID="535" v:groupContext="shape" v:layerMember="0" transform="translate(18.675,-14.4)">
					<title>Sheet.535</title>
					<path d="M0 69.07 C-0 69.07 0.07 69.15 0.07 69.22 L0.22 69.37 C0.22 69.37 0.3 69.37 0.37 69.37 C0.38 69.37 3.07
								 66.6 3.37 66.3 C3.45 66.22 3.6 66.22 3.68 66.22 L5.1 66.22 C5.18 66.22 5.25 66.3 5.25 66.37 L5.25
								 68.25 C5.25 68.32 5.25 68.4 5.18 68.47 L4.57 69.07 C4.5 69.15 4.5 69.15 4.57 69.22 L5.32 69.75 C5.4
								 69.75 5.47 69.75 5.55 69.75 C5.55 69.75 6.6 68.62 6.68 68.55 C6.75 68.47 6.82 68.4 6.82 68.17 L6.82
								 65.02 C6.82 64.8 6.68 64.65 6.45 64.65 L3.45 64.65 C3.22 64.65 3 64.87 2.63 65.32 C2.03 66.07 1.05
								 67.27 0.52 68.17 C0.3 68.55 0.07 69 0 69.07 Z" class="st3"/>
				</g>
				<g id="shape536-14" v:mID="536" v:groupContext="shape" v:layerMember="0" transform="translate(2.25,-2.25)">
					<title>Sheet.536</title>
					<path d="M24.75 50.25 L14.25 50.25 L14.25 45.75 L0 48 L0 67.5 L14.25 69.75 L14.25 66 L24.75 66 C25.2 66 25.5
								 65.7 25.5 65.25 L25.5 51 C25.5 50.55 25.2 50.25 24.75 50.25 ZM24.38 64.87 L14.25 64.87 L14.25 63.75
								 L15.38 63.75 C15.6 63.75 15.83 63.52 16.2 63.07 C16.8 62.32 17.77 61.12 18.3 60.22 C18.52 59.77
								 18.75 59.32 18.83 59.32 C18.83 59.32 18.75 59.25 18.75 59.17 L18.6 59.02 C18.6 59.02 18.45 59.02
								 18.45 59.02 C18.45 59.02 15.75 61.8 15.45 62.1 C15.38 62.17 15.22 62.17 15.15 62.17 L14.25 62.17
								 L14.25 57.97 C14.7 58.27 15.38 58.72 15.53 58.8 C15.97 59.02 16.42 59.25 16.42 59.32 C16.42 59.32
								 16.5 59.25 16.57 59.25 L16.73 59.1 C16.73 59.1 16.73 58.95 16.73 58.95 C16.73 58.95 15.22 57.52
								 14.25 56.55 L14.25 54 L15.6 54 C15.67 54 15.75 54 15.83 54.07 L16.5 54.67 C16.57 54.75 16.57 54.75
								 16.65 54.67 L17.18 53.92 C17.18 53.85 17.18 53.77 17.18 53.7 C17.18 53.7 16.05 52.65 15.97 52.57
								 C15.83 52.57 15.75 52.5 15.53 52.5 L14.25 52.5 L14.25 51.37 L24.38 51.37 L24.38 64.87 Z"
							class="st3"/>
				</g>
				<g id="shape537-16" v:mID="537" v:groupContext="shape" v:layerMember="0" transform="translate(7.2,-8.925)">
					<title>Sheet.537</title>
					<path d="M4.35 69.75 L0 69.37 L0 60.07 L4.05 59.77 L4.05 61.57 L1.57 61.65 L1.57 63.82 L4.05 63.82 L4.05 65.62
								 L1.57 65.55 L1.57 67.72 L4.42 67.87 L4.42 69.75 L4.35 69.75 Z" class="st1"/>
				</g>
			</g>
		</g>
	</g>
</svg>
