<?xml version="1.0" encoding="UTF-8" standalone="no"?>
<!DOCTYPE svg PUBLIC "-//W3C//DTD SVG 1.1//EN" "http://www.w3.org/Graphics/SVG/1.1/DTD/svg11.dtd">
<!-- Generated by Microsoft Visio, SVG Export Exchange 2010 Mailbox Server Role.svg Page-1 -->
<svg xmlns="http://www.w3.org/2000/svg" xmlns:xlink="http://www.w3.org/1999/xlink" xmlns:ev="http://www.w3.org/2001/xml-events"
		xmlns:v="http://schemas.microsoft.com/visio/2003/SVGExtensions/" width="0.908073in" height="1.03125in"
		viewBox="0 0 65.3813 74.25" xml:space="preserve" color-interpolation-filters="sRGB" class="st6">
	<v:documentProperties v:langID="4108" v:metric="true" v:viewMarkup="false"/>

	<style type="text/css">
	<![CDATA[
		.st1 {fill:#ffffff;stroke:none;stroke-linecap:butt;stroke-width:0.75}
		.st2 {fill:#505050;stroke:none;stroke-linecap:butt;stroke-width:0.75}
		.st3 {fill:#f79421;stroke:none;stroke-linecap:butt;stroke-width:0.75}
		.st4 {fill:url(#grad0-29);stroke:#f2f2f2;stroke-linecap:round;stroke-linejoin:round;stroke-width:0.1878}
		.st5 {fill:url(#grad7-39);stroke:#f2f2f2;stroke-linecap:round;stroke-linejoin:round;stroke-width:0.1878}
		.st6 {fill:none;fill-rule:evenodd;font-size:12px;overflow:visible;stroke-linecap:square;stroke-miterlimit:3}
	]]>
	</style>

	<defs id="Patterns_And_Gradients">
		<linearGradient id="grad0-29" x1="0" y1="0" x2="1" y2="0" gradientTransform="rotate(90 0.5 0.5)">
			<stop offset="0" stop-color="#ffffff" stop-opacity="1"/>
			<stop offset="1" stop-color="#ffffff" stop-opacity="1"/>
		</linearGradient>
		<radialGradient id="grad7-39" cx="0" cy="0" r="1.4">
			<stop offset="0" stop-color="#ffffff" stop-opacity="1"/>
			<stop offset="1" stop-color="#ffffff" stop-opacity="1"/>
		</radialGradient>
	</defs>
	<g v:mID="0" v:index="1" v:groupContext="foregroundPage">
		<title>Page-1</title>
		<v:pageProperties v:drawingScale="0.0393701" v:pageScale="0.0393701" v:drawingUnits="24" v:shadowOffsetX="8.50394"
				v:shadowOffsetY="-8.50394"/>
		<v:layer v:name="symbols" v:index="0"/>
		<g id="group509-1" transform="translate(8.38125,-6.975)" v:mID="509" v:groupContext="group" v:layerMember="0">
			<title>Exchange 2010 Mailbox Server Role</title>
			<g id="group510-2" transform="translate(0,-4.5)" v:mID="510" v:groupContext="group" v:layerMember="0">
				<title>Sheet.510</title>
				<g id="shape511-3" v:mID="511" v:groupContext="shape" v:layerMember="0">
					<title>Sheet.511</title>
					<path d="M0 74.25 L0 22.5 C0 19.57 2.33 17.25 5.25 17.25 L26.25 17.25 C29.18 17.25 31.5 19.57 31.5 22.5 L31.5
								 74.25 L0 74.25 Z" class="st1"/>
				</g>
				<g id="shape512-5" v:mID="512" v:groupContext="shape" v:layerMember="0" transform="translate(2.25,-2.25)">
					<title>Sheet.512</title>
					<path d="M24 21.75 L3 21.75 C1.35 21.75 0 23.1 0 24.75 L0 74.25 L27 74.25 L27 24.75 C27 23.1 25.65 21.75 24 21.75
								 ZM21.75 68.25 L5.25 68.25 L5.25 66 L21.75 66 L21.75 68.25 ZM21.75 61.5 L5.25 61.5 L5.25 59.25 L21.75
								 59.25 L21.75 61.5 ZM21.75 30.75 L5.25 30.75 L5.25 28.5 L21.75 28.5 L21.75 30.75 Z" class="st2"/>
				</g>
			</g>
			<g id="group513-7" transform="translate(17.25,0)" v:mID="513" v:groupContext="group" v:layerMember="0">
				<title>Sheet.513</title>
				<g id="shape514-8" v:mID="514" v:groupContext="shape" v:layerMember="0">
					<title>Sheet.514</title>
					<path d="M0 74.25 L0 63.45 L2.78 52.5 L3 52.5 L3 45.75 L3.75 45.75 L3.75 42 L30 42 L30 45.75 L30.75 45.75 L30.75
								 52.5 L30.97 52.5 L33.75 63.45 L33.75 74.25 L0 74.25 Z" class="st1"/>
				</g>
				<g id="shape515-10" v:mID="515" v:groupContext="shape" v:layerMember="0" transform="translate(21.75,-18.75)">
					<title>Sheet.515</title>
					<rect x="0" y="69.75" width="3.75" height="4.5" class="st2"/>
				</g>
				<g id="shape516-12" v:mID="516" v:groupContext="shape" v:layerMember="0" transform="translate(9.75,-15.75)">
					<title>Sheet.516</title>
					<rect x="0" y="72.75" width="9" height="1.5" class="st2"/>
				</g>
				<g id="shape517-14" v:mID="517" v:groupContext="shape" v:layerMember="0" transform="translate(9.75,-12.75)">
					<title>Sheet.517</title>
					<rect x="0" y="72.75" width="11.25" height="1.5" class="st2"/>
				</g>
				<g id="shape518-16" v:mID="518" v:groupContext="shape" v:layerMember="0" transform="translate(6,-27.75)">
					<title>Sheet.518</title>
					<path d="M0 72 L0 74.25 L1.5 74.25 L1.5 73.5 L20.25 73.5 L20.25 74.25 L21.75 74.25 L21.75 72 L0 72 Z"
							class="st2"/>
				</g>
				<g id="shape519-18" v:mID="519" v:groupContext="shape" v:layerMember="0" transform="translate(2.25,-2.25)">
					<title>Sheet.519</title>
					<path d="M27 57 L26.25 57 L26.25 50.25 L21.75 50.25 L3 50.25 L3 57 L2.25 57 L0 66 L0 74.25 L29.25 74.25 L29.25
								 66 L27 57 ZM24.75 57 L24.75 66 L4.5 66 L4.5 57 L4.5 51.75 L24.75 51.75 L24.75 57 Z" class="st2"/>
				</g>
			</g>
			<g id="group520-20" transform="translate(31.5,-39)" v:mID="520" v:groupContext="group" v:layerMember="0">
				<title>Sheet.520</title>
				<g id="shape521-21" v:mID="521" v:groupContext="shape" v:layerMember="0">
					<title>Sheet.521</title>
					<rect x="0" y="49.5" width="24.75" height="24.75" class="st1"/>
				</g>
				<g id="shape522-23" v:mID="522" v:groupContext="shape" v:layerMember="0" transform="translate(2.25,-2.25)">
					<title>Sheet.522</title>
					<rect x="0" y="54" width="20.25" height="20.25" class="st3"/>
				</g>
				<g id="group523-25" transform="translate(6.225,-6.225)" v:mID="523" v:groupContext="group" v:layerMember="0">
					<title>Sheet.523</title>
					<g id="shape524-26" v:mID="524" v:groupContext="shape" v:layerMember="0" transform="translate(5.1,-6.75)">
						<title>Sheet.524</title>
						<path d="M6.6 68.77 L3.68 68.77 C3.3 68.77 3.3 68.77 3.08 69 L1.58 70.72 C0.23 72.52 0.08 73.12 0 73.5 C-0
									 73.65 0.22 74.02 0.22 74.02 L0.3 74.1 C0.38 73.87 0.38 73.8 0.53 73.5 C0.75 73.05 0.98 72.9
									 1.28 72.45 C1.72 71.92 1.88 71.77 2.33 71.4 C2.85 70.87 3.38 70.57 3.38 70.57 C3.38 70.57 5.33
									 70.57 5.33 70.57 C5.33 70.57 5.4 70.57 5.4 70.57 C5.4 70.57 5.4 72.6 5.4 72.6 C5.4 72.6 4.73
									 73.65 4.73 73.72 C4.73 73.72 5.63 74.25 5.7 74.17 L7.05 72.97 C7.13 72.9 7.2 72.75 7.2 72.67
									 L7.2 69.37 C7.13 68.92 6.98 68.77 6.6 68.77 Z" class="st4"/>
					</g>
					<g id="shape525-30" v:mID="525" v:groupContext="shape" v:layerMember="0" transform="translate(0.075,-4.95)">
						<title>Sheet.525</title>
						<path d="M0 67.57 L0 70.5 C0 70.87 -0 70.87 0.22 71.1 L1.95 72.67 C3.68 74.02 4.35 74.17 4.72 74.25 C4.88
									 74.25 5.25 74.02 5.25 74.02 L5.32 73.95 C5.17 73.87 5.02 73.87 4.73 73.72 C4.28 73.5 4.13 73.27
									 3.68 72.97 C3.15 72.52 3 72.37 2.63 71.92 C2.1 71.4 1.8 70.87 1.8 70.87 C1.8 70.87 1.8 68.85
									 1.8 68.85 C1.8 68.85 1.8 68.77 1.8 68.77 C1.8 68.77 3.82 68.77 3.83 68.77 C3.82 68.77 4.88 69.45
									 4.95 69.45 C4.95 69.45 5.48 68.55 5.4 68.47 L4.2 67.12 C4.13 67.05 3.97 66.97 3.9 66.97 L0.68
									 66.97 C0.15 67.05 0 67.2 0 67.57 Z" class="st4"/>
					</g>
					<g id="shape526-33" v:mID="526" v:groupContext="shape" v:layerMember="0">
						<title>Sheet.526</title>
						<path d="M0.53 74.25 L3.45 74.25 C3.83 74.25 3.83 74.25 4.05 74.02 L5.63 72.3 C6.98 70.5 7.13 69.9 7.2 69.52
									 C7.2 69.37 6.98 69 6.98 69 L6.9 68.92 C6.83 69.07 6.83 69.22 6.68 69.52 C6.45 69.97 6.23 70.12
									 5.93 70.57 C5.48 71.1 5.33 71.25 4.88 71.62 C4.35 72.15 3.83 72.45 3.83 72.45 C3.83 72.45 1.88
									 72.45 1.88 72.45 C1.88 72.45 1.8 72.45 1.8 72.45 C1.8 72.45 1.8 70.42 1.8 70.42 C1.8 70.42 2.48
									 69.37 2.48 69.3 C2.48 69.3 1.58 68.77 1.5 68.85 L0.15 70.05 C0.08 70.12 0 70.27 0 70.35 L0 73.72
									 C0 74.1 0.15 74.25 0.53 74.25 Z" class="st4"/>
					</g>
					<g id="shape527-36" v:mID="527" v:groupContext="shape" v:layerMember="0" transform="translate(6.825,0)">
						<title>Sheet.527</title>
						<path d="M5.48 73.65 L5.48 70.72 C5.48 70.35 5.48 70.35 5.25 70.12 L3.53 68.55 C1.8 67.2 1.12 67.05 0.75
									 66.97 C0.6 66.97 0.22 67.2 0.22 67.2 L0.15 67.27 C0.3 67.35 0.45 67.35 0.75 67.5 C1.2 67.72
									 1.35 67.95 1.8 68.25 C2.33 68.7 2.48 68.85 2.85 69.3 C3.38 69.82 3.68 70.35 3.68 70.35 C3.68
									 70.35 3.68 72.37 3.68 72.37 C3.68 72.37 3.68 72.45 3.68 72.45 C3.68 72.45 1.65 72.45 1.65 72.45
									 C1.65 72.45 0.6 71.77 0.53 71.77 C0.53 71.77 0 72.67 0.08 72.75 L1.28 74.1 C1.35 74.17 1.5 74.25
									 1.58 74.25 L4.8 74.25 C5.25 74.25 5.48 74.02 5.48 73.65 Z" class="st5"/>
					</g>
				</g>
			</g>
		</g>
	</g>
</svg>
