<?xml version="1.0" encoding="UTF-8" standalone="no"?>
<!DOCTYPE svg PUBLIC "-//W3C//DTD SVG 1.1//EN" "http://www.w3.org/Graphics/SVG/1.1/DTD/svg11.dtd">
<!-- Generated by Microsoft Visio, SVG Export Exchange 2013 Mailbox Server.svg Page-1 -->
<svg xmlns="http://www.w3.org/2000/svg" xmlns:xlink="http://www.w3.org/1999/xlink" xmlns:ev="http://www.w3.org/2001/xml-events"
		xmlns:v="http://schemas.microsoft.com/visio/2003/SVGExtensions/" width="0.986458in" height="1.01563in"
		viewBox="0 0 71.025 73.125" xml:space="preserve" color-interpolation-filters="sRGB" class="st4">
	<v:documentProperties v:langID="4108" v:metric="true" v:viewMarkup="false"/>

	<style type="text/css">
	<![CDATA[
		.st1 {fill:#ffffff;stroke:none;stroke-linecap:butt;stroke-width:0.75}
		.st2 {fill:#515150;stroke:none;stroke-linecap:butt;stroke-width:0.75}
		.st3 {fill:#2372ba;stroke:none;stroke-linecap:butt;stroke-width:0.75}
		.st4 {fill:none;fill-rule:evenodd;font-size:12px;overflow:visible;stroke-linecap:square;stroke-miterlimit:3}
	]]>
	</style>

	<g v:mID="0" v:index="1" v:groupContext="foregroundPage">
		<title>Page-1</title>
		<v:pageProperties v:drawingScale="0.0393701" v:pageScale="0.0393701" v:drawingUnits="24" v:shadowOffsetX="8.50394"
				v:shadowOffsetY="-8.50394"/>
		<v:layer v:name="symbols" v:index="0"/>
		<g id="group492-1" transform="translate(8.775,-6.975)" v:mID="492" v:groupContext="group" v:layerMember="0">
			<title>Exchange 2013 Mailbox Server</title>
			<g id="group493-2" transform="translate(0,-4.5)" v:mID="493" v:groupContext="group" v:layerMember="0">
				<title>Sheet.493</title>
				<g id="shape494-3" v:mID="494" v:groupContext="shape" v:layerMember="0">
					<title>Sheet.494</title>
					<path d="M0 73.12 L0 21.37 C0 18.45 2.33 16.13 5.25 16.13 L26.25 16.13 C29.18 16.13 31.5 18.45 31.5 21.37 L31.5
								 73.12 L0 73.12 Z" class="st1"/>
				</g>
				<g id="shape495-5" v:mID="495" v:groupContext="shape" v:layerMember="0" transform="translate(2.25,-2.25)">
					<title>Sheet.495</title>
					<path d="M24 20.63 L3 20.63 C1.35 20.63 0 21.98 0 23.63 L0 73.12 L27 73.12 L27 23.63 C27 21.98 25.65 20.63 24
								 20.63 ZM21.75 67.13 L5.25 67.13 L5.25 64.87 L21.75 64.87 L21.75 67.13 ZM21.75 60.38 L5.25 60.38
								 L5.25 58.12 L21.75 58.12 L21.75 60.38 ZM21.75 29.62 L5.25 29.62 L5.25 27.38 L21.75 27.38 L21.75
								 29.62 Z" class="st2"/>
				</g>
			</g>
			<g id="group496-7" transform="translate(17.25,0)" v:mID="496" v:groupContext="group" v:layerMember="0">
				<title>Sheet.496</title>
				<g id="shape497-8" v:mID="497" v:groupContext="shape" v:layerMember="0">
					<title>Sheet.497</title>
					<path d="M0 73.12 L0 62.32 L2.78 51.37 L3 51.37 L3 44.62 L3.75 44.62 L3.75 40.87 L30 40.87 L30 44.62 L30.75 44.62
								 L30.75 51.37 L30.98 51.37 L33.75 62.32 L33.75 73.12 L0 73.12 Z" class="st1"/>
				</g>
				<g id="shape498-10" v:mID="498" v:groupContext="shape" v:layerMember="0" transform="translate(21.75,-18.75)">
					<title>Sheet.498</title>
					<rect x="0" y="68.625" width="3.75" height="4.5" class="st2"/>
				</g>
				<g id="shape499-12" v:mID="499" v:groupContext="shape" v:layerMember="0" transform="translate(9.75,-15.75)">
					<title>Sheet.499</title>
					<rect x="0" y="71.625" width="9" height="1.5" class="st2"/>
				</g>
				<g id="shape500-14" v:mID="500" v:groupContext="shape" v:layerMember="0" transform="translate(9.75,-12.75)">
					<title>Sheet.500</title>
					<rect x="0" y="71.625" width="11.25" height="1.5" class="st2"/>
				</g>
				<g id="shape501-16" v:mID="501" v:groupContext="shape" v:layerMember="0" transform="translate(6,-27.75)">
					<title>Sheet.501</title>
					<path d="M0 70.87 L0 73.12 L1.5 73.12 L1.5 72.37 L20.25 72.37 L20.25 73.12 L21.75 73.12 L21.75 70.87 L0 70.87
								 Z" class="st2"/>
				</g>
				<g id="shape502-18" v:mID="502" v:groupContext="shape" v:layerMember="0" transform="translate(2.25,-2.25)">
					<title>Sheet.502</title>
					<path d="M27 55.87 L26.25 55.87 L26.25 49.12 L21.75 49.12 L3 49.12 L3 55.87 L2.25 55.87 L0 64.87 L0 73.12 L29.25
								 73.12 L29.25 64.87 L27 55.87 ZM24.75 55.87 L24.75 64.87 L4.5 64.87 L4.5 55.87 L4.5 50.62 L24.75
								 50.62 L24.75 55.87 Z" class="st2"/>
				</g>
			</g>
			<g id="group503-20" transform="translate(31.5,-35.25)" v:mID="503" v:groupContext="group" v:layerMember="0">
				<title>Sheet.503</title>
				<g id="shape504-21" v:mID="504" v:groupContext="shape" v:layerMember="0">
					<title>Sheet.504</title>
					<path d="M27 49.13 L18.75 49.13 L18.75 44.63 L16.35 44.63 L0 47.18 L0 70.5 L16.35 73.12 L18.75 73.12 L18.75 69.38
								 L27 69.38 C28.65 69.38 30 68.03 30 66.37 L30 52.13 C30 50.48 28.65 49.13 27 49.13 Z" class="st1"/>
				</g>
				<g id="shape505-23" v:mID="505" v:groupContext="shape" v:layerMember="0" transform="translate(20.4,-8.25)">
					<title>Sheet.505</title>
					<path d="M4.42 68.85 C3.68 68.25 2.48 67.28 1.58 66.75 C1.13 66.53 0.67 66.3 0.67 66.23 C0.67 66.23 0.6 66.3
								 0.53 66.3 L0.38 66.45 C0.38 66.45 0.38 66.6 0.38 66.6 C0.38 66.6 3.15 69.3 3.45 69.6 C3.52 69.68
								 3.52 69.83 3.52 69.9 L3.52 71.33 C3.52 71.4 3.45 71.48 3.37 71.48 L1.5 71.48 C1.42 71.48 1.35 71.48
								 1.27 71.4 L0.67 70.88 C0.6 70.8 0.6 70.8 0.53 70.88 L0 71.63 C0 71.7 0 71.78 0 71.85 C0 71.85 1.13
								 72.9 1.2 72.97 C1.27 73.05 1.35 73.12 1.57 73.12 L4.72 73.12 C4.95 73.12 5.1 72.97 5.1 72.75 L5.1
								 69.75 C5.1 69.45 4.88 69.23 4.42 68.85 Z" class="st3"/>
				</g>
				<g id="shape506-25" v:mID="506" v:groupContext="shape" v:layerMember="0" transform="translate(18.675,-14.4)">
					<title>Sheet.506</title>
					<path d="M0 72.45 C-0 72.45 0.07 72.53 0.07 72.6 L0.22 72.75 C0.22 72.75 0.3 72.75 0.37 72.75 C0.38 72.75 3.07
								 69.98 3.37 69.68 C3.45 69.6 3.6 69.6 3.68 69.6 L5.1 69.6 C5.18 69.6 5.25 69.68 5.25 69.75 L5.25
								 71.63 C5.25 71.7 5.25 71.78 5.18 71.85 L4.57 72.45 C4.5 72.53 4.5 72.53 4.57 72.6 L5.32 73.12 C5.4
								 73.12 5.47 73.12 5.55 73.12 C5.55 73.12 6.6 72 6.68 71.93 C6.75 71.85 6.82 71.78 6.82 71.55 L6.82
								 68.4 C6.82 68.18 6.68 68.03 6.45 68.03 L3.45 68.03 C3.22 68.03 3 68.25 2.63 68.7 C2.03 69.45 1.05
								 70.65 0.52 71.55 C0.3 71.93 0.07 72.38 0 72.45 Z" class="st3"/>
				</g>
				<g id="shape507-27" v:mID="507" v:groupContext="shape" v:layerMember="0" transform="translate(2.25,-2.25)">
					<title>Sheet.507</title>
					<path d="M24.75 53.63 L14.25 53.63 L14.25 49.13 L0 51.38 L0 70.88 L14.25 73.12 L14.25 69.38 L24.75 69.38 C25.2
								 69.38 25.5 69.08 25.5 68.63 L25.5 54.38 C25.5 53.93 25.2 53.63 24.75 53.63 ZM24.38 68.25 L14.25
								 68.25 L14.25 67.13 L15.38 67.13 C15.6 67.13 15.83 66.9 16.2 66.45 C16.8 65.7 17.77 64.5 18.3 63.6
								 C18.52 63.15 18.75 62.7 18.83 62.7 C18.83 62.7 18.75 62.63 18.75 62.55 L18.6 62.4 C18.6 62.4 18.45
								 62.4 18.45 62.4 C18.45 62.4 15.75 65.18 15.45 65.48 C15.38 65.55 15.22 65.55 15.15 65.55 L14.25
								 65.55 L14.25 61.35 C14.7 61.65 15.38 62.1 15.53 62.18 C15.97 62.4 16.42 62.63 16.42 62.7 C16.42
								 62.7 16.5 62.63 16.57 62.63 L16.73 62.48 C16.73 62.48 16.73 62.33 16.73 62.33 C16.73 62.33 15.22
								 60.9 14.25 59.93 L14.25 57.38 L15.6 57.38 C15.67 57.38 15.75 57.38 15.83 57.45 L16.5 58.05 C16.57
								 58.13 16.57 58.13 16.65 58.05 L17.18 57.3 C17.18 57.23 17.18 57.15 17.18 57.08 C17.18 57.08 16.05
								 56.03 15.97 55.95 C15.83 55.95 15.75 55.88 15.53 55.88 L14.25 55.88 L14.25 54.75 L24.38 54.75 L24.38
								 68.25 Z" class="st3"/>
				</g>
				<g id="shape508-29" v:mID="508" v:groupContext="shape" v:layerMember="0" transform="translate(7.2,-8.925)">
					<title>Sheet.508</title>
					<path d="M4.35 73.12 L0 72.75 L0 63.45 L4.05 63.15 L4.05 64.95 L1.57 65.03 L1.57 67.2 L4.05 67.2 L4.05 69 L1.57
								 68.92 L1.57 71.1 L4.42 71.25 L4.42 73.12 L4.35 73.12 Z" class="st1"/>
				</g>
			</g>
		</g>
	</g>
</svg>
