<?xml version="1.0" encoding="UTF-8" standalone="no"?>
<!DOCTYPE svg PUBLIC "-//W3C//DTD SVG 1.1//EN" "http://www.w3.org/Graphics/SVG/1.1/DTD/svg11.dtd">
<!-- Generated by Microsoft Visio, SVG Export Exchange 2010 Client Access Server Role.svg Page-1 -->
<svg xmlns="http://www.w3.org/2000/svg" xmlns:xlink="http://www.w3.org/1999/xlink" xmlns:ev="http://www.w3.org/2001/xml-events"
		xmlns:v="http://schemas.microsoft.com/visio/2003/SVGExtensions/" width="0.920312in" height="1.04687in"
		viewBox="0 0 66.2625 75.375" xml:space="preserve" color-interpolation-filters="sRGB" class="st8">
	<v:documentProperties v:langID="4108" v:metric="true" v:viewMarkup="false"/>

	<style type="text/css">
	<![CDATA[
		.st1 {fill:#ffffff;stroke:none;stroke-linecap:butt;stroke-width:0.75}
		.st2 {fill:#515251;stroke:none;stroke-linecap:butt;stroke-width:0.75}
		.st3 {fill:#515150;stroke:none;stroke-linecap:butt;stroke-width:0.75}
		.st4 {fill:#515050;stroke:none;stroke-linecap:butt;stroke-width:0.75}
		.st5 {fill:#f79421;stroke:none;stroke-linecap:butt;stroke-width:0.75}
		.st6 {fill:url(#grad0-28);stroke:#f2f2f2;stroke-linecap:round;stroke-linejoin:round;stroke-width:0.1878}
		.st7 {fill:url(#grad7-38);stroke:#f2f2f2;stroke-linecap:round;stroke-linejoin:round;stroke-width:0.1878}
		.st8 {fill:none;fill-rule:evenodd;font-size:12px;overflow:visible;stroke-linecap:square;stroke-miterlimit:3}
	]]>
	</style>

	<defs id="Patterns_And_Gradients">
		<linearGradient id="grad0-28" x1="0" y1="0" x2="1" y2="0" gradientTransform="rotate(90 0.5 0.5)">
			<stop offset="0" stop-color="#ffffff" stop-opacity="1"/>
			<stop offset="1" stop-color="#ffffff" stop-opacity="1"/>
		</linearGradient>
		<radialGradient id="grad7-38" cx="0" cy="0" r="1.4">
			<stop offset="0" stop-color="#ffffff" stop-opacity="1"/>
			<stop offset="1" stop-color="#ffffff" stop-opacity="1"/>
		</radialGradient>
	</defs>
	<g v:mID="0" v:index="1" v:groupContext="foregroundPage">
		<title>Page-1</title>
		<v:pageProperties v:drawingScale="0.0393701" v:pageScale="0.0393701" v:drawingUnits="24" v:shadowOffsetX="8.50394"
				v:shadowOffsetY="-8.50394"/>
		<v:layer v:name="symbols" v:index="0"/>
		<g id="group443-1" transform="translate(8.325,-6.9375)" v:mID="443" v:groupContext="group" v:layerMember="0">
			<title>Exchange 2010 Client Access Server Role</title>
			<g id="group444-2" v:mID="444" v:groupContext="group" v:layerMember="0">
				<title>Sheet.444</title>
				<g id="group445-3" transform="translate(2.65787E-13,-4.5)" v:mID="445" v:groupContext="group" v:layerMember="0">
					<title>Sheet.445</title>
					<g id="shape446-4" v:mID="446" v:groupContext="shape" v:layerMember="0">
						<title>Sheet.446</title>
						<path d="M0 75.37 L0 23.62 C0 20.7 2.32 18.37 5.25 18.37 L26.25 18.37 C29.17 18.37 31.5 20.7 31.5 23.62 L31.5
									 75.37 L0 75.37 Z" class="st1"/>
					</g>
					<g id="shape447-6" v:mID="447" v:groupContext="shape" v:layerMember="0" transform="translate(2.25,-2.25)">
						<title>Sheet.447</title>
						<path d="M24 22.87 L3 22.87 C1.35 22.87 0 24.22 0 25.87 L0 75.37 L27 75.37 L27 25.87 C27 24.22 25.65 22.87
									 24 22.87 ZM21.75 69.37 L5.25 69.37 L5.25 67.12 L21.75 67.12 L21.75 69.37 ZM21.75 62.62 L5.25
									 62.62 L5.25 60.37 L21.75 60.37 L21.75 62.62 ZM21.75 31.87 L5.25 31.87 L5.25 29.62 L21.75 29.62
									 L21.75 31.87 Z" class="st2"/>
					</g>
				</g>
				<g id="group448-8" transform="translate(15,0)" v:mID="448" v:groupContext="group" v:layerMember="0">
					<title>Sheet.448</title>
					<g id="group449-9" transform="translate(5.25,0)" v:mID="449" v:groupContext="group" v:layerMember="0">
						<title>Sheet.449</title>
						<g id="shape450-10" v:mID="450" v:groupContext="shape" v:layerMember="0">
							<title>Sheet.450</title>
							<path d="M9.15 75.37 C7.43 75.37 6 73.95 6 72.22 C6 71.4 6.3 70.72 6.75 70.12 L3.75 70.12 C1.65 70.12
										 0 68.47 0 66.37 L0 49.87 C-0 47.77 1.65 46.12 3.75 46.12 L30 46.12 C32.1 46.12 33.75 47.77
										 33.75 49.87 L33.75 66.37 C33.75 68.47 32.1 70.12 30 70.12 L26.85 70.12 C27.3 70.65 27.6
										 71.4 27.6 72.22 C27.6 73.95 26.18 75.37 24.45 75.37 L9.15 75.37 Z" class="st1"/>
						</g>
						<g id="shape451-12" v:mID="451" v:groupContext="shape" v:layerMember="0" transform="translate(2.25,-2.325)">
							<title>Sheet.451</title>
							<path d="M27.75 50.7 L1.5 50.7 C0.68 50.7 0 51.37 0 52.2 L0 68.7 C0 69.52 0.68 70.2 1.5 70.2 L11.25 70.2
										 C12.07 73.05 11.33 73.5 6.9 73.57 C6.38 73.57 6 74.02 6 74.47 C6 75 6.45 75.37 6.9 75.37
										 L22.2 75.37 C22.73 75.37 23.1 74.92 23.1 74.47 C23.1 73.95 22.73 73.57 22.2 73.57 C17.78
										 73.5 17.1 73.05 17.85 70.2 L27.75 70.2 C28.58 70.2 29.25 69.52 29.25 68.7 L29.25 52.2 C29.25
										 51.37 28.58 50.7 27.75 50.7 ZM27 67.95 L2.25 67.95 L2.25 52.95 L27 52.95 L27 67.95 Z"
									class="st3"/>
						</g>
					</g>
					<g id="group452-14" transform="translate(1.93845E-13,-14.85)" v:mID="452" v:groupContext="group"
							v:layerMember="0">
						<title>Sheet.452</title>
						<g id="shape453-15" v:mID="453" v:groupContext="shape" v:layerMember="0">
							<title>Sheet.453</title>
							<path d="M7.5 68.62 L7.5 74.32 L0 67.42 L0 55.72 L11.77 55.72 L18.6 63.22 L12.9 63.22 L19.65 69.97 L14.25
										 75.37 L7.5 68.62 Z" class="st1"/>
						</g>
						<g id="shape454-17" v:mID="454" v:groupContext="shape" v:layerMember="0" transform="translate(2.25,-3.15)">
							<title>Sheet.454</title>
							<path d="M12 75.37 L14.25 73.12 L5.25 64.12 L11.25 64.12 L8.47 61.12 L0 61.12 L0 69.6 L3 72.37 L3 66.37
										 L12 75.37 Z" class="st4"/>
						</g>
					</g>
				</g>
			</g>
			<g id="group455-19" transform="translate(31.5,-39)" v:mID="455" v:groupContext="group" v:layerMember="0">
				<title>Sheet.455</title>
				<g id="shape456-20" v:mID="456" v:groupContext="shape" v:layerMember="0">
					<title>Sheet.456</title>
					<rect x="0" y="50.625" width="24.75" height="24.75" class="st1"/>
				</g>
				<g id="shape457-22" v:mID="457" v:groupContext="shape" v:layerMember="0" transform="translate(2.25,-2.25)">
					<title>Sheet.457</title>
					<rect x="0" y="55.125" width="20.25" height="20.25" class="st5"/>
				</g>
				<g id="group458-24" transform="translate(6.225,-6.225)" v:mID="458" v:groupContext="group" v:layerMember="0">
					<title>Sheet.458</title>
					<g id="shape459-25" v:mID="459" v:groupContext="shape" v:layerMember="0" transform="translate(5.1,-6.75)">
						<title>Sheet.459</title>
						<path d="M6.6 69.9 L3.68 69.9 C3.3 69.9 3.3 69.9 3.08 70.12 L1.58 71.85 C0.23 73.65 0.08 74.25 0 74.62 C-0
									 74.77 0.22 75.15 0.22 75.15 L0.3 75.22 C0.38 75 0.38 74.92 0.53 74.62 C0.75 74.17 0.98 74.02
									 1.28 73.57 C1.72 73.05 1.88 72.9 2.33 72.52 C2.85 72 3.38 71.7 3.38 71.7 C3.38 71.7 5.33 71.7
									 5.33 71.7 C5.33 71.7 5.4 71.7 5.4 71.7 C5.4 71.7 5.4 73.72 5.4 73.72 C5.4 73.72 4.73 74.77 4.73
									 74.85 C4.73 74.85 5.63 75.37 5.7 75.3 L7.05 74.1 C7.13 74.02 7.2 73.87 7.2 73.8 L7.2 70.5 C7.13
									 70.05 6.98 69.9 6.6 69.9 Z" class="st6"/>
					</g>
					<g id="shape460-29" v:mID="460" v:groupContext="shape" v:layerMember="0" transform="translate(0.075,-4.95)">
						<title>Sheet.460</title>
						<path d="M0 68.7 L0 71.62 C0 72 -0 72 0.22 72.22 L1.95 73.8 C3.68 75.15 4.35 75.3 4.72 75.37 C4.88 75.37
									 5.25 75.15 5.25 75.15 L5.32 75.07 C5.17 75 5.02 75 4.73 74.85 C4.28 74.62 4.13 74.4 3.68 74.1
									 C3.15 73.65 3 73.5 2.63 73.05 C2.1 72.52 1.8 72 1.8 72 C1.8 72 1.8 69.97 1.8 69.97 C1.8 69.97
									 1.8 69.9 1.8 69.9 C1.8 69.9 3.82 69.9 3.83 69.9 C3.82 69.9 4.88 70.57 4.95 70.57 C4.95 70.57
									 5.48 69.67 5.4 69.6 L4.2 68.25 C4.13 68.17 3.97 68.1 3.9 68.1 L0.68 68.1 C0.15 68.17 0 68.32
									 0 68.7 Z" class="st6"/>
					</g>
					<g id="shape461-32" v:mID="461" v:groupContext="shape" v:layerMember="0">
						<title>Sheet.461</title>
						<path d="M0.53 75.37 L3.45 75.37 C3.83 75.37 3.83 75.37 4.05 75.15 L5.63 73.42 C6.98 71.62 7.13 71.02 7.2
									 70.65 C7.2 70.5 6.98 70.12 6.98 70.12 L6.9 70.05 C6.83 70.2 6.83 70.35 6.68 70.65 C6.45 71.1
									 6.23 71.25 5.93 71.7 C5.48 72.22 5.33 72.37 4.88 72.75 C4.35 73.27 3.83 73.57 3.83 73.57 C3.83
									 73.57 1.88 73.57 1.88 73.57 C1.88 73.57 1.8 73.57 1.8 73.57 C1.8 73.57 1.8 71.55 1.8 71.55 C1.8
									 71.55 2.48 70.5 2.48 70.42 C2.48 70.42 1.58 69.9 1.5 69.97 L0.15 71.17 C0.08 71.25 0 71.4 0
									 71.47 L0 74.85 C0 75.22 0.15 75.37 0.53 75.37 Z" class="st6"/>
					</g>
					<g id="shape462-35" v:mID="462" v:groupContext="shape" v:layerMember="0" transform="translate(6.825,0)">
						<title>Sheet.462</title>
						<path d="M5.48 74.77 L5.48 71.85 C5.48 71.47 5.48 71.47 5.25 71.25 L3.53 69.67 C1.8 68.32 1.12 68.17 0.75
									 68.1 C0.6 68.1 0.22 68.32 0.22 68.32 L0.15 68.4 C0.3 68.47 0.45 68.47 0.75 68.62 C1.2 68.85
									 1.35 69.07 1.8 69.37 C2.33 69.82 2.48 69.97 2.85 70.42 C3.38 70.95 3.68 71.47 3.68 71.47 C3.68
									 71.47 3.68 73.5 3.68 73.5 C3.68 73.5 3.68 73.57 3.68 73.57 C3.68 73.57 1.65 73.57 1.65 73.57
									 C1.65 73.57 0.6 72.9 0.53 72.9 C0.53 72.9 0 73.8 0.08 73.87 L1.28 75.22 C1.35 75.3 1.5 75.37
									 1.58 75.37 L4.8 75.37 C5.25 75.37 5.48 75.15 5.48 74.77 Z" class="st7"/>
					</g>
				</g>
			</g>
		</g>
	</g>
</svg>
