<?xml version="1.0" encoding="UTF-8" standalone="no"?>
<!DOCTYPE svg PUBLIC "-//W3C//DTD SVG 1.1//EN" "http://www.w3.org/Graphics/SVG/1.1/DTD/svg11.dtd">
<!-- Generated by Microsoft Visio, SVG Export Exchange 2010 Edge Transport Server Role.svg Page-1 -->
<svg xmlns="http://www.w3.org/2000/svg" xmlns:xlink="http://www.w3.org/1999/xlink" xmlns:ev="http://www.w3.org/2001/xml-events"
		xmlns:v="http://schemas.microsoft.com/visio/2003/SVGExtensions/" width="0.911719in" height="0.984375in"
		viewBox="0 0 65.6437 70.875" xml:space="preserve" color-interpolation-filters="sRGB" class="st6">
	<v:documentProperties v:langID="4108" v:metric="true" v:viewMarkup="false"/>

	<style type="text/css">
	<![CDATA[
		.st1 {fill:#ffffff;stroke:none;stroke-linecap:butt;stroke-width:0.75}
		.st2 {fill:#505050;stroke:none;stroke-linecap:butt;stroke-width:0.75}
		.st3 {fill:#f79421;stroke:none;stroke-linecap:butt;stroke-width:0.75}
		.st4 {fill:url(#grad0-22);stroke:#f2f2f2;stroke-linecap:round;stroke-linejoin:round;stroke-width:0.1878}
		.st5 {fill:url(#grad7-32);stroke:#f2f2f2;stroke-linecap:round;stroke-linejoin:round;stroke-width:0.1878}
		.st6 {fill:none;fill-rule:evenodd;font-size:12px;overflow:visible;stroke-linecap:square;stroke-miterlimit:3}
	]]>
	</style>

	<defs id="Patterns_And_Gradients">
		<linearGradient id="grad0-22" x1="0" y1="0" x2="1" y2="0" gradientTransform="rotate(90 0.5 0.5)">
			<stop offset="0" stop-color="#ffffff" stop-opacity="1"/>
			<stop offset="1" stop-color="#ffffff" stop-opacity="1"/>
		</linearGradient>
		<radialGradient id="grad7-32" cx="0" cy="0" r="1.4">
			<stop offset="0" stop-color="#ffffff" stop-opacity="1"/>
			<stop offset="1" stop-color="#ffffff" stop-opacity="1"/>
		</radialGradient>
	</defs>
	<g v:mID="0" v:index="1" v:groupContext="foregroundPage">
		<title>Page-1</title>
		<v:pageProperties v:drawingScale="0.0393701" v:pageScale="0.0393701" v:drawingUnits="24" v:shadowOffsetX="8.50394"
				v:shadowOffsetY="-8.50394"/>
		<v:layer v:name="symbols" v:index="0"/>
		<g id="group476-1" transform="translate(8.26875,-6.975)" v:mID="476" v:groupContext="group" v:layerMember="0">
			<title>Exchange 2010 Edge Transport Server Role</title>
			<g id="group477-2" v:mID="477" v:groupContext="group" v:layerMember="0">
				<title>Sheet.477</title>
				<g id="group478-3" v:mID="478" v:groupContext="group" v:layerMember="0">
					<title>Sheet.478</title>
					<g id="shape479-4" v:mID="479" v:groupContext="shape" v:layerMember="0">
						<title>Sheet.479</title>
						<path d="M0 70.87 L0 19.12 C0 16.2 2.33 13.87 5.25 13.87 L26.25 13.87 C29.18 13.87 31.5 16.2 31.5 19.12 L31.5
									 70.87 L0 70.87 Z" class="st1"/>
					</g>
					<g id="shape480-6" v:mID="480" v:groupContext="shape" v:layerMember="0" transform="translate(2.25,-2.25)">
						<title>Sheet.480</title>
						<path d="M24 18.37 L3 18.37 C1.35 18.37 0 19.72 0 21.37 L0 70.87 L27 70.87 L27 21.37 C27 19.72 25.65 18.37
									 24 18.37 ZM21.75 64.87 L5.25 64.87 L5.25 62.62 L21.75 62.62 L21.75 64.87 ZM21.75 58.12 L5.25
									 58.12 L5.25 55.87 L21.75 55.87 L21.75 58.12 ZM21.75 27.37 L5.25 27.37 L5.25 25.12 L21.75 25.12
									 L21.75 27.37 Z" class="st2"/>
					</g>
				</g>
				<g id="group481-8" transform="translate(14.25,-8.25)" v:mID="481" v:groupContext="group" v:layerMember="0">
					<title>Sheet.481</title>
					<g id="shape482-9" v:mID="482" v:groupContext="shape" v:layerMember="0">
						<title>Sheet.482</title>
						<path d="M27.97 51.38 L20.25 51.38 L20.25 54.6 L22.27 56.63 L15.97 56.63 L18 54.53 L18 51.38 L10.28 51.38
									 L0 61.05 L9.6 70.87 L18 70.87 L18 67.73 L15.97 65.63 L22.27 65.63 L20.25 67.65 L20.25 70.87
									 L28.65 70.87 L38.25 61.05 L27.97 51.38 Z" class="st1"/>
					</g>
					<g id="shape483-11" v:mID="483" v:groupContext="shape" v:layerMember="0" transform="translate(3.225,-2.25)">
						<title>Sheet.483</title>
						<path d="M12.53 70.87 L7.42 65.63 L24.38 65.63 L19.2 70.87 L24.45 70.87 L31.8 63.38 L23.85 55.88 L19.2 55.88
									 L24.38 61.13 L7.42 61.13 L12.53 55.88 L7.95 55.88 L0 63.38 L7.35 70.87 L12.53 70.87 Z"
								class="st2"/>
					</g>
				</g>
				<g id="group484-13" transform="translate(31.5,-34.5)" v:mID="484" v:groupContext="group" v:layerMember="0">
					<title>Sheet.484</title>
					<g id="shape485-14" v:mID="485" v:groupContext="shape" v:layerMember="0">
						<title>Sheet.485</title>
						<rect x="0" y="46.125" width="24.75" height="24.75" class="st1"/>
					</g>
					<g id="shape486-16" v:mID="486" v:groupContext="shape" v:layerMember="0" transform="translate(2.25,-2.25)">
						<title>Sheet.486</title>
						<rect x="0" y="50.625" width="20.25" height="20.25" class="st3"/>
					</g>
					<g id="group487-18" transform="translate(6.225,-6.225)" v:mID="487" v:groupContext="group" v:layerMember="0">
						<title>Sheet.487</title>
						<g id="shape488-19" v:mID="488" v:groupContext="shape" v:layerMember="0" transform="translate(5.1,-6.75)">
							<title>Sheet.488</title>
							<path d="M6.6 65.4 L3.68 65.4 C3.3 65.4 3.3 65.4 3.08 65.63 L1.58 67.35 C0.23 69.15 0.08 69.75 0 70.12
										 C-0 70.28 0.22 70.65 0.22 70.65 L0.3 70.72 C0.38 70.5 0.38 70.42 0.53 70.12 C0.75 69.68
										 0.98 69.53 1.28 69.07 C1.72 68.55 1.88 68.4 2.33 68.03 C2.85 67.5 3.38 67.2 3.38 67.2 C3.38
										 67.2 5.33 67.2 5.33 67.2 C5.33 67.2 5.4 67.2 5.4 67.2 C5.4 67.2 5.4 69.22 5.4 69.23 C5.4
										 69.22 4.73 70.28 4.73 70.35 C4.73 70.35 5.63 70.87 5.7 70.8 L7.05 69.6 C7.13 69.53 7.2 69.37
										 7.2 69.3 L7.2 66 C7.13 65.55 6.98 65.4 6.6 65.4 Z" class="st4"/>
						</g>
						<g id="shape489-23" v:mID="489" v:groupContext="shape" v:layerMember="0" transform="translate(0.075,-4.95)">
							<title>Sheet.489</title>
							<path d="M0 64.2 L0 67.13 C0 67.5 -0 67.5 0.22 67.73 L1.95 69.3 C3.68 70.65 4.35 70.8 4.72 70.87 C4.88
										 70.87 5.25 70.65 5.25 70.65 L5.32 70.57 C5.17 70.5 5.02 70.5 4.73 70.35 C4.28 70.12 4.13
										 69.9 3.68 69.6 C3.15 69.15 3 69 2.63 68.55 C2.1 68.03 1.8 67.5 1.8 67.5 C1.8 67.5 1.8 65.48
										 1.8 65.48 C1.8 65.48 1.8 65.4 1.8 65.4 C1.8 65.4 3.82 65.4 3.83 65.4 C3.82 65.4 4.88 66.08
										 4.95 66.08 C4.95 66.08 5.48 65.18 5.4 65.1 L4.2 63.75 C4.13 63.68 3.97 63.6 3.9 63.6 L0.68
										 63.6 C0.15 63.68 0 63.83 0 64.2 Z" class="st4"/>
						</g>
						<g id="shape490-26" v:mID="490" v:groupContext="shape" v:layerMember="0">
							<title>Sheet.490</title>
							<path d="M0.53 70.87 L3.45 70.87 C3.83 70.87 3.83 70.87 4.05 70.65 L5.63 68.92 C6.98 67.12 7.13 66.52
										 7.2 66.15 C7.2 66 6.98 65.63 6.98 65.63 L6.9 65.55 C6.83 65.7 6.83 65.85 6.68 66.15 C6.45
										 66.6 6.23 66.75 5.93 67.2 C5.48 67.72 5.33 67.88 4.88 68.25 C4.35 68.77 3.83 69.08 3.83
										 69.07 C3.83 69.08 1.88 69.08 1.88 69.07 C1.88 69.08 1.8 69.08 1.8 69.07 C1.8 69.08 1.8 67.05
										 1.8 67.05 C1.8 67.05 2.48 66 2.48 65.93 C2.48 65.92 1.58 65.4 1.5 65.48 L0.15 66.68 C0.08
										 66.75 0 66.9 0 66.98 L0 70.35 C0 70.72 0.15 70.87 0.53 70.87 Z" class="st4"/>
						</g>
						<g id="shape491-29" v:mID="491" v:groupContext="shape" v:layerMember="0" transform="translate(6.825,0)">
							<title>Sheet.491</title>
							<path d="M5.48 70.28 L5.48 67.35 C5.48 66.98 5.48 66.98 5.25 66.75 L3.53 65.18 C1.8 63.83 1.12 63.68
										 0.75 63.6 C0.6 63.6 0.22 63.83 0.22 63.83 L0.15 63.9 C0.3 63.98 0.45 63.98 0.75 64.13 C1.2
										 64.35 1.35 64.58 1.8 64.88 C2.33 65.33 2.48 65.48 2.85 65.93 C3.38 66.45 3.68 66.98 3.68
										 66.98 C3.68 66.98 3.68 69 3.68 69 C3.68 69 3.68 69.08 3.68 69.08 C3.68 69.08 1.65 69.08
										 1.65 69.08 C1.65 69.08 0.6 68.4 0.53 68.4 C0.53 68.4 0 69.3 0.08 69.38 L1.28 70.73 C1.35
										 70.8 1.5 70.87 1.58 70.87 L4.8 70.87 C5.25 70.87 5.48 70.65 5.48 70.28 Z" class="st5"/>
						</g>
					</g>
				</g>
			</g>
		</g>
	</g>
</svg>
