<?xml version="1.0" encoding="UTF-8" standalone="no"?>
<!DOCTYPE svg PUBLIC "-//W3C//DTD SVG 1.1//EN" "http://www.w3.org/Graphics/SVG/1.1/DTD/svg11.dtd">
<!-- Generated by Microsoft Visio, SVG Export Exchange 2013 Edge Transport Server.svg Page-1 -->
<svg xmlns="http://www.w3.org/2000/svg" xmlns:xlink="http://www.w3.org/1999/xlink" xmlns:ev="http://www.w3.org/2001/xml-events"
		xmlns:v="http://schemas.microsoft.com/visio/2003/SVGExtensions/" width="0.984375in" height="0.96875in"
		viewBox="0 0 70.875 69.75" xml:space="preserve" color-interpolation-filters="sRGB" class="st4">
	<v:documentProperties v:langID="4108" v:metric="true" v:viewMarkup="false"/>

	<style type="text/css">
	<![CDATA[
		.st1 {fill:#ffffff;stroke:none;stroke-linecap:butt;stroke-width:0.75}
		.st2 {fill:#515150;stroke:none;stroke-linecap:butt;stroke-width:0.75}
		.st3 {fill:#2372ba;stroke:none;stroke-linecap:butt;stroke-width:0.75}
		.st4 {fill:none;fill-rule:evenodd;font-size:12px;overflow:visible;stroke-linecap:square;stroke-miterlimit:3}
	]]>
	</style>

	<g v:mID="0" v:index="1" v:groupContext="foregroundPage">
		<title>Page-1</title>
		<v:pageProperties v:drawingScale="0.0393701" v:pageScale="0.0393701" v:drawingUnits="24" v:shadowOffsetX="8.50394"
				v:shadowOffsetY="-8.50394"/>
		<v:layer v:name="symbols" v:index="0"/>
		<g id="group463-1" transform="translate(8.475,-5.85)" v:mID="463" v:groupContext="group" v:layerMember="0">
			<title>Exchange 2013 Edge Transport Server</title>
			<g id="group464-2" v:mID="464" v:groupContext="group" v:layerMember="0">
				<title>Sheet.464</title>
				<g id="shape465-3" v:mID="465" v:groupContext="shape" v:layerMember="0">
					<title>Sheet.465</title>
					<path d="M0 69.75 L0 18 C0 15.07 2.33 12.75 5.25 12.75 L26.25 12.75 C29.18 12.75 31.5 15.07 31.5 18 L31.5 69.75
								 L0 69.75 Z" class="st1"/>
				</g>
				<g id="shape466-5" v:mID="466" v:groupContext="shape" v:layerMember="0" transform="translate(2.25,-2.25)">
					<title>Sheet.466</title>
					<path d="M24 17.25 L3 17.25 C1.35 17.25 0 18.6 0 20.25 L0 69.75 L27 69.75 L27 20.25 C27 18.6 25.65 17.25 24 17.25
								 ZM21.75 63.75 L5.25 63.75 L5.25 61.5 L21.75 61.5 L21.75 63.75 ZM21.75 57 L5.25 57 L5.25 54.75 L21.75
								 54.75 L21.75 57 ZM21.75 26.25 L5.25 26.25 L5.25 24 L21.75 24 L21.75 26.25 Z" class="st2"/>
				</g>
			</g>
			<g id="group467-7" transform="translate(14.25,-8.25)" v:mID="467" v:groupContext="group" v:layerMember="0">
				<title>Sheet.467</title>
				<g id="shape468-8" v:mID="468" v:groupContext="shape" v:layerMember="0">
					<title>Sheet.468</title>
					<path d="M27.98 50.25 L20.25 50.25 L20.25 53.48 L22.28 55.5 L15.98 55.5 L18 53.4 L18 50.25 L10.27 50.25 L0 59.93
								 L9.6 69.75 L18 69.75 L18 66.6 L15.98 64.5 L22.28 64.5 L20.25 66.53 L20.25 69.75 L28.65 69.75 L38.25
								 59.93 L27.98 50.25 Z" class="st1"/>
				</g>
				<g id="shape469-10" v:mID="469" v:groupContext="shape" v:layerMember="0" transform="translate(3.225,-2.25)">
					<title>Sheet.469</title>
					<path d="M12.53 69.75 L7.43 64.5 L24.38 64.5 L19.2 69.75 L24.45 69.75 L31.8 62.25 L23.85 54.75 L19.2 54.75 L24.38
								 60 L7.43 60 L12.53 54.75 L7.95 54.75 L0 62.25 L7.35 69.75 L12.53 69.75 Z" class="st2"/>
				</g>
			</g>
			<g id="group470-12" transform="translate(31.5,-30.75)" v:mID="470" v:groupContext="group" v:layerMember="0">
				<title>Sheet.470</title>
				<g id="shape471-13" v:mID="471" v:groupContext="shape" v:layerMember="0">
					<title>Sheet.471</title>
					<path d="M27 45.75 L18.75 45.75 L18.75 41.25 L16.35 41.25 L0 43.8 L0 67.13 L16.35 69.75 L18.75 69.75 L18.75 66
								 L27 66 C28.65 66 30 64.65 30 63 L30 48.75 C30 47.1 28.65 45.75 27 45.75 Z" class="st1"/>
				</g>
				<g id="shape472-15" v:mID="472" v:groupContext="shape" v:layerMember="0" transform="translate(20.4,-8.25)">
					<title>Sheet.472</title>
					<path d="M4.42 65.48 C3.68 64.88 2.48 63.9 1.58 63.38 C1.13 63.15 0.67 62.93 0.67 62.85 C0.67 62.85 0.6 62.93
								 0.53 62.93 L0.38 63.08 C0.38 63.08 0.38 63.23 0.38 63.23 C0.38 63.23 3.15 65.93 3.45 66.23 C3.52
								 66.3 3.52 66.45 3.52 66.53 L3.52 67.95 C3.52 68.03 3.45 68.1 3.37 68.1 L1.5 68.1 C1.42 68.1 1.35
								 68.1 1.27 68.03 L0.67 67.5 C0.6 67.43 0.6 67.43 0.53 67.5 L0 68.25 C0 68.33 0 68.4 0 68.48 C0 68.48
								 1.13 69.53 1.2 69.6 C1.27 69.68 1.35 69.75 1.57 69.75 L4.72 69.75 C4.95 69.75 5.1 69.6 5.1 69.38
								 L5.1 66.38 C5.1 66.08 4.88 65.85 4.42 65.48 Z" class="st3"/>
				</g>
				<g id="shape473-17" v:mID="473" v:groupContext="shape" v:layerMember="0" transform="translate(18.675,-14.4)">
					<title>Sheet.473</title>
					<path d="M0 69.08 C-0 69.08 0.07 69.15 0.07 69.23 L0.22 69.38 C0.22 69.38 0.3 69.38 0.37 69.38 C0.38 69.38 3.07
								 66.6 3.37 66.3 C3.45 66.23 3.6 66.23 3.68 66.23 L5.1 66.23 C5.18 66.23 5.25 66.3 5.25 66.38 L5.25
								 68.25 C5.25 68.33 5.25 68.4 5.18 68.48 L4.57 69.08 C4.5 69.15 4.5 69.15 4.57 69.23 L5.32 69.75 C5.4
								 69.75 5.47 69.75 5.55 69.75 C5.55 69.75 6.6 68.63 6.68 68.55 C6.75 68.48 6.82 68.4 6.82 68.18 L6.82
								 65.03 C6.82 64.8 6.68 64.65 6.45 64.65 L3.45 64.65 C3.22 64.65 3 64.88 2.63 65.33 C2.03 66.08 1.05
								 67.28 0.52 68.18 C0.3 68.55 0.07 69 0 69.08 Z" class="st3"/>
				</g>
				<g id="shape474-19" v:mID="474" v:groupContext="shape" v:layerMember="0" transform="translate(2.25,-2.25)">
					<title>Sheet.474</title>
					<path d="M24.75 50.25 L14.25 50.25 L14.25 45.75 L0 48 L0 67.5 L14.25 69.75 L14.25 66 L24.75 66 C25.2 66 25.5
								 65.7 25.5 65.25 L25.5 51 C25.5 50.55 25.2 50.25 24.75 50.25 ZM24.38 64.88 L14.25 64.88 L14.25 63.75
								 L15.38 63.75 C15.6 63.75 15.83 63.53 16.2 63.08 C16.8 62.33 17.77 61.13 18.3 60.23 C18.52 59.78
								 18.75 59.33 18.83 59.33 C18.83 59.33 18.75 59.25 18.75 59.18 L18.6 59.03 C18.6 59.03 18.45 59.03
								 18.45 59.03 C18.45 59.03 15.75 61.8 15.45 62.1 C15.38 62.18 15.22 62.18 15.15 62.18 L14.25 62.18
								 L14.25 57.98 C14.7 58.28 15.38 58.73 15.53 58.8 C15.97 59.03 16.42 59.25 16.42 59.33 C16.42 59.33
								 16.5 59.25 16.57 59.25 L16.73 59.1 C16.73 59.1 16.73 58.95 16.73 58.95 C16.73 58.95 15.22 57.53
								 14.25 56.55 L14.25 54 L15.6 54 C15.67 54 15.75 54 15.83 54.08 L16.5 54.68 C16.57 54.75 16.57 54.75
								 16.65 54.68 L17.18 53.93 C17.18 53.85 17.18 53.78 17.18 53.7 C17.18 53.7 16.05 52.65 15.97 52.58
								 C15.83 52.58 15.75 52.5 15.53 52.5 L14.25 52.5 L14.25 51.38 L24.38 51.38 L24.38 64.88 Z"
							class="st3"/>
				</g>
				<g id="shape475-21" v:mID="475" v:groupContext="shape" v:layerMember="0" transform="translate(7.2,-8.925)">
					<title>Sheet.475</title>
					<path d="M4.35 69.75 L0 69.38 L0 60.08 L4.05 59.78 L4.05 61.58 L1.57 61.65 L1.57 63.83 L4.05 63.83 L4.05 65.63
								 L1.57 65.55 L1.57 67.73 L4.42 67.88 L4.42 69.75 L4.35 69.75 Z" class="st1"/>
				</g>
			</g>
		</g>
	</g>
</svg>
