<?xml version="1.0" encoding="UTF-8" standalone="no"?>
<!DOCTYPE svg PUBLIC "-//W3C//DTD SVG 1.1//EN" "http://www.w3.org/Graphics/SVG/1.1/DTD/svg11.dtd">
<!-- Generated by Microsoft Visio, SVG Export Exchange 2013 Client Access Server.svg Page-1 -->
<svg xmlns="http://www.w3.org/2000/svg" xmlns:xlink="http://www.w3.org/1999/xlink" xmlns:ev="http://www.w3.org/2001/xml-events"
		xmlns:v="http://schemas.microsoft.com/visio/2003/SVGExtensions/" width="1in" height="1.04687in" viewBox="0 0 72 75.375"
		xml:space="preserve" color-interpolation-filters="sRGB" class="st6">
	<v:documentProperties v:langID="4108" v:metric="true" v:viewMarkup="false"/>

	<style type="text/css">
	<![CDATA[
		.st1 {fill:#ffffff;stroke:none;stroke-linecap:butt;stroke-width:0.75}
		.st2 {fill:#515251;stroke:none;stroke-linecap:butt;stroke-width:0.75}
		.st3 {fill:#515150;stroke:none;stroke-linecap:butt;stroke-width:0.75}
		.st4 {fill:#515050;stroke:none;stroke-linecap:butt;stroke-width:0.75}
		.st5 {fill:#2372ba;stroke:none;stroke-linecap:butt;stroke-width:0.75}
		.st6 {fill:none;fill-rule:evenodd;font-size:12px;overflow:visible;stroke-linecap:square;stroke-miterlimit:3}
	]]>
	</style>

	<g v:mID="0" v:index="1" v:groupContext="foregroundPage">
		<title>Page-1</title>
		<v:pageProperties v:drawingScale="0.0393701" v:pageScale="0.0393701" v:drawingUnits="24" v:shadowOffsetX="8.50394"
				v:shadowOffsetY="-8.50394"/>
		<v:layer v:name="symbols" v:index="0"/>
		<g id="group425-1" transform="translate(8.775,-6.9375)" v:mID="425" v:groupContext="group" v:layerMember="0">
			<title>Exchange 2013 Client Access Server</title>
			<g id="group426-2" v:mID="426" v:groupContext="group" v:layerMember="0">
				<title>Sheet.426</title>
				<g id="group427-3" transform="translate(2.73781E-13,-4.5)" v:mID="427" v:groupContext="group" v:layerMember="0">
					<title>Sheet.427</title>
					<g id="shape428-4" v:mID="428" v:groupContext="shape" v:layerMember="0">
						<title>Sheet.428</title>
						<path d="M0 75.37 L0 23.62 C0 20.7 2.32 18.37 5.25 18.37 L26.25 18.37 C29.17 18.37 31.5 20.7 31.5 23.62 L31.5
									 75.37 L0 75.37 Z" class="st1"/>
					</g>
					<g id="shape429-6" v:mID="429" v:groupContext="shape" v:layerMember="0" transform="translate(2.25,-2.25)">
						<title>Sheet.429</title>
						<path d="M24 22.87 L3 22.87 C1.35 22.87 0 24.22 0 25.87 L0 75.37 L27 75.37 L27 25.87 C27 24.22 25.65 22.87
									 24 22.87 ZM21.75 69.37 L5.25 69.37 L5.25 67.12 L21.75 67.12 L21.75 69.37 ZM21.75 62.62 L5.25
									 62.62 L5.25 60.37 L21.75 60.37 L21.75 62.62 ZM21.75 31.87 L5.25 31.87 L5.25 29.62 L21.75 29.62
									 L21.75 31.87 Z" class="st2"/>
					</g>
				</g>
				<g id="group430-8" transform="translate(15,0)" v:mID="430" v:groupContext="group" v:layerMember="0">
					<title>Sheet.430</title>
					<g id="group431-9" transform="translate(5.25,0)" v:mID="431" v:groupContext="group" v:layerMember="0">
						<title>Sheet.431</title>
						<g id="shape432-10" v:mID="432" v:groupContext="shape" v:layerMember="0">
							<title>Sheet.432</title>
							<path d="M9.15 75.37 C7.42 75.37 6 73.95 6 72.22 C6 71.4 6.3 70.72 6.75 70.12 L3.75 70.12 C1.65 70.12
										 0 68.47 0 66.37 L0 49.87 C0 47.77 1.65 46.12 3.75 46.12 L30 46.12 C32.1 46.12 33.75 47.77
										 33.75 49.87 L33.75 66.37 C33.75 68.47 32.1 70.12 30 70.12 L26.85 70.12 C27.3 70.65 27.6
										 71.4 27.6 72.22 C27.6 73.95 26.18 75.37 24.45 75.37 L9.15 75.37 Z" class="st1"/>
						</g>
						<g id="shape433-12" v:mID="433" v:groupContext="shape" v:layerMember="0" transform="translate(2.25,-2.325)">
							<title>Sheet.433</title>
							<path d="M27.75 50.7 L1.5 50.7 C0.67 50.7 0 51.37 0 52.2 L0 68.7 C0 69.52 0.67 70.2 1.5 70.2 L11.25 70.2
										 C12.07 73.05 11.33 73.5 6.9 73.57 C6.38 73.57 6 74.02 6 74.47 C6 75 6.45 75.37 6.9 75.37
										 L22.2 75.37 C22.73 75.37 23.1 74.92 23.1 74.47 C23.1 73.95 22.73 73.57 22.2 73.57 C17.78
										 73.5 17.1 73.05 17.85 70.2 L27.75 70.2 C28.58 70.2 29.25 69.52 29.25 68.7 L29.25 52.2 C29.25
										 51.37 28.58 50.7 27.75 50.7 ZM27 67.95 L2.25 67.95 L2.25 52.95 L27 52.95 L27 67.95 Z"
									class="st3"/>
						</g>
					</g>
					<g id="group434-14" transform="translate(1.93845E-13,-14.85)" v:mID="434" v:groupContext="group"
							v:layerMember="0">
						<title>Sheet.434</title>
						<g id="shape435-15" v:mID="435" v:groupContext="shape" v:layerMember="0">
							<title>Sheet.435</title>
							<path d="M7.5 68.62 L7.5 74.32 L0 67.42 L0 55.72 L11.77 55.72 L18.6 63.22 L12.9 63.22 L19.65 69.97 L14.25
										 75.37 L7.5 68.62 Z" class="st1"/>
						</g>
						<g id="shape436-17" v:mID="436" v:groupContext="shape" v:layerMember="0" transform="translate(2.25,-3.15)">
							<title>Sheet.436</title>
							<path d="M12 75.37 L14.25 73.12 L5.25 64.12 L11.25 64.12 L8.47 61.12 L0 61.12 L0 69.6 L3 72.37 L3 66.37
										 L12 75.37 Z" class="st4"/>
						</g>
					</g>
				</g>
			</g>
			<g id="group437-19" transform="translate(31.5,-35.25)" v:mID="437" v:groupContext="group" v:layerMember="0">
				<title>Sheet.437</title>
				<g id="shape438-20" v:mID="438" v:groupContext="shape" v:layerMember="0">
					<title>Sheet.438</title>
					<path d="M27 51.37 L18.75 51.37 L18.75 46.87 L16.35 46.87 L0 49.42 L0 72.75 L16.35 75.37 L18.75 75.37 L18.75
								 71.62 L27 71.62 C28.65 71.62 30 70.27 30 68.62 L30 54.37 C30 52.72 28.65 51.37 27 51.37 Z"
							class="st1"/>
				</g>
				<g id="shape439-22" v:mID="439" v:groupContext="shape" v:layerMember="0" transform="translate(20.4,-8.25)">
					<title>Sheet.439</title>
					<path d="M4.42 71.1 C3.68 70.5 2.48 69.52 1.58 69 C1.13 68.77 0.67 68.55 0.67 68.47 C0.67 68.47 0.6 68.55 0.53
								 68.55 L0.38 68.7 C0.38 68.7 0.38 68.85 0.38 68.85 C0.38 68.85 3.15 71.55 3.45 71.85 C3.52 71.92
								 3.52 72.07 3.52 72.15 L3.52 73.57 C3.52 73.65 3.45 73.72 3.37 73.72 L1.5 73.72 C1.42 73.72 1.35
								 73.72 1.27 73.65 L0.67 73.12 C0.6 73.05 0.6 73.05 0.53 73.12 L0 73.87 C0 73.95 0 74.02 0 74.1 C0
								 74.1 1.13 75.15 1.2 75.22 C1.27 75.3 1.35 75.37 1.57 75.37 L4.72 75.37 C4.95 75.37 5.1 75.22 5.1
								 75 L5.1 72 C5.1 71.7 4.88 71.47 4.42 71.1 Z" class="st5"/>
				</g>
				<g id="shape440-24" v:mID="440" v:groupContext="shape" v:layerMember="0" transform="translate(18.675,-14.4)">
					<title>Sheet.440</title>
					<path d="M0 74.7 C-0 74.7 0.07 74.77 0.07 74.85 L0.22 75 C0.22 75 0.3 75 0.37 75 C0.38 75 3.07 72.22 3.37 71.92
								 C3.45 71.85 3.6 71.85 3.68 71.85 L5.1 71.85 C5.18 71.85 5.25 71.92 5.25 72 L5.25 73.87 C5.25 73.95
								 5.25 74.02 5.18 74.1 L4.57 74.7 C4.5 74.77 4.5 74.77 4.57 74.85 L5.32 75.37 C5.4 75.37 5.47 75.37
								 5.55 75.37 C5.55 75.37 6.6 74.25 6.68 74.17 C6.75 74.1 6.82 74.02 6.82 73.8 L6.82 70.65 C6.82 70.42
								 6.68 70.27 6.45 70.27 L3.45 70.27 C3.22 70.27 3 70.5 2.63 70.95 C2.03 71.7 1.05 72.9 0.52 73.8 C0.3
								 74.17 0.07 74.62 0 74.7 Z" class="st5"/>
				</g>
				<g id="shape441-26" v:mID="441" v:groupContext="shape" v:layerMember="0" transform="translate(2.25,-2.25)">
					<title>Sheet.441</title>
					<path d="M24.75 55.87 L14.25 55.87 L14.25 51.37 L0 53.62 L0 73.12 L14.25 75.37 L14.25 71.62 L24.75 71.62 C25.2
								 71.62 25.5 71.32 25.5 70.87 L25.5 56.62 C25.5 56.17 25.2 55.87 24.75 55.87 ZM24.38 70.5 L14.25 70.5
								 L14.25 69.37 L15.38 69.37 C15.6 69.37 15.83 69.15 16.2 68.7 C16.8 67.95 17.77 66.75 18.3 65.85 C18.52
								 65.4 18.75 64.95 18.83 64.95 C18.83 64.95 18.75 64.87 18.75 64.8 L18.6 64.65 C18.6 64.65 18.45 64.65
								 18.45 64.65 C18.45 64.65 15.75 67.42 15.45 67.72 C15.38 67.8 15.22 67.8 15.15 67.8 L14.25 67.8 L14.25
								 63.6 C14.7 63.9 15.38 64.35 15.53 64.42 C15.97 64.65 16.42 64.87 16.42 64.95 C16.42 64.95 16.5 64.87
								 16.57 64.87 L16.73 64.72 C16.73 64.72 16.73 64.57 16.73 64.57 C16.73 64.57 15.22 63.15 14.25 62.17
								 L14.25 59.62 L15.6 59.62 C15.67 59.62 15.75 59.62 15.83 59.7 L16.5 60.3 C16.57 60.37 16.57 60.37
								 16.65 60.3 L17.18 59.55 C17.18 59.47 17.18 59.4 17.18 59.32 C17.18 59.32 16.05 58.27 15.97 58.2
								 C15.83 58.2 15.75 58.12 15.53 58.12 L14.25 58.12 L14.25 57 L24.38 57 L24.38 70.5 Z" class="st5"/>
				</g>
				<g id="shape442-28" v:mID="442" v:groupContext="shape" v:layerMember="0" transform="translate(7.2,-8.925)">
					<title>Sheet.442</title>
					<path d="M4.35 75.37 L0 75 L0 65.7 L4.05 65.4 L4.05 67.2 L1.57 67.27 L1.57 69.45 L4.05 69.45 L4.05 71.25 L1.57
								 71.17 L1.57 73.35 L4.42 73.5 L4.42 75.37 L4.35 75.37 Z" class="st1"/>
				</g>
			</g>
		</g>
	</g>
</svg>
