<?xml version="1.0" encoding="UTF-8" standalone="no"?>
<!DOCTYPE svg PUBLIC "-//W3C//DTD SVG 1.1//EN" "http://www.w3.org/Graphics/SVG/1.1/DTD/svg11.dtd">
<!-- Generated by Microsoft Visio, SVG Export Exchange 2010 UM Server Role.svg Page-1 -->
<svg xmlns="http://www.w3.org/2000/svg" xmlns:xlink="http://www.w3.org/1999/xlink" xmlns:ev="http://www.w3.org/2001/xml-events"
		xmlns:v="http://schemas.microsoft.com/visio/2003/SVGExtensions/" width="0.914844in" height="1.03125in"
		viewBox="0 0 65.8688 74.25" xml:space="preserve" color-interpolation-filters="sRGB" class="st8">
	<v:documentProperties v:langID="4108" v:metric="true" v:viewMarkup="false"/>

	<style type="text/css">
	<![CDATA[
		.st1 {fill:#ffffff}
		.st2 {stroke:none;stroke-linecap:butt;stroke-width:0.75}
		.st3 {fill:#505050;stroke:none;stroke-linecap:butt;stroke-width:0.75}
		.st4 {fill:#ffffff;stroke:none;stroke-linecap:butt;stroke-width:0.75}
		.st5 {fill:#f79421;stroke:none;stroke-linecap:butt;stroke-width:0.75}
		.st6 {fill:url(#grad0-25);stroke:#f2f2f2;stroke-linecap:round;stroke-linejoin:round;stroke-width:0.1878}
		.st7 {fill:url(#grad7-35);stroke:#f2f2f2;stroke-linecap:round;stroke-linejoin:round;stroke-width:0.1878}
		.st8 {fill:none;fill-rule:evenodd;font-size:12px;overflow:visible;stroke-linecap:square;stroke-miterlimit:3}
	]]>
	</style>

	<defs id="Patterns_And_Gradients">
		<linearGradient id="grad0-25" x1="0" y1="0" x2="1" y2="0" gradientTransform="rotate(90 0.5 0.5)">
			<stop offset="0" stop-color="#ffffff" stop-opacity="1"/>
			<stop offset="1" stop-color="#ffffff" stop-opacity="1"/>
		</linearGradient>
		<radialGradient id="grad7-35" cx="0" cy="0" r="1.4">
			<stop offset="0" stop-color="#ffffff" stop-opacity="1"/>
			<stop offset="1" stop-color="#ffffff" stop-opacity="1"/>
		</radialGradient>
	</defs>
	<g v:mID="0" v:index="1" v:groupContext="foregroundPage">
		<title>Page-1</title>
		<v:pageProperties v:drawingScale="0.0393701" v:pageScale="0.0393701" v:drawingUnits="24" v:shadowOffsetX="8.50394"
				v:shadowOffsetY="-8.50394"/>
		<v:layer v:name="symbols" v:index="0"/>
		<g id="group538-1" transform="translate(8.34375,-5.85)" v:mID="538" v:groupContext="group" v:layerMember="0">
			<title>Exchange 2010 UM Server Role</title>
			<g id="group539-2" v:mID="539" v:groupContext="group" v:layerMember="0">
				<title>Sheet.539</title>
				<g id="group540-3" v:mID="540" v:groupContext="group" v:layerMember="0">
					<title>Sheet.540</title>
					<g id="shape541-4" v:mID="541" v:groupContext="shape" v:layerMember="0" transform="translate(0,-4.5)">
						<title>Sheet.541</title>
						<path d="M0 22.5 C0 19.58 2.33 17.25 5.25 17.25 L26.25 17.25 C29.18 17.25 31.5 19.58 31.5 22.5 L31.5 74.25
									 L0 74.25 L0 22.5 Z" class="st1"/>
						<path d="M0 22.5 C0 19.58 2.33 17.25 5.25 17.25 L26.25 17.25 C29.18 17.25 31.5 19.58 31.5 22.5 L31.5 74.25
									 L0 74.25" class="st2"/>
					</g>
					<g id="shape542-7" v:mID="542" v:groupContext="shape" v:layerMember="0" transform="translate(2.25,-6.75)">
						<title>Sheet.542</title>
						<path d="M24 21.75 L3 21.75 C1.35 21.75 0 23.1 0 24.75 L0 74.25 L27 74.25 L27 24.75 C27 23.1 25.65 21.75
									 24 21.75 ZM21.75 68.25 L5.25 68.25 L5.25 66 L21.75 66 L21.75 68.25 ZM21.75 61.5 L5.25 61.5 L5.25
									 59.25 L21.75 59.25 L21.75 61.5 ZM21.75 30.75 L5.25 30.75 L5.25 28.5 L21.75 28.5 L21.75 30.75
									 Z" class="st3"/>
					</g>
					<g id="group543-9" transform="translate(16.725,0)" v:mID="543" v:groupContext="group" v:layerMember="0">
						<title>Sheet.543</title>
						<g id="shape544-10" v:mID="544" v:groupContext="shape" v:layerMember="0">
							<title>Sheet.544</title>
							<path d="M29.78 45 L11.78 45 C10.73 45 9.82 45.38 9.15 45.98 C8.77 45.68 8.33 45.45 7.8 45.3 C6.98 45.08
										 6.53 45 5.48 45 C4.43 45 3.9 45.08 3.08 45.3 C1.28 45.83 0.23 47.18 0.08 49.05 C-0 49.58
										 0.08 50.25 0.08 51.38 C0.15 52.95 0.23 55.5 0.23 59.93 C0.23 63.45 0.15 65.7 0.08 67.28
										 C0 68.55 -0 69.38 0.08 70.13 C0.15 72 1.35 73.43 3.15 73.95 C3.9 74.18 4.65 74.25 5.4 74.25
										 C6.23 74.25 6.98 74.18 7.8 73.95 C8.33 73.8 8.85 73.58 9.23 73.2 C9.9 73.8 10.8 74.18 11.85
										 74.18 L29.85 74.18 C32.03 74.18 33.6 72.6 33.6 70.43 L33.6 48.75 C33.53 46.58 31.95 45 29.78
										 45 Z" class="st4"/>
						</g>
						<g id="shape545-12" v:mID="545" v:groupContext="shape" v:layerMember="0" transform="translate(2.1,-2.175)">
							<title>Sheet.545</title>
							<path d="M6.45 51.38 C6.38 50.4 5.85 49.88 5.03 49.58 C4.5 49.43 4.28 49.35 3.3 49.35 C2.4 49.35 2.18
										 49.43 1.58 49.58 C0.75 49.88 0.23 50.4 0.15 51.38 C0.07 52.43 0.3 54.6 0.3 62.1 C0.3 68.4
										 0 70.73 0.15 72.23 C0.23 73.2 0.75 73.73 1.58 74.03 C2.1 74.18 2.63 74.25 3.23 74.25 C3.83
										 74.25 4.43 74.18 4.95 74.03 C5.78 73.8 6.3 73.2 6.38 72.23 C6.45 70.73 6.23 68.63 6.23 62.25
										 C6.3 54.83 6.53 52.5 6.45 51.38 Z" class="st3"/>
						</g>
						<g id="shape546-14" v:mID="546" v:groupContext="shape" v:layerMember="0"
								transform="translate(10.275,-2.25)">
							<title>Sheet.546</title>
							<path d="M19.5 49.5 L1.5 49.5 C0.53 49.5 0 50.03 0 51 L0 72.75 C0 73.73 0.53 74.25 1.5 74.25 L19.5 74.25
										 C20.48 74.25 21 73.73 21 72.75 L21 51 C21 50.03 20.48 49.5 19.5 49.5 ZM7.5 69.75 C7.5 70.2
										 7.2 70.5 6.75 70.5 L5.25 70.5 C4.8 70.5 4.5 70.2 4.5 69.75 L4.5 69 C4.5 68.55 4.8 68.25
										 5.25 68.25 L6.75 68.25 C7.2 68.25 7.5 68.55 7.5 69 L7.5 69.75 ZM7.5 66 C7.5 66.45 7.2 66.75
										 6.75 66.75 L5.25 66.75 C4.8 66.75 4.5 66.45 4.5 66 L4.5 65.25 C4.5 64.8 4.8 64.5 5.25 64.5
										 L6.75 64.5 C7.2 64.5 7.5 64.8 7.5 65.25 L7.5 66 ZM7.5 62.25 C7.5 62.7 7.2 63 6.75 63 L5.25
										 63 C4.8 63 4.5 62.7 4.5 62.25 L4.5 61.5 C4.5 61.05 4.8 60.75 5.25 60.75 L6.75 60.75 C7.2
										 60.75 7.5 61.05 7.5 61.5 L7.5 62.25 ZM12 69.75 C12 70.2 11.7 70.5 11.25 70.5 L9.75 70.5
										 C9.3 70.5 9 70.2 9 69.75 L9 69 C9 68.55 9.3 68.25 9.75 68.25 L11.25 68.25 C11.7 68.25 12
										 68.55 12 69 L12 69.75 ZM12 66 C12 66.45 11.7 66.75 11.25 66.75 L9.75 66.75 C9.3 66.75 9
										 66.45 9 66 L9 65.25 C9 64.8 9.3 64.5 9.75 64.5 L11.25 64.5 C11.7 64.5 12 64.8 12 65.25 L12
										 66 ZM12 62.25 C12 62.7 11.7 63 11.25 63 L9.75 63 C9.3 63 9 62.7 9 62.25 L9 61.5 C9 61.05
										 9.3 60.75 9.75 60.75 L11.25 60.75 C11.7 60.75 12 61.05 12 61.5 L12 62.25 ZM16.5 69.75 C16.5
										 70.2 16.2 70.5 15.75 70.5 L14.25 70.5 C13.8 70.5 13.5 70.2 13.5 69.75 L13.5 69 C13.5 68.55
										 13.8 68.25 14.25 68.25 L15.75 68.25 C16.2 68.25 16.5 68.55 16.5 69 L16.5 69.75 ZM16.5 66
										 C16.5 66.45 16.2 66.75 15.75 66.75 L14.25 66.75 C13.8 66.75 13.5 66.45 13.5 66 L13.5 65.25
										 C13.5 64.8 13.8 64.5 14.25 64.5 L15.75 64.5 C16.2 64.5 16.5 64.8 16.5 65.25 L16.5 66 ZM16.5
										 62.25 C16.5 62.7 16.2 63 15.75 63 L14.25 63 C13.8 63 13.5 62.7 13.5 62.25 L13.5 61.5 C13.5
										 61.05 13.8 60.75 14.25 60.75 L15.75 60.75 C16.2 60.75 16.5 61.05 16.5 61.5 L16.5 62.25 ZM17.25
										 57.75 L3.75 57.75 L3.75 52.5 L17.25 52.5 L17.25 57.75 Z" class="st3"/>
						</g>
					</g>
				</g>
				<g id="group547-16" transform="translate(31.5,-39)" v:mID="547" v:groupContext="group" v:layerMember="0">
					<title>Sheet.547</title>
					<g id="shape548-17" v:mID="548" v:groupContext="shape" v:layerMember="0">
						<title>Sheet.548</title>
						<rect x="0" y="49.5" width="24.75" height="24.75" class="st4"/>
					</g>
					<g id="shape549-19" v:mID="549" v:groupContext="shape" v:layerMember="0" transform="translate(2.25,-2.25)">
						<title>Sheet.549</title>
						<rect x="0" y="54" width="20.25" height="20.25" class="st5"/>
					</g>
					<g id="group550-21" transform="translate(6.225,-6.225)" v:mID="550" v:groupContext="group" v:layerMember="0">
						<title>Sheet.550</title>
						<g id="shape551-22" v:mID="551" v:groupContext="shape" v:layerMember="0" transform="translate(5.1,-6.75)">
							<title>Sheet.551</title>
							<path d="M6.6 68.78 L3.68 68.78 C3.3 68.78 3.3 68.78 3.08 69 L1.58 70.73 C0.23 72.53 0.08 73.13 0 73.5
										 C-0 73.65 0.22 74.03 0.22 74.03 L0.3 74.1 C0.38 73.88 0.38 73.8 0.53 73.5 C0.75 73.05 0.98
										 72.9 1.28 72.45 C1.72 71.93 1.88 71.78 2.33 71.4 C2.85 70.88 3.38 70.58 3.38 70.58 C3.38
										 70.58 5.33 70.58 5.33 70.58 C5.33 70.58 5.4 70.58 5.4 70.58 C5.4 70.58 5.4 72.6 5.4 72.6
										 C5.4 72.6 4.73 73.65 4.73 73.73 C4.73 73.73 5.63 74.25 5.7 74.18 L7.05 72.98 C7.13 72.9
										 7.2 72.75 7.2 72.68 L7.2 69.38 C7.13 68.93 6.98 68.78 6.6 68.78 Z" class="st6"/>
						</g>
						<g id="shape552-26" v:mID="552" v:groupContext="shape" v:layerMember="0" transform="translate(0.075,-4.95)">
							<title>Sheet.552</title>
							<path d="M0 67.58 L0 70.5 C0 70.88 -0 70.88 0.22 71.1 L1.95 72.68 C3.68 74.03 4.35 74.18 4.72 74.25 C4.88
										 74.25 5.25 74.03 5.25 74.03 L5.32 73.95 C5.17 73.88 5.02 73.88 4.73 73.73 C4.28 73.5 4.13
										 73.28 3.68 72.98 C3.15 72.53 3 72.38 2.63 71.93 C2.1 71.4 1.8 70.88 1.8 70.88 C1.8 70.88
										 1.8 68.85 1.8 68.85 C1.8 68.85 1.8 68.78 1.8 68.78 C1.8 68.78 3.82 68.78 3.83 68.78 C3.82
										 68.78 4.88 69.45 4.95 69.45 C4.95 69.45 5.48 68.55 5.4 68.48 L4.2 67.13 C4.13 67.05 3.97
										 66.98 3.9 66.98 L0.68 66.98 C0.15 67.05 0 67.2 0 67.58 Z" class="st6"/>
						</g>
						<g id="shape553-29" v:mID="553" v:groupContext="shape" v:layerMember="0">
							<title>Sheet.553</title>
							<path d="M0.53 74.25 L3.45 74.25 C3.83 74.25 3.83 74.25 4.05 74.03 L5.63 72.3 C6.98 70.5 7.13 69.9 7.2
										 69.53 C7.2 69.38 6.98 69 6.98 69 L6.9 68.93 C6.83 69.08 6.83 69.23 6.68 69.53 C6.45 69.98
										 6.23 70.13 5.93 70.58 C5.48 71.1 5.33 71.25 4.88 71.63 C4.35 72.15 3.83 72.45 3.83 72.45
										 C3.83 72.45 1.88 72.45 1.88 72.45 C1.88 72.45 1.8 72.45 1.8 72.45 C1.8 72.45 1.8 70.43 1.8
										 70.43 C1.8 70.43 2.48 69.38 2.48 69.3 C2.48 69.3 1.58 68.78 1.5 68.85 L0.15 70.05 C0.08
										 70.13 0 70.28 0 70.35 L0 73.73 C0 74.1 0.15 74.25 0.53 74.25 Z" class="st6"/>
						</g>
						<g id="shape554-32" v:mID="554" v:groupContext="shape" v:layerMember="0" transform="translate(6.825,0)">
							<title>Sheet.554</title>
							<path d="M5.48 73.65 L5.48 70.73 C5.48 70.35 5.48 70.35 5.25 70.13 L3.53 68.55 C1.8 67.2 1.12 67.05 0.75
										 66.98 C0.6 66.98 0.22 67.2 0.22 67.2 L0.15 67.28 C0.3 67.35 0.45 67.35 0.75 67.5 C1.2 67.73
										 1.35 67.95 1.8 68.25 C2.33 68.7 2.48 68.85 2.85 69.3 C3.38 69.83 3.68 70.35 3.68 70.35 C3.68
										 70.35 3.68 72.38 3.68 72.38 C3.68 72.38 3.68 72.45 3.68 72.45 C3.68 72.45 1.65 72.45 1.65
										 72.45 C1.65 72.45 0.6 71.78 0.53 71.78 C0.53 71.78 0 72.68 0.08 72.75 L1.28 74.1 C1.35 74.18
										 1.5 74.25 1.58 74.25 L4.8 74.25 C5.25 74.25 5.48 74.03 5.48 73.65 Z" class="st7"/>
						</g>
					</g>
				</g>
			</g>
		</g>
	</g>
</svg>
