<?xml version="1.0" encoding="UTF-8" standalone="no"?>
<!DOCTYPE svg PUBLIC "-//W3C//DTD SVG 1.1//EN" "http://www.w3.org/Graphics/SVG/1.1/DTD/svg11.dtd">
<!-- Generated by Microsoft Visio, SVG Export File Server.svg Page-1 -->
<svg xmlns="http://www.w3.org/2000/svg" xmlns:xlink="http://www.w3.org/1999/xlink" xmlns:ev="http://www.w3.org/2001/xml-events"
		xmlns:v="http://schemas.microsoft.com/visio/2003/SVGExtensions/" width="0.875in" height="1.03125in" viewBox="0 0 63 74.25"
		xml:space="preserve" color-interpolation-filters="sRGB" class="st4">
	<v:documentProperties v:langID="4108" v:metric="true" v:viewMarkup="false"/>

	<style type="text/css">
	<![CDATA[
		.st1 {fill:#ffffff;stroke:none;stroke-linecap:butt;stroke-width:0.75}
		.st2 {fill:#515050;stroke:none;stroke-linecap:butt;stroke-width:0.75}
		.st3 {fill:#515150;stroke:none;stroke-linecap:butt;stroke-width:0.75}
		.st4 {fill:none;fill-rule:evenodd;font-size:12px;overflow:visible;stroke-linecap:square;stroke-miterlimit:3}
	]]>
	</style>

	<g v:mID="0" v:index="1" v:groupContext="foregroundPage">
		<title>Page-1</title>
		<v:pageProperties v:drawingScale="0.0393701" v:pageScale="0.0393701" v:drawingUnits="24" v:shadowOffsetX="8.50394"
				v:shadowOffsetY="-8.50394"/>
		<v:layer v:name="symbols" v:index="0"/>
		<g id="group574-1" transform="translate(9.1875,-7.35)" v:mID="574" v:groupContext="group" v:layerMember="0">
			<title>File Server</title>
			<g id="group575-2" v:mID="575" v:groupContext="group" v:layerMember="0">
				<title>Sheet.575</title>
				<g id="group576-3" transform="translate(0,-3.75)" v:mID="576" v:groupContext="group" v:layerMember="0">
					<title>Sheet.576</title>
					<g id="shape577-4" v:mID="577" v:groupContext="shape" v:layerMember="0">
						<title>Sheet.577</title>
						<path d="M0 74.25 L0 22.5 C0 19.58 2.33 17.25 5.25 17.25 L26.25 17.25 C29.18 17.25 31.5 19.58 31.5 22.5 L31.5
									 74.25 L0 74.25 Z" class="st1"/>
					</g>
					<g id="shape578-6" v:mID="578" v:groupContext="shape" v:layerMember="0" transform="translate(2.25,-2.25)">
						<title>Sheet.578</title>
						<path d="M24 21.75 L3 21.75 C1.35 21.75 0 23.1 0 24.75 L0 74.25 L27 74.25 L27 24.75 C27 23.1 25.65 21.75
									 24 21.75 ZM21.75 68.25 L5.25 68.25 L5.25 66 L21.75 66 L21.75 68.25 ZM21.75 61.5 L5.25 61.5 L5.25
									 59.25 L21.75 59.25 L21.75 61.5 ZM21.75 30.75 L5.25 30.75 L5.25 28.5 L21.75 28.5 L21.75 30.75
									 Z" class="st2"/>
					</g>
				</g>
				<g id="group579-8" transform="translate(15.75,0)" v:mID="579" v:groupContext="group" v:layerMember="0">
					<title>Sheet.579</title>
					<g id="shape580-9" v:mID="580" v:groupContext="shape" v:layerMember="0">
						<title>Sheet.580</title>
						<path d="M29.7 42.75 L22.57 42.75 C20.92 42.75 19.95 43.65 19.05 44.47 L15.15 48.07 L4.05 48.07 C1.8 48.07
									 0 49.88 0 52.13 L0 74.25 L33.75 74.25 L33.75 51 L33.75 48.07 L33.75 47.03 C33.75 44.7 31.87
									 42.75 29.7 42.75 Z" class="st1"/>
					</g>
					<g id="shape581-11" v:mID="581" v:groupContext="shape" v:layerMember="0" transform="translate(17.775,-25.5)">
						<title>Sheet.581</title>
						<path d="M4.8 70.5 C4.12 70.5 3.6 70.8 2.85 71.62 L0 74.25 L13.73 74.25 L13.73 72.45 C13.73 71.47 12.98 70.5
									 11.92 70.5 L4.8 70.5 Z" class="st3"/>
					</g>
					<g id="shape582-13" v:mID="582" v:groupContext="shape" v:layerMember="0" transform="translate(2.25,-2.25)">
						<title>Sheet.582</title>
						<path d="M1.8 52.57 C0.82 52.57 0 53.4 0 54.37 L0 74.25 L29.25 74.25 L29.25 55.65 L29.25 54.3 L29.25 52.5
									 L1.8 52.5 L1.8 52.57 Z" class="st3"/>
					</g>
				</g>
			</g>
		</g>
	</g>
</svg>
