<?xml version="1.0" encoding="UTF-8" standalone="no"?>
<!DOCTYPE svg PUBLIC "-//W3C//DTD SVG 1.1//EN" "http://www.w3.org/Graphics/SVG/1.1/DTD/svg11.dtd">
<!-- Generated by Microsoft Visio, SVG Export Hybrid Server.svg Page-1 -->
<svg xmlns="http://www.w3.org/2000/svg" xmlns:xlink="http://www.w3.org/1999/xlink" xmlns:ev="http://www.w3.org/2001/xml-events"
		xmlns:v="http://schemas.microsoft.com/visio/2003/SVGExtensions/" width="1.04687in" height="0.953125in"
		viewBox="0 0 75.375 68.625" xml:space="preserve" color-interpolation-filters="sRGB" class="st3">
	<v:documentProperties v:langID="4108" v:metric="true" v:viewMarkup="false"/>

	<style type="text/css">
	<![CDATA[
		.st1 {fill:#ffffff;stroke:none;stroke-linecap:butt;stroke-width:0.75}
		.st2 {fill:#515050;stroke:none;stroke-linecap:butt;stroke-width:0.75}
		.st3 {fill:none;fill-rule:evenodd;font-size:12px;overflow:visible;stroke-linecap:square;stroke-miterlimit:3}
	]]>
	</style>

	<g v:mID="0" v:index="1" v:groupContext="foregroundPage">
		<title>Page-1</title>
		<v:pageProperties v:drawingScale="0.0393701" v:pageScale="0.0393701" v:drawingUnits="24" v:shadowOffsetX="8.50394"
				v:shadowOffsetY="-8.50394"/>
		<v:layer v:name="symbols" v:index="0"/>
		<g id="group583-1" transform="translate(9.1875,-5.85)" v:mID="583" v:groupContext="group" v:layerMember="0">
			<title>Hybrid Server</title>
			<g id="group584-2" transform="translate(5.25,-6)" v:mID="584" v:groupContext="group" v:layerMember="0">
				<title>Sheet.584</title>
				<g id="shape585-3" v:mID="585" v:groupContext="shape" v:layerMember="0">
					<title>Sheet.585</title>
					<path d="M9.3 68.63 L7.8 68.33 L7.72 68.33 C3.15 67.05 0 62.78 0 57.9 C0 54.38 1.65 51.15 4.27 49.2 C4.27 42.23
								 9.68 36.6 16.28 36.6 C17.33 36.6 18.37 36.75 19.42 37.05 C21.75 33.9 25.27 32.03 29.1 32.03 C34.88
								 32.03 39.82 36.3 41.1 42.08 C43.73 42.23 46.2 43.5 48 45.6 C53.85 45.75 58.5 50.85 58.5 57.08 C58.5
								 63.45 53.55 68.63 47.47 68.63 L9.3 68.63 Z" class="st1"/>
				</g>
				<g id="shape586-5" v:mID="586" v:groupContext="shape" v:layerMember="0" transform="translate(2.25,-2.25)">
					<title>Sheet.586</title>
					<path d="M0 60.15 C0 64.05 2.47 67.43 6.07 68.4 L7.27 68.63 L45.22 68.63 C50.1 68.63 54 64.43 54 59.33 C54 54.23
								 50.1 50.03 45.3 50.03 C45.07 50.03 44.92 50.03 44.7 50.03 C43.2 47.78 40.87 46.5 38.25 46.5 C37.8
								 46.5 37.43 46.58 36.97 46.65 C36.68 41.03 32.25 36.53 26.85 36.53 C23.25 36.53 19.88 38.7 18.07
								 42.08 C16.8 41.48 15.37 41.1 14.02 41.1 C8.62 41.1 4.28 45.75 4.28 51.53 C4.28 51.9 4.28 52.28 4.35
								 52.65 C1.72 54 0 56.93 0 60.15 ZM2.25 60.15 C2.25 57.75 3.45 55.65 5.4 54.6 L6.75 53.85 L6.6 52.35
								 C6.6 52.05 6.52 51.75 6.52 51.45 C6.52 46.95 9.9 43.28 14.02 43.28 C15.08 43.28 16.12 43.5 17.1
								 44.03 L19.05 45 L20.1 43.05 C21.52 40.35 24.07 38.7 26.85 38.7 C30.97 38.7 34.42 42.23 34.73 46.73
								 L34.87 49.28 L37.35 48.83 C37.65 48.75 37.95 48.75 38.25 48.75 C40.05 48.75 41.7 49.65 42.83 51.3
								 L43.57 52.43 L44.85 52.35 C45 52.35 45.15 52.35 45.3 52.35 C48.83 52.35 51.75 55.5 51.75 59.4 C51.75
								 63.3 48.83 66.45 45.22 66.45 L7.5 66.45 L6.6 66.3 C4.05 65.48 2.25 63 2.25 60.15 Z" class="st2"/>
				</g>
			</g>
			<g id="group587-7" v:mID="587" v:groupContext="group" v:layerMember="0">
				<title>Sheet.587</title>
				<g id="shape588-8" v:mID="588" v:groupContext="shape" v:layerMember="0">
					<title>Sheet.588</title>
					<path d="M0 68.63 L0 16.88 C-0 13.95 2.32 11.63 5.25 11.63 L26.25 11.63 C29.17 11.63 31.5 13.95 31.5 16.88 L31.5
								 68.63 L0 68.63 Z" class="st1"/>
				</g>
				<g id="shape589-10" v:mID="589" v:groupContext="shape" v:layerMember="0" transform="translate(2.25,-2.25)">
					<title>Sheet.589</title>
					<path d="M24 16.13 L3 16.13 C1.35 16.13 0 17.48 0 19.13 L0 68.63 L27 68.63 L27 19.13 C27 17.48 25.65 16.13 24
								 16.13 ZM21.75 62.63 L5.25 62.63 L5.25 60.38 L21.75 60.38 L21.75 62.63 ZM21.75 55.88 L5.25 55.88
								 L5.25 53.63 L21.75 53.63 L21.75 55.88 ZM21.75 25.13 L5.25 25.13 L5.25 22.88 L21.75 22.88 L21.75
								 25.13 Z" class="st2"/>
				</g>
			</g>
			<g id="group590-12" transform="translate(16.5,-10.5)" v:mID="590" v:groupContext="group" v:layerMember="0">
				<title>Sheet.590</title>
				<g id="shape591-13" v:mID="591" v:groupContext="shape" v:layerMember="0">
					<title>Sheet.591</title>
					<path d="M22.5 53.63 L24 53.63 L24 46.13 L13.5 46.13 L14.85 44.78 L14.85 41.63 L7.87 41.63 L0 49.8 L6.45 56.63
								 L5.25 56.63 L5.25 64.13 L15.37 64.13 L14.1 65.48 L14.1 68.63 L21 68.63 L28.88 60.45 L22.5 53.63
								 Z" class="st1"/>
				</g>
				<g id="shape592-15" v:mID="592" v:groupContext="shape" v:layerMember="0" transform="translate(3.075,-12.75)">
					<title>Sheet.592</title>
					<path d="M18.68 61.13 L8.78 61.13 L5.02 61.13 L9.53 56.63 L5.77 56.63 L0 62.63 L5.77 68.63 L9.53 68.63 L5.02
								 64.13 L8.78 64.13 L18.68 64.13 L18.68 61.13 Z" class="st2"/>
				</g>
				<g id="shape593-17" v:mID="593" v:groupContext="shape" v:layerMember="0" transform="translate(7.5,-2.25)">
					<title>Sheet.593</title>
					<path d="M0 64.13 L9.6 64.13 L13.35 64.13 L8.85 68.63 L12.6 68.63 L18.3 62.63 L12.6 56.63 L8.85 56.63 L13.35
								 61.13 L9.6 61.13 L0 61.13 L0 64.13 Z" class="st2"/>
				</g>
			</g>
		</g>
	</g>
</svg>
