<?xml version="1.0" encoding="UTF-8" standalone="no"?>
<!DOCTYPE svg PUBLIC "-//W3C//DTD SVG 1.1//EN" "http://www.w3.org/Graphics/SVG/1.1/DTD/svg11.dtd">
<!-- Generated by Microsoft Visio, SVG Export Mainframe.svg Page-1 -->
<svg xmlns="http://www.w3.org/2000/svg" xmlns:xlink="http://www.w3.org/1999/xlink" xmlns:ev="http://www.w3.org/2001/xml-events"
		xmlns:v="http://schemas.microsoft.com/visio/2003/SVGExtensions/" width="1.0625in" height="0.828125in"
		viewBox="0 0 76.5 59.625" xml:space="preserve" color-interpolation-filters="sRGB" class="st3">
	<v:documentProperties v:langID="4108" v:metric="true" v:viewMarkup="false"/>

	<style type="text/css">
	<![CDATA[
		.st1 {fill:#ffffff;stroke:none;stroke-linecap:butt;stroke-width:0.75}
		.st2 {fill:#515050;stroke:none;stroke-linecap:butt;stroke-width:0.75}
		.st3 {fill:none;fill-rule:evenodd;font-size:12px;overflow:visible;stroke-linecap:square;stroke-miterlimit:3}
	]]>
	</style>

	<g v:mID="0" v:index="1" v:groupContext="foregroundPage">
		<title>Page-1</title>
		<v:pageProperties v:drawingScale="0.0393701" v:pageScale="0.0393701" v:drawingUnits="24" v:shadowOffsetX="8.50394"
				v:shadowOffsetY="-8.50394"/>
		<v:layer v:name="symbols" v:index="0"/>
		<g id="group594-1" transform="translate(7.3125,-6.5625)" v:mID="594" v:groupContext="group" v:layerMember="0">
			<title>Mainframe</title>
			<g id="group595-2" v:mID="595" v:groupContext="group" v:layerMember="0">
				<title>Sheet.595</title>
				<g id="shape596-3" v:mID="596" v:groupContext="shape" v:layerMember="0">
					<title>Sheet.596</title>
					<path d="M62.25 16.88 C62.25 14.78 60.6 13.13 58.5 13.13 L40.5 13.13 C39.45 13.13 38.55 13.58 37.88 14.18 C37.2
								 13.58 36.3 13.13 35.25 13.13 L27 13.13 C25.95 13.13 25.05 13.58 24.37 14.18 C23.7 13.58 22.8 13.13
								 21.75 13.13 L3.75 13.13 C1.65 13.13 0 14.78 0 16.88 L0 55.88 L2.25 55.88 L2.25 59.63 L60 59.63 L60
								 55.88 L62.25 55.88 L62.25 16.88 Z" class="st1"/>
				</g>
				<g id="shape597-5" v:mID="597" v:groupContext="shape" v:layerMember="0" transform="translate(2.25,-6)">
					<title>Sheet.597</title>
					<path d="M21 59.63 L0 59.63 L0 22.88 C-0 22.05 0.67 21.38 1.5 21.38 L19.5 21.38 C20.32 21.38 21 22.05 21 22.88
								 L21 59.63 Z" class="st2"/>
				</g>
				<g id="shape598-7" v:mID="598" v:groupContext="shape" v:layerMember="0" transform="translate(39,-6)">
					<title>Sheet.598</title>
					<path d="M21 59.63 L0 59.63 L0 22.88 C0 22.05 0.67 21.38 1.5 21.38 L19.5 21.38 C20.32 21.38 21 22.05 21 22.88
								 L21 59.63 Z" class="st2"/>
				</g>
				<g id="shape599-9" v:mID="599" v:groupContext="shape" v:layerMember="0" transform="translate(25.5,-6)">
					<title>Sheet.599</title>
					<path d="M11.25 59.63 L0 59.63 L0 22.88 C0 22.05 0.68 21.38 1.5 21.38 L9.75 21.38 C10.58 21.38 11.25 22.05 11.25
								 22.88 L11.25 59.63 Z" class="st2"/>
				</g>
				<g id="shape600-11" v:mID="600" v:groupContext="shape" v:layerMember="0" transform="translate(4.5,-2.25)">
					<title>Sheet.600</title>
					<rect x="0" y="57.375" width="53.25" height="2.25" class="st2"/>
				</g>
				<g id="shape601-13" v:mID="601" v:groupContext="shape" v:layerMember="0" transform="translate(5.25,-36.75)">
					<title>Sheet.601</title>
					<rect x="0" y="56.625" width="15" height="3" class="st1"/>
				</g>
				<g id="shape602-15" v:mID="602" v:groupContext="shape" v:layerMember="0" transform="translate(42,-38.25)">
					<title>Sheet.602</title>
					<rect x="0" y="56.625" width="15" height="3" class="st1"/>
				</g>
				<g id="shape603-17" v:mID="603" v:groupContext="shape" v:layerMember="0" transform="translate(42,-33)">
					<title>Sheet.603</title>
					<rect x="0" y="56.625" width="15" height="3" class="st1"/>
				</g>
				<g id="shape604-19" v:mID="604" v:groupContext="shape" v:layerMember="0" transform="translate(28.5,-36)">
					<title>Sheet.604</title>
					<rect x="0" y="54.375" width="5.25" height="5.25" class="st1"/>
				</g>
			</g>
		</g>
	</g>
</svg>
