<?xml version="1.0" encoding="UTF-8" standalone="no"?>
<!DOCTYPE svg PUBLIC "-//W3C//DTD SVG 1.1//EN" "http://www.w3.org/Graphics/SVG/1.1/DTD/svg11.dtd">
<!-- Generated by Microsoft Visio, SVG Export Mainframe Host.svg Page-1 -->
<svg xmlns="http://www.w3.org/2000/svg" xmlns:xlink="http://www.w3.org/1999/xlink" xmlns:ev="http://www.w3.org/2001/xml-events"
		xmlns:v="http://schemas.microsoft.com/visio/2003/SVGExtensions/" width="0.859375in" height="0.8125in"
		viewBox="0 0 61.875 58.5" xml:space="preserve" color-interpolation-filters="sRGB" class="st3">
	<v:documentProperties v:langID="4108" v:metric="true" v:viewMarkup="false"/>

	<style type="text/css">
	<![CDATA[
		.st1 {fill:#ffffff;stroke:none;stroke-linecap:butt;stroke-width:0.75}
		.st2 {fill:#515050;stroke:none;stroke-linecap:butt;stroke-width:0.75}
		.st3 {fill:none;fill-rule:evenodd;font-size:12px;overflow:visible;stroke-linecap:square;stroke-miterlimit:3}
	]]>
	</style>

	<g v:mID="0" v:index="1" v:groupContext="foregroundPage">
		<title>Page-1</title>
		<v:pageProperties v:drawingScale="0.0393701" v:pageScale="0.0393701" v:drawingUnits="24" v:shadowOffsetX="8.50394"
				v:shadowOffsetY="-8.50394"/>
		<v:layer v:name="symbols" v:index="0"/>
		<g id="group605-1" transform="translate(6.5625,-6.5625)" v:mID="605" v:groupContext="group" v:layerMember="0">
			<title>Mainframe Host</title>
			<g id="group606-2" v:mID="606" v:groupContext="group" v:layerMember="0">
				<title>Sheet.606</title>
				<g id="shape607-3" v:mID="607" v:groupContext="shape" v:layerMember="0">
					<title>Sheet.607</title>
					<path d="M48.75 15.75 C48.75 13.65 47.1 12 45 12 L27 12 C25.95 12 25.05 12.45 24.37 13.05 C23.7 12.45 22.8 12
								 21.75 12 L3.75 12 C1.65 12 0 13.65 0 15.75 L0 54.75 L2.25 54.75 L2.25 58.5 L46.5 58.5 L46.5 54.75
								 L48.75 54.75 L48.75 15.75 Z" class="st1"/>
				</g>
				<g id="shape608-5" v:mID="608" v:groupContext="shape" v:layerMember="0" transform="translate(2.25,-6)">
					<title>Sheet.608</title>
					<path d="M21 58.5 L0 58.5 L0 21.75 C0 20.93 0.67 20.25 1.5 20.25 L19.5 20.25 C20.32 20.25 21 20.93 21 21.75 L21
								 58.5 Z" class="st2"/>
				</g>
				<g id="shape609-7" v:mID="609" v:groupContext="shape" v:layerMember="0" transform="translate(25.5,-6)">
					<title>Sheet.609</title>
					<path d="M21 58.5 L0 58.5 L0 21.75 C0 20.93 0.67 20.25 1.5 20.25 L19.5 20.25 C20.32 20.25 21 20.93 21 21.75 L21
								 58.5 Z" class="st2"/>
				</g>
				<g id="shape610-9" v:mID="610" v:groupContext="shape" v:layerMember="0" transform="translate(4.5,-2.25)">
					<title>Sheet.610</title>
					<rect x="0" y="56.25" width="39.75" height="2.25" class="st2"/>
				</g>
				<g id="shape611-11" v:mID="611" v:groupContext="shape" v:layerMember="0" transform="translate(5.25,-36.75)">
					<title>Sheet.611</title>
					<rect x="0" y="55.5" width="15" height="3" class="st1"/>
				</g>
				<g id="shape612-13" v:mID="612" v:groupContext="shape" v:layerMember="0" transform="translate(28.5,-38.25)">
					<title>Sheet.612</title>
					<rect x="0" y="55.5" width="15" height="3" class="st1"/>
				</g>
				<g id="shape613-15" v:mID="613" v:groupContext="shape" v:layerMember="0" transform="translate(28.5,-33)">
					<title>Sheet.613</title>
					<rect x="0" y="55.5" width="15" height="3" class="st1"/>
				</g>
			</g>
		</g>
	</g>
</svg>
