<?xml version="1.0" encoding="UTF-8" standalone="no"?>
<!DOCTYPE svg PUBLIC "-//W3C//DTD SVG 1.1//EN" "http://www.w3.org/Graphics/SVG/1.1/DTD/svg11.dtd">
<!-- Generated by Microsoft Visio, SVG Export Monitoring SQL Reporting Services.svg Page-1 -->
<svg xmlns="http://www.w3.org/2000/svg" xmlns:xlink="http://www.w3.org/1999/xlink" xmlns:ev="http://www.w3.org/2001/xml-events"
		xmlns:v="http://schemas.microsoft.com/visio/2003/SVGExtensions/" width="0.90625in" height="1.01562in"
		viewBox="0 0 65.25 73.125" xml:space="preserve" color-interpolation-filters="sRGB" class="st6">
	<v:documentProperties v:langID="4108" v:metric="true" v:viewMarkup="false"/>

	<style type="text/css">
	<![CDATA[
		.st1 {fill:#ffffff;stroke:none;stroke-linecap:butt;stroke-width:0.75}
		.st2 {fill:#515251;stroke:none;stroke-linecap:butt;stroke-width:0.75}
		.st3 {fill:#525352;stroke:none;stroke-linecap:butt;stroke-width:0.75}
		.st4 {fill:#505150;stroke:none;stroke-linecap:butt;stroke-width:0.75}
		.st5 {fill:#515150;stroke:none;stroke-linecap:butt;stroke-width:0.75}
		.st6 {fill:none;fill-rule:evenodd;font-size:12px;overflow:visible;stroke-linecap:square;stroke-miterlimit:3}
	]]>
	</style>

	<g v:mID="0" v:index="1" v:groupContext="foregroundPage">
		<title>Page-1</title>
		<v:pageProperties v:drawingScale="0.0393701" v:pageScale="0.0393701" v:drawingUnits="24" v:shadowOffsetX="8.50394"
				v:shadowOffsetY="-8.50394"/>
		<v:layer v:name="symbols" v:index="0"/>
		<g id="group614-1" transform="translate(7.3875,-3.5625)" v:mID="614" v:groupContext="group" v:layerMember="0">
			<title>Monitoring SQL Reporting Services</title>
			<g id="group615-2" transform="translate(-2.65787E-13,-3)" v:mID="615" v:groupContext="group" v:layerMember="0">
				<title>Sheet.615</title>
				<g id="shape616-3" v:mID="616" v:groupContext="shape" v:layerMember="0">
					<title>Sheet.616</title>
					<path d="M0 73.12 L0 21.37 C0 18.45 2.33 16.12 5.25 16.12 L26.25 16.12 C29.18 16.12 31.5 18.45 31.5 21.37 L31.5
								 73.12 L0 73.12 Z" class="st1"/>
				</g>
				<g id="shape617-5" v:mID="617" v:groupContext="shape" v:layerMember="0" transform="translate(2.25,-2.25)">
					<title>Sheet.617</title>
					<path d="M24 20.62 L3 20.62 C1.35 20.62 0 21.97 0 23.62 L0 73.12 L27 73.12 L27 23.62 C27 21.97 25.65 20.62 24
								 20.62 ZM21.75 67.12 L5.25 67.12 L5.25 64.87 L21.75 64.87 L21.75 67.12 ZM21.75 60.37 L5.25 60.37
								 L5.25 58.12 L21.75 58.12 L21.75 60.37 ZM21.75 29.62 L5.25 29.62 L5.25 27.37 L21.75 27.37 L21.75
								 29.62 Z" class="st2"/>
				</g>
			</g>
			<g id="group618-7" transform="translate(20.325,1.42109E-14)" v:mID="618" v:groupContext="group" v:layerMember="0">
				<title>Sheet.618</title>
				<g id="shape619-8" v:mID="619" v:groupContext="shape" v:layerMember="0">
					<title>Sheet.619</title>
					<path d="M20.85 73.12 C19.65 73.12 18.53 72.37 18.08 71.25 L17.4 69.67 C17.25 69.67 17.02 69.67 16.8 69.67 C16.57
								 69.67 16.35 69.67 16.12 69.67 L15.45 71.25 C15.08 72.37 13.95 73.12 12.75 73.12 C12.38 73.12 11.93
								 73.05 11.63 72.9 L8.77 71.7 C8.03 71.4 7.42 70.8 7.12 70.05 C6.83 69.3 6.83 68.47 7.12 67.72 L7.8
								 66.15 L6.97 65.32 L5.4 66 C5.03 66.15 4.65 66.22 4.28 66.22 C3.08 66.22 1.95 65.47 1.5 64.35 L0.3
								 61.5 C-0 60.75 -0 59.92 0.3 59.17 C0.6 58.42 1.2 57.82 1.95 57.52 L3.52 56.85 L3.52 55.65 L1.95
								 54.97 C1.2 54.67 0.6 54.07 0.3 53.32 C-0 52.57 -0 51.75 0.3 51 L1.5 48.15 C1.95 47.02 3.08 46.27
								 4.28 46.27 C4.65 46.27 5.03 46.35 5.4 46.5 L6.97 47.17 L7.8 46.35 L7.12 44.77 C6.83 44.02 6.83 43.2
								 7.12 42.45 C7.42 41.7 8.03 41.1 8.77 40.8 L11.63 39.6 C12 39.45 12.38 39.37 12.75 39.37 C13.95 39.37
								 15.08 40.12 15.53 41.25 L16.12 42.75 C16.28 42.75 16.5 42.75 16.73 42.75 C16.95 42.75 17.18 42.75
								 17.4 42.75 L18 41.17 C18.45 40.05 19.57 39.3 20.78 39.3 C21.15 39.3 21.53 39.37 21.9 39.52 L24.75
								 40.72 C25.5 41.02 26.1 41.62 26.4 42.37 C26.7 43.12 26.7 43.95 26.4 44.7 L25.72 46.27 L26.55 47.1
								 L28.13 46.42 C28.5 46.27 28.88 46.2 29.25 46.2 C30.45 46.2 31.58 46.95 32.03 48.07 L33.23 50.92
								 C33.52 51.67 33.52 52.5 33.23 53.25 C32.93 54 32.33 54.6 31.58 54.9 L30 55.57 L30 56.77 L31.58 57.45
								 C33.15 58.12 33.83 59.85 33.23 61.42 L32.03 64.27 C31.58 65.4 30.45 66.15 29.25 66.15 C28.88 66.15
								 28.43 66.07 28.05 65.92 L26.48 65.25 L25.65 66.07 L26.33 67.65 C26.62 68.4 26.62 69.22 26.33 69.97
								 C26.03 70.72 25.43 71.32 24.68 71.62 L21.82 72.82 C21.68 73.05 21.23 73.12 20.85 73.12 ZM16.8 50.77
								 C13.8 50.77 11.32 53.25 11.32 56.25 C11.32 59.25 13.8 61.72 16.8 61.72 C19.8 61.72 22.27 59.25 22.27
								 56.25 C22.27 53.25 19.8 50.77 16.8 50.77 Z" class="st1"/>
				</g>
				<g id="shape620-10" v:mID="620" v:groupContext="shape" v:layerMember="0" transform="translate(2.025,-2.1)">
					<title>Sheet.620</title>
					<path d="M28.95 61.72 L26.55 60.75 C26.18 60.6 25.88 60.37 25.88 60.3 C25.88 60.22 25.95 59.77 25.95 59.4 L25.95
								 57.45 C25.95 57 25.88 56.62 25.88 56.55 C25.88 56.47 26.18 56.25 26.55 56.1 L28.95 55.12 C29.32
								 54.97 29.55 54.52 29.4 54.07 L28.2 51.22 C28.05 50.85 27.6 50.62 27.15 50.77 L24.75 51.75 C24.37
								 51.9 24 51.97 23.92 51.9 C23.85 51.82 23.62 51.52 23.32 51.15 L21.9 49.8 C21.6 49.5 21.23 49.27
								 21.23 49.2 C21.15 49.12 21.23 48.82 21.38 48.37 L22.35 45.97 C22.5 45.6 22.35 45.15 21.9 44.92 L19.05
								 43.72 C18.67 43.57 18.22 43.72 18 44.17 L17.03 46.57 C16.88 46.95 16.65 47.25 16.58 47.25 C16.5
								 47.25 16.05 47.17 15.68 47.1 C15.68 47.1 15.3 47.02 14.7 47.02 C14.1 47.02 13.72 47.1 13.72 47.1
								 C13.27 47.17 12.9 47.17 12.82 47.25 C12.75 47.25 12.52 46.95 12.38 46.57 L11.4 44.17 C11.25 43.8
								 10.8 43.57 10.35 43.72 L7.5 44.92 C7.13 45.07 6.9 45.52 7.05 45.97 L8.02 48.37 C8.17 48.75 8.25
								 49.12 8.17 49.2 C8.1 49.27 7.8 49.5 7.5 49.8 L6.08 51.22 C5.78 51.52 5.55 51.9 5.48 51.97 C5.4 52.05
								 5.1 51.97 4.65 51.82 L2.4 50.7 C2.03 50.55 1.58 50.7 1.35 51.15 L0.15 54 C-0 54.37 0.15 54.82 0.6
								 55.05 L3 56.02 C3.37 56.17 3.67 56.4 3.67 56.47 C3.67 56.55 3.6 57 3.6 57.37 L3.6 59.32 C3.6 59.77
								 3.67 60.15 3.67 60.22 C3.67 60.3 3.37 60.52 3 60.67 L0.6 61.72 C0.23 61.87 0 62.32 0.15 62.77 L1.35
								 65.62 C1.5 66 1.95 66.22 2.4 66.07 L4.8 65.1 C5.18 64.95 5.55 64.87 5.63 64.95 C5.7 65.02 5.93 65.32
								 6.23 65.7 L7.65 67.05 C7.95 67.35 8.32 67.57 8.4 67.65 C8.47 67.72 8.4 68.1 8.25 68.47 L7.13 70.72
								 C6.98 71.1 7.13 71.55 7.57 71.77 L10.43 72.97 C10.8 73.12 11.25 72.97 11.48 72.52 L12.45 70.12 C12.6
								 69.75 12.82 69.45 12.9 69.45 C12.97 69.45 13.42 69.52 13.8 69.6 C13.8 69.6 14.17 69.67 14.78 69.67
								 C15.38 69.67 15.75 69.6 15.75 69.6 C16.2 69.52 16.58 69.52 16.65 69.45 C16.73 69.45 16.95 69.75
								 17.1 70.12 L18.07 72.52 C18.22 72.9 18.67 73.12 19.12 72.97 L21.98 71.77 C22.35 71.62 22.57 71.17
								 22.42 70.72 L21.45 68.32 C21.3 67.95 21.23 67.57 21.3 67.5 C21.38 67.42 21.68 67.2 22.05 66.9 L23.47
								 65.47 C23.77 65.17 24 64.8 24.07 64.72 C24.15 64.65 24.45 64.72 24.9 64.87 L27.3 65.85 C27.67 66
								 28.12 65.85 28.35 65.4 L29.55 62.55 C29.48 62.32 29.33 61.87 28.95 61.72 ZM14.78 66.07 C10.5 66.07
								 7.05 62.62 7.05 58.35 C7.05 54.07 10.5 50.62 14.78 50.62 C19.05 50.62 22.5 54.07 22.5 58.35 C22.5
								 62.62 19.05 66.07 14.78 66.07 Z" class="st3"/>
				</g>
			</g>
			<g id="group621-12" transform="translate(18.75,-33.75)" v:mID="621" v:groupContext="group" v:layerMember="0">
				<title>Sheet.621</title>
				<g id="shape622-13" v:mID="622" v:groupContext="shape" v:layerMember="0">
					<title>Sheet.622</title>
					<rect x="0" y="43.125" width="35.25" height="30" class="st1"/>
				</g>
				<g id="group623-15" transform="translate(2.25,-2.25)" v:mID="623" v:groupContext="group" v:layerMember="0">
					<title>Sheet.623</title>
					<g id="shape624-16" v:mID="624" v:groupContext="shape" v:layerMember="0" transform="translate(0.75,-0.75)">
						<title>Sheet.624</title>
						<rect x="0" y="49.125" width="29.25" height="24" class="st1"/>
					</g>
					<g id="shape625-18" v:mID="625" v:groupContext="shape" v:layerMember="0">
						<title>Sheet.625</title>
						<path d="M29.25 49.12 L29.25 71.62 L1.5 71.62 L1.5 49.12 L29.25 49.12 ZM30.75 47.62 L0 47.62 L0 73.12 L30.75
									 73.12 L30.75 47.62 Z" class="st4"/>
					</g>
				</g>
				<g id="group626-20" transform="translate(5.25,-5.25)" v:mID="626" v:groupContext="group" v:layerMember="0">
					<title>Sheet.626</title>
					<g id="shape627-21" v:mID="627" v:groupContext="shape" v:layerMember="0">
						<title>Sheet.627</title>
						<path d="M18.9 67.42 C18.75 67.8 18.37 68.1 18 68.1 C17.55 68.1 17.25 67.8 17.1 67.42 L15.6 61.87 L15.15
									 63 C15 63.37 14.7 63.6 14.25 63.6 L11.17 63.6 L9.15 69.67 C9 70.05 8.7 70.35 8.25 70.35 C8.25
									 70.35 8.25 70.35 8.25 70.35 C7.8 70.35 7.5 70.05 7.35 69.67 L5.18 61.42 L4.65 62.92 C4.5 63.3
									 4.2 63.6 3.75 63.6 L0 63.6 L0 73.12 L24.75 73.12 L24.75 63.6 L20.18 63.6 L18.9 67.42 Z"
								class="st5"/>
					</g>
					<g id="shape628-23" v:mID="628" v:groupContext="shape" v:layerMember="0" transform="translate(0,-6.975)">
						<title>Sheet.628</title>
						<path d="M0 60.6 L0 68.7 L3.07 68.7 L4.35 64.87 C4.5 64.5 4.88 64.2 5.25 64.2 C5.7 64.2 6 64.5 6.15 64.87
									 L8.33 73.12 L9.6 69.37 C9.75 69 10.05 68.7 10.5 68.7 L13.65 68.7 L14.92 65.55 C15.07 65.17 15.45
									 64.95 15.82 64.95 C16.2 64.95 16.57 65.25 16.65 65.62 L18.07 70.87 L18.6 69.3 C18.75 68.92 19.05
									 68.62 19.5 68.62 L24.75 68.62 L24.75 60.6 L0 60.6 Z" class="st5"/>
					</g>
				</g>
			</g>
		</g>
	</g>
</svg>
