<?xml version="1.0" encoding="UTF-8" standalone="no"?>
<!DOCTYPE svg PUBLIC "-//W3C//DTD SVG 1.1//EN" "http://www.w3.org/Graphics/SVG/1.1/DTD/svg11.dtd">
<!-- Generated by Microsoft Visio, SVG Export Network.svg Page-1 -->
<svg xmlns="http://www.w3.org/2000/svg" xmlns:xlink="http://www.w3.org/1999/xlink" xmlns:ev="http://www.w3.org/2001/xml-events"
		xmlns:v="http://schemas.microsoft.com/visio/2003/SVGExtensions/" width="0.552083in" height="0.875in" viewBox="0 0 39.75 63"
		xml:space="preserve" color-interpolation-filters="sRGB" class="st3">
	<v:documentProperties v:langID="4108" v:metric="true" v:viewMarkup="false"/>

	<style type="text/css">
	<![CDATA[
		.st1 {fill:#ffffff;stroke:none;stroke-linecap:butt;stroke-width:0.75}
		.st2 {fill:#505150;stroke:none;stroke-linecap:butt;stroke-width:0.75}
		.st3 {fill:none;fill-rule:evenodd;font-size:12px;overflow:visible;stroke-linecap:square;stroke-miterlimit:3}
	]]>
	</style>

	<g v:mID="0" v:index="1" v:groupContext="foregroundPage">
		<title>Page-1</title>
		<v:pageProperties v:drawingScale="0.0393701" v:pageScale="0.0393701" v:drawingUnits="24" v:shadowOffsetX="8.50394"
				v:shadowOffsetY="-8.50394"/>
		<v:layer v:name="symbols" v:index="0"/>
		<g id="group629-1" transform="translate(0.75,-0.75)" v:mID="629" v:groupContext="group" v:layerMember="0">
			<title>Network</title>
			<g id="group630-2" v:mID="630" v:groupContext="group" v:layerMember="0">
				<title>Sheet.630</title>
				<g id="shape631-3" v:mID="631" v:groupContext="shape" v:layerMember="0">
					<title>Sheet.631</title>
					<path d="M38.25 53.25 L26.25 53.25 L26.25 51.75 L23.25 51.75 L23.25 45.75 L15 45.75 L15 51.75 L12 51.75 L12 53.25
								 L0 53.25 L0 61.5 L12 61.5 L12 63 L26.25 63 L26.25 61.5 L38.25 61.5 L38.25 53.25 Z" class="st1"/>
				</g>
				<g id="shape632-5" v:mID="632" v:groupContext="shape" v:layerMember="0" transform="translate(6,-14.25)">
					<title>Sheet.632</title>
					<path d="M0 63 L0 20.33 C0 17.78 2.02 15.75 4.57 15.75 L21.67 15.75 C24.22 15.75 26.25 17.78 26.25 20.33 L26.25
								 63 L0 63 Z" class="st1"/>
				</g>
				<g id="shape633-7" v:mID="633" v:groupContext="shape" v:layerMember="0" transform="translate(8.25,-16.5)">
					<title>Sheet.633</title>
					<path d="M19.42 20.25 L2.32 20.25 C1.05 20.25 0 21.3 0 22.58 L0 63 L21.75 63 L21.75 22.58 C21.75 21.3 20.7 20.25
								 19.42 20.25 ZM17.25 58.5 L4.5 58.5 L4.5 57 L17.25 57 L17.25 58.5 ZM17.25 53.25 L4.5 53.25 L4.5 51.75
								 L17.25 51.75 L17.25 53.25 ZM17.25 27 L4.5 27 L4.5 25.5 L17.25 25.5 L17.25 27 Z" class="st2"/>
				</g>
				<g id="group634-9" transform="translate(2.25,-2.25)" v:mID="634" v:groupContext="group" v:layerMember="0">
					<title>Sheet.634</title>
					<g id="shape635-10" v:mID="635" v:groupContext="shape" v:layerMember="0" transform="translate(15,-8.25)">
						<title>Sheet.635</title>
						<rect x="0" y="58.5" width="3.75" height="4.5" class="st2"/>
					</g>
					<g id="shape636-12" v:mID="636" v:groupContext="shape" v:layerMember="0" transform="translate(12,4.26326E-14)">
						<title>Sheet.636</title>
						<rect x="0" y="56.25" width="9.75" height="6.75" class="st2"/>
					</g>
					<g id="shape637-14" v:mID="637" v:groupContext="shape" v:layerMember="0" transform="translate(23.25,-1.5)">
						<title>Sheet.637</title>
						<rect x="0" y="59.25" width="10.5" height="3.75" class="st2"/>
					</g>
					<g id="shape638-16" v:mID="638" v:groupContext="shape" v:layerMember="0"
							transform="translate(1.47882E-13,-1.5)">
						<title>Sheet.638</title>
						<rect x="0" y="59.25" width="10.5" height="3.75" class="st2"/>
					</g>
				</g>
			</g>
		</g>
	</g>
</svg>
