<?xml version="1.0" encoding="UTF-8" standalone="no"?>
<!DOCTYPE svg PUBLIC "-//W3C//DTD SVG 1.1//EN" "http://www.w3.org/Graphics/SVG/1.1/DTD/svg11.dtd">
<!-- Generated by Microsoft Visio, SVG Export Office Web Apps Server.svg Page-1 -->
<svg xmlns="http://www.w3.org/2000/svg" xmlns:xlink="http://www.w3.org/1999/xlink" xmlns:ev="http://www.w3.org/2001/xml-events"
		xmlns:v="http://schemas.microsoft.com/visio/2003/SVGExtensions/" width="0.930469in" height="0.984375in"
		viewBox="0 0 66.9938 70.875" xml:space="preserve" color-interpolation-filters="sRGB" class="st4">
	<v:documentProperties v:langID="4108" v:metric="true" v:viewMarkup="false"/>

	<style type="text/css">
	<![CDATA[
		.st1 {fill:#ffffff;stroke:none;stroke-linecap:butt;stroke-width:0.75}
		.st2 {fill:#515150;stroke:none;stroke-linecap:butt;stroke-width:0.75}
		.st3 {fill:#da4026;stroke:none;stroke-linecap:butt;stroke-width:0.75}
		.st4 {fill:none;fill-rule:evenodd;font-size:12px;overflow:visible;stroke-linecap:square;stroke-miterlimit:3}
	]]>
	</style>

	<g v:mID="0" v:index="1" v:groupContext="foregroundPage">
		<title>Page-1</title>
		<v:pageProperties v:drawingScale="0.0393701" v:pageScale="0.0393701" v:drawingUnits="24" v:shadowOffsetX="8.50394"
				v:shadowOffsetY="-8.50394"/>
		<v:layer v:name="symbols" v:index="0"/>
		<g id="group639-1" transform="translate(8.34375,-7.3125)" v:mID="639" v:groupContext="group" v:layerMember="0">
			<title>Office Web Apps Server</title>
			<g id="group640-2" v:mID="640" v:groupContext="group" v:layerMember="0">
				<title>Sheet.640</title>
				<g id="shape641-3" v:mID="641" v:groupContext="shape" v:layerMember="0">
					<title>Sheet.641</title>
					<path d="M0 70.88 L0 19.13 C-0 16.2 2.33 13.88 5.25 13.88 L26.25 13.88 C29.18 13.88 31.5 16.2 31.5 19.13 L31.5
								 70.88 L0 70.88 Z" class="st1"/>
				</g>
				<g id="shape642-5" v:mID="642" v:groupContext="shape" v:layerMember="0" transform="translate(2.25,-2.25)">
					<title>Sheet.642</title>
					<path d="M24 18.38 L3 18.38 C1.35 18.38 0 19.73 0 21.38 L0 70.88 L27 70.88 L27 21.38 C27 19.73 25.65 18.38 24
								 18.38 ZM21.75 64.88 L5.25 64.88 L5.25 62.63 L21.75 62.63 L21.75 64.88 ZM21.75 58.13 L5.25 58.13
								 L5.25 55.87 L21.75 55.87 L21.75 58.13 ZM21.75 27.38 L5.25 27.38 L5.25 25.13 L21.75 25.13 L21.75
								 27.38 Z" class="st2"/>
				</g>
			</g>
			<g id="group643-7" transform="translate(31.5,-32.1)" v:mID="643" v:groupContext="group" v:layerMember="0">
				<title>Sheet.643</title>
				<g id="shape644-8" v:mID="644" v:groupContext="shape" v:layerMember="0">
					<title>Sheet.644</title>
					<path d="M0 47.7 L1.5 47.18 L15.3 42.22 L24.75 44.7 L24.75 68.55 L15.3 70.88 L0 65.55 L0 47.7 Z" class="st1"/>
				</g>
				<g id="shape645-10" v:mID="645" v:groupContext="shape" v:layerMember="0" transform="translate(2.25,-2.325)">
					<title>Sheet.645</title>
					<path d="M20.25 69.15 L20.25 48.75 L13.2 46.88 L0 51.6 L0 66.3 L4.5 64.58 L4.5 52.58 L13.5 50.48 L13.5 68.1 L0
								 66.3 L13.2 70.88 L20.25 69.15 Z" class="st3"/>
				</g>
			</g>
		</g>
	</g>
</svg>
