<?xml version="1.0" encoding="UTF-8" standalone="no"?>
<!DOCTYPE svg PUBLIC "-//W3C//DTD SVG 1.1//EN" "http://www.w3.org/Graphics/SVG/1.1/DTD/svg11.dtd">
<!-- Generated by Microsoft Visio, SVG Export On-premises Server.svg Page-1 -->
<svg xmlns="http://www.w3.org/2000/svg" xmlns:xlink="http://www.w3.org/1999/xlink" xmlns:ev="http://www.w3.org/2001/xml-events"
		xmlns:v="http://schemas.microsoft.com/visio/2003/SVGExtensions/" width="0.859375in" height="0.984375in"
		viewBox="0 0 61.875 70.875" xml:space="preserve" color-interpolation-filters="sRGB" class="st4">
	<v:documentProperties v:langID="4108" v:metric="true" v:viewMarkup="false"/>

	<style type="text/css">
	<![CDATA[
		.st1 {fill:#ffffff;stroke:none;stroke-linecap:butt;stroke-width:0.75}
		.st2 {fill:#535352;stroke:none;stroke-linecap:butt;stroke-width:0.75}
		.st3 {fill:#515150;stroke:none;stroke-linecap:butt;stroke-width:0.75}
		.st4 {fill:none;fill-rule:evenodd;font-size:12px;overflow:visible;stroke-linecap:square;stroke-miterlimit:3}
	]]>
	</style>

	<g v:mID="0" v:index="1" v:groupContext="foregroundPage">
		<title>Page-1</title>
		<v:pageProperties v:drawingScale="0.0393701" v:pageScale="0.0393701" v:drawingUnits="24" v:shadowOffsetX="8.50394"
				v:shadowOffsetY="-8.50394"/>
		<v:layer v:name="symbols" v:index="0"/>
		<g id="group646-1" transform="translate(7.125,-3.5625)" v:mID="646" v:groupContext="group" v:layerMember="0">
			<title>On-premises Server</title>
			<g id="group647-2" transform="translate(-2.51799E-13,-4.5)" v:mID="647" v:groupContext="group" v:layerMember="0">
				<title>Sheet.647</title>
				<g id="shape648-3" v:mID="648" v:groupContext="shape" v:layerMember="0">
					<title>Sheet.648</title>
					<path d="M21.75 22.13 L21.75 11.63 L0 11.63 L0 70.88 L37.5 70.88 L37.5 34.13 L35.25 34.13 L35.25 28.13 L33 28.13
								 L33 22.13 L30.75 22.13 L30.75 15.38 L24 15.38 L24 22.13 L21.75 22.13 Z" class="st1"/>
				</g>
				<g id="shape649-5" v:mID="649" v:groupContext="shape" v:layerMember="0" transform="translate(2.25,-2.25)">
					<title>Sheet.649</title>
					<path d="M30.75 38.63 L30.75 32.63 L28.5 32.63 L28.5 26.63 L26.25 26.63 L26.25 19.88 L24 19.88 L24 26.63 L21.75
								 26.63 L21.75 32.63 L19.5 32.63 L19.5 38.63 L17.25 38.63 L17.25 16.13 L0 16.13 L0 70.88 L33 70.88
								 L33 38.63 L30.75 38.63 ZM6.75 57.38 L3.75 57.38 L3.75 54.38 L6.75 54.38 L6.75 57.38 ZM6.75 50.63
								 L3.75 50.63 L3.75 47.63 L6.75 47.63 L6.75 50.63 ZM6.75 43.88 L3.75 43.88 L3.75 40.88 L6.75 40.88
								 L6.75 43.88 ZM6.75 37.13 L3.75 37.13 L3.75 34.13 L6.75 34.13 L6.75 37.13 ZM6.75 30.38 L3.75 30.38
								 L3.75 27.38 L6.75 27.38 L6.75 30.38 ZM6.75 23.63 L3.75 23.63 L3.75 20.63 L6.75 20.63 L6.75 23.63
								 ZM13.5 57.38 L10.5 57.38 L10.5 54.38 L13.5 54.38 L13.5 57.38 ZM13.5 50.63 L10.5 50.63 L10.5 47.63
								 L13.5 47.63 L13.5 50.63 ZM13.5 43.88 L10.5 43.88 L10.5 40.88 L13.5 40.88 L13.5 43.88 ZM13.5 37.13
								 L10.5 37.13 L10.5 34.13 L13.5 34.13 L13.5 37.13 ZM13.5 30.38 L10.5 30.38 L10.5 27.38 L13.5 27.38
								 L13.5 30.38 ZM13.5 23.63 L10.5 23.63 L10.5 20.63 L13.5 20.63 L13.5 23.63 ZM23.25 55.13 L20.25 55.13
								 L20.25 52.13 L23.25 52.13 L23.25 55.13 ZM23.25 44.63 L20.25 44.63 L20.25 41.63 L23.25 41.63 L23.25
								 44.63 Z" class="st2"/>
				</g>
			</g>
			<g id="group650-7" transform="translate(29.25,0)" v:mID="650" v:groupContext="group" v:layerMember="0">
				<title>Sheet.650</title>
				<g id="shape651-8" v:mID="651" v:groupContext="shape" v:layerMember="0">
					<title>Sheet.651</title>
					<path d="M0 70.88 L0 40.95 C0 38.85 1.72 37.13 3.83 37.13 L15.67 37.13 C17.77 37.13 19.5 38.85 19.5 40.95 L19.5
								 70.88 L0 70.88 Z" class="st1"/>
				</g>
				<g id="shape652-10" v:mID="652" v:groupContext="shape" v:layerMember="0" transform="translate(2.25,-2.25)">
					<title>Sheet.652</title>
					<path d="M13.43 41.63 L1.58 41.63 C0.68 41.63 0 42.3 0 43.2 L0 70.88 L15 70.88 L15 43.2 C15 42.3 14.33 41.63
								 13.43 41.63 ZM12 67.88 L3 67.88 L3 66.38 L12 66.38 L12 67.88 ZM12 64.13 L3 64.13 L3 62.63 L12 62.63
								 L12 64.13 ZM12 46.88 L3 46.88 L3 45.38 L12 45.38 L12 46.88 Z" class="st3"/>
				</g>
			</g>
		</g>
	</g>
</svg>
