<?xml version="1.0" encoding="UTF-8" standalone="no"?>
<!DOCTYPE svg PUBLIC "-//W3C//DTD SVG 1.1//EN" "http://www.w3.org/Graphics/SVG/1.1/DTD/svg11.dtd">
<!-- Generated by Microsoft Visio, SVG Export Physical Host - solid blue.svg Page-1 -->
<svg xmlns="http://www.w3.org/2000/svg" xmlns:xlink="http://www.w3.org/1999/xlink" xmlns:ev="http://www.w3.org/2001/xml-events"
		xmlns:v="http://schemas.microsoft.com/visio/2003/SVGExtensions/" width="0.65625in" height="0.984375in"
		viewBox="0 0 47.25 70.875" xml:space="preserve" color-interpolation-filters="sRGB" class="st3">
	<v:documentProperties v:langID="4108" v:metric="true" v:viewMarkup="false"/>

	<style type="text/css">
	<![CDATA[
		.st1 {fill:#ffffff;stroke:none;stroke-linecap:butt;stroke-width:0.75}
		.st2 {fill:#2072b8;stroke:none;stroke-linecap:butt;stroke-width:0.75}
		.st3 {fill:none;fill-rule:evenodd;font-size:12px;overflow:visible;stroke-linecap:square;stroke-miterlimit:3}
	]]>
	</style>

	<g v:mID="0" v:index="1" v:groupContext="foregroundPage">
		<title>Page-1</title>
		<v:pageProperties v:drawingScale="0.0393701" v:pageScale="0.0393701" v:drawingUnits="24" v:shadowOffsetX="8.50394"
				v:shadowOffsetY="-8.50394"/>
		<v:layer v:name="symbols" v:index="0"/>
		<g id="group653-1" transform="translate(8.025,-6.9375)" v:mID="653" v:groupContext="group" v:layerMember="0">
			<title>Physical Host - solid blue</title>
			<g id="group654-2" v:mID="654" v:groupContext="group" v:layerMember="0">
				<title>Sheet.654</title>
				<g id="shape655-3" v:mID="655" v:groupContext="shape" v:layerMember="0">
					<title>Sheet.655</title>
					<path d="M0 70.88 L0 19.13 C-0 16.2 2.33 13.88 5.25 13.88 L26.25 13.88 C29.18 13.88 31.5 16.2 31.5 19.13 L31.5
								 70.88 L0 70.88 Z" class="st1"/>
				</g>
				<g id="shape656-5" v:mID="656" v:groupContext="shape" v:layerMember="0" transform="translate(2.25,-2.25)">
					<title>Sheet.656</title>
					<path d="M24 18.38 L3 18.38 C1.35 18.38 0 19.73 0 21.38 L0 70.88 L27 70.88 L27 21.38 C27 19.73 25.65 18.38 24
								 18.38 ZM21.75 64.88 L5.25 64.88 L5.25 62.63 L21.75 62.63 L21.75 64.88 ZM21.75 58.13 L5.25 58.13
								 L5.25 55.88 L21.75 55.88 L21.75 58.13 ZM21.75 27.38 L5.25 27.38 L5.25 25.13 L21.75 25.13 L21.75
								 27.38 Z" class="st2"/>
				</g>
			</g>
		</g>
	</g>
</svg>
