<?xml version="1.0" encoding="UTF-8" standalone="no"?>
<!DOCTYPE svg PUBLIC "-//W3C//DTD SVG 1.1//EN" "http://www.w3.org/Graphics/SVG/1.1/DTD/svg11.dtd">
<!-- Generated by Microsoft Visio, SVG Export Physical Host Farm - solid blue.svg Page-1 -->
<svg xmlns="http://www.w3.org/2000/svg" xmlns:xlink="http://www.w3.org/1999/xlink" xmlns:ev="http://www.w3.org/2001/xml-events"
		xmlns:v="http://schemas.microsoft.com/visio/2003/SVGExtensions/" width="1.04688in" height="0.921875in"
		viewBox="0 0 75.375 66.375" xml:space="preserve" color-interpolation-filters="sRGB" class="st3">
	<v:documentProperties v:langID="4108" v:metric="true" v:viewMarkup="false"/>

	<style type="text/css">
	<![CDATA[
		.st1 {fill:#ffffff;stroke:none;stroke-linecap:butt;stroke-width:0.75}
		.st2 {fill:#2072b8;stroke:none;stroke-linecap:butt;stroke-width:0.75}
		.st3 {fill:none;fill-rule:evenodd;font-size:12px;overflow:visible;stroke-linecap:square;stroke-miterlimit:3}
	]]>
	</style>

	<g v:mID="0" v:index="1" v:groupContext="foregroundPage">
		<title>Page-1</title>
		<v:pageProperties v:drawingScale="0.0393701" v:pageScale="0.0393701" v:drawingUnits="24" v:shadowOffsetX="8.50394"
				v:shadowOffsetY="-8.50394"/>
		<v:layer v:name="symbols" v:index="0"/>
		<g id="group657-1" transform="translate(7.3125,-6.5625)" v:mID="657" v:groupContext="group" v:layerMember="0">
			<title>Physical Host Farm - solid blue</title>
			<g id="group658-2" v:mID="658" v:groupContext="group" v:layerMember="0">
				<title>Sheet.658</title>
				<g id="shape659-3" v:mID="659" v:groupContext="shape" v:layerMember="0">
					<title>Sheet.659</title>
					<path d="M56.93 26.62 L51 26.62 L51 16.95 C51 14.85 49.27 13.12 47.17 13.12 L33.07 13.12 C32.02 13.12 31.05 13.57
								 30.37 14.25 C29.7 13.57 28.73 13.12 27.68 13.12 L13.58 13.12 C11.48 13.12 9.75 14.85 9.75 16.95
								 L9.75 26.62 L3.82 26.62 C1.72 26.62 0 28.35 0 30.45 L0 66.37 L19.5 66.37 L21.75 66.37 L39 66.37
								 L41.25 66.37 L60.75 66.37 L60.75 30.45 C60.75 28.35 59.02 26.62 56.93 26.62 Z" class="st1"/>
				</g>
				<g id="shape660-5" v:mID="660" v:groupContext="shape" v:layerMember="0" transform="translate(2.25,-2.25)">
					<title>Sheet.660</title>
					<path d="M15.68 31.12 L1.58 31.12 C0.68 31.12 0 31.8 0 32.7 L0 66.37 L17.25 66.37 L17.25 32.7 C17.25 31.8 16.58
								 31.12 15.68 31.12 ZM14.25 62.62 L3 62.62 L3 61.12 L14.25 61.12 L14.25 62.62 ZM14.25 58.12 L3 58.12
								 L3 56.62 L14.25 56.62 L14.25 58.12 ZM14.25 37.12 L3 37.12 L3 35.62 L14.25 35.62 L14.25 37.12 ZM35.17
								 31.12 L21.08 31.12 C20.18 31.12 19.5 31.8 19.5 32.7 L19.5 66.37 L36.75 66.37 L36.75 32.7 C36.75
								 31.8 36.07 31.12 35.17 31.12 ZM33.75 62.62 L22.5 62.62 L22.5 61.12 L33.75 61.12 L33.75 62.62 ZM33.75
								 58.12 L22.5 58.12 L22.5 56.62 L33.75 56.62 L33.75 58.12 ZM33.75 37.12 L22.5 37.12 L22.5 35.62 L33.75
								 35.62 L33.75 37.12 ZM15.68 28.87 C16.72 28.87 17.7 29.32 18.38 30 C19.05 29.32 20.03 28.87 21.08
								 28.87 L27 28.87 L27 19.2 C27 18.3 26.33 17.62 25.43 17.62 L11.32 17.62 C10.42 17.62 9.75 18.3 9.75
								 19.2 L9.75 28.87 L15.68 28.87 ZM12.75 22.12 L24 22.12 L24 23.62 L12.75 23.62 L12.75 22.12 ZM35.17
								 28.87 C36.23 28.87 37.2 29.32 37.87 30 C38.55 29.32 39.53 28.87 40.57 28.87 L46.5 28.87 L46.5 19.2
								 C46.5 18.3 45.83 17.62 44.93 17.62 L30.83 17.62 C29.93 17.62 29.25 18.3 29.25 19.2 L29.25 28.87
								 L35.17 28.87 ZM32.25 22.12 L43.5 22.12 L43.5 23.62 L32.25 23.62 L32.25 22.12 ZM54.68 31.12 L40.57
								 31.12 C39.67 31.12 39 31.8 39 32.7 L39 66.37 L56.25 66.37 L56.25 32.7 C56.25 31.8 55.58 31.12 54.68
								 31.12 ZM53.25 62.62 L42 62.62 L42 61.12 L53.25 61.12 L53.25 62.62 ZM53.25 58.12 L42 58.12 L42 56.62
								 L53.25 56.62 L53.25 58.12 ZM53.25 37.12 L42 37.12 L42 35.62 L53.25 35.62 L53.25 37.12 Z"
							class="st2"/>
				</g>
			</g>
		</g>
	</g>
</svg>
