<?xml version="1.0" encoding="UTF-8" standalone="no"?>
<!DOCTYPE svg PUBLIC "-//W3C//DTD SVG 1.1//EN" "http://www.w3.org/Graphics/SVG/1.1/DTD/svg11.dtd">
<!-- Generated by Microsoft Visio, SVG Export Reverse Proxy.svg Page-1 -->
<svg xmlns="http://www.w3.org/2000/svg" xmlns:xlink="http://www.w3.org/1999/xlink" xmlns:ev="http://www.w3.org/2001/xml-events"
		xmlns:v="http://schemas.microsoft.com/visio/2003/SVGExtensions/" width="0.750521in" height="0.96875in"
		viewBox="0 0 54.0375 69.75" xml:space="preserve" color-interpolation-filters="sRGB" class="st3">
	<v:documentProperties v:langID="4108" v:metric="true" v:viewMarkup="false"/>

	<style type="text/css">
	<![CDATA[
		.st1 {fill:#ffffff;stroke:none;stroke-linecap:butt;stroke-width:0.75}
		.st2 {fill:#515050;stroke:none;stroke-linecap:butt;stroke-width:0.75}
		.st3 {fill:none;fill-rule:evenodd;font-size:12px;overflow:visible;stroke-linecap:square;stroke-miterlimit:3}
	]]>
	</style>

	<g v:mID="0" v:index="1" v:groupContext="foregroundPage">
		<title>Page-1</title>
		<v:pageProperties v:drawingScale="0.0393701" v:pageScale="0.0393701" v:drawingUnits="24" v:shadowOffsetX="8.50394"
				v:shadowOffsetY="-8.50394"/>
		<v:layer v:name="symbols" v:index="0"/>
		<g id="group661-1" transform="translate(7.1625,-6.9375)" v:mID="661" v:groupContext="group" v:layerMember="0">
			<title>Reverse Proxy</title>
			<g id="group662-2" v:mID="662" v:groupContext="group" v:layerMember="0">
				<title>Sheet.662</title>
				<g id="shape663-3" v:mID="663" v:groupContext="shape" v:layerMember="0">
					<title>Sheet.663</title>
					<path d="M0 69.75 L0 18 C-0 15.07 2.32 12.75 5.25 12.75 L26.25 12.75 C29.17 12.75 31.5 15.07 31.5 18 L31.5 69.75
								 L0 69.75 Z" class="st1"/>
				</g>
				<g id="shape664-5" v:mID="664" v:groupContext="shape" v:layerMember="0" transform="translate(2.25,-2.25)">
					<title>Sheet.664</title>
					<path d="M24 17.25 L3 17.25 C1.35 17.25 0 18.6 0 20.25 L0 69.75 L27 69.75 L27 20.25 C27 18.6 25.65 17.25 24 17.25
								 ZM21.75 63.75 L5.25 63.75 L5.25 61.5 L21.75 61.5 L21.75 63.75 ZM21.75 57 L5.25 57 L5.25 54.75 L21.75
								 54.75 L21.75 57 ZM21.75 26.25 L5.25 26.25 L5.25 24 L21.75 24 L21.75 26.25 Z" class="st2"/>
				</g>
			</g>
			<g id="group665-7" transform="translate(17.25,-3.75)" v:mID="665" v:groupContext="group" v:layerMember="0">
				<title>Sheet.665</title>
				<g id="shape666-8" v:mID="666" v:groupContext="shape" v:layerMember="0">
					<title>Sheet.666</title>
					<path d="M22.5 54.75 L24 54.75 L24 47.25 L13.5 47.25 L14.85 45.9 L14.85 42.75 L7.87 42.75 L0 50.92 L6.45 57.75
								 L5.25 57.75 L5.25 65.25 L15.37 65.25 L14.1 66.6 L14.1 69.75 L21 69.75 L28.87 61.57 L22.5 54.75 Z"
							class="st1"/>
				</g>
				<g id="shape667-10" v:mID="667" v:groupContext="shape" v:layerMember="0" transform="translate(3.075,-12.75)">
					<title>Sheet.667</title>
					<path d="M18.68 62.25 L8.78 62.25 L5.02 62.25 L9.53 57.75 L5.77 57.75 L0 63.75 L5.77 69.75 L9.53 69.75 L5.02
								 65.25 L8.78 65.25 L18.68 65.25 L18.68 62.25 Z" class="st2"/>
				</g>
				<g id="shape668-12" v:mID="668" v:groupContext="shape" v:layerMember="0" transform="translate(7.5,-2.25)">
					<title>Sheet.668</title>
					<path d="M0 65.25 L9.6 65.25 L13.35 65.25 L8.85 69.75 L12.6 69.75 L18.3 63.75 L12.6 57.75 L8.85 57.75 L13.35
								 62.25 L9.6 62.25 L0 62.25 L0 65.25 Z" class="st2"/>
				</g>
			</g>
		</g>
	</g>
</svg>
