<?xml version="1.0" encoding="UTF-8" standalone="no"?>
<!DOCTYPE svg PUBLIC "-//W3C//DTD SVG 1.1//EN" "http://www.w3.org/Graphics/SVG/1.1/DTD/svg11.dtd">
<!-- Generated by Microsoft Visio, SVG Export SCOM.svg Page-1 -->
<svg xmlns="http://www.w3.org/2000/svg" xmlns:xlink="http://www.w3.org/1999/xlink" xmlns:ev="http://www.w3.org/2001/xml-events"
		xmlns:v="http://schemas.microsoft.com/visio/2003/SVGExtensions/" width="1.01172in" height="0.984375in"
		viewBox="0 0 72.8438 70.875" xml:space="preserve" color-interpolation-filters="sRGB" class="st3">
	<v:documentProperties v:langID="4108" v:metric="true" v:viewMarkup="false"/>

	<style type="text/css">
	<![CDATA[
		.st1 {fill:#ffffff;stroke:none;stroke-linecap:butt;stroke-width:0.75}
		.st2 {fill:#515050;stroke:none;stroke-linecap:butt;stroke-width:0.75}
		.st3 {fill:none;fill-rule:evenodd;font-size:12px;overflow:visible;stroke-linecap:square;stroke-miterlimit:3}
	]]>
	</style>

	<g v:mID="0" v:index="1" v:groupContext="foregroundPage">
		<title>Page-1</title>
		<v:pageProperties v:drawingScale="0.0393701" v:pageScale="0.0393701" v:drawingUnits="24" v:shadowOffsetX="8.50394"
				v:shadowOffsetY="-8.50394"/>
		<v:layer v:name="symbols" v:index="0"/>
		<g id="group669-1" transform="translate(6.01875,-6.5625)" v:mID="669" v:groupContext="group" v:layerMember="0">
			<title>SCOM</title>
			<g id="group670-2" transform="translate(20.25,-22.5)" v:mID="670" v:groupContext="group" v:layerMember="0">
				<title>Sheet.670</title>
				<g id="shape671-3" v:mID="671" v:groupContext="shape" v:layerMember="0">
					<title>Sheet.671</title>
					<path d="M0 70.88 L0 39.45 C0 37.35 1.72 35.63 3.82 35.63 L16.42 35.63 C18.52 35.63 20.25 37.35 20.25 39.45 L20.25
								 70.88 L0 70.88 Z" class="st1"/>
				</g>
				<g id="shape672-5" v:mID="672" v:groupContext="shape" v:layerMember="0" transform="translate(2.25,-2.25)">
					<title>Sheet.672</title>
					<path d="M14.17 40.13 L1.57 40.13 C0.67 40.13 0 40.8 0 41.7 L0 70.88 L15.75 70.88 L15.75 41.7 C15.75 40.8 15.07
								 40.13 14.17 40.13 ZM12.75 67.88 L3 67.88 L3 66.38 L12.75 66.38 L12.75 67.88 ZM12.75 64.13 L3 64.13
								 L3 62.63 L12.75 62.63 L12.75 64.13 ZM12.75 45.38 L3 45.38 L3 43.88 L12.75 43.88 L12.75 45.38 Z"
							class="st2"/>
				</g>
			</g>
			<g id="group673-7" transform="translate(3.01759E-13,-13.5)" v:mID="673" v:groupContext="group" v:layerMember="0">
				<title>Sheet.673</title>
				<g id="shape674-8" v:mID="674" v:groupContext="shape" v:layerMember="0">
					<title>Sheet.674</title>
					<path d="M0 70.88 L0 39.45 C0 37.35 1.72 35.63 3.82 35.63 L16.42 35.63 C18.52 35.63 20.25 37.35 20.25 39.45 L20.25
								 70.88 L0 70.88 Z" class="st1"/>
				</g>
				<g id="shape675-10" v:mID="675" v:groupContext="shape" v:layerMember="0" transform="translate(2.25,-2.25)">
					<title>Sheet.675</title>
					<path d="M14.17 40.13 L1.57 40.13 C0.67 40.13 0 40.8 0 41.7 L0 70.88 L15.75 70.88 L15.75 41.7 C15.75 40.8 15.07
								 40.13 14.17 40.13 ZM12.75 67.88 L3 67.88 L3 66.38 L12.75 66.38 L12.75 67.88 ZM12.75 64.13 L3 64.13
								 L3 62.63 L12.75 62.63 L12.75 64.13 ZM12.75 45.38 L3 45.38 L3 43.88 L12.75 43.88 L12.75 45.38 Z"
							class="st2"/>
				</g>
			</g>
			<g id="group676-12" transform="translate(40.5,-13.5)" v:mID="676" v:groupContext="group" v:layerMember="0">
				<title>Sheet.676</title>
				<g id="shape677-13" v:mID="677" v:groupContext="shape" v:layerMember="0">
					<title>Sheet.677</title>
					<path d="M0 70.88 L0 39.45 C0 37.35 1.72 35.63 3.82 35.63 L16.42 35.63 C18.52 35.63 20.25 37.35 20.25 39.45 L20.25
								 70.88 L0 70.88 Z" class="st1"/>
				</g>
				<g id="shape678-15" v:mID="678" v:groupContext="shape" v:layerMember="0" transform="translate(2.25,-2.25)">
					<title>Sheet.678</title>
					<path d="M14.17 40.13 L1.57 40.13 C0.67 40.13 0 40.8 0 41.7 L0 70.88 L15.75 70.88 L15.75 41.7 C15.75 40.8 15.07
								 40.13 14.17 40.13 ZM12.75 67.88 L3 67.88 L3 66.38 L12.75 66.38 L12.75 67.88 ZM12.75 64.13 L3 64.13
								 L3 62.63 L12.75 62.63 L12.75 64.13 ZM12.75 45.38 L3 45.38 L3 43.88 L12.75 43.88 L12.75 45.38 Z"
							class="st2"/>
				</g>
			</g>
			<g id="group679-17" transform="translate(13.5,2.98428E-13)" v:mID="679" v:groupContext="group" v:layerMember="0">
				<title>Sheet.679</title>
				<g id="shape680-18" v:mID="680" v:groupContext="shape" v:layerMember="0">
					<title>Sheet.680</title>
					<path d="M9.15 70.88 C7.43 70.88 6 69.45 6 67.73 C6 66.9 6.3 66.23 6.75 65.63 L3.75 65.63 C1.65 65.63 0 63.98
								 0 61.88 L0 45.38 C-0 43.28 1.65 41.63 3.75 41.63 L30 41.63 C32.1 41.63 33.75 43.28 33.75 45.38 L33.75
								 61.88 C33.75 63.98 32.1 65.63 30 65.63 L26.85 65.63 C27.3 66.15 27.6 66.9 27.6 67.73 C27.6 69.45
								 26.18 70.88 24.45 70.88 L9.15 70.88 Z" class="st1"/>
				</g>
				<g id="shape681-20" v:mID="681" v:groupContext="shape" v:layerMember="0" transform="translate(2.25,-2.325)">
					<title>Sheet.681</title>
					<path d="M27.75 46.2 L1.5 46.2 C0.68 46.2 0 46.88 0 47.7 L0 64.2 C0 65.03 0.68 65.7 1.5 65.7 L11.25 65.7 C12.08
								 68.55 11.33 69 6.9 69.08 C6.38 69.08 6 69.53 6 69.98 C6 70.5 6.45 70.88 6.9 70.88 L22.2 70.88 C22.73
								 70.88 23.1 70.43 23.1 69.98 C23.1 69.45 22.73 69.08 22.2 69.08 C17.78 69 17.1 68.55 17.85 65.7 L27.75
								 65.7 C28.58 65.7 29.25 65.03 29.25 64.2 L29.25 47.7 C29.25 46.88 28.58 46.2 27.75 46.2 ZM27 63.45
								 L2.25 63.45 L2.25 48.45 L27 48.45 L27 63.45 Z" class="st2"/>
				</g>
			</g>
		</g>
	</g>
</svg>
