<?xml version="1.0" encoding="UTF-8" standalone="no"?>
<!DOCTYPE svg PUBLIC "-//W3C//DTD SVG 1.1//EN" "http://www.w3.org/Graphics/SVG/1.1/DTD/svg11.dtd">
<!-- Generated by Microsoft Visio, SVG Export Server-side Code.svg Page-1 -->
<svg xmlns="http://www.w3.org/2000/svg" xmlns:xlink="http://www.w3.org/1999/xlink" xmlns:ev="http://www.w3.org/2001/xml-events"
		xmlns:v="http://schemas.microsoft.com/visio/2003/SVGExtensions/" width="0.875in" height="1.01563in" viewBox="0 0 63 73.125"
		xml:space="preserve" color-interpolation-filters="sRGB" class="st5">
	<v:documentProperties v:langID="4108" v:metric="true" v:viewMarkup="false"/>

	<style type="text/css">
	<![CDATA[
		.st1 {fill:#ffffff;stroke:none;stroke-linecap:butt;stroke-width:0.75}
		.st2 {fill:#515150;stroke:none;stroke-linecap:butt;stroke-width:0.75}
		.st3 {fill:#515251;stroke:none;stroke-linecap:butt;stroke-width:0.75}
		.st4 {fill:#515050;stroke:none;stroke-linecap:butt;stroke-width:0.75}
		.st5 {fill:none;fill-rule:evenodd;font-size:12px;overflow:visible;stroke-linecap:square;stroke-miterlimit:3}
	]]>
	</style>

	<g v:mID="0" v:index="1" v:groupContext="foregroundPage">
		<title>Page-1</title>
		<v:pageProperties v:drawingScale="0.0393701" v:pageScale="0.0393701" v:drawingUnits="24" v:shadowOffsetX="8.50394"
				v:shadowOffsetY="-8.50394"/>
		<v:layer v:name="symbols" v:index="0"/>
		<g id="group854-1" transform="translate(6.5625,-6.1875)" v:mID="854" v:groupContext="group" v:layerMember="0">
			<title>Server-side Code</title>
			<g id="group855-2" transform="translate(-2.65787E-13,-3.75)" v:mID="855" v:groupContext="group" v:layerMember="0">
				<title>Sheet.855</title>
				<g id="shape856-3" v:mID="856" v:groupContext="shape" v:layerMember="0">
					<title>Sheet.856</title>
					<path d="M0 73.13 L0 21.38 C0 18.45 2.33 16.13 5.25 16.13 L26.25 16.13 C29.18 16.13 31.5 18.45 31.5 21.38 L31.5
								 73.13 L0 73.13 Z" class="st1"/>
				</g>
				<g id="shape857-5" v:mID="857" v:groupContext="shape" v:layerMember="0" transform="translate(2.25,-2.25)">
					<title>Sheet.857</title>
					<path d="M24 20.63 L3 20.63 C1.35 20.63 0 21.98 0 23.63 L0 73.13 L27 73.13 L27 23.63 C27 21.98 25.65 20.63 24
								 20.63 ZM21.75 67.13 L5.25 67.13 L5.25 64.88 L21.75 64.88 L21.75 67.13 ZM21.75 60.38 L5.25 60.38
								 L5.25 58.13 L21.75 58.13 L21.75 60.38 ZM21.75 29.63 L5.25 29.63 L5.25 27.38 L21.75 27.38 L21.75
								 29.63 Z" class="st2"/>
				</g>
			</g>
			<g id="group858-7" transform="translate(18.75,0)" v:mID="858" v:groupContext="group" v:layerMember="0">
				<title>Sheet.858</title>
				<g id="shape859-8" v:mID="859" v:groupContext="shape" v:layerMember="0">
					<title>Sheet.859</title>
					<rect x="0" y="43.875" width="34.5" height="29.25" class="st1"/>
				</g>
				<g id="group860-10" transform="translate(2.25,-2.25)" v:mID="860" v:groupContext="group" v:layerMember="0">
					<title>Sheet.860</title>
					<g id="shape861-11" v:mID="861" v:groupContext="shape" v:layerMember="0">
						<title>Sheet.861</title>
						<rect x="0" y="48.375" width="30" height="24.75" class="st1"/>
					</g>
					<g id="shape862-13" v:mID="862" v:groupContext="shape" v:layerMember="0">
						<title>Sheet.862</title>
						<path d="M28.5 49.88 L28.5 71.63 L1.5 71.63 L1.5 49.88 L28.5 49.88 ZM30 48.38 L0 48.38 L0 73.13 L30 73.13
									 L30 48.38 Z" class="st3"/>
					</g>
				</g>
			</g>
			<g id="group863-15" transform="translate(25.5,-9.75)" v:mID="863" v:groupContext="group" v:layerMember="0">
				<title>Sheet.863</title>
				<g id="shape864-16" v:mID="864" v:groupContext="shape" v:layerMember="0" transform="translate(1.02418E-13,-1.05)">
					<title>Sheet.864</title>
					<path d="M0 68.93 L0 69.75 L6.75 73.13 L6.75 71.78 L1.73 69.3 L6.75 66.53 L6.75 65.18 L0 68.93 Z" class="st4"/>
				</g>
				<g id="shape865-18" v:mID="865" v:groupContext="shape" v:layerMember="0" transform="translate(14.25,-1.05)">
					<title>Sheet.865</title>
					<path d="M0 65.18 L0 66.53 L5.02 69.3 L0 71.78 L0 73.13 L6.75 69.75 L6.75 68.93 L0 65.18 Z" class="st4"/>
				</g>
				<g id="shape866-20" v:mID="866" v:groupContext="shape" v:layerMember="0" transform="translate(7.65,0)">
					<title>Sheet.866</title>
					<path d="M3.98 63.38 L0 73.13 L1.35 73.13 L5.4 63.38 L3.98 63.38 Z" class="st3"/>
				</g>
			</g>
		</g>
	</g>
</svg>
