<?xml version="1.0" encoding="UTF-8" standalone="no"?>
<!DOCTYPE svg PUBLIC "-//W3C//DTD SVG 1.1//EN" "http://www.w3.org/Graphics/SVG/1.1/DTD/svg11.dtd">
<!-- Generated by Microsoft Visio, SVG Export Server Farm - ghosted.svg Page-1 -->
<svg xmlns="http://www.w3.org/2000/svg" xmlns:xlink="http://www.w3.org/1999/xlink" xmlns:ev="http://www.w3.org/2001/xml-events"
		xmlns:v="http://schemas.microsoft.com/visio/2003/SVGExtensions/" width="1.01172in" height="0.90625in"
		viewBox="0 0 72.8437 65.25" xml:space="preserve" color-interpolation-filters="sRGB" class="st4">
	<v:documentProperties v:langID="4108" v:metric="true" v:viewMarkup="false"/>

	<style type="text/css">
	<![CDATA[
		.st1 {fill:#ffffff;stroke:none;stroke-linecap:butt;stroke-width:0.75}
		.st2 {fill:#9b9b9b;stroke:none;stroke-linecap:butt;stroke-width:0.75}
		.st3 {fill:#cccbcb;stroke:none;stroke-linecap:butt;stroke-width:0.75}
		.st4 {fill:none;fill-rule:evenodd;font-size:12px;overflow:visible;stroke-linecap:square;stroke-miterlimit:3}
	]]>
	</style>

	<g v:mID="0" v:index="1" v:groupContext="foregroundPage">
		<title>Page-1</title>
		<v:pageProperties v:drawingScale="0.0393701" v:pageScale="0.0393701" v:drawingUnits="24" v:shadowOffsetX="8.50394"
				v:shadowOffsetY="-8.50394"/>
		<v:layer v:name="symbols" v:index="0"/>
		<g id="group775-1" transform="translate(5.94375,-6.5625)" v:mID="775" v:groupContext="group" v:layerMember="0">
			<title>Server Farm - ghosted</title>
			<g id="group776-2" v:mID="776" v:groupContext="group" v:layerMember="0">
				<title>Sheet.776</title>
				<g id="shape777-3" v:mID="777" v:groupContext="shape" v:layerMember="0">
					<title>Sheet.777</title>
					<path d="M56.93 25.5 L51 25.5 L51 15.82 C51 13.72 49.27 12 47.17 12 L33.07 12 C32.02 12 31.05 12.45 30.37 13.12
								 C29.7 12.45 28.73 12 27.68 12 L13.58 12 C11.48 12 9.75 13.72 9.75 15.82 L9.75 25.5 L3.82 25.5 C1.72
								 25.5 0 27.22 0 29.32 L0 65.25 L19.5 65.25 L21.75 65.25 L39 65.25 L41.25 65.25 L60.75 65.25 L60.75
								 29.32 C60.75 27.22 59.02 25.5 56.93 25.5 Z" class="st1"/>
				</g>
				<g id="shape778-5" v:mID="778" v:groupContext="shape" v:layerMember="0" transform="translate(2.25,-2.25)">
					<title>Sheet.778</title>
					<path d="M15.68 30 L1.58 30 C0.68 30 0 30.67 0 31.57 L0 65.25 L17.25 65.25 L17.25 31.57 C17.25 30.67 16.58 30
								 15.68 30 ZM14.25 61.5 L3 61.5 L3 60 L14.25 60 L14.25 61.5 ZM14.25 57 L3 57 L3 55.5 L14.25 55.5 L14.25
								 57 ZM14.25 36 L3 36 L3 34.5 L14.25 34.5 L14.25 36 ZM35.17 30 L21.08 30 C20.18 30 19.5 30.67 19.5
								 31.57 L19.5 65.25 L36.75 65.25 L36.75 31.57 C36.75 30.67 36.07 30 35.17 30 ZM33.75 61.5 L22.5 61.5
								 L22.5 60 L33.75 60 L33.75 61.5 ZM33.75 57 L22.5 57 L22.5 55.5 L33.75 55.5 L33.75 57 ZM33.75 36 L22.5
								 36 L22.5 34.5 L33.75 34.5 L33.75 36 ZM15.68 27.75 C16.72 27.75 17.7 28.2 18.38 28.87 C19.05 28.2
								 20.03 27.75 21.08 27.75 L27 27.75 L27 18.07 C27 17.17 26.33 16.5 25.43 16.5 L11.32 16.5 C10.42 16.5
								 9.75 17.17 9.75 18.07 L9.75 27.75 L15.68 27.75 ZM12.75 21 L24 21 L24 22.5 L12.75 22.5 L12.75 21
								 ZM35.17 27.75 C36.23 27.75 37.2 28.2 37.87 28.87 C38.55 28.2 39.53 27.75 40.57 27.75 L46.5 27.75
								 L46.5 18.07 C46.5 17.17 45.83 16.5 44.93 16.5 L30.83 16.5 C29.93 16.5 29.25 17.17 29.25 18.07 L29.25
								 27.75 L35.17 27.75 ZM32.25 21 L43.5 21 L43.5 22.5 L32.25 22.5 L32.25 21 ZM54.68 30 L40.57 30 C39.67
								 30 39 30.67 39 31.57 L39 65.25 L56.25 65.25 L56.25 31.57 C56.25 30.67 55.58 30 54.68 30 ZM53.25
								 61.5 L42 61.5 L42 60 L53.25 60 L53.25 61.5 ZM53.25 57 L42 57 L42 55.5 L53.25 55.5 L53.25 57 ZM53.25
								 36 L42 36 L42 34.5 L53.25 34.5 L53.25 36 Z" class="st2"/>
				</g>
				<g id="group779-7" transform="translate(2.25,-2.25)" v:mID="779" v:groupContext="group" v:layerMember="0">
					<title>Sheet.779</title>
					<g id="shape780-8" v:mID="780" v:groupContext="shape" v:layerMember="0" transform="translate(9.75,-44.85)">
						<title>Sheet.780</title>
						<path d="M3.83 61.35 L1.72 61.35 L0 63.07 L0 65.25 L3.83 61.35 Z" class="st3"/>
					</g>
					<g id="shape781-10" v:mID="781" v:groupContext="shape" v:layerMember="0" transform="translate(0,-30.525)">
						<title>Sheet.781</title>
						<path d="M2.63 60.52 L0 63.15 L0 65.25 L4.73 60.52 L2.63 60.52 Z" class="st3"/>
					</g>
					<g id="shape782-12" v:mID="782" v:groupContext="shape" v:layerMember="0" transform="translate(9.75,-40.35)">
						<title>Sheet.782</title>
						<path d="M0 63.15 L0 65.25 L3 62.25 L3 61.35 L3.9 61.35 L8.33 56.85 L6.23 56.85 L0 63.15 Z" class="st3"/>
					</g>
					<g id="shape783-14" v:mID="783" v:groupContext="shape" v:layerMember="0"
							transform="translate(-1.13909E-13,-26.025)">
						<title>Sheet.783</title>
						<path d="M3.23 62.02 L3 62.02 L3 60.52 L4.73 60.52 L9.15 56.02 L7.05 56.02 L0 63.15 L0 65.25 L3.23 62.02 Z"
								class="st3"/>
					</g>
					<g id="shape784-16" v:mID="784" v:groupContext="shape" v:layerMember="0" transform="translate(9.75,-37.5)">
						<title>Sheet.784</title>
						<path d="M4.72 60 L0 64.8 L0 65.25 L1.65 65.25 L6.82 60 L4.72 60 Z" class="st3"/>
					</g>
					<g id="shape785-18" v:mID="785" v:groupContext="shape" v:layerMember="0" transform="translate(15.975,-44.25)">
						<title>Sheet.785</title>
						<path d="M2.1 65.25 L6.53 60.75 L4.43 60.75 L0 65.25 L2.1 65.25 Z" class="st3"/>
					</g>
					<g id="shape786-20" v:mID="786" v:groupContext="shape" v:layerMember="0" transform="translate(7.05,-30.75)">
						<title>Sheet.786</title>
						<path d="M4.5 60.75 L0 65.25 L2.1 65.25 L6.6 60.75 L4.5 60.75 Z" class="st3"/>
					</g>
					<g id="shape787-22" v:mID="787" v:groupContext="shape" v:layerMember="0"
							transform="translate(1.1241E-13,-21.525)">
						<title>Sheet.787</title>
						<path d="M5.55 57.52 L0 63.15 L0 65.25 L7.72 57.52 L5.55 57.52 Z" class="st3"/>
					</g>
					<g id="shape788-24" v:mID="788" v:groupContext="shape" v:layerMember="0" transform="translate(13.8,-37.5)">
						<title>Sheet.788</title>
						<path d="M2.02 65.25 L7.27 60 L5.17 60 L0 65.25 L1.87 65.25 C1.95 65.25 2.02 65.25 2.02 65.25 Z"
								class="st3"/>
					</g>
					<g id="shape789-26" v:mID="789" v:groupContext="shape" v:layerMember="0" transform="translate(20.4,-44.25)">
						<title>Sheet.789</title>
						<path d="M2.17 65.25 L6.15 61.2 C5.85 60.9 5.47 60.75 5.02 60.75 L4.5 60.75 L0 65.25 L2.17 65.25 Z"
								class="st3"/>
					</g>
					<g id="shape790-28" v:mID="790" v:groupContext="shape" v:layerMember="0" transform="translate(0,-17.025)">
						<title>Sheet.790</title>
						<path d="M12.15 53.02 L10.05 53.02 L0 63.15 L0 65.25 L12.15 53.02 Z" class="st3"/>
					</g>
					<g id="shape791-30" v:mID="791" v:groupContext="shape" v:layerMember="0" transform="translate(17.625,-36.375)">
						<title>Sheet.791</title>
						<path d="M0.75 65.25 C1.28 64.72 1.88 64.35 2.63 64.2 L9.38 57.37 L9.38 55.27 L6.38 58.27 L6.38 58.87 L5.78
									 58.87 L0 64.72 C0.3 64.87 0.53 65.02 0.75 65.25 Z" class="st3"/>
					</g>
					<g id="shape792-32" v:mID="792" v:groupContext="shape" v:layerMember="0" transform="translate(11.55,-30.75)">
						<title>Sheet.792</title>
						<path d="M5.63 61.72 C5.4 61.2 5.03 60.9 4.43 60.75 L0 65.25 L2.1 65.25 L5.63 61.72 Z" class="st3"/>
					</g>
					<g id="shape793-34" v:mID="793" v:groupContext="shape" v:layerMember="0" transform="translate(29.25,-46.5)">
						<title>Sheet.793</title>
						<path d="M0 64.57 L0 65.25 L2.25 63 L1.58 63 C0.68 63 0 63.67 0 64.57 Z" class="st3"/>
					</g>
					<g id="shape794-36" v:mID="794" v:groupContext="shape" v:layerMember="0" transform="translate(22.725,-37.5)">
						<title>Sheet.794</title>
						<path d="M0 65.25 L2.1 65.25 L4.28 63.07 L4.28 60.97 L0 65.25 Z" class="st3"/>
					</g>
					<g id="shape795-38" v:mID="795" v:groupContext="shape" v:layerMember="0"
							transform="translate(-2.80775E-13,-12.45)">
						<title>Sheet.795</title>
						<path d="M0 65.25 L17.25 47.85 L17.25 45.75 L0 63.07 L0 65.25 Z" class="st3"/>
					</g>
					<g id="shape796-40" v:mID="796" v:groupContext="shape" v:layerMember="0" transform="translate(29.25,-41.925)">
						<title>Sheet.796</title>
						<path d="M0 63.07 L0 65.25 L6.75 58.42 L4.65 58.42 L0 63.07 Z" class="st3"/>
					</g>
					<g id="shape797-42" v:mID="797" v:groupContext="shape" v:layerMember="0" transform="translate(19.5,-32.1)">
						<title>Sheet.797</title>
						<path d="M3.08 62.1 L1.58 62.1 C1.28 62.1 1.05 62.17 0.83 62.32 L0.23 62.92 C0.08 63.15 0 63.45 0 63.67 L0
									 65.25 L3.08 62.1 Z" class="st3"/>
					</g>
					<g id="shape798-44" v:mID="798" v:groupContext="shape" v:layerMember="0" transform="translate(29.25,-37.5)">
						<title>Sheet.798</title>
						<path d="M0 65.25 L0.07 65.25 L5.33 60 L3.23 60 L0 63.22 L0 65.25 Z" class="st3"/>
					</g>
					<g id="shape799-46" v:mID="799" v:groupContext="shape" v:layerMember="0" transform="translate(33.9,-44.25)">
						<title>Sheet.799</title>
						<path d="M0 65.25 L2.17 65.25 L6.6 60.75 L4.5 60.75 L0 65.25 Z" class="st3"/>
					</g>
					<g id="shape800-48" v:mID="800" v:groupContext="shape" v:layerMember="0" transform="translate(19.5,-27.6)">
						<title>Sheet.800</title>
						<path d="M0 65.25 L3 62.25 L3 62.1 L3.15 62.1 L7.58 57.6 L5.48 57.6 L0 63.15 L0 65.25 Z" class="st3"/>
					</g>
					<g id="shape801-50" v:mID="801" v:groupContext="shape" v:layerMember="0"
							transform="translate(-2.80775E-13,-7.95)">
						<title>Sheet.801</title>
						<path d="M17.25 45.75 L0 63.07 L0 65.25 L17.25 47.85 L17.25 45.75 Z" class="st3"/>
					</g>
					<g id="shape802-52" v:mID="802" v:groupContext="shape" v:layerMember="0" transform="translate(19.5,-23.1)">
						<title>Sheet.802</title>
						<path d="M0 65.25 L6.15 59.1 L3.97 59.1 L0 63.15 L0 65.25 Z" class="st3"/>
					</g>
					<g id="shape803-54" v:mID="803" v:groupContext="shape" v:layerMember="0" transform="translate(4.125,-9.75)">
						<title>Sheet.803</title>
						<path d="M13.12 54.15 L13.12 52.05 L0 65.25 L2.1 65.25 L13.12 54.15 Z" class="st3"/>
					</g>
					<g id="shape804-56" v:mID="804" v:groupContext="shape" v:layerMember="0" transform="translate(38.4,-44.25)">
						<title>Sheet.804</title>
						<path d="M2.1 65.25 L6.6 60.75 C6.6 60.75 6.52 60.75 6.52 60.75 L4.5 60.75 L0 65.25 L2.1 65.25 Z"
								class="st3"/>
					</g>
					<g id="shape805-58" v:mID="805" v:groupContext="shape" v:layerMember="0" transform="translate(0,-3.45)">
						<title>Sheet.805</title>
						<path d="M4.73 60.45 L3 60.45 L3 60.07 L0 63.07 L0 65.25 L4.73 60.45 Z" class="st3"/>
					</g>
					<g id="shape806-60" v:mID="806" v:groupContext="shape" v:layerMember="0" transform="translate(31.725,-37.5)">
						<title>Sheet.806</title>
						<path d="M2.1 65.25 L7.27 60 L5.17 60 L0 65.25 L2.1 65.25 Z" class="st3"/>
					</g>
					<g id="shape807-62" v:mID="807" v:groupContext="shape" v:layerMember="0" transform="translate(24.975,-30.75)">
						<title>Sheet.807</title>
						<path d="M4.5 60.75 L0 65.25 L2.1 65.25 L6.6 60.75 L4.5 60.75 Z" class="st3"/>
					</g>
					<g id="shape808-64" v:mID="808" v:groupContext="shape" v:layerMember="0" transform="translate(8.625,-9.75)">
						<title>Sheet.808</title>
						<path d="M8.62 58.65 L8.62 56.55 L0 65.25 L2.1 65.25 L8.62 58.65 Z" class="st3"/>
					</g>
					<g id="shape809-66" v:mID="809" v:groupContext="shape" v:layerMember="0" transform="translate(4.125,-5.25)">
						<title>Sheet.809</title>
						<path d="M2.1 65.25 L5.1 62.25 L3 62.25 L0 65.25 L2.1 65.25 Z" class="st3"/>
					</g>
					<g id="shape810-68" v:mID="810" v:groupContext="shape" v:layerMember="0">
						<title>Sheet.810</title>
						<path d="M0 64.12 L0 65.25 L1.05 65.25 L4.73 61.5 L3 61.5 L3 61.12 L0 64.12 Z" class="st3"/>
					</g>
					<g id="shape811-70" v:mID="811" v:groupContext="shape" v:layerMember="0" transform="translate(36.075,-36.675)">
						<title>Sheet.811</title>
						<path d="M7.42 57.67 L7.42 59.17 L5.32 59.17 L0 64.57 C0.52 64.72 0.97 64.95 1.42 65.25 L10.42 56.17 L10.42
									 54.75 C10.42 54.52 10.35 54.37 10.35 54.15 L6.82 57.67 L7.42 57.67 Z" class="st3"/>
					</g>
					<g id="shape812-72" v:mID="812" v:groupContext="shape" v:layerMember="0" transform="translate(29.4,-30.75)">
						<title>Sheet.812</title>
						<path d="M2.18 65.25 L6.45 60.9 C6.23 60.82 6 60.75 5.7 60.75 L4.5 60.75 L0 65.25 L2.18 65.25 Z"
								class="st3"/>
					</g>
					<g id="shape813-74" v:mID="813" v:groupContext="shape" v:layerMember="0" transform="translate(19.5,-18.6)">
						<title>Sheet.813</title>
						<path d="M10.58 54.6 L8.48 54.6 L0 63.15 L0 65.25 L10.58 54.6 Z" class="st3"/>
					</g>
					<g id="shape814-76" v:mID="814" v:groupContext="shape" v:layerMember="0" transform="translate(40.65,-37.5)">
						<title>Sheet.814</title>
						<path d="M2.17 65.25 L5.85 61.5 L5.85 59.4 L0 65.25 L2.17 65.25 Z" class="st3"/>
					</g>
					<g id="shape815-78" v:mID="815" v:groupContext="shape" v:layerMember="0" transform="translate(19.5,-14.1)">
						<title>Sheet.815</title>
						<path d="M14.25 50.1 L12.98 50.1 L0 63.15 L0 65.25 L17.25 47.92 L17.25 45.82 L14.25 48.82 L14.25 50.1 Z"
								class="st3"/>
					</g>
					<g id="shape816-80" v:mID="816" v:groupContext="shape" v:layerMember="0" transform="translate(39,-33.675)">
						<title>Sheet.816</title>
						<path d="M0 65.25 L1.58 63.67 C0.67 63.67 0 64.35 0 65.25 Z" class="st3"/>
					</g>
					<g id="shape817-82" v:mID="817" v:groupContext="shape" v:layerMember="0"
							transform="translate(3.375,-1.42109E-14)">
						<title>Sheet.817</title>
						<path d="M3.75 61.5 L0 65.25 L2.1 65.25 L5.85 61.5 L3.75 61.5 Z" class="st3"/>
					</g>
					<g id="shape818-84" v:mID="818" v:groupContext="shape" v:layerMember="0" transform="translate(13.05,-8.775)">
						<title>Sheet.818</title>
						<path d="M1.2 64.27 L1.2 65.25 L4.2 62.17 L4.2 60.07 L0 64.27 L1.2 64.27 Z" class="st3"/>
					</g>
					<g id="shape819-86" v:mID="819" v:groupContext="shape" v:layerMember="0" transform="translate(8.625,-5.25)">
						<title>Sheet.819</title>
						<path d="M2.93 62.25 L0 65.25 L2.1 65.25 L5.1 62.25 L2.93 62.25 Z" class="st3"/>
					</g>
					<g id="shape820-88" v:mID="820" v:groupContext="shape" v:layerMember="0" transform="translate(39,-29.175)">
						<title>Sheet.820</title>
						<path d="M3.9 59.17 L0 63.07 L0 65.25 L6 59.17 L3.9 59.17 Z" class="st3"/>
					</g>
					<g id="shape821-90" v:mID="821" v:groupContext="shape" v:layerMember="0" transform="translate(13.05,-4.275)">
						<title>Sheet.821</title>
						<path d="M1.2 65.25 L4.2 62.17 L4.2 60.07 L0 64.27 L1.2 64.27 L1.2 65.25 Z" class="st3"/>
					</g>
					<g id="shape822-92" v:mID="822" v:groupContext="shape" v:layerMember="0" transform="translate(19.5,-9.6)">
						<title>Sheet.822</title>
						<path d="M0 65.25 L17.25 47.92 L17.25 45.82 L0 63.15 L0 65.25 Z" class="st3"/>
					</g>
					<g id="shape823-94" v:mID="823" v:groupContext="shape" v:layerMember="0" transform="translate(45.15,-37.5)">
						<title>Sheet.823</title>
						<path d="M0 65.25 L1.35 65.25 L1.35 63.9 L0 65.25 Z" class="st3"/>
					</g>
					<g id="shape824-96" v:mID="824" v:groupContext="shape" v:layerMember="0"
							transform="translate(7.875,-1.42109E-14)">
						<title>Sheet.824</title>
						<path d="M5.85 61.5 L3.68 61.5 L0 65.25 L2.1 65.25 L5.85 61.5 Z" class="st3"/>
					</g>
					<g id="shape825-98" v:mID="825" v:groupContext="shape" v:layerMember="0"
							transform="translate(12.675,-1.42109E-14)">
						<title>Sheet.825</title>
						<path d="M4.58 60.6 L0 65.25 L2.1 65.25 L4.58 62.7 L4.58 60.6 Z" class="st3"/>
					</g>
					<g id="shape826-100" v:mID="826" v:groupContext="shape" v:layerMember="0" transform="translate(39,-24.525)">
						<title>Sheet.826</title>
						<path d="M3 60.07 L0 63.07 L0 65.25 L4.65 60.52 L3 60.52 L3 60.07 Z" class="st3"/>
					</g>
					<g id="shape827-102" v:mID="827" v:groupContext="shape" v:layerMember="0" transform="translate(43.05,-30.75)">
						<title>Sheet.827</title>
						<path d="M0 65.25 L2.1 65.25 L6.53 60.75 L4.43 60.75 L0 65.25 Z" class="st3"/>
					</g>
					<g id="shape828-104" v:mID="828" v:groupContext="shape" v:layerMember="0" transform="translate(19.5,-4.8)">
						<title>Sheet.828</title>
						<path d="M4.88 60.3 L17.25 47.77 L17.25 45.67 L0 63.15 L0 65.25 L3.45 61.8 L3 61.8 L3 60.3 L4.88 60.3 Z"
								class="st3"/>
					</g>
					<g id="shape829-106" v:mID="829" v:groupContext="shape" v:layerMember="0" transform="translate(26.7,-9.75)">
						<title>Sheet.829</title>
						<path d="M10.05 57.22 L10.05 55.12 L0 65.25 L2.18 65.25 L10.05 57.22 Z" class="st3"/>
					</g>
					<g id="shape830-108" v:mID="830" v:groupContext="shape" v:layerMember="0" transform="translate(47.475,-30.75)">
						<title>Sheet.830</title>
						<path d="M2.1 65.25 L6.53 60.75 L4.43 60.75 L0 65.25 L2.1 65.25 Z" class="st3"/>
					</g>
					<g id="shape831-110" v:mID="831" v:groupContext="shape" v:layerMember="0" transform="translate(17.1,0)">
						<title>Sheet.831</title>
						<path d="M0.15 65.1 L0 65.25 L0.15 65.25 L0.15 65.1 Z" class="st3"/>
					</g>
					<g id="shape832-112" v:mID="832" v:groupContext="shape" v:layerMember="0" transform="translate(19.5,-0.3)">
						<title>Sheet.832</title>
						<path d="M3 61.8 L3 60.3 L4.88 60.3 L7.88 57.3 L5.77 57.3 L0 63.15 L0 65.25 L3.45 61.8 L3 61.8 Z"
								class="st3"/>
					</g>
					<g id="shape833-114" v:mID="833" v:groupContext="shape" v:layerMember="0" transform="translate(39,-20.025)">
						<title>Sheet.833</title>
						<path d="M0 65.25 L9.07 56.02 L6.97 56.02 L0 63.07 L0 65.25 Z" class="st3"/>
					</g>
					<g id="shape834-116" v:mID="834" v:groupContext="shape" v:layerMember="0" transform="translate(26.775,-5.25)">
						<title>Sheet.834</title>
						<path d="M2.1 65.25 L5.1 62.25 L3 62.25 L0 65.25 L2.1 65.25 Z" class="st3"/>
					</g>
					<g id="shape835-118" v:mID="835" v:groupContext="shape" v:layerMember="0"
							transform="translate(21.6,-1.42109E-14)">
						<title>Sheet.835</title>
						<path d="M5.85 61.5 L3.75 61.5 L0 65.25 L2.1 65.25 L5.85 61.5 Z" class="st3"/>
					</g>
					<g id="shape836-120" v:mID="836" v:groupContext="shape" v:layerMember="0" transform="translate(51.975,-29.925)">
						<title>Sheet.836</title>
						<path d="M3.9 60.45 L0 64.42 L1.28 64.42 L1.28 65.25 L4.28 62.17 L4.28 61.5 C4.28 61.12 4.12 60.75 3.9 60.45
									 Z" class="st3"/>
					</g>
					<g id="shape837-122" v:mID="837" v:groupContext="shape" v:layerMember="0" transform="translate(31.2,-9.75)">
						<title>Sheet.837</title>
						<path d="M5.55 61.8 L5.55 59.62 L0 65.25 L2.18 65.25 L5.55 61.8 Z" class="st3"/>
					</g>
					<g id="shape838-124" v:mID="838" v:groupContext="shape" v:layerMember="0" transform="translate(39,-15.525)">
						<title>Sheet.838</title>
						<path d="M13.57 51.52 L11.47 51.52 L0 63.15 L0 65.25 L13.57 51.52 Z" class="st3"/>
					</g>
					<g id="shape839-126" v:mID="839" v:groupContext="shape" v:layerMember="0"
							transform="translate(26.1,-1.42109E-14)">
						<title>Sheet.839</title>
						<path d="M5.85 61.5 L3.75 61.5 L0 65.25 L2.1 65.25 L5.85 61.5 Z" class="st3"/>
					</g>
					<g id="shape840-128" v:mID="840" v:groupContext="shape" v:layerMember="0" transform="translate(39,-10.95)">
						<title>Sheet.840</title>
						<path d="M0 63.15 L0 65.25 L17.25 47.7 L17.25 45.6 L0 63.15 Z" class="st3"/>
					</g>
					<g id="shape841-130" v:mID="841" v:groupContext="shape" v:layerMember="0" transform="translate(31.275,-5.25)">
						<title>Sheet.841</title>
						<path d="M5.48 61.87 L5.48 59.7 L0 65.25 L2.1 65.25 L5.48 61.87 Z" class="st3"/>
					</g>
					<g id="shape842-132" v:mID="842" v:groupContext="shape" v:layerMember="0"
							transform="translate(30.675,5.68434E-14)">
						<title>Sheet.842</title>
						<path d="M6.08 59.02 L0 65.25 L2.1 65.25 L6.08 61.2 L6.08 59.02 Z" class="st3"/>
					</g>
					<g id="shape843-134" v:mID="843" v:groupContext="shape" v:layerMember="0" transform="translate(39,-6.375)">
						<title>Sheet.843</title>
						<path d="M0 63.15 L0 65.25 L3 62.17 L3 61.87 L3.3 61.87 L17.25 47.7 L17.25 45.52 L0 63.15 Z" class="st3"/>
					</g>
					<g id="shape844-136" v:mID="844" v:groupContext="shape" v:layerMember="0" transform="translate(39,-1.875)">
						<title>Sheet.844</title>
						<path d="M3 61.87 L3.3 61.87 L6.3 58.87 L4.2 58.87 L0 63.15 L0 65.25 L3 62.17 L3 61.87 Z" class="st3"/>
					</g>
					<g id="shape845-138" v:mID="845" v:groupContext="shape" v:layerMember="0"
							transform="translate(35.1,-1.42109E-14)">
						<title>Sheet.845</title>
						<path d="M1.65 63.52 L0 65.25 L1.65 65.25 L1.65 63.52 Z" class="st3"/>
					</g>
					<g id="shape846-140" v:mID="846" v:groupContext="shape" v:layerMember="0" transform="translate(44.625,-9.75)">
						<title>Sheet.846</title>
						<path d="M2.1 65.25 L11.63 55.57 L11.63 53.4 L0 65.25 L2.1 65.25 Z" class="st3"/>
					</g>
					<g id="shape847-142" v:mID="847" v:groupContext="shape" v:layerMember="0" transform="translate(49.125,-9.75)">
						<title>Sheet.847</title>
						<path d="M0 65.25 L2.1 65.25 L7.13 60.07 L7.13 57.9 L0 65.25 Z" class="st3"/>
					</g>
					<g id="shape848-144" v:mID="848" v:groupContext="shape" v:layerMember="0"
							transform="translate(39.6,-1.42109E-14)">
						<title>Sheet.848</title>
						<path d="M3.68 61.5 L0 65.25 L2.1 65.25 L5.78 61.5 L3.68 61.5 Z" class="st3"/>
					</g>
					<g id="shape849-146" v:mID="849" v:groupContext="shape" v:layerMember="0" transform="translate(44.7,-5.25)">
						<title>Sheet.849</title>
						<path d="M2.93 62.25 L0 65.25 L2.1 65.25 L5.03 62.25 L2.93 62.25 Z" class="st3"/>
					</g>
					<g id="shape850-148" v:mID="850" v:groupContext="shape" v:layerMember="0"
							transform="translate(43.95,-1.42109E-14)">
						<title>Sheet.850</title>
						<path d="M5.78 61.5 L3.68 61.5 L0 65.25 L2.1 65.25 L5.78 61.5 Z" class="st3"/>
					</g>
					<g id="shape851-150" v:mID="851" v:groupContext="shape" v:layerMember="0" transform="translate(49.125,-5.25)">
						<title>Sheet.851</title>
						<path d="M7.13 57.9 L4.13 60.97 L4.13 62.25 L2.93 62.25 L0 65.25 L2.1 65.25 L7.13 60.07 L7.13 57.9 Z"
								class="st3"/>
					</g>
					<g id="shape852-152" v:mID="852" v:groupContext="shape" v:layerMember="0"
							transform="translate(48.45,-9.9476E-14)">
						<title>Sheet.852</title>
						<path d="M7.8 59.4 L7.8 57.22 L4.8 60.3 L4.8 61.5 L3.68 61.5 L0 65.25 L2.1 65.25 L7.8 59.4 Z" class="st3"/>
					</g>
					<g id="shape853-154" v:mID="853" v:groupContext="shape" v:layerMember="0"
							transform="translate(52.95,2.84217E-14)">
						<title>Sheet.853</title>
						<path d="M0 65.25 L2.1 65.25 L3.3 63.97 L3.3 61.8 L0 65.25 Z" class="st3"/>
					</g>
				</g>
			</g>
		</g>
	</g>
</svg>
