<?xml version="1.0" encoding="UTF-8" standalone="no"?>
<!DOCTYPE svg PUBLIC "-//W3C//DTD SVG 1.1//EN" "http://www.w3.org/Graphics/SVG/1.1/DTD/svg11.dtd">
<!-- Generated by Microsoft Visio, SVG Export Server Farm.svg Page-1 -->
<svg xmlns="http://www.w3.org/2000/svg" xmlns:xlink="http://www.w3.org/1999/xlink" xmlns:ev="http://www.w3.org/2001/xml-events"
		xmlns:v="http://schemas.microsoft.com/visio/2003/SVGExtensions/" width="1.01172in" height="0.90625in"
		viewBox="0 0 72.8437 65.25" xml:space="preserve" color-interpolation-filters="sRGB" class="st3">
	<v:documentProperties v:langID="4108" v:metric="true" v:viewMarkup="false"/>

	<style type="text/css">
	<![CDATA[
		.st1 {fill:#ffffff;stroke:none;stroke-linecap:butt;stroke-width:0.75}
		.st2 {fill:#515050;stroke:none;stroke-linecap:butt;stroke-width:0.75}
		.st3 {fill:none;fill-rule:evenodd;font-size:12px;overflow:visible;stroke-linecap:square;stroke-miterlimit:3}
	]]>
	</style>

	<g v:mID="0" v:index="1" v:groupContext="foregroundPage">
		<title>Page-1</title>
		<v:pageProperties v:drawingScale="0.0393701" v:pageScale="0.0393701" v:drawingUnits="24" v:shadowOffsetX="8.50394"
				v:shadowOffsetY="-8.50394"/>
		<v:layer v:name="symbols" v:index="0"/>
		<g id="group744-1" transform="translate(6.13125,-6.5625)" v:mID="744" v:groupContext="group" v:layerMember="0">
			<title>Server Farm</title>
			<g id="group745-2" v:mID="745" v:groupContext="group" v:layerMember="0">
				<title>Sheet.745</title>
				<g id="group746-3" transform="translate(9.75,-13.5)" v:mID="746" v:groupContext="group" v:layerMember="0">
					<title>Sheet.746</title>
					<g id="group747-4" v:mID="747" v:groupContext="group" v:layerMember="0">
						<title>Sheet.747</title>
						<g id="shape748-5" v:mID="748" v:groupContext="shape" v:layerMember="0">
							<title>Sheet.748</title>
							<path d="M0 65.25 L0 29.32 C-0 27.22 1.72 25.5 3.83 25.5 L17.92 25.5 C20.02 25.5 21.75 27.22 21.75 29.32
										 L21.75 65.25 L0 65.25 Z" class="st1"/>
						</g>
						<g id="shape749-7" v:mID="749" v:groupContext="shape" v:layerMember="0" transform="translate(2.25,-2.25)">
							<title>Sheet.749</title>
							<path d="M15.67 30 L1.58 30 C0.68 30 0 30.67 0 31.57 L0 65.25 L17.25 65.25 L17.25 31.57 C17.25 30.67
										 16.57 30 15.67 30 ZM14.25 61.5 L3 61.5 L3 60 L14.25 60 L14.25 61.5 ZM14.25 57 L3 57 L3 55.5
										 L14.25 55.5 L14.25 57 ZM14.25 36 L3 36 L3 34.5 L14.25 34.5 L14.25 36 Z" class="st2"/>
						</g>
					</g>
					<g id="group750-9" transform="translate(19.5,0)" v:mID="750" v:groupContext="group" v:layerMember="0">
						<title>Sheet.750</title>
						<g id="shape751-10" v:mID="751" v:groupContext="shape" v:layerMember="0">
							<title>Sheet.751</title>
							<path d="M0 65.25 L0 29.32 C-0 27.22 1.72 25.5 3.83 25.5 L17.92 25.5 C20.02 25.5 21.75 27.22 21.75 29.32
										 L21.75 65.25 L0 65.25 Z" class="st1"/>
						</g>
						<g id="shape752-12" v:mID="752" v:groupContext="shape" v:layerMember="0" transform="translate(2.25,-2.25)">
							<title>Sheet.752</title>
							<path d="M15.67 30 L1.58 30 C0.68 30 0 30.67 0 31.57 L0 65.25 L17.25 65.25 L17.25 31.57 C17.25 30.67
										 16.57 30 15.67 30 ZM14.25 61.5 L3 61.5 L3 60 L14.25 60 L14.25 61.5 ZM14.25 57 L3 57 L3 55.5
										 L14.25 55.5 L14.25 57 ZM14.25 36 L3 36 L3 34.5 L14.25 34.5 L14.25 36 Z" class="st2"/>
						</g>
					</g>
				</g>
				<g id="group753-14" v:mID="753" v:groupContext="group" v:layerMember="0">
					<title>Sheet.753</title>
					<g id="group754-15" v:mID="754" v:groupContext="group" v:layerMember="0">
						<title>Sheet.754</title>
						<g id="shape755-16" v:mID="755" v:groupContext="shape" v:layerMember="0">
							<title>Sheet.755</title>
							<path d="M0 65.25 L0 29.32 C0 27.22 1.72 25.5 3.83 25.5 L17.92 25.5 C20.02 25.5 21.75 27.22 21.75 29.32
										 L21.75 65.25 L0 65.25 Z" class="st1"/>
						</g>
						<g id="shape756-18" v:mID="756" v:groupContext="shape" v:layerMember="0" transform="translate(2.25,-2.25)">
							<title>Sheet.756</title>
							<path d="M15.67 30 L1.57 30 C0.67 30 0 30.67 0 31.57 L0 65.25 L17.25 65.25 L17.25 31.57 C17.25 30.67
										 16.57 30 15.67 30 ZM14.25 61.5 L3 61.5 L3 60 L14.25 60 L14.25 61.5 ZM14.25 57 L3 57 L3 55.5
										 L14.25 55.5 L14.25 57 ZM14.25 36 L3 36 L3 34.5 L14.25 34.5 L14.25 36 Z" class="st2"/>
						</g>
					</g>
					<g id="group757-20" transform="translate(19.5,0)" v:mID="757" v:groupContext="group" v:layerMember="0">
						<title>Sheet.757</title>
						<g id="shape758-21" v:mID="758" v:groupContext="shape" v:layerMember="0">
							<title>Sheet.758</title>
							<path d="M0 65.25 L0 29.32 C0 27.22 1.72 25.5 3.83 25.5 L17.92 25.5 C20.02 25.5 21.75 27.22 21.75 29.32
										 L21.75 65.25 L0 65.25 Z" class="st1"/>
						</g>
						<g id="shape759-23" v:mID="759" v:groupContext="shape" v:layerMember="0" transform="translate(2.25,-2.25)">
							<title>Sheet.759</title>
							<path d="M15.67 30 L1.57 30 C0.67 30 0 30.67 0 31.57 L0 65.25 L17.25 65.25 L17.25 31.57 C17.25 30.67
										 16.57 30 15.67 30 ZM14.25 61.5 L3 61.5 L3 60 L14.25 60 L14.25 61.5 ZM14.25 57 L3 57 L3 55.5
										 L14.25 55.5 L14.25 57 ZM14.25 36 L3 36 L3 34.5 L14.25 34.5 L14.25 36 Z" class="st2"/>
						</g>
					</g>
					<g id="group760-25" transform="translate(39,0)" v:mID="760" v:groupContext="group" v:layerMember="0">
						<title>Sheet.760</title>
						<g id="shape761-26" v:mID="761" v:groupContext="shape" v:layerMember="0">
							<title>Sheet.761</title>
							<path d="M0 65.25 L0 29.32 C0 27.22 1.72 25.5 3.83 25.5 L17.92 25.5 C20.02 25.5 21.75 27.22 21.75 29.32
										 L21.75 65.25 L0 65.25 Z" class="st1"/>
						</g>
						<g id="shape762-28" v:mID="762" v:groupContext="shape" v:layerMember="0" transform="translate(2.25,-2.25)">
							<title>Sheet.762</title>
							<path d="M15.67 30 L1.57 30 C0.67 30 0 30.67 0 31.57 L0 65.25 L17.25 65.25 L17.25 31.57 C17.25 30.67
										 16.57 30 15.67 30 ZM14.25 61.5 L3 61.5 L3 60 L14.25 60 L14.25 61.5 ZM14.25 57 L3 57 L3 55.5
										 L14.25 55.5 L14.25 57 ZM14.25 36 L3 36 L3 34.5 L14.25 34.5 L14.25 36 Z" class="st2"/>
						</g>
					</g>
				</g>
			</g>
		</g>
	</g>
</svg>
