<?xml version="1.0" encoding="UTF-8" standalone="no"?>
<!DOCTYPE svg PUBLIC "-//W3C//DTD SVG 1.1//EN" "http://www.w3.org/Graphics/SVG/1.1/DTD/svg11.dtd">
<!-- Generated by Microsoft Visio, SVG Export Server, Generic - ghosted.svg Page-1 -->
<svg xmlns="http://www.w3.org/2000/svg" xmlns:xlink="http://www.w3.org/1999/xlink" xmlns:ev="http://www.w3.org/2001/xml-events"
		xmlns:v="http://schemas.microsoft.com/visio/2003/SVGExtensions/" width="0.625in" height="0.984375in"
		viewBox="0 0 45 70.875" xml:space="preserve" color-interpolation-filters="sRGB" class="st4">
	<v:documentProperties v:langID="4108" v:metric="true" v:viewMarkup="false"/>

	<style type="text/css">
	<![CDATA[
		.st1 {fill:#ffffff;stroke:none;stroke-linecap:butt;stroke-width:0.75}
		.st2 {fill:#9c9c9d;stroke:none;stroke-linecap:butt;stroke-width:0.75}
		.st3 {fill:#cccbcb;stroke:none;stroke-linecap:butt;stroke-width:0.75}
		.st4 {fill:none;fill-rule:evenodd;font-size:12px;overflow:visible;stroke-linecap:square;stroke-miterlimit:3}
	]]>
	</style>

	<g v:mID="0" v:index="1" v:groupContext="foregroundPage">
		<title>Page-1</title>
		<v:pageProperties v:drawingScale="0.0393701" v:pageScale="0.0393701" v:drawingUnits="24" v:shadowOffsetX="8.50394"
				v:shadowOffsetY="-8.50394"/>
		<v:layer v:name="symbols" v:index="0"/>
		<g id="group707-1" transform="translate(6.75,-6.9375)" v:mID="707" v:groupContext="group" v:layerMember="0">
			<title>Server, Generic - ghosted</title>
			<g id="group708-2" v:mID="708" v:groupContext="group" v:layerMember="0">
				<title>Sheet.708</title>
				<g id="shape709-3" v:mID="709" v:groupContext="shape" v:layerMember="0">
					<title>Sheet.709</title>
					<path d="M0 70.88 L0 19.13 C-0 16.2 2.33 13.88 5.25 13.88 L26.25 13.88 C29.18 13.88 31.5 16.2 31.5 19.13 L31.5
								 70.88 L0 70.88 Z" class="st1"/>
				</g>
				<g id="shape710-5" v:mID="710" v:groupContext="shape" v:layerMember="0" transform="translate(2.25,-2.25)">
					<title>Sheet.710</title>
					<path d="M24 18.38 L3 18.38 C1.35 18.38 0 19.73 0 21.38 L0 70.88 L27 70.88 L27 21.38 C27 19.73 25.65 18.38 24
								 18.38 ZM21.75 64.88 L5.25 64.88 L5.25 62.63 L21.75 62.63 L21.75 64.88 ZM21.75 58.13 L5.25 58.13
								 L5.25 55.88 L21.75 55.88 L21.75 58.13 ZM21.75 27.38 L5.25 27.38 L5.25 25.13 L21.75 25.13 L21.75
								 27.38 Z" class="st2"/>
				</g>
				<g id="group711-7" transform="translate(2.25,-2.25)" v:mID="711" v:groupContext="group" v:layerMember="0">
					<title>Sheet.711</title>
					<g id="shape712-8" v:mID="712" v:groupContext="shape" v:layerMember="0"
							transform="translate(2.69784E-14,-47.025)">
						<title>Sheet.712</title>
						<path d="M5.32 65.4 L3.22 65.4 L0 68.7 L0 70.88 L5.32 65.4 Z" class="st3"/>
					</g>
					<g id="shape713-10" v:mID="713" v:groupContext="shape" v:layerMember="0"
							transform="translate(-1.34892E-13,-42.525)">
						<title>Sheet.713</title>
						<path d="M0 68.7 L0 70.88 L9.83 60.9 L7.73 60.9 L0 68.7 Z" class="st3"/>
					</g>
					<g id="shape714-12" v:mID="714" v:groupContext="shape" v:layerMember="0" transform="translate(0,-38.025)">
						<title>Sheet.714</title>
						<path d="M5.4 65.4 L5.25 65.4 L5.25 63.45 L0 68.7 L0 70.88 L5.4 65.4 Z" class="st3"/>
					</g>
					<g id="shape715-14" v:mID="715" v:groupContext="shape" v:layerMember="0" transform="translate(5.55,-45.75)">
						<title>Sheet.715</title>
						<path d="M2.1 70.88 L8.77 64.13 L6.68 64.13 L0 70.88 L2.1 70.88 Z" class="st3"/>
					</g>
					<g id="shape716-16" v:mID="716" v:groupContext="shape" v:layerMember="0" transform="translate(9.975,-45.75)">
						<title>Sheet.716</title>
						<path d="M0 70.88 L2.18 70.88 L8.85 64.13 L6.75 64.13 L0 70.88 Z" class="st3"/>
					</g>
					<g id="shape717-18" v:mID="717" v:groupContext="shape" v:layerMember="0"
							transform="translate(-1.35891E-13,-33.525)">
						<title>Sheet.717</title>
						<path d="M7.8 60.9 L0 68.78 L0 70.88 L9.9 60.9 L7.8 60.9 Z" class="st3"/>
					</g>
					<g id="shape718-20" v:mID="718" v:groupContext="shape" v:layerMember="0" transform="translate(0,-29.025)">
						<title>Sheet.718</title>
						<path d="M14.33 56.4 L12.23 56.4 L0 68.78 L0 70.88 L14.33 56.4 Z" class="st3"/>
					</g>
					<g id="shape719-22" v:mID="719" v:groupContext="shape" v:layerMember="0" transform="translate(14.475,-45.75)">
						<title>Sheet.719</title>
						<path d="M2.1 70.88 L8.77 64.13 L6.68 64.13 L0 70.88 L2.1 70.88 Z" class="st3"/>
					</g>
					<g id="shape720-24" v:mID="720" v:groupContext="shape" v:layerMember="0" transform="translate(0,-24.525)">
						<title>Sheet.720</title>
						<path d="M16.72 51.9 L0 68.78 L0 70.88 L18.83 51.9 L16.72 51.9 Z" class="st3"/>
					</g>
					<g id="shape721-26" v:mID="721" v:groupContext="shape" v:layerMember="0" transform="translate(18.975,-45.75)">
						<title>Sheet.721</title>
						<path d="M2.1 70.88 L7.5 65.4 C7.2 64.95 6.83 64.65 6.38 64.43 L0 70.88 L2.1 70.88 Z" class="st3"/>
					</g>
					<g id="shape722-28" v:mID="722" v:groupContext="shape" v:layerMember="0" transform="translate(0,-20.025)">
						<title>Sheet.722</title>
						<path d="M27 43.65 L27 41.55 L21.75 46.88 L21.75 47.4 L21.23 47.4 L0 68.78 L0 70.88 L27 43.65 Z"
								class="st3"/>
					</g>
					<g id="shape723-30" v:mID="723" v:groupContext="shape" v:layerMember="0" transform="translate(0,-15.525)">
						<title>Sheet.723</title>
						<path d="M0 68.78 L0 70.88 L27 43.73 L27 41.63 L0 68.78 Z" class="st3"/>
					</g>
					<g id="shape724-32" v:mID="724" v:groupContext="shape" v:layerMember="0" transform="translate(0,-10.95)">
						<title>Sheet.724</title>
						<path d="M0 68.7 L0 70.88 L27 43.65 L27 41.55 L0 68.7 Z" class="st3"/>
					</g>
					<g id="shape725-34" v:mID="725" v:groupContext="shape" v:layerMember="0" transform="translate(0,-6.45)">
						<title>Sheet.725</title>
						<path d="M6.23 64.58 L5.25 64.58 L5.25 63.45 L0 68.7 L0 70.88 L6.23 64.58 Z" class="st3"/>
					</g>
					<g id="shape726-36" v:mID="726" v:groupContext="shape" v:layerMember="0" transform="translate(6.375,-15)">
						<title>Sheet.726</title>
						<path d="M2.1 70.88 L20.63 52.2 L20.63 50.1 L0 70.88 L2.1 70.88 Z" class="st3"/>
					</g>
					<g id="shape727-38" v:mID="727" v:groupContext="shape" v:layerMember="0" transform="translate(0,-1.95)">
						<title>Sheet.727</title>
						<path d="M8.62 60.08 L0 68.7 L0 70.88 L5.25 65.55 L5.25 64.58 L6.22 64.58 L10.72 60.08 L8.62 60.08 Z"
								class="st3"/>
					</g>
					<g id="shape728-40" v:mID="728" v:groupContext="shape" v:layerMember="0" transform="translate(10.8,-15)">
						<title>Sheet.728</title>
						<path d="M0 70.88 L2.18 70.88 L16.2 56.78 L16.2 54.6 L0 70.88 Z" class="st3"/>
					</g>
					<g id="shape729-42" v:mID="729" v:groupContext="shape" v:layerMember="0" transform="translate(15.3,-15)">
						<title>Sheet.729</title>
						<path d="M2.1 70.88 L11.7 61.28 L11.7 59.1 L0 70.88 L2.1 70.88 Z" class="st3"/>
					</g>
					<g id="shape730-44" v:mID="730" v:groupContext="shape" v:layerMember="0" transform="translate(8.625,-8.25)">
						<title>Sheet.730</title>
						<path d="M4.43 66.38 L0 70.88 L2.1 70.88 L6.53 66.38 L4.43 66.38 Z" class="st3"/>
					</g>
					<g id="shape731-46" v:mID="731" v:groupContext="shape" v:layerMember="0"
							transform="translate(0.375,-9.9476E-14)">
						<title>Sheet.731</title>
						<path d="M6 64.88 L0 70.88 L2.1 70.88 L8.1 64.88 L6 64.88 Z" class="st3"/>
					</g>
					<g id="shape732-48" v:mID="732" v:groupContext="shape" v:layerMember="0"
							transform="translate(4.875,-9.9476E-14)">
						<title>Sheet.732</title>
						<path d="M8.1 64.88 L5.93 64.88 L0 70.88 L2.1 70.88 L8.1 64.88 Z" class="st3"/>
					</g>
					<g id="shape733-50" v:mID="733" v:groupContext="shape" v:layerMember="0" transform="translate(13.05,-8.25)">
						<title>Sheet.733</title>
						<path d="M6.6 66.38 L4.5 66.38 L0 70.88 L2.1 70.88 L6.6 66.38 Z" class="st3"/>
					</g>
					<g id="shape734-52" v:mID="734" v:groupContext="shape" v:layerMember="0" transform="translate(19.8,-14.85)">
						<title>Sheet.734</title>
						<path d="M1.95 70.73 L1.95 70.88 L7.2 65.63 L7.2 63.45 L0 70.73 L1.95 70.73 Z" class="st3"/>
					</g>
					<g id="shape735-54" v:mID="735" v:groupContext="shape" v:layerMember="0"
							transform="translate(9.675,-9.9476E-14)">
						<title>Sheet.735</title>
						<path d="M5.93 64.88 L0 70.88 L2.1 70.88 L8.02 64.88 L5.93 64.88 Z" class="st3"/>
					</g>
					<g id="shape736-56" v:mID="736" v:groupContext="shape" v:layerMember="0" transform="translate(17.85,-8.25)">
						<title>Sheet.736</title>
						<path d="M9.15 61.58 L0 70.88 L2.1 70.88 L9.15 63.75 L9.15 61.58 Z" class="st3"/>
					</g>
					<g id="shape737-58" v:mID="737" v:groupContext="shape" v:layerMember="0"
							transform="translate(14.1,2.70006E-13)">
						<title>Sheet.737</title>
						<path d="M12.9 60 L12.9 57.83 L7.65 63.15 L7.65 64.88 L5.93 64.88 L0 70.88 L2.18 70.88 L12.9 60 Z"
								class="st3"/>
					</g>
					<g id="shape738-60" v:mID="738" v:groupContext="shape" v:layerMember="0"
							transform="translate(18.675,-5.68434E-14)">
						<title>Sheet.738</title>
						<path d="M8.32 64.58 L8.32 62.4 L0 70.88 L2.1 70.88 L8.32 64.58 Z" class="st3"/>
					</g>
					<g id="shape739-62" v:mID="739" v:groupContext="shape" v:layerMember="0" transform="translate(23.175,0)">
						<title>Sheet.739</title>
						<path d="M3.83 69.15 L3.83 66.98 L0 70.88 L2.1 70.88 L3.83 69.15 Z" class="st3"/>
					</g>
				</g>
			</g>
		</g>
	</g>
</svg>
