<?xml version="1.0" encoding="UTF-8" standalone="no"?>
<!DOCTYPE svg PUBLIC "-//W3C//DTD SVG 1.1//EN" "http://www.w3.org/Graphics/SVG/1.1/DTD/svg11.dtd">
<!-- Generated by Microsoft Visio, SVG Export Server Disaster.svg Page-1 -->
<svg xmlns="http://www.w3.org/2000/svg" xmlns:xlink="http://www.w3.org/1999/xlink" xmlns:ev="http://www.w3.org/2001/xml-events"
		xmlns:v="http://schemas.microsoft.com/visio/2003/SVGExtensions/" width="0.719032in" height="0.875in"
		viewBox="0 0 51.7703 63" xml:space="preserve" color-interpolation-filters="sRGB" class="st3">
	<v:documentProperties v:langID="4108" v:metric="true" v:viewMarkup="false"/>

	<style type="text/css">
	<![CDATA[
		.st1 {fill:#ffffff;stroke:none;stroke-linecap:butt;stroke-width:0.75}
		.st2 {fill:#505150;stroke:none;stroke-linecap:butt;stroke-width:0.75}
		.st3 {fill:none;fill-rule:evenodd;font-size:12px;overflow:visible;stroke-linecap:square;stroke-miterlimit:3}
	]]>
	</style>

	<g v:mID="0" v:index="1" v:groupContext="foregroundPage">
		<title>Page-1</title>
		<v:pageProperties v:drawingScale="0.0393701" v:pageScale="0.0393701" v:drawingUnits="24" v:shadowOffsetX="8.50394"
				v:shadowOffsetY="-8.50394"/>
		<v:layer v:name="symbols" v:index="0"/>
		<g id="group682-1" transform="translate(0.75,-0.75)" v:mID="682" v:groupContext="group" v:layerMember="0">
			<title>Server Disaster</title>
			<g id="group683-2" v:mID="683" v:groupContext="group" v:layerMember="0">
				<title>Sheet.683</title>
				<g id="shape684-3" v:mID="684" v:groupContext="shape" v:layerMember="0" transform="translate(2.51799E-13,-4.5)">
					<title>Sheet.684</title>
					<path d="M0 63 L0 11.25 C0 8.33 2.33 6 5.25 6 L26.25 6 C29.18 6 31.5 8.33 31.5 11.25 L31.5 63 L0 63 Z"
							class="st1"/>
				</g>
				<g id="shape685-5" v:mID="685" v:groupContext="shape" v:layerMember="0" transform="translate(2.25,-6.75)">
					<title>Sheet.685</title>
					<path d="M24 10.5 L3 10.5 C1.35 10.5 0 11.85 0 13.5 L0 63 L27 63 L27 13.5 C27 11.85 25.65 10.5 24 10.5 ZM21.75
								 57 L5.25 57 L5.25 54.75 L21.75 54.75 L21.75 57 ZM21.75 50.25 L5.25 50.25 L5.25 48 L21.75 48 L21.75
								 50.25 ZM21.75 19.5 L5.25 19.5 L5.25 17.25 L21.75 17.25 L21.75 19.5 Z" class="st2"/>
				</g>
				<g id="group686-7" transform="translate(16.35,0)" v:mID="686" v:groupContext="group" v:layerMember="0">
					<title>Sheet.686</title>
					<g id="group687-8" v:mID="687" v:groupContext="group" v:layerMember="0">
						<title>Sheet.687</title>
						<g id="shape688-9" v:mID="688" v:groupContext="shape" v:layerMember="0">
							<title>Sheet.688</title>
							<path d="M3.75 63 C2.32 63 1.2 62.4 0.6 61.35 C0 60.3 0 58.95 0.75 57.75 L13.95 33.45 C14.7 32.17 15.82
										 31.5 17.02 31.5 C18.22 31.5 19.35 32.17 20.1 33.37 L33.37 57.75 C34.05 58.95 34.12 60.22
										 33.45 61.27 C32.85 62.32 31.65 62.92 30.3 62.92 L3.75 62.92 L3.75 63 Z" class="st1"/>
						</g>
						<g id="shape689-11" v:mID="689" v:groupContext="shape" v:layerMember="0" transform="translate(2.025,-2.25)">
							<title>Sheet.689</title>
							<path d="M29.4 61.12 L16.05 36.75 C15.45 35.7 14.47 35.7 13.87 36.75 L0.6 61.12 C0 62.17 0.52 63 1.72
										 63 L28.27 63 C29.47 63 30 62.17 29.4 61.12 Z" class="st2"/>
						</g>
					</g>
					<g id="shape690-13" v:mID="690" v:groupContext="shape" v:layerMember="0" transform="translate(15.525,-6.15)">
						<title>Sheet.690</title>
						<path d="M1.57 63 C1.13 63 0.75 62.85 0.45 62.55 C0.15 62.25 0 61.95 0 61.57 C0 61.2 0.15 60.82 0.45 60.52
									 C0.75 60.22 1.13 60.07 1.57 60.07 C2.03 60.07 2.32 60.22 2.62 60.52 C2.92 60.82 3.07 61.12 3.07
									 61.57 C3.07 61.95 2.92 62.32 2.62 62.55 C2.32 62.85 1.95 63 1.57 63 ZM2.77 47.4 L2.55 58.27
									 L0.52 58.27 L0.22 47.4 L2.77 47.4 Z" class="st1"/>
					</g>
				</g>
			</g>
		</g>
	</g>
</svg>
