<?xml version="1.0" encoding="UTF-8" standalone="no"?>
<!DOCTYPE svg PUBLIC "-//W3C//DTD SVG 1.1//EN" "http://www.w3.org/Graphics/SVG/1.1/DTD/svg11.dtd">
<!-- Generated by Microsoft Visio, SVG Export Server Farm - green.svg Page-1 -->
<svg xmlns="http://www.w3.org/2000/svg" xmlns:xlink="http://www.w3.org/1999/xlink" xmlns:ev="http://www.w3.org/2001/xml-events"
		xmlns:v="http://schemas.microsoft.com/visio/2003/SVGExtensions/" width="1.01172in" height="0.90625in"
		viewBox="0 0 72.8438 65.25" xml:space="preserve" color-interpolation-filters="sRGB" class="st3">
	<v:documentProperties v:langID="4108" v:metric="true" v:viewMarkup="false"/>

	<style type="text/css">
	<![CDATA[
		.st1 {fill:#ffffff;stroke:none;stroke-linecap:butt;stroke-width:0.75}
		.st2 {fill:#7fba42;stroke:none;stroke-linecap:butt;stroke-width:0.75}
		.st3 {fill:none;fill-rule:evenodd;font-size:12px;overflow:visible;stroke-linecap:square;stroke-miterlimit:3}
	]]>
	</style>

	<g v:mID="0" v:index="1" v:groupContext="foregroundPage">
		<title>Page-1</title>
		<v:pageProperties v:drawingScale="0.0393701" v:pageScale="0.0393701" v:drawingUnits="24" v:shadowOffsetX="8.50394"
				v:shadowOffsetY="-8.50394"/>
		<v:layer v:name="symbols" v:index="0"/>
		<g id="group771-1" transform="translate(6.01875,-6.5625)" v:mID="771" v:groupContext="group" v:layerMember="0">
			<title>Server Farm - green</title>
			<g id="group772-2" v:mID="772" v:groupContext="group" v:layerMember="0">
				<title>Sheet.772</title>
				<g id="shape773-3" v:mID="773" v:groupContext="shape" v:layerMember="0">
					<title>Sheet.773</title>
					<path d="M56.93 25.5 L51 25.5 L51 15.82 C51 13.72 49.27 12 47.17 12 L33.07 12 C32.02 12 31.05 12.45 30.37 13.12
								 C29.7 12.45 28.73 12 27.68 12 L13.58 12 C11.48 12 9.75 13.72 9.75 15.82 L9.75 25.5 L3.82 25.5 C1.72
								 25.5 0 27.22 0 29.32 L0 65.25 L19.5 65.25 L21.75 65.25 L39 65.25 L41.25 65.25 L60.75 65.25 L60.75
								 29.32 C60.75 27.22 59.02 25.5 56.93 25.5 Z" class="st1"/>
				</g>
				<g id="shape774-5" v:mID="774" v:groupContext="shape" v:layerMember="0" transform="translate(2.25,-2.25)">
					<title>Sheet.774</title>
					<path d="M15.68 30 L1.58 30 C0.68 30 0 30.67 0 31.57 L0 65.25 L17.25 65.25 L17.25 31.57 C17.25 30.67 16.58 30
								 15.68 30 ZM14.25 61.5 L3 61.5 L3 60 L14.25 60 L14.25 61.5 ZM14.25 57 L3 57 L3 55.5 L14.25 55.5 L14.25
								 57 ZM14.25 36 L3 36 L3 34.5 L14.25 34.5 L14.25 36 ZM35.17 30 L21.08 30 C20.18 30 19.5 30.67 19.5
								 31.57 L19.5 65.25 L36.75 65.25 L36.75 31.57 C36.75 30.67 36.07 30 35.17 30 ZM33.75 61.5 L22.5 61.5
								 L22.5 60 L33.75 60 L33.75 61.5 ZM33.75 57 L22.5 57 L22.5 55.5 L33.75 55.5 L33.75 57 ZM33.75 36 L22.5
								 36 L22.5 34.5 L33.75 34.5 L33.75 36 ZM15.68 27.75 C16.72 27.75 17.7 28.2 18.38 28.87 C19.05 28.2
								 20.03 27.75 21.08 27.75 L27 27.75 L27 18.07 C27 17.17 26.33 16.5 25.43 16.5 L11.32 16.5 C10.42 16.5
								 9.75 17.17 9.75 18.07 L9.75 27.75 L15.68 27.75 ZM12.75 21 L24 21 L24 22.5 L12.75 22.5 L12.75 21
								 ZM35.17 27.75 C36.23 27.75 37.2 28.2 37.87 28.87 C38.55 28.2 39.53 27.75 40.57 27.75 L46.5 27.75
								 L46.5 18.07 C46.5 17.17 45.83 16.5 44.93 16.5 L30.83 16.5 C29.93 16.5 29.25 17.17 29.25 18.07 L29.25
								 27.75 L35.17 27.75 ZM32.25 21 L43.5 21 L43.5 22.5 L32.25 22.5 L32.25 21 ZM54.68 30 L40.57 30 C39.67
								 30 39 30.67 39 31.57 L39 65.25 L56.25 65.25 L56.25 31.57 C56.25 30.67 55.58 30 54.68 30 ZM53.25
								 61.5 L42 61.5 L42 60 L53.25 60 L53.25 61.5 ZM53.25 57 L42 57 L42 55.5 L53.25 55.5 L53.25 57 ZM53.25
								 36 L42 36 L42 34.5 L53.25 34.5 L53.25 36 Z" class="st2"/>
				</g>
			</g>
		</g>
	</g>
</svg>
