<?xml version="1.0" encoding="UTF-8" standalone="no"?>
<!DOCTYPE svg PUBLIC "-//W3C//DTD SVG 1.1//EN" "http://www.w3.org/Graphics/SVG/1.1/DTD/svg11.dtd">
<!-- Generated by Microsoft Visio, SVG Export SharePoint Server.svg Page-1 -->
<svg xmlns="http://www.w3.org/2000/svg" xmlns:xlink="http://www.w3.org/1999/xlink" xmlns:ev="http://www.w3.org/2001/xml-events"
		xmlns:v="http://schemas.microsoft.com/visio/2003/SVGExtensions/" width="0.984375in" height="0.96875in"
		viewBox="0 0 70.875 69.75" xml:space="preserve" color-interpolation-filters="sRGB" class="st5">
	<v:documentProperties v:langID="4108" v:metric="true" v:viewMarkup="false"/>

	<style type="text/css">
	<![CDATA[
		.st1 {fill:#ffffff;stroke:none;stroke-linecap:butt;stroke-width:0.75}
		.st2 {fill:#515150;stroke:none;stroke-linecap:butt;stroke-width:0.75}
		.st3 {fill:#2372ba;stroke:none;stroke-linecap:butt;stroke-width:0.75}
		.st4 {fill:#2073b7;stroke:none;stroke-linecap:butt;stroke-width:0.75}
		.st5 {fill:none;fill-rule:evenodd;font-size:12px;overflow:visible;stroke-linecap:square;stroke-miterlimit:3}
	]]>
	</style>

	<g v:mID="0" v:index="1" v:groupContext="foregroundPage">
		<title>Page-1</title>
		<v:pageProperties v:drawingScale="0.0393701" v:pageScale="0.0393701" v:drawingUnits="24" v:shadowOffsetX="8.50394"
				v:shadowOffsetY="-8.50394"/>
		<v:layer v:name="symbols" v:index="0"/>
		<g id="group867-1" transform="translate(8.85,-6.9375)" v:mID="867" v:groupContext="group" v:layerMember="0">
			<title>SharePoint Server</title>
			<g id="group868-2" v:mID="868" v:groupContext="group" v:layerMember="0">
				<title>Sheet.868</title>
				<g id="shape869-3" v:mID="869" v:groupContext="shape" v:layerMember="0">
					<title>Sheet.869</title>
					<path d="M0 69.75 L0 18 C0 15.08 2.33 12.75 5.25 12.75 L26.25 12.75 C29.18 12.75 31.5 15.08 31.5 18 L31.5 69.75
								 L0 69.75 Z" class="st1"/>
				</g>
				<g id="shape870-5" v:mID="870" v:groupContext="shape" v:layerMember="0" transform="translate(2.25,-2.25)">
					<title>Sheet.870</title>
					<path d="M24 17.25 L3 17.25 C1.35 17.25 0 18.6 0 20.25 L0 69.75 L27 69.75 L27 20.25 C27 18.6 25.65 17.25 24 17.25
								 ZM21.75 63.75 L5.25 63.75 L5.25 61.5 L21.75 61.5 L21.75 63.75 ZM21.75 57 L5.25 57 L5.25 54.75 L21.75
								 54.75 L21.75 57 ZM21.75 26.25 L5.25 26.25 L5.25 24 L21.75 24 L21.75 26.25 Z" class="st2"/>
				</g>
			</g>
			<g id="group871-7" transform="translate(31.5,-30.75)" v:mID="871" v:groupContext="group" v:layerMember="0">
				<title>Sheet.871</title>
				<g id="shape872-8" v:mID="872" v:groupContext="shape" v:layerMember="0">
					<title>Sheet.872</title>
					<path d="M27.9 52.28 C27.3 51.68 26.47 51.23 25.65 51 C24.97 49.88 24.07 48.98 22.95 48.3 C22.5 46.28 20.85 44.78
								 18.75 44.63 L18.75 41.25 L16.35 41.25 L0 43.8 L0 67.13 L16.35 69.75 L18.75 69.75 L18.75 66.38 C20.85
								 66.23 22.5 64.73 22.95 62.78 C24 62.1 24.97 61.13 25.65 60.08 C27.75 59.63 29.25 57.75 29.25 55.58
								 C29.25 54.3 28.8 53.1 27.9 52.28 Z" class="st1"/>
				</g>
				<g id="shape873-10" v:mID="873" v:groupContext="shape" v:layerMember="0" transform="translate(2.25,-2.25)">
					<title>Sheet.873</title>
					<path d="M14.25 45.75 L0 48 L0 67.5 L14.25 69.75 L14.25 45.75 Z" class="st3"/>
				</g>
				<g id="shape874-12" v:mID="874" v:groupContext="shape" v:layerMember="0" transform="translate(6.525,-9.525)">
					<title>Sheet.874</title>
					<path d="M3.08 59.78 C1.88 59.85 0.75 60.53 0.38 61.73 C0 63 0.45 64.2 1.5 64.95 C2.18 65.48 3.98 66.08 3.38
								 67.28 C3.08 67.8 2.48 67.8 1.95 67.73 C1.28 67.65 0.75 67.28 0.23 66.75 C0.23 67.13 0.23 67.5 0.23
								 67.88 C0.23 68.1 0.23 68.33 0.23 68.55 C0.23 68.78 0.3 68.78 0.53 68.93 C2.03 69.75 4.58 69.6 5.18
								 67.73 C5.48 66.9 5.4 65.85 4.88 65.1 C4.35 64.35 3.6 63.98 2.85 63.53 C2.55 63.3 2.18 63.08 2.03
								 62.7 C1.88 62.33 1.95 61.88 2.25 61.58 C3 60.9 4.28 61.35 4.95 61.88 C4.95 61.35 4.95 60.83 4.95
								 60.38 C4.95 60.23 4.95 60.15 4.95 60 C4.95 59.85 4.88 59.85 4.73 59.85 C4.28 59.78 3.68 59.78 3.08
								 59.78 Z" class="st1"/>
				</g>
				<g id="shape875-14" v:mID="875" v:groupContext="shape" v:layerMember="0" transform="translate(17.325,-5.4)">
					<title>Sheet.875</title>
					<path d="M7.35 58.58 C7.2 58.58 7.05 58.58 6.9 58.65 C6.3 57.08 5.02 55.8 3.38 55.13 C3.38 54.98 3.45 54.83 3.45
								 54.68 C3.45 53.4 2.4 52.35 1.12 52.35 C0.75 52.35 0.38 52.43 0 52.65 L0 56.78 C0.3 56.93 0.68 57.08
								 1.12 57.08 C1.8 57.08 2.4 56.78 2.85 56.33 C4.2 56.85 5.25 57.9 5.77 59.33 C5.33 59.78 5.02 60.38
								 5.02 61.05 C5.02 61.73 5.33 62.33 5.77 62.78 C5.25 64.13 4.2 65.25 2.85 65.78 C2.4 65.33 1.8 65.03
								 1.12 65.03 C0.75 65.03 0.38 65.1 0 65.33 L0 69.45 C0.3 69.6 0.68 69.75 1.12 69.75 C2.4 69.75 3.45
								 68.7 3.45 67.43 C3.45 67.28 3.45 67.13 3.38 66.98 C4.95 66.3 6.22 65.1 6.82 63.45 C6.97 63.45 7.12
								 63.53 7.27 63.53 C8.55 63.53 9.6 62.48 9.6 61.2 C9.67 59.63 8.62 58.58 7.35 58.58 Z" class="st4"/>
				</g>
			</g>
		</g>
	</g>
</svg>
