<?xml version="1.0" encoding="UTF-8" standalone="no"?>
<!DOCTYPE svg PUBLIC "-//W3C//DTD SVG 1.1//EN" "http://www.w3.org/Graphics/SVG/1.1/DTD/svg11.dtd">
<!-- Generated by Microsoft Visio, SVG Export Skype for Business Edge Server Pool.svg Page-1 -->
<svg xmlns="http://www.w3.org/2000/svg" xmlns:xlink="http://www.w3.org/1999/xlink" xmlns:ev="http://www.w3.org/2001/xml-events"
		xmlns:v="http://schemas.microsoft.com/visio/2003/SVGExtensions/" width="1.1875in" height="1.04688in"
		viewBox="0 0 85.5 75.375" xml:space="preserve" color-interpolation-filters="sRGB" class="st4">
	<v:documentProperties v:langID="4108" v:metric="true" v:viewMarkup="false"/>

	<style type="text/css">
	<![CDATA[
		.st1 {fill:#ffffff;stroke:none;stroke-linecap:butt;stroke-width:0.75}
		.st2 {fill:#505050;stroke:none;stroke-linecap:butt;stroke-width:0.75}
		.st3 {fill:#00adeb;stroke:none;stroke-linecap:butt;stroke-width:0.75}
		.st4 {fill:none;fill-rule:evenodd;font-size:12px;overflow:visible;stroke-linecap:square;stroke-miterlimit:3}
	]]>
	</style>

	<g v:mID="0" v:index="1" v:groupContext="foregroundPage">
		<title>Page-1</title>
		<v:pageProperties v:drawingScale="0.0393701" v:pageScale="0.0393701" v:drawingUnits="24" v:shadowOffsetX="8.50394"
				v:shadowOffsetY="-8.50394"/>
		<v:layer v:name="symbols" v:index="0"/>
		<g id="group946-1" transform="translate(8.0625,-6.9375)" v:mID="946" v:groupContext="group" v:layerMember="0">
			<title>Skype for Business Edge Server Pool</title>
			<g id="group947-2" v:mID="947" v:groupContext="group" v:layerMember="0">
				<title>Sheet.947</title>
				<g id="group948-3" transform="translate(-3.17746E-13,-6.75)" v:mID="948" v:groupContext="group" v:layerMember="0">
					<title>Sheet.948</title>
					<g id="shape949-4" v:mID="949" v:groupContext="shape" v:layerMember="0">
						<title>Sheet.949</title>
						<path d="M0 75.37 L0 23.63 C-0 20.7 2.33 18.38 5.25 18.38 L26.25 18.38 C29.18 18.38 31.5 20.7 31.5 23.63
									 L31.5 75.37 L0 75.37 Z" class="st1"/>
					</g>
					<g id="shape950-6" v:mID="950" v:groupContext="shape" v:layerMember="0" transform="translate(2.25,-2.25)">
						<title>Sheet.950</title>
						<path d="M24 22.88 L3 22.88 C1.35 22.88 0 24.23 0 25.88 L0 75.37 L27 75.37 L27 25.88 C27 24.23 25.65 22.88
									 24 22.88 ZM21.75 69.37 L5.25 69.37 L5.25 67.12 L21.75 67.12 L21.75 69.37 ZM21.75 62.63 L5.25
									 62.63 L5.25 60.38 L21.75 60.38 L21.75 62.63 ZM21.75 31.88 L5.25 31.88 L5.25 29.63 L21.75 29.63
									 L21.75 31.88 Z" class="st2"/>
					</g>
				</g>
				<g id="group951-8" transform="translate(15.75,1.13687E-13)" v:mID="951" v:groupContext="group" v:layerMember="0">
					<title>Sheet.951</title>
					<g id="shape952-9" v:mID="952" v:groupContext="shape" v:layerMember="0">
						<title>Sheet.952</title>
						<path d="M0 75.37 L0 23.63 C-0 20.7 2.33 18.38 5.25 18.38 L26.25 18.38 C29.18 18.38 31.5 20.7 31.5 23.63
									 L31.5 75.37 L0 75.37 Z" class="st1"/>
					</g>
					<g id="shape953-11" v:mID="953" v:groupContext="shape" v:layerMember="0" transform="translate(2.25,-2.25)">
						<title>Sheet.953</title>
						<path d="M24 22.88 L3 22.88 C1.35 22.88 0 24.23 0 25.88 L0 75.37 L27 75.37 L27 25.88 C27 24.23 25.65 22.88
									 24 22.88 ZM21.75 69.37 L5.25 69.37 L5.25 67.12 L21.75 67.12 L21.75 69.37 ZM21.75 62.63 L5.25
									 62.63 L5.25 60.38 L21.75 60.38 L21.75 62.63 ZM21.75 31.88 L5.25 31.88 L5.25 29.63 L21.75 29.63
									 L21.75 31.88 Z" class="st2"/>
					</g>
				</g>
				<g id="group954-13" transform="translate(47.25,-37.5)" v:mID="954" v:groupContext="group" v:layerMember="0">
					<title>Sheet.954</title>
					<g id="shape955-14" v:mID="955" v:groupContext="shape" v:layerMember="0">
						<title>Sheet.955</title>
						<path d="M17.93 75.37 C16.73 75.37 15.6 75.15 14.55 74.62 C14.1 74.7 13.65 74.7 13.13 74.7 C6.23 74.7 0.67
									 69.08 0.67 62.25 C0.67 61.8 0.67 61.35 0.75 60.83 C0.3 59.78 0 58.58 0 57.45 C0 52.88 3.75 49.13
									 8.33 49.13 C9.52 49.13 10.65 49.35 11.7 49.88 C12.15 49.8 12.6 49.8 13.13 49.8 C20.03 49.8 25.58
									 55.43 25.58 62.25 C25.58 62.7 25.58 63.15 25.5 63.68 C25.95 64.72 26.25 65.93 26.25 67.05 C26.25
									 71.63 22.5 75.37 17.93 75.37 Z" class="st1"/>
					</g>
					<g id="shape956-16" v:mID="956" v:groupContext="shape" v:layerMember="0" transform="translate(2.25,-2.25)">
						<title>Sheet.956</title>
						<path d="M20.93 66.3 C21 65.7 21.08 65.1 21.08 64.5 C21.08 58.88 16.5 54.3 10.88 54.3 C10.28 54.3 9.68 54.38
									 9.08 54.45 C8.18 53.93 7.13 53.63 6.08 53.63 C2.7 53.63 0 56.33 0 59.7 C-0 60.83 0.3 61.8 0.83
									 62.7 C0.75 63.3 0.67 63.9 0.67 64.5 C0.67 70.12 5.25 74.7 10.88 74.7 C11.48 74.7 12.08 74.62
									 12.68 74.55 C13.58 75.07 14.63 75.37 15.68 75.37 C19.05 75.37 21.75 72.68 21.75 69.3 C21.75
									 68.18 21.45 67.2 20.93 66.3 ZM15.68 73.8 C14.85 73.8 14.1 73.57 13.43 73.2 L12.9 72.9 L12.38
									 72.98 C11.93 73.05 11.4 73.12 10.88 73.13 C6.08 73.12 2.18 69.22 2.18 64.43 C2.18 63.9 2.25
									 63.38 2.33 62.93 L2.4 62.4 L2.1 61.95 C1.73 61.27 1.5 60.52 1.5 59.7 C1.5 57.23 3.53 55.2 6
									 55.2 C6.83 55.2 7.58 55.43 8.25 55.8 L8.78 56.1 L9.3 56.03 C9.83 55.95 10.28 55.88 10.8 55.88
									 C15.6 55.88 19.5 59.78 19.5 64.58 C19.5 65.1 19.43 65.62 19.35 66.08 L19.28 66.6 L19.58 67.13
									 C19.95 67.8 20.18 68.55 20.18 69.38 C20.18 71.78 18.15 73.8 15.68 73.8 Z" class="st3"/>
					</g>
					<g id="shape957-18" v:mID="957" v:groupContext="shape" v:layerMember="0" transform="translate(7.95,-6.9)">
						<title>Sheet.957</title>
						<path d="M7.05 68.18 L4.73 67.65 C3.83 67.42 2.85 67.2 2.85 66.3 C2.85 65.47 3.53 64.88 4.8 64.88 C7.35 64.88
									 7.13 66.68 8.4 66.68 C9.08 66.68 9.68 66.3 9.68 65.63 C9.68 64.05 7.13 62.85 4.95 62.85 C2.63
									 62.85 0.15 63.83 0.15 66.45 C0.15 67.73 0.6 69.07 3.08 69.75 L6.15 70.5 C7.13 70.73 7.35 71.25
									 7.35 71.78 C7.35 72.6 6.53 73.43 5.1 73.42 C2.33 73.43 2.7 71.17 1.2 71.18 C0.52 71.17 0 71.63
									 0 72.3 C0 73.57 1.57 75.37 5.1 75.37 C8.4 75.37 10.13 73.72 10.13 71.55 C10.2 70.2 9.53 68.78
									 7.05 68.18 Z" class="st3"/>
					</g>
				</g>
				<g id="group958-20" transform="translate(30,-8.25)" v:mID="958" v:groupContext="group" v:layerMember="0">
					<title>Sheet.958</title>
					<g id="shape959-21" v:mID="959" v:groupContext="shape" v:layerMember="0">
						<title>Sheet.959</title>
						<path d="M27.98 55.87 L20.25 55.87 L20.25 59.1 L22.28 61.12 L15.98 61.12 L18 59.02 L18 55.87 L10.28 55.87
									 L0 65.55 L9.6 75.37 L18 75.37 L18 72.22 L15.98 70.12 L22.28 70.12 L20.25 72.15 L20.25 75.37
									 L28.65 75.37 L38.25 65.55 L27.98 55.87 Z" class="st1"/>
					</g>
					<g id="shape960-23" v:mID="960" v:groupContext="shape" v:layerMember="0" transform="translate(3.225,-2.25)">
						<title>Sheet.960</title>
						<path d="M12.53 75.37 L7.43 70.12 L24.38 70.12 L19.2 75.37 L24.45 75.37 L31.8 67.87 L23.85 60.37 L19.2 60.37
									 L24.38 65.62 L7.43 65.62 L12.53 60.37 L7.95 60.37 L0 67.87 L7.35 75.37 L12.53 75.37 Z"
								class="st2"/>
					</g>
				</g>
			</g>
		</g>
	</g>
</svg>
