<?xml version="1.0" encoding="UTF-8" standalone="no"?>
<!DOCTYPE svg PUBLIC "-//W3C//DTD SVG 1.1//EN" "http://www.w3.org/Graphics/SVG/1.1/DTD/svg11.dtd">
<!-- Generated by Microsoft Visio, SVG Export Skype for Business Back-End Server.svg Page-1 -->
<svg xmlns="http://www.w3.org/2000/svg" xmlns:xlink="http://www.w3.org/1999/xlink" xmlns:ev="http://www.w3.org/2001/xml-events"
		xmlns:v="http://schemas.microsoft.com/visio/2003/SVGExtensions/" width="0.961719in" height="1.01563in"
		viewBox="0 0 69.2438 73.125" xml:space="preserve" color-interpolation-filters="sRGB" class="st4">
	<v:documentProperties v:langID="4108" v:metric="true" v:viewMarkup="false"/>

	<style type="text/css">
	<![CDATA[
		.st1 {fill:#ffffff;stroke:none;stroke-linecap:butt;stroke-width:0.75}
		.st2 {fill:#505050;stroke:none;stroke-linecap:butt;stroke-width:0.75}
		.st3 {fill:#00adeb;stroke:none;stroke-linecap:butt;stroke-width:0.75}
		.st4 {fill:none;fill-rule:evenodd;font-size:12px;overflow:visible;stroke-linecap:square;stroke-miterlimit:3}
	]]>
	</style>

	<g v:mID="0" v:index="1" v:groupContext="foregroundPage">
		<title>Page-1</title>
		<v:pageProperties v:drawingScale="0.0393701" v:pageScale="0.0393701" v:drawingUnits="24" v:shadowOffsetX="8.50394"
				v:shadowOffsetY="-8.50394"/>
		<v:layer v:name="symbols" v:index="0"/>
		<g id="group876-1" transform="translate(7.74375,-4.875)" v:mID="876" v:groupContext="group" v:layerMember="0">
			<title>Skype for Business Back-End Server</title>
			<g id="group877-2" v:mID="877" v:groupContext="group" v:layerMember="0">
				<title>Sheet.877</title>
				<g id="group878-3" v:mID="878" v:groupContext="group" v:layerMember="0">
					<title>Sheet.878</title>
					<g id="group879-4" transform="translate(2.65787E-13,-4.125)" v:mID="879" v:groupContext="group"
							v:layerMember="0">
						<title>Sheet.879</title>
						<g id="shape880-5" v:mID="880" v:groupContext="shape" v:layerMember="0">
							<title>Sheet.880</title>
							<path d="M0 73.12 L0 21.38 C-0 18.45 2.33 16.13 5.25 16.13 L26.25 16.13 C29.18 16.13 31.5 18.45 31.5
										 21.38 L31.5 73.12 L0 73.12 Z" class="st1"/>
						</g>
						<g id="shape881-7" v:mID="881" v:groupContext="shape" v:layerMember="0" transform="translate(2.25,-2.25)">
							<title>Sheet.881</title>
							<path d="M24 20.62 L3 20.62 C1.35 20.62 0 21.98 0 23.62 L0 73.12 L27 73.12 L27 23.62 C27 21.98 25.65
										 20.62 24 20.62 ZM21.75 67.12 L5.25 67.12 L5.25 64.87 L21.75 64.87 L21.75 67.12 ZM21.75 60.37
										 L5.25 60.37 L5.25 58.12 L21.75 58.12 L21.75 60.37 ZM21.75 29.62 L5.25 29.62 L5.25 27.37
										 L21.75 27.37 L21.75 29.62 Z" class="st2"/>
						</g>
					</g>
					<g id="group882-9" transform="translate(21,0)" v:mID="882" v:groupContext="group" v:layerMember="0">
						<title>Sheet.882</title>
						<g id="shape883-10" v:mID="883" v:groupContext="shape" v:layerMember="0">
							<title>Sheet.883</title>
							<path d="M26.17 46.5 C26.17 42.3 19.13 40.8 13.05 40.8 C6.97 40.8 0 42.22 0 46.5 L0 47.17 L0 65.85 L0
										 66.82 L0 66.9 C0.38 70.87 5.03 73.12 13.05 73.12 C21.15 73.12 25.8 70.95 26.1 66.9 L26.1
										 66.82 L26.1 65.78 L26.1 47.4 L26.17 46.5 Z" class="st1"/>
						</g>
						<g id="shape884-12" v:mID="884" v:groupContext="shape" v:layerMember="0" transform="translate(2.25,-2.325)">
							<title>Sheet.884</title>
							<path d="M10.88 53.78 C6.6 53.78 2.25 53.03 0 51.38 L0 68.1 L0 69 C0.37 72.82 8.1 73.12 10.8 73.12 C13.5
										 73.12 21.3 72.82 21.6 69 L21.6 68.1 L21.6 51.38 C19.5 53.03 15.15 53.78 10.88 53.78 Z"
									class="st2"/>
						</g>
						<g id="shape885-14" v:mID="885" v:groupContext="shape" v:layerMember="0"
								transform="translate(2.25,-23.175)">
							<title>Sheet.885</title>
							<ellipse cx="10.875" cy="69.675" rx="10.875" ry="3.45" class="st2"/>
						</g>
					</g>
				</g>
				<g id="group886-16" transform="translate(31.5,-37.125)" v:mID="886" v:groupContext="group" v:layerMember="0">
					<title>Sheet.886</title>
					<g id="shape887-17" v:mID="887" v:groupContext="shape" v:layerMember="0">
						<title>Sheet.887</title>
						<path d="M17.92 73.12 C16.72 73.12 15.6 72.9 14.55 72.37 C14.1 72.45 13.65 72.45 13.12 72.45 C6.23 72.45
									 0.68 66.83 0.67 60 C0.68 59.55 0.68 59.1 0.75 58.58 C0.3 57.53 0 56.33 0 55.2 C0 50.63 3.75
									 46.88 8.32 46.88 C9.52 46.88 10.65 47.1 11.7 47.63 C12.15 47.55 12.6 47.55 13.12 47.55 C20.02
									 47.55 25.57 53.18 25.57 60 C25.57 60.45 25.57 60.9 25.5 61.43 C25.95 62.47 26.25 63.68 26.25
									 64.8 C26.25 69.38 22.5 73.12 17.92 73.12 Z" class="st1"/>
					</g>
					<g id="shape888-19" v:mID="888" v:groupContext="shape" v:layerMember="0" transform="translate(2.25,-2.25)">
						<title>Sheet.888</title>
						<path d="M20.92 64.05 C21 63.45 21.07 62.85 21.07 62.25 C21.07 56.63 16.5 52.05 10.87 52.05 C10.27 52.05
									 9.67 52.13 9.07 52.2 C8.17 51.68 7.12 51.38 6.07 51.38 C2.7 51.38 0 54.08 0 57.45 C0 58.58 0.3
									 59.55 0.82 60.45 C0.75 61.05 0.68 61.65 0.67 62.25 C0.68 67.87 5.25 72.45 10.87 72.45 C11.47
									 72.45 12.07 72.37 12.67 72.3 C13.57 72.82 14.62 73.12 15.67 73.12 C19.05 73.12 21.75 70.43 21.75
									 67.05 C21.75 65.93 21.45 64.95 20.92 64.05 ZM15.67 71.55 C14.85 71.55 14.1 71.32 13.42 70.95
									 L12.9 70.65 L12.37 70.73 C11.92 70.8 11.4 70.87 10.87 70.88 C6.08 70.87 2.17 66.97 2.17 62.18
									 C2.17 61.65 2.25 61.13 2.32 60.68 L2.4 60.15 L2.1 59.7 C1.72 59.02 1.5 58.27 1.5 57.45 C1.5
									 54.98 3.52 52.95 6 52.95 C6.83 52.95 7.58 53.18 8.25 53.55 L8.77 53.85 L9.3 53.78 C9.82 53.7
									 10.27 53.63 10.8 53.63 C15.6 53.63 19.5 57.53 19.5 62.33 C19.5 62.85 19.42 63.37 19.35 63.83
									 L19.27 64.35 L19.57 64.88 C19.95 65.55 20.17 66.3 20.17 67.13 C20.17 69.53 18.15 71.55 15.67
									 71.55 Z" class="st3"/>
					</g>
					<g id="shape889-21" v:mID="889" v:groupContext="shape" v:layerMember="0" transform="translate(7.95,-6.9)">
						<title>Sheet.889</title>
						<path d="M7.05 65.93 L4.72 65.4 C3.82 65.17 2.85 64.95 2.85 64.05 C2.85 63.22 3.53 62.63 4.8 62.63 C7.35
									 62.63 7.12 64.43 8.4 64.42 C9.07 64.43 9.67 64.05 9.67 63.38 C9.67 61.8 7.12 60.6 4.95 60.6
									 C2.62 60.6 0.15 61.58 0.15 64.2 C0.15 65.48 0.6 66.82 3.07 67.5 L6.15 68.25 C7.12 68.48 7.35
									 69 7.35 69.53 C7.35 70.35 6.52 71.18 5.1 71.17 C2.33 71.18 2.7 68.92 1.2 68.92 C0.52 68.92 0
									 69.38 0 70.05 C0 71.32 1.57 73.12 5.1 73.12 C8.4 73.12 10.12 71.47 10.12 69.3 C10.2 67.95 9.52
									 66.53 7.05 65.93 Z" class="st3"/>
					</g>
				</g>
			</g>
		</g>
	</g>
</svg>
