<?xml version="1.0" encoding="UTF-8" standalone="no"?>
<!DOCTYPE svg PUBLIC "-//W3C//DTD SVG 1.1//EN" "http://www.w3.org/Graphics/SVG/1.1/DTD/svg11.dtd">
<!-- Generated by Microsoft Visio, SVG Export Skype for Business Persistent Chat Server.svg Page-1 -->
<svg xmlns="http://www.w3.org/2000/svg" xmlns:xlink="http://www.w3.org/1999/xlink" xmlns:ev="http://www.w3.org/2001/xml-events"
		xmlns:v="http://schemas.microsoft.com/visio/2003/SVGExtensions/" width="0.961719in" height="1.01563in"
		viewBox="0 0 69.2437 73.125" xml:space="preserve" color-interpolation-filters="sRGB" class="st5">
	<v:documentProperties v:langID="4108" v:metric="true" v:viewMarkup="false"/>

	<style type="text/css">
	<![CDATA[
		.st1 {fill:#ffffff;stroke:none;stroke-linecap:butt;stroke-width:0.75}
		.st2 {fill:#505150;stroke:none;stroke-linecap:butt;stroke-width:0.75}
		.st3 {fill:#00adeb;stroke:none;stroke-linecap:butt;stroke-width:0.75}
		.st4 {fill:#515251;stroke:none;stroke-linecap:butt;stroke-width:0.75}
		.st5 {fill:none;fill-rule:evenodd;font-size:12px;overflow:visible;stroke-linecap:square;stroke-miterlimit:3}
	]]>
	</style>

	<g v:mID="0" v:index="1" v:groupContext="foregroundPage">
		<title>Page-1</title>
		<v:pageProperties v:drawingScale="0.0393701" v:pageScale="0.0393701" v:drawingUnits="24" v:shadowOffsetX="8.50394"
				v:shadowOffsetY="-8.50394"/>
		<v:layer v:name="symbols" v:index="0"/>
		<g id="group1020-1" transform="translate(7.55625,-5.4375)" v:mID="1020" v:groupContext="group" v:layerMember="0">
			<title>Skype for Business Persistent Chat Server</title>
			<g id="group1021-2" transform="translate(0,-3)" v:mID="1021" v:groupContext="group" v:layerMember="0">
				<title>Sheet.1021</title>
				<g id="group1022-3" v:mID="1022" v:groupContext="group" v:layerMember="0">
					<title>Sheet.1022</title>
					<g id="shape1023-4" v:mID="1023" v:groupContext="shape" v:layerMember="0">
						<title>Sheet.1023</title>
						<path d="M0 73.12 L0 21.37 C0 18.45 2.33 16.12 5.25 16.12 L26.25 16.12 C29.18 16.12 31.5 18.45 31.5 21.37
									 L31.5 73.12 L0 73.12 Z" class="st1"/>
					</g>
					<g id="shape1024-6" v:mID="1024" v:groupContext="shape" v:layerMember="0" transform="translate(2.25,-2.25)">
						<title>Sheet.1024</title>
						<path d="M24 20.62 L3 20.62 C1.35 20.62 0 21.98 0 23.62 L0 73.12 L27 73.12 L27 23.62 C27 21.98 25.65 20.62
									 24 20.62 ZM21.75 67.12 L5.25 67.12 L5.25 64.87 L21.75 64.87 L21.75 67.12 ZM21.75 60.37 L5.25
									 60.37 L5.25 58.12 L21.75 58.12 L21.75 60.37 ZM21.75 29.62 L5.25 29.62 L5.25 27.37 L21.75 27.37
									 L21.75 29.62 Z" class="st2"/>
					</g>
				</g>
				<g id="group1025-8" transform="translate(31.5,-33)" v:mID="1025" v:groupContext="group" v:layerMember="0">
					<title>Sheet.1025</title>
					<g id="shape1026-9" v:mID="1026" v:groupContext="shape" v:layerMember="0">
						<title>Sheet.1026</title>
						<path d="M17.92 73.13 C16.72 73.13 15.6 72.9 14.55 72.38 C14.1 72.45 13.65 72.45 13.12 72.45 C6.23 72.45
									 0.68 66.83 0.67 60 C0.68 59.55 0.68 59.1 0.75 58.58 C0.3 57.53 0 56.33 0 55.2 C0 50.63 3.75
									 46.88 8.32 46.88 C9.52 46.88 10.65 47.1 11.7 47.63 C12.15 47.55 12.6 47.55 13.12 47.55 C20.02
									 47.55 25.57 53.18 25.57 60 C25.57 60.45 25.57 60.9 25.5 61.43 C25.95 62.48 26.25 63.68 26.25
									 64.8 C26.25 69.38 22.5 73.12 17.92 73.13 Z" class="st1"/>
					</g>
					<g id="shape1027-11" v:mID="1027" v:groupContext="shape" v:layerMember="0" transform="translate(2.25,-2.25)">
						<title>Sheet.1027</title>
						<path d="M20.92 64.05 C21 63.45 21.07 62.85 21.07 62.25 C21.07 56.63 16.5 52.05 10.87 52.05 C10.27 52.05
									 9.67 52.13 9.07 52.2 C8.17 51.68 7.12 51.38 6.07 51.38 C2.7 51.38 0 54.08 0 57.45 C0 58.58 0.3
									 59.55 0.82 60.45 C0.75 61.05 0.68 61.65 0.67 62.25 C0.68 67.87 5.25 72.45 10.87 72.45 C11.47
									 72.45 12.07 72.38 12.67 72.3 C13.57 72.83 14.62 73.13 15.67 73.13 C19.05 73.12 21.75 70.43 21.75
									 67.05 C21.75 65.93 21.45 64.95 20.92 64.05 ZM15.67 71.55 C14.85 71.55 14.1 71.33 13.42 70.95
									 L12.9 70.65 L12.37 70.73 C11.92 70.8 11.4 70.87 10.87 70.88 C6.08 70.87 2.17 66.98 2.17 62.18
									 C2.17 61.65 2.25 61.13 2.32 60.68 L2.4 60.15 L2.1 59.7 C1.72 59.03 1.5 58.28 1.5 57.45 C1.5
									 54.98 3.52 52.95 6 52.95 C6.83 52.95 7.58 53.18 8.25 53.55 L8.77 53.85 L9.3 53.78 C9.82 53.7
									 10.27 53.63 10.8 53.63 C15.6 53.63 19.5 57.53 19.5 62.33 C19.5 62.85 19.42 63.38 19.35 63.83
									 L19.27 64.35 L19.57 64.88 C19.95 65.55 20.17 66.3 20.17 67.13 C20.17 69.53 18.15 71.55 15.67
									 71.55 Z" class="st3"/>
					</g>
					<g id="shape1028-13" v:mID="1028" v:groupContext="shape" v:layerMember="0" transform="translate(7.95,-6.9)">
						<title>Sheet.1028</title>
						<path d="M7.05 65.93 L4.72 65.4 C3.82 65.17 2.85 64.95 2.85 64.05 C2.85 63.23 3.53 62.63 4.8 62.63 C7.35
									 62.63 7.12 64.43 8.4 64.43 C9.07 64.43 9.67 64.05 9.67 63.38 C9.67 61.8 7.12 60.6 4.95 60.6
									 C2.62 60.6 0.15 61.58 0.15 64.2 C0.15 65.48 0.6 66.83 3.07 67.5 L6.15 68.25 C7.12 68.48 7.35
									 69 7.35 69.53 C7.35 70.35 6.52 71.18 5.1 71.18 C2.33 71.18 2.7 68.92 1.2 68.93 C0.52 68.92 0
									 69.38 0 70.05 C0 71.32 1.57 73.12 5.1 73.12 C8.4 73.12 10.12 71.47 10.12 69.3 C10.2 67.95 9.52
									 66.53 7.05 65.93 Z" class="st3"/>
					</g>
				</g>
			</g>
			<g id="group1029-15" transform="translate(17.25,-1.56319E-13)" v:mID="1029" v:groupContext="group" v:layerMember="0">
				<title>Sheet.1029</title>
				<g id="group1030-16" v:mID="1030" v:groupContext="group" v:layerMember="0">
					<title>Sheet.1030</title>
					<g id="shape1031-17" v:mID="1031" v:groupContext="shape" v:layerMember="0">
						<title>Sheet.1031</title>
						<path d="M29.25 39.37 L3.75 39.37 C1.65 39.37 0 41.02 0 43.12 L0 61.87 C-0 63.97 1.65 65.62 3.75 65.62 L14.25
									 65.62 L14.25 70.87 C14.25 71.85 14.85 72.68 15.75 72.97 C15.97 73.05 16.28 73.12 16.5 73.12
									 C17.18 73.12 17.77 72.82 18.22 72.3 L23.92 65.62 L29.25 65.62 C31.35 65.63 33 63.97 33 61.87
									 L33 43.12 C33 41.02 31.35 39.37 29.25 39.37 Z" class="st1"/>
					</g>
					<g id="shape1032-19" v:mID="1032" v:groupContext="shape" v:layerMember="0" transform="translate(2.25,-2.25)">
						<title>Sheet.1032</title>
						<path d="M27 43.87 L1.5 43.87 C0.68 43.87 0 44.55 0 45.37 L0 64.12 C-0 64.95 0.68 65.62 1.5 65.62 L14.25
									 65.62 L14.25 73.12 L20.62 65.62 L27 65.62 C27.82 65.62 28.5 64.95 28.5 64.12 L28.5 45.37 C28.5
									 44.55 27.82 43.87 27 43.87 Z" class="st2"/>
					</g>
				</g>
				<g id="group1033-21" transform="translate(5.325,-13.425)" v:mID="1033" v:groupContext="group" v:layerMember="0">
					<title>Sheet.1033</title>
					<g id="group1034-22" transform="translate(-3.747E-14,-4.05)" v:mID="1034" v:groupContext="group"
							v:layerMember="0">
						<title>Sheet.1034</title>
						<g id="shape1035-23" v:mID="1035" v:groupContext="shape" v:layerMember="0">
							<title>Sheet.1035</title>
							<path d="M7.87 70.5 C7.72 69.82 7.5 69.45 7.05 69.22 C6.52 68.92 6.22 68.77 6.07 68.77 C6 68.77 5.92
										 68.77 5.85 68.85 C5.7 69 5.62 69.07 5.47 69.15 C5.47 69.15 5.4 69.15 5.4 69.22 C5.25 69.3
										 5.1 69.37 4.95 69.45 C4.65 69.52 4.42 69.6 4.12 69.6 C3.82 69.6 3.52 69.52 3.3 69.45 C3.15
										 69.37 3 69.37 2.85 69.22 C2.7 69.15 2.55 69 2.4 68.85 C2.32 68.85 2.25 68.77 2.17 68.77
										 C1.95 68.77 1.8 68.92 1.2 69.22 C0.67 69.52 0.52 69.82 0.37 70.5 C0.22 71.1 0.07 72.45 0
										 73.12 L8.32 73.12 C8.17 72.45 8.02 71.1 7.87 70.5 Z" class="st1"/>
						</g>
						<g id="shape1036-25" v:mID="1036" v:groupContext="shape" v:layerMember="0"
								transform="translate(2.025,-4.575)">
							<title>Sheet.1036</title>
							<path d="M2.02 73.12 C0.9 73.12 0 72.15 0 70.87 C-0 69.6 0.9 68.62 2.02 68.62 C3.15 68.62 4.05 69.6 4.05
										 70.87 C4.12 72.15 3.15 73.12 2.02 73.12 Z" class="st1"/>
						</g>
					</g>
					<g id="group1037-27" transform="translate(14.175,-4.05)" v:mID="1037" v:groupContext="group" v:layerMember="0">
						<title>Sheet.1037</title>
						<g id="shape1038-28" v:mID="1038" v:groupContext="shape" v:layerMember="0">
							<title>Sheet.1038</title>
							<path d="M7.87 70.5 C7.72 69.82 7.5 69.45 7.05 69.22 C6.52 68.92 6.22 68.77 6.07 68.77 C6 68.77 5.92
										 68.77 5.85 68.85 C5.7 69 5.62 69.07 5.47 69.15 C5.47 69.15 5.4 69.15 5.4 69.22 C5.25 69.3
										 5.1 69.37 4.95 69.45 C4.65 69.52 4.43 69.6 4.12 69.6 C3.82 69.6 3.53 69.52 3.3 69.45 C3.15
										 69.37 3 69.37 2.85 69.22 C2.7 69.15 2.55 69 2.4 68.85 C2.32 68.85 2.25 68.77 2.17 68.77
										 C1.95 68.77 1.8 68.92 1.2 69.22 C0.67 69.52 0.53 69.82 0.38 70.5 C0.23 71.1 0.08 72.45 0
										 73.12 L8.25 73.12 C8.17 72.45 8.02 71.1 7.87 70.5 Z" class="st1"/>
						</g>
						<g id="shape1039-30" v:mID="1039" v:groupContext="shape" v:layerMember="0"
								transform="translate(2.1,-4.575)">
							<title>Sheet.1039</title>
							<path d="M2.02 73.12 C0.9 73.12 0 72.15 0 70.87 C0 69.6 0.9 68.62 2.02 68.62 C3.15 68.62 4.05 69.6 4.05
										 70.87 C4.05 72.15 3.07 73.12 2.02 73.12 Z" class="st1"/>
						</g>
					</g>
					<g id="group1040-32" transform="translate(6.075,-9.9476E-14)" v:mID="1040" v:groupContext="group"
							v:layerMember="0">
						<title>Sheet.1040</title>
						<g id="shape1041-33" v:mID="1041" v:groupContext="shape" v:layerMember="0">
							<title>Sheet.1041</title>
							<path d="M0 73.05 L0.08 72.07 C0.15 71.4 0.3 69.98 0.45 69.3 C0.6 68.47 0.9 67.88 1.73 67.43 L1.95 67.28
										 C2.48 66.97 2.77 66.82 3.15 66.82 C3.38 66.83 3.6 66.9 3.75 66.98 L3.82 67.05 L3.9 67.13
										 C3.97 67.2 4.12 67.27 4.2 67.35 C4.28 67.43 4.35 67.43 4.42 67.5 C4.65 67.58 4.8 67.58 5.02
										 67.58 C5.18 67.58 5.4 67.58 5.55 67.5 C5.62 67.5 5.7 67.43 5.77 67.43 L5.85 67.35 L5.92
										 67.35 C6 67.28 6.08 67.28 6.15 67.2 L6.22 67.13 L6.3 67.05 C6.52 66.97 6.67 66.9 6.9 66.9
										 C7.27 66.9 7.57 67.05 8.1 67.35 L8.33 67.5 C9.15 67.95 9.45 68.55 9.6 69.37 C9.75 70.05
										 9.9 71.48 9.97 72.15 L10.05 73.12 L0 73.05 Z" class="st4"/>
						</g>
						<g id="shape1042-35" v:mID="1042" v:groupContext="shape" v:layerMember="0"
								transform="translate(0.975,-1.05)">
							<title>Sheet.1042</title>
							<path d="M7.95 70.57 C7.8 69.9 7.57 69.53 7.12 69.3 C6.6 69 6.3 68.85 6.15 68.85 C6.07 68.85 6 68.85
										 5.92 68.92 C5.77 69.07 5.7 69.15 5.55 69.22 C5.55 69.23 5.47 69.23 5.47 69.3 C5.32 69.38
										 5.17 69.45 5.02 69.53 C4.65 69.53 4.42 69.6 4.12 69.6 C3.82 69.6 3.52 69.53 3.3 69.45 C3.15
										 69.38 3 69.37 2.85 69.22 C2.7 69.15 2.55 69 2.4 68.85 C2.32 68.85 2.25 68.78 2.17 68.78
										 C1.95 68.78 1.8 68.92 1.2 69.22 C0.67 69.53 0.52 69.83 0.37 70.5 C0.22 71.1 0.07 72.45 0
										 73.12 L8.32 73.12 C8.17 72.6 8.02 71.18 7.95 70.57 Z" class="st1"/>
						</g>
						<g id="shape1043-37" v:mID="1043" v:groupContext="shape" v:layerMember="0"
								transform="translate(2.175,-4.65)">
							<title>Sheet.1043</title>
							<path d="M2.93 73.12 C1.35 73.12 0 71.7 0 69.98 C0 68.25 1.28 66.82 2.93 66.82 C4.5 66.83 5.85 68.25
										 5.85 69.98 C5.85 71.7 4.5 73.12 2.93 73.12 Z" class="st4"/>
						</g>
						<g id="shape1044-39" v:mID="1044" v:groupContext="shape" v:layerMember="0"
								transform="translate(3.075,-5.55)">
							<title>Sheet.1044</title>
							<path d="M2.03 73.12 C0.9 73.12 0 72.15 0 70.87 C0 69.6 0.9 68.62 2.03 68.62 C3.15 68.62 4.05 69.6 4.05
										 70.87 C4.05 72.15 3.15 73.12 2.03 73.12 Z" class="st1"/>
						</g>
					</g>
				</g>
			</g>
		</g>
	</g>
</svg>
