<?xml version="1.0" encoding="UTF-8" standalone="no"?>
<!DOCTYPE svg PUBLIC "-//W3C//DTD SVG 1.1//EN" "http://www.w3.org/Graphics/SVG/1.1/DTD/svg11.dtd">
<!-- Generated by Microsoft Visio, SVG Export Skype for Business Edge Server.svg Page-1 -->
<svg xmlns="http://www.w3.org/2000/svg" xmlns:xlink="http://www.w3.org/1999/xlink" xmlns:ev="http://www.w3.org/2001/xml-events"
		xmlns:v="http://schemas.microsoft.com/visio/2003/SVGExtensions/" width="0.964844in" height="1in" viewBox="0 0 69.4688 72"
		xml:space="preserve" color-interpolation-filters="sRGB" class="st4">
	<v:documentProperties v:langID="4108" v:metric="true" v:viewMarkup="false"/>

	<style type="text/css">
	<![CDATA[
		.st1 {fill:#ffffff;stroke:none;stroke-linecap:butt;stroke-width:0.75}
		.st2 {fill:#505050;stroke:none;stroke-linecap:butt;stroke-width:0.75}
		.st3 {fill:#00adeb;stroke:none;stroke-linecap:butt;stroke-width:0.75}
		.st4 {fill:none;fill-rule:evenodd;font-size:12px;overflow:visible;stroke-linecap:square;stroke-miterlimit:3}
	]]>
	</style>

	<g v:mID="0" v:index="1" v:groupContext="foregroundPage">
		<title>Page-1</title>
		<v:pageProperties v:drawingScale="0.0393701" v:pageScale="0.0393701" v:drawingUnits="24" v:shadowOffsetX="8.50394"
				v:shadowOffsetY="-8.50394"/>
		<v:layer v:name="symbols" v:index="0"/>
		<g id="group934-1" transform="translate(7.59375,-6.9375)" v:mID="934" v:groupContext="group" v:layerMember="0">
			<title>Skype for Business Edge Server</title>
			<g id="group935-2" v:mID="935" v:groupContext="group" v:layerMember="0">
				<title>Sheet.935</title>
				<g id="group936-3" v:mID="936" v:groupContext="group" v:layerMember="0">
					<title>Sheet.936</title>
					<g id="shape937-4" v:mID="937" v:groupContext="shape" v:layerMember="0">
						<title>Sheet.937</title>
						<path d="M0 72 L0 20.25 C0 17.32 2.33 15 5.25 15 L26.25 15 C29.18 15 31.5 17.32 31.5 20.25 L31.5 72 L0 72
									 Z" class="st1"/>
					</g>
					<g id="shape938-6" v:mID="938" v:groupContext="shape" v:layerMember="0" transform="translate(2.25,-2.25)">
						<title>Sheet.938</title>
						<path d="M24 19.5 L3 19.5 C1.35 19.5 0 20.85 0 22.5 L0 72 L27 72 L27 22.5 C27 20.85 25.65 19.5 24 19.5 ZM21.75
									 66 L5.25 66 L5.25 63.75 L21.75 63.75 L21.75 66 ZM21.75 59.25 L5.25 59.25 L5.25 57 L21.75 57
									 L21.75 59.25 ZM21.75 28.5 L5.25 28.5 L5.25 26.25 L21.75 26.25 L21.75 28.5 Z" class="st2"/>
					</g>
				</g>
				<g id="group939-8" transform="translate(14.25,-8.25)" v:mID="939" v:groupContext="group" v:layerMember="0">
					<title>Sheet.939</title>
					<g id="shape940-9" v:mID="940" v:groupContext="shape" v:layerMember="0">
						<title>Sheet.940</title>
						<path d="M27.97 52.5 L20.25 52.5 L20.25 55.73 L22.27 57.75 L15.97 57.75 L18 55.65 L18 52.5 L10.27 52.5 L0
									 62.17 L9.6 72 L18 72 L18 68.85 L15.97 66.75 L22.27 66.75 L20.25 68.77 L20.25 72 L28.65 72 L38.25
									 62.17 L27.97 52.5 Z" class="st1"/>
					</g>
					<g id="shape941-11" v:mID="941" v:groupContext="shape" v:layerMember="0" transform="translate(3.225,-2.25)">
						<title>Sheet.941</title>
						<path d="M12.52 72 L7.42 66.75 L24.37 66.75 L19.2 72 L24.45 72 L31.8 64.5 L23.85 57 L19.2 57 L24.37 62.25
									 L7.42 62.25 L12.52 57 L7.95 57 L0 64.5 L7.35 72 L12.52 72 Z" class="st2"/>
					</g>
				</g>
				<g id="group942-13" transform="translate(31.5,-33)" v:mID="942" v:groupContext="group" v:layerMember="0">
					<title>Sheet.942</title>
					<g id="shape943-14" v:mID="943" v:groupContext="shape" v:layerMember="0">
						<title>Sheet.943</title>
						<path d="M17.92 72 C16.72 72 15.6 71.77 14.55 71.25 C14.1 71.32 13.65 71.32 13.12 71.32 C6.23 71.32 0.68
									 65.7 0.67 58.87 C0.68 58.42 0.68 57.98 0.75 57.45 C0.3 56.4 0 55.2 0 54.08 C0 49.5 3.75 45.75
									 8.32 45.75 C9.52 45.75 10.65 45.98 11.7 46.5 C12.15 46.43 12.6 46.43 13.12 46.43 C20.02 46.43
									 25.57 52.05 25.57 58.87 C25.57 59.33 25.57 59.77 25.5 60.3 C25.95 61.35 26.25 62.55 26.25 63.67
									 C26.25 68.25 22.5 72 17.92 72 Z" class="st1"/>
					</g>
					<g id="shape944-16" v:mID="944" v:groupContext="shape" v:layerMember="0" transform="translate(2.25,-2.25)">
						<title>Sheet.944</title>
						<path d="M20.92 62.92 C21 62.32 21.07 61.72 21.07 61.12 C21.07 55.5 16.5 50.93 10.87 50.93 C10.27 50.93 9.67
									 51 9.07 51.08 C8.17 50.55 7.12 50.25 6.07 50.25 C2.7 50.25 0 52.95 0 56.32 C0 57.45 0.3 58.43
									 0.82 59.32 C0.75 59.93 0.68 60.52 0.67 61.12 C0.68 66.75 5.25 71.32 10.87 71.32 C11.47 71.32
									 12.07 71.25 12.67 71.17 C13.57 71.7 14.62 72 15.67 72 C19.05 72 21.75 69.3 21.75 65.92 C21.75
									 64.8 21.45 63.82 20.92 62.92 ZM15.67 70.42 C14.85 70.42 14.1 70.2 13.42 69.82 L12.9 69.52 L12.37
									 69.6 C11.92 69.67 11.4 69.75 10.87 69.75 C6.08 69.75 2.17 65.85 2.17 61.05 C2.17 60.53 2.25
									 60 2.32 59.55 L2.4 59.02 L2.1 58.57 C1.72 57.9 1.5 57.15 1.5 56.32 C1.5 53.85 3.52 51.83 6 51.83
									 C6.83 51.83 7.58 52.05 8.25 52.43 L8.77 52.73 L9.3 52.65 C9.82 52.58 10.27 52.5 10.8 52.5 C15.6
									 52.5 19.5 56.4 19.5 61.2 C19.5 61.72 19.42 62.25 19.35 62.7 L19.27 63.22 L19.57 63.75 C19.95
									 64.42 20.17 65.17 20.17 66 C20.17 68.4 18.15 70.42 15.67 70.42 Z" class="st3"/>
					</g>
					<g id="shape945-18" v:mID="945" v:groupContext="shape" v:layerMember="0" transform="translate(7.95,-6.9)">
						<title>Sheet.945</title>
						<path d="M7.05 64.8 L4.72 64.27 C3.82 64.05 2.85 63.82 2.85 62.92 C2.85 62.1 3.53 61.5 4.8 61.5 C7.35 61.5
									 7.12 63.3 8.4 63.3 C9.07 63.3 9.67 62.92 9.67 62.25 C9.67 60.67 7.12 59.47 4.95 59.47 C2.62
									 59.47 0.15 60.45 0.15 63.07 C0.15 64.35 0.6 65.7 3.07 66.37 L6.15 67.12 C7.12 67.35 7.35 67.87
									 7.35 68.4 C7.35 69.22 6.52 70.05 5.1 70.05 C2.33 70.05 2.7 67.8 1.2 67.8 C0.52 67.8 0 68.25
									 0 68.92 C0 70.2 1.57 72 5.1 72 C8.4 72 10.12 70.35 10.12 68.17 C10.2 66.82 9.52 65.4 7.05 64.8
									 Z" class="st3"/>
					</g>
				</g>
			</g>
		</g>
	</g>
</svg>
