<?xml version="1.0" encoding="UTF-8" standalone="no"?>
<!DOCTYPE svg PUBLIC "-//W3C//DTD SVG 1.1//EN" "http://www.w3.org/Graphics/SVG/1.1/DTD/svg11.dtd">
<!-- Generated by Microsoft Visio, SVG Export Skype for Business Front-End Server.svg Page-1 -->
<svg xmlns="http://www.w3.org/2000/svg" xmlns:xlink="http://www.w3.org/1999/xlink" xmlns:ev="http://www.w3.org/2001/xml-events"
		xmlns:v="http://schemas.microsoft.com/visio/2003/SVGExtensions/" width="0.955469in" height="1.03125in"
		viewBox="0 0 68.7938 74.25" xml:space="preserve" color-interpolation-filters="sRGB" class="st4">
	<v:documentProperties v:langID="4108" v:metric="true" v:viewMarkup="false"/>

	<style type="text/css">
	<![CDATA[
		.st1 {fill:#ffffff;stroke:none;stroke-linecap:butt;stroke-width:0.75}
		.st2 {fill:#505150;stroke:none;stroke-linecap:butt;stroke-width:0.75}
		.st3 {fill:#00adeb;stroke:none;stroke-linecap:butt;stroke-width:0.75}
		.st4 {fill:none;fill-rule:evenodd;font-size:12px;overflow:visible;stroke-linecap:square;stroke-miterlimit:3}
	]]>
	</style>

	<g v:mID="0" v:index="1" v:groupContext="foregroundPage">
		<title>Page-1</title>
		<v:pageProperties v:drawingScale="0.0393701" v:pageScale="0.0393701" v:drawingUnits="24" v:shadowOffsetX="8.50394"
				v:shadowOffsetY="-8.50394"/>
		<v:layer v:name="symbols" v:index="0"/>
		<g id="group976-1" transform="translate(7.48125,-5.8125)" v:mID="976" v:groupContext="group" v:layerMember="0">
			<title>Skype for Business Front-End Server</title>
			<g id="group977-2" v:mID="977" v:groupContext="group" v:layerMember="0">
				<title>Sheet.977</title>
				<g id="group978-3" transform="translate(0,-4.5)" v:mID="978" v:groupContext="group" v:layerMember="0">
					<title>Sheet.978</title>
					<g id="group979-4" v:mID="979" v:groupContext="group" v:layerMember="0">
						<title>Sheet.979</title>
						<g id="shape980-5" v:mID="980" v:groupContext="shape" v:layerMember="0">
							<title>Sheet.980</title>
							<path d="M0 74.25 L0 22.5 C0 19.57 2.33 17.25 5.25 17.25 L26.25 17.25 C29.18 17.25 31.5 19.57 31.5 22.5
										 L31.5 74.25 L0 74.25 Z" class="st1"/>
						</g>
						<g id="shape981-7" v:mID="981" v:groupContext="shape" v:layerMember="0" transform="translate(2.25,-2.25)">
							<title>Sheet.981</title>
							<path d="M24 21.75 L3 21.75 C1.35 21.75 0 23.1 0 24.75 L0 74.25 L27 74.25 L27 24.75 C27 23.1 25.65 21.75
										 24 21.75 ZM21.75 68.25 L5.25 68.25 L5.25 66 L21.75 66 L21.75 68.25 ZM21.75 61.5 L5.25 61.5
										 L5.25 59.25 L21.75 59.25 L21.75 61.5 ZM21.75 30.75 L5.25 30.75 L5.25 28.5 L21.75 28.5 L21.75
										 30.75 Z" class="st2"/>
						</g>
					</g>
					<g id="group982-9" transform="translate(31.5,-33)" v:mID="982" v:groupContext="group" v:layerMember="0">
						<title>Sheet.982</title>
						<g id="shape983-10" v:mID="983" v:groupContext="shape" v:layerMember="0">
							<title>Sheet.983</title>
							<path d="M17.92 74.25 C16.72 74.25 15.6 74.03 14.55 73.5 C14.1 73.57 13.65 73.57 13.12 73.57 C6.23 73.57
										 0.68 67.95 0.67 61.13 C0.68 60.68 0.68 60.23 0.75 59.7 C0.3 58.65 0 57.45 0 56.33 C0 51.75
										 3.75 48 8.32 48 C9.52 48 10.65 48.23 11.7 48.75 C12.15 48.68 12.6 48.68 13.12 48.68 C20.02
										 48.68 25.57 54.3 25.57 61.13 C25.57 61.58 25.57 62.03 25.5 62.55 C25.95 63.6 26.25 64.8
										 26.25 65.93 C26.25 70.5 22.5 74.25 17.92 74.25 Z" class="st1"/>
						</g>
						<g id="shape984-12" v:mID="984" v:groupContext="shape" v:layerMember="0" transform="translate(2.25,-2.25)">
							<title>Sheet.984</title>
							<path d="M20.92 65.18 C21 64.58 21.07 63.98 21.07 63.38 C21.07 57.75 16.5 53.18 10.87 53.18 C10.27 53.18
										 9.67 53.25 9.07 53.33 C8.17 52.8 7.12 52.5 6.07 52.5 C2.7 52.5 0 55.2 0 58.58 C0 59.7 0.3
										 60.68 0.82 61.58 C0.75 62.18 0.68 62.78 0.67 63.38 C0.68 69 5.25 73.57 10.87 73.57 C11.47
										 73.57 12.07 73.5 12.67 73.43 C13.57 73.95 14.62 74.25 15.67 74.25 C19.05 74.25 21.75 71.55
										 21.75 68.18 C21.75 67.05 21.45 66.08 20.92 65.18 ZM15.67 72.68 C14.85 72.67 14.1 72.45 13.42
										 72.08 L12.9 71.78 L12.37 71.85 C11.92 71.92 11.4 72 10.87 72 C6.08 72 2.17 68.1 2.17 63.3
										 C2.17 62.78 2.25 62.25 2.32 61.8 L2.4 61.28 L2.1 60.83 C1.72 60.15 1.5 59.4 1.5 58.58 C1.5
										 56.1 3.52 54.08 6 54.08 C6.83 54.08 7.58 54.3 8.25 54.68 L8.77 54.98 L9.3 54.9 C9.82 54.83
										 10.27 54.75 10.8 54.75 C15.6 54.75 19.5 58.65 19.5 63.45 C19.5 63.98 19.42 64.5 19.35 64.95
										 L19.27 65.48 L19.57 66 C19.95 66.67 20.17 67.42 20.17 68.25 C20.17 70.65 18.15 72.67 15.67
										 72.68 Z" class="st3"/>
						</g>
						<g id="shape985-14" v:mID="985" v:groupContext="shape" v:layerMember="0" transform="translate(7.95,-6.9)">
							<title>Sheet.985</title>
							<path d="M7.05 67.05 L4.72 66.53 C3.82 66.3 2.85 66.08 2.85 65.18 C2.85 64.35 3.53 63.75 4.8 63.75 C7.35
										 63.75 7.12 65.55 8.4 65.55 C9.07 65.55 9.67 65.18 9.67 64.5 C9.67 62.93 7.12 61.73 4.95
										 61.73 C2.62 61.73 0.15 62.7 0.15 65.33 C0.15 66.6 0.6 67.95 3.07 68.63 L6.15 69.38 C7.12
										 69.6 7.35 70.13 7.35 70.65 C7.35 71.47 6.52 72.3 5.1 72.3 C2.33 72.3 2.7 70.05 1.2 70.05
										 C0.52 70.05 0 70.5 0 71.18 C0 72.45 1.57 74.25 5.1 74.25 C8.4 74.25 10.12 72.6 10.12 70.43
										 C10.2 69.08 9.52 67.65 7.05 67.05 Z" class="st3"/>
						</g>
					</g>
				</g>
				<g id="group986-16" transform="translate(20.25,5.68434E-14)" v:mID="986" v:groupContext="group" v:layerMember="0">
					<title>Sheet.986</title>
					<g id="shape987-17" v:mID="987" v:groupContext="shape" v:layerMember="0">
						<title>Sheet.987</title>
						<path d="M0 74.25 L0 40.5 L14.25 40.5 L14.25 45.75 L14.25 42 L20.25 42 L20.25 45.75 L21.75 45.75 L21.75 48.75
									 L23.25 48.75 L23.25 51.75 L24.75 51.75 L24.75 74.25 L0 74.25 Z" class="st1"/>
					</g>
					<g id="shape988-19" v:mID="988" v:groupContext="shape" v:layerMember="0" transform="translate(2.25,-2.25)">
						<title>Sheet.988</title>
						<path d="M18.75 56.25 L18.75 53.25 L17.25 53.25 L17.25 50.25 L15.75 50.25 L15.75 46.5 L14.25 46.5 L14.25
									 50.25 L12.75 50.25 L12.75 53.25 L11.25 53.25 L11.25 56.25 L9.75 56.25 L9.75 45 L0 45 L0 74.25
									 L20.25 74.25 L20.25 56.25 L18.75 56.25 ZM3.75 65.25 L2.25 65.25 L2.25 63.75 L3.75 63.75 L3.75
									 65.25 ZM3.75 61.5 L2.25 61.5 L2.25 60 L3.75 60 L3.75 61.5 ZM3.75 57.75 L2.25 57.75 L2.25 56.25
									 L3.75 56.25 L3.75 57.75 ZM3.75 54 L2.25 54 L2.25 52.5 L3.75 52.5 L3.75 54 ZM3.75 50.25 L2.25
									 50.25 L2.25 48.75 L3.75 48.75 L3.75 50.25 ZM7.5 65.25 L6 65.25 L6 63.75 L7.5 63.75 L7.5 65.25
									 ZM7.5 61.5 L6 61.5 L6 60 L7.5 60 L7.5 61.5 ZM7.5 57.75 L6 57.75 L6 56.25 L7.5 56.25 L7.5 57.75
									 ZM7.5 54 L6 54 L6 52.5 L7.5 52.5 L7.5 54 ZM7.5 50.25 L6 50.25 L6 48.75 L7.5 48.75 L7.5 50.25
									 ZM14.25 66 L12.75 66 L12.75 64.5 L14.25 64.5 L14.25 66 ZM14.25 60 L12.75 60 L12.75 58.5 L14.25
									 58.5 L14.25 60 ZM17.25 63 L15.75 63 L15.75 61.5 L17.25 61.5 L17.25 63 Z" class="st2"/>
					</g>
				</g>
			</g>
		</g>
	</g>
</svg>
