<?xml version="1.0" encoding="UTF-8" standalone="no"?>
<!DOCTYPE svg PUBLIC "-//W3C//DTD SVG 1.1//EN" "http://www.w3.org/Graphics/SVG/1.1/DTD/svg11.dtd">
<!-- Generated by Microsoft Visio, SVG Export Skype for Business Director.svg Page-1 -->
<svg xmlns="http://www.w3.org/2000/svg" xmlns:xlink="http://www.w3.org/1999/xlink" xmlns:ev="http://www.w3.org/2001/xml-events"
		xmlns:v="http://schemas.microsoft.com/visio/2003/SVGExtensions/" width="0.955469in" height="0.984375in"
		viewBox="0 0 68.7938 70.875" xml:space="preserve" color-interpolation-filters="sRGB" class="st4">
	<v:documentProperties v:langID="4108" v:metric="true" v:viewMarkup="false"/>

	<style type="text/css">
	<![CDATA[
		.st1 {fill:#ffffff;stroke:none;stroke-linecap:butt;stroke-width:0.75}
		.st2 {fill:#505050;stroke:none;stroke-linecap:butt;stroke-width:0.75}
		.st3 {fill:#00adeb;stroke:none;stroke-linecap:butt;stroke-width:0.75}
		.st4 {fill:none;fill-rule:evenodd;font-size:12px;overflow:visible;stroke-linecap:square;stroke-miterlimit:3}
	]]>
	</style>

	<g v:mID="0" v:index="1" v:groupContext="foregroundPage">
		<title>Page-1</title>
		<v:pageProperties v:drawingScale="0.0393701" v:pageScale="0.0393701" v:drawingUnits="24" v:shadowOffsetX="8.50394"
				v:shadowOffsetY="-8.50394"/>
		<v:layer v:name="symbols" v:index="0"/>
		<g id="group906-1" transform="translate(7.48125,-6.9375)" v:mID="906" v:groupContext="group" v:layerMember="0">
			<title>Skype for Business Director</title>
			<g id="group907-2" v:mID="907" v:groupContext="group" v:layerMember="0">
				<title>Sheet.907</title>
				<g id="group908-3" v:mID="908" v:groupContext="group" v:layerMember="0">
					<title>Sheet.908</title>
					<g id="group909-4" v:mID="909" v:groupContext="group" v:layerMember="0">
						<title>Sheet.909</title>
						<g id="shape910-5" v:mID="910" v:groupContext="shape" v:layerMember="0">
							<title>Sheet.910</title>
							<path d="M0 70.87 L0 19.12 C-0 16.2 2.32 13.87 5.25 13.87 L26.25 13.87 C29.17 13.87 31.5 16.2 31.5 19.12
										 L31.5 70.87 L0 70.87 Z" class="st1"/>
						</g>
						<g id="shape911-7" v:mID="911" v:groupContext="shape" v:layerMember="0" transform="translate(2.25,-2.25)">
							<title>Sheet.911</title>
							<path d="M24 18.37 L3 18.37 C1.35 18.37 0 19.72 0 21.37 L0 70.87 L27 70.87 L27 21.37 C27 19.72 25.65
										 18.37 24 18.37 ZM21.75 64.87 L5.25 64.87 L5.25 62.62 L21.75 62.62 L21.75 64.87 ZM21.75 58.12
										 L5.25 58.12 L5.25 55.87 L21.75 55.87 L21.75 58.12 ZM21.75 27.37 L5.25 27.37 L5.25 25.12
										 L21.75 25.12 L21.75 27.37 Z" class="st2"/>
						</g>
					</g>
					<g id="group912-9" transform="translate(23.25,-0.75)" v:mID="912" v:groupContext="group" v:layerMember="0">
						<title>Sheet.912</title>
						<g id="shape913-10" v:mID="913" v:groupContext="shape" v:layerMember="0">
							<title>Sheet.913</title>
							<path d="M24.82 55.5 L18.75 49.12 L18.52 40.35 L9.75 40.05 L6 43.8 L6 46.65 L7.35 46.65 L0 54.15 L0 56.85
										 L7.35 64.27 L6 64.27 L6 67.12 L9.75 70.87 L18.6 70.65 L18.75 61.87 L24.82 55.5 Z"
									class="st1"/>
						</g>
						<g id="shape914-12" v:mID="914" v:groupContext="shape" v:layerMember="0" transform="translate(2.25,-2.25)">
							<title>Sheet.914</title>
							<path d="M0 58.12 L10.42 68.62 L6.3 68.7 L8.4 70.87 L14.1 70.72 L14.25 65.02 L12.07 62.85 L12.07 67.05
										 L3.82 58.87 L15.45 58.87 L12.52 61.87 L15.6 61.87 L19.5 57.75 L15.6 53.62 L12.52 53.62 L15.45
										 56.62 L3.82 56.62 L12.07 48.37 L12.07 52.57 L14.25 50.4 L14.1 44.77 L8.4 44.62 L6.3 46.72
										 L10.42 46.8 L0 57.3 L0 58.12 Z" class="st2"/>
						</g>
					</g>
				</g>
				<g id="group915-14" transform="translate(31.5,-33)" v:mID="915" v:groupContext="group" v:layerMember="0">
					<title>Sheet.915</title>
					<g id="shape916-15" v:mID="916" v:groupContext="shape" v:layerMember="0">
						<title>Sheet.916</title>
						<path d="M17.92 70.87 C16.72 70.87 15.6 70.65 14.55 70.12 C14.1 70.2 13.65 70.2 13.12 70.2 C6.23 70.2 0.68
									 64.57 0.67 57.75 C0.68 57.3 0.68 56.85 0.75 56.33 C0.3 55.28 0 54.08 0 52.95 C0 48.38 3.75 44.63
									 8.32 44.63 C9.52 44.63 10.65 44.85 11.7 45.38 C12.15 45.3 12.6 45.3 13.12 45.3 C20.02 45.3 25.57
									 50.93 25.57 57.75 C25.57 58.2 25.57 58.65 25.5 59.17 C25.95 60.22 26.25 61.42 26.25 62.55 C26.25
									 67.12 22.5 70.87 17.92 70.87 Z" class="st1"/>
					</g>
					<g id="shape917-17" v:mID="917" v:groupContext="shape" v:layerMember="0" transform="translate(2.25,-2.25)">
						<title>Sheet.917</title>
						<path d="M20.92 61.8 C21 61.2 21.07 60.6 21.07 60 C21.07 54.38 16.5 49.8 10.87 49.8 C10.27 49.8 9.67 49.88
									 9.07 49.95 C8.17 49.43 7.12 49.13 6.07 49.13 C2.7 49.13 0 51.82 0 55.2 C0 56.32 0.3 57.3 0.82
									 58.2 C0.75 58.8 0.68 59.4 0.67 60 C0.68 65.62 5.25 70.2 10.87 70.2 C11.47 70.2 12.07 70.12 12.67
									 70.05 C13.57 70.57 14.62 70.87 15.67 70.87 C19.05 70.87 21.75 68.17 21.75 64.8 C21.75 63.67
									 21.45 62.7 20.92 61.8 ZM15.67 69.3 C14.85 69.3 14.1 69.07 13.42 68.7 L12.9 68.4 L12.37 68.47
									 C11.92 68.55 11.4 68.62 10.87 68.62 C6.08 68.62 2.17 64.72 2.17 59.92 C2.17 59.4 2.25 58.88
									 2.32 58.42 L2.4 57.9 L2.1 57.45 C1.72 56.77 1.5 56.02 1.5 55.2 C1.5 52.73 3.52 50.7 6 50.7 C6.83
									 50.7 7.58 50.93 8.25 51.3 L8.77 51.6 L9.3 51.53 C9.82 51.45 10.27 51.38 10.8 51.38 C15.6 51.38
									 19.5 55.28 19.5 60.07 C19.5 60.6 19.42 61.12 19.35 61.57 L19.27 62.1 L19.57 62.62 C19.95 63.3
									 20.17 64.05 20.17 64.87 C20.17 67.27 18.15 69.3 15.67 69.3 Z" class="st3"/>
					</g>
					<g id="shape918-19" v:mID="918" v:groupContext="shape" v:layerMember="0" transform="translate(7.95,-6.9)">
						<title>Sheet.918</title>
						<path d="M7.05 63.67 L4.72 63.15 C3.82 62.92 2.85 62.7 2.85 61.8 C2.85 60.97 3.53 60.37 4.8 60.37 C7.35 60.37
									 7.12 62.17 8.4 62.17 C9.07 62.17 9.67 61.8 9.67 61.12 C9.67 59.55 7.12 58.35 4.95 58.35 C2.62
									 58.35 0.15 59.32 0.15 61.95 C0.15 63.22 0.6 64.57 3.07 65.25 L6.15 66 C7.12 66.22 7.35 66.75
									 7.35 67.27 C7.35 68.1 6.52 68.92 5.1 68.92 C2.33 68.92 2.7 66.67 1.2 66.67 C0.52 66.67 0 67.12
									 0 67.8 C0 69.07 1.57 70.87 5.1 70.87 C8.4 70.87 10.12 69.22 10.12 67.05 C10.2 65.7 9.52 64.27
									 7.05 63.67 Z" class="st3"/>
					</g>
				</g>
			</g>
		</g>
	</g>
</svg>
