<?xml version="1.0" encoding="UTF-8" standalone="no"?>
<!DOCTYPE svg PUBLIC "-//W3C//DTD SVG 1.1//EN" "http://www.w3.org/Graphics/SVG/1.1/DTD/svg11.dtd">
<!-- Generated by Microsoft Visio, SVG Export Skype for Business Director Array.svg Page-1 -->
<svg xmlns="http://www.w3.org/2000/svg" xmlns:xlink="http://www.w3.org/1999/xlink" xmlns:ev="http://www.w3.org/2001/xml-events"
		xmlns:v="http://schemas.microsoft.com/visio/2003/SVGExtensions/" width="1.21875in" height="1.0625in"
		viewBox="0 0 87.75 76.5" xml:space="preserve" color-interpolation-filters="sRGB" class="st4">
	<v:documentProperties v:langID="4108" v:metric="true" v:viewMarkup="false"/>

	<style type="text/css">
	<![CDATA[
		.st1 {fill:#ffffff;stroke:none;stroke-linecap:butt;stroke-width:0.75}
		.st2 {fill:#505050;stroke:none;stroke-linecap:butt;stroke-width:0.75}
		.st3 {fill:#00adeb;stroke:none;stroke-linecap:butt;stroke-width:0.75}
		.st4 {fill:none;fill-rule:evenodd;font-size:12px;overflow:visible;stroke-linecap:square;stroke-miterlimit:3}
	]]>
	</style>

	<g v:mID="0" v:index="1" v:groupContext="foregroundPage">
		<title>Page-1</title>
		<v:pageProperties v:drawingScale="0.0393701" v:pageScale="0.0393701" v:drawingUnits="24" v:shadowOffsetX="8.50394"
				v:shadowOffsetY="-8.50394"/>
		<v:layer v:name="symbols" v:index="0"/>
		<g id="group919-1" transform="translate(9.9375,-8.0625)" v:mID="919" v:groupContext="group" v:layerMember="0">
			<title>Skype for Business Director Array</title>
			<g id="group920-2" v:mID="920" v:groupContext="group" v:layerMember="0">
				<title>Sheet.920</title>
				<g id="group921-3" transform="translate(-3.17746E-13,-6.75)" v:mID="921" v:groupContext="group" v:layerMember="0">
					<title>Sheet.921</title>
					<g id="shape922-4" v:mID="922" v:groupContext="shape" v:layerMember="0">
						<title>Sheet.922</title>
						<path d="M0 76.5 L0 24.75 C-0 21.83 2.33 19.5 5.25 19.5 L26.25 19.5 C29.18 19.5 31.5 21.83 31.5 24.75 L31.5
									 76.5 L0 76.5 Z" class="st1"/>
					</g>
					<g id="shape923-6" v:mID="923" v:groupContext="shape" v:layerMember="0" transform="translate(2.25,-2.25)">
						<title>Sheet.923</title>
						<path d="M24 24 L3 24 C1.35 24 0 25.35 0 27 L0 76.5 L27 76.5 L27 27 C27 25.35 25.65 24 24 24 ZM21.75 70.5
									 L5.25 70.5 L5.25 68.25 L21.75 68.25 L21.75 70.5 ZM21.75 63.75 L5.25 63.75 L5.25 61.5 L21.75
									 61.5 L21.75 63.75 ZM21.75 33 L5.25 33 L5.25 30.75 L21.75 30.75 L21.75 33 Z" class="st2"/>
					</g>
				</g>
				<g id="group924-8" transform="translate(15.75,1.13687E-13)" v:mID="924" v:groupContext="group" v:layerMember="0">
					<title>Sheet.924</title>
					<g id="shape925-9" v:mID="925" v:groupContext="shape" v:layerMember="0">
						<title>Sheet.925</title>
						<path d="M0 76.5 L0 24.75 C-0 21.83 2.33 19.5 5.25 19.5 L26.25 19.5 C29.18 19.5 31.5 21.83 31.5 24.75 L31.5
									 76.5 L0 76.5 Z" class="st1"/>
					</g>
					<g id="shape926-11" v:mID="926" v:groupContext="shape" v:layerMember="0" transform="translate(2.25,-2.25)">
						<title>Sheet.926</title>
						<path d="M24 24 L3 24 C1.35 24 0 25.35 0 27 L0 76.5 L27 76.5 L27 27 C27 25.35 25.65 24 24 24 ZM21.75 70.5
									 L5.25 70.5 L5.25 68.25 L21.75 68.25 L21.75 70.5 ZM21.75 63.75 L5.25 63.75 L5.25 61.5 L21.75
									 61.5 L21.75 63.75 ZM21.75 33 L5.25 33 L5.25 30.75 L21.75 30.75 L21.75 33 Z" class="st2"/>
					</g>
				</g>
				<g id="group927-13" transform="translate(39,-0.75)" v:mID="927" v:groupContext="group" v:layerMember="0">
					<title>Sheet.927</title>
					<g id="shape928-14" v:mID="928" v:groupContext="shape" v:layerMember="0">
						<title>Sheet.928</title>
						<path d="M24.83 61.12 L18.75 54.75 L18.53 45.97 L9.75 45.67 L6 49.42 L6 52.27 L7.35 52.27 L0 59.77 L0 62.47
									 L7.35 69.9 L6 69.9 L6 72.75 L9.75 76.5 L18.6 76.28 L18.75 67.5 L24.83 61.12 Z" class="st1"/>
					</g>
					<g id="shape929-16" v:mID="929" v:groupContext="shape" v:layerMember="0" transform="translate(2.25,-2.25)">
						<title>Sheet.929</title>
						<path d="M0 63.75 L10.43 74.25 L6.3 74.32 L8.4 76.5 L14.1 76.35 L14.25 70.65 L12.08 68.47 L12.08 72.67 L3.83
									 64.5 L15.45 64.5 L12.53 67.5 L15.6 67.5 L19.5 63.37 L15.6 59.25 L12.53 59.25 L15.45 62.25 L3.83
									 62.25 L12.08 54 L12.08 58.2 L14.25 56.02 L14.1 50.4 L8.4 50.25 L6.3 52.35 L10.43 52.42 L0 62.92
									 L0 63.75 Z" class="st2"/>
					</g>
				</g>
				<g id="group930-18" transform="translate(47.25,-37.5)" v:mID="930" v:groupContext="group" v:layerMember="0">
					<title>Sheet.930</title>
					<g id="shape931-19" v:mID="931" v:groupContext="shape" v:layerMember="0">
						<title>Sheet.931</title>
						<path d="M17.93 76.5 C16.73 76.5 15.6 76.28 14.55 75.75 C14.1 75.82 13.65 75.82 13.13 75.82 C6.23 75.82 0.67
									 70.2 0.67 63.38 C0.67 62.93 0.67 62.48 0.75 61.95 C0.3 60.9 0 59.7 0 58.58 C0 54 3.75 50.25
									 8.33 50.25 C9.52 50.25 10.65 50.48 11.7 51 C12.15 50.93 12.6 50.93 13.13 50.93 C20.03 50.93
									 25.58 56.55 25.58 63.38 C25.58 63.83 25.58 64.27 25.5 64.8 C25.95 65.85 26.25 67.05 26.25 68.18
									 C26.25 72.75 22.5 76.5 17.93 76.5 Z" class="st1"/>
					</g>
					<g id="shape932-21" v:mID="932" v:groupContext="shape" v:layerMember="0" transform="translate(2.25,-2.25)">
						<title>Sheet.932</title>
						<path d="M20.93 67.43 C21 66.82 21.08 66.23 21.08 65.63 C21.08 60 16.5 55.43 10.88 55.43 C10.28 55.43 9.68
									 55.5 9.08 55.58 C8.18 55.05 7.13 54.75 6.08 54.75 C2.7 54.75 0 57.45 0 60.83 C-0 61.95 0.3 62.93
									 0.83 63.83 C0.75 64.43 0.67 65.03 0.67 65.63 C0.67 71.25 5.25 75.82 10.88 75.82 C11.48 75.82
									 12.08 75.75 12.68 75.67 C13.58 76.2 14.63 76.5 15.68 76.5 C19.05 76.5 21.75 73.8 21.75 70.43
									 C21.75 69.3 21.45 68.32 20.93 67.43 ZM15.68 74.92 C14.85 74.92 14.1 74.7 13.43 74.33 L12.9 74.03
									 L12.38 74.1 C11.93 74.17 11.4 74.25 10.88 74.25 C6.08 74.25 2.18 70.35 2.18 65.55 C2.18 65.03
									 2.25 64.5 2.33 64.05 L2.4 63.53 L2.1 63.08 C1.73 62.4 1.5 61.65 1.5 60.83 C1.5 58.35 3.53 56.33
									 6 56.33 C6.83 56.33 7.58 56.55 8.25 56.93 L8.78 57.23 L9.3 57.15 C9.83 57.08 10.28 57 10.8 57
									 C15.6 57 19.5 60.9 19.5 65.7 C19.5 66.23 19.43 66.75 19.35 67.2 L19.28 67.73 L19.58 68.25 C19.95
									 68.92 20.18 69.67 20.18 70.5 C20.18 72.9 18.15 74.92 15.68 74.92 Z" class="st3"/>
					</g>
					<g id="shape933-23" v:mID="933" v:groupContext="shape" v:layerMember="0" transform="translate(7.95,-6.9)">
						<title>Sheet.933</title>
						<path d="M7.05 69.3 L4.73 68.78 C3.83 68.55 2.85 68.33 2.85 67.43 C2.85 66.6 3.53 66 4.8 66 C7.35 66 7.13
									 67.8 8.4 67.8 C9.08 67.8 9.68 67.43 9.68 66.75 C9.68 65.17 7.13 63.98 4.95 63.98 C2.63 63.98
									 0.15 64.95 0.15 67.58 C0.15 68.85 0.6 70.2 3.08 70.87 L6.15 71.63 C7.13 71.85 7.35 72.37 7.35
									 72.9 C7.35 73.72 6.53 74.55 5.1 74.55 C2.33 74.55 2.7 72.3 1.2 72.3 C0.52 72.3 0 72.75 0 73.42
									 C0 74.7 1.57 76.5 5.1 76.5 C8.4 76.5 10.13 74.85 10.13 72.68 C10.2 71.33 9.53 69.9 7.05 69.3
									 Z" class="st3"/>
					</g>
				</g>
			</g>
		</g>
	</g>
</svg>
