<?xml version="1.0" encoding="UTF-8" standalone="no"?>
<!DOCTYPE svg PUBLIC "-//W3C//DTD SVG 1.1//EN" "http://www.w3.org/Graphics/SVG/1.1/DTD/svg11.dtd">
<!-- Generated by Microsoft Visio, SVG Export Skype for Business Monitoring Server.svg Page-1 -->
<svg xmlns="http://www.w3.org/2000/svg" xmlns:xlink="http://www.w3.org/1999/xlink" xmlns:ev="http://www.w3.org/2001/xml-events"
		xmlns:v="http://schemas.microsoft.com/visio/2003/SVGExtensions/" width="0.949219in" height="1.04688in"
		viewBox="0 0 68.3438 75.375" xml:space="preserve" color-interpolation-filters="sRGB" class="st4">
	<v:documentProperties v:langID="4108" v:metric="true" v:viewMarkup="false"/>

	<style type="text/css">
	<![CDATA[
		.st1 {fill:#ffffff;stroke:none;stroke-linecap:butt;stroke-width:0.75}
		.st2 {fill:#505150;stroke:none;stroke-linecap:butt;stroke-width:0.75}
		.st3 {fill:#00adeb;stroke:none;stroke-linecap:butt;stroke-width:0.75}
		.st4 {fill:none;fill-rule:evenodd;font-size:12px;overflow:visible;stroke-linecap:square;stroke-miterlimit:3}
	]]>
	</style>

	<g v:mID="0" v:index="1" v:groupContext="foregroundPage">
		<title>Page-1</title>
		<v:pageProperties v:drawingScale="0.0393701" v:pageScale="0.0393701" v:drawingUnits="24" v:shadowOffsetX="8.50394"
				v:shadowOffsetY="-8.50394"/>
		<v:layer v:name="symbols" v:index="0"/>
		<g id="group1003-1" transform="translate(7.59375,-6.9375)" v:mID="1003" v:groupContext="group" v:layerMember="0">
			<title>Skype for Business Monitoring Server</title>
			<g id="group1004-2" transform="translate(0,-4.5)" v:mID="1004" v:groupContext="group" v:layerMember="0">
				<title>Sheet.1004</title>
				<g id="group1005-3" v:mID="1005" v:groupContext="group" v:layerMember="0">
					<title>Sheet.1005</title>
					<g id="shape1006-4" v:mID="1006" v:groupContext="shape" v:layerMember="0">
						<title>Sheet.1006</title>
						<path d="M0 75.37 L0 23.62 C0 20.7 2.33 18.37 5.25 18.37 L26.25 18.37 C29.18 18.37 31.5 20.7 31.5 23.62 L31.5
									 75.37 L0 75.37 Z" class="st1"/>
					</g>
					<g id="shape1007-6" v:mID="1007" v:groupContext="shape" v:layerMember="0" transform="translate(2.25,-2.25)">
						<title>Sheet.1007</title>
						<path d="M24 22.87 L3 22.87 C1.35 22.87 0 24.23 0 25.87 L0 75.37 L27 75.37 L27 25.87 C27 24.23 25.65 22.87
									 24 22.87 ZM21.75 69.37 L5.25 69.37 L5.25 67.12 L21.75 67.12 L21.75 69.37 ZM21.75 62.62 L5.25
									 62.62 L5.25 60.37 L21.75 60.37 L21.75 62.62 ZM21.75 31.87 L5.25 31.87 L5.25 29.62 L21.75 29.62
									 L21.75 31.87 Z" class="st2"/>
					</g>
				</g>
				<g id="group1008-8" transform="translate(31.5,-33)" v:mID="1008" v:groupContext="group" v:layerMember="0">
					<title>Sheet.1008</title>
					<g id="shape1009-9" v:mID="1009" v:groupContext="shape" v:layerMember="0">
						<title>Sheet.1009</title>
						<path d="M17.92 75.37 C16.72 75.37 15.6 75.15 14.55 74.62 C14.1 74.7 13.65 74.7 13.12 74.7 C6.23 74.7 0.68
									 69.08 0.67 62.25 C0.68 61.8 0.68 61.35 0.75 60.83 C0.3 59.78 0 58.58 0 57.45 C0 52.88 3.75 49.13
									 8.32 49.13 C9.52 49.13 10.65 49.35 11.7 49.88 C12.15 49.8 12.6 49.8 13.12 49.8 C20.02 49.8 25.57
									 55.43 25.57 62.25 C25.57 62.7 25.57 63.15 25.5 63.68 C25.95 64.73 26.25 65.93 26.25 67.05 C26.25
									 71.63 22.5 75.37 17.92 75.37 Z" class="st1"/>
					</g>
					<g id="shape1010-11" v:mID="1010" v:groupContext="shape" v:layerMember="0" transform="translate(2.25,-2.25)">
						<title>Sheet.1010</title>
						<path d="M20.92 66.3 C21 65.7 21.07 65.1 21.07 64.5 C21.07 58.88 16.5 54.3 10.87 54.3 C10.27 54.3 9.67 54.38
									 9.07 54.45 C8.17 53.93 7.12 53.63 6.07 53.63 C2.7 53.63 0 56.33 0 59.7 C0 60.83 0.3 61.8 0.82
									 62.7 C0.75 63.3 0.68 63.9 0.67 64.5 C0.68 70.12 5.25 74.7 10.87 74.7 C11.47 74.7 12.07 74.62
									 12.67 74.55 C13.57 75.07 14.62 75.37 15.67 75.37 C19.05 75.37 21.75 72.68 21.75 69.3 C21.75
									 68.18 21.45 67.2 20.92 66.3 ZM15.67 73.8 C14.85 73.8 14.1 73.57 13.42 73.2 L12.9 72.9 L12.37
									 72.98 C11.92 73.05 11.4 73.12 10.87 73.13 C6.08 73.12 2.17 69.22 2.17 64.43 C2.17 63.9 2.25
									 63.38 2.32 62.93 L2.4 62.4 L2.1 61.95 C1.72 61.28 1.5 60.53 1.5 59.7 C1.5 57.23 3.52 55.2 6
									 55.2 C6.83 55.2 7.58 55.43 8.25 55.8 L8.77 56.1 L9.3 56.03 C9.82 55.95 10.27 55.88 10.8 55.88
									 C15.6 55.88 19.5 59.78 19.5 64.58 C19.5 65.1 19.42 65.63 19.35 66.08 L19.27 66.6 L19.57 67.13
									 C19.95 67.8 20.17 68.55 20.17 69.38 C20.17 71.78 18.15 73.8 15.67 73.8 Z" class="st3"/>
					</g>
					<g id="shape1011-13" v:mID="1011" v:groupContext="shape" v:layerMember="0" transform="translate(7.95,-6.9)">
						<title>Sheet.1011</title>
						<path d="M7.05 68.18 L4.72 67.65 C3.82 67.42 2.85 67.2 2.85 66.3 C2.85 65.48 3.53 64.88 4.8 64.88 C7.35 64.88
									 7.12 66.68 8.4 66.68 C9.07 66.68 9.67 66.3 9.67 65.63 C9.67 64.05 7.12 62.85 4.95 62.85 C2.62
									 62.85 0.15 63.83 0.15 66.45 C0.15 67.73 0.6 69.08 3.07 69.75 L6.15 70.5 C7.12 70.73 7.35 71.25
									 7.35 71.78 C7.35 72.6 6.52 73.43 5.1 73.43 C2.33 73.43 2.7 71.17 1.2 71.18 C0.52 71.17 0 71.63
									 0 72.3 C0 73.57 1.57 75.37 5.1 75.37 C8.4 75.37 10.12 73.72 10.12 71.55 C10.2 70.2 9.52 68.78
									 7.05 68.18 Z" class="st3"/>
					</g>
				</g>
			</g>
			<g id="group1012-15" transform="translate(15,-5.68434E-14)" v:mID="1012" v:groupContext="group" v:layerMember="0">
				<title>Sheet.1012</title>
				<g id="shape1013-16" v:mID="1013" v:groupContext="shape" v:layerMember="0">
					<title>Sheet.1013</title>
					<rect x="0" y="45.375" width="35.25" height="30" class="st1"/>
				</g>
				<g id="group1014-18" transform="translate(2.25,-2.25)" v:mID="1014" v:groupContext="group" v:layerMember="0">
					<title>Sheet.1014</title>
					<g id="shape1015-19" v:mID="1015" v:groupContext="shape" v:layerMember="0" transform="translate(0.75,-0.75)">
						<title>Sheet.1015</title>
						<rect x="0" y="51.375" width="29.25" height="24" class="st1"/>
					</g>
					<g id="shape1016-21" v:mID="1016" v:groupContext="shape" v:layerMember="0">
						<title>Sheet.1016</title>
						<path d="M29.25 51.37 L29.25 73.87 L1.5 73.87 L1.5 51.37 L29.25 51.37 ZM30.75 49.87 L0 49.87 L0 75.37 L30.75
									 75.37 L30.75 49.87 Z" class="st2"/>
					</g>
				</g>
				<g id="group1017-23" transform="translate(5.25,-5.25)" v:mID="1017" v:groupContext="group" v:layerMember="0">
					<title>Sheet.1017</title>
					<g id="shape1018-24" v:mID="1018" v:groupContext="shape" v:layerMember="0">
						<title>Sheet.1018</title>
						<path d="M18.9 69.67 C18.75 70.05 18.37 70.35 18 70.35 C17.55 70.35 17.25 70.05 17.1 69.67 L15.6 64.12 L15.15
									 65.25 C15 65.62 14.7 65.85 14.25 65.85 L11.18 65.85 L9.15 71.92 C9 72.3 8.7 72.6 8.25 72.6 C7.8
									 72.6 7.5 72.3 7.35 71.92 L5.18 63.67 L4.65 65.17 C4.5 65.55 4.2 65.85 3.75 65.85 L0 65.85 L0
									 75.37 L24.75 75.37 L24.75 65.85 L20.18 65.85 L18.9 69.67 Z" class="st2"/>
					</g>
					<g id="shape1019-26" v:mID="1019" v:groupContext="shape" v:layerMember="0" transform="translate(0,-6.975)">
						<title>Sheet.1019</title>
						<path d="M0 62.85 L0 70.95 L3.08 70.95 L4.35 67.12 C4.5 66.75 4.88 66.45 5.25 66.45 C5.7 66.45 6 66.75 6.15
									 67.12 L8.33 75.37 L9.6 71.62 C9.75 71.25 10.05 70.95 10.5 70.95 L13.65 70.95 L14.93 67.8 C15.08
									 67.42 15.45 67.2 15.83 67.2 C16.2 67.2 16.58 67.5 16.65 67.87 L18.08 73.12 L18.6 71.55 C18.75
									 71.17 19.05 70.87 19.5 70.87 L24.75 70.87 L24.75 62.85 L0 62.85 Z" class="st2"/>
					</g>
				</g>
			</g>
		</g>
	</g>
</svg>
