<?xml version="1.0" encoding="UTF-8" standalone="no"?>
<!DOCTYPE svg PUBLIC "-//W3C//DTD SVG 1.1//EN" "http://www.w3.org/Graphics/SVG/1.1/DTD/svg11.dtd">
<!-- Generated by Microsoft Visio, SVG Export Skype for Business Back-End Server Mirror.svg Page-1 -->
<svg xmlns="http://www.w3.org/2000/svg" xmlns:xlink="http://www.w3.org/1999/xlink" xmlns:ev="http://www.w3.org/2001/xml-events"
		xmlns:v="http://schemas.microsoft.com/visio/2003/SVGExtensions/" width="0.989844in" height="1.01563in"
		viewBox="0 0 71.2687 73.125" xml:space="preserve" color-interpolation-filters="sRGB" class="st4">
	<v:documentProperties v:langID="4108" v:metric="true" v:viewMarkup="false"/>

	<style type="text/css">
	<![CDATA[
		.st1 {fill:#ffffff;stroke:none;stroke-linecap:butt;stroke-width:0.75}
		.st2 {fill:#505050;stroke:none;stroke-linecap:butt;stroke-width:0.75}
		.st3 {fill:#00adeb;stroke:none;stroke-linecap:butt;stroke-width:0.75}
		.st4 {fill:none;fill-rule:evenodd;font-size:12px;overflow:visible;stroke-linecap:square;stroke-miterlimit:3}
	]]>
	</style>

	<g v:mID="0" v:index="1" v:groupContext="foregroundPage">
		<title>Page-1</title>
		<v:pageProperties v:drawingScale="0.0393701" v:pageScale="0.0393701" v:drawingUnits="24" v:shadowOffsetX="8.50394"
				v:shadowOffsetY="-8.50394"/>
		<v:layer v:name="symbols" v:index="0"/>
		<g id="group890-1" transform="translate(7.51875,-4.6875)" v:mID="890" v:groupContext="group" v:layerMember="0">
			<title>Skype for Business Back-End Server Mirror</title>
			<g id="group891-2" v:mID="891" v:groupContext="group" v:layerMember="0">
				<title>Sheet.891</title>
				<g id="group892-3" transform="translate(31.5,-2.55795E-13)" v:mID="892" v:groupContext="group" v:layerMember="0">
					<title>Sheet.892</title>
					<g id="shape893-4" v:mID="893" v:groupContext="shape" v:layerMember="0">
						<title>Sheet.893</title>
						<path d="M26.17 46.5 C26.17 42.3 19.12 40.8 13.05 40.8 C6.97 40.8 0 42.3 0 46.5 L0 47.18 L0 65.85 L0 66.83
									 L0 66.9 C0.38 70.87 5.03 73.12 13.05 73.12 C21.15 73.12 25.8 70.95 26.1 66.9 L26.1 66.83 L26.1
									 65.78 L26.1 47.4 L26.17 46.5 Z" class="st1"/>
					</g>
					<g id="shape894-6" v:mID="894" v:groupContext="shape" v:layerMember="0" transform="translate(2.25,-2.325)">
						<title>Sheet.894</title>
						<path d="M10.87 53.78 C6.6 53.78 2.25 53.03 0 51.38 L0 68.1 L0 69 C0.37 72.82 8.1 73.12 10.8 73.12 C13.5
									 73.12 21.3 72.82 21.6 69 L21.6 68.1 L21.6 51.45 C19.5 53.03 15.15 53.78 10.87 53.78 Z"
								class="st2"/>
					</g>
					<g id="shape895-8" v:mID="895" v:groupContext="shape" v:layerMember="0" transform="translate(2.25,-23.175)">
						<title>Sheet.895</title>
						<ellipse cx="10.875" cy="69.675" rx="10.875" ry="3.45" class="st2"/>
					</g>
				</g>
				<g id="group896-10" transform="translate(-1.57874E-13,-4.5)" v:mID="896" v:groupContext="group" v:layerMember="0">
					<title>Sheet.896</title>
					<g id="shape897-11" v:mID="897" v:groupContext="shape" v:layerMember="0">
						<title>Sheet.897</title>
						<path d="M0 73.12 L0 21.38 C0 18.45 2.33 16.13 5.25 16.13 L26.25 16.13 C29.18 16.13 31.5 18.45 31.5 21.38
									 L31.5 73.12 L0 73.12 Z" class="st1"/>
					</g>
					<g id="shape898-13" v:mID="898" v:groupContext="shape" v:layerMember="0" transform="translate(2.25,-2.25)">
						<title>Sheet.898</title>
						<path d="M24 20.63 L3 20.63 C1.35 20.63 0 21.98 0 23.63 L0 73.12 L27 73.12 L27 23.63 C27 21.98 25.65 20.63
									 24 20.63 ZM21.75 67.12 L5.25 67.12 L5.25 64.88 L21.75 64.88 L21.75 67.12 ZM21.75 60.38 L5.25
									 60.38 L5.25 58.13 L21.75 58.13 L21.75 60.38 ZM21.75 29.63 L5.25 29.63 L5.25 27.38 L21.75 27.38
									 L21.75 29.63 Z" class="st2"/>
					</g>
				</g>
				<g id="group899-15" transform="translate(16.5,-6.75)" v:mID="899" v:groupContext="group" v:layerMember="0">
					<title>Sheet.899</title>
					<g id="shape900-16" v:mID="900" v:groupContext="shape" v:layerMember="0">
						<title>Sheet.900</title>
						<path d="M15.07 58.12 L0 58.12 L0.52 60.82 C1.42 65.4 4.95 68.85 9 69.3 L8.17 70.12 L8.17 73.12 L15.07 73.12
									 L22.57 65.55 L15.07 58.12 Z" class="st1"/>
					</g>
					<g id="shape901-18" v:mID="901" v:groupContext="shape" v:layerMember="0" transform="translate(2.7,-2.25)">
						<title>Sheet.901</title>
						<path d="M11.48 62.62 L7.88 62.62 L11.55 66.45 L7.05 66.45 C5.25 66.45 3.52 64.72 2.93 62.62 L0 62.62 C0.68
									 66.37 3.68 69.3 7.05 69.3 L11.55 69.3 L7.88 73.12 L11.48 73.12 L16.73 67.8 L11.48 62.62 Z"
								class="st2"/>
					</g>
				</g>
				<g id="group902-20" transform="translate(31.5,-37.5)" v:mID="902" v:groupContext="group" v:layerMember="0">
					<title>Sheet.902</title>
					<g id="shape903-21" v:mID="903" v:groupContext="shape" v:layerMember="0">
						<title>Sheet.903</title>
						<path d="M17.92 73.12 C16.72 73.12 15.6 72.9 14.55 72.37 C14.1 72.45 13.65 72.45 13.12 72.45 C6.23 72.45
									 0.68 66.83 0.67 60 C0.68 59.55 0.68 59.1 0.75 58.58 C0.3 57.53 0 56.33 0 55.2 C0 50.63 3.75
									 46.88 8.32 46.88 C9.52 46.88 10.65 47.1 11.7 47.63 C12.15 47.55 12.6 47.55 13.12 47.55 C20.02
									 47.55 25.57 53.18 25.57 60 C25.57 60.45 25.57 60.9 25.5 61.43 C25.95 62.47 26.25 63.68 26.25
									 64.8 C26.25 69.38 22.5 73.12 17.92 73.12 Z" class="st1"/>
					</g>
					<g id="shape904-23" v:mID="904" v:groupContext="shape" v:layerMember="0" transform="translate(2.25,-2.25)">
						<title>Sheet.904</title>
						<path d="M20.92 64.05 C21 63.45 21.07 62.85 21.07 62.25 C21.07 56.63 16.5 52.05 10.87 52.05 C10.27 52.05
									 9.67 52.13 9.07 52.2 C8.17 51.68 7.12 51.38 6.07 51.38 C2.7 51.38 0 54.08 0 57.45 C0 58.58 0.3
									 59.55 0.82 60.45 C0.75 61.05 0.68 61.65 0.67 62.25 C0.68 67.87 5.25 72.45 10.87 72.45 C11.47
									 72.45 12.07 72.37 12.67 72.3 C13.57 72.82 14.62 73.12 15.67 73.12 C19.05 73.12 21.75 70.43 21.75
									 67.05 C21.75 65.93 21.45 64.95 20.92 64.05 ZM15.67 71.55 C14.85 71.55 14.1 71.32 13.42 70.95
									 L12.9 70.65 L12.37 70.73 C11.92 70.8 11.4 70.87 10.87 70.88 C6.08 70.87 2.17 66.97 2.17 62.18
									 C2.17 61.65 2.25 61.13 2.32 60.68 L2.4 60.15 L2.1 59.7 C1.72 59.02 1.5 58.27 1.5 57.45 C1.5
									 54.98 3.52 52.95 6 52.95 C6.83 52.95 7.58 53.18 8.25 53.55 L8.77 53.85 L9.3 53.78 C9.82 53.7
									 10.27 53.63 10.8 53.63 C15.6 53.63 19.5 57.53 19.5 62.33 C19.5 62.85 19.42 63.37 19.35 63.83
									 L19.27 64.35 L19.57 64.88 C19.95 65.55 20.17 66.3 20.17 67.13 C20.17 69.53 18.15 71.55 15.67
									 71.55 Z" class="st3"/>
					</g>
					<g id="shape905-25" v:mID="905" v:groupContext="shape" v:layerMember="0" transform="translate(7.95,-6.9)">
						<title>Sheet.905</title>
						<path d="M7.05 65.93 L4.72 65.4 C3.82 65.17 2.85 64.95 2.85 64.05 C2.85 63.22 3.53 62.63 4.8 62.63 C7.35
									 62.63 7.12 64.43 8.4 64.43 C9.07 64.43 9.67 64.05 9.67 63.38 C9.67 61.8 7.12 60.6 4.95 60.6
									 C2.62 60.6 0.15 61.58 0.15 64.2 C0.15 65.48 0.6 66.82 3.07 67.5 L6.15 68.25 C7.12 68.48 7.35
									 69 7.35 69.53 C7.35 70.35 6.52 71.18 5.1 71.17 C2.33 71.18 2.7 68.92 1.2 68.93 C0.52 68.92 0
									 69.38 0 70.05 C0 71.32 1.57 73.12 5.1 73.12 C8.4 73.12 10.12 71.47 10.12 69.3 C10.2 67.95 9.52
									 66.53 7.05 65.93 Z" class="st3"/>
					</g>
				</g>
			</g>
		</g>
	</g>
</svg>
