<?xml version="1.0" encoding="UTF-8" standalone="no"?>
<!DOCTYPE svg PUBLIC "-//W3C//DTD SVG 1.1//EN" "http://www.w3.org/Graphics/SVG/1.1/DTD/svg11.dtd">
<!-- Generated by Microsoft Visio, SVG Export Skype for Business Mediation Server.svg Page-1 -->
<svg xmlns="http://www.w3.org/2000/svg" xmlns:xlink="http://www.w3.org/1999/xlink" xmlns:ev="http://www.w3.org/2001/xml-events"
		xmlns:v="http://schemas.microsoft.com/visio/2003/SVGExtensions/" width="0.952344in" height="1.04688in"
		viewBox="0 0 68.5688 75.375" xml:space="preserve" color-interpolation-filters="sRGB" class="st4">
	<v:documentProperties v:langID="4108" v:metric="true" v:viewMarkup="false"/>

	<style type="text/css">
	<![CDATA[
		.st1 {fill:#ffffff;stroke:none;stroke-linecap:butt;stroke-width:0.75}
		.st2 {fill:#505150;stroke:none;stroke-linecap:butt;stroke-width:0.75}
		.st3 {fill:#00adeb;stroke:none;stroke-linecap:butt;stroke-width:0.75}
		.st4 {fill:none;fill-rule:evenodd;font-size:12px;overflow:visible;stroke-linecap:square;stroke-miterlimit:3}
	]]>
	</style>

	<g v:mID="0" v:index="1" v:groupContext="foregroundPage">
		<title>Page-1</title>
		<v:pageProperties v:drawingScale="0.0393701" v:pageScale="0.0393701" v:drawingUnits="24" v:shadowOffsetX="8.50394"
				v:shadowOffsetY="-8.50394"/>
		<v:layer v:name="symbols" v:index="0"/>
		<g id="group989-1" transform="translate(7.63125,-6.9375)" v:mID="989" v:groupContext="group" v:layerMember="0">
			<title>Skype for Business Mediation Server</title>
			<g id="group990-2" v:mID="990" v:groupContext="group" v:layerMember="0">
				<title>Sheet.990</title>
				<g id="group991-3" transform="translate(0,-4.5)" v:mID="991" v:groupContext="group" v:layerMember="0">
					<title>Sheet.991</title>
					<g id="group992-4" v:mID="992" v:groupContext="group" v:layerMember="0">
						<title>Sheet.992</title>
						<g id="shape993-5" v:mID="993" v:groupContext="shape" v:layerMember="0">
							<title>Sheet.993</title>
							<path d="M0 75.37 L0 23.62 C0 20.7 2.33 18.37 5.25 18.37 L26.25 18.37 C29.18 18.37 31.5 20.7 31.5 23.62
										 L31.5 75.37 L0 75.37 Z" class="st1"/>
						</g>
						<g id="shape994-7" v:mID="994" v:groupContext="shape" v:layerMember="0" transform="translate(2.25,-2.25)">
							<title>Sheet.994</title>
							<path d="M24 22.87 L3 22.87 C1.35 22.87 0 24.23 0 25.87 L0 75.37 L27 75.37 L27 25.87 C27 24.23 25.65
										 22.87 24 22.87 ZM21.75 69.37 L5.25 69.37 L5.25 67.12 L21.75 67.12 L21.75 69.37 ZM21.75 62.62
										 L5.25 62.62 L5.25 60.37 L21.75 60.37 L21.75 62.62 ZM21.75 31.87 L5.25 31.87 L5.25 29.62
										 L21.75 29.62 L21.75 31.87 Z" class="st2"/>
						</g>
					</g>
					<g id="group995-9" transform="translate(31.5,-33)" v:mID="995" v:groupContext="group" v:layerMember="0">
						<title>Sheet.995</title>
						<g id="shape996-10" v:mID="996" v:groupContext="shape" v:layerMember="0">
							<title>Sheet.996</title>
							<path d="M17.92 75.37 C16.72 75.37 15.6 75.15 14.55 74.62 C14.1 74.7 13.65 74.7 13.12 74.7 C6.23 74.7
										 0.68 69.08 0.67 62.25 C0.68 61.8 0.68 61.35 0.75 60.83 C0.3 59.78 0 58.58 0 57.45 C0 52.88
										 3.75 49.13 8.32 49.13 C9.52 49.13 10.65 49.35 11.7 49.88 C12.15 49.8 12.6 49.8 13.12 49.8
										 C20.02 49.8 25.57 55.43 25.57 62.25 C25.57 62.7 25.57 63.15 25.5 63.68 C25.95 64.73 26.25
										 65.93 26.25 67.05 C26.25 71.63 22.5 75.37 17.92 75.37 Z" class="st1"/>
						</g>
						<g id="shape997-12" v:mID="997" v:groupContext="shape" v:layerMember="0" transform="translate(2.25,-2.25)">
							<title>Sheet.997</title>
							<path d="M20.92 66.3 C21 65.7 21.07 65.1 21.07 64.5 C21.07 58.88 16.5 54.3 10.87 54.3 C10.27 54.3 9.67
										 54.38 9.07 54.45 C8.17 53.93 7.12 53.63 6.07 53.63 C2.7 53.63 0 56.33 0 59.7 C0 60.83 0.3
										 61.8 0.82 62.7 C0.75 63.3 0.68 63.9 0.67 64.5 C0.68 70.12 5.25 74.7 10.87 74.7 C11.47 74.7
										 12.07 74.62 12.67 74.55 C13.57 75.07 14.62 75.37 15.67 75.37 C19.05 75.37 21.75 72.68 21.75
										 69.3 C21.75 68.18 21.45 67.2 20.92 66.3 ZM15.67 73.8 C14.85 73.8 14.1 73.57 13.42 73.2 L12.9
										 72.9 L12.37 72.98 C11.92 73.05 11.4 73.12 10.87 73.13 C6.08 73.12 2.17 69.22 2.17 64.43
										 C2.17 63.9 2.25 63.38 2.32 62.93 L2.4 62.4 L2.1 61.95 C1.72 61.28 1.5 60.53 1.5 59.7 C1.5
										 57.23 3.52 55.2 6 55.2 C6.83 55.2 7.58 55.43 8.25 55.8 L8.77 56.1 L9.3 56.03 C9.82 55.95
										 10.27 55.88 10.8 55.88 C15.6 55.88 19.5 59.78 19.5 64.58 C19.5 65.1 19.42 65.63 19.35 66.08
										 L19.27 66.6 L19.57 67.13 C19.95 67.8 20.17 68.55 20.17 69.38 C20.17 71.78 18.15 73.8 15.67
										 73.8 Z" class="st3"/>
						</g>
						<g id="shape998-14" v:mID="998" v:groupContext="shape" v:layerMember="0" transform="translate(7.95,-6.9)">
							<title>Sheet.998</title>
							<path d="M7.05 68.18 L4.72 67.65 C3.82 67.42 2.85 67.2 2.85 66.3 C2.85 65.48 3.53 64.88 4.8 64.88 C7.35
										 64.88 7.12 66.68 8.4 66.68 C9.07 66.68 9.67 66.3 9.67 65.63 C9.67 64.05 7.12 62.85 4.95
										 62.85 C2.62 62.85 0.15 63.83 0.15 66.45 C0.15 67.73 0.6 69.08 3.07 69.75 L6.15 70.5 C7.12
										 70.73 7.35 71.25 7.35 71.78 C7.35 72.6 6.52 73.43 5.1 73.43 C2.33 73.43 2.7 71.17 1.2 71.18
										 C0.52 71.17 0 71.63 0 72.3 C0 73.57 1.57 75.37 5.1 75.37 C8.4 75.37 10.12 73.72 10.12 71.55
										 C10.2 70.2 9.52 68.78 7.05 68.18 Z" class="st3"/>
						</g>
					</g>
				</g>
				<g id="group999-16" transform="translate(16.725,1.56319E-13)" v:mID="999" v:groupContext="group" v:layerMember="0">
					<title>Sheet.999</title>
					<g id="shape1000-17" v:mID="1000" v:groupContext="shape" v:layerMember="0">
						<title>Sheet.1000</title>
						<path d="M29.77 46.13 L11.77 46.13 C10.73 46.13 9.82 46.5 9.15 47.1 C8.77 46.8 8.33 46.58 7.8 46.43 C6.98
									 46.2 6.53 46.13 5.47 46.13 C4.43 46.13 3.9 46.2 3.07 46.43 C1.28 46.95 0.23 48.3 0.08 50.18
									 C0 50.7 0.08 51.38 0.08 52.5 C0.15 54.08 0.23 56.63 0.23 61.05 C0.23 64.58 0.15 66.83 0.08 68.4
									 C0 69.68 -0 70.5 0.08 71.25 C0.15 73.13 1.35 74.55 3.15 75.07 C3.9 75.3 4.65 75.37 5.4 75.37
									 C6.23 75.37 6.98 75.3 7.8 75.07 C8.33 74.92 8.85 74.7 9.22 74.32 C9.9 74.92 10.8 75.3 11.85
									 75.3 L29.85 75.3 C32.02 75.3 33.6 73.73 33.6 71.55 L33.6 49.88 C33.52 47.7 31.95 46.13 29.77
									 46.13 Z" class="st1"/>
					</g>
					<g id="shape1001-19" v:mID="1001" v:groupContext="shape" v:layerMember="0" transform="translate(2.1,-2.175)">
						<title>Sheet.1001</title>
						<path d="M6.45 52.5 C6.38 51.53 5.85 51 5.03 50.7 C4.5 50.55 4.27 50.48 3.3 50.48 C2.4 50.48 2.17 50.55 1.58
									 50.7 C0.75 51 0.22 51.53 0.15 52.5 C0.07 53.55 0.3 55.73 0.3 63.23 C0.3 69.53 -0 71.85 0.15
									 73.35 C0.23 74.33 0.75 74.85 1.58 75.15 C2.1 75.3 2.62 75.37 3.23 75.37 C3.82 75.37 4.43 75.3
									 4.95 75.15 C5.78 74.93 6.3 74.33 6.38 73.35 C6.45 71.85 6.23 69.75 6.23 63.38 C6.3 55.95 6.53
									 53.63 6.45 52.5 Z" class="st2"/>
					</g>
					<g id="shape1002-21" v:mID="1002" v:groupContext="shape" v:layerMember="0" transform="translate(10.275,-2.25)">
						<title>Sheet.1002</title>
						<path d="M19.5 50.63 L1.5 50.63 C0.52 50.63 0 51.15 0 52.13 L0 73.87 C0 74.85 0.52 75.37 1.5 75.37 L19.5
									 75.37 C20.47 75.37 21 74.85 21 73.87 L21 52.13 C21 51.15 20.47 50.63 19.5 50.63 ZM7.5 70.88
									 C7.5 71.33 7.2 71.63 6.75 71.63 L5.25 71.63 C4.8 71.63 4.5 71.33 4.5 70.88 L4.5 70.13 C4.5 69.68
									 4.8 69.38 5.25 69.38 L6.75 69.38 C7.2 69.38 7.5 69.68 7.5 70.13 L7.5 70.88 ZM7.5 67.13 C7.5
									 67.57 7.2 67.88 6.75 67.88 L5.25 67.88 C4.8 67.88 4.5 67.57 4.5 67.13 L4.5 66.38 C4.5 65.93
									 4.8 65.63 5.25 65.63 L6.75 65.63 C7.2 65.63 7.5 65.93 7.5 66.38 L7.5 67.13 ZM7.5 63.38 C7.5
									 63.82 7.2 64.13 6.75 64.13 L5.25 64.13 C4.8 64.13 4.5 63.82 4.5 63.38 L4.5 62.63 C4.5 62.18
									 4.8 61.87 5.25 61.88 L6.75 61.88 C7.2 61.87 7.5 62.18 7.5 62.63 L7.5 63.38 ZM12 70.88 C12 71.33
									 11.7 71.63 11.25 71.63 L9.75 71.63 C9.3 71.63 9 71.33 9 70.88 L9 70.13 C9 69.68 9.3 69.38 9.75
									 69.38 L11.25 69.38 C11.7 69.38 12 69.68 12 70.13 L12 70.88 ZM12 67.13 C12 67.57 11.7 67.88 11.25
									 67.88 L9.75 67.88 C9.3 67.88 9 67.57 9 67.13 L9 66.38 C9 65.93 9.3 65.63 9.75 65.63 L11.25 65.63
									 C11.7 65.63 12 65.93 12 66.38 L12 67.13 ZM12 63.38 C12 63.82 11.7 64.13 11.25 64.13 L9.75 64.13
									 C9.3 64.13 9 63.82 9 63.38 L9 62.63 C9 62.18 9.3 61.87 9.75 61.88 L11.25 61.88 C11.7 61.87 12
									 62.18 12 62.63 L12 63.38 ZM16.5 70.88 C16.5 71.33 16.2 71.63 15.75 71.63 L14.25 71.63 C13.8
									 71.63 13.5 71.33 13.5 70.88 L13.5 70.13 C13.5 69.68 13.8 69.38 14.25 69.38 L15.75 69.38 C16.2
									 69.38 16.5 69.68 16.5 70.13 L16.5 70.88 ZM16.5 67.13 C16.5 67.57 16.2 67.88 15.75 67.88 L14.25
									 67.88 C13.8 67.88 13.5 67.57 13.5 67.13 L13.5 66.38 C13.5 65.93 13.8 65.63 14.25 65.63 L15.75
									 65.63 C16.2 65.63 16.5 65.93 16.5 66.38 L16.5 67.13 ZM16.5 63.38 C16.5 63.82 16.2 64.13 15.75
									 64.13 L14.25 64.13 C13.8 64.13 13.5 63.82 13.5 63.38 L13.5 62.63 C13.5 62.18 13.8 61.87 14.25
									 61.88 L15.75 61.88 C16.2 61.87 16.5 62.18 16.5 62.63 L16.5 63.38 ZM17.25 58.88 L3.75 58.88 L3.75
									 53.63 L17.25 53.63 L17.25 58.88 Z" class="st2"/>
					</g>
				</g>
			</g>
		</g>
	</g>
</svg>
