<?xml version="1.0" encoding="UTF-8" standalone="no"?>
<!DOCTYPE svg PUBLIC "-//W3C//DTD SVG 1.1//EN" "http://www.w3.org/Graphics/SVG/1.1/DTD/svg11.dtd">
<!-- Generated by Microsoft Visio, SVG Export Skype for Business Server.svg Page-1 -->
<svg xmlns="http://www.w3.org/2000/svg" xmlns:xlink="http://www.w3.org/1999/xlink" xmlns:ev="http://www.w3.org/2001/xml-events"
		xmlns:v="http://schemas.microsoft.com/visio/2003/SVGExtensions/" width="0.942969in" height="1.01563in"
		viewBox="0 0 67.8937 73.125" xml:space="preserve" color-interpolation-filters="sRGB" class="st4">
	<v:documentProperties v:langID="4108" v:metric="true" v:viewMarkup="false"/>

	<style type="text/css">
	<![CDATA[
		.st1 {fill:#ffffff;stroke:none;stroke-linecap:butt;stroke-width:0.75}
		.st2 {fill:#505150;stroke:none;stroke-linecap:butt;stroke-width:0.75}
		.st3 {fill:#00adeb;stroke:none;stroke-linecap:butt;stroke-width:0.75}
		.st4 {fill:none;fill-rule:evenodd;font-size:12px;overflow:visible;stroke-linecap:square;stroke-miterlimit:3}
	]]>
	</style>

	<g v:mID="0" v:index="1" v:groupContext="foregroundPage">
		<title>Page-1</title>
		<v:pageProperties v:drawingScale="0.0393701" v:pageScale="0.0393701" v:drawingUnits="24" v:shadowOffsetX="8.50394"
				v:shadowOffsetY="-8.50394"/>
		<v:layer v:name="symbols" v:index="0"/>
		<g id="group1045-1" transform="translate(7.51875,-6.9375)" v:mID="1045" v:groupContext="group" v:layerMember="0">
			<title>Skype for Business Server</title>
			<g id="group1046-2" v:mID="1046" v:groupContext="group" v:layerMember="0">
				<title>Sheet.1046</title>
				<g id="group1047-3" v:mID="1047" v:groupContext="group" v:layerMember="0">
					<title>Sheet.1047</title>
					<g id="shape1048-4" v:mID="1048" v:groupContext="shape" v:layerMember="0">
						<title>Sheet.1048</title>
						<path d="M0 73.12 L0 21.37 C0 18.45 2.33 16.12 5.25 16.12 L26.25 16.12 C29.18 16.12 31.5 18.45 31.5 21.37
									 L31.5 73.12 L0 73.12 Z" class="st1"/>
					</g>
					<g id="shape1049-6" v:mID="1049" v:groupContext="shape" v:layerMember="0" transform="translate(2.25,-2.25)">
						<title>Sheet.1049</title>
						<path d="M24 20.62 L3 20.62 C1.35 20.62 0 21.97 0 23.62 L0 73.12 L27 73.12 L27 23.62 C27 21.97 25.65 20.62
									 24 20.62 ZM21.75 67.12 L5.25 67.12 L5.25 64.87 L21.75 64.87 L21.75 67.12 ZM21.75 60.37 L5.25
									 60.37 L5.25 58.12 L21.75 58.12 L21.75 60.37 ZM21.75 29.62 L5.25 29.62 L5.25 27.37 L21.75 27.37
									 L21.75 29.62 Z" class="st2"/>
					</g>
				</g>
				<g id="group1050-8" transform="translate(31.5,-33)" v:mID="1050" v:groupContext="group" v:layerMember="0">
					<title>Sheet.1050</title>
					<g id="shape1051-9" v:mID="1051" v:groupContext="shape" v:layerMember="0">
						<title>Sheet.1051</title>
						<path d="M17.92 73.12 C16.72 73.12 15.6 72.9 14.55 72.37 C14.1 72.45 13.65 72.45 13.12 72.45 C6.23 72.45
									 0.68 66.83 0.67 60 C0.68 59.55 0.68 59.1 0.75 58.58 C0.3 57.53 0 56.33 0 55.2 C0 50.63 3.75
									 46.88 8.32 46.88 C9.52 46.88 10.65 47.1 11.7 47.63 C12.15 47.55 12.6 47.55 13.12 47.55 C20.02
									 47.55 25.57 53.18 25.57 60 C25.57 60.45 25.57 60.9 25.5 61.43 C25.95 62.47 26.25 63.68 26.25
									 64.8 C26.25 69.38 22.5 73.12 17.92 73.12 Z" class="st1"/>
					</g>
					<g id="shape1052-11" v:mID="1052" v:groupContext="shape" v:layerMember="0" transform="translate(2.25,-2.25)">
						<title>Sheet.1052</title>
						<path d="M20.92 64.05 C21 63.45 21.07 62.85 21.07 62.25 C21.07 56.63 16.5 52.05 10.87 52.05 C10.27 52.05
									 9.67 52.13 9.07 52.2 C8.17 51.68 7.12 51.38 6.07 51.38 C2.7 51.38 0 54.08 0 57.45 C0 58.58 0.3
									 59.55 0.82 60.45 C0.75 61.05 0.68 61.65 0.67 62.25 C0.68 67.87 5.25 72.45 10.87 72.45 C11.47
									 72.45 12.07 72.37 12.67 72.3 C13.57 72.82 14.62 73.12 15.67 73.12 C19.05 73.12 21.75 70.43 21.75
									 67.05 C21.75 65.93 21.45 64.95 20.92 64.05 ZM15.67 71.55 C14.85 71.55 14.1 71.33 13.42 70.95
									 L12.9 70.65 L12.37 70.73 C11.92 70.8 11.4 70.87 10.87 70.88 C6.08 70.87 2.17 66.97 2.17 62.18
									 C2.17 61.65 2.25 61.13 2.32 60.68 L2.4 60.15 L2.1 59.7 C1.72 59.03 1.5 58.28 1.5 57.45 C1.5
									 54.98 3.52 52.95 6 52.95 C6.83 52.95 7.58 53.18 8.25 53.55 L8.77 53.85 L9.3 53.78 C9.82 53.7
									 10.27 53.63 10.8 53.63 C15.6 53.63 19.5 57.53 19.5 62.33 C19.5 62.85 19.42 63.37 19.35 63.83
									 L19.27 64.35 L19.57 64.88 C19.95 65.55 20.17 66.3 20.17 67.13 C20.17 69.53 18.15 71.55 15.67
									 71.55 Z" class="st3"/>
					</g>
					<g id="shape1053-13" v:mID="1053" v:groupContext="shape" v:layerMember="0" transform="translate(7.95,-6.9)">
						<title>Sheet.1053</title>
						<path d="M7.05 65.93 L4.72 65.4 C3.82 65.17 2.85 64.95 2.85 64.05 C2.85 63.22 3.53 62.63 4.8 62.63 C7.35
									 62.63 7.12 64.43 8.4 64.43 C9.07 64.43 9.67 64.05 9.67 63.38 C9.67 61.8 7.12 60.6 4.95 60.6
									 C2.62 60.6 0.15 61.58 0.15 64.2 C0.15 65.48 0.6 66.82 3.07 67.5 L6.15 68.25 C7.12 68.48 7.35
									 69 7.35 69.53 C7.35 70.35 6.52 71.18 5.1 71.18 C2.33 71.18 2.7 68.92 1.2 68.93 C0.52 68.92 0
									 69.38 0 70.05 C0 71.32 1.57 73.12 5.1 73.12 C8.4 73.12 10.12 71.47 10.12 69.3 C10.2 67.95 9.52
									 66.53 7.05 65.93 Z" class="st3"/>
					</g>
				</g>
			</g>
		</g>
	</g>
</svg>
