<?xml version="1.0" encoding="UTF-8" standalone="no"?>
<!DOCTYPE svg PUBLIC "-//W3C//DTD SVG 1.1//EN" "http://www.w3.org/Graphics/SVG/1.1/DTD/svg11.dtd">
<!-- Generated by Microsoft Visio, SVG Export SQL Server.svg Page-1 -->
<svg xmlns="http://www.w3.org/2000/svg" xmlns:xlink="http://www.w3.org/1999/xlink" xmlns:ev="http://www.w3.org/2001/xml-events"
		xmlns:v="http://schemas.microsoft.com/visio/2003/SVGExtensions/" width="0.828125in" height="1.01562in"
		viewBox="0 0 59.625 73.125" xml:space="preserve" color-interpolation-filters="sRGB" class="st4">
	<v:documentProperties v:langID="4108" v:metric="true" v:viewMarkup="false"/>

	<style type="text/css">
	<![CDATA[
		.st1 {fill:#ffffff;stroke:none;stroke-linecap:butt;stroke-width:0.75}
		.st2 {fill:#515150;stroke:none;stroke-linecap:butt;stroke-width:0.75}
		.st3 {fill:#515050;stroke:none;stroke-linecap:butt;stroke-width:0.75}
		.st4 {fill:none;fill-rule:evenodd;font-size:12px;overflow:visible;stroke-linecap:square;stroke-miterlimit:3}
	]]>
	</style>

	<g v:mID="0" v:index="1" v:groupContext="foregroundPage">
		<title>Page-1</title>
		<v:pageProperties v:drawingScale="0.0393701" v:pageScale="0.0393701" v:drawingUnits="24" v:shadowOffsetX="8.50394"
				v:shadowOffsetY="-8.50394"/>
		<v:layer v:name="symbols" v:index="0"/>
		<g id="group1054-1" transform="translate(7.5,-6.1875)" v:mID="1054" v:groupContext="group" v:layerMember="0">
			<title>SQL Server</title>
			<g id="group1055-2" v:mID="1055" v:groupContext="group" v:layerMember="0">
				<title>Sheet.1055</title>
				<g id="group1056-3" transform="translate(0,-3.75)" v:mID="1056" v:groupContext="group" v:layerMember="0">
					<title>Sheet.1056</title>
					<g id="shape1057-4" v:mID="1057" v:groupContext="shape" v:layerMember="0">
						<title>Sheet.1057</title>
						<path d="M0 73.12 L0 21.37 C-0 18.45 2.33 16.12 5.25 16.12 L26.25 16.12 C29.18 16.12 31.5 18.45 31.5 21.37
									 L31.5 73.12 L0 73.12 Z" class="st1"/>
					</g>
					<g id="shape1058-6" v:mID="1058" v:groupContext="shape" v:layerMember="0" transform="translate(2.25,-2.25)">
						<title>Sheet.1058</title>
						<path d="M24 20.62 L3 20.62 C1.35 20.62 0 21.97 0 23.62 L0 73.12 L27 73.12 L27 23.62 C27 21.97 25.65 20.62
									 24 20.62 ZM21.75 67.12 L5.25 67.12 L5.25 64.87 L21.75 64.87 L21.75 67.12 ZM21.75 60.37 L5.25
									 60.37 L5.25 58.12 L21.75 58.12 L21.75 60.37 ZM21.75 29.62 L5.25 29.62 L5.25 27.37 L21.75 27.37
									 L21.75 29.62 Z" class="st2"/>
					</g>
				</g>
				<g id="group1059-8" transform="translate(18,2.98428E-13)" v:mID="1059" v:groupContext="group" v:layerMember="0">
					<title>Sheet.1059</title>
					<g id="group1060-9" v:mID="1060" v:groupContext="group" v:layerMember="0">
						<title>Sheet.1060</title>
						<g id="shape1061-10" v:mID="1061" v:groupContext="shape" v:layerMember="0">
							<title>Sheet.1061</title>
							<path d="M4.5 73.12 C2.02 73.12 0 71.1 0 68.62 L0 47.62 C0 45.15 2.02 43.12 4.5 43.12 L25.5 43.12 C27.97
										 43.12 30 45.15 30 47.62 L30 68.62 C30 71.1 27.97 73.12 25.5 73.12 L4.5 73.12 Z"
									class="st1"/>
						</g>
						<g id="shape1062-12" v:mID="1062" v:groupContext="shape" v:layerMember="0"
								transform="translate(2.25,-2.25)">
							<title>Sheet.1062</title>
							<path d="M25.5 70.87 C25.5 72.15 24.52 73.12 23.25 73.12 L2.25 73.12 C0.97 73.12 0 72.15 0 70.87 L0 49.87
										 C0 48.6 0.97 47.62 2.25 47.62 L23.25 47.62 C24.52 47.62 25.5 48.6 25.5 49.87 L25.5 70.87
										 Z" class="st3"/>
						</g>
					</g>
					<g id="group1063-14" transform="translate(6.3,-10.95)" v:mID="1063" v:groupContext="group" v:layerMember="0">
						<title>Sheet.1063</title>
						<g id="shape1064-15" v:mID="1064" v:groupContext="shape" v:layerMember="0"
								transform="translate(-8.84293E-14,-0.6)">
							<title>Sheet.1064</title>
							<path d="M4.13 69.6 C3.75 69.22 3.3 68.92 2.85 68.7 C2.18 68.4 1.5 68.17 1.43 67.57 C1.43 67.42 1.5 67.2
										 1.73 67.05 C2.33 66.52 3.6 66.67 4.2 67.12 L4.35 67.2 L4.35 65.92 L4.28 65.92 C3.23 65.4
										 1.43 65.55 0.53 66.45 C0.08 66.9 0 67.35 0 67.8 C0.08 68.77 0.9 69.3 1.73 69.75 C2.25 70.05
										 3.83 70.65 3.08 71.47 C2.4 72.15 0.83 71.77 0.23 71.25 L0.07 71.1 L0.07 72.52 L0.15 72.52
										 C1.05 73.12 2.7 73.05 3.68 72.6 C4.8 72 5.03 70.5 4.13 69.6 C3.98 69.45 4.28 69.75 4.13
										 69.6 Z" class="st1"/>
						</g>
						<g id="shape1065-17" v:mID="1065" v:groupContext="shape" v:layerMember="0" transform="translate(5.325,0)">
							<title>Sheet.1065</title>
							<path d="M6.67 70.35 C7.27 68.92 7.12 66.97 6 65.85 C4.8 64.72 2.78 64.72 1.57 65.7 C0.3 66.75 -0 68.85
										 0.67 70.35 C1.35 71.92 3.15 72.52 4.72 72.15 L5.92 73.12 L7.95 73.12 L5.85 71.62 C6.15 71.25
										 6.45 70.87 6.67 70.35 C6.9 69.9 6.45 70.87 6.67 70.35 ZM3.68 66.22 C6.22 66.22 6.37 70.87
										 3.82 71.1 C1.05 71.32 0.9 66.22 3.68 66.22 Z" class="st1"/>
						</g>
						<g id="shape1066-19" v:mID="1066" v:groupContext="shape" v:layerMember="0"
								transform="translate(13.725,-0.975)">
							<title>Sheet.1066</title>
							<path d="M1.27 72 L1.27 66.15 L0 66.15 L0 73.12 L3.97 73.12 L3.97 72 L1.27 72 Z" class="st1"/>
						</g>
					</g>
				</g>
			</g>
		</g>
	</g>
</svg>
