<?xml version="1.0" encoding="UTF-8" standalone="no"?>
<!DOCTYPE svg PUBLIC "-//W3C//DTD SVG 1.1//EN" "http://www.w3.org/Graphics/SVG/1.1/DTD/svg11.dtd">
<!-- Generated by Microsoft Visio, SVG Export Survivable Branch Appliance.svg Page-1 -->
<svg xmlns="http://www.w3.org/2000/svg" xmlns:xlink="http://www.w3.org/1999/xlink" xmlns:ev="http://www.w3.org/2001/xml-events"
		xmlns:v="http://schemas.microsoft.com/visio/2003/SVGExtensions/" width="0.734375in" height="1.01562in"
		viewBox="0 0 52.875 73.125" xml:space="preserve" color-interpolation-filters="sRGB" class="st4">
	<v:documentProperties v:langID="4108" v:metric="true" v:viewMarkup="false"/>

	<style type="text/css">
	<![CDATA[
		.st1 {fill:#ffffff;stroke:none;stroke-linecap:butt;stroke-width:0.75}
		.st2 {fill:#535352;stroke:none;stroke-linecap:butt;stroke-width:0.75}
		.st3 {fill:#515150;stroke:none;stroke-linecap:butt;stroke-width:0.75}
		.st4 {fill:none;fill-rule:evenodd;font-size:12px;overflow:visible;stroke-linecap:square;stroke-miterlimit:3}
	]]>
	</style>

	<g v:mID="0" v:index="1" v:groupContext="foregroundPage">
		<title>Page-1</title>
		<v:pageProperties v:drawingScale="0.0393701" v:pageScale="0.0393701" v:drawingUnits="24" v:shadowOffsetX="8.50394"
				v:shadowOffsetY="-8.50394"/>
		<v:layer v:name="symbols" v:index="0"/>
		<g id="group1067-1" transform="translate(6.525,-4.6875)" v:mID="1067" v:groupContext="group" v:layerMember="0">
			<title>Survivable Branch Appliance</title>
			<g id="shape1068-2" v:mID="1068" v:groupContext="shape" v:layerMember="0">
				<title>Sheet.1068</title>
				<path d="M41.25 63.37 L27.75 63.37 L27.75 61.87 L24.75 61.87 L24.75 55.87 L16.5 55.87 L16.5 61.87 L13.5 61.87 L13.5
							 63.37 L0 63.37 L0 71.62 L13.5 71.62 L13.5 73.12 L27.75 73.12 L27.75 71.62 L41.25 71.62 L41.25 63.37
							 Z" class="st1"/>
			</g>
			<g id="group1069-4" transform="translate(1.5,-14.25)" v:mID="1069" v:groupContext="group" v:layerMember="0">
				<title>Sheet.1069</title>
				<g id="shape1070-5" v:mID="1070" v:groupContext="shape" v:layerMember="0">
					<title>Sheet.1070</title>
					<path d="M21.75 34.12 L21.75 23.62 L0 23.62 L0 73.12 L37.5 73.12 L37.5 46.12 L35.25 46.12 L35.25 40.12 L33 40.12
								 L33 34.12 L30.75 34.12 L30.75 27.38 L24 27.38 L24 34.12 L21.75 34.12 Z" class="st1"/>
				</g>
				<g id="shape1071-7" v:mID="1071" v:groupContext="shape" v:layerMember="0" transform="translate(2.25,-2.25)">
					<title>Sheet.1071</title>
					<path d="M30.75 50.62 L30.75 44.62 L28.5 44.62 L28.5 38.62 L26.25 38.62 L26.25 31.87 L24 31.87 L24 38.62 L21.75
								 38.62 L21.75 44.62 L19.5 44.62 L19.5 50.62 L17.25 50.62 L17.25 28.12 L0 28.12 L0 73.12 L33 73.12
								 L33 50.62 L30.75 50.62 ZM6.75 62.62 L3.75 62.62 L3.75 59.62 L6.75 59.62 L6.75 62.62 ZM6.75 55.87
								 L3.75 55.87 L3.75 52.87 L6.75 52.87 L6.75 55.87 ZM6.75 49.12 L3.75 49.12 L3.75 46.12 L6.75 46.12
								 L6.75 49.12 ZM6.75 42.37 L3.75 42.37 L3.75 39.37 L6.75 39.37 L6.75 42.37 ZM6.75 35.62 L3.75 35.62
								 L3.75 32.62 L6.75 32.62 L6.75 35.62 ZM13.5 62.62 L10.5 62.62 L10.5 59.62 L13.5 59.62 L13.5 62.62
								 ZM13.5 55.87 L10.5 55.87 L10.5 52.87 L13.5 52.87 L13.5 55.87 ZM13.5 49.12 L10.5 49.12 L10.5 46.12
								 L13.5 46.12 L13.5 49.12 ZM13.5 42.37 L10.5 42.37 L10.5 39.37 L13.5 39.37 L13.5 42.37 ZM13.5 35.62
								 L10.5 35.62 L10.5 32.62 L13.5 32.62 L13.5 35.62 ZM23.25 67.12 L20.25 67.12 L20.25 64.12 L23.25 64.12
								 L23.25 67.12 ZM23.25 56.62 L20.25 56.62 L20.25 53.62 L23.25 53.62 L23.25 56.62 ZM29.25 61.87 L26.25
								 61.87 L26.25 58.87 L29.25 58.87 L29.25 61.87 Z" class="st2"/>
				</g>
			</g>
			<g id="group1072-9" transform="translate(2.25,-2.25)" v:mID="1072" v:groupContext="group" v:layerMember="0">
				<title>Sheet.1072</title>
				<g id="shape1073-10" v:mID="1073" v:groupContext="shape" v:layerMember="0" transform="translate(16.5,-8.25)">
					<title>Sheet.1073</title>
					<rect x="0" y="68.625" width="3.75" height="4.5" class="st3"/>
				</g>
				<g id="shape1074-12" v:mID="1074" v:groupContext="shape" v:layerMember="0" transform="translate(13.5,0)">
					<title>Sheet.1074</title>
					<rect x="0" y="66.375" width="9.75" height="6.75" class="st3"/>
				</g>
				<g id="shape1075-14" v:mID="1075" v:groupContext="shape" v:layerMember="0" transform="translate(24.75,-1.5)">
					<title>Sheet.1075</title>
					<rect x="0" y="69.375" width="12" height="3.75" class="st3"/>
				</g>
				<g id="shape1076-16" v:mID="1076" v:groupContext="shape" v:layerMember="0" transform="translate(0,-1.5)">
					<title>Sheet.1076</title>
					<rect x="0" y="69.375" width="12" height="3.75" class="st3"/>
				</g>
			</g>
		</g>
	</g>
</svg>
