<?xml version="1.0" encoding="UTF-8" standalone="no"?>
<!DOCTYPE svg PUBLIC "-//W3C//DTD SVG 1.1//EN" "http://www.w3.org/Graphics/SVG/1.1/DTD/svg11.dtd">
<!-- Generated by Microsoft Visio, SVG Export Survivable Branch Server.svg Page-1 -->
<svg xmlns="http://www.w3.org/2000/svg" xmlns:xlink="http://www.w3.org/1999/xlink" xmlns:ev="http://www.w3.org/2001/xml-events"
		xmlns:v="http://schemas.microsoft.com/visio/2003/SVGExtensions/" width="0.796875in" height="1.01562in"
		viewBox="0 0 57.375 73.125" xml:space="preserve" color-interpolation-filters="sRGB" class="st3">
	<v:documentProperties v:langID="4108" v:metric="true" v:viewMarkup="false"/>

	<style type="text/css">
	<![CDATA[
		.st1 {fill:#ffffff;stroke:none;stroke-linecap:butt;stroke-width:0.75}
		.st2 {fill:#515050;stroke:none;stroke-linecap:butt;stroke-width:0.75}
		.st3 {fill:none;fill-rule:evenodd;font-size:12px;overflow:visible;stroke-linecap:square;stroke-miterlimit:3}
	]]>
	</style>

	<g v:mID="0" v:index="1" v:groupContext="foregroundPage">
		<title>Page-1</title>
		<v:pageProperties v:drawingScale="0.0393701" v:pageScale="0.0393701" v:drawingUnits="24" v:shadowOffsetX="8.50394"
				v:shadowOffsetY="-8.50394"/>
		<v:layer v:name="symbols" v:index="0"/>
		<g id="group1077-1" transform="translate(6.9375,-6.1875)" v:mID="1077" v:groupContext="group" v:layerMember="0">
			<title>Survivable Branch Server</title>
			<g id="group1078-2" transform="translate(2.29816E-13,-3.75)" v:mID="1078" v:groupContext="group" v:layerMember="0">
				<title>Sheet.1078</title>
				<g id="shape1079-3" v:mID="1079" v:groupContext="shape" v:layerMember="0">
					<title>Sheet.1079</title>
					<path d="M0 73.12 L0 21.37 C-0 18.45 2.32 16.12 5.25 16.12 L26.25 16.12 C29.17 16.12 31.5 18.45 31.5 21.37 L31.5
								 73.12 L0 73.12 Z" class="st1"/>
				</g>
				<g id="shape1080-5" v:mID="1080" v:groupContext="shape" v:layerMember="0" transform="translate(2.25,-2.25)">
					<title>Sheet.1080</title>
					<path d="M24 20.62 L3 20.62 C1.35 20.62 0 21.97 0 23.62 L0 73.12 L27 73.12 L27 23.62 C27 21.97 25.65 20.62 24
								 20.62 ZM21.75 67.12 L5.25 67.12 L5.25 64.87 L21.75 64.87 L21.75 67.12 ZM21.75 60.37 L5.25 60.37
								 L5.25 58.12 L21.75 58.12 L21.75 60.37 ZM21.75 29.62 L5.25 29.62 L5.25 27.37 L21.75 27.37 L21.75
								 29.62 Z" class="st2"/>
				</g>
			</g>
			<g id="group1081-7" transform="translate(21,0)" v:mID="1081" v:groupContext="group" v:layerMember="0">
				<title>Sheet.1081</title>
				<g id="group1082-8" v:mID="1082" v:groupContext="group" v:layerMember="0">
					<title>Sheet.1082</title>
					<g id="shape1083-9" v:mID="1083" v:groupContext="shape" v:layerMember="0">
						<title>Sheet.1083</title>
						<path d="M23.25 46.87 L23.25 43.87 L21.75 43.87 L21.75 40.87 L20.25 40.87 L20.25 37.12 L14.25 37.12 L14.25
									 35.62 L0 35.62 L0 66.37 L0 72.37 L6.75 72.37 L6.75 73.12 L18 73.12 L18 72.37 L24.75 72.37 L24.75
									 66.37 L24.75 46.87 L23.25 46.87 Z" class="st1"/>
					</g>
					<g id="shape1084-11" v:mID="1084" v:groupContext="shape" v:layerMember="0" transform="translate(2.25,-9.75)">
						<title>Sheet.1084</title>
						<path d="M18.75 58.87 L18.75 55.87 L17.25 55.87 L17.25 52.87 L15.75 52.87 L15.75 49.12 L14.25 49.12 L14.25
									 52.87 L12.75 52.87 L12.75 55.87 L11.25 55.87 L11.25 58.87 L9.75 58.87 L9.75 47.62 L0 47.62 L0
									 73.12 L20.25 73.12 L20.25 58.87 L18.75 58.87 ZM3.75 67.87 L2.25 67.87 L2.25 66.37 L3.75 66.37
									 L3.75 67.87 ZM3.75 64.12 L2.25 64.12 L2.25 62.62 L3.75 62.62 L3.75 64.12 ZM3.75 60.37 L2.25
									 60.37 L2.25 58.87 L3.75 58.87 L3.75 60.37 ZM3.75 56.62 L2.25 56.62 L2.25 55.12 L3.75 55.12 L3.75
									 56.62 ZM3.75 52.87 L2.25 52.87 L2.25 51.37 L3.75 51.37 L3.75 52.87 ZM7.5 67.87 L6 67.87 L6 66.37
									 L7.5 66.37 L7.5 67.87 ZM7.5 64.12 L6 64.12 L6 62.62 L7.5 62.62 L7.5 64.12 ZM7.5 60.37 L6 60.37
									 L6 58.87 L7.5 58.87 L7.5 60.37 ZM7.5 56.62 L6 56.62 L6 55.12 L7.5 55.12 L7.5 56.62 ZM7.5 52.87
									 L6 52.87 L6 51.37 L7.5 51.37 L7.5 52.87 ZM14.25 68.62 L12.75 68.62 L12.75 67.12 L14.25 67.12
									 L14.25 68.62 ZM14.25 62.62 L12.75 62.62 L12.75 61.12 L14.25 61.12 L14.25 62.62 ZM17.25 65.62
									 L15.75 65.62 L15.75 64.12 L17.25 64.12 L17.25 65.62 Z" class="st2"/>
					</g>
				</g>
				<g id="shape1085-13" v:mID="1085" v:groupContext="shape" v:layerMember="0" transform="translate(11.25,-6.75)">
					<title>Sheet.1085</title>
					<rect x="0" y="70.875" width="2.25" height="2.25" class="st2"/>
				</g>
				<g id="shape1086-15" v:mID="1086" v:groupContext="shape" v:layerMember="0" transform="translate(9,-2.25)">
					<title>Sheet.1086</title>
					<rect x="0" y="69.375" width="6.75" height="3.75" class="st2"/>
				</g>
				<g id="shape1087-17" v:mID="1087" v:groupContext="shape" v:layerMember="0" transform="translate(17.25,-3)">
					<title>Sheet.1087</title>
					<rect x="0" y="70.875" width="5.25" height="2.25" class="st2"/>
				</g>
				<g id="shape1088-19" v:mID="1088" v:groupContext="shape" v:layerMember="0" transform="translate(2.25,-3)">
					<title>Sheet.1088</title>
					<rect x="0" y="70.875" width="5.25" height="2.25" class="st2"/>
				</g>
			</g>
		</g>
	</g>
</svg>
