<?xml version="1.0" encoding="UTF-8" standalone="no"?>
<!DOCTYPE svg PUBLIC "-//W3C//DTD SVG 1.1//EN" "http://www.w3.org/Graphics/SVG/1.1/DTD/svg11.dtd">
<!-- Generated by Microsoft Visio, SVG Export Topology Builder.svg Page-1 -->
<svg xmlns="http://www.w3.org/2000/svg" xmlns:xlink="http://www.w3.org/1999/xlink" xmlns:ev="http://www.w3.org/2001/xml-events"
		xmlns:v="http://schemas.microsoft.com/visio/2003/SVGExtensions/" width="1.01172in" height="1.01562in"
		viewBox="0 0 72.8437 73.125" xml:space="preserve" color-interpolation-filters="sRGB" class="st4">
	<v:documentProperties v:langID="4108" v:metric="true" v:viewMarkup="false"/>

	<style type="text/css">
	<![CDATA[
		.st1 {fill:#ffffff;stroke:none;stroke-linecap:butt;stroke-width:0.75}
		.st2 {fill:#515150;stroke:none;stroke-linecap:butt;stroke-width:0.75}
		.st3 {fill:#515050;stroke:none;stroke-linecap:butt;stroke-width:0.75}
		.st4 {fill:none;fill-rule:evenodd;font-size:12px;overflow:visible;stroke-linecap:square;stroke-miterlimit:3}
	]]>
	</style>

	<g v:mID="0" v:index="1" v:groupContext="foregroundPage">
		<title>Page-1</title>
		<v:pageProperties v:drawingScale="0.0393701" v:pageScale="0.0393701" v:drawingUnits="24" v:shadowOffsetX="8.50394"
				v:shadowOffsetY="-8.50394"/>
		<v:layer v:name="symbols" v:index="0"/>
		<g id="group1089-1" transform="translate(4.59375,-4.6875)" v:mID="1089" v:groupContext="group" v:layerMember="0">
			<title>Topology Builder</title>
			<g id="group1090-2" v:mID="1090" v:groupContext="group" v:layerMember="0">
				<title>Sheet.1090</title>
				<g id="shape1091-3" v:mID="1091" v:groupContext="shape" v:layerMember="0" transform="translate(43.5,-33.75)">
					<title>Sheet.1091</title>
					<path d="M3 73.12 C2.18 73.12 1.43 72.82 0.9 72.22 C0.3 71.7 0 70.95 0 70.12 C0 69.3 0.3 68.55 0.9 68.02 L3.9
								 65.02 C4.5 64.42 5.25 64.12 6 64.12 C6.75 64.12 7.58 64.42 8.1 65.02 C8.7 65.62 9 66.37 9 67.12
								 C9 67.87 8.7 68.7 8.1 69.22 L5.1 72.22 C4.58 72.82 3.83 73.12 3 73.12 Z" class="st1"/>
				</g>
				<g id="shape1092-5" v:mID="1092" v:groupContext="shape" v:layerMember="0" transform="translate(43.5,-21)">
					<title>Sheet.1092</title>
					<path d="M6 73.12 C5.18 73.12 4.43 72.82 3.9 72.22 L0.9 69.22 C0.3 68.7 0 67.95 0 67.12 C0 66.3 0.3 65.55 0.9
								 65.02 C1.5 64.42 2.25 64.12 3 64.12 C3.75 64.12 4.58 64.42 5.1 65.02 L8.1 68.02 C8.7 68.62 9 69.37
								 9 70.12 C9 70.87 8.7 71.7 8.1 72.22 C7.58 72.82 6.83 73.12 6 73.12 Z" class="st1"/>
				</g>
				<g id="shape1093-7" v:mID="1093" v:groupContext="shape" v:layerMember="0" transform="translate(11.25,-33.75)">
					<title>Sheet.1093</title>
					<path d="M6 73.12 C5.18 73.12 4.43 72.82 3.9 72.22 L0.9 69.22 C0.3 68.7 0 67.95 0 67.12 C0 66.3 0.3 65.55 0.9
								 65.02 C1.5 64.42 2.25 64.12 3 64.12 C3.75 64.12 4.58 64.42 5.1 65.02 L8.1 68.02 C8.7 68.62 9 69.37
								 9 70.12 C9 70.87 8.7 71.7 8.1 72.22 C7.58 72.82 6.83 73.12 6 73.12 Z" class="st1"/>
				</g>
				<g id="shape1094-9" v:mID="1094" v:groupContext="shape" v:layerMember="0" transform="translate(11.25,-21)">
					<title>Sheet.1094</title>
					<path d="M3 73.12 C2.18 73.12 1.43 72.82 0.9 72.22 C0.3 71.7 0 70.95 0 70.12 C0 69.3 0.3 68.55 0.9 68.02 L3.9
								 65.02 C4.5 64.42 5.25 64.12 6 64.12 C6.75 64.12 7.58 64.42 8.1 65.02 C8.7 65.62 9 66.37 9 67.12
								 C9 67.87 8.7 68.7 8.1 69.22 L5.1 72.22 C4.58 72.82 3.83 73.12 3 73.12 Z" class="st1"/>
				</g>
				<g id="group1095-11" transform="translate(3.15747E-13,-39)" v:mID="1095" v:groupContext="group" v:layerMember="0">
					<title>Sheet.1095</title>
					<g id="shape1096-12" v:mID="1096" v:groupContext="shape" v:layerMember="0">
						<title>Sheet.1096</title>
						<path d="M8.25 73.12 C6.52 73.12 5.25 71.77 5.25 69.97 C5.25 69.15 5.47 68.47 5.93 67.87 L3.75 67.87 C1.65
									 67.87 0 66.22 0 64.12 L0 52.12 C0 50.02 1.65 48.37 3.75 48.37 L24.75 48.37 C26.85 48.37 28.5
									 50.02 28.5 52.12 L28.5 64.12 C28.5 66.22 26.85 67.87 24.75 67.87 L22.57 67.87 C23.03 68.4 23.25
									 69.15 23.25 69.97 C23.25 71.77 21.97 73.12 20.25 73.12 L8.25 73.12 Z" class="st1"/>
					</g>
					<g id="shape1097-14" v:mID="1097" v:groupContext="shape" v:layerMember="0" transform="translate(2.25,-2.325)">
						<title>Sheet.1097</title>
						<path d="M22.5 52.95 L1.5 52.95 C0.67 52.95 0 53.62 0 54.45 L0 66.45 C0 67.27 0.67 67.95 1.5 67.95 L9 67.95
									 C9.75 70.2 10.42 71.25 6 71.32 C5.47 71.32 5.25 71.77 5.25 72.22 C5.25 72.75 5.47 73.12 6 73.12
									 L18 73.12 C18.52 73.12 18.75 72.67 18.75 72.22 C18.75 71.7 18.52 71.32 18 71.32 C13.57 71.25
									 14.25 70.2 15 67.95 L22.5 67.95 C23.32 67.95 24 67.27 24 66.45 L24 54.45 C24 53.62 23.32 52.95
									 22.5 52.95 ZM21.75 65.7 L2.25 65.7 L2.25 55.2 L21.75 55.2 L21.75 65.7 Z" class="st2"/>
					</g>
				</g>
				<g id="group1098-16" transform="translate(35.25,-39)" v:mID="1098" v:groupContext="group" v:layerMember="0">
					<title>Sheet.1098</title>
					<g id="shape1099-17" v:mID="1099" v:groupContext="shape" v:layerMember="0">
						<title>Sheet.1099</title>
						<path d="M8.25 73.12 C6.52 73.12 5.25 71.77 5.25 69.97 C5.25 69.15 5.47 68.47 5.93 67.87 L3.75 67.87 C1.65
									 67.87 0 66.22 0 64.12 L0 52.12 C0 50.02 1.65 48.37 3.75 48.37 L24.75 48.37 C26.85 48.37 28.5
									 50.02 28.5 52.12 L28.5 64.12 C28.5 66.22 26.85 67.87 24.75 67.87 L22.57 67.87 C23.03 68.4 23.25
									 69.15 23.25 69.97 C23.25 71.77 21.97 73.12 20.25 73.12 L8.25 73.12 Z" class="st1"/>
					</g>
					<g id="shape1100-19" v:mID="1100" v:groupContext="shape" v:layerMember="0" transform="translate(2.25,-2.325)">
						<title>Sheet.1100</title>
						<path d="M22.5 52.95 L1.5 52.95 C0.67 52.95 0 53.62 0 54.45 L0 66.45 C0 67.27 0.67 67.95 1.5 67.95 L9 67.95
									 C9.75 70.2 10.42 71.25 6 71.32 C5.47 71.32 5.25 71.77 5.25 72.22 C5.25 72.75 5.47 73.12 6 73.12
									 L18 73.12 C18.52 73.12 18.75 72.67 18.75 72.22 C18.75 71.7 18.52 71.32 18 71.32 C13.57 71.25
									 14.25 70.2 15 67.95 L22.5 67.95 C23.32 67.95 24 67.27 24 66.45 L24 54.45 C24 53.62 23.32 52.95
									 22.5 52.95 ZM21.75 65.7 L2.25 65.7 L2.25 55.2 L21.75 55.2 L21.75 65.7 Z" class="st2"/>
					</g>
				</g>
				<g id="group1101-21" v:mID="1101" v:groupContext="group" v:layerMember="0">
					<title>Sheet.1101</title>
					<g id="shape1102-22" v:mID="1102" v:groupContext="shape" v:layerMember="0">
						<title>Sheet.1102</title>
						<path d="M8.25 73.12 C6.52 73.12 5.25 71.77 5.25 69.97 C5.25 69.15 5.47 68.47 5.93 67.87 L3.75 67.87 C1.65
									 67.87 0 66.22 0 64.12 L0 52.12 C0 50.02 1.65 48.37 3.75 48.37 L24.75 48.37 C26.85 48.37 28.5
									 50.02 28.5 52.12 L28.5 64.12 C28.5 66.22 26.85 67.87 24.75 67.87 L22.57 67.87 C23.03 68.4 23.25
									 69.15 23.25 69.97 C23.25 71.77 21.97 73.12 20.25 73.12 L8.25 73.12 Z" class="st1"/>
					</g>
					<g id="shape1103-24" v:mID="1103" v:groupContext="shape" v:layerMember="0" transform="translate(2.25,-2.325)">
						<title>Sheet.1103</title>
						<path d="M22.5 52.95 L1.5 52.95 C0.67 52.95 0 53.62 0 54.45 L0 66.45 C0 67.27 0.67 67.95 1.5 67.95 L9 67.95
									 C9.75 70.2 10.42 71.25 6 71.32 C5.47 71.32 5.25 71.77 5.25 72.22 C5.25 72.75 5.47 73.12 6 73.12
									 L18 73.12 C18.52 73.12 18.75 72.67 18.75 72.22 C18.75 71.7 18.52 71.32 18 71.32 C13.57 71.25
									 14.25 70.2 15 67.95 L22.5 67.95 C23.32 67.95 24 67.27 24 66.45 L24 54.45 C24 53.62 23.32 52.95
									 22.5 52.95 ZM21.75 65.7 L2.25 65.7 L2.25 55.2 L21.75 55.2 L21.75 65.7 Z" class="st2"/>
					</g>
				</g>
				<g id="group1104-26" transform="translate(35.25,3.2685E-13)" v:mID="1104" v:groupContext="group" v:layerMember="0">
					<title>Sheet.1104</title>
					<g id="shape1105-27" v:mID="1105" v:groupContext="shape" v:layerMember="0">
						<title>Sheet.1105</title>
						<path d="M8.25 73.12 C6.52 73.12 5.25 71.77 5.25 69.97 C5.25 69.15 5.47 68.47 5.93 67.87 L3.75 67.87 C1.65
									 67.87 0 66.22 0 64.12 L0 52.12 C0 50.02 1.65 48.37 3.75 48.37 L24.75 48.37 C26.85 48.37 28.5
									 50.02 28.5 52.12 L28.5 64.12 C28.5 66.22 26.85 67.87 24.75 67.87 L22.57 67.87 C23.03 68.4 23.25
									 69.15 23.25 69.97 C23.25 71.77 21.97 73.12 20.25 73.12 L8.25 73.12 Z" class="st1"/>
					</g>
					<g id="shape1106-29" v:mID="1106" v:groupContext="shape" v:layerMember="0" transform="translate(2.25,-2.325)">
						<title>Sheet.1106</title>
						<path d="M22.5 52.95 L1.5 52.95 C0.67 52.95 0 53.62 0 54.45 L0 66.45 C0 67.27 0.67 67.95 1.5 67.95 L9 67.95
									 C9.75 70.2 10.42 71.25 6 71.32 C5.47 71.32 5.25 71.77 5.25 72.22 C5.25 72.75 5.47 73.12 6 73.12
									 L18 73.12 C18.52 73.12 18.75 72.67 18.75 72.22 C18.75 71.7 18.52 71.32 18 71.32 C13.57 71.25
									 14.25 70.2 15 67.95 L22.5 67.95 C23.32 67.95 24 67.27 24 66.45 L24 54.45 C24 53.62 23.32 52.95
									 22.5 52.95 ZM21.75 65.7 L2.25 65.7 L2.25 55.2 L21.75 55.2 L21.75 65.7 Z" class="st2"/>
					</g>
				</g>
				<g id="group1107-31" transform="translate(16.5,-24.75)" v:mID="1107" v:groupContext="group" v:layerMember="0">
					<title>Sheet.1107</title>
					<g id="group1108-32" v:mID="1108" v:groupContext="group" v:layerMember="0">
						<title>Sheet.1108</title>
						<g id="shape1109-33" v:mID="1109" v:groupContext="shape" v:layerMember="0">
							<title>Sheet.1109</title>
							<path d="M0 73.12 L0 63.37 C0 60.97 2.1 58.87 4.5 58.87 L26.25 58.87 C28.65 58.87 30.75 60.97 30.75 63.37
										 L30.75 73.12 L0 73.12 Z" class="st1"/>
						</g>
						<g id="shape1110-35" v:mID="1110" v:groupContext="shape" v:layerMember="0"
								transform="translate(2.25,-2.25)">
							<title>Sheet.1110</title>
							<path d="M13.05 63.37 L2.25 63.37 C1.13 63.37 0 64.5 0 65.62 L0 73.12 L26.25 73.12 L26.25 65.62 C26.25
										 64.5 25.2 63.37 24 63.37 L13.05 63.37 Z" class="st3"/>
						</g>
						<g id="shape1111-37" v:mID="1111" v:groupContext="shape" v:layerMember="0"
								transform="translate(3.75,-3.75)">
							<title>Sheet.1111</title>
							<path d="M0 73.12 L0 67.12 C-0 66.82 0.45 66.37 0.75 66.37 L22.5 66.37 C22.8 66.37 23.25 66.82 23.25
										 67.12 L23.25 73.12 L0 73.12 Z" class="st1"/>
						</g>
					</g>
					<g id="group1112-39" transform="translate(5.25,-5.25)" v:mID="1112" v:groupContext="group" v:layerMember="0">
						<title>Sheet.1112</title>
						<g id="group1113-40" v:mID="1113" v:groupContext="group" v:layerMember="0">
							<title>Sheet.1113</title>
							<g id="shape1114-41" v:mID="1114" v:groupContext="shape" v:layerMember="0">
								<title>Sheet.1114</title>
								<path d="M3.75 73.12 L0.75 73.12 C0.37 73.12 0 72.82 0 72.37 C0 72 0.3 71.62 0.75 71.62 L3.75 71.62
											 C4.12 71.62 4.5 71.92 4.5 72.37 C4.5 72.82 4.2 73.12 3.75 73.12 Z" class="st3"/>
							</g>
							<g id="shape1115-43" v:mID="1115" v:groupContext="shape" v:layerMember="0"
									transform="translate(1.5,-2.25)">
								<title>Sheet.1115</title>
								<ellipse cx="0.75" cy="72.375" rx="0.75" ry="0.75" class="st3"/>
							</g>
						</g>
						<g id="group1116-45" transform="translate(5.25,0)" v:mID="1116" v:groupContext="group" v:layerMember="0">
							<title>Sheet.1116</title>
							<g id="shape1117-46" v:mID="1117" v:groupContext="shape" v:layerMember="0">
								<title>Sheet.1117</title>
								<path d="M3.75 73.12 L0.75 73.12 C0.37 73.12 0 72.82 0 72.37 C0 72 0.3 71.62 0.75 71.62 L3.75 71.62
											 C4.12 71.62 4.5 71.92 4.5 72.37 C4.5 72.82 4.2 73.12 3.75 73.12 Z" class="st3"/>
							</g>
							<g id="shape1118-48" v:mID="1118" v:groupContext="shape" v:layerMember="0"
									transform="translate(1.5,-2.25)">
								<title>Sheet.1118</title>
								<ellipse cx="0.75" cy="72.375" rx="0.75" ry="0.75" class="st3"/>
							</g>
						</g>
						<g id="group1119-50" transform="translate(10.5,0)" v:mID="1119" v:groupContext="group" v:layerMember="0">
							<title>Sheet.1119</title>
							<g id="shape1120-51" v:mID="1120" v:groupContext="shape" v:layerMember="0">
								<title>Sheet.1120</title>
								<path d="M3.75 73.12 L0.75 73.12 C0.37 73.12 0 72.82 0 72.37 C0 72 0.3 71.62 0.75 71.62 L3.75 71.62
											 C4.12 71.62 4.5 71.92 4.5 72.37 C4.5 72.82 4.2 73.12 3.75 73.12 Z" class="st3"/>
							</g>
							<g id="shape1121-53" v:mID="1121" v:groupContext="shape" v:layerMember="0"
									transform="translate(1.5,-2.25)">
								<title>Sheet.1121</title>
								<ellipse cx="0.75" cy="72.375" rx="0.75" ry="0.75" class="st3"/>
							</g>
						</g>
						<g id="group1122-55" transform="translate(15.75,0)" v:mID="1122" v:groupContext="group" v:layerMember="0">
							<title>Sheet.1122</title>
							<g id="shape1123-56" v:mID="1123" v:groupContext="shape" v:layerMember="0">
								<title>Sheet.1123</title>
								<path d="M3.75 73.12 L0.75 73.12 C0.37 73.12 0 72.82 0 72.37 C0 72 0.3 71.62 0.75 71.62 L3.75 71.62
											 C4.12 71.62 4.5 71.92 4.5 72.37 C4.5 72.82 4.2 73.12 3.75 73.12 Z" class="st3"/>
							</g>
							<g id="shape1124-58" v:mID="1124" v:groupContext="shape" v:layerMember="0"
									transform="translate(1.5,-2.25)">
								<title>Sheet.1124</title>
								<ellipse cx="0.75" cy="72.375" rx="0.75" ry="0.75" class="st3"/>
							</g>
						</g>
					</g>
				</g>
				<g id="shape1125-60" v:mID="1125" v:groupContext="shape" v:layerMember="0" transform="translate(45.675,-36)">
					<title>Sheet.1125</title>
					<path d="M0.82 73.12 C0.6 73.12 0.45 73.05 0.3 72.9 C-0 72.6 -0 72.15 0.3 71.85 L3.3 68.85 C3.6 68.55 4.05 68.55
								 4.35 68.85 C4.65 69.15 4.65 69.6 4.35 69.9 L1.35 72.9 C1.2 73.05 1.05 73.12 0.82 73.12 Z"
							class="st3"/>
				</g>
				<g id="shape1126-62" v:mID="1126" v:groupContext="shape" v:layerMember="0" transform="translate(45.675,-23.25)">
					<title>Sheet.1126</title>
					<path d="M3.82 73.12 C3.6 73.12 3.45 73.05 3.3 72.9 L0.3 69.9 C-0 69.6 -0 69.15 0.3 68.85 C0.6 68.55 1.05 68.55
								 1.35 68.85 L4.35 71.85 C4.65 72.15 4.65 72.6 4.35 72.9 C4.2 73.05 4.05 73.12 3.82 73.12 Z"
							class="st3"/>
				</g>
				<g id="shape1127-64" v:mID="1127" v:groupContext="shape" v:layerMember="0" transform="translate(13.425,-36)">
					<title>Sheet.1127</title>
					<path d="M3.82 73.12 C3.6 73.12 3.45 73.05 3.3 72.9 L0.3 69.9 C-0 69.6 -0 69.15 0.3 68.85 C0.6 68.55 1.05 68.55
								 1.35 68.85 L4.35 71.85 C4.65 72.15 4.65 72.6 4.35 72.9 C4.2 73.05 4.05 73.12 3.82 73.12 Z"
							class="st3"/>
				</g>
				<g id="shape1128-66" v:mID="1128" v:groupContext="shape" v:layerMember="0" transform="translate(13.425,-23.25)">
					<title>Sheet.1128</title>
					<path d="M0.82 73.12 C0.6 73.12 0.45 73.05 0.3 72.9 C-0 72.6 -0 72.15 0.3 71.85 L3.3 68.85 C3.6 68.55 4.05 68.55
								 4.35 68.85 C4.65 69.15 4.65 69.6 4.35 69.9 L1.35 72.9 C1.2 73.05 1.05 73.12 0.82 73.12 Z"
							class="st3"/>
				</g>
			</g>
		</g>
	</g>
</svg>
