<?xml version="1.0" encoding="UTF-8" standalone="no"?>
<!DOCTYPE svg PUBLIC "-//W3C//DTD SVG 1.1//EN" "http://www.w3.org/Graphics/SVG/1.1/DTD/svg11.dtd">
<!-- Generated by Microsoft Visio, SVG Export Trusted Application Server.svg Page-1 -->
<svg xmlns="http://www.w3.org/2000/svg" xmlns:xlink="http://www.w3.org/1999/xlink" xmlns:ev="http://www.w3.org/2001/xml-events"
		xmlns:v="http://schemas.microsoft.com/visio/2003/SVGExtensions/" width="0.84375in" height="0.984375in"
		viewBox="0 0 60.75 70.875" xml:space="preserve" color-interpolation-filters="sRGB" class="st4">
	<v:documentProperties v:langID="4108" v:metric="true" v:viewMarkup="false"/>

	<style type="text/css">
	<![CDATA[
		.st1 {fill:#ffffff;stroke:none;stroke-linecap:butt;stroke-width:0.75}
		.st2 {fill:#515251;stroke:none;stroke-linecap:butt;stroke-width:0.75}
		.st3 {fill:#515150;stroke:none;stroke-linecap:butt;stroke-width:0.75}
		.st4 {fill:none;fill-rule:evenodd;font-size:12px;overflow:visible;stroke-linecap:square;stroke-miterlimit:3}
	]]>
	</style>

	<g v:mID="0" v:index="1" v:groupContext="foregroundPage">
		<title>Page-1</title>
		<v:pageProperties v:drawingScale="0.0393701" v:pageScale="0.0393701" v:drawingUnits="24" v:shadowOffsetX="8.50394"
				v:shadowOffsetY="-8.50394"/>
		<v:layer v:name="symbols" v:index="0"/>
		<g id="group1140-1" transform="translate(8.1,-3.5625)" v:mID="1140" v:groupContext="group" v:layerMember="0">
			<title>Trusted Application Server</title>
			<g id="group1141-2" v:mID="1141" v:groupContext="group" v:layerMember="0">
				<title>Sheet.1141</title>
				<g id="group1142-3" transform="translate(-2.43805E-13,-4.5)" v:mID="1142" v:groupContext="group" v:layerMember="0">
					<title>Sheet.1142</title>
					<g id="shape1143-4" v:mID="1143" v:groupContext="shape" v:layerMember="0">
						<title>Sheet.1143</title>
						<path d="M0 70.88 L0 19.13 C-0 16.2 2.33 13.88 5.25 13.88 L26.25 13.88 C29.18 13.88 31.5 16.2 31.5 19.13
									 L31.5 70.88 L0 70.88 Z" class="st1"/>
					</g>
					<g id="shape1144-6" v:mID="1144" v:groupContext="shape" v:layerMember="0" transform="translate(2.25,-2.25)">
						<title>Sheet.1144</title>
						<path d="M24 18.38 L3 18.38 C1.35 18.38 0 19.73 0 21.38 L0 70.88 L27 70.88 L27 21.38 C27 19.73 25.65 18.38
									 24 18.38 ZM21.75 64.88 L5.25 64.88 L5.25 62.63 L21.75 62.63 L21.75 64.88 ZM21.75 58.13 L5.25
									 58.13 L5.25 55.88 L21.75 55.88 L21.75 58.13 ZM21.75 27.38 L5.25 27.38 L5.25 25.13 L21.75 25.13
									 L21.75 27.38 Z" class="st2"/>
					</g>
				</g>
				<g id="group1145-8" transform="translate(18.75,0)" v:mID="1145" v:groupContext="group" v:layerMember="0">
					<title>Sheet.1145</title>
					<g id="shape1146-9" v:mID="1146" v:groupContext="shape" v:layerMember="0">
						<title>Sheet.1146</title>
						<path d="M16.12 70.88 C7.2 70.88 0 63.68 0 54.75 C-0 45.83 7.2 38.63 16.12 38.63 C25.05 38.63 32.25 45.83
									 32.25 54.75 C32.25 63.68 25.05 70.88 16.12 70.88 Z" class="st1"/>
					</g>
					<g id="shape1147-11" v:mID="1147" v:groupContext="shape" v:layerMember="0" transform="translate(2.25,-2.25)">
						<title>Sheet.1147</title>
						<path d="M13.87 43.13 C6.22 43.13 0 49.35 0 57 C-0 64.65 6.22 70.88 13.87 70.88 C21.53 70.88 27.75 64.65
									 27.75 57 C27.75 49.35 21.53 43.13 13.87 43.13 ZM22.57 51.3 L11.92 64.88 L5.4 57.45 C5.25 57.23
									 5.25 56.93 5.4 56.78 L7.13 55.2 C7.27 55.05 7.57 55.05 7.8 55.28 L11.92 59.78 L19.95 49.13 C20.1
									 48.9 20.4 48.9 20.62 49.05 L22.43 50.55 C22.72 50.78 22.73 51.08 22.57 51.3 Z" class="st3"/>
					</g>
				</g>
			</g>
		</g>
	</g>
</svg>
