<?xml version="1.0" encoding="UTF-8" standalone="no"?>
<!DOCTYPE svg PUBLIC "-//W3C//DTD SVG 1.1//EN" "http://www.w3.org/Graphics/SVG/1.1/DTD/svg11.dtd">
<!-- Generated by Microsoft Visio, SVG Export Trusted Application Pool.svg Page-1 -->
<svg xmlns="http://www.w3.org/2000/svg" xmlns:xlink="http://www.w3.org/1999/xlink" xmlns:ev="http://www.w3.org/2001/xml-events"
		xmlns:v="http://schemas.microsoft.com/visio/2003/SVGExtensions/" width="0.90625in" height="0.90625in"
		viewBox="0 0 65.25 65.25" xml:space="preserve" color-interpolation-filters="sRGB" class="st4">
	<v:documentProperties v:langID="4108" v:metric="true" v:viewMarkup="false"/>

	<style type="text/css">
	<![CDATA[
		.st1 {fill:#ffffff;stroke:none;stroke-linecap:butt;stroke-width:0.75}
		.st2 {fill:#515151;stroke:none;stroke-linecap:butt;stroke-width:0.75}
		.st3 {fill:#505150;stroke:none;stroke-linecap:butt;stroke-width:0.75}
		.st4 {fill:none;fill-rule:evenodd;font-size:12px;overflow:visible;stroke-linecap:square;stroke-miterlimit:3}
	]]>
	</style>

	<g v:mID="0" v:index="1" v:groupContext="foregroundPage">
		<title>Page-1</title>
		<v:pageProperties v:drawingScale="0.0393701" v:pageScale="0.0393701" v:drawingUnits="24" v:shadowOffsetX="8.50394"
				v:shadowOffsetY="-8.50394"/>
		<v:layer v:name="symbols" v:index="0"/>
		<g id="group1129-1" transform="translate(0.75,-0.75)" v:mID="1129" v:groupContext="group" v:layerMember="0">
			<title>Trusted Application Pool</title>
			<g id="group1130-2" v:mID="1130" v:groupContext="group" v:layerMember="0">
				<title>Sheet.1130</title>
				<g id="group1131-3" transform="translate(-1.15907E-13,-6.75)" v:mID="1131" v:groupContext="group" v:layerMember="0">
					<title>Sheet.1131</title>
					<g id="shape1132-4" v:mID="1132" v:groupContext="shape" v:layerMember="0">
						<title>Sheet.1132</title>
						<path d="M0 65.25 L0 13.5 C0 10.58 2.32 8.25 5.25 8.25 L26.25 8.25 C29.17 8.25 31.5 10.58 31.5 13.5 L31.5
									 65.25 L0 65.25 Z" class="st1"/>
					</g>
					<g id="shape1133-6" v:mID="1133" v:groupContext="shape" v:layerMember="0" transform="translate(2.25,-2.25)">
						<title>Sheet.1133</title>
						<path d="M24 12.75 L3 12.75 C1.35 12.75 0 14.1 0 15.75 L0 65.25 L27 65.25 L27 15.75 C27 14.1 25.65 12.75
									 24 12.75 ZM21.75 59.25 L5.25 59.25 L5.25 57 L21.75 57 L21.75 59.25 ZM21.75 52.5 L5.25 52.5 L5.25
									 50.25 L21.75 50.25 L21.75 52.5 ZM21.75 21.75 L5.25 21.75 L5.25 19.5 L21.75 19.5 L21.75 21.75
									 Z" class="st2"/>
					</g>
				</g>
				<g id="group1134-8" transform="translate(15.75,1.13687E-13)" v:mID="1134" v:groupContext="group" v:layerMember="0">
					<title>Sheet.1134</title>
					<g id="shape1135-9" v:mID="1135" v:groupContext="shape" v:layerMember="0">
						<title>Sheet.1135</title>
						<path d="M0 65.25 L0 13.5 C-0 10.58 2.32 8.25 5.25 8.25 L26.25 8.25 C29.17 8.25 31.5 10.58 31.5 13.5 L31.5
									 65.25 L0 65.25 Z" class="st1"/>
					</g>
					<g id="shape1136-11" v:mID="1136" v:groupContext="shape" v:layerMember="0" transform="translate(2.25,-2.25)">
						<title>Sheet.1136</title>
						<path d="M24 12.75 L3 12.75 C1.35 12.75 0 14.1 0 15.75 L0 65.25 L27 65.25 L27 15.75 C27 14.1 25.65 12.75
									 24 12.75 ZM21.75 59.25 L5.25 59.25 L5.25 57 L21.75 57 L21.75 59.25 ZM21.75 52.5 L5.25 52.5 L5.25
									 50.25 L21.75 50.25 L21.75 52.5 ZM21.75 21.75 L5.25 21.75 L5.25 19.5 L21.75 19.5 L21.75 21.75
									 Z" class="st2"/>
					</g>
				</g>
				<g id="group1137-13" transform="translate(31.5,-1.13687E-13)" v:mID="1137" v:groupContext="group" v:layerMember="0">
					<title>Sheet.1137</title>
					<g id="shape1138-14" v:mID="1138" v:groupContext="shape" v:layerMember="0">
						<title>Sheet.1138</title>
						<path d="M16.13 65.25 C7.2 65.25 0 58.05 0 49.12 C-0 40.2 7.2 33 16.13 33 C25.05 33 32.25 40.2 32.25 49.12
									 C32.25 58.05 25.05 65.25 16.13 65.25 Z" class="st1"/>
					</g>
					<g id="shape1139-16" v:mID="1139" v:groupContext="shape" v:layerMember="0" transform="translate(2.25,-2.25)">
						<title>Sheet.1139</title>
						<path d="M13.88 37.5 C6.22 37.5 0 43.72 0 51.37 C0 59.03 6.22 65.25 13.88 65.25 C21.53 65.25 27.75 59.03
									 27.75 51.37 C27.75 43.72 21.53 37.5 13.88 37.5 ZM22.58 45.67 L11.93 59.25 L5.4 51.82 C5.25 51.6
									 5.25 51.3 5.4 51.15 L7.13 49.57 C7.27 49.42 7.57 49.42 7.8 49.65 L11.93 54.15 L19.95 43.5 C20.1
									 43.27 20.4 43.27 20.63 43.42 L22.43 44.92 C22.73 45.15 22.73 45.45 22.58 45.67 Z" class="st3"/>
					</g>
				</g>
			</g>
		</g>
	</g>
</svg>
