<?xml version="1.0" encoding="UTF-8" standalone="no"?>
<!DOCTYPE svg PUBLIC "-//W3C//DTD SVG 1.1//EN" "http://www.w3.org/Graphics/SVG/1.1/DTD/svg11.dtd">
<!-- Generated by Microsoft Visio, SVG Export Tunnel, Angled.svg Page-1 -->
<svg xmlns="http://www.w3.org/2000/svg" xmlns:xlink="http://www.w3.org/1999/xlink" xmlns:ev="http://www.w3.org/2001/xml-events"
		xmlns:v="http://schemas.microsoft.com/visio/2003/SVGExtensions/" width="0.875in" height="0.578125in"
		viewBox="0 0 63 41.625" xml:space="preserve" color-interpolation-filters="sRGB" class="st4">
	<v:documentProperties v:langID="4108" v:metric="true" v:viewMarkup="false"/>

	<style type="text/css">
	<![CDATA[
		.st1 {fill:#ffffff;stroke:none;stroke-linecap:butt;stroke-width:0.75}
		.st2 {fill:#515150;stroke:none;stroke-linecap:butt;stroke-width:0.75}
		.st3 {fill:#515150;stroke:none;stroke-linecap:butt;stroke-width:0.750018}
		.st4 {fill:none;fill-rule:evenodd;font-size:12px;overflow:visible;stroke-linecap:square;stroke-miterlimit:3}
	]]>
	</style>

	<g v:mID="0" v:index="1" v:groupContext="foregroundPage">
		<title>Page-1</title>
		<v:pageProperties v:drawingScale="0.0393701" v:pageScale="0.0393701" v:drawingUnits="24" v:shadowOffsetX="8.50394"
				v:shadowOffsetY="-8.50394"/>
		<v:layer v:name="symbols" v:index="0"/>
		<g id="group1148-1" transform="translate(1.5375,-0.7875)" v:mID="1148" v:groupContext="group" v:layerMember="0">
			<title>Tunnel, Angled</title>
			<g id="group1149-2" v:mID="1149" v:groupContext="group" v:layerMember="0">
				<title>Sheet.1149</title>
				<g id="shape1150-3" v:mID="1150" v:groupContext="shape" v:layerMember="0" transform="translate(-2.95763E-13,-1.5)">
					<title>Sheet.1150</title>
					<path d="M56.18 29.02 L49.43 41.62 L3.83 17.17 C0.9 15.6 0 11.55 1.88 8.1 C3.75 4.65 7.58 3.07 10.5 4.65 L56.18
								 29.02 Z" class="st1"/>
				</g>
				<g id="shape1151-5" v:mID="1151" v:groupContext="shape" v:layerMember="0" transform="translate(2.55,-3.9)">
					<title>Sheet.1151</title>
					<path d="M6.9 9 C5.1 8.02 2.55 9.15 1.27 11.55 C0 13.95 0.45 16.65 2.33 17.62 L47.33 41.62 L51.9 33 L6.9 9 Z"
							class="st2"/>
				</g>
				<g id="shape1152-7" v:mID="1152" v:groupContext="shape" v:layerMember="0" transform="translate(45.75,0)">
					<title>Sheet.1152</title>
					<path d="M10.43 27.52 C13.35 29.1 14.18 33.15 12.38 36.6 C10.5 40.05 6.68 41.62 3.75 40.05 C0.83 38.47 -0 34.42
								 1.8 30.97 C3.6 27.52 7.5 25.95 10.43 27.52 Z" class="st1"/>
				</g>
				<g id="shape1153-9" v:mID="1153" v:groupContext="shape" v:layerMember="0"
						transform="translate(38.779,67.9425) rotate(-151.882)">
					<title>Sheet.1153</title>
					<ellipse cx="3.75009" cy="36.7499" rx="3.75009" ry="4.87512" class="st3"/>
				</g>
			</g>
		</g>
	</g>
</svg>
