<?xml version="1.0" encoding="UTF-8" standalone="no"?>
<!DOCTYPE svg PUBLIC "-//W3C//DTD SVG 1.1//EN" "http://www.w3.org/Graphics/SVG/1.1/DTD/svg11.dtd">
<!-- Generated by Microsoft Visio, SVG Export Tunnel, Straight.svg Page-1 -->
<svg xmlns="http://www.w3.org/2000/svg" xmlns:xlink="http://www.w3.org/1999/xlink" xmlns:ev="http://www.w3.org/2001/xml-events"
		xmlns:v="http://schemas.microsoft.com/visio/2003/SVGExtensions/" width="1.0625in" height="0.390625in"
		viewBox="0 0 76.5 28.125" xml:space="preserve" color-interpolation-filters="sRGB" class="st3">
	<v:documentProperties v:langID="4108" v:metric="true" v:viewMarkup="false"/>

	<style type="text/css">
	<![CDATA[
		.st1 {fill:#ffffff;stroke:none;stroke-linecap:butt;stroke-width:0.75}
		.st2 {fill:#515150;stroke:none;stroke-linecap:butt;stroke-width:0.75}
		.st3 {fill:none;fill-rule:evenodd;font-size:12px;overflow:visible;stroke-linecap:square;stroke-miterlimit:3}
	]]>
	</style>

	<g v:mID="0" v:index="1" v:groupContext="foregroundPage">
		<title>Page-1</title>
		<v:pageProperties v:drawingScale="0.0393701" v:pageScale="0.0393701" v:drawingUnits="24" v:shadowOffsetX="8.50394"
				v:shadowOffsetY="-8.50394"/>
		<v:layer v:name="symbols" v:index="0"/>
		<g id="group1154-1" transform="translate(6.5625,-6.9375)" v:mID="1154" v:groupContext="group" v:layerMember="0">
			<title>Tunnel, Straight</title>
			<g id="group1155-2" v:mID="1155" v:groupContext="group" v:layerMember="0">
				<title>Sheet.1155</title>
				<g id="shape1156-3" v:mID="1156" v:groupContext="shape" v:layerMember="0" transform="translate(6,3.55271E-15)">
					<title>Sheet.1156</title>
					<path d="M0 28.13 L0 13.88 L51.75 13.88 C55.05 13.88 57.75 17.1 57.75 21 C57.75 24.9 55.05 28.13 51.75 28.13
								 L0 28.13 Z" class="st1"/>
				</g>
				<g id="shape1157-5" v:mID="1157" v:groupContext="shape" v:layerMember="0" transform="translate(6.75,-2.25)">
					<title>Sheet.1157</title>
					<path d="M51 28.13 C53.1 28.13 54.75 25.95 54.75 23.25 C54.75 20.55 53.1 18.38 51 18.38 L0 18.38 L0 28.13 L51
								 28.13 Z" class="st2"/>
				</g>
				<g id="shape1158-7" v:mID="1158" v:groupContext="shape" v:layerMember="0">
					<title>Sheet.1158</title>
					<path d="M6 28.13 C2.7 28.13 0 24.9 0 21 C0 17.1 2.7 13.88 6 13.88 C9.3 13.88 12 17.1 12 21 C12 24.9 9.3 28.13
								 6 28.13 Z" class="st1"/>
				</g>
				<g id="shape1159-9" v:mID="1159" v:groupContext="shape" v:layerMember="0" transform="translate(2.25,-2.25)">
					<title>Sheet.1159</title>
					<ellipse cx="3.75" cy="23.25" rx="3.75" ry="4.875" class="st2"/>
				</g>
			</g>
		</g>
	</g>
</svg>
