<?xml version="1.0" encoding="UTF-8" standalone="no"?>
<!DOCTYPE svg PUBLIC "-//W3C//DTD SVG 1.1//EN" "http://www.w3.org/Graphics/SVG/1.1/DTD/svg11.dtd">
<!-- Generated by Microsoft Visio, SVG Export Video Interop Server.svg Page-1 -->
<svg xmlns="http://www.w3.org/2000/svg" xmlns:xlink="http://www.w3.org/1999/xlink" xmlns:ev="http://www.w3.org/2001/xml-events"
		xmlns:v="http://schemas.microsoft.com/visio/2003/SVGExtensions/" width="1.025in" height="1.04688in"
		viewBox="0 0 73.8 75.375" xml:space="preserve" color-interpolation-filters="sRGB" class="st4">
	<v:documentProperties v:langID="4108" v:metric="true" v:viewMarkup="false"/>

	<style type="text/css">
	<![CDATA[
		.st1 {fill:#ffffff;stroke:none;stroke-linecap:butt;stroke-width:0.75}
		.st2 {fill:#505050;stroke:none;stroke-linecap:butt;stroke-width:0.75}
		.st3 {fill:#00adeb;stroke:none;stroke-linecap:butt;stroke-width:0.75}
		.st4 {fill:none;fill-rule:evenodd;font-size:12px;overflow:visible;stroke-linecap:square;stroke-miterlimit:3}
	]]>
	</style>

	<g v:mID="0" v:index="1" v:groupContext="foregroundPage">
		<title>Page-1</title>
		<v:pageProperties v:drawingScale="0.0393701" v:pageScale="0.0393701" v:drawingUnits="24" v:shadowOffsetX="8.50394"
				v:shadowOffsetY="-8.50394"/>
		<v:layer v:name="symbols" v:index="0"/>
		<g id="group1160-1" transform="translate(8.4375,-6.9375)" v:mID="1160" v:groupContext="group" v:layerMember="0">
			<title>Video Interop Server</title>
			<g id="group1161-2" v:mID="1161" v:groupContext="group" v:layerMember="0">
				<title>Sheet.1161</title>
				<g id="group1162-3" transform="translate(-1.57874E-13,-3.75)" v:mID="1162" v:groupContext="group" v:layerMember="0">
					<title>Sheet.1162</title>
					<g id="shape1163-4" v:mID="1163" v:groupContext="shape" v:layerMember="0">
						<title>Sheet.1163</title>
						<path d="M0 75.37 L0 23.63 C0 20.7 2.33 18.38 5.25 18.38 L26.25 18.38 C29.18 18.38 31.5 20.7 31.5 23.63 L31.5
									 75.37 L0 75.37 Z" class="st1"/>
					</g>
					<g id="shape1164-6" v:mID="1164" v:groupContext="shape" v:layerMember="0" transform="translate(2.25,-2.25)">
						<title>Sheet.1164</title>
						<path d="M24 22.88 L3 22.88 C1.35 22.88 0 24.23 0 25.88 L0 75.37 L27 75.37 L27 25.88 C27 24.23 25.65 22.88
									 24 22.88 ZM21.75 69.38 L5.25 69.38 L5.25 67.13 L21.75 67.13 L21.75 69.38 ZM21.75 62.63 L5.25
									 62.63 L5.25 60.38 L21.75 60.38 L21.75 62.63 ZM21.75 31.88 L5.25 31.88 L5.25 29.63 L21.75 29.63
									 L21.75 31.88 Z" class="st2"/>
					</g>
				</g>
				<g id="group1165-8" transform="translate(13.5,0)" v:mID="1165" v:groupContext="group" v:layerMember="0">
					<title>Sheet.1165</title>
					<g id="shape1166-9" v:mID="1166" v:groupContext="shape" v:layerMember="0">
						<title>Sheet.1166</title>
						<path d="M10.95 75.37 C8.92 75.37 7.27 73.72 7.27 71.7 C7.27 69.67 8.92 68.02 10.95 68.02 C13.57 68.02 14.77
									 67.8 15.22 67.65 C15.22 67.5 15.15 67.35 15.15 67.12 L4.5 67.12 C2.02 67.13 0 65.1 0 62.62 L0
									 41.62 C0 39.15 2.02 37.13 4.5 37.12 L39 37.12 C41.47 37.13 43.5 39.15 43.5 41.62 L43.5 62.62
									 C43.5 65.1 41.47 67.13 39 67.12 L28.35 67.12 C28.27 67.35 28.27 67.5 28.27 67.65 C28.8 67.8
									 29.92 67.95 32.62 68.02 C34.65 68.02 36.3 69.67 36.3 71.7 C36.3 73.72 34.65 75.37 32.62 75.37
									 L10.95 75.37 Z" class="st1"/>
					</g>
					<g id="shape1167-11" v:mID="1167" v:groupContext="shape" v:layerMember="0" transform="translate(2.25,-2.25)">
						<title>Sheet.1167</title>
						<path d="M36.75 41.62 L2.25 41.62 C0.97 41.63 0 42.6 0 43.87 L0 64.87 C-0 66.15 0.97 67.13 2.25 67.12 L14.7
									 67.12 C15.97 71.63 15.68 72.37 8.77 72.52 C7.95 72.52 7.35 73.2 7.35 73.95 C7.35 74.77 8.02
									 75.37 8.77 75.37 L30.3 75.37 C31.12 75.37 31.72 74.77 31.72 73.95 C31.72 73.12 31.05 72.52 30.3
									 72.52 C23.4 72.37 23.03 71.63 24.3 67.12 L36.75 67.12 C38.02 67.13 39 66.15 39 64.87 L39 43.87
									 C39 42.6 38.02 41.62 36.75 41.62 ZM36 64.12 L3 64.12 L3 44.63 L36 44.63 L36 64.12 Z"
								class="st2"/>
					</g>
				</g>
				<g id="shape1168-13" v:mID="1168" v:groupContext="shape" v:layerMember="0" transform="translate(20.25,-15)">
					<title>Sheet.1168</title>
					<rect x="0" y="58.875" width="30" height="16.5" class="st2"/>
				</g>
				<g id="group1169-15" transform="translate(24.075,-15.75)" v:mID="1169" v:groupContext="group" v:layerMember="0">
					<title>Sheet.1169</title>
					<g id="group1170-16" transform="translate(5.79536E-14,-3.75)" v:mID="1170" v:groupContext="group"
							v:layerMember="0">
						<title>Sheet.1170</title>
						<g id="shape1171-17" v:mID="1171" v:groupContext="shape" v:layerMember="0">
							<title>Sheet.1171</title>
							<path d="M7.95 72.9 C7.8 72.23 7.57 71.85 7.12 71.55 C6.6 71.25 6.3 71.03 6.07 71.03 C6 71.03 5.92 71.03
										 5.85 71.1 C5.7 71.25 5.55 71.33 5.47 71.4 C5.4 71.4 5.4 71.48 5.4 71.48 C5.25 71.55 5.1
										 71.63 4.95 71.62 C4.65 71.7 4.35 71.78 4.12 71.78 C3.82 71.78 3.52 71.7 3.3 71.62 C3.15
										 71.55 3 71.55 2.85 71.48 C2.7 71.4 2.47 71.25 2.32 71.1 C2.25 71.1 2.17 71.03 2.17 71.03
										 C2.02 71.03 1.8 71.18 1.2 71.55 C0.67 71.85 0.52 72.15 0.37 72.9 C0.22 73.5 0.07 74.7 0
										 75.37 L8.4 75.37 C8.25 74.62 8.02 73.42 7.95 72.9 Z" class="st1"/>
						</g>
						<g id="shape1172-19" v:mID="1172" v:groupContext="shape" v:layerMember="0"
								transform="translate(2.025,-4.5)">
							<title>Sheet.1172</title>
							<path d="M2.02 75.37 C0.9 75.37 0 74.33 0 73.12 C0 71.85 0.9 70.87 2.02 70.87 C3.15 70.87 4.05 71.92
										 4.05 73.12 C4.05 74.4 3.22 75.37 2.02 75.37 Z" class="st1"/>
						</g>
					</g>
					<g id="group1173-21" transform="translate(14.175,-3.825)" v:mID="1173" v:groupContext="group" v:layerMember="0">
						<title>Sheet.1173</title>
						<g id="shape1174-22" v:mID="1174" v:groupContext="shape" v:layerMember="0">
							<title>Sheet.1174</title>
							<path d="M8.02 72.97 C7.87 72.3 7.65 71.92 7.2 71.62 C6.67 71.32 6.37 71.1 6.15 71.1 C6.07 71.1 6 71.1
										 5.92 71.17 C5.77 71.32 5.62 71.4 5.55 71.47 C5.47 71.47 5.47 71.55 5.47 71.55 C5.32 71.62
										 5.17 71.7 5.02 71.7 C4.72 71.77 4.42 71.85 4.2 71.85 C3.9 71.85 3.6 71.77 3.37 71.7 C3.22
										 71.62 3.07 71.62 2.92 71.55 C2.77 71.47 2.55 71.32 2.4 71.17 C2.32 71.1 2.25 71.1 2.17 71.1
										 C2.02 71.1 1.8 71.25 1.2 71.62 C0.67 71.92 0.53 72.22 0.37 72.97 C0.22 73.57 0 74.7 0 75.37
										 L8.4 75.37 C8.32 74.7 8.17 73.5 8.02 72.97 Z" class="st1"/>
						</g>
						<g id="shape1175-24" v:mID="1175" v:groupContext="shape" v:layerMember="0"
								transform="translate(2.175,-4.425)">
							<title>Sheet.1175</title>
							<path d="M2.02 75.37 C0.9 75.37 0 74.33 0 73.12 C0 71.85 0.9 70.87 2.02 70.87 C3.15 70.87 4.05 71.92
										 4.05 73.12 C4.05 74.4 3.15 75.37 2.02 75.37 Z" class="st1"/>
						</g>
					</g>
					<g id="group1176-26" transform="translate(6.075,2.84217E-14)" v:mID="1176" v:groupContext="group"
							v:layerMember="0">
						<title>Sheet.1176</title>
						<g id="shape1177-27" v:mID="1177" v:groupContext="shape" v:layerMember="0"
								transform="translate(2.175,-4.2)">
							<title>Sheet.1177</title>
							<path d="M2.93 75.37 C1.35 75.37 0 73.95 0 72.22 C0 70.5 1.35 69.07 2.93 69.07 C4.5 69.07 5.85 70.5 5.85
										 72.22 C5.85 73.95 4.58 75.37 2.93 75.37 Z" class="st2"/>
						</g>
						<g id="shape1178-29" v:mID="1178" v:groupContext="shape" v:layerMember="0">
							<title>Sheet.1178</title>
							<path d="M10.2 75.3 L10.13 74.77 C10.05 74.1 9.9 72.67 9.75 72 C9.6 71.17 9.23 70.5 8.48 70.12 L8.18
										 69.97 C7.73 69.67 7.43 69.52 7.05 69.52 C6.82 69.52 6.6 69.6 6.45 69.67 L6.38 69.75 L6.3
										 69.82 C6.23 69.9 6.23 69.97 6.15 69.97 L6 70.12 L5.93 70.2 C5.85 70.27 5.77 70.27 5.63 70.27
										 C5.47 70.35 5.25 70.35 5.03 70.35 C4.8 70.35 4.65 70.35 4.43 70.27 C4.35 70.2 4.27 70.2
										 4.13 70.12 C4.05 70.05 3.9 69.97 3.83 69.9 L3.75 69.82 L3.68 69.75 C3.53 69.6 3.3 69.6 3.08
										 69.6 C2.7 69.6 2.4 69.75 1.88 70.05 L1.65 70.2 C0.83 70.65 0.53 71.25 0.38 72.07 C0.23 72.75
										 0.08 74.18 0 74.85 L0 75.37 L10.2 75.37 L10.2 75.3 Z" class="st2"/>
						</g>
						<g id="shape1179-31" v:mID="1179" v:groupContext="shape" v:layerMember="0"
								transform="translate(1.05,-0.825)">
							<title>Sheet.1179</title>
							<path d="M8.25 75.37 C8.18 74.62 8.03 73.57 7.88 73.05 C7.73 72.37 7.5 72 7.05 71.7 C6.53 71.4 6.23 71.17
										 6 71.17 C5.93 71.17 5.85 71.17 5.78 71.25 C5.63 71.4 5.48 71.47 5.4 71.55 C5.33 71.55 5.33
										 71.62 5.33 71.62 C5.18 71.7 5.03 71.77 4.88 71.77 C4.58 71.85 4.28 71.92 4.05 71.92 C3.75
										 71.92 3.45 71.85 3.23 71.77 C3.08 71.7 2.93 71.7 2.78 71.62 C2.63 71.55 2.4 71.4 2.25 71.25
										 C2.17 71.25 2.1 71.17 2.1 71.17 C1.95 71.17 1.73 71.32 1.13 71.7 C0.6 72 0.45 72.3 0.3 73.05
										 C0.15 73.57 0 74.7 0 75.37 L8.25 75.37 Z" class="st1"/>
						</g>
						<g id="shape1180-33" v:mID="1180" v:groupContext="shape" v:layerMember="0"
								transform="translate(3.075,-5.1)">
							<title>Sheet.1180</title>
							<path d="M2.02 75.37 C0.9 75.37 0 74.32 0 73.12 C0 71.85 0.9 70.87 2.02 70.87 C3.15 70.87 4.05 71.92
										 4.05 73.12 C4.05 74.32 3.15 75.37 2.02 75.37 Z" class="st1"/>
						</g>
					</g>
				</g>
				<g id="group1181-35" transform="translate(31.5,-37.5)" v:mID="1181" v:groupContext="group" v:layerMember="0">
					<title>Sheet.1181</title>
					<g id="shape1182-36" v:mID="1182" v:groupContext="shape" v:layerMember="0">
						<title>Sheet.1182</title>
						<path d="M17.92 75.37 C16.72 75.37 15.6 75.15 14.55 74.62 C14.1 74.7 13.65 74.7 13.12 74.7 C6.23 74.7 0.68
									 69.08 0.67 62.25 C0.68 61.8 0.68 61.35 0.75 60.83 C0.3 59.78 0 58.58 0 57.45 C0 52.88 3.75 49.13
									 8.32 49.13 C9.52 49.13 10.65 49.35 11.7 49.88 C12.15 49.8 12.6 49.8 13.12 49.8 C20.02 49.8 25.57
									 55.43 25.57 62.25 C25.57 62.7 25.57 63.15 25.5 63.68 C25.95 64.72 26.25 65.93 26.25 67.05 C26.25
									 71.63 22.5 75.37 17.92 75.37 Z" class="st1"/>
					</g>
					<g id="shape1183-38" v:mID="1183" v:groupContext="shape" v:layerMember="0" transform="translate(2.25,-2.25)">
						<title>Sheet.1183</title>
						<path d="M20.92 66.3 C21 65.7 21.07 65.1 21.07 64.5 C21.07 58.88 16.5 54.3 10.87 54.3 C10.27 54.3 9.67 54.38
									 9.07 54.45 C8.17 53.93 7.12 53.63 6.07 53.63 C2.7 53.63 0 56.33 0 59.7 C0 60.83 0.3 61.8 0.82
									 62.7 C0.75 63.3 0.68 63.9 0.67 64.5 C0.68 70.12 5.25 74.7 10.87 74.7 C11.47 74.7 12.07 74.62
									 12.67 74.55 C13.57 75.07 14.62 75.37 15.67 75.37 C19.05 75.37 21.75 72.68 21.75 69.3 C21.75
									 68.18 21.45 67.2 20.92 66.3 ZM15.67 73.8 C14.85 73.8 14.1 73.57 13.42 73.2 L12.9 72.9 L12.37
									 72.98 C11.92 73.05 11.4 73.12 10.87 73.13 C6.08 73.12 2.17 69.22 2.17 64.43 C2.17 63.9 2.25
									 63.38 2.32 62.93 L2.4 62.4 L2.1 61.95 C1.72 61.27 1.5 60.52 1.5 59.7 C1.5 57.23 3.52 55.2 6
									 55.2 C6.83 55.2 7.58 55.43 8.25 55.8 L8.77 56.1 L9.3 56.03 C9.82 55.95 10.27 55.88 10.8 55.88
									 C15.6 55.88 19.5 59.78 19.5 64.58 C19.5 65.1 19.42 65.62 19.35 66.08 L19.27 66.6 L19.57 67.13
									 C19.95 67.8 20.17 68.55 20.17 69.38 C20.17 71.78 18.15 73.8 15.67 73.8 Z" class="st3"/>
					</g>
					<g id="shape1184-40" v:mID="1184" v:groupContext="shape" v:layerMember="0" transform="translate(7.95,-6.9)">
						<title>Sheet.1184</title>
						<path d="M7.05 68.18 L4.72 67.65 C3.82 67.42 2.85 67.2 2.85 66.3 C2.85 65.47 3.53 64.88 4.8 64.88 C7.35 64.88
									 7.12 66.68 8.4 66.68 C9.07 66.68 9.67 66.3 9.67 65.63 C9.67 64.05 7.12 62.85 4.95 62.85 C2.62
									 62.85 0.15 63.83 0.15 66.45 C0.15 67.73 0.6 69.07 3.07 69.75 L6.15 70.5 C7.12 70.73 7.35 71.25
									 7.35 71.78 C7.35 72.6 6.52 73.43 5.1 73.42 C2.33 73.43 2.7 71.17 1.2 71.18 C0.52 71.17 0 71.63
									 0 72.3 C0 73.57 1.57 75.37 5.1 75.37 C8.4 75.37 10.12 73.72 10.12 71.55 C10.2 70.2 9.52 68.78
									 7.05 68.18 Z" class="st3"/>
					</g>
				</g>
			</g>
		</g>
	</g>
</svg>
