<?xml version="1.0" encoding="UTF-8" standalone="no"?>
<!DOCTYPE svg PUBLIC "-//W3C//DTD SVG 1.1//EN" "http://www.w3.org/Graphics/SVG/1.1/DTD/svg11.dtd">
<!-- Generated by Microsoft Visio, SVG Export Virtual Server.svg Page-1 -->
<svg xmlns="http://www.w3.org/2000/svg" xmlns:xlink="http://www.w3.org/1999/xlink" xmlns:ev="http://www.w3.org/2001/xml-events"
		xmlns:v="http://schemas.microsoft.com/visio/2003/SVGExtensions/" width="0.65625in" height="0.953125in"
		viewBox="0 0 47.25 68.625" xml:space="preserve" color-interpolation-filters="sRGB" class="st4">
	<v:documentProperties v:langID="4108" v:metric="true" v:viewMarkup="false"/>

	<style type="text/css">
	<![CDATA[
		.st1 {fill:#ffffff;stroke:none;stroke-linecap:butt;stroke-width:0.75}
		.st2 {fill:#515050;stroke:none;stroke-linecap:butt;stroke-width:0.75}
		.st3 {fill:#515251;stroke:none;stroke-linecap:butt;stroke-width:0.75}
		.st4 {fill:none;fill-rule:evenodd;font-size:12px;overflow:visible;stroke-linecap:square;stroke-miterlimit:3}
	]]>
	</style>

	<g v:mID="0" v:index="1" v:groupContext="foregroundPage">
		<title>Page-1</title>
		<v:pageProperties v:drawingScale="0.0393701" v:pageScale="0.0393701" v:drawingUnits="24" v:shadowOffsetX="8.50394"
				v:shadowOffsetY="-8.50394"/>
		<v:layer v:name="symbols" v:index="0"/>
		<g id="group1185-1" transform="translate(8.0625,-6.1875)" v:mID="1185" v:groupContext="group" v:layerMember="0">
			<title>Virtual Server</title>
			<g id="group1186-2" v:mID="1186" v:groupContext="group" v:layerMember="0">
				<title>Sheet.1186</title>
				<g id="shape1187-3" v:mID="1187" v:groupContext="shape" v:layerMember="0">
					<title>Sheet.1187</title>
					<path d="M0 68.62 L0 17.62 C-0 14.7 2.33 12.37 5.25 12.37 L27 12.37 C29.93 12.38 32.25 14.7 32.25 17.62 L32.25
								 68.62 L0 68.62 Z" class="st1"/>
				</g>
				<g id="shape1188-5" v:mID="1188" v:groupContext="shape" v:layerMember="0" transform="translate(2.475,-51.3)">
					<title>Sheet.1188</title>
					<path d="M23.78 65.92 L21.53 65.92 L21.53 68.17 L23.78 68.17 L23.78 65.92 ZM19.27 65.92 L17.03 65.92 L17.03 68.17
								 L19.27 68.17 L19.27 65.92 ZM14.78 65.92 L12.52 65.92 L12.52 68.17 L14.78 68.17 L14.78 65.92 ZM10.28
								 65.92 L8.03 65.92 L8.03 68.17 L10.28 68.17 L10.28 65.92 ZM5.77 65.92 L3.53 65.92 L3.53 68.17 L5.77
								 68.17 L5.77 65.92 ZM1.35 66.3 C1.35 66.3 1.35 66.3 1.35 66.3 C1.28 66.3 1.28 66.3 1.35 66.3 C1.28
								 66.3 1.28 66.3 1.35 66.3 C1.28 66.3 1.28 66.3 1.35 66.3 C1.28 66.3 1.28 66.3 1.35 66.3 C1.28 66.3
								 1.28 66.3 1.35 66.3 C1.28 66.3 1.28 66.3 1.35 66.3 C1.28 66.3 1.28 66.3 1.35 66.3 C1.28 66.3 1.28
								 66.3 1.35 66.3 C1.28 66.3 1.28 66.3 1.35 66.3 C1.28 66.3 1.28 66.3 1.35 66.3 C1.28 66.3 1.28 66.3
								 1.35 66.3 C1.28 66.3 1.28 66.3 1.35 66.3 C1.28 66.3 1.28 66.3 1.35 66.3 C1.28 66.3 1.28 66.3 1.35
								 66.3 C1.28 66.3 1.28 66.3 1.35 66.3 C1.28 66.3 1.28 66.3 1.35 66.3 C1.28 66.3 1.28 66.3 1.35 66.3
								 C1.28 66.3 1.28 66.3 1.35 66.3 C1.28 66.3 1.28 66.3 1.35 66.3 C1.28 66.3 1.28 66.3 1.35 66.3 C1.28
								 66.3 1.28 66.3 1.28 66.3 C1.28 66.3 1.28 66.3 1.28 66.3 C1.28 66.3 1.28 66.3 1.28 66.3 C1.28 66.3
								 1.28 66.3 1.28 66.3 C1.28 66.3 1.28 66.3 1.28 66.3 C1.28 66.3 1.28 66.3 1.28 66.3 C1.28 66.3 1.28
								 66.3 1.28 66.3 C1.28 66.3 1.28 66.3 1.28 66.3 C1.28 66.3 1.28 66.3 1.28 66.3 C1.28 66.3 1.28 66.3
								 1.28 66.3 C1.28 66.3 1.28 66.3 1.28 66.3 C1.28 66.3 1.28 66.3 1.28 66.3 C1.28 66.3 1.28 66.3 1.28
								 66.3 C1.28 66.3 1.28 66.3 1.28 66.3 C1.28 66.3 1.28 66.3 1.28 66.3 C1.28 66.3 1.28 66.3 1.28 66.3
								 C1.28 66.3 1.28 66.3 1.28 66.3 C1.28 66.3 1.28 66.3 1.28 66.3 C1.28 66.3 1.28 66.3 1.28 66.3 C1.28
								 66.3 1.28 66.3 1.28 66.3 C1.28 66.3 1.28 66.3 1.28 66.3 C1.28 66.3 1.28 66.3 1.28 66.3 C0.67 66.68
								 0.22 67.2 0 67.95 L2.1 68.62 C2.17 68.48 2.33 68.32 2.48 68.17 L1.35 66.3 ZM25.65 66.15 L24.83 68.25
								 C24.98 68.32 25.12 68.47 25.2 68.62 L27.23 67.73 C26.92 67.05 26.4 66.52 25.73 66.22 C25.73 66.22
								 25.73 66.22 25.73 66.22 C25.73 66.15 25.73 66.15 25.65 66.15 C25.73 66.15 25.73 66.15 25.65 66.15
								 C25.73 66.15 25.73 66.15 25.65 66.15 C25.73 66.15 25.73 66.15 25.65 66.15 C25.73 66.15 25.73 66.15
								 25.65 66.15 C25.73 66.15 25.73 66.15 25.65 66.15 C25.73 66.15 25.73 66.15 25.65 66.15 C25.73 66.15
								 25.73 66.15 25.65 66.15 C25.73 66.15 25.73 66.15 25.65 66.15 C25.73 66.15 25.73 66.15 25.65 66.15
								 C25.73 66.15 25.73 66.15 25.65 66.15 C25.73 66.15 25.73 66.15 25.65 66.15 C25.73 66.15 25.73 66.15
								 25.65 66.15 C25.73 66.15 25.73 66.15 25.65 66.15 C25.73 66.15 25.73 66.15 25.65 66.15 C25.73 66.15
								 25.73 66.15 25.65 66.15 C25.73 66.15 25.73 66.15 25.65 66.15 C25.73 66.15 25.73 66.15 25.65 66.15
								 C25.73 66.15 25.73 66.15 25.65 66.15 C25.73 66.15 25.73 66.15 25.65 66.15 C25.73 66.15 25.73 66.15
								 25.65 66.15 C25.73 66.15 25.73 66.15 25.65 66.15 C25.73 66.15 25.73 66.15 25.65 66.15 C25.73 66.15
								 25.73 66.15 25.65 66.15 C25.65 66.15 25.65 66.15 25.65 66.15 C25.65 66.15 25.65 66.15 25.65 66.15
								 C25.65 66.15 25.65 66.15 25.65 66.15 C25.65 66.15 25.65 66.15 25.65 66.15 C25.65 66.15 25.65 66.15
								 25.65 66.15 C25.65 66.15 25.65 66.15 25.65 66.15 C25.65 66.15 25.65 66.15 25.65 66.15 C25.65 66.15
								 25.65 66.15 25.65 66.15 Z" class="st2"/>
				</g>
				<g id="shape1189-7" v:mID="1189" v:groupContext="shape" v:layerMember="0" transform="translate(8.25,-8.25)">
					<title>Sheet.1189</title>
					<path d="M15.75 68.62 L0 68.62 L0 66.37 L15.75 66.37 L15.75 68.62 ZM15.75 62.63 L0 62.63 L0 60.38 L15.75 60.38
								 L15.75 62.63 ZM15.75 31.88 L0 31.88 L0 29.63 L15.75 29.63 L15.75 31.88 Z" class="st3"/>
				</g>
				<g id="group1190-9" transform="translate(2.25,-2.25)" v:mID="1190" v:groupContext="group" v:layerMember="0">
					<title>Sheet.1190</title>
					<g id="shape1191-10" v:mID="1191" v:groupContext="shape" v:layerMember="0" transform="translate(0,-45)">
						<title>Sheet.1191</title>
						<path d="M2.25 66.37 L0 66.37 L0 68.62 L2.25 68.62 L2.25 66.37 Z" class="st2"/>
					</g>
					<g id="shape1192-12" v:mID="1192" v:groupContext="shape" v:layerMember="0" transform="translate(0,-40.5)">
						<title>Sheet.1192</title>
						<path d="M2.25 66.37 L0 66.37 L0 68.62 L2.25 68.62 L2.25 66.37 Z" class="st2"/>
					</g>
					<g id="shape1193-14" v:mID="1193" v:groupContext="shape" v:layerMember="0" transform="translate(0,-36)">
						<title>Sheet.1193</title>
						<path d="M2.25 66.37 L0 66.37 L0 68.62 L2.25 68.62 L2.25 66.37 Z" class="st2"/>
					</g>
					<g id="shape1194-16" v:mID="1194" v:groupContext="shape" v:layerMember="0" transform="translate(0,-31.5)">
						<title>Sheet.1194</title>
						<path d="M2.25 66.37 L0 66.37 L0 68.62 L2.25 68.62 L2.25 66.37 Z" class="st2"/>
					</g>
					<g id="shape1195-18" v:mID="1195" v:groupContext="shape" v:layerMember="0" transform="translate(0,-27)">
						<title>Sheet.1195</title>
						<path d="M2.25 66.37 L0 66.37 L0 68.62 L2.25 68.62 L2.25 66.37 Z" class="st2"/>
					</g>
					<g id="shape1196-20" v:mID="1196" v:groupContext="shape" v:layerMember="0" transform="translate(0,-22.5)">
						<title>Sheet.1196</title>
						<path d="M2.25 66.37 L0 66.37 L0 68.62 L2.25 68.62 L2.25 66.37 Z" class="st2"/>
					</g>
					<g id="shape1197-22" v:mID="1197" v:groupContext="shape" v:layerMember="0" transform="translate(0,-18)">
						<title>Sheet.1197</title>
						<path d="M2.25 66.37 L0 66.37 L0 68.62 L2.25 68.62 L2.25 66.37 Z" class="st2"/>
					</g>
					<g id="shape1198-24" v:mID="1198" v:groupContext="shape" v:layerMember="0" transform="translate(0,-13.5)">
						<title>Sheet.1198</title>
						<path d="M2.25 66.37 L0 66.37 L0 68.62 L2.25 68.62 L2.25 66.37 Z" class="st2"/>
					</g>
					<g id="shape1199-26" v:mID="1199" v:groupContext="shape" v:layerMember="0" transform="translate(0,-9)">
						<title>Sheet.1199</title>
						<path d="M2.25 66.37 L0 66.37 L0 68.62 L2.25 68.62 L2.25 66.37 Z" class="st2"/>
					</g>
					<g id="shape1200-28" v:mID="1200" v:groupContext="shape" v:layerMember="0" transform="translate(0,-4.5)">
						<title>Sheet.1200</title>
						<path d="M2.25 66.37 L0 66.37 L0 68.62 L2.25 68.62 L2.25 66.37 Z" class="st2"/>
					</g>
					<g id="shape1201-30" v:mID="1201" v:groupContext="shape" v:layerMember="0">
						<title>Sheet.1201</title>
						<path d="M2.25 66.37 L0 66.37 L0 68.62 L2.25 68.62 L2.25 66.37 Z" class="st2"/>
					</g>
					<g id="shape1202-32" v:mID="1202" v:groupContext="shape" v:layerMember="0" transform="translate(3.75,0)">
						<title>Sheet.1202</title>
						<path d="M2.25 66.37 L0 66.37 L0 68.62 L2.25 68.62 L2.25 66.37 Z" class="st2"/>
					</g>
					<g id="shape1203-34" v:mID="1203" v:groupContext="shape" v:layerMember="0" transform="translate(8.25,0)">
						<title>Sheet.1203</title>
						<path d="M2.25 66.37 L0 66.37 L0 68.62 L2.25 68.62 L2.25 66.37 Z" class="st2"/>
					</g>
					<g id="shape1204-36" v:mID="1204" v:groupContext="shape" v:layerMember="0" transform="translate(12.75,0)">
						<title>Sheet.1204</title>
						<path d="M2.25 66.37 L0 66.37 L0 68.62 L2.25 68.62 L2.25 66.37 Z" class="st2"/>
					</g>
					<g id="shape1205-38" v:mID="1205" v:groupContext="shape" v:layerMember="0" transform="translate(17.25,0)">
						<title>Sheet.1205</title>
						<path d="M2.25 66.37 L0 66.37 L0 68.62 L2.25 68.62 L2.25 66.37 Z" class="st2"/>
					</g>
					<g id="shape1206-40" v:mID="1206" v:groupContext="shape" v:layerMember="0" transform="translate(21.75,0)">
						<title>Sheet.1206</title>
						<path d="M2.25 66.37 L0 66.37 L0 68.62 L2.25 68.62 L2.25 66.37 Z" class="st2"/>
					</g>
				</g>
				<g id="group1207-42" transform="translate(27.75,-2.25)" v:mID="1207" v:groupContext="group" v:layerMember="0">
					<title>Sheet.1207</title>
					<g id="shape1208-43" v:mID="1208" v:groupContext="shape" v:layerMember="0" transform="translate(0,-45)">
						<title>Sheet.1208</title>
						<path d="M2.25 66.37 L0 66.37 L0 68.62 L2.25 68.62 L2.25 66.37 Z" class="st2"/>
					</g>
					<g id="shape1209-45" v:mID="1209" v:groupContext="shape" v:layerMember="0" transform="translate(0,-40.5)">
						<title>Sheet.1209</title>
						<path d="M2.25 66.37 L0 66.37 L0 68.62 L2.25 68.62 L2.25 66.37 Z" class="st2"/>
					</g>
					<g id="shape1210-47" v:mID="1210" v:groupContext="shape" v:layerMember="0" transform="translate(0,-36)">
						<title>Sheet.1210</title>
						<path d="M2.25 66.37 L0 66.37 L0 68.62 L2.25 68.62 L2.25 66.37 Z" class="st2"/>
					</g>
					<g id="shape1211-49" v:mID="1211" v:groupContext="shape" v:layerMember="0" transform="translate(0,-31.5)">
						<title>Sheet.1211</title>
						<path d="M2.25 66.37 L0 66.37 L0 68.62 L2.25 68.62 L2.25 66.37 Z" class="st2"/>
					</g>
					<g id="shape1212-51" v:mID="1212" v:groupContext="shape" v:layerMember="0" transform="translate(0,-27)">
						<title>Sheet.1212</title>
						<path d="M2.25 66.37 L0 66.37 L0 68.62 L2.25 68.62 L2.25 66.37 Z" class="st2"/>
					</g>
					<g id="shape1213-53" v:mID="1213" v:groupContext="shape" v:layerMember="0" transform="translate(0,-22.5)">
						<title>Sheet.1213</title>
						<path d="M2.25 66.37 L0 66.37 L0 68.62 L2.25 68.62 L2.25 66.37 Z" class="st2"/>
					</g>
					<g id="shape1214-55" v:mID="1214" v:groupContext="shape" v:layerMember="0" transform="translate(0,-18)">
						<title>Sheet.1214</title>
						<path d="M2.25 66.37 L0 66.37 L0 68.62 L2.25 68.62 L2.25 66.37 Z" class="st2"/>
					</g>
					<g id="shape1215-57" v:mID="1215" v:groupContext="shape" v:layerMember="0" transform="translate(0,-13.5)">
						<title>Sheet.1215</title>
						<path d="M2.25 66.37 L0 66.37 L0 68.62 L2.25 68.62 L2.25 66.37 Z" class="st2"/>
					</g>
					<g id="shape1216-59" v:mID="1216" v:groupContext="shape" v:layerMember="0" transform="translate(0,-9)">
						<title>Sheet.1216</title>
						<path d="M2.25 66.37 L0 66.37 L0 68.62 L2.25 68.62 L2.25 66.37 Z" class="st2"/>
					</g>
					<g id="shape1217-61" v:mID="1217" v:groupContext="shape" v:layerMember="0" transform="translate(0,-4.5)">
						<title>Sheet.1217</title>
						<path d="M2.25 66.37 L0 66.37 L0 68.62 L2.25 68.62 L2.25 66.37 Z" class="st2"/>
					</g>
					<g id="shape1218-63" v:mID="1218" v:groupContext="shape" v:layerMember="0">
						<title>Sheet.1218</title>
						<path d="M2.25 66.37 L0 66.37 L0 68.62 L2.25 68.62 L2.25 66.37 Z" class="st2"/>
					</g>
				</g>
			</g>
		</g>
	</g>
</svg>
