<?xml version="1.0" encoding="UTF-8" standalone="no"?>
<!DOCTYPE svg PUBLIC "-//W3C//DTD SVG 1.1//EN" "http://www.w3.org/Graphics/SVG/1.1/DTD/svg11.dtd">
<!-- Generated by Microsoft Visio, SVG Export Virtual Database Server.svg Page-1 -->
<svg xmlns="http://www.w3.org/2000/svg" xmlns:xlink="http://www.w3.org/1999/xlink" xmlns:ev="http://www.w3.org/2001/xml-events"
		xmlns:v="http://schemas.microsoft.com/visio/2003/SVGExtensions/" width="0.8125in" height="0.984375in"
		viewBox="0 0 58.5 70.875" xml:space="preserve" color-interpolation-filters="sRGB" class="st5">
	<v:documentProperties v:langID="4108" v:metric="true" v:viewMarkup="false"/>

	<style type="text/css">
	<![CDATA[
		.st1 {fill:#ffffff;stroke:none;stroke-linecap:butt;stroke-width:0.75}
		.st2 {fill:#515050;stroke:none;stroke-linecap:butt;stroke-width:0.75}
		.st3 {fill:#515251;stroke:none;stroke-linecap:butt;stroke-width:0.75}
		.st4 {fill:#515150;stroke:none;stroke-linecap:butt;stroke-width:0.75}
		.st5 {fill:none;fill-rule:evenodd;font-size:12px;overflow:visible;stroke-linecap:square;stroke-miterlimit:3}
	]]>
	</style>

	<g v:mID="0" v:index="1" v:groupContext="foregroundPage">
		<title>Page-1</title>
		<v:pageProperties v:drawingScale="0.0393701" v:pageScale="0.0393701" v:drawingUnits="24" v:shadowOffsetX="8.50394"
				v:shadowOffsetY="-8.50394"/>
		<v:layer v:name="symbols" v:index="0"/>
		<g id="group1376-1" transform="translate(7.725,-5.4)" v:mID="1376" v:groupContext="group" v:layerMember="0">
			<title>Virtual Database Server</title>
			<g id="group1377-2" v:mID="1377" v:groupContext="group" v:layerMember="0">
				<title>Sheet.1377</title>
				<g id="group1378-3" transform="translate(-2.23821E-13,-3.825)" v:mID="1378" v:groupContext="group"
						v:layerMember="0">
					<title>Sheet.1378</title>
					<g id="shape1379-4" v:mID="1379" v:groupContext="shape" v:layerMember="0">
						<title>Sheet.1379</title>
						<path d="M0 70.87 L0 19.87 C0 16.95 2.33 14.62 5.25 14.62 L27 14.62 C29.93 14.62 32.25 16.95 32.25 19.87
									 L32.25 70.87 L0 70.87 Z" class="st1"/>
					</g>
					<g id="shape1380-6" v:mID="1380" v:groupContext="shape" v:layerMember="0" transform="translate(2.475,-51.3)">
						<title>Sheet.1380</title>
						<path d="M23.78 68.17 L21.53 68.17 L21.53 70.42 L23.78 70.42 L23.78 68.17 ZM19.28 68.17 L17.03 68.17 L17.03
									 70.42 L19.28 70.42 L19.28 68.17 ZM14.78 68.17 L12.53 68.17 L12.53 70.42 L14.78 70.42 L14.78
									 68.17 ZM10.28 68.17 L8.03 68.17 L8.03 70.42 L10.28 70.42 L10.28 68.17 ZM5.77 68.17 L3.53 68.17
									 L3.53 70.42 L5.77 70.42 L5.77 68.17 ZM1.35 68.55 C1.28 68.55 1.28 68.55 1.35 68.55 C1.28 68.55
									 1.28 68.55 1.35 68.55 C1.28 68.55 1.28 68.55 1.35 68.55 C1.28 68.55 1.28 68.55 1.35 68.55 C1.28
									 68.55 1.28 68.55 1.35 68.55 C1.28 68.55 1.28 68.55 1.35 68.55 C1.28 68.55 1.28 68.55 1.35 68.55
									 C1.28 68.55 1.28 68.55 1.35 68.55 C1.28 68.55 1.28 68.55 1.35 68.55 C1.28 68.55 1.28 68.55 1.35
									 68.55 C1.28 68.55 1.28 68.55 1.35 68.55 C1.28 68.55 1.28 68.55 1.35 68.55 C1.28 68.55 1.28 68.55
									 1.35 68.55 C1.28 68.55 1.28 68.55 1.35 68.55 C1.28 68.55 1.28 68.55 1.35 68.55 C1.28 68.55 1.28
									 68.55 1.35 68.55 C1.28 68.55 1.28 68.55 1.35 68.55 C1.28 68.55 1.28 68.55 1.35 68.55 C1.28 68.55
									 1.28 68.55 1.35 68.55 C1.28 68.55 1.28 68.55 1.35 68.55 C1.28 68.55 1.28 68.55 1.28 68.55 C0.68
									 68.92 0.23 69.45 0 70.2 L2.1 70.87 C2.18 70.72 2.33 70.57 2.48 70.42 L1.35 68.55 ZM25.65 68.4
									 L24.83 70.5 C24.98 70.57 25.13 70.72 25.2 70.87 L27.23 69.97 C26.93 69.3 26.4 68.77 25.73 68.47
									 C25.73 68.4 25.73 68.4 25.65 68.4 C25.73 68.4 25.73 68.4 25.65 68.4 C25.73 68.4 25.73 68.4 25.65
									 68.4 C25.73 68.4 25.73 68.4 25.65 68.4 C25.73 68.4 25.73 68.4 25.65 68.4 C25.73 68.4 25.73 68.4
									 25.65 68.4 C25.73 68.4 25.73 68.4 25.65 68.4 C25.73 68.4 25.73 68.4 25.65 68.4 C25.73 68.4 25.73
									 68.4 25.65 68.4 C25.73 68.4 25.73 68.4 25.65 68.4 C25.73 68.4 25.73 68.4 25.65 68.4 C25.73 68.4
									 25.73 68.4 25.65 68.4 C25.73 68.4 25.73 68.4 25.65 68.4 C25.73 68.4 25.73 68.4 25.65 68.4 C25.73
									 68.4 25.73 68.4 25.65 68.4 C25.73 68.4 25.73 68.4 25.65 68.4 C25.73 68.4 25.73 68.4 25.65 68.4
									 C25.73 68.4 25.73 68.4 25.65 68.4 C25.73 68.4 25.73 68.4 25.65 68.4 C25.73 68.4 25.73 68.4 25.65
									 68.4 C25.73 68.4 25.73 68.4 25.65 68.4 C25.73 68.4 25.73 68.4 25.65 68.4 C25.73 68.4 25.73 68.4
									 25.65 68.4 C25.73 68.4 25.73 68.4 25.65 68.4 Z" class="st2"/>
					</g>
					<g id="shape1381-8" v:mID="1381" v:groupContext="shape" v:layerMember="0" transform="translate(8.25,-8.25)">
						<title>Sheet.1381</title>
						<path d="M15.75 70.87 L0 70.87 L0 68.62 L15.75 68.62 L15.75 70.87 ZM15.75 64.87 L0 64.87 L0 62.62 L15.75
									 62.62 L15.75 64.87 ZM15.75 34.12 L0 34.12 L0 31.87 L15.75 31.87 L15.75 34.12 Z" class="st3"/>
					</g>
					<g id="group1382-10" transform="translate(2.25,-2.25)" v:mID="1382" v:groupContext="group" v:layerMember="0">
						<title>Sheet.1382</title>
						<g id="shape1383-11" v:mID="1383" v:groupContext="shape" v:layerMember="0"
								transform="translate(-7.49401E-16,-45)">
							<title>Sheet.1383</title>
							<rect x="0" y="68.625" width="2.25" height="2.25" class="st2"/>
						</g>
						<g id="shape1384-13" v:mID="1384" v:groupContext="shape" v:layerMember="0"
								transform="translate(-7.49401E-16,-40.5)">
							<title>Sheet.1384</title>
							<rect x="0" y="68.625" width="2.25" height="2.25" class="st2"/>
						</g>
						<g id="shape1385-15" v:mID="1385" v:groupContext="shape" v:layerMember="0"
								transform="translate(-7.49401E-16,-36)">
							<title>Sheet.1385</title>
							<rect x="0" y="68.625" width="2.25" height="2.25" class="st2"/>
						</g>
						<g id="shape1386-17" v:mID="1386" v:groupContext="shape" v:layerMember="0"
								transform="translate(-7.49401E-16,-31.5)">
							<title>Sheet.1386</title>
							<rect x="0" y="68.625" width="2.25" height="2.25" class="st2"/>
						</g>
						<g id="shape1387-19" v:mID="1387" v:groupContext="shape" v:layerMember="0"
								transform="translate(-7.49401E-16,-27)">
							<title>Sheet.1387</title>
							<rect x="0" y="68.625" width="2.25" height="2.25" class="st2"/>
						</g>
						<g id="shape1388-21" v:mID="1388" v:groupContext="shape" v:layerMember="0"
								transform="translate(-7.49401E-16,-22.5)">
							<title>Sheet.1388</title>
							<rect x="0" y="68.625" width="2.25" height="2.25" class="st2"/>
						</g>
						<g id="shape1389-23" v:mID="1389" v:groupContext="shape" v:layerMember="0"
								transform="translate(-7.49401E-16,-18)">
							<title>Sheet.1389</title>
							<rect x="0" y="68.625" width="2.25" height="2.25" class="st2"/>
						</g>
						<g id="shape1390-25" v:mID="1390" v:groupContext="shape" v:layerMember="0"
								transform="translate(-7.49401E-16,-13.5)">
							<title>Sheet.1390</title>
							<rect x="0" y="68.625" width="2.25" height="2.25" class="st2"/>
						</g>
						<g id="shape1391-27" v:mID="1391" v:groupContext="shape" v:layerMember="0"
								transform="translate(-7.49401E-16,-9)">
							<title>Sheet.1391</title>
							<rect x="0" y="68.625" width="2.25" height="2.25" class="st2"/>
						</g>
						<g id="shape1392-29" v:mID="1392" v:groupContext="shape" v:layerMember="0"
								transform="translate(-7.49401E-16,-4.5)">
							<title>Sheet.1392</title>
							<rect x="0" y="68.625" width="2.25" height="2.25" class="st2"/>
						</g>
						<g id="shape1393-31" v:mID="1393" v:groupContext="shape" v:layerMember="0">
							<title>Sheet.1393</title>
							<rect x="0" y="68.625" width="2.25" height="2.25" class="st2"/>
						</g>
						<g id="shape1394-33" v:mID="1394" v:groupContext="shape" v:layerMember="0" transform="translate(3.75,0)">
							<title>Sheet.1394</title>
							<rect x="0" y="68.625" width="2.25" height="2.25" class="st2"/>
						</g>
						<g id="shape1395-35" v:mID="1395" v:groupContext="shape" v:layerMember="0" transform="translate(8.25,0)">
							<title>Sheet.1395</title>
							<rect x="0" y="68.625" width="2.25" height="2.25" class="st2"/>
						</g>
						<g id="shape1396-37" v:mID="1396" v:groupContext="shape" v:layerMember="0" transform="translate(12.75,0)">
							<title>Sheet.1396</title>
							<rect x="0" y="68.625" width="2.25" height="2.25" class="st2"/>
						</g>
						<g id="shape1397-39" v:mID="1397" v:groupContext="shape" v:layerMember="0" transform="translate(17.25,0)">
							<title>Sheet.1397</title>
							<rect x="0" y="68.625" width="2.25" height="2.25" class="st2"/>
						</g>
						<g id="shape1398-41" v:mID="1398" v:groupContext="shape" v:layerMember="0" transform="translate(21.75,0)">
							<title>Sheet.1398</title>
							<rect x="0" y="68.625" width="2.25" height="2.25" class="st2"/>
						</g>
					</g>
					<g id="group1399-43" transform="translate(27.75,-2.25)" v:mID="1399" v:groupContext="group" v:layerMember="0">
						<title>Sheet.1399</title>
						<g id="shape1400-44" v:mID="1400" v:groupContext="shape" v:layerMember="0" transform="translate(0,-45)">
							<title>Sheet.1400</title>
							<rect x="0" y="68.625" width="2.25" height="2.25" class="st2"/>
						</g>
						<g id="shape1401-46" v:mID="1401" v:groupContext="shape" v:layerMember="0" transform="translate(0,-40.5)">
							<title>Sheet.1401</title>
							<rect x="0" y="68.625" width="2.25" height="2.25" class="st2"/>
						</g>
						<g id="shape1402-48" v:mID="1402" v:groupContext="shape" v:layerMember="0" transform="translate(0,-36)">
							<title>Sheet.1402</title>
							<rect x="0" y="68.625" width="2.25" height="2.25" class="st2"/>
						</g>
						<g id="shape1403-50" v:mID="1403" v:groupContext="shape" v:layerMember="0" transform="translate(0,-31.5)">
							<title>Sheet.1403</title>
							<rect x="0" y="68.625" width="2.25" height="2.25" class="st2"/>
						</g>
						<g id="shape1404-52" v:mID="1404" v:groupContext="shape" v:layerMember="0" transform="translate(0,-27)">
							<title>Sheet.1404</title>
							<rect x="0" y="68.625" width="2.25" height="2.25" class="st2"/>
						</g>
						<g id="shape1405-54" v:mID="1405" v:groupContext="shape" v:layerMember="0" transform="translate(0,-22.5)">
							<title>Sheet.1405</title>
							<rect x="0" y="68.625" width="2.25" height="2.25" class="st2"/>
						</g>
						<g id="shape1406-56" v:mID="1406" v:groupContext="shape" v:layerMember="0" transform="translate(0,-18)">
							<title>Sheet.1406</title>
							<rect x="0" y="68.625" width="2.25" height="2.25" class="st2"/>
						</g>
						<g id="shape1407-58" v:mID="1407" v:groupContext="shape" v:layerMember="0" transform="translate(0,-13.5)">
							<title>Sheet.1407</title>
							<rect x="0" y="68.625" width="2.25" height="2.25" class="st2"/>
						</g>
						<g id="shape1408-60" v:mID="1408" v:groupContext="shape" v:layerMember="0" transform="translate(0,-9)">
							<title>Sheet.1408</title>
							<rect x="0" y="68.625" width="2.25" height="2.25" class="st2"/>
						</g>
						<g id="shape1409-62" v:mID="1409" v:groupContext="shape" v:layerMember="0" transform="translate(0,-4.5)">
							<title>Sheet.1409</title>
							<rect x="0" y="68.625" width="2.25" height="2.25" class="st2"/>
						</g>
						<g id="shape1410-64" v:mID="1410" v:groupContext="shape" v:layerMember="0">
							<title>Sheet.1410</title>
							<rect x="0" y="68.625" width="2.25" height="2.25" class="st2"/>
						</g>
					</g>
				</g>
				<g id="group1411-66" transform="translate(18.75,0)" v:mID="1411" v:groupContext="group" v:layerMember="0">
					<title>Sheet.1411</title>
					<g id="shape1412-67" v:mID="1412" v:groupContext="shape" v:layerMember="0">
						<title>Sheet.1412</title>
						<path d="M26.25 44.25 C26.25 40.05 19.2 38.55 13.12 38.55 C7.05 38.55 0 40.05 0 44.25 L0 44.92 L0 63.6 L0
									 64.57 L0 64.65 C0.37 68.62 5.02 70.87 13.05 70.87 C21.15 70.87 25.8 68.7 26.1 64.65 L26.1 64.57
									 L26.1 63.52 L26.1 45.15 L26.1 44.25 L26.25 44.25 Z" class="st1"/>
					</g>
					<g id="shape1413-69" v:mID="1413" v:groupContext="shape" v:layerMember="0" transform="translate(2.25,-2.325)">
						<title>Sheet.1413</title>
						<path d="M10.87 51.52 C6.6 51.52 2.25 50.77 0 49.12 L0 65.85 L0 66.75 C0.37 70.57 8.1 70.87 10.8 70.87 C13.5
									 70.87 21.3 70.57 21.6 66.75 L21.6 65.85 L21.6 49.12 C19.57 50.77 15.22 51.52 10.87 51.52 Z"
								class="st4"/>
					</g>
					<g id="shape1414-71" v:mID="1414" v:groupContext="shape" v:layerMember="0" transform="translate(2.25,-23.175)">
						<title>Sheet.1414</title>
						<ellipse cx="10.875" cy="67.425" rx="10.875" ry="3.45" class="st4"/>
					</g>
				</g>
			</g>
		</g>
	</g>
</svg>
