<?xml version="1.0" encoding="UTF-8" standalone="no"?>
<!DOCTYPE svg PUBLIC "-//W3C//DTD SVG 1.1//EN" "http://www.w3.org/Graphics/SVG/1.1/DTD/svg11.dtd">
<!-- Generated by Microsoft Visio, SVG Export Virtual Database Server - blue.svg Page-1 -->
<svg xmlns="http://www.w3.org/2000/svg" xmlns:xlink="http://www.w3.org/1999/xlink" xmlns:ev="http://www.w3.org/2001/xml-events"
		xmlns:v="http://schemas.microsoft.com/visio/2003/SVGExtensions/" width="0.796875in" height="0.984375in"
		viewBox="0 0 57.375 70.875" xml:space="preserve" color-interpolation-filters="sRGB" class="st3">
	<v:documentProperties v:langID="4108" v:metric="true" v:viewMarkup="false"/>

	<style type="text/css">
	<![CDATA[
		.st1 {fill:#ffffff;stroke:none;stroke-linecap:butt;stroke-width:0.75}
		.st2 {fill:#2072b8;stroke:none;stroke-linecap:butt;stroke-width:0.75}
		.st3 {fill:none;fill-rule:evenodd;font-size:12px;overflow:visible;stroke-linecap:square;stroke-miterlimit:3}
	]]>
	</style>

	<g v:mID="0" v:index="1" v:groupContext="foregroundPage">
		<title>Page-1</title>
		<v:pageProperties v:drawingScale="0.0393701" v:pageScale="0.0393701" v:drawingUnits="24" v:shadowOffsetX="8.50394"
				v:shadowOffsetY="-8.50394"/>
		<v:layer v:name="symbols" v:index="0"/>
		<g id="group1415-1" transform="translate(6.75,-5.4)" v:mID="1415" v:groupContext="group" v:layerMember="0">
			<title>Virtual Database Server - blue</title>
			<g id="group1416-2" v:mID="1416" v:groupContext="group" v:layerMember="0">
				<title>Sheet.1416</title>
				<g id="shape1417-3" v:mID="1417" v:groupContext="shape" v:layerMember="0"
						transform="translate(-2.23821E-13,-3.825)">
					<title>Sheet.1417</title>
					<path d="M0 70.87 L0 19.87 C0 16.95 2.33 14.62 5.25 14.62 L27 14.62 C29.93 14.62 32.25 16.95 32.25 19.87 L32.25
								 70.87 L0 70.87 Z" class="st1"/>
				</g>
				<g id="shape1418-5" v:mID="1418" v:groupContext="shape" v:layerMember="0" transform="translate(2.475,-55.125)">
					<title>Sheet.1418</title>
					<path d="M23.77 68.17 L21.53 68.17 L21.53 70.42 L23.77 70.42 L23.77 68.17 ZM19.27 68.17 L17.03 68.17 L17.03 70.42
								 L19.27 70.42 L19.27 68.17 ZM14.78 68.17 L12.52 68.17 L12.52 70.42 L14.78 70.42 L14.78 68.17 ZM10.28
								 68.17 L8.03 68.17 L8.03 70.42 L10.28 70.42 L10.28 68.17 ZM5.77 68.17 L3.53 68.17 L3.53 70.42 L5.77
								 70.42 L5.77 68.17 ZM1.35 68.55 C1.27 68.55 1.27 68.55 1.35 68.55 C1.27 68.55 1.27 68.55 1.35 68.55
								 C1.27 68.55 1.27 68.55 1.35 68.55 C1.27 68.55 1.27 68.55 1.35 68.55 C1.27 68.55 1.27 68.55 1.35
								 68.55 C1.27 68.55 1.27 68.55 1.35 68.55 C1.27 68.55 1.27 68.55 1.35 68.55 C1.27 68.55 1.27 68.55
								 1.35 68.55 C1.27 68.55 1.27 68.55 1.35 68.55 C1.27 68.55 1.27 68.55 1.35 68.55 C1.27 68.55 1.27
								 68.55 1.35 68.55 C1.27 68.55 1.27 68.55 1.35 68.55 C1.27 68.55 1.27 68.55 1.35 68.55 C1.27 68.55
								 1.27 68.55 1.35 68.55 C1.27 68.55 1.27 68.55 1.35 68.55 C1.27 68.55 1.27 68.55 1.35 68.55 C1.27
								 68.55 1.27 68.55 1.35 68.55 C1.27 68.55 1.27 68.55 1.35 68.55 C1.27 68.55 1.27 68.55 1.35 68.55
								 C1.27 68.55 1.27 68.55 1.35 68.55 C1.27 68.55 1.27 68.55 1.27 68.55 C0.67 68.92 0.22 69.45 0 70.2
								 L2.1 70.87 C2.18 70.72 2.33 70.57 2.47 70.42 L1.35 68.55 ZM25.65 68.4 L24.83 70.5 C24.98 70.57 25.12
								 70.72 25.2 70.87 L27.22 69.97 C26.92 69.3 26.4 68.77 25.73 68.47 C25.73 68.4 25.73 68.4 25.65 68.4
								 C25.73 68.4 25.73 68.4 25.65 68.4 C25.73 68.4 25.73 68.4 25.65 68.4 C25.73 68.4 25.73 68.4 25.65
								 68.4 C25.73 68.4 25.73 68.4 25.65 68.4 C25.73 68.4 25.73 68.4 25.65 68.4 C25.73 68.4 25.73 68.4
								 25.65 68.4 C25.73 68.4 25.73 68.4 25.65 68.4 C25.73 68.4 25.73 68.4 25.65 68.4 C25.73 68.4 25.73
								 68.4 25.65 68.4 C25.73 68.4 25.73 68.4 25.65 68.4 C25.73 68.4 25.73 68.4 25.65 68.4 C25.73 68.4
								 25.73 68.4 25.65 68.4 C25.73 68.4 25.73 68.4 25.65 68.4 C25.73 68.4 25.73 68.4 25.65 68.4 C25.73
								 68.4 25.73 68.4 25.65 68.4 C25.73 68.4 25.73 68.4 25.65 68.4 C25.73 68.4 25.73 68.4 25.65 68.4 C25.73
								 68.4 25.73 68.4 25.65 68.4 C25.73 68.4 25.73 68.4 25.65 68.4 C25.73 68.4 25.73 68.4 25.65 68.4 C25.73
								 68.4 25.73 68.4 25.65 68.4 C25.73 68.4 25.73 68.4 25.65 68.4 C25.73 68.4 25.73 68.4 25.65 68.4 Z"
							class="st2"/>
				</g>
				<g id="shape1419-7" v:mID="1419" v:groupContext="shape" v:layerMember="0" transform="translate(8.25,-12.075)">
					<title>Sheet.1419</title>
					<path d="M15.75 70.87 L0 70.87 L0 68.62 L15.75 68.62 L15.75 70.87 ZM15.75 64.87 L0 64.87 L0 62.62 L15.75 62.62
								 L15.75 64.87 ZM15.75 34.12 L0 34.12 L0 31.87 L15.75 31.87 L15.75 34.12 Z" class="st2"/>
				</g>
				<g id="group1420-9" transform="translate(2.25,-6.075)" v:mID="1420" v:groupContext="group" v:layerMember="0">
					<title>Sheet.1420</title>
					<g id="shape1421-10" v:mID="1421" v:groupContext="shape" v:layerMember="0"
							transform="translate(-7.49401E-16,-45)">
						<title>Sheet.1421</title>
						<rect x="0" y="68.625" width="2.25" height="2.25" class="st2"/>
					</g>
					<g id="shape1422-12" v:mID="1422" v:groupContext="shape" v:layerMember="0"
							transform="translate(-7.49401E-16,-40.5)">
						<title>Sheet.1422</title>
						<rect x="0" y="68.625" width="2.25" height="2.25" class="st2"/>
					</g>
					<g id="shape1423-14" v:mID="1423" v:groupContext="shape" v:layerMember="0"
							transform="translate(-7.49401E-16,-36)">
						<title>Sheet.1423</title>
						<rect x="0" y="68.625" width="2.25" height="2.25" class="st2"/>
					</g>
					<g id="shape1424-16" v:mID="1424" v:groupContext="shape" v:layerMember="0"
							transform="translate(-7.49401E-16,-31.5)">
						<title>Sheet.1424</title>
						<rect x="0" y="68.625" width="2.25" height="2.25" class="st2"/>
					</g>
					<g id="shape1425-18" v:mID="1425" v:groupContext="shape" v:layerMember="0"
							transform="translate(-7.49401E-16,-27)">
						<title>Sheet.1425</title>
						<rect x="0" y="68.625" width="2.25" height="2.25" class="st2"/>
					</g>
					<g id="shape1426-20" v:mID="1426" v:groupContext="shape" v:layerMember="0"
							transform="translate(-7.49401E-16,-22.5)">
						<title>Sheet.1426</title>
						<rect x="0" y="68.625" width="2.25" height="2.25" class="st2"/>
					</g>
					<g id="shape1427-22" v:mID="1427" v:groupContext="shape" v:layerMember="0"
							transform="translate(-7.49401E-16,-18)">
						<title>Sheet.1427</title>
						<rect x="0" y="68.625" width="2.25" height="2.25" class="st2"/>
					</g>
					<g id="shape1428-24" v:mID="1428" v:groupContext="shape" v:layerMember="0"
							transform="translate(-7.49401E-16,-13.5)">
						<title>Sheet.1428</title>
						<rect x="0" y="68.625" width="2.25" height="2.25" class="st2"/>
					</g>
					<g id="shape1429-26" v:mID="1429" v:groupContext="shape" v:layerMember="0"
							transform="translate(-7.49401E-16,-9)">
						<title>Sheet.1429</title>
						<rect x="0" y="68.625" width="2.25" height="2.25" class="st2"/>
					</g>
					<g id="shape1430-28" v:mID="1430" v:groupContext="shape" v:layerMember="0"
							transform="translate(-7.49401E-16,-4.5)">
						<title>Sheet.1430</title>
						<rect x="0" y="68.625" width="2.25" height="2.25" class="st2"/>
					</g>
					<g id="shape1431-30" v:mID="1431" v:groupContext="shape" v:layerMember="0">
						<title>Sheet.1431</title>
						<rect x="0" y="68.625" width="2.25" height="2.25" class="st2"/>
					</g>
					<g id="shape1432-32" v:mID="1432" v:groupContext="shape" v:layerMember="0" transform="translate(3.75,0)">
						<title>Sheet.1432</title>
						<rect x="0" y="68.625" width="2.25" height="2.25" class="st2"/>
					</g>
					<g id="shape1433-34" v:mID="1433" v:groupContext="shape" v:layerMember="0" transform="translate(8.25,0)">
						<title>Sheet.1433</title>
						<rect x="0" y="68.625" width="2.25" height="2.25" class="st2"/>
					</g>
					<g id="shape1434-36" v:mID="1434" v:groupContext="shape" v:layerMember="0" transform="translate(12.75,0)">
						<title>Sheet.1434</title>
						<rect x="0" y="68.625" width="2.25" height="2.25" class="st2"/>
					</g>
					<g id="shape1435-38" v:mID="1435" v:groupContext="shape" v:layerMember="0" transform="translate(17.25,0)">
						<title>Sheet.1435</title>
						<rect x="0" y="68.625" width="2.25" height="2.25" class="st2"/>
					</g>
					<g id="shape1436-40" v:mID="1436" v:groupContext="shape" v:layerMember="0" transform="translate(21.75,0)">
						<title>Sheet.1436</title>
						<rect x="0" y="68.625" width="2.25" height="2.25" class="st2"/>
					</g>
				</g>
				<g id="group1437-42" transform="translate(27.75,-6.075)" v:mID="1437" v:groupContext="group" v:layerMember="0">
					<title>Sheet.1437</title>
					<g id="shape1438-43" v:mID="1438" v:groupContext="shape" v:layerMember="0" transform="translate(0,-45)">
						<title>Sheet.1438</title>
						<rect x="0" y="68.625" width="2.25" height="2.25" class="st2"/>
					</g>
					<g id="shape1439-45" v:mID="1439" v:groupContext="shape" v:layerMember="0" transform="translate(0,-40.5)">
						<title>Sheet.1439</title>
						<rect x="0" y="68.625" width="2.25" height="2.25" class="st2"/>
					</g>
					<g id="shape1440-47" v:mID="1440" v:groupContext="shape" v:layerMember="0" transform="translate(0,-36)">
						<title>Sheet.1440</title>
						<rect x="0" y="68.625" width="2.25" height="2.25" class="st2"/>
					</g>
					<g id="shape1441-49" v:mID="1441" v:groupContext="shape" v:layerMember="0" transform="translate(0,-31.5)">
						<title>Sheet.1441</title>
						<rect x="0" y="68.625" width="2.25" height="2.25" class="st2"/>
					</g>
					<g id="shape1442-51" v:mID="1442" v:groupContext="shape" v:layerMember="0" transform="translate(0,-27)">
						<title>Sheet.1442</title>
						<rect x="0" y="68.625" width="2.25" height="2.25" class="st2"/>
					</g>
					<g id="shape1443-53" v:mID="1443" v:groupContext="shape" v:layerMember="0" transform="translate(0,-22.5)">
						<title>Sheet.1443</title>
						<rect x="0" y="68.625" width="2.25" height="2.25" class="st2"/>
					</g>
					<g id="shape1444-55" v:mID="1444" v:groupContext="shape" v:layerMember="0" transform="translate(0,-18)">
						<title>Sheet.1444</title>
						<rect x="0" y="68.625" width="2.25" height="2.25" class="st2"/>
					</g>
					<g id="shape1445-57" v:mID="1445" v:groupContext="shape" v:layerMember="0" transform="translate(0,-13.5)">
						<title>Sheet.1445</title>
						<rect x="0" y="68.625" width="2.25" height="2.25" class="st2"/>
					</g>
					<g id="shape1446-59" v:mID="1446" v:groupContext="shape" v:layerMember="0" transform="translate(0,-9)">
						<title>Sheet.1446</title>
						<rect x="0" y="68.625" width="2.25" height="2.25" class="st2"/>
					</g>
					<g id="shape1447-61" v:mID="1447" v:groupContext="shape" v:layerMember="0" transform="translate(0,-4.5)">
						<title>Sheet.1447</title>
						<rect x="0" y="68.625" width="2.25" height="2.25" class="st2"/>
					</g>
					<g id="shape1448-63" v:mID="1448" v:groupContext="shape" v:layerMember="0">
						<title>Sheet.1448</title>
						<rect x="0" y="68.625" width="2.25" height="2.25" class="st2"/>
					</g>
				</g>
				<g id="shape1449-65" v:mID="1449" v:groupContext="shape" v:layerMember="0" transform="translate(18.75,0)">
					<title>Sheet.1449</title>
					<path d="M26.25 44.25 C26.25 40.05 19.2 38.55 13.12 38.55 C7.05 38.55 0 40.05 0 44.25 L0 44.92 L0 63.6 L0 64.57
								 L0 64.65 C0.37 68.62 5.02 70.87 13.05 70.87 C21.15 70.87 25.8 68.7 26.1 64.65 L26.1 64.57 L26.1
								 63.52 L26.1 45.15 L26.1 44.25 L26.25 44.25 Z" class="st1"/>
				</g>
				<g id="shape1450-67" v:mID="1450" v:groupContext="shape" v:layerMember="0" transform="translate(21,-2.325)">
					<title>Sheet.1450</title>
					<path d="M10.87 51.52 C6.6 51.52 2.25 50.77 0 49.12 L0 65.85 L0 66.75 C0.37 70.57 8.1 70.87 10.8 70.87 C13.5
								 70.87 21.3 70.57 21.6 66.75 L21.6 65.85 L21.6 49.12 C19.57 50.77 15.22 51.52 10.87 51.52 Z"
							class="st2"/>
				</g>
				<g id="shape1451-69" v:mID="1451" v:groupContext="shape" v:layerMember="0" transform="translate(21,-23.175)">
					<title>Sheet.1451</title>
					<ellipse cx="10.875" cy="67.425" rx="10.875" ry="3.45" class="st2"/>
				</g>
			</g>
		</g>
	</g>
</svg>
