<?xml version="1.0" encoding="UTF-8" standalone="no"?>
<!DOCTYPE svg PUBLIC "-//W3C//DTD SVG 1.1//EN" "http://www.w3.org/Graphics/SVG/1.1/DTD/svg11.dtd">
<!-- Generated by Microsoft Visio, SVG Export Virtual Server - blue.svg Page-1 -->
<svg xmlns="http://www.w3.org/2000/svg" xmlns:xlink="http://www.w3.org/1999/xlink" xmlns:ev="http://www.w3.org/2001/xml-events"
		xmlns:v="http://schemas.microsoft.com/visio/2003/SVGExtensions/" width="0.640625in" height="0.953125in"
		viewBox="0 0 46.125 68.625" xml:space="preserve" color-interpolation-filters="sRGB" class="st3">
	<v:documentProperties v:langID="4108" v:metric="true" v:viewMarkup="false"/>

	<style type="text/css">
	<![CDATA[
		.st1 {fill:#ffffff;stroke:none;stroke-linecap:butt;stroke-width:0.75}
		.st2 {fill:#2072b8;stroke:none;stroke-linecap:butt;stroke-width:0.75}
		.st3 {fill:none;fill-rule:evenodd;font-size:12px;overflow:visible;stroke-linecap:square;stroke-miterlimit:3}
	]]>
	</style>

	<g v:mID="0" v:index="1" v:groupContext="foregroundPage">
		<title>Page-1</title>
		<v:pageProperties v:drawingScale="0.0393701" v:pageScale="0.0393701" v:drawingUnits="24" v:shadowOffsetX="8.50394"
				v:shadowOffsetY="-8.50394"/>
		<v:layer v:name="symbols" v:index="0"/>
		<g id="group1219-1" transform="translate(7.0875,-6.1875)" v:mID="1219" v:groupContext="group" v:layerMember="0">
			<title>Virtual Server - blue</title>
			<g id="group1220-2" v:mID="1220" v:groupContext="group" v:layerMember="0">
				<title>Sheet.1220</title>
				<g id="shape1221-3" v:mID="1221" v:groupContext="shape" v:layerMember="0">
					<title>Sheet.1221</title>
					<path d="M0 68.62 L0 17.62 C-0 14.7 2.33 12.37 5.25 12.37 L27 12.37 C29.93 12.38 32.25 14.7 32.25 17.62 L32.25
								 68.62 L0 68.62 Z" class="st1"/>
				</g>
				<g id="shape1222-5" v:mID="1222" v:groupContext="shape" v:layerMember="0" transform="translate(2.475,-51.3)">
					<title>Sheet.1222</title>
					<path d="M23.78 65.92 L21.53 65.92 L21.53 68.17 L23.78 68.17 L23.78 65.92 ZM19.27 65.92 L17.03 65.92 L17.03 68.17
								 L19.27 68.17 L19.27 65.92 ZM14.78 65.92 L12.52 65.92 L12.52 68.17 L14.78 68.17 L14.78 65.92 ZM10.28
								 65.92 L8.03 65.92 L8.03 68.17 L10.28 68.17 L10.28 65.92 ZM5.77 65.92 L3.53 65.92 L3.53 68.17 L5.77
								 68.17 L5.77 65.92 ZM1.35 66.3 C1.28 66.3 1.28 66.3 1.35 66.3 C1.28 66.3 1.28 66.3 1.35 66.3 C1.28
								 66.3 1.28 66.3 1.35 66.3 C1.28 66.3 1.28 66.3 1.35 66.3 C1.28 66.3 1.28 66.3 1.35 66.3 C1.28 66.3
								 1.28 66.3 1.35 66.3 C1.28 66.3 1.28 66.3 1.35 66.3 C1.28 66.3 1.28 66.3 1.35 66.3 C1.28 66.3 1.28
								 66.3 1.35 66.3 C1.28 66.3 1.28 66.3 1.35 66.3 C1.28 66.3 1.28 66.3 1.35 66.3 C1.28 66.3 1.28 66.3
								 1.35 66.3 C1.28 66.3 1.28 66.3 1.35 66.3 C1.28 66.3 1.28 66.3 1.35 66.3 C1.28 66.3 1.28 66.3 1.35
								 66.3 C1.28 66.3 1.28 66.3 1.35 66.3 C1.28 66.3 1.28 66.3 1.35 66.3 C1.28 66.3 1.28 66.3 1.35 66.3
								 C1.28 66.3 1.28 66.3 1.35 66.3 C1.28 66.3 1.28 66.3 1.35 66.3 C1.28 66.3 1.28 66.3 1.28 66.3 C0.67
								 66.68 0.22 67.2 0 67.95 L2.1 68.62 C2.17 68.48 2.33 68.32 2.48 68.17 L1.35 66.3 ZM25.65 66.15 L24.83
								 68.25 C24.98 68.32 25.12 68.47 25.2 68.62 L27.23 67.73 C26.92 67.05 26.4 66.52 25.73 66.22 C25.73
								 66.15 25.73 66.15 25.65 66.15 C25.73 66.15 25.73 66.15 25.65 66.15 C25.73 66.15 25.73 66.15 25.65
								 66.15 C25.73 66.15 25.73 66.15 25.65 66.15 C25.73 66.15 25.73 66.15 25.65 66.15 C25.73 66.15 25.73
								 66.15 25.65 66.15 C25.73 66.15 25.73 66.15 25.65 66.15 C25.73 66.15 25.73 66.15 25.65 66.15 C25.73
								 66.15 25.73 66.15 25.65 66.15 C25.73 66.15 25.73 66.15 25.65 66.15 C25.73 66.15 25.73 66.15 25.65
								 66.15 C25.73 66.15 25.73 66.15 25.65 66.15 C25.73 66.15 25.73 66.15 25.65 66.15 C25.73 66.15 25.73
								 66.15 25.65 66.15 C25.73 66.15 25.73 66.15 25.65 66.15 C25.73 66.15 25.73 66.15 25.65 66.15 C25.73
								 66.15 25.73 66.15 25.65 66.15 C25.73 66.15 25.73 66.15 25.65 66.15 C25.73 66.15 25.73 66.15 25.65
								 66.15 C25.73 66.15 25.73 66.15 25.65 66.15 C25.73 66.15 25.73 66.15 25.65 66.15 C25.73 66.15 25.73
								 66.15 25.65 66.15 C25.73 66.15 25.73 66.15 25.65 66.15 C25.73 66.15 25.73 66.15 25.65 66.15 Z"
							class="st2"/>
				</g>
				<g id="shape1223-7" v:mID="1223" v:groupContext="shape" v:layerMember="0" transform="translate(8.25,-8.25)">
					<title>Sheet.1223</title>
					<path d="M15.75 68.62 L0 68.62 L0 66.37 L15.75 66.37 L15.75 68.62 ZM15.75 62.63 L0 62.63 L0 60.38 L15.75 60.38
								 L15.75 62.63 ZM15.75 31.88 L0 31.88 L0 29.63 L15.75 29.63 L15.75 31.88 Z" class="st2"/>
				</g>
				<g id="group1224-9" transform="translate(2.25,-2.25)" v:mID="1224" v:groupContext="group" v:layerMember="0">
					<title>Sheet.1224</title>
					<g id="shape1225-10" v:mID="1225" v:groupContext="shape" v:layerMember="0" transform="translate(0,-45)">
						<title>Sheet.1225</title>
						<rect x="0" y="66.375" width="2.25" height="2.25" class="st2"/>
					</g>
					<g id="shape1226-12" v:mID="1226" v:groupContext="shape" v:layerMember="0" transform="translate(0,-40.5)">
						<title>Sheet.1226</title>
						<rect x="0" y="66.375" width="2.25" height="2.25" class="st2"/>
					</g>
					<g id="shape1227-14" v:mID="1227" v:groupContext="shape" v:layerMember="0" transform="translate(0,-36)">
						<title>Sheet.1227</title>
						<rect x="0" y="66.375" width="2.25" height="2.25" class="st2"/>
					</g>
					<g id="shape1228-16" v:mID="1228" v:groupContext="shape" v:layerMember="0" transform="translate(0,-31.5)">
						<title>Sheet.1228</title>
						<rect x="0" y="66.375" width="2.25" height="2.25" class="st2"/>
					</g>
					<g id="shape1229-18" v:mID="1229" v:groupContext="shape" v:layerMember="0" transform="translate(0,-27)">
						<title>Sheet.1229</title>
						<rect x="0" y="66.375" width="2.25" height="2.25" class="st2"/>
					</g>
					<g id="shape1230-20" v:mID="1230" v:groupContext="shape" v:layerMember="0" transform="translate(0,-22.5)">
						<title>Sheet.1230</title>
						<rect x="0" y="66.375" width="2.25" height="2.25" class="st2"/>
					</g>
					<g id="shape1231-22" v:mID="1231" v:groupContext="shape" v:layerMember="0" transform="translate(0,-18)">
						<title>Sheet.1231</title>
						<rect x="0" y="66.375" width="2.25" height="2.25" class="st2"/>
					</g>
					<g id="shape1232-24" v:mID="1232" v:groupContext="shape" v:layerMember="0" transform="translate(0,-13.5)">
						<title>Sheet.1232</title>
						<rect x="0" y="66.375" width="2.25" height="2.25" class="st2"/>
					</g>
					<g id="shape1233-26" v:mID="1233" v:groupContext="shape" v:layerMember="0" transform="translate(0,-9)">
						<title>Sheet.1233</title>
						<rect x="0" y="66.375" width="2.25" height="2.25" class="st2"/>
					</g>
					<g id="shape1234-28" v:mID="1234" v:groupContext="shape" v:layerMember="0" transform="translate(0,-4.5)">
						<title>Sheet.1234</title>
						<rect x="0" y="66.375" width="2.25" height="2.25" class="st2"/>
					</g>
					<g id="shape1235-30" v:mID="1235" v:groupContext="shape" v:layerMember="0">
						<title>Sheet.1235</title>
						<rect x="0" y="66.375" width="2.25" height="2.25" class="st2"/>
					</g>
					<g id="shape1236-32" v:mID="1236" v:groupContext="shape" v:layerMember="0" transform="translate(3.75,0)">
						<title>Sheet.1236</title>
						<rect x="0" y="66.375" width="2.25" height="2.25" class="st2"/>
					</g>
					<g id="shape1237-34" v:mID="1237" v:groupContext="shape" v:layerMember="0" transform="translate(8.25,0)">
						<title>Sheet.1237</title>
						<rect x="0" y="66.375" width="2.25" height="2.25" class="st2"/>
					</g>
					<g id="shape1238-36" v:mID="1238" v:groupContext="shape" v:layerMember="0" transform="translate(12.75,0)">
						<title>Sheet.1238</title>
						<rect x="0" y="66.375" width="2.25" height="2.25" class="st2"/>
					</g>
					<g id="shape1239-38" v:mID="1239" v:groupContext="shape" v:layerMember="0" transform="translate(17.25,0)">
						<title>Sheet.1239</title>
						<rect x="0" y="66.375" width="2.25" height="2.25" class="st2"/>
					</g>
					<g id="shape1240-40" v:mID="1240" v:groupContext="shape" v:layerMember="0" transform="translate(21.75,0)">
						<title>Sheet.1240</title>
						<rect x="0" y="66.375" width="2.25" height="2.25" class="st2"/>
					</g>
				</g>
				<g id="group1241-42" transform="translate(27.75,-2.25)" v:mID="1241" v:groupContext="group" v:layerMember="0">
					<title>Sheet.1241</title>
					<g id="shape1242-43" v:mID="1242" v:groupContext="shape" v:layerMember="0" transform="translate(0,-45)">
						<title>Sheet.1242</title>
						<rect x="0" y="66.375" width="2.25" height="2.25" class="st2"/>
					</g>
					<g id="shape1243-45" v:mID="1243" v:groupContext="shape" v:layerMember="0" transform="translate(0,-40.5)">
						<title>Sheet.1243</title>
						<rect x="0" y="66.375" width="2.25" height="2.25" class="st2"/>
					</g>
					<g id="shape1244-47" v:mID="1244" v:groupContext="shape" v:layerMember="0" transform="translate(0,-36)">
						<title>Sheet.1244</title>
						<rect x="0" y="66.375" width="2.25" height="2.25" class="st2"/>
					</g>
					<g id="shape1245-49" v:mID="1245" v:groupContext="shape" v:layerMember="0" transform="translate(0,-31.5)">
						<title>Sheet.1245</title>
						<rect x="0" y="66.375" width="2.25" height="2.25" class="st2"/>
					</g>
					<g id="shape1246-51" v:mID="1246" v:groupContext="shape" v:layerMember="0" transform="translate(0,-27)">
						<title>Sheet.1246</title>
						<rect x="0" y="66.375" width="2.25" height="2.25" class="st2"/>
					</g>
					<g id="shape1247-53" v:mID="1247" v:groupContext="shape" v:layerMember="0" transform="translate(0,-22.5)">
						<title>Sheet.1247</title>
						<rect x="0" y="66.375" width="2.25" height="2.25" class="st2"/>
					</g>
					<g id="shape1248-55" v:mID="1248" v:groupContext="shape" v:layerMember="0" transform="translate(0,-18)">
						<title>Sheet.1248</title>
						<rect x="0" y="66.375" width="2.25" height="2.25" class="st2"/>
					</g>
					<g id="shape1249-57" v:mID="1249" v:groupContext="shape" v:layerMember="0" transform="translate(0,-13.5)">
						<title>Sheet.1249</title>
						<rect x="0" y="66.375" width="2.25" height="2.25" class="st2"/>
					</g>
					<g id="shape1250-59" v:mID="1250" v:groupContext="shape" v:layerMember="0" transform="translate(0,-9)">
						<title>Sheet.1250</title>
						<rect x="0" y="66.375" width="2.25" height="2.25" class="st2"/>
					</g>
					<g id="shape1251-61" v:mID="1251" v:groupContext="shape" v:layerMember="0" transform="translate(0,-4.5)">
						<title>Sheet.1251</title>
						<rect x="0" y="66.375" width="2.25" height="2.25" class="st2"/>
					</g>
					<g id="shape1252-63" v:mID="1252" v:groupContext="shape" v:layerMember="0">
						<title>Sheet.1252</title>
						<rect x="0" y="66.375" width="2.25" height="2.25" class="st2"/>
					</g>
				</g>
			</g>
		</g>
	</g>
</svg>
