<?xml version="1.0" encoding="UTF-8" standalone="no"?>
<!DOCTYPE svg PUBLIC "-//W3C//DTD SVG 1.1//EN" "http://www.w3.org/Graphics/SVG/1.1/DTD/svg11.dtd">
<!-- Generated by Microsoft Visio, SVG Export Virtual Web server.svg Page-1 -->
<svg xmlns="http://www.w3.org/2000/svg" xmlns:xlink="http://www.w3.org/1999/xlink" xmlns:ev="http://www.w3.org/2001/xml-events"
		xmlns:v="http://schemas.microsoft.com/visio/2003/SVGExtensions/" width="0.8125in" height="1in" viewBox="0 0 58.5 72"
		xml:space="preserve" color-interpolation-filters="sRGB" class="st5">
	<v:documentProperties v:langID="4108" v:metric="true" v:viewMarkup="false"/>

	<style type="text/css">
	<![CDATA[
		.st1 {fill:#ffffff;stroke:none;stroke-linecap:butt;stroke-width:0.75}
		.st2 {fill:#515050;stroke:none;stroke-linecap:butt;stroke-width:0.75}
		.st3 {fill:#515251;stroke:none;stroke-linecap:butt;stroke-width:0.75}
		.st4 {fill:#515150;stroke:none;stroke-linecap:butt;stroke-width:0.75}
		.st5 {fill:none;fill-rule:evenodd;font-size:12px;overflow:visible;stroke-linecap:square;stroke-miterlimit:3}
	]]>
	</style>

	<g v:mID="0" v:index="1" v:groupContext="foregroundPage">
		<title>Page-1</title>
		<v:pageProperties v:drawingScale="0.0393701" v:pageScale="0.0393701" v:drawingUnits="24" v:shadowOffsetX="8.50394"
				v:shadowOffsetY="-8.50394"/>
		<v:layer v:name="symbols" v:index="0"/>
		<g id="group1452-1" transform="translate(7.275,-5.4375)" v:mID="1452" v:groupContext="group" v:layerMember="0">
			<title>Virtual Web server</title>
			<g id="group1453-2" v:mID="1453" v:groupContext="group" v:layerMember="0">
				<title>Sheet.1453</title>
				<g id="group1454-3" transform="translate(0,-3.75)" v:mID="1454" v:groupContext="group" v:layerMember="0">
					<title>Sheet.1454</title>
					<g id="shape1455-4" v:mID="1455" v:groupContext="shape" v:layerMember="0">
						<title>Sheet.1455</title>
						<path d="M0 72 L0 21 C0 18.07 2.32 15.75 5.25 15.75 L27 15.75 C29.93 15.75 32.25 18.07 32.25 21 L32.25 72
									 L0 72 Z" class="st1"/>
					</g>
					<g id="shape1456-6" v:mID="1456" v:groupContext="shape" v:layerMember="0" transform="translate(2.475,-51.3)">
						<title>Sheet.1456</title>
						<path d="M23.77 69.3 L21.53 69.3 L21.53 71.55 L23.77 71.55 L23.77 69.3 ZM19.27 69.3 L17.03 69.3 L17.03 71.55
									 L19.27 71.55 L19.27 69.3 ZM14.78 69.3 L12.52 69.3 L12.52 71.55 L14.78 71.55 L14.78 69.3 ZM10.28
									 69.3 L8.03 69.3 L8.03 71.55 L10.28 71.55 L10.28 69.3 ZM5.77 69.3 L3.53 69.3 L3.53 71.55 L5.77
									 71.55 L5.77 69.3 ZM1.35 69.67 C1.27 69.67 1.27 69.67 1.35 69.67 C1.27 69.67 1.27 69.67 1.35
									 69.67 C1.27 69.67 1.27 69.67 1.35 69.67 C1.27 69.67 1.27 69.67 1.35 69.67 C1.27 69.67 1.27 69.67
									 1.35 69.67 C1.27 69.67 1.27 69.67 1.35 69.67 C1.27 69.67 1.27 69.67 1.35 69.67 C1.27 69.67 1.27
									 69.67 1.35 69.67 C1.27 69.67 1.27 69.67 1.35 69.67 C1.27 69.67 1.27 69.67 1.35 69.67 C1.27 69.67
									 1.27 69.67 1.35 69.67 C1.27 69.67 1.27 69.67 1.35 69.67 C1.27 69.67 1.27 69.67 1.35 69.67 C1.27
									 69.67 1.27 69.67 1.35 69.67 C1.27 69.67 1.27 69.67 1.35 69.67 C1.27 69.67 1.27 69.67 1.35 69.67
									 C1.27 69.67 1.27 69.67 1.35 69.67 C1.27 69.67 1.27 69.67 1.35 69.67 C1.27 69.67 1.27 69.67 1.35
									 69.67 C1.27 69.67 1.27 69.67 1.35 69.67 C1.27 69.67 1.27 69.67 1.27 69.67 C0.67 70.05 0.22 70.57
									 0 71.32 L2.1 72 C2.17 71.85 2.33 71.7 2.47 71.55 L1.35 69.67 ZM25.65 69.52 L24.83 71.62 C24.98
									 71.7 25.12 71.85 25.2 72 L27.22 71.1 C26.92 70.43 26.4 69.9 25.73 69.6 C25.73 69.52 25.73 69.52
									 25.65 69.52 C25.73 69.52 25.73 69.52 25.65 69.52 C25.73 69.52 25.73 69.52 25.65 69.52 C25.73
									 69.52 25.73 69.52 25.65 69.52 C25.73 69.52 25.73 69.52 25.65 69.52 C25.73 69.52 25.73 69.52
									 25.65 69.52 C25.73 69.52 25.73 69.52 25.65 69.52 C25.73 69.52 25.73 69.52 25.65 69.52 C25.73
									 69.52 25.73 69.52 25.65 69.52 C25.73 69.52 25.73 69.52 25.65 69.52 C25.73 69.52 25.73 69.52
									 25.65 69.52 C25.73 69.52 25.73 69.52 25.65 69.52 C25.73 69.52 25.73 69.52 25.65 69.52 C25.73
									 69.52 25.73 69.52 25.65 69.52 C25.73 69.52 25.73 69.52 25.65 69.52 C25.73 69.52 25.73 69.52
									 25.65 69.52 C25.73 69.52 25.73 69.52 25.65 69.52 C25.73 69.52 25.73 69.52 25.65 69.52 C25.73
									 69.52 25.73 69.52 25.65 69.52 C25.73 69.52 25.73 69.52 25.65 69.52 C25.73 69.52 25.73 69.52
									 25.65 69.52 C25.73 69.52 25.73 69.52 25.65 69.52 C25.73 69.52 25.73 69.52 25.65 69.52 C25.73
									 69.52 25.73 69.52 25.65 69.52 Z" class="st2"/>
					</g>
					<g id="shape1457-8" v:mID="1457" v:groupContext="shape" v:layerMember="0" transform="translate(8.25,-8.25)">
						<title>Sheet.1457</title>
						<path d="M15.75 72 L0 72 L0 69.75 L15.75 69.75 L15.75 72 ZM15.75 66 L0 66 L0 63.75 L15.75 63.75 L15.75 66
									 ZM15.75 35.25 L0 35.25 L0 33 L15.75 33 L15.75 35.25 Z" class="st3"/>
					</g>
					<g id="group1458-10" transform="translate(2.25,-2.25)" v:mID="1458" v:groupContext="group" v:layerMember="0">
						<title>Sheet.1458</title>
						<g id="shape1459-11" v:mID="1459" v:groupContext="shape" v:layerMember="0" transform="translate(0,-45)">
							<title>Sheet.1459</title>
							<rect x="0" y="69.75" width="2.25" height="2.25" class="st2"/>
						</g>
						<g id="shape1460-13" v:mID="1460" v:groupContext="shape" v:layerMember="0" transform="translate(0,-40.5)">
							<title>Sheet.1460</title>
							<rect x="0" y="69.75" width="2.25" height="2.25" class="st2"/>
						</g>
						<g id="shape1461-15" v:mID="1461" v:groupContext="shape" v:layerMember="0" transform="translate(0,-36)">
							<title>Sheet.1461</title>
							<rect x="0" y="69.75" width="2.25" height="2.25" class="st2"/>
						</g>
						<g id="shape1462-17" v:mID="1462" v:groupContext="shape" v:layerMember="0" transform="translate(0,-31.5)">
							<title>Sheet.1462</title>
							<rect x="0" y="69.75" width="2.25" height="2.25" class="st2"/>
						</g>
						<g id="shape1463-19" v:mID="1463" v:groupContext="shape" v:layerMember="0" transform="translate(0,-27)">
							<title>Sheet.1463</title>
							<rect x="0" y="69.75" width="2.25" height="2.25" class="st2"/>
						</g>
						<g id="shape1464-21" v:mID="1464" v:groupContext="shape" v:layerMember="0" transform="translate(0,-22.5)">
							<title>Sheet.1464</title>
							<rect x="0" y="69.75" width="2.25" height="2.25" class="st2"/>
						</g>
						<g id="shape1465-23" v:mID="1465" v:groupContext="shape" v:layerMember="0" transform="translate(0,-18)">
							<title>Sheet.1465</title>
							<rect x="0" y="69.75" width="2.25" height="2.25" class="st2"/>
						</g>
						<g id="shape1466-25" v:mID="1466" v:groupContext="shape" v:layerMember="0" transform="translate(0,-13.5)">
							<title>Sheet.1466</title>
							<rect x="0" y="69.75" width="2.25" height="2.25" class="st2"/>
						</g>
						<g id="shape1467-27" v:mID="1467" v:groupContext="shape" v:layerMember="0" transform="translate(0,-9)">
							<title>Sheet.1467</title>
							<rect x="0" y="69.75" width="2.25" height="2.25" class="st2"/>
						</g>
						<g id="shape1468-29" v:mID="1468" v:groupContext="shape" v:layerMember="0" transform="translate(0,-4.5)">
							<title>Sheet.1468</title>
							<rect x="0" y="69.75" width="2.25" height="2.25" class="st2"/>
						</g>
						<g id="shape1469-31" v:mID="1469" v:groupContext="shape" v:layerMember="0">
							<title>Sheet.1469</title>
							<rect x="0" y="69.75" width="2.25" height="2.25" class="st2"/>
						</g>
						<g id="shape1470-33" v:mID="1470" v:groupContext="shape" v:layerMember="0" transform="translate(3.75,0)">
							<title>Sheet.1470</title>
							<rect x="0" y="69.75" width="2.25" height="2.25" class="st2"/>
						</g>
						<g id="shape1471-35" v:mID="1471" v:groupContext="shape" v:layerMember="0" transform="translate(8.25,0)">
							<title>Sheet.1471</title>
							<rect x="0" y="69.75" width="2.25" height="2.25" class="st2"/>
						</g>
						<g id="shape1472-37" v:mID="1472" v:groupContext="shape" v:layerMember="0" transform="translate(12.75,0)">
							<title>Sheet.1472</title>
							<rect x="0" y="69.75" width="2.25" height="2.25" class="st2"/>
						</g>
						<g id="shape1473-39" v:mID="1473" v:groupContext="shape" v:layerMember="0" transform="translate(17.25,0)">
							<title>Sheet.1473</title>
							<rect x="0" y="69.75" width="2.25" height="2.25" class="st2"/>
						</g>
						<g id="shape1474-41" v:mID="1474" v:groupContext="shape" v:layerMember="0" transform="translate(21.75,0)">
							<title>Sheet.1474</title>
							<rect x="0" y="69.75" width="2.25" height="2.25" class="st2"/>
						</g>
					</g>
					<g id="group1475-43" transform="translate(27.75,-2.25)" v:mID="1475" v:groupContext="group" v:layerMember="0">
						<title>Sheet.1475</title>
						<g id="shape1476-44" v:mID="1476" v:groupContext="shape" v:layerMember="0" transform="translate(0,-45)">
							<title>Sheet.1476</title>
							<rect x="0" y="69.75" width="2.25" height="2.25" class="st2"/>
						</g>
						<g id="shape1477-46" v:mID="1477" v:groupContext="shape" v:layerMember="0" transform="translate(0,-40.5)">
							<title>Sheet.1477</title>
							<rect x="0" y="69.75" width="2.25" height="2.25" class="st2"/>
						</g>
						<g id="shape1478-48" v:mID="1478" v:groupContext="shape" v:layerMember="0" transform="translate(0,-36)">
							<title>Sheet.1478</title>
							<rect x="0" y="69.75" width="2.25" height="2.25" class="st2"/>
						</g>
						<g id="shape1479-50" v:mID="1479" v:groupContext="shape" v:layerMember="0" transform="translate(0,-31.5)">
							<title>Sheet.1479</title>
							<rect x="0" y="69.75" width="2.25" height="2.25" class="st2"/>
						</g>
						<g id="shape1480-52" v:mID="1480" v:groupContext="shape" v:layerMember="0" transform="translate(0,-27)">
							<title>Sheet.1480</title>
							<rect x="0" y="69.75" width="2.25" height="2.25" class="st2"/>
						</g>
						<g id="shape1481-54" v:mID="1481" v:groupContext="shape" v:layerMember="0" transform="translate(0,-22.5)">
							<title>Sheet.1481</title>
							<rect x="0" y="69.75" width="2.25" height="2.25" class="st2"/>
						</g>
						<g id="shape1482-56" v:mID="1482" v:groupContext="shape" v:layerMember="0" transform="translate(0,-18)">
							<title>Sheet.1482</title>
							<rect x="0" y="69.75" width="2.25" height="2.25" class="st2"/>
						</g>
						<g id="shape1483-58" v:mID="1483" v:groupContext="shape" v:layerMember="0" transform="translate(0,-13.5)">
							<title>Sheet.1483</title>
							<rect x="0" y="69.75" width="2.25" height="2.25" class="st2"/>
						</g>
						<g id="shape1484-60" v:mID="1484" v:groupContext="shape" v:layerMember="0" transform="translate(0,-9)">
							<title>Sheet.1484</title>
							<rect x="0" y="69.75" width="2.25" height="2.25" class="st2"/>
						</g>
						<g id="shape1485-62" v:mID="1485" v:groupContext="shape" v:layerMember="0" transform="translate(0,-4.5)">
							<title>Sheet.1485</title>
							<rect x="0" y="69.75" width="2.25" height="2.25" class="st2"/>
						</g>
						<g id="shape1486-64" v:mID="1486" v:groupContext="shape" v:layerMember="0">
							<title>Sheet.1486</title>
							<rect x="0" y="69.75" width="2.25" height="2.25" class="st2"/>
						</g>
					</g>
				</g>
				<g id="group1487-66" transform="translate(15.75,0)" v:mID="1487" v:groupContext="group" v:layerMember="0">
					<title>Sheet.1487</title>
					<g id="shape1488-67" v:mID="1488" v:groupContext="shape" v:layerMember="0">
						<title>Sheet.1488</title>
						<ellipse cx="16.5" cy="55.5" rx="16.5" ry="16.5" class="st1"/>
					</g>
					<g id="group1489-69" transform="translate(2.325,-2.325)" v:mID="1489" v:groupContext="group" v:layerMember="0">
						<title>Sheet.1489</title>
						<g id="shape1490-70" v:mID="1490" v:groupContext="shape" v:layerMember="0"
								transform="translate(15.075,-14.625)">
							<title>Sheet.1490</title>
							<path d="M5.63 64.8 C3.9 65.33 1.95 65.62 0 65.7 L0 72 C2.4 71.93 4.73 71.62 6.83 71.02 C6.6 68.77 6.23
										 66.68 5.63 64.8 Z" class="st4"/>
						</g>
						<g id="shape1491-72" v:mID="1491" v:groupContext="shape" v:layerMember="0"
								transform="translate(4.725,-23.775)">
							<title>Sheet.1491</title>
							<path d="M4.5 68.25 C2.85 68.85 1.35 69.83 0 70.95 C0.68 71.32 1.43 71.7 2.18 72 C2.85 70.58 3.6 69.3
										 4.5 68.25 Z" class="st4"/>
						</g>
						<g id="shape1492-74" v:mID="1492" v:groupContext="shape" v:layerMember="0"
								transform="translate(8.4,-22.35)">
							<title>Sheet.1492</title>
							<path d="M0 71.17 C1.58 71.62 3.3 71.92 5.1 72 L5.1 66 C4.87 66 4.72 66 4.5 66 C2.7 66.6 1.13 68.47 0
										 71.17 Z" class="st4"/>
						</g>
						<g id="shape1493-76" v:mID="1493" v:groupContext="shape" v:layerMember="0"
								transform="translate(6.75,-14.625)">
							<title>Sheet.1493</title>
							<path d="M0 71.02 C2.1 71.62 4.43 71.93 6.83 72 L6.83 65.7 C4.88 65.62 2.93 65.33 1.2 64.8 C0.45 66.68
										 0.08 68.77 0 71.02 Z" class="st4"/>
						</g>
						<g id="shape1494-78" v:mID="1494" v:groupContext="shape" v:layerMember="0"
								transform="translate(22.65,-8.4)">
							<title>Sheet.1494</title>
							<path d="M0.68 66.07 C0.68 68.17 0.45 70.2 0 72 C2.03 71.25 3.9 70.27 5.48 69.08 C5.7 68.1 5.78 67.13
										 5.78 66.15 C5.78 65.25 5.7 64.35 5.55 63.53 C4.13 64.5 2.48 65.25 0.6 65.85 C0.68 66 0.68
										 66 0.68 66.07 Z" class="st4"/>
						</g>
						<g id="shape1495-80" v:mID="1495" v:groupContext="shape" v:layerMember="0"
								transform="translate(-1.40887E-13,-8.25)">
							<title>Sheet.1495</title>
							<path d="M5.18 65.92 C5.18 65.85 5.18 65.78 5.18 65.7 C3.38 65.1 1.65 64.28 0.22 63.38 C0.07 64.2 0 65.1
										 0 66 C0 67.2 0.15 68.32 0.45 69.37 C2.1 70.5 3.9 71.4 5.85 72 C5.4 70.2 5.18 68.17 5.18
										 65.92 Z" class="st4"/>
						</g>
						<g id="shape1496-82" v:mID="1496" v:groupContext="shape" v:layerMember="0"
								transform="translate(0.675,-16.05)">
							<title>Sheet.1496</title>
							<path d="M3 64.35 C1.65 65.85 0.6 67.65 0 69.68 C1.28 70.65 2.85 71.4 4.58 72 C4.73 69.75 5.1 67.58 5.78
										 65.78 C4.73 65.33 3.83 64.88 3 64.35 Z" class="st4"/>
						</g>
						<g id="shape1497-84" v:mID="1497" v:groupContext="shape" v:layerMember="0"
								transform="translate(14.925,-22.425)">
							<title>Sheet.1497</title>
							<path d="M0.07 72 C1.87 71.92 3.6 71.62 5.17 71.17 C4.05 68.55 2.4 66.6 0.6 66 C0.37 66 0.22 66 0 66
										 L0 72 L0.07 72 Z" class="st4"/>
						</g>
						<g id="shape1498-86" v:mID="1498" v:groupContext="shape" v:layerMember="0"
								transform="translate(1.2,-0.825)">
							<title>Sheet.1498</title>
							<path d="M5.18 66.37 C3.3 65.85 1.58 65.1 0 64.2 C1.58 67.8 4.58 70.65 8.33 72 C6.98 70.65 5.93 68.7
										 5.18 66.37 Z" class="st4"/>
						</g>
						<g id="shape1499-88" v:mID="1499" v:groupContext="shape" v:layerMember="0"
								transform="translate(19.275,-23.7)">
							<title>Sheet.1499</title>
							<path d="M0 68.18 C0.9 69.23 1.65 70.5 2.25 72 C3 71.7 3.75 71.33 4.43 70.95 C3.23 69.75 1.73 68.78 0
										 68.18 Z" class="st4"/>
						</g>
						<g id="shape1500-90" v:mID="1500" v:groupContext="shape" v:layerMember="0"
								transform="translate(22.125,-16.05)">
							<title>Sheet.1500</title>
							<path d="M5.78 69.68 C5.18 67.65 4.13 65.85 2.78 64.35 C1.95 64.88 1.05 65.33 0 65.78 C0.6 67.65 1.05
										 69.75 1.2 72 C2.93 71.4 4.43 70.58 5.78 69.68 Z" class="st4"/>
						</g>
						<g id="shape1501-92" v:mID="1501" v:groupContext="shape" v:layerMember="0"
								transform="translate(19.05,-0.825)">
							<title>Sheet.1501</title>
							<path d="M3.15 66.22 C2.4 68.62 1.35 70.57 0 72 C3.82 70.65 6.9 67.65 8.4 63.82 C6.83 64.87 5.1 65.62
										 3.15 66.22 Z" class="st4"/>
						</g>
						<g id="shape1502-94" v:mID="1502" v:groupContext="shape" v:layerMember="0"
								transform="translate(8.1,1.42109E-13)">
							<title>Sheet.1502</title>
							<path d="M5.4 72 L5.4 66.67 C3.53 66.67 1.73 66.45 0 66.07 C1.28 69.3 3.23 71.55 5.4 72 Z" class="st4"/>
						</g>
						<g id="shape1503-96" v:mID="1503" v:groupContext="shape" v:layerMember="0" transform="translate(15,-6.825)">
							<title>Sheet.1503</title>
							<path d="M6.83 64.8 C4.73 65.33 2.4 65.7 0 65.78 L0 72 C2.03 71.93 4.05 71.62 6 71.1 C6.53 69.15 6.83
										 66.97 6.83 64.8 Z" class="st4"/>
						</g>
						<g id="shape1504-98" v:mID="1504" v:groupContext="shape" v:layerMember="0"
								transform="translate(6.675,-6.9)">
							<title>Sheet.1504</title>
							<path d="M6.83 72 L6.83 65.78 C4.43 65.7 2.1 65.4 0 64.8 C0 67.13 0.38 69.3 0.9 71.18 C2.78 71.7 4.8
										 72 6.83 72 Z" class="st4"/>
						</g>
						<g id="shape1505-100" v:mID="1505" v:groupContext="shape" v:layerMember="0"
								transform="translate(15,-0.075)">
							<title>Sheet.1505</title>
							<path d="M0 66.68 L0 72 C2.18 71.55 4.2 69.23 5.4 65.93 C3.68 66.37 1.88 66.6 0 66.68 Z" class="st4"/>
						</g>
					</g>
				</g>
			</g>
		</g>
	</g>
</svg>
