<?xml version="1.0" encoding="UTF-8" standalone="no"?>
<!DOCTYPE svg PUBLIC "-//W3C//DTD SVG 1.1//EN" "http://www.w3.org/Graphics/SVG/1.1/DTD/svg11.dtd">
<!-- Generated by Microsoft Visio, SVG Export Virtual Application Server.svg Page-1 -->
<svg xmlns="http://www.w3.org/2000/svg" xmlns:xlink="http://www.w3.org/1999/xlink" xmlns:ev="http://www.w3.org/2001/xml-events"
		xmlns:v="http://schemas.microsoft.com/visio/2003/SVGExtensions/" width="0.875in" height="0.984375in"
		viewBox="0 0 63 70.875" xml:space="preserve" color-interpolation-filters="sRGB" class="st5">
	<v:documentProperties v:langID="4108" v:metric="true" v:viewMarkup="false"/>

	<style type="text/css">
	<![CDATA[
		.st1 {fill:#ffffff;stroke:none;stroke-linecap:butt;stroke-width:0.75}
		.st2 {fill:#515050;stroke:none;stroke-linecap:butt;stroke-width:0.75}
		.st3 {fill:#515251;stroke:none;stroke-linecap:butt;stroke-width:0.75}
		.st4 {fill:#515150;stroke:none;stroke-linecap:butt;stroke-width:0.75}
		.st5 {fill:none;fill-rule:evenodd;font-size:12px;overflow:visible;stroke-linecap:square;stroke-miterlimit:3}
	]]>
	</style>

	<g v:mID="0" v:index="1" v:groupContext="foregroundPage">
		<title>Page-1</title>
		<v:pageProperties v:drawingScale="0.0393701" v:pageScale="0.0393701" v:drawingUnits="24" v:shadowOffsetX="8.50394"
				v:shadowOffsetY="-8.50394"/>
		<v:layer v:name="symbols" v:index="0"/>
		<g id="group1296-1" transform="translate(7.5,-6.5625)" v:mID="1296" v:groupContext="group" v:layerMember="0">
			<title>Virtual Application Server</title>
			<g id="group1297-2" v:mID="1297" v:groupContext="group" v:layerMember="0">
				<title>Sheet.1297</title>
				<g id="group1298-3" transform="translate(2.59792E-13,-3.75)" v:mID="1298" v:groupContext="group" v:layerMember="0">
					<title>Sheet.1298</title>
					<g id="shape1299-4" v:mID="1299" v:groupContext="shape" v:layerMember="0">
						<title>Sheet.1299</title>
						<path d="M0 70.87 L0 19.87 C0 16.95 2.32 14.62 5.25 14.62 L27 14.62 C29.92 14.63 32.25 16.95 32.25 19.87
									 L32.25 70.87 L0 70.87 Z" class="st1"/>
					</g>
					<g id="shape1300-6" v:mID="1300" v:groupContext="shape" v:layerMember="0" transform="translate(2.475,-51.3)">
						<title>Sheet.1300</title>
						<path d="M23.77 68.17 L21.52 68.17 L21.52 70.42 L23.77 70.42 L23.77 68.17 ZM19.27 68.17 L17.02 68.17 L17.02
									 70.42 L19.27 70.42 L19.27 68.17 ZM14.78 68.17 L12.52 68.17 L12.52 70.42 L14.78 70.42 L14.78
									 68.17 ZM10.27 68.17 L8.03 68.17 L8.03 70.42 L10.27 70.42 L10.27 68.17 ZM5.77 68.17 L3.53 68.17
									 L3.53 70.42 L5.77 70.42 L5.77 68.17 ZM1.35 68.55 C1.27 68.55 1.27 68.55 1.35 68.55 C1.27 68.55
									 1.27 68.55 1.35 68.55 C1.27 68.55 1.27 68.55 1.35 68.55 C1.27 68.55 1.27 68.55 1.35 68.55 C1.27
									 68.55 1.27 68.55 1.35 68.55 C1.27 68.55 1.27 68.55 1.35 68.55 C1.27 68.55 1.27 68.55 1.35 68.55
									 C1.27 68.55 1.27 68.55 1.35 68.55 C1.27 68.55 1.27 68.55 1.35 68.55 C1.27 68.55 1.27 68.55 1.35
									 68.55 C1.27 68.55 1.27 68.55 1.35 68.55 C1.27 68.55 1.27 68.55 1.35 68.55 C1.27 68.55 1.27 68.55
									 1.35 68.55 C1.27 68.55 1.27 68.55 1.35 68.55 C1.27 68.55 1.27 68.55 1.35 68.55 C1.27 68.55 1.27
									 68.55 1.35 68.55 C1.27 68.55 1.27 68.55 1.35 68.55 C1.27 68.55 1.27 68.55 1.35 68.55 C1.27 68.55
									 1.27 68.55 1.35 68.55 C1.27 68.55 1.27 68.55 1.35 68.55 C1.27 68.55 1.27 68.55 1.27 68.55 C0.67
									 68.93 0.22 69.45 0 70.2 L2.1 70.87 C2.17 70.73 2.32 70.57 2.47 70.42 L1.35 68.55 ZM25.65 68.4
									 L24.82 70.5 C24.97 70.57 25.12 70.72 25.2 70.87 L27.22 69.97 C26.92 69.3 26.4 68.77 25.72 68.47
									 C25.72 68.4 25.72 68.4 25.65 68.4 C25.72 68.4 25.72 68.4 25.65 68.4 C25.72 68.4 25.72 68.4 25.65
									 68.4 C25.72 68.4 25.72 68.4 25.65 68.4 C25.72 68.4 25.72 68.4 25.65 68.4 C25.72 68.4 25.72 68.4
									 25.65 68.4 C25.72 68.4 25.72 68.4 25.65 68.4 C25.72 68.4 25.72 68.4 25.65 68.4 C25.72 68.4 25.72
									 68.4 25.65 68.4 C25.72 68.4 25.72 68.4 25.65 68.4 C25.72 68.4 25.72 68.4 25.65 68.4 C25.72 68.4
									 25.72 68.4 25.65 68.4 C25.72 68.4 25.72 68.4 25.65 68.4 C25.72 68.4 25.72 68.4 25.65 68.4 C25.72
									 68.4 25.72 68.4 25.65 68.4 C25.72 68.4 25.72 68.4 25.65 68.4 C25.72 68.4 25.72 68.4 25.65 68.4
									 C25.72 68.4 25.72 68.4 25.65 68.4 C25.72 68.4 25.72 68.4 25.65 68.4 C25.72 68.4 25.72 68.4 25.65
									 68.4 C25.72 68.4 25.72 68.4 25.65 68.4 C25.72 68.4 25.72 68.4 25.65 68.4 C25.72 68.4 25.72 68.4
									 25.65 68.4 C25.72 68.4 25.72 68.4 25.65 68.4 Z" class="st2"/>
					</g>
					<g id="shape1301-8" v:mID="1301" v:groupContext="shape" v:layerMember="0" transform="translate(8.25,-8.25)">
						<title>Sheet.1301</title>
						<path d="M15.75 70.87 L0 70.87 L0 68.62 L15.75 68.62 L15.75 70.87 ZM15.75 64.88 L0 64.88 L0 62.63 L15.75
									 62.63 L15.75 64.88 ZM15.75 34.13 L0 34.13 L0 31.88 L15.75 31.88 L15.75 34.13 Z" class="st3"/>
					</g>
					<g id="group1302-10" transform="translate(2.25,-2.25)" v:mID="1302" v:groupContext="group" v:layerMember="0">
						<title>Sheet.1302</title>
						<g id="shape1303-11" v:mID="1303" v:groupContext="shape" v:layerMember="0" transform="translate(0,-45)">
							<title>Sheet.1303</title>
							<rect x="0" y="68.625" width="2.25" height="2.25" class="st2"/>
						</g>
						<g id="shape1304-13" v:mID="1304" v:groupContext="shape" v:layerMember="0" transform="translate(0,-40.5)">
							<title>Sheet.1304</title>
							<rect x="0" y="68.625" width="2.25" height="2.25" class="st2"/>
						</g>
						<g id="shape1305-15" v:mID="1305" v:groupContext="shape" v:layerMember="0" transform="translate(0,-36)">
							<title>Sheet.1305</title>
							<rect x="0" y="68.625" width="2.25" height="2.25" class="st2"/>
						</g>
						<g id="shape1306-17" v:mID="1306" v:groupContext="shape" v:layerMember="0" transform="translate(0,-31.5)">
							<title>Sheet.1306</title>
							<rect x="0" y="68.625" width="2.25" height="2.25" class="st2"/>
						</g>
						<g id="shape1307-19" v:mID="1307" v:groupContext="shape" v:layerMember="0" transform="translate(0,-27)">
							<title>Sheet.1307</title>
							<rect x="0" y="68.625" width="2.25" height="2.25" class="st2"/>
						</g>
						<g id="shape1308-21" v:mID="1308" v:groupContext="shape" v:layerMember="0" transform="translate(0,-22.5)">
							<title>Sheet.1308</title>
							<rect x="0" y="68.625" width="2.25" height="2.25" class="st2"/>
						</g>
						<g id="shape1309-23" v:mID="1309" v:groupContext="shape" v:layerMember="0" transform="translate(0,-18)">
							<title>Sheet.1309</title>
							<rect x="0" y="68.625" width="2.25" height="2.25" class="st2"/>
						</g>
						<g id="shape1310-25" v:mID="1310" v:groupContext="shape" v:layerMember="0" transform="translate(0,-13.5)">
							<title>Sheet.1310</title>
							<rect x="0" y="68.625" width="2.25" height="2.25" class="st2"/>
						</g>
						<g id="shape1311-27" v:mID="1311" v:groupContext="shape" v:layerMember="0" transform="translate(0,-9)">
							<title>Sheet.1311</title>
							<rect x="0" y="68.625" width="2.25" height="2.25" class="st2"/>
						</g>
						<g id="shape1312-29" v:mID="1312" v:groupContext="shape" v:layerMember="0" transform="translate(0,-4.5)">
							<title>Sheet.1312</title>
							<rect x="0" y="68.625" width="2.25" height="2.25" class="st2"/>
						</g>
						<g id="shape1313-31" v:mID="1313" v:groupContext="shape" v:layerMember="0">
							<title>Sheet.1313</title>
							<rect x="0" y="68.625" width="2.25" height="2.25" class="st2"/>
						</g>
						<g id="shape1314-33" v:mID="1314" v:groupContext="shape" v:layerMember="0" transform="translate(3.75,0)">
							<title>Sheet.1314</title>
							<rect x="0" y="68.625" width="2.25" height="2.25" class="st2"/>
						</g>
						<g id="shape1315-35" v:mID="1315" v:groupContext="shape" v:layerMember="0" transform="translate(8.25,0)">
							<title>Sheet.1315</title>
							<rect x="0" y="68.625" width="2.25" height="2.25" class="st2"/>
						</g>
						<g id="shape1316-37" v:mID="1316" v:groupContext="shape" v:layerMember="0" transform="translate(12.75,0)">
							<title>Sheet.1316</title>
							<rect x="0" y="68.625" width="2.25" height="2.25" class="st2"/>
						</g>
						<g id="shape1317-39" v:mID="1317" v:groupContext="shape" v:layerMember="0" transform="translate(17.25,0)">
							<title>Sheet.1317</title>
							<rect x="0" y="68.625" width="2.25" height="2.25" class="st2"/>
						</g>
						<g id="shape1318-41" v:mID="1318" v:groupContext="shape" v:layerMember="0" transform="translate(21.75,0)">
							<title>Sheet.1318</title>
							<rect x="0" y="68.625" width="2.25" height="2.25" class="st2"/>
						</g>
					</g>
					<g id="group1319-43" transform="translate(27.75,-2.25)" v:mID="1319" v:groupContext="group" v:layerMember="0">
						<title>Sheet.1319</title>
						<g id="shape1320-44" v:mID="1320" v:groupContext="shape" v:layerMember="0" transform="translate(0,-45)">
							<title>Sheet.1320</title>
							<rect x="0" y="68.625" width="2.25" height="2.25" class="st2"/>
						</g>
						<g id="shape1321-46" v:mID="1321" v:groupContext="shape" v:layerMember="0" transform="translate(0,-40.5)">
							<title>Sheet.1321</title>
							<rect x="0" y="68.625" width="2.25" height="2.25" class="st2"/>
						</g>
						<g id="shape1322-48" v:mID="1322" v:groupContext="shape" v:layerMember="0" transform="translate(0,-36)">
							<title>Sheet.1322</title>
							<rect x="0" y="68.625" width="2.25" height="2.25" class="st2"/>
						</g>
						<g id="shape1323-50" v:mID="1323" v:groupContext="shape" v:layerMember="0" transform="translate(0,-31.5)">
							<title>Sheet.1323</title>
							<rect x="0" y="68.625" width="2.25" height="2.25" class="st2"/>
						</g>
						<g id="shape1324-52" v:mID="1324" v:groupContext="shape" v:layerMember="0" transform="translate(0,-27)">
							<title>Sheet.1324</title>
							<rect x="0" y="68.625" width="2.25" height="2.25" class="st2"/>
						</g>
						<g id="shape1325-54" v:mID="1325" v:groupContext="shape" v:layerMember="0" transform="translate(0,-22.5)">
							<title>Sheet.1325</title>
							<rect x="0" y="68.625" width="2.25" height="2.25" class="st2"/>
						</g>
						<g id="shape1326-56" v:mID="1326" v:groupContext="shape" v:layerMember="0" transform="translate(0,-18)">
							<title>Sheet.1326</title>
							<rect x="0" y="68.625" width="2.25" height="2.25" class="st2"/>
						</g>
						<g id="shape1327-58" v:mID="1327" v:groupContext="shape" v:layerMember="0" transform="translate(0,-13.5)">
							<title>Sheet.1327</title>
							<rect x="0" y="68.625" width="2.25" height="2.25" class="st2"/>
						</g>
						<g id="shape1328-60" v:mID="1328" v:groupContext="shape" v:layerMember="0" transform="translate(0,-9)">
							<title>Sheet.1328</title>
							<rect x="0" y="68.625" width="2.25" height="2.25" class="st2"/>
						</g>
						<g id="shape1329-62" v:mID="1329" v:groupContext="shape" v:layerMember="0" transform="translate(0,-4.5)">
							<title>Sheet.1329</title>
							<rect x="0" y="68.625" width="2.25" height="2.25" class="st2"/>
						</g>
						<g id="shape1330-64" v:mID="1330" v:groupContext="shape" v:layerMember="0">
							<title>Sheet.1330</title>
							<rect x="0" y="68.625" width="2.25" height="2.25" class="st2"/>
						</g>
					</g>
				</g>
				<g id="group1331-66" transform="translate(18.75,0)" v:mID="1331" v:groupContext="group" v:layerMember="0">
					<title>Sheet.1331</title>
					<g id="shape1332-67" v:mID="1332" v:groupContext="shape" v:layerMember="0">
						<title>Sheet.1332</title>
						<path d="M3.75 70.87 C1.65 70.87 0 69.22 0 67.12 L0 46.87 C0 44.78 1.65 43.12 3.75 43.13 L30 43.13 C32.1
									 43.13 33.75 44.78 33.75 46.87 L33.75 67.12 C33.75 69.22 32.1 70.87 30 70.87 L3.75 70.87 Z"
								class="st1"/>
					</g>
					<g id="shape1333-69" v:mID="1333" v:groupContext="shape" v:layerMember="0" transform="translate(2.25,-2.25)">
						<title>Sheet.1333</title>
						<path d="M27.75 47.62 L1.5 47.62 C0.6 47.62 0 48.22 0 49.12 L0 69.37 C-0 70.28 0.6 70.87 1.5 70.87 L27.75
									 70.87 C28.65 70.87 29.25 70.28 29.25 69.37 L29.25 49.12 C29.25 48.22 28.65 47.62 27.75 47.62
									 ZM27.75 69.37 L1.5 69.37 L1.5 52.12 L27.75 52.12 L27.75 69.37 Z" class="st4"/>
					</g>
					<g id="shape1334-71" v:mID="1334" v:groupContext="shape" v:layerMember="0" transform="translate(28.5,-22.5)">
						<title>Sheet.1334</title>
						<rect x="0" y="69.375" width="1.5" height="1.5" class="st1"/>
					</g>
					<g id="shape1335-73" v:mID="1335" v:groupContext="shape" v:layerMember="0" transform="translate(25.5,-22.5)">
						<title>Sheet.1335</title>
						<rect x="0" y="69.375" width="1.5" height="1.5" class="st1"/>
					</g>
					<g id="shape1336-75" v:mID="1336" v:groupContext="shape" v:layerMember="0" transform="translate(22.5,-22.5)">
						<title>Sheet.1336</title>
						<rect x="0" y="69.375" width="1.5" height="1.5" class="st1"/>
					</g>
				</g>
			</g>
		</g>
	</g>
</svg>
