<?xml version="1.0" encoding="UTF-8" standalone="no"?>
<!DOCTYPE svg PUBLIC "-//W3C//DTD SVG 1.1//EN" "http://www.w3.org/Graphics/SVG/1.1/DTD/svg11.dtd">
<!-- Generated by Microsoft Visio, SVG Export Virtual Web server - blue.svg Page-1 -->
<svg xmlns="http://www.w3.org/2000/svg" xmlns:xlink="http://www.w3.org/1999/xlink" xmlns:ev="http://www.w3.org/2001/xml-events"
		xmlns:v="http://schemas.microsoft.com/visio/2003/SVGExtensions/" width="0.8125in" height="1in" viewBox="0 0 58.5 72"
		xml:space="preserve" color-interpolation-filters="sRGB" class="st3">
	<v:documentProperties v:langID="4108" v:metric="true" v:viewMarkup="false"/>

	<style type="text/css">
	<![CDATA[
		.st1 {fill:#ffffff;stroke:none;stroke-linecap:butt;stroke-width:0.75}
		.st2 {fill:#2072b8;stroke:none;stroke-linecap:butt;stroke-width:0.75}
		.st3 {fill:none;fill-rule:evenodd;font-size:12px;overflow:visible;stroke-linecap:square;stroke-miterlimit:3}
	]]>
	</style>

	<g v:mID="0" v:index="1" v:groupContext="foregroundPage">
		<title>Page-1</title>
		<v:pageProperties v:drawingScale="0.0393701" v:pageScale="0.0393701" v:drawingUnits="24" v:shadowOffsetX="8.50394"
				v:shadowOffsetY="-8.50394"/>
		<v:layer v:name="symbols" v:index="0"/>
		<g id="group1506-1" transform="translate(7.6875,-5.4375)" v:mID="1506" v:groupContext="group" v:layerMember="0">
			<title>Virtual Web server - blue</title>
			<g id="group1507-2" transform="translate(0,-3.75)" v:mID="1507" v:groupContext="group" v:layerMember="0">
				<title>Sheet.1507</title>
				<g id="shape1508-3" v:mID="1508" v:groupContext="shape" v:layerMember="0">
					<title>Sheet.1508</title>
					<path d="M0 72 L0 21 C0 18.07 2.32 15.75 5.25 15.75 L27 15.75 C29.93 15.75 32.25 18.07 32.25 21 L32.25 72 L0
								 72 Z" class="st1"/>
				</g>
				<g id="shape1509-5" v:mID="1509" v:groupContext="shape" v:layerMember="0" transform="translate(2.475,-51.3)">
					<title>Sheet.1509</title>
					<path d="M23.77 69.3 L21.53 69.3 L21.53 71.55 L23.77 71.55 L23.77 69.3 ZM19.27 69.3 L17.03 69.3 L17.03 71.55
								 L19.27 71.55 L19.27 69.3 ZM14.78 69.3 L12.52 69.3 L12.52 71.55 L14.78 71.55 L14.78 69.3 ZM10.28
								 69.3 L8.03 69.3 L8.03 71.55 L10.28 71.55 L10.28 69.3 ZM5.77 69.3 L3.53 69.3 L3.53 71.55 L5.77 71.55
								 L5.77 69.3 ZM1.35 69.67 C1.27 69.67 1.27 69.67 1.35 69.67 C1.27 69.67 1.27 69.67 1.35 69.67 C1.27
								 69.67 1.27 69.67 1.35 69.67 C1.27 69.67 1.27 69.67 1.35 69.67 C1.27 69.67 1.27 69.67 1.35 69.67
								 C1.27 69.67 1.27 69.67 1.35 69.67 C1.27 69.67 1.27 69.67 1.35 69.67 C1.27 69.67 1.27 69.67 1.35
								 69.67 C1.27 69.67 1.27 69.67 1.35 69.67 C1.27 69.67 1.27 69.67 1.35 69.67 C1.27 69.67 1.27 69.67
								 1.35 69.67 C1.27 69.67 1.27 69.67 1.35 69.67 C1.27 69.67 1.27 69.67 1.35 69.67 C1.27 69.67 1.27
								 69.67 1.35 69.67 C1.27 69.67 1.27 69.67 1.35 69.67 C1.27 69.67 1.27 69.67 1.35 69.67 C1.27 69.67
								 1.27 69.67 1.35 69.67 C1.27 69.67 1.27 69.67 1.35 69.67 C1.27 69.67 1.27 69.67 1.35 69.67 C1.27
								 69.67 1.27 69.67 1.35 69.67 C1.27 69.67 1.27 69.67 1.27 69.67 C0.67 70.05 0.22 70.57 0 71.32 L2.1
								 72 C2.17 71.85 2.33 71.7 2.47 71.55 L1.35 69.67 ZM25.65 69.52 L24.83 71.62 C24.98 71.7 25.12 71.85
								 25.2 72 L27.22 71.1 C26.92 70.43 26.4 69.9 25.73 69.6 C25.73 69.52 25.73 69.52 25.65 69.52 C25.73
								 69.52 25.73 69.52 25.65 69.52 C25.73 69.52 25.73 69.52 25.65 69.52 C25.73 69.52 25.73 69.52 25.65
								 69.52 C25.73 69.52 25.73 69.52 25.65 69.52 C25.73 69.52 25.73 69.52 25.65 69.52 C25.73 69.52 25.73
								 69.52 25.65 69.52 C25.73 69.52 25.73 69.52 25.65 69.52 C25.73 69.52 25.73 69.52 25.65 69.52 C25.73
								 69.52 25.73 69.52 25.65 69.52 C25.73 69.52 25.73 69.52 25.65 69.52 C25.73 69.52 25.73 69.52 25.65
								 69.52 C25.73 69.52 25.73 69.52 25.65 69.52 C25.73 69.52 25.73 69.52 25.65 69.52 C25.73 69.52 25.73
								 69.52 25.65 69.52 C25.73 69.52 25.73 69.52 25.65 69.52 C25.73 69.52 25.73 69.52 25.65 69.52 C25.73
								 69.52 25.73 69.52 25.65 69.52 C25.73 69.52 25.73 69.52 25.65 69.52 C25.73 69.52 25.73 69.52 25.65
								 69.52 C25.73 69.52 25.73 69.52 25.65 69.52 C25.73 69.52 25.73 69.52 25.65 69.52 C25.73 69.52 25.73
								 69.52 25.65 69.52 C25.73 69.52 25.73 69.52 25.65 69.52 Z" class="st2"/>
				</g>
				<g id="shape1510-7" v:mID="1510" v:groupContext="shape" v:layerMember="0" transform="translate(8.25,-8.25)">
					<title>Sheet.1510</title>
					<path d="M15.75 72 L0 72 L0 69.75 L15.75 69.75 L15.75 72 ZM15.75 66 L0 66 L0 63.75 L15.75 63.75 L15.75 66 ZM15.75
								 35.25 L0 35.25 L0 33 L15.75 33 L15.75 35.25 Z" class="st2"/>
				</g>
				<g id="group1511-9" transform="translate(2.25,-2.25)" v:mID="1511" v:groupContext="group" v:layerMember="0">
					<title>Sheet.1511</title>
					<g id="shape1512-10" v:mID="1512" v:groupContext="shape" v:layerMember="0" transform="translate(0,-45)">
						<title>Sheet.1512</title>
						<rect x="0" y="69.75" width="2.25" height="2.25" class="st2"/>
					</g>
					<g id="shape1513-12" v:mID="1513" v:groupContext="shape" v:layerMember="0" transform="translate(0,-40.5)">
						<title>Sheet.1513</title>
						<rect x="0" y="69.75" width="2.25" height="2.25" class="st2"/>
					</g>
					<g id="shape1514-14" v:mID="1514" v:groupContext="shape" v:layerMember="0" transform="translate(0,-36)">
						<title>Sheet.1514</title>
						<rect x="0" y="69.75" width="2.25" height="2.25" class="st2"/>
					</g>
					<g id="shape1515-16" v:mID="1515" v:groupContext="shape" v:layerMember="0" transform="translate(0,-31.5)">
						<title>Sheet.1515</title>
						<rect x="0" y="69.75" width="2.25" height="2.25" class="st2"/>
					</g>
					<g id="shape1516-18" v:mID="1516" v:groupContext="shape" v:layerMember="0" transform="translate(0,-27)">
						<title>Sheet.1516</title>
						<rect x="0" y="69.75" width="2.25" height="2.25" class="st2"/>
					</g>
					<g id="shape1517-20" v:mID="1517" v:groupContext="shape" v:layerMember="0" transform="translate(0,-22.5)">
						<title>Sheet.1517</title>
						<rect x="0" y="69.75" width="2.25" height="2.25" class="st2"/>
					</g>
					<g id="shape1518-22" v:mID="1518" v:groupContext="shape" v:layerMember="0" transform="translate(0,-18)">
						<title>Sheet.1518</title>
						<rect x="0" y="69.75" width="2.25" height="2.25" class="st2"/>
					</g>
					<g id="shape1519-24" v:mID="1519" v:groupContext="shape" v:layerMember="0" transform="translate(0,-13.5)">
						<title>Sheet.1519</title>
						<rect x="0" y="69.75" width="2.25" height="2.25" class="st2"/>
					</g>
					<g id="shape1520-26" v:mID="1520" v:groupContext="shape" v:layerMember="0" transform="translate(0,-9)">
						<title>Sheet.1520</title>
						<rect x="0" y="69.75" width="2.25" height="2.25" class="st2"/>
					</g>
					<g id="shape1521-28" v:mID="1521" v:groupContext="shape" v:layerMember="0" transform="translate(0,-4.5)">
						<title>Sheet.1521</title>
						<rect x="0" y="69.75" width="2.25" height="2.25" class="st2"/>
					</g>
					<g id="shape1522-30" v:mID="1522" v:groupContext="shape" v:layerMember="0">
						<title>Sheet.1522</title>
						<rect x="0" y="69.75" width="2.25" height="2.25" class="st2"/>
					</g>
					<g id="shape1523-32" v:mID="1523" v:groupContext="shape" v:layerMember="0" transform="translate(3.75,0)">
						<title>Sheet.1523</title>
						<rect x="0" y="69.75" width="2.25" height="2.25" class="st2"/>
					</g>
					<g id="shape1524-34" v:mID="1524" v:groupContext="shape" v:layerMember="0" transform="translate(8.25,0)">
						<title>Sheet.1524</title>
						<rect x="0" y="69.75" width="2.25" height="2.25" class="st2"/>
					</g>
					<g id="shape1525-36" v:mID="1525" v:groupContext="shape" v:layerMember="0" transform="translate(12.75,0)">
						<title>Sheet.1525</title>
						<rect x="0" y="69.75" width="2.25" height="2.25" class="st2"/>
					</g>
					<g id="shape1526-38" v:mID="1526" v:groupContext="shape" v:layerMember="0" transform="translate(17.25,0)">
						<title>Sheet.1526</title>
						<rect x="0" y="69.75" width="2.25" height="2.25" class="st2"/>
					</g>
					<g id="shape1527-40" v:mID="1527" v:groupContext="shape" v:layerMember="0" transform="translate(21.75,0)">
						<title>Sheet.1527</title>
						<rect x="0" y="69.75" width="2.25" height="2.25" class="st2"/>
					</g>
				</g>
				<g id="group1528-42" transform="translate(27.75,-2.25)" v:mID="1528" v:groupContext="group" v:layerMember="0">
					<title>Sheet.1528</title>
					<g id="shape1529-43" v:mID="1529" v:groupContext="shape" v:layerMember="0" transform="translate(0,-45)">
						<title>Sheet.1529</title>
						<rect x="0" y="69.75" width="2.25" height="2.25" class="st2"/>
					</g>
					<g id="shape1530-45" v:mID="1530" v:groupContext="shape" v:layerMember="0" transform="translate(0,-40.5)">
						<title>Sheet.1530</title>
						<rect x="0" y="69.75" width="2.25" height="2.25" class="st2"/>
					</g>
					<g id="shape1531-47" v:mID="1531" v:groupContext="shape" v:layerMember="0" transform="translate(0,-36)">
						<title>Sheet.1531</title>
						<rect x="0" y="69.75" width="2.25" height="2.25" class="st2"/>
					</g>
					<g id="shape1532-49" v:mID="1532" v:groupContext="shape" v:layerMember="0" transform="translate(0,-31.5)">
						<title>Sheet.1532</title>
						<rect x="0" y="69.75" width="2.25" height="2.25" class="st2"/>
					</g>
					<g id="shape1533-51" v:mID="1533" v:groupContext="shape" v:layerMember="0" transform="translate(0,-27)">
						<title>Sheet.1533</title>
						<rect x="0" y="69.75" width="2.25" height="2.25" class="st2"/>
					</g>
					<g id="shape1534-53" v:mID="1534" v:groupContext="shape" v:layerMember="0" transform="translate(0,-22.5)">
						<title>Sheet.1534</title>
						<rect x="0" y="69.75" width="2.25" height="2.25" class="st2"/>
					</g>
					<g id="shape1535-55" v:mID="1535" v:groupContext="shape" v:layerMember="0" transform="translate(0,-18)">
						<title>Sheet.1535</title>
						<rect x="0" y="69.75" width="2.25" height="2.25" class="st2"/>
					</g>
					<g id="shape1536-57" v:mID="1536" v:groupContext="shape" v:layerMember="0" transform="translate(0,-13.5)">
						<title>Sheet.1536</title>
						<rect x="0" y="69.75" width="2.25" height="2.25" class="st2"/>
					</g>
					<g id="shape1537-59" v:mID="1537" v:groupContext="shape" v:layerMember="0" transform="translate(0,-9)">
						<title>Sheet.1537</title>
						<rect x="0" y="69.75" width="2.25" height="2.25" class="st2"/>
					</g>
					<g id="shape1538-61" v:mID="1538" v:groupContext="shape" v:layerMember="0" transform="translate(0,-4.5)">
						<title>Sheet.1538</title>
						<rect x="0" y="69.75" width="2.25" height="2.25" class="st2"/>
					</g>
					<g id="shape1539-63" v:mID="1539" v:groupContext="shape" v:layerMember="0">
						<title>Sheet.1539</title>
						<rect x="0" y="69.75" width="2.25" height="2.25" class="st2"/>
					</g>
				</g>
			</g>
			<g id="group1540-65" transform="translate(15.75,0)" v:mID="1540" v:groupContext="group" v:layerMember="0">
				<title>Sheet.1540</title>
				<g id="shape1541-66" v:mID="1541" v:groupContext="shape" v:layerMember="0">
					<title>Sheet.1541</title>
					<ellipse cx="16.5" cy="55.5" rx="16.5" ry="16.5" class="st1"/>
				</g>
				<g id="group1542-68" transform="translate(2.325,-2.325)" v:mID="1542" v:groupContext="group" v:layerMember="0">
					<title>Sheet.1542</title>
					<g id="shape1543-69" v:mID="1543" v:groupContext="shape" v:layerMember="0"
							transform="translate(15.075,-14.625)">
						<title>Sheet.1543</title>
						<path d="M5.63 64.8 C3.9 65.33 1.95 65.62 0 65.7 L0 72 C2.4 71.93 4.73 71.62 6.83 71.02 C6.6 68.77 6.23 66.68
									 5.63 64.8 Z" class="st2"/>
					</g>
					<g id="shape1544-71" v:mID="1544" v:groupContext="shape" v:layerMember="0" transform="translate(4.725,-23.775)">
						<title>Sheet.1544</title>
						<path d="M4.5 68.25 C2.85 68.85 1.35 69.83 0 70.95 C0.68 71.32 1.43 71.7 2.18 72 C2.85 70.58 3.6 69.3 4.5
									 68.25 Z" class="st2"/>
					</g>
					<g id="shape1545-73" v:mID="1545" v:groupContext="shape" v:layerMember="0" transform="translate(8.4,-22.35)">
						<title>Sheet.1545</title>
						<path d="M0 71.17 C1.58 71.62 3.3 71.92 5.1 72 L5.1 66 C4.87 66 4.72 66 4.5 66 C2.7 66.6 1.13 68.47 0 71.17
									 Z" class="st2"/>
					</g>
					<g id="shape1546-75" v:mID="1546" v:groupContext="shape" v:layerMember="0" transform="translate(6.75,-14.625)">
						<title>Sheet.1546</title>
						<path d="M0 71.02 C2.1 71.62 4.43 71.93 6.83 72 L6.83 65.7 C4.88 65.62 2.93 65.33 1.2 64.8 C0.45 66.68 0.08
									 68.77 0 71.02 Z" class="st2"/>
					</g>
					<g id="shape1547-77" v:mID="1547" v:groupContext="shape" v:layerMember="0" transform="translate(22.65,-8.4)">
						<title>Sheet.1547</title>
						<path d="M0.68 66.07 C0.68 68.17 0.45 70.2 0 72 C2.03 71.25 3.9 70.27 5.48 69.08 C5.7 68.1 5.78 67.13 5.78
									 66.15 C5.78 65.25 5.7 64.35 5.55 63.53 C4.13 64.5 2.48 65.25 0.6 65.85 C0.68 66 0.68 66 0.68
									 66.07 Z" class="st2"/>
					</g>
					<g id="shape1548-79" v:mID="1548" v:groupContext="shape" v:layerMember="0"
							transform="translate(-1.40887E-13,-8.25)">
						<title>Sheet.1548</title>
						<path d="M5.18 65.92 C5.18 65.85 5.18 65.78 5.18 65.7 C3.38 65.1 1.65 64.28 0.22 63.38 C0.07 64.2 0 65.1
									 0 66 C0 67.2 0.15 68.32 0.45 69.37 C2.1 70.5 3.9 71.4 5.85 72 C5.4 70.2 5.18 68.17 5.18 65.92
									 Z" class="st2"/>
					</g>
					<g id="shape1549-81" v:mID="1549" v:groupContext="shape" v:layerMember="0" transform="translate(0.675,-16.05)">
						<title>Sheet.1549</title>
						<path d="M3 64.35 C1.65 65.85 0.6 67.65 0 69.68 C1.28 70.65 2.85 71.4 4.58 72 C4.73 69.75 5.1 67.58 5.78
									 65.78 C4.73 65.33 3.83 64.88 3 64.35 Z" class="st2"/>
					</g>
					<g id="shape1550-83" v:mID="1550" v:groupContext="shape" v:layerMember="0"
							transform="translate(14.925,-22.425)">
						<title>Sheet.1550</title>
						<path d="M0.07 72 C1.87 71.92 3.6 71.62 5.17 71.17 C4.05 68.55 2.4 66.6 0.6 66 C0.37 66 0.22 66 0 66 L0 72
									 L0.07 72 Z" class="st2"/>
					</g>
					<g id="shape1551-85" v:mID="1551" v:groupContext="shape" v:layerMember="0" transform="translate(1.2,-0.825)">
						<title>Sheet.1551</title>
						<path d="M5.18 66.37 C3.3 65.85 1.58 65.1 0 64.2 C1.58 67.8 4.58 70.65 8.33 72 C6.98 70.65 5.93 68.7 5.18
									 66.37 Z" class="st2"/>
					</g>
					<g id="shape1552-87" v:mID="1552" v:groupContext="shape" v:layerMember="0" transform="translate(19.275,-23.7)">
						<title>Sheet.1552</title>
						<path d="M0 68.18 C0.9 69.23 1.65 70.5 2.25 72 C3 71.7 3.75 71.33 4.43 70.95 C3.23 69.75 1.73 68.78 0 68.18
									 Z" class="st2"/>
					</g>
					<g id="shape1553-89" v:mID="1553" v:groupContext="shape" v:layerMember="0" transform="translate(22.125,-16.05)">
						<title>Sheet.1553</title>
						<path d="M5.78 69.68 C5.18 67.65 4.13 65.85 2.78 64.35 C1.95 64.88 1.05 65.33 0 65.78 C0.6 67.65 1.05 69.75
									 1.2 72 C2.93 71.4 4.43 70.58 5.78 69.68 Z" class="st2"/>
					</g>
					<g id="shape1554-91" v:mID="1554" v:groupContext="shape" v:layerMember="0" transform="translate(19.05,-0.825)">
						<title>Sheet.1554</title>
						<path d="M3.15 66.22 C2.4 68.62 1.35 70.57 0 72 C3.82 70.65 6.9 67.65 8.4 63.82 C6.83 64.87 5.1 65.62 3.15
									 66.22 Z" class="st2"/>
					</g>
					<g id="shape1555-93" v:mID="1555" v:groupContext="shape" v:layerMember="0"
							transform="translate(8.1,1.42109E-13)">
						<title>Sheet.1555</title>
						<path d="M5.4 72 L5.4 66.67 C3.53 66.67 1.73 66.45 0 66.07 C1.28 69.3 3.23 71.55 5.4 72 Z" class="st2"/>
					</g>
					<g id="shape1556-95" v:mID="1556" v:groupContext="shape" v:layerMember="0" transform="translate(15,-6.825)">
						<title>Sheet.1556</title>
						<path d="M6.83 64.8 C4.73 65.33 2.4 65.7 0 65.78 L0 72 C2.03 71.93 4.05 71.62 6 71.1 C6.53 69.15 6.83 66.97
									 6.83 64.8 Z" class="st2"/>
					</g>
					<g id="shape1557-97" v:mID="1557" v:groupContext="shape" v:layerMember="0" transform="translate(6.675,-6.9)">
						<title>Sheet.1557</title>
						<path d="M6.83 72 L6.83 65.78 C4.43 65.7 2.1 65.4 0 64.8 C0 67.13 0.38 69.3 0.9 71.18 C2.78 71.7 4.8 72 6.83
									 72 Z" class="st2"/>
					</g>
					<g id="shape1558-99" v:mID="1558" v:groupContext="shape" v:layerMember="0" transform="translate(15,-0.075)">
						<title>Sheet.1558</title>
						<path d="M0 66.68 L0 72 C2.18 71.55 4.2 69.23 5.4 65.93 C3.68 66.37 1.88 66.6 0 66.68 Z" class="st2"/>
					</g>
				</g>
			</g>
		</g>
	</g>
</svg>
