<?xml version="1.0" encoding="UTF-8" standalone="no"?>
<!DOCTYPE svg PUBLIC "-//W3C//DTD SVG 1.1//EN" "http://www.w3.org/Graphics/SVG/1.1/DTD/svg11.dtd">
<!-- Generated by Microsoft Visio, SVG Export Virtual Application Server - blue.svg Page-1 -->
<svg xmlns="http://www.w3.org/2000/svg" xmlns:xlink="http://www.w3.org/1999/xlink" xmlns:ev="http://www.w3.org/2001/xml-events"
		xmlns:v="http://schemas.microsoft.com/visio/2003/SVGExtensions/" width="0.859375in" height="0.984375in"
		viewBox="0 0 61.875 70.875" xml:space="preserve" color-interpolation-filters="sRGB" class="st3">
	<v:documentProperties v:langID="4108" v:metric="true" v:viewMarkup="false"/>

	<style type="text/css">
	<![CDATA[
		.st1 {fill:#ffffff;stroke:none;stroke-linecap:butt;stroke-width:0.75}
		.st2 {fill:#2072b8;stroke:none;stroke-linecap:butt;stroke-width:0.75}
		.st3 {fill:none;fill-rule:evenodd;font-size:12px;overflow:visible;stroke-linecap:square;stroke-miterlimit:3}
	]]>
	</style>

	<g v:mID="0" v:index="1" v:groupContext="foregroundPage">
		<title>Page-1</title>
		<v:pageProperties v:drawingScale="0.0393701" v:pageScale="0.0393701" v:drawingUnits="24" v:shadowOffsetX="8.50394"
				v:shadowOffsetY="-8.50394"/>
		<v:layer v:name="symbols" v:index="0"/>
		<g id="group1337-1" transform="translate(7.65,-6.5625)" v:mID="1337" v:groupContext="group" v:layerMember="0">
			<title>Virtual Application Server - blue</title>
			<g id="group1338-2" v:mID="1338" v:groupContext="group" v:layerMember="0">
				<title>Sheet.1338</title>
				<g id="shape1339-3" v:mID="1339" v:groupContext="shape" v:layerMember="0" transform="translate(2.59792E-13,-3.75)">
					<title>Sheet.1339</title>
					<path d="M0 70.87 L0 19.87 C0 16.95 2.32 14.62 5.25 14.62 L27 14.62 C29.92 14.62 32.25 16.95 32.25 19.87 L32.25
								 70.87 L0 70.87 Z" class="st1"/>
				</g>
				<g id="shape1340-5" v:mID="1340" v:groupContext="shape" v:layerMember="0" transform="translate(2.475,-55.05)">
					<title>Sheet.1340</title>
					<path d="M23.78 68.17 L21.53 68.17 L21.53 70.42 L23.78 70.42 L23.78 68.17 ZM19.27 68.17 L17.03 68.17 L17.03 70.42
								 L19.27 70.42 L19.27 68.17 ZM14.78 68.17 L12.52 68.17 L12.52 70.42 L14.78 70.42 L14.78 68.17 ZM10.28
								 68.17 L8.03 68.17 L8.03 70.42 L10.28 70.42 L10.28 68.17 ZM5.77 68.17 L3.53 68.17 L3.53 70.42 L5.77
								 70.42 L5.77 68.17 ZM1.35 68.55 C1.28 68.55 1.28 68.55 1.35 68.55 C1.28 68.55 1.28 68.55 1.35 68.55
								 C1.28 68.55 1.28 68.55 1.35 68.55 C1.28 68.55 1.28 68.55 1.35 68.55 C1.28 68.55 1.28 68.55 1.35
								 68.55 C1.28 68.55 1.28 68.55 1.35 68.55 C1.28 68.55 1.28 68.55 1.35 68.55 C1.28 68.55 1.28 68.55
								 1.35 68.55 C1.28 68.55 1.28 68.55 1.35 68.55 C1.28 68.55 1.28 68.55 1.35 68.55 C1.28 68.55 1.28
								 68.55 1.35 68.55 C1.28 68.55 1.28 68.55 1.35 68.55 C1.28 68.55 1.28 68.55 1.35 68.55 C1.28 68.55
								 1.28 68.55 1.35 68.55 C1.28 68.55 1.28 68.55 1.35 68.55 C1.28 68.55 1.28 68.55 1.35 68.55 C1.28
								 68.55 1.28 68.55 1.35 68.55 C1.28 68.55 1.28 68.55 1.35 68.55 C1.28 68.55 1.28 68.55 1.35 68.55
								 C1.28 68.55 1.28 68.55 1.35 68.55 C1.28 68.55 1.28 68.55 1.28 68.55 C0.67 68.93 0.22 69.45 0 70.2
								 L2.1 70.87 C2.17 70.73 2.33 70.57 2.48 70.42 L1.35 68.55 ZM25.65 68.4 L24.83 70.5 C24.98 70.57 25.12
								 70.72 25.2 70.87 L27.23 69.97 C26.92 69.3 26.4 68.77 25.73 68.47 C25.73 68.4 25.73 68.4 25.65 68.4
								 C25.73 68.4 25.73 68.4 25.65 68.4 C25.73 68.4 25.73 68.4 25.65 68.4 C25.73 68.4 25.73 68.4 25.65
								 68.4 C25.73 68.4 25.73 68.4 25.65 68.4 C25.73 68.4 25.73 68.4 25.65 68.4 C25.73 68.4 25.73 68.4
								 25.65 68.4 C25.73 68.4 25.73 68.4 25.65 68.4 C25.73 68.4 25.73 68.4 25.65 68.4 C25.73 68.4 25.73
								 68.4 25.65 68.4 C25.73 68.4 25.73 68.4 25.65 68.4 C25.73 68.4 25.73 68.4 25.65 68.4 C25.73 68.4
								 25.73 68.4 25.65 68.4 C25.73 68.4 25.73 68.4 25.65 68.4 C25.73 68.4 25.73 68.4 25.65 68.4 C25.73
								 68.4 25.73 68.4 25.65 68.4 C25.73 68.4 25.73 68.4 25.65 68.4 C25.73 68.4 25.73 68.4 25.65 68.4 C25.73
								 68.4 25.73 68.4 25.65 68.4 C25.73 68.4 25.73 68.4 25.65 68.4 C25.73 68.4 25.73 68.4 25.65 68.4 C25.73
								 68.4 25.73 68.4 25.65 68.4 C25.73 68.4 25.73 68.4 25.65 68.4 C25.73 68.4 25.73 68.4 25.65 68.4 Z"
							class="st2"/>
				</g>
				<g id="shape1341-7" v:mID="1341" v:groupContext="shape" v:layerMember="0" transform="translate(8.25,-12)">
					<title>Sheet.1341</title>
					<path d="M15.75 70.87 L0 70.87 L0 68.62 L15.75 68.62 L15.75 70.87 ZM15.75 64.88 L0 64.88 L0 62.63 L15.75 62.63
								 L15.75 64.88 ZM15.75 34.13 L0 34.13 L0 31.87 L15.75 31.87 L15.75 34.13 Z" class="st2"/>
				</g>
				<g id="group1342-9" transform="translate(2.25,-6)" v:mID="1342" v:groupContext="group" v:layerMember="0">
					<title>Sheet.1342</title>
					<g id="shape1343-10" v:mID="1343" v:groupContext="shape" v:layerMember="0" transform="translate(0,-45)">
						<title>Sheet.1343</title>
						<rect x="0" y="68.625" width="2.25" height="2.25" class="st2"/>
					</g>
					<g id="shape1344-12" v:mID="1344" v:groupContext="shape" v:layerMember="0" transform="translate(0,-40.5)">
						<title>Sheet.1344</title>
						<rect x="0" y="68.625" width="2.25" height="2.25" class="st2"/>
					</g>
					<g id="shape1345-14" v:mID="1345" v:groupContext="shape" v:layerMember="0" transform="translate(0,-36)">
						<title>Sheet.1345</title>
						<rect x="0" y="68.625" width="2.25" height="2.25" class="st2"/>
					</g>
					<g id="shape1346-16" v:mID="1346" v:groupContext="shape" v:layerMember="0" transform="translate(0,-31.5)">
						<title>Sheet.1346</title>
						<rect x="0" y="68.625" width="2.25" height="2.25" class="st2"/>
					</g>
					<g id="shape1347-18" v:mID="1347" v:groupContext="shape" v:layerMember="0" transform="translate(0,-27)">
						<title>Sheet.1347</title>
						<rect x="0" y="68.625" width="2.25" height="2.25" class="st2"/>
					</g>
					<g id="shape1348-20" v:mID="1348" v:groupContext="shape" v:layerMember="0" transform="translate(0,-22.5)">
						<title>Sheet.1348</title>
						<rect x="0" y="68.625" width="2.25" height="2.25" class="st2"/>
					</g>
					<g id="shape1349-22" v:mID="1349" v:groupContext="shape" v:layerMember="0" transform="translate(0,-18)">
						<title>Sheet.1349</title>
						<rect x="0" y="68.625" width="2.25" height="2.25" class="st2"/>
					</g>
					<g id="shape1350-24" v:mID="1350" v:groupContext="shape" v:layerMember="0" transform="translate(0,-13.5)">
						<title>Sheet.1350</title>
						<rect x="0" y="68.625" width="2.25" height="2.25" class="st2"/>
					</g>
					<g id="shape1351-26" v:mID="1351" v:groupContext="shape" v:layerMember="0" transform="translate(0,-9)">
						<title>Sheet.1351</title>
						<rect x="0" y="68.625" width="2.25" height="2.25" class="st2"/>
					</g>
					<g id="shape1352-28" v:mID="1352" v:groupContext="shape" v:layerMember="0" transform="translate(0,-4.5)">
						<title>Sheet.1352</title>
						<rect x="0" y="68.625" width="2.25" height="2.25" class="st2"/>
					</g>
					<g id="shape1353-30" v:mID="1353" v:groupContext="shape" v:layerMember="0">
						<title>Sheet.1353</title>
						<rect x="0" y="68.625" width="2.25" height="2.25" class="st2"/>
					</g>
					<g id="shape1354-32" v:mID="1354" v:groupContext="shape" v:layerMember="0" transform="translate(3.75,0)">
						<title>Sheet.1354</title>
						<rect x="0" y="68.625" width="2.25" height="2.25" class="st2"/>
					</g>
					<g id="shape1355-34" v:mID="1355" v:groupContext="shape" v:layerMember="0" transform="translate(8.25,0)">
						<title>Sheet.1355</title>
						<rect x="0" y="68.625" width="2.25" height="2.25" class="st2"/>
					</g>
					<g id="shape1356-36" v:mID="1356" v:groupContext="shape" v:layerMember="0" transform="translate(12.75,0)">
						<title>Sheet.1356</title>
						<rect x="0" y="68.625" width="2.25" height="2.25" class="st2"/>
					</g>
					<g id="shape1357-38" v:mID="1357" v:groupContext="shape" v:layerMember="0" transform="translate(17.25,0)">
						<title>Sheet.1357</title>
						<rect x="0" y="68.625" width="2.25" height="2.25" class="st2"/>
					</g>
					<g id="shape1358-40" v:mID="1358" v:groupContext="shape" v:layerMember="0" transform="translate(21.75,0)">
						<title>Sheet.1358</title>
						<rect x="0" y="68.625" width="2.25" height="2.25" class="st2"/>
					</g>
				</g>
				<g id="group1359-42" transform="translate(27.75,-6)" v:mID="1359" v:groupContext="group" v:layerMember="0">
					<title>Sheet.1359</title>
					<g id="shape1360-43" v:mID="1360" v:groupContext="shape" v:layerMember="0" transform="translate(0,-45)">
						<title>Sheet.1360</title>
						<rect x="0" y="68.625" width="2.25" height="2.25" class="st2"/>
					</g>
					<g id="shape1361-45" v:mID="1361" v:groupContext="shape" v:layerMember="0" transform="translate(0,-40.5)">
						<title>Sheet.1361</title>
						<rect x="0" y="68.625" width="2.25" height="2.25" class="st2"/>
					</g>
					<g id="shape1362-47" v:mID="1362" v:groupContext="shape" v:layerMember="0" transform="translate(0,-36)">
						<title>Sheet.1362</title>
						<rect x="0" y="68.625" width="2.25" height="2.25" class="st2"/>
					</g>
					<g id="shape1363-49" v:mID="1363" v:groupContext="shape" v:layerMember="0" transform="translate(0,-31.5)">
						<title>Sheet.1363</title>
						<rect x="0" y="68.625" width="2.25" height="2.25" class="st2"/>
					</g>
					<g id="shape1364-51" v:mID="1364" v:groupContext="shape" v:layerMember="0" transform="translate(0,-27)">
						<title>Sheet.1364</title>
						<rect x="0" y="68.625" width="2.25" height="2.25" class="st2"/>
					</g>
					<g id="shape1365-53" v:mID="1365" v:groupContext="shape" v:layerMember="0" transform="translate(0,-22.5)">
						<title>Sheet.1365</title>
						<rect x="0" y="68.625" width="2.25" height="2.25" class="st2"/>
					</g>
					<g id="shape1366-55" v:mID="1366" v:groupContext="shape" v:layerMember="0" transform="translate(0,-18)">
						<title>Sheet.1366</title>
						<rect x="0" y="68.625" width="2.25" height="2.25" class="st2"/>
					</g>
					<g id="shape1367-57" v:mID="1367" v:groupContext="shape" v:layerMember="0" transform="translate(0,-13.5)">
						<title>Sheet.1367</title>
						<rect x="0" y="68.625" width="2.25" height="2.25" class="st2"/>
					</g>
					<g id="shape1368-59" v:mID="1368" v:groupContext="shape" v:layerMember="0" transform="translate(0,-9)">
						<title>Sheet.1368</title>
						<rect x="0" y="68.625" width="2.25" height="2.25" class="st2"/>
					</g>
					<g id="shape1369-61" v:mID="1369" v:groupContext="shape" v:layerMember="0" transform="translate(0,-4.5)">
						<title>Sheet.1369</title>
						<rect x="0" y="68.625" width="2.25" height="2.25" class="st2"/>
					</g>
					<g id="shape1370-63" v:mID="1370" v:groupContext="shape" v:layerMember="0">
						<title>Sheet.1370</title>
						<rect x="0" y="68.625" width="2.25" height="2.25" class="st2"/>
					</g>
				</g>
				<g id="shape1371-65" v:mID="1371" v:groupContext="shape" v:layerMember="0" transform="translate(18.75,0)">
					<title>Sheet.1371</title>
					<path d="M3.75 70.87 C1.65 70.87 0 69.22 0 67.12 L0 46.87 C0 44.78 1.65 43.12 3.75 43.13 L30 43.13 C32.1 43.13
								 33.75 44.78 33.75 46.87 L33.75 67.12 C33.75 69.22 32.1 70.87 30 70.87 L3.75 70.87 Z" class="st1"/>
				</g>
				<g id="shape1372-67" v:mID="1372" v:groupContext="shape" v:layerMember="0" transform="translate(21,-2.25)">
					<title>Sheet.1372</title>
					<path d="M27.75 47.63 L1.5 47.63 C0.6 47.63 0 48.22 0 49.13 L0 69.37 C0 70.28 0.6 70.87 1.5 70.87 L27.75 70.87
								 C28.65 70.87 29.25 70.28 29.25 69.37 L29.25 49.13 C29.25 48.22 28.65 47.63 27.75 47.63 ZM27.75 69.37
								 L1.5 69.37 L1.5 52.12 L27.75 52.12 L27.75 69.37 Z" class="st2"/>
				</g>
				<g id="shape1373-69" v:mID="1373" v:groupContext="shape" v:layerMember="0" transform="translate(47.25,-22.5)">
					<title>Sheet.1373</title>
					<rect x="0" y="69.375" width="1.5" height="1.5" class="st1"/>
				</g>
				<g id="shape1374-71" v:mID="1374" v:groupContext="shape" v:layerMember="0" transform="translate(44.25,-22.5)">
					<title>Sheet.1374</title>
					<rect x="0" y="69.375" width="1.5" height="1.5" class="st1"/>
				</g>
				<g id="shape1375-73" v:mID="1375" v:groupContext="shape" v:layerMember="0" transform="translate(41.25,-22.5)">
					<title>Sheet.1375</title>
					<rect x="0" y="69.375" width="1.5" height="1.5" class="st1"/>
				</g>
			</g>
		</g>
	</g>
</svg>
