<?xml version="1.0" encoding="UTF-8" standalone="no"?>
<!DOCTYPE svg PUBLIC "-//W3C//DTD SVG 1.1//EN" "http://www.w3.org/Graphics/SVG/1.1/DTD/svg11.dtd">
<!-- Generated by Microsoft Visio, SVG Export Voicemail Preview Partner.svg Page-1 -->
<svg xmlns="http://www.w3.org/2000/svg" xmlns:xlink="http://www.w3.org/1999/xlink" xmlns:ev="http://www.w3.org/2001/xml-events"
		xmlns:v="http://schemas.microsoft.com/visio/2003/SVGExtensions/" width="0.828125in" height="0.984375in"
		viewBox="0 0 59.625 70.875" xml:space="preserve" color-interpolation-filters="sRGB" class="st4">
	<v:documentProperties v:langID="4108" v:metric="true" v:viewMarkup="false"/>

	<style type="text/css">
	<![CDATA[
		.st1 {fill:#ffffff;stroke:none;stroke-linecap:butt;stroke-width:0.75}
		.st2 {fill:#515050;stroke:none;stroke-linecap:butt;stroke-width:0.75}
		.st3 {fill:#515150;stroke:none;stroke-linecap:butt;stroke-width:0.75}
		.st4 {fill:none;fill-rule:evenodd;font-size:12px;overflow:visible;stroke-linecap:square;stroke-miterlimit:3}
	]]>
	</style>

	<g v:mID="0" v:index="1" v:groupContext="foregroundPage">
		<title>Page-1</title>
		<v:pageProperties v:drawingScale="0.0393701" v:pageScale="0.0393701" v:drawingUnits="24" v:shadowOffsetX="8.50394"
				v:shadowOffsetY="-8.50394"/>
		<v:layer v:name="symbols" v:index="0"/>
		<g id="group1559-1" transform="translate(7.875,-5.0625)" v:mID="1559" v:groupContext="group" v:layerMember="0">
			<title>Voicemail Preview Partner</title>
			<g id="group1560-2" transform="translate(-2.43805E-13,-3.75)" v:mID="1560" v:groupContext="group" v:layerMember="0">
				<title>Sheet.1560</title>
				<g id="shape1561-3" v:mID="1561" v:groupContext="shape" v:layerMember="0">
					<title>Sheet.1561</title>
					<path d="M0 70.87 L0 19.12 C0 16.2 2.33 13.87 5.25 13.87 L26.25 13.87 C29.18 13.87 31.5 16.2 31.5 19.12 L31.5
								 70.87 L0 70.87 Z" class="st1"/>
				</g>
				<g id="shape1562-5" v:mID="1562" v:groupContext="shape" v:layerMember="0" transform="translate(2.25,-2.25)">
					<title>Sheet.1562</title>
					<path d="M24 18.37 L3 18.37 C1.35 18.37 0 19.72 0 21.37 L0 70.87 L27 70.87 L27 21.37 C27 19.72 25.65 18.37 24
								 18.37 ZM21.75 64.87 L5.25 64.87 L5.25 62.62 L21.75 62.62 L21.75 64.87 ZM21.75 58.12 L5.25 58.12
								 L5.25 55.87 L21.75 55.87 L21.75 58.12 ZM21.75 27.37 L5.25 27.37 L5.25 25.12 L21.75 25.12 L21.75
								 27.37 Z" class="st2"/>
				</g>
			</g>
			<g id="group1563-7" transform="translate(17.25,0)" v:mID="1563" v:groupContext="group" v:layerMember="0">
				<title>Sheet.1563</title>
				<g id="shape1564-8" v:mID="1564" v:groupContext="shape" v:layerMember="0">
					<title>Sheet.1564</title>
					<path d="M3.75 70.87 C1.65 70.87 0 69.22 0 67.12 L0 51.37 C0 49.27 1.65 47.62 3.75 47.62 L30 47.62 C32.1 47.62
								 33.75 49.27 33.75 51.37 L33.75 67.12 C33.75 69.22 32.1 70.87 30 70.87 L3.75 70.87 Z" class="st1"/>
				</g>
				<g id="shape1565-10" v:mID="1565" v:groupContext="shape" v:layerMember="0" transform="translate(21,-9.375)">
					<title>Sheet.1565</title>
					<path d="M2.63 65.62 C1.2 65.62 0 66.82 0 68.25 C0 69.67 1.2 70.87 2.63 70.87 C4.05 70.87 5.25 69.67 5.25 68.25
								 C5.25 66.82 4.05 65.62 2.63 65.62 Z" class="st3"/>
				</g>
				<g id="shape1566-12" v:mID="1566" v:groupContext="shape" v:layerMember="0" transform="translate(7.5,-9.375)">
					<title>Sheet.1566</title>
					<path d="M2.63 65.62 C1.2 65.62 0 66.82 0 68.25 C0 69.67 1.2 70.87 2.63 70.87 C4.05 70.87 5.25 69.67 5.25 68.25
								 C5.25 66.82 4.05 65.62 2.63 65.62 Z" class="st3"/>
				</g>
				<g id="shape1567-14" v:mID="1567" v:groupContext="shape" v:layerMember="0" transform="translate(2.25,-2.25)">
					<title>Sheet.1567</title>
					<path d="M27.75 52.12 L1.5 52.12 C0.67 52.12 0 52.8 0 53.62 L0 69.37 C-0 70.2 0.67 70.87 1.5 70.87 L27.75 70.87
								 C28.58 70.87 29.25 70.2 29.25 69.37 L29.25 53.62 C29.25 52.8 28.58 52.12 27.75 52.12 ZM26.62 61.42
								 C26.48 64.27 24 66.37 21.15 66.37 L8.1 66.37 C5.32 66.37 2.85 64.27 2.7 61.42 C2.48 58.12 5.32 55.5
								 8.62 55.87 C10.73 56.17 12.53 57.75 13.05 59.77 C13.35 61.05 13.2 62.32 12.67 63.37 C12.53 63.67
								 12.75 64.05 13.12 64.05 L16.35 64.05 C16.72 64.05 16.95 63.67 16.8 63.37 C16.28 62.25 16.12 61.05
								 16.42 59.77 C16.95 57.67 18.75 56.17 20.85 55.87 C24 55.5 26.78 58.2 26.62 61.42 Z" class="st3"/>
				</g>
			</g>
		</g>
	</g>
</svg>
