<?xml version="1.0" encoding="UTF-8" standalone="no"?>
<!DOCTYPE svg PUBLIC "-//W3C//DTD SVG 1.1//EN" "http://www.w3.org/Graphics/SVG/1.1/DTD/svg11.dtd">
<!-- Generated by Microsoft Visio, SVG Export Web Server - ghosted.svg Page-1 -->
<svg xmlns="http://www.w3.org/2000/svg" xmlns:xlink="http://www.w3.org/1999/xlink" xmlns:ev="http://www.w3.org/2001/xml-events"
		xmlns:v="http://schemas.microsoft.com/visio/2003/SVGExtensions/" width="0.84375in" height="1in" viewBox="0 0 60.75 72"
		xml:space="preserve" color-interpolation-filters="sRGB" class="st5">
	<v:documentProperties v:langID="4108" v:metric="true" v:viewMarkup="false"/>

	<style type="text/css">
	<![CDATA[
		.st1 {fill:#ffffff;stroke:none;stroke-linecap:butt;stroke-width:0.75}
		.st2 {fill:#515050;stroke:none;stroke-linecap:butt;stroke-width:0.75}
		.st3 {fill:#9c9c9d;stroke:none;stroke-linecap:butt;stroke-width:0.75}
		.st4 {fill:#cccbcb;stroke:none;stroke-linecap:butt;stroke-width:0.75}
		.st5 {fill:none;fill-rule:evenodd;font-size:12px;overflow:visible;stroke-linecap:square;stroke-miterlimit:3}
	]]>
	</style>

	<g v:mID="0" v:index="1" v:groupContext="foregroundPage">
		<title>Page-1</title>
		<v:pageProperties v:drawingScale="0.0393701" v:pageScale="0.0393701" v:drawingUnits="24" v:shadowOffsetX="8.50394"
				v:shadowOffsetY="-8.50394"/>
		<v:layer v:name="symbols" v:index="0"/>
		<g id="group1660-1" transform="translate(7.0875,-4.6875)" v:mID="1660" v:groupContext="group" v:layerMember="0">
			<title>Web Server - ghosted</title>
			<g id="group1661-2" v:mID="1661" v:groupContext="group" v:layerMember="0">
				<title>Sheet.1661</title>
				<g id="shape1662-3" v:mID="1662" v:groupContext="shape" v:layerMember="0" transform="translate(0,-4.5)">
					<title>Sheet.1662</title>
					<path d="M0 72 L0 20.25 C0 17.33 2.33 15 5.25 15 L26.25 15 C29.18 15 31.5 17.33 31.5 20.25 L31.5 72 L0 72 Z"
							class="st1"/>
				</g>
				<g id="shape1663-5" v:mID="1663" v:groupContext="shape" v:layerMember="0" transform="translate(2.25,-6.75)">
					<title>Sheet.1663</title>
					<path d="M24 19.5 L3 19.5 C1.35 19.5 0 20.85 0 22.5 L0 72 L27 72 L27 22.5 C27 20.85 25.65 19.5 24 19.5 ZM21.75
								 66 L5.25 66 L5.25 63.75 L21.75 63.75 L21.75 66 ZM21.75 59.25 L5.25 59.25 L5.25 57 L21.75 57 L21.75
								 59.25 ZM21.75 28.5 L5.25 28.5 L5.25 26.25 L21.75 26.25 L21.75 28.5 Z" class="st2"/>
				</g>
				<g id="shape1664-7" v:mID="1664" v:groupContext="shape" v:layerMember="0" transform="translate(19.5,0)">
					<title>Sheet.1664</title>
					<ellipse cx="16.5" cy="55.5" rx="16.5" ry="16.5" class="st1"/>
				</g>
				<g id="group1665-9" transform="translate(21.825,-2.325)" v:mID="1665" v:groupContext="group" v:layerMember="0">
					<title>Sheet.1665</title>
					<g id="shape1666-10" v:mID="1666" v:groupContext="shape" v:layerMember="0"
							transform="translate(15.075,-14.625)">
						<title>Sheet.1666</title>
						<path d="M5.63 64.8 C3.9 65.33 1.95 65.63 0 65.7 L0 72 C2.4 71.93 4.73 71.63 6.83 71.03 C6.6 68.78 6.23 66.68
									 5.63 64.8 Z" class="st3"/>
					</g>
					<g id="shape1667-12" v:mID="1667" v:groupContext="shape" v:layerMember="0" transform="translate(4.725,-23.775)">
						<title>Sheet.1667</title>
						<path d="M4.5 68.25 C2.85 68.85 1.35 69.83 0 70.95 C0.68 71.33 1.43 71.7 2.18 72 C2.85 70.58 3.6 69.3 4.5
									 68.25 Z" class="st3"/>
					</g>
					<g id="shape1668-14" v:mID="1668" v:groupContext="shape" v:layerMember="0" transform="translate(8.4,-22.35)">
						<title>Sheet.1668</title>
						<path d="M0 71.18 C1.57 71.63 3.3 71.93 5.1 72 L5.1 66 C4.87 66 4.72 66 4.5 66 C2.7 66.6 1.12 68.48 0 71.18
									 Z" class="st3"/>
					</g>
					<g id="shape1669-16" v:mID="1669" v:groupContext="shape" v:layerMember="0" transform="translate(6.75,-14.625)">
						<title>Sheet.1669</title>
						<path d="M0 71.03 C2.1 71.63 4.43 71.93 6.83 72 L6.83 65.7 C4.88 65.63 2.93 65.33 1.2 64.8 C0.45 66.68 0.08
									 68.78 0 71.03 Z" class="st3"/>
					</g>
					<g id="shape1670-18" v:mID="1670" v:groupContext="shape" v:layerMember="0" transform="translate(22.65,-8.4)">
						<title>Sheet.1670</title>
						<path d="M0.68 66.08 C0.68 68.18 0.45 70.2 0 72 C2.03 71.25 3.9 70.28 5.48 69.08 C5.7 68.1 5.78 67.13 5.78
									 66.15 C5.78 65.25 5.7 64.35 5.55 63.53 C4.13 64.5 2.48 65.25 0.6 65.85 C0.68 66 0.68 66 0.68
									 66.08 Z" class="st3"/>
					</g>
					<g id="shape1671-20" v:mID="1671" v:groupContext="shape" v:layerMember="0"
							transform="translate(-1.41387E-13,-8.25)">
						<title>Sheet.1671</title>
						<path d="M5.17 65.93 C5.17 65.85 5.17 65.78 5.17 65.7 C3.38 65.1 1.65 64.28 0.22 63.38 C0.07 64.2 0 65.1
									 0 66 C0 67.2 0.15 68.33 0.45 69.38 C2.1 70.5 3.9 71.4 5.85 72 C5.4 70.2 5.17 68.18 5.17 65.93
									 Z" class="st3"/>
					</g>
					<g id="shape1672-22" v:mID="1672" v:groupContext="shape" v:layerMember="0" transform="translate(0.675,-16.05)">
						<title>Sheet.1672</title>
						<path d="M3 64.35 C1.65 65.85 0.6 67.65 0 69.68 C1.27 70.65 2.85 71.4 4.58 72 C4.73 69.75 5.1 67.58 5.78
									 65.78 C4.73 65.33 3.82 64.88 3 64.35 Z" class="st3"/>
					</g>
					<g id="shape1673-24" v:mID="1673" v:groupContext="shape" v:layerMember="0"
							transform="translate(14.925,-22.425)">
						<title>Sheet.1673</title>
						<path d="M0.07 72 C1.87 71.93 3.6 71.63 5.17 71.18 C4.05 68.55 2.4 66.6 0.6 66 C0.37 66 0.22 66 0 66 L0.07
									 72 Z" class="st3"/>
					</g>
					<g id="shape1674-26" v:mID="1674" v:groupContext="shape" v:layerMember="0" transform="translate(1.2,-0.825)">
						<title>Sheet.1674</title>
						<path d="M5.17 66.38 C3.3 65.85 1.58 65.1 0 64.2 C1.58 67.8 4.58 70.65 8.33 72 C6.98 70.65 5.92 68.7 5.17
									 66.38 Z" class="st3"/>
					</g>
					<g id="shape1675-28" v:mID="1675" v:groupContext="shape" v:layerMember="0" transform="translate(19.275,-23.7)">
						<title>Sheet.1675</title>
						<path d="M0 68.18 C0.9 69.23 1.65 70.5 2.25 72 C3 71.7 3.75 71.33 4.43 70.95 C3.23 69.75 1.73 68.78 0 68.18
									 Z" class="st3"/>
					</g>
					<g id="shape1676-30" v:mID="1676" v:groupContext="shape" v:layerMember="0" transform="translate(22.125,-16.05)">
						<title>Sheet.1676</title>
						<path d="M5.78 69.68 C5.18 67.65 4.13 65.85 2.78 64.35 C1.95 64.88 1.05 65.33 0 65.78 C0.6 67.65 1.05 69.75
									 1.2 72 C2.93 71.4 4.43 70.58 5.78 69.68 Z" class="st3"/>
					</g>
					<g id="shape1677-32" v:mID="1677" v:groupContext="shape" v:layerMember="0" transform="translate(19.05,-0.825)">
						<title>Sheet.1677</title>
						<path d="M3.15 66.23 C2.4 68.63 1.35 70.58 0 72 C3.82 70.65 6.9 67.65 8.4 63.83 C6.82 64.88 5.1 65.63 3.15
									 66.23 Z" class="st3"/>
					</g>
					<g id="shape1678-34" v:mID="1678" v:groupContext="shape" v:layerMember="0"
							transform="translate(8.1,1.42109E-13)">
						<title>Sheet.1678</title>
						<path d="M5.4 72 L5.4 66.68 C3.53 66.68 1.73 66.45 0 66.08 C1.28 69.3 3.23 71.55 5.4 72 Z" class="st3"/>
					</g>
					<g id="shape1679-36" v:mID="1679" v:groupContext="shape" v:layerMember="0" transform="translate(15,-6.825)">
						<title>Sheet.1679</title>
						<path d="M6.83 64.8 C4.73 65.33 2.4 65.7 0 65.78 L0 72 C2.03 71.93 4.05 71.63 6 71.1 C6.53 69.15 6.83 66.98
									 6.83 64.8 Z" class="st3"/>
					</g>
					<g id="shape1680-38" v:mID="1680" v:groupContext="shape" v:layerMember="0" transform="translate(6.675,-6.9)">
						<title>Sheet.1680</title>
						<path d="M6.83 72 L6.83 65.78 C4.43 65.7 2.1 65.4 0 64.8 C0 67.13 0.38 69.3 0.9 71.18 C2.78 71.7 4.8 72 6.83
									 72 Z" class="st3"/>
					</g>
					<g id="shape1681-40" v:mID="1681" v:groupContext="shape" v:layerMember="0" transform="translate(15,-0.075)">
						<title>Sheet.1681</title>
						<path d="M0 66.68 L0 72 C2.18 71.55 4.2 69.23 5.4 65.93 C3.68 66.38 1.88 66.6 0 66.68 Z" class="st3"/>
					</g>
				</g>
				<g id="group1682-42" transform="translate(21.825,-2.325)" v:mID="1682" v:groupContext="group" v:layerMember="0">
					<title>Sheet.1682</title>
					<g id="shape1683-43" v:mID="1683" v:groupContext="shape" v:layerMember="0" transform="translate(0.675,-18.15)">
						<title>Sheet.1683</title>
						<path d="M3.52 66.75 L1.12 69.15 C0.68 69.98 0.3 70.88 0 71.78 C0.07 71.85 0.22 71.93 0.37 72 L4.87 67.43
									 C4.35 67.28 3.9 66.98 3.52 66.75 Z" class="st4"/>
					</g>
					<g id="shape1684-45" v:mID="1684" v:groupContext="shape" v:layerMember="0" transform="translate(5.325,-23.85)">
						<title>Sheet.1684</title>
						<path d="M2.1 69.15 L0 71.33 C0.45 71.55 0.97 71.78 1.42 72 L1.87 71.55 C2.47 70.35 3.15 69.23 3.97 68.33
									 C3.3 68.55 2.7 68.85 2.1 69.15 Z" class="st4"/>
					</g>
					<g id="shape1685-47" v:mID="1685" v:groupContext="shape" v:layerMember="0" transform="translate(8.55,-22.725)">
						<title>Sheet.1685</title>
						<path d="M0 71.63 C0.53 71.78 1.12 71.93 1.72 72 L4.95 68.78 L4.95 66.68 L0 71.63 Z" class="st4"/>
					</g>
					<g id="shape1686-49" v:mID="1686" v:groupContext="shape" v:layerMember="0" transform="translate(2.625,-16.5)">
						<title>Sheet.1686</title>
						<path d="M2.78 70.73 C2.93 69.83 3.08 68.93 3.23 68.1 L0 71.33 C0.45 71.55 0.98 71.78 1.43 72 L2.78 70.73
									 Z" class="st4"/>
					</g>
					<g id="shape1687-51" v:mID="1687" v:groupContext="shape" v:layerMember="0"
							transform="translate(-5.69544E-14,-12.375)">
						<title>Sheet.1687</title>
						<path d="M1.58 68.33 L0 69.98 C0 70.05 0 70.13 0 70.2 C0 70.8 0.08 71.4 0.15 72 L3.08 69.08 C2.55 68.78 2.1
									 68.55 1.58 68.33 Z" class="st4"/>
					</g>
					<g id="shape1688-53" v:mID="1688" v:groupContext="shape" v:layerMember="0" transform="translate(7.275,-19.725)">
						<title>Sheet.1688</title>
						<path d="M0.67 69.9 C0.37 70.58 0.22 71.33 0 72 L1.8 70.2 C1.42 70.13 1.05 70.05 0.67 69.9 Z" class="st4"/>
					</g>
					<g id="shape1689-55" v:mID="1689" v:groupContext="shape" v:layerMember="0" transform="translate(14.925,-27.45)">
						<title>Sheet.1689</title>
						<path d="M0 71.03 L0 72 L0.9 71.1 C0.83 71.1 0.75 71.03 0.6 70.95 C0.37 71.03 0.22 71.03 0 71.03 Z"
								class="st4"/>
					</g>
					<g id="shape1690-57" v:mID="1690" v:groupContext="shape" v:layerMember="0" transform="translate(12.3,-22.35)">
						<title>Sheet.1690</title>
						<path d="M1.2 72 L1.2 70.73 L0 71.93 C0.45 71.93 0.82 72 1.2 72 Z" class="st4"/>
					</g>
					<g id="shape1691-59" v:mID="1691" v:groupContext="shape" v:layerMember="0" transform="translate(6.825,-15.45)">
						<title>Sheet.1691</title>
						<path d="M4.27 66.3 L0.07 70.58 C0.07 71.03 0 71.4 0 71.85 C0.22 71.93 0.52 72 0.75 72 L6.22 66.45 C5.55
									 66.45 4.87 66.38 4.27 66.3 Z" class="st4"/>
					</g>
					<g id="shape1692-61" v:mID="1692" v:groupContext="shape" v:layerMember="0" transform="translate(14.925,-22.95)">
						<title>Sheet.1692</title>
						<path d="M0 72 L3.38 68.63 C3.08 68.25 2.7 67.88 2.33 67.58 L0 69.9 L0 72 Z" class="st4"/>
					</g>
					<g id="shape1693-63" v:mID="1693" v:groupContext="shape" v:layerMember="0" transform="translate(0.75,-9.825)">
						<title>Sheet.1693</title>
						<path d="M4.43 68.7 C4.43 68.33 4.43 67.88 4.43 67.5 C4.43 67.43 4.43 67.35 4.43 67.28 C4.28 67.2 4.13 67.13
									 3.98 67.13 L0 71.18 C0.45 71.48 0.9 71.7 1.35 72 L4.43 68.7 Z" class="st4"/>
					</g>
					<g id="shape1694-65" v:mID="1694" v:groupContext="shape" v:layerMember="0" transform="translate(19.275,-27.45)">
						<title>Sheet.1694</title>
						<path d="M0 71.93 C0 71.93 0.08 72 0.08 72 L0.15 71.93 C0.08 72 0.08 71.93 0 71.93 Z" class="st4"/>
					</g>
					<g id="shape1695-67" v:mID="1695" v:groupContext="shape" v:layerMember="0" transform="translate(16.95,-22.575)">
						<title>Sheet.1695</title>
						<path d="M0 72 C0.9 71.85 1.8 71.7 2.63 71.48 L3 71.1 C2.78 70.58 2.55 70.13 2.25 69.68 L0 72 Z"
								class="st4"/>
					</g>
					<g id="shape1696-69" v:mID="1696" v:groupContext="shape" v:layerMember="0" transform="translate(9.525,-14.775)">
						<title>Sheet.1696</title>
						<path d="M4.05 67.65 L0 71.78 C0.6 71.85 1.2 71.93 1.87 72 L4.05 69.75 L4.05 67.65 Z" class="st4"/>
					</g>
					<g id="shape1697-71" v:mID="1697" v:groupContext="shape" v:layerMember="0" transform="translate(1.8,-6)">
						<title>Sheet.1697</title>
						<path d="M0.67 70.05 L0 70.73 C0.23 71.18 0.53 71.63 0.82 72 L2.1 70.73 C1.65 70.5 1.2 70.28 0.67 70.05 Z"
								class="st4"/>
					</g>
					<g id="shape1698-73" v:mID="1698" v:groupContext="shape" v:layerMember="0" transform="translate(15.075,-18.6)">
						<title>Sheet.1698</title>
						<path d="M0 69.9 L0 72 L2.62 69.38 C1.87 69.45 1.05 69.53 0.3 69.6 L0 69.9 Z" class="st4"/>
					</g>
					<g id="shape1699-75" v:mID="1699" v:groupContext="shape" v:layerMember="0" transform="translate(6.825,-10.35)">
						<title>Sheet.1699</title>
						<path d="M3.23 68.93 C2.63 68.85 2.03 68.7 1.43 68.63 L0 70.13 C0.08 70.8 0.15 71.4 0.23 72 L3.23 68.93 Z"
								class="st4"/>
					</g>
					<g id="shape1700-77" v:mID="1700" v:groupContext="shape" v:layerMember="0" transform="translate(3.675,-8.475)">
						<title>Sheet.1700</title>
						<path d="M2.02 71.48 C1.87 70.88 1.8 70.28 1.72 69.68 L0 71.4 C0.52 71.63 0.97 71.85 1.5 72 L2.02 71.48 Z"
								class="st4"/>
					</g>
					<g id="shape1701-79" v:mID="1701" v:groupContext="shape" v:layerMember="0"
							transform="translate(20.325,-24.675)">
						<title>Sheet.1701</title>
						<path d="M0 70.65 C0.3 71.1 0.52 71.55 0.75 72 L1.95 70.73 C1.57 70.43 1.12 70.13 0.67 69.9 L0 70.65 Z"
								class="st4"/>
					</g>
					<g id="shape1702-81" v:mID="1702" v:groupContext="shape" v:layerMember="0" transform="translate(3.825,-3.675)">
						<title>Sheet.1702</title>
						<path d="M2.55 69.23 C2.32 69.15 2.1 69.08 1.95 69 L0 70.95 C0.37 71.33 0.67 71.7 1.05 72 L2.92 70.13 C2.77
									 69.9 2.62 69.53 2.55 69.23 Z" class="st4"/>
					</g>
					<g id="shape1703-83" v:mID="1703" v:groupContext="shape" v:layerMember="0" transform="translate(23.4,-24.6)">
						<title>Sheet.1703</title>
						<path d="M0.3 71.85 C0.3 71.85 0.23 71.78 0.3 71.85 L0 72 C0.15 71.93 0.23 71.93 0.3 71.85 Z" class="st4"/>
					</g>
					<g id="shape1704-85" v:mID="1704" v:groupContext="shape" v:layerMember="0"
							transform="translate(15.075,-14.625)">
						<title>Sheet.1704</title>
						<path d="M0 72 C0.22 72 0.45 72 0.67 71.93 L6.07 66.45 C5.92 65.85 5.77 65.33 5.62 64.8 C5.62 64.8 5.62 64.8
									 5.62 64.8 L0 70.5 L0 72 Z" class="st4"/>
					</g>
					<g id="shape1705-87" v:mID="1705" v:groupContext="shape" v:layerMember="0" transform="translate(7.425,-7.425)">
						<title>Sheet.1705</title>
						<path d="M6.07 66.3 C5.62 66.3 5.17 66.23 4.8 66.23 L0 71.1 C0.08 71.33 0.08 71.55 0.15 71.7 C0.52 71.78
									 0.9 71.85 1.2 72 L6.07 67.05 L6.07 66.3 Z" class="st4"/>
					</g>
					<g id="shape1706-89" v:mID="1706" v:groupContext="shape" v:layerMember="0" transform="translate(22.05,-21.375)">
						<title>Sheet.1706</title>
						<path d="M0.3 72 L2.17 70.05 C1.5 70.43 0.83 70.73 0 71.1 C0.15 71.4 0.23 71.7 0.3 72 Z" class="st4"/>
					</g>
					<g id="shape1707-91" v:mID="1707" v:groupContext="shape" v:layerMember="0" transform="translate(10.725,-6.9)">
						<title>Sheet.1707</title>
						<path d="M2.77 69 L0 71.85 C0.67 71.93 1.27 72 1.95 72 L2.77 71.1 L2.77 69 Z" class="st4"/>
					</g>
					<g id="shape1708-93" v:mID="1708" v:groupContext="shape" v:layerMember="0" transform="translate(6.225,-1.65)">
						<title>Sheet.1708</title>
						<path d="M1.2 69.9 L0 71.18 C0.45 71.48 0.82 71.7 1.27 72 L1.95 71.33 C1.72 70.8 1.5 70.35 1.2 69.9 Z"
								class="st4"/>
					</g>
					<g id="shape1709-95" v:mID="1709" v:groupContext="shape" v:layerMember="0" transform="translate(15,-9.225)">
						<title>Sheet.1709</title>
						<path d="M4.05 67.8 C3.3 67.95 2.47 68.03 1.65 68.1 L0 69.83 L0 72 L4.05 67.8 Z" class="st4"/>
					</g>
					<g id="shape1710-97" v:mID="1710" v:groupContext="shape" v:layerMember="0" transform="translate(22.875,-17.7)">
						<title>Sheet.1710</title>
						<path d="M0 70.2 C0.15 70.8 0.22 71.4 0.3 72 L3.82 68.4 C3.6 67.95 3.3 67.5 3 67.13 L0 70.2 Z" class="st4"/>
					</g>
					<g id="shape1711-99" v:mID="1711" v:groupContext="shape" v:layerMember="0"
							transform="translate(18.375,-14.925)">
						<title>Sheet.1711</title>
						<path d="M0 72 C0.9 71.85 1.73 71.7 2.55 71.55 L3.45 70.65 C3.38 69.98 3.3 69.38 3.15 68.78 L0 72 Z"
								class="st4"/>
					</g>
					<g id="shape1712-101" v:mID="1712" v:groupContext="shape" v:layerMember="0" transform="translate(8.55,-3.525)">
						<title>Sheet.1712</title>
						<path d="M0.75 69.83 L0 70.65 C0.23 71.18 0.45 71.63 0.75 72 L2.62 70.05 C2.02 70.05 1.42 69.98 0.75 69.83
									 Z" class="st4"/>
					</g>
					<g id="shape1713-103" v:mID="1713" v:groupContext="shape" v:layerMember="0" transform="translate(15,-6.75)">
						<title>Sheet.1713</title>
						<path d="M2.1 71.78 L6.68 67.13 C6.75 66.38 6.83 65.63 6.83 64.88 L0 71.85 L0 72 C0.75 71.93 1.43 71.85 2.1
									 71.78 Z" class="st4"/>
					</g>
					<g id="shape1714-105" v:mID="1714" v:groupContext="shape" v:layerMember="0"
							transform="translate(10.275,-1.125)">
						<title>Sheet.1714</title>
						<path d="M3.23 67.8 C3.23 67.8 3.15 67.8 3.15 67.8 L0 70.95 C0.38 71.33 0.68 71.7 1.05 72 L3.23 69.83 L3.23
									 67.8 Z" class="st4"/>
					</g>
					<g id="shape1715-107" v:mID="1715" v:groupContext="shape" v:layerMember="0" transform="translate(24.3,-16.425)">
						<title>Sheet.1715</title>
						<path d="M3.6 70.05 C3.45 69.6 3.3 69.23 3.15 68.78 L0 72 C1.28 71.48 2.47 70.8 3.6 70.05 Z" class="st4"/>
					</g>
					<g id="shape1716-109" v:mID="1716" v:groupContext="shape" v:layerMember="0"
							transform="translate(23.25,-13.275)">
						<title>Sheet.1716</title>
						<path d="M2.02 69.98 C1.35 70.28 0.68 70.5 0 70.73 C0.07 70.88 0.07 70.88 0.07 70.95 C0.07 71.33 0.07 71.63
									 0.07 72 L2.02 69.98 Z" class="st4"/>
					</g>
					<g id="shape1717-111" v:mID="1717" v:groupContext="shape" v:layerMember="0" transform="translate(15,-4.8)">
						<title>Sheet.1717</title>
						<path d="M0.6 71.4 C0.38 71.4 0.23 71.4 0 71.4 L0 72 L0.6 71.4 Z" class="st4"/>
					</g>
					<g id="shape1718-113" v:mID="1718" v:groupContext="shape" v:layerMember="0" transform="translate(9.075,-0.825)">
						<title>Sheet.1718</title>
						<path d="M0.15 71.7 L0 71.85 C0.15 71.93 0.22 72 0.37 72 C0.37 71.93 0.3 71.78 0.15 71.7 Z" class="st4"/>
					</g>
					<g id="shape1719-115" v:mID="1719" v:groupContext="shape" v:layerMember="0" transform="translate(12.9,0)">
						<title>Sheet.1719</title>
						<path d="M0 71.78 C0.22 71.85 0.38 71.93 0.6 72 L0.6 71.18 L0 71.78 Z" class="st4"/>
					</g>
					<g id="shape1720-117" v:mID="1720" v:groupContext="shape" v:layerMember="0" transform="translate(15,-0.15)">
						<title>Sheet.1720</title>
						<path d="M3.3 66.45 L0 69.83 L0 72 L5.1 66.75 C5.18 66.53 5.25 66.3 5.4 66.08 C4.73 66.15 3.98 66.3 3.3 66.45
									 Z" class="st4"/>
					</g>
					<g id="shape1721-119" v:mID="1721" v:groupContext="shape" v:layerMember="0" transform="translate(22.65,-8.4)">
						<title>Sheet.1721</title>
						<path d="M5.7 64.43 L0.45 69.83 C0.37 70.58 0.22 71.33 0 72 C0.22 71.93 0.37 71.85 0.6 71.78 L5.78 66.45
									 C5.78 66.38 5.78 66.23 5.78 66.15 C5.78 65.55 5.7 64.95 5.7 64.43 Z" class="st4"/>
					</g>
					<g id="shape1722-121" v:mID="1722" v:groupContext="shape" v:layerMember="0"
							transform="translate(20.025,-7.425)">
						<title>Sheet.1722</title>
						<path d="M1.2 70.73 L0 72 C0.3 71.93 0.67 71.85 0.98 71.78 C1.05 71.4 1.12 71.03 1.2 70.73 Z" class="st4"/>
					</g>
					<g id="shape1723-123" v:mID="1723" v:groupContext="shape" v:layerMember="0" transform="translate(19.05,-0.825)">
						<title>Sheet.1723</title>
						<path d="M8.4 63.83 C7.42 64.5 6.37 65.03 5.25 65.48 L2.32 68.48 C1.72 69.9 0.9 71.03 0 72 C0.6 71.78 1.12
									 71.55 1.65 71.25 L7.95 64.8 C8.1 64.5 8.25 64.2 8.4 63.83 Z" class="st4"/>
					</g>
				</g>
			</g>
		</g>
	</g>
</svg>
