<?xml version="1.0" encoding="UTF-8" standalone="no"?>
<!DOCTYPE svg PUBLIC "-//W3C//DTD SVG 1.1//EN" "http://www.w3.org/Graphics/SVG/1.1/DTD/svg11.dtd">
<!-- Generated by Microsoft Visio, SVG Export Web Server - green.svg Page-1 -->
<svg xmlns="http://www.w3.org/2000/svg" xmlns:xlink="http://www.w3.org/1999/xlink" xmlns:ev="http://www.w3.org/2001/xml-events"
		xmlns:v="http://schemas.microsoft.com/visio/2003/SVGExtensions/" width="0.84375in" height="1in" viewBox="0 0 60.75 72"
		xml:space="preserve" color-interpolation-filters="sRGB" class="st4">
	<v:documentProperties v:langID="4108" v:metric="true" v:viewMarkup="false"/>

	<style type="text/css">
	<![CDATA[
		.st1 {fill:#ffffff;stroke:none;stroke-linecap:butt;stroke-width:0.75}
		.st2 {fill:#515050;stroke:none;stroke-linecap:butt;stroke-width:0.75}
		.st3 {fill:#7fba42;stroke:none;stroke-linecap:butt;stroke-width:0.75}
		.st4 {fill:none;fill-rule:evenodd;font-size:12px;overflow:visible;stroke-linecap:square;stroke-miterlimit:3}
	]]>
	</style>

	<g v:mID="0" v:index="1" v:groupContext="foregroundPage">
		<title>Page-1</title>
		<v:pageProperties v:drawingScale="0.0393701" v:pageScale="0.0393701" v:drawingUnits="24" v:shadowOffsetX="8.50394"
				v:shadowOffsetY="-8.50394"/>
		<v:layer v:name="symbols" v:index="0"/>
		<g id="group1637-1" transform="translate(6.9375,-4.6875)" v:mID="1637" v:groupContext="group" v:layerMember="0">
			<title>Web Server - green</title>
			<g id="group1638-2" transform="translate(0,-4.5)" v:mID="1638" v:groupContext="group" v:layerMember="0">
				<title>Sheet.1638</title>
				<g id="shape1639-3" v:mID="1639" v:groupContext="shape" v:layerMember="0">
					<title>Sheet.1639</title>
					<path d="M0 72 L0 20.25 C0 17.33 2.33 15 5.25 15 L26.25 15 C29.18 15 31.5 17.33 31.5 20.25 L31.5 72 L0 72 Z"
							class="st1"/>
				</g>
				<g id="shape1640-5" v:mID="1640" v:groupContext="shape" v:layerMember="0" transform="translate(2.25,-2.25)">
					<title>Sheet.1640</title>
					<path d="M24 19.5 L3 19.5 C1.35 19.5 0 20.85 0 22.5 L0 72 L27 72 L27 22.5 C27 20.85 25.65 19.5 24 19.5 ZM21.75
								 66 L5.25 66 L5.25 63.75 L21.75 63.75 L21.75 66 ZM21.75 59.25 L5.25 59.25 L5.25 57 L21.75 57 L21.75
								 59.25 ZM21.75 28.5 L5.25 28.5 L5.25 26.25 L21.75 26.25 L21.75 28.5 Z" class="st2"/>
				</g>
			</g>
			<g id="group1641-7" transform="translate(19.5,0)" v:mID="1641" v:groupContext="group" v:layerMember="0">
				<title>Sheet.1641</title>
				<g id="shape1642-8" v:mID="1642" v:groupContext="shape" v:layerMember="0">
					<title>Sheet.1642</title>
					<ellipse cx="16.5" cy="55.5" rx="16.5" ry="16.5" class="st1"/>
				</g>
				<g id="group1643-10" transform="translate(2.325,-2.325)" v:mID="1643" v:groupContext="group" v:layerMember="0">
					<title>Sheet.1643</title>
					<g id="shape1644-11" v:mID="1644" v:groupContext="shape" v:layerMember="0"
							transform="translate(15.075,-14.625)">
						<title>Sheet.1644</title>
						<path d="M5.63 64.8 C3.9 65.33 1.95 65.63 0 65.7 L0 72 C2.4 71.93 4.73 71.63 6.83 71.03 C6.6 68.78 6.23 66.68
									 5.63 64.8 Z" class="st3"/>
					</g>
					<g id="shape1645-13" v:mID="1645" v:groupContext="shape" v:layerMember="0" transform="translate(4.725,-23.775)">
						<title>Sheet.1645</title>
						<path d="M4.5 68.25 C2.85 68.85 1.35 69.83 0 70.95 C0.68 71.33 1.43 71.7 2.18 72 C2.85 70.58 3.6 69.3 4.5
									 68.25 Z" class="st3"/>
					</g>
					<g id="shape1646-15" v:mID="1646" v:groupContext="shape" v:layerMember="0" transform="translate(8.4,-22.35)">
						<title>Sheet.1646</title>
						<path d="M0 71.18 C1.57 71.63 3.3 71.93 5.1 72 L5.1 66 C4.87 66 4.72 66 4.5 66 C2.7 66.6 1.13 68.48 0 71.18
									 Z" class="st3"/>
					</g>
					<g id="shape1647-17" v:mID="1647" v:groupContext="shape" v:layerMember="0" transform="translate(6.75,-14.625)">
						<title>Sheet.1647</title>
						<path d="M0 71.03 C2.1 71.63 4.43 71.93 6.83 72 L6.83 65.7 C4.88 65.63 2.93 65.33 1.2 64.8 C0.45 66.68 0.08
									 68.78 0 71.03 Z" class="st3"/>
					</g>
					<g id="shape1648-19" v:mID="1648" v:groupContext="shape" v:layerMember="0" transform="translate(22.65,-8.4)">
						<title>Sheet.1648</title>
						<path d="M0.68 66.08 C0.68 68.18 0.45 70.2 0 72 C2.03 71.25 3.9 70.28 5.48 69.08 C5.7 68.1 5.78 67.13 5.78
									 66.15 C5.78 65.25 5.7 64.35 5.55 63.53 C4.13 64.5 2.48 65.25 0.6 65.85 C0.68 66 0.68 66 0.68
									 66.08 Z" class="st3"/>
					</g>
					<g id="shape1649-21" v:mID="1649" v:groupContext="shape" v:layerMember="0"
							transform="translate(-1.42886E-13,-8.25)">
						<title>Sheet.1649</title>
						<path d="M5.18 65.93 C5.18 65.85 5.18 65.78 5.18 65.7 C3.38 65.1 1.65 64.28 0.22 63.38 C0.07 64.2 0 65.1
									 0 66 C-0 67.2 0.15 68.33 0.45 69.38 C2.1 70.5 3.9 71.4 5.85 72 C5.4 70.2 5.18 68.18 5.18 65.93
									 Z" class="st3"/>
					</g>
					<g id="shape1650-23" v:mID="1650" v:groupContext="shape" v:layerMember="0" transform="translate(0.675,-16.05)">
						<title>Sheet.1650</title>
						<path d="M3 64.35 C1.65 65.85 0.6 67.65 0 69.68 C1.28 70.65 2.85 71.4 4.58 72 C4.73 69.75 5.1 67.58 5.78
									 65.78 C4.73 65.33 3.83 64.88 3 64.35 Z" class="st3"/>
					</g>
					<g id="shape1651-25" v:mID="1651" v:groupContext="shape" v:layerMember="0"
							transform="translate(14.925,-22.425)">
						<title>Sheet.1651</title>
						<path d="M0.07 72 C1.87 71.93 3.6 71.63 5.17 71.18 C4.05 68.55 2.4 66.6 0.6 66 C0.37 66 0.22 66 0 66 L0.07
									 72 Z" class="st3"/>
					</g>
					<g id="shape1652-27" v:mID="1652" v:groupContext="shape" v:layerMember="0" transform="translate(1.2,-0.825)">
						<title>Sheet.1652</title>
						<path d="M5.18 66.38 C3.3 65.85 1.58 65.1 0 64.2 C1.58 67.8 4.58 70.65 8.33 72 C6.98 70.65 5.93 68.7 5.18
									 66.38 Z" class="st3"/>
					</g>
					<g id="shape1653-29" v:mID="1653" v:groupContext="shape" v:layerMember="0" transform="translate(19.275,-23.7)">
						<title>Sheet.1653</title>
						<path d="M0 68.18 C0.9 69.23 1.65 70.5 2.25 72 C3 71.7 3.75 71.33 4.43 70.95 C3.23 69.75 1.73 68.78 0 68.18
									 Z" class="st3"/>
					</g>
					<g id="shape1654-31" v:mID="1654" v:groupContext="shape" v:layerMember="0" transform="translate(22.125,-16.05)">
						<title>Sheet.1654</title>
						<path d="M5.78 69.68 C5.18 67.65 4.13 65.85 2.78 64.35 C1.95 64.88 1.05 65.33 0 65.78 C0.6 67.65 1.05 69.75
									 1.2 72 C2.93 71.4 4.43 70.58 5.78 69.68 Z" class="st3"/>
					</g>
					<g id="shape1655-33" v:mID="1655" v:groupContext="shape" v:layerMember="0" transform="translate(19.05,-0.825)">
						<title>Sheet.1655</title>
						<path d="M3.15 66.23 C2.4 68.63 1.35 70.58 0 72 C3.82 70.65 6.9 67.65 8.4 63.83 C6.83 64.88 5.1 65.63 3.15
									 66.23 Z" class="st3"/>
					</g>
					<g id="shape1656-35" v:mID="1656" v:groupContext="shape" v:layerMember="0"
							transform="translate(8.1,1.42109E-13)">
						<title>Sheet.1656</title>
						<path d="M5.4 72 L5.4 66.68 C3.53 66.68 1.73 66.45 0 66.08 C1.28 69.3 3.23 71.55 5.4 72 Z" class="st3"/>
					</g>
					<g id="shape1657-37" v:mID="1657" v:groupContext="shape" v:layerMember="0" transform="translate(15,-6.825)">
						<title>Sheet.1657</title>
						<path d="M6.83 64.8 C4.73 65.33 2.4 65.7 0 65.78 L0 72 C2.03 71.93 4.05 71.63 6 71.1 C6.53 69.15 6.83 66.98
									 6.83 64.8 Z" class="st3"/>
					</g>
					<g id="shape1658-39" v:mID="1658" v:groupContext="shape" v:layerMember="0" transform="translate(6.675,-6.9)">
						<title>Sheet.1658</title>
						<path d="M6.83 72 L6.83 65.78 C4.43 65.7 2.1 65.4 0 64.8 C0 67.13 0.38 69.3 0.9 71.18 C2.78 71.7 4.8 72 6.83
									 72 Z" class="st3"/>
					</g>
					<g id="shape1659-41" v:mID="1659" v:groupContext="shape" v:layerMember="0" transform="translate(15,-0.075)">
						<title>Sheet.1659</title>
						<path d="M0 66.68 L0 72 C2.18 71.55 4.2 69.23 5.4 65.93 C3.68 66.38 1.88 66.6 0 66.68 Z" class="st3"/>
					</g>
				</g>
			</g>
		</g>
	</g>
</svg>
