<?xml version="1.0" encoding="UTF-8" standalone="no"?>
<!DOCTYPE svg PUBLIC "-//W3C//DTD SVG 1.1//EN" "http://www.w3.org/Graphics/SVG/1.1/DTD/svg11.dtd">
<!-- Generated by Microsoft Visio, SVG Export Windows Router.svg Page-1 -->
<svg xmlns="http://www.w3.org/2000/svg" xmlns:xlink="http://www.w3.org/1999/xlink" xmlns:ev="http://www.w3.org/2001/xml-events"
		xmlns:v="http://schemas.microsoft.com/visio/2003/SVGExtensions/" width="0.914844in" height="1in" viewBox="0 0 65.8687 72"
		xml:space="preserve" color-interpolation-filters="sRGB" class="st5">
	<v:documentProperties v:langID="4108" v:metric="true" v:viewMarkup="false"/>

	<style type="text/css">
	<![CDATA[
		.st1 {fill:#ffffff;stroke:none;stroke-linecap:butt;stroke-width:0.75}
		.st2 {fill:#515251;stroke:none;stroke-linecap:butt;stroke-width:0.75}
		.st3 {fill:#27ace2;stroke:none;stroke-linecap:butt;stroke-width:0.75}
		.st4 {fill:#515050;stroke:none;stroke-linecap:butt;stroke-width:0.75}
		.st5 {fill:none;fill-rule:evenodd;font-size:12px;overflow:visible;stroke-linecap:square;stroke-miterlimit:3}
	]]>
	</style>

	<g v:mID="0" v:index="1" v:groupContext="foregroundPage">
		<title>Page-1</title>
		<v:pageProperties v:drawingScale="0.0393701" v:pageScale="0.0393701" v:drawingUnits="24" v:shadowOffsetX="8.50394"
				v:shadowOffsetY="-8.50394"/>
		<v:layer v:name="symbols" v:index="0"/>
		<g id="group1724-1" transform="translate(7.96875,-5.8125)" v:mID="1724" v:groupContext="group" v:layerMember="0">
			<title>Windows Router</title>
			<g id="group1725-2" transform="translate(-2.81775E-13,-3.75)" v:mID="1725" v:groupContext="group" v:layerMember="0">
				<title>Sheet.1725</title>
				<g id="shape1726-3" v:mID="1726" v:groupContext="shape" v:layerMember="0">
					<title>Sheet.1726</title>
					<path d="M0 72 L0 20.25 C0 17.32 2.33 15 5.25 15 L26.25 15 C29.18 15 31.5 17.32 31.5 20.25 L31.5 72 L0 72 Z"
							class="st1"/>
				</g>
				<g id="shape1727-5" v:mID="1727" v:groupContext="shape" v:layerMember="0" transform="translate(2.25,-2.25)">
					<title>Sheet.1727</title>
					<path d="M24 19.5 L3 19.5 C1.35 19.5 0 20.85 0 22.5 L0 72 L27 72 L27 22.5 C27 20.85 25.65 19.5 24 19.5 ZM21.75
								 66 L5.25 66 L5.25 63.75 L21.75 63.75 L21.75 66 ZM21.75 59.25 L5.25 59.25 L5.25 57 L21.75 57 L21.75
								 59.25 ZM21.75 28.5 L5.25 28.5 L5.25 26.25 L21.75 26.25 L21.75 28.5 Z" class="st2"/>
				</g>
			</g>
			<g id="group1728-7" transform="translate(31.5,-37.5)" v:mID="1728" v:groupContext="group" v:layerMember="0">
				<title>Sheet.1728</title>
				<g id="shape1729-8" v:mID="1729" v:groupContext="shape" v:layerMember="0">
					<title>Sheet.1729</title>
					<path d="M25.5 72 L25.5 45.75 L23.1 45.75 L0 49.05 L0 68.7 L23.1 72 L25.5 72 Z" class="st1"/>
				</g>
				<g id="group1730-10" transform="translate(2.25,-2.25)" v:mID="1730" v:groupContext="group" v:layerMember="0">
					<title>Sheet.1730</title>
					<g id="shape1731-11" v:mID="1731" v:groupContext="shape" v:layerMember="0"
							transform="translate(-1.05416E-13,-1.725)">
						<title>Sheet.1731</title>
						<path d="M0 70.72 L9 72 L9 63.22 L0 63.22 L0 70.72 Z" class="st3"/>
					</g>
					<g id="shape1732-13" v:mID="1732" v:groupContext="shape" v:layerMember="0"
							transform="translate(-1.05416E-13,-11.25)">
						<title>Sheet.1732</title>
						<path d="M0 64.5 L0 72 L9 72 L9 63.22 L0 64.5 Z" class="st3"/>
					</g>
					<g id="shape1733-15" v:mID="1733" v:groupContext="shape" v:layerMember="0" transform="translate(9.75,0)">
						<title>Sheet.1733</title>
						<rect x="0" y="61.5" width="11.25" height="8.85" class="st3"/>
					</g>
					<g id="shape1734-17" v:mID="1734" v:groupContext="shape" v:layerMember="0" transform="translate(9.75,-11.25)">
						<title>Sheet.1734</title>
						<path d="M11.25 61.5 L0 63.07 L0 72 L11.25 72 L11.25 61.5 Z" class="st3"/>
					</g>
				</g>
			</g>
			<g id="group1735-19" transform="translate(19.5,0)" v:mID="1735" v:groupContext="group" v:layerMember="0">
				<title>Sheet.1735</title>
				<g id="group1736-20" v:mID="1736" v:groupContext="group" v:layerMember="0">
					<title>Sheet.1736</title>
					<g id="shape1737-21" v:mID="1737" v:groupContext="shape" v:layerMember="0">
						<title>Sheet.1737</title>
						<path d="M4.5 72 C2.02 72 0 69.97 0 67.5 L0 46.5 C0 44.02 2.02 42 4.5 42 L25.5 42 C27.97 42 30 44.02 30 46.5
									 L30 67.5 C30 69.97 27.97 72 25.5 72 L4.5 72 Z" class="st1"/>
					</g>
					<g id="shape1738-23" v:mID="1738" v:groupContext="shape" v:layerMember="0" transform="translate(2.25,-2.25)">
						<title>Sheet.1738</title>
						<path d="M25.5 69.75 C25.5 71.02 24.52 72 23.25 72 L2.25 72 C0.97 72 0 71.02 0 69.75 L0 48.75 C0 47.47 0.97
									 46.5 2.25 46.5 L23.25 46.5 C24.52 46.5 25.5 47.47 25.5 48.75 L25.5 69.75 Z" class="st4"/>
					</g>
				</g>
				<g id="shape1739-25" v:mID="1739" v:groupContext="shape" v:layerMember="0" transform="translate(12,-17.25)">
					<title>Sheet.1739</title>
					<path d="M3.75 72 L3.75 67.05 L6 69.3 L6 67.05 L3 64.05 L0 67.05 L0 69.3 L2.25 67.05 L2.25 72 L3.75 72 Z"
							class="st1"/>
				</g>
				<g id="shape1740-27" v:mID="1740" v:groupContext="shape" v:layerMember="0" transform="translate(12,-4.8)">
					<title>Sheet.1740</title>
					<path d="M2.25 64.05 L2.25 69 L0 66.75 L0 69 L3 72 L6 69 L6 66.75 L3.75 69 L3.75 64.05 L2.25 64.05 Z"
							class="st1"/>
				</g>
				<g id="shape1741-29" v:mID="1741" v:groupContext="shape" v:layerMember="0" transform="translate(17.55,-12)">
					<title>Sheet.1741</title>
					<path d="M7.95 69.75 L3 69.75 L5.25 72 L3 72 L0 69 L3 66 L5.25 66 L3 68.25 L7.95 68.25 L7.95 69.75 Z"
							class="st1"/>
				</g>
				<g id="shape1742-31" v:mID="1742" v:groupContext="shape" v:layerMember="0" transform="translate(4.5,-12)">
					<title>Sheet.1742</title>
					<path d="M0 68.25 L4.95 68.25 L2.7 66 L4.95 66 L7.95 69 L4.95 72 L2.7 72 L4.95 69.75 L0 69.75 L0 68.25 Z"
							class="st1"/>
				</g>
			</g>
		</g>
	</g>
</svg>
