<?xml version="1.0" encoding="UTF-8" standalone="no"?>
<!DOCTYPE svg PUBLIC "-//W3C//DTD SVG 1.1//EN" "http://www.w3.org/Graphics/SVG/1.1/DTD/svg11.dtd">
<!-- Generated by Microsoft Visio, SVG Export Windows Server.svg Page-1 -->
<svg xmlns="http://www.w3.org/2000/svg" xmlns:xlink="http://www.w3.org/1999/xlink" xmlns:ev="http://www.w3.org/2001/xml-events"
		xmlns:v="http://schemas.microsoft.com/visio/2003/SVGExtensions/" width="0.927344in" height="0.984375in"
		viewBox="0 0 66.7687 70.875" xml:space="preserve" color-interpolation-filters="sRGB" class="st4">
	<v:documentProperties v:langID="4108" v:metric="true" v:viewMarkup="false"/>

	<style type="text/css">
	<![CDATA[
		.st1 {fill:#ffffff;stroke:none;stroke-linecap:butt;stroke-width:0.75}
		.st2 {fill:#515251;stroke:none;stroke-linecap:butt;stroke-width:0.75}
		.st3 {fill:#27ace2;stroke:none;stroke-linecap:butt;stroke-width:0.75}
		.st4 {fill:none;fill-rule:evenodd;font-size:12px;overflow:visible;stroke-linecap:square;stroke-miterlimit:3}
	]]>
	</style>

	<g v:mID="0" v:index="1" v:groupContext="foregroundPage">
		<title>Page-1</title>
		<v:pageProperties v:drawingScale="0.0393701" v:pageScale="0.0393701" v:drawingUnits="24" v:shadowOffsetX="8.50394"
				v:shadowOffsetY="-8.50394"/>
		<v:layer v:name="symbols" v:index="0"/>
		<g id="group1743-1" transform="translate(7.89375,-6.5625)" v:mID="1743" v:groupContext="group" v:layerMember="0">
			<title>Windows Server</title>
			<g id="group1744-2" v:mID="1744" v:groupContext="group" v:layerMember="0">
				<title>Sheet.1744</title>
				<g id="shape1745-3" v:mID="1745" v:groupContext="shape" v:layerMember="0">
					<title>Sheet.1745</title>
					<path d="M0 70.87 L0 19.12 C0 16.2 2.33 13.87 5.25 13.88 L26.25 13.88 C29.18 13.88 31.5 16.2 31.5 19.12 L31.5
								 70.87 L0 70.87 Z" class="st1"/>
				</g>
				<g id="shape1746-5" v:mID="1746" v:groupContext="shape" v:layerMember="0" transform="translate(2.25,-2.25)">
					<title>Sheet.1746</title>
					<path d="M24 18.37 L3 18.37 C1.35 18.37 0 19.73 0 21.37 L0 70.87 L27 70.87 L27 21.37 C27 19.73 25.65 18.37 24
								 18.37 ZM21.75 64.88 L5.25 64.88 L5.25 62.62 L21.75 62.62 L21.75 64.88 ZM21.75 58.13 L5.25 58.13
								 L5.25 55.87 L21.75 55.87 L21.75 58.13 ZM21.75 27.37 L5.25 27.37 L5.25 25.12 L21.75 25.12 L21.75
								 27.37 Z" class="st2"/>
				</g>
			</g>
			<g id="group1747-7" transform="translate(31.5,-33.75)" v:mID="1747" v:groupContext="group" v:layerMember="0">
				<title>Sheet.1747</title>
				<g id="shape1748-8" v:mID="1748" v:groupContext="shape" v:layerMember="0">
					<title>Sheet.1748</title>
					<path d="M25.5 70.87 L25.5 44.62 L23.1 44.62 L0 47.93 L0 67.57 L23.1 70.87 L25.5 70.87 Z" class="st1"/>
				</g>
				<g id="group1749-10" transform="translate(2.25,-2.25)" v:mID="1749" v:groupContext="group" v:layerMember="0">
					<title>Sheet.1749</title>
					<g id="shape1750-11" v:mID="1750" v:groupContext="shape" v:layerMember="0"
							transform="translate(-1.05416E-13,-1.725)">
						<title>Sheet.1750</title>
						<path d="M0 69.6 L9 70.87 L9 62.1 L0 62.1 L0 69.6 Z" class="st3"/>
					</g>
					<g id="shape1751-13" v:mID="1751" v:groupContext="shape" v:layerMember="0"
							transform="translate(-1.05416E-13,-11.25)">
						<title>Sheet.1751</title>
						<path d="M0 63.38 L0 70.87 L9 70.87 L9 62.1 L0 63.38 Z" class="st3"/>
					</g>
					<g id="shape1752-15" v:mID="1752" v:groupContext="shape" v:layerMember="0" transform="translate(9.75,0)">
						<title>Sheet.1752</title>
						<rect x="0" y="60.375" width="11.25" height="8.85" class="st3"/>
					</g>
					<g id="shape1753-17" v:mID="1753" v:groupContext="shape" v:layerMember="0" transform="translate(9.75,-11.25)">
						<title>Sheet.1753</title>
						<path d="M11.25 60.37 L0 61.95 L0 70.87 L11.25 70.87 L11.25 60.37 Z" class="st3"/>
					</g>
				</g>
			</g>
		</g>
	</g>
</svg>
