<svg xmlns="http://www.w3.org/2000/svg" xmlns:v="http://schemas.microsoft.com/visio/2003/SVGExtensions/" width="84" height="103.5" viewBox="0 0 63 77.625" color-interpolation-filters="sRGB" fill="none" fill-rule="evenodd" font-size="12" overflow="visible" stroke-linecap="square" stroke-miterlimit="3">
  <v:documentProperties v:langID="4108" v:metric="true" v:viewMarkup="false"/>
  <style>
    .st1,.st3{fill:#fff;stroke:none;stroke-linecap:butt;stroke-width:.75}.st3{fill:#515251}
  </style>
  <g v:mID="0" v:index="1" v:groupContext="foregroundPage">
    <v:pageProperties v:drawingScale=".039" v:pageScale=".039" v:drawingUnits="24" v:shadowOffsetX="8.504" v:shadowOffsetY="-8.504"/>
    <v:layer v:name="symbols" v:index="0"/>
    <g id="group1-1" transform="translate(6.975 -6.938)" v:mID="1" v:groupContext="group" v:layerMember="0">
      <g id="group2-2" transform="translate(0 -4.5)" v:mID="2" v:groupContext="group" v:layerMember="0">
        <g id="shape3-3" v:mID="3" v:groupContext="shape" v:layerMember="0">
          <path d="M0 77.63V25.88c0-2.93 2.33-5.25 5.25-5.25h21c2.93 0 5.25 2.32 5.25 5.25v51.75H0z" class="st1"/>
        </g>
        <g id="shape4-5" v:mID="4" v:groupContext="shape" v:layerMember="0" transform="translate(2.25 -2.25)">
          <path d="M24 25.13H3c-1.65 0-3 1.35-3 3v49.5h27v-49.5c0-1.65-1.35-3-3-3zm-2.25 46.5H5.25v-2.25h16.5v2.25zm0-6.75H5.25v-2.25h16.5v2.25zm0-30.75H5.25v-2.25h16.5v2.25z" fill="#525352" stroke-linecap="butt" stroke-width=".75"/>
        </g>
      </g>
      <g id="group5-7" transform="translate(20.25 -39)" v:mID="5" v:groupContext="group" v:layerMember="0">
        <g id="shape6-8" v:mID="6" v:groupContext="shape" v:layerMember="0">
          <path class="st1" d="M0 52.875h30.75v24.75H0z"/>
        </g>
        <g id="shape7-10" v:mID="7" v:groupContext="shape" v:layerMember="0" transform="translate(2.25 -2.25)">
          <path d="M0 57.38v20.25h26.25V57.38H0zm24.75 18.75H1.5V58.88h23.25v17.25z" class="st3"/>
        </g>
        <g id="shape8-12" v:mID="8" v:groupContext="shape" v:layerMember="0" transform="translate(21 -14.25)">
          <path class="st3" d="M0 73.125h3.75v4.5H0z"/>
        </g>
        <g id="shape9-14" v:mID="9" v:groupContext="shape" v:layerMember="0" transform="translate(7.5 -11.25)">
          <path class="st3" d="M0 76.125h9v1.5H0z"/>
        </g>
        <g id="shape10-16" v:mID="10" v:groupContext="shape" v:layerMember="0" transform="translate(7.5 -7.5)">
          <path class="st3" d="M0 76.125h12.75v1.5H0z"/>
        </g>
      </g>
      <g id="group11-18" transform="translate(21)" v:mID="11" v:groupContext="group" v:layerMember="0">
        <g id="group12-19" v:mID="12" v:groupContext="group" v:layerMember="0">
          <g id="shape13-20" v:mID="13" v:groupContext="shape" v:layerMember="0">
            <path d="M4.5 77.63c-2.47 0-4.5-2.03-4.5-4.5v-21c0-2.48 2.03-4.5 4.5-4.5h21c2.48 0 4.5 2.02 4.5 4.5v21c0 2.47-2.02 4.5-4.5 4.5h-21z" class="st1"/>
          </g>
          <g id="shape14-22" v:mID="14" v:groupContext="shape" v:layerMember="0" transform="translate(2.25 -2.25)">
            <path d="M25.5 75.38c0 1.27-.97 2.25-2.25 2.25h-21C.98 77.63 0 76.65 0 75.38v-21c0-1.28.98-2.25 2.25-2.25h21c1.28 0 2.25.97 2.25 2.25v21z" fill="#515050" stroke-linecap="butt" stroke-width=".75"/>
          </g>
        </g>
        <g id="group15-24" transform="translate(7.65 -8.25)" v:mID="15" v:groupContext="group" v:layerMember="0">
          <g id="shape16-25" v:mID="16" v:groupContext="shape" v:layerMember="0">
            <path d="M6.67 76.58c-.82.67-2.02 1.05-3.52 1.05-1.28 0-2.33-.23-3.15-.6v-2.4c.82.6 1.8.9 2.93.9.67 0 1.27-.15 1.65-.45.37-.3.59-.75.59-1.28 0-.6-.22-.97-.74-1.27-.53-.3-1.13-.45-2.03-.45H1.2v-2.1h1.05c1.65 0 2.47-.53 2.47-1.65 0-1.05-.6-1.58-1.87-1.58-.83 0-1.65.3-2.48.83v-2.25c.91-.45 1.95-.68 3.08-.68 1.27 0 2.32.3 3 .9.67.6 1.05 1.35 1.05 2.25 0 1.65-.83 2.7-2.48 3.08.9.07 1.58.45 2.1.97.53.53.75 1.2.75 1.95.08 1.2-.29 2.1-1.2 2.78z" class="st1"/>
          </g>
          <g id="group17-27" transform="translate(9.375 -7.2)" v:mID="17" v:groupContext="group" v:layerMember="0">
            <g id="shape18-28" v:mID="18" v:groupContext="shape" v:layerMember="0">
              <path d="M1.95 74.93c-.08-.08-.23-.08-.38-.08a.7.7 0 0 0-.6.3c-.15.23-.22.45-.22.83v1.65H0v-3.38h.75v.68c.07-.23.22-.45.37-.53.15-.15.3-.22.53-.22.15 0 .22 0 .3.07v.68z" class="st1"/>
            </g>
            <g id="shape19-30" v:mID="19" v:groupContext="shape" v:layerMember="0" transform="translate(2.25)">
              <path d="M3.22 77.55h-.75v-.6c-.22.45-.6.68-1.12.68-.45 0-.75-.15-.98-.45-.22-.3-.37-.75-.37-1.2 0-.53.15-.98.45-1.35.3-.3.67-.53 1.12-.53.45 0 .75.15.98.53v-2.1h.75v5.02h-.08zm-.75-1.5v-.45c0-.22-.07-.45-.22-.6-.15-.15-.38-.22-.6-.22-.3 0-.53.07-.67.3-.16.22-.23.52-.23.9 0 .37.07.6.23.82.14.23.37.3.59.3.23 0 .45-.07.6-.3.15-.22.3-.45.3-.75z" class="st1"/>
            </g>
          </g>
        </g>
      </g>
    </g>
  </g>
</svg>
