<svg xmlns="http://www.w3.org/2000/svg" xmlns:v="http://schemas.microsoft.com/visio/2003/SVGExtensions/" width="76.377" height="97.5" viewBox="0 0 57.283 73.125" color-interpolation-filters="sRGB" fill="none" fill-rule="evenodd" font-size="12" overflow="visible" stroke-linecap="square" stroke-miterlimit="3">
  <v:documentProperties v:langID="4108" v:metric="true" v:viewMarkup="false"/>
  <style>
    .st1{fill:#fff;stroke:none;stroke-linecap:butt;stroke-width:.75}
  </style>
  <g v:mID="0" v:index="1" v:groupContext="foregroundPage">
    <v:pageProperties v:drawingScale=".039" v:pageScale=".039" v:drawingUnits="24" v:shadowOffsetX="8.504" v:shadowOffsetY="-8.504"/>
    <v:layer v:name="symbols" v:index="0"/>
    <g id="group46-1" transform="translate(7.763 -6.563)" v:mID="46" v:groupContext="group" v:layerMember="0">
      <g id="group47-2" v:mID="47" v:groupContext="group" v:layerMember="0">
        <g id="group48-3" transform="translate(0 -3)" v:mID="48" v:groupContext="group" v:layerMember="0">
          <g id="shape49-4" v:mID="49" v:groupContext="shape" v:layerMember="0">
            <path d="M0 73.12V21.37a5.21 5.21 0 0 1 5.25-5.24h21a5.21 5.21 0 0 1 5.25 5.24v51.75H0z" class="st1"/>
          </g>
          <g id="shape50-6" v:mID="50" v:groupContext="shape" v:layerMember="0" transform="translate(2.25 -2.25)">
            <path d="M24 20.62H3c-1.65 0-3 1.36-3 3v49.5h27v-49.5c0-1.64-1.35-3-3-3zm-2.25 46.51H5.25v-2.26h16.5v2.26zm0-6.75H5.25v-2.26h16.5v2.26zm0-30.76H5.25v-2.25h16.5v2.25z" fill="#515050" stroke-linecap="butt" stroke-width=".75"/>
          </g>
        </g>
        <g id="group51-8" transform="translate(14.85)" v:mID="51" v:groupContext="group" v:layerMember="0">
          <g id="shape52-9" v:mID="52" v:groupContext="shape" v:layerMember="0">
            <path d="M3.75 73.12c-1.43 0-2.55-.59-3.15-1.64-.6-1.06-.6-2.41.15-3.61l13.2-24.3c.75-1.27 1.87-1.95 3.08-1.95 1.19.01 2.32.68 3.07 1.88l13.27 24.37c.68 1.2.75 2.48.08 3.53-.6 1.05-1.8 1.65-3.15 1.65H3.75v.07z" class="st1"/>
          </g>
          <g id="shape53-11" v:mID="53" v:groupContext="shape" v:layerMember="0" transform="translate(2.025 -2.25)">
            <path d="M29.4 71.25L16.05 46.87c-.6-1.05-1.58-1.05-2.18 0L.6 71.25C0 72.3.52 73.12 1.72 73.12h26.55c1.2 0 1.73-.82 1.13-1.87zM15 53.32c1.42 0 2.62 1.2 2.62 2.63 0 1.42-1.2 2.63-2.62 2.63-1.43 0-2.63-1.21-2.63-2.63 0-1.43 1.2-2.63 2.63-2.63zm5.47 11.26c-.52.07-.97.3-1.35.59l-3.22-6c.52-.15.97-.37 1.35-.67l3.22 6.08zm-7.72-6.08c.37.3.82.6 1.35.67l-3.3 6.08c-.38-.3-.83-.53-1.35-.67l3.3-6.08zm-4.05 12c-1.43 0-2.63-1.2-2.63-2.62 0-1.43 1.2-2.63 2.63-2.63 1.42 0 2.62 1.2 2.62 2.63 0 1.42-1.12 2.62-2.62 2.62zm9.08-1.87H12c.07-.23.07-.53.07-.75 0-.23 0-.53-.07-.76h5.78c-.08.23-.08.53-.08.76 0 .22 0 .52.08.75zm3.29 1.87c-1.42 0-2.62-1.2-2.62-2.62 0-1.43 1.2-2.63 2.62-2.63 1.43 0 2.63 1.2 2.63 2.63 0 1.42-1.2 2.62-2.63 2.62z" fill="#da4026" stroke-linecap="butt" stroke-width=".75"/>
          </g>
        </g>
      </g>
    </g>
  </g>
</svg>
