<svg xmlns="http://www.w3.org/2000/svg" xmlns:v="http://schemas.microsoft.com/visio/2003/SVGExtensions/" width="76.877" height="97.5" viewBox="0 0 57.658 73.125" color-interpolation-filters="sRGB" fill="none" fill-rule="evenodd" font-size="12" overflow="visible" stroke-linecap="square" stroke-miterlimit="3">
  <v:documentProperties v:langID="4108" v:metric="true" v:viewMarkup="false"/>
  <style>
    .st1,.st4{fill:#fff;stroke:none;stroke-linecap:butt;stroke-width:.75}.st4{fill:#cccbcb}
  </style>
  <g v:mID="0" v:index="1" v:groupContext="foregroundPage">
    <v:pageProperties v:drawingScale=".039" v:pageScale=".039" v:drawingUnits="24" v:shadowOffsetX="8.504" v:shadowOffsetY="-8.504"/>
    <v:layer v:name="symbols" v:index="0"/>
    <g id="group62-1" transform="translate(8.137 -6.563)" v:mID="62" v:groupContext="group" v:layerMember="0">
      <g id="group63-2" v:mID="63" v:groupContext="group" v:layerMember="0">
        <g id="group64-3" transform="translate(0 -3)" v:mID="64" v:groupContext="group" v:layerMember="0">
          <g id="shape65-4" v:mID="65" v:groupContext="shape" v:layerMember="0">
            <path d="M0 73.12V21.37a5.21 5.21 0 0 1 5.25-5.24h21a5.21 5.21 0 0 1 5.25 5.24v51.75H0z" class="st1"/>
          </g>
          <g id="shape66-6" v:mID="66" v:groupContext="shape" v:layerMember="0" transform="translate(2.25 -2.25)">
            <path d="M24 20.62H3c-1.65 0-3 1.36-3 3v49.5h27v-49.5c0-1.64-1.35-3-3-3zm-2.25 46.51H5.25v-2.26h16.5v2.26zm0-6.75H5.25v-2.26h16.5v2.26zm0-30.76H5.25v-2.25h16.5v2.25z" fill="#515050" stroke-linecap="butt" stroke-width=".75"/>
          </g>
        </g>
        <g id="group67-8" transform="translate(14.85)" v:mID="67" v:groupContext="group" v:layerMember="0">
          <g id="shape68-9" v:mID="68" v:groupContext="shape" v:layerMember="0">
            <path d="M3.75 73.12c-1.43 0-2.55-.59-3.15-1.64-.6-1.06-.6-2.41.15-3.61l13.2-24.3c.75-1.27 1.87-1.95 3.08-1.95 1.19.01 2.32.68 3.07 1.88l13.27 24.37c.68 1.2.75 2.48.08 3.53-.6 1.05-1.8 1.65-3.15 1.65H3.75v.07z" class="st1"/>
          </g>
          <g id="shape69-11" v:mID="69" v:groupContext="shape" v:layerMember="0" transform="translate(2.025 -2.25)">
            <path d="M29.4 71.25L16.05 46.87c-.6-1.05-1.58-1.05-2.18 0L.6 71.25C0 72.3.52 73.12 1.72 73.12h26.55c1.2 0 1.73-.82 1.13-1.87zM15 53.32c1.42 0 2.62 1.2 2.62 2.63 0 1.42-1.2 2.63-2.62 2.63-1.43 0-2.63-1.21-2.63-2.63 0-1.43 1.2-2.63 2.63-2.63zm5.47 11.26c-.52.07-.97.3-1.35.59l-3.22-6c.52-.15.97-.37 1.35-.67l3.22 6.08zm-7.72-6.08c.37.3.82.6 1.35.67l-3.3 6.08c-.38-.3-.83-.53-1.35-.67l3.3-6.08zm-4.05 12c-1.43 0-2.63-1.2-2.63-2.62 0-1.43 1.2-2.63 2.63-2.63 1.42 0 2.62 1.2 2.62 2.63 0 1.42-1.12 2.62-2.62 2.62zm9.08-1.87H12c.07-.23.07-.53.07-.75 0-.23 0-.53-.07-.76h5.78c-.08.23-.08.53-.08.76 0 .22 0 .52.08.75zm3.29 1.87c-1.42 0-2.62-1.2-2.62-2.62 0-1.43 1.2-2.63 2.62-2.63 1.43 0 2.63 1.2 2.63 2.63 0 1.42-1.2 2.62-2.63 2.62z" fill="#9c9c9d" stroke-linecap="butt" stroke-width=".75"/>
          </g>
        </g>
        <g id="group70-13" transform="translate(17.55 -2.25)" v:mID="70" v:groupContext="group" v:layerMember="0">
          <g id="shape71-14" v:mID="71" v:groupContext="shape" v:layerMember="0" transform="translate(11.25 -22.725)">
            <path d="M1.95 69.6L0 73.12l3.9-3.9c-.6-.67-1.43-.52-1.95.38z" class="st4"/>
          </g>
          <g id="shape72-16" v:mID="72" v:groupContext="shape" v:layerMember="0" transform="translate(5.55 -12.15)">
            <path d="M2.55 68.33L0 73.12l11.25-11.47-.75-1.35-7.95 8.03z" class="st4"/>
          </g>
          <g id="shape74-19" v:mID="74" v:groupContext="shape" v:layerMember="0" transform="translate(15.225 -18.675)">
            <path d="M2.4 69.75L0 72.23c.45.15.9.52 1.2.89l1.95-2.02-.75-1.35z" class="st4"/>
          </g>
          <g id="shape75-21" v:mID="75" v:groupContext="shape" v:layerMember="0" transform="translate(0 -2.175)">
            <path d="M11.7 61.43l.38-.75c.07.07.15.07.22.15l.53-.53c-.45-.3-.75-.67-.9-1.2l-9.3 9.3L0 73.12l11.7-11.69z" class="st4"/>
          </g>
          <g id="shape76-23" v:mID="76" v:groupContext="shape" v:layerMember="0" transform="translate(.45)">
            <path d="M4.95 68.02L0 73.05c.15.07.38.07.6.07h1.42l3.53-3.6c-.3-.45-.52-.97-.6-1.5z" class="st4"/>
          </g>
          <g id="shape77-25" v:mID="77" v:groupContext="shape" v:layerMember="0" transform="translate(8.025 -7.275)">
            <path d="M8.85 63.6c-.15 1.13-1.05 1.95-2.17 2.18L4.5 68.03l-2.47 4.5c-.38-.3-.83-.53-1.35-.68l-.68.68c.6 0 1.13.22 1.5.59l5.92-5.99-.37-.68c.52-.15.97-.37 1.35-.67l.15.22 3.3-3.37-.75-1.35-2.25 2.32z" class="st4"/>
          </g>
          <g id="shape78-27" v:mID="78" v:groupContext="shape" v:layerMember="0" transform="translate(4.875)">
            <path d="M6.53 68.63h-.08c.08-.23.08-.53.08-.76 0-.22 0-.52-.08-.74h1.58l4.27-4.36-.75-1.35-5.85 5.93c.08.15.08.37.08.52 0 1.43-1.13 2.63-2.63 2.63-.15 0-.3 0-.53-.08L0 73.12h2.1l4.43-4.49z" class="st4"/>
          </g>
          <g id="shape79-29" v:mID="79" v:groupContext="shape" v:layerMember="0" transform="translate(17.55 -11.475)">
            <path d="M0 71.78l.68 1.34 3.37-3.37-.75-1.35L0 71.78z" class="st4"/>
          </g>
          <g id="shape80-31" v:mID="80" v:groupContext="shape" v:layerMember="0" transform="translate(9.45)">
            <path d="M4.42 68.63L0 73.12h2.1l4.42-4.49h-2.1z" class="st4"/>
          </g>
          <g id="shape81-33" v:mID="81" v:groupContext="shape" v:layerMember="0" transform="translate(15.3 -5.625)">
            <path d="M3.83 68.85l.67 1.35c-.52.08-.97.3-1.35.6l-.45-.82L0 72.75h1.8c-.08.15-.08.22-.08.37l6.23-6.3-.75-1.35-3.37 3.38z" class="st4"/>
          </g>
          <g id="shape82-35" v:mID="82" v:groupContext="shape" v:layerMember="0" transform="translate(13.875)">
            <path d="M5.1 70.05c-.45-.3-.75-.67-.98-1.12L0 73.12h2.1l3-3.07z" class="st4"/>
          </g>
          <g id="shape83-37" v:mID="83" v:groupContext="shape" v:layerMember="0" transform="translate(21.375 -6.75)">
            <path d="M2.7 69.45L0 72.15c.45.23.9.53 1.2.97l2.25-2.32-.75-1.35z" class="st4"/>
          </g>
          <g id="shape84-39" v:mID="84" v:groupContext="shape" v:layerMember="0" transform="translate(18.375)">
            <path d="M7.27 65.63L4.58 68.4c-.23.98-.98 1.73-1.96 2.03L0 73.12h2.1l5.92-6.07-.75-1.42z" class="st4"/>
          </g>
          <g id="shape85-41" v:mID="85" v:groupContext="shape" v:layerMember="0" transform="translate(22.8)">
            <path d="M5.18 69.9l-.75-1.35L0 73.12h2.03l3.15-3.22z" class="st4"/>
          </g>
          <g id="shape86-43" v:mID="86" v:groupContext="shape" v:layerMember="0" transform="translate(27.3)">
            <path d="M1.58 71.55L0 73.12h.3c1.13 0 1.65-.67 1.28-1.57z" class="st4"/>
          </g>
        </g>
      </g>
    </g>
  </g>
</svg>
