<svg xmlns="http://www.w3.org/2000/svg" xmlns:v="http://schemas.microsoft.com/visio/2003/SVGExtensions/" width="79.5" height="97.5" viewBox="0 0 59.625 73.125" color-interpolation-filters="sRGB" fill="none" fill-rule="evenodd" font-size="12" overflow="visible" stroke-linecap="square" stroke-miterlimit="3">
  <v:documentProperties v:langID="4108" v:metric="true" v:viewMarkup="false"/>
  <style>
    .st1,.st2{fill:#fff;stroke:none;stroke-linecap:butt;stroke-width:.75}.st2{fill:#515050}
  </style>
  <g v:mID="0" v:index="1" v:groupContext="foregroundPage">
    <v:pageProperties v:drawingScale=".039" v:pageScale=".039" v:drawingUnits="24" v:shadowOffsetX="8.504" v:shadowOffsetY="-8.504"/>
    <v:layer v:name="symbols" v:index="0"/>
    <g id="group87-1" transform="translate(7.313 -6.188)" v:mID="87" v:groupContext="group" v:layerMember="0">
      <g id="group88-2" transform="translate(0 -3.75)" v:mID="88" v:groupContext="group" v:layerMember="0">
        <g id="shape89-3" v:mID="89" v:groupContext="shape" v:layerMember="0">
          <path d="M0 73.13V21.38c0-2.93 2.33-5.25 5.25-5.25h21c2.93 0 5.25 2.32 5.25 5.25v51.75H0z" class="st1"/>
        </g>
        <g id="shape90-5" v:mID="90" v:groupContext="shape" v:layerMember="0" transform="translate(2.25 -2.25)">
          <path d="M24 20.63H3c-1.65 0-3 1.35-3 3v49.5h27v-49.5c0-1.65-1.35-3-3-3zm-2.25 46.5H5.25v-2.25h16.5v2.25zm0-6.75H5.25v-2.25h16.5v2.25zm0-30.75H5.25v-2.25h16.5v2.25z" class="st2"/>
        </g>
      </g>
      <g id="group91-7" transform="translate(17.25)" v:mID="91" v:groupContext="group" v:layerMember="0">
        <g id="shape92-8" v:mID="92" v:groupContext="shape" v:layerMember="0">
          <path d="M3.75 73.13c-2.1 0-3.75-1.65-3.75-3.75V49.13c0-2.1 1.65-3.75 3.75-3.75H30c2.1 0 3.75 1.65 3.75 3.75v20.25c0 2.1-1.65 3.75-3.75 3.75H3.75z" class="st1"/>
        </g>
        <g id="shape93-10" v:mID="93" v:groupContext="shape" v:layerMember="0" transform="translate(2.25 -2.25)">
          <path d="M27.75 49.88H1.5c-.9 0-1.5.6-1.5 1.5v20.25c0 .9.6 1.5 1.5 1.5h26.25c.9 0 1.5-.6 1.5-1.5V51.38c0-.9-.6-1.5-1.5-1.5zm0 21.75H1.5V54.38h26.25v17.25z" class="st2"/>
        </g>
        <g id="shape94-12" v:mID="94" v:groupContext="shape" v:layerMember="0" transform="translate(28.5 -22.5)">
          <path class="st1" d="M0 71.625h1.5v1.5H0z"/>
        </g>
        <g id="shape95-14" v:mID="95" v:groupContext="shape" v:layerMember="0" transform="translate(25.5 -22.5)">
          <path class="st1" d="M0 71.625h1.5v1.5H0z"/>
        </g>
        <g id="shape96-16" v:mID="96" v:groupContext="shape" v:layerMember="0" transform="translate(22.5 -22.5)">
          <path class="st1" d="M0 71.625h1.5v1.5H0z"/>
        </g>
      </g>
    </g>
  </g>
</svg>
