<svg xmlns="http://www.w3.org/2000/svg" xmlns:v="http://schemas.microsoft.com/visio/2003/SVGExtensions/" width="79.5" height="97.5" viewBox="0 0 59.625 73.125" color-interpolation-filters="sRGB" fill="none" fill-rule="evenodd" font-size="12" overflow="visible" stroke-linecap="square" stroke-miterlimit="3">
  <v:documentProperties v:langID="4108" v:metric="true" v:viewMarkup="false"/>
  <style>
    .st1,.st4{fill:#fff;stroke:none;stroke-linecap:butt;stroke-width:.75}.st4{fill:#cccbcb}
  </style>
  <g v:mID="0" v:index="1" v:groupContext="foregroundPage">
    <v:pageProperties v:drawingScale=".039" v:pageScale=".039" v:drawingUnits="24" v:shadowOffsetX="8.504" v:shadowOffsetY="-8.504"/>
    <v:layer v:name="symbols" v:index="0"/>
    <g id="group130-1" transform="translate(7.125 -6.188)" v:mID="130" v:groupContext="group" v:layerMember="0">
      <g id="group131-2" v:mID="131" v:groupContext="group" v:layerMember="0">
        <g id="group132-3" transform="translate(0 -3.75)" v:mID="132" v:groupContext="group" v:layerMember="0">
          <g id="shape133-4" v:mID="133" v:groupContext="shape" v:layerMember="0">
            <path d="M0 73.13V21.38c0-2.93 2.33-5.25 5.25-5.25h21c2.93 0 5.25 2.32 5.25 5.25v51.75H0z" class="st1"/>
          </g>
          <g id="shape134-6" v:mID="134" v:groupContext="shape" v:layerMember="0" transform="translate(2.25 -2.25)">
            <path d="M24 20.63H3c-1.65 0-3 1.35-3 3v49.5h27v-49.5c0-1.65-1.35-3-3-3zm-2.25 46.5H5.25v-2.25h16.5v2.25zm0-6.75H5.25v-2.25h16.5v2.25zm0-30.75H5.25v-2.25h16.5v2.25z" fill="#515050" stroke-linecap="butt" stroke-width=".75"/>
          </g>
        </g>
        <g id="group135-8" transform="translate(17.25)" v:mID="135" v:groupContext="group" v:layerMember="0">
          <g id="shape136-9" v:mID="136" v:groupContext="shape" v:layerMember="0">
            <path d="M3.75 73.13c-2.1 0-3.75-1.65-3.75-3.75V49.13c0-2.1 1.65-3.75 3.75-3.75H30c2.1 0 3.75 1.65 3.75 3.75v20.25c0 2.1-1.65 3.75-3.75 3.75H3.75z" class="st1"/>
          </g>
          <g id="shape137-11" v:mID="137" v:groupContext="shape" v:layerMember="0" transform="translate(2.25 -2.25)">
            <path d="M27.75 49.88H1.5c-.9 0-1.5.6-1.5 1.5v20.25c0 .9.6 1.5 1.5 1.5h26.25c.9 0 1.5-.6 1.5-1.5V51.38c0-.9-.6-1.5-1.5-1.5zm0 21.75H1.5V54.38h26.25v17.25z" fill="#9c9c9d" stroke-linecap="butt" stroke-width=".75"/>
          </g>
          <g id="shape138-13" v:mID="138" v:groupContext="shape" v:layerMember="0" transform="translate(28.5 -22.5)">
            <path class="st1" d="M0 71.625h1.5v1.5H0z"/>
          </g>
          <g id="shape139-15" v:mID="139" v:groupContext="shape" v:layerMember="0" transform="translate(25.5 -22.5)">
            <path class="st1" d="M0 71.625h1.5v1.5H0z"/>
          </g>
          <g id="shape140-17" v:mID="140" v:groupContext="shape" v:layerMember="0" transform="translate(22.5 -22.5)">
            <path class="st1" d="M0 71.625h1.5v1.5H0z"/>
          </g>
        </g>
        <g id="group141-19" transform="translate(19.5 -2.25)" v:mID="141" v:groupContext="group" v:layerMember="0">
          <g id="shape142-20" v:mID="142" v:groupContext="shape" v:layerMember="0" transform="translate(0 -18.525)">
            <path d="M4.65 68.4h-2.1L0 70.95v2.18l4.65-4.73z" class="st4"/>
          </g>
          <g id="shape143-22" v:mID="143" v:groupContext="shape" v:layerMember="0" transform="translate(0 -14.025)">
            <path d="M1.5 69.45L0 70.95v2.18l1.5-1.58v-2.1z" class="st4"/>
          </g>
          <g id="shape144-24" v:mID="144" v:groupContext="shape" v:layerMember="0" transform="translate(2.55 -18.75)">
            <path d="M2.1 73.13l4.5-4.5H4.5L0 73.13h2.1z" class="st4"/>
          </g>
          <g id="shape145-26" v:mID="145" v:groupContext="shape" v:layerMember="0" transform="translate(7.05 -18.75)">
            <path d="M2.1 73.13l4.5-4.5H4.43L0 73.13h2.1z" class="st4"/>
          </g>
          <g id="shape146-28" v:mID="146" v:groupContext="shape" v:layerMember="0" transform="translate(0 -9.525)">
            <path d="M1.5 71.55v-2.1L0 70.95v2.18l1.5-1.58z" class="st4"/>
          </g>
          <g id="shape147-30" v:mID="147" v:groupContext="shape" v:layerMember="0" transform="translate(11.7 -18.75)">
            <path d="M0 73.13h2.18l4.42-4.5H4.5L0 73.13z" class="st4"/>
          </g>
          <g id="shape148-32" v:mID="148" v:groupContext="shape" v:layerMember="0" transform="translate(0 -4.725)">
            <path d="M1.5 69.45L0 70.95v2.18l1.5-1.5v-2.18z" class="st4"/>
          </g>
          <g id="shape149-34" v:mID="149" v:groupContext="shape" v:layerMember="0" transform="translate(0 -.525)">
            <path d="M1.5 69.75L0 71.25v.9c0 .38.15.68.3.98l1.2-1.2v-2.18z" class="st4"/>
          </g>
          <g id="shape150-36" v:mID="150" v:groupContext="shape" v:layerMember="0" transform="translate(16.2 -18.75)">
            <path d="M2.1 73.13l1.95-1.95v-1.05h.97l1.5-1.5h-2.1L0 73.13h2.1z" class="st4"/>
          </g>
          <g id="shape151-38" v:mID="151" v:groupContext="shape" v:layerMember="0" transform="translate(23.625 -20.775)">
            <path d="M0 72.15h1.12v.98l2.48-2.48H1.5L0 72.15z" class="st4"/>
          </g>
          <g id="shape152-40" v:mID="152" v:groupContext="shape" v:layerMember="0" transform="translate(20.7 -18.75)">
            <path d="M3.53 71.63h-.98V70.5L0 73.13h2.1l1.43-1.5z" class="st4"/>
          </g>
          <g id="shape153-42" v:mID="153" v:groupContext="shape" v:layerMember="0" transform="translate(2.175)">
            <path d="M3.6 71.63H1.5L0 73.13h2.1l1.5-1.5z" class="st4"/>
          </g>
          <g id="shape154-44" v:mID="154" v:groupContext="shape" v:layerMember="0" transform="translate(6.675)">
            <path d="M3.6 71.63H1.5L0 73.13h2.1l1.5-1.5z" class="st4"/>
          </g>
          <g id="shape155-46" v:mID="155" v:groupContext="shape" v:layerMember="0" transform="translate(25.125 -18.75)">
            <path d="M3.83 69.23l-1.2 1.27v1.13H1.5L0 73.13h2.1l2.02-2.03v-.97c0-.38-.07-.68-.29-.9z" class="st4"/>
          </g>
          <g id="shape156-48" v:mID="156" v:groupContext="shape" v:layerMember="0" transform="translate(27.75 -14.7)">
            <path d="M0 71.03v2.1l1.5-1.5v-2.18L0 71.03z" class="st4"/>
          </g>
          <g id="shape157-50" v:mID="157" v:groupContext="shape" v:layerMember="0" transform="translate(11.25)">
            <path d="M1.42 71.63L0 73.13h2.1l1.5-1.5H1.42z" class="st4"/>
          </g>
          <g id="shape158-52" v:mID="158" v:groupContext="shape" v:layerMember="0" transform="translate(15.675)">
            <path d="M3.53 71.63h-2.1L0 73.13h2.1l1.43-1.5z" class="st4"/>
          </g>
          <g id="shape159-54" v:mID="159" v:groupContext="shape" v:layerMember="0" transform="translate(27.75 -10.2)">
            <path d="M0 73.13l1.5-1.5v-2.18L0 71.03v2.1z" class="st4"/>
          </g>
          <g id="shape160-56" v:mID="160" v:groupContext="shape" v:layerMember="0" transform="translate(27.75 -5.625)">
            <path d="M1.5 69.45L0 71.03v2.1l1.5-1.5v-2.18z" class="st4"/>
          </g>
          <g id="shape161-58" v:mID="161" v:groupContext="shape" v:layerMember="0" transform="translate(20.175)">
            <path d="M1.5 71.63L0 73.13h2.1l1.5-1.5H1.5z" class="st4"/>
          </g>
          <g id="shape162-60" v:mID="162" v:groupContext="shape" v:layerMember="0" transform="translate(24.6)">
            <path d="M4.65 70.5v-2.17l-1.5 1.57v1.73H1.43L0 73.13h2.1l2.55-2.63z" class="st4"/>
          </g>
        </g>
      </g>
    </g>
  </g>
</svg>
