<svg xmlns="http://www.w3.org/2000/svg" xmlns:v="http://schemas.microsoft.com/visio/2003/SVGExtensions/" width="79.5" height="97.5" viewBox="0 0 59.625 73.125" color-interpolation-filters="sRGB" fill="none" fill-rule="evenodd" font-size="12" overflow="visible" stroke-linecap="square" stroke-miterlimit="3">
  <v:documentProperties v:langID="4108" v:metric="true" v:viewMarkup="false"/>
  <style>
    .st1{fill:#fff;stroke:none;stroke-linecap:butt;stroke-width:.75}
  </style>
  <g v:mID="0" v:index="1" v:groupContext="foregroundPage">
    <v:pageProperties v:drawingScale=".039" v:pageScale=".039" v:drawingUnits="24" v:shadowOffsetX="8.504" v:shadowOffsetY="-8.504"/>
    <v:layer v:name="symbols" v:index="0"/>
    <g id="group97-1" transform="translate(7.688 -6.188)" v:mID="97" v:groupContext="group" v:layerMember="0">
      <g id="group98-2" v:mID="98" v:groupContext="group" v:layerMember="0">
        <g id="group99-3" transform="translate(0 -3.75)" v:mID="99" v:groupContext="group" v:layerMember="0">
          <g id="shape100-4" v:mID="100" v:groupContext="shape" v:layerMember="0">
            <path d="M0 73.13V21.38c0-2.93 2.33-5.25 5.25-5.25h21c2.93 0 5.25 2.32 5.25 5.25v51.75H0z" class="st1"/>
          </g>
          <g id="shape101-6" v:mID="101" v:groupContext="shape" v:layerMember="0" transform="translate(2.25 -2.25)">
            <path d="M24 20.63H3c-1.65 0-3 1.35-3 3v49.5h27v-49.5c0-1.65-1.35-3-3-3zm-2.25 46.5H5.25v-2.25h16.5v2.25zm0-6.75H5.25v-2.25h16.5v2.25zm0-30.75H5.25v-2.25h16.5v2.25z" fill="#515050" stroke-linecap="butt" stroke-width=".75"/>
          </g>
        </g>
        <g id="group102-8" transform="translate(17.25)" v:mID="102" v:groupContext="group" v:layerMember="0">
          <g id="shape103-9" v:mID="103" v:groupContext="shape" v:layerMember="0">
            <path d="M3.75 73.13c-2.1 0-3.75-1.65-3.75-3.75V49.13c0-2.1 1.65-3.75 3.75-3.75H30c2.1 0 3.75 1.65 3.75 3.75v20.25c0 2.1-1.65 3.75-3.75 3.75H3.75z" class="st1"/>
          </g>
          <g id="shape104-11" v:mID="104" v:groupContext="shape" v:layerMember="0" transform="translate(2.25 -2.25)">
            <path d="M27.75 49.88H1.5c-.9 0-1.5.6-1.5 1.5v20.25c0 .9.6 1.5 1.5 1.5h26.25c.9 0 1.5-.6 1.5-1.5V51.38c0-.9-.6-1.5-1.5-1.5zm0 21.75H1.5V54.38h26.25v17.25z" fill="#2072b8" stroke-linecap="butt" stroke-width=".75"/>
          </g>
          <g id="shape105-13" v:mID="105" v:groupContext="shape" v:layerMember="0" transform="translate(28.5 -22.5)">
            <path class="st1" d="M0 71.625h1.5v1.5H0z"/>
          </g>
          <g id="shape106-15" v:mID="106" v:groupContext="shape" v:layerMember="0" transform="translate(25.5 -22.5)">
            <path class="st1" d="M0 71.625h1.5v1.5H0z"/>
          </g>
          <g id="shape107-17" v:mID="107" v:groupContext="shape" v:layerMember="0" transform="translate(22.5 -22.5)">
            <path class="st1" d="M0 71.625h1.5v1.5H0z"/>
          </g>
        </g>
      </g>
    </g>
  </g>
</svg>
