<svg xmlns="http://www.w3.org/2000/svg" xmlns:v="http://schemas.microsoft.com/visio/2003/SVGExtensions/" width="88.5" height="99" viewBox="0 0 66.375 74.25" color-interpolation-filters="sRGB" fill="none" fill-rule="evenodd" font-size="12" overflow="visible" stroke-linecap="square" stroke-miterlimit="3">
  <v:documentProperties v:langID="4108" v:metric="true" v:viewMarkup="false"/>
  <style>
    .st1,.st2{fill:#fff;stroke:none;stroke-linecap:butt;stroke-width:.75}.st2{fill:#515251}
  </style>
  <g v:mID="0" v:index="1" v:groupContext="foregroundPage">
    <v:pageProperties v:drawingScale=".039" v:pageScale=".039" v:drawingUnits="24" v:shadowOffsetX="8.504" v:shadowOffsetY="-8.504"/>
    <v:layer v:name="symbols" v:index="0"/>
    <g id="group163-1" transform="translate(6.825 -4.688)" v:mID="163" v:groupContext="group" v:layerMember="0">
      <g id="group164-2" v:mID="164" v:groupContext="group" v:layerMember="0">
        <g id="group165-3" transform="translate(0 -3)" v:mID="165" v:groupContext="group" v:layerMember="0">
          <g id="shape166-4" v:mID="166" v:groupContext="shape" v:layerMember="0">
            <path d="M0 74.25V22.5c0-2.93 2.33-5.25 5.25-5.25h21c2.93 0 5.25 2.32 5.25 5.25v51.75H0z" class="st1"/>
          </g>
          <g id="shape167-6" v:mID="167" v:groupContext="shape" v:layerMember="0" transform="translate(2.25 -2.25)">
            <path d="M24 21.75H3c-1.65 0-3 1.35-3 3v49.5h27v-49.5c0-1.65-1.35-3-3-3zm-2.25 46.5H5.25V66h16.5v2.25zm0-6.75H5.25v-2.25h16.5v2.25zm0-30.75H5.25V28.5h16.5v2.25z" class="st2"/>
          </g>
        </g>
        <g id="group168-8" transform="translate(20.325)" v:mID="168" v:groupContext="group" v:layerMember="0">
          <g id="shape169-9" v:mID="169" v:groupContext="shape" v:layerMember="0">
            <path d="M20.85 74.25c-1.2 0-2.32-.75-2.77-1.88l-.68-1.57h-1.28l-.67 1.57c-.37 1.13-1.5 1.88-2.7 1.88-.37 0-.82-.08-1.12-.23l-2.86-1.2c-.74-.3-1.35-.9-1.65-1.65-.29-.75-.29-1.57 0-2.32l.68-1.58-.83-.82-1.57.67c-.37.15-.75.23-1.12.23-1.2 0-2.33-.75-2.78-1.88L.3 62.62c-.3-.75-.3-1.57 0-2.32.3-.75.9-1.35 1.65-1.65l1.57-.68v-1.2l-1.57-.67C1.2 55.8.6 55.2.3 54.45c-.3-.75-.3-1.58 0-2.33l1.2-2.85a3.029 3.029 0 0 1 2.78-1.87c.37 0 .75.07 1.12.22l1.57.68.83-.83-.68-1.57c-.29-.75-.29-1.58 0-2.33.3-.75.91-1.35 1.65-1.65l2.86-1.2c.37-.15.75-.22 1.12-.22 1.2 0 2.33.75 2.78 1.87l.59 1.5h1.28l.6-1.57a3.012 3.012 0 0 1 2.78-1.88c.37 0 .75.08 1.12.23l2.85 1.2c.75.3 1.35.9 1.65 1.65.3.75.3 1.57 0 2.32l-.68 1.58.83.82 1.58-.67c.37-.15.75-.23 1.12-.23 1.2 0 2.33.75 2.78 1.88l1.2 2.85c.29.75.29 1.57 0 2.32-.3.75-.9 1.35-1.65 1.65L30 56.7v1.2l1.58.67c1.57.68 2.25 2.4 1.65 3.98l-1.2 2.85a3.029 3.029 0 0 1-2.78 1.87c-.37 0-.82-.07-1.2-.22l-1.57-.68-.83.83.68 1.57c.29.75.29 1.58 0 2.33-.3.75-.9 1.35-1.65 1.65l-2.86 1.2c-.14.22-.59.3-.97.3zM16.8 51.9c-3 0-5.48 2.47-5.48 5.47 0 3 2.48 5.48 5.48 5.48 3 0 5.47-2.48 5.47-5.48 0-3-2.47-5.47-5.47-5.47z" class="st1"/>
          </g>
          <g id="shape170-11" v:mID="170" v:groupContext="shape" v:layerMember="0" transform="translate(2.025 -2.1)">
            <path d="M28.95 62.85l-2.4-.98c-.37-.15-.67-.37-.67-.45 0-.07.07-.52.07-.9v-1.95c0-.45-.07-.82-.07-.9 0-.07.3-.3.67-.45l2.4-.97c.37-.15.6-.6.45-1.05l-1.2-2.85c-.15-.38-.6-.6-1.05-.45l-2.4.97c-.38.15-.75.23-.83.15-.07-.07-.3-.37-.6-.75l-1.42-1.35c-.3-.3-.67-.52-.67-.6-.08-.07 0-.37.15-.82l.97-2.4c.15-.38 0-.83-.45-1.05l-2.85-1.2c-.38-.15-.83 0-1.05.45l-.97 2.4c-.15.37-.38.67-.45.67-.08 0-.53-.07-.9-.15 0 0-.38-.07-.98-.07s-.98.07-.98.07c-.45.08-.82.08-.9.15-.07 0-.3-.3-.44-.67l-.98-2.4c-.15-.38-.6-.6-1.05-.45l-2.85 1.2c-.37.15-.6.6-.45 1.05l.97 2.4c.15.37.23.75.15.82-.07.08-.37.3-.67.6l-1.42 1.43c-.3.3-.53.67-.6.75-.08.07-.38 0-.83-.15L2.4 51.82c-.37-.15-.82 0-1.05.45l-1.2 2.85c-.15.38 0 .83.45 1.05l2.4.98c.37.15.67.37.67.45 0 .07-.07.52-.07.9v1.95c0 .45.07.82.07.9 0 .07-.3.3-.67.45L.6 62.85c-.37.15-.6.6-.45 1.05l1.2 2.85c.15.37.6.6 1.05.45l2.4-.98c.38-.15.75-.22.83-.15.07.08.3.38.6.75l1.42 1.35c.3.3.67.53.75.6.07.08 0 .45-.15.83l-1.12 2.25c-.15.37 0 .82.44 1.05l2.86 1.2c.37.15.82 0 1.05-.45l.97-2.4c.15-.38.37-.68.45-.68.07 0 .52.08.9.15 0 0 .37.08.98.08.6 0 .97-.08.97-.08.45-.07.83-.07.9-.15.08 0 .3.3.45.68l.97 2.4c.15.37.6.6 1.05.45l2.86-1.2c.37-.15.59-.6.44-1.05l-.97-2.4c-.15-.38-.22-.75-.15-.83.08-.07.38-.3.75-.6l1.42-1.42c.3-.3.53-.68.6-.75.08-.08.38 0 .83.15l2.4.97c.37.15.82 0 1.05-.45l1.2-2.85c-.07-.22-.22-.67-.6-.82zM14.78 67.2c-4.28 0-7.73-3.45-7.73-7.73 0-4.27 3.45-7.72 7.73-7.72 4.27 0 7.72 3.45 7.72 7.72 0 4.28-3.45 7.73-7.72 7.73z" fill="#525352" stroke-linecap="butt" stroke-width=".75"/>
          </g>
        </g>
        <g id="group171-13" transform="translate(19.5 -33.75)" v:mID="171" v:groupContext="group" v:layerMember="0">
          <g id="group172-14" v:mID="172" v:groupContext="group" v:layerMember="0">
            <g id="shape173-15" v:mID="173" v:groupContext="shape" v:layerMember="0">
              <path class="st1" d="M0 44.25h34.5v30H0z"/>
            </g>
            <g id="group174-17" transform="translate(2.25 -2.25)" v:mID="174" v:groupContext="group" v:layerMember="0">
              <g id="shape175-18" v:mID="175" v:groupContext="shape" v:layerMember="0">
                <path class="st1" d="M0 48.75h30v25.5H0z"/>
              </g>
              <g id="shape176-20" v:mID="176" v:groupContext="shape" v:layerMember="0">
                <path d="M28.5 50.25v22.5h-27v-22.5h27zm1.5-1.5H0v25.5h30v-25.5z" class="st2"/>
              </g>
            </g>
          </g>
          <g id="shape177-22" v:mID="177" v:groupContext="shape" v:layerMember="0" transform="translate(9 -6.75)">
            <path d="M13.88 62.55v6.3l2.62-2.63-.15-8.25-8.32-.22-2.63 2.62h6.3l-9.07 9.08v-6.3L0 65.77l.15 8.25 8.33.23 2.62-2.63H4.8l9.08-9.07z" fill="#515150" stroke-linecap="butt" stroke-width=".75"/>
          </g>
        </g>
      </g>
    </g>
  </g>
</svg>
