<svg xmlns="http://www.w3.org/2000/svg" xmlns:v="http://schemas.microsoft.com/visio/2003/SVGExtensions/" width="90" height="102" viewBox="0 0 67.5 76.5" color-interpolation-filters="sRGB" fill="none" fill-rule="evenodd" font-size="12" overflow="visible" stroke-linecap="square" stroke-miterlimit="3">
  <v:documentProperties v:langID="4108" v:metric="true" v:viewMarkup="false"/>
  <style>
    .st1,.st2{fill:#fff;stroke:none;stroke-linecap:butt;stroke-width:.75}.st2{fill:#515050}
  </style>
  <g v:mID="0" v:index="1" v:groupContext="foregroundPage">
    <v:pageProperties v:drawingScale=".039" v:pageScale=".039" v:drawingUnits="24" v:shadowOffsetX="8.504" v:shadowOffsetY="-8.504"/>
    <v:layer v:name="symbols" v:index="0"/>
    <g id="group190-1" transform="translate(6.6 -6.938)" v:mID="190" v:groupContext="group" v:layerMember="0">
      <g id="group191-2" transform="translate(0 -13.5)" v:mID="191" v:groupContext="group" v:layerMember="0">
        <g id="shape192-3" v:mID="192" v:groupContext="shape" v:layerMember="0">
          <path d="M0 76.5v-45c0-2.93 2.32-5.25 5.25-5.25h16.5c2.93 0 5.25 2.32 5.25 5.25v45H0z" class="st1"/>
        </g>
        <g id="shape193-5" v:mID="193" v:groupContext="shape" v:layerMember="0" transform="translate(2.25 -2.25)">
          <path d="M19.5 30.75H3c-1.65 0-3 1.35-3 3V76.5h22.5V33.75c0-1.65-1.35-3-3-3zM17.25 70.5h-12v-2.25h12v2.25zm0-6h-12v-2.25h12v2.25zm0-24.75h-12V37.5h12v2.25z" class="st2"/>
        </g>
      </g>
      <g id="group194-7" transform="translate(27 -13.5)" v:mID="194" v:groupContext="group" v:layerMember="0">
        <g id="shape195-8" v:mID="195" v:groupContext="shape" v:layerMember="0">
          <path d="M0 76.5v-45c0-2.93 2.32-5.25 5.25-5.25h16.5c2.93 0 5.25 2.32 5.25 5.25v45H0z" class="st1"/>
        </g>
        <g id="shape196-10" v:mID="196" v:groupContext="shape" v:layerMember="0" transform="translate(2.25 -2.25)">
          <path d="M19.5 30.75H3c-1.65 0-3 1.35-3 3V76.5h22.5V33.75c0-1.65-1.35-3-3-3zM17.25 70.5h-12v-2.25h12v2.25zm0-6h-12v-2.25h12v2.25zm0-24.75h-12V37.5h12v2.25z" class="st2"/>
        </g>
      </g>
      <g id="group197-12" transform="translate(13.5)" v:mID="197" v:groupContext="group" v:layerMember="0">
        <g id="shape198-13" v:mID="198" v:groupContext="shape" v:layerMember="0">
          <path d="M0 76.5v-45c0-2.93 2.32-5.25 5.25-5.25h16.5c2.93 0 5.25 2.32 5.25 5.25v45H0z" class="st1"/>
        </g>
        <g id="shape199-15" v:mID="199" v:groupContext="shape" v:layerMember="0" transform="translate(2.25 -2.25)">
          <path d="M19.5 30.75H3c-1.65 0-3 1.35-3 3V76.5h22.5V33.75c0-1.65-1.35-3-3-3zM17.25 70.5h-12v-2.25h12v2.25zm0-6h-12v-2.25h12v2.25zm0-24.75h-12V37.5h12v2.25z" class="st2"/>
        </g>
      </g>
    </g>
  </g>
</svg>
