<svg xmlns="http://www.w3.org/2000/svg" xmlns:v="http://schemas.microsoft.com/visio/2003/SVGExtensions/" width="81" height="93" viewBox="0 0 60.75 69.75" color-interpolation-filters="sRGB" fill="none" fill-rule="evenodd" font-size="12" overflow="visible" stroke-linecap="square" stroke-miterlimit="3">
  <v:documentProperties v:langID="4108" v:metric="true" v:viewMarkup="false"/>
  <style>
    .st1,.st2{fill:#fff;stroke:none;stroke-linecap:butt;stroke-width:.75}.st2{fill:#515050}.st3{fill:#fff}.st4{stroke:none;stroke-linecap:butt;stroke-width:.75}
  </style>
  <g v:mID="0" v:index="1" v:groupContext="foregroundPage">
    <v:pageProperties v:drawingScale=".039" v:pageScale=".039" v:drawingUnits="24" v:shadowOffsetX="8.504" v:shadowOffsetY="-8.504"/>
    <v:layer v:name="symbols" v:index="0"/>
    <g id="group405-1" transform="translate(6.6 -2.813)" v:mID="405" v:groupContext="group" v:layerMember="0">
      <g id="group406-2" transform="translate(0 -3.75)" v:mID="406" v:groupContext="group" v:layerMember="0">
        <g id="shape407-3" v:mID="407" v:groupContext="shape" v:layerMember="0">
          <path d="M0 69.75V18c0-2.92 2.32-5.25 5.25-5.25h21c2.92 0 5.25 2.33 5.25 5.25v51.75H0z" class="st1"/>
        </g>
        <g id="shape408-5" v:mID="408" v:groupContext="shape" v:layerMember="0" transform="translate(2.25 -2.25)">
          <path d="M24 17.25H3c-1.65 0-3 1.35-3 3v49.5h27v-49.5c0-1.65-1.35-3-3-3zm-2.25 46.5H5.25V61.5h16.5v2.25zm0-6.75H5.25v-2.25h16.5V57zm0-30.75H5.25V24h16.5v2.25z" class="st2"/>
        </g>
      </g>
      <g id="group409-7" transform="translate(19.5)" v:mID="409" v:groupContext="group" v:layerMember="0">
        <g id="group410-8" v:mID="410" v:groupContext="group" v:layerMember="0">
          <g id="shape411-9" v:mID="411" v:groupContext="shape" v:layerMember="0">
            <path d="M16.12 69.75C7.2 69.75 0 62.55 0 53.63 0 44.7 7.2 37.5 16.12 37.5c8.93 0 16.13 7.2 16.13 16.13 0 8.92-7.2 16.12-16.13 16.12z" class="st1"/>
          </g>
          <g id="shape412-11" v:mID="412" v:groupContext="shape" v:layerMember="0" transform="translate(2.25 -2.25)">
            <ellipse cx="13.875" cy="55.875" rx="13.875" ry="13.875" class="st2"/>
          </g>
        </g>
        <g id="group413-13" transform="translate(5.25 -8.25)" v:mID="413" v:groupContext="group" v:layerMember="0">
          <g id="shape414-14" v:mID="414" v:groupContext="shape" v:layerMember="0" transform="translate(0 -8.25)">
            <path d="M5.25 69.75H9L4.5 64.5 0 69.75h5.25z" class="st3"/>
            <path d="M5.25 69.75H9L4.5 64.5 0 69.75" class="st4"/>
          </g>
          <g id="shape415-17" v:mID="415" v:groupContext="shape" v:layerMember="0" transform="translate(6.6 -2.25)">
            <path d="M12.15 64.5v-.37c0-4.35-3.53-7.88-7.88-7.88-1.57 0-3 .45-4.27 1.28l1.5 1.72c.82-.45 1.72-.75 2.77-.75 3.08 0 5.63 2.55 5.63 5.63v.37H6.15l4.5 5.25 4.5-5.25h-3z" class="st1"/>
          </g>
          <g id="shape416-19" v:mID="416" v:groupContext="shape" v:layerMember="0" transform="translate(12.75 -2.25)">
            <path d="M3.75 64.5H0l4.5 5.25L9 64.5H3.75z" class="st3"/>
            <path d="M3.75 64.5H0l4.5 5.25L9 64.5" class="st4"/>
          </g>
          <g id="shape417-22" v:mID="417" v:groupContext="shape" v:layerMember="0">
            <path d="M13.65 66.75c-.83.45-1.73.75-2.78.75-3.07 0-5.62-2.55-5.62-5.62v-.38H9l-4.5-5.25L0 61.5h3v.38c0 4.35 3.52 7.87 7.87 7.87 1.58 0 3-.45 4.28-1.27l-1.5-1.73z" class="st1"/>
          </g>
        </g>
      </g>
    </g>
  </g>
</svg>
