<svg xmlns="http://www.w3.org/2000/svg" xmlns:v="http://schemas.microsoft.com/visio/2003/SVGExtensions/" width="78" height="97.5" viewBox="0 0 58.5 73.125" color-interpolation-filters="sRGB" fill="none" fill-rule="evenodd" font-size="12" overflow="visible" stroke-linecap="square" stroke-miterlimit="3">
  <v:documentProperties v:langID="4108" v:metric="true" v:viewMarkup="false"/>
  <style>
    .st1,.st2{fill:#fff;stroke:none;stroke-linecap:butt;stroke-width:.75}.st2{fill:#515050}
  </style>
  <g v:mID="0" v:index="1" v:groupContext="foregroundPage">
    <v:pageProperties v:drawingScale=".039" v:pageScale=".039" v:drawingUnits="24" v:shadowOffsetX="8.504" v:shadowOffsetY="-8.504"/>
    <v:layer v:name="symbols" v:index="0"/>
    <g id="group418-1" transform="translate(7.763 -6.563)" v:mID="418" v:groupContext="group" v:layerMember="0">
      <g id="group419-2" transform="translate(0 -3)" v:mID="419" v:groupContext="group" v:layerMember="0">
        <g id="shape420-3" v:mID="420" v:groupContext="shape" v:layerMember="0">
          <path d="M0 73.12V21.37c0-2.92 2.33-5.25 5.25-5.25h21c2.93 0 5.25 2.33 5.25 5.25v51.75H0z" class="st1"/>
        </g>
        <g id="shape421-5" v:mID="421" v:groupContext="shape" v:layerMember="0" transform="translate(2.25 -2.25)">
          <path d="M24 20.62H3c-1.65 0-3 1.35-3 3v49.5h27v-49.5c0-1.65-1.35-3-3-3zm-2.25 46.5H5.25v-2.25h16.5v2.25zm0-6.75H5.25v-2.25h16.5v2.25zm0-30.75H5.25v-2.25h16.5v2.25z" class="st2"/>
        </g>
      </g>
      <g id="group422-7" transform="translate(15.6)" v:mID="422" v:groupContext="group" v:layerMember="0">
        <g id="shape423-8" v:mID="423" v:groupContext="shape" v:layerMember="0">
          <path d="M3.75 73.12c-1.43 0-2.55-.6-3.15-1.65-.6-1.05-.6-2.4.15-3.6l13.2-24.3c.75-1.27 1.87-1.95 3.08-1.95 1.19 0 2.32.68 3.07 1.88l13.27 24.37c.68 1.2.75 2.48.08 3.53-.6 1.05-1.8 1.65-3.15 1.65H3.75v.07z" class="st1"/>
        </g>
        <g id="shape424-10" v:mID="424" v:groupContext="shape" v:layerMember="0" transform="translate(2.025 -2.25)">
          <path d="M29.4 71.25L16.05 46.87c-.6-1.05-1.58-1.05-2.18 0L.6 71.25C0 72.3.52 73.12 1.72 73.12h26.55c1.2 0 1.73-.82 1.13-1.87z" class="st2"/>
        </g>
      </g>
    </g>
  </g>
</svg>
