<svg xmlns="http://www.w3.org/2000/svg" xmlns:v="http://schemas.microsoft.com/visio/2003/SVGExtensions/" width="87.825" height="99" viewBox="0 0 65.869 74.25" color-interpolation-filters="sRGB" fill="none" fill-rule="evenodd" font-size="12" overflow="visible" stroke-linecap="square" stroke-miterlimit="3">
  <v:documentProperties v:langID="4108" v:metric="true" v:viewMarkup="false"/>
  <style>
    .st3,.st4{fill:#505050;stroke:none;stroke-linecap:butt;stroke-width:.75}.st4{fill:#fff}.st6{fill:url(#grad0-25);stroke:#f2f2f2;stroke-linecap:round;stroke-linejoin:round;stroke-width:.1878}
  </style>
  <defs id="Patterns_And_Gradients">
    <linearGradient id="grad0-25" x2="1" gradientTransform="rotate(90 .5 .5)">
      <stop offset="0" stop-color="#fff"/>
      <stop offset="1" stop-color="#fff"/>
    </linearGradient>
    <radialGradient id="grad7-35" cx="0" cy="0" r="1.4">
      <stop offset="0" stop-color="#fff"/>
      <stop offset="1" stop-color="#fff"/>
    </radialGradient>
  </defs>
  <g v:mID="0" v:index="1" v:groupContext="foregroundPage">
    <v:pageProperties v:drawingScale=".039" v:pageScale=".039" v:drawingUnits="24" v:shadowOffsetX="8.504" v:shadowOffsetY="-8.504"/>
    <v:layer v:name="symbols" v:index="0"/>
    <g id="group538-1" transform="translate(8.344 -5.85)" v:mID="538" v:groupContext="group" v:layerMember="0">
      <g id="group539-2" v:mID="539" v:groupContext="group" v:layerMember="0">
        <g id="group540-3" v:mID="540" v:groupContext="group" v:layerMember="0">
          <g id="shape541-4" v:mID="541" v:groupContext="shape" v:layerMember="0" transform="translate(0 -4.5)">
            <path d="M0 22.5c0-2.92 2.33-5.25 5.25-5.25h21c2.93 0 5.25 2.33 5.25 5.25v51.75H0V22.5z" fill="#fff"/>
            <path d="M0 22.5c0-2.92 2.33-5.25 5.25-5.25h21c2.93 0 5.25 2.33 5.25 5.25v51.75H0" stroke-linecap="butt" stroke-width=".75"/>
          </g>
          <g id="shape542-7" v:mID="542" v:groupContext="shape" v:layerMember="0" transform="translate(2.25 -6.75)">
            <path d="M24 21.75H3c-1.65 0-3 1.35-3 3v49.5h27v-49.5c0-1.65-1.35-3-3-3zm-2.25 46.5H5.25V66h16.5v2.25zm0-6.75H5.25v-2.25h16.5v2.25zm0-30.75H5.25V28.5h16.5v2.25z" class="st3"/>
          </g>
          <g id="group543-9" transform="translate(16.725)" v:mID="543" v:groupContext="group" v:layerMember="0">
            <g id="shape544-10" v:mID="544" v:groupContext="shape" v:layerMember="0">
              <path d="M29.78 45h-18c-1.05 0-1.96.38-2.63.98-.38-.3-.82-.53-1.35-.68-.82-.22-1.27-.3-2.32-.3-1.05 0-1.58.08-2.4.3-1.8.53-2.85 1.88-3 3.75-.08.53 0 1.2 0 2.33.07 1.57.15 4.12.15 8.55 0 3.52-.08 5.77-.15 7.35-.08 1.27-.08 2.1 0 2.85.07 1.87 1.27 3.3 3.07 3.82.75.23 1.5.3 2.25.3.83 0 1.58-.07 2.4-.3.53-.15 1.05-.37 1.43-.75.67.6 1.57.98 2.62.98h18c2.18 0 3.75-1.58 3.75-3.75V48.75c-.07-2.17-1.65-3.75-3.82-3.75z" class="st4"/>
            </g>
            <g id="shape545-12" v:mID="545" v:groupContext="shape" v:layerMember="0" transform="translate(2.1 -2.175)">
              <path d="M6.45 51.38c-.07-.98-.6-1.5-1.42-1.8-.53-.15-.75-.23-1.73-.23-.9 0-1.12.08-1.72.23-.83.3-1.35.82-1.43 1.8C.07 52.43.3 54.6.3 62.1c0 6.3-.3 8.63-.15 10.13.08.97.6 1.5 1.43 1.8.52.15 1.05.22 1.65.22.6 0 1.2-.07 1.72-.22.83-.23 1.35-.83 1.43-1.8.07-1.5-.15-3.6-.15-9.98.07-7.42.3-9.75.22-10.87z" class="st3"/>
            </g>
            <g id="shape546-14" v:mID="546" v:groupContext="shape" v:layerMember="0" transform="translate(10.275 -2.25)">
              <path d="M19.5 49.5h-18c-.97 0-1.5.53-1.5 1.5v21.75c0 .98.53 1.5 1.5 1.5h18c.98 0 1.5-.52 1.5-1.5V51c0-.97-.52-1.5-1.5-1.5zm-12 20.25c0 .45-.3.75-.75.75h-1.5c-.45 0-.75-.3-.75-.75V69c0-.45.3-.75.75-.75h1.5c.45 0 .75.3.75.75v.75zm0-3.75c0 .45-.3.75-.75.75h-1.5c-.45 0-.75-.3-.75-.75v-.75c0-.45.3-.75.75-.75h1.5c.45 0 .75.3.75.75V66zm0-3.75c0 .45-.3.75-.75.75h-1.5c-.45 0-.75-.3-.75-.75v-.75c0-.45.3-.75.75-.75h1.5c.45 0 .75.3.75.75v.75zm4.5 7.5c0 .45-.3.75-.75.75h-1.5c-.45 0-.75-.3-.75-.75V69c0-.45.3-.75.75-.75h1.5c.45 0 .75.3.75.75v.75zM12 66c0 .45-.3.75-.75.75h-1.5c-.45 0-.75-.3-.75-.75v-.75c0-.45.3-.75.75-.75h1.5c.45 0 .75.3.75.75V66zm0-3.75c0 .45-.3.75-.75.75h-1.5c-.45 0-.75-.3-.75-.75v-.75c0-.45.3-.75.75-.75h1.5c.45 0 .75.3.75.75v.75zm4.5 7.5c0 .45-.3.75-.75.75h-1.5c-.45 0-.75-.3-.75-.75V69c0-.45.3-.75.75-.75h1.5c.45 0 .75.3.75.75v.75zm0-3.75c0 .45-.3.75-.75.75h-1.5c-.45 0-.75-.3-.75-.75v-.75c0-.45.3-.75.75-.75h1.5c.45 0 .75.3.75.75V66zm0-3.75c0 .45-.3.75-.75.75h-1.5c-.45 0-.75-.3-.75-.75v-.75c0-.45.3-.75.75-.75h1.5c.45 0 .75.3.75.75v.75zm.75-4.5H3.75V52.5h13.5v5.25z" class="st3"/>
            </g>
          </g>
        </g>
        <g id="group547-16" transform="translate(31.5 -39)" v:mID="547" v:groupContext="group" v:layerMember="0">
          <g id="shape548-17" v:mID="548" v:groupContext="shape" v:layerMember="0">
            <path class="st4" d="M0 49.5h24.75v24.75H0z"/>
          </g>
          <g id="shape549-19" v:mID="549" v:groupContext="shape" v:layerMember="0" transform="translate(2.25 -2.25)">
            <path fill="#f79421" stroke-linecap="butt" stroke-width=".75" d="M0 54h20.25v20.25H0z"/>
          </g>
          <g id="group550-21" transform="translate(6.225 -6.225)" v:mID="550" v:groupContext="group" v:layerMember="0">
            <g id="shape551-22" v:mID="551" v:groupContext="shape" v:layerMember="0" transform="translate(5.1 -6.75)">
              <path d="M6.6 68.78H3.68c-.38 0-.38 0-.6.22l-1.5 1.73C.23 72.53.08 73.13 0 73.5c0 .15.22.53.22.53l.08.07c.08-.22.08-.3.23-.6.22-.45.45-.6.75-1.05.44-.52.6-.67 1.05-1.05.52-.52 1.05-.82 1.05-.82H5.4v2.02s-.67 1.05-.67 1.13c0 0 .9.52.97.45l1.35-1.2c.08-.08.15-.23.15-.3v-3.3c-.07-.45-.22-.6-.6-.6z" class="st6"/>
            </g>
            <g id="shape552-26" v:mID="552" v:groupContext="shape" v:layerMember="0" transform="translate(.075 -4.95)">
              <path d="M0 67.58v2.92c0 .38 0 .38.22.6l1.73 1.58c1.73 1.35 2.4 1.5 2.77 1.57.16 0 .53-.22.53-.22l.07-.08c-.15-.07-.3-.07-.59-.22-.45-.23-.6-.45-1.05-.75-.53-.45-.68-.6-1.05-1.05-.53-.53-.83-1.05-.83-1.05v-2.03-.07h2.03c-.01 0 1.05.67 1.12.67 0 0 .53-.9.45-.97l-1.2-1.35a.534.534 0 0 0-.3-.15H.68c-.53.07-.68.22-.68.6z" class="st6"/>
            </g>
            <g id="shape553-29" v:mID="553" v:groupContext="shape" v:layerMember="0">
              <path d="M.53 74.25h2.92c.38 0 .38 0 .6-.22l1.58-1.73c1.35-1.8 1.5-2.4 1.57-2.77 0-.15-.22-.53-.22-.53l-.08-.07c-.07.15-.07.3-.22.6-.23.45-.45.6-.75 1.05-.45.52-.6.67-1.05 1.05-.53.52-1.05.82-1.05.82H1.88 1.8v-2.02s.68-1.05.68-1.13c0 0-.9-.52-.98-.45l-1.35 1.2c-.07.08-.15.23-.15.3v3.38c0 .37.15.52.53.52z" class="st6"/>
            </g>
            <g id="shape554-32" v:mID="554" v:groupContext="shape" v:layerMember="0" transform="translate(6.825)">
              <path d="M5.48 73.65v-2.92c0-.38 0-.38-.23-.6l-1.72-1.58C1.8 67.2 1.12 67.05.75 66.98c-.15 0-.53.22-.53.22l-.07.08c.15.07.3.07.6.22.45.23.6.45 1.05.75.53.45.68.6 1.05 1.05.53.53.83 1.05.83 1.05V72.45H1.65S.6 71.78.53 71.78c0 0-.53.9-.45.97l1.2 1.35c.07.08.22.15.3.15H4.8c.45 0 .68-.22.68-.6z" fill="url(#grad7-35)" stroke="#f2f2f2" stroke-linecap="round" stroke-linejoin="round" stroke-width=".188"/>
            </g>
          </g>
        </g>
      </g>
    </g>
  </g>
</svg>
