<svg xmlns="http://www.w3.org/2000/svg" xmlns:v="http://schemas.microsoft.com/visio/2003/SVGExtensions/" width="87.525" height="94.5" viewBox="0 0 65.644 70.875" color-interpolation-filters="sRGB" fill="none" fill-rule="evenodd" font-size="12" overflow="visible" stroke-linecap="square" stroke-miterlimit="3">
  <v:documentProperties v:langID="4108" v:metric="true" v:viewMarkup="false"/>
  <style>
    .st1,.st2{fill:#fff;stroke:none;stroke-linecap:butt;stroke-width:.75}.st2{fill:#505050}.st4{fill:url(#grad0-22);stroke:#f2f2f2;stroke-linecap:round;stroke-linejoin:round;stroke-width:.1878}
  </style>
  <defs id="Patterns_And_Gradients">
    <linearGradient id="grad0-22" x2="1" gradientTransform="rotate(90 .5 .5)">
      <stop offset="0" stop-color="#fff"/>
      <stop offset="1" stop-color="#fff"/>
    </linearGradient>
    <radialGradient id="grad7-32" cx="0" cy="0" r="1.4">
      <stop offset="0" stop-color="#fff"/>
      <stop offset="1" stop-color="#fff"/>
    </radialGradient>
  </defs>
  <g v:mID="0" v:index="1" v:groupContext="foregroundPage">
    <v:pageProperties v:drawingScale=".039" v:pageScale=".039" v:drawingUnits="24" v:shadowOffsetX="8.504" v:shadowOffsetY="-8.504"/>
    <v:layer v:name="symbols" v:index="0"/>
    <g id="group476-1" transform="translate(8.269 -6.975)" v:mID="476" v:groupContext="group" v:layerMember="0">
      <g id="group477-2" v:mID="477" v:groupContext="group" v:layerMember="0">
        <g id="group478-3" v:mID="478" v:groupContext="group" v:layerMember="0">
          <g id="shape479-4" v:mID="479" v:groupContext="shape" v:layerMember="0">
            <path d="M0 70.87V19.12c0-2.92 2.33-5.25 5.25-5.25h21c2.93 0 5.25 2.33 5.25 5.25v51.75H0z" class="st1"/>
          </g>
          <g id="shape480-6" v:mID="480" v:groupContext="shape" v:layerMember="0" transform="translate(2.25 -2.25)">
            <path d="M24 18.37H3c-1.65 0-3 1.35-3 3v49.5h27v-49.5c0-1.65-1.35-3-3-3zm-2.25 46.5H5.25v-2.25h16.5v2.25zm0-6.75H5.25v-2.25h16.5v2.25zm0-30.75H5.25v-2.25h16.5v2.25z" class="st2"/>
          </g>
        </g>
        <g id="group481-8" transform="translate(14.25 -8.25)" v:mID="481" v:groupContext="group" v:layerMember="0">
          <g id="shape482-9" v:mID="482" v:groupContext="shape" v:layerMember="0">
            <path d="M27.97 51.38h-7.72v3.22l2.02 2.03h-6.3l2.03-2.1v-3.15h-7.72L0 61.05l9.6 9.82H18v-3.14l-2.03-2.1h6.3l-2.02 2.02v3.22h8.4l9.6-9.82-10.28-9.67z" class="st1"/>
          </g>
          <g id="shape483-11" v:mID="483" v:groupContext="shape" v:layerMember="0" transform="translate(3.225 -2.25)">
            <path d="M12.53 70.87l-5.11-5.24h16.96l-5.18 5.24h5.25l7.35-7.49-7.95-7.5H19.2l5.18 5.25H7.42l5.11-5.25H7.95L0 63.38l7.35 7.49h5.18z" class="st2"/>
          </g>
        </g>
        <g id="group484-13" transform="translate(31.5 -34.5)" v:mID="484" v:groupContext="group" v:layerMember="0">
          <g id="shape485-14" v:mID="485" v:groupContext="shape" v:layerMember="0">
            <path class="st1" d="M0 46.125h24.75v24.75H0z"/>
          </g>
          <g id="shape486-16" v:mID="486" v:groupContext="shape" v:layerMember="0" transform="translate(2.25 -2.25)">
            <path fill="#f79421" stroke-linecap="butt" stroke-width=".75" d="M0 50.625h20.25v20.25H0z"/>
          </g>
          <g id="group487-18" transform="translate(6.225 -6.225)" v:mID="487" v:groupContext="group" v:layerMember="0">
            <g id="shape488-19" v:mID="488" v:groupContext="shape" v:layerMember="0" transform="translate(5.1 -6.75)">
              <path d="M6.6 65.4H3.68c-.38 0-.38 0-.6.23l-1.5 1.72C.23 69.15.08 69.75 0 70.12c0 .16.22.53.22.53l.08.07c.08-.22.08-.3.23-.6.22-.44.45-.59.75-1.05.44-.52.6-.67 1.05-1.04.52-.53 1.05-.83 1.05-.83H5.4v2.03c0-.01-.67 1.05-.67 1.12 0 0 .9.52.97.45l1.35-1.2c.08-.07.15-.23.15-.3V66c-.07-.45-.22-.6-.6-.6z" class="st4"/>
            </g>
            <g id="shape489-23" v:mID="489" v:groupContext="shape" v:layerMember="0" transform="translate(.075 -4.95)">
              <path d="M0 64.2v2.93c0 .37 0 .37.22.6l1.73 1.57c1.73 1.35 2.4 1.5 2.77 1.57.16 0 .53-.22.53-.22l.07-.08c-.15-.07-.3-.07-.59-.22-.45-.23-.6-.45-1.05-.75-.53-.45-.68-.6-1.05-1.05-.53-.52-.83-1.05-.83-1.05v-2.02-.08h2.03c-.01 0 1.05.68 1.12.68 0 0 .53-.9.45-.98l-1.2-1.35c-.07-.07-.23-.15-.3-.15H.68c-.53.08-.68.23-.68.6z" class="st4"/>
            </g>
            <g id="shape490-26" v:mID="490" v:groupContext="shape" v:layerMember="0">
              <path d="M.53 70.87h2.92c.38 0 .38 0 .6-.22l1.58-1.73c1.35-1.8 1.5-2.4 1.57-2.77 0-.15-.22-.52-.22-.52l-.08-.08c-.07.15-.07.3-.22.6-.23.45-.45.6-.75 1.05-.45.52-.6.68-1.05 1.05-.53.52-1.05.83-1.05.82 0 .01-1.95.01-1.95 0 0 .01-.08.01-.08 0v-2.02s.68-1.05.68-1.12c0-.01-.9-.53-.98-.45l-1.35 1.2c-.07.07-.15.22-.15.3v3.37c0 .37.15.52.53.52z" class="st4"/>
            </g>
            <g id="shape491-29" v:mID="491" v:groupContext="shape" v:layerMember="0" transform="translate(6.825)">
              <path d="M5.48 70.28v-2.93c0-.37 0-.37-.23-.6l-1.72-1.57C1.8 63.83 1.12 63.68.75 63.6c-.15 0-.53.23-.53.23l-.07.07c.15.08.3.08.6.23.45.22.6.45 1.05.75.53.45.68.6 1.05 1.05.53.52.83 1.05.83 1.05v2.1H1.65S.6 68.4.53 68.4c0 0-.53.9-.45.98l1.2 1.35c.07.07.22.14.3.14H4.8c.45 0 .68-.22.68-.59z" fill="url(#grad7-32)" stroke="#f2f2f2" stroke-linecap="round" stroke-linejoin="round" stroke-width=".188"/>
            </g>
          </g>
        </g>
      </g>
    </g>
  </g>
</svg>
