<svg xmlns="http://www.w3.org/2000/svg" xmlns:v="http://schemas.microsoft.com/visio/2003/SVGExtensions/" width="94.5" height="93" viewBox="0 0 70.875 69.75" color-interpolation-filters="sRGB" fill="none" fill-rule="evenodd" font-size="12" overflow="visible" stroke-linecap="square" stroke-miterlimit="3">
  <v:documentProperties v:langID="4108" v:metric="true" v:viewMarkup="false"/>
  <style>
    .st1,.st3{fill:#fff;stroke:none;stroke-linecap:butt;stroke-width:.75}.st3{fill:#2372ba}
  </style>
  <g v:mID="0" v:index="1" v:groupContext="foregroundPage">
    <v:pageProperties v:drawingScale=".039" v:pageScale=".039" v:drawingUnits="24" v:shadowOffsetX="8.504" v:shadowOffsetY="-8.504"/>
    <v:layer v:name="symbols" v:index="0"/>
    <g id="group528-1" transform="translate(8.25 -6.975)" v:mID="528" v:groupContext="group" v:layerMember="0">
      <g id="group529-2" v:mID="529" v:groupContext="group" v:layerMember="0">
        <g id="shape530-3" v:mID="530" v:groupContext="shape" v:layerMember="0">
          <path d="M0 69.75V18c0-2.93 2.33-5.25 5.25-5.25h21c2.93 0 5.25 2.32 5.25 5.25v51.75H0z" class="st1"/>
        </g>
        <g id="shape531-5" v:mID="531" v:groupContext="shape" v:layerMember="0" transform="translate(2.25 -2.25)">
          <path d="M24 17.25H3c-1.65 0-3 1.35-3 3v49.5h27v-49.5c0-1.65-1.35-3-3-3zm-2.25 46.5H5.25V61.5h16.5v2.25zm0-6.75H5.25v-2.25h16.5V57zm0-30.75H5.25V24h16.5v2.25z" fill="#515150" stroke-linecap="butt" stroke-width=".75"/>
        </g>
      </g>
      <g id="group532-7" transform="translate(31.5 -30.75)" v:mID="532" v:groupContext="group" v:layerMember="0">
        <g id="shape533-8" v:mID="533" v:groupContext="shape" v:layerMember="0">
          <path d="M27 45.75h-8.25v-4.5h-2.4L0 43.8v23.32l16.35 2.63h2.4V66H27c1.65 0 3-1.35 3-3V48.75c0-1.65-1.35-3-3-3z" class="st1"/>
        </g>
        <g id="shape534-10" v:mID="534" v:groupContext="shape" v:layerMember="0" transform="translate(20.4 -8.25)">
          <path d="M4.42 65.47c-.74-.6-1.94-1.57-2.84-2.1-.45-.22-.91-.45-.91-.52 0 0-.07.07-.14.07l-.15.15v.15s2.77 2.7 3.07 3c.07.08.07.23.07.3v1.43c0 .07-.07.15-.15.15H1.5c-.08 0-.15 0-.23-.08l-.6-.52c-.07-.08-.07-.08-.14 0l-.53.75v.22s1.13 1.05 1.2 1.13c.07.07.15.15.37.15h3.15c.23 0 .38-.15.38-.38v-3c0-.3-.22-.52-.68-.9z" class="st3"/>
        </g>
        <g id="shape535-12" v:mID="535" v:groupContext="shape" v:layerMember="0" transform="translate(18.675 -14.4)">
          <path d="M0 69.07s.07.08.07.15l.15.15h.15c.01 0 2.7-2.77 3-3.07.08-.08.23-.08.31-.08H5.1c.08 0 .15.08.15.15v1.88c0 .07 0 .15-.07.22l-.61.6c-.07.08-.07.08 0 .15l.75.53h.23s1.05-1.13 1.13-1.2c.07-.08.14-.15.14-.38v-3.15c0-.22-.14-.37-.37-.37h-3c-.23 0-.45.22-.82.67-.6.75-1.58 1.95-2.11 2.85-.22.38-.45.83-.52.9z" class="st3"/>
        </g>
        <g id="shape536-14" v:mID="536" v:groupContext="shape" v:layerMember="0" transform="translate(2.25 -2.25)">
          <path d="M24.75 50.25h-10.5v-4.5L0 48v19.5l14.25 2.25V66h10.5c.45 0 .75-.3.75-.75V51c0-.45-.3-.75-.75-.75zm-.37 14.62H14.25v-1.12h1.13c.22 0 .45-.23.82-.68.6-.75 1.57-1.95 2.1-2.85.22-.45.45-.9.53-.9 0 0-.08-.07-.08-.15l-.15-.15h-.15s-2.7 2.78-3 3.08c-.07.07-.23.07-.3.07h-.9v-4.2c.45.3 1.13.75 1.28.83.44.22.89.45.89.52 0 0 .08-.07.15-.07l.16-.15v-.15s-1.51-1.43-2.48-2.4V54h1.35c.07 0 .15 0 .23.07l.67.6c.07.08.07.08.15 0l.53-.75v-.22s-1.13-1.05-1.21-1.13c-.14 0-.22-.07-.44-.07h-1.28v-1.13h10.13v13.5z" class="st3"/>
        </g>
        <g id="shape537-16" v:mID="537" v:groupContext="shape" v:layerMember="0" transform="translate(7.2 -8.925)">
          <path d="M4.35 69.75L0 69.37v-9.3l4.05-.3v1.8l-2.48.08v2.17h2.48v1.8l-2.48-.07v2.17l2.85.15v1.88h-.07z" class="st1"/>
        </g>
      </g>
    </g>
  </g>
</svg>
