<svg xmlns="http://www.w3.org/2000/svg" xmlns:v="http://schemas.microsoft.com/visio/2003/SVGExtensions/" width="87.175" height="99" viewBox="0 0 65.381 74.25" color-interpolation-filters="sRGB" fill="none" fill-rule="evenodd" font-size="12" overflow="visible" stroke-linecap="square" stroke-miterlimit="3">
  <v:documentProperties v:langID="4108" v:metric="true" v:viewMarkup="false"/>
  <style>
    .st1,.st2{fill:#fff;stroke:none;stroke-linecap:butt;stroke-width:.75}.st2{fill:#505050}.st4{fill:url(#grad0-29);stroke:#f2f2f2;stroke-linecap:round;stroke-linejoin:round;stroke-width:.1878}
  </style>
  <defs id="Patterns_And_Gradients">
    <linearGradient id="grad0-29" x2="1" gradientTransform="rotate(90 .5 .5)">
      <stop offset="0" stop-color="#fff"/>
      <stop offset="1" stop-color="#fff"/>
    </linearGradient>
    <radialGradient id="grad7-39" cx="0" cy="0" r="1.4">
      <stop offset="0" stop-color="#fff"/>
      <stop offset="1" stop-color="#fff"/>
    </radialGradient>
  </defs>
  <g v:mID="0" v:index="1" v:groupContext="foregroundPage">
    <v:pageProperties v:drawingScale=".039" v:pageScale=".039" v:drawingUnits="24" v:shadowOffsetX="8.504" v:shadowOffsetY="-8.504"/>
    <v:layer v:name="symbols" v:index="0"/>
    <g id="group509-1" transform="translate(8.381 -6.975)" v:mID="509" v:groupContext="group" v:layerMember="0">
      <g id="group510-2" transform="translate(0 -4.5)" v:mID="510" v:groupContext="group" v:layerMember="0">
        <g id="shape511-3" v:mID="511" v:groupContext="shape" v:layerMember="0">
          <path d="M0 74.25V22.5c0-2.93 2.33-5.25 5.25-5.25h21c2.93 0 5.25 2.32 5.25 5.25v51.75H0z" class="st1"/>
        </g>
        <g id="shape512-5" v:mID="512" v:groupContext="shape" v:layerMember="0" transform="translate(2.25 -2.25)">
          <path d="M24 21.75H3c-1.65 0-3 1.35-3 3v49.5h27v-49.5c0-1.65-1.35-3-3-3zm-2.25 46.5H5.25V66h16.5v2.25zm0-6.75H5.25v-2.25h16.5v2.25zm0-30.75H5.25V28.5h16.5v2.25z" class="st2"/>
        </g>
      </g>
      <g id="group513-7" transform="translate(17.25)" v:mID="513" v:groupContext="group" v:layerMember="0">
        <g id="shape514-8" v:mID="514" v:groupContext="shape" v:layerMember="0">
          <path d="M0 74.25v-10.8L2.78 52.5H3v-6.75h.75V42H30v3.75h.75v6.75h.22l2.78 10.95v10.8H0z" class="st1"/>
        </g>
        <g id="shape515-10" v:mID="515" v:groupContext="shape" v:layerMember="0" transform="translate(21.75 -18.75)">
          <path class="st2" d="M0 69.75h3.75v4.5H0z"/>
        </g>
        <g id="shape516-12" v:mID="516" v:groupContext="shape" v:layerMember="0" transform="translate(9.75 -15.75)">
          <path class="st2" d="M0 72.75h9v1.5H0z"/>
        </g>
        <g id="shape517-14" v:mID="517" v:groupContext="shape" v:layerMember="0" transform="translate(9.75 -12.75)">
          <path class="st2" d="M0 72.75h11.25v1.5H0z"/>
        </g>
        <g id="shape518-16" v:mID="518" v:groupContext="shape" v:layerMember="0" transform="translate(6 -27.75)">
          <path d="M0 72v2.25h1.5v-.75h18.75v.75h1.5V72H0z" class="st2"/>
        </g>
        <g id="shape519-18" v:mID="519" v:groupContext="shape" v:layerMember="0" transform="translate(2.25 -2.25)">
          <path d="M27 57h-.75v-6.75H3V57h-.75L0 66v8.25h29.25V66L27 57zm-2.25 0v9H4.5V51.75h20.25V57z" class="st2"/>
        </g>
      </g>
      <g id="group520-20" transform="translate(31.5 -39)" v:mID="520" v:groupContext="group" v:layerMember="0">
        <g id="shape521-21" v:mID="521" v:groupContext="shape" v:layerMember="0">
          <path class="st1" d="M0 49.5h24.75v24.75H0z"/>
        </g>
        <g id="shape522-23" v:mID="522" v:groupContext="shape" v:layerMember="0" transform="translate(2.25 -2.25)">
          <path fill="#f79421" stroke-linecap="butt" stroke-width=".75" d="M0 54h20.25v20.25H0z"/>
        </g>
        <g id="group523-25" transform="translate(6.225 -6.225)" v:mID="523" v:groupContext="group" v:layerMember="0">
          <g id="shape524-26" v:mID="524" v:groupContext="shape" v:layerMember="0" transform="translate(5.1 -6.75)">
            <path d="M6.6 68.77H3.68c-.38 0-.38 0-.6.23l-1.5 1.72C.23 72.52.08 73.12 0 73.5c0 .15.22.52.22.52l.08.08c.08-.23.08-.3.23-.6.22-.45.45-.6.75-1.05.44-.53.6-.68 1.05-1.05.52-.53 1.05-.83 1.05-.83H5.4v2.03s-.67 1.05-.67 1.12c0 0 .9.53.97.45l1.35-1.2c.08-.07.15-.22.15-.3v-3.3c-.07-.45-.22-.6-.6-.6z" class="st4"/>
          </g>
          <g id="shape525-30" v:mID="525" v:groupContext="shape" v:layerMember="0" transform="translate(.075 -4.95)">
            <path d="M0 67.57v2.93c0 .37 0 .37.22.6l1.73 1.57c1.73 1.35 2.4 1.5 2.77 1.58.16 0 .53-.23.53-.23l.07-.07c-.15-.08-.3-.08-.59-.23-.45-.22-.6-.45-1.05-.75-.53-.45-.68-.6-1.05-1.05-.53-.52-.83-1.05-.83-1.05v-2.02-.08h2.03c-.01 0 1.05.68 1.12.68 0 0 .53-.9.45-.98l-1.2-1.35c-.07-.07-.23-.15-.3-.15H.68c-.53.08-.68.23-.68.6z" class="st4"/>
          </g>
          <g id="shape526-33" v:mID="526" v:groupContext="shape" v:layerMember="0">
            <path d="M.53 74.25h2.92c.38 0 .38 0 .6-.23l1.58-1.72c1.35-1.8 1.5-2.4 1.57-2.78 0-.15-.22-.52-.22-.52l-.08-.08c-.07.15-.07.3-.22.6-.23.45-.45.6-.75 1.05-.45.53-.6.68-1.05 1.05-.53.53-1.05.83-1.05.83H1.88 1.8v-2.03s.68-1.05.68-1.12c0 0-.9-.53-.98-.45l-1.35 1.2c-.07.07-.15.22-.15.3v3.37c0 .38.15.53.53.53z" class="st4"/>
          </g>
          <g id="shape527-36" v:mID="527" v:groupContext="shape" v:layerMember="0" transform="translate(6.825)">
            <path d="M5.48 73.65v-2.93c0-.37 0-.37-.23-.6l-1.72-1.57C1.8 67.2 1.12 67.05.75 66.97c-.15 0-.53.23-.53.23l-.07.07c.15.08.3.08.6.23.45.22.6.45 1.05.75.53.45.68.6 1.05 1.05.53.52.83 1.05.83 1.05v2.1H1.65S.6 71.77.53 71.77c0 0-.53.9-.45.98l1.2 1.35c.07.07.22.15.3.15H4.8c.45 0 .68-.23.68-.6z" fill="url(#grad7-39)" stroke="#f2f2f2" stroke-linecap="round" stroke-linejoin="round" stroke-width=".188"/>
          </g>
        </g>
      </g>
    </g>
  </g>
</svg>
