<svg xmlns="http://www.w3.org/2000/svg" xmlns:v="http://schemas.microsoft.com/visio/2003/SVGExtensions/" width="84" height="99" viewBox="0 0 63 74.25" color-interpolation-filters="sRGB" fill="none" fill-rule="evenodd" font-size="12" overflow="visible" stroke-linecap="square" stroke-miterlimit="3">
  <v:documentProperties v:langID="4108" v:metric="true" v:viewMarkup="false"/>
  <style>
    .st1,.st3{fill:#fff;stroke:none;stroke-linecap:butt;stroke-width:.75}.st3{fill:#515150}
  </style>
  <g v:mID="0" v:index="1" v:groupContext="foregroundPage">
    <v:pageProperties v:drawingScale=".039" v:pageScale=".039" v:drawingUnits="24" v:shadowOffsetX="8.504" v:shadowOffsetY="-8.504"/>
    <v:layer v:name="symbols" v:index="0"/>
    <g id="group574-1" transform="translate(9.188 -7.35)" v:mID="574" v:groupContext="group" v:layerMember="0">
      <g id="group575-2" v:mID="575" v:groupContext="group" v:layerMember="0">
        <g id="group576-3" transform="translate(0 -3.75)" v:mID="576" v:groupContext="group" v:layerMember="0">
          <g id="shape577-4" v:mID="577" v:groupContext="shape" v:layerMember="0">
            <path d="M0 74.25V22.5c0-2.92 2.33-5.25 5.25-5.25h21c2.93 0 5.25 2.33 5.25 5.25v51.75H0z" class="st1"/>
          </g>
          <g id="shape578-6" v:mID="578" v:groupContext="shape" v:layerMember="0" transform="translate(2.25 -2.25)">
            <path d="M24 21.75H3c-1.65 0-3 1.35-3 3v49.5h27v-49.5c0-1.65-1.35-3-3-3zm-2.25 46.5H5.25V66h16.5v2.25zm0-6.75H5.25v-2.25h16.5v2.25zm0-30.75H5.25V28.5h16.5v2.25z" fill="#515050" stroke-linecap="butt" stroke-width=".75"/>
          </g>
        </g>
        <g id="group579-8" transform="translate(15.75)" v:mID="579" v:groupContext="group" v:layerMember="0">
          <g id="shape580-9" v:mID="580" v:groupContext="shape" v:layerMember="0">
            <path d="M29.7 42.75h-7.13c-1.65 0-2.62.9-3.52 1.72l-3.9 3.6H4.05C1.8 48.07 0 49.88 0 52.13v22.12h33.75V47.03c0-2.33-1.88-4.28-4.05-4.28z" class="st1"/>
          </g>
          <g id="shape581-11" v:mID="581" v:groupContext="shape" v:layerMember="0" transform="translate(17.775 -25.5)">
            <path d="M4.8 70.5c-.68 0-1.2.3-1.95 1.12L0 74.25h13.73v-1.8c0-.98-.75-1.95-1.81-1.95H4.8z" class="st3"/>
          </g>
          <g id="shape582-13" v:mID="582" v:groupContext="shape" v:layerMember="0" transform="translate(2.25 -2.25)">
            <path d="M1.8 52.57c-.98 0-1.8.83-1.8 1.8v19.88h29.25V52.5H1.8v.07z" class="st3"/>
          </g>
        </g>
      </g>
    </g>
  </g>
</svg>
