<svg xmlns="http://www.w3.org/2000/svg" xmlns:v="http://schemas.microsoft.com/visio/2003/SVGExtensions/" width="100.5" height="91.5" viewBox="0 0 75.375 68.625" color-interpolation-filters="sRGB" fill="none" fill-rule="evenodd" font-size="12" overflow="visible" stroke-linecap="square" stroke-miterlimit="3">
  <v:documentProperties v:langID="4108" v:metric="true" v:viewMarkup="false"/>
  <style>
    .st1,.st2{fill:#fff;stroke:none;stroke-linecap:butt;stroke-width:.75}.st2{fill:#515050}
  </style>
  <g v:mID="0" v:index="1" v:groupContext="foregroundPage">
    <v:pageProperties v:drawingScale=".039" v:pageScale=".039" v:drawingUnits="24" v:shadowOffsetX="8.504" v:shadowOffsetY="-8.504"/>
    <v:layer v:name="symbols" v:index="0"/>
    <g id="group583-1" transform="translate(9.188 -5.85)" v:mID="583" v:groupContext="group" v:layerMember="0">
      <g id="group584-2" transform="translate(5.25 -6)" v:mID="584" v:groupContext="group" v:layerMember="0">
        <g id="shape585-3" v:mID="585" v:groupContext="shape" v:layerMember="0">
          <path d="M9.3 68.63l-1.5-.3h-.08C3.15 67.05 0 62.78 0 57.9c0-3.52 1.65-6.75 4.27-8.7 0-6.97 5.41-12.6 12.01-12.6 1.05 0 2.09.15 3.14.45 2.33-3.15 5.85-5.02 9.68-5.02 5.78 0 10.72 4.27 12 10.05 2.63.15 5.1 1.42 6.9 3.52 5.85.15 10.5 5.25 10.5 11.48 0 6.37-4.95 11.55-11.03 11.55H9.3z" class="st1"/>
        </g>
        <g id="shape586-5" v:mID="586" v:groupContext="shape" v:layerMember="0" transform="translate(2.25 -2.25)">
          <path d="M0 60.15c0 3.9 2.47 7.28 6.07 8.25l1.2.23h37.95c4.88 0 8.78-4.2 8.78-9.3 0-5.1-3.9-9.3-8.7-9.3h-.6c-1.5-2.25-3.83-3.53-6.45-3.53-.45 0-.82.08-1.28.15-.29-5.62-4.72-10.12-10.12-10.12-3.6 0-6.97 2.17-8.78 5.55-1.27-.6-2.7-.98-4.05-.98-5.4 0-9.74 4.65-9.74 10.43 0 .37 0 .75.07 1.12C1.72 54 0 56.93 0 60.15zm2.25 0c0-2.4 1.2-4.5 3.15-5.55l1.35-.75-.15-1.5c0-.3-.08-.6-.08-.9 0-4.5 3.38-8.17 7.5-8.17 1.06 0 2.1.22 3.08.75l1.95.97 1.05-1.95c1.42-2.7 3.97-4.35 6.75-4.35 4.12 0 7.57 3.53 7.88 8.03l.14 2.55 2.48-.45c.3-.08.6-.08.9-.08 1.8 0 3.45.9 4.58 2.55l.74 1.13 1.28-.08h.45c3.53 0 6.45 3.15 6.45 7.05s-2.92 7.05-6.53 7.05H7.5l-.9-.15c-2.55-.82-4.35-3.3-4.35-6.15z" class="st2"/>
        </g>
      </g>
      <g id="group587-7" v:mID="587" v:groupContext="group" v:layerMember="0">
        <g id="shape588-8" v:mID="588" v:groupContext="shape" v:layerMember="0">
          <path d="M0 68.63V16.88c0-2.93 2.32-5.25 5.25-5.25h21c2.92 0 5.25 2.32 5.25 5.25v51.75H0z" class="st1"/>
        </g>
        <g id="shape589-10" v:mID="589" v:groupContext="shape" v:layerMember="0" transform="translate(2.25 -2.25)">
          <path d="M24 16.13H3c-1.65 0-3 1.35-3 3v49.5h27v-49.5c0-1.65-1.35-3-3-3zm-2.25 46.5H5.25v-2.25h16.5v2.25zm0-6.75H5.25v-2.25h16.5v2.25zm0-30.75H5.25v-2.25h16.5v2.25z" class="st2"/>
        </g>
      </g>
      <g id="group590-12" transform="translate(16.5 -10.5)" v:mID="590" v:groupContext="group" v:layerMember="0">
        <g id="shape591-13" v:mID="591" v:groupContext="shape" v:layerMember="0">
          <path d="M22.5 53.63H24v-7.5H13.5l1.35-1.35v-3.15H7.87L0 49.8l6.45 6.83h-1.2v7.5h10.12l-1.27 1.35v3.15H21l7.88-8.18-6.38-6.82z" class="st1"/>
        </g>
        <g id="shape592-15" v:mID="592" v:groupContext="shape" v:layerMember="0" transform="translate(3.075 -12.75)">
          <path d="M18.68 61.13H5.02l4.51-4.5H5.77l-5.77 6 5.77 6h3.76l-4.51-4.5h13.66v-3z" class="st2"/>
        </g>
        <g id="shape593-17" v:mID="593" v:groupContext="shape" v:layerMember="0" transform="translate(7.5 -2.25)">
          <path d="M0 64.13h13.35l-4.5 4.5h3.75l5.7-6-5.7-6H8.85l4.5 4.5H0v3z" class="st2"/>
        </g>
      </g>
    </g>
  </g>
</svg>
