<svg xmlns="http://www.w3.org/2000/svg" xmlns:v="http://schemas.microsoft.com/visio/2003/SVGExtensions/" width="82.5" height="78" viewBox="0 0 61.875 58.5" color-interpolation-filters="sRGB" fill="none" fill-rule="evenodd" font-size="12" overflow="visible" stroke-linecap="square" stroke-miterlimit="3">
  <v:documentProperties v:langID="4108" v:metric="true" v:viewMarkup="false"/>
  <style>
    .st1,.st2{fill:#fff;stroke:none;stroke-linecap:butt;stroke-width:.75}.st2{fill:#515050}
  </style>
  <g v:mID="0" v:index="1" v:groupContext="foregroundPage">
    <v:pageProperties v:drawingScale=".039" v:pageScale=".039" v:drawingUnits="24" v:shadowOffsetX="8.504" v:shadowOffsetY="-8.504"/>
    <v:layer v:name="symbols" v:index="0"/>
    <g id="group605-1" transform="translate(6.563 -6.563)" v:mID="605" v:groupContext="group" v:layerMember="0">
      <g id="group606-2" v:mID="606" v:groupContext="group" v:layerMember="0">
        <g id="shape607-3" v:mID="607" v:groupContext="shape" v:layerMember="0">
          <path d="M48.75 15.75c0-2.1-1.65-3.75-3.75-3.75H27c-1.05 0-1.95.45-2.63 1.05-.67-.6-1.57-1.05-2.62-1.05h-18C1.65 12 0 13.65 0 15.75v39h2.25v3.75H46.5v-3.75h2.25v-39z" class="st1"/>
        </g>
        <g id="shape608-5" v:mID="608" v:groupContext="shape" v:layerMember="0" transform="translate(2.25 -6)">
          <path d="M21 58.5H0V21.75c0-.82.67-1.5 1.5-1.5h18c.82 0 1.5.68 1.5 1.5V58.5z" class="st2"/>
        </g>
        <g id="shape609-7" v:mID="609" v:groupContext="shape" v:layerMember="0" transform="translate(25.5 -6)">
          <path d="M21 58.5H0V21.75c0-.82.67-1.5 1.5-1.5h18c.82 0 1.5.68 1.5 1.5V58.5z" class="st2"/>
        </g>
        <g id="shape610-9" v:mID="610" v:groupContext="shape" v:layerMember="0" transform="translate(4.5 -2.25)">
          <path class="st2" d="M0 56.25h39.75v2.25H0z"/>
        </g>
        <g id="shape611-11" v:mID="611" v:groupContext="shape" v:layerMember="0" transform="translate(5.25 -36.75)">
          <path class="st1" d="M0 55.5h15v3H0z"/>
        </g>
        <g id="shape612-13" v:mID="612" v:groupContext="shape" v:layerMember="0" transform="translate(28.5 -38.25)">
          <path class="st1" d="M0 55.5h15v3H0z"/>
        </g>
        <g id="shape613-15" v:mID="613" v:groupContext="shape" v:layerMember="0" transform="translate(28.5 -33)">
          <path class="st1" d="M0 55.5h15v3H0z"/>
        </g>
      </g>
    </g>
  </g>
</svg>
