<svg xmlns="http://www.w3.org/2000/svg" xmlns:v="http://schemas.microsoft.com/visio/2003/SVGExtensions/" width="102" height="79.5" viewBox="0 0 76.5 59.625" color-interpolation-filters="sRGB" fill="none" fill-rule="evenodd" font-size="12" overflow="visible" stroke-linecap="square" stroke-miterlimit="3">
  <v:documentProperties v:langID="4108" v:metric="true" v:viewMarkup="false"/>
  <style>
    .st1,.st2{fill:#fff;stroke:none;stroke-linecap:butt;stroke-width:.75}.st2{fill:#515050}
  </style>
  <g v:mID="0" v:index="1" v:groupContext="foregroundPage">
    <v:pageProperties v:drawingScale=".039" v:pageScale=".039" v:drawingUnits="24" v:shadowOffsetX="8.504" v:shadowOffsetY="-8.504"/>
    <v:layer v:name="symbols" v:index="0"/>
    <g id="group594-1" transform="translate(7.313 -6.563)" v:mID="594" v:groupContext="group" v:layerMember="0">
      <g id="group595-2" v:mID="595" v:groupContext="group" v:layerMember="0">
        <g id="shape596-3" v:mID="596" v:groupContext="shape" v:layerMember="0">
          <path d="M62.25 16.88c0-2.1-1.65-3.75-3.75-3.75h-18c-1.05 0-1.95.45-2.62 1.05-.68-.6-1.58-1.05-2.63-1.05H27c-1.05 0-1.95.45-2.63 1.05-.67-.6-1.57-1.05-2.62-1.05h-18c-2.1 0-3.75 1.65-3.75 3.75v39h2.25v3.75H60v-3.75h2.25v-39z" class="st1"/>
        </g>
        <g id="shape597-5" v:mID="597" v:groupContext="shape" v:layerMember="0" transform="translate(2.25 -6)">
          <path d="M21 59.63H0V22.88c0-.83.67-1.5 1.5-1.5h18c.82 0 1.5.67 1.5 1.5v36.75z" class="st2"/>
        </g>
        <g id="shape598-7" v:mID="598" v:groupContext="shape" v:layerMember="0" transform="translate(39 -6)">
          <path d="M21 59.63H0V22.88c0-.83.67-1.5 1.5-1.5h18c.82 0 1.5.67 1.5 1.5v36.75z" class="st2"/>
        </g>
        <g id="shape599-9" v:mID="599" v:groupContext="shape" v:layerMember="0" transform="translate(25.5 -6)">
          <path d="M11.25 59.63H0V22.88c0-.83.68-1.5 1.5-1.5h8.25c.83 0 1.5.67 1.5 1.5v36.75z" class="st2"/>
        </g>
        <g id="shape600-11" v:mID="600" v:groupContext="shape" v:layerMember="0" transform="translate(4.5 -2.25)">
          <path class="st2" d="M0 57.375h53.25v2.25H0z"/>
        </g>
        <g id="shape601-13" v:mID="601" v:groupContext="shape" v:layerMember="0" transform="translate(5.25 -36.75)">
          <path class="st1" d="M0 56.625h15v3H0z"/>
        </g>
        <g id="shape602-15" v:mID="602" v:groupContext="shape" v:layerMember="0" transform="translate(42 -38.25)">
          <path class="st1" d="M0 56.625h15v3H0z"/>
        </g>
        <g id="shape603-17" v:mID="603" v:groupContext="shape" v:layerMember="0" transform="translate(42 -33)">
          <path class="st1" d="M0 56.625h15v3H0z"/>
        </g>
        <g id="shape604-19" v:mID="604" v:groupContext="shape" v:layerMember="0" transform="translate(28.5 -36)">
          <path class="st1" d="M0 54.375h5.25v5.25H0z"/>
        </g>
      </g>
    </g>
  </g>
</svg>
