<svg xmlns="http://www.w3.org/2000/svg" xmlns:v="http://schemas.microsoft.com/visio/2003/SVGExtensions/" width="87" height="97.5" viewBox="0 0 65.25 73.125" color-interpolation-filters="sRGB" fill="none" fill-rule="evenodd" font-size="12" overflow="visible" stroke-linecap="square" stroke-miterlimit="3">
  <v:documentProperties v:langID="4108" v:metric="true" v:viewMarkup="false"/>
  <style>
    .st1,.st5{fill:#fff;stroke:none;stroke-linecap:butt;stroke-width:.75}.st5{fill:#515150}
  </style>
  <g v:mID="0" v:index="1" v:groupContext="foregroundPage">
    <v:pageProperties v:drawingScale=".039" v:pageScale=".039" v:drawingUnits="24" v:shadowOffsetX="8.504" v:shadowOffsetY="-8.504"/>
    <v:layer v:name="symbols" v:index="0"/>
    <g id="group614-1" transform="translate(7.388 -3.563)" v:mID="614" v:groupContext="group" v:layerMember="0">
      <g id="group615-2" transform="translate(0 -3)" v:mID="615" v:groupContext="group" v:layerMember="0">
        <g id="shape616-3" v:mID="616" v:groupContext="shape" v:layerMember="0">
          <path d="M0 73.12V21.37c0-2.92 2.33-5.25 5.25-5.25h21c2.93 0 5.25 2.33 5.25 5.25v51.75H0z" class="st1"/>
        </g>
        <g id="shape617-5" v:mID="617" v:groupContext="shape" v:layerMember="0" transform="translate(2.25 -2.25)">
          <path d="M24 20.62H3c-1.65 0-3 1.35-3 3v49.5h27v-49.5c0-1.65-1.35-3-3-3zm-2.25 46.5H5.25v-2.25h16.5v2.25zm0-6.75H5.25v-2.25h16.5v2.25zm0-30.75H5.25v-2.25h16.5v2.25z" fill="#515251" stroke-linecap="butt" stroke-width=".75"/>
        </g>
      </g>
      <g id="group618-7" transform="translate(20.325)" v:mID="618" v:groupContext="group" v:layerMember="0">
        <g id="shape619-8" v:mID="619" v:groupContext="shape" v:layerMember="0">
          <path d="M20.85 73.12c-1.2 0-2.32-.75-2.77-1.87l-.68-1.58h-1.28l-.67 1.58c-.37 1.12-1.5 1.87-2.7 1.87-.37 0-.82-.07-1.12-.22l-2.86-1.2c-.74-.3-1.35-.9-1.65-1.65-.29-.75-.29-1.58 0-2.33l.68-1.57-.83-.83L5.4 66c-.37.15-.75.22-1.12.22-1.2 0-2.33-.75-2.78-1.87L.3 61.5c-.3-.75-.3-1.58 0-2.33s.9-1.35 1.65-1.65l1.57-.67v-1.2l-1.57-.68c-.75-.3-1.35-.9-1.65-1.65C0 52.57 0 51.75.3 51l1.2-2.85a3.023 3.023 0 0 1 2.78-1.88c.37 0 .75.08 1.12.23l1.57.67.83-.82-.68-1.58c-.29-.75-.29-1.57 0-2.32.3-.75.91-1.35 1.65-1.65l2.86-1.2c.37-.15.75-.23 1.12-.23 1.2 0 2.33.75 2.78 1.88l.59 1.5h1.28l.6-1.58a3.018 3.018 0 0 1 2.78-1.87c.37 0 .75.07 1.12.22l2.85 1.2c.75.3 1.35.9 1.65 1.65.3.75.3 1.58 0 2.33l-.68 1.57.83.83 1.58-.68c.37-.15.75-.22 1.12-.22 1.2 0 2.33.75 2.78 1.87l1.2 2.85c.29.75.29 1.58 0 2.33-.3.75-.9 1.35-1.65 1.65l-1.58.67v1.2l1.58.68c1.57.67 2.25 2.4 1.65 3.97l-1.2 2.85a3.023 3.023 0 0 1-2.78 1.88c-.37 0-.82-.08-1.2-.23l-1.57-.67-.83.82.68 1.58c.29.75.29 1.57 0 2.32-.3.75-.9 1.35-1.65 1.65l-2.86 1.2c-.14.23-.59.3-.97.3zM16.8 50.77c-3 0-5.48 2.48-5.48 5.48 0 3 2.48 5.47 5.48 5.47 3 0 5.47-2.47 5.47-5.47 0-3-2.47-5.48-5.47-5.48z" class="st1"/>
        </g>
        <g id="shape620-10" v:mID="620" v:groupContext="shape" v:layerMember="0" transform="translate(2.025 -2.1)">
          <path d="M28.95 61.72l-2.4-.97c-.37-.15-.67-.38-.67-.45 0-.08.07-.53.07-.9v-1.95c0-.45-.07-.83-.07-.9 0-.08.3-.3.67-.45l2.4-.98c.37-.15.6-.6.45-1.05l-1.2-2.85c-.15-.37-.6-.6-1.05-.45l-2.4.98c-.38.15-.75.22-.83.15-.07-.08-.3-.38-.6-.75L21.9 49.8c-.3-.3-.67-.53-.67-.6-.08-.08 0-.38.15-.83l.97-2.4c.15-.37 0-.82-.45-1.05l-2.85-1.2c-.38-.15-.83 0-1.05.45l-.97 2.4c-.15.38-.38.68-.45.68-.08 0-.53-.08-.9-.15 0 0-.38-.08-.98-.08s-.98.08-.98.08c-.45.07-.82.07-.9.15-.07 0-.3-.3-.44-.68l-.98-2.4c-.15-.37-.6-.6-1.05-.45l-2.85 1.2c-.37.15-.6.6-.45 1.05l.97 2.4c.15.38.23.75.15.83-.07.07-.37.3-.67.6l-1.42 1.42c-.3.3-.53.68-.6.75-.08.08-.38 0-.83-.15L2.4 50.7c-.37-.15-.82 0-1.05.45L.15 54c-.15.37 0 .82.45 1.05l2.4.97c.37.15.67.38.67.45 0 .08-.07.53-.07.9v1.95c0 .45.07.83.07.9 0 .08-.3.3-.67.45L.6 61.72c-.37.15-.6.6-.45 1.05l1.2 2.85c.15.38.6.6 1.05.45l2.4-.97c.38-.15.75-.23.83-.15.07.07.3.37.6.75l1.42 1.35c.3.3.67.52.75.6.07.07 0 .45-.15.82l-1.12 2.25c-.15.38 0 .83.44 1.05l2.86 1.2c.37.15.82 0 1.05-.45l.97-2.4c.15-.37.37-.67.45-.67.07 0 .52.07.9.15 0 0 .37.07.98.07.6 0 .97-.07.97-.07.45-.08.83-.08.9-.15.08 0 .3.3.45.67l.97 2.4c.15.38.6.6 1.05.45l2.86-1.2c.37-.15.59-.6.44-1.05l-.97-2.4c-.15-.37-.22-.75-.15-.82.08-.08.38-.3.75-.6l1.42-1.43c.3-.3.53-.67.6-.75.08-.07.38 0 .83.15l2.4.98c.37.15.82 0 1.05-.45l1.2-2.85c-.07-.23-.22-.68-.6-.83zm-14.17 4.35c-4.28 0-7.73-3.45-7.73-7.72 0-4.28 3.45-7.73 7.73-7.73 4.27 0 7.72 3.45 7.72 7.73 0 4.27-3.45 7.72-7.72 7.72z" fill="#525352" stroke-linecap="butt" stroke-width=".75"/>
        </g>
      </g>
      <g id="group621-12" transform="translate(18.75 -33.75)" v:mID="621" v:groupContext="group" v:layerMember="0">
        <g id="shape622-13" v:mID="622" v:groupContext="shape" v:layerMember="0">
          <path class="st1" d="M0 43.125h35.25v30H0z"/>
        </g>
        <g id="group623-15" transform="translate(2.25 -2.25)" v:mID="623" v:groupContext="group" v:layerMember="0">
          <g id="shape624-16" v:mID="624" v:groupContext="shape" v:layerMember="0" transform="translate(.75 -.75)">
            <path class="st1" d="M0 49.125h29.25v24H0z"/>
          </g>
          <g id="shape625-18" v:mID="625" v:groupContext="shape" v:layerMember="0">
            <path d="M29.25 49.12v22.5H1.5v-22.5h27.75zm1.5-1.5H0v25.5h30.75v-25.5z" fill="#505150" stroke-linecap="butt" stroke-width=".75"/>
          </g>
        </g>
        <g id="group626-20" transform="translate(5.25 -5.25)" v:mID="626" v:groupContext="group" v:layerMember="0">
          <g id="shape627-21" v:mID="627" v:groupContext="shape" v:layerMember="0">
            <path d="M18.9 67.42c-.15.38-.53.68-.9.68-.45 0-.75-.3-.9-.68l-1.5-5.55-.45 1.13c-.15.37-.45.6-.9.6h-3.08l-2.02 6.07c-.15.38-.45.68-.9.68s-.75-.3-.9-.68l-2.17-8.25-.53 1.5c-.15.38-.45.68-.9.68H0v9.52h24.75V63.6h-4.57l-1.28 3.82z" class="st5"/>
          </g>
          <g id="shape628-23" v:mID="628" v:groupContext="shape" v:layerMember="0" transform="translate(0 -6.975)">
            <path d="M0 60.6v8.1h3.07l1.28-3.83c.15-.37.53-.67.9-.67.45 0 .75.3.9.67l2.18 8.25 1.27-3.75c.15-.37.45-.67.9-.67h3.15l1.27-3.15c.15-.38.53-.6.9-.6.38 0 .75.3.83.67l1.42 5.25.53-1.57c.15-.38.45-.68.9-.68h5.25V60.6H0z" class="st5"/>
          </g>
        </g>
      </g>
    </g>
  </g>
</svg>
