<svg xmlns="http://www.w3.org/2000/svg" xmlns:v="http://schemas.microsoft.com/visio/2003/SVGExtensions/" width="89.325" height="94.5" viewBox="0 0 66.994 70.875" color-interpolation-filters="sRGB" fill="none" fill-rule="evenodd" font-size="12" overflow="visible" stroke-linecap="square" stroke-miterlimit="3">
  <v:documentProperties v:langID="4108" v:metric="true" v:viewMarkup="false"/>
  <style>
    .st1{fill:#fff;stroke:none;stroke-linecap:butt;stroke-width:.75}
  </style>
  <g v:mID="0" v:index="1" v:groupContext="foregroundPage">
    <v:pageProperties v:drawingScale=".039" v:pageScale=".039" v:drawingUnits="24" v:shadowOffsetX="8.504" v:shadowOffsetY="-8.504"/>
    <v:layer v:name="symbols" v:index="0"/>
    <g id="group639-1" transform="translate(8.344 -7.313)" v:mID="639" v:groupContext="group" v:layerMember="0">
      <g id="group640-2" v:mID="640" v:groupContext="group" v:layerMember="0">
        <g id="shape641-3" v:mID="641" v:groupContext="shape" v:layerMember="0">
          <path d="M0 70.88V19.13c0-2.93 2.33-5.25 5.25-5.25h21c2.93 0 5.25 2.32 5.25 5.25v51.75H0z" class="st1"/>
        </g>
        <g id="shape642-5" v:mID="642" v:groupContext="shape" v:layerMember="0" transform="translate(2.25 -2.25)">
          <path d="M24 18.38H3c-1.65 0-3 1.35-3 3v49.5h27v-49.5c0-1.65-1.35-3-3-3zm-2.25 46.5H5.25v-2.25h16.5v2.25zm0-6.75H5.25v-2.26h16.5v2.26zm0-30.75H5.25v-2.25h16.5v2.25z" fill="#515150" stroke-linecap="butt" stroke-width=".75"/>
        </g>
      </g>
      <g id="group643-7" transform="translate(31.5 -32.1)" v:mID="643" v:groupContext="group" v:layerMember="0">
        <g id="shape644-8" v:mID="644" v:groupContext="shape" v:layerMember="0">
          <path d="M0 47.7l1.5-.52 13.8-4.96 9.45 2.48v23.85l-9.45 2.33L0 65.55V47.7z" class="st1"/>
        </g>
        <g id="shape645-10" v:mID="645" v:groupContext="shape" v:layerMember="0" transform="translate(2.25 -2.325)">
          <path d="M20.25 69.15v-20.4l-7.05-1.87L0 51.6v14.7l4.5-1.72v-12l9-2.1V68.1L0 66.3l13.2 4.58 7.05-1.73z" fill="#da4026" stroke-linecap="butt" stroke-width=".75"/>
        </g>
      </g>
    </g>
  </g>
</svg>
