<svg xmlns="http://www.w3.org/2000/svg" xmlns:v="http://schemas.microsoft.com/visio/2003/SVGExtensions/" width="117" height="102" viewBox="0 0 87.75 76.5" color-interpolation-filters="sRGB" fill="none" fill-rule="evenodd" font-size="12" overflow="visible" stroke-linecap="square" stroke-miterlimit="3">
  <v:documentProperties v:langID="4108" v:metric="true" v:viewMarkup="false"/>
  <style>
    .st1,.st2,.st3{fill:#fff;stroke:none;stroke-linecap:butt;stroke-width:.75}.st2,.st3{fill:#505050}.st3{fill:#00adeb}
  </style>
  <g v:mID="0" v:index="1" v:groupContext="foregroundPage">
    <v:pageProperties v:drawingScale=".039" v:pageScale=".039" v:drawingUnits="24" v:shadowOffsetX="8.504" v:shadowOffsetY="-8.504"/>
    <v:layer v:name="symbols" v:index="0"/>
    <g id="group919-1" transform="translate(9.938 -8.063)" v:mID="919" v:groupContext="group" v:layerMember="0">
      <g id="group920-2" v:mID="920" v:groupContext="group" v:layerMember="0">
        <g id="group921-3" transform="translate(0 -6.75)" v:mID="921" v:groupContext="group" v:layerMember="0">
          <g id="shape922-4" v:mID="922" v:groupContext="shape" v:layerMember="0">
            <path d="M0 76.5V24.75c0-2.92 2.33-5.25 5.25-5.25h21c2.93 0 5.25 2.33 5.25 5.25V76.5H0z" class="st1"/>
          </g>
          <g id="shape923-6" v:mID="923" v:groupContext="shape" v:layerMember="0" transform="translate(2.25 -2.25)">
            <path d="M24 24H3c-1.65 0-3 1.35-3 3v49.5h27V27c0-1.65-1.35-3-3-3zm-2.25 46.5H5.25v-2.25h16.5v2.25zm0-6.75H5.25V61.5h16.5v2.25zm0-30.75H5.25v-2.25h16.5V33z" class="st2"/>
          </g>
        </g>
        <g id="group924-8" transform="translate(15.75)" v:mID="924" v:groupContext="group" v:layerMember="0">
          <g id="shape925-9" v:mID="925" v:groupContext="shape" v:layerMember="0">
            <path d="M0 76.5V24.75c0-2.92 2.33-5.25 5.25-5.25h21c2.93 0 5.25 2.33 5.25 5.25V76.5H0z" class="st1"/>
          </g>
          <g id="shape926-11" v:mID="926" v:groupContext="shape" v:layerMember="0" transform="translate(2.25 -2.25)">
            <path d="M24 24H3c-1.65 0-3 1.35-3 3v49.5h27V27c0-1.65-1.35-3-3-3zm-2.25 46.5H5.25v-2.25h16.5v2.25zm0-6.75H5.25V61.5h16.5v2.25zm0-30.75H5.25v-2.25h16.5V33z" class="st2"/>
          </g>
        </g>
        <g id="group927-13" transform="translate(39 -.75)" v:mID="927" v:groupContext="group" v:layerMember="0">
          <g id="shape928-14" v:mID="928" v:groupContext="shape" v:layerMember="0">
            <path d="M24.83 61.12l-6.08-6.37-.22-8.78-8.78-.3L6 49.42v2.85h1.35L0 59.77v2.7l7.35 7.43H6v2.85l3.75 3.75 8.85-.22.15-8.78 6.08-6.38z" class="st1"/>
          </g>
          <g id="shape929-16" v:mID="929" v:groupContext="shape" v:layerMember="0" transform="translate(2.25 -2.25)">
            <path d="M0 63.75l10.43 10.5-4.13.07 2.1 2.18 5.7-.15.15-5.7-2.17-2.18v4.2L3.83 64.5h11.62l-2.92 3h3.07l3.9-4.13-3.9-4.12h-3.07l2.92 3H3.83L12.08 54v4.2l2.17-2.18-.15-5.62-5.7-.15-2.1 2.1 4.13.07L0 62.92v.83z" class="st2"/>
          </g>
        </g>
        <g id="group930-18" transform="translate(47.25 -37.5)" v:mID="930" v:groupContext="group" v:layerMember="0">
          <g id="shape931-19" v:mID="931" v:groupContext="shape" v:layerMember="0">
            <path d="M17.93 76.5c-1.2 0-2.33-.22-3.38-.75-.45.07-.9.07-1.42.07C6.23 75.82.67 70.2.67 63.38c0-.45 0-.9.08-1.43C.3 60.9 0 59.7 0 58.58c0-4.58 3.75-8.33 8.33-8.33 1.19 0 2.32.23 3.37.75.45-.07.9-.07 1.43-.07 6.9 0 12.45 5.62 12.45 12.45 0 .45 0 .89-.08 1.42.45 1.05.75 2.25.75 3.38 0 4.57-3.75 8.32-8.32 8.32z" class="st1"/>
          </g>
          <g id="shape932-21" v:mID="932" v:groupContext="shape" v:layerMember="0" transform="translate(2.25 -2.25)">
            <path d="M20.93 67.43c.07-.61.15-1.2.15-1.8 0-5.63-4.58-10.2-10.2-10.2-.6 0-1.2.07-1.8.15-.9-.53-1.95-.83-3-.83-3.38 0-6.08 2.7-6.08 6.08 0 1.12.3 2.1.83 3-.08.6-.16 1.2-.16 1.8 0 5.62 4.58 10.19 10.21 10.19.6 0 1.2-.07 1.8-.15.9.53 1.95.83 3 .83 3.37 0 6.07-2.7 6.07-6.07 0-1.13-.3-2.11-.82-3zm-5.25 7.49c-.83 0-1.58-.22-2.25-.59l-.53-.3-.52.07c-.45.07-.98.15-1.5.15-4.8 0-8.7-3.9-8.7-8.7 0-.52.07-1.05.15-1.5l.07-.52-.3-.45c-.37-.68-.6-1.43-.6-2.25 0-2.48 2.03-4.5 4.5-4.5.83 0 1.58.22 2.25.6l.53.3.52-.08c.53-.07.98-.15 1.5-.15 4.8 0 8.7 3.9 8.7 8.7 0 .53-.07 1.05-.15 1.5l-.07.53.3.52c.37.67.6 1.42.6 2.25 0 2.4-2.03 4.42-4.5 4.42z" class="st3"/>
          </g>
          <g id="shape933-23" v:mID="933" v:groupContext="shape" v:layerMember="0" transform="translate(7.95 -6.9)">
            <path d="M7.05 69.3l-2.32-.52c-.9-.23-1.88-.45-1.88-1.35 0-.83.68-1.43 1.95-1.43 2.55 0 2.33 1.8 3.6 1.8.68 0 1.28-.37 1.28-1.05 0-1.58-2.55-2.77-4.73-2.77-2.32 0-4.8.97-4.8 3.6 0 1.27.45 2.62 2.93 3.29l3.07.76c.98.22 1.2.74 1.2 1.27 0 .82-.82 1.65-2.25 1.65-2.77 0-2.4-2.25-3.9-2.25-.68 0-1.2.45-1.2 1.12 0 1.28 1.57 3.08 5.1 3.08 3.3 0 5.03-1.65 5.03-3.82.07-1.35-.6-2.78-3.08-3.38z" class="st3"/>
          </g>
        </g>
      </g>
    </g>
  </g>
</svg>
