<svg xmlns="http://www.w3.org/2000/svg" xmlns:v="http://schemas.microsoft.com/visio/2003/SVGExtensions/" width="91.725" height="94.5" viewBox="0 0 68.794 70.875" color-interpolation-filters="sRGB" fill="none" fill-rule="evenodd" font-size="12" overflow="visible" stroke-linecap="square" stroke-miterlimit="3">
  <v:documentProperties v:langID="4108" v:metric="true" v:viewMarkup="false"/>
  <style>
    .st1,.st2,.st3{fill:#fff;stroke:none;stroke-linecap:butt;stroke-width:.75}.st2,.st3{fill:#505050}.st3{fill:#00adeb}
  </style>
  <g v:mID="0" v:index="1" v:groupContext="foregroundPage">
    <v:pageProperties v:drawingScale=".039" v:pageScale=".039" v:drawingUnits="24" v:shadowOffsetX="8.504" v:shadowOffsetY="-8.504"/>
    <v:layer v:name="symbols" v:index="0"/>
    <g id="group906-1" transform="translate(7.481 -6.938)" v:mID="906" v:groupContext="group" v:layerMember="0">
      <g id="group907-2" v:mID="907" v:groupContext="group" v:layerMember="0">
        <g id="group908-3" v:mID="908" v:groupContext="group" v:layerMember="0">
          <g id="group909-4" v:mID="909" v:groupContext="group" v:layerMember="0">
            <g id="shape910-5" v:mID="910" v:groupContext="shape" v:layerMember="0">
              <path d="M0 70.87V19.12c0-2.92 2.32-5.25 5.25-5.25h21c2.92 0 5.25 2.33 5.25 5.25v51.75H0z" class="st1"/>
            </g>
            <g id="shape911-7" v:mID="911" v:groupContext="shape" v:layerMember="0" transform="translate(2.25 -2.25)">
              <path d="M24 18.37H3c-1.65 0-3 1.35-3 3v49.5h27v-49.5c0-1.65-1.35-3-3-3zm-2.25 46.5H5.25v-2.25h16.5v2.25zm0-6.75H5.25v-2.25h16.5v2.25zm0-30.75H5.25v-2.25h16.5v2.25z" class="st2"/>
            </g>
          </g>
          <g id="group912-9" transform="translate(23.25 -.75)" v:mID="912" v:groupContext="group" v:layerMember="0">
            <g id="shape913-10" v:mID="913" v:groupContext="shape" v:layerMember="0">
              <path d="M24.82 55.5l-6.07-6.38-.23-8.77-8.77-.3L6 43.8v2.85h1.35L0 54.15v2.7l7.35 7.42H6v2.85l3.75 3.75 8.85-.22.15-8.78 6.07-6.37z" class="st1"/>
            </g>
            <g id="shape914-12" v:mID="914" v:groupContext="shape" v:layerMember="0" transform="translate(2.25 -2.25)">
              <path d="M0 58.12l10.42 10.5-4.12.08 2.1 2.17 5.7-.15.15-5.7-2.18-2.17v4.2l-8.25-8.18h11.63l-2.93 3h3.08l3.9-4.12-3.9-4.13h-3.08l2.93 3H3.82l8.25-8.25v4.2l2.18-2.17-.15-5.63-5.7-.15-2.1 2.1 4.12.08L0 57.3v.82z" class="st2"/>
            </g>
          </g>
        </g>
        <g id="group915-14" transform="translate(31.5 -33)" v:mID="915" v:groupContext="group" v:layerMember="0">
          <g id="shape916-15" v:mID="916" v:groupContext="shape" v:layerMember="0">
            <path d="M17.92 70.87c-1.2 0-2.32-.22-3.37-.75-.45.08-.9.08-1.43.08C6.23 70.2.68 64.57.67 57.75c.01-.45.01-.9.08-1.42C.3 55.28 0 54.08 0 52.95c0-4.57 3.75-8.32 8.32-8.32 1.2 0 2.33.22 3.38.75.45-.08.9-.08 1.42-.08 6.9 0 12.45 5.63 12.45 12.45 0 .45 0 .9-.07 1.42.45 1.05.75 2.25.75 3.38 0 4.57-3.75 8.32-8.33 8.32z" class="st1"/>
          </g>
          <g id="shape917-17" v:mID="917" v:groupContext="shape" v:layerMember="0" transform="translate(2.25 -2.25)">
            <path d="M20.92 61.8c.08-.6.15-1.2.15-1.8 0-5.62-4.57-10.2-10.2-10.2-.6 0-1.2.08-1.8.15a6.06 6.06 0 0 0-3-.82C2.7 49.13 0 51.82 0 55.2c0 1.12.3 2.1.82 3-.07.6-.14 1.2-.15 1.8.01 5.62 4.58 10.2 10.2 10.2.6 0 1.2-.08 1.8-.15.9.52 1.95.82 3 .82 3.38 0 6.08-2.7 6.08-6.07 0-1.13-.3-2.1-.83-3zm-5.25 7.5c-.82 0-1.57-.23-2.25-.6l-.52-.3-.53.07c-.45.08-.97.15-1.5.15-4.79 0-8.7-3.9-8.7-8.7 0-.52.08-1.04.15-1.5l.08-.52-.3-.45c-.38-.68-.6-1.43-.6-2.25 0-2.47 2.02-4.5 4.5-4.5.83 0 1.58.23 2.25.6l.52.3.53-.07c.52-.08.97-.15 1.5-.15 4.8 0 8.7 3.9 8.7 8.69 0 .53-.08 1.05-.15 1.5l-.08.53.3.52c.38.68.6 1.43.6 2.25 0 2.4-2.02 4.43-4.5 4.43z" class="st3"/>
          </g>
          <g id="shape918-19" v:mID="918" v:groupContext="shape" v:layerMember="0" transform="translate(7.95 -6.9)">
            <path d="M7.05 63.67l-2.33-.52c-.9-.23-1.87-.45-1.87-1.35 0-.83.68-1.43 1.95-1.43 2.55 0 2.32 1.8 3.6 1.8.67 0 1.27-.37 1.27-1.05 0-1.57-2.55-2.77-4.72-2.77-2.33 0-4.8.97-4.8 3.6 0 1.27.45 2.62 2.92 3.3l3.08.75c.97.22 1.2.75 1.2 1.27 0 .83-.83 1.65-2.25 1.65-2.77 0-2.4-2.25-3.9-2.25-.68 0-1.2.45-1.2 1.13 0 1.27 1.57 3.07 5.1 3.07 3.3 0 5.02-1.65 5.02-3.82.08-1.35-.6-2.78-3.07-3.38z" class="st3"/>
          </g>
        </g>
      </g>
    </g>
  </g>
</svg>
