<svg xmlns="http://www.w3.org/2000/svg" xmlns:v="http://schemas.microsoft.com/visio/2003/SVGExtensions/" width="95.025" height="97.5" viewBox="0 0 71.269 73.125" color-interpolation-filters="sRGB" fill="none" fill-rule="evenodd" font-size="12" overflow="visible" stroke-linecap="square" stroke-miterlimit="3">
  <v:documentProperties v:langID="4108" v:metric="true" v:viewMarkup="false"/>
  <style>
    .st1,.st2,.st3{fill:#fff;stroke:none;stroke-linecap:butt;stroke-width:.75}.st2,.st3{fill:#505050}.st3{fill:#00adeb}
  </style>
  <g v:mID="0" v:index="1" v:groupContext="foregroundPage">
    <v:pageProperties v:drawingScale=".039" v:pageScale=".039" v:drawingUnits="24" v:shadowOffsetX="8.504" v:shadowOffsetY="-8.504"/>
    <v:layer v:name="symbols" v:index="0"/>
    <g id="group890-1" transform="translate(7.519 -4.688)" v:mID="890" v:groupContext="group" v:layerMember="0">
      <g id="group891-2" v:mID="891" v:groupContext="group" v:layerMember="0">
        <g id="group892-3" transform="translate(31.5)" v:mID="892" v:groupContext="group" v:layerMember="0">
          <g id="shape893-4" v:mID="893" v:groupContext="shape" v:layerMember="0">
            <path d="M26.17 46.5c0-4.2-7.05-5.7-13.12-5.7C6.97 40.8 0 42.3 0 46.5V66.9c.38 3.97 5.03 6.22 13.05 6.22 8.1 0 12.75-2.17 13.05-6.22V47.4l.07-.9z" class="st1"/>
          </g>
          <g id="shape894-6" v:mID="894" v:groupContext="shape" v:layerMember="0" transform="translate(2.25 -2.325)">
            <path d="M10.87 53.78c-4.27 0-8.62-.75-10.87-2.4V69c.37 3.82 8.1 4.12 10.8 4.12 2.7 0 10.5-.3 10.8-4.12V51.45c-2.1 1.58-6.45 2.33-10.73 2.33z" class="st2"/>
          </g>
          <g id="shape895-8" v:mID="895" v:groupContext="shape" v:layerMember="0" transform="translate(2.25 -23.175)">
            <ellipse cx="10.875" cy="69.675" rx="10.875" ry="3.45" class="st2"/>
          </g>
        </g>
        <g id="group896-10" transform="translate(0 -4.5)" v:mID="896" v:groupContext="group" v:layerMember="0">
          <g id="shape897-11" v:mID="897" v:groupContext="shape" v:layerMember="0">
            <path d="M0 73.12V21.38c0-2.93 2.33-5.25 5.25-5.25h21c2.93 0 5.25 2.32 5.25 5.25v51.74H0z" class="st1"/>
          </g>
          <g id="shape898-13" v:mID="898" v:groupContext="shape" v:layerMember="0" transform="translate(2.25 -2.25)">
            <path d="M24 20.63H3c-1.65 0-3 1.35-3 3v49.49h27V23.63c0-1.65-1.35-3-3-3zm-2.25 46.49H5.25v-2.24h16.5v2.24zm0-6.74H5.25v-2.25h16.5v2.25zm0-30.75H5.25v-2.25h16.5v2.25z" class="st2"/>
          </g>
        </g>
        <g id="group899-15" transform="translate(16.5 -6.75)" v:mID="899" v:groupContext="group" v:layerMember="0">
          <g id="shape900-16" v:mID="900" v:groupContext="shape" v:layerMember="0">
            <path d="M15.07 58.12H0l.52 2.7c.9 4.58 4.43 8.03 8.48 8.48l-.83.82v3h6.9l7.5-7.57-7.5-7.43z" class="st1"/>
          </g>
          <g id="shape901-18" v:mID="901" v:groupContext="shape" v:layerMember="0" transform="translate(2.7 -2.25)">
            <path d="M11.48 62.62h-3.6l3.67 3.83h-4.5c-1.8 0-3.53-1.73-4.12-3.83H0c.68 3.75 3.68 6.68 7.05 6.68h4.5l-3.67 3.82h3.6l5.25-5.32-5.25-5.18z" class="st2"/>
          </g>
        </g>
        <g id="group902-20" transform="translate(31.5 -37.5)" v:mID="902" v:groupContext="group" v:layerMember="0">
          <g id="shape903-21" v:mID="903" v:groupContext="shape" v:layerMember="0">
            <path d="M17.92 73.12c-1.2 0-2.32-.22-3.37-.75-.45.08-.9.08-1.43.08C6.23 72.45.68 66.83.67 60c.01-.45.01-.9.08-1.42C.3 57.53 0 56.33 0 55.2c0-4.57 3.75-8.32 8.32-8.32 1.2 0 2.33.22 3.38.75.45-.08.9-.08 1.42-.08 6.9 0 12.45 5.63 12.45 12.45 0 .45 0 .9-.07 1.43.45 1.04.75 2.25.75 3.37 0 4.58-3.75 8.32-8.33 8.32z" class="st1"/>
          </g>
          <g id="shape904-23" v:mID="904" v:groupContext="shape" v:layerMember="0" transform="translate(2.25 -2.25)">
            <path d="M20.92 64.05c.08-.6.15-1.2.15-1.8 0-5.62-4.57-10.2-10.2-10.2-.6 0-1.2.08-1.8.15a6.06 6.06 0 0 0-3-.82C2.7 51.38 0 54.08 0 57.45c0 1.13.3 2.1.82 3-.07.6-.14 1.2-.15 1.8.01 5.62 4.58 10.2 10.2 10.2.6 0 1.2-.08 1.8-.15.9.52 1.95.82 3 .82 3.38 0 6.08-2.69 6.08-6.07 0-1.12-.3-2.1-.83-3zm-5.25 7.5c-.82 0-1.57-.23-2.25-.6l-.52-.3-.53.08c-.45.07-.97.14-1.5.15-4.79-.01-8.7-3.91-8.7-8.7 0-.53.08-1.05.15-1.5l.08-.53-.3-.45c-.38-.68-.6-1.43-.6-2.25 0-2.47 2.02-4.5 4.5-4.5.83 0 1.58.23 2.25.6l.52.3.53-.07c.52-.08.97-.15 1.5-.15 4.8 0 8.7 3.9 8.7 8.7 0 .52-.08 1.04-.15 1.5l-.08.52.3.53c.38.67.6 1.42.6 2.25 0 2.4-2.02 4.42-4.5 4.42z" class="st3"/>
          </g>
          <g id="shape905-25" v:mID="905" v:groupContext="shape" v:layerMember="0" transform="translate(7.95 -6.9)">
            <path d="M7.05 65.93l-2.33-.53c-.9-.23-1.87-.45-1.87-1.35 0-.83.68-1.42 1.95-1.42 2.55 0 2.32 1.8 3.6 1.8.67 0 1.27-.38 1.27-1.05 0-1.58-2.55-2.78-4.72-2.78-2.33 0-4.8.98-4.8 3.6 0 1.28.45 2.62 2.92 3.3l3.08.75c.97.23 1.2.75 1.2 1.28 0 .82-.83 1.65-2.25 1.64-2.77.01-2.4-2.25-3.9-2.24-.68-.01-1.2.45-1.2 1.12 0 1.27 1.57 3.07 5.1 3.07 3.3 0 5.02-1.65 5.02-3.82.08-1.35-.6-2.77-3.07-3.37z" class="st3"/>
          </g>
        </g>
      </g>
    </g>
  </g>
</svg>
