<svg xmlns="http://www.w3.org/2000/svg" xmlns:v="http://schemas.microsoft.com/visio/2003/SVGExtensions/" width="91.725" height="99" viewBox="0 0 68.794 74.25" color-interpolation-filters="sRGB" fill="none" fill-rule="evenodd" font-size="12" overflow="visible" stroke-linecap="square" stroke-miterlimit="3">
  <v:documentProperties v:langID="4108" v:metric="true" v:viewMarkup="false"/>
  <style>
    .st1,.st2,.st3{fill:#fff;stroke:none;stroke-linecap:butt;stroke-width:.75}.st2,.st3{fill:#505150}.st3{fill:#00adeb}
  </style>
  <g v:mID="0" v:index="1" v:groupContext="foregroundPage">
    <v:pageProperties v:drawingScale=".039" v:pageScale=".039" v:drawingUnits="24" v:shadowOffsetX="8.504" v:shadowOffsetY="-8.504"/>
    <v:layer v:name="symbols" v:index="0"/>
    <g id="group976-1" transform="translate(7.481 -5.813)" v:mID="976" v:groupContext="group" v:layerMember="0">
      <g id="group977-2" v:mID="977" v:groupContext="group" v:layerMember="0">
        <g id="group978-3" transform="translate(0 -4.5)" v:mID="978" v:groupContext="group" v:layerMember="0">
          <g id="group979-4" v:mID="979" v:groupContext="group" v:layerMember="0">
            <g id="shape980-5" v:mID="980" v:groupContext="shape" v:layerMember="0">
              <path d="M0 74.25V22.5c0-2.93 2.33-5.25 5.25-5.25h21c2.93 0 5.25 2.32 5.25 5.25v51.75H0z" class="st1"/>
            </g>
            <g id="shape981-7" v:mID="981" v:groupContext="shape" v:layerMember="0" transform="translate(2.25 -2.25)">
              <path d="M24 21.75H3c-1.65 0-3 1.35-3 3v49.5h27v-49.5c0-1.65-1.35-3-3-3zm-2.25 46.5H5.25V66h16.5v2.25zm0-6.75H5.25v-2.25h16.5v2.25zm0-30.75H5.25V28.5h16.5v2.25z" class="st2"/>
            </g>
          </g>
          <g id="group982-9" transform="translate(31.5 -33)" v:mID="982" v:groupContext="group" v:layerMember="0">
            <g id="shape983-10" v:mID="983" v:groupContext="shape" v:layerMember="0">
              <path d="M17.92 74.25c-1.2 0-2.32-.22-3.37-.75-.45.07-.9.07-1.43.07C6.23 73.57.68 67.95.67 61.13c.01-.45.01-.9.08-1.43C.3 58.65 0 57.45 0 56.33 0 51.75 3.75 48 8.32 48c1.2 0 2.33.23 3.38.75.45-.07.9-.07 1.42-.07 6.9 0 12.45 5.62 12.45 12.45 0 .45 0 .9-.07 1.42.45 1.05.75 2.25.75 3.38 0 4.57-3.75 8.32-8.33 8.32z" class="st1"/>
            </g>
            <g id="shape984-12" v:mID="984" v:groupContext="shape" v:layerMember="0" transform="translate(2.25 -2.25)">
              <path d="M20.92 65.18c.08-.6.15-1.2.15-1.8 0-5.63-4.57-10.2-10.2-10.2-.6 0-1.2.07-1.8.15-.9-.53-1.95-.83-3-.83A6.05 6.05 0 0 0 0 58.58c0 1.12.3 2.1.82 3-.07.6-.14 1.2-.15 1.8.01 5.62 4.58 10.19 10.2 10.19.6 0 1.2-.07 1.8-.14.9.52 1.95.82 3 .82 3.38 0 6.08-2.7 6.08-6.07 0-1.13-.3-2.1-.83-3zm-5.25 7.5a4.78 4.78 0 0 1-2.25-.6l-.52-.3-.53.07c-.45.07-.97.15-1.5.15-4.79 0-8.7-3.9-8.7-8.7 0-.52.08-1.05.15-1.5l.08-.52-.3-.45c-.38-.68-.6-1.43-.6-2.25a4.507 4.507 0 0 1 6.75-3.9l.52.3.53-.08c.52-.07.97-.15 1.5-.15 4.8 0 8.7 3.9 8.7 8.7 0 .53-.08 1.05-.15 1.5l-.08.53.3.52c.38.67.6 1.42.6 2.25 0 2.4-2.02 4.42-4.5 4.43z" class="st3"/>
            </g>
            <g id="shape985-14" v:mID="985" v:groupContext="shape" v:layerMember="0" transform="translate(7.95 -6.9)">
              <path d="M7.05 67.05l-2.33-.52c-.9-.23-1.87-.45-1.87-1.35 0-.83.68-1.43 1.95-1.43 2.55 0 2.32 1.8 3.6 1.8.67 0 1.27-.37 1.27-1.05 0-1.57-2.55-2.77-4.72-2.77-2.33 0-4.8.97-4.8 3.6 0 1.27.45 2.62 2.92 3.3l3.08.75c.97.22 1.2.75 1.2 1.27 0 .82-.83 1.65-2.25 1.65-2.77 0-2.4-2.25-3.9-2.25-.68 0-1.2.45-1.2 1.13 0 1.27 1.57 3.07 5.1 3.07 3.3 0 5.02-1.65 5.02-3.82.08-1.35-.6-2.78-3.07-3.38z" class="st3"/>
            </g>
          </g>
        </g>
        <g id="group986-16" transform="translate(20.25)" v:mID="986" v:groupContext="group" v:layerMember="0">
          <g id="shape987-17" v:mID="987" v:groupContext="shape" v:layerMember="0">
            <path d="M0 74.25V40.5h14.25v5.25V42h6v3.75h1.5v3h1.5v3h1.5v22.5H0z" class="st1"/>
          </g>
          <g id="shape988-19" v:mID="988" v:groupContext="shape" v:layerMember="0" transform="translate(2.25 -2.25)">
            <path d="M18.75 56.25v-3h-1.5v-3h-1.5V46.5h-1.5v3.75h-1.5v3h-1.5v3h-1.5V45H0v29.25h20.25v-18h-1.5zm-15 9h-1.5v-1.5h1.5v1.5zm0-3.75h-1.5V60h1.5v1.5zm0-3.75h-1.5v-1.5h1.5v1.5zm0-3.75h-1.5v-1.5h1.5V54zm0-3.75h-1.5v-1.5h1.5v1.5zm3.75 15H6v-1.5h1.5v1.5zm0-3.75H6V60h1.5v1.5zm0-3.75H6v-1.5h1.5v1.5zm0-3.75H6v-1.5h1.5V54zm0-3.75H6v-1.5h1.5v1.5zM14.25 66h-1.5v-1.5h1.5V66zm0-6h-1.5v-1.5h1.5V60zm3 3h-1.5v-1.5h1.5V63z" class="st2"/>
          </g>
        </g>
      </g>
    </g>
  </g>
</svg>
