<svg xmlns="http://www.w3.org/2000/svg" xmlns:v="http://schemas.microsoft.com/visio/2003/SVGExtensions/" width="91.425" height="100.5" viewBox="0 0 68.569 75.375" color-interpolation-filters="sRGB" fill="none" fill-rule="evenodd" font-size="12" overflow="visible" stroke-linecap="square" stroke-miterlimit="3">
  <v:documentProperties v:langID="4108" v:metric="true" v:viewMarkup="false"/>
  <style>
    .st1,.st2,.st3{fill:#fff;stroke:none;stroke-linecap:butt;stroke-width:.75}.st2,.st3{fill:#505150}.st3{fill:#00adeb}
  </style>
  <g v:mID="0" v:index="1" v:groupContext="foregroundPage">
    <v:pageProperties v:drawingScale=".039" v:pageScale=".039" v:drawingUnits="24" v:shadowOffsetX="8.504" v:shadowOffsetY="-8.504"/>
    <v:layer v:name="symbols" v:index="0"/>
    <g id="group989-1" transform="translate(7.631 -6.938)" v:mID="989" v:groupContext="group" v:layerMember="0">
      <g id="group990-2" v:mID="990" v:groupContext="group" v:layerMember="0">
        <g id="group991-3" transform="translate(0 -4.5)" v:mID="991" v:groupContext="group" v:layerMember="0">
          <g id="group992-4" v:mID="992" v:groupContext="group" v:layerMember="0">
            <g id="shape993-5" v:mID="993" v:groupContext="shape" v:layerMember="0">
              <path d="M0 75.37V23.62c0-2.92 2.33-5.25 5.25-5.25h21c2.93 0 5.25 2.33 5.25 5.25v51.75H0z" class="st1"/>
            </g>
            <g id="shape994-7" v:mID="994" v:groupContext="shape" v:layerMember="0" transform="translate(2.25 -2.25)">
              <path d="M24 22.87H3c-1.65 0-3 1.36-3 3v49.5h27v-49.5c0-1.64-1.35-3-3-3zm-2.25 46.5H5.25v-2.25h16.5v2.25zm0-6.75H5.25v-2.25h16.5v2.25zm0-30.75H5.25v-2.25h16.5v2.25z" class="st2"/>
            </g>
          </g>
          <g id="group995-9" transform="translate(31.5 -33)" v:mID="995" v:groupContext="group" v:layerMember="0">
            <g id="shape996-10" v:mID="996" v:groupContext="shape" v:layerMember="0">
              <path d="M17.92 75.37c-1.2 0-2.32-.22-3.37-.75-.45.08-.9.08-1.43.08C6.23 74.7.68 69.08.67 62.25c.01-.45.01-.9.08-1.42C.3 59.78 0 58.58 0 57.45c0-4.57 3.75-8.32 8.32-8.32 1.2 0 2.33.22 3.38.75.45-.08.9-.08 1.42-.08 6.9 0 12.45 5.63 12.45 12.45 0 .45 0 .9-.07 1.43.45 1.05.75 2.25.75 3.37 0 4.58-3.75 8.32-8.33 8.32z" class="st1"/>
            </g>
            <g id="shape997-12" v:mID="997" v:groupContext="shape" v:layerMember="0" transform="translate(2.25 -2.25)">
              <path d="M20.92 66.3c.08-.6.15-1.2.15-1.8 0-5.62-4.57-10.2-10.2-10.2-.6 0-1.2.08-1.8.15a6.06 6.06 0 0 0-3-.82C2.7 53.63 0 56.33 0 59.7c0 1.13.3 2.1.82 3-.07.6-.14 1.2-.15 1.8.01 5.62 4.58 10.2 10.2 10.2.6 0 1.2-.08 1.8-.15.9.52 1.95.82 3 .82 3.38 0 6.08-2.69 6.08-6.07 0-1.12-.3-2.1-.83-3zm-5.25 7.5c-.82 0-1.57-.23-2.25-.6l-.52-.3-.53.08c-.45.07-.97.14-1.5.15-4.79-.01-8.7-3.91-8.7-8.7 0-.53.08-1.05.15-1.5l.08-.53-.3-.45c-.38-.67-.6-1.42-.6-2.25 0-2.47 2.02-4.5 4.5-4.5.83 0 1.58.23 2.25.6l.52.3.53-.07c.52-.08.97-.15 1.5-.15 4.8 0 8.7 3.9 8.7 8.7 0 .52-.08 1.05-.15 1.5l-.08.52.3.53c.38.67.6 1.42.6 2.25 0 2.4-2.02 4.42-4.5 4.42z" class="st3"/>
            </g>
            <g id="shape998-14" v:mID="998" v:groupContext="shape" v:layerMember="0" transform="translate(7.95 -6.9)">
              <path d="M7.05 68.18l-2.33-.53c-.9-.23-1.87-.45-1.87-1.35 0-.82.68-1.42 1.95-1.42 2.55 0 2.32 1.8 3.6 1.8.67 0 1.27-.38 1.27-1.05 0-1.58-2.55-2.78-4.72-2.78-2.33 0-4.8.98-4.8 3.6 0 1.28.45 2.63 2.92 3.3l3.08.75c.97.23 1.2.75 1.2 1.28 0 .82-.83 1.65-2.25 1.65-2.77 0-2.4-2.26-3.9-2.25-.68-.01-1.2.45-1.2 1.12 0 1.27 1.57 3.07 5.1 3.07 3.3 0 5.02-1.65 5.02-3.82.08-1.35-.6-2.77-3.07-3.37z" class="st3"/>
            </g>
          </g>
        </g>
        <g id="group999-16" transform="translate(16.725)" v:mID="999" v:groupContext="group" v:layerMember="0">
          <g id="shape1000-17" v:mID="1000" v:groupContext="shape" v:layerMember="0">
            <path d="M29.77 46.13h-18c-1.04 0-1.95.37-2.62.97a3.8 3.8 0 0 0-1.35-.67c-.82-.23-1.27-.3-2.33-.3-1.04 0-1.57.07-2.4.3-1.79.52-2.84 1.87-2.99 3.75-.08.52 0 1.2 0 2.32.07 1.58.15 4.13.15 8.55 0 3.53-.08 5.78-.15 7.35-.08 1.28-.08 2.1 0 2.85.07 1.88 1.27 3.3 3.07 3.82.75.23 1.5.3 2.25.3.83 0 1.58-.07 2.4-.3.53-.15 1.05-.37 1.42-.75.68.6 1.58.98 2.63.98h18c2.17 0 3.75-1.57 3.75-3.75V49.88c-.08-2.18-1.65-3.75-3.83-3.75z" class="st1"/>
          </g>
          <g id="shape1001-19" v:mID="1001" v:groupContext="shape" v:layerMember="0" transform="translate(2.1 -2.175)">
            <path d="M6.45 52.5c-.07-.97-.6-1.5-1.42-1.8-.53-.15-.76-.22-1.73-.22-.9 0-1.13.07-1.72.22-.83.3-1.36.83-1.43 1.8-.08 1.05.15 3.23.15 10.73 0 6.3-.3 8.62-.15 10.12.08.98.6 1.5 1.43 1.8.52.15 1.04.22 1.65.22.59 0 1.2-.07 1.72-.22.83-.22 1.35-.82 1.43-1.8.07-1.5-.15-3.6-.15-9.97.07-7.43.3-9.75.22-10.88z" class="st2"/>
          </g>
          <g id="shape1002-21" v:mID="1002" v:groupContext="shape" v:layerMember="0" transform="translate(10.275 -2.25)">
            <path d="M19.5 50.63h-18c-.98 0-1.5.52-1.5 1.5v21.74c0 .98.52 1.5 1.5 1.5h18c.97 0 1.5-.52 1.5-1.5V52.13c0-.98-.53-1.5-1.5-1.5zm-12 20.25c0 .45-.3.75-.75.75h-1.5c-.45 0-.75-.3-.75-.75v-.75c0-.45.3-.75.75-.75h1.5c.45 0 .75.3.75.75v.75zm0-3.75c0 .44-.3.75-.75.75h-1.5c-.45 0-.75-.31-.75-.75v-.75c0-.45.3-.75.75-.75h1.5c.45 0 .75.3.75.75v.75zm0-3.75c0 .44-.3.75-.75.75h-1.5c-.45 0-.75-.31-.75-.75v-.75c0-.45.3-.76.75-.75h1.5c.45-.01.75.3.75.75v.75zm4.5 7.5c0 .45-.3.75-.75.75h-1.5c-.45 0-.75-.3-.75-.75v-.75c0-.45.3-.75.75-.75h1.5c.45 0 .75.3.75.75v.75zm0-3.75c0 .44-.3.75-.75.75h-1.5c-.45 0-.75-.31-.75-.75v-.75c0-.45.3-.75.75-.75h1.5c.45 0 .75.3.75.75v.75zm0-3.75c0 .44-.3.75-.75.75h-1.5c-.45 0-.75-.31-.75-.75v-.75c0-.45.3-.76.75-.75h1.5c.45-.01.75.3.75.75v.75zm4.5 7.5c0 .45-.3.75-.75.75h-1.5c-.45 0-.75-.3-.75-.75v-.75c0-.45.3-.75.75-.75h1.5c.45 0 .75.3.75.75v.75zm0-3.75c0 .44-.3.75-.75.75h-1.5c-.45 0-.75-.31-.75-.75v-.75c0-.45.3-.75.75-.75h1.5c.45 0 .75.3.75.75v.75zm0-3.75c0 .44-.3.75-.75.75h-1.5c-.45 0-.75-.31-.75-.75v-.75c0-.45.3-.76.75-.75h1.5c.45-.01.75.3.75.75v.75zm.75-4.5H3.75v-5.25h13.5v5.25z" class="st2"/>
          </g>
        </g>
      </g>
    </g>
  </g>
</svg>
