<svg xmlns="http://www.w3.org/2000/svg" xmlns:v="http://schemas.microsoft.com/visio/2003/SVGExtensions/" width="91.125" height="100.5" viewBox="0 0 68.344 75.375" color-interpolation-filters="sRGB" fill="none" fill-rule="evenodd" font-size="12" overflow="visible" stroke-linecap="square" stroke-miterlimit="3">
  <v:documentProperties v:langID="4108" v:metric="true" v:viewMarkup="false"/>
  <style>
    .st1,.st2,.st3{fill:#fff;stroke:none;stroke-linecap:butt;stroke-width:.75}.st2,.st3{fill:#505150}.st3{fill:#00adeb}
  </style>
  <g v:mID="0" v:index="1" v:groupContext="foregroundPage">
    <v:pageProperties v:drawingScale=".039" v:pageScale=".039" v:drawingUnits="24" v:shadowOffsetX="8.504" v:shadowOffsetY="-8.504"/>
    <v:layer v:name="symbols" v:index="0"/>
    <g id="group1003-1" transform="translate(7.594 -6.938)" v:mID="1003" v:groupContext="group" v:layerMember="0">
      <g id="group1004-2" transform="translate(0 -4.5)" v:mID="1004" v:groupContext="group" v:layerMember="0">
        <g id="group1005-3" v:mID="1005" v:groupContext="group" v:layerMember="0">
          <g id="shape1006-4" v:mID="1006" v:groupContext="shape" v:layerMember="0">
            <path d="M0 75.37V23.62c0-2.92 2.33-5.25 5.25-5.25h21c2.93 0 5.25 2.33 5.25 5.25v51.75H0z" class="st1"/>
          </g>
          <g id="shape1007-6" v:mID="1007" v:groupContext="shape" v:layerMember="0" transform="translate(2.25 -2.25)">
            <path d="M24 22.87H3c-1.65 0-3 1.36-3 3v49.5h27v-49.5c0-1.64-1.35-3-3-3zm-2.25 46.5H5.25v-2.25h16.5v2.25zm0-6.75H5.25v-2.25h16.5v2.25zm0-30.75H5.25v-2.25h16.5v2.25z" class="st2"/>
          </g>
        </g>
        <g id="group1008-8" transform="translate(31.5 -33)" v:mID="1008" v:groupContext="group" v:layerMember="0">
          <g id="shape1009-9" v:mID="1009" v:groupContext="shape" v:layerMember="0">
            <path d="M17.92 75.37c-1.2 0-2.32-.22-3.37-.75-.45.08-.9.08-1.43.08C6.23 74.7.68 69.08.67 62.25c.01-.45.01-.9.08-1.42C.3 59.78 0 58.58 0 57.45c0-4.57 3.75-8.32 8.32-8.32 1.2 0 2.33.22 3.38.75.45-.08.9-.08 1.42-.08 6.9 0 12.45 5.63 12.45 12.45 0 .45 0 .9-.07 1.43.45 1.05.75 2.25.75 3.37 0 4.58-3.75 8.32-8.33 8.32z" class="st1"/>
          </g>
          <g id="shape1010-11" v:mID="1010" v:groupContext="shape" v:layerMember="0" transform="translate(2.25 -2.25)">
            <path d="M20.92 66.3c.08-.6.15-1.2.15-1.8 0-5.62-4.57-10.2-10.2-10.2-.6 0-1.2.08-1.8.15a6.06 6.06 0 0 0-3-.82C2.7 53.63 0 56.33 0 59.7c0 1.13.3 2.1.82 3-.07.6-.14 1.2-.15 1.8.01 5.62 4.58 10.2 10.2 10.2.6 0 1.2-.08 1.8-.15.9.52 1.95.82 3 .82 3.38 0 6.08-2.69 6.08-6.07 0-1.12-.3-2.1-.83-3zm-5.25 7.5c-.82 0-1.57-.23-2.25-.6l-.52-.3-.53.08c-.45.07-.97.14-1.5.15-4.79-.01-8.7-3.91-8.7-8.7 0-.53.08-1.05.15-1.5l.08-.53-.3-.45c-.38-.67-.6-1.42-.6-2.25 0-2.47 2.02-4.5 4.5-4.5.83 0 1.58.23 2.25.6l.52.3.53-.07c.52-.08.97-.15 1.5-.15 4.8 0 8.7 3.9 8.7 8.7 0 .52-.08 1.05-.15 1.5l-.08.52.3.53c.38.67.6 1.42.6 2.25 0 2.4-2.02 4.42-4.5 4.42z" class="st3"/>
          </g>
          <g id="shape1011-13" v:mID="1011" v:groupContext="shape" v:layerMember="0" transform="translate(7.95 -6.9)">
            <path d="M7.05 68.18l-2.33-.53c-.9-.23-1.87-.45-1.87-1.35 0-.82.68-1.42 1.95-1.42 2.55 0 2.32 1.8 3.6 1.8.67 0 1.27-.38 1.27-1.05 0-1.58-2.55-2.78-4.72-2.78-2.33 0-4.8.98-4.8 3.6 0 1.28.45 2.63 2.92 3.3l3.08.75c.97.23 1.2.75 1.2 1.28 0 .82-.83 1.65-2.25 1.65-2.77 0-2.4-2.26-3.9-2.25-.68-.01-1.2.45-1.2 1.12 0 1.27 1.57 3.07 5.1 3.07 3.3 0 5.02-1.65 5.02-3.82.08-1.35-.6-2.77-3.07-3.37z" class="st3"/>
          </g>
        </g>
      </g>
      <g id="group1012-15" transform="translate(15)" v:mID="1012" v:groupContext="group" v:layerMember="0">
        <g id="shape1013-16" v:mID="1013" v:groupContext="shape" v:layerMember="0">
          <path class="st1" d="M0 45.375h35.25v30H0z"/>
        </g>
        <g id="group1014-18" transform="translate(2.25 -2.25)" v:mID="1014" v:groupContext="group" v:layerMember="0">
          <g id="shape1015-19" v:mID="1015" v:groupContext="shape" v:layerMember="0" transform="translate(.75 -.75)">
            <path class="st1" d="M0 51.375h29.25v24H0z"/>
          </g>
          <g id="shape1016-21" v:mID="1016" v:groupContext="shape" v:layerMember="0">
            <path d="M29.25 51.37v22.5H1.5v-22.5h27.75zm1.5-1.5H0v25.5h30.75v-25.5z" class="st2"/>
          </g>
        </g>
        <g id="group1017-23" transform="translate(5.25 -5.25)" v:mID="1017" v:groupContext="group" v:layerMember="0">
          <g id="shape1018-24" v:mID="1018" v:groupContext="shape" v:layerMember="0">
            <path d="M18.9 69.67c-.15.38-.53.68-.9.68-.45 0-.75-.3-.9-.68l-1.5-5.55-.45 1.13c-.15.37-.45.6-.9.6h-3.07l-2.03 6.07c-.15.38-.45.68-.9.68s-.75-.3-.9-.68l-2.17-8.25-.53 1.5c-.15.38-.45.68-.9.68H0v9.52h24.75v-9.52h-4.57l-1.28 3.82z" class="st2"/>
          </g>
          <g id="shape1019-26" v:mID="1019" v:groupContext="shape" v:layerMember="0" transform="translate(0 -6.975)">
            <path d="M0 62.85v8.1h3.08l1.27-3.83c.15-.37.53-.67.9-.67.45 0 .75.3.9.67l2.18 8.25 1.27-3.75c.15-.37.45-.67.9-.67h3.15l1.28-3.15c.15-.38.52-.6.9-.6.37 0 .75.3.82.67l1.43 5.25.52-1.57c.15-.38.45-.68.9-.68h5.25v-8.02H0z" class="st2"/>
          </g>
        </g>
      </g>
    </g>
  </g>
</svg>
