<svg xmlns="http://www.w3.org/2000/svg" xmlns:v="http://schemas.microsoft.com/visio/2003/SVGExtensions/" width="115.5" height="100.5" viewBox="0 0 86.625 75.375" color-interpolation-filters="sRGB" fill="none" fill-rule="evenodd" font-size="12" overflow="visible" stroke-linecap="square" stroke-miterlimit="3">
  <v:documentProperties v:langID="4108" v:metric="true" v:viewMarkup="false"/>
  <style>
    .st1,.st2,.st3{fill:#fff;stroke:none;stroke-linecap:butt;stroke-width:.75}.st2,.st3{fill:#505050}.st3{fill:#00adeb}
  </style>
  <g v:mID="0" v:index="1" v:groupContext="foregroundPage">
    <v:pageProperties v:drawingScale=".039" v:pageScale=".039" v:drawingUnits="24" v:shadowOffsetX="8.504" v:shadowOffsetY="-8.504"/>
    <v:layer v:name="symbols" v:index="0"/>
    <g id="group961-1" transform="translate(9.375 -6.938)" v:mID="961" v:groupContext="group" v:layerMember="0">
      <g id="group962-2" v:mID="962" v:groupContext="group" v:layerMember="0">
        <g id="group963-3" transform="translate(0 -6.75)" v:mID="963" v:groupContext="group" v:layerMember="0">
          <g id="shape964-4" v:mID="964" v:groupContext="shape" v:layerMember="0">
            <path d="M0 75.37V23.63c0-2.93 2.33-5.25 5.25-5.25h21c2.93 0 5.25 2.32 5.25 5.25v51.74H0z" class="st1"/>
          </g>
          <g id="shape965-6" v:mID="965" v:groupContext="shape" v:layerMember="0" transform="translate(2.25 -2.25)">
            <path d="M24 22.88H3c-1.65 0-3 1.35-3 3v49.49h27V25.88c0-1.65-1.35-3-3-3zm-2.25 46.49H5.25v-2.25h16.5v2.25zm0-6.74H5.25v-2.25h16.5v2.25zm0-30.75H5.25v-2.25h16.5v2.25z" class="st2"/>
          </g>
        </g>
        <g id="group966-8" transform="translate(15.75)" v:mID="966" v:groupContext="group" v:layerMember="0">
          <g id="shape967-9" v:mID="967" v:groupContext="shape" v:layerMember="0">
            <path d="M0 75.37V23.63c0-2.93 2.33-5.25 5.25-5.25h21c2.93 0 5.25 2.32 5.25 5.25v51.74H0z" class="st1"/>
          </g>
          <g id="shape968-11" v:mID="968" v:groupContext="shape" v:layerMember="0" transform="translate(2.25 -2.25)">
            <path d="M24 22.88H3c-1.65 0-3 1.35-3 3v49.49h27V25.88c0-1.65-1.35-3-3-3zm-2.25 46.49H5.25v-2.25h16.5v2.25zm0-6.74H5.25v-2.25h16.5v2.25zm0-30.75H5.25v-2.25h16.5v2.25z" class="st2"/>
          </g>
        </g>
        <g id="group969-13" transform="translate(47.25 -37.5)" v:mID="969" v:groupContext="group" v:layerMember="0">
          <g id="shape970-14" v:mID="970" v:groupContext="shape" v:layerMember="0">
            <path d="M17.93 75.37c-1.2 0-2.33-.22-3.38-.75-.45.08-.9.08-1.42.08C6.23 74.7.67 69.08.67 62.25c0-.45 0-.9.08-1.42C.3 59.78 0 58.58 0 57.45c0-4.57 3.75-8.32 8.33-8.32 1.19 0 2.32.22 3.37.75.45-.08.9-.08 1.43-.08 6.9 0 12.45 5.63 12.45 12.45 0 .45 0 .9-.08 1.43.45 1.04.75 2.25.75 3.37 0 4.58-3.75 8.32-8.32 8.32z" class="st1"/>
          </g>
          <g id="shape971-16" v:mID="971" v:groupContext="shape" v:layerMember="0" transform="translate(2.25 -2.25)">
            <path d="M20.93 66.3c.07-.6.15-1.2.15-1.8 0-5.62-4.58-10.2-10.2-10.2-.6 0-1.2.08-1.8.15a6.06 6.06 0 0 0-3-.82A6.05 6.05 0 0 0 0 59.7c0 1.13.3 2.1.83 3-.08.6-.16 1.2-.16 1.8 0 5.62 4.58 10.2 10.21 10.2.6 0 1.2-.08 1.8-.15.9.52 1.95.82 3 .82 3.37 0 6.07-2.69 6.07-6.07 0-1.12-.3-2.1-.82-3zm-5.25 7.5c-.83 0-1.58-.23-2.25-.6l-.53-.3-.52.08c-.45.07-.98.14-1.5.15-4.8-.01-8.7-3.91-8.7-8.7 0-.53.07-1.05.15-1.5l.07-.53-.3-.45c-.37-.68-.6-1.43-.6-2.25 0-2.47 2.03-4.5 4.5-4.5.83 0 1.58.23 2.25.6l.53.3.52-.07c.53-.08.98-.15 1.5-.15 4.8 0 8.7 3.9 8.7 8.7 0 .52-.07 1.04-.15 1.5l-.07.52.3.53c.37.67.6 1.42.6 2.25 0 2.4-2.03 4.42-4.5 4.42z" class="st3"/>
          </g>
          <g id="shape972-18" v:mID="972" v:groupContext="shape" v:layerMember="0" transform="translate(7.95 -6.9)">
            <path d="M7.05 68.18l-2.32-.53c-.9-.23-1.88-.45-1.88-1.35 0-.83.68-1.42 1.95-1.42 2.55 0 2.33 1.8 3.6 1.8.68 0 1.28-.38 1.28-1.05 0-1.58-2.55-2.78-4.73-2.78-2.32 0-4.8.98-4.8 3.6 0 1.28.45 2.62 2.93 3.3l3.07.75c.98.23 1.2.75 1.2 1.28 0 .82-.82 1.65-2.25 1.64-2.77.01-2.4-2.25-3.9-2.24-.68-.01-1.2.45-1.2 1.12 0 1.27 1.57 3.07 5.1 3.07 3.3 0 5.03-1.65 5.03-3.82.07-1.35-.6-2.77-3.08-3.37z" class="st3"/>
          </g>
        </g>
        <g id="group973-20" transform="translate(36.75)" v:mID="973" v:groupContext="group" v:layerMember="0">
          <g id="shape974-21" v:mID="974" v:groupContext="shape" v:layerMember="0">
            <path d="M0 75.37V41.63h14.25v5.25-3.75h6v3.75h1.5v3h1.5v3h1.5v22.49H0z" class="st1"/>
          </g>
          <g id="shape975-23" v:mID="975" v:groupContext="shape" v:layerMember="0" transform="translate(2.25 -2.25)">
            <path d="M18.75 57.37v-2.99h-1.5v-3h-1.5v-3.75h-1.5v3.75h-1.5v3h-1.5v2.99h-1.5V46.12H0v29.25h20.25v-18h-1.5zm-15 9h-1.5v-1.5h1.5v1.5zm0-3.75h-1.5v-1.49h1.5v1.49zm0-3.74h-1.5v-1.51h1.5v1.51zm0-3.76h-1.5v-1.49h1.5v1.49zm0-3.74h-1.5v-1.5h1.5v1.5zM7.5 66.37H6v-1.5h1.5v1.5zm0-3.75H6v-1.49h1.5v1.49zm0-3.74H6v-1.51h1.5v1.51zm0-3.76H6v-1.49h1.5v1.49zm0-3.74H6v-1.5h1.5v1.5zm6.75 15.74h-1.5v-1.5h1.5v1.5zm0-5.99h-1.5v-1.51h1.5v1.51zm3 2.99h-1.5v-1.5h1.5v1.5z" class="st2"/>
          </g>
        </g>
      </g>
    </g>
  </g>
</svg>
