<svg xmlns="http://www.w3.org/2000/svg" xmlns:v="http://schemas.microsoft.com/visio/2003/SVGExtensions/" width="76.5" height="97.5" viewBox="0 0 57.375 73.125" color-interpolation-filters="sRGB" fill="none" fill-rule="evenodd" font-size="12" overflow="visible" stroke-linecap="square" stroke-miterlimit="3">
  <v:documentProperties v:langID="4108" v:metric="true" v:viewMarkup="false"/>
  <style>
    .st1,.st2{fill:#fff;stroke:none;stroke-linecap:butt;stroke-width:.75}.st2{fill:#515050}
  </style>
  <g v:mID="0" v:index="1" v:groupContext="foregroundPage">
    <v:pageProperties v:drawingScale=".039" v:pageScale=".039" v:drawingUnits="24" v:shadowOffsetX="8.504" v:shadowOffsetY="-8.504"/>
    <v:layer v:name="symbols" v:index="0"/>
    <g id="group1077-1" transform="translate(6.938 -6.188)" v:mID="1077" v:groupContext="group" v:layerMember="0">
      <g id="group1078-2" transform="translate(0 -3.75)" v:mID="1078" v:groupContext="group" v:layerMember="0">
        <g id="shape1079-3" v:mID="1079" v:groupContext="shape" v:layerMember="0">
          <path d="M0 73.12V21.37c0-2.92 2.32-5.25 5.25-5.25h21c2.92 0 5.25 2.33 5.25 5.25v51.75H0z" class="st1"/>
        </g>
        <g id="shape1080-5" v:mID="1080" v:groupContext="shape" v:layerMember="0" transform="translate(2.25 -2.25)">
          <path d="M24 20.62H3c-1.65 0-3 1.35-3 3v49.5h27v-49.5c0-1.65-1.35-3-3-3zm-2.25 46.5H5.25v-2.25h16.5v2.25zm0-6.75H5.25v-2.25h16.5v2.25zm0-30.75H5.25v-2.25h16.5v2.25z" class="st2"/>
        </g>
      </g>
      <g id="group1081-7" transform="translate(21)" v:mID="1081" v:groupContext="group" v:layerMember="0">
        <g id="group1082-8" v:mID="1082" v:groupContext="group" v:layerMember="0">
          <g id="shape1083-9" v:mID="1083" v:groupContext="shape" v:layerMember="0">
            <path d="M23.25 46.87v-3h-1.5v-3h-1.5v-3.75h-6v-1.5H0v36.75h6.75v.75H18v-.75h6.75v-25.5h-1.5z" class="st1"/>
          </g>
          <g id="shape1084-11" v:mID="1084" v:groupContext="shape" v:layerMember="0" transform="translate(2.25 -9.75)">
            <path d="M18.75 58.87v-3h-1.5v-3h-1.5v-3.75h-1.5v3.75h-1.5v3h-1.5v3h-1.5V47.62H0v25.5h20.25V58.87h-1.5zm-15 9h-1.5v-1.5h1.5v1.5zm0-3.75h-1.5v-1.5h1.5v1.5zm0-3.75h-1.5v-1.5h1.5v1.5zm0-3.75h-1.5v-1.5h1.5v1.5zm0-3.75h-1.5v-1.5h1.5v1.5zm3.75 15H6v-1.5h1.5v1.5zm0-3.75H6v-1.5h1.5v1.5zm0-3.75H6v-1.5h1.5v1.5zm0-3.75H6v-1.5h1.5v1.5zm0-3.75H6v-1.5h1.5v1.5zm6.75 15.75h-1.5v-1.5h1.5v1.5zm0-6h-1.5v-1.5h1.5v1.5zm3 3h-1.5v-1.5h1.5v1.5z" class="st2"/>
          </g>
        </g>
        <g id="shape1085-13" v:mID="1085" v:groupContext="shape" v:layerMember="0" transform="translate(11.25 -6.75)">
          <path class="st2" d="M0 70.875h2.25v2.25H0z"/>
        </g>
        <g id="shape1086-15" v:mID="1086" v:groupContext="shape" v:layerMember="0" transform="translate(9 -2.25)">
          <path class="st2" d="M0 69.375h6.75v3.75H0z"/>
        </g>
        <g id="shape1087-17" v:mID="1087" v:groupContext="shape" v:layerMember="0" transform="translate(17.25 -3)">
          <path class="st2" d="M0 70.875h5.25v2.25H0z"/>
        </g>
        <g id="shape1088-19" v:mID="1088" v:groupContext="shape" v:layerMember="0" transform="translate(2.25 -3)">
          <path class="st2" d="M0 70.875h5.25v2.25H0z"/>
        </g>
      </g>
    </g>
  </g>
</svg>
