<svg xmlns="http://www.w3.org/2000/svg" xmlns:v="http://schemas.microsoft.com/visio/2003/SVGExtensions/" width="81" height="94.5" viewBox="0 0 60.75 70.875" color-interpolation-filters="sRGB" fill="none" fill-rule="evenodd" font-size="12" overflow="visible" stroke-linecap="square" stroke-miterlimit="3">
  <v:documentProperties v:langID="4108" v:metric="true" v:viewMarkup="false"/>
  <style>
    .st1{fill:#fff;stroke:none;stroke-linecap:butt;stroke-width:.75}
  </style>
  <g v:mID="0" v:index="1" v:groupContext="foregroundPage">
    <v:pageProperties v:drawingScale=".039" v:pageScale=".039" v:drawingUnits="24" v:shadowOffsetX="8.504" v:shadowOffsetY="-8.504"/>
    <v:layer v:name="symbols" v:index="0"/>
    <g id="group1140-1" transform="translate(8.1 -3.563)" v:mID="1140" v:groupContext="group" v:layerMember="0">
      <g id="group1141-2" v:mID="1141" v:groupContext="group" v:layerMember="0">
        <g id="group1142-3" transform="translate(0 -4.5)" v:mID="1142" v:groupContext="group" v:layerMember="0">
          <g id="shape1143-4" v:mID="1143" v:groupContext="shape" v:layerMember="0">
            <path d="M0 70.88V19.13c0-2.93 2.33-5.25 5.25-5.25h21c2.93 0 5.25 2.32 5.25 5.25v51.75H0z" class="st1"/>
          </g>
          <g id="shape1144-6" v:mID="1144" v:groupContext="shape" v:layerMember="0" transform="translate(2.25 -2.25)">
            <path d="M24 18.38H3c-1.65 0-3 1.35-3 3v49.5h27v-49.5c0-1.65-1.35-3-3-3zm-2.25 46.5H5.25v-2.25h16.5v2.25zm0-6.75H5.25v-2.25h16.5v2.25zm0-30.75H5.25v-2.25h16.5v2.25z" fill="#515251" stroke-linecap="butt" stroke-width=".75"/>
          </g>
        </g>
        <g id="group1145-8" transform="translate(18.75)" v:mID="1145" v:groupContext="group" v:layerMember="0">
          <g id="shape1146-9" v:mID="1146" v:groupContext="shape" v:layerMember="0">
            <path d="M16.12 70.88C7.2 70.88 0 63.68 0 54.75c0-8.92 7.2-16.12 16.12-16.12 8.93 0 16.13 7.2 16.13 16.12 0 8.93-7.2 16.13-16.13 16.13z" class="st1"/>
          </g>
          <g id="shape1147-11" v:mID="1147" v:groupContext="shape" v:layerMember="0" transform="translate(2.25 -2.25)">
            <path d="M13.87 43.13C6.22 43.13 0 49.35 0 57c0 7.65 6.22 13.88 13.87 13.88 7.66 0 13.88-6.23 13.88-13.88s-6.22-13.87-13.88-13.87zm8.7 8.17L11.92 64.88 5.4 57.45c-.15-.22-.15-.52 0-.67l1.73-1.58c.14-.15.44-.15.67.08l4.12 4.5 8.03-10.65c.15-.23.45-.23.67-.08l1.81 1.5c.29.23.3.53.14.75z" fill="#515150" stroke-linecap="butt" stroke-width=".75"/>
          </g>
        </g>
      </g>
    </g>
  </g>
</svg>
