<svg xmlns="http://www.w3.org/2000/svg" xmlns:v="http://schemas.microsoft.com/visio/2003/SVGExtensions/" width="87" height="87" viewBox="0 0 65.25 65.25" color-interpolation-filters="sRGB" fill="none" fill-rule="evenodd" font-size="12" overflow="visible" stroke-linecap="square" stroke-miterlimit="3">
  <v:documentProperties v:langID="4108" v:metric="true" v:viewMarkup="false"/>
  <style>
    .st1,.st2{fill:#fff;stroke:none;stroke-linecap:butt;stroke-width:.75}.st2{fill:#515151}
  </style>
  <g v:mID="0" v:index="1" v:groupContext="foregroundPage">
    <v:pageProperties v:drawingScale=".039" v:pageScale=".039" v:drawingUnits="24" v:shadowOffsetX="8.504" v:shadowOffsetY="-8.504"/>
    <v:layer v:name="symbols" v:index="0"/>
    <g id="group1129-1" transform="translate(.75 -.75)" v:mID="1129" v:groupContext="group" v:layerMember="0">
      <g id="group1130-2" v:mID="1130" v:groupContext="group" v:layerMember="0">
        <g id="group1131-3" transform="translate(0 -6.75)" v:mID="1131" v:groupContext="group" v:layerMember="0">
          <g id="shape1132-4" v:mID="1132" v:groupContext="shape" v:layerMember="0">
            <path d="M0 65.25V13.5c0-2.92 2.32-5.25 5.25-5.25h21c2.92 0 5.25 2.33 5.25 5.25v51.75H0z" class="st1"/>
          </g>
          <g id="shape1133-6" v:mID="1133" v:groupContext="shape" v:layerMember="0" transform="translate(2.25 -2.25)">
            <path d="M24 12.75H3c-1.65 0-3 1.35-3 3v49.5h27v-49.5c0-1.65-1.35-3-3-3zm-2.25 46.5H5.25V57h16.5v2.25zm0-6.75H5.25v-2.25h16.5v2.25zm0-30.75H5.25V19.5h16.5v2.25z" class="st2"/>
          </g>
        </g>
        <g id="group1134-8" transform="translate(15.75)" v:mID="1134" v:groupContext="group" v:layerMember="0">
          <g id="shape1135-9" v:mID="1135" v:groupContext="shape" v:layerMember="0">
            <path d="M0 65.25V13.5c0-2.92 2.32-5.25 5.25-5.25h21c2.92 0 5.25 2.33 5.25 5.25v51.75H0z" class="st1"/>
          </g>
          <g id="shape1136-11" v:mID="1136" v:groupContext="shape" v:layerMember="0" transform="translate(2.25 -2.25)">
            <path d="M24 12.75H3c-1.65 0-3 1.35-3 3v49.5h27v-49.5c0-1.65-1.35-3-3-3zm-2.25 46.5H5.25V57h16.5v2.25zm0-6.75H5.25v-2.25h16.5v2.25zm0-30.75H5.25V19.5h16.5v2.25z" class="st2"/>
          </g>
        </g>
        <g id="group1137-13" transform="translate(31.5)" v:mID="1137" v:groupContext="group" v:layerMember="0">
          <g id="shape1138-14" v:mID="1138" v:groupContext="shape" v:layerMember="0">
            <path d="M16.13 65.25C7.2 65.25 0 58.05 0 49.12 0 40.2 7.2 33 16.13 33c8.92 0 16.12 7.2 16.12 16.12 0 8.93-7.2 16.13-16.12 16.13z" class="st1"/>
          </g>
          <g id="shape1139-16" v:mID="1139" v:groupContext="shape" v:layerMember="0" transform="translate(2.25 -2.25)">
            <path d="M13.88 37.5C6.22 37.5 0 43.72 0 51.37c0 7.66 6.22 13.88 13.88 13.88 7.65 0 13.87-6.22 13.87-13.88 0-7.65-6.22-13.87-13.87-13.87zm8.7 8.17L11.93 59.25 5.4 51.82c-.15-.22-.15-.52 0-.67l1.73-1.58c.14-.15.44-.15.67.08l4.13 4.5 8.02-10.65c.15-.23.45-.23.68-.08l1.8 1.5c.3.23.3.53.15.75z" fill="#505150" stroke-linecap="butt" stroke-width=".75"/>
          </g>
        </g>
      </g>
    </g>
  </g>
</svg>
