<svg xmlns="http://www.w3.org/2000/svg" xmlns:v="http://schemas.microsoft.com/visio/2003/SVGExtensions/" width="98.4" height="100.5" viewBox="0 0 73.8 75.375" color-interpolation-filters="sRGB" fill="none" fill-rule="evenodd" font-size="12" overflow="visible" stroke-linecap="square" stroke-miterlimit="3">
  <v:documentProperties v:langID="4108" v:metric="true" v:viewMarkup="false"/>
  <style>
    .st1,.st2,.st3{fill:#fff;stroke:none;stroke-linecap:butt;stroke-width:.75}.st2,.st3{fill:#505050}.st3{fill:#00adeb}
  </style>
  <g v:mID="0" v:index="1" v:groupContext="foregroundPage">
    <v:pageProperties v:drawingScale=".039" v:pageScale=".039" v:drawingUnits="24" v:shadowOffsetX="8.504" v:shadowOffsetY="-8.504"/>
    <v:layer v:name="symbols" v:index="0"/>
    <g id="group1160-1" transform="translate(8.438 -6.938)" v:mID="1160" v:groupContext="group" v:layerMember="0">
      <g id="group1161-2" v:mID="1161" v:groupContext="group" v:layerMember="0">
        <g id="group1162-3" transform="translate(0 -3.75)" v:mID="1162" v:groupContext="group" v:layerMember="0">
          <g id="shape1163-4" v:mID="1163" v:groupContext="shape" v:layerMember="0">
            <path d="M0 75.37V23.63c0-2.93 2.33-5.25 5.25-5.25h21c2.93 0 5.25 2.32 5.25 5.25v51.74H0z" class="st1"/>
          </g>
          <g id="shape1164-6" v:mID="1164" v:groupContext="shape" v:layerMember="0" transform="translate(2.25 -2.25)">
            <path d="M24 22.88H3c-1.65 0-3 1.35-3 3v49.49h27V25.88c0-1.65-1.35-3-3-3zm-2.25 46.5H5.25v-2.25h16.5v2.25zm0-6.75H5.25v-2.25h16.5v2.25zm0-30.75H5.25v-2.25h16.5v2.25z" class="st2"/>
          </g>
        </g>
        <g id="group1165-8" transform="translate(13.5)" v:mID="1165" v:groupContext="group" v:layerMember="0">
          <g id="shape1166-9" v:mID="1166" v:groupContext="shape" v:layerMember="0">
            <path d="M10.95 75.37c-2.03 0-3.68-1.65-3.68-3.67 0-2.03 1.65-3.68 3.68-3.68 2.62 0 3.82-.22 4.27-.37 0-.15-.07-.3-.07-.53H4.5c-2.48.01-4.5-2.02-4.5-4.5v-21c0-2.47 2.02-4.49 4.5-4.5H39c2.47.01 4.5 2.03 4.5 4.5v21c0 2.48-2.03 4.51-4.5 4.5H28.35c-.08.23-.08.38-.08.53.53.15 1.65.3 4.35.37 2.03 0 3.68 1.65 3.68 3.68 0 2.02-1.65 3.67-3.68 3.67H10.95z" class="st1"/>
          </g>
          <g id="shape1167-11" v:mID="1167" v:groupContext="shape" v:layerMember="0" transform="translate(2.25 -2.25)">
            <path d="M36.75 41.62H2.25C.97 41.63 0 42.6 0 43.87v21c0 1.28.97 2.26 2.25 2.25H14.7c1.27 4.51.98 5.25-5.93 5.4-.82 0-1.42.68-1.42 1.43 0 .82.67 1.42 1.42 1.42H30.3c.82 0 1.42-.6 1.42-1.42 0-.83-.67-1.43-1.42-1.43-6.9-.15-7.27-.89-6-5.4h12.45c1.27.01 2.25-.97 2.25-2.25v-21c0-1.27-.98-2.25-2.25-2.25zM36 64.12H3V44.63h33v19.49z" class="st2"/>
          </g>
        </g>
        <g id="shape1168-13" v:mID="1168" v:groupContext="shape" v:layerMember="0" transform="translate(20.25 -15)">
          <path class="st2" d="M0 58.875h30v16.5H0z"/>
        </g>
        <g id="group1169-15" transform="translate(24.075 -15.75)" v:mID="1169" v:groupContext="group" v:layerMember="0">
          <g id="group1170-16" transform="translate(0 -3.75)" v:mID="1170" v:groupContext="group" v:layerMember="0">
            <g id="shape1171-17" v:mID="1171" v:groupContext="shape" v:layerMember="0">
              <path d="M7.95 72.9c-.15-.67-.38-1.05-.83-1.35-.52-.3-.82-.52-1.05-.52-.07 0-.15 0-.22.07-.15.15-.3.23-.38.3-.07 0-.07.08-.07.08-.15.07-.3.15-.45.14-.3.08-.6.16-.83.16-.3 0-.6-.08-.82-.16-.15-.07-.3-.07-.45-.14-.15-.08-.38-.23-.53-.38-.07 0-.15-.07-.15-.07-.15 0-.37.15-.97.52-.53.3-.68.6-.83 1.35-.15.6-.3 1.8-.37 2.47h8.4c-.15-.75-.38-1.95-.45-2.47z" class="st1"/>
            </g>
            <g id="shape1172-19" v:mID="1172" v:groupContext="shape" v:layerMember="0" transform="translate(2.025 -4.5)">
              <path d="M2.02 75.37C.9 75.37 0 74.33 0 73.12c0-1.27.9-2.25 2.02-2.25 1.13 0 2.03 1.05 2.03 2.25 0 1.28-.83 2.25-2.03 2.25z" class="st1"/>
            </g>
          </g>
          <g id="group1173-21" transform="translate(14.175 -3.825)" v:mID="1173" v:groupContext="group" v:layerMember="0">
            <g id="shape1174-22" v:mID="1174" v:groupContext="shape" v:layerMember="0">
              <path d="M8.02 72.97c-.15-.67-.37-1.05-.82-1.35-.53-.3-.83-.52-1.05-.52-.08 0-.15 0-.23.07-.15.15-.3.23-.37.3-.08 0-.08.08-.08.08-.15.07-.3.15-.45.15-.3.07-.6.15-.82.15-.3 0-.6-.08-.83-.15-.15-.08-.3-.08-.45-.15-.15-.08-.37-.23-.52-.38-.08-.07-.15-.07-.23-.07-.15 0-.37.15-.97.52-.53.3-.67.6-.83 1.35-.15.6-.37 1.73-.37 2.4h8.4c-.08-.67-.23-1.87-.38-2.4z" class="st1"/>
            </g>
            <g id="shape1175-24" v:mID="1175" v:groupContext="shape" v:layerMember="0" transform="translate(2.175 -4.425)">
              <path d="M2.02 75.37C.9 75.37 0 74.33 0 73.12c0-1.27.9-2.25 2.02-2.25 1.13 0 2.03 1.05 2.03 2.25 0 1.28-.9 2.25-2.03 2.25z" class="st1"/>
            </g>
          </g>
          <g id="group1176-26" transform="translate(6.075)" v:mID="1176" v:groupContext="group" v:layerMember="0">
            <g id="shape1177-27" v:mID="1177" v:groupContext="shape" v:layerMember="0" transform="translate(2.175 -4.2)">
              <path d="M2.93 75.37C1.35 75.37 0 73.95 0 72.22c0-1.72 1.35-3.15 2.93-3.15 1.57 0 2.92 1.43 2.92 3.15 0 1.73-1.27 3.15-2.92 3.15z" class="st2"/>
            </g>
            <g id="shape1178-29" v:mID="1178" v:groupContext="shape" v:layerMember="0">
              <path d="M10.2 75.3l-.07-.53c-.08-.67-.23-2.1-.38-2.77-.15-.83-.52-1.5-1.27-1.88l-.3-.15c-.45-.3-.75-.45-1.13-.45-.23 0-.45.08-.6.15l-.07.08-.08.07c-.07.08-.07.15-.15.15l-.15.15-.07.08c-.08.07-.16.07-.3.07-.16.08-.38.08-.6.08-.23 0-.38 0-.6-.08-.08-.07-.16-.07-.3-.15-.08-.07-.23-.15-.3-.22l-.08-.08-.07-.07c-.15-.15-.38-.15-.6-.15-.38 0-.68.15-1.2.45l-.23.15c-.82.45-1.12 1.05-1.27 1.87-.15.68-.3 2.11-.38 2.78v.52h10.2v-.07z" class="st2"/>
            </g>
            <g id="shape1179-31" v:mID="1179" v:groupContext="shape" v:layerMember="0" transform="translate(1.05 -.825)">
              <path d="M8.25 75.37c-.07-.75-.22-1.8-.37-2.32-.15-.68-.38-1.05-.83-1.35-.52-.3-.82-.53-1.05-.53-.07 0-.15 0-.22.08-.15.15-.3.22-.38.3-.07 0-.07.07-.07.07-.15.08-.3.15-.45.15-.3.08-.6.15-.83.15-.3 0-.6-.07-.82-.15-.15-.07-.3-.07-.45-.15a2.13 2.13 0 0 1-.53-.37c-.08 0-.15-.08-.15-.08-.15 0-.37.15-.97.53-.53.3-.68.6-.83 1.35-.15.52-.3 1.65-.3 2.32h8.25z" class="st1"/>
            </g>
            <g id="shape1180-33" v:mID="1180" v:groupContext="shape" v:layerMember="0" transform="translate(3.075 -5.1)">
              <path d="M2.02 75.37C.9 75.37 0 74.32 0 73.12c0-1.27.9-2.25 2.02-2.25 1.13 0 2.03 1.05 2.03 2.25s-.9 2.25-2.03 2.25z" class="st1"/>
            </g>
          </g>
        </g>
        <g id="group1181-35" transform="translate(31.5 -37.5)" v:mID="1181" v:groupContext="group" v:layerMember="0">
          <g id="shape1182-36" v:mID="1182" v:groupContext="shape" v:layerMember="0">
            <path d="M17.92 75.37c-1.2 0-2.32-.22-3.37-.75-.45.08-.9.08-1.43.08C6.23 74.7.68 69.08.67 62.25c.01-.45.01-.9.08-1.42C.3 59.78 0 58.58 0 57.45c0-4.57 3.75-8.32 8.32-8.32 1.2 0 2.33.22 3.38.75.45-.08.9-.08 1.42-.08 6.9 0 12.45 5.63 12.45 12.45 0 .45 0 .9-.07 1.43.45 1.04.75 2.25.75 3.37 0 4.58-3.75 8.32-8.33 8.32z" class="st1"/>
          </g>
          <g id="shape1183-38" v:mID="1183" v:groupContext="shape" v:layerMember="0" transform="translate(2.25 -2.25)">
            <path d="M20.92 66.3c.08-.6.15-1.2.15-1.8 0-5.62-4.57-10.2-10.2-10.2-.6 0-1.2.08-1.8.15a6.06 6.06 0 0 0-3-.82C2.7 53.63 0 56.33 0 59.7c0 1.13.3 2.1.82 3-.07.6-.14 1.2-.15 1.8.01 5.62 4.58 10.2 10.2 10.2.6 0 1.2-.08 1.8-.15.9.52 1.95.82 3 .82 3.38 0 6.08-2.69 6.08-6.07 0-1.12-.3-2.1-.83-3zm-5.25 7.5c-.82 0-1.57-.23-2.25-.6l-.52-.3-.53.08c-.45.07-.97.14-1.5.15-4.79-.01-8.7-3.91-8.7-8.7 0-.53.08-1.05.15-1.5l.08-.53-.3-.45c-.38-.68-.6-1.43-.6-2.25 0-2.47 2.02-4.5 4.5-4.5.83 0 1.58.23 2.25.6l.52.3.53-.07c.52-.08.97-.15 1.5-.15 4.8 0 8.7 3.9 8.7 8.7 0 .52-.08 1.04-.15 1.5l-.08.52.3.53c.38.67.6 1.42.6 2.25 0 2.4-2.02 4.42-4.5 4.42z" class="st3"/>
          </g>
          <g id="shape1184-40" v:mID="1184" v:groupContext="shape" v:layerMember="0" transform="translate(7.95 -6.9)">
            <path d="M7.05 68.18l-2.33-.53c-.9-.23-1.87-.45-1.87-1.35 0-.83.68-1.42 1.95-1.42 2.55 0 2.32 1.8 3.6 1.8.67 0 1.27-.38 1.27-1.05 0-1.58-2.55-2.78-4.72-2.78-2.33 0-4.8.98-4.8 3.6 0 1.28.45 2.62 2.92 3.3l3.08.75c.97.23 1.2.75 1.2 1.28 0 .82-.83 1.65-2.25 1.64-2.77.01-2.4-2.25-3.9-2.24-.68-.01-1.2.45-1.2 1.12 0 1.27 1.57 3.07 5.1 3.07 3.3 0 5.02-1.65 5.02-3.82.08-1.35-.6-2.77-3.07-3.37z" class="st3"/>
          </g>
        </g>
      </g>
    </g>
  </g>
</svg>
