<svg xmlns="http://www.w3.org/2000/svg" xmlns:v="http://schemas.microsoft.com/visio/2003/SVGExtensions/" width="61.5" height="91.5" viewBox="0 0 46.125 68.625" color-interpolation-filters="sRGB" fill="none" fill-rule="evenodd" font-size="12" overflow="visible" stroke-linecap="square" stroke-miterlimit="3">
  <v:documentProperties v:langID="4108" v:metric="true" v:viewMarkup="false"/>
  <style>
    .st2{fill:#2072b8;stroke:none;stroke-linecap:butt;stroke-width:.75}
  </style>
  <g v:mID="0" v:index="1" v:groupContext="foregroundPage">
    <v:pageProperties v:drawingScale=".039" v:pageScale=".039" v:drawingUnits="24" v:shadowOffsetX="8.504" v:shadowOffsetY="-8.504"/>
    <v:layer v:name="symbols" v:index="0"/>
    <g id="group1219-1" transform="translate(7.088 -6.188)" v:mID="1219" v:groupContext="group" v:layerMember="0">
      <g id="group1220-2" v:mID="1220" v:groupContext="group" v:layerMember="0">
        <g id="shape1221-3" v:mID="1221" v:groupContext="shape" v:layerMember="0">
          <path d="M0 68.62v-51c0-2.92 2.33-5.25 5.25-5.25H27c2.93.01 5.25 2.33 5.25 5.25v51H0z" fill="#fff" stroke-linecap="butt" stroke-width=".75"/>
        </g>
        <g id="shape1222-5" v:mID="1222" v:groupContext="shape" v:layerMember="0" transform="translate(2.475 -51.3)">
          <path d="M23.78 65.92h-2.25v2.25h2.25v-2.25zm-4.51 0h-2.24v2.25h2.24v-2.25zm-4.49 0h-2.26v2.25h2.26v-2.25zm-4.5 0H8.03v2.25h2.25v-2.25zm-4.51 0H3.53v2.25h2.24v-2.25zm-4.42.38c-.07 0-.07 0 0 0-.07 0-.07 0 0 0-.07 0-.07 0 0 0-.07 0-.07 0 0 0-.07 0-.07 0 0 0-.07 0-.07 0 0 0-.07 0-.07 0 0 0-.07 0-.07 0 0 0-.07 0-.07 0 0 0-.07 0-.07 0 0 0-.07 0-.07 0 0 0-.07 0-.07 0 0 0-.07 0-.07 0 0 0-.07 0-.07 0 0 0-.07 0-.07 0 0 0-.07 0-.07 0 0 0-.07 0-.07 0 0 0-.07 0-.07 0 0 0-.07 0-.07 0 0 0-.07 0-.07 0 0 0h-.07c-.61.38-1.06.9-1.28 1.65l2.1.67c.07-.14.23-.3.38-.45L1.35 66.3zm24.3-.15l-.82 2.1c.15.07.29.22.37.37l2.03-.89c-.31-.68-.83-1.21-1.5-1.51 0-.07 0-.07-.08-.07.08 0 .08 0 0 0 .08 0 .08 0 0 0 .08 0 .08 0 0 0 .08 0 .08 0 0 0 .08 0 .08 0 0 0 .08 0 .08 0 0 0 .08 0 .08 0 0 0 .08 0 .08 0 0 0 .08 0 .08 0 0 0 .08 0 .08 0 0 0 .08 0 .08 0 0 0 .08 0 .08 0 0 0 .08 0 .08 0 0 0 .08 0 .08 0 0 0 .08 0 .08 0 0 0 .08 0 .08 0 0 0 .08 0 .08 0 0 0 .08 0 .08 0 0 0 .08 0 .08 0 0 0 .08 0 .08 0 0 0 .08 0 .08 0 0 0 .08 0 .08 0 0 0 .08 0 .08 0 0 0z" class="st2"/>
        </g>
        <g id="shape1223-7" v:mID="1223" v:groupContext="shape" v:layerMember="0" transform="translate(8.25 -8.25)">
          <path d="M15.75 68.62H0v-2.25h15.75v2.25zm0-5.99H0v-2.25h15.75v2.25zm0-30.75H0v-2.25h15.75v2.25z" class="st2"/>
        </g>
        <g id="group1224-9" transform="translate(2.25 -2.25)" v:mID="1224" v:groupContext="group" v:layerMember="0">
          <g id="shape1225-10" v:mID="1225" v:groupContext="shape" v:layerMember="0" transform="translate(0 -45)">
            <path class="st2" d="M0 66.375h2.25v2.25H0z"/>
          </g>
          <g id="shape1226-12" v:mID="1226" v:groupContext="shape" v:layerMember="0" transform="translate(0 -40.5)">
            <path class="st2" d="M0 66.375h2.25v2.25H0z"/>
          </g>
          <g id="shape1227-14" v:mID="1227" v:groupContext="shape" v:layerMember="0" transform="translate(0 -36)">
            <path class="st2" d="M0 66.375h2.25v2.25H0z"/>
          </g>
          <g id="shape1228-16" v:mID="1228" v:groupContext="shape" v:layerMember="0" transform="translate(0 -31.5)">
            <path class="st2" d="M0 66.375h2.25v2.25H0z"/>
          </g>
          <g id="shape1229-18" v:mID="1229" v:groupContext="shape" v:layerMember="0" transform="translate(0 -27)">
            <path class="st2" d="M0 66.375h2.25v2.25H0z"/>
          </g>
          <g id="shape1230-20" v:mID="1230" v:groupContext="shape" v:layerMember="0" transform="translate(0 -22.5)">
            <path class="st2" d="M0 66.375h2.25v2.25H0z"/>
          </g>
          <g id="shape1231-22" v:mID="1231" v:groupContext="shape" v:layerMember="0" transform="translate(0 -18)">
            <path class="st2" d="M0 66.375h2.25v2.25H0z"/>
          </g>
          <g id="shape1232-24" v:mID="1232" v:groupContext="shape" v:layerMember="0" transform="translate(0 -13.5)">
            <path class="st2" d="M0 66.375h2.25v2.25H0z"/>
          </g>
          <g id="shape1233-26" v:mID="1233" v:groupContext="shape" v:layerMember="0" transform="translate(0 -9)">
            <path class="st2" d="M0 66.375h2.25v2.25H0z"/>
          </g>
          <g id="shape1234-28" v:mID="1234" v:groupContext="shape" v:layerMember="0" transform="translate(0 -4.5)">
            <path class="st2" d="M0 66.375h2.25v2.25H0z"/>
          </g>
          <g id="shape1235-30" v:mID="1235" v:groupContext="shape" v:layerMember="0">
            <path class="st2" d="M0 66.375h2.25v2.25H0z"/>
          </g>
          <g id="shape1236-32" v:mID="1236" v:groupContext="shape" v:layerMember="0" transform="translate(3.75)">
            <path class="st2" d="M0 66.375h2.25v2.25H0z"/>
          </g>
          <g id="shape1237-34" v:mID="1237" v:groupContext="shape" v:layerMember="0" transform="translate(8.25)">
            <path class="st2" d="M0 66.375h2.25v2.25H0z"/>
          </g>
          <g id="shape1238-36" v:mID="1238" v:groupContext="shape" v:layerMember="0" transform="translate(12.75)">
            <path class="st2" d="M0 66.375h2.25v2.25H0z"/>
          </g>
          <g id="shape1239-38" v:mID="1239" v:groupContext="shape" v:layerMember="0" transform="translate(17.25)">
            <path class="st2" d="M0 66.375h2.25v2.25H0z"/>
          </g>
          <g id="shape1240-40" v:mID="1240" v:groupContext="shape" v:layerMember="0" transform="translate(21.75)">
            <path class="st2" d="M0 66.375h2.25v2.25H0z"/>
          </g>
        </g>
        <g id="group1241-42" transform="translate(27.75 -2.25)" v:mID="1241" v:groupContext="group" v:layerMember="0">
          <g id="shape1242-43" v:mID="1242" v:groupContext="shape" v:layerMember="0" transform="translate(0 -45)">
            <path class="st2" d="M0 66.375h2.25v2.25H0z"/>
          </g>
          <g id="shape1243-45" v:mID="1243" v:groupContext="shape" v:layerMember="0" transform="translate(0 -40.5)">
            <path class="st2" d="M0 66.375h2.25v2.25H0z"/>
          </g>
          <g id="shape1244-47" v:mID="1244" v:groupContext="shape" v:layerMember="0" transform="translate(0 -36)">
            <path class="st2" d="M0 66.375h2.25v2.25H0z"/>
          </g>
          <g id="shape1245-49" v:mID="1245" v:groupContext="shape" v:layerMember="0" transform="translate(0 -31.5)">
            <path class="st2" d="M0 66.375h2.25v2.25H0z"/>
          </g>
          <g id="shape1246-51" v:mID="1246" v:groupContext="shape" v:layerMember="0" transform="translate(0 -27)">
            <path class="st2" d="M0 66.375h2.25v2.25H0z"/>
          </g>
          <g id="shape1247-53" v:mID="1247" v:groupContext="shape" v:layerMember="0" transform="translate(0 -22.5)">
            <path class="st2" d="M0 66.375h2.25v2.25H0z"/>
          </g>
          <g id="shape1248-55" v:mID="1248" v:groupContext="shape" v:layerMember="0" transform="translate(0 -18)">
            <path class="st2" d="M0 66.375h2.25v2.25H0z"/>
          </g>
          <g id="shape1249-57" v:mID="1249" v:groupContext="shape" v:layerMember="0" transform="translate(0 -13.5)">
            <path class="st2" d="M0 66.375h2.25v2.25H0z"/>
          </g>
          <g id="shape1250-59" v:mID="1250" v:groupContext="shape" v:layerMember="0" transform="translate(0 -9)">
            <path class="st2" d="M0 66.375h2.25v2.25H0z"/>
          </g>
          <g id="shape1251-61" v:mID="1251" v:groupContext="shape" v:layerMember="0" transform="translate(0 -4.5)">
            <path class="st2" d="M0 66.375h2.25v2.25H0z"/>
          </g>
          <g id="shape1252-63" v:mID="1252" v:groupContext="shape" v:layerMember="0">
            <path class="st2" d="M0 66.375h2.25v2.25H0z"/>
          </g>
        </g>
      </g>
    </g>
  </g>
</svg>
