<svg xmlns="http://www.w3.org/2000/svg" xmlns:v="http://schemas.microsoft.com/visio/2003/SVGExtensions/" width="84" height="94.5" viewBox="0 0 63 70.875" color-interpolation-filters="sRGB" fill="none" fill-rule="evenodd" font-size="12" overflow="visible" stroke-linecap="square" stroke-miterlimit="3">
  <v:documentProperties v:langID="4108" v:metric="true" v:viewMarkup="false"/>
  <style>
    .st1,.st2{fill:#fff;stroke:none;stroke-linecap:butt;stroke-width:.75}.st2{fill:#515050}
  </style>
  <g v:mID="0" v:index="1" v:groupContext="foregroundPage">
    <v:pageProperties v:drawingScale=".039" v:pageScale=".039" v:drawingUnits="24" v:shadowOffsetX="8.504" v:shadowOffsetY="-8.504"/>
    <v:layer v:name="symbols" v:index="0"/>
    <g id="group1296-1" transform="translate(7.5 -6.563)" v:mID="1296" v:groupContext="group" v:layerMember="0">
      <g id="group1297-2" v:mID="1297" v:groupContext="group" v:layerMember="0">
        <g id="group1298-3" transform="translate(0 -3.75)" v:mID="1298" v:groupContext="group" v:layerMember="0">
          <g id="shape1299-4" v:mID="1299" v:groupContext="shape" v:layerMember="0">
            <path d="M0 70.87v-51c0-2.92 2.32-5.25 5.25-5.25H27c2.92.01 5.25 2.33 5.25 5.25v51H0z" class="st1"/>
          </g>
          <g id="shape1300-6" v:mID="1300" v:groupContext="shape" v:layerMember="0" transform="translate(2.475 -51.3)">
            <path d="M23.77 68.17h-2.25v2.25h2.25v-2.25zm-4.5 0h-2.25v2.25h2.25v-2.25zm-4.49 0h-2.26v2.25h2.26v-2.25zm-4.51 0H8.03v2.25h2.24v-2.25zm-4.5 0H3.53v2.25h2.24v-2.25zm-4.42.38c-.08 0-.08 0 0 0-.08 0-.08 0 0 0-.08 0-.08 0 0 0-.08 0-.08 0 0 0-.08 0-.08 0 0 0-.08 0-.08 0 0 0-.08 0-.08 0 0 0-.08 0-.08 0 0 0-.08 0-.08 0 0 0-.08 0-.08 0 0 0-.08 0-.08 0 0 0-.08 0-.08 0 0 0-.08 0-.08 0 0 0-.08 0-.08 0 0 0-.08 0-.08 0 0 0-.08 0-.08 0 0 0-.08 0-.08 0 0 0-.08 0-.08 0 0 0-.08 0-.08 0 0 0-.08 0-.08 0 0 0h-.08c-.6.38-1.05.9-1.27 1.65l2.1.67c.07-.14.22-.3.37-.45l-1.12-1.87zm24.3-.15l-.83 2.1c.15.07.3.22.38.37l2.02-.9c-.3-.67-.82-1.2-1.5-1.5 0-.07 0-.07-.07-.07.07 0 .07 0 0 0 .07 0 .07 0 0 0 .07 0 .07 0 0 0 .07 0 .07 0 0 0 .07 0 .07 0 0 0 .07 0 .07 0 0 0 .07 0 .07 0 0 0 .07 0 .07 0 0 0 .07 0 .07 0 0 0 .07 0 .07 0 0 0 .07 0 .07 0 0 0 .07 0 .07 0 0 0 .07 0 .07 0 0 0 .07 0 .07 0 0 0 .07 0 .07 0 0 0 .07 0 .07 0 0 0 .07 0 .07 0 0 0 .07 0 .07 0 0 0 .07 0 .07 0 0 0 .07 0 .07 0 0 0 .07 0 .07 0 0 0 .07 0 .07 0 0 0 .07 0 .07 0 0 0z" class="st2"/>
          </g>
          <g id="shape1301-8" v:mID="1301" v:groupContext="shape" v:layerMember="0" transform="translate(8.25 -8.25)">
            <path d="M15.75 70.87H0v-2.25h15.75v2.25zm0-5.99H0v-2.25h15.75v2.25zm0-30.75H0v-2.25h15.75v2.25z" fill="#515251" stroke-linecap="butt" stroke-width=".75"/>
          </g>
          <g id="group1302-10" transform="translate(2.25 -2.25)" v:mID="1302" v:groupContext="group" v:layerMember="0">
            <g id="shape1303-11" v:mID="1303" v:groupContext="shape" v:layerMember="0" transform="translate(0 -45)">
              <path class="st2" d="M0 68.625h2.25v2.25H0z"/>
            </g>
            <g id="shape1304-13" v:mID="1304" v:groupContext="shape" v:layerMember="0" transform="translate(0 -40.5)">
              <path class="st2" d="M0 68.625h2.25v2.25H0z"/>
            </g>
            <g id="shape1305-15" v:mID="1305" v:groupContext="shape" v:layerMember="0" transform="translate(0 -36)">
              <path class="st2" d="M0 68.625h2.25v2.25H0z"/>
            </g>
            <g id="shape1306-17" v:mID="1306" v:groupContext="shape" v:layerMember="0" transform="translate(0 -31.5)">
              <path class="st2" d="M0 68.625h2.25v2.25H0z"/>
            </g>
            <g id="shape1307-19" v:mID="1307" v:groupContext="shape" v:layerMember="0" transform="translate(0 -27)">
              <path class="st2" d="M0 68.625h2.25v2.25H0z"/>
            </g>
            <g id="shape1308-21" v:mID="1308" v:groupContext="shape" v:layerMember="0" transform="translate(0 -22.5)">
              <path class="st2" d="M0 68.625h2.25v2.25H0z"/>
            </g>
            <g id="shape1309-23" v:mID="1309" v:groupContext="shape" v:layerMember="0" transform="translate(0 -18)">
              <path class="st2" d="M0 68.625h2.25v2.25H0z"/>
            </g>
            <g id="shape1310-25" v:mID="1310" v:groupContext="shape" v:layerMember="0" transform="translate(0 -13.5)">
              <path class="st2" d="M0 68.625h2.25v2.25H0z"/>
            </g>
            <g id="shape1311-27" v:mID="1311" v:groupContext="shape" v:layerMember="0" transform="translate(0 -9)">
              <path class="st2" d="M0 68.625h2.25v2.25H0z"/>
            </g>
            <g id="shape1312-29" v:mID="1312" v:groupContext="shape" v:layerMember="0" transform="translate(0 -4.5)">
              <path class="st2" d="M0 68.625h2.25v2.25H0z"/>
            </g>
            <g id="shape1313-31" v:mID="1313" v:groupContext="shape" v:layerMember="0">
              <path class="st2" d="M0 68.625h2.25v2.25H0z"/>
            </g>
            <g id="shape1314-33" v:mID="1314" v:groupContext="shape" v:layerMember="0" transform="translate(3.75)">
              <path class="st2" d="M0 68.625h2.25v2.25H0z"/>
            </g>
            <g id="shape1315-35" v:mID="1315" v:groupContext="shape" v:layerMember="0" transform="translate(8.25)">
              <path class="st2" d="M0 68.625h2.25v2.25H0z"/>
            </g>
            <g id="shape1316-37" v:mID="1316" v:groupContext="shape" v:layerMember="0" transform="translate(12.75)">
              <path class="st2" d="M0 68.625h2.25v2.25H0z"/>
            </g>
            <g id="shape1317-39" v:mID="1317" v:groupContext="shape" v:layerMember="0" transform="translate(17.25)">
              <path class="st2" d="M0 68.625h2.25v2.25H0z"/>
            </g>
            <g id="shape1318-41" v:mID="1318" v:groupContext="shape" v:layerMember="0" transform="translate(21.75)">
              <path class="st2" d="M0 68.625h2.25v2.25H0z"/>
            </g>
          </g>
          <g id="group1319-43" transform="translate(27.75 -2.25)" v:mID="1319" v:groupContext="group" v:layerMember="0">
            <g id="shape1320-44" v:mID="1320" v:groupContext="shape" v:layerMember="0" transform="translate(0 -45)">
              <path class="st2" d="M0 68.625h2.25v2.25H0z"/>
            </g>
            <g id="shape1321-46" v:mID="1321" v:groupContext="shape" v:layerMember="0" transform="translate(0 -40.5)">
              <path class="st2" d="M0 68.625h2.25v2.25H0z"/>
            </g>
            <g id="shape1322-48" v:mID="1322" v:groupContext="shape" v:layerMember="0" transform="translate(0 -36)">
              <path class="st2" d="M0 68.625h2.25v2.25H0z"/>
            </g>
            <g id="shape1323-50" v:mID="1323" v:groupContext="shape" v:layerMember="0" transform="translate(0 -31.5)">
              <path class="st2" d="M0 68.625h2.25v2.25H0z"/>
            </g>
            <g id="shape1324-52" v:mID="1324" v:groupContext="shape" v:layerMember="0" transform="translate(0 -27)">
              <path class="st2" d="M0 68.625h2.25v2.25H0z"/>
            </g>
            <g id="shape1325-54" v:mID="1325" v:groupContext="shape" v:layerMember="0" transform="translate(0 -22.5)">
              <path class="st2" d="M0 68.625h2.25v2.25H0z"/>
            </g>
            <g id="shape1326-56" v:mID="1326" v:groupContext="shape" v:layerMember="0" transform="translate(0 -18)">
              <path class="st2" d="M0 68.625h2.25v2.25H0z"/>
            </g>
            <g id="shape1327-58" v:mID="1327" v:groupContext="shape" v:layerMember="0" transform="translate(0 -13.5)">
              <path class="st2" d="M0 68.625h2.25v2.25H0z"/>
            </g>
            <g id="shape1328-60" v:mID="1328" v:groupContext="shape" v:layerMember="0" transform="translate(0 -9)">
              <path class="st2" d="M0 68.625h2.25v2.25H0z"/>
            </g>
            <g id="shape1329-62" v:mID="1329" v:groupContext="shape" v:layerMember="0" transform="translate(0 -4.5)">
              <path class="st2" d="M0 68.625h2.25v2.25H0z"/>
            </g>
            <g id="shape1330-64" v:mID="1330" v:groupContext="shape" v:layerMember="0">
              <path class="st2" d="M0 68.625h2.25v2.25H0z"/>
            </g>
          </g>
        </g>
        <g id="group1331-66" transform="translate(18.75)" v:mID="1331" v:groupContext="group" v:layerMember="0">
          <g id="shape1332-67" v:mID="1332" v:groupContext="shape" v:layerMember="0">
            <path d="M3.75 70.87c-2.1 0-3.75-1.65-3.75-3.75V46.87c0-2.09 1.65-3.75 3.75-3.74H30c2.1 0 3.75 1.65 3.75 3.74v20.25c0 2.1-1.65 3.75-3.75 3.75H3.75z" class="st1"/>
          </g>
          <g id="shape1333-69" v:mID="1333" v:groupContext="shape" v:layerMember="0" transform="translate(2.25 -2.25)">
            <path d="M27.75 47.62H1.5c-.9 0-1.5.6-1.5 1.5v20.25c0 .91.6 1.5 1.5 1.5h26.25c.9 0 1.5-.59 1.5-1.5V49.12c0-.9-.6-1.5-1.5-1.5zm0 21.75H1.5V52.12h26.25v17.25z" fill="#515150" stroke-linecap="butt" stroke-width=".75"/>
          </g>
          <g id="shape1334-71" v:mID="1334" v:groupContext="shape" v:layerMember="0" transform="translate(28.5 -22.5)">
            <path class="st1" d="M0 69.375h1.5v1.5H0z"/>
          </g>
          <g id="shape1335-73" v:mID="1335" v:groupContext="shape" v:layerMember="0" transform="translate(25.5 -22.5)">
            <path class="st1" d="M0 69.375h1.5v1.5H0z"/>
          </g>
          <g id="shape1336-75" v:mID="1336" v:groupContext="shape" v:layerMember="0" transform="translate(22.5 -22.5)">
            <path class="st1" d="M0 69.375h1.5v1.5H0z"/>
          </g>
        </g>
      </g>
    </g>
  </g>
</svg>
