<svg xmlns="http://www.w3.org/2000/svg" xmlns:v="http://schemas.microsoft.com/visio/2003/SVGExtensions/" width="79.5" height="94.5" viewBox="0 0 59.625 70.875" color-interpolation-filters="sRGB" fill="none" fill-rule="evenodd" font-size="12" overflow="visible" stroke-linecap="square" stroke-miterlimit="3">
  <v:documentProperties v:langID="4108" v:metric="true" v:viewMarkup="false"/>
  <style>
    .st1,.st3{fill:#fff;stroke:none;stroke-linecap:butt;stroke-width:.75}.st3{fill:#515150}
  </style>
  <g v:mID="0" v:index="1" v:groupContext="foregroundPage">
    <v:pageProperties v:drawingScale=".039" v:pageScale=".039" v:drawingUnits="24" v:shadowOffsetX="8.504" v:shadowOffsetY="-8.504"/>
    <v:layer v:name="symbols" v:index="0"/>
    <g id="group1559-1" transform="translate(7.875 -5.063)" v:mID="1559" v:groupContext="group" v:layerMember="0">
      <g id="group1560-2" transform="translate(0 -3.75)" v:mID="1560" v:groupContext="group" v:layerMember="0">
        <g id="shape1561-3" v:mID="1561" v:groupContext="shape" v:layerMember="0">
          <path d="M0 70.87V19.12c0-2.92 2.33-5.25 5.25-5.25h21c2.93 0 5.25 2.33 5.25 5.25v51.75H0z" class="st1"/>
        </g>
        <g id="shape1562-5" v:mID="1562" v:groupContext="shape" v:layerMember="0" transform="translate(2.25 -2.25)">
          <path d="M24 18.37H3c-1.65 0-3 1.35-3 3v49.5h27v-49.5c0-1.65-1.35-3-3-3zm-2.25 46.5H5.25v-2.25h16.5v2.25zm0-6.75H5.25v-2.25h16.5v2.25zm0-30.75H5.25v-2.25h16.5v2.25z" fill="#515050" stroke-linecap="butt" stroke-width=".75"/>
        </g>
      </g>
      <g id="group1563-7" transform="translate(17.25)" v:mID="1563" v:groupContext="group" v:layerMember="0">
        <g id="shape1564-8" v:mID="1564" v:groupContext="shape" v:layerMember="0">
          <path d="M3.75 70.87c-2.1 0-3.75-1.65-3.75-3.75V51.37c0-2.1 1.65-3.75 3.75-3.75H30c2.1 0 3.75 1.65 3.75 3.75v15.75c0 2.1-1.65 3.75-3.75 3.75H3.75z" class="st1"/>
        </g>
        <g id="shape1565-10" v:mID="1565" v:groupContext="shape" v:layerMember="0" transform="translate(21 -9.375)">
          <path d="M2.63 65.62C1.2 65.62 0 66.82 0 68.25c0 1.42 1.2 2.62 2.63 2.62 1.42 0 2.62-1.2 2.62-2.62 0-1.43-1.2-2.63-2.62-2.63z" class="st3"/>
        </g>
        <g id="shape1566-12" v:mID="1566" v:groupContext="shape" v:layerMember="0" transform="translate(7.5 -9.375)">
          <path d="M2.63 65.62C1.2 65.62 0 66.82 0 68.25c0 1.42 1.2 2.62 2.63 2.62 1.42 0 2.62-1.2 2.62-2.62 0-1.43-1.2-2.63-2.62-2.63z" class="st3"/>
        </g>
        <g id="shape1567-14" v:mID="1567" v:groupContext="shape" v:layerMember="0" transform="translate(2.25 -2.25)">
          <path d="M27.75 52.12H1.5c-.83 0-1.5.68-1.5 1.5v15.75c0 .83.67 1.5 1.5 1.5h26.25c.83 0 1.5-.67 1.5-1.5V53.62c0-.82-.67-1.5-1.5-1.5zm-1.13 9.3c-.14 2.85-2.62 4.95-5.47 4.95H8.1c-2.78 0-5.25-2.1-5.4-4.95-.22-3.3 2.62-5.92 5.92-5.55 2.11.3 3.91 1.88 4.43 3.9.3 1.28.15 2.55-.38 3.6-.14.3.08.68.45.68h3.23c.37 0 .6-.38.45-.68-.52-1.12-.68-2.32-.38-3.6.53-2.1 2.33-3.6 4.43-3.9 3.15-.37 5.93 2.33 5.77 5.55z" class="st3"/>
        </g>
      </g>
    </g>
  </g>
</svg>
