<svg xmlns="http://www.w3.org/2000/svg" xmlns:v="http://schemas.microsoft.com/visio/2003/SVGExtensions/" width="81" height="96" viewBox="0 0 60.75 72" color-interpolation-filters="sRGB" fill="none" fill-rule="evenodd" font-size="12" overflow="visible" stroke-linecap="square" stroke-miterlimit="3">
  <v:documentProperties v:langID="4108" v:metric="true" v:viewMarkup="false"/>
  <style>
    .st1,.st3,.st4{fill:#fff;stroke:none;stroke-linecap:butt;stroke-width:.75}.st3,.st4{fill:#9c9c9d}.st4{fill:#cccbcb}
  </style>
  <g v:mID="0" v:index="1" v:groupContext="foregroundPage">
    <v:pageProperties v:drawingScale=".039" v:pageScale=".039" v:drawingUnits="24" v:shadowOffsetX="8.504" v:shadowOffsetY="-8.504"/>
    <v:layer v:name="symbols" v:index="0"/>
    <g id="group1660-1" transform="translate(7.088 -4.688)" v:mID="1660" v:groupContext="group" v:layerMember="0">
      <g id="group1661-2" v:mID="1661" v:groupContext="group" v:layerMember="0">
        <g id="shape1662-3" v:mID="1662" v:groupContext="shape" v:layerMember="0" transform="translate(0 -4.5)">
          <path d="M0 72V20.25C0 17.33 2.33 15 5.25 15h21c2.93 0 5.25 2.33 5.25 5.25V72H0z" class="st1"/>
        </g>
        <g id="shape1663-5" v:mID="1663" v:groupContext="shape" v:layerMember="0" transform="translate(2.25 -6.75)">
          <path d="M24 19.5H3c-1.65 0-3 1.35-3 3V72h27V22.5c0-1.65-1.35-3-3-3zM21.75 66H5.25v-2.25h16.5V66zm0-6.75H5.25V57h16.5v2.25zm0-30.75H5.25v-2.25h16.5v2.25z" fill="#515050" stroke-linecap="butt" stroke-width=".75"/>
        </g>
        <g id="shape1664-7" v:mID="1664" v:groupContext="shape" v:layerMember="0" transform="translate(19.5)">
          <ellipse cx="16.5" cy="55.5" rx="16.5" ry="16.5" class="st1"/>
        </g>
        <g id="group1665-9" transform="translate(21.825 -2.325)" v:mID="1665" v:groupContext="group" v:layerMember="0">
          <g id="shape1666-10" v:mID="1666" v:groupContext="shape" v:layerMember="0" transform="translate(15.075 -14.625)">
            <path d="M5.63 64.8c-1.73.53-3.68.83-5.63.9V72c2.4-.07 4.73-.37 6.83-.97-.23-2.25-.6-4.35-1.2-6.23z" class="st3"/>
          </g>
          <g id="shape1667-12" v:mID="1667" v:groupContext="shape" v:layerMember="0" transform="translate(4.725 -23.775)">
            <path d="M4.5 68.25c-1.65.6-3.15 1.58-4.5 2.7.68.38 1.43.75 2.18 1.05.67-1.42 1.42-2.7 2.32-3.75z" class="st3"/>
          </g>
          <g id="shape1668-14" v:mID="1668" v:groupContext="shape" v:layerMember="0" transform="translate(8.4 -22.35)">
            <path d="M0 71.18c1.57.45 3.3.75 5.1.82v-6h-.6c-1.8.6-3.38 2.48-4.5 5.18z" class="st3"/>
          </g>
          <g id="shape1669-16" v:mID="1669" v:groupContext="shape" v:layerMember="0" transform="translate(6.75 -14.625)">
            <path d="M0 71.03c2.1.6 4.43.9 6.83.97v-6.3c-1.95-.07-3.9-.37-5.63-.9C.45 66.68.08 68.78 0 71.03z" class="st3"/>
          </g>
          <g id="shape1670-18" v:mID="1670" v:groupContext="shape" v:layerMember="0" transform="translate(22.65 -8.4)">
            <path d="M.68 66.08C.68 68.18.45 70.2 0 72c2.03-.75 3.9-1.72 5.48-2.92.22-.98.3-1.95.3-2.93 0-.9-.08-1.8-.23-2.62-1.42.97-3.07 1.72-4.95 2.32.08.15.08.15.08.23z" class="st3"/>
          </g>
          <g id="shape1671-20" v:mID="1671" v:groupContext="shape" v:layerMember="0" transform="translate(0 -8.25)">
            <path d="M5.17 65.93v-.23c-1.79-.6-3.52-1.42-4.95-2.32C.07 64.2 0 65.1 0 66c0 1.2.15 2.33.45 3.38C2.1 70.5 3.9 71.4 5.85 72c-.45-1.8-.68-3.82-.68-6.07z" class="st3"/>
          </g>
          <g id="shape1672-22" v:mID="1672" v:groupContext="shape" v:layerMember="0" transform="translate(.675 -16.05)">
            <path d="M3 64.35c-1.35 1.5-2.4 3.3-3 5.33 1.27.97 2.85 1.72 4.58 2.32.15-2.25.52-4.42 1.2-6.22-1.05-.45-1.96-.9-2.78-1.43z" class="st3"/>
          </g>
          <g id="shape1673-24" v:mID="1673" v:groupContext="shape" v:layerMember="0" transform="translate(14.925 -22.425)">
            <path d="M.07 72c1.8-.07 3.53-.37 5.1-.82C4.05 68.55 2.4 66.6.6 66H0l.07 6z" class="st3"/>
          </g>
          <g id="shape1674-26" v:mID="1674" v:groupContext="shape" v:layerMember="0" transform="translate(1.2 -.825)">
            <path d="M5.17 66.38C3.3 65.85 1.58 65.1 0 64.2c1.58 3.6 4.58 6.45 8.33 7.8-1.35-1.35-2.41-3.3-3.16-5.62z" class="st3"/>
          </g>
          <g id="shape1675-28" v:mID="1675" v:groupContext="shape" v:layerMember="0" transform="translate(19.275 -23.7)">
            <path d="M0 68.18C.9 69.23 1.65 70.5 2.25 72c.75-.3 1.5-.67 2.18-1.05-1.2-1.2-2.7-2.17-4.43-2.77z" class="st3"/>
          </g>
          <g id="shape1676-30" v:mID="1676" v:groupContext="shape" v:layerMember="0" transform="translate(22.125 -16.05)">
            <path d="M5.78 69.68a13.82 13.82 0 0 0-3-5.33c-.83.53-1.73.98-2.78 1.43.6 1.87 1.05 3.97 1.2 6.22 1.73-.6 3.23-1.42 4.58-2.32z" class="st3"/>
          </g>
          <g id="shape1677-32" v:mID="1677" v:groupContext="shape" v:layerMember="0" transform="translate(19.05 -.825)">
            <path d="M3.15 66.23C2.4 68.63 1.35 70.58 0 72c3.82-1.35 6.9-4.35 8.4-8.17-1.58 1.05-3.3 1.8-5.25 2.4z" class="st3"/>
          </g>
          <g id="shape1678-34" v:mID="1678" v:groupContext="shape" v:layerMember="0" transform="translate(8.1)">
            <path d="M5.4 72v-5.32c-1.87 0-3.67-.23-5.4-.6C1.28 69.3 3.23 71.55 5.4 72z" class="st3"/>
          </g>
          <g id="shape1679-36" v:mID="1679" v:groupContext="shape" v:layerMember="0" transform="translate(15 -6.825)">
            <path d="M6.83 64.8c-2.1.53-4.43.9-6.83.98V72c2.03-.07 4.05-.37 6-.9.53-1.95.83-4.12.83-6.3z" class="st3"/>
          </g>
          <g id="shape1680-38" v:mID="1680" v:groupContext="shape" v:layerMember="0" transform="translate(6.675 -6.9)">
            <path d="M6.83 72v-6.22C4.43 65.7 2.1 65.4 0 64.8c0 2.33.38 4.5.9 6.38 1.88.52 3.9.82 5.93.82z" class="st3"/>
          </g>
          <g id="shape1681-40" v:mID="1681" v:groupContext="shape" v:layerMember="0" transform="translate(15 -.075)">
            <path d="M0 66.68V72c2.18-.45 4.2-2.77 5.4-6.07-1.72.45-3.52.67-5.4.75z" class="st3"/>
          </g>
        </g>
        <g id="group1682-42" transform="translate(21.825 -2.325)" v:mID="1682" v:groupContext="group" v:layerMember="0">
          <g id="shape1683-43" v:mID="1683" v:groupContext="shape" v:layerMember="0" transform="translate(.675 -18.15)">
            <path d="M3.52 66.75l-2.4 2.4C.68 69.98.3 70.88 0 71.78c.07.07.22.15.37.22l4.5-4.57c-.52-.15-.97-.45-1.35-.68z" class="st4"/>
          </g>
          <g id="shape1684-45" v:mID="1684" v:groupContext="shape" v:layerMember="0" transform="translate(5.325 -23.85)">
            <path d="M2.1 69.15L0 71.33c.45.22.97.45 1.42.67l.45-.45c.6-1.2 1.28-2.32 2.1-3.22-.67.22-1.27.52-1.87.82z" class="st4"/>
          </g>
          <g id="shape1685-47" v:mID="1685" v:groupContext="shape" v:layerMember="0" transform="translate(8.55 -22.725)">
            <path d="M0 71.63c.53.15 1.12.3 1.72.37l3.23-3.22v-2.1L0 71.63z" class="st4"/>
          </g>
          <g id="shape1686-49" v:mID="1686" v:groupContext="shape" v:layerMember="0" transform="translate(2.625 -16.5)">
            <path d="M2.78 70.73c.15-.9.3-1.8.45-2.63L0 71.33c.45.22.98.45 1.43.67l1.35-1.27z" class="st4"/>
          </g>
          <g id="shape1687-51" v:mID="1687" v:groupContext="shape" v:layerMember="0" transform="translate(0 -12.375)">
            <path d="M1.58 68.33L0 69.98v.22c0 .6.08 1.2.15 1.8l2.93-2.92c-.53-.3-.98-.53-1.5-.75z" class="st4"/>
          </g>
          <g id="shape1688-53" v:mID="1688" v:groupContext="shape" v:layerMember="0" transform="translate(7.275 -19.725)">
            <path d="M.67 69.9c-.3.68-.45 1.43-.67 2.1l1.8-1.8c-.38-.07-.75-.15-1.13-.3z" class="st4"/>
          </g>
          <g id="shape1689-55" v:mID="1689" v:groupContext="shape" v:layerMember="0" transform="translate(14.925 -27.45)">
            <path d="M0 71.03V72l.9-.9c-.07 0-.15-.07-.3-.15-.23.08-.38.08-.6.08z" class="st4"/>
          </g>
          <g id="shape1690-57" v:mID="1690" v:groupContext="shape" v:layerMember="0" transform="translate(12.3 -22.35)">
            <path d="M1.2 72v-1.27L0 71.93c.45 0 .82.07 1.2.07z" class="st4"/>
          </g>
          <g id="shape1691-59" v:mID="1691" v:groupContext="shape" v:layerMember="0" transform="translate(6.825 -15.45)">
            <path d="M4.27 66.3l-4.2 4.28c0 .45-.07.82-.07 1.27.22.08.52.15.75.15l5.47-5.55c-.67 0-1.35-.07-1.95-.15z" class="st4"/>
          </g>
          <g id="shape1692-61" v:mID="1692" v:groupContext="shape" v:layerMember="0" transform="translate(14.925 -22.95)">
            <path d="M0 72l3.38-3.37c-.3-.38-.68-.75-1.05-1.05L0 69.9V72z" class="st4"/>
          </g>
          <g id="shape1693-63" v:mID="1693" v:groupContext="shape" v:layerMember="0" transform="translate(.75 -9.825)">
            <path d="M4.43 68.7v-1.2-.22c-.15-.08-.3-.15-.45-.15L0 71.18c.45.3.9.52 1.35.82l3.08-3.3z" class="st4"/>
          </g>
          <g id="shape1694-65" v:mID="1694" v:groupContext="shape" v:layerMember="0" transform="translate(19.275 -27.45)">
            <path d="M0 71.93l.08.07.07-.07c-.07.07-.07 0-.15 0z" class="st4"/>
          </g>
          <g id="shape1695-67" v:mID="1695" v:groupContext="shape" v:layerMember="0" transform="translate(16.95 -22.575)">
            <path d="M0 72c.9-.15 1.8-.3 2.63-.52L3 71.1a8.33 8.33 0 0 0-.75-1.42L0 72z" class="st4"/>
          </g>
          <g id="shape1696-69" v:mID="1696" v:groupContext="shape" v:layerMember="0" transform="translate(9.525 -14.775)">
            <path d="M4.05 67.65L0 71.78c.6.07 1.2.15 1.87.22l2.18-2.25v-2.1z" class="st4"/>
          </g>
          <g id="shape1697-71" v:mID="1697" v:groupContext="shape" v:layerMember="0" transform="translate(1.8 -6)">
            <path d="M.67 70.05l-.67.68c.23.45.53.9.82 1.27l1.28-1.27c-.45-.23-.9-.45-1.43-.68z" class="st4"/>
          </g>
          <g id="shape1698-73" v:mID="1698" v:groupContext="shape" v:layerMember="0" transform="translate(15.075 -18.6)">
            <path d="M0 69.9V72l2.62-2.62c-.75.07-1.57.15-2.32.22l-.3.3z" class="st4"/>
          </g>
          <g id="shape1699-75" v:mID="1699" v:groupContext="shape" v:layerMember="0" transform="translate(6.825 -10.35)">
            <path d="M3.23 68.93c-.6-.08-1.2-.23-1.8-.3L0 70.13c.08.67.15 1.27.23 1.87l3-3.07z" class="st4"/>
          </g>
          <g id="shape1700-77" v:mID="1700" v:groupContext="shape" v:layerMember="0" transform="translate(3.675 -8.475)">
            <path d="M2.02 71.48c-.15-.6-.22-1.2-.3-1.8L0 71.4c.52.23.97.45 1.5.6l.52-.52z" class="st4"/>
          </g>
          <g id="shape1701-79" v:mID="1701" v:groupContext="shape" v:layerMember="0" transform="translate(20.325 -24.675)">
            <path d="M0 70.65c.3.45.52.9.75 1.35l1.2-1.27c-.38-.3-.83-.6-1.28-.83l-.67.75z" class="st4"/>
          </g>
          <g id="shape1702-81" v:mID="1702" v:groupContext="shape" v:layerMember="0" transform="translate(3.825 -3.675)">
            <path d="M2.55 69.23c-.23-.08-.45-.15-.6-.23L0 70.95c.37.38.67.75 1.05 1.05l1.87-1.87c-.15-.23-.3-.6-.37-.9z" class="st4"/>
          </g>
          <g id="shape1703-83" v:mID="1703" v:groupContext="shape" v:layerMember="0" transform="translate(23.4 -24.6)">
            <path d="M.3 71.85s-.07-.07 0 0L0 72c.15-.07.23-.07.3-.15z" class="st4"/>
          </g>
          <g id="shape1704-85" v:mID="1704" v:groupContext="shape" v:layerMember="0" transform="translate(15.075 -14.625)">
            <path d="M0 72c.22 0 .45 0 .67-.07l5.4-5.48c-.15-.6-.3-1.12-.45-1.65L0 70.5V72z" class="st4"/>
          </g>
          <g id="shape1705-87" v:mID="1705" v:groupContext="shape" v:layerMember="0" transform="translate(7.425 -7.425)">
            <path d="M6.07 66.3c-.45 0-.9-.07-1.27-.07L0 71.1c.08.23.08.45.15.6.37.08.75.15 1.05.3l4.87-4.95v-.75z" class="st4"/>
          </g>
          <g id="shape1706-89" v:mID="1706" v:groupContext="shape" v:layerMember="0" transform="translate(22.05 -21.375)">
            <path d="M.3 72l1.87-1.95c-.67.38-1.34.68-2.17 1.05.15.3.23.6.3.9z" class="st4"/>
          </g>
          <g id="shape1707-91" v:mID="1707" v:groupContext="shape" v:layerMember="0" transform="translate(10.725 -6.9)">
            <path d="M2.77 69L0 71.85c.67.08 1.27.15 1.95.15l.82-.9V69z" class="st4"/>
          </g>
          <g id="shape1708-93" v:mID="1708" v:groupContext="shape" v:layerMember="0" transform="translate(6.225 -1.65)">
            <path d="M1.2 69.9L0 71.18c.45.3.82.52 1.27.82l.68-.67c-.23-.53-.45-.98-.75-1.43z" class="st4"/>
          </g>
          <g id="shape1709-95" v:mID="1709" v:groupContext="shape" v:layerMember="0" transform="translate(15 -9.225)">
            <path d="M4.05 67.8c-.75.15-1.58.23-2.4.3L0 69.83V72l4.05-4.2z" class="st4"/>
          </g>
          <g id="shape1710-97" v:mID="1710" v:groupContext="shape" v:layerMember="0" transform="translate(22.875 -17.7)">
            <path d="M0 70.2c.15.6.22 1.2.3 1.8l3.52-3.6c-.22-.45-.52-.9-.82-1.27L0 70.2z" class="st4"/>
          </g>
          <g id="shape1711-99" v:mID="1711" v:groupContext="shape" v:layerMember="0" transform="translate(18.375 -14.925)">
            <path d="M0 72c.9-.15 1.73-.3 2.55-.45l.9-.9c-.07-.67-.15-1.27-.3-1.87L0 72z" class="st4"/>
          </g>
          <g id="shape1712-101" v:mID="1712" v:groupContext="shape" v:layerMember="0" transform="translate(8.55 -3.525)">
            <path d="M.75 69.83l-.75.82c.23.53.45.98.75 1.35l1.87-1.95c-.6 0-1.2-.07-1.87-.22z" class="st4"/>
          </g>
          <g id="shape1713-103" v:mID="1713" v:groupContext="shape" v:layerMember="0" transform="translate(15 -6.75)">
            <path d="M2.1 71.78l4.58-4.65c.07-.75.15-1.5.15-2.25L0 71.85V72c.75-.07 1.43-.15 2.1-.22z" class="st4"/>
          </g>
          <g id="shape1714-105" v:mID="1714" v:groupContext="shape" v:layerMember="0" transform="translate(10.275 -1.125)">
            <path d="M3.23 67.8h-.08L0 70.95c.38.38.68.75 1.05 1.05l2.18-2.17V67.8z" class="st4"/>
          </g>
          <g id="shape1715-107" v:mID="1715" v:groupContext="shape" v:layerMember="0" transform="translate(24.3 -16.425)">
            <path d="M3.6 70.05c-.15-.45-.3-.82-.45-1.27L0 72c1.28-.52 2.47-1.2 3.6-1.95z" class="st4"/>
          </g>
          <g id="shape1716-109" v:mID="1716" v:groupContext="shape" v:layerMember="0" transform="translate(23.25 -13.275)">
            <path d="M2.02 69.98c-.67.3-1.34.52-2.02.75.07.15.07.15.07.22V72l1.95-2.02z" class="st4"/>
          </g>
          <g id="shape1717-111" v:mID="1717" v:groupContext="shape" v:layerMember="0" transform="translate(15 -4.8)">
            <path d="M.6 71.4H0v.6l.6-.6z" class="st4"/>
          </g>
          <g id="shape1718-113" v:mID="1718" v:groupContext="shape" v:layerMember="0" transform="translate(9.075 -.825)">
            <path d="M.15 71.7l-.15.15c.15.08.22.15.37.15 0-.07-.07-.22-.22-.3z" class="st4"/>
          </g>
          <g id="shape1719-115" v:mID="1719" v:groupContext="shape" v:layerMember="0" transform="translate(12.9)">
            <path d="M0 71.78c.22.07.38.15.6.22v-.82l-.6.6z" class="st4"/>
          </g>
          <g id="shape1720-117" v:mID="1720" v:groupContext="shape" v:layerMember="0" transform="translate(15 -.15)">
            <path d="M3.3 66.45L0 69.83V72l5.1-5.25c.08-.22.15-.45.3-.67-.67.07-1.42.22-2.1.37z" class="st4"/>
          </g>
          <g id="shape1721-119" v:mID="1721" v:groupContext="shape" v:layerMember="0" transform="translate(22.65 -8.4)">
            <path d="M5.7 64.43l-5.25 5.4C.37 70.58.22 71.33 0 72c.22-.07.37-.15.6-.22l5.18-5.33v-.3c0-.6-.08-1.2-.08-1.72z" class="st4"/>
          </g>
          <g id="shape1722-121" v:mID="1722" v:groupContext="shape" v:layerMember="0" transform="translate(20.025 -7.425)">
            <path d="M1.2 70.73L0 72c.3-.07.67-.15.98-.22.07-.38.14-.75.22-1.05z" class="st4"/>
          </g>
          <g id="shape1723-123" v:mID="1723" v:groupContext="shape" v:layerMember="0" transform="translate(19.05 -.825)">
            <path d="M8.4 63.83c-.98.67-2.03 1.2-3.15 1.65l-2.93 3C1.72 69.9.9 71.03 0 72c.6-.22 1.12-.45 1.65-.75l6.3-6.45c.15-.3.3-.6.45-.97z" class="st4"/>
          </g>
        </g>
      </g>
    </g>
  </g>
</svg>
