<svg xmlns="http://www.w3.org/2000/svg" xmlns:v="http://schemas.microsoft.com/visio/2003/SVGExtensions/" width="87.825" height="96" viewBox="0 0 65.869 72" color-interpolation-filters="sRGB" fill="none" fill-rule="evenodd" font-size="12" overflow="visible" stroke-linecap="square" stroke-miterlimit="3">
  <v:documentProperties v:langID="4108" v:metric="true" v:viewMarkup="false"/>
  <style>
    .st1,.st3{fill:#fff;stroke:none;stroke-linecap:butt;stroke-width:.75}.st3{fill:#27ace2}
  </style>
  <g v:mID="0" v:index="1" v:groupContext="foregroundPage">
    <v:pageProperties v:drawingScale=".039" v:pageScale=".039" v:drawingUnits="24" v:shadowOffsetX="8.504" v:shadowOffsetY="-8.504"/>
    <v:layer v:name="symbols" v:index="0"/>
    <g id="group1724-1" transform="translate(7.969 -5.813)" v:mID="1724" v:groupContext="group" v:layerMember="0">
      <g id="group1725-2" transform="translate(0 -3.75)" v:mID="1725" v:groupContext="group" v:layerMember="0">
        <g id="shape1726-3" v:mID="1726" v:groupContext="shape" v:layerMember="0">
          <path d="M0 72V20.25C0 17.32 2.33 15 5.25 15h21c2.93 0 5.25 2.32 5.25 5.25V72H0z" class="st1"/>
        </g>
        <g id="shape1727-5" v:mID="1727" v:groupContext="shape" v:layerMember="0" transform="translate(2.25 -2.25)">
          <path d="M24 19.5H3c-1.65 0-3 1.35-3 3V72h27V22.5c0-1.65-1.35-3-3-3zM21.75 66H5.25v-2.25h16.5V66zm0-6.75H5.25V57h16.5v2.25zm0-30.75H5.25v-2.25h16.5v2.25z" fill="#515251" stroke-linecap="butt" stroke-width=".75"/>
        </g>
      </g>
      <g id="group1728-7" transform="translate(31.5 -37.5)" v:mID="1728" v:groupContext="group" v:layerMember="0">
        <g id="shape1729-8" v:mID="1729" v:groupContext="shape" v:layerMember="0">
          <path d="M25.5 72V45.75h-2.4L0 49.05V68.7L23.1 72h2.4z" class="st1"/>
        </g>
        <g id="group1730-10" transform="translate(2.25 -2.25)" v:mID="1730" v:groupContext="group" v:layerMember="0">
          <g id="shape1731-11" v:mID="1731" v:groupContext="shape" v:layerMember="0" transform="translate(0 -1.725)">
            <path d="M0 70.72L9 72v-8.78H0v7.5z" class="st3"/>
          </g>
          <g id="shape1732-13" v:mID="1732" v:groupContext="shape" v:layerMember="0" transform="translate(0 -11.25)">
            <path d="M0 64.5V72h9v-8.78L0 64.5z" class="st3"/>
          </g>
          <g id="shape1733-15" v:mID="1733" v:groupContext="shape" v:layerMember="0" transform="translate(9.75)">
            <path class="st3" d="M0 61.5h11.25v8.85H0z"/>
          </g>
          <g id="shape1734-17" v:mID="1734" v:groupContext="shape" v:layerMember="0" transform="translate(9.75 -11.25)">
            <path d="M11.25 61.5L0 63.07V72h11.25V61.5z" class="st3"/>
          </g>
        </g>
      </g>
      <g id="group1735-19" transform="translate(19.5)" v:mID="1735" v:groupContext="group" v:layerMember="0">
        <g id="group1736-20" v:mID="1736" v:groupContext="group" v:layerMember="0">
          <g id="shape1737-21" v:mID="1737" v:groupContext="shape" v:layerMember="0">
            <path d="M4.5 72C2.02 72 0 69.97 0 67.5v-21C0 44.02 2.02 42 4.5 42h21c2.47 0 4.5 2.02 4.5 4.5v21c0 2.47-2.03 4.5-4.5 4.5h-21z" class="st1"/>
          </g>
          <g id="shape1738-23" v:mID="1738" v:groupContext="shape" v:layerMember="0" transform="translate(2.25 -2.25)">
            <path d="M25.5 69.75c0 1.27-.98 2.25-2.25 2.25h-21C.97 72 0 71.02 0 69.75v-21c0-1.28.97-2.25 2.25-2.25h21c1.27 0 2.25.97 2.25 2.25v21z" fill="#515050" stroke-linecap="butt" stroke-width=".75"/>
          </g>
        </g>
        <g id="shape1739-25" v:mID="1739" v:groupContext="shape" v:layerMember="0" transform="translate(12 -17.25)">
          <path d="M3.75 72v-4.95L6 69.3v-2.25l-3-3-3 3v2.25l2.25-2.25V72h1.5z" class="st1"/>
        </g>
        <g id="shape1740-27" v:mID="1740" v:groupContext="shape" v:layerMember="0" transform="translate(12 -4.8)">
          <path d="M2.25 64.05V69L0 66.75V69l3 3 3-3v-2.25L3.75 69v-4.95h-1.5z" class="st1"/>
        </g>
        <g id="shape1741-29" v:mID="1741" v:groupContext="shape" v:layerMember="0" transform="translate(17.55 -12)">
          <path d="M7.95 69.75H3L5.25 72H3l-3-3 3-3h2.25L3 68.25h4.95v1.5z" class="st1"/>
        </g>
        <g id="shape1742-31" v:mID="1742" v:groupContext="shape" v:layerMember="0" transform="translate(4.5 -12)">
          <path d="M0 68.25h4.95L2.7 66h2.25l3 3-3 3H2.7l2.25-2.25H0v-1.5z" class="st1"/>
        </g>
      </g>
    </g>
  </g>
</svg>
