<svg xmlns="http://www.w3.org/2000/svg" xmlns:v="http://schemas.microsoft.com/visio/2003/SVGExtensions/" width="89.025" height="94.5" viewBox="0 0 66.769 70.875" color-interpolation-filters="sRGB" fill="none" fill-rule="evenodd" font-size="12" overflow="visible" stroke-linecap="square" stroke-miterlimit="3">
  <v:documentProperties v:langID="4108" v:metric="true" v:viewMarkup="false"/>
  <style>
    .st1,.st3{fill:#fff;stroke:none;stroke-linecap:butt;stroke-width:.75}.st3{fill:#27ace2}
  </style>
  <g v:mID="0" v:index="1" v:groupContext="foregroundPage">
    <v:pageProperties v:drawingScale=".039" v:pageScale=".039" v:drawingUnits="24" v:shadowOffsetX="8.504" v:shadowOffsetY="-8.504"/>
    <v:layer v:name="symbols" v:index="0"/>
    <g id="group1743-1" transform="translate(7.894 -6.563)" v:mID="1743" v:groupContext="group" v:layerMember="0">
      <g id="group1744-2" v:mID="1744" v:groupContext="group" v:layerMember="0">
        <g id="shape1745-3" v:mID="1745" v:groupContext="shape" v:layerMember="0">
          <path d="M0 70.87V19.12a5.21 5.21 0 0 1 5.25-5.24h21a5.21 5.21 0 0 1 5.25 5.24v51.75H0z" class="st1"/>
        </g>
        <g id="shape1746-5" v:mID="1746" v:groupContext="shape" v:layerMember="0" transform="translate(2.25 -2.25)">
          <path d="M24 18.37H3c-1.65 0-3 1.36-3 3v49.5h27v-49.5c0-1.64-1.35-3-3-3zm-2.25 46.51H5.25v-2.26h16.5v2.26zm0-6.75H5.25v-2.26h16.5v2.26zm0-30.76H5.25v-2.25h16.5v2.25z" fill="#515251" stroke-linecap="butt" stroke-width=".75"/>
        </g>
      </g>
      <g id="group1747-7" transform="translate(31.5 -33.75)" v:mID="1747" v:groupContext="group" v:layerMember="0">
        <g id="shape1748-8" v:mID="1748" v:groupContext="shape" v:layerMember="0">
          <path d="M25.5 70.87V44.62h-2.4L0 47.93v19.64l23.1 3.3h2.4z" class="st1"/>
        </g>
        <g id="group1749-10" transform="translate(2.25 -2.25)" v:mID="1749" v:groupContext="group" v:layerMember="0">
          <g id="shape1750-11" v:mID="1750" v:groupContext="shape" v:layerMember="0" transform="translate(0 -1.725)">
            <path d="M0 69.6l9 1.27V62.1H0v7.5z" class="st3"/>
          </g>
          <g id="shape1751-13" v:mID="1751" v:groupContext="shape" v:layerMember="0" transform="translate(0 -11.25)">
            <path d="M0 63.38v7.49h9V62.1l-9 1.28z" class="st3"/>
          </g>
          <g id="shape1752-15" v:mID="1752" v:groupContext="shape" v:layerMember="0" transform="translate(9.75)">
            <path class="st3" d="M0 60.375h11.25v8.85H0z"/>
          </g>
          <g id="shape1753-17" v:mID="1753" v:groupContext="shape" v:layerMember="0" transform="translate(9.75 -11.25)">
            <path d="M11.25 60.37L0 61.95v8.92h11.25v-10.5z" class="st3"/>
          </g>
        </g>
      </g>
    </g>
  </g>
</svg>
