<svg xmlns="http://www.w3.org/2000/svg" xmlns:v="http://schemas.microsoft.com/visio/2003/SVGExtensions/" width="87.038" height="73.366" viewBox="0 0 65.278 55.024" color-interpolation-filters="sRGB" fill="none" fill-rule="evenodd" font-size="12" overflow="visible" stroke-linecap="square" stroke-miterlimit="3">
  <v:documentProperties v:langID="4108" v:metric="true" v:viewMarkup="false"/>
  <style>
    .st1,.st3{fill:#fff;stroke:none;stroke-linecap:butt;stroke-width:.75}.st3{fill:#b92025}
  </style>
  <g v:mID="0" v:index="1" v:groupContext="foregroundPage">
    <v:pageProperties v:drawingScale=".039" v:pageScale=".039" v:drawingUnits="24" v:shadowOffsetX="8.504" v:shadowOffsetY="-8.504"/>
    <g id="group309-1" transform="translate(.628 -.724)" v:mID="309" v:groupContext="group">
      <g id="group310-2" v:mID="310" v:groupContext="group">
        <g id="shape311-3" v:mID="311" v:groupContext="shape">
          <path d="M37.43 52.92c-1.43.23-2.78-.45-3.53-1.65l-1.95-3.15h-.07c-.08 0-.75.23-1.8.38-1.05.22-1.8.22-1.88.22h-.07l-.83 3.6c-.3 1.35-1.43 2.4-2.85 2.63-.45.07-.9.07-1.35-.08l-4.87-1.12c-.91-.23-1.66-.75-2.18-1.58-.53-.82-.68-1.72-.45-2.62l.83-3.68-.15-.07-2.7-1.95c-.01 0-.16-.08-.15-.15l-3.15 2.02c-.38.23-.83.38-1.28.45-1.43.23-2.85-.37-3.6-1.57l-2.62-4.28c-.53-.82-.68-1.72-.45-2.62.22-.9.82-1.73 1.57-2.18l3.15-1.95c0-.07-.08-.22-.07-.22l-.53-3.3v-.23L2.78 29c-.91-.23-1.66-.75-2.18-1.58-.45-.82-.6-1.8-.37-2.7l1.12-4.87c.3-1.35 1.43-2.4 2.85-2.63.45-.07.9-.07 1.35.08l3.67.82.08-.15 1.95-2.7s.07-.15.15-.15l-1.95-3.15c-.53-.82-.68-1.72-.45-2.62.22-.9.75-1.65 1.57-2.18l4.28-2.62c.37-.23.82-.38 1.28-.45 1.42-.23 2.77.37 3.52 1.65L21.6 8.9h.08c.07 0 .74-.23 1.8-.38 1.04-.15 1.79-.22 1.87-.22h.08l.82-3.6c.3-1.35 1.43-2.4 2.85-2.63.45-.07.9-.07 1.35.08l4.88 1.12c.9.23 1.65.75 2.17 1.58.53.82.68 1.72.45 2.62l-.82 3.68c.07 0 .15.07.15.07l2.7 1.95s.15.08.15.15l3.15-1.95c.37-.22.82-.37 1.27-.45 1.43-.22 2.78.38 3.53 1.65l2.62 4.28c.53.82.68 1.72.45 2.62-.22.9-.75 1.65-1.57 2.18l-3.15 1.95c0 .07.07.22.07.22l.53 3.3v.23l3.67.82c1.88.45 3.08 2.33 2.63 4.2l-1.13 4.88c-.3 1.35-1.42 2.4-2.85 2.62-.45.08-.9.08-1.35-.07l-3.67-.83c0 .08-.08.15-.08.15l-1.95 2.7s-.07.15-.15.15l1.95 3.15c.53.83.68 1.73.45 2.63-.22.9-.75 1.65-1.57 2.17l-4.28 2.63c-.37.07-.82.3-1.27.37zm-12.3-34.65c-5.63.9-9.38 6.23-8.48 11.78.9 5.62 6.22 9.37 11.78 8.47 5.62-.9 9.37-6.22 8.47-11.77-.9-5.55-6.15-9.38-11.77-8.48z" class="st1"/>
        </g>
        <g id="shape312-5" v:mID="312" v:groupContext="shape" transform="translate(2.25 -2.1)">
          <path d="M47.93 32.15l-4.05-.98c-.68-.15-1.2-.37-1.2-.52 0-.15-.08-.83-.08-1.5l-.52-3.08c-.15-.67-.31-1.35-.38-1.42-.07-.15.37-.53.98-.9l3.52-2.18c.6-.37.75-1.12.38-1.72l-2.63-4.28c-.37-.6-1.12-.75-1.72-.37l-3.53 2.17c-.6.38-1.12.6-1.27.45-.08-.07-.61-.52-1.13-.97l-2.55-1.88c-.6-.37-1.2-.67-1.27-.75-.15-.07-.08-.67.07-1.35l.98-4.05c.15-.67-.23-1.35-.9-1.5L27.75 6.2c-.67-.15-1.35.22-1.5.9l-.97 4.05c-.15.67-.38 1.2-.53 1.2-.15 0-.82 0-1.5.07 0 0-.68 0-1.57.15-.9.15-1.5.3-1.5.3-.68.23-1.28.38-1.43.45-.15.08-.53-.37-.9-.97l-2.32-3.53c-.38-.6-1.13-.75-1.73-.37l-4.27 2.62c-.61.38-.75 1.13-.38 1.73l2.18 3.52c.37.6.6 1.13.45 1.28-.08.07-.53.6-.98 1.12l-1.87 2.55c-.38.6-.68 1.2-.75 1.28-.08.15-.68.07-1.35-.08l-3.98-.9c-.67-.15-1.35.23-1.5.9l-1.2 4.88c-.15.67.23 1.35.9 1.5l4.13.97c.67.15 1.19.38 1.2.53-.01.15.07.82.07 1.5L6.98 35c.14.67.3 1.35.37 1.42.07.15-.37.53-.97.9L2.85 39.5c-.6.37-.75 1.12-.37 1.72L5.1 45.5c.37.6 1.13.75 1.73.37l3.52-2.17c.6-.38 1.13-.6 1.28-.45.07.07.6.52 1.12.97l2.55 1.88c.6.37 1.2.67 1.28.75.14.07.07.67-.08 1.35l-.97 4.05c-.16.67.22 1.35.9 1.5l4.87 1.12c.67.15 1.35-.22 1.5-.9l.98-4.05c.15-.67.37-1.2.52-1.2.15 0 .83 0 1.5-.07 0 0 .68 0 1.58-.15s1.5-.3 1.5-.3c.67-.23 1.27-.38 1.42-.45.15-.08.53.37.9.97l2.18 3.53c.37.6 1.12.75 1.72.37L39.38 50c.6-.38.75-1.13.37-1.73l-2.17-3.52c-.38-.6-.6-1.13-.45-1.28.07-.07.52-.6.97-1.12l1.88-2.55c.37-.6.67-1.2.75-1.28.07-.15.67-.07 1.35.08l4.05.97c.67.15 1.35-.22 1.5-.9l1.12-4.87c.3-.83-.15-1.5-.82-1.65zM26.55 42.87c-6.83 1.13-13.28-3.52-14.4-10.35-1.13-6.82 3.53-13.27 10.35-14.4 6.83-1.12 13.28 3.53 14.4 10.35 1.13 6.83-3.53 13.28-10.35 14.4z" fill="#515251" stroke-linecap="butt" stroke-width=".75"/>
        </g>
      </g>
      <g id="group313-7" transform="translate(34.65 -25.05)" v:mID="313" v:groupContext="group">
        <g id="shape314-8" v:mID="314" v:groupContext="shape">
          <path d="M20.03 29.07c-.45 0-.83 0-1.28.08v-2.63h-2.4L0 29.07V52.4l16.35 2.62h2.4V52.4c.45 0 .83.07 1.28.07 5.7 0 9.22-2.1 9.22-5.4v-12.6c0-3.3-3.52-5.4-9.22-5.4z" class="st1"/>
        </g>
        <g id="shape315-10" v:mID="315" v:groupContext="shape" transform="translate(13.05 -4.8)">
          <path d="M6.98 36.12c-3.45 0-6.98.98-6.98 3.15v12.6c0 2.18 3.53 3.15 6.98 3.15 3.45 0 6.97-.97 6.97-3.15v-12.6c0-2.17-3.52-3.15-6.97-3.15zm-5.93 3.15c0-1.2 2.62-2.1 5.93-2.1 3.3 0 5.92.9 5.92 2.1 0 1.13-2.62 2.1-5.92 2.1-3.31 0-5.93-.9-5.93-2.1zm0 1.05c0 1.13 2.62 2.1 5.93 2.1 3.3 0 5.92-.9 5.92-2.1v3.15c0 1.13-2.62 2.1-5.92 2.1-3.31 0-5.93-.9-5.93-2.1v-3.15zm0 4.2c0 1.13 2.62 2.1 5.93 2.1 3.3 0 5.92-.9 5.92-2.1v3.15c0 1.13-2.62 2.1-5.92 2.1-3.31 0-5.93-.9-5.93-2.1v-3.15zm5.93 9.45c-3.31 0-5.93-.9-5.93-2.1v-3.15c0 1.13 2.62 2.1 5.93 2.1 3.3 0 5.92-.9 5.92-2.1v3.15c0 1.13-2.62 2.1-5.92 2.1z" class="st3"/>
        </g>
        <g id="shape316-12" v:mID="316" v:groupContext="shape" transform="translate(2.25 -2.25)">
          <path d="M14.25 31.02L0 33.27v19.5l14.25 2.25v-24z" class="st3"/>
        </g>
        <g id="shape317-14" v:mID="317" v:groupContext="shape" transform="translate(5.475 -9.225)">
          <path d="M2.55 51.12l.83-3.07c0-.08 0-.15.07-.23v-.22-.23-.22h.08v.67c0 .08 0 .15.07.23l.83 3.07H2.55zM4.5 45.5l-1.95.15L0 54.57l1.65.08.53-1.95 2.62.07.53 2.1 1.95.15L4.5 45.5z" class="st1"/>
        </g>
      </g>
    </g>
  </g>
</svg>
