<svg xmlns="http://www.w3.org/2000/svg" xmlns:v="http://schemas.microsoft.com/visio/2003/SVGExtensions/" width="83.1" height="73.3" viewBox="0 0 62.325 54.975" color-interpolation-filters="sRGB" fill="none" fill-rule="evenodd" font-size="12" overflow="visible" stroke-linecap="square" stroke-miterlimit="3">
  <v:documentProperties v:langID="4108" v:metric="true" v:viewMarkup="false"/>
  <style>
    .st1,.st2{fill:#fff;stroke:none;stroke-linecap:butt;stroke-width:.75}.st2{fill:#515150}
  </style>
  <g v:mID="0" v:index="1" v:groupContext="foregroundPage">
    <v:pageProperties v:drawingScale=".039" v:pageScale=".039" v:drawingUnits="24" v:shadowOffsetX="8.504" v:shadowOffsetY="-8.504"/>
    <g id="group114-1" transform="translate(.75 -.75)" v:mID="114" v:groupContext="group">
      <g id="group115-2" v:mID="115" v:groupContext="group">
        <g id="group116-3" transform="translate(0 -8.475)" v:mID="116" v:groupContext="group">
          <g id="group117-4" v:mID="117" v:groupContext="group">
            <g id="shape118-5" v:mID="118" v:groupContext="shape">
              <path d="M5.25 54.97C2.33 54.97 0 52.65 0 49.72v-34.5c0-2.92 2.33-5.25 5.25-5.25h45c2.93 0 5.25 2.33 5.25 5.25v34.5c0 2.93-2.32 5.25-5.25 5.25h-45z" class="st1"/>
            </g>
            <g id="shape119-7" v:mID="119" v:groupContext="shape" transform="translate(2.25 -2.25)">
              <path d="M48 14.47H3c-1.65 0-3 1.35-3 3v34.5c0 1.65 1.35 3 3 3h45c1.65 0 3-1.35 3-3v-34.5c0-1.65-1.35-3-3-3zm-6 2.25h2.25v2.25H42v-2.25zm-4.5 0h2.25v2.25H37.5v-2.25zm11.25 35.25c0 .45-.3.75-.75.75H3c-.45 0-.75-.3-.75-.75v-30h46.5v30zm0-33H46.5v-2.25h2.25v2.25z" class="st2"/>
            </g>
          </g>
          <g id="shape120-9" v:mID="120" v:groupContext="shape" transform="translate(12 -8.25)">
            <path d="M27.75 48.97v-6H16.5v-4.5H21v-6.75H10.5v6.75H15v4.5H3.75v6H0v6h9v-6H5.25v-4.5H15v4.5h-3.75v6h9v-6H16.5v-4.5h9.75v4.5H22.5v6h9v-6h-3.75z" class="st2"/>
          </g>
        </g>
        <g id="group121-11" transform="translate(27.45)" v:mID="121" v:groupContext="group">
          <g id="shape122-12" v:mID="122" v:groupContext="shape">
            <path d="M2.78 54.97c-.83 0-1.58-.37-2.1-.97-.53-.6-.68-1.43-.53-2.25l.07-.38 5.41-8.62L22.8 25.5l2.7-2.7a3.69 3.69 0 0 1 2.55-1.05c.9 0 1.72.37 2.4.97l1.95 1.95c.6.6.98 1.5.98 2.4 0 .98-.38 1.88-1.05 2.55l-2.78 2.63L12.38 49.5l-8.63 5.32-.37.08c-.23.07-.38.07-.6.07z" class="st1"/>
          </g>
          <g id="shape123-14" v:mID="123" v:groupContext="shape" transform="translate(2.325 -2.25)">
            <path d="M28.43 28.5l-1.95-1.95c-.46-.45-1.28-.38-1.73.07l-1.42 1.43-1.28 1.27L5.1 46.42.07 54.45c-.07.3.08.52.38.52H.6l8.03-4.95 17.02-17.1 1.28-1.27 1.42-1.43c.45-.52.53-1.27.08-1.72zM3.08 52.42l-.45-.45 2.62-4.2 2.03 2.03-4.2 2.62z" class="st2"/>
          </g>
        </g>
      </g>
    </g>
  </g>
</svg>
