<svg xmlns="http://www.w3.org/2000/svg" xmlns:v="http://schemas.microsoft.com/visio/2003/SVGExtensions/" width="88.038" height="73.566" viewBox="0 0 66.028 55.174" color-interpolation-filters="sRGB" fill="none" fill-rule="evenodd" font-size="12" overflow="visible" stroke-linecap="square" stroke-miterlimit="3">
  <v:documentProperties v:langID="4108" v:metric="true" v:viewMarkup="false"/>
  <style>
    .st1,.st3{fill:#fff;stroke:none;stroke-linecap:butt;stroke-width:.75}.st3{fill:#02723b}
  </style>
  <g v:mID="0" v:index="1" v:groupContext="foregroundPage">
    <v:pageProperties v:drawingScale=".039" v:pageScale=".039" v:drawingUnits="24" v:shadowOffsetX="8.504" v:shadowOffsetY="-8.504"/>
    <g id="group318-1" transform="translate(.628 -.724)" v:mID="318" v:groupContext="group">
      <g id="group319-2" v:mID="319" v:groupContext="group">
        <g id="shape320-3" v:mID="320" v:groupContext="shape">
          <path d="M37.42 53.07c-1.42.23-2.77-.45-3.52-1.65l-1.95-3.15h-.08c-.07 0-.74.23-1.8.38-1.04.22-1.79.22-1.87.22h-.08l-.82 3.6c-.3 1.35-1.43 2.4-2.85 2.63-.45.07-.9.07-1.35-.08l-4.88-1.12c-.9-.23-1.65-.75-2.17-1.58-.53-.82-.68-1.72-.45-2.62l.82-3.68-.15-.07-2.7-1.95s-.15-.08-.15-.15l-3.15 2.02c-.37.23-.82.38-1.27.45-1.43.23-2.85-.37-3.6-1.57l-2.63-4.28c-.52-.82-.67-1.72-.45-2.62.23-.9.83-1.73 1.58-2.18l3.15-1.95c0-.07-.08-.22-.08-.22l-.52-3.3v-.23l-3.68-.82c-.9-.23-1.65-.75-2.17-1.58-.45-.82-.6-1.8-.38-2.7L1.35 20c.3-1.35 1.43-2.4 2.85-2.63.45-.07.9-.07 1.35.08l3.67.82.08-.15 1.95-2.7s.07-.15.15-.15l-1.95-3.15C8.92 11.3 8.77 10.4 9 9.5c.22-.9.75-1.65 1.57-2.18l4.28-2.62c.37-.23.82-.38 1.27-.45 1.43-.23 2.78.37 3.53 1.65l1.95 3.15h.07c.08 0 .75-.23 1.8-.38s1.8-.22 1.88-.22h.07l.83-3.6c.3-1.35 1.43-2.4 2.85-2.63.45-.07.9-.07 1.35.08l4.87 1.12c.9.23 1.65.75 2.18 1.58.52.82.67 1.72.45 2.62l-.83 3.68c.08 0 .16.07.15.07l2.7 1.95s.15.08.15.15l3.15-1.95c.38-.22.83-.37 1.28-.45 1.42-.22 2.77.38 3.52 1.65L50.7 17c.52.82.67 1.72.45 2.62-.23.9-.75 1.65-1.58 2.18l-3.15 1.95c0 .07.08.22.08.22l.52 3.3v.23l3.68.82c1.87.45 3.07 2.33 2.62 4.2L52.2 37.4c-.3 1.35-1.43 2.4-2.85 2.62-.45.08-.9.08-1.35-.07l-3.68-.83c0 .08-.07.15-.07.15l-1.95 2.7s-.08.15-.15.15l1.95 3.15c.52.83.67 1.73.45 2.63-.23.9-.75 1.65-1.58 2.17L38.7 52.7c-.38.07-.83.3-1.28.37zm-12.3-34.65c-5.62.9-9.37 6.23-8.47 11.78.9 5.62 6.22 9.37 11.77 8.47 5.63-.9 9.38-6.22 8.48-11.77-.9-5.55-6.15-9.38-11.78-8.48z" class="st1"/>
        </g>
        <g id="shape321-5" v:mID="321" v:groupContext="shape" transform="translate(2.25 -2.1)">
          <path d="M47.92 32.3l-4.05-.98c-.67-.15-1.19-.37-1.2-.52.01-.15-.07-.83-.07-1.5l-.53-3.08c-.15-.67-.3-1.35-.37-1.42-.08-.15.37-.53.97-.9l3.53-2.18c.6-.37.75-1.12.37-1.72l-2.62-4.28c-.38-.6-1.13-.75-1.73-.37l-3.52 2.17c-.6.38-1.13.6-1.28.45-.07-.07-.6-.52-1.12-.97l-2.55-1.88c-.6-.37-1.2-.67-1.28-.75-.15-.07-.07-.67.08-1.35l.97-4.05c.16-.67-.22-1.35-.9-1.5l-4.87-1.12c-.68-.15-1.35.22-1.5.9l-.98 4.05c-.15.67-.37 1.2-.52 1.2-.15 0-.83 0-1.5.07 0 0-.68 0-1.58.15s-1.5.3-1.5.3c-.67.23-1.27.38-1.42.45-.15.08-.53-.37-.9-.97l-2.33-3.53c-.37-.6-1.12-.75-1.72-.37l-4.28 2.62c-.6.38-.74 1.13-.37 1.73l2.17 3.52c.38.6.61 1.13.45 1.28-.07.07-.52.6-.97 1.12l-1.88 2.55c-.37.6-.67 1.2-.75 1.28-.07.15-.67.07-1.35-.08l-3.97-.9c-.68-.15-1.35.23-1.5.9L.15 27.5c-.15.67.22 1.35.9 1.5l4.12.97c.68.15 1.2.38 1.2.53 0 .15.08.82.08 1.5l.52 3.15c.15.67.31 1.35.38 1.42.07.15-.37.53-.98.9l-3.52 2.18c-.6.37-.75 1.12-.38 1.72l2.63 4.28c.37.6 1.13.75 1.72.37l3.53-2.17c.6-.38 1.12-.6 1.27-.45.08.07.61.52 1.13.97l2.55 1.88c.6.37 1.2.67 1.27.75.15.07.08.67-.07 1.35l-.98 4.05c-.15.67.23 1.35.9 1.5l4.88 1.12c.67.15 1.35-.22 1.5-.9l.97-4.05c.15-.67.38-1.2.53-1.2.15 0 .82 0 1.5-.07 0 0 .68 0 1.57-.15.9-.15 1.5-.3 1.5-.3.68-.23 1.28-.38 1.43-.45.15-.08.53.37.9.97l2.17 3.53c.38.6 1.13.75 1.73.37l4.27-2.62c.6-.38.75-1.13.38-1.73l-2.18-3.52c-.37-.6-.6-1.13-.45-1.28.08-.07.53-.6.98-1.12l1.87-2.55c.38-.6.68-1.2.75-1.28.08-.15.68-.07 1.35.08l4.05.97c.68.15 1.35-.22 1.5-.9l1.13-4.87c.3-.83-.15-1.5-.83-1.65zM26.55 43.02c-6.83 1.13-13.28-3.52-14.4-10.35-1.13-6.82 3.53-13.27 10.35-14.4 6.83-1.12 13.27 3.53 14.4 10.35 1.13 6.83-3.53 13.28-10.35 14.4z" fill="#525352" stroke-linecap="butt" stroke-width=".75"/>
        </g>
      </g>
      <g id="group322-7" transform="translate(34.65 -25.2)" v:mID="322" v:groupContext="group">
        <g id="shape323-8" v:mID="323" v:groupContext="shape">
          <path d="M26.63 28.92h-7.88v-2.25h-2.4L0 29.22v23.33l16.35 2.62h2.4v-1.5h7.88c1.87 0 3.37-1.5 3.37-3.37v-18c0-1.88-1.5-3.38-3.37-3.38z" class="st1"/>
        </g>
        <g id="group324-10" transform="translate(11.25 -3.75)" v:mID="324" v:groupContext="group">
          <g id="shape325-11" v:mID="325" v:groupContext="shape">
            <path d="M15.38 36.05v18H1.13v-18h14.25zm0-1.13H1.13c-.6 0-1.13.53-1.13 1.13v18c0 .6.53 1.12 1.13 1.12h14.25c.6 0 1.12-.52 1.12-1.12v-18c0-.6-.52-1.13-1.12-1.13z" class="st3"/>
          </g>
          <g id="group326-13" transform="translate(9 -3)" v:mID="326" v:groupContext="group">
            <g id="shape327-14" v:mID="327" v:groupContext="shape" transform="translate(0 -12)">
              <path class="st3" d="M0 52.924h4.5v2.25H0z"/>
            </g>
            <g id="shape328-16" v:mID="328" v:groupContext="shape" transform="translate(0 -9)">
              <path class="st3" d="M0 52.924h4.5v2.25H0z"/>
            </g>
            <g id="shape329-18" v:mID="329" v:groupContext="shape" transform="translate(0 -6)">
              <path class="st3" d="M0 52.924h4.5v2.25H0z"/>
            </g>
            <g id="shape330-20" v:mID="330" v:groupContext="shape" transform="translate(0 -3)">
              <path class="st3" d="M0 52.924h4.5v2.25H0z"/>
            </g>
            <g id="shape331-22" v:mID="331" v:groupContext="shape">
              <path class="st3" d="M0 52.924h4.5v2.25H0z"/>
            </g>
          </g>
          <g id="group332-24" transform="translate(3 -3)" v:mID="332" v:groupContext="group">
            <g id="shape333-25" v:mID="333" v:groupContext="shape" transform="translate(0 -12)">
              <path class="st3" d="M0 52.924h5.25v2.25H0z"/>
            </g>
            <g id="shape334-27" v:mID="334" v:groupContext="shape" transform="translate(0 -9)">
              <path class="st3" d="M0 52.924h5.25v2.25H0z"/>
            </g>
            <g id="shape335-29" v:mID="335" v:groupContext="shape" transform="translate(0 -6)">
              <path class="st3" d="M0 52.924h5.25v2.25H0z"/>
            </g>
            <g id="shape336-31" v:mID="336" v:groupContext="shape" transform="translate(0 -3)">
              <path class="st3" d="M0 52.924h5.25v2.25H0z"/>
            </g>
            <g id="shape337-33" v:mID="337" v:groupContext="shape">
              <path class="st3" d="M0 52.924h5.25v2.25H0z"/>
            </g>
          </g>
        </g>
        <g id="shape338-35" v:mID="338" v:groupContext="shape" transform="translate(2.25 -2.25)">
          <path d="M14.25 31.17L0 33.42v19.5l14.25 2.25v-24z" class="st3"/>
        </g>
        <g id="shape339-37" v:mID="339" v:groupContext="shape" transform="translate(5.55 -9.225)">
          <path d="M6.98 45.5l-1.95.15-1.2 2.85c-.01.07-.08.15-.08.22 0 .08-.07.15-.07.23 0 .07 0 .15-.08.15 0 .07 0 .07-.07.15 0-.08 0-.15-.08-.23 0-.07 0-.15-.07-.22-.01-.08-.08-.15-.08-.15 0-.08-.07-.15-.07-.15l-1.05-2.7-1.95.15 2.02 4.42L0 54.8l1.88.15 1.27-2.93c0-.07.08-.15.08-.22 0-.08 0-.15.07-.15v-.15-.15c0 .07 0 .15.08.22-.01.08-.01.15.07.15V51.95l1.28 3.07 2.1.15-2.4-4.87 2.55-4.8z" class="st1"/>
        </g>
      </g>
    </g>
  </g>
</svg>
