<svg xmlns="http://www.w3.org/2000/svg" xmlns:v="http://schemas.microsoft.com/visio/2003/SVGExtensions/" width="86.1" height="75.3" viewBox="0 0 64.575 56.475" color-interpolation-filters="sRGB" fill="none" fill-rule="evenodd" font-size="12" overflow="visible" stroke-linecap="square" stroke-miterlimit="3">
  <v:documentProperties v:langID="4108" v:metric="true" v:viewMarkup="false"/>
  <style>
    .st1,.st2,.st3{fill:#fff;stroke:none;stroke-linecap:butt;stroke-width:.75}.st2,.st3{fill:#515150}.st3{fill:#525352}
  </style>
  <g v:mID="0" v:index="1" v:groupContext="foregroundPage">
    <v:pageProperties v:drawingScale=".039" v:pageScale=".039" v:drawingUnits="24" v:shadowOffsetX="8.504" v:shadowOffsetY="-8.504"/>
    <g id="group124-1" transform="translate(.75 -.75)" v:mID="124" v:groupContext="group">
      <g id="group125-2" v:mID="125" v:groupContext="group">
        <g id="group126-3" transform="translate(0 -9.975)" v:mID="126" v:groupContext="group">
          <g id="group127-4" v:mID="127" v:groupContext="group">
            <g id="shape128-5" v:mID="128" v:groupContext="shape">
              <path d="M5.25 56.48C2.32 56.48 0 54.15 0 51.23v-34.5c0-2.93 2.32-5.25 5.25-5.25h45c2.92 0 5.25 2.32 5.25 5.25v34.5c0 2.92-2.33 5.25-5.25 5.25h-45z" class="st1"/>
            </g>
            <g id="shape129-7" v:mID="129" v:groupContext="shape" transform="translate(2.25 -2.25)">
              <path d="M48 15.98H3c-1.65 0-3 1.35-3 3v34.5c0 1.65 1.35 3 3 3h45c1.65 0 3-1.35 3-3v-34.5c0-1.65-1.35-3-3-3zm-6 2.25h2.25v2.25H42v-2.25zm-4.5 0h2.25v2.25H37.5v-2.25zm11.25 35.25c0 .45-.3.75-.75.75H3c-.45 0-.75-.3-.75-.75v-30h46.5v30zm0-33H46.5v-2.25h2.25v2.25z" class="st2"/>
            </g>
          </g>
          <g id="shape130-9" v:mID="130" v:groupContext="shape" transform="translate(12 -8.25)">
            <path d="M27 44.48H16.5v-4.5H21v-6.75H10.5v6.75H15v4.5H3.75v6H0v6h9v-6H5.25v-4.5H15v4.5h-3.75v6h9v-6H16.5v-4.5h9.75v5.25h1.5v-6.75H27z" class="st2"/>
          </g>
        </g>
        <g id="group131-11" transform="translate(22.35)" v:mID="131" v:groupContext="group">
          <g id="shape132-12" v:mID="132" v:groupContext="shape">
            <path d="M40.72 52.8l-.15-2.7c-.07-1.12-.3-3.3-.6-4.42-.29-1.35-.82-2.7-2.55-3.6l-.37-.23s-.08 0-.08-.07c.23-.6.3-1.28.3-1.95 0-3.3-2.55-6-5.62-6-1.88 0-3.6.97-4.58 2.55-.3-.3-.59-.53-1.05-.75l-.37-.23h-.08c.23-.6.3-1.2.3-1.87 0-3.15-2.39-5.7-5.4-5.7-2.99 0-5.4 2.55-5.4 5.7 0 .67.08 1.27.3 1.87.01 0-.07 0-.07.08l-.38.22c-.44.23-.82.53-1.12.83-1.05-1.58-2.7-2.63-4.65-2.63-3.08 0-5.62 2.7-5.63 6 .01.68.16 1.35.3 1.95-.07 0-.07.08-.15.08l-.37.22c-1.73.98-2.25 2.33-2.55 3.6-.23 1.13-.53 3.3-.6 4.43L0 52.88h4.65c-.23.82-.08 1.72.45 2.4.53.75 1.35 1.2 2.25 1.2h27.3c.9 0 1.8-.45 2.32-1.2.46-.68.61-1.5.38-2.33h3.37v-.15z" class="st1"/>
          </g>
          <g id="shape133-14" v:mID="133" v:groupContext="shape" transform="translate(5.25 -.9)">
            <path d="M29.4 56.48H2.18c-.68 0-1.28-.3-1.65-.83-.38-.52-.53-1.27-.3-1.95l.07-.22 7.12-9.98c.31-.75 1.06-1.27 1.88-1.27h11.55c.75 0 1.5.45 1.8 1.2l8.55 10.12c.3.68.23 1.43-.22 2.03-.31.52-.91.9-1.58.9zM1.65 54.23c0 .15 0 .37.08.52.07.08.22.23.45.23H29.4c.23 0 .37-.15.45-.23.08-.15.15-.37.08-.52L21.45 44.1c-.07-.22-.3-.37-.45-.37H9.38c-.23 0-.46.15-.53.37l-.08.23-7.12 9.9z" class="st1"/>
          </g>
        </g>
        <g id="shape134-16" v:mID="134" v:groupContext="shape" transform="translate(36.75 -13.05)">
          <path d="M11.62 52.65c-.22-.97-.52-1.5-1.27-1.87-.75-.45-1.2-.68-1.43-.68-.15 0-.22 0-.3.08-.15.15-.37.3-.6.45l-.07.07c-.23.15-.45.23-.6.3-.38.15-.83.23-1.28.23-.45 0-.82-.08-1.27-.23-.23-.07-.45-.15-.6-.3-.23-.15-.45-.3-.68-.52-.07-.08-.15-.08-.3-.08-.3 0-.6.23-1.42.68-.75.45-1.05.9-1.28 1.87-.22.9-.44 2.85-.52 3.83h12.15c-.08-.98-.3-2.93-.53-3.83z" class="st3"/>
        </g>
        <g id="shape135-18" v:mID="135" v:groupContext="shape" transform="translate(39.9 -19.725)">
          <path d="M2.92 56.48c-1.64 0-2.92-1.5-2.92-3.3 0-1.8 1.35-3.3 2.92-3.3 1.65 0 2.93 1.5 2.93 3.3 0 1.8-1.28 3.3-2.93 3.3z" class="st3"/>
        </g>
        <g id="shape136-20" v:mID="136" v:groupContext="shape" transform="translate(25.125 -6.15)">
          <path d="M12.3 52.43c-.22-1.05-.52-1.58-1.35-2.03-.82-.45-1.2-.75-1.5-.75-.15 0-.22 0-.3.08-.22.15-.37.3-.6.45-.07 0-.07.07-.07.07-.23.15-.45.23-.68.3-.37.15-.82.23-1.27.23-.45 0-.9-.08-1.28-.23-.22-.07-.45-.15-.67-.3-.3-.15-.53-.3-.75-.52-.23-.08-.3-.08-.45-.08-.3 0-.6.23-1.5.75-.75.45-1.05.98-1.35 2.03-.23.9-.45 3-.53 4.05h12.75c0-1.05-.3-3.15-.45-4.05z" class="st3"/>
        </g>
        <g id="shape137-22" v:mID="137" v:groupContext="shape" transform="translate(28.35 -13.2)">
          <path d="M3.15 56.48C1.43 56.48 0 54.9 0 53.03c0-1.88 1.43-3.45 3.15-3.45s3.15 1.57 3.15 3.45c0 1.87-1.43 3.45-3.15 3.45z" class="st3"/>
        </g>
        <g id="shape138-24" v:mID="138" v:groupContext="shape" transform="translate(47.55 -6.15)">
          <path d="M12.3 52.43c-.22-1.05-.52-1.58-1.35-2.03-.82-.45-1.2-.75-1.5-.75-.15 0-.22 0-.3.08-.22.15-.37.3-.6.45-.07 0-.07.07-.07.07-.23.15-.45.23-.68.3-.37.15-.82.23-1.27.23-.45 0-.9-.08-1.28-.23-.22-.07-.45-.15-.67-.3-.3-.15-.53-.3-.75-.52-.23-.08-.3-.08-.45-.08-.31 0-.6.23-1.5.75-.75.45-1.05.98-1.35 2.03-.23.9-.45 3-.53 4.05h12.75c0-1.05-.22-3.15-.45-4.05z" class="st3"/>
        </g>
        <g id="shape139-26" v:mID="139" v:groupContext="shape" transform="translate(50.85 -13.2)">
          <path d="M3.15 56.48C1.43 56.48 0 54.9 0 53.03c0-1.88 1.43-3.45 3.15-3.45s3.15 1.57 3.15 3.45c-.07 1.87-1.43 3.45-3.15 3.45z" class="st3"/>
        </g>
        <g id="shape140-28" v:mID="140" v:groupContext="shape" transform="translate(28.275 -1.65)">
          <path d="M7.5 44.63L.3 54.68c-.3.9.3 1.8 1.2 1.8h27.23c.9 0 1.57-.98 1.19-1.88l-8.47-10.05c-.22-.52-.67-.82-1.2-.82H8.7c-.52 0-.98.37-1.2.9z" fill="#515050" stroke-linecap="butt" stroke-width=".75"/>
        </g>
        <g id="shape141-30" v:mID="141" v:groupContext="shape" transform="translate(27.6 -.9)">
          <path d="M29.4 56.48H2.17c-.67 0-1.27-.3-1.65-.83-.37-.52-.52-1.27-.29-1.95l.07-.22 7.12-9.98c.31-.75 1.05-1.27 1.88-1.27h11.55c.75 0 1.5.45 1.8 1.2l8.55 10.12c.3.68.22 1.43-.23 2.03-.3.52-.9.9-1.57.9zM1.65 54.23c0 .15 0 .37.07.52.08.08.23.23.45.23H29.4c.22 0 .37-.15.45-.23.07-.15.15-.37.07-.52L21.45 44.1c-.08-.22-.3-.37-.45-.37H9.37a.56.56 0 0 0-.52.37l-.08.23-7.12 9.9z" class="st1"/>
        </g>
      </g>
    </g>
  </g>
</svg>
