<svg xmlns="http://www.w3.org/2000/svg" xmlns:v="http://schemas.microsoft.com/visio/2003/SVGExtensions/" width="85" height="73" viewBox="0 0 63.75 54.75" color-interpolation-filters="sRGB" fill="none" fill-rule="evenodd" font-size="12" overflow="visible" stroke-linecap="square" stroke-miterlimit="3">
  <v:documentProperties v:langID="4108" v:metric="true" v:viewMarkup="false"/>
  <style>
    .st1,.st2,.st3{fill:#fff;stroke:none;stroke-linecap:butt;stroke-width:.75}.st2,.st3{fill:#515150}.st3{fill:#525352}
  </style>
  <g v:mID="0" v:index="1" v:groupContext="foregroundPage">
    <v:pageProperties v:drawingScale=".039" v:pageScale=".039" v:drawingUnits="24" v:shadowOffsetX="8.504" v:shadowOffsetY="-8.504"/>
    <g id="group142-1" transform="translate(.75 -.75)" v:mID="142" v:groupContext="group">
      <g id="group143-2" v:mID="143" v:groupContext="group">
        <g id="group144-3" transform="translate(0 -8.25)" v:mID="144" v:groupContext="group">
          <g id="group145-4" v:mID="145" v:groupContext="group">
            <g id="shape146-5" v:mID="146" v:groupContext="shape">
              <path d="M5.25 54.75C2.33 54.75 0 52.42 0 49.5V15c0-2.92 2.33-5.25 5.25-5.25h45c2.93 0 5.25 2.33 5.25 5.25v34.5c0 2.92-2.32 5.25-5.25 5.25h-45z" class="st1"/>
            </g>
            <g id="shape147-7" v:mID="147" v:groupContext="shape" transform="translate(2.25 -2.25)">
              <path d="M48 14.25H3c-1.65 0-3 1.35-3 3v34.5c0 1.65 1.35 3 3 3h45c1.65 0 3-1.35 3-3v-34.5c0-1.65-1.35-3-3-3zm-6 2.25h2.25v2.25H42V16.5zm-4.5 0h2.25v2.25H37.5V16.5zm11.25 35.25c0 .45-.3.75-.75.75H3c-.45 0-.75-.3-.75-.75v-30h46.5v30zm0-33H46.5V16.5h2.25v2.25z" class="st2"/>
            </g>
          </g>
          <g id="group148-9" transform="translate(12 -8.25)" v:mID="148" v:groupContext="group">
            <g id="group149-10" v:mID="149" v:groupContext="group">
              <g id="shape150-11" v:mID="150" v:groupContext="shape" transform="translate(22.5)">
                <path class="st2" d="M0 48.75h9v6H0z"/>
              </g>
              <g id="shape151-13" v:mID="151" v:groupContext="shape">
                <path d="M16.5 44.25H27v-1.5H16.5v-4.5H21V31.5H10.5v6.75H15v4.5H3.75v6H0v6h9v-6H5.25v-4.5H15v4.5h-3.75v6h9v-6H16.5v-4.5z" class="st2"/>
              </g>
            </g>
            <g id="shape152-15" v:mID="152" v:groupContext="shape" transform="translate(26.25 -5.25)">
              <path class="st2" d="M0 48h1.5v6.75H0z"/>
            </g>
          </g>
        </g>
        <g id="group153-17" transform="translate(30.975)" v:mID="153" v:groupContext="group">
          <g id="shape154-18" v:mID="154" v:groupContext="shape">
            <path d="M31.13 52.35c-.15-2.18-.68-6.6-1.13-8.7-.6-2.48-1.42-4.28-3.82-5.63-.3-.15-.6-.3-.83-.45-1.05-.6-1.87-1.05-2.62-1.27 1.05-1.58 1.65-3.45 1.65-5.55 0-5.18-3.9-9.45-8.7-9.45-4.8 0-8.71 4.2-8.7 9.45-.01 2.1.6 3.97 1.65 5.55-.75.15-1.5.6-2.78 1.27l-.75.45c-2.4 1.35-3.22 3.15-3.82 5.63-.45 2.1-.98 6.52-1.13 8.7L0 54.75h31.28l-.15-2.4z" class="st1"/>
          </g>
          <g id="shape155-20" v:mID="155" v:groupContext="shape" transform="translate(2.55 -2.25)">
            <path d="M25.28 46.42c-.53-2.17-1.13-3.22-2.7-4.12-1.66-.9-2.55-1.5-3.15-1.5-.3 0-.45.07-.68.15-.37.37-.82.67-1.27.97-.08.08-.15.08-.23.15-.45.3-.9.45-1.42.6-.83.3-1.73.45-2.7.45-.98 0-1.88-.15-2.7-.45-.45-.15-.9-.37-1.35-.6-.53-.3-1.06-.67-1.5-1.12-.15-.08-.38-.15-.68-.15-.6 0-1.27.45-3.15 1.5-1.65.9-2.25 1.95-2.7 4.12C.6 48.3.08 52.65 0 54.75h26.48c-.3-2.1-.83-6.38-1.2-8.33z" class="st3"/>
          </g>
          <g id="shape156-22" v:mID="156" v:groupContext="shape" transform="translate(9.15 -16.725)">
            <path d="M6.45 54.75c-3.6 0-6.45-3.23-6.45-7.2 0-3.98 2.93-7.2 6.45-7.2 3.6 0 6.45 3.22 6.45 7.2.08 3.97-2.85 7.2-6.45 7.2z" class="st3"/>
          </g>
        </g>
      </g>
    </g>
  </g>
</svg>
