<svg xmlns="http://www.w3.org/2000/svg" xmlns:v="http://schemas.microsoft.com/visio/2003/SVGExtensions/" width="87.038" height="72.966" viewBox="0 0 65.278 54.724" color-interpolation-filters="sRGB" fill="none" fill-rule="evenodd" font-size="12" overflow="visible" stroke-linecap="square" stroke-miterlimit="3">
  <v:documentProperties v:langID="4108" v:metric="true" v:viewMarkup="false"/>
  <style>
    .st1,.st3{fill:#fff;stroke:none;stroke-linecap:butt;stroke-width:.75}.st3{fill:#dc5b26}
  </style>
  <g v:mID="0" v:index="1" v:groupContext="foregroundPage">
    <v:pageProperties v:drawingScale=".039" v:pageScale=".039" v:drawingUnits="24" v:shadowOffsetX="8.504" v:shadowOffsetY="-8.504"/>
    <g id="group340-1" transform="translate(.628 -.724)" v:mID="340" v:groupContext="group">
      <g id="group341-2" v:mID="341" v:groupContext="group">
        <g id="group342-3" v:mID="342" v:groupContext="group">
          <g id="shape343-4" v:mID="343" v:groupContext="shape">
            <path d="M37.43 52.62c-1.43.23-2.78-.45-3.53-1.65l-1.95-3.15h-.07c-.08 0-.75.23-1.8.38-1.05.22-1.8.22-1.88.22h-.07l-.83 3.6c-.3 1.35-1.43 2.4-2.85 2.63-.45.07-.9.07-1.35-.08l-4.87-1.12c-.91-.23-1.66-.75-2.18-1.58-.53-.82-.68-1.72-.45-2.62l.83-3.68-.15-.07-2.7-1.95c-.01 0-.16-.08-.15-.15l-3.15 2.02c-.38.23-.83.38-1.28.45-1.43.23-2.85-.37-3.6-1.57l-2.62-4.28c-.53-.82-.68-1.72-.45-2.62.22-.9.82-1.73 1.57-2.18l3.15-1.95c0-.07-.08-.22-.07-.22l-.53-3.3v-.23l-3.67-.82c-.91-.23-1.66-.75-2.18-1.58-.45-.82-.6-1.8-.37-2.7l1.12-4.87c.3-1.35 1.43-2.4 2.85-2.63.45-.07.9-.07 1.35.08l3.67.82.08-.15 1.95-2.7s.07-.15.15-.15l-1.95-3.15c-.53-.82-.68-1.72-.45-2.62.22-.9.75-1.65 1.57-2.18l4.28-2.62c.37-.23.82-.38 1.28-.45 1.42-.23 2.77.37 3.52 1.65L21.6 8.6h.08c.07 0 .74-.23 1.8-.38 1.04-.15 1.79-.22 1.87-.22h.08l.82-3.6c.3-1.35 1.43-2.4 2.85-2.63.45-.07.9-.07 1.35.08l4.88 1.12c.9.23 1.65.75 2.17 1.58.53.82.68 1.72.45 2.62l-.82 3.68c.07 0 .15.07.15.07l2.7 1.95s.15.08.15.15l3.15-1.95c.37-.22.82-.37 1.27-.45 1.43-.22 2.78.38 3.53 1.65l2.62 4.28c.53.82.68 1.72.45 2.62-.22.9-.75 1.65-1.57 2.18l-3.15 1.95c0 .07.07.22.07.22l.53 3.3v.23l3.67.82c1.88.45 3.08 2.33 2.63 4.2l-1.13 4.88c-.3 1.35-1.42 2.4-2.85 2.62-.45.08-.9.08-1.35-.07l-3.67-.83c0 .08-.08.15-.08.15l-1.95 2.7s-.07.15-.15.15l1.95 3.15c.53.83.68 1.73.45 2.63-.22.9-.75 1.65-1.57 2.17l-4.28 2.63c-.37.07-.82.3-1.27.37zm-12.3-34.65c-5.63.9-9.38 6.23-8.48 11.78.9 5.62 6.22 9.37 11.78 8.47 5.62-.9 9.37-6.22 8.47-11.77-.9-5.55-6.15-9.38-11.77-8.48z" class="st1"/>
          </g>
          <g id="shape344-6" v:mID="344" v:groupContext="shape" transform="translate(2.25 -2.1)">
            <path d="M47.93 31.85l-4.05-.98c-.68-.15-1.2-.37-1.2-.52 0-.15-.08-.83-.08-1.5l-.52-3.08c-.15-.67-.31-1.35-.38-1.42-.07-.15.37-.53.98-.9l3.52-2.18c.6-.37.75-1.12.38-1.72l-2.63-4.28c-.37-.6-1.12-.75-1.72-.37l-3.53 2.17c-.6.38-1.12.6-1.27.45-.08-.07-.61-.52-1.13-.97l-2.55-1.88c-.6-.37-1.2-.67-1.27-.75-.15-.07-.08-.67.07-1.35l.98-4.05c.15-.67-.23-1.35-.9-1.5L27.75 5.9c-.67-.15-1.35.22-1.5.9l-.97 4.05c-.15.67-.38 1.2-.53 1.2-.15 0-.82 0-1.5.07 0 0-.68 0-1.57.15-.9.15-1.5.3-1.5.3-.68.23-1.28.38-1.43.45-.15.08-.53-.37-.9-.97l-2.32-3.53c-.38-.6-1.13-.75-1.73-.37l-4.27 2.62c-.61.38-.75 1.13-.38 1.73l2.18 3.52c.37.6.6 1.13.45 1.28-.08.07-.53.6-.98 1.12l-1.87 2.55c-.38.6-.68 1.2-.75 1.28-.08.15-.68.07-1.35-.08l-3.98-.9c-.67-.15-1.35.23-1.5.9l-1.2 4.88c-.15.67.23 1.35.9 1.5l4.13.97c.67.15 1.19.38 1.2.53-.01.15.07.82.07 1.5l.53 3.15c.14.67.3 1.35.37 1.42.07.15-.37.53-.97.9L2.85 39.2c-.6.37-.75 1.12-.37 1.72L5.1 45.2c.37.6 1.13.75 1.73.37l3.52-2.17c.6-.38 1.13-.6 1.28-.45.07.07.6.52 1.12.97l2.55 1.88c.6.37 1.2.67 1.28.75.14.07.07.67-.08 1.35l-.97 4.05c-.16.67.22 1.35.9 1.5l4.87 1.12c.67.15 1.35-.22 1.5-.9l.98-4.05c.15-.67.37-1.2.52-1.2.15 0 .83 0 1.5-.07 0 0 .68 0 1.58-.15s1.5-.3 1.5-.3c.67-.23 1.27-.38 1.42-.45.15-.08.53.37.9.97l2.18 3.53c.37.6 1.12.75 1.72.37l4.28-2.62c.6-.38.75-1.13.37-1.73l-2.17-3.52c-.38-.6-.6-1.13-.45-1.28.07-.07.52-.6.97-1.12l1.88-2.55c.37-.6.67-1.2.75-1.28.07-.15.67-.07 1.35.08l4.05.97c.67.15 1.35-.22 1.5-.9l1.12-4.87c.3-.83-.15-1.5-.82-1.65zM26.55 42.57c-6.83 1.13-13.28-3.52-14.4-10.35-1.13-6.82 3.53-13.27 10.35-14.4 6.83-1.12 13.28 3.53 14.4 10.35 1.13 6.83-3.53 13.28-10.35 14.4z" fill="#535352" stroke-linecap="butt" stroke-width=".75"/>
          </g>
        </g>
        <g id="group345-8" transform="translate(34.65 -24.75)" v:mID="345" v:groupContext="group">
          <g id="shape346-9" v:mID="346" v:groupContext="shape">
            <path d="M25.5 28.47h-6.75v-2.25h-2.4L0 28.77V52.1l16.35 2.62h2.4v-2.25h6.75c2.1 0 3.75-1.65 3.75-3.75v-16.5c0-2.1-1.65-3.75-3.75-3.75z" class="st1"/>
          </g>
          <g id="group347-11" transform="translate(11.25 -4.5)" v:mID="347" v:groupContext="group">
            <g id="shape348-12" v:mID="348" v:groupContext="shape">
              <path d="M14.25 36.35c.23 0 .38.15.38.37v16.5c0 .23-.15.38-.38.38H1.5c-.22 0-.38-.15-.37-.38v-16.5c-.01-.22.15-.37.37-.37h12.75zm0-1.13H1.5c-.82 0-1.5.68-1.5 1.5v16.5c0 .83.68 1.5 1.5 1.5h12.75c.83 0 1.5-.67 1.5-1.5v-16.5c0-.82-.67-1.5-1.5-1.5z" class="st3"/>
            </g>
            <g id="group349-14" transform="translate(2.25 -6.75)" v:mID="349" v:groupContext="group">
              <g id="shape350-15" v:mID="350" v:groupContext="shape">
                <path d="M4.5 45.72c-2.48 0-4.5 2.03-4.5 4.5 0 2.48 2.03 4.5 4.5 4.5S9 52.7 9 50.22H4.5v-4.5z" class="st3"/>
              </g>
              <g id="shape351-17" v:mID="351" v:groupContext="shape" transform="translate(5.25 -5.25)">
                <path d="M0 54.72h4.5c0-2.47-2.02-4.5-4.5-4.5v4.5z" class="st3"/>
              </g>
            </g>
            <g id="shape352-19" v:mID="352" v:groupContext="shape" transform="translate(3 -3.375)">
              <path class="st3" d="M0 53.599h9v1.125H0z"/>
            </g>
          </g>
          <g id="shape353-21" v:mID="353" v:groupContext="shape" transform="translate(2.25 -2.25)">
            <path d="M14.25 30.72L0 32.97v19.5l14.25 2.25v-24z" class="st3"/>
          </g>
          <g id="shape354-23" v:mID="354" v:groupContext="shape" transform="translate(7.05 -9.3)">
            <path d="M1.8 49.47v-1.5V47c0-.23-.08-.3.15-.38.37-.07.75-.15 1.12 0 .6.23.68.9.68 1.5s-.23 1.2-.9 1.35c-.3.15-.68.08-1.05 0zm.9-4.57c-.83.07-1.65.07-2.55.15-.15 0-.15 0-.15.22v9.15c0 .15.3.15.45.15.45.08.9.08 1.27.15 0-1.12.01-2.32 0-3.45.68.08 1.35.08 1.95-.15.98-.37 1.58-1.27 1.8-2.25.15-.9.08-2.1-.45-2.85-.45-1.05-1.42-1.12-2.32-1.12z" class="st1"/>
          </g>
        </g>
      </g>
    </g>
  </g>
</svg>
