<svg xmlns="http://www.w3.org/2000/svg" xmlns:v="http://schemas.microsoft.com/visio/2003/SVGExtensions/" width="84" height="72" viewBox="0 0 63 54" color-interpolation-filters="sRGB" fill="none" fill-rule="evenodd" font-size="12" overflow="visible" stroke-linecap="square" stroke-miterlimit="3">
  <v:documentProperties v:langID="4108" v:metric="true" v:viewMarkup="false"/>
  <style>
    .st1,.st2{fill:#fff;stroke:none;stroke-linecap:butt;stroke-width:.75}.st2{fill:#515150}
  </style>
  <g v:mID="0" v:index="1" v:groupContext="foregroundPage">
    <v:pageProperties v:drawingScale=".039" v:pageScale=".039" v:drawingUnits="24" v:shadowOffsetX="8.504" v:shadowOffsetY="-8.504"/>
    <g id="group278-1" transform="translate(.75 -.75)" v:mID="278" v:groupContext="group">
      <g id="group279-2" v:mID="279" v:groupContext="group">
        <g id="group280-3" transform="translate(0 -7.5)" v:mID="280" v:groupContext="group">
          <g id="group281-4" v:mID="281" v:groupContext="group">
            <g id="shape282-5" v:mID="282" v:groupContext="shape">
              <path d="M5.25 54C2.32 54 0 51.68 0 48.75v-34.5C0 11.33 2.32 9 5.25 9h45c2.92 0 5.25 2.33 5.25 5.25v34.5c0 2.93-2.33 5.25-5.25 5.25h-45z" class="st1"/>
            </g>
            <g id="shape283-7" v:mID="283" v:groupContext="shape" transform="translate(2.25 -2.25)">
              <path d="M48 13.5H3c-1.65 0-3 1.35-3 3V51c0 1.65 1.35 3 3 3h45c1.65 0 3-1.35 3-3V16.5c0-1.65-1.35-3-3-3zm-6 2.25h2.25V18H42v-2.25zm-4.5 0h2.25V18H37.5v-2.25zM48.75 51c0 .45-.3.75-.75.75H3c-.45 0-.75-.3-.75-.75V21h46.5v30zm0-33H46.5v-2.25h2.25V18z" class="st2"/>
            </g>
          </g>
          <g id="group284-9" transform="translate(12 -8.25)" v:mID="284" v:groupContext="group">
            <g id="group285-10" v:mID="285" v:groupContext="group">
              <g id="shape286-11" v:mID="286" v:groupContext="shape" transform="translate(10.5 -16.5)">
                <path class="st2" d="M0 47.25h10.5V54H0z"/>
              </g>
              <g id="shape287-13" v:mID="287" v:groupContext="shape" transform="translate(11.25)">
                <path class="st2" d="M0 48h9v6H0z"/>
              </g>
              <g id="shape288-15" v:mID="288" v:groupContext="shape" transform="translate(22.5)">
                <path class="st2" d="M0 48h9v6H0z"/>
              </g>
              <g id="shape289-17" v:mID="289" v:groupContext="shape">
                <path class="st2" d="M0 48h9v6H0z"/>
              </g>
              <g id="shape290-19" v:mID="290" v:groupContext="shape" transform="translate(15 -6)">
                <path class="st2" d="M0 42.75h1.5V54H0z"/>
              </g>
              <g id="shape291-21" v:mID="291" v:groupContext="shape" transform="translate(4.5 -10.5)">
                <path class="st2" d="M0 52.5h22.5V54H0z"/>
              </g>
            </g>
            <g id="shape292-23" v:mID="292" v:groupContext="shape" transform="translate(3.75 -5.25)">
              <path class="st2" d="M0 47.25h1.5V54H0z"/>
            </g>
            <g id="shape293-25" v:mID="293" v:groupContext="shape" transform="translate(26.25 -5.25)">
              <path class="st2" d="M0 47.25h1.5V54H0z"/>
            </g>
          </g>
        </g>
        <g id="group294-27" transform="translate(29.25)" v:mID="294" v:groupContext="group">
          <g id="shape295-28" v:mID="295" v:groupContext="shape">
            <path d="M32.25 44.25v-6.9L24 29.1l-.82.83-.08-.08c-2.55-2.25-5.85-3.52-9.22-3.52C6.22 26.25 0 32.48 0 40.13S6.22 54 13.88 54c6.75 0 12.44-4.87 13.65-11.32l1.57 1.57h3.15z" class="st1"/>
          </g>
          <g id="shape296-30" v:mID="296" v:groupContext="shape" transform="translate(2.25 -2.25)">
            <path d="M21.75 34.5l-6 6v3.75l4.5-4.5v2.63c0 4.72-3.9 8.62-8.62 8.62C6.9 51 3 47.1 3 42.38c0-4.73 3.9-8.63 8.63-8.63 2.17 0 4.12.83 5.62 2.1l2.1-2.1c-2.03-1.8-4.72-2.92-7.72-2.92C5.18 30.75 0 35.93 0 42.38 0 48.83 5.18 54 11.63 54c6.37 0 11.55-5.17 11.62-11.55v-2.7l4.5 4.5V40.5l-6-6z" class="st2"/>
          </g>
        </g>
      </g>
    </g>
  </g>
</svg>
