<svg xmlns="http://www.w3.org/2000/svg" xmlns:v="http://schemas.microsoft.com/visio/2003/SVGExtensions/" width="87" height="73" viewBox="0 0 65.25 54.75" color-interpolation-filters="sRGB" fill="none" fill-rule="evenodd" font-size="12" overflow="visible" stroke-linecap="square" stroke-miterlimit="3">
  <v:documentProperties v:langID="4108" v:metric="true" v:viewMarkup="false"/>
  <style>
    .st1,.st2,.st3{fill:#fff;stroke:none;stroke-linecap:butt;stroke-width:.75}.st2,.st3{fill:#515150}.st3{fill:#535352}
  </style>
  <g v:mID="0" v:index="1" v:groupContext="foregroundPage">
    <v:pageProperties v:drawingScale=".039" v:pageScale=".039" v:drawingUnits="24" v:shadowOffsetX="8.504" v:shadowOffsetY="-8.504"/>
    <g id="group173-1" transform="translate(.75 -.75)" v:mID="173" v:groupContext="group">
      <g id="group174-2" transform="translate(0 -8.25)" v:mID="174" v:groupContext="group">
        <g id="group175-3" v:mID="175" v:groupContext="group">
          <g id="shape176-4" v:mID="176" v:groupContext="shape">
            <path d="M5.25 54.75C2.33 54.75 0 52.42 0 49.5V15c0-2.92 2.33-5.25 5.25-5.25h45c2.93 0 5.25 2.33 5.25 5.25v34.5c0 2.92-2.32 5.25-5.25 5.25h-45z" class="st1"/>
          </g>
          <g id="shape177-6" v:mID="177" v:groupContext="shape" transform="translate(2.25 -2.25)">
            <path d="M48 14.25H3c-1.65 0-3 1.35-3 3v34.5c0 1.65 1.35 3 3 3h45c1.65 0 3-1.35 3-3v-34.5c0-1.65-1.35-3-3-3zm-6 2.25h2.25v2.25H42V16.5zm-4.5 0h2.25v2.25H37.5V16.5zm11.25 35.25c0 .45-.3.75-.75.75H3c-.45 0-.75-.3-.75-.75v-30h46.5v30zm0-33H46.5V16.5h2.25v2.25z" class="st2"/>
          </g>
        </g>
        <g id="shape178-8" v:mID="178" v:groupContext="shape" transform="translate(12 -8.25)">
          <path d="M27 42.75H16.5v-4.5H21V31.5H10.5v6.75H15v4.5H3.75v6H0v6h9v-6H5.25v-4.5H15v4.5h-3.75v6h9v-6H16.5v-4.5h9.75v5.25h1.5v-6.75H27z" class="st2"/>
        </g>
      </g>
      <g id="shape179-10" v:mID="179" v:groupContext="shape" transform="translate(24.75)">
        <path d="M24 49.95h15v-3.9c-.15-1.65-.45-3.83-.75-4.95-.45-1.95-1.13-3.45-3.08-4.5l-.6-.38c-.52-.29-.97-.52-1.42-.75.6-1.12.97-2.39.97-3.75 0-4.19-3.15-7.57-7.05-7.57s-7.05 3.38-7.05 7.57c0 1.36.38 2.63.98 3.75-.45.15-.9.46-1.43.75l-.3.15c0-4.12-3.15-7.5-7.05-7.5-3.89 0-7.04 3.38-7.05 7.58.01 1.35.38 2.63.98 3.75-.45.15-.9.45-1.43.75l-.52.3c-1.95 1.12-2.63 2.62-3.08 4.5-.37 1.57-.75 4.87-.82 6.52L0 54.75h24.37l-.15-2.4c.01-.6-.07-1.43-.22-2.4z" class="st1"/>
      </g>
      <g id="group180-12" transform="translate(27 -2.25)" v:mID="180" v:groupContext="group">
        <g id="shape181-13" v:mID="181" v:groupContext="shape" transform="translate(20.025 -15.525)">
          <path d="M4.8 54.75c-2.62 0-4.8-2.4-4.8-5.33 0-2.92 2.18-5.32 4.8-5.32 2.63 0 4.8 2.4 4.8 5.32 0 2.93-2.17 5.33-4.8 5.33z" class="st3"/>
        </g>
        <g id="shape182-15" v:mID="182" v:groupContext="shape" transform="translate(15.75 -4.65)">
          <path d="M1.2 48.67c.23.08.38.23.6.38 1.73.97 2.25 2.17 2.7 3.97.08.45.23 1.05.3 1.73h14.1c-.07-1.58-.45-4.73-.82-6.15-.38-1.58-.83-2.4-2.03-3.08-1.2-.67-1.87-1.12-2.32-1.12-.23 0-.38.07-.53.15-.3.3-.6.52-.97.75-.08 0-.15.07-.15.07-.38.23-.68.38-1.05.45-.6.23-1.28.38-2.03.38-.67 0-1.35-.15-2.02-.38-.38-.07-.68-.22-1.05-.45-.38-.22-.75-.52-1.13-.82-.15-.08-.3-.15-.52-.15-.45 0-.9.3-2.33 1.12-1.12.6-1.57 1.35-1.95 2.7.53 0 .83.15 1.2.45z" class="st3"/>
        </g>
        <g id="shape183-17" v:mID="183" v:groupContext="shape">
          <path d="M18.98 48.6c-.38-1.58-.83-2.4-2.03-3.08-1.2-.67-1.87-1.12-2.32-1.12-.23 0-.38.07-.53.15-.3.3-.6.52-.97.75-.08 0-.15.07-.15.07-.38.23-.68.38-1.05.45-.6.23-1.28.38-2.03.38-.67 0-1.35-.15-2.02-.38-.38-.07-.68-.22-1.05-.45-.38-.22-.75-.52-1.13-.82-.15-.08-.3-.15-.52-.15-.45 0-.9.3-2.33 1.12-1.2.68-1.65 1.43-2.02 3.08-.31 1.42-.68 4.65-.83 6.15h19.58c.07-1.58-.3-4.73-.6-6.15z" class="st3"/>
        </g>
        <g id="shape184-19" v:mID="184" v:groupContext="shape" transform="translate(5.175 -10.725)">
          <path d="M4.8 54.75c-2.62 0-4.8-2.4-4.8-5.33 0-2.92 2.18-5.32 4.8-5.32 2.63 0 4.8 2.4 4.8 5.32-.07 2.93-2.17 5.33-4.8 5.33z" class="st3"/>
        </g>
      </g>
    </g>
  </g>
</svg>
