<svg xmlns="http://www.w3.org/2000/svg" xmlns:v="http://schemas.microsoft.com/visio/2003/SVGExtensions/" width="83" height="75" viewBox="0 0 62.25 56.25" color-interpolation-filters="sRGB" fill="none" fill-rule="evenodd" font-size="12" overflow="visible" stroke-linecap="square" stroke-miterlimit="3">
  <v:documentProperties v:langID="4108" v:metric="true" v:viewMarkup="false"/>
  <style>
    .st1,.st2{fill:#fff;stroke:none;stroke-linecap:butt;stroke-width:.75}.st2{fill:#515150}
  </style>
  <g v:mID="0" v:index="1" v:groupContext="foregroundPage">
    <v:pageProperties v:drawingScale=".039" v:pageScale=".039" v:drawingUnits="24" v:shadowOffsetX="8.504" v:shadowOffsetY="-8.504"/>
    <g id="group157-1" transform="translate(.75 -.75)" v:mID="157" v:groupContext="group">
      <g id="group158-2" v:mID="158" v:groupContext="group">
        <g id="group159-3" transform="translate(0 -9.75)" v:mID="159" v:groupContext="group">
          <g id="shape160-4" v:mID="160" v:groupContext="shape">
            <path d="M5.25 56.25C2.33 56.25 0 53.92 0 51V16.5c0-2.93 2.33-5.25 5.25-5.25h45c2.93 0 5.25 2.32 5.25 5.25V51c0 2.92-2.32 5.25-5.25 5.25h-45z" class="st1"/>
          </g>
          <g id="shape161-6" v:mID="161" v:groupContext="shape" transform="translate(2.25 -2.25)">
            <path d="M48 15.75H3c-1.65 0-3 1.35-3 3v34.5c0 1.65 1.35 3 3 3h45c1.65 0 3-1.35 3-3v-34.5c0-1.65-1.35-3-3-3zM42 18h2.25v2.25H42V18zm-4.5 0h2.25v2.25H37.5V18zm11.25 35.25c0 .45-.3.75-.75.75H3c-.45 0-.75-.3-.75-.75v-30h46.5v30zm0-33H46.5V18h2.25v2.25z" class="st2"/>
          </g>
        </g>
        <g id="group162-8" transform="translate(12 -18)" v:mID="162" v:groupContext="group">
          <g id="shape163-9" v:mID="163" v:groupContext="shape" transform="translate(22.5)">
            <path class="st2" d="M0 50.25h9v6H0z"/>
          </g>
          <g id="shape164-11" v:mID="164" v:groupContext="shape">
            <path d="M27 45.75v-1.5H16.5v-4.5H21V33H10.5v6.75H15v4.5H3.75v6H0v6h9v-6H5.25v-4.5H15v4.5h-3.75v6h9v-6H16.5v-4.5H27z" class="st2"/>
          </g>
          <g id="shape165-13" v:mID="165" v:groupContext="shape" transform="translate(26.25 -5.25)">
            <path class="st2" d="M0 49.5h1.5v6.75H0z"/>
          </g>
        </g>
        <g id="group166-15" transform="translate(28.5)" v:mID="166" v:groupContext="group">
          <g id="shape167-16" v:mID="167" v:groupContext="shape">
            <path d="M16.12 56.25C7.2 56.25 0 49.05 0 40.12 0 31.2 7.2 24 16.12 24c8.93 0 16.13 7.2 16.13 16.12 0 8.93-7.2 16.13-16.13 16.13z" class="st1"/>
          </g>
          <g id="shape168-18" v:mID="168" v:groupContext="shape" transform="translate(2.25 -2.25)">
            <path d="M13.87 28.5C6.22 28.5 0 34.72 0 42.37c0 7.66 6.22 13.88 13.87 13.88 7.65 0 13.88-6.22 13.88-13.88 0-7.65-6.23-13.87-13.88-13.87z" class="st2"/>
          </g>
          <g id="group169-20" transform="translate(5.25 -6.375)" v:mID="169" v:groupContext="group">
            <g id="shape170-21" v:mID="170" v:groupContext="shape" transform="translate(3.375 -13.125)">
              <path d="M9 54.75a2.71 2.71 0 0 0 3.82 0 2.722 2.722 0 0 0 0-3.83 2.71 2.71 0 0 0-3.82 0l-.08.08c-.37-.08-.75-.08-1.2-.08-3.37 0-6.22 1.88-7.72 4.65.67.08 1.27.3 1.8.68 1.2-2.03 3.37-3.38 5.85-3.38h.45c.07.68.37 1.35.9 1.88z" class="st1"/>
            </g>
            <g id="shape171-23" v:mID="171" v:groupContext="shape" transform="translate(0 -.975)">
              <path d="M10.2 54.22a6.849 6.849 0 0 1-5.55-4.57c.07-.08.15-.15.22-.23a2.71 2.71 0 0 0 0-3.82 2.71 2.71 0 0 0-3.82 0 2.71 2.71 0 0 0 0 3.82c.52.53 1.13.75 1.8.83a8.818 8.818 0 0 0 7.8 6c-.3-.68-.45-1.28-.45-2.03z" class="st1"/>
            </g>
            <g id="shape172-25" v:mID="172" v:groupContext="shape" transform="translate(11.325)">
              <path d="M8.55 46.5c0-1.95-.68-3.83-1.8-5.25-.23.52-.53.97-.9 1.35-.08.07-.23.22-.3.3a6.757 6.757 0 0 1 1.05 3.6c0 1.8-.75 3.45-1.88 4.72-1.05-.9-2.62-.82-3.67.15a2.722 2.722 0 0 0 0 3.83 2.71 2.71 0 0 0 3.82 0c.6-.6.9-1.5.75-2.25 1.8-1.58 2.93-3.9 2.93-6.45z" class="st1"/>
            </g>
          </g>
        </g>
      </g>
    </g>
  </g>
</svg>
