<svg xmlns="http://www.w3.org/2000/svg" xmlns:v="http://schemas.microsoft.com/visio/2003/SVGExtensions/" width="79" height="62" viewBox="0 0 59.25 46.5" color-interpolation-filters="sRGB" fill="none" fill-rule="evenodd" font-size="12" overflow="visible" stroke-linecap="square" stroke-miterlimit="3">
  <v:documentProperties v:langID="4108" v:metric="true" v:viewMarkup="false"/>
  <style>
    .st2{fill:#7fba42;stroke:none;stroke-linecap:butt;stroke-width:.75}
  </style>
  <g v:mID="0" v:index="1" v:groupContext="foregroundPage">
    <v:pageProperties v:drawingScale=".039" v:pageScale=".039" v:drawingUnits="24" v:shadowOffsetX="8.504" v:shadowOffsetY="-8.504"/>
    <g id="group19-1" transform="translate(.75 -.75)" v:mID="19" v:groupContext="group">
      <g id="group20-2" v:mID="20" v:groupContext="group">
        <g id="shape21-3" v:mID="21" v:groupContext="shape">
          <path d="M5.25 46.5C2.32 46.5 0 44.17 0 41.25V6.75C0 3.83 2.32 1.5 5.25 1.5H52.5c2.92 0 5.25 2.33 5.25 5.25v34.5c0 2.92-2.33 5.25-5.25 5.25H5.25z" fill="#fff" stroke-linecap="butt" stroke-width=".75"/>
        </g>
        <g id="group22-5" transform="translate(2.25 -2.25)" v:mID="22" v:groupContext="group">
          <g id="shape23-6" v:mID="23" v:groupContext="shape">
            <path d="M50.25 6H3C1.35 6 0 7.35 0 9v34.5c0 1.65 1.35 3 3 3h47.25c1.65 0 3-1.35 3-3V9c0-1.65-1.35-3-3-3zm-6 2.25h2.25v2.25h-2.25V8.25zm-4.5 0H42v2.25h-2.25V8.25zM2.25 43.5v-30h10.5v30.75H3c-.45 0-.75-.3-.75-.75zm48.75 0c0 .45-.3.75-.75.75H15V13.5h36v30zm0-33h-2.25V8.25H51v2.25z" class="st2"/>
          </g>
          <g id="shape24-8" v:mID="24" v:groupContext="shape" transform="translate(19.5 -6)">
            <path d="M3 34.5v6H0v6h7.5v-6h-3V36h8.25v4.5h-3v6h7.5v-6h-3V36h8.25v4.5h-3v6H27v-6h-3v-6h-9.75V30H18v-6.75H9V30h3.75v4.5H3z" class="st2"/>
          </g>
        </g>
      </g>
    </g>
  </g>
</svg>
