<svg xmlns="http://www.w3.org/2000/svg" xmlns:v="http://schemas.microsoft.com/visio/2003/SVGExtensions/" width="87" height="72.8" viewBox="0 0 65.25 54.6" color-interpolation-filters="sRGB" fill="none" fill-rule="evenodd" font-size="12" overflow="visible" stroke-linecap="square" stroke-miterlimit="3">
  <v:documentProperties v:langID="4108" v:metric="true" v:viewMarkup="false"/>
  <style>
    .st1,.st2{fill:#fff;stroke:none;stroke-linecap:butt;stroke-width:.75}.st2{fill:#515150}
  </style>
  <g v:mID="0" v:index="1" v:groupContext="foregroundPage">
    <v:pageProperties v:drawingScale=".039" v:pageScale=".039" v:drawingUnits="24" v:shadowOffsetX="8.504" v:shadowOffsetY="-8.504"/>
    <g id="group260-1" transform="translate(.75 -.75)" v:mID="260" v:groupContext="group">
      <g id="group261-2" transform="translate(0 -8.1)" v:mID="261" v:groupContext="group">
        <g id="group262-3" v:mID="262" v:groupContext="group">
          <g id="shape263-4" v:mID="263" v:groupContext="shape">
            <path d="M5.25 54.6C2.33 54.6 0 52.27 0 49.35v-34.5C0 11.92 2.33 9.6 5.25 9.6h45c2.93 0 5.25 2.32 5.25 5.25v34.5c0 2.92-2.32 5.25-5.25 5.25h-45z" class="st1"/>
          </g>
          <g id="shape264-6" v:mID="264" v:groupContext="shape" transform="translate(2.25 -2.25)">
            <path d="M48 14.1H3c-1.65 0-3 1.35-3 3v34.5c0 1.65 1.35 3 3 3h45c1.65 0 3-1.35 3-3V17.1c0-1.65-1.35-3-3-3zm-6 2.25h2.25v2.25H42v-2.25zm-4.5 0h2.25v2.25H37.5v-2.25zM48.75 51.6c0 .45-.3.75-.75.75H3c-.45 0-.75-.3-.75-.75v-30h46.5v30zm0-33H46.5v-2.25h2.25v2.25z" class="st2"/>
          </g>
        </g>
        <g id="group265-8" transform="translate(12 -8.25)" v:mID="265" v:groupContext="group">
          <g id="group266-9" v:mID="266" v:groupContext="group">
            <g id="shape267-10" v:mID="267" v:groupContext="shape" transform="translate(10.5 -16.5)">
              <path class="st2" d="M0 47.85h10.5v6.75H0z"/>
            </g>
            <g id="shape268-12" v:mID="268" v:groupContext="shape" transform="translate(11.25)">
              <path class="st2" d="M0 48.6h9v6H0z"/>
            </g>
            <g id="shape269-14" v:mID="269" v:groupContext="shape" transform="translate(22.5)">
              <path class="st2" d="M0 48.6h9v6H0z"/>
            </g>
            <g id="shape270-16" v:mID="270" v:groupContext="shape">
              <path class="st2" d="M0 48.6h9v6H0z"/>
            </g>
            <g id="shape271-18" v:mID="271" v:groupContext="shape" transform="translate(15 -6)">
              <path class="st2" d="M0 43.35h1.5V54.6H0z"/>
            </g>
            <g id="shape272-20" v:mID="272" v:groupContext="shape" transform="translate(4.5 -10.5)">
              <path class="st2" d="M0 53.1h22.5v1.5H0z"/>
            </g>
          </g>
          <g id="shape273-22" v:mID="273" v:groupContext="shape" transform="translate(3.75 -5.25)">
            <path class="st2" d="M0 47.85h1.5v6.75H0z"/>
          </g>
          <g id="shape274-24" v:mID="274" v:groupContext="shape" transform="translate(26.25 -5.25)">
            <path class="st2" d="M0 47.85h1.5v6.75H0z"/>
          </g>
        </g>
      </g>
      <g id="group275-26" transform="translate(42.75)" v:mID="275" v:groupContext="group">
        <g id="shape276-27" v:mID="276" v:groupContext="shape">
          <path d="M0 30.75v9h2.85L6 36.9v3.97c0 1.73-1.95 3.6-4.35 4.35L0 45.6v9l2.7-.53C9.68 52.8 15 47.1 15 40.8v-3.98l3.15 3.08H21v-9.15l-10.58-10.5L0 30.75z" class="st1"/>
        </g>
        <g id="shape277-29" v:mID="277" v:groupContext="shape" transform="translate(2.25 -2.55)">
          <path d="M0 34.27v5.63l6-5.78v9.3c0 2.85-2.63 5.55-6 6.53v4.65c5.85-1.13 10.5-5.85 10.5-11.1v-9.38l6 5.85v-5.62L8.17 26.1 0 34.27z" class="st2"/>
        </g>
      </g>
    </g>
  </g>
</svg>
