<svg xmlns="http://www.w3.org/2000/svg" xmlns:v="http://schemas.microsoft.com/visio/2003/SVGExtensions/" width="88.038" height="72.666" viewBox="0 0 66.028 54.499" color-interpolation-filters="sRGB" fill="none" fill-rule="evenodd" font-size="12" overflow="visible" stroke-linecap="square" stroke-miterlimit="3">
  <v:documentProperties v:langID="4108" v:metric="true" v:viewMarkup="false"/>
  <style>
    .st1,.st3{fill:#fff;stroke:none;stroke-linecap:butt;stroke-width:.75}.st3{fill:#2c3580}
  </style>
  <g v:mID="0" v:index="1" v:groupContext="foregroundPage">
    <v:pageProperties v:drawingScale=".039" v:pageScale=".039" v:drawingUnits="24" v:shadowOffsetX="8.504" v:shadowOffsetY="-8.504"/>
    <g id="group368-1" transform="translate(.628 -.724)" v:mID="368" v:groupContext="group">
      <g id="group369-2" v:mID="369" v:groupContext="group">
        <g id="group370-3" v:mID="370" v:groupContext="group">
          <g id="shape371-4" v:mID="371" v:groupContext="shape">
            <path d="M37.42 52.4c-1.42.22-2.77-.45-3.52-1.65l-1.95-3.15h-.08c-.07 0-.74.22-1.8.37-1.04.23-1.79.23-1.87.23h-.08l-.82 3.6c-.3 1.35-1.43 2.4-2.85 2.62-.45.08-.9.08-1.35-.07l-4.88-1.13c-.9-.22-1.65-.75-2.17-1.57-.53-.83-.68-1.73-.45-2.63l.82-3.67-.15-.08-2.7-1.95s-.15-.07-.15-.15l-3.15 2.03c-.37.22-.82.37-1.27.45-1.43.22-2.85-.38-3.6-1.58L2.77 39.8c-.52-.83-.67-1.73-.45-2.63.23-.9.83-1.72 1.58-2.17l3.15-1.95c0-.08-.08-.23-.08-.23l-.52-3.3v-.22l-3.68-.83c-.9-.22-1.65-.75-2.17-1.57-.45-.83-.6-1.8-.38-2.7l1.13-4.88c.3-1.35 1.43-2.4 2.85-2.62.45-.08.9-.08 1.35.07l3.67.83.08-.15 1.95-2.7s.07-.15.15-.15l-1.95-3.15c-.53-.83-.68-1.73-.45-2.63.22-.9.75-1.65 1.57-2.17l4.28-2.63c.37-.22.82-.37 1.27-.45 1.43-.22 2.78.38 3.53 1.65l1.95 3.15h.07c.08 0 .75-.22 1.8-.37s1.8-.23 1.88-.23h.07l.83-3.6c.3-1.35 1.43-2.4 2.85-2.62.45-.08.9-.08 1.35.07l4.87 1.13c.9.22 1.65.75 2.18 1.57.52.83.67 1.73.45 2.63l-.83 3.67c.08 0 .16.08.15.08l2.7 1.95s.15.07.15.15l3.15-1.95c.38-.23.83-.38 1.28-.45 1.42-.23 2.77.37 3.52 1.65l2.63 4.27c.52.83.67 1.73.45 2.63-.23.9-.75 1.65-1.58 2.17l-3.15 1.95c0 .08.08.23.08.23l.52 3.3v.22l3.68.83c1.87.45 3.07 2.32 2.62 4.2l-1.12 4.87c-.3 1.35-1.43 2.4-2.85 2.63-.45.07-.9.07-1.35-.08l-3.68-.82c0 .07-.07.15-.07.15l-1.95 2.7s-.08.15-.15.15l1.95 3.15c.52.82.67 1.72.45 2.62-.23.9-.75 1.65-1.58 2.18l-4.27 2.62c-.38.08-.83.3-1.28.38zm-12.3-34.65c-5.62.9-9.37 6.22-8.47 11.77.9 5.63 6.22 9.38 11.77 8.48 5.63-.9 9.38-6.23 8.48-11.78-.9-5.55-6.15-9.37-11.78-8.47z" class="st1"/>
          </g>
          <g id="shape372-6" v:mID="372" v:groupContext="shape" transform="translate(2.25 -2.1)">
            <path d="M47.92 31.62l-4.05-.97c-.67-.15-1.19-.38-1.2-.53.01-.15-.07-.82-.07-1.5l-.53-3.07c-.15-.68-.3-1.35-.37-1.43-.08-.15.37-.52.97-.9l3.53-2.17c.6-.38.75-1.13.37-1.73l-2.62-4.27c-.38-.6-1.13-.75-1.73-.38l-3.52 2.18c-.6.37-1.13.6-1.28.45-.07-.08-.6-.53-1.12-.98l-2.55-1.87c-.6-.38-1.2-.68-1.28-.75-.15-.08-.07-.68.08-1.35l.97-4.05c.16-.68-.22-1.35-.9-1.5l-4.87-1.13c-.68-.15-1.35.23-1.5.9l-.98 4.05c-.15.68-.37 1.2-.52 1.2-.15 0-.83 0-1.5.08 0 0-.68 0-1.58.15s-1.5.3-1.5.3c-.67.22-1.27.37-1.42.45-.15.07-.53-.38-.9-.98L15.52 8.3c-.37-.6-1.12-.75-1.72-.38l-4.28 2.63c-.6.37-.74 1.12-.37 1.72l2.17 3.53c.38.6.61 1.12.45 1.27-.07.08-.52.6-.97 1.13l-1.88 2.55c-.37.6-.67 1.2-.75 1.27-.07.15-.67.08-1.35-.07l-3.97-.9c-.68-.15-1.35.22-1.5.9l-1.2 4.87c-.15.68.22 1.35.9 1.5l4.12.98c.68.15 1.2.37 1.2.52 0 .15.08.83.08 1.5l.52 3.15c.15.68.31 1.35.38 1.43.07.15-.37.52-.98.9l-3.52 2.17c-.6.38-.75 1.13-.38 1.73l2.63 4.27c.37.6 1.13.75 1.72.38l3.53-2.18c.6-.37 1.12-.6 1.27-.45.08.08.61.53 1.13.98l2.55 1.87c.6.38 1.2.68 1.27.75.15.08.08.68-.07 1.35l-.98 4.05c-.15.68.23 1.35.9 1.5l4.88 1.13c.67.15 1.35-.23 1.5-.9l.97-4.05c.15-.68.38-1.2.53-1.2.15 0 .82 0 1.5-.08 0 0 .68 0 1.57-.15.9-.15 1.5-.3 1.5-.3.68-.22 1.28-.37 1.43-.45.15-.07.53.38.9.98l2.17 3.52c.38.6 1.13.75 1.73.38l4.27-2.63c.6-.37.75-1.12.38-1.72l-2.18-3.53c-.37-.6-.6-1.12-.45-1.27.08-.08.53-.6.98-1.13l1.87-2.55c.38-.6.68-1.2.75-1.27.08-.15.68-.08 1.35.07l4.05.98c.68.15 1.35-.23 1.5-.9l1.13-4.88c.3-.82-.15-1.5-.83-1.65zM26.55 42.35c-6.83 1.12-13.28-3.53-14.4-10.35-1.13-6.83 3.53-13.28 10.35-14.4 6.83-1.13 13.27 3.52 14.4 10.35 1.13 6.82-3.53 13.27-10.35 14.4z" fill="#535352" stroke-linecap="butt" stroke-width=".75"/>
          </g>
        </g>
        <g id="group373-8" transform="translate(34.65 -24.525)" v:mID="373" v:groupContext="group">
          <g id="shape374-9" v:mID="374" v:groupContext="shape">
            <path d="M26.25 28.25h-7.5V26h-2.77L0 28.55v23.32l16.65 2.63h2.1v-2.25h7.5c2.1 0 3.75-1.65 3.75-3.75V32c0-2.1-1.65-3.75-3.75-3.75z" class="st1"/>
          </g>
          <g id="group375-11" transform="translate(11.25 -4.5)" v:mID="375" v:groupContext="group">
            <g id="shape376-12" v:mID="376" v:groupContext="shape">
              <path d="M15 36.12c.23 0 .38.15.38.38V53c0 .22-.15.37-.38.37H1.5c-.22 0-.37-.15-.37-.37V36.5c0-.23.15-.38.37-.38H15zM15 35H1.5c-.82 0-1.5.67-1.5 1.5V53c0 .82.68 1.5 1.5 1.5H15c.83 0 1.5-.68 1.5-1.5V36.5c0-.83-.67-1.5-1.5-1.5z" class="st3"/>
            </g>
            <g id="group377-14" transform="translate(3 -3.375)" v:mID="377" v:groupContext="group">
              <g id="shape378-15" v:mID="378" v:groupContext="shape">
                <path class="st3" d="M0 53.374h10.5v1.125H0z"/>
              </g>
              <g id="shape379-17" v:mID="379" v:groupContext="shape" transform="translate(0 -3)">
                <path class="st3" d="M0 53.374h10.5v1.125H0z"/>
              </g>
              <g id="shape380-19" v:mID="380" v:groupContext="shape" transform="translate(0 -6)">
                <path class="st3" d="M0 53.374h10.5v1.125H0z"/>
              </g>
              <g id="shape381-21" v:mID="381" v:groupContext="shape" transform="translate(0 -9)">
                <path class="st3" d="M0 53.374h10.5v1.125H0z"/>
              </g>
              <g id="shape382-23" v:mID="382" v:groupContext="shape" transform="translate(0 -12)">
                <path class="st3" d="M0 53.374h10.5v1.125H0z"/>
              </g>
            </g>
          </g>
          <g id="shape383-25" v:mID="383" v:groupContext="shape" transform="translate(2.25 -2.325)">
            <path d="M14.25 30.5L0 32.75v19.5l14.25 2.25v-24z" class="st3"/>
          </g>
          <g id="shape384-27" v:mID="384" v:groupContext="shape" transform="translate(4.575 -10.425)">
            <path d="M8.63 46.4l-1.58.07-.9 5.33V51.8L5.1 46.55l-1.5.07-1.05 5.03c0 .07 0 .15-.07.22V51.72l-.83-4.87-1.65.07 1.43 7.28 1.5.07 1.05-4.8v-.15-.22-.23-.22.9l1.2 4.87 1.65.08 1.8-8.1z" class="st1"/>
          </g>
        </g>
      </g>
    </g>
  </g>
</svg>
