<?xml version="1.0" encoding="UTF-8" standalone="no"?>
<!DOCTYPE svg PUBLIC "-//W3C//DTD SVG 1.1//EN" "http://www.w3.org/Graphics/SVG/1.1/DTD/svg11.dtd">
<!-- Generated by Microsoft Visio, SVG Export 3rd Party Call Center Solution.svg Page-1 -->
<svg xmlns="http://www.w3.org/2000/svg" xmlns:xlink="http://www.w3.org/1999/xlink" xmlns:ev="http://www.w3.org/2001/xml-events"
		xmlns:v="http://schemas.microsoft.com/visio/2003/SVGExtensions/" width="0.854167in" height="0.875in" viewBox="0 0 61.5 63"
		xml:space="preserve" color-interpolation-filters="sRGB" class="st4">
	<v:documentProperties v:langID="4108" v:metric="true" v:viewMarkup="false"/>

	<style type="text/css">
	<![CDATA[
		.st1 {fill:#ffffff;stroke:none;stroke-linecap:butt;stroke-width:0.75}
		.st2 {fill:#515251;stroke:none;stroke-linecap:butt;stroke-width:0.75}
		.st3 {fill:#515050;stroke:none;stroke-linecap:butt;stroke-width:0.75}
		.st4 {fill:none;fill-rule:evenodd;font-size:12px;overflow:visible;stroke-linecap:square;stroke-miterlimit:3}
	]]>
	</style>

	<g v:mID="0" v:index="1" v:groupContext="foregroundPage">
		<title>Page-1</title>
		<v:pageProperties v:drawingScale="0.0393701" v:pageScale="0.0393701" v:drawingUnits="24" v:shadowOffsetX="8.50394"
				v:shadowOffsetY="-8.50394"/>
		<g id="group1-1" transform="translate(0.75,-0.75)" v:mID="1" v:groupContext="group">
			<title>3rd Party Call Center Solution</title>
			<g id="group2-2" v:mID="2" v:groupContext="group">
				<title>Sheet.2</title>
				<g id="group3-3" transform="translate(0,-9.675)" v:mID="3" v:groupContext="group">
					<title>Sheet.3</title>
					<g id="shape4-4" v:mID="4" v:groupContext="shape">
						<title>Sheet.4</title>
						<path d="M20.25 11.18 C7.8 11.18 0 19.65 0 33.3 L0 39.68 C0 40.88 0.6 42.15 1.65 42.9 L1.65 44.63 C1.65 57.75
									 8.03 60.98 12.82 61.5 C13.8 62.4 15.23 63 16.65 63 L23.93 63 C26.4 63 29.1 61.2 29.1 58.58 C29.1
									 56.18 26.7 54 23.93 54 L16.65 54 C15.3 54 13.95 54.53 13.05 55.35 C10.88 54.98 9 53.7 8.25 49.58
									 C9 49.88 9.75 50.1 10.5 50.1 C14.1 50.1 14.25 46.43 14.25 45.23 C14.25 45.08 14.25 44.63 14.25
									 44.63 L14.25 36.15 C14.25 34.8 14.25 33.08 13.05 31.88 C12.6 31.43 11.77 30.83 10.43 30.83 C9.53
									 30.83 8.7 30.98 7.8 31.2 C8.33 22.95 12.38 18.98 20.25 18.98 C28.12 18.98 32.17 23.03 32.7 31.28
									 C31.88 30.98 30.98 30.83 30.08 30.83 C28.42 30.83 27.08 31.8 26.55 33.38 C26.25 34.28 26.25
									 35.33 26.25 36.3 L26.25 44.55 L26.25 45.08 C26.32 46.28 26.4 50.1 30.08 50.1 C33.3 50.1 36.9
									 46.88 38.25 43.2 C38.7 42.98 39.07 42.68 39.37 42.45 C40.5 41.33 40.5 39.83 40.5 39.6 L40.5
									 33.38 C40.5 19.65 32.78 11.18 20.25 11.18 Z" class="st1"/>
					</g>
					<g id="shape5-6" v:mID="5" v:groupContext="shape" transform="translate(3.9,-3.675)">
						<title>Sheet.5</title>
						<path d="M10.65 63 C3.6 63 0 58.05 0 48.23 L0 43.35 L1.65 43.35 L1.65 48.3 C1.65 57.23 4.5 61.43 10.65 61.43
									 L10.65 63 Z" class="st2"/>
					</g>
					<g id="shape6-8" v:mID="6" v:groupContext="shape" transform="translate(13.725,-2.325)">
						<title>Sheet.6</title>
						<path d="M10.2 63 C11.62 63 13.12 62.03 13.12 60.83 C13.12 59.63 11.7 58.5 10.2 58.5 L2.92 58.5 C1.5 58.5
									 0 59.55 0 60.83 C0 62.03 1.43 63 2.92 63 L10.2 63 Z" class="st2"/>
					</g>
					<g id="shape7-10" v:mID="7" v:groupContext="shape" transform="translate(3.9,-15.225)">
						<title>Sheet.7</title>
						<path d="M8.1 51.6 C8.1 49.95 8.17 48.3 6.52 48.3 C3.22 48.3 0 50.48 0 54.83 C0 58.28 3.75 63 6.52 63 C8.17
									 63 8.02 61.35 8.1 59.7 L8.1 51.6 Z" class="st2"/>
					</g>
					<g id="shape8-12" v:mID="8" v:groupContext="shape" transform="translate(28.425,-15.225)">
						<title>Sheet.8</title>
						<path d="M0.08 51.6 C0.08 49.95 0.08 48.3 1.65 48.3 C4.95 48.3 8.17 51 8.17 55.35 C8.17 58.8 4.43 63 1.65
									 63 C-0 63 0.15 61.35 0.07 59.7 L0.07 51.6 Z" class="st2"/>
					</g>
					<g id="shape9-14" v:mID="9" v:groupContext="shape" transform="translate(2.25,-21.675)">
						<title>Sheet.9</title>
						<path d="M36 61.2 C36 61.2 36 55.28 36 54.98 C36 43.2 29.85 35.1 18 35.1 C6.22 35.1 0 43.2 0 54.98 C0 55.35
									 0 61.35 0 61.35 C0 61.35 -0 63 1.65 63 C2.48 63 3.67 60 3.3 59.7 L3.3 58.05 L3.3 54.75 C3.3
									 43.73 8.7 38.4 18 38.4 C27.3 38.4 32.78 43.73 32.77 54.75 L32.77 58.05 L32.77 59.7 C32.4 60
									 33.52 63 34.43 63 C36.07 62.93 36 61.2 36 61.2 Z" class="st2"/>
					</g>
				</g>
				<g id="group10-16" transform="translate(30,2.13163E-14)" v:mID="10" v:groupContext="group">
					<title>Sheet.10</title>
					<g id="group11-17" v:mID="11" v:groupContext="group">
						<title>Sheet.11</title>
						<g id="shape12-18" v:mID="12" v:groupContext="shape">
							<title>Sheet.12</title>
							<path d="M4.5 63 C2.02 63 0 60.98 0 58.5 L0 37.5 C0 35.03 2.02 33 4.5 33 L25.5 33 C27.97 33 30 35.03
										 30 37.5 L30 58.5 C30 60.98 27.97 63 25.5 63 L4.5 63 Z" class="st1"/>
						</g>
						<g id="shape13-20" v:mID="13" v:groupContext="shape" transform="translate(2.25,-2.25)">
							<title>Sheet.13</title>
							<path d="M25.5 60.75 C25.5 62.03 24.52 63 23.25 63 L2.25 63 C0.97 63 0 62.03 0 60.75 L0 39.75 C0 38.48
										 0.97 37.5 2.25 37.5 L23.25 37.5 C24.52 37.5 25.5 38.48 25.5 39.75 L25.5 60.75 Z"
									class="st3"/>
						</g>
					</g>
					<g id="group14-22" transform="translate(7.65,-8.25)" v:mID="14" v:groupContext="group">
						<title>Sheet.14</title>
						<g id="shape15-23" v:mID="15" v:groupContext="shape">
							<title>Sheet.15</title>
							<path d="M6.67 61.95 C5.85 62.63 4.65 63 3.15 63 C1.87 63 0.82 62.78 0 62.4 L0 60 C0.82 60.6 1.8 60.9
										 2.92 60.9 C3.6 60.9 4.2 60.75 4.57 60.45 C4.95 60.15 5.17 59.7 5.17 59.18 C5.17 58.58 4.95
										 58.2 4.42 57.9 C3.9 57.6 3.3 57.45 2.4 57.45 L1.2 57.45 L1.2 55.35 L2.25 55.35 C3.9 55.35
										 4.72 54.83 4.72 53.7 C4.72 52.65 4.12 52.13 2.85 52.13 C2.02 52.13 1.2 52.43 0.37 52.95
										 L0.37 50.7 C1.28 50.25 2.32 50.03 3.45 50.03 C4.72 50.03 5.77 50.33 6.45 50.93 C7.12 51.53
										 7.5 52.28 7.5 53.18 C7.5 54.83 6.67 55.88 5.02 56.25 C5.92 56.33 6.6 56.7 7.12 57.23 C7.65
										 57.75 7.87 58.43 7.87 59.18 C7.95 60.38 7.57 61.28 6.67 61.95 Z" class="st1"/>
						</g>
						<g id="group16-25" transform="translate(9.375,-7.2)" v:mID="16" v:groupContext="group">
							<title>Sheet.16</title>
							<g id="shape17-26" v:mID="17" v:groupContext="shape">
								<title>Sheet.17</title>
								<path d="M1.95 60.3 C1.87 60.23 1.72 60.23 1.57 60.23 C1.35 60.23 1.12 60.3 0.97 60.53 C0.82 60.75
											 0.75 60.98 0.75 61.35 L0.75 63 L0 63 L0 59.63 L0.75 59.63 L0.75 60.3 C0.82 60.08 0.97
											 59.85 1.12 59.78 C1.27 59.63 1.42 59.55 1.65 59.55 C1.8 59.55 1.87 59.55 1.95 59.63
											 L1.95 60.3 Z" class="st1"/>
							</g>
							<g id="shape18-28" v:mID="18" v:groupContext="shape" transform="translate(2.25,0)">
								<title>Sheet.18</title>
								<path d="M3.22 62.93 L2.47 62.93 L2.47 62.33 C2.25 62.78 1.87 63 1.35 63 C0.9 63 0.6 62.85 0.37 62.55
											 C0.15 62.25 0 61.8 0 61.35 C0 60.83 0.15 60.38 0.45 60 C0.75 59.7 1.12 59.48 1.57 59.48
											 C2.02 59.48 2.32 59.63 2.55 60 L2.55 57.9 L3.3 57.9 L3.3 62.93 L3.22 62.93 ZM2.47 61.43
											 L2.47 60.98 C2.47 60.75 2.4 60.53 2.25 60.38 C2.1 60.23 1.87 60.15 1.65 60.15 C1.35
											 60.15 1.12 60.23 0.97 60.45 C0.82 60.68 0.75 60.98 0.75 61.35 C0.75 61.73 0.82 61.95
											 0.97 62.18 C1.12 62.4 1.35 62.48 1.57 62.48 C1.8 62.48 2.02 62.4 2.17 62.18 C2.32 61.95
											 2.47 61.73 2.47 61.43 Z" class="st1"/>
							</g>
						</g>
					</g>
				</g>
			</g>
		</g>
	</g>
</svg>
