<?xml version="1.0" encoding="UTF-8" standalone="no"?>
<!DOCTYPE svg PUBLIC "-//W3C//DTD SVG 1.1//EN" "http://www.w3.org/Graphics/SVG/1.1/DTD/svg11.dtd">
<!-- Generated by Microsoft Visio, SVG Export 3rd Party Integration.svg Page-1 -->
<svg xmlns="http://www.w3.org/2000/svg" xmlns:xlink="http://www.w3.org/1999/xlink" xmlns:ev="http://www.w3.org/2001/xml-events"
		xmlns:v="http://schemas.microsoft.com/visio/2003/SVGExtensions/" width="0.833333in" height="0.854167in"
		viewBox="0 0 60 61.5" xml:space="preserve" color-interpolation-filters="sRGB" class="st4">
	<v:documentProperties v:langID="4108" v:metric="true" v:viewMarkup="false"/>

	<style type="text/css">
	<![CDATA[
		.st1 {fill:#ffffff;stroke:none;stroke-linecap:butt;stroke-width:0.75}
		.st2 {fill:#525352;stroke:none;stroke-linecap:butt;stroke-width:0.75}
		.st3 {fill:#515050;stroke:none;stroke-linecap:butt;stroke-width:0.75}
		.st4 {fill:none;fill-rule:evenodd;font-size:12px;overflow:visible;stroke-linecap:square;stroke-miterlimit:3}
	]]>
	</style>

	<g v:mID="0" v:index="1" v:groupContext="foregroundPage">
		<title>Page-1</title>
		<v:pageProperties v:drawingScale="0.0393701" v:pageScale="0.0393701" v:drawingUnits="24" v:shadowOffsetX="8.50394"
				v:shadowOffsetY="-8.50394"/>
		<g id="group19-1" transform="translate(0.75,-0.75)" v:mID="19" v:groupContext="group">
			<title>3rd Party Integration</title>
			<g id="group20-2" v:mID="20" v:groupContext="group">
				<title>Sheet.20</title>
				<g id="group21-3" transform="translate(-7.99361E-15,-12.75)" v:mID="21" v:groupContext="group">
					<title>Sheet.21</title>
					<g id="shape22-4" v:mID="22" v:groupContext="shape">
						<title>Sheet.22</title>
						<rect x="0" y="14.25" width="48" height="47.25" class="st1"/>
					</g>
					<g id="group23-6" transform="translate(2.25,-2.25)" v:mID="23" v:groupContext="group">
						<title>Sheet.23</title>
						<g id="shape24-7" v:mID="24" v:groupContext="shape">
							<title>Sheet.24</title>
							<path d="M27.75 48.75 L14.25 48.75 L14.25 31.5 L27 31.5 L27 18.75 L0 18.75 L0 61.5 L27.75 61.5 L27.75
										 48.75 Z" class="st2"/>
						</g>
						<g id="shape25-9" v:mID="25" v:groupContext="shape" transform="translate(16.5,1.20792E-13)">
							<title>Sheet.25</title>
							<path d="M12.75 18.75 L12.75 33.75 L0 33.75 L0 46.5 L13.5 46.5 L13.5 61.5 L27 61.5 L27 18.75 L12.75 18.75
										 Z" class="st2"/>
						</g>
					</g>
				</g>
				<g id="group26-11" transform="translate(28.5,0)" v:mID="26" v:groupContext="group">
					<title>Sheet.26</title>
					<g id="group27-12" v:mID="27" v:groupContext="group">
						<title>Sheet.27</title>
						<g id="shape28-13" v:mID="28" v:groupContext="shape">
							<title>Sheet.28</title>
							<path d="M4.5 61.5 C2.02 61.5 0 59.47 0 57 L0 36 C0 33.53 2.02 31.5 4.5 31.5 L25.5 31.5 C27.97 31.5 30
										 33.53 30 36 L30 57 C30 59.47 27.97 61.5 25.5 61.5 L4.5 61.5 Z" class="st1"/>
						</g>
						<g id="shape29-15" v:mID="29" v:groupContext="shape" transform="translate(2.25,-2.25)">
							<title>Sheet.29</title>
							<path d="M25.5 59.25 C25.5 60.53 24.52 61.5 23.25 61.5 L2.25 61.5 C0.97 61.5 0 60.52 0 59.25 L0 38.25
										 C-0 36.98 0.97 36 2.25 36 L23.25 36 C24.52 36 25.5 36.98 25.5 38.25 L25.5 59.25 Z"
									class="st3"/>
						</g>
					</g>
					<g id="group30-17" transform="translate(7.65,-8.25)" v:mID="30" v:groupContext="group">
						<title>Sheet.30</title>
						<g id="shape31-18" v:mID="31" v:groupContext="shape">
							<title>Sheet.31</title>
							<path d="M6.67 60.45 C5.85 61.12 4.65 61.5 3.15 61.5 C1.87 61.5 0.82 61.28 0 60.9 L0 58.5 C0.82 59.1
										 1.8 59.4 2.92 59.4 C3.6 59.4 4.2 59.25 4.57 58.95 C4.95 58.65 5.17 58.2 5.17 57.68 C5.17
										 57.08 4.95 56.7 4.42 56.4 C3.9 56.1 3.3 55.95 2.4 55.95 L1.2 55.95 L1.2 53.85 L2.25 53.85
										 C3.9 53.85 4.72 53.32 4.72 52.2 C4.72 51.15 4.12 50.63 2.85 50.63 C2.03 50.63 1.2 50.93
										 0.37 51.45 L0.37 49.2 C1.28 48.75 2.32 48.53 3.45 48.53 C4.72 48.53 5.77 48.83 6.45 49.43
										 C7.12 50.03 7.5 50.78 7.5 51.68 C7.5 53.32 6.67 54.37 5.02 54.75 C5.92 54.83 6.6 55.2 7.12
										 55.72 C7.65 56.25 7.87 56.93 7.87 57.67 C7.95 58.88 7.57 59.78 6.67 60.45 Z" class="st1"/>
						</g>
						<g id="group32-20" transform="translate(9.375,-7.2)" v:mID="32" v:groupContext="group">
							<title>Sheet.32</title>
							<g id="shape33-21" v:mID="33" v:groupContext="shape">
								<title>Sheet.33</title>
								<path d="M1.95 58.8 C1.87 58.72 1.72 58.72 1.57 58.73 C1.35 58.72 1.12 58.8 0.97 59.03 C0.82 59.25
											 0.75 59.48 0.75 59.85 L0.75 61.5 L0 61.5 L0 58.13 L0.75 58.13 L0.75 58.8 C0.82 58.58
											 0.97 58.35 1.12 58.28 C1.27 58.12 1.42 58.05 1.65 58.05 C1.8 58.05 1.87 58.05 1.95 58.13
											 L1.95 58.8 Z" class="st1"/>
							</g>
							<g id="shape34-23" v:mID="34" v:groupContext="shape" transform="translate(2.25,-7.10543E-15)">
								<title>Sheet.34</title>
								<path d="M3.22 61.42 L2.47 61.42 L2.47 60.82 C2.25 61.28 1.87 61.5 1.35 61.5 C0.9 61.5 0.6 61.35
											 0.37 61.05 C0.15 60.75 0 60.3 0 59.85 C-0 59.32 0.15 58.87 0.45 58.5 C0.75 58.2 1.12
											 57.97 1.57 57.97 C2.02 57.97 2.32 58.13 2.55 58.5 L2.55 56.4 L3.3 56.4 L3.3 61.42 L3.22
											 61.42 ZM2.47 59.92 L2.47 59.47 C2.47 59.25 2.4 59.02 2.25 58.87 C2.1 58.73 1.87 58.65
											 1.65 58.65 C1.35 58.65 1.12 58.73 0.97 58.95 C0.82 59.17 0.75 59.47 0.75 59.85 C0.75
											 60.22 0.82 60.45 0.97 60.67 C1.12 60.9 1.35 60.97 1.57 60.97 C1.8 60.97 2.02 60.9 2.17
											 60.67 C2.32 60.45 2.47 60.22 2.47 59.92 Z" class="st1"/>
							</g>
						</g>
					</g>
				</g>
			</g>
		</g>
	</g>
</svg>
