<?xml version="1.0" encoding="UTF-8" standalone="no"?>
<!DOCTYPE svg PUBLIC "-//W3C//DTD SVG 1.1//EN" "http://www.w3.org/Graphics/SVG/1.1/DTD/svg11.dtd">
<!-- Generated by Microsoft Visio, SVG Export 3rd Party Service.svg Page-1 -->
<svg xmlns="http://www.w3.org/2000/svg" xmlns:xlink="http://www.w3.org/1999/xlink" xmlns:ev="http://www.w3.org/2001/xml-events"
		xmlns:v="http://schemas.microsoft.com/visio/2003/SVGExtensions/" width="0.8225in" height="0.833333in"
		viewBox="0 0 59.22 60" xml:space="preserve" color-interpolation-filters="sRGB" class="st4">
	<v:documentProperties v:langID="4108" v:metric="true" v:viewMarkup="false"/>

	<style type="text/css">
	<![CDATA[
		.st1 {fill:#ffffff;stroke:none;stroke-linecap:butt;stroke-width:0.75}
		.st2 {fill:#535352;stroke:none;stroke-linecap:butt;stroke-width:0.75}
		.st3 {fill:#515050;stroke:none;stroke-linecap:butt;stroke-width:0.75}
		.st4 {fill:none;fill-rule:evenodd;font-size:12px;overflow:visible;stroke-linecap:square;stroke-miterlimit:3}
	]]>
	</style>

	<g v:mID="0" v:index="1" v:groupContext="foregroundPage">
		<title>Page-1</title>
		<v:pageProperties v:drawingScale="0.0393701" v:pageScale="0.0393701" v:drawingUnits="24" v:shadowOffsetX="8.50394"
				v:shadowOffsetY="-8.50394"/>
		<g id="group35-1" transform="translate(0.645,-0.75)" v:mID="35" v:groupContext="group">
			<title>3rd Party Service</title>
			<g id="group36-2" v:mID="36" v:groupContext="group">
				<title>Sheet.36</title>
				<g id="group37-3" transform="translate(2.39808E-14,-6.675)" v:mID="37" v:groupContext="group">
					<title>Sheet.37</title>
					<g id="shape38-4" v:mID="38" v:groupContext="shape">
						<title>Sheet.38</title>
						<path d="M32.48 59.93 C31.05 59.93 29.78 59.1 29.25 57.75 L27.83 54.38 C27.82 54.37 27.82 54.37 27.75 54.38
									 C27.67 54.37 26.93 54.45 25.95 54.45 C24.9 54.45 24.15 54.37 24.07 54.38 C24.07 54.37 24.07
									 54.37 24 54.38 L22.58 57.83 C22.05 59.1 20.77 60 19.35 60 C18.9 60 18.45 59.93 18 59.7 L13.35
									 57.75 C12.45 57.38 11.77 56.7 11.47 55.88 C11.1 54.98 11.1 54.08 11.47 53.18 L12.9 49.73 C12.9
									 49.72 12.75 49.57 12.75 49.58 L10.43 47.18 C10.43 47.18 10.35 47.03 10.28 47.03 L6.83 48.45
									 C6.38 48.6 5.92 48.75 5.48 48.75 C4.05 48.75 2.78 47.93 2.25 46.58 L0.38 41.93 C-0 41.1 -0 40.13
									 0.38 39.23 C0.75 38.33 1.43 37.65 2.25 37.35 L5.7 35.93 C5.7 35.85 5.7 35.7 5.7 35.7 L5.7 32.33
									 C5.7 32.32 5.7 32.17 5.7 32.1 L2.25 30.68 C1.35 30.3 0.67 29.63 0.38 28.8 C-0 27.9 -0 27 0.38
									 26.1 L2.33 21.45 C2.85 20.1 4.13 19.27 5.55 19.27 C6 19.27 6.45 19.35 6.9 19.57 L10.35 21 C10.35
									 21 10.5 20.85 10.5 20.85 L12.9 18.45 C12.9 18.45 13.05 18.37 13.05 18.3 L11.55 14.92 C11.17
									 14.1 11.17 13.13 11.55 12.22 C11.92 11.32 12.6 10.65 13.43 10.35 L18.08 8.47 C18.45 8.25 18.9
									 8.17 19.43 8.17 C20.85 8.17 22.12 9 22.65 10.35 L24.07 13.72 C24.07 13.72 24.07 13.72 24.15
									 13.72 C24.22 13.72 24.97 13.65 25.95 13.65 C27 13.65 27.75 13.72 27.83 13.72 C27.82 13.72 27.82
									 13.72 27.9 13.72 L29.33 10.27 C29.85 9 31.05 8.17 32.48 8.17 C32.93 8.17 33.37 8.25 33.83 8.47
									 L38.47 10.42 C39.38 10.8 40.05 11.47 40.35 12.3 C40.72 13.2 40.72 14.1 40.35 15 L38.93 18.45
									 C38.93 18.45 39.08 18.6 39.08 18.6 L41.48 20.93 C41.48 20.92 41.55 21.08 41.63 21.08 L45.08
									 19.65 C45.53 19.5 45.98 19.35 46.43 19.35 C47.85 19.35 49.13 20.18 49.65 21.53 L51.6 26.18 C51.98
									 27.08 51.98 27.98 51.6 28.88 C51.23 29.77 50.55 30.45 49.73 30.75 L46.2 32.18 C46.2 32.25 46.2
									 32.4 46.2 32.4 L46.2 35.78 C46.2 35.77 46.2 35.92 46.2 36 L49.65 37.43 C51.45 38.17 52.28 40.2
									 51.52 42 L49.58 46.65 C49.05 48 47.78 48.83 46.35 48.83 C45.9 48.83 45.45 48.75 45 48.53 L41.55
									 47.1 C41.48 47.18 41.4 47.25 41.4 47.25 L39.08 49.58 C39.08 49.57 38.93 49.65 38.93 49.73 L40.35
									 53.18 C40.72 54.08 40.72 54.98 40.35 55.88 C39.97 56.78 39.3 57.45 38.47 57.75 L33.83 59.63
									 C33.45 59.85 33 59.93 32.48 59.93 ZM25.95 23.78 C20.25 23.78 15.67 28.35 15.68 34.05 C15.67
									 39.75 20.25 44.33 25.95 44.33 C31.65 44.33 36.23 39.75 36.22 34.05 C36.23 28.35 31.65 23.78
									 25.95 23.78 Z" class="st1"/>
					</g>
					<g id="shape39-6" v:mID="39" v:groupContext="shape" transform="translate(2.175,-2.025)">
						<title>Sheet.39</title>
						<path d="M46.65 41.48 L42.83 39.9 C42.23 39.6 41.7 39.3 41.7 39.15 C41.7 39 41.78 38.33 41.85 37.65 L41.85
									 34.5 C41.78 33.83 41.7 33.15 41.7 33 C41.7 32.85 42.15 32.55 42.83 32.25 L46.65 30.68 C47.25
									 30.37 47.63 29.7 47.33 29.03 L45.38 24.38 C45.15 23.78 44.4 23.48 43.73 23.7 L39.9 25.35 C39.3
									 25.65 38.7 25.72 38.63 25.65 C38.55 25.57 38.1 25.05 37.65 24.53 L35.4 22.28 C34.88 21.82 34.35
									 21.37 34.28 21.3 C34.2 21.22 34.28 20.62 34.58 20.03 L36.15 16.2 C36.45 15.6 36.08 14.85 35.48
									 14.55 L30.83 12.6 C30.15 12.3 29.48 12.6 29.18 13.2 L27.6 17.03 C27.38 17.7 27 18.15 26.85 18.15
									 C26.7 18.15 26.03 18.08 25.35 17.93 C25.35 17.93 24.68 17.85 23.7 17.85 C22.73 17.85 22.13 17.93
									 22.13 17.93 C21.45 18 20.78 18.08 20.63 18.08 C20.48 18.08 20.17 17.63 19.88 16.95 L18.38 13.2
									 C18.15 12.6 17.4 12.3 16.73 12.52 L12.08 14.48 C11.47 14.7 11.18 15.45 11.4 16.13 L12.98 19.95
									 C13.27 20.55 13.35 21.15 13.28 21.23 C13.2 21.3 12.67 21.75 12.15 22.2 L9.9 24.45 C9.45 24.97
									 9 25.5 8.93 25.58 C8.85 25.65 8.25 25.57 7.65 25.28 L3.83 23.7 C3.23 23.4 2.48 23.78 2.18 24.38
									 L0.23 29.03 C-0 29.7 0.3 30.45 0.9 30.68 L4.73 32.25 C5.4 32.55 5.85 32.85 5.85 33 C5.85 33.15
									 5.78 33.83 5.7 34.5 L5.7 37.65 C5.78 38.33 5.85 39 5.85 39.15 C5.85 39.3 5.4 39.6 4.73 39.9
									 L0.9 41.48 C0.3 41.7 0 42.45 0.23 43.13 L2.18 47.78 C2.48 48.38 3.15 48.75 3.83 48.45 L7.65
									 46.88 C8.25 46.65 8.85 46.5 8.93 46.58 C9 46.65 9.45 47.18 9.9 47.7 L12.15 49.95 C12.67 50.4
									 13.2 50.85 13.28 50.93 C13.35 51 13.27 51.6 12.98 52.2 L11.4 56.03 C11.1 56.63 11.47 57.38 12.08
									 57.68 L16.73 59.63 C17.33 59.93 18.08 59.55 18.38 58.95 L19.95 55.13 C20.25 54.45 20.55 54 20.7
									 54 C20.85 54 21.53 54.08 22.2 54.23 C22.2 54.23 22.88 54.3 23.85 54.3 C24.75 54.3 25.43 54.23
									 25.43 54.23 C26.1 54.15 26.78 54.08 26.93 54.08 C27.07 54.08 27.38 54.52 27.68 55.2 L29.25 59.03
									 C29.55 59.63 30.23 60 30.9 59.7 L35.55 57.75 C36.23 57.53 36.53 56.78 36.23 56.1 L34.5 52.2
									 C34.28 51.53 34.13 51 34.2 50.93 C34.28 50.85 34.8 50.4 35.33 49.95 L37.58 47.7 C38.03 47.18
									 38.48 46.65 38.55 46.58 C38.62 46.5 39.23 46.58 39.83 46.88 L43.65 48.45 C44.25 48.75 45 48.38
									 45.3 47.78 L47.25 43.13 C47.55 42.45 47.25 41.7 46.65 41.48 ZM23.78 48.6 C16.88 48.6 11.25 42.98
									 11.25 36.08 C11.25 29.18 16.88 23.55 23.78 23.55 C30.68 23.55 36.3 29.18 36.3 36.08 C36.3 42.98
									 30.68 48.6 23.78 48.6 Z" class="st2"/>
					</g>
				</g>
				<g id="group40-8" transform="translate(27.825,-2.13163E-13)" v:mID="40" v:groupContext="group">
					<title>Sheet.40</title>
					<g id="group41-9" v:mID="41" v:groupContext="group">
						<title>Sheet.41</title>
						<g id="shape42-10" v:mID="42" v:groupContext="shape">
							<title>Sheet.42</title>
							<path d="M4.5 60 C2.03 60 0 57.98 0 55.5 L0 34.5 C0 32.03 2.03 30 4.5 30 L25.5 30 C27.98 30 30 32.03
										 30 34.5 L30 55.5 C30 57.98 27.98 60 25.5 60 L4.5 60 Z" class="st1"/>
						</g>
						<g id="shape43-12" v:mID="43" v:groupContext="shape" transform="translate(2.25,-2.25)">
							<title>Sheet.43</title>
							<path d="M25.5 57.75 C25.5 59.03 24.52 60 23.25 60 L2.25 60 C0.98 60 0 59.03 0 57.75 L0 36.75 C0 35.48
										 0.98 34.5 2.25 34.5 L23.25 34.5 C24.52 34.5 25.5 35.48 25.5 36.75 L25.5 57.75 Z"
									class="st3"/>
						</g>
					</g>
					<g id="group44-14" transform="translate(7.65,-8.25)" v:mID="44" v:groupContext="group">
						<title>Sheet.44</title>
						<g id="shape45-15" v:mID="45" v:groupContext="shape">
							<title>Sheet.45</title>
							<path d="M6.67 58.95 C5.85 59.63 4.65 60 3.15 60 C1.87 60 0.82 59.78 0 59.4 L0 57 C0.82 57.6 1.8 57.9
										 2.92 57.9 C3.6 57.9 4.2 57.75 4.57 57.45 C4.95 57.15 5.18 56.7 5.17 56.18 C5.18 55.58 4.95
										 55.2 4.42 54.9 C3.9 54.6 3.3 54.45 2.4 54.45 L1.2 54.45 L1.2 52.35 L2.25 52.35 C3.9 52.35
										 4.72 51.83 4.72 50.7 C4.72 49.65 4.12 49.13 2.85 49.13 C2.03 49.13 1.2 49.43 0.37 49.95
										 L0.37 47.7 C1.28 47.25 2.32 47.03 3.45 47.03 C4.72 47.03 5.77 47.33 6.45 47.93 C7.12 48.53
										 7.5 49.28 7.5 50.18 C7.5 51.83 6.67 52.88 5.02 53.25 C5.92 53.33 6.6 53.7 7.12 54.23 C7.65
										 54.75 7.87 55.43 7.87 56.18 C7.95 57.38 7.57 58.28 6.67 58.95 Z" class="st1"/>
						</g>
						<g id="group46-17" transform="translate(9.375,-7.2)" v:mID="46" v:groupContext="group">
							<title>Sheet.46</title>
							<g id="shape47-18" v:mID="47" v:groupContext="shape">
								<title>Sheet.47</title>
								<path d="M1.95 57.3 C1.87 57.23 1.72 57.23 1.57 57.23 C1.35 57.23 1.12 57.3 0.97 57.53 C0.82 57.75
											 0.75 57.98 0.75 58.35 L0.75 60 L0 60 L0 56.63 L0.75 56.63 L0.75 57.3 C0.82 57.08 0.97
											 56.85 1.12 56.78 C1.27 56.63 1.42 56.55 1.65 56.55 C1.8 56.55 1.87 56.55 1.95 56.63
											 L1.95 57.3 Z" class="st1"/>
							</g>
							<g id="shape48-20" v:mID="48" v:groupContext="shape" transform="translate(2.25,1.42109E-14)">
								<title>Sheet.48</title>
								<path d="M3.22 59.93 L2.47 59.93 L2.47 59.33 C2.25 59.78 1.87 60 1.35 60 C0.9 60 0.6 59.85 0.37 59.55
											 C0.15 59.25 0 58.8 0 58.35 C0 57.83 0.15 57.38 0.45 57 C0.75 56.7 1.12 56.48 1.57 56.48
											 C2.02 56.48 2.32 56.63 2.55 57 L2.55 54.9 L3.3 54.9 L3.3 59.93 L3.22 59.93 ZM2.47 58.43
											 L2.47 57.98 C2.47 57.75 2.4 57.53 2.25 57.38 C2.1 57.23 1.87 57.15 1.65 57.15 C1.35
											 57.15 1.12 57.23 0.97 57.45 C0.82 57.68 0.75 57.98 0.75 58.35 C0.75 58.73 0.82 58.95
											 0.97 59.18 C1.12 59.4 1.35 59.48 1.57 59.48 C1.8 59.48 2.02 59.4 2.17 59.18 C2.32 58.95
											 2.47 58.73 2.47 58.43 Z" class="st1"/>
							</g>
						</g>
					</g>
				</g>
			</g>
		</g>
	</g>
</svg>
