<?xml version="1.0" encoding="UTF-8" standalone="no"?>
<!DOCTYPE svg PUBLIC "-//W3C//DTD SVG 1.1//EN" "http://www.w3.org/Graphics/SVG/1.1/DTD/svg11.dtd">
<!-- Generated by Microsoft Visio, SVG Export Application Sharing Workload.svg Page-1 -->
<svg xmlns="http://www.w3.org/2000/svg" xmlns:xlink="http://www.w3.org/1999/xlink" xmlns:ev="http://www.w3.org/2001/xml-events"
		xmlns:v="http://schemas.microsoft.com/visio/2003/SVGExtensions/" width="0.864583in" height="0.760417in"
		viewBox="0 0 62.25 54.75" xml:space="preserve" color-interpolation-filters="sRGB" class="st4">
	<v:documentProperties v:langID="4108" v:metric="true" v:viewMarkup="false"/>

	<style type="text/css">
	<![CDATA[
		.st1 {fill:#ffffff;stroke:none;stroke-linecap:butt;stroke-width:0.75}
		.st2 {fill:#515150;stroke:none;stroke-linecap:butt;stroke-width:0.75}
		.st3 {fill:#515050;stroke:none;stroke-linecap:butt;stroke-width:0.75}
		.st4 {fill:none;fill-rule:evenodd;font-size:12px;overflow:visible;stroke-linecap:square;stroke-miterlimit:3}
	]]>
	</style>

	<g v:mID="0" v:index="1" v:groupContext="foregroundPage">
		<title>Page-1</title>
		<v:pageProperties v:drawingScale="0.0393701" v:pageScale="0.0393701" v:drawingUnits="24" v:shadowOffsetX="8.50394"
				v:shadowOffsetY="-8.50394"/>
		<g id="group49-1" transform="translate(0.75,-0.75)" v:mID="49" v:groupContext="group">
			<title>Application Sharing Workload</title>
			<g id="group50-2" transform="translate(2.59792E-13,-6.75)" v:mID="50" v:groupContext="group">
				<title>Sheet.50</title>
				<g id="shape51-3" v:mID="51" v:groupContext="shape">
					<title>Sheet.51</title>
					<path d="M50.62 28.5 L50.25 28.5 L50.25 8.25 L6.75 8.25 L6.75 28.5 L6.37 28.5 L0 36.75 L0 54.75 L57 54.75 L57
								 36.75 L50.62 28.5 Z" class="st1"/>
				</g>
				<g id="shape52-5" v:mID="52" v:groupContext="shape" transform="translate(9,-19.5)">
					<title>Sheet.52</title>
					<rect x="0" y="52.5" width="39" height="2.25" class="st2"/>
				</g>
				<g id="shape53-7" v:mID="53" v:groupContext="shape" transform="translate(9,-24)">
					<title>Sheet.53</title>
					<rect x="0" y="52.5" width="39" height="2.25" class="st2"/>
				</g>
				<g id="shape54-9" v:mID="54" v:groupContext="shape" transform="translate(9,-28.5)">
					<title>Sheet.54</title>
					<rect x="0" y="52.5" width="39" height="2.25" class="st2"/>
				</g>
				<g id="shape55-11" v:mID="55" v:groupContext="shape" transform="translate(9,-33)">
					<title>Sheet.55</title>
					<rect x="0" y="52.5" width="39" height="2.25" class="st2"/>
				</g>
				<g id="shape56-13" v:mID="56" v:groupContext="shape" transform="translate(9,-37.5)">
					<title>Sheet.56</title>
					<rect x="0" y="52.5" width="39" height="2.25" class="st2"/>
				</g>
				<g id="shape57-15" v:mID="57" v:groupContext="shape" transform="translate(2.25,-2.25)">
					<title>Sheet.57</title>
					<path d="M48 33.98 L48 39.75 L4.5 39.75 L4.5 33.98 L0 39.75 L0 54.75 L52.5 54.75 L52.5 39.75 L48 33.98 Z"
							class="st2"/>
				</g>
				<g id="shape58-17" v:mID="58" v:groupContext="shape" transform="translate(9,-42)">
					<title>Sheet.58</title>
					<rect x="0" y="52.5" width="39" height="2.25" class="st2"/>
				</g>
			</g>
			<g id="group59-19" transform="translate(27,-1.42109E-13)" v:mID="59" v:groupContext="group">
				<title>Sheet.59</title>
				<g id="group60-20" v:mID="60" v:groupContext="group">
					<title>Sheet.60</title>
					<g id="shape61-21" v:mID="61" v:groupContext="shape">
						<title>Sheet.61</title>
						<path d="M3.75 54.75 C1.65 54.75 0 53.1 0 51 L0 27.75 C0 25.65 1.65 24 3.75 24 L30 24 C32.1 24 33.75 25.65
									 33.75 27.75 L33.75 51 C33.75 53.1 32.1 54.75 30 54.75 L3.75 54.75 Z" class="st1"/>
					</g>
					<g id="shape62-23" v:mID="62" v:groupContext="shape" transform="translate(2.25,-2.25)">
						<title>Sheet.62</title>
						<path d="M27.75 28.5 L1.5 28.5 C0.6 28.5 0 29.1 0 30 L0 53.25 C0 54.15 0.6 54.75 1.5 54.75 L27.75 54.75 C28.65
									 54.75 29.25 54.15 29.25 53.25 L29.25 30 C29.25 29.1 28.65 28.5 27.75 28.5 ZM27.75 53.25 L1.5
									 53.25 L1.5 33 L27.75 33 L27.75 53.25 Z" class="st2"/>
					</g>
					<g id="shape63-25" v:mID="63" v:groupContext="shape" transform="translate(28.5,-25.5)">
						<title>Sheet.63</title>
						<rect x="0" y="53.25" width="1.5" height="1.5" class="st1"/>
					</g>
					<g id="shape64-27" v:mID="64" v:groupContext="shape" transform="translate(25.5,-25.5)">
						<title>Sheet.64</title>
						<rect x="0" y="53.25" width="1.5" height="1.5" class="st1"/>
					</g>
					<g id="shape65-29" v:mID="65" v:groupContext="shape" transform="translate(22.5,-25.5)">
						<title>Sheet.65</title>
						<rect x="0" y="53.25" width="1.5" height="1.5" class="st1"/>
					</g>
				</g>
				<g id="group66-31" transform="translate(7.275,-5.025)" v:mID="66" v:groupContext="group">
					<title>Sheet.66</title>
					<g id="shape67-32" v:mID="67" v:groupContext="shape" transform="translate(2.925,-11.55)">
						<title>Sheet.67</title>
						<path d="M7.95 53.4 C8.85 54.3 10.43 54.3 11.33 53.4 C12.23 52.5 12.23 50.93 11.33 50.03 C10.43 49.13 8.85
									 49.13 7.95 50.03 C7.95 50.03 7.88 50.1 7.88 50.1 C7.5 50.03 7.2 50.03 6.83 50.03 C3.9 50.03
									 1.35 51.68 0 54.15 C0.6 54.23 1.13 54.38 1.58 54.75 C2.63 52.95 4.58 51.75 6.75 51.75 C6.9 51.75
									 7.05 51.75 7.13 51.75 C7.28 52.35 7.5 52.95 7.95 53.4 Z" class="st3"/>
					</g>
					<g id="shape68-34" v:mID="68" v:groupContext="shape" transform="translate(4.79616E-14,-0.975)">
						<title>Sheet.68</title>
						<path d="M9 53.03 C6.68 52.73 4.8 51.08 4.13 48.98 C4.2 48.9 4.28 48.9 4.35 48.83 C5.25 47.93 5.25 46.35
									 4.35 45.45 C3.45 44.55 1.88 44.55 0.98 45.45 C-0 46.35 0 47.93 0.98 48.83 C1.43 49.28 2.02 49.5
									 2.55 49.5 C3.53 52.43 6.23 54.6 9.45 54.75 C9.15 54.3 9 53.7 9 53.03 C9 53.1 9 53.1 9 53.03
									 Z" class="st3"/>
					</g>
					<g id="shape69-36" v:mID="69" v:groupContext="shape" transform="translate(9.9,9.23706E-14)">
						<title>Sheet.69</title>
						<path d="M7.58 46.13 C7.58 44.4 6.98 42.75 6 41.48 C5.85 41.93 5.55 42.3 5.18 42.68 C5.1 42.75 5.03 42.83
									 4.88 42.9 C5.48 43.8 5.78 44.93 5.78 46.13 C5.78 47.7 5.1 49.2 4.13 50.25 C3.15 49.5 1.8 49.5
									 0.9 50.4 C0 51.38 -0 52.88 0.9 53.78 C1.8 54.75 3.38 54.75 4.28 53.78 C4.8 53.25 5.03 52.5 4.95
									 51.75 C6.6 50.4 7.58 48.38 7.58 46.13 Z" class="st3"/>
					</g>
				</g>
			</g>
		</g>
	</g>
</svg>
