<?xml version="1.0" encoding="UTF-8" standalone="no"?>
<!DOCTYPE svg PUBLIC "-//W3C//DTD SVG 1.1//EN" "http://www.w3.org/Graphics/SVG/1.1/DTD/svg11.dtd">
<!-- Generated by Microsoft Visio, SVG Export Audio Conferencing Application.svg Page-1 -->
<svg xmlns="http://www.w3.org/2000/svg" xmlns:xlink="http://www.w3.org/1999/xlink" xmlns:ev="http://www.w3.org/2001/xml-events"
		xmlns:v="http://schemas.microsoft.com/visio/2003/SVGExtensions/" width="0.89529in" height="0.714583in"
		viewBox="0 0 64.4609 51.45" xml:space="preserve" color-interpolation-filters="sRGB" class="st4">
	<v:documentProperties v:langID="4108" v:metric="true" v:viewMarkup="false"/>

	<style type="text/css">
	<![CDATA[
		.st1 {fill:#ffffff;stroke:none;stroke-linecap:butt;stroke-width:0.75}
		.st2 {fill:#515150;stroke:none;stroke-linecap:butt;stroke-width:0.75}
		.st3 {fill:#515251;stroke:none;stroke-linecap:butt;stroke-width:0.75}
		.st4 {fill:none;fill-rule:evenodd;font-size:12px;overflow:visible;stroke-linecap:square;stroke-miterlimit:3}
	]]>
	</style>

	<g v:mID="0" v:index="1" v:groupContext="foregroundPage">
		<title>Page-1</title>
		<v:pageProperties v:drawingScale="0.0393701" v:pageScale="0.0393701" v:drawingUnits="24" v:shadowOffsetX="8.50394"
				v:shadowOffsetY="-8.50394"/>
		<g id="group70-1" transform="translate(0.75,-0.75)" v:mID="70" v:groupContext="group">
			<title>Audio Conferencing Application</title>
			<g id="group71-2" v:mID="71" v:groupContext="group">
				<title>Sheet.71</title>
				<g id="shape72-3" v:mID="72" v:groupContext="shape" transform="translate(-2.8777E-13,-4.95)">
					<title>Sheet.72</title>
					<path d="M57.75 11.7 C57.75 8.78 55.43 6.45 52.5 6.45 L5.25 6.45 C2.32 6.45 0 8.78 0 11.7 L0 46.2 C0 49.13 2.32
								 51.45 5.25 51.45 L51 51.45 L57.75 43.8 L57.75 11.7 Z" class="st1"/>
				</g>
				<g id="group73-5" transform="translate(2.25,-1.27898E-13)" v:mID="73" v:groupContext="group">
					<title>Sheet.73</title>
					<g id="shape74-6" v:mID="74" v:groupContext="shape" transform="translate(-1.19904E-14,-7.2)">
						<title>Sheet.74</title>
						<path d="M50.25 10.95 L3 10.95 C1.35 10.95 0 12.3 0 13.95 L0 48.45 C0 50.1 1.35 51.45 3 51.45 L50.25 51.45
									 C51.9 51.45 53.25 50.1 53.25 48.45 L53.25 13.95 C53.25 12.3 51.9 10.95 50.25 10.95 ZM44.25 13.2
									 L46.5 13.2 L46.5 15.45 L44.25 15.45 L44.25 13.2 ZM39.75 13.2 L42 13.2 L42 15.45 L39.75 15.45
									 L39.75 13.2 ZM51 48.45 C51 48.9 50.7 49.2 50.25 49.2 L3 49.2 C2.55 49.2 2.25 48.9 2.25 48.45
									 L2.25 18.45 L51 18.45 L51 48.45 ZM51 15.45 L48.75 15.45 L48.75 13.2 L51 13.2 L51 15.45 Z"
								class="st2"/>
					</g>
					<g id="group75-8" transform="translate(32.325,9.9476E-14)" v:mID="75" v:groupContext="group">
						<title>Sheet.75</title>
						<g id="shape76-9" v:mID="76" v:groupContext="shape">
							<title>Sheet.76</title>
							<path d="M8.1 51.45 C6.07 51.45 4.27 50.85 2.55 49.73 L2.33 49.58 L2.18 49.5 C1.5 48.98 0.9 48.3 0.6
										 47.48 L0.53 47.33 C-0 45.82 0.3 43.88 1.28 42.45 L3.15 39.68 C4.27 38.1 5.85 37.2 7.35 37.2
										 C7.57 37.2 7.87 37.2 8.1 37.28 C8.7 37.43 9.3 37.65 9.83 38.03 L11.25 39.08 L17.1 30.83
										 L15.68 29.85 C15.15 29.48 14.78 29.03 14.48 28.5 C13.58 26.93 13.8 24.83 15 23.1 L17.03
										 20.33 C18 18.98 19.73 18 21.3 18 L21.45 18 C22.35 18 23.18 18.3 23.93 18.75 L24.3 18.98
										 C25.95 20.18 27.08 21.75 27.75 23.63 C28.95 27 28.42 31.13 26.4 34.88 C26.18 35.4 25.05
										 37.57 23.18 40.35 L22.43 41.4 C20.4 44.17 18.75 45.9 18.3 46.35 C15.45 49.65 11.78 51.45
										 8.1 51.45 Z" class="st1"/>
						</g>
						<g id="shape77-11" v:mID="77" v:groupContext="shape" transform="translate(2.475,-2.25)">
							<title>Sheet.77</title>
							<path d="M18.08 42.45 C15.98 45.3 14.17 47.1 14.18 47.1 C11.77 49.88 8.63 51.45 5.7 51.45 C4.13 51.45
										 2.7 51 1.43 50.1 L1.2 50.03 L1.05 49.88 C0.67 49.65 0.45 49.28 0.3 48.83 C0.3 48.83 0.3
										 48.75 0.3 48.75 C0 47.92 0.22 46.8 0.75 45.98 L2.63 43.2 C3.37 42.23 4.43 41.63 5.25 41.78
										 C5.55 41.85 5.78 41.93 6.08 42.15 L7.73 43.35 C8.63 43.95 9.83 43.73 10.43 42.9 L16.58 34.2
										 C17.17 33.3 16.95 32.1 16.13 31.5 L14.48 30.3 C14.25 30.15 14.03 29.92 13.88 29.63 C13.42
										 28.88 13.65 27.68 14.33 26.63 L16.35 23.93 C16.95 23.1 17.93 22.5 18.83 22.58 C18.83 22.58
										 18.9 22.58 18.9 22.58 C19.35 22.58 19.8 22.73 20.1 22.95 L20.25 23.1 L20.4 23.18 C21.68
										 24.08 22.57 25.27 23.1 26.78 C24.08 29.55 23.62 33 21.83 36.23 C21.83 36.3 20.7 38.55 18.75
										 41.48 L18.08 42.45 Z" class="st3"/>
						</g>
					</g>
				</g>
			</g>
		</g>
	</g>
</svg>
