<?xml version="1.0" encoding="UTF-8" standalone="no"?>
<!DOCTYPE svg PUBLIC "-//W3C//DTD SVG 1.1//EN" "http://www.w3.org/Graphics/SVG/1.1/DTD/svg11.dtd">
<!-- Generated by Microsoft Visio, SVG Export Central Management Service.svg Page-1 -->
<svg xmlns="http://www.w3.org/2000/svg" xmlns:xlink="http://www.w3.org/1999/xlink" xmlns:ev="http://www.w3.org/2001/xml-events"
		xmlns:v="http://schemas.microsoft.com/visio/2003/SVGExtensions/" width="0.788429in" height="0.836458in"
		viewBox="0 0 56.7669 60.225" xml:space="preserve" color-interpolation-filters="sRGB" class="st3">
	<v:documentProperties v:langID="4108" v:metric="true" v:viewMarkup="false"/>

	<style type="text/css">
	<![CDATA[
		.st1 {fill:#ffffff;stroke:none;stroke-linecap:butt;stroke-width:0.75}
		.st2 {fill:#515150;stroke:none;stroke-linecap:butt;stroke-width:0.75}
		.st3 {fill:none;fill-rule:evenodd;font-size:12px;overflow:visible;stroke-linecap:square;stroke-miterlimit:3}
	]]>
	</style>

	<g v:mID="0" v:index="1" v:groupContext="foregroundPage">
		<title>Page-1</title>
		<v:pageProperties v:drawingScale="0.0393701" v:pageScale="0.0393701" v:drawingUnits="24" v:shadowOffsetX="8.50394"
				v:shadowOffsetY="-8.50394"/>
		<g id="group94-1" transform="translate(0.75,-0.75)" v:mID="94" v:groupContext="group">
			<title>Central Management Service</title>
			<g id="group95-2" v:mID="95" v:groupContext="group">
				<title>Sheet.95</title>
				<g id="group96-3" transform="translate(1.51879E-13,-5.475)" v:mID="96" v:groupContext="group">
					<title>Sheet.96</title>
					<g id="shape97-4" v:mID="97" v:groupContext="shape">
						<title>Sheet.97</title>
						<path d="M39.75 16.35 L39.75 49.72 L39.75 51.37 L39.75 51.45 C39.07 59.1 27 60.22 19.87 60.22 C12.75 60.22
									 0.68 59.1 0 51.45 L0 51.37 L0 49.8 L0 16.35 L0 14.85 C-0 9.45 9.98 6.98 19.87 6.97 C29.77 6.98
									 39.75 9.45 39.75 14.85 L39.75 16.35 Z" class="st1"/>
					</g>
					<g id="shape98-6" v:mID="98" v:groupContext="shape" transform="translate(2.25,-2.25)">
						<title>Sheet.98</title>
						<path d="M17.62 24.98 C10.57 24.98 3.52 23.78 0 21.08 L0 51.98 L0 53.47 C0.53 59.7 13.2 60.22 17.62 60.22
									 C22.05 60.22 34.65 59.7 35.25 53.47 L35.25 51.98 L35.25 21.08 C31.72 23.78 24.67 24.98 17.62
									 24.98 Z" class="st2"/>
					</g>
					<g id="shape99-8" v:mID="99" v:groupContext="shape" transform="translate(2.25,-39.75)">
						<title>Sheet.99</title>
						<ellipse cx="17.625" cy="54.6" rx="17.625" ry="5.625" class="st2"/>
					</g>
				</g>
				<g id="group100-10" transform="translate(21.825,-1.56319E-13)" v:mID="100" v:groupContext="group">
					<title>Sheet.100</title>
					<g id="shape101-11" v:mID="101" v:groupContext="shape">
						<title>Sheet.101</title>
						<path d="M20.85 60.22 C19.65 60.22 18.53 59.47 18.08 58.35 L17.4 56.77 C17.25 56.77 17.03 56.77 16.8 56.77
									 C16.57 56.77 16.35 56.77 16.13 56.77 L15.45 58.35 C15.08 59.47 13.95 60.22 12.75 60.22 C12.38
									 60.22 11.93 60.15 11.63 60 L8.78 58.8 C8.03 58.5 7.43 57.9 7.13 57.15 C6.83 56.4 6.83 55.57
									 7.13 54.83 L7.8 53.25 L6.98 52.43 L5.4 53.1 C5.03 53.25 4.65 53.32 4.28 53.33 C3.08 53.32 1.95
									 52.57 1.5 51.45 L0.3 48.6 C0 47.85 -0 47.03 0.3 46.28 C0.6 45.53 1.2 44.93 1.95 44.63 L3.53
									 43.95 L3.53 42.75 L1.95 42.08 C1.2 41.77 0.6 41.18 0.3 40.43 C0 39.68 -0 38.85 0.3 38.1 L1.5
									 35.25 C1.95 34.13 3.08 33.38 4.28 33.38 C4.65 33.38 5.03 33.45 5.4 33.6 L6.98 34.28 L7.8 33.45
									 L7.13 31.88 C6.83 31.13 6.83 30.3 7.13 29.55 C7.42 28.8 8.03 28.2 8.78 27.9 L11.63 26.7 C12
									 26.55 12.38 26.48 12.75 26.48 C13.95 26.48 15.08 27.23 15.53 28.35 L16.13 29.85 C16.28 29.85
									 16.5 29.85 16.73 29.85 C16.95 29.85 17.18 29.85 17.4 29.85 L18 28.28 C18.45 27.15 19.58 26.4
									 20.78 26.4 C21.15 26.4 21.53 26.48 21.9 26.63 L24.75 27.83 C25.5 28.13 26.1 28.73 26.4 29.48
									 C26.7 30.23 26.7 31.05 26.4 31.8 L25.73 33.38 L26.55 34.2 L28.13 33.53 C28.5 33.38 28.88 33.3
									 29.25 33.3 C30.45 33.3 31.58 34.05 32.03 35.18 L33.23 38.03 C33.53 38.78 33.53 39.6 33.23 40.35
									 C32.93 41.1 32.33 41.7 31.58 42 L30 42.68 L30 43.88 L31.58 44.55 C33.15 45.22 33.83 46.95 33.23
									 48.53 L32.03 51.38 C31.58 52.5 30.45 53.25 29.25 53.25 C28.88 53.25 28.43 53.18 28.05 53.03
									 L26.48 52.35 L25.65 53.18 L26.33 54.75 C26.62 55.5 26.63 56.32 26.33 57.07 C26.03 57.82 25.43
									 58.42 24.68 58.72 L21.83 59.92 C21.68 60.15 21.23 60.22 20.85 60.22 Z" class="st1"/>
					</g>
					<g id="shape102-13" v:mID="102" v:groupContext="shape" transform="translate(2.025,-2.1)">
						<title>Sheet.102</title>
						<path d="M28.95 48.83 L26.55 47.85 C26.18 47.7 25.88 47.48 25.88 47.4 C25.88 47.33 25.95 46.88 25.95 46.5
									 L25.95 44.55 C25.95 44.1 25.88 43.73 25.88 43.65 C25.88 43.58 26.18 43.35 26.55 43.2 L28.95
									 42.23 C29.33 42.08 29.55 41.63 29.4 41.18 L28.2 38.33 C28.05 37.95 27.6 37.73 27.15 37.88 L24.75
									 38.85 C24.38 39 24 39.08 23.93 39 C23.85 38.93 23.63 38.63 23.33 38.25 L21.9 36.9 C21.6 36.6
									 21.23 36.38 21.23 36.3 C21.15 36.23 21.23 35.93 21.38 35.48 L22.35 33.08 C22.5 32.7 22.35 32.25
									 21.9 32.03 L19.05 30.83 C18.68 30.68 18.22 30.83 18 31.28 L17.03 33.68 C16.88 34.05 16.65 34.35
									 16.58 34.35 C16.5 34.35 16.05 34.28 15.68 34.2 C15.68 34.2 15.3 34.13 14.7 34.13 C14.1 34.13
									 13.72 34.2 13.73 34.2 C13.27 34.28 12.9 34.28 12.83 34.35 C12.75 34.35 12.52 34.05 12.38 33.68
									 L11.4 31.28 C11.25 30.9 10.8 30.68 10.35 30.83 L7.5 32.03 C7.13 32.18 6.9 32.63 7.05 33.08 L8.03
									 35.48 C8.17 35.85 8.25 36.23 8.18 36.3 C8.1 36.38 7.8 36.6 7.5 36.9 L6.08 38.33 C5.78 38.63
									 5.55 39 5.48 39.08 C5.4 39.15 5.1 39.08 4.65 38.93 L2.4 37.8 C2.03 37.65 1.58 37.8 1.35 38.25
									 L0.15 41.1 C0 41.48 0.15 41.93 0.6 42.15 L3 43.13 C3.37 43.28 3.67 43.5 3.68 43.58 C3.67 43.65
									 3.6 44.1 3.6 44.48 L3.6 46.43 C3.6 46.88 3.67 47.25 3.68 47.33 C3.67 47.4 3.37 47.63 3 47.78
									 L0.6 48.83 C0.23 48.97 0 49.43 0.15 49.88 L1.35 52.73 C1.5 53.1 1.95 53.32 2.4 53.18 L4.8 52.2
									 C5.18 52.05 5.55 51.98 5.63 52.05 C5.7 52.13 5.93 52.43 6.23 52.8 L7.65 54.15 C7.95 54.45 8.32
									 54.67 8.4 54.75 C8.47 54.82 8.4 55.2 8.25 55.57 L7.13 57.82 C6.98 58.2 7.13 58.65 7.58 58.87
									 L10.43 60.07 C10.8 60.22 11.25 60.07 11.48 59.62 L12.45 57.22 C12.6 56.85 12.82 56.55 12.9 56.55
									 C12.97 56.55 13.42 56.63 13.8 56.7 C13.8 56.7 14.18 56.78 14.78 56.77 C15.38 56.78 15.75 56.7
									 15.75 56.7 C16.2 56.63 16.58 56.63 16.65 56.55 C16.73 56.55 16.95 56.85 17.1 57.22 L18.08 59.62
									 C18.22 60 18.68 60.22 19.13 60.07 L21.98 58.87 C22.35 58.72 22.57 58.27 22.43 57.82 L21.45 55.42
									 C21.3 55.05 21.23 54.67 21.3 54.6 C21.38 54.52 21.68 54.3 22.05 54 L23.48 52.58 C23.78 52.28
									 24 51.9 24.08 51.83 C24.15 51.75 24.45 51.83 24.9 51.98 L27.3 52.95 C27.67 53.1 28.13 52.95
									 28.35 52.5 L29.55 49.65 C29.48 49.43 29.33 48.97 28.95 48.83 ZM14.78 53.18 C10.5 53.17 7.05
									 49.73 7.05 45.45 C7.05 41.18 10.5 37.73 14.78 37.73 C19.05 37.73 22.5 41.18 22.5 45.45 C22.5
									 49.73 19.05 53.17 14.78 53.18 Z" class="st2"/>
					</g>
				</g>
			</g>
		</g>
	</g>
</svg>
