<?xml version="1.0" encoding="UTF-8" standalone="no"?>
<!DOCTYPE svg PUBLIC "-//W3C//DTD SVG 1.1//EN" "http://www.w3.org/Graphics/SVG/1.1/DTD/svg11.dtd">
<!-- Generated by Microsoft Visio, SVG Export Chat Room.svg Page-1 -->
<svg xmlns="http://www.w3.org/2000/svg" xmlns:xlink="http://www.w3.org/1999/xlink" xmlns:ev="http://www.w3.org/2001/xml-events"
		xmlns:v="http://schemas.microsoft.com/visio/2003/SVGExtensions/" width="0.71875in" height="0.739583in"
		viewBox="0 0 51.75 53.25" xml:space="preserve" color-interpolation-filters="sRGB" class="st3">
	<v:documentProperties v:langID="4108" v:metric="true" v:viewMarkup="false"/>

	<style type="text/css">
	<![CDATA[
		.st1 {fill:#ffffff;stroke:none;stroke-linecap:butt;stroke-width:0.75}
		.st2 {fill:#515050;stroke:none;stroke-linecap:butt;stroke-width:0.75}
		.st3 {fill:none;fill-rule:evenodd;font-size:12px;overflow:visible;stroke-linecap:square;stroke-miterlimit:3}
	]]>
	</style>

	<g v:mID="0" v:index="1" v:groupContext="foregroundPage">
		<title>Page-1</title>
		<v:pageProperties v:drawingScale="0.0393701" v:pageScale="0.0393701" v:drawingUnits="24" v:shadowOffsetX="8.50394"
				v:shadowOffsetY="-8.50394"/>
		<g id="group103-1" transform="translate(0.75,-0.75)" v:mID="103" v:groupContext="group">
			<title>Chat Room</title>
			<g id="group104-2" v:mID="104" v:groupContext="group">
				<title>Sheet.104</title>
				<g id="group105-3" v:mID="105" v:groupContext="group">
					<title>Sheet.105</title>
					<g id="shape106-4" v:mID="106" v:groupContext="shape">
						<title>Sheet.106</title>
						<path d="M45 1.5 L5.25 1.5 C2.33 1.5 0 3.82 0 6.75 L0 35.25 C0 38.17 2.33 40.5 5.25 40.5 L22.58 40.5 L22.58
									 51 C22.57 51.98 23.18 52.8 24.07 53.1 C24.3 53.17 24.6 53.25 24.83 53.25 C25.5 53.25 26.1 52.95
									 26.55 52.42 L36.75 40.5 L45 40.5 C47.92 40.5 50.25 38.17 50.25 35.25 L50.25 6.75 C50.25 3.82
									 47.92 1.5 45 1.5 Z" class="st1"/>
					</g>
					<g id="shape107-6" v:mID="107" v:groupContext="shape" transform="translate(2.25,-2.25)">
						<title>Sheet.107</title>
						<path d="M42.75 6 L3 6 C1.35 6 0 7.35 0 9 L0 37.5 C0 39.15 1.35 40.5 3 40.5 L22.58 40.5 L22.58 53.25 L33.45
									 40.5 L42.75 40.5 C44.4 40.5 45.75 39.15 45.75 37.5 L45.75 9 C45.75 7.35 44.4 6 42.75 6 Z"
								class="st2"/>
					</g>
				</g>
				<g id="group108-8" transform="translate(6.075,-27)" v:mID="108" v:groupContext="group">
					<title>Sheet.108</title>
					<g id="shape109-9" v:mID="109" v:groupContext="shape">
						<title>Sheet.109</title>
						<path d="M13.5 48.83 C13.2 47.7 12.9 47.1 12.08 46.58 C11.18 46.13 10.65 45.75 10.35 45.75 C10.2 45.75 10.13
									 45.75 9.98 45.83 C9.75 46.05 9.53 46.2 9.3 46.35 C9.3 46.35 9.3 46.35 9.3 46.35 C9.23 46.35
									 9.23 46.43 9.15 46.43 C8.93 46.58 8.63 46.65 8.4 46.73 C7.95 46.88 7.43 46.95 6.98 46.95 C6.45
									 46.95 6 46.88 5.55 46.73 C5.33 46.65 5.03 46.58 4.8 46.43 C4.5 46.28 4.2 46.05 3.98 45.83 C3.9
									 45.83 3.75 45.75 3.68 45.75 C3.38 45.75 3 45.98 2.03 46.58 C1.13 47.1 0.83 47.63 0.6 48.83 C0.38
									 49.88 0.08 52.12 0 53.25 L14.18 53.25 C14.03 52.13 13.73 49.8 13.5 48.83 Z" class="st1"/>
					</g>
					<g id="shape110-11" v:mID="110" v:groupContext="shape" transform="translate(3.525,-7.725)">
						<title>Sheet.110</title>
						<path d="M3.45 53.25 C1.58 53.25 0 51.53 0 49.42 C0 47.32 1.58 45.6 3.45 45.6 C5.33 45.6 6.9 47.32 6.9 49.42
									 C6.9 51.53 5.4 53.25 3.45 53.25 Z" class="st1"/>
					</g>
				</g>
				<g id="group111-13" transform="translate(30.075,-27)" v:mID="111" v:groupContext="group">
					<title>Sheet.111</title>
					<g id="shape112-14" v:mID="112" v:groupContext="shape">
						<title>Sheet.112</title>
						<path d="M13.58 48.83 C13.28 47.7 12.98 47.1 12.15 46.58 C11.25 46.13 10.8 45.75 10.43 45.75 C10.28 45.75
									 10.2 45.75 10.05 45.83 C9.83 46.05 9.6 46.2 9.38 46.35 C9.38 46.35 9.38 46.35 9.38 46.35 C9.3
									 46.35 9.3 46.43 9.23 46.43 C9 46.58 8.7 46.65 8.48 46.73 C8.03 46.88 7.5 46.95 7.05 46.95 C6.53
									 46.95 6.08 46.88 5.63 46.73 C5.4 46.65 5.1 46.58 4.88 46.43 C4.58 46.28 4.28 46.05 4.05 45.83
									 C3.98 45.75 3.83 45.75 3.68 45.75 C3.38 45.75 3 45.98 2.03 46.58 C1.13 47.1 0.83 47.63 0.6 48.83
									 C0.37 49.88 0.07 52.12 0 53.25 L14.18 53.25 C14.1 52.13 13.8 49.8 13.58 48.83 Z" class="st1"/>
					</g>
					<g id="shape113-16" v:mID="113" v:groupContext="shape" transform="translate(3.675,-7.725)">
						<title>Sheet.113</title>
						<path d="M3.45 53.25 C1.58 53.25 0 51.53 0 49.42 C-0 47.32 1.58 45.6 3.45 45.6 C5.33 45.6 6.9 47.32 6.9 49.42
									 C6.9 51.53 5.33 53.25 3.45 53.25 Z" class="st1"/>
					</g>
				</g>
				<g id="group114-18" transform="translate(16.425,-20.25)" v:mID="114" v:groupContext="group">
					<title>Sheet.114</title>
					<g id="shape115-19" v:mID="115" v:groupContext="shape">
						<title>Sheet.115</title>
						<path d="M0 53.25 L0.08 51.67 C0.15 50.55 0.45 48.15 0.68 47.02 C0.98 45.67 1.5 44.62 2.85 43.87 L3.23 43.65
									 C4.13 43.12 4.57 42.9 5.25 42.9 C5.62 42.9 6 42.97 6.3 43.2 L6.45 43.27 L6.6 43.42 C6.75 43.57
									 6.98 43.72 7.13 43.8 C7.28 43.87 7.43 43.95 7.58 44.02 C7.95 44.17 8.25 44.17 8.55 44.17 C8.85
									 44.17 9.23 44.1 9.53 44.02 C9.68 43.95 9.83 43.95 9.98 43.87 L10.13 43.72 L10.28 43.65 C10.43
									 43.57 10.5 43.5 10.58 43.35 L10.73 43.2 L10.88 43.12 C11.18 42.97 11.55 42.82 11.93 42.82 C12.6
									 42.82 13.13 43.12 13.88 43.57 L14.33 43.8 C15.68 44.55 16.2 45.6 16.5 47.02 C16.73 48.15 17.03
									 50.55 17.1 51.67 L17.33 53.25 L0 53.25 Z" class="st2"/>
					</g>
					<g id="shape116-21" v:mID="116" v:groupContext="shape" transform="translate(1.65,-1.5)">
						<title>Sheet.116</title>
						<path d="M13.5 48.82 C13.2 47.7 12.9 47.1 12.08 46.57 C11.18 46.12 10.65 45.75 10.35 45.75 C10.2 45.75 10.13
									 45.75 9.98 45.82 C9.75 46.05 9.53 46.2 9.3 46.35 C9.3 46.35 9.3 46.35 9.3 46.35 C9.23 46.35
									 9.23 46.42 9.15 46.42 C8.93 46.57 8.63 46.65 8.4 46.72 C7.95 46.87 7.43 46.95 6.98 46.95 C6.45
									 46.95 6 46.87 5.55 46.72 C5.33 46.65 5.03 46.57 4.8 46.42 C4.5 46.27 4.2 46.05 3.98 45.82 C3.9
									 45.82 3.75 45.75 3.68 45.75 C3.38 45.75 3 45.97 2.03 46.57 C1.13 47.1 0.83 47.62 0.6 48.82 C0.37
									 49.87 0.07 52.12 0 53.25 L14.18 53.25 C14.03 52.12 13.73 49.8 13.5 48.82 Z" class="st1"/>
					</g>
					<g id="shape117-23" v:mID="117" v:groupContext="shape" transform="translate(3.675,-7.725)">
						<title>Sheet.117</title>
						<path d="M4.95 53.25 C2.25 53.25 0 50.85 0 47.92 C0 45 2.25 42.6 4.95 42.6 C7.65 42.6 9.9 45 9.9 47.92 C9.9
									 50.85 7.73 53.25 4.95 53.25 Z" class="st2"/>
					</g>
					<g id="shape118-25" v:mID="118" v:groupContext="shape" transform="translate(5.175,-9.225)">
						<title>Sheet.118</title>
						<path d="M3.45 53.25 C1.58 53.25 0 51.52 0 49.42 C0 47.32 1.58 45.6 3.45 45.6 C5.33 45.6 6.9 47.32 6.9 49.42
									 C6.9 51.52 5.4 53.25 3.45 53.25 Z" class="st1"/>
					</g>
				</g>
			</g>
		</g>
	</g>
</svg>
