<?xml version="1.0" encoding="UTF-8" standalone="no"?>
<!DOCTYPE svg PUBLIC "-//W3C//DTD SVG 1.1//EN" "http://www.w3.org/Graphics/SVG/1.1/DTD/svg11.dtd">
<!-- Generated by Microsoft Visio, SVG Export Conference Announcement Service.svg Page-1 -->
<svg xmlns="http://www.w3.org/2000/svg" xmlns:xlink="http://www.w3.org/1999/xlink" xmlns:ev="http://www.w3.org/2001/xml-events"
		xmlns:v="http://schemas.microsoft.com/visio/2003/SVGExtensions/" width="0.903125in" height="0.90625in"
		viewBox="0 0 65.025 65.25" xml:space="preserve" color-interpolation-filters="sRGB" class="st4">
	<v:documentProperties v:langID="4108" v:metric="true" v:viewMarkup="false"/>

	<style type="text/css">
	<![CDATA[
		.st1 {fill:#ffffff;stroke:none;stroke-linecap:butt;stroke-width:0.75}
		.st2 {fill:#515150;stroke:none;stroke-linecap:butt;stroke-width:0.75}
		.st3 {fill:#515251;stroke:none;stroke-linecap:butt;stroke-width:0.75}
		.st4 {fill:none;fill-rule:evenodd;font-size:12px;overflow:visible;stroke-linecap:square;stroke-miterlimit:3}
	]]>
	</style>

	<g v:mID="0" v:index="1" v:groupContext="foregroundPage">
		<title>Page-1</title>
		<v:pageProperties v:drawingScale="0.0393701" v:pageScale="0.0393701" v:drawingUnits="24" v:shadowOffsetX="8.50394"
				v:shadowOffsetY="-8.50394"/>
		<g id="group119-1" transform="translate(0.75,-0.75)" v:mID="119" v:groupContext="group">
			<title>Conference Announcement Service</title>
			<g id="group120-2" transform="translate(-9.59233E-14,-16.5)" v:mID="120" v:groupContext="group">
				<title>Layer_2_7_</title>
				<g id="group121-3" v:mID="121" v:groupContext="group">
					<title>Sheet.121</title>
					<g id="shape122-4" v:mID="122" v:groupContext="shape">
						<title>Sheet.122</title>
						<rect x="0" y="18" width="57" height="47.25" class="st1"/>
					</g>
					<g id="shape123-6" v:mID="123" v:groupContext="shape" transform="translate(2.25,-2.25)">
						<title>Sheet.123</title>
						<rect x="0" y="22.5" width="52.5" height="42.75" class="st2"/>
					</g>
				</g>
				<g id="shape124-8" v:mID="124" v:groupContext="shape" transform="translate(4.5,-4.5)">
					<title>Sheet.124</title>
					<rect x="0" y="27" width="48" height="38.25" class="st1"/>
				</g>
			</g>
			<g id="group125-10" transform="translate(30.075,-8.52651E-14)" v:mID="125" v:groupContext="group">
				<title>Sheet.125</title>
				<g id="shape126-11" v:mID="126" v:groupContext="shape">
					<title>Sheet.126</title>
					<path d="M20.85 65.25 C19.65 65.25 18.52 64.5 18.07 63.37 L17.4 61.8 C17.25 61.8 17.02 61.8 16.8 61.8 C16.57
								 61.8 16.35 61.8 16.12 61.8 L15.45 63.37 C15.07 64.5 13.95 65.25 12.75 65.25 C12.38 65.25 11.93 65.17
								 11.62 65.03 L8.77 63.82 C8.03 63.52 7.42 62.92 7.12 62.17 C6.83 61.42 6.83 60.6 7.12 59.85 L7.8
								 58.27 L6.97 57.45 L5.4 58.12 C5.03 58.27 4.65 58.35 4.27 58.35 C3.07 58.35 1.95 57.6 1.5 56.47 L0.3
								 53.62 C-0 52.88 -0 52.05 0.3 51.3 C0.6 50.55 1.2 49.95 1.95 49.65 L3.52 48.97 L3.52 47.77 L1.95
								 47.1 C1.2 46.8 0.6 46.2 0.3 45.45 C-0 44.7 -0 43.88 0.3 43.12 L1.5 40.27 C1.95 39.15 3.07 38.4 4.27
								 38.4 C4.65 38.4 5.03 38.47 5.4 38.62 L6.97 39.3 L7.8 38.47 L7.12 36.9 C6.83 36.15 6.83 35.32 7.12
								 34.57 C7.42 33.83 8.03 33.22 8.77 32.92 L11.62 31.72 C12 31.57 12.38 31.5 12.75 31.5 C13.95 31.5
								 15.07 32.25 15.52 33.37 L16.12 34.87 C16.28 34.87 16.5 34.87 16.72 34.87 C16.95 34.87 17.17 34.87
								 17.4 34.87 L18 33.3 C18.45 32.17 19.57 31.42 20.77 31.42 C21.15 31.42 21.52 31.5 21.9 31.65 L24.75
								 32.85 C25.5 33.15 26.1 33.75 26.4 34.5 C26.7 35.25 26.7 36.07 26.4 36.82 L25.72 38.4 L26.55 39.22
								 L28.12 38.55 C28.5 38.4 28.87 38.32 29.25 38.32 C30.45 38.32 31.57 39.08 32.02 40.2 L33.22 43.05
								 C33.52 43.8 33.52 44.62 33.22 45.37 C32.92 46.12 32.32 46.72 31.57 47.02 L30 47.7 L30 48.9 L31.57
								 49.57 C33.15 50.25 33.82 51.97 33.22 53.55 L32.02 56.4 C31.57 57.52 30.45 58.27 29.25 58.27 C28.87
								 58.27 28.42 58.2 28.05 58.05 L26.47 57.37 L25.65 58.2 L26.32 59.77 C26.62 60.52 26.62 61.35 26.32
								 62.1 C26.02 62.85 25.42 63.45 24.67 63.75 L21.82 64.95 C21.67 65.17 21.22 65.25 20.85 65.25 Z"
							class="st1"/>
				</g>
				<g id="shape127-13" v:mID="127" v:groupContext="shape" transform="translate(2.025,-2.1)">
					<title>Sheet.127</title>
					<path d="M28.95 53.85 L26.55 52.87 C26.17 52.73 25.87 52.5 25.87 52.42 C25.87 52.35 25.95 51.9 25.95 51.52 L25.95
								 49.57 C25.95 49.12 25.87 48.75 25.87 48.67 C25.87 48.6 26.17 48.37 26.55 48.22 L28.95 47.25 C29.32
								 47.1 29.55 46.65 29.4 46.2 L28.2 43.35 C28.05 42.98 27.6 42.75 27.15 42.9 L24.75 43.87 C24.37 44.02
								 24 44.1 23.92 44.02 C23.85 43.95 23.62 43.65 23.32 43.27 L21.9 41.92 C21.6 41.62 21.22 41.4 21.22
								 41.32 C21.15 41.25 21.22 40.95 21.37 40.5 L22.35 38.1 C22.5 37.73 22.35 37.28 21.9 37.05 L19.05
								 35.85 C18.67 35.7 18.22 35.85 18 36.3 L17.02 38.7 C16.87 39.07 16.65 39.37 16.57 39.37 C16.5 39.37
								 16.05 39.3 15.67 39.22 C15.67 39.22 15.3 39.15 14.7 39.15 C14.1 39.15 13.72 39.22 13.72 39.22 C13.27
								 39.3 12.9 39.3 12.82 39.37 C12.75 39.37 12.52 39.07 12.37 38.7 L11.4 36.3 C11.25 35.92 10.8 35.7
								 10.35 35.85 L7.5 37.05 C7.13 37.2 6.9 37.65 7.05 38.1 L8.02 40.5 C8.17 40.87 8.25 41.25 8.17 41.32
								 C8.1 41.4 7.8 41.62 7.5 41.92 L6.07 43.35 C5.77 43.65 5.55 44.02 5.47 44.1 C5.4 44.17 5.1 44.1 4.65
								 43.95 L2.4 42.82 C2.02 42.68 1.57 42.83 1.35 43.27 L0.15 46.12 C0 46.5 0.15 46.95 0.6 47.17 L3 48.15
								 C3.37 48.3 3.67 48.52 3.67 48.6 C3.67 48.67 3.6 49.12 3.6 49.5 L3.6 51.45 C3.6 51.9 3.67 52.28 3.67
								 52.35 C3.67 52.43 3.37 52.65 3 52.8 L0.6 53.85 C0.23 54 0 54.45 0.15 54.9 L1.35 57.75 C1.5 58.12
								 1.95 58.35 2.4 58.2 L4.8 57.22 C5.17 57.08 5.55 57 5.62 57.07 C5.7 57.15 5.92 57.45 6.22 57.82 L7.65
								 59.17 C7.95 59.47 8.32 59.7 8.4 59.77 C8.47 59.85 8.4 60.22 8.25 60.6 L7.12 62.85 C6.98 63.22 7.13
								 63.67 7.57 63.9 L10.42 65.1 C10.8 65.25 11.25 65.1 11.47 64.65 L12.45 62.25 C12.6 61.88 12.82 61.58
								 12.9 61.57 C12.97 61.58 13.42 61.65 13.8 61.72 C13.8 61.73 14.17 61.8 14.77 61.8 C15.37 61.8 15.75
								 61.73 15.75 61.72 C16.2 61.65 16.57 61.65 16.65 61.57 C16.72 61.58 16.95 61.88 17.1 62.25 L18.07
								 64.65 C18.22 65.03 18.67 65.25 19.12 65.1 L21.97 63.9 C22.35 63.75 22.57 63.3 22.42 62.85 L21.45
								 60.45 C21.3 60.07 21.22 59.7 21.3 59.62 C21.37 59.55 21.67 59.32 22.05 59.02 L23.47 57.6 C23.77
								 57.3 24 56.93 24.07 56.85 C24.15 56.78 24.45 56.85 24.9 57 L27.3 57.97 C27.67 58.12 28.12 57.97
								 28.35 57.52 L29.55 54.67 C29.47 54.45 29.32 54 28.95 53.85 ZM14.77 58.2 C10.5 58.2 7.05 54.75 7.05
								 50.47 C7.05 46.2 10.5 42.75 14.77 42.75 C19.05 42.75 22.5 46.2 22.5 50.47 C22.5 54.75 19.05 58.2
								 14.77 58.2 Z" class="st3"/>
				</g>
			</g>
			<g id="group128-15" transform="translate(9.525,-28.2)" v:mID="128" v:groupContext="group">
				<title>Sheet.128</title>
				<g id="shape129-16" v:mID="129" v:groupContext="shape" transform="translate(3.15,-4.425)">
					<title>Sheet.129</title>
					<path d="M10.42 48.38 C8.77 48.38 2.32 48.38 2.32 48.38 C1.05 48.45 0 49.42 0 50.7 L0 57.15 C0 58.5 1.05 59.48
								 2.32 59.48 C2.32 59.48 8.7 59.48 10.42 59.48 C12.67 59.48 19.95 59.93 24.37 64.8 C24.75 65.25 25.5
								 64.72 25.5 64.12 L25.5 43.2 C25.5 42.6 24.67 42.15 24.3 42.6 C19.8 47.4 12.75 48.38 10.42 48.38
								 Z" class="st3"/>
				</g>
				<g id="shape130-18" v:mID="130" v:groupContext="shape" transform="translate(-1.15907E-13,-11.775)">
					<title>Sheet.130</title>
					<path d="M3 65.25 L4.87 65.25 C6.52 65.25 7.87 63.53 7.87 61.35 L7.87 61.28 C7.87 59.03 6.52 57.38 4.87 57.38
								 L3 57.38 C1.35 57.38 0 59.1 0 61.28 L0 61.35 C0 63.53 1.35 65.25 3 65.25 Z" class="st3"/>
				</g>
				<g id="shape131-20" v:mID="131" v:groupContext="shape" transform="translate(5.55,9.9476E-14)">
					<title>Sheet.131</title>
					<path d="M1.05 56.93 C1.2 57.45 2.32 60.15 2.55 60.98 C2.85 62.03 3.45 63.45 3.45 63.98 C3.45 64.5 3.6 65.25
								 3.97 65.25 C4.8 65.25 6.97 63.75 7.05 63.45 C7.2 62.78 6.15 62.63 6.22 62.1 C6.37 60.68 5.7 58.88
								 5.55 58.28 C5.47 58.13 5.55 57.98 5.77 57.9 C6 57.83 6.37 57.75 6.45 57.45 C6.67 56.85 6.15 56.18
								 6.07 55.8 C6 55.43 6.75 55.2 6.97 55.13 C7.72 55.05 8.55 54.98 9.37 54.98 C9.6 54.98 8.32 54.45
								 8.32 54.45 L5.77 54 L0.9 54 C0.9 54 0.6 52.95 0.3 53.4 C-0 54 0.15 54.98 0.15 54.98 L1.05 56.93
								 Z" class="st3"/>
				</g>
				<g id="group132-22" transform="translate(22.95,-8.175)" v:mID="132" v:groupContext="group">
					<title>Sheet.132</title>
					<g id="shape133-23" v:mID="133" v:groupContext="shape" transform="translate(3.4972E-15,-4.875)">
						<title>Sheet.133</title>
						<path d="M0 62.25 C0 63.45 0.6 64.57 1.57 65.25 L6 65.25 C6.9 64.57 7.58 63.53 7.57 62.25 C7.58 60.82 6.82
									 59.7 5.62 59.02 L2.7 58.72 C1.13 59.25 0 60.6 0 62.25 Z" class="st3"/>
					</g>
					<g id="shape134-25" v:mID="134" v:groupContext="shape" transform="translate(8.175,-2.85)">
						<title>Sheet.134</title>
						<path d="M0.9 54.97 L0 56.25 C0.98 57.3 1.58 58.73 1.58 60.23 C1.58 61.72 1.05 63.07 0.15 64.12 L1.12 65.25
									 C2.33 63.9 3.08 62.18 3.08 60.23 C3.07 58.2 2.25 56.33 0.9 54.97 Z" class="st3"/>
					</g>
					<g id="shape135-27" v:mID="135" v:groupContext="shape" transform="translate(10.35,0)">
						<title>Sheet.135</title>
						<path d="M0.9 49.05 L0 50.25 C1.95 52.05 3.15 54.52 3.15 57.37 C3.15 60 2.1 62.32 0.45 64.13 L1.42 65.25
									 C3.45 63.22 4.65 60.45 4.65 57.37 C4.65 54.08 3.22 51.07 0.9 49.05 Z" class="st3"/>
					</g>
				</g>
			</g>
		</g>
	</g>
</svg>
