<?xml version="1.0" encoding="UTF-8" standalone="no"?>
<!DOCTYPE svg PUBLIC "-//W3C//DTD SVG 1.1//EN" "http://www.w3.org/Graphics/SVG/1.1/DTD/svg11.dtd">
<!-- Generated by Microsoft Visio, SVG Export Disconnected Mailbox.svg Page-1 -->
<svg xmlns="http://www.w3.org/2000/svg" xmlns:xlink="http://www.w3.org/1999/xlink" xmlns:ev="http://www.w3.org/2001/xml-events"
		xmlns:v="http://schemas.microsoft.com/visio/2003/SVGExtensions/" width="0.90625in" height="0.84375in"
		viewBox="0 0 65.25 60.75" xml:space="preserve" color-interpolation-filters="sRGB" class="st3">
	<v:documentProperties v:langID="4108" v:metric="true" v:viewMarkup="false"/>

	<style type="text/css">
	<![CDATA[
		.st1 {fill:#ffffff;stroke:none;stroke-linecap:butt;stroke-width:0.75}
		.st2 {fill:#515150;stroke:none;stroke-linecap:butt;stroke-width:0.75}
		.st3 {fill:none;fill-rule:evenodd;font-size:12px;overflow:visible;stroke-linecap:square;stroke-miterlimit:3}
	]]>
	</style>

	<g v:mID="0" v:index="1" v:groupContext="foregroundPage">
		<title>Page-1</title>
		<v:pageProperties v:drawingScale="0.0393701" v:pageScale="0.0393701" v:drawingUnits="24" v:shadowOffsetX="8.50394"
				v:shadowOffsetY="-8.50394"/>
		<g id="group136-1" transform="translate(0.75,-0.75)" v:mID="136" v:groupContext="group">
			<title>Disconnected Mailbox</title>
			<g id="group137-2" transform="translate(-1.07914E-13,-6)" v:mID="137" v:groupContext="group">
				<title>Sheet.137</title>
				<g id="group138-3" v:mID="138" v:groupContext="group">
					<title>Sheet.138</title>
					<g id="shape139-4" v:mID="139" v:groupContext="shape">
						<title>Sheet.139</title>
						<path d="M0 45.75 L0 60.75 L57 60.75 L57 45.75 L57 43.2 L56.55 41.25 L52.8 25.58 L51.75 25.58 L51.75 13.5
									 L50.25 13.5 L50.25 7.5 L6.75 7.5 L6.75 13.5 L5.25 13.5 L5.25 25.58 L4.2 25.58 L0.45 41.25 L0
									 43.2 L0 45.75 Z" class="st1"/>
					</g>
					<g id="group140-6" transform="translate(15,-21.75)" v:mID="140" v:groupContext="group">
						<title>Sheet.140</title>
						<g id="shape141-7" v:mID="141" v:groupContext="shape" transform="translate(23.25,-11.25)">
							<title>Sheet.141</title>
							<rect x="0" y="54" width="6" height="6.75" class="st2"/>
						</g>
						<g id="shape142-9" v:mID="142" v:groupContext="shape" transform="translate(-4.29656E-14,-5.25)">
							<title>Sheet.142</title>
							<rect x="0" y="58.5" width="15.75" height="2.25" class="st2"/>
						</g>
						<g id="shape143-11" v:mID="143" v:groupContext="shape">
							<title>Sheet.143</title>
							<rect x="0" y="58.5" width="20.25" height="2.25" class="st2"/>
						</g>
					</g>
					<g id="shape144-13" v:mID="144" v:groupContext="shape" transform="translate(9,-47.25)">
						<title>Sheet.144</title>
						<path d="M0 57 L0 60.75 L2.25 60.75 L2.25 59.25 L36.75 59.25 L36.75 60.75 L39 60.75 L39 57 L0 57 Z"
								class="st2"/>
					</g>
				</g>
				<g id="shape145-15" v:mID="145" v:groupContext="shape" transform="translate(2.25,-2.25)">
					<title>Sheet.145</title>
					<path d="M48.75 30.08 L47.25 30.08 L47.25 18 L5.25 18 L5.25 30.08 L3.75 30.08 L0 45.75 L0 60.75 L52.5 60.75 L52.5
								 45.75 L48.75 30.08 ZM45 30.08 L45 45.75 L7.5 45.75 L7.5 30.08 L7.5 20.25 L45 20.25 L45 30.08 Z"
							class="st2"/>
				</g>
			</g>
			<g id="group146-17" transform="translate(31.5,-1.63425E-13)" v:mID="146" v:groupContext="group">
				<title>Sheet.146</title>
				<g id="shape147-18" v:mID="147" v:groupContext="shape">
					<title>Sheet.147</title>
					<path d="M16.13 60.75 C7.2 60.75 0 53.55 0 44.63 C-0 35.7 7.2 28.5 16.13 28.5 C25.05 28.5 32.25 35.7 32.25 44.63
								 C32.25 53.55 25.05 60.75 16.13 60.75 Z" class="st1"/>
				</g>
				<g id="shape148-20" v:mID="148" v:groupContext="shape" transform="translate(2.25,-2.25)">
					<title>Sheet.148</title>
					<path d="M13.88 33 C6.22 33 0 39.23 0 46.88 C0 54.53 6.22 60.75 13.88 60.75 C21.53 60.75 27.75 54.53 27.75 46.88
								 C27.75 39.23 21.53 33 13.88 33 ZM21 47.55 L13.88 54.75 L6.75 47.48 L6.75 43.5 L12 48.75 L12 39 L15.75
								 39 L15.75 48.75 L21 43.5 L21 47.55 Z" class="st2"/>
				</g>
			</g>
		</g>
	</g>
</svg>
