<?xml version="1.0" encoding="UTF-8" standalone="no"?>
<!DOCTYPE svg PUBLIC "-//W3C//DTD SVG 1.1//EN" "http://www.w3.org/Graphics/SVG/1.1/DTD/svg11.dtd">
<!-- Generated by Microsoft Visio, SVG Export Discovery Search Mailbox.svg Page-1 -->
<svg xmlns="http://www.w3.org/2000/svg" xmlns:xlink="http://www.w3.org/1999/xlink" xmlns:ev="http://www.w3.org/2001/xml-events"
		xmlns:v="http://schemas.microsoft.com/visio/2003/SVGExtensions/" width="0.835089in" height="0.760417in"
		viewBox="0 0 60.1264 54.75" xml:space="preserve" color-interpolation-filters="sRGB" class="st3">
	<v:documentProperties v:langID="4108" v:metric="true" v:viewMarkup="false"/>

	<style type="text/css">
	<![CDATA[
		.st1 {fill:#ffffff;stroke:none;stroke-linecap:butt;stroke-width:0.75}
		.st2 {fill:#515150;stroke:none;stroke-linecap:butt;stroke-width:0.75}
		.st3 {fill:none;fill-rule:evenodd;font-size:12px;overflow:visible;stroke-linecap:square;stroke-miterlimit:3}
	]]>
	</style>

	<g v:mID="0" v:index="1" v:groupContext="foregroundPage">
		<title>Page-1</title>
		<v:pageProperties v:drawingScale="0.0393701" v:pageScale="0.0393701" v:drawingUnits="24" v:shadowOffsetX="8.50394"
				v:shadowOffsetY="-8.50394"/>
		<g id="group149-1" transform="translate(0.576411,-0.75)" v:mID="149" v:groupContext="group">
			<title>Discovery Search Mailbox</title>
			<g id="group150-2" transform="translate(1.8,0)" v:mID="150" v:groupContext="group">
				<title>Sheet.150</title>
				<g id="group151-3" v:mID="151" v:groupContext="group">
					<title>Sheet.151</title>
					<g id="shape152-4" v:mID="152" v:groupContext="shape">
						<title>Sheet.152</title>
						<path d="M0 39.75 L0 54.75 L57 54.75 L57 39.75 L57 37.2 L56.55 35.25 L52.8 19.58 L51.75 19.58 L51.75 7.5
									 L50.25 7.5 L50.25 1.5 L6.75 1.5 L6.75 7.5 L5.25 7.5 L5.25 19.58 L4.2 19.58 L0.45 35.25 L0 37.2
									 L0 39.75 Z" class="st1"/>
					</g>
					<g id="group153-6" transform="translate(15,-21.75)" v:mID="153" v:groupContext="group">
						<title>Sheet.153</title>
						<g id="shape154-7" v:mID="154" v:groupContext="shape" transform="translate(23.25,-11.25)">
							<title>Sheet.154</title>
							<rect x="0" y="48" width="6" height="6.75" class="st2"/>
						</g>
						<g id="shape155-9" v:mID="155" v:groupContext="shape" transform="translate(0,-5.25)">
							<title>Sheet.155</title>
							<rect x="0" y="52.5" width="15.75" height="2.25" class="st2"/>
						</g>
						<g id="shape156-11" v:mID="156" v:groupContext="shape">
							<title>Sheet.156</title>
							<rect x="0" y="52.5" width="20.25" height="2.25" class="st2"/>
						</g>
					</g>
					<g id="shape157-13" v:mID="157" v:groupContext="shape" transform="translate(9,-47.25)">
						<title>Sheet.157</title>
						<path d="M0 51 L0 54.75 L2.25 54.75 L2.25 53.25 L36.75 53.25 L36.75 54.75 L39 54.75 L39 51 L0 51 Z"
								class="st2"/>
					</g>
				</g>
				<g id="shape158-15" v:mID="158" v:groupContext="shape" transform="translate(2.25,-2.25)">
					<title>Sheet.158</title>
					<path d="M48.75 24.08 L47.25 24.08 L47.25 12 L5.25 12 L5.25 24.08 L3.75 24.08 L0 39.75 L0 54.75 L52.5 54.75 L52.5
								 39.75 L48.75 24.08 ZM45 24.08 L45 39.75 L7.5 39.75 L7.5 24.08 L7.5 14.25 L45 14.25 L45 24.08 Z"
							class="st2"/>
				</g>
			</g>
			<g id="group159-17" transform="translate(1.35891E-13,-0.75)" v:mID="159" v:groupContext="group">
				<title>Sheet.159</title>
				<g id="shape160-18" v:mID="160" v:groupContext="shape">
					<title>Sheet.160</title>
					<path d="M24.98 15.67 C17.1 15.67 10.65 22.12 10.65 30 C10.65 32.25 11.18 34.5 12.23 36.52 C11.4 36.82 10.65
								 37.27 10.05 37.87 L1.8 46.05 C0.98 46.87 0.38 48.08 0.23 49.27 C-0 50.78 0.52 52.27 1.58 53.32 C2.55
								 54.3 3.68 54.75 5.03 54.75 C6.45 54.75 7.95 54.15 8.93 53.1 L17.1 44.92 C17.7 44.32 18.15 43.58
								 18.45 42.67 C20.47 43.73 22.73 44.25 24.98 44.25 C32.85 44.32 39.3 37.87 39.3 30 C39.3 22.12 32.85
								 15.67 24.98 15.67 ZM24.98 37.65 C20.77 37.65 17.33 34.2 17.33 30 C17.33 25.8 20.78 22.35 24.98 22.35
								 C29.18 22.35 32.63 25.8 32.63 30 C32.63 34.2 29.18 37.65 24.98 37.65 Z" class="st1"/>
				</g>
				<g id="shape161-20" v:mID="161" v:groupContext="shape" transform="translate(2.4,-2.25)">
					<title>Sheet.161</title>
					<path d="M22.58 20.18 C15.9 20.18 10.5 25.57 10.5 32.25 C10.5 35.03 11.48 37.57 13.05 39.6 L11.85 40.8 C11.78
								 40.8 11.63 40.8 11.55 40.8 C10.73 40.8 9.82 41.17 9.23 41.78 L0.98 49.88 C0.45 50.4 0.15 51.08 0.08
								 51.82 C0 52.65 0.23 53.48 0.83 54 C1.28 54.45 1.95 54.75 2.63 54.75 C3.45 54.75 4.35 54.37 4.95
								 53.78 L13.13 45.6 C13.65 45.08 13.95 44.33 14.03 43.58 C14.02 43.35 14.02 43.13 14.03 42.98 L15.23
								 41.78 C17.25 43.35 19.8 44.33 22.58 44.33 C29.25 44.33 34.65 38.92 34.65 32.25 C34.65 25.57 29.25
								 20.18 22.58 20.18 ZM22.58 42.15 C17.1 42.15 12.68 37.73 12.68 32.25 C12.68 26.77 17.1 22.35 22.58
								 22.35 C28.05 22.35 32.48 26.77 32.48 32.25 C32.48 37.73 28.05 42.15 22.58 42.15 Z" class="st2"/>
				</g>
			</g>
		</g>
	</g>
</svg>
