<?xml version="1.0" encoding="UTF-8" standalone="no"?>
<!DOCTYPE svg PUBLIC "-//W3C//DTD SVG 1.1//EN" "http://www.w3.org/Graphics/SVG/1.1/DTD/svg11.dtd">
<!-- Generated by Microsoft Visio, SVG Export Dynamic Distribution Group.svg Page-1 -->
<svg xmlns="http://www.w3.org/2000/svg" xmlns:xlink="http://www.w3.org/1999/xlink" xmlns:ev="http://www.w3.org/2001/xml-events"
		xmlns:v="http://schemas.microsoft.com/visio/2003/SVGExtensions/" width="0.894792in" height="0.90625in"
		viewBox="0 0 64.425 65.25" xml:space="preserve" color-interpolation-filters="sRGB" class="st4">
	<v:documentProperties v:langID="4108" v:metric="true" v:viewMarkup="false"/>

	<style type="text/css">
	<![CDATA[
		.st1 {fill:#ffffff;stroke:none;stroke-linecap:butt;stroke-width:0.75}
		.st2 {fill:#515251;stroke:none;stroke-linecap:butt;stroke-width:0.75}
		.st3 {fill:#515050;stroke:none;stroke-linecap:butt;stroke-width:0.75}
		.st4 {fill:none;fill-rule:evenodd;font-size:12px;overflow:visible;stroke-linecap:square;stroke-miterlimit:3}
	]]>
	</style>

	<g v:mID="0" v:index="1" v:groupContext="foregroundPage">
		<title>Page-1</title>
		<v:pageProperties v:drawingScale="0.0393701" v:pageScale="0.0393701" v:drawingUnits="24" v:shadowOffsetX="8.50394"
				v:shadowOffsetY="-8.50394"/>
		<g id="group162-1" transform="translate(0.75,-0.75)" v:mID="162" v:groupContext="group">
			<title>Dynamic Distribution Group</title>
			<g id="group163-2" transform="translate(24.75,-23.775)" v:mID="163" v:groupContext="group">
				<title>Sheet.163</title>
				<g id="shape164-3" v:mID="164" v:groupContext="shape">
					<title>Sheet.164</title>
					<path d="M0 65.25 L0.15 62.85 C0.3 60.22 0.98 54.82 1.5 52.27 C2.18 49.35 3.08 47.32 5.93 45.75 L6.9 45.22 C8.85
								 44.1 9.75 43.57 10.95 43.57 C11.62 43.57 12.23 43.72 12.83 44.02 L13.05 44.17 L13.28 44.32 C13.73
								 44.77 14.25 45.15 14.78 45.37 C15.22 45.67 15.6 45.82 16.05 45.97 L16.13 45.97 C16.95 46.27 17.85
								 46.42 18.68 46.42 C19.58 46.42 20.4 46.27 21.23 45.97 C21.75 45.82 22.13 45.67 22.5 45.37 L22.73
								 45.22 L22.95 45.07 C23.33 44.85 23.7 44.55 24 44.25 L24.23 44.1 L24.45 43.95 C25.05 43.65 25.65
								 43.5 26.33 43.5 C27.53 43.5 28.57 44.1 30.3 45.07 C30.6 45.22 30.98 45.45 31.35 45.67 C34.2 47.25
								 35.1 49.27 35.78 52.27 C36.38 54.82 36.98 60.22 37.13 62.85 L37.28 65.25 L0 65.25 Z" class="st1"/>
				</g>
				<g id="shape165-5" v:mID="165" v:groupContext="shape" transform="translate(2.325,-2.25)">
					<title>Sheet.165</title>
					<path d="M31.28 55.05 C30.68 52.35 29.93 51.08 27.9 49.95 C25.88 48.83 24.75 48.08 24 48.08 C23.7 48.08 23.4
								 48.15 23.18 48.3 C22.65 48.75 22.13 49.13 21.6 49.5 C21.6 49.5 21.6 49.5 21.6 49.5 C21.53 49.57
								 21.45 49.65 21.3 49.65 C20.7 50.03 20.18 50.25 19.58 50.4 C18.6 50.78 17.47 51 16.35 51 C15.15 51
								 14.1 50.78 13.05 50.4 C12.45 50.25 11.93 49.95 11.33 49.65 C10.65 49.28 10.05 48.83 9.45 48.3 C9.23
								 48.15 9 48.08 8.63 48.08 C7.88 48.08 7.13 48.6 4.73 49.95 C2.7 51.08 2.03 52.35 1.35 55.05 C0.83
								 57.38 0.22 62.7 0 65.25 L32.55 65.25 C32.48 62.7 31.8 57.38 31.28 55.05 Z" class="st2"/>
				</g>
				<g id="shape166-7" v:mID="166" v:groupContext="shape" transform="translate(8.475,-17.85)">
					<title>Sheet.166</title>
					<path d="M10.2 65.25 C4.57 65.25 0 60.3 0 54.15 C0 48.07 4.57 43.12 10.2 43.12 C15.83 43.12 20.4 48.07 20.4 54.22
								 C20.4 60.3 15.83 65.25 10.2 65.25 Z" class="st1"/>
				</g>
				<g id="shape167-9" v:mID="167" v:groupContext="shape" transform="translate(10.725,-20.1)">
					<title>Sheet.167</title>
					<path d="M7.95 65.25 C3.6 65.25 0 61.27 0 56.4 C0 51.6 3.53 47.63 7.95 47.63 C12.3 47.63 15.9 51.6 15.9 56.47
								 C15.9 61.35 12.3 65.25 7.95 65.25 Z" class="st2"/>
				</g>
			</g>
			<g id="group168-11" transform="translate(-2.43805E-13,-15.825)" v:mID="168" v:groupContext="group">
				<title>Sheet.168</title>
				<g id="shape169-12" v:mID="169" v:groupContext="shape">
					<title>Sheet.169</title>
					<path d="M0 65.25 L0.15 62.85 C0.3 60.22 0.9 54.82 1.5 52.27 C2.18 49.35 3.15 47.32 5.93 45.75 L6.9 45.22 C8.85
								 44.1 9.75 43.57 10.95 43.57 C11.63 43.57 12.23 43.72 12.83 44.02 L13.05 44.17 L13.28 44.32 C13.73
								 44.77 14.25 45.15 14.78 45.37 C15.22 45.67 15.6 45.82 16.05 45.97 L16.13 45.97 C16.95 46.27 17.85
								 46.42 18.68 46.42 C19.58 46.42 20.4 46.27 21.23 45.97 C21.75 45.82 22.13 45.67 22.5 45.37 L22.73
								 45.22 L22.95 45.07 C23.33 44.85 23.7 44.55 24 44.25 L24.23 44.1 L24.45 43.95 C25.05 43.65 25.65
								 43.5 26.33 43.5 C27.53 43.5 28.57 44.1 30.3 45.07 C30.6 45.22 30.98 45.45 31.35 45.67 C34.2 47.25
								 35.1 49.27 35.78 52.27 C36.38 54.82 36.98 60.22 37.13 62.85 L37.28 65.25 L0 65.25 Z" class="st1"/>
				</g>
				<g id="shape170-14" v:mID="170" v:groupContext="shape" transform="translate(2.325,-2.25)">
					<title>Sheet.170</title>
					<path d="M31.28 55.05 C30.68 52.35 29.93 51.08 27.9 49.95 C25.88 48.83 24.75 48.08 24 48.08 C23.7 48.08 23.4
								 48.15 23.18 48.3 C22.65 48.75 22.13 49.13 21.6 49.5 C21.6 49.5 21.6 49.5 21.6 49.5 C21.53 49.57
								 21.45 49.65 21.3 49.65 C20.7 50.03 20.17 50.25 19.58 50.4 C18.52 50.78 17.4 51 16.28 51 C15.08 51
								 14.03 50.78 12.98 50.4 C12.37 50.25 11.85 49.95 11.25 49.65 C10.58 49.28 9.98 48.83 9.38 48.3 C9.15
								 48.15 8.93 48.08 8.55 48.08 C7.8 48.08 7.05 48.6 4.65 49.95 C2.7 51.08 2.03 52.35 1.35 55.05 C0.83
								 57.37 0.23 62.7 0 65.25 L32.55 65.25 C32.48 62.7 31.8 57.37 31.28 55.05 Z" class="st2"/>
				</g>
				<g id="shape171-16" v:mID="171" v:groupContext="shape" transform="translate(8.475,-17.85)">
					<title>Sheet.171</title>
					<path d="M10.2 65.25 C4.57 65.25 0 60.3 0 54.15 C0 48 4.57 43.12 10.2 43.12 C15.83 43.12 20.4 48.07 20.4 54.22
								 C20.4 60.37 15.83 65.25 10.2 65.25 Z" class="st1"/>
				</g>
				<g id="shape172-18" v:mID="172" v:groupContext="shape" transform="translate(10.725,-20.1)">
					<title>Sheet.172</title>
					<path d="M7.95 65.25 C3.6 65.25 0 61.27 0 56.4 C0 51.53 3.6 47.55 7.95 47.55 C12.3 47.55 15.9 51.53 15.9 56.4
								 C15.9 61.27 12.3 65.25 7.95 65.25 Z" class="st2"/>
				</g>
			</g>
			<g id="group173-20" transform="translate(27.675,-2.55795E-13)" v:mID="173" v:groupContext="group">
				<title>Sheet.173</title>
				<g id="shape174-21" v:mID="174" v:groupContext="shape">
					<title>Sheet.174</title>
					<rect x="0" y="36.75" width="35.25" height="28.5" class="st1"/>
				</g>
				<g id="group175-23" transform="translate(2.25,-2.25)" v:mID="175" v:groupContext="group">
					<title>Sheet.175</title>
					<g id="shape176-24" v:mID="176" v:groupContext="shape">
						<title>Sheet.176</title>
						<rect x="0" y="41.25" width="30.75" height="24" class="st1"/>
					</g>
					<g id="shape177-26" v:mID="177" v:groupContext="shape">
						<title>Sheet.177</title>
						<path d="M29.25 42.75 L29.25 63.75 L1.5 63.75 L1.5 42.75 L29.25 42.75 ZM30.75 41.25 L0 41.25 L0 65.25 L30.75
									 65.25 L30.75 41.25 Z" class="st3"/>
					</g>
				</g>
				<g id="shape178-28" v:mID="178" v:groupContext="shape" transform="translate(8.25,-12.75)">
					<title>Sheet.178</title>
					<rect x="0" y="63.75" width="13.5" height="1.5" class="st3"/>
				</g>
				<g id="shape179-30" v:mID="179" v:groupContext="shape" transform="translate(8.25,-8.25)">
					<title>Sheet.179</title>
					<rect x="0" y="63.75" width="17.25" height="1.5" class="st3"/>
				</g>
				<g id="shape180-32" v:mID="180" v:groupContext="shape" transform="translate(25.5,-18)">
					<title>Sheet.180</title>
					<rect x="0" y="60.75" width="3.75" height="4.5" class="st3"/>
				</g>
			</g>
			<g id="shape181-34" v:mID="181" v:groupContext="shape" transform="translate(3.675,2.70006E-13)">
				<title>Sheet.181</title>
				<path d="M21.68 42.75 L12 42.75 L12 45.52 L15.9 49.5 L0 49.5 L0 58.42 L15.9 58.42 L12 62.32 L12 65.25 L21.45 65.25
							 L32.7 53.92 L21.68 42.75 Z" class="st1"/>
			</g>
			<g id="shape182-36" v:mID="182" v:groupContext="shape" transform="translate(5.925,-2.25)">
				<title>Sheet.182</title>
				<path d="M18.45 47.25 L12.37 47.25 L19.05 54 L0 54 L0 58.42 L19.05 58.42 L12.22 65.25 L18.3 65.25 L27.3 56.17 L18.45
							 47.25 Z" class="st3"/>
			</g>
		</g>
	</g>
</svg>
