<?xml version="1.0" encoding="UTF-8" standalone="no"?>
<!DOCTYPE svg PUBLIC "-//W3C//DTD SVG 1.1//EN" "http://www.w3.org/Graphics/SVG/1.1/DTD/svg11.dtd">
<!-- Generated by Microsoft Visio, SVG Export Edge Subscription.svg Page-1 -->
<svg xmlns="http://www.w3.org/2000/svg" xmlns:xlink="http://www.w3.org/1999/xlink" xmlns:ev="http://www.w3.org/2001/xml-events"
		xmlns:v="http://schemas.microsoft.com/visio/2003/SVGExtensions/" width="0.885548in" height="0.885417in"
		viewBox="0 0 63.7595 63.75" xml:space="preserve" color-interpolation-filters="sRGB" class="st4">
	<v:documentProperties v:langID="4108" v:metric="true" v:viewMarkup="false"/>

	<style type="text/css">
	<![CDATA[
		.st1 {fill:#ffffff;stroke:none;stroke-linecap:butt;stroke-width:0.75}
		.st2 {fill:#515050;stroke:none;stroke-linecap:butt;stroke-width:0.75}
		.st3 {fill:#515150;stroke:none;stroke-linecap:butt;stroke-width:0.75}
		.st4 {fill:none;fill-rule:evenodd;font-size:12px;overflow:visible;stroke-linecap:square;stroke-miterlimit:3}
	]]>
	</style>

	<g v:mID="0" v:index="1" v:groupContext="foregroundPage">
		<title>Page-1</title>
		<v:pageProperties v:drawingScale="0.0393701" v:pageScale="0.0393701" v:drawingUnits="24" v:shadowOffsetX="8.50394"
				v:shadowOffsetY="-8.50394"/>
		<g id="group183-1" transform="translate(0.609452,-0.75)" v:mID="183" v:groupContext="group">
			<title>Edge Subscription</title>
			<g id="group184-2" transform="translate(-1.03917E-13,-1.95)" v:mID="184" v:groupContext="group">
				<title>Sheet.184</title>
				<g id="shape185-3" v:mID="185" v:groupContext="shape">
					<title>Sheet.185</title>
					<path d="M25.42 63.75 C23.7 63.75 21.97 63.15 20.62 62.1 C7.95 52.35 0.9 38.62 0.15 22.35 C0 19.5 1.65 17.02
								 4.05 16.2 C9.45 14.4 13.42 11.85 21.07 5.1 C22.2 4.05 23.77 3.45 25.42 3.45 C27.08 3.45 28.57 4.05
								 29.77 5.1 C36.97 11.48 41.25 14.25 46.8 16.2 C49.2 17.02 50.77 19.57 50.62 22.27 C49.87 38.55 42.82
								 52.35 30.22 62.1 C28.87 63.15 27.15 63.75 25.42 63.75 Z" class="st1"/>
				</g>
				<g id="shape186-5" v:mID="186" v:groupContext="shape" transform="translate(2.325,-1.875)">
					<title>Sheet.186</title>
					<path d="M20.17 8.62 C12.6 15.38 8.33 18.3 2.4 20.25 C0.83 20.7 0 22.5 0.08 24.07 C0.83 40.72 8.4 53.47 19.65
								 62.17 C21.67 63.75 24.53 63.75 26.55 62.17 C37.8 53.47 45.38 40.72 46.12 24.07 C46.2 22.43 45.38
								 20.78 43.8 20.17 C37.95 18.07 33.45 15.15 26.02 8.62 C24.3 7.2 21.83 7.2 20.17 8.62 Z" class="st2"/>
				</g>
			</g>
			<g id="group187-7" transform="translate(11.4,-24)" v:mID="187" v:groupContext="group">
				<title>Sheet.187</title>
				<g id="shape188-8" v:mID="188" v:groupContext="shape">
					<title>Sheet.188</title>
					<path d="M0 43.5 L0 63.75 L27.75 63.75 L27.75 43.5 L0 43.5 Z" class="st1"/>
				</g>
				<g id="shape189-10" v:mID="189" v:groupContext="shape" transform="translate(21,-12.75)">
					<title>Sheet.189</title>
					<rect x="0" y="59.25" width="3.75" height="4.5" class="st3"/>
				</g>
				<g id="shape190-12" v:mID="190" v:groupContext="shape" transform="translate(4.5,-8.25)">
					<title>Sheet.190</title>
					<rect x="0" y="62.25" width="11.25" height="1.5" class="st3"/>
				</g>
				<g id="shape191-14" v:mID="191" v:groupContext="shape" transform="translate(4.5,-4.5)">
					<title>Sheet.191</title>
					<rect x="0" y="62.25" width="15" height="1.5" class="st3"/>
				</g>
			</g>
			<g id="group192-16" transform="translate(24.15,-2.20268E-13)" v:mID="192" v:groupContext="group">
				<title>Sheet.192</title>
				<g id="shape193-17" v:mID="193" v:groupContext="shape">
					<title>Sheet.193</title>
					<path d="M27.98 44.25 L20.25 44.25 L20.25 47.47 L22.27 49.5 L15.97 49.5 L18 47.4 L18 44.25 L10.28 44.25 L0 53.92
								 L9.6 63.75 L18 63.75 L18 60.6 L15.97 58.5 L22.27 58.5 L20.25 60.52 L20.25 63.75 L28.65 63.75 L38.25
								 53.92 L27.98 44.25 Z" class="st1"/>
				</g>
				<g id="shape194-19" v:mID="194" v:groupContext="shape" transform="translate(3.225,-2.25)">
					<title>Sheet.194</title>
					<path d="M12.53 63.75 L7.43 58.5 L24.38 58.5 L19.2 63.75 L24.45 63.75 L31.8 56.25 L23.85 48.75 L19.2 48.75 L24.38
								 54 L7.43 54 L12.53 48.75 L7.95 48.75 L0 56.25 L7.35 63.75 L12.53 63.75 Z" class="st3"/>
				</g>
			</g>
		</g>
	</g>
</svg>
