<?xml version="1.0" encoding="UTF-8" standalone="no"?>
<!DOCTYPE svg PUBLIC "-//W3C//DTD SVG 1.1//EN" "http://www.w3.org/Graphics/SVG/1.1/DTD/svg11.dtd">
<!-- Generated by Microsoft Visio, SVG Export Email Workload.svg Page-1 -->
<svg xmlns="http://www.w3.org/2000/svg" xmlns:xlink="http://www.w3.org/1999/xlink" xmlns:ev="http://www.w3.org/2001/xml-events"
		xmlns:v="http://schemas.microsoft.com/visio/2003/SVGExtensions/" width="0.875in" height="0.739583in" viewBox="0 0 63 53.25"
		xml:space="preserve" color-interpolation-filters="sRGB" class="st3">
	<v:documentProperties v:langID="4108" v:metric="true" v:viewMarkup="false"/>

	<style type="text/css">
	<![CDATA[
		.st1 {fill:#ffffff;stroke:none;stroke-linecap:butt;stroke-width:0.75}
		.st2 {fill:#515150;stroke:none;stroke-linecap:butt;stroke-width:0.75}
		.st3 {fill:none;fill-rule:evenodd;font-size:12px;overflow:visible;stroke-linecap:square;stroke-miterlimit:3}
	]]>
	</style>

	<g v:mID="0" v:index="1" v:groupContext="foregroundPage">
		<title>Page-1</title>
		<v:pageProperties v:drawingScale="0.0393701" v:pageScale="0.0393701" v:drawingUnits="24" v:shadowOffsetX="8.50394"
				v:shadowOffsetY="-8.50394"/>
		<g id="group195-1" transform="translate(0.75,-0.75)" v:mID="195" v:groupContext="group">
			<title>Email Workload</title>
			<g id="group196-2" transform="translate(-9.59233E-14,-5.25)" v:mID="196" v:groupContext="group">
				<title>Sheet.196</title>
				<g id="shape197-3" v:mID="197" v:groupContext="shape">
					<title>Sheet.197</title>
					<path d="M50.62 27 L50.25 27 L50.25 6.75 L6.75 6.75 L6.75 27 L6.37 27 L0 35.25 L0 53.25 L57 53.25 L57 35.25 L50.62
								 27 Z" class="st1"/>
				</g>
				<g id="shape198-5" v:mID="198" v:groupContext="shape" transform="translate(9,-19.5)">
					<title>Sheet.198</title>
					<rect x="0" y="51" width="39" height="2.25" class="st2"/>
				</g>
				<g id="shape199-7" v:mID="199" v:groupContext="shape" transform="translate(9,-24)">
					<title>Sheet.199</title>
					<rect x="0" y="51" width="39" height="2.25" class="st2"/>
				</g>
				<g id="shape200-9" v:mID="200" v:groupContext="shape" transform="translate(9,-28.5)">
					<title>Sheet.200</title>
					<rect x="0" y="51" width="39" height="2.25" class="st2"/>
				</g>
				<g id="shape201-11" v:mID="201" v:groupContext="shape" transform="translate(9,-33)">
					<title>Sheet.201</title>
					<rect x="0" y="51" width="39" height="2.25" class="st2"/>
				</g>
				<g id="shape202-13" v:mID="202" v:groupContext="shape" transform="translate(9,-37.5)">
					<title>Sheet.202</title>
					<rect x="0" y="51" width="39" height="2.25" class="st2"/>
				</g>
				<g id="shape203-15" v:mID="203" v:groupContext="shape" transform="translate(2.25,-2.25)">
					<title>Sheet.203</title>
					<path d="M48 32.47 L48 38.25 L4.5 38.25 L4.5 32.47 L0 38.25 L0 53.25 L52.5 53.25 L52.5 38.25 L48 32.47 Z"
							class="st2"/>
				</g>
				<g id="shape204-17" v:mID="204" v:groupContext="shape" transform="translate(9,-42)">
					<title>Sheet.204</title>
					<rect x="0" y="51" width="39" height="2.25" class="st2"/>
				</g>
			</g>
			<g id="group205-19" transform="translate(26.25,1.98952E-13)" v:mID="205" v:groupContext="group">
				<title>Sheet.205</title>
				<g id="shape206-20" v:mID="206" v:groupContext="shape">
					<title>Sheet.206</title>
					<rect x="0" y="24" width="35.25" height="29.25" class="st1"/>
				</g>
				<g id="shape207-22" v:mID="207" v:groupContext="shape" transform="translate(2.25,-2.25)">
					<title>Sheet.207</title>
					<path d="M0 28.5 L0 53.25 L30.75 53.25 L30.75 28.5 L0 28.5 ZM29.25 51.75 L1.5 51.75 L1.5 30 L29.25 30 L29.25
								 51.75 Z" class="st2"/>
				</g>
				<g id="shape208-24" v:mID="208" v:groupContext="shape" transform="translate(25.5,-18.75)">
					<title>Sheet.208</title>
					<rect x="0" y="48.75" width="3.75" height="4.5" class="st2"/>
				</g>
				<g id="shape209-26" v:mID="209" v:groupContext="shape" transform="translate(8.25,-12.75)">
					<title>Sheet.209</title>
					<rect x="0" y="51.75" width="12.75" height="1.5" class="st2"/>
				</g>
				<g id="shape210-28" v:mID="210" v:groupContext="shape" transform="translate(8.25,-9)">
					<title>Sheet.210</title>
					<rect x="0" y="51.75" width="16.5" height="1.5" class="st2"/>
				</g>
			</g>
		</g>
	</g>
</svg>
