<?xml version="1.0" encoding="UTF-8" standalone="no"?>
<!DOCTYPE svg PUBLIC "-//W3C//DTD SVG 1.1//EN" "http://www.w3.org/Graphics/SVG/1.1/DTD/svg11.dtd">
<!-- Generated by Microsoft Visio, SVG Export Equipment Mailbox.svg Page-1 -->
<svg xmlns="http://www.w3.org/2000/svg" xmlns:xlink="http://www.w3.org/1999/xlink" xmlns:ev="http://www.w3.org/2001/xml-events"
		xmlns:v="http://schemas.microsoft.com/visio/2003/SVGExtensions/" width="0.90625in" height="0.90625in"
		viewBox="0 0 65.25 65.25" xml:space="preserve" color-interpolation-filters="sRGB" class="st3">
	<v:documentProperties v:langID="4108" v:metric="true" v:viewMarkup="false"/>

	<style type="text/css">
	<![CDATA[
		.st1 {fill:#ffffff;stroke:none;stroke-linecap:butt;stroke-width:0.75}
		.st2 {fill:#515150;stroke:none;stroke-linecap:butt;stroke-width:0.75}
		.st3 {fill:none;fill-rule:evenodd;font-size:12px;overflow:visible;stroke-linecap:square;stroke-miterlimit:3}
	]]>
	</style>

	<g v:mID="0" v:index="1" v:groupContext="foregroundPage">
		<title>Page-1</title>
		<v:pageProperties v:drawingScale="0.0393701" v:pageScale="0.0393701" v:drawingUnits="24" v:shadowOffsetX="8.50394"
				v:shadowOffsetY="-8.50394"/>
		<g id="group211-1" transform="translate(0.75,-0.75)" v:mID="211" v:groupContext="group">
			<title>Equipment Mailbox</title>
			<g id="group212-2" transform="translate(-1.07914E-13,-10.5)" v:mID="212" v:groupContext="group">
				<title>Sheet.212</title>
				<g id="group213-3" v:mID="213" v:groupContext="group">
					<title>Sheet.213</title>
					<g id="shape214-4" v:mID="214" v:groupContext="shape">
						<title>Sheet.214</title>
						<path d="M0 50.25 L0 65.25 L57 65.25 L57 50.25 L57 47.7 L56.55 45.75 L52.8 30.07 L51.75 30.07 L51.75 18 L50.25
									 18 L50.25 12 L6.75 12 L6.75 18 L5.25 18 L5.25 30.07 L4.2 30.07 L0.45 45.75 L0 47.7 L0 50.25
									 Z" class="st1"/>
					</g>
					<g id="group215-6" transform="translate(15,-21.75)" v:mID="215" v:groupContext="group">
						<title>Sheet.215</title>
						<g id="shape216-7" v:mID="216" v:groupContext="shape" transform="translate(23.25,-11.25)">
							<title>Sheet.216</title>
							<rect x="0" y="58.5" width="6" height="6.75" class="st2"/>
						</g>
						<g id="shape217-9" v:mID="217" v:groupContext="shape" transform="translate(-4.29656E-14,-5.25)">
							<title>Sheet.217</title>
							<rect x="0" y="63" width="15.75" height="2.25" class="st2"/>
						</g>
						<g id="shape218-11" v:mID="218" v:groupContext="shape">
							<title>Sheet.218</title>
							<rect x="0" y="63" width="20.25" height="2.25" class="st2"/>
						</g>
					</g>
					<g id="shape219-13" v:mID="219" v:groupContext="shape" transform="translate(9,-47.25)">
						<title>Sheet.219</title>
						<path d="M0 61.5 L0 65.25 L2.25 65.25 L2.25 63.75 L36.75 63.75 L36.75 65.25 L39 65.25 L39 61.5 L0 61.5 Z"
								class="st2"/>
					</g>
				</g>
				<g id="shape220-15" v:mID="220" v:groupContext="shape" transform="translate(2.25,-2.25)">
					<title>Sheet.220</title>
					<path d="M48.75 34.57 L47.25 34.57 L47.25 22.5 L5.25 22.5 L5.25 34.57 L3.75 34.57 L0 50.25 L0 65.25 L52.5 65.25
								 L52.5 50.25 L48.75 34.57 ZM45 34.57 L45 50.25 L7.5 50.25 L7.5 34.57 L7.5 24.75 L45 24.75 L45 34.57
								 Z" class="st2"/>
				</g>
			</g>
			<g id="group221-17" transform="translate(30,-1.13687E-13)" v:mID="221" v:groupContext="group">
				<title>Sheet.221</title>
				<g id="shape222-18" v:mID="222" v:groupContext="shape">
					<title>Sheet.222</title>
					<path d="M6.75 65.25 L6.75 62.62 C6.75 60.9 8.03 59.4 9.67 59.17 L13.5 58.65 L13.5 58.5 L6 58.5 C3.9 58.5 2.25
								 56.85 2.25 54.75 L2.25 41.17 C0.97 40.87 0 39.67 0 38.25 L0 35.92 C0 34.27 1.35 33 2.92 33 L30.82
								 33 C32.47 33 33.75 34.35 33.75 35.92 L33.75 38.25 C33.75 39.67 32.77 40.87 31.5 41.17 L31.5 54.75
								 C31.5 56.85 29.85 58.5 27.75 58.5 L20.25 58.5 L20.25 58.57 L24 59.1 C25.72 59.4 27 60.82 27 62.55
								 L27 65.25 L6.75 65.25 Z" class="st1"/>
				</g>
				<g id="shape223-20" v:mID="223" v:groupContext="shape" transform="translate(2.25,-2.25)">
					<title>Sheet.223</title>
					<path d="M28.57 41.25 C28.95 41.25 29.25 40.87 29.25 40.5 L29.25 38.17 C29.25 37.8 28.95 37.5 28.57 37.5 L0.68
								 37.5 C0.3 37.5 0 37.8 0 38.17 L0 40.5 C0 40.87 0.3 41.25 0.68 41.25 L2.25 41.25 L2.25 57 C2.25 57.82
								 2.93 58.5 3.75 58.5 L13.5 58.5 L13.5 63 L12 63 L7.8 63.6 C7.2 63.67 6.75 64.2 6.75 64.87 L6.75 65.25
								 L22.5 65.25 L22.5 64.87 C22.5 64.27 22.05 63.75 21.45 63.6 L17.25 63 L15.75 63 L15.75 58.5 L25.5
								 58.5 C26.32 58.5 27 57.82 27 57 L27 41.25 L28.57 41.25 ZM24.75 56.25 L4.5 56.25 L4.5 41.25 L24.75
								 41.25 L24.75 56.25 Z" class="st2"/>
				</g>
			</g>
		</g>
	</g>
</svg>
