<?xml version="1.0" encoding="UTF-8" standalone="no"?>
<!DOCTYPE svg PUBLIC "-//W3C//DTD SVG 1.1//EN" "http://www.w3.org/Graphics/SVG/1.1/DTD/svg11.dtd">
<!-- Generated by Microsoft Visio, SVG Export Exchange Active Sync - blue.svg Page-1 -->
<svg xmlns="http://www.w3.org/2000/svg" xmlns:xlink="http://www.w3.org/1999/xlink" xmlns:ev="http://www.w3.org/2001/xml-events"
		xmlns:v="http://schemas.microsoft.com/visio/2003/SVGExtensions/" width="0.760417in" height="0.760417in"
		viewBox="0 0 54.75 54.75" xml:space="preserve" color-interpolation-filters="sRGB" class="st3">
	<v:documentProperties v:langID="4108" v:metric="true" v:viewMarkup="false"/>

	<style type="text/css">
	<![CDATA[
		.st1 {fill:#ffffff;stroke:none;stroke-linecap:butt;stroke-width:0.75}
		.st2 {fill:#2072b8;stroke:none;stroke-linecap:butt;stroke-width:0.75}
		.st3 {fill:none;fill-rule:evenodd;font-size:12px;overflow:visible;stroke-linecap:square;stroke-miterlimit:3}
	]]>
	</style>

	<g v:mID="0" v:index="1" v:groupContext="foregroundPage">
		<title>Page-1</title>
		<v:pageProperties v:drawingScale="0.0393701" v:pageScale="0.0393701" v:drawingUnits="24" v:shadowOffsetX="8.50394"
				v:shadowOffsetY="-8.50394"/>
		<g id="group233-1" transform="translate(0.75,-0.75)" v:mID="233" v:groupContext="group">
			<title>Exchange Active Sync - blue</title>
			<g id="group234-2" v:mID="234" v:groupContext="group">
				<title>Sheet.234</title>
				<g id="shape235-3" v:mID="235" v:groupContext="shape">
					<title>Sheet.235</title>
					<path d="M26.62 54.75 C11.92 54.75 0 42.83 0 28.13 C0 13.42 11.92 1.5 26.62 1.5 C41.33 1.5 53.25 13.42 53.25
								 28.13 C53.25 42.83 41.33 54.75 26.62 54.75 Z" class="st1"/>
				</g>
				<g id="shape236-5" v:mID="236" v:groupContext="shape" transform="translate(2.25,-2.25)">
					<title>Sheet.236</title>
					<ellipse cx="24.375" cy="30.375" rx="24.375" ry="24.375" class="st2"/>
				</g>
			</g>
			<g id="group237-7" transform="translate(8.25,-13.5)" v:mID="237" v:groupContext="group">
				<title>Sheet.237</title>
				<g id="shape238-8" v:mID="238" v:groupContext="shape" transform="translate(11.175,-3.825)">
					<title>Sheet.238</title>
					<path d="M20.47 45.9 C20.47 45.68 20.47 45.45 20.47 45.3 C20.47 37.95 14.55 32.03 7.2 32.03 C4.57 32.03 2.1 32.85
								 0 34.13 L2.55 37.05 C3.9 36.23 5.55 35.78 7.2 35.78 C12.45 35.78 16.72 40.05 16.72 45.3 C16.72 45.53
								 16.72 45.75 16.65 45.9 L10.35 45.9 L17.92 54.75 L25.57 45.9 L20.47 45.9 Z" class="st1"/>
				</g>
				<g id="shape239-10" v:mID="239" v:groupContext="shape">
					<title>Sheet.239</title>
					<path d="M23.02 49.65 C21.67 50.48 20.02 50.92 18.37 50.93 C13.13 50.92 8.85 46.65 8.85 41.4 C8.85 41.18 8.85
								 41.4 8.85 41.18 L15.15 41.18 L7.57 31.95 L0 41.25 L5.1 41.25 C5.1 41.48 5.1 41.25 5.1 41.48 C5.1
								 48.83 11.02 54.75 18.37 54.75 C21 54.75 23.47 53.93 25.57 52.65 L23.02 49.65 Z" class="st1"/>
				</g>
			</g>
		</g>
	</g>
</svg>
