<?xml version="1.0" encoding="UTF-8" standalone="no"?>
<!DOCTYPE svg PUBLIC "-//W3C//DTD SVG 1.1//EN" "http://www.w3.org/Graphics/SVG/1.1/DTD/svg11.dtd">
<!-- Generated by Microsoft Visio, SVG Export Fax Partner.svg Page-1 -->
<svg xmlns="http://www.w3.org/2000/svg" xmlns:xlink="http://www.w3.org/1999/xlink" xmlns:ev="http://www.w3.org/2001/xml-events"
		xmlns:v="http://schemas.microsoft.com/visio/2003/SVGExtensions/" width="0.708333in" height="0.864583in"
		viewBox="0 0 51 62.25" xml:space="preserve" color-interpolation-filters="sRGB" class="st4">
	<v:documentProperties v:langID="4108" v:metric="true" v:viewMarkup="false"/>

	<style type="text/css">
	<![CDATA[
		.st1 {fill:#ffffff;stroke:none;stroke-linecap:butt;stroke-width:0.75}
		.st2 {fill:#515050;stroke:none;stroke-linecap:butt;stroke-width:0.75}
		.st3 {fill:#515150;stroke:none;stroke-linecap:butt;stroke-width:0.75}
		.st4 {fill:none;fill-rule:evenodd;font-size:12px;overflow:visible;stroke-linecap:square;stroke-miterlimit:3}
	]]>
	</style>

	<g v:mID="0" v:index="1" v:groupContext="foregroundPage">
		<title>Page-1</title>
		<v:pageProperties v:drawingScale="0.0393701" v:pageScale="0.0393701" v:drawingUnits="24" v:shadowOffsetX="8.50394"
				v:shadowOffsetY="-8.50394"/>
		<g id="group240-1" transform="translate(0.75,-0.75)" v:mID="240" v:groupContext="group">
			<title>Fax Partner</title>
			<g id="group241-2" transform="translate(9.39249E-14,-3.75)" v:mID="241" v:groupContext="group">
				<title>Sheet.241</title>
				<g id="shape242-3" v:mID="242" v:groupContext="shape">
					<title>Sheet.242</title>
					<path d="M0 62.25 L0 10.5 C-0 7.57 2.33 5.25 5.25 5.25 L26.25 5.25 C29.18 5.25 31.5 7.57 31.5 10.5 L31.5 62.25
								 L0 62.25 Z" class="st1"/>
				</g>
				<g id="shape243-5" v:mID="243" v:groupContext="shape" transform="translate(2.25,-2.25)">
					<title>Sheet.243</title>
					<path d="M24 9.75 L3 9.75 C1.35 9.75 0 11.1 0 12.75 L0 62.25 L27 62.25 L27 12.75 C27 11.1 25.65 9.75 24 9.75
								 ZM21.75 56.25 L5.25 56.25 L5.25 54 L21.75 54 L21.75 56.25 ZM21.75 49.5 L5.25 49.5 L5.25 47.25 L21.75
								 47.25 L21.75 49.5 ZM21.75 18.75 L5.25 18.75 L5.25 16.5 L21.75 16.5 L21.75 18.75 Z" class="st2"/>
				</g>
			</g>
			<g id="group244-7" transform="translate(15.75,4.26326E-14)" v:mID="244" v:groupContext="group">
				<title>Sheet.244</title>
				<g id="shape245-8" v:mID="245" v:groupContext="shape">
					<title>Sheet.245</title>
					<path d="M12 62.25 C9.9 62.25 8.25 60.6 8.25 58.5 L8.25 57.75 C7.57 58.65 6.45 59.25 5.25 59.25 L3.75 59.25 C1.65
								 59.25 0 57.6 0 55.5 L0 45 C-0 42.9 1.65 41.25 3.75 41.25 L5.25 41.25 C6.45 41.25 7.57 41.85 8.25
								 42.75 L8.25 36.75 C8.25 34.65 9.9 33 12 33 L24 33 C26.1 33 27.75 34.65 27.75 36.75 L27.75 42.75
								 L28.65 42.75 L28.72 42.75 C31.5 42.97 33.75 45.6 33.75 48.52 C33.75 48.6 33.75 57.75 33.75 57.75
								 L27.75 57.75 L27.75 58.5 C27.75 60.6 26.1 62.25 24 62.25 L12 62.25 Z" class="st1"/>
				</g>
				<g id="shape246-10" v:mID="246" v:groupContext="shape" transform="translate(2.25,-2.25)">
					<title>Sheet.246</title>
					<path d="M19.5 43.5 L19.5 44.25 L12 44.25 L12 43.5 L19.5 43.5 ZM12 41.25 L12 42 L19.5 42 L19.5 41.25 L12 41.25
								 ZM6 47.25 L8.25 47.25 L8.25 39 C8.25 38.17 8.93 37.5 9.75 37.5 L21.75 37.5 C22.57 37.5 23.25 38.17
								 23.25 39 L23.25 47.25 L26.25 47.25 C27.9 47.4 29.25 49.05 29.25 50.77 C29.25 50.85 29.25 50.85 29.25
								 50.92 C29.25 50.92 29.25 51 29.25 51 L29.25 57.75 L23.25 57.75 L23.25 60.75 C23.25 61.57 22.57 62.25
								 21.75 62.25 L9.75 62.25 C8.93 62.25 8.25 61.57 8.25 60.75 L8.25 57.75 L6 57.75 L6 47.25 ZM21.75
								 55.5 L9.75 55.5 L9.75 57.75 L9.75 60.75 L21.75 60.75 L21.75 57.75 L21.75 55.5 ZM21.75 39 L9.75 39
								 L9.75 47.25 L21.75 47.25 L21.75 39 ZM4.5 47.25 C4.5 46.42 3.82 45.75 3 45.75 L1.5 45.75 C0.67 45.75
								 0 46.42 0 47.25 L0 57.75 C-0 58.57 0.67 59.25 1.5 59.25 L3 59.25 C3.82 59.25 4.5 58.57 4.5 57.75
								 L4.5 47.25 Z" class="st3"/>
				</g>
			</g>
		</g>
	</g>
</svg>
