<?xml version="1.0" encoding="UTF-8" standalone="no"?>
<!DOCTYPE svg PUBLIC "-//W3C//DTD SVG 1.1//EN" "http://www.w3.org/Graphics/SVG/1.1/DTD/svg11.dtd">
<!-- Generated by Microsoft Visio, SVG Export Global Address List.svg Page-1 -->
<svg xmlns="http://www.w3.org/2000/svg" xmlns:xlink="http://www.w3.org/1999/xlink" xmlns:ev="http://www.w3.org/2001/xml-events"
		xmlns:v="http://schemas.microsoft.com/visio/2003/SVGExtensions/" width="0.895833in" height="0.8125in"
		viewBox="0 0 64.5 58.5" xml:space="preserve" color-interpolation-filters="sRGB" class="st3">
	<v:documentProperties v:langID="4108" v:metric="true" v:viewMarkup="false"/>

	<style type="text/css">
	<![CDATA[
		.st1 {fill:#ffffff;stroke:none;stroke-linecap:butt;stroke-width:0.75}
		.st2 {fill:#525251;stroke:none;stroke-linecap:butt;stroke-width:0.75}
		.st3 {fill:none;fill-rule:evenodd;font-size:12px;overflow:visible;stroke-linecap:square;stroke-miterlimit:3}
	]]>
	</style>

	<g v:mID="0" v:index="1" v:groupContext="foregroundPage">
		<title>Page-1</title>
		<v:pageProperties v:drawingScale="0.0393701" v:pageScale="0.0393701" v:drawingUnits="24" v:shadowOffsetX="8.50394"
				v:shadowOffsetY="-8.50394"/>
		<g id="group247-1" transform="translate(0.75,-0.75)" v:mID="247" v:groupContext="group">
			<title>Global Address List</title>
			<g id="group248-2" transform="translate(2.9976E-13,-9)" v:mID="248" v:groupContext="group">
				<title>Sheet.248</title>
				<g id="shape249-3" v:mID="249" v:groupContext="shape">
					<title>Sheet.249</title>
					<path d="M54.67 15.82 C54.37 12.82 51.83 10.5 48.75 10.5 L35.25 10.5 C32.7 10.5 30.45 11.47 28.72 13.05 C27 11.47
								 24.82 10.5 22.5 10.5 L9 10.5 C5.78 10.5 3.15 13.05 3 16.27 C1.2 17.1 0 18.15 0 20.25 L0 52.5 C-0
								 55.42 2.33 57.75 5.25 57.75 L24.75 57.75 C25.35 58.2 26.1 58.5 26.85 58.5 L30.9 58.5 C31.72 58.5
								 32.4 58.2 33 57.75 L54 57.75 C56.93 57.75 59.25 55.42 59.25 52.5 L59.25 21 C59.25 18.37 57.3 16.12
								 54.67 15.82 Z" class="st1"/>
				</g>
				<g id="shape250-5" v:mID="250" v:groupContext="shape" transform="translate(2.25,-2.25)">
					<title>Sheet.250</title>
					<path d="M51.75 20.25 L50.25 20.25 L50.25 18.75 C50.25 16.65 48.6 15 46.5 15 L45 15 L41.25 15 L33 15 C30.22 15
								 27.75 16.57 26.47 18.82 C25.12 16.57 22.87 15 20.25 15 L12 15 L8.25 15 L6.75 15 C4.65 15 3 16.65
								 3 18.75 L3 20.25 C1.35 20.25 0 21.6 0 23.25 L0 54.75 C-0 56.4 1.35 57.75 3 57.75 L23.4 57.75 C23.62
								 58.2 24.07 58.5 24.6 58.5 L28.65 58.5 C29.18 58.5 29.55 58.2 29.85 57.75 L51.75 57.75 C53.4 57.75
								 54.75 56.4 54.75 54.75 L54.75 23.25 C54.75 21.6 53.4 20.25 51.75 20.25 ZM33 17.25 L46.5 17.25 C47.33
								 17.25 48 17.92 48 18.75 L48 20.25 L28.27 20.25 C29.1 18.45 30.9 17.25 33 17.25 ZM5.25 18.75 C5.25
								 17.92 5.92 17.25 6.75 17.25 L20.25 17.25 C22.13 17.25 23.78 18.52 24.67 20.25 L5.25 20.25 L5.25
								 18.75 Z" class="st2"/>
				</g>
				<g id="shape251-7" v:mID="251" v:groupContext="shape" transform="translate(7.5,-5.25)">
					<title>Sheet.251</title>
					<path d="M0 55.5 L0 21.75 C-0 20.92 0.68 20.25 1.5 20.25 L15 20.25 C17.93 20.25 20.25 23.32 20.25 26.25 L20.25
								 58.5 C18.98 56.62 17.25 55.5 14.25 55.5 L0 55.5 ZM42.75 55.5 L28.5 55.5 C25.5 55.5 24.07 56.62 22.5
								 58.5 L22.5 26.25 L22.5 25.5 C22.5 22.57 24.82 20.25 27.75 20.25 L41.25 20.25 C42.07 20.25 42.75
								 20.92 42.75 21.75 L42.75 55.5 Z" class="st1"/>
				</g>
				<g id="shape252-9" v:mID="252" v:groupContext="shape" transform="translate(52.5,-29.25)">
					<title>Sheet.252</title>
					<path d="M0.75 50.25 L0 50.25 L0 58.5 L0.75 58.5 C1.58 58.5 2.25 57.82 2.25 57 L2.25 51.75 C2.25 50.92 1.58 50.25
								 0.75 50.25 Z" class="st1"/>
				</g>
				<g id="shape253-11" v:mID="253" v:groupContext="shape" transform="translate(52.5,-19.5)">
					<title>Sheet.253</title>
					<path d="M0.75 50.25 L0 50.25 L0 58.5 L0.75 58.5 C1.58 58.5 2.25 57.82 2.25 57 L2.25 51.75 C2.25 50.92 1.58 50.25
								 0.75 50.25 Z" class="st1"/>
				</g>
				<g id="shape254-13" v:mID="254" v:groupContext="shape" transform="translate(52.5,-9.75)">
					<title>Sheet.254</title>
					<path d="M0.75 50.25 L0 50.25 L0 58.5 L0.75 58.5 C1.58 58.5 2.25 57.82 2.25 57 L2.25 51.75 C2.25 50.92 1.58 50.25
								 0.75 50.25 Z" class="st1"/>
				</g>
				<g id="group255-15" transform="translate(11.475,-24.75)" v:mID="255" v:groupContext="group">
					<title>Sheet.255</title>
					<g id="shape256-16" v:mID="256" v:groupContext="shape">
						<title>Sheet.256</title>
						<path d="M12 54.52 C11.77 53.47 11.47 52.95 10.72 52.5 C9.9 52.05 9.52 51.75 9.22 51.75 C9.07 51.75 9 51.75
									 8.92 51.82 C8.7 51.97 8.55 52.12 8.32 52.27 C8.32 52.27 8.32 52.27 8.32 52.27 C8.25 52.27 8.25
									 52.35 8.25 52.35 C8.02 52.5 7.8 52.57 7.57 52.65 C7.2 52.8 6.75 52.87 6.3 52.87 C5.85 52.87
									 5.4 52.8 5.02 52.65 C4.8 52.57 4.57 52.5 4.35 52.35 C4.05 52.2 3.82 52.05 3.6 51.82 C3.52 51.75
									 3.37 51.75 3.3 51.75 C3 51.75 2.7 51.97 1.8 52.5 C1.05 52.95 0.75 53.47 0.52 54.52 C0.3 55.42
									 0.07 57.52 0 58.5 L12.75 58.5 C12.45 57.52 12.22 55.42 12 54.52 Z" class="st2"/>
					</g>
					<g id="shape257-18" v:mID="257" v:groupContext="shape" transform="translate(3.075,-6.975)">
						<title>Sheet.257</title>
						<path d="M3.07 58.5 C1.35 58.5 0 56.92 0 55.05 C0 53.17 1.42 51.6 3.07 51.6 C4.8 51.6 6.15 53.17 6.15 55.05
									 C6.15 56.92 4.8 58.5 3.07 58.5 Z" class="st2"/>
					</g>
				</g>
				<g id="shape258-20" v:mID="258" v:groupContext="shape" transform="translate(11.25,-18.75)">
					<title>Sheet.258</title>
					<rect x="0" y="56.25" width="12.75" height="2.25" class="st2"/>
				</g>
				<g id="shape259-22" v:mID="259" v:groupContext="shape" transform="translate(11.25,-14.25)">
					<title>Sheet.259</title>
					<rect x="0" y="56.25" width="12.75" height="2.25" class="st2"/>
				</g>
				<g id="group260-24" transform="translate(33.975,-24.75)" v:mID="260" v:groupContext="group">
					<title>Sheet.260</title>
					<g id="shape261-25" v:mID="261" v:groupContext="shape">
						<title>Sheet.261</title>
						<path d="M12 54.52 C11.77 53.47 11.47 52.95 10.72 52.5 C9.9 52.05 9.52 51.75 9.22 51.75 C9.07 51.75 9 51.75
									 8.92 51.82 C8.7 51.97 8.55 52.12 8.32 52.27 C8.32 52.27 8.32 52.27 8.32 52.27 C8.25 52.27 8.25
									 52.35 8.25 52.35 C8.02 52.5 7.8 52.57 7.57 52.65 C7.2 52.8 6.75 52.87 6.3 52.87 C5.85 52.87
									 5.4 52.8 5.02 52.65 C4.8 52.57 4.57 52.5 4.35 52.35 C4.05 52.2 3.82 52.05 3.6 51.82 C3.52 51.75
									 3.37 51.75 3.3 51.75 C3 51.75 2.7 51.97 1.8 52.5 C1.05 52.95 0.75 53.47 0.52 54.52 C0.3 55.42
									 0.07 57.52 0 58.5 L12.75 58.5 C12.45 57.52 12.22 55.42 12 54.52 Z" class="st2"/>
					</g>
					<g id="shape262-27" v:mID="262" v:groupContext="shape" transform="translate(3.075,-6.975)">
						<title>Sheet.262</title>
						<path d="M3.07 58.5 C1.35 58.5 0 56.92 0 55.05 C0 53.17 1.42 51.6 3.07 51.6 C4.8 51.6 6.15 53.17 6.15 55.05
									 C6.15 56.92 4.8 58.5 3.07 58.5 Z" class="st2"/>
					</g>
				</g>
				<g id="shape263-29" v:mID="263" v:groupContext="shape" transform="translate(33.75,-13.5)">
					<title>Sheet.263</title>
					<rect x="0" y="56.25" width="12.75" height="2.25" class="st2"/>
				</g>
			</g>
			<g id="group264-31" transform="translate(30,-1.98952E-13)" v:mID="264" v:groupContext="group">
				<title>Sheet.264</title>
				<g id="shape265-32" v:mID="265" v:groupContext="shape">
					<title>Sheet.265</title>
					<ellipse cx="16.5" cy="42" rx="16.5" ry="16.5" class="st1"/>
				</g>
				<g id="group266-34" transform="translate(2.325,-2.325)" v:mID="266" v:groupContext="group">
					<title>Sheet.266</title>
					<g id="shape267-35" v:mID="267" v:groupContext="shape" transform="translate(15.075,-14.625)">
						<title>Sheet.267</title>
						<path d="M5.63 51.3 C3.9 51.82 1.95 52.12 0 52.2 L0 58.5 C2.4 58.42 4.73 58.12 6.83 57.52 C6.6 55.27 6.23
									 53.17 5.63 51.3 Z" class="st2"/>
					</g>
					<g id="shape268-37" v:mID="268" v:groupContext="shape" transform="translate(4.725,-23.775)">
						<title>Sheet.268</title>
						<path d="M4.5 54.75 C2.85 55.35 1.35 56.32 0 57.45 C0.68 57.82 1.43 58.2 2.18 58.5 C2.85 57.07 3.6 55.8 4.5
									 54.75 Z" class="st2"/>
					</g>
					<g id="shape269-39" v:mID="269" v:groupContext="shape" transform="translate(8.4,-22.35)">
						<title>Sheet.269</title>
						<path d="M0 57.67 C1.57 58.12 3.3 58.42 5.1 58.5 L5.1 52.5 C4.87 52.5 4.72 52.5 4.5 52.5 C2.7 53.1 1.12 54.97
									 0 57.67 Z" class="st2"/>
					</g>
					<g id="shape270-41" v:mID="270" v:groupContext="shape" transform="translate(6.75,-14.625)">
						<title>Sheet.270</title>
						<path d="M0 57.52 C2.1 58.12 4.43 58.42 6.83 58.5 L6.83 52.2 C4.88 52.12 2.93 51.82 1.2 51.3 C0.45 53.17
									 0.08 55.27 0 57.52 Z" class="st2"/>
					</g>
					<g id="shape271-43" v:mID="271" v:groupContext="shape" transform="translate(22.65,-8.4)">
						<title>Sheet.271</title>
						<path d="M0.68 52.57 C0.68 54.67 0.45 56.7 0 58.5 C2.03 57.75 3.9 56.77 5.48 55.57 C5.7 54.6 5.78 53.62 5.78
									 52.65 C5.78 51.75 5.7 50.85 5.55 50.02 C4.12 51 2.48 51.75 0.6 52.35 C0.68 52.5 0.68 52.5 0.68
									 52.57 Z" class="st2"/>
					</g>
					<g id="shape272-45" v:mID="272" v:groupContext="shape" transform="translate(-1.43385E-13,-8.25)">
						<title>Sheet.272</title>
						<path d="M5.17 52.42 C5.17 52.35 5.17 52.27 5.17 52.2 C3.38 51.6 1.65 50.77 0.22 49.87 C0.07 50.7 0 51.6
									 0 52.5 C0 53.7 0.15 54.82 0.45 55.87 C2.1 57 3.9 57.9 5.85 58.5 C5.4 56.7 5.17 54.67 5.17 52.42
									 Z" class="st2"/>
					</g>
					<g id="shape273-47" v:mID="273" v:groupContext="shape" transform="translate(0.675,-16.05)">
						<title>Sheet.273</title>
						<path d="M3 50.85 C1.65 52.35 0.6 54.15 0 56.17 C1.27 57.15 2.85 57.9 4.58 58.5 C4.73 56.25 5.1 54.07 5.78
									 52.27 C4.73 51.82 3.82 51.37 3 50.85 Z" class="st2"/>
					</g>
					<g id="shape274-49" v:mID="274" v:groupContext="shape" transform="translate(14.925,-22.425)">
						<title>Sheet.274</title>
						<path d="M0.07 58.5 C1.87 58.42 3.6 58.12 5.17 57.67 C4.05 55.05 2.4 53.1 0.6 52.5 C0.37 52.5 0.22 52.5 0
									 52.5 L0 58.5 L0.07 58.5 Z" class="st2"/>
					</g>
					<g id="shape275-51" v:mID="275" v:groupContext="shape" transform="translate(1.2,-0.825)">
						<title>Sheet.275</title>
						<path d="M5.17 52.87 C3.3 52.35 1.58 51.6 0 50.7 C1.58 54.3 4.58 57.15 8.33 58.5 C6.98 57.15 5.92 55.2 5.17
									 52.87 Z" class="st2"/>
					</g>
					<g id="shape276-53" v:mID="276" v:groupContext="shape" transform="translate(19.275,-23.7)">
						<title>Sheet.276</title>
						<path d="M0 54.67 C0.9 55.72 1.65 57 2.25 58.5 C3 58.2 3.75 57.82 4.43 57.45 C3.23 56.25 1.73 55.27 0 54.67
									 Z" class="st2"/>
					</g>
					<g id="shape277-55" v:mID="277" v:groupContext="shape" transform="translate(22.125,-16.05)">
						<title>Sheet.277</title>
						<path d="M5.78 56.17 C5.18 54.15 4.12 52.35 2.78 50.85 C1.95 51.37 1.05 51.82 0 52.27 C0.6 54.15 1.05 56.25
									 1.2 58.5 C2.93 57.9 4.43 57.07 5.78 56.17 Z" class="st2"/>
					</g>
					<g id="shape278-57" v:mID="278" v:groupContext="shape" transform="translate(19.05,-0.825)">
						<title>Sheet.278</title>
						<path d="M3.15 52.72 C2.4 55.12 1.35 57.07 0 58.5 C3.82 57.15 6.9 54.15 8.4 50.32 C6.82 51.37 5.1 52.12 3.15
									 52.72 Z" class="st2"/>
					</g>
					<g id="shape279-59" v:mID="279" v:groupContext="shape" transform="translate(8.1,1.49214E-13)">
						<title>Sheet.279</title>
						<path d="M5.4 58.5 L5.4 53.17 C3.53 53.17 1.73 52.95 0 52.57 C1.28 55.8 3.23 58.05 5.4 58.5 Z" class="st2"/>
					</g>
					<g id="shape280-61" v:mID="280" v:groupContext="shape" transform="translate(15,-6.825)">
						<title>Sheet.280</title>
						<path d="M6.83 51.3 C4.73 51.82 2.4 52.2 0 52.27 L0 58.5 C2.03 58.42 4.05 58.12 6 57.6 C6.53 55.65 6.83 53.47
									 6.83 51.3 Z" class="st2"/>
					</g>
					<g id="shape281-63" v:mID="281" v:groupContext="shape" transform="translate(6.675,-6.9)">
						<title>Sheet.281</title>
						<path d="M6.83 58.5 L6.83 52.27 C4.43 52.2 2.1 51.9 0 51.3 C0 53.62 0.38 55.8 0.9 57.67 C2.78 58.2 4.8 58.5
									 6.83 58.5 Z" class="st2"/>
					</g>
					<g id="shape282-65" v:mID="282" v:groupContext="shape" transform="translate(15,-0.075)">
						<title>Sheet.282</title>
						<path d="M0 53.17 L0 58.5 C2.18 58.05 4.2 55.72 5.4 52.42 C3.68 52.87 1.88 53.1 0 53.17 Z" class="st2"/>
					</g>
				</g>
			</g>
		</g>
	</g>
</svg>
