<?xml version="1.0" encoding="UTF-8" standalone="no"?>
<!DOCTYPE svg PUBLIC "-//W3C//DTD SVG 1.1//EN" "http://www.w3.org/Graphics/SVG/1.1/DTD/svg11.dtd">
<!-- Generated by Microsoft Visio, SVG Export IM Workload.svg Page-1 -->
<svg xmlns="http://www.w3.org/2000/svg" xmlns:xlink="http://www.w3.org/1999/xlink" xmlns:ev="http://www.w3.org/2001/xml-events"
		xmlns:v="http://schemas.microsoft.com/visio/2003/SVGExtensions/" width="0.864583in" height="0.833333in"
		viewBox="0 0 62.25 60" xml:space="preserve" color-interpolation-filters="sRGB" class="st3">
	<v:documentProperties v:langID="4108" v:metric="true" v:viewMarkup="false"/>

	<style type="text/css">
	<![CDATA[
		.st1 {fill:#ffffff;stroke:none;stroke-linecap:butt;stroke-width:0.75}
		.st2 {fill:#515150;stroke:none;stroke-linecap:butt;stroke-width:0.75}
		.st3 {fill:none;fill-rule:evenodd;font-size:12px;overflow:visible;stroke-linecap:square;stroke-miterlimit:3}
	]]>
	</style>

	<g v:mID="0" v:index="1" v:groupContext="foregroundPage">
		<title>Page-1</title>
		<v:pageProperties v:drawingScale="0.0393701" v:pageScale="0.0393701" v:drawingUnits="24" v:shadowOffsetX="8.50394"
				v:shadowOffsetY="-8.50394"/>
		<g id="group300-1" transform="translate(0.75,-0.75)" v:mID="300" v:groupContext="group">
			<title>IM Workload</title>
			<g id="group301-2" transform="translate(2.59792E-13,-12)" v:mID="301" v:groupContext="group">
				<title>Sheet.301</title>
				<g id="shape302-3" v:mID="302" v:groupContext="shape">
					<title>Sheet.302</title>
					<path d="M50.62 33.75 L50.25 33.75 L50.25 13.5 L6.75 13.5 L6.75 33.75 L6.37 33.75 L0 42 L0 60 L57 60 L57 42 L50.62
								 33.75 Z" class="st1"/>
				</g>
				<g id="shape303-5" v:mID="303" v:groupContext="shape" transform="translate(9,-19.5)">
					<title>Sheet.303</title>
					<rect x="0" y="57.75" width="39" height="2.25" class="st2"/>
				</g>
				<g id="shape304-7" v:mID="304" v:groupContext="shape" transform="translate(9,-24)">
					<title>Sheet.304</title>
					<rect x="0" y="57.75" width="39" height="2.25" class="st2"/>
				</g>
				<g id="shape305-9" v:mID="305" v:groupContext="shape" transform="translate(9,-28.5)">
					<title>Sheet.305</title>
					<rect x="0" y="57.75" width="39" height="2.25" class="st2"/>
				</g>
				<g id="shape306-11" v:mID="306" v:groupContext="shape" transform="translate(9,-33)">
					<title>Sheet.306</title>
					<rect x="0" y="57.75" width="39" height="2.25" class="st2"/>
				</g>
				<g id="shape307-13" v:mID="307" v:groupContext="shape" transform="translate(9,-37.5)">
					<title>Sheet.307</title>
					<rect x="0" y="57.75" width="39" height="2.25" class="st2"/>
				</g>
				<g id="shape308-15" v:mID="308" v:groupContext="shape" transform="translate(2.25,-2.25)">
					<title>Sheet.308</title>
					<path d="M48 39.22 L48 45 L4.5 45 L4.5 39.22 L0 45 L0 60 L52.5 60 L52.5 45 L48 39.22 Z" class="st2"/>
				</g>
				<g id="shape309-17" v:mID="309" v:groupContext="shape" transform="translate(9,-42)">
					<title>Sheet.309</title>
					<rect x="0" y="57.75" width="39" height="2.25" class="st2"/>
				</g>
			</g>
			<g id="group310-19" transform="translate(26.25,-1.27898E-13)" v:mID="310" v:groupContext="group">
				<title>Sheet.310</title>
				<g id="shape311-20" v:mID="311" v:groupContext="shape">
					<title>Sheet.311</title>
					<path d="M30.75 24 L3.75 24 C1.65 24 0 25.65 0 27.75 L0 48.75 C-0 50.85 1.65 52.5 3.75 52.5 L15 52.5 L15 57.75
								 C15 58.72 15.6 59.55 16.5 59.85 C16.72 59.92 17.03 60 17.25 60 C17.92 60 18.52 59.7 18.97 59.17
								 L24.67 52.5 L30.75 52.5 C32.85 52.5 34.5 50.85 34.5 48.75 L34.5 27.75 C34.5 25.65 32.85 24 30.75
								 24 Z" class="st1"/>
				</g>
				<g id="shape312-22" v:mID="312" v:groupContext="shape" transform="translate(2.25,-2.25)">
					<title>Sheet.312</title>
					<path d="M28.5 28.5 L1.5 28.5 C0.67 28.5 0 29.17 0 30 L0 51 C0 51.82 0.67 52.5 1.5 52.5 L15 52.5 L15 60 L21.37
								 52.5 L28.5 52.5 C29.32 52.5 30 51.82 30 51 L30 30 C30 29.17 29.32 28.5 28.5 28.5 ZM6 36.75 L18.75
								 36.75 L18.75 38.25 L6 38.25 L6 36.75 ZM21.75 43.5 L6 43.5 L6 42 L21.75 42 L21.75 43.5 Z"
							class="st2"/>
				</g>
			</g>
		</g>
	</g>
</svg>
