<?xml version="1.0" encoding="UTF-8" standalone="no"?>
<!DOCTYPE svg PUBLIC "-//W3C//DTD SVG 1.1//EN" "http://www.w3.org/Graphics/SVG/1.1/DTD/svg11.dtd">
<!-- Generated by Microsoft Visio, SVG Export Journaling Rule.svg Page-1 -->
<svg xmlns="http://www.w3.org/2000/svg" xmlns:xlink="http://www.w3.org/1999/xlink" xmlns:ev="http://www.w3.org/2001/xml-events"
		xmlns:v="http://schemas.microsoft.com/visio/2003/SVGExtensions/" width="0.802083in" height="0.885417in"
		viewBox="0 0 57.75 63.75" xml:space="preserve" color-interpolation-filters="sRGB" class="st4">
	<v:documentProperties v:langID="4108" v:metric="true" v:viewMarkup="false"/>

	<style type="text/css">
	<![CDATA[
		.st1 {fill:#ffffff;stroke:none;stroke-linecap:butt;stroke-width:0.75}
		.st2 {fill:#515050;stroke:none;stroke-linecap:butt;stroke-width:0.75}
		.st3 {fill:#505150;stroke:none;stroke-linecap:butt;stroke-width:0.75}
		.st4 {fill:none;fill-rule:evenodd;font-size:12px;overflow:visible;stroke-linecap:square;stroke-miterlimit:3}
	]]>
	</style>

	<g v:mID="0" v:index="1" v:groupContext="foregroundPage">
		<title>Page-1</title>
		<v:pageProperties v:drawingScale="0.0393701" v:pageScale="0.0393701" v:drawingUnits="24" v:shadowOffsetX="8.50394"
				v:shadowOffsetY="-8.50394"/>
		<g id="group313-1" transform="translate(0.75,-0.75)" v:mID="313" v:groupContext="group">
			<title>Journaling Rule</title>
			<g id="group314-2" transform="translate(-1.79856E-13,-7.5)" v:mID="314" v:groupContext="group">
				<title>Sheet.314</title>
				<g id="group315-3" v:mID="315" v:groupContext="group">
					<title>Sheet.315</title>
					<g id="shape316-4" v:mID="316" v:groupContext="shape">
						<title>Sheet.316</title>
						<path d="M0 63.75 L0 9 L30.9 9 L44.25 22.35 L44.25 63.75 L0 63.75 Z" class="st1"/>
					</g>
					<g id="shape317-6" v:mID="317" v:groupContext="shape" transform="translate(2.25,-2.25)">
						<title>Sheet.317</title>
						<path d="M39.75 63.75 L39.75 25.5 L27.75 13.5 L0 13.5 L0 63.75 L39.75 63.75 ZM2.25 61.5 L2.25 15.75 L26.25
									 15.75 L26.25 27.75 L37.5 27.75 L37.5 61.5 L2.25 61.5 Z" class="st2"/>
					</g>
					<g id="shape318-8" v:mID="318" v:groupContext="shape" transform="translate(14.25,-21)">
						<title>Sheet.318</title>
						<rect x="0" y="61.5" width="18.75" height="2.25" class="st2"/>
					</g>
					<g id="shape319-10" v:mID="319" v:groupContext="shape" transform="translate(14.25,-13.5)">
						<title>Sheet.319</title>
						<rect x="0" y="61.5" width="18.75" height="2.25" class="st2"/>
					</g>
				</g>
				<g id="shape320-12" v:mID="320" v:groupContext="shape" transform="translate(8.25,-20.25)">
					<title>Sheet.320</title>
					<ellipse cx="1.875" cy="61.875" rx="1.875" ry="1.875" class="st2"/>
				</g>
				<g id="shape321-14" v:mID="321" v:groupContext="shape" transform="translate(14.25,-28.5)">
					<title>Sheet.321</title>
					<rect x="0" y="61.5" width="18.75" height="2.25" class="st2"/>
				</g>
				<g id="shape322-16" v:mID="322" v:groupContext="shape" transform="translate(8.25,-27.75)">
					<title>Sheet.322</title>
					<ellipse cx="1.875" cy="61.875" rx="1.875" ry="1.875" class="st2"/>
				</g>
				<g id="shape323-18" v:mID="323" v:groupContext="shape" transform="translate(8.25,-12.75)">
					<title>Sheet.323</title>
					<ellipse cx="1.875" cy="61.875" rx="1.875" ry="1.875" class="st2"/>
				</g>
			</g>
			<g id="group324-20" transform="translate(27,-1.42109E-14)" v:mID="324" v:groupContext="group">
				<title>Sheet.324</title>
				<g id="shape325-21" v:mID="325" v:groupContext="shape">
					<title>Sheet.325</title>
					<path d="M4.65 29.25 C2.1 29.25 0 31.35 0 33.9 L0 58.35 C-0 61.73 1.87 63.75 5.03 63.75 L29.25 63.75 L29.25 60.75
								 L29.25 57.75 L29.25 29.25 L4.65 29.25 Z" class="st1"/>
				</g>
				<g id="shape326-23" v:mID="326" v:groupContext="shape" transform="translate(2.25,-2.25)">
					<title>Sheet.326</title>
					<path d="M3.75 60.75 L4.5 60.75 L4.5 33.75 L2.4 33.75 C1.05 33.75 0 34.8 0 36.15 L0 60.6 C0 62.33 0.52 63.75
								 2.78 63.75 C3.15 63.75 24.75 63.75 24.75 63.75 L24.75 62.25 L2.4 62.25 C2.25 61.43 2.48 60.75 3.75
								 60.75 Z" class="st3"/>
				</g>
				<g id="shape327-25" v:mID="327" v:groupContext="shape" transform="translate(8.25,-5.25)">
					<title>Sheet.327</title>
					<rect x="0" y="36.75" width="18.75" height="27" class="st3"/>
				</g>
			</g>
		</g>
	</g>
</svg>
