<?xml version="1.0" encoding="UTF-8" standalone="no"?>
<!DOCTYPE svg PUBLIC "-//W3C//DTD SVG 1.1//EN" "http://www.w3.org/Graphics/SVG/1.1/DTD/svg11.dtd">
<!-- Generated by Microsoft Visio, SVG Export Local Move Request.svg Page-1 -->
<svg xmlns="http://www.w3.org/2000/svg" xmlns:xlink="http://www.w3.org/1999/xlink" xmlns:ev="http://www.w3.org/2001/xml-events"
		xmlns:v="http://schemas.microsoft.com/visio/2003/SVGExtensions/" width="0.885417in" height="0.864583in"
		viewBox="0 0 63.75 62.25" xml:space="preserve" color-interpolation-filters="sRGB" class="st3">
	<v:documentProperties v:langID="4108" v:metric="true" v:viewMarkup="false"/>

	<style type="text/css">
	<![CDATA[
		.st1 {fill:#ffffff;stroke:none;stroke-linecap:butt;stroke-width:0.75}
		.st2 {fill:#515150;stroke:none;stroke-linecap:butt;stroke-width:0.75}
		.st3 {fill:none;fill-rule:evenodd;font-size:12px;overflow:visible;stroke-linecap:square;stroke-miterlimit:3}
	]]>
	</style>

	<g v:mID="0" v:index="1" v:groupContext="foregroundPage">
		<title>Page-1</title>
		<v:pageProperties v:drawingScale="0.0393701" v:pageScale="0.0393701" v:drawingUnits="24" v:shadowOffsetX="8.50394"
				v:shadowOffsetY="-8.50394"/>
		<g id="group328-1" transform="translate(0.75,-0.75)" v:mID="328" v:groupContext="group">
			<title>Local Move Request</title>
			<g id="group329-2" v:mID="329" v:groupContext="group">
				<title>Sheet.329</title>
				<g id="group330-3" transform="translate(-2.95763E-13,-7.5)" v:mID="330" v:groupContext="group">
					<title>Sheet.330</title>
					<g id="group331-4" v:mID="331" v:groupContext="group">
						<title>Sheet.331</title>
						<g id="shape332-5" v:mID="332" v:groupContext="shape">
							<title>Sheet.332</title>
							<path d="M0 47.25 L0 62.25 L57 62.25 L57 47.25 L57 44.7 L56.55 42.75 L52.8 27.07 L51.75 27.07 L51.75
										 15 L50.25 15 L50.25 9 L6.75 9 L6.75 15 L5.25 15 L5.25 27.07 L4.2 27.07 L0.45 42.75 L0 44.7
										 L0 47.25 Z" class="st1"/>
						</g>
						<g id="group333-7" transform="translate(15,-21.75)" v:mID="333" v:groupContext="group">
							<title>Sheet.333</title>
							<g id="shape334-8" v:mID="334" v:groupContext="shape" transform="translate(23.25,-11.25)">
								<title>Sheet.334</title>
								<rect x="0" y="55.5" width="6" height="6.75" class="st2"/>
							</g>
							<g id="shape335-10" v:mID="335" v:groupContext="shape" transform="translate(0,-5.25)">
								<title>Sheet.335</title>
								<rect x="0" y="60" width="15.75" height="2.25" class="st2"/>
							</g>
							<g id="shape336-12" v:mID="336" v:groupContext="shape">
								<title>Sheet.336</title>
								<rect x="0" y="60" width="20.25" height="2.25" class="st2"/>
							</g>
						</g>
						<g id="shape337-14" v:mID="337" v:groupContext="shape" transform="translate(9,-47.25)">
							<title>Sheet.337</title>
							<path d="M0 58.5 L0 62.25 L2.25 62.25 L2.25 60.75 L36.75 60.75 L36.75 62.25 L39 62.25 L39 58.5 L0 58.5
										 Z" class="st2"/>
						</g>
					</g>
					<g id="shape338-16" v:mID="338" v:groupContext="shape" transform="translate(2.25,-2.25)">
						<title>Sheet.338</title>
						<path d="M48.75 31.57 L47.25 31.57 L47.25 19.5 L5.25 19.5 L5.25 31.57 L3.75 31.57 L0 47.25 L0 62.25 L52.5
									 62.25 L52.5 47.25 L48.75 31.57 ZM45 31.57 L45 47.25 L7.5 47.25 L7.5 31.57 L7.5 21.75 L45 21.75
									 L45 31.57 Z" class="st2"/>
					</g>
				</g>
				<g id="group339-18" transform="translate(29.25,-2.91323E-13)" v:mID="339" v:groupContext="group">
					<title>Sheet.339</title>
					<g id="shape340-19" v:mID="340" v:groupContext="shape">
						<title>Sheet.340</title>
						<path d="M21.75 39.75 L12.75 39.75 L12.75 42.75 L16.12 46.5 L0 46.5 L0 55.5 L16.12 55.5 L12.75 59.25 L12.75
									 62.25 L21.75 62.25 L33 51 L21.75 39.75 Z" class="st1"/>
					</g>
					<g id="shape341-21" v:mID="341" v:groupContext="shape" transform="translate(2.25,-2.25)">
						<title>Sheet.341</title>
						<path d="M19.35 51 L12.75 44.25 L18 44.25 L27.6 53.25 L18.75 62.25 L12.75 62.25 L19.35 55.5 L0 55.5 L0 51
									 L19.35 51 Z" class="st2"/>
					</g>
				</g>
			</g>
		</g>
	</g>
</svg>
