<?xml version="1.0" encoding="UTF-8" standalone="no"?>
<!DOCTYPE svg PUBLIC "-//W3C//DTD SVG 1.1//EN" "http://www.w3.org/Graphics/SVG/1.1/DTD/svg11.dtd">
<!-- Generated by Microsoft Visio, SVG Export Lync Control Panel.svg Page-1 -->
<svg xmlns="http://www.w3.org/2000/svg" xmlns:xlink="http://www.w3.org/1999/xlink" xmlns:ev="http://www.w3.org/2001/xml-events"
		xmlns:v="http://schemas.microsoft.com/visio/2003/SVGExtensions/" width="1.04271in" height="0.895833in"
		viewBox="0 0 75.075 64.5" xml:space="preserve" color-interpolation-filters="sRGB" class="st5">
	<v:documentProperties v:langID="4108" v:metric="true" v:viewMarkup="false"/>

	<style type="text/css">
	<![CDATA[
		.st1 {fill:#ffffff;stroke:none;stroke-linecap:butt;stroke-width:0.75}
		.st2 {fill:#515150;stroke:none;stroke-linecap:butt;stroke-width:0.75}
		.st3 {fill:#2372ba;stroke:none;stroke-linecap:butt;stroke-width:0.75}
		.st4 {fill:#0773b8;stroke:none;stroke-linecap:butt;stroke-width:0.75}
		.st5 {fill:none;fill-rule:evenodd;font-size:12px;overflow:visible;stroke-linecap:square;stroke-miterlimit:3}
	]]>
	</style>

	<g v:mID="0" v:index="1" v:groupContext="foregroundPage">
		<title>Page-1</title>
		<v:pageProperties v:drawingScale="0.0393701" v:pageScale="0.0393701" v:drawingUnits="24" v:shadowOffsetX="8.50394"
				v:shadowOffsetY="-8.50394"/>
		<g id="group342-1" transform="translate(0.75,-0.75)" v:mID="342" v:groupContext="group">
			<title>Lync Control Panel</title>
			<g id="group343-2" v:mID="343" v:groupContext="group">
				<title>Sheet.343</title>
				<g id="group344-3" v:mID="344" v:groupContext="group">
					<title>Sheet.344</title>
					<g id="shape345-4" v:mID="345" v:groupContext="shape">
						<title>Sheet.345</title>
						<path d="M3.75 64.5 C1.65 64.5 0 62.85 0 60.75 L0 40.5 C0 38.7 1.28 37.2 3 36.82 L3 18.15 L2.25 12.9 L2.25
									 3.75 L11.25 3.75 L11.25 12.9 L10.5 18.15 L10.5 36.82 C12.23 37.2 13.5 38.62 13.5 40.5 L13.5
									 60.75 C13.5 62.85 11.85 64.5 9.75 64.5 L3.75 64.5 Z" class="st1"/>
					</g>
					<g id="shape346-6" v:mID="346" v:groupContext="shape" transform="translate(2.25,-2.25)">
						<title>Sheet.346</title>
						<path d="M7.5 41.25 L6 41.25 L6 20.25 L6.75 15 L6.75 8.25 L2.25 8.25 L2.25 15 L3 20.25 L3 41.25 L1.58 41.25
									 C0.68 41.25 0 41.92 0 42.75 L0 63 C0 63.82 0.68 64.5 1.5 64.5 L5.18 64.5 L6.23 64.5 L7.5 64.5
									 C8.33 64.5 9 63.82 9 63 L9 42.75 C9 41.92 8.33 41.25 7.5 41.25 Z" class="st2"/>
					</g>
				</g>
				<g id="group347-8" transform="translate(16.425,-0.075)" v:mID="347" v:groupContext="group">
					<title>Sheet.347</title>
					<g id="shape348-9" v:mID="348" v:groupContext="shape">
						<title>Sheet.348</title>
						<path d="M23.02 6.75 C22.13 5.85 21.07 5.02 19.87 4.42 L18.75 3.82 L16.57 3.82 L16.57 14.62 L13.57 16.57
									 L10.57 14.62 L10.57 3.82 L8.4 3.82 L7.27 4.42 C6 5.1 4.95 5.92 4.05 6.75 C1.43 9.3 0 12.75 0
									 16.42 C0 20.1 1.42 23.55 3.97 26.1 C4.58 26.7 5.25 27.37 6.15 27.97 L6.15 57.15 C6.15 61.12
									 9.07 64.5 13.65 64.5 C15 64.5 17.4 63.75 18.75 62.4 C20.18 60.97 20.93 59.1 20.92 57.15 L20.92
									 28.05 C21.67 27.52 22.35 26.92 23.1 26.17 C25.65 23.55 27.07 20.1 27.07 16.5 C27.07 12.82 25.65
									 9.37 23.02 6.75 Z" class="st1"/>
					</g>
					<g id="shape349-11" v:mID="349" v:groupContext="shape" transform="translate(1.125,-2.175)">
						<title>Sheet.349</title>
						<path d="M7.28 28.95 L7.28 29.62 L7.28 59.4 C7.28 62.17 9.53 64.5 12.37 64.5 C15.15 64.5 17.55 62.17 17.55
									 59.4 L17.55 28.95 C18.67 28.42 19.43 27.67 20.33 26.77 C24.83 22.27 24.75 15 20.33 10.57 C19.5
									 9.75 18.67 9.15 17.7 8.62 L17.7 9 L17.7 18 L12.45 21.45 L7.2 18 L7.2 9.07 L7.2 8.62 C6.22 9.15
									 5.33 9.75 4.5 10.57 C-0 15.07 0 22.27 4.5 26.77 C5.25 27.52 5.93 28.12 6.68 28.57 L7.28 28.95
									 ZM12.45 61.42 C11.32 61.42 10.42 60.52 10.43 59.4 C10.42 58.27 11.33 57.37 12.45 57.37 C13.57
									 57.37 14.48 58.27 14.48 59.4 C14.48 60.52 13.57 61.42 12.45 61.42 Z" class="st2"/>
					</g>
				</g>
			</g>
			<g id="group350-13" transform="translate(43.5,-34.5)" v:mID="350" v:groupContext="group">
				<title>Sheet.350</title>
				<g id="shape351-14" v:mID="351" v:groupContext="shape">
					<title>Sheet.351</title>
					<path d="M30.08 50.62 C30.08 46.5 26.7 43.12 22.58 43.12 L22.2 43.12 L21.38 42.07 C20.7 41.17 19.8 40.65 18.75
								 40.57 L18.75 36 L16.35 36 L0 38.55 L0 61.87 L16.28 64.5 L18.75 64.5 L18.75 58.05 C19.13 58.12 19.43
								 58.12 19.8 58.12 L20.18 58.12 L21 59.17 C21.68 60.15 22.73 60.67 23.85 60.67 C25.8 60.67 27.3 59.1
								 27.3 57.22 C27.3 57 27.3 56.77 27.23 56.55 C28.95 55.2 30.08 53.02 30.08 50.62 Z" class="st1"/>
				</g>
				<g id="shape352-16" v:mID="352" v:groupContext="shape" transform="translate(2.25,-2.25)">
					<title>Sheet.352</title>
					<path d="M14.25 40.5 L0 42.75 L0 62.25 L14.25 64.5 L14.25 40.5 Z" class="st3"/>
				</g>
				<g id="shape353-18" v:mID="353" v:groupContext="shape" transform="translate(7.575,-9.225)">
					<title>Sheet.353</title>
					<path d="M1.8 54.6 L0 54.67 L0 64.2 L4.95 64.5 L4.95 62.55 L1.8 62.47 L1.8 54.6 Z" class="st1"/>
				</g>
				<g id="shape354-20" v:mID="354" v:groupContext="shape" transform="translate(17.25,-15.225)">
					<title>Sheet.354</title>
					<path d="M0.9 60.82 C0.6 60.9 0.3 61.05 0 61.2 L0 64.5 C0.45 63.6 1.42 62.92 2.55 62.92 L5.32 62.92 C5.47 62.92
								 5.7 62.92 5.7 62.92 L3.82 60.52 L2.32 58.65 C2.1 58.27 1.72 58.05 1.27 58.05 C0.6 58.05 0.08 58.57
								 0.08 59.25 C0.08 59.47 0.15 59.7 0.23 59.92 L0.9 60.82 Z" class="st4"/>
				</g>
				<g id="shape355-22" v:mID="355" v:groupContext="shape" transform="translate(17.25,-8.55)">
					<title>Sheet.355</title>
					<path d="M0 60.52 L0 63.82 C0.75 64.2 1.58 64.5 2.47 64.5 L3 64.5 L0.3 61.2 C0.22 60.9 0.07 60.75 0 60.52 Z"
							class="st4"/>
				</g>
				<g id="shape356-24" v:mID="356" v:groupContext="shape" transform="translate(19.425,-6.15)">
					<title>Sheet.356</title>
					<path d="M8.4 56.77 C8.4 53.85 6.08 51.52 3.15 51.52 L2.63 51.52 L5.33 54.82 C5.7 55.27 6 56.02 6 56.77 C6 58.35
								 4.73 59.62 3.15 59.62 L0.38 59.62 C0.23 59.62 0 59.62 0 59.62 L1.88 62.02 L3.38 63.9 C3.6 64.27
								 3.98 64.5 4.43 64.5 C5.1 64.5 5.63 63.97 5.63 63.3 C5.63 63.07 5.55 62.85 5.48 62.62 L4.8 61.72
								 C6.9 61.12 8.4 59.1 8.4 56.77 Z" class="st4"/>
				</g>
			</g>
		</g>
	</g>
</svg>
