<?xml version="1.0" encoding="UTF-8" standalone="no"?>
<!DOCTYPE svg PUBLIC "-//W3C//DTD SVG 1.1//EN" "http://www.w3.org/Graphics/SVG/1.1/DTD/svg11.dtd">
<!-- Generated by Microsoft Visio, SVG Export Lync Phone Edition.svg Page-1 -->
<svg xmlns="http://www.w3.org/2000/svg" xmlns:xlink="http://www.w3.org/1999/xlink" xmlns:ev="http://www.w3.org/2001/xml-events"
		xmlns:v="http://schemas.microsoft.com/visio/2003/SVGExtensions/" width="1.17813in" height="0.697917in"
		viewBox="0 0 84.825 50.25" xml:space="preserve" color-interpolation-filters="sRGB" class="st5">
	<v:documentProperties v:langID="4108" v:metric="true" v:viewMarkup="false"/>

	<style type="text/css">
	<![CDATA[
		.st1 {fill:#ffffff;stroke:none;stroke-linecap:butt;stroke-width:0.75}
		.st2 {fill:#515150;stroke:none;stroke-linecap:butt;stroke-width:0.75}
		.st3 {fill:#2372ba;stroke:none;stroke-linecap:butt;stroke-width:0.75}
		.st4 {fill:#0773b8;stroke:none;stroke-linecap:butt;stroke-width:0.75}
		.st5 {fill:none;fill-rule:evenodd;font-size:12px;overflow:visible;stroke-linecap:square;stroke-miterlimit:3}
	]]>
	</style>

	<g v:mID="0" v:index="1" v:groupContext="foregroundPage">
		<title>Page-1</title>
		<v:pageProperties v:drawingScale="0.0393701" v:pageScale="0.0393701" v:drawingUnits="24" v:shadowOffsetX="8.50394"
				v:shadowOffsetY="-8.50394"/>
		<g id="group357-1" transform="translate(0.75,-0.75)" v:mID="357" v:groupContext="group">
			<title>Lync Phone Edition</title>
			<g id="group358-2" v:mID="358" v:groupContext="group">
				<title>Sheet.358</title>
				<g id="shape359-3" v:mID="359" v:groupContext="shape">
					<title>Sheet.359</title>
					<path d="M48.08 3.75 L18.08 3.75 C16.35 3.75 14.78 4.57 13.8 5.92 C13.12 5.17 12.22 4.57 11.1 4.2 C9.9 3.83 9.23
								 3.75 7.58 3.75 C5.92 3.75 5.25 3.83 4.05 4.2 C1.65 4.95 0.22 6.67 0.08 9.15 C0 9.98 0.07 11.03 0.15
								 12.97 C0.22 15.6 0.37 19.95 0.38 27.45 C0.37 33.45 0.22 37.42 0.15 39.97 C-0 42.15 0 43.5 0 44.7
								 C0.15 47.25 1.65 49.05 4.05 49.72 C5.25 50.1 6.3 50.25 7.42 50.25 C8.63 50.25 9.83 50.1 11.02 49.72
								 C12.15 49.42 13.12 48.82 13.8 48 C14.78 49.35 16.27 50.17 18.08 50.17 L48.08 50.17 C51 50.17 53.32
								 47.85 53.32 44.92 L53.32 9 C53.32 6.07 51 3.75 48.08 3.75 Z" class="st1"/>
				</g>
				<g id="shape360-5" v:mID="360" v:groupContext="shape" transform="translate(2.25,-2.25)">
					<title>Sheet.360</title>
					<path d="M10.65 11.62 C10.5 9.98 9.67 9.08 8.25 8.63 C7.35 8.32 6.9 8.25 5.4 8.25 C3.83 8.25 3.45 8.32 2.55 8.63
								 C1.13 9.08 0.22 9.98 0.15 11.62 C-0 13.43 0.45 17.1 0.45 29.77 C0.45 40.5 -0 44.4 0.15 46.87 C0.22
								 48.52 1.13 49.5 2.55 49.87 C3.37 50.1 4.27 50.25 5.25 50.25 C6.23 50.25 7.27 50.1 8.25 49.87 C9.67
								 49.5 10.58 48.52 10.65 46.87 C10.8 44.4 10.43 40.72 10.42 30 C10.43 17.33 10.8 13.43 10.65 11.62
								 Z" class="st2"/>
				</g>
				<g id="shape361-7" v:mID="361" v:groupContext="shape" transform="translate(15.075,-2.25)">
					<title>Sheet.361</title>
					<path d="M33 8.25 L3 8.25 C1.35 8.25 0 9.6 0 11.25 L0 47.25 C0 48.9 1.35 50.25 3 50.25 L33 50.25 C34.65 50.25
								 35.93 48.9 35.93 47.25 L35.93 11.25 C35.93 9.6 34.65 8.25 33 8.25 ZM12.75 40.5 C12.75 40.95 12.45
								 41.25 12 41.25 L8.25 41.25 C7.8 41.25 7.5 40.95 7.5 40.5 L7.5 39 C7.5 38.55 7.8 38.25 8.25 38.25
								 L12 38.25 C12.45 38.25 12.75 38.55 12.75 39 L12.75 40.5 ZM12.75 35.25 C12.75 35.7 12.45 36 12 36
								 L8.25 36 C7.8 36 7.5 35.7 7.5 35.25 L7.5 33.75 C7.5 33.3 7.8 33 8.25 33 L12 33 C12.45 33 12.75 33.3
								 12.75 33.75 L12.75 35.25 ZM12.75 30 C12.75 30.45 12.45 30.75 12 30.75 L8.25 30.75 C7.8 30.75 7.5
								 30.45 7.5 30 L7.5 28.5 C7.5 28.05 7.8 27.75 8.25 27.75 L12 27.75 C12.45 27.75 12.75 28.05 12.75
								 28.5 L12.75 30 ZM20.25 40.5 C20.25 40.95 19.95 41.25 19.5 41.25 L15.75 41.25 C15.3 41.25 15 40.95
								 15 40.5 L15 39 C15 38.55 15.3 38.25 15.75 38.25 L19.5 38.25 C19.95 38.25 20.25 38.55 20.25 39 L20.25
								 40.5 ZM20.25 35.25 C20.25 35.7 19.95 36 19.5 36 L15.75 36 C15.3 36 15 35.7 15 35.25 L15 33.75 C15
								 33.3 15.3 33 15.75 33 L19.5 33 C19.95 33 20.25 33.3 20.25 33.75 L20.25 35.25 ZM20.25 30 C20.25 30.45
								 19.95 30.75 19.5 30.75 L15.75 30.75 C15.3 30.75 15 30.45 15 30 L15 28.5 C15 28.05 15.3 27.75 15.75
								 27.75 L19.5 27.75 C19.95 27.75 20.25 28.05 20.25 28.5 L20.25 30 ZM27.75 40.5 C27.75 40.95 27.45
								 41.25 27 41.25 L23.25 41.25 C22.8 41.25 22.5 40.95 22.5 40.5 L22.5 39 C22.5 38.55 22.8 38.25 23.25
								 38.25 L27 38.25 C27.45 38.25 27.75 38.55 27.75 39 L27.75 40.5 ZM27.75 35.25 C27.75 35.7 27.45 36
								 27 36 L23.25 36 C22.8 36 22.5 35.7 22.5 35.25 L22.5 33.75 C22.5 33.3 22.8 33 23.25 33 L27 33 C27.45
								 33 27.75 33.3 27.75 33.75 L27.75 35.25 ZM27.75 30 C27.75 30.45 27.45 30.75 27 30.75 L23.25 30.75
								 C22.8 30.75 22.5 30.45 22.5 30 L22.5 28.5 C22.5 28.05 22.8 27.75 23.25 27.75 L27 27.75 C27.45 27.75
								 27.75 28.05 27.75 28.5 L27.75 30 ZM30 21.75 C30 22.2 29.7 22.5 29.25 22.5 L6.75 22.5 C6.3 22.5 5.92
								 22.2 5.93 21.75 L5.93 13.5 C5.92 13.05 6.3 12.75 6.75 12.75 L29.25 12.75 C29.7 12.75 30 13.05 30
								 13.5 L30 21.75 Z" class="st2"/>
				</g>
			</g>
			<g id="group362-9" transform="translate(53.25,-20.25)" v:mID="362" v:groupContext="group">
				<title>Sheet.362</title>
				<g id="shape363-10" v:mID="363" v:groupContext="shape">
					<title>Sheet.363</title>
					<path d="M30.07 36.37 C30.07 32.25 26.7 28.87 22.57 28.87 L22.2 28.87 L21.37 27.82 C20.7 26.92 19.8 26.4 18.75
								 26.32 L18.75 21.75 L16.35 21.75 L0 24.3 L0 47.62 L16.35 50.25 L18.75 50.25 L18.75 43.8 C19.12 43.87
								 19.42 43.87 19.8 43.87 L20.17 43.87 L21 44.92 C21.67 45.9 22.72 46.42 23.85 46.42 C25.8 46.42 27.3
								 44.85 27.3 42.97 C27.3 42.75 27.3 42.52 27.22 42.3 C29.02 40.95 30.07 38.77 30.07 36.37 Z"
							class="st1"/>
				</g>
				<g id="shape364-12" v:mID="364" v:groupContext="shape" transform="translate(2.25,-2.25)">
					<title>Sheet.364</title>
					<path d="M14.25 26.25 L0 28.5 L0 48 L14.25 50.25 L14.25 26.25 Z" class="st3"/>
				</g>
				<g id="shape365-14" v:mID="365" v:groupContext="shape" transform="translate(7.575,-9.225)">
					<title>Sheet.365</title>
					<path d="M1.8 40.35 L0 40.42 L0 49.95 L4.95 50.25 L4.95 48.3 L1.8 48.22 L1.8 40.35 Z" class="st1"/>
				</g>
				<g id="shape366-16" v:mID="366" v:groupContext="shape" transform="translate(17.25,-15.225)">
					<title>Sheet.366</title>
					<path d="M0.9 46.57 C0.6 46.65 0.3 46.8 0 46.95 L0 50.25 C0.45 49.35 1.42 48.67 2.55 48.67 L5.32 48.67 C5.47
								 48.67 5.7 48.67 5.7 48.67 L3.82 46.27 L2.32 44.4 C2.1 44.02 1.72 43.8 1.27 43.8 C0.6 43.8 0.08 44.32
								 0.08 45 C0.08 45.22 0.15 45.45 0.23 45.67 L0.9 46.57 Z" class="st4"/>
				</g>
				<g id="shape367-18" v:mID="367" v:groupContext="shape" transform="translate(17.25,-8.55)">
					<title>Sheet.367</title>
					<path d="M0 46.27 L0 49.57 C0.75 49.95 1.58 50.25 2.48 50.25 L3 50.25 L0.3 46.95 C0.22 46.65 0.15 46.5 0 46.27
								 Z" class="st4"/>
				</g>
				<g id="shape368-20" v:mID="368" v:groupContext="shape" transform="translate(19.425,-6.15)">
					<title>Sheet.368</title>
					<path d="M8.4 42.52 C8.4 39.6 6.08 37.27 3.15 37.27 L2.63 37.27 L5.32 40.57 C5.7 41.02 6 41.77 6 42.52 C6 44.1
								 4.72 45.37 3.15 45.37 L0.38 45.37 C0.22 45.37 0 45.37 0 45.37 L1.87 47.77 L3.37 49.65 C3.6 50.02
								 3.98 50.25 4.42 50.25 C5.1 50.25 5.63 49.72 5.62 49.05 C5.63 48.82 5.55 48.6 5.47 48.37 L4.8 47.47
								 C6.9 46.87 8.4 44.85 8.4 42.52 Z" class="st4"/>
				</g>
			</g>
		</g>
	</g>
</svg>
