<?xml version="1.0" encoding="UTF-8" standalone="no"?>
<!DOCTYPE svg PUBLIC "-//W3C//DTD SVG 1.1//EN" "http://www.w3.org/Graphics/SVG/1.1/DTD/svg11.dtd">
<!-- Generated by Microsoft Visio, SVG Export Lync Room System.svg Page-1 -->
<svg xmlns="http://www.w3.org/2000/svg" xmlns:xlink="http://www.w3.org/1999/xlink" xmlns:ev="http://www.w3.org/2001/xml-events"
		xmlns:v="http://schemas.microsoft.com/visio/2003/SVGExtensions/" width="1.18333in" height="0.655208in"
		viewBox="0 0 85.2 47.175" xml:space="preserve" color-interpolation-filters="sRGB" class="st5">
	<v:documentProperties v:langID="4108" v:metric="true" v:viewMarkup="false"/>

	<style type="text/css">
	<![CDATA[
		.st1 {fill:#ffffff;stroke:none;stroke-linecap:butt;stroke-width:0.75}
		.st2 {fill:#515251;stroke:none;stroke-linecap:butt;stroke-width:0.75}
		.st3 {fill:#2372ba;stroke:none;stroke-linecap:butt;stroke-width:0.75}
		.st4 {fill:#0773b8;stroke:none;stroke-linecap:butt;stroke-width:0.75}
		.st5 {fill:none;fill-rule:evenodd;font-size:12px;overflow:visible;stroke-linecap:square;stroke-miterlimit:3}
	]]>
	</style>

	<g v:mID="0" v:index="1" v:groupContext="foregroundPage">
		<title>Page-1</title>
		<v:pageProperties v:drawingScale="0.0393701" v:pageScale="0.0393701" v:drawingUnits="24" v:shadowOffsetX="8.50394"
				v:shadowOffsetY="-8.50394"/>
		<g id="group369-1" transform="translate(0.75,-0.75)" v:mID="369" v:groupContext="group">
			<title>Lync Room System</title>
			<g id="group370-2" v:mID="370" v:groupContext="group">
				<title>Sheet.370</title>
				<g id="shape371-3" v:mID="371" v:groupContext="shape" transform="translate(2.17826E-13,-6.75)">
					<title>Sheet.371</title>
					<path d="M0 47.1 L0 45.6 L0.07 44.7 C0.15 43.27 0.52 40.2 0.82 38.85 C1.2 37.12 1.87 35.7 3.67 34.65 L4.2 34.35
								 C5.33 33.75 5.92 33.3 6.9 33.3 C7.42 33.3 7.95 33.45 8.4 33.67 L8.62 33.82 L8.85 34.05 C9.07 34.2
								 9.22 34.35 9.45 34.5 C9.6 34.57 9.75 34.65 9.9 34.72 C10.27 34.87 10.65 34.95 11.02 34.95 C11.4
								 34.95 11.77 34.87 12.07 34.8 C12.3 34.72 12.45 34.65 12.6 34.57 L12.97 34.35 L13.05 34.35 C13.12
								 34.27 13.2 34.2 13.27 34.12 L13.42 33.97 L13.65 33.82 C14.1 33.6 14.62 33.45 15.15 33.45 C16.05
								 33.45 16.8 33.9 17.77 34.42 L18.3 34.72 C20.1 35.77 20.77 37.12 21.22 38.92 C21.52 40.35 21.9 43.35
								 21.97 44.77 L22.12 47.17 L0 47.1 Z" class="st1"/>
				</g>
				<g id="shape372-5" v:mID="372" v:groupContext="shape" transform="translate(35.85,-6.75)">
					<title>Sheet.372</title>
					<path d="M0 47.1 L0.15 44.7 C0.23 43.27 0.6 40.2 0.9 38.85 C1.27 37.12 1.95 35.7 3.75 34.65 L4.27 34.35 C5.4
								 33.75 6 33.3 6.97 33.3 C7.5 33.3 8.02 33.45 8.47 33.67 L8.7 33.82 L8.92 34.05 C9.15 34.2 9.3 34.35
								 9.52 34.5 C9.67 34.57 9.82 34.65 9.97 34.72 C10.35 34.87 10.72 34.95 11.1 34.95 C11.47 34.95 11.85
								 34.87 12.15 34.8 C12.37 34.72 12.52 34.65 12.67 34.57 L12.82 34.5 C13.05 34.35 13.2 34.27 13.35
								 34.12 L13.5 33.97 L13.72 33.82 C14.17 33.6 14.7 33.45 15.22 33.45 C16.12 33.45 16.87 33.9 17.85
								 34.42 L18.37 34.72 C20.17 35.77 20.85 37.12 21.3 38.92 C21.6 40.35 21.97 43.35 22.05 44.77 L22.12
								 45.67 L22.12 47.17 L0 47.1 Z" class="st1"/>
				</g>
				<g id="group373-7" transform="translate(18.3,-15.825)" v:mID="373" v:groupContext="group">
					<title>Sheet.373</title>
					<g id="shape374-8" v:mID="374" v:groupContext="shape">
						<title>Sheet.374</title>
						<path d="M0 47.17 L0.15 45 C0.22 43.57 0.6 40.57 0.9 39.15 C1.28 37.42 1.95 36.07 3.68 35.1 L4.2 34.8 C5.25
									 34.2 5.93 33.82 6.83 33.82 C7.35 33.82 7.8 33.97 8.25 34.2 L8.48 34.35 L8.63 34.5 C8.85 34.72
									 9.08 34.87 9.3 34.95 C9.53 35.1 9.67 35.17 9.83 35.17 C10.27 35.32 10.65 35.4 11.03 35.4 C11.4
									 35.4 11.77 35.32 12.15 35.17 C12.37 35.1 12.53 35.02 12.68 34.95 L12.75 34.87 L12.9 34.8 C13.05
									 34.65 13.28 34.57 13.43 34.42 L13.58 34.27 L13.8 34.12 C14.25 33.9 14.7 33.75 15.23 33.75 C16.13
									 33.75 16.8 34.12 17.78 34.72 L18.3 35.02 C20.1 36 20.7 37.35 21.08 39.07 C21.38 40.5 21.75 43.5
									 21.83 44.92 L21.98 47.1 L0 47.17 Z" class="st1"/>
					</g>
					<g id="shape375-10" v:mID="375" v:groupContext="shape" transform="translate(2.175,-2.025)">
						<title>Sheet.375</title>
						<path d="M16.88 41.62 C16.58 40.2 16.13 39.45 15.08 38.85 C13.95 38.25 13.35 37.8 12.98 37.8 C12.83 37.8
									 12.68 37.87 12.53 37.87 C12.23 38.1 12 38.32 11.7 38.55 C11.63 38.55 11.63 38.62 11.55 38.62
									 C11.25 38.85 10.95 38.92 10.65 39.07 C10.05 39.3 9.45 39.37 8.85 39.37 C8.25 39.37 7.65 39.3
									 7.05 39.07 C6.75 39 6.45 38.85 6.15 38.62 C5.78 38.4 5.48 38.17 5.1 37.87 C4.95 37.8 4.88 37.8
									 4.65 37.8 C4.28 37.8 3.82 38.1 2.55 38.85 C1.5 39.45 1.05 40.2 0.75 41.62 C0.45 42.9 0.15 45.75
									 0 47.17 L17.63 47.17 C17.48 45.75 17.18 42.9 16.88 41.62 Z" class="st2"/>
					</g>
					<g id="shape376-12" v:mID="376" v:groupContext="shape" transform="translate(4.425,-9.45)">
						<title>Sheet.376</title>
						<path d="M6.52 47.17 C2.92 47.17 0 44.02 0 40.2 C0 36.37 2.92 33.22 6.52 33.22 C10.13 33.22 13.05 36.37 13.05
									 40.2 C13.05 44.02 10.13 47.17 6.52 47.17 Z" class="st1"/>
					</g>
					<g id="shape377-14" v:mID="377" v:groupContext="shape" transform="translate(6.675,-11.7)">
						<title>Sheet.377</title>
						<path d="M4.27 47.17 C1.88 47.17 0 45 0 42.37 C0 39.75 1.95 37.57 4.27 37.57 C6.67 37.57 8.55 39.75 8.55
									 42.37 C8.62 45 6.67 47.17 4.27 47.17 Z" class="st2"/>
					</g>
				</g>
				<g id="group378-16" transform="translate(2.25,-9)" v:mID="378" v:groupContext="group">
					<title>Sheet.378</title>
					<g id="shape379-17" v:mID="379" v:groupContext="shape">
						<title>Sheet.379</title>
						<path d="M16.88 41.62 C16.58 40.2 16.13 39.45 15.08 38.85 C13.95 38.25 13.35 37.8 12.98 37.8 C12.83 37.8
									 12.68 37.87 12.53 37.87 C12.23 38.1 12 38.32 11.7 38.55 C11.63 38.55 11.63 38.62 11.55 38.62
									 C11.25 38.85 10.95 38.92 10.65 39.07 C10.05 39.3 9.45 39.37 8.85 39.37 C8.25 39.37 7.65 39.3
									 7.05 39.07 C6.75 39 6.45 38.85 6.15 38.62 C5.78 38.4 5.48 38.17 5.1 37.87 C4.95 37.8 4.88 37.8
									 4.65 37.8 C4.27 37.8 3.82 38.1 2.55 38.85 C1.5 39.45 1.05 40.2 0.75 41.62 C0.45 42.9 0.15 45.75
									 0 47.17 L17.63 47.17 C17.55 45.75 17.18 42.82 16.88 41.62 Z" class="st2"/>
					</g>
					<g id="shape380-19" v:mID="380" v:groupContext="shape" transform="translate(2.325,-7.5)">
						<title>Sheet.380</title>
						<path d="M6.53 47.17 C2.92 47.17 0 44.03 0 40.2 C0 36.37 2.92 33.23 6.53 33.23 C10.13 33.23 13.05 36.37 13.05
									 40.2 C13.05 44.03 10.13 47.17 6.53 47.17 Z" class="st1"/>
					</g>
					<g id="shape381-21" v:mID="381" v:groupContext="shape" transform="translate(4.575,-9.675)">
						<title>Sheet.381</title>
						<path d="M4.27 47.17 C1.88 47.17 0 45 0 42.37 C-0 39.75 1.95 37.57 4.27 37.57 C6.67 37.57 8.55 39.75 8.55
									 42.37 C8.55 45 6.6 47.17 4.27 47.17 Z" class="st2"/>
					</g>
				</g>
				<g id="group382-23" transform="translate(38.25,-9)" v:mID="382" v:groupContext="group">
					<title>Sheet.382</title>
					<g id="shape383-24" v:mID="383" v:groupContext="shape">
						<title>Sheet.383</title>
						<path d="M16.88 41.62 C16.58 40.2 16.13 39.45 15.08 38.85 C13.95 38.25 13.35 37.8 12.98 37.8 C12.82 37.8
									 12.68 37.87 12.53 37.87 C12.23 38.1 12 38.32 11.7 38.55 C11.63 38.55 11.63 38.62 11.55 38.62
									 C11.25 38.85 10.95 38.92 10.65 39.07 C10.05 39.3 9.45 39.37 8.85 39.37 C8.25 39.37 7.65 39.3
									 7.05 39.07 C6.75 39 6.45 38.85 6.15 38.62 C5.78 38.4 5.48 38.17 5.1 37.87 C4.95 37.8 4.88 37.8
									 4.65 37.8 C4.27 37.8 3.82 38.1 2.55 38.85 C1.5 39.45 1.05 40.2 0.75 41.62 C0.45 42.9 0.15 45.75
									 0 47.17 L17.63 47.17 C17.48 45.75 17.18 42.82 16.88 41.62 Z" class="st2"/>
					</g>
					<g id="shape384-26" v:mID="384" v:groupContext="shape" transform="translate(2.25,-7.5)">
						<title>Sheet.384</title>
						<path d="M6.53 47.17 C2.92 47.17 0 44.03 0 40.2 C0 36.37 2.92 33.23 6.53 33.23 C10.13 33.23 13.05 36.37 13.05
									 40.2 C13.05 44.03 10.13 47.17 6.53 47.17 Z" class="st1"/>
					</g>
					<g id="shape385-28" v:mID="385" v:groupContext="shape" transform="translate(4.5,-9.675)">
						<title>Sheet.385</title>
						<path d="M4.27 47.17 C1.88 47.17 0 45 0 42.37 C-0 39.75 1.95 37.57 4.27 37.57 C6.68 37.57 8.55 39.75 8.55
									 42.37 C8.55 45 6.68 47.17 4.27 47.17 Z" class="st2"/>
					</g>
				</g>
				<g id="shape386-30" v:mID="386" v:groupContext="shape" transform="translate(8.1,-1.20792E-13)">
					<title>Sheet.386</title>
					<path d="M0 47.17 L0 41.47 L10.57 26.33 L31.35 26.33 L41.25 41.55 L41.25 47.17 L0 47.17 Z" class="st1"/>
				</g>
				<g id="shape387-32" v:mID="387" v:groupContext="shape" transform="translate(10.35,-2.25)">
					<title>Sheet.387</title>
					<path d="M0 44.47 L0 47.17 L36.67 47.17 L36.67 44.47 L27.9 30.83 L9.52 30.83 L0 44.47 Z" class="st2"/>
				</g>
			</g>
			<g id="group388-34" transform="translate(53.625,-17.25)" v:mID="388" v:groupContext="group">
				<title>Sheet.388</title>
				<g id="shape389-35" v:mID="389" v:groupContext="shape">
					<title>Sheet.389</title>
					<path d="M30.07 33.37 C30.07 29.25 26.7 25.87 22.57 25.87 L22.2 25.87 L21.37 24.82 C20.7 23.92 19.8 23.4 18.75
								 23.32 L18.75 18.75 L16.35 18.75 L0 21.3 L0 44.62 L16.35 47.17 L18.75 47.17 L18.75 40.72 C19.12 40.8
								 19.42 40.8 19.8 40.8 L20.17 40.8 L21 41.85 C21.67 42.82 22.73 43.35 23.85 43.35 C25.8 43.35 27.3
								 41.77 27.3 39.9 C27.3 39.68 27.3 39.45 27.22 39.22 C29.02 37.87 30.07 35.7 30.07 33.37 Z"
							class="st1"/>
				</g>
				<g id="shape390-37" v:mID="390" v:groupContext="shape" transform="translate(2.25,-2.175)">
					<title>Sheet.390</title>
					<path d="M14.25 23.17 L0 25.42 L0 44.92 L14.25 47.17 L14.25 23.17 Z" class="st3"/>
				</g>
				<g id="shape391-39" v:mID="391" v:groupContext="shape" transform="translate(7.575,-9.225)">
					<title>Sheet.391</title>
					<path d="M1.8 37.28 L0 37.35 L0 46.87 L4.95 47.17 L4.95 45.22 L1.8 45.15 L1.8 37.28 Z" class="st1"/>
				</g>
				<g id="shape392-41" v:mID="392" v:groupContext="shape" transform="translate(17.25,-15.225)">
					<title>Sheet.392</title>
					<path d="M0.9 43.5 C0.6 43.58 0.3 43.73 0 43.88 L0 47.17 C0.45 46.27 1.42 45.6 2.55 45.6 L5.32 45.6 C5.47 45.6
								 5.7 45.6 5.7 45.6 L3.82 43.2 L2.32 41.33 C2.1 40.95 1.72 40.73 1.27 40.73 C0.6 40.73 0.08 41.25
								 0.08 41.93 C0.08 42.15 0.15 42.38 0.23 42.6 L0.9 43.5 Z" class="st4"/>
				</g>
				<g id="shape393-43" v:mID="393" v:groupContext="shape" transform="translate(17.25,-8.55)">
					<title>Sheet.393</title>
					<path d="M0 43.2 L0 46.5 C0.75 46.87 1.57 47.17 2.47 47.17 L3 47.17 L0.3 43.88 C0.23 43.65 0.15 43.43 0 43.2 Z"
							class="st4"/>
				</g>
				<g id="shape394-45" v:mID="394" v:groupContext="shape" transform="translate(19.425,-6.075)">
					<title>Sheet.394</title>
					<path d="M8.4 39.45 C8.4 36.52 6.08 34.2 3.15 34.2 L2.63 34.2 L5.33 37.5 C5.7 37.95 6 38.7 6 39.45 C6 41.02 4.72
								 42.3 3.15 42.3 L0.38 42.3 C0.23 42.3 0 42.3 0 42.3 L1.88 44.7 L3.37 46.57 C3.6 46.95 3.98 47.17
								 4.42 47.17 C5.1 47.17 5.63 46.65 5.62 45.97 C5.63 45.75 5.55 45.53 5.47 45.3 L4.8 44.4 C6.9 43.8
								 8.4 41.77 8.4 39.45 Z" class="st4"/>
				</g>
			</g>
		</g>
	</g>
</svg>
