<?xml version="1.0" encoding="UTF-8" standalone="no"?>
<!DOCTYPE svg PUBLIC "-//W3C//DTD SVG 1.1//EN" "http://www.w3.org/Graphics/SVG/1.1/DTD/svg11.dtd">
<!-- Generated by Microsoft Visio, SVG Export Lync Storage Service.svg Page-1 -->
<svg xmlns="http://www.w3.org/2000/svg" xmlns:xlink="http://www.w3.org/1999/xlink" xmlns:ev="http://www.w3.org/2001/xml-events"
		xmlns:v="http://schemas.microsoft.com/visio/2003/SVGExtensions/" width="0.989583in" height="0.895833in"
		viewBox="0 0 71.25 64.5" xml:space="preserve" color-interpolation-filters="sRGB" class="st5">
	<v:documentProperties v:langID="4108" v:metric="true" v:viewMarkup="false"/>

	<style type="text/css">
	<![CDATA[
		.st1 {fill:#ffffff;stroke:none;stroke-linecap:butt;stroke-width:0.75}
		.st2 {fill:#515150;stroke:none;stroke-linecap:butt;stroke-width:0.75}
		.st3 {fill:#2172b9;stroke:none;stroke-linecap:butt;stroke-width:0.75}
		.st4 {fill:#0773b8;stroke:none;stroke-linecap:butt;stroke-width:0.75}
		.st5 {fill:none;fill-rule:evenodd;font-size:12px;overflow:visible;stroke-linecap:square;stroke-miterlimit:3}
	]]>
	</style>

	<g v:mID="0" v:index="1" v:groupContext="foregroundPage">
		<title>Page-1</title>
		<v:pageProperties v:drawingScale="0.0393701" v:pageScale="0.0393701" v:drawingUnits="24" v:shadowOffsetX="8.50394"
				v:shadowOffsetY="-8.50394"/>
		<g id="group410-1" transform="translate(0.75,-0.75)" v:mID="410" v:groupContext="group">
			<title>Lync Storage Service</title>
			<g id="group411-2" v:mID="411" v:groupContext="group">
				<title>Sheet.411</title>
				<g id="group412-3" transform="translate(2.39808E-14,-5.475)" v:mID="412" v:groupContext="group">
					<title>Sheet.412</title>
					<g id="shape413-4" v:mID="413" v:groupContext="shape">
						<title>Sheet.413</title>
						<path d="M39.75 20.62 L39.75 54 L39.75 55.65 L39.75 55.72 C39.08 63.37 27 64.5 19.88 64.5 C12.75 64.5 0.68
									 63.37 0 55.72 L0 55.65 L0 54.07 L0 20.62 L0 19.12 C0 13.72 9.98 11.25 19.88 11.25 C29.78 11.25
									 39.75 13.72 39.75 19.12 L39.75 20.62 Z" class="st1"/>
					</g>
					<g id="shape414-6" v:mID="414" v:groupContext="shape" transform="translate(2.25,-2.25)">
						<title>Sheet.414</title>
						<path d="M17.63 29.25 C10.58 29.25 3.53 28.05 0 25.35 L0 56.25 L0 57.75 C0.53 63.97 13.2 64.5 17.63 64.5
									 C22.05 64.5 34.65 63.97 35.25 57.75 L35.25 56.25 L35.25 25.35 C31.73 28.05 24.68 29.25 17.63
									 29.25 Z" class="st2"/>
					</g>
					<g id="shape415-8" v:mID="415" v:groupContext="shape" transform="translate(2.25,-39.75)">
						<title>Sheet.415</title>
						<ellipse cx="17.625" cy="58.875" rx="17.625" ry="5.625" class="st2"/>
					</g>
				</g>
				<g id="group416-10" transform="translate(21.825,1.84741E-13)" v:mID="416" v:groupContext="group">
					<title>Sheet.416</title>
					<g id="shape417-11" v:mID="417" v:groupContext="shape">
						<title>Sheet.417</title>
						<path d="M20.85 64.5 C19.65 64.5 18.52 63.75 18.07 62.62 L17.4 61.05 C17.25 61.05 17.02 61.05 16.8 61.05
									 C16.58 61.05 16.35 61.05 16.12 61.05 L15.45 62.62 C15.08 63.75 13.95 64.5 12.75 64.5 C12.37
									 64.5 11.92 64.42 11.62 64.27 L8.77 63.07 C8.02 62.77 7.43 62.17 7.12 61.42 C6.82 60.67 6.82
									 59.85 7.12 59.1 L7.8 57.52 L6.97 56.7 L5.4 57.37 C5.03 57.52 4.65 57.6 4.27 57.6 C3.07 57.6
									 1.95 56.85 1.5 55.72 L0.3 52.87 C-0 52.12 0 51.3 0.3 50.55 C0.6 49.8 1.2 49.2 1.95 48.9 L3.52
									 48.22 L3.52 47.02 L1.95 46.35 C1.2 46.05 0.6 45.45 0.3 44.7 C-0 43.95 0 43.12 0.3 42.37 L1.5
									 39.52 C1.95 38.4 3.07 37.65 4.27 37.65 C4.65 37.65 5.03 37.72 5.4 37.87 L6.97 38.55 L7.8 37.72
									 L7.12 36.15 C6.82 35.4 6.82 34.57 7.12 33.82 C7.43 33.07 8.02 32.47 8.77 32.17 L11.62 30.97
									 C12 30.82 12.37 30.75 12.75 30.75 C13.95 30.75 15.08 31.5 15.52 32.62 L16.12 34.12 C16.27 34.12
									 16.5 34.12 16.72 34.12 C16.95 34.12 17.17 34.12 17.4 34.12 L18 32.55 C18.52 31.5 19.65 30.75
									 20.85 30.75 C21.22 30.75 21.6 30.82 21.97 30.97 L24.82 32.17 C25.57 32.47 26.17 33.07 26.47
									 33.82 C26.77 34.57 26.77 35.4 26.47 36.15 L25.8 37.72 L26.62 38.55 L28.2 37.87 C28.57 37.72
									 28.95 37.65 29.32 37.65 C30.52 37.65 31.65 38.4 32.1 39.52 L33.3 42.37 C33.6 43.12 33.6 43.95
									 33.3 44.7 C33 45.45 32.4 46.05 31.65 46.35 L30.07 47.02 L30.07 48.22 L31.65 48.9 C33.22 49.57
									 33.9 51.3 33.3 52.87 L32.1 55.72 C31.65 56.85 30.52 57.6 29.32 57.6 C28.95 57.6 28.5 57.52 28.12
									 57.37 L26.55 56.7 L25.72 57.52 L26.4 59.1 C26.7 59.85 26.7 60.67 26.4 61.42 C26.1 62.17 25.5
									 62.77 24.75 63.07 L21.9 64.27 C21.6 64.42 21.22 64.5 20.85 64.5 Z" class="st1"/>
					</g>
					<g id="shape418-13" v:mID="418" v:groupContext="shape" transform="translate(1.8,-2.1)">
						<title>Sheet.418</title>
						<path d="M29.1 53.1 L26.7 52.12 C26.32 51.97 26.02 51.75 26.02 51.67 C26.02 51.6 26.1 51.15 26.1 50.77 L26.1
									 48.82 C26.1 48.37 26.02 48 26.02 47.92 C26.02 47.85 26.32 47.62 26.7 47.47 L29.1 46.5 C29.47
									 46.35 29.7 45.9 29.55 45.45 L28.35 42.6 C28.2 42.22 27.75 42 27.3 42.15 L24.9 43.12 C24.52 43.27
									 24.15 43.35 24.07 43.27 C24 43.2 23.78 42.9 23.47 42.52 L22.05 41.17 C21.75 40.87 21.37 40.65
									 21.37 40.57 C21.3 40.5 21.37 40.2 21.52 39.75 L22.5 37.35 C22.65 36.97 22.5 36.52 22.05 36.3
									 L19.2 35.1 C18.83 34.95 18.37 35.1 18.15 35.55 L17.17 37.95 C17.03 38.32 16.8 38.62 16.72 38.62
									 C16.65 38.62 16.2 38.55 15.82 38.47 C15.82 38.47 15.45 38.4 14.85 38.4 C14.25 38.4 13.88 38.47
									 13.87 38.47 C13.42 38.55 13.05 38.55 12.97 38.62 C12.9 38.62 12.68 38.32 12.52 37.95 L11.55
									 35.55 C11.4 35.17 10.95 34.95 10.5 35.1 L7.65 36.3 C7.27 36.45 7.05 36.9 7.2 37.35 L8.17 39.75
									 C8.33 40.12 8.4 40.5 8.33 40.57 C8.25 40.65 7.95 40.87 7.65 41.17 L6.22 42.6 C5.93 42.9 5.7
									 43.27 5.62 43.35 C5.55 43.42 5.25 43.35 4.8 43.2 L2.4 42.22 C2.03 42.07 1.57 42.22 1.35 42.67
									 L0.15 45.52 C-0 45.9 0.15 46.35 0.6 46.57 L3 47.55 C3.37 47.7 3.67 47.92 3.67 48 C3.67 48.07
									 3.6 48.52 3.6 48.9 L3.6 50.85 C3.6 51.3 3.67 51.67 3.67 51.75 C3.67 51.82 3.37 52.05 3 52.2
									 L0.82 53.1 C0.45 53.25 0.22 53.7 0.37 54.15 L1.57 57 C1.72 57.37 2.17 57.6 2.62 57.45 L5.02
									 56.47 C5.4 56.32 5.77 56.25 5.85 56.32 C5.93 56.4 6.15 56.7 6.45 57.07 L7.87 58.42 C8.17 58.72
									 8.55 58.95 8.62 59.02 C8.7 59.1 8.62 59.47 8.47 59.85 L7.35 62.1 C7.2 62.47 7.35 62.92 7.8 63.15
									 L10.65 64.35 C11.02 64.5 11.48 64.35 11.7 63.9 L12.67 61.5 C12.82 61.12 13.05 60.82 13.12 60.82
									 C13.2 60.82 13.65 60.9 14.02 60.97 C14.02 60.97 14.4 61.05 15 61.05 C15.6 61.05 15.97 60.97
									 15.97 60.97 C16.42 60.9 16.8 60.9 16.87 60.82 C16.95 60.82 17.17 61.12 17.32 61.5 L18.3 63.9
									 C18.45 64.27 18.9 64.5 19.35 64.35 L22.2 63.15 C22.57 63 22.8 62.55 22.65 62.1 L21.67 59.7 C21.52
									 59.32 21.45 58.95 21.52 58.87 C21.6 58.8 21.9 58.57 22.27 58.27 L23.7 56.85 C24 56.55 24.22
									 56.17 24.3 56.1 C24.37 56.02 24.67 56.1 25.12 56.25 L27.52 57.22 C27.9 57.37 28.35 57.22 28.57
									 56.77 L29.77 53.92 C29.7 53.7 29.55 53.25 29.1 53.1 ZM15 57.45 C10.72 57.45 7.27 54 7.27 49.72
									 C7.27 45.45 10.72 42 15 42 C19.27 42 22.72 45.45 22.72 49.72 C22.72 54 19.27 57.45 15 57.45
									 Z" class="st2"/>
					</g>
				</g>
				<g id="group419-15" transform="translate(39.675,-34.5)" v:mID="419" v:groupContext="group">
					<title>Sheet.419</title>
					<g id="shape420-16" v:mID="420" v:groupContext="shape">
						<title>Sheet.420</title>
						<path d="M30.07 50.62 C30.07 46.5 26.7 43.12 22.57 43.12 L22.2 43.12 L21.37 42.07 C20.7 41.17 19.8 40.65
									 18.75 40.57 L18.75 36 L16.35 36 L0 38.55 L0 61.87 L16.35 64.5 L18.75 64.5 L18.75 58.05 C19.12
									 58.12 19.42 58.12 19.8 58.12 L20.17 58.12 L21 59.17 C21.67 60.15 22.72 60.67 23.85 60.67 C25.8
									 60.67 27.3 59.1 27.3 57.22 C27.3 57 27.3 56.77 27.22 56.55 C29.02 55.2 30.07 53.02 30.07 50.62
									 Z" class="st1"/>
					</g>
					<g id="shape421-18" v:mID="421" v:groupContext="shape" transform="translate(2.25,-2.25)">
						<title>Sheet.421</title>
						<path d="M14.25 40.5 L0 42.75 L0 62.25 L14.25 64.5 L14.25 40.5 Z" class="st3"/>
					</g>
					<g id="shape422-20" v:mID="422" v:groupContext="shape" transform="translate(7.575,-9.225)">
						<title>Sheet.422</title>
						<path d="M1.8 54.6 L0 54.67 L0 64.2 L4.95 64.5 L4.95 62.55 L1.8 62.47 L1.8 54.6 Z" class="st1"/>
					</g>
					<g id="shape423-22" v:mID="423" v:groupContext="shape" transform="translate(17.25,-15.225)">
						<title>Sheet.423</title>
						<path d="M0.9 60.82 C0.6 60.9 0.3 61.05 0 61.2 L0 64.5 C0.45 63.6 1.42 62.92 2.55 62.92 L5.32 62.92 C5.47
									 62.92 5.7 62.92 5.7 62.92 L3.82 60.52 L2.32 58.65 C2.1 58.27 1.72 58.05 1.27 58.05 C0.6 58.05
									 0.08 58.57 0.08 59.25 C0.08 59.47 0.15 59.7 0.23 59.92 L0.9 60.82 Z" class="st4"/>
					</g>
					<g id="shape424-24" v:mID="424" v:groupContext="shape" transform="translate(17.25,-8.55)">
						<title>Sheet.424</title>
						<path d="M0 60.52 L0 63.82 C0.75 64.2 1.57 64.5 2.55 64.5 L3.07 64.5 L0.38 61.2 C0.22 60.9 0.07 60.75 0 60.52
									 Z" class="st4"/>
					</g>
					<g id="shape425-26" v:mID="425" v:groupContext="shape" transform="translate(19.425,-6.15)">
						<title>Sheet.425</title>
						<path d="M8.4 56.77 C8.4 53.85 6.07 51.52 3.15 51.52 L2.62 51.52 L5.32 54.82 C5.7 55.27 6 56.02 6 56.77 C6
									 58.35 4.72 59.62 3.15 59.62 L0.37 59.62 C0.22 59.62 0 59.62 0 59.62 L1.87 62.02 L3.37 63.9 C3.6
									 64.27 3.97 64.5 4.42 64.5 C5.1 64.5 5.62 63.97 5.62 63.3 C5.62 63.07 5.55 62.85 5.47 62.62 L4.8
									 61.72 C6.9 61.12 8.4 59.1 8.4 56.77 Z" class="st4"/>
					</g>
				</g>
			</g>
		</g>
	</g>
</svg>
