<?xml version="1.0" encoding="UTF-8" standalone="no"?>
<!DOCTYPE svg PUBLIC "-//W3C//DTD SVG 1.1//EN" "http://www.w3.org/Graphics/SVG/1.1/DTD/svg11.dtd">
<!-- Generated by Microsoft Visio, SVG Export Lync Server Management Tool.svg Page-1 -->
<svg xmlns="http://www.w3.org/2000/svg" xmlns:xlink="http://www.w3.org/1999/xlink" xmlns:ev="http://www.w3.org/2001/xml-events"
		xmlns:v="http://schemas.microsoft.com/visio/2003/SVGExtensions/" width="1.12604in" height="0.738542in"
		viewBox="0 0 81.075 53.175" xml:space="preserve" color-interpolation-filters="sRGB" class="st5">
	<v:documentProperties v:langID="4108" v:metric="true" v:viewMarkup="false"/>

	<style type="text/css">
	<![CDATA[
		.st1 {fill:#ffffff;stroke:none;stroke-linecap:butt;stroke-width:0.75}
		.st2 {fill:#515050;stroke:none;stroke-linecap:butt;stroke-width:0.75}
		.st3 {fill:#2372ba;stroke:none;stroke-linecap:butt;stroke-width:0.75}
		.st4 {fill:#0773b8;stroke:none;stroke-linecap:butt;stroke-width:0.75}
		.st5 {fill:none;fill-rule:evenodd;font-size:12px;overflow:visible;stroke-linecap:square;stroke-miterlimit:3}
	]]>
	</style>

	<g v:mID="0" v:index="1" v:groupContext="foregroundPage">
		<title>Page-1</title>
		<v:pageProperties v:drawingScale="0.0393701" v:pageScale="0.0393701" v:drawingUnits="24" v:shadowOffsetX="8.50394"
				v:shadowOffsetY="-8.50394"/>
		<g id="group395-1" transform="translate(0.75,-0.75)" v:mID="395" v:groupContext="group">
			<title>Lync Server Management Tool</title>
			<g id="group396-2" v:mID="396" v:groupContext="group">
				<title>Sheet.396</title>
				<g id="group397-3" v:mID="397" v:groupContext="group">
					<title>Sheet.397</title>
					<g id="shape398-4" v:mID="398" v:groupContext="shape">
						<title>Sheet.398</title>
						<path d="M5.18 53.17 C2.33 53.17 0 50.85 0 48 L0 8.92 C-0 6.07 2.33 3.75 5.18 3.75 L44.25 3.75 C47.1 3.75
									 49.43 6.07 49.43 8.92 L49.43 48 C49.43 50.85 47.1 53.17 44.25 53.17 L5.18 53.17 Z" class="st1"/>
					</g>
					<g id="shape399-6" v:mID="399" v:groupContext="shape" transform="translate(2.25,-2.25)">
						<title>Sheet.399</title>
						<path d="M42 53.17 L2.93 53.17 C1.35 53.17 0 51.82 0 50.25 L0 11.17 C0 9.52 1.35 8.25 2.93 8.25 L42 8.25
									 C43.65 8.25 44.93 9.6 44.93 11.17 L44.93 50.25 C44.93 51.82 43.65 53.17 42 53.17 Z"
								class="st2"/>
					</g>
				</g>
				<g id="group400-8" transform="translate(11.7,-11.4)" v:mID="400" v:groupContext="group">
					<title>Sheet.400</title>
					<g id="shape401-9" v:mID="401" v:groupContext="shape">
						<title>Sheet.401</title>
						<path d="M2.7 53.17 C2.02 53.17 1.28 52.87 0.83 52.27 C-0 51.22 0.22 49.72 1.2 48.82 L11.55 39.67 L1.2 29.85
									 C0.22 28.95 0.08 27.45 0.9 26.47 C1.8 25.42 3.37 25.35 4.43 26.25 L17.55 38.62 C18.15 39.22
									 18.15 40.2 17.55 40.72 L16.73 41.47 L4.35 52.57 C3.9 52.95 3.3 53.17 2.7 53.17 Z" class="st1"/>
					</g>
					<g id="shape402-11" v:mID="402" v:groupContext="shape" transform="translate(12.375,7.10543E-15)">
						<title>Sheet.402</title>
						<path d="M12.23 53.17 L1.88 53.17 C0.82 53.17 0 52.35 0 51.3 C0 50.25 0.82 49.42 1.88 49.42 L12.23 49.42
									 C13.28 49.42 14.1 50.25 14.1 51.3 C14.1 52.35 13.28 53.17 12.23 53.17 Z" class="st1"/>
					</g>
				</g>
			</g>
			<g id="group403-13" transform="translate(49.5,-23.25)" v:mID="403" v:groupContext="group">
				<title>Sheet.403</title>
				<g id="shape404-14" v:mID="404" v:groupContext="shape">
					<title>Sheet.404</title>
					<path d="M30.08 39.37 C30.08 35.25 26.7 31.87 22.58 31.87 L22.2 31.87 L21.37 30.82 C20.7 29.92 19.8 29.4 18.75
								 29.32 L18.75 24.75 L16.35 24.75 L0 27.3 L0 50.62 L16.28 53.17 L18.75 53.17 L18.75 46.72 C19.12 46.8
								 19.42 46.8 19.8 46.8 L20.18 46.8 L21 47.85 C21.68 48.82 22.73 49.35 23.85 49.35 C25.8 49.35 27.3
								 47.77 27.3 45.9 C27.3 45.67 27.3 45.45 27.22 45.22 C28.95 43.87 30.08 41.7 30.08 39.37 Z"
							class="st1"/>
				</g>
				<g id="shape405-16" v:mID="405" v:groupContext="shape" transform="translate(2.25,-2.175)">
					<title>Sheet.405</title>
					<path d="M14.25 29.17 L0 31.42 L0 50.92 L14.25 53.17 L14.25 29.17 Z" class="st3"/>
				</g>
				<g id="shape406-18" v:mID="406" v:groupContext="shape" transform="translate(7.575,-9.225)">
					<title>Sheet.406</title>
					<path d="M1.8 43.27 L0 43.35 L0 52.87 L4.95 53.17 L4.95 51.22 L1.8 51.15 L1.8 43.27 Z" class="st1"/>
				</g>
				<g id="shape407-20" v:mID="407" v:groupContext="shape" transform="translate(17.25,-15.225)">
					<title>Sheet.407</title>
					<path d="M0.9 49.5 C0.6 49.57 0.3 49.72 0 49.87 L0 53.17 C0.45 52.27 1.42 51.6 2.55 51.6 L5.32 51.6 C5.47 51.6
								 5.7 51.6 5.7 51.6 L3.82 49.2 L2.32 47.32 C2.1 46.95 1.72 46.72 1.27 46.72 C0.6 46.72 0.08 47.25
								 0.08 47.92 C0.08 48.15 0.15 48.37 0.23 48.6 L0.9 49.5 Z" class="st4"/>
				</g>
				<g id="shape408-22" v:mID="408" v:groupContext="shape" transform="translate(17.25,-8.55)">
					<title>Sheet.408</title>
					<path d="M0 49.2 L0 52.5 C0.75 52.87 1.57 53.17 2.47 53.17 L3 53.17 L0.3 49.87 C0.23 49.65 0.07 49.42 0 49.2 Z"
							class="st4"/>
				</g>
				<g id="shape409-24" v:mID="409" v:groupContext="shape" transform="translate(19.425,-6.075)">
					<title>Sheet.409</title>
					<path d="M8.4 45.45 C8.4 42.52 6.07 40.2 3.15 40.2 L2.63 40.2 L5.33 43.5 C5.7 43.95 6 44.7 6 45.45 C6 47.02 4.73
								 48.3 3.15 48.3 L0.38 48.3 C0.22 48.3 0 48.3 0 48.3 L1.87 50.7 L3.37 52.57 C3.6 52.95 3.97 53.17
								 4.42 53.17 C5.1 53.17 5.63 52.65 5.62 51.97 C5.63 51.75 5.55 51.52 5.47 51.3 L4.8 50.4 C6.9 49.8
								 8.4 47.77 8.4 45.45 Z" class="st4"/>
				</g>
			</g>
		</g>
	</g>
</svg>
