<?xml version="1.0" encoding="UTF-8" standalone="no"?>
<!DOCTYPE svg PUBLIC "-//W3C//DTD SVG 1.1//EN" "http://www.w3.org/Graphics/SVG/1.1/DTD/svg11.dtd">
<!-- Generated by Microsoft Visio, SVG Export Mail-Enabled Public Folder.svg Page-1 -->
<svg xmlns="http://www.w3.org/2000/svg" xmlns:xlink="http://www.w3.org/1999/xlink" xmlns:ev="http://www.w3.org/2001/xml-events"
		xmlns:v="http://schemas.microsoft.com/visio/2003/SVGExtensions/" width="0.885417in" height="0.802083in"
		viewBox="0 0 63.75 57.75" xml:space="preserve" color-interpolation-filters="sRGB" class="st5">
	<v:documentProperties v:langID="4108" v:metric="true" v:viewMarkup="false"/>

	<style type="text/css">
	<![CDATA[
		.st1 {fill:#ffffff;stroke:none;stroke-linecap:butt;stroke-width:0.75}
		.st2 {fill:#535352;stroke:none;stroke-linecap:butt;stroke-width:0.75}
		.st3 {fill:#525352;stroke:none;stroke-linecap:butt;stroke-width:0.75}
		.st4 {fill:#515050;stroke:none;stroke-linecap:butt;stroke-width:0.75}
		.st5 {fill:none;fill-rule:evenodd;font-size:12px;overflow:visible;stroke-linecap:square;stroke-miterlimit:3}
	]]>
	</style>

	<g v:mID="0" v:index="1" v:groupContext="foregroundPage">
		<title>Page-1</title>
		<v:pageProperties v:drawingScale="0.0393701" v:pageScale="0.0393701" v:drawingUnits="24" v:shadowOffsetX="8.50394"
				v:shadowOffsetY="-8.50394"/>
		<g id="group457-1" transform="translate(0.75,-0.75)" v:mID="457" v:groupContext="group">
			<title>Mail-Enabled Public Folder</title>
			<g id="group458-2" v:mID="458" v:groupContext="group">
				<title>Sheet.458</title>
				<g id="group459-3" transform="translate(1.67866E-13,-9)" v:mID="459" v:groupContext="group">
					<title>Sheet.459</title>
					<g id="group460-4" v:mID="460" v:groupContext="group">
						<title>Sheet.460</title>
						<g id="shape461-5" v:mID="461" v:groupContext="shape">
							<title>Sheet.461</title>
							<path d="M45.75 10.5 L33.15 10.5 C30.97 10.5 29.85 11.62 28.8 12.6 L22.2 18.75 L5.25 18.75 C2.33 18.75
										 -0 21.07 0 24 L0 57.75 L51 57.75 L51 21 L51 18.75 L51 15.75 C51 12.83 48.67 10.5 45.75 10.5
										 Z" class="st1"/>
						</g>
						<g id="shape462-7" v:mID="462" v:groupContext="shape" transform="translate(25.5,-39)">
							<title>Sheet.462</title>
							<path d="M23.25 57.75 L23.25 54.75 C23.25 53.1 21.9 51.75 20.25 51.75 L19.5 51.75 L13.27 51.75 L7.65
										 51.75 C6.38 51.75 5.77 52.35 4.88 53.25 L0 57.75 L23.25 57.75 Z" class="st2"/>
						</g>
						<g id="shape463-9" v:mID="463" v:groupContext="shape" transform="translate(2.25,-2.25)">
							<title>Sheet.463</title>
							<path d="M3 23.25 C1.35 23.25 0 24.6 0 26.25 L0 57.75 L46.5 57.75 L46.5 28.5 L46.5 26.25 L46.5 23.25
										 L3 23.25 Z" class="st2"/>
						</g>
					</g>
					<g id="group464-11" transform="translate(11.25,-9.75)" v:mID="464" v:groupContext="group">
						<title>Sheet.464</title>
						<g id="shape465-12" v:mID="465" v:groupContext="shape" transform="translate(0.75,-0.75)">
							<title>Sheet.465</title>
							<rect x="0" y="38.25" width="27" height="19.5" class="st1"/>
						</g>
						<g id="group466-14" v:mID="466" v:groupContext="group">
							<title>Sheet.466</title>
							<g id="shape467-15" v:mID="467" v:groupContext="shape">
								<title>Sheet.467</title>
								<path d="M0 36.75 L0 57.75 L28.5 57.75 L28.5 36.75 L0 36.75 ZM27 56.25 L1.5 56.25 L1.5 38.25 L27
											 38.25 L27 56.25 Z" class="st3"/>
							</g>
							<g id="shape468-17" v:mID="468" v:groupContext="shape" transform="translate(21,-12.75)">
								<title>Sheet.468</title>
								<rect x="0" y="53.25" width="3.75" height="4.5" class="st3"/>
							</g>
							<g id="shape469-19" v:mID="469" v:groupContext="shape" transform="translate(6,-9)">
								<title>Sheet.469</title>
								<rect x="0" y="56.25" width="9.75" height="1.5" class="st3"/>
							</g>
							<g id="shape470-21" v:mID="470" v:groupContext="shape" transform="translate(6,-5.25)">
								<title>Sheet.470</title>
								<rect x="0" y="56.25" width="13.5" height="1.5" class="st3"/>
							</g>
						</g>
					</g>
				</g>
				<g id="group471-23" transform="translate(32.25,-1.77636E-13)" v:mID="471" v:groupContext="group">
					<title>Sheet.471</title>
					<g id="group472-24" v:mID="472" v:groupContext="group">
						<title>Sheet.472</title>
						<g id="shape473-25" v:mID="473" v:groupContext="shape">
							<title>Sheet.473</title>
							<path d="M4.5 57.75 C2.02 57.75 0 55.73 0 53.25 L0 32.25 C0 29.78 2.02 27.75 4.5 27.75 L25.5 27.75 C27.97
										 27.75 30 29.78 30 32.25 L30 53.25 C30 55.73 27.97 57.75 25.5 57.75 L4.5 57.75 Z"
									class="st1"/>
						</g>
						<g id="shape474-27" v:mID="474" v:groupContext="shape" transform="translate(2.25,-2.25)">
							<title>Sheet.474</title>
							<path d="M25.5 55.5 C25.5 56.77 24.52 57.75 23.25 57.75 L2.25 57.75 C0.97 57.75 0 56.77 0 55.5 L0 34.5
										 C0 33.23 0.97 32.25 2.25 32.25 L23.25 32.25 C24.52 32.25 25.5 33.23 25.5 34.5 L25.5 55.5
										 Z" class="st4"/>
						</g>
					</g>
					<g id="shape475-29" v:mID="475" v:groupContext="shape" transform="translate(6.75,-9.6)">
						<title>Sheet.475</title>
						<path d="M12.22 47.85 L10.65 49.43 L13.8 49.43 L9.52 53.7 C9.15 53.4 8.7 53.25 8.17 53.25 C7.65 53.25 7.2
									 53.4 6.82 53.7 L2.55 49.43 L5.7 49.43 L4.27 47.85 L0 47.85 L0 52.13 L1.57 53.7 L1.57 50.55 L6.07
									 55.05 C6 55.12 6 55.28 6 55.5 C6 56.78 6.97 57.75 8.25 57.75 C9.52 57.75 10.5 56.78 10.5 55.5
									 C10.5 55.35 10.5 55.12 10.42 54.97 L14.92 50.48 L14.92 53.63 L16.5 52.05 L16.5 47.85 L12.22
									 47.85 Z" class="st1"/>
					</g>
				</g>
			</g>
		</g>
	</g>
</svg>
