<?xml version="1.0" encoding="UTF-8" standalone="no"?>
<!DOCTYPE svg PUBLIC "-//W3C//DTD SVG 1.1//EN" "http://www.w3.org/Graphics/SVG/1.1/DTD/svg11.dtd">
<!-- Generated by Microsoft Visio, SVG Export Mailbox Assistant.svg Page-1 -->
<svg xmlns="http://www.w3.org/2000/svg" xmlns:xlink="http://www.w3.org/1999/xlink" xmlns:ev="http://www.w3.org/2001/xml-events"
		xmlns:v="http://schemas.microsoft.com/visio/2003/SVGExtensions/" width="0.894827in" height="0.864583in"
		viewBox="0 0 64.4276 62.25" xml:space="preserve" color-interpolation-filters="sRGB" class="st3">
	<v:documentProperties v:langID="4108" v:metric="true" v:viewMarkup="false"/>

	<style type="text/css">
	<![CDATA[
		.st1 {fill:#ffffff;stroke:none;stroke-linecap:butt;stroke-width:0.75}
		.st2 {fill:#515150;stroke:none;stroke-linecap:butt;stroke-width:0.75}
		.st3 {fill:none;fill-rule:evenodd;font-size:12px;overflow:visible;stroke-linecap:square;stroke-miterlimit:3}
	]]>
	</style>

	<g v:mID="0" v:index="1" v:groupContext="foregroundPage">
		<title>Page-1</title>
		<v:pageProperties v:drawingScale="0.0393701" v:pageScale="0.0393701" v:drawingUnits="24" v:shadowOffsetX="8.50394"
				v:shadowOffsetY="-8.50394"/>
		<g id="group476-1" transform="translate(0.75,-0.75)" v:mID="476" v:groupContext="group">
			<title>Mailbox Assistant</title>
			<g id="group477-2" v:mID="477" v:groupContext="group">
				<title>Sheet.477</title>
				<g id="group478-3" transform="translate(-1.43885E-13,-7.5)" v:mID="478" v:groupContext="group">
					<title>Sheet.478</title>
					<g id="group479-4" v:mID="479" v:groupContext="group">
						<title>Sheet.479</title>
						<g id="shape480-5" v:mID="480" v:groupContext="shape">
							<title>Sheet.480</title>
							<path d="M0 47.25 L0 62.25 L57 62.25 L57 47.25 L57 44.7 L56.55 42.75 L52.8 27.07 L51.75 27.07 L51.75
										 15 L50.25 15 L50.25 9 L6.75 9 L6.75 15 L5.25 15 L5.25 27.07 L4.2 27.07 L0.45 42.75 L0 44.7
										 L0 47.25 Z" class="st1"/>
						</g>
						<g id="group481-7" transform="translate(15,-21.75)" v:mID="481" v:groupContext="group">
							<title>Sheet.481</title>
							<g id="shape482-8" v:mID="482" v:groupContext="shape" transform="translate(23.25,-11.25)">
								<title>Sheet.482</title>
								<rect x="0" y="55.5" width="6" height="6.75" class="st2"/>
							</g>
							<g id="shape483-10" v:mID="483" v:groupContext="shape" transform="translate(-4.996E-14,-5.25)">
								<title>Sheet.483</title>
								<rect x="0" y="60" width="15.75" height="2.25" class="st2"/>
							</g>
							<g id="shape484-12" v:mID="484" v:groupContext="shape">
								<title>Sheet.484</title>
								<rect x="0" y="60" width="20.25" height="2.25" class="st2"/>
							</g>
						</g>
						<g id="shape485-14" v:mID="485" v:groupContext="shape" transform="translate(9,-47.25)">
							<title>Sheet.485</title>
							<path d="M0 58.5 L0 62.25 L2.25 62.25 L2.25 60.75 L36.75 60.75 L36.75 62.25 L39 62.25 L39 58.5 L0 58.5
										 Z" class="st2"/>
						</g>
					</g>
					<g id="shape486-16" v:mID="486" v:groupContext="shape" transform="translate(2.25,-2.25)">
						<title>Sheet.486</title>
						<path d="M48.75 31.57 L47.25 31.57 L47.25 19.5 L5.25 19.5 L5.25 31.57 L3.75 31.57 L0 47.25 L0 62.25 L52.5
									 62.25 L52.5 47.25 L48.75 31.57 ZM45 31.57 L45 47.25 L7.5 47.25 L7.5 31.57 L7.5 21.75 L45 21.75
									 L45 31.57 Z" class="st2"/>
					</g>
				</g>
				<g id="group487-18" transform="translate(40.425,-1.35003E-13)" v:mID="487" v:groupContext="group">
					<title>Sheet.487</title>
					<g id="shape488-19" v:mID="488" v:groupContext="shape">
						<title>Sheet.488</title>
						<path d="M18.37 29.4 L16.65 28.5 L16.2 28.5 L15.07 28.5 L14.32 28.5 L12.75 28.5 L7.87 28.5 L6.07 28.5 L1.2
									 28.5 L1.2 34.42 L1.5 36.9 L1.5 45.37 C0.6 45.9 0 46.87 0 48 L0 59.25 C0 60.9 1.35 62.25 3 62.25
									 L6 62.25 C6 62.25 6 62.25 6 62.25 L14.62 62.25 C17.32 62.25 19.5 60.07 19.5 57.37 L19.5 42.52
									 C21.37 41.02 22.5 38.77 22.5 36.37 C22.57 33.45 21 30.75 18.37 29.4 Z" class="st1"/>
					</g>
					<g id="shape489-21" v:mID="489" v:groupContext="shape" transform="translate(2.325,-2.25)">
						<title>Sheet.489</title>
						<path d="M3.75 62.25 C4.2 62.25 4.5 61.95 4.5 61.5 L4.5 50.25 C4.5 49.8 4.2 49.5 3.75 49.5 L3 49.5 L3 39
									 L3.3 36.52 L3.3 33 L1.2 33 L1.2 36.52 L1.5 39 L1.5 49.5 L0.75 49.5 C0.3 49.5 0 49.87 0 50.25
									 L0 61.5 C0 61.95 0.37 62.25 0.75 62.25 L3.75 62.25 Z" class="st2"/>
					</g>
					<g id="shape490-23" v:mID="490" v:groupContext="shape" transform="translate(9.075,-2.25)">
						<title>Sheet.490</title>
						<path d="M8.25 33.67 L8.25 38.25 L5.62 39.75 L3 38.25 L3 33.67 C1.2 34.65 0 36.52 0 38.62 C0 40.72 1.2 42.67
									 3 43.57 L3 59.62 C3 61.05 4.2 62.25 5.62 62.25 C7.05 62.25 8.25 61.05 8.25 59.62 L8.25 43.57
									 C10.05 42.6 11.25 40.72 11.25 38.62 C11.25 36.52 10.05 34.57 8.25 33.67 ZM5.62 60.75 C5.02 60.75
									 4.5 60.22 4.5 59.62 C4.5 59.02 5.02 58.5 5.62 58.5 C6.22 58.5 6.75 59.02 6.75 59.62 C6.75 60.22
									 6.22 60.75 5.62 60.75 Z" class="st2"/>
					</g>
				</g>
			</g>
		</g>
	</g>
</svg>
