<?xml version="1.0" encoding="UTF-8" standalone="no"?>
<!DOCTYPE svg PUBLIC "-//W3C//DTD SVG 1.1//EN" "http://www.w3.org/Graphics/SVG/1.1/DTD/svg11.dtd">
<!-- Generated by Microsoft Visio, SVG Export Messages Queued.svg Page-1 -->
<svg xmlns="http://www.w3.org/2000/svg" xmlns:xlink="http://www.w3.org/1999/xlink" xmlns:ev="http://www.w3.org/2001/xml-events"
		xmlns:v="http://schemas.microsoft.com/visio/2003/SVGExtensions/" width="0.90625in" height="0.875in" viewBox="0 0 65.25 63"
		xml:space="preserve" color-interpolation-filters="sRGB" class="st4">
	<v:documentProperties v:langID="4108" v:metric="true" v:viewMarkup="false"/>

	<style type="text/css">
	<![CDATA[
		.st1 {fill:#ffffff;stroke:none;stroke-linecap:butt;stroke-width:0.75}
		.st2 {fill:#525352;stroke:none;stroke-linecap:butt;stroke-width:0.75}
		.st3 {fill:#515150;stroke:none;stroke-linecap:butt;stroke-width:0.75}
		.st4 {fill:none;fill-rule:evenodd;font-size:12px;overflow:visible;stroke-linecap:square;stroke-miterlimit:3}
	]]>
	</style>

	<g v:mID="0" v:index="1" v:groupContext="foregroundPage">
		<title>Page-1</title>
		<v:pageProperties v:drawingScale="0.0393701" v:pageScale="0.0393701" v:drawingUnits="24" v:shadowOffsetX="8.50394"
				v:shadowOffsetY="-8.50394"/>
		<g id="group491-1" transform="translate(0.75,-0.75)" v:mID="491" v:groupContext="group">
			<title>Messages Queued</title>
			<g id="group492-2" transform="translate(9,-20.25)" v:mID="492" v:groupContext="group">
				<title>Sheet.492</title>
				<g id="shape493-3" v:mID="493" v:groupContext="shape">
					<title>Sheet.493</title>
					<rect x="0" y="21.75" width="51.75" height="41.25" class="st1"/>
				</g>
				<g id="shape494-5" v:mID="494" v:groupContext="shape" transform="translate(2.25,-2.25)">
					<title>Sheet.494</title>
					<path d="M45 28.5 L45 60.75 L2.25 60.75 L2.25 28.5 L45 28.5 ZM47.25 26.25 L0 26.25 L0 63 L47.25 63 L47.25 26.25
								 Z" class="st2"/>
				</g>
			</g>
			<g id="group495-7" transform="translate(4.5,-13.5)" v:mID="495" v:groupContext="group">
				<title>Sheet.495</title>
				<g id="shape496-8" v:mID="496" v:groupContext="shape">
					<title>Sheet.496</title>
					<rect x="0" y="21.75" width="51.75" height="41.25" class="st1"/>
				</g>
				<g id="shape497-10" v:mID="497" v:groupContext="shape" transform="translate(2.25,-2.25)">
					<title>Sheet.497</title>
					<path d="M45 28.5 L45 60.75 L2.25 60.75 L2.25 28.5 L45 28.5 ZM47.25 26.25 L0 26.25 L0 63 L47.25 63 L47.25 26.25
								 Z" class="st2"/>
				</g>
			</g>
			<g id="group498-12" transform="translate(2.23821E-13,-6.75)" v:mID="498" v:groupContext="group">
				<title>Sheet.498</title>
				<g id="shape499-13" v:mID="499" v:groupContext="shape">
					<title>Sheet.499</title>
					<rect x="0" y="21.75" width="51.75" height="41.25" class="st1"/>
				</g>
				<g id="shape500-15" v:mID="500" v:groupContext="shape" transform="translate(38.25,-27)">
					<title>Sheet.500</title>
					<rect x="0" y="56.25" width="6" height="6.75" class="st3"/>
				</g>
				<g id="shape501-17" v:mID="501" v:groupContext="shape" transform="translate(11.25,-18)">
					<title>Sheet.501</title>
					<rect x="0" y="60.75" width="21" height="2.25" class="st3"/>
				</g>
				<g id="shape502-19" v:mID="502" v:groupContext="shape" transform="translate(11.25,-12)">
					<title>Sheet.502</title>
					<rect x="0" y="60.75" width="25.5" height="2.25" class="st3"/>
				</g>
				<g id="shape503-21" v:mID="503" v:groupContext="shape" transform="translate(2.25,-2.25)">
					<title>Sheet.503</title>
					<path d="M45 28.5 L45 60.75 L2.25 60.75 L2.25 28.5 L45 28.5 ZM47.25 26.25 L0 26.25 L0 63 L47.25 63 L47.25 26.25
								 Z" class="st2"/>
				</g>
			</g>
			<g id="group504-23" transform="translate(38.25,8.52651E-14)" v:mID="504" v:groupContext="group">
				<title>Sheet.504</title>
				<g id="shape505-24" v:mID="505" v:groupContext="shape">
					<title>Sheet.505</title>
					<path d="M22.35 51.75 L17.25 46.65 L17.25 63 L8.25 63 L8.25 46.65 L3.15 51.75 L0 51.75 L0 42.53 L12.75 29.85
								 L25.5 42.53 L25.5 51.75 L22.35 51.75 Z" class="st1"/>
				</g>
				<g id="shape506-26" v:mID="506" v:groupContext="shape" transform="translate(2.25,-2.25)">
					<title>Sheet.506</title>
					<path d="M8.25 43.5 L0 51.75 L0 45.68 L10.5 35.25 L21 45.68 L21 51.75 L12.75 43.5 L12.75 63 L8.25 63 L8.25 43.5
								 Z" class="st3"/>
				</g>
			</g>
		</g>
	</g>
</svg>
