<?xml version="1.0" encoding="UTF-8" standalone="no"?>
<!DOCTYPE svg PUBLIC "-//W3C//DTD SVG 1.1//EN" "http://www.w3.org/Graphics/SVG/1.1/DTD/svg11.dtd">
<!-- Generated by Microsoft Visio, SVG Export Offline Address Book.svg Page-1 -->
<svg xmlns="http://www.w3.org/2000/svg" xmlns:xlink="http://www.w3.org/1999/xlink" xmlns:ev="http://www.w3.org/2001/xml-events"
		xmlns:v="http://schemas.microsoft.com/visio/2003/SVGExtensions/" width="0.895833in" height="0.8125in"
		viewBox="0 0 64.5 58.5" xml:space="preserve" color-interpolation-filters="sRGB" class="st3">
	<v:documentProperties v:langID="4108" v:metric="true" v:viewMarkup="false"/>

	<style type="text/css">
	<![CDATA[
		.st1 {fill:#ffffff;stroke:none;stroke-linecap:butt;stroke-width:0.75}
		.st2 {fill:#515251;stroke:none;stroke-linecap:butt;stroke-width:0.75}
		.st3 {fill:none;fill-rule:evenodd;font-size:12px;overflow:visible;stroke-linecap:square;stroke-miterlimit:3}
	]]>
	</style>

	<g v:mID="0" v:index="1" v:groupContext="foregroundPage">
		<title>Page-1</title>
		<v:pageProperties v:drawingScale="0.0393701" v:pageScale="0.0393701" v:drawingUnits="24" v:shadowOffsetX="8.50394"
				v:shadowOffsetY="-8.50394"/>
		<g id="group507-1" transform="translate(0.75,-0.75)" v:mID="507" v:groupContext="group">
			<title>Offline Address Book</title>
			<g id="group508-2" v:mID="508" v:groupContext="group">
				<title>Sheet.508</title>
				<g id="group509-3" transform="translate(2.9976E-13,-9)" v:mID="509" v:groupContext="group">
					<title>Sheet.509</title>
					<g id="shape510-4" v:mID="510" v:groupContext="shape">
						<title>Sheet.510</title>
						<path d="M54.67 15.82 C54.37 12.82 51.83 10.5 48.75 10.5 L35.25 10.5 C32.7 10.5 30.45 11.47 28.72 13.05 C27
									 11.47 24.82 10.5 22.5 10.5 L9 10.5 C5.78 10.5 3.15 13.05 3 16.27 C1.2 17.1 0 18.15 0 20.25 L0
									 52.5 C-0 55.42 2.33 57.75 5.25 57.75 L24.75 57.75 C25.35 58.2 26.1 58.5 26.85 58.5 L30.9 58.5
									 C31.72 58.5 32.4 58.2 33 57.75 L54 57.75 C56.93 57.75 59.25 55.42 59.25 52.5 L59.25 21 C59.25
									 18.37 57.3 16.12 54.67 15.82 Z" class="st1"/>
					</g>
					<g id="shape511-6" v:mID="511" v:groupContext="shape" transform="translate(2.25,-2.25)">
						<title>Sheet.511</title>
						<path d="M51.75 20.25 L50.25 20.25 L50.25 18.75 C50.25 16.65 48.6 15 46.5 15 L45 15 L41.25 15 L33 15 C30.22
									 15 27.75 16.57 26.47 18.82 C25.12 16.57 22.87 15 20.25 15 L12 15 L8.25 15 L6.75 15 C4.65 15
									 3 16.65 3 18.75 L3 20.25 C1.35 20.25 0 21.6 0 23.25 L0 54.75 C-0 56.4 1.35 57.75 3 57.75 L23.4
									 57.75 C23.62 58.2 24.07 58.5 24.6 58.5 L28.65 58.5 C29.18 58.5 29.55 58.2 29.85 57.75 L51.75
									 57.75 C53.4 57.75 54.75 56.4 54.75 54.75 L54.75 23.25 C54.75 21.6 53.4 20.25 51.75 20.25 ZM33
									 17.25 L46.5 17.25 C47.33 17.25 48 17.92 48 18.75 L48 20.25 L28.27 20.25 C29.1 18.45 30.9 17.25
									 33 17.25 ZM5.25 18.75 C5.25 17.92 5.92 17.25 6.75 17.25 L20.25 17.25 C22.13 17.25 23.78 18.52
									 24.67 20.25 L5.25 20.25 L5.25 18.75 Z" class="st2"/>
					</g>
					<g id="shape512-8" v:mID="512" v:groupContext="shape" transform="translate(7.5,-5.25)">
						<title>Sheet.512</title>
						<path d="M0 55.5 L0 21.75 C-0 20.92 0.68 20.25 1.5 20.25 L15 20.25 C17.93 20.25 20.25 23.32 20.25 26.25 L20.25
									 58.5 C18.98 56.62 17.25 55.5 14.25 55.5 L0 55.5 ZM42.75 55.5 L28.5 55.5 C25.5 55.5 24.07 56.62
									 22.5 58.5 L22.5 26.25 L22.5 25.5 C22.5 22.57 24.82 20.25 27.75 20.25 L41.25 20.25 C42.07 20.25
									 42.75 20.92 42.75 21.75 L42.75 55.5 Z" class="st1"/>
					</g>
					<g id="shape513-10" v:mID="513" v:groupContext="shape" transform="translate(52.5,-29.25)">
						<title>Sheet.513</title>
						<path d="M0.75 50.25 L0 50.25 L0 58.5 L0.75 58.5 C1.58 58.5 2.25 57.82 2.25 57 L2.25 51.75 C2.25 50.92 1.58
									 50.25 0.75 50.25 Z" class="st1"/>
					</g>
					<g id="shape514-12" v:mID="514" v:groupContext="shape" transform="translate(52.5,-19.5)">
						<title>Sheet.514</title>
						<path d="M0.75 50.25 L0 50.25 L0 58.5 L0.75 58.5 C1.58 58.5 2.25 57.82 2.25 57 L2.25 51.75 C2.25 50.92 1.58
									 50.25 0.75 50.25 Z" class="st1"/>
					</g>
					<g id="shape515-14" v:mID="515" v:groupContext="shape" transform="translate(52.5,-9.75)">
						<title>Sheet.515</title>
						<path d="M0.75 50.25 L0 50.25 L0 58.5 L0.75 58.5 C1.58 58.5 2.25 57.82 2.25 57 L2.25 51.75 C2.25 50.92 1.58
									 50.25 0.75 50.25 Z" class="st1"/>
					</g>
					<g id="group516-16" transform="translate(11.475,-24.75)" v:mID="516" v:groupContext="group">
						<title>Sheet.516</title>
						<g id="shape517-17" v:mID="517" v:groupContext="shape">
							<title>Sheet.517</title>
							<path d="M12 54.52 C11.77 53.47 11.47 52.95 10.72 52.5 C9.9 52.05 9.52 51.75 9.22 51.75 C9.07 51.75 9
										 51.75 8.92 51.82 C8.7 51.97 8.55 52.12 8.32 52.27 C8.32 52.27 8.32 52.27 8.32 52.27 C8.25
										 52.27 8.25 52.35 8.25 52.35 C8.02 52.5 7.8 52.57 7.57 52.65 C7.2 52.8 6.75 52.87 6.3 52.87
										 C5.85 52.87 5.4 52.8 5.02 52.65 C4.8 52.57 4.57 52.5 4.35 52.35 C4.05 52.2 3.82 52.05 3.6
										 51.82 C3.52 51.75 3.37 51.75 3.3 51.75 C3 51.75 2.7 51.97 1.8 52.5 C1.05 52.95 0.75 53.47
										 0.52 54.52 C0.3 55.42 0.07 57.52 0 58.5 L12.75 58.5 C12.45 57.52 12.22 55.42 12 54.52 Z"
									class="st2"/>
						</g>
						<g id="shape518-19" v:mID="518" v:groupContext="shape" transform="translate(3.075,-6.975)">
							<title>Sheet.518</title>
							<path d="M3.07 58.5 C1.35 58.5 0 56.92 0 55.05 C0 53.17 1.42 51.6 3.07 51.6 C4.8 51.6 6.15 53.17 6.15
										 55.05 C6.15 56.92 4.8 58.5 3.07 58.5 Z" class="st2"/>
						</g>
					</g>
					<g id="shape519-21" v:mID="519" v:groupContext="shape" transform="translate(11.25,-18.75)">
						<title>Sheet.519</title>
						<rect x="0" y="56.25" width="12.75" height="2.25" class="st2"/>
					</g>
					<g id="shape520-23" v:mID="520" v:groupContext="shape" transform="translate(11.25,-14.25)">
						<title>Sheet.520</title>
						<rect x="0" y="56.25" width="12.75" height="2.25" class="st2"/>
					</g>
					<g id="group521-25" transform="translate(33.975,-24.75)" v:mID="521" v:groupContext="group">
						<title>Sheet.521</title>
						<g id="shape522-26" v:mID="522" v:groupContext="shape">
							<title>Sheet.522</title>
							<path d="M12 54.52 C11.77 53.47 11.47 52.95 10.72 52.5 C9.9 52.05 9.52 51.75 9.22 51.75 C9.07 51.75 9
										 51.75 8.92 51.82 C8.7 51.97 8.55 52.12 8.32 52.27 C8.32 52.27 8.32 52.27 8.32 52.27 C8.25
										 52.27 8.25 52.35 8.25 52.35 C8.02 52.5 7.8 52.57 7.57 52.65 C7.2 52.8 6.75 52.87 6.3 52.87
										 C5.85 52.87 5.4 52.8 5.02 52.65 C4.8 52.57 4.57 52.5 4.35 52.35 C4.05 52.2 3.82 52.05 3.6
										 51.82 C3.52 51.75 3.37 51.75 3.3 51.75 C3 51.75 2.7 51.97 1.8 52.5 C1.05 52.95 0.75 53.47
										 0.52 54.52 C0.3 55.42 0.07 57.52 0 58.5 L12.75 58.5 C12.45 57.52 12.22 55.42 12 54.52 Z"
									class="st2"/>
						</g>
						<g id="shape523-28" v:mID="523" v:groupContext="shape" transform="translate(3.075,-6.975)">
							<title>Sheet.523</title>
							<path d="M3.07 58.5 C1.35 58.5 0 56.92 0 55.05 C0 53.17 1.42 51.6 3.07 51.6 C4.8 51.6 6.15 53.17 6.15
										 55.05 C6.15 56.92 4.8 58.5 3.07 58.5 Z" class="st2"/>
						</g>
					</g>
					<g id="shape524-30" v:mID="524" v:groupContext="shape" transform="translate(33.75,-13.5)">
						<title>Sheet.524</title>
						<rect x="0" y="56.25" width="12.75" height="2.25" class="st2"/>
					</g>
				</g>
				<g id="group525-32" transform="translate(30.75,-2.62901E-13)" v:mID="525" v:groupContext="group">
					<title>Sheet.525</title>
					<g id="shape526-33" v:mID="526" v:groupContext="shape">
						<title>Sheet.526</title>
						<path d="M16.12 58.5 C7.2 58.5 0 51.3 0 42.37 C0 33.45 7.2 26.25 16.12 26.25 C25.05 26.25 32.25 33.45 32.25
									 42.37 C32.25 51.3 25.05 58.5 16.12 58.5 Z" class="st1"/>
					</g>
					<g id="shape527-35" v:mID="527" v:groupContext="shape" transform="translate(2.25,-2.25)">
						<title>Sheet.527</title>
						<path d="M13.87 30.75 C6.22 30.75 0 36.97 0 44.62 C0 52.27 6.22 58.5 13.87 58.5 C21.53 58.5 27.75 52.27 27.75
									 44.62 C27.75 36.97 21.53 30.75 13.87 30.75 ZM21 45.3 L13.87 52.5 L6.75 45.22 L6.75 41.25 L12
									 46.5 L12 36.75 L15.75 36.75 L15.75 46.5 L21 41.25 L21 45.3 Z" class="st2"/>
					</g>
				</g>
			</g>
		</g>
	</g>
</svg>
