<?xml version="1.0" encoding="UTF-8" standalone="no"?>
<!DOCTYPE svg PUBLIC "-//W3C//DTD SVG 1.1//EN" "http://www.w3.org/Graphics/SVG/1.1/DTD/svg11.dtd">
<!-- Generated by Microsoft Visio, SVG Export Personal Archive Mailbox.svg Page-1 -->
<svg xmlns="http://www.w3.org/2000/svg" xmlns:xlink="http://www.w3.org/1999/xlink" xmlns:ev="http://www.w3.org/2001/xml-events"
		xmlns:v="http://schemas.microsoft.com/visio/2003/SVGExtensions/" width="0.90625in" height="0.885417in"
		viewBox="0 0 65.25 63.75" xml:space="preserve" color-interpolation-filters="sRGB" class="st4">
	<v:documentProperties v:langID="4108" v:metric="true" v:viewMarkup="false"/>

	<style type="text/css">
	<![CDATA[
		.st1 {fill:#ffffff;stroke:none;stroke-linecap:butt;stroke-width:0.75}
		.st2 {fill:#515150;stroke:none;stroke-linecap:butt;stroke-width:0.75}
		.st3 {fill:#515050;stroke:none;stroke-linecap:butt;stroke-width:0.75}
		.st4 {fill:none;fill-rule:evenodd;font-size:12px;overflow:visible;stroke-linecap:square;stroke-miterlimit:3}
	]]>
	</style>

	<g v:mID="0" v:index="1" v:groupContext="foregroundPage">
		<title>Page-1</title>
		<v:pageProperties v:drawingScale="0.0393701" v:pageScale="0.0393701" v:drawingUnits="24" v:shadowOffsetX="8.50394"
				v:shadowOffsetY="-8.50394"/>
		<g id="group528-1" transform="translate(0.75,-0.75)" v:mID="528" v:groupContext="group">
			<title>Personal Archive Mailbox</title>
			<g id="group529-2" transform="translate(-1.15907E-13,-9)" v:mID="529" v:groupContext="group">
				<title>Sheet.529</title>
				<g id="group530-3" v:mID="530" v:groupContext="group">
					<title>Sheet.530</title>
					<g id="shape531-4" v:mID="531" v:groupContext="shape">
						<title>Sheet.531</title>
						<path d="M0 48.75 L0 63.75 L57 63.75 L57 48.75 L57 46.2 L56.55 44.25 L52.8 28.58 L51.75 28.58 L51.75 16.5
									 L50.25 16.5 L50.25 10.5 L6.75 10.5 L6.75 16.5 L5.25 16.5 L5.25 28.58 L4.2 28.58 L0.45 44.25
									 L0 46.2 L0 48.75 Z" class="st1"/>
					</g>
					<g id="group532-6" transform="translate(15,-21.75)" v:mID="532" v:groupContext="group">
						<title>Sheet.532</title>
						<g id="shape533-7" v:mID="533" v:groupContext="shape" transform="translate(23.25,-11.25)">
							<title>Sheet.533</title>
							<rect x="0" y="57" width="6" height="6.75" class="st2"/>
						</g>
						<g id="shape534-9" v:mID="534" v:groupContext="shape" transform="translate(-4.29656E-14,-5.25)">
							<title>Sheet.534</title>
							<rect x="0" y="61.5" width="15.75" height="2.25" class="st2"/>
						</g>
						<g id="shape535-11" v:mID="535" v:groupContext="shape">
							<title>Sheet.535</title>
							<rect x="0" y="61.5" width="20.25" height="2.25" class="st2"/>
						</g>
					</g>
					<g id="shape536-13" v:mID="536" v:groupContext="shape" transform="translate(9,-47.25)">
						<title>Sheet.536</title>
						<path d="M0 60 L0 63.75 L2.25 63.75 L2.25 62.25 L36.75 62.25 L36.75 63.75 L39 63.75 L39 60 L0 60 Z"
								class="st2"/>
					</g>
				</g>
				<g id="shape537-15" v:mID="537" v:groupContext="shape" transform="translate(2.25,-2.25)">
					<title>Sheet.537</title>
					<path d="M48.75 33.08 L47.25 33.08 L47.25 21 L5.25 21 L5.25 33.08 L3.75 33.08 L0 48.75 L0 63.75 L52.5 63.75 L52.5
								 48.75 L48.75 33.08 ZM45 33.08 L45 48.75 L7.5 48.75 L7.5 33.08 L7.5 23.25 L45 23.25 L45 33.08 Z"
							class="st2"/>
				</g>
			</g>
			<g id="group538-17" transform="translate(37.5,1.20792E-13)" v:mID="538" v:groupContext="group">
				<title>Sheet.538</title>
				<g id="shape539-18" v:mID="539" v:groupContext="shape">
					<title>Sheet.539</title>
					<rect x="0" y="28.5" width="26.25" height="35.25" class="st1"/>
				</g>
				<g id="shape540-20" v:mID="540" v:groupContext="shape" transform="translate(2.25,-2.25)">
					<title>Sheet.540</title>
					<rect x="0" y="33" width="21.75" height="30.75" class="st3"/>
				</g>
				<g id="shape541-22" v:mID="541" v:groupContext="shape" transform="translate(4.5,-18.75)">
					<title>Sheet.541</title>
					<path d="M15.75 53.25 L15.75 62.25 L1.5 62.25 L1.5 53.25 L15.75 53.25 ZM17.25 51.75 L0 51.75 L0 63.75 L17.25
								 63.75 L17.25 51.75 Z" class="st1"/>
				</g>
				<g id="shape542-24" v:mID="542" v:groupContext="shape" transform="translate(4.5,-4.5)">
					<title>Sheet.542</title>
					<path d="M15.75 53.25 L15.75 62.25 L1.5 62.25 L1.5 53.25 L15.75 53.25 ZM17.25 51.75 L0 51.75 L0 63.75 L17.25
								 63.75 L17.25 51.75 Z" class="st1"/>
				</g>
				<g id="shape543-26" v:mID="543" v:groupContext="shape" transform="translate(11.25,-24.75)">
					<title>Sheet.543</title>
					<rect x="0" y="61.5" width="3.75" height="2.25" class="st1"/>
				</g>
				<g id="shape544-28" v:mID="544" v:groupContext="shape" transform="translate(11.25,-10.5)">
					<title>Sheet.544</title>
					<rect x="0" y="61.5" width="3.75" height="2.25" class="st1"/>
				</g>
			</g>
		</g>
	</g>
</svg>
