<?xml version="1.0" encoding="UTF-8" standalone="no"?>
<!DOCTYPE svg PUBLIC "-//W3C//DTD SVG 1.1//EN" "http://www.w3.org/Graphics/SVG/1.1/DTD/svg11.dtd">
<!-- Generated by Microsoft Visio, SVG Export Public IM Cloud Service.svg Page-1 -->
<svg xmlns="http://www.w3.org/2000/svg" xmlns:xlink="http://www.w3.org/1999/xlink" xmlns:ev="http://www.w3.org/2001/xml-events"
		xmlns:v="http://schemas.microsoft.com/visio/2003/SVGExtensions/" width="0.901971in" height="0.886458in"
		viewBox="0 0 64.9419 63.825" xml:space="preserve" color-interpolation-filters="sRGB" class="st3">
	<v:documentProperties v:langID="4108" v:metric="true" v:viewMarkup="false"/>

	<style type="text/css">
	<![CDATA[
		.st1 {fill:#ffffff;stroke:none;stroke-linecap:butt;stroke-width:0.75}
		.st2 {fill:#525352;stroke:none;stroke-linecap:butt;stroke-width:0.75}
		.st3 {fill:none;fill-rule:evenodd;font-size:12px;overflow:visible;stroke-linecap:square;stroke-miterlimit:3}
	]]>
	</style>

	<g v:mID="0" v:index="1" v:groupContext="foregroundPage">
		<title>Page-1</title>
		<v:pageProperties v:drawingScale="0.0393701" v:pageScale="0.0393701" v:drawingUnits="24" v:shadowOffsetX="8.50394"
				v:shadowOffsetY="-8.50394"/>
		<g id="group545-1" transform="translate(0.75,-0.75)" v:mID="545" v:groupContext="group">
			<title>Public IM Cloud Service</title>
			<g id="group546-2" v:mID="546" v:groupContext="group">
				<title>Sheet.546</title>
				<g id="group547-3" v:mID="547" v:groupContext="group">
					<title>Sheet.547</title>
					<g id="group548-4" transform="translate(-3.07754E-13,-12.15)" v:mID="548" v:groupContext="group">
						<title>Sheet.548</title>
						<g id="shape549-5" v:mID="549" v:groupContext="shape">
							<title>Sheet.549</title>
							<path d="M11.02 63.83 C4.95 63.83 0 58.65 0 52.28 C0 46.05 4.65 41.03 10.43 40.73 C12.23 38.63 14.62
										 37.43 17.32 37.2 C18.6 31.43 23.55 27.15 29.33 27.15 C33.15 27.15 36.67 29.03 39 32.18 C40.05
										 31.88 41.1 31.73 42.15 31.73 C48.75 31.73 54.15 37.43 54.15 44.33 C56.85 46.35 58.43 49.58
										 58.43 53.03 C58.43 57.98 55.27 62.25 50.7 63.45 L50.63 63.45 L49.13 63.75 L11.03 63.75 L11.02
										 63.83 Z" class="st1"/>
						</g>
						<g id="shape550-7" v:mID="550" v:groupContext="shape" transform="translate(2.25,-2.25)">
							<title>Sheet.550</title>
							<path d="M49.65 47.78 C49.72 47.4 49.72 47.03 49.73 46.65 C49.72 40.88 45.38 36.23 39.98 36.23 C38.55
										 36.23 37.2 36.53 35.93 37.2 C34.05 33.83 30.75 31.65 27.08 31.65 C21.68 31.65 17.32 36.15
										 16.95 41.78 C16.5 41.7 16.12 41.63 15.68 41.63 C13.13 41.63 10.72 42.98 9.22 45.15 C9 45.15
										 8.85 45.15 8.63 45.15 C3.9 45.23 0 49.43 0 54.53 C0 59.63 3.9 63.83 8.77 63.83 L46.73 63.83
										 L47.93 63.6 C51.53 62.63 54 59.25 54 55.35 C54 52.13 52.28 49.2 49.65 47.78 ZM47.4 61.43
										 L46.5 61.58 L8.77 61.58 C5.17 61.58 2.25 58.43 2.25 54.53 C2.25 50.63 5.1 47.48 8.7 47.48
										 C8.85 47.48 9 47.48 9.15 47.48 L10.43 47.55 L11.18 46.43 C12.23 44.78 13.95 43.88 15.75
										 43.88 C16.05 43.88 16.35 43.88 16.65 43.95 L19.12 44.4 L19.28 41.85 C19.5 37.43 22.95 33.9
										 27.08 33.9 C29.85 33.9 32.48 35.55 33.83 38.25 L34.88 40.2 L36.83 39.23 C37.8 38.78 38.85
										 38.48 39.9 38.48 C44.03 38.48 47.4 42.15 47.4 46.65 C47.4 46.95 47.4 47.25 47.33 47.55 L47.18
										 49.05 L48.53 49.8 C50.47 50.85 51.67 53.03 51.68 55.35 C51.75 58.2 49.95 60.68 47.4 61.43
										 Z" class="st2"/>
						</g>
					</g>
					<g id="group551-9" transform="translate(30,2.84217E-14)" v:mID="551" v:groupContext="group">
						<title>Sheet.551</title>
						<g id="shape552-10" v:mID="552" v:groupContext="shape">
							<title>Sheet.552</title>
							<path d="M20.92 63.83 C19.73 63.83 18.6 63.08 18.15 61.95 L17.47 60.38 C17.32 60.38 17.1 60.38 16.87
										 60.38 C16.65 60.38 16.42 60.38 16.2 60.38 L15.52 61.95 C15.08 63.08 13.95 63.83 12.75 63.83
										 C12.38 63.83 11.93 63.75 11.62 63.6 L8.77 62.4 C8.03 62.1 7.42 61.5 7.12 60.75 C6.83 60
										 6.83 59.18 7.12 58.43 L7.8 56.85 L6.97 56.03 L5.4 56.7 C5.03 56.85 4.65 56.93 4.27 56.93
										 C3.07 56.93 1.95 56.18 1.5 55.05 L0.3 52.2 C-0 51.45 -0 50.63 0.3 49.88 C0.6 49.13 1.2 48.53
										 1.95 48.23 L3.52 47.55 L3.52 46.35 L1.95 45.68 C1.2 45.38 0.6 44.78 0.3 44.03 C-0 43.28
										 -0 42.45 0.3 41.7 L1.5 38.85 C1.95 37.73 3.07 36.98 4.27 36.98 C4.65 36.98 5.03 37.05 5.4
										 37.2 L6.97 37.88 L7.8 37.05 L7.12 35.48 C6.83 34.73 6.83 33.9 7.12 33.15 C7.42 32.4 8.03
										 31.8 8.77 31.5 L11.62 30.3 C12 30.15 12.38 30.08 12.75 30.08 C13.95 30.08 15.08 30.83 15.52
										 31.95 L16.12 33.45 C16.28 33.45 16.5 33.45 16.72 33.45 C16.95 33.45 17.18 33.45 17.4 33.45
										 L18 31.88 C18.45 30.75 19.57 30 20.77 30 C21.15 30 21.53 30.08 21.9 30.23 L24.75 31.43 C25.5
										 31.73 26.1 32.33 26.4 33.08 C26.7 33.83 26.7 34.65 26.4 35.4 L25.72 36.98 L26.55 37.8 L28.12
										 37.13 C28.5 36.98 28.88 36.9 29.25 36.9 C30.45 36.9 31.57 37.65 32.02 38.78 L33.22 41.63
										 C33.52 42.38 33.52 43.2 33.22 43.95 C32.92 44.7 32.33 45.3 31.57 45.6 L30 46.28 L30 47.48
										 L31.57 48.15 C33.15 48.83 33.82 50.55 33.22 52.13 L32.02 54.98 C31.57 56.1 30.45 56.85 29.25
										 56.85 C28.88 56.85 28.43 56.78 28.05 56.63 L26.47 55.95 L25.65 56.78 L26.32 58.35 C26.62
										 59.1 26.62 59.93 26.32 60.68 C26.02 61.43 25.43 62.03 24.67 62.33 L21.82 63.53 C21.75 63.75
										 21.3 63.83 20.92 63.83 Z" class="st1"/>
						</g>
						<g id="shape553-12" v:mID="553" v:groupContext="shape" transform="translate(2.1,-2.175)">
							<title>Sheet.553</title>
							<path d="M28.95 52.43 L26.55 51.45 C26.17 51.3 25.87 51.08 25.87 51 C25.87 50.93 25.95 50.48 25.95 50.1
										 L25.95 48.15 C25.95 47.7 25.87 47.33 25.87 47.25 C25.87 47.18 26.17 46.95 26.55 46.8 L28.95
										 45.83 C29.32 45.68 29.55 45.23 29.4 44.78 L28.2 41.93 C28.05 41.55 27.6 41.33 27.15 41.48
										 L24.75 42.45 C24.37 42.6 24 42.68 23.92 42.6 C23.85 42.53 23.62 42.23 23.32 41.85 L21.9
										 40.5 C21.6 40.2 21.22 39.98 21.22 39.9 C21.15 39.83 21.22 39.53 21.37 39.08 L22.35 36.68
										 C22.5 36.3 22.35 35.85 21.9 35.63 L19.05 34.43 C18.67 34.28 18.22 34.43 18 34.88 L17.02
										 37.28 C16.88 37.65 16.65 37.95 16.57 37.95 C16.5 37.95 16.05 37.88 15.67 37.8 C15.67 37.8
										 15.3 37.73 14.7 37.73 C14.1 37.73 13.72 37.8 13.72 37.8 C13.27 37.88 12.9 37.88 12.82 37.95
										 C12.75 37.95 12.52 37.65 12.37 37.28 L11.4 34.95 C11.25 34.58 10.8 34.35 10.35 34.5 L7.5
										 35.7 C7.13 35.85 6.9 36.3 7.05 36.75 L8.02 39.15 C8.17 39.53 8.25 39.9 8.17 39.98 C8.1 40.05
										 7.8 40.28 7.42 40.58 L6.22 41.93 C5.93 42.23 5.7 42.6 5.62 42.68 C5.55 42.75 5.25 42.68
										 4.8 42.53 L2.4 41.48 C2.02 41.33 1.57 41.48 1.35 41.93 L0.15 44.78 C0 45.15 0.15 45.6 0.6
										 45.83 L3 46.8 C3.37 46.95 3.67 47.18 3.67 47.25 C3.67 47.33 3.6 47.78 3.6 48.15 L3.6 50.1
										 C3.6 50.55 3.67 50.93 3.67 51 C3.67 51.08 3.37 51.3 3 51.45 L0.6 52.43 C0.23 52.58 0 53.03
										 0.15 53.48 L1.35 56.33 C1.5 56.7 1.95 56.93 2.32 56.78 L4.72 55.8 C5.1 55.65 5.48 55.58
										 5.55 55.65 C5.63 55.73 5.85 56.03 6.15 56.4 L7.57 57.75 C7.87 58.05 8.25 58.28 8.32 58.35
										 C8.4 58.43 8.32 58.8 8.17 59.18 L7.12 61.43 C6.98 61.8 7.13 62.25 7.57 62.48 L10.42 63.68
										 C10.8 63.83 11.25 63.68 11.47 63.23 L12.45 60.83 C12.6 60.45 12.82 60.15 12.9 60.15 C12.97
										 60.15 13.42 60.23 13.8 60.3 C13.8 60.3 14.17 60.38 14.77 60.38 C15.37 60.38 15.75 60.3 15.75
										 60.3 C16.2 60.23 16.58 60.23 16.65 60.15 C16.73 60.15 16.95 60.45 17.1 60.83 L18.07 63.23
										 C18.22 63.6 18.67 63.83 19.12 63.68 L21.97 62.48 C22.35 62.33 22.57 61.88 22.42 61.43 L21.45
										 59.03 C21.3 58.65 21.22 58.28 21.3 58.2 C21.37 58.13 21.68 57.9 22.05 57.6 L23.47 56.18
										 C23.77 55.88 24 55.5 24.07 55.43 C24.15 55.35 24.45 55.43 24.9 55.58 L27.3 56.55 C27.67
										 56.7 28.12 56.55 28.35 56.1 L29.55 53.25 C29.47 53.03 29.32 52.58 28.95 52.43 ZM14.77 56.85
										 C10.5 56.85 7.05 53.4 7.05 49.13 C7.05 44.85 10.5 41.4 14.77 41.4 C19.05 41.4 22.5 44.85
										 22.5 49.13 C22.5 53.4 19.05 56.85 14.77 56.85 Z" class="st2"/>
						</g>
					</g>
					<g id="group554-14" transform="translate(31.5,-30.075)" v:mID="554" v:groupContext="group">
						<title>Sheet.554</title>
						<g id="shape555-15" v:mID="555" v:groupContext="shape">
							<title>Sheet.555</title>
							<path d="M27.75 31.58 L3.75 31.58 C1.65 31.58 0 33.22 0 35.33 L0 52.58 C-0 54.68 1.65 56.33 3.75 56.33
										 L13.5 56.33 L13.5 61.58 C13.5 62.55 14.1 63.38 15 63.68 C15.23 63.75 15.53 63.83 15.75 63.83
										 C16.43 63.83 17.03 63.53 17.48 63 L23.18 56.33 L27.75 56.33 C29.85 56.33 31.5 54.68 31.5
										 52.58 L31.5 35.33 C31.5 33.22 29.85 31.58 27.75 31.58 Z" class="st1"/>
						</g>
						<g id="shape556-17" v:mID="556" v:groupContext="shape" transform="translate(2.25,-2.25)">
							<title>Sheet.556</title>
							<path d="M25.5 36.08 L1.5 36.08 C0.68 36.08 0 36.75 0 37.58 L0 54.83 C0 55.65 0.68 56.33 1.5 56.33 L13.5
										 56.33 L13.5 63.83 L19.88 56.33 L25.5 56.33 C26.33 56.33 27 55.65 27 54.83 L27 37.58 C27
										 36.75 26.33 36.08 25.5 36.08 Z" class="st2"/>
						</g>
					</g>
				</g>
				<g id="group557-19" transform="translate(40.2,-43.05)" v:mID="557" v:groupContext="group">
					<title>Sheet.557</title>
					<g id="group558-20" transform="translate(0.225,-0.75)" v:mID="558" v:groupContext="group">
						<title>Sheet.558</title>
						<g id="shape559-21" v:mID="559" v:groupContext="shape" transform="translate(0.375,-3.6)">
							<title>Sheet.559</title>
							<path d="M0.6 63.83 C0.23 63 0 62.03 0 61.13 C0 60.83 -0 60.53 0.08 60.23 C0.3 60.68 0.98 61.35 1.58
										 61.88 C1.73 61.95 1.8 62.1 1.95 62.25 C1.5 62.4 1.05 62.63 0.83 62.78 C0.45 63 0.45 63.38
										 0.6 63.83 Z" class="st1"/>
						</g>
						<g id="shape560-23" v:mID="560" v:groupContext="shape">
							<title>Sheet.560</title>
							<path d="M0.75 57.6 C0.98 57.83 1.28 58.13 1.58 58.43 C1.13 58.65 0.98 58.8 0.9 58.8 C0.83 58.43 0.75
										 58.05 0.75 57.6 ZM0.98 53.93 C0.38 54.98 0 56.18 0 57.53 C0 60.3 1.65 62.7 4.05 63.83 C3.3
										 63.08 2.78 61.95 1.88 61.65 C2.03 61.35 0.98 59.93 1.5 59.4 C1.73 59.18 3 58.8 3 58.8 C2.85
										 58.5 1.2 57.15 0.9 56.48 C0.6 55.8 0.75 55.13 0.83 54.68 C0.68 54.45 0.83 54.15 0.98 53.93
										 Z" class="st1"/>
						</g>
					</g>
					<g id="group561-25" transform="translate(2.475,-0.3)" v:mID="561" v:groupContext="group">
						<title>Sheet.561</title>
						<g id="group562-26" transform="translate(10.125,-5.25)" v:mID="562" v:groupContext="group">
							<title>Sheet.562</title>
							<g id="shape563-27" v:mID="563" v:groupContext="shape">
								<title>Sheet.563</title>
								<path d="M1.27 63.83 C1.42 63.3 1.42 62.78 1.42 62.25 C1.42 60.68 0.9 59.25 0 58.05 C0.67 59.1 1.65
											 61.65 1.27 63.83 Z" class="st1"/>
							</g>
							<g id="shape564-29" v:mID="564" v:groupContext="shape">
								<title>Sheet.564</title>
								<path d="M0 58.05 C0.6 59.1 1.65 61.65 1.27 63.83 C1.42 63.3 1.42 62.78 1.42 62.25 C1.42 60.68 0.9
											 59.25 0 58.05 Z" class="st1"/>
							</g>
						</g>
						<g id="group565-31" v:mID="565" v:groupContext="group">
							<title>Sheet.565</title>
							<g id="shape566-32" v:mID="566" v:groupContext="shape" transform="translate(0.6,-0.15)">
								<title>Sheet.566</title>
								<path d="M3.83 63.75 C3.98 63.45 4.05 63.08 4.13 62.78 C4.2 62.33 4.35 61.95 4.58 61.58 C5.4 60.38
											 5.18 59.4 4.8 58.95 C4.8 58.88 4.73 58.8 4.65 58.65 C4.43 58.35 3.98 58.35 3.6 58.35
											 C3.3 58.35 3 58.35 2.63 58.43 C2.4 58.43 2.1 58.5 1.95 58.5 C1.88 58.5 1.8 58.5 1.8
											 58.5 C-0 57 0.08 56.55 0.08 56.48 C0.08 56.48 0.15 56.4 0.3 56.4 C0.38 56.4 0.45 56.4
											 0.53 56.48 C0.6 56.93 0.9 57.45 1.88 57.83 L2.1 57.9 L2.25 57.75 C2.48 57.53 2.4 57.15
											 2.18 56.63 C2.1 56.48 2.03 56.25 2.03 56.25 C2.03 55.95 2.48 55.05 2.7 54.9 C2.7 54.9
											 2.7 54.9 2.7 54.9 C3.23 54.9 3.45 54.6 3.68 54.45 C3.83 54.23 3.98 54.08 4.58 54.08
											 C4.8 54.08 4.95 53.93 5.1 53.63 C5.25 53.18 5.4 52.05 4.8 51.53 C4.58 51.3 4.28 51.15
											 3.98 51.15 C3.45 51.15 3 51.53 2.7 51.83 C2.62 51.9 2.55 51.9 2.55 51.98 C2.55 51.9
											 2.48 51.83 2.48 51.75 C2.32 51.38 2.18 51.15 1.95 51 C2.62 50.78 3.3 50.7 3.98 50.7
											 C5.18 50.7 6.3 51 7.35 51.6 C7.05 51.75 6.83 51.98 6.53 52.35 C6.08 52.95 6 53.48 6.23
											 53.85 C6.45 54.23 6.9 54.38 7.35 54.38 C6.53 54.98 5.25 56.03 5.4 57.38 C5.48 58.2 7.13
											 58.8 7.88 59.03 C8.03 59.7 8.55 60.9 9.23 61.28 C8.03 62.85 6.08 63.83 4.05 63.83 C3.98
											 63.75 3.9 63.75 3.83 63.75 Z" class="st1"/>
							</g>
							<g id="shape567-34" v:mID="567" v:groupContext="shape">
								<title>Sheet.567</title>
								<path d="M5.63 50.93 C6.23 51 6.83 51.23 7.35 51.45 C7.2 51.6 7.05 51.75 6.98 51.98 C6.83 52.28 6.23
											 53.1 6.6 53.85 C6.75 54.15 6.98 54.3 7.2 54.38 C6.45 55.05 5.63 55.95 5.78 57.23 C5.85
											 58.28 7.43 58.88 8.33 59.1 C8.48 59.7 8.85 60.6 9.45 61.13 C8.4 62.33 6.83 63.15 5.18
											 63.23 C5.25 63.08 5.25 62.93 5.33 62.7 C5.4 62.33 5.48 61.95 5.7 61.65 C6.6 60.38 6.38
											 59.25 5.93 58.65 C5.93 58.5 5.85 58.43 5.78 58.28 C5.48 57.9 4.95 57.83 4.43 57.83 C4.13
											 57.83 3.75 57.83 3.45 57.9 C3.38 57.9 3.38 57.9 3.3 57.9 L3.38 57.83 C3.83 57.45 3.6
											 56.85 3.38 56.33 C3.38 56.25 3.3 56.1 3.3 56.03 C3.3 55.8 3.53 55.35 3.68 55.13 C4.28
											 55.05 4.58 54.75 4.8 54.53 C4.95 54.38 5.03 54.3 5.4 54.3 C5.63 54.3 6 54.23 6.23 53.63
											 C6.45 53.1 6.6 51.75 5.85 51.15 C5.7 51 5.63 50.93 5.63 50.93 ZM3.6 50.93 C3.53 51 3.45
											 51.08 3.3 51.15 C3.3 51.08 3.23 51.08 3.23 51 C3.38 51 3.53 50.93 3.6 50.93 ZM4.65 50.1
											 C4.65 50.1 4.65 50.1 4.65 50.1 C3.38 50.1 2.18 50.48 1.2 51 C1.43 50.93 1.58 50.85 1.8
											 50.85 C2.18 50.85 2.55 51.08 2.78 51.68 C2.92 51.98 2.85 52.13 3.15 52.13 C3.15 52.13
											 3.15 52.13 3.23 52.13 C3.53 52.13 3.98 51.3 4.65 51.3 C4.8 51.3 5.03 51.38 5.25 51.53
											 C5.78 51.98 5.48 53.4 5.25 53.4 C3.9 53.4 4.28 54.23 3.38 54.23 C3.38 54.23 3.38 54.23
											 3.3 54.23 C3.3 54.23 3.3 54.23 3.3 54.23 C2.92 54.23 2.33 55.5 2.33 55.95 C2.33 56.18
											 2.78 57.08 2.63 57.15 C1.95 56.85 1.5 56.48 1.5 55.95 C1.43 55.8 1.13 55.73 0.9 55.73
											 C0.68 55.73 0.37 55.8 0.3 55.95 C-0 56.55 1.27 57.75 2.18 58.5 C2.25 58.5 2.33 58.58
											 2.48 58.58 C2.92 58.58 3.6 58.5 4.13 58.5 C4.65 58.5 5.03 58.58 4.95 58.88 C5.25 59.18
											 5.63 60 4.8 61.13 C4.13 62.1 4.43 63.45 3.53 63.75 C3.9 63.83 4.2 63.83 4.58 63.83 C4.58
											 63.83 4.58 63.83 4.58 63.83 C7.43 63.83 9.9 62.03 10.95 59.55 C10.8 59.85 10.65 60.15
											 10.43 60.45 C10.35 60.6 10.2 60.6 10.13 60.6 C9.53 60.6 8.78 58.8 8.78 58.35 C8.78 58.35
											 8.78 58.35 8.78 58.35 C8.63 58.35 6.45 57.68 6.38 57 C6.23 55.28 8.78 54.08 8.93 53.78
											 C8.93 53.7 8.78 53.7 8.55 53.7 C8.48 53.7 8.4 53.7 8.33 53.7 C7.58 53.7 6.53 53.63 7.5
											 52.28 C7.88 51.75 8.25 51.53 8.55 51.53 C8.78 51.53 9 51.6 9.23 51.75 C8.03 50.78 6.45
											 50.1 4.65 50.1 Z" class="st1"/>
							</g>
						</g>
					</g>
					<g id="shape568-36" v:mID="568" v:groupContext="shape">
						<title>Sheet.568</title>
						<path d="M7.13 49.58 L7.13 50.33 C10.65 50.33 13.5 53.18 13.5 56.7 C13.5 58.43 12.83 60 11.63 61.2 C10.43
									 62.4 8.85 63.08 7.13 63.08 C3.6 63.08 0.75 60.23 0.75 56.7 C0.75 53.18 3.6 50.33 7.13 50.33
									 L7.13 49.58 ZM7.13 49.58 C7.13 49.58 7.13 49.58 7.13 49.58 C3.15 49.58 0 52.8 0 56.7 C0 60.6
									 3.23 63.83 7.13 63.83 C7.13 63.83 7.13 63.83 7.13 63.83 C11.03 63.83 14.25 60.6 14.25 56.7 C14.25
									 52.8 11.03 49.58 7.13 49.58 Z" class="st1"/>
					</g>
				</g>
			</g>
		</g>
	</g>
</svg>
