<?xml version="1.0" encoding="UTF-8" standalone="no"?>
<!DOCTYPE svg PUBLIC "-//W3C//DTD SVG 1.1//EN" "http://www.w3.org/Graphics/SVG/1.1/DTD/svg11.dtd">
<!-- Generated by Microsoft Visio, SVG Export Push Notification Service.svg Page-1 -->
<svg xmlns="http://www.w3.org/2000/svg" xmlns:xlink="http://www.w3.org/1999/xlink" xmlns:ev="http://www.w3.org/2001/xml-events"
		xmlns:v="http://schemas.microsoft.com/visio/2003/SVGExtensions/" width="0.767708in" height="0.885417in"
		viewBox="0 0 55.275 63.75" xml:space="preserve" color-interpolation-filters="sRGB" class="st4">
	<v:documentProperties v:langID="4108" v:metric="true" v:viewMarkup="false"/>

	<style type="text/css">
	<![CDATA[
		.st1 {fill:#ffffff;stroke:none;stroke-linecap:butt;stroke-width:0.75}
		.st2 {fill:#515050;stroke:none;stroke-linecap:butt;stroke-width:0.75}
		.st3 {fill:#515150;stroke:none;stroke-linecap:butt;stroke-width:0.75}
		.st4 {fill:none;fill-rule:evenodd;font-size:12px;overflow:visible;stroke-linecap:square;stroke-miterlimit:3}
	]]>
	</style>

	<g v:mID="0" v:index="1" v:groupContext="foregroundPage">
		<title>Page-1</title>
		<v:pageProperties v:drawingScale="0.0393701" v:pageScale="0.0393701" v:drawingUnits="24" v:shadowOffsetX="8.50394"
				v:shadowOffsetY="-8.50394"/>
		<g id="group569-1" transform="translate(0.75,-0.75)" v:mID="569" v:groupContext="group">
			<title>Push Notification Service</title>
			<g id="group570-2" v:mID="570" v:groupContext="group">
				<title>Sheet.570</title>
				<g id="shape571-3" v:mID="571" v:groupContext="shape" transform="translate(7.99361E-14,-14.175)">
					<title>Sheet.571</title>
					<path d="M5.55 63.67 C2.48 63.67 0 61.2 0 58.12 L0 28.72 C0 25.65 2.48 23.17 5.55 23.17 L35.03 23.17 C38.1 23.17
								 40.58 25.65 40.58 28.72 L40.58 58.2 C40.58 61.27 38.1 63.75 35.03 63.75 L5.55 63.75 L5.55 63.67
								 Z" class="st1"/>
				</g>
				<g id="shape572-5" v:mID="572" v:groupContext="shape" transform="translate(2.25,-16.5)">
					<title>Sheet.572</title>
					<path d="M32.7 63.75 L3.3 63.75 C1.5 63.75 0 62.25 0 60.45 L0 31.05 C0 29.25 1.5 27.75 3.3 27.75 L32.77 27.75
								 C34.57 27.75 36.07 29.25 36.07 31.05 L36.07 60.52 C36 62.25 34.5 63.75 32.7 63.75 Z" class="st2"/>
				</g>
				<g id="group573-7" transform="translate(20.325,1.13687E-13)" v:mID="573" v:groupContext="group">
					<title>Sheet.573</title>
					<g id="shape574-8" v:mID="574" v:groupContext="shape">
						<title>Sheet.574</title>
						<path d="M20.85 63.75 C19.65 63.75 18.53 63 18.08 61.87 L17.4 60.3 C17.25 60.3 17.02 60.3 16.8 60.3 C16.57
									 60.3 16.35 60.3 16.13 60.3 L15.45 61.87 C15.08 63 13.95 63.75 12.75 63.75 C12.38 63.75 11.93
									 63.67 11.63 63.52 L8.77 62.32 C8.03 62.02 7.42 61.42 7.13 60.67 C6.83 59.92 6.83 59.1 7.13 58.35
									 L7.8 56.77 L6.98 55.95 L5.4 56.62 C5.03 56.77 4.65 56.85 4.28 56.85 C3.08 56.85 1.95 56.1 1.5
									 54.97 L0.3 52.12 C-0 51.37 0 50.55 0.3 49.8 C0.6 49.05 1.2 48.45 1.95 48.15 L3.53 47.47 L3.53
									 46.27 L1.95 45.6 C1.2 45.3 0.6 44.7 0.3 43.95 C-0 43.2 0 42.37 0.3 41.62 L1.5 38.77 C1.95 37.65
									 3.08 36.9 4.28 36.9 C4.65 36.9 5.03 36.97 5.4 37.12 L6.98 37.8 L7.8 36.97 L7.13 35.4 C6.83 34.65
									 6.83 33.82 7.13 33.07 C7.42 32.33 8.03 31.72 8.77 31.42 L11.63 30.22 C12 30.07 12.38 30 12.75
									 30 C13.95 30 15.08 30.75 15.53 31.87 L16.13 33.37 C16.28 33.37 16.5 33.37 16.73 33.37 C16.95
									 33.37 17.18 33.37 17.4 33.37 L18 31.8 C18.45 30.67 19.57 29.92 20.78 29.92 C21.15 29.92 21.53
									 30 21.9 30.15 L24.75 31.35 C25.5 31.65 26.1 32.25 26.4 33 C26.7 33.75 26.7 34.57 26.4 35.32
									 L25.73 36.9 L26.55 37.72 L28.13 37.05 C28.5 36.9 28.88 36.82 29.25 36.82 C30.45 36.82 31.58
									 37.57 32.03 38.7 L33.23 41.55 C33.52 42.3 33.52 43.12 33.23 43.87 C32.93 44.62 32.33 45.22 31.58
									 45.52 L30 46.2 L30 47.4 L31.58 48.07 C33.15 48.75 33.83 50.47 33.23 52.05 L32.03 54.9 C31.58
									 56.02 30.45 56.77 29.25 56.77 C28.88 56.77 28.43 56.7 28.05 56.55 L26.48 55.87 L25.65 56.7 L26.33
									 58.27 C26.62 59.02 26.62 59.85 26.33 60.6 C26.03 61.35 25.43 61.95 24.68 62.25 L21.83 63.45
									 C21.68 63.67 21.23 63.75 20.85 63.75 Z" class="st1"/>
					</g>
					<g id="shape575-10" v:mID="575" v:groupContext="shape" transform="translate(2.025,-2.1)">
						<title>Sheet.575</title>
						<path d="M28.95 52.35 L26.55 51.37 C26.18 51.22 25.88 51 25.87 50.92 C25.88 50.85 25.95 50.4 25.95 50.02
									 L25.95 48.07 C25.95 47.62 25.88 47.25 25.87 47.17 C25.88 47.1 26.18 46.87 26.55 46.72 L28.95
									 45.75 C29.32 45.6 29.55 45.15 29.4 44.7 L28.2 41.85 C28.05 41.47 27.6 41.25 27.15 41.4 L24.75
									 42.37 C24.37 42.52 24 42.6 23.93 42.52 C23.85 42.45 23.62 42.15 23.33 41.77 L21.9 40.42 C21.6
									 40.12 21.23 39.9 21.22 39.82 C21.15 39.75 21.23 39.45 21.37 39 L22.35 36.6 C22.5 36.23 22.35
									 35.77 21.9 35.55 L19.05 34.35 C18.67 34.2 18.22 34.35 18 34.8 L17.03 37.2 C16.88 37.57 16.65
									 37.87 16.58 37.87 C16.5 37.87 16.05 37.8 15.68 37.72 C15.68 37.72 15.3 37.65 14.7 37.65 C14.1
									 37.65 13.72 37.72 13.72 37.72 C13.27 37.8 12.9 37.8 12.82 37.87 C12.75 37.87 12.52 37.57 12.37
									 37.2 L11.4 34.8 C11.25 34.42 10.8 34.2 10.35 34.35 L7.5 35.55 C7.13 35.7 6.9 36.15 7.05 36.6
									 L8.03 39 C8.17 39.37 8.25 39.75 8.18 39.82 C8.1 39.9 7.8 40.12 7.5 40.42 L6.08 41.85 C5.78 42.15
									 5.55 42.52 5.48 42.6 C5.4 42.67 5.1 42.6 4.65 42.45 L2.4 41.32 C2.03 41.17 1.58 41.32 1.35 41.77
									 L0.15 44.62 C0 45 0.15 45.45 0.6 45.67 L3 46.65 C3.37 46.8 3.67 47.02 3.68 47.1 C3.67 47.17
									 3.6 47.62 3.6 48 L3.6 49.95 C3.6 50.4 3.67 50.77 3.68 50.85 C3.67 50.92 3.37 51.15 3 51.3 L0.6
									 52.35 C0.23 52.5 0 52.95 0.15 53.4 L1.35 56.25 C1.5 56.62 1.95 56.85 2.4 56.7 L4.8 55.72 C5.18
									 55.57 5.55 55.5 5.63 55.57 C5.7 55.65 5.93 55.95 6.23 56.32 L7.65 57.67 C7.95 57.97 8.32 58.2
									 8.4 58.27 C8.47 58.35 8.4 58.72 8.25 59.1 L7.13 61.35 C6.98 61.72 7.13 62.17 7.58 62.4 L10.43
									 63.6 C10.8 63.75 11.25 63.6 11.47 63.15 L12.45 60.75 C12.6 60.37 12.82 60.07 12.9 60.07 C12.97
									 60.07 13.42 60.15 13.8 60.22 C13.8 60.22 14.17 60.3 14.78 60.3 C15.38 60.3 15.75 60.22 15.75
									 60.22 C16.2 60.15 16.58 60.15 16.65 60.07 C16.73 60.07 16.95 60.37 17.1 60.75 L18.08 63.15 C18.22
									 63.52 18.67 63.75 19.12 63.6 L21.98 62.4 C22.35 62.25 22.57 61.8 22.42 61.35 L21.45 58.95 C21.3
									 58.57 21.23 58.2 21.3 58.12 C21.38 58.05 21.68 57.82 22.05 57.52 L23.47 56.1 C23.77 55.8 24
									 55.42 24.07 55.35 C24.15 55.27 24.45 55.35 24.9 55.5 L27.3 56.47 C27.67 56.62 28.12 56.47 28.35
									 56.02 L29.55 53.17 C29.47 52.95 29.33 52.5 28.95 52.35 ZM14.78 56.7 C10.5 56.7 7.05 53.25 7.05
									 48.97 C7.05 44.7 10.5 41.25 14.78 41.25 C19.05 41.25 22.5 44.7 22.5 48.97 C22.5 53.25 19.05
									 56.7 14.78 56.7 Z" class="st3"/>
					</g>
				</g>
				<g id="group576-12" transform="translate(24.75,-39)" v:mID="576" v:groupContext="group">
					<title>Sheet.576</title>
					<g id="shape577-13" v:mID="577" v:groupContext="shape">
						<title>Sheet.577</title>
						<path d="M11.63 63.75 C5.25 63.75 0 58.5 0 52.12 C0 45.75 5.25 40.5 11.63 40.5 C18 40.5 23.25 45.75 23.25
									 52.12 C23.25 58.5 18 63.75 11.63 63.75 Z" class="st1"/>
					</g>
					<g id="shape578-15" v:mID="578" v:groupContext="shape" transform="translate(2.25,-2.25)">
						<title>Sheet.578</title>
						<ellipse cx="9.375" cy="54.375" rx="9.375" ry="9.375" class="st3"/>
					</g>
					<g id="shape579-17" v:mID="579" v:groupContext="shape" transform="translate(8.925,-7.5)">
						<title>Sheet.579</title>
						<path d="M4.05 54.07 L4.05 63.75 L1.95 63.75 L1.95 56.4 C1.8 56.47 1.73 56.62 1.58 56.7 C1.43 56.77 1.28
									 56.85 1.05 56.92 C0.83 57 0.68 57.07 0.53 57.07 C0.38 57.07 0.15 57.15 0 57.15 L0 55.5 C0.53
									 55.35 1.05 55.12 1.5 54.9 C1.95 54.67 2.4 54.37 2.78 54.07 L4.05 54.07 Z" class="st1"/>
					</g>
				</g>
			</g>
		</g>
	</g>
</svg>
