<?xml version="1.0" encoding="UTF-8" standalone="no"?>
<!DOCTYPE svg PUBLIC "-//W3C//DTD SVG 1.1//EN" "http://www.w3.org/Graphics/SVG/1.1/DTD/svg11.dtd">
<!-- Generated by Microsoft Visio, SVG Export Queue Viewer.svg Page-1 -->
<svg xmlns="http://www.w3.org/2000/svg" xmlns:xlink="http://www.w3.org/1999/xlink" xmlns:ev="http://www.w3.org/2001/xml-events"
		xmlns:v="http://schemas.microsoft.com/visio/2003/SVGExtensions/" width="0.90625in" height="0.875in" viewBox="0 0 65.25 63"
		xml:space="preserve" color-interpolation-filters="sRGB" class="st5">
	<v:documentProperties v:langID="4108" v:metric="true" v:viewMarkup="false"/>

	<style type="text/css">
	<![CDATA[
		.st1 {fill:#ffffff;stroke:none;stroke-linecap:butt;stroke-width:0.75}
		.st2 {fill:#525352;stroke:none;stroke-linecap:butt;stroke-width:0.75}
		.st3 {fill:#515150;stroke:none;stroke-linecap:butt;stroke-width:0.75}
		.st4 {fill:#515050;stroke:none;stroke-linecap:butt;stroke-width:0.75}
		.st5 {fill:none;fill-rule:evenodd;font-size:12px;overflow:visible;stroke-linecap:square;stroke-miterlimit:3}
	]]>
	</style>

	<g v:mID="0" v:index="1" v:groupContext="foregroundPage">
		<title>Page-1</title>
		<v:pageProperties v:drawingScale="0.0393701" v:pageScale="0.0393701" v:drawingUnits="24" v:shadowOffsetX="8.50394"
				v:shadowOffsetY="-8.50394"/>
		<g id="group580-1" transform="translate(0.75,-0.75)" v:mID="580" v:groupContext="group">
			<title>Queue Viewer</title>
			<g id="group581-2" transform="translate(-3.19744E-13,-6.75)" v:mID="581" v:groupContext="group">
				<title>Sheet.581</title>
				<g id="group582-3" transform="translate(9,-13.5)" v:mID="582" v:groupContext="group">
					<title>Sheet.582</title>
					<g id="shape583-4" v:mID="583" v:groupContext="shape">
						<title>Sheet.583</title>
						<rect x="0" y="21.75" width="51.75" height="41.25" class="st1"/>
					</g>
					<g id="shape584-6" v:mID="584" v:groupContext="shape" transform="translate(2.25,-2.25)">
						<title>Sheet.584</title>
						<path d="M45 28.5 L45 60.75 L2.25 60.75 L2.25 28.5 L45 28.5 ZM47.25 26.25 L0 26.25 L0 63 L47.25 63 L47.25
									 26.25 Z" class="st2"/>
					</g>
				</g>
				<g id="group585-8" transform="translate(4.5,-6.75)" v:mID="585" v:groupContext="group">
					<title>Sheet.585</title>
					<g id="shape586-9" v:mID="586" v:groupContext="shape">
						<title>Sheet.586</title>
						<rect x="0" y="21.75" width="51.75" height="41.25" class="st1"/>
					</g>
					<g id="shape587-11" v:mID="587" v:groupContext="shape" transform="translate(2.25,-2.25)">
						<title>Sheet.587</title>
						<path d="M45 28.5 L45 60.75 L2.25 60.75 L2.25 28.5 L45 28.5 ZM47.25 26.25 L0 26.25 L0 63 L47.25 63 L47.25
									 26.25 Z" class="st2"/>
					</g>
				</g>
				<g id="group588-13" v:mID="588" v:groupContext="group">
					<title>Sheet.588</title>
					<g id="shape589-14" v:mID="589" v:groupContext="shape">
						<title>Sheet.589</title>
						<rect x="0" y="21.75" width="51.75" height="41.25" class="st1"/>
					</g>
					<g id="shape590-16" v:mID="590" v:groupContext="shape" transform="translate(38.25,-27)">
						<title>Sheet.590</title>
						<rect x="0" y="56.25" width="6" height="6.75" class="st3"/>
					</g>
					<g id="shape591-18" v:mID="591" v:groupContext="shape" transform="translate(11.25,-18)">
						<title>Sheet.591</title>
						<rect x="0" y="60.75" width="21" height="2.25" class="st3"/>
					</g>
					<g id="shape592-20" v:mID="592" v:groupContext="shape" transform="translate(11.25,-12)">
						<title>Sheet.592</title>
						<rect x="0" y="60.75" width="25.5" height="2.25" class="st3"/>
					</g>
					<g id="shape593-22" v:mID="593" v:groupContext="shape" transform="translate(2.25,-2.25)">
						<title>Sheet.593</title>
						<path d="M45 28.5 L45 60.75 L2.25 60.75 L2.25 28.5 L45 28.5 ZM47.25 26.25 L0 26.25 L0 63 L47.25 63 L47.25
									 26.25 Z" class="st2"/>
					</g>
				</g>
			</g>
			<g id="group594-24" transform="translate(30.15,-3.05533E-13)" v:mID="594" v:groupContext="group">
				<title>Sheet.594</title>
				<g id="shape595-25" v:mID="595" v:groupContext="shape">
					<title>Sheet.595</title>
					<path d="M16.8 63 C7.58 63 0 55.5 0 46.2 C0 36.9 7.5 29.4 16.8 29.4 C26.1 29.48 33.6 36.98 33.6 46.2 C33.6 55.43
								 26.1 63 16.8 63 Z" class="st1"/>
				</g>
				<g id="group596-27" transform="translate(5.325,-8.4)" v:mID="596" v:groupContext="group">
					<title>Sheet.596</title>
					<g id="shape597-28" v:mID="597" v:groupContext="shape" transform="translate(21.525,-13.5)">
						<title>Sheet.597</title>
						<path d="M0 59.85 L0 60.75 L0 63 L1.95 63 C1.43 61.88 0.82 60.75 0 59.85 Z" class="st4"/>
					</g>
					<g id="shape598-30" v:mID="598" v:groupContext="shape">
						<title>Sheet.598</title>
						<path d="M14.77 42 C14.02 41.78 13.28 41.7 12.52 41.63 L12.52 60.75 L0 60.75 C0.45 61.58 0.97 62.33 1.5 63
									 L14.77 63 L14.77 42 Z" class="st4"/>
					</g>
					<g id="shape599-32" v:mID="599" v:groupContext="shape" transform="translate(17.025,-6.75)">
						<title>Sheet.599</title>
						<path d="M0 49.58 L0 60.75 L0 63 L2.25 63 L2.25 50.93 C1.57 50.4 0.82 49.95 0 49.58 Z" class="st4"/>
					</g>
				</g>
				<g id="shape600-34" v:mID="600" v:groupContext="shape" transform="translate(5.175,-5.175)">
					<title>Sheet.600</title>
					<path d="M11.63 41.25 C17.18 41.25 21.75 45.83 21.75 51.38 C21.75 56.93 17.18 61.5 11.63 61.5 C6.08 61.5 1.5
								 56.93 1.5 51.38 C1.5 45.83 6.08 41.25 11.63 41.25 ZM11.63 39.75 C5.25 39.75 0 45 0 51.38 C0 57.75
								 5.25 63 11.63 63 C18 63 23.25 57.75 23.25 51.38 C23.25 45 18.08 39.75 11.63 39.75 Z" class="st1"/>
				</g>
				<g id="shape601-36" v:mID="601" v:groupContext="shape" transform="translate(2.25,-2.25)">
					<title>Sheet.601</title>
					<path d="M14.55 33.98 C6.52 33.98 0 40.5 0 48.53 C0 56.55 6.52 63 14.55 63 C22.58 63 29.1 56.48 29.1 48.45 C29.1
								 40.43 22.58 33.98 14.55 33.98 ZM14.55 59.85 C8.25 59.85 3.15 54.75 3.15 48.45 C3.15 42.15 8.25 37.05
								 14.55 37.05 C20.85 37.05 25.95 42.15 25.95 48.45 C25.95 54.75 20.85 59.85 14.55 59.85 Z"
							class="st3"/>
				</g>
			</g>
		</g>
	</g>
</svg>
