<?xml version="1.0" encoding="UTF-8" standalone="no"?>
<!DOCTYPE svg PUBLIC "-//W3C//DTD SVG 1.1//EN" "http://www.w3.org/Graphics/SVG/1.1/DTD/svg11.dtd">
<!-- Generated by Microsoft Visio, SVG Export Remote Move Request.svg Page-1 -->
<svg xmlns="http://www.w3.org/2000/svg" xmlns:xlink="http://www.w3.org/1999/xlink" xmlns:ev="http://www.w3.org/2001/xml-events"
		xmlns:v="http://schemas.microsoft.com/visio/2003/SVGExtensions/" width="0.90625in" height="0.875in" viewBox="0 0 65.25 63"
		xml:space="preserve" color-interpolation-filters="sRGB" class="st3">
	<v:documentProperties v:langID="4108" v:metric="true" v:viewMarkup="false"/>

	<style type="text/css">
	<![CDATA[
		.st1 {fill:#ffffff;stroke:none;stroke-linecap:butt;stroke-width:0.75}
		.st2 {fill:#515150;stroke:none;stroke-linecap:butt;stroke-width:0.75}
		.st3 {fill:none;fill-rule:evenodd;font-size:12px;overflow:visible;stroke-linecap:square;stroke-miterlimit:3}
	]]>
	</style>

	<g v:mID="0" v:index="1" v:groupContext="foregroundPage">
		<title>Page-1</title>
		<v:pageProperties v:drawingScale="0.0393701" v:pageScale="0.0393701" v:drawingUnits="24" v:shadowOffsetX="8.50394"
				v:shadowOffsetY="-8.50394"/>
		<g id="group632-1" transform="translate(0.75,-0.75)" v:mID="632" v:groupContext="group">
			<title>Remote Move Request</title>
			<g id="group633-2" transform="translate(-1.07914E-13,-8.25)" v:mID="633" v:groupContext="group">
				<title>Sheet.633</title>
				<g id="group634-3" v:mID="634" v:groupContext="group">
					<title>Sheet.634</title>
					<g id="shape635-4" v:mID="635" v:groupContext="shape">
						<title>Sheet.635</title>
						<path d="M0 48 L0 63 L57 63 L57 48 L57 45.45 L56.55 43.5 L52.8 27.83 L51.75 27.83 L51.75 15.75 L50.25 15.75
									 L50.25 9.75 L6.75 9.75 L6.75 15.75 L5.25 15.75 L5.25 27.83 L4.2 27.83 L0.45 43.5 L0 45.45 L0
									 48 Z" class="st1"/>
					</g>
					<g id="group636-6" transform="translate(15,-21.75)" v:mID="636" v:groupContext="group">
						<title>Sheet.636</title>
						<g id="shape637-7" v:mID="637" v:groupContext="shape" transform="translate(23.25,-11.25)">
							<title>Sheet.637</title>
							<rect x="0" y="56.25" width="6" height="6.75" class="st2"/>
						</g>
						<g id="shape638-9" v:mID="638" v:groupContext="shape" transform="translate(-4.29656E-14,-5.25)">
							<title>Sheet.638</title>
							<rect x="0" y="60.75" width="15.75" height="2.25" class="st2"/>
						</g>
						<g id="shape639-11" v:mID="639" v:groupContext="shape">
							<title>Sheet.639</title>
							<rect x="0" y="60.75" width="20.25" height="2.25" class="st2"/>
						</g>
					</g>
					<g id="shape640-13" v:mID="640" v:groupContext="shape" transform="translate(9,-47.25)">
						<title>Sheet.640</title>
						<path d="M0 59.25 L0 63 L2.25 63 L2.25 61.5 L36.75 61.5 L36.75 63 L39 63 L39 59.25 L0 59.25 Z" class="st2"/>
					</g>
				</g>
				<g id="shape641-15" v:mID="641" v:groupContext="shape" transform="translate(2.25,-2.25)">
					<title>Sheet.641</title>
					<path d="M48.75 32.33 L47.25 32.33 L47.25 20.25 L5.25 20.25 L5.25 32.33 L3.75 32.33 L0 48 L0 63 L52.5 63 L52.5
								 48 L48.75 32.33 ZM45 32.33 L45 48 L7.5 48 L7.5 32.33 L7.5 22.5 L45 22.5 L45 32.33 Z" class="st2"/>
				</g>
			</g>
			<g id="group642-17" transform="translate(30.75,-1.5)" v:mID="642" v:groupContext="group">
				<title>Sheet.642</title>
				<g id="shape643-18" v:mID="643" v:groupContext="shape">
					<title>Sheet.643</title>
					<ellipse cx="16.5" cy="46.5" rx="16.5" ry="16.5" class="st1"/>
				</g>
				<g id="group644-20" transform="translate(2.325,-2.325)" v:mID="644" v:groupContext="group">
					<title>Sheet.644</title>
					<g id="shape645-21" v:mID="645" v:groupContext="shape" transform="translate(15.075,-14.625)">
						<title>Sheet.645</title>
						<path d="M5.63 55.8 C3.9 56.33 1.95 56.63 0 56.7 L0 63 C2.4 62.93 4.73 62.63 6.83 62.03 C6.6 59.78 6.23 57.68
									 5.63 55.8 Z" class="st2"/>
					</g>
					<g id="shape646-23" v:mID="646" v:groupContext="shape" transform="translate(4.725,-23.775)">
						<title>Sheet.646</title>
						<path d="M4.5 59.25 C2.85 59.85 1.35 60.83 0 61.95 C0.68 62.33 1.43 62.7 2.18 63 C2.85 61.58 3.6 60.3 4.5
									 59.25 Z" class="st2"/>
					</g>
					<g id="shape647-25" v:mID="647" v:groupContext="shape" transform="translate(8.4,-22.35)">
						<title>Sheet.647</title>
						<path d="M0 62.18 C1.58 62.63 3.3 62.93 5.1 63 L5.1 57 C4.87 57 4.72 57 4.5 57 C2.7 57.6 1.12 59.48 0 62.18
									 Z" class="st2"/>
					</g>
					<g id="shape648-27" v:mID="648" v:groupContext="shape" transform="translate(6.75,-14.625)">
						<title>Sheet.648</title>
						<path d="M0 62.03 C2.1 62.63 4.43 62.93 6.83 63 L6.83 56.7 C4.88 56.63 2.93 56.33 1.2 55.8 C0.45 57.68 0.08
									 59.78 0 62.03 Z" class="st2"/>
					</g>
					<g id="shape649-29" v:mID="649" v:groupContext="shape" transform="translate(22.65,-8.4)">
						<title>Sheet.649</title>
						<path d="M0.68 57.08 C0.68 59.18 0.45 61.2 0 63 C2.03 62.25 3.9 61.28 5.48 60.08 C5.7 59.1 5.78 58.13 5.78
									 57.15 C5.78 56.25 5.7 55.35 5.55 54.53 C4.13 55.5 2.48 56.25 0.6 56.85 C0.68 57 0.68 57 0.68
									 57.08 Z" class="st2"/>
					</g>
					<g id="shape650-31" v:mID="650" v:groupContext="shape" transform="translate(-1.18405E-13,-8.25)">
						<title>Sheet.650</title>
						<path d="M5.18 56.93 C5.18 56.85 5.18 56.78 5.18 56.7 C3.38 56.1 1.65 55.28 0.23 54.38 C0.07 55.2 0 56.1
									 0 57 C0 58.2 0.15 59.33 0.45 60.38 C2.1 61.5 3.9 62.4 5.85 63 C5.4 61.2 5.18 59.18 5.18 56.93
									 Z" class="st2"/>
					</g>
					<g id="shape651-33" v:mID="651" v:groupContext="shape" transform="translate(0.675,-16.05)">
						<title>Sheet.651</title>
						<path d="M3 55.35 C1.65 56.85 0.6 58.65 0 60.68 C1.28 61.65 2.85 62.4 4.58 63 C4.73 60.75 5.1 58.58 5.78
									 56.78 C4.73 56.33 3.83 55.88 3 55.35 Z" class="st2"/>
					</g>
					<g id="shape652-35" v:mID="652" v:groupContext="shape" transform="translate(14.925,-22.425)">
						<title>Sheet.652</title>
						<path d="M0.07 63 C1.87 62.93 3.6 62.63 5.17 62.18 C4.05 59.55 2.4 57.6 0.6 57 C0.37 57 0.22 57 0 57 L0 63
									 L0.07 63 Z" class="st2"/>
					</g>
					<g id="shape653-37" v:mID="653" v:groupContext="shape" transform="translate(1.2,-0.825)">
						<title>Sheet.653</title>
						<path d="M5.18 57.38 C3.3 56.85 1.58 56.1 0 55.2 C1.58 58.8 4.58 61.65 8.33 63 C6.98 61.65 5.93 59.7 5.18
									 57.38 Z" class="st2"/>
					</g>
					<g id="shape654-39" v:mID="654" v:groupContext="shape" transform="translate(19.275,-23.7)">
						<title>Sheet.654</title>
						<path d="M0 59.18 C0.9 60.23 1.65 61.5 2.25 63 C3 62.7 3.75 62.33 4.43 61.95 C3.23 60.75 1.73 59.78 0 59.18
									 Z" class="st2"/>
					</g>
					<g id="shape655-41" v:mID="655" v:groupContext="shape" transform="translate(22.125,-16.05)">
						<title>Sheet.655</title>
						<path d="M5.78 60.68 C5.18 58.65 4.13 56.85 2.78 55.35 C1.95 55.88 1.05 56.33 0 56.78 C0.6 58.65 1.05 60.75
									 1.2 63 C2.93 62.4 4.43 61.58 5.78 60.68 Z" class="st2"/>
					</g>
					<g id="shape656-43" v:mID="656" v:groupContext="shape" transform="translate(19.05,-0.825)">
						<title>Sheet.656</title>
						<path d="M3.15 57.23 C2.4 59.63 1.35 61.58 0 63 C3.82 61.65 6.9 58.65 8.4 54.83 C6.83 55.88 5.1 56.63 3.15
									 57.23 Z" class="st2"/>
					</g>
					<g id="shape657-45" v:mID="657" v:groupContext="shape" transform="translate(8.1,1.20792E-13)">
						<title>Sheet.657</title>
						<path d="M5.4 63 L5.4 57.68 C3.53 57.68 1.73 57.45 0 57.08 C1.28 60.3 3.23 62.55 5.4 63 Z" class="st2"/>
					</g>
					<g id="shape658-47" v:mID="658" v:groupContext="shape" transform="translate(15,-6.825)">
						<title>Sheet.658</title>
						<path d="M6.83 55.8 C4.73 56.33 2.4 56.7 0 56.78 L0 63 C2.03 62.93 4.05 62.63 6 62.1 C6.53 60.15 6.83 57.98
									 6.83 55.8 Z" class="st2"/>
					</g>
					<g id="shape659-49" v:mID="659" v:groupContext="shape" transform="translate(6.675,-6.9)">
						<title>Sheet.659</title>
						<path d="M6.83 63 L6.83 56.78 C4.43 56.7 2.1 56.4 0 55.8 C0 58.13 0.38 60.3 0.9 62.18 C2.78 62.7 4.8 63 6.83
									 63 Z" class="st2"/>
					</g>
					<g id="shape660-51" v:mID="660" v:groupContext="shape" transform="translate(15,-0.075)">
						<title>Sheet.660</title>
						<path d="M0 57.68 L0 63 C2.18 62.55 4.2 60.23 5.4 56.93 C3.68 57.38 1.88 57.6 0 57.68 Z" class="st2"/>
					</g>
				</g>
			</g>
			<g id="group661-53" transform="translate(6,1.7053E-13)" v:mID="661" v:groupContext="group">
				<title>Sheet.661</title>
				<g id="shape662-54" v:mID="662" v:groupContext="shape">
					<title>Sheet.662</title>
					<path d="M21.75 40.5 L12.75 40.5 L12.75 43.5 L16.13 47.25 L0 47.25 L0 56.25 L16.13 56.25 L12.75 60 L12.75 63
								 L21.75 63 L33 51.75 L21.75 40.5 Z" class="st1"/>
				</g>
				<g id="shape663-56" v:mID="663" v:groupContext="shape" transform="translate(2.25,-2.25)">
					<title>Sheet.663</title>
					<path d="M19.35 51.75 L12.75 45 L18 45 L27.6 54 L18.75 63 L12.75 63 L19.35 56.25 L0 56.25 L0 51.75 L19.35 51.75
								 Z" class="st2"/>
				</g>
			</g>
		</g>
	</g>
</svg>
