<?xml version="1.0" encoding="UTF-8" standalone="no"?>
<!DOCTYPE svg PUBLIC "-//W3C//DTD SVG 1.1//EN" "http://www.w3.org/Graphics/SVG/1.1/DTD/svg11.dtd">
<!-- Generated by Microsoft Visio, SVG Export Remote Mailbox.svg Page-1 -->
<svg xmlns="http://www.w3.org/2000/svg" xmlns:xlink="http://www.w3.org/1999/xlink" xmlns:ev="http://www.w3.org/2001/xml-events"
		xmlns:v="http://schemas.microsoft.com/visio/2003/SVGExtensions/" width="0.895833in" height="0.864583in"
		viewBox="0 0 64.5 62.25" xml:space="preserve" color-interpolation-filters="sRGB" class="st3">
	<v:documentProperties v:langID="4108" v:metric="true" v:viewMarkup="false"/>

	<style type="text/css">
	<![CDATA[
		.st1 {fill:#ffffff;stroke:none;stroke-linecap:butt;stroke-width:0.75}
		.st2 {fill:#515150;stroke:none;stroke-linecap:butt;stroke-width:0.75}
		.st3 {fill:none;fill-rule:evenodd;font-size:12px;overflow:visible;stroke-linecap:square;stroke-miterlimit:3}
	]]>
	</style>

	<g v:mID="0" v:index="1" v:groupContext="foregroundPage">
		<title>Page-1</title>
		<v:pageProperties v:drawingScale="0.0393701" v:pageScale="0.0393701" v:drawingUnits="24" v:shadowOffsetX="8.50394"
				v:shadowOffsetY="-8.50394"/>
		<g id="group602-1" transform="translate(0.75,-0.75)" v:mID="602" v:groupContext="group">
			<title>Remote Mailbox</title>
			<g id="group603-2" v:mID="603" v:groupContext="group">
				<title>Sheet.603</title>
				<g id="group604-3" transform="translate(-1.43885E-13,-7.5)" v:mID="604" v:groupContext="group">
					<title>Sheet.604</title>
					<g id="group605-4" v:mID="605" v:groupContext="group">
						<title>Sheet.605</title>
						<g id="shape606-5" v:mID="606" v:groupContext="shape">
							<title>Sheet.606</title>
							<path d="M0 47.25 L0 62.25 L57 62.25 L57 47.25 L57 44.7 L56.55 42.75 L52.8 27.08 L51.75 27.08 L51.75
										 15 L50.25 15 L50.25 9 L6.75 9 L6.75 15 L5.25 15 L5.25 27.08 L4.2 27.08 L0.45 42.75 L0 44.7
										 L0 47.25 Z" class="st1"/>
						</g>
						<g id="group607-7" transform="translate(15,-21.75)" v:mID="607" v:groupContext="group">
							<title>Sheet.607</title>
							<g id="shape608-8" v:mID="608" v:groupContext="shape" transform="translate(23.25,-11.25)">
								<title>Sheet.608</title>
								<rect x="0" y="55.5" width="6" height="6.75" class="st2"/>
							</g>
							<g id="shape609-10" v:mID="609" v:groupContext="shape" transform="translate(-4.996E-14,-5.25)">
								<title>Sheet.609</title>
								<rect x="0" y="60" width="15.75" height="2.25" class="st2"/>
							</g>
							<g id="shape610-12" v:mID="610" v:groupContext="shape">
								<title>Sheet.610</title>
								<rect x="0" y="60" width="20.25" height="2.25" class="st2"/>
							</g>
						</g>
						<g id="shape611-14" v:mID="611" v:groupContext="shape" transform="translate(9,-47.25)">
							<title>Sheet.611</title>
							<path d="M0 58.5 L0 62.25 L2.25 62.25 L2.25 60.75 L36.75 60.75 L36.75 62.25 L39 62.25 L39 58.5 L0 58.5
										 Z" class="st2"/>
						</g>
					</g>
					<g id="shape612-16" v:mID="612" v:groupContext="shape" transform="translate(2.25,-2.25)">
						<title>Sheet.612</title>
						<path d="M48.75 31.58 L47.25 31.58 L47.25 19.5 L5.25 19.5 L5.25 31.58 L3.75 31.58 L0 47.25 L0 62.25 L52.5
									 62.25 L52.5 47.25 L48.75 31.58 ZM45 31.58 L45 47.25 L7.5 47.25 L7.5 31.58 L7.5 21.75 L45 21.75
									 L45 31.58 Z" class="st2"/>
					</g>
				</g>
				<g id="group613-18" transform="translate(30,3.05533E-13)" v:mID="613" v:groupContext="group">
					<title>Sheet.613</title>
					<g id="shape614-19" v:mID="614" v:groupContext="shape">
						<title>Sheet.614</title>
						<ellipse cx="16.5" cy="45.75" rx="16.5" ry="16.5" class="st1"/>
					</g>
					<g id="group615-21" transform="translate(2.325,-2.325)" v:mID="615" v:groupContext="group">
						<title>Sheet.615</title>
						<g id="shape616-22" v:mID="616" v:groupContext="shape" transform="translate(15.075,-14.625)">
							<title>Sheet.616</title>
							<path d="M5.63 55.05 C3.9 55.58 1.95 55.88 0 55.95 L0 62.25 C2.4 62.18 4.73 61.88 6.83 61.28 C6.6 59.03
										 6.23 56.93 5.63 55.05 Z" class="st2"/>
						</g>
						<g id="shape617-24" v:mID="617" v:groupContext="shape" transform="translate(4.725,-23.775)">
							<title>Sheet.617</title>
							<path d="M4.5 58.5 C2.85 59.1 1.35 60.08 0 61.2 C0.68 61.58 1.43 61.95 2.18 62.25 C2.85 60.83 3.6 59.55
										 4.5 58.5 Z" class="st2"/>
						</g>
						<g id="shape618-26" v:mID="618" v:groupContext="shape" transform="translate(8.4,-22.35)">
							<title>Sheet.618</title>
							<path d="M0 61.43 C1.57 61.88 3.3 62.18 5.1 62.25 L5.1 56.25 C4.87 56.25 4.72 56.25 4.5 56.25 C2.7 56.85
										 1.12 58.73 0 61.43 Z" class="st2"/>
						</g>
						<g id="shape619-28" v:mID="619" v:groupContext="shape" transform="translate(6.75,-14.625)">
							<title>Sheet.619</title>
							<path d="M0 61.28 C2.1 61.88 4.43 62.18 6.83 62.25 L6.83 55.95 C4.88 55.88 2.93 55.58 1.2 55.05 C0.45
										 56.93 0.07 59.03 0 61.28 Z" class="st2"/>
						</g>
						<g id="shape620-30" v:mID="620" v:groupContext="shape" transform="translate(22.65,-8.4)">
							<title>Sheet.620</title>
							<path d="M0.68 56.33 C0.68 58.43 0.45 60.45 0 62.25 C2.03 61.5 3.9 60.53 5.48 59.33 C5.7 58.35 5.78 57.38
										 5.78 56.4 C5.78 55.5 5.7 54.6 5.55 53.78 C4.13 54.75 2.48 55.5 0.6 56.1 C0.68 56.25 0.68
										 56.25 0.68 56.33 Z" class="st2"/>
						</g>
						<g id="shape621-32" v:mID="621" v:groupContext="shape" transform="translate(-1.43385E-13,-8.25)">
							<title>Sheet.621</title>
							<path d="M5.17 56.18 C5.17 56.1 5.17 56.03 5.17 55.95 C3.38 55.35 1.65 54.53 0.22 53.63 C0.07 54.45 0
										 55.35 0 56.25 C0 57.45 0.15 58.58 0.45 59.63 C2.1 60.75 3.9 61.65 5.85 62.25 C5.4 60.45
										 5.17 58.42 5.17 56.18 Z" class="st2"/>
						</g>
						<g id="shape622-34" v:mID="622" v:groupContext="shape" transform="translate(0.675,-16.05)">
							<title>Sheet.622</title>
							<path d="M3 54.6 C1.65 56.1 0.6 57.9 0 59.93 C1.27 60.9 2.85 61.65 4.58 62.25 C4.73 60 5.1 57.83 5.78
										 56.03 C4.73 55.58 3.82 55.13 3 54.6 Z" class="st2"/>
						</g>
						<g id="shape623-36" v:mID="623" v:groupContext="shape" transform="translate(14.925,-22.425)">
							<title>Sheet.623</title>
							<path d="M0.07 62.25 C1.87 62.18 3.6 61.88 5.17 61.43 C4.05 58.8 2.4 56.85 0.6 56.25 C0.37 56.25 0.22
										 56.25 0 56.25 L0 62.25 L0.07 62.25 Z" class="st2"/>
						</g>
						<g id="shape624-38" v:mID="624" v:groupContext="shape" transform="translate(1.2,-0.825)">
							<title>Sheet.624</title>
							<path d="M5.17 56.62 C3.3 56.1 1.58 55.35 0 54.45 C1.58 58.05 4.58 60.9 8.33 62.25 C6.98 60.9 5.92 58.95
										 5.17 56.62 Z" class="st2"/>
						</g>
						<g id="shape625-40" v:mID="625" v:groupContext="shape" transform="translate(19.275,-23.7)">
							<title>Sheet.625</title>
							<path d="M0 58.43 C0.9 59.48 1.65 60.75 2.25 62.25 C3 61.95 3.75 61.58 4.43 61.2 C3.23 60 1.73 59.03
										 0 58.43 Z" class="st2"/>
						</g>
						<g id="shape626-42" v:mID="626" v:groupContext="shape" transform="translate(22.125,-16.05)">
							<title>Sheet.626</title>
							<path d="M5.78 59.93 C5.18 57.9 4.13 56.1 2.78 54.6 C1.95 55.13 1.05 55.58 0 56.03 C0.6 57.9 1.05 60
										 1.2 62.25 C2.93 61.65 4.43 60.83 5.78 59.93 Z" class="st2"/>
						</g>
						<g id="shape627-44" v:mID="627" v:groupContext="shape" transform="translate(19.05,-0.825)">
							<title>Sheet.627</title>
							<path d="M3.15 56.47 C2.4 58.87 1.35 60.82 0 62.25 C3.82 60.9 6.9 57.9 8.4 54.07 C6.82 55.12 5.1 55.87
										 3.15 56.47 Z" class="st2"/>
						</g>
						<g id="shape628-46" v:mID="628" v:groupContext="shape" transform="translate(8.1,1.27898E-13)">
							<title>Sheet.628</title>
							<path d="M5.4 62.25 L5.4 56.92 C3.53 56.92 1.73 56.7 0 56.32 C1.28 59.55 3.23 61.8 5.4 62.25 Z"
									class="st2"/>
						</g>
						<g id="shape629-48" v:mID="629" v:groupContext="shape" transform="translate(15,-6.825)">
							<title>Sheet.629</title>
							<path d="M6.83 55.05 C4.73 55.58 2.4 55.95 0 56.03 L0 62.25 C2.03 62.18 4.05 61.88 6 61.35 C6.53 59.4
										 6.83 57.23 6.83 55.05 Z" class="st2"/>
						</g>
						<g id="shape630-50" v:mID="630" v:groupContext="shape" transform="translate(6.675,-6.9)">
							<title>Sheet.630</title>
							<path d="M6.83 62.25 L6.83 56.03 C4.43 55.95 2.1 55.65 0 55.05 C0 57.38 0.38 59.55 0.9 61.43 C2.78 61.95
										 4.8 62.25 6.83 62.25 Z" class="st2"/>
						</g>
						<g id="shape631-52" v:mID="631" v:groupContext="shape" transform="translate(15,-0.075)">
							<title>Sheet.631</title>
							<path d="M0 56.93 L0 62.25 C2.18 61.8 4.2 59.48 5.4 56.18 C3.68 56.63 1.88 56.85 0 56.93 Z" class="st2"/>
						</g>
					</g>
				</g>
			</g>
		</g>
	</g>
</svg>
