<?xml version="1.0" encoding="UTF-8" standalone="no"?>
<!DOCTYPE svg PUBLIC "-//W3C//DTD SVG 1.1//EN" "http://www.w3.org/Graphics/SVG/1.1/DTD/svg11.dtd">
<!-- Generated by Microsoft Visio, SVG Export Response Group Service.svg Page-1 -->
<svg xmlns="http://www.w3.org/2000/svg" xmlns:xlink="http://www.w3.org/1999/xlink" xmlns:ev="http://www.w3.org/2001/xml-events"
		xmlns:v="http://schemas.microsoft.com/visio/2003/SVGExtensions/" width="0.886458in" height="0.822917in"
		viewBox="0 0 63.825 59.25" xml:space="preserve" color-interpolation-filters="sRGB" class="st5">
	<v:documentProperties v:langID="4108" v:metric="true" v:viewMarkup="false"/>

	<style type="text/css">
	<![CDATA[
		.st1 {fill:#ffffff}
		.st2 {stroke:none;stroke-linecap:butt;stroke-width:0.75}
		.st3 {fill:#515251;stroke:none;stroke-linecap:butt;stroke-width:0.75}
		.st4 {fill:#ffffff;stroke:none;stroke-linecap:butt;stroke-width:0.75}
		.st5 {fill:none;fill-rule:evenodd;font-size:12px;overflow:visible;stroke-linecap:square;stroke-miterlimit:3}
	]]>
	</style>

	<g v:mID="0" v:index="1" v:groupContext="foregroundPage">
		<title>Page-1</title>
		<v:pageProperties v:drawingScale="0.0393701" v:pageScale="0.0393701" v:drawingUnits="24" v:shadowOffsetX="8.50394"
				v:shadowOffsetY="-8.50394"/>
		<g id="group676-1" transform="translate(0.75,-0.75)" v:mID="676" v:groupContext="group">
			<title>Response Group Service</title>
			<g id="group677-2" transform="translate(1.23901E-13,-11.25)" v:mID="677" v:groupContext="group">
				<title>Sheet.677</title>
				<g id="shape678-3" v:mID="678" v:groupContext="shape">
					<title>Sheet.678</title>
					<path d="M0 53.7 C0.15 56.25 1.65 58.05 4.05 58.73 C5.25 59.1 6.3 59.25 7.43 59.25 C8.63 59.25 9.83 59.1 11.03
								 58.73 C12.15 58.43 13.12 57.83 13.8 57 C14.78 58.35 16.28 59.18 18.08 59.18 L48.08 59.18 C51 59.18
								 53.33 56.85 53.33 53.93 L53.33 18 C53.33 15.08 51 12.75 48.08 12.75 L18.08 12.75 C16.35 12.75 14.78
								 13.58 13.8 14.93 C13.12 14.17 12.22 13.58 11.1 13.2 C9.9 12.83 9.23 12.75 7.58 12.75 C5.85 12.75
								 5.25 12.83 3.98 13.2 C1.58 13.95 0.15 15.68 0 18.15 L0 53.7 Z" class="st1"/>
					<path d="M0 53.7 C0.15 56.25 1.65 58.05 4.05 58.73 C5.25 59.1 6.3 59.25 7.43 59.25 C8.63 59.25 9.83 59.1 11.03
								 58.73 C12.15 58.43 13.12 57.83 13.8 57 C14.78 58.35 16.28 59.18 18.08 59.18 L48.08 59.18 C51 59.18
								 53.33 56.85 53.33 53.93 L53.33 18 C53.33 15.08 51 12.75 48.08 12.75 L18.08 12.75 C16.35 12.75 14.78
								 13.58 13.8 14.93 C13.12 14.17 12.22 13.58 11.1 13.2 C9.9 12.83 9.23 12.75 7.58 12.75 C5.85 12.75
								 5.25 12.83 3.98 13.2 C1.58 13.95 0.15 15.68 0 18.15" class="st2"/>
				</g>
				<g id="shape679-6" v:mID="679" v:groupContext="shape" transform="translate(0.075,-10.275)">
					<title>Sheet.679</title>
					<path d="M0 32.25 C0.07 34.88 0.22 39.23 0.22 46.73 C0.22 52.73 0.07 56.7 0 59.25 L0 32.25 Z" class="st1"/>
					<path d="M0 32.25 C0.07 34.88 0.22 39.23 0.22 46.73 C0.22 52.73 0.07 56.7 0 59.25" class="st2"/>
				</g>
				<g id="shape680-9" v:mID="680" v:groupContext="shape" transform="translate(2.1,-2.25)">
					<title>Sheet.680</title>
					<path d="M10.73 20.63 C10.58 18.98 9.75 18.08 8.33 17.63 C7.43 17.33 6.98 17.25 5.48 17.25 C3.9 17.25 3.52 17.33
								 2.55 17.63 C1.13 18.08 0.23 18.98 0.15 20.63 C-0 22.43 0.45 26.1 0.45 38.78 C0.45 49.5 0 53.4 0.15
								 55.88 C0.23 57.53 1.13 58.5 2.55 58.88 C3.45 59.1 4.35 59.25 5.33 59.25 C6.3 59.25 7.35 59.1 8.33
								 58.88 C9.75 58.5 10.65 57.53 10.73 55.88 C10.88 53.4 10.5 49.73 10.5 39 C10.5 26.33 10.88 22.43
								 10.73 20.63 Z" class="st3"/>
				</g>
				<g id="shape681-11" v:mID="681" v:groupContext="shape" transform="translate(15.075,-2.25)">
					<title>Sheet.681</title>
					<path d="M33 17.25 L3 17.25 C1.35 17.25 0 18.6 0 20.25 L0 56.25 C0 57.9 1.35 59.25 3 59.25 L33 59.25 C34.65 59.25
								 36 57.9 36 56.25 L36 20.25 C36 18.6 34.65 17.25 33 17.25 ZM12.75 49.5 C12.75 49.95 12.45 50.25 12
								 50.25 L8.25 50.25 C7.8 50.25 7.5 49.95 7.5 49.5 L7.5 48 C7.5 47.55 7.8 47.25 8.25 47.25 L12 47.25
								 C12.45 47.25 12.75 47.55 12.75 48 L12.75 49.5 ZM12.75 44.25 C12.75 44.7 12.45 45 12 45 L8.25 45
								 C7.8 45 7.5 44.7 7.5 44.25 L7.5 42.75 C7.5 42.3 7.8 42 8.25 42 L12 42 C12.45 42 12.75 42.3 12.75
								 42.75 L12.75 44.25 ZM12.75 39 C12.75 39.45 12.45 39.75 12 39.75 L8.25 39.75 C7.8 39.75 7.5 39.45
								 7.5 39 L7.5 37.5 C7.5 37.05 7.8 36.75 8.25 36.75 L12 36.75 C12.45 36.75 12.75 37.05 12.75 37.5 L12.75
								 39 ZM20.25 44.25 C20.25 44.7 19.95 45 19.5 45 L15.75 45 C15.3 45 15 44.7 15 44.25 L15 42.75 C15
								 42.3 15.3 42 15.75 42 L19.5 42 C19.95 42 20.25 42.3 20.25 42.75 L20.25 44.25 ZM20.25 39 C20.25 39.45
								 19.95 39.75 19.5 39.75 L15.75 39.75 C15.3 39.75 15 39.45 15 39 L15 37.5 C15 37.05 15.3 36.75 15.75
								 36.75 L19.5 36.75 C19.95 36.75 20.25 37.05 20.25 37.5 L20.25 39 ZM27.75 44.25 C27.75 44.7 27.45
								 45 27 45 L23.25 45 C22.8 45 22.5 44.7 22.5 44.25 L22.5 42.75 C22.5 42.3 22.8 42 23.25 42 L27 42
								 C27.45 42 27.75 42.3 27.75 42.75 L27.75 44.25 ZM27.75 39 C27.75 39.45 27.45 39.75 27 39.75 L23.25
								 39.75 C22.8 39.75 22.5 39.45 22.5 39 L22.5 37.5 C22.5 37.05 22.8 36.75 23.25 36.75 L27 36.75 C27.45
								 36.75 27.75 37.05 27.75 37.5 L27.75 39 ZM30 30.75 C30 31.2 29.7 31.5 29.25 31.5 L6.75 31.5 C6.3
								 31.5 6 31.2 6 30.75 L6 22.5 C6 22.05 6.3 21.75 6.75 21.75 L29.25 21.75 C29.7 21.75 30 22.05 30 22.5
								 L30 30.75 Z" class="st3"/>
				</g>
			</g>
			<g id="group682-13" transform="translate(23.025,-2.41585E-13)" v:mID="682" v:groupContext="group">
				<title>Sheet.682</title>
				<g id="shape683-14" v:mID="683" v:groupContext="shape">
					<title>Sheet.683</title>
					<path d="M24 54.45 L39.3 54.45 L39.15 52.05 C39.08 50.48 38.63 47.1 38.33 45.53 C37.88 43.58 37.2 42.08 35.25
								 41.03 L34.65 40.65 C34.13 40.35 33.68 40.13 33.23 39.9 C33.83 38.78 34.2 37.5 34.2 36.15 C34.2 31.95
								 31.05 28.58 27.15 28.58 C23.25 28.58 20.1 31.95 20.1 36.15 C20.1 37.5 20.47 38.78 21.08 39.9 C20.62
								 40.05 20.17 40.35 19.65 40.65 L19.35 40.8 C19.35 36.68 16.2 33.3 12.3 33.3 C8.4 33.3 5.25 36.68
								 5.25 40.88 C5.25 42.23 5.63 43.5 6.23 44.63 C5.78 44.78 5.33 45.08 4.8 45.38 L4.28 45.68 C2.32 46.8
								 1.65 48.3 1.2 50.18 C0.83 51.75 0.45 55.05 0.37 56.7 L0 59.25 L24.38 59.25 L24.23 56.85 C24.23 56.25
								 24.15 55.43 24 54.45 Z" class="st4"/>
				</g>
				<g id="shape684-16" v:mID="684" v:groupContext="shape" transform="translate(22.275,-17.775)">
					<title>Sheet.684</title>
					<path d="M4.8 59.25 C2.18 59.25 0 56.85 0 53.93 C0 51 2.18 48.6 4.8 48.6 C7.43 48.6 9.6 51 9.6 53.93 C9.6 56.85
								 7.43 59.25 4.8 59.25 Z" class="st3"/>
				</g>
				<g id="shape685-18" v:mID="685" v:groupContext="shape" transform="translate(18,-6.9)">
					<title>Sheet.685</title>
					<path d="M1.2 53.18 C1.43 53.25 1.58 53.4 1.8 53.55 C3.53 54.53 4.05 55.73 4.5 57.53 C4.57 57.98 4.73 58.58 4.8
								 59.25 L18.9 59.25 C18.83 57.68 18.45 54.53 18.08 53.1 C17.7 51.53 17.25 50.7 16.05 50.03 C14.85
								 49.35 14.18 48.9 13.73 48.9 C13.5 48.9 13.35 48.98 13.2 49.05 C12.9 49.35 12.6 49.58 12.23 49.8
								 C12.23 49.8 12.23 49.8 12.23 49.8 C12.15 49.8 12.08 49.88 12.08 49.88 C11.7 50.1 11.4 50.25 11.03
								 50.33 C10.43 50.55 9.75 50.7 9 50.7 C8.33 50.7 7.65 50.55 6.98 50.33 C6.6 50.25 6.3 50.1 5.93 49.88
								 C5.55 49.65 5.17 49.35 4.8 49.05 C4.65 48.98 4.5 48.9 4.28 48.9 C3.82 48.9 3.38 49.2 1.95 50.03
								 C0.83 50.63 0.38 51.38 0 52.73 C0.53 52.73 0.83 52.88 1.2 53.18 Z" class="st3"/>
				</g>
				<g id="shape686-20" v:mID="686" v:groupContext="shape" transform="translate(2.25,-2.25)">
					<title>Sheet.686</title>
					<path d="M18.98 53.1 C18.6 51.53 18.15 50.7 16.95 50.03 C15.75 49.35 15.08 48.9 14.63 48.9 C14.4 48.9 14.25 48.98
								 14.1 49.05 C13.8 49.35 13.5 49.58 13.13 49.8 C13.13 49.8 13.13 49.8 13.13 49.8 C13.05 49.8 12.98
								 49.88 12.98 49.88 C12.6 50.1 12.3 50.25 11.93 50.33 C11.33 50.55 10.65 50.7 9.9 50.7 C9.23 50.7
								 8.55 50.55 7.88 50.33 C7.5 50.25 7.2 50.1 6.83 49.88 C6.45 49.65 6.08 49.35 5.7 49.05 C5.55 48.98
								 5.4 48.9 5.18 48.9 C4.73 48.9 4.28 49.2 2.85 50.03 C1.65 50.7 1.2 51.45 0.83 53.1 C0.52 54.53 0.15
								 57.75 0 59.25 L19.58 59.25 C19.65 57.68 19.28 54.53 18.98 53.1 Z" class="st3"/>
				</g>
				<g id="shape687-22" v:mID="687" v:groupContext="shape" transform="translate(7.425,-12.975)">
					<title>Sheet.687</title>
					<path d="M4.8 59.25 C2.18 59.25 0 56.85 0 53.93 C0 51 2.18 48.6 4.8 48.6 C7.43 48.6 9.6 51 9.6 53.93 C9.6 56.85
								 7.43 59.25 4.8 59.25 Z" class="st3"/>
				</g>
			</g>
		</g>
	</g>
</svg>
