<?xml version="1.0" encoding="UTF-8" standalone="no"?>
<!DOCTYPE svg PUBLIC "-//W3C//DTD SVG 1.1//EN" "http://www.w3.org/Graphics/SVG/1.1/DTD/svg11.dtd">
<!-- Generated by Microsoft Visio, SVG Export Room Mailbox.svg Page-1 -->
<svg xmlns="http://www.w3.org/2000/svg" xmlns:xlink="http://www.w3.org/1999/xlink" xmlns:ev="http://www.w3.org/2001/xml-events"
		xmlns:v="http://schemas.microsoft.com/visio/2003/SVGExtensions/" width="0.90625in" height="0.875in" viewBox="0 0 65.25 63"
		xml:space="preserve" color-interpolation-filters="sRGB" class="st5">
	<v:documentProperties v:langID="4108" v:metric="true" v:viewMarkup="false"/>

	<style type="text/css">
	<![CDATA[
		.st1 {fill:#ffffff;stroke:none;stroke-linecap:butt;stroke-width:0.75}
		.st2 {fill:#515150;stroke:none;stroke-linecap:butt;stroke-width:0.75}
		.st3 {fill:#515050;stroke:none;stroke-linecap:butt;stroke-width:0.75}
		.st4 {fill:#525352;stroke:none;stroke-linecap:butt;stroke-width:0.75}
		.st5 {fill:none;fill-rule:evenodd;font-size:12px;overflow:visible;stroke-linecap:square;stroke-miterlimit:3}
	]]>
	</style>

	<g v:mID="0" v:index="1" v:groupContext="foregroundPage">
		<title>Page-1</title>
		<v:pageProperties v:drawingScale="0.0393701" v:pageScale="0.0393701" v:drawingUnits="24" v:shadowOffsetX="8.50394"
				v:shadowOffsetY="-8.50394"/>
		<g id="group688-1" transform="translate(0.75,-0.75)" v:mID="688" v:groupContext="group">
			<title>Room Mailbox</title>
			<g id="group689-2" transform="translate(-1.07914E-13,-8.25)" v:mID="689" v:groupContext="group">
				<title>Sheet.689</title>
				<g id="group690-3" v:mID="690" v:groupContext="group">
					<title>Sheet.690</title>
					<g id="shape691-4" v:mID="691" v:groupContext="shape">
						<title>Sheet.691</title>
						<path d="M0 48 L0 63 L57 63 L57 48 L57 45.45 L56.55 43.5 L52.8 27.83 L51.75 27.83 L51.75 15.75 L50.25 15.75
									 L50.25 9.75 L6.75 9.75 L6.75 15.75 L5.25 15.75 L5.25 27.83 L4.2 27.83 L0.45 43.5 L0 45.45 L0
									 48 Z" class="st1"/>
					</g>
					<g id="group692-6" transform="translate(15,-21.75)" v:mID="692" v:groupContext="group">
						<title>Sheet.692</title>
						<g id="shape693-7" v:mID="693" v:groupContext="shape" transform="translate(23.25,-11.25)">
							<title>Sheet.693</title>
							<rect x="0" y="56.25" width="6" height="6.75" class="st2"/>
						</g>
						<g id="shape694-9" v:mID="694" v:groupContext="shape" transform="translate(-4.29656E-14,-5.25)">
							<title>Sheet.694</title>
							<rect x="0" y="60.75" width="15.75" height="2.25" class="st2"/>
						</g>
						<g id="shape695-11" v:mID="695" v:groupContext="shape">
							<title>Sheet.695</title>
							<rect x="0" y="60.75" width="20.25" height="2.25" class="st2"/>
						</g>
					</g>
					<g id="shape696-13" v:mID="696" v:groupContext="shape" transform="translate(9,-47.25)">
						<title>Sheet.696</title>
						<path d="M0 59.25 L0 63 L2.25 63 L2.25 61.5 L36.75 61.5 L36.75 63 L39 63 L39 59.25 L0 59.25 Z" class="st2"/>
					</g>
				</g>
				<g id="shape697-15" v:mID="697" v:groupContext="shape" transform="translate(2.25,-2.25)">
					<title>Sheet.697</title>
					<path d="M48.75 32.33 L47.25 32.33 L47.25 20.25 L5.25 20.25 L5.25 32.33 L3.75 32.33 L0 48 L0 63 L52.5 63 L52.5
								 48 L48.75 32.33 ZM45 32.33 L45 48 L7.5 48 L7.5 32.33 L7.5 22.5 L45 22.5 L45 32.33 Z" class="st2"/>
				</g>
			</g>
			<g id="shape698-17" v:mID="698" v:groupContext="shape" transform="translate(28.5,1.42109E-14)">
				<title>Sheet.698</title>
				<rect x="0" y="33" width="35.25" height="30" class="st1"/>
			</g>
			<g id="group699-19" transform="translate(30.75,-2.25)" v:mID="699" v:groupContext="group">
				<title>Sheet.699</title>
				<g id="shape700-20" v:mID="700" v:groupContext="shape" transform="translate(0.75,-0.75)">
					<title>Sheet.700</title>
					<rect x="0" y="39" width="29.25" height="24" class="st1"/>
				</g>
				<g id="shape701-22" v:mID="701" v:groupContext="shape">
					<title>Sheet.701</title>
					<path d="M29.25 39 L29.25 61.5 L1.5 61.5 L1.5 39 L29.25 39 ZM30.75 37.5 L0 37.5 L0 63 L30.75 63 L30.75 37.5 Z"
							class="st3"/>
				</g>
			</g>
			<g id="group702-24" transform="translate(32.325,-5.55)" v:mID="702" v:groupContext="group">
				<title>Sheet.702</title>
				<g id="group703-25" v:mID="703" v:groupContext="group">
					<title>Sheet.703</title>
					<g id="shape704-26" v:mID="704" v:groupContext="shape" transform="translate(8.325,-7.425)">
						<title>Sheet.704</title>
						<path d="M0 63 L0.08 61.73 C0.15 60.98 0.3 59.55 0.45 58.8 C0.68 57.9 0.98 57.23 1.88 56.7 L2.1 56.55 C2.63
									 56.25 3 56.03 3.45 56.03 C3.75 56.03 3.97 56.1 4.2 56.25 L4.35 56.33 L4.43 56.4 C4.5 56.48 4.65
									 56.55 4.73 56.63 C4.8 56.7 4.88 56.7 4.95 56.7 C5.18 56.78 5.33 56.78 5.48 56.78 C5.63 56.78
									 5.78 56.78 5.93 56.7 L6.3 56.55 C6.38 56.48 6.45 56.48 6.53 56.4 L6.6 56.33 L6.75 56.25 C6.98
									 56.1 7.28 56.03 7.5 56.03 C7.95 56.03 8.33 56.25 8.85 56.55 L9.15 56.7 C10.05 57.23 10.43 57.9
									 10.58 58.8 C10.73 59.48 10.88 60.98 10.95 61.73 L11.03 63 L0 63 Z" class="st1"/>
					</g>
					<g id="shape705-28" v:mID="705" v:groupContext="shape" transform="translate(10.575,-12.15)">
						<title>Sheet.705</title>
						<path d="M3.3 63 C1.5 63 0 61.43 0 59.48 C0 57.53 1.5 55.95 3.3 55.95 C5.1 55.95 6.6 57.53 6.6 59.48 C6.6
									 61.43 5.1 63 3.3 63 Z" class="st1"/>
					</g>
					<g id="shape706-30" v:mID="706" v:groupContext="shape" transform="translate(-4.59632E-14,-2.475)">
						<title>Sheet.706</title>
						<path d="M0 63 L0.07 61.65 C0.15 60.9 0.3 59.33 0.45 58.58 C0.67 57.68 0.97 56.93 1.95 56.33 L2.17 56.18
									 C2.78 55.88 3.08 55.65 3.6 55.65 C3.9 55.65 4.2 55.73 4.42 55.88 L4.57 55.95 L4.72 56.03 C4.8
									 56.1 4.95 56.18 5.02 56.25 C5.1 56.33 5.17 56.33 5.25 56.33 C5.47 56.4 5.62 56.4 5.77 56.4 C5.92
									 56.4 6.07 56.4 6.3 56.33 L6.67 56.18 C6.75 56.1 6.82 56.1 6.9 56.03 L7.05 55.95 L7.2 55.88 C7.42
									 55.73 7.72 55.65 8.02 55.65 C8.55 55.65 8.92 55.88 9.45 56.18 L9.75 56.33 C10.72 56.85 11.1
									 57.6 11.32 58.58 C11.47 59.33 11.7 60.83 11.7 61.65 L11.77 63 L0 63 Z" class="st1"/>
					</g>
					<g id="shape707-32" v:mID="707" v:groupContext="shape" transform="translate(2.4,-7.5)">
						<title>Sheet.707</title>
						<path d="M3.45 63 C1.58 63 0 61.35 0 59.33 C0 57.3 1.58 55.65 3.45 55.65 C5.33 55.65 6.9 57.3 6.9 59.33 C6.9
									 61.35 5.4 63 3.45 63 Z" class="st1"/>
					</g>
					<g id="shape708-34" v:mID="708" v:groupContext="shape" transform="translate(15.975,-2.475)">
						<title>Sheet.708</title>
						<path d="M0 63 L0.07 61.65 C0.15 60.9 0.3 59.33 0.45 58.58 C0.67 57.68 0.97 56.93 1.95 56.33 L2.17 56.18
									 C2.78 55.88 3.08 55.65 3.6 55.65 C3.9 55.65 4.2 55.73 4.42 55.88 L4.57 55.95 L4.72 56.03 C4.8
									 56.1 4.95 56.18 5.02 56.25 C5.1 56.33 5.17 56.33 5.25 56.33 C5.47 56.4 5.62 56.4 5.77 56.4 C5.92
									 56.4 6.07 56.4 6.3 56.33 L6.67 56.18 C6.75 56.1 6.82 56.1 6.9 56.03 L7.05 55.95 L7.2 55.88 C7.42
									 55.73 7.72 55.65 8.02 55.65 C8.55 55.65 8.92 55.88 9.45 56.18 L9.75 56.33 C10.72 56.85 11.1
									 57.6 11.32 58.58 C11.47 59.33 11.7 60.83 11.7 61.65 L11.77 63 L0 63 Z" class="st1"/>
					</g>
					<g id="shape709-36" v:mID="709" v:groupContext="shape" transform="translate(18.375,-7.5)">
						<title>Sheet.709</title>
						<path d="M3.45 63 C1.58 63 0 61.35 0 59.33 C0 57.3 1.58 55.65 3.45 55.65 C5.33 55.65 6.9 57.3 6.9 59.33 C6.9
									 61.35 5.33 63 3.45 63 Z" class="st1"/>
					</g>
					<g id="shape710-38" v:mID="710" v:groupContext="shape" transform="translate(3.15,-7.10543E-15)">
						<title>Sheet.710</title>
						<path d="M20.18 63 L1.5 63 C1.05 63 0.6 62.78 0.37 62.4 C0.07 62.03 -0 61.5 0.15 61.05 L0.23 60.9 L5.33 53.85
									 C5.55 53.33 6.08 52.95 6.68 52.95 L14.78 52.95 C15.3 52.95 15.82 53.25 16.05 53.78 L21.45 60.98
									 C21.68 61.43 21.6 61.95 21.3 62.4 C21.08 62.78 20.63 63 20.18 63 ZM1.12 61.43 C1.12 61.58 1.12
									 61.65 1.2 61.8 C1.28 61.88 1.35 61.95 1.5 61.95 L20.18 61.95 C20.33 61.95 20.4 61.88 20.47 61.8
									 C20.55 61.73 20.55 61.58 20.55 61.43 L15.15 54.23 C15.08 54.08 14.92 54 14.78 54 L6.6 54 C6.45
									 54 6.3 54.08 6.23 54.3 L6.15 54.45 L1.12 61.43 Z" class="st1"/>
					</g>
				</g>
				<g id="shape711-40" v:mID="711" v:groupContext="shape" transform="translate(9.375,-8.625)">
					<title>Sheet.711</title>
					<path d="M8.48 60.3 C8.33 59.63 8.1 59.25 7.58 58.95 C7.05 58.65 6.75 58.43 6.53 58.43 C6.45 58.43 6.38 58.43
								 6.3 58.5 C6.15 58.65 6 58.73 5.85 58.8 C5.85 58.8 5.85 58.8 5.85 58.8 C5.85 58.8 5.78 58.8 5.78
								 58.88 C5.63 58.95 5.48 59.03 5.33 59.1 C5.03 59.18 4.73 59.25 4.43 59.25 C4.13 59.25 3.83 59.18
								 3.53 59.1 C3.38 59.03 3.23 59.03 3.08 58.88 C2.93 58.8 2.7 58.65 2.55 58.5 C2.48 58.5 2.4 58.43
								 2.33 58.43 C2.1 58.43 1.95 58.58 1.28 58.95 C0.75 59.25 0.53 59.63 0.38 60.3 C0.22 60.9 0.08 62.33
								 0 63 L8.63 63 C8.78 62.33 8.63 60.9 8.48 60.3 Z" class="st4"/>
				</g>
				<g id="shape712-42" v:mID="712" v:groupContext="shape" transform="translate(11.775,-13.35)">
					<title>Sheet.712</title>
					<path d="M2.1 63 C0.98 63 0 61.95 0 60.68 C0 59.4 0.98 58.35 2.1 58.35 C3.22 58.35 4.2 59.4 4.2 60.68 C4.2 61.95
								 3.3 63 2.1 63 Z" class="st4"/>
				</g>
				<g id="shape713-44" v:mID="713" v:groupContext="shape" transform="translate(1.575,-3.75)">
					<title>Sheet.713</title>
					<path d="M8.48 60.15 C8.33 59.4 8.1 59.03 7.58 58.73 C6.98 58.43 6.68 58.2 6.53 58.2 C6.45 58.2 6.38 58.2 6.3
								 58.28 C6.15 58.43 6 58.5 5.85 58.58 C5.85 58.58 5.85 58.58 5.85 58.58 C5.85 58.58 5.78 58.58 5.78
								 58.65 C5.63 58.73 5.48 58.8 5.33 58.88 C5.03 58.95 4.73 59.03 4.43 59.03 C4.12 59.03 3.83 58.95
								 3.53 58.88 C3.38 58.8 3.23 58.73 3.08 58.65 C2.85 58.58 2.7 58.43 2.55 58.28 C2.47 58.28 2.4 58.2
								 2.33 58.2 C2.1 58.2 1.88 58.35 1.28 58.73 C0.75 59.03 0.53 59.4 0.38 60.15 C0.22 60.83 0.08 62.33
								 0 63 L8.85 63 C8.78 62.33 8.63 60.83 8.48 60.15 Z" class="st4"/>
				</g>
				<g id="shape714-46" v:mID="714" v:groupContext="shape" transform="translate(3.6,-8.7)">
					<title>Sheet.714</title>
					<path d="M2.25 63 C1.05 63 0 61.88 0 60.53 C-0 59.18 0.98 58.05 2.25 58.05 C3.45 58.05 4.5 59.18 4.5 60.53 C4.5
								 61.88 3.52 63 2.25 63 Z" class="st4"/>
				</g>
				<g id="shape715-48" v:mID="715" v:groupContext="shape" transform="translate(17.55,-3.75)">
					<title>Sheet.715</title>
					<path d="M8.48 60.15 C8.33 59.4 8.1 59.03 7.58 58.73 C6.98 58.43 6.68 58.2 6.53 58.2 C6.45 58.2 6.38 58.2 6.3
								 58.28 C6.15 58.43 6 58.5 5.85 58.58 C5.85 58.58 5.85 58.58 5.85 58.58 C5.85 58.58 5.78 58.58 5.78
								 58.65 C5.63 58.73 5.48 58.8 5.33 58.88 C5.03 58.95 4.73 59.03 4.43 59.03 C4.13 59.03 3.83 58.95
								 3.53 58.88 C3.38 58.8 3.23 58.73 3.08 58.65 C2.85 58.58 2.7 58.43 2.55 58.28 C2.48 58.28 2.4 58.2
								 2.33 58.2 C2.1 58.2 1.88 58.35 1.28 58.73 C0.75 59.03 0.53 59.4 0.38 60.15 C0.23 60.83 0.07 62.33
								 0 63 L9.08 63 C8.78 62.33 8.63 60.83 8.48 60.15 Z" class="st4"/>
				</g>
				<g id="shape716-50" v:mID="716" v:groupContext="shape" transform="translate(19.575,-8.7)">
					<title>Sheet.716</title>
					<path d="M2.25 63 C1.05 63 0 61.88 0 60.53 C-0 59.18 0.98 58.05 2.25 58.05 C3.45 58.05 4.5 59.18 4.5 60.53 C4.5
								 61.88 3.45 63 2.25 63 Z" class="st4"/>
				</g>
				<g id="shape717-52" v:mID="717" v:groupContext="shape" transform="translate(3.6,-0.525)">
					<title>Sheet.717</title>
					<path d="M5.32 54.6 L0.22 61.73 C-0 62.33 0.45 63 1.05 63 L19.73 63 C20.4 63 20.85 62.33 20.55 61.65 L15.15 54.53
								 C15 54.15 14.7 53.93 14.33 53.93 L6.15 53.93 C5.78 54 5.4 54.23 5.32 54.6 Z" class="st3"/>
				</g>
				<g id="shape718-54" v:mID="718" v:groupContext="shape" transform="translate(3.15,-7.10543E-15)">
					<title>Sheet.718</title>
					<path d="M20.18 63 L1.5 63 C1.05 63 0.6 62.78 0.37 62.4 C0.07 62.03 -0 61.5 0.15 61.05 L0.23 60.9 L5.33 53.85
								 C5.55 53.33 6.08 52.95 6.68 52.95 L14.78 52.95 C15.3 52.95 15.82 53.25 16.05 53.78 L21.45 60.98
								 C21.68 61.43 21.6 61.95 21.3 62.4 C21.08 62.78 20.63 63 20.18 63 ZM1.12 61.43 C1.12 61.58 1.12 61.65
								 1.2 61.8 C1.28 61.88 1.35 61.95 1.5 61.95 L20.18 61.95 C20.33 61.95 20.4 61.88 20.47 61.8 C20.55
								 61.73 20.55 61.58 20.55 61.43 L15.15 54.23 C15.08 54.08 14.92 54 14.78 54 L6.6 54 C6.45 54 6.3 54.08
								 6.23 54.3 L6.15 54.45 L1.12 61.43 Z" class="st1"/>
				</g>
			</g>
		</g>
	</g>
</svg>
