<?xml version="1.0" encoding="UTF-8" standalone="no"?>
<!DOCTYPE svg PUBLIC "-//W3C//DTD SVG 1.1//EN" "http://www.w3.org/Graphics/SVG/1.1/DTD/svg11.dtd">
<!-- Generated by Microsoft Visio, SVG Export Shared Mailbox.svg Page-1 -->
<svg xmlns="http://www.w3.org/2000/svg" xmlns:xlink="http://www.w3.org/1999/xlink" xmlns:ev="http://www.w3.org/2001/xml-events"
		xmlns:v="http://schemas.microsoft.com/visio/2003/SVGExtensions/" width="0.90625in" height="0.84375in"
		viewBox="0 0 65.25 60.75" xml:space="preserve" color-interpolation-filters="sRGB" class="st5">
	<v:documentProperties v:langID="4108" v:metric="true" v:viewMarkup="false"/>

	<style type="text/css">
	<![CDATA[
		.st1 {fill:#ffffff}
		.st2 {stroke:none;stroke-linecap:butt;stroke-width:0.75}
		.st3 {fill:#515150;stroke:none;stroke-linecap:butt;stroke-width:0.75}
		.st4 {fill:#ffffff;stroke:none;stroke-linecap:butt;stroke-width:0.75}
		.st5 {fill:none;fill-rule:evenodd;font-size:12px;overflow:visible;stroke-linecap:square;stroke-miterlimit:3}
	]]>
	</style>

	<g v:mID="0" v:index="1" v:groupContext="foregroundPage">
		<title>Page-1</title>
		<v:pageProperties v:drawingScale="0.0393701" v:pageScale="0.0393701" v:drawingUnits="24" v:shadowOffsetX="8.50394"
				v:shadowOffsetY="-8.50394"/>
		<g id="group719-1" transform="translate(0.75,-0.75)" v:mID="719" v:groupContext="group">
			<title>Shared Mailbox</title>
			<g id="shape720-2" v:mID="720" v:groupContext="shape" transform="translate(-1.07914E-13,-6)">
				<title>Sheet.720</title>
				<path d="M0 60.75 L57 60.75 L57 45.75 L57 43.2 L56.55 41.25 L52.8 25.58 L51.75 25.58 L51.75 13.5 L50.25 13.5 L50.25
							 7.5 L6.75 7.5 L6.75 13.5 L5.25 13.5 L5.25 25.58 L4.2 25.58 L0.45 41.25 L0 60.75 Z" class="st1"/>
				<path d="M0 60.75 L57 60.75 L57 45.75 L57 43.2 L56.55 41.25 L52.8 25.58 L51.75 25.58 L51.75 13.5 L50.25 13.5 L50.25
							 7.5 L6.75 7.5 L6.75 13.5 L5.25 13.5 L5.25 25.58 L4.2 25.58 L0.45 41.25" class="st2"/>
			</g>
			<g id="group721-5" transform="translate(15,-27.75)" v:mID="721" v:groupContext="group">
				<title>Sheet.721</title>
				<g id="shape722-6" v:mID="722" v:groupContext="shape" transform="translate(23.25,-11.25)">
					<title>Sheet.722</title>
					<rect x="0" y="54" width="6" height="6.75" class="st3"/>
				</g>
				<g id="shape723-8" v:mID="723" v:groupContext="shape" transform="translate(-5.79536E-14,-5.25)">
					<title>Sheet.723</title>
					<rect x="0" y="58.5" width="15.75" height="2.25" class="st3"/>
				</g>
				<g id="shape724-10" v:mID="724" v:groupContext="shape">
					<title>Sheet.724</title>
					<rect x="0" y="58.5" width="20.25" height="2.25" class="st3"/>
				</g>
			</g>
			<g id="shape725-12" v:mID="725" v:groupContext="shape" transform="translate(9,-53.25)">
				<title>Sheet.725</title>
				<path d="M0 57 L0 60.75 L2.25 60.75 L2.25 59.25 L36.75 59.25 L36.75 60.75 L39 60.75 L39 57 L0 57 Z" class="st3"/>
			</g>
			<g id="shape726-14" v:mID="726" v:groupContext="shape" transform="translate(2.25,-8.25)">
				<title>Sheet.726</title>
				<path d="M48.75 30.08 L47.25 30.08 L47.25 18 L5.25 18 L5.25 30.08 L3.75 30.08 L0 45.75 L0 60.75 L52.5 60.75 L52.5
							 45.75 L48.75 30.08 ZM45 30.08 L45 45.75 L7.5 45.75 L7.5 30.08 L7.5 20.25 L45 20.25 L45 30.08 Z"
						class="st3"/>
			</g>
			<g id="group727-16" transform="translate(31.5,-1.63425E-13)" v:mID="727" v:groupContext="group">
				<title>Sheet.727</title>
				<g id="shape728-17" v:mID="728" v:groupContext="shape">
					<title>Sheet.728</title>
					<path d="M16.13 60.75 C7.2 60.75 0 53.55 0 44.63 C-0 35.7 7.2 28.5 16.13 28.5 C25.05 28.5 32.25 35.7 32.25 44.63
								 C32.25 53.55 25.05 60.75 16.13 60.75 Z" class="st4"/>
				</g>
				<g id="shape729-19" v:mID="729" v:groupContext="shape" transform="translate(2.25,-2.25)">
					<title>Sheet.729</title>
					<path d="M13.88 33 C6.22 33 0 39.23 0 46.88 C0 54.53 6.22 60.75 13.88 60.75 C21.53 60.75 27.75 54.53 27.75 46.88
								 C27.75 39.23 21.53 33 13.88 33 Z" class="st3"/>
				</g>
				<g id="group730-21" transform="translate(5.25,-6.375)" v:mID="730" v:groupContext="group">
					<title>Sheet.730</title>
					<g id="shape731-22" v:mID="731" v:groupContext="shape" transform="translate(3.375,-13.125)">
						<title>Sheet.731</title>
						<path d="M9 59.25 C10.05 60.3 11.78 60.3 12.83 59.25 C13.88 58.2 13.88 56.48 12.83 55.43 C11.78 54.38 10.05
									 54.38 9 55.43 C9 55.43 8.92 55.5 8.93 55.5 C8.55 55.43 8.18 55.43 7.73 55.43 C4.35 55.43 1.5
									 57.3 0 60.08 C0.68 60.15 1.28 60.38 1.8 60.75 C3 58.73 5.17 57.38 7.65 57.38 C7.8 57.38 7.95
									 57.38 8.1 57.38 C8.18 58.05 8.48 58.73 9 59.25 Z" class="st4"/>
					</g>
					<g id="shape732-24" v:mID="732" v:groupContext="shape" transform="translate(8.69305E-14,-0.975)">
						<title>Sheet.732</title>
						<path d="M10.2 58.73 C7.57 58.35 5.47 56.55 4.65 54.15 C4.73 54.08 4.8 54 4.87 53.93 C5.92 52.88 5.92 51.15
									 4.87 50.1 C3.82 49.05 2.1 49.05 1.05 50.1 C-0 51.15 0 52.88 1.05 53.93 C1.57 54.45 2.18 54.68
									 2.85 54.75 C3.98 58.13 7.05 60.53 10.65 60.75 C10.35 60.08 10.2 59.48 10.2 58.73 C10.2 58.73
									 10.2 58.73 10.2 58.73 Z" class="st4"/>
					</g>
					<g id="shape733-26" v:mID="733" v:groupContext="shape" transform="translate(11.325,1.20792E-13)">
						<title>Sheet.733</title>
						<path d="M8.55 51 C8.55 49.05 7.88 47.18 6.75 45.75 C6.52 46.28 6.23 46.73 5.85 47.1 C5.78 47.18 5.63 47.33
									 5.55 47.4 C6.23 48.45 6.6 49.73 6.6 51 C6.6 52.8 5.85 54.45 4.72 55.73 C3.68 54.83 2.1 54.9
									 1.05 55.88 C-0 56.93 -0 58.65 1.05 59.7 C2.1 60.75 3.82 60.75 4.87 59.7 C5.47 59.1 5.78 58.2
									 5.62 57.45 C7.43 55.88 8.55 53.55 8.55 51 Z" class="st4"/>
					</g>
				</g>
			</g>
		</g>
	</g>
</svg>
