<?xml version="1.0" encoding="UTF-8" standalone="no"?>
<!DOCTYPE svg PUBLIC "-//W3C//DTD SVG 1.1//EN" "http://www.w3.org/Graphics/SVG/1.1/DTD/svg11.dtd">
<!-- Generated by Microsoft Visio, SVG Export SIP URI UM Dial Plan.svg Page-1 -->
<svg xmlns="http://www.w3.org/2000/svg" xmlns:xlink="http://www.w3.org/1999/xlink" xmlns:ev="http://www.w3.org/2001/xml-events"
		xmlns:v="http://schemas.microsoft.com/visio/2003/SVGExtensions/" width="0.855208in" height="0.864583in"
		viewBox="0 0 61.575 62.25" xml:space="preserve" color-interpolation-filters="sRGB" class="st3">
	<v:documentProperties v:langID="4108" v:metric="true" v:viewMarkup="false"/>

	<style type="text/css">
	<![CDATA[
		.st1 {fill:#ffffff;stroke:none;stroke-linecap:butt;stroke-width:0.75}
		.st2 {fill:#515050;stroke:none;stroke-linecap:butt;stroke-width:0.75}
		.st3 {fill:none;fill-rule:evenodd;font-size:12px;overflow:visible;stroke-linecap:square;stroke-miterlimit:3}
	]]>
	</style>

	<g v:mID="0" v:index="1" v:groupContext="foregroundPage">
		<title>Page-1</title>
		<v:pageProperties v:drawingScale="0.0393701" v:pageScale="0.0393701" v:drawingUnits="24" v:shadowOffsetX="8.50394"
				v:shadowOffsetY="-8.50394"/>
		<g id="group734-1" transform="translate(0.75,-0.75)" v:mID="734" v:groupContext="group">
			<title>SIP URI UM Dial Plan</title>
			<g id="group735-2" transform="translate(0,-6)" v:mID="735" v:groupContext="group">
				<title>Sheet.735</title>
				<g id="shape736-3" v:mID="736" v:groupContext="shape">
					<title>Sheet.736</title>
					<path d="M0 62.25 L0 7.5 L30.9 7.5 L44.25 20.85 L44.25 62.25 L0 62.25 Z" class="st1"/>
				</g>
				<g id="shape737-5" v:mID="737" v:groupContext="shape" transform="translate(2.25,-2.25)">
					<title>Sheet.737</title>
					<path d="M39.75 62.25 L39.75 24 L27.75 12 L0 12 L0 62.25 L39.75 62.25 ZM2.25 60 L2.25 14.25 L26.25 14.25 L26.25
								 26.25 L37.5 26.25 L37.5 60 L2.25 60 Z" class="st2"/>
				</g>
				<g id="shape738-7" v:mID="738" v:groupContext="shape" transform="translate(14.25,-18.75)">
					<title>Sheet.738</title>
					<rect x="0" y="60" width="18.75" height="2.25" class="st2"/>
				</g>
				<g id="shape739-9" v:mID="739" v:groupContext="shape" transform="translate(14.25,-11.25)">
					<title>Sheet.739</title>
					<rect x="0" y="60" width="18.75" height="2.25" class="st2"/>
				</g>
			</g>
			<g id="shape740-11" v:mID="740" v:groupContext="shape" transform="translate(8.25,-24)">
				<title>Sheet.740</title>
				<ellipse cx="1.875" cy="60.375" rx="1.875" ry="1.875" class="st2"/>
			</g>
			<g id="shape741-13" v:mID="741" v:groupContext="shape" transform="translate(8.25,-16.5)">
				<title>Sheet.741</title>
				<ellipse cx="1.875" cy="60.375" rx="1.875" ry="1.875" class="st2"/>
			</g>
			<g id="group742-15" transform="translate(7.35,-31.875)" v:mID="742" v:groupContext="group">
				<title>Sheet.742</title>
				<g id="shape743-16" v:mID="743" v:groupContext="shape">
					<title>Sheet.743</title>
					<path d="M0.9 61.5 L0.9 59.85 C1.8 60.67 5.32 61.42 5.32 59.4 C5.32 58.42 4.12 58.05 3.37 57.67 C2.47 57.3 1.5
								 56.7 1.05 55.72 C-0 53.32 2.77 52.05 4.65 52.2 C5.02 52.2 6.52 52.35 6.52 52.65 C6.52 53.1 6.52
								 53.55 6.52 54.07 C5.62 53.4 2.85 52.95 2.55 54.52 C2.4 55.27 3.08 55.8 3.67 56.1 C4.5 56.47 5.32
								 56.85 6.07 57.52 C7.35 58.65 7.27 60.67 5.7 61.57 C4.42 62.25 2.1 62.25 0.9 61.5 Z" class="st2"/>
				</g>
				<g id="shape744-18" v:mID="744" v:groupContext="shape" transform="translate(8.625,-0.375)">
					<title>Sheet.744</title>
					<path d="M1.65 62.25 L0 62.25 L0 52.8 L1.65 52.8 L1.65 62.25 Z" class="st2"/>
				</g>
				<g id="shape745-20" v:mID="745" v:groupContext="shape" transform="translate(12.6,-0.375)">
					<title>Sheet.745</title>
					<path d="M1.57 58.8 L1.57 62.25 L0 62.25 L0 52.8 L2.85 52.8 C3.9 52.8 4.8 53.02 5.4 53.55 C6 54.07 6.3 54.75
								 6.3 55.72 C6.3 56.7 6 57.37 5.4 57.97 C4.8 58.57 3.9 58.87 2.85 58.87 L1.57 58.87 L1.57 58.8 ZM1.57
								 54.07 L1.57 57.52 L2.55 57.52 C3.22 57.52 3.75 57.37 4.05 57.07 C4.35 56.77 4.57 56.32 4.57 55.72
								 C4.57 54.6 3.9 54.07 2.62 54.07 L1.57 54.07 Z" class="st2"/>
				</g>
			</g>
			<g id="group746-22" transform="translate(26.475,0)" v:mID="746" v:groupContext="group">
				<title>Sheet.746</title>
				<g id="shape747-23" v:mID="747" v:groupContext="shape">
					<title>Sheet.747</title>
					<path d="M29.78 33 L11.78 33 C10.73 33 9.82 33.37 9.15 33.97 C8.77 33.67 8.33 33.45 7.8 33.3 C6.98 33.07 6.53
								 33 5.48 33 C4.43 33 3.9 33.07 3.08 33.3 C1.28 33.82 0.23 35.17 0.08 37.05 C-0 37.57 0.08 38.25 0.08
								 39.37 C0.15 40.95 0.23 43.5 0.23 47.92 C0.23 51.45 0.15 53.7 0.08 55.27 C-0 56.55 0 57.37 0.08 58.12
								 C0.15 60 1.35 61.42 3.15 61.95 C3.9 62.17 4.65 62.25 5.4 62.25 C6.23 62.25 6.98 62.17 7.8 61.95
								 C8.33 61.8 8.85 61.57 9.23 61.2 C9.9 61.8 10.8 62.17 11.85 62.17 L29.85 62.17 C32.03 62.17 33.6
								 60.6 33.6 58.42 L33.6 36.75 C33.53 34.57 31.95 33 29.78 33 Z" class="st1"/>
				</g>
				<g id="shape748-25" v:mID="748" v:groupContext="shape" transform="translate(2.1,-2.175)">
					<title>Sheet.748</title>
					<path d="M6.45 39.37 C6.38 38.4 5.85 37.87 5.03 37.57 C4.5 37.42 4.28 37.35 3.3 37.35 C2.4 37.35 2.18 37.42 1.58
								 37.57 C0.75 37.87 0.23 38.4 0.15 39.37 C0.07 40.42 0.3 42.6 0.3 50.1 C0.3 56.4 0 58.72 0.15 60.22
								 C0.23 61.2 0.75 61.72 1.58 62.02 C2.1 62.17 2.63 62.25 3.23 62.25 C3.83 62.25 4.43 62.17 4.95 62.02
								 C5.78 61.8 6.3 61.2 6.38 60.22 C6.45 58.72 6.23 56.62 6.23 50.25 C6.3 42.82 6.53 40.5 6.45 39.37
								 Z" class="st2"/>
				</g>
				<g id="shape749-27" v:mID="749" v:groupContext="shape" transform="translate(10.275,-2.25)">
					<title>Sheet.749</title>
					<path d="M19.5 37.5 L1.5 37.5 C0.53 37.5 0 38.02 0 39 L0 60.75 C-0 61.72 0.53 62.25 1.5 62.25 L19.5 62.25 C20.48
								 62.25 21 61.72 21 60.75 L21 39 C21 38.02 20.48 37.5 19.5 37.5 ZM7.5 57.75 C7.5 58.2 7.2 58.5 6.75
								 58.5 L5.25 58.5 C4.8 58.5 4.5 58.2 4.5 57.75 L4.5 57 C4.5 56.55 4.8 56.25 5.25 56.25 L6.75 56.25
								 C7.2 56.25 7.5 56.55 7.5 57 L7.5 57.75 ZM7.5 54 C7.5 54.45 7.2 54.75 6.75 54.75 L5.25 54.75 C4.8
								 54.75 4.5 54.45 4.5 54 L4.5 53.25 C4.5 52.8 4.8 52.5 5.25 52.5 L6.75 52.5 C7.2 52.5 7.5 52.8 7.5
								 53.25 L7.5 54 ZM7.5 50.25 C7.5 50.7 7.2 51 6.75 51 L5.25 51 C4.8 51 4.5 50.7 4.5 50.25 L4.5 49.5
								 C4.5 49.05 4.8 48.75 5.25 48.75 L6.75 48.75 C7.2 48.75 7.5 49.05 7.5 49.5 L7.5 50.25 ZM12 57.75
								 C12 58.2 11.7 58.5 11.25 58.5 L9.75 58.5 C9.3 58.5 9 58.2 9 57.75 L9 57 C9 56.55 9.3 56.25 9.75
								 56.25 L11.25 56.25 C11.7 56.25 12 56.55 12 57 L12 57.75 ZM12 54 C12 54.45 11.7 54.75 11.25 54.75
								 L9.75 54.75 C9.3 54.75 9 54.45 9 54 L9 53.25 C9 52.8 9.3 52.5 9.75 52.5 L11.25 52.5 C11.7 52.5 12
								 52.8 12 53.25 L12 54 ZM12 50.25 C12 50.7 11.7 51 11.25 51 L9.75 51 C9.3 51 9 50.7 9 50.25 L9 49.5
								 C9 49.05 9.3 48.75 9.75 48.75 L11.25 48.75 C11.7 48.75 12 49.05 12 49.5 L12 50.25 ZM16.5 57.75 C16.5
								 58.2 16.2 58.5 15.75 58.5 L14.25 58.5 C13.8 58.5 13.5 58.2 13.5 57.75 L13.5 57 C13.5 56.55 13.8
								 56.25 14.25 56.25 L15.75 56.25 C16.2 56.25 16.5 56.55 16.5 57 L16.5 57.75 ZM16.5 54 C16.5 54.45
								 16.2 54.75 15.75 54.75 L14.25 54.75 C13.8 54.75 13.5 54.45 13.5 54 L13.5 53.25 C13.5 52.8 13.8 52.5
								 14.25 52.5 L15.75 52.5 C16.2 52.5 16.5 52.8 16.5 53.25 L16.5 54 ZM16.5 50.25 C16.5 50.7 16.2 51
								 15.75 51 L14.25 51 C13.8 51 13.5 50.7 13.5 50.25 L13.5 49.5 C13.5 49.05 13.8 48.75 14.25 48.75 L15.75
								 48.75 C16.2 48.75 16.5 49.05 16.5 49.5 L16.5 50.25 ZM17.25 45.75 L3.75 45.75 L3.75 40.5 L17.25 40.5
								 L17.25 45.75 Z" class="st2"/>
				</g>
			</g>
		</g>
	</g>
</svg>
