<?xml version="1.0" encoding="UTF-8" standalone="no"?>
<!DOCTYPE svg PUBLIC "-//W3C//DTD SVG 1.1//EN" "http://www.w3.org/Graphics/SVG/1.1/DTD/svg11.dtd">
<!-- Generated by Microsoft Visio, SVG Export Site Mailbox.svg Page-1 -->
<svg xmlns="http://www.w3.org/2000/svg" xmlns:xlink="http://www.w3.org/1999/xlink" xmlns:ev="http://www.w3.org/2001/xml-events"
		xmlns:v="http://schemas.microsoft.com/visio/2003/SVGExtensions/" width="0.90625in" height="0.833333in"
		viewBox="0 0 65.25 60" xml:space="preserve" color-interpolation-filters="sRGB" class="st3">
	<v:documentProperties v:langID="4108" v:metric="true" v:viewMarkup="false"/>

	<style type="text/css">
	<![CDATA[
		.st1 {fill:#ffffff;stroke:none;stroke-linecap:butt;stroke-width:0.75}
		.st2 {fill:#515150;stroke:none;stroke-linecap:butt;stroke-width:0.75}
		.st3 {fill:none;fill-rule:evenodd;font-size:12px;overflow:visible;stroke-linecap:square;stroke-miterlimit:3}
	]]>
	</style>

	<g v:mID="0" v:index="1" v:groupContext="foregroundPage">
		<title>Page-1</title>
		<v:pageProperties v:drawingScale="0.0393701" v:pageScale="0.0393701" v:drawingUnits="24" v:shadowOffsetX="8.50394"
				v:shadowOffsetY="-8.50394"/>
		<g id="group750-1" transform="translate(0.75,-0.75)" v:mID="750" v:groupContext="group">
			<title>Site Mailbox</title>
			<g id="group751-2" transform="translate(2.59792E-13,-9)" v:mID="751" v:groupContext="group">
				<title>Sheet.751</title>
				<g id="shape752-3" v:mID="752" v:groupContext="shape">
					<title>Sheet.752</title>
					<path d="M48.75 10.5 L36.15 10.5 C33.98 10.5 32.85 11.62 31.8 12.6 L25.2 18.75 L5.25 18.75 C2.33 18.75 0 21.07
								 0 24 L0 60 L54 60 L54 21 L54 18.75 L54 15.75 C54 12.83 51.67 10.5 48.75 10.5 Z" class="st1"/>
				</g>
				<g id="shape753-5" v:mID="753" v:groupContext="shape" transform="translate(28.5,-41.25)">
					<title>Sheet.753</title>
					<path d="M23.25 60 L23.25 57 C23.25 55.35 21.9 54 20.25 54 L19.5 54 L13.28 54 L7.65 54 C6.38 54 5.77 54.6 4.88
								 55.5 L0 60 L23.25 60 Z" class="st2"/>
				</g>
				<g id="shape754-7" v:mID="754" v:groupContext="shape" transform="translate(2.25,-2.25)">
					<title>Sheet.754</title>
					<path d="M3 23.25 C1.35 23.25 0 24.6 0 26.25 L0 60 L49.5 60 L49.5 28.5 L49.5 26.25 L49.5 23.25 L3 23.25 Z"
							class="st2"/>
				</g>
			</g>
			<g id="group755-9" transform="translate(30,-2.55795E-13)" v:mID="755" v:groupContext="group">
				<title>Sheet.755</title>
				<g id="shape756-10" v:mID="756" v:groupContext="shape">
					<title>Sheet.756</title>
					<path d="M0 60 L0 49.2 L2.77 38.25 L3 38.25 L3 31.5 L3.75 31.5 L3.75 27.75 L30 27.75 L30 31.5 L30.75 31.5 L30.75
								 38.25 L30.97 38.25 L33.75 49.2 L33.75 60 L0 60 Z" class="st1"/>
				</g>
				<g id="shape757-12" v:mID="757" v:groupContext="shape" transform="translate(21.75,-18.75)">
					<title>Sheet.757</title>
					<rect x="0" y="55.5" width="3.75" height="4.5" class="st2"/>
				</g>
				<g id="shape758-14" v:mID="758" v:groupContext="shape" transform="translate(9.75,-15.75)">
					<title>Sheet.758</title>
					<rect x="0" y="58.5" width="9" height="1.5" class="st2"/>
				</g>
				<g id="shape759-16" v:mID="759" v:groupContext="shape" transform="translate(9.75,-12.75)">
					<title>Sheet.759</title>
					<rect x="0" y="58.5" width="11.25" height="1.5" class="st2"/>
				</g>
				<g id="shape760-18" v:mID="760" v:groupContext="shape" transform="translate(6,-27.75)">
					<title>Sheet.760</title>
					<path d="M0 57.75 L0 60 L1.5 60 L1.5 59.25 L20.25 59.25 L20.25 60 L21.75 60 L21.75 57.75 L0 57.75 Z"
							class="st2"/>
				</g>
				<g id="shape761-20" v:mID="761" v:groupContext="shape" transform="translate(2.25,-2.25)">
					<title>Sheet.761</title>
					<path d="M27 42.75 L26.25 42.75 L26.25 36 L21.75 36 L3 36 L3 42.75 L2.25 42.75 L0 51.75 L0 60 L29.25 60 L29.25
								 51.75 L27 42.75 ZM24.75 42.75 L24.75 51.75 L4.5 51.75 L4.5 42.75 L4.5 37.5 L24.75 37.5 L24.75 42.75
								 Z" class="st2"/>
				</g>
			</g>
		</g>
	</g>
</svg>
