<?xml version="1.0" encoding="UTF-8" standalone="no"?>
<!DOCTYPE svg PUBLIC "-//W3C//DTD SVG 1.1//EN" "http://www.w3.org/Graphics/SVG/1.1/DTD/svg11.dtd">
<!-- Generated by Microsoft Visio, SVG Export Skype for Business Phone Edition.svg Page-1 -->
<svg xmlns="http://www.w3.org/2000/svg" xmlns:xlink="http://www.w3.org/1999/xlink" xmlns:ev="http://www.w3.org/2001/xml-events"
		xmlns:v="http://schemas.microsoft.com/visio/2003/SVGExtensions/" width="1.3125in" height="0.90625in"
		viewBox="0 0 94.5 65.25" xml:space="preserve" color-interpolation-filters="sRGB" class="st4">
	<v:documentProperties v:langID="4108" v:metric="true" v:viewMarkup="false"/>

	<style type="text/css">
	<![CDATA[
		.st1 {fill:#ffffff;stroke:none;stroke-linecap:butt;stroke-width:0.75}
		.st2 {fill:#505050;stroke:none;stroke-linecap:butt;stroke-width:0.75}
		.st3 {fill:#00adeb;stroke:none;stroke-linecap:butt;stroke-width:0.75}
		.st4 {fill:none;fill-rule:evenodd;font-size:12px;overflow:visible;stroke-linecap:square;stroke-miterlimit:3}
	]]>
	</style>

	<g v:mID="0" v:index="1" v:groupContext="foregroundPage">
		<title>Page-1</title>
		<v:pageProperties v:drawingScale="0.0393701" v:pageScale="0.0393701" v:drawingUnits="24" v:shadowOffsetX="8.50394"
				v:shadowOffsetY="-8.50394"/>
		<v:layer v:name="symbols" v:index="0"/>
		<g id="group775-1" transform="translate(9.7125,-8.8125)" v:mID="775" v:groupContext="group" v:layerMember="0">
			<title>Skype for Business Phone Edition</title>
			<g id="group776-2" v:mID="776" v:groupContext="group" v:layerMember="0">
				<title>Sheet.776</title>
				<g id="shape777-3" v:mID="777" v:groupContext="shape" v:layerMember="0">
					<title>Sheet.777</title>
					<path d="M48.07 18.75 L18.07 18.75 C16.35 18.75 14.78 19.58 13.8 20.93 C13.12 20.18 12.22 19.58 11.1 19.2 C9.9
								 18.83 9.23 18.75 7.57 18.75 C5.92 18.75 5.25 18.83 4.05 19.2 C1.65 19.95 0.22 21.68 0.07 24.15 C-0
								 24.98 0.07 26.03 0.15 27.98 C0.22 30.6 0.37 34.95 0.37 42.45 C0.37 48.45 0.22 52.43 0.15 54.98 C0
								 57.15 0 58.5 0 59.7 C0.15 62.25 1.65 64.05 4.05 64.73 C5.25 65.1 6.3 65.25 7.42 65.25 C8.63 65.25
								 9.83 65.1 11.02 64.73 C12.15 64.42 13.12 63.82 13.8 63 C14.78 64.35 16.27 65.18 18.07 65.18 L48.07
								 65.18 C51 65.18 53.32 62.85 53.32 59.93 L53.32 24 C53.32 21.08 51 18.75 48.07 18.75 Z" class="st1"/>
				</g>
				<g id="shape778-5" v:mID="778" v:groupContext="shape" v:layerMember="0" transform="translate(2.25,-2.25)">
					<title>Sheet.778</title>
					<path d="M10.65 26.63 C10.5 24.98 9.67 24.08 8.25 23.63 C7.35 23.33 6.9 23.25 5.4 23.25 C3.83 23.25 3.45 23.33
								 2.55 23.63 C1.13 24.08 0.22 24.98 0.15 26.63 C-0 28.43 0.45 32.1 0.45 44.78 C0.45 55.5 0 59.4 0.15
								 61.88 C0.22 63.53 1.13 64.5 2.55 64.88 C3.37 65.1 4.27 65.25 5.25 65.25 C6.22 65.25 7.27 65.1 8.25
								 64.88 C9.67 64.5 10.57 63.53 10.65 61.88 C10.8 59.4 10.42 55.73 10.42 45 C10.42 32.33 10.8 28.43
								 10.65 26.63 Z" class="st2"/>
				</g>
				<g id="shape779-7" v:mID="779" v:groupContext="shape" v:layerMember="0" transform="translate(15.075,-2.25)">
					<title>Sheet.779</title>
					<path d="M33 23.25 L3 23.25 C1.35 23.25 0 24.6 0 26.25 L0 62.25 C0 63.9 1.35 65.25 3 65.25 L33 65.25 C34.65 65.25
								 35.92 63.9 35.92 62.25 L35.92 26.25 C35.92 24.6 34.65 23.25 33 23.25 ZM12.75 55.5 C12.75 55.95 12.45
								 56.25 12 56.25 L8.25 56.25 C7.8 56.25 7.5 55.95 7.5 55.5 L7.5 54 C7.5 53.55 7.8 53.25 8.25 53.25
								 L12 53.25 C12.45 53.25 12.75 53.55 12.75 54 L12.75 55.5 ZM12.75 50.25 C12.75 50.7 12.45 51 12 51
								 L8.25 51 C7.8 51 7.5 50.7 7.5 50.25 L7.5 48.75 C7.5 48.3 7.8 48 8.25 48 L12 48 C12.45 48 12.75 48.3
								 12.75 48.75 L12.75 50.25 ZM12.75 45 C12.75 45.45 12.45 45.75 12 45.75 L8.25 45.75 C7.8 45.75 7.5
								 45.45 7.5 45 L7.5 43.5 C7.5 43.05 7.8 42.75 8.25 42.75 L12 42.75 C12.45 42.75 12.75 43.05 12.75
								 43.5 L12.75 45 ZM20.25 55.5 C20.25 55.95 19.95 56.25 19.5 56.25 L15.75 56.25 C15.3 56.25 15 55.95
								 15 55.5 L15 54 C15 53.55 15.3 53.25 15.75 53.25 L19.5 53.25 C19.95 53.25 20.25 53.55 20.25 54 L20.25
								 55.5 ZM20.25 50.25 C20.25 50.7 19.95 51 19.5 51 L15.75 51 C15.3 51 15 50.7 15 50.25 L15 48.75 C15
								 48.3 15.3 48 15.75 48 L19.5 48 C19.95 48 20.25 48.3 20.25 48.75 L20.25 50.25 ZM20.25 45 C20.25 45.45
								 19.95 45.75 19.5 45.75 L15.75 45.75 C15.3 45.75 15 45.45 15 45 L15 43.5 C15 43.05 15.3 42.75 15.75
								 42.75 L19.5 42.75 C19.95 42.75 20.25 43.05 20.25 43.5 L20.25 45 ZM27.75 55.5 C27.75 55.95 27.45
								 56.25 27 56.25 L23.25 56.25 C22.8 56.25 22.5 55.95 22.5 55.5 L22.5 54 C22.5 53.55 22.8 53.25 23.25
								 53.25 L27 53.25 C27.45 53.25 27.75 53.55 27.75 54 L27.75 55.5 ZM27.75 50.25 C27.75 50.7 27.45 51
								 27 51 L23.25 51 C22.8 51 22.5 50.7 22.5 50.25 L22.5 48.75 C22.5 48.3 22.8 48 23.25 48 L27 48 C27.45
								 48 27.75 48.3 27.75 48.75 L27.75 50.25 ZM27.75 45 C27.75 45.45 27.45 45.75 27 45.75 L23.25 45.75
								 C22.8 45.75 22.5 45.45 22.5 45 L22.5 43.5 C22.5 43.05 22.8 42.75 23.25 42.75 L27 42.75 C27.45 42.75
								 27.75 43.05 27.75 43.5 L27.75 45 ZM30 36.75 C30 37.2 29.7 37.5 29.25 37.5 L6.75 37.5 C6.3 37.5 5.92
								 37.2 5.92 36.75 L5.92 28.5 C5.92 28.05 6.3 27.75 6.75 27.75 L29.25 27.75 C29.7 27.75 30 28.05 30
								 28.5 L30 36.75 Z" class="st2"/>
				</g>
			</g>
			<g id="group780-9" transform="translate(53.325,-22.5)" v:mID="780" v:groupContext="group" v:layerMember="0">
				<title>Sheet.780</title>
				<g id="shape781-10" v:mID="781" v:groupContext="shape" v:layerMember="0">
					<title>Sheet.781</title>
					<path d="M17.93 65.25 C16.73 65.25 15.6 65.03 14.55 64.5 C14.1 64.57 13.65 64.57 13.13 64.57 C6.23 64.57 0.68
								 58.95 0.68 52.12 C0.68 51.67 0.68 51.23 0.75 50.7 C0.3 49.65 0 48.45 0 47.32 C-0 42.75 3.75 39 8.33
								 39 C9.53 39 10.65 39.22 11.7 39.75 C12.15 39.68 12.6 39.68 13.13 39.67 C20.03 39.68 25.58 45.3 25.58
								 52.12 C25.58 52.58 25.58 53.02 25.5 53.55 C25.95 54.6 26.25 55.8 26.25 56.92 C26.25 61.5 22.5 65.25
								 17.93 65.25 Z" class="st1"/>
				</g>
				<g id="shape782-12" v:mID="782" v:groupContext="shape" v:layerMember="0" transform="translate(2.25,-2.25)">
					<title>Sheet.782</title>
					<path d="M20.93 56.17 C21 55.57 21.08 54.97 21.08 54.37 C21.08 48.75 16.5 44.17 10.88 44.17 C10.28 44.17 9.68
								 44.25 9.08 44.32 C8.18 43.8 7.13 43.5 6.08 43.5 C2.7 43.5 0 46.2 0 49.57 C0 50.7 0.3 51.67 0.83
								 52.57 C0.75 53.18 0.67 53.77 0.68 54.37 C0.67 60 5.25 64.57 10.88 64.57 C11.48 64.57 12.08 64.5
								 12.68 64.42 C13.58 64.95 14.63 65.25 15.68 65.25 C19.05 65.25 21.75 62.55 21.75 59.17 C21.75 58.05
								 21.45 57.07 20.93 56.17 ZM15.68 63.67 C14.85 63.67 14.1 63.45 13.43 63.07 L12.9 62.77 L12.38 62.85
								 C11.93 62.92 11.4 63 10.88 63 C6.08 63 2.18 59.1 2.18 54.3 C2.18 53.77 2.25 53.25 2.33 52.8 L2.4
								 52.27 L2.1 51.82 C1.72 51.15 1.5 50.4 1.5 49.57 C1.5 47.1 3.53 45.07 6 45.07 C6.83 45.07 7.58 45.3
								 8.25 45.67 L8.78 45.97 L9.3 45.9 C9.83 45.82 10.28 45.75 10.8 45.75 C15.6 45.75 19.5 49.65 19.5
								 54.45 C19.5 54.97 19.43 55.5 19.35 55.95 L19.28 56.47 L19.58 57 C19.95 57.67 20.18 58.42 20.18 59.25
								 C20.18 61.65 18.15 63.67 15.68 63.67 Z" class="st3"/>
				</g>
				<g id="shape783-14" v:mID="783" v:groupContext="shape" v:layerMember="0" transform="translate(7.95,-6.9)">
					<title>Sheet.783</title>
					<path d="M7.05 58.05 L4.73 57.52 C3.83 57.3 2.85 57.07 2.85 56.17 C2.85 55.35 3.53 54.75 4.8 54.75 C7.35 54.75
								 7.13 56.55 8.4 56.55 C9.08 56.55 9.68 56.17 9.68 55.5 C9.68 53.92 7.13 52.72 4.95 52.72 C2.63 52.72
								 0.15 53.7 0.15 56.32 C0.15 57.6 0.6 58.95 3.08 59.62 L6.15 60.37 C7.13 60.6 7.35 61.12 7.35 61.65
								 C7.35 62.47 6.53 63.3 5.1 63.3 C2.33 63.3 2.7 61.05 1.2 61.05 C0.53 61.05 0 61.5 0 62.17 C0 63.45
								 1.58 65.25 5.1 65.25 C8.4 65.25 10.13 63.6 10.13 61.42 C10.2 60.07 9.53 58.65 7.05 58.05 Z"
							class="st3"/>
				</g>
			</g>
		</g>
	</g>
</svg>
