<?xml version="1.0" encoding="UTF-8" standalone="no"?>
<!DOCTYPE svg PUBLIC "-//W3C//DTD SVG 1.1//EN" "http://www.w3.org/Graphics/SVG/1.1/DTD/svg11.dtd">
<!-- Generated by Microsoft Visio, SVG Export Skype for Business Room System.svg Page-1 -->
<svg xmlns="http://www.w3.org/2000/svg" xmlns:xlink="http://www.w3.org/1999/xlink" xmlns:ev="http://www.w3.org/2001/xml-events"
		xmlns:v="http://schemas.microsoft.com/visio/2003/SVGExtensions/" width="1.25in" height="0.8125in" viewBox="0 0 90 58.5"
		xml:space="preserve" color-interpolation-filters="sRGB" class="st4">
	<v:documentProperties v:langID="4108" v:metric="true" v:viewMarkup="false"/>

	<style type="text/css">
	<![CDATA[
		.st1 {fill:#ffffff;stroke:none;stroke-linecap:butt;stroke-width:0.75}
		.st2 {fill:#00adeb;stroke:none;stroke-linecap:butt;stroke-width:0.75}
		.st3 {fill:#505050;stroke:none;stroke-linecap:butt;stroke-width:0.75}
		.st4 {fill:none;fill-rule:evenodd;font-size:12px;overflow:visible;stroke-linecap:square;stroke-miterlimit:3}
	]]>
	</style>

	<g v:mID="0" v:index="1" v:groupContext="foregroundPage">
		<title>Page-1</title>
		<v:pageProperties v:drawingScale="0.0393701" v:pageScale="0.0393701" v:drawingUnits="24" v:shadowOffsetX="8.50394"
				v:shadowOffsetY="-8.50394"/>
		<v:layer v:name="symbols" v:index="0"/>
		<g id="group784-1" transform="translate(6.46875,-8.475)" v:mID="784" v:groupContext="group" v:layerMember="0">
			<title>Skype for Business Room System</title>
			<g id="group785-2" v:mID="785" v:groupContext="group" v:layerMember="0">
				<title>Sheet.785</title>
				<g id="group786-3" transform="translate(51.45,-18.675)" v:mID="786" v:groupContext="group" v:layerMember="0">
					<title>Sheet.786</title>
					<g id="shape787-4" v:mID="787" v:groupContext="shape" v:layerMember="0">
						<title>Sheet.787</title>
						<path d="M17.93 58.5 C16.73 58.5 15.6 58.28 14.55 57.75 C14.1 57.82 13.65 57.82 13.13 57.82 C6.23 57.82 0.68
									 52.2 0.68 45.38 C0.68 44.92 0.68 44.48 0.75 43.95 C0.3 42.9 0 41.7 0 40.58 C0 36 3.75 32.25
									 8.33 32.25 C9.52 32.25 10.65 32.48 11.7 33 C12.15 32.93 12.6 32.93 13.13 32.93 C20.03 32.93
									 25.58 38.55 25.58 45.38 C25.58 45.83 25.58 46.27 25.5 46.8 C25.95 47.85 26.25 49.05 26.25 50.17
									 C26.25 54.75 22.5 58.5 17.93 58.5 Z" class="st1"/>
					</g>
					<g id="shape788-6" v:mID="788" v:groupContext="shape" v:layerMember="0" transform="translate(2.25,-2.25)">
						<title>Sheet.788</title>
						<path d="M20.93 49.43 C21 48.82 21.08 48.22 21.08 47.63 C21.08 42 16.5 37.43 10.88 37.43 C10.28 37.43 9.68
									 37.5 9.08 37.58 C8.18 37.05 7.13 36.75 6.08 36.75 C2.7 36.75 0 39.45 0 42.83 C0 43.95 0.3 44.93
									 0.83 45.83 C0.75 46.43 0.67 47.03 0.67 47.63 C0.67 53.25 5.25 57.82 10.88 57.82 C11.48 57.82
									 12.08 57.75 12.68 57.67 C13.58 58.2 14.63 58.5 15.68 58.5 C19.05 58.5 21.75 55.8 21.75 52.42
									 C21.75 51.3 21.45 50.32 20.93 49.43 ZM15.68 56.92 C14.85 56.93 14.1 56.7 13.43 56.32 L12.9 56.03
									 L12.38 56.1 C11.93 56.17 11.4 56.25 10.88 56.25 C6.08 56.25 2.18 52.35 2.18 47.55 C2.18 47.03
									 2.25 46.5 2.33 46.05 L2.4 45.53 L2.1 45.08 C1.73 44.4 1.5 43.65 1.5 42.83 C1.5 40.35 3.53 38.33
									 6 38.33 C6.83 38.33 7.58 38.55 8.25 38.92 L8.78 39.23 L9.3 39.15 C9.82 39.08 10.28 39 10.8 39
									 C15.6 39 19.5 42.9 19.5 47.7 C19.5 48.22 19.43 48.75 19.35 49.2 L19.28 49.72 L19.58 50.25 C19.95
									 50.92 20.18 51.67 20.18 52.5 C20.18 54.9 18.15 56.92 15.68 56.92 Z" class="st2"/>
					</g>
					<g id="shape789-8" v:mID="789" v:groupContext="shape" v:layerMember="0" transform="translate(7.95,-6.9)">
						<title>Sheet.789</title>
						<path d="M7.05 51.3 L4.73 50.77 C3.83 50.55 2.85 50.33 2.85 49.42 C2.85 48.6 3.53 48 4.8 48 C7.35 48 7.13
									 49.8 8.4 49.8 C9.08 49.8 9.68 49.42 9.68 48.75 C9.68 47.17 7.13 45.97 4.95 45.97 C2.63 45.97
									 0.15 46.95 0.15 49.57 C0.15 50.85 0.6 52.2 3.08 52.87 L6.15 53.62 C7.13 53.85 7.35 54.37 7.35
									 54.9 C7.35 55.73 6.53 56.55 5.1 56.55 C2.33 56.55 2.7 54.3 1.2 54.3 C0.52 54.3 0 54.75 0 55.42
									 C0 56.7 1.57 58.5 5.1 58.5 C8.4 58.5 10.13 56.85 10.13 54.67 C10.2 53.32 9.53 51.9 7.05 51.3
									 Z" class="st2"/>
					</g>
				</g>
				<g id="group790-10" v:mID="790" v:groupContext="group" v:layerMember="0">
					<title>Sheet.790</title>
					<g id="shape791-11" v:mID="791" v:groupContext="shape" v:layerMember="0"
							transform="translate(3.39728E-13,-6.75)">
						<title>Sheet.791</title>
						<path d="M0 58.42 L0 56.92 L0.08 56.02 C0.15 54.6 0.53 51.53 0.83 50.17 C1.2 48.45 1.87 47.02 3.68 45.97
									 L4.2 45.67 C5.33 45.07 5.92 44.62 6.9 44.62 C7.42 44.62 7.95 44.77 8.4 45 L8.63 45.15 L8.85
									 45.37 C9.07 45.52 9.22 45.67 9.45 45.82 C9.6 45.9 9.75 45.97 9.9 46.05 C10.28 46.2 10.65 46.27
									 11.03 46.27 C11.4 46.27 11.78 46.2 12.08 46.12 C12.3 46.05 12.45 45.97 12.6 45.9 L12.98 45.67
									 L13.05 45.67 C13.13 45.6 13.2 45.52 13.28 45.45 L13.43 45.3 L13.65 45.15 C14.1 44.92 14.63 44.77
									 15.15 44.77 C16.05 44.77 16.8 45.22 17.78 45.75 L18.3 46.05 C20.1 47.1 20.78 48.45 21.23 50.25
									 C21.52 51.67 21.9 54.67 21.98 56.1 L22.13 58.5 L0 58.42 Z" class="st1"/>
					</g>
					<g id="shape792-13" v:mID="792" v:groupContext="shape" v:layerMember="0" transform="translate(35.85,-6.75)">
						<title>Sheet.792</title>
						<path d="M0 58.42 L0.15 56.02 C0.23 54.6 0.6 51.53 0.9 50.17 C1.28 48.45 1.95 47.02 3.75 45.97 L4.28 45.67
									 C5.4 45.07 6 44.62 6.98 44.62 C7.5 44.62 8.03 44.77 8.48 45 L8.7 45.15 L8.93 45.37 C9.15 45.52
									 9.3 45.67 9.53 45.82 C9.68 45.9 9.83 45.97 9.98 46.05 C10.35 46.2 10.72 46.27 11.1 46.27 C11.48
									 46.27 11.85 46.2 12.15 46.12 C12.37 46.05 12.52 45.97 12.68 45.9 L12.83 45.82 C13.05 45.67 13.2
									 45.6 13.35 45.45 L13.5 45.3 L13.73 45.15 C14.17 44.92 14.7 44.77 15.23 44.77 C16.12 44.77 16.88
									 45.22 17.85 45.75 L18.38 46.05 C20.18 47.1 20.85 48.45 21.3 50.25 C21.6 51.67 21.98 54.67 22.05
									 56.1 L22.13 57 L22.13 58.5 L0 58.42 Z" class="st1"/>
					</g>
					<g id="group793-15" transform="translate(18.3,-15.825)" v:mID="793" v:groupContext="group" v:layerMember="0">
						<title>Sheet.793</title>
						<g id="shape794-16" v:mID="794" v:groupContext="shape" v:layerMember="0">
							<title>Sheet.794</title>
							<path d="M0 58.5 L0.15 56.32 C0.22 54.9 0.6 51.9 0.9 50.47 C1.28 48.75 1.95 47.4 3.68 46.42 L4.2 46.12
										 C5.25 45.53 5.93 45.15 6.83 45.15 C7.35 45.15 7.8 45.3 8.25 45.52 L8.48 45.67 L8.63 45.82
										 C8.85 46.05 9.08 46.2 9.3 46.27 C9.53 46.42 9.68 46.5 9.83 46.5 C10.28 46.65 10.65 46.72
										 11.03 46.72 C11.4 46.72 11.78 46.65 12.15 46.5 C12.38 46.42 12.53 46.35 12.68 46.27 L12.75
										 46.2 L12.9 46.12 C13.05 45.97 13.28 45.9 13.43 45.75 L13.58 45.6 L13.8 45.45 C14.25 45.22
										 14.7 45.07 15.23 45.07 C16.13 45.07 16.8 45.45 17.78 46.05 L18.3 46.35 C20.1 47.32 20.7
										 48.68 21.08 50.4 C21.38 51.83 21.75 54.82 21.83 56.25 L21.98 58.42 L0 58.5 Z" class="st1"/>
						</g>
						<g id="shape795-18" v:mID="795" v:groupContext="shape" v:layerMember="0"
								transform="translate(2.175,-2.025)">
							<title>Sheet.795</title>
							<path d="M16.88 52.95 C16.58 51.52 16.13 50.77 15.08 50.17 C13.95 49.57 13.35 49.12 12.98 49.12 C12.83
										 49.12 12.68 49.2 12.53 49.2 C12.23 49.42 12 49.65 11.7 49.87 C11.63 49.87 11.63 49.95 11.55
										 49.95 C11.25 50.17 10.95 50.25 10.65 50.4 C10.05 50.62 9.45 50.7 8.85 50.7 C8.25 50.7 7.65
										 50.62 7.05 50.4 C6.75 50.32 6.45 50.17 6.15 49.95 C5.78 49.72 5.48 49.5 5.1 49.2 C4.95 49.12
										 4.88 49.12 4.65 49.12 C4.28 49.12 3.82 49.42 2.55 50.17 C1.5 50.77 1.05 51.52 0.75 52.95
										 C0.45 54.22 0.15 57.07 0 58.5 L17.63 58.5 C17.48 57.07 17.18 54.22 16.88 52.95 Z"
									class="st3"/>
						</g>
						<g id="shape796-20" v:mID="796" v:groupContext="shape" v:layerMember="0" transform="translate(4.425,-9.45)">
							<title>Sheet.796</title>
							<path d="M6.53 58.5 C2.92 58.5 0 55.35 0 51.52 C0 47.7 2.92 44.55 6.53 44.55 C10.13 44.55 13.05 47.7
										 13.05 51.52 C13.05 55.35 10.13 58.5 6.53 58.5 Z" class="st1"/>
						</g>
						<g id="shape797-22" v:mID="797" v:groupContext="shape" v:layerMember="0" transform="translate(6.675,-11.7)">
							<title>Sheet.797</title>
							<path d="M4.28 58.5 C1.88 58.5 0 56.32 0 53.7 C0 51.07 1.95 48.9 4.28 48.9 C6.68 48.9 8.55 51.07 8.55
										 53.7 C8.63 56.32 6.68 58.5 4.28 58.5 Z" class="st3"/>
						</g>
					</g>
					<g id="group798-24" transform="translate(2.25,-9)" v:mID="798" v:groupContext="group" v:layerMember="0">
						<title>Sheet.798</title>
						<g id="shape799-25" v:mID="799" v:groupContext="shape" v:layerMember="0">
							<title>Sheet.799</title>
							<path d="M16.88 52.95 C16.58 51.53 16.13 50.77 15.08 50.17 C13.95 49.58 13.35 49.12 12.98 49.12 C12.83
										 49.13 12.68 49.2 12.53 49.2 C12.23 49.42 12 49.65 11.7 49.87 C11.63 49.88 11.63 49.95 11.55
										 49.95 C11.25 50.17 10.95 50.25 10.65 50.4 C10.05 50.62 9.45 50.7 8.85 50.7 C8.25 50.7 7.65
										 50.62 7.05 50.4 C6.75 50.32 6.45 50.17 6.15 49.95 C5.78 49.73 5.48 49.5 5.1 49.2 C4.95 49.12
										 4.88 49.13 4.65 49.12 C4.28 49.13 3.82 49.42 2.55 50.17 C1.5 50.78 1.05 51.53 0.75 52.95
										 C0.45 54.22 0.15 57.07 0 58.5 L17.63 58.5 C17.55 57.07 17.18 54.15 16.88 52.95 Z"
									class="st3"/>
						</g>
						<g id="shape800-27" v:mID="800" v:groupContext="shape" v:layerMember="0" transform="translate(2.325,-7.5)">
							<title>Sheet.800</title>
							<path d="M6.53 58.5 C2.92 58.5 0 55.35 0 51.53 C0 47.7 2.92 44.55 6.53 44.55 C10.13 44.55 13.05 47.7
										 13.05 51.53 C13.05 55.35 10.13 58.5 6.53 58.5 Z" class="st1"/>
						</g>
						<g id="shape801-29" v:mID="801" v:groupContext="shape" v:layerMember="0"
								transform="translate(4.575,-9.675)">
							<title>Sheet.801</title>
							<path d="M4.28 58.5 C1.88 58.5 0 56.32 0 53.7 C0 51.08 1.95 48.9 4.28 48.9 C6.68 48.9 8.55 51.08 8.55
										 53.7 C8.55 56.32 6.6 58.5 4.28 58.5 Z" class="st3"/>
						</g>
					</g>
					<g id="group802-31" transform="translate(38.25,-9)" v:mID="802" v:groupContext="group" v:layerMember="0">
						<title>Sheet.802</title>
						<g id="shape803-32" v:mID="803" v:groupContext="shape" v:layerMember="0">
							<title>Sheet.803</title>
							<path d="M16.88 52.95 C16.58 51.53 16.13 50.77 15.08 50.17 C13.95 49.58 13.35 49.12 12.98 49.12 C12.83
										 49.13 12.68 49.2 12.53 49.2 C12.23 49.42 12 49.65 11.7 49.87 C11.63 49.88 11.63 49.95 11.55
										 49.95 C11.25 50.17 10.95 50.25 10.65 50.4 C10.05 50.62 9.45 50.7 8.85 50.7 C8.25 50.7 7.65
										 50.62 7.05 50.4 C6.75 50.32 6.45 50.17 6.15 49.95 C5.78 49.73 5.48 49.5 5.1 49.2 C4.95 49.12
										 4.88 49.13 4.65 49.12 C4.28 49.13 3.82 49.42 2.55 50.17 C1.5 50.78 1.05 51.53 0.75 52.95
										 C0.45 54.22 0.15 57.07 0 58.5 L17.63 58.5 C17.48 57.07 17.18 54.15 16.88 52.95 Z"
									class="st3"/>
						</g>
						<g id="shape804-34" v:mID="804" v:groupContext="shape" v:layerMember="0" transform="translate(2.25,-7.5)">
							<title>Sheet.804</title>
							<path d="M6.53 58.5 C2.92 58.5 0 55.35 0 51.53 C0 47.7 2.92 44.55 6.53 44.55 C10.13 44.55 13.05 47.7
										 13.05 51.53 C13.05 55.35 10.13 58.5 6.53 58.5 Z" class="st1"/>
						</g>
						<g id="shape805-36" v:mID="805" v:groupContext="shape" v:layerMember="0" transform="translate(4.5,-9.675)">
							<title>Sheet.805</title>
							<path d="M4.28 58.5 C1.87 58.5 0 56.32 0 53.7 C0 51.08 1.95 48.9 4.28 48.9 C6.68 48.9 8.55 51.08 8.55
										 53.7 C8.55 56.32 6.68 58.5 4.28 58.5 Z" class="st3"/>
						</g>
					</g>
					<g id="shape806-38" v:mID="806" v:groupContext="shape" v:layerMember="0"
							transform="translate(8.1,-1.35003E-13)">
						<title>Sheet.806</title>
						<path d="M0 58.5 L0 52.8 L10.58 37.65 L31.35 37.65 L41.25 52.88 L41.25 58.5 L0 58.5 Z" class="st1"/>
					</g>
					<g id="shape807-40" v:mID="807" v:groupContext="shape" v:layerMember="0" transform="translate(10.35,-2.25)">
						<title>Sheet.807</title>
						<path d="M0 55.8 L0 58.5 L36.68 58.5 L36.68 55.8 L27.9 42.15 L9.53 42.15 L0 55.8 Z" class="st3"/>
					</g>
				</g>
			</g>
		</g>
	</g>
</svg>
