<?xml version="1.0" encoding="UTF-8" standalone="no"?>
<!DOCTYPE svg PUBLIC "-//W3C//DTD SVG 1.1//EN" "http://www.w3.org/Graphics/SVG/1.1/DTD/svg11.dtd">
<!-- Generated by Microsoft Visio, SVG Export Skype for Business Server Management Tool.svg Page-1 -->
<svg xmlns="http://www.w3.org/2000/svg" xmlns:xlink="http://www.w3.org/1999/xlink" xmlns:ev="http://www.w3.org/2001/xml-events"
		xmlns:v="http://schemas.microsoft.com/visio/2003/SVGExtensions/" width="1.25in" height="0.96875in" viewBox="0 0 90 69.75"
		xml:space="preserve" color-interpolation-filters="sRGB" class="st4">
	<v:documentProperties v:langID="4108" v:metric="true" v:viewMarkup="false"/>

	<style type="text/css">
	<![CDATA[
		.st1 {fill:#ffffff;stroke:none;stroke-linecap:butt;stroke-width:0.75}
		.st2 {fill:#00adeb;stroke:none;stroke-linecap:butt;stroke-width:0.75}
		.st3 {fill:#505150;stroke:none;stroke-linecap:butt;stroke-width:0.75}
		.st4 {fill:none;fill-rule:evenodd;font-size:12px;overflow:visible;stroke-linecap:square;stroke-miterlimit:3}
	]]>
	</style>

	<g v:mID="0" v:index="1" v:groupContext="foregroundPage">
		<title>Page-1</title>
		<v:pageProperties v:drawingScale="0.0393701" v:pageScale="0.0393701" v:drawingUnits="24" v:shadowOffsetX="8.50394"
				v:shadowOffsetY="-8.50394"/>
		<v:layer v:name="symbols" v:index="0"/>
		<g id="group808-1" transform="translate(9.9375,-9.6)" v:mID="808" v:groupContext="group" v:layerMember="0">
			<title>Skype for Business Server Management Tool</title>
			<g id="group809-2" transform="translate(49.5,-25.425)" v:mID="809" v:groupContext="group" v:layerMember="0">
				<title>Sheet.809</title>
				<g id="shape810-3" v:mID="810" v:groupContext="shape" v:layerMember="0">
					<title>Sheet.810</title>
					<path d="M17.93 69.75 C16.73 69.75 15.6 69.53 14.55 69 C14.1 69.07 13.65 69.07 13.13 69.07 C6.23 69.07 0.68 63.45
								 0.68 56.63 C0.68 56.17 0.68 55.73 0.75 55.2 C0.3 54.15 0 52.95 0 51.83 C0 47.25 3.75 43.5 8.33 43.5
								 C9.53 43.5 10.65 43.73 11.7 44.25 C12.15 44.18 12.6 44.18 13.13 44.18 C20.03 44.18 25.58 49.8 25.58
								 56.63 C25.58 57.08 25.58 57.52 25.5 58.05 C25.95 59.1 26.25 60.3 26.25 61.42 C26.25 66 22.5 69.75
								 17.93 69.75 Z" class="st1"/>
				</g>
				<g id="shape811-5" v:mID="811" v:groupContext="shape" v:layerMember="0" transform="translate(2.25,-2.25)">
					<title>Sheet.811</title>
					<path d="M20.93 60.68 C21 60.07 21.08 59.47 21.08 58.88 C21.08 53.25 16.5 48.68 10.88 48.68 C10.28 48.68 9.68
								 48.75 9.08 48.82 C8.18 48.3 7.13 48 6.08 48 C2.7 48 0 50.7 0 54.08 C0 55.2 0.3 56.18 0.83 57.08
								 C0.75 57.68 0.67 58.28 0.68 58.88 C0.67 64.5 5.25 69.07 10.88 69.07 C11.48 69.07 12.08 69 12.68
								 68.92 C13.58 69.45 14.63 69.75 15.68 69.75 C19.05 69.75 21.75 67.05 21.75 63.67 C21.75 62.55 21.45
								 61.57 20.93 60.68 ZM15.68 68.17 C14.85 68.18 14.1 67.95 13.43 67.57 L12.9 67.28 L12.38 67.35 C11.93
								 67.42 11.4 67.5 10.88 67.5 C6.08 67.5 2.18 63.6 2.18 58.8 C2.18 58.28 2.25 57.75 2.33 57.3 L2.4
								 56.78 L2.1 56.33 C1.73 55.65 1.5 54.9 1.5 54.08 C1.5 51.6 3.53 49.58 6 49.58 C6.83 49.58 7.58 49.8
								 8.25 50.17 L8.78 50.48 L9.3 50.4 C9.83 50.33 10.28 50.25 10.8 50.25 C15.6 50.25 19.5 54.15 19.5
								 58.95 C19.5 59.47 19.43 60 19.35 60.45 L19.28 60.97 L19.58 61.5 C19.95 62.17 20.18 62.92 20.18 63.75
								 C20.18 66.15 18.15 68.18 15.68 68.17 Z" class="st2"/>
				</g>
				<g id="shape812-7" v:mID="812" v:groupContext="shape" v:layerMember="0" transform="translate(7.95,-6.9)">
					<title>Sheet.812</title>
					<path d="M7.05 62.55 L4.73 62.02 C3.83 61.8 2.85 61.58 2.85 60.67 C2.85 59.85 3.53 59.25 4.8 59.25 C7.35 59.25
								 7.13 61.05 8.4 61.05 C9.08 61.05 9.68 60.67 9.68 60 C9.68 58.42 7.13 57.22 4.95 57.22 C2.63 57.22
								 0.15 58.2 0.15 60.82 C0.15 62.1 0.6 63.45 3.08 64.12 L6.15 64.87 C7.13 65.1 7.35 65.62 7.35 66.15
								 C7.35 66.98 6.53 67.8 5.1 67.8 C2.33 67.8 2.7 65.55 1.2 65.55 C0.52 65.55 0 66 0 66.67 C0 67.95
								 1.57 69.75 5.1 69.75 C8.4 69.75 10.13 68.1 10.13 65.92 C10.2 64.57 9.53 63.15 7.05 62.55 Z"
							class="st2"/>
				</g>
			</g>
			<g id="group813-9" v:mID="813" v:groupContext="group" v:layerMember="0">
				<title>Sheet.813</title>
				<g id="group814-10" v:mID="814" v:groupContext="group" v:layerMember="0">
					<title>Sheet.814</title>
					<g id="shape815-11" v:mID="815" v:groupContext="shape" v:layerMember="0">
						<title>Sheet.815</title>
						<path d="M5.17 69.75 C2.32 69.75 0 67.42 0 64.57 L0 25.5 C0 22.65 2.32 20.32 5.17 20.32 L44.25 20.32 C47.1
									 20.32 49.42 22.65 49.42 25.5 L49.42 64.57 C49.42 67.42 47.1 69.75 44.25 69.75 L5.17 69.75 Z"
								class="st1"/>
					</g>
					<g id="shape816-13" v:mID="816" v:groupContext="shape" v:layerMember="0" transform="translate(2.25,-2.25)">
						<title>Sheet.816</title>
						<path d="M42 69.75 L2.92 69.75 C1.35 69.75 0 68.4 0 66.82 L0 27.75 C0 26.1 1.35 24.83 2.92 24.83 L42 24.83
									 C43.65 24.83 44.92 26.17 44.92 27.75 L44.92 66.82 C44.92 68.4 43.65 69.75 42 69.75 Z"
								class="st3"/>
					</g>
				</g>
				<g id="group817-15" transform="translate(11.7,-11.4)" v:mID="817" v:groupContext="group" v:layerMember="0">
					<title>Sheet.817</title>
					<g id="shape818-16" v:mID="818" v:groupContext="shape" v:layerMember="0">
						<title>Sheet.818</title>
						<path d="M2.7 69.75 C2.02 69.75 1.27 69.45 0.82 68.85 C-0 67.8 0.22 66.3 1.2 65.4 L11.55 56.25 L1.2 46.43
									 C0.22 45.53 0.07 44.03 0.9 43.05 C1.8 42 3.37 41.93 4.42 42.83 L17.55 55.2 C18.15 55.8 18.15
									 56.78 17.55 57.3 L16.72 58.05 L4.35 69.15 C3.9 69.52 3.3 69.75 2.7 69.75 Z" class="st1"/>
					</g>
					<g id="shape819-18" v:mID="819" v:groupContext="shape" v:layerMember="0"
							transform="translate(12.375,1.42109E-14)">
						<title>Sheet.819</title>
						<path d="M12.22 69.75 L1.87 69.75 C0.82 69.75 0 68.93 0 67.88 C-0 66.83 0.82 66 1.87 66 L12.22 66 C13.27
									 66 14.1 66.83 14.1 67.88 C14.1 68.93 13.27 69.75 12.22 69.75 Z" class="st1"/>
					</g>
				</g>
			</g>
		</g>
	</g>
</svg>
