<?xml version="1.0" encoding="UTF-8" standalone="no"?>
<!DOCTYPE svg PUBLIC "-//W3C//DTD SVG 1.1//EN" "http://www.w3.org/Graphics/SVG/1.1/DTD/svg11.dtd">
<!-- Generated by Microsoft Visio, SVG Export Skype for Business Control Panel.svg Page-1 -->
<svg xmlns="http://www.w3.org/2000/svg" xmlns:xlink="http://www.w3.org/1999/xlink" xmlns:ev="http://www.w3.org/2001/xml-events"
		xmlns:v="http://schemas.microsoft.com/visio/2003/SVGExtensions/" width="1.09688in" height="1.03125in"
		viewBox="0 0 78.975 74.25" xml:space="preserve" color-interpolation-filters="sRGB" class="st4">
	<v:documentProperties v:langID="4108" v:metric="true" v:viewMarkup="false"/>

	<style type="text/css">
	<![CDATA[
		.st1 {fill:#ffffff;stroke:none;stroke-linecap:butt;stroke-width:0.75}
		.st2 {fill:#505050;stroke:none;stroke-linecap:butt;stroke-width:0.75}
		.st3 {fill:#00adeb;stroke:none;stroke-linecap:butt;stroke-width:0.75}
		.st4 {fill:none;fill-rule:evenodd;font-size:12px;overflow:visible;stroke-linecap:square;stroke-miterlimit:3}
	]]>
	</style>

	<g v:mID="0" v:index="1" v:groupContext="foregroundPage">
		<title>Page-1</title>
		<v:pageProperties v:drawingScale="0.0393701" v:pageScale="0.0393701" v:drawingUnits="24" v:shadowOffsetX="8.50394"
				v:shadowOffsetY="-8.50394"/>
		<v:layer v:name="symbols" v:index="0"/>
		<g id="group762-1" transform="translate(8.1,-6.1875)" v:mID="762" v:groupContext="group" v:layerMember="0">
			<title>Skype for Business Control Panel</title>
			<g id="group763-2" v:mID="763" v:groupContext="group" v:layerMember="0">
				<title>Sheet.763</title>
				<g id="group764-3" v:mID="764" v:groupContext="group" v:layerMember="0">
					<title>Sheet.764</title>
					<g id="group765-4" v:mID="765" v:groupContext="group" v:layerMember="0">
						<title>Sheet.765</title>
						<g id="shape766-5" v:mID="766" v:groupContext="shape" v:layerMember="0">
							<title>Sheet.766</title>
							<path d="M3.75 74.25 C1.65 74.25 0 72.6 0 70.5 L0 50.25 C-0 48.45 1.28 46.95 3 46.58 L3 27.9 L2.25 22.65
										 L2.25 13.5 L11.25 13.5 L11.25 22.65 L10.5 27.9 L10.5 46.58 C12.23 46.95 13.5 48.37 13.5
										 50.25 L13.5 70.5 C13.5 72.6 11.85 74.25 9.75 74.25 L3.75 74.25 Z" class="st1"/>
						</g>
						<g id="shape767-7" v:mID="767" v:groupContext="shape" v:layerMember="0" transform="translate(2.25,-2.25)">
							<title>Sheet.767</title>
							<path d="M7.5 51 L6 51 L6 30 L6.75 24.75 L6.75 18 L2.25 18 L2.25 24.75 L3 30 L3 51 L1.58 51 C0.68 51
										 0 51.68 0 52.5 L0 72.75 C0 73.57 0.68 74.25 1.5 74.25 L5.18 74.25 L6.23 74.25 L7.5 74.25
										 C8.33 74.25 9 73.57 9 72.75 L9 52.5 C9 51.68 8.33 51 7.5 51 Z" class="st2"/>
						</g>
					</g>
					<g id="group768-9" transform="translate(16.425,-0.075)" v:mID="768" v:groupContext="group" v:layerMember="0">
						<title>Sheet.768</title>
						<g id="shape769-10" v:mID="769" v:groupContext="shape" v:layerMember="0">
							<title>Sheet.769</title>
							<path d="M23.03 16.5 C22.13 15.6 21.08 14.77 19.88 14.18 L18.75 13.57 L16.58 13.57 L16.58 24.37 L13.58
										 26.32 L10.58 24.37 L10.58 13.57 L8.4 13.57 L7.28 14.18 C6 14.85 4.95 15.67 4.05 16.5 C1.43
										 19.05 0 22.5 0 26.17 C0 29.85 1.43 33.3 3.98 35.85 C4.58 36.45 5.25 37.13 6.15 37.73 L6.15
										 66.9 C6.15 70.87 9.08 74.25 13.65 74.25 C15 74.25 17.4 73.5 18.75 72.15 C20.18 70.72 20.93
										 68.85 20.93 66.9 L20.93 37.8 C21.68 37.28 22.35 36.67 23.1 35.93 C25.65 33.3 27.08 29.85
										 27.08 26.25 C27.08 22.57 25.65 19.13 23.03 16.5 Z" class="st1"/>
						</g>
						<g id="shape770-12" v:mID="770" v:groupContext="shape" v:layerMember="0"
								transform="translate(1.125,-2.175)">
							<title>Sheet.770</title>
							<path d="M7.28 38.7 L7.28 39.37 L7.28 69.15 C7.28 71.93 9.53 74.25 12.38 74.25 C15.15 74.25 17.55 71.93
										 17.55 69.15 L17.55 38.7 C18.68 38.17 19.43 37.43 20.33 36.53 C24.83 32.02 24.75 24.75 20.33
										 20.33 C19.5 19.5 18.68 18.9 17.7 18.38 L17.7 18.75 L17.7 27.75 L12.45 31.2 L7.2 27.75 L7.2
										 18.83 L7.2 18.38 C6.22 18.9 5.33 19.5 4.5 20.33 C-0 24.83 0 32.02 4.5 36.53 C5.25 37.28
										 5.93 37.87 6.68 38.33 L7.28 38.7 ZM12.45 71.17 C11.33 71.17 10.43 70.28 10.43 69.15 C10.43
										 68.03 11.33 67.12 12.45 67.12 C13.58 67.12 14.48 68.03 14.48 69.15 C14.48 70.28 13.58 71.17
										 12.45 71.17 Z" class="st2"/>
						</g>
					</g>
				</g>
				<g id="group771-14" transform="translate(42.75,-36.75)" v:mID="771" v:groupContext="group" v:layerMember="0">
					<title>Sheet.771</title>
					<g id="shape772-15" v:mID="772" v:groupContext="shape" v:layerMember="0">
						<title>Sheet.772</title>
						<path d="M17.93 74.25 C16.73 74.25 15.6 74.02 14.55 73.5 C14.1 73.57 13.65 73.57 13.13 73.57 C6.23 73.57
									 0.67 67.95 0.68 61.12 C0.67 60.67 0.67 60.22 0.75 59.7 C0.3 58.65 0 57.45 0 56.32 C-0 51.75
									 3.75 48 8.33 48 C9.53 48 10.65 48.22 11.7 48.75 C12.15 48.67 12.6 48.67 13.13 48.67 C20.03 48.67
									 25.58 54.3 25.58 61.12 C25.58 61.57 25.58 62.02 25.5 62.55 C25.95 63.6 26.25 64.8 26.25 65.92
									 C26.25 70.5 22.5 74.25 17.93 74.25 Z" class="st1"/>
					</g>
					<g id="shape773-17" v:mID="773" v:groupContext="shape" v:layerMember="0" transform="translate(2.25,-2.25)">
						<title>Sheet.773</title>
						<path d="M20.93 65.17 C21 64.57 21.08 63.97 21.08 63.37 C21.08 57.75 16.5 53.17 10.88 53.17 C10.28 53.17
									 9.68 53.25 9.08 53.32 C8.18 52.8 7.13 52.5 6.08 52.5 C2.7 52.5 0 55.2 0 58.57 C0 59.7 0.3 60.67
									 0.83 61.57 C0.75 62.17 0.67 62.77 0.68 63.37 C0.67 69 5.25 73.57 10.88 73.57 C11.48 73.57 12.08
									 73.5 12.68 73.42 C13.58 73.95 14.63 74.25 15.68 74.25 C19.05 74.25 21.75 71.55 21.75 68.17 C21.75
									 67.05 21.45 66.07 20.93 65.17 ZM15.68 72.67 C14.85 72.67 14.1 72.45 13.43 72.07 L12.9 71.77
									 L12.38 71.85 C11.93 71.92 11.4 72 10.88 72 C6.08 72 2.18 68.1 2.18 63.3 C2.18 62.77 2.25 62.25
									 2.33 61.8 L2.4 61.27 L2.1 60.82 C1.73 60.15 1.5 59.4 1.5 58.57 C1.5 56.1 3.53 54.07 6 54.07
									 C6.83 54.07 7.58 54.3 8.25 54.67 L8.78 54.97 L9.3 54.9 C9.83 54.82 10.28 54.75 10.8 54.75 C15.6
									 54.75 19.5 58.65 19.5 63.45 C19.5 63.97 19.43 64.5 19.35 64.95 L19.28 65.47 L19.58 66 C19.95
									 66.67 20.18 67.42 20.18 68.25 C20.18 70.65 18.15 72.67 15.68 72.67 Z" class="st3"/>
					</g>
					<g id="shape774-19" v:mID="774" v:groupContext="shape" v:layerMember="0" transform="translate(7.95,-6.9)">
						<title>Sheet.774</title>
						<path d="M7.05 67.05 L4.73 66.52 C3.83 66.3 2.85 66.07 2.85 65.17 C2.85 64.35 3.53 63.75 4.8 63.75 C7.35
									 63.75 7.13 65.55 8.4 65.55 C9.08 65.55 9.68 65.17 9.68 64.5 C9.68 62.92 7.13 61.72 4.95 61.72
									 C2.63 61.72 0.15 62.7 0.15 65.32 C0.15 66.6 0.6 67.95 3.08 68.62 L6.15 69.37 C7.13 69.6 7.35
									 70.12 7.35 70.65 C7.35 71.47 6.53 72.3 5.1 72.3 C2.33 72.3 2.7 70.05 1.2 70.05 C0.52 70.05 0
									 70.5 0 71.17 C0 72.45 1.57 74.25 5.1 74.25 C8.4 74.25 10.13 72.6 10.13 70.42 C10.2 69.07 9.53
									 67.65 7.05 67.05 Z" class="st3"/>
					</g>
				</g>
			</g>
		</g>
	</g>
</svg>
