<?xml version="1.0" encoding="UTF-8" standalone="no"?>
<!DOCTYPE svg PUBLIC "-//W3C//DTD SVG 1.1//EN" "http://www.w3.org/Graphics/SVG/1.1/DTD/svg11.dtd">
<!-- Generated by Microsoft Visio, SVG Export Skype for Business Web App Client.svg Page-1 -->
<svg xmlns="http://www.w3.org/2000/svg" xmlns:xlink="http://www.w3.org/1999/xlink" xmlns:ev="http://www.w3.org/2001/xml-events"
		xmlns:v="http://schemas.microsoft.com/visio/2003/SVGExtensions/" width="1.29688in" height="1.01563in"
		viewBox="0 0 93.375 73.125" xml:space="preserve" color-interpolation-filters="sRGB" class="st4">
	<v:documentProperties v:langID="4108" v:metric="true" v:viewMarkup="false"/>

	<style type="text/css">
	<![CDATA[
		.st1 {fill:#ffffff;stroke:none;stroke-linecap:butt;stroke-width:0.75}
		.st2 {fill:#00adeb;stroke:none;stroke-linecap:butt;stroke-width:0.75}
		.st3 {fill:#505150;stroke:none;stroke-linecap:butt;stroke-width:0.75}
		.st4 {fill:none;fill-rule:evenodd;font-size:12px;overflow:visible;stroke-linecap:square;stroke-miterlimit:3}
	]]>
	</style>

	<g v:mID="0" v:index="1" v:groupContext="foregroundPage">
		<title>Page-1</title>
		<v:pageProperties v:drawingScale="0.0393701" v:pageScale="0.0393701" v:drawingUnits="24" v:shadowOffsetX="8.50394"
				v:shadowOffsetY="-8.50394"/>
		<v:layer v:name="symbols" v:index="0"/>
		<g id="group832-1" transform="translate(7.30313,-8.85)" v:mID="832" v:groupContext="group" v:layerMember="0">
			<title>Skype for Business Web App Client</title>
			<g id="group833-2" transform="translate(57.75,-29.175)" v:mID="833" v:groupContext="group" v:layerMember="0">
				<title>Sheet.833</title>
				<g id="shape834-3" v:mID="834" v:groupContext="shape" v:layerMember="0">
					<title>Sheet.834</title>
					<path d="M17.93 73.12 C16.73 73.12 15.6 72.9 14.55 72.37 C14.1 72.45 13.65 72.45 13.13 72.45 C6.23 72.45 0.68
								 66.82 0.68 60 C0.68 59.55 0.68 59.1 0.75 58.58 C0.3 57.53 0 56.33 0 55.2 C-0 50.62 3.75 46.88 8.33
								 46.88 C9.52 46.88 10.65 47.1 11.7 47.63 C12.15 47.55 12.6 47.55 13.13 47.55 C20.02 47.55 25.57 53.17
								 25.58 60 C25.57 60.45 25.57 60.9 25.5 61.42 C25.95 62.47 26.25 63.68 26.25 64.8 C26.25 69.38 22.5
								 73.12 17.93 73.12 Z" class="st1"/>
				</g>
				<g id="shape835-5" v:mID="835" v:groupContext="shape" v:layerMember="0" transform="translate(2.25,-2.25)">
					<title>Sheet.835</title>
					<path d="M20.93 64.05 C21 63.45 21.08 62.85 21.08 62.25 C21.08 56.63 16.5 52.05 10.88 52.05 C10.28 52.05 9.68
								 52.12 9.08 52.2 C8.18 51.68 7.12 51.37 6.08 51.37 C2.7 51.37 0 54.07 0 57.45 C0 58.57 0.3 59.55
								 0.82 60.45 C0.75 61.05 0.67 61.65 0.67 62.25 C0.67 67.87 5.25 72.45 10.88 72.45 C11.47 72.45 12.07
								 72.37 12.68 72.3 C13.57 72.82 14.63 73.12 15.68 73.12 C19.05 73.12 21.75 70.43 21.75 67.05 C21.75
								 65.93 21.45 64.95 20.93 64.05 ZM15.68 71.55 C14.85 71.55 14.1 71.32 13.43 70.95 L12.9 70.65 L12.37
								 70.72 C11.93 70.8 11.4 70.87 10.88 70.87 C6.08 70.87 2.18 66.97 2.17 62.17 C2.18 61.65 2.25 61.13
								 2.33 60.67 L2.4 60.15 L2.1 59.7 C1.72 59.02 1.5 58.27 1.5 57.45 C1.5 54.97 3.52 52.95 6 52.95 C6.83
								 52.95 7.58 53.18 8.25 53.55 L8.77 53.85 L9.3 53.78 C9.82 53.7 10.28 53.62 10.8 53.62 C15.6 53.63
								 19.5 57.53 19.5 62.32 C19.5 62.85 19.42 63.37 19.35 63.82 L19.28 64.35 L19.58 64.87 C19.95 65.55
								 20.18 66.3 20.18 67.12 C20.17 69.53 18.15 71.55 15.68 71.55 Z" class="st2"/>
				</g>
				<g id="shape836-7" v:mID="836" v:groupContext="shape" v:layerMember="0" transform="translate(7.95,-6.9)">
					<title>Sheet.836</title>
					<path d="M7.05 65.92 L4.73 65.4 C3.83 65.17 2.85 64.95 2.85 64.05 C2.85 63.22 3.53 62.62 4.8 62.62 C7.35 62.62
								 7.12 64.42 8.4 64.42 C9.08 64.43 9.68 64.05 9.68 63.37 C9.68 61.8 7.12 60.6 4.95 60.6 C2.63 60.6
								 0.15 61.57 0.15 64.2 C0.15 65.47 0.6 66.82 3.08 67.5 L6.15 68.25 C7.12 68.47 7.35 69 7.35 69.52
								 C7.35 70.35 6.53 71.17 5.1 71.17 C2.33 71.18 2.7 68.93 1.2 68.92 C0.53 68.93 0 69.37 0 70.05 C0
								 71.32 1.57 73.13 5.1 73.13 C8.4 73.13 10.13 71.47 10.13 69.3 C10.2 67.95 9.53 66.52 7.05 65.92 Z"
							class="st2"/>
				</g>
			</g>
			<g id="group837-9" v:mID="837" v:groupContext="group" v:layerMember="0">
				<title>Sheet.837</title>
				<g id="group838-10" transform="translate(-1.35891E-13,-8.175)" v:mID="838" v:groupContext="group" v:layerMember="0">
					<title>Sheet.838</title>
					<g id="shape839-11" v:mID="839" v:groupContext="shape" v:layerMember="0">
						<title>Sheet.839</title>
						<path d="M5.25 73.12 C2.32 73.12 0 70.8 0 67.87 L0 33.37 C0 30.45 2.32 28.12 5.25 28.12 L52.5 28.12 C55.42
									 28.13 57.75 30.45 57.75 33.37 L57.75 67.87 C57.75 70.8 55.42 73.12 52.5 73.12 L5.25 73.12 Z"
								class="st1"/>
					</g>
					<g id="shape840-13" v:mID="840" v:groupContext="shape" v:layerMember="0" transform="translate(2.25,-2.25)">
						<title>Sheet.840</title>
						<path d="M50.25 32.62 L3 32.62 C1.35 32.63 0 33.97 0 35.62 L0 70.12 C0 71.78 1.35 73.12 3 73.12 L50.25 73.12
									 C51.9 73.12 53.25 71.78 53.25 70.12 L53.25 35.62 C53.25 33.97 51.9 32.62 50.25 32.62 ZM44.25
									 34.87 L46.5 34.87 L46.5 37.12 L44.25 37.12 L44.25 34.87 ZM39.75 34.87 L42 34.87 L42 37.12 L39.75
									 37.12 L39.75 34.87 ZM51 70.12 C51 70.57 50.7 70.87 50.25 70.87 L3 70.87 C2.55 70.87 2.25 70.57
									 2.25 70.12 L2.25 40.12 L51 40.12 L51 70.12 ZM51 37.12 L48.75 37.12 L48.75 34.87 L51 34.87 L51
									 37.12 Z" class="st3"/>
					</g>
				</g>
				<g id="group841-15" transform="translate(27.6,1.98952E-13)" v:mID="841" v:groupContext="group" v:layerMember="0">
					<title>Sheet.841</title>
					<g id="shape842-16" v:mID="842" v:groupContext="shape" v:layerMember="0">
						<title>Sheet.842</title>
						<ellipse cx="16.5" cy="56.625" rx="16.5" ry="16.5" class="st1"/>
					</g>
					<g id="group843-18" transform="translate(2.325,-2.325)" v:mID="843" v:groupContext="group" v:layerMember="0">
						<title>Sheet.843</title>
						<g id="shape844-19" v:mID="844" v:groupContext="shape" v:layerMember="0" transform="translate(15,-14.55)">
							<title>Sheet.844</title>
							<path d="M5.63 65.93 C3.9 66.45 1.95 66.75 0 66.83 L0 73.12 C2.4 73.05 4.73 72.75 6.83 72.15 C6.68 69.83
										 6.3 67.73 5.63 65.93 Z" class="st3"/>
						</g>
						<g id="shape845-21" v:mID="845" v:groupContext="shape" v:layerMember="0"
								transform="translate(4.725,-23.775)">
							<title>Sheet.845</title>
							<path d="M4.5 69.38 C2.85 69.98 1.35 70.95 0 72.08 C0.68 72.45 1.43 72.82 2.18 73.12 C2.78 71.7 3.6 70.43
										 4.5 69.38 Z" class="st3"/>
						</g>
						<g id="shape846-23" v:mID="846" v:groupContext="shape" v:layerMember="0"
								transform="translate(8.325,-22.35)">
							<title>Sheet.846</title>
							<path d="M0 72.3 C1.57 72.75 3.3 73.05 5.1 73.12 L5.1 67.13 C4.87 67.13 4.72 67.13 4.5 67.13 C2.77 67.73
										 1.2 69.68 0 72.3 Z" class="st3"/>
						</g>
						<g id="shape847-25" v:mID="847" v:groupContext="shape" v:layerMember="0"
								transform="translate(6.675,-14.625)">
							<title>Sheet.847</title>
							<path d="M0 72.15 C2.1 72.75 4.43 73.05 6.83 73.12 L6.83 66.9 C4.87 66.82 2.93 66.53 1.2 66 C0.53 67.8
										 0.15 69.9 0 72.15 Z" class="st3"/>
						</g>
						<g id="shape848-27" v:mID="848" v:groupContext="shape" v:layerMember="0"
								transform="translate(22.65,-8.325)">
							<title>Sheet.848</title>
							<path d="M0.68 67.2 C0.68 69.3 0.45 71.33 0 73.12 C2.02 72.37 3.9 71.4 5.47 70.2 C5.7 69.22 5.78 68.25
										 5.78 67.27 C5.77 66.37 5.7 65.47 5.55 64.65 C4.12 65.62 2.48 66.37 0.6 66.97 C0.68 67.05
										 0.68 67.12 0.68 67.2 Z" class="st3"/>
						</g>
						<g id="shape849-29" v:mID="849" v:groupContext="shape" v:layerMember="0"
								transform="translate(-1.5038E-13,-8.175)">
							<title>Sheet.849</title>
							<path d="M5.17 67.05 C5.17 66.98 5.17 66.9 5.17 66.83 C3.38 66.23 1.65 65.4 0.22 64.5 C0.07 65.33 0 66.23
										 0 67.13 C0 68.33 0.15 69.45 0.45 70.5 C2.1 71.63 3.9 72.52 5.85 73.12 C5.4 71.33 5.17 69.23
										 5.17 67.05 Z" class="st3"/>
						</g>
						<g id="shape850-31" v:mID="850" v:groupContext="shape" v:layerMember="0"
								transform="translate(0.675,-16.05)">
							<title>Sheet.850</title>
							<path d="M3 65.47 C1.65 66.97 0.6 68.77 0 70.8 C1.27 71.77 2.85 72.52 4.58 73.12 C4.73 70.88 5.1 68.7
										 5.78 66.9 C4.73 66.52 3.82 66 3 65.47 Z" class="st3"/>
						</g>
						<g id="shape851-33" v:mID="851" v:groupContext="shape" v:layerMember="0"
								transform="translate(14.925,-22.35)">
							<title>Sheet.851</title>
							<path d="M0.07 73.12 C1.87 73.05 3.6 72.75 5.17 72.3 C4.05 69.68 2.4 67.73 0.6 67.13 C0.37 67.13 0.22
										 67.13 0 67.13 L0.07 73.12 Z" class="st3"/>
						</g>
						<g id="shape852-35" v:mID="852" v:groupContext="shape" v:layerMember="0" transform="translate(1.125,-0.75)">
							<title>Sheet.852</title>
							<path d="M5.17 67.5 C3.3 66.97 1.57 66.22 0 65.32 C1.57 68.92 4.57 71.77 8.32 73.12 C7.05 71.7 5.92 69.75
										 5.17 67.5 Z" class="st3"/>
						</g>
						<g id="shape853-37" v:mID="853" v:groupContext="shape" v:layerMember="0"
								transform="translate(19.275,-23.7)">
							<title>Sheet.853</title>
							<path d="M0 69.3 C0.9 70.35 1.65 71.62 2.25 73.12 C3 72.82 3.75 72.45 4.43 72.07 C3.23 70.87 1.65 69.97
										 0 69.3 Z" class="st3"/>
						</g>
						<g id="shape854-39" v:mID="854" v:groupContext="shape" v:layerMember="0"
								transform="translate(22.125,-16.05)">
							<title>Sheet.854</title>
							<path d="M5.78 70.8 C5.18 68.77 4.12 66.97 2.78 65.47 C1.95 66 1.05 66.45 0 66.9 C0.6 68.77 1.05 70.88
										 1.2 73.12 C2.85 72.53 4.43 71.78 5.78 70.8 Z" class="st3"/>
						</g>
						<g id="shape855-41" v:mID="855" v:groupContext="shape" v:layerMember="0" transform="translate(19.05,-0.75)">
							<title>Sheet.855</title>
							<path d="M3.15 67.35 C2.4 69.75 1.35 71.7 0 73.12 C3.82 71.77 6.9 68.77 8.4 64.95 C6.82 65.92 5.02 66.75
										 3.15 67.35 Z" class="st3"/>
						</g>
						<g id="shape856-43" v:mID="856" v:groupContext="shape" v:layerMember="0"
								transform="translate(8.1,1.13687E-13)">
							<title>Sheet.856</title>
							<path d="M5.4 73.12 L5.4 67.8 C3.53 67.8 1.73 67.57 0 67.2 C1.28 70.43 3.23 72.67 5.4 73.12 Z"
									class="st3"/>
						</g>
						<g id="shape857-45" v:mID="857" v:groupContext="shape" v:layerMember="0" transform="translate(15,-6.825)">
							<title>Sheet.857</title>
							<path d="M6.83 65.93 C4.73 66.45 2.4 66.83 0 66.9 L0 73.12 C2.03 73.05 4.05 72.75 6 72.23 C6.53 70.28
										 6.83 68.18 6.83 65.93 Z" class="st3"/>
						</g>
						<g id="shape858-47" v:mID="858" v:groupContext="shape" v:layerMember="0"
								transform="translate(6.675,-6.825)">
							<title>Sheet.858</title>
							<path d="M6.83 73.12 L6.83 66.9 C4.43 66.83 2.1 66.53 0 65.93 C0 68.25 0.37 70.43 0.9 72.3 C2.78 72.82
										 4.8 73.05 6.83 73.12 Z" class="st3"/>
						</g>
						<g id="shape859-49" v:mID="859" v:groupContext="shape" v:layerMember="0" transform="translate(15,-0.075)">
							<title>Sheet.859</title>
							<path d="M0 67.8 L0 73.12 C2.18 72.68 4.2 70.35 5.4 67.05 C3.68 67.58 1.88 67.8 0 67.8 Z" class="st3"/>
						</g>
					</g>
				</g>
			</g>
		</g>
	</g>
</svg>
