<?xml version="1.0" encoding="UTF-8" standalone="no"?>
<!DOCTYPE svg PUBLIC "-//W3C//DTD SVG 1.1//EN" "http://www.w3.org/Graphics/SVG/1.1/DTD/svg11.dtd">
<!-- Generated by Microsoft Visio, SVG Export SMS Gateway.svg Page-1 -->
<svg xmlns="http://www.w3.org/2000/svg" xmlns:xlink="http://www.w3.org/1999/xlink" xmlns:ev="http://www.w3.org/2001/xml-events"
		xmlns:v="http://schemas.microsoft.com/visio/2003/SVGExtensions/" width="0.90625in" height="0.59375in"
		viewBox="0 0 65.25 42.75" xml:space="preserve" color-interpolation-filters="sRGB" class="st4">
	<v:documentProperties v:langID="4108" v:metric="true" v:viewMarkup="false"/>

	<style type="text/css">
	<![CDATA[
		.st1 {fill:#ffffff;stroke:none;stroke-linecap:butt;stroke-width:0.75}
		.st2 {fill:#515050;stroke:none;stroke-linecap:butt;stroke-width:0.75}
		.st3 {fill:#515150;stroke:none;stroke-linecap:butt;stroke-width:0.75}
		.st4 {fill:none;fill-rule:evenodd;font-size:12px;overflow:visible;stroke-linecap:square;stroke-miterlimit:3}
	]]>
	</style>

	<g v:mID="0" v:index="1" v:groupContext="foregroundPage">
		<title>Page-1</title>
		<v:pageProperties v:drawingScale="0.0393701" v:pageScale="0.0393701" v:drawingUnits="24" v:shadowOffsetX="8.50394"
				v:shadowOffsetY="-8.50394"/>
		<g id="group860-1" transform="translate(0.75,-0.75)" v:mID="860" v:groupContext="group">
			<title>SMS Gateway</title>
			<g id="group861-2" transform="translate(7.19425E-14,-15.75)" v:mID="861" v:groupContext="group">
				<title>Sheet.861</title>
				<g id="group862-3" v:mID="862" v:groupContext="group">
					<title>Sheet.862</title>
					<g id="group863-4" v:mID="863" v:groupContext="group">
						<title>Sheet.863</title>
						<g id="shape864-5" v:mID="864" v:groupContext="shape">
							<title>Sheet.864</title>
							<path d="M0 42.75 L0 22.88 C0 19.95 2.78 17.25 5.78 17.25 L53.55 17.25 C56.55 17.25 59.33 19.95 59.33
										 22.88 L59.33 42.75 L0 42.75 Z" class="st1"/>
						</g>
						<g id="shape865-7" v:mID="865" v:groupContext="shape" transform="translate(2.25,-2.25)">
							<title>Sheet.865</title>
							<path d="M42.45 21.75 L3.53 21.75 C1.73 21.75 0 23.48 0 25.12 L0 42.75 L54.75 42.75 L54.75 25.12 C54.75
										 23.4 53.03 21.75 51.3 21.75 L42.45 21.75 Z" class="st2"/>
						</g>
						<g id="shape866-9" v:mID="866" v:groupContext="shape" transform="translate(4.5,-4.5)">
							<title>Sheet.866</title>
							<path d="M0 42.75 L0 27.38 C0 26.93 0.75 26.25 1.27 26.25 L49.05 26.25 C49.57 26.25 50.25 26.93 50.25
										 27.38 L50.25 42.75 L0 42.75 Z" class="st1"/>
						</g>
					</g>
					<g id="group867-11" transform="translate(19.5,-12)" v:mID="867" v:groupContext="group">
						<title>Sheet.867</title>
						<g id="shape868-12" v:mID="868" v:groupContext="shape">
							<title>Sheet.868</title>
							<rect x="0" y="36.75" width="2.25" height="6" class="st2"/>
						</g>
						<g id="shape869-14" v:mID="869" v:groupContext="shape" transform="translate(4.5,-2.13163E-14)">
							<title>Sheet.869</title>
							<rect x="0" y="36.75" width="2.25" height="6" class="st2"/>
						</g>
						<g id="shape870-16" v:mID="870" v:groupContext="shape" transform="translate(9,-2.13163E-14)">
							<title>Sheet.870</title>
							<rect x="0" y="36.75" width="2.25" height="6" class="st2"/>
						</g>
						<g id="shape871-18" v:mID="871" v:groupContext="shape" transform="translate(13.5,-2.13163E-14)">
							<title>Sheet.871</title>
							<rect x="0" y="36.75" width="2.25" height="6" class="st2"/>
						</g>
						<g id="shape872-20" v:mID="872" v:groupContext="shape" transform="translate(18,-2.13163E-14)">
							<title>Sheet.872</title>
							<rect x="0" y="36.75" width="2.25" height="6" class="st2"/>
						</g>
					</g>
					<g id="shape873-22" v:mID="873" v:groupContext="shape" transform="translate(3.75,-6.75)">
						<title>Sheet.873</title>
						<rect x="0" y="40.5" width="51.75" height="2.25" class="st2"/>
					</g>
				</g>
				<g id="shape874-24" v:mID="874" v:groupContext="shape" transform="translate(6.75,-15)">
					<title>Sheet.874</title>
					<ellipse cx="1.875" cy="40.875" rx="1.875" ry="1.875" class="st2"/>
				</g>
			</g>
			<g id="group875-26" transform="translate(42,-2.84217E-14)" v:mID="875" v:groupContext="group">
				<title>Sheet.875</title>
				<g id="shape876-27" v:mID="876" v:groupContext="shape">
					<title>Sheet.876</title>
					<path d="M3.75 42.75 C1.65 42.75 0 41.1 0 39 L0 12.75 C-0 10.65 1.65 9 3.75 9 L18 9 C20.1 9 21.75 10.65 21.75
								 12.75 L21.75 39 C21.75 41.1 20.1 42.75 18 42.75 L3.75 42.75 Z" class="st1"/>
				</g>
				<g id="shape877-29" v:mID="877" v:groupContext="shape" transform="translate(2.25,-2.25)">
					<title>Sheet.877</title>
					<path d="M15.75 13.5 L1.5 13.5 C0.68 13.5 0 14.17 0 15 L0 41.25 C-0 42.08 0.68 42.75 1.5 42.75 L15.75 42.75 C16.58
								 42.75 17.25 42.08 17.25 41.25 L17.25 15 C17.25 14.17 16.58 13.5 15.75 13.5 ZM9.75 40.5 L7.5 40.5
								 C7.05 40.5 6.75 40.2 6.75 39.75 C6.75 39.3 7.05 39 7.5 39 L9.75 39 C10.2 39 10.5 39.3 10.5 39.75
								 C10.5 40.2 10.2 40.5 9.75 40.5 ZM15 37.5 L2.25 37.5 L2.25 17.25 L15 17.25 L15 37.5 Z" class="st3"/>
				</g>
			</g>
		</g>
	</g>
</svg>
