<?xml version="1.0" encoding="UTF-8" standalone="no"?>
<!DOCTYPE svg PUBLIC "-//W3C//DTD SVG 1.1//EN" "http://www.w3.org/Graphics/SVG/1.1/DTD/svg11.dtd">
<!-- Generated by Microsoft Visio, SVG Export SMTP Connector.svg Page-1 -->
<svg xmlns="http://www.w3.org/2000/svg" xmlns:xlink="http://www.w3.org/1999/xlink" xmlns:ev="http://www.w3.org/2001/xml-events"
		xmlns:v="http://schemas.microsoft.com/visio/2003/SVGExtensions/" width="0.739583in" height="0.760417in"
		viewBox="0 0 53.25 54.75" xml:space="preserve" color-interpolation-filters="sRGB" class="st5">
	<v:documentProperties v:langID="4108" v:metric="true" v:viewMarkup="false"/>

	<style type="text/css">
	<![CDATA[
		.st1 {fill:#ffffff;stroke:none;stroke-linecap:butt;stroke-width:0.75}
		.st2 {fill:#515150;stroke:none;stroke-linecap:butt;stroke-width:0.75}
		.st3 {fill:#525352;stroke:none;stroke-linecap:butt;stroke-width:0.75}
		.st4 {fill:#515050;stroke:none;stroke-linecap:butt;stroke-width:0.75}
		.st5 {fill:none;fill-rule:evenodd;font-size:12px;overflow:visible;stroke-linecap:square;stroke-miterlimit:3}
	]]>
	</style>

	<g v:mID="0" v:index="1" v:groupContext="foregroundPage">
		<title>Page-1</title>
		<v:pageProperties v:drawingScale="0.0393701" v:pageScale="0.0393701" v:drawingUnits="24" v:shadowOffsetX="8.50394"
				v:shadowOffsetY="-8.50394"/>
		<g id="group878-1" transform="translate(0.75,-0.75)" v:mID="878" v:groupContext="group">
			<title>SMTP Connector</title>
			<g id="group879-2" v:mID="879" v:groupContext="group">
				<title>Sheet.879</title>
				<g id="shape880-3" v:mID="880" v:groupContext="shape" transform="translate(5.25,-6.39488E-14)">
					<title>Sheet.880</title>
					<path d="M41.25 45 L27.75 45 L27.75 43.5 L24.75 43.5 L24.75 38.25 L16.5 38.25 L16.5 43.5 L13.5 43.5 L13.5 45
								 L0 45 L0 53.25 L13.5 53.25 L13.5 54.75 L27.75 54.75 L27.75 53.25 L41.25 53.25 L41.25 45 Z"
							class="st1"/>
				</g>
				<g id="group881-5" transform="translate(0,-12)" v:mID="881" v:groupContext="group">
					<title>Sheet.881</title>
					<g id="shape882-6" v:mID="882" v:groupContext="shape">
						<title>Sheet.882</title>
						<rect x="0" y="13.5" width="51.75" height="41.25" class="st1"/>
					</g>
					<g id="shape883-8" v:mID="883" v:groupContext="shape" transform="translate(38.25,-27)">
						<title>Sheet.883</title>
						<rect x="0" y="48" width="6" height="6.75" class="st2"/>
					</g>
					<g id="shape884-10" v:mID="884" v:groupContext="shape" transform="translate(11.25,-18)">
						<title>Sheet.884</title>
						<rect x="0" y="52.5" width="21" height="2.25" class="st2"/>
					</g>
					<g id="shape885-12" v:mID="885" v:groupContext="shape" transform="translate(11.25,-12)">
						<title>Sheet.885</title>
						<rect x="0" y="52.5" width="25.5" height="2.25" class="st2"/>
					</g>
					<g id="shape886-14" v:mID="886" v:groupContext="shape" transform="translate(2.25,-2.25)">
						<title>Sheet.886</title>
						<path d="M45 20.25 L45 52.5 L2.25 52.5 L2.25 20.25 L45 20.25 ZM47.25 18 L0 18 L0 54.75 L47.25 54.75 L47.25
									 18 Z" class="st3"/>
					</g>
				</g>
				<g id="shape887-16" v:mID="887" v:groupContext="shape" transform="translate(24,-10.5)">
					<title>Sheet.887</title>
					<rect x="0" y="51" width="3.75" height="3.75" class="st4"/>
				</g>
				<g id="shape888-18" v:mID="888" v:groupContext="shape" transform="translate(21,-2.25)">
					<title>Sheet.888</title>
					<rect x="0" y="48" width="9.75" height="6.75" class="st4"/>
				</g>
				<g id="shape889-20" v:mID="889" v:groupContext="shape" transform="translate(32.25,-3.75)">
					<title>Sheet.889</title>
					<rect x="0" y="51" width="12" height="3.75" class="st4"/>
				</g>
				<g id="shape890-22" v:mID="890" v:groupContext="shape" transform="translate(7.5,-3.75)">
					<title>Sheet.890</title>
					<rect x="0" y="51" width="12" height="3.75" class="st4"/>
				</g>
			</g>
		</g>
	</g>
</svg>
