<?xml version="1.0" encoding="UTF-8" standalone="no"?>
<!DOCTYPE svg PUBLIC "-//W3C//DTD SVG 1.1//EN" "http://www.w3.org/Graphics/SVG/1.1/DTD/svg11.dtd">
<!-- Generated by Microsoft Visio, SVG Export System Mailbox.svg Page-1 -->
<svg xmlns="http://www.w3.org/2000/svg" xmlns:xlink="http://www.w3.org/1999/xlink" xmlns:ev="http://www.w3.org/2001/xml-events"
		xmlns:v="http://schemas.microsoft.com/visio/2003/SVGExtensions/" width="0.885417in" height="0.84375in"
		viewBox="0 0 63.75 60.75" xml:space="preserve" color-interpolation-filters="sRGB" class="st3">
	<v:documentProperties v:langID="4108" v:metric="true" v:viewMarkup="false"/>

	<style type="text/css">
	<![CDATA[
		.st1 {fill:#ffffff;stroke:none;stroke-linecap:butt;stroke-width:0.75}
		.st2 {fill:#515150;stroke:none;stroke-linecap:butt;stroke-width:0.75}
		.st3 {fill:none;fill-rule:evenodd;font-size:12px;overflow:visible;stroke-linecap:square;stroke-miterlimit:3}
	]]>
	</style>

	<g v:mID="0" v:index="1" v:groupContext="foregroundPage">
		<title>Page-1</title>
		<v:pageProperties v:drawingScale="0.0393701" v:pageScale="0.0393701" v:drawingUnits="24" v:shadowOffsetX="8.50394"
				v:shadowOffsetY="-8.50394"/>
		<g id="group891-1" transform="translate(0.75,-0.75)" v:mID="891" v:groupContext="group">
			<title>System Mailbox</title>
			<g id="group892-2" v:mID="892" v:groupContext="group">
				<title>Sheet.892</title>
				<g id="group893-3" transform="translate(-2.95763E-13,-6)" v:mID="893" v:groupContext="group">
					<title>Sheet.893</title>
					<g id="group894-4" v:mID="894" v:groupContext="group">
						<title>Sheet.894</title>
						<g id="shape895-5" v:mID="895" v:groupContext="shape">
							<title>Sheet.895</title>
							<path d="M0 45.75 L0 60.75 L57 60.75 L57 45.75 L57 43.2 L56.55 41.25 L52.8 25.58 L51.75 25.58 L51.75
										 13.5 L50.25 13.5 L50.25 7.5 L6.75 7.5 L6.75 13.5 L5.25 13.5 L5.25 25.58 L4.2 25.58 L0.45
										 41.25 L0 43.2 L0 45.75 Z" class="st1"/>
						</g>
						<g id="group896-7" transform="translate(15,-21.75)" v:mID="896" v:groupContext="group">
							<title>Sheet.896</title>
							<g id="shape897-8" v:mID="897" v:groupContext="shape" transform="translate(23.25,-11.25)">
								<title>Sheet.897</title>
								<rect x="0" y="54" width="6" height="6.75" class="st2"/>
							</g>
							<g id="shape898-10" v:mID="898" v:groupContext="shape" transform="translate(0,-5.25)">
								<title>Sheet.898</title>
								<rect x="0" y="58.5" width="15.75" height="2.25" class="st2"/>
							</g>
							<g id="shape899-12" v:mID="899" v:groupContext="shape">
								<title>Sheet.899</title>
								<rect x="0" y="58.5" width="20.25" height="2.25" class="st2"/>
							</g>
						</g>
						<g id="shape900-14" v:mID="900" v:groupContext="shape" transform="translate(9,-47.25)">
							<title>Sheet.900</title>
							<path d="M0 57 L0 60.75 L2.25 60.75 L2.25 59.25 L36.75 59.25 L36.75 60.75 L39 60.75 L39 57 L0 57 Z"
									class="st2"/>
						</g>
					</g>
					<g id="shape901-16" v:mID="901" v:groupContext="shape" transform="translate(2.25,-2.25)">
						<title>Sheet.901</title>
						<path d="M48.75 30.08 L47.25 30.08 L47.25 18 L5.25 18 L5.25 30.08 L3.75 30.08 L0 45.75 L0 60.75 L52.5 60.75
									 L52.5 45.75 L48.75 30.08 ZM45 30.08 L45 45.75 L7.5 45.75 L7.5 30.08 L7.5 20.25 L45 20.25 L45
									 30.08 Z" class="st2"/>
					</g>
				</g>
				<g id="group902-18" transform="translate(25.5,9.23706E-14)" v:mID="902" v:groupContext="group">
					<title>Sheet.902</title>
					<g id="shape903-19" v:mID="903" v:groupContext="shape">
						<title>Sheet.903</title>
						<path d="M36.75 44.93 C36.75 44.85 36.75 44.85 36.75 44.78 C36.75 41.93 34.27 39.3 31.42 39 C31.28 39 31.05
									 39 30.6 39 L26.25 39 C26.25 36.83 24.67 35.25 22.5 35.25 L14.25 35.25 C12.07 35.25 10.5 36.83
									 10.5 39 L5.77 39 C2.7 39 0.08 41.63 0 44.78 L0 45 L0 60.75 L36.75 60.75 L36.75 44.93 Z"
								class="st1"/>
					</g>
					<g id="shape904-21" v:mID="904" v:groupContext="shape" transform="translate(2.25,-2.25)">
						<title>Sheet.904</title>
						<path d="M25.5 50.78 C25.5 51.3 24.97 51.75 24.37 51.75 C23.77 51.75 23.25 51.3 23.25 50.78 L23.25 49.5 L9
									 49.5 L9 50.78 C9 51.3 8.47 51.75 7.87 51.75 C7.28 51.75 6.75 51.3 6.75 50.78 L6.75 49.5 L0 49.5
									 L0 60.75 L32.25 60.75 L32.25 49.5 L25.5 49.5 L25.5 50.78 Z" class="st2"/>
					</g>
					<g id="shape905-23" v:mID="905" v:groupContext="shape" transform="translate(2.25,-15)">
						<title>Sheet.905</title>
						<path d="M32.25 59.85 C32.25 58.05 30.6 56.48 28.87 56.25 C28.8 56.25 28.72 56.25 28.27 56.25 L21.75 56.25
									 C21.75 56.25 21.75 56.25 21.75 56.25 L21.75 54 C21.75 53.1 21.15 52.5 20.25 52.5 L12 52.5 C11.1
									 52.5 10.5 53.1 10.5 54 L10.5 56.25 L4.12 56.25 L3.52 56.25 C1.65 56.25 0 57.98 0 59.85 C0 59.93
									 0 59.93 0 60 C0 60 0 60 0 60.08 L0 60.75 L6.75 60.75 L6.75 60.23 C6.75 59.7 7.28 59.25 7.87
									 59.25 C8.47 59.25 9 59.7 9 60.23 L9 60.75 L23.25 60.75 L23.25 60.23 C23.25 59.7 23.77 59.25
									 24.37 59.25 C24.97 59.25 25.5 59.7 25.5 60.23 L25.5 60.75 L32.25 60.75 L32.25 60.08 C32.25 60.08
									 32.25 60 32.25 60 C32.25 59.93 32.25 59.85 32.25 59.85 ZM12 54 L20.25 54 L20.25 56.25 L12 56.25
									 L12 54 Z" class="st2"/>
					</g>
				</g>
			</g>
		</g>
	</g>
</svg>
