<?xml version="1.0" encoding="UTF-8" standalone="no"?>
<!DOCTYPE svg PUBLIC "-//W3C//DTD SVG 1.1//EN" "http://www.w3.org/Graphics/SVG/1.1/DTD/svg11.dtd">
<!-- Generated by Microsoft Visio, SVG Export TDM-PBX.svg Page-1 -->
<svg xmlns="http://www.w3.org/2000/svg" xmlns:xlink="http://www.w3.org/1999/xlink" xmlns:ev="http://www.w3.org/2001/xml-events"
		xmlns:v="http://schemas.microsoft.com/visio/2003/SVGExtensions/" width="0.90625in" height="0.71875in"
		viewBox="0 0 65.25 51.75" xml:space="preserve" color-interpolation-filters="sRGB" class="st3">
	<v:documentProperties v:langID="4108" v:metric="true" v:viewMarkup="false"/>

	<style type="text/css">
	<![CDATA[
		.st1 {fill:#ffffff;stroke:none;stroke-linecap:butt;stroke-width:0.75}
		.st2 {fill:#515050;stroke:none;stroke-linecap:butt;stroke-width:0.75}
		.st3 {fill:none;fill-rule:evenodd;font-size:12px;overflow:visible;stroke-linecap:square;stroke-miterlimit:3}
	]]>
	</style>

	<g v:mID="0" v:index="1" v:groupContext="foregroundPage">
		<title>Page-1</title>
		<v:pageProperties v:drawingScale="0.0393701" v:pageScale="0.0393701" v:drawingUnits="24" v:shadowOffsetX="8.50394"
				v:shadowOffsetY="-8.50394"/>
		<g id="group906-1" transform="translate(0.75,-0.75)" v:mID="906" v:groupContext="group">
			<title>TDM-PBX</title>
			<g id="group907-2" transform="translate(3.03757E-13,-18)" v:mID="907" v:groupContext="group">
				<title>Sheet.907</title>
				<g id="shape908-3" v:mID="908" v:groupContext="shape">
					<title>Sheet.908</title>
					<path d="M0 51.75 L0 25.13 C0 22.2 2.78 19.5 5.77 19.5 L54.3 19.5 C57.3 19.5 60.07 22.2 60.07 25.13 L60.07 51.75
								 L0 51.75 Z" class="st1"/>
				</g>
				<g id="shape909-5" v:mID="909" v:groupContext="shape" transform="translate(2.25,-2.25)">
					<title>Sheet.909</title>
					<path d="M44.7 24 L3.52 24 C1.72 24 0 25.73 0 27.38 L0 51.75 L55.5 51.75 L55.5 27.38 C55.5 25.65 53.77 24 52.05
								 24 L44.7 24 Z" class="st2"/>
				</g>
				<g id="group910-7" transform="translate(30.75,-15)" v:mID="910" v:groupContext="group">
					<title>Sheet.910</title>
					<g id="group911-8" transform="translate(7.99361E-15,-6)" v:mID="911" v:groupContext="group">
						<title>Sheet.911</title>
						<g id="shape912-9" v:mID="912" v:groupContext="shape">
							<title>Sheet.912</title>
							<ellipse cx="1.5" cy="50.25" rx="1.5" ry="1.5" class="st1"/>
						</g>
						<g id="shape913-11" v:mID="913" v:groupContext="shape" transform="translate(6,1.42109E-14)">
							<title>Sheet.913</title>
							<ellipse cx="1.5" cy="50.25" rx="1.5" ry="1.5" class="st1"/>
						</g>
						<g id="shape914-13" v:mID="914" v:groupContext="shape" transform="translate(12,1.42109E-14)">
							<title>Sheet.914</title>
							<ellipse cx="1.5" cy="50.25" rx="1.5" ry="1.5" class="st1"/>
						</g>
						<g id="shape915-15" v:mID="915" v:groupContext="shape" transform="translate(18,1.42109E-14)">
							<title>Sheet.915</title>
							<ellipse cx="1.5" cy="50.25" rx="1.5" ry="1.5" class="st1"/>
						</g>
					</g>
					<g id="group916-17" v:mID="916" v:groupContext="group">
						<title>Sheet.916</title>
						<g id="shape917-18" v:mID="917" v:groupContext="shape">
							<title>Sheet.917</title>
							<ellipse cx="1.5" cy="50.25" rx="1.5" ry="1.5" class="st1"/>
						</g>
						<g id="shape918-20" v:mID="918" v:groupContext="shape" transform="translate(6,1.42109E-14)">
							<title>Sheet.918</title>
							<ellipse cx="1.5" cy="50.25" rx="1.5" ry="1.5" class="st1"/>
						</g>
						<g id="shape919-22" v:mID="919" v:groupContext="shape" transform="translate(12,1.42109E-14)">
							<title>Sheet.919</title>
							<ellipse cx="1.5" cy="50.25" rx="1.5" ry="1.5" class="st1"/>
						</g>
						<g id="shape920-24" v:mID="920" v:groupContext="shape" transform="translate(18,1.42109E-14)">
							<title>Sheet.920</title>
							<ellipse cx="1.5" cy="50.25" rx="1.5" ry="1.5" class="st1"/>
						</g>
					</g>
				</g>
				<g id="group921-26" transform="translate(8.25,-13.5)" v:mID="921" v:groupContext="group">
					<title>Sheet.921</title>
					<g id="shape922-27" v:mID="922" v:groupContext="shape">
						<title>Sheet.922</title>
						<rect x="0" y="41.25" width="16.5" height="10.5" class="st1"/>
					</g>
					<g id="shape923-29" v:mID="923" v:groupContext="shape" transform="translate(1.5,-2.25)">
						<title>Sheet.923</title>
						<rect x="0" y="45" width="13.5" height="6.75" class="st2"/>
					</g>
				</g>
				<g id="shape924-31" v:mID="924" v:groupContext="shape" transform="translate(8.25,-9)">
					<title>Sheet.924</title>
					<rect x="0" y="50.25" width="16.5" height="1.5" class="st1"/>
				</g>
			</g>
			<g id="group925-33" transform="translate(33.75,-1.42109E-13)" v:mID="925" v:groupContext="group">
				<title>Sheet.925</title>
				<g id="group926-34" v:mID="926" v:groupContext="group">
					<title>Sheet.926</title>
					<g id="shape927-35" v:mID="927" v:groupContext="shape">
						<title>Sheet.927</title>
						<path d="M4.5 51.75 C2.03 51.75 0 49.73 0 47.25 L0 26.25 C0 23.78 2.03 21.75 4.5 21.75 L25.5 21.75 C27.98
									 21.75 30 23.78 30 26.25 L30 47.25 C30 49.73 27.98 51.75 25.5 51.75 L4.5 51.75 Z" class="st1"/>
					</g>
					<g id="shape928-37" v:mID="928" v:groupContext="shape" transform="translate(2.25,-2.25)">
						<title>Sheet.928</title>
						<path d="M25.5 49.5 C25.5 50.78 24.53 51.75 23.25 51.75 L2.25 51.75 C0.98 51.75 0 50.78 0 49.5 L0 28.5 C-0
									 27.23 0.98 26.25 2.25 26.25 L23.25 26.25 C24.53 26.25 25.5 27.23 25.5 28.5 L25.5 49.5 Z"
								class="st2"/>
					</g>
				</g>
				<g id="shape929-39" v:mID="929" v:groupContext="shape" transform="translate(12,-17.25)">
					<title>Sheet.929</title>
					<path d="M3.75 51.75 L3.75 46.8 L6 49.05 L6 46.8 L3 43.8 L0 46.8 L0 49.05 L2.25 46.8 L2.25 51.75 L3.75 51.75 Z"
							class="st1"/>
				</g>
				<g id="shape930-41" v:mID="930" v:groupContext="shape" transform="translate(12,-4.8)">
					<title>Sheet.930</title>
					<path d="M2.25 43.8 L2.25 48.75 L0 46.5 L0 48.75 L3 51.75 L6 48.75 L6 46.5 L3.75 48.75 L3.75 43.8 L2.25 43.8 Z"
							class="st1"/>
				</g>
				<g id="shape931-43" v:mID="931" v:groupContext="shape" transform="translate(17.55,-12)">
					<title>Sheet.931</title>
					<path d="M7.95 49.5 L3 49.5 L5.25 51.75 L3 51.75 L0 48.75 L3 45.75 L5.25 45.75 L3 48 L7.95 48 L7.95 49.5 Z"
							class="st1"/>
				</g>
				<g id="shape932-45" v:mID="932" v:groupContext="shape" transform="translate(4.5,-12)">
					<title>Sheet.932</title>
					<path d="M0 48 L4.95 48 L2.7 45.75 L4.95 45.75 L7.95 48.75 L4.95 51.75 L2.7 51.75 L4.95 49.5 L0 49.5 L0 48 Z"
							class="st1"/>
				</g>
			</g>
		</g>
	</g>
</svg>
