<?xml version="1.0" encoding="UTF-8" standalone="no"?>
<!DOCTYPE svg PUBLIC "-//W3C//DTD SVG 1.1//EN" "http://www.w3.org/Graphics/SVG/1.1/DTD/svg11.dtd">
<!-- Generated by Microsoft Visio, SVG Export Transport Rule.svg Page-1 -->
<svg xmlns="http://www.w3.org/2000/svg" xmlns:xlink="http://www.w3.org/1999/xlink" xmlns:ev="http://www.w3.org/2001/xml-events"
		xmlns:v="http://schemas.microsoft.com/visio/2003/SVGExtensions/" width="0.854167in" height="0.875in" viewBox="0 0 61.5 63"
		xml:space="preserve" color-interpolation-filters="sRGB" class="st3">
	<v:documentProperties v:langID="4108" v:metric="true" v:viewMarkup="false"/>

	<style type="text/css">
	<![CDATA[
		.st1 {fill:#ffffff;stroke:none;stroke-linecap:butt;stroke-width:0.75}
		.st2 {fill:#515050;stroke:none;stroke-linecap:butt;stroke-width:0.75}
		.st3 {fill:none;fill-rule:evenodd;font-size:12px;overflow:visible;stroke-linecap:square;stroke-miterlimit:3}
	]]>
	</style>

	<g v:mID="0" v:index="1" v:groupContext="foregroundPage">
		<title>Page-1</title>
		<v:pageProperties v:drawingScale="0.0393701" v:pageScale="0.0393701" v:drawingUnits="24" v:shadowOffsetX="8.50394"
				v:shadowOffsetY="-8.50394"/>
		<g id="group949-1" transform="translate(0.75,-0.75)" v:mID="949" v:groupContext="group">
			<title>Transport Rule</title>
			<g id="group950-2" transform="translate(7.99361E-15,-6.75)" v:mID="950" v:groupContext="group">
				<title>Sheet.950</title>
				<g id="shape951-3" v:mID="951" v:groupContext="shape">
					<title>Sheet.951</title>
					<path d="M0 63 L0 8.25 L30.9 8.25 L44.25 21.6 L44.25 63 L0 63 Z" class="st1"/>
				</g>
				<g id="shape952-5" v:mID="952" v:groupContext="shape" transform="translate(2.25,-2.25)">
					<title>Sheet.952</title>
					<path d="M39.75 63 L39.75 24.75 L27.75 12.75 L0 12.75 L0 63 L39.75 63 ZM2.25 60.75 L2.25 15 L26.25 15 L26.25
								 27 L37.5 27 L37.5 60.75 L2.25 60.75 Z" class="st2"/>
				</g>
				<g id="shape953-7" v:mID="953" v:groupContext="shape" transform="translate(14.25,-21)">
					<title>Sheet.953</title>
					<rect x="0" y="60.75" width="18.75" height="2.25" class="st2"/>
				</g>
				<g id="shape954-9" v:mID="954" v:groupContext="shape" transform="translate(14.25,-13.5)">
					<title>Sheet.954</title>
					<rect x="0" y="60.75" width="18.75" height="2.25" class="st2"/>
				</g>
			</g>
			<g id="shape955-11" v:mID="955" v:groupContext="shape" transform="translate(8.25,-27)">
				<title>Sheet.955</title>
				<ellipse cx="1.875" cy="61.125" rx="1.875" ry="1.875" class="st2"/>
			</g>
			<g id="shape956-13" v:mID="956" v:groupContext="shape" transform="translate(14.25,-35.25)">
				<title>Sheet.956</title>
				<rect x="0" y="60.75" width="18.75" height="2.25" class="st2"/>
			</g>
			<g id="shape957-15" v:mID="957" v:groupContext="shape" transform="translate(8.25,-34.5)">
				<title>Sheet.957</title>
				<ellipse cx="1.875" cy="61.125" rx="1.875" ry="1.875" class="st2"/>
			</g>
			<g id="shape958-17" v:mID="958" v:groupContext="shape" transform="translate(8.25,-19.5)">
				<title>Sheet.958</title>
				<ellipse cx="1.875" cy="61.125" rx="1.875" ry="1.875" class="st2"/>
			</g>
			<g id="group959-19" transform="translate(26.25,5.68434E-14)" v:mID="959" v:groupContext="group">
				<title>Sheet.959</title>
				<g id="shape960-20" v:mID="960" v:groupContext="shape">
					<title>Sheet.960</title>
					<rect x="0" y="35.25" width="33.75" height="27.75" class="st1"/>
				</g>
				<g id="shape961-22" v:mID="961" v:groupContext="shape" transform="translate(2.25,-2.25)">
					<title>Sheet.961</title>
					<path d="M0 39.75 L0 63 L29.25 63 L29.25 39.75 L0 39.75 ZM27.75 61.5 L1.5 61.5 L1.5 41.25 L27.75 41.25 L27.75
								 61.5 Z" class="st2"/>
				</g>
				<g id="shape962-24" v:mID="962" v:groupContext="shape" transform="translate(24,-17.25)">
					<title>Sheet.962</title>
					<rect x="0" y="58.5" width="3.75" height="4.5" class="st2"/>
				</g>
				<g id="shape963-26" v:mID="963" v:groupContext="shape" transform="translate(8.25,-12)">
					<title>Sheet.963</title>
					<rect x="0" y="61.5" width="11.25" height="1.5" class="st2"/>
				</g>
				<g id="shape964-28" v:mID="964" v:groupContext="shape" transform="translate(8.25,-8.25)">
					<title>Sheet.964</title>
					<rect x="0" y="61.5" width="15" height="1.5" class="st2"/>
				</g>
			</g>
		</g>
	</g>
</svg>
