<?xml version="1.0" encoding="UTF-8" standalone="no"?>
<!DOCTYPE svg PUBLIC "-//W3C//DTD SVG 1.1//EN" "http://www.w3.org/Graphics/SVG/1.1/DTD/svg11.dtd">
<!-- Generated by Microsoft Visio, SVG Export UCMA Application.svg Page-1 -->
<svg xmlns="http://www.w3.org/2000/svg" xmlns:xlink="http://www.w3.org/1999/xlink" xmlns:ev="http://www.w3.org/2001/xml-events"
		xmlns:v="http://schemas.microsoft.com/visio/2003/SVGExtensions/" width="0.822917in" height="0.645833in"
		viewBox="0 0 59.25 46.5" xml:space="preserve" color-interpolation-filters="sRGB" class="st4">
	<v:documentProperties v:langID="4108" v:metric="true" v:viewMarkup="false"/>

	<style type="text/css">
	<![CDATA[
		.st1 {fill:#ffffff;stroke:none;stroke-linecap:butt;stroke-width:0.75}
		.st2 {fill:#515150;stroke:none;stroke-linecap:butt;stroke-width:0.75}
		.st3 {fill:#515050;stroke:none;stroke-linecap:butt;stroke-width:0.75}
		.st4 {fill:none;fill-rule:evenodd;font-size:12px;overflow:visible;stroke-linecap:square;stroke-miterlimit:3}
	]]>
	</style>

	<g v:mID="0" v:index="1" v:groupContext="foregroundPage">
		<title>Page-1</title>
		<v:pageProperties v:drawingScale="0.0393701" v:pageScale="0.0393701" v:drawingUnits="24" v:shadowOffsetX="8.50394"
				v:shadowOffsetY="-8.50394"/>
		<g id="group78-1" transform="translate(0.75,-0.75)" v:mID="78" v:groupContext="group">
			<title>UCMA Application</title>
			<g id="group79-2" v:mID="79" v:groupContext="group">
				<title>Sheet.79</title>
				<g id="group80-3" v:mID="80" v:groupContext="group">
					<title>Sheet.80</title>
					<g id="shape81-4" v:mID="81" v:groupContext="shape">
						<title>Sheet.81</title>
						<path d="M5.25 46.5 C2.32 46.5 0 44.17 0 41.25 L0 6.75 C0 3.83 2.32 1.5 5.25 1.5 L52.5 1.5 C55.42 1.5 57.75
									 3.83 57.75 6.75 L57.75 41.25 C57.75 44.17 55.42 46.5 52.5 46.5 L5.25 46.5 Z" class="st1"/>
					</g>
					<g id="shape82-6" v:mID="82" v:groupContext="shape" transform="translate(2.25,-2.25)">
						<title>Sheet.82</title>
						<path d="M50.25 6 L3 6 C1.35 6 0 7.35 0 9 L0 43.5 C-0 45.15 1.35 46.5 3 46.5 L50.25 46.5 C51.9 46.5 53.25
									 45.15 53.25 43.5 L53.25 9 C53.25 7.35 51.9 6 50.25 6 ZM44.25 8.25 L46.5 8.25 L46.5 10.5 L44.25
									 10.5 L44.25 8.25 ZM39.75 8.25 L42 8.25 L42 10.5 L39.75 10.5 L39.75 8.25 ZM51 43.5 C51 43.95
									 50.7 44.25 50.25 44.25 L3 44.25 C2.55 44.25 2.25 43.95 2.25 43.5 L2.25 13.5 L51 13.5 L51 43.5
									 ZM51 10.5 L48.75 10.5 L48.75 8.25 L51 8.25 L51 10.5 Z" class="st2"/>
					</g>
				</g>
				<g id="group83-8" transform="translate(14.7,-9)" v:mID="83" v:groupContext="group">
					<title>Sheet.83</title>
					<g id="shape84-9" v:mID="84" v:groupContext="shape">
						<title>Sheet.84</title>
						<path d="M16.05 45.3 C14.47 46.12 12.53 46.5 10.12 46.5 C7.05 46.5 4.65 45.52 2.78 43.65 C0.98 41.7 0 39.23
									 0 36.07 C0 32.7 1.05 30 3.08 27.9 C5.18 25.8 7.72 24.82 10.88 24.82 C12.9 24.82 14.63 25.12
									 15.9 25.72 L15.9 29.17 C14.47 28.35 12.9 27.9 11.18 27.9 C8.92 27.9 7.05 28.65 5.63 30.07 C4.2
									 31.5 3.53 33.45 3.53 35.92 C3.53 38.25 4.2 40.05 5.48 41.47 C6.82 42.82 8.55 43.5 10.65 43.5
									 C12.6 43.5 14.33 43.05 15.83 42.07 L15.83 45.3 L16.05 45.3 Z" class="st3"/>
					</g>
					<g id="shape85-11" v:mID="85" v:groupContext="shape" transform="translate(17.775,-4.5)">
						<title>Sheet.85</title>
						<path d="M11.48 38.25 L11.78 36.75 L9.45 36.75 L10.2 33 L10.13 33 L8.55 33 L7.8 36.75 L5.18 36.75 L5.93 33
									 L5.85 33 L4.28 33 L3.53 36.75 L1.05 36.75 L0.75 38.25 L3.23 38.25 L2.63 41.25 L0.3 41.25 L0
									 42.75 L2.33 42.75 L1.58 46.5 L3.23 46.5 L3.98 42.75 L6.6 42.75 L5.85 46.5 L7.5 46.5 L8.25 42.75
									 L10.73 42.75 L11.1 41.25 L8.63 41.25 L9.23 38.25 L11.48 38.25 ZM6.9 41.25 L4.28 41.25 L4.88
									 38.25 L7.5 38.25 L6.9 41.25 Z" class="st3"/>
					</g>
				</g>
			</g>
		</g>
	</g>
</svg>
