<?xml version="1.0" encoding="UTF-8" standalone="no"?>
<!DOCTYPE svg PUBLIC "-//W3C//DTD SVG 1.1//EN" "http://www.w3.org/Graphics/SVG/1.1/DTD/svg11.dtd">
<!-- Generated by Microsoft Visio, SVG Export UM Auto Attendant.svg Page-1 -->
<svg xmlns="http://www.w3.org/2000/svg" xmlns:xlink="http://www.w3.org/1999/xlink" xmlns:ev="http://www.w3.org/2001/xml-events"
		xmlns:v="http://schemas.microsoft.com/visio/2003/SVGExtensions/" width="0.875in" height="0.875in" viewBox="0 0 63 63"
		xml:space="preserve" color-interpolation-filters="sRGB" class="st3">
	<v:documentProperties v:langID="4108" v:metric="true" v:viewMarkup="false"/>

	<style type="text/css">
	<![CDATA[
		.st1 {fill:#ffffff;stroke:none;stroke-linecap:butt;stroke-width:0.75}
		.st2 {fill:#515050;stroke:none;stroke-linecap:butt;stroke-width:0.75}
		.st3 {fill:none;fill-rule:evenodd;font-size:12px;overflow:visible;stroke-linecap:square;stroke-miterlimit:3}
	]]>
	</style>

	<g v:mID="0" v:index="1" v:groupContext="foregroundPage">
		<title>Page-1</title>
		<v:pageProperties v:drawingScale="0.0393701" v:pageScale="0.0393701" v:drawingUnits="24" v:shadowOffsetX="8.50394"
				v:shadowOffsetY="-8.50394"/>
		<g id="group965-1" transform="translate(0.75,-0.75)" v:mID="965" v:groupContext="group">
			<title>UM Auto Attendant</title>
			<g id="group966-2" v:mID="966" v:groupContext="group">
				<title>Sheet.966</title>
				<g id="group967-3" transform="translate(2.75779E-13,-6.75)" v:mID="967" v:groupContext="group">
					<title>Sheet.967</title>
					<g id="shape968-4" v:mID="968" v:groupContext="shape">
						<title>Sheet.968</title>
						<path d="M0 63 L0 8.25 L30.9 8.25 L44.25 21.6 L44.25 63 L0 63 Z" class="st1"/>
					</g>
					<g id="shape969-6" v:mID="969" v:groupContext="shape" transform="translate(2.25,-2.25)">
						<title>Sheet.969</title>
						<path d="M39.75 63 L39.75 24.75 L27.75 12.75 L0 12.75 L0 63 L39.75 63 ZM2.25 60.75 L2.25 15 L26.25 15 L26.25
									 27 L37.5 27 L37.5 60.75 L2.25 60.75 Z" class="st2"/>
					</g>
					<g id="shape970-8" v:mID="970" v:groupContext="shape" transform="translate(14.25,-21)">
						<title>Sheet.970</title>
						<rect x="0" y="60.75" width="18.75" height="2.25" class="st2"/>
					</g>
					<g id="shape971-10" v:mID="971" v:groupContext="shape" transform="translate(14.25,-13.5)">
						<title>Sheet.971</title>
						<rect x="0" y="60.75" width="18.75" height="2.25" class="st2"/>
					</g>
				</g>
				<g id="shape972-12" v:mID="972" v:groupContext="shape" transform="translate(8.25,-27)">
					<title>Sheet.972</title>
					<ellipse cx="1.875" cy="61.125" rx="1.875" ry="1.875" class="st2"/>
				</g>
				<g id="shape973-14" v:mID="973" v:groupContext="shape" transform="translate(14.25,-35.25)">
					<title>Sheet.973</title>
					<rect x="0" y="60.75" width="18.75" height="2.25" class="st2"/>
				</g>
				<g id="shape974-16" v:mID="974" v:groupContext="shape" transform="translate(8.25,-34.5)">
					<title>Sheet.974</title>
					<ellipse cx="1.875" cy="61.125" rx="1.875" ry="1.875" class="st2"/>
				</g>
				<g id="shape975-18" v:mID="975" v:groupContext="shape" transform="translate(8.25,-19.5)">
					<title>Sheet.975</title>
					<ellipse cx="1.875" cy="61.125" rx="1.875" ry="1.875" class="st2"/>
				</g>
				<g id="group976-20" transform="translate(33.75,-2.70006E-13)" v:mID="976" v:groupContext="group">
					<title>Sheet.976</title>
					<g id="shape977-21" v:mID="977" v:groupContext="shape">
						<title>Sheet.977</title>
						<path d="M13.87 27.97 C5.32 27.97 0 33.75 0 43.05 L0 47.17 C-0 48.07 0.38 48.97 1.05 49.57 L1.05 50.32 C1.05
									 59.25 5.4 61.57 8.77 62.02 C9.52 62.62 10.5 63 11.55 63 L16.27 63 C18.3 63 20.4 61.5 20.4 59.32
									 C20.4 57.3 18.52 55.57 16.27 55.57 L11.55 55.57 C10.57 55.57 9.68 55.87 9 56.4 C8.4 56.25 7.73
									 55.8 7.27 54.67 C7.35 54.67 7.5 54.67 7.57 54.67 C9 54.67 10.73 54 10.8 50.7 L10.8 50.32 L10.8
									 44.85 C10.8 43.87 10.8 42.52 9.82 41.55 C9.45 41.17 8.7 40.65 7.57 40.65 C7.35 40.65 7.05 40.65
									 6.82 40.72 C7.57 35.32 11.17 34.57 13.95 34.57 C16.72 34.57 20.32 35.25 21.07 40.72 C20.85 40.72
									 20.55 40.65 20.32 40.65 C18.9 40.65 17.7 41.47 17.25 42.82 C17.02 43.57 17.02 44.32 17.02 45
									 L17.02 50.32 L17.02 50.7 C17.1 54 18.82 54.75 20.25 54.75 C22.57 54.75 25.13 52.57 26.17 50.02
									 C26.4 49.87 26.62 49.72 26.77 49.57 C27.67 48.6 27.75 47.4 27.75 47.17 L27.75 43.12 C27.75 33.75
									 22.42 27.97 13.87 27.97 Z" class="st1"/>
					</g>
					<g id="shape978-23" v:mID="978" v:groupContext="shape" transform="translate(3.3,-3.15)">
						<title>Sheet.978</title>
						<path d="M6.9 63 C2.32 63 0 59.77 0 53.47 L0 50.32 L1.05 50.32 L1.05 53.47 C1.05 59.25 2.92 61.95 6.9 61.95
									 L6.9 63 Z" class="st2"/>
					</g>
					<g id="shape979-25" v:mID="979" v:groupContext="shape" transform="translate(9.675,-2.25)">
						<title>Sheet.979</title>
						<path d="M6.6 63 C7.5 63 8.48 62.32 8.48 61.57 C8.48 60.75 7.5 60.07 6.6 60.07 L1.88 60.07 C0.9 60.07 0 60.75
									 0 61.57 C0 62.32 0.98 63 1.88 63 L6.6 63 Z" class="st2"/>
					</g>
					<g id="shape980-27" v:mID="980" v:groupContext="shape" transform="translate(3.375,-10.5)">
						<title>Sheet.980</title>
						<path d="M5.17 55.57 C5.18 54.52 5.25 53.47 4.2 53.47 C2.1 53.47 0 54.9 0 57.67 C0 59.92 2.4 63 4.2 63 C5.25
									 63 5.18 61.87 5.17 60.9 L5.17 55.57 Z" class="st2"/>
					</g>
					<g id="shape981-29" v:mID="981" v:groupContext="shape" transform="translate(19.2,-10.5)">
						<title>Sheet.981</title>
						<path d="M0 55.57 C0 54.52 -0 53.47 1.05 53.47 C3.15 53.47 5.25 55.2 5.25 58.05 C5.25 60.3 2.85 63 1.05 63
									 C-0 63 0.08 61.87 0 60.9 L0 55.57 Z" class="st2"/>
					</g>
					<g id="shape982-31" v:mID="982" v:groupContext="shape" transform="translate(2.25,-14.775)">
						<title>Sheet.982</title>
						<path d="M23.25 61.87 C23.25 61.87 23.25 58.05 23.25 57.82 C23.25 50.17 19.28 45 11.62 45 C3.97 45 0 50.25
									 0 57.82 C0 58.05 0 61.95 0 61.95 C0 61.95 -0 63 1.05 63 C1.57 63 2.32 61.05 2.1 60.9 L2.1 59.85
									 L2.1 57.75 C2.1 50.62 5.63 47.17 11.62 47.17 C17.62 47.17 21.15 50.62 21.15 57.75 L21.15 59.85
									 L21.15 60.9 C20.92 61.05 21.67 63 22.2 63 C23.25 63 23.25 61.87 23.25 61.87 Z" class="st2"/>
					</g>
				</g>
				<g id="shape983-33" v:mID="983" v:groupContext="shape" transform="translate(40.125,-21.9)">
					<title>Sheet.983</title>
					<path d="M2.7 63 L0 63 L0.75 58.65 L2.7 57.9 L2.7 63 Z" class="st1"/>
				</g>
			</g>
		</g>
	</g>
</svg>
