<?xml version="1.0" encoding="UTF-8" standalone="no"?>
<!DOCTYPE svg PUBLIC "-//W3C//DTD SVG 1.1//EN" "http://www.w3.org/Graphics/SVG/1.1/DTD/svg11.dtd">
<!-- Generated by Microsoft Visio, SVG Export UM Dial Plan, E164.svg Page-1 -->
<svg xmlns="http://www.w3.org/2000/svg" xmlns:xlink="http://www.w3.org/1999/xlink" xmlns:ev="http://www.w3.org/2001/xml-events"
		xmlns:v="http://schemas.microsoft.com/visio/2003/SVGExtensions/" width="0.855208in" height="0.864583in"
		viewBox="0 0 61.575 62.25" xml:space="preserve" color-interpolation-filters="sRGB" class="st3">
	<v:documentProperties v:langID="4108" v:metric="true" v:viewMarkup="false"/>

	<style type="text/css">
	<![CDATA[
		.st1 {fill:#ffffff;stroke:none;stroke-linecap:butt;stroke-width:0.75}
		.st2 {fill:#515050;stroke:none;stroke-linecap:butt;stroke-width:0.75}
		.st3 {fill:none;fill-rule:evenodd;font-size:12px;overflow:visible;stroke-linecap:square;stroke-miterlimit:3}
	]]>
	</style>

	<g v:mID="0" v:index="1" v:groupContext="foregroundPage">
		<title>Page-1</title>
		<v:pageProperties v:drawingScale="0.0393701" v:pageScale="0.0393701" v:drawingUnits="24" v:shadowOffsetX="8.50394"
				v:shadowOffsetY="-8.50394"/>
		<g id="group984-1" transform="translate(0.75,-0.75)" v:mID="984" v:groupContext="group">
			<title>UM Dial Plan, E164</title>
			<g id="shape985-2" v:mID="985" v:groupContext="shape" transform="translate(4.39648E-14,-6)">
				<title>Sheet.985</title>
				<path d="M0 7.5 L30.9 7.5 L44.25 20.85 L44.25 62.25 L0 62.25 L0 7.5 Z" class="st1"/>
			</g>
			<g id="shape986-4" v:mID="986" v:groupContext="shape" transform="translate(2.25,-8.25)">
				<title>Sheet.986</title>
				<path d="M39.75 62.25 L39.75 24 L27.75 12 L0 12 L0 62.25 L39.75 62.25 ZM2.25 60 L2.25 14.25 L26.25 14.25 L26.25 26.25
							 L37.5 26.25 L37.5 60 L2.25 60 Z" class="st2"/>
			</g>
			<g id="shape987-6" v:mID="987" v:groupContext="shape" transform="translate(14.25,-24.75)">
				<title>Sheet.987</title>
				<rect x="0" y="60" width="18.75" height="2.25" class="st2"/>
			</g>
			<g id="shape988-8" v:mID="988" v:groupContext="shape" transform="translate(14.25,-17.25)">
				<title>Sheet.988</title>
				<rect x="0" y="60" width="18.75" height="2.25" class="st2"/>
			</g>
			<g id="shape989-10" v:mID="989" v:groupContext="shape" transform="translate(8.25,-24)">
				<title>Sheet.989</title>
				<ellipse cx="1.875" cy="60.375" rx="1.875" ry="1.875" class="st2"/>
			</g>
			<g id="shape990-12" v:mID="990" v:groupContext="shape" transform="translate(8.25,-16.5)">
				<title>Sheet.990</title>
				<ellipse cx="1.875" cy="60.375" rx="1.875" ry="1.875" class="st2"/>
			</g>
			<g id="group991-14" transform="translate(8.625,-32.1)" v:mID="991" v:groupContext="group">
				<title>Sheet.991</title>
				<g id="shape992-15" v:mID="992" v:groupContext="shape" transform="translate(-8.49321E-15,-0.15)">
					<title>Sheet.992</title>
					<path d="M5.02 62.25 L0 62.25 L0 53.32 L4.8 53.32 L4.8 54.6 L1.5 54.6 L1.5 57.15 L4.57 57.15 L4.57 58.42 L1.5
								 58.42 L1.5 61.05 L5.02 61.05 L5.02 62.25 Z" class="st2"/>
				</g>
				<g id="shape993-17" v:mID="993" v:groupContext="shape" transform="translate(6.15,-1.42109E-14)">
					<title>Sheet.993</title>
					<path d="M0.82 62.25 C0.6 62.25 0.37 62.17 0.23 62.02 C0.08 61.87 0 61.65 0 61.42 C0 61.2 0.08 60.97 0.23 60.82
								 C0.37 60.67 0.6 60.6 0.82 60.6 C1.05 60.6 1.28 60.67 1.5 60.82 C1.72 60.97 1.8 61.2 1.8 61.42 C1.8
								 61.65 1.72 61.87 1.5 62.02 C1.35 62.17 1.12 62.25 0.82 62.25 Z" class="st2"/>
				</g>
				<g id="shape994-19" v:mID="994" v:groupContext="shape" transform="translate(9.075,-0.15)">
					<title>Sheet.994</title>
					<path d="M3.3 53.1 L3.3 62.25 L1.87 62.25 L1.87 54.9 C1.65 55.05 1.35 55.27 1.05 55.35 C0.75 55.5 0.37 55.57
								 0 55.72 L0 54.52 C0.22 54.45 0.45 54.37 0.67 54.3 C0.9 54.22 1.12 54.15 1.35 54 C1.57 53.92 1.8
								 53.77 2.02 53.62 C2.25 53.47 2.47 53.32 2.7 53.17 L3.3 53.17 L3.3 53.1 Z" class="st2"/>
				</g>
				<g id="shape995-21" v:mID="995" v:groupContext="shape" transform="translate(14.4,-9.23706E-14)">
					<title>Sheet.995</title>
					<path d="M5.93 59.25 C5.93 59.7 5.85 60.07 5.7 60.45 C5.55 60.82 5.33 61.12 5.1 61.42 C4.87 61.72 4.5 61.87 4.2
								 62.02 C3.83 62.17 3.45 62.25 3 62.25 C2.55 62.25 2.18 62.17 1.8 62.02 C1.42 61.87 1.13 61.57 0.82
								 61.27 C0.53 60.97 0.37 60.52 0.22 60 C0.07 59.47 0 58.87 0 58.2 C0 57.37 0.08 56.62 0.3 56.02 C0.53
								 55.42 0.75 54.82 1.12 54.45 C1.5 54.07 1.87 53.7 2.33 53.47 C2.78 53.25 3.3 53.17 3.83 53.17 C4.13
								 53.17 4.5 53.17 4.73 53.25 C4.95 53.32 5.25 53.32 5.4 53.4 L5.4 54.6 C5.18 54.52 4.95 54.37 4.73
								 54.3 C4.5 54.22 4.2 54.22 3.9 54.22 C3.53 54.22 3.23 54.3 2.93 54.45 C2.63 54.6 2.4 54.82 2.18 55.05
								 C1.95 55.35 1.8 55.65 1.65 56.02 C1.5 56.4 1.5 56.85 1.43 57.37 C1.65 57.07 1.87 56.85 2.18 56.7
								 C2.47 56.55 2.85 56.47 3.3 56.47 C3.67 56.47 4.05 56.55 4.35 56.7 C4.65 56.85 4.95 57 5.18 57.22
								 C5.4 57.45 5.55 57.75 5.7 58.12 C5.85 58.42 5.93 58.8 5.93 59.25 ZM4.43 59.32 C4.42 59.1 4.42 58.8
								 4.35 58.65 C4.27 58.5 4.2 58.27 4.05 58.12 C3.9 57.97 3.75 57.82 3.6 57.75 C3.45 57.67 3.22 57.6
								 3 57.6 C2.78 57.6 2.55 57.67 2.33 57.75 C2.1 57.82 1.95 57.97 1.88 58.12 C1.8 58.27 1.65 58.42 1.57
								 58.65 C1.5 58.8 1.5 59.02 1.5 59.25 C1.5 59.47 1.5 59.7 1.57 59.92 C1.65 60.15 1.73 60.37 1.88 60.52
								 C2.02 60.67 2.18 60.82 2.33 60.97 C2.55 61.12 2.78 61.12 3 61.12 C3.22 61.12 3.45 61.05 3.6 60.97
								 C3.75 60.9 3.9 60.75 4.05 60.6 C4.2 60.45 4.27 60.3 4.35 60.07 C4.42 59.85 4.42 59.62 4.43 59.32
								 Z" class="st2"/>
				</g>
				<g id="shape996-23" v:mID="996" v:groupContext="shape" transform="translate(21.075,-0.15)">
					<title>Sheet.996</title>
					<path d="M5.48 53.32 L5.48 59.1 L6.83 59.1 L6.83 60.3 L5.48 60.3 L5.48 62.25 L4.05 62.25 L4.05 60.3 L0 60.3 L0
								 59.1 C0.38 58.72 0.75 58.27 1.13 57.75 C1.5 57.3 1.87 56.77 2.25 56.25 C2.62 55.72 2.93 55.27 3.23
								 54.75 C3.53 54.22 3.75 53.77 3.98 53.32 L5.48 53.32 ZM4.05 59.1 L4.05 55.35 C3.6 56.17 3.15 56.85
								 2.7 57.45 C2.25 58.05 1.87 58.57 1.43 59.1 L4.05 59.1 Z" class="st2"/>
				</g>
			</g>
			<g id="group997-25" transform="translate(26.475,4.26326E-14)" v:mID="997" v:groupContext="group">
				<title>Sheet.997</title>
				<g id="shape998-26" v:mID="998" v:groupContext="shape">
					<title>Sheet.998</title>
					<path d="M29.78 33 L11.78 33 C10.73 33 9.82 33.37 9.15 33.97 C8.77 33.67 8.33 33.45 7.8 33.3 C6.98 33.07 6.53
								 33 5.48 33 C4.43 33 3.9 33.07 3.08 33.3 C1.28 33.82 0.23 35.17 0.08 37.05 C-0 37.57 0.08 38.25 0.08
								 39.37 C0.15 40.95 0.23 43.5 0.23 47.92 C0.23 51.45 0.15 53.7 0.08 55.27 C-0 56.55 0 57.37 0.08 58.12
								 C0.15 60 1.35 61.42 3.15 61.95 C3.9 62.17 4.65 62.25 5.4 62.25 C6.23 62.25 6.98 62.17 7.8 61.95
								 C8.33 61.8 8.85 61.57 9.23 61.2 C9.9 61.8 10.8 62.17 11.85 62.17 L29.85 62.17 C32.03 62.17 33.6
								 60.6 33.6 58.42 L33.6 36.75 C33.53 34.57 31.95 33 29.78 33 Z" class="st1"/>
				</g>
				<g id="shape999-28" v:mID="999" v:groupContext="shape" transform="translate(2.1,-2.175)">
					<title>Sheet.999</title>
					<path d="M6.45 39.37 C6.38 38.4 5.85 37.87 5.03 37.57 C4.5 37.42 4.28 37.35 3.3 37.35 C2.4 37.35 2.18 37.42 1.58
								 37.57 C0.75 37.87 0.23 38.4 0.15 39.37 C0.07 40.42 0.3 42.6 0.3 50.1 C0.3 56.4 0 58.72 0.15 60.22
								 C0.23 61.2 0.75 61.72 1.58 62.02 C2.1 62.17 2.63 62.25 3.23 62.25 C3.83 62.25 4.43 62.17 4.95 62.02
								 C5.78 61.8 6.3 61.2 6.38 60.22 C6.45 58.72 6.23 56.62 6.23 50.25 C6.3 42.82 6.53 40.5 6.45 39.37
								 Z" class="st2"/>
				</g>
				<g id="shape1000-30" v:mID="1000" v:groupContext="shape" transform="translate(10.275,-2.25)">
					<title>Sheet.1000</title>
					<path d="M19.5 37.5 L1.5 37.5 C0.53 37.5 0 38.02 0 39 L0 60.75 C0 61.72 0.53 62.25 1.5 62.25 L19.5 62.25 C20.48
								 62.25 21 61.72 21 60.75 L21 39 C21 38.02 20.48 37.5 19.5 37.5 ZM7.5 57.75 C7.5 58.2 7.2 58.5 6.75
								 58.5 L5.25 58.5 C4.8 58.5 4.5 58.2 4.5 57.75 L4.5 57 C4.5 56.55 4.8 56.25 5.25 56.25 L6.75 56.25
								 C7.2 56.25 7.5 56.55 7.5 57 L7.5 57.75 ZM7.5 54 C7.5 54.45 7.2 54.75 6.75 54.75 L5.25 54.75 C4.8
								 54.75 4.5 54.45 4.5 54 L4.5 53.25 C4.5 52.8 4.8 52.5 5.25 52.5 L6.75 52.5 C7.2 52.5 7.5 52.8 7.5
								 53.25 L7.5 54 ZM7.5 50.25 C7.5 50.7 7.2 51 6.75 51 L5.25 51 C4.8 51 4.5 50.7 4.5 50.25 L4.5 49.5
								 C4.5 49.05 4.8 48.75 5.25 48.75 L6.75 48.75 C7.2 48.75 7.5 49.05 7.5 49.5 L7.5 50.25 ZM12 57.75
								 C12 58.2 11.7 58.5 11.25 58.5 L9.75 58.5 C9.3 58.5 9 58.2 9 57.75 L9 57 C9 56.55 9.3 56.25 9.75
								 56.25 L11.25 56.25 C11.7 56.25 12 56.55 12 57 L12 57.75 ZM12 54 C12 54.45 11.7 54.75 11.25 54.75
								 L9.75 54.75 C9.3 54.75 9 54.45 9 54 L9 53.25 C9 52.8 9.3 52.5 9.75 52.5 L11.25 52.5 C11.7 52.5 12
								 52.8 12 53.25 L12 54 ZM12 50.25 C12 50.7 11.7 51 11.25 51 L9.75 51 C9.3 51 9 50.7 9 50.25 L9 49.5
								 C9 49.05 9.3 48.75 9.75 48.75 L11.25 48.75 C11.7 48.75 12 49.05 12 49.5 L12 50.25 ZM16.5 57.75 C16.5
								 58.2 16.2 58.5 15.75 58.5 L14.25 58.5 C13.8 58.5 13.5 58.2 13.5 57.75 L13.5 57 C13.5 56.55 13.8
								 56.25 14.25 56.25 L15.75 56.25 C16.2 56.25 16.5 56.55 16.5 57 L16.5 57.75 ZM16.5 54 C16.5 54.45
								 16.2 54.75 15.75 54.75 L14.25 54.75 C13.8 54.75 13.5 54.45 13.5 54 L13.5 53.25 C13.5 52.8 13.8 52.5
								 14.25 52.5 L15.75 52.5 C16.2 52.5 16.5 52.8 16.5 53.25 L16.5 54 ZM16.5 50.25 C16.5 50.7 16.2 51
								 15.75 51 L14.25 51 C13.8 51 13.5 50.7 13.5 50.25 L13.5 49.5 C13.5 49.05 13.8 48.75 14.25 48.75 L15.75
								 48.75 C16.2 48.75 16.5 49.05 16.5 49.5 L16.5 50.25 ZM17.25 45.75 L3.75 45.75 L3.75 40.5 L17.25 40.5
								 L17.25 45.75 Z" class="st2"/>
				</g>
			</g>
		</g>
	</g>
</svg>
