<?xml version="1.0" encoding="UTF-8" standalone="no"?>
<!DOCTYPE svg PUBLIC "-//W3C//DTD SVG 1.1//EN" "http://www.w3.org/Graphics/SVG/1.1/DTD/svg11.dtd">
<!-- Generated by Microsoft Visio, SVG Export UM Hunt Group.svg Page-1 -->
<svg xmlns="http://www.w3.org/2000/svg" xmlns:xlink="http://www.w3.org/1999/xlink" xmlns:ev="http://www.w3.org/2001/xml-events"
		xmlns:v="http://schemas.microsoft.com/visio/2003/SVGExtensions/" width="0.907292in" height="0.75in" viewBox="0 0 65.325 54"
		xml:space="preserve" color-interpolation-filters="sRGB" class="st4">
	<v:documentProperties v:langID="4108" v:metric="true" v:viewMarkup="false"/>

	<style type="text/css">
	<![CDATA[
		.st1 {fill:#ffffff;stroke:none;stroke-linecap:butt;stroke-width:0.75}
		.st2 {fill:#515050;stroke:none;stroke-linecap:butt;stroke-width:0.75}
		.st3 {fill:#515150;stroke:none;stroke-linecap:butt;stroke-width:0.75}
		.st4 {fill:none;fill-rule:evenodd;font-size:12px;overflow:visible;stroke-linecap:square;stroke-miterlimit:3}
	]]>
	</style>

	<g v:mID="0" v:index="1" v:groupContext="foregroundPage">
		<title>Page-1</title>
		<v:pageProperties v:drawingScale="0.0393701" v:pageScale="0.0393701" v:drawingUnits="24" v:shadowOffsetX="8.50394"
				v:shadowOffsetY="-8.50394"/>
		<g id="group1014-1" transform="translate(0.75,-0.75)" v:mID="1014" v:groupContext="group">
			<title>UM Hunt Group</title>
			<g id="group1015-2" v:mID="1015" v:groupContext="group">
				<title>Sheet.1015</title>
				<g id="group1016-3" transform="translate(0,-12.75)" v:mID="1016" v:groupContext="group">
					<title>Sheet.1016</title>
					<g id="shape1017-4" v:mID="1017" v:groupContext="shape">
						<title>Sheet.1017</title>
						<rect x="0" y="14.25" width="58.5" height="39.75" class="st1"/>
					</g>
					<g id="shape1018-6" v:mID="1018" v:groupContext="shape" transform="translate(2.25,-2.25)">
						<title>Sheet.1018</title>
						<rect x="0" y="18.75" width="54" height="35.25" class="st2"/>
					</g>
					<g id="shape1019-8" v:mID="1019" v:groupContext="shape" transform="translate(4.5,-4.5)">
						<title>Sheet.1019</title>
						<rect x="0" y="23.25" width="49.5" height="30.75" class="st1"/>
					</g>
					<g id="group1020-10" transform="translate(6.6,-15.975)" v:mID="1020" v:groupContext="group">
						<title>Sheet.1020</title>
						<g id="shape1021-11" v:mID="1021" v:groupContext="shape" transform="translate(-4.2466E-15,-0.075)">
							<title>Sheet.1021</title>
							<path d="M2.4 47.55 L2.4 54 L1.35 54 L1.35 48.82 C1.2 48.97 0.97 49.05 0.75 49.12 C0.52 49.2 0.3 49.27
										 0 49.35 L0 48.45 C0.15 48.37 0.3 48.3 0.52 48.3 C0.75 48.3 0.82 48.15 0.97 48.07 C0.6 48.3
										 0.82 48.15 1.42 47.85 C1.57 47.77 1.72 47.62 1.87 47.55 L2.4 47.55 Z" class="st2"/>
						</g>
						<g id="shape1022-13" v:mID="1022" v:groupContext="shape" transform="translate(3.375,-7.81597E-14)">
							<title>Sheet.1022</title>
							<path d="M2.03 54 C1.35 54 0.82 53.7 0.53 53.17 C0.23 52.65 0 51.9 0 50.85 C-0 49.72 0.23 48.9 0.6 48.3
										 C0.97 47.7 1.58 47.47 2.25 47.47 C3.6 47.47 4.35 48.52 4.35 50.7 C4.35 51.75 4.13 52.57
										 3.75 53.17 C3.38 53.77 2.78 54 2.03 54 ZM2.18 48.3 C1.43 48.3 1.05 49.12 1.05 50.85 C1.05
										 52.42 1.43 53.25 2.18 53.25 C2.93 53.25 3.3 52.42 3.3 50.85 C3.23 49.12 2.85 48.3 2.18 48.3
										 Z" class="st2"/>
						</g>
						<g id="shape1023-15" v:mID="1023" v:groupContext="shape" transform="translate(8.625,-7.81597E-14)">
							<title>Sheet.1023</title>
							<path d="M2.03 54 C1.35 54 0.82 53.7 0.53 53.17 C0.23 52.65 0 51.9 0 50.85 C0 49.72 0.23 48.9 0.6 48.3
										 C0.97 47.7 1.58 47.47 2.25 47.47 C3.6 47.47 4.35 48.52 4.35 50.7 C4.35 51.75 4.13 52.57
										 3.75 53.17 C3.38 53.77 2.78 54 2.03 54 ZM2.18 48.3 C1.43 48.3 1.05 49.12 1.05 50.85 C1.05
										 52.42 1.43 53.25 2.18 53.25 C2.93 53.25 3.3 52.42 3.3 50.85 C3.23 49.12 2.85 48.3 2.18 48.3
										 Z" class="st2"/>
						</g>
						<g id="shape1024-17" v:mID="1024" v:groupContext="shape" transform="translate(13.875,-7.81597E-14)">
							<title>Sheet.1024</title>
							<path d="M2.03 54 C1.35 54 0.82 53.7 0.53 53.17 C0.23 52.65 0 51.9 0 50.85 C0 49.72 0.23 48.9 0.6 48.3
										 C0.97 47.7 1.58 47.47 2.25 47.47 C3.6 47.47 4.35 48.52 4.35 50.7 C4.35 51.75 4.13 52.57
										 3.75 53.17 C3.38 53.77 2.78 54 2.03 54 ZM2.18 48.3 C1.43 48.3 1.05 49.12 1.05 50.85 C1.05
										 52.42 1.43 53.25 2.18 53.25 C2.93 53.25 3.3 52.42 3.3 50.85 C3.23 49.12 2.85 48.3 2.18 48.3
										 Z" class="st2"/>
						</g>
					</g>
					<g id="shape1025-19" v:mID="1025" v:groupContext="shape" transform="translate(33.75,-26.25)">
						<title>Sheet.1025</title>
						<rect x="0" y="52.5" width="16.5" height="1.5" class="st2"/>
					</g>
					<g id="shape1026-21" v:mID="1026" v:groupContext="shape" transform="translate(33.75,-19.5)">
						<title>Sheet.1026</title>
						<rect x="0" y="52.5" width="16.5" height="1.5" class="st2"/>
					</g>
					<g id="shape1027-23" v:mID="1027" v:groupContext="shape" transform="translate(25.875,-8.625)">
						<title>Sheet.1027</title>
						<path d="M5.62 54 C4.43 54 3.53 53.62 2.92 53.02 C2.32 52.42 1.87 51.45 1.87 50.17 L1.87 46.35 C1.87 45.37
									 1.87 44.7 1.5 44.17 C1.12 43.65 0.67 43.35 0 43.35 L0 42.22 C1.35 42.07 1.8 41.1 1.8 39.3 L1.8
									 35.4 C1.8 34.05 2.25 33.15 2.85 32.47 C3.45 31.87 4.35 31.5 5.55 31.5 L5.55 32.85 C4.8 32.92
									 4.12 33.15 3.75 33.52 C3.37 33.9 3.37 34.65 3.37 35.62 L3.37 39.37 C3.37 41.25 2.92 42.37 1.72
									 42.75 L1.72 42.82 C3 43.2 3.37 44.4 3.37 46.27 L3.37 49.87 C3.37 50.4 3.37 50.77 3.45 51.15
									 C3.6 51.9 4.35 52.42 4.65 52.5 C4.95 52.57 5.25 52.65 5.62 52.65 L5.62 54 Z" class="st2"/>
					</g>
				</g>
				<g id="group1028-25" transform="translate(30.225,-7.81597E-14)" v:mID="1028" v:groupContext="group">
					<title>Sheet.1028</title>
					<g id="shape1029-26" v:mID="1029" v:groupContext="shape">
						<title>Sheet.1029</title>
						<path d="M29.77 24.75 L11.77 24.75 C10.72 24.75 9.82 25.12 9.15 25.72 C8.77 25.42 8.33 25.2 7.8 25.05 C6.98
									 24.82 6.53 24.75 5.47 24.75 C4.43 24.75 3.9 24.82 3.07 25.05 C1.28 25.57 0.23 26.92 0.07 28.8
									 C-0 29.32 0.08 30 0.07 31.12 C0.15 32.7 0.23 35.25 0.23 39.67 C0.23 43.2 0.15 45.45 0.07 47.02
									 C-0 48.3 0 49.12 0.07 49.87 C0.15 51.75 1.35 53.17 3.15 53.7 C3.9 53.92 4.65 54 5.4 54 C6.23
									 54 6.98 53.92 7.8 53.7 C8.33 53.55 8.85 53.32 9.22 52.95 C9.9 53.55 10.8 53.92 11.85 53.92 L29.85
									 53.92 C32.02 53.92 33.6 52.35 33.6 50.17 L33.6 28.5 C33.52 26.32 31.95 24.75 29.77 24.75 Z"
								class="st1"/>
					</g>
					<g id="shape1030-28" v:mID="1030" v:groupContext="shape" transform="translate(2.1,-2.175)">
						<title>Sheet.1030</title>
						<path d="M6.45 31.12 C6.37 30.15 5.85 29.62 5.03 29.32 C4.5 29.17 4.27 29.1 3.3 29.1 C2.4 29.1 2.17 29.17
									 1.58 29.32 C0.75 29.62 0.23 30.15 0.15 31.12 C0.07 32.17 0.3 34.35 0.3 41.85 C0.3 48.15 0 50.47
									 0.15 51.97 C0.23 52.95 0.75 53.47 1.58 53.77 C2.1 53.92 2.62 54 3.23 54 C3.83 54 4.43 53.92
									 4.95 53.77 C5.78 53.55 6.3 52.95 6.38 51.97 C6.45 50.47 6.23 48.37 6.23 42 C6.3 34.57 6.53 32.25
									 6.45 31.12 Z" class="st3"/>
					</g>
					<g id="shape1031-30" v:mID="1031" v:groupContext="shape" transform="translate(10.275,-2.25)">
						<title>Sheet.1031</title>
						<path d="M19.5 29.25 L1.5 29.25 C0.52 29.25 0 29.77 0 30.75 L0 52.5 C0 53.47 0.52 54 1.5 54 L19.5 54 C20.47
									 54 21 53.47 21 52.5 L21 30.75 C21 29.77 20.47 29.25 19.5 29.25 ZM7.5 49.5 C7.5 49.95 7.2 50.25
									 6.75 50.25 L5.25 50.25 C4.8 50.25 4.5 49.95 4.5 49.5 L4.5 48.75 C4.5 48.3 4.8 48 5.25 48 L6.75
									 48 C7.2 48 7.5 48.3 7.5 48.75 L7.5 49.5 ZM7.5 45.75 C7.5 46.2 7.2 46.5 6.75 46.5 L5.25 46.5
									 C4.8 46.5 4.5 46.2 4.5 45.75 L4.5 45 C4.5 44.55 4.8 44.25 5.25 44.25 L6.75 44.25 C7.2 44.25
									 7.5 44.55 7.5 45 L7.5 45.75 ZM7.5 42 C7.5 42.45 7.2 42.75 6.75 42.75 L5.25 42.75 C4.8 42.75
									 4.5 42.45 4.5 42 L4.5 41.25 C4.5 40.8 4.8 40.5 5.25 40.5 L6.75 40.5 C7.2 40.5 7.5 40.8 7.5 41.25
									 L7.5 42 ZM12 49.5 C12 49.95 11.7 50.25 11.25 50.25 L9.75 50.25 C9.3 50.25 9 49.95 9 49.5 L9
									 48.75 C9 48.3 9.3 48 9.75 48 L11.25 48 C11.7 48 12 48.3 12 48.75 L12 49.5 ZM12 45.75 C12 46.2
									 11.7 46.5 11.25 46.5 L9.75 46.5 C9.3 46.5 9 46.2 9 45.75 L9 45 C9 44.55 9.3 44.25 9.75 44.25
									 L11.25 44.25 C11.7 44.25 12 44.55 12 45 L12 45.75 ZM12 42 C12 42.45 11.7 42.75 11.25 42.75 L9.75
									 42.75 C9.3 42.75 9 42.45 9 42 L9 41.25 C9 40.8 9.3 40.5 9.75 40.5 L11.25 40.5 C11.7 40.5 12
									 40.8 12 41.25 L12 42 ZM16.5 49.5 C16.5 49.95 16.2 50.25 15.75 50.25 L14.25 50.25 C13.8 50.25
									 13.5 49.95 13.5 49.5 L13.5 48.75 C13.5 48.3 13.8 48 14.25 48 L15.75 48 C16.2 48 16.5 48.3 16.5
									 48.75 L16.5 49.5 ZM16.5 45.75 C16.5 46.2 16.2 46.5 15.75 46.5 L14.25 46.5 C13.8 46.5 13.5 46.2
									 13.5 45.75 L13.5 45 C13.5 44.55 13.8 44.25 14.25 44.25 L15.75 44.25 C16.2 44.25 16.5 44.55 16.5
									 45 L16.5 45.75 ZM16.5 42 C16.5 42.45 16.2 42.75 15.75 42.75 L14.25 42.75 C13.8 42.75 13.5 42.45
									 13.5 42 L13.5 41.25 C13.5 40.8 13.8 40.5 14.25 40.5 L15.75 40.5 C16.2 40.5 16.5 40.8 16.5 41.25
									 L16.5 42 ZM17.25 37.5 L3.75 37.5 L3.75 32.25 L17.25 32.25 L17.25 37.5 Z" class="st3"/>
					</g>
				</g>
			</g>
		</g>
	</g>
</svg>
