<?xml version="1.0" encoding="UTF-8" standalone="no"?>
<!DOCTYPE svg PUBLIC "-//W3C//DTD SVG 1.1//EN" "http://www.w3.org/Graphics/SVG/1.1/DTD/svg11.dtd">
<!-- Generated by Microsoft Visio, SVG Export UM IP Gateway.svg Page-1 -->
<svg xmlns="http://www.w3.org/2000/svg" xmlns:xlink="http://www.w3.org/1999/xlink" xmlns:ev="http://www.w3.org/2001/xml-events"
		xmlns:v="http://schemas.microsoft.com/visio/2003/SVGExtensions/" width="0.907292in" height="0.614583in"
		viewBox="0 0 65.325 44.25" xml:space="preserve" color-interpolation-filters="sRGB" class="st4">
	<v:documentProperties v:langID="4108" v:metric="true" v:viewMarkup="false"/>

	<style type="text/css">
	<![CDATA[
		.st1 {fill:#ffffff;stroke:none;stroke-linecap:butt;stroke-width:0.75}
		.st2 {fill:#515050;stroke:none;stroke-linecap:butt;stroke-width:0.75}
		.st3 {fill:#515150;stroke:none;stroke-linecap:butt;stroke-width:0.75}
		.st4 {fill:none;fill-rule:evenodd;font-size:12px;overflow:visible;stroke-linecap:square;stroke-miterlimit:3}
	]]>
	</style>

	<g v:mID="0" v:index="1" v:groupContext="foregroundPage">
		<title>Page-1</title>
		<v:pageProperties v:drawingScale="0.0393701" v:pageScale="0.0393701" v:drawingUnits="24" v:shadowOffsetX="8.50394"
				v:shadowOffsetY="-8.50394"/>
		<g id="group1032-1" transform="translate(0.75,-0.75)" v:mID="1032" v:groupContext="group">
			<title>UM IP Gateway</title>
			<g id="group1033-2" transform="translate(1.79856E-13,-23.25)" v:mID="1033" v:groupContext="group">
				<title>Sheet.1033</title>
				<g id="shape1034-3" v:mID="1034" v:groupContext="shape">
					<title>Sheet.1034</title>
					<path d="M0 44.25 L0 30.37 C0 27.45 2.77 24.75 5.77 24.75 L49.8 24.75 C52.8 24.75 55.57 27.45 55.57 30.37 L55.57
								 44.25 L0 44.25 Z" class="st1"/>
				</g>
				<g id="shape1035-5" v:mID="1035" v:groupContext="shape" transform="translate(2.25,-2.25)">
					<title>Sheet.1035</title>
					<path d="M39.45 29.25 L3.52 29.25 C1.72 29.25 0 30.97 0 32.62 L0 44.25 L51 44.25 L51 32.62 C51 30.9 49.27 29.25
								 47.55 29.25 L39.45 29.25 Z" class="st2"/>
				</g>
				<g id="group1036-7" transform="translate(11.25,-8.25)" v:mID="1036" v:groupContext="group">
					<title>Sheet.1036</title>
					<g id="shape1037-8" v:mID="1037" v:groupContext="shape">
						<title>Sheet.1037</title>
						<ellipse cx="1.5" cy="42.75" rx="1.5" ry="1.5" class="st1"/>
					</g>
					<g id="shape1038-10" v:mID="1038" v:groupContext="shape" transform="translate(7.5,4.9738E-14)">
						<title>Sheet.1038</title>
						<ellipse cx="1.5" cy="42.75" rx="1.5" ry="1.5" class="st1"/>
					</g>
					<g id="shape1039-12" v:mID="1039" v:groupContext="shape" transform="translate(15,4.9738E-14)">
						<title>Sheet.1039</title>
						<ellipse cx="1.5" cy="42.75" rx="1.5" ry="1.5" class="st1"/>
					</g>
					<g id="shape1040-14" v:mID="1040" v:groupContext="shape" transform="translate(22.5,4.9738E-14)">
						<title>Sheet.1040</title>
						<ellipse cx="1.5" cy="42.75" rx="1.5" ry="1.5" class="st1"/>
					</g>
					<g id="shape1041-16" v:mID="1041" v:groupContext="shape" transform="translate(30,4.9738E-14)">
						<title>Sheet.1041</title>
						<ellipse cx="1.5" cy="42.75" rx="1.5" ry="1.5" class="st1"/>
					</g>
				</g>
			</g>
			<g id="group1042-18" transform="translate(30.225,1.98952E-13)" v:mID="1042" v:groupContext="group">
				<title>Sheet.1042</title>
				<g id="shape1043-19" v:mID="1043" v:groupContext="shape">
					<title>Sheet.1043</title>
					<path d="M29.77 15 L11.77 15 C10.72 15 9.82 15.37 9.15 15.97 C8.77 15.67 8.33 15.45 7.8 15.3 C6.98 15.07 6.53
								 15 5.47 15 C4.43 15 3.9 15.07 3.07 15.3 C1.28 15.82 0.23 17.17 0.07 19.05 C-0 19.57 0.08 20.25 0.07
								 21.37 C0.15 22.95 0.23 25.5 0.23 29.92 C0.23 33.45 0.15 35.7 0.07 37.27 C-0 38.55 0 39.37 0.07 40.12
								 C0.15 42 1.35 43.42 3.15 43.95 C3.9 44.17 4.65 44.25 5.4 44.25 C6.23 44.25 6.98 44.17 7.8 43.95
								 C8.33 43.8 8.85 43.57 9.22 43.2 C9.9 43.8 10.8 44.17 11.85 44.17 L29.85 44.17 C32.02 44.17 33.6
								 42.6 33.6 40.42 L33.6 18.75 C33.52 16.57 31.95 15 29.77 15 Z" class="st1"/>
				</g>
				<g id="shape1044-21" v:mID="1044" v:groupContext="shape" transform="translate(2.1,-2.175)">
					<title>Sheet.1044</title>
					<path d="M6.45 21.37 C6.37 20.4 5.85 19.87 5.03 19.57 C4.5 19.42 4.27 19.35 3.3 19.35 C2.4 19.35 2.17 19.42 1.58
								 19.57 C0.75 19.87 0.23 20.4 0.15 21.37 C0.07 22.42 0.3 24.6 0.3 32.1 C0.3 38.4 0 40.72 0.15 42.22
								 C0.23 43.2 0.75 43.72 1.58 44.02 C2.1 44.17 2.62 44.25 3.23 44.25 C3.83 44.25 4.43 44.17 4.95 44.02
								 C5.78 43.8 6.3 43.2 6.38 42.22 C6.45 40.72 6.23 38.62 6.23 32.25 C6.3 24.82 6.53 22.5 6.45 21.37
								 Z" class="st3"/>
				</g>
				<g id="shape1045-23" v:mID="1045" v:groupContext="shape" transform="translate(10.275,-2.25)">
					<title>Sheet.1045</title>
					<path d="M19.5 19.5 L1.5 19.5 C0.52 19.5 0 20.02 0 21 L0 42.75 C0 43.72 0.52 44.25 1.5 44.25 L19.5 44.25 C20.47
								 44.25 21 43.72 21 42.75 L21 21 C21 20.02 20.47 19.5 19.5 19.5 ZM7.5 39.75 C7.5 40.2 7.2 40.5 6.75
								 40.5 L5.25 40.5 C4.8 40.5 4.5 40.2 4.5 39.75 L4.5 39 C4.5 38.55 4.8 38.25 5.25 38.25 L6.75 38.25
								 C7.2 38.25 7.5 38.55 7.5 39 L7.5 39.75 ZM7.5 36 C7.5 36.45 7.2 36.75 6.75 36.75 L5.25 36.75 C4.8
								 36.75 4.5 36.45 4.5 36 L4.5 35.25 C4.5 34.8 4.8 34.5 5.25 34.5 L6.75 34.5 C7.2 34.5 7.5 34.8 7.5
								 35.25 L7.5 36 ZM7.5 32.25 C7.5 32.7 7.2 33 6.75 33 L5.25 33 C4.8 33 4.5 32.7 4.5 32.25 L4.5 31.5
								 C4.5 31.05 4.8 30.75 5.25 30.75 L6.75 30.75 C7.2 30.75 7.5 31.05 7.5 31.5 L7.5 32.25 ZM12 39.75
								 C12 40.2 11.7 40.5 11.25 40.5 L9.75 40.5 C9.3 40.5 9 40.2 9 39.75 L9 39 C9 38.55 9.3 38.25 9.75
								 38.25 L11.25 38.25 C11.7 38.25 12 38.55 12 39 L12 39.75 ZM12 36 C12 36.45 11.7 36.75 11.25 36.75
								 L9.75 36.75 C9.3 36.75 9 36.45 9 36 L9 35.25 C9 34.8 9.3 34.5 9.75 34.5 L11.25 34.5 C11.7 34.5 12
								 34.8 12 35.25 L12 36 ZM12 32.25 C12 32.7 11.7 33 11.25 33 L9.75 33 C9.3 33 9 32.7 9 32.25 L9 31.5
								 C9 31.05 9.3 30.75 9.75 30.75 L11.25 30.75 C11.7 30.75 12 31.05 12 31.5 L12 32.25 ZM16.5 39.75 C16.5
								 40.2 16.2 40.5 15.75 40.5 L14.25 40.5 C13.8 40.5 13.5 40.2 13.5 39.75 L13.5 39 C13.5 38.55 13.8
								 38.25 14.25 38.25 L15.75 38.25 C16.2 38.25 16.5 38.55 16.5 39 L16.5 39.75 ZM16.5 36 C16.5 36.45
								 16.2 36.75 15.75 36.75 L14.25 36.75 C13.8 36.75 13.5 36.45 13.5 36 L13.5 35.25 C13.5 34.8 13.8 34.5
								 14.25 34.5 L15.75 34.5 C16.2 34.5 16.5 34.8 16.5 35.25 L16.5 36 ZM16.5 32.25 C16.5 32.7 16.2 33
								 15.75 33 L14.25 33 C13.8 33 13.5 32.7 13.5 32.25 L13.5 31.5 C13.5 31.05 13.8 30.75 14.25 30.75 L15.75
								 30.75 C16.2 30.75 16.5 31.05 16.5 31.5 L16.5 32.25 ZM17.25 27.75 L3.75 27.75 L3.75 22.5 L17.25 22.5
								 L17.25 27.75 Z" class="st3"/>
				</g>
			</g>
		</g>
	</g>
</svg>
