<?xml version="1.0" encoding="UTF-8" standalone="no"?>
<!DOCTYPE svg PUBLIC "-//W3C//DTD SVG 1.1//EN" "http://www.w3.org/Graphics/SVG/1.1/DTD/svg11.dtd">
<!-- Generated by Microsoft Visio, SVG Export UM-Enabled Mailbox.svg Page-1 -->
<svg xmlns="http://www.w3.org/2000/svg" xmlns:xlink="http://www.w3.org/1999/xlink" xmlns:ev="http://www.w3.org/2001/xml-events"
		xmlns:v="http://schemas.microsoft.com/visio/2003/SVGExtensions/" width="0.907292in" height="0.875in"
		viewBox="0 0 65.325 63" xml:space="preserve" color-interpolation-filters="sRGB" class="st3">
	<v:documentProperties v:langID="4108" v:metric="true" v:viewMarkup="false"/>

	<style type="text/css">
	<![CDATA[
		.st1 {fill:#ffffff;stroke:none;stroke-linecap:butt;stroke-width:0.75}
		.st2 {fill:#515150;stroke:none;stroke-linecap:butt;stroke-width:0.75}
		.st3 {fill:none;fill-rule:evenodd;font-size:12px;overflow:visible;stroke-linecap:square;stroke-miterlimit:3}
	]]>
	</style>

	<g v:mID="0" v:index="1" v:groupContext="foregroundPage">
		<title>Page-1</title>
		<v:pageProperties v:drawingScale="0.0393701" v:pageScale="0.0393701" v:drawingUnits="24" v:shadowOffsetX="8.50394"
				v:shadowOffsetY="-8.50394"/>
		<g id="group1046-1" transform="translate(0.75,-0.75)" v:mID="1046" v:groupContext="group">
			<title>UM-Enabled Mailbox</title>
			<g id="group1047-2" transform="translate(-5.9952E-14,-8.25)" v:mID="1047" v:groupContext="group">
				<title>Sheet.1047</title>
				<g id="group1048-3" v:mID="1048" v:groupContext="group">
					<title>Sheet.1048</title>
					<g id="shape1049-4" v:mID="1049" v:groupContext="shape">
						<title>Sheet.1049</title>
						<path d="M0 48 L0 63 L57 63 L57 48 L57 45.45 L56.55 43.5 L52.8 27.83 L51.75 27.83 L51.75 15.75 L50.25 15.75
									 L50.25 9.75 L6.75 9.75 L6.75 15.75 L5.25 15.75 L5.25 27.83 L4.2 27.83 L0.45 43.5 L0 45.45 L0
									 48 Z" class="st1"/>
					</g>
					<g id="group1050-6" transform="translate(15,-21.75)" v:mID="1050" v:groupContext="group">
						<title>Sheet.1050</title>
						<g id="shape1051-7" v:mID="1051" v:groupContext="shape" transform="translate(23.25,-11.25)">
							<title>Sheet.1051</title>
							<rect x="0" y="56.25" width="6" height="6.75" class="st2"/>
						</g>
						<g id="shape1052-9" v:mID="1052" v:groupContext="shape" transform="translate(0,-5.25)">
							<title>Sheet.1052</title>
							<rect x="0" y="60.75" width="15.75" height="2.25" class="st2"/>
						</g>
						<g id="shape1053-11" v:mID="1053" v:groupContext="shape">
							<title>Sheet.1053</title>
							<rect x="0" y="60.75" width="20.25" height="2.25" class="st2"/>
						</g>
					</g>
					<g id="shape1054-13" v:mID="1054" v:groupContext="shape" transform="translate(9,-47.25)">
						<title>Sheet.1054</title>
						<path d="M0 59.25 L0 63 L2.25 63 L2.25 61.5 L36.75 61.5 L36.75 63 L39 63 L39 59.25 L0 59.25 Z" class="st2"/>
					</g>
				</g>
				<g id="shape1055-15" v:mID="1055" v:groupContext="shape" transform="translate(2.25,-2.25)">
					<title>Sheet.1055</title>
					<path d="M48.75 32.33 L47.25 32.33 L47.25 20.25 L5.25 20.25 L5.25 32.33 L3.75 32.33 L0 48 L0 63 L52.5 63 L52.5
								 48 L48.75 32.33 ZM45 32.33 L45 48 L7.5 48 L7.5 32.33 L7.5 22.5 L45 22.5 L45 32.33 Z" class="st2"/>
				</g>
			</g>
			<g id="group1056-17" transform="translate(30.225,0)" v:mID="1056" v:groupContext="group">
				<title>Sheet.1056</title>
				<g id="shape1057-18" v:mID="1057" v:groupContext="shape">
					<title>Sheet.1057</title>
					<path d="M29.77 33.75 L11.77 33.75 C10.72 33.75 9.82 34.13 9.15 34.73 C8.77 34.43 8.33 34.2 7.8 34.05 C6.98 33.83
								 6.53 33.75 5.47 33.75 C4.43 33.75 3.9 33.83 3.07 34.05 C1.28 34.58 0.23 35.93 0.07 37.8 C-0 38.33
								 0.08 39 0.07 40.13 C0.15 41.7 0.23 44.25 0.23 48.68 C0.23 52.2 0.15 54.45 0.07 56.03 C-0 57.3 0
								 58.13 0.07 58.88 C0.15 60.75 1.35 62.18 3.15 62.7 C3.9 62.93 4.65 63 5.4 63 C6.23 63 6.98 62.93
								 7.8 62.7 C8.33 62.55 8.85 62.33 9.22 61.95 C9.9 62.55 10.8 62.93 11.85 62.93 L29.85 62.93 C32.02
								 62.93 33.6 61.35 33.6 59.18 L33.6 37.5 C33.52 35.33 31.95 33.75 29.77 33.75 Z" class="st1"/>
				</g>
				<g id="shape1058-20" v:mID="1058" v:groupContext="shape" transform="translate(2.1,-2.175)">
					<title>Sheet.1058</title>
					<path d="M6.45 40.13 C6.37 39.15 5.85 38.63 5.03 38.33 C4.5 38.18 4.27 38.1 3.3 38.1 C2.4 38.1 2.17 38.18 1.58
								 38.33 C0.75 38.63 0.23 39.15 0.15 40.13 C0.07 41.18 0.3 43.35 0.3 50.85 C0.3 57.15 0 59.48 0.15
								 60.98 C0.23 61.95 0.75 62.48 1.58 62.78 C2.1 62.93 2.62 63 3.23 63 C3.83 63 4.43 62.93 4.95 62.78
								 C5.78 62.55 6.3 61.95 6.38 60.98 C6.45 59.48 6.23 57.38 6.23 51 C6.3 43.58 6.53 41.25 6.45 40.13
								 Z" class="st2"/>
				</g>
				<g id="shape1059-22" v:mID="1059" v:groupContext="shape" transform="translate(10.275,-2.25)">
					<title>Sheet.1059</title>
					<path d="M19.5 38.25 L1.5 38.25 C0.52 38.25 0 38.78 0 39.75 L0 61.5 C0 62.48 0.52 63 1.5 63 L19.5 63 C20.47 63
								 21 62.48 21 61.5 L21 39.75 C21 38.78 20.47 38.25 19.5 38.25 ZM7.5 58.5 C7.5 58.95 7.2 59.25 6.75
								 59.25 L5.25 59.25 C4.8 59.25 4.5 58.95 4.5 58.5 L4.5 57.75 C4.5 57.3 4.8 57 5.25 57 L6.75 57 C7.2
								 57 7.5 57.3 7.5 57.75 L7.5 58.5 ZM7.5 54.75 C7.5 55.2 7.2 55.5 6.75 55.5 L5.25 55.5 C4.8 55.5 4.5
								 55.2 4.5 54.75 L4.5 54 C4.5 53.55 4.8 53.25 5.25 53.25 L6.75 53.25 C7.2 53.25 7.5 53.55 7.5 54 L7.5
								 54.75 ZM7.5 51 C7.5 51.45 7.2 51.75 6.75 51.75 L5.25 51.75 C4.8 51.75 4.5 51.45 4.5 51 L4.5 50.25
								 C4.5 49.8 4.8 49.5 5.25 49.5 L6.75 49.5 C7.2 49.5 7.5 49.8 7.5 50.25 L7.5 51 ZM12 58.5 C12 58.95
								 11.7 59.25 11.25 59.25 L9.75 59.25 C9.3 59.25 9 58.95 9 58.5 L9 57.75 C9 57.3 9.3 57 9.75 57 L11.25
								 57 C11.7 57 12 57.3 12 57.75 L12 58.5 ZM12 54.75 C12 55.2 11.7 55.5 11.25 55.5 L9.75 55.5 C9.3 55.5
								 9 55.2 9 54.75 L9 54 C9 53.55 9.3 53.25 9.75 53.25 L11.25 53.25 C11.7 53.25 12 53.55 12 54 L12 54.75
								 ZM12 51 C12 51.45 11.7 51.75 11.25 51.75 L9.75 51.75 C9.3 51.75 9 51.45 9 51 L9 50.25 C9 49.8 9.3
								 49.5 9.75 49.5 L11.25 49.5 C11.7 49.5 12 49.8 12 50.25 L12 51 ZM16.5 58.5 C16.5 58.95 16.2 59.25
								 15.75 59.25 L14.25 59.25 C13.8 59.25 13.5 58.95 13.5 58.5 L13.5 57.75 C13.5 57.3 13.8 57 14.25 57
								 L15.75 57 C16.2 57 16.5 57.3 16.5 57.75 L16.5 58.5 ZM16.5 54.75 C16.5 55.2 16.2 55.5 15.75 55.5
								 L14.25 55.5 C13.8 55.5 13.5 55.2 13.5 54.75 L13.5 54 C13.5 53.55 13.8 53.25 14.25 53.25 L15.75 53.25
								 C16.2 53.25 16.5 53.55 16.5 54 L16.5 54.75 ZM16.5 51 C16.5 51.45 16.2 51.75 15.75 51.75 L14.25 51.75
								 C13.8 51.75 13.5 51.45 13.5 51 L13.5 50.25 C13.5 49.8 13.8 49.5 14.25 49.5 L15.75 49.5 C16.2 49.5
								 16.5 49.8 16.5 50.25 L16.5 51 ZM17.25 46.5 L3.75 46.5 L3.75 41.25 L17.25 41.25 L17.25 46.5 Z"
							class="st2"/>
				</g>
			</g>
		</g>
	</g>
</svg>
