<?xml version="1.0" encoding="UTF-8" standalone="no"?>
<!DOCTYPE svg PUBLIC "-//W3C//DTD SVG 1.1//EN" "http://www.w3.org/Graphics/SVG/1.1/DTD/svg11.dtd">
<!-- Generated by Microsoft Visio, SVG Export User Mailbox.svg Page-1 -->
<svg xmlns="http://www.w3.org/2000/svg" xmlns:xlink="http://www.w3.org/1999/xlink" xmlns:ev="http://www.w3.org/2001/xml-events"
		xmlns:v="http://schemas.microsoft.com/visio/2003/SVGExtensions/" width="0.90625in" height="0.84375in"
		viewBox="0 0 65.25 60.75" xml:space="preserve" color-interpolation-filters="sRGB" class="st3">
	<v:documentProperties v:langID="4108" v:metric="true" v:viewMarkup="false"/>

	<style type="text/css">
	<![CDATA[
		.st1 {fill:#ffffff;stroke:none;stroke-linecap:butt;stroke-width:0.75}
		.st2 {fill:#515150;stroke:none;stroke-linecap:butt;stroke-width:0.75}
		.st3 {fill:none;fill-rule:evenodd;font-size:12px;overflow:visible;stroke-linecap:square;stroke-miterlimit:3}
	]]>
	</style>

	<g v:mID="0" v:index="1" v:groupContext="foregroundPage">
		<title>Page-1</title>
		<v:pageProperties v:drawingScale="0.0393701" v:pageScale="0.0393701" v:drawingUnits="24" v:shadowOffsetX="8.50394"
				v:shadowOffsetY="-8.50394"/>
		<g id="group1060-1" transform="translate(0.75,-0.75)" v:mID="1060" v:groupContext="group">
			<title>User Mailbox</title>
			<g id="group1061-2" transform="translate(-1.07914E-13,-6)" v:mID="1061" v:groupContext="group">
				<title>Sheet.1061</title>
				<g id="group1062-3" v:mID="1062" v:groupContext="group">
					<title>Sheet.1062</title>
					<g id="shape1063-4" v:mID="1063" v:groupContext="shape">
						<title>Sheet.1063</title>
						<path d="M0 45.75 L0 60.75 L57 60.75 L57 45.75 L57 43.2 L56.55 41.25 L52.8 25.58 L51.75 25.58 L51.75 13.5
									 L50.25 13.5 L50.25 7.5 L6.75 7.5 L6.75 13.5 L5.25 13.5 L5.25 25.58 L4.2 25.58 L0.45 41.25 L0
									 43.2 L0 45.75 Z" class="st1"/>
					</g>
					<g id="group1064-6" transform="translate(15,-21.75)" v:mID="1064" v:groupContext="group">
						<title>Sheet.1064</title>
						<g id="shape1065-7" v:mID="1065" v:groupContext="shape" transform="translate(23.25,-11.25)">
							<title>Sheet.1065</title>
							<rect x="0" y="54" width="6" height="6.75" class="st2"/>
						</g>
						<g id="shape1066-9" v:mID="1066" v:groupContext="shape" transform="translate(-4.29656E-14,-5.25)">
							<title>Sheet.1066</title>
							<rect x="0" y="58.5" width="15.75" height="2.25" class="st2"/>
						</g>
						<g id="shape1067-11" v:mID="1067" v:groupContext="shape">
							<title>Sheet.1067</title>
							<rect x="0" y="58.5" width="20.25" height="2.25" class="st2"/>
						</g>
					</g>
					<g id="shape1068-13" v:mID="1068" v:groupContext="shape" transform="translate(9,-47.25)">
						<title>Sheet.1068</title>
						<path d="M0 57 L0 60.75 L2.25 60.75 L2.25 59.25 L36.75 59.25 L36.75 60.75 L39 60.75 L39 57 L0 57 Z"
								class="st2"/>
					</g>
				</g>
				<g id="shape1069-15" v:mID="1069" v:groupContext="shape" transform="translate(2.25,-2.25)">
					<title>Sheet.1069</title>
					<path d="M48.75 30.08 L47.25 30.08 L47.25 18 L5.25 18 L5.25 30.08 L3.75 30.08 L0 45.75 L0 60.75 L52.5 60.75 L52.5
								 45.75 L48.75 30.08 ZM45 30.08 L45 45.75 L7.5 45.75 L7.5 30.08 L7.5 20.25 L45 20.25 L45 30.08 Z"
							class="st2"/>
				</g>
			</g>
			<g id="group1070-17" transform="translate(32.475,-9.9476E-14)" v:mID="1070" v:groupContext="group">
				<title>Sheet.1070</title>
				<g id="shape1071-18" v:mID="1071" v:groupContext="shape">
					<title>Sheet.1071</title>
					<path d="M31.13 58.35 C30.98 56.18 30.45 51.75 30 49.65 C29.4 47.17 28.58 45.38 26.18 44.03 C25.88 43.87 25.57
								 43.73 25.35 43.58 C24.3 42.97 23.48 42.53 22.73 42.3 C23.78 40.72 24.38 38.85 24.38 36.75 C24.38
								 31.57 20.48 27.3 15.68 27.3 C10.88 27.3 6.97 31.5 6.98 36.75 C6.97 38.85 7.58 40.72 8.63 42.3 C7.88
								 42.45 7.13 42.9 5.85 43.58 L5.1 44.03 C2.7 45.38 1.88 47.17 1.28 49.65 C0.83 51.75 0.3 56.18 0.15
								 58.35 L0 60.75 L31.28 60.75 L31.13 58.35 Z" class="st1"/>
				</g>
				<g id="shape1072-20" v:mID="1072" v:groupContext="shape" transform="translate(2.55,-2.25)">
					<title>Sheet.1072</title>
					<path d="M25.28 52.43 C24.75 50.25 24.15 49.2 22.58 48.3 C20.92 47.4 20.02 46.8 19.43 46.8 C19.12 46.8 18.98
								 46.88 18.75 46.95 C18.38 47.33 17.93 47.63 17.48 47.93 C17.48 47.93 17.48 47.93 17.48 47.93 C17.4
								 48 17.33 48 17.25 48.08 C16.8 48.38 16.35 48.53 15.83 48.68 C15 48.98 14.1 49.13 13.13 49.13 C12.15
								 49.13 11.25 48.98 10.43 48.68 C9.98 48.53 9.53 48.3 9.08 48.08 C8.55 47.78 8.02 47.4 7.58 46.95
								 C7.43 46.88 7.2 46.8 6.9 46.8 C6.3 46.8 5.63 47.25 3.75 48.3 C2.1 49.2 1.5 50.25 1.05 52.43 C0.6
								 54.3 0.08 58.65 0 60.75 L26.48 60.75 C26.18 58.65 25.65 54.38 25.28 52.43 Z" class="st2"/>
				</g>
				<g id="shape1073-22" v:mID="1073" v:groupContext="shape" transform="translate(9.15,-16.725)">
					<title>Sheet.1073</title>
					<path d="M6.45 60.75 C2.85 60.75 0 57.53 0 53.55 C0 49.58 2.93 46.35 6.45 46.35 C10.05 46.35 12.9 49.58 12.9
								 53.55 C12.98 57.53 10.05 60.75 6.45 60.75 Z" class="st2"/>
				</g>
			</g>
		</g>
	</g>
</svg>
