<?xml version="1.0" encoding="UTF-8" standalone="no"?>
<!DOCTYPE svg PUBLIC "-//W3C//DTD SVG 1.1//EN" "http://www.w3.org/Graphics/SVG/1.1/DTD/svg11.dtd">
<!-- Generated by Microsoft Visio, SVG Export Video Workload.svg Page-1 -->
<svg xmlns="http://www.w3.org/2000/svg" xmlns:xlink="http://www.w3.org/1999/xlink" xmlns:ev="http://www.w3.org/2001/xml-events"
		xmlns:v="http://schemas.microsoft.com/visio/2003/SVGExtensions/" width="0.875in" height="0.78125in" viewBox="0 0 63 56.25"
		xml:space="preserve" color-interpolation-filters="sRGB" class="st4">
	<v:documentProperties v:langID="4108" v:metric="true" v:viewMarkup="false"/>

	<style type="text/css">
	<![CDATA[
		.st1 {fill:#ffffff;stroke:none;stroke-linecap:butt;stroke-width:0.75}
		.st2 {fill:#515150;stroke:none;stroke-linecap:butt;stroke-width:0.75}
		.st3 {fill:#515050;stroke:none;stroke-linecap:butt;stroke-width:0.75}
		.st4 {fill:none;fill-rule:evenodd;font-size:12px;overflow:visible;stroke-linecap:square;stroke-miterlimit:3}
	]]>
	</style>

	<g v:mID="0" v:index="1" v:groupContext="foregroundPage">
		<title>Page-1</title>
		<v:pageProperties v:drawingScale="0.0393701" v:pageScale="0.0393701" v:drawingUnits="24" v:shadowOffsetX="8.50394"
				v:shadowOffsetY="-8.50394"/>
		<g id="group1074-1" transform="translate(0.75,-0.75)" v:mID="1074" v:groupContext="group">
			<title>Video Workload</title>
			<g id="group1075-2" transform="translate(-9.59233E-14,-8.25)" v:mID="1075" v:groupContext="group">
				<title>Sheet.1075</title>
				<g id="shape1076-3" v:mID="1076" v:groupContext="shape">
					<title>Sheet.1076</title>
					<path d="M50.62 30 L50.25 30 L50.25 9.75 L6.75 9.75 L6.75 30 L6.37 30 L0 38.25 L0 56.25 L57 56.25 L57 38.25 L50.62
								 30 Z" class="st1"/>
				</g>
				<g id="shape1077-5" v:mID="1077" v:groupContext="shape" transform="translate(9,-19.5)">
					<title>Sheet.1077</title>
					<rect x="0" y="54" width="39" height="2.25" class="st2"/>
				</g>
				<g id="shape1078-7" v:mID="1078" v:groupContext="shape" transform="translate(9,-24)">
					<title>Sheet.1078</title>
					<rect x="0" y="54" width="39" height="2.25" class="st2"/>
				</g>
				<g id="shape1079-9" v:mID="1079" v:groupContext="shape" transform="translate(9,-28.5)">
					<title>Sheet.1079</title>
					<rect x="0" y="54" width="39" height="2.25" class="st2"/>
				</g>
				<g id="shape1080-11" v:mID="1080" v:groupContext="shape" transform="translate(9,-33)">
					<title>Sheet.1080</title>
					<rect x="0" y="54" width="39" height="2.25" class="st2"/>
				</g>
				<g id="shape1081-13" v:mID="1081" v:groupContext="shape" transform="translate(9,-37.5)">
					<title>Sheet.1081</title>
					<rect x="0" y="54" width="39" height="2.25" class="st2"/>
				</g>
				<g id="shape1082-15" v:mID="1082" v:groupContext="shape" transform="translate(2.25,-2.25)">
					<title>Sheet.1082</title>
					<path d="M48 35.47 L48 41.25 L4.5 41.25 L4.5 35.47 L0 41.25 L0 56.25 L52.5 56.25 L52.5 41.25 L48 35.47 Z"
							class="st2"/>
				</g>
				<g id="shape1083-17" v:mID="1083" v:groupContext="shape" transform="translate(9,-42)">
					<title>Sheet.1083</title>
					<rect x="0" y="54" width="39" height="2.25" class="st2"/>
				</g>
			</g>
			<g id="group1084-19" transform="translate(30,-2.55795E-13)" v:mID="1084" v:groupContext="group">
				<title>Sheet.1084</title>
				<g id="shape1085-20" v:mID="1085" v:groupContext="shape">
					<title>Sheet.1085</title>
					<rect x="0" y="24" width="31.5" height="32.25" class="st1"/>
				</g>
				<g id="shape1086-22" v:mID="1086" v:groupContext="shape" transform="translate(2.25,-2.25)">
					<title>Sheet.1086</title>
					<path d="M21.75 28.5 L5.25 28.5 L0 28.5 L0 30.75 L0 41.25 L0 43.5 L0 54 L0 56.25 L5.25 56.25 L21.75 56.25 L27
								 56.25 L27 54 L27 43.5 L27 41.25 L27 30.75 L27 28.5 L21.75 28.5 ZM21.75 54 L5.25 54 L5.25 43.5 L21.75
								 43.5 L21.75 54 ZM21.75 41.25 L5.25 41.25 L5.25 30.75 L21.75 30.75 L21.75 41.25 Z" class="st3"/>
				</g>
				<g id="group1087-24" transform="translate(3.75,-1.5)" v:mID="1087" v:groupContext="group">
					<title>Sheet.1087</title>
					<g id="shape1088-25" v:mID="1088" v:groupContext="shape" transform="translate(-5.7454E-15,-27)">
						<title>Sheet.1088</title>
						<rect x="0" y="54" width="2.25" height="2.25" class="st1"/>
					</g>
					<g id="shape1089-27" v:mID="1089" v:groupContext="shape" transform="translate(-5.7454E-15,-22.5)">
						<title>Sheet.1089</title>
						<rect x="0" y="54" width="2.25" height="2.25" class="st1"/>
					</g>
					<g id="shape1090-29" v:mID="1090" v:groupContext="shape" transform="translate(-5.7454E-15,-18)">
						<title>Sheet.1090</title>
						<rect x="0" y="54" width="2.25" height="2.25" class="st1"/>
					</g>
					<g id="shape1091-31" v:mID="1091" v:groupContext="shape" transform="translate(-5.7454E-15,-13.5)">
						<title>Sheet.1091</title>
						<rect x="0" y="54" width="2.25" height="2.25" class="st1"/>
					</g>
					<g id="shape1092-33" v:mID="1092" v:groupContext="shape" transform="translate(-5.7454E-15,-9)">
						<title>Sheet.1092</title>
						<rect x="0" y="54" width="2.25" height="2.25" class="st1"/>
					</g>
					<g id="shape1093-35" v:mID="1093" v:groupContext="shape" transform="translate(-5.7454E-15,-4.5)">
						<title>Sheet.1093</title>
						<rect x="0" y="54" width="2.25" height="2.25" class="st1"/>
					</g>
					<g id="shape1094-37" v:mID="1094" v:groupContext="shape">
						<title>Sheet.1094</title>
						<rect x="0" y="54" width="2.25" height="2.25" class="st1"/>
					</g>
				</g>
				<g id="group1095-39" transform="translate(25.5,-1.5)" v:mID="1095" v:groupContext="group">
					<title>Sheet.1095</title>
					<g id="shape1096-40" v:mID="1096" v:groupContext="shape" transform="translate(-5.7454E-15,-27)">
						<title>Sheet.1096</title>
						<rect x="0" y="54" width="2.25" height="2.25" class="st1"/>
					</g>
					<g id="shape1097-42" v:mID="1097" v:groupContext="shape" transform="translate(-5.7454E-15,-22.5)">
						<title>Sheet.1097</title>
						<rect x="0" y="54" width="2.25" height="2.25" class="st1"/>
					</g>
					<g id="shape1098-44" v:mID="1098" v:groupContext="shape" transform="translate(-5.7454E-15,-18)">
						<title>Sheet.1098</title>
						<rect x="0" y="54" width="2.25" height="2.25" class="st1"/>
					</g>
					<g id="shape1099-46" v:mID="1099" v:groupContext="shape" transform="translate(-5.7454E-15,-13.5)">
						<title>Sheet.1099</title>
						<rect x="0" y="54" width="2.25" height="2.25" class="st1"/>
					</g>
					<g id="shape1100-48" v:mID="1100" v:groupContext="shape" transform="translate(-5.7454E-15,-9)">
						<title>Sheet.1100</title>
						<rect x="0" y="54" width="2.25" height="2.25" class="st1"/>
					</g>
					<g id="shape1101-50" v:mID="1101" v:groupContext="shape" transform="translate(-5.7454E-15,-4.5)">
						<title>Sheet.1101</title>
						<rect x="0" y="54" width="2.25" height="2.25" class="st1"/>
					</g>
					<g id="shape1102-52" v:mID="1102" v:groupContext="shape">
						<title>Sheet.1102</title>
						<rect x="0" y="54" width="2.25" height="2.25" class="st1"/>
					</g>
				</g>
			</g>
		</g>
	</g>
</svg>
