<?xml version="1.0" encoding="UTF-8" standalone="no"?>
<!DOCTYPE svg PUBLIC "-//W3C//DTD SVG 1.1//EN" "http://www.w3.org/Graphics/SVG/1.1/DTD/svg11.dtd">
<!-- Generated by Microsoft Visio, SVG Export Voice Mail Preview Partner.svg Page-1 -->
<svg xmlns="http://www.w3.org/2000/svg" xmlns:xlink="http://www.w3.org/1999/xlink" xmlns:ev="http://www.w3.org/2001/xml-events"
		xmlns:v="http://schemas.microsoft.com/visio/2003/SVGExtensions/" width="0.729167in" height="0.864583in"
		viewBox="0 0 52.5 62.25" xml:space="preserve" color-interpolation-filters="sRGB" class="st4">
	<v:documentProperties v:langID="4108" v:metric="true" v:viewMarkup="false"/>

	<style type="text/css">
	<![CDATA[
		.st1 {fill:#ffffff;stroke:none;stroke-linecap:butt;stroke-width:0.75}
		.st2 {fill:#515050;stroke:none;stroke-linecap:butt;stroke-width:0.75}
		.st3 {fill:#515150;stroke:none;stroke-linecap:butt;stroke-width:0.75}
		.st4 {fill:none;fill-rule:evenodd;font-size:12px;overflow:visible;stroke-linecap:square;stroke-miterlimit:3}
	]]>
	</style>

	<g v:mID="0" v:index="1" v:groupContext="foregroundPage">
		<title>Page-1</title>
		<v:pageProperties v:drawingScale="0.0393701" v:pageScale="0.0393701" v:drawingUnits="24" v:shadowOffsetX="8.50394"
				v:shadowOffsetY="-8.50394"/>
		<g id="group1103-1" transform="translate(0.75,-0.75)" v:mID="1103" v:groupContext="group">
			<title>Voice Mail Preview Partner</title>
			<g id="group1104-2" transform="translate(-2.43805E-13,-3.75)" v:mID="1104" v:groupContext="group">
				<title>Sheet.1104</title>
				<g id="shape1105-3" v:mID="1105" v:groupContext="shape">
					<title>Sheet.1105</title>
					<path d="M0 62.25 L0 10.5 C0 7.57 2.33 5.25 5.25 5.25 L26.25 5.25 C29.18 5.25 31.5 7.57 31.5 10.5 L31.5 62.25
								 L0 62.25 Z" class="st1"/>
				</g>
				<g id="shape1106-5" v:mID="1106" v:groupContext="shape" transform="translate(2.25,-2.25)">
					<title>Sheet.1106</title>
					<path d="M24 9.75 L3 9.75 C1.35 9.75 0 11.1 0 12.75 L0 62.25 L27 62.25 L27 12.75 C27 11.1 25.65 9.75 24 9.75
								 ZM21.75 56.25 L5.25 56.25 L5.25 54 L21.75 54 L21.75 56.25 ZM21.75 49.5 L5.25 49.5 L5.25 47.25 L21.75
								 47.25 L21.75 49.5 ZM21.75 18.75 L5.25 18.75 L5.25 16.5 L21.75 16.5 L21.75 18.75 Z" class="st2"/>
				</g>
			</g>
			<g id="group1107-7" transform="translate(17.25,-1.20792E-13)" v:mID="1107" v:groupContext="group">
				<title>Sheet.1107</title>
				<g id="shape1108-8" v:mID="1108" v:groupContext="shape">
					<title>Sheet.1108</title>
					<path d="M3.75 62.25 C1.65 62.25 0 60.6 0 58.5 L0 42.75 C0 40.65 1.65 39 3.75 39 L30 39 C32.1 39 33.75 40.65
								 33.75 42.75 L33.75 58.5 C33.75 60.6 32.1 62.25 30 62.25 L3.75 62.25 Z" class="st1"/>
				</g>
				<g id="shape1109-10" v:mID="1109" v:groupContext="shape" transform="translate(21,-9.375)">
					<title>Sheet.1109</title>
					<path d="M2.63 57 C1.2 57 0 58.2 0 59.62 C0 61.05 1.2 62.25 2.63 62.25 C4.05 62.25 5.25 61.05 5.25 59.62 C5.25
								 58.2 4.05 57 2.63 57 Z" class="st3"/>
				</g>
				<g id="shape1110-12" v:mID="1110" v:groupContext="shape" transform="translate(7.5,-9.375)">
					<title>Sheet.1110</title>
					<path d="M2.63 57 C1.2 57 0 58.2 0 59.62 C0 61.05 1.2 62.25 2.63 62.25 C4.05 62.25 5.25 61.05 5.25 59.62 C5.25
								 58.2 4.05 57 2.63 57 Z" class="st3"/>
				</g>
				<g id="shape1111-14" v:mID="1111" v:groupContext="shape" transform="translate(2.25,-2.25)">
					<title>Sheet.1111</title>
					<path d="M27.75 43.5 L1.5 43.5 C0.67 43.5 0 44.17 0 45 L0 60.75 C-0 61.57 0.67 62.25 1.5 62.25 L27.75 62.25 C28.58
								 62.25 29.25 61.57 29.25 60.75 L29.25 45 C29.25 44.17 28.58 43.5 27.75 43.5 ZM26.62 52.8 C26.48 55.65
								 24 57.75 21.15 57.75 L8.1 57.75 C5.32 57.75 2.85 55.65 2.7 52.8 C2.48 49.5 5.32 46.87 8.62 47.25
								 C10.73 47.55 12.53 49.12 13.05 51.15 C13.35 52.42 13.2 53.7 12.67 54.75 C12.53 55.05 12.75 55.42
								 13.12 55.42 L16.35 55.42 C16.72 55.42 16.95 55.05 16.8 54.75 C16.28 53.62 16.12 52.42 16.42 51.15
								 C16.95 49.05 18.75 47.55 20.85 47.25 C24 46.87 26.78 49.57 26.62 52.8 Z" class="st3"/>
				</g>
			</g>
		</g>
	</g>
</svg>
