<?xml version="1.0" encoding="UTF-8" standalone="no"?>
<!DOCTYPE svg PUBLIC "-//W3C//DTD SVG 1.1//EN" "http://www.w3.org/Graphics/SVG/1.1/DTD/svg11.dtd">
<!-- Generated by Microsoft Visio, SVG Export Voice Workload.svg Page-1 -->
<svg xmlns="http://www.w3.org/2000/svg" xmlns:xlink="http://www.w3.org/1999/xlink" xmlns:ev="http://www.w3.org/2001/xml-events"
		xmlns:v="http://schemas.microsoft.com/visio/2003/SVGExtensions/" width="0.884874in" height="0.7875in"
		viewBox="0 0 63.7109 56.7" xml:space="preserve" color-interpolation-filters="sRGB" class="st3">
	<v:documentProperties v:langID="4108" v:metric="true" v:viewMarkup="false"/>

	<style type="text/css">
	<![CDATA[
		.st1 {fill:#ffffff;stroke:none;stroke-linecap:butt;stroke-width:0.75}
		.st2 {fill:#515150;stroke:none;stroke-linecap:butt;stroke-width:0.75}
		.st3 {fill:none;fill-rule:evenodd;font-size:12px;overflow:visible;stroke-linecap:square;stroke-miterlimit:3}
	]]>
	</style>

	<g v:mID="0" v:index="1" v:groupContext="foregroundPage">
		<title>Page-1</title>
		<v:pageProperties v:drawingScale="0.0393701" v:pageScale="0.0393701" v:drawingUnits="24" v:shadowOffsetX="8.50394"
				v:shadowOffsetY="-8.50394"/>
		<g id="group1112-1" transform="translate(0.75,-0.75)" v:mID="1112" v:groupContext="group">
			<title>Voice Workload</title>
			<g id="group1113-2" transform="translate(-2.79776E-14,-8.7)" v:mID="1113" v:groupContext="group">
				<title>Sheet.1113</title>
				<g id="shape1114-3" v:mID="1114" v:groupContext="shape">
					<title>Sheet.1114</title>
					<path d="M50.62 30.45 L50.25 30.45 L50.25 10.2 L6.75 10.2 L6.75 30.45 L6.37 30.45 L0 38.7 L0 56.7 L54.75 56.7
								 L57 38.7 L50.62 30.45 Z" class="st1"/>
				</g>
				<g id="shape1115-5" v:mID="1115" v:groupContext="shape" transform="translate(9,-19.5)">
					<title>Sheet.1115</title>
					<rect x="0" y="54.45" width="39" height="2.25" class="st2"/>
				</g>
				<g id="shape1116-7" v:mID="1116" v:groupContext="shape" transform="translate(9,-24)">
					<title>Sheet.1116</title>
					<rect x="0" y="54.45" width="39" height="2.25" class="st2"/>
				</g>
				<g id="shape1117-9" v:mID="1117" v:groupContext="shape" transform="translate(9,-28.5)">
					<title>Sheet.1117</title>
					<rect x="0" y="54.45" width="39" height="2.25" class="st2"/>
				</g>
				<g id="shape1118-11" v:mID="1118" v:groupContext="shape" transform="translate(9,-33)">
					<title>Sheet.1118</title>
					<rect x="0" y="54.45" width="39" height="2.25" class="st2"/>
				</g>
				<g id="shape1119-13" v:mID="1119" v:groupContext="shape" transform="translate(9,-37.5)">
					<title>Sheet.1119</title>
					<rect x="0" y="54.45" width="39" height="2.25" class="st2"/>
				</g>
				<g id="shape1120-15" v:mID="1120" v:groupContext="shape" transform="translate(2.25,-2.25)">
					<title>Sheet.1120</title>
					<path d="M48 38.18 L48 41.7 L4.5 41.7 L4.5 35.93 L0 41.7 L0 56.7 L52.5 56.7 L52.5 41.7 L48 38.18 Z" class="st2"/>
				</g>
				<g id="shape1121-17" v:mID="1121" v:groupContext="shape" transform="translate(9,-42)">
					<title>Sheet.1121</title>
					<rect x="0" y="54.45" width="39" height="2.25" class="st2"/>
				</g>
			</g>
			<g id="group1122-19" transform="translate(33.825,1.49214E-13)" v:mID="1122" v:groupContext="group">
				<title>Sheet.1122</title>
				<g id="shape1123-20" v:mID="1123" v:groupContext="shape">
					<title>Sheet.1123</title>
					<path d="M8.1 56.7 C6.07 56.7 4.27 56.1 2.55 54.98 L2.32 54.83 L2.17 54.75 C1.5 54.23 0.9 53.55 0.6 52.73 L0.52
								 52.58 C0 51.08 0.3 49.13 1.27 47.7 L3.15 44.93 C4.27 43.35 5.85 42.45 7.35 42.45 C7.57 42.45 7.87
								 42.45 8.1 42.53 C8.7 42.68 9.3 42.9 9.82 43.28 L11.25 44.33 L17.1 36.08 L15.67 35.1 C15.15 34.73
								 14.77 34.28 14.47 33.75 C13.58 32.18 13.8 30.08 15 28.35 L17.02 25.58 C18 24.23 19.72 23.25 21.3
								 23.25 L21.45 23.25 C22.35 23.25 23.17 23.55 23.92 24 L24.3 24.23 C25.95 25.43 27.07 27 27.75 28.88
								 C28.95 32.25 28.42 36.38 26.4 40.13 C26.17 40.65 25.05 42.83 23.17 45.6 L22.42 46.65 C20.4 49.43
								 18.75 51.15 18.3 51.6 C15.37 54.9 11.7 56.7 8.1 56.7 Z" class="st1"/>
				</g>
				<g id="shape1124-22" v:mID="1124" v:groupContext="shape" transform="translate(2.475,-2.25)">
					<title>Sheet.1124</title>
					<path d="M18 47.7 C15.9 50.55 14.1 52.35 14.1 52.35 C11.7 55.13 8.55 56.7 5.62 56.7 C4.05 56.7 2.62 56.25 1.35
								 55.35 L1.2 55.28 L1.05 55.13 C0.67 54.9 0.45 54.53 0.3 54.08 C0.3 54.08 0.3 54 0.3 54 C-0 53.18
								 0.22 52.05 0.75 51.23 L2.62 48.45 C3.37 47.48 4.42 46.88 5.25 47.03 C5.55 47.1 5.77 47.18 6.07 47.4
								 L7.72 48.6 C8.63 49.2 9.82 48.98 10.42 48.15 L16.57 39.45 C17.17 38.55 16.95 37.35 16.12 36.75 L14.47
								 35.55 C14.25 35.4 14.03 35.18 13.87 34.88 C13.42 34.13 13.65 32.93 14.32 31.88 L16.35 29.18 C16.95
								 28.35 17.92 27.75 18.82 27.83 C18.82 27.83 18.9 27.83 18.9 27.83 C19.35 27.83 19.8 27.98 20.1 28.2
								 L20.25 28.35 L20.4 28.43 C21.67 29.33 22.57 30.53 23.1 32.03 C24.07 34.8 23.62 38.25 21.82 41.48
								 C21.82 41.55 20.7 43.8 18.75 46.73 L18 47.7 Z" class="st2"/>
				</g>
			</g>
		</g>
	</g>
</svg>
