<?xml version="1.0" encoding="UTF-8" standalone="no"?>
<!DOCTYPE svg PUBLIC "-//W3C//DTD SVG 1.1//EN" "http://www.w3.org/Graphics/SVG/1.1/DTD/svg11.dtd">
<!-- Generated by Microsoft Visio, SVG Export VoIP Gateway.svg Page-1 -->
<svg xmlns="http://www.w3.org/2000/svg" xmlns:xlink="http://www.w3.org/1999/xlink" xmlns:ev="http://www.w3.org/2001/xml-events"
		xmlns:v="http://schemas.microsoft.com/visio/2003/SVGExtensions/" width="0.791667in" height="0.291667in" viewBox="0 0 57 21"
		xml:space="preserve" color-interpolation-filters="sRGB" class="st3">
	<v:documentProperties v:langID="4108" v:metric="true" v:viewMarkup="false"/>

	<style type="text/css">
	<![CDATA[
		.st1 {fill:#ffffff;stroke:none;stroke-linecap:butt;stroke-width:0.75}
		.st2 {fill:#515050;stroke:none;stroke-linecap:butt;stroke-width:0.75}
		.st3 {fill:none;fill-rule:evenodd;font-size:12px;overflow:visible;stroke-linecap:square;stroke-miterlimit:3}
	]]>
	</style>

	<g v:mID="0" v:index="1" v:groupContext="foregroundPage">
		<title>Page-1</title>
		<v:pageProperties v:drawingScale="0.0393701" v:pageScale="0.0393701" v:drawingUnits="24" v:shadowOffsetX="8.50394"
				v:shadowOffsetY="-8.50394"/>
		<g id="group1125-1" transform="translate(0.75,-0.75)" v:mID="1125" v:groupContext="group">
			<title>VoIP Gateway</title>
			<g id="group1126-2" v:mID="1126" v:groupContext="group">
				<title>Sheet.1126</title>
				<g id="shape1127-3" v:mID="1127" v:groupContext="shape">
					<title>Sheet.1127</title>
					<path d="M0 21 L0 7.12 C0 4.2 2.7 1.5 5.7 1.5 L49.72 1.5 C52.72 1.5 55.5 4.2 55.5 7.12 L55.5 21 L0 21 Z"
							class="st1"/>
				</g>
				<g id="shape1128-5" v:mID="1128" v:groupContext="shape" transform="translate(2.25,-2.25)">
					<title>Sheet.1128</title>
					<path d="M39.45 6 L3.53 6 C1.73 6 0 7.72 0 9.37 L0 21 L51 21 L51 9.37 C51 7.65 49.28 6 47.55 6 L39.45 6 Z"
							class="st2"/>
				</g>
				<g id="group1129-7" transform="translate(11.25,-8.25)" v:mID="1129" v:groupContext="group">
					<title>Sheet.1129</title>
					<g id="shape1130-8" v:mID="1130" v:groupContext="shape">
						<title>Sheet.1130</title>
						<ellipse cx="1.5" cy="19.5" rx="1.5" ry="1.5" class="st1"/>
					</g>
					<g id="shape1131-10" v:mID="1131" v:groupContext="shape" transform="translate(7.5,3.55271E-14)">
						<title>Sheet.1131</title>
						<ellipse cx="1.5" cy="19.5" rx="1.5" ry="1.5" class="st1"/>
					</g>
					<g id="shape1132-12" v:mID="1132" v:groupContext="shape" transform="translate(15,3.55271E-14)">
						<title>Sheet.1132</title>
						<ellipse cx="1.5" cy="19.5" rx="1.5" ry="1.5" class="st1"/>
					</g>
					<g id="shape1133-14" v:mID="1133" v:groupContext="shape" transform="translate(22.5,3.55271E-14)">
						<title>Sheet.1133</title>
						<ellipse cx="1.5" cy="19.5" rx="1.5" ry="1.5" class="st1"/>
					</g>
					<g id="shape1134-16" v:mID="1134" v:groupContext="shape" transform="translate(30,3.55271E-14)">
						<title>Sheet.1134</title>
						<ellipse cx="1.5" cy="19.5" rx="1.5" ry="1.5" class="st1"/>
					</g>
				</g>
			</g>
		</g>
	</g>
</svg>
