<?xml version="1.0" encoding="UTF-8" standalone="no"?>
<!DOCTYPE svg PUBLIC "-//W3C//DTD SVG 1.1//EN" "http://www.w3.org/Graphics/SVG/1.1/DTD/svg11.dtd">
<!-- Generated by Microsoft Visio, SVG Export Watcher Node.svg Page-1 -->
<svg xmlns="http://www.w3.org/2000/svg" xmlns:xlink="http://www.w3.org/1999/xlink" xmlns:ev="http://www.w3.org/2001/xml-events"
		xmlns:v="http://schemas.microsoft.com/visio/2003/SVGExtensions/" width="0.8125in" height="0.876042in"
		viewBox="0 0 58.5 63.075" xml:space="preserve" color-interpolation-filters="sRGB" class="st3">
	<v:documentProperties v:langID="4108" v:metric="true" v:viewMarkup="false"/>

	<style type="text/css">
	<![CDATA[
		.st1 {fill:#ffffff;stroke:none;stroke-linecap:butt;stroke-width:0.75}
		.st2 {fill:#515050;stroke:none;stroke-linecap:butt;stroke-width:0.75}
		.st3 {fill:none;fill-rule:evenodd;font-size:12px;overflow:visible;stroke-linecap:square;stroke-miterlimit:3}
	]]>
	</style>

	<g v:mID="0" v:index="1" v:groupContext="foregroundPage">
		<title>Page-1</title>
		<v:pageProperties v:drawingScale="0.0393701" v:pageScale="0.0393701" v:drawingUnits="24" v:shadowOffsetX="8.50394"
				v:shadowOffsetY="-8.50394"/>
		<g id="group1135-1" transform="translate(0.75,-0.75)" v:mID="1135" v:groupContext="group">
			<title>Watcher Node</title>
			<g id="group1136-2" v:mID="1136" v:groupContext="group">
				<title>Sheet.1136</title>
				<g id="shape1137-3" v:mID="1137" v:groupContext="shape" transform="translate(-2.39808E-14,-3.075)">
					<title>Sheet.1137</title>
					<path d="M50.25 47.85 L26.25 61.73 L26.25 63.08 L25.12 62.4 L24 63.08 L24 61.73 L0 47.85 L0 19.13 L1.57 18.23
								 L25.12 4.58 L50.25 19.13 L50.25 47.85 Z" class="st1"/>
				</g>
				<g id="shape1138-5" v:mID="1138" v:groupContext="shape" transform="translate(4.05,-34.575)">
					<title>Sheet.1138</title>
					<path d="M0 50.85 L21.07 38.7 L42.07 50.85 L21.07 63.08 L0 50.85 Z" class="st2"/>
				</g>
				<g id="shape1139-7" v:mID="1139" v:groupContext="shape" transform="translate(2.25,-7.05)">
					<title>Sheet.1139</title>
					<path d="M0 50.48 L0 25.2 L21.75 37.8 L21.75 63.08 L0 50.48 Z" class="st2"/>
				</g>
				<g id="shape1140-9" v:mID="1140" v:groupContext="shape" transform="translate(26.25,-7.05)">
					<title>Sheet.1140</title>
					<path d="M0 37.73 L21.75 25.13 L21.75 50.48 L0 63.08 L0 37.73 Z" class="st2"/>
				</g>
				<g id="group1141-11" transform="translate(18.75,-7.10543E-14)" v:mID="1141" v:groupContext="group">
					<title>Sheet.1141</title>
					<g id="shape1142-12" v:mID="1142" v:groupContext="shape">
						<title>Sheet.1142</title>
						<path d="M25.43 63.08 C23.85 63.08 22.2 62.55 20.93 61.58 C20.1 60.9 19.5 60.15 19.13 59.25 C18.83 60 18.37
									 60.6 17.78 61.2 C16.5 62.48 14.7 63.08 12.9 63.08 C11.7 63.08 11.03 63.08 10.05 63 C9.6 63 9.07
									 63 8.4 62.93 C5.7 62.85 2.78 60.9 1.65 57.68 L0.9 57.68 C0.37 57.68 0 57.23 0 56.7 L0 53.1 C-0
									 52.87 0.08 52.65 0.22 52.5 L5.63 47.02 L6.08 46.57 L6.23 46.5 C7.27 45.67 8.33 45.3 9.38 45.3
									 C10.12 45.3 10.88 45.52 11.48 45.9 C13.35 47.1 13.65 49.12 13.73 50.33 L24.53 50.33 C24.53 49.12
									 24.9 47.1 26.78 45.9 C27.45 45.52 28.13 45.3 28.88 45.3 C29.93 45.3 30.98 45.67 32.03 46.5 L32.18
									 46.57 L32.93 47.32 L38.03 52.5 C38.17 52.65 38.25 52.87 38.25 53.1 L38.25 56.7 C38.25 57.23
									 37.88 57.68 37.35 57.68 L36.68 57.68 C35.63 60.98 32.78 62.93 30.15 62.93 C29.25 62.93 28.58
									 62.93 27.9 63 C27.08 63.08 26.4 63.08 25.43 63.08 Z" class="st1"/>
					</g>
					<g id="shape1143-14" v:mID="1143" v:groupContext="shape" transform="translate(2.25,-2.4)">
						<title>Sheet.1143</title>
						<path d="M29.1 51.3 L28.5 50.7 C27.83 50.17 26.7 49.65 25.73 50.25 C24.75 50.85 24.6 51.97 24.53 52.72 C24.52
									 53.1 24.83 53.4 25.13 53.4 L25.43 53.4 C25.8 53.4 26.1 53.1 26.03 52.72 C26.03 52.2 26.1 51.52
									 26.93 51.67 C27.38 51.75 27.83 52.42 27.83 52.42 L28.35 53.1 L29.78 55.05 L19.95 55.05 L13.88
									 55.05 L4.05 55.05 L5.4 53.17 L6.08 52.35 C6.07 52.35 6.53 51.82 6.9 51.67 C7.72 51.45 7.8 52.12
									 7.8 52.72 C7.8 53.1 8.03 53.4 8.4 53.4 L8.7 53.4 C9.08 53.4 9.3 53.1 9.3 52.72 C9.3 51.97 9.08
									 50.85 8.1 50.25 C7.12 49.65 6.07 50.17 5.33 50.7 L5.03 51 L0.23 55.88 C0.08 56.03 0 56.17 0
									 56.33 L0 57.38 C0 57.6 0.22 57.82 0.45 57.83 L1.2 57.83 C1.5 61.13 4.05 63 6.15 63 C8.25 63.08
									 8.93 63.08 10.8 63.08 C12.6 63.08 15.23 61.73 15.08 58.58 L15.3 58.58 C15.45 57.45 16.05 56.63
									 16.8 56.63 C17.55 56.63 18.15 57.45 18.3 58.58 L18.53 58.58 C18.3 61.73 21 63.08 22.8 63.08
									 C24.68 63.08 25.73 63 27.68 63 C29.63 63 32.1 61.13 32.4 57.83 L33.15 57.83 C33.38 57.83 33.6
									 57.6 33.6 57.38 L33.6 56.33 C33.6 56.17 33.53 55.95 33.38 55.88 L29.1 51.3 ZM9.08 61.8 C6.15
									 61.73 4.88 61.88 4.05 59.55 C3.23 57.23 4.95 56.48 6.53 56.4 C8.1 56.32 9.15 56.4 10.65 56.4
									 C12.15 56.4 13.2 57.3 13.13 59.1 C13.05 60.9 12.08 61.88 9.08 61.8 ZM29.78 59.55 C28.95 61.88
									 27.67 61.65 24.75 61.8 C21.83 61.88 20.85 60.9 20.78 59.1 C20.7 57.3 21.75 56.48 23.25 56.4
									 C24.9 56.4 26.33 56.32 27.68 56.4 C29.03 56.48 30.6 57.3 29.78 59.55 Z" class="st2"/>
					</g>
				</g>
				<g id="shape1144-16" v:mID="1144" v:groupContext="shape" transform="translate(38.775,-11.625)">
					<title>Sheet.1144</title>
					<path d="M5.03 58.88 L0 62.1 L0.9 62.93 L4.88 63.08 L5.78 62.18 L6 59.18 L5.03 58.88 Z" class="st1"/>
				</g>
			</g>
		</g>
	</g>
</svg>
