<?xml version="1.0" encoding="UTF-8" standalone="no"?>
<!DOCTYPE svg PUBLIC "-//W3C//DTD SVG 1.1//EN" "http://www.w3.org/Graphics/SVG/1.1/DTD/svg11.dtd">
<!-- Generated by Microsoft Visio, SVG Export XMPP Service.svg Page-1 -->
<svg xmlns="http://www.w3.org/2000/svg" xmlns:xlink="http://www.w3.org/1999/xlink" xmlns:ev="http://www.w3.org/2001/xml-events"
		xmlns:v="http://schemas.microsoft.com/visio/2003/SVGExtensions/" width="0.882179in" height="0.802083in"
		viewBox="0 0 63.5169 57.75" xml:space="preserve" color-interpolation-filters="sRGB" class="st4">
	<v:documentProperties v:langID="4108" v:metric="true" v:viewMarkup="false"/>

	<style type="text/css">
	<![CDATA[
		.st1 {fill:#ffffff;stroke:none;stroke-linecap:butt;stroke-width:0.75}
		.st2 {fill:#515050;stroke:none;stroke-linecap:butt;stroke-width:0.75}
		.st3 {fill:#515150;stroke:none;stroke-linecap:butt;stroke-width:0.75}
		.st4 {fill:none;fill-rule:evenodd;font-size:12px;overflow:visible;stroke-linecap:square;stroke-miterlimit:3}
	]]>
	</style>

	<g v:mID="0" v:index="1" v:groupContext="foregroundPage">
		<title>Page-1</title>
		<v:pageProperties v:drawingScale="0.0393701" v:pageScale="0.0393701" v:drawingUnits="24" v:shadowOffsetX="8.50394"
				v:shadowOffsetY="-8.50394"/>
		<g id="group1145-1" transform="translate(0.75,-0.75)" v:mID="1145" v:groupContext="group">
			<title>XMPP Service</title>
			<g id="group1146-2" v:mID="1146" v:groupContext="group">
				<title>Sheet.1146</title>
				<g id="group1147-3" transform="translate(2.31815E-13,-21)" v:mID="1147" v:groupContext="group">
					<title>Sheet.1147</title>
					<g id="shape1148-4" v:mID="1148" v:groupContext="shape">
						<title>Sheet.1148</title>
						<path d="M0 57.75 L0 22.5 L60.75 22.5 L60.75 57.75 L0 57.75 Z" class="st1"/>
					</g>
					<g id="group1149-6" transform="translate(9.15,-12)" v:mID="1149" v:groupContext="group">
						<title>Sheet.1149</title>
						<g id="shape1150-7" v:mID="1150" v:groupContext="shape">
							<title>Sheet.1150</title>
							<path d="M7.42 57.75 L5.1 53.7 C5.02 53.63 5.02 53.55 5.02 53.4 L4.95 53.1 C4.87 53.18 4.87 53.33 4.87
										 53.4 C4.87 53.48 4.8 53.55 4.72 53.7 L2.25 57.75 L0 57.75 L3.67 52.2 L0.3 46.73 L2.55 46.73
										 L4.5 50.33 C4.65 50.63 4.8 50.93 4.87 51.15 C4.95 51 4.95 50.93 5.02 50.78 C5.1 50.63 5.17
										 50.48 5.25 50.33 L7.35 46.73 L9.37 46.73 L5.92 52.2 L9.6 57.75 L7.42 57.75 Z" class="st2"/>
						</g>
						<g id="shape1151-9" v:mID="1151" v:groupContext="shape" transform="translate(11.1,-7.81597E-14)">
							<title>Sheet.1151</title>
							<path d="M10.12 57.75 L10.12 50.7 C10.13 49.95 10.13 49.28 10.2 48.68 L10.2 48.3 C10.13 48.9 9.97 49.28
										 9.9 49.5 L6.53 57.75 L5.33 57.75 L1.95 49.65 C1.88 49.5 1.8 49.13 1.65 48.38 L1.57 48.38
										 C1.65 48.98 1.65 49.88 1.65 51 L1.65 57.75 L0 57.75 L0 46.73 L2.63 46.73 L5.4 53.7 C5.7
										 54.38 5.85 54.9 5.93 55.2 L6 55.2 C6.22 54.6 6.45 54.08 6.6 53.63 L9.45 46.65 L11.92 46.65
										 L11.92 57.75 L10.12 57.75 Z" class="st2"/>
						</g>
						<g id="shape1152-11" v:mID="1152" v:groupContext="shape" transform="translate(25.725,-6.39488E-14)">
							<title>Sheet.1152</title>
							<path d="M1.8 53.78 L1.8 57.75 L0 57.75 L0 46.73 L3.38 46.73 C4.65 46.73 5.63 47.03 6.3 47.63 C6.97 48.23
										 7.35 49.05 7.35 50.18 C7.35 51.23 6.97 52.13 6.23 52.8 C5.47 53.48 4.43 53.85 3.15 53.85
										 L1.8 53.85 L1.8 53.78 ZM1.8 48.3 L1.8 52.28 L3 52.28 C3.75 52.28 4.35 52.13 4.8 51.75 C5.25
										 51.38 5.47 50.93 5.48 50.25 C5.47 49.65 5.25 49.13 4.88 48.83 C4.5 48.53 3.9 48.3 3.15 48.3
										 L1.8 48.3 Z" class="st2"/>
						</g>
						<g id="shape1153-13" v:mID="1153" v:groupContext="shape" transform="translate(34.5,-6.39488E-14)">
							<title>Sheet.1153</title>
							<path d="M1.8 53.78 L1.8 57.75 L0 57.75 L0 46.73 L3.38 46.73 C4.65 46.73 5.63 47.03 6.3 47.63 C6.97 48.23
										 7.35 49.05 7.35 50.18 C7.35 51.23 6.97 52.13 6.23 52.8 C5.47 53.48 4.43 53.85 3.15 53.85
										 L1.8 53.85 L1.8 53.78 ZM1.8 48.3 L1.8 52.28 L3 52.28 C3.75 52.28 4.35 52.13 4.8 51.75 C5.25
										 51.38 5.47 50.93 5.48 50.25 C5.47 49.65 5.25 49.13 4.88 48.83 C4.5 48.53 3.9 48.3 3.15 48.3
										 L1.8 48.3 Z" class="st2"/>
						</g>
					</g>
					<g id="shape1154-15" v:mID="1154" v:groupContext="shape" transform="translate(2.25,-2.25)">
						<title>Sheet.1154</title>
						<path d="M0 27 L0 57.75 L56.25 57.75 L56.25 27 L0 27 ZM54 55.5 L2.25 55.5 L2.25 29.25 L54 29.25 L54 55.5 Z"
								class="st2"/>
					</g>
				</g>
				<g id="group1155-17" transform="translate(28.575,-1.84741E-13)" v:mID="1155" v:groupContext="group">
					<title>Sheet.1155</title>
					<g id="shape1156-18" v:mID="1156" v:groupContext="shape">
						<title>Sheet.1156</title>
						<path d="M20.85 57.75 C19.65 57.75 18.53 57 18.08 55.88 L17.4 54.3 C17.25 54.3 17.02 54.3 16.8 54.3 C16.57
									 54.3 16.35 54.3 16.13 54.3 L15.45 55.88 C15.08 57 13.95 57.75 12.75 57.75 C12.38 57.75 11.93
									 57.68 11.63 57.53 L8.78 56.33 C8.03 56.03 7.42 55.43 7.13 54.68 C6.83 53.93 6.83 53.1 7.13 52.35
									 L7.8 50.78 L6.98 49.95 L5.4 50.63 C5.03 50.78 4.65 50.85 4.28 50.85 C3.08 50.85 1.95 50.1 1.5
									 48.98 L0.3 46.13 C-0 45.38 0 44.55 0.3 43.8 C0.6 43.05 1.2 42.45 1.95 42.15 L3.53 41.48 L3.53
									 40.28 L1.95 39.6 C1.2 39.3 0.6 38.7 0.3 37.95 C-0 37.2 0 36.38 0.3 35.63 L1.5 32.78 C1.95 31.65
									 3.08 30.9 4.28 30.9 C4.65 30.9 5.03 30.98 5.4 31.13 L6.98 31.8 L7.8 30.98 L7.13 29.4 C6.83 28.65
									 6.83 27.83 7.13 27.08 C7.42 26.33 8.03 25.73 8.78 25.43 L11.63 24.23 C12 24.08 12.38 24 12.75
									 24 C13.95 24 15.08 24.75 15.53 25.88 L16.13 27.38 C16.28 27.38 16.5 27.38 16.73 27.38 C16.95
									 27.38 17.18 27.38 17.4 27.38 L18 25.8 C18.45 24.68 19.58 23.93 20.78 23.93 C21.15 23.93 21.53
									 24 21.9 24.15 L24.75 25.35 C25.5 25.65 26.1 26.25 26.4 27 C26.7 27.75 26.7 28.58 26.4 29.33
									 L25.73 30.9 L26.55 31.73 L28.13 31.05 C28.5 30.9 28.88 30.83 29.25 30.83 C30.45 30.83 31.58
									 31.58 32.03 32.7 L33.23 35.55 C33.53 36.3 33.53 37.13 33.23 37.88 C32.93 38.63 32.33 39.23 31.58
									 39.53 L30 40.2 L30 41.4 L31.58 42.08 C33.15 42.75 33.83 44.48 33.23 46.05 L32.03 48.9 C31.58
									 50.03 30.45 50.78 29.25 50.78 C28.88 50.78 28.43 50.7 28.05 50.55 L26.48 49.88 L25.65 50.7 L26.33
									 52.28 C26.62 53.03 26.62 53.85 26.33 54.6 C26.03 55.35 25.43 55.95 24.68 56.25 L21.83 57.45
									 C21.68 57.68 21.23 57.75 20.85 57.75 ZM16.8 35.4 C13.8 35.4 11.33 37.88 11.33 40.88 C11.33 43.88
									 13.8 46.35 16.8 46.35 C19.8 46.35 22.27 43.88 22.28 40.88 C22.27 37.88 19.8 35.4 16.8 35.4 Z"
								class="st1"/>
					</g>
					<g id="shape1157-20" v:mID="1157" v:groupContext="shape" transform="translate(2.025,-2.1)">
						<title>Sheet.1157</title>
						<path d="M28.95 46.35 L26.55 45.38 C26.18 45.23 25.88 45 25.88 44.93 C25.88 44.85 25.95 44.4 25.95 44.03
									 L25.95 42.08 C25.95 41.63 25.88 41.25 25.88 41.18 C25.88 41.1 26.18 40.88 26.55 40.73 L28.95
									 39.75 C29.33 39.6 29.55 39.15 29.4 38.7 L28.2 35.85 C28.05 35.48 27.6 35.25 27.15 35.4 L24.75
									 36.38 C24.38 36.53 24 36.6 23.93 36.53 C23.85 36.45 23.62 36.15 23.33 35.78 L21.9 34.43 C21.6
									 34.13 21.23 33.9 21.23 33.83 C21.15 33.75 21.23 33.45 21.38 33 L22.35 30.6 C22.5 30.23 22.35
									 29.78 21.9 29.55 L19.05 28.35 C18.67 28.2 18.22 28.35 18 28.8 L17.03 31.2 C16.88 31.58 16.65
									 31.88 16.58 31.88 C16.5 31.88 16.05 31.8 15.68 31.73 C15.68 31.73 15.3 31.65 14.7 31.65 C14.1
									 31.65 13.72 31.73 13.72 31.73 C13.27 31.8 12.9 31.8 12.83 31.88 C12.75 31.88 12.52 31.58 12.37
									 31.2 L11.4 28.8 C11.25 28.43 10.8 28.2 10.35 28.35 L7.5 29.55 C7.13 29.7 6.9 30.15 7.05 30.6
									 L8.03 33 C8.17 33.38 8.25 33.75 8.18 33.83 C8.1 33.9 7.8 34.13 7.5 34.43 L6.08 35.85 C5.78 36.15
									 5.55 36.53 5.48 36.6 C5.4 36.68 5.1 36.6 4.65 36.45 L2.4 35.33 C2.03 35.18 1.58 35.33 1.35 35.78
									 L0.15 38.63 C0 39 0.15 39.45 0.6 39.68 L3 40.65 C3.37 40.8 3.67 41.03 3.68 41.1 C3.67 41.18
									 3.6 41.63 3.6 42 L3.6 43.95 C3.6 44.4 3.67 44.78 3.68 44.85 C3.67 44.93 3.37 45.15 3 45.3 L0.6
									 46.35 C0.23 46.5 0 46.95 0.15 47.4 L1.35 50.25 C1.5 50.63 1.95 50.85 2.4 50.7 L4.8 49.73 C5.18
									 49.58 5.55 49.5 5.63 49.58 C5.7 49.65 5.93 49.95 6.23 50.33 L7.65 51.68 C7.95 51.98 8.32 52.2
									 8.4 52.28 C8.47 52.35 8.4 52.73 8.25 53.1 L7.13 55.35 C6.98 55.73 7.13 56.18 7.58 56.4 L10.43
									 57.6 C10.8 57.75 11.25 57.6 11.47 57.15 L12.45 54.75 C12.6 54.38 12.82 54.08 12.9 54.08 C12.97
									 54.08 13.42 54.15 13.8 54.23 C13.8 54.23 14.18 54.3 14.78 54.3 C15.38 54.3 15.75 54.23 15.75
									 54.23 C16.2 54.15 16.58 54.15 16.65 54.08 C16.73 54.08 16.95 54.38 17.1 54.75 L18.08 57.15 C18.22
									 57.53 18.67 57.75 19.13 57.6 L21.98 56.4 C22.35 56.25 22.57 55.8 22.43 55.35 L21.45 52.95 C21.3
									 52.58 21.23 52.2 21.3 52.13 C21.38 52.05 21.68 51.83 22.05 51.53 L23.48 50.1 C23.77 49.8 24
									 49.43 24.08 49.35 C24.15 49.28 24.45 49.35 24.9 49.5 L27.3 50.48 C27.67 50.63 28.12 50.48 28.35
									 50.03 L29.55 47.18 C29.48 46.95 29.33 46.5 28.95 46.35 ZM14.78 50.7 C10.5 50.7 7.05 47.25 7.05
									 42.98 C7.05 38.7 10.5 35.25 14.78 35.25 C19.05 35.25 22.5 38.7 22.5 42.98 C22.5 47.25 19.05
									 50.7 14.78 50.7 Z" class="st3"/>
					</g>
				</g>
			</g>
		</g>
	</g>
</svg>
