<?xml version="1.0" encoding="UTF-8" standalone="no"?>
<!DOCTYPE svg PUBLIC "-//W3C//DTD SVG 1.1//EN" "http://www.w3.org/Graphics/SVG/1.1/DTD/svg11.dtd">
<!-- Generated by Microsoft Visio, SVG Export Azure.svg Page-1 -->
<svg xmlns="http://www.w3.org/2000/svg" xmlns:xlink="http://www.w3.org/1999/xlink" xmlns:ev="http://www.w3.org/2001/xml-events"
		xmlns:v="http://schemas.microsoft.com/visio/2003/SVGExtensions/" width="1.01172in" height="0.71875in"
		viewBox="0 0 72.8438 51.75" xml:space="preserve" color-interpolation-filters="sRGB" class="st3">
	<v:documentProperties v:langID="4108" v:metric="true" v:viewMarkup="false"/>

	<style type="text/css">
	<![CDATA[
		.st1 {fill:#ffffff;stroke:none;stroke-linecap:butt;stroke-width:0.75}
		.st2 {fill:#505050;stroke:none;stroke-linecap:butt;stroke-width:0.75}
		.st3 {fill:none;fill-rule:evenodd;font-size:12px;overflow:visible;stroke-linecap:square;stroke-miterlimit:3}
	]]>
	</style>

	<g v:mID="0" v:index="1" v:groupContext="foregroundPage">
		<title>Page-1</title>
		<v:pageProperties v:drawingScale="0.0393701" v:pageScale="0.0393701" v:drawingUnits="24" v:shadowOffsetX="8.50394"
				v:shadowOffsetY="-8.50394"/>
		<v:layer v:name="symbols" v:index="0"/>
		<g id="group107-1" transform="translate(5.26875,-5.4375)" v:mID="107" v:groupContext="group" v:layerMember="0">
			<title>Azure</title>
			<g id="group108-2" v:mID="108" v:groupContext="group" v:layerMember="0">
				<title>Sheet.108</title>
				<g id="shape109-3" v:mID="109" v:groupContext="shape" v:layerMember="0">
					<title>Sheet.109</title>
					<path d="M49.8 23.7 C47.03 19.13 42.07 16.35 36.68 16.35 C36.22 16.35 35.85 16.35 35.4 16.43 L35.32 16.35 C32.78
								 12.22 28.35 9.75 23.47 9.75 C18.3 9.75 13.65 12.6 11.17 17.1 C5.02 17.4 0 22.5 0 28.8 C-0 35.25
								 5.25 40.57 11.78 40.57 L12.37 40.57 L12.37 40.8 C13.35 47.18 18.38 51.75 24.45 51.75 L48 51.75 C55.73
								 51.75 62.25 45.3 62.25 37.58 C62.25 30.45 56.77 24.45 49.8 23.7 Z" class="st1"/>
				</g>
				<g id="shape110-5" v:mID="110" v:groupContext="shape" v:layerMember="0" transform="translate(2.25,-11.25)">
					<title>Sheet.110</title>
					<path d="M34.35 44.4 C32.85 44.4 31.57 45.3 30.97 46.58 L9.52 46.58 C5.92 46.58 2.92 43.65 2.92 39.98 C2.92 36.3
								 5.85 33.38 9.52 33.38 L9.6 33.38 L12.52 33.38 C12.67 32.62 12.9 31.88 13.2 31.2 C13.35 30.98 13.42
								 30.68 13.57 30.45 C15.07 27.83 17.92 26.1 21.15 26.1 C24.07 26.1 26.62 27.53 28.2 29.63 C29.1 29.18
								 30.07 28.88 31.05 28.65 C28.95 25.35 25.35 23.18 21.15 23.18 C16.27 23.18 12.08 26.18 10.35 30.45
								 C10.35 30.45 10.35 30.45 10.35 30.53 C10.35 30.53 10.35 30.53 10.35 30.45 L9.52 30.45 C4.28 30.53
								 0 34.8 0 40.05 C0 45.3 4.28 49.58 9.52 49.58 L31.05 49.58 C31.65 50.85 32.92 51.75 34.42 51.75 C36.45
								 51.75 38.1 50.1 38.1 48.08 C38.02 46.05 36.37 44.4 34.35 44.4 Z" class="st2"/>
				</g>
				<g id="shape111-7" v:mID="111" v:groupContext="shape" v:layerMember="0" transform="translate(14.625,-2.25)">
					<title>Sheet.111</title>
					<path d="M33.37 51.75 C39.82 51.75 45.37 46.27 45.37 39.82 C45.37 33.37 40.2 28.2 33.75 28.12 C31.57 23.77 27.15
								 20.85 21.97 20.85 C15.68 20.85 10.42 25.27 9.15 31.12 C6.07 31.42 3.45 33.08 1.8 35.4 L17.47 35.4
								 C18.53 34.05 20.17 33.22 22.05 33.22 C25.27 33.22 27.9 35.85 27.9 39.07 C27.9 42.3 25.27 44.92 22.05
								 44.92 C20.17 44.92 18.6 44.1 17.47 42.75 L0 42.75 C0.67 47.7 4.65 51.75 9.82 51.75 L33.37 51.75
								 Z" class="st2"/>
				</g>
			</g>
		</g>
	</g>
</svg>
