<?xml version="1.0" encoding="UTF-8" standalone="no"?>
<!DOCTYPE svg PUBLIC "-//W3C//DTD SVG 1.1//EN" "http://www.w3.org/Graphics/SVG/1.1/DTD/svg11.dtd">
<!-- Generated by Microsoft Visio, SVG Export Cloud Service Request.svg Page-1 -->
<svg xmlns="http://www.w3.org/2000/svg" xmlns:xlink="http://www.w3.org/1999/xlink" xmlns:ev="http://www.w3.org/2001/xml-events"
		xmlns:v="http://schemas.microsoft.com/visio/2003/SVGExtensions/" width="1.01172in" height="0.875in"
		viewBox="0 0 72.8438 63" xml:space="preserve" color-interpolation-filters="sRGB" class="st4">
	<v:documentProperties v:langID="4108" v:metric="true" v:viewMarkup="false"/>

	<style type="text/css">
	<![CDATA[
		.st1 {fill:#ffffff;stroke:none;stroke-linecap:butt;stroke-width:0.75}
		.st2 {fill:#515251;stroke:none;stroke-linecap:butt;stroke-width:0.75}
		.st3 {fill:#515050;stroke:none;stroke-linecap:butt;stroke-width:0.75}
		.st4 {fill:none;fill-rule:evenodd;font-size:12px;overflow:visible;stroke-linecap:square;stroke-miterlimit:3}
	]]>
	</style>

	<g v:mID="0" v:index="1" v:groupContext="foregroundPage">
		<title>Page-1</title>
		<v:pageProperties v:drawingScale="0.0393701" v:pageScale="0.0393701" v:drawingUnits="24" v:shadowOffsetX="8.50394"
				v:shadowOffsetY="-8.50394"/>
		<v:layer v:name="symbols" v:index="0"/>
		<g id="group97-1" transform="translate(4.33125,-6.6)" v:mID="97" v:groupContext="group" v:layerMember="0">
			<title>Cloud Service Request</title>
			<g id="group98-2" transform="translate(3.15747E-13,-14.25)" v:mID="98" v:groupContext="group" v:layerMember="0">
				<title>Sheet.98</title>
				<g id="shape99-3" v:mID="99" v:groupContext="shape" v:layerMember="0">
					<title>Sheet.99</title>
					<path d="M11.03 63 C4.95 63 0 57.83 0 51.45 C0 45.23 4.65 40.2 10.42 39.9 C12.23 37.8 14.62 36.6 17.33 36.38
								 C18.6 30.6 23.55 26.33 29.33 26.33 C33.15 26.33 36.67 28.2 39 31.35 C40.05 31.05 41.1 30.9 42.15
								 30.9 C48.75 30.9 54.15 36.6 54.15 43.5 C56.85 45.53 58.42 48.75 58.42 52.2 C58.42 57.15 55.27 61.43
								 50.7 62.63 L50.62 62.63 L49.13 62.93 L11.03 62.93 L11.03 63 Z" class="st1"/>
				</g>
				<g id="shape100-5" v:mID="100" v:groupContext="shape" v:layerMember="0" transform="translate(2.25,-2.25)">
					<title>Sheet.100</title>
					<path d="M49.65 46.95 C49.72 46.58 49.72 46.2 49.72 45.83 C49.72 40.05 45.38 35.4 39.98 35.4 C38.55 35.4 37.2
								 35.7 35.93 36.38 C34.12 33 30.82 30.83 27.15 30.83 C21.75 30.83 17.4 35.33 17.03 40.95 C16.57 40.88
								 16.2 40.8 15.75 40.8 C13.2 40.8 10.8 42.15 9.3 44.33 C9.08 44.33 8.93 44.33 8.7 44.33 C3.9 44.4
								 0 48.6 0 53.7 C0 58.8 3.9 63 8.77 63 L46.73 63 L47.92 62.78 C51.53 61.8 54 58.43 54 54.53 C54 51.3
								 52.28 48.38 49.65 46.95 ZM47.4 60.6 L46.5 60.75 L8.77 60.75 C5.17 60.75 2.25 57.6 2.25 53.7 C2.25
								 49.8 5.1 46.65 8.7 46.65 C8.85 46.65 9 46.65 9.15 46.65 L10.43 46.73 L11.17 45.6 C12.23 43.95 13.95
								 43.05 15.75 43.05 C16.05 43.05 16.35 43.05 16.65 43.13 L19.13 43.58 L19.27 41.03 C19.5 36.53 22.95
								 33 27.15 33 C29.93 33 32.55 34.65 33.9 37.35 L34.95 39.3 L36.9 38.33 C37.88 37.88 38.92 37.58 39.98
								 37.58 C44.1 37.58 47.48 41.25 47.48 45.75 C47.48 46.05 47.48 46.35 47.4 46.65 L47.25 48.15 L48.6
								 48.9 C50.55 49.95 51.75 52.13 51.75 54.45 C51.75 57.38 49.95 59.85 47.4 60.6 Z" class="st2"/>
				</g>
			</g>
			<g id="group101-7" transform="translate(30.075,-2.4869E-13)" v:mID="101" v:groupContext="group" v:layerMember="0">
				<title>Sheet.101</title>
				<g id="shape102-8" v:mID="102" v:groupContext="shape" v:layerMember="0">
					<title>Sheet.102</title>
					<path d="M20.85 63 C19.65 63 18.52 62.25 18.07 61.13 L17.4 59.55 C17.25 59.55 17.02 59.55 16.8 59.55 C16.57 59.55
								 16.35 59.55 16.12 59.55 L15.45 61.13 C15.07 62.25 13.95 63 12.75 63 C12.38 63 11.93 62.93 11.62
								 62.78 L8.77 61.58 C8.03 61.28 7.42 60.68 7.12 59.93 C6.83 59.18 6.83 58.35 7.12 57.6 L7.8 56.03
								 L6.97 55.2 L5.4 55.88 C5.03 56.03 4.65 56.1 4.28 56.1 C3.07 56.1 1.95 55.35 1.5 54.23 L0.3 51.38
								 C-0 50.63 0 49.8 0.3 49.05 C0.6 48.3 1.2 47.7 1.95 47.4 L3.52 46.73 L3.52 45.53 L1.95 44.85 C1.2
								 44.55 0.6 43.95 0.3 43.2 C-0 42.45 0 41.63 0.3 40.88 L1.5 38.03 C1.95 36.9 3.07 36.15 4.28 36.15
								 C4.65 36.15 5.03 36.23 5.4 36.38 L6.97 37.05 L7.8 36.23 L7.12 34.65 C6.83 33.9 6.83 33.08 7.12 32.33
								 C7.42 31.58 8.03 30.98 8.77 30.68 L11.62 29.48 C12 29.33 12.38 29.25 12.75 29.25 C13.95 29.25 15.07
								 30 15.52 31.13 L16.12 32.63 C16.27 32.63 16.5 32.63 16.72 32.63 C16.95 32.63 17.17 32.63 17.4 32.63
								 L18 31.05 C18.45 29.93 19.57 29.18 20.77 29.18 C21.15 29.18 21.52 29.25 21.9 29.4 L24.75 30.6 C25.5
								 30.9 26.1 31.5 26.4 32.25 C26.7 33 26.7 33.83 26.4 34.58 L25.72 36.15 L26.55 36.98 L28.12 36.3 C28.5
								 36.15 28.87 36.08 29.25 36.08 C30.45 36.08 31.57 36.83 32.02 37.95 L33.22 40.8 C33.52 41.55 33.52
								 42.38 33.22 43.13 C32.92 43.88 32.32 44.48 31.57 44.78 L30 45.45 L30 46.65 L31.57 47.33 C33.15 48
								 33.82 49.73 33.22 51.3 L32.02 54.15 C31.57 55.28 30.45 56.03 29.25 56.03 C28.87 56.03 28.42 55.95
								 28.05 55.8 L26.47 55.13 L25.65 55.95 L26.32 57.53 C26.62 58.28 26.62 59.1 26.32 59.85 C26.02 60.6
								 25.42 61.2 24.67 61.5 L21.82 62.7 C21.67 62.93 21.22 63 20.85 63 Z" class="st1"/>
				</g>
				<g id="shape103-10" v:mID="103" v:groupContext="shape" v:layerMember="0" transform="translate(2.025,-2.1)">
					<title>Sheet.103</title>
					<path d="M28.95 51.6 L26.55 50.63 C26.17 50.48 25.87 50.25 25.87 50.18 C25.87 50.1 25.95 49.65 25.95 49.28 L25.95
								 47.33 C25.95 46.88 25.87 46.5 25.87 46.43 C25.87 46.35 26.17 46.13 26.55 45.98 L28.95 45 C29.32
								 44.85 29.55 44.4 29.4 43.95 L28.2 41.1 C28.05 40.73 27.6 40.5 27.15 40.65 L24.75 41.63 C24.37 41.78
								 24 41.85 23.92 41.78 C23.85 41.7 23.62 41.4 23.32 41.03 L21.9 39.68 C21.6 39.38 21.22 39.15 21.22
								 39.08 C21.15 39 21.22 38.7 21.37 38.25 L22.35 35.85 C22.5 35.48 22.35 35.03 21.9 34.8 L19.05 33.6
								 C18.67 33.45 18.22 33.6 18 34.05 L17.02 36.45 C16.87 36.83 16.65 37.13 16.57 37.13 C16.5 37.13 16.05
								 37.05 15.67 36.98 C15.67 36.98 15.3 36.9 14.7 36.9 C14.1 36.9 13.72 36.98 13.72 36.98 C13.27 37.05
								 12.9 37.05 12.82 37.13 C12.75 37.13 12.52 36.83 12.37 36.45 L11.4 34.05 C11.25 33.68 10.8 33.45
								 10.35 33.6 L7.5 34.8 C7.13 34.95 6.9 35.4 7.05 35.85 L8.02 38.25 C8.17 38.63 8.25 39 8.17 39.08
								 C8.1 39.15 7.8 39.38 7.43 39.68 L6 41.1 C5.7 41.4 5.47 41.78 5.4 41.85 C5.32 41.93 5.02 41.85 4.57
								 41.7 L2.4 40.58 C2.02 40.43 1.57 40.58 1.35 41.03 L0.15 43.88 C0 44.25 0.15 44.7 0.6 44.93 L3 45.9
								 C3.37 46.05 3.67 46.28 3.67 46.35 C3.67 46.43 3.6 46.88 3.6 47.25 L3.6 49.2 C3.6 49.65 3.67 50.03
								 3.67 50.1 C3.67 50.18 3.37 50.4 3 50.55 L0.6 51.6 C0.23 51.75 0 52.2 0.15 52.65 L1.35 55.5 C1.5
								 55.88 1.95 56.1 2.32 55.95 L4.72 54.98 C5.1 54.83 5.47 54.75 5.55 54.83 C5.62 54.9 5.85 55.2 6.15
								 55.58 L7.57 56.93 C7.87 57.23 8.25 57.45 8.32 57.53 C8.4 57.6 8.32 57.98 8.17 58.35 L7.13 60.6 C6.98
								 60.98 7.13 61.43 7.57 61.65 L10.42 62.85 C10.8 63 11.25 62.85 11.47 62.4 L12.45 60 C12.6 59.63 12.82
								 59.33 12.9 59.33 C12.97 59.33 13.42 59.4 13.8 59.48 C13.8 59.48 14.17 59.55 14.77 59.55 C15.37 59.55
								 15.75 59.48 15.75 59.48 C16.2 59.4 16.57 59.4 16.65 59.33 C16.72 59.33 16.95 59.63 17.1 60 L18.07
								 62.4 C18.22 62.78 18.67 63 19.12 62.85 L21.97 61.65 C22.35 61.5 22.57 61.05 22.42 60.6 L21.45 58.2
								 C21.3 57.83 21.22 57.45 21.3 57.38 C21.37 57.3 21.67 57.08 22.05 56.78 L23.47 55.35 C23.77 55.05
								 24 54.68 24.07 54.6 C24.15 54.53 24.45 54.6 24.9 54.75 L27.3 55.73 C27.67 55.88 28.12 55.73 28.35
								 55.28 L29.55 52.43 C29.47 52.2 29.32 51.75 28.95 51.6 ZM14.77 55.95 C10.5 55.95 7.05 52.5 7.05 48.23
								 C7.05 43.95 10.5 40.5 14.77 40.5 C19.05 40.5 22.5 43.95 22.5 48.23 C22.5 52.5 19.05 55.95 14.77
								 55.95 Z" class="st2"/>
				</g>
			</g>
			<g id="group104-12" transform="translate(1.5,-5.25)" v:mID="104" v:groupContext="group" v:layerMember="0">
				<title>Sheet.104</title>
				<g id="shape105-13" v:mID="105" v:groupContext="shape" v:layerMember="0">
					<title>Sheet.105</title>
					<path d="M21.75 40.5 L12.75 40.5 L12.75 43.5 L16.12 47.25 L0 47.25 L0 56.25 L16.12 56.25 L12.75 60 L12.75 63
								 L21.75 63 L33 51.75 L21.75 40.5 Z" class="st1"/>
				</g>
				<g id="shape106-15" v:mID="106" v:groupContext="shape" v:layerMember="0" transform="translate(2.25,-2.25)">
					<title>Sheet.106</title>
					<path d="M19.35 51.75 L12.75 45 L18 45 L27.6 54 L18.75 63 L12.75 63 L19.35 56.25 L0 56.25 L0 51.75 L19.35 51.75
								 Z" class="st3"/>
				</g>
			</g>
		</g>
	</g>
</svg>
