<?xml version="1.0" encoding="UTF-8" standalone="no"?>
<!DOCTYPE svg PUBLIC "-//W3C//DTD SVG 1.1//EN" "http://www.w3.org/Graphics/SVG/1.1/DTD/svg11.dtd">
<!-- Generated by Microsoft Visio, SVG Export Cloud.svg Page-1 -->
<svg xmlns="http://www.w3.org/2000/svg" xmlns:xlink="http://www.w3.org/1999/xlink" xmlns:ev="http://www.w3.org/2001/xml-events"
		xmlns:v="http://schemas.microsoft.com/visio/2003/SVGExtensions/" width="1.01172in" height="0.671875in"
		viewBox="0 0 72.8438 48.375" xml:space="preserve" color-interpolation-filters="sRGB" class="st3">
	<v:documentProperties v:langID="4108" v:metric="true" v:viewMarkup="false"/>

	<style type="text/css">
	<![CDATA[
		.st1 {fill:#ffffff;stroke:none;stroke-linecap:butt;stroke-width:0.75}
		.st2 {fill:#515150;stroke:none;stroke-linecap:butt;stroke-width:0.75}
		.st3 {fill:none;fill-rule:evenodd;font-size:12px;overflow:visible;stroke-linecap:square;stroke-miterlimit:3}
	]]>
	</style>

	<g v:mID="0" v:index="1" v:groupContext="foregroundPage">
		<title>Page-1</title>
		<v:pageProperties v:drawingScale="0.0393701" v:pageScale="0.0393701" v:drawingUnits="24" v:shadowOffsetX="8.50394"
				v:shadowOffsetY="-8.50394"/>
		<v:layer v:name="symbols" v:index="0"/>
		<g id="group8-1" transform="translate(7.21875,-5.85)" v:mID="8" v:groupContext="group" v:layerMember="0">
			<title>Cloud</title>
			<g id="group9-2" v:mID="9" v:groupContext="group" v:layerMember="0">
				<title>Sheet.9</title>
				<g id="shape10-3" v:mID="10" v:groupContext="shape" v:layerMember="0">
					<title>Sheet.10</title>
					<path d="M11.03 48.38 C4.95 48.38 -0 43.2 0 36.83 C0 30.6 4.65 25.58 10.42 25.28 C12.23 23.18 14.62 21.98 17.33
								 21.75 C18.6 15.98 23.55 11.7 29.33 11.7 C33.15 11.7 36.67 13.58 39 16.73 C40.05 16.43 41.1 16.28
								 42.15 16.28 C48.75 16.28 54.15 21.98 54.15 28.88 C56.85 30.9 58.42 34.13 58.42 37.58 C58.42 42.53
								 55.27 46.8 50.7 48 L50.62 48 L49.13 48.3 L11.03 48.3 L11.03 48.38 Z" class="st1"/>
				</g>
				<g id="shape11-5" v:mID="11" v:groupContext="shape" v:layerMember="0" transform="translate(2.25,-2.25)">
					<title>Sheet.11</title>
					<path d="M49.65 32.33 C49.72 31.95 49.72 31.58 49.72 31.2 C49.72 25.43 45.38 20.78 39.98 20.78 C38.55 20.78 37.2
								 21.08 35.93 21.75 C34.12 18.38 30.82 16.2 27.15 16.2 C21.75 16.2 17.4 20.7 17.03 26.33 C16.57 26.25
								 16.2 26.18 15.75 26.18 C13.2 26.18 10.8 27.53 9.3 29.7 C9.08 29.7 8.93 29.7 8.7 29.7 C3.9 29.78
								 0 33.98 0 39.08 C0 44.18 3.9 48.38 8.77 48.38 L46.73 48.38 L47.92 48.15 C51.53 47.18 54 43.8 54
								 39.9 C54 36.68 52.28 33.75 49.65 32.33 ZM47.4 45.98 L46.5 46.13 L8.77 46.13 C5.17 46.13 2.25 42.98
								 2.25 39.08 C2.25 35.18 5.1 32.03 8.7 32.03 C8.85 32.03 9 32.03 9.15 32.03 L10.43 32.1 L11.17 30.98
								 C12.23 29.33 13.95 28.43 15.75 28.43 C16.05 28.43 16.35 28.43 16.65 28.5 L19.13 28.95 L19.27 26.4
								 C19.5 21.9 22.95 18.38 27.15 18.38 C29.93 18.38 32.55 20.03 33.9 22.73 L34.95 24.68 L36.9 23.7 C37.88
								 23.25 38.92 22.95 39.98 22.95 C44.1 22.95 47.48 26.63 47.48 31.13 C47.48 31.43 47.48 31.73 47.4
								 32.03 L47.25 33.53 L48.6 34.28 C50.55 35.33 51.75 37.5 51.75 39.83 C51.75 42.75 49.95 45.23 47.4
								 45.98 Z" class="st2"/>
				</g>
			</g>
		</g>
	</g>
</svg>
