<?xml version="1.0" encoding="UTF-8" standalone="no"?>
<!DOCTYPE svg PUBLIC "-//W3C//DTD SVG 1.1//EN" "http://www.w3.org/Graphics/SVG/1.1/DTD/svg11.dtd">
<!-- Generated by Microsoft Visio, SVG Export Cloud, Exchange Online.svg Page-1 -->
<svg xmlns="http://www.w3.org/2000/svg" xmlns:xlink="http://www.w3.org/1999/xlink" xmlns:ev="http://www.w3.org/2001/xml-events"
		xmlns:v="http://schemas.microsoft.com/visio/2003/SVGExtensions/" width="1.09375in" height="0.8125in"
		viewBox="0 0 78.75 58.5" xml:space="preserve" color-interpolation-filters="sRGB" class="st4">
	<v:documentProperties v:langID="4108" v:metric="true" v:viewMarkup="false"/>

	<style type="text/css">
	<![CDATA[
		.st1 {fill:#ffffff;stroke:none;stroke-linecap:butt;stroke-width:0.75}
		.st2 {fill:#505050;stroke:none;stroke-linecap:butt;stroke-width:0.75}
		.st3 {fill:#2372ba;stroke:none;stroke-linecap:butt;stroke-width:0.75}
		.st4 {fill:none;fill-rule:evenodd;font-size:12px;overflow:visible;stroke-linecap:square;stroke-miterlimit:3}
	]]>
	</style>

	<g v:mID="0" v:index="1" v:groupContext="foregroundPage">
		<title>Page-1</title>
		<v:pageProperties v:drawingScale="0.0393701" v:pageScale="0.0393701" v:drawingUnits="24" v:shadowOffsetX="8.50394"
				v:shadowOffsetY="-8.50394"/>
		<v:layer v:name="symbols" v:index="0"/>
		<g id="group27-1" transform="translate(7.3125,-8.4375)" v:mID="27" v:groupContext="group" v:layerMember="0">
			<title>Cloud, Exchange Online</title>
			<g id="group28-2" v:mID="28" v:groupContext="group" v:layerMember="0">
				<title>Sheet.28</title>
				<g id="group29-3" v:mID="29" v:groupContext="group" v:layerMember="0">
					<title>Sheet.29</title>
					<g id="shape30-4" v:mID="30" v:groupContext="shape" v:layerMember="0">
						<title>Sheet.30</title>
						<path d="M11.02 58.5 C4.95 58.5 0 53.32 0 46.95 C-0 40.72 4.65 35.7 10.42 35.4 C12.23 33.3 14.62 32.1 17.32
									 31.87 C18.6 26.1 23.55 21.82 29.32 21.82 C33.15 21.82 36.67 23.7 39 26.85 C40.05 26.55 41.1
									 26.4 42.15 26.4 C48.75 26.4 54.15 32.1 54.15 39 C56.85 41.02 58.42 44.25 58.42 47.7 C58.42 52.65
									 55.27 56.93 50.7 58.12 L50.62 58.12 L49.12 58.43 L11.02 58.43 L11.02 58.5 Z" class="st1"/>
					</g>
					<g id="shape31-6" v:mID="31" v:groupContext="shape" v:layerMember="0" transform="translate(2.25,-2.25)">
						<title>Sheet.31</title>
						<path d="M49.65 42.45 C49.72 42.07 49.72 41.7 49.72 41.32 C49.72 35.55 45.37 30.9 39.97 30.9 C38.55 30.9
									 37.2 31.2 35.92 31.87 C34.12 28.5 30.75 26.32 27.15 26.32 C21.75 26.32 17.4 30.82 17.02 36.45
									 C16.57 36.37 16.2 36.3 15.75 36.3 C13.2 36.3 10.8 37.65 9.3 39.82 C9.08 39.82 8.93 39.82 8.7
									 39.82 C3.9 39.9 0 44.1 0 49.2 C0 54.3 3.9 58.5 8.77 58.5 L46.72 58.5 L47.92 58.27 C51.52 57.3
									 54 53.93 54 50.02 C54 46.8 52.28 43.88 49.65 42.45 ZM47.4 56.1 L46.5 56.25 L8.77 56.25 C5.17
									 56.25 2.25 53.1 2.25 49.2 C2.25 45.3 5.1 42.15 8.7 42.15 C8.85 42.15 9 42.15 9.15 42.15 L10.42
									 42.22 L11.17 41.1 C12.23 39.45 13.95 38.55 15.75 38.55 C16.05 38.55 16.35 38.55 16.65 38.62
									 L19.12 39.07 L19.27 36.52 C19.5 32.1 22.95 28.57 27.15 28.57 C29.93 28.57 32.55 30.22 33.9 32.92
									 L34.95 34.87 L36.9 33.9 C37.87 33.45 38.92 33.15 39.97 33.15 C44.1 33.15 47.47 36.83 47.47 41.32
									 C47.47 41.63 47.48 41.92 47.4 42.22 L47.25 43.72 L48.6 44.47 C50.55 45.53 51.75 47.7 51.75 50.02
									 C51.75 52.88 49.95 55.35 47.4 56.1 Z" class="st2"/>
					</g>
				</g>
				<g id="group32-8" transform="translate(33.75,-12)" v:mID="32" v:groupContext="group" v:layerMember="0">
					<title>Sheet.32</title>
					<g id="shape33-9" v:mID="33" v:groupContext="shape" v:layerMember="0">
						<title>Sheet.33</title>
						<path d="M27 34.5 L18.75 34.5 L18.75 30 L16.35 30 L0 32.55 L0 55.88 L16.35 58.5 L18.75 58.5 L18.75 54.75
									 L27 54.75 C28.65 54.75 30 53.4 30 51.75 L30 37.5 C30 35.85 28.65 34.5 27 34.5 Z" class="st1"/>
					</g>
					<g id="shape34-11" v:mID="34" v:groupContext="shape" v:layerMember="0" transform="translate(20.4,-8.25)">
						<title>Sheet.34</title>
						<path d="M4.43 54.23 C3.68 53.63 2.48 52.65 1.58 52.13 C1.13 51.9 0.68 51.68 0.68 51.6 C0.67 51.6 0.6 51.68
									 0.53 51.68 L0.37 51.83 C0.37 51.83 0.37 51.98 0.37 51.98 C0.37 51.98 3.15 54.68 3.45 54.98 C3.52
									 55.05 3.52 55.2 3.53 55.28 L3.53 56.7 C3.52 56.78 3.45 56.85 3.37 56.85 L1.5 56.85 C1.42 56.85
									 1.35 56.85 1.27 56.78 L0.68 56.25 C0.6 56.18 0.6 56.18 0.53 56.25 L0 57 C0 57.08 0 57.15 0 57.23
									 C0 57.23 1.13 58.28 1.2 58.35 C1.28 58.42 1.35 58.5 1.57 58.5 L4.73 58.5 C4.95 58.5 5.1 58.35
									 5.1 58.13 L5.1 55.13 C5.1 54.83 4.88 54.6 4.43 54.23 Z" class="st3"/>
					</g>
					<g id="shape35-13" v:mID="35" v:groupContext="shape" v:layerMember="0" transform="translate(18.675,-14.4)">
						<title>Sheet.35</title>
						<path d="M0 57.83 C0 57.83 0.07 57.9 0.07 57.98 L0.22 58.13 C0.22 58.13 0.3 58.13 0.38 58.13 C0.38 58.13
									 3.08 55.35 3.38 55.05 C3.45 54.98 3.6 54.98 3.68 54.98 L5.1 54.98 C5.18 54.98 5.25 55.05 5.25
									 55.13 L5.25 57 C5.25 57.08 5.25 57.15 5.18 57.23 L4.58 57.83 C4.5 57.9 4.5 57.9 4.58 57.98 L5.33
									 58.5 C5.4 58.5 5.48 58.5 5.55 58.5 C5.55 58.5 6.6 57.38 6.68 57.3 C6.75 57.23 6.83 57.15 6.83
									 56.93 L6.83 53.78 C6.83 53.55 6.68 53.4 6.45 53.4 L3.45 53.4 C3.22 53.4 3 53.63 2.63 54.08 C2.03
									 54.83 1.05 56.03 0.53 56.93 C0.3 57.3 0.07 57.75 0 57.83 Z" class="st3"/>
					</g>
					<g id="shape36-15" v:mID="36" v:groupContext="shape" v:layerMember="0" transform="translate(2.25,-2.25)">
						<title>Sheet.36</title>
						<path d="M24.75 39 L14.25 39 L14.25 34.5 L0 36.75 L0 56.25 L14.25 58.5 L14.25 54.75 L24.75 54.75 C25.2 54.75
									 25.5 54.45 25.5 54 L25.5 39.75 C25.5 39.3 25.2 39 24.75 39 ZM24.38 53.63 L14.25 53.63 L14.25
									 52.5 L15.38 52.5 C15.6 52.5 15.83 52.28 16.2 51.83 C16.8 51.08 17.78 49.88 18.3 48.98 C18.52
									 48.53 18.75 48.08 18.83 48.08 C18.83 48.08 18.75 48 18.75 47.93 L18.6 47.78 C18.6 47.78 18.45
									 47.78 18.45 47.78 C18.45 47.78 15.75 50.55 15.45 50.85 C15.38 50.93 15.23 50.93 15.15 50.93
									 L14.25 50.93 L14.25 46.73 C14.7 47.03 15.38 47.48 15.53 47.55 C15.97 47.78 16.42 48 16.43 48.08
									 C16.42 48.08 16.5 48 16.58 48 L16.73 47.85 C16.73 47.85 16.73 47.7 16.73 47.7 C16.73 47.7 15.23
									 46.28 14.25 45.3 L14.25 42.75 L15.6 42.75 C15.68 42.75 15.75 42.75 15.83 42.83 L16.5 43.43 C16.58
									 43.5 16.58 43.5 16.65 43.43 L17.18 42.68 C17.18 42.6 17.18 42.53 17.18 42.45 C17.18 42.45 16.05
									 41.4 15.98 41.33 C15.83 41.33 15.75 41.25 15.53 41.25 L14.25 41.25 L14.25 40.13 L24.38 40.13
									 L24.38 53.63 Z" class="st3"/>
					</g>
					<g id="shape37-17" v:mID="37" v:groupContext="shape" v:layerMember="0" transform="translate(7.2,-8.925)">
						<title>Sheet.37</title>
						<path d="M4.35 58.5 L0 58.12 L0 48.83 L4.05 48.53 L4.05 50.33 L1.58 50.4 L1.58 52.58 L4.05 52.58 L4.05 54.38
									 L1.58 54.3 L1.58 56.48 L4.43 56.63 L4.43 58.5 L4.35 58.5 Z" class="st1"/>
					</g>
				</g>
			</g>
		</g>
	</g>
</svg>
