<?xml version="1.0" encoding="UTF-8" standalone="no"?>
<!DOCTYPE svg PUBLIC "-//W3C//DTD SVG 1.1//EN" "http://www.w3.org/Graphics/SVG/1.1/DTD/svg11.dtd">
<!-- Generated by Microsoft Visio, SVG Export Cloud, SharePoint Online.svg Page-1 -->
<svg xmlns="http://www.w3.org/2000/svg" xmlns:xlink="http://www.w3.org/1999/xlink" xmlns:ev="http://www.w3.org/2001/xml-events"
		xmlns:v="http://schemas.microsoft.com/visio/2003/SVGExtensions/" width="1.09375in" height="0.8125in"
		viewBox="0 0 78.75 58.5" xml:space="preserve" color-interpolation-filters="sRGB" class="st5">
	<v:documentProperties v:langID="4108" v:metric="true" v:viewMarkup="false"/>

	<style type="text/css">
	<![CDATA[
		.st1 {fill:#ffffff;stroke:none;stroke-linecap:butt;stroke-width:0.75}
		.st2 {fill:#505050;stroke:none;stroke-linecap:butt;stroke-width:0.75}
		.st3 {fill:#2372ba;stroke:none;stroke-linecap:butt;stroke-width:0.75}
		.st4 {fill:#2073b7;stroke:none;stroke-linecap:butt;stroke-width:0.75}
		.st5 {fill:none;fill-rule:evenodd;font-size:12px;overflow:visible;stroke-linecap:square;stroke-miterlimit:3}
	]]>
	</style>

	<g v:mID="0" v:index="1" v:groupContext="foregroundPage">
		<title>Page-1</title>
		<v:pageProperties v:drawingScale="0.0393701" v:pageScale="0.0393701" v:drawingUnits="24" v:shadowOffsetX="8.50394"
				v:shadowOffsetY="-8.50394"/>
		<v:layer v:name="symbols" v:index="0"/>
		<g id="group38-1" transform="translate(7.5,-8.4375)" v:mID="38" v:groupContext="group" v:layerMember="0">
			<title>Cloud, SharePoint Online</title>
			<g id="group39-2" v:mID="39" v:groupContext="group" v:layerMember="0">
				<title>Sheet.39</title>
				<g id="group40-3" v:mID="40" v:groupContext="group" v:layerMember="0">
					<title>Sheet.40</title>
					<g id="shape41-4" v:mID="41" v:groupContext="shape" v:layerMember="0">
						<title>Sheet.41</title>
						<path d="M11.02 58.5 C4.95 58.5 0 53.32 0 46.95 C-0 40.72 4.65 35.7 10.42 35.4 C12.23 33.3 14.62 32.1 17.32
									 31.87 C18.6 26.1 23.55 21.82 29.32 21.82 C33.15 21.82 36.67 23.7 39 26.85 C40.05 26.55 41.1
									 26.4 42.15 26.4 C48.75 26.4 54.15 32.1 54.15 39 C56.85 41.02 58.42 44.25 58.42 47.7 C58.42 52.65
									 55.27 56.93 50.7 58.12 L50.62 58.12 L49.12 58.43 L11.02 58.43 L11.02 58.5 Z" class="st1"/>
					</g>
					<g id="shape42-6" v:mID="42" v:groupContext="shape" v:layerMember="0" transform="translate(2.25,-2.25)">
						<title>Sheet.42</title>
						<path d="M49.65 42.45 C49.72 42.07 49.72 41.7 49.72 41.32 C49.72 35.55 45.37 30.9 39.97 30.9 C38.55 30.9
									 37.2 31.2 35.92 31.87 C34.12 28.5 30.75 26.32 27.15 26.32 C21.75 26.32 17.4 30.82 17.02 36.45
									 C16.57 36.37 16.2 36.3 15.75 36.3 C13.2 36.3 10.8 37.65 9.3 39.82 C9.08 39.82 8.93 39.82 8.7
									 39.82 C3.9 39.9 0 44.1 0 49.2 C0 54.3 3.9 58.5 8.77 58.5 L46.72 58.5 L47.92 58.27 C51.52 57.3
									 54 53.93 54 50.02 C54 46.8 52.28 43.88 49.65 42.45 ZM47.4 56.1 L46.5 56.25 L8.77 56.25 C5.17
									 56.25 2.25 53.1 2.25 49.2 C2.25 45.3 5.1 42.15 8.7 42.15 C8.85 42.15 9 42.15 9.15 42.15 L10.42
									 42.22 L11.17 41.1 C12.23 39.45 13.95 38.55 15.75 38.55 C16.05 38.55 16.35 38.55 16.65 38.62
									 L19.12 39.07 L19.27 36.52 C19.5 32.1 22.95 28.57 27.15 28.57 C29.93 28.57 32.55 30.22 33.9 32.92
									 L34.95 34.87 L36.9 33.9 C37.87 33.45 38.92 33.15 39.97 33.15 C44.1 33.15 47.47 36.83 47.47 41.32
									 C47.47 41.63 47.48 41.92 47.4 42.22 L47.25 43.72 L48.6 44.47 C50.55 45.53 51.75 47.7 51.75 50.02
									 C51.75 52.88 49.95 55.35 47.4 56.1 Z" class="st2"/>
					</g>
				</g>
				<g id="group43-8" transform="translate(34.5,-12)" v:mID="43" v:groupContext="group" v:layerMember="0">
					<title>Sheet.43</title>
					<g id="shape44-9" v:mID="44" v:groupContext="shape" v:layerMember="0">
						<title>Sheet.44</title>
						<path d="M27.9 41.03 C27.3 40.43 26.47 39.98 25.65 39.75 C24.97 38.63 24.07 37.73 22.95 37.05 C22.5 35.1
									 20.85 33.53 18.75 33.45 L18.75 30 L16.35 30 L0 32.55 L0 55.88 L16.35 58.5 L18.75 58.5 L18.75
									 55.13 C20.85 54.97 22.5 53.48 22.95 51.53 C24 50.85 24.97 49.87 25.65 48.83 C27.75 48.37 29.25
									 46.5 29.25 44.33 C29.25 43.05 28.8 41.85 27.9 41.03 Z" class="st1"/>
					</g>
					<g id="shape45-11" v:mID="45" v:groupContext="shape" v:layerMember="0" transform="translate(2.25,-2.25)">
						<title>Sheet.45</title>
						<path d="M14.25 34.5 L0 36.75 L0 56.25 L14.25 58.5 L14.25 34.5 Z" class="st3"/>
					</g>
					<g id="shape46-13" v:mID="46" v:groupContext="shape" v:layerMember="0" transform="translate(6.525,-9.525)">
						<title>Sheet.46</title>
						<path d="M3.08 48.53 C1.88 48.6 0.75 49.28 0.38 50.48 C0 51.75 0.45 52.95 1.5 53.7 C2.17 54.23 3.97 54.83
									 3.38 56.03 C3.08 56.55 2.48 56.55 1.95 56.48 C1.28 56.4 0.75 56.03 0.23 55.5 C0.23 55.88 0.23
									 56.25 0.23 56.63 C0.23 56.85 0.23 57.08 0.23 57.3 C0.23 57.53 0.3 57.52 0.53 57.67 C2.03 58.5
									 4.57 58.35 5.18 56.48 C5.48 55.65 5.4 54.6 4.88 53.85 C4.35 53.1 3.6 52.73 2.85 52.28 C2.55
									 52.05 2.17 51.82 2.03 51.45 C1.88 51.08 1.95 50.63 2.25 50.33 C3 49.65 4.28 50.1 4.95 50.63
									 C4.95 50.1 4.95 49.58 4.95 49.13 C4.95 48.98 4.95 48.9 4.95 48.75 C4.95 48.6 4.88 48.6 4.73
									 48.6 C4.28 48.53 3.68 48.53 3.08 48.53 Z" class="st1"/>
					</g>
					<g id="shape47-15" v:mID="47" v:groupContext="shape" v:layerMember="0" transform="translate(17.325,-5.4)">
						<title>Sheet.47</title>
						<path d="M7.35 47.33 C7.2 47.33 7.05 47.33 6.9 47.4 C6.3 45.83 5.02 44.55 3.37 43.88 C3.37 43.73 3.45 43.58
									 3.45 43.43 C3.45 42.15 2.4 41.1 1.12 41.1 C0.75 41.1 0.37 41.18 0 41.4 L0 45.53 C0.3 45.68 0.67
									 45.83 1.12 45.83 C1.8 45.83 2.4 45.53 2.85 45.08 C4.2 45.6 5.25 46.65 5.77 48.08 C5.32 48.53
									 5.02 49.13 5.02 49.8 C5.02 50.48 5.32 51.08 5.77 51.53 C5.25 52.87 4.2 54 2.85 54.53 C2.4 54.07
									 1.8 53.78 1.12 53.78 C0.75 53.78 0.37 53.85 0 54.08 L0 58.2 C0.3 58.35 0.67 58.5 1.12 58.5 C2.4
									 58.5 3.45 57.45 3.45 56.18 C3.45 56.02 3.45 55.87 3.37 55.73 C4.95 55.05 6.22 53.85 6.82 52.2
									 C6.97 52.2 7.12 52.27 7.27 52.28 C8.55 52.27 9.6 51.23 9.6 49.95 C9.67 48.38 8.62 47.33 7.35
									 47.33 Z" class="st4"/>
					</g>
				</g>
			</g>
		</g>
	</g>
</svg>
