<?xml version="1.0" encoding="UTF-8" standalone="no"?>
<!DOCTYPE svg PUBLIC "-//W3C//DTD SVG 1.1//EN" "http://www.w3.org/Graphics/SVG/1.1/DTD/svg11.dtd">
<!-- Generated by Microsoft Visio, SVG Export Cloud Disaster.svg Page-1 -->
<svg xmlns="http://www.w3.org/2000/svg" xmlns:xlink="http://www.w3.org/1999/xlink" xmlns:ev="http://www.w3.org/2001/xml-events"
		xmlns:v="http://schemas.microsoft.com/visio/2003/SVGExtensions/" width="1.01172in" height="0.84375in"
		viewBox="0 0 72.8438 60.75" xml:space="preserve" color-interpolation-filters="sRGB" class="st3">
	<v:documentProperties v:langID="4108" v:metric="true" v:viewMarkup="false"/>

	<style type="text/css">
	<![CDATA[
		.st1 {fill:#ffffff;stroke:none;stroke-linecap:butt;stroke-width:0.75}
		.st2 {fill:#515150;stroke:none;stroke-linecap:butt;stroke-width:0.75}
		.st3 {fill:none;fill-rule:evenodd;font-size:12px;overflow:visible;stroke-linecap:square;stroke-miterlimit:3}
	]]>
	</style>

	<g v:mID="0" v:index="1" v:groupContext="foregroundPage">
		<title>Page-1</title>
		<v:pageProperties v:drawingScale="0.0393701" v:pageScale="0.0393701" v:drawingUnits="24" v:shadowOffsetX="8.50394"
				v:shadowOffsetY="-8.50394"/>
		<v:layer v:name="symbols" v:index="0"/>
		<g id="group12-1" transform="translate(6.99375,-7.3125)" v:mID="12" v:groupContext="group" v:layerMember="0">
			<title>Cloud Disaster</title>
			<g id="group13-2" transform="translate(0,-10.5)" v:mID="13" v:groupContext="group" v:layerMember="0">
				<title>Sheet.13</title>
				<g id="shape14-3" v:mID="14" v:groupContext="shape" v:layerMember="0">
					<title>Sheet.14</title>
					<path d="M11.03 60.75 C4.95 60.75 -0 55.58 0 49.2 C0 42.98 4.65 37.95 10.42 37.65 C12.23 35.55 14.62 34.35 17.33
								 34.13 C18.6 28.35 23.55 24.08 29.33 24.08 C33.15 24.08 36.67 25.95 39 29.1 C40.05 28.8 41.1 28.65
								 42.15 28.65 C48.75 28.65 54.15 34.35 54.15 41.25 C56.85 43.28 58.42 46.5 58.42 49.95 C58.42 54.9
								 55.27 59.18 50.7 60.38 L50.62 60.38 L49.13 60.68 L11.03 60.68 L11.03 60.75 Z" class="st1"/>
				</g>
				<g id="shape15-5" v:mID="15" v:groupContext="shape" v:layerMember="0" transform="translate(2.25,-2.25)">
					<title>Sheet.15</title>
					<path d="M49.65 44.7 C49.72 44.33 49.72 43.95 49.72 43.58 C49.72 37.8 45.38 33.15 39.98 33.15 C38.55 33.15 37.2
								 33.45 35.93 34.13 C34.12 30.75 30.82 28.58 27.15 28.58 C21.75 28.58 17.4 33.08 17.03 38.7 C16.57
								 38.63 16.2 38.55 15.75 38.55 C13.2 38.55 10.8 39.9 9.3 42.08 C9.08 42.08 8.93 42.08 8.7 42.08 C3.9
								 42.15 0 46.35 0 51.45 C0 56.55 3.9 60.75 8.77 60.75 L46.73 60.75 L47.92 60.53 C51.53 59.55 54 56.18
								 54 52.28 C54 49.05 52.28 46.13 49.65 44.7 ZM47.4 58.35 L46.5 58.5 L8.77 58.5 C5.17 58.5 2.25 55.35
								 2.25 51.45 C2.25 47.55 5.1 44.4 8.7 44.4 C8.85 44.4 9 44.4 9.15 44.4 L10.43 44.48 L11.17 43.35 C12.23
								 41.7 13.95 40.8 15.75 40.8 C16.05 40.8 16.35 40.8 16.65 40.88 L19.13 41.33 L19.27 38.78 C19.5 34.28
								 22.95 30.75 27.15 30.75 C29.93 30.75 32.55 32.4 33.9 35.1 L34.95 37.05 L36.9 36.08 C37.88 35.63
								 38.92 35.33 39.98 35.33 C44.1 35.33 47.48 39 47.48 43.5 C47.48 43.8 47.48 44.1 47.4 44.4 L47.25
								 45.9 L48.6 46.65 C50.55 47.7 51.75 49.88 51.75 52.2 C51.75 55.13 49.95 57.6 47.4 58.35 Z"
							class="st2"/>
				</g>
			</g>
			<g id="group16-7" transform="translate(23.1,-2.06057E-13)" v:mID="16" v:groupContext="group" v:layerMember="0">
				<title>Sheet.16</title>
				<g id="group17-8" v:mID="17" v:groupContext="group" v:layerMember="0">
					<title>Sheet.17</title>
					<g id="shape18-9" v:mID="18" v:groupContext="shape" v:layerMember="0">
						<title>Sheet.18</title>
						<path d="M3.75 60.75 C2.32 60.75 1.2 60.15 0.6 59.1 C-0 58.05 -0 56.7 0.75 55.5 L13.95 31.2 C14.7 29.93 15.82
									 29.25 17.03 29.25 C18.22 29.25 19.35 29.93 20.1 31.13 L33.38 55.5 C34.05 56.7 34.12 57.98 33.45
									 59.03 C32.85 60.08 31.65 60.68 30.3 60.68 L3.75 60.68 L3.75 60.75 Z" class="st1"/>
					</g>
					<g id="shape19-11" v:mID="19" v:groupContext="shape" v:layerMember="0" transform="translate(2.025,-2.25)">
						<title>Sheet.19</title>
						<path d="M29.4 58.88 L16.05 34.5 C15.45 33.45 14.48 33.45 13.88 34.5 L0.6 58.88 C-0 59.93 0.53 60.75 1.73
									 60.75 L28.28 60.75 C29.48 60.75 30 59.93 29.4 58.88 Z" class="st2"/>
					</g>
				</g>
				<g id="shape20-13" v:mID="20" v:groupContext="shape" v:layerMember="0" transform="translate(15.525,-6.15)">
					<title>Sheet.20</title>
					<path d="M1.57 60.75 C1.13 60.75 0.75 60.6 0.45 60.3 C0.15 60 0 59.7 0 59.33 C0 58.95 0.15 58.58 0.45 58.28 C0.75
								 57.98 1.13 57.83 1.57 57.83 C2.03 57.83 2.32 57.98 2.63 58.28 C2.92 58.58 3.07 58.88 3.07 59.33
								 C3.07 59.7 2.92 60.08 2.63 60.3 C2.32 60.6 1.95 60.75 1.57 60.75 ZM2.77 45.15 L2.55 56.03 L0.52
								 56.03 L0.23 45.15 L2.77 45.15 Z" class="st1"/>
				</g>
			</g>
		</g>
	</g>
</svg>
