<?xml version="1.0" encoding="UTF-8" standalone="no"?>
<!DOCTYPE svg PUBLIC "-//W3C//DTD SVG 1.1//EN" "http://www.w3.org/Graphics/SVG/1.1/DTD/svg11.dtd">
<!-- Generated by Microsoft Visio, SVG Export Office 365 Cloud.svg Page-1 -->
<svg xmlns="http://www.w3.org/2000/svg" xmlns:xlink="http://www.w3.org/1999/xlink" xmlns:ev="http://www.w3.org/2001/xml-events"
		xmlns:v="http://schemas.microsoft.com/visio/2003/SVGExtensions/" width="1.01172in" height="0.671875in"
		viewBox="0 0 72.8438 48.375" xml:space="preserve" color-interpolation-filters="sRGB" class="st4">
	<v:documentProperties v:langID="4108" v:metric="true" v:viewMarkup="false"/>

	<style type="text/css">
	<![CDATA[
		.st1 {fill:#ffffff;stroke:none;stroke-linecap:butt;stroke-width:0.75}
		.st2 {fill:#515150;stroke:none;stroke-linecap:butt;stroke-width:0.75}
		.st3 {fill:#da4026;stroke:none;stroke-linecap:butt;stroke-width:0.75}
		.st4 {fill:none;fill-rule:evenodd;font-size:12px;overflow:visible;stroke-linecap:square;stroke-miterlimit:3}
	]]>
	</style>

	<g v:mID="0" v:index="1" v:groupContext="foregroundPage">
		<title>Page-1</title>
		<v:pageProperties v:drawingScale="0.0393701" v:pageScale="0.0393701" v:drawingUnits="24" v:shadowOffsetX="8.50394"
				v:shadowOffsetY="-8.50394"/>
		<v:layer v:name="symbols" v:index="0"/>
		<g id="group1-1" transform="translate(4.93125,-5.85)" v:mID="1" v:groupContext="group" v:layerMember="0">
			<title>Office 365 Cloud</title>
			<g id="group2-2" v:mID="2" v:groupContext="group" v:layerMember="0">
				<title>Sheet.2</title>
				<g id="shape3-3" v:mID="3" v:groupContext="shape" v:layerMember="0">
					<title>Sheet.3</title>
					<path d="M11.03 48.37 C4.95 48.37 0 43.2 0 36.83 C0 30.6 4.65 25.58 10.42 25.27 C12.23 23.17 14.62 21.97 17.32
								 21.75 C18.6 15.97 23.55 11.7 29.33 11.7 C33.15 11.7 36.67 13.58 39 16.73 C40.05 16.42 41.1 16.27
								 42.15 16.28 C48.75 16.28 54.15 21.97 54.15 28.88 C56.85 30.9 58.42 34.13 58.42 37.58 C58.42 42.52
								 55.27 46.8 50.7 48 L50.62 48 L49.12 48.3 L11.03 48.3 L11.03 48.37 Z" class="st1"/>
				</g>
				<g id="shape4-5" v:mID="4" v:groupContext="shape" v:layerMember="0" transform="translate(2.25,-2.25)">
					<title>Sheet.4</title>
					<path d="M49.65 32.32 C49.72 31.95 49.72 31.58 49.72 31.2 C49.72 25.43 45.38 20.77 39.98 20.77 C38.55 20.77 37.2
								 21.07 35.93 21.75 C34.12 18.38 30.75 16.2 27.15 16.2 C21.75 16.2 17.4 20.7 17.03 26.32 C16.57 26.25
								 16.2 26.18 15.75 26.18 C13.2 26.18 10.8 27.52 9.3 29.7 C9.08 29.7 8.93 29.7 8.7 29.7 C3.9 29.77
								 0 33.97 0 39.07 C0 44.17 3.9 48.37 8.77 48.37 L46.73 48.37 L47.92 48.15 C51.53 47.17 54 43.8 54
								 39.9 C54 36.68 52.28 33.75 49.65 32.32 ZM47.4 45.97 L46.5 46.12 L8.77 46.12 C5.17 46.12 2.25 42.97
								 2.25 39.07 C2.25 35.17 5.1 32.02 8.7 32.02 C8.85 32.02 9 32.02 9.15 32.02 L10.43 32.1 L11.17 30.98
								 C12.23 29.33 13.95 28.42 15.75 28.43 C16.05 28.43 16.35 28.43 16.65 28.5 L19.13 28.95 L19.27 26.4
								 C19.5 21.98 22.95 18.45 27.15 18.45 C29.93 18.45 32.55 20.1 33.9 22.8 L34.95 24.75 L36.9 23.78 C37.87
								 23.32 38.92 23.02 39.98 23.02 C44.1 23.02 47.48 26.7 47.48 31.2 C47.48 31.5 47.48 31.8 47.4 32.1
								 L47.25 33.6 L48.6 34.35 C50.55 35.4 51.75 37.57 51.75 39.9 C51.75 42.75 49.95 45.22 47.4 45.97 Z"
							class="st2"/>
				</g>
			</g>
			<g id="group5-7" transform="translate(38.25,-12.525)" v:mID="5" v:groupContext="group" v:layerMember="0">
				<title>Sheet.5</title>
				<g id="shape6-8" v:mID="6" v:groupContext="shape" v:layerMember="0">
					<title>Sheet.6</title>
					<path d="M0 25.2 L1.5 24.68 L15.3 19.73 L24.75 22.2 L24.75 46.05 L15.3 48.37 L0 43.05 L0 25.2 Z" class="st1"/>
				</g>
				<g id="shape7-10" v:mID="7" v:groupContext="shape" v:layerMember="0" transform="translate(2.25,-2.325)">
					<title>Sheet.7</title>
					<path d="M20.25 46.65 L20.25 26.25 L13.2 24.38 L0 29.1 L0 43.8 L4.5 42.07 L4.5 30.08 L13.5 27.98 L13.5 45.6 L0
								 43.8 L13.2 48.37 L20.25 46.65 Z" class="st3"/>
				</g>
			</g>
		</g>
	</g>
</svg>
