<?xml version="1.0" encoding="UTF-8" standalone="no"?>
<!DOCTYPE svg PUBLIC "-//W3C//DTD SVG 1.1//EN" "http://www.w3.org/Graphics/SVG/1.1/DTD/svg11.dtd">
<!-- Generated by Microsoft Visio, SVG Export Online Backup.svg Page-1 -->
<svg xmlns="http://www.w3.org/2000/svg" xmlns:xlink="http://www.w3.org/1999/xlink" xmlns:ev="http://www.w3.org/2001/xml-events"
		xmlns:v="http://schemas.microsoft.com/visio/2003/SVGExtensions/" width="1.01172in" height="1.01563in"
		viewBox="0 0 72.8437 73.125" xml:space="preserve" color-interpolation-filters="sRGB" class="st3">
	<v:documentProperties v:langID="4108" v:metric="true" v:viewMarkup="false"/>

	<style type="text/css">
	<![CDATA[
		.st1 {fill:#ffffff;stroke:none;stroke-linecap:butt;stroke-width:0.75}
		.st2 {fill:#515050;stroke:none;stroke-linecap:butt;stroke-width:0.75}
		.st3 {fill:none;fill-rule:evenodd;font-size:12px;overflow:visible;stroke-linecap:square;stroke-miterlimit:3}
	]]>
	</style>

	<g v:mID="0" v:index="1" v:groupContext="foregroundPage">
		<title>Page-1</title>
		<v:pageProperties v:drawingScale="0.0393701" v:pageScale="0.0393701" v:drawingUnits="24" v:shadowOffsetX="8.50394"
				v:shadowOffsetY="-8.50394"/>
		<v:layer v:name="symbols" v:index="0"/>
		<g id="group112-1" transform="translate(7.10625,-4.725)" v:mID="112" v:groupContext="group" v:layerMember="0">
			<title>Online Backup</title>
			<g id="group113-2" v:mID="113" v:groupContext="group" v:layerMember="0">
				<title>Sheet.113</title>
				<g id="shape114-3" v:mID="114" v:groupContext="shape" v:layerMember="0" transform="translate(17.25,3.2685E-13)">
					<title>Sheet.114</title>
					<path d="M22.35 64.2 L17.25 59.18 L17.25 73.13 L8.25 73.13 L8.25 59.18 L3.15 64.2 L0 64.2 L0 54.98 L12.75 42.3
								 L25.5 54.98 L25.5 64.2 L22.35 64.2 Z" class="st1"/>
				</g>
				<g id="group115-5" transform="translate(0,-27)" v:mID="115" v:groupContext="group" v:layerMember="0">
					<title>Sheet.115</title>
					<g id="shape116-6" v:mID="116" v:groupContext="shape" v:layerMember="0">
						<title>Sheet.116</title>
						<path d="M11.03 73.13 C4.95 73.13 -0 67.95 0 61.58 C0 55.35 4.65 50.33 10.42 50.03 C12.23 47.93 14.62 46.73
									 17.33 46.5 C18.6 40.73 23.55 36.45 29.33 36.45 C33.15 36.45 36.67 38.33 39 41.48 C40.05 41.18
									 41.1 41.03 42.15 41.03 C48.75 41.03 54.15 46.73 54.15 53.63 C56.85 55.65 58.42 58.88 58.42 62.33
									 C58.42 67.28 55.27 71.55 50.7 72.75 L50.62 72.75 L49.13 73.05 L11.03 73.05 L11.03 73.13 Z"
								class="st1"/>
					</g>
					<g id="shape117-8" v:mID="117" v:groupContext="shape" v:layerMember="0" transform="translate(2.25,-2.25)">
						<title>Sheet.117</title>
						<path d="M49.65 57.08 C49.72 56.7 49.72 56.33 49.72 55.95 C49.72 50.18 45.38 45.53 39.98 45.53 C38.55 45.53
									 37.2 45.83 35.93 46.5 C34.05 43.05 30.75 40.95 27.08 40.95 C21.68 40.95 17.32 45.45 16.95 51.08
									 C16.5 51 16.12 50.93 15.68 50.93 C13.13 50.93 10.72 52.28 9.22 54.45 C9 54.45 8.85 54.45 8.62
									 54.45 C3.9 54.53 0 58.73 0 63.83 C0 68.93 3.9 73.13 8.77 73.13 L46.73 73.13 L47.92 72.9 C51.53
									 71.93 54 68.55 54 64.65 C54 61.43 52.28 58.5 49.65 57.08 ZM47.4 70.73 L46.5 70.88 L8.77 70.88
									 C5.17 70.88 2.25 67.73 2.25 63.83 C2.25 59.93 5.1 56.78 8.7 56.78 C8.85 56.78 9 56.78 9.15 56.78
									 L10.43 56.85 L11.17 55.73 C12.23 54.08 13.95 53.18 15.75 53.18 C16.05 53.18 16.35 53.18 16.65
									 53.25 L19.13 53.7 L19.27 51.15 C19.5 46.65 22.95 43.13 27.15 43.13 C29.93 43.13 32.55 44.78
									 33.9 47.48 L34.95 49.43 L36.9 48.45 C37.88 48 38.92 47.7 39.98 47.7 C44.1 47.7 47.48 51.38 47.48
									 55.88 C47.48 56.18 47.48 56.48 47.4 56.78 L47.25 58.28 L48.6 59.03 C50.55 60.08 51.75 62.25
									 51.75 64.58 C51.75 67.5 49.95 69.98 47.4 70.73 Z" class="st2"/>
					</g>
				</g>
				<g id="shape118-10" v:mID="118" v:groupContext="shape" v:layerMember="0" transform="translate(19.5,-2.25)">
					<title>Sheet.118</title>
					<path d="M8.25 55.95 L0 64.2 L0 58.2 L10.5 47.7 L21 58.2 L21 64.2 L12.75 55.95 L12.75 73.13 L8.25 73.13 L8.25
								 55.95 Z" class="st2"/>
				</g>
			</g>
			<g id="shape112-12" v:mID="112" v:groupContext="groupContent" v:layerMember="0">
				<v:textBlock v:margins="rect(0,0,0,0)" v:tabSpace="42.5197"/>
			</g>
		</g>
	</g>
</svg>
