<?xml version="1.0" encoding="UTF-8" standalone="no"?>
<!DOCTYPE svg PUBLIC "-//W3C//DTD SVG 1.1//EN" "http://www.w3.org/Graphics/SVG/1.1/DTD/svg11.dtd">
<!-- Generated by Microsoft Visio, SVG Export Online User.svg Page-1 -->
<svg xmlns="http://www.w3.org/2000/svg" xmlns:xlink="http://www.w3.org/1999/xlink" xmlns:ev="http://www.w3.org/2001/xml-events"
		xmlns:v="http://schemas.microsoft.com/visio/2003/SVGExtensions/" width="1.01172in" height="0.828125in"
		viewBox="0 0 72.8438 59.625" xml:space="preserve" color-interpolation-filters="sRGB" class="st3">
	<v:documentProperties v:langID="4108" v:metric="true" v:viewMarkup="false"/>

	<style type="text/css">
	<![CDATA[
		.st1 {fill:#ffffff;stroke:none;stroke-linecap:butt;stroke-width:0.75}
		.st2 {fill:#515251;stroke:none;stroke-linecap:butt;stroke-width:0.75}
		.st3 {fill:none;fill-rule:evenodd;font-size:12px;overflow:visible;stroke-linecap:square;stroke-miterlimit:3}
	]]>
	</style>

	<g v:mID="0" v:index="1" v:groupContext="foregroundPage">
		<title>Page-1</title>
		<v:pageProperties v:drawingScale="0.0393701" v:pageScale="0.0393701" v:drawingUnits="24" v:shadowOffsetX="8.50394"
				v:shadowOffsetY="-8.50394"/>
		<v:layer v:name="symbols" v:index="0"/>
		<g id="group119-1" transform="translate(7.36875,-6.1875)" v:mID="119" v:groupContext="group" v:layerMember="0">
			<title>Online User</title>
			<g id="group120-2" transform="translate(0,-10.575)" v:mID="120" v:groupContext="group" v:layerMember="0">
				<title>Sheet.120</title>
				<g id="shape121-3" v:mID="121" v:groupContext="shape" v:layerMember="0">
					<title>Sheet.121</title>
					<path d="M11.03 59.63 C4.95 59.63 -0 54.45 0 48.08 C0 41.85 4.65 36.83 10.42 36.53 C12.23 34.43 14.62 33.23 17.33
								 33 C18.6 27.23 23.55 22.95 29.33 22.95 C33.15 22.95 36.67 24.83 39 27.98 C40.05 27.68 41.1 27.53
								 42.15 27.53 C48.75 27.53 54.15 33.23 54.15 40.13 C56.85 42.15 58.42 45.38 58.42 48.83 C58.42 53.78
								 55.27 58.05 50.7 59.25 L50.62 59.25 L49.13 59.55 L11.03 59.55 L11.03 59.63 Z" class="st1"/>
				</g>
				<g id="shape122-5" v:mID="122" v:groupContext="shape" v:layerMember="0" transform="translate(2.25,-2.25)">
					<title>Sheet.122</title>
					<path d="M49.65 43.58 C49.72 43.2 49.72 42.83 49.72 42.45 C49.72 36.68 45.38 32.03 39.98 32.03 C38.55 32.03 37.2
								 32.33 35.93 33 C34.12 29.63 30.75 27.45 27.15 27.45 C21.75 27.45 17.4 31.95 17.03 37.58 C16.57 37.5
								 16.2 37.43 15.75 37.43 C13.2 37.43 10.8 38.78 9.3 40.95 C9.08 40.95 8.93 40.95 8.7 40.95 C3.9 41.03
								 0 45.23 0 50.33 C0 55.43 3.9 59.63 8.77 59.63 L46.73 59.63 L47.92 59.4 C51.53 58.43 54 55.05 54
								 51.15 C54 47.93 52.28 45 49.65 43.58 ZM47.4 57.23 L46.5 57.38 L8.77 57.38 C5.17 57.38 2.25 54.23
								 2.25 50.33 C2.25 46.43 5.1 43.28 8.7 43.28 C8.85 43.28 9 43.28 9.15 43.28 L10.43 43.35 L11.17 42.23
								 C12.23 40.58 13.95 39.68 15.75 39.68 C16.05 39.68 16.35 39.68 16.65 39.75 L19.13 40.2 L19.27 37.65
								 C19.5 33.23 22.95 29.7 27.15 29.7 C29.93 29.7 32.55 31.35 33.9 34.05 L34.95 36 L36.9 35.03 C37.88
								 34.58 38.92 34.28 39.98 34.28 C44.1 34.28 47.48 37.95 47.48 42.45 C47.48 42.75 47.48 43.05 47.4
								 43.35 L47.25 44.85 L48.6 45.6 C50.55 46.65 51.75 48.83 51.75 51.15 C51.75 54 49.95 56.48 47.4 57.23
								 Z" class="st2"/>
				</g>
			</g>
			<g id="group123-7" transform="translate(23.25,2.34479E-13)" v:mID="123" v:groupContext="group" v:layerMember="0">
				<title>Sheet.123</title>
				<g id="shape124-8" v:mID="124" v:groupContext="shape" v:layerMember="0">
					<title>Sheet.124</title>
					<path d="M31.13 57.23 C30.97 55.05 30.45 50.63 30 48.53 C29.4 46.05 28.57 44.25 26.17 42.9 C25.87 42.75 25.57
								 42.6 25.35 42.45 C24.3 41.85 23.47 41.4 22.72 41.18 C23.77 39.6 24.37 37.73 24.37 35.63 C24.37 30.45
								 20.48 26.18 15.68 26.18 C10.88 26.18 6.97 30.38 6.97 35.63 C6.97 37.73 7.57 39.6 8.62 41.18 C7.87
								 41.33 7.13 41.78 5.85 42.45 L5.1 42.9 C2.7 44.25 1.88 46.05 1.27 48.53 C0.82 50.63 0.3 55.05 0.15
								 57.23 L0 59.63 L31.27 59.63 L31.13 57.23 Z" class="st1"/>
				</g>
				<g id="shape125-10" v:mID="125" v:groupContext="shape" v:layerMember="0" transform="translate(2.55,-2.25)">
					<title>Sheet.125</title>
					<path d="M25.27 51.3 C24.75 49.13 24.15 48.08 22.57 47.18 C20.92 46.28 20.02 45.68 19.42 45.68 C19.12 45.68 18.97
								 45.75 18.75 45.83 C18.38 46.2 17.93 46.5 17.48 46.8 C17.48 46.8 17.48 46.8 17.48 46.8 C17.4 46.88
								 17.32 46.88 17.25 46.95 C16.8 47.25 16.35 47.4 15.82 47.55 C15 47.85 14.1 48 13.13 48 C12.15 48
								 11.25 47.85 10.43 47.55 C9.98 47.4 9.53 47.18 9.08 46.95 C8.55 46.65 8.02 46.28 7.57 45.83 C7.43
								 45.75 7.2 45.68 6.9 45.68 C6.3 45.68 5.63 46.13 3.75 47.18 C2.1 48.08 1.5 49.13 1.05 51.3 C0.6 53.18
								 0.08 57.53 0 59.63 L26.47 59.63 C26.17 57.53 25.72 53.25 25.27 51.3 Z" class="st2"/>
				</g>
				<g id="shape126-12" v:mID="126" v:groupContext="shape" v:layerMember="0" transform="translate(9.225,-16.725)">
					<title>Sheet.126</title>
					<path d="M6.45 59.63 C2.85 59.63 0 56.4 0 52.43 C-0 48.45 2.93 45.23 6.45 45.23 C10.05 45.23 12.9 48.45 12.9
								 52.43 C12.9 56.4 9.98 59.63 6.45 59.63 Z" class="st2"/>
				</g>
			</g>
		</g>
	</g>
</svg>
