<?xml version="1.0" encoding="UTF-8" standalone="no"?>
<!DOCTYPE svg PUBLIC "-//W3C//DTD SVG 1.1//EN" "http://www.w3.org/Graphics/SVG/1.1/DTD/svg11.dtd">
<!-- Generated by Microsoft Visio, SVG Export Private Cloud.svg Page-1 -->
<svg xmlns="http://www.w3.org/2000/svg" xmlns:xlink="http://www.w3.org/1999/xlink" xmlns:ev="http://www.w3.org/2001/xml-events"
		xmlns:v="http://schemas.microsoft.com/visio/2003/SVGExtensions/" width="1.01172in" height="0.703125in"
		viewBox="0 0 72.8437 50.625" xml:space="preserve" color-interpolation-filters="sRGB" class="st3">
	<v:documentProperties v:langID="4108" v:metric="true" v:viewMarkup="false"/>

	<style type="text/css">
	<![CDATA[
		.st1 {fill:#ffffff;stroke:none;stroke-linecap:butt;stroke-width:0.75}
		.st2 {fill:#515251;stroke:none;stroke-linecap:butt;stroke-width:0.75}
		.st3 {fill:none;fill-rule:evenodd;font-size:12px;overflow:visible;stroke-linecap:square;stroke-miterlimit:3}
	]]>
	</style>

	<g v:mID="0" v:index="1" v:groupContext="foregroundPage">
		<title>Page-1</title>
		<v:pageProperties v:drawingScale="0.0393701" v:pageScale="0.0393701" v:drawingUnits="24" v:shadowOffsetX="8.50394"
				v:shadowOffsetY="-8.50394"/>
		<v:layer v:name="symbols" v:index="0"/>
		<g id="group48-1" transform="translate(7.10625,-6.9375)" v:mID="48" v:groupContext="group" v:layerMember="0">
			<title>Private Cloud</title>
			<g id="group49-2" v:mID="49" v:groupContext="group" v:layerMember="0">
				<title>Sheet.49</title>
				<g id="shape50-3" v:mID="50" v:groupContext="shape" v:layerMember="0">
					<title>Sheet.50</title>
					<path d="M11.03 50.63 C4.95 50.63 -0 45.38 0 39 C0 32.78 4.65 27.75 10.42 27.45 C12.23 25.35 14.62 24.15 17.33
								 23.93 C18.6 18.15 23.55 13.88 29.33 13.88 C33.15 13.88 36.67 15.75 39 18.9 C40.05 18.6 41.1 18.45
								 42.15 18.45 C48.75 18.45 54.15 24.15 54.15 31.05 C56.85 33.08 58.42 36.3 58.42 39.75 C58.42 44.7
								 55.27 48.98 50.7 50.18 L50.62 50.18 L49.13 50.48 L11.03 50.48 L11.03 50.63 Z" class="st1"/>
				</g>
				<g id="shape51-5" v:mID="51" v:groupContext="shape" v:layerMember="0" transform="translate(2.25,-2.25)">
					<title>Sheet.51</title>
					<path d="M49.65 34.58 C49.72 34.2 49.72 33.83 49.72 33.45 C49.72 27.68 45.38 23.03 39.98 23.03 C38.55 23.03 37.2
								 23.33 35.93 24 C34.05 20.55 30.75 18.38 27.08 18.38 C21.68 18.38 17.32 22.88 16.95 28.5 C16.5 28.43
								 16.12 28.35 15.68 28.35 C13.13 28.35 10.72 29.7 9.22 31.88 C4.2 31.65 0 35.93 0 41.25 C0 46.43 3.9
								 50.63 8.77 50.63 L46.73 50.63 L47.92 50.4 C51.53 49.43 54 46.05 54 42.15 C54 38.93 52.28 36 49.65
								 34.58 Z" class="st2"/>
				</g>
			</g>
		</g>
	</g>
</svg>
