<?xml version="1.0" encoding="UTF-8" standalone="no"?>
<!DOCTYPE svg PUBLIC "-//W3C//DTD SVG 1.1//EN" "http://www.w3.org/Graphics/SVG/1.1/DTD/svg11.dtd">
<!-- Generated by Microsoft Visio, SVG Export Public Cloud.svg Page-1 -->
<svg xmlns="http://www.w3.org/2000/svg" xmlns:xlink="http://www.w3.org/1999/xlink" xmlns:ev="http://www.w3.org/2001/xml-events"
		xmlns:v="http://schemas.microsoft.com/visio/2003/SVGExtensions/" width="1.01172in" height="0.828125in"
		viewBox="0 0 72.8437 59.625" xml:space="preserve" color-interpolation-filters="sRGB" class="st4">
	<v:documentProperties v:langID="4108" v:metric="true" v:viewMarkup="false"/>

	<style type="text/css">
	<![CDATA[
		.st1 {fill:#ffffff;stroke:none;stroke-linecap:butt;stroke-width:0.75}
		.st2 {fill:#515251;stroke:none;stroke-linecap:butt;stroke-width:0.75}
		.st3 {fill:#515050;stroke:none;stroke-linecap:butt;stroke-width:0.75}
		.st4 {fill:none;fill-rule:evenodd;font-size:12px;overflow:visible;stroke-linecap:square;stroke-miterlimit:3}
	]]>
	</style>

	<g v:mID="0" v:index="1" v:groupContext="foregroundPage">
		<title>Page-1</title>
		<v:pageProperties v:drawingScale="0.0393701" v:pageScale="0.0393701" v:drawingUnits="24" v:shadowOffsetX="8.50394"
				v:shadowOffsetY="-8.50394"/>
		<v:layer v:name="symbols" v:index="0"/>
		<g id="group52-1" transform="translate(4.55625,-2.85)" v:mID="52" v:groupContext="group" v:layerMember="0">
			<title>Public Cloud</title>
			<g id="group53-2" v:mID="53" v:groupContext="group" v:layerMember="0">
				<title>Sheet.53</title>
				<g id="group54-3" transform="translate(3.15747E-13,-15)" v:mID="54" v:groupContext="group" v:layerMember="0">
					<title>Sheet.54</title>
					<g id="shape55-4" v:mID="55" v:groupContext="shape" v:layerMember="0">
						<title>Sheet.55</title>
						<path d="M11.03 59.62 C4.95 59.62 0 54.45 0 48.07 C-0 41.85 4.65 36.82 10.42 36.52 C12.23 34.42 14.62 33.22
									 17.32 33 C18.6 27.22 23.55 22.95 29.33 22.95 C33.15 22.95 36.67 24.82 39 27.97 C40.05 27.67
									 41.1 27.52 42.15 27.52 C48.75 27.52 54.15 33.22 54.15 40.12 C56.85 42.15 58.42 45.37 58.42 48.82
									 C58.42 53.77 55.27 58.05 50.7 59.25 L50.62 59.25 L49.12 59.55 L11.03 59.55 L11.03 59.62 Z"
								class="st1"/>
					</g>
					<g id="shape56-6" v:mID="56" v:groupContext="shape" v:layerMember="0" transform="translate(2.25,-2.25)">
						<title>Sheet.56</title>
						<path d="M49.65 43.57 C49.72 43.2 49.72 42.82 49.72 42.45 C49.72 36.67 45.37 32.02 39.97 32.02 C38.55 32.02
									 37.2 32.32 35.92 33 C34.12 29.62 30.82 27.45 27.15 27.45 C21.75 27.45 17.4 31.95 17.03 37.57
									 C16.57 37.5 16.2 37.42 15.75 37.42 C13.2 37.42 10.8 38.77 9.3 40.95 C9.08 40.95 8.93 40.95 8.7
									 40.95 C3.9 41.02 0 45.22 0 50.32 C0 55.42 3.9 59.62 8.77 59.62 L46.72 59.62 L47.92 59.4 C51.52
									 58.42 54 55.05 54 51.15 C54 47.92 52.28 45 49.65 43.57 ZM47.4 57.22 L46.5 57.37 L8.77 57.37
									 C5.17 57.37 2.25 54.22 2.25 50.32 C2.25 46.42 5.1 43.27 8.7 43.27 C8.85 43.27 9 43.27 9.15 43.27
									 L10.43 43.35 L11.17 42.22 C12.23 40.57 13.95 39.67 15.75 39.67 C16.05 39.67 16.35 39.67 16.65
									 39.75 L19.13 40.2 L19.27 37.65 C19.5 33.15 22.95 29.62 27.15 29.62 C29.93 29.62 32.55 31.27
									 33.9 33.97 L34.95 35.92 L36.9 34.95 C37.87 34.5 38.92 34.2 39.97 34.2 C44.1 34.2 47.47 37.87
									 47.47 42.37 C47.47 42.67 47.47 42.97 47.4 43.27 L47.25 44.77 L48.6 45.52 C50.55 46.57 51.75
									 48.75 51.75 51.07 C51.75 54 49.95 56.47 47.4 57.22 Z" class="st2"/>
					</g>
				</g>
				<g id="group57-8" transform="translate(33.75,-2.55795E-13)" v:mID="57" v:groupContext="group" v:layerMember="0">
					<title>Sheet.57</title>
					<g id="group58-9" v:mID="58" v:groupContext="group" v:layerMember="0">
						<title>Sheet.58</title>
						<g id="shape59-10" v:mID="59" v:groupContext="shape" v:layerMember="0">
							<title>Sheet.59</title>
							<path d="M4.5 59.62 C2.03 59.62 0 57.6 0 55.12 L0 34.12 C0 31.65 2.03 29.62 4.5 29.62 L25.5 29.62 C27.98
										 29.62 30 31.65 30 34.12 L30 55.12 C30 57.6 27.98 59.62 25.5 59.62 L4.5 59.62 Z"
									class="st1"/>
						</g>
						<g id="shape60-12" v:mID="60" v:groupContext="shape" v:layerMember="0" transform="translate(2.25,-2.25)">
							<title>Sheet.60</title>
							<path d="M25.5 57.37 C25.5 58.65 24.53 59.62 23.25 59.62 L2.25 59.62 C0.98 59.62 0 58.65 0 57.37 L0 36.37
										 C0 35.1 0.98 34.12 2.25 34.12 L23.25 34.12 C24.53 34.12 25.5 35.1 25.5 36.37 L25.5 57.37
										 Z" class="st3"/>
						</g>
					</g>
					<g id="group61-14" transform="translate(6.75,-6.75)" v:mID="61" v:groupContext="group" v:layerMember="0">
						<title>Sheet.61</title>
						<g id="group62-15" transform="translate(0.225,-0.9)" v:mID="62" v:groupContext="group" v:layerMember="0">
							<title>Sheet.62</title>
							<g id="shape63-16" v:mID="63" v:groupContext="shape" v:layerMember="0"
									transform="translate(0.375,-3.525)">
								<title>Sheet.63</title>
								<path d="M1.05 59.62 C0.38 58.5 0 57.15 0 55.8 C0 55.35 -0 54.9 0.08 54.52 C0.08 54.6 0.15 54.67
											 0.15 54.67 C0.38 55.2 1.13 55.95 1.88 56.62 C2.03 56.77 2.17 56.92 2.32 57.07 C1.8 57.22
											 1.2 57.52 0.98 57.75 C0.52 58.2 0.75 58.95 1.05 59.62 Z" class="st1"/>
							</g>
							<g id="shape64-18" v:mID="64" v:groupContext="shape" v:layerMember="0">
								<title>Sheet.64</title>
								<path d="M0.75 52.12 C1.05 52.5 1.5 52.87 2.02 53.4 C2.02 53.4 2.02 53.4 2.1 53.47 C1.65 53.7 1.35
											 53.85 1.2 54 C1.13 54.07 1.13 54.07 1.05 54.15 C0.9 53.55 0.83 52.95 0.83 52.35 C0.75
											 52.2 0.75 52.2 0.75 52.12 ZM1.2 48.15 C0.45 49.35 0 50.77 0 52.35 C0 55.57 1.95 58.35
											 4.65 59.62 C3.82 58.8 3.15 57.45 2.1 57.15 C2.25 56.85 1.13 55.12 1.65 54.6 C1.87 54.3
											 3.37 53.85 3.37 53.85 C3.22 53.47 1.28 51.9 0.9 51.15 C0.52 50.32 0.67 49.57 0.75 49.05
											 C0.83 48.75 0.98 48.45 1.2 48.15 Z" class="st1"/>
							</g>
						</g>
						<g id="group65-20" transform="translate(3,-0.375)" v:mID="65" v:groupContext="group" v:layerMember="0">
							<title>Sheet.65</title>
							<g id="group66-21" transform="translate(11.625,-6.075)" v:mID="66" v:groupContext="group"
									v:layerMember="0">
								<title>Sheet.66</title>
								<g id="shape67-22" v:mID="67" v:groupContext="shape" v:layerMember="0">
									<title>Sheet.67</title>
									<path d="M1.43 59.62 C1.58 59.02 1.65 58.42 1.65 57.82 C1.65 56.02 1.05 54.3 0 52.95 C0.75 54.15
												 1.88 57.07 1.43 59.62 Z" class="st1"/>
								</g>
								<g id="shape68-24" v:mID="68" v:groupContext="shape" v:layerMember="0">
									<title>Sheet.68</title>
									<path d="M0 52.95 C0.75 54.15 1.88 57.07 1.43 59.62 C1.58 59.02 1.65 58.42 1.65 57.82 C1.65 55.95
												 1.05 54.3 0 52.95 Z" class="st1"/>
								</g>
							</g>
							<g id="group69-26" v:mID="69" v:groupContext="group" v:layerMember="0">
								<title>Sheet.69</title>
								<g id="shape70-27" v:mID="70" v:groupContext="shape" v:layerMember="0"
										transform="translate(0.45,-0.225)">
									<title>Sheet.70</title>
									<path d="M4.8 59.62 C4.73 59.62 4.57 59.62 4.5 59.62 C4.73 59.25 4.8 58.87 4.88 58.42 C5.03 57.97
												 5.1 57.45 5.4 57 C6.3 55.65 6.08 54.52 5.63 54 C5.63 53.92 5.55 53.77 5.48 53.7
												 C5.25 53.47 4.95 53.32 4.28 53.32 C3.9 53.32 3.52 53.32 3.15 53.4 C2.85 53.4 2.55
												 53.47 2.33 53.47 C2.25 53.47 2.18 53.47 2.1 53.47 C0.07 51.75 0 51.22 0.07 51 C0.07
												 51 0.23 50.92 0.45 50.92 C0.6 50.92 0.75 50.92 0.75 51 C0.83 51.52 1.13 52.12 2.25
												 52.57 L2.47 52.65 L2.63 52.5 C2.93 52.27 2.77 51.9 2.55 51.3 C2.47 51.15 2.4 50.92
												 2.4 50.85 C2.4 50.47 2.93 49.35 3.15 49.27 C3.15 49.27 3.15 49.27 3.15 49.27 C3.75
												 49.27 4.05 48.97 4.28 48.75 C4.5 48.52 4.65 48.3 5.32 48.3 C5.55 48.3 5.7 48.15
												 5.85 47.85 C6 47.32 6.23 46.12 5.55 45.52 C5.25 45.3 4.95 45.15 4.65 45.15 C4.05
												 45.15 3.6 45.6 3.23 45.9 C3.15 45.97 3 46.05 2.93 46.12 C2.93 46.12 2.93 46.12 2.93
												 46.12 C2.93 46.05 2.85 45.97 2.85 45.82 C2.63 45.37 2.4 45.07 2.18 44.92 C3 44.62
												 3.82 44.47 4.65 44.47 C6.08 44.47 7.5 44.85 8.7 45.6 C8.33 45.75 8.03 46.05 7.73
												 46.5 C7.28 47.17 7.13 47.77 7.35 48.15 C7.65 48.67 8.25 48.75 8.78 48.75 C7.8 49.42
												 6.23 50.62 6.45 52.2 C6.53 53.17 8.48 53.85 9.3 54.07 C9.45 54.82 10.05 56.32 10.88
												 56.7 C9.53 58.42 7.28 59.62 4.8 59.62 Z" class="st1"/>
								</g>
								<g id="shape71-29" v:mID="71" v:groupContext="shape" v:layerMember="0">
									<title>Sheet.71</title>
									<path d="M5.7 44.47 C6.67 44.55 7.65 44.77 8.48 45.22 C8.25 45.37 8.1 45.6 7.87 45.9 C7.65 46.2
												 7.05 47.1 7.5 47.92 C7.65 48.3 7.95 48.45 8.33 48.6 C7.42 49.35 6.38 50.47 6.52
												 51.9 C6.67 53.02 8.48 53.7 9.45 54 C9.68 54.75 10.13 55.87 10.8 56.4 C9.53 57.97
												 7.58 58.87 5.48 58.95 C5.55 58.72 5.63 58.42 5.7 58.2 C5.85 57.75 5.92 57.3 6.15
												 56.92 C7.13 55.5 6.9 54.22 6.45 53.55 C6.45 53.4 6.38 53.32 6.3 53.17 C6 52.72 5.4
												 52.65 4.8 52.65 C4.43 52.65 4.05 52.65 3.68 52.72 C3.37 52.72 3.08 52.8 2.93 52.8
												 C2.93 52.8 2.93 52.8 2.85 52.8 C2.7 52.72 2.62 52.57 2.55 52.5 C2.62 52.5 2.7 52.57
												 2.77 52.57 L3.23 52.72 L3.6 52.42 C4.05 52.05 3.83 51.45 3.6 50.77 C3.52 50.62 3.45
												 50.47 3.45 50.4 C3.45 50.1 3.75 49.5 3.98 49.2 C4.73 49.12 5.02 48.75 5.25 48.52
												 C5.4 48.3 5.48 48.22 6 48.22 C6.23 48.22 6.67 48.15 6.9 47.47 C7.13 46.87 7.35 45.45
												 6.45 44.7 C6.23 44.7 6 44.55 5.7 44.47 ZM4.73 44.47 C4.35 44.62 3.98 44.85 3.75
												 45.07 C3.68 44.92 3.6 44.77 3.52 44.62 C3.9 44.62 4.27 44.55 4.73 44.47 ZM5.25 43.72
												 C5.25 43.72 5.25 43.72 5.25 43.72 C3.75 43.72 2.4 44.1 1.28 44.77 C1.5 44.7 1.72
												 44.62 1.95 44.62 C2.4 44.62 2.85 44.85 3.15 45.52 C3.3 45.9 3.23 46.05 3.6 46.05
												 C3.6 46.05 3.68 46.05 3.68 46.05 C3.98 46.05 4.58 45.07 5.33 45.07 C5.55 45.07 5.77
												 45.15 6 45.37 C6.6 45.9 6.3 47.55 6 47.55 C4.43 47.55 4.87 48.52 3.83 48.52 C3.83
												 48.52 3.83 48.52 3.75 48.52 C3.75 48.52 3.75 48.52 3.75 48.52 C3.3 48.52 2.62 49.95
												 2.62 50.55 C2.62 50.85 3.15 51.82 3 51.9 C2.25 51.6 1.72 51.15 1.72 50.55 C1.58
												 50.4 1.35 50.25 1.05 50.25 C0.75 50.25 0.45 50.32 0.38 50.55 C0 51.3 1.5 52.57 2.55
												 53.47 C2.62 53.47 2.78 53.55 2.93 53.55 C3.37 53.55 4.2 53.47 4.8 53.47 C5.4 53.47
												 5.77 53.55 5.7 53.85 C6.08 54.15 6.45 55.2 5.55 56.47 C4.8 57.6 5.1 59.17 4.05 59.55
												 C4.43 59.62 4.87 59.62 5.25 59.62 C5.25 59.62 5.25 59.62 5.25 59.62 C8.55 59.62
												 11.4 57.6 12.6 54.67 C12.45 55.05 12.23 55.35 12 55.65 C11.85 55.8 11.78 55.87 11.63
												 55.87 C10.88 55.87 10.05 53.85 10.05 53.25 C10.05 53.25 10.05 53.25 10.05 53.25
												 C9.83 53.25 7.35 52.5 7.28 51.67 C7.05 49.72 10.05 48.3 10.2 47.92 C10.2 47.85 10.05
												 47.85 9.83 47.85 C9.75 47.85 9.68 47.85 9.6 47.85 C8.78 47.85 7.58 47.77 8.63 46.2
												 C9.08 45.6 9.45 45.37 9.9 45.37 C10.2 45.37 10.43 45.45 10.65 45.6 C9.15 44.47 7.28
												 43.72 5.25 43.72 Z" class="st1"/>
								</g>
							</g>
						</g>
						<g id="shape72-31" v:mID="72" v:groupContext="shape" v:layerMember="0">
							<title>Sheet.72</title>
							<path d="M8.25 43.12 L8.25 43.87 C12.38 43.87 15.75 47.25 15.75 51.37 C15.75 55.5 12.38 58.87 8.25 58.87
										 C4.13 58.87 0.75 55.5 0.75 51.37 C0.75 47.25 4.13 43.87 8.25 43.87 L8.25 43.12 ZM8.25 43.12
										 C8.25 43.12 8.25 43.12 8.25 43.12 C3.67 43.12 0 46.87 0 51.37 C0 55.95 3.67 59.62 8.25 59.62
										 C8.25 59.62 8.25 59.62 8.25 59.62 C12.83 59.62 16.5 55.87 16.5 51.37 C16.5 46.8 12.83 43.12
										 8.25 43.12 Z" class="st1"/>
						</g>
					</g>
				</g>
			</g>
		</g>
	</g>
</svg>
