<?xml version="1.0" encoding="UTF-8" standalone="no"?>
<!DOCTYPE svg PUBLIC "-//W3C//DTD SVG 1.1//EN" "http://www.w3.org/Graphics/SVG/1.1/DTD/svg11.dtd">
<!-- Generated by Microsoft Visio, SVG Export Public IM Cloud Service.svg Page-1 -->
<svg xmlns="http://www.w3.org/2000/svg" xmlns:xlink="http://www.w3.org/1999/xlink" xmlns:ev="http://www.w3.org/2001/xml-events"
		xmlns:v="http://schemas.microsoft.com/visio/2003/SVGExtensions/" width="1.01172in" height="0.96875in"
		viewBox="0 0 72.8438 69.75" xml:space="preserve" color-interpolation-filters="sRGB" class="st3">
	<v:documentProperties v:langID="4108" v:metric="true" v:viewMarkup="false"/>

	<style type="text/css">
	<![CDATA[
		.st1 {fill:#ffffff;stroke:none;stroke-linecap:butt;stroke-width:0.75}
		.st2 {fill:#525352;stroke:none;stroke-linecap:butt;stroke-width:0.75}
		.st3 {fill:none;fill-rule:evenodd;font-size:12px;overflow:visible;stroke-linecap:square;stroke-miterlimit:3}
	]]>
	</style>

	<g v:mID="0" v:index="1" v:groupContext="foregroundPage">
		<title>Page-1</title>
		<v:pageProperties v:drawingScale="0.0393701" v:pageScale="0.0393701" v:drawingUnits="24" v:shadowOffsetX="8.50394"
				v:shadowOffsetY="-8.50394"/>
		<v:layer v:name="symbols" v:index="0"/>
		<g id="group73-1" transform="translate(4.63125,-2.025)" v:mID="73" v:groupContext="group" v:layerMember="0">
			<title>Public IM Cloud Service</title>
			<g id="group74-2" v:mID="74" v:groupContext="group" v:layerMember="0">
				<title>Sheet.74</title>
				<g id="group75-3" v:mID="75" v:groupContext="group" v:layerMember="0">
					<title>Sheet.75</title>
					<g id="group76-4" transform="translate(-3.23741E-13,-12.15)" v:mID="76" v:groupContext="group"
							v:layerMember="0">
						<title>Sheet.76</title>
						<g id="shape77-5" v:mID="77" v:groupContext="shape" v:layerMember="0">
							<title>Sheet.77</title>
							<path d="M11.03 69.75 C4.95 69.75 0 64.58 0 58.2 C0 51.98 4.65 46.95 10.42 46.65 C12.23 44.55 14.62 43.35
										 17.33 43.13 C18.6 37.35 23.55 33.08 29.33 33.08 C33.15 33.08 36.67 34.95 39 38.1 C40.05
										 37.8 41.1 37.65 42.15 37.65 C48.75 37.65 54.15 43.35 54.15 50.25 C56.85 52.28 58.43 55.5
										 58.43 58.95 C58.43 63.9 55.27 68.18 50.7 69.38 L50.62 69.38 L49.13 69.68 L11.03 69.68 L11.03
										 69.75 Z" class="st1"/>
						</g>
						<g id="shape78-7" v:mID="78" v:groupContext="shape" v:layerMember="0" transform="translate(2.25,-2.25)">
							<title>Sheet.78</title>
							<path d="M49.65 53.7 C49.72 53.33 49.72 52.95 49.72 52.58 C49.72 46.8 45.38 42.15 39.98 42.15 C38.55
										 42.15 37.2 42.45 35.93 43.13 C34.05 39.75 30.75 37.58 27.08 37.58 C21.68 37.58 17.32 42.08
										 16.95 47.7 C16.5 47.63 16.12 47.55 15.68 47.55 C13.13 47.55 10.72 48.9 9.22 51.08 C9 51.08
										 8.85 51.08 8.62 51.08 C3.9 51.15 0 55.35 0 60.45 C0 65.55 3.9 69.75 8.77 69.75 L46.73 69.75
										 L47.93 69.53 C51.53 68.55 54 65.18 54 61.28 C54 58.05 52.28 55.13 49.65 53.7 ZM47.4 67.35
										 L46.5 67.5 L8.77 67.5 C5.17 67.5 2.25 64.35 2.25 60.45 C2.25 56.55 5.1 53.4 8.7 53.4 C8.85
										 53.4 9 53.4 9.15 53.4 L10.43 53.48 L11.17 52.35 C12.23 50.7 13.95 49.8 15.75 49.8 C16.05
										 49.8 16.35 49.8 16.65 49.88 L19.13 50.33 L19.27 47.78 C19.5 43.35 22.95 39.83 27.08 39.83
										 C29.85 39.83 32.48 41.48 33.83 44.18 L34.87 46.13 L36.82 45.15 C37.8 44.7 38.85 44.4 39.9
										 44.4 C44.03 44.4 47.4 48.08 47.4 52.58 C47.4 52.88 47.4 53.18 47.33 53.48 L47.17 54.98 L48.53
										 55.73 C50.47 56.78 51.67 58.95 51.67 61.28 C51.75 64.13 49.95 66.6 47.4 67.35 Z"
									class="st2"/>
						</g>
					</g>
					<g id="group79-9" transform="translate(30,0)" v:mID="79" v:groupContext="group" v:layerMember="0">
						<title>Sheet.79</title>
						<g id="shape80-10" v:mID="80" v:groupContext="shape" v:layerMember="0">
							<title>Sheet.80</title>
							<path d="M20.92 69.75 C19.73 69.75 18.6 69 18.15 67.88 L17.47 66.3 C17.32 66.3 17.1 66.3 16.87 66.3 C16.65
										 66.3 16.42 66.3 16.2 66.3 L15.52 67.88 C15.08 69 13.95 69.75 12.75 69.75 C12.38 69.75 11.93
										 69.68 11.63 69.53 L8.77 68.33 C8.03 68.03 7.42 67.43 7.12 66.68 C6.83 65.93 6.83 65.1 7.12
										 64.35 L7.8 62.78 L6.97 61.95 L5.4 62.63 C5.03 62.78 4.65 62.85 4.28 62.85 C3.07 62.85 1.95
										 62.1 1.5 60.98 L0.3 58.13 C-0 57.38 -0 56.55 0.3 55.8 C0.6 55.05 1.2 54.45 1.95 54.15 L3.52
										 53.48 L3.52 52.28 L1.95 51.6 C1.2 51.3 0.6 50.7 0.3 49.95 C-0 49.2 -0 48.38 0.3 47.63 L1.5
										 44.78 C1.95 43.65 3.07 42.9 4.28 42.9 C4.65 42.9 5.03 42.98 5.4 43.13 L6.97 43.8 L7.8 42.98
										 L7.12 41.4 C6.83 40.65 6.83 39.83 7.12 39.08 C7.42 38.33 8.03 37.73 8.77 37.43 L11.63 36.23
										 C12 36.08 12.38 36 12.75 36 C13.95 36 15.08 36.75 15.52 37.88 L16.12 39.38 C16.28 39.38
										 16.5 39.38 16.73 39.38 C16.95 39.38 17.18 39.38 17.4 39.38 L18 37.8 C18.45 36.68 19.57 35.93
										 20.77 35.93 C21.15 35.93 21.53 36 21.9 36.15 L24.75 37.35 C25.5 37.65 26.1 38.25 26.4 39
										 C26.7 39.75 26.7 40.58 26.4 41.33 L25.72 42.9 L26.55 43.73 L28.12 43.05 C28.5 42.9 28.88
										 42.83 29.25 42.83 C30.45 42.83 31.57 43.58 32.02 44.7 L33.23 47.55 C33.52 48.3 33.52 49.13
										 33.23 49.88 C32.92 50.63 32.33 51.23 31.57 51.53 L30 52.2 L30 53.4 L31.57 54.08 C33.15 54.75
										 33.82 56.48 33.23 58.05 L32.02 60.9 C31.57 62.03 30.45 62.78 29.25 62.78 C28.88 62.78 28.43
										 62.7 28.05 62.55 L26.47 61.88 L25.65 62.7 L26.32 64.28 C26.62 65.03 26.62 65.85 26.32 66.6
										 C26.02 67.35 25.43 67.95 24.67 68.25 L21.82 69.45 C21.75 69.68 21.3 69.75 20.92 69.75 Z"
									class="st1"/>
						</g>
						<g id="shape81-12" v:mID="81" v:groupContext="shape" v:layerMember="0" transform="translate(2.1,-2.175)">
							<title>Sheet.81</title>
							<path d="M28.95 58.35 L26.55 57.38 C26.17 57.23 25.87 57 25.87 56.93 C25.87 56.85 25.95 56.4 25.95 56.03
										 L25.95 54.08 C25.95 53.63 25.87 53.25 25.87 53.18 C25.87 53.1 26.17 52.88 26.55 52.73 L28.95
										 51.75 C29.32 51.6 29.55 51.15 29.4 50.7 L28.2 47.85 C28.05 47.48 27.6 47.25 27.15 47.4 L24.75
										 48.38 C24.37 48.53 24 48.6 23.92 48.53 C23.85 48.45 23.62 48.15 23.32 47.78 L21.9 46.43
										 C21.6 46.13 21.22 45.9 21.22 45.83 C21.15 45.75 21.22 45.45 21.37 45 L22.35 42.6 C22.5 42.23
										 22.35 41.78 21.9 41.55 L19.05 40.35 C18.67 40.2 18.22 40.35 18 40.8 L17.03 43.2 C16.88 43.58
										 16.65 43.88 16.58 43.88 C16.5 43.88 16.05 43.8 15.67 43.73 C15.67 43.73 15.3 43.65 14.7
										 43.65 C14.1 43.65 13.72 43.73 13.72 43.73 C13.27 43.8 12.9 43.8 12.82 43.88 C12.75 43.88
										 12.52 43.58 12.37 43.2 L11.4 40.88 C11.25 40.5 10.8 40.28 10.35 40.43 L7.5 41.63 C7.13 41.78
										 6.9 42.23 7.05 42.68 L8.02 45.08 C8.17 45.45 8.25 45.83 8.17 45.9 C8.1 45.98 7.8 46.2 7.43
										 46.5 L6.23 47.85 C5.93 48.15 5.7 48.53 5.63 48.6 C5.55 48.68 5.25 48.6 4.8 48.45 L2.4 47.4
										 C2.02 47.25 1.57 47.4 1.35 47.85 L0.15 50.7 C0 51.08 0.15 51.53 0.6 51.75 L3 52.73 C3.37
										 52.88 3.67 53.1 3.67 53.18 C3.67 53.25 3.6 53.7 3.6 54.08 L3.6 56.03 C3.6 56.48 3.67 56.85
										 3.67 56.93 C3.67 57 3.37 57.23 3 57.38 L0.6 58.35 C0.23 58.5 0 58.95 0.15 59.4 L1.35 62.25
										 C1.5 62.63 1.95 62.85 2.32 62.7 L4.72 61.73 C5.1 61.58 5.48 61.5 5.55 61.58 C5.63 61.65
										 5.85 61.95 6.15 62.33 L7.57 63.68 C7.87 63.98 8.25 64.2 8.32 64.28 C8.4 64.35 8.32 64.73
										 8.17 65.1 L7.13 67.35 C6.98 67.73 7.13 68.18 7.57 68.4 L10.42 69.6 C10.8 69.75 11.25 69.6
										 11.48 69.15 L12.45 66.75 C12.6 66.38 12.82 66.08 12.9 66.08 C12.97 66.08 13.42 66.15 13.8
										 66.23 C13.8 66.23 14.17 66.3 14.77 66.3 C15.37 66.3 15.75 66.23 15.75 66.23 C16.2 66.15
										 16.58 66.15 16.65 66.08 C16.73 66.08 16.95 66.38 17.1 66.75 L18.07 69.15 C18.22 69.53 18.67
										 69.75 19.12 69.6 L21.97 68.4 C22.35 68.25 22.57 67.8 22.42 67.35 L21.45 64.95 C21.3 64.58
										 21.22 64.2 21.3 64.13 C21.37 64.05 21.68 63.83 22.05 63.53 L23.47 62.1 C23.77 61.8 24 61.43
										 24.07 61.35 C24.15 61.28 24.45 61.35 24.9 61.5 L27.3 62.48 C27.67 62.63 28.12 62.48 28.35
										 62.03 L29.55 59.18 C29.47 58.95 29.32 58.5 28.95 58.35 ZM14.77 62.78 C10.5 62.78 7.05 59.33
										 7.05 55.05 C7.05 50.78 10.5 47.33 14.77 47.33 C19.05 47.33 22.5 50.78 22.5 55.05 C22.5 59.33
										 19.05 62.78 14.77 62.78 Z" class="st2"/>
						</g>
					</g>
					<g id="group82-14" transform="translate(31.5,-30.075)" v:mID="82" v:groupContext="group" v:layerMember="0">
						<title>Sheet.82</title>
						<g id="shape83-15" v:mID="83" v:groupContext="shape" v:layerMember="0">
							<title>Sheet.83</title>
							<path d="M27.75 37.5 L3.75 37.5 C1.65 37.5 0 39.15 0 41.25 L0 58.5 C-0 60.6 1.65 62.25 3.75 62.25 L13.5
										 62.25 L13.5 67.5 C13.5 68.48 14.1 69.3 15 69.6 C15.23 69.68 15.53 69.75 15.75 69.75 C16.43
										 69.75 17.03 69.45 17.47 68.93 L23.18 62.25 L27.75 62.25 C29.85 62.25 31.5 60.6 31.5 58.5
										 L31.5 41.25 C31.5 39.15 29.85 37.5 27.75 37.5 Z" class="st1"/>
						</g>
						<g id="shape84-17" v:mID="84" v:groupContext="shape" v:layerMember="0" transform="translate(2.25,-2.25)">
							<title>Sheet.84</title>
							<path d="M25.5 42 L1.5 42 C0.68 42 0 42.68 0 43.5 L0 60.75 C0 61.58 0.68 62.25 1.5 62.25 L13.5 62.25
										 L13.5 69.75 L19.88 62.25 L25.5 62.25 C26.33 62.25 27 61.58 27 60.75 L27 43.5 C27 42.68 26.33
										 42 25.5 42 Z" class="st2"/>
						</g>
					</g>
				</g>
				<g id="group85-19" transform="translate(40.2,-43.05)" v:mID="85" v:groupContext="group" v:layerMember="0">
					<title>Sheet.85</title>
					<g id="group86-20" transform="translate(0.225,-0.75)" v:mID="86" v:groupContext="group" v:layerMember="0">
						<title>Sheet.86</title>
						<g id="shape87-21" v:mID="87" v:groupContext="shape" v:layerMember="0" transform="translate(0.375,-3.6)">
							<title>Sheet.87</title>
							<path d="M0.6 69.75 C0.23 68.93 0 67.95 0 67.05 C0 66.75 -0 66.45 0.08 66.15 C0.3 66.6 0.98 67.28 1.58
										 67.8 C1.73 67.88 1.8 68.03 1.95 68.18 C1.5 68.33 1.05 68.55 0.83 68.7 C0.45 68.93 0.45 69.3
										 0.6 69.75 Z" class="st1"/>
						</g>
						<g id="shape88-23" v:mID="88" v:groupContext="shape" v:layerMember="0">
							<title>Sheet.88</title>
							<path d="M0.75 63.53 C0.98 63.75 1.28 64.05 1.58 64.35 C1.13 64.58 0.98 64.73 0.9 64.73 C0.83 64.35 0.75
										 63.98 0.75 63.53 ZM0.98 59.85 C0.38 60.9 0 62.1 0 63.45 C0 66.23 1.65 68.63 4.05 69.75 C3.3
										 69 2.78 67.88 1.88 67.58 C2.03 67.28 0.98 65.85 1.5 65.33 C1.73 65.1 3 64.73 3 64.73 C2.85
										 64.43 1.2 63.08 0.9 62.4 C0.6 61.73 0.75 61.05 0.83 60.6 C0.68 60.38 0.83 60.08 0.98 59.85
										 Z" class="st1"/>
						</g>
					</g>
					<g id="group89-25" transform="translate(2.475,-0.3)" v:mID="89" v:groupContext="group" v:layerMember="0">
						<title>Sheet.89</title>
						<g id="group90-26" transform="translate(10.125,-5.25)" v:mID="90" v:groupContext="group" v:layerMember="0">
							<title>Sheet.90</title>
							<g id="shape91-27" v:mID="91" v:groupContext="shape" v:layerMember="0">
								<title>Sheet.91</title>
								<path d="M1.28 69.75 C1.42 69.23 1.42 68.7 1.42 68.18 C1.42 66.6 0.9 65.18 0 63.98 C0.67 65.03 1.65
											 67.58 1.28 69.75 Z" class="st1"/>
							</g>
							<g id="shape92-29" v:mID="92" v:groupContext="shape" v:layerMember="0">
								<title>Sheet.92</title>
								<path d="M0 63.98 C0.6 65.03 1.65 67.58 1.27 69.75 C1.42 69.23 1.42 68.7 1.42 68.18 C1.42 66.6 0.9
											 65.18 0 63.98 Z" class="st1"/>
							</g>
						</g>
						<g id="group93-31" v:mID="93" v:groupContext="group" v:layerMember="0">
							<title>Sheet.93</title>
							<g id="shape94-32" v:mID="94" v:groupContext="shape" v:layerMember="0" transform="translate(0.6,-0.15)">
								<title>Sheet.94</title>
								<path d="M3.83 69.68 C3.98 69.38 4.05 69 4.13 68.7 C4.2 68.25 4.35 67.88 4.58 67.5 C5.4 66.3 5.18
											 65.33 4.8 64.88 C4.8 64.8 4.73 64.73 4.65 64.58 C4.43 64.28 3.98 64.28 3.6 64.28 C3.3
											 64.28 3 64.28 2.63 64.35 C2.4 64.35 2.1 64.43 1.95 64.43 C1.88 64.43 1.8 64.43 1.8 64.43
											 C-0 62.93 0.08 62.48 0.08 62.4 C0.08 62.4 0.15 62.33 0.3 62.33 C0.38 62.33 0.45 62.33
											 0.53 62.4 C0.6 62.85 0.9 63.38 1.88 63.75 L2.1 63.83 L2.25 63.68 C2.48 63.45 2.4 63.08
											 2.18 62.55 C2.1 62.4 2.03 62.18 2.03 62.18 C2.03 61.88 2.48 60.98 2.7 60.83 C2.7 60.83
											 2.7 60.83 2.7 60.83 C3.23 60.83 3.45 60.53 3.68 60.38 C3.83 60.15 3.98 60 4.58 60 C4.8
											 60 4.95 59.85 5.1 59.55 C5.25 59.1 5.4 57.98 4.8 57.45 C4.58 57.23 4.28 57.08 3.98 57.08
											 C3.45 57.08 3 57.45 2.7 57.75 C2.62 57.83 2.55 57.83 2.55 57.9 C2.55 57.83 2.48 57.75
											 2.48 57.68 C2.32 57.3 2.18 57.08 1.95 56.93 C2.62 56.7 3.3 56.63 3.98 56.63 C5.18 56.63
											 6.3 56.93 7.35 57.53 C7.05 57.68 6.83 57.9 6.53 58.28 C6.08 58.88 6 59.4 6.23 59.78
											 C6.45 60.15 6.9 60.3 7.35 60.3 C6.53 60.9 5.25 61.95 5.4 63.3 C5.48 64.13 7.13 64.73
											 7.88 64.95 C8.03 65.63 8.55 66.83 9.23 67.2 C8.03 68.78 6.08 69.75 4.05 69.75 C3.98
											 69.68 3.9 69.68 3.83 69.68 Z" class="st1"/>
							</g>
							<g id="shape95-34" v:mID="95" v:groupContext="shape" v:layerMember="0">
								<title>Sheet.95</title>
								<path d="M5.63 56.85 C6.23 56.93 6.83 57.15 7.35 57.38 C7.2 57.53 7.05 57.68 6.98 57.9 C6.83 58.2
											 6.23 59.03 6.6 59.78 C6.75 60.08 6.98 60.23 7.2 60.3 C6.45 60.98 5.63 61.88 5.78 63.15
											 C5.85 64.2 7.43 64.8 8.33 65.03 C8.48 65.63 8.85 66.53 9.45 67.05 C8.4 68.25 6.83 69.08
											 5.18 69.15 C5.25 69 5.25 68.85 5.33 68.63 C5.4 68.25 5.48 67.88 5.7 67.58 C6.6 66.3
											 6.38 65.18 5.93 64.58 C5.93 64.43 5.85 64.35 5.78 64.2 C5.48 63.83 4.95 63.75 4.43 63.75
											 C4.13 63.75 3.75 63.75 3.45 63.83 C3.38 63.83 3.38 63.83 3.3 63.83 L3.38 63.75 C3.83
											 63.38 3.6 62.78 3.38 62.25 C3.38 62.18 3.3 62.03 3.3 61.95 C3.3 61.73 3.53 61.28 3.67
											 61.05 C4.28 60.98 4.58 60.68 4.8 60.45 C4.95 60.3 5.03 60.23 5.4 60.23 C5.63 60.23 6
											 60.15 6.23 59.55 C6.45 59.03 6.6 57.68 5.85 57.08 C5.7 56.93 5.63 56.85 5.63 56.85 ZM3.6
											 56.85 C3.53 56.93 3.45 57 3.3 57.08 C3.3 57 3.23 57 3.23 56.93 C3.38 56.93 3.53 56.85
											 3.6 56.85 ZM4.65 56.03 C4.65 56.03 4.65 56.03 4.65 56.03 C3.38 56.03 2.18 56.4 1.2 56.93
											 C1.43 56.85 1.58 56.78 1.8 56.78 C2.18 56.78 2.55 57 2.78 57.6 C2.92 57.9 2.85 58.05
											 3.15 58.05 C3.15 58.05 3.15 58.05 3.23 58.05 C3.53 58.05 3.98 57.23 4.65 57.23 C4.8
											 57.23 5.03 57.3 5.25 57.45 C5.78 57.9 5.48 59.33 5.25 59.33 C3.9 59.33 4.28 60.15 3.38
											 60.15 C3.38 60.15 3.38 60.15 3.3 60.15 C3.3 60.15 3.3 60.15 3.3 60.15 C2.92 60.15 2.33
											 61.43 2.33 61.88 C2.33 62.1 2.78 63 2.63 63.08 C1.95 62.78 1.5 62.4 1.5 61.88 C1.43
											 61.73 1.13 61.65 0.9 61.65 C0.68 61.65 0.37 61.73 0.3 61.88 C0 62.48 1.27 63.68 2.18
											 64.43 C2.25 64.43 2.33 64.5 2.47 64.5 C2.92 64.5 3.6 64.43 4.13 64.43 C4.65 64.43 5.03
											 64.5 4.95 64.8 C5.25 65.1 5.63 65.93 4.8 67.05 C4.13 68.03 4.43 69.38 3.53 69.68 C3.9
											 69.75 4.2 69.75 4.58 69.75 C4.58 69.75 4.58 69.75 4.58 69.75 C7.43 69.75 9.9 67.95 10.95
											 65.48 C10.8 65.78 10.65 66.08 10.43 66.38 C10.35 66.53 10.2 66.53 10.13 66.53 C9.53
											 66.53 8.78 64.73 8.78 64.28 C8.78 64.28 8.78 64.28 8.78 64.28 C8.63 64.28 6.45 63.6
											 6.38 62.93 C6.23 61.2 8.78 60 8.93 59.7 C8.93 59.63 8.78 59.63 8.55 59.63 C8.48 59.63
											 8.4 59.63 8.33 59.63 C7.58 59.63 6.53 59.55 7.5 58.2 C7.88 57.68 8.25 57.45 8.55 57.45
											 C8.78 57.45 9 57.53 9.23 57.68 C8.03 56.7 6.45 56.03 4.65 56.03 Z" class="st1"/>
							</g>
						</g>
					</g>
					<g id="shape96-36" v:mID="96" v:groupContext="shape" v:layerMember="0">
						<title>Sheet.96</title>
						<path d="M7.13 55.5 L7.13 56.25 C10.65 56.25 13.5 59.1 13.5 62.63 C13.5 64.35 12.83 65.93 11.63 67.13 C10.43
									 68.33 8.85 69 7.13 69 C3.6 69 0.75 66.15 0.75 62.63 C0.75 59.1 3.6 56.25 7.13 56.25 L7.13 55.5
									 ZM7.13 55.5 C7.13 55.5 7.13 55.5 7.13 55.5 C3.15 55.5 0 58.73 0 62.63 C-0 66.53 3.23 69.75 7.13
									 69.75 C7.13 69.75 7.13 69.75 7.13 69.75 C11.03 69.75 14.25 66.53 14.25 62.63 C14.25 58.73 11.03
									 55.5 7.13 55.5 Z" class="st1"/>
					</g>
				</g>
			</g>
		</g>
	</g>
</svg>
