<?xml version="1.0" encoding="UTF-8" standalone="no"?>
<!DOCTYPE svg PUBLIC "-//W3C//DTD SVG 1.1//EN" "http://www.w3.org/Graphics/SVG/1.1/DTD/svg11.dtd">
<!-- Generated by Microsoft Visio, SVG Export Address Book Store.svg Page-1 -->
<svg xmlns="http://www.w3.org/2000/svg" xmlns:xlink="http://www.w3.org/1999/xlink" xmlns:ev="http://www.w3.org/2001/xml-events"
		xmlns:v="http://schemas.microsoft.com/visio/2003/SVGExtensions/" width="0.927344in" height="1.01563in"
		viewBox="0 0 66.7688 73.125" xml:space="preserve" color-interpolation-filters="sRGB" class="st4">
	<v:documentProperties v:langID="4108" v:metric="true" v:viewMarkup="false"/>

	<style type="text/css">
	<![CDATA[
		.st1 {fill:#ffffff;stroke:none;stroke-linecap:butt;stroke-width:0.75}
		.st2 {fill:#515251;stroke:none;stroke-linecap:butt;stroke-width:0.75}
		.st3 {fill:#515150;stroke:none;stroke-linecap:butt;stroke-width:0.75}
		.st4 {fill:none;fill-rule:evenodd;font-size:12px;overflow:visible;stroke-linecap:square;stroke-miterlimit:3}
	]]>
	</style>

	<g v:mID="0" v:index="1" v:groupContext="foregroundPage">
		<title>Page-1</title>
		<v:pageProperties v:drawingScale="0.0393701" v:pageScale="0.0393701" v:drawingUnits="24" v:shadowOffsetX="8.50394"
				v:shadowOffsetY="-8.50394"/>
		<v:layer v:name="symbols" v:index="0"/>
		<g id="group13-1" transform="translate(9.01875,-7.3125)" v:mID="13" v:groupContext="group" v:layerMember="0">
			<title>Address Book Store</title>
			<g id="group14-2" v:mID="14" v:groupContext="group" v:layerMember="0">
				<title>Sheet.14</title>
				<g id="group15-3" transform="translate(2.83773E-13,-5.25)" v:mID="15" v:groupContext="group" v:layerMember="0">
					<title>Sheet.15</title>
					<g id="shape16-4" v:mID="16" v:groupContext="shape" v:layerMember="0">
						<title>Sheet.16</title>
						<path d="M39.75 29.25 L39.75 62.62 L39.75 64.28 L39.75 64.35 C39.07 72 27 73.12 19.87 73.12 C12.75 73.12
									 0.68 72 0 64.35 L0 64.28 L0 62.7 L0 29.25 L0 27.75 C-0 22.27 9.98 19.87 19.87 19.88 C29.78 19.88
									 39.75 22.27 39.75 27.75 L39.75 29.25 Z" class="st1"/>
					</g>
					<g id="shape17-6" v:mID="17" v:groupContext="shape" v:layerMember="0" transform="translate(2.25,-2.25)">
						<title>Sheet.17</title>
						<path d="M17.62 37.88 C10.57 37.88 3.52 36.68 0 33.98 L0 64.87 L0 66.37 C0.53 72.6 13.2 73.12 17.62 73.12
									 C22.05 73.12 34.65 72.6 35.25 66.37 L35.25 64.87 L35.25 33.98 C31.72 36.68 24.67 37.88 17.62
									 37.88 Z" class="st2"/>
					</g>
					<g id="shape18-8" v:mID="18" v:groupContext="shape" v:layerMember="0" transform="translate(2.25,-39.75)">
						<title>Sheet.18</title>
						<ellipse cx="17.625" cy="67.5" rx="17.625" ry="5.625" class="st3"/>
					</g>
				</g>
				<g id="group19-10" transform="translate(21,-2.84217E-13)" v:mID="19" v:groupContext="group" v:layerMember="0">
					<title>Sheet.19</title>
					<g id="shape20-11" v:mID="20" v:groupContext="shape" v:layerMember="0">
						<title>Sheet.20</title>
						<path d="M31.42 48.68 C31.05 46.8 29.4 45.38 27.37 45.38 L19.57 45.38 C18.52 45.38 17.47 45.75 16.5 46.5
									 C15.52 45.75 14.47 45.38 13.42 45.38 L5.63 45.38 C3.45 45.38 1.72 47.03 1.5 49.13 C0.6 49.8
									 0 50.93 0 52.13 L0 68.7 C0 70.8 1.65 72.37 3.75 72.38 L13.05 72.38 C13.57 72.82 14.25 73.12
									 15 73.12 L18 73.12 C18.75 73.12 19.43 72.82 19.95 72.38 L30 72.38 C32.1 72.38 33.75 70.73 33.75
									 68.7 L33.75 52.13 C33.75 50.55 32.77 49.2 31.42 48.68 Z" class="st1"/>
					</g>
					<g id="shape21-13" v:mID="21" v:groupContext="shape" v:layerMember="0" transform="translate(2.25,-2.25)">
						<title>Sheet.21</title>
						<path d="M27.75 52.88 L1.5 52.88 C0.67 52.88 0 53.55 0 54.38 L0 70.95 C0 71.78 0.67 72.38 1.5 72.38 L12 72.38
									 C12 72.82 12.3 73.12 12.75 73.12 L15.75 73.12 C16.2 73.12 16.5 72.82 16.5 72.38 L27.75 72.38
									 C28.58 72.38 29.25 71.78 29.25 70.95 L29.25 54.38 C29.25 53.55 28.58 52.88 27.75 52.88 Z"
								class="st3"/>
					</g>
					<g id="shape22-15" v:mID="22" v:groupContext="shape" v:layerMember="0" transform="translate(3.75,-3.6)">
						<title>Sheet.22</title>
						<path d="M12.75 53.48 C12.08 52.35 10.95 51.23 9.67 51.23 L1.88 51.23 C0.83 51.23 0 52.05 0 53.1 L0 69.68
									 L0 72.23 L5.25 72.23 L9.38 72.23 C10.57 72.23 11.7 72.07 12.37 72.97 L12.75 73.12 L13.12 72.97
									 C13.8 72.08 14.93 72.23 16.12 72.23 L20.25 72.23 L25.5 72.23 L25.5 69.68 L25.5 53.1 C25.5 52.05
									 24.68 51.23 23.62 51.23 L15.83 51.23 C14.55 51.23 13.42 52.35 12.75 53.48 Z" class="st3"/>
					</g>
					<g id="shape23-17" v:mID="23" v:groupContext="shape" v:layerMember="0" transform="translate(5.25,-5.25)">
						<title>Sheet.23</title>
						<path d="M12 57.38 C12 56.03 13.2 54.38 15.07 54.38 L22.12 54.38 C22.35 54.38 22.5 54.53 22.5 54.75 L22.5
									 72.37 L14.62 72.37 C13.5 72.37 12.6 72.9 12 73.12 L12 57.38 ZM10.5 73.12 C9.9 72.9 9.23 72.37
									 7.87 72.37 L0 72.37 L0 54.75 C-0 54.53 0.15 54.38 0.38 54.38 L7.42 54.38 C9.38 54.38 10.5 56.1
									 10.5 57.38 L10.5 73.12 Z" class="st1"/>
					</g>
					<g id="shape24-19" v:mID="24" v:groupContext="shape" v:layerMember="0" transform="translate(29.25,-15.75)">
						<title>Sheet.24</title>
						<path d="M0 73.12 C0.45 73.12 0.75 72.82 0.75 72.37 L0.75 69.38 C0.75 68.93 0.45 68.63 0 68.63 L0 73.12 Z"
								class="st1"/>
					</g>
					<g id="shape25-21" v:mID="25" v:groupContext="shape" v:layerMember="0" transform="translate(29.25,-11.25)">
						<title>Sheet.25</title>
						<path d="M0 73.12 C0.45 73.12 0.75 72.82 0.75 72.37 L0.75 69.38 C0.75 68.93 0.45 68.63 0 68.63 L0 73.12 Z"
								class="st1"/>
					</g>
					<g id="shape26-23" v:mID="26" v:groupContext="shape" v:layerMember="0" transform="translate(29.25,-6.75)">
						<title>Sheet.26</title>
						<path d="M0 73.12 C0.45 73.12 0.75 72.82 0.75 72.37 L0.75 69.38 C0.75 68.93 0.45 68.63 0 68.63 L0 73.12 Z"
								class="st1"/>
					</g>
					<g id="group27-25" transform="translate(7.5,-9)" v:mID="27" v:groupContext="group" v:layerMember="0">
						<title>Sheet.27</title>
						<g id="group28-26" transform="translate(0,-6)" v:mID="28" v:groupContext="group" v:layerMember="0">
							<title>Sheet.28</title>
							<g id="shape29-27" v:mID="29" v:groupContext="shape" v:layerMember="0">
								<title>Sheet.29</title>
								<path d="M5.78 71.03 C5.7 70.5 5.55 70.28 5.18 70.05 C4.8 69.83 4.58 69.68 4.43 69.68 C4.35 69.68
											 4.35 69.68 4.28 69.68 C4.2 69.75 4.05 69.83 3.98 69.9 C3.98 69.9 3.98 69.9 3.9 69.9
											 C3.83 70.13 3.75 70.13 3.6 70.2 C3.38 70.28 3.23 70.28 3 70.28 C2.78 70.28 2.55 70.2
											 2.4 70.2 C2.33 70.2 2.18 70.13 2.1 70.05 C1.95 69.98 1.88 69.9 1.73 69.83 C1.65 69.83
											 1.65 69.83 1.58 69.83 C1.43 69.83 1.28 69.9 0.83 70.2 C0.45 70.43 0.3 70.65 0.23 71.18
											 C0.15 71.48 0 72.67 0 73.12 L6 73.12 C6 72.67 5.85 71.48 5.78 71.03 Z" class="st3"/>
							</g>
							<g id="shape30-29" v:mID="30" v:groupContext="shape" v:layerMember="0" transform="translate(1.5,-3.45)">
								<title>Sheet.30</title>
								<ellipse cx="1.5" cy="71.475" rx="1.5" ry="1.65" class="st3"/>
							</g>
						</g>
						<g id="shape31-31" v:mID="31" v:groupContext="shape" v:layerMember="0" transform="translate(0,-3)">
							<title>Sheet.31</title>
							<rect x="0" y="71.625" width="6" height="1.5" class="st3"/>
						</g>
						<g id="shape32-33" v:mID="32" v:groupContext="shape" v:layerMember="0">
							<title>Sheet.32</title>
							<rect x="0" y="71.625" width="6" height="1.5" class="st3"/>
						</g>
					</g>
					<g id="group33-35" transform="translate(19.5,-9)" v:mID="33" v:groupContext="group" v:layerMember="0">
						<title>Sheet.33</title>
						<g id="group34-36" transform="translate(0,-6)" v:mID="34" v:groupContext="group" v:layerMember="0">
							<title>Sheet.34</title>
							<g id="shape35-37" v:mID="35" v:groupContext="shape" v:layerMember="0">
								<title>Sheet.35</title>
								<path d="M5.78 71.03 C5.7 70.5 5.55 70.28 5.18 70.05 C4.8 69.83 4.58 69.68 4.43 69.68 C4.35 69.68
											 4.35 69.68 4.28 69.68 C4.2 69.75 4.05 69.83 3.98 69.9 C3.98 69.9 3.98 69.9 3.9 69.9
											 C3.83 70.13 3.75 70.13 3.6 70.2 C3.38 70.28 3.23 70.28 3 70.28 C2.78 70.28 2.55 70.2
											 2.4 70.2 C2.33 70.2 2.18 70.13 2.1 70.05 C1.95 69.98 1.88 69.9 1.73 69.83 C1.65 69.83
											 1.65 69.83 1.58 69.83 C1.43 69.83 1.28 69.9 0.83 70.2 C0.45 70.43 0.3 70.65 0.23 71.18
											 C0.15 71.48 0 72.67 0 73.12 L6 73.12 C6 72.67 5.85 71.48 5.78 71.03 Z" class="st3"/>
							</g>
							<g id="shape36-39" v:mID="36" v:groupContext="shape" v:layerMember="0" transform="translate(1.5,-3.45)">
								<title>Sheet.36</title>
								<ellipse cx="1.5" cy="71.475" rx="1.5" ry="1.65" class="st3"/>
							</g>
						</g>
						<g id="shape37-41" v:mID="37" v:groupContext="shape" v:layerMember="0" transform="translate(0,-3)">
							<title>Sheet.37</title>
							<rect x="0" y="71.625" width="6" height="1.5" class="st3"/>
						</g>
						<g id="shape38-43" v:mID="38" v:groupContext="shape" v:layerMember="0">
							<title>Sheet.38</title>
							<rect x="0" y="71.625" width="6" height="1.5" class="st3"/>
						</g>
					</g>
				</g>
			</g>
		</g>
	</g>
</svg>
