<?xml version="1.0" encoding="UTF-8" standalone="no"?>
<!DOCTYPE svg PUBLIC "-//W3C//DTD SVG 1.1//EN" "http://www.w3.org/Graphics/SVG/1.1/DTD/svg11.dtd">
<!-- Generated by Microsoft Visio, SVG Export Application Store.svg Page-1 -->
<svg xmlns="http://www.w3.org/2000/svg" xmlns:xlink="http://www.w3.org/1999/xlink" xmlns:ev="http://www.w3.org/2001/xml-events"
		xmlns:v="http://schemas.microsoft.com/visio/2003/SVGExtensions/" width="0.921875in" height="1.01563in"
		viewBox="0 0 66.375 73.125" xml:space="preserve" color-interpolation-filters="sRGB" class="st4">
	<v:documentProperties v:langID="4108" v:metric="true" v:viewMarkup="false"/>

	<style type="text/css">
	<![CDATA[
		.st1 {fill:#ffffff;stroke:none;stroke-linecap:butt;stroke-width:0.75}
		.st2 {fill:#515251;stroke:none;stroke-linecap:butt;stroke-width:0.75}
		.st3 {fill:#515150;stroke:none;stroke-linecap:butt;stroke-width:0.75}
		.st4 {fill:none;fill-rule:evenodd;font-size:12px;overflow:visible;stroke-linecap:square;stroke-miterlimit:3}
	]]>
	</style>

	<g v:mID="0" v:index="1" v:groupContext="foregroundPage">
		<title>Page-1</title>
		<v:pageProperties v:drawingScale="0.0393701" v:pageScale="0.0393701" v:drawingUnits="24" v:shadowOffsetX="8.50394"
				v:shadowOffsetY="-8.50394"/>
		<v:layer v:name="symbols" v:index="0"/>
		<g id="group1-1" transform="translate(7.875,-7.6875)" v:mID="1" v:groupContext="group" v:layerMember="0">
			<title>Application Store</title>
			<g id="group2-2" v:mID="2" v:groupContext="group" v:layerMember="0">
				<title>Sheet.2</title>
				<g id="group3-3" transform="translate(2.67786E-13,-4.5)" v:mID="3" v:groupContext="group" v:layerMember="0">
					<title>Sheet.3</title>
					<g id="shape4-4" v:mID="4" v:groupContext="shape" v:layerMember="0">
						<title>Sheet.4</title>
						<path d="M39.75 29.25 L39.75 62.63 L39.75 64.28 L39.75 64.35 C39.08 72 27 73.13 19.87 73.13 C12.75 73.13
									 0.68 72 0 64.35 L0 64.28 L0 62.7 L0 29.25 L0 27.75 C0 22.28 9.98 19.88 19.87 19.88 C29.78 19.88
									 39.75 22.28 39.75 27.75 L39.75 29.25 Z" class="st1"/>
					</g>
					<g id="shape5-6" v:mID="5" v:groupContext="shape" v:layerMember="0" transform="translate(2.25,-2.25)">
						<title>Sheet.5</title>
						<path d="M17.63 37.88 C10.57 37.88 3.53 36.68 0 33.98 L0 64.88 L0 66.38 C0.53 72.6 13.2 73.13 17.63 73.13
									 C22.05 73.13 34.65 72.6 35.25 66.38 L35.25 64.88 L35.25 33.98 C31.73 36.68 24.68 37.88 17.63
									 37.88 Z" class="st2"/>
					</g>
					<g id="shape6-8" v:mID="6" v:groupContext="shape" v:layerMember="0" transform="translate(2.25,-39.75)">
						<title>Sheet.6</title>
						<ellipse cx="17.625" cy="67.5" rx="17.625" ry="5.625" class="st3"/>
					</g>
				</g>
				<g id="group7-10" transform="translate(20.25,0)" v:mID="7" v:groupContext="group" v:layerMember="0">
					<title>Sheet.7</title>
					<g id="shape8-11" v:mID="8" v:groupContext="shape" v:layerMember="0">
						<title>Sheet.8</title>
						<path d="M3.75 73.13 C1.65 73.13 0 71.48 0 69.38 L0 49.13 C0 47.03 1.65 45.38 3.75 45.38 L30 45.38 C32.1
									 45.38 33.75 47.03 33.75 49.13 L33.75 69.38 C33.75 71.48 32.1 73.13 30 73.13 L3.75 73.13 Z"
								class="st1"/>
					</g>
					<g id="shape9-13" v:mID="9" v:groupContext="shape" v:layerMember="0" transform="translate(2.25,-2.25)">
						<title>Sheet.9</title>
						<path d="M27.75 49.88 L1.5 49.88 C0.6 49.88 0 50.48 0 51.38 L0 71.63 C0 72.53 0.6 73.13 1.5 73.13 L27.75
									 73.13 C28.65 73.13 29.25 72.53 29.25 71.63 L29.25 51.38 C29.25 50.48 28.65 49.88 27.75 49.88
									 ZM27.75 71.63 L1.5 71.63 L1.5 54.38 L27.75 54.38 L27.75 71.63 Z" class="st3"/>
					</g>
					<g id="shape10-15" v:mID="10" v:groupContext="shape" v:layerMember="0" transform="translate(28.5,-22.5)">
						<title>Sheet.10</title>
						<rect x="0" y="71.625" width="1.5" height="1.5" class="st1"/>
					</g>
					<g id="shape11-17" v:mID="11" v:groupContext="shape" v:layerMember="0" transform="translate(25.5,-22.5)">
						<title>Sheet.11</title>
						<rect x="0" y="71.625" width="1.5" height="1.5" class="st1"/>
					</g>
					<g id="shape12-19" v:mID="12" v:groupContext="shape" v:layerMember="0" transform="translate(22.5,-22.5)">
						<title>Sheet.12</title>
						<rect x="0" y="71.625" width="1.5" height="1.5" class="st1"/>
					</g>
				</g>
			</g>
		</g>
	</g>
</svg>
