<?xml version="1.0" encoding="UTF-8" standalone="no"?>
<!DOCTYPE svg PUBLIC "-//W3C//DTD SVG 1.1//EN" "http://www.w3.org/Graphics/SVG/1.1/DTD/svg11.dtd">
<!-- Generated by Microsoft Visio, SVG Export Database Cube - blue.svg Page-1 -->
<svg xmlns="http://www.w3.org/2000/svg" xmlns:xlink="http://www.w3.org/1999/xlink" xmlns:ev="http://www.w3.org/2001/xml-events"
		xmlns:v="http://schemas.microsoft.com/visio/2003/SVGExtensions/" width="0.890625in" height="0.984375in"
		viewBox="0 0 64.125 70.875" xml:space="preserve" color-interpolation-filters="sRGB" class="st3">
	<v:documentProperties v:langID="4108" v:metric="true" v:viewMarkup="false"/>

	<style type="text/css">
	<![CDATA[
		.st1 {fill:#ffffff;stroke:none;stroke-linecap:butt;stroke-width:0.75}
		.st2 {fill:#2072b8;stroke:none;stroke-linecap:butt;stroke-width:0.75}
		.st3 {fill:none;fill-rule:evenodd;font-size:12px;overflow:visible;stroke-linecap:square;stroke-miterlimit:3}
	]]>
	</style>

	<g v:mID="0" v:index="1" v:groupContext="foregroundPage">
		<title>Page-1</title>
		<v:pageProperties v:drawingScale="0.0393701" v:pageScale="0.0393701" v:drawingUnits="24" v:shadowOffsetX="8.50394"
				v:shadowOffsetY="-8.50394"/>
		<v:layer v:name="symbols" v:index="0"/>
		<g id="group128-1" transform="translate(6.75,-6.6)" v:mID="128" v:groupContext="group" v:layerMember="0">
			<title>Database Cube - blue</title>
			<g id="group129-2" v:mID="129" v:groupContext="group" v:layerMember="0">
				<title>Sheet.129</title>
				<g id="shape130-3" v:mID="130" v:groupContext="shape" v:layerMember="0">
					<title>Sheet.130</title>
					<path d="M0 56.18 L0 27.6 L25.5 13.2 L51 27.98 L51 55.8 L25.5 70.88 L0 56.18 Z" class="st1"/>
				</g>
				<g id="group131-5" transform="translate(26.25,-3.225)" v:mID="131" v:groupContext="group" v:layerMember="0">
					<title>Sheet.131</title>
					<g id="shape132-6" v:mID="132" v:groupContext="shape" v:layerMember="0" transform="translate(16.5,-27.525)">
						<title>Sheet.132</title>
						<path d="M0 70.88 L6 67.28 L6 60.23 L0 63.75 L0 70.88 Z" class="st2"/>
					</g>
					<g id="shape133-8" v:mID="133" v:groupContext="shape" v:layerMember="0" transform="translate(8.25,-22.875)">
						<title>Sheet.133</title>
						<path d="M0 70.88 L6.75 66.98 L6.75 59.93 L0 63.83 L0 70.88 Z" class="st2"/>
					</g>
					<g id="shape134-10" v:mID="134" v:groupContext="shape" v:layerMember="0" transform="translate(0,-18)">
						<title>Sheet.134</title>
						<path d="M0 70.88 L6.75 66.98 L6.75 59.85 L0 63.75 L0 70.88 Z" class="st2"/>
					</g>
					<g id="shape135-12" v:mID="135" v:groupContext="shape" v:layerMember="0" transform="translate(16.5,-18.675)">
						<title>Sheet.135</title>
						<path d="M0 70.88 L6 67.43 L6 60.3 L0 63.75 L0 70.88 Z" class="st2"/>
					</g>
					<g id="shape136-14" v:mID="136" v:groupContext="shape" v:layerMember="0" transform="translate(8.25,-13.875)">
						<title>Sheet.136</title>
						<path d="M0 70.88 L6.75 66.98 L6.75 59.85 L0 63.75 L0 70.88 Z" class="st2"/>
					</g>
					<g id="shape137-16" v:mID="137" v:groupContext="shape" v:layerMember="0" transform="translate(0,-9.075)">
						<title>Sheet.137</title>
						<path d="M0 70.88 L6.75 66.98 L6.75 59.85 L0 63.75 L0 70.88 Z" class="st2"/>
					</g>
					<g id="shape138-18" v:mID="138" v:groupContext="shape" v:layerMember="0" transform="translate(16.5,-9.525)">
						<title>Sheet.138</title>
						<path d="M0 70.88 L6 67.35 L6 60.23 L0 63.75 L0 70.88 Z" class="st2"/>
					</g>
					<g id="shape139-20" v:mID="139" v:groupContext="shape" v:layerMember="0" transform="translate(8.25,-4.725)">
						<title>Sheet.139</title>
						<path d="M0 70.88 L6.75 66.9 L6.75 59.78 L0 63.68 L0 70.88 Z" class="st2"/>
					</g>
					<g id="shape140-22" v:mID="140" v:groupContext="shape" v:layerMember="0">
						<title>Sheet.140</title>
						<path d="M0 70.88 L6.75 66.98 L6.75 59.85 L0 63.75 L0 70.88 Z" class="st2"/>
					</g>
				</g>
				<g id="group141-24" transform="translate(2.25,-3.075)" v:mID="141" v:groupContext="group" v:layerMember="0">
					<title>Sheet.141</title>
					<g id="shape142-25" v:mID="142" v:groupContext="shape" v:layerMember="0"
							transform="translate(-1.1241E-13,-27.6)">
						<title>Sheet.142</title>
						<path d="M6 70.88 L0 67.28 L0 60.3 L6 63.75 L6 70.88 Z" class="st2"/>
					</g>
					<g id="shape143-27" v:mID="143" v:groupContext="shape" v:layerMember="0" transform="translate(7.5,-22.95)">
						<title>Sheet.143</title>
						<path d="M6.75 70.88 L0 66.98 L0 59.93 L6.75 63.9 L6.75 70.88 Z" class="st2"/>
					</g>
					<g id="shape144-29" v:mID="144" v:groupContext="shape" v:layerMember="0" transform="translate(15.75,-18.075)">
						<title>Sheet.144</title>
						<path d="M6.75 70.88 L0 66.98 L0 59.85 L6.75 63.75 L6.75 70.88 Z" class="st2"/>
					</g>
					<g id="shape145-31" v:mID="145" v:groupContext="shape" v:layerMember="0"
							transform="translate(-1.1241E-13,-18.75)">
						<title>Sheet.145</title>
						<path d="M6 70.88 L0 67.43 L0 60.3 L6 63.75 L6 70.88 Z" class="st2"/>
					</g>
					<g id="shape146-33" v:mID="146" v:groupContext="shape" v:layerMember="0" transform="translate(7.5,-13.95)">
						<title>Sheet.146</title>
						<path d="M6.75 70.88 L0 66.98 L0 59.85 L6.75 63.75 L6.75 70.88 Z" class="st2"/>
					</g>
					<g id="shape147-35" v:mID="147" v:groupContext="shape" v:layerMember="0" transform="translate(15.75,-9.15)">
						<title>Sheet.147</title>
						<path d="M6.75 70.88 L0 66.98 L0 59.85 L6.75 63.75 L6.75 70.88 Z" class="st2"/>
					</g>
					<g id="shape148-37" v:mID="148" v:groupContext="shape" v:layerMember="0"
							transform="translate(-1.1241E-13,-9.6)">
						<title>Sheet.148</title>
						<path d="M6 70.88 L0 67.35 L0 60.23 L6 63.75 L6 70.88 Z" class="st2"/>
					</g>
					<g id="shape149-39" v:mID="149" v:groupContext="shape" v:layerMember="0" transform="translate(7.5,-4.8)">
						<title>Sheet.149</title>
						<path d="M6.75 70.88 L0 66.9 L0 59.78 L6.75 63.75 L6.75 70.88 Z" class="st2"/>
					</g>
					<g id="shape150-41" v:mID="150" v:groupContext="shape" v:layerMember="0"
							transform="translate(15.75,-1.84741E-13)">
						<title>Sheet.150</title>
						<path d="M6.75 70.88 L0 66.9 L0 59.78 L6.75 63.75 L6.75 70.88 Z" class="st2"/>
					</g>
				</g>
				<g id="group151-43" transform="translate(3.675,-29.85)" v:mID="151" v:groupContext="group" v:layerMember="0">
					<title>Sheet.151</title>
					<g id="shape152-44" v:mID="152" v:groupContext="shape" v:layerMember="0"
							transform="translate(2.18825E-13,-9.075)">
						<title>Sheet.152</title>
						<path d="M0 67.28 L6.22 63.75 L12.45 67.28 L6.22 70.88 L0 67.28 Z" class="st2"/>
					</g>
					<g id="shape153-46" v:mID="153" v:groupContext="shape" v:layerMember="0" transform="translate(7.95,-13.65)">
						<title>Sheet.153</title>
						<path d="M0 67.35 L6 63.83 L12.15 67.35 L6.08 70.88 L0 67.35 Z" class="st2"/>
					</g>
					<g id="shape154-48" v:mID="154" v:groupContext="shape" v:layerMember="0" transform="translate(15.6,-18.075)">
						<title>Sheet.154</title>
						<path d="M0 67.28 L6.23 63.68 L12.38 67.28 L6.23 70.88 L0 67.28 Z" class="st2"/>
					</g>
					<g id="shape155-50" v:mID="155" v:groupContext="shape" v:layerMember="0" transform="translate(7.8,-4.5)">
						<title>Sheet.155</title>
						<path d="M0 67.2 L6.23 63.68 L12.38 67.2 L6.15 70.88 L0 67.2 Z" class="st2"/>
					</g>
					<g id="shape156-52" v:mID="156" v:groupContext="shape" v:layerMember="0" transform="translate(15.75,-9.075)">
						<title>Sheet.156</title>
						<path d="M0 67.28 L6.08 63.75 L12.15 67.2 L6.08 70.88 L0 67.28 Z" class="st2"/>
					</g>
					<g id="shape157-54" v:mID="157" v:groupContext="shape" v:layerMember="0" transform="translate(23.475,-13.65)">
						<title>Sheet.157</title>
						<path d="M0 67.35 L6.15 63.83 L12.23 67.28 L6.08 70.88 L0 67.35 Z" class="st2"/>
					</g>
					<g id="shape158-56" v:mID="158" v:groupContext="shape" v:layerMember="0"
							transform="translate(15.45,-1.27898E-13)">
						<title>Sheet.158</title>
						<path d="M0 67.2 L6.37 63.68 L12.52 67.2 L6.37 70.88 L0 67.2 Z" class="st2"/>
					</g>
					<g id="shape159-58" v:mID="159" v:groupContext="shape" v:layerMember="0" transform="translate(23.475,-4.575)">
						<title>Sheet.159</title>
						<path d="M0 67.28 L6.08 63.75 L12.3 67.35 L6.23 70.88 L0 67.28 Z" class="st2"/>
					</g>
					<g id="shape160-60" v:mID="160" v:groupContext="shape" v:layerMember="0" transform="translate(31.2,-9.075)">
						<title>Sheet.160</title>
						<path d="M0 67.28 L6.15 63.68 L12.45 67.28 L6.22 70.88 L0 67.28 Z" class="st2"/>
					</g>
				</g>
			</g>
		</g>
	</g>
</svg>
