<?xml version="1.0" encoding="UTF-8" standalone="no"?>
<!DOCTYPE svg PUBLIC "-//W3C//DTD SVG 1.1//EN" "http://www.w3.org/Graphics/SVG/1.1/DTD/svg11.dtd">
<!-- Generated by Microsoft Visio, SVG Export Database - ghosted.svg Page-1 -->
<svg xmlns="http://www.w3.org/2000/svg" xmlns:xlink="http://www.w3.org/1999/xlink" xmlns:ev="http://www.w3.org/2001/xml-events"
		xmlns:v="http://schemas.microsoft.com/visio/2003/SVGExtensions/" width="0.75in" height="0.953125in" viewBox="0 0 54 68.625"
		xml:space="preserve" color-interpolation-filters="sRGB" class="st4">
	<v:documentProperties v:langID="4108" v:metric="true" v:viewMarkup="false"/>

	<style type="text/css">
	<![CDATA[
		.st1 {fill:#ffffff;stroke:none;stroke-linecap:butt;stroke-width:0.75}
		.st2 {fill:#9c9c9d;stroke:none;stroke-linecap:butt;stroke-width:0.75}
		.st3 {fill:#cccbcb;stroke:none;stroke-linecap:butt;stroke-width:0.75}
		.st4 {fill:none;fill-rule:evenodd;font-size:12px;overflow:visible;stroke-linecap:square;stroke-miterlimit:3}
	]]>
	</style>

	<g v:mID="0" v:index="1" v:groupContext="foregroundPage">
		<title>Page-1</title>
		<v:pageProperties v:drawingScale="0.0393701" v:pageScale="0.0393701" v:drawingUnits="24" v:shadowOffsetX="8.50394"
				v:shadowOffsetY="-8.50394"/>
		<v:layer v:name="symbols" v:index="0"/>
		<g id="group59-1" transform="translate(7.3125,-7.6875)" v:mID="59" v:groupContext="group" v:layerMember="0">
			<title>Database - ghosted</title>
			<g id="group60-2" v:mID="60" v:groupContext="group" v:layerMember="0">
				<title>Sheet.60</title>
				<g id="shape61-3" v:mID="61" v:groupContext="shape" v:layerMember="0">
					<title>Sheet.61</title>
					<path d="M39.75 24.75 L39.75 58.13 L39.75 59.78 L39.75 59.85 C39.08 67.5 27 68.63 19.87 68.63 C12.75 68.63 0.68
								 67.5 0 59.85 L0 59.78 L0 58.2 L0 24.75 L0 23.25 C-0 17.78 9.98 15.38 19.87 15.38 C29.78 15.38 39.75
								 17.78 39.75 23.25 L39.75 24.75 Z" class="st1"/>
				</g>
				<g id="shape62-5" v:mID="62" v:groupContext="shape" v:layerMember="0" transform="translate(2.25,-2.25)">
					<title>Sheet.62</title>
					<path d="M17.63 33.38 C10.58 33.38 3.53 32.18 0 29.48 L0 60.38 L0 61.88 C0.53 68.1 13.2 68.63 17.63 68.63 C22.05
								 68.63 34.65 68.1 35.25 61.88 L35.25 60.38 L35.25 29.48 C31.73 32.18 24.68 33.38 17.63 33.38 Z"
							class="st2"/>
				</g>
				<g id="shape63-7" v:mID="63" v:groupContext="shape" v:layerMember="0" transform="translate(2.25,-39.75)">
					<title>Sheet.63</title>
					<ellipse cx="17.625" cy="63" rx="17.625" ry="5.625" class="st2"/>
				</g>
				<g id="group64-9" transform="translate(2.25,-2.25)" v:mID="64" v:groupContext="group" v:layerMember="0">
					<title>Sheet.64</title>
					<g id="shape65-10" v:mID="65" v:groupContext="shape" v:layerMember="0" transform="translate(0.075,-41.325)">
						<title>Sheet.65</title>
						<path d="M0.9 68.63 L7.2 62.25 C6.08 62.48 5.1 62.78 4.2 63.15 L0 67.43 C0.15 67.88 0.45 68.25 0.9 68.63 Z"
								class="st3"/>
					</g>
					<g id="shape66-12" v:mID="66" v:groupContext="shape" v:layerMember="0" transform="translate(0,-35.775)">
						<title>Sheet.66</title>
						<path d="M0.75 65.78 L0 66.53 L0 68.63 L2.1 66.53 C1.57 66.23 1.13 66 0.75 65.78 Z" class="st3"/>
					</g>
					<g id="shape67-14" v:mID="67" v:groupContext="shape" v:layerMember="0" transform="translate(2.4,-39.6)">
						<title>Sheet.67</title>
						<path d="M0 67.95 C0.45 68.18 0.9 68.4 1.42 68.63 L10.2 59.78 C9.37 59.85 8.55 59.93 7.8 60.08 L0 67.95 Z"
								class="st3"/>
					</g>
					<g id="shape68-16" v:mID="68" v:groupContext="shape" v:layerMember="0" transform="translate(0.075,-31.35)">
						<title>Sheet.68</title>
						<path d="M5.32 63.23 C4.8 63.08 4.2 62.93 3.75 62.7 L0 66.53 L0 68.63 L5.32 63.23 Z" class="st3"/>
					</g>
					<g id="shape69-18" v:mID="69" v:groupContext="shape" v:layerMember="0" transform="translate(5.55,-38.55)">
						<title>Sheet.69</title>
						<path d="M1.65 68.63 L11.78 58.43 C11.03 58.43 10.35 58.43 9.6 58.5 L0 68.18 C0.53 68.33 1.12 68.48 1.65
									 68.63 Z" class="st3"/>
					</g>
					<g id="shape70-20" v:mID="70" v:groupContext="shape" v:layerMember="0" transform="translate(9.225,-37.875)">
						<title>Sheet.70</title>
						<path d="M0 68.33 C0.6 68.4 1.2 68.55 1.87 68.63 L12.45 57.9 C11.77 57.83 11.1 57.83 10.42 57.83 L0 68.33
									 Z" class="st3"/>
					</g>
					<g id="shape71-22" v:mID="71" v:groupContext="shape" v:layerMember="0"
							transform="translate(9.99201E-16,-26.775)">
						<title>Sheet.71</title>
						<path d="M7.28 59.18 L0 66.53 L0 68.63 L9.08 59.48 C8.48 59.4 7.88 59.25 7.28 59.18 Z" class="st3"/>
					</g>
					<g id="shape72-24" v:mID="72" v:groupContext="shape" v:layerMember="0"
							transform="translate(-1.7486E-13,-22.275)">
						<title>Sheet.72</title>
						<path d="M13.05 55.5 C12.38 55.43 11.78 55.43 11.1 55.35 L0 66.53 L0 68.63 L13.05 55.5 Z" class="st3"/>
					</g>
					<g id="shape73-26" v:mID="73" v:groupContext="shape" v:layerMember="0" transform="translate(13.2,-37.575)">
						<title>Sheet.73</title>
						<path d="M1.95 68.63 L12.45 58.05 C11.85 57.98 11.25 57.9 10.57 57.83 L0 68.55 C0.6 68.55 1.28 68.63 1.95
									 68.63 Z" class="st3"/>
					</g>
					<g id="shape74-28" v:mID="74" v:groupContext="shape" v:layerMember="0" transform="translate(17.475,-37.5)">
						<title>Sheet.74</title>
						<path d="M0 68.63 C0.08 68.63 0.08 68.63 0.15 68.63 C0.83 68.63 1.5 68.63 2.18 68.55 L11.93 58.8 C11.4 58.65
									 10.8 58.5 10.2 58.35 L0 68.63 Z" class="st3"/>
					</g>
					<g id="shape75-30" v:mID="75" v:groupContext="shape" v:layerMember="0"
							transform="translate(6.99441E-15,-17.775)">
						<title>Sheet.75</title>
						<path d="M15.3 51.08 L0 66.53 L0 68.63 L17.4 51.15 C16.65 51.15 15.98 51.15 15.3 51.08 Z" class="st3"/>
					</g>
					<g id="shape76-32" v:mID="76" v:groupContext="shape" v:layerMember="0"
							transform="translate(7.99361E-15,-13.275)">
						<title>Sheet.76</title>
						<path d="M19.8 46.57 L0 66.53 L0 68.63 L22.05 46.42 C21.3 46.5 20.55 46.57 19.8 46.57 Z" class="st3"/>
					</g>
					<g id="shape77-34" v:mID="77" v:groupContext="shape" v:layerMember="0" transform="translate(22.2,-37.725)">
						<title>Sheet.77</title>
						<path d="M0 68.63 C0.83 68.55 1.57 68.48 2.4 68.4 L10.5 60.3 C10.05 60.08 9.6 59.85 9 59.63 L0 68.63 Z"
								class="st3"/>
					</g>
					<g id="shape78-36" v:mID="78" v:groupContext="shape" v:layerMember="0" transform="translate(27.375,-38.475)">
						<title>Sheet.78</title>
						<path d="M2.92 67.88 L7.65 63.08 C7.42 62.7 7.12 62.32 6.67 61.95 L0 68.63 C1.05 68.4 2.02 68.18 2.92 67.88
									 Z" class="st3"/>
					</g>
					<g id="shape79-38" v:mID="79" v:groupContext="shape" v:layerMember="0"
							transform="translate(-1.71863E-13,-8.775)">
						<title>Sheet.79</title>
						<path d="M27.15 41.33 C26.33 41.48 25.5 41.63 24.6 41.7 L0 66.53 L0 68.63 L27.15 41.33 Z" class="st3"/>
					</g>
					<g id="shape80-40" v:mID="80" v:groupContext="shape" v:layerMember="0" transform="translate(0.075,-4.875)">
						<title>Sheet.80</title>
						<path d="M0 67.05 C0.07 67.65 0.3 68.18 0.53 68.63 L33.75 35.25 C32.78 35.78 31.58 36.23 30.23 36.68 L0 67.05
									 Z" class="st3"/>
					</g>
					<g id="shape81-42" v:mID="81" v:groupContext="shape" v:layerMember="0" transform="translate(1.725,-2.7)">
						<title>Sheet.81</title>
						<path d="M33.52 33.98 L0 67.73 C0.38 68.03 0.75 68.33 1.2 68.63 L33.52 36.15 L33.52 33.98 Z" class="st3"/>
					</g>
					<g id="shape82-44" v:mID="82" v:groupContext="shape" v:layerMember="0" transform="translate(4.5,-1.425)">
						<title>Sheet.82</title>
						<path d="M30.75 39.38 L30.75 37.28 L0 68.1 C0.52 68.33 1.05 68.48 1.57 68.63 L30.75 39.38 Z" class="st3"/>
					</g>
					<g id="shape83-46" v:mID="83" v:groupContext="shape" v:layerMember="0" transform="translate(8.25,-0.525)">
						<title>Sheet.83</title>
						<path d="M27 40.95 L0 68.33 C0.6 68.48 1.2 68.55 1.8 68.63 L27 43.13 L27 40.95 Z" class="st3"/>
					</g>
					<g id="shape84-48" v:mID="84" v:groupContext="shape" v:layerMember="0" transform="translate(12.15,-0.15)">
						<title>Sheet.84</title>
						<path d="M23.1 47.25 L23.1 45.15 L0 68.48 C0.67 68.55 1.35 68.63 1.95 68.63 L23.1 47.25 Z" class="st3"/>
					</g>
					<g id="shape85-50" v:mID="85" v:groupContext="shape" v:layerMember="0"
							transform="translate(16.425,-2.41585E-13)">
						<title>Sheet.85</title>
						<path d="M18.83 49.5 L0 68.63 C0.45 68.63 0.9 68.63 1.2 68.63 C1.5 68.63 1.72 68.63 2.1 68.63 L18.83 51.6
									 L18.83 49.5 Z" class="st3"/>
					</g>
					<g id="shape86-52" v:mID="86" v:groupContext="shape" v:layerMember="0" transform="translate(21,-0.075)">
						<title>Sheet.86</title>
						<path d="M14.25 56.25 L14.25 54.08 L0 68.63 C0.75 68.55 1.5 68.55 2.25 68.48 L14.25 56.25 Z" class="st3"/>
					</g>
					<g id="shape87-54" v:mID="87" v:groupContext="shape" v:layerMember="0" transform="translate(26.1,-0.675)">
						<title>Sheet.87</title>
						<path d="M9.15 59.33 L0 68.63 C0.9 68.48 1.8 68.25 2.7 68.03 L9.15 61.43 L9.15 61.05 L9.15 59.33 Z"
								class="st3"/>
					</g>
					<g id="shape88-56" v:mID="88" v:groupContext="shape" v:layerMember="0" transform="translate(32.85,-3)">
						<title>Sheet.88</title>
						<path d="M1.73 66.83 L0 68.63 C0.75 68.1 1.35 67.5 1.73 66.83 Z" class="st3"/>
					</g>
				</g>
			</g>
		</g>
	</g>
</svg>
