<?xml version="1.0" encoding="UTF-8" standalone="no"?>
<!DOCTYPE svg PUBLIC "-//W3C//DTD SVG 1.1//EN" "http://www.w3.org/Graphics/SVG/1.1/DTD/svg11.dtd">
<!-- Generated by Microsoft Visio, SVG Export Database, mini 3 - ghosted.svg Page-1 -->
<svg xmlns="http://www.w3.org/2000/svg" xmlns:xlink="http://www.w3.org/1999/xlink" xmlns:ev="http://www.w3.org/2001/xml-events"
		xmlns:v="http://schemas.microsoft.com/visio/2003/SVGExtensions/" width="0.734375in" height="1.01563in"
		viewBox="0 0 52.875 73.125" xml:space="preserve" color-interpolation-filters="sRGB" class="st4">
	<v:documentProperties v:langID="4108" v:metric="true" v:viewMarkup="false"/>

	<style type="text/css">
	<![CDATA[
		.st1 {fill:#ffffff;stroke:none;stroke-linecap:butt;stroke-width:0.75}
		.st2 {fill:#9b9b9b;stroke:none;stroke-linecap:butt;stroke-width:0.75}
		.st3 {fill:#cccbcb;stroke:none;stroke-linecap:butt;stroke-width:0.75}
		.st4 {fill:none;fill-rule:evenodd;font-size:12px;overflow:visible;stroke-linecap:square;stroke-miterlimit:3}
	]]>
	</style>

	<g v:mID="0" v:index="1" v:groupContext="foregroundPage">
		<title>Page-1</title>
		<v:pageProperties v:drawingScale="0.0393701" v:pageScale="0.0393701" v:drawingUnits="24" v:shadowOffsetX="8.50394"
				v:shadowOffsetY="-8.50394"/>
		<v:layer v:name="symbols" v:index="0"/>
		<g id="group464-1" transform="translate(6.75,-6.1875)" v:mID="464" v:groupContext="group" v:layerMember="0">
			<title>Database, mini 3 - ghosted</title>
			<g id="group465-2" v:mID="465" v:groupContext="group" v:layerMember="0">
				<title>Sheet.465</title>
				<g id="shape466-3" v:mID="466" v:groupContext="shape" v:layerMember="0">
					<title>Sheet.466</title>
					<path d="M39.75 21.75 L39.75 20.25 C39.75 14.78 29.78 12.38 19.87 12.38 C9.98 12.38 0 14.78 0 20.25 L0 21.75
								 L0 62.7 L0 64.28 L0 64.35 C0.68 72 12.75 73.13 19.87 73.13 C27 73.13 39.08 72 39.75 64.35 L39.75
								 64.28 L39.75 62.63 L39.75 21.75 Z" class="st1"/>
				</g>
				<g id="shape467-5" v:mID="467" v:groupContext="shape" v:layerMember="0" transform="translate(2.25,-2.25)">
					<title>Sheet.467</title>
					<path d="M35.25 56.48 L35.25 64.88 L35.25 66.38 C34.72 72.6 22.05 73.13 17.63 73.13 C13.2 73.13 0.6 72.6 0 66.38
								 L0 64.88 L0 56.48 C3.53 59.18 10.58 60.38 17.63 60.38 C24.68 60.38 31.73 59.1 35.25 56.48 ZM17.63
								 45.38 C10.58 45.38 3.53 44.18 0 41.48 L0 49.88 L0 51.38 C0.53 57.6 13.2 58.13 17.63 58.13 C22.05
								 58.13 34.65 57.6 35.25 51.38 L35.25 49.88 L35.25 41.48 C31.73 44.1 24.68 45.38 17.63 45.38 ZM17.63
								 30.38 C10.58 30.38 3.53 29.18 0 26.48 L0 34.88 L0 36.38 C0.53 42.6 13.2 43.13 17.63 43.13 C22.05
								 43.13 34.65 42.6 35.25 36.38 L35.25 34.88 L35.25 26.48 C31.73 29.1 24.68 30.38 17.63 30.38 ZM17.63
								 16.88 C7.88 16.88 0 19.43 0 22.5 C0 25.58 7.88 28.13 17.63 28.13 C27.37 28.13 35.25 25.58 35.25
								 22.5 C35.25 19.43 27.37 16.88 17.63 16.88 Z" class="st2"/>
				</g>
				<g id="group468-7" transform="translate(2.25,-2.25)" v:mID="468" v:groupContext="group" v:layerMember="0">
					<title>Sheet.468</title>
					<g id="shape469-8" v:mID="469" v:groupContext="shape" v:layerMember="0" transform="translate(0.15,-48.75)">
						<title>Sheet.469</title>
						<path d="M0.83 73.13 L7.13 66.75 C6.08 66.98 5.03 67.28 4.2 67.65 L0 71.93 C0.08 72.3 0.38 72.68 0.83 73.13
									 Z" class="st3"/>
					</g>
					<g id="shape470-10" v:mID="470" v:groupContext="shape" v:layerMember="0" transform="translate(2.4,-47.1)">
						<title>Sheet.470</title>
						<path d="M0 72.45 C0.45 72.68 0.9 72.9 1.42 73.13 L10.2 64.2 C9.37 64.28 8.55 64.35 7.8 64.5 L0 72.45 Z"
								class="st3"/>
					</g>
					<g id="shape471-12" v:mID="471" v:groupContext="shape" v:layerMember="0" transform="translate(0,-43.275)">
						<title>Sheet.471</title>
						<path d="M0.75 70.28 L0 71.03 L0 73.13 L2.1 70.95 C1.65 70.73 1.2 70.5 0.75 70.28 Z" class="st3"/>
					</g>
					<g id="shape472-14" v:mID="472" v:groupContext="shape" v:layerMember="0" transform="translate(5.55,-46.05)">
						<title>Sheet.472</title>
						<path d="M1.65 73.13 L11.7 62.93 C10.95 62.93 10.28 62.93 9.52 63 L0 72.68 C0.53 72.83 1.12 72.98 1.65 73.13
									 Z" class="st3"/>
					</g>
					<g id="shape473-16" v:mID="473" v:groupContext="shape" v:layerMember="0" transform="translate(0.075,-38.85)">
						<title>Sheet.473</title>
						<path d="M5.32 67.73 C4.8 67.58 4.2 67.43 3.75 67.2 L0 71.03 L0 73.13 L5.32 67.73 Z" class="st3"/>
					</g>
					<g id="shape474-18" v:mID="474" v:groupContext="shape" v:layerMember="0" transform="translate(0.075,-34.875)">
						<title>Sheet.474</title>
						<path d="M7.2 64.28 L0 71.55 C0.07 72.15 0.3 72.68 0.52 73.13 L9 64.58 C8.4 64.5 7.8 64.35 7.2 64.28 Z"
								class="st3"/>
					</g>
					<g id="shape475-20" v:mID="475" v:groupContext="shape" v:layerMember="0" transform="translate(9.225,-45.375)">
						<title>Sheet.475</title>
						<path d="M0 72.83 C0.6 72.9 1.2 73.05 1.87 73.13 L12.45 62.4 C11.77 62.33 11.1 62.33 10.42 62.25 L0 72.83
									 Z" class="st3"/>
					</g>
					<g id="shape476-22" v:mID="476" v:groupContext="shape" v:layerMember="0"
							transform="translate(1.76734E-14,-29.775)">
						<title>Sheet.476</title>
						<path d="M0 73.13 L1.12 71.93 C0.67 71.7 0.3 71.48 0 71.18 L0 73.13 Z" class="st3"/>
					</g>
					<g id="shape477-24" v:mID="477" v:groupContext="shape" v:layerMember="0" transform="translate(13.2,-45.075)">
						<title>Sheet.477</title>
						<path d="M1.95 73.13 L12.45 62.55 C11.85 62.48 11.25 62.4 10.57 62.33 L0 73.05 C0.6 73.05 1.28 73.13 1.95
									 73.13 Z" class="st3"/>
					</g>
					<g id="shape478-26" v:mID="478" v:groupContext="shape" v:layerMember="0" transform="translate(1.725,-32.7)">
						<title>Sheet.478</title>
						<path d="M11.32 62.93 C10.65 62.85 10.05 62.85 9.37 62.78 L0 72.23 C0.37 72.53 0.75 72.83 1.2 73.13 L11.32
									 62.93 Z" class="st3"/>
					</g>
					<g id="shape479-28" v:mID="479" v:groupContext="shape" v:layerMember="0" transform="translate(17.475,-45)">
						<title>Sheet.479</title>
						<path d="M0 73.13 C0.08 73.13 0.08 73.13 0.15 73.13 C0.83 73.13 1.5 73.13 2.18 73.05 L11.85 63.3 C11.33 63.15
									 10.73 63 10.13 62.85 L0 73.13 Z" class="st3"/>
					</g>
					<g id="shape480-30" v:mID="480" v:groupContext="shape" v:layerMember="0" transform="translate(4.5,-31.425)">
						<title>Sheet.480</title>
						<path d="M10.8 61.73 L0 72.6 C0.52 72.83 1.05 72.98 1.57 73.13 L12.82 61.73 C12.15 61.8 11.47 61.8 10.8 61.73
									 Z" class="st3"/>
					</g>
					<g id="shape481-32" v:mID="481" v:groupContext="shape" v:layerMember="0"
							transform="translate(7.49401E-16,-25.275)">
						<title>Sheet.481</title>
						<path d="M2.77 68.25 L0 71.03 L0 73.13 L4.27 68.78 C3.75 68.7 3.22 68.48 2.77 68.25 Z" class="st3"/>
					</g>
					<g id="shape482-34" v:mID="482" v:groupContext="shape" v:layerMember="0" transform="translate(7.95,-30.6)">
						<title>Sheet.482</title>
						<path d="M14.02 60.83 C13.27 60.9 12.53 60.9 11.77 60.98 L0 72.83 C0.6 72.98 1.2 73.05 1.8 73.13 L14.02 60.83
									 Z" class="st3"/>
					</g>
					<g id="shape483-36" v:mID="483" v:groupContext="shape" v:layerMember="0" transform="translate(22.125,-45.225)">
						<title>Sheet.483</title>
						<path d="M2.4 72.9 L10.5 64.73 C10.05 64.5 9.6 64.28 9 64.05 L0 73.13 C0.82 73.13 1.65 72.98 2.4 72.9 Z"
								class="st3"/>
					</g>
					<g id="shape484-38" v:mID="484" v:groupContext="shape" v:layerMember="0"
							transform="translate(4.996E-16,-20.925)">
						<title>Sheet.484</title>
						<path d="M0.15 73.13 L7.8 65.4 C7.2 65.25 6.6 65.18 6.07 65.03 L0 71.18 L0 72.3 C0.08 72.6 0.08 72.83 0.15
									 73.13 Z" class="st3"/>
					</g>
					<g id="shape485-40" v:mID="485" v:groupContext="shape" v:layerMember="0" transform="translate(27.45,-45.975)">
						<title>Sheet.485</title>
						<path d="M2.85 72.38 L7.65 67.58 C7.42 67.2 7.12 66.83 6.67 66.45 L0 73.13 C0.98 72.9 1.95 72.68 2.85 72.38
									 Z" class="st3"/>
					</g>
					<g id="shape486-42" v:mID="486" v:groupContext="shape" v:layerMember="0" transform="translate(0.975,-18.3)">
						<title>Sheet.486</title>
						<path d="M1.05 73.13 L10.73 63.38 C10.13 63.3 9.45 63.23 8.85 63.15 L0 72.08 C0.3 72.45 0.68 72.83 1.05 73.13
									 Z" class="st3"/>
					</g>
					<g id="shape487-44" v:mID="487" v:groupContext="shape" v:layerMember="0" transform="translate(11.85,-30.15)">
						<title>Sheet.487</title>
						<path d="M15.3 59.7 C14.48 59.85 13.65 60 12.83 60.08 L0 72.98 C0.68 73.05 1.35 73.13 1.95 73.13 L15.3 59.7
									 Z" class="st3"/>
					</g>
					<g id="shape488-46" v:mID="488" v:groupContext="shape" v:layerMember="0"
							transform="translate(-1.73299E-15,-16.2)">
						<title>Sheet.488</title>
						<path d="M0.23 72.83 C0.15 72.75 0.08 72.68 0 72.68 L0 73.13 L0.23 72.83 Z" class="st3"/>
					</g>
					<g id="shape489-48" v:mID="489" v:groupContext="shape" v:layerMember="0" transform="translate(3.525,-16.725)">
						<title>Sheet.489</title>
						<path d="M10.42 61.95 L0 72.45 C0.45 72.68 0.97 72.9 1.5 73.13 L12.45 62.1 C11.77 62.03 11.1 62.03 10.42
									 61.95 Z" class="st3"/>
					</g>
					<g id="shape490-50" v:mID="490" v:groupContext="shape" v:layerMember="0" transform="translate(16.05,-30)">
						<title>Sheet.490</title>
						<path d="M0 73.13 C0.6 73.13 1.13 73.13 1.58 73.13 C1.73 73.13 1.95 73.13 2.1 73.13 L17.78 57.38 C16.8 57.9
									 15.6 58.35 14.25 58.8 L0 73.13 Z" class="st3"/>
					</g>
					<g id="shape491-52" v:mID="491" v:groupContext="shape" v:layerMember="0" transform="translate(0,-11.775)">
						<title>Sheet.491</title>
						<path d="M1.73 69.3 L0 71.03 L0 73.13 L3.23 69.9 C2.7 69.75 2.18 69.53 1.73 69.3 Z" class="st3"/>
					</g>
					<g id="shape492-54" v:mID="492" v:groupContext="shape" v:layerMember="0"
							transform="translate(3.4972E-14,-7.275)">
						<title>Sheet.492</title>
						<path d="M0 73.13 L6.6 66.45 C6 66.3 5.47 66.15 4.95 66 L0 71.03 L0 72.15 L0 73.13 Z" class="st3"/>
					</g>
					<g id="shape493-56" v:mID="493" v:groupContext="shape" v:layerMember="0" transform="translate(6.75,-15.825)">
						<title>Sheet.493</title>
						<path d="M13.73 61.13 C12.98 61.13 12.3 61.2 11.55 61.2 L0 72.75 C0.6 72.9 1.13 73.05 1.73 73.13 L13.73 61.13
									 Z" class="st3"/>
					</g>
					<g id="shape494-58" v:mID="494" v:groupContext="shape" v:layerMember="0" transform="translate(20.625,-30.075)">
						<title>Sheet.494</title>
						<path d="M2.25 72.98 L14.63 60.53 L14.63 58.43 L0 73.13 C0.68 73.05 1.43 73.05 2.25 72.98 Z" class="st3"/>
					</g>
					<g id="shape495-60" v:mID="495" v:groupContext="shape" v:layerMember="0" transform="translate(0.45,-4.05)">
						<title>Sheet.495</title>
						<path d="M0.83 73.13 L9.98 63.9 C9.38 63.83 8.7 63.75 8.18 63.6 L0 71.93 C0.23 72.38 0.45 72.75 0.83 73.13
									 Z" class="st3"/>
					</g>
					<g id="shape496-62" v:mID="496" v:groupContext="shape" v:layerMember="0" transform="translate(10.575,-15.225)">
						<title>Sheet.496</title>
						<path d="M14.85 60.08 C14.1 60.23 13.27 60.3 12.45 60.38 L0 72.9 C0.67 72.98 1.28 73.05 1.88 73.13 L14.85
									 60.08 Z" class="st3"/>
					</g>
					<g id="shape497-64" v:mID="497" v:groupContext="shape" v:layerMember="0" transform="translate(25.575,-30.6)">
						<title>Sheet.497</title>
						<path d="M0 73.13 C0.9 72.98 1.8 72.83 2.63 72.6 L9.6 65.55 L9.6 65.48 L9.6 63.45 L0 73.13 Z" class="st3"/>
					</g>
					<g id="shape498-66" v:mID="498" v:groupContext="shape" v:layerMember="0" transform="translate(32.025,-32.55)">
						<title>Sheet.498</title>
						<path d="M2.85 70.28 L0 73.13 C1.35 72.38 2.32 71.48 2.85 70.28 Z" class="st3"/>
					</g>
					<g id="shape499-68" v:mID="499" v:groupContext="shape" v:layerMember="0" transform="translate(14.625,-15)">
						<title>Sheet.499</title>
						<path d="M13.73 59.33 L0 73.05 C0.75 73.13 1.43 73.13 2.03 73.13 L16.58 58.5 C15.75 58.8 14.78 59.03 13.73
									 59.33 Z" class="st3"/>
					</g>
					<g id="shape500-70" v:mID="500" v:groupContext="shape" v:layerMember="0" transform="translate(2.55,-2.175)">
						<title>Sheet.500</title>
						<path d="M9.98 62.33 L0 72.38 C0.45 72.68 0.9 72.9 1.35 73.13 L11.93 62.48 C11.33 62.4 10.65 62.4 9.98 62.33
									 Z" class="st3"/>
					</g>
					<g id="shape501-72" v:mID="501" v:groupContext="shape" v:layerMember="0" transform="translate(19.05,-15)">
						<title>Sheet.501</title>
						<path d="M16.2 58.95 L16.2 56.85 L0 73.13 C0.68 73.13 1.43 73.05 2.18 73.05 L16.2 58.95 Z" class="st3"/>
					</g>
					<g id="shape502-74" v:mID="502" v:groupContext="shape" v:layerMember="0" transform="translate(5.625,-1.05)">
						<title>Sheet.502</title>
						<path d="M13.35 61.43 C12.9 61.43 12.45 61.43 12 61.43 C11.7 61.43 11.48 61.43 11.17 61.43 L0 72.68 C0.52
									 72.83 1.05 72.98 1.65 73.13 L13.35 61.43 Z" class="st3"/>
					</g>
					<g id="shape503-76" v:mID="503" v:groupContext="shape" v:layerMember="0" transform="translate(24.15,-15.375)">
						<title>Sheet.503</title>
						<path d="M0 73.13 C0.83 73.05 1.65 72.9 2.47 72.75 L11.1 64.05 L11.1 61.95 L0 73.13 Z" class="st3"/>
					</g>
					<g id="shape504-78" v:mID="504" v:groupContext="shape" v:layerMember="0" transform="translate(9.525,-0.375)">
						<title>Sheet.504</title>
						<path d="M12.15 60.6 L0 72.9 C0.6 72.98 1.27 73.05 1.88 73.13 L14.48 60.38 C13.73 60.45 12.98 60.53 12.15
									 60.6 Z" class="st3"/>
					</g>
					<g id="shape505-80" v:mID="505" v:groupContext="shape" v:layerMember="0" transform="translate(13.575,-0.075)">
						<title>Sheet.505</title>
						<path d="M15.9 59.1 C15.07 59.33 14.17 59.55 13.2 59.7 L0 73.05 C0.67 73.13 1.35 73.13 2.03 73.13 L15.9 59.1
									 Z" class="st3"/>
					</g>
					<g id="shape506-82" v:mID="506" v:groupContext="shape" v:layerMember="0" transform="translate(29.775,-16.575)">
						<title>Sheet.506</title>
						<path d="M0 73.13 C2.92 72.15 5.17 70.5 5.4 67.95 L5.4 67.65 L0 73.13 Z" class="st3"/>
					</g>
					<g id="shape507-84" v:mID="507" v:groupContext="shape" v:layerMember="0" transform="translate(17.925,0)">
						<title>Sheet.507</title>
						<path d="M17.33 57.68 L17.33 56.48 C16.73 56.93 15.98 57.38 15.23 57.75 L0 73.13 C0.6 73.13 1.35 73.13 2.18
									 73.05 L17.33 57.68 Z" class="st3"/>
					</g>
					<g id="shape508-86" v:mID="508" v:groupContext="shape" v:layerMember="0" transform="translate(22.65,-0.3)">
						<title>Sheet.508</title>
						<path d="M12.6 62.55 L12.6 60.38 L0 73.13 C0.75 73.05 1.58 72.98 2.4 72.83 L12.6 62.55 Z" class="st3"/>
					</g>
					<g id="shape509-88" v:mID="509" v:groupContext="shape" v:layerMember="0" transform="translate(28.05,-1.05)">
						<title>Sheet.509</title>
						<path d="M7.2 65.93 L7.2 65.78 L0 73.13 C1.13 72.83 2.18 72.53 3.15 72.08 L7.13 68.03 C7.2 67.8 7.2 67.65
									 7.2 67.43 L7.2 65.93 Z" class="st3"/>
					</g>
				</g>
			</g>
		</g>
	</g>
</svg>
