<?xml version="1.0" encoding="UTF-8" standalone="no"?>
<!DOCTYPE svg PUBLIC "-//W3C//DTD SVG 1.1//EN" "http://www.w3.org/Graphics/SVG/1.1/DTD/svg11.dtd">
<!-- Generated by Microsoft Visio, SVG Export Database Mirror.svg Page-1 -->
<svg xmlns="http://www.w3.org/2000/svg" xmlns:xlink="http://www.w3.org/1999/xlink" xmlns:ev="http://www.w3.org/2001/xml-events"
		xmlns:v="http://schemas.microsoft.com/visio/2003/SVGExtensions/" width="1.10937in" height="0.984375in"
		viewBox="0 0 79.875 70.875" xml:space="preserve" color-interpolation-filters="sRGB" class="st4">
	<v:documentProperties v:langID="4108" v:metric="true" v:viewMarkup="false"/>

	<style type="text/css">
	<![CDATA[
		.st1 {fill:#ffffff;stroke:none;stroke-linecap:butt;stroke-width:0.75}
		.st2 {fill:#515150;stroke:none;stroke-linecap:butt;stroke-width:0.75}
		.st3 {fill:#525352;stroke:none;stroke-linecap:butt;stroke-width:0.75}
		.st4 {fill:none;fill-rule:evenodd;font-size:12px;overflow:visible;stroke-linecap:square;stroke-miterlimit:3}
	]]>
	</style>

	<g v:mID="0" v:index="1" v:groupContext="foregroundPage">
		<title>Page-1</title>
		<v:pageProperties v:drawingScale="0.0393701" v:pageScale="0.0393701" v:drawingUnits="24" v:shadowOffsetX="8.50394"
				v:shadowOffsetY="-8.50394"/>
		<v:layer v:name="symbols" v:index="0"/>
		<g id="group615-1" transform="translate(8.25,-2.775)" v:mID="615" v:groupContext="group" v:layerMember="0">
			<title>Database Mirror</title>
			<g id="group616-2" v:mID="616" v:groupContext="group" v:layerMember="0">
				<title>Sheet.616</title>
				<g id="group617-3" transform="translate(3.75,-3.12639E-13)" v:mID="617" v:groupContext="group" v:layerMember="0">
					<title>Sheet.617</title>
					<g id="shape618-4" v:mID="618" v:groupContext="shape" v:layerMember="0">
						<title>Sheet.618</title>
						<path d="M21.6 49.88 L12.45 49.88 L12.45 52.73 L15.52 55.88 L13.8 55.88 C12.08 55.88 10.2 53.93 9.45 51.53
									 L9 49.88 L0 49.88 L0.53 52.58 C1.88 59.55 7.58 64.88 13.8 64.88 L15.52 64.88 L12.45 68.03 L12.45
									 70.88 L21.6 70.88 L32.1 60.3 L21.6 49.88 Z" class="st1"/>
					</g>
					<g id="shape619-6" v:mID="619" v:groupContext="shape" v:layerMember="0" transform="translate(2.7,-2.25)">
						<title>Sheet.619</title>
						<path d="M18 54.38 L12.3 54.38 L18.08 60.38 L11.03 60.38 C8.17 60.38 5.47 57.75 4.5 54.38 L0 54.38 C1.13
									 60.23 5.85 64.88 11.1 64.88 L18.15 64.88 L12.3 70.88 L17.93 70.88 L26.18 62.55 L18 54.38 Z"
								class="st2"/>
					</g>
				</g>
				<g id="group620-8" transform="translate(0,-19.5)" v:mID="620" v:groupContext="group" v:layerMember="0">
					<title>Sheet.620</title>
					<g id="shape621-9" v:mID="621" v:groupContext="shape" v:layerMember="0">
						<title>Sheet.621</title>
						<path d="M0 34.13 C0 29.48 8.1 27.38 16.13 27.38 C24.15 27.38 32.25 29.48 32.25 34.13 L32.25 35.18 L32.25
									 63.38 C31.8 68.18 26.1 70.8 16.13 70.8 C6.15 70.88 0.45 68.25 0 63.45 L0 63.38 L0 34.95 L0 34.13
									 Z" class="st1"/>
					</g>
					<g id="shape622-11" v:mID="622" v:groupContext="shape" v:layerMember="0" transform="translate(16.05,-43.5)">
						<title>Sheet.622</title>
					</g>
					<g id="shape623-12" v:mID="623" v:groupContext="shape" v:layerMember="0" transform="translate(2.25,-2.25)">
						<title>Sheet.623</title>
						<path d="M13.88 43.13 C8.4 43.13 2.93 42.15 0 40.13 L0 65.48 C0.45 70.5 10.35 70.88 13.88 70.88 C17.4 70.88
									 27.3 70.5 27.75 65.48 L27.75 40.13 C24.75 42.15 19.28 43.13 13.88 43.13 Z" class="st3"/>
					</g>
					<g id="shape624-14" v:mID="624" v:groupContext="shape" v:layerMember="0" transform="translate(2.25,-32.25)">
						<title>Sheet.624</title>
						<ellipse cx="13.875" cy="66.375" rx="13.875" ry="4.5" class="st3"/>
					</g>
				</g>
				<g id="group625-16" transform="translate(31.5,-6.825)" v:mID="625" v:groupContext="group" v:layerMember="0">
					<title>Sheet.625</title>
					<g id="shape626-17" v:mID="626" v:groupContext="shape" v:layerMember="0">
						<title>Sheet.626</title>
						<path d="M0 34.2 C0 29.55 8.1 27.45 16.13 27.45 C24.15 27.45 32.25 29.55 32.25 34.2 L32.25 35.25 L32.25 63.45
									 C31.8 68.25 26.1 70.88 16.13 70.88 C6.15 70.88 0.45 68.25 0.07 63.45 L0.07 63.38 L0.07 35.03
									 L0.07 34.2 L0 34.2 Z" class="st1"/>
					</g>
					<g id="shape627-19" v:mID="627" v:groupContext="shape" v:layerMember="0" transform="translate(16.05,-43.425)">
						<title>Sheet.627</title>
					</g>
					<g id="shape628-20" v:mID="628" v:groupContext="shape" v:layerMember="0" transform="translate(2.25,-2.175)">
						<title>Sheet.628</title>
						<path d="M13.88 43.13 C8.47 43.13 3 42.15 0 40.13 L0 65.48 C0.45 70.5 10.28 70.88 13.8 70.88 C17.33 70.88
									 27.23 70.5 27.68 65.48 L27.68 40.13 C24.75 42.15 19.28 43.13 13.88 43.13 Z" class="st3"/>
					</g>
					<g id="shape629-22" v:mID="629" v:groupContext="shape" v:layerMember="0" transform="translate(2.25,-32.175)">
						<title>Sheet.629</title>
						<ellipse cx="13.875" cy="66.375" rx="13.875" ry="4.5" class="st3"/>
					</g>
				</g>
			</g>
		</g>
	</g>
</svg>
