<?xml version="1.0" encoding="UTF-8" standalone="no"?>
<!DOCTYPE svg PUBLIC "-//W3C//DTD SVG 1.1//EN" "http://www.w3.org/Graphics/SVG/1.1/DTD/svg11.dtd">
<!-- Generated by Microsoft Visio, SVG Export Database Cube - orange.svg Page-1 -->
<svg xmlns="http://www.w3.org/2000/svg" xmlns:xlink="http://www.w3.org/1999/xlink" xmlns:ev="http://www.w3.org/2001/xml-events"
		xmlns:v="http://schemas.microsoft.com/visio/2003/SVGExtensions/" width="0.890625in" height="0.984375in"
		viewBox="0 0 64.125 70.875" xml:space="preserve" color-interpolation-filters="sRGB" class="st3">
	<v:documentProperties v:langID="4108" v:metric="true" v:viewMarkup="false"/>

	<style type="text/css">
	<![CDATA[
		.st1 {fill:#ffffff;stroke:none;stroke-linecap:butt;stroke-width:0.75}
		.st2 {fill:#da4026;stroke:none;stroke-linecap:butt;stroke-width:0.75}
		.st3 {fill:none;fill-rule:evenodd;font-size:12px;overflow:visible;stroke-linecap:square;stroke-miterlimit:3}
	]]>
	</style>

	<g v:mID="0" v:index="1" v:groupContext="foregroundPage">
		<title>Page-1</title>
		<v:pageProperties v:drawingScale="0.0393701" v:pageScale="0.0393701" v:drawingUnits="24" v:shadowOffsetX="8.50394"
				v:shadowOffsetY="-8.50394"/>
		<v:layer v:name="symbols" v:index="0"/>
		<g id="group161-1" transform="translate(6.9,-6.6)" v:mID="161" v:groupContext="group" v:layerMember="0">
			<title>Database Cube - orange</title>
			<g id="group162-2" v:mID="162" v:groupContext="group" v:layerMember="0">
				<title>Sheet.162</title>
				<g id="shape163-3" v:mID="163" v:groupContext="shape" v:layerMember="0">
					<title>Sheet.163</title>
					<path d="M0 56.18 L0 27.6 L25.5 13.2 L51 27.98 L51 55.8 L25.5 70.88 L0 56.18 Z" class="st1"/>
				</g>
				<g id="group164-5" transform="translate(26.25,-3.225)" v:mID="164" v:groupContext="group" v:layerMember="0">
					<title>Sheet.164</title>
					<g id="shape165-6" v:mID="165" v:groupContext="shape" v:layerMember="0" transform="translate(16.5,-27.525)">
						<title>Sheet.165</title>
						<path d="M0 70.88 L6 67.28 L6 60.23 L0 63.75 L0 70.88 Z" class="st2"/>
					</g>
					<g id="shape166-8" v:mID="166" v:groupContext="shape" v:layerMember="0" transform="translate(8.25,-22.875)">
						<title>Sheet.166</title>
						<path d="M0 70.88 L6.75 66.98 L6.75 59.93 L0 63.83 L0 70.88 Z" class="st2"/>
					</g>
					<g id="shape167-10" v:mID="167" v:groupContext="shape" v:layerMember="0" transform="translate(0,-18)">
						<title>Sheet.167</title>
						<path d="M0 70.88 L6.75 66.98 L6.75 59.85 L0 63.75 L0 70.88 Z" class="st2"/>
					</g>
					<g id="shape168-12" v:mID="168" v:groupContext="shape" v:layerMember="0" transform="translate(16.5,-18.675)">
						<title>Sheet.168</title>
						<path d="M0 70.88 L6 67.43 L6 60.3 L0 63.75 L0 70.88 Z" class="st2"/>
					</g>
					<g id="shape169-14" v:mID="169" v:groupContext="shape" v:layerMember="0" transform="translate(8.25,-13.875)">
						<title>Sheet.169</title>
						<path d="M0 70.88 L6.75 66.98 L6.75 59.85 L0 63.75 L0 70.88 Z" class="st2"/>
					</g>
					<g id="shape170-16" v:mID="170" v:groupContext="shape" v:layerMember="0" transform="translate(0,-9.075)">
						<title>Sheet.170</title>
						<path d="M0 70.88 L6.75 66.98 L6.75 59.85 L0 63.75 L0 70.88 Z" class="st2"/>
					</g>
					<g id="shape171-18" v:mID="171" v:groupContext="shape" v:layerMember="0" transform="translate(16.5,-9.525)">
						<title>Sheet.171</title>
						<path d="M0 70.88 L6 67.35 L6 60.23 L0 63.75 L0 70.88 Z" class="st2"/>
					</g>
					<g id="shape172-20" v:mID="172" v:groupContext="shape" v:layerMember="0" transform="translate(8.25,-4.725)">
						<title>Sheet.172</title>
						<path d="M0 70.88 L6.75 66.9 L6.75 59.78 L0 63.68 L0 70.88 Z" class="st2"/>
					</g>
					<g id="shape173-22" v:mID="173" v:groupContext="shape" v:layerMember="0">
						<title>Sheet.173</title>
						<path d="M0 70.88 L6.75 66.98 L6.75 59.85 L0 63.75 L0 70.88 Z" class="st2"/>
					</g>
				</g>
				<g id="group174-24" transform="translate(2.25,-3.075)" v:mID="174" v:groupContext="group" v:layerMember="0">
					<title>Sheet.174</title>
					<g id="shape175-25" v:mID="175" v:groupContext="shape" v:layerMember="0"
							transform="translate(-1.1241E-13,-27.6)">
						<title>Sheet.175</title>
						<path d="M6 70.88 L0 67.28 L0 60.3 L6 63.75 L6 70.88 Z" class="st2"/>
					</g>
					<g id="shape176-27" v:mID="176" v:groupContext="shape" v:layerMember="0" transform="translate(7.5,-22.95)">
						<title>Sheet.176</title>
						<path d="M6.75 70.88 L0 66.98 L0 59.93 L6.75 63.9 L6.75 70.88 Z" class="st2"/>
					</g>
					<g id="shape177-29" v:mID="177" v:groupContext="shape" v:layerMember="0" transform="translate(15.75,-18.075)">
						<title>Sheet.177</title>
						<path d="M6.75 70.88 L0 66.98 L0 59.85 L6.75 63.75 L6.75 70.88 Z" class="st2"/>
					</g>
					<g id="shape178-31" v:mID="178" v:groupContext="shape" v:layerMember="0"
							transform="translate(-1.1241E-13,-18.75)">
						<title>Sheet.178</title>
						<path d="M6 70.88 L0 67.43 L0 60.3 L6 63.75 L6 70.88 Z" class="st2"/>
					</g>
					<g id="shape179-33" v:mID="179" v:groupContext="shape" v:layerMember="0" transform="translate(7.5,-13.95)">
						<title>Sheet.179</title>
						<path d="M6.75 70.88 L0 66.98 L0 59.85 L6.75 63.75 L6.75 70.88 Z" class="st2"/>
					</g>
					<g id="shape180-35" v:mID="180" v:groupContext="shape" v:layerMember="0" transform="translate(15.75,-9.15)">
						<title>Sheet.180</title>
						<path d="M6.75 70.88 L0 66.98 L0 59.85 L6.75 63.75 L6.75 70.88 Z" class="st2"/>
					</g>
					<g id="shape181-37" v:mID="181" v:groupContext="shape" v:layerMember="0"
							transform="translate(-1.1241E-13,-9.6)">
						<title>Sheet.181</title>
						<path d="M6 70.88 L0 67.35 L0 60.23 L6 63.75 L6 70.88 Z" class="st2"/>
					</g>
					<g id="shape182-39" v:mID="182" v:groupContext="shape" v:layerMember="0" transform="translate(7.5,-4.8)">
						<title>Sheet.182</title>
						<path d="M6.75 70.88 L0 66.9 L0 59.78 L6.75 63.75 L6.75 70.88 Z" class="st2"/>
					</g>
					<g id="shape183-41" v:mID="183" v:groupContext="shape" v:layerMember="0"
							transform="translate(15.75,-1.84741E-13)">
						<title>Sheet.183</title>
						<path d="M6.75 70.88 L0 66.9 L0 59.78 L6.75 63.75 L6.75 70.88 Z" class="st2"/>
					</g>
				</g>
				<g id="group184-43" transform="translate(3.675,-29.85)" v:mID="184" v:groupContext="group" v:layerMember="0">
					<title>Sheet.184</title>
					<g id="shape185-44" v:mID="185" v:groupContext="shape" v:layerMember="0"
							transform="translate(2.18825E-13,-9.075)">
						<title>Sheet.185</title>
						<path d="M0 67.28 L6.22 63.75 L12.45 67.28 L6.22 70.88 L0 67.28 Z" class="st2"/>
					</g>
					<g id="shape186-46" v:mID="186" v:groupContext="shape" v:layerMember="0" transform="translate(7.95,-13.65)">
						<title>Sheet.186</title>
						<path d="M0 67.35 L6 63.83 L12.15 67.35 L6.08 70.88 L0 67.35 Z" class="st2"/>
					</g>
					<g id="shape187-48" v:mID="187" v:groupContext="shape" v:layerMember="0" transform="translate(15.6,-18.075)">
						<title>Sheet.187</title>
						<path d="M0 67.28 L6.23 63.68 L12.38 67.28 L6.23 70.88 L0 67.28 Z" class="st2"/>
					</g>
					<g id="shape188-50" v:mID="188" v:groupContext="shape" v:layerMember="0" transform="translate(7.8,-4.5)">
						<title>Sheet.188</title>
						<path d="M0 67.2 L6.23 63.68 L12.38 67.2 L6.15 70.88 L0 67.2 Z" class="st2"/>
					</g>
					<g id="shape189-52" v:mID="189" v:groupContext="shape" v:layerMember="0" transform="translate(15.75,-9.075)">
						<title>Sheet.189</title>
						<path d="M0 67.28 L6.08 63.75 L12.15 67.2 L6.08 70.88 L0 67.28 Z" class="st2"/>
					</g>
					<g id="shape190-54" v:mID="190" v:groupContext="shape" v:layerMember="0" transform="translate(23.475,-13.65)">
						<title>Sheet.190</title>
						<path d="M0 67.35 L6.15 63.83 L12.23 67.28 L6.08 70.88 L0 67.35 Z" class="st2"/>
					</g>
					<g id="shape191-56" v:mID="191" v:groupContext="shape" v:layerMember="0"
							transform="translate(15.45,-1.27898E-13)">
						<title>Sheet.191</title>
						<path d="M0 67.2 L6.37 63.68 L12.52 67.2 L6.37 70.88 L0 67.2 Z" class="st2"/>
					</g>
					<g id="shape192-58" v:mID="192" v:groupContext="shape" v:layerMember="0" transform="translate(23.475,-4.575)">
						<title>Sheet.192</title>
						<path d="M0 67.28 L6.08 63.75 L12.3 67.35 L6.23 70.88 L0 67.28 Z" class="st2"/>
					</g>
					<g id="shape193-60" v:mID="193" v:groupContext="shape" v:layerMember="0" transform="translate(31.2,-9.075)">
						<title>Sheet.193</title>
						<path d="M0 67.28 L6.15 63.68 L12.45 67.28 L6.22 70.88 L0 67.28 Z" class="st2"/>
					</g>
				</g>
			</g>
		</g>
	</g>
</svg>
