<?xml version="1.0" encoding="UTF-8" standalone="no"?>
<!DOCTYPE svg PUBLIC "-//W3C//DTD SVG 1.1//EN" "http://www.w3.org/Graphics/SVG/1.1/DTD/svg11.dtd">
<!-- Generated by Microsoft Visio, SVG Export Database, mini 3.svg Page-1 -->
<svg xmlns="http://www.w3.org/2000/svg" xmlns:xlink="http://www.w3.org/1999/xlink" xmlns:ev="http://www.w3.org/2001/xml-events"
		xmlns:v="http://schemas.microsoft.com/visio/2003/SVGExtensions/" width="0.75in" height="1.01563in" viewBox="0 0 54 73.125"
		xml:space="preserve" color-interpolation-filters="sRGB" class="st3">
	<v:documentProperties v:langID="4108" v:metric="true" v:viewMarkup="false"/>

	<style type="text/css">
	<![CDATA[
		.st1 {fill:#ffffff;stroke:none;stroke-linecap:butt;stroke-width:0.75}
		.st2 {fill:#515251;stroke:none;stroke-linecap:butt;stroke-width:0.75}
		.st3 {fill:none;fill-rule:evenodd;font-size:12px;overflow:visible;stroke-linecap:square;stroke-miterlimit:3}
	]]>
	</style>

	<g v:mID="0" v:index="1" v:groupContext="foregroundPage">
		<title>Page-1</title>
		<v:pageProperties v:drawingScale="0.0393701" v:pageScale="0.0393701" v:drawingUnits="24" v:shadowOffsetX="8.50394"
				v:shadowOffsetY="-8.50394"/>
		<v:layer v:name="symbols" v:index="0"/>
		<g id="group429-1" transform="translate(6.9,-6.1875)" v:mID="429" v:groupContext="group" v:layerMember="0">
			<title>Database, mini 3</title>
			<g id="group430-2" v:mID="430" v:groupContext="group" v:layerMember="0">
				<title>Sheet.430</title>
				<g id="group431-3" v:mID="431" v:groupContext="group" v:layerMember="0">
					<title>Sheet.431</title>
					<g id="shape432-4" v:mID="432" v:groupContext="shape" v:layerMember="0">
						<title>Sheet.432</title>
						<path d="M39.75 51.75 L39.75 62.63 L39.75 64.28 L39.75 64.35 C39.08 72 27 73.13 19.87 73.13 C12.75 73.13
									 0.68 72 0 64.35 L0 64.28 L0 62.7 L0 51.75 L0 50.25 C-0 44.78 9.98 42.38 19.87 42.38 C29.78 42.38
									 39.75 44.78 39.75 50.25 L39.75 51.75 Z" class="st1"/>
					</g>
					<g id="shape433-6" v:mID="433" v:groupContext="shape" v:layerMember="0" transform="translate(2.25,-2.25)">
						<title>Sheet.433</title>
						<path d="M17.63 60.38 C10.58 60.38 3.53 59.18 0 56.48 L0 64.88 L0 66.38 C0.53 72.6 13.2 73.13 17.63 73.13
									 C22.05 73.13 34.65 72.6 35.25 66.38 L35.25 64.88 L35.25 56.48 C31.73 59.18 24.68 60.38 17.63
									 60.38 Z" class="st2"/>
					</g>
					<g id="shape434-8" v:mID="434" v:groupContext="shape" v:layerMember="0" transform="translate(2.25,-17.25)">
						<title>Sheet.434</title>
						<ellipse cx="17.625" cy="67.5" rx="17.625" ry="5.625" class="st2"/>
					</g>
				</g>
				<g id="group435-10" transform="translate(0,-15)" v:mID="435" v:groupContext="group" v:layerMember="0">
					<title>Sheet.435</title>
					<g id="shape436-11" v:mID="436" v:groupContext="shape" v:layerMember="0">
						<title>Sheet.436</title>
						<path d="M39.75 51.75 L39.75 62.63 L39.75 64.28 L39.75 64.35 C39.08 72 27 73.13 19.87 73.13 C12.75 73.13
									 0.68 72 0 64.35 L0 64.28 L0 62.7 L0 51.75 L0 50.25 C-0 44.78 9.98 42.38 19.87 42.38 C29.78 42.38
									 39.75 44.78 39.75 50.25 L39.75 51.75 Z" class="st1"/>
					</g>
					<g id="shape437-13" v:mID="437" v:groupContext="shape" v:layerMember="0" transform="translate(2.25,-2.25)">
						<title>Sheet.437</title>
						<path d="M17.63 60.38 C10.58 60.38 3.53 59.18 0 56.48 L0 64.88 L0 66.38 C0.53 72.6 13.2 73.13 17.63 73.13
									 C22.05 73.13 34.65 72.6 35.25 66.38 L35.25 64.88 L35.25 56.48 C31.73 59.18 24.68 60.38 17.63
									 60.38 Z" class="st2"/>
					</g>
					<g id="shape438-15" v:mID="438" v:groupContext="shape" v:layerMember="0" transform="translate(2.25,-17.25)">
						<title>Sheet.438</title>
						<ellipse cx="17.625" cy="67.5" rx="17.625" ry="5.625" class="st2"/>
					</g>
				</g>
				<g id="group439-17" transform="translate(0,-30)" v:mID="439" v:groupContext="group" v:layerMember="0">
					<title>Sheet.439</title>
					<g id="shape440-18" v:mID="440" v:groupContext="shape" v:layerMember="0">
						<title>Sheet.440</title>
						<path d="M39.75 51.75 L39.75 62.63 L39.75 64.28 L39.75 64.35 C39.08 72 27 73.13 19.87 73.13 C12.75 73.13
									 0.68 72 0 64.35 L0 64.28 L0 62.7 L0 51.75 L0 50.25 C-0 44.78 9.98 42.38 19.87 42.38 C29.78 42.38
									 39.75 44.78 39.75 50.25 L39.75 51.75 Z" class="st1"/>
					</g>
					<g id="shape441-20" v:mID="441" v:groupContext="shape" v:layerMember="0" transform="translate(2.25,-2.25)">
						<title>Sheet.441</title>
						<path d="M17.63 60.38 C10.58 60.38 3.53 59.18 0 56.48 L0 64.88 L0 66.38 C0.53 72.6 13.2 73.13 17.63 73.13
									 C22.05 73.13 34.65 72.6 35.25 66.38 L35.25 64.88 L35.25 56.48 C31.73 59.18 24.68 60.38 17.63
									 60.38 Z" class="st2"/>
					</g>
					<g id="shape442-22" v:mID="442" v:groupContext="shape" v:layerMember="0" transform="translate(2.25,-17.25)">
						<title>Sheet.442</title>
						<ellipse cx="17.625" cy="67.5" rx="17.625" ry="5.625" class="st2"/>
					</g>
				</g>
			</g>
		</g>
	</g>
</svg>
