<?xml version="1.0" encoding="UTF-8" standalone="no"?>
<!DOCTYPE svg PUBLIC "-//W3C//DTD SVG 1.1//EN" "http://www.w3.org/Graphics/SVG/1.1/DTD/svg11.dtd">
<!-- Generated by Microsoft Visio, SVG Export Database, mini 2 - ghosted.svg Page-1 -->
<svg xmlns="http://www.w3.org/2000/svg" xmlns:xlink="http://www.w3.org/1999/xlink" xmlns:ev="http://www.w3.org/2001/xml-events"
		xmlns:v="http://schemas.microsoft.com/visio/2003/SVGExtensions/" width="0.734375in" height="0.84375in"
		viewBox="0 0 52.875 60.75" xml:space="preserve" color-interpolation-filters="sRGB" class="st4">
	<v:documentProperties v:langID="4108" v:metric="true" v:viewMarkup="false"/>

	<style type="text/css">
	<![CDATA[
		.st1 {fill:#ffffff;stroke:none;stroke-linecap:butt;stroke-width:0.75}
		.st2 {fill:#9c9c9d;stroke:none;stroke-linecap:butt;stroke-width:0.75}
		.st3 {fill:#cccbcb;stroke:none;stroke-linecap:butt;stroke-width:0.75}
		.st4 {fill:none;fill-rule:evenodd;font-size:12px;overflow:visible;stroke-linecap:square;stroke-miterlimit:3}
	]]>
	</style>

	<g v:mID="0" v:index="1" v:groupContext="foregroundPage">
		<title>Page-1</title>
		<v:pageProperties v:drawingScale="0.0393701" v:pageScale="0.0393701" v:drawingUnits="24" v:shadowOffsetX="8.50394"
				v:shadowOffsetY="-8.50394"/>
		<v:layer v:name="symbols" v:index="0"/>
		<g id="group394-1" transform="translate(6.75,-8.0625)" v:mID="394" v:groupContext="group" v:layerMember="0">
			<title>Database, mini 2 - ghosted</title>
			<g id="group395-2" v:mID="395" v:groupContext="group" v:layerMember="0">
				<title>Sheet.395</title>
				<g id="shape396-3" v:mID="396" v:groupContext="shape" v:layerMember="0">
					<title>Sheet.396</title>
					<path d="M39.75 24.38 L39.75 22.88 C39.75 17.4 29.78 15 19.87 15 C9.98 15 0 17.4 0 22.88 L0 24.38 L0 50.32 L0
								 51.9 L0 51.98 C0.68 59.63 12.75 60.75 19.87 60.75 C27 60.75 39.08 59.63 39.75 51.98 L39.75 51.9
								 L39.75 50.25 L39.75 24.38 Z" class="st1"/>
				</g>
				<g id="shape397-5" v:mID="397" v:groupContext="shape" v:layerMember="0" transform="translate(2.25,-2.25)">
					<title>Sheet.397</title>
					<path d="M35.25 44.1 L35.25 52.5 L35.25 54 C34.72 60.23 22.05 60.75 17.63 60.75 C13.2 60.75 0.6 60.23 0 54 L0
								 52.5 L0 44.1 C3.53 46.8 10.58 48 17.63 48 C24.68 48 31.73 46.73 35.25 44.1 ZM17.63 33 C10.58 33
								 3.53 31.8 0 29.1 L0 37.5 L0 39 C0.53 45.22 13.2 45.75 17.63 45.75 C22.05 45.75 34.65 45.22 35.25
								 39 L35.25 37.5 L35.25 29.1 C31.73 31.73 24.68 33 17.63 33 ZM17.63 19.5 C7.88 19.5 0 22.05 0 25.13
								 C0 28.2 7.88 30.75 17.63 30.75 C27.37 30.75 35.25 28.2 35.25 25.13 C35.25 22.05 27.37 19.5 17.63
								 19.5 Z" class="st2"/>
				</g>
				<g id="group398-7" transform="translate(2.25,-2.25)" v:mID="398" v:groupContext="group" v:layerMember="0">
					<title>Sheet.398</title>
					<g id="shape399-8" v:mID="399" v:groupContext="shape" v:layerMember="0" transform="translate(0.15,-33.75)">
						<title>Sheet.399</title>
						<path d="M0.82 60.75 L7.2 54.3 C6.15 54.53 5.1 54.83 4.28 55.13 L0 59.4 C0.08 59.93 0.38 60.3 0.82 60.75 Z"
								class="st3"/>
					</g>
					<g id="shape400-10" v:mID="400" v:groupContext="shape" v:layerMember="0" transform="translate(2.4,-32.1)">
						<title>Sheet.400</title>
						<path d="M0 60.08 C0.45 60.3 0.9 60.53 1.42 60.75 L10.2 51.83 C9.37 51.9 8.55 51.98 7.8 52.13 L0 60.08 Z"
								class="st3"/>
					</g>
					<g id="shape401-12" v:mID="401" v:groupContext="shape" v:layerMember="0" transform="translate(0,-28.275)">
						<title>Sheet.401</title>
						<path d="M0.75 57.9 L0 58.65 L0 60.75 L2.1 58.58 C1.65 58.35 1.2 58.13 0.75 57.9 Z" class="st3"/>
					</g>
					<g id="shape402-14" v:mID="402" v:groupContext="shape" v:layerMember="0" transform="translate(5.55,-31.05)">
						<title>Sheet.402</title>
						<path d="M1.72 60.75 L11.78 50.55 C11.03 50.55 10.35 50.55 9.6 50.63 L0 60.3 C0.53 60.45 1.12 60.6 1.72 60.75
									 Z" class="st3"/>
					</g>
					<g id="shape403-16" v:mID="403" v:groupContext="shape" v:layerMember="0"
							transform="translate(3.39728E-14,-23.775)">
						<title>Sheet.403</title>
						<path d="M5.4 55.28 C4.87 55.13 4.27 54.98 3.82 54.75 L0 58.65 L0 60.75 L5.4 55.28 Z" class="st3"/>
					</g>
					<g id="shape404-18" v:mID="404" v:groupContext="shape" v:layerMember="0" transform="translate(0.075,-19.875)">
						<title>Sheet.404</title>
						<path d="M7.2 51.9 L0 59.18 C0.07 59.78 0.3 60.3 0.52 60.75 L9 52.2 C8.4 52.13 7.8 51.98 7.2 51.9 Z"
								class="st3"/>
					</g>
					<g id="shape405-20" v:mID="405" v:groupContext="shape" v:layerMember="0" transform="translate(9.225,-30.375)">
						<title>Sheet.405</title>
						<path d="M0 60.45 C0.6 60.53 1.2 60.68 1.87 60.75 L12.45 50.03 C11.77 49.95 11.1 49.95 10.42 49.95 L0 60.45
									 Z" class="st3"/>
					</g>
					<g id="shape406-22" v:mID="406" v:groupContext="shape" v:layerMember="0" transform="translate(1.725,-17.7)">
						<title>Sheet.406</title>
						<path d="M11.32 50.55 C10.65 50.48 10.05 50.48 9.37 50.4 L0 59.85 C0.37 60.15 0.75 60.45 1.2 60.75 L11.32
									 50.55 Z" class="st3"/>
					</g>
					<g id="shape407-24" v:mID="407" v:groupContext="shape" v:layerMember="0" transform="translate(13.2,-30.075)">
						<title>Sheet.407</title>
						<path d="M1.95 60.75 L12.45 50.18 C11.85 50.1 11.25 50.03 10.57 49.88 L0 60.68 C0.68 60.68 1.28 60.75 1.95
									 60.75 Z" class="st3"/>
					</g>
					<g id="shape408-26" v:mID="408" v:groupContext="shape" v:layerMember="0"
							transform="translate(1.76734E-14,-14.775)">
						<title>Sheet.408</title>
						<path d="M0 60.75 L1.12 59.63 C0.67 59.4 0.3 59.18 0 58.88 L0 60.75 Z" class="st3"/>
					</g>
					<g id="shape409-28" v:mID="409" v:groupContext="shape" v:layerMember="0" transform="translate(4.5,-16.425)">
						<title>Sheet.409</title>
						<path d="M10.8 49.35 L0 60.23 C0.53 60.45 1.05 60.6 1.57 60.75 L12.9 49.43 C12.22 49.43 11.47 49.43 10.8
									 49.35 Z" class="st3"/>
					</g>
					<g id="shape410-30" v:mID="410" v:groupContext="shape" v:layerMember="0" transform="translate(17.475,-30)">
						<title>Sheet.410</title>
						<path d="M0 60.75 C0.08 60.75 0.08 60.75 0.15 60.75 C0.83 60.75 1.5 60.75 2.18 60.68 L11.85 50.93 C11.33
									 50.78 10.73 50.63 10.13 50.48 L0 60.75 Z" class="st3"/>
					</g>
					<g id="shape411-32" v:mID="411" v:groupContext="shape" v:layerMember="0"
							transform="translate(7.49401E-16,-10.275)">
						<title>Sheet.411</title>
						<path d="M4.27 56.48 C3.75 56.33 3.22 56.1 2.7 55.88 L0 58.65 L0 60.75 L4.27 56.48 Z" class="st3"/>
					</g>
					<g id="shape412-34" v:mID="412" v:groupContext="shape" v:layerMember="0" transform="translate(22.2,-30.225)">
						<title>Sheet.412</title>
						<path d="M0 60.75 C0.83 60.68 1.57 60.6 2.4 60.53 L10.5 52.43 C10.05 52.2 9.6 51.98 9 51.75 L0 60.75 Z"
								class="st3"/>
					</g>
					<g id="shape413-36" v:mID="413" v:groupContext="shape" v:layerMember="0"
							transform="translate(4.996E-16,-5.925)">
						<title>Sheet.413</title>
						<path d="M6.15 52.65 L0 58.8 L0 59.93 C0 60.23 0.08 60.45 0.15 60.75 L7.8 53.03 C7.27 52.95 6.67 52.8 6.15
									 52.65 Z" class="st3"/>
					</g>
					<g id="shape414-38" v:mID="414" v:groupContext="shape" v:layerMember="0" transform="translate(7.95,-15.6)">
						<title>Sheet.414</title>
						<path d="M11.85 48.53 L0 60.45 C0.6 60.6 1.2 60.68 1.8 60.75 L14.1 48.38 C13.35 48.45 12.6 48.53 11.85 48.53
									 Z" class="st3"/>
					</g>
					<g id="shape415-40" v:mID="415" v:groupContext="shape" v:layerMember="0" transform="translate(11.85,-15.15)">
						<title>Sheet.415</title>
						<path d="M15.38 47.33 C14.55 47.48 13.73 47.63 12.82 47.7 L0 60.6 C0.68 60.68 1.35 60.75 1.95 60.75 L15.38
									 47.33 Z" class="st3"/>
					</g>
					<g id="shape416-42" v:mID="416" v:groupContext="shape" v:layerMember="0" transform="translate(0.975,-3.3)">
						<title>Sheet.416</title>
						<path d="M1.05 60.75 L10.73 51 C10.13 50.93 9.45 50.85 8.85 50.78 L0 59.7 C0.3 60.08 0.68 60.45 1.05 60.75
									 Z" class="st3"/>
					</g>
					<g id="shape417-44" v:mID="417" v:groupContext="shape" v:layerMember="0" transform="translate(27.375,-30.975)">
						<title>Sheet.417</title>
						<path d="M2.92 60 L7.65 55.2 C7.42 54.83 7.12 54.45 6.67 54.08 L0 60.75 C1.12 60.53 2.02 60.3 2.92 60 Z"
								class="st3"/>
					</g>
					<g id="shape418-46" v:mID="418" v:groupContext="shape" v:layerMember="0" transform="translate(3.525,-1.725)">
						<title>Sheet.418</title>
						<path d="M10.42 49.58 L0 60.08 C0.45 60.3 0.97 60.53 1.5 60.75 L12.45 49.73 C11.77 49.65 11.1 49.65 10.42
									 49.58 Z" class="st3"/>
					</g>
					<g id="shape419-48" v:mID="419" v:groupContext="shape" v:layerMember="0" transform="translate(16.05,-15)">
						<title>Sheet.419</title>
						<path d="M0 60.75 C0.6 60.75 1.13 60.75 1.58 60.75 C1.73 60.75 1.95 60.75 2.1 60.75 L17.78 45 C16.73 45.53
									 15.6 46.05 14.25 46.43 L0 60.75 Z" class="st3"/>
					</g>
					<g id="shape420-50" v:mID="420" v:groupContext="shape" v:layerMember="0" transform="translate(20.625,-15.075)">
						<title>Sheet.420</title>
						<path d="M14.63 46.05 L0 60.75 C0.75 60.75 1.5 60.68 2.25 60.6 L14.63 48.15 L14.63 46.05 Z" class="st3"/>
					</g>
					<g id="shape421-52" v:mID="421" v:groupContext="shape" v:layerMember="0" transform="translate(6.825,-0.825)">
						<title>Sheet.421</title>
						<path d="M11.47 48.83 L0 60.38 C0.6 60.53 1.13 60.68 1.73 60.75 L13.73 48.75 C12.9 48.75 12.23 48.83 11.47
									 48.83 Z" class="st3"/>
					</g>
					<g id="shape422-54" v:mID="422" v:groupContext="shape" v:layerMember="0" transform="translate(25.575,-15.525)">
						<title>Sheet.422</title>
						<path d="M9.67 53.1 L9.67 53.03 L9.67 51 L0 60.75 C0.9 60.6 1.8 60.45 2.62 60.23 L9.67 53.1 Z" class="st3"/>
					</g>
					<g id="shape423-56" v:mID="423" v:groupContext="shape" v:layerMember="0" transform="translate(10.5,-0.225)">
						<title>Sheet.423</title>
						<path d="M14.93 47.7 C14.18 47.85 13.35 47.93 12.53 48 L0 60.53 C0.67 60.6 1.28 60.68 1.88 60.75 L14.93 47.7
									 Z" class="st3"/>
					</g>
					<g id="shape424-58" v:mID="424" v:groupContext="shape" v:layerMember="0" transform="translate(14.925,0)">
						<title>Sheet.424</title>
						<path d="M13.65 46.88 L0 60.68 C0.75 60.68 1.43 60.75 2.03 60.75 L16.58 45.98 C15.75 46.35 14.7 46.58 13.65
									 46.88 Z" class="st3"/>
					</g>
					<g id="shape425-60" v:mID="425" v:groupContext="shape" v:layerMember="0" transform="translate(32.475,-17.775)">
						<title>Sheet.425</title>
						<path d="M2.33 58.43 L0 60.75 C0.98 60.08 1.8 59.33 2.33 58.43 Z" class="st3"/>
					</g>
					<g id="shape426-62" v:mID="426" v:groupContext="shape" v:layerMember="0"
							transform="translate(19.35,-1.98952E-13)">
						<title>Sheet.426</title>
						<path d="M15.9 46.73 L15.9 44.63 L0 60.75 C0.67 60.75 1.42 60.68 2.25 60.68 L15.9 46.73 Z" class="st3"/>
					</g>
					<g id="shape427-64" v:mID="427" v:groupContext="shape" v:layerMember="0" transform="translate(24.225,-0.375)">
						<title>Sheet.427</title>
						<path d="M11.03 51.68 L11.03 49.58 L0 60.75 C0.83 60.68 1.65 60.53 2.48 60.38 L11.03 51.68 Z" class="st3"/>
					</g>
					<g id="shape428-66" v:mID="428" v:groupContext="shape" v:layerMember="0" transform="translate(30,-1.575)">
						<title>Sheet.428</title>
						<path d="M5.25 55.58 L5.25 55.35 L0 60.75 C2.78 59.7 5.03 58.13 5.25 55.58 Z" class="st3"/>
					</g>
				</g>
			</g>
		</g>
	</g>
</svg>
