<?xml version="1.0" encoding="UTF-8" standalone="no"?>
<!DOCTYPE svg PUBLIC "-//W3C//DTD SVG 1.1//EN" "http://www.w3.org/Graphics/SVG/1.1/DTD/svg11.dtd">
<!-- Generated by Microsoft Visio, SVG Export Database, Public Folder.svg Page-1 -->
<svg xmlns="http://www.w3.org/2000/svg" xmlns:xlink="http://www.w3.org/1999/xlink" xmlns:ev="http://www.w3.org/2001/xml-events"
		xmlns:v="http://schemas.microsoft.com/visio/2003/SVGExtensions/" width="1.01172in" height="1.01562in"
		viewBox="0 0 72.8437 73.125" xml:space="preserve" color-interpolation-filters="sRGB" class="st5">
	<v:documentProperties v:langID="4108" v:metric="true" v:viewMarkup="false"/>

	<style type="text/css">
	<![CDATA[
		.st1 {fill:#ffffff;stroke:none;stroke-linecap:butt;stroke-width:0.75}
		.st2 {fill:#515251;stroke:none;stroke-linecap:butt;stroke-width:0.75}
		.st3 {fill:#515150;stroke:none;stroke-linecap:butt;stroke-width:0.75}
		.st4 {fill:#525352;stroke:none;stroke-linecap:butt;stroke-width:0.75}
		.st5 {fill:none;fill-rule:evenodd;font-size:12px;overflow:visible;stroke-linecap:square;stroke-miterlimit:3}
	]]>
	</style>

	<g v:mID="0" v:index="1" v:groupContext="foregroundPage">
		<title>Page-1</title>
		<v:pageProperties v:drawingScale="0.0393701" v:pageScale="0.0393701" v:drawingUnits="24" v:shadowOffsetX="8.50394"
				v:shadowOffsetY="-8.50394"/>
		<v:layer v:name="symbols" v:index="0"/>
		<g id="group643-1" transform="translate(7.89375,-7.275)" v:mID="643" v:groupContext="group" v:layerMember="0">
			<title>Database, Public Folder</title>
			<g id="group644-2" v:mID="644" v:groupContext="group" v:layerMember="0">
				<title>Sheet.644</title>
				<g id="group645-3" v:mID="645" v:groupContext="group" v:layerMember="0">
					<title>Sheet.645</title>
					<g id="group646-4" transform="translate(2.8777E-13,-5.25)" v:mID="646" v:groupContext="group" v:layerMember="0">
						<title>Sheet.646</title>
						<g id="shape647-5" v:mID="647" v:groupContext="shape" v:layerMember="0">
							<title>Sheet.647</title>
							<path d="M39.75 29.25 L39.75 62.62 L39.75 64.27 L39.75 64.35 C39.07 72 27 73.12 19.87 73.12 C12.75 73.12
										 0.68 72 0 64.35 L0 64.27 L0 62.7 L0 29.25 L0 27.75 C0 22.27 9.98 19.87 19.87 19.87 C29.78
										 19.87 39.75 22.27 39.75 27.75 L39.75 29.25 Z" class="st1"/>
						</g>
						<g id="shape648-7" v:mID="648" v:groupContext="shape" v:layerMember="0" transform="translate(2.25,-2.25)">
							<title>Sheet.648</title>
							<path d="M17.62 37.87 C10.57 37.87 3.53 36.67 0 33.97 L0 64.87 L0 66.37 C0.53 72.6 13.2 73.12 17.62 73.12
										 C22.05 73.12 34.65 72.6 35.25 66.37 L35.25 64.87 L35.25 33.97 C31.72 36.67 24.67 37.87 17.62
										 37.87 Z" class="st2"/>
						</g>
						<g id="shape649-9" v:mID="649" v:groupContext="shape" v:layerMember="0" transform="translate(2.25,-39.75)">
							<title>Sheet.649</title>
							<ellipse cx="17.625" cy="67.5" rx="17.625" ry="5.625" class="st3"/>
						</g>
					</g>
					<g id="group650-11" transform="translate(22.5,1.42109E-14)" v:mID="650" v:groupContext="group"
							v:layerMember="0">
						<title>Sheet.650</title>
						<g id="shape651-12" v:mID="651" v:groupContext="shape" v:layerMember="0">
							<title>Sheet.651</title>
							<path d="M30.45 41.62 L22.58 41.62 C20.92 41.62 19.95 42.52 19.05 43.35 L15.15 46.95 L4.05 46.95 C1.8
										 46.95 0 48.75 0 51 L0 73.12 L34.5 73.12 L34.5 49.87 L34.5 46.95 L34.5 45.9 C34.5 43.57 32.63
										 41.62 30.45 41.62 Z" class="st1"/>
						</g>
						<g id="shape652-14" v:mID="652" v:groupContext="shape" v:layerMember="0"
								transform="translate(17.775,-25.5)">
							<title>Sheet.652</title>
							<path d="M4.8 69.37 C4.12 69.37 3.6 69.67 2.85 70.5 L0 73.12 L14.47 73.12 L14.47 71.32 C14.47 70.35 13.72
										 69.37 12.67 69.37 L4.8 69.37 Z" class="st4"/>
						</g>
						<g id="shape653-16" v:mID="653" v:groupContext="shape" v:layerMember="0" transform="translate(2.25,-2.25)">
							<title>Sheet.653</title>
							<path d="M1.8 51.45 C0.82 51.45 0 52.27 0 53.25 L0 73.12 L30 73.12 L30 54.52 L30 53.17 L30 51.37 L1.8
										 51.37 L1.8 51.45 Z" class="st4"/>
						</g>
					</g>
				</g>
				<g id="shape654-18" v:mID="654" v:groupContext="shape" v:layerMember="0" transform="translate(31.5,-8.1)">
					<title>Sheet.654</title>
					<path d="M12.23 63.22 L10.65 64.8 L13.8 64.8 L9.53 69.07 C9.15 68.77 8.7 68.62 8.18 68.62 C7.65 68.62 7.2 68.77
								 6.83 69.07 L2.55 64.8 L5.7 64.8 L4.28 63.22 L0 63.22 L0 67.5 L1.58 69.07 L1.58 65.92 L6.08 70.42
								 C6 70.5 6 70.65 6 70.87 C6 72.15 6.98 73.12 8.25 73.12 C9.53 73.12 10.5 72.15 10.5 70.87 C10.5 70.72
								 10.5 70.5 10.43 70.35 L14.93 65.85 L14.93 69 L16.5 67.42 L16.5 63.22 L12.23 63.22 Z" class="st1"/>
				</g>
			</g>
		</g>
	</g>
</svg>
