<?xml version="1.0" encoding="UTF-8" standalone="no"?>
<!DOCTYPE svg PUBLIC "-//W3C//DTD SVG 1.1//EN" "http://www.w3.org/Graphics/SVG/1.1/DTD/svg11.dtd">
<!-- Generated by Microsoft Visio, SVG Export Database, mini 1 - ghosted.svg Page-1 -->
<svg xmlns="http://www.w3.org/2000/svg" xmlns:xlink="http://www.w3.org/1999/xlink" xmlns:ev="http://www.w3.org/2001/xml-events"
		xmlns:v="http://schemas.microsoft.com/visio/2003/SVGExtensions/" width="0.765625in" height="0.640625in"
		viewBox="0 0 55.125 46.125" xml:space="preserve" color-interpolation-filters="sRGB" class="st4">
	<v:documentProperties v:langID="4108" v:metric="true" v:viewMarkup="false"/>

	<style type="text/css">
	<![CDATA[
		.st1 {fill:#ffffff;stroke:none;stroke-linecap:butt;stroke-width:0.75}
		.st2 {fill:#9b9b9b;stroke:none;stroke-linecap:butt;stroke-width:0.75}
		.st3 {fill:#cccbcb;stroke:none;stroke-linecap:butt;stroke-width:0.75}
		.st4 {fill:none;fill-rule:evenodd;font-size:12px;overflow:visible;stroke-linecap:square;stroke-miterlimit:3}
	]]>
	</style>

	<g v:mID="0" v:index="1" v:groupContext="foregroundPage">
		<title>Page-1</title>
		<v:pageProperties v:drawingScale="0.0393701" v:pageScale="0.0393701" v:drawingUnits="24" v:shadowOffsetX="8.50394"
				v:shadowOffsetY="-8.50394"/>
		<v:layer v:name="symbols" v:index="0"/>
		<g id="group341-1" transform="translate(7.725,-7.6875)" v:mID="341" v:groupContext="group" v:layerMember="0">
			<title>Database, mini 1 - ghosted</title>
			<g id="group342-2" v:mID="342" v:groupContext="group" v:layerMember="0">
				<title>Sheet.342</title>
				<g id="shape343-3" v:mID="343" v:groupContext="shape" v:layerMember="0">
					<title>Sheet.343</title>
					<path d="M39.75 24.75 L39.75 35.63 L39.75 37.28 L39.75 37.35 C39.08 45 27 46.13 19.87 46.13 C12.75 46.13 0.68
								 45 0 37.35 L0 37.28 L0 35.7 L0 24.75 L0 23.25 C-0 17.78 9.98 15.38 19.87 15.38 C29.78 15.38 39.75
								 17.78 39.75 23.25 L39.75 24.75 Z" class="st1"/>
				</g>
				<g id="shape344-5" v:mID="344" v:groupContext="shape" v:layerMember="0" transform="translate(2.25,-2.25)">
					<title>Sheet.344</title>
					<path d="M17.63 33.38 C10.58 33.38 3.53 32.18 0 29.48 L0 37.88 L0 39.38 C0.53 45.6 13.2 46.13 17.63 46.13 C22.05
								 46.13 34.65 45.6 35.25 39.38 L35.25 37.88 L35.25 29.48 C31.73 32.18 24.68 33.38 17.63 33.38 Z"
							class="st2"/>
				</g>
				<g id="shape345-7" v:mID="345" v:groupContext="shape" v:layerMember="0" transform="translate(2.25,-17.25)">
					<title>Sheet.345</title>
					<ellipse cx="17.625" cy="40.5" rx="17.625" ry="5.625" class="st2"/>
				</g>
				<g id="group346-9" transform="translate(2.25,-2.25)" v:mID="346" v:groupContext="group" v:layerMember="0">
					<title>Sheet.346</title>
					<g id="shape347-10" v:mID="347" v:groupContext="shape" v:layerMember="0" transform="translate(0.15,-18.825)">
						<title>Sheet.347</title>
						<path d="M0 44.93 C0.15 45.38 0.45 45.75 0.9 46.13 L7.27 39.68 C6.22 39.9 5.17 40.2 4.35 40.5 L0 44.93 Z"
								class="st3"/>
					</g>
					<g id="shape348-12" v:mID="348" v:groupContext="shape" v:layerMember="0" transform="translate(2.4,-17.1)">
						<title>Sheet.348</title>
						<path d="M1.43 46.13 L10.28 37.2 C9.45 37.28 8.63 37.35 7.88 37.5 L0 45.45 C0.45 45.68 0.9 45.9 1.43 46.13
									 Z" class="st3"/>
					</g>
					<g id="shape349-14" v:mID="349" v:groupContext="shape" v:layerMember="0" transform="translate(0,-13.275)">
						<title>Sheet.349</title>
						<path d="M2.1 44.03 C1.57 43.8 1.13 43.58 0.75 43.28 L0 44.03 L0 46.13 L2.1 44.03 Z" class="st3"/>
					</g>
					<g id="shape350-16" v:mID="350" v:groupContext="shape" v:layerMember="0"
							transform="translate(3.39728E-14,-8.775)">
						<title>Sheet.350</title>
						<path d="M3.82 40.2 L0 44.03 L0 46.13 L5.4 40.65 C4.87 40.58 4.35 40.35 3.82 40.2 Z" class="st3"/>
					</g>
					<g id="shape351-18" v:mID="351" v:groupContext="shape" v:layerMember="0" transform="translate(5.625,-16.05)">
						<title>Sheet.351</title>
						<path d="M0 45.68 C0.53 45.83 1.12 45.98 1.65 46.13 L11.78 35.93 C11.03 35.93 10.35 35.93 9.6 36 L0 45.68
									 Z" class="st3"/>
					</g>
					<g id="shape352-20" v:mID="352" v:groupContext="shape" v:layerMember="0" transform="translate(9.225,-15.375)">
						<title>Sheet.352</title>
						<path d="M1.87 46.13 L12.45 35.4 C11.77 35.33 11.1 35.33 10.42 35.33 L0 45.83 C0.6 45.9 1.2 46.05 1.87 46.13
									 Z" class="st3"/>
					</g>
					<g id="shape353-22" v:mID="353" v:groupContext="shape" v:layerMember="0"
							transform="translate(9.99201E-16,-4.875)">
						<title>Sheet.353</title>
						<path d="M9.08 37.58 C8.48 37.5 7.88 37.35 7.28 37.28 L0 44.55 C0.08 45.15 0.3 45.68 0.6 46.13 L9.08 37.58
									 Z" class="st3"/>
					</g>
					<g id="shape354-24" v:mID="354" v:groupContext="shape" v:layerMember="0" transform="translate(1.725,-2.7)">
						<title>Sheet.354</title>
						<path d="M9.45 35.7 L0 45.23 C0.37 45.53 0.75 45.83 1.2 46.13 L11.32 35.93 C10.72 35.85 10.13 35.78 9.45
									 35.7 Z" class="st3"/>
					</g>
					<g id="shape355-26" v:mID="355" v:groupContext="shape" v:layerMember="0" transform="translate(13.2,-15)">
						<title>Sheet.355</title>
						<path d="M0 45.98 C0.67 46.05 1.35 46.05 2.03 46.13 L12.53 35.55 C11.92 35.48 11.33 35.33 10.65 35.25 L0
									 45.98 Z" class="st3"/>
					</g>
					<g id="shape356-28" v:mID="356" v:groupContext="shape" v:layerMember="0" transform="translate(17.55,-15)">
						<title>Sheet.356</title>
						<path d="M0 46.13 C0 46.13 0.08 46.13 0.08 46.13 C0.75 46.13 1.5 46.13 2.18 46.05 L11.85 36.3 C11.33 36.15
									 10.73 36 10.13 35.85 L0 46.13 Z" class="st3"/>
					</g>
					<g id="shape357-30" v:mID="357" v:groupContext="shape" v:layerMember="0" transform="translate(4.575,-1.425)">
						<title>Sheet.357</title>
						<path d="M10.8 34.73 L0 45.6 C0.52 45.83 1.05 45.98 1.57 46.13 L12.82 34.8 C12.15 34.8 11.47 34.8 10.8 34.73
									 Z" class="st3"/>
					</g>
					<g id="shape358-32" v:mID="358" v:groupContext="shape" v:layerMember="0" transform="translate(8.025,-0.6)">
						<title>Sheet.358</title>
						<path d="M14.02 33.83 C13.27 33.9 12.53 33.9 11.77 33.98 L0 45.83 C0.6 45.98 1.2 46.05 1.8 46.13 L14.02 33.83
									 Z" class="st3"/>
					</g>
					<g id="shape359-34" v:mID="359" v:groupContext="shape" v:layerMember="0" transform="translate(22.125,-15.225)">
						<title>Sheet.359</title>
						<path d="M2.48 45.9 L10.5 37.8 C10.05 37.58 9.6 37.35 9 37.13 L0 46.13 C0.9 46.05 1.72 45.98 2.48 45.9 Z"
								class="st3"/>
					</g>
					<g id="shape360-36" v:mID="360" v:groupContext="shape" v:layerMember="0" transform="translate(11.85,-0.15)">
						<title>Sheet.360</title>
						<path d="M12.9 33.08 L0 45.98 C0.68 46.05 1.35 46.13 1.95 46.13 L15.38 32.63 C14.55 32.85 13.73 33 12.9 33.08
									 Z" class="st3"/>
					</g>
					<g id="shape361-38" v:mID="361" v:groupContext="shape" v:layerMember="0" transform="translate(27.525,-15.975)">
						<title>Sheet.361</title>
						<path d="M2.85 45.38 L7.58 40.65 C7.35 40.28 7.05 39.83 6.6 39.45 L0 46.13 C0.98 45.9 1.95 45.68 2.85 45.38
									 Z" class="st3"/>
					</g>
					<g id="shape362-40" v:mID="362" v:groupContext="shape" v:layerMember="0" transform="translate(16.125,0)">
						<title>Sheet.362</title>
						<path d="M14.25 31.8 L0 46.13 C0.6 46.13 1.13 46.13 1.5 46.13 C1.65 46.13 1.88 46.13 2.03 46.13 L17.7 30.38
									 C16.73 30.9 15.53 31.35 14.25 31.8 Z" class="st3"/>
					</g>
					<g id="shape363-42" v:mID="363" v:groupContext="shape" v:layerMember="0" transform="translate(20.625,-0.075)">
						<title>Sheet.363</title>
						<path d="M14.63 33.53 L14.63 31.43 L0 46.13 C0.75 46.13 1.5 46.05 2.25 45.98 L14.63 33.53 Z" class="st3"/>
					</g>
					<g id="shape364-44" v:mID="364" v:groupContext="shape" v:layerMember="0" transform="translate(25.875,-0.6)">
						<title>Sheet.364</title>
						<path d="M9.37 36.6 L0 46.13 C0.9 45.98 1.8 45.75 2.7 45.53 L9.37 38.78 L9.37 38.48 L9.37 36.6 Z"
								class="st3"/>
					</g>
					<g id="shape365-46" v:mID="365" v:groupContext="shape" v:layerMember="0" transform="translate(32.55,-2.85)">
						<title>Sheet.365</title>
						<path d="M2.17 43.88 L0 46.13 C0.98 45.53 1.73 44.78 2.17 43.88 Z" class="st3"/>
					</g>
				</g>
			</g>
		</g>
	</g>
</svg>
