<?xml version="1.0" encoding="UTF-8" standalone="no"?>
<!DOCTYPE svg PUBLIC "-//W3C//DTD SVG 1.1//EN" "http://www.w3.org/Graphics/SVG/1.1/DTD/svg11.dtd">
<!-- Generated by Microsoft Visio, SVG Export Database, mini 3 - blue.svg Page-1 -->
<svg xmlns="http://www.w3.org/2000/svg" xmlns:xlink="http://www.w3.org/1999/xlink" xmlns:ev="http://www.w3.org/2001/xml-events"
		xmlns:v="http://schemas.microsoft.com/visio/2003/SVGExtensions/" width="0.75in" height="1.01563in" viewBox="0 0 54 73.125"
		xml:space="preserve" color-interpolation-filters="sRGB" class="st3">
	<v:documentProperties v:langID="4108" v:metric="true" v:viewMarkup="false"/>

	<style type="text/css">
	<![CDATA[
		.st1 {fill:#ffffff;stroke:none;stroke-linecap:butt;stroke-width:0.75}
		.st2 {fill:#2072b8;stroke:none;stroke-linecap:butt;stroke-width:0.75}
		.st3 {fill:none;fill-rule:evenodd;font-size:12px;overflow:visible;stroke-linecap:square;stroke-miterlimit:3}
	]]>
	</style>

	<g v:mID="0" v:index="1" v:groupContext="foregroundPage">
		<title>Page-1</title>
		<v:pageProperties v:drawingScale="0.0393701" v:pageScale="0.0393701" v:drawingUnits="24" v:shadowOffsetX="8.50394"
				v:shadowOffsetY="-8.50394"/>
		<v:layer v:name="symbols" v:index="0"/>
		<g id="group443-1" transform="translate(7.125,-6.1875)" v:mID="443" v:groupContext="group" v:layerMember="0">
			<title>Database, mini 3 - blue</title>
			<g id="group444-2" v:mID="444" v:groupContext="group" v:layerMember="0">
				<title>Sheet.444</title>
				<g id="shape445-3" v:mID="445" v:groupContext="shape" v:layerMember="0">
					<title>Sheet.445</title>
					<path d="M39.75 21.75 L39.75 20.25 C39.75 14.78 29.78 12.38 19.87 12.38 C9.98 12.38 0 14.78 0 20.25 L0 21.75
								 L0 62.7 L0 64.28 L0 64.35 C0.68 72 12.75 73.13 19.87 73.13 C27 73.13 39.08 72 39.75 64.35 L39.75
								 64.28 L39.75 62.63 L39.75 21.75 Z" class="st1"/>
				</g>
				<g id="shape446-5" v:mID="446" v:groupContext="shape" v:layerMember="0" transform="translate(2.25,-2.25)">
					<title>Sheet.446</title>
					<path d="M17.63 60.38 C10.58 60.38 3.53 59.18 0 56.48 L0 64.88 L0 66.38 C0.53 72.6 13.2 73.13 17.63 73.13 C22.05
								 73.13 34.65 72.6 35.25 66.38 L35.25 64.88 L35.25 56.48 C31.73 59.1 24.68 60.38 17.63 60.38 Z"
							class="st2"/>
				</g>
				<g id="shape447-7" v:mID="447" v:groupContext="shape" v:layerMember="0" transform="translate(2.25,-17.25)">
					<title>Sheet.447</title>
					<path d="M17.63 60.38 C10.58 60.38 3.53 59.18 0 56.48 L0 64.88 L0 66.38 C0.53 72.6 13.2 73.13 17.63 73.13 C22.05
								 73.13 34.65 72.6 35.25 66.38 L35.25 64.88 L35.25 56.48 C31.73 59.1 24.68 60.38 17.63 60.38 Z"
							class="st2"/>
				</g>
				<g id="shape448-9" v:mID="448" v:groupContext="shape" v:layerMember="0" transform="translate(2.25,-32.25)">
					<title>Sheet.448</title>
					<path d="M17.63 60.38 C10.58 60.38 3.53 59.18 0 56.48 L0 64.88 L0 66.38 C0.53 72.6 13.2 73.13 17.63 73.13 C22.05
								 73.13 34.65 72.6 35.25 66.38 L35.25 64.88 L35.25 56.48 C31.73 59.1 24.68 60.38 17.63 60.38 Z"
							class="st2"/>
				</g>
				<g id="shape449-11" v:mID="449" v:groupContext="shape" v:layerMember="0" transform="translate(2.25,-47.25)">
					<title>Sheet.449</title>
					<ellipse cx="17.625" cy="67.5" rx="17.625" ry="5.625" class="st2"/>
				</g>
			</g>
		</g>
	</g>
</svg>
