<?xml version="1.0" encoding="UTF-8" standalone="no"?>
<!DOCTYPE svg PUBLIC "-//W3C//DTD SVG 1.1//EN" "http://www.w3.org/Graphics/SVG/1.1/DTD/svg11.dtd">
<!-- Generated by Microsoft Visio, SVG Export Database Cube - green.svg Page-1 -->
<svg xmlns="http://www.w3.org/2000/svg" xmlns:xlink="http://www.w3.org/1999/xlink" xmlns:ev="http://www.w3.org/2001/xml-events"
		xmlns:v="http://schemas.microsoft.com/visio/2003/SVGExtensions/" width="0.875in" height="0.984375in"
		viewBox="0 0 63 70.875" xml:space="preserve" color-interpolation-filters="sRGB" class="st3">
	<v:documentProperties v:langID="4108" v:metric="true" v:viewMarkup="false"/>

	<style type="text/css">
	<![CDATA[
		.st1 {fill:#ffffff;stroke:none;stroke-linecap:butt;stroke-width:0.75}
		.st2 {fill:#7fba42;stroke:none;stroke-linecap:butt;stroke-width:0.75}
		.st3 {fill:none;fill-rule:evenodd;font-size:12px;overflow:visible;stroke-linecap:square;stroke-miterlimit:3}
	]]>
	</style>

	<g v:mID="0" v:index="1" v:groupContext="foregroundPage">
		<title>Page-1</title>
		<v:pageProperties v:drawingScale="0.0393701" v:pageScale="0.0393701" v:drawingUnits="24" v:shadowOffsetX="8.50394"
				v:shadowOffsetY="-8.50394"/>
		<v:layer v:name="symbols" v:index="0"/>
		<g id="group194-1" transform="translate(6,-6.6)" v:mID="194" v:groupContext="group" v:layerMember="0">
			<title>Database Cube - green</title>
			<g id="group195-2" v:mID="195" v:groupContext="group" v:layerMember="0">
				<title>Sheet.195</title>
				<g id="shape196-3" v:mID="196" v:groupContext="shape" v:layerMember="0">
					<title>Sheet.196</title>
					<path d="M0 56.18 L0 27.6 L25.5 13.2 L51 27.98 L51 55.8 L25.5 70.88 L0 56.18 Z" class="st1"/>
				</g>
				<g id="group197-5" transform="translate(26.25,-3.225)" v:mID="197" v:groupContext="group" v:layerMember="0">
					<title>Sheet.197</title>
					<g id="shape198-6" v:mID="198" v:groupContext="shape" v:layerMember="0" transform="translate(16.5,-27.525)">
						<title>Sheet.198</title>
						<path d="M0 70.88 L6 67.28 L6 60.23 L0 63.75 L0 70.88 Z" class="st2"/>
					</g>
					<g id="shape199-8" v:mID="199" v:groupContext="shape" v:layerMember="0" transform="translate(8.25,-22.875)">
						<title>Sheet.199</title>
						<path d="M0 70.88 L6.75 66.98 L6.75 59.93 L0 63.83 L0 70.88 Z" class="st2"/>
					</g>
					<g id="shape200-10" v:mID="200" v:groupContext="shape" v:layerMember="0" transform="translate(0,-18)">
						<title>Sheet.200</title>
						<path d="M0 70.88 L6.75 66.98 L6.75 59.85 L0 63.75 L0 70.88 Z" class="st2"/>
					</g>
					<g id="shape201-12" v:mID="201" v:groupContext="shape" v:layerMember="0" transform="translate(16.5,-18.675)">
						<title>Sheet.201</title>
						<path d="M0 70.88 L6 67.43 L6 60.3 L0 63.75 L0 70.88 Z" class="st2"/>
					</g>
					<g id="shape202-14" v:mID="202" v:groupContext="shape" v:layerMember="0" transform="translate(8.25,-13.875)">
						<title>Sheet.202</title>
						<path d="M0 70.88 L6.75 66.98 L6.75 59.85 L0 63.75 L0 70.88 Z" class="st2"/>
					</g>
					<g id="shape203-16" v:mID="203" v:groupContext="shape" v:layerMember="0" transform="translate(0,-9.075)">
						<title>Sheet.203</title>
						<path d="M0 70.88 L6.75 66.98 L6.75 59.85 L0 63.75 L0 70.88 Z" class="st2"/>
					</g>
					<g id="shape204-18" v:mID="204" v:groupContext="shape" v:layerMember="0" transform="translate(16.5,-9.525)">
						<title>Sheet.204</title>
						<path d="M0 70.88 L6 67.35 L6 60.23 L0 63.75 L0 70.88 Z" class="st2"/>
					</g>
					<g id="shape205-20" v:mID="205" v:groupContext="shape" v:layerMember="0" transform="translate(8.25,-4.725)">
						<title>Sheet.205</title>
						<path d="M0 70.88 L6.75 66.9 L6.75 59.78 L0 63.68 L0 70.88 Z" class="st2"/>
					</g>
					<g id="shape206-22" v:mID="206" v:groupContext="shape" v:layerMember="0">
						<title>Sheet.206</title>
						<path d="M0 70.88 L6.75 66.98 L6.75 59.85 L0 63.75 L0 70.88 Z" class="st2"/>
					</g>
				</g>
				<g id="group207-24" transform="translate(2.25,-3.075)" v:mID="207" v:groupContext="group" v:layerMember="0">
					<title>Sheet.207</title>
					<g id="shape208-25" v:mID="208" v:groupContext="shape" v:layerMember="0"
							transform="translate(-1.1241E-13,-27.6)">
						<title>Sheet.208</title>
						<path d="M6 70.88 L0 67.28 L0 60.3 L6 63.75 L6 70.88 Z" class="st2"/>
					</g>
					<g id="shape209-27" v:mID="209" v:groupContext="shape" v:layerMember="0" transform="translate(7.5,-22.95)">
						<title>Sheet.209</title>
						<path d="M6.75 70.88 L0 66.98 L0 59.93 L6.75 63.9 L6.75 70.88 Z" class="st2"/>
					</g>
					<g id="shape210-29" v:mID="210" v:groupContext="shape" v:layerMember="0" transform="translate(15.75,-18.075)">
						<title>Sheet.210</title>
						<path d="M6.75 70.88 L0 66.98 L0 59.85 L6.75 63.75 L6.75 70.88 Z" class="st2"/>
					</g>
					<g id="shape211-31" v:mID="211" v:groupContext="shape" v:layerMember="0"
							transform="translate(-1.1241E-13,-18.75)">
						<title>Sheet.211</title>
						<path d="M6 70.88 L0 67.43 L0 60.3 L6 63.75 L6 70.88 Z" class="st2"/>
					</g>
					<g id="shape212-33" v:mID="212" v:groupContext="shape" v:layerMember="0" transform="translate(7.5,-13.95)">
						<title>Sheet.212</title>
						<path d="M6.75 70.88 L0 66.98 L0 59.85 L6.75 63.75 L6.75 70.88 Z" class="st2"/>
					</g>
					<g id="shape213-35" v:mID="213" v:groupContext="shape" v:layerMember="0" transform="translate(15.75,-9.15)">
						<title>Sheet.213</title>
						<path d="M6.75 70.88 L0 66.98 L0 59.85 L6.75 63.75 L6.75 70.88 Z" class="st2"/>
					</g>
					<g id="shape214-37" v:mID="214" v:groupContext="shape" v:layerMember="0"
							transform="translate(-1.1241E-13,-9.6)">
						<title>Sheet.214</title>
						<path d="M6 70.88 L0 67.35 L0 60.23 L6 63.75 L6 70.88 Z" class="st2"/>
					</g>
					<g id="shape215-39" v:mID="215" v:groupContext="shape" v:layerMember="0" transform="translate(7.5,-4.8)">
						<title>Sheet.215</title>
						<path d="M6.75 70.88 L0 66.9 L0 59.78 L6.75 63.75 L6.75 70.88 Z" class="st2"/>
					</g>
					<g id="shape216-41" v:mID="216" v:groupContext="shape" v:layerMember="0"
							transform="translate(15.75,-1.84741E-13)">
						<title>Sheet.216</title>
						<path d="M6.75 70.88 L0 66.9 L0 59.78 L6.75 63.75 L6.75 70.88 Z" class="st2"/>
					</g>
				</g>
				<g id="group217-43" transform="translate(3.675,-29.85)" v:mID="217" v:groupContext="group" v:layerMember="0">
					<title>Sheet.217</title>
					<g id="shape218-44" v:mID="218" v:groupContext="shape" v:layerMember="0"
							transform="translate(2.18825E-13,-9.075)">
						<title>Sheet.218</title>
						<path d="M0 67.28 L6.22 63.75 L12.45 67.28 L6.22 70.88 L0 67.28 Z" class="st2"/>
					</g>
					<g id="shape219-46" v:mID="219" v:groupContext="shape" v:layerMember="0" transform="translate(7.95,-13.65)">
						<title>Sheet.219</title>
						<path d="M0 67.35 L6 63.83 L12.15 67.35 L6.08 70.88 L0 67.35 Z" class="st2"/>
					</g>
					<g id="shape220-48" v:mID="220" v:groupContext="shape" v:layerMember="0" transform="translate(15.6,-18.075)">
						<title>Sheet.220</title>
						<path d="M0 67.28 L6.23 63.68 L12.38 67.28 L6.23 70.88 L0 67.28 Z" class="st2"/>
					</g>
					<g id="shape221-50" v:mID="221" v:groupContext="shape" v:layerMember="0" transform="translate(7.8,-4.5)">
						<title>Sheet.221</title>
						<path d="M0 67.2 L6.23 63.68 L12.38 67.2 L6.15 70.88 L0 67.2 Z" class="st2"/>
					</g>
					<g id="shape222-52" v:mID="222" v:groupContext="shape" v:layerMember="0" transform="translate(15.75,-9.075)">
						<title>Sheet.222</title>
						<path d="M0 67.28 L6.08 63.75 L12.15 67.2 L6.08 70.88 L0 67.28 Z" class="st2"/>
					</g>
					<g id="shape223-54" v:mID="223" v:groupContext="shape" v:layerMember="0" transform="translate(23.475,-13.65)">
						<title>Sheet.223</title>
						<path d="M0 67.35 L6.15 63.83 L12.23 67.28 L6.08 70.88 L0 67.35 Z" class="st2"/>
					</g>
					<g id="shape224-56" v:mID="224" v:groupContext="shape" v:layerMember="0"
							transform="translate(15.45,-1.27898E-13)">
						<title>Sheet.224</title>
						<path d="M0 67.2 L6.37 63.68 L12.52 67.2 L6.37 70.88 L0 67.2 Z" class="st2"/>
					</g>
					<g id="shape225-58" v:mID="225" v:groupContext="shape" v:layerMember="0" transform="translate(23.475,-4.575)">
						<title>Sheet.225</title>
						<path d="M0 67.28 L6.08 63.75 L12.3 67.35 L6.23 70.88 L0 67.28 Z" class="st2"/>
					</g>
					<g id="shape226-60" v:mID="226" v:groupContext="shape" v:layerMember="0" transform="translate(31.2,-9.075)">
						<title>Sheet.226</title>
						<path d="M0 67.28 L6.15 63.68 L12.45 67.28 L6.22 70.88 L0 67.28 Z" class="st2"/>
					</g>
				</g>
			</g>
		</g>
	</g>
</svg>
