<?xml version="1.0" encoding="UTF-8" standalone="no"?>
<!DOCTYPE svg PUBLIC "-//W3C//DTD SVG 1.1//EN" "http://www.w3.org/Graphics/SVG/1.1/DTD/svg11.dtd">
<!-- Generated by Microsoft Visio, SVG Export Database Server - ghosted.svg Page-1 -->
<svg xmlns="http://www.w3.org/2000/svg" xmlns:xlink="http://www.w3.org/1999/xlink" xmlns:ev="http://www.w3.org/2001/xml-events"
		xmlns:v="http://schemas.microsoft.com/visio/2003/SVGExtensions/" width="0.8125in" height="0.984375in"
		viewBox="0 0 58.5 70.875" xml:space="preserve" color-interpolation-filters="sRGB" class="st5">
	<v:documentProperties v:langID="4108" v:metric="true" v:viewMarkup="false"/>

	<style type="text/css">
	<![CDATA[
		.st1 {fill:#ffffff;stroke:none;stroke-linecap:butt;stroke-width:0.75}
		.st2 {fill:#505150;stroke:none;stroke-linecap:butt;stroke-width:0.75}
		.st3 {fill:#9c9c9d;stroke:none;stroke-linecap:butt;stroke-width:0.75}
		.st4 {fill:#cccbcb;stroke:none;stroke-linecap:butt;stroke-width:0.75}
		.st5 {fill:none;fill-rule:evenodd;font-size:12px;overflow:visible;stroke-linecap:square;stroke-miterlimit:3}
	]]>
	</style>

	<g v:mID="0" v:index="1" v:groupContext="foregroundPage">
		<title>Page-1</title>
		<v:pageProperties v:drawingScale="0.0393701" v:pageScale="0.0393701" v:drawingUnits="24" v:shadowOffsetX="8.50394"
				v:shadowOffsetY="-8.50394"/>
		<v:layer v:name="symbols" v:index="0"/>
		<g id="group545-1" transform="translate(7.3875,-3.9)" v:mID="545" v:groupContext="group" v:layerMember="0">
			<title>Database Server - ghosted</title>
			<g id="group546-2" v:mID="546" v:groupContext="group" v:layerMember="0">
				<title>Sheet.546</title>
				<g id="shape547-3" v:mID="547" v:groupContext="shape" v:layerMember="0" transform="translate(2.01839E-13,-3.75)">
					<title>Sheet.547</title>
					<path d="M0 70.88 L0 19.13 C-0 16.2 2.33 13.88 5.25 13.88 L26.25 13.88 C29.18 13.88 31.5 16.2 31.5 19.13 L31.5
								 70.88 L0 70.88 Z" class="st1"/>
				</g>
				<g id="shape548-5" v:mID="548" v:groupContext="shape" v:layerMember="0" transform="translate(21,0)">
					<title>Sheet.548</title>
					<path d="M26.17 44.25 C26.17 40.05 19.13 38.55 13.05 38.55 C6.97 38.55 0 40.05 0 44.25 L0 44.93 L0 63.6 L0 64.58
								 L0 64.65 C0.38 68.63 5.03 70.88 13.05 70.88 C21.15 70.88 25.8 68.7 26.1 64.65 L26.1 64.58 L26.1
								 63.53 L26.1 45.15 L26.17 44.25 Z" class="st1"/>
				</g>
				<g id="shape549-7" v:mID="549" v:groupContext="shape" v:layerMember="0" transform="translate(2.25,-6)">
					<title>Sheet.549</title>
					<path d="M24 18.38 L3 18.38 C1.35 18.38 0 19.73 0 21.38 L0 70.88 L18.75 70.88 C18.75 70.8 18.75 70.73 18.75 70.65
								 L18.75 70.58 L18.75 69.6 L18.75 64.88 L5.25 64.88 L5.25 62.63 L18.75 62.63 L18.75 58.13 L5.25 58.13
								 L5.25 55.88 L18.75 55.88 L18.75 50.93 L18.75 50.25 C18.75 47.18 22.58 45.53 27 44.85 L27 21.38 C27
								 19.73 25.65 18.38 24 18.38 ZM21.75 27.38 L5.25 27.38 L5.25 25.13 L21.75 25.13 L21.75 27.38 Z"
							class="st2"/>
				</g>
				<g id="shape550-9" v:mID="550" v:groupContext="shape" v:layerMember="0" transform="translate(23.25,-2.325)">
					<title>Sheet.550</title>
					<path d="M10.87 51.53 C6.6 51.53 2.25 50.78 0 49.13 L0 65.85 L0 66.75 C0.37 70.58 8.1 70.88 10.8 70.88 C13.5
								 70.88 21.3 70.58 21.6 66.75 L21.6 65.85 L21.6 49.2 C19.5 50.78 15.15 51.53 10.87 51.53 Z"
							class="st3"/>
				</g>
				<g id="shape551-11" v:mID="551" v:groupContext="shape" v:layerMember="0" transform="translate(23.25,-23.175)">
					<title>Sheet.551</title>
					<ellipse cx="10.875" cy="67.425" rx="10.875" ry="3.45" class="st3"/>
				</g>
				<g id="group552-13" transform="translate(23.25,-2.325)" v:mID="552" v:groupContext="group" v:layerMember="0">
					<title>Sheet.552</title>
					<g id="shape553-14" v:mID="553" v:groupContext="shape" v:layerMember="0"
							transform="translate(2.14828E-14,-23.85)">
						<title>Sheet.553</title>
						<path d="M0 70.43 C0 70.58 0 70.73 0.07 70.88 L2.77 68.18 C1.05 68.7 0 69.53 0 70.43 Z" class="st4"/>
					</g>
					<g id="shape554-16" v:mID="554" v:groupContext="shape" v:layerMember="0" transform="translate(0,-19.275)">
						<title>Sheet.554</title>
						<path d="M0 68.78 L0 70.88 L1.58 69.3 C1.05 69.08 0.6 68.85 0.22 68.55 L0 68.78 Z" class="st4"/>
					</g>
					<g id="shape555-18" v:mID="555" v:groupContext="shape" v:layerMember="0" transform="translate(1.275,-22.05)">
						<title>Sheet.555</title>
						<path d="M4.65 65.55 L0 70.2 C0.37 70.43 0.9 70.65 1.43 70.88 L7.05 65.25 C6.23 65.33 5.4 65.4 4.65 65.55
									 Z" class="st4"/>
					</g>
					<g id="shape556-20" v:mID="556" v:groupContext="shape" v:layerMember="0" transform="translate(4.725,-21.15)">
						<title>Sheet.556</title>
						<path d="M0 70.58 C0.6 70.73 1.2 70.8 1.8 70.88 L8.25 64.35 C7.58 64.28 6.9 64.28 6.23 64.28 L0 70.58 Z"
								class="st4"/>
					</g>
					<g id="shape557-22" v:mID="557" v:groupContext="shape" v:layerMember="0"
							transform="translate(-1.08413E-13,-14.55)">
						<title>Sheet.557</title>
						<path d="M5.25 65.63 C4.65 65.55 4.05 65.4 3.53 65.25 L0 68.78 L0 70.88 L5.25 65.63 Z" class="st4"/>
					</g>
					<g id="shape558-24" v:mID="558" v:groupContext="shape" v:layerMember="0" transform="translate(8.625,-20.85)">
						<title>Sheet.558</title>
						<path d="M2.1 70.88 L8.33 64.58 C7.73 64.43 7.13 64.35 6.53 64.28 L0 70.8 C0.68 70.88 1.35 70.88 2.1 70.88
									 Z" class="st4"/>
					</g>
					<g id="shape559-26" v:mID="559" v:groupContext="shape" v:layerMember="0" transform="translate(0,-10.05)">
						<title>Sheet.559</title>
						<path d="M9.22 61.58 C8.55 61.58 7.88 61.5 7.27 61.43 L0 68.78 L0 70.88 L9.22 61.58 Z" class="st4"/>
					</g>
					<g id="shape560-28" v:mID="560" v:groupContext="shape" v:layerMember="0"
							transform="translate(-1.08913E-13,-5.475)">
						<title>Sheet.560</title>
						<path d="M11.63 57 L0 68.78 L0 70.88 L13.8 56.85 C13.13 56.93 12.38 57 11.63 57 Z" class="st4"/>
					</g>
					<g id="shape561-30" v:mID="561" v:groupContext="shape" v:layerMember="0" transform="translate(13.125,-20.925)">
						<title>Sheet.561</title>
						<path d="M0 70.88 C0.82 70.8 1.65 70.73 2.32 70.65 L7.13 65.78 C6.68 65.55 6.23 65.33 5.63 65.18 L0 70.88
									 Z" class="st4"/>
					</g>
					<g id="shape562-32" v:mID="562" v:groupContext="shape" v:layerMember="0" transform="translate(18.6,-21.825)">
						<title>Sheet.562</title>
						<path d="M3.15 68.4 C3.15 68.18 3.08 67.95 3 67.8 L0 70.88 C1.95 70.2 3.15 69.38 3.15 68.4 Z" class="st4"/>
					</g>
					<g id="shape563-34" v:mID="563" v:groupContext="shape" v:layerMember="0" transform="translate(0.225,-2.025)">
						<title>Sheet.563</title>
						<path d="M16.35 53.1 L0 69.68 C0.23 70.13 0.53 70.5 0.98 70.88 L19.13 52.43 C18.3 52.65 17.33 52.88 16.35
									 53.1 Z" class="st4"/>
					</g>
					<g id="shape564-36" v:mID="564" v:groupContext="shape" v:layerMember="0" transform="translate(2.775,-0.675)">
						<title>Sheet.564</title>
						<path d="M18.83 51.15 L0 70.35 C0.53 70.58 1.05 70.73 1.58 70.88 L18.83 53.25 L18.83 51.15 Z" class="st4"/>
					</g>
					<g id="shape565-38" v:mID="565" v:groupContext="shape" v:layerMember="0" transform="translate(6.3,-0.075)">
						<title>Sheet.565</title>
						<path d="M15.3 57.15 L15.3 54.98 L0 70.65 C0.68 70.73 1.28 70.8 1.87 70.88 L15.3 57.15 Z" class="st4"/>
					</g>
					<g id="shape566-40" v:mID="566" v:groupContext="shape" v:layerMember="0"
							transform="translate(10.5,1.42109E-13)">
						<title>Sheet.566</title>
						<path d="M11.1 59.55 L0 70.88 C0.08 70.88 0.15 70.88 0.3 70.88 C0.75 70.88 1.43 70.88 2.18 70.8 L11.1 61.65
									 L11.1 59.55 Z" class="st4"/>
					</g>
					<g id="shape567-42" v:mID="567" v:groupContext="shape" v:layerMember="0" transform="translate(15.225,-0.3)">
						<title>Sheet.567</title>
						<path d="M6.38 66.45 L6.38 66.15 L6.38 64.35 L0 70.88 C0.9 70.73 1.8 70.58 2.62 70.35 L6.38 66.45 Z"
								class="st4"/>
					</g>
				</g>
			</g>
		</g>
	</g>
</svg>
