<?xml version="1.0" encoding="UTF-8" standalone="no"?>
<!DOCTYPE svg PUBLIC "-//W3C//DTD SVG 1.1//EN" "http://www.w3.org/Graphics/SVG/1.1/DTD/svg11.dtd">
<!-- Generated by Microsoft Visio, SVG Export Database Partition 5.svg Page-1 -->
<svg xmlns="http://www.w3.org/2000/svg" xmlns:xlink="http://www.w3.org/1999/xlink" xmlns:ev="http://www.w3.org/2001/xml-events"
		xmlns:v="http://schemas.microsoft.com/visio/2003/SVGExtensions/" width="1in" height="0.96875in" viewBox="0 0 72 69.75"
		xml:space="preserve" color-interpolation-filters="sRGB" class="st5">
	<v:documentProperties v:langID="4108" v:metric="true" v:viewMarkup="false"/>

	<style type="text/css">
	<![CDATA[
		.st1 {fill:#ffffff;stroke:none;stroke-linecap:butt;stroke-width:0.75}
		.st2 {fill:#515050;stroke:none;stroke-linecap:butt;stroke-width:0.75}
		.st3 {fill:#515251;stroke:none;stroke-linecap:butt;stroke-width:0.75}
		.st4 {fill:#515150;stroke:none;stroke-linecap:butt;stroke-width:0.75}
		.st5 {fill:none;fill-rule:evenodd;font-size:12px;overflow:visible;stroke-linecap:square;stroke-miterlimit:3}
	]]>
	</style>

	<g v:mID="0" v:index="1" v:groupContext="foregroundPage">
		<title>Page-1</title>
		<v:pageProperties v:drawingScale="0.0393701" v:pageScale="0.0393701" v:drawingUnits="24" v:shadowOffsetX="8.50394"
				v:shadowOffsetY="-8.50394"/>
		<v:layer v:name="symbols" v:index="0"/>
		<g id="group601-1" transform="translate(8.0625,-1.6125)" v:mID="601" v:groupContext="group" v:layerMember="0">
			<title>Database Partition 5</title>
			<g id="group602-2" v:mID="602" v:groupContext="group" v:layerMember="0">
				<title>Sheet.602</title>
				<g id="group603-3" transform="translate(-2.9976E-13,-9.825)" v:mID="603" v:groupContext="group" v:layerMember="0">
					<title>Sheet.603</title>
					<g id="shape604-4" v:mID="604" v:groupContext="shape" v:layerMember="0">
						<title>Sheet.604</title>
						<path d="M26.63 69.75 C11.92 69.75 0 57.83 0 43.13 C0 28.43 11.93 16.5 26.63 16.5 C41.33 16.5 53.25 28.43
									 53.25 43.13 C53.25 57.83 41.33 69.75 26.63 69.75 Z" class="st1"/>
					</g>
					<g id="shape605-6" v:mID="605" v:groupContext="shape" v:layerMember="0" transform="translate(2.25,-2.25)">
						<title>Sheet.605</title>
						<ellipse cx="24.375" cy="45.375" rx="24.375" ry="24.375" class="st2"/>
					</g>
					<g id="shape606-8" v:mID="606" v:groupContext="shape" v:layerMember="0" transform="translate(25.5,-30)">
						<title>Sheet.606</title>
						<path d="M2.25 69.75 L0 69.75 L0 67.5 L2.25 67.5 L2.25 69.75 ZM2.25 65.25 L0 65.25 L0 63 L2.25 63 L2.25 65.25
									 ZM2.25 60.75 L0 60.75 L0 58.5 L2.25 58.5 L2.25 60.75 ZM2.25 56.25 L0 56.25 L0 54 L2.25 54 L2.25
									 56.25 ZM2.25 51.75 L0 51.75 L0 49.5 L2.25 49.5 L2.25 51.75 Z" class="st1"/>
					</g>
					<g id="shape607-10" v:mID="607" v:groupContext="shape" v:layerMember="0" transform="translate(3.525,-26.7)">
						<title>Sheet.607</title>
						<path d="M20.18 67.58 L19.65 69.75 L17.48 69.15 L18 66.98 L20.18 67.58 ZM15.83 66.45 L15.3 68.63 L13.13 68.1
									 L13.65 65.93 L15.83 66.45 ZM11.47 65.33 L10.95 67.5 L8.78 66.98 L9.3 64.8 L11.47 65.33 ZM7.13
									 64.2 L6.52 66.45 L4.35 65.93 L4.87 63.75 L7.13 64.2 ZM2.7 63.15 L2.17 65.33 L0 64.8 L0.53 62.63
									 L2.7 63.15 Z" class="st1"/>
					</g>
					<g id="shape608-12" v:mID="608" v:groupContext="shape" v:layerMember="0" transform="translate(11.7,-7.2)">
						<title>Sheet.608</title>
						<path d="M14.55 48.45 L16.35 49.8 L15 51.6 L13.2 50.25 L14.55 48.45 ZM11.93 52.05 L13.73 53.4 L12.38 55.2
									 L10.58 53.85 L11.93 52.05 ZM9.23 55.65 L11.03 57 L9.68 58.8 L7.88 57.45 L9.23 55.65 ZM6.6 59.33
									 L8.4 60.68 L7.05 62.48 L5.25 61.13 L6.6 59.33 ZM3.98 62.93 L5.78 64.28 L4.43 66.08 L2.63 64.73
									 L3.98 62.93 ZM1.28 66.6 L3.08 67.95 L1.8 69.75 L0 68.4 L1.28 66.6 Z" class="st1"/>
					</g>
					<g id="shape609-14" v:mID="609" v:groupContext="shape" v:layerMember="0" transform="translate(29.55,-26.775)">
						<title>Sheet.609</title>
						<path d="M2.17 67.05 L2.7 69.23 L0.53 69.75 L0 67.58 L2.17 67.05 ZM6.52 66 L7.05 68.18 L4.87 68.7 L4.35 66.53
									 L6.52 66 ZM10.88 64.88 L11.4 67.05 L9.23 67.58 L8.7 65.4 L10.88 64.88 ZM15.3 63.75 L15.83 65.93
									 L13.65 66.53 L13.05 64.28 L15.3 63.75 ZM19.65 62.63 L20.18 64.8 L18 65.33 L17.48 63.15 L19.65
									 62.63 Z" class="st1"/>
					</g>
					<g id="shape610-16" v:mID="610" v:groupContext="shape" v:layerMember="0" transform="translate(27.825,-7.2)">
						<title>Sheet.610</title>
						<path d="M3.15 53.85 L1.35 55.2 L0 53.4 L1.8 52.05 L3.15 53.85 ZM5.77 57.53 L3.98 58.88 L2.62 57.08 L4.43
									 55.73 L5.77 57.53 ZM8.48 61.13 L6.68 62.48 L5.33 60.68 L7.13 59.33 L8.48 61.13 ZM11.1 64.8 L9.3
									 66.15 L7.95 64.35 L9.75 63 L11.1 64.8 ZM13.73 68.4 L11.93 69.75 L10.65 67.95 L12.45 66.6 L13.73
									 68.4 Z" class="st1"/>
					</g>
				</g>
				<g id="group611-18" transform="translate(35.25,-3.12639E-13)" v:mID="611" v:groupContext="group" v:layerMember="0">
					<title>Sheet.611</title>
					<g id="shape612-19" v:mID="612" v:groupContext="shape" v:layerMember="0">
						<title>Sheet.612</title>
						<path d="M26.25 43.13 C26.25 38.93 19.2 37.43 13.12 37.43 C7.05 37.43 0 38.93 0 43.13 L0 43.8 L0 62.48 L0
									 63.45 L0 63.53 C0.37 67.5 5.02 69.75 13.05 69.75 C21.15 69.75 25.8 67.58 26.1 63.53 L26.1 63.45
									 L26.1 62.4 L26.1 44.03 L26.1 43.13 L26.25 43.13 Z" class="st1"/>
					</g>
					<g id="shape613-21" v:mID="613" v:groupContext="shape" v:layerMember="0" transform="translate(2.25,-2.325)">
						<title>Sheet.613</title>
						<path d="M10.87 50.4 C6.6 50.4 2.25 49.65 0 48 L0 64.73 L0 65.63 C0.37 69.45 8.1 69.75 10.8 69.75 C13.5 69.75
									 21.3 69.45 21.6 65.63 L21.6 64.73 L21.6 48 C19.57 49.65 15.22 50.4 10.87 50.4 Z" class="st3"/>
					</g>
					<g id="shape614-23" v:mID="614" v:groupContext="shape" v:layerMember="0" transform="translate(2.25,-23.175)">
						<title>Sheet.614</title>
						<ellipse cx="10.875" cy="66.3" rx="10.875" ry="3.45" class="st4"/>
					</g>
				</g>
			</g>
		</g>
	</g>
</svg>
