<?xml version="1.0" encoding="UTF-8" standalone="no"?>
<!DOCTYPE svg PUBLIC "-//W3C//DTD SVG 1.1//EN" "http://www.w3.org/Graphics/SVG/1.1/DTD/svg11.dtd">
<!-- Generated by Microsoft Visio, SVG Export Database Availability Group.svg Page-1 -->
<svg xmlns="http://www.w3.org/2000/svg" xmlns:xlink="http://www.w3.org/1999/xlink" xmlns:ev="http://www.w3.org/2001/xml-events"
		xmlns:v="http://schemas.microsoft.com/visio/2003/SVGExtensions/" width="1.09375in" height="0.953125in"
		viewBox="0 0 78.75 68.625" xml:space="preserve" color-interpolation-filters="sRGB" class="st3">
	<v:documentProperties v:langID="4108" v:metric="true" v:viewMarkup="false"/>

	<style type="text/css">
	<![CDATA[
		.st1 {fill:#ffffff;stroke:none;stroke-linecap:butt;stroke-width:0.75}
		.st2 {fill:#525352;stroke:none;stroke-linecap:butt;stroke-width:0.75}
		.st3 {fill:none;fill-rule:evenodd;font-size:12px;overflow:visible;stroke-linecap:square;stroke-miterlimit:3}
	]]>
	</style>

	<g v:mID="0" v:index="1" v:groupContext="foregroundPage">
		<title>Page-1</title>
		<v:pageProperties v:drawingScale="0.0393701" v:pageScale="0.0393701" v:drawingUnits="24" v:shadowOffsetX="8.50394"
				v:shadowOffsetY="-8.50394"/>
		<v:layer v:name="symbols" v:index="0"/>
		<g id="group655-1" transform="translate(7.6875,-2.8125)" v:mID="655" v:groupContext="group" v:layerMember="0">
			<title>Database Availability Group</title>
			<g id="group656-2" v:mID="656" v:groupContext="group" v:layerMember="0">
				<title>Sheet.656</title>
				<g id="group657-3" transform="translate(0,-19.425)" v:mID="657" v:groupContext="group" v:layerMember="0">
					<title>Sheet.657</title>
					<g id="shape658-4" v:mID="658" v:groupContext="shape" v:layerMember="0">
						<title>Sheet.658</title>
						<path d="M0 31.88 C0 27.23 8.1 25.13 16.13 25.13 C24.15 25.13 32.25 27.23 32.25 31.88 L32.25 32.93 L32.25
									 61.13 C31.8 65.93 26.1 68.55 16.13 68.55 C6.15 68.63 0.45 66 0 61.2 L0 61.13 L0 32.7 L0 31.88
									 Z" class="st1"/>
					</g>
					<g id="shape659-6" v:mID="659" v:groupContext="shape" v:layerMember="0" transform="translate(16.125,-43.5)">
						<title>Sheet.659</title>
					</g>
					<g id="shape660-7" v:mID="660" v:groupContext="shape" v:layerMember="0" transform="translate(2.25,-2.25)">
						<title>Sheet.660</title>
						<path d="M13.88 40.88 C8.48 40.88 3 39.9 0 37.88 L0 63.23 C0.45 68.25 10.35 68.63 13.88 68.63 C17.4 68.63
									 27.3 68.25 27.75 63.23 L27.75 37.88 C24.83 39.9 19.35 40.88 13.88 40.88 Z" class="st2"/>
					</g>
					<g id="shape661-9" v:mID="661" v:groupContext="shape" v:layerMember="0" transform="translate(2.25,-32.25)">
						<title>Sheet.661</title>
						<ellipse cx="13.875" cy="64.125" rx="13.875" ry="4.5" class="st2"/>
					</g>
				</g>
				<g id="group662-11" transform="translate(15.75,-9.75)" v:mID="662" v:groupContext="group" v:layerMember="0">
					<title>Sheet.662</title>
					<g id="shape663-12" v:mID="663" v:groupContext="shape" v:layerMember="0">
						<title>Sheet.663</title>
						<path d="M0 31.95 C0 27.3 8.1 25.2 16.13 25.2 C24.15 25.2 32.25 27.3 32.25 31.95 L32.25 33 L32.25 61.2 C31.8
									 66 26.1 68.63 16.13 68.63 C6.15 68.63 0.45 66 0.07 61.2 L0.07 61.13 L0.07 32.78 L0.07 31.95
									 L0 31.95 Z" class="st1"/>
					</g>
					<g id="shape664-14" v:mID="664" v:groupContext="shape" v:layerMember="0" transform="translate(16.125,-43.425)">
						<title>Sheet.664</title>
					</g>
					<g id="shape665-15" v:mID="665" v:groupContext="shape" v:layerMember="0" transform="translate(2.25,-2.175)">
						<title>Sheet.665</title>
						<path d="M13.88 40.88 C8.47 40.88 3 39.9 0 37.88 L0 63.23 C0.45 68.25 10.28 68.63 13.8 68.63 C17.33 68.63
									 27.23 68.25 27.68 63.23 L27.68 37.88 C24.83 39.9 19.35 40.88 13.88 40.88 Z" class="st2"/>
					</g>
					<g id="shape666-17" v:mID="666" v:groupContext="shape" v:layerMember="0" transform="translate(2.25,-32.175)">
						<title>Sheet.666</title>
						<ellipse cx="13.875" cy="64.125" rx="13.875" ry="4.5" class="st2"/>
					</g>
				</g>
				<g id="group667-19" transform="translate(31.5,-2.98428E-13)" v:mID="667" v:groupContext="group" v:layerMember="0">
					<title>Sheet.667</title>
					<g id="shape668-20" v:mID="668" v:groupContext="shape" v:layerMember="0">
						<title>Sheet.668</title>
						<path d="M0 31.95 C0 27.3 8.1 25.2 16.13 25.2 C24.15 25.2 32.25 27.3 32.25 31.95 L32.25 33 L32.25 61.2 C31.8
									 66 26.1 68.63 16.13 68.63 C6.15 68.63 0.45 66 0.07 61.2 L0.07 61.13 L0.07 32.78 L0.07 31.95
									 L0 31.95 Z" class="st1"/>
					</g>
					<g id="shape669-22" v:mID="669" v:groupContext="shape" v:layerMember="0" transform="translate(16.125,-43.425)">
						<title>Sheet.669</title>
					</g>
					<g id="shape670-23" v:mID="670" v:groupContext="shape" v:layerMember="0" transform="translate(2.25,-2.175)">
						<title>Sheet.670</title>
						<path d="M13.88 40.88 C8.47 40.88 3 39.9 0 37.88 L0 63.23 C0.45 68.25 10.28 68.63 13.8 68.63 C17.33 68.63
									 27.23 68.25 27.68 63.23 L27.68 37.88 C24.83 39.9 19.35 40.88 13.88 40.88 Z" class="st2"/>
					</g>
					<g id="shape671-25" v:mID="671" v:groupContext="shape" v:layerMember="0" transform="translate(2.25,-32.175)">
						<title>Sheet.671</title>
						<ellipse cx="13.875" cy="64.125" rx="13.875" ry="4.5" class="st2"/>
					</g>
				</g>
			</g>
		</g>
	</g>
</svg>
