<?xml version="1.0" encoding="UTF-8" standalone="no"?>
<!DOCTYPE svg PUBLIC "-//W3C//DTD SVG 1.1//EN" "http://www.w3.org/Graphics/SVG/1.1/DTD/svg11.dtd">
<!-- Generated by Microsoft Visio, SVG Export Database Cube.svg Page-1 -->
<svg xmlns="http://www.w3.org/2000/svg" xmlns:xlink="http://www.w3.org/1999/xlink" xmlns:ev="http://www.w3.org/2001/xml-events"
		xmlns:v="http://schemas.microsoft.com/visio/2003/SVGExtensions/" width="0.890625in" height="0.984375in"
		viewBox="0 0 64.125 70.875" xml:space="preserve" color-interpolation-filters="sRGB" class="st3">
	<v:documentProperties v:langID="4108" v:metric="true" v:viewMarkup="false"/>

	<style type="text/css">
	<![CDATA[
		.st1 {fill:#ffffff;stroke:none;stroke-linecap:butt;stroke-width:0.75}
		.st2 {fill:#515050;stroke:none;stroke-linecap:butt;stroke-width:0.75}
		.st3 {fill:none;fill-rule:evenodd;font-size:12px;overflow:visible;stroke-linecap:square;stroke-miterlimit:3}
	]]>
	</style>

	<g v:mID="0" v:index="1" v:groupContext="foregroundPage">
		<title>Page-1</title>
		<v:pageProperties v:drawingScale="0.0393701" v:pageScale="0.0393701" v:drawingUnits="24" v:shadowOffsetX="8.50394"
				v:shadowOffsetY="-8.50394"/>
		<v:layer v:name="symbols" v:index="0"/>
		<g id="group95-1" transform="translate(6.5625,-6.6)" v:mID="95" v:groupContext="group" v:layerMember="0">
			<title>Database Cube</title>
			<g id="group96-2" v:mID="96" v:groupContext="group" v:layerMember="0">
				<title>Sheet.96</title>
				<g id="shape97-3" v:mID="97" v:groupContext="shape" v:layerMember="0">
					<title>Sheet.97</title>
					<path d="M0 56.18 L0 27.6 L25.5 13.2 L51 27.98 L51 55.8 L25.5 70.88 L0 56.18 Z" class="st1"/>
				</g>
				<g id="group98-5" transform="translate(26.25,-3.225)" v:mID="98" v:groupContext="group" v:layerMember="0">
					<title>Sheet.98</title>
					<g id="shape99-6" v:mID="99" v:groupContext="shape" v:layerMember="0" transform="translate(16.5,-27.525)">
						<title>Sheet.99</title>
						<path d="M0 70.88 L6 67.28 L6 60.23 L0 63.75 L0 70.88 Z" class="st2"/>
					</g>
					<g id="shape100-8" v:mID="100" v:groupContext="shape" v:layerMember="0" transform="translate(8.25,-22.875)">
						<title>Sheet.100</title>
						<path d="M0 70.88 L6.75 66.98 L6.75 59.93 L0 63.83 L0 70.88 Z" class="st2"/>
					</g>
					<g id="shape101-10" v:mID="101" v:groupContext="shape" v:layerMember="0" transform="translate(0,-18)">
						<title>Sheet.101</title>
						<path d="M0 70.88 L6.75 66.98 L6.75 59.85 L0 63.75 L0 70.88 Z" class="st2"/>
					</g>
					<g id="shape102-12" v:mID="102" v:groupContext="shape" v:layerMember="0" transform="translate(16.5,-18.675)">
						<title>Sheet.102</title>
						<path d="M0 70.88 L6 67.43 L6 60.3 L0 63.75 L0 70.88 Z" class="st2"/>
					</g>
					<g id="shape103-14" v:mID="103" v:groupContext="shape" v:layerMember="0" transform="translate(8.25,-13.875)">
						<title>Sheet.103</title>
						<path d="M0 70.88 L6.75 66.98 L6.75 59.85 L0 63.75 L0 70.88 Z" class="st2"/>
					</g>
					<g id="shape104-16" v:mID="104" v:groupContext="shape" v:layerMember="0" transform="translate(0,-9.075)">
						<title>Sheet.104</title>
						<path d="M0 70.88 L6.75 66.98 L6.75 59.85 L0 63.75 L0 70.88 Z" class="st2"/>
					</g>
					<g id="shape105-18" v:mID="105" v:groupContext="shape" v:layerMember="0" transform="translate(16.5,-9.525)">
						<title>Sheet.105</title>
						<path d="M0 70.88 L6 67.35 L6 60.23 L0 63.75 L0 70.88 Z" class="st2"/>
					</g>
					<g id="shape106-20" v:mID="106" v:groupContext="shape" v:layerMember="0" transform="translate(8.25,-4.8)">
						<title>Sheet.106</title>
						<path d="M0 70.88 L6.75 66.98 L6.75 59.85 L0 63.75 L0 70.88 Z" class="st2"/>
					</g>
					<g id="shape107-22" v:mID="107" v:groupContext="shape" v:layerMember="0">
						<title>Sheet.107</title>
						<path d="M0 70.88 L6.75 66.98 L6.75 59.85 L0 63.75 L0 70.88 Z" class="st2"/>
					</g>
				</g>
				<g id="group108-24" transform="translate(2.25,-3.15)" v:mID="108" v:groupContext="group" v:layerMember="0">
					<title>Sheet.108</title>
					<g id="shape109-25" v:mID="109" v:groupContext="shape" v:layerMember="0"
							transform="translate(-1.1241E-13,-27.525)">
						<title>Sheet.109</title>
						<path d="M6 70.88 L0 67.28 L0 60.3 L6 63.75 L6 70.88 Z" class="st2"/>
					</g>
					<g id="shape110-27" v:mID="110" v:groupContext="shape" v:layerMember="0" transform="translate(7.5,-22.875)">
						<title>Sheet.110</title>
						<path d="M6.75 70.88 L0 66.98 L0 59.93 L6.75 63.9 L6.75 70.88 Z" class="st2"/>
					</g>
					<g id="shape111-29" v:mID="111" v:groupContext="shape" v:layerMember="0" transform="translate(15.75,-18)">
						<title>Sheet.111</title>
						<path d="M6.75 70.88 L0 66.98 L0 59.85 L6.75 63.75 L6.75 70.88 Z" class="st2"/>
					</g>
					<g id="shape112-31" v:mID="112" v:groupContext="shape" v:layerMember="0"
							transform="translate(-1.1241E-13,-18.675)">
						<title>Sheet.112</title>
						<path d="M6 70.88 L0 67.43 L0 60.3 L6 63.75 L6 70.88 Z" class="st2"/>
					</g>
					<g id="shape113-33" v:mID="113" v:groupContext="shape" v:layerMember="0" transform="translate(7.5,-13.875)">
						<title>Sheet.113</title>
						<path d="M6.75 70.88 L0 66.98 L0 59.85 L6.75 63.75 L6.75 70.88 Z" class="st2"/>
					</g>
					<g id="shape114-35" v:mID="114" v:groupContext="shape" v:layerMember="0" transform="translate(15.75,-9.075)">
						<title>Sheet.114</title>
						<path d="M6.75 70.88 L0 66.98 L0 59.85 L6.75 63.75 L6.75 70.88 Z" class="st2"/>
					</g>
					<g id="shape115-37" v:mID="115" v:groupContext="shape" v:layerMember="0"
							transform="translate(-1.1241E-13,-9.525)">
						<title>Sheet.115</title>
						<path d="M6 70.88 L0 67.35 L0 60.23 L6 63.75 L6 70.88 Z" class="st2"/>
					</g>
					<g id="shape116-39" v:mID="116" v:groupContext="shape" v:layerMember="0" transform="translate(7.5,-4.725)">
						<title>Sheet.116</title>
						<path d="M6.75 70.88 L0 66.9 L0 59.78 L6.75 63.75 L6.75 70.88 Z" class="st2"/>
					</g>
					<g id="shape117-41" v:mID="117" v:groupContext="shape" v:layerMember="0" transform="translate(15.75,0)">
						<title>Sheet.117</title>
						<path d="M6.75 70.88 L0 66.98 L0 59.85 L6.75 63.75 L6.75 70.88 Z" class="st2"/>
					</g>
				</g>
				<g id="group118-43" transform="translate(3.675,-29.85)" v:mID="118" v:groupContext="group" v:layerMember="0">
					<title>Sheet.118</title>
					<g id="shape119-44" v:mID="119" v:groupContext="shape" v:layerMember="0"
							transform="translate(2.18825E-13,-9.075)">
						<title>Sheet.119</title>
						<path d="M0 67.28 L6.22 63.75 L12.45 67.28 L6.22 70.88 L0 67.28 Z" class="st2"/>
					</g>
					<g id="shape120-46" v:mID="120" v:groupContext="shape" v:layerMember="0" transform="translate(7.95,-13.65)">
						<title>Sheet.120</title>
						<path d="M0 67.35 L6 63.83 L12.15 67.35 L6.08 70.88 L0 67.35 Z" class="st2"/>
					</g>
					<g id="shape121-48" v:mID="121" v:groupContext="shape" v:layerMember="0" transform="translate(15.6,-18.075)">
						<title>Sheet.121</title>
						<path d="M0 67.28 L6.23 63.68 L12.38 67.28 L6.23 70.88 L0 67.28 Z" class="st2"/>
					</g>
					<g id="shape122-50" v:mID="122" v:groupContext="shape" v:layerMember="0" transform="translate(7.8,-4.5)">
						<title>Sheet.122</title>
						<path d="M0 67.2 L6.23 63.68 L12.38 67.2 L6.15 70.88 L0 67.2 Z" class="st2"/>
					</g>
					<g id="shape123-52" v:mID="123" v:groupContext="shape" v:layerMember="0" transform="translate(15.75,-9.075)">
						<title>Sheet.123</title>
						<path d="M0 67.28 L6.08 63.75 L12.15 67.2 L6.08 70.88 L0 67.28 Z" class="st2"/>
					</g>
					<g id="shape124-54" v:mID="124" v:groupContext="shape" v:layerMember="0" transform="translate(23.475,-13.65)">
						<title>Sheet.124</title>
						<path d="M0 67.35 L6.15 63.83 L12.23 67.28 L6.08 70.88 L0 67.35 Z" class="st2"/>
					</g>
					<g id="shape125-56" v:mID="125" v:groupContext="shape" v:layerMember="0"
							transform="translate(15.45,1.27898E-13)">
						<title>Sheet.125</title>
						<path d="M0 67.2 L6.37 63.68 L12.52 67.2 L6.37 70.88 L0 67.2 Z" class="st2"/>
					</g>
					<g id="shape126-58" v:mID="126" v:groupContext="shape" v:layerMember="0" transform="translate(23.475,-4.575)">
						<title>Sheet.126</title>
						<path d="M0 67.28 L6.08 63.75 L12.3 67.35 L6.23 70.88 L0 67.28 Z" class="st2"/>
					</g>
					<g id="shape127-60" v:mID="127" v:groupContext="shape" v:layerMember="0" transform="translate(31.2,-9.075)">
						<title>Sheet.127</title>
						<path d="M0 67.28 L6.15 63.68 L12.45 67.28 L6.22 70.88 L0 67.28 Z" class="st2"/>
					</g>
				</g>
			</g>
		</g>
	</g>
</svg>
