<?xml version="1.0" encoding="UTF-8" standalone="no"?>
<!DOCTYPE svg PUBLIC "-//W3C//DTD SVG 1.1//EN" "http://www.w3.org/Graphics/SVG/1.1/DTD/svg11.dtd">
<!-- Generated by Microsoft Visio, SVG Export Database Mirror Witness Node.svg Page-1 -->
<svg xmlns="http://www.w3.org/2000/svg" xmlns:xlink="http://www.w3.org/1999/xlink" xmlns:ev="http://www.w3.org/2001/xml-events"
		xmlns:v="http://schemas.microsoft.com/visio/2003/SVGExtensions/" width="1.10938in" height="0.984375in"
		viewBox="0 0 79.875 70.875" xml:space="preserve" color-interpolation-filters="sRGB" class="st5">
	<v:documentProperties v:langID="4108" v:metric="true" v:viewMarkup="false"/>

	<style type="text/css">
	<![CDATA[
		.st1 {fill:#ffffff;stroke:none;stroke-linecap:butt;stroke-width:0.75}
		.st2 {fill:#515150;stroke:none;stroke-linecap:butt;stroke-width:0.75}
		.st3 {fill:#515050;stroke:none;stroke-linecap:butt;stroke-width:0.75}
		.st4 {fill:#525352;stroke:none;stroke-linecap:butt;stroke-width:0.75}
		.st5 {fill:none;fill-rule:evenodd;font-size:12px;overflow:visible;stroke-linecap:square;stroke-miterlimit:3}
	]]>
	</style>

	<g v:mID="0" v:index="1" v:groupContext="foregroundPage">
		<title>Page-1</title>
		<v:pageProperties v:drawingScale="0.0393701" v:pageScale="0.0393701" v:drawingUnits="24" v:shadowOffsetX="8.50394"
				v:shadowOffsetY="-8.50394"/>
		<v:layer v:name="symbols" v:index="0"/>
		<g id="group630-1" transform="translate(8.4375,-2.775)" v:mID="630" v:groupContext="group" v:layerMember="0">
			<title>Database Mirror Witness Node</title>
			<g id="group631-2" v:mID="631" v:groupContext="group" v:layerMember="0">
				<title>Sheet.631</title>
				<g id="group632-3" transform="translate(3.75,-3.12639E-13)" v:mID="632" v:groupContext="group" v:layerMember="0">
					<title>Sheet.632</title>
					<g id="shape633-4" v:mID="633" v:groupContext="shape" v:layerMember="0">
						<title>Sheet.633</title>
						<path d="M21.6 49.88 L12.45 49.88 L12.45 52.73 L15.52 55.88 L13.8 55.88 C12.08 55.88 10.2 53.93 9.45 51.53
									 L9 49.88 L0 49.88 L0.53 52.58 C1.88 59.55 7.58 64.88 13.8 64.88 L15.52 64.88 L12.45 68.03 L12.45
									 70.88 L21.6 70.88 L32.1 60.3 L21.6 49.88 Z" class="st1"/>
					</g>
					<g id="shape634-6" v:mID="634" v:groupContext="shape" v:layerMember="0" transform="translate(2.7,-2.25)">
						<title>Sheet.634</title>
						<path d="M18 54.38 L12.3 54.38 L18.07 60.38 L11.03 60.38 C8.17 60.38 5.47 57.75 4.5 54.38 L0 54.38 C1.13
									 60.23 5.85 64.88 11.1 64.88 L18.15 64.88 L12.3 70.88 L17.92 70.88 L26.17 62.55 L18 54.38 Z"
								class="st2"/>
					</g>
				</g>
				<g id="group635-8" transform="translate(31.5,-6.75)" v:mID="635" v:groupContext="group" v:layerMember="0">
					<title>Sheet.635</title>
					<g id="shape636-9" v:mID="636" v:groupContext="shape" v:layerMember="0">
						<title>Sheet.636</title>
						<path d="M16.05 70.88 C2.63 70.88 0.22 66.23 0 63.45 L0 63.38 L0 34.95 L0 34.88 C0.22 32.1 2.63 27.45 16.05
									 27.45 C29.4 27.45 31.87 32.03 32.18 34.8 L32.18 34.95 L32.18 63.6 L32.18 63.75 C31.95 66.3 29.4
									 70.88 16.05 70.88 Z" class="st1"/>
					</g>
					<g id="shape637-11" v:mID="637" v:groupContext="shape" v:layerMember="0" transform="translate(2.25,-2.25)">
						<title>Sheet.637</title>
						<path d="M13.8 31.88 C5.32 31.88 0.3 33.83 0 37.28 L0 65.48 C0.3 68.93 5.32 70.88 13.8 70.88 C22.27 70.88
									 27.37 68.93 27.75 65.55 L27.75 37.2 C27.37 33.83 22.27 31.88 13.8 31.88 ZM13.8 68.63 C6.15 68.63
									 2.47 66.98 2.25 65.33 L2.25 40.95 C4.57 42.38 8.48 43.13 13.8 43.13 C19.2 43.13 23.18 42.38
									 25.5 40.95 L25.5 65.4 C25.2 66.98 21.45 68.63 13.8 68.63 ZM13.8 40.88 C6.15 40.88 2.47 39.23
									 2.25 37.58 L2.25 37.35 C2.47 35.78 6.15 34.05 13.8 34.05 C21.45 34.05 25.2 35.7 25.5 37.28 L25.5
									 37.58 C25.2 39.23 21.45 40.88 13.8 40.88 Z" class="st3"/>
					</g>
				</g>
				<g id="group638-13" transform="translate(0,-19.5)" v:mID="638" v:groupContext="group" v:layerMember="0">
					<title>Sheet.638</title>
					<g id="shape639-14" v:mID="639" v:groupContext="shape" v:layerMember="0">
						<title>Sheet.639</title>
						<path d="M0 34.13 C0 29.48 8.1 27.38 16.12 27.38 C24.15 27.38 32.25 29.48 32.25 34.13 L32.25 35.18 L32.25
									 63.38 C31.8 68.18 26.1 70.8 16.12 70.8 C6.15 70.88 0.45 68.25 0 63.45 L0 63.38 L0 34.95 L0 34.13
									 Z" class="st1"/>
					</g>
					<g id="shape640-16" v:mID="640" v:groupContext="shape" v:layerMember="0" transform="translate(16.05,-43.5)">
						<title>Sheet.640</title>
					</g>
					<g id="shape641-17" v:mID="641" v:groupContext="shape" v:layerMember="0" transform="translate(2.25,-2.25)">
						<title>Sheet.641</title>
						<path d="M13.87 43.13 C8.4 43.13 2.93 42.15 0 40.13 L0 65.48 C0.45 70.5 10.35 70.88 13.87 70.88 C17.4 70.88
									 27.3 70.5 27.75 65.48 L27.75 40.13 C24.75 42.15 19.27 43.13 13.87 43.13 Z" class="st4"/>
					</g>
					<g id="shape642-19" v:mID="642" v:groupContext="shape" v:layerMember="0" transform="translate(2.25,-32.25)">
						<title>Sheet.642</title>
						<ellipse cx="13.875" cy="66.375" rx="13.875" ry="4.5" class="st4"/>
					</g>
				</g>
			</g>
		</g>
	</g>
</svg>
