<?xml version="1.0" encoding="UTF-8" standalone="no"?>
<!DOCTYPE svg PUBLIC "-//W3C//DTD SVG 1.1//EN" "http://www.w3.org/Graphics/SVG/1.1/DTD/svg11.dtd">
<!-- Generated by Microsoft Visio, SVG Export Database Partition 2.svg Page-1 -->
<svg xmlns="http://www.w3.org/2000/svg" xmlns:xlink="http://www.w3.org/1999/xlink" xmlns:ev="http://www.w3.org/2001/xml-events"
		xmlns:v="http://schemas.microsoft.com/visio/2003/SVGExtensions/" width="1in" height="0.96875in" viewBox="0 0 72 69.75"
		xml:space="preserve" color-interpolation-filters="sRGB" class="st5">
	<v:documentProperties v:langID="4108" v:metric="true" v:viewMarkup="false"/>

	<style type="text/css">
	<![CDATA[
		.st1 {fill:#ffffff;stroke:none;stroke-linecap:butt;stroke-width:0.75}
		.st2 {fill:#515050;stroke:none;stroke-linecap:butt;stroke-width:0.75}
		.st3 {fill:#515251;stroke:none;stroke-linecap:butt;stroke-width:0.75}
		.st4 {fill:#515150;stroke:none;stroke-linecap:butt;stroke-width:0.75}
		.st5 {fill:none;fill-rule:evenodd;font-size:12px;overflow:visible;stroke-linecap:square;stroke-miterlimit:3}
	]]>
	</style>

	<g v:mID="0" v:index="1" v:groupContext="foregroundPage">
		<title>Page-1</title>
		<v:pageProperties v:drawingScale="0.0393701" v:pageScale="0.0393701" v:drawingUnits="24" v:shadowOffsetX="8.50394"
				v:shadowOffsetY="-8.50394"/>
		<v:layer v:name="symbols" v:index="0"/>
		<g id="group568-1" transform="translate(7.3125,-1.6125)" v:mID="568" v:groupContext="group" v:layerMember="0">
			<title>Database Partition 2</title>
			<g id="group569-2" v:mID="569" v:groupContext="group" v:layerMember="0">
				<title>Sheet.569</title>
				<g id="group570-3" transform="translate(-3.11751E-13,-9.825)" v:mID="570" v:groupContext="group" v:layerMember="0">
					<title>Sheet.570</title>
					<g id="shape571-4" v:mID="571" v:groupContext="shape" v:layerMember="0">
						<title>Sheet.571</title>
						<path d="M26.63 69.75 C11.92 69.75 0 57.83 0 43.13 C0 28.43 11.92 16.5 26.63 16.5 C41.33 16.5 53.25 28.43
									 53.25 43.13 C53.25 57.83 41.33 69.75 26.63 69.75 Z" class="st1"/>
					</g>
					<g id="shape572-6" v:mID="572" v:groupContext="shape" v:layerMember="0" transform="translate(2.25,-2.25)">
						<title>Sheet.572</title>
						<ellipse cx="24.375" cy="45.375" rx="24.375" ry="24.375" class="st2"/>
					</g>
					<g id="shape573-8" v:mID="573" v:groupContext="shape" v:layerMember="0" transform="translate(25.5,-3)">
						<title>Sheet.573</title>
						<path d="M2.25 69.75 L0 69.75 L0 67.5 L2.25 67.5 L2.25 69.75 ZM2.25 65.25 L0 65.25 L0 63 L2.25 63 L2.25 65.25
									 ZM2.25 60.75 L0 60.75 L0 58.5 L2.25 58.5 L2.25 60.75 ZM2.25 56.25 L0 56.25 L0 54 L2.25 54 L2.25
									 56.25 ZM2.25 51.75 L0 51.75 L0 49.5 L2.25 49.5 L2.25 51.75 ZM2.25 47.25 L0 47.25 L0 45 L2.25
									 45 L2.25 47.25 ZM2.25 42.75 L0 42.75 L0 40.5 L2.25 40.5 L2.25 42.75 ZM2.25 38.25 L0 38.25 L0
									 36 L2.25 36 L2.25 38.25 ZM2.25 33.75 L0 33.75 L0 31.5 L2.25 31.5 L2.25 33.75 ZM2.25 29.25 L0
									 29.25 L0 27 L2.25 27 L2.25 29.25 ZM2.25 24.75 L0 24.75 L0 22.5 L2.25 22.5 L2.25 24.75 Z"
								class="st1"/>
					</g>
				</g>
				<g id="group574-10" transform="translate(35.25,-3.12639E-13)" v:mID="574" v:groupContext="group" v:layerMember="0">
					<title>Sheet.574</title>
					<g id="shape575-11" v:mID="575" v:groupContext="shape" v:layerMember="0">
						<title>Sheet.575</title>
						<path d="M26.18 43.13 C26.18 38.93 19.13 37.43 13.05 37.43 C6.98 37.43 0 38.93 0 43.13 L0 43.8 L0 62.48 L0
									 63.45 L0 63.53 C0.38 67.5 5.03 69.75 13.05 69.75 C21.15 69.75 25.8 67.58 26.1 63.53 L26.1 63.45
									 L26.1 62.4 L26.1 44.03 L26.1 43.13 L26.18 43.13 Z" class="st1"/>
					</g>
					<g id="shape576-13" v:mID="576" v:groupContext="shape" v:layerMember="0" transform="translate(2.25,-2.325)">
						<title>Sheet.576</title>
						<path d="M10.88 50.4 C6.6 50.4 2.25 49.65 0 48 L0 64.73 L0 65.63 C0.38 69.45 8.1 69.75 10.8 69.75 C13.5 69.75
									 21.3 69.45 21.6 65.63 L21.6 64.73 L21.6 48 C19.5 49.65 15.15 50.4 10.88 50.4 Z" class="st3"/>
					</g>
					<g id="shape577-15" v:mID="577" v:groupContext="shape" v:layerMember="0" transform="translate(2.25,-23.175)">
						<title>Sheet.577</title>
						<ellipse cx="10.875" cy="66.3" rx="10.875" ry="3.45" class="st4"/>
					</g>
				</g>
			</g>
		</g>
	</g>
</svg>
