<?xml version="1.0" encoding="UTF-8" standalone="no"?>
<!DOCTYPE svg PUBLIC "-//W3C//DTD SVG 1.1//EN" "http://www.w3.org/Graphics/SVG/1.1/DTD/svg11.dtd">
<!-- Generated by Microsoft Visio, SVG Export Database.svg Page-1 -->
<svg xmlns="http://www.w3.org/2000/svg" xmlns:xlink="http://www.w3.org/1999/xlink" xmlns:ev="http://www.w3.org/2001/xml-events"
		xmlns:v="http://schemas.microsoft.com/visio/2003/SVGExtensions/" width="0.78125in" height="0.953125in"
		viewBox="0 0 56.25 68.625" xml:space="preserve" color-interpolation-filters="sRGB" class="st4">
	<v:documentProperties v:langID="4108" v:metric="true" v:viewMarkup="false"/>

	<style type="text/css">
	<![CDATA[
		.st1 {fill:#ffffff;stroke:none;stroke-linecap:butt;stroke-width:0.75}
		.st2 {fill:#515251;stroke:none;stroke-linecap:butt;stroke-width:0.75}
		.st3 {fill:#515150;stroke:none;stroke-linecap:butt;stroke-width:0.75}
		.st4 {fill:none;fill-rule:evenodd;font-size:12px;overflow:visible;stroke-linecap:square;stroke-miterlimit:3}
	]]>
	</style>

	<g v:mID="0" v:index="1" v:groupContext="foregroundPage">
		<title>Page-1</title>
		<v:pageProperties v:drawingScale="0.0393701" v:pageScale="0.0393701" v:drawingUnits="24" v:shadowOffsetX="8.50394"
				v:shadowOffsetY="-8.50394"/>
		<v:layer v:name="symbols" v:index="0"/>
		<g id="group39-1" transform="translate(8.775,-7.6875)" v:mID="39" v:groupContext="group" v:layerMember="0">
			<title>Database</title>
			<g id="group40-2" v:mID="40" v:groupContext="group" v:layerMember="0">
				<title>Sheet.40</title>
				<g id="shape41-3" v:mID="41" v:groupContext="shape" v:layerMember="0">
					<title>Sheet.41</title>
					<path d="M39.75 24.75 L39.75 58.13 L39.75 59.78 L39.75 59.85 C39.08 67.5 27 68.63 19.87 68.63 C12.75 68.63 0.68
								 67.5 0 59.85 L0 59.78 L0 58.2 L0 24.75 L0 23.25 C-0 17.78 9.98 15.38 19.87 15.38 C29.78 15.38 39.75
								 17.78 39.75 23.25 L39.75 24.75 Z" class="st1"/>
				</g>
				<g id="shape42-5" v:mID="42" v:groupContext="shape" v:layerMember="0" transform="translate(2.25,-2.25)">
					<title>Sheet.42</title>
					<path d="M17.63 33.38 C10.58 33.38 3.53 32.18 0 29.48 L0 60.38 L0 61.88 C0.53 68.1 13.2 68.63 17.63 68.63 C22.05
								 68.63 34.65 68.1 35.25 61.88 L35.25 60.38 L35.25 29.48 C31.73 32.18 24.68 33.38 17.63 33.38 Z"
							class="st2"/>
				</g>
				<g id="shape43-7" v:mID="43" v:groupContext="shape" v:layerMember="0" transform="translate(2.25,-39.75)">
					<title>Sheet.43</title>
					<ellipse cx="17.625" cy="63" rx="17.625" ry="5.625" class="st3"/>
				</g>
			</g>
		</g>
	</g>
</svg>
