<?xml version="1.0" encoding="UTF-8" standalone="no"?>
<!DOCTYPE svg PUBLIC "-//W3C//DTD SVG 1.1//EN" "http://www.w3.org/Graphics/SVG/1.1/DTD/svg11.dtd">
<!-- Generated by Microsoft Visio, SVG Export Database Partition 3.svg Page-1 -->
<svg xmlns="http://www.w3.org/2000/svg" xmlns:xlink="http://www.w3.org/1999/xlink" xmlns:ev="http://www.w3.org/2001/xml-events"
		xmlns:v="http://schemas.microsoft.com/visio/2003/SVGExtensions/" width="1in" height="0.96875in" viewBox="0 0 72 69.75"
		xml:space="preserve" color-interpolation-filters="sRGB" class="st5">
	<v:documentProperties v:langID="4108" v:metric="true" v:viewMarkup="false"/>

	<style type="text/css">
	<![CDATA[
		.st1 {fill:#ffffff;stroke:none;stroke-linecap:butt;stroke-width:0.75}
		.st2 {fill:#515050;stroke:none;stroke-linecap:butt;stroke-width:0.75}
		.st3 {fill:#515251;stroke:none;stroke-linecap:butt;stroke-width:0.75}
		.st4 {fill:#515150;stroke:none;stroke-linecap:butt;stroke-width:0.75}
		.st5 {fill:none;fill-rule:evenodd;font-size:12px;overflow:visible;stroke-linecap:square;stroke-miterlimit:3}
	]]>
	</style>

	<g v:mID="0" v:index="1" v:groupContext="foregroundPage">
		<title>Page-1</title>
		<v:pageProperties v:drawingScale="0.0393701" v:pageScale="0.0393701" v:drawingUnits="24" v:shadowOffsetX="8.50394"
				v:shadowOffsetY="-8.50394"/>
		<v:layer v:name="symbols" v:index="0"/>
		<g id="group578-1" transform="translate(7.6875,-1.6125)" v:mID="578" v:groupContext="group" v:layerMember="0">
			<title>Database Partition 3</title>
			<g id="group579-2" v:mID="579" v:groupContext="group" v:layerMember="0">
				<title>Sheet.579</title>
				<g id="shape580-3" v:mID="580" v:groupContext="shape" v:layerMember="0" transform="translate(-2.9976E-13,-9.825)">
					<title>Sheet.580</title>
					<path d="M26.63 69.75 C11.92 69.75 0 57.83 0 43.13 C0 28.43 11.93 16.5 26.63 16.5 C41.33 16.5 53.25 28.43 53.25
								 43.13 C53.25 57.83 41.33 69.75 26.63 69.75 Z" class="st1"/>
				</g>
				<g id="shape581-5" v:mID="581" v:groupContext="shape" v:layerMember="0" transform="translate(2.25,-12.075)">
					<title>Sheet.581</title>
					<ellipse cx="24.375" cy="45.375" rx="24.375" ry="24.375" class="st2"/>
				</g>
				<g id="group582-7" transform="translate(3.3,-23.775)" v:mID="582" v:groupContext="group" v:layerMember="0">
					<title>Sheet.582</title>
					<g id="shape583-8" v:mID="583" v:groupContext="shape" v:layerMember="0" transform="translate(22.2,-16.05)">
						<title>Sheet.583</title>
						<path d="M2.25 69.75 L0 69.75 L0 67.5 L2.25 67.5 L2.25 69.75 ZM2.25 65.25 L0 65.25 L0 63 L2.25 63 L2.25 65.25
									 ZM2.25 60.75 L0 60.75 L0 58.5 L2.25 58.5 L2.25 60.75 ZM2.25 56.25 L0 56.25 L0 54 L2.25 54 L2.25
									 56.25 ZM2.25 51.75 L0 51.75 L0 49.5 L2.25 49.5 L2.25 51.75 Z" class="st1"/>
					</g>
					<g id="shape584-10" v:mID="584" v:groupContext="shape" v:layerMember="0">
						<title>Sheet.584</title>
						<path d="M21.52 55.65 L22.65 57.6 L20.7 58.73 L19.57 56.78 L21.52 55.65 ZM17.62 57.83 L18.75 59.78 L16.8
									 60.9 L15.67 58.95 L17.62 57.83 ZM13.72 60.08 L14.85 62.03 L12.9 63.15 L11.77 61.2 L13.72 60.08
									 ZM9.82 62.25 L10.95 64.2 L9 65.33 L7.87 63.38 L9.82 62.25 ZM5.85 64.5 L6.97 66.45 L5.02 67.58
									 L3.9 65.63 L5.85 64.5 ZM1.95 66.68 L3.07 68.63 L1.12 69.75 L0 67.8 L1.95 66.68 Z" class="st1"/>
					</g>
					<g id="shape585-12" v:mID="585" v:groupContext="shape" v:layerMember="0" transform="translate(24,0)">
						<title>Sheet.585</title>
						<path d="M3.07 56.78 L1.95 58.73 L0 57.6 L1.12 55.65 L3.07 56.78 ZM6.97 58.95 L5.85 60.9 L3.9 59.78 L5.02
									 57.83 L6.97 58.95 ZM10.87 61.2 L9.75 63.15 L7.8 62.03 L8.92 60.08 L10.87 61.2 ZM14.85 63.38
									 L13.72 65.33 L11.77 64.2 L12.9 62.25 L14.85 63.38 ZM18.75 65.63 L17.62 67.58 L15.67 66.45 L16.8
									 64.5 L18.75 65.63 ZM22.65 67.8 L21.52 69.75 L19.57 68.63 L20.7 66.68 L22.65 67.8 Z"
								class="st1"/>
					</g>
				</g>
				<g id="group586-14" transform="translate(35.25,-3.12639E-13)" v:mID="586" v:groupContext="group" v:layerMember="0">
					<title>Sheet.586</title>
					<g id="shape587-15" v:mID="587" v:groupContext="shape" v:layerMember="0">
						<title>Sheet.587</title>
						<path d="M26.25 43.13 C26.25 38.93 19.2 37.43 13.12 37.43 C7.05 37.43 0 38.93 0 43.13 L0 43.8 L0 62.48 L0
									 63.45 L0 63.53 C0.37 67.5 5.02 69.75 13.05 69.75 C21.15 69.75 25.8 67.58 26.1 63.53 L26.1 63.45
									 L26.1 62.4 L26.1 44.03 L26.1 43.13 L26.25 43.13 Z" class="st1"/>
					</g>
					<g id="shape588-17" v:mID="588" v:groupContext="shape" v:layerMember="0" transform="translate(2.25,-2.325)">
						<title>Sheet.588</title>
						<path d="M10.87 50.4 C6.6 50.4 2.25 49.65 0 48 L0 64.73 L0 65.63 C0.37 69.45 8.1 69.75 10.8 69.75 C13.5 69.75
									 21.3 69.45 21.6 65.63 L21.6 64.73 L21.6 48 C19.57 49.65 15.22 50.4 10.87 50.4 Z" class="st3"/>
					</g>
					<g id="shape589-19" v:mID="589" v:groupContext="shape" v:layerMember="0" transform="translate(2.25,-23.175)">
						<title>Sheet.589</title>
						<ellipse cx="10.875" cy="66.3" rx="10.875" ry="3.45" class="st4"/>
					</g>
				</g>
			</g>
		</g>
	</g>
</svg>
