<?xml version="1.0" encoding="UTF-8" standalone="no"?>
<!DOCTYPE svg PUBLIC "-//W3C//DTD SVG 1.1//EN" "http://www.w3.org/Graphics/SVG/1.1/DTD/svg11.dtd">
<!-- Generated by Microsoft Visio, SVG Export Database Partition 4.svg Page-1 -->
<svg xmlns="http://www.w3.org/2000/svg" xmlns:xlink="http://www.w3.org/1999/xlink" xmlns:ev="http://www.w3.org/2001/xml-events"
		xmlns:v="http://schemas.microsoft.com/visio/2003/SVGExtensions/" width="1in" height="0.96875in" viewBox="0 0 72 69.75"
		xml:space="preserve" color-interpolation-filters="sRGB" class="st5">
	<v:documentProperties v:langID="4108" v:metric="true" v:viewMarkup="false"/>

	<style type="text/css">
	<![CDATA[
		.st1 {fill:#ffffff;stroke:none;stroke-linecap:butt;stroke-width:0.75}
		.st2 {fill:#515050;stroke:none;stroke-linecap:butt;stroke-width:0.75}
		.st3 {fill:#515251;stroke:none;stroke-linecap:butt;stroke-width:0.75}
		.st4 {fill:#515150;stroke:none;stroke-linecap:butt;stroke-width:0.75}
		.st5 {fill:none;fill-rule:evenodd;font-size:12px;overflow:visible;stroke-linecap:square;stroke-miterlimit:3}
	]]>
	</style>

	<g v:mID="0" v:index="1" v:groupContext="foregroundPage">
		<title>Page-1</title>
		<v:pageProperties v:drawingScale="0.0393701" v:pageScale="0.0393701" v:drawingUnits="24" v:shadowOffsetX="8.50394"
				v:shadowOffsetY="-8.50394"/>
		<v:layer v:name="symbols" v:index="0"/>
		<g id="group590-1" transform="translate(7.875,-1.6125)" v:mID="590" v:groupContext="group" v:layerMember="0">
			<title>Database Partition 4</title>
			<g id="group591-2" v:mID="591" v:groupContext="group" v:layerMember="0">
				<title>Sheet.591</title>
				<g id="group592-3" transform="translate(-2.9976E-13,-9.825)" v:mID="592" v:groupContext="group" v:layerMember="0">
					<title>Sheet.592</title>
					<g id="shape593-4" v:mID="593" v:groupContext="shape" v:layerMember="0">
						<title>Sheet.593</title>
						<path d="M26.63 69.75 C11.92 69.75 0 57.83 0 43.13 C0 28.43 11.93 16.5 26.63 16.5 C41.33 16.5 53.25 28.43
									 53.25 43.13 C53.25 57.83 41.33 69.75 26.63 69.75 Z" class="st1"/>
					</g>
					<g id="shape594-6" v:mID="594" v:groupContext="shape" v:layerMember="0" transform="translate(2.25,-2.25)">
						<title>Sheet.594</title>
						<ellipse cx="24.375" cy="45.375" rx="24.375" ry="24.375" class="st2"/>
					</g>
					<g id="shape595-8" v:mID="595" v:groupContext="shape" v:layerMember="0" transform="translate(25.5,-3)">
						<title>Sheet.595</title>
						<path d="M2.25 69.75 L0 69.75 L0 67.5 L2.25 67.5 L2.25 69.75 ZM2.25 65.25 L0 65.25 L0 63 L2.25 63 L2.25 65.25
									 ZM2.25 60.75 L0 60.75 L0 58.5 L2.25 58.5 L2.25 60.75 ZM2.25 56.25 L0 56.25 L0 54 L2.25 54 L2.25
									 56.25 ZM2.25 51.75 L0 51.75 L0 49.5 L2.25 49.5 L2.25 51.75 ZM2.25 47.25 L0 47.25 L0 45 L2.25
									 45 L2.25 47.25 ZM2.25 42.75 L0 42.75 L0 40.5 L2.25 40.5 L2.25 42.75 ZM2.25 38.25 L0 38.25 L0
									 36 L2.25 36 L2.25 38.25 ZM2.25 33.75 L0 33.75 L0 31.5 L2.25 31.5 L2.25 33.75 ZM2.25 29.25 L0
									 29.25 L0 27 L2.25 27 L2.25 29.25 ZM2.25 24.75 L0 24.75 L0 22.5 L2.25 22.5 L2.25 24.75 Z"
								class="st1"/>
					</g>
					<g id="shape596-10" v:mID="596" v:groupContext="shape" v:layerMember="0" transform="translate(3,-25.5)">
						<title>Sheet.596</title>
						<path d="M0 69.75 L0 67.5 L2.25 67.5 L2.25 69.75 L0 69.75 ZM4.5 69.75 L4.5 67.5 L6.75 67.5 L6.75 69.75 L4.5
									 69.75 ZM9 69.75 L9 67.5 L11.25 67.5 L11.25 69.75 L9 69.75 ZM13.5 69.75 L13.5 67.5 L15.75 67.5
									 L15.75 69.75 L13.5 69.75 ZM18 69.75 L18 67.5 L20.25 67.5 L20.25 69.75 L18 69.75 ZM22.5 69.75
									 L22.5 67.5 L24.75 67.5 L24.75 69.75 L22.5 69.75 ZM27 69.75 L27 67.5 L29.25 67.5 L29.25 69.75
									 L27 69.75 ZM31.5 69.75 L31.5 67.5 L33.75 67.5 L33.75 69.75 L31.5 69.75 ZM36 69.75 L36 67.5 L38.25
									 67.5 L38.25 69.75 L36 69.75 ZM40.5 69.75 L40.5 67.5 L42.75 67.5 L42.75 69.75 L40.5 69.75 ZM45
									 69.75 L45 67.5 L47.25 67.5 L47.25 69.75 L45 69.75 Z" class="st1"/>
					</g>
				</g>
				<g id="group597-12" transform="translate(35.25,-3.12639E-13)" v:mID="597" v:groupContext="group" v:layerMember="0">
					<title>Sheet.597</title>
					<g id="shape598-13" v:mID="598" v:groupContext="shape" v:layerMember="0">
						<title>Sheet.598</title>
						<path d="M26.25 43.13 C26.25 38.93 19.2 37.43 13.12 37.43 C7.05 37.43 0 38.93 0 43.13 L0 43.8 L0 62.48 L0
									 63.45 L0 63.53 C0.37 67.5 5.02 69.75 13.05 69.75 C21.15 69.75 25.8 67.58 26.1 63.53 L26.1 63.45
									 L26.1 62.4 L26.1 44.03 L26.1 43.13 L26.25 43.13 Z" class="st1"/>
					</g>
					<g id="shape599-15" v:mID="599" v:groupContext="shape" v:layerMember="0" transform="translate(2.25,-2.325)">
						<title>Sheet.599</title>
						<path d="M10.87 50.4 C6.6 50.4 2.25 49.65 0 48 L0 64.73 L0 65.63 C0.37 69.45 8.1 69.75 10.8 69.75 C13.5 69.75
									 21.3 69.45 21.6 65.63 L21.6 64.73 L21.6 48 C19.57 49.65 15.22 50.4 10.87 50.4 Z" class="st3"/>
					</g>
					<g id="shape600-17" v:mID="600" v:groupContext="shape" v:layerMember="0" transform="translate(2.25,-23.175)">
						<title>Sheet.600</title>
						<ellipse cx="10.875" cy="66.3" rx="10.875" ry="3.45" class="st4"/>
					</g>
				</g>
			</g>
		</g>
	</g>
</svg>
