<?xml version="1.0" encoding="UTF-8" standalone="no"?>
<!DOCTYPE svg PUBLIC "-//W3C//DTD SVG 1.1//EN" "http://www.w3.org/Graphics/SVG/1.1/DTD/svg11.dtd">
<!-- Generated by Microsoft Visio, SVG Export Database Cube - ghosted.svg Page-1 -->
<svg xmlns="http://www.w3.org/2000/svg" xmlns:xlink="http://www.w3.org/1999/xlink" xmlns:ev="http://www.w3.org/2001/xml-events"
		xmlns:v="http://schemas.microsoft.com/visio/2003/SVGExtensions/" width="0.875in" height="0.984375in"
		viewBox="0 0 63 70.875" xml:space="preserve" color-interpolation-filters="sRGB" class="st4">
	<v:documentProperties v:langID="4108" v:metric="true" v:viewMarkup="false"/>

	<style type="text/css">
	<![CDATA[
		.st1 {fill:#ffffff;stroke:none;stroke-linecap:butt;stroke-width:0.75}
		.st2 {fill:#9c9c9d;stroke:none;stroke-linecap:butt;stroke-width:0.75}
		.st3 {fill:#cccbcb;stroke:none;stroke-linecap:butt;stroke-width:0.75}
		.st4 {fill:none;fill-rule:evenodd;font-size:12px;overflow:visible;stroke-linecap:square;stroke-miterlimit:3}
	]]>
	</style>

	<g v:mID="0" v:index="1" v:groupContext="foregroundPage">
		<title>Page-1</title>
		<v:pageProperties v:drawingScale="0.0393701" v:pageScale="0.0393701" v:drawingUnits="24" v:shadowOffsetX="8.50394"
				v:shadowOffsetY="-8.50394"/>
		<v:layer v:name="symbols" v:index="0"/>
		<g id="group227-1" transform="translate(6.1875,-6.6)" v:mID="227" v:groupContext="group" v:layerMember="0">
			<title>Database Cube - ghosted</title>
			<g id="group228-2" v:mID="228" v:groupContext="group" v:layerMember="0">
				<title>Sheet.228</title>
				<g id="shape229-3" v:mID="229" v:groupContext="shape" v:layerMember="0">
					<title>Sheet.229</title>
					<path d="M0 56.18 L0 27.6 L25.5 13.2 L51 27.98 L51 55.8 L25.5 70.88 L0 56.18 Z" class="st1"/>
				</g>
				<g id="shape230-5" v:mID="230" v:groupContext="shape" v:layerMember="0" transform="translate(2.25,-3.075)">
					<title>Sheet.230</title>
					<path d="M40.5 43.2 L46.5 39.6 L46.5 32.55 L40.5 36.08 L40.5 43.2 ZM32.25 47.85 L39 43.95 L39 36.9 L32.25 40.8
								 L32.25 47.85 ZM24 52.73 L30.75 48.83 L30.75 41.7 L24 45.6 L24 52.73 ZM40.5 52.05 L46.5 48.6 L46.5
								 41.48 L40.5 44.93 L40.5 52.05 ZM32.25 56.85 L39 52.95 L39 45.83 L32.25 49.73 L32.25 56.85 ZM24 61.65
								 L30.75 57.75 L30.75 50.63 L24 54.53 L24 61.65 ZM40.5 61.2 L46.5 57.68 L46.5 50.55 L40.5 54.08 L40.5
								 61.2 ZM32.25 66 L39 62.1 L39 54.98 L32.25 58.88 L32.25 66 ZM24 70.73 L30.75 66.83 L30.75 59.7 L24
								 63.6 L24 70.73 ZM6 43.28 L0 39.68 L0 32.7 L6 36.15 L6 43.28 ZM14.25 47.93 L7.5 44.03 L7.5 36.98
								 L14.25 40.95 L14.25 47.93 ZM22.5 52.8 L15.75 48.9 L15.75 41.78 L22.5 45.68 L22.5 52.8 ZM6 52.13
								 L0 48.68 L0 41.55 L6 45 L6 52.13 ZM14.25 56.93 L7.5 53.03 L7.5 45.9 L14.25 49.8 L14.25 56.93 ZM22.5
								 61.73 L15.75 57.83 L15.75 50.7 L22.5 54.6 L22.5 61.73 ZM6 61.28 L0 57.75 L0 50.63 L6 54.15 L6 61.28
								 ZM14.25 66.08 L7.5 62.1 L7.5 54.98 L14.25 58.95 L14.25 66.08 ZM22.5 70.88 L15.75 66.98 L15.75 59.78
								 L22.5 63.68 L22.5 70.88 ZM1.43 31.43 L7.65 27.9 L13.87 31.43 L7.65 35.03 L1.43 31.43 ZM9.38 26.93
								 L15.37 23.4 L21.52 26.93 L15.45 30.45 L9.38 26.93 ZM17.02 22.43 L23.25 18.83 L29.4 22.43 L23.25
								 26.03 L17.02 22.43 ZM9.22 35.93 L15.45 32.4 L21.6 35.93 L15.37 39.6 L9.22 35.93 ZM17.18 31.43 L23.25
								 27.9 L29.32 31.35 L23.25 35.03 L17.18 31.43 ZM24.9 26.93 L31.05 23.4 L37.12 26.85 L30.97 30.45 L24.9
								 26.93 ZM16.87 40.43 L23.25 36.9 L29.4 40.43 L23.25 44.1 L16.87 40.43 ZM24.9 35.93 L30.97 32.4 L37.2
								 36 L31.13 39.53 L24.9 35.93 ZM32.63 31.43 L38.78 27.83 L45.07 31.43 L38.85 35.03 L32.63 31.43 Z"
							class="st2"/>
				</g>
				<g id="group231-7" transform="translate(2.25,-3.15)" v:mID="231" v:groupContext="group" v:layerMember="0">
					<title>Sheet.231</title>
					<g id="shape232-8" v:mID="232" v:groupContext="shape" v:layerMember="0" transform="translate(1.425,-38.775)">
						<title>Sheet.232</title>
						<path d="M0.97 70.88 L3.6 68.33 L0 70.35 L0.97 70.88 Z" class="st3"/>
					</g>
					<g id="shape233-10" v:mID="233" v:groupContext="shape" v:layerMember="0"
							transform="translate(-2.3169E-14,-36.3)">
						<title>Sheet.233</title>
						<path d="M1.13 69.75 L0 69.08 L0 70.88 L1.13 69.75 Z" class="st3"/>
					</g>
					<g id="shape234-12" v:mID="234" v:groupContext="shape" v:layerMember="0" transform="translate(0,-31.8)">
						<title>Sheet.234</title>
						<path d="M3.97 66.9 L2.63 66.08 L0 68.7 L0 70.88 L3.97 66.9 Z" class="st3"/>
					</g>
					<g id="shape235-14" v:mID="235" v:groupContext="shape" v:layerMember="0" transform="translate(9.675,-42.9)">
						<title>Sheet.235</title>
						<path d="M5.7 66.45 L0.68 69.38 L0 70.13 L1.28 70.88 L5.7 66.45 Z" class="st3"/>
					</g>
					<g id="shape236-16" v:mID="236" v:groupContext="shape" v:layerMember="0" transform="translate(3.9,-37.125)">
						<title>Sheet.236</title>
						<path d="M1.35 70.88 L5.85 66.3 L4.5 65.55 L0 70.13 L1.35 70.88 Z" class="st3"/>
					</g>
					<g id="shape237-18" v:mID="237" v:groupContext="shape" v:layerMember="0"
							transform="translate(2.32314E-14,-27.3)">
						<title>Sheet.237</title>
						<path d="M0 69 L0 70.88 L1.2 69.68 L0 69 Z" class="st3"/>
					</g>
					<g id="shape238-20" v:mID="238" v:groupContext="shape" v:layerMember="0" transform="translate(6.75,-35.7)">
						<title>Sheet.238</title>
						<path d="M2.62 69.83 L5.85 66.53 L4.5 65.78 L0 70.35 L0.9 70.88 L2.62 69.83 Z" class="st3"/>
					</g>
					<g id="shape239-22" v:mID="239" v:groupContext="shape" v:layerMember="0" transform="translate(1.05,-29.7)">
						<title>Sheet.239</title>
						<path d="M4.95 66 L4.43 65.63 L0 70.13 L1.28 70.88 L4.95 67.2 L4.95 66 Z" class="st3"/>
					</g>
					<g id="shape240-24" v:mID="240" v:groupContext="shape" v:layerMember="0" transform="translate(12.525,-41.25)">
						<title>Sheet.240</title>
						<path d="M0 70.13 L1.28 70.88 L5.7 66.45 L4.42 65.63 L0 70.13 Z" class="st3"/>
					</g>
					<g id="shape241-26" v:mID="241" v:groupContext="shape" v:layerMember="0" transform="translate(18.15,-46.95)">
						<title>Sheet.241</title>
						<path d="M1.35 70.88 L5.85 66.3 L5.1 65.85 L2.92 67.13 L0 70.13 L1.35 70.88 Z" class="st3"/>
					</g>
					<g id="shape242-28" v:mID="242" v:groupContext="shape" v:layerMember="0" transform="translate(9.6,-33.825)">
						<title>Sheet.242</title>
						<path d="M0.97 69.08 L0 70.13 L1.35 70.88 L5.85 66.38 L0.97 69.08 Z" class="st3"/>
					</g>
					<g id="shape243-30" v:mID="243" v:groupContext="shape" v:layerMember="0" transform="translate(0,-22.8)">
						<title>Sheet.243</title>
						<path d="M4.05 66.83 L2.7 66 L0 68.78 L0 70.88 L4.05 66.83 Z" class="st3"/>
					</g>
					<g id="shape244-32" v:mID="244" v:groupContext="shape" v:layerMember="0" transform="translate(7.5,-30.375)">
						<title>Sheet.244</title>
						<path d="M2.17 68.7 L0.83 67.95 L0 68.78 L0 70.88 L2.17 68.7 Z" class="st3"/>
					</g>
					<g id="shape245-34" v:mID="245" v:groupContext="shape" v:layerMember="0" transform="translate(15.3,-40.35)">
						<title>Sheet.245</title>
						<path d="M0.15 70.88 L4.65 68.25 L5.78 67.13 L4.43 66.38 L0 70.88 L0.15 70.88 Z" class="st3"/>
					</g>
					<g id="shape246-36" v:mID="246" v:groupContext="shape" v:layerMember="0" transform="translate(3.825,-27.975)">
						<title>Sheet.246</title>
						<path d="M2.17 69.98 L2.17 67.88 L0 70.05 L1.35 70.88 L2.17 69.98 Z" class="st3"/>
					</g>
					<g id="shape247-38" v:mID="247" v:groupContext="shape" v:layerMember="0" transform="translate(21,-45.3)">
						<title>Sheet.247</title>
						<path d="M1.27 70.88 L5.85 66.3 L4.5 65.55 L0 70.13 L1.27 70.88 Z" class="st3"/>
					</g>
					<g id="shape248-40" v:mID="248" v:groupContext="shape" v:layerMember="0"
							transform="translate(-2.3169E-14,-18.3)">
						<title>Sheet.248</title>
						<path d="M1.13 69.75 L0 69 L0 70.88 L1.13 69.75 Z" class="st3"/>
					</g>
					<g id="shape249-42" v:mID="249" v:groupContext="shape" v:layerMember="0" transform="translate(25.425,-45.975)">
						<title>Sheet.249</title>
						<path d="M3.97 68.55 L2.92 67.88 L0 70.88 L3.97 68.55 Z" class="st3"/>
					</g>
					<g id="shape250-44" v:mID="250" v:groupContext="shape" v:layerMember="0" transform="translate(7.5,-26.4)">
						<title>Sheet.250</title>
						<path d="M0.6 70.88 L4.95 66.45 L3.68 65.63 L0 69.3 L0 70.58 L0.6 70.88 Z" class="st3"/>
					</g>
					<g id="shape251-46" v:mID="251" v:groupContext="shape" v:layerMember="0" transform="translate(12.45,-32.1)">
						<title>Sheet.251</title>
						<path d="M5.85 66.23 L4.5 65.48 L0 70.05 L1.27 70.88 L5.85 66.23 Z" class="st3"/>
					</g>
					<g id="shape252-48" v:mID="252" v:groupContext="shape" v:layerMember="0" transform="translate(1.05,-20.7)">
						<title>Sheet.252</title>
						<path d="M1.35 70.88 L4.95 67.28 L4.95 65.78 L4.5 65.55 L0 70.13 L1.35 70.88 Z" class="st3"/>
					</g>
					<g id="shape253-50" v:mID="253" v:groupContext="shape" v:layerMember="0" transform="translate(24.9,-43.65)">
						<title>Sheet.253</title>
						<path d="M0.3 70.88 L1.13 70.05 L0 70.73 L0.3 70.88 Z" class="st3"/>
					</g>
					<g id="shape254-52" v:mID="254" v:groupContext="shape" v:layerMember="0" transform="translate(18.225,-37.95)">
						<title>Sheet.254</title>
						<path d="M1.28 70.88 L5.78 66.38 L5.03 66 L2.78 67.28 L0 70.13 L1.28 70.88 Z" class="st3"/>
					</g>
					<g id="shape255-54" v:mID="255" v:groupContext="shape" v:layerMember="0" transform="translate(9.6,-24.75)">
						<title>Sheet.255</title>
						<path d="M4.65 65.78 L4.35 65.63 L0 70.05 L1.35 70.88 L4.65 67.5 L4.65 65.78 Z" class="st3"/>
					</g>
					<g id="shape256-56" v:mID="256" v:groupContext="shape" v:layerMember="0" transform="translate(26.7,-42)">
						<title>Sheet.256</title>
						<path d="M0 70.13 L1.35 70.88 L5.85 66.38 L4.5 65.63 L0 70.13 Z" class="st3"/>
					</g>
					<g id="shape257-58" v:mID="257" v:groupContext="shape" v:layerMember="0" transform="translate(7.5,-21.3)">
						<title>Sheet.257</title>
						<path d="M2.25 68.63 L0.9 67.8 L0 68.7 L0 70.88 L2.25 68.63 Z" class="st3"/>
					</g>
					<g id="shape258-60" v:mID="258" v:groupContext="shape" v:layerMember="0" transform="translate(15.225,-31.125)">
						<title>Sheet.258</title>
						<path d="M4.73 68.1 L5.92 66.9 L4.58 66.15 L0 70.73 L0.15 70.88 L4.73 68.1 Z" class="st3"/>
					</g>
					<g id="shape259-62" v:mID="259" v:groupContext="shape" v:layerMember="0" transform="translate(21,-36.3)">
						<title>Sheet.259</title>
						<path d="M0 70.13 L1.35 70.88 L5.85 66.38 L4.5 65.63 L0 70.13 Z" class="st3"/>
					</g>
					<g id="shape260-64" v:mID="260" v:groupContext="shape" v:layerMember="0" transform="translate(0,-13.8)">
						<title>Sheet.260</title>
						<path d="M2.63 66.08 L0 68.78 L0 70.88 L3.97 66.9 L2.63 66.08 Z" class="st3"/>
					</g>
					<g id="shape261-66" v:mID="261" v:groupContext="shape" v:layerMember="0" transform="translate(3.9,-19.05)">
						<title>Sheet.261</title>
						<path d="M2.1 67.95 L0 70.05 L1.35 70.88 L2.1 70.13 L2.1 67.95 Z" class="st3"/>
					</g>
					<g id="shape262-68" v:mID="262" v:groupContext="shape" v:layerMember="0" transform="translate(0.975,-11.625)">
						<title>Sheet.262</title>
						<path d="M5.02 67.2 L5.02 65.93 L4.5 65.55 L0 70.05 L1.35 70.88 L5.02 67.2 Z" class="st3"/>
					</g>
					<g id="shape263-70" v:mID="263" v:groupContext="shape" v:layerMember="0" transform="translate(12.45,-23.1)">
						<title>Sheet.263</title>
						<path d="M1.8 70.35 L1.8 68.25 L0 70.05 L1.27 70.88 L1.8 70.35 Z" class="st3"/>
					</g>
					<g id="shape264-72" v:mID="264" v:groupContext="shape" v:layerMember="0" transform="translate(15.75,-25.125)">
						<title>Sheet.264</title>
						<path d="M2.47 68.4 L1.13 67.65 L0 68.78 L0 70.88 L2.47 68.4 Z" class="st3"/>
					</g>
					<g id="shape265-74" v:mID="265" v:groupContext="shape" v:layerMember="0" transform="translate(25.575,-37.125)">
						<title>Sheet.265</title>
						<path d="M3.75 68.63 L2.78 68.03 L0 70.88 L3.75 68.63 Z" class="st3"/>
					</g>
					<g id="shape266-76" v:mID="266" v:groupContext="shape" v:layerMember="0" transform="translate(18.075,-28.875)">
						<title>Sheet.266</title>
						<path d="M1.35 70.88 L5.92 66.3 L5.18 65.93 L3.07 67.05 L0 70.13 L1.35 70.88 Z" class="st3"/>
					</g>
					<g id="shape267-78" v:mID="267" v:groupContext="shape" v:layerMember="0" transform="translate(24.9,-34.65)">
						<title>Sheet.267</title>
						<path d="M0 70.73 L0.3 70.88 L1.2 69.98 L0 70.73 Z" class="st3"/>
					</g>
					<g id="shape268-80" v:mID="268" v:groupContext="shape" v:layerMember="0" transform="translate(29.55,-40.35)">
						<title>Sheet.268</title>
						<path d="M1.35 70.88 L5.85 66.3 L4.5 65.55 L0 70.05 L1.35 70.88 Z" class="st3"/>
					</g>
					<g id="shape269-82" v:mID="269" v:groupContext="shape" v:layerMember="0" transform="translate(7.5,-17.4)">
						<title>Sheet.269</title>
						<path d="M3.75 65.55 L0 69.3 L0 70.58 L0.6 70.88 L5.1 66.38 L3.75 65.55 Z" class="st3"/>
					</g>
					<g id="shape270-84" v:mID="270" v:groupContext="shape" v:layerMember="0" transform="translate(36.375,-43.5)">
						<title>Sheet.270</title>
						<path d="M0.75 70.5 L0.52 70.35 L0 70.88 L0.75 70.5 Z" class="st3"/>
					</g>
					<g id="shape271-86" v:mID="271" v:groupContext="shape" v:layerMember="0" transform="translate(9.6,-15.75)">
						<title>Sheet.271</title>
						<path d="M1.35 70.88 L4.65 67.5 L4.65 65.7 L4.5 65.55 L0 70.13 L1.35 70.88 Z" class="st3"/>
					</g>
					<g id="shape272-88" v:mID="272" v:groupContext="shape" v:layerMember="0" transform="translate(15.75,-21.375)">
						<title>Sheet.272</title>
						<path d="M3.98 65.55 L0 69.53 L0 70.43 L0.83 70.88 L5.33 66.3 L3.98 65.55 Z" class="st3"/>
					</g>
					<g id="shape273-90" v:mID="273" v:groupContext="shape" v:layerMember="0" transform="translate(26.7,-33)">
						<title>Sheet.273</title>
						<path d="M0 70.13 L1.35 70.88 L5.85 66.38 L4.5 65.63 L0 70.13 Z" class="st3"/>
					</g>
					<g id="shape274-92" v:mID="274" v:groupContext="shape" v:layerMember="0" transform="translate(3.825,-9.975)">
						<title>Sheet.274</title>
						<path d="M1.35 70.88 L2.17 70.05 L2.17 67.95 L0 70.13 L1.35 70.88 Z" class="st3"/>
					</g>
					<g id="shape275-94" v:mID="275" v:groupContext="shape" v:layerMember="0" transform="translate(7.5,-12.3)">
						<title>Sheet.275</title>
						<path d="M2.17 68.7 L0.83 67.88 L0 68.7 L0 70.88 L2.17 68.7 Z" class="st3"/>
					</g>
					<g id="shape276-96" v:mID="276" v:groupContext="shape" v:layerMember="0" transform="translate(32.625,-38.7)">
						<title>Sheet.276</title>
						<path d="M1.12 70.88 L4.2 67.8 L0 70.28 L1.12 70.88 Z" class="st3"/>
					</g>
					<g id="shape277-98" v:mID="277" v:groupContext="shape" v:layerMember="0" transform="translate(21,-27.225)">
						<title>Sheet.277</title>
						<path d="M0 70.13 L1.27 70.88 L5.85 66.3 L4.5 65.55 L0 70.13 Z" class="st3"/>
					</g>
					<g id="shape278-100" v:mID="278" v:groupContext="shape" v:layerMember="0" transform="translate(29.55,-31.35)">
						<title>Sheet.278</title>
						<path d="M1.35 70.88 L5.78 66.38 L4.5 65.63 L0 70.13 L1.35 70.88 Z" class="st3"/>
					</g>
					<g id="shape279-102" v:mID="279" v:groupContext="shape" v:layerMember="0" transform="translate(25.425,-27.975)">
						<title>Sheet.279</title>
						<path d="M3.97 68.55 L2.92 67.95 L0 70.88 L3.97 68.55 Z" class="st3"/>
					</g>
					<g id="shape280-104" v:mID="280" v:groupContext="shape" v:layerMember="0" transform="translate(12.45,-14.1)">
						<title>Sheet.280</title>
						<path d="M1.8 68.25 L0 70.05 L1.35 70.88 L1.8 70.35 L1.8 68.25 Z" class="st3"/>
					</g>
					<g id="shape281-106" v:mID="281" v:groupContext="shape" v:layerMember="0" transform="translate(15.75,-16.125)">
						<title>Sheet.281</title>
						<path d="M2.47 68.4 L1.13 67.58 L0 68.78 L0 70.88 L2.47 68.4 Z" class="st3"/>
					</g>
					<g id="shape282-108" v:mID="282" v:groupContext="shape" v:layerMember="0" transform="translate(35.25,-37.05)">
						<title>Sheet.282</title>
						<path d="M1.35 70.88 L5.85 66.3 L4.5 65.55 L0 70.13 L1.35 70.88 Z" class="st3"/>
					</g>
					<g id="shape283-110" v:mID="283" v:groupContext="shape" v:layerMember="0" transform="translate(7.5,-8.325)">
						<title>Sheet.283</title>
						<path d="M3.67 65.55 L0 69.23 L0 70.5 L0.52 70.88 L5.02 66.38 L3.67 65.55 Z" class="st3"/>
					</g>
					<g id="shape284-112" v:mID="284" v:groupContext="shape" v:layerMember="0" transform="translate(18.075,-19.725)">
						<title>Sheet.284</title>
						<path d="M4.43 65.55 L0 70.05 L1.28 70.88 L4.43 67.73 L4.43 65.55 Z" class="st3"/>
					</g>
					<g id="shape285-114" v:mID="285" v:groupContext="shape" v:layerMember="0" transform="translate(24,-24.375)">
						<title>Sheet.285</title>
						<path d="M0 70.88 L1.8 69.08 L0 70.13 L0 70.88 Z" class="st3"/>
					</g>
					<g id="shape286-116" v:mID="286" v:groupContext="shape" v:layerMember="0" transform="translate(38.1,-35.7)">
						<title>Sheet.286</title>
						<path d="M0 70.43 L0.75 70.88 L2.85 69.6 L5.85 66.6 L4.5 65.85 L0 70.43 Z" class="st3"/>
					</g>
					<g id="shape287-118" v:mID="287" v:groupContext="shape" v:layerMember="0" transform="translate(24,-19.875)">
						<title>Sheet.287</title>
						<path d="M6.75 64.05 L6.75 61.95 L0 68.7 L0 70.88 L6.75 64.05 Z" class="st3"/>
					</g>
					<g id="shape288-120" v:mID="288" v:groupContext="shape" v:layerMember="0" transform="translate(9.525,-6.675)">
						<title>Sheet.288</title>
						<path d="M4.73 67.43 L4.73 65.7 L4.5 65.55 L0 70.05 L1.35 70.88 L4.73 67.43 Z" class="st3"/>
					</g>
					<g id="shape289-122" v:mID="289" v:groupContext="shape" v:layerMember="0" transform="translate(15.75,-12.45)">
						<title>Sheet.289</title>
						<path d="M3.98 65.55 L0 69.6 L0 70.35 L0.83 70.88 L5.33 66.38 L3.98 65.55 Z" class="st3"/>
					</g>
					<g id="shape290-124" v:mID="290" v:groupContext="shape" v:layerMember="0" transform="translate(35.925,-34.05)">
						<title>Sheet.290</title>
						<path d="M1.28 70.13 L0.9 69.98 L0 70.88 L1.28 70.13 Z" class="st3"/>
					</g>
					<g id="shape291-126" v:mID="291" v:groupContext="shape" v:layerMember="0" transform="translate(32.25,-28.2)">
						<title>Sheet.291</title>
						<path d="M0 70.88 L4.12 66.75 L0 69.15 L0 70.88 Z" class="st3"/>
					</g>
					<g id="shape292-128" v:mID="292" v:groupContext="shape" v:layerMember="0" transform="translate(20.85,-18.15)">
						<title>Sheet.292</title>
						<path d="M1.65 70.65 L1.65 68.48 L0 70.13 L1.35 70.88 L1.65 70.65 Z" class="st3"/>
					</g>
					<g id="shape293-130" v:mID="293" v:groupContext="shape" v:layerMember="0" transform="translate(32.25,-23.55)">
						<title>Sheet.293</title>
						<path d="M0 68.78 L0 70.88 L6.75 64.05 L6.75 61.95 L0 68.78 Z" class="st3"/>
					</g>
					<g id="shape294-132" v:mID="294" v:groupContext="shape" v:layerMember="0" transform="translate(18.225,-10.725)">
						<title>Sheet.294</title>
						<path d="M4.27 65.85 L0 70.13 L1.35 70.88 L4.27 67.95 L4.27 65.85 Z" class="st3"/>
					</g>
					<g id="shape295-134" v:mID="295" v:groupContext="shape" v:layerMember="0" transform="translate(15.75,-6.825)">
						<title>Sheet.295</title>
						<path d="M1.28 67.43 L0 68.78 L0 70.88 L2.63 68.25 L1.28 67.43 Z" class="st3"/>
					</g>
					<g id="shape296-136" v:mID="296" v:groupContext="shape" v:layerMember="0" transform="translate(24,-15.15)">
						<title>Sheet.296</title>
						<path d="M2.47 68.4 L0 69.83 L0 70.88 L2.47 68.4 Z" class="st3"/>
					</g>
					<g id="shape297-138" v:mID="297" v:groupContext="shape" v:layerMember="0" transform="translate(40.5,-31.875)">
						<title>Sheet.297</title>
						<path d="M1.65 67.13 L0 68.78 L0 70.88 L6 64.8 L6 64.58 L1.65 67.13 Z" class="st3"/>
					</g>
					<g id="shape298-140" v:mID="298" v:groupContext="shape" v:layerMember="0" transform="translate(25.725,-19.05)">
						<title>Sheet.298</title>
						<path d="M5.02 67.95 L5.02 65.78 L0 70.88 L4.87 68.1 L5.02 67.95 Z" class="st3"/>
					</g>
					<g id="shape299-142" v:mID="299" v:groupContext="shape" v:layerMember="0" transform="translate(12.525,-4.875)">
						<title>Sheet.299</title>
						<path d="M0 70.05 L1.35 70.88 L1.72 70.43 L1.72 68.33 L0 70.05 Z" class="st3"/>
					</g>
					<g id="shape300-144" v:mID="300" v:groupContext="shape" v:layerMember="0" transform="translate(40.5,-27.6)">
						<title>Sheet.300</title>
						<path d="M0 70.88 L0.45 70.65 L6 65.03 L6 62.93 L0 69 L0 70.88 Z" class="st3"/>
					</g>
					<g id="shape301-146" v:mID="301" v:groupContext="shape" v:layerMember="0" transform="translate(24,-10.65)">
						<title>Sheet.301</title>
						<path d="M6.75 64.05 L6.75 61.88 L0 68.7 L0 70.88 L6.75 64.05 Z" class="st3"/>
					</g>
					<g id="shape302-148" v:mID="302" v:groupContext="shape" v:layerMember="0" transform="translate(32.25,-19.05)">
						<title>Sheet.302</title>
						<path d="M0 70.88 L4.65 66.23 L0 68.93 L0 70.88 Z" class="st3"/>
					</g>
					<g id="shape303-150" v:mID="303" v:groupContext="shape" v:layerMember="0" transform="translate(36.3,-25.275)">
						<title>Sheet.303</title>
						<path d="M2.7 69.3 L2.7 68.18 L0 70.88 L2.7 69.3 Z" class="st3"/>
					</g>
					<g id="shape304-152" v:mID="304" v:groupContext="shape" v:layerMember="0" transform="translate(21.075,-9.075)">
						<title>Sheet.304</title>
						<path d="M1.43 70.8 L1.43 68.7 L0 70.13 L1.35 70.88 L1.43 70.8 Z" class="st3"/>
					</g>
					<g id="shape305-154" v:mID="305" v:groupContext="shape" v:layerMember="0" transform="translate(15.75,-3.3)">
						<title>Sheet.305</title>
						<path d="M4.12 65.55 L0 69.75 L0 70.35 L0.97 70.88 L5.47 66.38 L4.12 65.55 Z" class="st3"/>
					</g>
					<g id="shape306-156" v:mID="306" v:groupContext="shape" v:layerMember="0" transform="translate(18.225,-1.65)">
						<title>Sheet.306</title>
						<path d="M4.27 67.95 L4.27 65.78 L0 70.13 L1.35 70.88 L4.27 67.95 Z" class="st3"/>
					</g>
					<g id="shape307-158" v:mID="307" v:groupContext="shape" v:layerMember="0" transform="translate(24,-6.075)">
						<title>Sheet.307</title>
						<path d="M2.4 68.4 L0 69.75 L0 70.88 L2.4 68.4 Z" class="st3"/>
					</g>
					<g id="shape308-160" v:mID="308" v:groupContext="shape" v:layerMember="0" transform="translate(40.5,-22.8)">
						<title>Sheet.308</title>
						<path d="M1.95 66.68 L0 68.7 L0 70.88 L6 64.73 L6 64.43 L1.95 66.68 Z" class="st3"/>
					</g>
					<g id="shape309-162" v:mID="309" v:groupContext="shape" v:layerMember="0" transform="translate(32.25,-14.475)">
						<title>Sheet.309</title>
						<path d="M0 68.78 L0 70.88 L6.75 64.05 L6.75 61.88 L0 68.78 Z" class="st3"/>
					</g>
					<g id="shape310-164" v:mID="310" v:groupContext="shape" v:layerMember="0" transform="translate(26.025,-10.275)">
						<title>Sheet.310</title>
						<path d="M4.73 66.08 L0 70.88 L4.73 68.1 L4.73 66.08 Z" class="st3"/>
					</g>
					<g id="shape311-166" v:mID="311" v:groupContext="shape" v:layerMember="0" transform="translate(40.5,-18.675)">
						<title>Sheet.311</title>
						<path d="M0 69.15 L0 70.88 L0.98 70.28 L6 65.18 L6 63 L0 69.15 Z" class="st3"/>
					</g>
					<g id="shape312-168" v:mID="312" v:groupContext="shape" v:layerMember="0" transform="translate(32.25,-9.9)">
						<title>Sheet.312</title>
						<path d="M4.65 66.08 L0 68.85 L0 70.88 L4.65 66.08 Z" class="st3"/>
					</g>
					<g id="shape313-170" v:mID="313" v:groupContext="shape" v:layerMember="0" transform="translate(36.525,-16.35)">
						<title>Sheet.313</title>
						<path d="M0 70.88 L2.47 69.38 L2.47 68.33 L0 70.88 Z" class="st3"/>
					</g>
					<g id="shape314-172" v:mID="314" v:groupContext="shape" v:layerMember="0" transform="translate(24,-1.5)">
						<title>Sheet.314</title>
						<path d="M6.75 63.98 L6.75 61.88 L0 68.7 L0 70.88 L6.75 63.98 Z" class="st3"/>
					</g>
					<g id="shape315-174" v:mID="315" v:groupContext="shape" v:layerMember="0" transform="translate(21.15,0)">
						<title>Sheet.315</title>
						<path d="M1.35 70.88 L1.35 68.7 L0 70.13 L1.35 70.88 Z" class="st3"/>
					</g>
					<g id="shape316-176" v:mID="316" v:groupContext="shape" v:layerMember="0" transform="translate(26.175,-1.275)">
						<title>Sheet.316</title>
						<path d="M4.58 66.23 L0 70.88 L4.58 68.18 L4.58 66.23 Z" class="st3"/>
					</g>
					<g id="shape317-178" v:mID="317" v:groupContext="shape" v:layerMember="0" transform="translate(32.25,-5.325)">
						<title>Sheet.317</title>
						<path d="M6.75 61.88 L0 68.7 L0 70.88 L6.75 63.98 L6.75 61.88 Z" class="st3"/>
					</g>
					<g id="shape318-180" v:mID="318" v:groupContext="shape" v:layerMember="0" transform="translate(40.5,-13.725)">
						<title>Sheet.318</title>
						<path d="M6 64.43 L1.88 66.83 L0 68.7 L0 70.88 L6 64.73 L6 64.43 Z" class="st3"/>
					</g>
					<g id="shape319-182" v:mID="319" v:groupContext="shape" v:layerMember="0" transform="translate(40.5,-9.6)">
						<title>Sheet.319</title>
						<path d="M6 63 L0 69.08 L0 70.88 L0.75 70.5 L6 65.1 L6 63 Z" class="st3"/>
					</g>
					<g id="shape320-184" v:mID="320" v:groupContext="shape" v:layerMember="0" transform="translate(36.45,-7.275)">
						<title>Sheet.320</title>
						<path d="M2.55 68.33 L0 70.88 L2.55 69.45 L2.55 68.33 Z" class="st3"/>
					</g>
				</g>
			</g>
		</g>
	</g>
</svg>
