<?xml version="1.0" encoding="UTF-8" standalone="no"?>
<!DOCTYPE svg PUBLIC "-//W3C//DTD SVG 1.1//EN" "http://www.w3.org/Graphics/SVG/1.1/DTD/svg11.dtd">
<!-- Generated by Microsoft Visio, SVG Export Database, mini 1 - green.svg Page-1 -->
<svg xmlns="http://www.w3.org/2000/svg" xmlns:xlink="http://www.w3.org/1999/xlink" xmlns:ev="http://www.w3.org/2001/xml-events"
		xmlns:v="http://schemas.microsoft.com/visio/2003/SVGExtensions/" width="0.765625in" height="0.640625in"
		viewBox="0 0 55.125 46.125" xml:space="preserve" color-interpolation-filters="sRGB" class="st3">
	<v:documentProperties v:langID="4108" v:metric="true" v:viewMarkup="false"/>

	<style type="text/css">
	<![CDATA[
		.st1 {fill:#ffffff;stroke:none;stroke-linecap:butt;stroke-width:0.75}
		.st2 {fill:#7fba42;stroke:none;stroke-linecap:butt;stroke-width:0.75}
		.st3 {fill:none;fill-rule:evenodd;font-size:12px;overflow:visible;stroke-linecap:square;stroke-miterlimit:3}
	]]>
	</style>

	<g v:mID="0" v:index="1" v:groupContext="foregroundPage">
		<title>Page-1</title>
		<v:pageProperties v:drawingScale="0.0393701" v:pageScale="0.0393701" v:drawingUnits="24" v:shadowOffsetX="8.50394"
				v:shadowOffsetY="-8.50394"/>
		<v:layer v:name="symbols" v:index="0"/>
		<g id="group336-1" transform="translate(7.65,-7.6875)" v:mID="336" v:groupContext="group" v:layerMember="0">
			<title>Database, mini 1 - green</title>
			<g id="group337-2" v:mID="337" v:groupContext="group" v:layerMember="0">
				<title>Sheet.337</title>
				<g id="shape338-3" v:mID="338" v:groupContext="shape" v:layerMember="0">
					<title>Sheet.338</title>
					<path d="M39.75 24.75 L39.75 35.63 L39.75 37.28 L39.75 37.35 C39.08 45 27 46.13 19.87 46.13 C12.75 46.13 0.68
								 45 0 37.35 L0 37.28 L0 35.7 L0 24.75 L0 23.25 C-0 17.78 9.98 15.38 19.87 15.38 C29.78 15.38 39.75
								 17.78 39.75 23.25 L39.75 24.75 Z" class="st1"/>
				</g>
				<g id="shape339-5" v:mID="339" v:groupContext="shape" v:layerMember="0" transform="translate(2.25,-2.25)">
					<title>Sheet.339</title>
					<path d="M17.63 33.38 C10.58 33.38 3.53 32.18 0 29.48 L0 37.88 L0 39.38 C0.53 45.6 13.2 46.13 17.63 46.13 C22.05
								 46.13 34.65 45.6 35.25 39.38 L35.25 37.88 L35.25 29.48 C31.73 32.18 24.68 33.38 17.63 33.38 Z"
							class="st2"/>
				</g>
				<g id="shape340-7" v:mID="340" v:groupContext="shape" v:layerMember="0" transform="translate(2.25,-17.25)">
					<title>Sheet.340</title>
					<ellipse cx="17.625" cy="40.5" rx="17.625" ry="5.625" class="st2"/>
				</g>
			</g>
		</g>
	</g>
</svg>
