<?xml version="1.0" encoding="UTF-8" standalone="no"?>
<!DOCTYPE svg PUBLIC "-//W3C//DTD SVG 1.1//EN" "http://www.w3.org/Graphics/SVG/1.1/DTD/svg11.dtd">
<!-- Generated by Microsoft Visio, SVG Export Database, mini 2 - blue.svg Page-1 -->
<svg xmlns="http://www.w3.org/2000/svg" xmlns:xlink="http://www.w3.org/1999/xlink" xmlns:ev="http://www.w3.org/2001/xml-events"
		xmlns:v="http://schemas.microsoft.com/visio/2003/SVGExtensions/" width="0.734375in" height="0.84375in"
		viewBox="0 0 52.875 60.75" xml:space="preserve" color-interpolation-filters="sRGB" class="st3">
	<v:documentProperties v:langID="4108" v:metric="true" v:viewMarkup="false"/>

	<style type="text/css">
	<![CDATA[
		.st1 {fill:#ffffff;stroke:none;stroke-linecap:butt;stroke-width:0.75}
		.st2 {fill:#2072b8;stroke:none;stroke-linecap:butt;stroke-width:0.75}
		.st3 {fill:none;fill-rule:evenodd;font-size:12px;overflow:visible;stroke-linecap:square;stroke-miterlimit:3}
	]]>
	</style>

	<g v:mID="0" v:index="1" v:groupContext="foregroundPage">
		<title>Page-1</title>
		<v:pageProperties v:drawingScale="0.0393701" v:pageScale="0.0393701" v:drawingUnits="24" v:shadowOffsetX="8.50394"
				v:shadowOffsetY="-8.50394"/>
		<v:layer v:name="symbols" v:index="0"/>
		<g id="group376-1" transform="translate(6.1875,-8.0625)" v:mID="376" v:groupContext="group" v:layerMember="0">
			<title>Database, mini 2 - blue</title>
			<g id="group377-2" v:mID="377" v:groupContext="group" v:layerMember="0">
				<title>Sheet.377</title>
				<g id="shape378-3" v:mID="378" v:groupContext="shape" v:layerMember="0">
					<title>Sheet.378</title>
					<path d="M39.75 24.38 L39.75 22.88 C39.75 17.4 29.78 15 19.87 15 C9.98 15 0 17.4 0 22.88 L0 24.38 L0 50.32 L0
								 51.9 L0 51.98 C0.68 59.63 12.75 60.75 19.87 60.75 C27 60.75 39.08 59.63 39.75 51.98 L39.75 51.9
								 L39.75 50.25 L39.75 24.38 Z" class="st1"/>
				</g>
				<g id="shape379-5" v:mID="379" v:groupContext="shape" v:layerMember="0" transform="translate(2.25,-2.25)">
					<title>Sheet.379</title>
					<path d="M17.63 48 C10.58 48 3.53 46.8 0 44.1 L0 52.5 L0 54 C0.53 60.23 13.2 60.75 17.63 60.75 C22.05 60.75 34.65
								 60.23 35.25 54 L35.25 52.5 L35.25 44.1 C31.73 46.73 24.68 48 17.63 48 Z" class="st2"/>
				</g>
				<g id="shape380-7" v:mID="380" v:groupContext="shape" v:layerMember="0" transform="translate(2.25,-17.25)">
					<title>Sheet.380</title>
					<path d="M17.63 48 C10.58 48 3.53 46.8 0 44.1 L0 52.5 L0 54 C0.53 60.23 13.2 60.75 17.63 60.75 C22.05 60.75 34.65
								 60.23 35.25 54 L35.25 52.5 L35.25 44.1 C31.73 46.73 24.68 48 17.63 48 Z" class="st2"/>
				</g>
				<g id="shape381-9" v:mID="381" v:groupContext="shape" v:layerMember="0" transform="translate(2.25,-32.25)">
					<title>Sheet.381</title>
					<ellipse cx="17.625" cy="55.125" rx="17.625" ry="5.625" class="st2"/>
				</g>
			</g>
		</g>
	</g>
</svg>
