<?xml version="1.0" encoding="UTF-8" standalone="no"?>
<!DOCTYPE svg PUBLIC "-//W3C//DTD SVG 1.1//EN" "http://www.w3.org/Graphics/SVG/1.1/DTD/svg11.dtd">
<!-- Generated by Microsoft Visio, SVG Export Database, mini 2.svg Page-1 -->
<svg xmlns="http://www.w3.org/2000/svg" xmlns:xlink="http://www.w3.org/1999/xlink" xmlns:ev="http://www.w3.org/2001/xml-events"
		xmlns:v="http://schemas.microsoft.com/visio/2003/SVGExtensions/" width="0.75in" height="0.84375in" viewBox="0 0 54 60.75"
		xml:space="preserve" color-interpolation-filters="sRGB" class="st3">
	<v:documentProperties v:langID="4108" v:metric="true" v:viewMarkup="false"/>

	<style type="text/css">
	<![CDATA[
		.st1 {fill:#ffffff;stroke:none;stroke-linecap:butt;stroke-width:0.75}
		.st2 {fill:#515251;stroke:none;stroke-linecap:butt;stroke-width:0.75}
		.st3 {fill:none;fill-rule:evenodd;font-size:12px;overflow:visible;stroke-linecap:square;stroke-miterlimit:3}
	]]>
	</style>

	<g v:mID="0" v:index="1" v:groupContext="foregroundPage">
		<title>Page-1</title>
		<v:pageProperties v:drawingScale="0.0393701" v:pageScale="0.0393701" v:drawingUnits="24" v:shadowOffsetX="8.50394"
				v:shadowOffsetY="-8.50394"/>
		<v:layer v:name="symbols" v:index="0"/>
		<g id="group366-1" transform="translate(6.9,-8.0625)" v:mID="366" v:groupContext="group" v:layerMember="0">
			<title>Database, mini 2</title>
			<g id="group367-2" v:mID="367" v:groupContext="group" v:layerMember="0">
				<title>Sheet.367</title>
				<g id="group368-3" v:mID="368" v:groupContext="group" v:layerMember="0">
					<title>Sheet.368</title>
					<g id="shape369-4" v:mID="369" v:groupContext="shape" v:layerMember="0">
						<title>Sheet.369</title>
						<path d="M39.75 39.38 L39.75 50.25 L39.75 51.9 L39.75 51.98 C39.08 59.63 27 60.75 19.87 60.75 C12.75 60.75
									 0.68 59.63 0 51.98 L0 51.9 L0 50.33 L0 39.38 L0 37.88 C-0 32.4 9.98 30 19.87 30 C29.78 30 39.75
									 32.4 39.75 37.88 L39.75 39.38 Z" class="st1"/>
					</g>
					<g id="shape370-6" v:mID="370" v:groupContext="shape" v:layerMember="0" transform="translate(2.25,-2.25)">
						<title>Sheet.370</title>
						<path d="M17.63 48 C10.58 48 3.53 46.8 0 44.1 L0 52.5 L0 54 C0.53 60.23 13.2 60.75 17.63 60.75 C22.05 60.75
									 34.65 60.23 35.25 54 L35.25 52.5 L35.25 44.1 C31.73 46.8 24.68 48 17.63 48 Z" class="st2"/>
					</g>
					<g id="shape371-8" v:mID="371" v:groupContext="shape" v:layerMember="0" transform="translate(2.25,-17.25)">
						<title>Sheet.371</title>
						<ellipse cx="17.625" cy="55.125" rx="17.625" ry="5.625" class="st2"/>
					</g>
				</g>
				<g id="group372-10" transform="translate(0,-15)" v:mID="372" v:groupContext="group" v:layerMember="0">
					<title>Sheet.372</title>
					<g id="shape373-11" v:mID="373" v:groupContext="shape" v:layerMember="0">
						<title>Sheet.373</title>
						<path d="M39.75 39.38 L39.75 50.25 L39.75 51.9 L39.75 51.98 C39.08 59.63 27 60.75 19.87 60.75 C12.75 60.75
									 0.68 59.63 0 51.98 L0 51.9 L0 50.33 L0 39.38 L0 37.88 C-0 32.4 9.98 30 19.87 30 C29.78 30 39.75
									 32.4 39.75 37.88 L39.75 39.38 Z" class="st1"/>
					</g>
					<g id="shape374-13" v:mID="374" v:groupContext="shape" v:layerMember="0" transform="translate(2.25,-2.25)">
						<title>Sheet.374</title>
						<path d="M17.63 48 C10.58 48 3.53 46.8 0 44.1 L0 52.5 L0 54 C0.53 60.23 13.2 60.75 17.63 60.75 C22.05 60.75
									 34.65 60.23 35.25 54 L35.25 52.5 L35.25 44.1 C31.73 46.8 24.68 48 17.63 48 Z" class="st2"/>
					</g>
					<g id="shape375-15" v:mID="375" v:groupContext="shape" v:layerMember="0" transform="translate(2.25,-17.25)">
						<title>Sheet.375</title>
						<ellipse cx="17.625" cy="55.125" rx="17.625" ry="5.625" class="st2"/>
					</g>
				</g>
			</g>
		</g>
	</g>
</svg>
