<?xml version="1.0" encoding="UTF-8" standalone="no"?>
<!DOCTYPE svg PUBLIC "-//W3C//DTD SVG 1.1//EN" "http://www.w3.org/Graphics/SVG/1.1/DTD/svg11.dtd">
<!-- Generated by Microsoft Visio, SVG Export Mailbox Database.svg Page-1 -->
<svg xmlns="http://www.w3.org/2000/svg" xmlns:xlink="http://www.w3.org/1999/xlink" xmlns:ev="http://www.w3.org/2001/xml-events"
		xmlns:v="http://schemas.microsoft.com/visio/2003/SVGExtensions/" width="0.964844in" height="1.01562in"
		viewBox="0 0 69.4688 73.125" xml:space="preserve" color-interpolation-filters="sRGB" class="st5">
	<v:documentProperties v:langID="4108" v:metric="true" v:viewMarkup="false"/>

	<style type="text/css">
	<![CDATA[
		.st1 {fill:#ffffff;stroke:none;stroke-linecap:butt;stroke-width:0.75}
		.st2 {fill:#515251;stroke:none;stroke-linecap:butt;stroke-width:0.75}
		.st3 {fill:#515150;stroke:none;stroke-linecap:butt;stroke-width:0.75}
		.st4 {fill:#525352;stroke:none;stroke-linecap:butt;stroke-width:0.75}
		.st5 {fill:none;fill-rule:evenodd;font-size:12px;overflow:visible;stroke-linecap:square;stroke-miterlimit:3}
	]]>
	</style>

	<g v:mID="0" v:index="1" v:groupContext="foregroundPage">
		<title>Page-1</title>
		<v:pageProperties v:drawingScale="0.0393701" v:pageScale="0.0393701" v:drawingUnits="24" v:shadowOffsetX="8.50394"
				v:shadowOffsetY="-8.50394"/>
		<v:layer v:name="symbols" v:index="0"/>
		<g id="group683-1" transform="translate(7.96875,-6.9)" v:mID="683" v:groupContext="group" v:layerMember="0">
			<title>Mailbox Database</title>
			<g id="group684-2" v:mID="684" v:groupContext="group" v:layerMember="0">
				<title>Sheet.684</title>
				<g id="group685-3" transform="translate(2.8777E-13,-6)" v:mID="685" v:groupContext="group" v:layerMember="0">
					<title>Sheet.685</title>
					<g id="shape686-4" v:mID="686" v:groupContext="shape" v:layerMember="0">
						<title>Sheet.686</title>
						<path d="M39.75 29.25 L39.75 62.62 L39.75 64.27 L39.75 64.35 C39.07 72 27 73.12 19.87 73.12 C12.75 73.12
									 0.68 72 0 64.35 L0 64.27 L0 62.7 L0 29.25 L0 27.75 C0 22.27 9.98 19.87 19.87 19.87 C29.78 19.87
									 39.75 22.27 39.75 27.75 L39.75 29.25 Z" class="st1"/>
					</g>
					<g id="shape687-6" v:mID="687" v:groupContext="shape" v:layerMember="0" transform="translate(2.25,-2.25)">
						<title>Sheet.687</title>
						<path d="M17.62 37.87 C10.57 37.87 3.53 36.67 0 33.97 L0 64.87 L0 66.37 C0.53 72.6 13.2 73.12 17.62 73.12
									 C22.05 73.12 34.65 72.6 35.25 66.37 L35.25 64.87 L35.25 33.97 C31.72 36.67 24.67 37.87 17.62
									 37.87 Z" class="st2"/>
					</g>
					<g id="shape688-8" v:mID="688" v:groupContext="shape" v:layerMember="0" transform="translate(2.25,-39.75)">
						<title>Sheet.688</title>
						<ellipse cx="17.625" cy="67.5" rx="17.625" ry="5.625" class="st3"/>
					</g>
				</g>
				<g id="group689-10" transform="translate(23.25,-2.84217E-13)" v:mID="689" v:groupContext="group" v:layerMember="0">
					<title>Sheet.689</title>
					<g id="shape690-11" v:mID="690" v:groupContext="shape" v:layerMember="0">
						<title>Sheet.690</title>
						<path d="M0 73.12 L0 62.32 L2.77 51.37 L3 51.37 L3 44.62 L3.75 44.62 L3.75 40.87 L30 40.87 L30 44.62 L30.75
									 44.62 L30.75 51.37 L30.97 51.37 L33.75 62.32 L33.75 73.12 L0 73.12 Z" class="st1"/>
					</g>
					<g id="shape691-13" v:mID="691" v:groupContext="shape" v:layerMember="0" transform="translate(21.75,-18.75)">
						<title>Sheet.691</title>
						<rect x="0" y="68.625" width="3.75" height="4.5" class="st4"/>
					</g>
					<g id="shape692-15" v:mID="692" v:groupContext="shape" v:layerMember="0" transform="translate(9.75,-15.75)">
						<title>Sheet.692</title>
						<rect x="0" y="71.625" width="9" height="1.5" class="st4"/>
					</g>
					<g id="shape693-17" v:mID="693" v:groupContext="shape" v:layerMember="0" transform="translate(9.75,-12.75)">
						<title>Sheet.693</title>
						<rect x="0" y="71.625" width="11.25" height="1.5" class="st4"/>
					</g>
					<g id="shape694-19" v:mID="694" v:groupContext="shape" v:layerMember="0" transform="translate(6,-27.75)">
						<title>Sheet.694</title>
						<path d="M0 70.87 L0 73.12 L1.5 73.12 L1.5 72.37 L20.25 72.37 L20.25 73.12 L21.75 73.12 L21.75 70.87 L0 70.87
									 Z" class="st4"/>
					</g>
					<g id="shape695-21" v:mID="695" v:groupContext="shape" v:layerMember="0" transform="translate(2.25,-2.25)">
						<title>Sheet.695</title>
						<path d="M27 55.87 L26.25 55.87 L26.25 49.12 L21.75 49.12 L3 49.12 L3 55.87 L2.25 55.87 L0 64.87 L0 73.12
									 L29.25 73.12 L29.25 64.87 L27 55.87 ZM24.75 55.87 L24.75 64.87 L4.5 64.87 L4.5 55.87 L4.5 50.62
									 L24.75 50.62 L24.75 55.87 Z" class="st4"/>
					</g>
				</g>
			</g>
		</g>
	</g>
</svg>
