<?xml version="1.0" encoding="UTF-8" standalone="no"?>
<!DOCTYPE svg PUBLIC "-//W3C//DTD SVG 1.1//EN" "http://www.w3.org/Graphics/SVG/1.1/DTD/svg11.dtd">
<!-- Generated by Microsoft Visio, SVG Export Monitoring Store.svg Page-1 -->
<svg xmlns="http://www.w3.org/2000/svg" xmlns:xlink="http://www.w3.org/1999/xlink" xmlns:ev="http://www.w3.org/2001/xml-events"
		xmlns:v="http://schemas.microsoft.com/visio/2003/SVGExtensions/" width="1.03125in" height="0.96875in"
		viewBox="0 0 74.25 69.75" xml:space="preserve" color-interpolation-filters="sRGB" class="st4">
	<v:documentProperties v:langID="4108" v:metric="true" v:viewMarkup="false"/>

	<style type="text/css">
	<![CDATA[
		.st1 {fill:#ffffff;stroke:none;stroke-linecap:butt;stroke-width:0.75}
		.st2 {fill:#515251;stroke:none;stroke-linecap:butt;stroke-width:0.75}
		.st3 {fill:#515150;stroke:none;stroke-linecap:butt;stroke-width:0.75}
		.st4 {fill:none;fill-rule:evenodd;font-size:12px;overflow:visible;stroke-linecap:square;stroke-miterlimit:3}
	]]>
	</style>

	<g v:mID="0" v:index="1" v:groupContext="foregroundPage">
		<title>Page-1</title>
		<v:pageProperties v:drawingScale="0.0393701" v:pageScale="0.0393701" v:drawingUnits="24" v:shadowOffsetX="8.50394"
				v:shadowOffsetY="-8.50394"/>
		<v:layer v:name="symbols" v:index="0"/>
		<g id="group672-1" transform="translate(7.6875,-1.275)" v:mID="672" v:groupContext="group" v:layerMember="0">
			<title>Monitoring Store</title>
			<g id="group673-2" v:mID="673" v:groupContext="group" v:layerMember="0">
				<title>Sheet.673</title>
				<g id="shape674-3" v:mID="674" v:groupContext="shape" v:layerMember="0" transform="translate(0,-18)">
					<title>Sheet.674</title>
					<rect x="0" y="26.25" width="55.5" height="43.5" class="st1"/>
				</g>
				<g id="shape675-5" v:mID="675" v:groupContext="shape" v:layerMember="0" transform="translate(2.25,-20.25)">
					<title>Sheet.675</title>
					<rect x="0" y="30.75" width="51" height="39" class="st2"/>
				</g>
				<g id="shape676-7" v:mID="676" v:groupContext="shape" v:layerMember="0" transform="translate(4.5,-22.5)">
					<title>Sheet.676</title>
					<rect x="0" y="35.25" width="46.5" height="34.5" class="st1"/>
				</g>
				<g id="shape677-9" v:mID="677" v:groupContext="shape" v:layerMember="0" transform="translate(6,-24)">
					<title>Sheet.677</title>
					<rect x="0" y="38.25" width="43.5" height="31.5" class="st3"/>
				</g>
				<g id="shape678-11" v:mID="678" v:groupContext="shape" v:layerMember="0" transform="translate(5.25,-30.075)">
					<title>Sheet.678</title>
					<path d="M16.95 69.75 C16.95 69.75 16.95 69.75 16.95 69.75 C16.57 69.75 16.28 69.52 16.2 69.15 L12.45 54 L10.05
								 59.55 C9.9 59.85 9.67 60.07 9.37 60.07 L0 60.07 L0 58.57 L8.92 58.57 L12 51.37 C12.15 51.07 12.45
								 50.92 12.75 50.92 C13.05 50.92 13.35 51.15 13.42 51.52 L17.1 66.3 L19.5 59.02 C19.57 58.72 19.88
								 58.57 20.17 58.57 L25.12 58.57 L28.12 52.42 C28.27 52.12 28.57 51.97 28.88 52.05 C29.17 52.05 29.48
								 52.27 29.55 52.65 L32.18 63.15 L33.52 59.1 C33.6 58.8 33.9 58.65 34.2 58.65 L45 58.65 L45 60.15
								 L34.8 60.15 L32.77 66.07 C32.7 66.37 32.4 66.6 32.03 66.6 C31.72 66.6 31.42 66.37 31.35 66 L28.57
								 54.97 L26.25 59.55 C26.1 59.77 25.88 60.07 25.57 60.07 L20.7 60.07 L17.63 69.22 C17.55 69.52 17.25
								 69.75 16.95 69.75 Z" class="st1"/>
				</g>
				<g id="group679-13" transform="translate(36,0)" v:mID="679" v:groupContext="group" v:layerMember="0">
					<title>Sheet.679</title>
					<g id="shape680-14" v:mID="680" v:groupContext="shape" v:layerMember="0">
						<title>Sheet.680</title>
						<path d="M26.25 43.12 C26.25 38.92 19.2 37.42 13.12 37.42 C7.05 37.42 0 38.92 0 43.12 L0 43.8 L0 62.47 L0
									 63.45 L0 63.52 C0.37 67.5 5.02 69.75 13.05 69.75 C21.15 69.75 25.8 67.57 26.1 63.52 L26.1 63.45
									 L26.1 62.4 L26.1 44.02 L26.1 43.12 L26.25 43.12 Z" class="st1"/>
					</g>
					<g id="shape681-16" v:mID="681" v:groupContext="shape" v:layerMember="0" transform="translate(2.25,-2.325)">
						<title>Sheet.681</title>
						<path d="M10.87 50.4 C6.6 50.4 2.25 49.65 0 48 L0 64.72 L0 65.62 C0.37 69.45 8.1 69.75 10.8 69.75 C13.5 69.75
									 21.3 69.45 21.6 65.62 L21.6 64.72 L21.6 48.07 C19.57 49.65 15.22 50.4 10.87 50.4 Z"
								class="st2"/>
					</g>
					<g id="shape682-18" v:mID="682" v:groupContext="shape" v:layerMember="0" transform="translate(2.25,-23.175)">
						<title>Sheet.682</title>
						<ellipse cx="10.875" cy="66.3" rx="10.875" ry="3.45" class="st2"/>
					</g>
				</g>
			</g>
		</g>
	</g>
</svg>
