<?xml version="1.0" encoding="UTF-8" standalone="no"?>
<!DOCTYPE svg PUBLIC "-//W3C//DTD SVG 1.1//EN" "http://www.w3.org/Graphics/SVG/1.1/DTD/svg11.dtd">
<!-- Generated by Microsoft Visio, SVG Export Unified Contact Store.svg Page-1 -->
<svg xmlns="http://www.w3.org/2000/svg" xmlns:xlink="http://www.w3.org/1999/xlink" xmlns:ev="http://www.w3.org/2001/xml-events"
		xmlns:v="http://schemas.microsoft.com/visio/2003/SVGExtensions/" width="0.946094in" height="1.01563in"
		viewBox="0 0 68.1187 73.125" xml:space="preserve" color-interpolation-filters="sRGB" class="st6">
	<v:documentProperties v:langID="4108" v:metric="true" v:viewMarkup="false"/>

	<style type="text/css">
	<![CDATA[
		.st1 {fill:#ffffff;stroke:none;stroke-linecap:butt;stroke-width:0.75}
		.st2 {fill:#515251;stroke:none;stroke-linecap:butt;stroke-width:0.75}
		.st3 {fill:#515150;stroke:none;stroke-linecap:butt;stroke-width:0.75}
		.st4 {fill:#515050;stroke:none;stroke-linecap:butt;stroke-width:0.75}
		.st5 {fill:#525352;stroke:none;stroke-linecap:butt;stroke-width:0.75}
		.st6 {fill:none;fill-rule:evenodd;font-size:12px;overflow:visible;stroke-linecap:square;stroke-miterlimit:3}
	]]>
	</style>

	<g v:mID="0" v:index="1" v:groupContext="foregroundPage">
		<title>Page-1</title>
		<v:pageProperties v:drawingScale="0.0393701" v:pageScale="0.0393701" v:drawingUnits="24" v:shadowOffsetX="8.50394"
				v:shadowOffsetY="-8.50394"/>
		<v:layer v:name="symbols" v:index="0"/>
		<g id="group696-1" transform="translate(7.36875,-6.5625)" v:mID="696" v:groupContext="group" v:layerMember="0">
			<title>Unified Contact Store</title>
			<g id="group697-2" v:mID="697" v:groupContext="group" v:layerMember="0">
				<title>Sheet.697</title>
				<g id="group698-3" transform="translate(0,-6.75)" v:mID="698" v:groupContext="group" v:layerMember="0">
					<title>Sheet.698</title>
					<g id="shape699-4" v:mID="699" v:groupContext="shape" v:layerMember="0">
						<title>Sheet.699</title>
						<path d="M39.75 29.25 L39.75 62.62 L39.75 64.28 L39.75 64.35 C39.08 72 27 73.12 19.88 73.12 C12.75 73.12
									 0.68 72 0 64.35 L0 64.28 L0 62.7 L0 29.25 L0 27.75 C0 22.27 9.98 19.88 19.88 19.88 C29.78 19.88
									 39.75 22.27 39.75 27.75 L39.75 29.25 Z" class="st1"/>
					</g>
					<g id="shape700-6" v:mID="700" v:groupContext="shape" v:layerMember="0" transform="translate(2.25,-2.25)">
						<title>Sheet.700</title>
						<path d="M17.63 37.88 C10.58 37.88 3.53 36.68 0 33.98 L0 64.87 L0 66.37 C0.53 72.6 13.2 73.12 17.63 73.12
									 C22.05 73.12 34.65 72.6 35.25 66.37 L35.25 64.87 L35.25 33.98 C31.73 36.68 24.68 37.88 17.63
									 37.88 Z" class="st2"/>
					</g>
					<g id="shape701-8" v:mID="701" v:groupContext="shape" v:layerMember="0" transform="translate(2.25,-39.75)">
						<title>Sheet.701</title>
						<ellipse cx="17.625" cy="67.5" rx="17.625" ry="5.625" class="st3"/>
					</g>
				</g>
				<g id="group702-10" transform="translate(14.25,0)" v:mID="702" v:groupContext="group" v:layerMember="0">
					<title>Sheet.702</title>
					<g id="shape703-11" v:mID="703" v:groupContext="shape" v:layerMember="0">
						<title>Sheet.703</title>
						<path d="M40.5 46.13 L40.5 42.37 L36.75 42.37 L36.75 38.63 L0 38.63 L0 65.62 L3.75 65.62 L3.75 69.38 L7.5
									 69.38 L7.5 73.12 L44.25 73.12 L44.25 46.13 L40.5 46.13 Z" class="st1"/>
					</g>
					<g id="group704-13" transform="translate(2.25,-9.75)" v:mID="704" v:groupContext="group" v:layerMember="0">
						<title>Sheet.704</title>
						<g id="shape705-14" v:mID="705" v:groupContext="shape" v:layerMember="0" transform="translate(0.75,-0.75)">
							<title>Sheet.705</title>
							<rect x="0" y="52.125" width="30.75" height="21" class="st1"/>
						</g>
						<g id="shape706-16" v:mID="706" v:groupContext="shape" v:layerMember="0">
							<title>Sheet.706</title>
							<path d="M30.75 52.13 L30.75 71.62 L1.5 71.62 L1.5 52.13 L30.75 52.13 ZM32.25 50.62 L0 50.62 L0 73.12
										 L32.25 73.12 L32.25 50.62 Z" class="st4"/>
						</g>
					</g>
					<g id="shape707-18" v:mID="707" v:groupContext="shape" v:layerMember="0" transform="translate(4.5,-4.5)">
						<title>Sheet.707</title>
						<rect x="0" y="47.625" width="35.25" height="25.5" class="st1"/>
					</g>
					<g id="group708-20" transform="translate(6,-6)" v:mID="708" v:groupContext="group" v:layerMember="0">
						<title>Sheet.708</title>
						<g id="shape709-21" v:mID="709" v:groupContext="shape" v:layerMember="0" transform="translate(0.75,-0.75)">
							<title>Sheet.709</title>
							<rect x="0" y="52.125" width="30.75" height="21" class="st1"/>
						</g>
						<g id="shape710-23" v:mID="710" v:groupContext="shape" v:layerMember="0">
							<title>Sheet.710</title>
							<path d="M30.75 52.13 L30.75 71.62 L1.5 71.62 L1.5 52.13 L30.75 52.13 ZM32.25 50.62 L0 50.62 L0 73.12
										 L32.25 73.12 L32.25 50.62 Z" class="st4"/>
						</g>
					</g>
					<g id="shape711-25" v:mID="711" v:groupContext="shape" v:layerMember="0" transform="translate(8.25,-0.75)">
						<title>Sheet.711</title>
						<rect x="0" y="47.625" width="35.25" height="25.5" class="st1"/>
					</g>
					<g id="group712-27" transform="translate(9.75,-2.25)" v:mID="712" v:groupContext="group" v:layerMember="0">
						<title>Sheet.712</title>
						<g id="shape713-28" v:mID="713" v:groupContext="shape" v:layerMember="0" transform="translate(0.75,-0.75)">
							<title>Sheet.713</title>
							<rect x="0" y="52.125" width="30.75" height="21" class="st1"/>
						</g>
						<g id="shape714-30" v:mID="714" v:groupContext="shape" v:layerMember="0">
							<title>Sheet.714</title>
							<path d="M30.75 52.13 L30.75 71.62 L1.5 71.62 L1.5 52.13 L30.75 52.13 ZM32.25 50.62 L0 50.62 L0 73.12
										 L32.25 73.12 L32.25 50.62 Z" class="st4"/>
						</g>
					</g>
					<g id="group715-32" transform="translate(14.4,-6.75)" v:mID="715" v:groupContext="group" v:layerMember="0">
						<title>Sheet.715</title>
						<g id="group716-33" v:mID="716" v:groupContext="group" v:layerMember="0">
							<title>Sheet.716</title>
							<g id="shape717-34" v:mID="717" v:groupContext="shape" v:layerMember="0">
								<title>Sheet.717</title>
								<path d="M11.32 69 C11.1 68.03 10.8 67.5 10.12 67.13 C9.37 66.68 9 66.45 8.7 66.45 C8.55 66.45 8.47
											 66.45 8.4 66.53 C8.25 66.68 8.02 66.83 7.8 66.98 C7.8 66.98 7.8 66.98 7.8 66.98 C7.8
											 66.98 7.72 67.05 7.72 67.05 C7.5 67.2 7.27 67.28 7.12 67.35 C6.75 67.5 6.3 67.58 5.92
											 67.58 C5.47 67.58 5.1 67.5 4.72 67.35 C4.5 67.28 4.27 67.2 4.12 67.05 C3.9 66.9 3.67
											 66.75 3.45 66.53 C3.37 66.45 3.3 66.45 3.15 66.45 C2.85 66.45 2.62 66.68 1.72 67.13
											 C0.97 67.58 0.75 68.03 0.52 69 C0.3 69.9 0.07 72.15 0 73.12 L12 73.12 C11.77 72.15 11.55
											 69.9 11.32 69 Z" class="st5"/>
							</g>
							<g id="shape718-36" v:mID="718" v:groupContext="shape" v:layerMember="0"
									transform="translate(2.925,-6.9)">
								<title>Sheet.718</title>
								<path d="M2.92 73.12 C1.28 73.12 0 71.7 0 69.9 C-0 68.1 1.35 66.68 2.92 66.68 C4.57 66.68 5.85 68.1
											 5.85 69.9 C5.85 71.63 4.57 73.12 2.92 73.12 Z" class="st5"/>
							</g>
						</g>
						<g id="group719-38" transform="translate(14.1,-1.5)" v:mID="719" v:groupContext="group" v:layerMember="0">
							<title>Sheet.719</title>
							<g id="shape720-39" v:mID="720" v:groupContext="shape" v:layerMember="0"
									transform="translate(-1.4988E-14,-7.5)">
								<title>Sheet.720</title>
								<rect x="0" y="71.625" width="9" height="1.5" class="st4"/>
							</g>
							<g id="shape721-41" v:mID="721" v:groupContext="shape" v:layerMember="0"
									transform="translate(-1.4988E-14,-3.75)">
								<title>Sheet.721</title>
								<rect x="0" y="71.625" width="9" height="1.5" class="st4"/>
							</g>
							<g id="shape722-43" v:mID="722" v:groupContext="shape" v:layerMember="0">
								<title>Sheet.722</title>
								<rect x="0" y="71.625" width="9" height="1.5" class="st4"/>
							</g>
						</g>
					</g>
				</g>
			</g>
		</g>
	</g>
</svg>
