<svg xmlns="http://www.w3.org/2000/svg" xmlns:v="http://schemas.microsoft.com/visio/2003/SVGExtensions/" width="97.125" height="97.5" viewBox="0 0 72.844 73.125" color-interpolation-filters="sRGB" fill="none" fill-rule="evenodd" font-size="12" overflow="visible" stroke-linecap="square" stroke-miterlimit="3">
  <v:documentProperties v:langID="4108" v:metric="true" v:viewMarkup="false"/>
  <style>
    .st1{fill:#fff;stroke:none;stroke-linecap:butt;stroke-width:.75}
  </style>
  <g v:mID="0" v:index="1" v:groupContext="foregroundPage">
    <v:pageProperties v:drawingScale=".039" v:pageScale=".039" v:drawingUnits="24" v:shadowOffsetX="8.504" v:shadowOffsetY="-8.504"/>
    <v:layer v:name="symbols" v:index="0"/>
    <g id="group1-1" transform="translate(7.594 -7.313)" v:mID="1" v:groupContext="group" v:layerMember="0">
      <g id="group2-2" v:mID="2" v:groupContext="group" v:layerMember="0">
        <g id="group3-3" transform="translate(0 -6.675)" v:mID="3" v:groupContext="group" v:layerMember="0">
          <g id="shape4-4" v:mID="4" v:groupContext="shape" v:layerMember="0">
            <path d="M32.48 73.05c-1.43 0-2.7-.82-3.23-2.18l-1.43-3.37h-.07c-.08 0-.82.08-1.8.08-1.05 0-1.8-.08-1.88-.08H24l-1.42 3.45c-.53 1.28-1.81 2.17-3.23 2.17-.45 0-.9-.07-1.35-.3l-4.65-1.95c-.9-.37-1.58-1.05-1.88-1.87-.37-.9-.37-1.8 0-2.7l1.43-3.45-.15-.15-2.32-2.4s-.08-.15-.15-.15l-3.45 1.42c-.45.16-.91.31-1.36.31-1.42 0-2.69-.83-3.22-2.18L.38 55.05c-.38-.83-.38-1.8 0-2.7.37-.9 1.05-1.58 1.87-1.88l3.45-1.42v-3.6-.23L2.25 43.8c-.9-.37-1.58-1.05-1.87-1.88-.38-.89-.38-1.8 0-2.7l1.94-4.65c.53-1.35 1.81-2.17 3.23-2.17.45 0 .9.07 1.35.3l3.45 1.42s.15-.14.15-.15l2.4-2.4c0 .01.15-.07.15-.15l-1.5-3.37c-.38-.83-.38-1.8 0-2.7.37-.9 1.05-1.58 1.88-1.88l4.64-1.87c.38-.23.83-.3 1.36-.3 1.42 0 2.69.82 3.22 2.17l1.42 3.38h.08c.07 0 .82-.08 1.8-.08 1.05 0 1.8.08 1.87.08h.08l1.43-3.45c.52-1.28 1.72-2.1 3.15-2.1.45 0 .89.07 1.34.3l4.66 1.95c.9.37 1.57 1.05 1.87 1.87.37.9.37 1.8 0 2.7l-1.42 3.45.15.16 2.4 2.32s.07.15.15.15l3.45-1.43c.45-.15.9-.3 1.34-.3 1.43 0 2.71.83 3.23 2.18l1.95 4.65c.38.9.38 1.8 0 2.7-.37.9-1.05 1.57-1.88 1.87L46.2 45.3v3.83l3.45 1.42c1.8.75 2.63 2.77 1.88 4.57l-1.96 4.65c-.52 1.35-1.79 2.18-3.22 2.18-.45 0-.9-.07-1.35-.3l-3.45-1.43c-.07.08-.15.15-.15.15l-2.32 2.33s-.15.08-.15.15l1.42 3.45c.37.9.37 1.8 0 2.7-.38.9-1.05 1.57-1.87 1.87l-4.66 1.88c-.37.23-.82.3-1.34.3zM25.95 36.9c-5.7 0-10.28 4.57-10.28 10.27 0 5.7 4.58 10.28 10.28 10.28 5.7 0 10.28-4.58 10.28-10.28 0-5.7-4.58-10.27-10.28-10.27z" class="st1"/>
          </g>
          <g id="shape5-6" v:mID="5" v:groupContext="shape" v:layerMember="0" transform="translate(2.175 -2.025)">
            <path d="M46.65 54.6l-3.82-1.57c-.6-.3-1.13-.6-1.13-.75 0-.15.08-.83.15-1.51v-3.14c-.07-.68-.15-1.36-.15-1.51 0-.15.45-.45 1.13-.75l3.82-1.57c.6-.3.98-.97.68-1.65l-1.95-4.65c-.23-.6-.98-.9-1.65-.68l-3.83 1.65c-.6.3-1.2.38-1.27.3-.08-.07-.53-.59-.98-1.12L35.4 35.4c-.52-.45-1.05-.9-1.12-.98-.08-.07 0-.67.3-1.27l1.57-3.83c.3-.6-.07-1.34-.67-1.65l-4.65-1.95c-.68-.3-1.35 0-1.65.6l-1.58 3.83c-.22.67-.6 1.12-.75 1.12-.15 0-.82-.07-1.5-.22 0 0-.67-.08-1.65-.08-.97 0-1.57.08-1.57.08-.68.07-1.35.15-1.5.15-.15 0-.46-.45-.75-1.13l-1.51-3.75c-.22-.6-.97-.9-1.65-.67l-4.65 1.95c-.6.22-.89.97-.67 1.65l1.58 3.82c.29.6.37 1.2.29 1.28-.07.07-.6.52-1.12.97L9.9 37.58l-.97 1.12c-.08.07-.68 0-1.28-.3l-3.82-1.58c-.6-.3-1.35.08-1.65.68L.23 42.15C0 42.83.3 43.57.9 43.8l3.83 1.57c.67.3 1.12.6 1.12.75 0 .15-.07.83-.15 1.51v3.14c.08.68.15 1.36.15 1.51 0 .15-.45.45-1.12.75L.9 54.6c-.6.22-.9.97-.67 1.65l1.95 4.65c.3.6.97.98 1.65.68L7.65 60c.6-.23 1.2-.38 1.28-.3.07.07.52.6.97 1.12l2.25 2.26c.52.44 1.05.89 1.12.97.08.07 0 .67-.29 1.27l-1.58 3.83c-.3.6.07 1.35.67 1.65l4.65 1.95c.61.3 1.36-.07 1.65-.68l1.58-3.82c.3-.67.6-1.12.75-1.12.15 0 .83.07 1.5.22 0 0 .68.08 1.65.08.9 0 1.58-.08 1.58-.08.67-.07 1.35-.15 1.5-.15.14 0 .45.45.74 1.12l1.58 3.83c.3.6.98.97 1.65.67l4.65-1.95c.68-.22.98-.97.68-1.65l-1.73-3.9c-.22-.67-.37-1.2-.3-1.27.08-.08.6-.53 1.13-.97l2.25-2.26c.45-.52.9-1.05.97-1.12.07-.08.68 0 1.28.3l3.82 1.58c.6.3 1.35-.08 1.65-.68l1.95-4.65c.3-.68 0-1.43-.6-1.65zm-22.87 7.13c-6.9 0-12.53-5.63-12.53-12.53 0-6.9 5.63-12.53 12.53-12.53 6.9 0 12.52 5.63 12.52 12.53 0 6.9-5.62 12.53-12.52 12.53z" fill="#535352" stroke-linecap="butt" stroke-width=".75"/>
          </g>
        </g>
        <g id="group6-8" transform="translate(27.825)" v:mID="6" v:groupContext="group" v:layerMember="0">
          <g id="group7-9" v:mID="7" v:groupContext="group" v:layerMember="0">
            <g id="shape8-10" v:mID="8" v:groupContext="shape" v:layerMember="0">
              <path d="M4.5 73.12c-2.47 0-4.5-2.02-4.5-4.49v-21c0-2.48 2.03-4.5 4.5-4.5h21c2.48 0 4.5 2.02 4.5 4.5v21c0 2.47-2.02 4.49-4.5 4.49h-21z" class="st1"/>
            </g>
            <g id="shape9-12" v:mID="9" v:groupContext="shape" v:layerMember="0" transform="translate(2.25 -2.25)">
              <path d="M25.5 70.88c0 1.27-.98 2.24-2.25 2.24h-21C.98 73.12 0 72.15 0 70.88v-21c0-1.28.98-2.25 2.25-2.25h21c1.27 0 2.25.97 2.25 2.25v21z" fill="#515050" stroke-linecap="butt" stroke-width=".75"/>
            </g>
          </g>
          <g id="group10-14" transform="translate(7.65 -8.25)" v:mID="10" v:groupContext="group" v:layerMember="0">
            <g id="shape11-15" v:mID="11" v:groupContext="shape" v:layerMember="0">
              <path d="M6.67 72.07c-.82.68-2.02 1.05-3.52 1.05-1.28 0-2.33-.22-3.15-.59v-2.4c.82.59 1.8.89 2.93.9.67 0 1.27-.16 1.64-.45.38-.3.61-.76.61-1.28 0-.6-.23-.97-.75-1.27-.53-.31-1.13-.45-2.03-.45H1.2v-2.1h1.05c1.65 0 2.47-.53 2.47-1.65 0-1.05-.6-1.58-1.87-1.58-.82 0-1.65.3-2.48.83v-2.25c.91-.45 1.95-.68 3.08-.68 1.27 0 2.32.3 3 .9.67.6 1.05 1.35 1.05 2.25 0 1.65-.83 2.7-2.48 3.08.9.07 1.58.44 2.1.97.53.52.75 1.2.75 1.95.08 1.2-.3 2.1-1.2 2.77z" class="st1"/>
            </g>
            <g id="group12-17" transform="translate(9.375 -7.2)" v:mID="12" v:groupContext="group" v:layerMember="0">
              <g id="shape13-18" v:mID="13" v:groupContext="shape" v:layerMember="0">
                <path d="M1.95 70.43c-.08-.08-.23-.08-.38-.08a.7.7 0 0 0-.6.3c-.15.23-.22.45-.22.83v1.64H0v-3.37h.75v.68c.07-.23.22-.45.37-.53.15-.15.3-.22.53-.22.15 0 .22 0 .3.07v.68z" class="st1"/>
              </g>
              <g id="shape14-20" v:mID="14" v:groupContext="shape" v:layerMember="0" transform="translate(2.25)">
                <path d="M3.22 73.05h-.75v-.6c-.22.45-.6.67-1.12.67-.45 0-.75-.15-.98-.45-.22-.29-.37-.75-.37-1.2 0-.52.15-.97.45-1.35.3-.29.67-.52 1.12-.52.45 0 .75.15.98.52v-2.09h.75v5.02h-.08zm-.75-1.5v-.45c0-.23-.07-.45-.22-.6-.15-.15-.38-.22-.6-.22-.3 0-.53.07-.68.29-.15.23-.22.53-.22.9 0 .38.07.6.22.83.15.23.38.3.6.3.23 0 .45-.08.6-.3.15-.23.3-.45.3-.75z" class="st1"/>
              </g>
            </g>
          </g>
        </g>
      </g>
    </g>
  </g>
</svg>
