<svg xmlns="http://www.w3.org/2000/svg" xmlns:v="http://schemas.microsoft.com/visio/2003/SVGExtensions/" width="89.625" height="94.5" viewBox="0 0 67.219 70.875" color-interpolation-filters="sRGB" fill="none" fill-rule="evenodd" font-size="12" overflow="visible" stroke-linecap="square" stroke-miterlimit="3">
  <v:documentProperties v:langID="4108" v:metric="true" v:viewMarkup="false"/>
  <style>
    .st1,.st2{fill:#fff;stroke:none;stroke-linecap:butt;stroke-width:.75}.st2{fill:#515150}
  </style>
  <g v:mID="0" v:index="1" v:groupContext="foregroundPage">
    <v:pageProperties v:drawingScale=".039" v:pageScale=".039" v:drawingUnits="24" v:shadowOffsetX="8.504" v:shadowOffsetY="-8.504"/>
    <v:layer v:name="symbols" v:index="0"/>
    <g id="group51-1" transform="translate(8.606 -4.95)" v:mID="51" v:groupContext="group" v:layerMember="0">
      <g id="group52-2" v:mID="52" v:groupContext="group" v:layerMember="0">
        <g id="group53-3" transform="translate(0 -5.475)" v:mID="53" v:groupContext="group" v:layerMember="0">
          <g id="shape54-4" v:mID="54" v:groupContext="shape" v:layerMember="0">
            <path d="M39.75 27v35.1c-.68 7.65-12.75 8.78-19.88 8.78C12.75 70.88.68 69.75 0 62.1V25.5c0-5.4 9.98-7.87 19.87-7.87 9.9 0 19.88 2.47 19.88 7.87V27z" class="st1"/>
          </g>
          <g id="shape55-6" v:mID="55" v:groupContext="shape" v:layerMember="0" transform="translate(2.25 -2.25)">
            <path d="M17.62 35.63c-7.05 0-14.1-1.2-17.62-3.9v32.4c.53 6.22 13.2 6.75 17.62 6.75 4.43 0 17.03-.53 17.63-6.75v-32.4c-3.53 2.7-10.58 3.9-17.63 3.9z" class="st2"/>
          </g>
          <g id="shape56-8" v:mID="56" v:groupContext="shape" v:layerMember="0" transform="translate(2.25 -39.75)">
            <ellipse cx="17.625" cy="65.25" rx="17.625" ry="5.625" class="st2"/>
          </g>
        </g>
        <g id="group57-10" transform="translate(21.825)" v:mID="57" v:groupContext="group" v:layerMember="0">
          <g id="shape58-11" v:mID="58" v:groupContext="shape" v:layerMember="0">
            <path d="M20.85 70.88c-1.2 0-2.32-.75-2.77-1.88l-.68-1.57h-1.27L15.45 69c-.37 1.13-1.5 1.88-2.7 1.88-.37 0-.82-.08-1.12-.23l-2.86-1.2c-.74-.3-1.34-.9-1.65-1.65-.29-.75-.29-1.57 0-2.32l.68-1.58-.82-.82-1.58.67c-.37.15-.75.23-1.12.23-1.2 0-2.33-.75-2.78-1.88L.3 59.25c-.3-.75-.3-1.57 0-2.32.3-.75.9-1.35 1.65-1.65l1.57-.68v-1.2l-1.57-.67c-.75-.3-1.35-.9-1.65-1.65-.3-.75-.3-1.58 0-2.33l1.2-2.85a3.029 3.029 0 0 1 2.78-1.87c.37 0 .75.07 1.12.22l1.58.68.82-.83-.68-1.57c-.29-.75-.29-1.58 0-2.33.3-.75.91-1.35 1.65-1.65l2.86-1.2c.37-.15.75-.22 1.12-.22 1.2 0 2.33.75 2.78 1.87l.6 1.5h1.27l.6-1.57a3.023 3.023 0 0 1 2.78-1.88c.37 0 .75.08 1.12.23l2.85 1.2c.75.3 1.35.9 1.65 1.65.3.75.3 1.57 0 2.32l-.67 1.58.82.82 1.58-.67c.37-.15.75-.23 1.12-.23 1.2 0 2.33.75 2.78 1.88l1.2 2.85c.3.75.3 1.57 0 2.32-.3.75-.9 1.35-1.65 1.65l-1.58.68v1.2l1.58.67c1.57.68 2.25 2.4 1.65 3.98l-1.2 2.85a3.029 3.029 0 0 1-2.78 1.87c-.37 0-.82-.07-1.2-.22L26.48 63l-.83.83.68 1.57c.29.75.3 1.58 0 2.33s-.9 1.35-1.65 1.65l-2.86 1.2c-.14.22-.59.3-.97.3z" class="st1"/>
          </g>
          <g id="shape59-13" v:mID="59" v:groupContext="shape" v:layerMember="0" transform="translate(2.025 -2.1)">
            <path d="M28.95 59.48l-2.4-.98c-.37-.15-.67-.37-.67-.45 0-.07.07-.52.07-.9V55.2c0-.45-.07-.82-.07-.9 0-.07.3-.3.67-.45l2.4-.97c.38-.15.6-.6.45-1.05l-1.2-2.85c-.15-.38-.6-.6-1.05-.45l-2.4.97c-.37.15-.75.23-.82.15-.08-.07-.3-.37-.6-.75l-1.43-1.35c-.3-.3-.67-.52-.67-.6-.08-.07 0-.37.15-.82l.97-2.4c.15-.38 0-.83-.45-1.05l-2.85-1.2c-.37-.15-.83 0-1.05.45l-.97 2.4c-.15.37-.38.67-.45.67-.08 0-.53-.07-.9-.15 0 0-.38-.07-.98-.07s-.98.07-.98.07c-.45.08-.82.08-.9.15-.07 0-.3-.3-.45-.67l-.97-2.4c-.15-.38-.6-.6-1.05-.45l-2.85 1.2c-.37.15-.6.6-.45 1.05l.97 2.4c.15.37.23.75.15.82-.07.08-.37.3-.67.6l-1.42 1.43c-.3.3-.53.67-.6.75-.08.07-.38 0-.83-.15L2.4 48.45c-.37-.15-.82 0-1.05.45l-1.2 2.85c-.15.38 0 .83.45 1.05l2.4.98c.37.15.67.37.67.45 0 .07-.07.52-.07.9v1.95c0 .45.07.82.07.9 0 .07-.3.3-.67.45L.6 59.48c-.37.15-.6.6-.45 1.05l1.2 2.85c.15.37.6.6 1.05.45l2.4-.98c.38-.15.75-.22.83-.15.07.08.3.38.6.75l1.42 1.35c.3.3.67.53.75.6.07.08 0 .45-.15.83l-1.12 2.25c-.15.37 0 .82.44 1.05l2.86 1.2c.37.15.82 0 1.05-.45l.97-2.4c.15-.38.37-.68.45-.68.07 0 .52.08.9.15 0 0 .38.08.98.08s.97-.08.97-.08c.45-.07.83-.07.9-.15.08 0 .3.3.45.68l.97 2.4c.15.37.61.6 1.06.45l2.85-1.2c.37-.15.59-.6.44-1.05l-.97-2.4c-.15-.38-.22-.75-.15-.83.08-.07.38-.3.75-.6l1.43-1.42c.3-.3.52-.68.6-.75.07-.08.37 0 .82.15l2.4.97c.37.15.83 0 1.05-.45l1.2-2.85c-.07-.22-.22-.67-.6-.82zm-14.17 4.35c-4.28 0-7.73-3.45-7.73-7.73 0-4.27 3.45-7.72 7.73-7.72 4.27 0 7.72 3.45 7.72 7.72 0 4.28-3.45 7.73-7.72 7.73z" class="st2"/>
          </g>
        </g>
      </g>
    </g>
  </g>
</svg>
