<svg xmlns="http://www.w3.org/2000/svg" xmlns:v="http://schemas.microsoft.com/visio/2003/SVGExtensions/" width="87.525" height="97.5" viewBox="0 0 65.644 73.125" color-interpolation-filters="sRGB" fill="none" fill-rule="evenodd" font-size="12" overflow="visible" stroke-linecap="square" stroke-miterlimit="3">
  <v:documentProperties v:langID="4108" v:metric="true" v:viewMarkup="false"/>
  <style>
    .st1,.st2{fill:#fff;stroke:none;stroke-linecap:butt;stroke-width:.75}.st2{fill:#515150}.st3{fill:#515050}.st4,.st5{stroke:none;stroke-linecap:butt;stroke-width:.75}.st5{fill:#515050}
  </style>
  <g v:mID="0" v:index="1" v:groupContext="foregroundPage">
    <v:pageProperties v:drawingScale=".039" v:pageScale=".039" v:drawingUnits="24" v:shadowOffsetX="8.504" v:shadowOffsetY="-8.504"/>
    <v:layer v:name="symbols" v:index="0"/>
    <g id="group77-1" transform="translate(9.019 -7.313)" v:mID="77" v:groupContext="group" v:layerMember="0">
      <g id="group78-2" transform="translate(0 -6)" v:mID="78" v:groupContext="group" v:layerMember="0">
        <g id="shape79-3" v:mID="79" v:groupContext="shape" v:layerMember="0">
          <path d="M5.25 73.12C2.33 73.12 0 70.8 0 67.87V26.63c0-2.93 2.33-5.25 5.25-5.25H25.5c2.93 0 5.25 2.32 5.25 5.25v41.24c0 2.93-2.32 5.25-5.25 5.25H5.25z" class="st1"/>
        </g>
        <g id="shape80-5" v:mID="80" v:groupContext="shape" v:layerMember="0" transform="translate(2.25 -2.25)">
          <path d="M23.25 25.88H3c-1.65 0-3 1.35-3 3v41.25a3 3 0 0 0 3 2.99h20.25a3 3 0 0 0 3-2.99V28.88c0-1.65-1.35-3-3-3zm-7.5 42.75c0 .44-.3.75-.75.75h-3.75c-.45 0-.75-.31-.75-.75v-1.51c0-.45.3-.74.75-.74H15c.45 0 .75.29.75.74v1.51zm7.5-5.26H3V31.88h20.25v31.49z" class="st2"/>
        </g>
      </g>
      <g id="group81-7" transform="translate(15.825)" v:mID="81" v:groupContext="group" v:layerMember="0">
        <g id="shape82-8" v:mID="82" v:groupContext="shape" v:layerMember="0">
          <path d="M20.85 73.12a3 3 0 0 1-2.77-1.87l-.68-1.58h-1.28l-.67 1.58c-.37 1.13-1.5 1.87-2.7 1.87-.37 0-.82-.07-1.12-.22l-2.86-1.2c-.74-.3-1.35-.9-1.65-1.65-.29-.75-.29-1.58 0-2.32l.68-1.58-.83-.83L5.4 66c-.37.15-.75.22-1.12.22-1.21 0-2.33-.75-2.78-1.87L.3 61.5c-.3-.75-.3-1.57 0-2.33.3-.75.9-1.34 1.65-1.65l1.57-.67v-1.2l-1.57-.68c-.75-.3-1.35-.9-1.65-1.65C0 52.58 0 51.75.3 51l1.2-2.85a3.012 3.012 0 0 1 2.78-1.88c.37 0 .75.08 1.12.23l1.57.67.83-.82-.68-1.57c-.29-.76-.29-1.58 0-2.33.3-.75.91-1.35 1.65-1.65l2.86-1.2c.37-.15.75-.23 1.12-.23 1.2 0 2.33.75 2.77 1.88l.6 1.5h1.28l.6-1.58a3.015 3.015 0 0 1 2.77-1.87c.38 0 .76.07 1.13.22l2.85 1.2c.75.3 1.35.9 1.65 1.65.3.75.3 1.58 0 2.33l-.68 1.57.83.83 1.57-.68c.38-.15.76-.22 1.13-.22 1.2 0 2.32.75 2.77 1.87l1.21 2.85c.29.76.29 1.58 0 2.33-.31.75-.9 1.35-1.66 1.65l-1.57.68v1.19l1.57.68c1.58.67 2.25 2.4 1.66 3.97l-1.21 2.86a3.015 3.015 0 0 1-2.77 1.87c-.37 0-.82-.07-1.2-.23l-1.58-.67-.82.83.67 1.57c.3.75.3 1.57 0 2.32-.3.75-.89 1.35-1.65 1.65l-2.85 1.2c-.15.23-.6.3-.97.3z" class="st1"/>
        </g>
        <g id="shape83-10" v:mID="83" v:groupContext="shape" v:layerMember="0" transform="translate(2.025 -2.1)">
          <path d="M28.95 61.72l-2.4-.97c-.38-.15-.68-.37-.68-.45 0-.07.08-.52.08-.9v-1.95c0-.45-.08-.83-.08-.9 0-.08.3-.3.68-.45l2.4-.97c.37-.15.6-.6.45-1.06l-1.2-2.85c-.15-.37-.6-.59-1.05-.44l-2.4.97c-.38.15-.75.22-.83.15-.07-.08-.3-.38-.6-.75L21.9 49.8c-.3-.3-.68-.52-.68-.6-.07-.08 0-.38.15-.83l.98-2.39c.15-.38 0-.83-.45-1.05l-2.85-1.21c-.38-.15-.83 0-1.05.45l-.97 2.4c-.15.38-.38.68-.45.68-.08 0-.53-.08-.91-.15 0 0-.37-.08-.97-.08s-.98.08-.98.08c-.45.07-.82.07-.9.15-.07 0-.3-.3-.45-.68l-.97-2.4c-.15-.37-.6-.6-1.05-.45L7.5 44.93c-.37.15-.6.6-.45 1.05l.97 2.39c.15.38.23.76.15.83-.07.08-.37.3-.67.6l-1.42 1.42c-.3.3-.53.68-.6.75-.08.08-.38 0-.83-.15L2.4 50.7c-.38-.15-.83 0-1.05.45L.15 54c-.15.38 0 .83.45 1.05l2.4.97c.37.15.67.38.67.45 0 .08-.07.53-.07.9v1.96c0 .45.07.82.07.9 0 .07-.3.3-.67.45L.6 61.72c-.38.15-.6.6-.45 1.05l1.2 2.86c.15.37.6.59 1.05.44l2.4-.97c.37-.15.75-.22.83-.15.07.08.3.38.6.75l1.42 1.35c.3.3.67.52.75.6.07.07 0 .45-.15.83l-1.12 2.24c-.15.38 0 .83.44 1.06l2.85 1.19c.38.15.83 0 1.06-.45l.97-2.39c.15-.38.37-.68.45-.68.07 0 .52.08.9.15 0 0 .37.08.97.08s.98-.08.98-.08c.45-.07.83-.07.9-.15.08 0 .3.3.45.68l.97 2.39c.15.38.6.6 1.05.45l2.86-1.19c.37-.16.59-.61.44-1.06l-.97-2.4c-.15-.37-.23-.75-.15-.82.07-.08.38-.3.75-.6l1.42-1.42c.3-.3.53-.68.6-.75.08-.08.38 0 .83.15l2.4.97c.37.15.82 0 1.05-.45l1.2-2.85c-.08-.23-.23-.68-.6-.83zm-14.18 4.35c-4.27 0-7.72-3.45-7.72-7.72s3.45-7.72 7.72-7.72c4.28 0 7.73 3.45 7.73 7.72s-3.45 7.72-7.73 7.72z" class="st2"/>
        </g>
      </g>
      <g id="group84-12" transform="translate(28.5 -38.25)" v:mID="84" v:groupContext="group" v:layerMember="0">
        <g id="shape85-13" v:mID="85" v:groupContext="shape" v:layerMember="0">
          <path d="M26.25 61.12H23.1c-.9-4.72-5.02-8.25-9.98-8.25-1.94 0-3.82.53-5.47 1.65l-.23.15-.67-.75L0 61.8v3.07h3.15c.9 4.73 5.02 8.25 9.97 8.25 1.95 0 3.83-.52 5.48-1.65l.23-.15.67.75 6.75-7.87v-3.08z" class="st1"/>
        </g>
        <g id="group86-15" transform="translate(2.25 -2.25)" v:mID="86" v:groupContext="group" v:layerMember="0">
          <g id="shape87-16" v:mID="87" v:groupContext="shape" v:layerMember="0" transform="translate(0 -8.25)">
            <path d="M5.25 73.12H9l-4.5-5.25L0 73.12h5.25z" class="st3"/>
            <path d="M5.25 73.12H9l-4.5-5.25L0 73.12" class="st4"/>
          </g>
          <g id="shape88-19" v:mID="88" v:groupContext="shape" v:layerMember="0" transform="translate(6.6 -2.25)">
            <path d="M12.15 67.87v-.37c0-4.35-3.52-7.88-7.88-7.88-1.57 0-3 .45-4.27 1.28l1.5 1.72c.82-.45 1.72-.75 2.77-.75 3.08 0 5.63 2.55 5.63 5.63v.37H6.15l4.5 5.25 4.5-5.25h-3z" class="st5"/>
          </g>
          <g id="shape89-21" v:mID="89" v:groupContext="shape" v:layerMember="0" transform="translate(12.75 -2.25)">
            <path d="M3.75 67.87H0l4.5 5.25L9 67.87H3.75z" class="st3"/>
            <path d="M3.75 67.87H0l4.5 5.25L9 67.87" class="st4"/>
          </g>
          <g id="shape90-24" v:mID="90" v:groupContext="shape" v:layerMember="0">
            <path d="M13.65 70.12c-.82.45-1.72.75-2.77.75-3.08 0-5.63-2.55-5.63-5.62v-.38H9l-4.5-5.25L0 64.87h3v.38c0 4.35 3.52 7.87 7.88 7.87 1.57 0 3-.45 4.27-1.27l-1.5-1.73z" class="st5"/>
          </g>
        </g>
      </g>
    </g>
  </g>
</svg>
