<svg xmlns="http://www.w3.org/2000/svg" xmlns:v="http://schemas.microsoft.com/visio/2003/SVGExtensions/" width="102" height="87" viewBox="0 0 76.5 65.25" color-interpolation-filters="sRGB" fill="none" fill-rule="evenodd" font-size="12" overflow="visible" stroke-linecap="square" stroke-miterlimit="3">
  <v:documentProperties v:langID="4108" v:metric="true" v:viewMarkup="false"/>
  <style>
    .st1,.st2{fill:#fff;stroke:none;stroke-linecap:butt;stroke-width:.75}.st2{fill:#515150}
  </style>
  <g v:mID="0" v:index="1" v:groupContext="foregroundPage">
    <v:pageProperties v:drawingScale=".039" v:pageScale=".039" v:drawingUnits="24" v:shadowOffsetX="8.504" v:shadowOffsetY="-8.504"/>
    <v:layer v:name="symbols" v:index="0"/>
    <g id="group91-1" transform="translate(8.175 -4.688)" v:mID="91" v:groupContext="group" v:layerMember="0">
      <g id="group92-2" transform="translate(0 -11.25)" v:mID="92" v:groupContext="group" v:layerMember="0">
        <g id="shape93-3" v:mID="93" v:groupContext="shape" v:layerMember="0">
          <path class="st1" d="M0 24h51.75v41.25H0z"/>
        </g>
        <g id="shape94-5" v:mID="94" v:groupContext="shape" v:layerMember="0" transform="translate(38.25 -27)">
          <path class="st2" d="M0 58.5h6v6.75H0z"/>
        </g>
        <g id="shape95-7" v:mID="95" v:groupContext="shape" v:layerMember="0" transform="translate(11.25 -18)">
          <path class="st2" d="M0 63h21v2.25H0z"/>
        </g>
        <g id="shape96-9" v:mID="96" v:groupContext="shape" v:layerMember="0" transform="translate(11.25 -12)">
          <path class="st2" d="M0 63h25.5v2.25H0z"/>
        </g>
        <g id="shape97-11" v:mID="97" v:groupContext="shape" v:layerMember="0" transform="translate(2.25 -2.25)">
          <path d="M45 30.75V63H2.25V30.75H45zm2.25-2.25H0v36.75h47.25V28.5z" fill="#525352" stroke-linecap="butt" stroke-width=".75"/>
        </g>
      </g>
      <g id="group98-13" transform="translate(28.575)" v:mID="98" v:groupContext="group" v:layerMember="0">
        <g id="shape99-14" v:mID="99" v:groupContext="shape" v:layerMember="0">
          <path d="M20.85 65.25c-1.2 0-2.32-.75-2.77-1.87l-.68-1.58h-1.27l-.68 1.58c-.37 1.12-1.5 1.87-2.7 1.87-.37 0-.82-.07-1.12-.22l-2.85-1.2c-.75-.3-1.36-.91-1.65-1.65-.3-.76-.3-1.58 0-2.33l.67-1.57-.82-.83-1.58.68c-.37.15-.75.22-1.12.22-1.2 0-2.33-.75-2.78-1.87L.3 53.63c-.3-.75-.3-1.58 0-2.33s.9-1.35 1.65-1.65l1.58-.67v-1.2l-1.58-.68C1.2 46.8.6 46.2.3 45.45c-.3-.75-.3-1.57 0-2.32l1.2-2.85a3.023 3.023 0 0 1 2.78-1.88c.37 0 .75.08 1.12.23l1.58.67.82-.82-.67-1.58c-.3-.75-.3-1.57 0-2.32.29-.75.9-1.35 1.65-1.65l2.85-1.2c.37-.15.75-.23 1.12-.23 1.2 0 2.33.75 2.78 1.88l.6 1.5h1.27l.6-1.58a3.029 3.029 0 0 1 2.78-1.87c.37 0 .75.07 1.12.22l2.85 1.2c.75.3 1.35.9 1.65 1.65.3.75.3 1.58 0 2.33l-.67 1.57.82.83 1.58-.68c.37-.15.75-.22 1.12-.22 1.2 0 2.33.75 2.78 1.87l1.2 2.85c.3.75.3 1.57 0 2.33-.3.75-.9 1.35-1.65 1.65L30 47.7v1.2l1.58.68c1.57.67 2.25 2.39 1.65 3.97l-1.2 2.85a3.038 3.038 0 0 1-2.78 1.88c-.37 0-.82-.08-1.2-.23l-1.57-.67-.83.82.68 1.58c.29.74.29 1.57 0 2.32-.3.75-.9 1.35-1.65 1.65l-2.85 1.2c-.15.23-.6.3-.98.3z" class="st1"/>
        </g>
        <g id="shape100-16" v:mID="100" v:groupContext="shape" v:layerMember="0" transform="translate(2.025 -2.1)">
          <path d="M28.95 53.85l-2.4-.97c-.37-.15-.67-.38-.67-.45 0-.08.07-.53.07-.9v-1.95c0-.45-.07-.83-.07-.9 0-.08.3-.3.67-.45l2.4-.98c.38-.15.6-.6.45-1.05l-1.2-2.85c-.15-.37-.6-.6-1.05-.45l-2.4.98c-.37.15-.75.22-.82.15-.08-.08-.31-.38-.6-.75l-1.43-1.35c-.3-.3-.67-.53-.67-.6-.08-.08 0-.38.15-.83l.97-2.4c.15-.37 0-.82-.45-1.05l-2.85-1.2c-.38-.15-.83 0-1.05.45l-.97 2.4c-.15.38-.38.68-.45.68-.08 0-.53-.08-.9-.15 0 0-.38-.08-.98-.08s-.98.08-.98.08c-.45.07-.82.07-.89.15-.08 0-.31-.3-.46-.68l-.97-2.4c-.15-.37-.6-.6-1.05-.45l-2.85 1.2c-.37.15-.6.6-.45 1.05l.98 2.4c.14.38.22.75.15.83-.08.07-.38.3-.68.6l-1.42 1.42c-.3.3-.53.68-.6.75-.08.08-.38 0-.83-.15L2.4 42.83c-.37-.15-.82 0-1.05.45l-1.2 2.85c-.15.37 0 .82.45 1.05l2.4.97c.37.15.67.38.68.45-.01.08-.08.53-.08.9v1.95c0 .45.07.83.08.9-.01.08-.31.3-.68.45L.6 53.85c-.37.15-.6.6-.45 1.05l1.2 2.85c.15.37.6.6 1.05.45l2.4-.97c.38-.15.75-.23.83-.15.07.07.3.37.6.75l1.42 1.35c.3.29.67.52.75.6.07.07 0 .45-.15.82l-1.12 2.25c-.15.38 0 .82.45 1.05l2.85 1.2c.37.15.82 0 1.04-.45l.98-2.4c.15-.37.37-.67.45-.67.07 0 .52.07.9.15 0 0 .38.07.98.07s.97-.07.97-.07c.45-.08.83-.08.9-.15.08 0 .3.3.45.67l.98 2.4c.14.38.59.6 1.05.45l2.85-1.2c.37-.15.59-.6.45-1.05l-.98-2.4c-.15-.37-.22-.75-.15-.82.08-.08.38-.31.75-.6l1.43-1.43c.29-.3.52-.67.6-.75.07-.07.37 0 .82.15l2.4.98c.37.14.82-.01 1.05-.45l1.2-2.85c-.07-.23-.22-.68-.6-.83zM14.78 58.2c-4.28 0-7.73-3.45-7.73-7.72 0-4.28 3.45-7.73 7.73-7.73 4.27 0 7.72 3.45 7.72 7.73 0 4.27-3.45 7.72-7.72 7.72z" fill="#505150" stroke-linecap="butt" stroke-width=".75"/>
        </g>
      </g>
    </g>
  </g>
</svg>
