<svg xmlns="http://www.w3.org/2000/svg" xmlns:v="http://schemas.microsoft.com/visio/2003/SVGExtensions/" width="99" height="96" viewBox="0 0 74.25 72" color-interpolation-filters="sRGB" fill="none" fill-rule="evenodd" font-size="12" overflow="visible" stroke-linecap="square" stroke-miterlimit="3">
  <v:documentProperties v:langID="4108" v:metric="true" v:viewMarkup="false"/>
  <style>
    .st1,.st3{fill:#fff;stroke:none;stroke-linecap:butt;stroke-width:.75}.st3{fill:#515150}
  </style>
  <g v:mID="0" v:index="1" v:groupContext="foregroundPage">
    <v:pageProperties v:drawingScale=".039" v:pageScale=".039" v:drawingUnits="24" v:shadowOffsetX="8.504" v:shadowOffsetY="-8.504"/>
    <v:layer v:name="symbols" v:index="0"/>
    <g id="group123-1" transform="translate(9.863 -3.563)" v:mID="123" v:groupContext="group" v:layerMember="0">
      <g id="group124-2" transform="translate(0 -5.25)" v:mID="124" v:groupContext="group" v:layerMember="0">
        <g id="shape125-3" v:mID="125" v:groupContext="shape" v:layerMember="0">
          <path d="M21.75 24V13.5H0V72h37.5V36h-2.25v-6H33v-6h-2.25v-6.75H24V24h-2.25z" class="st1"/>
        </g>
        <g id="shape126-5" v:mID="126" v:groupContext="shape" v:layerMember="0" transform="translate(2.25 -2.25)">
          <path d="M30.75 40.5v-6H28.5v-6h-2.25v-6.75H24v6.75h-2.25v6H19.5v6h-2.25V18H0v54h33V40.5h-2.25zm-24 18.75h-3v-3h3v3zm0-6.75h-3v-3h3v3zm0-6.75h-3v-3h3v3zm0-6.75h-3v-3h3v3zm0-6.75h-3v-3h3v3zm0-6.75h-3v-3h3v3zm6.75 33.75h-3v-3h3v3zm0-6.75h-3v-3h3v3zm0-6.75h-3v-3h3v3zm0-6.75h-3v-3h3v3zm0-6.75h-3v-3h3v3zm0-6.75h-3v-3h3v3zM23.25 57h-3v-3h3v3zm0-10.5h-3v-3h3v3zm6 5.25h-3v-3h3v3z" fill="#535352" stroke-linecap="butt" stroke-width=".75"/>
        </g>
      </g>
      <g id="group127-7" transform="translate(33 -35.25)" v:mID="127" v:groupContext="group" v:layerMember="0">
        <g id="shape128-8" v:mID="128" v:groupContext="shape" v:layerMember="0">
          <path d="M22.5 57H24v-7.5H13.5l1.35-1.35V45H7.87L0 53.17 6.45 60h-1.2v7.5h10.12l-1.27 1.35V72H21l7.87-8.18L22.5 57z" class="st1"/>
        </g>
        <g id="shape129-10" v:mID="129" v:groupContext="shape" v:layerMember="0" transform="translate(3.075 -12.75)">
          <path d="M18.67 64.5H5.02l4.5-4.5H5.77L0 66l5.77 6h3.75l-4.5-4.5h13.65v-3z" class="st3"/>
        </g>
        <g id="shape130-12" v:mID="130" v:groupContext="shape" v:layerMember="0" transform="translate(7.5 -2.25)">
          <path d="M0 67.5h13.35L8.85 72h3.75l5.7-6-5.7-6H8.85l4.5 4.5H0v3z" class="st3"/>
        </g>
      </g>
      <g id="group131-14" transform="translate(28.575)" v:mID="131" v:groupContext="group" v:layerMember="0">
        <g id="shape132-15" v:mID="132" v:groupContext="shape" v:layerMember="0">
          <path d="M20.85 72c-1.2 0-2.32-.75-2.77-1.88l-.68-1.57h-1.28l-.67 1.57c-.37 1.13-1.5 1.88-2.7 1.88-.37 0-.82-.08-1.12-.23l-2.86-1.2c-.74-.3-1.35-.9-1.65-1.65-.29-.75-.29-1.57 0-2.32l.68-1.58-.83-.82-1.57.67c-.37.15-.75.23-1.12.23-1.2 0-2.33-.75-2.78-1.88L.3 60.37c-.3-.75-.3-1.57 0-2.32.3-.75.9-1.35 1.65-1.65l1.57-.68v-1.2l-1.57-.67C1.2 53.55.6 52.95.3 52.2c-.3-.75-.3-1.58 0-2.33l1.2-2.85a3.029 3.029 0 0 1 2.78-1.87c.37 0 .75.07 1.12.22l1.57.68.83-.83-.68-1.57c-.29-.75-.29-1.58 0-2.33.3-.75.91-1.35 1.65-1.65l2.86-1.2c.37-.15.75-.22 1.12-.22 1.2 0 2.33.75 2.78 1.87l.59 1.5h1.28l.6-1.57a3.023 3.023 0 0 1 2.78-1.88c.37 0 .75.08 1.12.23l2.85 1.2c.75.3 1.35.9 1.65 1.65.3.75.3 1.57 0 2.32l-.68 1.58.83.82 1.58-.67c.37-.15.75-.23 1.12-.23 1.2 0 2.33.75 2.78 1.88l1.2 2.85c.3.75.3 1.57 0 2.32-.3.75-.9 1.35-1.65 1.65l-1.58.68v1.2l1.58.67c1.57.68 2.25 2.4 1.65 3.98l-1.2 2.85a3.029 3.029 0 0 1-2.78 1.87c-.37 0-.82-.07-1.2-.22l-1.57-.68-.83.83.68 1.57c.29.75.29 1.58 0 2.33-.3.75-.9 1.35-1.65 1.65l-2.86 1.2c-.14.22-.59.3-.97.3zM16.8 49.65c-3 0-5.47 2.47-5.47 5.47-.01 3 2.47 5.48 5.47 5.48 3 0 5.47-2.48 5.47-5.48 0-3-2.47-5.47-5.47-5.47z" class="st1"/>
        </g>
        <g id="shape133-17" v:mID="133" v:groupContext="shape" v:layerMember="0" transform="translate(2.025 -2.1)">
          <path d="M28.95 60.6l-2.4-.98c-.37-.15-.67-.37-.67-.45 0-.07.07-.52.07-.9v-1.95c0-.45-.07-.82-.07-.9 0-.07.3-.3.67-.45l2.4-.97c.38-.15.6-.6.45-1.05l-1.2-2.85c-.15-.38-.6-.6-1.05-.45l-2.4.97c-.37.15-.75.23-.82.15-.08-.07-.31-.37-.61-.75l-1.42-1.35c-.3-.3-.67-.52-.67-.6-.08-.07 0-.37.15-.82l.97-2.4c.15-.38 0-.83-.45-1.05l-2.85-1.2c-.38-.15-.83 0-1.05.45l-.97 2.4c-.15.37-.38.67-.45.67-.08 0-.53-.07-.9-.15 0 0-.38-.07-.98-.07s-.98.07-.98.07c-.45.08-.82.08-.9.15-.07 0-.3-.3-.45-.67l-.97-2.4c-.15-.38-.6-.6-1.05-.45L7.5 43.8c-.37.15-.6.6-.45 1.05l.97 2.4c.15.37.23.75.15.82-.07.08-.37.3-.67.6L6.08 50.1c-.3.3-.53.67-.6.75-.08.07-.38 0-.83-.15L2.4 49.57c-.37-.15-.82 0-1.05.45l-1.2 2.85c-.15.38 0 .83.45 1.05l2.4.98c.37.15.67.37.67.45 0 .07-.07.52-.07.9v1.95c0 .45.07.82.07.9 0 .07-.3.3-.67.45L.6 60.6c-.37.15-.6.6-.45 1.05l1.2 2.85c.15.37.6.6 1.05.45l2.4-.98c.38-.15.75-.22.83-.15.07.08.3.38.6.75l1.42 1.35c.3.3.67.53.75.6.07.08 0 .45-.15.83L7.13 69.6c-.15.37 0 .82.44 1.05l2.86 1.2c.37.15.82 0 1.05-.45l.97-2.4c.15-.38.37-.68.45-.68.07 0 .52.08.9.15 0 0 .37.08.98.08.6 0 .97-.08.97-.08.45-.07.83-.07.9-.15.08 0 .3.3.45.68l.97 2.4c.15.37.6.6 1.05.45l2.86-1.2c.37-.15.59-.6.44-1.05l-.97-2.4c-.15-.38-.22-.75-.15-.83.08-.07.38-.3.75-.6l1.42-1.42c.3-.3.53-.68.6-.75.08-.08.38 0 .83.15l2.4.97c.37.15.82 0 1.05-.45l1.2-2.85c-.07-.22-.22-.67-.6-.82zm-14.17 4.35c-4.28 0-7.73-3.45-7.73-7.73 0-4.27 3.45-7.72 7.73-7.72 4.27 0 7.72 3.45 7.72 7.72 0 4.28-3.45 7.73-7.72 7.73z" class="st3"/>
        </g>
      </g>
    </g>
  </g>
</svg>
