<svg xmlns="http://www.w3.org/2000/svg" xmlns:v="http://schemas.microsoft.com/visio/2003/SVGExtensions/" width="84" height="97.5" viewBox="0 0 63 73.125" color-interpolation-filters="sRGB" fill="none" fill-rule="evenodd" font-size="12" overflow="visible" stroke-linecap="square" stroke-miterlimit="3">
  <v:documentProperties v:langID="4108" v:metric="true" v:viewMarkup="false"/>
  <style>
    .st1,.st2{fill:#fff;stroke:none;stroke-linecap:butt;stroke-width:.75}.st2{fill:#515150}
  </style>
  <g v:mID="0" v:index="1" v:groupContext="foregroundPage">
    <v:pageProperties v:drawingScale=".039" v:pageScale=".039" v:drawingUnits="24" v:shadowOffsetX="8.504" v:shadowOffsetY="-8.504"/>
    <v:layer v:name="symbols" v:index="0"/>
    <g id="group181-1" transform="translate(9 -7.688)" v:mID="181" v:groupContext="group" v:layerMember="0">
      <g id="group182-2" transform="translate(0 -6)" v:mID="182" v:groupContext="group" v:layerMember="0">
        <g id="shape183-3" v:mID="183" v:groupContext="shape" v:layerMember="0">
          <path d="M5.25 73.13C2.32 73.13 0 70.8 0 67.88V26.63c0-2.93 2.32-5.25 5.25-5.25H25.5c2.92 0 5.25 2.32 5.25 5.25v41.25c0 2.92-2.33 5.25-5.25 5.25H5.25z" class="st1"/>
        </g>
        <g id="shape184-5" v:mID="184" v:groupContext="shape" v:layerMember="0" transform="translate(2.25 -2.25)">
          <path d="M23.25 25.88H3c-1.65 0-3 1.35-3 3v41.25c0 1.65 1.35 3 3 3h20.25c1.65 0 3-1.35 3-3V28.88c0-1.65-1.35-3-3-3zm-7.5 42.75c0 .45-.3.75-.75.75h-3.75c-.45 0-.75-.3-.75-.75v-1.5c0-.45.3-.75.75-.75H15c.45 0 .75.3.75.75v1.5zm7.5-5.25H3v-31.5h20.25v31.5z" class="st2"/>
        </g>
      </g>
      <g id="group185-7" transform="translate(15.825)" v:mID="185" v:groupContext="group" v:layerMember="0">
        <g id="shape186-8" v:mID="186" v:groupContext="shape" v:layerMember="0">
          <path d="M20.85 73.13c-1.2 0-2.32-.75-2.77-1.88l-.68-1.57h-1.27l-.68 1.57c-.37 1.13-1.5 1.88-2.7 1.88-.37 0-.82-.08-1.12-.23l-2.86-1.2c-.74-.3-1.35-.9-1.65-1.65-.29-.75-.29-1.57 0-2.32l.68-1.58-.83-.82L5.4 66c-.37.15-.75.23-1.12.23-1.2 0-2.33-.75-2.78-1.88L.3 61.5c-.3-.75-.3-1.57 0-2.32.3-.75.9-1.35 1.65-1.65l1.57-.68v-1.2l-1.57-.67c-.75-.3-1.35-.9-1.65-1.65C0 52.58 0 51.75.3 51l1.2-2.85a3.029 3.029 0 0 1 2.78-1.87c.37 0 .75.07 1.12.22l1.57.68.83-.83-.68-1.57c-.29-.75-.29-1.58 0-2.33.3-.75.91-1.35 1.65-1.65l2.86-1.2c.37-.15.75-.22 1.12-.22 1.2 0 2.33.75 2.78 1.87l.6 1.5h1.27l.6-1.57a3.023 3.023 0 0 1 2.78-1.88c.37 0 .75.08 1.12.23l2.85 1.2c.75.3 1.35.9 1.65 1.65.3.75.3 1.57 0 2.32l-.68 1.58.83.82 1.58-.67c.37-.15.75-.23 1.12-.23 1.2 0 2.33.75 2.78 1.88l1.2 2.85c.3.75.3 1.57 0 2.32-.3.75-.9 1.35-1.65 1.65l-1.58.68v1.2l1.58.67c1.57.68 2.25 2.4 1.65 3.98l-1.2 2.85a3.029 3.029 0 0 1-2.78 1.87c-.37 0-.82-.07-1.2-.22l-1.57-.68-.83.83.68 1.57c.29.75.29 1.58 0 2.33-.3.75-.9 1.35-1.65 1.65l-2.86 1.2c-.14.22-.59.3-.97.3z" class="st1"/>
        </g>
        <g id="shape187-10" v:mID="187" v:groupContext="shape" v:layerMember="0" transform="translate(2.025 -2.1)">
          <path d="M28.95 61.73l-2.4-.98c-.37-.15-.67-.37-.67-.45 0-.07.07-.52.07-.9v-1.95c0-.45-.07-.82-.07-.9 0-.07.3-.3.67-.45l2.4-.97c.38-.15.6-.6.45-1.05l-1.2-2.85c-.15-.38-.6-.6-1.05-.45l-2.4.97c-.37.15-.75.23-.82.15-.08-.07-.3-.37-.61-.75L21.9 49.8c-.3-.3-.67-.52-.67-.6-.08-.07 0-.37.15-.82l.97-2.4c.15-.38 0-.83-.45-1.05l-2.85-1.2c-.38-.15-.83 0-1.05.45l-.97 2.4c-.15.37-.38.67-.45.67-.08 0-.53-.07-.9-.15 0 0-.38-.07-.98-.07s-.98.07-.98.07c-.45.08-.82.08-.9.15-.07 0-.3-.3-.44-.67l-.98-2.4c-.15-.38-.6-.6-1.05-.45l-2.85 1.2c-.37.15-.6.6-.45 1.05l.97 2.4c.15.37.23.75.15.82-.07.08-.37.3-.67.6l-1.42 1.43c-.3.3-.53.67-.6.75-.08.07-.38 0-.83-.15L2.4 50.7c-.37-.15-.82 0-1.05.45L.15 54c-.15.38 0 .83.45 1.05l2.4.98c.37.15.67.37.67.45 0 .07-.07.52-.07.9v1.95c0 .45.07.82.07.9 0 .07-.3.3-.67.45L.6 61.73c-.37.15-.6.6-.45 1.05l1.2 2.85c.15.37.6.6 1.05.45l2.4-.98c.38-.15.75-.22.83-.15.07.08.3.38.6.75l1.42 1.35c.3.3.67.53.75.6.07.08 0 .45-.15.83l-1.12 2.25c-.15.37 0 .82.44 1.05l2.86 1.2c.37.15.82 0 1.05-.45l.97-2.4c.15-.38.37-.68.45-.68.07 0 .52.08.9.15 0 0 .38.08.98.08s.97-.08.97-.08c.45-.07.83-.07.9-.15.08 0 .3.3.45.68l.97 2.4c.15.37.6.6 1.05.45l2.86-1.2c.37-.15.59-.6.44-1.05l-.97-2.4c-.15-.38-.22-.75-.15-.83.08-.07.38-.3.75-.6l1.42-1.42c.3-.3.53-.68.61-.75.07-.08.37 0 .82.15l2.4.97c.37.15.82 0 1.05-.45l1.2-2.85c-.07-.22-.22-.67-.6-.82zm-14.17 4.35c-4.28 0-7.73-3.45-7.73-7.73 0-4.27 3.45-7.72 7.73-7.72 4.27 0 7.72 3.45 7.72 7.72 0 4.28-3.45 7.73-7.72 7.73z" class="st2"/>
        </g>
      </g>
    </g>
  </g>
</svg>
