<svg xmlns="http://www.w3.org/2000/svg" xmlns:v="http://schemas.microsoft.com/visio/2003/SVGExtensions/" width="100.5" height="88.5" viewBox="0 0 75.375 66.375" color-interpolation-filters="sRGB" fill="none" fill-rule="evenodd" font-size="12" overflow="visible" stroke-linecap="square" stroke-miterlimit="3">
  <v:documentProperties v:langID="4108" v:metric="true" v:viewMarkup="false"/>
  <style>
    .st1,.st2{fill:#fff;stroke:none;stroke-linecap:butt;stroke-width:.75}.st2{fill:#525352}
  </style>
  <g v:mID="0" v:index="1" v:groupContext="foregroundPage">
    <v:pageProperties v:drawingScale=".039" v:pageScale=".039" v:drawingUnits="24" v:shadowOffsetX="8.504" v:shadowOffsetY="-8.504"/>
    <v:layer v:name="symbols" v:index="0"/>
    <g id="group188-1" transform="translate(10.725 -3.188)" v:mID="188" v:groupContext="group" v:layerMember="0">
      <g id="group189-2" transform="translate(0 -8.25)" v:mID="189" v:groupContext="group" v:layerMember="0">
        <g id="shape190-3" v:mID="190" v:groupContext="shape" v:layerMember="0">
          <path d="M48.75 16.87h-12.6c-2.17 0-3.3 1.13-4.35 2.1l-6.6 6.15H5.25C2.33 25.12 0 27.45 0 30.37v36h54V22.12c0-2.92-2.33-5.25-5.25-5.25z" class="st1"/>
        </g>
        <g id="shape191-5" v:mID="191" v:groupContext="shape" v:layerMember="0" transform="translate(28.5 -41.25)">
          <path d="M23.25 66.37v-3c0-1.65-1.35-3-3-3H7.65c-1.27 0-1.88.6-2.77 1.5L0 66.37h23.25z" class="st2"/>
        </g>
        <g id="shape192-7" v:mID="192" v:groupContext="shape" v:layerMember="0" transform="translate(2.25 -2.25)">
          <path d="M3 29.62c-1.65 0-3 1.35-3 3v33.75h49.5V29.62H3z" class="st2"/>
        </g>
      </g>
      <g id="group193-9" transform="translate(26.325)" v:mID="193" v:groupContext="group" v:layerMember="0">
        <g id="shape194-10" v:mID="194" v:groupContext="shape" v:layerMember="0">
          <path d="M20.85 66.37c-1.2 0-2.33-.75-2.77-1.87l-.68-1.58h-1.28l-.67 1.58c-.37 1.12-1.5 1.87-2.7 1.87-.37 0-.82-.07-1.12-.22l-2.86-1.2c-.74-.3-1.35-.9-1.65-1.65-.29-.75-.29-1.58 0-2.33l.68-1.57-.83-.83-1.57.68c-.37.15-.75.22-1.12.22-1.21 0-2.33-.75-2.78-1.87L.3 54.75C0 54 0 53.17.3 52.42s.9-1.35 1.65-1.65l1.57-.67v-1.2l-1.57-.68c-.75-.3-1.35-.9-1.65-1.65-.3-.75-.3-1.57 0-2.32l1.2-2.85a3.012 3.012 0 0 1 2.78-1.88c.37 0 .75.08 1.12.23l1.57.67.83-.82-.68-1.58c-.29-.75-.29-1.57 0-2.32.3-.75.91-1.35 1.65-1.65l2.86-1.2c.37-.15.75-.23 1.12-.23 1.2 0 2.32.75 2.77 1.88l.6 1.5h1.28l.6-1.58a3.015 3.015 0 0 1 2.77-1.87c.38 0 .75.07 1.13.22l2.85 1.2c.75.3 1.35.9 1.65 1.65.3.75.3 1.58 0 2.33l-.68 1.57.83.83 1.57-.68c.38-.15.75-.22 1.13-.22 1.2 0 2.32.75 2.77 1.87l1.2 2.85c.3.75.3 1.58 0 2.33s-.9 1.35-1.65 1.65l-1.57.67v1.2l1.57.68c1.58.67 2.25 2.4 1.65 3.97l-1.2 2.85a3.009 3.009 0 0 1-2.77 1.88c-.38 0-.82-.08-1.2-.23l-1.58-.67-.82.82.67 1.58c.3.75.3 1.57 0 2.32-.3.75-.9 1.35-1.65 1.65l-2.85 1.2c-.15.23-.6.3-.97.3z" class="st1"/>
        </g>
        <g id="shape195-12" v:mID="195" v:groupContext="shape" v:layerMember="0" transform="translate(2.025 -2.1)">
          <path d="M28.95 54.97l-2.4-.97c-.38-.15-.68-.38-.68-.45 0-.08.08-.53.08-.9V50.7c0-.45-.08-.83-.08-.9 0-.08.3-.3.68-.45l2.4-.98c.37-.15.6-.6.45-1.05l-1.2-2.85c-.15-.37-.6-.6-1.05-.45l-2.4.98c-.38.15-.75.22-.83.15-.07-.08-.3-.38-.6-.75l-1.42-1.35c-.3-.3-.68-.53-.68-.6-.07-.08 0-.38.15-.83l.98-2.4c.15-.37 0-.82-.45-1.05l-2.85-1.2c-.38-.15-.83 0-1.05.45l-.97 2.4c-.15.38-.38.68-.46.68-.07 0-.52-.08-.9-.15 0 0-.37-.08-.97-.08s-.98.08-.98.08c-.45.07-.82.07-.9.15-.07 0-.3-.3-.45-.68l-.97-2.4c-.15-.37-.6-.6-1.05-.45l-2.85 1.2c-.37.15-.6.6-.45 1.05l.97 2.4c.15.38.23.75.15.83-.07.07-.37.3-.67.6l-1.42 1.42c-.3.3-.53.68-.61.75-.07.08-.37 0-.82-.15L2.4 43.95c-.38-.15-.83 0-1.05.45l-1.2 2.85c-.15.37 0 .82.45 1.05l2.4.97c.37.15.67.38.67.45 0 .08-.07.53-.07.9v1.95c0 .45.07.83.07.9 0 .08-.3.3-.67.45L.6 54.97c-.37.15-.6.6-.45 1.05l1.2 2.85c.15.38.6.6 1.05.45l2.4-.97c.37-.15.75-.23.82-.15.08.07.31.37.61.75l1.42 1.35c.3.3.67.52.75.6.07.07 0 .45-.15.82l-1.12 2.25c-.15.38 0 .83.44 1.05l2.85 1.2c.38.15.83 0 1.05-.45l.98-2.4c.15-.37.37-.67.45-.67.07 0 .52.07.9.15 0 0 .37.07.97.07s.98-.07.98-.07c.45-.08.82-.08.9-.15.07 0 .3.3.45.67l.97 2.4c.15.38.6.6 1.05.45l2.85-1.2c.38-.15.6-.6.45-1.05l-.97-2.4c-.15-.37-.23-.75-.15-.82.07-.08.37-.3.75-.6l1.42-1.43c.3-.3.53-.67.6-.75.08-.07.38 0 .83.15l2.4.98c.37.15.82 0 1.05-.45l1.2-2.85c-.08-.23-.23-.68-.6-.83zm-14.18 4.35c-4.27 0-7.72-3.45-7.72-7.72 0-4.28 3.45-7.73 7.72-7.73 4.28 0 7.73 3.45 7.73 7.73 0 4.27-3.45 7.72-7.73 7.72z" class="st2"/>
        </g>
      </g>
    </g>
  </g>
</svg>
