<svg xmlns="http://www.w3.org/2000/svg" xmlns:v="http://schemas.microsoft.com/visio/2003/SVGExtensions/" width="101.7" height="90" viewBox="0 0 76.275 67.5" color-interpolation-filters="sRGB" fill="none" fill-rule="evenodd" font-size="12" overflow="visible" stroke-linecap="square" stroke-miterlimit="3">
  <v:documentProperties v:langID="4108" v:metric="true" v:viewMarkup="false"/>
  <style>
    .st1,.st2{fill:#fff;stroke:none;stroke-linecap:butt;stroke-width:.75}.st2{fill:#515150}
  </style>
  <g v:mID="0" v:index="1" v:groupContext="foregroundPage">
    <v:pageProperties v:drawingScale=".039" v:pageScale=".039" v:drawingUnits="24" v:shadowOffsetX="8.504" v:shadowOffsetY="-8.504"/>
    <v:layer v:name="symbols" v:index="0"/>
    <g id="group196-1" transform="translate(9.863 -2.813)" v:mID="196" v:groupContext="group" v:layerMember="0">
      <g id="group197-2" v:mID="197" v:groupContext="group" v:layerMember="0">
        <g id="group198-3" transform="translate(0 -11.25)" v:mID="198" v:groupContext="group" v:layerMember="0">
          <g id="group199-4" v:mID="199" v:groupContext="group" v:layerMember="0">
            <g id="shape200-5" v:mID="200" v:groupContext="shape" v:layerMember="0">
              <path d="M5.25 67.5C2.32 67.5 0 65.17 0 62.25v-34.5c0-2.92 2.32-5.25 5.25-5.25H52.5c2.92 0 5.25 2.33 5.25 5.25v34.5c0 2.92-2.33 5.25-5.25 5.25H5.25z" class="st1"/>
            </g>
            <g id="shape201-7" v:mID="201" v:groupContext="shape" v:layerMember="0" transform="translate(2.25 -2.25)">
              <path d="M50.25 27H3c-1.65 0-3 1.35-3 3v34.5c0 1.65 1.35 3 3 3h47.25c1.65 0 3-1.35 3-3V30c0-1.65-1.35-3-3-3zm-6 2.25h2.25v2.25h-2.25v-2.25zm-4.5 0H42v2.25h-2.25v-2.25zM51 64.5c0 .45-.3.75-.75.75H3c-.45 0-.75-.3-.75-.75v-30H51v30zm0-33h-2.25v-2.25H51v2.25z" class="st2"/>
            </g>
          </g>
          <g id="group202-9" transform="translate(16.425 -8.25)" v:mID="202" v:groupContext="group" v:layerMember="0">
            <g id="shape203-10" v:mID="203" v:groupContext="shape" v:layerMember="0" transform="translate(12.3 -11.925)">
              <path d="M4.65 61.65c-1.42.45-3 .68-4.65.75v5.1c1.95-.07 3.83-.3 5.55-.83-.07-1.8-.45-3.52-.9-5.02z" class="st2"/>
            </g>
            <g id="shape204-12" v:mID="204" v:groupContext="shape" v:layerMember="0" transform="translate(3.9 -19.275)">
              <path d="M3.67 64.35c-1.35.52-2.55 1.27-3.67 2.25.52.3 1.12.6 1.8.9.52-1.28 1.12-2.33 1.87-3.15z" class="st2"/>
            </g>
            <g id="shape205-14" v:mID="205" v:groupContext="shape" v:layerMember="0" transform="translate(6.9 -18.225)">
              <path d="M0 66.82c1.27.38 2.7.61 4.2.68v-4.95h-.45c-1.5.52-2.85 2.1-3.75 4.27z" class="st2"/>
            </g>
            <g id="shape206-16" v:mID="206" v:groupContext="shape" v:layerMember="0" transform="translate(5.55 -11.85)">
              <path d="M0 66.67c1.73.45 3.6.75 5.55.83v-5.1c-1.65-.07-3.15-.3-4.65-.75-.45 1.42-.83 3.15-.9 5.02z" class="st2"/>
            </g>
            <g id="shape207-18" v:mID="207" v:groupContext="shape" v:layerMember="0" transform="translate(18.6 -6.75)">
              <path d="M.52 62.62C.52 64.35.3 66 0 67.5c1.65-.6 3.15-1.43 4.5-2.4.15-.75.22-1.58.22-2.4 0-.75-.07-1.43-.22-2.1-1.2.75-2.55 1.42-4.05 1.87.07 0 .07.08.07.15z" class="st2"/>
            </g>
            <g id="shape208-20" v:mID="208" v:groupContext="shape" v:layerMember="0" transform="translate(0 -6.6)">
              <path d="M4.27 62.47v-.15c-1.5-.52-2.85-1.12-4.05-1.87a9.99 9.99 0 0 0-.22 2.1c0 .98.15 1.87.37 2.78 1.35.89 2.85 1.64 4.43 2.17-.3-1.58-.53-3.23-.53-5.03z" class="st2"/>
            </g>
            <g id="shape209-22" v:mID="209" v:groupContext="shape" v:layerMember="0" transform="translate(.6 -13.125)">
              <path d="M2.47 61.28C1.35 62.55.52 63.98 0 65.62c1.05.76 2.32 1.43 3.75 1.88.07-1.88.45-3.6.97-5.1-.82-.3-1.57-.67-2.25-1.12z" class="st2"/>
            </g>
            <g id="shape210-24" v:mID="210" v:groupContext="shape" v:layerMember="0" transform="translate(12.3 -18.225)">
              <path d="M0 67.5c1.5-.08 2.92-.3 4.2-.68-.9-2.17-2.25-3.75-3.75-4.2H0v4.88z" class="st2"/>
            </g>
            <g id="shape211-26" v:mID="211" v:groupContext="shape" v:layerMember="0" transform="translate(1.05 -.675)">
              <path d="M4.2 62.92c-1.5-.45-2.92-1.05-4.2-1.8 1.28 2.93 3.75 5.26 6.75 6.38-1.05-1.05-1.95-2.63-2.55-4.58z" class="st2"/>
            </g>
            <g id="shape212-28" v:mID="212" v:groupContext="shape" v:layerMember="0" transform="translate(15.825 -19.35)">
              <path d="M0 64.43c.75.82 1.35 1.87 1.87 3.07.6-.22 1.2-.52 1.8-.9-1.12-.9-2.32-1.65-3.67-2.17z" class="st2"/>
            </g>
            <g id="shape213-30" v:mID="213" v:groupContext="shape" v:layerMember="0" transform="translate(18.075 -13.125)">
              <path d="M4.72 65.62c-.52-1.64-1.35-3.07-2.47-4.34-.68.45-1.43.82-2.25 1.12.52 1.5.82 3.22.97 5.1 1.43-.45 2.7-1.05 3.75-1.88z" class="st2"/>
            </g>
            <g id="shape214-32" v:mID="214" v:groupContext="shape" v:layerMember="0" transform="translate(15.675 -.6)">
              <path d="M2.55 62.77c-.6 1.95-1.5 3.53-2.55 4.73 3.15-1.13 5.62-3.6 6.9-6.68-1.43.83-2.85 1.43-4.35 1.95z" class="st2"/>
            </g>
            <g id="shape215-34" v:mID="215" v:groupContext="shape" v:layerMember="0" transform="translate(6.75)">
              <path d="M4.35 67.5v-4.35c-1.5 0-3-.23-4.35-.53.97 2.7 2.55 4.5 4.35 4.88z" class="st2"/>
            </g>
            <g id="shape216-36" v:mID="216" v:groupContext="shape" v:layerMember="0" transform="translate(12.3 -5.55)">
              <path d="M5.55 61.65c-1.72.45-3.6.75-5.55.75v5.1c1.65-.08 3.3-.3 4.88-.75.45-1.58.67-3.3.67-5.1z" class="st2"/>
            </g>
            <g id="shape217-38" v:mID="217" v:groupContext="shape" v:layerMember="0" transform="translate(5.55 -5.55)">
              <path d="M5.55 67.5v-5.1c-1.95-.07-3.82-.3-5.55-.75 0 1.87.3 3.67.75 5.25 1.5.3 3.15.53 4.8.6z" class="st2"/>
            </g>
            <g id="shape218-40" v:mID="218" v:groupContext="shape" v:layerMember="0" transform="translate(12.3)">
              <path d="M0 63.15v4.35c1.8-.38 3.38-2.25 4.43-4.95-1.43.37-2.93.52-4.43.6z" class="st2"/>
            </g>
          </g>
        </g>
        <g id="group219-42" transform="translate(26.325)" v:mID="219" v:groupContext="group" v:layerMember="0">
          <g id="shape220-43" v:mID="220" v:groupContext="shape" v:layerMember="0">
            <path d="M20.85 67.5c-1.2 0-2.33-.75-2.77-1.87l-.68-1.58h-1.28l-.67 1.58c-.37 1.12-1.5 1.87-2.7 1.87-.37 0-.82-.07-1.12-.22l-2.86-1.21c-.74-.29-1.35-.9-1.65-1.64-.29-.76-.29-1.58 0-2.33l.68-1.57-.83-.83-1.57.68c-.37.15-.75.22-1.12.22-1.21 0-2.33-.75-2.78-1.87L.3 55.87c-.3-.74-.3-1.57 0-2.32.3-.75.9-1.35 1.65-1.65l1.57-.67v-1.2l-1.57-.68C1.2 49.05.6 48.45.3 47.7c-.3-.75-.3-1.57 0-2.32l1.2-2.85a3.012 3.012 0 0 1 2.78-1.88c.37 0 .75.08 1.12.23l1.57.67.83-.82-.68-1.58c-.29-.75-.29-1.57 0-2.32.3-.75.91-1.35 1.65-1.65l2.86-1.2c.37-.15.75-.23 1.12-.23 1.2 0 2.32.75 2.77 1.88l.6 1.5h1.28l.6-1.58a3.015 3.015 0 0 1 2.77-1.87c.38 0 .75.07 1.13.22l2.85 1.2c.75.3 1.35.9 1.65 1.65.3.75.3 1.58 0 2.33l-.68 1.57.83.83 1.57-.68c.38-.15.75-.22 1.13-.22 1.2 0 2.32.75 2.77 1.87l1.2 2.85c.3.75.3 1.57 0 2.33-.3.75-.9 1.35-1.65 1.65l-1.57.67v1.2l1.57.68c1.58.67 2.25 2.39 1.65 3.97l-1.2 2.85a3.024 3.024 0 0 1-2.77 1.88c-.38 0-.83-.08-1.2-.23l-1.58-.67-.82.82.67 1.57c.3.75.3 1.58 0 2.33s-.9 1.35-1.65 1.65l-2.85 1.2c-.15.23-.6.3-.97.3z" class="st1"/>
          </g>
          <g id="shape221-45" v:mID="221" v:groupContext="shape" v:layerMember="0" transform="translate(2.025 -2.1)">
            <path d="M28.95 56.1l-2.4-.97c-.38-.15-.68-.38-.68-.45 0-.08.08-.53.08-.9v-1.95c0-.45-.08-.83-.08-.9 0-.08.3-.31.68-.46l2.4-.97c.37-.15.6-.6.45-1.05l-1.2-2.85c-.15-.37-.6-.6-1.05-.45l-2.4.98c-.38.15-.75.22-.83.15-.07-.08-.3-.38-.6-.75l-1.42-1.35c-.3-.3-.68-.53-.68-.6-.07-.08 0-.38.15-.83l.98-2.4c.15-.37 0-.82-.45-1.05l-2.85-1.2c-.38-.15-.83 0-1.05.45l-.97 2.4c-.16.38-.38.68-.46.68-.07 0-.52-.08-.9-.15 0 0-.37-.08-.97-.08s-.98.08-.98.08c-.45.07-.82.07-.9.15-.07 0-.3-.3-.45-.68l-.97-2.4c-.15-.37-.6-.6-1.05-.45L7.5 39.3c-.37.15-.6.6-.45 1.05l.97 2.4c.15.38.23.75.15.83-.07.07-.37.3-.74.6L6 45.6c-.3.3-.53.68-.6.75-.08.08-.38 0-.83-.15L2.4 45.08c-.38-.15-.83 0-1.05.45l-1.2 2.85c-.15.37 0 .82.45 1.05l2.4.97c.37.15.67.38.67.45 0 .08-.07.53-.07.9v1.95c0 .45.07.83.07.9 0 .08-.3.3-.67.45L.6 56.1c-.37.15-.6.6-.45 1.05L1.35 60c.15.37.6.6.97.45l2.4-.97c.38-.15.75-.23.83-.15.08.07.3.37.6.74l1.42 1.35c.3.3.68.53.75.61.08.07 0 .45-.15.82L7.13 65.1c-.15.38 0 .83.44 1.05l2.85 1.2c.38.15.83 0 1.05-.45l.98-2.4c.15-.37.37-.67.45-.67.07 0 .52.07.9.15 0 0 .37.07.97.07s.98-.07.98-.07c.45-.08.82-.08.9-.15.07 0 .3.3.45.67l.97 2.4c.15.38.6.6 1.05.45l2.85-1.2c.38-.15.6-.6.45-1.05l-.97-2.4c-.15-.37-.23-.75-.15-.83.07-.07.37-.3.75-.6l1.42-1.42c.3-.3.53-.67.6-.75.08-.07.38 0 .83.15l2.4.97c.37.15.82 0 1.05-.44l1.2-2.86c-.08-.22-.23-.67-.6-.82zm-14.18 4.35c-4.27 0-7.72-3.45-7.72-7.72 0-4.28 3.45-7.73 7.72-7.73 4.28 0 7.73 3.45 7.73 7.73 0 4.27-3.45 7.72-7.73 7.72z" fill="#535352" stroke-linecap="butt" stroke-width=".75"/>
          </g>
        </g>
      </g>
    </g>
  </g>
</svg>
