<svg xmlns="http://www.w3.org/2000/svg" xmlns:v="http://schemas.microsoft.com/visio/2003/SVGExtensions/" width="102.3" height="88.5" viewBox="0 0 76.725 66.375" color-interpolation-filters="sRGB" fill="none" fill-rule="evenodd" font-size="12" overflow="visible" stroke-linecap="square" stroke-miterlimit="3">
  <v:documentProperties v:langID="4108" v:metric="true" v:viewMarkup="false"/>
  <style>
    .st1,.st3{fill:#fff;stroke:none;stroke-linecap:butt;stroke-width:.75}.st3{fill:#dc5b26}
  </style>
  <g v:mID="0" v:index="1" v:groupContext="foregroundPage">
    <v:pageProperties v:drawingScale=".039" v:pageScale=".039" v:drawingUnits="24" v:shadowOffsetX="8.504" v:shadowOffsetY="-8.504"/>
    <v:layer v:name="symbols" v:index="0"/>
    <g id="group250-1" transform="translate(8.438 -5.438)" v:mID="250" v:groupContext="group" v:layerMember="0">
      <g id="group251-2" v:mID="251" v:groupContext="group" v:layerMember="0">
        <g id="group252-3" v:mID="252" v:groupContext="group" v:layerMember="0">
          <g id="shape253-4" v:mID="253" v:groupContext="shape" v:layerMember="0">
            <path d="M37.43 64.27c-1.43.23-2.78-.45-3.53-1.65l-1.95-3.15h-.07c-.08 0-.75.23-1.8.38-1.05.22-1.8.22-1.88.22h-.07l-.83 3.6c-.3 1.35-1.43 2.4-2.85 2.63-.45.07-.9.07-1.35-.08l-4.88-1.12c-.9-.23-1.65-.75-2.17-1.58-.53-.82-.68-1.72-.45-2.62l.82-3.68-.15-.07-2.7-1.95s-.15-.08-.15-.15l-3.15 2.02c-.37.23-.82.38-1.27.45-1.43.23-2.85-.37-3.6-1.57l-2.62-4.28c-.53-.82-.68-1.72-.46-2.62.23-.9.83-1.73 1.58-2.18l3.15-1.95c0-.07-.08-.22-.08-.22l-.52-3.3v-.23l-3.67-.82c-.91-.22-1.66-.75-2.18-1.58-.45-.82-.6-1.8-.38-2.7l1.13-4.87c.3-1.35 1.43-2.4 2.85-2.63.45-.07.9-.07 1.35.08l3.67.82.08-.15 1.95-2.7s.07-.15.15-.15l-1.95-3.15c-.53-.82-.68-1.72-.45-2.62.22-.9.75-1.65 1.57-2.18l4.28-2.62c.37-.23.82-.38 1.27-.45 1.43-.22 2.78.38 3.53 1.65l1.95 3.15h.07c.08 0 .75-.22 1.8-.38 1.05-.15 1.8-.22 1.88-.22h.07l.83-3.6c.3-1.35 1.43-2.4 2.85-2.63.45-.07.9-.07 1.35.08l4.88 1.12c.9.23 1.65.75 2.17 1.58.53.82.68 1.73.45 2.62l-.82 3.68c.07 0 .15.07.15.07l2.7 1.95s.15.08.15.15l3.15-1.95c.37-.22.82-.37 1.27-.45 1.43-.22 2.78.38 3.53 1.65l2.62 4.28c.53.83.68 1.72.45 2.62-.22.9-.75 1.65-1.57 2.18l-3.15 1.95c0 .07.07.22.07.22l.53 3.3v.23l3.67.82c1.88.45 3.08 2.33 2.63 4.2L52.2 48.6c-.3 1.35-1.42 2.4-2.85 2.62-.45.08-.9.08-1.35-.07l-3.67-.83c0 .08-.08.15-.08.15l-1.95 2.7s-.07.15-.15.15l1.95 3.15c.53.83.68 1.73.45 2.63-.22.9-.75 1.65-1.57 2.17L38.7 63.9c-.37.07-.82.3-1.27.37zM25.12 29.62c-5.62.9-9.37 6.23-8.47 11.78.9 5.62 6.22 9.37 11.78 8.47 5.62-.9 9.37-6.22 8.47-11.77-.9-5.55-6.15-9.38-11.78-8.48z" class="st1"/>
          </g>
          <g id="shape254-6" v:mID="254" v:groupContext="shape" v:layerMember="0" transform="translate(2.25 -2.1)">
            <path d="M47.93 43.5l-4.05-.98c-.68-.14-1.2-.37-1.2-.52 0-.15-.08-.83-.08-1.5l-.53-3.08c-.14-.67-.3-1.34-.37-1.42-.07-.15.37-.53.98-.9l3.52-2.18c.6-.37.75-1.12.38-1.72l-2.63-4.28c-.37-.6-1.12-.75-1.72-.37l-3.53 2.17c-.6.38-1.12.61-1.28.45-.07-.07-.6-.52-1.12-.97l-2.55-1.88c-.6-.37-1.2-.67-1.28-.75-.14-.07-.07-.67.08-1.34l.98-4.05c.15-.68-.23-1.36-.9-1.5l-4.88-1.13c-.67-.15-1.35.22-1.5.9l-.97 4.05c-.15.68-.38 1.2-.53 1.2-.15 0-.82 0-1.5.08 0 0-.68 0-1.58.14-.89.15-1.49.31-1.49.31-.68.22-1.28.37-1.43.44-.15.08-.53-.37-.9-.97l-2.32-3.52c-.38-.61-1.13-.75-1.73-.38l-4.28 2.62c-.6.38-.74 1.13-.37 1.73l2.18 3.52c.37.61.6 1.13.45 1.28-.08.08-.53.6-.98 1.13l-1.88 2.54c-.37.6-.67 1.21-.74 1.28-.08.15-.68.07-1.35-.07l-3.98-.91c-.67-.14-1.35.23-1.5.91L.15 38.7c-.15.67.23 1.35.9 1.5l4.12.97c.68.15 1.2.38 1.2.53 0 .15.08.82.08 1.5l.53 3.15c.14.67.3 1.35.37 1.42.07.15-.37.53-.98.9l-3.52 2.18c-.6.37-.75 1.12-.38 1.72l2.63 4.28c.37.6 1.13.75 1.73.37l3.52-2.17c.6-.38 1.13-.6 1.28-.45.07.07.6.52 1.12.97l2.55 1.88c.6.37 1.2.67 1.28.75.14.07.07.67-.08 1.35l-.97 4.05c-.16.67.22 1.35.89 1.5l4.88 1.12c.67.15 1.35-.22 1.5-.9l.97-4.05c.16-.67.38-1.2.53-1.2.15 0 .83 0 1.5-.07 0 0 .68 0 1.58-.15s1.5-.3 1.5-.3c.67-.23 1.27-.38 1.42-.45.15-.08.53.37.9.97l2.17 3.53c.38.6 1.13.75 1.73.37l4.28-2.62c.6-.38.75-1.13.37-1.73l-2.17-3.52c-.38-.6-.6-1.13-.46-1.28.08-.07.53-.6.98-1.12l1.88-2.55c.37-.6.67-1.2.75-1.28.07-.15.67-.07 1.34.08l4.05.97c.68.15 1.36-.22 1.51-.9l1.12-4.87c.3-.83-.15-1.5-.82-1.65zM26.55 54.22c-6.83 1.13-13.28-3.52-14.4-10.34-1.13-6.83 3.53-13.28 10.35-14.41 6.83-1.12 13.28 3.53 14.4 10.36 1.13 6.82-3.53 13.27-10.35 14.39z" fill="#535352" stroke-linecap="butt" stroke-width=".75"/>
          </g>
        </g>
        <g id="group255-8" transform="translate(34.65 -24.75)" v:mID="255" v:groupContext="group" v:layerMember="0">
          <g id="shape256-9" v:mID="256" v:groupContext="shape" v:layerMember="0">
            <path d="M25.5 40.12h-6.75v-2.25h-2.4L0 40.42v23.33l16.35 2.62h2.4v-2.25h6.75c2.1 0 3.75-1.65 3.75-3.75v-16.5c0-2.1-1.65-3.75-3.75-3.75z" class="st1"/>
          </g>
          <g id="group257-11" transform="translate(11.25 -4.5)" v:mID="257" v:groupContext="group" v:layerMember="0">
            <g id="shape258-12" v:mID="258" v:groupContext="shape" v:layerMember="0">
              <path d="M14.25 48c.23 0 .38.15.38.37v16.5c0 .23-.15.38-.38.38H1.5c-.22 0-.38-.15-.38-.38v-16.5c0-.22.16-.37.38-.37h12.75zm0-1.13H1.5c-.82 0-1.5.68-1.5 1.5v16.5c0 .83.68 1.5 1.5 1.5h12.75c.83 0 1.5-.67 1.5-1.5v-16.5c0-.82-.67-1.5-1.5-1.5z" class="st3"/>
            </g>
            <g id="group259-14" transform="translate(2.25 -6.75)" v:mID="259" v:groupContext="group" v:layerMember="0">
              <g id="shape260-15" v:mID="260" v:groupContext="shape" v:layerMember="0">
                <path d="M4.5 57.37c-2.48 0-4.5 2.03-4.5 4.5 0 2.48 2.03 4.5 4.5 4.5S9 64.35 9 61.87H4.5v-4.5z" class="st3"/>
              </g>
              <g id="shape261-17" v:mID="261" v:groupContext="shape" v:layerMember="0" transform="translate(5.25 -5.25)">
                <path d="M0 66.37h4.5c0-2.47-2.02-4.5-4.5-4.5v4.5z" class="st3"/>
              </g>
            </g>
            <g id="shape262-19" v:mID="262" v:groupContext="shape" v:layerMember="0" transform="translate(3 -3.375)">
              <path class="st3" d="M0 65.25h9v1.125H0z"/>
            </g>
          </g>
          <g id="shape263-21" v:mID="263" v:groupContext="shape" v:layerMember="0" transform="translate(2.25 -2.25)">
            <path d="M14.25 42.37L0 44.62v19.5l14.25 2.25v-24z" class="st3"/>
          </g>
          <g id="shape264-23" v:mID="264" v:groupContext="shape" v:layerMember="0" transform="translate(7.05 -9.3)">
            <path d="M1.8 61.12v-1.5-.97c0-.23-.08-.3.15-.38.37-.07.75-.15 1.12 0 .6.23.68.9.68 1.5s-.23 1.2-.9 1.35c-.3.15-.68.08-1.05 0zm.9-4.57c-.83.07-1.65.07-2.55.15-.15 0-.15 0-.15.22v9.15c0 .15.3.15.45.15.45.08.9.08 1.27.15v-3.45c.68.08 1.35.08 1.95-.15.98-.37 1.58-1.27 1.8-2.25.15-.9.08-2.1-.45-2.85-.45-1.05-1.42-1.12-2.32-1.12z" class="st1"/>
          </g>
        </g>
      </g>
    </g>
  </g>
</svg>
