<svg xmlns="http://www.w3.org/2000/svg" xmlns:v="http://schemas.microsoft.com/visio/2003/SVGExtensions/" width="90.525" height="97.5" viewBox="0 0 67.894 73.125" color-interpolation-filters="sRGB" fill="none" fill-rule="evenodd" font-size="12" overflow="visible" stroke-linecap="square" stroke-miterlimit="3">
  <v:documentProperties v:langID="4108" v:metric="true" v:viewMarkup="false"/>
  <style>
    .st1,.st3{fill:#fff;stroke:none;stroke-linecap:butt;stroke-width:.75}.st3{fill:#515150}
  </style>
  <g v:mID="0" v:index="1" v:groupContext="foregroundPage">
    <v:pageProperties v:drawingScale=".039" v:pageScale=".039" v:drawingUnits="24" v:shadowOffsetX="8.504" v:shadowOffsetY="-8.504"/>
    <v:layer v:name="symbols" v:index="0"/>
    <g id="group265-1" transform="translate(9.431 -5.438)" v:mID="265" v:groupContext="group" v:layerMember="0">
      <g id="group266-2" v:mID="266" v:groupContext="group" v:layerMember="0">
        <g id="shape267-3" v:mID="267" v:groupContext="shape" v:layerMember="0" transform="translate(0 -14.175)">
          <path d="M5.55 73.05C2.48 73.05 0 70.58 0 67.5V38.1c0-3.07 2.48-5.55 5.55-5.55h29.48c3.07 0 5.55 2.48 5.55 5.55v29.48c0 3.07-2.48 5.55-5.55 5.55H5.55v-.08z" class="st1"/>
        </g>
        <g id="shape268-5" v:mID="268" v:groupContext="shape" v:layerMember="0" transform="translate(2.25 -16.5)">
          <path d="M32.7 73.13H3.3c-1.8 0-3.3-1.5-3.3-3.3v-29.4c0-1.8 1.5-3.3 3.3-3.3h29.47c1.8 0 3.3 1.5 3.3 3.3V69.9c-.07 1.73-1.57 3.23-3.37 3.23z" fill="#515050" stroke-linecap="butt" stroke-width=".75"/>
        </g>
        <g id="group269-7" transform="translate(20.325)" v:mID="269" v:groupContext="group" v:layerMember="0">
          <g id="shape270-8" v:mID="270" v:groupContext="shape" v:layerMember="0">
            <path d="M20.85 73.13c-1.2 0-2.32-.75-2.77-1.88l-.68-1.57h-1.28l-.67 1.57c-.37 1.13-1.5 1.88-2.7 1.88-.37 0-.82-.08-1.12-.23l-2.86-1.2c-.74-.3-1.35-.9-1.65-1.65-.29-.75-.29-1.57 0-2.32l.68-1.58-.83-.82L5.4 66c-.37.15-.75.23-1.12.23-1.2 0-2.33-.75-2.78-1.88L.3 61.5c-.3-.75-.3-1.57 0-2.32.3-.75.9-1.35 1.65-1.65l1.57-.68v-1.2l-1.57-.67c-.75-.3-1.35-.9-1.65-1.65C0 52.58 0 51.75.3 51l1.2-2.85a3.029 3.029 0 0 1 2.78-1.87c.37 0 .75.07 1.12.22l1.57.68.83-.83-.68-1.57c-.29-.75-.29-1.58 0-2.33.3-.75.91-1.35 1.65-1.65l2.86-1.2c.37-.15.75-.22 1.12-.22 1.2 0 2.33.75 2.78 1.87l.59 1.5h1.28l.6-1.57a3.012 3.012 0 0 1 2.78-1.88c.37 0 .75.08 1.12.23l2.85 1.2c.75.3 1.35.9 1.65 1.65.3.75.3 1.57 0 2.32l-.68 1.58.83.82 1.58-.67c.37-.15.75-.23 1.12-.23 1.2 0 2.33.75 2.78 1.88l1.2 2.85c.29.75.29 1.57 0 2.32-.3.75-.9 1.35-1.65 1.65l-1.58.68v1.2l1.58.67c1.57.68 2.25 2.4 1.65 3.98l-1.2 2.85a3.029 3.029 0 0 1-2.78 1.87c-.37 0-.82-.07-1.2-.22l-1.57-.68-.83.83.68 1.57c.29.75.29 1.58 0 2.33-.3.75-.9 1.35-1.65 1.65l-2.86 1.2c-.14.22-.59.3-.97.3z" class="st1"/>
          </g>
          <g id="shape271-10" v:mID="271" v:groupContext="shape" v:layerMember="0" transform="translate(2.025 -2.1)">
            <path d="M28.95 61.73l-2.4-.98c-.37-.15-.67-.37-.67-.45 0-.07.07-.52.07-.9v-1.95c0-.45-.07-.82-.07-.9 0-.07.3-.3.67-.45l2.4-.97c.37-.15.6-.6.45-1.05l-1.2-2.85c-.15-.38-.6-.6-1.05-.45l-2.4.97c-.38.15-.75.23-.83.15-.07-.07-.3-.37-.6-.75L21.9 49.8c-.3-.3-.67-.52-.67-.6-.08-.07 0-.37.15-.82l.97-2.4c.15-.38 0-.83-.45-1.05l-2.85-1.2c-.38-.15-.83 0-1.05.45l-.97 2.4c-.15.37-.38.67-.45.67-.08 0-.53-.07-.9-.15 0 0-.38-.07-.98-.07s-.98.07-.98.07c-.45.08-.82.08-.9.15-.07 0-.3-.3-.44-.67l-.98-2.4c-.15-.38-.6-.6-1.05-.45l-2.85 1.2c-.37.15-.6.6-.45 1.05l.97 2.4c.15.37.23.75.15.82-.07.08-.37.3-.67.6l-1.42 1.43c-.3.3-.53.67-.6.75-.08.07-.38 0-.83-.15L2.4 50.7c-.37-.15-.82 0-1.05.45L.15 54c-.15.38 0 .83.45 1.05l2.4.98c.37.15.67.37.67.45 0 .07-.07.52-.07.9v1.95c0 .45.07.82.07.9 0 .07-.3.3-.67.45L.6 61.73c-.37.15-.6.6-.45 1.05l1.2 2.85c.15.37.6.6 1.05.45l2.4-.98c.38-.15.75-.22.83-.15.07.08.3.38.6.75l1.42 1.35c.3.3.67.53.75.6.07.08 0 .45-.15.83l-1.12 2.25c-.15.37 0 .82.44 1.05l2.86 1.2c.37.15.82 0 1.05-.45l.97-2.4c.15-.38.37-.68.45-.68.07 0 .52.08.9.15 0 0 .37.08.98.08.6 0 .97-.08.97-.08.45-.07.83-.07.9-.15.08 0 .3.3.45.68l.97 2.4c.15.37.6.6 1.05.45l2.86-1.2c.37-.15.59-.6.44-1.05l-.97-2.4c-.15-.38-.22-.75-.15-.83.08-.07.38-.3.75-.6l1.42-1.42c.3-.3.53-.68.6-.75.08-.08.38 0 .83.15l2.4.97c.37.15.82 0 1.05-.45l1.2-2.85c-.07-.22-.22-.67-.6-.82zm-14.17 4.35c-4.28 0-7.73-3.45-7.73-7.73 0-4.27 3.45-7.72 7.73-7.72 4.27 0 7.72 3.45 7.72 7.72 0 4.28-3.45 7.73-7.72 7.73z" class="st3"/>
          </g>
        </g>
        <g id="group272-12" transform="translate(24.75 -39)" v:mID="272" v:groupContext="group" v:layerMember="0">
          <g id="shape273-13" v:mID="273" v:groupContext="shape" v:layerMember="0">
            <path d="M11.63 73.13C5.25 73.13 0 67.88 0 61.5c0-6.37 5.25-11.62 11.63-11.62 6.37 0 11.62 5.25 11.62 11.62 0 6.38-5.25 11.63-11.62 11.63z" class="st1"/>
          </g>
          <g id="shape274-15" v:mID="274" v:groupContext="shape" v:layerMember="0" transform="translate(2.25 -2.25)">
            <ellipse cx="9.375" cy="63.75" rx="9.375" ry="9.375" class="st3"/>
          </g>
          <g id="shape275-17" v:mID="275" v:groupContext="shape" v:layerMember="0" transform="translate(8.925 -7.5)">
            <path d="M4.05 63.45v9.68h-2.1v-7.35c-.15.07-.22.22-.37.3-.15.07-.3.15-.53.22-.22.08-.37.15-.52.15-.15 0-.38.08-.53.08v-1.65a9.2 9.2 0 0 0 1.5-.6c.45-.23.9-.53 1.28-.83h1.27z" class="st1"/>
          </g>
        </g>
      </g>
    </g>
  </g>
</svg>
