<svg xmlns="http://www.w3.org/2000/svg" xmlns:v="http://schemas.microsoft.com/visio/2003/SVGExtensions/" width="98.625" height="102" viewBox="0 0 73.969 76.5" color-interpolation-filters="sRGB" fill="none" fill-rule="evenodd" font-size="12" overflow="visible" stroke-linecap="square" stroke-miterlimit="3">
  <v:documentProperties v:langID="4108" v:metric="true" v:viewMarkup="false"/>
  <style>
    .st1,.st2,.st3{fill:#fff;stroke:none;stroke-linecap:butt;stroke-width:.75}.st2,.st3{fill:#00adeb}.st3{fill:#505150}
  </style>
  <g v:mID="0" v:index="1" v:groupContext="foregroundPage">
    <v:pageProperties v:drawingScale=".039" v:pageScale=".039" v:drawingUnits="24" v:shadowOffsetX="8.504" v:shadowOffsetY="-8.504"/>
    <v:layer v:name="symbols" v:index="0"/>
    <g id="group302-1" transform="translate(7.219 -8.813)" v:mID="302" v:groupContext="group" v:layerMember="0">
      <g id="group303-2" transform="translate(39.75 -36)" v:mID="303" v:groupContext="group" v:layerMember="0">
        <g id="shape304-3" v:mID="304" v:groupContext="shape" v:layerMember="0">
          <path d="M17.92 76.5c-1.2 0-2.32-.22-3.37-.75-.45.08-.9.08-1.43.07C6.23 75.83.68 70.2.67 63.38c.01-.46.01-.9.08-1.43C.3 60.9 0 59.7 0 58.58c0-4.58 3.75-8.33 8.32-8.33 1.2 0 2.33.23 3.38.75.45-.07.9-.07 1.42-.07 6.9 0 12.45 5.62 12.45 12.45 0 .45 0 .89-.07 1.42.45 1.05.75 2.25.75 3.38 0 4.57-3.75 8.32-8.33 8.32z" class="st1"/>
        </g>
        <g id="shape305-5" v:mID="305" v:groupContext="shape" v:layerMember="0" transform="translate(2.25 -2.25)">
          <path d="M20.92 67.43c.08-.61.15-1.21.15-1.8 0-5.63-4.57-10.2-10.2-10.2-.6 0-1.19.07-1.8.15-.89-.53-1.95-.83-3-.83A6.05 6.05 0 0 0 0 60.83c0 1.12.3 2.1.82 3-.07.6-.14 1.2-.15 1.8.01 5.62 4.58 10.2 10.2 10.19.6.01 1.2-.07 1.8-.14.9.52 1.95.82 3 .82 3.38 0 6.08-2.7 6.08-6.07 0-1.13-.3-2.11-.83-3zm-5.25 7.5c-.82 0-1.57-.23-2.25-.61l-.52-.29-.53.07c-.44.07-.97.15-1.5.15-4.79 0-8.7-3.9-8.7-8.7 0-.52.08-1.05.15-1.5l.08-.52-.3-.45c-.38-.68-.6-1.43-.6-2.25a4.507 4.507 0 0 1 6.75-3.9l.52.3.53-.08c.52-.07.97-.15 1.5-.15 4.8 0 8.7 3.9 8.7 8.7 0 .52-.08 1.05-.15 1.5l-.08.52.3.53c.38.67.6 1.42.6 2.25 0 2.4-2.02 4.43-4.5 4.43z" class="st2"/>
        </g>
        <g id="shape306-7" v:mID="306" v:groupContext="shape" v:layerMember="0" transform="translate(7.95 -6.9)">
          <path d="M7.05 69.3l-2.33-.53c-.9-.22-1.87-.44-1.87-1.35 0-.82.68-1.42 1.95-1.42 2.55 0 2.33 1.8 3.6 1.8.67 0 1.28-.37 1.27-1.05.01-1.58-2.54-2.78-4.72-2.78-2.33 0-4.8.98-4.8 3.6 0 1.28.45 2.63 2.92 3.3l3.08.75c.98.23 1.2.75 1.2 1.28 0 .82-.83 1.65-2.25 1.65-2.77 0-2.4-2.25-3.9-2.25-.68 0-1.2.45-1.2 1.12 0 1.28 1.57 3.08 5.1 3.08 3.3 0 5.02-1.65 5.02-3.83.08-1.35-.6-2.77-3.07-3.37z" class="st2"/>
        </g>
      </g>
      <g id="group307-9" transform="translate(0 -5.475)" v:mID="307" v:groupContext="group" v:layerMember="0">
        <g id="shape308-10" v:mID="308" v:groupContext="shape" v:layerMember="0">
          <path d="M39.75 32.62v35.1C39.08 75.38 27 76.5 19.88 76.5 12.75 76.5.68 75.38 0 67.72v-36.6c0-5.39 9.98-7.87 19.88-7.87 9.9 0 19.87 2.48 19.87 7.87v1.5z" class="st1"/>
        </g>
        <g id="shape309-12" v:mID="309" v:groupContext="shape" v:layerMember="0" transform="translate(2.25 -2.25)">
          <path d="M17.63 41.25c-7.05 0-14.1-1.2-17.63-3.9v32.4c.53 6.22 13.2 6.75 17.63 6.75 4.42 0 17.02-.53 17.62-6.75v-32.4c-3.52 2.7-10.57 3.9-17.62 3.9z" class="st3"/>
        </g>
        <g id="shape310-14" v:mID="310" v:groupContext="shape" v:layerMember="0" transform="translate(2.25 -39.75)">
          <ellipse cx="17.625" cy="70.875" rx="17.625" ry="5.625" class="st3"/>
        </g>
      </g>
      <g id="group311-16" transform="translate(21.825)" v:mID="311" v:groupContext="group" v:layerMember="0">
        <g id="shape312-17" v:mID="312" v:groupContext="shape" v:layerMember="0">
          <path d="M20.85 76.5c-1.2 0-2.33-.75-2.78-1.87l-.67-1.58h-1.28l-.67 1.58c-.37 1.12-1.5 1.87-2.7 1.87-.38 0-.83-.07-1.13-.22l-2.85-1.2c-.75-.3-1.34-.9-1.65-1.65-.3-.75-.3-1.58 0-2.33l.68-1.57-.83-.83-1.57.68c-.37.14-.75.22-1.13.22-1.2 0-2.32-.75-2.77-1.87L.3 64.88c-.3-.76-.3-1.58 0-2.33s.9-1.35 1.65-1.65l1.57-.67v-1.2l-1.57-.68C1.2 58.05.6 57.45.3 56.7c-.3-.75-.3-1.57 0-2.32l1.2-2.85a3.009 3.009 0 0 1 2.77-1.88c.38 0 .76.08 1.13.23l1.57.67.83-.82-.68-1.58c-.3-.75-.3-1.57 0-2.32.31-.75.9-1.35 1.65-1.65l2.85-1.2c.38-.15.75-.23 1.13-.23 1.2 0 2.33.75 2.77 1.88l.6 1.5h1.28l.6-1.58c.52-1.05 1.65-1.8 2.85-1.8.37 0 .75.08 1.12.23l2.85 1.2c.75.3 1.35.9 1.65 1.65.3.75.3 1.57 0 2.32l-.67 1.58.82.82 1.58-.67c.37-.15.75-.23 1.12-.23 1.2 0 2.33.75 2.78 1.88l1.2 2.85c.3.75.3 1.57 0 2.32-.3.75-.9 1.35-1.65 1.65l-1.58.68v1.2l1.58.67c1.57.68 2.25 2.4 1.65 3.98l-1.2 2.85a3.029 3.029 0 0 1-2.78 1.87c-.37 0-.82-.08-1.2-.22l-1.57-.68-.83.83.68 1.57c.3.75.3 1.58 0 2.33s-.9 1.35-1.65 1.65l-2.85 1.2c-.3.15-.68.22-1.05.22z" class="st1"/>
        </g>
        <g id="shape313-19" v:mID="313" v:groupContext="shape" v:layerMember="0" transform="translate(1.8 -2.1)">
          <path d="M29.1 65.1l-2.4-.97c-.38-.15-.68-.38-.68-.45 0-.08.08-.53.08-.9v-1.95c0-.46-.08-.83-.08-.9 0-.08.3-.31.68-.45l2.4-.98c.37-.15.6-.6.45-1.05l-1.2-2.85c-.15-.37-.6-.6-1.05-.45l-2.4.98c-.38.15-.75.22-.83.15-.07-.08-.29-.38-.6-.75l-1.42-1.35c-.3-.3-.67-.53-.68-.6-.07-.08.01-.38.15-.83l.98-2.4c.15-.37 0-.82-.45-1.05l-2.85-1.2c-.37-.15-.83 0-1.05.45l-.98 2.4c-.14.38-.37.68-.45.68-.07 0-.52-.08-.9-.15.01 0-.37-.08-.97-.08s-.97.08-.98.08c-.45.07-.82.07-.9.15-.07 0-.29-.3-.45-.68l-.97-2.4c-.15-.37-.6-.6-1.05-.45l-2.85 1.2c-.38.15-.6.6-.45 1.05l.97 2.4c.16.38.23.75.16.83-.08.07-.38.3-.68.6L6.22 54.6c-.29.3-.52.67-.6.75-.07.08-.37 0-.82-.15l-2.4-.97c-.37-.15-.83 0-1.05.45l-1.2 2.85c-.15.37 0 .82.45 1.05l2.4.97c.37.15.67.37.67.45 0 .07-.07.52-.07.9v1.95c0 .45.07.83.07.9 0 .08-.3.3-.67.45l-2.17.9c-.38.15-.6.6-.45 1.05L1.57 69c.15.37.61.6 1.05.45l2.4-.97c.38-.15.75-.23.83-.15.08.07.3.37.6.75l1.42 1.35c.3.29.68.52.75.6.08.07 0 .45-.15.82L7.35 74.1c-.15.38 0 .82.45 1.05l2.85 1.2c.37.15.83 0 1.05-.45l.97-2.4c.15-.37.38-.67.45-.67.08 0 .53.07.9.15 0 0 .38.07.98.07s.97-.07.97-.07c.46-.08.83-.08.9-.15.08 0 .3.3.45.67l.98 2.4c.15.38.6.6 1.05.45l2.85-1.2c.38-.15.6-.6.45-1.05l-.98-2.4c-.15-.38-.22-.75-.15-.82.08-.08.38-.31.75-.6l1.43-1.43c.3-.3.52-.67.6-.75.08-.07.37 0 .82.15l2.4.98c.38.14.83-.01 1.05-.45l1.2-2.85c-.07-.23-.22-.68-.67-.83zM15 69.45c-4.28 0-7.73-3.45-7.73-7.72C7.27 57.45 10.72 54 15 54c4.27 0 7.72 3.45 7.72 7.73 0 4.27-3.45 7.72-7.72 7.72z" class="st3"/>
        </g>
      </g>
    </g>
  </g>
</svg>
