<svg xmlns="http://www.w3.org/2000/svg" xmlns:v="http://schemas.microsoft.com/visio/2003/SVGExtensions/" width="97.5" height="96" viewBox="0 0 73.125 72" color-interpolation-filters="sRGB" fill="none" fill-rule="evenodd" font-size="12" overflow="visible" stroke-linecap="square" stroke-miterlimit="3">
  <v:documentProperties v:langID="4108" v:metric="true" v:viewMarkup="false"/>
  <style>
    .st1,.st2{fill:#fff;stroke:none;stroke-linecap:butt;stroke-width:.75}.st2{fill:#515251}
  </style>
  <g v:mID="0" v:index="1" v:groupContext="foregroundPage">
    <v:pageProperties v:drawingScale=".039" v:pageScale=".039" v:drawingUnits="24" v:shadowOffsetX="8.504" v:shadowOffsetY="-8.504"/>
    <v:layer v:name="symbols" v:index="0"/>
    <g id="group314-1" transform="translate(7.05 -2.438)" v:mID="314" v:groupContext="group" v:layerMember="0">
      <g id="group315-2" transform="translate(0 -9)" v:mID="315" v:groupContext="group" v:layerMember="0">
        <g id="shape316-3" v:mID="316" v:groupContext="shape" v:layerMember="0">
          <path d="M50.92 72l-.15-2.4c-.22-3.68-1.12-11.33-1.95-14.85-.9-3.9-2.09-6.6-5.85-8.7l-1.35-.75c-2.62-1.5-3.74-2.18-5.25-2.18-.82 0-1.5.15-2.24.53l-1.13.6.9-.75c3.07-2.7 5.02-6.83 5.03-11.48.07-8.17-6-14.77-13.43-14.77h-.08c-7.42 0-13.49 6.6-13.49 14.77 0 4.65 1.94 8.78 5.02 11.48l.9.75-1.2-.6c-.68-.38-1.42-.53-2.25-.53-1.5 0-2.7.68-5.25 2.18l-1.35.75c-3.6 2.17-4.8 4.8-5.7 8.7C1.28 58.27.45 65.92.15 69.6L0 72h50.92z" class="st1"/>
        </g>
        <g id="shape317-5" v:mID="317" v:groupContext="shape" v:layerMember="0" transform="translate(2.625 -2.325)">
          <path d="M44.03 57.6c-.9-3.83-1.88-5.63-4.73-7.2-2.85-1.65-4.42-2.63-5.48-2.63-.44 0-.82.08-1.12.3-.68.6-1.43 1.2-2.25 1.65-.15.08-.3.15-.38.23-.82.52-1.64.82-2.4 1.12-1.49.53-3.07.83-4.72.83s-3.23-.3-4.73-.83c-.82-.22-1.57-.6-2.39-1.12-.98-.53-1.88-1.2-2.63-1.95-.3-.15-.68-.3-1.12-.3-1.06 0-2.18.75-5.48 2.62-2.85 1.65-3.9 3.45-4.73 7.2C1.12 60.82.23 68.4 0 72h46.12c-.52-3.53-1.35-11.1-2.09-14.4z" class="st2"/>
        </g>
        <g id="shape318-7" v:mID="318" v:groupContext="shape" v:layerMember="0" transform="translate(14.175 -27.525)">
          <path d="M11.25 72C5.02 72 0 66.37 0 59.47c0-6.9 5.1-12.45 11.25-12.45 6.22 0 11.25 5.63 11.25 12.53 0 6.9-5.03 12.45-11.25 12.45z" class="st2"/>
        </g>
      </g>
      <g id="group319-9" transform="translate(30)" v:mID="319" v:groupContext="group" v:layerMember="0">
        <g id="shape320-10" v:mID="320" v:groupContext="shape" v:layerMember="0">
          <path d="M20.92 72a3.02 3.02 0 0 1-2.77-1.88l-.68-1.57H16.2l-.68 1.57A2.929 2.929 0 0 1 12.75 72c-.37 0-.82-.08-1.12-.23l-2.86-1.2c-.74-.3-1.35-.9-1.65-1.65-.29-.75-.29-1.57 0-2.32l.68-1.58-.83-.82-1.57.67c-.37.15-.75.23-1.12.23-1.21 0-2.33-.75-2.78-1.88L.3 60.37c-.3-.75-.3-1.57 0-2.32.3-.75.9-1.35 1.65-1.65l1.57-.68v-1.2l-1.57-.67C1.2 53.55.6 52.95.3 52.2c-.3-.75-.3-1.58 0-2.33l1.2-2.85a3.018 3.018 0 0 1 2.78-1.87c.37 0 .75.07 1.12.22l1.57.68.83-.83-.68-1.57c-.29-.75-.29-1.58 0-2.33.3-.75.91-1.35 1.65-1.65l2.86-1.2c.37-.15.75-.22 1.12-.22 1.2 0 2.33.75 2.77 1.87l.6 1.5h1.28l.6-1.57a3.009 3.009 0 0 1 2.77-1.88c.38 0 .76.08 1.13.23l2.85 1.2c.75.3 1.35.9 1.65 1.65.3.75.3 1.57 0 2.32l-.68 1.58.83.82 1.57-.67c.38-.15.76-.23 1.13-.23 1.2 0 2.32.75 2.77 1.88l1.21 2.85c.29.75.29 1.57 0 2.32-.31.75-.9 1.35-1.66 1.65l-1.57.68v1.2l1.57.67c1.58.68 2.25 2.4 1.66 3.98l-.98 2.92a3.023 3.023 0 0 1-2.78 1.88c-.37 0-.82-.08-1.2-.23l-1.57-.67-.83.82.68 1.58c.3.75.3 1.57 0 2.32-.3.75-.9 1.35-1.65 1.65l-2.85 1.2c-.38.15-.75.23-1.13.23z" class="st1"/>
        </g>
        <g id="shape321-12" v:mID="321" v:groupContext="shape" v:layerMember="0" transform="translate(2.1 -2.1)">
          <path d="M28.87 60.6l-2.4-.98c-.37-.15-.67-.37-.67-.45 0-.07.07-.52.07-.9v-1.95c0-.45-.07-.82-.07-.9 0-.07.3-.3.67-.45l2.4-.97c.38-.15.6-.6.45-1.05l-1.2-2.85c-.15-.38-.6-.6-1.04-.45l-2.41.97c-.37.15-.75.23-.82.15-.08-.07-.3-.37-.6-.75l-1.35-1.35c-.3-.3-.68-.52-.68-.6-.07-.07 0-.37.15-.82l.98-2.4c.15-.38 0-.83-.45-1.05l-2.85-1.2c-.38-.15-.83 0-1.05.45l-.97 2.4c-.15.37-.38.67-.45.67-.08 0-.53-.07-.91-.15 0 0-.37-.07-.97-.07s-.98.07-.98.07c-.45.08-.82.08-.9.15-.07 0-.29-.3-.44-.67l-.98-2.4c-.15-.38-.6-.6-1.05-.45L7.5 43.8c-.37.15-.6.6-.45 1.05l.97 2.4c.15.37.23.75.15.82-.07.08-.37.3-.67.6l-1.35 1.35c-.3.3-.52.68-.6.75-.07.08-.38 0-.83-.15L2.4 49.57c-.38-.15-.83 0-1.05.45l-1.2 2.85c-.15.38 0 .83.45 1.05l2.4.98c.37.15.67.37.67.45 0 .07-.07.52-.07.9v1.95c0 .45.07.82.07.9 0 .07-.3.3-.67.45L.6 60.6c-.37.15-.6.6-.45 1.05l1.2 2.85c.15.37.6.6 1.05.45l2.4-.98c.37-.15.75-.22.83-.15.07.08.3.38.6.75l1.42 1.35c.3.3.67.53.75.6.07.08 0 .45-.15.83L7.13 69.6c-.15.37 0 .82.44 1.05l2.85 1.2c.38.15.83 0 1.06-.45l.97-2.4c.15-.38.37-.68.45-.68.07 0 .52.08.9.15 0 0 .37.08.97.08s.98-.08.98-.08c.45-.07.83-.07.9-.15.08 0 .3.3.45.68l.97 2.4c.15.37.6.6 1.05.45l2.86-1.2c.37-.15.59-.6.44-1.05l-.97-2.4c-.15-.38-.23-.75-.15-.83.07-.07.38-.3.75-.6l1.42-1.42c.3-.3.53-.68.6-.75.08-.08.38 0 .83.15l2.4.97c.37.15.82 0 1.05-.45l1.2-2.85c-.08-.22-.3-.67-.68-.82zM14.7 64.95c-4.28 0-7.72-3.45-7.72-7.73 0-4.27 3.44-7.72 7.72-7.72 4.27 0 7.72 3.45 7.72 7.72.08 4.28-3.37 7.73-7.72 7.73z" fill="#525352" stroke-linecap="butt" stroke-width=".75"/>
        </g>
      </g>
    </g>
  </g>
</svg>
