<svg xmlns="http://www.w3.org/2000/svg" xmlns:v="http://schemas.microsoft.com/visio/2003/SVGExtensions/" width="96" height="94.5" viewBox="0 0 72 70.875" color-interpolation-filters="sRGB" fill="none" fill-rule="evenodd" font-size="12" overflow="visible" stroke-linecap="square" stroke-miterlimit="3">
  <v:documentProperties v:langID="4108" v:metric="true" v:viewMarkup="false"/>
  <style>
    .st1,.st2{fill:#fff;stroke:none;stroke-linecap:butt;stroke-width:.75}.st2{fill:#515150}
  </style>
  <g v:mID="0" v:index="1" v:groupContext="foregroundPage">
    <v:pageProperties v:drawingScale=".039" v:pageScale=".039" v:drawingUnits="24" v:shadowOffsetX="8.504" v:shadowOffsetY="-8.504"/>
    <v:layer v:name="symbols" v:index="0"/>
    <g id="group322-1" transform="translate(7.5 -2.663)" v:mID="322" v:groupContext="group" v:layerMember="0">
      <g id="group323-2" transform="translate(0 -6.45)" v:mID="323" v:groupContext="group" v:layerMember="0">
        <g id="shape324-3" v:mID="324" v:groupContext="shape" v:layerMember="0">
          <path d="M24 70.88c-1.65 0-3.3-.53-4.58-1.58C7.5 60.15.82 47.25.15 31.88c-.15-2.7 1.42-5.1 3.75-5.85C9 24.38 12.67 21.9 19.8 15.6c1.12-1.05 2.62-1.57 4.2-1.57 1.57 0 3 .52 4.2 1.57 6.75 5.93 10.8 8.55 15.97 10.43 2.33.82 3.83 3.22 3.68 5.85-.68 15.3-7.35 28.27-19.2 37.5-1.35.97-3 1.5-4.65 1.5z" class="st1"/>
        </g>
        <g id="shape325-5" v:mID="325" v:groupContext="shape" v:layerMember="0" transform="translate(2.325 -1.875)">
          <path d="M18.97 19.2c-7.12 6.3-11.17 9-16.72 10.88-1.5.45-2.25 2.1-2.17 3.67.67 15.6 7.79 27.53 18.37 35.7 1.87 1.43 4.57 1.43 6.45 0 10.57-8.17 17.62-20.1 18.37-35.77.08-1.5-.67-3.15-2.17-3.68-5.55-1.95-9.83-4.72-16.73-10.8-1.57-1.35-3.89-1.35-5.4 0z" class="st2"/>
        </g>
      </g>
      <g id="group326-7" transform="translate(27.45)" v:mID="326" v:groupContext="group" v:layerMember="0">
        <g id="shape327-8" v:mID="327" v:groupContext="shape" v:layerMember="0">
          <path d="M20.85 70.88c-1.2 0-2.32-.75-2.77-1.88l-.68-1.57h-1.28L15.45 69c-.37 1.13-1.5 1.88-2.7 1.88-.37 0-.82-.08-1.12-.23l-2.86-1.2c-.74-.3-1.35-.9-1.65-1.65-.29-.75-.29-1.57 0-2.32l.68-1.58-.83-.82-1.57.67c-.37.15-.75.23-1.12.23-1.2 0-2.33-.75-2.78-1.88L.3 59.25c-.3-.75-.3-1.57 0-2.32.3-.75.9-1.35 1.65-1.65l1.57-.68v-1.2l-1.57-.67c-.75-.3-1.35-.9-1.65-1.65-.3-.75-.3-1.58 0-2.33l1.2-2.85a3.029 3.029 0 0 1 2.78-1.87c.37 0 .75.07 1.12.22l1.57.68.83-.83-.68-1.57c-.29-.75-.29-1.58 0-2.33.3-.75.91-1.35 1.65-1.65l2.86-1.2c.37-.15.75-.22 1.12-.22 1.2 0 2.33.75 2.78 1.87l.59 1.5h1.28l.6-1.57a3.012 3.012 0 0 1 2.78-1.88c.37 0 .75.08 1.12.23l2.85 1.2c.75.3 1.35.9 1.65 1.65.3.75.3 1.57 0 2.32l-.68 1.58.83.82 1.58-.67c.37-.15.75-.23 1.12-.23 1.2 0 2.33.75 2.78 1.88l1.2 2.85c.29.75.29 1.57 0 2.32-.3.75-.9 1.35-1.65 1.65l-1.58.68v1.2l1.58.67c1.57.68 2.25 2.4 1.65 3.98l-1.2 2.85a3.029 3.029 0 0 1-2.78 1.87c-.37 0-.82-.07-1.2-.22L26.48 63l-.83.83.68 1.57c.29.75.29 1.58 0 2.33-.3.75-.9 1.35-1.65 1.65l-2.86 1.2c-.14.22-.59.3-.97.3zM16.8 48.53c-3 0-5.48 2.47-5.48 5.47 0 3 2.48 5.48 5.48 5.48 3 0 5.47-2.48 5.47-5.48 0-3-2.47-5.47-5.47-5.47z" class="st1"/>
        </g>
        <g id="shape328-10" v:mID="328" v:groupContext="shape" v:layerMember="0" transform="translate(2.025 -2.1)">
          <path d="M28.95 59.48l-2.4-.98c-.37-.15-.67-.37-.67-.45 0-.07.07-.52.07-.9V55.2c0-.45-.07-.82-.07-.9 0-.07.3-.3.67-.45l2.4-.97c.37-.15.6-.6.45-1.05l-1.2-2.85c-.15-.38-.6-.6-1.05-.45l-2.4.97c-.38.15-.75.23-.83.15-.07-.07-.3-.37-.6-.75l-1.42-1.35c-.3-.3-.67-.52-.67-.6-.08-.07 0-.37.15-.82l.97-2.4c.15-.38 0-.83-.45-1.05l-2.85-1.2c-.38-.15-.83 0-1.05.45l-.97 2.4c-.15.37-.38.67-.45.67-.08 0-.53-.07-.9-.15 0 0-.38-.07-.98-.07s-.98.07-.98.07c-.45.08-.82.08-.9.15-.07 0-.3-.3-.45-.67l-.97-2.4c-.15-.38-.6-.6-1.05-.45l-2.85 1.2c-.37.15-.6.6-.45 1.05l.97 2.4c.15.37.23.75.15.82-.07.08-.37.3-.67.6l-1.42 1.43c-.3.3-.53.67-.6.75-.08.07-.38 0-.83-.15L2.4 48.45c-.37-.15-.82 0-1.05.45l-1.2 2.85c-.15.38 0 .83.45 1.05l2.4.98c.37.15.67.37.67.45 0 .07-.07.52-.07.9v1.95c0 .45.07.82.07.9 0 .07-.3.3-.67.45L.6 59.48c-.37.15-.6.6-.45 1.05l1.2 2.85c.15.37.6.6 1.05.45l2.4-.98c.38-.15.75-.22.83-.15.07.08.3.38.6.75l1.42 1.35c.3.3.67.53.75.6.07.08 0 .45-.15.83l-1.12 2.25c-.15.37 0 .82.44 1.05l2.86 1.2c.37.15.82 0 1.05-.45l.97-2.4c.15-.38.37-.68.45-.68.07 0 .52.08.9.15 0 0 .37.08.97.08.61 0 .98-.08.98-.08.45-.07.83-.07.9-.15.08 0 .3.3.45.68l.97 2.4c.15.37.6.6 1.05.45l2.86-1.2c.37-.15.59-.6.44-1.05l-.97-2.4c-.15-.38-.22-.75-.15-.83.08-.07.38-.3.75-.6l1.42-1.42c.3-.3.53-.68.6-.75.08-.08.38 0 .83.15l2.4.97c.37.15.82 0 1.05-.45l1.2-2.85c-.08-.22-.23-.67-.6-.82zm-14.18 4.35c-4.27 0-7.72-3.45-7.72-7.73 0-4.27 3.45-7.72 7.72-7.72 4.28 0 7.73 3.45 7.73 7.72 0 4.28-3.45 7.73-7.73 7.73z" class="st2"/>
        </g>
      </g>
      <g id="shape329-12" v:mID="329" v:groupContext="shape" v:layerMember="0" transform="translate(13.35 -26.1)">
        <path d="M.08 61.5c-.08-.15-.08-.3 0-.37l2.32-2.1c.07-.08.07-.08.15-.08.08 0 .15.08.23.08l5.7 6.22 10.8-14.32c.07-.08.15-.08.22-.08s.07 0 .15.08l2.4 1.95c.08.07.08.15.08.15 0 .07 0 .15-.08.22L8.4 70.88.08 61.5z" class="st1"/>
      </g>
    </g>
  </g>
</svg>
