<svg xmlns="http://www.w3.org/2000/svg" xmlns:v="http://schemas.microsoft.com/visio/2003/SVGExtensions/" width="104.1" height="88.5" viewBox="0 0 78.075 66.375" color-interpolation-filters="sRGB" fill="none" fill-rule="evenodd" font-size="12" overflow="visible" stroke-linecap="square" stroke-miterlimit="3">
  <v:documentProperties v:langID="4108" v:metric="true" v:viewMarkup="false"/>
  <style>
    .st1,.st3{fill:#fff;stroke:none;stroke-linecap:butt;stroke-width:.75}.st3{fill:#4c69b1}
  </style>
  <g v:mID="0" v:index="1" v:groupContext="foregroundPage">
    <v:pageProperties v:drawingScale=".039" v:pageScale=".039" v:drawingUnits="24" v:shadowOffsetX="8.504" v:shadowOffsetY="-8.504"/>
    <v:layer v:name="symbols" v:index="0"/>
    <g id="group330-1" transform="translate(9.412 -5.438)" v:mID="330" v:groupContext="group" v:layerMember="0">
      <g id="shape331-2" v:mID="331" v:groupContext="shape" v:layerMember="0">
        <path d="M50.48 39.52l-3.68-.82v-.23l-.52-3.3s-.08-.15-.08-.22L49.35 33c.83-.53 1.35-1.28 1.58-2.18.22-.9.07-1.79-.45-2.62l-2.63-4.28c-.75-1.27-2.1-1.87-3.53-1.65-.44.08-.89.23-1.27.45l-3.15 1.95c0-.07-.15-.15-.15-.15l-2.7-1.95s-.07-.07-.15-.07l.83-3.68c.22-.89.07-1.8-.45-2.62a3.568 3.568 0 0 0-2.18-1.58l-4.88-1.12c-.44-.15-.89-.15-1.34-.08-1.43.23-2.56 1.28-2.86 2.63l-.82 3.6h-.07c-.08 0-.83.07-1.88.22-1.05.16-1.72.38-1.8.38h-.07l-1.95-3.15c-.75-1.27-2.1-1.87-3.53-1.65-.45.07-.9.22-1.27.45l-4.28 2.62c-.83.53-1.35 1.28-1.57 2.18-.23.9-.08 1.8.45 2.62l1.95 3.15c-.08 0-.15.15-.15.15l-1.95 2.7-.08.15-3.67-.82c-.46-.15-.9-.15-1.35-.08-1.43.23-2.55 1.28-2.85 2.63L0 36.07l.38 2.7c.52.83 1.27 1.35 2.17 1.58l3.68.82v.23l.52 3.3s.08.15.08.22l-3.15 1.95c-.75.45-1.35 1.28-1.58 2.18-.22.9-.08 1.8.45 2.62l2.63 4.28c.74 1.2 2.17 1.8 3.6 1.57.45-.07.89-.22 1.27-.45l3.15-2.02c0 .07.15.15.15.15l2.7 1.95.15.07-.82 3.68c-.23.9-.08 1.8.44 2.62.53.83 1.28 1.35 2.18 1.58l4.88 1.12c.45.15.89.15 1.34.08 1.43-.23 2.56-1.28 2.86-2.63l.82-3.6h.07c.08 0 .83 0 1.88-.22 1.05-.15 1.73-.38 1.8-.38h.08l1.95 3.15c.74 1.2 2.1 1.88 3.52 1.65.45-.07.9-.3 1.27-.37l4.28-2.63a3.47 3.47 0 0 0 1.57-2.17c.23-.9.08-1.8-.44-2.63l-1.95-3.15c.07 0 .15-.15.15-.15l1.95-2.7s.07-.07.07-.15l3.68.83c.45.15.89.15 1.35.07 1.42-.22 2.55-1.27 2.85-2.62l1.12-4.88c.45-1.87-.75-3.75-2.62-4.2zM28.2 49.87c-5.55.9-10.87-2.85-11.77-8.47-.91-5.55 2.85-10.88 8.47-11.78 5.63-.9 10.88 2.93 11.78 8.48.9 5.55-2.85 10.87-8.48 11.77z" class="st1"/>
      </g>
      <g id="shape332-4" v:mID="332" v:groupContext="shape" v:layerMember="0" transform="translate(2.025 -2.1)">
        <path d="M47.92 43.5l-4.05-.98c-.67-.15-1.2-.37-1.2-.52 0-.15-.07-.83-.07-1.5l-.53-3.08c-.15-.67-.3-1.35-.37-1.42-.08-.15.37-.53.97-.9l3.53-2.18c.6-.37.75-1.12.37-1.72l-2.62-4.28c-.38-.6-1.13-.75-1.73-.37l-3.52 2.17c-.6.38-1.13.6-1.28.45-.07-.07-.6-.52-1.12-.97l-2.55-1.88c-.6-.37-1.2-.67-1.28-.75-.15-.07-.07-.67.08-1.35l.97-4.05c.16-.67-.22-1.35-.9-1.5l-4.87-1.12c-.68-.15-1.35.22-1.5.9l-.97 4.05c-.16.67-.38 1.2-.53 1.2-.15 0-.83 0-1.5.07 0 0-.68 0-1.58.15s-1.5.3-1.5.3c-.67.23-1.27.38-1.42.45-.15.08-.53-.37-.9-.97l-2.33-3.53c-.37-.6-1.12-.75-1.72-.37l-4.28 2.62c-.6.38-.74 1.13-.37 1.73l2.18 3.52c.37.6.6 1.13.44 1.28-.07.07-.52.6-.97 1.12l-1.88 2.55c-.37.6-.67 1.2-.74 1.28-.08.15-.68.07-1.36-.08l-3.97-.9c-.68-.15-1.35.23-1.5.9L.15 38.7c-.15.67.22 1.35.9 1.5l4.12.97c.68.15 1.2.38 1.2.53 0 .15.08.82.08 1.5l.53 3.15c.14.67.3 1.35.37 1.42.07.15-.37.53-.98.9l-3.52 2.18c-.6.37-.75 1.12-.38 1.72l2.63 4.28c.37.6 1.12.75 1.72.37l3.53-2.17c.6-.38 1.12-.6 1.28-.45.07.07.6.52 1.12.97l2.55 1.88c.6.37 1.2.67 1.28.75.14.07.07.67-.08 1.35l-.98 4.05c-.15.67.23 1.35.9 1.5l4.88 1.12c.67.15 1.35-.22 1.5-.9l.97-4.05c.15-.67.38-1.2.53-1.2.15 0 .82 0 1.5-.07 0 0 .67 0 1.57-.15s1.5-.3 1.5-.3c.68-.23 1.28-.38 1.43-.45.15-.08.52.37.9.97l2.17 3.53c.38.6 1.13.75 1.73.37l4.27-2.62c.6-.38.75-1.13.38-1.73l-2.18-3.52c-.37-.6-.6-1.13-.45-1.28.08-.07.53-.6.98-1.12l1.87-2.55c.38-.6.68-1.2.75-1.28.08-.15.68-.07 1.35.08l4.05.97c.68.15 1.35-.22 1.5-.9l1.13-4.87c.3-.83-.15-1.5-.83-1.65zM26.55 54.22c-6.83 1.13-13.28-3.52-14.4-10.35-1.13-6.82 3.53-13.27 10.35-14.4 6.83-1.12 13.27 3.53 14.4 10.35 1.13 6.83-3.53 13.28-10.35 14.4z" fill="#535352" stroke-linecap="butt" stroke-width=".75"/>
      </g>
      <g id="group333-6" transform="translate(34.425 -24.75)" v:mID="333" v:groupContext="group" v:layerMember="0">
        <g id="shape334-7" v:mID="334" v:groupContext="shape" v:layerMember="0">
          <path d="M26.25 40.12h-7.5v-2.25h-2.4L0 40.42v23.33l16.35 2.62h2.4v-2.25h7.5c2.1 0 3.75-1.65 3.75-3.75v-16.5c0-2.1-1.65-3.75-3.75-3.75z" class="st1"/>
        </g>
        <g id="group335-9" transform="translate(10.5 -4.5)" v:mID="335" v:groupContext="group" v:layerMember="0">
          <g id="shape336-10" v:mID="336" v:groupContext="shape" v:layerMember="0" transform="translate(.75)">
            <path d="M15 48c.22 0 .37.15.37.37v16.5c0 .23-.15.38-.37.38H1.5c-.23 0-.38-.15-.38-.38v-16.5c0-.22.15-.37.38-.37H15zm0-1.13H1.5c-.83 0-1.5.68-1.5 1.5v16.5c0 .83.67 1.5 1.5 1.5H15c.82 0 1.5-.67 1.5-1.5v-16.5c0-.82-.68-1.5-1.5-1.5z" class="st3"/>
          </g>
          <g id="shape337-12" v:mID="337" v:groupContext="shape" v:layerMember="0" transform="translate(7.875 -10.425)">
            <path d="M4.05 66.37l.22-.22 2.48-2.48.15-.15v-1.2l-.15-.15-2.48-2.47-.15-.15H2.85l-.15.15-2.48 2.47-.22.23v1.05l.22.22 2.48 2.48.22.22h1.13zm-.53-.97l-2.47-2.48 2.47-2.47L6 62.92 3.52 65.4z" class="st3"/>
          </g>
          <g id="shape338-14" v:mID="338" v:groupContext="shape" v:layerMember="0" transform="translate(0 -2.25)">
            <path d="M7.87 60.75v4.5H1.12v-4.5h6.75zm0-1.13H1.12c-.6 0-1.12.53-1.12 1.13v4.5c0 .6.52 1.12 1.12 1.12h6.75c.6 0 1.13-.52 1.13-1.12v-4.5c0-.6-.53-1.13-1.13-1.13z" class="st3"/>
          </g>
          <g id="shape339-16" v:mID="339" v:groupContext="shape" v:layerMember="0" transform="translate(8.25 -5.25)">
            <path d="M2.55 60.52v4.73H0v1.12h2.55c.6 0 1.12-.52 1.12-1.12v-4.73H2.55z" class="st3"/>
          </g>
          <g id="shape340-18" v:mID="340" v:groupContext="shape" v:layerMember="0" transform="translate(3.75 -13.35)">
            <path class="st3" d="M0 65.25h4.5v1.125H0z"/>
          </g>
        </g>
        <g id="shape341-20" v:mID="341" v:groupContext="shape" v:layerMember="0" transform="translate(2.25 -2.25)">
          <path d="M14.25 42.37L0 44.62v19.5l14.25 2.25v-24z" class="st3"/>
        </g>
        <g id="shape342-22" v:mID="342" v:groupContext="shape" v:layerMember="0" transform="translate(5.325 -9)">
          <path d="M7.12 57.07l-2.62 9.3-1.95-.07L0 56.92h1.8l1.58 6.53c.07.37.14.67.14.9 0-.3.08-.6.15-.98l1.58-6.45 1.87.15z" class="st1"/>
        </g>
      </g>
    </g>
  </g>
</svg>
