<svg xmlns="http://www.w3.org/2000/svg" xmlns:v="http://schemas.microsoft.com/visio/2003/SVGExtensions/" width="102" height="96" viewBox="0 0 76.5 72" color-interpolation-filters="sRGB" fill="none" fill-rule="evenodd" font-size="12" overflow="visible" stroke-linecap="square" stroke-miterlimit="3">
  <v:documentProperties v:langID="4108" v:metric="true" v:viewMarkup="false"/>
  <style>
    .st1,.st2{fill:#fff;stroke:none;stroke-linecap:butt;stroke-width:.75}.st2{fill:#515150}
  </style>
  <g v:mID="0" v:index="1" v:groupContext="foregroundPage">
    <v:pageProperties v:drawingScale=".039" v:pageScale=".039" v:drawingUnits="24" v:shadowOffsetX="8.504" v:shadowOffsetY="-8.504"/>
    <v:layer v:name="symbols" v:index="0"/>
    <g id="group343-1" transform="translate(10.05 -3.038)" v:mID="343" v:groupContext="group" v:layerMember="0">
      <g id="group344-2" transform="translate(0 -7.05)" v:mID="344" v:groupContext="group" v:layerMember="0">
        <g id="shape345-3" v:mID="345" v:groupContext="shape" v:layerMember="0">
          <path d="M26.62 72C11.92 72 0 60.07 0 45.37s11.92-26.62 26.62-26.62c14.7 0 26.63 11.92 26.63 26.62C53.25 60.07 41.32 72 26.62 72z" class="st1"/>
        </g>
        <g id="group346-5" transform="translate(2.25 -2.7)" v:mID="346" v:groupContext="group" v:layerMember="0">
          <g id="shape347-6" v:mID="347" v:groupContext="shape" v:layerMember="0" transform="translate(25.5 -24.3)">
            <path d="M0 72c4.05-.08 8.03-.68 11.55-1.65-.15-3.83-.82-7.43-1.87-10.58-3 .9-6.3 1.5-9.68 1.58V72z" class="st2"/>
          </g>
          <g id="shape348-8" v:mID="348" v:groupContext="shape" v:layerMember="0" transform="translate(25.5 -37.275)">
            <path d="M0 61.42V72c3.15-.08 6.15-.6 8.92-1.43-2.1-5.1-5.32-8.55-8.92-9.15z" class="st2"/>
          </g>
          <g id="shape349-10" v:mID="349" v:groupContext="shape" v:layerMember="0" transform="translate(14.325 -37.35)">
            <path d="M8.92 61.5c-3.6.6-6.74 4.05-8.92 9.07 2.77.83 5.77 1.35 8.92 1.43V61.5z" class="st2"/>
          </g>
          <g id="shape350-12" v:mID="350" v:groupContext="shape" v:layerMember="0" transform="translate(1.05 -26.7)">
            <path d="M5.18 58.57c-2.33 2.55-4.13 5.7-5.18 9.08 2.33 1.8 5.18 3.22 8.4 4.35.23-3.9.9-7.5 1.95-10.65-1.87-.75-3.67-1.73-5.17-2.78z" class="st2"/>
          </g>
          <g id="shape351-14" v:mID="351" v:groupContext="shape" v:layerMember="0" transform="translate(38.25 -13.725)">
            <path d="M1.12 61.8C1.12 65.4.75 68.85 0 72c3.75-1.28 7.12-3.08 10.05-5.33.3-1.57.52-3.22.52-4.87s-.15-3.23-.45-4.73c-2.55 1.8-5.55 3.23-8.92 4.35-.08.08-.08.23-.08.38z" class="st2"/>
          </g>
          <g id="shape352-16" v:mID="352" v:groupContext="shape" v:layerMember="0" transform="translate(7.725 -39.525)">
            <path d="M9.67 64.2C6 65.25 2.78 67.2 0 69.67c1.35.9 2.78 1.65 4.42 2.33 1.43-3.23 3.23-5.93 5.25-7.8z" class="st2"/>
          </g>
          <g id="shape353-18" v:mID="353" v:groupContext="shape" v:layerMember="0" transform="translate(0 -13.575)">
            <path d="M9.37 61.65v-.45a33.857 33.857 0 0 1-8.92-4.28C.15 58.42 0 60 0 61.65c0 1.8.22 3.6.6 5.32 2.92 2.1 6.37 3.83 9.97 5.03-.75-3.15-1.2-6.68-1.2-10.35z" class="st2"/>
          </g>
          <g id="shape354-20" v:mID="354" v:groupContext="shape" v:layerMember="0" transform="translate(11.7 -24.3)">
            <path d="M0 70.35c3.6.97 7.5 1.57 11.55 1.65V61.27c-3.37-.07-6.67-.67-9.68-1.57C.83 62.85.15 66.45 0 70.35z" class="st2"/>
          </g>
          <g id="shape355-22" v:mID="355" v:groupContext="shape" v:layerMember="0" transform="translate(37.35 -26.7)">
            <path d="M10.35 67.65a24.65 24.65 0 0 0-5.1-9.08C3.68 59.7 1.87 60.6 0 61.35 1.05 64.5 1.73 68.1 1.95 72c3.23-1.13 6.08-2.55 8.4-4.35z" class="st2"/>
          </g>
          <g id="shape356-24" v:mID="356" v:groupContext="shape" v:layerMember="0" transform="translate(31.275 -39.45)">
            <path d="M0 64.12C2.1 66 3.9 68.7 5.25 72c1.65-.68 3.15-1.43 4.5-2.33-2.7-2.47-6.08-4.42-9.75-5.55z" class="st2"/>
          </g>
          <g id="shape357-26" v:mID="357" v:groupContext="shape" v:layerMember="0" transform="translate(11.625 -11.4)">
            <path d="M11.63 72V61.35C7.58 61.27 3.6 60.67 0 59.77c0 3.9.53 7.65 1.42 10.88 3.31.82 6.68 1.27 10.21 1.35z" class="st2"/>
          </g>
          <g id="shape358-28" v:mID="358" v:groupContext="shape" v:layerMember="0" transform="translate(31.275 -.525)">
            <path d="M6.23 61.42C4.8 65.92 2.63 69.6 0 72c7.43-2.18 13.35-7.8 15.98-15.08-2.93 1.88-6.23 3.45-9.75 4.5z" class="st2"/>
          </g>
          <g id="shape359-30" v:mID="359" v:groupContext="shape" v:layerMember="0" transform="translate(1.575 -.6)">
            <path d="M9.67 61.65C6.22 60.6 2.92 59.17 0 57.37 2.7 64.42 8.55 69.9 15.82 72c-2.55-2.25-4.72-5.93-6.15-10.35z" class="st2"/>
          </g>
          <g id="shape360-32" v:mID="360" v:groupContext="shape" v:layerMember="0" transform="translate(13.875)">
            <path d="M9.37 72v-9.15C6.15 62.77 3 62.4 0 61.72c2.1 5.7 5.47 9.6 9.37 10.28z" class="st2"/>
          </g>
          <g id="shape361-34" v:mID="361" v:groupContext="shape" v:layerMember="0" transform="translate(25.5 -11.475)">
            <path d="M11.63 59.77c-3.61.98-7.58 1.5-11.63 1.58V72c3.52-.08 6.98-.6 10.2-1.5.9-3.23 1.43-6.83 1.43-10.73z" class="st2"/>
          </g>
          <g id="shape362-36" v:mID="362" v:groupContext="shape" v:layerMember="0" transform="translate(25.5)">
            <path d="M0 62.85V72c3.9-.68 7.27-4.58 9.37-10.35-3 .67-6.15 1.05-9.37 1.2z" class="st2"/>
          </g>
        </g>
      </g>
      <g id="group363-38" transform="translate(29.85)" v:mID="363" v:groupContext="group" v:layerMember="0">
        <g id="shape364-39" v:mID="364" v:groupContext="shape" v:layerMember="0">
          <path d="M20.92 72a3.02 3.02 0 0 1-2.77-1.88l-.68-1.57H16.2l-.67 1.57A3.023 3.023 0 0 1 12.75 72c-.37 0-.82-.08-1.12-.23l-2.86-1.2c-.74-.3-1.34-.9-1.65-1.65-.29-.75-.29-1.57 0-2.32l.68-1.58-.82-.82-1.58.6c-.37.15-.75.22-1.12.22-1.2 0-2.33-.75-2.78-1.87L.3 60.3c-.3-.75-.3-1.58 0-2.33s.9-1.35 1.65-1.65l1.57-.67v-1.2l-1.57-.68c-.75-.3-1.35-.9-1.65-1.65-.3-.75-.3-1.57 0-2.32l1.2-2.85a3.023 3.023 0 0 1 2.78-1.88c.37 0 .75.08 1.12.23l1.58.67.82-.82-.68-1.58c-.29-.75-.29-1.57 0-2.32.3-.75.91-1.35 1.65-1.65l2.86-1.2c.37-.15.75-.23 1.12-.23 1.2 0 2.33.75 2.78 1.88l.6 1.5h1.27l.6-1.58a3.029 3.029 0 0 1 2.78-1.87c.37 0 .75.07 1.12.22l2.85 1.2c.75.3 1.35.9 1.65 1.65.3.75.3 1.58 0 2.33l-.67 1.57.82.83 1.58-.68c.37-.15.75-.22 1.12-.22 1.2 0 2.33.75 2.78 1.87l1.2 2.85c.3.75.3 1.58 0 2.33s-.9 1.35-1.65 1.65l-1.58.67v1.2l1.58.68c1.57.67 2.25 2.4 1.65 3.97l-1.2 2.85a3.023 3.023 0 0 1-2.78 1.88c-.37 0-.82-.08-1.2-.23l-1.57-.67-.83.82.68 1.58c.29.75.3 1.57 0 2.32-.3.75-.9 1.35-1.65 1.65l-2.86 1.2c-.07.3-.44.38-.9.38z" class="st1"/>
        </g>
        <g id="shape365-41" v:mID="365" v:groupContext="shape" v:layerMember="0" transform="translate(2.025 -1.875)">
          <path d="M29.03 60.3l-2.4-.98c-.38-.15-.68-.37-.68-.45 0-.07.08-.52.08-.9v-1.95c0-.45-.08-.82-.08-.9 0-.07.3-.3.68-.45l2.4-.97c.37-.15.6-.6.44-1.05l-1.2-2.85c-.14-.38-.6-.6-1.04-.45l-2.4.97c-.38.15-.76.23-.83.15-.07-.07-.3-.37-.6-.75l-1.43-1.35c-.3-.3-.67-.52-.67-.6-.07-.07 0-.37.15-.82l.98-2.4c.14-.38 0-.83-.46-1.05l-2.85-1.2c-.37-.15-.82 0-1.04.45l-.98 2.4c-.15.37-.38.67-.45.67s-.53-.07-.9-.15c0 0-.37-.07-.97-.07-.53.15-.9.22-.9.22-.46.08-.83.08-.9.15-.08 0-.3-.3-.46-.67l-.97-2.48c-.15-.37-.6-.6-1.05-.45l-2.85 1.2c-.37.15-.6.6-.45 1.05l.98 2.4c.14.38.22.75.15.83-.08.07-.38.3-.68.6l-1.42 1.42c-.3.3-.53.68-.6.75-.08.08-.38 0-.83-.15l-2.4-.97c-.38-.15-.83 0-1.05.45L.15 52.8c-.15.37 0 .82.45 1.05l2.4.97c.37.15.67.38.67.45 0 .08-.07.53-.07.9v1.95c0 .45.07.83.07.9 0 .08-.3.3-.67.45l-2.4.98c-.37.15-.6.6-.45 1.05l1.2 2.85c.15.37.6.6 1.05.45l2.4-.98c.37-.15.75-.22.83-.15.07.08.3.38.6.75l1.42 1.35c.3.3.67.53.75.6.08.08 0 .45-.15.83l-.97 2.4c-.16.37 0 .82.44 1.05l2.86 1.2c.37.15.82 0 1.04-.45l.98-2.4c.15-.38.38-.68.45-.68s.53.08.9.15c0 0 .37.08.97.08s.98-.08.98-.08c.45-.07.82-.07.9-.15.08 0 .3.3.45.68l.97 2.4c.16.37.6.6 1.06.45l2.84-1.2c.38-.15.61-.6.45-1.05l-.97-2.4c-.15-.38-.22-.75-.15-.83.07-.07.37-.3.75-.6l1.43-1.42c.3-.3.52-.68.6-.75.07-.08.37 0 .82.15l2.4.97c.38.15.82 0 1.05-.45l1.2-2.85c-.15-.52-.3-.97-.67-1.12zm-14.18 4.42c-4.27 0-7.72-3.45-7.72-7.72 0-4.28 3.45-7.73 7.72-7.73s7.72 3.45 7.72 7.73c0 4.27-3.45 7.72-7.72 7.72z" class="st2"/>
        </g>
      </g>
    </g>
  </g>
</svg>
