<svg xmlns="http://www.w3.org/2000/svg" xmlns:v="http://schemas.microsoft.com/visio/2003/SVGExtensions/" width="106.5" height="90" viewBox="0 0 79.875 67.5" color-interpolation-filters="sRGB" fill="none" fill-rule="evenodd" font-size="12" overflow="visible" stroke-linecap="square" stroke-miterlimit="3">
  <v:documentProperties v:langID="4108" v:metric="true" v:viewMarkup="false"/>
  <style>
    .st1,.st2{fill:#fff;stroke:none;stroke-linecap:butt;stroke-width:.75}.st2{fill:#515050}
  </style>
  <g v:mID="0" v:index="1" v:groupContext="foregroundPage">
    <v:pageProperties v:drawingScale=".039" v:pageScale=".039" v:drawingUnits="24" v:shadowOffsetX="8.504" v:shadowOffsetY="-8.504"/>
    <v:layer v:name="symbols" v:index="0"/>
    <g id="group383-1" transform="translate(9.863 -3.938)" v:mID="383" v:groupContext="group" v:layerMember="0">
      <g id="group384-2" v:mID="384" v:groupContext="group" v:layerMember="0">
        <g id="group385-3" transform="translate(0 -21)" v:mID="385" v:groupContext="group" v:layerMember="0">
          <g id="shape386-4" v:mID="386" v:groupContext="shape" v:layerMember="0">
            <path d="M0 67.5V32.25h60.75V67.5H0z" class="st1"/>
          </g>
          <g id="group387-6" transform="translate(9.15 -12)" v:mID="387" v:groupContext="group" v:layerMember="0">
            <g id="shape388-7" v:mID="388" v:groupContext="shape" v:layerMember="0">
              <path d="M7.42 67.5L5.1 63.45c-.08-.08-.08-.15-.08-.3l-.07-.3c-.08.07-.08.22-.08.3 0 .07-.07.15-.15.3L2.25 67.5H0l3.67-5.55L.3 56.47h2.25l1.95 3.6c.15.3.3.6.37.83.08-.15.08-.23.15-.38.08-.15.15-.3.23-.45l2.1-3.6h2.02l-3.45 5.48L9.6 67.5H7.42z" class="st2"/>
            </g>
            <g id="shape389-9" v:mID="389" v:groupContext="shape" v:layerMember="0" transform="translate(11.1)">
              <path d="M10.13 67.5v-7.05c0-.75 0-1.43.07-2.03v-.37c-.07.6-.23.97-.3 1.2L6.53 67.5h-1.2l-3.38-8.1c-.07-.15-.15-.53-.3-1.28h-.08c.08.6.08 1.5.08 2.63v6.75H0V56.47h2.62l2.78 6.98c.3.67.45 1.2.53 1.5H6c.22-.6.45-1.13.6-1.58l2.85-6.97h2.47v11.1h-1.79z" class="st2"/>
            </g>
            <g id="shape390-11" v:mID="390" v:groupContext="shape" v:layerMember="0" transform="translate(25.725)">
              <path d="M1.8 63.52v3.98H0V56.47h3.38c1.27 0 2.25.3 2.92.9.67.6 1.05 1.43 1.05 2.55 0 1.05-.38 1.95-1.13 2.63-.75.67-1.79 1.05-3.07 1.05H1.8v-.08zm0-5.47v3.97H3c.75 0 1.35-.15 1.8-.52.45-.38.67-.83.67-1.5 0-.6-.22-1.13-.59-1.43-.38-.3-.98-.52-1.73-.52H1.8z" class="st2"/>
            </g>
            <g id="shape391-13" v:mID="391" v:groupContext="shape" v:layerMember="0" transform="translate(34.5)">
              <path d="M1.8 63.52v3.98H0V56.47h3.38c1.27 0 2.25.3 2.92.9.67.6 1.05 1.43 1.05 2.55 0 1.05-.38 1.95-1.13 2.63-.75.67-1.79 1.05-3.07 1.05H1.8v-.08zm0-5.47v3.97H3c.75 0 1.35-.15 1.8-.52.45-.38.67-.83.67-1.5 0-.6-.22-1.13-.59-1.43-.38-.3-.98-.52-1.73-.52H1.8z" class="st2"/>
            </g>
          </g>
          <g id="shape392-15" v:mID="392" v:groupContext="shape" v:layerMember="0" transform="translate(2.25 -2.25)">
            <path d="M0 36.75V67.5h56.25V36.75H0zm54 28.5H2.25V39H54v26.25z" class="st2"/>
          </g>
        </g>
        <g id="group393-17" transform="translate(28.575)" v:mID="393" v:groupContext="group" v:layerMember="0">
          <g id="shape394-18" v:mID="394" v:groupContext="shape" v:layerMember="0">
            <path d="M20.85 67.5c-1.2 0-2.32-.75-2.77-1.88l-.68-1.57h-1.27l-.68 1.57c-.37 1.13-1.5 1.88-2.7 1.88-.37 0-.82-.08-1.12-.23l-2.86-1.2c-.74-.3-1.35-.9-1.65-1.65-.29-.75-.29-1.57 0-2.32l.68-1.58-.83-.82-1.57.67c-.37.15-.75.23-1.12.23-1.2 0-2.33-.75-2.78-1.88L.3 55.87c-.3-.75-.3-1.57 0-2.32.3-.75.9-1.35 1.65-1.65l1.57-.68v-1.2l-1.57-.67C1.2 49.05.6 48.45.3 47.7c-.3-.75-.3-1.58 0-2.33l1.2-2.85a3.029 3.029 0 0 1 2.78-1.87c.37 0 .75.07 1.12.22l1.57.68.83-.83-.68-1.57c-.29-.75-.29-1.58 0-2.33.3-.74.91-1.35 1.65-1.65l2.86-1.19c.37-.16.75-.23 1.12-.23 1.2 0 2.33.75 2.78 1.87l.6 1.5h1.27l.6-1.57a3.038 3.038 0 0 1 2.78-1.88c.37 0 .75.08 1.12.23l2.85 1.2c.75.3 1.35.9 1.65 1.65.3.75.3 1.57 0 2.32l-.68 1.58.83.82 1.58-.67c.37-.15.75-.23 1.12-.23 1.2 0 2.33.75 2.78 1.88l1.2 2.85c.3.75.3 1.57 0 2.32-.3.75-.9 1.35-1.65 1.65l-1.58.68v1.2l1.58.67c1.57.68 2.25 2.4 1.65 3.98l-1.2 2.85a3.029 3.029 0 0 1-2.78 1.87c-.37 0-.82-.07-1.2-.22l-1.57-.68-.83.83.68 1.57c.29.75.29 1.58 0 2.33-.3.75-.9 1.35-1.65 1.65l-2.86 1.2c-.14.22-.59.3-.97.3zM16.8 45.15c-3 0-5.47 2.47-5.47 5.47-.01 3 2.47 5.48 5.47 5.48 3 0 5.47-2.48 5.47-5.48 0-3-2.47-5.47-5.47-5.47z" class="st1"/>
          </g>
          <g id="shape395-20" v:mID="395" v:groupContext="shape" v:layerMember="0" transform="translate(2.025 -2.1)">
            <path d="M28.95 56.1l-2.4-.98c-.37-.15-.67-.37-.67-.45 0-.07.07-.52.07-.9v-1.95c0-.45-.07-.82-.07-.9 0-.07.3-.3.67-.45l2.4-.97c.38-.15.6-.6.45-1.05l-1.2-2.85c-.15-.37-.6-.6-1.05-.45l-2.4.97c-.37.15-.75.23-.82.15-.08-.07-.31-.37-.61-.75l-1.42-1.35c-.3-.3-.67-.52-.67-.6-.08-.07 0-.37.15-.82l.97-2.4c.15-.37 0-.82-.45-1.05l-2.85-1.2c-.38-.15-.83 0-1.05.45l-.97 2.4c-.15.37-.38.67-.45.67-.08 0-.53-.07-.9-.15 0 0-.38-.07-.98-.07s-.98.07-.98.07c-.45.08-.82.08-.9.15-.07 0-.3-.3-.45-.67l-.97-2.4c-.15-.38-.6-.6-1.05-.45L7.5 39.3c-.37.15-.6.6-.45 1.05l.97 2.4c.15.37.23.75.15.82-.07.08-.37.3-.67.6L6.08 45.6c-.3.3-.53.67-.6.75-.08.07-.38 0-.83-.15L2.4 45.08c-.37-.15-.82-.01-1.05.44l-1.2 2.85c-.15.38 0 .83.45 1.05l2.4.98c.37.15.67.37.67.45 0 .07-.07.52-.07.9v1.95c0 .45.07.82.07.9 0 .07-.3.3-.67.45L.6 56.1c-.37.15-.6.6-.45 1.05L1.35 60c.15.37.6.6 1.05.45l2.4-.98c.38-.15.75-.22.83-.15.07.08.3.38.6.75l1.42 1.35c.3.3.67.53.75.6.07.08 0 .45-.15.83L7.13 65.1c-.15.37 0 .82.44 1.05l2.86 1.2c.37.15.82 0 1.05-.45l.97-2.4c.15-.38.37-.68.45-.68.07 0 .52.08.9.15 0 0 .38.08.98.08s.97-.08.97-.08c.45-.07.83-.07.9-.15.08 0 .3.3.45.68l.97 2.4c.15.37.6.6 1.05.45l2.86-1.2c.37-.15.59-.6.44-1.05l-.97-2.4c-.15-.38-.22-.75-.15-.83.08-.07.38-.3.75-.6l1.42-1.42c.3-.3.53-.68.6-.75.08-.08.38 0 .83.15l2.4.97c.37.15.82 0 1.05-.45l1.2-2.85c-.07-.22-.22-.67-.6-.82zm-14.17 4.35c-4.28 0-7.73-3.45-7.73-7.73 0-4.27 3.45-7.72 7.73-7.72 4.27 0 7.72 3.45 7.72 7.72 0 4.28-3.45 7.73-7.72 7.73z" fill="#515150" stroke-linecap="butt" stroke-width=".75"/>
          </g>
        </g>
      </g>
    </g>
  </g>
</svg>
