<?xml version="1.0" encoding="UTF-8" standalone="no"?>
<!DOCTYPE svg PUBLIC "-//W3C//DTD SVG 1.1//EN" "http://www.w3.org/Graphics/SVG/1.1/DTD/svg11.dtd">
<!-- Generated by Microsoft Visio, SVG Export Access Services.svg Page-1 -->
<svg xmlns="http://www.w3.org/2000/svg" xmlns:xlink="http://www.w3.org/1999/xlink" xmlns:ev="http://www.w3.org/2001/xml-events"
		xmlns:v="http://schemas.microsoft.com/visio/2003/SVGExtensions/" width="0.906644in" height="0.764225in"
		viewBox="0 0 65.2784 55.0242" xml:space="preserve" color-interpolation-filters="sRGB" class="st4">
	<v:documentProperties v:langID="4108" v:metric="true" v:viewMarkup="false"/>

	<style type="text/css">
	<![CDATA[
		.st1 {fill:#ffffff;stroke:none;stroke-linecap:butt;stroke-width:0.75}
		.st2 {fill:#515251;stroke:none;stroke-linecap:butt;stroke-width:0.75}
		.st3 {fill:#b92025;stroke:none;stroke-linecap:butt;stroke-width:0.75}
		.st4 {fill:none;fill-rule:evenodd;font-size:12px;overflow:visible;stroke-linecap:square;stroke-miterlimit:3}
	]]>
	</style>

	<g v:mID="0" v:index="1" v:groupContext="foregroundPage">
		<title>Page-1</title>
		<v:pageProperties v:drawingScale="0.0393701" v:pageScale="0.0393701" v:drawingUnits="24" v:shadowOffsetX="8.50394"
				v:shadowOffsetY="-8.50394"/>
		<g id="group309-1" transform="translate(0.628372,-0.7242)" v:mID="309" v:groupContext="group">
			<title>Access Services</title>
			<g id="group310-2" v:mID="310" v:groupContext="group">
				<title>Sheet.310</title>
				<g id="shape311-3" v:mID="311" v:groupContext="shape">
					<title>Sheet.311</title>
					<path d="M37.43 52.92 C36 53.15 34.65 52.47 33.9 51.27 L31.95 48.12 C31.95 48.12 31.95 48.12 31.88 48.12 C31.8
								 48.12 31.13 48.35 30.08 48.5 C29.03 48.72 28.28 48.72 28.2 48.72 L28.13 48.72 L27.3 52.32 C27 53.67
								 25.87 54.72 24.45 54.95 C24 55.02 23.55 55.02 23.1 54.87 L18.23 53.75 C17.32 53.52 16.57 53 16.05
								 52.17 C15.52 51.35 15.37 50.45 15.6 49.55 L16.43 45.87 L16.28 45.8 L13.58 43.85 C13.57 43.85 13.42
								 43.77 13.43 43.7 L10.28 45.72 C9.9 45.95 9.45 46.1 9 46.17 C7.57 46.4 6.15 45.8 5.4 44.6 L2.78 40.32
								 C2.25 39.5 2.1 38.6 2.33 37.7 C2.55 36.8 3.15 35.97 3.9 35.52 L7.05 33.57 C7.05 33.5 6.97 33.35
								 6.98 33.35 L6.45 30.05 C6.45 30.05 6.45 29.9 6.45 29.82 L2.78 29 C1.87 28.77 1.12 28.25 0.6 27.42
								 C0.15 26.6 0 25.62 0.23 24.72 L1.35 19.85 C1.65 18.5 2.78 17.45 4.2 17.22 C4.65 17.15 5.1 17.15
								 5.55 17.3 L9.22 18.12 L9.3 17.97 L11.25 15.27 C11.25 15.27 11.32 15.12 11.4 15.12 L9.45 11.97 C8.92
								 11.15 8.77 10.25 9 9.35 C9.22 8.45 9.75 7.7 10.57 7.17 L14.85 4.55 C15.22 4.32 15.67 4.17 16.13
								 4.1 C17.55 3.87 18.9 4.47 19.65 5.75 L21.6 8.9 C21.6 8.9 21.6 8.9 21.68 8.9 C21.75 8.9 22.42 8.67
								 23.48 8.52 C24.52 8.37 25.27 8.3 25.35 8.3 C25.35 8.3 25.35 8.3 25.43 8.3 L26.25 4.7 C26.55 3.35
								 27.68 2.3 29.1 2.07 C29.55 2 30 2 30.45 2.15 L35.33 3.27 C36.23 3.5 36.98 4.02 37.5 4.85 C38.03
								 5.67 38.18 6.57 37.95 7.47 L37.13 11.15 C37.2 11.15 37.28 11.22 37.28 11.22 L39.98 13.17 C39.98
								 13.17 40.13 13.25 40.13 13.32 L43.28 11.37 C43.65 11.15 44.1 11 44.55 10.92 C45.98 10.7 47.33 11.3
								 48.08 12.57 L50.7 16.85 C51.23 17.67 51.38 18.57 51.15 19.47 C50.93 20.37 50.4 21.12 49.58 21.65
								 L46.43 23.6 C46.43 23.67 46.5 23.82 46.5 23.82 L47.03 27.12 C47.03 27.12 47.03 27.27 47.03 27.35
								 L50.7 28.17 C52.58 28.62 53.78 30.5 53.33 32.37 L52.2 37.25 C51.9 38.6 50.78 39.65 49.35 39.87 C48.9
								 39.95 48.45 39.95 48 39.8 L44.33 38.97 C44.33 39.05 44.25 39.12 44.25 39.12 L42.3 41.82 C42.3 41.82
								 42.23 41.97 42.15 41.97 L44.1 45.12 C44.63 45.95 44.78 46.85 44.55 47.75 C44.33 48.65 43.8 49.4
								 42.98 49.92 L38.7 52.55 C38.33 52.62 37.88 52.85 37.43 52.92 ZM25.13 18.27 C19.5 19.17 15.75 24.5
								 16.65 30.05 C17.55 35.67 22.87 39.42 28.43 38.52 C34.05 37.62 37.8 32.3 36.9 26.75 C36 21.2 30.75
								 17.37 25.13 18.27 Z" class="st1"/>
				</g>
				<g id="shape312-5" v:mID="312" v:groupContext="shape" transform="translate(2.25,-2.1)">
					<title>Sheet.312</title>
					<path d="M47.93 32.15 L43.88 31.17 C43.2 31.02 42.68 30.8 42.68 30.65 C42.68 30.5 42.6 29.82 42.6 29.15 L42.08
								 26.07 C41.93 25.4 41.77 24.72 41.7 24.65 C41.63 24.5 42.07 24.12 42.68 23.75 L46.2 21.57 C46.8 21.2
								 46.95 20.45 46.58 19.85 L43.95 15.57 C43.58 14.97 42.83 14.82 42.23 15.2 L38.7 17.37 C38.1 17.75
								 37.58 17.97 37.43 17.82 C37.35 17.75 36.82 17.3 36.3 16.85 L33.75 14.97 C33.15 14.6 32.55 14.3 32.48
								 14.22 C32.33 14.15 32.4 13.55 32.55 12.87 L33.53 8.82 C33.68 8.15 33.3 7.47 32.63 7.32 L27.75 6.2
								 C27.08 6.05 26.4 6.42 26.25 7.1 L25.28 11.15 C25.13 11.82 24.9 12.35 24.75 12.35 C24.6 12.35 23.93
								 12.35 23.25 12.42 C23.25 12.42 22.57 12.42 21.68 12.57 C20.78 12.72 20.18 12.87 20.18 12.87 C19.5
								 13.1 18.9 13.25 18.75 13.32 C18.6 13.4 18.22 12.95 17.85 12.35 L15.53 8.82 C15.15 8.22 14.4 8.07
								 13.8 8.45 L9.53 11.07 C8.92 11.45 8.78 12.2 9.15 12.8 L11.33 16.32 C11.7 16.92 11.93 17.45 11.78
								 17.6 C11.7 17.67 11.25 18.2 10.8 18.72 L8.93 21.27 C8.55 21.87 8.25 22.47 8.18 22.55 C8.1 22.7 7.5
								 22.62 6.83 22.47 L2.85 21.57 C2.18 21.42 1.5 21.8 1.35 22.47 L0.15 27.35 C0 28.02 0.38 28.7 1.05
								 28.85 L5.18 29.82 C5.85 29.97 6.37 30.2 6.38 30.35 C6.37 30.5 6.45 31.17 6.45 31.85 L6.98 35 C7.12
								 35.67 7.28 36.35 7.35 36.42 C7.42 36.57 6.98 36.95 6.38 37.32 L2.85 39.5 C2.25 39.87 2.1 40.62 2.48
								 41.22 L5.1 45.5 C5.47 46.1 6.23 46.25 6.83 45.87 L10.35 43.7 C10.95 43.32 11.48 43.1 11.63 43.25
								 C11.7 43.32 12.23 43.77 12.75 44.22 L15.3 46.1 C15.9 46.47 16.5 46.77 16.58 46.85 C16.72 46.92 16.65
								 47.52 16.5 48.2 L15.53 52.25 C15.37 52.92 15.75 53.6 16.43 53.75 L21.3 54.87 C21.97 55.02 22.65
								 54.65 22.8 53.97 L23.78 49.92 C23.93 49.25 24.15 48.72 24.3 48.72 C24.45 48.72 25.13 48.72 25.8
								 48.65 C25.8 48.65 26.48 48.65 27.38 48.5 C28.28 48.35 28.88 48.2 28.88 48.2 C29.55 47.97 30.15 47.82
								 30.3 47.75 C30.45 47.67 30.83 48.12 31.2 48.72 L33.38 52.25 C33.75 52.85 34.5 53 35.1 52.62 L39.38
								 50 C39.98 49.62 40.13 48.87 39.75 48.27 L37.58 44.75 C37.2 44.15 36.98 43.62 37.13 43.47 C37.2 43.4
								 37.65 42.87 38.1 42.35 L39.98 39.8 C40.35 39.2 40.65 38.6 40.73 38.52 C40.8 38.37 41.4 38.45 42.08
								 38.6 L46.13 39.57 C46.8 39.72 47.48 39.35 47.63 38.67 L48.75 33.8 C49.05 32.97 48.6 32.3 47.93 32.15
								 ZM26.55 42.87 C19.72 44 13.27 39.35 12.15 32.52 C11.02 25.7 15.68 19.25 22.5 18.12 C29.33 17 35.78
								 21.65 36.9 28.47 C38.03 35.3 33.37 41.75 26.55 42.87 Z" class="st2"/>
				</g>
			</g>
			<g id="group313-7" transform="translate(34.65,-25.05)" v:mID="313" v:groupContext="group">
				<title>Sheet.313</title>
				<g id="shape314-8" v:mID="314" v:groupContext="shape">
					<title>Sheet.314</title>
					<path d="M20.03 29.07 C19.58 29.07 19.2 29.07 18.75 29.15 L18.75 26.52 L16.35 26.52 L0 29.07 L0 52.4 L16.35 55.02
								 L18.75 55.02 L18.75 52.4 C19.2 52.4 19.58 52.47 20.03 52.47 C25.73 52.47 29.25 50.37 29.25 47.07
								 L29.25 34.47 C29.25 31.17 25.73 29.07 20.03 29.07 Z" class="st1"/>
				</g>
				<g id="shape315-10" v:mID="315" v:groupContext="shape" transform="translate(13.05,-4.8)">
					<title>Sheet.315</title>
					<path d="M6.98 36.12 C3.53 36.12 0 37.1 0 39.27 L0 51.87 C0 54.05 3.53 55.02 6.98 55.02 C10.43 55.02 13.95 54.05
								 13.95 51.87 L13.95 39.27 C13.95 37.1 10.43 36.12 6.98 36.12 ZM1.05 39.27 C1.05 38.07 3.67 37.17
								 6.98 37.17 C10.28 37.17 12.9 38.07 12.9 39.27 C12.9 40.4 10.28 41.37 6.98 41.37 C3.67 41.37 1.05
								 40.47 1.05 39.27 ZM1.05 40.32 C1.05 41.45 3.67 42.42 6.98 42.42 C10.28 42.42 12.9 41.52 12.9 40.32
								 L12.9 43.47 C12.9 44.6 10.28 45.57 6.98 45.57 C3.67 45.57 1.05 44.67 1.05 43.47 L1.05 40.32 ZM1.05
								 44.52 C1.05 45.65 3.67 46.62 6.98 46.62 C10.28 46.62 12.9 45.72 12.9 44.52 L12.9 47.67 C12.9 48.8
								 10.28 49.77 6.98 49.77 C3.67 49.77 1.05 48.87 1.05 47.67 L1.05 44.52 ZM6.98 53.97 C3.67 53.97 1.05
								 53.07 1.05 51.87 L1.05 48.72 C1.05 49.85 3.67 50.82 6.98 50.82 C10.28 50.82 12.9 49.92 12.9 48.72
								 L12.9 51.87 C12.9 53 10.28 53.97 6.98 53.97 Z" class="st3"/>
				</g>
				<g id="shape316-12" v:mID="316" v:groupContext="shape" transform="translate(2.25,-2.25)">
					<title>Sheet.316</title>
					<path d="M14.25 31.02 L0 33.27 L0 52.77 L14.25 55.02 L14.25 31.02 Z" class="st3"/>
				</g>
				<g id="shape317-14" v:mID="317" v:groupContext="shape" transform="translate(5.475,-9.225)">
					<title>Sheet.317</title>
					<path d="M2.55 51.12 L3.38 48.05 C3.38 47.97 3.38 47.9 3.45 47.82 C3.45 47.75 3.45 47.67 3.45 47.6 C3.45 47.52
								 3.45 47.45 3.45 47.37 C3.45 47.3 3.45 47.22 3.45 47.15 L3.53 47.15 C3.53 47.22 3.53 47.3 3.53 47.37
								 C3.53 47.45 3.53 47.52 3.53 47.6 C3.53 47.67 3.53 47.75 3.53 47.82 C3.53 47.9 3.53 47.97 3.6 48.05
								 L4.43 51.12 L2.55 51.12 ZM4.5 45.5 L2.55 45.65 L0 54.57 L1.65 54.65 L2.18 52.7 L4.8 52.77 L5.33
								 54.87 L7.28 55.02 L4.5 45.5 Z" class="st1"/>
				</g>
			</g>
		</g>
	</g>
</svg>
