<?xml version="1.0" encoding="UTF-8" standalone="no"?>
<!DOCTYPE svg PUBLIC "-//W3C//DTD SVG 1.1//EN" "http://www.w3.org/Graphics/SVG/1.1/DTD/svg11.dtd">
<!-- Generated by Microsoft Visio, SVG Export Blog Site.svg Page-1 -->
<svg xmlns="http://www.w3.org/2000/svg" xmlns:xlink="http://www.w3.org/1999/xlink" xmlns:ev="http://www.w3.org/2001/xml-events"
		xmlns:v="http://schemas.microsoft.com/visio/2003/SVGExtensions/" width="0.865625in" height="0.763542in"
		viewBox="0 0 62.325 54.975" xml:space="preserve" color-interpolation-filters="sRGB" class="st3">
	<v:documentProperties v:langID="4108" v:metric="true" v:viewMarkup="false"/>

	<style type="text/css">
	<![CDATA[
		.st1 {fill:#ffffff;stroke:none;stroke-linecap:butt;stroke-width:0.75}
		.st2 {fill:#515150;stroke:none;stroke-linecap:butt;stroke-width:0.75}
		.st3 {fill:none;fill-rule:evenodd;font-size:12px;overflow:visible;stroke-linecap:square;stroke-miterlimit:3}
	]]>
	</style>

	<g v:mID="0" v:index="1" v:groupContext="foregroundPage">
		<title>Page-1</title>
		<v:pageProperties v:drawingScale="0.0393701" v:pageScale="0.0393701" v:drawingUnits="24" v:shadowOffsetX="8.50394"
				v:shadowOffsetY="-8.50394"/>
		<g id="group114-1" transform="translate(0.75,-0.75)" v:mID="114" v:groupContext="group">
			<title>Blog Site</title>
			<g id="group115-2" v:mID="115" v:groupContext="group">
				<title>Sheet.115</title>
				<g id="group116-3" transform="translate(-2.79776E-13,-8.475)" v:mID="116" v:groupContext="group">
					<title>Sheet.116</title>
					<g id="group117-4" v:mID="117" v:groupContext="group">
						<title>Sheet.117</title>
						<g id="shape118-5" v:mID="118" v:groupContext="shape">
							<title>Sheet.118</title>
							<path d="M5.25 54.97 C2.33 54.97 -0 52.65 0 49.72 L0 15.22 C0 12.3 2.33 9.97 5.25 9.97 L50.25 9.97 C53.18
										 9.97 55.5 12.3 55.5 15.22 L55.5 49.72 C55.5 52.65 53.18 54.97 50.25 54.97 L5.25 54.97 Z"
									class="st1"/>
						</g>
						<g id="shape119-7" v:mID="119" v:groupContext="shape" transform="translate(2.25,-2.25)">
							<title>Sheet.119</title>
							<path d="M48 14.47 L3 14.47 C1.35 14.47 0 15.82 0 17.47 L0 51.97 C0 53.62 1.35 54.97 3 54.97 L48 54.97
										 C49.65 54.97 51 53.62 51 51.97 L51 17.47 C51 15.82 49.65 14.47 48 14.47 ZM42 16.72 L44.25
										 16.72 L44.25 18.97 L42 18.97 L42 16.72 ZM37.5 16.72 L39.75 16.72 L39.75 18.97 L37.5 18.97
										 L37.5 16.72 ZM48.75 51.97 C48.75 52.42 48.45 52.72 48 52.72 L3 52.72 C2.55 52.72 2.25 52.42
										 2.25 51.97 L2.25 21.97 L48.75 21.97 L48.75 51.97 ZM48.75 18.97 L46.5 18.97 L46.5 16.72 L48.75
										 16.72 L48.75 18.97 Z" class="st2"/>
						</g>
					</g>
					<g id="shape120-9" v:mID="120" v:groupContext="shape" transform="translate(12,-8.25)">
						<title>Sheet.120</title>
						<path d="M27.75 48.97 L27.75 42.97 L27 42.97 L26.25 42.97 L16.5 42.97 L16.5 38.47 L21 38.47 L21 31.72 L10.5
									 31.72 L10.5 38.47 L15 38.47 L15 42.97 L5.25 42.97 L4.5 42.97 L3.75 42.97 L3.75 48.97 L0 48.97
									 L0 54.97 L9 54.97 L9 48.97 L5.25 48.97 L5.25 44.47 L15 44.47 L15 48.97 L11.25 48.97 L11.25 54.97
									 L20.25 54.97 L20.25 48.97 L16.5 48.97 L16.5 44.47 L26.25 44.47 L26.25 48.97 L22.5 48.97 L22.5
									 54.97 L31.5 54.97 L31.5 48.97 L27.75 48.97 Z" class="st2"/>
					</g>
				</g>
				<g id="group121-11" transform="translate(27.45,2.41585E-13)" v:mID="121" v:groupContext="group">
					<title>Sheet.121</title>
					<g id="shape122-12" v:mID="122" v:groupContext="shape">
						<title>Sheet.122</title>
						<path d="M2.78 54.97 C1.95 54.97 1.2 54.6 0.68 54 C0.15 53.4 0 52.57 0.15 51.75 L0.22 51.37 L5.63 42.75 L22.8
									 25.5 L25.5 22.8 C26.18 22.12 27.15 21.75 28.05 21.75 C28.95 21.75 29.77 22.12 30.45 22.72 L32.4
									 24.67 C33 25.27 33.38 26.17 33.38 27.07 C33.38 28.05 33 28.95 32.33 29.62 L29.55 32.25 L12.38
									 49.5 L3.75 54.82 L3.38 54.9 C3.15 54.97 3 54.97 2.78 54.97 Z" class="st1"/>
					</g>
					<g id="shape123-14" v:mID="123" v:groupContext="shape" transform="translate(2.325,-2.25)">
						<title>Sheet.123</title>
						<path d="M28.43 28.5 L26.48 26.55 C26.02 26.1 25.2 26.17 24.75 26.62 L23.33 28.05 L22.05 29.32 L5.1 46.42
									 L0.07 54.45 C0 54.75 0.15 54.97 0.45 54.97 C0.52 54.97 0.52 54.97 0.6 54.97 L8.63 50.02 L25.65
									 32.92 L26.93 31.65 L28.35 30.22 C28.8 29.7 28.88 28.95 28.43 28.5 ZM3.08 52.42 L2.63 51.97 L5.25
									 47.77 L7.28 49.8 L3.08 52.42 Z" class="st2"/>
					</g>
				</g>
			</g>
		</g>
	</g>
</svg>
