<?xml version="1.0" encoding="UTF-8" standalone="no"?>
<!DOCTYPE svg PUBLIC "-//W3C//DTD SVG 1.1//EN" "http://www.w3.org/Graphics/SVG/1.1/DTD/svg11.dtd">
<!-- Generated by Microsoft Visio, SVG Export Business Connectivity Services.svg Page-1 -->
<svg xmlns="http://www.w3.org/2000/svg" xmlns:xlink="http://www.w3.org/1999/xlink" xmlns:ev="http://www.w3.org/2001/xml-events"
		xmlns:v="http://schemas.microsoft.com/visio/2003/SVGExtensions/" width="0.55625in" height="0.791667in"
		viewBox="0 0 40.05 57" xml:space="preserve" color-interpolation-filters="sRGB" class="st3">
	<v:documentProperties v:langID="4108" v:metric="true" v:viewMarkup="false"/>

	<style type="text/css">
	<![CDATA[
		.st1 {fill:#ffffff;stroke:none;stroke-linecap:butt;stroke-width:0.75}
		.st2 {fill:#515251;stroke:none;stroke-linecap:butt;stroke-width:0.75}
		.st3 {fill:none;fill-rule:evenodd;font-size:12px;overflow:visible;stroke-linecap:square;stroke-miterlimit:3}
	]]>
	</style>

	<g v:mID="0" v:index="1" v:groupContext="foregroundPage">
		<title>Page-1</title>
		<v:pageProperties v:drawingScale="0.0393701" v:pageScale="0.0393701" v:drawingUnits="24" v:shadowOffsetX="8.50394"
				v:shadowOffsetY="-8.50394"/>
		<g id="group297-1" transform="translate(0.75,-0.75)" v:mID="297" v:groupContext="group">
			<title>Business Connectivity Services</title>
			<g id="group298-2" v:mID="298" v:groupContext="group">
				<title>Sheet.298</title>
				<g id="shape299-3" v:mID="299" v:groupContext="shape">
					<title>Sheet.299</title>
					<path d="M38.25 47.25 L26.25 47.25 L26.25 45.75 L23.25 45.75 L23.25 39.75 L15 39.75 L15 45.75 L12 45.75 L12 47.25
								 L0 47.25 L0 55.5 L12 55.5 L12 57 L26.25 57 L26.25 55.5 L38.25 55.5 L38.25 47.25 Z" class="st1"/>
				</g>
				<g id="group300-5" transform="translate(0,-14.25)" v:mID="300" v:groupContext="group">
					<title>Sheet.300</title>
					<g id="shape301-6" v:mID="301" v:groupContext="shape">
						<title>Sheet.301</title>
						<path d="M0 57 L0.15 54.45 C0.3 51.75 0.97 46.12 1.57 43.57 C2.25 40.65 3.22 38.47 6.15 36.82 L7.2 36.22
									 L7.27 36.22 C8.7 35.77 9.53 35.4 10.2 35.02 C10.5 34.87 10.73 34.8 11.02 34.65 C11.1 34.65 11.1
									 34.65 11.17 34.57 C9.6 32.55 8.7 29.92 8.7 27.22 C8.7 20.92 13.5 15.75 19.27 15.75 C25.13 15.75
									 29.85 20.92 29.85 27.22 C29.85 29.92 28.95 32.55 27.38 34.57 C28.57 34.65 29.55 35.17 31.43
									 36.22 L32.4 36.75 C35.32 38.4 36.3 40.57 36.97 43.5 C37.58 46.12 38.18 51.67 38.4 54.37 L38.55
									 56.92 L0 56.92 L0 57 Z" class="st1"/>
					</g>
					<g id="shape302-8" v:mID="302" v:groupContext="shape" transform="translate(2.55,-2.475)">
						<title>Sheet.302</title>
						<path d="M32.1 46.57 C31.5 43.8 30.75 42.52 28.65 41.32 C26.55 40.12 25.42 39.37 24.67 39.37 C24.3 39.37
									 24.08 39.45 23.85 39.6 C23.32 40.05 22.8 40.5 22.2 40.8 C22.2 40.8 22.2 40.8 22.2 40.8 C22.13
									 40.87 21.97 40.95 21.9 40.95 C21.3 41.32 20.7 41.55 20.17 41.77 C19.13 42.15 17.92 42.37 16.72
									 42.37 C15.53 42.37 14.4 42.15 13.27 41.77 C12.67 41.62 12.07 41.32 11.55 40.95 C10.88 40.57
									 10.2 40.05 9.6 39.52 C9.37 39.37 9.07 39.3 8.77 39.3 C8.03 39.3 7.2 39.82 4.8 41.25 C2.77 42.45
									 1.95 43.72 1.35 46.5 C0.83 48.9 0.15 54.37 0 57 L33.45 57 C33.3 54.45 32.7 48.97 32.1 46.57
									 Z" class="st2"/>
					</g>
					<g id="shape303-10" v:mID="303" v:groupContext="shape" transform="translate(11.1,-20.7)">
						<title>Sheet.303</title>
						<path d="M8.18 57 C3.67 57 0 52.95 0 47.92 C0 42.9 3.67 38.85 8.18 38.85 C12.68 38.85 16.35 42.9 16.35 47.92
									 C16.35 52.95 12.68 57 8.18 57 Z" class="st2"/>
					</g>
				</g>
				<g id="group304-12" transform="translate(2.25,-2.25)" v:mID="304" v:groupContext="group">
					<title>Sheet.304</title>
					<g id="shape305-13" v:mID="305" v:groupContext="shape" transform="translate(15,-8.25)">
						<title>Sheet.305</title>
						<rect x="0" y="52.5" width="3.75" height="4.5" class="st2"/>
					</g>
					<g id="shape306-15" v:mID="306" v:groupContext="shape" transform="translate(12,7.10543E-15)">
						<title>Sheet.306</title>
						<rect x="0" y="50.25" width="9.75" height="6.75" class="st2"/>
					</g>
					<g id="shape307-17" v:mID="307" v:groupContext="shape" transform="translate(23.25,-1.5)">
						<title>Sheet.307</title>
						<rect x="0" y="53.25" width="10.5" height="3.75" class="st2"/>
					</g>
					<g id="shape308-19" v:mID="308" v:groupContext="shape" transform="translate(1.68865E-13,-1.5)">
						<title>Sheet.308</title>
						<rect x="0" y="53.25" width="10.5" height="3.75" class="st2"/>
					</g>
				</g>
			</g>
		</g>
	</g>
</svg>
