<?xml version="1.0" encoding="UTF-8" standalone="no"?>
<!DOCTYPE svg PUBLIC "-//W3C//DTD SVG 1.1//EN" "http://www.w3.org/Graphics/SVG/1.1/DTD/svg11.dtd">
<!-- Generated by Microsoft Visio, SVG Export Excel Services.svg Page-1 -->
<svg xmlns="http://www.w3.org/2000/svg" xmlns:xlink="http://www.w3.org/1999/xlink" xmlns:ev="http://www.w3.org/2001/xml-events"
		xmlns:v="http://schemas.microsoft.com/visio/2003/SVGExtensions/" width="0.917061in" height="0.766308in"
		viewBox="0 0 66.0284 55.1742" xml:space="preserve" color-interpolation-filters="sRGB" class="st4">
	<v:documentProperties v:langID="4108" v:metric="true" v:viewMarkup="false"/>

	<style type="text/css">
	<![CDATA[
		.st1 {fill:#ffffff;stroke:none;stroke-linecap:butt;stroke-width:0.75}
		.st2 {fill:#525352;stroke:none;stroke-linecap:butt;stroke-width:0.75}
		.st3 {fill:#02723b;stroke:none;stroke-linecap:butt;stroke-width:0.75}
		.st4 {fill:none;fill-rule:evenodd;font-size:12px;overflow:visible;stroke-linecap:square;stroke-miterlimit:3}
	]]>
	</style>

	<g v:mID="0" v:index="1" v:groupContext="foregroundPage">
		<title>Page-1</title>
		<v:pageProperties v:drawingScale="0.0393701" v:pageScale="0.0393701" v:drawingUnits="24" v:shadowOffsetX="8.50394"
				v:shadowOffsetY="-8.50394"/>
		<g id="group318-1" transform="translate(0.628372,-0.7242)" v:mID="318" v:groupContext="group">
			<title>Excel Services</title>
			<g id="group319-2" v:mID="319" v:groupContext="group">
				<title>Sheet.319</title>
				<g id="shape320-3" v:mID="320" v:groupContext="shape">
					<title>Sheet.320</title>
					<path d="M37.42 53.07 C36 53.3 34.65 52.62 33.9 51.42 L31.95 48.27 C31.95 48.27 31.95 48.27 31.87 48.27 C31.8
								 48.27 31.13 48.5 30.07 48.65 C29.03 48.87 28.28 48.87 28.2 48.87 L28.12 48.87 L27.3 52.47 C27 53.82
								 25.87 54.87 24.45 55.1 C24 55.17 23.55 55.17 23.1 55.02 L18.22 53.9 C17.32 53.67 16.57 53.15 16.05
								 52.32 C15.52 51.5 15.37 50.6 15.6 49.7 L16.42 46.02 L16.27 45.95 L13.57 44 C13.57 44 13.42 43.92
								 13.42 43.85 L10.27 45.87 C9.9 46.1 9.45 46.25 9 46.32 C7.57 46.55 6.15 45.95 5.4 44.75 L2.77 40.47
								 C2.25 39.65 2.1 38.75 2.32 37.85 C2.55 36.95 3.15 36.12 3.9 35.67 L7.05 33.72 C7.05 33.65 6.97 33.5
								 6.97 33.5 L6.45 30.2 C6.45 30.2 6.45 30.05 6.45 29.97 L2.77 29.15 C1.87 28.92 1.12 28.4 0.6 27.57
								 C0.15 26.75 0 25.77 0.22 24.87 L1.35 20 C1.65 18.65 2.78 17.6 4.2 17.37 C4.65 17.3 5.1 17.3 5.55
								 17.45 L9.22 18.27 L9.3 18.12 L11.25 15.42 C11.25 15.42 11.32 15.27 11.4 15.27 L9.45 12.12 C8.92
								 11.3 8.77 10.4 9 9.5 C9.22 8.6 9.75 7.85 10.57 7.32 L14.85 4.7 C15.22 4.47 15.67 4.32 16.12 4.25
								 C17.55 4.02 18.9 4.62 19.65 5.9 L21.6 9.05 C21.6 9.05 21.6 9.05 21.67 9.05 C21.75 9.05 22.42 8.82
								 23.47 8.67 C24.52 8.52 25.27 8.45 25.35 8.45 C25.35 8.45 25.35 8.45 25.42 8.45 L26.25 4.85 C26.55
								 3.5 27.68 2.45 29.1 2.22 C29.55 2.15 30 2.15 30.45 2.3 L35.32 3.42 C36.22 3.65 36.97 4.17 37.5 5
								 C38.02 5.82 38.17 6.72 37.95 7.62 L37.12 11.3 C37.2 11.3 37.28 11.37 37.27 11.37 L39.97 13.32 C39.97
								 13.32 40.12 13.4 40.12 13.47 L43.27 11.52 C43.65 11.3 44.1 11.15 44.55 11.07 C45.97 10.85 47.32
								 11.45 48.07 12.72 L50.7 17 C51.22 17.82 51.37 18.72 51.15 19.62 C50.92 20.52 50.4 21.27 49.57 21.8
								 L46.42 23.75 C46.42 23.82 46.5 23.97 46.5 23.97 L47.02 27.27 C47.02 27.27 47.02 27.42 47.02 27.5
								 L50.7 28.32 C52.57 28.77 53.77 30.65 53.32 32.52 L52.2 37.4 C51.9 38.75 50.77 39.8 49.35 40.02 C48.9
								 40.1 48.45 40.1 48 39.95 L44.32 39.12 C44.32 39.2 44.25 39.27 44.25 39.27 L42.3 41.97 C42.3 41.97
								 42.22 42.12 42.15 42.12 L44.1 45.27 C44.62 46.1 44.77 47 44.55 47.9 C44.32 48.8 43.8 49.55 42.97
								 50.07 L38.7 52.7 C38.32 52.77 37.87 53 37.42 53.07 ZM25.12 18.42 C19.5 19.32 15.75 24.65 16.65 30.2
								 C17.55 35.82 22.87 39.57 28.42 38.67 C34.05 37.77 37.8 32.45 36.9 26.9 C36 21.35 30.75 17.52 25.12
								 18.42 Z" class="st1"/>
				</g>
				<g id="shape321-5" v:mID="321" v:groupContext="shape" transform="translate(2.25,-2.1)">
					<title>Sheet.321</title>
					<path d="M47.92 32.3 L43.87 31.32 C43.2 31.17 42.68 30.95 42.67 30.8 C42.68 30.65 42.6 29.97 42.6 29.3 L42.07
								 26.22 C41.92 25.55 41.77 24.87 41.7 24.8 C41.62 24.65 42.07 24.27 42.67 23.9 L46.2 21.72 C46.8 21.35
								 46.95 20.6 46.57 20 L43.95 15.72 C43.57 15.12 42.82 14.97 42.22 15.35 L38.7 17.52 C38.1 17.9 37.57
								 18.12 37.42 17.97 C37.35 17.9 36.82 17.45 36.3 17 L33.75 15.12 C33.15 14.75 32.55 14.45 32.47 14.37
								 C32.32 14.3 32.4 13.7 32.55 13.02 L33.52 8.97 C33.68 8.3 33.3 7.62 32.62 7.47 L27.75 6.35 C27.07
								 6.2 26.4 6.57 26.25 7.25 L25.27 11.3 C25.12 11.97 24.9 12.5 24.75 12.5 C24.6 12.5 23.92 12.5 23.25
								 12.57 C23.25 12.57 22.57 12.57 21.67 12.72 C20.77 12.87 20.17 13.02 20.17 13.02 C19.5 13.25 18.9
								 13.4 18.75 13.47 C18.6 13.55 18.22 13.1 17.85 12.5 L15.52 8.97 C15.15 8.37 14.4 8.22 13.8 8.6 L9.52
								 11.22 C8.92 11.6 8.78 12.35 9.15 12.95 L11.32 16.47 C11.7 17.07 11.93 17.6 11.77 17.75 C11.7 17.82
								 11.25 18.35 10.8 18.87 L8.92 21.42 C8.55 22.02 8.25 22.62 8.17 22.7 C8.1 22.85 7.5 22.77 6.82 22.62
								 L2.85 21.72 C2.17 21.57 1.5 21.95 1.35 22.62 L0.15 27.5 C0 28.17 0.37 28.85 1.05 29 L5.17 29.97
								 C5.85 30.12 6.37 30.35 6.37 30.5 C6.37 30.65 6.45 31.32 6.45 32 L6.97 35.15 C7.12 35.82 7.28 36.5
								 7.35 36.57 C7.42 36.72 6.98 37.1 6.37 37.47 L2.85 39.65 C2.25 40.02 2.1 40.77 2.47 41.37 L5.1 45.65
								 C5.47 46.25 6.23 46.4 6.82 46.02 L10.35 43.85 C10.95 43.47 11.47 43.25 11.62 43.4 C11.7 43.47 12.23
								 43.92 12.75 44.37 L15.3 46.25 C15.9 46.62 16.5 46.92 16.57 47 C16.72 47.07 16.65 47.67 16.5 48.35
								 L15.52 52.4 C15.37 53.07 15.75 53.75 16.42 53.9 L21.3 55.02 C21.97 55.17 22.65 54.8 22.8 54.12 L23.77
								 50.07 C23.92 49.4 24.15 48.87 24.3 48.87 C24.45 48.87 25.12 48.87 25.8 48.8 C25.8 48.8 26.48 48.8
								 27.37 48.65 C28.27 48.5 28.87 48.35 28.87 48.35 C29.55 48.12 30.15 47.97 30.3 47.9 C30.45 47.82
								 30.83 48.27 31.2 48.87 L33.37 52.4 C33.75 53 34.5 53.15 35.1 52.77 L39.37 50.15 C39.97 49.77 40.12
								 49.02 39.75 48.42 L37.57 44.9 C37.2 44.3 36.97 43.77 37.12 43.62 C37.2 43.55 37.65 43.02 38.1 42.5
								 L39.97 39.95 C40.35 39.35 40.65 38.75 40.72 38.67 C40.8 38.52 41.4 38.6 42.07 38.75 L46.12 39.72
								 C46.8 39.87 47.47 39.5 47.62 38.82 L48.75 33.95 C49.05 33.12 48.6 32.45 47.92 32.3 ZM26.55 43.02
								 C19.72 44.15 13.27 39.5 12.15 32.67 C11.02 25.85 15.68 19.4 22.5 18.27 C29.33 17.15 35.77 21.8 36.9
								 28.62 C38.03 35.45 33.37 41.9 26.55 43.02 Z" class="st2"/>
				</g>
			</g>
			<g id="group322-7" transform="translate(34.65,-25.2)" v:mID="322" v:groupContext="group">
				<title>Sheet.322</title>
				<g id="shape323-8" v:mID="323" v:groupContext="shape">
					<title>Sheet.323</title>
					<path d="M26.63 28.92 L18.75 28.92 L18.75 26.67 L16.35 26.67 L0 29.22 L0 52.55 L16.35 55.17 L18.75 55.17 L18.75
								 53.67 L26.63 53.67 C28.5 53.67 30 52.17 30 50.3 L30 32.3 C30 30.42 28.5 28.92 26.63 28.92 Z"
							class="st1"/>
				</g>
				<g id="group324-10" transform="translate(11.25,-3.75)" v:mID="324" v:groupContext="group">
					<title>Sheet.324</title>
					<g id="shape325-11" v:mID="325" v:groupContext="shape">
						<title>Sheet.325</title>
						<path d="M15.38 36.05 L15.38 54.05 L1.13 54.05 L1.13 36.05 L15.38 36.05 ZM15.38 34.92 L1.13 34.92 C0.53 34.92
									 0 35.45 0 36.05 L0 54.05 C0 54.65 0.53 55.17 1.13 55.17 L15.38 55.17 C15.98 55.17 16.5 54.65
									 16.5 54.05 L16.5 36.05 C16.5 35.45 15.98 34.92 15.38 34.92 Z" class="st3"/>
					</g>
					<g id="group326-13" transform="translate(9,-3)" v:mID="326" v:groupContext="group">
						<title>Sheet.326</title>
						<g id="shape327-14" v:mID="327" v:groupContext="shape" transform="translate(-1.07414E-14,-12)">
							<title>Sheet.327</title>
							<rect x="0" y="52.9242" width="4.5" height="2.25" class="st3"/>
						</g>
						<g id="shape328-16" v:mID="328" v:groupContext="shape" transform="translate(-1.07414E-14,-9)">
							<title>Sheet.328</title>
							<rect x="0" y="52.9242" width="4.5" height="2.25" class="st3"/>
						</g>
						<g id="shape329-18" v:mID="329" v:groupContext="shape" transform="translate(-1.07414E-14,-6)">
							<title>Sheet.329</title>
							<rect x="0" y="52.9242" width="4.5" height="2.25" class="st3"/>
						</g>
						<g id="shape330-20" v:mID="330" v:groupContext="shape" transform="translate(-1.07414E-14,-3)">
							<title>Sheet.330</title>
							<rect x="0" y="52.9242" width="4.5" height="2.25" class="st3"/>
						</g>
						<g id="shape331-22" v:mID="331" v:groupContext="shape">
							<title>Sheet.331</title>
							<rect x="0" y="52.9242" width="4.5" height="2.25" class="st3"/>
						</g>
					</g>
					<g id="group332-24" transform="translate(3,-3)" v:mID="332" v:groupContext="group">
						<title>Sheet.332</title>
						<g id="shape333-25" v:mID="333" v:groupContext="shape" transform="translate(2.94764E-14,-12)">
							<title>Sheet.333</title>
							<rect x="0" y="52.9242" width="5.25" height="2.25" class="st3"/>
						</g>
						<g id="shape334-27" v:mID="334" v:groupContext="shape" transform="translate(2.94764E-14,-9)">
							<title>Sheet.334</title>
							<rect x="0" y="52.9242" width="5.25" height="2.25" class="st3"/>
						</g>
						<g id="shape335-29" v:mID="335" v:groupContext="shape" transform="translate(2.94764E-14,-6)">
							<title>Sheet.335</title>
							<rect x="0" y="52.9242" width="5.25" height="2.25" class="st3"/>
						</g>
						<g id="shape336-31" v:mID="336" v:groupContext="shape" transform="translate(2.94764E-14,-3)">
							<title>Sheet.336</title>
							<rect x="0" y="52.9242" width="5.25" height="2.25" class="st3"/>
						</g>
						<g id="shape337-33" v:mID="337" v:groupContext="shape">
							<title>Sheet.337</title>
							<rect x="0" y="52.9242" width="5.25" height="2.25" class="st3"/>
						</g>
					</g>
				</g>
				<g id="shape338-35" v:mID="338" v:groupContext="shape" transform="translate(2.25,-2.25)">
					<title>Sheet.338</title>
					<path d="M14.25 31.17 L0 33.42 L0 52.92 L14.25 55.17 L14.25 31.17 Z" class="st3"/>
				</g>
				<g id="shape339-37" v:mID="339" v:groupContext="shape" transform="translate(5.55,-9.225)">
					<title>Sheet.339</title>
					<path d="M6.98 45.5 L5.03 45.65 L3.83 48.5 C3.82 48.57 3.75 48.65 3.75 48.72 C3.75 48.8 3.68 48.87 3.68 48.95
								 C3.68 49.02 3.68 49.1 3.6 49.1 C3.6 49.17 3.6 49.17 3.53 49.25 C3.53 49.17 3.53 49.1 3.45 49.02
								 C3.45 48.95 3.45 48.87 3.38 48.8 C3.37 48.72 3.3 48.65 3.3 48.65 C3.3 48.57 3.23 48.5 3.23 48.5
								 L2.18 45.8 L0.23 45.95 L2.25 50.37 L0 54.8 L1.88 54.95 L3.15 52.02 C3.15 51.95 3.23 51.87 3.23 51.8
								 C3.23 51.72 3.23 51.65 3.3 51.65 C3.3 51.57 3.3 51.57 3.3 51.5 C3.3 51.42 3.3 51.42 3.3 51.35 C3.3
								 51.42 3.3 51.5 3.38 51.57 C3.37 51.65 3.37 51.72 3.45 51.72 C3.45 51.8 3.45 51.8 3.45 51.87 C3.45
								 51.95 3.45 51.95 3.45 51.95 L4.73 55.02 L6.83 55.17 L4.43 50.3 L6.98 45.5 Z" class="st1"/>
				</g>
			</g>
		</g>
	</g>
</svg>
