<?xml version="1.0" encoding="UTF-8" standalone="no"?>
<!DOCTYPE svg PUBLIC "-//W3C//DTD SVG 1.1//EN" "http://www.w3.org/Graphics/SVG/1.1/DTD/svg11.dtd">
<!-- Generated by Microsoft Visio, SVG Export Meeting Workspace Site.svg Page-1 -->
<svg xmlns="http://www.w3.org/2000/svg" xmlns:xlink="http://www.w3.org/1999/xlink" xmlns:ev="http://www.w3.org/2001/xml-events"
		xmlns:v="http://schemas.microsoft.com/visio/2003/SVGExtensions/" width="0.896875in" height="0.784375in"
		viewBox="0 0 64.575 56.475" xml:space="preserve" color-interpolation-filters="sRGB" class="st5">
	<v:documentProperties v:langID="4108" v:metric="true" v:viewMarkup="false"/>

	<style type="text/css">
	<![CDATA[
		.st1 {fill:#ffffff;stroke:none;stroke-linecap:butt;stroke-width:0.75}
		.st2 {fill:#515150;stroke:none;stroke-linecap:butt;stroke-width:0.75}
		.st3 {fill:#525352;stroke:none;stroke-linecap:butt;stroke-width:0.75}
		.st4 {fill:#515050;stroke:none;stroke-linecap:butt;stroke-width:0.75}
		.st5 {fill:none;fill-rule:evenodd;font-size:12px;overflow:visible;stroke-linecap:square;stroke-miterlimit:3}
	]]>
	</style>

	<g v:mID="0" v:index="1" v:groupContext="foregroundPage">
		<title>Page-1</title>
		<v:pageProperties v:drawingScale="0.0393701" v:pageScale="0.0393701" v:drawingUnits="24" v:shadowOffsetX="8.50394"
				v:shadowOffsetY="-8.50394"/>
		<g id="group124-1" transform="translate(0.75,-0.75)" v:mID="124" v:groupContext="group">
			<title>Meeting Workspace Site</title>
			<g id="group125-2" v:mID="125" v:groupContext="group">
				<title>Sheet.125</title>
				<g id="group126-3" transform="translate(2.39808E-13,-9.975)" v:mID="126" v:groupContext="group">
					<title>Sheet.126</title>
					<g id="group127-4" v:mID="127" v:groupContext="group">
						<title>Sheet.127</title>
						<g id="shape128-5" v:mID="128" v:groupContext="shape">
							<title>Sheet.128</title>
							<path d="M5.25 56.48 C2.32 56.48 0 54.15 0 51.23 L0 16.73 C0 13.8 2.32 11.48 5.25 11.48 L50.25 11.48
										 C53.17 11.48 55.5 13.8 55.5 16.73 L55.5 51.23 C55.5 54.15 53.17 56.48 50.25 56.48 L5.25
										 56.48 Z" class="st1"/>
						</g>
						<g id="shape129-7" v:mID="129" v:groupContext="shape" transform="translate(2.25,-2.25)">
							<title>Sheet.129</title>
							<path d="M48 15.98 L3 15.98 C1.35 15.98 0 17.33 0 18.98 L0 53.48 C0 55.13 1.35 56.48 3 56.48 L48 56.48
										 C49.65 56.48 51 55.13 51 53.48 L51 18.98 C51 17.33 49.65 15.98 48 15.98 ZM42 18.23 L44.25
										 18.23 L44.25 20.48 L42 20.48 L42 18.23 ZM37.5 18.23 L39.75 18.23 L39.75 20.48 L37.5 20.48
										 L37.5 18.23 ZM48.75 53.48 C48.75 53.93 48.45 54.23 48 54.23 L3 54.23 C2.55 54.23 2.25 53.93
										 2.25 53.48 L2.25 23.48 L48.75 23.48 L48.75 53.48 ZM48.75 20.48 L46.5 20.48 L46.5 18.23 L48.75
										 18.23 L48.75 20.48 Z" class="st2"/>
						</g>
					</g>
					<g id="shape130-9" v:mID="130" v:groupContext="shape" transform="translate(12,-8.25)">
						<title>Sheet.130</title>
						<path d="M27 44.48 L26.25 44.48 L16.5 44.48 L16.5 39.98 L21 39.98 L21 33.23 L10.5 33.23 L10.5 39.98 L15 39.98
									 L15 44.48 L5.25 44.48 L4.5 44.48 L3.75 44.48 L3.75 50.48 L0 50.48 L0 56.48 L9 56.48 L9 50.48
									 L5.25 50.48 L5.25 45.98 L15 45.98 L15 50.48 L11.25 50.48 L11.25 56.48 L20.25 56.48 L20.25 50.48
									 L16.5 50.48 L16.5 45.98 L26.25 45.98 L26.25 51.23 L27.75 51.23 L27.75 44.48 L27 44.48 Z"
								class="st2"/>
					</g>
				</g>
				<g id="group131-11" transform="translate(22.35,9.9476E-14)" v:mID="131" v:groupContext="group">
					<title>Sheet.131</title>
					<g id="shape132-12" v:mID="132" v:groupContext="shape">
						<title>Sheet.132</title>
						<path d="M40.72 52.8 L40.57 50.1 C40.5 48.98 40.27 46.8 39.97 45.68 C39.68 44.33 39.15 42.98 37.42 42.08
									 L37.05 41.85 C37.05 41.85 36.97 41.85 36.97 41.78 C37.2 41.18 37.27 40.5 37.27 39.83 C37.27
									 36.53 34.72 33.83 31.65 33.83 C29.77 33.83 28.05 34.8 27.07 36.38 C26.77 36.08 26.48 35.85 26.02
									 35.63 L25.65 35.4 C25.65 35.4 25.58 35.4 25.57 35.4 C25.8 34.8 25.87 34.2 25.87 33.53 C25.87
									 30.38 23.48 27.83 20.47 27.83 C17.48 27.83 15.07 30.38 15.07 33.53 C15.07 34.2 15.15 34.8 15.37
									 35.4 C15.38 35.4 15.3 35.4 15.3 35.48 L14.92 35.7 C14.48 35.93 14.1 36.23 13.8 36.53 C12.75
									 34.95 11.1 33.9 9.15 33.9 C6.07 33.9 3.53 36.6 3.52 39.9 C3.53 40.58 3.68 41.25 3.82 41.85 C3.75
									 41.85 3.75 41.93 3.67 41.93 L3.3 42.15 C1.57 43.13 1.05 44.48 0.75 45.75 C0.52 46.88 0.22 49.05
									 0.15 50.18 L0 52.88 L4.65 52.88 C4.42 53.7 4.57 54.6 5.1 55.28 C5.63 56.03 6.45 56.48 7.35 56.48
									 L34.65 56.48 C35.55 56.48 36.45 56.03 36.97 55.28 C37.43 54.6 37.58 53.78 37.35 52.95 L40.72
									 52.95 L40.72 52.8 Z" class="st1"/>
					</g>
					<g id="shape133-14" v:mID="133" v:groupContext="shape" transform="translate(5.25,-0.9)">
						<title>Sheet.133</title>
						<path d="M29.4 56.48 L2.18 56.48 C1.5 56.48 0.9 56.18 0.53 55.65 C0.15 55.13 0 54.38 0.23 53.7 L0.3 53.48
									 L7.42 43.5 C7.73 42.75 8.48 42.23 9.3 42.23 L20.85 42.23 C21.6 42.23 22.35 42.68 22.65 43.43
									 L31.2 53.55 C31.5 54.23 31.43 54.98 30.98 55.58 C30.67 56.1 30.07 56.48 29.4 56.48 ZM1.65 54.23
									 C1.65 54.38 1.65 54.6 1.73 54.75 C1.8 54.83 1.95 54.98 2.18 54.98 L29.4 54.98 C29.63 54.98 29.77
									 54.83 29.85 54.75 C29.93 54.6 30 54.38 29.93 54.23 L21.45 44.1 C21.38 43.88 21.15 43.73 21 43.73
									 L9.38 43.73 C9.15 43.73 8.92 43.88 8.85 44.1 L8.77 44.33 L1.65 54.23 Z" class="st1"/>
					</g>
				</g>
				<g id="shape134-16" v:mID="134" v:groupContext="shape" transform="translate(36.75,-13.05)">
					<title>Sheet.134</title>
					<path d="M11.62 52.65 C11.4 51.68 11.1 51.15 10.35 50.78 C9.6 50.33 9.15 50.1 8.92 50.1 C8.77 50.1 8.7 50.1 8.62
								 50.18 C8.47 50.33 8.25 50.48 8.02 50.63 C8.02 50.63 8.02 50.63 8.02 50.63 C8.02 50.63 7.95 50.7
								 7.95 50.7 C7.72 50.85 7.5 50.93 7.35 51 C6.97 51.15 6.52 51.23 6.07 51.23 C5.62 51.23 5.25 51.15
								 4.8 51 C4.57 50.93 4.35 50.85 4.2 50.7 C3.97 50.55 3.75 50.4 3.52 50.18 C3.45 50.1 3.37 50.1 3.22
								 50.1 C2.92 50.1 2.62 50.33 1.8 50.78 C1.05 51.23 0.75 51.68 0.52 52.65 C0.3 53.55 0.08 55.5 0 56.48
								 L12.15 56.48 C12.07 55.5 11.85 53.55 11.62 52.65 Z" class="st3"/>
				</g>
				<g id="shape135-18" v:mID="135" v:groupContext="shape" transform="translate(39.9,-19.725)">
					<title>Sheet.135</title>
					<path d="M2.92 56.48 C1.28 56.48 0 54.98 0 53.18 C0 51.38 1.35 49.88 2.92 49.88 C4.57 49.88 5.85 51.38 5.85 53.18
								 C5.85 54.98 4.57 56.48 2.92 56.48 Z" class="st3"/>
				</g>
				<g id="shape136-20" v:mID="136" v:groupContext="shape" transform="translate(25.125,-6.15)">
					<title>Sheet.136</title>
					<path d="M12.3 52.43 C12.08 51.38 11.78 50.85 10.95 50.4 C10.13 49.95 9.75 49.65 9.45 49.65 C9.3 49.65 9.23 49.65
								 9.15 49.73 C8.93 49.88 8.78 50.03 8.55 50.18 C8.55 50.18 8.55 50.18 8.55 50.18 C8.48 50.18 8.48
								 50.25 8.48 50.25 C8.25 50.4 8.03 50.48 7.8 50.55 C7.43 50.7 6.98 50.78 6.53 50.78 C6.08 50.78 5.63
								 50.7 5.25 50.55 C5.03 50.48 4.8 50.4 4.58 50.25 C4.28 50.1 4.05 49.95 3.83 49.73 C3.6 49.65 3.53
								 49.65 3.38 49.65 C3.08 49.65 2.78 49.88 1.88 50.4 C1.13 50.85 0.83 51.38 0.53 52.43 C0.3 53.33 0.08
								 55.43 0 56.48 L12.75 56.48 C12.75 55.43 12.45 53.33 12.3 52.43 Z" class="st3"/>
				</g>
				<g id="shape137-22" v:mID="137" v:groupContext="shape" transform="translate(28.35,-13.2)">
					<title>Sheet.137</title>
					<path d="M3.15 56.48 C1.43 56.48 0 54.9 0 53.03 C0 51.15 1.43 49.58 3.15 49.58 C4.87 49.58 6.3 51.15 6.3 53.03
								 C6.3 54.9 4.87 56.48 3.15 56.48 Z" class="st3"/>
				</g>
				<g id="shape138-24" v:mID="138" v:groupContext="shape" transform="translate(47.55,-6.15)">
					<title>Sheet.138</title>
					<path d="M12.3 52.43 C12.08 51.38 11.78 50.85 10.95 50.4 C10.13 49.95 9.75 49.65 9.45 49.65 C9.3 49.65 9.23 49.65
								 9.15 49.73 C8.93 49.88 8.78 50.03 8.55 50.18 C8.55 50.18 8.55 50.18 8.55 50.18 C8.48 50.18 8.48
								 50.25 8.48 50.25 C8.25 50.4 8.03 50.48 7.8 50.55 C7.43 50.7 6.98 50.78 6.53 50.78 C6.08 50.78 5.63
								 50.7 5.25 50.55 C5.03 50.48 4.8 50.4 4.58 50.25 C4.28 50.1 4.05 49.95 3.83 49.73 C3.6 49.65 3.53
								 49.65 3.38 49.65 C3.07 49.65 2.78 49.88 1.88 50.4 C1.13 50.85 0.83 51.38 0.53 52.43 C0.3 53.33 0.08
								 55.43 0 56.48 L12.75 56.48 C12.75 55.43 12.53 53.33 12.3 52.43 Z" class="st3"/>
				</g>
				<g id="shape139-26" v:mID="139" v:groupContext="shape" transform="translate(50.85,-13.2)">
					<title>Sheet.139</title>
					<path d="M3.15 56.48 C1.43 56.48 0 54.9 0 53.03 C0 51.15 1.43 49.58 3.15 49.58 C4.87 49.58 6.3 51.15 6.3 53.03
								 C6.23 54.9 4.87 56.48 3.15 56.48 Z" class="st3"/>
				</g>
				<g id="shape140-28" v:mID="140" v:groupContext="shape" transform="translate(28.275,-1.65)">
					<title>Sheet.140</title>
					<path d="M7.5 44.63 L0.3 54.68 C0 55.58 0.6 56.48 1.5 56.48 L28.73 56.48 C29.63 56.48 30.3 55.5 29.92 54.6 L21.45
								 44.55 C21.23 44.03 20.78 43.73 20.25 43.73 L8.7 43.73 C8.18 43.73 7.72 44.1 7.5 44.63 Z"
							class="st4"/>
				</g>
				<g id="shape141-30" v:mID="141" v:groupContext="shape" transform="translate(27.6,-0.9)">
					<title>Sheet.141</title>
					<path d="M29.4 56.48 L2.17 56.48 C1.5 56.48 0.9 56.18 0.52 55.65 C0.15 55.13 0 54.38 0.23 53.7 L0.3 53.48 L7.42
								 43.5 C7.73 42.75 8.47 42.23 9.3 42.23 L20.85 42.23 C21.6 42.23 22.35 42.68 22.65 43.43 L31.2 53.55
								 C31.5 54.23 31.42 54.98 30.97 55.58 C30.67 56.1 30.07 56.48 29.4 56.48 ZM1.65 54.23 C1.65 54.38
								 1.65 54.6 1.72 54.75 C1.8 54.83 1.95 54.98 2.17 54.98 L29.4 54.98 C29.62 54.98 29.77 54.83 29.85
								 54.75 C29.92 54.6 30 54.38 29.92 54.23 L21.45 44.1 C21.37 43.88 21.15 43.73 21 43.73 L9.37 43.73
								 C9.15 43.73 8.92 43.88 8.85 44.1 L8.77 44.33 L1.65 54.23 Z" class="st1"/>
				</g>
			</g>
		</g>
	</g>
</svg>
