<?xml version="1.0" encoding="UTF-8" standalone="no"?>
<!DOCTYPE svg PUBLIC "-//W3C//DTD SVG 1.1//EN" "http://www.w3.org/Graphics/SVG/1.1/DTD/svg11.dtd">
<!-- Generated by Microsoft Visio, SVG Export My Site.svg Page-1 -->
<svg xmlns="http://www.w3.org/2000/svg" xmlns:xlink="http://www.w3.org/1999/xlink" xmlns:ev="http://www.w3.org/2001/xml-events"
		xmlns:v="http://schemas.microsoft.com/visio/2003/SVGExtensions/" width="0.885417in" height="0.760417in"
		viewBox="0 0 63.75 54.75" xml:space="preserve" color-interpolation-filters="sRGB" class="st4">
	<v:documentProperties v:langID="4108" v:metric="true" v:viewMarkup="false"/>

	<style type="text/css">
	<![CDATA[
		.st1 {fill:#ffffff;stroke:none;stroke-linecap:butt;stroke-width:0.75}
		.st2 {fill:#515150;stroke:none;stroke-linecap:butt;stroke-width:0.75}
		.st3 {fill:#525352;stroke:none;stroke-linecap:butt;stroke-width:0.75}
		.st4 {fill:none;fill-rule:evenodd;font-size:12px;overflow:visible;stroke-linecap:square;stroke-miterlimit:3}
	]]>
	</style>

	<g v:mID="0" v:index="1" v:groupContext="foregroundPage">
		<title>Page-1</title>
		<v:pageProperties v:drawingScale="0.0393701" v:pageScale="0.0393701" v:drawingUnits="24" v:shadowOffsetX="8.50394"
				v:shadowOffsetY="-8.50394"/>
		<g id="group142-1" transform="translate(0.75,-0.75)" v:mID="142" v:groupContext="group">
			<title>My Site</title>
			<g id="group143-2" v:mID="143" v:groupContext="group">
				<title>Sheet.143</title>
				<g id="group144-3" transform="translate(-2.79776E-14,-8.25)" v:mID="144" v:groupContext="group">
					<title>Sheet.144</title>
					<g id="group145-4" v:mID="145" v:groupContext="group">
						<title>Sheet.145</title>
						<g id="shape146-5" v:mID="146" v:groupContext="shape">
							<title>Sheet.146</title>
							<path d="M5.25 54.75 C2.33 54.75 0 52.42 0 49.5 L0 15 C0 12.08 2.33 9.75 5.25 9.75 L50.25 9.75 C53.18
										 9.75 55.5 12.08 55.5 15 L55.5 49.5 C55.5 52.42 53.18 54.75 50.25 54.75 L5.25 54.75 Z"
									class="st1"/>
						</g>
						<g id="shape147-7" v:mID="147" v:groupContext="shape" transform="translate(2.25,-2.25)">
							<title>Sheet.147</title>
							<path d="M48 14.25 L3 14.25 C1.35 14.25 0 15.6 0 17.25 L0 51.75 C-0 53.4 1.35 54.75 3 54.75 L48 54.75
										 C49.65 54.75 51 53.4 51 51.75 L51 17.25 C51 15.6 49.65 14.25 48 14.25 ZM42 16.5 L44.25 16.5
										 L44.25 18.75 L42 18.75 L42 16.5 ZM37.5 16.5 L39.75 16.5 L39.75 18.75 L37.5 18.75 L37.5 16.5
										 ZM48.75 51.75 C48.75 52.2 48.45 52.5 48 52.5 L3 52.5 C2.55 52.5 2.25 52.2 2.25 51.75 L2.25
										 21.75 L48.75 21.75 L48.75 51.75 ZM48.75 18.75 L46.5 18.75 L46.5 16.5 L48.75 16.5 L48.75
										 18.75 Z" class="st2"/>
						</g>
					</g>
					<g id="group148-9" transform="translate(12,-8.25)" v:mID="148" v:groupContext="group">
						<title>Sheet.148</title>
						<g id="group149-10" v:mID="149" v:groupContext="group">
							<title>Sheet.149</title>
							<g id="shape150-11" v:mID="150" v:groupContext="shape" transform="translate(22.5,-1.06581E-13)">
								<title>Sheet.150</title>
								<rect x="0" y="48.75" width="9" height="6" class="st2"/>
							</g>
							<g id="shape151-13" v:mID="151" v:groupContext="shape">
								<title>Sheet.151</title>
								<path d="M16.5 44.25 L27 44.25 L27 42.75 L16.5 42.75 L16.5 38.25 L21 38.25 L21 31.5 L10.5 31.5 L10.5
											 38.25 L15 38.25 L15 42.75 L5.25 42.75 L4.5 42.75 L3.75 42.75 L3.75 48.75 L0 48.75 L0
											 54.75 L9 54.75 L9 48.75 L5.25 48.75 L5.25 44.25 L15 44.25 L15 48.75 L11.25 48.75 L11.25
											 54.75 L20.25 54.75 L20.25 48.75 L16.5 48.75 L16.5 44.25 Z" class="st2"/>
							</g>
						</g>
						<g id="shape152-15" v:mID="152" v:groupContext="shape" transform="translate(26.25,-5.25)">
							<title>Sheet.152</title>
							<rect x="0" y="48" width="1.5" height="6.75" class="st2"/>
						</g>
					</g>
				</g>
				<g id="group153-17" transform="translate(30.975,1.91847E-13)" v:mID="153" v:groupContext="group">
					<title>Sheet.153</title>
					<g id="shape154-18" v:mID="154" v:groupContext="shape">
						<title>Sheet.154</title>
						<path d="M31.13 52.35 C30.98 50.17 30.45 45.75 30 43.65 C29.4 41.17 28.58 39.37 26.18 38.02 C25.88 37.87
									 25.58 37.72 25.35 37.57 C24.3 36.97 23.48 36.52 22.73 36.3 C23.78 34.72 24.38 32.85 24.38 30.75
									 C24.38 25.57 20.48 21.3 15.68 21.3 C10.88 21.3 6.97 25.5 6.98 30.75 C6.97 32.85 7.58 34.72 8.63
									 36.3 C7.88 36.45 7.13 36.9 5.85 37.57 L5.1 38.02 C2.7 39.37 1.88 41.17 1.28 43.65 C0.83 45.75
									 0.3 50.17 0.15 52.35 L0 54.75 L31.28 54.75 L31.13 52.35 Z" class="st1"/>
					</g>
					<g id="shape155-20" v:mID="155" v:groupContext="shape" transform="translate(2.55,-2.25)">
						<title>Sheet.155</title>
						<path d="M25.28 46.42 C24.75 44.25 24.15 43.2 22.58 42.3 C20.92 41.4 20.03 40.8 19.43 40.8 C19.13 40.8 18.98
									 40.87 18.75 40.95 C18.38 41.32 17.93 41.62 17.48 41.92 C17.4 42 17.33 42 17.25 42.07 C16.8 42.37
									 16.35 42.52 15.83 42.67 C15 42.97 14.1 43.12 13.13 43.12 C12.15 43.12 11.25 42.97 10.43 42.67
									 C9.98 42.52 9.53 42.3 9.08 42.07 C8.55 41.77 8.02 41.4 7.58 40.95 C7.43 40.87 7.2 40.8 6.9 40.8
									 C6.3 40.8 5.63 41.25 3.75 42.3 C2.1 43.2 1.5 44.25 1.05 46.42 C0.6 48.3 0.08 52.65 0 54.75 L26.48
									 54.75 C26.18 52.65 25.65 48.37 25.28 46.42 Z" class="st3"/>
					</g>
					<g id="shape156-22" v:mID="156" v:groupContext="shape" transform="translate(9.15,-16.725)">
						<title>Sheet.156</title>
						<path d="M6.45 54.75 C2.85 54.75 0 51.52 0 47.55 C0 43.57 2.93 40.35 6.45 40.35 C10.05 40.35 12.9 43.57 12.9
									 47.55 C12.98 51.52 10.05 54.75 6.45 54.75 Z" class="st3"/>
					</g>
				</g>
			</g>
		</g>
	</g>
</svg>
