<?xml version="1.0" encoding="UTF-8" standalone="no"?>
<!DOCTYPE svg PUBLIC "-//W3C//DTD SVG 1.1//EN" "http://www.w3.org/Graphics/SVG/1.1/DTD/svg11.dtd">
<!-- Generated by Microsoft Visio, SVG Export PowerPoint Automation Services.svg Page-1 -->
<svg xmlns="http://www.w3.org/2000/svg" xmlns:xlink="http://www.w3.org/1999/xlink" xmlns:ev="http://www.w3.org/2001/xml-events"
		xmlns:v="http://schemas.microsoft.com/visio/2003/SVGExtensions/" width="0.906644in" height="0.760058in"
		viewBox="0 0 65.2784 54.7242" xml:space="preserve" color-interpolation-filters="sRGB" class="st4">
	<v:documentProperties v:langID="4108" v:metric="true" v:viewMarkup="false"/>

	<style type="text/css">
	<![CDATA[
		.st1 {fill:#ffffff;stroke:none;stroke-linecap:butt;stroke-width:0.75}
		.st2 {fill:#535352;stroke:none;stroke-linecap:butt;stroke-width:0.75}
		.st3 {fill:#dc5b26;stroke:none;stroke-linecap:butt;stroke-width:0.75}
		.st4 {fill:none;fill-rule:evenodd;font-size:12px;overflow:visible;stroke-linecap:square;stroke-miterlimit:3}
	]]>
	</style>

	<g v:mID="0" v:index="1" v:groupContext="foregroundPage">
		<title>Page-1</title>
		<v:pageProperties v:drawingScale="0.0393701" v:pageScale="0.0393701" v:drawingUnits="24" v:shadowOffsetX="8.50394"
				v:shadowOffsetY="-8.50394"/>
		<g id="group340-1" transform="translate(0.628372,-0.7242)" v:mID="340" v:groupContext="group">
			<title>PowerPoint Automation Services</title>
			<g id="group341-2" v:mID="341" v:groupContext="group">
				<title>Sheet.341</title>
				<g id="group342-3" v:mID="342" v:groupContext="group">
					<title>Sheet.342</title>
					<g id="shape343-4" v:mID="343" v:groupContext="shape">
						<title>Sheet.343</title>
						<path d="M37.43 52.62 C36 52.85 34.65 52.17 33.9 50.97 L31.95 47.82 C31.95 47.82 31.95 47.82 31.88 47.82
									 C31.8 47.82 31.13 48.05 30.08 48.2 C29.03 48.42 28.28 48.42 28.2 48.42 L28.13 48.42 L27.3 52.02
									 C27 53.37 25.87 54.42 24.45 54.65 C24 54.72 23.55 54.72 23.1 54.57 L18.23 53.45 C17.32 53.22
									 16.57 52.7 16.05 51.87 C15.52 51.05 15.37 50.15 15.6 49.25 L16.43 45.57 L16.28 45.5 L13.58 43.55
									 C13.57 43.55 13.42 43.47 13.43 43.4 L10.28 45.42 C9.9 45.65 9.45 45.8 9 45.87 C7.57 46.1 6.15
									 45.5 5.4 44.3 L2.78 40.02 C2.25 39.2 2.1 38.3 2.33 37.4 C2.55 36.5 3.15 35.67 3.9 35.22 L7.05
									 33.27 C7.05 33.2 6.97 33.05 6.98 33.05 L6.45 29.75 C6.45 29.75 6.45 29.6 6.45 29.52 L2.78 28.7
									 C1.87 28.47 1.12 27.95 0.6 27.12 C0.15 26.3 0 25.32 0.23 24.42 L1.35 19.55 C1.65 18.2 2.78 17.15
									 4.2 16.92 C4.65 16.85 5.1 16.85 5.55 17 L9.22 17.82 L9.3 17.67 L11.25 14.97 C11.25 14.97 11.32
									 14.82 11.4 14.82 L9.45 11.67 C8.92 10.85 8.77 9.95 9 9.05 C9.22 8.15 9.75 7.4 10.57 6.87 L14.85
									 4.25 C15.22 4.02 15.67 3.87 16.13 3.8 C17.55 3.57 18.9 4.17 19.65 5.45 L21.6 8.6 C21.6 8.6 21.6
									 8.6 21.68 8.6 C21.75 8.6 22.42 8.37 23.48 8.22 C24.52 8.07 25.27 8 25.35 8 C25.35 8 25.35 8
									 25.43 8 L26.25 4.4 C26.55 3.05 27.68 2 29.1 1.77 C29.55 1.7 30 1.7 30.45 1.85 L35.33 2.97 C36.23
									 3.2 36.98 3.72 37.5 4.55 C38.03 5.37 38.18 6.27 37.95 7.17 L37.13 10.85 C37.2 10.85 37.28 10.92
									 37.28 10.92 L39.98 12.87 C39.98 12.87 40.13 12.95 40.13 13.02 L43.28 11.07 C43.65 10.85 44.1
									 10.7 44.55 10.62 C45.98 10.4 47.33 11 48.08 12.27 L50.7 16.55 C51.23 17.37 51.38 18.27 51.15
									 19.17 C50.93 20.07 50.4 20.82 49.58 21.35 L46.43 23.3 C46.43 23.37 46.5 23.52 46.5 23.52 L47.03
									 26.82 C47.03 26.82 47.03 26.97 47.03 27.05 L50.7 27.87 C52.58 28.32 53.78 30.2 53.33 32.07 L52.2
									 36.95 C51.9 38.3 50.78 39.35 49.35 39.57 C48.9 39.65 48.45 39.65 48 39.5 L44.33 38.67 C44.33
									 38.75 44.25 38.82 44.25 38.82 L42.3 41.52 C42.3 41.52 42.23 41.67 42.15 41.67 L44.1 44.82 C44.63
									 45.65 44.78 46.55 44.55 47.45 C44.33 48.35 43.8 49.1 42.98 49.62 L38.7 52.25 C38.33 52.32 37.88
									 52.55 37.43 52.62 ZM25.13 17.97 C19.5 18.87 15.75 24.2 16.65 29.75 C17.55 35.37 22.87 39.12
									 28.43 38.22 C34.05 37.32 37.8 32 36.9 26.45 C36 20.9 30.75 17.07 25.13 17.97 Z" class="st1"/>
					</g>
					<g id="shape344-6" v:mID="344" v:groupContext="shape" transform="translate(2.25,-2.1)">
						<title>Sheet.344</title>
						<path d="M47.93 31.85 L43.88 30.87 C43.2 30.72 42.68 30.5 42.68 30.35 C42.68 30.2 42.6 29.52 42.6 28.85 L42.08
									 25.77 C41.93 25.1 41.77 24.42 41.7 24.35 C41.63 24.2 42.07 23.82 42.68 23.45 L46.2 21.27 C46.8
									 20.9 46.95 20.15 46.58 19.55 L43.95 15.27 C43.58 14.67 42.83 14.52 42.23 14.9 L38.7 17.07 C38.1
									 17.45 37.58 17.67 37.43 17.52 C37.35 17.45 36.82 17 36.3 16.55 L33.75 14.67 C33.15 14.3 32.55
									 14 32.48 13.92 C32.33 13.85 32.4 13.25 32.55 12.57 L33.53 8.52 C33.68 7.85 33.3 7.17 32.63 7.02
									 L27.75 5.9 C27.08 5.75 26.4 6.12 26.25 6.8 L25.28 10.85 C25.13 11.52 24.9 12.05 24.75 12.05
									 C24.6 12.05 23.93 12.05 23.25 12.12 C23.25 12.12 22.57 12.12 21.68 12.27 C20.78 12.42 20.18
									 12.57 20.18 12.57 C19.5 12.8 18.9 12.95 18.75 13.02 C18.6 13.1 18.22 12.65 17.85 12.05 L15.53
									 8.52 C15.15 7.92 14.4 7.77 13.8 8.15 L9.53 10.77 C8.92 11.15 8.78 11.9 9.15 12.5 L11.33 16.02
									 C11.7 16.62 11.93 17.15 11.78 17.3 C11.7 17.37 11.25 17.9 10.8 18.42 L8.93 20.97 C8.55 21.57
									 8.25 22.17 8.18 22.25 C8.1 22.4 7.5 22.32 6.83 22.17 L2.85 21.27 C2.18 21.12 1.5 21.5 1.35 22.17
									 L0.15 27.05 C0 27.72 0.38 28.4 1.05 28.55 L5.18 29.52 C5.85 29.67 6.37 29.9 6.38 30.05 C6.37
									 30.2 6.45 30.87 6.45 31.55 L6.98 34.7 C7.12 35.37 7.28 36.05 7.35 36.12 C7.42 36.27 6.98 36.65
									 6.38 37.02 L2.85 39.2 C2.25 39.57 2.1 40.32 2.48 40.92 L5.1 45.2 C5.47 45.8 6.23 45.95 6.83
									 45.57 L10.35 43.4 C10.95 43.02 11.48 42.8 11.63 42.95 C11.7 43.02 12.23 43.47 12.75 43.92 L15.3
									 45.8 C15.9 46.17 16.5 46.47 16.58 46.55 C16.72 46.62 16.65 47.22 16.5 47.9 L15.53 51.95 C15.37
									 52.62 15.75 53.3 16.43 53.45 L21.3 54.57 C21.97 54.72 22.65 54.35 22.8 53.67 L23.78 49.62 C23.93
									 48.95 24.15 48.42 24.3 48.42 C24.45 48.42 25.13 48.42 25.8 48.35 C25.8 48.35 26.48 48.35 27.38
									 48.2 C28.28 48.05 28.88 47.9 28.88 47.9 C29.55 47.67 30.15 47.52 30.3 47.45 C30.45 47.37 30.83
									 47.82 31.2 48.42 L33.38 51.95 C33.75 52.55 34.5 52.7 35.1 52.32 L39.38 49.7 C39.98 49.32 40.13
									 48.57 39.75 47.97 L37.58 44.45 C37.2 43.85 36.98 43.32 37.13 43.17 C37.2 43.1 37.65 42.57 38.1
									 42.05 L39.98 39.5 C40.35 38.9 40.65 38.3 40.73 38.22 C40.8 38.07 41.4 38.15 42.08 38.3 L46.13
									 39.27 C46.8 39.42 47.48 39.05 47.63 38.37 L48.75 33.5 C49.05 32.67 48.6 32 47.93 31.85 ZM26.55
									 42.57 C19.72 43.7 13.27 39.05 12.15 32.22 C11.02 25.4 15.68 18.95 22.5 17.82 C29.33 16.7 35.78
									 21.35 36.9 28.17 C38.03 35 33.37 41.45 26.55 42.57 Z" class="st2"/>
					</g>
				</g>
				<g id="group345-8" transform="translate(34.65,-24.75)" v:mID="345" v:groupContext="group">
					<title>Sheet.345</title>
					<g id="shape346-9" v:mID="346" v:groupContext="shape">
						<title>Sheet.346</title>
						<path d="M25.5 28.47 L18.75 28.47 L18.75 26.22 L16.35 26.22 L0 28.77 L0 52.1 L16.35 54.72 L18.75 54.72 L18.75
									 52.47 L25.5 52.47 C27.6 52.47 29.25 50.82 29.25 48.72 L29.25 32.22 C29.25 30.12 27.6 28.47 25.5
									 28.47 Z" class="st1"/>
					</g>
					<g id="group347-11" transform="translate(11.25,-4.5)" v:mID="347" v:groupContext="group">
						<title>Sheet.347</title>
						<g id="shape348-12" v:mID="348" v:groupContext="shape">
							<title>Sheet.348</title>
							<path d="M14.25 36.35 C14.48 36.35 14.63 36.5 14.63 36.72 L14.63 53.22 C14.63 53.45 14.48 53.6 14.25
										 53.6 L1.5 53.6 C1.28 53.6 1.12 53.45 1.13 53.22 L1.13 36.72 C1.12 36.5 1.28 36.35 1.5 36.35
										 L14.25 36.35 ZM14.25 35.22 L1.5 35.22 C0.68 35.22 0 35.9 0 36.72 L0 53.22 C0 54.05 0.68
										 54.72 1.5 54.72 L14.25 54.72 C15.08 54.72 15.75 54.05 15.75 53.22 L15.75 36.72 C15.75 35.9
										 15.08 35.22 14.25 35.22 Z" class="st3"/>
						</g>
						<g id="group349-14" transform="translate(2.25,-6.75)" v:mID="349" v:groupContext="group">
							<title>Sheet.349</title>
							<g id="shape350-15" v:mID="350" v:groupContext="shape">
								<title>Sheet.350</title>
								<path d="M4.5 45.72 C2.02 45.72 0 47.75 0 50.22 C-0 52.7 2.03 54.72 4.5 54.72 C6.97 54.72 9 52.7
											 9 50.22 L4.5 50.22 L4.5 45.72 Z" class="st3"/>
							</g>
							<g id="shape351-17" v:mID="351" v:groupContext="shape" transform="translate(5.25,-5.25)">
								<title>Sheet.351</title>
								<path d="M0 54.72 L4.5 54.72 C4.5 52.25 2.48 50.22 0 50.22 L0 54.72 Z" class="st3"/>
							</g>
						</g>
						<g id="shape352-19" v:mID="352" v:groupContext="shape" transform="translate(3,-3.375)">
							<title>Sheet.352</title>
							<rect x="0" y="53.5992" width="9" height="1.125" class="st3"/>
						</g>
					</g>
					<g id="shape353-21" v:mID="353" v:groupContext="shape" transform="translate(2.25,-2.25)">
						<title>Sheet.353</title>
						<path d="M14.25 30.72 L0 32.97 L0 52.47 L14.25 54.72 L14.25 30.72 Z" class="st3"/>
					</g>
					<g id="shape354-23" v:mID="354" v:groupContext="shape" transform="translate(7.05,-9.3)">
						<title>Sheet.354</title>
						<path d="M1.8 49.47 C1.8 48.95 1.8 48.5 1.8 47.97 C1.8 47.67 1.8 47.3 1.8 47 C1.8 46.77 1.72 46.7 1.95 46.62
									 C2.32 46.55 2.7 46.47 3.07 46.62 C3.67 46.85 3.75 47.52 3.75 48.12 C3.75 48.72 3.52 49.32 2.85
									 49.47 C2.55 49.62 2.17 49.55 1.8 49.47 ZM2.7 44.9 C1.87 44.97 1.05 44.97 0.15 45.05 C0 45.05
									 0 45.05 0 45.27 C0 45.57 0 45.8 0 46.1 C0 48.2 0 50.3 0 52.4 C0 53.07 0 53.75 0 54.42 C-0 54.57
									 0.3 54.57 0.45 54.57 C0.9 54.65 1.35 54.65 1.72 54.72 C1.72 53.6 1.73 52.4 1.72 51.27 C2.4 51.35
									 3.07 51.35 3.67 51.12 C4.65 50.75 5.25 49.85 5.47 48.87 C5.62 47.97 5.55 46.77 5.02 46.02 C4.57
									 44.97 3.6 44.9 2.7 44.9 Z" class="st1"/>
					</g>
				</g>
			</g>
		</g>
	</g>
</svg>
