<?xml version="1.0" encoding="UTF-8" standalone="no"?>
<!DOCTYPE svg PUBLIC "-//W3C//DTD SVG 1.1//EN" "http://www.w3.org/Graphics/SVG/1.1/DTD/svg11.dtd">
<!-- Generated by Microsoft Visio, SVG Export Publish.svg Page-1 -->
<svg xmlns="http://www.w3.org/2000/svg" xmlns:xlink="http://www.w3.org/1999/xlink" xmlns:ev="http://www.w3.org/2001/xml-events"
		xmlns:v="http://schemas.microsoft.com/visio/2003/SVGExtensions/" width="0.875in" height="0.75in" viewBox="0 0 63 54"
		xml:space="preserve" color-interpolation-filters="sRGB" class="st3">
	<v:documentProperties v:langID="4108" v:metric="true" v:viewMarkup="false"/>

	<style type="text/css">
	<![CDATA[
		.st1 {fill:#ffffff;stroke:none;stroke-linecap:butt;stroke-width:0.75}
		.st2 {fill:#515150;stroke:none;stroke-linecap:butt;stroke-width:0.75}
		.st3 {fill:none;fill-rule:evenodd;font-size:12px;overflow:visible;stroke-linecap:square;stroke-miterlimit:3}
	]]>
	</style>

	<g v:mID="0" v:index="1" v:groupContext="foregroundPage">
		<title>Page-1</title>
		<v:pageProperties v:drawingScale="0.0393701" v:pageScale="0.0393701" v:drawingUnits="24" v:shadowOffsetX="8.50394"
				v:shadowOffsetY="-8.50394"/>
		<g id="group278-1" transform="translate(0.75,-0.75)" v:mID="278" v:groupContext="group">
			<title>Publish</title>
			<g id="group279-2" v:mID="279" v:groupContext="group">
				<title>Sheet.279</title>
				<g id="group280-3" transform="translate(-1.1191E-13,-7.5)" v:mID="280" v:groupContext="group">
					<title>Sheet.280</title>
					<g id="group281-4" v:mID="281" v:groupContext="group">
						<title>Sheet.281</title>
						<g id="shape282-5" v:mID="282" v:groupContext="shape">
							<title>Sheet.282</title>
							<path d="M5.25 54 C2.32 54 0 51.68 0 48.75 L0 14.25 C0 11.33 2.32 9 5.25 9 L50.25 9 C53.17 9 55.5 11.33
										 55.5 14.25 L55.5 48.75 C55.5 51.68 53.17 54 50.25 54 L5.25 54 Z" class="st1"/>
						</g>
						<g id="shape283-7" v:mID="283" v:groupContext="shape" transform="translate(2.25,-2.25)">
							<title>Sheet.283</title>
							<path d="M48 13.5 L3 13.5 C1.35 13.5 0 14.85 0 16.5 L0 51 C0 52.65 1.35 54 3 54 L48 54 C49.65 54 51 52.65
										 51 51 L51 16.5 C51 14.85 49.65 13.5 48 13.5 ZM42 15.75 L44.25 15.75 L44.25 18 L42 18 L42
										 15.75 ZM37.5 15.75 L39.75 15.75 L39.75 18 L37.5 18 L37.5 15.75 ZM48.75 51 C48.75 51.45 48.45
										 51.75 48 51.75 L3 51.75 C2.55 51.75 2.25 51.45 2.25 51 L2.25 21 L48.75 21 L48.75 51 ZM48.75
										 18 L46.5 18 L46.5 15.75 L48.75 15.75 L48.75 18 Z" class="st2"/>
						</g>
					</g>
					<g id="group284-9" transform="translate(12,-8.25)" v:mID="284" v:groupContext="group">
						<title>Sheet.284</title>
						<g id="group285-10" v:mID="285" v:groupContext="group">
							<title>Sheet.285</title>
							<g id="shape286-11" v:mID="286" v:groupContext="shape" transform="translate(10.5,-16.5)">
								<title>Sheet.286</title>
								<rect x="0" y="47.25" width="10.5" height="6.75" class="st2"/>
							</g>
							<g id="shape287-13" v:mID="287" v:groupContext="shape" transform="translate(11.25,-1.13687E-13)">
								<title>Sheet.287</title>
								<rect x="0" y="48" width="9" height="6" class="st2"/>
							</g>
							<g id="shape288-15" v:mID="288" v:groupContext="shape" transform="translate(22.5,-1.13687E-13)">
								<title>Sheet.288</title>
								<rect x="0" y="48" width="9" height="6" class="st2"/>
							</g>
							<g id="shape289-17" v:mID="289" v:groupContext="shape">
								<title>Sheet.289</title>
								<rect x="0" y="48" width="9" height="6" class="st2"/>
							</g>
							<g id="shape290-19" v:mID="290" v:groupContext="shape" transform="translate(15,-6)">
								<title>Sheet.290</title>
								<rect x="0" y="42.75" width="1.5" height="11.25" class="st2"/>
							</g>
							<g id="shape291-21" v:mID="291" v:groupContext="shape" transform="translate(4.5,-10.5)">
								<title>Sheet.291</title>
								<rect x="0" y="52.5" width="22.5" height="1.5" class="st2"/>
							</g>
						</g>
						<g id="shape292-23" v:mID="292" v:groupContext="shape" transform="translate(3.75,-5.25)">
							<title>Sheet.292</title>
							<rect x="0" y="47.25" width="1.5" height="6.75" class="st2"/>
						</g>
						<g id="shape293-25" v:mID="293" v:groupContext="shape" transform="translate(26.25,-5.25)">
							<title>Sheet.293</title>
							<rect x="0" y="47.25" width="1.5" height="6.75" class="st2"/>
						</g>
					</g>
				</g>
				<g id="group294-27" transform="translate(29.25,2.27374E-13)" v:mID="294" v:groupContext="group">
					<title>Sheet.294</title>
					<g id="shape295-28" v:mID="295" v:groupContext="shape">
						<title>Sheet.295</title>
						<path d="M32.25 44.25 L32.25 37.35 L24 29.1 L23.18 29.93 L23.1 29.85 C20.55 27.6 17.25 26.33 13.88 26.33
									 C6.22 26.25 0 32.48 0 40.13 C0 47.78 6.22 54 13.88 54 C20.63 54 26.32 49.13 27.53 42.68 L29.1
									 44.25 L32.25 44.25 Z" class="st1"/>
					</g>
					<g id="shape296-30" v:mID="296" v:groupContext="shape" transform="translate(2.25,-2.25)">
						<title>Sheet.296</title>
						<path d="M21.75 34.5 L15.75 40.5 L15.75 44.25 L20.25 39.75 L20.25 42.38 C20.25 47.1 16.35 51 11.63 51 C6.9
									 51 3 47.1 3 42.38 C3 37.65 6.9 33.75 11.63 33.75 C13.8 33.75 15.75 34.58 17.25 35.85 L19.35
									 33.75 C17.32 31.95 14.63 30.83 11.63 30.83 C5.18 30.75 0 35.93 0 42.38 C-0 48.83 5.18 54 11.63
									 54 C18 54 23.18 48.83 23.25 42.45 L23.25 39.75 L27.75 44.25 L27.75 40.5 L21.75 34.5 Z"
								class="st2"/>
					</g>
				</g>
			</g>
		</g>
	</g>
</svg>
