<?xml version="1.0" encoding="UTF-8" standalone="no"?>
<!DOCTYPE svg PUBLIC "-//W3C//DTD SVG 1.1//EN" "http://www.w3.org/Graphics/SVG/1.1/DTD/svg11.dtd">
<!-- Generated by Microsoft Visio, SVG Export Site, Team.svg Page-1 -->
<svg xmlns="http://www.w3.org/2000/svg" xmlns:xlink="http://www.w3.org/1999/xlink" xmlns:ev="http://www.w3.org/2001/xml-events"
		xmlns:v="http://schemas.microsoft.com/visio/2003/SVGExtensions/" width="0.90625in" height="0.760417in"
		viewBox="0 0 65.25 54.75" xml:space="preserve" color-interpolation-filters="sRGB" class="st4">
	<v:documentProperties v:langID="4108" v:metric="true" v:viewMarkup="false"/>

	<style type="text/css">
	<![CDATA[
		.st1 {fill:#ffffff;stroke:none;stroke-linecap:butt;stroke-width:0.75}
		.st2 {fill:#515150;stroke:none;stroke-linecap:butt;stroke-width:0.75}
		.st3 {fill:#535352;stroke:none;stroke-linecap:butt;stroke-width:0.75}
		.st4 {fill:none;fill-rule:evenodd;font-size:12px;overflow:visible;stroke-linecap:square;stroke-miterlimit:3}
	]]>
	</style>

	<g v:mID="0" v:index="1" v:groupContext="foregroundPage">
		<title>Page-1</title>
		<v:pageProperties v:drawingScale="0.0393701" v:pageScale="0.0393701" v:drawingUnits="24" v:shadowOffsetX="8.50394"
				v:shadowOffsetY="-8.50394"/>
		<g id="group173-1" transform="translate(0.75,-0.75)" v:mID="173" v:groupContext="group">
			<title>Site, Team</title>
			<g id="group174-2" transform="translate(7.99361E-14,-8.25)" v:mID="174" v:groupContext="group">
				<title>Sheet.174</title>
				<g id="group175-3" v:mID="175" v:groupContext="group">
					<title>Sheet.175</title>
					<g id="shape176-4" v:mID="176" v:groupContext="shape">
						<title>Sheet.176</title>
						<path d="M5.25 54.75 C2.33 54.75 0 52.42 0 49.5 L0 15 C0 12.08 2.33 9.75 5.25 9.75 L50.25 9.75 C53.18 9.75
									 55.5 12.08 55.5 15 L55.5 49.5 C55.5 52.42 53.18 54.75 50.25 54.75 L5.25 54.75 Z" class="st1"/>
					</g>
					<g id="shape177-6" v:mID="177" v:groupContext="shape" transform="translate(2.25,-2.25)">
						<title>Sheet.177</title>
						<path d="M48 14.25 L3 14.25 C1.35 14.25 0 15.6 0 17.25 L0 51.75 C0 53.4 1.35 54.75 3 54.75 L48 54.75 C49.65
									 54.75 51 53.4 51 51.75 L51 17.25 C51 15.6 49.65 14.25 48 14.25 ZM42 16.5 L44.25 16.5 L44.25
									 18.75 L42 18.75 L42 16.5 ZM37.5 16.5 L39.75 16.5 L39.75 18.75 L37.5 18.75 L37.5 16.5 ZM48.75
									 51.75 C48.75 52.2 48.45 52.5 48 52.5 L3 52.5 C2.55 52.5 2.25 52.2 2.25 51.75 L2.25 21.75 L48.75
									 21.75 L48.75 51.75 ZM48.75 18.75 L46.5 18.75 L46.5 16.5 L48.75 16.5 L48.75 18.75 Z"
								class="st2"/>
					</g>
				</g>
				<g id="shape178-8" v:mID="178" v:groupContext="shape" transform="translate(12,-8.25)">
					<title>Sheet.178</title>
					<path d="M27 42.75 L26.25 42.75 L16.5 42.75 L16.5 38.25 L21 38.25 L21 31.5 L10.5 31.5 L10.5 38.25 L15 38.25 L15
								 42.75 L5.25 42.75 L4.5 42.75 L3.75 42.75 L3.75 48.75 L0 48.75 L0 54.75 L9 54.75 L9 48.75 L5.25 48.75
								 L5.25 44.25 L15 44.25 L15 48.75 L11.25 48.75 L11.25 54.75 L20.25 54.75 L20.25 48.75 L16.5 48.75
								 L16.5 44.25 L26.25 44.25 L26.25 49.5 L27.75 49.5 L27.75 42.75 L27 42.75 Z" class="st2"/>
				</g>
			</g>
			<g id="shape179-10" v:mID="179" v:groupContext="shape" transform="translate(24.75,9.9476E-14)">
				<title>Sheet.179</title>
				<path d="M24 49.95 L39 49.95 L39 46.05 C38.85 44.4 38.55 42.22 38.25 41.1 C37.8 39.15 37.12 37.65 35.17 36.6 L34.57
							 36.22 C34.05 35.93 33.6 35.7 33.15 35.47 C33.75 34.35 34.12 33.08 34.12 31.72 C34.12 27.53 30.97 24.15
							 27.07 24.15 C23.17 24.15 20.02 27.53 20.02 31.72 C20.02 33.08 20.4 34.35 21 35.47 C20.55 35.62 20.1
							 35.93 19.57 36.22 L19.27 36.37 C19.27 32.25 16.12 28.87 12.22 28.87 C8.33 28.87 5.18 32.25 5.17 36.45
							 C5.18 37.8 5.55 39.08 6.15 40.2 C5.7 40.35 5.25 40.65 4.72 40.95 L4.2 41.25 C2.25 42.37 1.57 43.87 1.12
							 45.75 C0.75 47.32 0.37 50.62 0.3 52.27 L0 54.75 L24.37 54.75 L24.22 52.35 C24.23 51.75 24.15 50.92 24
							 49.95 Z" class="st1"/>
			</g>
			<g id="group180-12" transform="translate(27,-2.25)" v:mID="180" v:groupContext="group">
				<title>Sheet.180</title>
				<g id="shape181-13" v:mID="181" v:groupContext="shape" transform="translate(20.025,-15.525)">
					<title>Sheet.181</title>
					<path d="M4.8 54.75 C2.18 54.75 0 52.35 0 49.42 C0 46.5 2.18 44.1 4.8 44.1 C7.43 44.1 9.6 46.5 9.6 49.42 C9.6
								 52.35 7.43 54.75 4.8 54.75 Z" class="st3"/>
				</g>
				<g id="shape182-15" v:mID="182" v:groupContext="shape" transform="translate(15.75,-4.65)">
					<title>Sheet.182</title>
					<path d="M1.2 48.67 C1.43 48.75 1.58 48.9 1.8 49.05 C3.53 50.02 4.05 51.22 4.5 53.02 C4.58 53.47 4.73 54.07 4.8
								 54.75 L18.9 54.75 C18.83 53.17 18.45 50.02 18.08 48.6 C17.7 47.02 17.25 46.2 16.05 45.52 C14.85
								 44.85 14.18 44.4 13.73 44.4 C13.5 44.4 13.35 44.47 13.2 44.55 C12.9 44.85 12.6 45.07 12.23 45.3
								 C12.23 45.3 12.23 45.3 12.23 45.3 C12.15 45.3 12.08 45.37 12.08 45.37 C11.7 45.6 11.4 45.75 11.03
								 45.82 C10.43 46.05 9.75 46.2 9 46.2 C8.33 46.2 7.65 46.05 6.98 45.82 C6.6 45.75 6.3 45.6 5.93 45.37
								 C5.55 45.15 5.18 44.85 4.8 44.55 C4.65 44.47 4.5 44.4 4.28 44.4 C3.83 44.4 3.38 44.7 1.95 45.52
								 C0.83 46.12 0.38 46.87 0 48.22 C0.53 48.22 0.83 48.37 1.2 48.67 Z" class="st3"/>
				</g>
				<g id="shape183-17" v:mID="183" v:groupContext="shape">
					<title>Sheet.183</title>
					<path d="M18.98 48.6 C18.6 47.02 18.15 46.2 16.95 45.52 C15.75 44.85 15.08 44.4 14.63 44.4 C14.4 44.4 14.25 44.47
								 14.1 44.55 C13.8 44.85 13.5 45.07 13.13 45.3 C13.13 45.3 13.13 45.3 13.13 45.3 C13.05 45.3 12.98
								 45.37 12.98 45.37 C12.6 45.6 12.3 45.75 11.93 45.82 C11.33 46.05 10.65 46.2 9.9 46.2 C9.23 46.2
								 8.55 46.05 7.88 45.82 C7.5 45.75 7.2 45.6 6.83 45.37 C6.45 45.15 6.08 44.85 5.7 44.55 C5.55 44.47
								 5.4 44.4 5.18 44.4 C4.73 44.4 4.28 44.7 2.85 45.52 C1.65 46.2 1.2 46.95 0.83 48.6 C0.52 50.02 0.15
								 53.25 0 54.75 L19.58 54.75 C19.65 53.17 19.28 50.02 18.98 48.6 Z" class="st3"/>
				</g>
				<g id="shape184-19" v:mID="184" v:groupContext="shape" transform="translate(5.175,-10.725)">
					<title>Sheet.184</title>
					<path d="M4.8 54.75 C2.18 54.75 0 52.35 0 49.42 C0 46.5 2.18 44.1 4.8 44.1 C7.43 44.1 9.6 46.5 9.6 49.42 C9.53
								 52.35 7.43 54.75 4.8 54.75 Z" class="st3"/>
				</g>
			</g>
		</g>
	</g>
</svg>
