<?xml version="1.0" encoding="UTF-8" standalone="no"?>
<!DOCTYPE svg PUBLIC "-//W3C//DTD SVG 1.1//EN" "http://www.w3.org/Graphics/SVG/1.1/DTD/svg11.dtd">
<!-- Generated by Microsoft Visio, SVG Export Site, Shared.svg Page-1 -->
<svg xmlns="http://www.w3.org/2000/svg" xmlns:xlink="http://www.w3.org/1999/xlink" xmlns:ev="http://www.w3.org/2001/xml-events"
		xmlns:v="http://schemas.microsoft.com/visio/2003/SVGExtensions/" width="0.864583in" height="0.78125in"
		viewBox="0 0 62.25 56.25" xml:space="preserve" color-interpolation-filters="sRGB" class="st3">
	<v:documentProperties v:langID="4108" v:metric="true" v:viewMarkup="false"/>

	<style type="text/css">
	<![CDATA[
		.st1 {fill:#ffffff;stroke:none;stroke-linecap:butt;stroke-width:0.75}
		.st2 {fill:#515150;stroke:none;stroke-linecap:butt;stroke-width:0.75}
		.st3 {fill:none;fill-rule:evenodd;font-size:12px;overflow:visible;stroke-linecap:square;stroke-miterlimit:3}
	]]>
	</style>

	<g v:mID="0" v:index="1" v:groupContext="foregroundPage">
		<title>Page-1</title>
		<v:pageProperties v:drawingScale="0.0393701" v:pageScale="0.0393701" v:drawingUnits="24" v:shadowOffsetX="8.50394"
				v:shadowOffsetY="-8.50394"/>
		<g id="group157-1" transform="translate(0.75,-0.75)" v:mID="157" v:groupContext="group">
			<title>Site, Shared</title>
			<g id="group158-2" v:mID="158" v:groupContext="group">
				<title>Sheet.158</title>
				<g id="group159-3" transform="translate(0,-9.75)" v:mID="159" v:groupContext="group">
					<title>Sheet.159</title>
					<g id="shape160-4" v:mID="160" v:groupContext="shape">
						<title>Sheet.160</title>
						<path d="M5.25 56.25 C2.33 56.25 0 53.92 0 51 L0 16.5 C0 13.57 2.33 11.25 5.25 11.25 L50.25 11.25 C53.18
									 11.25 55.5 13.57 55.5 16.5 L55.5 51 C55.5 53.92 53.18 56.25 50.25 56.25 L5.25 56.25 Z"
								class="st1"/>
					</g>
					<g id="shape161-6" v:mID="161" v:groupContext="shape" transform="translate(2.25,-2.25)">
						<title>Sheet.161</title>
						<path d="M48 15.75 L3 15.75 C1.35 15.75 0 17.1 0 18.75 L0 53.25 C0 54.9 1.35 56.25 3 56.25 L48 56.25 C49.65
									 56.25 51 54.9 51 53.25 L51 18.75 C51 17.1 49.65 15.75 48 15.75 ZM42 18 L44.25 18 L44.25 20.25
									 L42 20.25 L42 18 ZM37.5 18 L39.75 18 L39.75 20.25 L37.5 20.25 L37.5 18 ZM48.75 53.25 C48.75
									 53.7 48.45 54 48 54 L3 54 C2.55 54 2.25 53.7 2.25 53.25 L2.25 23.25 L48.75 23.25 L48.75 53.25
									 ZM48.75 20.25 L46.5 20.25 L46.5 18 L48.75 18 L48.75 20.25 Z" class="st2"/>
					</g>
				</g>
				<g id="group162-8" transform="translate(12,-18)" v:mID="162" v:groupContext="group">
					<title>Sheet.162</title>
					<g id="shape163-9" v:mID="163" v:groupContext="shape" transform="translate(22.5,-1.20792E-13)">
						<title>Sheet.163</title>
						<rect x="0" y="50.25" width="9" height="6" class="st2"/>
					</g>
					<g id="shape164-11" v:mID="164" v:groupContext="shape">
						<title>Sheet.164</title>
						<path d="M27 45.75 L27 44.25 L16.5 44.25 L16.5 39.75 L21 39.75 L21 33 L10.5 33 L10.5 39.75 L15 39.75 L15
									 44.25 L5.25 44.25 L4.5 44.25 L3.75 44.25 L3.75 50.25 L0 50.25 L0 56.25 L9 56.25 L9 50.25 L5.25
									 50.25 L5.25 45.75 L15 45.75 L15 50.25 L11.25 50.25 L11.25 56.25 L20.25 56.25 L20.25 50.25 L16.5
									 50.25 L16.5 45.75 L27 45.75 Z" class="st2"/>
					</g>
					<g id="shape165-13" v:mID="165" v:groupContext="shape" transform="translate(26.25,-5.25)">
						<title>Sheet.165</title>
						<rect x="0" y="49.5" width="1.5" height="6.75" class="st2"/>
					</g>
				</g>
				<g id="group166-15" transform="translate(28.5,-2.55795E-13)" v:mID="166" v:groupContext="group">
					<title>Sheet.166</title>
					<g id="shape167-16" v:mID="167" v:groupContext="shape">
						<title>Sheet.167</title>
						<path d="M16.12 56.25 C7.2 56.25 0 49.05 0 40.12 C0 31.2 7.2 24 16.12 24 C25.05 24 32.25 31.2 32.25 40.12
									 C32.25 49.05 25.05 56.25 16.12 56.25 Z" class="st1"/>
					</g>
					<g id="shape168-18" v:mID="168" v:groupContext="shape" transform="translate(2.25,-2.25)">
						<title>Sheet.168</title>
						<path d="M13.87 28.5 C6.22 28.5 0 34.72 0 42.37 C0 50.03 6.22 56.25 13.87 56.25 C21.52 56.25 27.75 50.03
									 27.75 42.37 C27.75 34.72 21.52 28.5 13.87 28.5 Z" class="st2"/>
					</g>
					<g id="group169-20" transform="translate(5.25,-6.375)" v:mID="169" v:groupContext="group">
						<title>Sheet.169</title>
						<g id="shape170-21" v:mID="170" v:groupContext="shape" transform="translate(3.375,-13.125)">
							<title>Sheet.170</title>
							<path d="M9 54.75 C10.05 55.8 11.77 55.8 12.82 54.75 C13.87 53.7 13.87 51.97 12.82 50.92 C11.77 49.87
										 10.05 49.87 9 50.92 C9 50.92 8.92 51 8.92 51 C8.55 50.92 8.17 50.92 7.72 50.92 C4.35 50.92
										 1.5 52.8 0 55.57 C0.67 55.65 1.27 55.87 1.8 56.25 C3 54.22 5.17 52.87 7.65 52.87 C7.8 52.87
										 7.95 52.87 8.1 52.87 C8.17 53.55 8.47 54.22 9 54.75 Z" class="st1"/>
						</g>
						<g id="shape171-23" v:mID="171" v:groupContext="shape" transform="translate(6.99441E-15,-0.975)">
							<title>Sheet.171</title>
							<path d="M10.2 54.22 C7.57 53.85 5.47 52.05 4.65 49.65 C4.72 49.57 4.8 49.5 4.87 49.42 C5.92 48.37 5.92
										 46.65 4.87 45.6 C3.82 44.55 2.1 44.55 1.05 45.6 C0 46.65 -0 48.37 1.05 49.42 C1.57 49.95
										 2.18 50.17 2.85 50.25 C3.97 53.62 7.05 56.02 10.65 56.25 C10.35 55.57 10.2 54.97 10.2 54.22
										 C10.2 54.22 10.2 54.22 10.2 54.22 Z" class="st1"/>
						</g>
						<g id="shape172-25" v:mID="172" v:groupContext="shape" transform="translate(11.325,7.10543E-14)">
							<title>Sheet.172</title>
							<path d="M8.55 46.5 C8.55 44.55 7.87 42.67 6.75 41.25 C6.52 41.77 6.22 42.22 5.85 42.6 C5.77 42.67 5.62
										 42.82 5.55 42.9 C6.22 43.95 6.6 45.22 6.6 46.5 C6.6 48.3 5.85 49.95 4.72 51.22 C3.67 50.32
										 2.1 50.4 1.05 51.37 C-0 52.42 0 54.15 1.05 55.2 C2.1 56.25 3.82 56.25 4.87 55.2 C5.47 54.6
										 5.77 53.7 5.62 52.95 C7.42 51.37 8.55 49.05 8.55 46.5 Z" class="st1"/>
						</g>
					</g>
				</g>
			</g>
		</g>
	</g>
</svg>
