<?xml version="1.0" encoding="UTF-8" standalone="no"?>
<!DOCTYPE svg PUBLIC "-//W3C//DTD SVG 1.1//EN" "http://www.w3.org/Graphics/SVG/1.1/DTD/svg11.dtd">
<!-- Generated by Microsoft Visio, SVG Export Site Collection.svg Page-1 -->
<svg xmlns="http://www.w3.org/2000/svg" xmlns:xlink="http://www.w3.org/1999/xlink" xmlns:ev="http://www.w3.org/2001/xml-events"
		xmlns:v="http://schemas.microsoft.com/visio/2003/SVGExtensions/" width="0.8125in" height="0.645833in"
		viewBox="0 0 58.5 46.5" xml:space="preserve" color-interpolation-filters="sRGB" class="st4">
	<v:documentProperties v:langID="4108" v:metric="true" v:viewMarkup="false"/>

	<style type="text/css">
	<![CDATA[
		.st1 {fill:#ffffff;stroke:none;stroke-linecap:butt;stroke-width:0.75}
		.st2 {fill:#515150;stroke:none;stroke-linecap:butt;stroke-width:0.75}
		.st3 {fill:#515050;stroke:none;stroke-linecap:butt;stroke-width:0.75}
		.st4 {fill:none;fill-rule:evenodd;font-size:12px;overflow:visible;stroke-linecap:square;stroke-miterlimit:3}
	]]>
	</style>

	<g v:mID="0" v:index="1" v:groupContext="foregroundPage">
		<title>Page-1</title>
		<v:pageProperties v:drawingScale="0.0393701" v:pageScale="0.0393701" v:drawingUnits="24" v:shadowOffsetX="8.50394"
				v:shadowOffsetY="-8.50394"/>
		<g id="group109-1" transform="translate(0.75,-0.75)" v:mID="109" v:groupContext="group">
			<title>Site Collection</title>
			<g id="group110-2" v:mID="110" v:groupContext="group">
				<title>Sheet.110</title>
				<g id="shape111-3" v:mID="111" v:groupContext="shape">
					<title>Sheet.111</title>
					<path d="M5.25 46.5 C2.33 46.5 0 44.17 0 41.25 L0 6.75 C0 3.83 2.33 1.5 5.25 1.5 L51.75 1.5 C54.68 1.5 57 3.83
								 57 6.75 L57 41.25 C57 44.17 54.68 46.5 51.75 46.5 L5.25 46.5 Z" class="st1"/>
				</g>
				<g id="shape112-5" v:mID="112" v:groupContext="shape" transform="translate(2.25,-2.25)">
					<title>Sheet.112</title>
					<path d="M49.5 6 L3 6 C1.35 6 0 7.35 0 9 L0 43.5 C-0 45.15 1.35 46.5 3 46.5 L49.5 46.5 C51.15 46.5 52.5 45.15
								 52.5 43.5 L52.5 9 C52.5 7.35 51.15 6 49.5 6 ZM50.25 43.5 C50.25 43.95 49.95 44.25 49.5 44.25 L3
								 44.25 C2.55 44.25 2.25 43.95 2.25 43.5 L2.25 9 C2.25 8.55 2.55 8.25 3 8.25 L49.5 8.25 C49.95 8.25
								 50.25 8.55 50.25 9 L50.25 43.5 Z" class="st2"/>
				</g>
			</g>
			<g id="shape113-7" v:mID="113" v:groupContext="shape" transform="translate(10.5,-9.75)">
				<title>Sheet.113</title>
				<path d="M32.25 39.75 L32.25 35.25 L32.25 34.5 L32.25 33.75 L18.75 33.75 L18.75 29.25 L24 29.25 L24 21 L12 21 L12
							 29.25 L17.25 29.25 L17.25 33.75 L3.75 33.75 L3.75 34.5 L3.75 35.25 L3.75 39.75 L0 39.75 L0 46.5 L9 46.5
							 L9 39.75 L5.25 39.75 L5.25 35.25 L17.25 35.25 L17.25 39.75 L13.5 39.75 L13.5 46.5 L22.5 46.5 L22.5 39.75
							 L18.75 39.75 L18.75 35.25 L30.75 35.25 L30.75 39.75 L27 39.75 L27 46.5 L36 46.5 L36 39.75 L32.25 39.75
							 Z" class="st3"/>
			</g>
		</g>
	</g>
</svg>
