<?xml version="1.0" encoding="UTF-8" standalone="no"?>
<!DOCTYPE svg PUBLIC "-//W3C//DTD SVG 1.1//EN" "http://www.w3.org/Graphics/SVG/1.1/DTD/svg11.dtd">
<!-- Generated by Microsoft Visio, SVG Export Subsite.svg Page-1 -->
<svg xmlns="http://www.w3.org/2000/svg" xmlns:xlink="http://www.w3.org/1999/xlink" xmlns:ev="http://www.w3.org/2001/xml-events"
		xmlns:v="http://schemas.microsoft.com/visio/2003/SVGExtensions/" width="0.822917in" height="0.645833in"
		viewBox="0 0 59.25 46.5" xml:space="preserve" color-interpolation-filters="sRGB" class="st3">
	<v:documentProperties v:langID="4108" v:metric="true" v:viewMarkup="false"/>

	<style type="text/css">
	<![CDATA[
		.st1 {fill:#ffffff;stroke:none;stroke-linecap:butt;stroke-width:0.75}
		.st2 {fill:#515150;stroke:none;stroke-linecap:butt;stroke-width:0.75}
		.st3 {fill:none;fill-rule:evenodd;font-size:12px;overflow:visible;stroke-linecap:square;stroke-miterlimit:3}
	]]>
	</style>

	<g v:mID="0" v:index="1" v:groupContext="foregroundPage">
		<title>Page-1</title>
		<v:pageProperties v:drawingScale="0.0393701" v:pageScale="0.0393701" v:drawingUnits="24" v:shadowOffsetX="8.50394"
				v:shadowOffsetY="-8.50394"/>
		<g id="group1-1" transform="translate(0.75,-0.75)" v:mID="1" v:groupContext="group">
			<title>Subsite</title>
			<g id="group2-2" v:mID="2" v:groupContext="group">
				<title>Sheet.2</title>
				<g id="shape3-3" v:mID="3" v:groupContext="shape">
					<title>Sheet.3</title>
					<path d="M5.25 46.5 C2.32 46.5 0 44.17 0 41.25 L0 6.75 C0 3.83 2.32 1.5 5.25 1.5 L52.5 1.5 C55.42 1.5 57.75 3.83
								 57.75 6.75 L57.75 41.25 C57.75 44.17 55.42 46.5 52.5 46.5 L5.25 46.5 Z" class="st1"/>
				</g>
				<g id="group4-5" transform="translate(2.25,-2.25)" v:mID="4" v:groupContext="group">
					<title>Sheet.4</title>
					<g id="shape5-6" v:mID="5" v:groupContext="shape">
						<title>Sheet.5</title>
						<path d="M50.25 6 L3 6 C1.35 6 0 7.35 0 9 L0 43.5 C-0 45.15 1.35 46.5 3 46.5 L50.25 46.5 C51.9 46.5 53.25
									 45.15 53.25 43.5 L53.25 9 C53.25 7.35 51.9 6 50.25 6 ZM44.25 8.25 L46.5 8.25 L46.5 10.5 L44.25
									 10.5 L44.25 8.25 ZM39.75 8.25 L42 8.25 L42 10.5 L39.75 10.5 L39.75 8.25 ZM2.25 43.5 L2.25 13.5
									 L12.75 13.5 L12.75 44.25 L3 44.25 C2.55 44.25 2.25 43.95 2.25 43.5 ZM51 43.5 C51 43.95 50.7
									 44.25 50.25 44.25 L15 44.25 L15 13.5 L51 13.5 L51 43.5 ZM51 10.5 L48.75 10.5 L48.75 8.25 L51
									 8.25 L51 10.5 Z" class="st2"/>
					</g>
					<g id="shape6-8" v:mID="6" v:groupContext="shape" transform="translate(19.5,-6)">
						<title>Sheet.6</title>
						<path d="M0 46.5 L7.5 46.5 L7.5 40.5 L4.5 40.5 L4.5 36 L12.75 36 L12.75 40.5 L9.75 40.5 L9.75 46.5 L17.25
									 46.5 L17.25 40.5 L14.25 40.5 L14.25 36 L22.5 36 L22.5 40.5 L19.5 40.5 L19.5 46.5 L27 46.5 L27
									 40.5 L24 40.5 L24 34.5 L23.25 34.5 L22.5 34.5 L14.25 34.5 L14.25 30 L18 30 L18 23.25 L9 23.25
									 L9 30 L12.75 30 L12.75 34.5 L4.5 34.5 L3.75 34.5 L3 34.5 L3 40.5 L0 40.5 L0 46.5 Z"
								class="st2"/>
					</g>
				</g>
			</g>
		</g>
	</g>
</svg>
