<?xml version="1.0" encoding="UTF-8" standalone="no"?>
<!DOCTYPE svg PUBLIC "-//W3C//DTD SVG 1.1//EN" "http://www.w3.org/Graphics/SVG/1.1/DTD/svg11.dtd">
<!-- Generated by Microsoft Visio, SVG Export Subsite - ghosted.svg Page-1 -->
<svg xmlns="http://www.w3.org/2000/svg" xmlns:xlink="http://www.w3.org/1999/xlink" xmlns:ev="http://www.w3.org/2001/xml-events"
		xmlns:v="http://schemas.microsoft.com/visio/2003/SVGExtensions/" width="0.822917in" height="0.645833in"
		viewBox="0 0 59.25 46.5" xml:space="preserve" color-interpolation-filters="sRGB" class="st4">
	<v:documentProperties v:langID="4108" v:metric="true" v:viewMarkup="false"/>

	<style type="text/css">
	<![CDATA[
		.st1 {fill:#ffffff;stroke:none;stroke-linecap:butt;stroke-width:0.75}
		.st2 {fill:#9b9b9b;stroke:none;stroke-linecap:butt;stroke-width:0.75}
		.st3 {fill:#cccbcb;stroke:none;stroke-linecap:butt;stroke-width:0.75}
		.st4 {fill:none;fill-rule:evenodd;font-size:12px;overflow:visible;stroke-linecap:square;stroke-miterlimit:3}
	]]>
	</style>

	<g v:mID="0" v:index="1" v:groupContext="foregroundPage">
		<title>Page-1</title>
		<v:pageProperties v:drawingScale="0.0393701" v:pageScale="0.0393701" v:drawingUnits="24" v:shadowOffsetX="8.50394"
				v:shadowOffsetY="-8.50394"/>
		<g id="group25-1" transform="translate(0.75,-0.75)" v:mID="25" v:groupContext="group">
			<title>Subsite - ghosted</title>
			<g id="group26-2" v:mID="26" v:groupContext="group">
				<title>Sheet.26</title>
				<g id="group27-3" v:mID="27" v:groupContext="group">
					<title>Sheet.27</title>
					<g id="shape28-4" v:mID="28" v:groupContext="shape">
						<title>Sheet.28</title>
						<path d="M5.25 46.5 C2.32 46.5 0 44.17 0 41.25 L0 6.75 C0 3.83 2.32 1.5 5.25 1.5 L52.5 1.5 C55.42 1.5 57.75
									 3.83 57.75 6.75 L57.75 41.25 C57.75 44.17 55.42 46.5 52.5 46.5 L5.25 46.5 Z" class="st1"/>
					</g>
					<g id="group29-6" transform="translate(2.25,-2.25)" v:mID="29" v:groupContext="group">
						<title>Sheet.29</title>
						<g id="shape30-7" v:mID="30" v:groupContext="shape">
							<title>Sheet.30</title>
							<path d="M50.25 6 L3 6 C1.35 6 0 7.35 0 9 L0 43.5 C-0 45.15 1.35 46.5 3 46.5 L50.25 46.5 C51.9 46.5 53.25
										 45.15 53.25 43.5 L53.25 9 C53.25 7.35 51.9 6 50.25 6 ZM44.25 8.25 L46.5 8.25 L46.5 10.5
										 L44.25 10.5 L44.25 8.25 ZM39.75 8.25 L42 8.25 L42 10.5 L39.75 10.5 L39.75 8.25 ZM2.25 43.5
										 L2.25 13.5 L12.75 13.5 L12.75 44.25 L3 44.25 C2.55 44.25 2.25 43.95 2.25 43.5 ZM51 43.5
										 C51 43.95 50.7 44.25 50.25 44.25 L15 44.25 L15 13.5 L51 13.5 L51 43.5 ZM51 10.5 L48.75 10.5
										 L48.75 8.25 L51 8.25 L51 10.5 Z" class="st2"/>
						</g>
						<g id="shape31-9" v:mID="31" v:groupContext="shape" transform="translate(19.5,-6)">
							<title>Sheet.31</title>
							<path d="M3 34.5 L3 40.5 L0 40.5 L0 46.5 L7.5 46.5 L7.5 40.5 L4.5 40.5 L4.5 36 L12.75 36 L12.75 40.5
										 L9.75 40.5 L9.75 46.5 L17.25 46.5 L17.25 40.5 L14.25 40.5 L14.25 36 L22.5 36 L22.5 40.5
										 L19.5 40.5 L19.5 46.5 L27 46.5 L27 40.5 L24 40.5 L24 34.5 L14.25 34.5 L14.25 30 L18 30 L18
										 23.25 L9 23.25 L9 30 L12.75 30 L12.75 34.5 L3 34.5 Z" class="st2"/>
						</g>
					</g>
				</g>
				<g id="group32-11" transform="translate(2.25,-2.25)" v:mID="32" v:groupContext="group">
					<title>Sheet.32</title>
					<g id="shape33-12" v:mID="33" v:groupContext="shape" transform="translate(-1.22402E-14,-36.525)">
						<title>Sheet.33</title>
						<path d="M0 45.52 L0 46.5 L3.9 42.53 L3 42.53 C2.32 42.53 1.65 42.75 1.2 43.2 L0.6 43.8 C0.22 44.25 0 44.85
									 0 45.52 Z" class="st3"/>
					</g>
					<g id="shape34-14" v:mID="34" v:groupContext="shape" transform="translate(3.4972E-15,-32.025)">
						<title>Sheet.34</title>
						<path d="M8.4 38.02 L6.23 38.02 L0 44.32 L0 46.5 L8.4 38.02 Z" class="st3"/>
					</g>
					<g id="shape35-16" v:mID="35" v:groupContext="shape" transform="translate(3.3,-33)">
						<title>Sheet.35</title>
						<path d="M0 46.5 L2.1 46.5 L9.52 39 L7.42 39 L0 46.5 Z" class="st3"/>
					</g>
					<g id="shape36-18" v:mID="36" v:groupContext="shape" transform="translate(-1.72362E-14,-27.525)">
						<title>Sheet.36</title>
						<path d="M2.25 42.07 L0 44.4 L0 46.5 L2.25 44.25 L2.25 42.07 Z" class="st3"/>
					</g>
					<g id="shape37-20" v:mID="37" v:groupContext="shape" transform="translate(-1.72362E-14,-23.025)">
						<title>Sheet.37</title>
						<path d="M2.25 44.25 L2.25 42.07 L0 44.4 L0 46.5 L2.25 44.25 Z" class="st3"/>
					</g>
					<g id="shape38-22" v:mID="38" v:groupContext="shape" transform="translate(7.8,-33)">
						<title>Sheet.38</title>
						<path d="M2.1 46.5 L9.52 39 L7.42 39 L0 46.5 L2.1 46.5 Z" class="st3"/>
					</g>
					<g id="shape39-24" v:mID="39" v:groupContext="shape" transform="translate(12.3,-31.35)">
						<title>Sheet.39</title>
						<path d="M0 44.85 L0.45 44.85 L0.45 46.5 L9.52 37.35 L7.42 37.35 L0 44.85 Z" class="st3"/>
					</g>
					<g id="shape40-26" v:mID="40" v:groupContext="shape" transform="translate(-1.72362E-14,-18.525)">
						<title>Sheet.40</title>
						<path d="M2.25 42.15 L0 44.4 L0 46.5 L2.25 44.25 L2.25 42.15 Z" class="st3"/>
					</g>
					<g id="shape41-28" v:mID="41" v:groupContext="shape" transform="translate(12.75,-26.85)">
						<title>Sheet.41</title>
						<path d="M0 46.5 L2.25 44.25 L2.25 42.07 L0 44.32 L0 46.5 Z" class="st3"/>
					</g>
					<g id="shape42-30" v:mID="42" v:groupContext="shape" transform="translate(-1.72362E-14,-14.025)">
						<title>Sheet.42</title>
						<path d="M2.25 44.25 L2.25 42.15 L0 44.4 L0 46.5 L2.25 44.25 Z" class="st3"/>
					</g>
					<g id="shape43-32" v:mID="43" v:groupContext="shape" transform="translate(16.725,-33)">
						<title>Sheet.43</title>
						<path d="M2.1 46.5 L9.52 39 L7.42 39 L0 46.5 L2.1 46.5 Z" class="st3"/>
					</g>
					<g id="shape44-34" v:mID="44" v:groupContext="shape" transform="translate(21.225,-33)">
						<title>Sheet.44</title>
						<path d="M0 46.5 L2.1 46.5 L9.6 39 L7.43 39 L0 46.5 Z" class="st3"/>
					</g>
					<g id="shape45-36" v:mID="45" v:groupContext="shape" transform="translate(12.75,-22.35)">
						<title>Sheet.45</title>
						<path d="M2.25 44.25 L2.25 42.15 L0 44.4 L0 46.5 L2.25 44.25 Z" class="st3"/>
					</g>
					<g id="shape46-38" v:mID="46" v:groupContext="shape" transform="translate(-1.72362E-14,-9.525)">
						<title>Sheet.46</title>
						<path d="M0 46.5 L2.25 44.25 L2.25 42.15 L0 44.4 L0 46.5 Z" class="st3"/>
					</g>
					<g id="shape47-40" v:mID="47" v:groupContext="shape" transform="translate(25.725,-33)">
						<title>Sheet.47</title>
						<path d="M0 46.5 L2.1 46.5 L9.6 39 L7.43 39 L0 46.5 Z" class="st3"/>
					</g>
					<g id="shape48-42" v:mID="48" v:groupContext="shape" transform="translate(12.75,-17.85)">
						<title>Sheet.48</title>
						<path d="M2.25 42.15 L0 44.4 L0 46.5 L2.25 44.25 L2.25 42.15 Z" class="st3"/>
					</g>
					<g id="shape49-44" v:mID="49" v:groupContext="shape" transform="translate(-1.72362E-14,-5.025)">
						<title>Sheet.49</title>
						<path d="M2.25 42.15 L0 44.4 L0 46.5 L2.25 44.25 L2.25 42.15 Z" class="st3"/>
					</g>
					<g id="shape50-46" v:mID="50" v:groupContext="shape" transform="translate(30.225,-33)">
						<title>Sheet.50</title>
						<path d="M2.1 46.5 L9.52 39 L7.42 39 L0 46.5 L2.1 46.5 Z" class="st3"/>
					</g>
					<g id="shape51-48" v:mID="51" v:groupContext="shape" transform="translate(12.75,-13.35)">
						<title>Sheet.51</title>
						<path d="M2.25 44.25 L2.25 42.15 L0 44.4 L0 46.5 L2.25 44.25 Z" class="st3"/>
					</g>
					<g id="shape52-50" v:mID="52" v:groupContext="shape" transform="translate(-1.72362E-14,-1.125)">
						<title>Sheet.52</title>
						<path d="M2.25 44.85 C2.25 44.77 2.25 44.7 2.25 44.62 L2.25 42.75 L0 45 C0.07 45.6 0.3 46.05 0.6 46.5 L2.25
									 44.85 Z" class="st3"/>
					</g>
					<g id="shape53-52" v:mID="53" v:groupContext="shape" transform="translate(28.5,-29.175)">
						<title>Sheet.53</title>
						<path d="M0 46.5 L0.07 46.42 L0 46.42 L0 46.5 Z" class="st3"/>
					</g>
					<g id="shape54-54" v:mID="54" v:groupContext="shape" transform="translate(12.75,-8.775)">
						<title>Sheet.54</title>
						<path d="M0 46.5 L2.25 44.17 L2.25 42.07 L0 44.32 L0 46.5 Z" class="st3"/>
					</g>
					<g id="shape55-56" v:mID="55" v:groupContext="shape" transform="translate(34.725,-33)">
						<title>Sheet.55</title>
						<path d="M5.02 41.4 L0 46.5 L2.1 46.5 L5.1 43.5 L5.02 43.5 L5.02 41.4 Z" class="st3"/>
					</g>
					<g id="shape56-58" v:mID="56" v:groupContext="shape" transform="translate(39.9,-38.175)">
						<title>Sheet.56</title>
						<path d="M0 46.42 L2.1 46.42 L2.1 46.5 L4.35 44.18 L2.25 44.18 L0 46.42 Z" class="st3"/>
					</g>
					<g id="shape57-60" v:mID="57" v:groupContext="shape" transform="translate(2.025,0)">
						<title>Sheet.57</title>
						<path d="M0.98 46.5 L1.95 46.5 L4.2 44.25 L2.1 44.25 L0 46.35 C0.3 46.42 0.68 46.5 0.98 46.5 Z" class="st3"/>
					</g>
					<g id="shape58-62" v:mID="58" v:groupContext="shape" transform="translate(28.5,-24.675)">
						<title>Sheet.58</title>
						<path d="M2.48 41.93 L0 44.4 L0 46.5 L4.58 41.93 L2.48 41.93 Z" class="st3"/>
					</g>
					<g id="shape59-64" v:mID="59" v:groupContext="shape" transform="translate(28.725,-22.5)">
						<title>Sheet.59</title>
						<path d="M2.1 46.5 L8.78 39.82 L8.78 39.75 L6.75 39.75 L0 46.5 L2.1 46.5 Z" class="st3"/>
					</g>
					<g id="shape60-66" v:mID="60" v:groupContext="shape" transform="translate(22.5,-14.1)">
						<title>Sheet.60</title>
						<path d="M1.72 42.6 L0 44.4 L0 46.5 L1.5 45 L1.5 44.1 L2.4 44.1 L3.9 42.6 L1.72 42.6 Z" class="st3"/>
					</g>
					<g id="shape61-68" v:mID="61" v:groupContext="shape" transform="translate(12.75,-4.275)">
						<title>Sheet.61</title>
						<path d="M2.25 42.07 L0 44.32 L0 46.5 L2.25 44.17 L2.25 42.07 Z" class="st3"/>
					</g>
					<g id="shape62-70" v:mID="62" v:groupContext="shape" transform="translate(19.5,-11.1)">
						<title>Sheet.62</title>
						<path d="M0 45.6 L0 46.5 L0.9 45.6 L0 45.6 Z" class="st3"/>
					</g>
					<g id="shape63-72" v:mID="63" v:groupContext="shape" transform="translate(39.15,-33)">
						<title>Sheet.63</title>
						<path d="M0 46.5 L2.17 46.5 L5.1 43.5 L5.1 41.4 L0 46.5 Z" class="st3"/>
					</g>
					<g id="shape64-74" v:mID="64" v:groupContext="shape" transform="translate(44.4,-38.25)">
						<title>Sheet.64</title>
						<path d="M2.1 46.5 L4.35 44.25 L2.25 44.25 L0 46.5 L2.1 46.5 Z" class="st3"/>
					</g>
					<g id="shape65-76" v:mID="65" v:groupContext="shape" transform="translate(6.375,0)">
						<title>Sheet.65</title>
						<path d="M2.25 44.25 L0 46.5 L2.1 46.5 L4.35 44.25 L2.25 44.25 Z" class="st3"/>
					</g>
					<g id="shape66-78" v:mID="66" v:groupContext="shape" transform="translate(48.9,-38.25)">
						<title>Sheet.66</title>
						<path d="M2.1 44.32 L0 46.5 L2.1 46.5 L3.45 45.15 C3.07 44.77 2.62 44.47 2.1 44.32 Z" class="st3"/>
					</g>
					<g id="shape67-80" v:mID="67" v:groupContext="shape" transform="translate(32.25,-19.425)">
						<title>Sheet.67</title>
						<path d="M0 44.4 L0 46.5 L1.5 45 L1.5 43.43 L3.08 43.43 L5.25 41.25 L5.25 39.08 L0 44.4 Z" class="st3"/>
					</g>
					<g id="shape68-82" v:mID="68" v:groupContext="shape" transform="translate(43.65,-33)">
						<title>Sheet.68</title>
						<path d="M5.1 43.5 L5.1 41.4 L0 46.5 L2.1 46.5 L5.1 43.5 Z" class="st3"/>
					</g>
					<g id="shape69-84" v:mID="69" v:groupContext="shape" transform="translate(19.5,-6.6)">
						<title>Sheet.69</title>
						<path d="M5.4 41.1 L4.5 41.1 L4.5 39.83 L0 44.4 L0 46.5 L5.4 41.1 Z" class="st3"/>
					</g>
					<g id="shape70-86" v:mID="70" v:groupContext="shape" transform="translate(10.8,0)">
						<title>Sheet.70</title>
						<path d="M4.35 44.25 L4.2 44.25 L4.2 42.3 L0 46.5 L2.17 46.5 L4.35 44.25 Z" class="st3"/>
					</g>
					<g id="shape71-88" v:mID="71" v:groupContext="shape" transform="translate(27.225,-16.5)">
						<title>Sheet.71</title>
						<path d="M3.6 45 L1.5 45 L0 46.5 L2.1 46.5 L3.6 45 Z" class="st3"/>
					</g>
					<g id="shape72-90" v:mID="72" v:groupContext="shape" transform="translate(15.6,0)">
						<title>Sheet.72</title>
						<path d="M2.25 44.25 L0 46.5 L2.1 46.5 L4.35 44.25 L2.25 44.25 Z" class="st3"/>
					</g>
					<g id="shape73-92" v:mID="73" v:groupContext="shape" transform="translate(21.525,-6)">
						<title>Sheet.73</title>
						<path d="M5.47 40.95 L0 46.5 L2.1 46.5 L5.47 43.12 L5.47 40.95 Z" class="st3"/>
					</g>
					<g id="shape74-94" v:mID="74" v:groupContext="shape" transform="translate(31.875,-14.7)">
						<title>Sheet.74</title>
						<path d="M1.87 42.82 L0 44.7 L0.37 44.7 L0.37 46.5 L1.87 45 L1.87 44.7 L2.17 44.7 L3.6 43.2 L1.87 43.2 L1.87
									 42.82 Z" class="st3"/>
					</g>
					<g id="shape75-96" v:mID="75" v:groupContext="shape" transform="translate(48.225,-33)">
						<title>Sheet.75</title>
						<path d="M4.95 41.48 L0 46.5 L2.1 46.5 L5.03 43.5 L5.03 42 C5.03 41.78 5.03 41.63 4.95 41.48 Z" class="st3"/>
					</g>
					<g id="shape76-98" v:mID="76" v:groupContext="shape" transform="translate(29.25,-11.7)">
						<title>Sheet.76</title>
						<path d="M0.3 46.2 L0 46.2 L0 46.5 L0.3 46.2 Z" class="st3"/>
					</g>
					<g id="shape77-100" v:mID="77" v:groupContext="shape" transform="translate(29.25,-7.2)">
						<title>Sheet.77</title>
						<path d="M4.5 41.7 L4.5 39.83 L3 41.33 L3 41.7 L2.63 41.7 L0 44.4 L0 46.5 L4.8 41.7 L4.5 41.7 Z"
								class="st3"/>
					</g>
					<g id="shape78-102" v:mID="78" v:groupContext="shape" transform="translate(51,-29.175)">
						<title>Sheet.78</title>
						<path d="M2.25 44.17 L2.25 42.07 L0 44.32 L0 46.5 L2.25 44.17 Z" class="st3"/>
					</g>
					<g id="shape79-104" v:mID="79" v:groupContext="shape" transform="translate(20.025,0)">
						<title>Sheet.79</title>
						<path d="M4.35 44.25 L2.25 44.25 L0 46.5 L2.1 46.5 L4.35 44.25 Z" class="st3"/>
					</g>
					<g id="shape80-106" v:mID="80" v:groupContext="shape" transform="translate(25.95,-6)">
						<title>Sheet.80</title>
						<path d="M1.05 45.45 L0 46.5 L1.05 46.5 L1.05 45.45 Z" class="st3"/>
					</g>
					<g id="shape81-108" v:mID="81" v:groupContext="shape" transform="translate(36.375,-16.5)">
						<title>Sheet.81</title>
						<path d="M2.1 46.5 L3.6 45 L1.42 45 L0 46.5 L2.1 46.5 Z" class="st3"/>
					</g>
					<g id="shape82-110" v:mID="82" v:groupContext="shape" transform="translate(30.45,-6)">
						<title>Sheet.82</title>
						<path d="M6.3 42.3 L6.3 40.5 L5.93 40.5 L0 46.5 L2.1 46.5 L6.3 42.3 Z" class="st3"/>
					</g>
					<g id="shape83-112" v:mID="83" v:groupContext="shape" transform="translate(51,-24.675)">
						<title>Sheet.83</title>
						<path d="M0 44.32 L0 46.5 L2.25 44.25 L2.25 42.07 L0 44.32 Z" class="st3"/>
					</g>
					<g id="shape84-114" v:mID="84" v:groupContext="shape" transform="translate(24.525,0)">
						<title>Sheet.84</title>
						<path d="M4.35 44.25 L2.25 44.25 L0 46.5 L2.1 46.5 L4.35 44.25 Z" class="st3"/>
					</g>
					<g id="shape85-116" v:mID="85" v:groupContext="shape" transform="translate(40.8,-15.525)">
						<title>Sheet.85</title>
						<path d="M1.2 45.52 L1.2 46.5 L2.7 44.92 L2.7 44.03 L1.5 44.03 L0 45.52 L1.2 45.52 Z" class="st3"/>
					</g>
					<g id="shape86-118" v:mID="86" v:groupContext="shape" transform="translate(29.025,0)">
						<title>Sheet.86</title>
						<path d="M4.35 44.25 L2.25 44.25 L0 46.5 L2.17 46.5 L4.35 44.25 Z" class="st3"/>
					</g>
					<g id="shape87-120" v:mID="87" v:groupContext="shape" transform="translate(51,-20.175)">
						<title>Sheet.87</title>
						<path d="M0 44.4 L0 46.5 L2.25 44.25 L2.25 42.07 L0 44.4 Z" class="st3"/>
					</g>
					<g id="shape88-122" v:mID="88" v:groupContext="shape" transform="translate(39,-7.95)">
						<title>Sheet.88</title>
						<path d="M4.5 39.75 L3 41.32 L3 42.45 L1.87 42.45 L0 44.32 L0 46.5 L4.5 41.92 L4.5 39.75 Z" class="st3"/>
					</g>
					<g id="shape89-124" v:mID="89" v:groupContext="shape" transform="translate(34.95,-6)">
						<title>Sheet.89</title>
						<path d="M1.8 44.7 L0 46.5 L1.8 46.5 L1.8 44.7 Z" class="st3"/>
					</g>
					<g id="shape90-126" v:mID="90" v:groupContext="shape" transform="translate(39.45,-6)">
						<title>Sheet.90</title>
						<path d="M7.05 40.5 L5.92 40.5 L0 46.5 L2.1 46.5 L7.05 41.47 L7.05 40.5 Z" class="st3"/>
					</g>
					<g id="shape91-128" v:mID="91" v:groupContext="shape" transform="translate(51,-15.6)">
						<title>Sheet.91</title>
						<path d="M0 44.32 L0 46.5 L2.25 44.17 L2.25 42.07 L0 44.32 Z" class="st3"/>
					</g>
					<g id="shape92-130" v:mID="92" v:groupContext="shape" transform="translate(33.6,0)">
						<title>Sheet.92</title>
						<path d="M2.17 44.25 L0 46.5 L2.1 46.5 L4.27 44.25 L2.17 44.25 Z" class="st3"/>
					</g>
					<g id="shape93-132" v:mID="93" v:groupContext="shape" transform="translate(37.95,0)">
						<title>Sheet.93</title>
						<path d="M4.35 44.25 L2.25 44.25 L0 46.5 L2.1 46.5 L4.35 44.25 Z" class="st3"/>
					</g>
					<g id="shape94-134" v:mID="94" v:groupContext="shape" transform="translate(51,-11.1)">
						<title>Sheet.94</title>
						<path d="M0 46.5 L2.25 44.17 L2.25 42.07 L0 44.32 L0 46.5 Z" class="st3"/>
					</g>
					<g id="shape95-136" v:mID="95" v:groupContext="shape" transform="translate(43.875,-6)">
						<title>Sheet.95</title>
						<path d="M2.62 45.97 L2.62 43.8 L0 46.5 L2.1 46.5 L2.62 45.97 Z" class="st3"/>
					</g>
					<g id="shape96-138" v:mID="96" v:groupContext="shape" transform="translate(42.45,0)">
						<title>Sheet.96</title>
						<path d="M2.25 44.25 L0 46.5 L2.1 46.5 L4.35 44.25 L2.25 44.25 Z" class="st3"/>
					</g>
					<g id="shape97-140" v:mID="97" v:groupContext="shape" transform="translate(51,-6.6)">
						<title>Sheet.97</title>
						<path d="M2.25 42.07 L0 44.4 L0 46.5 L2.25 44.25 L2.25 42.07 Z" class="st3"/>
					</g>
					<g id="shape98-142" v:mID="98" v:groupContext="shape" transform="translate(46.875,-1.42109E-14)">
						<title>Sheet.98</title>
						<path d="M6.37 42.15 L6.37 39.98 L4.12 42.3 L4.12 43.5 C4.12 43.95 3.82 44.25 3.37 44.25 L2.17 44.25 L0 46.5
									 L2.1 46.5 L6.37 42.15 Z" class="st3"/>
					</g>
					<g id="shape99-144" v:mID="99" v:groupContext="shape" transform="translate(51.75,-0.375)">
						<title>Sheet.99</title>
						<path d="M1.12 45.3 L0 46.5 C0.45 46.2 0.9 45.75 1.12 45.3 Z" class="st3"/>
					</g>
				</g>
			</g>
		</g>
	</g>
</svg>
