<?xml version="1.0" encoding="UTF-8" standalone="no"?>
<!DOCTYPE svg PUBLIC "-//W3C//DTD SVG 1.1//EN" "http://www.w3.org/Graphics/SVG/1.1/DTD/svg11.dtd">
<!-- Generated by Microsoft Visio, SVG Export Upgrade Site.svg Page-1 -->
<svg xmlns="http://www.w3.org/2000/svg" xmlns:xlink="http://www.w3.org/1999/xlink" xmlns:ev="http://www.w3.org/2001/xml-events"
		xmlns:v="http://schemas.microsoft.com/visio/2003/SVGExtensions/" width="0.90625in" height="0.758333in"
		viewBox="0 0 65.25 54.6" xml:space="preserve" color-interpolation-filters="sRGB" class="st3">
	<v:documentProperties v:langID="4108" v:metric="true" v:viewMarkup="false"/>

	<style type="text/css">
	<![CDATA[
		.st1 {fill:#ffffff;stroke:none;stroke-linecap:butt;stroke-width:0.75}
		.st2 {fill:#515150;stroke:none;stroke-linecap:butt;stroke-width:0.75}
		.st3 {fill:none;fill-rule:evenodd;font-size:12px;overflow:visible;stroke-linecap:square;stroke-miterlimit:3}
	]]>
	</style>

	<g v:mID="0" v:index="1" v:groupContext="foregroundPage">
		<title>Page-1</title>
		<v:pageProperties v:drawingScale="0.0393701" v:pageScale="0.0393701" v:drawingUnits="24" v:shadowOffsetX="8.50394"
				v:shadowOffsetY="-8.50394"/>
		<g id="group260-1" transform="translate(0.75,-0.75)" v:mID="260" v:groupContext="group">
			<title>Upgrade Site</title>
			<g id="group261-2" transform="translate(7.99361E-14,-8.1)" v:mID="261" v:groupContext="group">
				<title>Sheet.261</title>
				<g id="group262-3" v:mID="262" v:groupContext="group">
					<title>Sheet.262</title>
					<g id="shape263-4" v:mID="263" v:groupContext="shape">
						<title>Sheet.263</title>
						<path d="M5.25 54.6 C2.33 54.6 0 52.27 0 49.35 L0 14.85 C0 11.92 2.33 9.6 5.25 9.6 L50.25 9.6 C53.18 9.6
									 55.5 11.92 55.5 14.85 L55.5 49.35 C55.5 52.27 53.18 54.6 50.25 54.6 L5.25 54.6 Z" class="st1"/>
					</g>
					<g id="shape264-6" v:mID="264" v:groupContext="shape" transform="translate(2.25,-2.25)">
						<title>Sheet.264</title>
						<path d="M48 14.1 L3 14.1 C1.35 14.1 0 15.45 0 17.1 L0 51.6 C0 53.25 1.35 54.6 3 54.6 L48 54.6 C49.65 54.6
									 51 53.25 51 51.6 L51 17.1 C51 15.45 49.65 14.1 48 14.1 ZM42 16.35 L44.25 16.35 L44.25 18.6 L42
									 18.6 L42 16.35 ZM37.5 16.35 L39.75 16.35 L39.75 18.6 L37.5 18.6 L37.5 16.35 ZM48.75 51.6 C48.75
									 52.05 48.45 52.35 48 52.35 L3 52.35 C2.55 52.35 2.25 52.05 2.25 51.6 L2.25 21.6 L48.75 21.6
									 L48.75 51.6 ZM48.75 18.6 L46.5 18.6 L46.5 16.35 L48.75 16.35 L48.75 18.6 Z" class="st2"/>
					</g>
				</g>
				<g id="group265-8" transform="translate(12,-8.25)" v:mID="265" v:groupContext="group">
					<title>Sheet.265</title>
					<g id="group266-9" v:mID="266" v:groupContext="group">
						<title>Sheet.266</title>
						<g id="shape267-10" v:mID="267" v:groupContext="shape" transform="translate(10.5,-16.5)">
							<title>Sheet.267</title>
							<rect x="0" y="47.85" width="10.5" height="6.75" class="st2"/>
						</g>
						<g id="shape268-12" v:mID="268" v:groupContext="shape" transform="translate(11.25,-9.23706E-14)">
							<title>Sheet.268</title>
							<rect x="0" y="48.6" width="9" height="6" class="st2"/>
						</g>
						<g id="shape269-14" v:mID="269" v:groupContext="shape" transform="translate(22.5,-9.23706E-14)">
							<title>Sheet.269</title>
							<rect x="0" y="48.6" width="9" height="6" class="st2"/>
						</g>
						<g id="shape270-16" v:mID="270" v:groupContext="shape">
							<title>Sheet.270</title>
							<rect x="0" y="48.6" width="9" height="6" class="st2"/>
						</g>
						<g id="shape271-18" v:mID="271" v:groupContext="shape" transform="translate(15,-6)">
							<title>Sheet.271</title>
							<rect x="0" y="43.35" width="1.5" height="11.25" class="st2"/>
						</g>
						<g id="shape272-20" v:mID="272" v:groupContext="shape" transform="translate(4.5,-10.5)">
							<title>Sheet.272</title>
							<rect x="0" y="53.1" width="22.5" height="1.5" class="st2"/>
						</g>
					</g>
					<g id="shape273-22" v:mID="273" v:groupContext="shape" transform="translate(3.75,-5.25)">
						<title>Sheet.273</title>
						<rect x="0" y="47.85" width="1.5" height="6.75" class="st2"/>
					</g>
					<g id="shape274-24" v:mID="274" v:groupContext="shape" transform="translate(26.25,-5.25)">
						<title>Sheet.274</title>
						<rect x="0" y="47.85" width="1.5" height="6.75" class="st2"/>
					</g>
				</g>
			</g>
			<g id="group275-26" transform="translate(42.75,-2.20268E-13)" v:mID="275" v:groupContext="group">
				<title>Sheet.275</title>
				<g id="shape276-27" v:mID="276" v:groupContext="shape">
					<title>Sheet.276</title>
					<path d="M0 30.75 L0 39.75 L2.85 39.75 L6 36.9 L6 40.87 C6 42.6 4.05 44.47 1.65 45.22 L0 45.6 L0 54.6 L2.7 54.07
								 C9.68 52.8 15 47.1 15 40.8 L15 36.82 L18.15 39.9 L21 39.9 L21 30.75 L10.42 20.25 L0 30.75 Z"
							class="st1"/>
				</g>
				<g id="shape277-29" v:mID="277" v:groupContext="shape" transform="translate(2.25,-2.55)">
					<title>Sheet.277</title>
					<path d="M0 34.27 L0 39.9 L6 34.12 L6 43.42 C6 46.27 3.37 48.97 0 49.95 L0 54.6 C5.85 53.47 10.5 48.75 10.5 43.5
								 L10.5 34.12 L16.5 39.97 L16.5 34.35 L8.17 26.1 L0 34.27 Z" class="st2"/>
				</g>
			</g>
		</g>
	</g>
</svg>
