<?xml version="1.0" encoding="UTF-8" standalone="no"?>
<!DOCTYPE svg PUBLIC "-//W3C//DTD SVG 1.1//EN" "http://www.w3.org/Graphics/SVG/1.1/DTD/svg11.dtd">
<!-- Generated by Microsoft Visio, SVG Export Visio Services.svg Page-1 -->
<svg xmlns="http://www.w3.org/2000/svg" xmlns:xlink="http://www.w3.org/1999/xlink" xmlns:ev="http://www.w3.org/2001/xml-events"
		xmlns:v="http://schemas.microsoft.com/visio/2003/SVGExtensions/" width="0.915625in" height="0.760058in"
		viewBox="0 0 65.925 54.7242" xml:space="preserve" color-interpolation-filters="sRGB" class="st4">
	<v:documentProperties v:langID="4108" v:metric="true" v:viewMarkup="false"/>

	<style type="text/css">
	<![CDATA[
		.st1 {fill:#ffffff;stroke:none;stroke-linecap:butt;stroke-width:0.75}
		.st2 {fill:#535352;stroke:none;stroke-linecap:butt;stroke-width:0.75}
		.st3 {fill:#4c69b1;stroke:none;stroke-linecap:butt;stroke-width:0.75}
		.st4 {fill:none;fill-rule:evenodd;font-size:12px;overflow:visible;stroke-linecap:square;stroke-miterlimit:3}
	]]>
	</style>

	<g v:mID="0" v:index="1" v:groupContext="foregroundPage">
		<title>Page-1</title>
		<v:pageProperties v:drawingScale="0.0393701" v:pageScale="0.0393701" v:drawingUnits="24" v:shadowOffsetX="8.50394"
				v:shadowOffsetY="-8.50394"/>
		<g id="group355-1" transform="translate(0.75,-0.7242)" v:mID="355" v:groupContext="group">
			<title>Visio Services</title>
			<g id="shape356-2" v:mID="356" v:groupContext="shape">
				<title>Sheet.356</title>
				<path d="M50.48 27.87 L46.8 27.05 C46.8 26.97 46.8 26.82 46.8 26.82 L46.28 23.52 C46.28 23.52 46.2 23.37 46.2 23.3
							 L49.35 21.35 C50.18 20.82 50.7 20.07 50.93 19.17 C51.15 18.27 51 17.37 50.48 16.55 L47.85 12.27 C47.1
							 11 45.75 10.4 44.33 10.62 C43.88 10.7 43.43 10.85 43.05 11.07 L39.9 13.02 C39.9 12.95 39.75 12.87 39.75
							 12.87 L37.05 10.92 C37.05 10.92 36.98 10.85 36.9 10.85 L37.73 7.17 C37.95 6.27 37.8 5.37 37.28 4.55
							 C36.75 3.72 36 3.2 35.1 2.97 L30.23 1.85 C29.78 1.7 29.33 1.7 28.88 1.77 C27.45 2 26.32 3.05 26.03 4.4
							 L25.2 8 C25.13 8 25.13 8 25.13 8 C25.05 8 24.3 8.07 23.25 8.22 C22.2 8.37 21.53 8.6 21.45 8.6 C21.38
							 8.6 21.38 8.6 21.38 8.6 L19.43 5.45 C18.68 4.17 17.33 3.57 15.9 3.8 C15.45 3.87 15 4.02 14.63 4.25 L10.35
							 6.87 C9.52 7.4 9 8.15 8.77 9.05 C8.55 9.95 8.7 10.85 9.23 11.67 L11.18 14.82 C11.1 14.82 11.03 14.97
							 11.03 14.97 L9.08 17.67 L9 17.82 L5.33 17 C4.87 16.85 4.43 16.85 3.98 16.92 C2.55 17.15 1.43 18.2 1.13
							 19.55 L0 24.42 L0.38 27.12 C0.9 27.95 1.65 28.47 2.55 28.7 L6.23 29.52 C6.23 29.6 6.23 29.75 6.23 29.75
							 L6.75 33.05 C6.75 33.05 6.83 33.2 6.83 33.27 L3.68 35.22 C2.93 35.67 2.33 36.5 2.1 37.4 C1.88 38.3 2.02
							 39.2 2.55 40.02 L5.18 44.3 C5.92 45.5 7.35 46.1 8.77 45.87 C9.23 45.8 9.67 45.65 10.05 45.42 L13.2 43.4
							 C13.2 43.47 13.35 43.55 13.35 43.55 L16.05 45.5 L16.2 45.57 L15.38 49.25 C15.15 50.15 15.3 51.05 15.83
							 51.87 C16.35 52.7 17.1 53.22 18 53.45 L22.88 54.57 C23.33 54.72 23.77 54.72 24.23 54.65 C25.65 54.42
							 26.78 53.37 27.08 52.02 L27.9 48.42 L27.98 48.42 C28.05 48.42 28.8 48.42 29.85 48.2 C30.9 48.05 31.58
							 47.82 31.65 47.82 C31.73 47.82 31.73 47.82 31.73 47.82 L33.68 50.97 C34.42 52.17 35.78 52.85 37.2 52.62
							 C37.65 52.55 38.1 52.32 38.48 52.25 L42.75 49.62 C43.58 49.1 44.1 48.35 44.33 47.45 C44.55 46.55 44.4
							 45.65 43.88 44.82 L41.93 41.67 C42 41.67 42.08 41.52 42.08 41.52 L44.03 38.82 C44.03 38.82 44.1 38.75
							 44.1 38.67 L47.78 39.5 C48.23 39.65 48.67 39.65 49.13 39.57 C50.55 39.35 51.68 38.3 51.98 36.95 L53.1
							 32.07 C53.55 30.2 52.35 28.32 50.48 27.87 ZM28.2 38.22 C22.65 39.12 17.33 35.37 16.43 29.75 C15.52 24.2
							 19.28 18.87 24.9 17.97 C30.52 17.07 35.78 20.9 36.68 26.45 C37.58 32 33.83 37.32 28.2 38.22 Z"
						class="st1"/>
			</g>
			<g id="shape357-4" v:mID="357" v:groupContext="shape" transform="translate(2.025,-2.1)">
				<title>Sheet.357</title>
				<path d="M47.92 31.85 L43.87 30.87 C43.2 30.72 42.68 30.5 42.67 30.35 C42.67 30.2 42.6 29.52 42.6 28.85 L42.07 25.77
							 C41.92 25.1 41.77 24.42 41.7 24.35 C41.62 24.2 42.07 23.82 42.67 23.45 L46.2 21.27 C46.8 20.9 46.95
							 20.15 46.57 19.55 L43.95 15.27 C43.57 14.67 42.82 14.52 42.22 14.9 L38.7 17.07 C38.1 17.45 37.57 17.67
							 37.42 17.52 C37.35 17.45 36.82 17 36.3 16.55 L33.75 14.67 C33.15 14.3 32.55 14 32.47 13.92 C32.32 13.85
							 32.4 13.25 32.55 12.57 L33.52 8.52 C33.68 7.85 33.3 7.17 32.62 7.02 L27.75 5.9 C27.07 5.75 26.4 6.12
							 26.25 6.8 L25.27 10.85 C25.12 11.52 24.9 12.05 24.75 12.05 C24.6 12.05 23.92 12.05 23.25 12.12 C23.25
							 12.12 22.57 12.12 21.67 12.27 C20.77 12.42 20.17 12.57 20.17 12.57 C19.5 12.8 18.9 12.95 18.75 13.02
							 C18.6 13.1 18.22 12.65 17.85 12.05 L15.52 8.52 C15.15 7.92 14.4 7.77 13.8 8.15 L9.52 10.77 C8.92 11.15
							 8.78 11.9 9.15 12.5 L11.32 16.02 C11.7 16.62 11.93 17.15 11.77 17.3 C11.7 17.37 11.25 17.9 10.8 18.42
							 L8.92 20.97 C8.55 21.57 8.25 22.17 8.17 22.25 C8.1 22.4 7.5 22.32 6.82 22.17 L2.85 21.27 C2.17 21.12
							 1.5 21.5 1.35 22.17 L0.15 27.05 C-0 27.72 0.37 28.4 1.05 28.55 L5.17 29.52 C5.85 29.67 6.37 29.9 6.37
							 30.05 C6.37 30.2 6.45 30.87 6.45 31.55 L6.97 34.7 C7.12 35.37 7.28 36.05 7.35 36.12 C7.42 36.27 6.98
							 36.65 6.37 37.02 L2.85 39.2 C2.25 39.57 2.1 40.32 2.47 40.92 L5.1 45.2 C5.47 45.8 6.22 45.95 6.82 45.57
							 L10.35 43.4 C10.95 43.02 11.47 42.8 11.62 42.95 C11.7 43.02 12.23 43.47 12.75 43.92 L15.3 45.8 C15.9
							 46.17 16.5 46.47 16.57 46.55 C16.72 46.62 16.65 47.22 16.5 47.9 L15.52 51.95 C15.37 52.62 15.75 53.3
							 16.42 53.45 L21.3 54.57 C21.97 54.72 22.65 54.35 22.8 53.67 L23.77 49.62 C23.92 48.95 24.15 48.42 24.3
							 48.42 C24.45 48.42 25.12 48.42 25.8 48.35 C25.8 48.35 26.47 48.35 27.37 48.2 C28.27 48.05 28.87 47.9
							 28.87 47.9 C29.55 47.67 30.15 47.52 30.3 47.45 C30.45 47.37 30.82 47.82 31.2 48.42 L33.37 51.95 C33.75
							 52.55 34.5 52.7 35.1 52.32 L39.37 49.7 C39.97 49.32 40.12 48.57 39.75 47.97 L37.57 44.45 C37.2 43.85
							 36.97 43.32 37.12 43.17 C37.2 43.1 37.65 42.57 38.1 42.05 L39.97 39.5 C40.35 38.9 40.65 38.3 40.72 38.22
							 C40.8 38.07 41.4 38.15 42.07 38.3 L46.12 39.27 C46.8 39.42 47.47 39.05 47.62 38.37 L48.75 33.5 C49.05
							 32.67 48.6 32 47.92 31.85 ZM26.55 42.57 C19.72 43.7 13.27 39.05 12.15 32.22 C11.02 25.4 15.68 18.95
							 22.5 17.82 C29.33 16.7 35.77 21.35 36.9 28.17 C38.03 35 33.37 41.45 26.55 42.57 Z" class="st2"/>
			</g>
			<g id="group358-6" transform="translate(34.425,-24.75)" v:mID="358" v:groupContext="group">
				<title>Sheet.358</title>
				<g id="shape359-7" v:mID="359" v:groupContext="shape">
					<title>Sheet.359</title>
					<path d="M26.25 28.47 L18.75 28.47 L18.75 26.22 L16.35 26.22 L0 28.77 L0 52.1 L16.35 54.72 L18.75 54.72 L18.75
								 52.47 L26.25 52.47 C28.35 52.47 30 50.82 30 48.72 L30 32.22 C30 30.12 28.35 28.47 26.25 28.47 Z"
							class="st1"/>
				</g>
				<g id="group360-9" transform="translate(10.5,-4.5)" v:mID="360" v:groupContext="group">
					<title>Sheet.360</title>
					<g id="shape361-10" v:mID="361" v:groupContext="shape" transform="translate(0.75,6.39488E-14)">
						<title>Sheet.361</title>
						<path d="M15 36.35 C15.22 36.35 15.37 36.5 15.37 36.72 L15.37 53.22 C15.37 53.45 15.22 53.6 15 53.6 L1.5
									 53.6 C1.27 53.6 1.12 53.45 1.12 53.22 L1.12 36.72 C1.12 36.5 1.27 36.35 1.5 36.35 L15 36.35
									 ZM15 35.22 L1.5 35.22 C0.67 35.22 0 35.9 0 36.72 L0 53.22 C0 54.05 0.67 54.72 1.5 54.72 L15
									 54.72 C15.82 54.72 16.5 54.05 16.5 53.22 L16.5 36.72 C16.5 35.9 15.82 35.22 15 35.22 Z"
								class="st3"/>
					</g>
					<g id="shape362-12" v:mID="362" v:groupContext="shape" transform="translate(7.875,-10.425)">
						<title>Sheet.362</title>
						<path d="M4.05 54.72 L4.27 54.5 L6.75 52.02 L6.9 51.87 L6.9 50.67 L6.75 50.52 L4.27 48.05 L4.12 47.9 L2.85
									 47.9 L2.7 48.05 L0.23 50.52 L0 50.75 L0 51.8 L0.23 52.02 L2.7 54.5 L2.92 54.72 L4.05 54.72 ZM3.52
									 53.75 L1.05 51.27 L3.52 48.8 L6 51.27 L3.52 53.75 Z" class="st3"/>
					</g>
					<g id="shape363-14" v:mID="363" v:groupContext="shape" transform="translate(-5.59552E-14,-2.25)">
						<title>Sheet.363</title>
						<path d="M7.87 49.1 L7.87 53.6 L1.12 53.6 L1.12 49.1 L7.87 49.1 ZM7.87 47.97 L1.12 47.97 C0.52 47.97 0 48.5
									 0 49.1 L0 53.6 C0 54.2 0.52 54.72 1.12 54.72 L7.87 54.72 C8.47 54.72 9 54.2 9 53.6 L9 49.1 C9
									 48.5 8.47 47.97 7.87 47.97 Z" class="st3"/>
					</g>
					<g id="shape364-16" v:mID="364" v:groupContext="shape" transform="translate(8.25,-5.25)">
						<title>Sheet.364</title>
						<path d="M2.55 48.87 L2.55 53.6 L0 53.6 L0 54.72 L2.55 54.72 C3.15 54.72 3.67 54.2 3.67 53.6 L3.67 48.87
									 L2.55 48.87 Z" class="st3"/>
					</g>
					<g id="shape365-18" v:mID="365" v:groupContext="shape" transform="translate(3.75,-13.35)">
						<title>Sheet.365</title>
						<rect x="0" y="53.5992" width="4.5" height="1.125" class="st3"/>
					</g>
				</g>
				<g id="shape366-20" v:mID="366" v:groupContext="shape" transform="translate(2.25,-2.25)">
					<title>Sheet.366</title>
					<path d="M14.25 30.72 L0 32.97 L0 52.47 L14.25 54.72 L14.25 30.72 Z" class="st3"/>
				</g>
				<g id="shape367-22" v:mID="367" v:groupContext="shape" transform="translate(5.325,-9)">
					<title>Sheet.367</title>
					<path d="M7.12 45.42 L4.5 54.72 L2.55 54.65 L0 45.27 L1.8 45.27 L3.37 51.8 C3.45 52.17 3.52 52.47 3.52 52.7 C3.52
								 52.4 3.6 52.1 3.67 51.72 L5.25 45.27 L7.12 45.42 Z" class="st1"/>
				</g>
			</g>
		</g>
	</g>
</svg>
