<?xml version="1.0" encoding="UTF-8" standalone="no"?>
<!DOCTYPE svg PUBLIC "-//W3C//DTD SVG 1.1//EN" "http://www.w3.org/Graphics/SVG/1.1/DTD/svg11.dtd">
<!-- Generated by Microsoft Visio, SVG Export Website.svg Page-1 -->
<svg xmlns="http://www.w3.org/2000/svg" xmlns:xlink="http://www.w3.org/1999/xlink" xmlns:ev="http://www.w3.org/2001/xml-events"
		xmlns:v="http://schemas.microsoft.com/visio/2003/SVGExtensions/" width="0.90625in" height="0.770833in"
		viewBox="0 0 65.25 55.5" xml:space="preserve" color-interpolation-filters="sRGB" class="st3">
	<v:documentProperties v:langID="4108" v:metric="true" v:viewMarkup="false"/>

	<style type="text/css">
	<![CDATA[
		.st1 {fill:#ffffff;stroke:none;stroke-linecap:butt;stroke-width:0.75}
		.st2 {fill:#505050;stroke:none;stroke-linecap:butt;stroke-width:0.75}
		.st3 {fill:none;fill-rule:evenodd;font-size:12px;overflow:visible;stroke-linecap:square;stroke-miterlimit:3}
	]]>
	</style>

	<g v:mID="0" v:index="1" v:groupContext="foregroundPage">
		<title>Page-1</title>
		<v:pageProperties v:drawingScale="0.0393701" v:pageScale="0.0393701" v:drawingUnits="24" v:shadowOffsetX="8.50394"
				v:shadowOffsetY="-8.50394"/>
		<g id="group185-1" transform="translate(0.75,-0.75)" v:mID="185" v:groupContext="group">
			<title>Website</title>
			<g id="group186-2" v:mID="186" v:groupContext="group">
				<title>Sheet.186</title>
				<g id="group187-3" transform="translate(7.99361E-14,-9)" v:mID="187" v:groupContext="group">
					<title>Sheet.187</title>
					<g id="group188-4" v:mID="188" v:groupContext="group">
						<title>Sheet.188</title>
						<g id="shape189-5" v:mID="189" v:groupContext="shape">
							<title>Sheet.189</title>
							<path d="M5.25 55.5 C2.33 55.5 0 53.17 0 50.25 L0 15.75 C0 12.82 2.33 10.5 5.25 10.5 L50.25 10.5 C53.18
										 10.5 55.5 12.82 55.5 15.75 L55.5 50.25 C55.5 53.17 53.18 55.5 50.25 55.5 L5.25 55.5 Z"
									class="st1"/>
						</g>
						<g id="shape190-7" v:mID="190" v:groupContext="shape" transform="translate(2.25,-2.25)">
							<title>Sheet.190</title>
							<path d="M48 15 L3 15 C1.35 15 0 16.35 0 18 L0 52.5 C0 54.15 1.35 55.5 3 55.5 L48 55.5 C49.65 55.5 51
										 54.15 51 52.5 L51 18 C51 16.35 49.65 15 48 15 ZM42 17.25 L44.25 17.25 L44.25 19.5 L42 19.5
										 L42 17.25 ZM37.5 17.25 L39.75 17.25 L39.75 19.5 L37.5 19.5 L37.5 17.25 ZM48.75 52.5 C48.75
										 52.95 48.45 53.25 48 53.25 L3 53.25 C2.55 53.25 2.25 52.95 2.25 52.5 L2.25 22.5 L48.75 22.5
										 L48.75 52.5 ZM48.75 19.5 L46.5 19.5 L46.5 17.25 L48.75 17.25 L48.75 19.5 Z" class="st2"/>
						</g>
					</g>
					<g id="group191-9" transform="translate(12,-8.25)" v:mID="191" v:groupContext="group">
						<title>Sheet.191</title>
						<g id="shape192-10" v:mID="192" v:groupContext="shape">
							<title>Sheet.192</title>
							<path d="M27 45 L27 43.5 L16.5 43.5 L16.5 39 L21 39 L21 32.25 L10.5 32.25 L10.5 39 L15 39 L15 43.5 L5.25
										 43.5 L4.5 43.5 L3.75 43.5 L3.75 49.5 L0 49.5 L0 55.5 L9 55.5 L9 49.5 L5.25 49.5 L5.25 45
										 L15 45 L15 49.5 L11.25 49.5 L11.25 55.5 L20.25 55.5 L20.25 49.5 L16.5 49.5 L16.5 45 L27
										 45 Z" class="st2"/>
						</g>
						<g id="shape193-12" v:mID="193" v:groupContext="shape" transform="translate(26.25,-5.25)">
							<title>Sheet.193</title>
							<rect x="0" y="48.75" width="1.5" height="6.75" class="st2"/>
						</g>
					</g>
				</g>
				<g id="group194-14" transform="translate(30.75,-2.41585E-13)" v:mID="194" v:groupContext="group">
					<title>Sheet.194</title>
					<g id="shape195-15" v:mID="195" v:groupContext="shape">
						<title>Sheet.195</title>
						<ellipse cx="16.5" cy="39" rx="16.5" ry="16.5" class="st1"/>
					</g>
					<g id="group196-17" transform="translate(2.325,-2.325)" v:mID="196" v:groupContext="group">
						<title>Sheet.196</title>
						<g id="shape197-18" v:mID="197" v:groupContext="shape" transform="translate(15.075,-14.625)">
							<title>Sheet.197</title>
							<path d="M5.63 48.3 C3.9 48.82 1.95 49.12 0 49.2 L0 55.5 C2.4 55.42 4.73 55.12 6.83 54.52 C6.6 52.27
										 6.23 50.17 5.63 48.3 Z" class="st2"/>
						</g>
						<g id="shape198-20" v:mID="198" v:groupContext="shape" transform="translate(4.725,-23.775)">
							<title>Sheet.198</title>
							<path d="M4.5 51.75 C2.85 52.35 1.35 53.32 0 54.45 C0.68 54.82 1.43 55.2 2.18 55.5 C2.85 54.07 3.6 52.8
										 4.5 51.75 Z" class="st2"/>
						</g>
						<g id="shape199-22" v:mID="199" v:groupContext="shape" transform="translate(8.4,-22.35)">
							<title>Sheet.199</title>
							<path d="M0 54.67 C1.58 55.12 3.3 55.42 5.1 55.5 L5.1 49.5 C4.87 49.5 4.72 49.5 4.5 49.5 C2.7 50.1 1.12
										 51.97 0 54.67 Z" class="st2"/>
						</g>
						<g id="shape200-24" v:mID="200" v:groupContext="shape" transform="translate(6.75,-14.625)">
							<title>Sheet.200</title>
							<path d="M0 54.52 C2.1 55.12 4.43 55.42 6.83 55.5 L6.83 49.2 C4.88 49.12 2.93 48.82 1.2 48.3 C0.45 50.17
										 0.08 52.27 0 54.52 Z" class="st2"/>
						</g>
						<g id="shape201-26" v:mID="201" v:groupContext="shape" transform="translate(22.65,-8.4)">
							<title>Sheet.201</title>
							<path d="M0.68 49.57 C0.68 51.67 0.45 53.7 0 55.5 C2.03 54.75 3.9 53.77 5.48 52.57 C5.7 51.6 5.78 50.62
										 5.78 49.65 C5.78 48.75 5.7 47.85 5.55 47.02 C4.13 48 2.48 48.75 0.6 49.35 C0.68 49.5 0.68
										 49.5 0.68 49.57 Z" class="st2"/>
						</g>
						<g id="shape202-28" v:mID="202" v:groupContext="shape" transform="translate(-1.18405E-13,-8.25)">
							<title>Sheet.202</title>
							<path d="M5.18 49.42 C5.18 49.35 5.18 49.27 5.18 49.2 C3.38 48.6 1.65 47.77 0.23 46.87 C0.07 47.7 0 48.6
										 0 49.5 C0 50.7 0.15 51.82 0.45 52.87 C2.1 54 3.9 54.9 5.85 55.5 C5.4 53.7 5.18 51.67 5.18
										 49.42 Z" class="st2"/>
						</g>
						<g id="shape203-30" v:mID="203" v:groupContext="shape" transform="translate(0.675,-16.05)">
							<title>Sheet.203</title>
							<path d="M3 47.85 C1.65 49.35 0.6 51.15 0 53.17 C1.28 54.15 2.85 54.9 4.58 55.5 C4.73 53.25 5.1 51.07
										 5.78 49.27 C4.73 48.82 3.83 48.37 3 47.85 Z" class="st2"/>
						</g>
						<g id="shape204-32" v:mID="204" v:groupContext="shape" transform="translate(14.925,-22.425)">
							<title>Sheet.204</title>
							<path d="M0.07 55.5 C1.87 55.42 3.6 55.12 5.17 54.67 C4.05 52.05 2.4 50.1 0.6 49.5 C0.37 49.5 0.22 49.5
										 0 49.5 L0 55.5 L0.07 55.5 Z" class="st2"/>
						</g>
						<g id="shape205-34" v:mID="205" v:groupContext="shape" transform="translate(1.2,-0.825)">
							<title>Sheet.205</title>
							<path d="M5.18 49.87 C3.3 49.35 1.58 48.6 0 47.7 C1.58 51.3 4.58 54.15 8.33 55.5 C6.98 54.15 5.93 52.2
										 5.18 49.87 Z" class="st2"/>
						</g>
						<g id="shape206-36" v:mID="206" v:groupContext="shape" transform="translate(19.275,-23.7)">
							<title>Sheet.206</title>
							<path d="M0 51.67 C0.9 52.72 1.65 54 2.25 55.5 C3 55.2 3.75 54.82 4.43 54.45 C3.23 53.25 1.73 52.27 0
										 51.67 Z" class="st2"/>
						</g>
						<g id="shape207-38" v:mID="207" v:groupContext="shape" transform="translate(22.125,-16.05)">
							<title>Sheet.207</title>
							<path d="M5.78 53.17 C5.18 51.15 4.13 49.35 2.78 47.85 C1.95 48.37 1.05 48.82 0 49.27 C0.6 51.15 1.05
										 53.25 1.2 55.5 C2.93 54.9 4.43 54.07 5.78 53.17 Z" class="st2"/>
						</g>
						<g id="shape208-40" v:mID="208" v:groupContext="shape" transform="translate(19.05,-0.825)">
							<title>Sheet.208</title>
							<path d="M3.15 49.72 C2.4 52.12 1.35 54.07 0 55.5 C3.82 54.15 6.9 51.15 8.4 47.32 C6.83 48.37 5.1 49.12
										 3.15 49.72 Z" class="st2"/>
						</g>
						<g id="shape209-42" v:mID="209" v:groupContext="shape" transform="translate(8.1,1.27898E-13)">
							<title>Sheet.209</title>
							<path d="M5.4 55.5 L5.4 50.17 C3.53 50.17 1.73 49.95 0 49.57 C1.28 52.8 3.23 55.05 5.4 55.5 Z"
									class="st2"/>
						</g>
						<g id="shape210-44" v:mID="210" v:groupContext="shape" transform="translate(15,-6.825)">
							<title>Sheet.210</title>
							<path d="M6.83 48.3 C4.73 48.82 2.4 49.2 0 49.27 L0 55.5 C2.03 55.42 4.05 55.12 6 54.6 C6.53 52.65 6.83
										 50.47 6.83 48.3 Z" class="st2"/>
						</g>
						<g id="shape211-46" v:mID="211" v:groupContext="shape" transform="translate(6.675,-6.9)">
							<title>Sheet.211</title>
							<path d="M6.83 55.5 L6.83 49.27 C4.43 49.2 2.1 48.9 0 48.3 C0 50.62 0.38 52.8 0.9 54.67 C2.78 55.2 4.8
										 55.5 6.83 55.5 Z" class="st2"/>
						</g>
						<g id="shape212-48" v:mID="212" v:groupContext="shape" transform="translate(15,-0.075)">
							<title>Sheet.212</title>
							<path d="M0 50.17 L0 55.5 C2.18 55.05 4.2 52.72 5.4 49.42 C3.68 49.87 1.88 50.1 0 50.17 Z" class="st2"/>
						</g>
					</g>
				</g>
			</g>
		</g>
	</g>
</svg>
