<?xml version="1.0" encoding="UTF-8" standalone="no"?>
<!DOCTYPE svg PUBLIC "-//W3C//DTD SVG 1.1//EN" "http://www.w3.org/Graphics/SVG/1.1/DTD/svg11.dtd">
<!-- Generated by Microsoft Visio, SVG Export Website, Public.svg Page-1 -->
<svg xmlns="http://www.w3.org/2000/svg" xmlns:xlink="http://www.w3.org/1999/xlink" xmlns:ev="http://www.w3.org/2001/xml-events"
		xmlns:v="http://schemas.microsoft.com/visio/2003/SVGExtensions/" width="0.895833in" height="0.75in" viewBox="0 0 64.5 54"
		xml:space="preserve" color-interpolation-filters="sRGB" class="st4">
	<v:documentProperties v:langID="4108" v:metric="true" v:viewMarkup="false"/>

	<style type="text/css">
	<![CDATA[
		.st1 {fill:#ffffff;stroke:none;stroke-linecap:butt;stroke-width:0.75}
		.st2 {fill:#515150;stroke:none;stroke-linecap:butt;stroke-width:0.75}
		.st3 {fill:#515050;stroke:none;stroke-linecap:butt;stroke-width:0.75}
		.st4 {fill:none;fill-rule:evenodd;font-size:12px;overflow:visible;stroke-linecap:square;stroke-miterlimit:3}
	]]>
	</style>

	<g v:mID="0" v:index="1" v:groupContext="foregroundPage">
		<title>Page-1</title>
		<v:pageProperties v:drawingScale="0.0393701" v:pageScale="0.0393701" v:drawingUnits="24" v:shadowOffsetX="8.50394"
				v:shadowOffsetY="-8.50394"/>
		<g id="group213-1" transform="translate(0.75,-0.75)" v:mID="213" v:groupContext="group">
			<title>Website, Public</title>
			<g id="group214-2" v:mID="214" v:groupContext="group">
				<title>Sheet.214</title>
				<g id="group215-3" transform="translate(-1.9984E-14,-7.5)" v:mID="215" v:groupContext="group">
					<title>Sheet.215</title>
					<g id="group216-4" v:mID="216" v:groupContext="group">
						<title>Sheet.216</title>
						<g id="shape217-5" v:mID="217" v:groupContext="shape">
							<title>Sheet.217</title>
							<path d="M5.25 54 C2.33 54 0 51.68 0 48.75 L0 14.25 C-0 11.33 2.33 9 5.25 9 L50.25 9 C53.18 9 55.5 11.33
										 55.5 14.25 L55.5 48.75 C55.5 51.68 53.18 54 50.25 54 L5.25 54 Z" class="st1"/>
						</g>
						<g id="shape218-7" v:mID="218" v:groupContext="shape" transform="translate(2.25,-2.25)">
							<title>Sheet.218</title>
							<path d="M48 13.5 L3 13.5 C1.35 13.5 0 14.85 0 16.5 L0 51 C-0 52.65 1.35 54 3 54 L48 54 C49.65 54 51
										 52.65 51 51 L51 16.5 C51 14.85 49.65 13.5 48 13.5 ZM42 15.75 L44.25 15.75 L44.25 18 L42
										 18 L42 15.75 ZM37.5 15.75 L39.75 15.75 L39.75 18 L37.5 18 L37.5 15.75 ZM48.75 51 C48.75
										 51.45 48.45 51.75 48 51.75 L3 51.75 C2.55 51.75 2.25 51.45 2.25 51 L2.25 21 L48.75 21 L48.75
										 51 ZM48.75 18 L46.5 18 L46.5 15.75 L48.75 15.75 L48.75 18 Z" class="st2"/>
						</g>
					</g>
					<g id="group219-9" transform="translate(12,-8.25)" v:mID="219" v:groupContext="group">
						<title>Sheet.219</title>
						<g id="group220-10" v:mID="220" v:groupContext="group">
							<title>Sheet.220</title>
							<g id="shape221-11" v:mID="221" v:groupContext="shape" transform="translate(10.5,-16.5)">
								<title>Sheet.221</title>
								<rect x="0" y="47.25" width="10.5" height="6.75" class="st2"/>
							</g>
							<g id="shape222-13" v:mID="222" v:groupContext="shape" transform="translate(11.25,-1.20792E-13)">
								<title>Sheet.222</title>
								<rect x="0" y="48" width="9" height="6" class="st2"/>
							</g>
							<g id="shape223-15" v:mID="223" v:groupContext="shape">
								<title>Sheet.223</title>
								<rect x="0" y="48" width="9" height="6" class="st2"/>
							</g>
						</g>
						<g id="shape224-17" v:mID="224" v:groupContext="shape" transform="translate(3.75,-5.25)">
							<title>Sheet.224</title>
							<path d="M23.25 47.25 L12.75 47.25 L12.75 42 L11.25 42 L11.25 47.25 L1.5 47.25 L0.75 47.25 L0 47.25 L0
										 54 L1.5 54 L1.5 48.75 L11.25 48.75 L11.25 53.25 L12.75 53.25 L12.75 48.75 L23.25 48.75 L23.25
										 47.25 Z" class="st2"/>
						</g>
						<g id="shape225-19" v:mID="225" v:groupContext="shape" transform="translate(26.25,-5.25)">
							<title>Sheet.225</title>
							<rect x="0" y="47.25" width="1.5" height="6.75" class="st2"/>
						</g>
					</g>
				</g>
				<g id="group226-21" transform="translate(33,-2.20268E-13)" v:mID="226" v:groupContext="group">
					<title>Sheet.226</title>
					<g id="group227-22" v:mID="227" v:groupContext="group">
						<title>Sheet.227</title>
						<g id="shape228-23" v:mID="228" v:groupContext="shape">
							<title>Sheet.228</title>
							<path d="M4.5 54 C2.03 54 0 51.98 0 49.5 L0 28.5 C0 26.03 2.03 24 4.5 24 L25.5 24 C27.98 24 30 26.03
										 30 28.5 L30 49.5 C30 51.98 27.98 54 25.5 54 L4.5 54 Z" class="st1"/>
						</g>
						<g id="shape229-25" v:mID="229" v:groupContext="shape" transform="translate(2.25,-2.25)">
							<title>Sheet.229</title>
							<path d="M25.5 51.75 C25.5 53.03 24.53 54 23.25 54 L2.25 54 C0.98 54 0 53.03 0 51.75 L0 30.75 C0 29.48
										 0.98 28.5 2.25 28.5 L23.25 28.5 C24.53 28.5 25.5 29.48 25.5 30.75 L25.5 51.75 Z"
									class="st3"/>
						</g>
					</g>
					<g id="group230-27" transform="translate(6.75,-6.75)" v:mID="230" v:groupContext="group">
						<title>Sheet.230</title>
						<g id="group231-28" transform="translate(0.225,-0.9)" v:mID="231" v:groupContext="group">
							<title>Sheet.231</title>
							<g id="shape232-29" v:mID="232" v:groupContext="shape" transform="translate(0.375,-3.525)">
								<title>Sheet.232</title>
								<path d="M1.05 54 C0.38 52.88 0 51.53 0 50.18 C0 49.73 -0 49.28 0.08 48.9 C0.08 48.98 0.15 49.05
											 0.15 49.05 C0.38 49.58 1.13 50.33 1.87 51 C2.03 51.15 2.17 51.3 2.33 51.45 C1.8 51.6
											 1.2 51.9 0.98 52.13 C0.52 52.58 0.75 53.33 1.05 54 Z" class="st1"/>
							</g>
							<g id="shape233-31" v:mID="233" v:groupContext="shape">
								<title>Sheet.233</title>
								<path d="M0.75 46.5 C1.05 46.88 1.5 47.25 2.02 47.78 C2.02 47.78 2.02 47.78 2.1 47.85 C1.65 48.07
											 1.35 48.23 1.2 48.38 C1.13 48.45 1.13 48.45 1.05 48.53 C0.9 47.93 0.83 47.33 0.83 46.73
											 C0.75 46.58 0.75 46.58 0.75 46.5 ZM1.2 42.53 C0.45 43.72 0 45.15 0 46.73 C0 49.95 1.95
											 52.73 4.65 54 C3.83 53.18 3.15 51.83 2.1 51.53 C2.25 51.23 1.13 49.5 1.65 48.98 C1.87
											 48.68 3.37 48.23 3.38 48.23 C3.22 47.85 1.28 46.28 0.9 45.53 C0.52 44.7 0.67 43.95 0.75
											 43.43 C0.83 43.13 0.98 42.82 1.2 42.53 Z" class="st1"/>
							</g>
						</g>
						<g id="group234-33" transform="translate(3,-0.375)" v:mID="234" v:groupContext="group">
							<title>Sheet.234</title>
							<g id="group235-34" transform="translate(11.625,-6.075)" v:mID="235" v:groupContext="group">
								<title>Sheet.235</title>
								<g id="shape236-35" v:mID="236" v:groupContext="shape">
									<title>Sheet.236</title>
									<path d="M1.43 54 C1.58 53.4 1.65 52.8 1.65 52.2 C1.65 50.4 1.05 48.68 0 47.33 C0.75 48.53 1.88
												 51.45 1.43 54 Z" class="st1"/>
								</g>
								<g id="shape237-37" v:mID="237" v:groupContext="shape">
									<title>Sheet.237</title>
									<path d="M0 47.33 C0.75 48.53 1.88 51.45 1.43 54 C1.58 53.4 1.65 52.8 1.65 52.2 C1.65 50.33 1.05
												 48.68 0 47.33 Z" class="st1"/>
								</g>
							</g>
							<g id="group238-39" v:mID="238" v:groupContext="group">
								<title>Sheet.238</title>
								<g id="shape239-40" v:mID="239" v:groupContext="shape" transform="translate(0.45,-0.225)">
									<title>Sheet.239</title>
									<path d="M4.8 54 C4.73 54 4.58 54 4.5 54 C4.73 53.63 4.8 53.25 4.88 52.8 C5.03 52.35 5.1 51.83
												 5.4 51.38 C6.3 50.03 6.08 48.9 5.63 48.38 C5.62 48.3 5.55 48.15 5.48 48.08 C5.25
												 47.85 4.95 47.7 4.28 47.7 C3.9 47.7 3.53 47.7 3.15 47.78 C2.85 47.78 2.55 47.85
												 2.33 47.85 C2.25 47.85 2.18 47.85 2.1 47.85 C0.07 46.13 0 45.6 0.07 45.38 C0.07
												 45.38 0.23 45.3 0.45 45.3 C0.6 45.3 0.75 45.3 0.75 45.38 C0.83 45.9 1.13 46.5 2.25
												 46.95 L2.48 47.03 L2.63 46.88 C2.93 46.65 2.77 46.28 2.55 45.68 C2.48 45.53 2.4
												 45.3 2.4 45.23 C2.4 44.85 2.93 43.73 3.15 43.65 C3.75 43.65 4.05 43.35 4.28 43.13
												 C4.5 42.9 4.65 42.68 5.33 42.68 C5.55 42.68 5.7 42.53 5.85 42.23 C6 41.7 6.23 40.5
												 5.55 39.9 C5.25 39.68 4.95 39.53 4.65 39.53 C4.05 39.53 3.6 39.98 3.23 40.28 C3.15
												 40.35 3 40.43 2.93 40.5 C2.93 40.43 2.85 40.35 2.85 40.2 C2.63 39.75 2.4 39.45 2.18
												 39.3 C3 39 3.82 38.85 4.65 38.85 C6.08 38.85 7.5 39.23 8.7 39.98 C8.33 40.13 8.03
												 40.43 7.73 40.88 C7.28 41.55 7.13 42.15 7.35 42.53 C7.65 43.05 8.25 43.13 8.78 43.13
												 C7.8 43.8 6.23 45 6.45 46.58 C6.53 47.55 8.48 48.23 9.3 48.45 C9.45 49.2 10.05 50.7
												 10.88 51.08 C9.53 52.8 7.28 54 4.8 54 Z" class="st1"/>
								</g>
								<g id="shape240-42" v:mID="240" v:groupContext="shape">
									<title>Sheet.240</title>
									<path d="M5.7 38.85 C6.67 38.93 7.65 39.15 8.48 39.6 C8.25 39.75 8.1 39.98 7.88 40.28 C7.65 40.58
												 7.05 41.48 7.5 42.3 C7.65 42.68 7.95 42.83 8.33 42.98 C7.42 43.73 6.38 44.85 6.53
												 46.28 C6.67 47.4 8.48 48.08 9.45 48.38 C9.68 49.13 10.13 50.25 10.8 50.78 C9.53
												 52.35 7.58 53.25 5.48 53.33 C5.55 53.1 5.63 52.8 5.7 52.58 C5.85 52.13 5.92 51.68
												 6.15 51.3 C7.13 49.88 6.9 48.6 6.45 47.93 C6.45 47.78 6.38 47.7 6.3 47.55 C6 47.1
												 5.4 47.03 4.8 47.03 C4.43 47.03 4.05 47.03 3.68 47.1 C3.37 47.1 3.08 47.18 2.93
												 47.18 C2.93 47.18 2.93 47.18 2.85 47.18 C2.7 47.1 2.62 46.95 2.55 46.88 C2.62 46.88
												 2.7 46.95 2.77 46.95 L3.23 47.1 L3.6 46.8 C4.05 46.43 3.83 45.83 3.6 45.15 C3.52
												 45 3.45 44.85 3.45 44.78 C3.45 44.48 3.75 43.88 3.98 43.58 C4.73 43.5 5.02 43.13
												 5.25 42.9 C5.4 42.68 5.48 42.6 6 42.6 C6.23 42.6 6.68 42.53 6.9 41.85 C7.13 41.25
												 7.35 39.83 6.45 39.08 C6.23 39.08 6 38.93 5.7 38.85 ZM4.73 38.85 C4.35 39 3.98 39.23
												 3.75 39.45 C3.68 39.3 3.6 39.15 3.53 39 C3.9 39 4.27 38.93 4.73 38.85 ZM5.25 38.1
												 C3.75 38.1 2.4 38.48 1.28 39.15 C1.5 39.08 1.72 39 1.95 39 C2.4 39 2.85 39.23 3.15
												 39.9 C3.3 40.28 3.23 40.43 3.6 40.43 L3.68 40.43 C3.98 40.43 4.58 39.45 5.33 39.45
												 C5.55 39.45 5.77 39.53 6 39.75 C6.6 40.28 6.3 41.93 6 41.93 C4.43 41.93 4.88 42.9
												 3.83 42.9 C3.83 42.9 3.83 42.9 3.75 42.9 C3.3 42.9 2.62 44.33 2.63 44.93 C2.62 45.23
												 3.15 46.2 3 46.28 C2.25 45.98 1.72 45.53 1.73 44.93 C1.58 44.78 1.35 44.63 1.05
												 44.63 C0.75 44.63 0.45 44.7 0.38 44.93 C0 45.68 1.5 46.95 2.55 47.85 C2.62 47.85
												 2.78 47.93 2.93 47.93 C3.37 47.93 4.2 47.85 4.8 47.85 C5.4 47.85 5.77 47.93 5.7
												 48.23 C6.08 48.53 6.45 49.58 5.55 50.85 C4.8 51.98 5.1 53.55 4.05 53.93 C4.43 54
												 4.88 54 5.25 54 C8.55 54 11.4 51.98 12.6 49.05 C12.45 49.43 12.23 49.73 12 50.03
												 C11.85 50.18 11.78 50.25 11.63 50.25 C10.88 50.25 10.05 48.23 10.05 47.63 C9.83
												 47.63 7.35 46.88 7.28 46.05 C7.05 44.1 10.05 42.68 10.2 42.3 C10.2 42.23 10.05 42.23
												 9.83 42.23 C9.75 42.23 9.68 42.23 9.6 42.23 C8.78 42.23 7.58 42.15 8.63 40.58 C9.08
												 39.98 9.45 39.75 9.9 39.75 C10.2 39.75 10.43 39.83 10.65 39.98 C9.15 38.85 7.28
												 38.1 5.25 38.1 Z" class="st1"/>
								</g>
							</g>
						</g>
						<g id="shape241-44" v:mID="241" v:groupContext="shape">
							<title>Sheet.241</title>
							<path d="M8.25 37.5 L8.25 38.25 C12.38 38.25 15.75 41.63 15.75 45.75 C15.75 49.88 12.38 53.25 8.25 53.25
										 C4.13 53.25 0.75 49.88 0.75 45.75 C0.75 43.73 1.5 41.85 2.93 40.43 C4.35 39 6.23 38.25 8.25
										 38.25 L8.25 37.5 ZM8.25 37.5 C3.67 37.5 0 41.25 0 45.75 C0 50.33 3.67 54 8.25 54 C12.83
										 54 16.5 50.25 16.5 45.75 C16.5 41.18 12.83 37.5 8.25 37.5 Z" class="st1"/>
						</g>
					</g>
				</g>
			</g>
		</g>
	</g>
</svg>
