<?xml version="1.0" encoding="UTF-8" standalone="no"?>
<!DOCTYPE svg PUBLIC "-//W3C//DTD SVG 1.1//EN" "http://www.w3.org/Graphics/SVG/1.1/DTD/svg11.dtd">
<!-- Generated by Microsoft Visio, SVG Export Wiki Site.svg Page-1 -->
<svg xmlns="http://www.w3.org/2000/svg" xmlns:xlink="http://www.w3.org/1999/xlink" xmlns:ev="http://www.w3.org/2001/xml-events"
		xmlns:v="http://schemas.microsoft.com/visio/2003/SVGExtensions/" width="0.905208in" height="0.78125in"
		viewBox="0 0 65.175 56.25" xml:space="preserve" color-interpolation-filters="sRGB" class="st3">
	<v:documentProperties v:langID="4108" v:metric="true" v:viewMarkup="false"/>

	<style type="text/css">
	<![CDATA[
		.st1 {fill:#ffffff;stroke:none;stroke-linecap:butt;stroke-width:0.75}
		.st2 {fill:#515150;stroke:none;stroke-linecap:butt;stroke-width:0.75}
		.st3 {fill:none;fill-rule:evenodd;font-size:12px;overflow:visible;stroke-linecap:square;stroke-miterlimit:3}
	]]>
	</style>

	<g v:mID="0" v:index="1" v:groupContext="foregroundPage">
		<title>Page-1</title>
		<v:pageProperties v:drawingScale="0.0393701" v:pageScale="0.0393701" v:drawingUnits="24" v:shadowOffsetX="8.50394"
				v:shadowOffsetY="-8.50394"/>
		<g id="group242-1" transform="translate(0.75,-0.75)" v:mID="242" v:groupContext="group">
			<title>Wiki Site</title>
			<g id="group243-2" v:mID="243" v:groupContext="group">
				<title>Sheet.243</title>
				<g id="group244-3" transform="translate(7.19425E-14,-9.75)" v:mID="244" v:groupContext="group">
					<title>Sheet.244</title>
					<g id="group245-4" v:mID="245" v:groupContext="group">
						<title>Sheet.245</title>
						<g id="shape246-5" v:mID="246" v:groupContext="shape">
							<title>Sheet.246</title>
							<path d="M5.25 56.25 C2.33 56.25 0 53.93 0 51 L0 16.5 C0 13.58 2.33 11.25 5.25 11.25 L50.25 11.25 C53.18
										 11.25 55.5 13.58 55.5 16.5 L55.5 51 C55.5 53.93 53.18 56.25 50.25 56.25 L5.25 56.25 Z"
									class="st1"/>
						</g>
						<g id="shape247-7" v:mID="247" v:groupContext="shape" transform="translate(2.25,-2.25)">
							<title>Sheet.247</title>
							<path d="M48 15.75 L3 15.75 C1.35 15.75 0 17.1 0 18.75 L0 53.25 C-0 54.9 1.35 56.25 3 56.25 L48 56.25
										 C49.65 56.25 51 54.9 51 53.25 L51 18.75 C51 17.1 49.65 15.75 48 15.75 ZM42 18 L44.25 18
										 L44.25 20.25 L42 20.25 L42 18 ZM37.5 18 L39.75 18 L39.75 20.25 L37.5 20.25 L37.5 18 ZM48.75
										 53.25 C48.75 53.7 48.45 54 48 54 L3 54 C2.55 54 2.25 53.7 2.25 53.25 L2.25 23.25 L48.75
										 23.25 L48.75 53.25 ZM48.75 20.25 L46.5 20.25 L46.5 18 L48.75 18 L48.75 20.25 Z"
									class="st2"/>
						</g>
					</g>
					<g id="group248-9" transform="translate(12,-8.25)" v:mID="248" v:groupContext="group">
						<title>Sheet.248</title>
						<g id="shape249-10" v:mID="249" v:groupContext="shape">
							<title>Sheet.249</title>
							<path d="M27 45.75 L27 44.25 L16.5 44.25 L16.5 39.75 L21 39.75 L21 33 L10.5 33 L10.5 39.75 L15 39.75
										 L15 44.25 L5.25 44.25 L4.5 44.25 L3.75 44.25 L3.75 50.25 L0 50.25 L0 56.25 L9 56.25 L9 50.25
										 L5.25 50.25 L5.25 45.75 L15 45.75 L15 50.25 L11.25 50.25 L11.25 56.25 L20.25 56.25 L20.25
										 50.25 L16.5 50.25 L16.5 45.75 L27 45.75 Z" class="st2"/>
						</g>
						<g id="shape250-12" v:mID="250" v:groupContext="shape" transform="translate(26.25,-5.25)">
							<title>Sheet.250</title>
							<rect x="0" y="49.5" width="1.5" height="6.75" class="st2"/>
						</g>
					</g>
				</g>
				<g id="group251-14" transform="translate(33,-3)" v:mID="251" v:groupContext="group">
					<title>Sheet.251</title>
					<g id="shape252-15" v:mID="252" v:groupContext="shape">
						<title>Sheet.252</title>
						<path d="M0 56.25 L0 23.25 L19.65 23.25 L28.5 32.1 L28.5 56.25 L0 56.25 Z" class="st1"/>
					</g>
					<g id="shape253-17" v:mID="253" v:groupContext="shape" transform="translate(2.25,-2.25)">
						<title>Sheet.253</title>
						<path d="M24 56.25 L24 35.25 L16.5 27.75 L0 27.75 L0 56.25 L24 56.25 ZM1.5 54.75 L1.5 29.25 L15 29.25 L15
									 36.75 L22.5 36.75 L22.5 54.75 L1.5 54.75 Z" class="st2"/>
					</g>
					<g id="shape254-19" v:mID="254" v:groupContext="shape" transform="translate(8.25,-15.75)">
						<title>Sheet.254</title>
						<rect x="0" y="54.75" width="12" height="1.5" class="st2"/>
					</g>
					<g id="shape255-21" v:mID="255" v:groupContext="shape" transform="translate(8.25,-12)">
						<title>Sheet.255</title>
						<rect x="0" y="54.75" width="12" height="1.5" class="st2"/>
					</g>
					<g id="shape256-23" v:mID="256" v:groupContext="shape" transform="translate(8.25,-8.25)">
						<title>Sheet.256</title>
						<rect x="0" y="54.75" width="12" height="1.5" class="st2"/>
					</g>
				</g>
				<g id="group257-25" transform="translate(40.875,1.42109E-13)" v:mID="257" v:groupContext="group">
					<title>Sheet.257</title>
					<g id="shape258-26" v:mID="258" v:groupContext="shape">
						<title>Sheet.258</title>
						<path d="M2.63 56.25 C1.88 56.25 1.13 55.95 0.68 55.35 C0.23 54.75 0 54 0.15 53.18 L0.23 52.8 L3.75 47.18
									 L14.78 36.15 L16.5 34.42 C17.1 33.82 17.93 33.52 18.68 33.52 C19.5 33.52 20.18 33.82 20.78 34.35
									 L21.98 35.55 C22.5 36.07 22.8 36.83 22.8 37.65 C22.8 38.47 22.5 39.3 21.9 39.9 L20.18 41.62
									 L9.23 52.58 L3.53 56.1 L3.15 56.18 C2.92 56.25 2.78 56.25 2.63 56.25 Z" class="st1"/>
					</g>
					<g id="shape259-28" v:mID="259" v:groupContext="shape" transform="translate(2.325,-2.25)">
						<title>Sheet.259</title>
						<path d="M18.08 39.37 L16.88 38.17 C16.58 37.87 16.05 37.95 15.75 38.25 L14.85 39.15 L14.03 39.97 L3.23 50.78
									 L0 55.88 C0 56.1 0.08 56.25 0.3 56.25 C0.3 56.25 0.37 56.25 0.38 56.25 L5.48 53.1 L16.28 42.22
									 L17.1 41.4 L18 40.5 C18.38 40.2 18.38 39.67 18.08 39.37 ZM1.95 54.6 L1.65 54.3 L3.3 51.68 L4.58
									 52.95 L1.95 54.6 Z" class="st2"/>
					</g>
				</g>
			</g>
		</g>
	</g>
</svg>
