<?xml version="1.0" encoding="UTF-8" standalone="no"?>
<!DOCTYPE svg PUBLIC "-//W3C//DTD SVG 1.1//EN" "http://www.w3.org/Graphics/SVG/1.1/DTD/svg11.dtd">
<!-- Generated by Microsoft Visio, SVG Export Word Automation Services.svg Page-1 -->
<svg xmlns="http://www.w3.org/2000/svg" xmlns:xlink="http://www.w3.org/1999/xlink" xmlns:ev="http://www.w3.org/2001/xml-events"
		xmlns:v="http://schemas.microsoft.com/visio/2003/SVGExtensions/" width="0.917061in" height="0.756933in"
		viewBox="0 0 66.0284 54.4992" xml:space="preserve" color-interpolation-filters="sRGB" class="st4">
	<v:documentProperties v:langID="4108" v:metric="true" v:viewMarkup="false"/>

	<style type="text/css">
	<![CDATA[
		.st1 {fill:#ffffff;stroke:none;stroke-linecap:butt;stroke-width:0.75}
		.st2 {fill:#535352;stroke:none;stroke-linecap:butt;stroke-width:0.75}
		.st3 {fill:#2c3580;stroke:none;stroke-linecap:butt;stroke-width:0.75}
		.st4 {fill:none;fill-rule:evenodd;font-size:12px;overflow:visible;stroke-linecap:square;stroke-miterlimit:3}
	]]>
	</style>

	<g v:mID="0" v:index="1" v:groupContext="foregroundPage">
		<title>Page-1</title>
		<v:pageProperties v:drawingScale="0.0393701" v:pageScale="0.0393701" v:drawingUnits="24" v:shadowOffsetX="8.50394"
				v:shadowOffsetY="-8.50394"/>
		<g id="group368-1" transform="translate(0.628372,-0.7242)" v:mID="368" v:groupContext="group">
			<title>Word Automation Services</title>
			<g id="group369-2" v:mID="369" v:groupContext="group">
				<title>Sheet.369</title>
				<g id="group370-3" v:mID="370" v:groupContext="group">
					<title>Sheet.370</title>
					<g id="shape371-4" v:mID="371" v:groupContext="shape">
						<title>Sheet.371</title>
						<path d="M37.42 52.4 C36 52.62 34.65 51.95 33.9 50.75 L31.95 47.6 C31.95 47.6 31.95 47.6 31.87 47.6 C31.8
									 47.6 31.13 47.82 30.07 47.97 C29.03 48.2 28.28 48.2 28.2 48.2 L28.12 48.2 L27.3 51.8 C27 53.15
									 25.87 54.2 24.45 54.42 C24 54.5 23.55 54.5 23.1 54.35 L18.22 53.22 C17.32 53 16.57 52.47 16.05
									 51.65 C15.52 50.82 15.37 49.92 15.6 49.02 L16.42 45.35 L16.27 45.27 L13.57 43.32 C13.57 43.32
									 13.42 43.25 13.42 43.17 L10.27 45.2 C9.9 45.42 9.45 45.57 9 45.65 C7.57 45.87 6.15 45.27 5.4
									 44.07 L2.77 39.8 C2.25 38.97 2.1 38.07 2.32 37.17 C2.55 36.27 3.15 35.45 3.9 35 L7.05 33.05
									 C7.05 32.97 6.97 32.82 6.97 32.82 L6.45 29.52 C6.45 29.52 6.45 29.37 6.45 29.3 L2.77 28.47 C1.87
									 28.25 1.12 27.72 0.6 26.9 C0.15 26.07 0 25.1 0.22 24.2 L1.35 19.32 C1.65 17.97 2.78 16.92 4.2
									 16.7 C4.65 16.62 5.1 16.62 5.55 16.77 L9.22 17.6 L9.3 17.45 L11.25 14.75 C11.25 14.75 11.32
									 14.6 11.4 14.6 L9.45 11.45 C8.92 10.62 8.77 9.72 9 8.82 C9.22 7.92 9.75 7.17 10.57 6.65 L14.85
									 4.02 C15.22 3.8 15.67 3.65 16.12 3.57 C17.55 3.35 18.9 3.95 19.65 5.22 L21.6 8.37 C21.6 8.37
									 21.6 8.37 21.67 8.37 C21.75 8.37 22.42 8.15 23.47 8 C24.52 7.85 25.27 7.77 25.35 7.77 C25.35
									 7.77 25.35 7.77 25.42 7.77 L26.25 4.17 C26.55 2.82 27.68 1.77 29.1 1.55 C29.55 1.47 30 1.47
									 30.45 1.62 L35.32 2.75 C36.22 2.97 36.97 3.5 37.5 4.32 C38.02 5.15 38.17 6.05 37.95 6.95 L37.12
									 10.62 C37.2 10.62 37.28 10.7 37.27 10.7 L39.97 12.65 C39.97 12.65 40.12 12.72 40.12 12.8 L43.27
									 10.85 C43.65 10.62 44.1 10.47 44.55 10.4 C45.97 10.17 47.32 10.77 48.07 12.05 L50.7 16.32 C51.22
									 17.15 51.37 18.05 51.15 18.95 C50.92 19.85 50.4 20.6 49.57 21.12 L46.42 23.07 C46.42 23.15 46.5
									 23.3 46.5 23.3 L47.02 26.6 C47.02 26.6 47.02 26.75 47.02 26.82 L50.7 27.65 C52.57 28.1 53.77
									 29.97 53.32 31.85 L52.2 36.72 C51.9 38.07 50.77 39.12 49.35 39.35 C48.9 39.42 48.45 39.42 48
									 39.27 L44.32 38.45 C44.32 38.52 44.25 38.6 44.25 38.6 L42.3 41.3 C42.3 41.3 42.22 41.45 42.15
									 41.45 L44.1 44.6 C44.62 45.42 44.77 46.32 44.55 47.22 C44.32 48.12 43.8 48.87 42.97 49.4 L38.7
									 52.02 C38.32 52.1 37.87 52.32 37.42 52.4 ZM25.12 17.75 C19.5 18.65 15.75 23.97 16.65 29.52 C17.55
									 35.15 22.87 38.9 28.42 38 C34.05 37.1 37.8 31.77 36.9 26.22 C36 20.67 30.75 16.85 25.12 17.75
									 Z" class="st1"/>
					</g>
					<g id="shape372-6" v:mID="372" v:groupContext="shape" transform="translate(2.25,-2.1)">
						<title>Sheet.372</title>
						<path d="M47.92 31.62 L43.87 30.65 C43.2 30.5 42.68 30.27 42.67 30.12 C42.68 29.97 42.6 29.3 42.6 28.62 L42.07
									 25.55 C41.92 24.87 41.77 24.2 41.7 24.12 C41.62 23.97 42.07 23.6 42.67 23.22 L46.2 21.05 C46.8
									 20.67 46.95 19.92 46.57 19.32 L43.95 15.05 C43.57 14.45 42.82 14.3 42.22 14.67 L38.7 16.85 C38.1
									 17.22 37.57 17.45 37.42 17.3 C37.35 17.22 36.82 16.77 36.3 16.32 L33.75 14.45 C33.15 14.07 32.55
									 13.77 32.47 13.7 C32.32 13.62 32.4 13.02 32.55 12.35 L33.52 8.3 C33.68 7.62 33.3 6.95 32.62
									 6.8 L27.75 5.67 C27.07 5.52 26.4 5.9 26.25 6.57 L25.27 10.62 C25.12 11.3 24.9 11.82 24.75 11.82
									 C24.6 11.82 23.92 11.82 23.25 11.9 C23.25 11.9 22.57 11.9 21.67 12.05 C20.77 12.2 20.17 12.35
									 20.17 12.35 C19.5 12.57 18.9 12.72 18.75 12.8 C18.6 12.87 18.22 12.42 17.85 11.82 L15.52 8.3
									 C15.15 7.7 14.4 7.55 13.8 7.92 L9.52 10.55 C8.92 10.92 8.78 11.67 9.15 12.27 L11.32 15.8 C11.7
									 16.4 11.93 16.92 11.77 17.07 C11.7 17.15 11.25 17.67 10.8 18.2 L8.92 20.75 C8.55 21.35 8.25
									 21.95 8.17 22.02 C8.1 22.17 7.5 22.1 6.82 21.95 L2.85 21.05 C2.17 20.9 1.5 21.27 1.35 21.95
									 L0.15 26.82 C0 27.5 0.37 28.17 1.05 28.32 L5.17 29.3 C5.85 29.45 6.37 29.67 6.37 29.82 C6.37
									 29.97 6.45 30.65 6.45 31.32 L6.97 34.47 C7.12 35.15 7.28 35.82 7.35 35.9 C7.42 36.05 6.98 36.42
									 6.37 36.8 L2.85 38.97 C2.25 39.35 2.1 40.1 2.47 40.7 L5.1 44.97 C5.47 45.57 6.23 45.72 6.82
									 45.35 L10.35 43.17 C10.95 42.8 11.47 42.57 11.62 42.72 C11.7 42.8 12.23 43.25 12.75 43.7 L15.3
									 45.57 C15.9 45.95 16.5 46.25 16.57 46.32 C16.72 46.4 16.65 47 16.5 47.67 L15.52 51.72 C15.37
									 52.4 15.75 53.07 16.42 53.22 L21.3 54.35 C21.97 54.5 22.65 54.12 22.8 53.45 L23.77 49.4 C23.92
									 48.72 24.15 48.2 24.3 48.2 C24.45 48.2 25.12 48.2 25.8 48.12 C25.8 48.12 26.48 48.12 27.37 47.97
									 C28.27 47.82 28.87 47.67 28.87 47.67 C29.55 47.45 30.15 47.3 30.3 47.22 C30.45 47.15 30.83 47.6
									 31.2 48.2 L33.37 51.72 C33.75 52.32 34.5 52.47 35.1 52.1 L39.37 49.47 C39.97 49.1 40.12 48.35
									 39.75 47.75 L37.57 44.22 C37.2 43.62 36.97 43.1 37.12 42.95 C37.2 42.87 37.65 42.35 38.1 41.82
									 L39.97 39.27 C40.35 38.67 40.65 38.07 40.72 38 C40.8 37.85 41.4 37.92 42.07 38.07 L46.12 39.05
									 C46.8 39.2 47.47 38.82 47.62 38.15 L48.75 33.27 C49.05 32.45 48.6 31.77 47.92 31.62 ZM26.55
									 42.35 C19.72 43.47 13.27 38.82 12.15 32 C11.02 25.17 15.68 18.72 22.5 17.6 C29.33 16.47 35.77
									 21.12 36.9 27.95 C38.03 34.77 33.37 41.22 26.55 42.35 Z" class="st2"/>
					</g>
				</g>
				<g id="group373-8" transform="translate(34.65,-24.525)" v:mID="373" v:groupContext="group">
					<title>Sheet.373</title>
					<g id="shape374-9" v:mID="374" v:groupContext="shape">
						<title>Sheet.374</title>
						<path d="M26.25 28.25 L18.75 28.25 L18.75 26 L15.98 26 L0 28.55 L0 51.87 L16.65 54.5 L18.75 54.5 L18.75 52.25
									 L26.25 52.25 C28.35 52.25 30 50.6 30 48.5 L30 32 C30 29.9 28.35 28.25 26.25 28.25 Z"
								class="st1"/>
					</g>
					<g id="group375-11" transform="translate(11.25,-4.5)" v:mID="375" v:groupContext="group">
						<title>Sheet.375</title>
						<g id="shape376-12" v:mID="376" v:groupContext="shape">
							<title>Sheet.376</title>
							<path d="M15 36.12 C15.23 36.12 15.38 36.27 15.38 36.5 L15.38 53 C15.38 53.22 15.23 53.37 15 53.37 L1.5
										 53.37 C1.28 53.37 1.13 53.22 1.13 53 L1.13 36.5 C1.13 36.27 1.28 36.12 1.5 36.12 L15 36.12
										 ZM15 35 L1.5 35 C0.68 35 0 35.67 0 36.5 L0 53 C0 53.82 0.68 54.5 1.5 54.5 L15 54.5 C15.83
										 54.5 16.5 53.82 16.5 53 L16.5 36.5 C16.5 35.67 15.83 35 15 35 Z" class="st3"/>
						</g>
						<g id="group377-14" transform="translate(3,-3.375)" v:mID="377" v:groupContext="group">
							<title>Sheet.377</title>
							<g id="shape378-15" v:mID="378" v:groupContext="shape">
								<title>Sheet.378</title>
								<rect x="0" y="53.3742" width="10.5" height="1.125" class="st3"/>
							</g>
							<g id="shape379-17" v:mID="379" v:groupContext="shape" transform="translate(5.89528E-14,-3)">
								<title>Sheet.379</title>
								<rect x="0" y="53.3742" width="10.5" height="1.125" class="st3"/>
							</g>
							<g id="shape380-19" v:mID="380" v:groupContext="shape" transform="translate(5.89528E-14,-6)">
								<title>Sheet.380</title>
								<rect x="0" y="53.3742" width="10.5" height="1.125" class="st3"/>
							</g>
							<g id="shape381-21" v:mID="381" v:groupContext="shape" transform="translate(5.89528E-14,-9)">
								<title>Sheet.381</title>
								<rect x="0" y="53.3742" width="10.5" height="1.125" class="st3"/>
							</g>
							<g id="shape382-23" v:mID="382" v:groupContext="shape" transform="translate(5.89528E-14,-12)">
								<title>Sheet.382</title>
								<rect x="0" y="53.3742" width="10.5" height="1.125" class="st3"/>
							</g>
						</g>
					</g>
					<g id="shape383-25" v:mID="383" v:groupContext="shape" transform="translate(2.25,-2.325)">
						<title>Sheet.383</title>
						<path d="M14.25 30.5 L0 32.75 L0 52.25 L14.25 54.5 L14.25 30.5 Z" class="st3"/>
					</g>
					<g id="shape384-27" v:mID="384" v:groupContext="shape" transform="translate(4.575,-10.425)">
						<title>Sheet.384</title>
						<path d="M8.63 46.4 L7.05 46.47 L6.15 51.8 C6.15 51.87 6.15 51.95 6.15 52.02 C6.15 52.1 6.15 52.17 6.15 52.25
									 C6.15 52.32 6.15 52.4 6.15 52.47 C6.15 52.55 6.15 52.62 6.15 52.7 C6.15 52.62 6.15 52.55 6.15
									 52.4 C6.15 52.32 6.15 52.25 6.15 52.17 C6.15 52.1 6.15 52.02 6.15 51.95 C6.15 51.87 6.15 51.87
									 6.15 51.8 L5.1 46.55 L3.6 46.62 L2.55 51.65 C2.55 51.72 2.55 51.8 2.48 51.87 C2.48 51.95 2.48
									 52.02 2.48 52.1 C2.48 52.17 2.48 52.25 2.48 52.32 C2.48 52.4 2.48 52.47 2.48 52.55 C2.48 52.47
									 2.48 52.4 2.48 52.32 C2.48 52.25 2.48 52.17 2.48 52.1 C2.48 52.02 2.48 51.95 2.48 51.87 C2.48
									 51.8 2.48 51.72 2.48 51.72 L1.65 46.85 L0 46.92 L1.43 54.2 L2.93 54.27 L3.98 49.47 C3.98 49.4
									 3.98 49.32 3.98 49.32 C3.98 49.25 3.98 49.17 3.98 49.1 C3.98 49.02 3.98 48.95 3.98 48.87 C3.98
									 48.8 3.98 48.72 3.98 48.65 C3.98 48.72 3.98 48.8 3.98 48.87 C3.98 48.95 3.98 49.02 3.98 49.1
									 C3.98 49.17 3.98 49.25 3.98 49.32 C3.98 49.4 3.98 49.47 3.98 49.55 L5.18 54.42 L6.83 54.5 L8.63
									 46.4 Z" class="st1"/>
					</g>
				</g>
			</g>
		</g>
	</g>
</svg>
