<?xml version="1.0" encoding="UTF-8" standalone="no"?>
<!DOCTYPE svg PUBLIC "-//W3C//DTD SVG 1.1//EN" "http://www.w3.org/Graphics/SVG/1.1/DTD/svg11.dtd">
<!-- Generated by Microsoft Visio, SVG Export CD-DVD.svg Page-1 -->
<svg xmlns="http://www.w3.org/2000/svg" xmlns:xlink="http://www.w3.org/1999/xlink" xmlns:ev="http://www.w3.org/2001/xml-events"
		xmlns:v="http://schemas.microsoft.com/visio/2003/SVGExtensions/" width="0.9375in" height="0.921875in"
		viewBox="0 0 67.5 66.375" xml:space="preserve" color-interpolation-filters="sRGB" class="st3">
	<v:documentProperties v:langID="4108" v:metric="true" v:viewMarkup="false"/>

	<style type="text/css">
	<![CDATA[
		.st1 {fill:#ffffff;stroke:none;stroke-linecap:butt;stroke-width:0.75}
		.st2 {fill:#515050;stroke:none;stroke-linecap:butt;stroke-width:0.75}
		.st3 {fill:none;fill-rule:evenodd;font-size:12px;overflow:visible;stroke-linecap:square;stroke-miterlimit:3}
	]]>
	</style>

	<g v:mID="0" v:index="1" v:groupContext="foregroundPage">
		<title>Page-1</title>
		<v:pageProperties v:drawingScale="0.0393701" v:pageScale="0.0393701" v:drawingUnits="24" v:shadowOffsetX="8.50394"
				v:shadowOffsetY="-8.50394"/>
		<v:layer v:name="symbols" v:index="0"/>
		<g id="group1-1" transform="translate(6.9375,-6.5625)" v:mID="1" v:groupContext="group" v:layerMember="0">
			<title>CD-DVD</title>
			<g id="group2-2" v:mID="2" v:groupContext="group" v:layerMember="0">
				<title>Sheet.2</title>
				<g id="shape3-3" v:mID="3" v:groupContext="shape" v:layerMember="0">
					<title>Sheet.3</title>
					<path d="M26.62 66.37 C11.92 66.37 0 54.45 0 39.75 C0 25.05 11.92 13.12 26.62 13.12 C41.33 13.12 53.25 25.05
								 53.25 39.75 C53.25 54.45 41.33 66.37 26.62 66.37 Z" class="st1"/>
				</g>
				<g id="group4-5" transform="translate(2.25,-2.25)" v:mID="4" v:groupContext="group" v:layerMember="0">
					<title>Sheet.4</title>
					<g id="shape5-6" v:mID="5" v:groupContext="shape" v:layerMember="0">
						<title>Sheet.5</title>
						<path d="M24.38 17.62 C10.95 17.62 0 28.57 0 42 C0 55.42 10.95 66.37 24.38 66.37 C37.8 66.37 48.75 55.42
									 48.75 42 C48.75 28.57 37.8 17.62 24.38 17.62 ZM24.38 53.7 C17.93 53.7 12.68 48.45 12.68 42 C12.68
									 35.55 17.93 30.3 24.38 30.3 C30.82 30.3 36.08 35.55 36.08 42 C36.08 48.45 30.82 53.7 24.38 53.7
									 Z" class="st2"/>
					</g>
					<g id="shape6-8" v:mID="6" v:groupContext="shape" v:layerMember="0" transform="translate(14.625,-14.625)">
						<title>Sheet.6</title>
						<path d="M9.75 46.87 C4.35 46.87 0 51.22 0 56.62 C0 62.02 4.35 66.37 9.75 66.37 C15.15 66.37 19.5 62.02 19.5
									 56.62 C19.5 51.22 15.15 46.87 9.75 46.87 ZM9.75 59.55 C8.1 59.55 6.83 58.27 6.83 56.62 C6.83
									 54.97 8.1 53.7 9.75 53.7 C11.4 53.7 12.68 54.97 12.68 56.62 C12.68 58.27 11.4 59.55 9.75 59.55
									 Z" class="st2"/>
					</g>
				</g>
			</g>
		</g>
	</g>
</svg>
