<?xml version="1.0" encoding="UTF-8" standalone="no"?>
<!DOCTYPE svg PUBLIC "-//W3C//DTD SVG 1.1//EN" "http://www.w3.org/Graphics/SVG/1.1/DTD/svg11.dtd">
<!-- Generated by Microsoft Visio, SVG Export Cell Phone, Generic.svg Page-1 -->
<svg xmlns="http://www.w3.org/2000/svg" xmlns:xlink="http://www.w3.org/1999/xlink" xmlns:ev="http://www.w3.org/2001/xml-events"
		xmlns:v="http://schemas.microsoft.com/visio/2003/SVGExtensions/" width="0.59375in" height="0.890625in"
		viewBox="0 0 42.75 64.125" xml:space="preserve" color-interpolation-filters="sRGB" class="st3">
	<v:documentProperties v:langID="4108" v:metric="true" v:viewMarkup="false"/>

	<style type="text/css">
	<![CDATA[
		.st1 {fill:#ffffff;stroke:none;stroke-linecap:butt;stroke-width:0.75}
		.st2 {fill:#515050;stroke:none;stroke-linecap:butt;stroke-width:0.75}
		.st3 {fill:none;fill-rule:evenodd;font-size:12px;overflow:visible;stroke-linecap:square;stroke-miterlimit:3}
	]]>
	</style>

	<g v:mID="0" v:index="1" v:groupContext="foregroundPage">
		<title>Page-1</title>
		<v:pageProperties v:drawingScale="0.0393701" v:pageScale="0.0393701" v:drawingUnits="24" v:shadowOffsetX="8.50394"
				v:shadowOffsetY="-8.50394"/>
		<v:layer v:name="symbols" v:index="0"/>
		<g id="group7-1" transform="translate(6,-6.1875)" v:mID="7" v:groupContext="group" v:layerMember="0">
			<title>Cell Phone, Generic</title>
			<g id="group8-2" v:mID="8" v:groupContext="group" v:layerMember="0">
				<title>Sheet.8</title>
				<g id="shape9-3" v:mID="9" v:groupContext="shape" v:layerMember="0">
					<title>Sheet.9</title>
					<path d="M5.25 64.12 C2.32 64.12 0 61.8 0 58.87 L0 17.62 C-0 14.7 2.33 12.37 5.25 12.37 L25.5 12.37 C28.43 12.37
								 30.75 14.7 30.75 17.62 L30.75 58.87 C30.75 61.8 28.43 64.12 25.5 64.12 L5.25 64.12 Z" class="st1"/>
				</g>
				<g id="shape10-5" v:mID="10" v:groupContext="shape" v:layerMember="0" transform="translate(2.25,-2.25)">
					<title>Sheet.10</title>
					<path d="M23.25 16.87 L3 16.87 C1.35 16.87 0 18.22 0 19.87 L0 61.12 C0 62.77 1.35 64.12 3 64.12 L23.25 64.12
								 C24.9 64.12 26.25 62.77 26.25 61.12 L26.25 19.87 C26.25 18.22 24.9 16.87 23.25 16.87 ZM15.75 59.62
								 C15.75 60.07 15.45 60.37 15 60.37 L11.25 60.37 C10.8 60.37 10.5 60.07 10.5 59.62 L10.5 58.12 C10.5
								 57.67 10.8 57.37 11.25 57.37 L15 57.37 C15.45 57.37 15.75 57.67 15.75 58.12 L15.75 59.62 ZM23.25
								 54.37 L3 54.37 L3 22.87 L23.25 22.87 L23.25 54.37 Z" class="st2"/>
				</g>
			</g>
		</g>
	</g>
</svg>
