<?xml version="1.0" encoding="UTF-8" standalone="no"?>
<!DOCTYPE svg PUBLIC "-//W3C//DTD SVG 1.1//EN" "http://www.w3.org/Graphics/SVG/1.1/DTD/svg11.dtd">
<!-- Generated by Microsoft Visio, SVG Export Cell Phone, iPhone, Stand-alone.svg Page-1 -->
<svg xmlns="http://www.w3.org/2000/svg" xmlns:xlink="http://www.w3.org/1999/xlink" xmlns:ev="http://www.w3.org/2001/xml-events"
		xmlns:v="http://schemas.microsoft.com/visio/2003/SVGExtensions/" width="0.5in" height="0.78125in" viewBox="0 0 36 56.25"
		xml:space="preserve" color-interpolation-filters="sRGB" class="st3">
	<v:documentProperties v:langID="4108" v:metric="true" v:viewMarkup="false"/>

	<style type="text/css">
	<![CDATA[
		.st1 {fill:#ffffff;stroke:none;stroke-linecap:butt;stroke-width:0.75}
		.st2 {fill:#515251;stroke:none;stroke-linecap:butt;stroke-width:0.75}
		.st3 {fill:none;fill-rule:evenodd;font-size:12px;overflow:visible;stroke-linecap:square;stroke-miterlimit:3}
	]]>
	</style>

	<g v:mID="0" v:index="1" v:groupContext="foregroundPage">
		<title>Page-1</title>
		<v:pageProperties v:drawingScale="0.0393701" v:pageScale="0.0393701" v:drawingUnits="24" v:shadowOffsetX="8.50394"
				v:shadowOffsetY="-8.50394"/>
		<v:layer v:name="symbols" v:index="0"/>
		<g id="group37-1" transform="translate(4.125,-5.0625)" v:mID="37" v:groupContext="group" v:layerMember="0">
			<title>Cell Phone, iPhone, Stand-alone</title>
			<g id="group38-2" v:mID="38" v:groupContext="group" v:layerMember="0">
				<title>Sheet.38</title>
				<g id="group39-3" v:mID="39" v:groupContext="group" v:layerMember="0">
					<title>Sheet.39</title>
					<g id="shape40-4" v:mID="40" v:groupContext="shape" v:layerMember="0">
						<title>Sheet.40</title>
						<path d="M5.25 56.25 C2.33 56.25 0 53.92 0 51 L0 14.25 C0 11.32 2.33 9 5.25 9 L22.5 9 C25.43 9 27.75 11.32
									 27.75 14.25 L27.75 51 C27.75 53.92 25.43 56.25 22.5 56.25 L5.25 56.25 Z" class="st1"/>
					</g>
					<g id="shape41-6" v:mID="41" v:groupContext="shape" v:layerMember="0" transform="translate(2.25,-2.25)">
						<title>Sheet.41</title>
						<path d="M20.25 13.5 L3 13.5 C1.35 13.5 0 14.85 0 16.5 L0 53.25 C-0 54.9 1.35 56.25 3 56.25 L20.25 56.25
									 C21.9 56.25 23.25 54.9 23.25 53.25 L23.25 16.5 C23.25 14.85 21.9 13.5 20.25 13.5 ZM21 48 L2.25
									 48 L2.25 19.5 L21 19.5 L21 48 Z" class="st2"/>
					</g>
				</g>
				<g id="shape42-8" v:mID="42" v:groupContext="shape" v:layerMember="0" transform="translate(12,-4.5)">
					<title>Sheet.42</title>
					<ellipse cx="1.875" cy="54.375" rx="1.875" ry="1.875" class="st1"/>
				</g>
				<g id="shape43-10" v:mID="43" v:groupContext="shape" v:layerMember="0" transform="translate(10.95,-42)">
					<title>Sheet.43</title>
					<path d="M5.92 55.87 C5.92 56.1 5.77 56.25 5.62 56.25 L0.3 56.25 C0.15 56.25 0 56.1 0 55.87 C0 55.65 0.15 55.5
								 0.3 55.5 L5.62 55.5 C5.77 55.5 5.92 55.65 5.92 55.87 Z" class="st1"/>
				</g>
			</g>
		</g>
	</g>
</svg>
