<?xml version="1.0" encoding="UTF-8" standalone="no"?>
<!DOCTYPE svg PUBLIC "-//W3C//DTD SVG 1.1//EN" "http://www.w3.org/Graphics/SVG/1.1/DTD/svg11.dtd">
<!-- Generated by Microsoft Visio, SVG Export Cell Phone, Android, Proportional.svg Page-1 -->
<svg xmlns="http://www.w3.org/2000/svg" xmlns:xlink="http://www.w3.org/1999/xlink" xmlns:ev="http://www.w3.org/2001/xml-events"
		xmlns:v="http://schemas.microsoft.com/visio/2003/SVGExtensions/" width="0.484375in" height="0.65625in"
		viewBox="0 0 34.875 47.25" xml:space="preserve" color-interpolation-filters="sRGB" class="st3">
	<v:documentProperties v:langID="4108" v:metric="true" v:viewMarkup="false"/>

	<style type="text/css">
	<![CDATA[
		.st1 {fill:#ffffff;stroke:none;stroke-linecap:butt;stroke-width:0.75}
		.st2 {fill:#515150;stroke:none;stroke-linecap:butt;stroke-width:0.75}
		.st3 {fill:none;fill-rule:evenodd;font-size:12px;overflow:visible;stroke-linecap:square;stroke-miterlimit:3}
	]]>
	</style>

	<g v:mID="0" v:index="1" v:groupContext="foregroundPage">
		<title>Page-1</title>
		<v:pageProperties v:drawingScale="0.0393701" v:pageScale="0.0393701" v:drawingUnits="24" v:shadowOffsetX="8.50394"
				v:shadowOffsetY="-8.50394"/>
		<v:layer v:name="symbols" v:index="0"/>
		<g id="group15-1" transform="translate(6.4125,-5.4375)" v:mID="15" v:groupContext="group" v:layerMember="0">
			<title>Cell Phone, Android, Proportional</title>
			<g id="group16-2" v:mID="16" v:groupContext="group" v:layerMember="0">
				<title>Sheet.16</title>
				<g id="shape17-3" v:mID="17" v:groupContext="shape" v:layerMember="0">
					<title>Sheet.17</title>
					<path d="M10.88 47.25 C8.02 47.25 5.47 46.95 3.98 46.43 C1.58 45.6 0 43.35 0 40.8 L0 18.45 C0 15.98 1.58 13.73
								 3.98 12.83 C5.47 12.3 8.02 12 10.88 12 C13.72 12 16.35 12.3 17.78 12.83 C20.1 13.65 21.68 15.9 21.68
								 18.45 L21.68 40.8 C21.67 43.28 20.1 45.53 17.78 46.43 C16.35 46.95 13.72 47.25 10.88 47.25 Z"
							class="st1"/>
				</g>
				<g id="shape18-5" v:mID="18" v:groupContext="shape" v:layerMember="0" transform="translate(2.25,-2.25)">
					<title>Sheet.18</title>
					<path d="M17.25 43.05 C17.25 44.78 16.12 46.05 14.78 46.5 C13.88 46.8 11.85 47.25 8.62 47.25 C5.4 47.25 3.37
								 46.88 2.48 46.5 C1.13 46.05 0 44.7 0 43.05 L0 20.7 C0 18.98 1.13 17.7 2.48 17.25 C3.37 16.95 5.4
								 16.5 8.62 16.5 C11.85 16.5 13.88 16.88 14.78 17.25 C16.12 17.7 17.25 19.05 17.25 20.7 L17.25 43.05
								 Z" class="st2"/>
				</g>
				<g id="shape19-7" v:mID="19" v:groupContext="shape" v:layerMember="0" transform="translate(3.75,-7.5)">
					<title>Sheet.19</title>
					<rect x="0" y="26.25" width="14.25" height="21" class="st1"/>
				</g>
				<g id="shape20-9" v:mID="20" v:groupContext="shape" v:layerMember="0" transform="translate(8.25,-4.5)">
					<title>Sheet.20</title>
					<path d="M5.25 46.5 C5.25 46.95 4.95 47.25 4.5 47.25 L0.75 47.25 C0.3 47.25 0 46.95 0 46.5 C0 46.05 0.3 45.75
								 0.75 45.75 L4.5 45.75 C4.95 45.75 5.25 46.05 5.25 46.5 Z" class="st1"/>
				</g>
				<g id="shape21-11" v:mID="21" v:groupContext="shape" v:layerMember="0" transform="translate(9,-30)">
					<title>Sheet.21</title>
					<path d="M3.75 46.88 C3.75 47.1 3.6 47.25 3.38 47.25 L0.38 47.25 C0.15 47.25 0 47.1 0 46.88 C-0 46.65 0.15 46.5
								 0.38 46.5 L3.38 46.5 C3.6 46.5 3.75 46.65 3.75 46.88 Z" class="st1"/>
				</g>
			</g>
		</g>
	</g>
</svg>
