<?xml version="1.0" encoding="UTF-8" standalone="no"?>
<!DOCTYPE svg PUBLIC "-//W3C//DTD SVG 1.1//EN" "http://www.w3.org/Graphics/SVG/1.1/DTD/svg11.dtd">
<!-- Generated by Microsoft Visio, SVG Export Cell Phone, Windows Phone, Proportional.svg Page-1 -->
<svg xmlns="http://www.w3.org/2000/svg" xmlns:xlink="http://www.w3.org/1999/xlink" xmlns:ev="http://www.w3.org/2001/xml-events"
		xmlns:v="http://schemas.microsoft.com/visio/2003/SVGExtensions/" width="0.40625in" height="0.578125in"
		viewBox="0 0 29.25 41.625" xml:space="preserve" color-interpolation-filters="sRGB" class="st3">
	<v:documentProperties v:langID="4108" v:metric="true" v:viewMarkup="false"/>

	<style type="text/css">
	<![CDATA[
		.st1 {fill:#ffffff;stroke:none;stroke-linecap:butt;stroke-width:0.75}
		.st2 {fill:#515150;stroke:none;stroke-linecap:butt;stroke-width:0.75}
		.st3 {fill:none;fill-rule:evenodd;font-size:12px;overflow:visible;stroke-linecap:square;stroke-miterlimit:3}
	]]>
	</style>

	<g v:mID="0" v:index="1" v:groupContext="foregroundPage">
		<title>Page-1</title>
		<v:pageProperties v:drawingScale="0.0393701" v:pageScale="0.0393701" v:drawingUnits="24" v:shadowOffsetX="8.50394"
				v:shadowOffsetY="-8.50394"/>
		<v:layer v:name="symbols" v:index="0"/>
		<g id="group44-1" transform="translate(4.3125,-3.9375)" v:mID="44" v:groupContext="group" v:layerMember="0">
			<title>Cell Phone, Windows Phone, Proportional</title>
			<g id="group45-2" v:mID="45" v:groupContext="group" v:layerMember="0">
				<title>Sheet.45</title>
				<g id="shape46-3" v:mID="46" v:groupContext="shape" v:layerMember="0">
					<title>Sheet.46</title>
					<path d="M3.75 41.63 C1.65 41.63 0 39.98 0 37.88 L0 11.63 C-0 9.53 1.65 7.88 3.75 7.88 L17.25 7.88 C19.35 7.88
								 21 9.53 21 11.63 L21 37.88 C21 39.98 19.35 41.63 17.25 41.63 L3.75 41.63 Z" class="st1"/>
				</g>
				<g id="shape47-5" v:mID="47" v:groupContext="shape" v:layerMember="0" transform="translate(2.25,-2.25)">
					<title>Sheet.47</title>
					<path d="M16.5 40.13 C16.5 40.95 15.83 41.63 15 41.63 L1.5 41.63 C0.68 41.63 0 40.95 0 40.13 L0 13.88 C0 13.05
								 0.68 12.38 1.5 12.38 L15 12.38 C15.83 12.38 16.5 13.05 16.5 13.88 L16.5 40.13 Z" class="st2"/>
				</g>
				<g id="shape48-7" v:mID="48" v:groupContext="shape" v:layerMember="0" transform="translate(4.5,-6.75)">
					<title>Sheet.48</title>
					<rect x="0" y="21.375" width="12" height="20.25" class="st1"/>
				</g>
				<g id="shape49-9" v:mID="49" v:groupContext="shape" v:layerMember="0" transform="translate(9,-29.25)">
					<title>Sheet.49</title>
					<path d="M3 41.25 C3 41.48 2.92 41.63 2.85 41.63 L0.15 41.63 C0.08 41.63 0 41.48 0 41.25 C-0 41.03 0.08 40.88
								 0.15 40.88 L2.85 40.88 C2.92 40.88 3 41.03 3 41.25 Z" class="st1"/>
				</g>
				<g id="shape50-11" v:mID="50" v:groupContext="shape" v:layerMember="0" transform="translate(6,-3.75)">
					<title>Sheet.50</title>
					<ellipse cx="0.75" cy="40.875" rx="0.75" ry="0.75" class="st1"/>
				</g>
				<g id="shape51-13" v:mID="51" v:groupContext="shape" v:layerMember="0" transform="translate(9.75,-3.75)">
					<title>Sheet.51</title>
					<ellipse cx="0.75" cy="40.875" rx="0.75" ry="0.75" class="st1"/>
				</g>
				<g id="shape52-15" v:mID="52" v:groupContext="shape" v:layerMember="0" transform="translate(13.5,-3.75)">
					<title>Sheet.52</title>
					<ellipse cx="0.75" cy="40.875" rx="0.75" ry="0.75" class="st1"/>
				</g>
			</g>
		</g>
	</g>
</svg>
