<?xml version="1.0" encoding="UTF-8" standalone="no"?>
<!DOCTYPE svg PUBLIC "-//W3C//DTD SVG 1.1//EN" "http://www.w3.org/Graphics/SVG/1.1/DTD/svg11.dtd">
<!-- Generated by Microsoft Visio, SVG Export Cell Phone, Android, Stand-alone.svg Page-1 -->
<svg xmlns="http://www.w3.org/2000/svg" xmlns:xlink="http://www.w3.org/1999/xlink" xmlns:ev="http://www.w3.org/2001/xml-events"
		xmlns:v="http://schemas.microsoft.com/visio/2003/SVGExtensions/" width="0.546875in" height="0.796875in"
		viewBox="0 0 39.375 57.375" xml:space="preserve" color-interpolation-filters="sRGB" class="st3">
	<v:documentProperties v:langID="4108" v:metric="true" v:viewMarkup="false"/>

	<style type="text/css">
	<![CDATA[
		.st1 {fill:#ffffff;stroke:none;stroke-linecap:butt;stroke-width:0.75}
		.st2 {fill:#515150;stroke:none;stroke-linecap:butt;stroke-width:0.75}
		.st3 {fill:none;fill-rule:evenodd;font-size:12px;overflow:visible;stroke-linecap:square;stroke-miterlimit:3}
	]]>
	</style>

	<g v:mID="0" v:index="1" v:groupContext="foregroundPage">
		<title>Page-1</title>
		<v:pageProperties v:drawingScale="0.0393701" v:pageScale="0.0393701" v:drawingUnits="24" v:shadowOffsetX="8.50394"
				v:shadowOffsetY="-8.50394"/>
		<v:layer v:name="symbols" v:index="0"/>
		<g id="group22-1" transform="translate(5.55,-4.6875)" v:mID="22" v:groupContext="group" v:layerMember="0">
			<title>Cell Phone, Android, Stand-alone</title>
			<g id="group23-2" v:mID="23" v:groupContext="group" v:layerMember="0">
				<title>Sheet.23</title>
				<g id="shape24-3" v:mID="24" v:groupContext="shape" v:layerMember="0">
					<title>Sheet.24</title>
					<path d="M0 49.2 L0 17.55 L0.37 15.3 C1.05 13.13 2.7 11.33 4.95 10.5 C5.7 10.2 8.55 9.38 14.32 9.38 C20.1 9.38
								 22.95 10.28 23.7 10.5 C25.87 11.33 27.52 13.13 28.28 15.3 L28.65 17.55 L28.65 49.2 L28.28 51.45
								 C27.6 53.63 25.95 55.43 23.7 56.25 C22.95 56.55 20.1 57.38 14.32 57.38 C8.55 57.38 5.7 56.48 4.95
								 56.25 C2.78 55.43 1.12 53.63 0.37 51.45 L0 49.2 Z" class="st1"/>
				</g>
				<g id="shape25-5" v:mID="25" v:groupContext="shape" v:layerMember="0" transform="translate(2.325,-2.25)">
					<title>Sheet.25</title>
					<path d="M23.92 51.45 C23.92 53.85 22.35 55.73 20.47 56.4 C19.27 56.78 16.35 57.38 11.92 57.38 C7.5 57.38 4.58
								 56.78 3.37 56.33 C1.5 55.65 0 53.85 0 51.38 L0 19.8 C0 17.4 1.57 15.53 3.37 14.85 C4.58 14.48 7.5
								 13.88 11.92 13.88 C16.35 13.88 19.27 14.48 20.47 14.92 C22.35 15.6 23.85 17.4 23.85 19.88 L23.85
								 51.45 L23.92 51.45 Z" class="st2"/>
				</g>
				<g id="shape26-7" v:mID="26" v:groupContext="shape" v:layerMember="0" transform="translate(4.5,-9)">
					<title>Sheet.26</title>
					<rect x="0" y="26.625" width="19.5" height="30.75" class="st1"/>
				</g>
				<g id="shape27-9" v:mID="27" v:groupContext="shape" v:layerMember="0" transform="translate(11.25,-5.25)">
					<title>Sheet.27</title>
					<path d="M6 56.85 C6 57.15 5.7 57.38 5.25 57.38 L0.75 57.38 C0.3 57.38 0 57.15 0 56.85 L0 56.33 C-0 56.03 0.3
								 55.8 0.75 55.8 L5.25 55.8 C5.7 55.8 6 56.03 6 56.33 L6 56.85 Z" class="st1"/>
				</g>
				<g id="shape28-11" v:mID="28" v:groupContext="shape" v:layerMember="0" transform="translate(11.325,-42)">
					<title>Sheet.28</title>
					<path d="M5.92 57 C5.92 57.23 5.77 57.38 5.62 57.38 L0.3 57.38 C0.15 57.38 0 57.23 0 57 C0 56.78 0.15 56.63 0.3
								 56.63 L5.62 56.63 C5.77 56.63 5.92 56.78 5.92 57 Z" class="st1"/>
				</g>
			</g>
		</g>
	</g>
</svg>
