<?xml version="1.0" encoding="UTF-8" standalone="no"?>
<!DOCTYPE svg PUBLIC "-//W3C//DTD SVG 1.1//EN" "http://www.w3.org/Graphics/SVG/1.1/DTD/svg11.dtd">
<!-- Generated by Microsoft Visio, SVG Export Cell Phone, iPhone, Proportional.svg Page-1 -->
<svg xmlns="http://www.w3.org/2000/svg" xmlns:xlink="http://www.w3.org/1999/xlink" xmlns:ev="http://www.w3.org/2001/xml-events"
		xmlns:v="http://schemas.microsoft.com/visio/2003/SVGExtensions/" width="0.4375in" height="0.609375in"
		viewBox="0 0 31.5 43.875" xml:space="preserve" color-interpolation-filters="sRGB" class="st3">
	<v:documentProperties v:langID="4108" v:metric="true" v:viewMarkup="false"/>

	<style type="text/css">
	<![CDATA[
		.st1 {fill:#ffffff;stroke:none;stroke-linecap:butt;stroke-width:0.75}
		.st2 {fill:#515150;stroke:none;stroke-linecap:butt;stroke-width:0.75}
		.st3 {fill:none;fill-rule:evenodd;font-size:12px;overflow:visible;stroke-linecap:square;stroke-miterlimit:3}
	]]>
	</style>

	<g v:mID="0" v:index="1" v:groupContext="foregroundPage">
		<title>Page-1</title>
		<v:pageProperties v:drawingScale="0.0393701" v:pageScale="0.0393701" v:drawingUnits="24" v:shadowOffsetX="8.50394"
				v:shadowOffsetY="-8.50394"/>
		<v:layer v:name="symbols" v:index="0"/>
		<g id="group29-1" transform="translate(4.6875,-5.0625)" v:mID="29" v:groupContext="group" v:layerMember="0">
			<title>Cell Phone, iPhone, Proportional</title>
			<g id="group30-2" v:mID="30" v:groupContext="group" v:layerMember="0">
				<title>Sheet.30</title>
				<g id="group31-3" v:mID="31" v:groupContext="group" v:layerMember="0">
					<title>Sheet.31</title>
					<g id="group32-4" v:mID="32" v:groupContext="group" v:layerMember="0">
						<title>Sheet.32</title>
						<g id="shape33-5" v:mID="33" v:groupContext="shape" v:layerMember="0">
							<title>Sheet.33</title>
							<path d="M4.5 43.87 C2.18 43.87 0 41.7 0 39.38 L0 14.62 C0 12.3 2.17 10.12 4.5 10.12 L17.25 10.12 C19.58
										 10.13 21.75 12.3 21.75 14.62 L21.75 39.38 C21.75 41.7 19.58 43.87 17.25 43.87 L4.5 43.87
										 Z" class="st1"/>
						</g>
						<g id="shape34-7" v:mID="34" v:groupContext="shape" v:layerMember="0" transform="translate(2.25,-2.25)">
							<title>Sheet.34</title>
							<path d="M14.92 14.62 L2.25 14.62 C0.97 14.62 0 15.6 0 16.87 L0 41.62 C-0 42.9 0.97 43.87 2.25 43.87
										 L14.92 43.87 C16.2 43.87 17.17 42.9 17.17 41.62 L17.17 16.87 C17.17 15.6 16.12 14.62 14.92
										 14.62 ZM15 38.62 L2.25 38.62 L2.25 19.12 L15 19.12 L15 38.62 Z" class="st2"/>
						</g>
					</g>
					<g id="shape35-9" v:mID="35" v:groupContext="shape" v:layerMember="0" transform="translate(8.85,-29.325)">
						<title>Sheet.35</title>
						<path d="M4.05 43.65 C4.05 43.8 3.97 43.87 3.82 43.87 L0.22 43.87 C0.07 43.87 0 43.72 0 43.65 C-0 43.5 0.08
									 43.42 0.22 43.42 L3.82 43.42 C3.9 43.35 4.05 43.5 4.05 43.65 Z" class="st1"/>
					</g>
				</g>
				<g id="shape36-11" v:mID="36" v:groupContext="shape" v:layerMember="0" transform="translate(9.75,-3.75)">
					<title>Sheet.36</title>
					<ellipse cx="1.125" cy="42.75" rx="1.125" ry="1.125" class="st1"/>
				</g>
			</g>
		</g>
	</g>
</svg>
