<?xml version="1.0" encoding="UTF-8" standalone="no"?>
<!DOCTYPE svg PUBLIC "-//W3C//DTD SVG 1.1//EN" "http://www.w3.org/Graphics/SVG/1.1/DTD/svg11.dtd">
<!-- Generated by Microsoft Visio, SVG Export Cell Phone, Windows Phone, Stand-alone.svg Page-1 -->
<svg xmlns="http://www.w3.org/2000/svg" xmlns:xlink="http://www.w3.org/1999/xlink" xmlns:ev="http://www.w3.org/2001/xml-events"
		xmlns:v="http://schemas.microsoft.com/visio/2003/SVGExtensions/" width="0.515625in" height="0.765625in"
		viewBox="0 0 37.125 55.125" xml:space="preserve" color-interpolation-filters="sRGB" class="st3">
	<v:documentProperties v:langID="4108" v:metric="true" v:viewMarkup="false"/>

	<style type="text/css">
	<![CDATA[
		.st1 {fill:#ffffff;stroke:none;stroke-linecap:butt;stroke-width:0.75}
		.st2 {fill:#515150;stroke:none;stroke-linecap:butt;stroke-width:0.75}
		.st3 {fill:none;fill-rule:evenodd;font-size:12px;overflow:visible;stroke-linecap:square;stroke-miterlimit:3}
	]]>
	</style>

	<g v:mID="0" v:index="1" v:groupContext="foregroundPage">
		<title>Page-1</title>
		<v:pageProperties v:drawingScale="0.0393701" v:pageScale="0.0393701" v:drawingUnits="24" v:shadowOffsetX="8.50394"
				v:shadowOffsetY="-8.50394"/>
		<v:layer v:name="symbols" v:index="0"/>
		<g id="group53-1" transform="translate(4.6875,-4.3125)" v:mID="53" v:groupContext="group" v:layerMember="0">
			<title>Cell Phone, Windows Phone, Stand-alone</title>
			<g id="group54-2" v:mID="54" v:groupContext="group" v:layerMember="0">
				<title>Sheet.54</title>
				<g id="shape55-3" v:mID="55" v:groupContext="shape" v:layerMember="0">
					<title>Sheet.55</title>
					<path d="M3.75 55.13 C1.65 55.13 0 53.48 0 51.38 L0 12.38 C0 10.28 1.65 8.63 3.75 8.63 L24 8.63 C26.1 8.63 27.75
								 10.28 27.75 12.38 L27.75 51.38 C27.75 53.48 26.1 55.13 24 55.13 L3.75 55.13 Z" class="st1"/>
				</g>
				<g id="shape56-5" v:mID="56" v:groupContext="shape" v:layerMember="0" transform="translate(2.25,-2.25)">
					<title>Sheet.56</title>
					<path d="M21.75 13.13 L1.5 13.13 C0.67 13.13 0 13.8 0 14.63 L0 53.63 C0 54.45 0.67 55.13 1.5 55.13 L21.75 55.13
								 C22.57 55.13 23.25 54.45 23.25 53.63 L23.25 14.63 C23.25 13.8 22.57 13.13 21.75 13.13 ZM21 48.38
								 L2.25 48.38 L2.25 19.88 L21 19.88 L21 48.38 Z" class="st2"/>
				</g>
				<g id="shape57-7" v:mID="57" v:groupContext="shape" v:layerMember="0" transform="translate(7.5,-4.5)">
					<title>Sheet.57</title>
					<ellipse cx="1.125" cy="54" rx="1.125" ry="1.125" class="st1"/>
				</g>
				<g id="shape58-9" v:mID="58" v:groupContext="shape" v:layerMember="0" transform="translate(12.75,-4.5)">
					<title>Sheet.58</title>
					<ellipse cx="1.125" cy="54" rx="1.125" ry="1.125" class="st1"/>
				</g>
				<g id="shape59-11" v:mID="59" v:groupContext="shape" v:layerMember="0" transform="translate(18,-4.5)">
					<title>Sheet.59</title>
					<ellipse cx="1.125" cy="54" rx="1.125" ry="1.125" class="st1"/>
				</g>
				<g id="shape60-13" v:mID="60" v:groupContext="shape" v:layerMember="0" transform="translate(11.25,-41.25)">
					<title>Sheet.60</title>
					<path d="M5.25 54.75 C5.25 54.98 5.1 55.13 4.95 55.13 L0.3 55.13 C0.15 55.13 0 54.98 0 54.75 C0 54.53 0.15 54.38
								 0.3 54.38 L4.95 54.38 C5.18 54.38 5.25 54.53 5.25 54.75 Z" class="st1"/>
				</g>
			</g>
		</g>
	</g>
</svg>
