<?xml version="1.0" encoding="UTF-8" standalone="no"?>
<!DOCTYPE svg PUBLIC "-//W3C//DTD SVG 1.1//EN" "http://www.w3.org/Graphics/SVG/1.1/DTD/svg11.dtd">
<!-- Generated by Microsoft Visio, SVG Export Data Jack.svg Page-1 -->
<svg xmlns="http://www.w3.org/2000/svg" xmlns:xlink="http://www.w3.org/1999/xlink" xmlns:ev="http://www.w3.org/2001/xml-events"
		xmlns:v="http://schemas.microsoft.com/visio/2003/SVGExtensions/" width="0.890625in" height="0.890625in"
		viewBox="0 0 64.125 64.125" xml:space="preserve" color-interpolation-filters="sRGB" class="st3">
	<v:documentProperties v:langID="4108" v:metric="true" v:viewMarkup="false"/>

	<style type="text/css">
	<![CDATA[
		.st1 {fill:#ffffff;stroke:none;stroke-linecap:butt;stroke-width:0.75}
		.st2 {fill:#515050;stroke:none;stroke-linecap:butt;stroke-width:0.75}
		.st3 {fill:none;fill-rule:evenodd;font-size:12px;overflow:visible;stroke-linecap:square;stroke-miterlimit:3}
	]]>
	</style>

	<g v:mID="0" v:index="1" v:groupContext="foregroundPage">
		<title>Page-1</title>
		<v:pageProperties v:drawingScale="0.0393701" v:pageScale="0.0393701" v:drawingUnits="24" v:shadowOffsetX="8.50394"
				v:shadowOffsetY="-8.50394"/>
		<v:layer v:name="symbols" v:index="0"/>
		<g id="group61-1" transform="translate(6.375,-6.15)" v:mID="61" v:groupContext="group" v:layerMember="0">
			<title>Data Jack</title>
			<g id="group62-2" v:mID="62" v:groupContext="group" v:layerMember="0">
				<title>Sheet.62</title>
				<g id="shape63-3" v:mID="63" v:groupContext="shape" v:layerMember="0">
					<title>Sheet.63</title>
					<path d="M5.93 12.3 L45.82 12.3 C49.12 12.3 51.75 15 51.75 18.22 L51.75 58.2 C51.75 61.5 49.05 64.12 45.82 64.12
								 L5.93 64.12 C2.62 64.12 0 61.5 0 58.2 L0 18.3 C0 15 2.62 12.37 5.93 12.3 Z" class="st1"/>
				</g>
				<g id="shape64-5" v:mID="64" v:groupContext="shape" v:layerMember="0" transform="translate(2.25,-2.25)">
					<title>Sheet.64</title>
					<path d="M47.25 20.47 L47.25 60.45 C47.25 62.47 45.6 64.12 43.57 64.12 L3.68 64.12 C1.65 64.12 0 62.47 0 60.45
								 L0 20.55 C0 18.52 1.65 16.87 3.68 16.87 L43.5 16.87 C45.52 16.87 47.18 18.52 47.25 20.47 Z"
							class="st2"/>
				</g>
				<g id="shape65-7" v:mID="65" v:groupContext="shape" v:layerMember="0" transform="translate(9.75,-12.75)">
					<title>Sheet.65</title>
					<path d="M32.25 58.87 L32.25 39.37 L0 39.37 L0 58.87 L6.75 58.87 L6.75 61.87 L10.5 61.87 L10.5 64.12 L21.75 64.12
								 L21.75 61.87 L25.5 61.87 L25.5 58.87 L32.25 58.87 ZM30 56.62 L25.5 56.62 L23.25 56.62 L23.25 58.87
								 L23.25 59.62 L21.75 59.62 L19.5 59.62 L19.5 61.87 L12.75 61.87 L12.75 59.62 L10.5 59.62 L9 59.62
								 L9 58.87 L9 56.62 L6.75 56.62 L2.25 56.62 L2.25 41.62 L6 41.62 L6 44.62 L8.25 44.62 L8.25 41.62
								 L9 41.62 L9 44.62 L11.25 44.62 L11.25 41.62 L12 41.62 L12 44.62 L14.25 44.62 L14.25 41.62 L15 41.62
								 L15 44.62 L17.25 44.62 L17.25 41.62 L18 41.62 L18 44.62 L20.25 44.62 L20.25 41.62 L21 41.62 L21
								 44.62 L23.25 44.62 L23.25 41.62 L24 41.62 L24 44.62 L26.25 44.62 L26.25 41.62 L30 41.62 L30 56.62
								 Z" class="st1"/>
				</g>
			</g>
		</g>
	</g>
</svg>
