<?xml version="1.0" encoding="UTF-8" standalone="no"?>
<!DOCTYPE svg PUBLIC "-//W3C//DTD SVG 1.1//EN" "http://www.w3.org/Graphics/SVG/1.1/DTD/svg11.dtd">
<!-- Generated by Microsoft Visio, SVG Export Device, TV.svg Page-1 -->
<svg xmlns="http://www.w3.org/2000/svg" xmlns:xlink="http://www.w3.org/1999/xlink" xmlns:ev="http://www.w3.org/2001/xml-events"
		xmlns:v="http://schemas.microsoft.com/visio/2003/SVGExtensions/" width="1.125in" height="0.90625in" viewBox="0 0 81 65.25"
		xml:space="preserve" color-interpolation-filters="sRGB" class="st3">
	<v:documentProperties v:langID="4108" v:metric="true" v:viewMarkup="false"/>

	<style type="text/css">
	<![CDATA[
		.st1 {fill:#ffffff;stroke:none;stroke-linecap:butt;stroke-width:0.75}
		.st2 {fill:#515050;stroke:none;stroke-linecap:butt;stroke-width:0.75}
		.st3 {fill:none;fill-rule:evenodd;font-size:12px;overflow:visible;stroke-linecap:square;stroke-miterlimit:3}
	]]>
	</style>

	<g v:mID="0" v:index="1" v:groupContext="foregroundPage">
		<title>Page-1</title>
		<v:pageProperties v:drawingScale="0.0393701" v:pageScale="0.0393701" v:drawingUnits="24" v:shadowOffsetX="8.50394"
				v:shadowOffsetY="-8.50394"/>
		<v:layer v:name="symbols" v:index="0"/>
		<g id="group207-1" transform="translate(8.4375,-8.4375)" v:mID="207" v:groupContext="group" v:layerMember="0">
			<title>Device, TV</title>
			<g id="group208-2" v:mID="208" v:groupContext="group" v:layerMember="0">
				<title>Sheet.208</title>
				<g id="shape209-3" v:mID="209" v:groupContext="shape" v:layerMember="0">
					<title>Sheet.209</title>
					<path d="M15 65.25 C12.9 65.25 11.25 63.6 11.25 61.5 C11.25 60.3 11.85 59.18 12.75 58.5 L3.75 58.5 C1.65 58.5
								 0 56.85 0 54.75 L0 19.5 C0 17.4 1.65 15.75 3.75 15.75 L60 15.75 C62.1 15.75 63.75 17.4 63.75 19.5
								 L63.75 54.75 C63.75 56.85 62.1 58.5 60 58.5 L51 58.5 C51.9 59.18 52.5 60.3 52.5 61.5 C52.5 63.6
								 50.85 65.25 48.75 65.25 L15 65.25 Z" class="st1"/>
				</g>
				<g id="shape210-5" v:mID="210" v:groupContext="shape" v:layerMember="0" transform="translate(2.25,-2.25)">
					<title>Sheet.210</title>
					<path d="M57.75 20.25 L1.5 20.25 C0.67 20.25 0 20.93 0 21.75 L0 57 C0 57.83 0.67 58.5 1.5 58.5 L26.25 58.5 L26.25
								 62.25 L12.75 62.25 C11.92 62.25 11.25 62.93 11.25 63.75 C11.25 64.58 11.92 65.25 12.75 65.25 L46.5
								 65.25 C47.32 65.25 48 64.58 48 63.75 C48 62.93 47.32 62.25 46.5 62.25 L33 62.25 L33 58.5 L57.75
								 58.5 C58.57 58.5 59.25 57.83 59.25 57 L59.25 21.75 C59.25 20.93 58.57 20.25 57.75 20.25 Z"
							class="st2"/>
				</g>
				<g id="shape211-7" v:mID="211" v:groupContext="shape" v:layerMember="0" transform="translate(6,-15)">
					<title>Sheet.211</title>
					<rect x="0" y="36.75" width="51.75" height="28.5" class="st1"/>
				</g>
			</g>
		</g>
	</g>
</svg>
