<?xml version="1.0" encoding="UTF-8" standalone="no"?>
<!DOCTYPE svg PUBLIC "-//W3C//DTD SVG 1.1//EN" "http://www.w3.org/Graphics/SVG/1.1/DTD/svg11.dtd">
<!-- Generated by Microsoft Visio, SVG Export Device, Printer.svg Page-1 -->
<svg xmlns="http://www.w3.org/2000/svg" xmlns:xlink="http://www.w3.org/1999/xlink" xmlns:ev="http://www.w3.org/2001/xml-events"
		xmlns:v="http://schemas.microsoft.com/visio/2003/SVGExtensions/" width="1.0625in" height="0.921875in"
		viewBox="0 0 76.5 66.375" xml:space="preserve" color-interpolation-filters="sRGB" class="st3">
	<v:documentProperties v:langID="4108" v:metric="true" v:viewMarkup="false"/>

	<style type="text/css">
	<![CDATA[
		.st1 {fill:#ffffff;stroke:none;stroke-linecap:butt;stroke-width:0.75}
		.st2 {fill:#515150;stroke:none;stroke-linecap:butt;stroke-width:0.75}
		.st3 {fill:none;fill-rule:evenodd;font-size:12px;overflow:visible;stroke-linecap:square;stroke-miterlimit:3}
	]]>
	</style>

	<g v:mID="0" v:index="1" v:groupContext="foregroundPage">
		<title>Page-1</title>
		<v:pageProperties v:drawingScale="0.0393701" v:pageScale="0.0393701" v:drawingUnits="24" v:shadowOffsetX="8.50394"
				v:shadowOffsetY="-8.50394"/>
		<v:layer v:name="symbols" v:index="0"/>
		<g id="group161-1" transform="translate(8.0625,-7.3125)" v:mID="161" v:groupContext="group" v:layerMember="0">
			<title>Device, Printer</title>
			<g id="group162-2" v:mID="162" v:groupContext="group" v:layerMember="0">
				<title>Sheet.162</title>
				<g id="group163-3" v:mID="163" v:groupContext="group" v:layerMember="0">
					<title>Sheet.163</title>
					<g id="shape164-4" v:mID="164" v:groupContext="shape" v:layerMember="0">
						<title>Sheet.164</title>
						<path d="M20.25 66.38 C17.33 66.38 15 64.05 15 61.13 L15 57.38 L0 57.38 C0 57.38 0 41.25 0 41.25 C0 36.53
									 3.9 32.63 8.63 32.63 L15 32.63 L15 19.88 C15 16.95 17.33 14.63 20.25 14.63 L41.25 14.63 C44.17
									 14.63 46.5 16.95 46.5 19.88 L46.5 32.63 L52.5 32.63 C52.65 32.63 52.87 32.63 53.03 32.7 C57.45
									 33.08 60.75 36.75 60.75 41.18 C60.75 41.25 60.75 41.33 60.75 41.4 C60.75 41.48 60.75 41.55 60.75
									 41.63 L60.75 57.38 L46.5 57.38 L46.5 61.13 C46.5 64.05 44.17 66.38 41.25 66.38 L20.25 66.38
									 Z" class="st1"/>
					</g>
					<g id="shape165-6" v:mID="165" v:groupContext="shape" v:layerMember="0" transform="translate(2.25,-2.25)">
						<title>Sheet.165</title>
						<path d="M56.25 43.43 C56.25 40.13 53.7 37.43 50.48 37.13 C50.4 37.13 50.33 37.13 50.25 37.13 L42 37.13 L42
									 22.13 C42 20.48 40.65 19.13 39 19.13 L18 19.13 C16.35 19.13 15 20.48 15 22.13 L15 37.13 L7.5
									 37.13 L6.37 37.13 C2.85 37.13 0 39.98 0 43.5 C0 43.58 0 43.73 0 43.8 C0 43.8 0 43.88 0 43.88
									 L0 57.38 L15 57.38 L15 63.38 C15 65.03 16.35 66.38 18 66.38 L39 66.38 C40.65 66.38 42 65.03
									 42 63.38 L42 57.38 L56.25 57.38 L56.25 43.88 C56.25 43.8 56.25 43.8 56.25 43.73 C56.25 43.65
									 56.25 43.58 56.25 43.43 ZM5.63 44.63 C4.57 44.63 3.75 43.8 3.75 42.75 C3.75 41.7 4.58 40.88
									 5.63 40.88 C6.68 40.88 7.5 41.7 7.5 42.75 C7.5 43.8 6.68 44.63 5.63 44.63 ZM17.25 21.38 L39.75
									 21.38 L39.75 37.13 L17.25 37.13 L17.25 21.38 ZM39.75 64.13 L17.25 64.13 L17.25 53.63 L39.75
									 53.63 L39.75 64.13 Z" class="st2"/>
					</g>
				</g>
				<g id="shape166-8" v:mID="166" v:groupContext="shape" v:layerMember="0" transform="translate(24,-11.25)">
					<title>Sheet.166</title>
					<rect x="0" y="64.875" width="13.5" height="1.5" class="st2"/>
				</g>
				<g id="shape167-10" v:mID="167" v:groupContext="shape" v:layerMember="0" transform="translate(24,-7.5)">
					<title>Sheet.167</title>
					<rect x="0" y="64.875" width="13.5" height="1.5" class="st2"/>
				</g>
			</g>
		</g>
	</g>
</svg>
