<?xml version="1.0" encoding="UTF-8" standalone="no"?>
<!DOCTYPE svg PUBLIC "-//W3C//DTD SVG 1.1//EN" "http://www.w3.org/Graphics/SVG/1.1/DTD/svg11.dtd">
<!-- Generated by Microsoft Visio, SVG Export Device, Webcam HD.svg Page-1 -->
<svg xmlns="http://www.w3.org/2000/svg" xmlns:xlink="http://www.w3.org/1999/xlink" xmlns:ev="http://www.w3.org/2001/xml-events"
		xmlns:v="http://schemas.microsoft.com/visio/2003/SVGExtensions/" width="0.96875in" height="1.07813in"
		viewBox="0 0 69.75 77.625" xml:space="preserve" color-interpolation-filters="sRGB" class="st3">
	<v:documentProperties v:langID="4108" v:metric="true" v:viewMarkup="false"/>

	<style type="text/css">
	<![CDATA[
		.st1 {fill:#ffffff;stroke:none;stroke-linecap:butt;stroke-width:0.75}
		.st2 {fill:#515150;stroke:none;stroke-linecap:butt;stroke-width:0.75}
		.st3 {fill:none;fill-rule:evenodd;font-size:12px;overflow:visible;stroke-linecap:square;stroke-miterlimit:3}
	]]>
	</style>

	<g v:mID="0" v:index="1" v:groupContext="foregroundPage">
		<title>Page-1</title>
		<v:pageProperties v:drawingScale="0.0393701" v:pageScale="0.0393701" v:drawingUnits="24" v:shadowOffsetX="8.50394"
				v:shadowOffsetY="-8.50394"/>
		<v:layer v:name="symbols" v:index="0"/>
		<g id="group212-1" transform="translate(7.8,-6.9375)" v:mID="212" v:groupContext="group" v:layerMember="0">
			<title>Device, Webcam HD</title>
			<g id="group213-2" v:mID="213" v:groupContext="group" v:layerMember="0">
				<title>Sheet.213</title>
				<g id="group214-3" transform="translate(0,-9)" v:mID="214" v:groupContext="group" v:layerMember="0">
					<title>Sheet.214</title>
					<g id="group215-4" v:mID="215" v:groupContext="group" v:layerMember="0">
						<title>Sheet.215</title>
						<g id="shape216-5" v:mID="216" v:groupContext="shape" v:layerMember="0">
							<title>Sheet.216</title>
							<path d="M3.75 77.63 C1.72 77.63 0 75.98 0 74.03 L0 70.58 C0 68.7 1.58 67.58 2.4 67.28 C3.23 66.98 8.1
										 64.58 11.03 61.13 L11.7 60.3 L33.15 60.38 L33.83 61.05 C37.73 64.95 42.08 67.05 42.68 67.28
										 C43.88 67.73 45 68.93 45 70.73 L45 73.95 C45 75.98 43.35 77.55 41.4 77.55 L3.75 77.55 L3.75
										 77.63 Z" class="st1"/>
						</g>
						<g id="shape217-7" v:mID="217" v:groupContext="shape" v:layerMember="0" transform="translate(2.25,-2.25)">
							<title>Sheet.217</title>
							<path d="M10.5 64.8 C7.28 68.63 2.03 71.18 0.98 71.63 C0.82 71.7 0 72.15 0 72.83 L0 76.28 C0 77.03 0.75
										 77.63 1.5 77.63 L39.15 77.63 C39.9 77.63 40.5 77.03 40.5 76.28 L40.5 73.05 C40.5 72 39.6
										 71.7 39.6 71.7 C39.6 71.7 34.58 69.53 30 64.95 L10.5 64.8 Z" class="st2"/>
						</g>
					</g>
					<g id="shape218-9" v:mID="218" v:groupContext="shape" v:layerMember="0" transform="translate(0.75,-11.25)">
						<title>Sheet.218</title>
						<path d="M21.75 77.63 C9.75 77.63 0 67.88 0 55.88 C-0 43.88 9.75 34.13 21.75 34.13 C33.75 34.13 43.5 43.88
									 43.5 55.88 C43.5 67.88 33.75 77.63 21.75 77.63 Z" class="st1"/>
					</g>
					<g id="shape219-11" v:mID="219" v:groupContext="shape" v:layerMember="0" transform="translate(3,-13.5)">
						<title>Sheet.219</title>
						<path d="M19.5 43.13 C27.75 43.13 34.5 49.88 34.5 58.13 C34.5 66.38 27.75 73.13 19.5 73.13 C11.25 73.13 4.5
									 66.38 4.5 58.13 C4.5 49.88 11.25 43.13 19.5 43.13 ZM19.5 38.63 C8.7 38.63 0 47.33 0 58.13 C-0
									 68.93 8.7 77.63 19.5 77.63 C30.3 77.63 39 68.93 39 58.13 C39 47.33 30.3 38.63 19.5 38.63 Z"
								class="st2"/>
					</g>
					<g id="shape220-13" v:mID="220" v:groupContext="shape" v:layerMember="0" transform="translate(6,-15)">
						<title>Sheet.220</title>
						<path d="M33.08 67.13 C32.18 69.3 30.83 70.73 29.25 72.38 C27.68 74.03 25.65 75.3 23.55 76.2 C21.45 77.1
									 18.98 77.63 16.5 77.63 C14.03 77.63 11.62 77.1 9.53 76.2 C7.43 75.3 5.4 73.95 3.82 72.38 C2.25
									 70.8 0.9 69.3 0 67.13 L33.08 67.13 Z" class="st2"/>
					</g>
					<g id="shape221-15" v:mID="221" v:groupContext="shape" v:layerMember="0" transform="translate(5.925,-40.5)">
						<title>Sheet.221</title>
						<path d="M0 77.63 C0.9 75.45 2.25 74.03 3.82 72.38 C5.4 70.73 7.43 69.45 9.53 68.55 C11.62 67.65 14.1 67.13
									 16.58 67.13 C19.05 67.13 21.45 67.65 23.55 68.55 C25.65 69.45 27.68 70.8 29.25 72.38 C30.83
									 73.95 32.18 75.45 33.08 77.63 L0 77.63 Z" class="st2"/>
					</g>
					<g id="shape222-17" v:mID="222" v:groupContext="shape" v:layerMember="0" transform="translate(18.75,-29.25)">
						<title>Sheet.222</title>
						<ellipse cx="3.75" cy="73.875" rx="3.75" ry="3.75" class="st2"/>
					</g>
				</g>
				<g id="group223-19" transform="translate(19.875,2.98428E-13)" v:mID="223" v:groupContext="group" v:layerMember="0">
					<title>Sheet.223</title>
					<g id="shape224-20" v:mID="224" v:groupContext="shape" v:layerMember="0">
						<title>Sheet.224</title>
						<path d="M0 77.63 L3.6 61.2 L32.47 61.2 C37.57 61.28 40.72 64.05 40.95 68.63 C41.02 70.58 40.35 72.45 38.92
									 73.88 C36.07 76.88 31.2 77.63 29.1 77.63 L25.5 77.63 L0 77.63 Z" class="st1"/>
					</g>
					<g id="shape225-22" v:mID="225" v:groupContext="shape" v:layerMember="0" transform="translate(2.85,-2.175)">
						<title>HD_logo_2_</title>
						<path d="M13.43 65.63 L12.45 70.05 L6 70.05 L6.97 65.63 L2.63 65.63 L0 77.55 L4.27 77.55 L5.33 72.98 L11.77
									 72.98 L10.8 77.55 L15.15 77.55 L17.25 68.55 L27.15 68.55 C28.42 68.55 30.75 68.4 30.75 71.1
									 C30.75 75.38 23.92 74.78 23.92 74.78 L25.2 69.38 L20.47 69.38 L18.6 77.63 L22.57 77.63 L26.17
									 77.63 C29.32 77.63 36 75.83 35.85 70.95 C35.7 66.75 32.4 65.78 29.63 65.7 L13.43 65.7 L13.43
									 65.63 Z" class="st2"/>
					</g>
				</g>
			</g>
		</g>
	</g>
</svg>
