<?xml version="1.0" encoding="UTF-8" standalone="no"?>
<!DOCTYPE svg PUBLIC "-//W3C//DTD SVG 1.1//EN" "http://www.w3.org/Graphics/SVG/1.1/DTD/svg11.dtd">
<!-- Generated by Microsoft Visio, SVG Export Device, Webcam.svg Page-1 -->
<svg xmlns="http://www.w3.org/2000/svg" xmlns:xlink="http://www.w3.org/1999/xlink" xmlns:ev="http://www.w3.org/2001/xml-events"
		xmlns:v="http://schemas.microsoft.com/visio/2003/SVGExtensions/" width="0.84375in" height="1.01563in"
		viewBox="0 0 60.75 73.125" xml:space="preserve" color-interpolation-filters="sRGB" class="st3">
	<v:documentProperties v:langID="4108" v:metric="true" v:viewMarkup="false"/>

	<style type="text/css">
	<![CDATA[
		.st1 {fill:#ffffff;stroke:none;stroke-linecap:butt;stroke-width:0.75}
		.st2 {fill:#515150;stroke:none;stroke-linecap:butt;stroke-width:0.75}
		.st3 {fill:none;fill-rule:evenodd;font-size:12px;overflow:visible;stroke-linecap:square;stroke-miterlimit:3}
	]]>
	</style>

	<g v:mID="0" v:index="1" v:groupContext="foregroundPage">
		<title>Page-1</title>
		<v:pageProperties v:drawingScale="0.0393701" v:pageScale="0.0393701" v:drawingUnits="24" v:shadowOffsetX="8.50394"
				v:shadowOffsetY="-8.50394"/>
		<v:layer v:name="symbols" v:index="0"/>
		<g id="group226-1" transform="translate(7.95,-9.1875)" v:mID="226" v:groupContext="group" v:layerMember="0">
			<title>Device, Webcam</title>
			<g id="group227-2" v:mID="227" v:groupContext="group" v:layerMember="0">
				<title>Sheet.227</title>
				<g id="group228-3" v:mID="228" v:groupContext="group" v:layerMember="0">
					<title>Sheet.228</title>
					<g id="shape229-4" v:mID="229" v:groupContext="shape" v:layerMember="0">
						<title>Sheet.229</title>
						<path d="M3.75 73.13 C1.72 73.13 0 71.48 0 69.53 L0 66.08 C0 64.2 1.57 63.08 2.4 62.78 C3.23 62.48 8.1 60.08
									 11.02 56.63 L11.7 55.8 L33.15 55.88 L33.83 56.55 C37.72 60.45 42.08 62.55 42.67 62.78 C43.87
									 63.23 45 64.43 45 66.23 L45 69.45 C45 71.48 43.35 73.05 41.4 73.05 L3.75 73.05 L3.75 73.13 Z"
								class="st1"/>
					</g>
					<g id="shape230-6" v:mID="230" v:groupContext="shape" v:layerMember="0" transform="translate(2.25,-2.325)">
						<title>Sheet.230</title>
						<path d="M10.5 60.38 C7.28 64.2 2.03 66.75 0.97 67.13 C0.75 67.2 0 67.65 0 68.33 L0 71.78 C0 72.53 0.75 73.13
									 1.5 73.13 L39.15 73.13 C39.9 73.13 40.5 72.53 40.5 71.78 L40.5 68.55 C40.5 67.5 39.6 67.2 39.6
									 67.2 C39.6 67.2 34.57 65.03 30 60.45 L10.5 60.38 Z" class="st2"/>
					</g>
				</g>
				<g id="shape231-8" v:mID="231" v:groupContext="shape" v:layerMember="0" transform="translate(0.75,-11.25)">
					<title>Sheet.231</title>
					<path d="M21.75 73.13 C9.75 73.13 0 63.38 0 51.38 C0 39.38 9.75 29.63 21.75 29.63 C33.75 29.63 43.5 39.38 43.5
								 51.38 C43.5 63.38 33.75 73.13 21.75 73.13 Z" class="st1"/>
				</g>
				<g id="shape232-10" v:mID="232" v:groupContext="shape" v:layerMember="0" transform="translate(3,-13.5)">
					<title>Sheet.232</title>
					<path d="M19.5 38.63 C27.75 38.63 34.5 45.38 34.5 53.63 C34.5 61.88 27.75 68.63 19.5 68.63 C11.25 68.63 4.5 61.88
								 4.5 53.63 C4.5 45.38 11.25 38.63 19.5 38.63 ZM19.5 34.13 C8.7 34.13 0 42.83 0 53.63 C-0 64.43 8.7
								 73.13 19.5 73.13 C30.3 73.13 39 64.43 39 53.63 C39 42.83 30.3 34.13 19.5 34.13 Z" class="st2"/>
				</g>
				<g id="shape233-12" v:mID="233" v:groupContext="shape" v:layerMember="0" transform="translate(6,-15)">
					<title>Sheet.233</title>
					<path d="M33.07 62.63 C32.18 64.8 30.83 66.23 29.25 67.88 C27.67 69.53 25.65 70.8 23.55 71.7 C21.45 72.6 18.98
								 73.13 16.5 73.13 C14.03 73.13 11.62 72.6 9.52 71.7 C7.43 70.8 5.4 69.45 3.82 67.88 C2.25 66.3 0.9
								 64.8 0 62.63 L33.07 62.63 Z" class="st2"/>
				</g>
				<g id="shape234-14" v:mID="234" v:groupContext="shape" v:layerMember="0" transform="translate(5.925,-40.5)">
					<title>Sheet.234</title>
					<path d="M0 73.13 C0.9 70.95 2.25 69.53 3.82 67.88 C5.4 66.23 7.42 64.95 9.52 64.05 C11.63 63.15 14.02 62.63
								 16.5 62.63 C18.97 62.63 21.37 63.15 23.48 64.05 C25.57 64.95 27.6 66.3 29.17 67.88 C30.75 69.45
								 32.1 70.95 33 73.13 L0 73.13 Z" class="st2"/>
				</g>
				<g id="shape235-16" v:mID="235" v:groupContext="shape" v:layerMember="0" transform="translate(18.75,-29.25)">
					<title>Sheet.235</title>
					<ellipse cx="3.75" cy="69.375" rx="3.75" ry="3.75" class="st2"/>
				</g>
			</g>
		</g>
	</g>
</svg>
