<?xml version="1.0" encoding="UTF-8" standalone="no"?>
<!DOCTYPE svg PUBLIC "-//W3C//DTD SVG 1.1//EN" "http://www.w3.org/Graphics/SVG/1.1/DTD/svg11.dtd">
<!-- Generated by Microsoft Visio, SVG Export Device, Fax.svg Page-1 -->
<svg xmlns="http://www.w3.org/2000/svg" xmlns:xlink="http://www.w3.org/1999/xlink" xmlns:ev="http://www.w3.org/2001/xml-events"
		xmlns:v="http://schemas.microsoft.com/visio/2003/SVGExtensions/" width="1.0625in" height="0.890625in"
		viewBox="0 0 76.5 64.125" xml:space="preserve" color-interpolation-filters="sRGB" class="st3">
	<v:documentProperties v:langID="4108" v:metric="true" v:viewMarkup="false"/>

	<style type="text/css">
	<![CDATA[
		.st1 {fill:#ffffff;stroke:none;stroke-linecap:butt;stroke-width:0.75}
		.st2 {fill:#515150;stroke:none;stroke-linecap:butt;stroke-width:0.75}
		.st3 {fill:none;fill-rule:evenodd;font-size:12px;overflow:visible;stroke-linecap:square;stroke-miterlimit:3}
	]]>
	</style>

	<g v:mID="0" v:index="1" v:groupContext="foregroundPage">
		<title>Page-1</title>
		<v:pageProperties v:drawingScale="0.0393701" v:pageScale="0.0393701" v:drawingUnits="24" v:shadowOffsetX="8.50394"
				v:shadowOffsetY="-8.50394"/>
		<v:layer v:name="symbols" v:index="0"/>
		<g id="group74-1" transform="translate(7.4625,-6.225)" v:mID="74" v:groupContext="group" v:layerMember="0">
			<title>Device, Fax</title>
			<g id="group75-2" v:mID="75" v:groupContext="group" v:layerMember="0">
				<title>Sheet.75</title>
				<g id="shape76-3" v:mID="76" v:groupContext="shape" v:layerMember="0">
					<title>Sheet.76</title>
					<path d="M61.57 40.5 C61.57 36.08 58.27 32.4 53.85 31.95 C53.7 31.95 53.47 31.95 53.32 31.95 L49.58 31.95 L49.58
								 17.7 C49.58 14.78 47.25 12.45 44.33 12.45 L21.82 12.45 C18.9 12.45 16.58 14.78 16.58 17.7 L16.58
								 31.95 L13.95 31.95 C13.95 31.95 13.95 31.95 13.95 31.95 C13.95 31.58 13.95 31.28 13.87 30.98 C13.72
								 29.78 13.05 27.75 10.05 27 C9 26.78 8.48 26.7 6.98 26.7 C5.55 26.7 4.95 26.78 3.9 27 C0.83 27.75
								 0.23 29.78 0.07 30.98 C-0 31.65 0.07 32.4 0.07 33.75 C0.15 35.55 0.3 38.48 0.3 43.58 C0.3 47.63
								 0.15 50.18 0.07 52.05 C0.07 53.48 0.07 54.45 0.07 55.28 C0.15 56.25 0.68 58.65 3.98 59.33 C5.02
								 59.55 5.92 59.63 6.9 59.63 C7.95 59.63 9 59.48 9.98 59.33 C12.15 58.88 13.13 57.68 13.5 56.63 L16.5
								 56.63 L16.5 58.88 C16.5 61.8 18.82 64.13 21.75 64.13 L44.25 64.13 C47.17 64.13 49.5 61.8 49.5 58.88
								 L49.5 56.63 L61.5 56.63 L61.5 40.95 C61.5 40.88 61.5 40.8 61.5 40.73 C61.57 40.65 61.58 40.58 61.57
								 40.5 Z" class="st1"/>
				</g>
				<g id="group77-5" transform="translate(24.825,-33.675)" v:mID="77" v:groupContext="group" v:layerMember="0">
					<title>Sheet.77</title>
					<g id="shape78-6" v:mID="78" v:groupContext="shape" v:layerMember="0" transform="translate(0,-7.5)">
						<title>Sheet.78</title>
						<rect x="0" y="62.625" width="8.25" height="1.5" class="st2"/>
					</g>
					<g id="shape79-8" v:mID="79" v:groupContext="shape" v:layerMember="0" transform="translate(0,-3.75)">
						<title>Sheet.79</title>
						<rect x="0" y="62.625" width="16.5" height="1.5" class="st2"/>
					</g>
					<g id="shape80-10" v:mID="80" v:groupContext="shape" v:layerMember="0">
						<title>Sheet.80</title>
						<rect x="0" y="62.625" width="16.5" height="1.5" class="st2"/>
					</g>
				</g>
				<g id="shape81-12" v:mID="81" v:groupContext="shape" v:layerMember="0" transform="translate(2.025,-6.675)">
					<title>Sheet.81</title>
					<path d="M9.45 37.88 C9.3 36.75 8.63 36.15 7.35 35.85 C6.53 35.7 6.15 35.63 4.8 35.63 C3.45 35.63 3.08 35.7 2.25
								 35.85 C1.05 36.15 0.3 36.75 0.15 37.88 C0 39.08 0.45 41.63 0.45 50.18 C0.45 57.45 0.08 60.08 0.15
								 61.8 C0.23 62.93 1.05 63.6 2.25 63.83 C3.08 64.05 3.83 64.13 4.73 64.13 C5.63 64.13 6.53 64.05 7.35
								 63.83 C8.63 63.53 9.38 62.93 9.45 61.8 C9.6 60.08 9.23 57.6 9.23 50.33 C9.23 41.78 9.6 39.15 9.45
								 37.88 Z" class="st2"/>
				</g>
				<g id="shape82-14" v:mID="82" v:groupContext="shape" v:layerMember="0" transform="translate(13.725,-2.1)">
					<title>Sheet.82</title>
					<path d="M45.6 42.6 C45.6 39.3 43.05 36.6 39.82 36.3 C39.75 36.3 39.67 36.3 39.6 36.3 L33.6 36.3 L33.6 19.8 C33.6
								 18.15 32.25 16.8 30.6 16.8 L8.1 16.8 C6.45 16.8 5.1 18.15 5.1 19.8 L5.1 36.3 L1.35 36.3 L0.22 36.3
								 C0.22 36.3 0.15 36.3 0.15 36.3 C0.07 38.25 0 41.1 0 45.83 C0 49.8 0.08 52.28 0.15 54.08 C0.23 55.13
								 0.22 55.88 0.22 56.63 L5.1 56.63 L5.1 61.13 C5.1 62.78 6.45 64.13 8.1 64.13 L30.6 64.13 C32.25 64.13
								 33.6 62.78 33.6 61.13 L33.6 56.63 L45.6 56.63 L45.6 43.05 C45.6 42.98 45.6 42.98 45.6 42.9 C45.6
								 42.83 45.6 42.75 45.6 42.6 ZM31.35 61.8 L7.35 61.8 L7.35 52.8 L31.35 52.8 L31.35 61.8 ZM31.35 36.3
								 L7.35 36.3 L7.35 19.05 L31.35 19.05 L31.35 36.3 ZM40.35 43.05 C39.52 43.05 38.85 42.38 38.85 41.55
								 C38.85 40.73 39.52 40.05 40.35 40.05 C41.17 40.05 41.85 40.73 41.85 41.55 C41.85 42.38 41.17 43.05
								 40.35 43.05 Z" class="st2"/>
				</g>
			</g>
		</g>
	</g>
</svg>
