<?xml version="1.0" encoding="UTF-8" standalone="no"?>
<!DOCTYPE svg PUBLIC "-//W3C//DTD SVG 1.1//EN" "http://www.w3.org/Graphics/SVG/1.1/DTD/svg11.dtd">
<!-- Generated by Microsoft Visio, SVG Export Device, LCD Monitor.svg Page-1 -->
<svg xmlns="http://www.w3.org/2000/svg" xmlns:xlink="http://www.w3.org/1999/xlink" xmlns:ev="http://www.w3.org/2001/xml-events"
		xmlns:v="http://schemas.microsoft.com/visio/2003/SVGExtensions/" width="1.07812in" height="0.921875in"
		viewBox="0 0 77.625 66.375" xml:space="preserve" color-interpolation-filters="sRGB" class="st3">
	<v:documentProperties v:langID="4108" v:metric="true" v:viewMarkup="false"/>

	<style type="text/css">
	<![CDATA[
		.st1 {fill:#ffffff;stroke:none;stroke-linecap:butt;stroke-width:0.75}
		.st2 {fill:#515050;stroke:none;stroke-linecap:butt;stroke-width:0.75}
		.st3 {fill:none;fill-rule:evenodd;font-size:12px;overflow:visible;stroke-linecap:square;stroke-miterlimit:3}
	]]>
	</style>

	<g v:mID="0" v:index="1" v:groupContext="foregroundPage">
		<title>Page-1</title>
		<v:pageProperties v:drawingScale="0.0393701" v:pageScale="0.0393701" v:drawingUnits="24" v:shadowOffsetX="8.50394"
				v:shadowOffsetY="-8.50394"/>
		<v:layer v:name="symbols" v:index="0"/>
		<g id="group91-1" transform="translate(7.875,-6.9375)" v:mID="91" v:groupContext="group" v:layerMember="0">
			<title>Device, LCD Monitor</title>
			<g id="shape92-2" v:mID="92" v:groupContext="shape" v:layerMember="0">
				<title>Sheet.92</title>
				<path d="M16.12 66.38 C13.87 66.38 12.08 64.58 12.08 62.33 C12.08 60.08 13.87 58.2 16.12 58.2 C21.45 58.13 22.65
							 57.6 22.87 57.3 C22.87 57.3 23.1 57.15 22.8 55.88 L5.18 55.88 C2.4 55.88 0 53.48 0 50.63 L0 19.13 C0
							 16.28 2.4 13.88 5.18 13.88 L57.08 13.88 C59.85 13.88 62.25 16.28 62.25 19.13 L62.25 50.63 C62.25 53.48
							 59.85 55.88 57.08 55.88 L39.45 55.88 C39.22 57.15 39.38 57.23 39.38 57.3 C39.6 57.6 40.8 58.13 46.13
							 58.2 C48.3 58.2 50.17 60 50.17 62.33 C50.17 64.58 48.38 66.38 46.13 66.38 L16.12 66.38 Z" class="st1"/>
			</g>
			<g id="shape93-4" v:mID="93" v:groupContext="shape" v:layerMember="0" transform="translate(2.25,-2.25)">
				<title>Sheet.93</title>
				<path d="M54.82 18.38 L2.93 18.38 C1.35 18.38 -0 19.8 0 21.38 L0 52.88 C0 54.45 1.35 55.88 2.93 55.88 L22.28 55.88
							 C23.92 61.65 22.57 62.63 13.8 62.7 C12.82 62.7 12 63.53 12 64.58 C12 65.55 12.82 66.38 13.8 66.38 L43.8
							 66.38 C44.78 66.38 45.6 65.55 45.6 64.58 C45.6 63.6 44.78 62.7 43.8 62.7 C35.17 62.63 33.83 61.65 35.47
							 55.88 L54.82 55.88 C56.47 55.88 57.75 54.45 57.75 52.88 L57.75 21.38 C57.75 19.8 56.4 18.38 54.82 18.38
							 ZM54 52.13 L3.75 52.13 L3.75 22.13 L54 22.13 L54 52.13 Z" class="st2"/>
			</g>
		</g>
	</g>
</svg>
