<?xml version="1.0" encoding="UTF-8" standalone="no"?>
<!DOCTYPE svg PUBLIC "-//W3C//DTD SVG 1.1//EN" "http://www.w3.org/Graphics/SVG/1.1/DTD/svg11.dtd">
<!-- Generated by Microsoft Visio, SVG Export Device, Stylus.svg Page-1 -->
<svg xmlns="http://www.w3.org/2000/svg" xmlns:xlink="http://www.w3.org/1999/xlink" xmlns:ev="http://www.w3.org/2001/xml-events"
		xmlns:v="http://schemas.microsoft.com/visio/2003/SVGExtensions/" width="0.893229in" height="0.890625in"
		viewBox="0 0 64.3125 64.125" xml:space="preserve" color-interpolation-filters="sRGB" class="st4">
	<v:documentProperties v:langID="4108" v:metric="true" v:viewMarkup="false"/>

	<style type="text/css">
	<![CDATA[
		.st1 {fill:#ffffff;stroke:none;stroke-linecap:butt;stroke-width:0.75}
		.st2 {fill:#515150;stroke:none;stroke-linecap:butt;stroke-width:0.75}
		.st3 {fill:#515150;stroke:none;stroke-linecap:butt;stroke-width:0.749993}
		.st4 {fill:none;fill-rule:evenodd;font-size:12px;overflow:visible;stroke-linecap:square;stroke-miterlimit:3}
	]]>
	</style>

	<g v:mID="0" v:index="1" v:groupContext="foregroundPage">
		<title>Page-1</title>
		<v:pageProperties v:drawingScale="0.0393701" v:pageScale="0.0393701" v:drawingUnits="24" v:shadowOffsetX="8.50394"
				v:shadowOffsetY="-8.50394"/>
		<v:layer v:name="symbols" v:index="0"/>
		<g id="group172-1" transform="translate(0.9375,-0.8625)" v:mID="172" v:groupContext="group" v:layerMember="0">
			<title>Device, Stylus</title>
			<g id="group173-2" v:mID="173" v:groupContext="group" v:layerMember="0">
				<title>Sheet.173</title>
				<g id="shape174-3" v:mID="174" v:groupContext="shape" v:layerMember="0">
					<title>Sheet.174</title>
					<path d="M55.27 1.72 L51.6 5.4 L50.55 4.35 L35.1 19.72 L36.15 20.77 L5.77 51.22 L1.73 58.42 L1.2 58.95 C-0 60.15
								 -0 62.02 1.2 63.22 C1.8 63.82 2.55 64.12 3.3 64.12 C4.13 64.12 4.87 63.82 5.4 63.22 L5.93 62.7 L13.12
								 58.65 L62.63 9.15 L55.27 1.72 Z" class="st1"/>
				</g>
				<g id="shape175-5" v:mID="175" v:groupContext="shape" v:layerMember="0" transform="translate(2.475,-2.25)">
					<title>Sheet.175</title>
					<path d="M5.1 54.82 L1.05 62.02 L0.3 62.77 C-0 63.07 0 63.52 0.3 63.82 C0.6 64.12 1.05 64.12 1.35 63.82 L2.1
								 63.07 L9.3 59.02 L51.75 16.57 L52.8 15.52 L57 11.32 L52.72 7.05 L5.1 54.82 Z" class="st2"/>
				</g>
				<g id="shape176-7" v:mID="176" v:groupContext="shape" v:layerMember="0" transform="translate(15.825,-15.525)">
					<title>Sheet.176</title>
					<ellipse cx="0.75" cy="63.375" rx="0.75" ry="0.75" class="st1"/>
				</g>
				<g id="shape177-9" v:mID="177" v:groupContext="shape" v:layerMember="0" transform="translate(18.45,-18.15)">
					<title>Sheet.177</title>
					<ellipse cx="0.75" cy="63.375" rx="0.75" ry="0.75" class="st1"/>
				</g>
				<g id="shape178-11" v:mID="178" v:groupContext="shape" v:layerMember="0" transform="translate(21.15,-20.85)">
					<title>Sheet.178</title>
					<ellipse cx="0.75" cy="63.375" rx="0.75" ry="0.75" class="st1"/>
				</g>
				<g id="shape179-13" v:mID="179" v:groupContext="shape" v:layerMember="0" transform="translate(23.775,-23.475)">
					<title>Sheet.179</title>
					<ellipse cx="0.75" cy="63.375" rx="0.75" ry="0.75" class="st1"/>
				</g>
				<g id="shape180-15" v:mID="180" v:groupContext="shape" v:layerMember="0"
						transform="translate(-5.41339,-23.9986) rotate(-45)">
					<title>Sheet.180</title>
					<rect x="0" y="61.875" width="17.2498" height="2.24998" class="st3"/>
				</g>
			</g>
		</g>
	</g>
</svg>
