<?xml version="1.0" encoding="UTF-8" standalone="no"?>
<!DOCTYPE svg PUBLIC "-//W3C//DTD SVG 1.1//EN" "http://www.w3.org/Graphics/SVG/1.1/DTD/svg11.dtd">
<!-- Generated by Microsoft Visio, SVG Export Device, Tablet, Windows 8.svg Page-1 -->
<svg xmlns="http://www.w3.org/2000/svg" xmlns:xlink="http://www.w3.org/1999/xlink" xmlns:ev="http://www.w3.org/2001/xml-events"
		xmlns:v="http://schemas.microsoft.com/visio/2003/SVGExtensions/" width="1.10938in" height="0.796875in"
		viewBox="0 0 79.875 57.375" xml:space="preserve" color-interpolation-filters="sRGB" class="st3">
	<v:documentProperties v:langID="4108" v:metric="true" v:viewMarkup="false"/>

	<style type="text/css">
	<![CDATA[
		.st1 {fill:#ffffff;stroke:none;stroke-linecap:butt;stroke-width:0.75}
		.st2 {fill:#525352;stroke:none;stroke-linecap:butt;stroke-width:0.75}
		.st3 {fill:none;fill-rule:evenodd;font-size:12px;overflow:visible;stroke-linecap:square;stroke-miterlimit:3}
	]]>
	</style>

	<g v:mID="0" v:index="1" v:groupContext="foregroundPage">
		<title>Page-1</title>
		<v:pageProperties v:drawingScale="0.0393701" v:pageScale="0.0393701" v:drawingUnits="24" v:shadowOffsetX="8.50394"
				v:shadowOffsetY="-8.50394"/>
		<v:layer v:name="symbols" v:index="0"/>
		<g id="group198-1" transform="translate(9.375,-8.8125)" v:mID="198" v:groupContext="group" v:layerMember="0">
			<title>Device, Tablet, Windows 8</title>
			<g id="group199-2" v:mID="199" v:groupContext="group" v:layerMember="0">
				<title>Sheet.199</title>
				<g id="shape200-3" v:mID="200" v:groupContext="shape" v:layerMember="0">
					<title>Sheet.200</title>
					<path d="M5.25 57.38 C2.33 57.38 0 55.05 0 52.13 L0 22.88 C0 19.95 2.33 17.63 5.25 17.63 L55.5 17.63 C58.43 17.63
								 60.75 19.95 60.75 22.88 L60.75 52.13 C60.75 55.05 58.43 57.38 55.5 57.38 L5.25 57.38 Z"
							class="st1"/>
				</g>
				<g id="shape201-5" v:mID="201" v:groupContext="shape" v:layerMember="0" transform="translate(2.25,-2.25)">
					<title>Sheet.201</title>
					<path d="M53.25 22.13 L3 22.13 C1.35 22.13 0 23.48 0 25.13 L0 54.38 C-0 56.03 1.35 57.38 3 57.38 L53.25 57.38
								 C54.9 57.38 56.25 56.03 56.25 54.38 L56.25 25.13 C56.25 23.48 54.9 22.13 53.25 22.13 ZM28.5 55.88
								 L27 55.88 L27 54.38 L28.5 54.38 L28.5 55.88 ZM52.5 53.63 L3.75 53.63 L3.75 25.88 L52.5 25.88 L52.5
								 53.63 Z" class="st2"/>
				</g>
			</g>
		</g>
	</g>
</svg>
