<?xml version="1.0" encoding="UTF-8" standalone="no"?>
<!DOCTYPE svg PUBLIC "-//W3C//DTD SVG 1.1//EN" "http://www.w3.org/Graphics/SVG/1.1/DTD/svg11.dtd">
<!-- Generated by Microsoft Visio, SVG Export Device, Phone, Traditional.svg Page-1 -->
<svg xmlns="http://www.w3.org/2000/svg" xmlns:xlink="http://www.w3.org/1999/xlink" xmlns:ev="http://www.w3.org/2001/xml-events"
		xmlns:v="http://schemas.microsoft.com/visio/2003/SVGExtensions/" width="0.890625in" height="0.828125in"
		viewBox="0 0 64.125 59.625" xml:space="preserve" color-interpolation-filters="sRGB" class="st4">
	<v:documentProperties v:langID="4108" v:metric="true" v:viewMarkup="false"/>

	<style type="text/css">
	<![CDATA[
		.st1 {fill:#ffffff;stroke:none;stroke-linecap:butt;stroke-width:0.75}
		.st2 {fill:#515050;stroke:none;stroke-linecap:butt;stroke-width:0.75}
		.st3 {fill:#515150;stroke:none;stroke-linecap:butt;stroke-width:0.75}
		.st4 {fill:none;fill-rule:evenodd;font-size:12px;overflow:visible;stroke-linecap:square;stroke-miterlimit:3}
	]]>
	</style>

	<g v:mID="0" v:index="1" v:groupContext="foregroundPage">
		<title>Page-1</title>
		<v:pageProperties v:drawingScale="0.0393701" v:pageScale="0.0393701" v:drawingUnits="24" v:shadowOffsetX="8.50394"
				v:shadowOffsetY="-8.50394"/>
		<v:layer v:name="symbols" v:index="0"/>
		<g id="group106-1" transform="translate(5.7375,-7.6875)" v:mID="106" v:groupContext="group" v:layerMember="0">
			<title>Device, Phone, Traditional</title>
			<g id="group107-2" v:mID="107" v:groupContext="group" v:layerMember="0">
				<title>Sheet.107</title>
				<g id="shape108-3" v:mID="108" v:groupContext="shape" v:layerMember="0">
					<title>Sheet.108</title>
					<path d="M52.27 30.3 C52.2 27.75 51.45 25.35 49.95 23.25 C47.17 19.35 42.3 16.72 36.37 16.12 C35.7 16.05 32.1
								 15.45 27.07 15.37 L25.12 15.37 C20.33 15.45 16.8 15.97 15.75 16.12 C9.9 16.8 5.03 19.35 2.32 23.25
								 C0.83 25.35 0.07 27.67 0 30.3 L0 30.6 L0 30.9 C0 31.8 0.3 32.62 0.75 33.37 L0.83 33.45 C1.8 34.87
								 3.75 35.77 5.62 35.77 L9.07 35.85 L5.4 48.6 L5.4 53.62 C5.4 57.07 8.25 59.62 12.07 59.62 L39.82
								 59.62 C43.65 59.62 46.57 57.07 46.57 53.62 L46.57 48.82 L42.82 36 L46.5 35.92 C48.45 35.92 50.32
								 35.02 51.3 33.6 L51.38 33.52 C51.83 32.77 52.13 31.95 52.13 31.05 L52.13 30.67 L52.27 30.3 Z"
							class="st1"/>
				</g>
				<g id="shape109-5" v:mID="109" v:groupContext="shape" v:layerMember="0" transform="translate(7.725,-2.25)">
					<title>Sheet.109</title>
					<path d="M36.67 55.87 C36.67 58.2 34.5 59.62 32.17 59.62 L4.43 59.62 C2.1 59.62 0 58.2 0 55.87 L0 51.37 L7.8
								 24.37 L28.8 24.37 L36.67 51.37 L36.67 55.87 Z" class="st2"/>
				</g>
				<g id="group110-7" transform="translate(18.9,-12.75)" v:mID="110" v:groupContext="group" v:layerMember="0">
					<title>keys_white_3_</title>
					<g id="shape111-8" v:mID="111" v:groupContext="shape" v:layerMember="0" transform="translate(-4.996E-16,-10.5)">
						<title>Sheet.111</title>
						<path d="M3.75 58.87 C3.75 59.32 3.45 59.62 3 59.62 L0.75 59.62 C0.3 59.62 0 59.32 0 58.87 L0 56.62 C0 56.17
									 0.3 55.87 0.75 55.87 L3 55.87 C3.45 55.87 3.75 56.17 3.75 56.62 L3.75 58.87 Z" class="st1"/>
					</g>
					<g id="shape112-10" v:mID="112" v:groupContext="shape" v:layerMember="0" transform="translate(5.25,-10.5)">
						<title>Sheet.112</title>
						<path d="M3.75 58.87 C3.75 59.32 3.45 59.62 3 59.62 L0.75 59.62 C0.3 59.62 0 59.32 0 58.87 L0 56.62 C0 56.17
									 0.3 55.87 0.75 55.87 L3 55.87 C3.45 55.87 3.75 56.17 3.75 56.62 L3.75 58.87 Z" class="st1"/>
					</g>
					<g id="shape113-12" v:mID="113" v:groupContext="shape" v:layerMember="0" transform="translate(10.5,-10.5)">
						<title>Sheet.113</title>
						<path d="M3.75 58.87 C3.75 59.32 3.45 59.62 3 59.62 L0.75 59.62 C0.3 59.62 0 59.32 0 58.87 L0 56.62 C0 56.17
									 0.3 55.87 0.75 55.87 L3 55.87 C3.45 55.87 3.75 56.17 3.75 56.62 L3.75 58.87 Z" class="st1"/>
					</g>
					<g id="shape114-14" v:mID="114" v:groupContext="shape" v:layerMember="0"
							transform="translate(-4.996E-16,-5.25)">
						<title>Sheet.114</title>
						<path d="M3.75 58.87 C3.75 59.32 3.45 59.62 3 59.62 L0.75 59.62 C0.3 59.62 0 59.32 0 58.87 L0 56.62 C0 56.17
									 0.3 55.87 0.75 55.87 L3 55.87 C3.45 55.87 3.75 56.17 3.75 56.62 L3.75 58.87 Z" class="st1"/>
					</g>
					<g id="shape115-16" v:mID="115" v:groupContext="shape" v:layerMember="0" transform="translate(5.25,-5.25)">
						<title>Sheet.115</title>
						<path d="M3.75 58.87 C3.75 59.32 3.45 59.62 3 59.62 L0.75 59.62 C0.3 59.62 0 59.32 0 58.87 L0 56.62 C0 56.17
									 0.3 55.87 0.75 55.87 L3 55.87 C3.45 55.87 3.75 56.17 3.75 56.62 L3.75 58.87 Z" class="st1"/>
					</g>
					<g id="shape116-18" v:mID="116" v:groupContext="shape" v:layerMember="0" transform="translate(10.5,-5.25)">
						<title>Sheet.116</title>
						<path d="M3.75 58.87 C3.75 59.32 3.45 59.62 3 59.62 L0.75 59.62 C0.3 59.62 0 59.32 0 58.87 L0 56.62 C0 56.17
									 0.3 55.87 0.75 55.87 L3 55.87 C3.45 55.87 3.75 56.17 3.75 56.62 L3.75 58.87 Z" class="st1"/>
					</g>
					<g id="shape117-20" v:mID="117" v:groupContext="shape" v:layerMember="0">
						<title>Sheet.117</title>
						<path d="M3.75 58.87 C3.75 59.32 3.45 59.62 3 59.62 L0.75 59.62 C0.3 59.62 0 59.32 0 58.87 L0 56.62 C0 56.17
									 0.3 55.87 0.75 55.87 L3 55.87 C3.45 55.87 3.75 56.17 3.75 56.62 L3.75 58.87 Z" class="st1"/>
					</g>
					<g id="shape118-22" v:mID="118" v:groupContext="shape" v:layerMember="0"
							transform="translate(5.25,7.10543E-15)">
						<title>Sheet.118</title>
						<path d="M3.75 58.87 C3.75 59.32 3.45 59.62 3 59.62 L0.75 59.62 C0.3 59.62 0 59.32 0 58.87 L0 56.62 C0 56.17
									 0.3 55.87 0.75 55.87 L3 55.87 C3.45 55.87 3.75 56.17 3.75 56.62 L3.75 58.87 Z" class="st1"/>
					</g>
					<g id="shape119-24" v:mID="119" v:groupContext="shape" v:layerMember="0"
							transform="translate(10.5,7.10543E-15)">
						<title>Sheet.119</title>
						<path d="M3.75 58.87 C3.75 59.32 3.45 59.62 3 59.62 L0.75 59.62 C0.3 59.62 0 59.32 0 58.87 L0 56.62 C0 56.17
									 0.3 55.87 0.75 55.87 L3 55.87 C3.45 55.87 3.75 56.17 3.75 56.62 L3.75 58.87 Z" class="st1"/>
					</g>
				</g>
				<g id="shape120-26" v:mID="120" v:groupContext="shape" v:layerMember="0" transform="translate(0.75,-24.3)">
					<title>Sheet.120</title>
					<path d="M4.95 59.47 C3.3 59.47 1.65 58.65 0.75 57.45 L0.68 57.37 C0.23 56.77 0.07 56.02 0 55.27 L0 54.97 L0
								 54.67 C0.07 52.2 0.75 50.02 2.17 48.07 C4.8 44.32 9.53 41.85 15.15 41.25 C16.12 41.1 19.65 40.57
								 24.45 40.5 L26.4 40.5 C31.43 40.57 35.03 41.17 35.62 41.25 C41.25 41.85 46.05 44.32 48.68 48.07
								 C50.03 50.02 50.77 52.27 50.85 54.67 L50.85 54.97 L50.85 55.35 C50.85 56.1 50.63 56.77 50.17 57.37
								 L50.1 57.45 C49.28 58.65 47.55 59.47 45.9 59.47 L40.8 59.62 C38.77 59.62 36.98 58.72 36.38 57.37
								 C36.15 56.85 36.08 56.4 36.08 55.87 L36.08 52.8 C36.08 51.37 34.87 50.17 33.52 50.17 L17.4 50.17
								 C15.98 50.17 14.85 51.37 14.85 52.8 L14.85 55.87 C14.85 56.4 14.77 56.85 14.55 57.3 C13.95 58.65
								 12.22 59.55 10.13 59.55 L4.95 59.47 Z" class="st1"/>
				</g>
				<g id="shape121-28" v:mID="121" v:groupContext="shape" v:layerMember="0" transform="translate(2.325,-25.8)">
					<title>Sheet.121</title>
					<path d="M3.45 59.47 C2.25 59.47 1.05 58.87 0.45 58.12 L0.38 58.05 C0.15 57.67 0 57.22 0 56.77 L0 56.47 L0 56.25
								 C0.08 54.15 0.68 52.2 1.87 50.47 C4.28 47.1 8.62 44.85 13.8 44.25 C14.78 44.1 18.15 43.57 22.88
								 43.5 L24.75 43.5 C29.78 43.57 33.38 44.17 33.75 44.25 C39 44.85 43.35 47.1 45.75 50.47 C46.95 52.2
								 47.63 54.15 47.63 56.25 L47.63 56.47 L47.63 56.77 C47.63 57.22 47.48 57.67 47.25 58.05 L47.25 58.12
								 C46.65 58.95 45.45 59.47 44.33 59.47 L39.22 59.62 C37.88 59.62 36.6 59.02 36.23 58.27 C36 57.97
								 36 57.67 36 57.37 L36 54.3 C36 52.05 34.2 50.17 31.95 50.17 L15.83 50.17 C13.58 50.17 11.78 52.05
								 11.78 54.3 L11.78 57.37 C11.78 57.67 11.7 57.9 11.63 58.2 C11.25 59.02 9.98 59.55 8.62 59.62 L3.45
								 59.47 Z" class="st3"/>
				</g>
			</g>
		</g>
	</g>
</svg>
