<?xml version="1.0" encoding="UTF-8" standalone="no"?>
<!DOCTYPE svg PUBLIC "-//W3C//DTD SVG 1.1//EN" "http://www.w3.org/Graphics/SVG/1.1/DTD/svg11.dtd">
<!-- Generated by Microsoft Visio, SVG Export Device, Phone, Digital.svg Page-1 -->
<svg xmlns="http://www.w3.org/2000/svg" xmlns:xlink="http://www.w3.org/1999/xlink" xmlns:ev="http://www.w3.org/2001/xml-events"
		xmlns:v="http://schemas.microsoft.com/visio/2003/SVGExtensions/" width="0.96875in" height="0.859375in"
		viewBox="0 0 69.75 61.875" xml:space="preserve" color-interpolation-filters="sRGB" class="st4">
	<v:documentProperties v:langID="4108" v:metric="true" v:viewMarkup="false"/>

	<style type="text/css">
	<![CDATA[
		.st1 {fill:#ffffff;stroke:none;stroke-linecap:butt;stroke-width:0.75}
		.st2 {fill:#515050;stroke:none;stroke-linecap:butt;stroke-width:0.75}
		.st3 {fill:#515251;stroke:none;stroke-linecap:butt;stroke-width:0.75}
		.st4 {fill:none;fill-rule:evenodd;font-size:12px;overflow:visible;stroke-linecap:square;stroke-miterlimit:3}
	]]>
	</style>

	<g v:mID="0" v:index="1" v:groupContext="foregroundPage">
		<title>Page-1</title>
		<v:pageProperties v:drawingScale="0.0393701" v:pageScale="0.0393701" v:drawingUnits="24" v:shadowOffsetX="8.50394"
				v:shadowOffsetY="-8.50394"/>
		<v:layer v:name="symbols" v:index="0"/>
		<g id="group122-1" transform="translate(7.8,-7.725)" v:mID="122" v:groupContext="group" v:layerMember="0">
			<title>Device, Phone, Digital</title>
			<g id="group123-2" v:mID="123" v:groupContext="group" v:layerMember="0">
				<title>Sheet.123</title>
				<g id="shape124-3" v:mID="124" v:groupContext="shape" v:layerMember="0">
					<title>Sheet.124</title>
					<path d="M48.07 15.45 L18.08 15.45 C16.35 15.45 14.78 16.28 13.8 17.63 C13.12 16.88 12.22 16.28 11.1 15.9 C9.9
								 15.53 9.22 15.45 7.58 15.45 C5.93 15.45 5.25 15.53 4.05 15.9 C1.65 16.65 0.22 18.38 0.08 20.85 C0
								 21.68 0.08 22.73 0.15 24.68 C0.22 27.3 0.38 31.65 0.38 39.15 C0.38 45.15 0.22 49.13 0.15 51.68 C0.08
								 53.78 0 55.2 0.08 56.33 C0.22 58.88 1.73 60.68 4.13 61.35 C5.33 61.73 6.37 61.88 7.5 61.88 C8.7
								 61.88 9.9 61.73 11.1 61.35 C12.22 61.05 13.2 60.45 13.88 59.63 C14.85 60.98 16.35 61.8 18.15 61.8
								 L48.15 61.8 C51.07 61.8 53.4 59.48 53.4 56.55 L53.4 20.7 C53.33 17.78 51 15.45 48.07 15.45 Z"
							class="st1"/>
				</g>
				<g id="shape125-5" v:mID="125" v:groupContext="shape" v:layerMember="0" transform="translate(2.175,-2.175)">
					<title>Sheet.125</title>
					<path d="M10.65 23.25 C10.5 21.6 9.68 20.7 8.25 20.25 C7.35 19.95 6.9 19.88 5.4 19.88 C3.9 19.88 3.45 19.95 2.55
								 20.25 C1.13 20.7 0.23 21.6 0.15 23.25 C-0 25.05 0.45 28.73 0.45 41.4 C0.45 52.13 0 56.03 0.15 58.5
								 C0.23 60.15 1.13 61.13 2.55 61.5 C3.45 61.73 4.35 61.88 5.33 61.88 C6.3 61.88 7.35 61.73 8.33 61.5
								 C9.75 61.13 10.65 60.15 10.73 58.5 C10.88 56.03 10.5 52.35 10.5 41.63 C10.43 28.95 10.8 25.05 10.65
								 23.25 Z" class="st2"/>
				</g>
				<g id="shape126-7" v:mID="126" v:groupContext="shape" v:layerMember="0" transform="translate(15.075,-2.175)">
					<title>Sheet.126</title>
					<path d="M33 19.88 L3 19.88 C1.35 19.88 0 21.23 0 22.88 L0 58.88 C0 60.53 1.35 61.88 3 61.88 L33 61.88 C34.65
								 61.88 36 60.53 36 58.88 L36 22.88 C36 21.23 34.65 19.88 33 19.88 ZM12.75 52.13 C12.75 52.58 12.45
								 52.88 12 52.88 L8.25 52.88 C7.8 52.88 7.5 52.58 7.5 52.13 L7.5 50.63 C7.5 50.18 7.8 49.88 8.25 49.88
								 L12 49.88 C12.45 49.88 12.75 50.18 12.75 50.63 L12.75 52.13 ZM12.75 46.88 C12.75 47.33 12.45 47.63
								 12 47.63 L8.25 47.63 C7.8 47.63 7.5 47.33 7.5 46.88 L7.5 45.38 C7.5 44.93 7.8 44.63 8.25 44.63 L12
								 44.63 C12.45 44.63 12.75 44.93 12.75 45.38 L12.75 46.88 ZM12.75 41.63 C12.75 42.08 12.45 42.38 12
								 42.38 L8.25 42.38 C7.8 42.38 7.5 42.08 7.5 41.63 L7.5 40.13 C7.5 39.68 7.8 39.38 8.25 39.38 L12
								 39.38 C12.45 39.38 12.75 39.68 12.75 40.13 L12.75 41.63 ZM20.25 52.13 C20.25 52.58 19.95 52.88 19.5
								 52.88 L15.75 52.88 C15.3 52.88 15 52.58 15 52.13 L15 50.63 C15 50.18 15.3 49.88 15.75 49.88 L19.5
								 49.88 C19.95 49.88 20.25 50.18 20.25 50.63 L20.25 52.13 ZM20.25 46.88 C20.25 47.33 19.95 47.63 19.5
								 47.63 L15.75 47.63 C15.3 47.63 15 47.33 15 46.88 L15 45.38 C15 44.93 15.3 44.63 15.75 44.63 L19.5
								 44.63 C19.95 44.63 20.25 44.93 20.25 45.38 L20.25 46.88 ZM20.25 41.63 C20.25 42.08 19.95 42.38 19.5
								 42.38 L15.75 42.38 C15.3 42.38 15 42.08 15 41.63 L15 40.13 C15 39.68 15.3 39.38 15.75 39.38 L19.5
								 39.38 C19.95 39.38 20.25 39.68 20.25 40.13 L20.25 41.63 ZM27.75 52.13 C27.75 52.58 27.45 52.88 27
								 52.88 L23.25 52.88 C22.8 52.88 22.5 52.58 22.5 52.13 L22.5 50.63 C22.5 50.18 22.8 49.88 23.25 49.88
								 L27 49.88 C27.45 49.88 27.75 50.18 27.75 50.63 L27.75 52.13 ZM27.75 46.88 C27.75 47.33 27.45 47.63
								 27 47.63 L23.25 47.63 C22.8 47.63 22.5 47.33 22.5 46.88 L22.5 45.38 C22.5 44.93 22.8 44.63 23.25
								 44.63 L27 44.63 C27.45 44.63 27.75 44.93 27.75 45.38 L27.75 46.88 ZM27.75 41.63 C27.75 42.08 27.45
								 42.38 27 42.38 L23.25 42.38 C22.8 42.38 22.5 42.08 22.5 41.63 L22.5 40.13 C22.5 39.68 22.8 39.38
								 23.25 39.38 L27 39.38 C27.45 39.38 27.75 39.68 27.75 40.13 L27.75 41.63 ZM30 33.38 C30 33.83 29.7
								 34.13 29.25 34.13 L6.75 34.13 C6.3 34.13 6 33.83 6 33.38 L6 25.13 C6 24.68 6.3 24.38 6.75 24.38
								 L29.25 24.38 C29.7 24.38 30 24.68 30 25.13 L30 33.38 Z" class="st3"/>
				</g>
			</g>
		</g>
	</g>
</svg>
