<?xml version="1.0" encoding="UTF-8" standalone="no"?>
<!DOCTYPE svg PUBLIC "-//W3C//DTD SVG 1.1//EN" "http://www.w3.org/Graphics/SVG/1.1/DTD/svg11.dtd">
<!-- Generated by Microsoft Visio, SVG Export Device, Microphone.svg Page-1 -->
<svg xmlns="http://www.w3.org/2000/svg" xmlns:xlink="http://www.w3.org/1999/xlink" xmlns:ev="http://www.w3.org/2001/xml-events"
		xmlns:v="http://schemas.microsoft.com/visio/2003/SVGExtensions/" width="0.9375in" height="0.765625in"
		viewBox="0 0 67.5 55.125" xml:space="preserve" color-interpolation-filters="sRGB" class="st3">
	<v:documentProperties v:langID="4108" v:metric="true" v:viewMarkup="false"/>

	<style type="text/css">
	<![CDATA[
		.st1 {fill:#ffffff;stroke:none;stroke-linecap:butt;stroke-width:0.75}
		.st2 {fill:#515050;stroke:none;stroke-linecap:butt;stroke-width:0.75}
		.st3 {fill:none;fill-rule:evenodd;font-size:12px;overflow:visible;stroke-linecap:square;stroke-miterlimit:3}
	]]>
	</style>

	<g v:mID="0" v:index="1" v:groupContext="foregroundPage">
		<title>Page-1</title>
		<v:pageProperties v:drawingScale="0.0393701" v:pageScale="0.0393701" v:drawingUnits="24" v:shadowOffsetX="8.50394"
				v:shadowOffsetY="-8.50394"/>
		<v:layer v:name="symbols" v:index="0"/>
		<g id="group102-1" transform="translate(4.65,-8.1)" v:mID="102" v:groupContext="group" v:layerMember="0">
			<title>Device, Microphone</title>
			<g id="group103-2" v:mID="103" v:groupContext="group" v:layerMember="0">
				<title>Sheet.103</title>
				<g id="shape104-3" v:mID="104" v:groupContext="shape" v:layerMember="0">
					<title>Sheet.104</title>
					<path d="M5.1 51.22 C4.95 51.75 4.88 52.35 4.88 52.87 L4.88 55.12 L39.08 55.12 L39.08 52.87 C39.08 47.7 31.72
								 43.42 22.5 43.27 L19.2 43.27 L15.75 39.82 L28.58 27 C30.75 24.82 35.47 22.87 38.55 22.87 L41.55
								 22.87 C41.77 22.95 42.3 23.1 42.67 23.32 L43.65 23.92 C44.77 24.6 46.58 25.05 48.07 25.05 L54.67
								 25.05 C56.77 25.05 58.35 23.55 58.35 21.52 L58.35 17.47 C58.35 15.45 56.85 13.95 54.67 13.95 L48.07
								 13.95 C46.58 13.95 44.77 14.4 43.65 15.07 L42.67 15.67 C42.22 15.9 41.7 16.12 41.48 16.12 L38.47
								 16.12 C33.52 16.12 27.22 18.75 23.7 22.2 L11.02 35.02 L9 33 L0.07 41.92 L2.25 43.72 L0 45.97 L4.72
								 50.7 L5.1 51.22 Z" class="st1"/>
				</g>
				<g id="shape105-5" v:mID="105" v:groupContext="shape" v:layerMember="0" transform="translate(3.15,-2.25)">
					<title>Sheet.105</title>
					<path d="M51.52 18.45 L44.93 18.45 C43.88 18.45 42.37 18.82 41.62 19.27 L40.65 19.87 C39.97 20.25 39.07 20.62
								 38.55 20.7 L35.4 20.7 C31.05 20.7 25.28 23.1 22.27 26.17 L7.88 40.42 L5.85 38.4 L0.3 43.95 L2.47
								 45.75 L0 48.22 L1.58 49.87 L4.13 47.32 L4.8 47.85 C4.8 47.85 7.65 49.65 5.78 51.45 C5.7 51.52 5.62
								 51.6 5.62 51.67 C4.5 52.72 3.97 53.92 3.97 55.12 L33.67 55.12 C33.67 51.22 26.93 47.77 18.82 47.77
								 L15.07 47.77 L9.38 42.07 L23.78 27.67 C26.4 25.05 31.65 22.87 35.32 22.87 L38.48 22.87 C39 22.95
								 39.9 23.25 40.57 23.7 L41.55 24.3 C42.3 24.75 43.8 25.12 44.85 25.12 L51.45 25.12 C52.5 25.12 52.88
								 24.45 52.87 23.85 L52.87 19.8 C52.95 19.05 52.65 18.45 51.52 18.45 Z" class="st2"/>
				</g>
			</g>
		</g>
	</g>
</svg>
