<?xml version="1.0" encoding="UTF-8" standalone="no"?>
<!DOCTYPE svg PUBLIC "-//W3C//DTD SVG 1.1//EN" "http://www.w3.org/Graphics/SVG/1.1/DTD/svg11.dtd">
<!-- Generated by Microsoft Visio, SVG Export Device, Laptop.svg Page-1 -->
<svg xmlns="http://www.w3.org/2000/svg" xmlns:xlink="http://www.w3.org/1999/xlink" xmlns:ev="http://www.w3.org/2001/xml-events"
		xmlns:v="http://schemas.microsoft.com/visio/2003/SVGExtensions/" width="0.953125in" height="0.734375in"
		viewBox="0 0 68.625 52.875" xml:space="preserve" color-interpolation-filters="sRGB" class="st3">
	<v:documentProperties v:langID="4108" v:metric="true" v:viewMarkup="false"/>

	<style type="text/css">
	<![CDATA[
		.st1 {fill:#ffffff;stroke:none;stroke-linecap:butt;stroke-width:0.75}
		.st2 {fill:#515050;stroke:none;stroke-linecap:butt;stroke-width:0.75}
		.st3 {fill:none;fill-rule:evenodd;font-size:12px;overflow:visible;stroke-linecap:square;stroke-miterlimit:3}
	]]>
	</style>

	<g v:mID="0" v:index="1" v:groupContext="foregroundPage">
		<title>Page-1</title>
		<v:pageProperties v:drawingScale="0.0393701" v:pageScale="0.0393701" v:drawingUnits="24" v:shadowOffsetX="8.50394"
				v:shadowOffsetY="-8.50394"/>
		<v:layer v:name="symbols" v:index="0"/>
		<g id="group87-1" transform="translate(2.7375,-6.9375)" v:mID="87" v:groupContext="group" v:layerMember="0">
			<title>Device, Laptop</title>
			<g id="group88-2" v:mID="88" v:groupContext="group" v:layerMember="0">
				<title>Sheet.88</title>
				<g id="shape89-3" v:mID="89" v:groupContext="shape" v:layerMember="0">
					<title>Sheet.89</title>
					<path d="M5.55 52.87 C3.07 52.87 1.2 51.9 0.52 50.17 C0 48.9 0.3 47.47 1.27 46.5 C2.17 45.6 3.67 44.1 4.72 42.97
								 L4.72 19.12 C4.72 16.2 7.05 13.87 9.97 13.87 L52.72 13.87 C55.65 13.87 57.97 16.2 57.97 19.12 L57.97
								 42.97 C59.1 44.1 60.6 45.6 61.42 46.5 C62.47 47.55 62.78 48.9 62.17 50.17 C61.58 51.9 59.7 52.87
								 57.3 52.87 L5.55 52.87 Z" class="st1"/>
				</g>
				<g id="shape90-5" v:mID="90" v:groupContext="shape" v:layerMember="0" transform="translate(1.95,-2.25)">
					<title>Sheet.90</title>
					<path d="M57.97 50.32 C56.92 49.27 54.9 47.25 53.85 46.12 C53.85 46.12 53.85 46.12 53.85 46.12 L53.85 21.37 C53.85
								 19.72 52.5 18.37 50.85 18.37 L8.1 18.37 C6.45 18.37 5.1 19.72 5.1 21.37 L5.1 46.12 C5.1 46.12 5.1
								 46.12 5.1 46.12 C4.05 47.25 2.03 49.27 0.97 50.32 C0 51.37 0.97 52.87 3.6 52.87 L55.35 52.87 C57.97
								 52.87 59.03 51.37 57.97 50.32 ZM8.1 21.37 L50.85 21.37 L50.85 45.37 L8.1 45.37 L8.1 21.37 ZM33.98
								 50.7 C25.05 50.7 25.05 50.7 25.05 50.7 C24.6 50.7 24.15 50.55 24.15 50.32 C25.2 48.67 25.2 48.67
								 25.2 48.67 C25.2 48.52 25.57 48.37 25.95 48.37 C32.85 48.37 33.08 48.37 33.08 48.37 C33.45 48.37
								 33.75 48.52 33.75 48.67 C34.87 50.32 34.87 50.32 34.87 50.32 C34.8 50.55 34.43 50.7 33.98 50.7 Z"
							class="st2"/>
				</g>
			</g>
		</g>
	</g>
</svg>
