<?xml version="1.0" encoding="UTF-8" standalone="no"?>
<!DOCTYPE svg PUBLIC "-//W3C//DTD SVG 1.1//EN" "http://www.w3.org/Graphics/SVG/1.1/DTD/svg11.dtd">
<!-- Generated by Microsoft Visio, SVG Export Device, Tablet, iPad Mini.svg Page-1 -->
<svg xmlns="http://www.w3.org/2000/svg" xmlns:xlink="http://www.w3.org/1999/xlink" xmlns:ev="http://www.w3.org/2001/xml-events"
		xmlns:v="http://schemas.microsoft.com/visio/2003/SVGExtensions/" width="0.78125in" height="0.953125in"
		viewBox="0 0 56.25 68.625" xml:space="preserve" color-interpolation-filters="sRGB" class="st3">
	<v:documentProperties v:langID="4108" v:metric="true" v:viewMarkup="false"/>

	<style type="text/css">
	<![CDATA[
		.st1 {fill:#ffffff;stroke:none;stroke-linecap:butt;stroke-width:0.75}
		.st2 {fill:#4c4a4c;stroke:none;stroke-linecap:butt;stroke-width:0.75}
		.st3 {fill:none;fill-rule:evenodd;font-size:12px;overflow:visible;stroke-linecap:square;stroke-miterlimit:3}
	]]>
	</style>

	<g v:mID="0" v:index="1" v:groupContext="foregroundPage">
		<title>Page-1</title>
		<v:pageProperties v:drawingScale="0.0393701" v:pageScale="0.0393701" v:drawingUnits="24" v:shadowOffsetX="8.50394"
				v:shadowOffsetY="-8.50394"/>
		<v:layer v:name="symbols" v:index="0"/>
		<g id="group191-1" transform="translate(9.5625,-8.4375)" v:mID="191" v:groupContext="group" v:layerMember="0">
			<title>Device, Tablet, iPad Mini</title>
			<g id="group192-2" v:mID="192" v:groupContext="group" v:layerMember="0">
				<title>Sheet.192</title>
				<g id="shape193-3" v:mID="193" v:groupContext="shape" v:layerMember="0">
					<title>Sheet.193</title>
					<path d="M5.25 68.63 C2.32 68.63 0 66.3 0 63.38 L0 22.13 C0 19.2 2.32 16.88 5.25 16.88 L32.25 16.88 C35.17 16.88
								 37.5 19.2 37.5 22.13 L37.5 63.38 C37.5 66.3 35.17 68.63 32.25 68.63 L5.25 68.63 Z" class="st1"/>
				</g>
				<g id="shape194-5" v:mID="194" v:groupContext="shape" v:layerMember="0" transform="translate(2.25,-2.25)">
					<title>Sheet.194</title>
					<path d="M33 65.63 C33 67.28 31.65 68.63 30 68.63 L3 68.63 C1.35 68.63 0 67.28 0 65.63 L0 24.38 C0 22.73 1.35
								 21.38 3 21.38 L30 21.38 C31.65 21.38 33 22.73 33 24.38 L33 65.63 Z" class="st2"/>
				</g>
				<g id="shape195-7" v:mID="195" v:groupContext="shape" v:layerMember="0" transform="translate(4.5,-8.25)">
					<title>Sheet.195</title>
					<rect x="0" y="33.375" width="28.5" height="35.25" class="st1"/>
				</g>
				<g id="shape196-9" v:mID="196" v:groupContext="shape" v:layerMember="0" transform="translate(18,-45.75)">
					<title>Sheet.196</title>
					<ellipse cx="0.75" cy="67.875" rx="0.75" ry="0.75" class="st1"/>
				</g>
				<g id="shape197-11" v:mID="197" v:groupContext="shape" v:layerMember="0" transform="translate(17.25,-3.75)">
					<title>Sheet.197</title>
					<ellipse cx="1.5" cy="67.125" rx="1.5" ry="1.5" class="st1"/>
				</g>
			</g>
		</g>
	</g>
</svg>
