<?xml version="1.0" encoding="UTF-8" standalone="no"?>
<!DOCTYPE svg PUBLIC "-//W3C//DTD SVG 1.1//EN" "http://www.w3.org/Graphics/SVG/1.1/DTD/svg11.dtd">
<!-- Generated by Microsoft Visio, SVG Export Device, Phone, USB.svg Page-1 -->
<svg xmlns="http://www.w3.org/2000/svg" xmlns:xlink="http://www.w3.org/1999/xlink" xmlns:ev="http://www.w3.org/2001/xml-events"
		xmlns:v="http://schemas.microsoft.com/visio/2003/SVGExtensions/" width="1.07813in" height="0.867187in"
		viewBox="0 0 77.625 62.4375" xml:space="preserve" color-interpolation-filters="sRGB" class="st4">
	<v:documentProperties v:langID="4108" v:metric="true" v:viewMarkup="false"/>

	<style type="text/css">
	<![CDATA[
		.st1 {fill:#ffffff;stroke:none;stroke-linecap:butt;stroke-width:0.75}
		.st2 {fill:#515150;stroke:none;stroke-linecap:butt;stroke-width:0.75}
		.st3 {fill:#515050;stroke:none;stroke-linecap:butt;stroke-width:0.75}
		.st4 {fill:none;fill-rule:evenodd;font-size:12px;overflow:visible;stroke-linecap:square;stroke-miterlimit:3}
	]]>
	</style>

	<g v:mID="0" v:index="1" v:groupContext="foregroundPage">
		<title>Page-1</title>
		<v:pageProperties v:drawingScale="0.0393701" v:pageScale="0.0393701" v:drawingUnits="24" v:shadowOffsetX="8.50394"
				v:shadowOffsetY="-8.50394"/>
		<v:layer v:name="symbols" v:index="0"/>
		<g id="group127-1" transform="translate(7.9875,-0.75)" v:mID="127" v:groupContext="group" v:layerMember="0">
			<title>Device, Phone, USB</title>
			<g id="group128-2" v:mID="128" v:groupContext="group" v:layerMember="0">
				<title>Sheet.128</title>
				<g id="group129-3" transform="translate(3.07754E-13,-8.325)" v:mID="129" v:groupContext="group" v:layerMember="0">
					<title>Sheet.129</title>
					<g id="shape130-4" v:mID="130" v:groupContext="shape" v:layerMember="0">
						<title>Sheet.130</title>
						<path d="M48.15 16.01 L18.15 16.01 C16.42 16.01 14.85 16.84 13.88 18.19 C13.2 17.44 12.3 16.84 11.18 16.46
									 C9.98 16.09 9.3 16.01 7.65 16.01 C5.93 16.01 5.33 16.09 4.05 16.46 C1.65 17.21 0.22 18.94 0.08
									 21.41 C-0 22.24 0.08 23.29 0.15 25.24 C0.22 27.86 0.38 32.21 0.38 39.71 C0.38 45.71 0.22 49.69
									 0.15 52.24 C0.08 54.34 0 55.76 0.08 56.89 C0.22 59.44 1.73 61.24 4.12 61.91 C5.33 62.29 6.37
									 62.44 7.5 62.44 C8.7 62.44 9.9 62.29 11.1 61.91 C12.22 61.61 13.2 61.01 13.88 60.19 C14.85 61.54
									 16.35 62.36 18.15 62.36 L48.15 62.36 C51.07 62.36 53.4 60.04 53.4 57.11 L53.4 21.26 C53.4 18.34
									 51.07 16.01 48.15 16.01 Z" class="st1"/>
					</g>
					<g id="shape131-6" v:mID="131" v:groupContext="shape" v:layerMember="0" transform="translate(2.175,-2.175)">
						<title>Sheet.131</title>
						<path d="M10.73 23.81 C10.58 22.16 9.75 21.26 8.33 20.81 C7.43 20.51 6.98 20.44 5.48 20.44 C3.9 20.44 3.52
									 20.51 2.55 20.81 C1.13 21.26 0.23 22.16 0.15 23.81 C-0 25.61 0.45 29.29 0.45 41.96 C0.45 52.69
									 0 56.59 0.15 59.06 C0.23 60.71 1.13 61.69 2.55 62.06 C3.45 62.29 4.35 62.44 5.33 62.44 C6.3
									 62.44 7.35 62.29 8.33 62.06 C9.75 61.69 10.65 60.71 10.73 59.06 C10.88 56.59 10.5 52.91 10.5
									 42.19 C10.5 29.51 10.88 25.61 10.73 23.81 Z" class="st2"/>
					</g>
					<g id="shape132-8" v:mID="132" v:groupContext="shape" v:layerMember="0" transform="translate(15.15,-2.175)">
						<title>Sheet.132</title>
						<path d="M33 20.44 L3 20.44 C1.35 20.44 0 21.79 0 23.44 L0 59.44 C-0 61.09 1.35 62.44 3 62.44 L33 62.44 C34.65
									 62.44 36 61.09 36 59.44 L36 23.44 C36 21.79 34.65 20.44 33 20.44 ZM12.75 52.69 C12.75 53.14
									 12.45 53.44 12 53.44 L8.25 53.44 C7.8 53.44 7.5 53.14 7.5 52.69 L7.5 51.19 C7.5 50.74 7.8 50.44
									 8.25 50.44 L12 50.44 C12.45 50.44 12.75 50.74 12.75 51.19 L12.75 52.69 ZM12.75 47.44 C12.75
									 47.89 12.45 48.19 12 48.19 L8.25 48.19 C7.8 48.19 7.5 47.89 7.5 47.44 L7.5 45.94 C7.5 45.49
									 7.8 45.19 8.25 45.19 L12 45.19 C12.45 45.19 12.75 45.49 12.75 45.94 L12.75 47.44 ZM12.75 42.19
									 C12.75 42.64 12.45 42.94 12 42.94 L8.25 42.94 C7.8 42.94 7.5 42.64 7.5 42.19 L7.5 40.69 C7.5
									 40.24 7.8 39.94 8.25 39.94 L12 39.94 C12.45 39.94 12.75 40.24 12.75 40.69 L12.75 42.19 ZM20.25
									 52.69 C20.25 53.14 19.95 53.44 19.5 53.44 L15.75 53.44 C15.3 53.44 15 53.14 15 52.69 L15 51.19
									 C15 50.74 15.3 50.44 15.75 50.44 L19.5 50.44 C19.95 50.44 20.25 50.74 20.25 51.19 L20.25 52.69
									 ZM20.25 47.44 C20.25 47.89 19.95 48.19 19.5 48.19 L15.75 48.19 C15.3 48.19 15 47.89 15 47.44
									 L15 45.94 C15 45.49 15.3 45.19 15.75 45.19 L19.5 45.19 C19.95 45.19 20.25 45.49 20.25 45.94
									 L20.25 47.44 ZM20.25 42.19 C20.25 42.64 19.95 42.94 19.5 42.94 L15.75 42.94 C15.3 42.94 15 42.64
									 15 42.19 L15 40.69 C15 40.24 15.3 39.94 15.75 39.94 L19.5 39.94 C19.95 39.94 20.25 40.24 20.25
									 40.69 L20.25 42.19 ZM27.75 52.69 C27.75 53.14 27.45 53.44 27 53.44 L23.25 53.44 C22.8 53.44
									 22.5 53.14 22.5 52.69 L22.5 51.19 C22.5 50.74 22.8 50.44 23.25 50.44 L27 50.44 C27.45 50.44
									 27.75 50.74 27.75 51.19 L27.75 52.69 ZM27.75 47.44 C27.75 47.89 27.45 48.19 27 48.19 L23.25
									 48.19 C22.8 48.19 22.5 47.89 22.5 47.44 L22.5 45.94 C22.5 45.49 22.8 45.19 23.25 45.19 L27 45.19
									 C27.45 45.19 27.75 45.49 27.75 45.94 L27.75 47.44 ZM27.75 42.19 C27.75 42.64 27.45 42.94 27
									 42.94 L23.25 42.94 C22.8 42.94 22.5 42.64 22.5 42.19 L22.5 40.69 C22.5 40.24 22.8 39.94 23.25
									 39.94 L27 39.94 C27.45 39.94 27.75 40.24 27.75 40.69 L27.75 42.19 ZM30 33.94 C30 34.39 29.7
									 34.69 29.25 34.69 L6.75 34.69 C6.3 34.69 6 34.39 6 33.94 L6 25.69 C6 25.24 6.3 24.94 6.75 24.94
									 L29.25 24.94 C29.7 24.94 30 25.24 30 25.69 L30 33.94 Z" class="st2"/>
					</g>
				</g>
				<g id="group133-10" transform="translate(40.65,0)" v:mID="133" v:groupContext="group" v:layerMember="0">
					<title>usb_symbol_1_</title>
					<g id="shape134-11" v:mID="134" v:groupContext="shape" v:layerMember="0">
						<title>Sheet.134</title>
						<path d="M10.87 62.44 C7.58 62.44 4.87 59.74 4.87 56.44 C4.87 54.41 5.85 52.61 7.5 51.49 L7.5 51.34 L3.9
									 47.74 C3.37 47.21 1.5 45.19 1.5 42.64 L1.5 41.06 C0.53 40.24 0 39.04 0 37.69 C0 35.21 2.02 33.19
									 4.5 33.19 C5.62 33.19 6.68 33.64 7.5 34.31 L7.5 30.94 L4.35 30.94 L10.87 19.69 L16.57 29.44
									 L21.75 29.44 L21.75 38.44 L20.17 38.44 C19.87 40.69 18.22 42.49 17.85 42.79 L14.25 46.39 L14.25
									 51.49 C15.9 52.61 16.87 54.41 16.87 56.44 C16.87 59.74 14.17 62.44 10.87 62.44 Z" class="st1"/>
					</g>
					<g id="shape135-13" v:mID="135" v:groupContext="shape" v:layerMember="0" transform="translate(2.25,-2.25)">
						<title>Sheet.135</title>
						<path d="M17.25 33.94 L12.75 33.94 L12.75 38.44 L14.25 38.44 L14.25 39.94 C14.25 40.91 13.35 42.04 12.97
									 42.41 L9.75 45.64 L9.75 30.94 L11.25 30.94 L8.62 26.44 L6 30.94 L7.5 30.94 L7.5 50.59 L4.27
									 47.44 C3.9 47.06 3 45.94 3 44.96 L3 42.11 C3.82 41.81 4.5 40.99 4.5 40.01 C4.5 38.74 3.53 37.76
									 2.25 37.76 C0.97 37.76 0 38.74 0 40.01 C0 40.99 0.67 41.81 1.5 42.11 L1.5 44.96 C1.5 46.69 3.08
									 48.34 3.22 48.49 L7.5 52.69 L7.5 55.16 C6 55.61 4.87 57.04 4.87 58.69 C4.87 60.79 6.52 62.44
									 8.62 62.44 C10.72 62.44 12.37 60.79 12.37 58.69 C12.37 57.04 11.25 55.61 9.75 55.16 L9.75 47.81
									 L14.02 43.54 C14.17 43.39 15.75 41.74 15.75 40.01 L15.75 38.51 L17.25 38.51 L17.25 33.94 Z"
								class="st3"/>
					</g>
				</g>
			</g>
		</g>
	</g>
</svg>
