<?xml version="1.0" encoding="UTF-8" standalone="no"?>
<!DOCTYPE svg PUBLIC "-//W3C//DTD SVG 1.1//EN" "http://www.w3.org/Graphics/SVG/1.1/DTD/svg11.dtd">
<!-- Generated by Microsoft Visio, SVG Export Device, Mac Client.svg Page-1 -->
<svg xmlns="http://www.w3.org/2000/svg" xmlns:xlink="http://www.w3.org/1999/xlink" xmlns:ev="http://www.w3.org/2001/xml-events"
		xmlns:v="http://schemas.microsoft.com/visio/2003/SVGExtensions/" width="1.09375in" height="0.921875in"
		viewBox="0 0 78.75 66.375" xml:space="preserve" color-interpolation-filters="sRGB" class="st3">
	<v:documentProperties v:langID="4108" v:metric="true" v:viewMarkup="false"/>

	<style type="text/css">
	<![CDATA[
		.st1 {fill:#ffffff;stroke:none;stroke-linecap:butt;stroke-width:0.75}
		.st2 {fill:#515150;stroke:none;stroke-linecap:butt;stroke-width:0.75}
		.st3 {fill:none;fill-rule:evenodd;font-size:12px;overflow:visible;stroke-linecap:square;stroke-miterlimit:3}
	]]>
	</style>

	<g v:mID="0" v:index="1" v:groupContext="foregroundPage">
		<title>Page-1</title>
		<v:pageProperties v:drawingScale="0.0393701" v:pageScale="0.0393701" v:drawingUnits="24" v:shadowOffsetX="8.50394"
				v:shadowOffsetY="-8.50394"/>
		<v:layer v:name="symbols" v:index="0"/>
		<g id="group98-1" transform="translate(8.25,-6.9)" v:mID="98" v:groupContext="group" v:layerMember="0">
			<title>Device, Mac Client</title>
			<g id="group99-2" v:mID="99" v:groupContext="group" v:layerMember="0">
				<title>Sheet.99</title>
				<g id="shape100-3" v:mID="100" v:groupContext="shape" v:layerMember="0">
					<title>Sheet.100</title>
					<path d="M21.45 66.3 C19.95 66.3 18.75 65.1 18.75 63.6 L18.75 62.93 C18.75 61.65 19.57 60.53 20.78 60.23 C21.68
								 60 22.2 59.85 22.42 57.98 L5.18 57.98 C2.4 58.05 0 55.65 0 52.8 L0 19.05 C0 16.2 2.4 13.8 5.18 13.8
								 L57.08 13.8 C59.85 13.8 62.25 16.2 62.25 19.05 L62.25 52.8 C62.25 55.65 59.85 58.05 57.08 58.05
								 L39.83 58.05 C40.05 59.93 40.5 60.08 41.47 60.3 C42.68 60.6 43.5 61.73 43.5 63 L43.5 63.68 C43.5
								 65.18 42.3 66.38 40.8 66.38 L21.45 66.38 L21.45 66.3 Z" class="st1"/>
				</g>
				<g id="shape101-5" v:mID="101" v:groupContext="shape" v:layerMember="0" transform="translate(2.25,-2.25)">
					<title>Sheet.101</title>
					<path d="M39 65.85 L39 65.18 C39 64.95 38.92 64.73 38.7 64.65 C36 64.05 35.25 62.63 35.25 58.05 L54.82 58.05
								 C56.47 58.05 57.75 56.63 57.75 55.05 L57.75 21.3 C57.75 19.73 56.4 18.3 54.82 18.3 L2.93 18.3 C1.35
								 18.3 -0 19.73 0 21.3 L0 55.05 C0 56.63 1.35 58.05 2.93 58.05 L22.5 58.05 C22.5 62.63 21.75 64.05
								 19.05 64.73 C18.83 64.8 18.75 65.03 18.75 65.25 L18.75 65.93 C18.75 66.15 18.98 66.38 19.2 66.38
								 L38.55 66.38 C38.77 66.3 39 66.08 39 65.85 ZM54 50.55 L3.75 50.55 L3.75 22.05 L54 22.05 L54 50.55
								 Z" class="st2"/>
				</g>
			</g>
		</g>
	</g>
</svg>
