<?xml version="1.0" encoding="UTF-8" standalone="no"?>
<!DOCTYPE svg PUBLIC "-//W3C//DTD SVG 1.1//EN" "http://www.w3.org/Graphics/SVG/1.1/DTD/svg11.dtd">
<!-- Generated by Microsoft Visio, SVG Export Device, Tablet, iPad.svg Page-1 -->
<svg xmlns="http://www.w3.org/2000/svg" xmlns:xlink="http://www.w3.org/1999/xlink" xmlns:ev="http://www.w3.org/2001/xml-events"
		xmlns:v="http://schemas.microsoft.com/visio/2003/SVGExtensions/" width="0.84375in" height="1.04687in"
		viewBox="0 0 60.75 75.375" xml:space="preserve" color-interpolation-filters="sRGB" class="st3">
	<v:documentProperties v:langID="4108" v:metric="true" v:viewMarkup="false"/>

	<style type="text/css">
	<![CDATA[
		.st1 {fill:#ffffff;stroke:none;stroke-linecap:butt;stroke-width:0.75}
		.st2 {fill:#4c4a4c;stroke:none;stroke-linecap:butt;stroke-width:0.75}
		.st3 {fill:none;fill-rule:evenodd;font-size:12px;overflow:visible;stroke-linecap:square;stroke-miterlimit:3}
	]]>
	</style>

	<g v:mID="0" v:index="1" v:groupContext="foregroundPage">
		<title>Page-1</title>
		<v:pageProperties v:drawingScale="0.0393701" v:pageScale="0.0393701" v:drawingUnits="24" v:shadowOffsetX="8.50394"
				v:shadowOffsetY="-8.50394"/>
		<v:layer v:name="symbols" v:index="0"/>
		<g id="group184-1" transform="translate(8.625,-9.1875)" v:mID="184" v:groupContext="group" v:layerMember="0">
			<title>Device, Tablet, iPad</title>
			<g id="group185-2" v:mID="185" v:groupContext="group" v:layerMember="0">
				<title>Sheet.185</title>
				<g id="shape186-3" v:mID="186" v:groupContext="shape" v:layerMember="0">
					<title>Sheet.186</title>
					<path d="M5.25 75.37 C2.33 75.37 0 73.05 0 70.12 L0 23.62 C0 20.7 2.33 18.37 5.25 18.37 L38.25 18.37 C41.17 18.37
								 43.5 20.7 43.5 23.62 L43.5 70.12 C43.5 73.05 41.17 75.37 38.25 75.37 L5.25 75.37 Z" class="st1"/>
				</g>
				<g id="shape187-5" v:mID="187" v:groupContext="shape" v:layerMember="0" transform="translate(2.25,-2.25)">
					<title>Sheet.187</title>
					<path d="M39 72.37 C39 74.02 37.65 75.37 36 75.37 L3 75.37 C1.35 75.37 0 74.02 0 72.37 L0 25.87 C-0 24.22 1.35
								 22.87 3 22.87 L36 22.87 C37.65 22.87 39 24.22 39 25.87 L39 72.37 Z" class="st2"/>
				</g>
				<g id="shape188-7" v:mID="188" v:groupContext="shape" v:layerMember="0" transform="translate(6,-8.25)">
					<title>Sheet.188</title>
					<rect x="0" y="34.875" width="31.5" height="40.5" class="st1"/>
				</g>
				<g id="shape189-9" v:mID="189" v:groupContext="shape" v:layerMember="0" transform="translate(21,-51)">
					<title>Sheet.189</title>
					<ellipse cx="0.75" cy="74.625" rx="0.75" ry="0.75" class="st1"/>
				</g>
				<g id="shape190-11" v:mID="190" v:groupContext="shape" v:layerMember="0" transform="translate(20.25,-3.75)">
					<title>Sheet.190</title>
					<ellipse cx="1.5" cy="73.875" rx="1.5" ry="1.5" class="st1"/>
				</g>
			</g>
		</g>
	</g>
</svg>
