<?xml version="1.0" encoding="UTF-8" standalone="no"?>
<!DOCTYPE svg PUBLIC "-//W3C//DTD SVG 1.1//EN" "http://www.w3.org/Graphics/SVG/1.1/DTD/svg11.dtd">
<!-- Generated by Microsoft Visio, SVG Export Device, Tablet, Android.svg Page-1 -->
<svg xmlns="http://www.w3.org/2000/svg" xmlns:xlink="http://www.w3.org/1999/xlink" xmlns:ev="http://www.w3.org/2001/xml-events"
		xmlns:v="http://schemas.microsoft.com/visio/2003/SVGExtensions/" width="1.07812in" height="0.796875in"
		viewBox="0 0 77.625 57.375" xml:space="preserve" color-interpolation-filters="sRGB" class="st3">
	<v:documentProperties v:langID="4108" v:metric="true" v:viewMarkup="false"/>

	<style type="text/css">
	<![CDATA[
		.st1 {fill:#ffffff;stroke:none;stroke-linecap:butt;stroke-width:0.75}
		.st2 {fill:#525352;stroke:none;stroke-linecap:butt;stroke-width:0.75}
		.st3 {fill:none;fill-rule:evenodd;font-size:12px;overflow:visible;stroke-linecap:square;stroke-miterlimit:3}
	]]>
	</style>

	<g v:mID="0" v:index="1" v:groupContext="foregroundPage">
		<title>Page-1</title>
		<v:pageProperties v:drawingScale="0.0393701" v:pageScale="0.0393701" v:drawingUnits="24" v:shadowOffsetX="8.50394"
				v:shadowOffsetY="-8.50394"/>
		<v:layer v:name="symbols" v:index="0"/>
		<g id="group181-1" transform="translate(8.8125,-7.6875)" v:mID="181" v:groupContext="group" v:layerMember="0">
			<title>Device, Tablet, Android</title>
			<g id="shape182-2" v:mID="182" v:groupContext="shape" v:layerMember="0">
				<title>Sheet.182</title>
				<path d="M6 57.37 C2.7 57.37 0 54.67 0 51.37 L0 21.37 C-0 18.07 2.7 15.37 6 15.37 L54.75 15.37 C58.05 15.37 60.75
							 18.07 60.75 21.37 L60.75 51.37 C60.75 54.67 58.05 57.37 54.75 57.37 L6 57.37 Z" class="st1"/>
			</g>
			<g id="shape183-4" v:mID="183" v:groupContext="shape" v:layerMember="0" transform="translate(2.25,-2.25)">
				<title>Sheet.183</title>
				<path d="M52.5 19.87 L3.75 19.87 C1.65 19.87 0 21.52 0 23.62 L0 53.62 C0 55.72 1.65 57.37 3.75 57.37 L52.5 57.37
							 C54.6 57.37 56.25 55.72 56.25 53.62 L56.25 23.62 C56.25 21.52 54.6 19.87 52.5 19.87 ZM51.75 51.37 L4.5
							 51.37 L4.5 24.37 L51.75 24.37 L51.75 51.37 Z" class="st2"/>
			</g>
		</g>
	</g>
</svg>
