<?xml version="1.0" encoding="UTF-8" standalone="no"?>
<!DOCTYPE svg PUBLIC "-//W3C//DTD SVG 1.1//EN" "http://www.w3.org/Graphics/SVG/1.1/DTD/svg11.dtd">
<!-- Generated by Microsoft Visio, SVG Export Device, Phone, VoIP.svg Page-1 -->
<svg xmlns="http://www.w3.org/2000/svg" xmlns:xlink="http://www.w3.org/1999/xlink" xmlns:ev="http://www.w3.org/2001/xml-events"
		xmlns:v="http://schemas.microsoft.com/visio/2003/SVGExtensions/" width="1.03125in" height="0.890625in"
		viewBox="0 0 74.25 64.125" xml:space="preserve" color-interpolation-filters="sRGB" class="st3">
	<v:documentProperties v:langID="4108" v:metric="true" v:viewMarkup="false"/>

	<style type="text/css">
	<![CDATA[
		.st1 {fill:#ffffff;stroke:none;stroke-linecap:butt;stroke-width:0.75}
		.st2 {fill:#515150;stroke:none;stroke-linecap:butt;stroke-width:0.75}
		.st3 {fill:none;fill-rule:evenodd;font-size:12px;overflow:visible;stroke-linecap:square;stroke-miterlimit:3}
	]]>
	</style>

	<g v:mID="0" v:index="1" v:groupContext="foregroundPage">
		<title>Page-1</title>
		<v:pageProperties v:drawingScale="0.0393701" v:pageScale="0.0393701" v:drawingUnits="24" v:shadowOffsetX="8.50394"
				v:shadowOffsetY="-8.50394"/>
		<v:layer v:name="symbols" v:index="0"/>
		<g id="group136-1" transform="translate(8.55,-2.0625)" v:mID="136" v:groupContext="group" v:layerMember="0">
			<title>Device, Phone, VoIP</title>
			<g id="group137-2" v:mID="137" v:groupContext="group" v:layerMember="0">
				<title>Sheet.137</title>
				<g id="group138-3" transform="translate(0,-9.075)" v:mID="138" v:groupContext="group" v:layerMember="0">
					<title>Sheet.138</title>
					<g id="shape139-4" v:mID="139" v:groupContext="shape" v:layerMember="0">
						<title>Sheet.139</title>
						<path d="M48.15 17.7 L18.15 17.7 C16.42 17.7 14.85 18.52 13.88 19.87 C13.2 19.12 12.3 18.52 11.18 18.15 C9.98
									 17.77 9.3 17.7 7.65 17.7 C5.93 17.7 5.33 17.77 4.05 18.15 C1.65 18.9 0.22 20.62 0.08 23.1 C0
									 23.92 0.08 24.97 0.15 26.92 C0.22 29.55 0.38 33.9 0.38 41.4 C0.38 47.4 0.22 51.37 0.15 53.92
									 C0.08 56.02 0 57.45 0.08 58.57 C0.22 61.12 1.73 62.92 4.12 63.6 C5.33 63.97 6.37 64.12 7.5 64.12
									 C8.7 64.12 9.9 63.97 11.1 63.6 C12.22 63.3 13.2 62.7 13.88 61.87 C14.85 63.22 16.35 64.05 18.15
									 64.05 L48.15 64.05 C51.07 64.05 53.4 61.72 53.4 58.8 L53.4 22.95 C53.4 20.02 51.07 17.7 48.15
									 17.7 Z" class="st1"/>
					</g>
					<g id="shape140-6" v:mID="140" v:groupContext="shape" v:layerMember="0" transform="translate(2.175,-2.175)">
						<title>Sheet.140</title>
						<path d="M10.73 25.5 C10.58 23.85 9.75 22.95 8.33 22.5 C7.43 22.2 6.98 22.12 5.48 22.12 C3.9 22.12 3.52 22.2
									 2.55 22.5 C1.13 22.95 0.23 23.85 0.15 25.5 C0 27.3 0.45 30.97 0.45 43.65 C0.45 54.37 0 58.27
									 0.15 60.75 C0.23 62.4 1.13 63.37 2.55 63.75 C3.45 63.97 4.35 64.12 5.33 64.12 C6.3 64.12 7.35
									 63.97 8.33 63.75 C9.75 63.37 10.65 62.4 10.73 60.75 C10.88 58.27 10.5 54.6 10.5 43.87 C10.5
									 31.2 10.88 27.3 10.73 25.5 Z" class="st2"/>
					</g>
					<g id="shape141-8" v:mID="141" v:groupContext="shape" v:layerMember="0" transform="translate(15.15,-2.175)">
						<title>Sheet.141</title>
						<path d="M33 22.12 L3 22.12 C1.35 22.12 0 23.47 0 25.12 L0 61.12 C0 62.77 1.35 64.12 3 64.12 L33 64.12 C34.65
									 64.12 36 62.77 36 61.12 L36 25.12 C36 23.47 34.65 22.12 33 22.12 ZM12.75 54.37 C12.75 54.82
									 12.45 55.12 12 55.12 L8.25 55.12 C7.8 55.12 7.5 54.82 7.5 54.37 L7.5 52.87 C7.5 52.42 7.8 52.12
									 8.25 52.12 L12 52.12 C12.45 52.12 12.75 52.42 12.75 52.87 L12.75 54.37 ZM12.75 49.12 C12.75
									 49.57 12.45 49.87 12 49.87 L8.25 49.87 C7.8 49.87 7.5 49.57 7.5 49.12 L7.5 47.62 C7.5 47.17
									 7.8 46.87 8.25 46.87 L12 46.87 C12.45 46.87 12.75 47.17 12.75 47.62 L12.75 49.12 ZM12.75 43.87
									 C12.75 44.32 12.45 44.62 12 44.62 L8.25 44.62 C7.8 44.62 7.5 44.32 7.5 43.87 L7.5 42.37 C7.5
									 41.92 7.8 41.62 8.25 41.62 L12 41.62 C12.45 41.62 12.75 41.92 12.75 42.37 L12.75 43.87 ZM20.25
									 54.37 C20.25 54.82 19.95 55.12 19.5 55.12 L15.75 55.12 C15.3 55.12 15 54.82 15 54.37 L15 52.87
									 C15 52.42 15.3 52.12 15.75 52.12 L19.5 52.12 C19.95 52.12 20.25 52.42 20.25 52.87 L20.25 54.37
									 ZM20.25 49.12 C20.25 49.57 19.95 49.87 19.5 49.87 L15.75 49.87 C15.3 49.87 15 49.57 15 49.12
									 L15 47.62 C15 47.17 15.3 46.87 15.75 46.87 L19.5 46.87 C19.95 46.87 20.25 47.17 20.25 47.62
									 L20.25 49.12 ZM20.25 43.87 C20.25 44.32 19.95 44.62 19.5 44.62 L15.75 44.62 C15.3 44.62 15 44.32
									 15 43.87 L15 42.37 C15 41.92 15.3 41.62 15.75 41.62 L19.5 41.62 C19.95 41.62 20.25 41.92 20.25
									 42.37 L20.25 43.87 ZM27.75 54.37 C27.75 54.82 27.45 55.12 27 55.12 L23.25 55.12 C22.8 55.12
									 22.5 54.82 22.5 54.37 L22.5 52.87 C22.5 52.42 22.8 52.12 23.25 52.12 L27 52.12 C27.45 52.12
									 27.75 52.42 27.75 52.87 L27.75 54.37 ZM27.75 49.12 C27.75 49.57 27.45 49.87 27 49.87 L23.25
									 49.87 C22.8 49.87 22.5 49.57 22.5 49.12 L22.5 47.62 C22.5 47.17 22.8 46.87 23.25 46.87 L27 46.87
									 C27.45 46.87 27.75 47.17 27.75 47.62 L27.75 49.12 ZM27.75 43.87 C27.75 44.32 27.45 44.62 27
									 44.62 L23.25 44.62 C22.8 44.62 22.5 44.32 22.5 43.87 L22.5 42.37 C22.5 41.92 22.8 41.62 23.25
									 41.62 L27 41.62 C27.45 41.62 27.75 41.92 27.75 42.37 L27.75 43.87 ZM30 35.62 C30 36.07 29.7
									 36.37 29.25 36.37 L6.75 36.37 C6.3 36.37 6 36.07 6 35.62 L6 27.37 C6 26.92 6.3 26.62 6.75 26.62
									 L29.25 26.62 C29.7 26.62 30 26.92 30 27.37 L30 35.62 Z" class="st2"/>
					</g>
				</g>
				<g id="group142-10" transform="translate(28.65,-2.70006E-13)" v:mID="142" v:groupContext="group" v:layerMember="0">
					<title>Sheet.142</title>
					<g id="shape143-11" v:mID="143" v:groupContext="shape" v:layerMember="0">
						<title>Sheet.143</title>
						<ellipse cx="16.5" cy="47.625" rx="16.5" ry="16.5" class="st1"/>
					</g>
					<g id="group144-13" transform="translate(2.325,-2.325)" v:mID="144" v:groupContext="group" v:layerMember="0">
						<title>Sheet.144</title>
						<g id="shape145-14" v:mID="145" v:groupContext="shape" v:layerMember="0"
								transform="translate(15.075,-14.625)">
							<title>Sheet.145</title>
							<path d="M5.63 56.92 C3.9 57.45 1.95 57.75 0 57.82 L0 64.12 C2.4 64.05 4.73 63.75 6.83 63.15 C6.6 60.9
										 6.23 58.8 5.63 56.92 Z" class="st2"/>
						</g>
						<g id="shape146-16" v:mID="146" v:groupContext="shape" v:layerMember="0"
								transform="translate(4.725,-23.775)">
							<title>Sheet.146</title>
							<path d="M4.5 60.37 C2.85 60.97 1.35 61.95 0 63.07 C0.68 63.45 1.43 63.82 2.18 64.12 C2.85 62.7 3.6 61.42
										 4.5 60.37 Z" class="st2"/>
						</g>
						<g id="shape147-18" v:mID="147" v:groupContext="shape" v:layerMember="0" transform="translate(8.4,-22.35)">
							<title>Sheet.147</title>
							<path d="M0 63.3 C1.57 63.75 3.3 64.05 5.1 64.12 L5.1 58.12 C4.87 58.12 4.72 58.12 4.5 58.12 C2.7 58.72
										 1.13 60.6 0 63.3 Z" class="st2"/>
						</g>
						<g id="shape148-20" v:mID="148" v:groupContext="shape" v:layerMember="0"
								transform="translate(6.75,-14.625)">
							<title>Sheet.148</title>
							<path d="M0 63.15 C2.1 63.75 4.43 64.05 6.83 64.12 L6.83 57.82 C4.88 57.75 2.93 57.45 1.2 56.92 C0.45
										 58.8 0.08 60.9 0 63.15 Z" class="st2"/>
						</g>
						<g id="shape149-22" v:mID="149" v:groupContext="shape" v:layerMember="0" transform="translate(22.65,-8.4)">
							<title>Sheet.149</title>
							<path d="M0.68 58.2 C0.68 60.3 0.45 62.32 0 64.12 C2.03 63.37 3.9 62.4 5.48 61.2 C5.7 60.22 5.78 59.25
										 5.78 58.27 C5.78 57.37 5.7 56.47 5.55 55.65 C4.13 56.62 2.48 57.37 0.6 57.97 C0.68 58.12
										 0.68 58.12 0.68 58.2 Z" class="st2"/>
						</g>
						<g id="shape150-24" v:mID="150" v:groupContext="shape" v:layerMember="0"
								transform="translate(-1.41887E-13,-8.25)">
							<title>Sheet.150</title>
							<path d="M5.18 58.05 C5.18 57.97 5.18 57.9 5.18 57.82 C3.38 57.22 1.65 56.4 0.22 55.5 C0.07 56.32 0 57.22
										 0 58.12 C0 59.32 0.15 60.45 0.45 61.5 C2.1 62.62 3.9 63.52 5.85 64.12 C5.4 62.32 5.18 60.3
										 5.18 58.05 Z" class="st2"/>
						</g>
						<g id="shape151-26" v:mID="151" v:groupContext="shape" v:layerMember="0"
								transform="translate(0.675,-16.05)">
							<title>Sheet.151</title>
							<path d="M3 56.47 C1.65 57.97 0.6 59.77 0 61.8 C1.28 62.77 2.85 63.52 4.58 64.12 C4.73 61.87 5.1 59.7
										 5.78 57.9 C4.73 57.45 3.83 57 3 56.47 Z" class="st2"/>
						</g>
						<g id="shape152-28" v:mID="152" v:groupContext="shape" v:layerMember="0"
								transform="translate(14.925,-22.425)">
							<title>Sheet.152</title>
							<path d="M0.07 64.12 C1.87 64.05 3.6 63.75 5.17 63.3 C4.05 60.67 2.4 58.72 0.6 58.12 C0.37 58.12 0.22
										 58.12 0 58.12 L0 64.12 L0.07 64.12 Z" class="st2"/>
						</g>
						<g id="shape153-30" v:mID="153" v:groupContext="shape" v:layerMember="0" transform="translate(1.2,-0.825)">
							<title>Sheet.153</title>
							<path d="M5.18 58.5 C3.3 57.97 1.58 57.22 0 56.32 C1.58 59.92 4.58 62.77 8.33 64.12 C6.98 62.77 5.93
										 60.82 5.18 58.5 Z" class="st2"/>
						</g>
						<g id="shape154-32" v:mID="154" v:groupContext="shape" v:layerMember="0"
								transform="translate(19.275,-23.7)">
							<title>Sheet.154</title>
							<path d="M0 60.3 C0.9 61.35 1.65 62.62 2.25 64.12 C3 63.82 3.75 63.45 4.43 63.07 C3.23 61.87 1.73 60.9
										 0 60.3 Z" class="st2"/>
						</g>
						<g id="shape155-34" v:mID="155" v:groupContext="shape" v:layerMember="0"
								transform="translate(22.125,-16.05)">
							<title>Sheet.155</title>
							<path d="M5.78 61.8 C5.18 59.77 4.13 57.97 2.78 56.47 C1.95 57 1.05 57.45 0 57.9 C0.6 59.77 1.05 61.87
										 1.2 64.12 C2.93 63.52 4.43 62.7 5.78 61.8 Z" class="st2"/>
						</g>
						<g id="shape156-36" v:mID="156" v:groupContext="shape" v:layerMember="0"
								transform="translate(19.05,-0.825)">
							<title>Sheet.156</title>
							<path d="M3.15 58.35 C2.4 60.75 1.35 62.7 0 64.12 C3.82 62.77 6.9 59.77 8.4 55.95 C6.83 57 5.1 57.75
										 3.15 58.35 Z" class="st2"/>
						</g>
						<g id="shape157-38" v:mID="157" v:groupContext="shape" v:layerMember="0"
								transform="translate(8.1,1.42109E-13)">
							<title>Sheet.157</title>
							<path d="M5.4 64.12 L5.4 58.8 C3.53 58.8 1.73 58.57 0 58.2 C1.28 61.42 3.23 63.67 5.4 64.12 Z"
									class="st2"/>
						</g>
						<g id="shape158-40" v:mID="158" v:groupContext="shape" v:layerMember="0" transform="translate(15,-6.825)">
							<title>Sheet.158</title>
							<path d="M6.83 56.92 C4.73 57.45 2.4 57.82 0 57.9 L0 64.12 C2.03 64.05 4.05 63.75 6 63.22 C6.53 61.27
										 6.83 59.1 6.83 56.92 Z" class="st2"/>
						</g>
						<g id="shape159-42" v:mID="159" v:groupContext="shape" v:layerMember="0" transform="translate(6.675,-6.9)">
							<title>Sheet.159</title>
							<path d="M6.83 64.12 L6.83 57.9 C4.43 57.82 2.1 57.52 0 56.92 C0 59.25 0.37 61.42 0.9 63.3 C2.78 63.82
										 4.8 64.12 6.83 64.12 Z" class="st2"/>
						</g>
						<g id="shape160-44" v:mID="160" v:groupContext="shape" v:layerMember="0" transform="translate(15,-0.075)">
							<title>Sheet.160</title>
							<path d="M0 58.8 L0 64.12 C2.18 63.67 4.2 61.35 5.4 58.05 C3.68 58.5 1.88 58.72 0 58.8 Z" class="st2"/>
						</g>
					</g>
				</g>
			</g>
		</g>
	</g>
</svg>
