<?xml version="1.0" encoding="UTF-8" standalone="no"?>
<!DOCTYPE svg PUBLIC "-//W3C//DTD SVG 1.1//EN" "http://www.w3.org/Graphics/SVG/1.1/DTD/svg11.dtd">
<!-- Generated by Microsoft Visio, SVG Export Device, RoundTable.svg Page-1 -->
<svg xmlns="http://www.w3.org/2000/svg" xmlns:xlink="http://www.w3.org/1999/xlink" xmlns:ev="http://www.w3.org/2001/xml-events"
		xmlns:v="http://schemas.microsoft.com/visio/2003/SVGExtensions/" width="0.796875in" height="1.07812in"
		viewBox="0 0 57.375 77.625" xml:space="preserve" color-interpolation-filters="sRGB" class="st3">
	<v:documentProperties v:langID="4108" v:metric="true" v:viewMarkup="false"/>

	<style type="text/css">
	<![CDATA[
		.st1 {fill:#ffffff;stroke:none;stroke-linecap:butt;stroke-width:0.75}
		.st2 {fill:#515050;stroke:none;stroke-linecap:butt;stroke-width:0.75}
		.st3 {fill:none;fill-rule:evenodd;font-size:12px;overflow:visible;stroke-linecap:square;stroke-miterlimit:3}
	]]>
	</style>

	<g v:mID="0" v:index="1" v:groupContext="foregroundPage">
		<title>Page-1</title>
		<v:pageProperties v:drawingScale="0.0393701" v:pageScale="0.0393701" v:drawingUnits="24" v:shadowOffsetX="8.50394"
				v:shadowOffsetY="-8.50394"/>
		<v:layer v:name="symbols" v:index="0"/>
		<g id="group168-1" transform="translate(1.3125,-8.0625)" v:mID="168" v:groupContext="group" v:layerMember="0">
			<title>Device, RoundTable</title>
			<g id="group169-2" v:mID="169" v:groupContext="group" v:layerMember="0">
				<title>Sheet.169</title>
				<g id="shape170-3" v:mID="170" v:groupContext="shape" v:layerMember="0">
					<title>Sheet.170</title>
					<path d="M27.37 77.62 C21 77.62 14.62 77.17 9.9 76.42 C5.02 75.67 0 74.4 0 70.87 L0 70.35 C0 67.65 3.22 66.37
								 4.8 65.77 C4.95 65.7 5.1 65.62 5.33 65.62 C5.47 65.47 5.77 64.87 6.08 63.75 L6.08 63.67 C9.07 48.82
								 14.55 40.12 18.75 34.87 C18.37 34.57 18 34.2 17.78 33.75 C17.4 33.07 17.18 32.32 17.18 31.5 L17.18
								 20.62 C17.18 16.42 24.9 16.12 27.3 16.12 C29.7 16.12 37.5 16.42 37.5 20.62 L37.5 30.97 C37.5 32.25
								 36.97 33.45 36 34.27 C35.25 34.95 34.05 35.47 31.65 36.45 C29.1 37.5 25.28 39 24.07 40.35 C20.93
								 44.47 16.58 51.22 13.95 63.07 C14.93 62.77 15.9 62.4 16.8 62.02 C19.88 60.82 23.1 59.62 27.37 59.62
								 C31.35 59.62 34.42 60.75 37.57 61.95 C39 62.47 40.42 63 42 63.45 C42.67 63.67 43.35 63.82 44.1 64.05
								 C50.25 65.77 54.75 67.05 54.75 70.35 L54.75 70.87 C54.75 74.4 49.72 75.67 44.85 76.42 C40.13 77.17
								 33.75 77.62 27.37 77.62 Z" class="st1"/>
				</g>
				<g id="shape171-5" v:mID="171" v:groupContext="shape" v:layerMember="0" transform="translate(2.25,-2.25)">
					<title>Sheet.171</title>
					<path d="M39.15 67.87 C33.97 66.37 30.38 64.12 25.12 64.12 C19.27 64.12 15.6 66.67 10.35 68.1 C10.28 68.1 10.28
								 68.1 10.2 68.17 C9.15 68.4 8.93 67.87 9 67.12 C11.55 54.37 15.97 46.57 20.1 41.1 C22.5 38.32 30.97
								 36 32.25 34.87 C32.7 34.42 33 33.9 33 33.22 L33 22.87 C33 21.82 30.08 20.62 25.12 20.62 C20.17 20.62
								 17.25 21.82 17.25 22.87 L17.25 33.75 C17.25 34.12 17.33 34.5 17.55 34.87 C18 35.62 19.87 36.22 19.05
								 37.65 C14.32 43.42 9 51.82 6.07 66.52 C5.78 67.57 5.18 69.6 3.75 70.05 C3.67 70.05 3.6 70.12 3.52
								 70.12 C1.43 70.87 0 71.7 0 72.6 L0 73.12 C0 76.05 12.9 77.62 25.12 77.62 C37.35 77.62 50.25 76.05
								 50.25 73.12 L50.25 72.6 C50.25 70.8 44.25 69.37 39.15 67.87 Z" class="st2"/>
				</g>
			</g>
		</g>
	</g>
</svg>
