<?xml version="1.0" encoding="UTF-8" standalone="no"?>
<!DOCTYPE svg PUBLIC "-//W3C//DTD SVG 1.1//EN" "http://www.w3.org/Graphics/SVG/1.1/DTD/svg11.dtd">
<!-- Generated by Microsoft Visio, SVG Export Device, Bluetooth.svg Page-1 -->
<svg xmlns="http://www.w3.org/2000/svg" xmlns:xlink="http://www.w3.org/1999/xlink" xmlns:ev="http://www.w3.org/2001/xml-events"
		xmlns:v="http://schemas.microsoft.com/visio/2003/SVGExtensions/" width="0.90625in" height="1.01563in"
		viewBox="0 0 65.25 73.125" xml:space="preserve" color-interpolation-filters="sRGB" class="st3">
	<v:documentProperties v:langID="4108" v:metric="true" v:viewMarkup="false"/>

	<style type="text/css">
	<![CDATA[
		.st1 {fill:#ffffff;stroke:none;stroke-linecap:butt;stroke-width:0.75}
		.st2 {fill:#515050;stroke:none;stroke-linecap:butt;stroke-width:0.75}
		.st3 {fill:none;fill-rule:evenodd;font-size:12px;overflow:visible;stroke-linecap:square;stroke-miterlimit:3}
	]]>
	</style>

	<g v:mID="0" v:index="1" v:groupContext="foregroundPage">
		<title>Page-1</title>
		<v:pageProperties v:drawingScale="0.0393701" v:pageScale="0.0393701" v:drawingUnits="24" v:shadowOffsetX="8.50394"
				v:shadowOffsetY="-8.50394"/>
		<v:layer v:name="symbols" v:index="0"/>
		<g id="group66-1" transform="translate(1.4625,-6)" v:mID="66" v:groupContext="group" v:layerMember="0">
			<title>Device, Bluetooth</title>
			<g id="group67-2" v:mID="67" v:groupContext="group" v:layerMember="0">
				<title>Sheet.67</title>
				<g id="shape68-3" v:mID="68" v:groupContext="shape" v:layerMember="0">
					<title>Sheet.68</title>
					<path d="M42.98 17.33 L42.07 17.1 C41.7 16.43 41.17 15.9 40.72 15.38 C37.42 12 32.85 12 29.55 12 C24.75 12 20.1
								 12.53 17.18 16.95 L16.35 17.18 C9.3 18.75 3.9 21.68 1.2 25.28 C0.38 26.4 0 27.75 0.22 29.1 C0.45
								 30.45 1.13 31.65 2.25 32.48 C3.15 33.15 4.2 33.53 5.33 33.53 C6.97 33.53 8.47 32.78 9.45 31.43 C10.05
								 30.6 11.62 29.48 14.4 28.43 C14.4 28.95 14.4 29.4 14.4 29.93 C14.4 37.73 16.05 48 18.75 56.93 C21.98
								 67.65 25.65 73.13 29.62 73.13 C36.45 73.13 41.32 55.95 43.2 45.68 C53.62 43.2 59.7 38.1 59.7 31.58
								 C59.7 25.05 53.62 19.88 42.98 17.33 ZM44.48 34.65 C44.55 33.08 44.63 31.58 44.7 30.08 C44.7 29.55
								 44.7 29.1 44.7 28.58 C47.7 29.78 49.12 30.98 49.35 31.58 C49.12 32.03 47.78 33.38 44.48 34.65 Z"
							class="st1"/>
				</g>
				<g id="shape69-5" v:mID="69" v:groupContext="shape" v:layerMember="0" transform="translate(1.95,-41.475)">
					<title>Sheet.69</title>
					<path d="M13.88 61.05 C7.95 62.55 3.3 64.95 0.98 68.1 C-0 69.38 0.3 71.25 1.57 72.15 C2.85 73.13 4.73 72.83 5.63
								 71.55 C6.75 70.13 9.15 68.63 12.53 67.5 C12.75 64.88 13.2 62.78 13.88 61.05 Z" class="st2"/>
				</g>
				<g id="shape70-7" v:mID="70" v:groupContext="shape" v:layerMember="0" transform="translate(16.65,-2.1)">
					<title>Sheet.70</title>
					<path d="M34.95 33.68 C34.95 35.7 31.35 38.25 25.28 39.9 C25.58 37.35 25.73 34.73 25.8 32.18 C26.1 16.5 18.83
								 16.43 12.9 16.43 C6.97 16.43 0 16.5 0 32.18 C-0 47.85 6.97 73.13 12.9 73.13 C16.8 73.13 22.05 60.9
								 24.53 46.13 C33.53 44.1 40.8 39.9 40.8 33.68 L34.95 33.68 Z" class="st2"/>
				</g>
				<g id="shape71-9" v:mID="71" v:groupContext="shape" v:layerMember="0" transform="translate(20.7,-22.2)">
					<title>Sheet.71</title>
					<path d="M8.77 73.13 C5.25 73.13 0 65.55 0 52.05 C0 40.65 3.3 40.65 8.77 40.65 C14.25 40.65 17.55 40.65 17.55
								 52.05 C17.55 65.55 12.38 73.13 8.77 73.13 Z" class="st1"/>
				</g>
				<g id="shape72-11" v:mID="72" v:groupContext="shape" v:layerMember="0" transform="translate(22.65,-29.775)">
					<title>Sheet.72</title>
					<path d="M6.07 73.13 C5.92 73.13 5.77 73.13 5.62 73.05 C5.17 72.9 4.95 72.45 4.95 72 L4.95 65.4 L1.95 67.95 C1.5
								 68.33 0.75 68.33 0.37 67.8 C-0 67.35 0 66.6 0.52 66.23 L4.35 63 L0.52 59.78 C0.07 59.4 0 58.65 0.37
								 58.2 C0.75 57.75 1.5 57.68 1.95 58.05 L4.95 60.6 L4.95 54 C4.95 53.55 5.25 53.1 5.62 52.95 C6 52.8
								 6.52 52.88 6.82 53.18 L11.7 58.05 C11.92 58.28 12.07 58.58 12 58.88 C12 59.18 11.85 59.48 11.62
								 59.7 L7.8 63 L11.7 66.3 C11.92 66.53 12.07 66.83 12.07 67.13 C12.07 67.43 12 67.73 11.77 67.95 L6.9
								 72.83 C6.67 72.98 6.37 73.13 6.07 73.13 ZM7.2 65.25 L7.2 69.38 L9.45 67.2 L7.2 65.25 ZM7.2 56.63
								 L7.2 60.75 L9.45 58.88 L7.2 56.63 Z" class="st2"/>
				</g>
				<g id="shape73-13" v:mID="73" v:groupContext="shape" v:layerMember="0" transform="translate(43.2,-29.775)">
					<title>Sheet.73</title>
					<path d="M0 49.5 C0.6 51.23 1.05 53.33 1.27 55.95 C5.85 57.53 8.4 59.7 8.4 61.35 C8.4 63.08 5.7 65.25 1.05 66.83
								 C0.82 68.85 0.6 70.95 0.23 73.13 C8.17 71.03 14.25 67.05 14.25 61.35 C14.25 55.58 8.1 51.6 0 49.5
								 Z" class="st2"/>
				</g>
			</g>
		</g>
	</g>
</svg>
