<?xml version="1.0" encoding="UTF-8" standalone="no"?>
<!DOCTYPE svg PUBLIC "-//W3C//DTD SVG 1.1//EN" "http://www.w3.org/Graphics/SVG/1.1/DTD/svg11.dtd">
<!-- Generated by Microsoft Visio, SVG Export Device, Tablet, Windows 7-inch.svg Page-1 -->
<svg xmlns="http://www.w3.org/2000/svg" xmlns:xlink="http://www.w3.org/1999/xlink" xmlns:ev="http://www.w3.org/2001/xml-events"
		xmlns:v="http://schemas.microsoft.com/visio/2003/SVGExtensions/" width="0.796875in" height="0.953125in"
		viewBox="0 0 57.375 68.625" xml:space="preserve" color-interpolation-filters="sRGB" class="st3">
	<v:documentProperties v:langID="4108" v:metric="true" v:viewMarkup="false"/>

	<style type="text/css">
	<![CDATA[
		.st1 {fill:#ffffff;stroke:none;stroke-linecap:butt;stroke-width:0.75}
		.st2 {fill:#515150;stroke:none;stroke-linecap:butt;stroke-width:0.75}
		.st3 {fill:none;fill-rule:evenodd;font-size:12px;overflow:visible;stroke-linecap:square;stroke-miterlimit:3}
	]]>
	</style>

	<g v:mID="0" v:index="1" v:groupContext="foregroundPage">
		<title>Page-1</title>
		<v:pageProperties v:drawingScale="0.0393701" v:pageScale="0.0393701" v:drawingUnits="24" v:shadowOffsetX="8.50394"
				v:shadowOffsetY="-8.50394"/>
		<v:layer v:name="symbols" v:index="0"/>
		<g id="group202-1" transform="translate(9.75,-8.4375)" v:mID="202" v:groupContext="group" v:layerMember="0">
			<title>Device, Tablet, Windows 7-inch</title>
			<g id="group203-2" v:mID="203" v:groupContext="group" v:layerMember="0">
				<title>Sheet.203</title>
				<g id="shape204-3" v:mID="204" v:groupContext="shape" v:layerMember="0">
					<title>Sheet.204</title>
					<path d="M3.75 68.63 C1.65 68.63 0 66.98 0 64.88 L0 20.63 C0 18.53 1.65 16.88 3.75 16.88 L34.5 16.88 C36.6 16.88
								 38.25 18.53 38.25 20.63 L38.25 64.88 C38.25 66.98 36.6 68.63 34.5 68.63 L3.75 68.63 Z" class="st1"/>
				</g>
				<g id="shape205-5" v:mID="205" v:groupContext="shape" v:layerMember="0" transform="translate(2.25,-2.25)">
					<title>Sheet.205</title>
					<path d="M33.75 67.13 C33.75 67.95 33.08 68.63 32.25 68.63 L1.5 68.63 C0.67 68.63 0 67.95 0 67.13 L0 22.88 C0
								 22.05 0.67 21.38 1.5 21.38 L32.25 21.38 C33.07 21.38 33.75 22.05 33.75 22.88 L33.75 67.13 Z"
							class="st2"/>
				</g>
				<g id="shape206-7" v:mID="206" v:groupContext="shape" v:layerMember="0" transform="translate(6,-6)">
					<title>Sheet.206</title>
					<rect x="0" y="28.875" width="26.25" height="39.75" class="st1"/>
				</g>
			</g>
		</g>
	</g>
</svg>
