<?xml version="1.0" encoding="UTF-8" standalone="no"?>
<!DOCTYPE svg PUBLIC "-//W3C//DTD SVG 1.1//EN" "http://www.w3.org/Graphics/SVG/1.1/DTD/svg11.dtd">
<!-- Generated by Microsoft Visio, SVG Export Device, Headset.svg Page-1 -->
<svg xmlns="http://www.w3.org/2000/svg" xmlns:xlink="http://www.w3.org/1999/xlink" xmlns:ev="http://www.w3.org/2001/xml-events"
		xmlns:v="http://schemas.microsoft.com/visio/2003/SVGExtensions/" width="0.78125in" height="0.90625in"
		viewBox="0 0 56.25 65.25" xml:space="preserve" color-interpolation-filters="sRGB" class="st3">
	<v:documentProperties v:langID="4108" v:metric="true" v:viewMarkup="false"/>

	<style type="text/css">
	<![CDATA[
		.st1 {fill:#ffffff;stroke:none;stroke-linecap:butt;stroke-width:0.75}
		.st2 {fill:#515150;stroke:none;stroke-linecap:butt;stroke-width:0.75}
		.st3 {fill:none;fill-rule:evenodd;font-size:12px;overflow:visible;stroke-linecap:square;stroke-miterlimit:3}
	]]>
	</style>

	<g v:mID="0" v:index="1" v:groupContext="foregroundPage">
		<title>Page-1</title>
		<v:pageProperties v:drawingScale="0.0393701" v:pageScale="0.0393701" v:drawingUnits="24" v:shadowOffsetX="8.50394"
				v:shadowOffsetY="-8.50394"/>
		<v:layer v:name="symbols" v:index="0"/>
		<g id="group83-1" transform="translate(8.0625,-7.275)" v:mID="83" v:groupContext="group" v:layerMember="0">
			<title>Device, Headset</title>
			<g id="group84-2" v:mID="84" v:groupContext="group" v:layerMember="0">
				<title>Sheet.84</title>
				<g id="shape85-3" v:mID="85" v:groupContext="shape" v:layerMember="0">
					<title>Sheet.85</title>
					<path d="M20.25 13.42 C7.8 13.42 0 21.9 0 35.55 L0 41.92 C0 43.12 0.6 44.4 1.65 45.15 L1.65 46.87 C1.65 60 8.03
								 63.22 12.83 63.75 C13.8 64.65 15.23 65.25 16.65 65.25 L23.92 65.25 C26.4 65.25 29.1 63.45 29.1 60.82
								 C29.1 58.42 26.7 56.25 23.92 56.25 L16.65 56.25 C15.3 56.25 13.95 56.77 13.05 57.6 C10.88 57.22
								 9 55.95 8.25 51.82 C9 52.12 9.75 52.35 10.5 52.35 C14.1 52.35 14.25 48.67 14.25 47.47 C14.25 47.32
								 14.25 46.87 14.25 46.87 L14.25 38.4 C14.25 37.05 14.25 35.32 13.05 34.12 C12.6 33.67 11.77 33.07
								 10.43 33.07 C9.53 33.07 8.7 33.22 7.8 33.45 C8.33 25.2 12.38 21.22 20.25 21.22 C28.12 21.22 32.17
								 25.27 32.7 33.52 C31.88 33.22 30.98 33.07 30.07 33.07 C28.42 33.07 27.08 34.05 26.55 35.62 C26.25
								 36.52 26.25 37.57 26.25 38.55 L26.25 46.8 L26.25 47.32 C26.32 48.52 26.4 52.35 30.07 52.35 C33.3
								 52.35 36.9 49.12 38.25 45.45 C38.7 45.22 39.07 44.92 39.37 44.7 C40.5 43.57 40.5 42.07 40.5 41.85
								 L40.5 35.62 C40.5 21.9 32.78 13.42 20.25 13.42 Z" class="st1"/>
				</g>
				<g id="shape86-5" v:mID="86" v:groupContext="shape" v:layerMember="0" transform="translate(2.25,-2.25)">
					<title>Sheet.86</title>
					<path d="M18 17.92 C6.22 17.92 0 26.02 0 37.8 C0 38.17 0 44.17 0 44.17 C0 44.17 -0 45.82 1.65 45.82 L1.65 49.12
								 C1.65 58.65 5.02 63.6 11.7 63.82 C12.15 64.65 13.28 65.25 14.4 65.25 L21.67 65.25 C23.1 65.25 24.6
								 64.27 24.6 63.07 C24.6 61.87 23.17 60.75 21.67 60.75 L14.4 60.75 C13.28 60.75 12.22 61.35 11.7 62.25
								 C6 61.87 3.3 57.67 3.3 49.05 L3.3 48.67 C4.65 50.7 6.6 52.27 8.25 52.27 C9.9 52.27 9.75 50.62 9.83
								 48.97 L9.83 40.87 C9.83 39.22 9.9 37.57 8.25 37.57 C6.45 37.57 4.57 38.25 3.3 39.6 L3.3 37.57 C3.3
								 26.55 8.7 21.22 18.07 21.22 C27.37 21.22 32.85 26.55 32.85 37.57 L32.85 39.9 C31.57 38.4 29.77 37.57
								 27.9 37.57 C26.25 37.57 26.32 39.22 26.32 40.87 L26.32 49.05 C26.4 50.62 26.32 52.35 27.9 52.35
								 C30.37 52.35 33.67 48.97 34.35 45.75 C34.42 45.75 34.42 45.75 34.5 45.75 C36.15 45.75 36.07 44.02
								 36.07 44.02 C36.07 44.02 36.07 38.1 36.07 37.8 C36 26.02 29.85 17.92 18 17.92 Z" class="st2"/>
				</g>
			</g>
		</g>
	</g>
</svg>
