<?xml version="1.0" encoding="UTF-8" standalone="no"?>
<!DOCTYPE svg PUBLIC "-//W3C//DTD SVG 1.1//EN" "http://www.w3.org/Graphics/SVG/1.1/DTD/svg11.dtd">
<!-- Generated by Microsoft Visio, SVG Export Hard Disk.svg Page-1 -->
<svg xmlns="http://www.w3.org/2000/svg" xmlns:xlink="http://www.w3.org/1999/xlink" xmlns:ev="http://www.w3.org/2001/xml-events"
		xmlns:v="http://schemas.microsoft.com/visio/2003/SVGExtensions/" width="0.859375in" height="1.01563in"
		viewBox="0 0 61.875 73.125" xml:space="preserve" color-interpolation-filters="sRGB" class="st3">
	<v:documentProperties v:langID="4108" v:metric="true" v:viewMarkup="false"/>

	<style type="text/css">
	<![CDATA[
		.st1 {fill:#ffffff;stroke:none;stroke-linecap:butt;stroke-width:0.75}
		.st2 {fill:#515050;stroke:none;stroke-linecap:butt;stroke-width:0.75}
		.st3 {fill:none;fill-rule:evenodd;font-size:12px;overflow:visible;stroke-linecap:square;stroke-miterlimit:3}
	]]>
	</style>

	<g v:mID="0" v:index="1" v:groupContext="foregroundPage">
		<title>Page-1</title>
		<v:pageProperties v:drawingScale="0.0393701" v:pageScale="0.0393701" v:drawingUnits="24" v:shadowOffsetX="8.50394"
				v:shadowOffsetY="-8.50394"/>
		<v:layer v:name="symbols" v:index="0"/>
		<g id="group250-1" transform="translate(53.2125,-7.3125) scale(-1,1)" v:mID="250" v:groupContext="group" v:layerMember="0">
			<title>Hard Disk</title>
			<g id="group251-2" v:mID="251" v:groupContext="group" v:layerMember="0">
				<title>Sheet.251</title>
				<g id="shape252-3" v:mID="252" v:groupContext="shape" v:layerMember="0">
					<title>Sheet.252</title>
					<path d="M6.07 73.12 C2.7 73.12 0 70.35 0 66.97 L0 20.78 C0 17.4 2.77 14.62 6.07 14.62 L38.85 14.62 C42.22 14.63
								 44.92 17.4 44.92 20.78 L44.92 66.9 C44.92 70.27 42.15 73.05 38.85 73.05 L6.07 73.05 L6.07 73.12
								 Z" class="st1"/>
				</g>
				<g id="shape253-5" v:mID="253" v:groupContext="shape" v:layerMember="0" transform="translate(2.25,-2.25)">
					<title>Sheet.253</title>
					<path d="M40.5 69.23 C40.5 71.4 38.77 73.12 36.68 73.12 L3.82 73.12 C1.73 73.12 0 71.4 0 69.23 L0 23.03 C0 20.85
								 1.73 19.13 3.82 19.13 L36.6 19.13 C38.7 19.13 40.42 20.85 40.42 23.03 L40.42 69.23 L40.5 69.23 Z"
							class="st2"/>
				</g>
				<g id="shape254-7" v:mID="254" v:groupContext="shape" v:layerMember="0" transform="translate(16.95,-30.45)">
					<title>Sheet.254</title>
					<path d="M11.1 67.57 C11.1 70.65 8.62 73.12 5.55 73.12 C2.47 73.12 0 70.65 0 67.57 C0 64.5 2.47 62.02 5.55 62.02
								 C8.62 62.02 11.1 64.5 11.1 67.57 Z" class="st2"/>
				</g>
				<g id="group255-9" transform="translate(4.725,-5.325)" v:mID="255" v:groupContext="group" v:layerMember="0">
					<title>Sheet.255</title>
					<g id="shape256-10" v:mID="256" v:groupContext="shape" v:layerMember="0" transform="translate(20.925,0)">
						<title>Sheet.256</title>
						<path d="M13.5 65.32 L1.8 51.82 L0 52.87 L6.37 69.6 C6.37 69.6 6.75 70.2 6.9 70.5 C8.1 72.45 10.65 73.12
									 12.6 71.92 C14.55 70.72 15.22 68.18 14.02 66.22 C13.87 65.93 13.5 65.32 13.5 65.32 Z"
								class="st1"/>
					</g>
					<g id="group257-12" transform="translate(0,-12.9)" v:mID="257" v:groupContext="group" v:layerMember="0">
						<title>Sheet.257</title>
						<g id="shape258-13" v:mID="258" v:groupContext="shape" v:layerMember="0">
							<title>Sheet.258</title>
							<path d="M19.5 66.3 L19.05 65.1 L20.1 64.43 L21.9 63.37 L22.95 62.7 L23.78 63.67 L28.65 69.3 C32.78 66.07
										 35.48 60.98 35.48 55.27 C35.55 45.52 27.6 37.57 17.78 37.57 C7.95 37.57 0 45.52 0 55.35
										 C0 65.18 7.95 73.12 17.78 73.12 C19.2 73.12 20.63 72.97 21.98 72.6 L19.5 66.3 ZM12.22 55.35
										 C12.22 52.27 14.7 49.8 17.78 49.8 C20.85 49.8 23.33 52.27 23.33 55.35 C23.33 58.43 20.85
										 60.9 17.78 60.9 C14.7 60.9 12.22 58.43 12.22 55.35 Z" class="st1"/>
						</g>
						<g id="shape259-15" v:mID="259" v:groupContext="shape" v:layerMember="0" transform="translate(20.925,-0.9)">
							<title>Sheet.259</title>
							<path d="M1.8 65.63 L0 66.68 L2.48 73.12 C3.98 72.6 5.33 71.92 6.6 71.1 L1.8 65.63 Z" class="st1"/>
						</g>
					</g>
				</g>
				<g id="shape260-17" v:mID="260" v:groupContext="shape" v:layerMember="0" transform="translate(34.65,-8.025)">
					<title>Sheet.260</title>
					<path d="M3.15 71.55 C3.15 72.37 2.48 73.12 1.57 73.12 C0.75 73.12 0 72.45 0 71.55 C0 70.72 0.67 69.97 1.57 69.97
								 C2.48 69.97 3.15 70.72 3.15 71.55 Z" class="st2"/>
				</g>
			</g>
		</g>
	</g>
</svg>
