<?xml version="1.0" encoding="UTF-8" standalone="no"?>
<!DOCTYPE svg PUBLIC "-//W3C//DTD SVG 1.1//EN" "http://www.w3.org/Graphics/SVG/1.1/DTD/svg11.dtd">
<!-- Generated by Microsoft Visio, SVG Export IP Gateway.svg Page-1 -->
<svg xmlns="http://www.w3.org/2000/svg" xmlns:xlink="http://www.w3.org/1999/xlink" xmlns:ev="http://www.w3.org/2001/xml-events"
		xmlns:v="http://schemas.microsoft.com/visio/2003/SVGExtensions/" width="1.15625in" height="0.75in" viewBox="0 0 83.25 54"
		xml:space="preserve" color-interpolation-filters="sRGB" class="st3">
	<v:documentProperties v:langID="4108" v:metric="true" v:viewMarkup="false"/>

	<style type="text/css">
	<![CDATA[
		.st1 {fill:#ffffff;stroke:none;stroke-linecap:butt;stroke-width:0.75}
		.st2 {fill:#515050;stroke:none;stroke-linecap:butt;stroke-width:0.75}
		.st3 {fill:none;fill-rule:evenodd;font-size:12px;overflow:visible;stroke-linecap:square;stroke-miterlimit:3}
	]]>
	</style>

	<g v:mID="0" v:index="1" v:groupContext="foregroundPage">
		<title>Page-1</title>
		<v:pageProperties v:drawingScale="0.0393701" v:pageScale="0.0393701" v:drawingUnits="24" v:shadowOffsetX="8.50394"
				v:shadowOffsetY="-8.50394"/>
		<v:layer v:name="symbols" v:index="0"/>
		<g id="group284-1" transform="translate(9.75,-2.0625)" v:mID="284" v:groupContext="group" v:layerMember="0">
			<title>IP Gateway</title>
			<g id="group285-2" transform="translate(0,-18.75)" v:mID="285" v:groupContext="group" v:layerMember="0">
				<title>Sheet.285</title>
				<g id="group286-3" v:mID="286" v:groupContext="group" v:layerMember="0">
					<title>Sheet.286</title>
					<g id="group287-4" v:mID="287" v:groupContext="group" v:layerMember="0">
						<title>Sheet.287</title>
						<g id="shape288-5" v:mID="288" v:groupContext="shape" v:layerMember="0">
							<title>Sheet.288</title>
							<path d="M0 54 L0 34.12 C0 31.2 2.78 28.5 5.78 28.5 L53.55 28.5 C56.55 28.5 59.33 31.2 59.33 34.12 L59.33
										 54 L0 54 Z" class="st1"/>
						</g>
						<g id="shape289-7" v:mID="289" v:groupContext="shape" v:layerMember="0" transform="translate(2.25,-2.25)">
							<title>Sheet.289</title>
							<path d="M42.45 33 L3.53 33 C1.73 33 0 34.72 0 36.37 L0 54 L54.75 54 L54.75 36.37 C54.75 34.65 53.03
										 33 51.3 33 L42.45 33 Z" class="st2"/>
						</g>
						<g id="shape290-9" v:mID="290" v:groupContext="shape" v:layerMember="0" transform="translate(4.5,-4.5)">
							<title>Sheet.290</title>
							<path d="M0 54 L0 38.62 C0 38.17 0.75 37.5 1.27 37.5 L49.05 37.5 C49.57 37.5 50.25 38.17 50.25 38.62
										 L50.25 54 L0 54 Z" class="st1"/>
						</g>
					</g>
					<g id="group291-11" transform="translate(19.5,-12)" v:mID="291" v:groupContext="group" v:layerMember="0">
						<title>Sheet.291</title>
						<g id="shape292-12" v:mID="292" v:groupContext="shape" v:layerMember="0">
							<title>Sheet.292</title>
							<rect x="0" y="48" width="2.25" height="6" class="st2"/>
						</g>
						<g id="shape293-14" v:mID="293" v:groupContext="shape" v:layerMember="0"
								transform="translate(4.5,7.10543E-15)">
							<title>Sheet.293</title>
							<rect x="0" y="48" width="2.25" height="6" class="st2"/>
						</g>
						<g id="shape294-16" v:mID="294" v:groupContext="shape" v:layerMember="0"
								transform="translate(9,7.10543E-15)">
							<title>Sheet.294</title>
							<rect x="0" y="48" width="2.25" height="6" class="st2"/>
						</g>
						<g id="shape295-18" v:mID="295" v:groupContext="shape" v:layerMember="0"
								transform="translate(13.5,7.10543E-15)">
							<title>Sheet.295</title>
							<rect x="0" y="48" width="2.25" height="6" class="st2"/>
						</g>
						<g id="shape296-20" v:mID="296" v:groupContext="shape" v:layerMember="0"
								transform="translate(18,7.10543E-15)">
							<title>Sheet.296</title>
							<rect x="0" y="48" width="2.25" height="6" class="st2"/>
						</g>
					</g>
					<g id="shape297-22" v:mID="297" v:groupContext="shape" v:layerMember="0" transform="translate(3.75,-6.75)">
						<title>Sheet.297</title>
						<rect x="0" y="51.75" width="51.75" height="2.25" class="st2"/>
					</g>
				</g>
				<g id="shape298-24" v:mID="298" v:groupContext="shape" v:layerMember="0" transform="translate(6.75,-15)">
					<title>Sheet.298</title>
					<ellipse cx="1.875" cy="52.125" rx="1.875" ry="1.875" class="st2"/>
				</g>
			</g>
			<g id="group299-26" transform="translate(33.75,7.10543E-15)" v:mID="299" v:groupContext="group" v:layerMember="0">
				<title>Sheet.299</title>
				<g id="group300-27" v:mID="300" v:groupContext="group" v:layerMember="0">
					<title>Sheet.300</title>
					<g id="shape301-28" v:mID="301" v:groupContext="shape" v:layerMember="0">
						<title>Sheet.301</title>
						<path d="M4.5 54 C2.03 54 0 51.97 0 49.5 L0 28.5 C0 26.02 2.03 24 4.5 24 L25.5 24 C27.98 24 30 26.02 30 28.5
									 L30 49.5 C30 51.97 27.98 54 25.5 54 L4.5 54 Z" class="st1"/>
					</g>
					<g id="shape302-30" v:mID="302" v:groupContext="shape" v:layerMember="0" transform="translate(2.25,-2.25)">
						<title>Sheet.302</title>
						<path d="M25.5 51.75 C25.5 53.02 24.53 54 23.25 54 L2.25 54 C0.98 54 0 53.02 0 51.75 L0 30.75 C0 29.47 0.98
									 28.5 2.25 28.5 L23.25 28.5 C24.53 28.5 25.5 29.47 25.5 30.75 L25.5 51.75 Z" class="st2"/>
					</g>
				</g>
				<g id="shape303-32" v:mID="303" v:groupContext="shape" v:layerMember="0" transform="translate(12,-17.25)">
					<title>Sheet.303</title>
					<path d="M3.75 54 L3.75 49.05 L6 51.3 L6 49.05 L3 46.05 L0 49.05 L0 51.3 L2.25 49.05 L2.25 54 L3.75 54 Z"
							class="st1"/>
				</g>
				<g id="shape304-34" v:mID="304" v:groupContext="shape" v:layerMember="0" transform="translate(12,-4.8)">
					<title>Sheet.304</title>
					<path d="M2.25 46.05 L2.25 51 L0 48.75 L0 51 L3 54 L6 51 L6 48.75 L3.75 51 L3.75 46.05 L2.25 46.05 Z"
							class="st1"/>
				</g>
				<g id="shape305-36" v:mID="305" v:groupContext="shape" v:layerMember="0" transform="translate(17.55,-12)">
					<title>Sheet.305</title>
					<path d="M7.95 51.75 L3 51.75 L5.25 54 L3 54 L0 51 L3 48 L5.25 48 L3 50.25 L7.95 50.25 L7.95 51.75 Z"
							class="st1"/>
				</g>
				<g id="shape306-38" v:mID="306" v:groupContext="shape" v:layerMember="0" transform="translate(4.5,-12)">
					<title>Sheet.306</title>
					<path d="M0 50.25 L4.95 50.25 L2.7 48 L4.95 48 L7.95 51 L4.95 54 L2.7 54 L4.95 51.75 L0 51.75 L0 50.25 Z"
							class="st1"/>
				</g>
			</g>
		</g>
	</g>
</svg>
