<?xml version="1.0" encoding="UTF-8" standalone="no"?>
<!DOCTYPE svg PUBLIC "-//W3C//DTD SVG 1.1//EN" "http://www.w3.org/Graphics/SVG/1.1/DTD/svg11.dtd">
<!-- Generated by Microsoft Visio, SVG Export IP-PBX.svg Page-1 -->
<svg xmlns="http://www.w3.org/2000/svg" xmlns:xlink="http://www.w3.org/1999/xlink" xmlns:ev="http://www.w3.org/2001/xml-events"
		xmlns:v="http://schemas.microsoft.com/visio/2003/SVGExtensions/" width="1.15625in" height="0.75in" viewBox="0 0 83.25 54"
		xml:space="preserve" color-interpolation-filters="sRGB" class="st3">
	<v:documentProperties v:langID="4108" v:metric="true" v:viewMarkup="false"/>

	<style type="text/css">
	<![CDATA[
		.st1 {fill:#ffffff;stroke:none;stroke-linecap:butt;stroke-width:0.75}
		.st2 {fill:#515050;stroke:none;stroke-linecap:butt;stroke-width:0.75}
		.st3 {fill:none;fill-rule:evenodd;font-size:12px;overflow:visible;stroke-linecap:square;stroke-miterlimit:3}
	]]>
	</style>

	<g v:mID="0" v:index="1" v:groupContext="foregroundPage">
		<title>Page-1</title>
		<v:pageProperties v:drawingScale="0.0393701" v:pageScale="0.0393701" v:drawingUnits="24" v:shadowOffsetX="8.50394"
				v:shadowOffsetY="-8.50394"/>
		<v:layer v:name="symbols" v:index="0"/>
		<g id="group261-1" transform="translate(9.5625,-2.4375)" v:mID="261" v:groupContext="group" v:layerMember="0">
			<title>IP-PBX</title>
			<g id="group262-2" v:mID="262" v:groupContext="group" v:layerMember="0">
				<title>Sheet.262</title>
				<g id="group263-3" transform="translate(0,-21.75)" v:mID="263" v:groupContext="group" v:layerMember="0">
					<title>Sheet.263</title>
					<g id="group264-4" v:mID="264" v:groupContext="group" v:layerMember="0">
						<title>Sheet.264</title>
						<g id="shape265-5" v:mID="265" v:groupContext="shape" v:layerMember="0">
							<title>Sheet.265</title>
							<path d="M0 54 L0 37.87 C0 34.95 2.78 32.25 5.78 32.25 L53.55 32.25 C56.55 32.25 59.33 34.95 59.33 37.87
										 L59.33 54 L0 54 Z" class="st1"/>
						</g>
						<g id="shape266-7" v:mID="266" v:groupContext="shape" v:layerMember="0" transform="translate(2.25,-2.25)">
							<title>Sheet.266</title>
							<path d="M39.45 36.75 L3.53 36.75 C1.73 36.75 0 38.47 0 40.12 L0 54 L54.75 54 L54.75 40.12 C54.75 38.4
										 53.03 36.75 51.3 36.75 L39.45 36.75 Z" class="st2"/>
						</g>
						<g id="shape267-9" v:mID="267" v:groupContext="shape" v:layerMember="0" transform="translate(4.5,-4.5)">
							<title>Sheet.267</title>
							<path d="M0 54 L0 42.37 C0 41.92 0.75 41.25 1.27 41.25 L49.05 41.25 C49.57 41.25 50.25 41.92 50.25 42.37
										 L50.25 54 L0 54 Z" class="st1"/>
						</g>
						<g id="group268-11" transform="translate(23.25,-8.25)" v:mID="268" v:groupContext="group" v:layerMember="0">
							<title>Sheet.268</title>
							<g id="shape269-12" v:mID="269" v:groupContext="shape" v:layerMember="0" transform="translate(20.25,0)">
								<title>Sheet.269</title>
								<path d="M5.25 48.75 L0 48.75 L0 52.5 L1.5 52.5 L1.5 54 L3.75 54 L3.75 52.5 L5.25 52.5 L5.25 48.75
											 Z" class="st2"/>
							</g>
							<g id="shape270-14" v:mID="270" v:groupContext="shape" v:layerMember="0" transform="translate(13.5,0)">
								<title>Sheet.270</title>
								<path d="M5.25 48.75 L0 48.75 L0 52.5 L1.5 52.5 L1.5 54 L3.75 54 L3.75 52.5 L5.25 52.5 L5.25 48.75
											 Z" class="st2"/>
							</g>
							<g id="shape271-16" v:mID="271" v:groupContext="shape" v:layerMember="0" transform="translate(6.75,0)">
								<title>Sheet.271</title>
								<path d="M5.25 48.75 L0 48.75 L0 52.5 L1.5 52.5 L1.5 54 L3.75 54 L3.75 52.5 L5.25 52.5 L5.25 48.75
											 Z" class="st2"/>
							</g>
							<g id="shape272-18" v:mID="272" v:groupContext="shape" v:layerMember="0">
								<title>Sheet.272</title>
								<path d="M5.25 48.75 L0 48.75 L0 52.5 L1.5 52.5 L1.5 54 L3.75 54 L3.75 52.5 L5.25 52.5 L5.25 48.75
											 Z" class="st2"/>
							</g>
						</g>
					</g>
					<g id="shape273-20" v:mID="273" v:groupContext="shape" v:layerMember="0" transform="translate(7.5,-9.75)">
						<title>Sheet.273</title>
						<path d="M3 52.5 C3 53.32 2.32 54 1.5 54 C0.67 54 0 53.32 0 52.5 C0 51.67 0.67 51 1.5 51 C2.32 51 3 51.67
									 3 52.5 Z" class="st2"/>
					</g>
					<g id="shape274-22" v:mID="274" v:groupContext="shape" v:layerMember="0" transform="translate(12,-9.75)">
						<title>Sheet.274</title>
						<path d="M3 52.5 C3 53.32 2.32 54 1.5 54 C0.67 54 0 53.32 0 52.5 C0 51.67 0.67 51 1.5 51 C2.32 51 3 51.67
									 3 52.5 Z" class="st2"/>
					</g>
					<g id="shape275-24" v:mID="275" v:groupContext="shape" v:layerMember="0" transform="translate(16.5,-9.75)">
						<title>Sheet.275</title>
						<path d="M3 52.5 C3 53.32 2.32 54 1.5 54 C0.67 54 0 53.32 0 52.5 C0 51.67 0.67 51 1.5 51 C2.32 51 3 51.67
									 3 52.5 Z" class="st2"/>
					</g>
				</g>
				<g id="group276-26" transform="translate(33.75,-2.13163E-13)" v:mID="276" v:groupContext="group" v:layerMember="0">
					<title>Sheet.276</title>
					<g id="group277-27" v:mID="277" v:groupContext="group" v:layerMember="0">
						<title>Sheet.277</title>
						<g id="shape278-28" v:mID="278" v:groupContext="shape" v:layerMember="0">
							<title>Sheet.278</title>
							<path d="M4.5 54 C2.03 54 0 51.97 0 49.5 L0 28.5 C0 26.02 2.03 24 4.5 24 L25.5 24 C27.98 24 30 26.02
										 30 28.5 L30 49.5 C30 51.97 27.98 54 25.5 54 L4.5 54 Z" class="st1"/>
						</g>
						<g id="shape279-30" v:mID="279" v:groupContext="shape" v:layerMember="0" transform="translate(2.25,-2.25)">
							<title>Sheet.279</title>
							<path d="M25.5 51.75 C25.5 53.02 24.53 54 23.25 54 L2.25 54 C0.98 54 0 53.02 0 51.75 L0 30.75 C0 29.47
										 0.98 28.5 2.25 28.5 L23.25 28.5 C24.53 28.5 25.5 29.47 25.5 30.75 L25.5 51.75 Z"
									class="st2"/>
						</g>
					</g>
					<g id="shape280-32" v:mID="280" v:groupContext="shape" v:layerMember="0" transform="translate(12,-17.25)">
						<title>Sheet.280</title>
						<path d="M3.75 54 L3.75 49.05 L6 51.3 L6 49.05 L3 46.05 L0 49.05 L0 51.3 L2.25 49.05 L2.25 54 L3.75 54 Z"
								class="st1"/>
					</g>
					<g id="shape281-34" v:mID="281" v:groupContext="shape" v:layerMember="0" transform="translate(12,-4.8)">
						<title>Sheet.281</title>
						<path d="M2.25 46.05 L2.25 51 L0 48.75 L0 51 L3 54 L6 51 L6 48.75 L3.75 51 L3.75 46.05 L2.25 46.05 Z"
								class="st1"/>
					</g>
					<g id="shape282-36" v:mID="282" v:groupContext="shape" v:layerMember="0" transform="translate(17.55,-12)">
						<title>Sheet.282</title>
						<path d="M7.95 51.75 L3 51.75 L5.25 54 L3 54 L0 51 L3 48 L5.25 48 L3 50.25 L7.95 50.25 L7.95 51.75 Z"
								class="st1"/>
					</g>
					<g id="shape283-38" v:mID="283" v:groupContext="shape" v:layerMember="0" transform="translate(4.5,-12)">
						<title>Sheet.283</title>
						<path d="M0 50.25 L4.95 50.25 L2.7 48 L4.95 48 L7.95 51 L4.95 54 L2.7 54 L4.95 51.75 L0 51.75 L0 50.25 Z"
								class="st1"/>
					</g>
				</g>
			</g>
		</g>
	</g>
</svg>
