<?xml version="1.0" encoding="UTF-8" standalone="no"?>
<!DOCTYPE svg PUBLIC "-//W3C//DTD SVG 1.1//EN" "http://www.w3.org/Graphics/SVG/1.1/DTD/svg11.dtd">
<!-- Generated by Microsoft Visio, SVG Export Load Balancer.svg Page-1 -->
<svg xmlns="http://www.w3.org/2000/svg" xmlns:xlink="http://www.w3.org/1999/xlink" xmlns:ev="http://www.w3.org/2001/xml-events"
		xmlns:v="http://schemas.microsoft.com/visio/2003/SVGExtensions/" width="1.15625in" height="0.765625in"
		viewBox="0 0 83.25 55.125" xml:space="preserve" color-interpolation-filters="sRGB" class="st3">
	<v:documentProperties v:langID="4108" v:metric="true" v:viewMarkup="false"/>

	<style type="text/css">
	<![CDATA[
		.st1 {fill:#ffffff;stroke:none;stroke-linecap:butt;stroke-width:0.75}
		.st2 {fill:#515050;stroke:none;stroke-linecap:butt;stroke-width:0.75}
		.st3 {fill:none;fill-rule:evenodd;font-size:12px;overflow:visible;stroke-linecap:square;stroke-miterlimit:3}
	]]>
	</style>

	<g v:mID="0" v:index="1" v:groupContext="foregroundPage">
		<title>Page-1</title>
		<v:pageProperties v:drawingScale="0.0393701" v:pageScale="0.0393701" v:drawingUnits="24" v:shadowOffsetX="8.50394"
				v:shadowOffsetY="-8.50394"/>
		<v:layer v:name="symbols" v:index="0"/>
		<g id="group307-1" transform="translate(9.9375,-2.4375)" v:mID="307" v:groupContext="group" v:layerMember="0">
			<title>Load Balancer</title>
			<g id="group308-2" transform="translate(0,-21.75)" v:mID="308" v:groupContext="group" v:layerMember="0">
				<title>Sheet.308</title>
				<g id="shape309-3" v:mID="309" v:groupContext="shape" v:layerMember="0">
					<title>Sheet.309</title>
					<path d="M0 55.12 L0 39 C0 36.07 2.78 33.37 5.78 33.37 L53.55 33.37 C56.55 33.37 59.33 36.07 59.33 39 L59.33
								 55.12 L0 55.12 Z" class="st1"/>
				</g>
				<g id="shape310-5" v:mID="310" v:groupContext="shape" v:layerMember="0" transform="translate(2.25,-2.25)">
					<title>Sheet.310</title>
					<path d="M39.45 37.87 L3.53 37.87 C1.73 37.87 0 39.6 0 41.25 L0 55.12 L54.75 55.12 L54.75 41.25 C54.75 39.52
								 53.03 37.87 51.3 37.87 L39.45 37.87 Z" class="st2"/>
				</g>
				<g id="shape311-7" v:mID="311" v:groupContext="shape" v:layerMember="0" transform="translate(4.5,-4.5)">
					<title>Sheet.311</title>
					<path d="M0 55.12 L0 43.5 C0 43.05 0.75 42.37 1.27 42.37 L49.05 42.37 C49.57 42.37 50.25 43.05 50.25 43.5 L50.25
								 55.12 L0 55.12 Z" class="st1"/>
				</g>
				<g id="group312-9" transform="translate(23.25,-8.25)" v:mID="312" v:groupContext="group" v:layerMember="0">
					<title>Sheet.312</title>
					<g id="shape313-10" v:mID="313" v:groupContext="shape" v:layerMember="0" transform="translate(20.25,0)">
						<title>Sheet.313</title>
						<path d="M5.25 49.87 L0 49.87 L0 53.62 L1.5 53.62 L1.5 55.12 L3.75 55.12 L3.75 53.62 L5.25 53.62 L5.25 49.87
									 Z" class="st2"/>
					</g>
					<g id="shape314-12" v:mID="314" v:groupContext="shape" v:layerMember="0" transform="translate(13.5,0)">
						<title>Sheet.314</title>
						<path d="M5.25 49.87 L0 49.87 L0 53.62 L1.5 53.62 L1.5 55.12 L3.75 55.12 L3.75 53.62 L5.25 53.62 L5.25 49.87
									 Z" class="st2"/>
					</g>
					<g id="shape315-14" v:mID="315" v:groupContext="shape" v:layerMember="0" transform="translate(6.75,0)">
						<title>Sheet.315</title>
						<path d="M5.25 49.87 L0 49.87 L0 53.62 L1.5 53.62 L1.5 55.12 L3.75 55.12 L3.75 53.62 L5.25 53.62 L5.25 49.87
									 Z" class="st2"/>
					</g>
					<g id="shape316-16" v:mID="316" v:groupContext="shape" v:layerMember="0">
						<title>Sheet.316</title>
						<path d="M5.25 49.87 L0 49.87 L0 53.62 L1.5 53.62 L1.5 55.12 L3.75 55.12 L3.75 53.62 L5.25 53.62 L5.25 49.87
									 Z" class="st2"/>
					</g>
				</g>
				<g id="group317-18" transform="translate(7.5,-7.5)" v:mID="317" v:groupContext="group" v:layerMember="0">
					<title>Sheet.317</title>
					<g id="shape318-19" v:mID="318" v:groupContext="shape" v:layerMember="0" transform="translate(3.75,-2.25)">
						<title>Sheet.318</title>
						<rect x="0" y="52.875" width="6" height="2.25" class="st2"/>
					</g>
					<g id="shape319-21" v:mID="319" v:groupContext="shape" v:layerMember="0"
							transform="translate(4.90857E-14,-3.75)">
						<title>Sheet.319</title>
						<rect x="0" y="52.875" width="2.25" height="2.25" class="st2"/>
					</g>
					<g id="shape320-23" v:mID="320" v:groupContext="shape" v:layerMember="0">
						<title>Sheet.320</title>
						<rect x="0" y="52.875" width="2.25" height="2.25" class="st2"/>
					</g>
				</g>
			</g>
			<g id="group321-25" transform="translate(33.75,-2.13163E-13)" v:mID="321" v:groupContext="group" v:layerMember="0">
				<title>Sheet.321</title>
				<g id="shape322-26" v:mID="322" v:groupContext="shape" v:layerMember="0">
					<title>Sheet.322</title>
					<path d="M4.5 55.12 C2.03 55.12 0 53.1 0 50.62 L0 29.62 C0 27.15 2.03 25.12 4.5 25.12 L25.5 25.12 C27.98 25.12
								 30 27.15 30 29.62 L30 50.62 C30 53.1 27.98 55.12 25.5 55.12 L4.5 55.12 Z" class="st1"/>
				</g>
				<g id="shape323-28" v:mID="323" v:groupContext="shape" v:layerMember="0" transform="translate(2.25,-2.25)">
					<title>Sheet.323</title>
					<path d="M25.5 52.87 C25.5 54.15 24.53 55.12 23.25 55.12 L2.25 55.12 C0.98 55.12 0 54.15 0 52.87 L0 31.87 C0
								 30.6 0.98 29.62 2.25 29.62 L23.25 29.62 C24.53 29.62 25.5 30.6 25.5 31.87 L25.5 52.87 Z"
							class="st2"/>
				</g>
				<g id="shape324-30" v:mID="324" v:groupContext="shape" v:layerMember="0" transform="translate(6,-4.5)">
					<title>Sheet.324</title>
					<path d="M16.43 44.02 L16.43 47.32 L10.05 40.87 L9.75 40.87 L9.75 38.47 C10.65 38.17 11.25 37.35 11.25 36.37
								 C11.25 35.1 10.27 34.12 9 34.12 C7.73 34.12 6.75 35.1 6.75 36.37 C6.75 37.35 7.35 38.17 8.25 38.47
								 L8.25 40.87 L7.95 40.87 L1.58 47.32 L1.58 44.02 L0 45.6 L0 49.87 L4.28 49.87 L5.85 48.3 L2.7 48.3
								 L8.33 42.67 L8.33 52.2 L6 49.87 L6 52.12 L9 55.12 L12 52.12 L12 49.87 L9.75 52.12 L9.75 42.67 L15.38
								 48.3 L12.23 48.3 L13.8 49.87 L18 49.87 L18 45.6 L16.43 44.02 Z" class="st1"/>
				</g>
			</g>
		</g>
	</g>
</svg>
