<?xml version="1.0" encoding="UTF-8" standalone="no"?>
<!DOCTYPE svg PUBLIC "-//W3C//DTD SVG 1.1//EN" "http://www.w3.org/Graphics/SVG/1.1/DTD/svg11.dtd">
<!-- Generated by Microsoft Visio, SVG Export Management Console.svg Page-1 -->
<svg xmlns="http://www.w3.org/2000/svg" xmlns:xlink="http://www.w3.org/1999/xlink" xmlns:ev="http://www.w3.org/2001/xml-events"
		xmlns:v="http://schemas.microsoft.com/visio/2003/SVGExtensions/" width="1.10937in" height="0.953125in"
		viewBox="0 0 79.875 68.625" xml:space="preserve" color-interpolation-filters="sRGB" class="st4">
	<v:documentProperties v:langID="4108" v:metric="true" v:viewMarkup="false"/>

	<style type="text/css">
	<![CDATA[
		.st1 {fill:#ffffff;stroke:none;stroke-linecap:butt;stroke-width:0.75}
		.st2 {fill:#515150;stroke:none;stroke-linecap:butt;stroke-width:0.75}
		.st3 {fill:#515050;stroke:none;stroke-linecap:butt;stroke-width:0.75}
		.st4 {fill:none;fill-rule:evenodd;font-size:12px;overflow:visible;stroke-linecap:square;stroke-miterlimit:3}
	]]>
	</style>

	<g v:mID="0" v:index="1" v:groupContext="foregroundPage">
		<title>Page-1</title>
		<v:pageProperties v:drawingScale="0.0393701" v:pageScale="0.0393701" v:drawingUnits="24" v:shadowOffsetX="8.50394"
				v:shadowOffsetY="-8.50394"/>
		<v:layer v:name="symbols" v:index="0"/>
		<g id="group325-1" transform="translate(8.8125,-8.0625)" v:mID="325" v:groupContext="group" v:layerMember="0">
			<title>Management Console</title>
			<g id="group326-2" v:mID="326" v:groupContext="group" v:layerMember="0">
				<title>Sheet.326</title>
				<g id="group327-3" v:mID="327" v:groupContext="group" v:layerMember="0">
					<title>Sheet.327</title>
					<g id="shape328-4" v:mID="328" v:groupContext="shape" v:layerMember="0">
						<title>Sheet.328</title>
						<path d="M16.12 68.62 C13.87 68.62 12.08 66.82 12.08 64.57 C12.08 62.32 13.87 60.45 16.12 60.45 C21.45 60.37
									 22.65 59.85 22.87 59.55 C22.87 59.55 23.1 59.4 22.8 58.12 L5.18 58.12 C2.4 58.12 0 55.72 0 52.87
									 L0 21.37 C0 18.52 2.4 16.12 5.18 16.12 L57.08 16.12 C59.85 16.12 62.25 18.52 62.25 21.37 L62.25
									 52.87 C62.25 55.72 59.85 58.12 57.08 58.12 L39.45 58.12 C39.22 59.4 39.38 59.47 39.38 59.55
									 C39.6 59.85 40.8 60.37 46.13 60.45 C48.3 60.45 50.17 62.25 50.17 64.57 C50.17 66.82 48.38 68.62
									 46.13 68.62 L16.12 68.62 Z" class="st1"/>
					</g>
					<g id="shape329-6" v:mID="329" v:groupContext="shape" v:layerMember="0" transform="translate(2.25,-2.25)">
						<title>Sheet.329</title>
						<path d="M54.82 20.62 L2.93 20.62 C1.35 20.62 -0 22.05 0 23.62 L0 55.12 C0 56.7 1.35 58.12 2.93 58.12 L22.28
									 58.12 C23.92 63.9 22.57 64.87 13.8 64.95 C12.82 64.95 12 65.77 12 66.82 C12 67.87 12.82 68.62
									 13.8 68.62 L43.8 68.62 C44.78 68.62 45.6 67.8 45.6 66.82 C45.6 65.85 44.78 64.95 43.8 64.95
									 C35.17 64.87 33.83 63.9 35.47 58.12 L54.82 58.12 C56.47 58.12 57.75 56.7 57.75 55.12 L57.75
									 23.62 C57.75 22.05 56.4 20.62 54.82 20.62 ZM54 54.37 L3.75 54.37 L3.75 24.37 L54 24.37 L54 54.37
									 Z" class="st2"/>
					</g>
				</g>
				<g id="shape330-8" v:mID="330" v:groupContext="shape" v:layerMember="0" transform="translate(13.5,-34.5)">
					<title>Sheet.330</title>
					<rect x="0" y="60.375" width="8.25" height="8.25" class="st3"/>
				</g>
				<g id="shape331-10" v:mID="331" v:groupContext="shape" v:layerMember="0" transform="translate(27,-34.5)">
					<title>Sheet.331</title>
					<rect x="0" y="60.375" width="8.25" height="8.25" class="st3"/>
				</g>
				<g id="shape332-12" v:mID="332" v:groupContext="shape" v:layerMember="0" transform="translate(40.5,-34.5)">
					<title>Sheet.332</title>
					<rect x="0" y="60.375" width="8.25" height="8.25" class="st3"/>
				</g>
				<g id="shape333-14" v:mID="333" v:groupContext="shape" v:layerMember="0" transform="translate(13.5,-21)">
					<title>Sheet.333</title>
					<rect x="0" y="60.375" width="8.25" height="8.25" class="st3"/>
				</g>
				<g id="shape334-16" v:mID="334" v:groupContext="shape" v:layerMember="0" transform="translate(27,-21)">
					<title>Sheet.334</title>
					<rect x="0" y="60.375" width="8.25" height="8.25" class="st3"/>
				</g>
				<g id="shape335-18" v:mID="335" v:groupContext="shape" v:layerMember="0" transform="translate(40.5,-21)">
					<title>Sheet.335</title>
					<rect x="0" y="60.375" width="8.25" height="8.25" class="st3"/>
				</g>
			</g>
		</g>
	</g>
</svg>
