<?xml version="1.0" encoding="UTF-8" standalone="no"?>
<!DOCTYPE svg PUBLIC "-//W3C//DTD SVG 1.1//EN" "http://www.w3.org/Graphics/SVG/1.1/DTD/svg11.dtd">
<!-- Generated by Microsoft Visio, SVG Export Modem.svg Page-1 -->
<svg xmlns="http://www.w3.org/2000/svg" xmlns:xlink="http://www.w3.org/1999/xlink" xmlns:ev="http://www.w3.org/2001/xml-events"
		xmlns:v="http://schemas.microsoft.com/visio/2003/SVGExtensions/" width="1.01172in" height="0.65625in"
		viewBox="0 0 72.8438 47.25" xml:space="preserve" color-interpolation-filters="sRGB" class="st3">
	<v:documentProperties v:langID="4108" v:metric="true" v:viewMarkup="false"/>

	<style type="text/css">
	<![CDATA[
		.st1 {fill:#ffffff;stroke:none;stroke-linecap:butt;stroke-width:0.75}
		.st2 {fill:#515050;stroke:none;stroke-linecap:butt;stroke-width:0.75}
		.st3 {fill:none;fill-rule:evenodd;font-size:12px;overflow:visible;stroke-linecap:square;stroke-miterlimit:3}
	]]>
	</style>

	<g v:mID="0" v:index="1" v:groupContext="foregroundPage">
		<title>Page-1</title>
		<v:pageProperties v:drawingScale="0.0393701" v:pageScale="0.0393701" v:drawingUnits="24" v:shadowOffsetX="8.50394"
				v:shadowOffsetY="-8.50394"/>
		<v:layer v:name="symbols" v:index="0"/>
		<g id="group336-1" transform="translate(7.21875,-7.3125)" v:mID="336" v:groupContext="group" v:layerMember="0">
			<title>Modem</title>
			<g id="shape337-2" v:mID="337" v:groupContext="shape" v:layerMember="0">
				<title>Sheet.337</title>
				<path d="M51 47.25 C49.35 47.25 48 45.9 48 44.25 L11.25 44.25 C11.17 45.9 9.83 47.25 8.25 47.25 L3 47.25 C1.35 47.25
							 0 45.82 0 44.17 L0 32.02 C-0 30.07 1.8 29.02 3.75 28.35 L3.75 18 L4.5 18 L4.5 9 L10.5 9 L10.5 18 L11.25
							 18 L11.25 26.7 C15.53 26.25 21 25.87 29.25 25.87 C36.6 25.87 42.22 26.02 47.25 26.62 L47.25 18 L48 18
							 L48 9 L54 9 L54 18 L54.75 18 L54.75 28.27 C56.48 28.87 58.5 29.92 58.5 32.02 L58.5 44.17 C58.5 45.9
							 57.15 47.25 55.43 47.25 L51 47.25 Z" class="st1"/>
			</g>
			<g id="shape338-4" v:mID="338" v:groupContext="shape" v:layerMember="0" transform="translate(2.25,-2.25)">
				<title>Sheet.338</title>
				<path d="M50.25 32.25 L50.25 22.5 L49.5 22.5 L49.5 13.5 L48 13.5 L48 22.5 L47.25 22.5 L47.25 31.5 C41.85 30.6 36.15
							 30.37 27 30.37 C17.85 30.37 11.92 30.9 6.75 31.5 L6.75 22.5 L6 22.5 L6 13.5 L4.5 13.5 L4.5 22.5 L3.75
							 22.5 L3.75 32.25 C1.42 32.85 0 33.6 0 34.27 C0 34.35 0 46.42 0 46.42 C0 46.87 0.37 47.25 0.75 47.25
							 L6 47.25 C6.45 47.25 6.75 46.87 6.75 46.42 L6.75 44.25 C12.07 44.25 17.85 44.25 27 44.25 C36.08 44.25
							 42.67 44.25 48 44.25 L48 46.42 C48 46.87 48.37 47.25 48.75 47.25 L53.1 47.25 C53.55 47.25 53.92 46.87
							 53.92 46.42 C53.92 46.42 53.92 34.35 53.92 34.27 C54 33.6 52.72 32.85 50.25 32.25 Z" class="st2"/>
			</g>
			<g id="shape339-6" v:mID="339" v:groupContext="shape" v:layerMember="0" transform="translate(41.25,-9.75)">
				<title>Sheet.339</title>
				<ellipse cx="1.875" cy="45.375" rx="1.875" ry="1.875" class="st1"/>
			</g>
		</g>
	</g>
</svg>
