<?xml version="1.0" encoding="UTF-8" standalone="no"?>
<!DOCTYPE svg PUBLIC "-//W3C//DTD SVG 1.1//EN" "http://www.w3.org/Graphics/SVG/1.1/DTD/svg11.dtd">
<!-- Generated by Microsoft Visio, SVG Export NIC.svg Page-1 -->
<svg xmlns="http://www.w3.org/2000/svg" xmlns:xlink="http://www.w3.org/1999/xlink" xmlns:ev="http://www.w3.org/2001/xml-events"
		xmlns:v="http://schemas.microsoft.com/visio/2003/SVGExtensions/" width="1.03125in" height="0.765625in"
		viewBox="0 0 74.25 55.125" xml:space="preserve" color-interpolation-filters="sRGB" class="st3">
	<v:documentProperties v:langID="4108" v:metric="true" v:viewMarkup="false"/>

	<style type="text/css">
	<![CDATA[
		.st1 {fill:#ffffff;stroke:none;stroke-linecap:butt;stroke-width:0.75}
		.st2 {fill:#515050;stroke:none;stroke-linecap:butt;stroke-width:0.75}
		.st3 {fill:none;fill-rule:evenodd;font-size:12px;overflow:visible;stroke-linecap:square;stroke-miterlimit:3}
	]]>
	</style>

	<g v:mID="0" v:index="1" v:groupContext="foregroundPage">
		<title>Page-1</title>
		<v:pageProperties v:drawingScale="0.0393701" v:pageScale="0.0393701" v:drawingUnits="24" v:shadowOffsetX="8.50394"
				v:shadowOffsetY="-8.50394"/>
		<v:layer v:name="symbols" v:index="0"/>
		<g id="group340-1" transform="translate(3.9375,-8.4375)" v:mID="340" v:groupContext="group" v:layerMember="0">
			<title>NIC</title>
			<g id="group341-2" v:mID="341" v:groupContext="group" v:layerMember="0">
				<title>Sheet.341</title>
				<g id="group342-3" v:mID="342" v:groupContext="group" v:layerMember="0">
					<title>Sheet.342</title>
					<g id="shape343-4" v:mID="343" v:groupContext="shape" v:layerMember="0">
						<title>Sheet.343</title>
						<path d="M12 16.88 L12 12.38 L0 12.38 L0 19.13 L5.25 19.13 L5.25 55.13 L12 55.13 L12 51.38 L15 51.38 L15
									 55.13 L42 55.13 L42 51.38 L61.5 51.38 L61.5 16.88 L12 16.88 Z" class="st1"/>
					</g>
					<g id="shape344-6" v:mID="344" v:groupContext="shape" v:layerMember="0" transform="translate(12,-2.25)">
						<title>Sheet.344</title>
						<path d="M0 21.37 L0 51.38 L5.25 51.38 L5.25 55.13 L6.75 55.13 L6.75 51.38 L8.25 51.38 L8.25 55.13 L9.75
									 55.13 L9.75 51.38 L11.25 51.38 L11.25 55.13 L12.75 55.13 L12.75 51.38 L14.25 51.38 L14.25 55.13
									 L15.75 55.13 L15.75 51.38 L17.25 51.38 L17.25 55.13 L18.75 55.13 L18.75 51.38 L20.25 51.38 L20.25
									 55.13 L21.75 55.13 L21.75 51.38 L23.25 51.38 L23.25 55.13 L24.75 55.13 L24.75 51.38 L26.25 51.38
									 L26.25 55.13 L27.75 55.13 L27.75 51.38 L47.25 51.38 L47.25 21.37 L0 21.37 Z" class="st2"/>
					</g>
					<g id="shape345-8" v:mID="345" v:groupContext="shape" v:layerMember="0" transform="translate(2.25,-2.25)">
						<title>Sheet.345</title>
						<path d="M5.25 16.88 L0 16.88 L0 19.13 L5.25 19.13 L5.25 55.13 L7.5 55.13 L7.5 16.88 L6.75 16.88 L5.25 16.88
									 Z" class="st2"/>
					</g>
				</g>
				<g id="group346-10" transform="translate(11.25,-9.75)" v:mID="346" v:groupContext="group" v:layerMember="0">
					<title>Sheet.346</title>
					<g id="shape347-11" v:mID="347" v:groupContext="shape" v:layerMember="0"
							transform="translate(-2.29816E-13,-14.25)">
						<title>Sheet.347</title>
						<path d="M15 54.38 L15 53.63 L15 49.88 L22.5 49.88 L22.5 52.13 L33.75 52.13 L33.75 46.13 L22.5 46.13 L22.5
									 48.38 L15 48.38 L13.5 48.38 L13.5 49.88 L13.5 53.63 L0 53.63 L0 55.13 L15 55.13 L15 54.38 Z"
								class="st1"/>
					</g>
					<g id="shape348-13" v:mID="348" v:groupContext="shape" v:layerMember="0">
						<title>Sheet.348</title>
						<path d="M45.75 46.13 L45.75 41.63 L36.75 41.63 L36.75 43.13 L21 43.13 L21 44.63 L21 46.88 L0 46.88 L0 48.38
									 L21 48.38 L21 53.63 L21.75 53.63 L22.5 53.63 L31.5 53.63 L31.5 55.13 L42.75 55.13 L42.75 50.63
									 L31.5 50.63 L31.5 52.13 L22.5 52.13 L22.5 44.63 L36.75 44.63 L36.75 46.13 L45.75 46.13 Z"
								class="st1"/>
					</g>
				</g>
			</g>
		</g>
	</g>
</svg>
