<?xml version="1.0" encoding="UTF-8" standalone="no"?>
<!DOCTYPE svg PUBLIC "-//W3C//DTD SVG 1.1//EN" "http://www.w3.org/Graphics/SVG/1.1/DTD/svg11.dtd">
<!-- Generated by Microsoft Visio, SVG Export Router.svg Page-1 -->
<svg xmlns="http://www.w3.org/2000/svg" xmlns:xlink="http://www.w3.org/1999/xlink" xmlns:ev="http://www.w3.org/2001/xml-events"
		xmlns:v="http://schemas.microsoft.com/visio/2003/SVGExtensions/" width="1.05312in" height="0.955729in"
		viewBox="0 0 75.825 68.8125" xml:space="preserve" color-interpolation-filters="sRGB" class="st3">
	<v:documentProperties v:langID="4108" v:metric="true" v:viewMarkup="false"/>

	<style type="text/css">
	<![CDATA[
		.st1 {fill:#ffffff;stroke:none;stroke-linecap:butt;stroke-width:0.75}
		.st2 {fill:#515050;stroke:none;stroke-linecap:butt;stroke-width:0.75}
		.st3 {fill:none;fill-rule:evenodd;font-size:12px;overflow:visible;stroke-linecap:square;stroke-miterlimit:3}
	]]>
	</style>

	<g v:mID="0" v:index="1" v:groupContext="foregroundPage">
		<title>Page-1</title>
		<v:pageProperties v:drawingScale="0.0393701" v:pageScale="0.0393701" v:drawingUnits="24" v:shadowOffsetX="8.50394"
				v:shadowOffsetY="-8.50394"/>
		<v:layer v:name="symbols" v:index="0"/>
		<g id="group349-1" transform="translate(9.75,-7.3125)" v:mID="349" v:groupContext="group" v:layerMember="0">
			<title>Router</title>
			<g id="group350-2" transform="translate(2.95763E-13,-22.5)" v:mID="350" v:groupContext="group" v:layerMember="0">
				<title>Sheet.350</title>
				<g id="shape351-3" v:mID="351" v:groupContext="shape" v:layerMember="0">
					<title>Sheet.351</title>
					<path d="M48 68.81 C46.87 68.81 45.9 68.21 45.37 67.31 L10.05 67.31 C9.53 68.21 8.55 68.81 7.42 68.81 L3 68.81
								 C1.35 68.81 0 67.39 0 65.74 L0 53.59 C-0 51.04 2.55 50.29 6 49.76 L6 39.56 L6.75 39.56 L6.75 30.56
								 L12.75 30.56 L12.75 39.56 L13.5 39.56 L13.5 48.71 C18.07 48.34 22.42 48.19 27 48.19 C34.05 48.19
								 40.73 48.56 45.75 49.24 C52.5 50.14 54.75 51.26 54.75 53.51 L54.75 65.66 C54.75 67.39 53.4 68.74
								 51.68 68.74 L48 68.74 L48 68.81 Z" class="st1"/>
				</g>
				<g id="shape352-5" v:mID="352" v:groupContext="shape" v:layerMember="0" transform="translate(2.25,-2.25)">
					<title>Sheet.352</title>
					<path d="M24.75 52.69 C19.27 52.69 14.25 52.91 9 53.44 L9 44.06 L8.25 44.06 L8.25 35.06 L6.75 35.06 L6.75 44.06
								 L6 44.06 L6 53.89 C2.85 54.41 0 54.79 0 55.84 C0 55.91 0 67.99 0 67.99 C0 68.44 0.37 68.81 0.75
								 68.81 L5.25 68.81 C5.7 68.81 6 68.44 6 67.99 L6 67.31 C11.32 67.31 15.6 67.31 24.75 67.31 C33.82
								 67.31 39.67 67.31 45 67.31 L45 67.99 C45 68.44 45.37 68.81 45.75 68.81 L49.35 68.81 C49.8 68.81
								 50.17 68.44 50.17 67.99 C50.17 67.99 50.17 57.19 50.17 55.84 C50.17 54.49 39.97 52.69 24.75 52.69
								 Z" class="st2"/>
				</g>
				<g id="group353-7" transform="translate(15,-9.75)" v:mID="353" v:groupContext="group" v:layerMember="0">
					<title>Sheet.353</title>
					<g id="shape354-8" v:mID="354" v:groupContext="shape" v:layerMember="0">
						<title>Sheet.354</title>
						<ellipse cx="1.5" cy="67.3125" rx="1.5" ry="1.5" class="st1"/>
					</g>
					<g id="shape355-10" v:mID="355" v:groupContext="shape" v:layerMember="0" transform="translate(7.5,0)">
						<title>Sheet.355</title>
						<ellipse cx="1.5" cy="67.3125" rx="1.5" ry="1.5" class="st1"/>
					</g>
					<g id="shape356-12" v:mID="356" v:groupContext="shape" v:layerMember="0" transform="translate(15,0)">
						<title>Sheet.356</title>
						<ellipse cx="1.5" cy="67.3125" rx="1.5" ry="1.5" class="st1"/>
					</g>
					<g id="shape357-14" v:mID="357" v:groupContext="shape" v:layerMember="0" transform="translate(22.5,0)">
						<title>Sheet.357</title>
						<ellipse cx="1.5" cy="67.3125" rx="1.5" ry="1.5" class="st1"/>
					</g>
				</g>
			</g>
			<g id="group358-16" transform="translate(29.25,3.12639E-13)" v:mID="358" v:groupContext="group" v:layerMember="0">
				<title>Sheet.358</title>
				<g id="group359-17" v:mID="359" v:groupContext="group" v:layerMember="0">
					<title>Sheet.359</title>
					<g id="shape360-18" v:mID="360" v:groupContext="shape" v:layerMember="0">
						<title>Sheet.360</title>
						<path d="M4.5 68.81 C2.02 68.81 -0 66.79 0 64.31 L0 43.31 C0 40.84 2.02 38.81 4.5 38.81 L25.5 38.81 C27.97
									 38.81 30 40.84 30 43.31 L30 64.31 C30 66.79 27.97 68.81 25.5 68.81 L4.5 68.81 Z" class="st1"/>
					</g>
					<g id="shape361-20" v:mID="361" v:groupContext="shape" v:layerMember="0" transform="translate(2.25,-2.25)">
						<title>Sheet.361</title>
						<path d="M25.5 66.56 C25.5 67.84 24.52 68.81 23.25 68.81 L2.25 68.81 C0.97 68.81 0 67.84 0 66.56 L0 45.56
									 C0 44.29 0.97 43.31 2.25 43.31 L23.25 43.31 C24.52 43.31 25.5 44.29 25.5 45.56 L25.5 66.56 Z"
								class="st2"/>
					</g>
				</g>
				<g id="shape362-22" v:mID="362" v:groupContext="shape" v:layerMember="0" transform="translate(12,-17.25)">
					<title>Sheet.362</title>
					<path d="M3.75 68.81 L3.75 63.86 L6 66.11 L6 63.86 L3 60.86 L0 63.86 L0 66.11 L2.25 63.86 L2.25 68.81 L3.75 68.81
								 Z" class="st1"/>
				</g>
				<g id="shape363-24" v:mID="363" v:groupContext="shape" v:layerMember="0" transform="translate(12,-4.8)">
					<title>Sheet.363</title>
					<path d="M2.25 60.86 L2.25 65.81 L0 63.56 L0 65.81 L3 68.81 L6 65.81 L6 63.56 L3.75 65.81 L3.75 60.86 L2.25 60.86
								 Z" class="st1"/>
				</g>
				<g id="shape364-26" v:mID="364" v:groupContext="shape" v:layerMember="0" transform="translate(17.55,-12)">
					<title>Sheet.364</title>
					<path d="M7.95 66.56 L3 66.56 L5.25 68.81 L3 68.81 L0 65.81 L3 62.81 L5.25 62.81 L3 65.06 L7.95 65.06 L7.95 66.56
								 Z" class="st1"/>
				</g>
				<g id="shape365-28" v:mID="365" v:groupContext="shape" v:layerMember="0" transform="translate(4.5,-12)">
					<title>Sheet.365</title>
					<path d="M0 65.06 L4.95 65.06 L2.7 62.81 L4.95 62.81 L7.95 65.81 L4.95 68.81 L2.7 68.81 L4.95 66.56 L0 66.56
								 L0 65.06 Z" class="st1"/>
				</g>
			</g>
		</g>
	</g>
</svg>
