<?xml version="1.0" encoding="UTF-8" standalone="no"?>
<!DOCTYPE svg PUBLIC "-//W3C//DTD SVG 1.1//EN" "http://www.w3.org/Graphics/SVG/1.1/DTD/svg11.dtd">
<!-- Generated by Microsoft Visio, SVG Export Session Border Controller.svg Page-1 -->
<svg xmlns="http://www.w3.org/2000/svg" xmlns:xlink="http://www.w3.org/1999/xlink" xmlns:ev="http://www.w3.org/2001/xml-events"
		xmlns:v="http://schemas.microsoft.com/visio/2003/SVGExtensions/" width="1.125in" height="0.828125in"
		viewBox="0 0 81 59.625" xml:space="preserve" color-interpolation-filters="sRGB" class="st4">
	<v:documentProperties v:langID="4108" v:metric="true" v:viewMarkup="false"/>

	<style type="text/css">
	<![CDATA[
		.st1 {fill:#ffffff;stroke:none;stroke-linecap:butt;stroke-width:0.75}
		.st2 {fill:#515050;stroke:none;stroke-linecap:butt;stroke-width:0.75}
		.st3 {fill:#515150;stroke:none;stroke-linecap:butt;stroke-width:0.75}
		.st4 {fill:none;fill-rule:evenodd;font-size:12px;overflow:visible;stroke-linecap:square;stroke-miterlimit:3}
	]]>
	</style>

	<g v:mID="0" v:index="1" v:groupContext="foregroundPage">
		<title>Page-1</title>
		<v:pageProperties v:drawingScale="0.0393701" v:pageScale="0.0393701" v:drawingUnits="24" v:shadowOffsetX="8.50394"
				v:shadowOffsetY="-8.50394"/>
		<v:layer v:name="symbols" v:index="0"/>
		<g id="group387-1" transform="translate(9,-1.6875)" v:mID="387" v:groupContext="group" v:layerMember="0">
			<title>Session Border Controller</title>
			<g id="group388-2" v:mID="388" v:groupContext="group" v:layerMember="0">
				<title>Sheet.388</title>
				<g id="group389-3" transform="translate(0,-18)" v:mID="389" v:groupContext="group" v:layerMember="0">
					<title>Sheet.389</title>
					<g id="shape390-4" v:mID="390" v:groupContext="shape" v:layerMember="0">
						<title>Sheet.390</title>
						<path d="M49.5 59.62 C47.85 59.62 46.5 58.27 46.5 56.62 L11.25 56.62 C11.18 58.27 9.82 59.62 8.25 59.62 L3
									 59.62 C1.35 59.62 0 58.2 0 56.55 L0 44.4 C-0 42.45 1.8 41.4 3.75 40.73 L3.75 30.38 L4.5 30.38
									 L4.5 21.37 L10.5 21.37 L10.5 30.38 L11.25 30.38 L11.25 39.08 C15.52 38.62 20.25 38.25 28.5 38.25
									 C35.85 38.25 40.73 38.4 45.75 39 L45.75 30.38 L46.5 30.38 L46.5 21.37 L52.5 21.37 L52.5 30.38
									 L53.25 30.38 L53.25 40.65 C54.97 41.25 57 42.3 57 44.4 L57 56.55 C57 58.27 55.65 59.62 53.92
									 59.62 L49.5 59.62 Z" class="st1"/>
					</g>
					<g id="shape391-6" v:mID="391" v:groupContext="shape" v:layerMember="0" transform="translate(2.25,-2.25)">
						<title>Sheet.391</title>
						<path d="M48.75 44.63 L48.75 34.88 L48 34.88 L48 25.87 L46.5 25.87 L46.5 34.88 L45.75 34.88 L45.75 43.87
									 C40.35 42.98 35.4 42.75 26.25 42.75 C17.1 42.75 11.93 43.28 6.75 43.87 L6.75 34.88 L6 34.88
									 L6 25.87 L4.5 25.87 L4.5 34.88 L3.75 34.88 L3.75 44.63 C1.42 45.22 0 45.98 0 46.65 C0 46.73
									 0 58.8 0 58.8 C0 59.25 0.37 59.62 0.75 59.62 L6 59.62 C6.45 59.62 6.75 59.25 6.75 58.8 L6.75
									 56.62 C12.07 56.62 17.1 56.62 26.25 56.62 C35.32 56.62 41.17 56.62 46.5 56.62 L46.5 58.8 C46.5
									 59.25 46.87 59.62 47.25 59.62 L51.6 59.62 C52.05 59.62 52.43 59.25 52.42 58.8 C52.43 58.8 52.43
									 46.73 52.42 46.65 C52.5 45.98 51.23 45.22 48.75 44.63 Z" class="st2"/>
					</g>
					<g id="shape392-8" v:mID="392" v:groupContext="shape" v:layerMember="0" transform="translate(39.75,-9.75)">
						<title>Sheet.392</title>
						<ellipse cx="1.875" cy="57.75" rx="1.875" ry="1.875" class="st1"/>
					</g>
				</g>
				<g id="group393-10" transform="translate(45,0)" v:mID="393" v:groupContext="group" v:layerMember="0">
					<title>Sheet.393</title>
					<g id="shape394-11" v:mID="394" v:groupContext="shape" v:layerMember="0">
						<title>Sheet.394</title>
						<path d="M4.57 55.27 L8.55 59.62 L10.5 59.62 L15.67 54.22 L13.5 51.97 L15 50.4 L14.77 48.45 L13.2 46.73 L14.17
									 45.52 L14.17 43.2 C16.95 41.55 18.67 38.55 18.67 35.18 C18.75 30.07 14.55 25.87 9.37 25.87 C4.2
									 25.88 0 30.07 0 35.25 C0 38.63 1.72 41.63 4.57 43.28 L4.57 55.27 Z" class="st1"/>
					</g>
					<g id="shape395-13" v:mID="395" v:groupContext="shape" v:layerMember="0" transform="translate(2.25,-2.25)">
						<title>Sheet.395</title>
						<path d="M9.75 46.2 L9.75 44.1 C12.37 43.05 14.25 40.5 14.25 37.5 C14.25 33.6 11.02 30.37 7.12 30.37 C3.22
									 30.37 0 33.6 0 37.5 C-0 40.5 1.87 43.13 4.57 44.17 L4.57 56.63 L7.35 59.62 L10.42 56.47 L8.25
									 54.23 L10.5 51.82 L10.5 51.68 L8.02 49.12 L9.75 47.02 L9.75 46.2 ZM7.12 33.37 C8.17 33.37 9
									 34.2 9 35.25 C9 36.3 8.17 37.12 7.12 37.12 C6.07 37.12 5.25 36.3 5.25 35.25 C5.25 34.2 6.07
									 33.37 7.12 33.37 Z" class="st3"/>
					</g>
				</g>
			</g>
		</g>
	</g>
</svg>
