<?xml version="1.0" encoding="UTF-8" standalone="no"?>
<!DOCTYPE svg PUBLIC "-//W3C//DTD SVG 1.1//EN" "http://www.w3.org/Graphics/SVG/1.1/DTD/svg11.dtd">
<!-- Generated by Microsoft Visio, SVG Export Shadowed Router.svg Page-1 -->
<svg xmlns="http://www.w3.org/2000/svg" xmlns:xlink="http://www.w3.org/1999/xlink" xmlns:ev="http://www.w3.org/2001/xml-events"
		xmlns:v="http://schemas.microsoft.com/visio/2003/SVGExtensions/" width="1.125in" height="1in" viewBox="0 0 81 72"
		xml:space="preserve" color-interpolation-filters="sRGB" class="st3">
	<v:documentProperties v:langID="4108" v:metric="true" v:viewMarkup="false"/>

	<style type="text/css">
	<![CDATA[
		.st1 {fill:#ffffff;stroke:none;stroke-linecap:butt;stroke-width:0.75}
		.st2 {fill:#515050;stroke:none;stroke-linecap:butt;stroke-width:0.75}
		.st3 {fill:none;fill-rule:evenodd;font-size:12px;overflow:visible;stroke-linecap:square;stroke-miterlimit:3}
	]]>
	</style>

	<g v:mID="0" v:index="1" v:groupContext="foregroundPage">
		<title>Page-1</title>
		<v:pageProperties v:drawingScale="0.0393701" v:pageScale="0.0393701" v:drawingUnits="24" v:shadowOffsetX="8.50394"
				v:shadowOffsetY="-8.50394"/>
		<v:layer v:name="symbols" v:index="0"/>
		<g id="group366-1" transform="translate(9.9375,-6.9375)" v:mID="366" v:groupContext="group" v:layerMember="0">
			<title>Shadowed Router</title>
			<g id="group367-2" transform="translate(0,-25.5)" v:mID="367" v:groupContext="group" v:layerMember="0">
				<title>Sheet.367</title>
				<g id="shape368-3" v:mID="368" v:groupContext="shape" v:layerMember="0">
					<title>Sheet.368</title>
					<path d="M48 72 C46.87 72 45.9 71.4 45.37 70.5 L10.05 70.5 C9.53 71.4 8.55 72 7.42 72 L3 72 C1.35 72 0 70.57
								 0 68.92 L0 56.77 C-0 54.22 2.55 53.47 6 52.95 L6 42.75 L6.75 42.75 L6.75 33.75 L12.75 33.75 L12.75
								 42.75 L13.5 42.75 L13.5 51.9 C18.07 51.52 22.42 51.37 27 51.37 C34.05 51.37 40.72 51.75 45.75 52.42
								 C52.5 53.32 54.75 54.45 54.75 56.7 L54.75 68.85 C54.75 70.57 53.4 71.92 51.67 71.92 L48 71.92 L48
								 72 Z" class="st1"/>
				</g>
				<g id="shape369-5" v:mID="369" v:groupContext="shape" v:layerMember="0" transform="translate(2.25,-2.25)">
					<title>Sheet.369</title>
					<path d="M24.75 55.87 C19.27 55.87 14.25 56.1 9 56.62 L9 47.25 L8.25 47.25 L8.25 38.25 L6.75 38.25 L6.75 47.25
								 L6 47.25 L6 57.07 C2.85 57.6 -0 57.97 0 59.02 C0 59.1 0 71.17 0 71.17 C-0 71.62 0.37 72 0.75 72
								 L5.25 72 C5.7 72 6 71.62 6 71.17 L6 70.5 C11.32 70.5 15.6 70.5 24.75 70.5 C33.82 70.5 39.67 70.5
								 45 70.5 L45 71.17 C45 71.62 45.37 72 45.75 72 L49.35 72 C49.8 72 50.17 71.62 50.17 71.17 C50.17
								 71.17 50.17 60.37 50.17 59.02 C50.17 57.67 39.97 55.87 24.75 55.87 Z" class="st2"/>
				</g>
				<g id="shape370-7" v:mID="370" v:groupContext="shape" v:layerMember="0" transform="translate(15,-9.75)">
					<title>Sheet.370</title>
					<ellipse cx="1.5" cy="70.5" rx="1.5" ry="1.5" class="st1"/>
				</g>
			</g>
			<g id="group371-9" transform="translate(6,-16.5)" v:mID="371" v:groupContext="group" v:layerMember="0">
				<title>Sheet.371</title>
				<g id="shape372-10" v:mID="372" v:groupContext="shape" v:layerMember="0">
					<title>Sheet.372</title>
					<path d="M48 72 C46.87 72 45.9 71.4 45.37 70.5 L10.05 70.5 C9.53 71.4 8.55 72 7.42 72 L3 72 C1.35 72 0 70.57
								 0 68.92 L0 56.77 C-0 54.22 2.55 53.47 6 52.95 L6 42.75 L6.75 42.75 L6.75 33.75 L12.75 33.75 L12.75
								 42.75 L13.5 42.75 L13.5 51.9 C18.07 51.52 22.42 51.37 27 51.37 C34.05 51.37 40.72 51.75 45.75 52.42
								 C52.5 53.32 54.75 54.45 54.75 56.7 L54.75 68.85 C54.75 70.57 53.4 71.92 51.67 71.92 L48 71.92 L48
								 72 Z" class="st1"/>
				</g>
				<g id="shape373-12" v:mID="373" v:groupContext="shape" v:layerMember="0" transform="translate(2.25,-2.25)">
					<title>Sheet.373</title>
					<path d="M24.75 55.87 C19.27 55.87 14.25 56.1 9 56.62 L9 47.25 L8.25 47.25 L8.25 38.25 L6.75 38.25 L6.75 47.25
								 L6 47.25 L6 57.07 C2.85 57.6 -0 57.97 0 59.02 C0 59.1 0 71.17 0 71.17 C-0 71.62 0.37 72 0.75 72
								 L5.25 72 C5.7 72 6 71.62 6 71.17 L6 70.5 C11.32 70.5 15.6 70.5 24.75 70.5 C33.82 70.5 39.67 70.5
								 45 70.5 L45 71.17 C45 71.62 45.37 72 45.75 72 L49.35 72 C49.8 72 50.17 71.62 50.17 71.17 C50.17
								 71.17 50.17 60.37 50.17 59.02 C50.17 57.67 39.97 55.87 24.75 55.87 Z" class="st2"/>
				</g>
				<g id="group374-14" transform="translate(15,-9.75)" v:mID="374" v:groupContext="group" v:layerMember="0">
					<title>Sheet.374</title>
					<g id="shape375-15" v:mID="375" v:groupContext="shape" v:layerMember="0">
						<title>Sheet.375</title>
						<ellipse cx="1.5" cy="70.5" rx="1.5" ry="1.5" class="st1"/>
					</g>
					<g id="shape376-17" v:mID="376" v:groupContext="shape" v:layerMember="0" transform="translate(7.5,0)">
						<title>Sheet.376</title>
						<ellipse cx="1.5" cy="70.5" rx="1.5" ry="1.5" class="st1"/>
					</g>
					<g id="shape377-19" v:mID="377" v:groupContext="shape" v:layerMember="0" transform="translate(15,0)">
						<title>Sheet.377</title>
						<ellipse cx="1.5" cy="70.5" rx="1.5" ry="1.5" class="st1"/>
					</g>
					<g id="shape378-21" v:mID="378" v:groupContext="shape" v:layerMember="0" transform="translate(22.5,0)">
						<title>Sheet.378</title>
						<ellipse cx="1.5" cy="70.5" rx="1.5" ry="1.5" class="st1"/>
					</g>
				</g>
			</g>
			<g id="group379-23" transform="translate(33.75,0)" v:mID="379" v:groupContext="group" v:layerMember="0">
				<title>Sheet.379</title>
				<g id="group380-24" v:mID="380" v:groupContext="group" v:layerMember="0">
					<title>Sheet.380</title>
					<g id="shape381-25" v:mID="381" v:groupContext="shape" v:layerMember="0">
						<title>Sheet.381</title>
						<path d="M4.5 72 C2.03 72 0 69.97 0 67.5 L0 46.5 C0 44.02 2.03 42 4.5 42 L25.5 42 C27.98 42 30 44.02 30 46.5
									 L30 67.5 C30 69.97 27.98 72 25.5 72 L4.5 72 Z" class="st1"/>
					</g>
					<g id="shape382-27" v:mID="382" v:groupContext="shape" v:layerMember="0" transform="translate(2.25,-2.25)">
						<title>Sheet.382</title>
						<path d="M25.5 69.75 C25.5 71.02 24.53 72 23.25 72 L2.25 72 C0.98 72 0 71.02 0 69.75 L0 48.75 C0 47.47 0.98
									 46.5 2.25 46.5 L23.25 46.5 C24.53 46.5 25.5 47.47 25.5 48.75 L25.5 69.75 Z" class="st2"/>
					</g>
				</g>
				<g id="shape383-29" v:mID="383" v:groupContext="shape" v:layerMember="0" transform="translate(12,-17.25)">
					<title>Sheet.383</title>
					<path d="M3.75 72 L3.75 67.05 L6 69.3 L6 67.05 L3 64.05 L0 67.05 L0 69.3 L2.25 67.05 L2.25 72 L3.75 72 Z"
							class="st1"/>
				</g>
				<g id="shape384-31" v:mID="384" v:groupContext="shape" v:layerMember="0" transform="translate(12,-4.8)">
					<title>Sheet.384</title>
					<path d="M2.25 64.05 L2.25 69 L0 66.75 L0 69 L3 72 L6 69 L6 66.75 L3.75 69 L3.75 64.05 L2.25 64.05 Z"
							class="st1"/>
				</g>
				<g id="shape385-33" v:mID="385" v:groupContext="shape" v:layerMember="0" transform="translate(17.55,-12)">
					<title>Sheet.385</title>
					<path d="M7.95 69.75 L3 69.75 L5.25 72 L3 72 L0 69 L3 66 L5.25 66 L3 68.25 L7.95 68.25 L7.95 69.75 Z"
							class="st1"/>
				</g>
				<g id="shape386-35" v:mID="386" v:groupContext="shape" v:layerMember="0" transform="translate(4.5,-12)">
					<title>Sheet.386</title>
					<path d="M0 68.25 L4.95 68.25 L2.7 66 L4.95 66 L7.95 69 L4.95 72 L2.7 72 L4.95 69.75 L0 69.75 L0 68.25 Z"
							class="st1"/>
				</g>
			</g>
		</g>
	</g>
</svg>
