<?xml version="1.0" encoding="UTF-8" standalone="no"?>
<!DOCTYPE svg PUBLIC "-//W3C//DTD SVG 1.1//EN" "http://www.w3.org/Graphics/SVG/1.1/DTD/svg11.dtd">
<!-- Generated by Microsoft Visio, SVG Export Switch.svg Page-1 -->
<svg xmlns="http://www.w3.org/2000/svg" xmlns:xlink="http://www.w3.org/1999/xlink" xmlns:ev="http://www.w3.org/2001/xml-events"
		xmlns:v="http://schemas.microsoft.com/visio/2003/SVGExtensions/" width="1.10938in" height="0.578125in"
		viewBox="0 0 79.875 41.625" xml:space="preserve" color-interpolation-filters="sRGB" class="st3">
	<v:documentProperties v:langID="4108" v:metric="true" v:viewMarkup="false"/>

	<style type="text/css">
	<![CDATA[
		.st1 {fill:#ffffff;stroke:none;stroke-linecap:butt;stroke-width:0.75}
		.st2 {fill:#515050;stroke:none;stroke-linecap:butt;stroke-width:0.75}
		.st3 {fill:none;fill-rule:evenodd;font-size:12px;overflow:visible;stroke-linecap:square;stroke-miterlimit:3}
	]]>
	</style>

	<g v:mID="0" v:index="1" v:groupContext="foregroundPage">
		<title>Page-1</title>
		<v:pageProperties v:drawingScale="0.0393701" v:pageScale="0.0393701" v:drawingUnits="24" v:shadowOffsetX="8.50394"
				v:shadowOffsetY="-8.50394"/>
		<v:layer v:name="symbols" v:index="0"/>
		<g id="group396-1" transform="translate(10.5,-9.5625)" v:mID="396" v:groupContext="group" v:layerMember="0">
			<title>Switch</title>
			<g id="group397-2" v:mID="397" v:groupContext="group" v:layerMember="0">
				<title>Sheet.397</title>
				<g id="group398-3" v:mID="398" v:groupContext="group" v:layerMember="0">
					<title>Sheet.398</title>
					<g id="shape399-4" v:mID="399" v:groupContext="shape" v:layerMember="0">
						<title>Sheet.399</title>
						<path d="M0 41.62 L0 24.75 C0 21.83 2.7 19.12 5.7 19.12 L53.47 19.12 C56.48 19.13 59.25 21.82 59.25 24.75
									 L59.25 41.62 L0 41.62 Z" class="st1"/>
					</g>
					<g id="shape400-6" v:mID="400" v:groupContext="shape" v:layerMember="0" transform="translate(2.25,-2.25)">
						<title>Sheet.400</title>
						<path d="M39.45 23.62 L3.53 23.62 C1.73 23.63 0 25.35 0 27 L0 41.62 L54.75 41.62 L54.75 27 C54.75 25.28 53.02
									 23.62 51.3 23.62 L39.45 23.62 Z" class="st2"/>
					</g>
					<g id="shape401-8" v:mID="401" v:groupContext="shape" v:layerMember="0" transform="translate(4.5,-4.5)">
						<title>Sheet.401</title>
						<path d="M0 41.62 L0 29.25 C0 28.8 0.75 28.12 1.27 28.12 L49.05 28.12 C49.57 28.13 50.25 28.8 50.25 29.25
									 L50.25 41.62 L0 41.62 Z" class="st1"/>
					</g>
				</g>
				<g id="group402-10" transform="translate(10.5,-6.75)" v:mID="402" v:groupContext="group" v:layerMember="0">
					<title>Sheet.402</title>
					<g id="shape403-11" v:mID="403" v:groupContext="shape" v:layerMember="0" transform="translate(0,-3)">
						<title>Sheet.403</title>
						<path d="M5.85 41.62 L0.97 41.62 C0.45 41.62 0 41.17 0 40.65 L0 39.52 C0 39 0.45 38.55 0.97 38.55 L5.85 38.55
									 C6.37 38.55 6.82 39 6.82 39.52 L6.82 40.65 C6.75 41.17 6.3 41.62 5.85 41.62 Z" class="st2"/>
					</g>
					<g id="shape404-13" v:mID="404" v:groupContext="shape" v:layerMember="0" transform="translate(2.25,-6.75)">
						<title>Sheet.404</title>
						<ellipse cx="1.125" cy="40.5" rx="1.125" ry="1.125" class="st2"/>
					</g>
					<g id="shape405-15" v:mID="405" v:groupContext="shape" v:layerMember="0" transform="translate(2.25,0)">
						<title>Sheet.405</title>
						<ellipse cx="1.125" cy="40.5" rx="1.125" ry="1.125" class="st2"/>
					</g>
				</g>
				<g id="group406-17" transform="translate(21,-6.75)" v:mID="406" v:groupContext="group" v:layerMember="0">
					<title>Sheet.406</title>
					<g id="shape407-18" v:mID="407" v:groupContext="shape" v:layerMember="0" transform="translate(0,-3)">
						<title>Sheet.407</title>
						<path d="M5.85 41.62 L0.97 41.62 C0.45 41.62 0 41.17 0 40.65 L0 39.52 C0 39 0.45 38.55 0.97 38.55 L5.85 38.55
									 C6.37 38.55 6.82 39 6.82 39.52 L6.82 40.65 C6.75 41.17 6.3 41.62 5.85 41.62 Z" class="st2"/>
					</g>
					<g id="shape408-20" v:mID="408" v:groupContext="shape" v:layerMember="0" transform="translate(2.25,-6.75)">
						<title>Sheet.408</title>
						<ellipse cx="1.125" cy="40.5" rx="1.125" ry="1.125" class="st2"/>
					</g>
					<g id="shape409-22" v:mID="409" v:groupContext="shape" v:layerMember="0" transform="translate(2.25,0)">
						<title>Sheet.409</title>
						<ellipse cx="1.125" cy="40.5" rx="1.125" ry="1.125" class="st2"/>
					</g>
				</g>
				<g id="group410-24" transform="translate(31.5,-6.75)" v:mID="410" v:groupContext="group" v:layerMember="0">
					<title>Sheet.410</title>
					<g id="shape411-25" v:mID="411" v:groupContext="shape" v:layerMember="0" transform="translate(0,-3)">
						<title>Sheet.411</title>
						<path d="M5.85 41.62 L0.97 41.62 C0.45 41.62 0 41.17 0 40.65 L0 39.52 C0 39 0.45 38.55 0.97 38.55 L5.85 38.55
									 C6.37 38.55 6.82 39 6.82 39.52 L6.82 40.65 C6.75 41.17 6.3 41.62 5.85 41.62 Z" class="st2"/>
					</g>
					<g id="shape412-27" v:mID="412" v:groupContext="shape" v:layerMember="0" transform="translate(2.25,-6.75)">
						<title>Sheet.412</title>
						<ellipse cx="1.125" cy="40.5" rx="1.125" ry="1.125" class="st2"/>
					</g>
					<g id="shape413-29" v:mID="413" v:groupContext="shape" v:layerMember="0" transform="translate(2.25,0)">
						<title>Sheet.413</title>
						<ellipse cx="1.125" cy="40.5" rx="1.125" ry="1.125" class="st2"/>
					</g>
				</g>
				<g id="group414-31" transform="translate(42,-6.75)" v:mID="414" v:groupContext="group" v:layerMember="0">
					<title>Sheet.414</title>
					<g id="shape415-32" v:mID="415" v:groupContext="shape" v:layerMember="0" transform="translate(0,-3)">
						<title>Sheet.415</title>
						<path d="M5.85 41.62 L0.97 41.62 C0.45 41.62 0 41.17 0 40.65 L0 39.52 C-0 39 0.45 38.55 0.97 38.55 L5.85
									 38.55 C6.37 38.55 6.82 39 6.82 39.52 L6.82 40.65 C6.75 41.17 6.3 41.62 5.85 41.62 Z"
								class="st2"/>
					</g>
					<g id="shape416-34" v:mID="416" v:groupContext="shape" v:layerMember="0" transform="translate(2.25,-6.75)">
						<title>Sheet.416</title>
						<ellipse cx="1.125" cy="40.5" rx="1.125" ry="1.125" class="st2"/>
					</g>
					<g id="shape417-36" v:mID="417" v:groupContext="shape" v:layerMember="0" transform="translate(2.25,0)">
						<title>Sheet.417</title>
						<ellipse cx="1.125" cy="40.5" rx="1.125" ry="1.125" class="st2"/>
					</g>
				</g>
			</g>
		</g>
	</g>
</svg>
