<?xml version="1.0" encoding="UTF-8" standalone="no"?>
<!DOCTYPE svg PUBLIC "-//W3C//DTD SVG 1.1//EN" "http://www.w3.org/Graphics/SVG/1.1/DTD/svg11.dtd">
<!-- Generated by Microsoft Visio, SVG Export Video Gateway.svg Page-1 -->
<svg xmlns="http://www.w3.org/2000/svg" xmlns:xlink="http://www.w3.org/1999/xlink" xmlns:ev="http://www.w3.org/2001/xml-events"
		xmlns:v="http://schemas.microsoft.com/visio/2003/SVGExtensions/" width="1.10938in" height="0.859375in"
		viewBox="0 0 79.875 61.875" xml:space="preserve" color-interpolation-filters="sRGB" class="st4">
	<v:documentProperties v:langID="4108" v:metric="true" v:viewMarkup="false"/>

	<style type="text/css">
	<![CDATA[
		.st1 {fill:#ffffff;stroke:none;stroke-linecap:butt;stroke-width:0.75}
		.st2 {fill:#515050;stroke:none;stroke-linecap:butt;stroke-width:0.75}
		.st3 {fill:#515251;stroke:none;stroke-linecap:butt;stroke-width:0.75}
		.st4 {fill:none;fill-rule:evenodd;font-size:12px;overflow:visible;stroke-linecap:square;stroke-miterlimit:3}
	]]>
	</style>

	<g v:mID="0" v:index="1" v:groupContext="foregroundPage">
		<title>Page-1</title>
		<v:pageProperties v:drawingScale="0.0393701" v:pageScale="0.0393701" v:drawingUnits="24" v:shadowOffsetX="8.50394"
				v:shadowOffsetY="-8.50394"/>
		<v:layer v:name="symbols" v:index="0"/>
		<g id="group418-1" transform="translate(7.3125,-8.0625)" v:mID="418" v:groupContext="group" v:layerMember="0">
			<title>Video Gateway</title>
			<g id="group419-2" v:mID="419" v:groupContext="group" v:layerMember="0">
				<title>Sheet.419</title>
				<g id="group420-3" transform="translate(3.15747E-13,-26.25)" v:mID="420" v:groupContext="group" v:layerMember="0">
					<title>Sheet.420</title>
					<g id="shape421-4" v:mID="421" v:groupContext="shape" v:layerMember="0">
						<title>Sheet.421</title>
						<path d="M0 61.87 L0 48 C0 45.07 2.77 42.37 5.77 42.37 L49.8 42.37 C52.8 42.37 55.57 45.07 55.57 48 L55.57
									 61.87 L0 61.87 Z" class="st1"/>
					</g>
					<g id="shape422-6" v:mID="422" v:groupContext="shape" v:layerMember="0" transform="translate(2.25,-2.25)">
						<title>Sheet.422</title>
						<path d="M39.45 46.87 L3.52 46.87 C1.72 46.87 0 48.6 0 50.25 L0 61.87 L51 61.87 L51 50.25 C51 48.52 49.27
									 46.87 47.55 46.87 L39.45 46.87 Z" class="st2"/>
					</g>
					<g id="group423-8" transform="translate(11.25,-8.25)" v:mID="423" v:groupContext="group" v:layerMember="0">
						<title>Sheet.423</title>
						<g id="shape424-9" v:mID="424" v:groupContext="shape" v:layerMember="0">
							<title>Sheet.424</title>
							<ellipse cx="1.5" cy="60.375" rx="1.5" ry="1.5" class="st1"/>
						</g>
						<g id="shape425-11" v:mID="425" v:groupContext="shape" v:layerMember="0" transform="translate(7.5,0)">
							<title>Sheet.425</title>
							<ellipse cx="1.5" cy="60.375" rx="1.5" ry="1.5" class="st1"/>
						</g>
						<g id="shape426-13" v:mID="426" v:groupContext="shape" v:layerMember="0" transform="translate(15,0)">
							<title>Sheet.426</title>
							<ellipse cx="1.5" cy="60.375" rx="1.5" ry="1.5" class="st1"/>
						</g>
						<g id="shape427-15" v:mID="427" v:groupContext="shape" v:layerMember="0" transform="translate(22.5,0)">
							<title>Sheet.427</title>
							<ellipse cx="1.5" cy="60.375" rx="1.5" ry="1.5" class="st1"/>
						</g>
						<g id="shape428-17" v:mID="428" v:groupContext="shape" v:layerMember="0" transform="translate(30,0)">
							<title>Sheet.428</title>
							<ellipse cx="1.5" cy="60.375" rx="1.5" ry="1.5" class="st1"/>
						</g>
					</g>
				</g>
				<g id="group429-19" transform="translate(32.25,2.27374E-13)" v:mID="429" v:groupContext="group" v:layerMember="0">
					<title>Sheet.429</title>
					<g id="shape430-20" v:mID="430" v:groupContext="shape" v:layerMember="0">
						<title>Sheet.430</title>
						<rect x="0" y="29.625" width="31.5" height="32.25" class="st1"/>
					</g>
					<g id="shape431-22" v:mID="431" v:groupContext="shape" v:layerMember="0" transform="translate(2.25,-2.25)">
						<title>Sheet.431</title>
						<path d="M21.75 34.12 L5.25 34.12 L0 34.12 L0 36.37 L0 46.87 L0 49.12 L0 59.62 L0 61.87 L5.25 61.87 L21.75
									 61.87 L27 61.87 L27 59.62 L27 49.12 L27 46.87 L27 36.37 L27 34.12 L21.75 34.12 ZM21.75 59.62
									 L5.25 59.62 L5.25 49.12 L21.75 49.12 L21.75 59.62 ZM21.75 46.87 L5.25 46.87 L5.25 36.37 L21.75
									 36.37 L21.75 46.87 Z" class="st2"/>
					</g>
					<g id="group432-24" transform="translate(3.75,-1.5)" v:mID="432" v:groupContext="group" v:layerMember="0">
						<title>Sheet.432</title>
						<g id="shape433-25" v:mID="433" v:groupContext="shape" v:layerMember="0" transform="translate(0,-27)">
							<title>Sheet.433</title>
							<rect x="0" y="59.625" width="2.25" height="2.25" class="st1"/>
						</g>
						<g id="shape434-27" v:mID="434" v:groupContext="shape" v:layerMember="0" transform="translate(0,-22.5)">
							<title>Sheet.434</title>
							<rect x="0" y="59.625" width="2.25" height="2.25" class="st1"/>
						</g>
						<g id="shape435-29" v:mID="435" v:groupContext="shape" v:layerMember="0" transform="translate(0,-18)">
							<title>Sheet.435</title>
							<rect x="0" y="59.625" width="2.25" height="2.25" class="st1"/>
						</g>
						<g id="shape436-31" v:mID="436" v:groupContext="shape" v:layerMember="0" transform="translate(0,-13.5)">
							<title>Sheet.436</title>
							<rect x="0" y="59.625" width="2.25" height="2.25" class="st1"/>
						</g>
						<g id="shape437-33" v:mID="437" v:groupContext="shape" v:layerMember="0" transform="translate(0,-9)">
							<title>Sheet.437</title>
							<rect x="0" y="59.625" width="2.25" height="2.25" class="st1"/>
						</g>
						<g id="shape438-35" v:mID="438" v:groupContext="shape" v:layerMember="0" transform="translate(0,-4.5)">
							<title>Sheet.438</title>
							<rect x="0" y="59.625" width="2.25" height="2.25" class="st1"/>
						</g>
						<g id="shape439-37" v:mID="439" v:groupContext="shape" v:layerMember="0">
							<title>Sheet.439</title>
							<rect x="0" y="59.625" width="2.25" height="2.25" class="st1"/>
						</g>
					</g>
					<g id="group440-39" transform="translate(25.5,-1.5)" v:mID="440" v:groupContext="group" v:layerMember="0">
						<title>Sheet.440</title>
						<g id="shape441-40" v:mID="441" v:groupContext="shape" v:layerMember="0" transform="translate(0,-27)">
							<title>Sheet.441</title>
							<rect x="0" y="59.625" width="2.25" height="2.25" class="st1"/>
						</g>
						<g id="shape442-42" v:mID="442" v:groupContext="shape" v:layerMember="0" transform="translate(0,-22.5)">
							<title>Sheet.442</title>
							<rect x="0" y="59.625" width="2.25" height="2.25" class="st1"/>
						</g>
						<g id="shape443-44" v:mID="443" v:groupContext="shape" v:layerMember="0" transform="translate(0,-18)">
							<title>Sheet.443</title>
							<rect x="0" y="59.625" width="2.25" height="2.25" class="st1"/>
						</g>
						<g id="shape444-46" v:mID="444" v:groupContext="shape" v:layerMember="0" transform="translate(0,-13.5)">
							<title>Sheet.444</title>
							<rect x="0" y="59.625" width="2.25" height="2.25" class="st1"/>
						</g>
						<g id="shape445-48" v:mID="445" v:groupContext="shape" v:layerMember="0" transform="translate(0,-9)">
							<title>Sheet.445</title>
							<rect x="0" y="59.625" width="2.25" height="2.25" class="st1"/>
						</g>
						<g id="shape446-50" v:mID="446" v:groupContext="shape" v:layerMember="0" transform="translate(0,-4.5)">
							<title>Sheet.446</title>
							<rect x="0" y="59.625" width="2.25" height="2.25" class="st1"/>
						</g>
						<g id="shape447-52" v:mID="447" v:groupContext="shape" v:layerMember="0">
							<title>Sheet.447</title>
							<rect x="0" y="59.625" width="2.25" height="2.25" class="st1"/>
						</g>
					</g>
				</g>
				<g id="group448-54" transform="translate(0.75,-9)" v:mID="448" v:groupContext="group" v:layerMember="0">
					<title>Sheet.448</title>
					<g id="shape449-55" v:mID="449" v:groupContext="shape" v:layerMember="0">
						<title>Sheet.449</title>
						<path d="M8.7 61.87 L0 53.17 L8.7 44.62 L23.25 44.62 L31.95 53.17 L23.33 61.87 L8.7 61.87 Z" class="st1"/>
					</g>
					<g id="shape450-57" v:mID="450" v:groupContext="shape" v:layerMember="0" transform="translate(3.225,-2.25)">
						<title>Sheet.450</title>
						<path d="M10.13 61.87 L5.93 57.22 L19.58 57.22 L15.38 61.87 L19.13 61.87 L25.58 55.5 L19.13 49.12 L15.38
									 49.12 L19.58 53.62 L5.93 53.62 L10.13 49.12 L6.38 49.12 L0 55.5 L6.38 61.87 L10.13 61.87 Z"
								class="st3"/>
					</g>
				</g>
			</g>
		</g>
	</g>
</svg>
