<?xml version="1.0" encoding="UTF-8" standalone="no"?>
<!DOCTYPE svg PUBLIC "-//W3C//DTD SVG 1.1//EN" "http://www.w3.org/Graphics/SVG/1.1/DTD/svg11.dtd">
<!-- Generated by Microsoft Visio, SVG Export Workstation, PC.svg Page-1 -->
<svg xmlns="http://www.w3.org/2000/svg" xmlns:xlink="http://www.w3.org/1999/xlink" xmlns:ev="http://www.w3.org/2001/xml-events"
		xmlns:v="http://schemas.microsoft.com/visio/2003/SVGExtensions/" width="1.02812in" height="1.0625in"
		viewBox="0 0 74.025 76.5" xml:space="preserve" color-interpolation-filters="sRGB" class="st5">
	<v:documentProperties v:langID="4108" v:metric="true" v:viewMarkup="false"/>

	<style type="text/css">
	<![CDATA[
		.st1 {fill:#ffffff;stroke:none;stroke-linecap:butt;stroke-width:0.75}
		.st2 {fill:#515251;stroke:none;stroke-linecap:butt;stroke-width:0.75}
		.st3 {fill:#515150;stroke:none;stroke-linecap:butt;stroke-width:0.75}
		.st4 {fill:#27ace2;stroke:none;stroke-linecap:butt;stroke-width:0.75}
		.st5 {fill:none;fill-rule:evenodd;font-size:12px;overflow:visible;stroke-linecap:square;stroke-miterlimit:3}
	]]>
	</style>

	<g v:mID="0" v:index="1" v:groupContext="foregroundPage">
		<title>Page-1</title>
		<v:pageProperties v:drawingScale="0.0393701" v:pageScale="0.0393701" v:drawingUnits="24" v:shadowOffsetX="8.50394"
				v:shadowOffsetY="-8.50394"/>
		<v:layer v:name="symbols" v:index="0"/>
		<g id="group465-1" transform="translate(8.625,-8.0625)" v:mID="465" v:groupContext="group" v:layerMember="0">
			<title>Workstation, PC</title>
			<g id="group466-2" transform="translate(-2.8777E-13,-3.75)" v:mID="466" v:groupContext="group" v:layerMember="0">
				<title>Sheet.466</title>
				<g id="shape467-3" v:mID="467" v:groupContext="shape" v:layerMember="0">
					<title>Sheet.467</title>
					<path d="M0 76.5 L0 24.75 C-0 21.82 2.33 19.5 5.25 19.5 L26.25 19.5 C29.18 19.5 31.5 21.82 31.5 24.75 L31.5 76.5
								 L0 76.5 Z" class="st1"/>
				</g>
				<g id="shape468-5" v:mID="468" v:groupContext="shape" v:layerMember="0" transform="translate(2.25,-2.25)">
					<title>Sheet.468</title>
					<path d="M24 24 L3 24 C1.35 24 0 25.35 0 27 L0 76.5 L27 76.5 L27 27 C27 25.35 25.65 24 24 24 ZM21.75 70.5 L5.25
								 70.5 L5.25 68.25 L21.75 68.25 L21.75 70.5 ZM21.75 63.75 L5.25 63.75 L5.25 61.5 L21.75 61.5 L21.75
								 63.75 ZM21.75 33 L5.25 33 L5.25 30.75 L21.75 30.75 L21.75 33 Z" class="st2"/>
				</g>
			</g>
			<g id="group469-7" transform="translate(12.75,-3.12639E-13)" v:mID="469" v:groupContext="group" v:layerMember="0">
				<title>Sheet.469</title>
				<g id="shape470-8" v:mID="470" v:groupContext="shape" v:layerMember="0">
					<title>Sheet.470</title>
					<path d="M11.7 76.5 C9.68 76.5 8.02 74.85 8.02 72.82 C8.02 70.8 9.68 69.15 11.7 69.15 C14.32 69.15 15.53 68.92
								 15.97 68.77 C15.98 68.62 15.9 68.47 15.9 68.25 L4.5 68.25 C2.03 68.25 0 66.22 0 63.75 L0 42 C0 39.52
								 2.03 37.5 4.5 37.5 L40.5 37.5 C42.98 37.5 45 39.52 45 42 L45 63.75 C45 66.22 42.98 68.25 40.5 68.25
								 L29.1 68.25 C29.03 68.47 29.03 68.62 29.03 68.77 C29.55 68.92 30.68 69.07 33.38 69.15 C35.4 69.15
								 37.05 70.8 37.05 72.82 C37.05 74.85 35.4 76.5 33.38 76.5 L11.7 76.5 Z" class="st1"/>
				</g>
				<g id="shape471-10" v:mID="471" v:groupContext="shape" v:layerMember="0" transform="translate(2.25,-2.25)">
					<title>Sheet.471</title>
					<path d="M38.25 42 L2.25 42 C0.97 42 0 42.97 0 44.25 L0 66 C0 67.27 0.97 68.25 2.25 68.25 L15.45 68.25 C16.72
								 72.75 16.43 73.5 9.53 73.65 C8.7 73.65 8.1 74.32 8.1 75.07 C8.1 75.9 8.78 76.5 9.53 76.5 L31.05
								 76.5 C31.88 76.5 32.47 75.9 32.47 75.07 C32.47 74.25 31.8 73.65 31.05 73.65 C24.15 73.5 23.78 72.75
								 25.05 68.25 L38.25 68.25 C39.53 68.25 40.5 67.27 40.5 66 L40.5 44.25 C40.5 42.97 39.53 42 38.25
								 42 ZM37.5 65.25 L3 65.25 L3 45 L37.5 45 L37.5 65.25 Z" class="st3"/>
				</g>
			</g>
			<g id="group472-12" transform="translate(31.5,-37.5)" v:mID="472" v:groupContext="group" v:layerMember="0">
				<title>Sheet.472</title>
				<g id="shape473-13" v:mID="473" v:groupContext="shape" v:layerMember="0">
					<title>Sheet.473</title>
					<path d="M25.5 76.5 L25.5 50.25 L23.1 50.25 L0 53.55 L0 73.2 L23.1 76.5 L25.5 76.5 Z" class="st1"/>
				</g>
				<g id="group474-15" transform="translate(2.25,-2.25)" v:mID="474" v:groupContext="group" v:layerMember="0">
					<title>Sheet.474</title>
					<g id="shape475-16" v:mID="475" v:groupContext="shape" v:layerMember="0"
							transform="translate(-1.05416E-13,-1.725)">
						<title>Sheet.475</title>
						<path d="M0 75.22 L9 76.5 L9 67.72 L0 67.72 L0 75.22 Z" class="st4"/>
					</g>
					<g id="shape476-18" v:mID="476" v:groupContext="shape" v:layerMember="0"
							transform="translate(-1.05416E-13,-11.25)">
						<title>Sheet.476</title>
						<path d="M0 69 L0 76.5 L9 76.5 L9 67.72 L0 69 Z" class="st4"/>
					</g>
					<g id="shape477-20" v:mID="477" v:groupContext="shape" v:layerMember="0" transform="translate(9.75,0)">
						<title>Sheet.477</title>
						<rect x="0" y="66" width="11.25" height="8.85" class="st4"/>
					</g>
					<g id="shape478-22" v:mID="478" v:groupContext="shape" v:layerMember="0" transform="translate(9.75,-11.25)">
						<title>Sheet.478</title>
						<path d="M11.25 66 L0 67.57 L0 76.5 L11.25 76.5 L11.25 66 Z" class="st4"/>
					</g>
				</g>
			</g>
		</g>
	</g>
</svg>
