<?xml version="1.0" encoding="UTF-8" standalone="no"?>
<!DOCTYPE svg PUBLIC "-//W3C//DTD SVG 1.1//EN" "http://www.w3.org/Graphics/SVG/1.1/DTD/svg11.dtd">
<!-- Generated by Microsoft Visio, SVG Export Workstation.svg Page-1 -->
<svg xmlns="http://www.w3.org/2000/svg" xmlns:xlink="http://www.w3.org/1999/xlink" xmlns:ev="http://www.w3.org/2001/xml-events"
		xmlns:v="http://schemas.microsoft.com/visio/2003/SVGExtensions/" width="1.025in" height="1.04688in"
		viewBox="0 0 73.8 75.375" xml:space="preserve" color-interpolation-filters="sRGB" class="st4">
	<v:documentProperties v:langID="4108" v:metric="true" v:viewMarkup="false"/>

	<style type="text/css">
	<![CDATA[
		.st1 {fill:#ffffff;stroke:none;stroke-linecap:butt;stroke-width:0.75}
		.st2 {fill:#515251;stroke:none;stroke-linecap:butt;stroke-width:0.75}
		.st3 {fill:#515150;stroke:none;stroke-linecap:butt;stroke-width:0.75}
		.st4 {fill:none;fill-rule:evenodd;font-size:12px;overflow:visible;stroke-linecap:square;stroke-miterlimit:3}
	]]>
	</style>

	<g v:mID="0" v:index="1" v:groupContext="foregroundPage">
		<title>Page-1</title>
		<v:pageProperties v:drawingScale="0.0393701" v:pageScale="0.0393701" v:drawingUnits="24" v:shadowOffsetX="8.50394"
				v:shadowOffsetY="-8.50394"/>
		<v:layer v:name="symbols" v:index="0"/>
		<g id="group457-1" transform="translate(8.325,-7.3125)" v:mID="457" v:groupContext="group" v:layerMember="0">
			<title>Workstation</title>
			<g id="group458-2" v:mID="458" v:groupContext="group" v:layerMember="0">
				<title>Sheet.458</title>
				<g id="group459-3" transform="translate(-2.8777E-13,-3.75)" v:mID="459" v:groupContext="group" v:layerMember="0">
					<title>Sheet.459</title>
					<g id="shape460-4" v:mID="460" v:groupContext="shape" v:layerMember="0">
						<title>Sheet.460</title>
						<path d="M0 75.38 L0 23.63 C0 20.7 2.33 18.38 5.25 18.38 L26.25 18.38 C29.18 18.38 31.5 20.7 31.5 23.63 L31.5
									 75.38 L0 75.38 Z" class="st1"/>
					</g>
					<g id="shape461-6" v:mID="461" v:groupContext="shape" v:layerMember="0" transform="translate(2.25,-2.25)">
						<title>Sheet.461</title>
						<path d="M24 22.88 L3 22.88 C1.35 22.88 0 24.23 0 25.88 L0 75.38 L27 75.38 L27 25.88 C27 24.23 25.65 22.88
									 24 22.88 ZM21.75 69.38 L5.25 69.38 L5.25 67.13 L21.75 67.13 L21.75 69.38 ZM21.75 62.63 L5.25
									 62.63 L5.25 60.38 L21.75 60.38 L21.75 62.63 ZM21.75 31.88 L5.25 31.88 L5.25 29.63 L21.75 29.63
									 L21.75 31.88 Z" class="st2"/>
					</g>
				</g>
				<g id="group462-8" transform="translate(12.75,0)" v:mID="462" v:groupContext="group" v:layerMember="0">
					<title>Sheet.462</title>
					<g id="shape463-9" v:mID="463" v:groupContext="shape" v:layerMember="0">
						<title>Sheet.463</title>
						<path d="M11.7 75.38 C9.68 75.38 8.02 73.73 8.02 71.7 C8.02 69.68 9.68 68.03 11.7 68.03 C14.32 68.03 15.53
									 67.8 15.97 67.65 C15.98 67.5 15.9 67.35 15.9 67.13 L4.5 67.13 C2.03 67.13 0 65.1 0 62.63 L0
									 40.88 C0 38.4 2.03 36.38 4.5 36.38 L40.5 36.38 C42.98 36.38 45 38.4 45 40.88 L45 62.63 C45 65.1
									 42.98 67.13 40.5 67.13 L29.1 67.13 C29.03 67.35 29.03 67.5 29.03 67.65 C29.55 67.8 30.68 67.95
									 33.38 68.03 C35.4 68.03 37.05 69.68 37.05 71.7 C37.05 73.73 35.4 75.38 33.38 75.38 L11.7 75.38
									 Z" class="st1"/>
					</g>
					<g id="shape464-11" v:mID="464" v:groupContext="shape" v:layerMember="0" transform="translate(2.25,-2.25)">
						<title>Sheet.464</title>
						<path d="M38.25 40.88 L2.25 40.88 C0.97 40.88 0 41.85 0 43.13 L0 64.88 C0 66.15 0.97 67.13 2.25 67.13 L15.45
									 67.13 C16.72 71.63 16.43 72.38 9.53 72.53 C8.7 72.53 8.1 73.2 8.1 73.95 C8.1 74.78 8.78 75.38
									 9.53 75.38 L31.05 75.38 C31.88 75.38 32.47 74.78 32.47 73.95 C32.47 73.13 31.8 72.53 31.05 72.53
									 C24.15 72.38 23.78 71.63 25.05 67.13 L38.25 67.13 C39.53 67.13 40.5 66.15 40.5 64.88 L40.5 43.13
									 C40.5 41.85 39.53 40.88 38.25 40.88 ZM37.5 64.13 L3 64.13 L3 43.88 L37.5 43.88 L37.5 64.13 Z"
								class="st3"/>
					</g>
				</g>
			</g>
		</g>
	</g>
</svg>
