<?xml version="1.0" encoding="UTF-8" standalone="no"?>
<!DOCTYPE svg PUBLIC "-//W3C//DTD SVG 1.1//EN" "http://www.w3.org/Graphics/SVG/1.1/DTD/svg11.dtd">
<!-- Generated by Microsoft Visio, SVG Export Workstation, Visual Studio.svg Page-1 -->
<svg xmlns="http://www.w3.org/2000/svg" xmlns:xlink="http://www.w3.org/1999/xlink" xmlns:ev="http://www.w3.org/2001/xml-events"
		xmlns:v="http://schemas.microsoft.com/visio/2003/SVGExtensions/" width="1.03125in" height="1.04687in"
		viewBox="0 0 74.25 75.375" xml:space="preserve" color-interpolation-filters="sRGB" class="st5">
	<v:documentProperties v:langID="4108" v:metric="true" v:viewMarkup="false"/>

	<style type="text/css">
	<![CDATA[
		.st1 {fill:#ffffff;stroke:none;stroke-linecap:butt;stroke-width:0.75}
		.st2 {fill:#515251;stroke:none;stroke-linecap:butt;stroke-width:0.75}
		.st3 {fill:#672a7b;stroke:none;stroke-linecap:butt;stroke-width:0.75}
		.st4 {fill:#515150;stroke:none;stroke-linecap:butt;stroke-width:0.75}
		.st5 {fill:none;fill-rule:evenodd;font-size:12px;overflow:visible;stroke-linecap:square;stroke-miterlimit:3}
	]]>
	</style>

	<g v:mID="0" v:index="1" v:groupContext="foregroundPage">
		<title>Page-1</title>
		<v:pageProperties v:drawingScale="0.0393701" v:pageScale="0.0393701" v:drawingUnits="24" v:shadowOffsetX="8.50394"
				v:shadowOffsetY="-8.50394"/>
		<v:layer v:name="symbols" v:index="0"/>
		<g id="group479-1" transform="translate(9,-6.9375)" v:mID="479" v:groupContext="group" v:layerMember="0">
			<title>Workstation, Visual Studio</title>
			<g id="group480-2" transform="translate(-2.8777E-13,-3.75)" v:mID="480" v:groupContext="group" v:layerMember="0">
				<title>Sheet.480</title>
				<g id="shape481-3" v:mID="481" v:groupContext="shape" v:layerMember="0">
					<title>Sheet.481</title>
					<path d="M0 75.37 L0 23.62 C-0 20.7 2.33 18.37 5.25 18.37 L26.25 18.37 C29.18 18.37 31.5 20.7 31.5 23.62 L31.5
								 75.37 L0 75.37 Z" class="st1"/>
				</g>
				<g id="shape482-5" v:mID="482" v:groupContext="shape" v:layerMember="0" transform="translate(2.25,-2.25)">
					<title>Sheet.482</title>
					<path d="M24 22.87 L3 22.87 C1.35 22.87 0 24.22 0 25.87 L0 75.37 L27 75.37 L27 25.87 C27 24.22 25.65 22.87 24
								 22.87 ZM21.75 69.37 L5.25 69.37 L5.25 67.12 L21.75 67.12 L21.75 69.37 ZM21.75 62.62 L5.25 62.62
								 L5.25 60.37 L21.75 60.37 L21.75 62.62 ZM21.75 31.87 L5.25 31.87 L5.25 29.62 L21.75 29.62 L21.75
								 31.87 Z" class="st2"/>
				</g>
			</g>
			<g id="group483-7" transform="translate(31.5,-36.75)" v:mID="483" v:groupContext="group" v:layerMember="0">
				<title>Sheet.483</title>
				<g id="shape484-8" v:mID="484" v:groupContext="shape" v:layerMember="0">
					<title>Sheet.484</title>
					<path d="M9.75 67.12 L4.72 71.02 L0 68.7 L0 55.05 L4.72 52.72 L9.75 56.62 L18 48.37 L26.25 51.67 L26.25 72.07
								 L18 75.37 L9.75 67.12 Z" class="st1"/>
				</g>
				<g id="shape485-10" v:mID="485" v:groupContext="shape" v:layerMember="0" transform="translate(2.25,-2.625)">
					<title>Sheet.485</title>
					<path d="M16.35 53.62 L7.65 62.25 L2.18 57.97 L0 59.1 L0 69.97 L2.18 71.02 L7.65 66.75 L16.27 75.37 L21.67 73.2
								 L21.67 55.8 L16.35 53.62 ZM2.25 67.8 L2.25 61.27 L5.47 64.5 L2.25 67.8 ZM10.57 64.5 L16.5 60 L16.5
								 69 L10.57 64.5 Z" class="st3"/>
				</g>
			</g>
			<g id="group486-12" transform="translate(12.75,-3.12639E-13)" v:mID="486" v:groupContext="group" v:layerMember="0">
				<title>Sheet.486</title>
				<g id="shape487-13" v:mID="487" v:groupContext="shape" v:layerMember="0">
					<title>Sheet.487</title>
					<path d="M11.7 75.37 C9.68 75.37 8.02 73.72 8.02 71.7 C8.02 69.67 9.68 68.02 11.7 68.02 C14.32 68.02 15.53 67.8
								 15.97 67.65 C15.98 67.5 15.9 67.35 15.9 67.12 L4.5 67.12 C2.03 67.12 0 65.1 0 62.62 L0 40.87 C0
								 38.4 2.03 36.37 4.5 36.37 L40.5 36.37 C42.98 36.37 45 38.4 45 40.87 L45 62.62 C45 65.1 42.98 67.12
								 40.5 67.12 L29.1 67.12 C29.03 67.35 29.03 67.5 29.03 67.65 C29.55 67.8 30.68 67.95 33.38 68.02 C35.4
								 68.02 37.05 69.67 37.05 71.7 C37.05 73.72 35.4 75.37 33.38 75.37 L11.7 75.37 Z" class="st1"/>
				</g>
				<g id="shape488-15" v:mID="488" v:groupContext="shape" v:layerMember="0" transform="translate(2.25,-2.25)">
					<title>Sheet.488</title>
					<path d="M38.25 40.87 L2.25 40.87 C0.97 40.87 0 41.85 0 43.12 L0 64.87 C0 66.15 0.97 67.12 2.25 67.12 L15.45
								 67.12 C16.72 71.62 16.43 72.37 9.53 72.52 C8.7 72.52 8.1 73.2 8.1 73.95 C8.1 74.77 8.78 75.37 9.53
								 75.37 L31.05 75.37 C31.88 75.37 32.47 74.77 32.47 73.95 C32.47 73.12 31.8 72.52 31.05 72.52 C24.15
								 72.37 23.78 71.62 25.05 67.12 L38.25 67.12 C39.53 67.12 40.5 66.15 40.5 64.87 L40.5 43.12 C40.5
								 41.85 39.53 40.87 38.25 40.87 ZM37.5 64.12 L3 64.12 L3 43.87 L37.5 43.87 L37.5 64.12 Z"
							class="st4"/>
				</g>
			</g>
		</g>
	</g>
</svg>
