<?xml version="1.0" encoding="UTF-8" standalone="no"?>
<!DOCTYPE svg PUBLIC "-//W3C//DTD SVG 1.1//EN" "http://www.w3.org/Graphics/SVG/1.1/DTD/svg11.dtd">
<!-- Generated by Microsoft Visio, SVG Export Administrator.svg Page-1 -->
<svg xmlns="http://www.w3.org/2000/svg" xmlns:xlink="http://www.w3.org/1999/xlink" xmlns:ev="http://www.w3.org/2001/xml-events"
		xmlns:v="http://schemas.microsoft.com/visio/2003/SVGExtensions/" width="1.01563in" height="0.9375in"
		viewBox="0 0 73.125 67.5" xml:space="preserve" color-interpolation-filters="sRGB" class="st3">
	<v:documentProperties v:langID="4108" v:metric="true" v:viewMarkup="false"/>

	<style type="text/css">
	<![CDATA[
		.st1 {fill:#ffffff;stroke:none;stroke-linecap:butt;stroke-width:0.75}
		.st2 {fill:#515150;stroke:none;stroke-linecap:butt;stroke-width:0.75}
		.st3 {fill:none;fill-rule:evenodd;font-size:12px;overflow:visible;stroke-linecap:square;stroke-miterlimit:3}
	]]>
	</style>

	<g v:mID="0" v:index="1" v:groupContext="foregroundPage">
		<title>Page-1</title>
		<v:pageProperties v:drawingScale="0.0393701" v:pageScale="0.0393701" v:drawingUnits="24" v:shadowOffsetX="8.50394"
				v:shadowOffsetY="-8.50394"/>
		<v:layer v:name="symbols" v:index="0"/>
		<g id="group1-1" transform="translate(3.375,-1.6875)" v:mID="1" v:groupContext="group" v:layerMember="0">
			<title>Administrator</title>
			<g id="group2-2" transform="translate(3.19744E-13,-6)" v:mID="2" v:groupContext="group" v:layerMember="0">
				<title>Sheet.2</title>
				<g id="shape3-3" v:mID="3" v:groupContext="shape" v:layerMember="0">
					<title>Sheet.3</title>
					<path d="M50.92 67.5 L50.77 65.1 C50.55 61.42 49.65 53.77 48.82 50.25 C47.92 46.35 46.72 43.65 42.97 41.55 L41.62
								 40.8 C39 39.3 37.87 38.62 36.37 38.62 C35.55 38.62 34.87 38.77 34.13 39.15 L33 39.75 L33.9 39 C36.97
								 36.3 38.92 32.17 38.92 27.52 C39 19.35 32.93 12.75 25.5 12.75 L25.42 12.75 C18 12.75 11.93 19.35
								 11.93 27.52 C11.93 32.17 13.87 36.3 16.95 39 L17.85 39.75 L16.65 39.15 C15.97 38.77 15.23 38.62
								 14.4 38.62 C12.9 38.62 11.7 39.3 9.15 40.8 L7.8 41.55 C4.2 43.72 3 46.35 2.1 50.25 C1.28 53.77 0.45
								 61.42 0.15 65.1 L0 67.5 L50.92 67.5 Z" class="st1"/>
				</g>
				<g id="shape4-5" v:mID="4" v:groupContext="shape" v:layerMember="0" transform="translate(2.625,-2.325)">
					<title>Sheet.4</title>
					<path d="M44.03 53.1 C43.13 49.27 42.15 47.47 39.3 45.9 C36.45 44.25 34.87 43.27 33.82 43.27 C33.38 43.27 33
								 43.35 32.7 43.57 C32.02 44.17 31.27 44.77 30.45 45.22 C30.45 45.22 30.45 45.22 30.45 45.22 C30.3
								 45.3 30.15 45.37 30.07 45.45 C29.25 45.97 28.43 46.27 27.67 46.57 C26.18 47.1 24.6 47.4 22.95 47.4
								 C21.3 47.4 19.72 47.1 18.22 46.57 C17.4 46.35 16.65 45.97 15.83 45.45 C14.85 44.92 13.95 44.25 13.2
								 43.5 C12.9 43.35 12.52 43.2 12.08 43.2 C11.02 43.2 9.9 43.95 6.6 45.82 C3.75 47.47 2.7 49.27 1.87
								 53.02 C1.12 56.32 0.22 63.9 0 67.5 L46.12 67.5 C45.6 63.97 44.77 56.4 44.03 53.1 Z" class="st2"/>
				</g>
				<g id="shape5-7" v:mID="5" v:groupContext="shape" v:layerMember="0" transform="translate(14.175,-27.525)">
					<title>Sheet.5</title>
					<path d="M11.25 67.5 C5.02 67.5 0 61.87 0 54.97 C-0 48.07 5.1 42.52 11.25 42.52 C17.47 42.52 22.5 48.15 22.5
								 55.05 C22.5 61.95 17.47 67.5 11.25 67.5 Z" class="st2"/>
				</g>
			</g>
			<g id="group6-9" transform="translate(40.425,0)" v:mID="6" v:groupContext="group" v:layerMember="0">
				<title>Sheet.6</title>
				<g id="shape7-10" v:mID="7" v:groupContext="shape" v:layerMember="0">
					<title>Sheet.7</title>
					<path d="M18.37 34.65 L16.65 33.75 L16.2 33.75 L15.07 33.75 L14.32 33.75 L12.75 33.75 L7.87 33.75 L6.07 33.75
								 L1.2 33.75 L1.2 39.67 L1.5 42.15 L1.5 50.62 C0.6 51.15 0 52.12 0 53.25 L0 64.5 C0 66.15 1.35 67.5
								 3 67.5 L6 67.5 C6 67.5 6 67.5 6 67.5 L14.62 67.5 C17.32 67.5 19.5 65.32 19.5 62.62 L19.5 47.77 C21.37
								 46.27 22.5 44.02 22.5 41.62 C22.57 38.7 21 36 18.37 34.65 Z" class="st1"/>
				</g>
				<g id="shape8-12" v:mID="8" v:groupContext="shape" v:layerMember="0" transform="translate(2.325,-2.25)">
					<title>Sheet.8</title>
					<path d="M3.75 67.5 C4.2 67.5 4.5 67.2 4.5 66.75 L4.5 55.5 C4.5 55.05 4.2 54.75 3.75 54.75 L3 54.75 L3 44.25
								 L3.3 41.77 L3.3 38.25 L1.2 38.25 L1.2 41.77 L1.5 44.25 L1.5 54.75 L0.75 54.75 C0.3 54.75 0 55.12
								 0 55.5 L0 66.75 C0 67.2 0.37 67.5 0.75 67.5 L3.75 67.5 Z" class="st2"/>
				</g>
				<g id="shape9-14" v:mID="9" v:groupContext="shape" v:layerMember="0" transform="translate(9.075,-2.25)">
					<title>Sheet.9</title>
					<path d="M8.25 38.92 L8.25 43.5 L5.62 45 L3 43.5 L3 38.92 C1.2 39.9 0 41.77 0 43.87 C0 45.97 1.2 47.92 3 48.82
								 L3 64.87 C3 66.3 4.2 67.5 5.62 67.5 C7.05 67.5 8.25 66.3 8.25 64.87 L8.25 48.82 C10.05 47.85 11.25
								 45.97 11.25 43.87 C11.25 41.77 10.05 39.82 8.25 38.92 ZM5.62 66 C5.02 66 4.5 65.47 4.5 64.87 C4.5
								 64.27 5.02 63.75 5.62 63.75 C6.22 63.75 6.75 64.27 6.75 64.87 C6.75 65.47 6.22 66 5.62 66 Z"
							class="st2"/>
				</g>
			</g>
		</g>
	</g>
</svg>
