<?xml version="1.0" encoding="UTF-8" standalone="no"?>
<!DOCTYPE svg PUBLIC "-//W3C//DTD SVG 1.1//EN" "http://www.w3.org/Graphics/SVG/1.1/DTD/svg11.dtd">
<!-- Generated by Microsoft Visio, SVG Export Approver.svg Page-1 -->
<svg xmlns="http://www.w3.org/2000/svg" xmlns:xlink="http://www.w3.org/1999/xlink" xmlns:ev="http://www.w3.org/2001/xml-events"
		xmlns:v="http://schemas.microsoft.com/visio/2003/SVGExtensions/" width="0.990625in" height="0.953125in"
		viewBox="0 0 71.325 68.625" xml:space="preserve" color-interpolation-filters="sRGB" class="st3">
	<v:documentProperties v:langID="4108" v:metric="true" v:viewMarkup="false"/>

	<style type="text/css">
	<![CDATA[
		.st1 {fill:#ffffff;stroke:none;stroke-linecap:butt;stroke-width:0.75}
		.st2 {fill:#505050;stroke:none;stroke-linecap:butt;stroke-width:0.75}
		.st3 {fill:none;fill-rule:evenodd;font-size:12px;overflow:visible;stroke-linecap:square;stroke-miterlimit:3}
	]]>
	</style>

	<g v:mID="0" v:index="1" v:groupContext="foregroundPage">
		<title>Page-1</title>
		<v:pageProperties v:drawingScale="0.0393701" v:pageScale="0.0393701" v:drawingUnits="24" v:shadowOffsetX="8.50394"
				v:shadowOffsetY="-8.50394"/>
		<v:layer v:name="symbols" v:index="0"/>
		<g id="group10-1" transform="translate(3,-6.9375)" v:mID="10" v:groupContext="group" v:layerMember="0">
			<title>Approver</title>
			<g id="group11-2" v:mID="11" v:groupContext="group" v:layerMember="0">
				<title>Sheet.11</title>
				<g id="group12-3" v:mID="12" v:groupContext="group" v:layerMember="0">
					<title>Sheet.12</title>
					<g id="shape13-4" v:mID="13" v:groupContext="shape" v:layerMember="0">
						<title>Sheet.13</title>
						<path d="M50.92 68.62 L50.77 66.22 C50.55 62.55 49.65 54.9 48.82 51.37 C47.92 47.47 46.72 44.77 42.97 42.67
									 L41.62 41.92 C39 40.42 37.87 39.75 36.37 39.75 C35.55 39.75 34.87 39.9 34.12 40.27 L33 40.87
									 L33.9 40.12 C36.97 37.42 38.92 33.3 38.92 28.65 C39 20.47 32.92 13.87 25.5 13.87 L25.42 13.87
									 C18 13.87 11.93 20.47 11.92 28.65 C11.93 33.3 13.87 37.42 16.95 40.12 L17.85 40.87 L16.65 40.27
									 C15.97 39.9 15.22 39.75 14.4 39.75 C12.9 39.75 11.7 40.42 9.15 41.92 L7.8 42.67 C4.12 44.77
									 2.85 47.47 1.95 51.37 C1.13 54.9 0.3 62.55 0 66.22 L0 68.62 L50.92 68.62 Z" class="st1"/>
					</g>
					<g id="shape14-6" v:mID="14" v:groupContext="shape" v:layerMember="0" transform="translate(2.55,-2.325)">
						<title>Sheet.14</title>
						<path d="M44.02 54.22 C43.13 50.4 42.15 48.6 39.3 47.02 C36.45 45.37 34.87 44.4 33.82 44.4 C33.37 44.4 33
									 44.47 32.7 44.7 C32.02 45.3 31.28 45.9 30.45 46.35 C30.3 46.42 30.15 46.5 30.07 46.57 C29.25
									 47.1 28.43 47.4 27.67 47.7 C26.18 48.22 24.6 48.52 22.95 48.52 C21.3 48.52 19.72 48.22 18.22
									 47.7 C17.4 47.47 16.65 47.1 15.82 46.57 C14.85 46.05 13.95 45.37 13.2 44.62 C12.9 44.47 12.52
									 44.32 12.07 44.32 C11.02 44.32 9.9 45.07 6.6 46.95 C3.75 48.6 2.7 50.4 1.88 54.15 C1.12 57.45
									 0.22 65.02 0 68.62 L46.12 68.62 C45.67 65.1 44.77 57.52 44.02 54.22 Z" class="st2"/>
					</g>
					<g id="shape15-8" v:mID="15" v:groupContext="shape" v:layerMember="0" transform="translate(14.175,-27.525)">
						<title>Sheet.15</title>
						<path d="M11.25 68.62 C5.02 68.62 0 63 0 56.1 C0 49.2 5.02 43.65 11.25 43.65 C17.47 43.65 22.5 49.27 22.5
									 56.17 C22.5 63.07 17.47 68.62 11.25 68.62 Z" class="st2"/>
					</g>
				</g>
				<g id="group16-10" transform="translate(43.2,-23.25)" v:mID="16" v:groupContext="group" v:layerMember="0">
					<title>Sheet.16</title>
					<g id="shape17-11" v:mID="17" v:groupContext="shape" v:layerMember="0">
						<title>Sheet.17</title>
						<path d="M13.65 68.62 C12.9 68.62 12.23 68.32 11.7 67.8 L9 65.1 L6.3 67.8 C5.78 68.32 5.1 68.62 4.35 68.62
									 C3.6 68.62 2.93 68.32 2.4 67.8 L0.83 66.22 C0.3 65.7 0 65.02 0 64.27 C0 63.52 0.3 62.85 0.83
									 62.32 L3.53 59.62 L0.83 56.92 C0.3 56.4 0 55.72 0 54.97 C0 54.22 0.3 53.55 0.83 53.02 L2.4 51.45
									 C2.93 50.92 3.6 50.62 4.35 50.62 C5.1 50.62 5.78 50.92 6.3 51.45 L9 54.15 L11.7 51.45 C12.23
									 50.92 12.9 50.62 13.65 50.62 C14.4 50.62 15.08 50.92 15.6 51.45 L17.18 53.02 C17.7 53.55 18
									 54.22 18 54.97 C18 55.72 17.7 56.4 17.18 56.92 L14.55 59.62 L17.25 62.32 C17.78 62.85 18.08
									 63.52 18.08 64.27 C18.08 65.02 17.78 65.7 17.25 66.22 L15.68 67.8 C15.08 68.32 14.4 68.62 13.65
									 68.62 Z" class="st1"/>
					</g>
					<g id="shape18-13" v:mID="18" v:groupContext="shape" v:layerMember="0" transform="translate(2.175,-2.175)">
						<title>Sheet.18</title>
						<path d="M6.83 64.12 L2.55 68.4 C2.33 68.62 2.03 68.62 1.8 68.4 L0.23 66.82 C0 66.6 0 66.3 0.23 66.07 L4.5
									 61.8 L0.23 57.52 C-0 57.3 -0 57 0.23 56.77 L1.8 55.2 C2.03 54.97 2.33 54.97 2.55 55.2 L6.83
									 59.47 L11.1 55.2 C11.33 54.97 11.63 54.97 11.85 55.2 L13.43 56.77 C13.65 57 13.65 57.3 13.43
									 57.52 L9.15 61.8 L13.43 66.07 C13.65 66.3 13.65 66.6 13.43 66.82 L11.85 68.4 C11.63 68.62 11.33
									 68.62 11.1 68.4 L6.83 64.12 Z" class="st2"/>
					</g>
				</g>
				<g id="group19-15" transform="translate(41.625,-37.725)" v:mID="19" v:groupContext="group" v:layerMember="0">
					<title>Sheet.19</title>
					<g id="shape20-16" v:mID="20" v:groupContext="shape" v:layerMember="0">
						<title>Sheet.20</title>
						<path d="M0.97 59.32 C-0 58.2 0.07 56.47 1.12 55.5 L2.85 53.92 C3.38 53.47 3.97 53.25 4.65 53.25 C5.4 53.25
									 6.15 53.55 6.67 54.15 L8.92 56.62 L15.3 48.15 C15.82 47.47 16.65 47.1 17.47 47.1 C18.07 47.1
									 18.67 47.32 19.2 47.7 L21.07 49.2 C21.6 49.65 21.97 50.25 22.05 51 C22.12 51.75 21.97 52.42
									 21.52 53.02 L9.22 68.62 L0.97 59.32 Z" class="st1"/>
					</g>
					<g id="shape21-18" v:mID="21" v:groupContext="shape" v:layerMember="0" transform="translate(2.475,-3.525)">
						<title>Sheet.21</title>
						<path d="M17.25 55.12 L6.67 68.62 L0.15 61.27 C-0 61.05 0 60.75 0.15 60.6 L1.87 59.02 C2.03 58.87 2.32 58.87
									 2.55 59.1 L6.67 63.52 L14.62 53.1 C14.77 52.87 15.07 52.8 15.3 52.95 L17.1 54.45 C17.32 54.6
									 17.4 54.9 17.25 55.12 Z" class="st2"/>
					</g>
				</g>
			</g>
		</g>
	</g>
</svg>
