<?xml version="1.0" encoding="UTF-8" standalone="no"?>
<!DOCTYPE svg PUBLIC "-//W3C//DTD SVG 1.1//EN" "http://www.w3.org/Graphics/SVG/1.1/DTD/svg11.dtd">
<!-- Generated by Microsoft Visio, SVG Export Communications.svg Page-1 -->
<svg xmlns="http://www.w3.org/2000/svg" xmlns:xlink="http://www.w3.org/1999/xlink" xmlns:ev="http://www.w3.org/2001/xml-events"
		xmlns:v="http://schemas.microsoft.com/visio/2003/SVGExtensions/" width="0.90625in" height="1.07812in"
		viewBox="0 0 65.25 77.625" xml:space="preserve" color-interpolation-filters="sRGB" class="st4">
	<v:documentProperties v:langID="4108" v:metric="true" v:viewMarkup="false"/>

	<style type="text/css">
	<![CDATA[
		.st1 {fill:#ffffff;stroke:none;stroke-linecap:butt;stroke-width:0.75}
		.st2 {fill:#515251;stroke:none;stroke-linecap:butt;stroke-width:0.75}
		.st3 {fill:#525352;stroke:none;stroke-linecap:butt;stroke-width:0.75}
		.st4 {fill:none;fill-rule:evenodd;font-size:12px;overflow:visible;stroke-linecap:square;stroke-miterlimit:3}
	]]>
	</style>

	<g v:mID="0" v:index="1" v:groupContext="foregroundPage">
		<title>Page-1</title>
		<v:pageProperties v:drawingScale="0.0393701" v:pageScale="0.0393701" v:drawingUnits="24" v:shadowOffsetX="8.50394"
				v:shadowOffsetY="-8.50394"/>
		<v:layer v:name="symbols" v:index="0"/>
		<g id="group38-1" transform="translate(1.65,-7.6875)" v:mID="38" v:groupContext="group" v:layerMember="0">
			<title>Communications</title>
			<g id="group39-2" v:mID="39" v:groupContext="group" v:layerMember="0">
				<title>Sheet.39</title>
				<g id="group40-3" v:mID="40" v:groupContext="group" v:layerMember="0">
					<title>Sheet.40</title>
					<g id="shape41-4" v:mID="41" v:groupContext="shape" v:layerMember="0">
						<title>Sheet.41</title>
						<path d="M0 77.62 L0.15 75.22 C0.37 71.85 1.2 64.95 1.87 61.8 C2.7 58.2 3.82 55.8 7.2 53.85 L8.4 53.17 C10.8
									 51.82 11.85 51.15 13.27 51.15 C13.65 51.15 14.03 51.22 14.32 51.3 L14.92 51.45 L14.48 51 C12.07
									 48.45 10.72 45 10.72 41.32 C10.72 33.9 16.27 27.82 23.1 27.82 C29.92 27.82 35.55 33.9 35.55
									 41.32 C35.55 45 34.2 48.45 31.8 51 L31.5 51.45 L32.1 51.3 C32.47 51.22 32.77 51.15 33.15 51.15
									 C34.57 51.15 35.62 51.75 38.02 53.17 L39.22 53.85 C42.6 55.8 43.72 58.27 44.55 61.8 C45.3 65.02
									 46.05 71.92 46.27 75.22 L46.5 77.62 L0 77.62 Z" class="st1"/>
					</g>
					<g id="shape42-6" v:mID="42" v:groupContext="shape" v:layerMember="0" transform="translate(2.4,-2.25)">
						<title>Sheet.42</title>
						<path d="M39.97 64.57 C39.22 61.12 38.25 59.47 35.7 58.05 C33.07 56.62 31.65 55.65 30.75 55.65 C30.3 55.65
									 30 55.72 29.7 55.87 C29.1 56.47 28.42 56.92 27.67 57.37 C27.67 57.37 27.67 57.37 27.67 57.37
									 C27.52 57.45 27.45 57.52 27.3 57.6 C26.55 58.05 25.87 58.35 25.12 58.57 C23.78 59.02 22.35 59.32
									 20.85 59.32 C19.35 59.32 17.92 59.02 16.57 58.57 C15.83 58.35 15.15 58.05 14.4 57.6 C13.5 57.07
									 12.75 56.55 12 55.87 C11.7 55.72 11.4 55.65 10.95 55.65 C9.98 55.65 9 56.32 6 58.05 C3.45 59.55
									 2.48 61.12 1.72 64.57 C1.05 67.57 0.22 74.4 0 77.62 L41.7 77.62 C41.47 74.32 40.65 67.57 39.97
									 64.57 Z" class="st2"/>
					</g>
					<g id="shape43-8" v:mID="43" v:groupContext="shape" v:layerMember="0" transform="translate(13.05,-25.05)">
						<title>Sheet.43</title>
						<path d="M10.2 77.62 C4.57 77.62 0 72.52 0 66.3 C-0 60.07 4.57 55.05 10.2 55.05 C15.82 55.05 20.4 60.15 20.4
									 66.37 C20.4 72.6 15.82 77.62 10.2 77.62 Z" class="st2"/>
					</g>
				</g>
				<g id="group44-10" transform="translate(25.5,-28.5)" v:mID="44" v:groupContext="group" v:layerMember="0">
					<title>Sheet.44</title>
					<g id="shape45-11" v:mID="45" v:groupContext="shape" v:layerMember="0">
						<title>Sheet.45</title>
						<path d="M29.25 43.87 L3.75 43.87 C1.65 43.87 0 45.52 0 47.62 L0 66.37 C0 68.47 1.65 70.12 3.75 70.12 L14.25
									 70.12 L14.25 75.37 C14.25 76.35 14.85 77.17 15.75 77.47 C15.97 77.55 16.27 77.62 16.5 77.62
									 C17.18 77.62 17.77 77.32 18.22 76.8 L23.92 70.12 L29.25 70.12 C31.35 70.12 33 68.47 33 66.37
									 L33 47.62 C33 45.52 31.35 43.87 29.25 43.87 Z" class="st1"/>
					</g>
					<g id="shape46-13" v:mID="46" v:groupContext="shape" v:layerMember="0" transform="translate(2.25,-2.25)">
						<title>Sheet.46</title>
						<path d="M27 48.37 L1.5 48.37 C0.67 48.37 0 49.05 0 49.87 L0 68.62 C0 69.45 0.67 70.12 1.5 70.12 L14.25 70.12
									 L14.25 77.62 L20.62 70.12 L27 70.12 C27.82 70.12 28.5 69.45 28.5 68.62 L28.5 49.87 C28.5 49.05
									 27.82 48.37 27 48.37 ZM6.75 55.87 L16.5 55.87 L16.5 57.37 L6.75 57.37 L6.75 55.87 ZM19.5 62.62
									 L6.75 62.62 L6.75 61.12 L19.5 61.12 L19.5 62.62 Z" class="st3"/>
					</g>
				</g>
			</g>
		</g>
	</g>
</svg>
