<?xml version="1.0" encoding="UTF-8" standalone="no"?>
<!DOCTYPE svg PUBLIC "-//W3C//DTD SVG 1.1//EN" "http://www.w3.org/Graphics/SVG/1.1/DTD/svg11.dtd">
<!-- Generated by Microsoft Visio, SVG Export Conferencing Attendant.svg Page-1 -->
<svg xmlns="http://www.w3.org/2000/svg" xmlns:xlink="http://www.w3.org/1999/xlink" xmlns:ev="http://www.w3.org/2001/xml-events"
		xmlns:v="http://schemas.microsoft.com/visio/2003/SVGExtensions/" width="0.921875in" height="1.04687in"
		viewBox="0 0 66.375 75.375" xml:space="preserve" color-interpolation-filters="sRGB" class="st4">
	<v:documentProperties v:langID="4108" v:metric="true" v:viewMarkup="false"/>

	<style type="text/css">
	<![CDATA[
		.st1 {fill:#ffffff;stroke:none;stroke-linecap:butt;stroke-width:0.75}
		.st2 {fill:#515251;stroke:none;stroke-linecap:butt;stroke-width:0.75}
		.st3 {fill:#515050;stroke:none;stroke-linecap:butt;stroke-width:0.75}
		.st4 {fill:none;fill-rule:evenodd;font-size:12px;overflow:visible;stroke-linecap:square;stroke-miterlimit:3}
	]]>
	</style>

	<g v:mID="0" v:index="1" v:groupContext="foregroundPage">
		<title>Page-1</title>
		<v:pageProperties v:drawingScale="0.0393701" v:pageScale="0.0393701" v:drawingUnits="24" v:shadowOffsetX="8.50394"
				v:shadowOffsetY="-8.50394"/>
		<v:layer v:name="symbols" v:index="0"/>
		<g id="group47-1" transform="translate(1.875,-5.0625)" v:mID="47" v:groupContext="group" v:layerMember="0">
			<title>Conferencing Attendant</title>
			<g id="group48-2" transform="translate(0,-3.75)" v:mID="48" v:groupContext="group" v:layerMember="0">
				<title>Sheet.48</title>
				<g id="shape49-3" v:mID="49" v:groupContext="shape" v:layerMember="0">
					<title>Sheet.49</title>
					<path d="M50.77 72.97 C50.55 69.3 49.65 61.65 48.83 58.12 C47.92 54.22 46.73 51.52 42.97 49.42 L41.63 48.67 C39
								 47.17 37.88 46.5 36.37 46.5 C35.55 46.5 34.87 46.65 34.13 47.02 L33 47.62 L33.9 46.87 C34.72 46.12
								 35.55 45.22 36.23 44.25 C38.85 44.1 41.7 41.25 42.3 38.32 C43.05 37.72 43.5 36.75 43.5 35.77 C43.5
								 24.9 35.4 16.12 25.42 16.12 C15.45 16.12 7.35 24.9 7.35 35.77 C7.35 36.75 7.8 37.65 8.47 38.32 L8.47
								 40.05 C8.47 43.05 9.52 45.67 11.1 47.7 C10.57 48 9.9 48.37 9.15 48.82 L7.8 49.57 C4.2 51.6 2.93
								 54.22 2.02 58.12 C1.2 61.65 0.38 69.3 0.07 72.97 L0 75.37 L50.92 75.37 L50.77 72.97 Z" class="st1"/>
				</g>
				<g id="shape50-5" v:mID="50" v:groupContext="shape" v:layerMember="0" transform="translate(2.55,-2.325)">
					<title>Sheet.50</title>
					<path d="M44.03 60.97 C43.13 57.15 42.15 55.35 39.3 53.77 C36.45 52.12 34.88 51.15 33.82 51.15 C33.38 51.15 33
								 51.22 32.7 51.45 C32.03 52.05 31.28 52.65 30.45 53.1 C30.45 53.1 30.45 53.1 30.45 53.1 C30.3 53.17
								 30.15 53.25 30.07 53.32 C29.25 53.85 28.43 54.15 27.68 54.45 C26.18 54.97 24.6 55.27 22.95 55.27
								 C21.3 55.27 19.72 54.97 18.22 54.45 C17.4 54.22 16.65 53.85 15.83 53.32 C14.85 52.8 13.95 52.12
								 13.2 51.37 C12.9 51.22 12.52 51.07 12.08 51.07 C11.02 51.07 9.9 51.82 6.6 53.7 C3.75 55.35 2.7 57.15
								 1.88 60.9 C1.13 64.2 0.23 71.77 0 75.37 L46.13 75.37 C45.67 71.85 44.77 64.27 44.03 60.97 Z"
							class="st2"/>
				</g>
				<g id="shape51-7" v:mID="51" v:groupContext="shape" v:layerMember="0" transform="translate(14.175,-27.525)">
					<title>Sheet.51</title>
					<path d="M11.25 75.37 C5.02 75.37 0 69.75 0 62.85 C-0 55.95 5.02 50.4 11.25 50.4 C17.48 50.4 22.5 56.02 22.5
								 62.92 C22.5 69.82 17.48 75.37 11.25 75.37 Z" class="st2"/>
				</g>
				<g id="shape52-9" v:mID="52" v:groupContext="shape" v:layerMember="0" transform="translate(9.225,-23.85)">
					<title>Sheet.52</title>
					<path d="M11.25 75.37 C5.85 75.37 0 70.72 0 63.82 L0 59.25 L4.05 59.25 L4.05 63.82 C4.05 68.7 8.33 71.32 11.25
								 71.32 L12.75 71.32 L12.75 75.37 L11.25 75.37 Z" class="st1"/>
				</g>
				<g id="shape53-11" v:mID="53" v:groupContext="shape" v:layerMember="0" transform="translate(18.45,-22.95)">
					<title>Sheet.53</title>
					<path d="M3.37 75.37 C1.8 75.37 0 74.25 0 72.52 C0 70.95 1.58 69.6 3.37 69.6 L7.95 69.6 C9.75 69.6 11.33 70.95
								 11.33 72.52 C11.33 74.25 9.6 75.37 7.95 75.37 L3.37 75.37 Z" class="st1"/>
				</g>
				<g id="shape54-13" v:mID="54" v:groupContext="shape" v:layerMember="0" transform="translate(9.3,-31.8)">
					<title>Sheet.54</title>
					<path d="M5.62 75.37 C2.85 75.37 0 71.47 0 68.7 C0 65.02 2.85 63.07 5.62 63.07 C6.45 63.07 7.05 63.45 7.35 63.75
								 C8.1 64.5 8.1 65.62 8.1 66.52 L8.1 71.85 L8.1 72.22 C8.02 72.97 7.95 75.37 5.62 75.37 Z"
							class="st1"/>
				</g>
				<g id="shape55-15" v:mID="55" v:groupContext="shape" v:layerMember="0" transform="translate(33.525,-31.8)">
					<title>Sheet.55</title>
					<path d="M2.48 75.37 C0.07 75.37 0 72.97 0 72.15 L0 71.85 L0 66.6 C0 65.92 -0 65.25 0.23 64.65 C0.6 63.6 1.42
								 63 2.55 63 C5.33 63 8.18 65.25 8.18 68.92 C8.1 71.92 5.1 75.37 2.48 75.37 Z" class="st1"/>
				</g>
				<g id="shape56-17" v:mID="56" v:groupContext="shape" v:layerMember="0" transform="translate(9.225,-23.85)">
					<title>Sheet.56</title>
					<path d="M11.25 75.37 C5.85 75.37 0 70.72 0 63.82 L0 59.25 L4.05 59.25 L4.05 63.82 C4.05 68.7 8.33 71.32 11.25
								 71.32 L12.75 71.32 L12.75 75.37 L11.25 75.37 Z" class="st1"/>
				</g>
				<g id="shape57-19" v:mID="57" v:groupContext="shape" v:layerMember="0" transform="translate(33.525,-31.8)">
					<title>Sheet.57</title>
					<path d="M2.48 75.37 C0.07 75.37 0 72.97 0 72.15 L0 71.85 L0 66.6 C0 65.92 -0 65.25 0.23 64.65 C0.6 63.6 1.42
								 63 2.55 63 C5.33 63 8.18 65.25 8.18 68.92 C8.1 71.92 5.1 75.37 2.48 75.37 Z" class="st1"/>
				</g>
				<g id="shape58-21" v:mID="58" v:groupContext="shape" v:layerMember="0" transform="translate(10.725,-25.35)">
					<title>Sheet.58</title>
					<path d="M9.75 75.37 C5.32 75.37 0 71.47 0 65.32 L0 62.25 L1.05 62.25 L1.05 65.32 C1.05 70.95 5.85 74.32 9.75
								 74.32 L9.75 75.37 Z" class="st3"/>
				</g>
				<g id="shape59-23" v:mID="59" v:groupContext="shape" v:layerMember="0" transform="translate(19.95,-24.45)">
					<title>Sheet.59</title>
					<path d="M6.45 75.37 C7.35 75.37 8.32 74.7 8.32 74.02 C8.32 73.27 7.42 72.6 6.45 72.6 L1.87 72.6 C0.98 72.6 0
								 73.27 0 74.02 C0 74.77 0.9 75.37 1.87 75.37 L6.45 75.37 Z" class="st3"/>
				</g>
				<g id="shape60-25" v:mID="60" v:groupContext="shape" v:layerMember="0" transform="translate(10.8,-33.375)">
					<title>Sheet.60</title>
					<path d="M5.1 68.17 C5.1 67.12 5.17 66.07 4.12 66.07 C2.02 66.07 0 67.5 0 70.2 C-0 72.37 2.4 75.37 4.12 75.37
								 C5.17 75.37 5.02 74.32 5.1 73.27 L5.1 68.17 Z" class="st3"/>
				</g>
				<g id="shape61-27" v:mID="61" v:groupContext="shape" v:layerMember="0" transform="translate(34.95,-33.375)">
					<title>Sheet.61</title>
					<path d="M0 68.17 C0 67.12 -0 66.07 1.05 66.07 C3.15 66.07 5.17 67.8 5.17 70.5 C5.17 72.67 2.77 75.37 1.05 75.37
								 C-0 75.37 0.08 74.32 0 73.27 L0 68.17 Z" class="st3"/>
				</g>
				<g id="shape62-29" v:mID="62" v:groupContext="shape" v:layerMember="0" transform="translate(9.6,-38.475)">
					<title>Sheet.62</title>
					<path d="M30.53 75.37 C29.93 75.37 29.4 74.85 29.4 74.25 C29.4 65.85 23.33 59.1 15.83 59.1 C8.33 59.1 2.25 65.85
								 2.25 74.25 C2.25 74.85 1.73 75.37 1.12 75.37 C0.52 75.37 0 74.85 0 74.25 C0 64.65 7.12 56.85 15.83
								 56.85 C24.53 56.85 31.65 64.65 31.65 74.25 C31.65 74.85 31.13 75.37 30.53 75.37 Z" class="st2"/>
				</g>
			</g>
			<g id="group63-31" transform="translate(29.25,0)" v:mID="63" v:groupContext="group" v:layerMember="0">
				<title>Sheet.63</title>
				<g id="shape64-32" v:mID="64" v:groupContext="shape" v:layerMember="0">
					<title>Sheet.64</title>
					<path d="M8.1 75.37 C6.07 75.37 4.27 74.77 2.55 73.65 L2.33 73.5 L2.18 73.35 C1.5 72.82 0.9 72.15 0.6 71.32 L0.53
								 71.17 C0 69.67 0.3 67.72 1.27 66.3 L3.15 63.52 C4.27 61.95 5.85 61.05 7.35 61.05 C7.57 61.05 7.87
								 61.05 8.1 61.12 C8.7 61.27 9.3 61.5 9.83 61.87 L11.25 62.92 L17.1 54.67 L15.67 53.7 C15.15 53.32
								 14.78 52.87 14.47 52.35 C13.58 50.77 13.8 48.67 15 46.95 L17.02 44.17 C18 42.82 19.73 41.85 21.3
								 41.85 L21.45 41.85 C22.35 41.85 23.18 42.15 23.92 42.6 L24.3 42.82 C25.95 44.02 27.07 45.6 27.75
								 47.47 C28.95 50.85 28.42 54.97 26.4 58.72 C26.17 59.25 25.05 61.42 23.18 64.2 L22.42 65.25 C20.4
								 68.02 18.75 69.75 18.3 70.2 C15.45 73.57 11.78 75.37 8.1 75.37 Z" class="st1"/>
				</g>
				<g id="shape65-34" v:mID="65" v:groupContext="shape" v:layerMember="0" transform="translate(2.475,-2.25)">
					<title>Sheet.65</title>
					<path d="M18.08 66.37 C15.97 69.22 14.17 71.02 14.17 71.02 C11.7 73.8 8.63 75.37 5.7 75.37 C4.13 75.37 2.7 74.92
								 1.42 74.02 L1.2 73.95 L1.05 73.8 C0.67 73.57 0.45 73.2 0.3 72.75 C0.3 72.75 0.3 72.67 0.3 72.67
								 C0 71.85 0.22 70.72 0.75 69.9 L2.62 67.12 C3.37 66.15 4.42 65.55 5.25 65.7 C5.55 65.77 5.77 65.85
								 6.07 66.07 L7.72 67.27 C8.63 67.87 9.82 67.65 10.42 66.82 L16.57 58.12 C17.17 57.22 16.95 56.02
								 16.12 55.42 L14.47 54.22 C14.25 54.07 14.03 53.85 13.87 53.55 C13.42 52.8 13.65 51.6 14.33 50.55
								 L16.35 47.85 C16.95 47.02 17.92 46.42 18.83 46.5 C18.83 46.5 18.9 46.5 18.9 46.5 C19.35 46.5 19.8
								 46.65 20.1 46.87 L20.25 47.02 L20.4 47.1 C21.67 48 22.57 49.2 23.1 50.7 C24.07 53.47 23.62 56.92
								 21.82 60.15 C21.83 60.22 20.7 62.47 18.75 65.4 L18.08 66.37 Z" class="st2"/>
				</g>
			</g>
		</g>
	</g>
</svg>
