<?xml version="1.0" encoding="UTF-8" standalone="no"?>
<!DOCTYPE svg PUBLIC "-//W3C//DTD SVG 1.1//EN" "http://www.w3.org/Graphics/SVG/1.1/DTD/svg11.dtd">
<!-- Generated by Microsoft Visio, SVG Export Credentials.svg Page-1 -->
<svg xmlns="http://www.w3.org/2000/svg" xmlns:xlink="http://www.w3.org/1999/xlink" xmlns:ev="http://www.w3.org/2001/xml-events"
		xmlns:v="http://schemas.microsoft.com/visio/2003/SVGExtensions/" width="0.961719in" height="0.984375in"
		viewBox="0 0 69.2438 70.875" xml:space="preserve" color-interpolation-filters="sRGB" class="st4">
	<v:documentProperties v:langID="4108" v:metric="true" v:viewMarkup="false"/>

	<style type="text/css">
	<![CDATA[
		.st1 {fill:#ffffff;stroke:none;stroke-linecap:butt;stroke-width:0.75}
		.st2 {fill:#515251;stroke:none;stroke-linecap:butt;stroke-width:0.75}
		.st3 {fill:#515150;stroke:none;stroke-linecap:butt;stroke-width:0.75}
		.st4 {fill:none;fill-rule:evenodd;font-size:12px;overflow:visible;stroke-linecap:square;stroke-miterlimit:3}
	]]>
	</style>

	<g v:mID="0" v:index="1" v:groupContext="foregroundPage">
		<title>Page-1</title>
		<v:pageProperties v:drawingScale="0.0393701" v:pageScale="0.0393701" v:drawingUnits="24" v:shadowOffsetX="8.50394"
				v:shadowOffsetY="-8.50394"/>
		<v:layer v:name="symbols" v:index="0"/>
		<g id="group66-1" transform="translate(5.83125,-1.6875)" v:mID="66" v:groupContext="group" v:layerMember="0">
			<title>Credentials</title>
			<g id="group67-2" v:mID="67" v:groupContext="group" v:layerMember="0">
				<title>Sheet.67</title>
				<g id="group68-3" transform="translate(3.03757E-13,-8.25)" v:mID="68" v:groupContext="group" v:layerMember="0">
					<title>Sheet.68</title>
					<g id="shape69-4" v:mID="69" v:groupContext="shape" v:layerMember="0">
						<title>Sheet.69</title>
						<path d="M50.92 70.88 L50.77 68.48 C50.55 64.8 49.65 57.15 48.82 53.63 C47.92 49.73 46.73 47.03 42.97 44.93
									 L41.62 44.18 C39 42.68 37.88 42 36.37 42 C35.55 42 34.87 42.15 34.13 42.53 L33 43.13 L33.9 42.38
									 C36.97 39.68 38.93 35.55 38.93 30.9 C39 22.73 32.93 16.13 25.5 16.13 L25.42 16.13 C18 16.13
									 11.93 22.73 11.93 30.9 C11.93 35.55 13.87 39.68 16.95 42.38 L17.85 43.13 L16.65 42.53 C15.97
									 42.15 15.23 42 14.4 42 C12.9 42 11.7 42.68 9.15 44.18 L7.8 44.93 C4.2 47.1 3 49.73 2.1 53.63
									 C1.28 57.15 0.45 64.8 0.15 68.48 L0 70.88 L50.92 70.88 Z" class="st1"/>
					</g>
					<g id="shape70-6" v:mID="70" v:groupContext="shape" v:layerMember="0" transform="translate(2.625,-2.325)">
						<title>Sheet.70</title>
						<path d="M44.03 56.48 C43.13 52.65 42.15 50.85 39.3 49.28 C36.45 47.63 34.88 46.65 33.82 46.65 C33.38 46.65
									 33 46.73 32.7 46.95 C32.02 47.55 31.27 48.15 30.45 48.6 C30.45 48.6 30.45 48.6 30.45 48.6 C30.3
									 48.68 30.15 48.75 30.07 48.83 C29.25 49.35 28.43 49.65 27.67 49.95 C26.18 50.48 24.6 50.78 22.95
									 50.78 C21.3 50.78 19.72 50.48 18.22 49.95 C17.4 49.73 16.65 49.35 15.83 48.83 C14.85 48.3 13.95
									 47.63 13.2 46.88 C12.9 46.73 12.52 46.58 12.08 46.58 C11.02 46.58 9.9 47.33 6.6 49.2 C3.75 50.85
									 2.7 52.65 1.87 56.4 C1.12 59.7 0.23 67.28 0 70.88 L46.13 70.88 C45.6 67.35 44.77 59.78 44.03
									 56.48 Z" class="st2"/>
					</g>
					<g id="shape71-8" v:mID="71" v:groupContext="shape" v:layerMember="0" transform="translate(14.175,-27.525)">
						<title>Sheet.71</title>
						<path d="M11.25 70.88 C5.02 70.88 0 65.25 0 58.35 C0 51.45 5.1 45.9 11.25 45.9 C17.47 45.9 22.5 51.53 22.5
									 58.43 C22.5 65.33 17.47 70.88 11.25 70.88 Z" class="st2"/>
					</g>
				</g>
				<g id="group72-10" transform="translate(29.1,0)" v:mID="72" v:groupContext="group" v:layerMember="0">
					<title>Sheet.72</title>
					<g id="shape73-11" v:mID="73" v:groupContext="shape" v:layerMember="0">
						<title>Sheet.73</title>
						<path d="M16.12 70.88 C7.2 70.88 0 63.68 0 54.75 C0 45.83 7.2 38.63 16.12 38.63 C25.05 38.63 32.25 45.83
									 32.25 54.75 C32.25 63.68 24.97 70.88 16.12 70.88 Z" class="st1"/>
					</g>
					<g id="shape74-13" v:mID="74" v:groupContext="shape" v:layerMember="0" transform="translate(2.25,-2.25)">
						<title>Sheet.74</title>
						<path d="M13.87 43.13 C6.15 43.13 0 49.35 0 57 C0 64.65 6.15 70.88 13.87 70.88 C21.53 70.88 27.75 64.65 27.75
									 57 C27.75 49.35 21.53 43.13 13.87 43.13 ZM22.57 51.3 L11.92 64.88 L5.4 57.45 C5.25 57.23 5.25
									 56.93 5.4 56.78 L7.13 55.2 C7.27 55.05 7.57 55.05 7.8 55.28 L11.92 59.78 L19.95 49.13 C20.1
									 48.9 20.4 48.9 20.62 49.05 L22.42 50.55 C22.65 50.78 22.72 51.08 22.57 51.3 Z" class="st3"/>
					</g>
				</g>
			</g>
		</g>
	</g>
</svg>
