<?xml version="1.0" encoding="UTF-8" standalone="no"?>
<!DOCTYPE svg PUBLIC "-//W3C//DTD SVG 1.1//EN" "http://www.w3.org/Graphics/SVG/1.1/DTD/svg11.dtd">
<!-- Generated by Microsoft Visio, SVG Export CSV File.svg Page-1 -->
<svg xmlns="http://www.w3.org/2000/svg" xmlns:xlink="http://www.w3.org/1999/xlink" xmlns:ev="http://www.w3.org/2001/xml-events"
		xmlns:v="http://schemas.microsoft.com/visio/2003/SVGExtensions/" width="1.01562in" height="0.828125in"
		viewBox="0 0 73.125 59.625" xml:space="preserve" color-interpolation-filters="sRGB" class="st3">
	<v:documentProperties v:langID="4108" v:metric="true" v:viewMarkup="false"/>

	<style type="text/css">
	<![CDATA[
		.st1 {fill:#ffffff;stroke:none;stroke-linecap:butt;stroke-width:0.75}
		.st2 {fill:#505050;stroke:none;stroke-linecap:butt;stroke-width:0.75}
		.st3 {fill:none;fill-rule:evenodd;font-size:12px;overflow:visible;stroke-linecap:square;stroke-miterlimit:3}
	]]>
	</style>

	<g v:mID="0" v:index="1" v:groupContext="foregroundPage">
		<title>Page-1</title>
		<v:pageProperties v:drawingScale="0.0393701" v:pageScale="0.0393701" v:drawingUnits="24" v:shadowOffsetX="8.50394"
				v:shadowOffsetY="-8.50394"/>
		<v:layer v:name="symbols" v:index="0"/>
		<g id="group75-1" transform="translate(8.7375,-4.6875)" v:mID="75" v:groupContext="group" v:layerMember="0">
			<title>CSV File</title>
			<g id="group76-2" v:mID="76" v:groupContext="group" v:layerMember="0">
				<title>Sheet.76</title>
				<g id="group77-3" transform="translate(0,-6.75)" v:mID="77" v:groupContext="group" v:layerMember="0">
					<title>Sheet.77</title>
					<g id="shape78-4" v:mID="78" v:groupContext="shape" v:layerMember="0">
						<title>Sheet.78</title>
						<path d="M5.25 59.62 C2.32 59.62 0 57.3 0 54.37 L0 23.62 C0 20.7 2.32 18.37 5.25 18.37 L47.25 18.37 C50.18
									 18.37 52.5 20.7 52.5 23.62 L52.5 54.37 C52.5 57.3 50.18 59.62 47.25 59.62 L5.25 59.62 Z"
								class="st1"/>
					</g>
					<g id="shape79-6" v:mID="79" v:groupContext="shape" v:layerMember="0" transform="translate(2.25,-2.25)">
						<title>Sheet.79</title>
						<path d="M45 22.87 L3 22.87 C1.35 22.87 0 24.22 0 25.87 L0 56.62 C0 58.27 1.35 59.62 3 59.62 L45 59.62 C46.65
									 59.62 48 58.27 48 56.62 L48 25.87 C48 24.22 46.65 22.87 45 22.87 ZM23.25 31.87 L23.25 37.12
									 L13.5 37.12 L13.5 31.87 L23.25 31.87 ZM13.5 30.37 L13.5 25.12 L23.25 25.12 L23.25 30.37 L13.5
									 30.37 ZM23.25 38.62 L23.25 43.87 L13.5 43.87 L13.5 38.62 L23.25 38.62 ZM12 37.12 L2.25 37.12
									 L2.25 31.87 L12 31.87 L12 37.12 ZM12 38.62 L12 43.87 L2.25 43.87 L2.25 38.62 L12 38.62 ZM12
									 45.37 L12 50.62 L2.25 50.62 L2.25 45.37 L12 45.37 ZM13.5 45.37 L23.25 45.37 L23.25 50.62 L13.5
									 50.62 L13.5 45.37 ZM23.25 52.12 L23.25 57.37 L13.5 57.37 L13.5 52.12 L23.25 52.12 ZM24.75 52.12
									 L34.5 52.12 L34.5 57.37 L24.75 57.37 L24.75 52.12 ZM24.75 50.62 L24.75 45.37 L34.5 45.37 L34.5
									 50.62 L24.75 50.62 ZM24.75 43.87 L24.75 38.62 L34.5 38.62 L34.5 43.87 L24.75 43.87 ZM24.75 37.12
									 L24.75 31.87 L34.5 31.87 L34.5 37.12 L24.75 37.12 ZM24.75 30.37 L24.75 25.12 L34.5 25.12 L34.5
									 30.37 L24.75 30.37 ZM3 25.12 L12 25.12 L12 30.37 L2.25 30.37 L2.25 25.87 C2.25 25.5 2.63 25.12
									 3 25.12 ZM2.25 56.62 L2.25 52.12 L12 52.12 L12 57.37 L3 57.37 C2.63 57.37 2.25 57 2.25 56.62
									 ZM45.75 56.62 C45.75 57 45.38 57.37 45 57.37 L36 57.37 L36 52.12 L45.75 52.12 L45.75 56.62 ZM45.75
									 50.62 L36 50.62 L36 45.37 L45.75 45.37 L45.75 50.62 ZM45.75 43.87 L36 43.87 L36 38.62 L45.75
									 38.62 L45.75 43.87 ZM45.75 37.12 L36 37.12 L36 31.87 L45.75 31.87 L45.75 37.12 ZM45.75 30.37
									 L36 30.37 L36 25.12 L45 25.12 C45.38 25.12 45.75 25.5 45.75 25.87 L45.75 30.37 Z" class="st2"/>
					</g>
				</g>
				<g id="group80-8" transform="translate(32.25,0)" v:mID="80" v:groupContext="group" v:layerMember="0">
					<title>Sheet.80</title>
					<g id="shape81-9" v:mID="81" v:groupContext="shape" v:layerMember="0">
						<title>Sheet.81</title>
						<path d="M31.12 57.22 C30.97 55.05 30.45 50.62 30 48.52 C29.4 46.05 28.57 44.25 26.18 42.9 C25.87 42.75 25.57
									 42.6 25.35 42.45 C24.3 41.85 23.47 41.4 22.72 41.17 C23.77 39.6 24.38 37.72 24.38 35.62 C24.38
									 30.45 20.48 26.17 15.68 26.17 C10.88 26.17 6.97 30.37 6.98 35.62 C6.97 37.72 7.57 39.6 8.63
									 41.17 C7.88 41.32 7.13 41.77 5.85 42.45 L5.1 42.9 C2.7 44.25 1.88 46.05 1.28 48.52 C0.82 50.62
									 0.3 55.05 0.15 57.22 L0 59.62 L31.27 59.62 L31.12 57.22 Z" class="st1"/>
					</g>
					<g id="shape82-11" v:mID="82" v:groupContext="shape" v:layerMember="0" transform="translate(2.55,-2.25)">
						<title>Sheet.82</title>
						<path d="M25.27 51.3 C24.75 49.12 24.15 48.07 22.58 47.17 C20.92 46.27 20.02 45.67 19.43 45.67 C19.12 45.67
									 18.98 45.75 18.75 45.82 C18.38 46.2 17.93 46.5 17.47 46.8 C17.48 46.8 17.48 46.8 17.47 46.8
									 C17.4 46.87 17.32 46.87 17.25 46.95 C16.8 47.25 16.35 47.4 15.82 47.55 C15 47.85 14.1 48 13.12
									 48 C12.15 48 11.25 47.85 10.42 47.55 C9.98 47.4 9.53 47.17 9.07 46.95 C8.55 46.65 8.02 46.27
									 7.57 45.82 C7.43 45.75 7.2 45.67 6.9 45.67 C6.3 45.67 5.63 46.12 3.75 47.17 C2.1 48.07 1.5 49.12
									 1.05 51.3 C0.6 53.17 0.08 57.52 0 59.62 L26.47 59.62 C26.17 57.52 25.72 53.25 25.27 51.3 Z"
								class="st2"/>
					</g>
					<g id="shape83-13" v:mID="83" v:groupContext="shape" v:layerMember="0" transform="translate(9.225,-16.725)">
						<title>Sheet.83</title>
						<path d="M6.45 59.62 C2.85 59.62 0 56.4 0 52.42 C0 48.45 2.93 45.22 6.45 45.22 C10.05 45.22 12.9 48.45 12.9
									 52.42 C12.9 56.4 9.98 59.62 6.45 59.62 Z" class="st2"/>
					</g>
				</g>
			</g>
		</g>
	</g>
</svg>
