<?xml version="1.0" encoding="UTF-8" standalone="no"?>
<!DOCTYPE svg PUBLIC "-//W3C//DTD SVG 1.1//EN" "http://www.w3.org/Graphics/SVG/1.1/DTD/svg11.dtd">
<!-- Generated by Microsoft Visio, SVG Export Distribution Group.svg Page-1 -->
<svg xmlns="http://www.w3.org/2000/svg" xmlns:xlink="http://www.w3.org/1999/xlink" xmlns:ev="http://www.w3.org/2001/xml-events"
		xmlns:v="http://schemas.microsoft.com/visio/2003/SVGExtensions/" width="1.03359in" height="1in" viewBox="0 0 74.4187 72"
		xml:space="preserve" color-interpolation-filters="sRGB" class="st4">
	<v:documentProperties v:langID="4108" v:metric="true" v:viewMarkup="false"/>

	<style type="text/css">
	<![CDATA[
		.st1 {fill:#ffffff;stroke:none;stroke-linecap:butt;stroke-width:0.75}
		.st2 {fill:#515251;stroke:none;stroke-linecap:butt;stroke-width:0.75}
		.st3 {fill:#515050;stroke:none;stroke-linecap:butt;stroke-width:0.75}
		.st4 {fill:none;fill-rule:evenodd;font-size:12px;overflow:visible;stroke-linecap:square;stroke-miterlimit:3}
	]]>
	</style>

	<g v:mID="0" v:index="1" v:groupContext="foregroundPage">
		<title>Page-1</title>
		<v:pageProperties v:drawingScale="0.0393701" v:pageScale="0.0393701" v:drawingUnits="24" v:shadowOffsetX="8.50394"
				v:shadowOffsetY="-8.50394"/>
		<v:layer v:name="symbols" v:index="0"/>
		<g id="group84-1" transform="translate(5.23125,-6.9375)" v:mID="84" v:groupContext="group" v:layerMember="0">
			<title>Distribution Group</title>
			<g id="group85-2" v:mID="85" v:groupContext="group" v:layerMember="0">
				<title>Sheet.85</title>
				<g id="group86-3" transform="translate(0,-15.825)" v:mID="86" v:groupContext="group" v:layerMember="0">
					<title>Sheet.86</title>
					<g id="group87-4" transform="translate(24.75,-7.95)" v:mID="87" v:groupContext="group" v:layerMember="0">
						<title>Sheet.87</title>
						<g id="shape88-5" v:mID="88" v:groupContext="shape" v:layerMember="0">
							<title>Sheet.88</title>
							<path d="M0 72 L0.15 69.6 C0.3 66.97 0.98 61.57 1.5 59.02 C2.17 56.1 3.07 54.07 5.92 52.5 L6.9 51.97
										 C8.85 50.85 9.75 50.32 10.95 50.32 C11.62 50.32 12.23 50.47 12.82 50.77 L13.05 50.92 L13.27
										 51.07 C13.72 51.52 14.25 51.9 14.78 52.12 C15.22 52.42 15.6 52.57 16.05 52.72 L16.12 52.72
										 C16.95 53.02 17.85 53.17 18.67 53.17 C19.58 53.17 20.4 53.02 21.22 52.72 C21.75 52.57 22.13
										 52.42 22.5 52.12 L22.72 51.97 L22.95 51.82 C23.32 51.6 23.7 51.3 24 51 L24.22 50.85 L24.45
										 50.7 C25.05 50.4 25.65 50.25 26.32 50.25 C27.52 50.25 28.57 50.85 30.3 51.82 C30.6 51.97
										 30.97 52.2 31.35 52.42 C34.2 54 35.1 56.02 35.77 59.02 C36.37 61.57 36.97 66.97 37.12 69.6
										 L37.27 72 L0 72 Z" class="st1"/>
						</g>
						<g id="shape89-7" v:mID="89" v:groupContext="shape" v:layerMember="0" transform="translate(2.325,-2.25)">
							<title>Sheet.89</title>
							<path d="M31.27 61.8 C30.67 59.1 29.92 57.82 27.9 56.7 C25.87 55.57 24.75 54.82 24 54.82 C23.7 54.82
										 23.4 54.9 23.17 55.05 C22.65 55.5 22.12 55.87 21.6 56.25 C21.6 56.25 21.6 56.25 21.6 56.25
										 C21.53 56.32 21.45 56.4 21.3 56.4 C20.7 56.77 20.18 57 19.57 57.15 C18.6 57.52 17.47 57.75
										 16.35 57.75 C15.15 57.75 14.1 57.52 13.05 57.15 C12.45 57 11.92 56.7 11.33 56.4 C10.65 56.02
										 10.05 55.57 9.45 55.05 C9.23 54.9 9 54.82 8.63 54.82 C7.88 54.82 7.12 55.35 4.72 56.7 C2.7
										 57.82 2.02 59.1 1.35 61.8 C0.83 64.12 0.22 69.45 0 72 L32.55 72 C32.47 69.45 31.8 64.12
										 31.27 61.8 Z" class="st2"/>
						</g>
						<g id="shape90-9" v:mID="90" v:groupContext="shape" v:layerMember="0" transform="translate(8.475,-17.85)">
							<title>Sheet.90</title>
							<path d="M10.2 72 C4.57 72 0 67.05 0 60.9 C0 54.82 4.57 49.87 10.2 49.87 C15.82 49.87 20.4 54.82 20.4
										 60.97 C20.4 67.05 15.82 72 10.2 72 Z" class="st1"/>
						</g>
						<g id="shape91-11" v:mID="91" v:groupContext="shape" v:layerMember="0" transform="translate(10.725,-20.1)">
							<title>Sheet.91</title>
							<path d="M7.95 72 C3.6 72 0 68.02 0 63.15 C-0 58.35 3.53 54.37 7.95 54.37 C12.3 54.37 15.9 58.35 15.9
										 63.22 C15.9 68.1 12.3 72 7.95 72 Z" class="st2"/>
						</g>
					</g>
					<g id="group92-13" v:mID="92" v:groupContext="group" v:layerMember="0">
						<title>Sheet.92</title>
						<g id="shape93-14" v:mID="93" v:groupContext="shape" v:layerMember="0">
							<title>Sheet.93</title>
							<path d="M0 72 L0.15 69.6 C0.3 66.97 0.9 61.57 1.5 59.02 C2.17 56.1 3.15 54.07 5.92 52.5 L6.9 51.97 C8.85
										 50.85 9.75 50.32 10.95 50.32 C11.63 50.32 12.23 50.47 12.82 50.77 L13.05 50.92 L13.27 51.07
										 C13.72 51.52 14.25 51.9 14.78 52.12 C15.22 52.42 15.6 52.57 16.05 52.72 L16.12 52.72 C16.95
										 53.02 17.85 53.17 18.67 53.17 C19.58 53.17 20.4 53.02 21.22 52.72 C21.75 52.57 22.13 52.42
										 22.5 52.12 L22.72 51.97 L22.95 51.82 C23.32 51.6 23.7 51.3 24 51 L24.22 50.85 L24.45 50.7
										 C25.05 50.4 25.65 50.25 26.32 50.25 C27.52 50.25 28.57 50.85 30.3 51.82 C30.6 51.97 30.97
										 52.2 31.35 52.42 C34.2 54 35.1 56.02 35.77 59.02 C36.37 61.57 36.97 66.97 37.12 69.6 L37.27
										 72 L0 72 Z" class="st1"/>
						</g>
						<g id="shape94-16" v:mID="94" v:groupContext="shape" v:layerMember="0" transform="translate(2.325,-2.25)">
							<title>Sheet.94</title>
							<path d="M31.27 61.8 C30.67 59.1 29.92 57.82 27.9 56.7 C25.87 55.57 24.75 54.82 24 54.82 C23.7 54.82
										 23.4 54.9 23.17 55.05 C22.65 55.5 22.12 55.87 21.6 56.25 C21.6 56.25 21.6 56.25 21.6 56.25
										 C21.53 56.32 21.45 56.4 21.3 56.4 C20.7 56.77 20.17 57 19.57 57.15 C18.52 57.52 17.4 57.75
										 16.27 57.75 C15.08 57.75 14.03 57.52 12.98 57.15 C12.37 57 11.85 56.7 11.25 56.4 C10.58
										 56.02 9.98 55.57 9.37 55.05 C9.15 54.9 8.93 54.82 8.55 54.82 C7.8 54.82 7.05 55.35 4.65
										 56.7 C2.7 57.82 2.02 59.1 1.35 61.8 C0.83 64.12 0.23 69.45 0 72 L32.55 72 C32.47 69.45 31.8
										 64.12 31.27 61.8 Z" class="st2"/>
						</g>
						<g id="shape95-18" v:mID="95" v:groupContext="shape" v:layerMember="0" transform="translate(8.475,-17.85)">
							<title>Sheet.95</title>
							<path d="M10.2 72 C4.57 72 0 67.05 0 60.9 C0 54.75 4.57 49.87 10.2 49.87 C15.82 49.87 20.4 54.82 20.4
										 60.97 C20.4 67.12 15.82 72 10.2 72 Z" class="st1"/>
						</g>
						<g id="shape96-20" v:mID="96" v:groupContext="shape" v:layerMember="0" transform="translate(10.725,-20.1)">
							<title>Sheet.96</title>
							<path d="M7.95 72 C3.6 72 0 68.02 0 63.15 C0 58.27 3.6 54.3 7.95 54.3 C12.3 54.3 15.9 58.27 15.9 63.15
										 C15.9 68.02 12.3 72 7.95 72 Z" class="st2"/>
						</g>
					</g>
				</g>
				<g id="group97-22" transform="translate(27.675,-3.12639E-13)" v:mID="97" v:groupContext="group" v:layerMember="0">
					<title>Sheet.97</title>
					<g id="shape98-23" v:mID="98" v:groupContext="shape" v:layerMember="0">
						<title>Sheet.98</title>
						<rect x="0" y="43.5" width="35.25" height="28.5" class="st1"/>
					</g>
					<g id="group99-25" transform="translate(2.25,-2.25)" v:mID="99" v:groupContext="group" v:layerMember="0">
						<title>Sheet.99</title>
						<g id="shape100-26" v:mID="100" v:groupContext="shape" v:layerMember="0">
							<title>Sheet.100</title>
							<rect x="0" y="48" width="30.75" height="24" class="st1"/>
						</g>
						<g id="shape101-28" v:mID="101" v:groupContext="shape" v:layerMember="0">
							<title>Sheet.101</title>
							<path d="M29.25 49.5 L29.25 70.5 L1.5 70.5 L1.5 49.5 L29.25 49.5 ZM30.75 48 L0 48 L0 72 L30.75 72 L30.75
										 48 Z" class="st3"/>
						</g>
					</g>
					<g id="shape102-30" v:mID="102" v:groupContext="shape" v:layerMember="0" transform="translate(8.25,-12.75)">
						<title>Sheet.102</title>
						<rect x="0" y="70.5" width="13.5" height="1.5" class="st3"/>
					</g>
					<g id="shape103-32" v:mID="103" v:groupContext="shape" v:layerMember="0" transform="translate(8.25,-8.25)">
						<title>Sheet.103</title>
						<rect x="0" y="70.5" width="17.25" height="1.5" class="st3"/>
					</g>
					<g id="shape104-34" v:mID="104" v:groupContext="shape" v:layerMember="0" transform="translate(25.5,-18)">
						<title>Sheet.104</title>
						<rect x="0" y="67.5" width="3.75" height="4.5" class="st3"/>
					</g>
				</g>
			</g>
		</g>
	</g>
</svg>
