<?xml version="1.0" encoding="UTF-8" standalone="no"?>
<!DOCTYPE svg PUBLIC "-//W3C//DTD SVG 1.1//EN" "http://www.w3.org/Graphics/SVG/1.1/DTD/svg11.dtd">
<!-- Generated by Microsoft Visio, SVG Export Dynamic Distribution Group.svg Page-1 -->
<svg xmlns="http://www.w3.org/2000/svg" xmlns:xlink="http://www.w3.org/1999/xlink" xmlns:ev="http://www.w3.org/2001/xml-events"
		xmlns:v="http://schemas.microsoft.com/visio/2003/SVGExtensions/" width="1.03047in" height="1in" viewBox="0 0 74.1938 72"
		xml:space="preserve" color-interpolation-filters="sRGB" class="st4">
	<v:documentProperties v:langID="4108" v:metric="true" v:viewMarkup="false"/>

	<style type="text/css">
	<![CDATA[
		.st1 {fill:#ffffff;stroke:none;stroke-linecap:butt;stroke-width:0.75}
		.st2 {fill:#515251;stroke:none;stroke-linecap:butt;stroke-width:0.75}
		.st3 {fill:#515050;stroke:none;stroke-linecap:butt;stroke-width:0.75}
		.st4 {fill:none;fill-rule:evenodd;font-size:12px;overflow:visible;stroke-linecap:square;stroke-miterlimit:3}
	]]>
	</style>

	<g v:mID="0" v:index="1" v:groupContext="foregroundPage">
		<title>Page-1</title>
		<v:pageProperties v:drawingScale="0.0393701" v:pageScale="0.0393701" v:drawingUnits="24" v:shadowOffsetX="8.50394"
				v:shadowOffsetY="-8.50394"/>
		<v:layer v:name="symbols" v:index="0"/>
		<g id="group105-1" transform="translate(5.04375,-6.9375)" v:mID="105" v:groupContext="group" v:layerMember="0">
			<title>Dynamic Distribution Group</title>
			<g id="group106-2" transform="translate(24.75,-23.775)" v:mID="106" v:groupContext="group" v:layerMember="0">
				<title>Sheet.106</title>
				<g id="shape107-3" v:mID="107" v:groupContext="shape" v:layerMember="0">
					<title>Sheet.107</title>
					<path d="M0 72 L0.15 69.6 C0.3 66.97 0.98 61.57 1.5 59.02 C2.18 56.1 3.08 54.07 5.92 52.5 L6.9 51.97 C8.85 50.85
								 9.75 50.32 10.95 50.32 C11.62 50.32 12.23 50.47 12.83 50.77 L13.05 50.92 L13.27 51.07 C13.73 51.52
								 14.25 51.9 14.78 52.12 C15.22 52.42 15.6 52.57 16.05 52.72 L16.12 52.72 C16.95 53.02 17.85 53.17
								 18.67 53.17 C19.58 53.17 20.4 53.02 21.22 52.72 C21.75 52.57 22.13 52.42 22.5 52.12 L22.73 51.97
								 L22.95 51.82 C23.33 51.6 23.7 51.3 24 51 L24.23 50.85 L24.45 50.7 C25.05 50.4 25.65 50.25 26.32
								 50.25 C27.53 50.25 28.57 50.85 30.3 51.82 C30.6 51.97 30.98 52.2 31.35 52.42 C34.2 54 35.1 56.02
								 35.78 59.02 C36.38 61.57 36.98 66.97 37.12 69.6 L37.28 72 L0 72 Z" class="st1"/>
				</g>
				<g id="shape108-5" v:mID="108" v:groupContext="shape" v:layerMember="0" transform="translate(2.325,-2.25)">
					<title>Sheet.108</title>
					<path d="M31.28 61.8 C30.68 59.1 29.93 57.82 27.9 56.7 C25.88 55.57 24.75 54.82 24 54.82 C23.7 54.82 23.4 54.9
								 23.18 55.05 C22.65 55.5 22.13 55.87 21.6 56.25 C21.6 56.25 21.6 56.25 21.6 56.25 C21.53 56.32 21.45
								 56.4 21.3 56.4 C20.7 56.77 20.18 57 19.57 57.15 C18.6 57.52 17.47 57.75 16.35 57.75 C15.15 57.75
								 14.1 57.52 13.05 57.15 C12.45 57 11.93 56.7 11.33 56.4 C10.65 56.02 10.05 55.57 9.45 55.05 C9.23
								 54.9 9 54.82 8.63 54.82 C7.88 54.82 7.13 55.35 4.73 56.7 C2.7 57.82 2.03 59.1 1.35 61.8 C0.83 64.12
								 0.22 69.45 0 72 L32.55 72 C32.48 69.45 31.8 64.12 31.28 61.8 Z" class="st2"/>
				</g>
				<g id="shape109-7" v:mID="109" v:groupContext="shape" v:layerMember="0" transform="translate(8.475,-17.85)">
					<title>Sheet.109</title>
					<path d="M10.2 72 C4.57 72 0 67.05 0 60.9 C0 54.82 4.57 49.87 10.2 49.87 C15.83 49.87 20.4 54.82 20.4 60.97 C20.4
								 67.05 15.83 72 10.2 72 Z" class="st1"/>
				</g>
				<g id="shape110-9" v:mID="110" v:groupContext="shape" v:layerMember="0" transform="translate(10.725,-20.1)">
					<title>Sheet.110</title>
					<path d="M7.95 72 C3.6 72 0 68.02 0 63.15 C0 58.35 3.53 54.37 7.95 54.37 C12.3 54.37 15.9 58.35 15.9 63.22 C15.9
								 68.1 12.3 72 7.95 72 Z" class="st2"/>
				</g>
			</g>
			<g id="group111-11" transform="translate(-3.15747E-13,-15.825)" v:mID="111" v:groupContext="group" v:layerMember="0">
				<title>Sheet.111</title>
				<g id="shape112-12" v:mID="112" v:groupContext="shape" v:layerMember="0">
					<title>Sheet.112</title>
					<path d="M0 72 L0.15 69.6 C0.3 66.97 0.9 61.57 1.5 59.02 C2.18 56.1 3.15 54.07 5.92 52.5 L6.9 51.97 C8.85 50.85
								 9.75 50.32 10.95 50.32 C11.63 50.32 12.23 50.47 12.83 50.77 L13.05 50.92 L13.27 51.07 C13.73 51.52
								 14.25 51.9 14.78 52.12 C15.22 52.42 15.6 52.57 16.05 52.72 L16.12 52.72 C16.95 53.02 17.85 53.17
								 18.67 53.17 C19.58 53.17 20.4 53.02 21.22 52.72 C21.75 52.57 22.13 52.42 22.5 52.12 L22.73 51.97
								 L22.95 51.82 C23.33 51.6 23.7 51.3 24 51 L24.23 50.85 L24.45 50.7 C25.05 50.4 25.65 50.25 26.32
								 50.25 C27.53 50.25 28.57 50.85 30.3 51.82 C30.6 51.97 30.98 52.2 31.35 52.42 C34.2 54 35.1 56.02
								 35.78 59.02 C36.38 61.57 36.98 66.97 37.12 69.6 L37.28 72 L0 72 Z" class="st1"/>
				</g>
				<g id="shape113-14" v:mID="113" v:groupContext="shape" v:layerMember="0" transform="translate(2.325,-2.25)">
					<title>Sheet.113</title>
					<path d="M31.28 61.8 C30.68 59.1 29.93 57.82 27.9 56.7 C25.88 55.57 24.75 54.82 24 54.82 C23.7 54.82 23.4 54.9
								 23.18 55.05 C22.65 55.5 22.13 55.87 21.6 56.25 C21.6 56.25 21.6 56.25 21.6 56.25 C21.53 56.32 21.45
								 56.4 21.3 56.4 C20.7 56.77 20.17 57 19.57 57.15 C18.52 57.52 17.4 57.75 16.28 57.75 C15.08 57.75
								 14.03 57.52 12.98 57.15 C12.37 57 11.85 56.7 11.25 56.4 C10.58 56.02 9.98 55.57 9.37 55.05 C9.15
								 54.9 8.93 54.82 8.55 54.82 C7.8 54.82 7.05 55.35 4.65 56.7 C2.7 57.82 2.03 59.1 1.35 61.8 C0.83
								 64.12 0.23 69.45 0 72 L32.55 72 C32.48 69.45 31.8 64.12 31.28 61.8 Z" class="st2"/>
				</g>
				<g id="shape114-16" v:mID="114" v:groupContext="shape" v:layerMember="0" transform="translate(8.475,-17.85)">
					<title>Sheet.114</title>
					<path d="M10.2 72 C4.57 72 0 67.05 0 60.9 C0 54.75 4.57 49.87 10.2 49.87 C15.83 49.87 20.4 54.82 20.4 60.97 C20.4
								 67.12 15.83 72 10.2 72 Z" class="st1"/>
				</g>
				<g id="shape115-18" v:mID="115" v:groupContext="shape" v:layerMember="0" transform="translate(10.725,-20.1)">
					<title>Sheet.115</title>
					<path d="M7.95 72 C3.6 72 0 68.02 0 63.15 C0 58.27 3.6 54.3 7.95 54.3 C12.3 54.3 15.9 58.27 15.9 63.15 C15.9
								 68.02 12.3 72 7.95 72 Z" class="st2"/>
				</g>
			</g>
			<g id="group116-20" transform="translate(27.675,-3.12639E-13)" v:mID="116" v:groupContext="group" v:layerMember="0">
				<title>Sheet.116</title>
				<g id="shape117-21" v:mID="117" v:groupContext="shape" v:layerMember="0">
					<title>Sheet.117</title>
					<rect x="0" y="43.5" width="35.25" height="28.5" class="st1"/>
				</g>
				<g id="group118-23" transform="translate(2.25,-2.25)" v:mID="118" v:groupContext="group" v:layerMember="0">
					<title>Sheet.118</title>
					<g id="shape119-24" v:mID="119" v:groupContext="shape" v:layerMember="0">
						<title>Sheet.119</title>
						<rect x="0" y="48" width="30.75" height="24" class="st1"/>
					</g>
					<g id="shape120-26" v:mID="120" v:groupContext="shape" v:layerMember="0">
						<title>Sheet.120</title>
						<path d="M29.25 49.5 L29.25 70.5 L1.5 70.5 L1.5 49.5 L29.25 49.5 ZM30.75 48 L0 48 L0 72 L30.75 72 L30.75
									 48 Z" class="st3"/>
					</g>
				</g>
				<g id="shape121-28" v:mID="121" v:groupContext="shape" v:layerMember="0" transform="translate(8.25,-12.75)">
					<title>Sheet.121</title>
					<rect x="0" y="70.5" width="13.5" height="1.5" class="st3"/>
				</g>
				<g id="shape122-30" v:mID="122" v:groupContext="shape" v:layerMember="0" transform="translate(8.25,-8.25)">
					<title>Sheet.122</title>
					<rect x="0" y="70.5" width="17.25" height="1.5" class="st3"/>
				</g>
				<g id="shape123-32" v:mID="123" v:groupContext="shape" v:layerMember="0" transform="translate(25.5,-18)">
					<title>Sheet.123</title>
					<rect x="0" y="67.5" width="3.75" height="4.5" class="st3"/>
				</g>
			</g>
			<g id="shape124-34" v:mID="124" v:groupContext="shape" v:layerMember="0" transform="translate(3.675,3.2685E-13)">
				<title>Sheet.124</title>
				<path d="M21.68 49.5 L12 49.5 L12 52.27 L15.9 56.25 L0 56.25 L0 65.17 L15.9 65.17 L12 69.07 L12 72 L21.45 72 L32.7
							 60.67 L21.68 49.5 Z" class="st1"/>
			</g>
			<g id="shape125-36" v:mID="125" v:groupContext="shape" v:layerMember="0" transform="translate(5.925,-2.25)">
				<title>Sheet.125</title>
				<path d="M18.45 54 L12.37 54 L19.05 60.75 L0 60.75 L0 65.17 L19.05 65.17 L12.22 72 L18.3 72 L27.3 62.92 L18.45 54
							 Z" class="st3"/>
			</g>
		</g>
	</g>
</svg>
