<?xml version="1.0" encoding="UTF-8" standalone="no"?>
<!DOCTYPE svg PUBLIC "-//W3C//DTD SVG 1.1//EN" "http://www.w3.org/Graphics/SVG/1.1/DTD/svg11.dtd">
<!-- Generated by Microsoft Visio, SVG Export Mail User.svg Page-1 -->
<svg xmlns="http://www.w3.org/2000/svg" xmlns:xlink="http://www.w3.org/1999/xlink" xmlns:ev="http://www.w3.org/2001/xml-events"
		xmlns:v="http://schemas.microsoft.com/visio/2003/SVGExtensions/" width="1.01172in" height="1.0625in"
		viewBox="0 0 72.8438 76.5" xml:space="preserve" color-interpolation-filters="sRGB" class="st4">
	<v:documentProperties v:langID="4108" v:metric="true" v:viewMarkup="false"/>

	<style type="text/css">
	<![CDATA[
		.st1 {fill:#ffffff;stroke:none;stroke-linecap:butt;stroke-width:0.75}
		.st2 {fill:#515251;stroke:none;stroke-linecap:butt;stroke-width:0.75}
		.st3 {fill:#515050;stroke:none;stroke-linecap:butt;stroke-width:0.75}
		.st4 {fill:none;fill-rule:evenodd;font-size:12px;overflow:visible;stroke-linecap:square;stroke-miterlimit:3}
	]]>
	</style>

	<g v:mID="0" v:index="1" v:groupContext="foregroundPage">
		<title>Page-1</title>
		<v:pageProperties v:drawingScale="0.0393701" v:pageScale="0.0393701" v:drawingUnits="24" v:shadowOffsetX="8.50394"
				v:shadowOffsetY="-8.50394"/>
		<v:layer v:name="symbols" v:index="0"/>
		<g id="group126-1" transform="translate(5.00625,-6.9375)" v:mID="126" v:groupContext="group" v:layerMember="0">
			<title>Mail User</title>
			<g id="group127-2" transform="translate(3.19744E-13,-9)" v:mID="127" v:groupContext="group" v:layerMember="0">
				<title>Sheet.127</title>
				<g id="shape128-3" v:mID="128" v:groupContext="shape" v:layerMember="0">
					<title>Sheet.128</title>
					<path d="M50.92 76.5 L50.77 74.1 C50.55 70.42 49.65 62.77 48.82 59.25 C47.92 55.35 46.72 52.65 42.97 50.55 L41.62
								 49.8 C39 48.3 37.87 47.62 36.37 47.62 C35.55 47.62 34.87 47.77 34.13 48.15 L33 48.75 L33.9 48 C36.97
								 45.3 38.92 41.17 38.92 36.52 C39 28.35 32.92 21.75 25.5 21.75 L25.42 21.75 C18 21.75 11.93 28.35
								 11.92 36.52 C11.93 41.17 13.87 45.3 16.95 48 L17.85 48.75 L16.65 48.15 C15.97 47.77 15.22 47.62
								 14.4 47.62 C12.9 47.62 11.7 48.3 9.15 49.8 L7.8 50.55 C4.2 52.72 2.92 55.35 2.02 59.25 C1.2 62.77
								 0.37 70.42 0.07 74.1 L0 76.5 L50.92 76.5 Z" class="st1"/>
				</g>
				<g id="shape129-5" v:mID="129" v:groupContext="shape" v:layerMember="0" transform="translate(2.55,-2.325)">
					<title>Sheet.129</title>
					<path d="M44.03 62.1 C43.13 58.27 42.15 56.47 39.3 54.9 C36.45 53.25 34.87 52.27 33.82 52.27 C33.38 52.27 33
								 52.35 32.7 52.57 C32.02 53.17 31.27 53.77 30.45 54.22 C30.45 54.22 30.45 54.22 30.45 54.22 C30.3
								 54.3 30.15 54.37 30.07 54.45 C29.25 54.97 28.43 55.27 27.67 55.57 C26.18 56.1 24.6 56.4 22.95 56.4
								 C21.3 56.4 19.72 56.1 18.22 55.57 C17.4 55.35 16.65 54.97 15.83 54.45 C14.85 53.92 13.95 53.25 13.2
								 52.5 C12.9 52.35 12.52 52.2 12.08 52.2 C11.02 52.2 9.9 52.95 6.6 54.82 C3.75 56.47 2.7 58.27 1.87
								 62.02 C1.12 65.32 0.22 72.9 0 76.5 L46.12 76.5 C45.67 72.97 44.77 65.4 44.03 62.1 Z" class="st2"/>
				</g>
				<g id="shape130-7" v:mID="130" v:groupContext="shape" v:layerMember="0" transform="translate(14.175,-27.525)">
					<title>Sheet.130</title>
					<path d="M11.25 76.5 C5.02 76.5 0 70.87 0 63.97 C-0 57.07 5.02 51.52 11.25 51.52 C17.47 51.52 22.5 57.15 22.5
								 64.05 C22.5 70.95 17.47 76.5 11.25 76.5 Z" class="st2"/>
				</g>
			</g>
			<g id="group131-9" transform="translate(27.675,-3.2685E-13)" v:mID="131" v:groupContext="group" v:layerMember="0">
				<title>Sheet.131</title>
				<g id="shape132-10" v:mID="132" v:groupContext="shape" v:layerMember="0">
					<title>Sheet.132</title>
					<rect x="0" y="48" width="35.25" height="28.5" class="st1"/>
				</g>
				<g id="group133-12" transform="translate(2.25,-2.25)" v:mID="133" v:groupContext="group" v:layerMember="0">
					<title>Sheet.133</title>
					<g id="shape134-13" v:mID="134" v:groupContext="shape" v:layerMember="0">
						<title>Sheet.134</title>
						<rect x="0" y="52.5" width="30.75" height="24" class="st1"/>
					</g>
					<g id="shape135-15" v:mID="135" v:groupContext="shape" v:layerMember="0">
						<title>Sheet.135</title>
						<path d="M29.25 54 L29.25 75 L1.5 75 L1.5 54 L29.25 54 ZM30.75 52.5 L0 52.5 L0 76.5 L30.75 76.5 L30.75 52.5
									 Z" class="st3"/>
					</g>
				</g>
				<g id="shape136-17" v:mID="136" v:groupContext="shape" v:layerMember="0" transform="translate(8.25,-12.75)">
					<title>Sheet.136</title>
					<rect x="0" y="75" width="13.5" height="1.5" class="st3"/>
				</g>
				<g id="shape137-19" v:mID="137" v:groupContext="shape" v:layerMember="0" transform="translate(8.25,-8.25)">
					<title>Sheet.137</title>
					<rect x="0" y="75" width="17.25" height="1.5" class="st3"/>
				</g>
				<g id="shape138-21" v:mID="138" v:groupContext="shape" v:layerMember="0" transform="translate(25.5,-18)">
					<title>Sheet.138</title>
					<rect x="0" y="72" width="3.75" height="4.5" class="st3"/>
				</g>
			</g>
		</g>
	</g>
</svg>
