<?xml version="1.0" encoding="UTF-8" standalone="no"?>
<!DOCTYPE svg PUBLIC "-//W3C//DTD SVG 1.1//EN" "http://www.w3.org/Graphics/SVG/1.1/DTD/svg11.dtd">
<!-- Generated by Microsoft Visio, SVG Export Meeting.svg Page-1 -->
<svg xmlns="http://www.w3.org/2000/svg" xmlns:xlink="http://www.w3.org/1999/xlink" xmlns:ev="http://www.w3.org/2001/xml-events"
		xmlns:v="http://schemas.microsoft.com/visio/2003/SVGExtensions/" width="1.09375in" height="0.84375in"
		viewBox="0 0 78.75 60.75" xml:space="preserve" color-interpolation-filters="sRGB" class="st5">
	<v:documentProperties v:langID="4108" v:metric="true" v:viewMarkup="false"/>

	<style type="text/css">
	<![CDATA[
		.st1 {fill:#ffffff}
		.st2 {stroke:none;stroke-linecap:butt;stroke-width:0.75}
		.st3 {fill:#ffffff;stroke:none;stroke-linecap:butt;stroke-width:0.75}
		.st4 {fill:#515251;stroke:none;stroke-linecap:butt;stroke-width:0.75}
		.st5 {fill:none;fill-rule:evenodd;font-size:12px;overflow:visible;stroke-linecap:square;stroke-miterlimit:3}
	]]>
	</style>

	<g v:mID="0" v:index="1" v:groupContext="foregroundPage">
		<title>Page-1</title>
		<v:pageProperties v:drawingScale="0.0393701" v:pageScale="0.0393701" v:drawingUnits="24" v:shadowOffsetX="8.50394"
				v:shadowOffsetY="-8.50394"/>
		<v:layer v:name="symbols" v:index="0"/>
		<g id="group139-1" transform="translate(7.5,-9.4875)" v:mID="139" v:groupContext="group" v:layerMember="0">
			<title>Meeting</title>
			<g id="shape140-2" v:mID="140" v:groupContext="shape" v:layerMember="0" transform="translate(0,-7.5)">
				<title>Sheet.140</title>
				<path d="M0 60.75 L24.15 60.75 L24 58.35 C23.92 56.78 23.47 53.48 23.17 51.9 C22.72 50.03 22.05 48.53 20.1 47.4 L19.5
							 47.03 C18.45 46.43 17.62 45.98 16.65 45.98 C16.12 45.98 15.6 46.13 15.07 46.35 L14.85 46.5 L14.62 46.65
							 C14.55 46.73 14.4 46.88 14.25 46.95 L14.17 46.95 L13.87 47.18 L13.8 47.18 C13.65 47.25 13.5 47.33 13.2
							 47.4 C12.82 47.55 12.37 47.63 11.92 47.63 C11.47 47.63 11.1 47.55 10.57 47.4 C10.42 47.33 10.2 47.25
							 9.97 47.1 C9.75 46.95 9.45 46.8 9.22 46.58 L9.22 46.5 L9 46.35 C8.55 46.13 8.02 45.98 7.42 45.98 C6.45
							 45.98 5.7 46.35 4.57 47.1 L4.05 47.4 C2.1 48.53 1.42 50.03 0.97 51.9 L0 60.75 Z" class="st1"/>
				<path d="M0 60.75 L24.15 60.75 L24 58.35 C23.92 56.78 23.47 53.48 23.17 51.9 C22.72 50.03 22.05 48.53 20.1 47.4 L19.5
							 47.03 C18.45 46.43 17.62 45.98 16.65 45.98 C16.12 45.98 15.6 46.13 15.07 46.35 L14.85 46.5 L14.62 46.65
							 C14.55 46.73 14.4 46.88 14.25 46.95 L14.17 46.95 L13.87 47.18 L13.8 47.18 C13.65 47.25 13.5 47.33 13.2
							 47.4 C12.82 47.55 12.37 47.63 11.92 47.63 C11.47 47.63 11.1 47.55 10.57 47.4 C10.42 47.33 10.2 47.25
							 9.97 47.1 C9.75 46.95 9.45 46.8 9.22 46.58 L9.22 46.5 L9 46.35 C8.55 46.13 8.02 45.98 7.42 45.98 C6.45
							 45.98 5.7 46.35 4.57 47.1 L4.05 47.4 C2.1 48.53 1.42 50.03 0.97 51.9" class="st2"/>
			</g>
			<g id="shape141-5" v:mID="141" v:groupContext="shape" v:layerMember="0" transform="translate(39.6,-7.5)">
				<title>Sheet.141</title>
				<path d="M24.15 59.33 L24.07 58.35 C24 56.78 23.55 53.48 23.25 51.9 C22.8 50.03 22.12 48.53 20.17 47.4 L19.57 47.03
							 C18.52 46.43 17.7 45.98 16.8 45.98 C16.27 45.98 15.75 46.13 15.22 46.35 L14.92 46.5 L14.7 46.65 C14.55
							 46.8 14.32 46.95 14.1 47.1 L13.95 47.25 C13.8 47.33 13.57 47.4 13.35 47.48 C12.97 47.63 12.52 47.7 12.07
							 47.7 C11.62 47.7 11.25 47.63 10.72 47.48 C10.57 47.4 10.35 47.33 10.12 47.18 C9.9 47.03 9.6 46.88 9.37
							 46.65 L9.3 46.5 L9.07 46.35 C8.62 46.13 8.1 45.98 7.5 45.98 C6.52 45.98 5.77 46.35 4.65 47.1 L4.05 47.4
							 C2.1 48.53 1.43 50.03 0.98 51.9 C0.6 53.48 0.23 56.78 0.15 58.35 L0 60.75 L24.15 60.75 L24.15 59.33
							 Z" class="st3"/>
			</g>
			<g id="group142-7" transform="translate(20.025,-17.25)" v:mID="142" v:groupContext="group" v:layerMember="0">
				<title>Sheet.142</title>
				<g id="shape143-8" v:mID="143" v:groupContext="shape" v:layerMember="0">
					<title>Sheet.143</title>
					<path d="M0 60.75 L0.15 58.35 C0.23 56.78 0.67 53.48 0.97 51.9 C1.42 50.03 2.1 48.53 4.05 47.4 L4.65 47.1 C5.85
								 46.43 6.52 45.98 7.5 45.98 C8.02 45.98 8.55 46.13 9.07 46.35 L9.3 46.5 L9.52 46.65 C9.75 46.88 9.97
								 47.03 10.27 47.18 C10.5 47.33 10.65 47.4 10.87 47.48 C11.32 47.63 11.77 47.7 12.22 47.7 C12.67 47.7
								 13.05 47.63 13.5 47.48 C13.72 47.4 13.95 47.33 14.1 47.25 L14.17 47.18 L14.32 47.1 C14.55 46.95
								 14.7 46.8 14.92 46.65 L15.15 46.5 L15.37 46.35 C15.82 46.13 16.35 45.98 16.95 45.98 C17.92 45.98
								 18.67 46.43 19.8 47.03 L20.4 47.4 C22.35 48.53 23.02 50.03 23.47 51.9 C23.85 53.48 24.22 56.78 24.3
								 58.35 L24.22 60.75 L0 60.75 Z" class="st3"/>
				</g>
				<g id="shape144-10" v:mID="144" v:groupContext="shape" v:layerMember="0" transform="translate(2.4,-2.25)">
					<title>Sheet.144</title>
					<path d="M18.6 54.68 C18.22 53.1 17.77 52.28 16.57 51.6 C15.37 50.93 14.7 50.48 14.25 50.48 C14.02 50.48 13.87
								 50.55 13.8 50.63 C13.5 50.93 13.2 51.15 12.82 51.3 C12.82 51.3 12.82 51.3 12.82 51.3 C12.75 51.3
								 12.75 51.38 12.67 51.38 C12.3 51.6 12 51.75 11.62 51.83 C11.02 52.05 10.35 52.2 9.67 52.2 C9 52.2
								 8.32 52.05 7.72 51.83 C7.35 51.75 7.05 51.6 6.67 51.38 C6.3 51.15 5.92 50.85 5.55 50.55 C5.4 50.48
								 5.25 50.4 5.1 50.4 C4.65 50.4 4.2 50.7 2.77 51.53 C1.57 52.2 1.12 52.95 0.75 54.6 C0.45 56.03 0.08
								 59.25 0 60.75 L19.42 60.75 C19.27 59.25 18.97 56.03 18.6 54.68 Z" class="st4"/>
				</g>
				<g id="shape145-12" v:mID="145" v:groupContext="shape" v:layerMember="0" transform="translate(5.1,-10.65)">
					<title>Sheet.145</title>
					<path d="M6.97 60.75 C3.15 60.75 0 57.38 0 53.25 C-0 49.13 3.15 45.75 6.97 45.75 C10.8 45.75 13.95 49.13 13.95
								 53.25 C13.95 57.38 10.87 60.75 6.97 60.75 Z" class="st3"/>
				</g>
				<g id="shape146-14" v:mID="146" v:groupContext="shape" v:layerMember="0" transform="translate(7.35,-12.9)">
					<title>Sheet.146</title>
					<path d="M4.72 60.75 C2.1 60.75 0 58.35 0 55.5 C-0 52.58 2.1 50.25 4.72 50.25 C7.35 50.25 9.45 52.65 9.45 55.5
								 C9.52 58.35 7.35 60.75 4.72 60.75 Z" class="st4"/>
				</g>
			</g>
			<g id="group147-16" transform="translate(2.325,-9.75)" v:mID="147" v:groupContext="group" v:layerMember="0">
				<title>Sheet.147</title>
				<g id="shape148-17" v:mID="148" v:groupContext="shape" v:layerMember="0">
					<title>Sheet.148</title>
					<path d="M18.6 54.68 C18.22 53.1 17.77 52.28 16.57 51.6 C15.37 50.93 14.7 50.48 14.25 50.48 C14.02 50.48 13.87
								 50.55 13.8 50.63 C13.5 50.93 13.2 51.15 12.82 51.3 C12.82 51.3 12.82 51.3 12.82 51.3 C12.75 51.3
								 12.75 51.38 12.67 51.38 C12.3 51.6 12 51.75 11.62 51.83 C11.02 52.05 10.35 52.2 9.67 52.2 C9 52.2
								 8.32 52.05 7.73 51.83 C7.35 51.75 7.05 51.6 6.67 51.38 C6.3 51.15 5.93 50.85 5.55 50.55 C5.4 50.48
								 5.25 50.4 5.1 50.4 C4.65 50.4 4.2 50.7 2.77 51.53 C1.57 52.2 1.12 52.95 0.75 54.6 C0.45 56.03 0.08
								 59.25 0 60.75 L19.42 60.75 C19.35 59.25 18.97 56.03 18.6 54.68 Z" class="st4"/>
				</g>
				<g id="shape149-19" v:mID="149" v:groupContext="shape" v:layerMember="0" transform="translate(2.7,-8.4)">
					<title>Sheet.149</title>
					<path d="M6.97 60.75 C3.15 60.75 0 57.38 0 53.25 C-0 49.13 3.15 45.75 6.97 45.75 C10.8 45.75 13.95 49.13 13.95
								 53.25 C13.95 57.38 10.88 60.75 6.97 60.75 Z" class="st3"/>
				</g>
				<g id="shape150-21" v:mID="150" v:groupContext="shape" v:layerMember="0" transform="translate(4.95,-10.65)">
					<title>Sheet.150</title>
					<path d="M4.72 60.75 C2.1 60.75 0 58.35 0 55.5 C-0 52.58 2.1 50.25 4.72 50.25 C7.35 50.25 9.45 52.65 9.45 55.5
								 C9.52 58.35 7.35 60.75 4.72 60.75 Z" class="st4"/>
				</g>
			</g>
			<g id="group151-23" transform="translate(42,-9.75)" v:mID="151" v:groupContext="group" v:layerMember="0">
				<title>Sheet.151</title>
				<g id="shape152-24" v:mID="152" v:groupContext="shape" v:layerMember="0">
					<title>Sheet.152</title>
					<path d="M18.67 54.68 C18.3 53.1 17.85 52.28 16.65 51.6 C15.45 50.93 14.77 50.48 14.32 50.48 C14.1 50.48 13.95
								 50.55 13.87 50.63 C13.57 50.93 13.27 51.15 12.9 51.3 C12.9 51.3 12.9 51.3 12.9 51.3 C12.82 51.3
								 12.82 51.38 12.75 51.38 C12.37 51.6 12.07 51.75 11.7 51.83 C11.1 52.05 10.43 52.2 9.75 52.2 C9.08
								 52.2 8.4 52.05 7.8 51.83 C7.42 51.75 7.13 51.6 6.75 51.38 C6.38 51.15 6 50.85 5.62 50.55 C5.47 50.48
								 5.33 50.4 5.18 50.4 C4.72 50.4 4.27 50.7 2.85 51.53 C1.65 52.2 1.2 52.95 0.83 54.6 C0.45 56.03 0.08
								 59.25 0 60.75 L19.42 60.75 C19.35 59.25 18.97 56.03 18.67 54.68 Z" class="st4"/>
				</g>
				<g id="shape153-26" v:mID="153" v:groupContext="shape" v:layerMember="0" transform="translate(2.775,-8.4)">
					<title>Sheet.153</title>
					<path d="M6.97 60.75 C3.15 60.75 0 57.38 0 53.25 C-0 49.13 3.15 45.75 6.97 45.75 C10.8 45.75 13.95 49.13 13.95
								 53.25 C13.95 57.38 10.8 60.75 6.97 60.75 Z" class="st3"/>
				</g>
				<g id="shape154-28" v:mID="154" v:groupContext="shape" v:layerMember="0" transform="translate(5.025,-10.65)">
					<title>Sheet.154</title>
					<path d="M4.73 60.75 C2.1 60.75 0 58.35 0 55.5 C-0 52.58 2.1 50.25 4.73 50.25 C7.35 50.25 9.45 52.65 9.45 55.5
								 C9.45 58.35 7.28 60.75 4.73 60.75 Z" class="st4"/>
				</g>
			</g>
			<g id="shape155-30" v:mID="155" v:groupContext="shape" v:layerMember="0" transform="translate(9,7.10543E-15)">
				<title>Sheet.155</title>
				<path d="M0 60.75 L0 54.83 L11.55 38.25 L34.2 38.25 L45 54.83 L45 60.75 L0 60.75 Z" class="st3"/>
			</g>
			<g id="shape156-32" v:mID="156" v:groupContext="shape" v:layerMember="0" transform="translate(11.25,-2.25)">
				<title>Sheet.156</title>
				<path d="M0 57.75 L0 60.75 L40.5 60.75 L40.5 57.75 L30.75 42.75 L10.5 42.75 L0 57.75 Z" class="st4"/>
			</g>
		</g>
	</g>
</svg>
