<?xml version="1.0" encoding="UTF-8" standalone="no"?>
<!DOCTYPE svg PUBLIC "-//W3C//DTD SVG 1.1//EN" "http://www.w3.org/Graphics/SVG/1.1/DTD/svg11.dtd">
<!-- Generated by Microsoft Visio, SVG Export Mobile User.svg Page-1 -->
<svg xmlns="http://www.w3.org/2000/svg" xmlns:xlink="http://www.w3.org/1999/xlink" xmlns:ev="http://www.w3.org/2001/xml-events"
		xmlns:v="http://schemas.microsoft.com/visio/2003/SVGExtensions/" width="1.01172in" height="1in" viewBox="0 0 72.8438 72"
		xml:space="preserve" color-interpolation-filters="sRGB" class="st3">
	<v:documentProperties v:langID="4108" v:metric="true" v:viewMarkup="false"/>

	<style type="text/css">
	<![CDATA[
		.st1 {fill:#ffffff;stroke:none;stroke-linecap:butt;stroke-width:0.75}
		.st2 {fill:#505050;stroke:none;stroke-linecap:butt;stroke-width:0.75}
		.st3 {fill:none;fill-rule:evenodd;font-size:12px;overflow:visible;stroke-linecap:square;stroke-miterlimit:3}
	]]>
	</style>

	<g v:mID="0" v:index="1" v:groupContext="foregroundPage">
		<title>Page-1</title>
		<v:pageProperties v:drawingScale="0.0393701" v:pageScale="0.0393701" v:drawingUnits="24" v:shadowOffsetX="8.50394"
				v:shadowOffsetY="-8.50394"/>
		<v:layer v:name="symbols" v:index="0"/>
		<g id="group157-1" transform="translate(4.55625,-5.0625)" v:mID="157" v:groupContext="group" v:layerMember="0">
			<title>Mobile User</title>
			<g id="group158-2" v:mID="158" v:groupContext="group" v:layerMember="0">
				<title>Sheet.158</title>
				<g id="group159-3" transform="translate(1.9984E-13,-6)" v:mID="159" v:groupContext="group" v:layerMember="0">
					<title>Sheet.159</title>
					<g id="shape160-4" v:mID="160" v:groupContext="shape" v:layerMember="0">
						<title>Sheet.160</title>
						<path d="M50.92 72 L50.77 69.6 C50.55 65.92 49.65 58.28 48.82 54.75 C47.92 50.85 46.72 48.15 42.97 46.05
									 L41.62 45.3 C39 43.8 37.87 43.13 36.37 43.13 C35.55 43.13 34.87 43.27 34.12 43.65 L33 44.25
									 L33.9 43.5 C36.97 40.8 38.92 36.68 38.92 32.03 C39 23.85 32.92 17.25 25.5 17.25 L25.42 17.25
									 C18 17.25 11.93 23.85 11.92 32.03 C11.93 36.68 13.87 40.8 16.95 43.5 L17.85 44.25 L16.65 43.65
									 C15.97 43.27 15.23 43.13 14.4 43.13 C12.9 43.13 11.7 43.8 9.15 45.3 L7.8 46.05 C4.12 48.15 2.85
									 50.85 1.95 54.75 C1.13 58.28 0.3 65.92 0 69.6 L0 72 L50.92 72 Z" class="st1"/>
					</g>
					<g id="shape161-6" v:mID="161" v:groupContext="shape" v:layerMember="0" transform="translate(2.55,-2.325)">
						<title>Sheet.161</title>
						<path d="M44.02 57.6 C43.13 53.77 42.15 51.98 39.3 50.4 C36.45 48.75 34.87 47.77 33.82 47.77 C33.38 47.78
									 33 47.85 32.7 48.07 C32.02 48.67 31.28 49.27 30.45 49.72 C30.3 49.8 30.15 49.88 30.07 49.95
									 C29.25 50.47 28.43 50.77 27.67 51.07 C26.18 51.6 24.6 51.9 22.95 51.9 C21.3 51.9 19.72 51.6
									 18.22 51.07 C17.4 50.85 16.65 50.47 15.82 49.95 C14.85 49.42 13.95 48.75 13.2 48 C12.9 47.85
									 12.52 47.7 12.07 47.7 C11.02 47.7 9.9 48.45 6.6 50.32 C3.75 51.98 2.7 53.77 1.88 57.52 C1.12
									 60.82 0.22 68.4 0 72 L46.12 72 C45.67 68.48 44.77 60.9 44.02 57.6 Z" class="st2"/>
					</g>
					<g id="shape162-8" v:mID="162" v:groupContext="shape" v:layerMember="0" transform="translate(14.175,-27.525)">
						<title>Sheet.162</title>
						<path d="M11.25 72 C5.02 72 0 66.37 0 59.48 C0 52.58 5.02 47.03 11.25 47.03 C17.47 47.03 22.5 52.65 22.5
									 59.55 C22.5 66.45 17.47 72 11.25 72 Z" class="st2"/>
					</g>
				</g>
				<g id="group163-10" transform="translate(41.925,-1.27898E-13)" v:mID="163" v:groupContext="group" v:layerMember="0">
					<title>Sheet.163</title>
					<g id="shape164-11" v:mID="164" v:groupContext="shape" v:layerMember="0">
						<title>Sheet.164</title>
						<path d="M3.75 72 C1.65 72 0 70.35 0 68.25 L0 42 C0 39.9 1.65 38.25 3.75 38.25 L18 38.25 C20.1 38.25 21.75
									 39.9 21.75 42 L21.75 68.25 C21.75 70.35 20.1 72 18 72 L3.75 72 Z" class="st1"/>
					</g>
					<g id="shape165-13" v:mID="165" v:groupContext="shape" v:layerMember="0" transform="translate(2.25,-2.25)">
						<title>Sheet.165</title>
						<path d="M15.75 42.75 L1.5 42.75 C0.67 42.75 0 43.42 0 44.25 L0 70.5 C-0 71.32 0.67 72 1.5 72 L15.75 72 C16.57
									 72 17.25 71.32 17.25 70.5 L17.25 44.25 C17.25 43.42 16.57 42.75 15.75 42.75 ZM9.75 69.75 L7.5
									 69.75 C7.05 69.75 6.75 69.45 6.75 69 C6.75 68.55 7.05 68.25 7.5 68.25 L9.75 68.25 C10.2 68.25
									 10.5 68.55 10.5 69 C10.5 69.45 10.2 69.75 9.75 69.75 ZM15 66.75 L2.25 66.75 L2.25 46.5 L15 46.5
									 L15 66.75 Z" class="st2"/>
					</g>
				</g>
			</g>
		</g>
	</g>
</svg>
