<?xml version="1.0" encoding="UTF-8" standalone="no"?>
<!DOCTYPE svg PUBLIC "-//W3C//DTD SVG 1.1//EN" "http://www.w3.org/Graphics/SVG/1.1/DTD/svg11.dtd">
<!-- Generated by Microsoft Visio, SVG Export On-Premises User.svg Page-1 -->
<svg xmlns="http://www.w3.org/2000/svg" xmlns:xlink="http://www.w3.org/1999/xlink" xmlns:ev="http://www.w3.org/2001/xml-events"
		xmlns:v="http://schemas.microsoft.com/visio/2003/SVGExtensions/" width="0.908594in" height="1.07812in"
		viewBox="0 0 65.4188 77.625" xml:space="preserve" color-interpolation-filters="sRGB" class="st4">
	<v:documentProperties v:langID="4108" v:metric="true" v:viewMarkup="false"/>

	<style type="text/css">
	<![CDATA[
		.st1 {fill:#ffffff;stroke:none;stroke-linecap:butt;stroke-width:0.75}
		.st2 {fill:#535352;stroke:none;stroke-linecap:butt;stroke-width:0.75}
		.st3 {fill:#515150;stroke:none;stroke-linecap:butt;stroke-width:0.75}
		.st4 {fill:none;fill-rule:evenodd;font-size:12px;overflow:visible;stroke-linecap:square;stroke-miterlimit:3}
	]]>
	</style>

	<g v:mID="0" v:index="1" v:groupContext="foregroundPage">
		<title>Page-1</title>
		<v:pageProperties v:drawingScale="0.0393701" v:pageScale="0.0393701" v:drawingUnits="24" v:shadowOffsetX="8.50394"
				v:shadowOffsetY="-8.50394"/>
		<v:layer v:name="symbols" v:index="0"/>
		<g id="group166-1" transform="translate(9.69375,-8.0625)" v:mID="166" v:groupContext="group" v:layerMember="0">
			<title>On-Premises User</title>
			<g id="group167-2" transform="translate(-2.63789E-13,-4.5)" v:mID="167" v:groupContext="group" v:layerMember="0">
				<title>Sheet.167</title>
				<g id="shape168-3" v:mID="168" v:groupContext="shape" v:layerMember="0">
					<title>Sheet.168</title>
					<path d="M21.75 28.87 L21.75 18.37 L0 18.37 L0 77.62 L37.5 77.62 L37.5 40.87 L35.25 40.87 L35.25 34.87 L33 34.87
								 L33 28.87 L30.75 28.87 L30.75 22.12 L24 22.12 L24 28.87 L21.75 28.87 Z" class="st1"/>
				</g>
				<g id="shape169-5" v:mID="169" v:groupContext="shape" v:layerMember="0" transform="translate(2.25,-2.25)">
					<title>Sheet.169</title>
					<path d="M30.75 45.37 L30.75 39.37 L28.5 39.37 L28.5 33.37 L26.25 33.37 L26.25 26.62 L24 26.62 L24 33.37 L21.75
								 33.37 L21.75 39.37 L19.5 39.37 L19.5 45.37 L17.25 45.37 L17.25 22.87 L0 22.87 L0 77.62 L33 77.62
								 L33 45.37 L30.75 45.37 ZM6.75 64.12 L3.75 64.12 L3.75 61.12 L6.75 61.12 L6.75 64.12 ZM6.75 57.37
								 L3.75 57.37 L3.75 54.37 L6.75 54.37 L6.75 57.37 ZM6.75 50.62 L3.75 50.62 L3.75 47.62 L6.75 47.62
								 L6.75 50.62 ZM6.75 43.87 L3.75 43.87 L3.75 40.87 L6.75 40.87 L6.75 43.87 ZM6.75 37.12 L3.75 37.12
								 L3.75 34.12 L6.75 34.12 L6.75 37.12 ZM6.75 30.37 L3.75 30.37 L3.75 27.37 L6.75 27.37 L6.75 30.37
								 ZM13.5 64.12 L10.5 64.12 L10.5 61.12 L13.5 61.12 L13.5 64.12 ZM13.5 57.37 L10.5 57.37 L10.5 54.37
								 L13.5 54.37 L13.5 57.37 ZM13.5 50.62 L10.5 50.62 L10.5 47.62 L13.5 47.62 L13.5 50.62 ZM13.5 43.87
								 L10.5 43.87 L10.5 40.87 L13.5 40.87 L13.5 43.87 ZM13.5 37.12 L10.5 37.12 L10.5 34.12 L13.5 34.12
								 L13.5 37.12 ZM13.5 30.37 L10.5 30.37 L10.5 27.37 L13.5 27.37 L13.5 30.37 ZM23.25 61.87 L20.25 61.87
								 L20.25 58.87 L23.25 58.87 L23.25 61.87 ZM23.25 51.37 L20.25 51.37 L20.25 48.37 L23.25 48.37 L23.25
								 51.37 Z" class="st2"/>
				</g>
			</g>
			<g id="group170-7" transform="translate(21.75,0)" v:mID="170" v:groupContext="group" v:layerMember="0">
				<title>Sheet.170</title>
				<g id="shape171-8" v:mID="171" v:groupContext="shape" v:layerMember="0">
					<title>Sheet.171</title>
					<path d="M31.13 75.22 C30.97 73.05 30.45 68.62 30 66.52 C29.4 64.05 28.57 62.25 26.17 60.9 C25.87 60.75 25.57
								 60.6 25.35 60.45 C24.3 59.85 23.47 59.4 22.72 59.17 C23.77 57.6 24.38 55.72 24.38 53.62 C24.38 48.45
								 20.48 44.17 15.68 44.17 C10.88 44.17 6.97 48.37 6.97 53.62 C6.97 55.72 7.57 57.6 8.62 59.17 C7.88
								 59.32 7.13 59.77 5.85 60.45 L5.1 60.9 C2.7 62.25 1.88 64.05 1.27 66.52 C0.82 68.62 0.3 73.05 0.15
								 75.22 L0 77.62 L31.27 77.62 L31.13 75.22 Z" class="st1"/>
				</g>
				<g id="shape172-10" v:mID="172" v:groupContext="shape" v:layerMember="0" transform="translate(2.55,-2.25)">
					<title>Sheet.172</title>
					<path d="M25.27 69.3 C24.75 67.12 24.15 66.07 22.57 65.17 C20.92 64.27 20.02 63.67 19.42 63.67 C19.12 63.67 18.97
								 63.75 18.75 63.82 C18.38 64.2 17.93 64.5 17.48 64.8 C17.48 64.8 17.48 64.8 17.48 64.8 C17.4 64.87
								 17.32 64.87 17.25 64.95 C16.8 65.25 16.35 65.4 15.83 65.55 C15 65.85 14.1 66 13.13 66 C12.15 66
								 11.25 65.85 10.43 65.55 C9.98 65.4 9.53 65.17 9.08 64.95 C8.55 64.65 8.02 64.27 7.57 63.82 C7.43
								 63.75 7.2 63.67 6.9 63.67 C6.3 63.67 5.63 64.12 3.75 65.17 C2.1 66.07 1.5 67.12 1.05 69.3 C0.6 71.17
								 0.08 75.52 0 77.62 L26.47 77.62 C26.17 75.52 25.72 71.25 25.27 69.3 Z" class="st3"/>
				</g>
				<g id="shape173-12" v:mID="173" v:groupContext="shape" v:layerMember="0" transform="translate(9.225,-16.725)">
					<title>Sheet.173</title>
					<path d="M6.45 77.62 C2.85 77.62 0 74.4 0 70.42 C0 66.45 2.93 63.22 6.45 63.22 C10.05 63.22 12.9 66.45 12.9 70.42
								 C12.9 74.4 9.98 77.62 6.45 77.62 Z" class="st3"/>
				</g>
			</g>
		</g>
	</g>
</svg>
