<?xml version="1.0" encoding="UTF-8" standalone="no"?>
<!DOCTYPE svg PUBLIC "-//W3C//DTD SVG 1.1//EN" "http://www.w3.org/Graphics/SVG/1.1/DTD/svg11.dtd">
<!-- Generated by Microsoft Visio, SVG Export Online User.svg Page-1 -->
<svg xmlns="http://www.w3.org/2000/svg" xmlns:xlink="http://www.w3.org/1999/xlink" xmlns:ev="http://www.w3.org/2001/xml-events"
		xmlns:v="http://schemas.microsoft.com/visio/2003/SVGExtensions/" width="1.04688in" height="0.890625in"
		viewBox="0 0 75.375 64.125" xml:space="preserve" color-interpolation-filters="sRGB" class="st3">
	<v:documentProperties v:langID="4108" v:metric="true" v:viewMarkup="false"/>

	<style type="text/css">
	<![CDATA[
		.st1 {fill:#ffffff;stroke:none;stroke-linecap:butt;stroke-width:0.75}
		.st2 {fill:#515251;stroke:none;stroke-linecap:butt;stroke-width:0.75}
		.st3 {fill:none;fill-rule:evenodd;font-size:12px;overflow:visible;stroke-linecap:square;stroke-miterlimit:3}
	]]>
	</style>

	<g v:mID="0" v:index="1" v:groupContext="foregroundPage">
		<title>Page-1</title>
		<v:pageProperties v:drawingScale="0.0393701" v:pageScale="0.0393701" v:drawingUnits="24" v:shadowOffsetX="8.50394"
				v:shadowOffsetY="-8.50394"/>
		<v:layer v:name="symbols" v:index="0"/>
		<g id="group174-1" transform="translate(8.4375,-8.4375)" v:mID="174" v:groupContext="group" v:layerMember="0">
			<title>Online User</title>
			<g id="group175-2" transform="translate(0,-10.575)" v:mID="175" v:groupContext="group" v:layerMember="0">
				<title>Sheet.175</title>
				<g id="shape176-3" v:mID="176" v:groupContext="shape" v:layerMember="0">
					<title>Sheet.176</title>
					<path d="M11.03 64.12 C4.95 64.12 -0 58.95 0 52.57 C0 46.35 4.65 41.32 10.42 41.02 C12.23 38.92 14.62 37.72 17.33
								 37.5 C18.6 31.72 23.55 27.45 29.33 27.45 C33.15 27.45 36.67 29.32 39 32.47 C40.05 32.17 41.1 32.02
								 42.15 32.02 C48.75 32.02 54.15 37.72 54.15 44.62 C56.85 46.65 58.42 49.87 58.42 53.32 C58.42 58.27
								 55.27 62.55 50.7 63.75 L50.62 63.75 L49.13 64.05 L11.03 64.05 L11.03 64.12 Z" class="st1"/>
				</g>
				<g id="shape177-5" v:mID="177" v:groupContext="shape" v:layerMember="0" transform="translate(2.25,-2.25)">
					<title>Sheet.177</title>
					<path d="M49.65 48.07 C49.72 47.7 49.72 47.32 49.72 46.95 C49.72 41.17 45.38 36.52 39.98 36.52 C38.55 36.52 37.2
								 36.82 35.93 37.5 C34.12 34.12 30.75 31.95 27.15 31.95 C21.75 31.95 17.4 36.45 17.03 42.07 C16.57
								 42 16.2 41.92 15.75 41.92 C13.2 41.92 10.8 43.27 9.3 45.45 C9.08 45.45 8.93 45.45 8.7 45.45 C3.9
								 45.52 0 49.72 0 54.82 C0 59.92 3.9 64.12 8.77 64.12 L46.73 64.12 L47.92 63.9 C51.53 62.92 54 59.55
								 54 55.65 C54 52.42 52.28 49.5 49.65 48.07 ZM47.4 61.72 L46.5 61.87 L8.77 61.87 C5.17 61.87 2.25
								 58.72 2.25 54.82 C2.25 50.92 5.1 47.77 8.7 47.77 C8.85 47.77 9 47.77 9.15 47.77 L10.43 47.85 L11.17
								 46.72 C12.23 45.07 13.95 44.17 15.75 44.17 C16.05 44.17 16.35 44.17 16.65 44.25 L19.13 44.7 L19.27
								 42.15 C19.5 37.72 22.95 34.2 27.15 34.2 C29.93 34.2 32.55 35.85 33.9 38.55 L34.95 40.5 L36.9 39.52
								 C37.88 39.07 38.92 38.77 39.98 38.77 C44.1 38.77 47.48 42.45 47.48 46.95 C47.48 47.25 47.48 47.55
								 47.4 47.85 L47.25 49.35 L48.6 50.1 C50.55 51.15 51.75 53.32 51.75 55.65 C51.75 58.5 49.95 60.97
								 47.4 61.72 Z" class="st2"/>
				</g>
			</g>
			<g id="group178-7" transform="translate(23.25,2.41585E-13)" v:mID="178" v:groupContext="group" v:layerMember="0">
				<title>Sheet.178</title>
				<g id="shape179-8" v:mID="179" v:groupContext="shape" v:layerMember="0">
					<title>Sheet.179</title>
					<path d="M31.13 61.72 C30.97 59.55 30.45 55.12 30 53.02 C29.4 50.55 28.57 48.75 26.17 47.4 C25.87 47.25 25.57
								 47.1 25.35 46.95 C24.3 46.35 23.47 45.9 22.72 45.67 C23.77 44.1 24.37 42.22 24.37 40.12 C24.37 34.95
								 20.48 30.67 15.68 30.67 C10.88 30.67 6.97 34.87 6.97 40.12 C6.97 42.22 7.57 44.1 8.62 45.67 C7.87
								 45.82 7.13 46.27 5.85 46.95 L5.1 47.4 C2.7 48.75 1.88 50.55 1.27 53.02 C0.82 55.12 0.3 59.55 0.15
								 61.72 L0 64.12 L31.27 64.12 L31.13 61.72 Z" class="st1"/>
				</g>
				<g id="shape180-10" v:mID="180" v:groupContext="shape" v:layerMember="0" transform="translate(2.55,-2.25)">
					<title>Sheet.180</title>
					<path d="M25.27 55.8 C24.75 53.62 24.15 52.57 22.57 51.67 C20.92 50.77 20.02 50.17 19.42 50.17 C19.12 50.17 18.97
								 50.25 18.75 50.32 C18.38 50.7 17.93 51 17.48 51.3 C17.48 51.3 17.48 51.3 17.48 51.3 C17.4 51.37
								 17.32 51.37 17.25 51.45 C16.8 51.75 16.35 51.9 15.82 52.05 C15 52.35 14.1 52.5 13.13 52.5 C12.15
								 52.5 11.25 52.35 10.43 52.05 C9.98 51.9 9.53 51.67 9.08 51.45 C8.55 51.15 8.02 50.77 7.57 50.32
								 C7.43 50.25 7.2 50.17 6.9 50.17 C6.3 50.17 5.63 50.62 3.75 51.67 C2.1 52.57 1.5 53.62 1.05 55.8
								 C0.6 57.67 0.08 62.02 0 64.12 L26.47 64.12 C26.17 62.02 25.72 57.75 25.27 55.8 Z" class="st2"/>
				</g>
				<g id="shape181-12" v:mID="181" v:groupContext="shape" v:layerMember="0" transform="translate(9.225,-16.725)">
					<title>Sheet.181</title>
					<path d="M6.45 64.12 C2.85 64.12 0 60.9 0 56.92 C-0 52.95 2.93 49.72 6.45 49.72 C10.05 49.72 12.9 52.95 12.9
								 56.92 C12.9 60.9 9.98 64.12 6.45 64.12 Z" class="st2"/>
				</g>
			</g>
		</g>
	</g>
</svg>
