<?xml version="1.0" encoding="UTF-8" standalone="no"?>
<!DOCTYPE svg PUBLIC "-//W3C//DTD SVG 1.1//EN" "http://www.w3.org/Graphics/SVG/1.1/DTD/svg11.dtd">
<!-- Generated by Microsoft Visio, SVG Export Outlook User.svg Page-1 -->
<svg xmlns="http://www.w3.org/2000/svg" xmlns:xlink="http://www.w3.org/1999/xlink" xmlns:ev="http://www.w3.org/2001/xml-events"
		xmlns:v="http://schemas.microsoft.com/visio/2003/SVGExtensions/" width="1.04297in" height="0.96875in"
		viewBox="0 0 75.0938 69.75" xml:space="preserve" color-interpolation-filters="sRGB" class="st4">
	<v:documentProperties v:langID="4108" v:metric="true" v:viewMarkup="false"/>

	<style type="text/css">
	<![CDATA[
		.st1 {fill:#ffffff;stroke:none;stroke-linecap:butt;stroke-width:0.75}
		.st2 {fill:#515150;stroke:none;stroke-linecap:butt;stroke-width:0.75}
		.st3 {fill:#2372ba;stroke:none;stroke-linecap:butt;stroke-width:0.75}
		.st4 {fill:none;fill-rule:evenodd;font-size:12px;overflow:visible;stroke-linecap:square;stroke-miterlimit:3}
	]]>
	</style>

	<g v:mID="0" v:index="1" v:groupContext="foregroundPage">
		<title>Page-1</title>
		<v:pageProperties v:drawingScale="0.0393701" v:pageScale="0.0393701" v:drawingUnits="24" v:shadowOffsetX="8.50394"
				v:shadowOffsetY="-8.50394"/>
		<v:layer v:name="symbols" v:index="0"/>
		<g id="group182-1" transform="translate(2.34375,-8.0625)" v:mID="182" v:groupContext="group" v:layerMember="0">
			<title>Outlook User</title>
			<g id="group183-2" v:mID="183" v:groupContext="group" v:layerMember="0">
				<title>Sheet.183</title>
				<g id="shape184-3" v:mID="184" v:groupContext="shape" v:layerMember="0">
					<title>Sheet.184</title>
					<path d="M50.93 69.75 L50.78 67.35 C50.55 63.67 49.65 56.02 48.83 52.5 C47.93 48.6 46.73 45.9 42.97 43.8 L41.63
								 43.05 C39 41.55 37.88 40.87 36.37 40.87 C35.55 40.87 34.88 41.02 34.13 41.4 L33 42 L33.9 41.25 C36.98
								 38.55 38.93 34.42 38.93 29.77 C39 21.6 32.93 15 25.5 15 L25.42 15 C18 15 11.93 21.6 11.93 29.77
								 C11.93 34.42 13.87 38.55 16.95 41.25 L17.85 42 L16.65 41.4 C15.97 41.02 15.23 40.87 14.4 40.87 C12.9
								 40.87 11.7 41.55 9.15 43.05 L7.8 43.8 C4.2 45.97 3 48.6 2.1 52.5 C1.28 56.02 0.45 63.67 0.15 67.35
								 L0 69.75 L50.93 69.75 Z" class="st1"/>
				</g>
				<g id="shape185-5" v:mID="185" v:groupContext="shape" v:layerMember="0" transform="translate(2.625,-2.325)">
					<title>Sheet.185</title>
					<path d="M44.03 55.35 C43.13 51.52 42.15 49.72 39.3 48.15 C36.45 46.5 34.88 45.52 33.83 45.52 C33.38 45.52 33
								 45.6 32.7 45.82 C32.03 46.42 31.28 47.02 30.45 47.47 C30.3 47.55 30.15 47.62 30.08 47.7 C29.25 48.22
								 28.43 48.52 27.68 48.82 C26.18 49.35 24.6 49.65 22.95 49.65 C21.3 49.65 19.72 49.35 18.23 48.82
								 C17.4 48.6 16.65 48.22 15.83 47.7 C14.85 47.17 13.95 46.5 13.2 45.75 C12.9 45.6 12.52 45.45 12.08
								 45.45 C11.02 45.45 9.9 46.2 6.6 48.07 C3.75 49.72 2.7 51.52 1.88 55.27 C1.13 58.57 0.23 66.15 0
								 69.75 L46.13 69.75 C45.6 66.22 44.78 58.65 44.03 55.35 Z" class="st2"/>
				</g>
				<g id="shape186-7" v:mID="186" v:groupContext="shape" v:layerMember="0" transform="translate(14.175,-27.525)">
					<title>Sheet.186</title>
					<path d="M11.25 69.75 C5.02 69.75 0 64.12 0 57.22 C-0 50.32 5.1 44.77 11.25 44.77 C17.48 44.77 22.5 50.4 22.5
								 57.3 C22.5 64.2 17.48 69.75 11.25 69.75 Z" class="st2"/>
				</g>
			</g>
			<g id="group187-9" transform="translate(39,-30.75)" v:mID="187" v:groupContext="group" v:layerMember="0">
				<title>Sheet.187</title>
				<g id="shape188-10" v:mID="188" v:groupContext="shape" v:layerMember="0">
					<title>Sheet.188</title>
					<path d="M25.5 46.5 L18.75 46.5 L18.75 41.25 L16.35 41.25 L0 43.8 L0 67.12 L16.35 69.75 L18.75 69.75 L18.75 64.5
								 L25.5 64.5 C27.6 64.5 29.25 62.85 29.25 60.75 L29.25 50.25 C29.25 48.15 27.6 46.5 25.5 46.5 Z"
							class="st1"/>
				</g>
				<g id="shape189-12" v:mID="189" v:groupContext="shape" v:layerMember="0" transform="translate(2.25,-2.25)">
					<title>Sheet.189</title>
					<path d="M23.25 51 L14.25 51 L14.25 45.75 L0 48 L0 67.5 L14.25 69.75 L14.25 64.5 L23.25 64.5 C24.08 64.5 24.75
								 63.82 24.75 63 L24.75 52.5 C24.75 51.67 24.08 51 23.25 51 ZM23.63 63 C23.63 63.22 23.48 63.37 23.25
								 63.37 L14.25 63.37 L14.25 56.55 L17.18 59.7 C17.25 59.77 17.4 59.85 17.55 59.85 C17.55 59.85 17.55
								 59.85 17.55 59.85 C17.7 59.85 17.85 59.77 17.93 59.7 L23.63 54.37 L23.63 63 ZM23.63 52.87 L17.55
								 58.5 L14.25 54.82 L14.25 52.12 L23.25 52.12 C23.48 52.12 23.63 52.27 23.63 52.5 L23.63 52.87 Z"
							class="st3"/>
				</g>
				<g id="shape190-14" v:mID="190" v:groupContext="shape" v:layerMember="0" transform="translate(4.275,-9.375)">
					<title>Sheet.190</title>
					<path d="M4.73 67.72 C2.18 67.65 2.25 62.17 4.8 62.02 C7.35 61.95 7.35 67.8 4.73 67.72 ZM4.8 60.3 C0.22 60.6
								 -0 69.07 4.65 69.37 C9.68 69.75 9.83 60 4.8 60.3 Z" class="st1"/>
				</g>
			</g>
		</g>
	</g>
</svg>
