<?xml version="1.0" encoding="UTF-8" standalone="no"?>
<!DOCTYPE svg PUBLIC "-//W3C//DTD SVG 1.1//EN" "http://www.w3.org/Graphics/SVG/1.1/DTD/svg11.dtd">
<!-- Generated by Microsoft Visio, SVG Export Response Group Service.svg Page-1 -->
<svg xmlns="http://www.w3.org/2000/svg" xmlns:xlink="http://www.w3.org/1999/xlink" xmlns:ev="http://www.w3.org/2001/xml-events"
		xmlns:v="http://schemas.microsoft.com/visio/2003/SVGExtensions/" width="1.01562in" height="1.01563in"
		viewBox="0 0 73.125 73.125" xml:space="preserve" color-interpolation-filters="sRGB" class="st5">
	<v:documentProperties v:langID="4108" v:metric="true" v:viewMarkup="false"/>

	<style type="text/css">
	<![CDATA[
		.st1 {fill:#ffffff}
		.st2 {stroke:none;stroke-linecap:butt;stroke-width:0.75}
		.st3 {fill:#515251;stroke:none;stroke-linecap:butt;stroke-width:0.75}
		.st4 {fill:#ffffff;stroke:none;stroke-linecap:butt;stroke-width:0.75}
		.st5 {fill:none;fill-rule:evenodd;font-size:12px;overflow:visible;stroke-linecap:square;stroke-miterlimit:3}
	]]>
	</style>

	<g v:mID="0" v:index="1" v:groupContext="foregroundPage">
		<title>Page-1</title>
		<v:pageProperties v:drawingScale="0.0393701" v:pageScale="0.0393701" v:drawingUnits="24" v:shadowOffsetX="8.50394"
				v:shadowOffsetY="-8.50394"/>
		<v:layer v:name="symbols" v:index="0"/>
		<g id="group203-1" transform="translate(9.3375,-7.6875)" v:mID="203" v:groupContext="group" v:layerMember="0">
			<title>Response Group Service</title>
			<g id="group204-2" transform="translate(0,-11.25)" v:mID="204" v:groupContext="group" v:layerMember="0">
				<title>Sheet.204</title>
				<g id="shape205-3" v:mID="205" v:groupContext="shape" v:layerMember="0">
					<title>Sheet.205</title>
					<path d="M0 67.58 C0.15 70.13 1.65 71.93 4.05 72.6 C5.25 72.98 6.3 73.13 7.42 73.13 C8.63 73.13 9.83 72.98 11.02
								 72.6 C12.15 72.3 13.12 71.7 13.8 70.88 C14.78 72.23 16.28 73.05 18.07 73.05 L48.08 73.05 C51 73.05
								 53.33 70.73 53.33 67.8 L53.33 31.88 C53.33 28.95 51 26.63 48.08 26.63 L18.07 26.63 C16.35 26.63
								 14.78 27.45 13.8 28.8 C13.12 28.05 12.22 27.45 11.1 27.08 C9.9 26.7 9.23 26.63 7.57 26.63 C5.85
								 26.63 5.25 26.7 3.97 27.08 C1.58 27.83 0.15 29.55 0 32.03 L0 67.58 Z" class="st1"/>
					<path d="M0 67.58 C0.15 70.13 1.65 71.93 4.05 72.6 C5.25 72.98 6.3 73.13 7.42 73.13 C8.63 73.13 9.83 72.98 11.02
								 72.6 C12.15 72.3 13.12 71.7 13.8 70.88 C14.78 72.23 16.28 73.05 18.07 73.05 L48.08 73.05 C51 73.05
								 53.33 70.73 53.33 67.8 L53.33 31.88 C53.33 28.95 51 26.63 48.08 26.63 L18.07 26.63 C16.35 26.63
								 14.78 27.45 13.8 28.8 C13.12 28.05 12.22 27.45 11.1 27.08 C9.9 26.7 9.23 26.63 7.57 26.63 C5.85
								 26.63 5.25 26.7 3.97 27.08 C1.58 27.83 0.15 29.55 0 32.03" class="st2"/>
				</g>
				<g id="shape206-6" v:mID="206" v:groupContext="shape" v:layerMember="0" transform="translate(0.075,-10.275)">
					<title>Sheet.206</title>
					<path d="M0 46.13 C0.07 48.75 0.22 53.1 0.22 60.6 C0.22 66.6 0.07 70.58 0 73.13 L0 46.13 Z" class="st1"/>
					<path d="M0 46.13 C0.07 48.75 0.22 53.1 0.22 60.6 C0.22 66.6 0.07 70.58 0 73.13" class="st2"/>
				</g>
				<g id="shape207-9" v:mID="207" v:groupContext="shape" v:layerMember="0" transform="translate(2.1,-2.25)">
					<title>Sheet.207</title>
					<path d="M10.72 34.5 C10.58 32.85 9.75 31.95 8.33 31.5 C7.43 31.2 6.98 31.13 5.48 31.13 C3.9 31.13 3.52 31.2
								 2.55 31.5 C1.13 31.95 0.23 32.85 0.15 34.5 C-0 36.3 0.45 39.98 0.45 52.65 C0.45 63.38 0 67.28 0.15
								 69.75 C0.23 71.4 1.13 72.38 2.55 72.75 C3.45 72.98 4.35 73.13 5.32 73.13 C6.3 73.13 7.35 72.98 8.33
								 72.75 C9.75 72.38 10.65 71.4 10.72 69.75 C10.88 67.28 10.5 63.6 10.5 52.88 C10.5 40.2 10.88 36.3
								 10.72 34.5 Z" class="st3"/>
				</g>
				<g id="shape208-11" v:mID="208" v:groupContext="shape" v:layerMember="0" transform="translate(15.075,-2.25)">
					<title>Sheet.208</title>
					<path d="M33 31.13 L3 31.13 C1.35 31.13 0 32.48 0 34.13 L0 70.13 C0 71.78 1.35 73.13 3 73.13 L33 73.13 C34.65
								 73.13 36 71.78 36 70.13 L36 34.13 C36 32.48 34.65 31.13 33 31.13 ZM12.75 63.38 C12.75 63.83 12.45
								 64.13 12 64.13 L8.25 64.13 C7.8 64.13 7.5 63.83 7.5 63.38 L7.5 61.88 C7.5 61.43 7.8 61.13 8.25 61.13
								 L12 61.13 C12.45 61.13 12.75 61.43 12.75 61.88 L12.75 63.38 ZM12.75 58.13 C12.75 58.58 12.45 58.88
								 12 58.88 L8.25 58.88 C7.8 58.88 7.5 58.58 7.5 58.13 L7.5 56.63 C7.5 56.18 7.8 55.88 8.25 55.88 L12
								 55.88 C12.45 55.88 12.75 56.18 12.75 56.63 L12.75 58.13 ZM12.75 52.88 C12.75 53.33 12.45 53.63 12
								 53.63 L8.25 53.63 C7.8 53.63 7.5 53.33 7.5 52.88 L7.5 51.38 C7.5 50.93 7.8 50.63 8.25 50.63 L12
								 50.63 C12.45 50.63 12.75 50.93 12.75 51.38 L12.75 52.88 ZM20.25 58.13 C20.25 58.58 19.95 58.88 19.5
								 58.88 L15.75 58.88 C15.3 58.88 15 58.58 15 58.13 L15 56.63 C15 56.18 15.3 55.88 15.75 55.88 L19.5
								 55.88 C19.95 55.88 20.25 56.18 20.25 56.63 L20.25 58.13 ZM20.25 52.88 C20.25 53.33 19.95 53.63 19.5
								 53.63 L15.75 53.63 C15.3 53.63 15 53.33 15 52.88 L15 51.38 C15 50.93 15.3 50.63 15.75 50.63 L19.5
								 50.63 C19.95 50.63 20.25 50.93 20.25 51.38 L20.25 52.88 ZM27.75 58.13 C27.75 58.58 27.45 58.88 27
								 58.88 L23.25 58.88 C22.8 58.88 22.5 58.58 22.5 58.13 L22.5 56.63 C22.5 56.18 22.8 55.88 23.25 55.88
								 L27 55.88 C27.45 55.88 27.75 56.18 27.75 56.63 L27.75 58.13 ZM27.75 52.88 C27.75 53.33 27.45 53.63
								 27 53.63 L23.25 53.63 C22.8 53.63 22.5 53.33 22.5 52.88 L22.5 51.38 C22.5 50.93 22.8 50.63 23.25
								 50.63 L27 50.63 C27.45 50.63 27.75 50.93 27.75 51.38 L27.75 52.88 ZM30 44.63 C30 45.08 29.7 45.38
								 29.25 45.38 L6.75 45.38 C6.3 45.38 6 45.08 6 44.63 L6 36.38 C6 35.93 6.3 35.63 6.75 35.63 L29.25
								 35.63 C29.7 35.63 30 35.93 30 36.38 L30 44.63 Z" class="st3"/>
				</g>
			</g>
			<g id="group209-13" transform="translate(23.025,-2.84217E-13)" v:mID="209" v:groupContext="group" v:layerMember="0">
				<title>Sheet.209</title>
				<g id="shape210-14" v:mID="210" v:groupContext="shape" v:layerMember="0">
					<title>Sheet.210</title>
					<path d="M24 68.33 L39.3 68.33 L39.15 65.93 C39.08 64.35 38.63 60.98 38.33 59.4 C37.88 57.45 37.2 55.95 35.25
								 54.9 L34.65 54.53 C34.13 54.23 33.68 54 33.23 53.78 C33.83 52.65 34.2 51.38 34.2 50.03 C34.2 45.83
								 31.05 42.45 27.15 42.45 C23.25 42.45 20.1 45.83 20.1 50.03 C20.1 51.38 20.48 52.65 21.08 53.78 C20.62
								 53.93 20.17 54.23 19.65 54.53 L19.35 54.68 C19.35 50.55 16.2 47.18 12.3 47.18 C8.4 47.18 5.25 50.55
								 5.25 54.75 C5.25 56.1 5.63 57.38 6.23 58.5 C5.78 58.65 5.33 58.95 4.8 59.25 L4.28 59.55 C2.32 60.68
								 1.65 62.18 1.2 64.05 C0.83 65.63 0.45 68.93 0.37 70.58 L0 73.13 L24.38 73.13 L24.23 70.73 C24.23
								 70.13 24.15 69.3 24 68.33 Z" class="st4"/>
				</g>
				<g id="shape211-16" v:mID="211" v:groupContext="shape" v:layerMember="0" transform="translate(22.275,-17.775)">
					<title>Sheet.211</title>
					<path d="M4.8 73.13 C2.18 73.13 0 70.73 0 67.8 C0 64.88 2.18 62.48 4.8 62.48 C7.43 62.48 9.6 64.88 9.6 67.8 C9.6
								 70.73 7.43 73.13 4.8 73.13 Z" class="st3"/>
				</g>
				<g id="shape212-18" v:mID="212" v:groupContext="shape" v:layerMember="0" transform="translate(18,-6.9)">
					<title>Sheet.212</title>
					<path d="M1.2 67.05 C1.43 67.13 1.58 67.28 1.8 67.43 C3.53 68.4 4.05 69.6 4.5 71.4 C4.57 71.85 4.73 72.45 4.8
								 73.13 L18.9 73.13 C18.83 71.55 18.45 68.4 18.08 66.98 C17.7 65.4 17.25 64.58 16.05 63.9 C14.85 63.23
								 14.18 62.78 13.73 62.78 C13.5 62.78 13.35 62.85 13.2 62.93 C12.9 63.23 12.6 63.45 12.23 63.68 C12.23
								 63.68 12.23 63.68 12.23 63.68 C12.15 63.68 12.08 63.75 12.08 63.75 C11.7 63.98 11.4 64.13 11.02
								 64.2 C10.43 64.43 9.75 64.58 9 64.58 C8.33 64.58 7.65 64.43 6.98 64.2 C6.6 64.13 6.3 63.98 5.92
								 63.75 C5.55 63.53 5.17 63.23 4.8 62.93 C4.65 62.85 4.5 62.78 4.28 62.78 C3.82 62.78 3.38 63.08 1.95
								 63.9 C0.83 64.5 0.38 65.25 0 66.6 C0.53 66.6 0.83 66.75 1.2 67.05 Z" class="st3"/>
				</g>
				<g id="shape213-20" v:mID="213" v:groupContext="shape" v:layerMember="0" transform="translate(2.25,-2.25)">
					<title>Sheet.213</title>
					<path d="M18.98 66.98 C18.6 65.4 18.15 64.58 16.95 63.9 C15.75 63.23 15.08 62.78 14.63 62.78 C14.4 62.78 14.25
								 62.85 14.1 62.93 C13.8 63.23 13.5 63.45 13.13 63.68 C13.13 63.68 13.13 63.68 13.13 63.68 C13.05
								 63.68 12.98 63.75 12.98 63.75 C12.6 63.98 12.3 64.13 11.92 64.2 C11.33 64.43 10.65 64.58 9.9 64.58
								 C9.23 64.58 8.55 64.43 7.88 64.2 C7.5 64.13 7.2 63.98 6.83 63.75 C6.45 63.53 6.08 63.23 5.7 62.93
								 C5.55 62.85 5.4 62.78 5.17 62.78 C4.73 62.78 4.28 63.08 2.85 63.9 C1.65 64.58 1.2 65.33 0.83 66.98
								 C0.52 68.4 0.15 71.63 0 73.13 L19.58 73.13 C19.65 71.55 19.28 68.4 18.98 66.98 Z" class="st3"/>
				</g>
				<g id="shape214-22" v:mID="214" v:groupContext="shape" v:layerMember="0" transform="translate(7.425,-12.975)">
					<title>Sheet.214</title>
					<path d="M4.8 73.13 C2.18 73.13 0 70.73 0 67.8 C0 64.88 2.18 62.48 4.8 62.48 C7.43 62.48 9.6 64.88 9.6 67.8 C9.6
								 70.73 7.43 73.13 4.8 73.13 Z" class="st3"/>
				</g>
			</g>
		</g>
	</g>
</svg>
