<?xml version="1.0" encoding="UTF-8" standalone="no"?>
<!DOCTYPE svg PUBLIC "-//W3C//DTD SVG 1.1//EN" "http://www.w3.org/Graphics/SVG/1.1/DTD/svg11.dtd">
<!-- Generated by Microsoft Visio, SVG Export Role Group.svg Page-1 -->
<svg xmlns="http://www.w3.org/2000/svg" xmlns:xlink="http://www.w3.org/1999/xlink" xmlns:ev="http://www.w3.org/2001/xml-events"
		xmlns:v="http://schemas.microsoft.com/visio/2003/SVGExtensions/" width="1.0625in" height="0.96875in"
		viewBox="0 0 76.5 69.75" xml:space="preserve" color-interpolation-filters="sRGB" class="st4">
	<v:documentProperties v:langID="4108" v:metric="true" v:viewMarkup="false"/>

	<style type="text/css">
	<![CDATA[
		.st1 {fill:#ffffff;stroke:none;stroke-linecap:butt;stroke-width:0.75}
		.st2 {fill:#515251;stroke:none;stroke-linecap:butt;stroke-width:0.75}
		.st3 {fill:#515050;stroke:none;stroke-linecap:butt;stroke-width:0.75}
		.st4 {fill:none;fill-rule:evenodd;font-size:12px;overflow:visible;stroke-linecap:square;stroke-miterlimit:3}
	]]>
	</style>

	<g v:mID="0" v:index="1" v:groupContext="foregroundPage">
		<title>Page-1</title>
		<v:pageProperties v:drawingScale="0.0393701" v:pageScale="0.0393701" v:drawingUnits="24" v:shadowOffsetX="8.50394"
				v:shadowOffsetY="-8.50394"/>
		<v:layer v:name="symbols" v:index="0"/>
		<g id="group215-1" transform="translate(6.5625,-6.1875)" v:mID="215" v:groupContext="group" v:layerMember="0">
			<title>Role Group</title>
			<g id="group216-2" v:mID="216" v:groupContext="group" v:layerMember="0">
				<title>Sheet.216</title>
				<g id="group217-3" transform="translate(-3.15747E-13,-12.825)" v:mID="217" v:groupContext="group" v:layerMember="0">
					<title>Sheet.217</title>
					<g id="group218-4" transform="translate(24.75,-7.95)" v:mID="218" v:groupContext="group" v:layerMember="0">
						<title>Sheet.218</title>
						<g id="shape219-5" v:mID="219" v:groupContext="shape" v:layerMember="0">
							<title>Sheet.219</title>
							<path d="M0 69.75 L0.15 67.35 C0.3 64.73 0.97 59.32 1.5 56.78 C2.17 53.85 3.08 51.83 5.92 50.25 L6.9
										 49.73 C8.85 48.6 9.75 48.08 10.95 48.08 C11.63 48.08 12.23 48.23 12.82 48.53 L13.05 48.68
										 L13.27 48.83 C13.72 49.28 14.25 49.65 14.78 49.87 C15.22 50.18 15.6 50.33 16.05 50.48 L16.12
										 50.48 C16.95 50.78 17.85 50.93 18.67 50.93 C19.58 50.93 20.4 50.78 21.22 50.48 C21.75 50.33
										 22.13 50.18 22.5 49.87 L22.72 49.73 L22.95 49.58 C23.32 49.35 23.7 49.05 24 48.75 L24.22
										 48.6 L24.45 48.45 C25.05 48.15 25.65 48 26.32 48 C27.52 48 28.57 48.6 30.3 49.58 C30.6 49.73
										 30.97 49.95 31.35 50.18 C34.2 51.75 35.1 53.78 35.77 56.78 C36.37 59.33 36.97 64.73 37.12
										 67.35 L37.27 69.75 L0 69.75 Z" class="st1"/>
						</g>
						<g id="shape220-7" v:mID="220" v:groupContext="shape" v:layerMember="0" transform="translate(2.325,-2.25)">
							<title>Sheet.220</title>
							<path d="M31.35 59.55 C30.75 56.85 30 55.58 27.97 54.45 C25.95 53.33 24.82 52.58 24.07 52.58 C23.77 52.58
										 23.48 52.65 23.25 52.8 C22.72 53.25 22.2 53.63 21.67 54 C21.67 54 21.67 54 21.67 54 C21.6
										 54.08 21.53 54.15 21.37 54.15 C20.78 54.53 20.25 54.75 19.65 54.9 C18.6 55.28 17.47 55.5
										 16.35 55.5 C15.15 55.5 14.1 55.28 13.05 54.9 C12.45 54.75 11.93 54.45 11.33 54.15 C10.65
										 53.78 10.05 53.33 9.45 52.8 C9.23 52.65 9 52.58 8.63 52.58 C7.88 52.58 7.12 53.1 4.72 54.45
										 C2.7 55.58 2.02 56.85 1.35 59.55 C0.82 61.88 0.22 67.2 0 69.75 L32.55 69.75 C32.47 67.2
										 31.87 61.88 31.35 59.55 Z" class="st2"/>
						</g>
						<g id="shape221-9" v:mID="221" v:groupContext="shape" v:layerMember="0" transform="translate(8.475,-17.85)">
							<title>Sheet.221</title>
							<path d="M10.2 69.75 C4.57 69.75 0 64.8 0 58.65 C-0 52.58 4.57 47.63 10.2 47.63 C15.82 47.63 20.4 52.58
										 20.4 58.73 C20.4 64.8 15.82 69.75 10.2 69.75 Z" class="st1"/>
						</g>
						<g id="shape222-11" v:mID="222" v:groupContext="shape" v:layerMember="0"
								transform="translate(10.725,-20.1)">
							<title>Sheet.222</title>
							<path d="M7.95 69.75 C3.6 69.75 0 65.78 0 60.9 C0 56.1 3.6 52.13 7.95 52.13 C12.3 52.13 15.9 56.1 15.9
										 60.98 C15.9 65.85 12.37 69.75 7.95 69.75 Z" class="st2"/>
						</g>
					</g>
					<g id="group223-13" v:mID="223" v:groupContext="group" v:layerMember="0">
						<title>Sheet.223</title>
						<g id="shape224-14" v:mID="224" v:groupContext="shape" v:layerMember="0">
							<title>Sheet.224</title>
							<path d="M0 69.75 L0.15 67.35 C0.3 64.73 0.98 59.32 1.57 56.78 C2.18 53.85 3.15 51.83 6 50.25 L6.98 49.73
										 C8.92 48.6 9.82 48.08 11.03 48.08 C11.7 48.08 12.3 48.23 12.9 48.52 L13.13 48.67 L13.35
										 48.83 C13.8 49.27 14.33 49.65 14.85 49.87 C15.3 50.18 15.68 50.33 16.12 50.48 L16.2 50.48
										 C17.03 50.78 17.93 50.93 18.75 50.93 C19.65 50.93 20.48 50.78 21.3 50.48 C21.83 50.33 22.2
										 50.18 22.58 49.87 L22.8 49.73 L23.03 49.58 C23.4 49.35 23.78 49.05 24.07 48.75 L24.3 48.6
										 L24.53 48.45 C25.13 48.15 25.73 48 26.4 48 C27.6 48 28.65 48.6 30.37 49.58 C30.68 49.73
										 31.05 49.95 31.43 50.18 C34.27 51.75 35.18 53.78 35.85 56.78 C36.45 59.32 37.05 64.73 37.2
										 67.35 L37.35 69.75 L0 69.75 Z" class="st1"/>
						</g>
						<g id="shape225-16" v:mID="225" v:groupContext="shape" v:layerMember="0" transform="translate(2.4,-2.25)">
							<title>Sheet.225</title>
							<path d="M31.28 59.55 C30.68 56.85 29.93 55.58 27.9 54.45 C25.88 53.33 24.75 52.58 24 52.58 C23.7 52.58
										 23.4 52.65 23.18 52.8 C22.65 53.25 22.13 53.63 21.6 54 C21.6 54 21.6 54 21.6 54 C21.53 54.08
										 21.45 54.15 21.3 54.15 C20.7 54.53 20.17 54.75 19.57 54.9 C18.52 55.28 17.4 55.5 16.28 55.5
										 C15.08 55.5 14.03 55.28 12.98 54.9 C12.37 54.75 11.85 54.45 11.25 54.15 C10.58 53.78 9.98
										 53.33 9.37 52.8 C9.15 52.65 8.93 52.58 8.55 52.58 C7.8 52.58 7.05 53.1 4.65 54.45 C2.7 55.58
										 1.95 56.85 1.35 59.55 C0.83 61.88 0.23 67.2 0 69.75 L32.55 69.75 C32.4 67.2 31.8 61.88 31.28
										 59.55 Z" class="st2"/>
						</g>
						<g id="shape226-18" v:mID="226" v:groupContext="shape" v:layerMember="0"
								transform="translate(8.475,-17.85)">
							<title>Sheet.226</title>
							<path d="M10.2 69.75 C4.57 69.75 0 64.8 0 58.65 C0 52.5 4.57 47.55 10.2 47.55 C15.83 47.55 20.4 52.5
										 20.4 58.65 C20.4 64.8 15.83 69.75 10.2 69.75 Z" class="st1"/>
						</g>
						<g id="shape227-20" v:mID="227" v:groupContext="shape" v:layerMember="0"
								transform="translate(10.725,-20.1)">
							<title>Sheet.227</title>
							<path d="M7.95 69.75 C3.6 69.75 0 65.78 0 60.9 C0 56.03 3.6 52.05 7.95 52.05 C12.3 52.05 15.9 56.03 15.9
										 60.9 C15.9 65.78 12.37 69.75 7.95 69.75 Z" class="st2"/>
						</g>
					</g>
				</g>
				<g id="group228-22" transform="translate(33.75,3.12639E-13)" v:mID="228" v:groupContext="group" v:layerMember="0">
					<title>Sheet.228</title>
					<g id="group229-23" v:mID="229" v:groupContext="group" v:layerMember="0">
						<title>Sheet.229</title>
						<g id="shape230-24" v:mID="230" v:groupContext="shape" v:layerMember="0">
							<title>Sheet.230</title>
							<path d="M4.5 69.75 C2.03 69.75 0 67.73 0 65.25 L0 44.25 C0 41.77 2.03 39.75 4.5 39.75 L25.5 39.75 C27.98
										 39.75 30 41.77 30 44.25 L30 65.25 C30 67.73 27.98 69.75 25.5 69.75 L4.5 69.75 Z"
									class="st1"/>
						</g>
						<g id="shape231-26" v:mID="231" v:groupContext="shape" v:layerMember="0" transform="translate(2.25,-2.25)">
							<title>Sheet.231</title>
							<path d="M25.5 67.5 C25.5 68.78 24.53 69.75 23.25 69.75 L2.25 69.75 C0.98 69.75 0 68.78 0 67.5 L0 46.5
										 C0 45.23 0.98 44.25 2.25 44.25 L23.25 44.25 C24.53 44.25 25.5 45.23 25.5 46.5 L25.5 67.5
										 Z" class="st3"/>
						</g>
					</g>
					<g id="shape232-28" v:mID="232" v:groupContext="shape" v:layerMember="0" transform="translate(9.675,-3.975)">
						<title>Sheet.232</title>
						<path d="M9.9 54.15 C9.9 51.3 7.73 48.97 4.95 48.97 C2.25 48.97 0 51.3 0 54.08 C0 56.1 1.35 57.9 3 58.72
									 L3 67.65 L4.95 69.75 L7.13 67.5 L5.63 65.93 L7.2 64.28 L7.2 64.2 L5.47 62.33 L6.9 60.83 L6.9
									 60.22 L6.9 58.72 C8.55 57.9 9.9 56.17 9.9 54.15 ZM4.95 54.3 C4.13 54.3 3.38 53.62 3.38 52.72
									 C3.38 51.9 4.05 51.15 4.95 51.15 C5.77 51.15 6.53 51.83 6.53 52.72 C6.53 53.62 5.85 54.3 4.95
									 54.3 Z" class="st1"/>
					</g>
				</g>
			</g>
		</g>
	</g>
</svg>
