<?xml version="1.0" encoding="UTF-8" standalone="no"?>
<!DOCTYPE svg PUBLIC "-//W3C//DTD SVG 1.1//EN" "http://www.w3.org/Graphics/SVG/1.1/DTD/svg11.dtd">
<!-- Generated by Microsoft Visio, SVG Export Skype Commercial User.svg Page-1 -->
<svg xmlns="http://www.w3.org/2000/svg" xmlns:xlink="http://www.w3.org/1999/xlink" xmlns:ev="http://www.w3.org/2001/xml-events"
		xmlns:v="http://schemas.microsoft.com/visio/2003/SVGExtensions/" width="0.96875in" height="0.953125in"
		viewBox="0 0 69.75 68.625" xml:space="preserve" color-interpolation-filters="sRGB" class="st4">
	<v:documentProperties v:langID="4108" v:metric="true" v:viewMarkup="false"/>

	<style type="text/css">
	<![CDATA[
		.st1 {fill:#ffffff;stroke:none;stroke-linecap:butt;stroke-width:0.75}
		.st2 {fill:#29aae1;stroke:none;stroke-linecap:butt;stroke-width:0.75}
		.st3 {fill:#505050;stroke:none;stroke-linecap:butt;stroke-width:0.75}
		.st4 {fill:none;fill-rule:evenodd;font-size:12px;overflow:visible;stroke-linecap:square;stroke-miterlimit:3}
	]]>
	</style>

	<g v:mID="0" v:index="1" v:groupContext="foregroundPage">
		<title>Page-1</title>
		<v:pageProperties v:drawingScale="0.0393701" v:pageScale="0.0393701" v:drawingUnits="24" v:shadowOffsetX="8.50394"
				v:shadowOffsetY="-8.50394"/>
		<v:layer v:name="symbols" v:index="0"/>
		<g id="group233-1" transform="translate(3.1875,-6.5625)" v:mID="233" v:groupContext="group" v:layerMember="0">
			<title>Skype Commercial User</title>
			<g id="group234-2" v:mID="234" v:groupContext="group" v:layerMember="0">
				<title>Sheet.234</title>
				<g id="group235-3" transform="translate(37.35,-33.75)" v:mID="235" v:groupContext="group" v:layerMember="0">
					<title>Sheet.235</title>
					<g id="shape236-4" v:mID="236" v:groupContext="shape" v:layerMember="0">
						<title>Sheet.236</title>
						<path d="M17.92 68.62 C16.72 68.62 15.6 68.4 14.55 67.87 C14.1 67.95 13.58 67.95 13.2 67.95 C6.3 67.95 0.67
									 62.32 0.67 55.42 C0.67 54.98 0.67 54.52 0.75 54 C0.3 52.95 -0 51.75 0 50.62 C0.07 46.12 3.75
									 42.37 8.4 42.37 C9.6 42.38 10.72 42.6 11.77 43.12 C12.22 43.05 12.75 43.05 13.2 43.05 C20.1
									 43.05 25.72 48.68 25.72 55.57 C25.72 56.03 25.72 56.48 25.65 57 C26.1 58.05 26.4 59.25 26.4
									 60.37 C26.25 64.88 22.57 68.62 17.92 68.62 Z" class="st1"/>
					</g>
					<g id="shape237-6" v:mID="237" v:groupContext="shape" v:layerMember="0" transform="translate(2.325,-2.175)">
						<title>Sheet.237</title>
						<path d="M20.92 59.48 C21 58.87 21.07 58.27 21.07 57.68 C21.07 52.05 16.5 47.4 10.8 47.4 C10.2 47.4 9.6 47.48
									 9 47.55 C8.1 47.03 7.05 46.73 6 46.73 C2.7 46.8 0 49.5 0 52.88 C0 54 0.3 54.97 0.82 55.88 C0.75
									 56.47 0.67 57.08 0.67 57.68 C0.67 63.3 5.25 67.95 10.95 67.95 C11.55 67.95 12.15 67.87 12.75
									 67.8 C13.65 68.32 14.7 68.62 15.75 68.62 C19.12 68.62 21.82 65.92 21.82 62.55 C21.67 61.35 21.45
									 60.38 20.92 59.48 Z" class="st2"/>
					</g>
					<g id="shape238-8" v:mID="238" v:groupContext="shape" v:layerMember="0" transform="translate(7.875,-6.6)">
						<title>Sheet.238</title>
						<path d="M5.32 68.63 C1.73 68.63 0 66.82 0 65.47 C0 64.8 0.52 64.28 1.2 64.27 C2.77 64.28 2.32 66.6 5.25
									 66.6 C6.75 66.6 7.65 65.7 7.65 64.87 C7.65 64.35 7.35 63.83 6.37 63.6 L3.15 62.77 C0.52 62.1
									 0.08 60.67 0.08 59.32 C0.08 56.55 2.62 55.57 5.02 55.57 C7.27 55.57 9.9 56.77 9.9 58.5 C9.9
									 59.25 9.3 59.62 8.62 59.62 C7.27 59.62 7.5 57.75 4.87 57.75 C3.52 57.75 2.85 58.35 2.85 59.25
									 C2.85 60.07 3.9 60.45 4.8 60.6 L7.2 61.12 C9.82 61.72 10.5 63.22 10.5 64.65 C10.57 66.9 8.77
									 68.63 5.32 68.63 Z" class="st1"/>
					</g>
				</g>
				<g id="group239-10" v:mID="239" v:groupContext="group" v:layerMember="0">
					<title>Sheet.239</title>
					<g id="shape240-11" v:mID="240" v:groupContext="shape" v:layerMember="0">
						<title>Sheet.240</title>
						<path d="M50.85 68.62 L50.7 66.22 C50.47 62.55 49.58 54.9 48.75 51.37 C47.85 47.48 46.65 44.78 42.9 42.67
									 L41.55 41.92 C38.93 40.43 37.8 39.75 36.3 39.75 C35.47 39.75 34.8 39.9 34.05 40.28 L32.93 40.87
									 L33.83 40.12 C36.9 37.43 38.85 33.3 38.85 28.65 C38.93 20.48 32.92 13.88 25.42 13.87 C18 13.88
									 11.92 20.48 11.92 28.65 C11.92 33.3 13.87 37.43 16.95 40.12 L17.85 40.87 L16.65 40.28 C15.98
									 39.9 15.23 39.75 14.4 39.75 C12.9 39.75 11.7 40.43 9.15 41.92 L7.8 42.67 C4.12 44.78 2.85 47.48
									 1.95 51.37 C1.13 54.9 0.3 62.55 0 66.22 L0 68.62 L50.85 68.62 Z" class="st1"/>
					</g>
					<g id="shape241-13" v:mID="241" v:groupContext="shape" v:layerMember="0" transform="translate(2.475,-2.325)">
						<title>Sheet.241</title>
						<path d="M44.03 54.22 C43.13 50.4 42.15 48.6 39.3 47.02 C36.45 45.37 34.88 44.4 33.83 44.4 C33.38 44.4 33
									 44.47 32.7 44.7 C32.02 45.3 31.27 45.9 30.45 46.35 C30.3 46.42 30.15 46.5 30.08 46.57 C29.25
									 47.1 28.43 47.4 27.68 47.7 C26.18 48.22 24.6 48.52 22.95 48.52 C21.3 48.52 19.72 48.22 18.22
									 47.7 C17.4 47.47 16.65 47.1 15.83 46.57 C14.85 46.05 13.95 45.37 13.2 44.62 C12.9 44.47 12.52
									 44.32 12.08 44.32 C11.02 44.32 9.9 45.07 6.6 46.95 C3.75 48.6 2.7 50.4 1.88 54.15 C1.12 57.45
									 0.23 65.02 0 68.62 L46.13 68.62 C45.67 65.1 44.77 57.52 44.03 54.22 Z" class="st3"/>
					</g>
					<g id="shape242-15" v:mID="242" v:groupContext="shape" v:layerMember="0" transform="translate(14.175,-27.525)">
						<title>Sheet.242</title>
						<path d="M11.25 68.62 C5.02 68.62 -0 63 0 56.1 C0 49.2 5.02 43.65 11.25 43.65 C17.47 43.65 22.5 49.28 22.5
									 56.18 C22.5 63.08 17.47 68.62 11.25 68.62 Z" class="st3"/>
					</g>
				</g>
			</g>
		</g>
	</g>
</svg>
