<?xml version="1.0" encoding="UTF-8" standalone="no"?>
<!DOCTYPE svg PUBLIC "-//W3C//DTD SVG 1.1//EN" "http://www.w3.org/Graphics/SVG/1.1/DTD/svg11.dtd">
<!-- Generated by Microsoft Visio, SVG Export Skype for Business User.svg Page-1 -->
<svg xmlns="http://www.w3.org/2000/svg" xmlns:xlink="http://www.w3.org/1999/xlink" xmlns:ev="http://www.w3.org/2001/xml-events"
		xmlns:v="http://schemas.microsoft.com/visio/2003/SVGExtensions/" width="0.96875in" height="0.953125in"
		viewBox="0 0 69.75 68.625" xml:space="preserve" color-interpolation-filters="sRGB" class="st4">
	<v:documentProperties v:langID="4108" v:metric="true" v:viewMarkup="false"/>

	<style type="text/css">
	<![CDATA[
		.st1 {fill:#ffffff;stroke:none;stroke-linecap:butt;stroke-width:0.75}
		.st2 {fill:#505050;stroke:none;stroke-linecap:butt;stroke-width:0.75}
		.st3 {fill:#00adeb;stroke:none;stroke-linecap:butt;stroke-width:0.75}
		.st4 {fill:none;fill-rule:evenodd;font-size:12px;overflow:visible;stroke-linecap:square;stroke-miterlimit:3}
	]]>
	</style>

	<g v:mID="0" v:index="1" v:groupContext="foregroundPage">
		<title>Page-1</title>
		<v:pageProperties v:drawingScale="0.0393701" v:pageScale="0.0393701" v:drawingUnits="24" v:shadowOffsetX="8.50394"
				v:shadowOffsetY="-8.50394"/>
		<v:layer v:name="symbols" v:index="0"/>
		<g id="group243-1" transform="translate(3.375,-6.5625)" v:mID="243" v:groupContext="group" v:layerMember="0">
			<title>Skype for Business User</title>
			<g id="group244-2" v:mID="244" v:groupContext="group" v:layerMember="0">
				<title>Sheet.244</title>
				<g id="group245-3" v:mID="245" v:groupContext="group" v:layerMember="0">
					<title>Sheet.245</title>
					<g id="shape246-4" v:mID="246" v:groupContext="shape" v:layerMember="0">
						<title>Sheet.246</title>
						<path d="M50.92 68.62 L50.77 66.22 C50.55 62.55 49.65 54.9 48.82 51.37 C47.92 47.48 46.72 44.78 42.97 42.67
									 L41.62 41.92 C39 40.43 37.87 39.75 36.37 39.75 C35.55 39.75 34.87 39.9 34.12 40.28 L33 40.87
									 L33.9 40.12 C36.97 37.43 38.92 33.3 38.92 28.65 C39 20.48 32.92 13.88 25.5 13.87 L25.42 13.87
									 C18 13.88 11.93 20.48 11.92 28.65 C11.93 33.3 13.87 37.43 16.95 40.12 L17.85 40.87 L16.65 40.28
									 C15.97 39.9 15.23 39.75 14.4 39.75 C12.9 39.75 11.7 40.43 9.15 41.92 L7.8 42.67 C4.12 44.78
									 2.85 47.48 1.95 51.37 C1.13 54.9 0.3 62.55 0 66.22 L0 68.62 L50.92 68.62 Z" class="st1"/>
					</g>
					<g id="shape247-6" v:mID="247" v:groupContext="shape" v:layerMember="0" transform="translate(2.55,-2.325)">
						<title>Sheet.247</title>
						<path d="M44.02 54.22 C43.13 50.4 42.15 48.6 39.3 47.02 C36.45 45.37 34.87 44.4 33.82 44.4 C33.38 44.4 33
									 44.47 32.7 44.7 C32.02 45.3 31.28 45.9 30.45 46.35 C30.3 46.42 30.15 46.5 30.07 46.57 C29.25
									 47.1 28.43 47.4 27.67 47.7 C26.18 48.22 24.6 48.52 22.95 48.52 C21.3 48.52 19.72 48.22 18.22
									 47.7 C17.4 47.47 16.65 47.1 15.82 46.57 C14.85 46.05 13.95 45.37 13.2 44.62 C12.9 44.47 12.52
									 44.32 12.07 44.32 C11.02 44.32 9.9 45.07 6.6 46.95 C3.75 48.6 2.7 50.4 1.88 54.15 C1.12 57.45
									 0.22 65.02 0 68.62 L46.12 68.62 C45.67 65.1 44.77 57.52 44.02 54.22 Z" class="st2"/>
					</g>
					<g id="shape248-8" v:mID="248" v:groupContext="shape" v:layerMember="0" transform="translate(14.175,-27.525)">
						<title>Sheet.248</title>
						<path d="M11.25 68.62 C5.02 68.62 0 63 0 56.1 C0 49.2 5.02 43.65 11.25 43.65 C17.47 43.65 22.5 49.28 22.5
									 56.18 C22.5 63.08 17.47 68.62 11.25 68.62 Z" class="st2"/>
					</g>
				</g>
				<g id="group249-10" transform="translate(37.425,-33.75)" v:mID="249" v:groupContext="group" v:layerMember="0">
					<title>Sheet.249</title>
					<g id="shape250-11" v:mID="250" v:groupContext="shape" v:layerMember="0">
						<title>Sheet.250</title>
						<path d="M17.92 68.62 C16.72 68.62 15.6 68.4 14.55 67.87 C14.1 67.95 13.65 67.95 13.12 67.95 C6.23 67.95
									 0.68 62.32 0.67 55.5 C0.67 55.05 0.67 54.6 0.75 54.07 C0.3 53.03 0 51.82 0 50.7 C0 46.12 3.75
									 42.38 8.32 42.37 C9.52 42.38 10.65 42.6 11.7 43.12 C12.15 43.05 12.6 43.05 13.12 43.05 C20.02
									 43.05 25.57 48.68 25.57 55.5 C25.57 55.95 25.57 56.4 25.5 56.92 C25.95 57.97 26.25 59.17 26.25
									 60.3 C26.25 64.88 22.5 68.62 17.92 68.62 Z" class="st1"/>
					</g>
					<g id="shape251-13" v:mID="251" v:groupContext="shape" v:layerMember="0" transform="translate(2.25,-2.25)">
						<title>Sheet.251</title>
						<path d="M20.92 59.55 C21 58.95 21.07 58.35 21.07 57.75 C21.07 52.13 16.5 47.55 10.87 47.55 C10.27 47.55
									 9.67 47.62 9.07 47.7 C8.17 47.18 7.12 46.87 6.07 46.87 C2.7 46.87 0 49.57 0 52.95 C0 54.07 0.3
									 55.05 0.82 55.95 C0.75 56.55 0.68 57.15 0.67 57.75 C0.68 63.37 5.25 67.95 10.87 67.95 C11.47
									 67.95 12.07 67.87 12.67 67.8 C13.57 68.32 14.62 68.62 15.67 68.62 C19.05 68.62 21.75 65.93 21.75
									 62.55 C21.75 61.43 21.45 60.45 20.92 59.55 ZM15.67 67.05 C14.85 67.05 14.1 66.82 13.42 66.45
									 L12.9 66.15 L12.37 66.22 C11.92 66.3 11.4 66.37 10.87 66.37 C6.08 66.37 2.17 62.47 2.17 57.67
									 C2.17 57.15 2.25 56.63 2.32 56.17 L2.4 55.65 L2.1 55.2 C1.72 54.52 1.5 53.77 1.5 52.95 C1.5
									 50.47 3.52 48.45 6 48.45 C6.83 48.45 7.58 48.68 8.25 49.05 L8.77 49.35 L9.3 49.27 C9.82 49.2
									 10.27 49.12 10.8 49.12 C15.6 49.12 19.5 53.03 19.5 57.82 C19.5 58.35 19.42 58.87 19.35 59.32
									 L19.27 59.85 L19.57 60.37 C19.95 61.05 20.17 61.8 20.17 62.62 C20.17 65.03 18.15 67.05 15.67
									 67.05 Z" class="st3"/>
					</g>
					<g id="shape252-15" v:mID="252" v:groupContext="shape" v:layerMember="0" transform="translate(7.95,-6.9)">
						<title>Sheet.252</title>
						<path d="M7.05 61.42 L4.72 60.9 C3.82 60.67 2.85 60.45 2.85 59.55 C2.85 58.72 3.52 58.12 4.8 58.12 C7.35
									 58.12 7.12 59.92 8.4 59.92 C9.07 59.92 9.67 59.55 9.67 58.87 C9.67 57.3 7.12 56.1 4.95 56.1
									 C2.62 56.1 0.15 57.07 0.15 59.7 C0.15 60.97 0.6 62.32 3.07 63 L6.15 63.75 C7.12 63.97 7.35 64.5
									 7.35 65.02 C7.35 65.85 6.52 66.67 5.1 66.67 C2.32 66.67 2.7 64.42 1.2 64.42 C0.52 64.42 0 64.87
									 0 65.55 C0 66.82 1.57 68.62 5.1 68.62 C8.4 68.62 10.12 66.97 10.12 64.8 C10.2 63.45 9.52 62.02
									 7.05 61.42 Z" class="st3"/>
					</g>
				</g>
			</g>
		</g>
	</g>
</svg>
