<?xml version="1.0" encoding="UTF-8" standalone="no"?>
<!DOCTYPE svg PUBLIC "-//W3C//DTD SVG 1.1//EN" "http://www.w3.org/Graphics/SVG/1.1/DTD/svg11.dtd">
<!-- Generated by Microsoft Visio, SVG Export Tenant Admin.svg Page-1 -->
<svg xmlns="http://www.w3.org/2000/svg" xmlns:xlink="http://www.w3.org/1999/xlink" xmlns:ev="http://www.w3.org/2001/xml-events"
		xmlns:v="http://schemas.microsoft.com/visio/2003/SVGExtensions/" width="0.938281in" height="1.01563in"
		viewBox="0 0 67.5563 73.125" xml:space="preserve" color-interpolation-filters="sRGB" class="st3">
	<v:documentProperties v:langID="4108" v:metric="true" v:viewMarkup="false"/>

	<style type="text/css">
	<![CDATA[
		.st1 {fill:#ffffff;stroke:none;stroke-linecap:butt;stroke-width:0.75}
		.st2 {fill:#515251;stroke:none;stroke-linecap:butt;stroke-width:0.75}
		.st3 {fill:none;fill-rule:evenodd;font-size:12px;overflow:visible;stroke-linecap:square;stroke-miterlimit:3}
	]]>
	</style>

	<g v:mID="0" v:index="1" v:groupContext="foregroundPage">
		<title>Page-1</title>
		<v:pageProperties v:drawingScale="0.0393701" v:pageScale="0.0393701" v:drawingUnits="24" v:shadowOffsetX="8.50394"
				v:shadowOffsetY="-8.50394"/>
		<v:layer v:name="symbols" v:index="0"/>
		<g id="group253-1" transform="translate(6.13125,-5.4375)" v:mID="253" v:groupContext="group" v:layerMember="0">
			<title>Tenant Admin</title>
			<g id="group254-2" transform="translate(0,-7.5)" v:mID="254" v:groupContext="group" v:layerMember="0">
				<title>Sheet.254</title>
				<g id="shape255-3" v:mID="255" v:groupContext="shape" v:layerMember="0">
					<title>Sheet.255</title>
					<path d="M50.92 73.13 L50.77 70.73 C50.55 67.05 49.65 59.4 48.82 55.88 C47.92 51.98 46.73 49.28 42.97 47.18 L41.62
								 46.43 C39 44.93 37.88 44.25 36.37 44.25 C35.55 44.25 34.87 44.4 34.13 44.78 L33 45.38 L33.9 44.63
								 C36.97 41.93 38.93 37.8 38.93 33.15 C39 24.98 32.93 18.38 25.5 18.38 L25.42 18.38 C18 18.38 11.93
								 24.98 11.93 33.15 C11.93 37.8 13.87 41.93 16.95 44.63 L17.85 45.38 L16.65 44.78 C15.97 44.4 15.23
								 44.25 14.4 44.25 C12.9 44.25 11.7 44.93 9.15 46.43 L7.8 47.18 C4.2 49.35 2.93 51.98 2.02 55.88 C1.2
								 59.4 0.38 67.05 0.07 70.73 L0 73.13 L50.92 73.13 Z" class="st1"/>
				</g>
				<g id="shape256-5" v:mID="256" v:groupContext="shape" v:layerMember="0" transform="translate(2.55,-2.325)">
					<title>Sheet.256</title>
					<path d="M44.03 58.73 C43.13 54.9 42.15 53.1 39.3 51.53 C36.45 49.88 34.88 48.9 33.82 48.9 C33.38 48.9 33 48.98
								 32.7 49.2 C32.02 49.8 31.28 50.4 30.45 50.85 C30.45 50.85 30.45 50.85 30.45 50.85 C30.3 50.93 30.15
								 51 30.07 51.08 C29.25 51.6 28.43 51.9 27.67 52.2 C26.18 52.73 24.6 53.03 22.95 53.03 C21.3 53.03
								 19.72 52.73 18.22 52.2 C17.4 51.98 16.65 51.6 15.83 51.08 C14.85 50.55 13.95 49.88 13.2 49.13 C12.9
								 48.98 12.52 48.83 12.08 48.83 C11.02 48.83 9.9 49.58 6.6 51.45 C3.75 53.1 2.7 54.9 1.87 58.65 C1.12
								 61.95 0.23 69.53 0 73.13 L46.13 73.13 C45.67 69.6 44.77 62.03 44.03 58.73 Z" class="st2"/>
				</g>
				<g id="shape257-7" v:mID="257" v:groupContext="shape" v:layerMember="0" transform="translate(14.175,-27.525)">
					<title>Sheet.257</title>
					<path d="M11.25 73.13 C5.02 73.13 0 67.5 0 60.6 C0 53.7 5.02 48.15 11.25 48.15 C17.47 48.15 22.5 53.78 22.5 60.68
								 C22.5 67.58 17.47 73.13 11.25 73.13 Z" class="st2"/>
				</g>
			</g>
			<g id="group258-9" transform="translate(23.925,3.12639E-13)" v:mID="258" v:groupContext="group" v:layerMember="0">
				<title>Sheet.258</title>
				<g id="shape259-10" v:mID="259" v:groupContext="shape" v:layerMember="0">
					<title>Sheet.259</title>
					<path d="M36.75 57.3 C36.75 57.23 36.75 57.23 36.75 57.15 C36.75 54.3 34.27 51.68 31.42 51.38 C31.28 51.38 31.05
								 51.38 30.6 51.38 L26.25 51.38 C26.25 49.2 24.67 47.63 22.5 47.63 L14.25 47.63 C12.07 47.63 10.5
								 49.2 10.5 51.38 L5.78 51.38 C2.7 51.38 0.08 54 0 57.15 L0 57.38 L0 73.13 L36.75 73.13 L36.75 57.3
								 Z" class="st1"/>
				</g>
				<g id="shape260-12" v:mID="260" v:groupContext="shape" v:layerMember="0" transform="translate(2.25,-2.25)">
					<title>Sheet.260</title>
					<path d="M25.5 63.15 C25.5 63.68 24.97 64.13 24.37 64.13 C23.77 64.13 23.25 63.68 23.25 63.15 L23.25 61.88 L9
								 61.88 L9 63.15 C9 63.68 8.47 64.13 7.87 64.13 C7.28 64.13 6.75 63.68 6.75 63.15 L6.75 61.88 L0 61.88
								 L0 73.13 L32.25 73.13 L32.25 61.88 L25.5 61.88 L25.5 63.15 Z" class="st2"/>
				</g>
				<g id="shape261-14" v:mID="261" v:groupContext="shape" v:layerMember="0" transform="translate(2.25,-15)">
					<title>Sheet.261</title>
					<path d="M32.25 72.23 C32.25 70.43 30.6 68.85 28.87 68.63 C28.8 68.63 28.72 68.63 28.27 68.63 L21.75 68.63 C21.75
								 68.63 21.75 68.63 21.75 68.63 L21.75 66.38 C21.75 65.48 21.15 64.88 20.25 64.88 L12 64.88 C11.1
								 64.88 10.5 65.48 10.5 66.38 L10.5 68.63 L4.13 68.63 L3.53 68.63 C1.65 68.63 0 70.35 0 72.23 C0 72.3
								 0 72.3 0 72.38 C0 72.38 0 72.38 0 72.45 L0 73.13 L6.75 73.13 L6.75 72.6 C6.75 72.08 7.28 71.63 7.87
								 71.63 C8.47 71.63 9 72.08 9 72.6 L9 73.13 L23.25 73.13 L23.25 72.6 C23.25 72.08 23.77 71.63 24.37
								 71.63 C24.97 71.63 25.5 72.08 25.5 72.6 L25.5 73.13 L32.25 73.13 L32.25 72.45 C32.25 72.45 32.25
								 72.38 32.25 72.38 C32.25 72.3 32.25 72.23 32.25 72.23 ZM12 66.38 L20.25 66.38 L20.25 68.63 L12 68.63
								 L12 66.38 Z" class="st2"/>
				</g>
			</g>
		</g>
	</g>
</svg>
