<?xml version="1.0" encoding="UTF-8" standalone="no"?>
<!DOCTYPE svg PUBLIC "-//W3C//DTD SVG 1.1//EN" "http://www.w3.org/Graphics/SVG/1.1/DTD/svg11.dtd">
<!-- Generated by Microsoft Visio, SVG Export UM-Enabled User.svg Page-1 -->
<svg xmlns="http://www.w3.org/2000/svg" xmlns:xlink="http://www.w3.org/1999/xlink" xmlns:ev="http://www.w3.org/2001/xml-events"
		xmlns:v="http://schemas.microsoft.com/visio/2003/SVGExtensions/" width="0.996094in" height="1.03125in"
		viewBox="0 0 71.7188 74.25" xml:space="preserve" color-interpolation-filters="sRGB" class="st5">
	<v:documentProperties v:langID="4108" v:metric="true" v:viewMarkup="false"/>

	<style type="text/css">
	<![CDATA[
		.st1 {fill:#ffffff;stroke:none;stroke-linecap:butt;stroke-width:0.75}
		.st2 {fill:#515251;stroke:none;stroke-linecap:butt;stroke-width:0.75}
		.st3 {fill:#515150;stroke:none;stroke-linecap:butt;stroke-width:0.75}
		.st4 {fill:#525352;stroke:none;stroke-linecap:butt;stroke-width:0.75}
		.st5 {fill:none;fill-rule:evenodd;font-size:12px;overflow:visible;stroke-linecap:square;stroke-miterlimit:3}
	]]>
	</style>

	<g v:mID="0" v:index="1" v:groupContext="foregroundPage">
		<title>Page-1</title>
		<v:pageProperties v:drawingScale="0.0393701" v:pageScale="0.0393701" v:drawingUnits="24" v:shadowOffsetX="8.50394"
				v:shadowOffsetY="-8.50394"/>
		<v:layer v:name="symbols" v:index="0"/>
		<g id="group262-1" transform="translate(4.78125,-6.1875)" v:mID="262" v:groupContext="group" v:layerMember="0">
			<title>UM-Enabled User</title>
			<g id="group263-2" transform="translate(0,-8.25)" v:mID="263" v:groupContext="group" v:layerMember="0">
				<title>Sheet.263</title>
				<g id="shape264-3" v:mID="264" v:groupContext="shape" v:layerMember="0">
					<title>Sheet.264</title>
					<path d="M50.93 74.25 L50.78 71.85 C50.55 68.17 49.65 60.52 48.83 57 C47.93 53.1 46.73 50.4 42.98 48.3 L41.63
								 47.55 C39 46.05 37.88 45.37 36.37 45.37 C35.55 45.37 34.88 45.52 34.13 45.9 L33 46.5 L33.9 45.75
								 C36.98 43.05 38.93 38.92 38.93 34.27 C39 26.1 32.93 19.5 25.5 19.5 L25.42 19.5 C18 19.5 11.93 26.1
								 11.93 34.27 C11.93 38.92 13.87 43.05 16.95 45.75 L17.85 46.5 L16.65 45.9 C15.97 45.52 15.23 45.37
								 14.4 45.37 C12.9 45.37 11.7 46.05 9.15 47.55 L7.8 48.3 C4.2 50.47 3 53.1 2.1 57 C1.28 60.52 0.45
								 68.17 0.15 71.85 L0 74.25 L50.93 74.25 Z" class="st1"/>
				</g>
				<g id="shape265-5" v:mID="265" v:groupContext="shape" v:layerMember="0" transform="translate(2.625,-2.325)">
					<title>Sheet.265</title>
					<path d="M44.03 59.85 C43.13 56.02 42.15 54.22 39.3 52.65 C36.45 51 34.88 50.02 33.83 50.02 C33.38 50.02 33 50.1
								 32.7 50.32 C32.03 50.92 31.28 51.52 30.45 51.97 C30.45 51.97 30.45 51.97 30.45 51.97 C30.3 52.05
								 30.15 52.12 30.08 52.2 C29.25 52.72 28.43 53.02 27.68 53.32 C26.18 53.85 24.6 54.15 22.95 54.15
								 C21.3 54.15 19.72 53.85 18.23 53.32 C17.4 53.1 16.65 52.72 15.83 52.2 C14.85 51.67 13.95 51 13.2
								 50.25 C12.9 50.1 12.52 49.95 12.08 49.95 C11.02 49.95 9.9 50.7 6.6 52.57 C3.75 54.22 2.7 56.02 1.88
								 59.77 C1.13 63.07 0.23 70.65 0 74.25 L46.13 74.25 C45.6 70.72 44.78 63.15 44.03 59.85 Z"
							class="st2"/>
				</g>
				<g id="shape266-7" v:mID="266" v:groupContext="shape" v:layerMember="0" transform="translate(14.175,-27.525)">
					<title>Sheet.266</title>
					<path d="M11.25 74.25 C5.02 74.25 0 68.62 0 61.72 C-0 54.82 5.1 49.27 11.25 49.27 C17.48 49.27 22.5 54.9 22.5
								 61.8 C22.5 68.7 17.48 74.25 11.25 74.25 Z" class="st2"/>
				</g>
			</g>
			<g id="group267-9" transform="translate(29.475,-3.12639E-13)" v:mID="267" v:groupContext="group" v:layerMember="0">
				<title>Sheet.267</title>
				<g id="shape268-10" v:mID="268" v:groupContext="shape" v:layerMember="0">
					<title>Sheet.268</title>
					<path d="M29.77 45 L11.78 45 C10.73 45 9.82 45.37 9.15 45.97 C8.77 45.67 8.33 45.45 7.8 45.3 C6.98 45.07 6.53
								 45 5.48 45 C4.43 45 3.9 45.07 3.07 45.3 C1.28 45.82 0.23 47.17 0.08 49.05 C-0 49.57 0.08 50.25 0.08
								 51.37 C0.15 52.95 0.23 55.5 0.23 59.92 C0.23 63.45 0.15 65.7 0.08 67.27 C-0 68.55 0 69.37 0.08 70.12
								 C0.15 72 1.35 73.42 3.15 73.95 C3.9 74.17 4.65 74.25 5.4 74.25 C6.23 74.25 6.98 74.17 7.8 73.95
								 C8.33 73.8 8.85 73.57 9.22 73.2 C9.9 73.8 10.8 74.17 11.85 74.17 L29.85 74.17 C32.02 74.17 33.6
								 72.6 33.6 70.42 L33.6 48.75 C33.53 46.57 31.95 45 29.77 45 Z" class="st1"/>
				</g>
				<g id="shape269-12" v:mID="269" v:groupContext="shape" v:layerMember="0" transform="translate(2.1,-2.175)">
					<title>Sheet.269</title>
					<path d="M6.45 51.37 C6.38 50.4 5.85 49.87 5.03 49.57 C4.5 49.42 4.28 49.35 3.3 49.35 C2.4 49.35 2.17 49.42 1.58
								 49.57 C0.75 49.87 0.22 50.4 0.15 51.37 C0.07 52.42 0.3 54.6 0.3 62.1 C0.3 68.4 0 70.72 0.15 72.22
								 C0.22 73.2 0.75 73.72 1.58 74.02 C2.1 74.17 2.62 74.25 3.23 74.25 C3.82 74.25 4.43 74.17 4.95 74.02
								 C5.78 73.8 6.3 73.2 6.38 72.22 C6.45 70.72 6.23 68.62 6.23 62.25 C6.3 54.82 6.53 52.5 6.45 51.37
								 Z" class="st3"/>
				</g>
				<g id="shape270-14" v:mID="270" v:groupContext="shape" v:layerMember="0" transform="translate(10.275,-2.25)">
					<title>Sheet.270</title>
					<path d="M19.5 49.5 L1.5 49.5 C0.52 49.5 0 50.02 0 51 L0 72.75 C0 73.72 0.52 74.25 1.5 74.25 L19.5 74.25 C20.47
								 74.25 21 73.72 21 72.75 L21 51 C21 50.02 20.47 49.5 19.5 49.5 ZM7.5 69.75 C7.5 70.2 7.2 70.5 6.75
								 70.5 L5.25 70.5 C4.8 70.5 4.5 70.2 4.5 69.75 L4.5 69 C4.5 68.55 4.8 68.25 5.25 68.25 L6.75 68.25
								 C7.2 68.25 7.5 68.55 7.5 69 L7.5 69.75 ZM7.5 66 C7.5 66.45 7.2 66.75 6.75 66.75 L5.25 66.75 C4.8
								 66.75 4.5 66.45 4.5 66 L4.5 65.25 C4.5 64.8 4.8 64.5 5.25 64.5 L6.75 64.5 C7.2 64.5 7.5 64.8 7.5
								 65.25 L7.5 66 ZM7.5 62.25 C7.5 62.7 7.2 63 6.75 63 L5.25 63 C4.8 63 4.5 62.7 4.5 62.25 L4.5 61.5
								 C4.5 61.05 4.8 60.75 5.25 60.75 L6.75 60.75 C7.2 60.75 7.5 61.05 7.5 61.5 L7.5 62.25 ZM12 69.75
								 C12 70.2 11.7 70.5 11.25 70.5 L9.75 70.5 C9.3 70.5 9 70.2 9 69.75 L9 69 C9 68.55 9.3 68.25 9.75
								 68.25 L11.25 68.25 C11.7 68.25 12 68.55 12 69 L12 69.75 ZM12 66 C12 66.45 11.7 66.75 11.25 66.75
								 L9.75 66.75 C9.3 66.75 9 66.45 9 66 L9 65.25 C9 64.8 9.3 64.5 9.75 64.5 L11.25 64.5 C11.7 64.5 12
								 64.8 12 65.25 L12 66 ZM12 62.25 C12 62.7 11.7 63 11.25 63 L9.75 63 C9.3 63 9 62.7 9 62.25 L9 61.5
								 C9 61.05 9.3 60.75 9.75 60.75 L11.25 60.75 C11.7 60.75 12 61.05 12 61.5 L12 62.25 ZM16.5 69.75 C16.5
								 70.2 16.2 70.5 15.75 70.5 L14.25 70.5 C13.8 70.5 13.5 70.2 13.5 69.75 L13.5 69 C13.5 68.55 13.8
								 68.25 14.25 68.25 L15.75 68.25 C16.2 68.25 16.5 68.55 16.5 69 L16.5 69.75 ZM16.5 66 C16.5 66.45
								 16.2 66.75 15.75 66.75 L14.25 66.75 C13.8 66.75 13.5 66.45 13.5 66 L13.5 65.25 C13.5 64.8 13.8 64.5
								 14.25 64.5 L15.75 64.5 C16.2 64.5 16.5 64.8 16.5 65.25 L16.5 66 ZM16.5 62.25 C16.5 62.7 16.2 63
								 15.75 63 L14.25 63 C13.8 63 13.5 62.7 13.5 62.25 L13.5 61.5 C13.5 61.05 13.8 60.75 14.25 60.75 L15.75
								 60.75 C16.2 60.75 16.5 61.05 16.5 61.5 L16.5 62.25 ZM17.25 57.75 L3.75 57.75 L3.75 52.5 L17.25 52.5
								 L17.25 57.75 Z" class="st4"/>
				</g>
			</g>
		</g>
	</g>
</svg>
