<?xml version="1.0" encoding="UTF-8" standalone="no"?>
<!DOCTYPE svg PUBLIC "-//W3C//DTD SVG 1.1//EN" "http://www.w3.org/Graphics/SVG/1.1/DTD/svg11.dtd">
<!-- Generated by Microsoft Visio, SVG Export Universal Security Group.svg Page-1 -->
<svg xmlns="http://www.w3.org/2000/svg" xmlns:xlink="http://www.w3.org/1999/xlink" xmlns:ev="http://www.w3.org/2001/xml-events"
		xmlns:v="http://schemas.microsoft.com/visio/2003/SVGExtensions/" width="1.03984in" height="0.890625in"
		viewBox="0 0 74.8687 64.125" xml:space="preserve" color-interpolation-filters="sRGB" class="st5">
	<v:documentProperties v:langID="4108" v:metric="true" v:viewMarkup="false"/>

	<style type="text/css">
	<![CDATA[
		.st1 {fill:#ffffff;stroke:none;stroke-linecap:butt;stroke-width:0.75}
		.st2 {fill:#515251;stroke:none;stroke-linecap:butt;stroke-width:0.75}
		.st3 {fill:#515150;stroke:none;stroke-linecap:butt;stroke-width:0.75}
		.st4 {fill:#525352;stroke:none;stroke-linecap:butt;stroke-width:0.75}
		.st5 {fill:none;fill-rule:evenodd;font-size:12px;overflow:visible;stroke-linecap:square;stroke-miterlimit:3}
	]]>
	</style>

	<g v:mID="0" v:index="1" v:groupContext="foregroundPage">
		<title>Page-1</title>
		<v:pageProperties v:drawingScale="0.0393701" v:pageScale="0.0393701" v:drawingUnits="24" v:shadowOffsetX="8.50394"
				v:shadowOffsetY="-8.50394"/>
		<v:layer v:name="symbols" v:index="0"/>
		<g id="group271-1" transform="translate(5.45625,-1.0125)" v:mID="271" v:groupContext="group" v:layerMember="0">
			<title>Universal Security Group</title>
			<g id="group272-2" transform="translate(0,-14.175)" v:mID="272" v:groupContext="group" v:layerMember="0">
				<title>Sheet.272</title>
				<g id="group273-3" transform="translate(24.75,-7.95)" v:mID="273" v:groupContext="group" v:layerMember="0">
					<title>Sheet.273</title>
					<g id="shape274-4" v:mID="274" v:groupContext="shape" v:layerMember="0">
						<title>Sheet.274</title>
						<path d="M0 64.13 L0.15 61.73 C0.3 59.1 0.98 53.7 1.5 51.15 C2.17 48.23 3.07 46.2 5.92 44.63 L6.9 44.1 C8.85
									 42.98 9.75 42.45 10.95 42.45 C11.62 42.45 12.23 42.6 12.82 42.9 L13.05 43.05 L13.27 43.2 C13.72
									 43.65 14.25 44.03 14.78 44.25 C15.22 44.55 15.6 44.7 16.05 44.85 L16.12 44.85 C16.95 45.15 17.85
									 45.3 18.67 45.3 C19.58 45.3 20.4 45.15 21.22 44.85 C21.75 44.7 22.12 44.55 22.5 44.25 L22.72
									 44.1 L22.95 43.95 C23.32 43.73 23.7 43.43 24 43.13 L24.22 42.98 L24.45 42.83 C25.05 42.53 25.65
									 42.38 26.32 42.38 C27.52 42.38 28.57 42.98 30.3 43.95 C30.6 44.1 30.97 44.33 31.35 44.55 C34.2
									 46.13 35.1 48.15 35.77 51.08 C36.37 53.63 36.97 59.03 37.12 61.65 L37.27 64.05 L0 64.05 L0 64.13
									 Z" class="st1"/>
					</g>
					<g id="shape275-6" v:mID="275" v:groupContext="shape" v:layerMember="0" transform="translate(2.25,-2.25)">
						<title>Sheet.275</title>
						<path d="M31.35 53.93 C30.75 51.23 30 49.95 27.97 48.83 C25.95 47.7 24.82 46.95 24.07 46.95 C23.77 46.95
									 23.47 47.03 23.25 47.18 C22.72 47.63 22.2 48 21.67 48.38 C21.67 48.38 21.67 48.38 21.67 48.38
									 C21.6 48.45 21.53 48.53 21.37 48.53 C20.77 48.9 20.25 49.13 19.65 49.28 C18.6 49.65 17.47 49.88
									 16.35 49.88 C15.15 49.88 14.1 49.65 13.05 49.28 C12.45 49.13 11.92 48.83 11.33 48.53 C10.65
									 48.15 10.05 47.7 9.45 47.18 C9.23 47.03 9 46.95 8.63 46.95 C7.88 46.95 7.12 47.48 4.72 48.83
									 C2.7 49.95 2.02 51.23 1.35 53.93 C0.83 56.25 0.22 61.58 0 64.13 L32.55 64.13 C32.55 61.58 31.87
									 56.25 31.35 53.93 Z" class="st2"/>
					</g>
					<g id="shape276-8" v:mID="276" v:groupContext="shape" v:layerMember="0" transform="translate(8.475,-17.85)">
						<title>Sheet.276</title>
						<path d="M10.2 64.13 C4.57 64.13 0 59.18 0 53.03 C0 46.88 4.57 42 10.2 42 C15.82 42 20.4 46.95 20.4 53.1
									 C20.4 59.25 15.82 64.13 10.2 64.13 Z" class="st1"/>
					</g>
					<g id="shape277-10" v:mID="277" v:groupContext="shape" v:layerMember="0" transform="translate(10.725,-20.1)">
						<title>Sheet.277</title>
						<path d="M7.95 64.13 C3.6 64.13 0 60.15 0 55.28 C0 50.4 3.6 46.43 7.95 46.43 C12.3 46.43 15.9 50.4 15.9 55.28
									 C15.9 60.23 12.3 64.13 7.95 64.13 Z" class="st2"/>
					</g>
				</g>
				<g id="group278-12" v:mID="278" v:groupContext="group" v:layerMember="0">
					<title>Sheet.278</title>
					<g id="shape279-13" v:mID="279" v:groupContext="shape" v:layerMember="0">
						<title>Sheet.279</title>
						<path d="M0 64.13 L0.15 61.73 C0.3 59.1 0.98 53.7 1.5 51.15 C2.18 48.23 3.07 46.2 5.92 44.63 L6.9 44.1 C8.85
									 42.98 9.75 42.45 10.95 42.45 C11.63 42.45 12.22 42.6 12.82 42.9 L13.05 43.05 L13.28 43.2 C13.72
									 43.65 14.25 44.03 14.78 44.25 C15.22 44.55 15.6 44.7 16.05 44.85 L16.12 44.85 C16.95 45.15 17.85
									 45.3 18.67 45.3 C19.58 45.3 20.4 45.15 21.23 44.85 C21.75 44.7 22.13 44.55 22.5 44.25 L22.73
									 44.1 L22.95 43.95 C23.32 43.73 23.7 43.43 24 43.13 L24.22 42.98 L24.45 42.83 C25.05 42.53 25.65
									 42.38 26.32 42.38 C27.53 42.38 28.58 42.98 30.3 43.95 C30.6 44.1 30.98 44.33 31.35 44.55 C34.2
									 46.13 35.1 48.15 35.77 51.15 C36.38 53.7 36.97 59.1 37.13 61.73 L37.35 64.13 L0 64.13 Z"
								class="st1"/>
					</g>
					<g id="shape280-15" v:mID="280" v:groupContext="shape" v:layerMember="0" transform="translate(2.4,-2.25)">
						<title>Sheet.280</title>
						<path d="M31.2 53.93 C30.6 51.23 29.85 49.95 27.83 48.83 C25.88 47.63 24.75 46.88 24 46.88 C23.7 46.88 23.4
									 46.95 23.18 47.1 C22.65 47.55 22.13 47.93 21.6 48.3 C21.6 48.3 21.6 48.3 21.6 48.3 C21.53 48.38
									 21.45 48.45 21.3 48.45 C20.7 48.83 20.17 49.05 19.57 49.2 C18.52 49.58 17.4 49.8 16.27 49.8
									 C15.08 49.8 14.03 49.58 12.98 49.2 C12.37 49.05 11.85 48.75 11.25 48.45 C10.58 48.08 9.98 47.63
									 9.37 47.1 C9.15 46.95 8.93 46.88 8.55 46.88 C7.8 46.88 7.05 47.4 4.65 48.75 C2.62 49.88 1.95
									 51.15 1.27 53.85 C0.75 56.25 0.15 61.58 0 64.13 L32.55 64.13 C32.4 61.58 31.72 56.25 31.2 53.93
									 Z" class="st2"/>
					</g>
					<g id="shape281-17" v:mID="281" v:groupContext="shape" v:layerMember="0" transform="translate(8.475,-17.85)">
						<title>Sheet.281</title>
						<path d="M10.2 64.13 C4.57 64.13 0 59.18 0 53.03 C0 46.88 4.57 41.93 10.2 41.93 C15.82 41.93 20.4 46.88 20.4
									 53.03 C20.4 59.18 15.82 64.13 10.2 64.13 Z" class="st1"/>
					</g>
					<g id="shape282-19" v:mID="282" v:groupContext="shape" v:layerMember="0" transform="translate(10.725,-20.1)">
						<title>Sheet.282</title>
						<path d="M7.95 64.13 C3.6 64.13 0 60.15 0 55.28 C0 50.4 3.6 46.43 7.95 46.43 C12.3 46.43 15.9 50.4 15.9 55.28
									 C15.9 60.15 12.3 64.13 7.95 64.13 Z" class="st2"/>
					</g>
				</g>
			</g>
			<g id="group283-21" transform="translate(33,-2.925)" v:mID="283" v:groupContext="group" v:layerMember="0">
				<title>Sheet.283</title>
				<g id="shape284-22" v:mID="284" v:groupContext="shape" v:layerMember="0">
					<title>Sheet.284</title>
					<path d="M3.53 64.13 C1.57 64.13 0 62.55 0 60.6 L0 49.05 C0 47.7 0.75 46.5 1.95 45.9 L1.95 43.88 C1.95 38.7 6.15
								 34.58 11.25 34.58 C16.35 34.58 20.55 38.7 20.55 43.88 L20.55 45.9 C21.67 46.5 22.5 47.7 22.5 49.05
								 L22.5 60.6 C22.5 62.55 20.93 64.13 18.97 64.13 L3.53 64.13 Z" class="st1"/>
				</g>
				<g id="shape285-24" v:mID="285" v:groupContext="shape" v:layerMember="0" transform="translate(2.175,-2.325)">
					<title>Sheet.285</title>
					<path d="M16.72 50.03 L16.05 50.03 L16.05 46.2 C16.05 42.3 12.9 39.15 9 39.15 C5.1 39.15 1.95 42.3 1.95 46.2
								 L1.95 50.03 L1.27 50.03 C0.6 50.03 0 50.63 0 51.3 L0 62.85 C-0 63.53 0.6 64.13 1.27 64.13 L16.72
								 64.13 C17.4 64.13 18 63.53 18 62.85 L18 51.38 C18.07 50.63 17.47 50.03 16.72 50.03 ZM4.57 46.2 C4.57
								 43.73 6.6 41.7 9.07 41.7 C11.55 41.7 13.57 43.73 13.57 46.2 L13.57 50.03 L4.57 50.03 L4.57 46.2
								 Z" class="st3"/>
				</g>
			</g>
			<g id="group286-26" transform="translate(49.05,-3.12639E-13)" v:mID="286" v:groupContext="group" v:layerMember="0">
				<title>Sheet.286</title>
				<g id="shape287-27" v:mID="287" v:groupContext="shape" v:layerMember="0">
					<title>Sheet.287</title>
					<path d="M10.65 59.1 L10.27 58.73 L10.65 58.35 L10.65 56.25 L10.05 55.5 L10.35 55.13 L10.35 53.85 C12 52.65 13.05
								 50.7 13.05 48.53 C13.05 44.93 10.12 42 6.52 42 C2.92 42 0 44.93 0 48.53 C0 50.7 1.05 52.65 2.77
								 53.85 L2.77 60.9 L5.7 64.13 L7.57 64.13 L10.72 60.9 L10.72 59.1 L10.65 59.1 Z" class="st1"/>
				</g>
				<g id="shape288-29" v:mID="288" v:groupContext="shape" v:layerMember="0" transform="translate(2.25,-2.25)">
					<title>Sheet.288</title>
					<path d="M5.85 56.1 L5.85 54.83 C7.42 54.23 8.55 52.65 8.55 50.85 C8.55 48.45 6.6 46.58 4.27 46.58 C1.88 46.58
								 0 48.53 0 50.85 C0 52.65 1.12 54.23 2.77 54.83 L2.77 62.33 L4.42 64.13 L6.22 62.25 L4.95 60.9 L6.3
								 59.48 L6.3 59.4 L4.8 57.83 L5.85 56.55 L5.85 56.1 ZM4.27 48.3 C4.87 48.3 5.4 48.83 5.4 49.43 C5.4
								 50.03 4.87 50.55 4.27 50.55 C3.67 50.55 3.15 50.03 3.15 49.43 C3.15 48.83 3.6 48.3 4.27 48.3 Z"
							class="st4"/>
				</g>
			</g>
		</g>
	</g>
</svg>
