<?xml version="1.0" encoding="UTF-8" standalone="no"?>
<!DOCTYPE svg PUBLIC "-//W3C//DTD SVG 1.1//EN" "http://www.w3.org/Graphics/SVG/1.1/DTD/svg11.dtd">
<!-- Generated by Microsoft Visio, SVG Export Users, Two - ghosted.svg Page-1 -->
<svg xmlns="http://www.w3.org/2000/svg" xmlns:xlink="http://www.w3.org/1999/xlink" xmlns:ev="http://www.w3.org/2001/xml-events"
		xmlns:v="http://schemas.microsoft.com/visio/2003/SVGExtensions/" width="0.96875in" height="0.796875in"
		viewBox="0 0 69.75 57.375" xml:space="preserve" color-interpolation-filters="sRGB" class="st4">
	<v:documentProperties v:langID="4108" v:metric="true" v:viewMarkup="false"/>

	<style type="text/css">
	<![CDATA[
		.st1 {fill:#ffffff;stroke:none;stroke-linecap:butt;stroke-width:0.75}
		.st2 {fill:#9b9b9b;stroke:none;stroke-linecap:butt;stroke-width:0.75}
		.st3 {fill:#cccbcb;stroke:none;stroke-linecap:butt;stroke-width:0.75}
		.st4 {fill:none;fill-rule:evenodd;font-size:12px;overflow:visible;stroke-linecap:square;stroke-miterlimit:3}
	]]>
	</style>

	<g v:mID="0" v:index="1" v:groupContext="foregroundPage">
		<title>Page-1</title>
		<v:pageProperties v:drawingScale="0.0393701" v:pageScale="0.0393701" v:drawingUnits="24" v:shadowOffsetX="8.50394"
				v:shadowOffsetY="-8.50394"/>
		<v:layer v:name="symbols" v:index="0"/>
		<g id="group543-1" transform="translate(2.4,-8.1)" v:mID="543" v:groupContext="group" v:layerMember="0">
			<title>Users, Two - ghosted</title>
			<g id="group544-2" v:mID="544" v:groupContext="group" v:layerMember="0">
				<title>Sheet.544</title>
				<g id="group545-3" v:mID="545" v:groupContext="group" v:layerMember="0">
					<title>Sheet.545</title>
					<g id="group546-4" transform="translate(24.75,-7.95)" v:mID="546" v:groupContext="group" v:layerMember="0">
						<title>Sheet.546</title>
						<g id="shape547-5" v:mID="547" v:groupContext="shape" v:layerMember="0">
							<title>Sheet.547</title>
							<path d="M0 57.37 L0.15 54.97 C0.3 52.35 0.98 46.95 1.5 44.4 C2.17 41.47 3.07 39.45 5.92 37.87 L6.9 37.35
										 C8.85 36.22 9.75 35.7 10.95 35.7 C11.62 35.7 12.23 35.85 12.82 36.15 L13.05 36.3 L13.27
										 36.45 C13.72 36.9 14.25 37.27 14.78 37.5 C15.22 37.8 15.6 37.95 16.05 38.1 L16.12 38.1 C16.95
										 38.4 17.85 38.55 18.67 38.55 C19.58 38.55 20.4 38.4 21.22 38.1 C21.75 37.95 22.13 37.8 22.5
										 37.5 L22.72 37.35 L22.95 37.2 C23.32 36.97 23.7 36.67 24 36.37 L24.22 36.22 L24.45 36.07
										 C25.05 35.77 25.65 35.62 26.32 35.62 C27.52 35.62 28.57 36.22 30.3 37.2 C30.6 37.35 30.97
										 37.57 31.35 37.8 C34.2 39.37 35.1 41.4 35.77 44.4 C36.37 46.95 36.97 52.35 37.12 54.97 L37.27
										 57.37 L0 57.37 Z" class="st1"/>
						</g>
						<g id="shape548-7" v:mID="548" v:groupContext="shape" v:layerMember="0" transform="translate(2.25,-2.25)">
							<title>Sheet.548</title>
							<path d="M31.35 47.17 C30.75 44.47 30 43.2 27.97 42.07 C25.95 40.95 24.82 40.2 24.07 40.2 C23.77 40.2
										 23.47 40.27 23.25 40.42 C22.72 40.87 22.2 41.25 21.67 41.62 C21.67 41.62 21.67 41.62 21.67
										 41.62 C21.6 41.7 21.45 41.77 21.37 41.77 C20.77 42.15 20.25 42.37 19.65 42.52 C18.6 42.9
										 17.47 43.12 16.35 43.12 C15.15 43.12 14.1 42.9 13.05 42.52 C12.45 42.37 11.92 42.07 11.33
										 41.77 C10.65 41.4 10.05 40.95 9.45 40.42 C9.23 40.27 9 40.2 8.63 40.2 C7.88 40.2 7.12 40.72
										 4.72 42.07 C2.7 43.2 1.95 44.47 1.35 47.17 C0.83 49.5 0.22 54.82 0 57.37 L32.55 57.37 C32.55
										 54.82 31.87 49.5 31.35 47.17 Z" class="st2"/>
						</g>
						<g id="shape549-9" v:mID="549" v:groupContext="shape" v:layerMember="0" transform="translate(8.475,-17.85)">
							<title>Sheet.549</title>
							<path d="M10.2 57.37 C4.57 57.37 0 52.42 0 46.27 C-0 40.12 4.57 35.25 10.2 35.25 C15.82 35.25 20.4 40.2
										 20.4 46.35 C20.4 52.5 15.82 57.37 10.2 57.37 Z" class="st1"/>
						</g>
						<g id="shape550-11" v:mID="550" v:groupContext="shape" v:layerMember="0"
								transform="translate(10.725,-20.1)">
							<title>Sheet.550</title>
							<path d="M7.95 57.37 C3.6 57.37 0 53.4 0 48.52 C0 43.65 3.6 39.67 7.95 39.67 C12.3 39.67 15.9 43.65 15.9
										 48.52 C15.9 53.47 12.3 57.37 7.95 57.37 Z" class="st2"/>
						</g>
					</g>
					<g id="group551-13" v:mID="551" v:groupContext="group" v:layerMember="0">
						<title>Sheet.551</title>
						<g id="shape552-14" v:mID="552" v:groupContext="shape" v:layerMember="0">
							<title>Sheet.552</title>
							<path d="M0 57.37 L0.15 54.97 C0.3 52.35 0.9 46.95 1.5 44.4 C2.17 41.47 3.07 39.45 5.92 37.87 L6.9 37.35
										 C8.85 36.22 9.75 35.7 10.95 35.7 C11.63 35.7 12.23 35.85 12.82 36.15 L13.05 36.3 L13.27
										 36.45 C13.72 36.9 14.25 37.27 14.78 37.5 C15.22 37.8 15.6 37.95 16.05 38.1 L16.12 38.1 C16.95
										 38.4 17.85 38.55 18.67 38.55 C19.58 38.55 20.4 38.4 21.22 38.1 C21.75 37.95 22.13 37.8 22.5
										 37.5 L22.72 37.35 L22.95 37.2 C23.32 36.97 23.7 36.67 24 36.37 L24.22 36.22 L24.45 36.07
										 C25.05 35.77 25.65 35.62 26.32 35.62 C27.52 35.62 28.57 36.22 30.3 37.2 C30.6 37.35 30.97
										 37.57 31.35 37.8 C34.2 39.37 35.1 41.4 35.77 44.4 C36.37 46.95 36.97 52.35 37.12 54.97 L37.27
										 57.37 L0 57.37 Z" class="st1"/>
						</g>
						<g id="shape553-16" v:mID="553" v:groupContext="shape" v:layerMember="0" transform="translate(2.325,-2.25)">
							<title>Sheet.553</title>
							<path d="M31.27 47.17 C30.67 44.47 29.92 43.2 27.9 42.07 C25.87 40.95 24.75 40.2 24 40.2 C23.7 40.2 23.4
										 40.27 23.17 40.42 C22.65 40.87 22.12 41.25 21.6 41.62 C21.6 41.62 21.6 41.62 21.6 41.62
										 C21.53 41.62 21.45 41.7 21.37 41.7 C20.77 42.07 20.25 42.3 19.65 42.45 C18.6 42.82 17.47
										 43.05 16.35 43.05 C15.15 43.05 14.1 42.82 13.05 42.45 C12.45 42.3 11.92 42 11.33 41.7 C10.65
										 41.32 10.05 40.87 9.45 40.35 C9.23 40.2 9 40.12 8.63 40.12 C7.88 40.12 7.12 40.65 4.72 42
										 C2.7 43.2 2.02 44.47 1.35 47.17 C0.83 49.5 0.23 54.82 0 57.37 L32.55 57.37 C32.47 54.82
										 31.8 49.5 31.27 47.17 Z" class="st2"/>
						</g>
						<g id="shape554-18" v:mID="554" v:groupContext="shape" v:layerMember="0"
								transform="translate(8.475,-17.85)">
							<title>Sheet.554</title>
							<path d="M10.2 57.37 C4.57 57.37 0 52.42 0 46.27 C-0 40.12 4.57 35.17 10.2 35.17 C15.82 35.17 20.4 40.12
										 20.4 46.27 C20.4 52.42 15.82 57.37 10.2 57.37 Z" class="st1"/>
						</g>
						<g id="shape555-20" v:mID="555" v:groupContext="shape" v:layerMember="0"
								transform="translate(10.725,-20.1)">
							<title>Sheet.555</title>
							<path d="M7.95 57.37 C3.6 57.37 0 53.4 0 48.52 C0 43.65 3.6 39.67 7.95 39.67 C12.3 39.67 15.9 43.65 15.9
										 48.52 C15.9 53.4 12.3 57.37 7.95 57.37 Z" class="st2"/>
						</g>
					</g>
				</g>
				<g id="group556-22" transform="translate(2.325,-2.175)" v:mID="556" v:groupContext="group" v:layerMember="0">
					<title>Sheet.556</title>
					<g id="shape557-23" v:mID="557" v:groupContext="shape" v:layerMember="0" transform="translate(8.4,-26.4)">
						<title>Sheet.557</title>
						<path d="M0 57.37 L9 48.3 C8.63 48.22 8.33 48.22 7.95 48.22 C7.58 48.22 7.28 48.22 6.9 48.3 L0.23 55.05 C0.08
									 55.72 0 56.32 0 57.07 C-0 57.15 0 57.22 0 57.37 Z" class="st3"/>
					</g>
					<g id="shape558-25" v:mID="558" v:groupContext="shape" v:layerMember="0" transform="translate(8.7,-22.725)">
						<title>Sheet.558</title>
						<path d="M10.58 45.15 L0 55.8 C0.15 56.32 0.3 56.85 0.52 57.37 L11.85 45.97 C11.48 45.6 11.03 45.37 10.58
									 45.15 Z" class="st3"/>
					</g>
					<g id="shape559-27" v:mID="559" v:groupContext="shape" v:layerMember="0" transform="translate(1.35,-10.275)">
						<title>Sheet.559</title>
						<path d="M0 57.37 L6.9 50.47 C6.23 50.62 5.4 51.15 3.38 52.27 C1.35 53.4 0.68 54.67 0 57.37 Z" class="st3"/>
					</g>
					<g id="shape560-29" v:mID="560" v:groupContext="shape" v:layerMember="0" transform="translate(10.125,-20.1)">
						<title>Sheet.560</title>
						<path d="M12.68 45.6 C12.38 45.15 12.08 44.77 11.78 44.4 L0 56.25 C0.3 56.62 0.6 57.07 0.98 57.37 L12.68
									 45.6 Z" class="st3"/>
					</g>
					<g id="shape561-31" v:mID="561" v:groupContext="shape" v:layerMember="0" transform="translate(0.6,-4.95)">
						<title>Sheet.561</title>
						<path d="M10.65 46.57 C10.2 46.35 9.83 46.05 9.38 45.67 L0.3 54.9 C0.15 55.65 0.08 56.55 0 57.37 L10.65 46.57
									 Z" class="st3"/>
					</g>
					<g id="shape562-33" v:mID="562" v:groupContext="shape" v:layerMember="0" transform="translate(33.975,-38.625)">
						<title>Sheet.562</title>
						<path d="M0 57.37 L4.2 53.1 C2.4 53.92 0.9 55.42 0 57.37 Z" class="st3"/>
					</g>
					<g id="shape563-35" v:mID="563" v:groupContext="shape" v:layerMember="0" transform="translate(12.525,-18.375)">
						<title>Sheet.563</title>
						<path d="M1.35 57.37 L11.63 47.1 C11.48 46.5 11.33 45.97 11.18 45.45 L0 56.7 C0.38 57 0.83 57.22 1.35 57.37
									 Z" class="st3"/>
					</g>
					<g id="shape564-37" v:mID="564" v:groupContext="shape" v:layerMember="0"
							transform="translate(-2.8777E-13,-0.075)">
						<title>Sheet.564</title>
						<path d="M12.98 42.52 C12.9 42.52 12.9 42.52 12.83 42.45 L0.22 55.12 C0.15 55.95 0.08 56.77 0 57.37 L0.08
									 57.37 L14.48 42.9 C14.03 42.82 13.5 42.67 12.98 42.52 Z" class="st3"/>
					</g>
					<g id="shape565-39" v:mID="565" v:groupContext="shape" v:layerMember="0" transform="translate(33.15,-33.3)">
						<title>Sheet.565</title>
						<path d="M0 55.27 C0 55.5 0 55.8 0 56.02 C0 56.47 0.08 56.92 0.08 57.37 L9.9 47.47 C9.3 47.32 8.7 47.17 8.02
									 47.17 L0 55.27 Z" class="st3"/>
					</g>
					<g id="shape566-41" v:mID="566" v:groupContext="shape" v:layerMember="0" transform="translate(15.825,-17.925)">
						<title>Sheet.566</title>
						<path d="M8.47 48.82 L0 57.37 C0.15 57.37 0.37 57.37 0.52 57.37 C1.12 57.37 1.72 57.3 2.32 57.15 L8.1 51.37
									 C8.25 50.55 8.4 49.72 8.47 48.82 Z" class="st3"/>
					</g>
					<g id="shape567-43" v:mID="567" v:groupContext="shape" v:layerMember="0" transform="translate(33.675,-30)">
						<title>Sheet.567</title>
						<path d="M0.68 57.37 L12.23 45.75 C11.85 45.45 11.4 45.15 10.95 44.85 L0 55.95 C0.23 56.47 0.45 56.92 0.68
									 57.37 Z" class="st3"/>
					</g>
					<g id="shape568-45" v:mID="568" v:groupContext="shape" v:layerMember="0" transform="translate(2.475,-0.075)">
						<title>Sheet.568</title>
						<path d="M16.8 42.6 C15.98 42.82 15.15 42.97 14.25 43.05 L0 57.37 L2.1 57.37 L16.8 42.6 Z" class="st3"/>
					</g>
					<g id="shape569-47" v:mID="569" v:groupContext="shape" v:layerMember="0" transform="translate(26.325,-18.375)">
						<title>Sheet.569</title>
						<path d="M0 56.85 C0.3 57 0.67 57.22 0.97 57.37 L7.65 50.62 C7.5 50.55 7.27 50.47 7.05 50.47 C6.52 50.47
									 5.92 50.77 4.72 51.45 L0.3 55.95 C0.15 56.25 0.07 56.55 0 56.85 Z" class="st3"/>
					</g>
					<g id="shape570-49" v:mID="570" v:groupContext="shape" v:layerMember="0" transform="translate(35.325,-27.525)">
						<title>Sheet.570</title>
						<path d="M0 56.32 C0.3 56.7 0.67 57.07 1.05 57.37 L12.6 45.82 C12.37 45.37 12.07 44.92 11.77 44.55 L0 56.32
									 Z" class="st3"/>
					</g>
					<g id="shape571-51" v:mID="571" v:groupContext="shape" v:layerMember="0"
							transform="translate(6.975,-2.13163E-13)">
						<title>Sheet.571</title>
						<path d="M2.1 57.3 L18.67 40.65 C18 40.35 17.55 40.12 17.1 40.12 L0 57.37 L2.1 57.37 L2.1 57.3 Z"
								class="st3"/>
					</g>
					<g id="shape572-53" v:mID="572" v:groupContext="shape" v:layerMember="0" transform="translate(28.875,-16.65)">
						<title>Sheet.572</title>
						<path d="M7.2 50.4 C6.97 50.25 6.75 50.1 6.52 49.95 L0 56.55 C0.07 56.62 0.15 56.62 0.22 56.7 C0.6 56.92
									 0.97 57.15 1.27 57.37 L7.87 50.77 C7.57 50.62 7.42 50.47 7.2 50.4 Z" class="st3"/>
					</g>
					<g id="shape573-55" v:mID="573" v:groupContext="shape" v:layerMember="0" transform="translate(11.55,-0.075)">
						<title>Sheet.573</title>
						<path d="M16.42 42.07 C16.12 41.92 15.9 41.77 15.67 41.62 L0 57.37 L2.1 57.37 L17.02 42.37 C16.8 42.3 16.58
									 42.15 16.42 42.07 Z" class="st3"/>
					</g>
					<g id="shape574-57" v:mID="574" v:groupContext="shape" v:layerMember="0" transform="translate(37.875,-26.025)">
						<title>Sheet.574</title>
						<path d="M1.58 57.37 L11.18 47.77 C11.1 47.17 11.03 46.57 10.8 45.97 L0 56.77 C0.45 57 0.98 57.22 1.58 57.37
									 Z" class="st3"/>
					</g>
					<g id="shape575-59" v:mID="575" v:groupContext="shape" v:layerMember="0" transform="translate(15.9,-0.075)">
						<title>Sheet.575</title>
						<path d="M14.62 44.77 C14.4 44.25 14.17 43.87 13.8 43.42 L0 57.37 L2.1 57.37 L14.62 44.77 Z" class="st3"/>
					</g>
					<g id="shape576-61" v:mID="576" v:groupContext="shape" v:layerMember="0" transform="translate(41.625,-25.875)">
						<title>Sheet.576</title>
						<path d="M0 57.37 C1.05 57.3 2.1 57 3 56.47 L6.15 53.25 C6.68 52.27 7.05 51.15 7.28 50.02 L0 57.37 Z"
								class="st3"/>
					</g>
					<g id="shape577-63" v:mID="577" v:groupContext="shape" v:layerMember="0" transform="translate(31.35,-14.325)">
						<title>Sheet.577</title>
						<path d="M8.85 49.35 C8.25 49.27 7.65 49.2 7.05 49.05 L0 56.17 C0.37 56.55 0.6 57 0.9 57.37 L8.85 49.35 Z"
								class="st3"/>
					</g>
					<g id="shape578-65" v:mID="578" v:groupContext="shape" v:layerMember="0" transform="translate(33,-10.875)">
						<title>Sheet.578</title>
						<path d="M11.4 45.37 C10.87 45.52 10.35 45.67 9.82 45.75 L0 55.72 C0.15 56.25 0.3 56.77 0.45 57.37 L13.12
									 44.55 C13.12 44.55 13.12 44.55 13.05 44.55 C12.52 44.92 12 45.22 11.4 45.37 Z" class="st3"/>
					</g>
					<g id="shape579-67" v:mID="579" v:groupContext="shape" v:layerMember="0" transform="translate(20.7,-0.075)">
						<title>Sheet.579</title>
						<path d="M10.58 47.17 C10.58 47.02 10.5 46.95 10.5 46.8 L0 57.37 L2.1 57.37 L10.8 48.52 C10.8 48 10.65 47.55
									 10.58 47.17 Z" class="st3"/>
					</g>
					<g id="shape580-69" v:mID="580" v:groupContext="shape" v:layerMember="0" transform="translate(33.825,-8.025)">
						<title>Sheet.580</title>
						<path d="M15.9 40.42 L0 56.55 C0.08 56.85 0.08 57.07 0.15 57.37 L1.28 57.37 L17.33 41.17 C16.8 40.87 16.35
									 40.65 15.9 40.42 Z" class="st3"/>
					</g>
					<g id="shape581-71" v:mID="581" v:groupContext="shape" v:layerMember="0" transform="translate(25.2,-0.075)">
						<title>Sheet.581</title>
						<path d="M6.9 52.5 C6.83 51.9 6.75 51.22 6.68 50.62 L0 57.37 L2.1 57.37 L6.9 52.5 Z" class="st3"/>
					</g>
					<g id="shape582-73" v:mID="582" v:groupContext="shape" v:layerMember="0" transform="translate(29.7,-0.075)">
						<title>Sheet.582</title>
						<path d="M2.85 56.62 C2.78 56.02 2.78 55.35 2.7 54.67 L0 57.37 L2.1 57.37 L2.85 56.62 Z" class="st3"/>
					</g>
					<g id="shape583-75" v:mID="583" v:groupContext="shape" v:layerMember="0" transform="translate(37.5,-8.025)">
						<title>Sheet.583</title>
						<path d="M16.42 42.9 C16.05 42.6 15.67 42.3 15.22 42.07 C15.22 42.07 15.22 42.07 15.22 42.07 L0 57.37 L2.1
									 57.37 L16.42 42.9 Z" class="st3"/>
					</g>
					<g id="shape584-77" v:mID="584" v:groupContext="shape" v:layerMember="0" transform="translate(42,-8.025)">
						<title>Sheet.584</title>
						<path d="M13.65 45.67 C13.5 45.15 13.28 44.62 12.98 44.17 L0 57.37 L2.1 57.37 L13.65 45.67 Z" class="st3"/>
					</g>
					<g id="shape585-79" v:mID="585" v:groupContext="shape" v:layerMember="0" transform="translate(46.5,-8.025)">
						<title>Sheet.585</title>
						<path d="M9.6 47.55 L0 57.37 L2.1 57.37 L9.98 49.35 C9.83 48.75 9.75 48.07 9.6 47.55 Z" class="st3"/>
					</g>
					<g id="shape586-81" v:mID="586" v:groupContext="shape" v:layerMember="0" transform="translate(50.925,-8.025)">
						<title>Sheet.586</title>
						<path d="M6.08 53.32 C6 52.72 5.93 52.05 5.85 51.45 L0 57.37 L2.1 57.37 L6.08 53.32 Z" class="st3"/>
					</g>
					<g id="shape587-83" v:mID="587" v:groupContext="shape" v:layerMember="0" transform="translate(55.425,-8.025)">
						<title>Sheet.587</title>
						<path d="M1.95 57.37 C1.95 56.85 1.87 56.17 1.8 55.5 L0 57.37 L1.95 57.37 Z" class="st3"/>
					</g>
				</g>
			</g>
		</g>
	</g>
</svg>
