<?xml version="1.0" encoding="UTF-8" standalone="no"?>
<!DOCTYPE svg PUBLIC "-//W3C//DTD SVG 1.1//EN" "http://www.w3.org/Graphics/SVG/1.1/DTD/svg11.dtd">
<!-- Generated by Microsoft Visio, SVG Export Users, Two.svg Page-1 -->
<svg xmlns="http://www.w3.org/2000/svg" xmlns:xlink="http://www.w3.org/1999/xlink" xmlns:ev="http://www.w3.org/2001/xml-events"
		xmlns:v="http://schemas.microsoft.com/visio/2003/SVGExtensions/" width="0.95625in" height="0.796875in"
		viewBox="0 0 68.85 57.375" xml:space="preserve" color-interpolation-filters="sRGB" class="st3">
	<v:documentProperties v:langID="4108" v:metric="true" v:viewMarkup="false"/>

	<style type="text/css">
	<![CDATA[
		.st1 {fill:#ffffff;stroke:none;stroke-linecap:butt;stroke-width:0.75}
		.st2 {fill:#515251;stroke:none;stroke-linecap:butt;stroke-width:0.75}
		.st3 {fill:none;fill-rule:evenodd;font-size:12px;overflow:visible;stroke-linecap:square;stroke-miterlimit:3}
	]]>
	</style>

	<g v:mID="0" v:index="1" v:groupContext="foregroundPage">
		<title>Page-1</title>
		<v:pageProperties v:drawingScale="0.0393701" v:pageScale="0.0393701" v:drawingUnits="24" v:shadowOffsetX="8.50394"
				v:shadowOffsetY="-8.50394"/>
		<v:layer v:name="symbols" v:index="0"/>
		<g id="group495-1" transform="translate(1.5,-8.1)" v:mID="495" v:groupContext="group" v:layerMember="0">
			<title>Users, Two</title>
			<g id="group496-2" v:mID="496" v:groupContext="group" v:layerMember="0">
				<title>Sheet.496</title>
				<g id="group497-3" transform="translate(24.75,-7.95)" v:mID="497" v:groupContext="group" v:layerMember="0">
					<title>Sheet.497</title>
					<g id="shape498-4" v:mID="498" v:groupContext="shape" v:layerMember="0">
						<title>Sheet.498</title>
						<path d="M0 57.37 L0.15 54.97 C0.3 52.35 0.97 46.95 1.5 44.4 C2.17 41.47 3.07 39.45 5.92 37.87 L6.9 37.35
									 C8.85 36.22 9.75 35.7 10.95 35.7 C11.63 35.7 12.23 35.85 12.82 36.15 L13.05 36.3 L13.27 36.45
									 C13.72 36.9 14.25 37.27 14.78 37.5 C15.22 37.8 15.6 37.95 16.05 38.1 L16.12 38.1 C16.95 38.4
									 17.85 38.55 18.67 38.55 C19.58 38.55 20.4 38.4 21.22 38.1 C21.75 37.95 22.13 37.8 22.5 37.5
									 L22.72 37.35 L22.95 37.2 C23.32 36.97 23.7 36.67 24 36.37 L24.22 36.22 L24.45 36.07 C25.05 35.77
									 25.65 35.62 26.32 35.62 C27.52 35.62 28.57 36.22 30.3 37.2 C30.6 37.35 30.97 37.57 31.35 37.8
									 C34.2 39.37 35.1 41.4 35.77 44.4 C36.37 46.95 36.97 52.35 37.12 54.97 L37.27 57.37 L0 57.37
									 Z" class="st1"/>
					</g>
					<g id="shape499-6" v:mID="499" v:groupContext="shape" v:layerMember="0" transform="translate(2.25,-2.25)">
						<title>Sheet.499</title>
						<path d="M31.35 47.17 C30.75 44.47 30 43.2 27.97 42.07 C25.95 40.95 24.82 40.2 24.07 40.2 C23.77 40.2 23.47
									 40.27 23.25 40.42 C22.72 40.87 22.2 41.25 21.67 41.62 C21.67 41.62 21.67 41.62 21.67 41.62 C21.6
									 41.7 21.53 41.77 21.37 41.77 C20.77 42.15 20.25 42.37 19.65 42.52 C18.6 42.9 17.47 43.12 16.35
									 43.12 C15.15 43.12 14.1 42.9 13.05 42.52 C12.45 42.37 11.92 42.07 11.33 41.77 C10.65 41.4 10.05
									 40.95 9.45 40.42 C9.23 40.27 9 40.2 8.63 40.2 C7.88 40.2 7.12 40.72 4.72 42.07 C2.7 43.2 2.02
									 44.47 1.35 47.17 C0.83 49.5 0.22 54.82 0 57.37 L32.55 57.37 C32.55 54.82 31.95 49.5 31.35 47.17
									 Z" class="st2"/>
					</g>
					<g id="shape500-8" v:mID="500" v:groupContext="shape" v:layerMember="0" transform="translate(8.475,-17.85)">
						<title>Sheet.500</title>
						<path d="M10.2 57.37 C4.57 57.37 0 52.42 0 46.27 C-0 40.12 4.57 35.25 10.2 35.25 C15.82 35.25 20.4 40.2 20.4
									 46.35 C20.4 52.5 15.82 57.37 10.2 57.37 Z" class="st1"/>
					</g>
					<g id="shape501-10" v:mID="501" v:groupContext="shape" v:layerMember="0" transform="translate(10.725,-20.1)">
						<title>Sheet.501</title>
						<path d="M7.95 57.37 C3.6 57.37 0 53.4 0 48.52 C0 43.65 3.6 39.67 7.95 39.67 C12.3 39.67 15.9 43.65 15.9
									 48.52 C15.9 53.47 12.3 57.37 7.95 57.37 Z" class="st2"/>
					</g>
				</g>
				<g id="group502-12" v:mID="502" v:groupContext="group" v:layerMember="0">
					<title>Sheet.502</title>
					<g id="shape503-13" v:mID="503" v:groupContext="shape" v:layerMember="0">
						<title>Sheet.503</title>
						<path d="M0 57.37 L0.15 54.97 C0.3 52.35 0.97 46.95 1.5 44.4 C2.17 41.47 3.15 39.45 5.92 37.8 L6.9 37.27
									 C8.85 36.15 9.75 35.62 10.95 35.62 C11.63 35.62 12.23 35.77 12.82 36.07 L13.05 36.22 L13.27
									 36.37 C13.72 36.82 14.25 37.2 14.78 37.42 C15.22 37.72 15.6 37.87 16.05 38.02 L16.12 38.02 C16.95
									 38.32 17.85 38.47 18.67 38.47 C19.58 38.47 20.4 38.32 21.22 38.02 C21.75 37.87 22.13 37.72 22.5
									 37.42 L22.72 37.27 L22.95 37.12 C23.32 36.9 23.7 36.6 24 36.3 L24.22 36.15 L24.45 36 C25.05
									 35.7 25.65 35.55 26.32 35.55 C27.52 35.55 28.57 36.15 30.3 37.12 C30.6 37.27 30.97 37.5 31.35
									 37.72 C34.2 39.3 35.1 41.32 35.77 44.32 C36.37 46.87 36.97 52.27 37.12 54.9 L37.27 57.3 L0 57.3
									 L0 57.37 Z" class="st1"/>
					</g>
					<g id="shape504-15" v:mID="504" v:groupContext="shape" v:layerMember="0" transform="translate(2.4,-2.25)">
						<title>Sheet.504</title>
						<path d="M31.2 47.17 C30.6 44.47 29.85 43.2 27.82 42.07 C25.8 40.95 24.67 40.2 23.92 40.2 C23.62 40.2 23.32
									 40.27 23.1 40.42 C22.57 40.87 22.05 41.25 21.53 41.62 C21.53 41.62 21.53 41.62 21.53 41.62 C21.45
									 41.7 21.37 41.77 21.22 41.77 C20.62 42.15 20.1 42.37 19.5 42.52 C18.45 42.9 17.32 43.12 16.2
									 43.12 C15 43.12 13.95 42.9 12.9 42.52 C12.3 42.37 11.77 42.07 11.17 41.77 C10.5 41.4 9.9 40.95
									 9.3 40.42 C9.07 40.27 8.85 40.2 8.47 40.2 C7.72 40.2 6.97 40.72 4.57 42.07 C2.55 43.2 1.88 44.47
									 1.2 47.17 C0.75 49.5 0.15 54.82 0 57.37 L32.55 57.37 C32.4 54.82 31.8 49.5 31.2 47.17 Z"
								class="st2"/>
					</g>
					<g id="shape505-17" v:mID="505" v:groupContext="shape" v:layerMember="0" transform="translate(8.475,-17.85)">
						<title>Sheet.505</title>
						<path d="M10.2 57.37 C4.57 57.37 0 52.42 0 46.27 C-0 40.12 4.57 35.25 10.2 35.25 C15.82 35.25 20.4 40.2 20.4
									 46.35 C20.4 52.5 15.82 57.37 10.2 57.37 Z" class="st1"/>
					</g>
					<g id="shape506-19" v:mID="506" v:groupContext="shape" v:layerMember="0" transform="translate(10.725,-20.1)">
						<title>Sheet.506</title>
						<path d="M7.95 57.37 C3.6 57.37 0 53.4 0 48.52 C0 43.65 3.6 39.67 7.95 39.67 C12.3 39.67 15.9 43.65 15.9
									 48.52 C15.9 53.4 12.3 57.37 7.95 57.37 Z" class="st2"/>
					</g>
				</g>
			</g>
		</g>
	</g>
</svg>
