<?xml version="1.0" encoding="UTF-8" standalone="no"?>
<!DOCTYPE svg PUBLIC "-//W3C//DTD SVG 1.1//EN" "http://www.w3.org/Graphics/SVG/1.1/DTD/svg11.dtd">
<!-- Generated by Microsoft Visio, SVG Export User Accounts.svg Page-1 -->
<svg xmlns="http://www.w3.org/2000/svg" xmlns:xlink="http://www.w3.org/1999/xlink" xmlns:ev="http://www.w3.org/2001/xml-events"
		xmlns:v="http://schemas.microsoft.com/visio/2003/SVGExtensions/" width="1.09375in" height="1.07813in"
		viewBox="0 0 78.75 77.625" xml:space="preserve" color-interpolation-filters="sRGB" class="st4">
	<v:documentProperties v:langID="4108" v:metric="true" v:viewMarkup="false"/>

	<style type="text/css">
	<![CDATA[
		.st1 {fill:#ffffff;stroke:none;stroke-linecap:butt;stroke-width:0.75}
		.st2 {fill:#515050;stroke:none;stroke-linecap:butt;stroke-width:0.75}
		.st3 {fill:#515251;stroke:none;stroke-linecap:butt;stroke-width:0.75}
		.st4 {fill:none;fill-rule:evenodd;font-size:12px;overflow:visible;stroke-linecap:square;stroke-miterlimit:3}
	]]>
	</style>

	<g v:mID="0" v:index="1" v:groupContext="foregroundPage">
		<title>Page-1</title>
		<v:pageProperties v:drawingScale="0.0393701" v:pageScale="0.0393701" v:drawingUnits="24" v:shadowOffsetX="8.50394"
				v:shadowOffsetY="-8.50394"/>
		<v:layer v:name="symbols" v:index="0"/>
		<g id="group289-1" transform="translate(7.5,-6.9375)" v:mID="289" v:groupContext="group" v:layerMember="0">
			<title>User Accounts</title>
			<g id="shape290-2" v:mID="290" v:groupContext="shape" v:layerMember="0" transform="translate(3.19744E-13,-18.75)">
				<title>Sheet.290</title>
				<rect x="0" y="40.875" width="36.75" height="36.75" class="st1"/>
			</g>
			<g id="group291-4" transform="translate(2.25,-21)" v:mID="291" v:groupContext="group" v:layerMember="0">
				<title>Sheet.291</title>
				<g id="shape292-5" v:mID="292" v:groupContext="shape" v:layerMember="0">
					<title>Sheet.292</title>
					<rect x="0" y="45.375" width="32.25" height="32.25" class="st1"/>
				</g>
				<g id="shape293-7" v:mID="293" v:groupContext="shape" v:layerMember="0">
					<title>Sheet.293</title>
					<path d="M30 47.63 L30 75.38 L2.25 75.38 L2.25 47.63 L30 47.63 ZM32.25 45.38 L0 45.38 L0 77.63 L32.25 77.63 L32.25
								 45.38 Z" class="st2"/>
				</g>
			</g>
			<g id="group294-9" transform="translate(9,-27.075)" v:mID="294" v:groupContext="group" v:layerMember="0">
				<title>Sheet.294</title>
				<g id="shape295-10" v:mID="295" v:groupContext="shape" v:layerMember="0">
					<title>Sheet.295</title>
					<path d="M18 71.78 C17.62 70.2 17.25 69.45 16.05 68.85 C14.85 68.18 14.25 68.55 13.8 68.55 C13.57 68.55 13.42
								 68.63 13.35 68.7 C13.05 68.93 12.75 68.4 12.45 68.63 C12.45 68.63 12.45 68.63 12.45 68.63 C12.37
								 68.63 12.37 68.7 12.3 68.7 C12 68.93 11.62 69.08 11.32 69.15 C10.72 69.38 10.05 69.45 9.37 69.45
								 C8.7 69.45 8.02 69.3 7.42 69.15 C7.12 69.08 6.75 68.93 6.45 68.7 C6.07 68.48 5.7 68.18 5.4 67.88
								 C5.25 67.8 5.1 67.73 4.95 67.73 C4.5 67.73 4.05 68.03 2.7 68.78 C1.57 69.45 1.12 70.2 0.75 71.7
								 C0.45 73.05 0.07 76.13 0 77.63 L18.75 77.63 C18.67 76.2 18.3 73.13 18 71.78 Z" class="st3"/>
				</g>
				<g id="shape296-12" v:mID="296" v:groupContext="shape" v:layerMember="0" transform="translate(4.8,-10.2)">
					<title>Sheet.296</title>
					<path d="M4.57 77.63 C2.03 77.63 0 75.38 0 72.53 C0 69.68 2.03 67.43 4.57 67.43 C7.12 67.43 9.15 69.68 9.15 72.53
								 C9.15 75.38 7.12 77.63 4.57 77.63 Z" class="st3"/>
				</g>
			</g>
			<g id="shape297-14" v:mID="297" v:groupContext="shape" v:layerMember="0" transform="translate(27,-27)">
				<title>Sheet.297</title>
				<rect x="0" y="40.875" width="36.75" height="36.75" class="st1"/>
			</g>
			<g id="group298-16" transform="translate(29.25,-29.25)" v:mID="298" v:groupContext="group" v:layerMember="0">
				<title>Sheet.298</title>
				<g id="shape299-17" v:mID="299" v:groupContext="shape" v:layerMember="0">
					<title>Sheet.299</title>
					<rect x="0" y="45.375" width="32.25" height="32.25" class="st1"/>
				</g>
				<g id="shape300-19" v:mID="300" v:groupContext="shape" v:layerMember="0">
					<title>Sheet.300</title>
					<path d="M30 47.63 L30 75.38 L2.25 75.38 L2.25 47.63 L30 47.63 ZM32.25 45.38 L0 45.38 L0 77.63 L32.25 77.63 L32.25
								 45.38 Z" class="st2"/>
				</g>
			</g>
			<g id="group301-21" transform="translate(36,-35.325)" v:mID="301" v:groupContext="group" v:layerMember="0">
				<title>Sheet.301</title>
				<g id="shape302-22" v:mID="302" v:groupContext="shape" v:layerMember="0">
					<title>Sheet.302</title>
					<path d="M18 71.78 C17.62 70.2 17.25 69.45 16.05 68.85 C14.85 68.18 14.25 67.8 13.8 67.8 C13.57 67.8 13.42 67.88
								 13.35 67.95 C13.05 68.18 12.75 68.4 12.45 68.63 C12.45 68.63 12.45 68.63 12.45 68.63 C12.37 68.63
								 12.37 68.7 12.3 68.7 C12 68.93 11.62 69.08 11.32 69.15 C10.72 69.38 10.05 69.45 9.37 69.45 C8.7
								 69.45 8.02 69.3 7.42 69.15 C7.12 69.08 6.75 68.93 6.45 68.7 C6.07 68.48 5.7 68.18 5.4 67.88 C5.25
								 67.8 5.1 67.73 4.95 67.73 C4.5 67.73 4.05 68.03 2.7 68.78 C1.57 69.45 1.12 70.2 0.75 71.7 C0.45
								 73.05 0.08 76.13 0 77.63 L18.75 77.63 C18.67 76.2 18.3 73.13 18 71.78 Z" class="st3"/>
				</g>
				<g id="shape303-24" v:mID="303" v:groupContext="shape" v:layerMember="0" transform="translate(4.8,-10.2)">
					<title>Sheet.303</title>
					<path d="M4.57 77.63 C2.03 77.63 0 75.38 0 72.53 C0 69.68 2.03 67.43 4.57 67.43 C7.12 67.43 9.15 69.68 9.15 72.53
								 C9.15 75.38 7.12 77.63 4.57 77.63 Z" class="st3"/>
				</g>
			</g>
			<g id="shape304-26" v:mID="304" v:groupContext="shape" v:layerMember="0" transform="translate(18,-3.2685E-13)">
				<title>Sheet.304</title>
				<rect x="0" y="40.875" width="36.75" height="36.75" class="st1"/>
			</g>
			<g id="group305-28" transform="translate(20.25,-2.25)" v:mID="305" v:groupContext="group" v:layerMember="0">
				<title>Sheet.305</title>
				<g id="shape306-29" v:mID="306" v:groupContext="shape" v:layerMember="0">
					<title>Sheet.306</title>
					<rect x="0" y="45.375" width="32.25" height="32.25" class="st1"/>
				</g>
				<g id="shape307-31" v:mID="307" v:groupContext="shape" v:layerMember="0">
					<title>Sheet.307</title>
					<path d="M30 47.63 L30 75.38 L2.25 75.38 L2.25 47.63 L30 47.63 ZM32.25 45.38 L0 45.38 L0 77.63 L32.25 77.63 L32.25
								 45.38 Z" class="st2"/>
				</g>
			</g>
			<g id="group308-33" transform="translate(27,-8.325)" v:mID="308" v:groupContext="group" v:layerMember="0">
				<title>Sheet.308</title>
				<g id="shape309-34" v:mID="309" v:groupContext="shape" v:layerMember="0">
					<title>Sheet.309</title>
					<path d="M18 71.78 C17.62 70.2 17.25 69.45 16.05 68.85 C14.85 68.18 14.25 67.8 13.8 67.8 C13.57 67.8 13.42 67.88
								 13.35 67.95 C13.05 68.18 12.75 68.4 12.45 68.63 C12.45 68.63 12.45 68.63 12.45 68.63 C12.37 68.63
								 12.37 68.7 12.3 68.7 C12 68.93 11.62 69.08 11.32 69.15 C10.72 69.38 10.05 69.45 9.37 69.45 C8.7
								 69.45 8.02 69.3 7.42 69.15 C7.12 69.08 6.75 68.93 6.45 68.7 C6.07 68.48 5.7 68.18 5.4 67.88 C5.25
								 67.8 5.1 67.73 4.95 67.73 C4.5 67.73 4.05 68.03 2.7 68.78 C1.57 69.45 1.12 70.2 0.75 71.7 C0.45
								 73.05 0.08 76.13 0 77.63 L18.75 77.63 C18.67 76.2 18.3 73.13 18 71.78 Z" class="st3"/>
				</g>
				<g id="shape310-36" v:mID="310" v:groupContext="shape" v:layerMember="0" transform="translate(4.8,-10.2)">
					<title>Sheet.310</title>
					<path d="M4.57 77.63 C2.03 77.63 0 75.38 0 72.53 C0 69.68 2.03 67.43 4.57 67.43 C7.12 67.43 9.15 69.68 9.15 72.53
								 C9.15 75.38 7.12 77.63 4.57 77.63 Z" class="st3"/>
				</g>
			</g>
		</g>
	</g>
</svg>
