<?xml version="1.0" encoding="UTF-8" standalone="no"?>
<!DOCTYPE svg PUBLIC "-//W3C//DTD SVG 1.1//EN" "http://www.w3.org/Graphics/SVG/1.1/DTD/svg11.dtd">
<!-- Generated by Microsoft Visio, SVG Export Users, Two - green.svg Page-1 -->
<svg xmlns="http://www.w3.org/2000/svg" xmlns:xlink="http://www.w3.org/1999/xlink" xmlns:ev="http://www.w3.org/2001/xml-events"
		xmlns:v="http://schemas.microsoft.com/visio/2003/SVGExtensions/" width="0.965625in" height="0.796875in"
		viewBox="0 0 69.525 57.375" xml:space="preserve" color-interpolation-filters="sRGB" class="st3">
	<v:documentProperties v:langID="4108" v:metric="true" v:viewMarkup="false"/>

	<style type="text/css">
	<![CDATA[
		.st1 {fill:#ffffff;stroke:none;stroke-linecap:butt;stroke-width:0.75}
		.st2 {fill:#7fba42;stroke:none;stroke-linecap:butt;stroke-width:0.75}
		.st3 {fill:none;fill-rule:evenodd;font-size:12px;overflow:visible;stroke-linecap:square;stroke-miterlimit:3}
	]]>
	</style>

	<g v:mID="0" v:index="1" v:groupContext="foregroundPage">
		<title>Page-1</title>
		<v:pageProperties v:drawingScale="0.0393701" v:pageScale="0.0393701" v:drawingUnits="24" v:shadowOffsetX="8.50394"
				v:shadowOffsetY="-8.50394"/>
		<v:layer v:name="symbols" v:index="0"/>
		<g id="group531-1" transform="translate(2.175,-8.1)" v:mID="531" v:groupContext="group" v:layerMember="0">
			<title>Users, Two - green</title>
			<g id="group532-2" v:mID="532" v:groupContext="group" v:layerMember="0">
				<title>Sheet.532</title>
				<g id="group533-3" transform="translate(24.75,-7.95)" v:mID="533" v:groupContext="group" v:layerMember="0">
					<title>Sheet.533</title>
					<g id="shape534-4" v:mID="534" v:groupContext="shape" v:layerMember="0">
						<title>Sheet.534</title>
						<path d="M0 57.37 L0.15 54.97 C0.3 52.35 0.98 46.95 1.5 44.4 C2.17 41.47 3.07 39.45 5.92 37.87 L6.9 37.35
									 C8.85 36.22 9.75 35.7 10.95 35.7 C11.62 35.7 12.23 35.85 12.82 36.15 L13.05 36.3 L13.27 36.45
									 C13.72 36.9 14.25 37.27 14.78 37.5 C15.22 37.8 15.6 37.95 16.05 38.1 L16.12 38.1 C16.95 38.4
									 17.85 38.55 18.67 38.55 C19.58 38.55 20.4 38.4 21.22 38.1 C21.75 37.95 22.13 37.8 22.5 37.5
									 L22.72 37.35 L22.95 37.2 C23.32 36.97 23.7 36.67 24 36.37 L24.22 36.22 L24.45 36.07 C25.05 35.77
									 25.65 35.62 26.32 35.62 C27.52 35.62 28.57 36.22 30.3 37.2 C30.6 37.35 30.97 37.57 31.35 37.8
									 C34.2 39.37 35.1 41.4 35.77 44.4 C36.37 46.95 36.97 52.35 37.12 54.97 L37.27 57.37 L0 57.37
									 Z" class="st1"/>
					</g>
					<g id="shape535-6" v:mID="535" v:groupContext="shape" v:layerMember="0" transform="translate(2.25,-2.25)">
						<title>Sheet.535</title>
						<path d="M31.35 47.17 C30.75 44.47 30 43.2 27.97 42.07 C25.95 40.95 24.82 40.2 24.07 40.2 C23.77 40.2 23.47
									 40.27 23.25 40.42 C22.72 40.87 22.2 41.25 21.67 41.62 C21.67 41.62 21.67 41.62 21.67 41.62 C21.6
									 41.7 21.45 41.77 21.37 41.77 C20.77 42.15 20.25 42.37 19.65 42.52 C18.6 42.9 17.47 43.12 16.35
									 43.12 C15.15 43.12 14.1 42.9 13.05 42.52 C12.45 42.37 11.92 42.07 11.33 41.77 C10.65 41.4 10.05
									 40.95 9.45 40.42 C9.23 40.27 9 40.2 8.63 40.2 C7.88 40.2 7.12 40.72 4.72 42.07 C2.7 43.2 1.95
									 44.47 1.35 47.17 C0.83 49.5 0.22 54.82 0 57.37 L32.55 57.37 C32.55 54.82 31.87 49.5 31.35 47.17
									 Z" class="st2"/>
					</g>
					<g id="shape536-8" v:mID="536" v:groupContext="shape" v:layerMember="0" transform="translate(8.475,-17.85)">
						<title>Sheet.536</title>
						<path d="M10.2 57.37 C4.57 57.37 0 52.42 0 46.27 C-0 40.12 4.57 35.25 10.2 35.25 C15.82 35.25 20.4 40.2 20.4
									 46.35 C20.4 52.5 15.82 57.37 10.2 57.37 Z" class="st1"/>
					</g>
					<g id="shape537-10" v:mID="537" v:groupContext="shape" v:layerMember="0" transform="translate(10.725,-20.1)">
						<title>Sheet.537</title>
						<path d="M7.95 57.37 C3.6 57.37 0 53.4 0 48.52 C0 43.65 3.6 39.67 7.95 39.67 C12.3 39.67 15.9 43.65 15.9
									 48.52 C15.9 53.47 12.3 57.37 7.95 57.37 Z" class="st2"/>
					</g>
				</g>
				<g id="group538-12" v:mID="538" v:groupContext="group" v:layerMember="0">
					<title>Sheet.538</title>
					<g id="shape539-13" v:mID="539" v:groupContext="shape" v:layerMember="0">
						<title>Sheet.539</title>
						<path d="M0 57.37 L0.15 54.97 C0.3 52.35 0.9 46.95 1.5 44.4 C2.17 41.47 3.07 39.45 5.92 37.87 L6.9 37.35
									 C8.85 36.22 9.75 35.7 10.95 35.7 C11.63 35.7 12.23 35.85 12.82 36.15 L13.05 36.3 L13.27 36.45
									 C13.72 36.9 14.25 37.27 14.78 37.5 C15.22 37.8 15.6 37.95 16.05 38.1 L16.12 38.1 C16.95 38.4
									 17.85 38.55 18.67 38.55 C19.58 38.55 20.4 38.4 21.22 38.1 C21.75 37.95 22.13 37.8 22.5 37.5
									 L22.72 37.35 L22.95 37.2 C23.32 36.97 23.7 36.67 24 36.37 L24.22 36.22 L24.45 36.07 C25.05 35.77
									 25.65 35.62 26.32 35.62 C27.52 35.62 28.57 36.22 30.3 37.2 C30.6 37.35 30.97 37.57 31.35 37.8
									 C34.2 39.37 35.1 41.4 35.77 44.4 C36.37 46.95 36.97 52.35 37.12 54.97 L37.27 57.37 L0 57.37
									 Z" class="st1"/>
					</g>
					<g id="shape540-15" v:mID="540" v:groupContext="shape" v:layerMember="0" transform="translate(2.325,-2.25)">
						<title>Sheet.540</title>
						<path d="M31.27 47.17 C30.67 44.47 29.92 43.2 27.9 42.07 C25.87 40.95 24.75 40.2 24 40.2 C23.7 40.2 23.4
									 40.27 23.17 40.42 C22.65 40.87 22.12 41.25 21.6 41.62 C21.6 41.62 21.6 41.62 21.6 41.62 C21.53
									 41.62 21.45 41.7 21.37 41.7 C20.77 42.07 20.25 42.3 19.65 42.45 C18.6 42.82 17.47 43.05 16.35
									 43.05 C15.15 43.05 14.1 42.82 13.05 42.45 C12.45 42.3 11.92 42 11.33 41.7 C10.65 41.32 10.05
									 40.87 9.45 40.35 C9.23 40.2 9 40.12 8.63 40.12 C7.88 40.12 7.12 40.65 4.72 42 C2.7 43.2 2.02
									 44.47 1.35 47.17 C0.83 49.5 0.23 54.82 0 57.37 L32.55 57.37 C32.47 54.82 31.8 49.5 31.27 47.17
									 Z" class="st2"/>
					</g>
					<g id="shape541-17" v:mID="541" v:groupContext="shape" v:layerMember="0" transform="translate(8.475,-17.85)">
						<title>Sheet.541</title>
						<path d="M10.2 57.37 C4.57 57.37 0 52.42 0 46.27 C-0 40.12 4.57 35.17 10.2 35.17 C15.82 35.17 20.4 40.12
									 20.4 46.27 C20.4 52.42 15.82 57.37 10.2 57.37 Z" class="st1"/>
					</g>
					<g id="shape542-19" v:mID="542" v:groupContext="shape" v:layerMember="0" transform="translate(10.725,-20.1)">
						<title>Sheet.542</title>
						<path d="M7.95 57.37 C3.6 57.37 0 53.4 0 48.52 C0 43.65 3.6 39.67 7.95 39.67 C12.3 39.67 15.9 43.65 15.9
									 48.52 C15.9 53.4 12.3 57.37 7.95 57.37 Z" class="st2"/>
					</g>
				</g>
			</g>
		</g>
	</g>
</svg>
