<?xml version="1.0" encoding="UTF-8" standalone="no"?>
<!DOCTYPE svg PUBLIC "-//W3C//DTD SVG 1.1//EN" "http://www.w3.org/Graphics/SVG/1.1/DTD/svg11.dtd">
<!-- Generated by Microsoft Visio, SVG Export User - orange.svg Page-1 -->
<svg xmlns="http://www.w3.org/2000/svg" xmlns:xlink="http://www.w3.org/1999/xlink" xmlns:ev="http://www.w3.org/2001/xml-events"
		xmlns:v="http://schemas.microsoft.com/visio/2003/SVGExtensions/" width="0.765625in" height="0.953125in"
		viewBox="0 0 55.125 68.625" xml:space="preserve" color-interpolation-filters="sRGB" class="st3">
	<v:documentProperties v:langID="4108" v:metric="true" v:viewMarkup="false"/>

	<style type="text/css">
	<![CDATA[
		.st1 {fill:#ffffff;stroke:none;stroke-linecap:butt;stroke-width:0.75}
		.st2 {fill:#da4026;stroke:none;stroke-linecap:butt;stroke-width:0.75}
		.st3 {fill:none;fill-rule:evenodd;font-size:12px;overflow:visible;stroke-linecap:square;stroke-miterlimit:3}
	]]>
	</style>

	<g v:mID="0" v:index="1" v:groupContext="foregroundPage">
		<title>Page-1</title>
		<v:pageProperties v:drawingScale="0.0393701" v:pageScale="0.0393701" v:drawingUnits="24" v:shadowOffsetX="8.50394"
				v:shadowOffsetY="-8.50394"/>
		<v:layer v:name="symbols" v:index="0"/>
		<g id="group321-1" transform="translate(2.325,-6.9375)" v:mID="321" v:groupContext="group" v:layerMember="0">
			<title>User - orange</title>
			<g id="group322-2" v:mID="322" v:groupContext="group" v:layerMember="0">
				<title>Sheet.322</title>
				<g id="shape323-3" v:mID="323" v:groupContext="shape" v:layerMember="0">
					<title>Sheet.323</title>
					<path d="M50.92 68.62 L50.77 66.22 C50.55 62.55 49.65 54.9 48.83 51.37 C47.92 47.47 46.73 44.77 42.97 42.67 L41.63
								 41.92 C39 40.42 37.88 39.75 36.37 39.75 C35.55 39.75 34.87 39.9 34.13 40.27 L33 40.87 L33.9 40.12
								 C36.97 37.42 38.93 33.3 38.93 28.65 C39 20.47 32.93 13.87 25.5 13.87 L25.42 13.87 C18 13.87 11.93
								 20.47 11.93 28.65 C11.93 33.3 13.87 37.42 16.95 40.12 L17.85 40.87 L16.65 40.27 C15.97 39.9 15.23
								 39.75 14.4 39.75 C12.9 39.75 11.7 40.42 9.15 41.92 L7.8 42.67 C4.12 44.77 2.85 47.47 1.95 51.37
								 C1.13 54.9 0.3 62.55 0 66.22 L0 68.62 L50.92 68.62 Z" class="st1"/>
				</g>
				<g id="shape324-5" v:mID="324" v:groupContext="shape" v:layerMember="0" transform="translate(2.55,-2.325)">
					<title>Sheet.324</title>
					<path d="M44.03 54.22 C43.13 50.4 42.15 48.6 39.3 47.02 C36.45 45.37 34.88 44.4 33.82 44.4 C33.38 44.4 33 44.47
								 32.7 44.7 C32.03 45.3 31.27 45.9 30.45 46.35 C30.3 46.42 30.15 46.5 30.07 46.57 C29.25 47.1 28.43
								 47.4 27.68 47.7 C26.18 48.22 24.6 48.52 22.95 48.52 C21.3 48.52 19.72 48.22 18.22 47.7 C17.4 47.47
								 16.65 47.1 15.83 46.57 C14.85 46.05 13.95 45.37 13.2 44.62 C12.9 44.47 12.52 44.32 12.08 44.32 C11.02
								 44.32 9.9 45.07 6.6 46.95 C3.75 48.6 2.7 50.4 1.88 54.15 C1.13 57.45 0.23 65.02 0 68.62 L46.13 68.62
								 C45.67 65.1 44.77 57.52 44.03 54.22 Z" class="st2"/>
				</g>
				<g id="shape325-7" v:mID="325" v:groupContext="shape" v:layerMember="0" transform="translate(14.175,-27.525)">
					<title>Sheet.325</title>
					<path d="M11.25 68.62 C5.02 68.62 0 63 0 56.1 C-0 49.2 5.02 43.65 11.25 43.65 C17.48 43.65 22.5 49.27 22.5 56.17
								 C22.5 63.07 17.48 68.62 11.25 68.62 Z" class="st2"/>
				</g>
			</g>
		</g>
	</g>
</svg>
