<?xml version="1.0" encoding="UTF-8" standalone="no"?>
<!DOCTYPE svg PUBLIC "-//W3C//DTD SVG 1.1//EN" "http://www.w3.org/Graphics/SVG/1.1/DTD/svg11.dtd">
<!-- Generated by Microsoft Visio, SVG Export Users.svg Page-1 -->
<svg xmlns="http://www.w3.org/2000/svg" xmlns:xlink="http://www.w3.org/1999/xlink" xmlns:ev="http://www.w3.org/2001/xml-events"
		xmlns:v="http://schemas.microsoft.com/visio/2003/SVGExtensions/" width="0.9375in" height="0.859375in"
		viewBox="0 0 67.5 61.875" xml:space="preserve" color-interpolation-filters="sRGB" class="st3">
	<v:documentProperties v:langID="4108" v:metric="true" v:viewMarkup="false"/>

	<style type="text/css">
	<![CDATA[
		.st1 {fill:#ffffff;stroke:none;stroke-linecap:butt;stroke-width:0.75}
		.st2 {fill:#515251;stroke:none;stroke-linecap:butt;stroke-width:0.75}
		.st3 {fill:none;fill-rule:evenodd;font-size:12px;overflow:visible;stroke-linecap:square;stroke-miterlimit:3}
	]]>
	</style>

	<g v:mID="0" v:index="1" v:groupContext="foregroundPage">
		<title>Page-1</title>
		<v:pageProperties v:drawingScale="0.0393701" v:pageScale="0.0393701" v:drawingUnits="24" v:shadowOffsetX="8.50394"
				v:shadowOffsetY="-8.50394"/>
		<v:layer v:name="symbols" v:index="0"/>
		<g id="group372-1" transform="translate(5.4375,-6.15)" v:mID="372" v:groupContext="group" v:layerMember="0">
			<title>Users</title>
			<g id="group373-2" transform="translate(22.35,-17.475)" v:mID="373" v:groupContext="group" v:layerMember="0">
				<title>Sheet.373</title>
				<g id="shape374-3" v:mID="374" v:groupContext="shape" v:layerMember="0">
					<title>Sheet.374</title>
					<path d="M0 61.87 L0.15 59.47 C0.3 57.07 0.9 52.2 1.43 49.87 C2.02 47.17 2.92 45.3 5.55 43.8 L6.38 43.27 C8.1
								 42.3 9 41.77 10.13 41.77 C10.8 41.77 11.32 41.92 11.92 42.22 L12.15 42.37 L12.37 42.6 C12.82 42.97
								 13.2 43.27 13.65 43.57 C14.03 43.8 14.4 43.95 14.78 44.1 L14.85 44.1 C15.6 44.32 16.35 44.47 17.1
								 44.47 C17.85 44.47 18.6 44.32 19.35 44.1 C19.8 43.95 20.1 43.8 20.47 43.57 L20.55 43.57 L21.07 43.12
								 L21.22 43.12 C21.45 42.97 21.67 42.82 21.82 42.6 L22.05 42.37 L22.27 42.22 C22.8 41.92 23.4 41.77
								 24.07 41.77 C25.2 41.77 26.17 42.3 27.75 43.2 C28.05 43.35 28.35 43.57 28.72 43.72 C31.35 45.22
								 32.25 47.1 32.85 49.8 C33.37 52.12 33.97 57 34.12 59.4 L34.27 61.8 L0 61.8 L0 61.87 Z" class="st1"/>
				</g>
				<g id="shape375-5" v:mID="375" v:groupContext="shape" v:layerMember="0" transform="translate(2.4,-2.25)">
					<title>Sheet.375</title>
					<path d="M28.27 52.65 C27.75 50.25 27.07 49.05 25.27 48 C23.4 46.95 22.42 46.35 21.75 46.35 C21.45 46.35 21.22
								 46.42 21 46.5 C20.55 46.87 20.1 47.25 19.57 47.55 C19.57 47.55 19.57 47.55 19.57 47.55 C19.5 47.62
								 19.42 47.62 19.35 47.7 C18.83 48 18.3 48.22 17.77 48.37 C16.8 48.67 15.82 48.9 14.77 48.9 C13.72
								 48.9 12.75 48.75 11.77 48.37 C11.25 48.22 10.72 48 10.2 47.7 C9.6 47.32 9 46.95 8.48 46.42 C8.25
								 46.35 8.03 46.27 7.72 46.27 C7.05 46.27 6.37 46.72 4.2 48 C2.4 49.05 1.72 50.17 1.2 52.65 C0.75
								 54.75 0.15 59.55 0 61.87 L29.47 61.87 C29.32 59.55 28.72 54.75 28.27 52.65 Z" class="st2"/>
				</g>
				<g id="shape376-7" v:mID="376" v:groupContext="shape" v:layerMember="0" transform="translate(7.725,-16.125)">
					<title>Sheet.376</title>
					<path d="M9.45 61.87 C4.28 61.87 0 57.3 0 51.67 C0 46.05 4.2 41.4 9.45 41.4 C14.62 41.4 18.9 45.97 18.9 51.6
								 C18.9 57.22 14.62 61.87 9.45 61.87 Z" class="st1"/>
				</g>
				<g id="shape377-9" v:mID="377" v:groupContext="shape" v:layerMember="0" transform="translate(9.975,-18.375)">
					<title>Sheet.377</title>
					<path d="M7.2 61.87 C3.22 61.87 0 58.27 0 53.92 C0 49.57 3.22 45.97 7.2 45.97 C11.18 45.97 14.4 49.57 14.4 53.92
								 C14.4 58.27 11.1 61.87 7.2 61.87 Z" class="st2"/>
				</g>
			</g>
			<g id="group378-11" transform="translate(2.79776E-13,-10.275)" v:mID="378" v:groupContext="group" v:layerMember="0">
				<title>Sheet.378</title>
				<g id="shape379-12" v:mID="379" v:groupContext="shape" v:layerMember="0">
					<title>Sheet.379</title>
					<path d="M0 61.87 L0.15 59.47 C0.3 57.07 0.9 52.2 1.43 49.87 C2.02 47.17 2.92 45.3 5.55 43.8 L6.37 43.35 C8.1
								 42.37 9 41.85 10.12 41.85 C10.8 41.85 11.4 42 11.93 42.3 L12.15 42.45 L12.37 42.6 C12.82 42.97 13.2
								 43.27 13.65 43.57 C14.03 43.8 14.4 43.95 14.77 44.1 L14.85 44.1 C15.6 44.32 16.35 44.47 17.1 44.47
								 C17.85 44.47 18.6 44.32 19.35 44.1 L19.42 44.1 C19.8 43.95 20.1 43.8 20.47 43.65 L20.62 43.57 L21.15
								 43.12 L21.22 43.12 C21.45 42.97 21.67 42.82 21.82 42.6 L22.05 42.45 L22.27 42.3 C22.8 42 23.4 41.85
								 24.07 41.85 C25.2 41.85 26.17 42.37 27.75 43.27 C28.05 43.42 28.35 43.65 28.65 43.8 C31.27 45.3
								 32.17 47.17 32.77 49.87 C33.3 52.2 33.9 57.07 34.05 59.47 L34.2 61.87 L0 61.87 Z" class="st1"/>
				</g>
				<g id="shape380-14" v:mID="380" v:groupContext="shape" v:layerMember="0" transform="translate(2.4,-2.4)">
					<title>Sheet.380</title>
					<path d="M28.27 52.72 C27.75 50.32 27.07 49.12 25.27 48.07 C23.47 47.02 22.42 46.35 21.75 46.35 C21.45 46.35
								 21.22 46.42 21 46.5 C20.55 46.87 20.1 47.25 19.57 47.55 C19.57 47.55 19.57 47.55 19.57 47.55 C19.5
								 47.62 19.42 47.62 19.35 47.7 C18.83 48 18.3 48.22 17.77 48.37 C16.8 48.67 15.82 48.9 14.77 48.9
								 C13.72 48.9 12.75 48.75 11.77 48.37 C11.25 48.22 10.72 48 10.2 47.7 C9.6 47.32 9 46.95 8.48 46.42
								 C8.25 46.35 8.03 46.27 7.72 46.27 C7.05 46.27 6.37 46.72 4.2 48 C2.4 49.05 1.72 50.17 1.2 52.65
								 C0.75 54.75 0.15 59.55 0 61.87 L29.47 61.87 C29.32 59.7 28.72 54.9 28.27 52.72 Z" class="st2"/>
				</g>
				<g id="shape381-16" v:mID="381" v:groupContext="shape" v:layerMember="0" transform="translate(7.65,-16.125)">
					<title>Sheet.381</title>
					<path d="M9.45 61.87 C4.28 61.87 0 57.3 0 51.67 C0 46.05 4.2 41.47 9.45 41.47 C14.62 41.47 18.9 46.05 18.9 51.67
								 C18.9 57.22 14.7 61.87 9.45 61.87 Z" class="st1"/>
				</g>
				<g id="shape382-18" v:mID="382" v:groupContext="shape" v:layerMember="0" transform="translate(9.9,-18.375)">
					<title>Sheet.382</title>
					<path d="M7.2 61.87 C3.22 61.87 0 58.27 0 53.92 C0 49.5 3.22 45.97 7.2 45.97 C11.18 45.97 14.4 49.57 14.4 53.92
								 C14.4 58.27 11.18 61.87 7.2 61.87 Z" class="st2"/>
				</g>
			</g>
			<g id="group383-20" transform="translate(15.825,0)" v:mID="383" v:groupContext="group" v:layerMember="0">
				<title>Sheet.383</title>
				<g id="shape384-21" v:mID="384" v:groupContext="shape" v:layerMember="0">
					<title>Sheet.384</title>
					<path d="M0 61.87 L0.15 59.47 C0.3 57.07 0.9 52.12 1.43 49.87 C2.03 47.17 2.92 45.3 5.55 43.8 L6.37 43.27 C8.1
								 42.3 9 41.77 10.12 41.77 C10.8 41.77 11.4 41.92 11.93 42.22 L12.15 42.37 L12.37 42.52 C12.75 42.9
								 13.2 43.2 13.65 43.5 C14.03 43.72 14.4 43.87 14.77 44.02 L14.85 44.02 C15.6 44.25 16.35 44.4 17.1
								 44.4 C17.85 44.4 18.6 44.25 19.35 44.02 L19.42 44.02 C19.8 43.87 20.1 43.72 20.47 43.57 L20.55 43.5
								 L21.07 43.05 L21.22 43.05 C21.45 42.9 21.67 42.75 21.82 42.52 L22.05 42.37 L22.27 42.22 C22.8 41.92
								 23.4 41.77 24.07 41.77 C25.2 41.77 26.17 42.3 27.75 43.2 C28.05 43.35 28.35 43.57 28.65 43.72 C31.27
								 45.22 32.17 47.1 32.77 49.8 C33.3 52.05 33.9 57 34.05 59.4 L34.2 61.8 L0 61.8 L0 61.87 Z"
							class="st1"/>
				</g>
				<g id="shape385-23" v:mID="385" v:groupContext="shape" v:layerMember="0" transform="translate(2.325,-2.325)">
					<title>Sheet.385</title>
					<path d="M28.27 52.72 C27.75 50.32 27.07 49.12 25.27 48.07 C23.47 47.02 22.42 46.35 21.75 46.35 C21.45 46.35
								 21.22 46.42 21 46.5 C20.55 46.87 20.1 47.25 19.57 47.55 C19.57 47.55 19.57 47.55 19.57 47.55 C19.5
								 47.62 19.42 47.62 19.35 47.7 C18.83 48 18.3 48.22 17.77 48.37 C16.8 48.67 15.82 48.9 14.77 48.9
								 C13.72 48.9 12.75 48.67 11.77 48.37 C11.25 48.22 10.72 48 10.2 47.7 C9.6 47.32 9 46.95 8.48 46.42
								 C8.25 46.35 8.03 46.27 7.72 46.27 C7.05 46.27 6.37 46.72 4.2 48 C2.4 49.05 1.72 50.17 1.2 52.65
								 C0.75 54.75 0.15 59.55 0 61.87 L29.47 61.87 C29.32 59.62 28.8 54.82 28.27 52.72 Z" class="st2"/>
				</g>
				<g id="shape386-25" v:mID="386" v:groupContext="shape" v:layerMember="0" transform="translate(7.65,-16.125)">
					<title>Sheet.386</title>
					<path d="M9.45 61.87 C4.28 61.87 0 57.3 0 51.67 C0 46.05 4.2 41.47 9.45 41.47 C14.62 41.47 18.9 46.05 18.9 51.67
								 C18.9 57.3 14.62 61.87 9.45 61.87 Z" class="st1"/>
				</g>
				<g id="shape387-27" v:mID="387" v:groupContext="shape" v:layerMember="0" transform="translate(9.9,-18.375)">
					<title>Sheet.387</title>
					<path d="M7.2 61.87 C3.22 61.87 0 58.27 0 53.92 C0 49.57 3.22 45.97 7.2 45.97 C11.18 45.97 14.4 49.57 14.4 53.92
								 C14.4 58.27 11.18 61.87 7.2 61.87 Z" class="st2"/>
				</g>
			</g>
		</g>
	</g>
</svg>
