<?xml version="1.0" encoding="UTF-8" standalone="no"?>
<!DOCTYPE svg PUBLIC "-//W3C//DTD SVG 1.1//EN" "http://www.w3.org/Graphics/SVG/1.1/DTD/svg11.dtd">
<!-- Generated by Microsoft Visio, SVG Export User Store.svg Page-1 -->
<svg xmlns="http://www.w3.org/2000/svg" xmlns:xlink="http://www.w3.org/1999/xlink" xmlns:ev="http://www.w3.org/2001/xml-events"
		xmlns:v="http://schemas.microsoft.com/visio/2003/SVGExtensions/" width="0.911719in" height="1.01562in"
		viewBox="0 0 65.6437 73.125" xml:space="preserve" color-interpolation-filters="sRGB" class="st5">
	<v:documentProperties v:langID="4108" v:metric="true" v:viewMarkup="false"/>

	<style type="text/css">
	<![CDATA[
		.st1 {fill:#ffffff;stroke:none;stroke-linecap:butt;stroke-width:0.75}
		.st2 {fill:#515251;stroke:none;stroke-linecap:butt;stroke-width:0.75}
		.st3 {fill:#515150;stroke:none;stroke-linecap:butt;stroke-width:0.75}
		.st4 {fill:#525352;stroke:none;stroke-linecap:butt;stroke-width:0.75}
		.st5 {fill:none;fill-rule:evenodd;font-size:12px;overflow:visible;stroke-linecap:square;stroke-miterlimit:3}
	]]>
	</style>

	<g v:mID="0" v:index="1" v:groupContext="foregroundPage">
		<title>Page-1</title>
		<v:pageProperties v:drawingScale="0.0393701" v:pageScale="0.0393701" v:drawingUnits="24" v:shadowOffsetX="8.50394"
				v:shadowOffsetY="-8.50394"/>
		<v:layer v:name="symbols" v:index="0"/>
		<g id="group596-1" transform="translate(9.13125,-6.9375)" v:mID="596" v:groupContext="group" v:layerMember="0">
			<title>User Store</title>
			<g id="group597-2" v:mID="597" v:groupContext="group" v:layerMember="0">
				<title>Sheet.597</title>
				<g id="group598-3" transform="translate(2.71783E-13,-6)" v:mID="598" v:groupContext="group" v:layerMember="0">
					<title>Sheet.598</title>
					<g id="shape599-4" v:mID="599" v:groupContext="shape" v:layerMember="0">
						<title>Sheet.599</title>
						<path d="M39.75 29.25 L39.75 62.62 L39.75 64.27 L39.75 64.35 C39.07 72 27 73.12 19.87 73.12 C12.75 73.12
									 0.68 72 0 64.35 L0 64.27 L0 62.7 L0 29.25 L0 27.75 C-0 22.27 9.98 19.87 19.87 19.87 C29.78 19.87
									 39.75 22.27 39.75 27.75 L39.75 29.25 Z" class="st1"/>
					</g>
					<g id="shape600-6" v:mID="600" v:groupContext="shape" v:layerMember="0" transform="translate(2.25,-2.25)">
						<title>Sheet.600</title>
						<path d="M17.62 37.87 C10.57 37.87 3.52 36.67 0 33.97 L0 64.87 L0 66.37 C0.53 72.6 13.2 73.12 17.62 73.12
									 C22.05 73.12 34.65 72.6 35.25 66.37 L35.25 64.87 L35.25 33.97 C31.72 36.67 24.67 37.87 17.62
									 37.87 Z" class="st2"/>
					</g>
					<g id="shape601-8" v:mID="601" v:groupContext="shape" v:layerMember="0" transform="translate(2.25,-39.75)">
						<title>Sheet.601</title>
						<ellipse cx="17.625" cy="67.5" rx="17.625" ry="5.625" class="st3"/>
					</g>
				</g>
				<g id="group602-10" transform="translate(23.25,0)" v:mID="602" v:groupContext="group" v:layerMember="0">
					<title>Sheet.602</title>
					<g id="shape603-11" v:mID="603" v:groupContext="shape" v:layerMember="0">
						<title>Sheet.603</title>
						<path d="M31.13 70.72 C30.98 68.55 30.45 64.12 30 62.02 C29.4 59.55 28.58 57.75 26.18 56.4 C25.88 56.25 25.57
									 56.1 25.35 55.95 C24.3 55.35 23.48 54.9 22.73 54.67 C23.78 53.1 24.38 51.22 24.38 49.12 C24.38
									 43.95 20.48 39.67 15.68 39.67 C10.88 39.67 6.97 43.87 6.97 49.12 C6.97 51.22 7.58 53.1 8.63
									 54.67 C7.88 54.82 7.13 55.27 5.85 55.95 L5.1 56.4 C2.7 57.75 1.88 59.55 1.28 62.02 C0.83 64.12
									 0.3 68.55 0.15 70.72 L0 73.12 L31.28 73.12 L31.13 70.72 Z" class="st1"/>
					</g>
					<g id="shape604-13" v:mID="604" v:groupContext="shape" v:layerMember="0" transform="translate(2.55,-2.25)">
						<title>Sheet.604</title>
						<path d="M25.28 64.8 C24.75 62.62 24.15 61.57 22.58 60.67 C20.92 59.77 20.02 59.17 19.43 59.17 C19.12 59.17
									 18.98 59.25 18.75 59.32 C18.38 59.7 17.93 60 17.48 60.3 C17.48 60.3 17.48 60.3 17.48 60.3 C17.4
									 60.37 17.33 60.37 17.25 60.45 C16.8 60.75 16.35 60.9 15.83 61.05 C15 61.35 14.1 61.5 13.13 61.5
									 C12.15 61.5 11.25 61.35 10.43 61.05 C9.98 60.9 9.53 60.67 9.08 60.45 C8.55 60.15 8.02 59.77
									 7.57 59.32 C7.43 59.25 7.2 59.17 6.9 59.17 C6.3 59.17 5.63 59.62 3.75 60.67 C2.1 61.57 1.5 62.62
									 1.05 64.8 C0.6 66.67 0.08 71.02 0 73.12 L26.48 73.12 C26.18 71.02 25.73 66.75 25.28 64.8 Z"
								class="st4"/>
					</g>
					<g id="shape605-15" v:mID="605" v:groupContext="shape" v:layerMember="0" transform="translate(9.225,-16.725)">
						<title>Sheet.605</title>
						<path d="M6.45 73.12 C2.85 73.12 0 69.9 0 65.92 C0 61.95 2.93 58.72 6.45 58.72 C10.05 58.72 12.9 61.95 12.9
									 65.92 C12.9 69.9 9.98 73.12 6.45 73.12 Z" class="st4"/>
					</g>
				</g>
			</g>
		</g>
	</g>
</svg>
