<?xml version="1.0" encoding="UTF-8" standalone="no"?>
<!DOCTYPE svg PUBLIC "-//W3C//DTD SVG 1.1//EN" "http://www.w3.org/Graphics/SVG/1.1/DTD/svg11.dtd">
<!-- Generated by Microsoft Visio, SVG Export Users - ghosted.svg Page-1 -->
<svg xmlns="http://www.w3.org/2000/svg" xmlns:xlink="http://www.w3.org/1999/xlink" xmlns:ev="http://www.w3.org/2001/xml-events"
		xmlns:v="http://schemas.microsoft.com/visio/2003/SVGExtensions/" width="0.921875in" height="0.859375in"
		viewBox="0 0 66.375 61.875" xml:space="preserve" color-interpolation-filters="sRGB" class="st4">
	<v:documentProperties v:langID="4108" v:metric="true" v:viewMarkup="false"/>

	<style type="text/css">
	<![CDATA[
		.st1 {fill:#ffffff;stroke:none;stroke-linecap:butt;stroke-width:0.75}
		.st2 {fill:#9b9b9b;stroke:none;stroke-linecap:butt;stroke-width:0.75}
		.st3 {fill:#cccbcb;stroke:none;stroke-linecap:butt;stroke-width:0.75}
		.st4 {fill:none;fill-rule:evenodd;font-size:12px;overflow:visible;stroke-linecap:square;stroke-miterlimit:3}
	]]>
	</style>

	<g v:mID="0" v:index="1" v:groupContext="foregroundPage">
		<title>Page-1</title>
		<v:pageProperties v:drawingScale="0.0393701" v:pageScale="0.0393701" v:drawingUnits="24" v:shadowOffsetX="8.50394"
				v:shadowOffsetY="-8.50394"/>
		<v:layer v:name="symbols" v:index="0"/>
		<g id="group439-1" transform="translate(3.7875,-6.15)" v:mID="439" v:groupContext="group" v:layerMember="0">
			<title>Users - ghosted</title>
			<g id="group440-2" v:mID="440" v:groupContext="group" v:layerMember="0">
				<title>Sheet.440</title>
				<g id="group441-3" transform="translate(22.35,-17.475)" v:mID="441" v:groupContext="group" v:layerMember="0">
					<title>Sheet.441</title>
					<g id="shape442-4" v:mID="442" v:groupContext="shape" v:layerMember="0">
						<title>Sheet.442</title>
						<path d="M0 61.87 L0.15 59.47 C0.3 57.07 0.9 52.2 1.43 49.87 C2.02 47.17 2.92 45.3 5.55 43.8 L6.38 43.27
									 C8.1 42.3 9 41.77 10.13 41.77 C10.8 41.77 11.32 41.92 11.92 42.22 L12.15 42.37 L12.37 42.6 C12.82
									 42.97 13.2 43.27 13.65 43.57 C14.03 43.8 14.4 43.95 14.78 44.1 L14.85 44.1 C15.6 44.32 16.35
									 44.47 17.1 44.47 C17.85 44.47 18.6 44.32 19.35 44.1 C19.8 43.95 20.1 43.8 20.47 43.57 L20.55
									 43.57 L21.07 43.12 L21.22 43.12 C21.45 42.97 21.67 42.82 21.82 42.6 L22.05 42.37 L22.27 42.22
									 C22.8 41.92 23.4 41.77 24.07 41.77 C25.2 41.77 26.17 42.3 27.75 43.2 C28.05 43.35 28.35 43.57
									 28.72 43.72 C31.35 45.22 32.25 47.1 32.85 49.8 C33.37 52.12 33.97 57 34.12 59.4 L34.27 61.8
									 L0 61.8 L0 61.87 Z" class="st1"/>
					</g>
					<g id="shape443-6" v:mID="443" v:groupContext="shape" v:layerMember="0" transform="translate(2.4,-2.25)">
						<title>Sheet.443</title>
						<path d="M28.27 52.65 C27.75 50.25 27.07 49.05 25.27 48 C23.4 46.95 22.42 46.35 21.75 46.35 C21.45 46.35
									 21.22 46.42 21 46.5 C20.55 46.87 20.1 47.25 19.57 47.55 C19.5 47.62 19.42 47.62 19.35 47.7 C18.83
									 48 18.3 48.22 17.77 48.37 C16.8 48.67 15.82 48.9 14.77 48.9 C13.72 48.9 12.75 48.75 11.77 48.37
									 C11.25 48.22 10.72 48 10.2 47.7 C9.6 47.32 9 46.95 8.48 46.42 C8.25 46.35 8.03 46.27 7.72 46.27
									 C7.05 46.27 6.37 46.72 4.2 48 C2.4 49.05 1.72 50.17 1.2 52.65 C0.75 54.75 0.15 59.55 0 61.87
									 L29.47 61.87 C29.32 59.55 28.72 54.75 28.27 52.65 Z" class="st2"/>
					</g>
					<g id="shape444-8" v:mID="444" v:groupContext="shape" v:layerMember="0" transform="translate(7.725,-16.125)">
						<title>Sheet.444</title>
						<path d="M9.45 61.87 C4.28 61.87 0 57.3 0 51.67 C0 46.05 4.2 41.4 9.45 41.4 C14.62 41.4 18.9 45.97 18.9 51.6
									 C18.9 57.22 14.62 61.87 9.45 61.87 Z" class="st1"/>
					</g>
					<g id="shape445-10" v:mID="445" v:groupContext="shape" v:layerMember="0" transform="translate(9.975,-18.375)">
						<title>Sheet.445</title>
						<path d="M7.2 61.87 C3.22 61.87 0 58.27 0 53.92 C0 49.57 3.22 45.97 7.2 45.97 C11.18 45.97 14.4 49.57 14.4
									 53.92 C14.4 58.27 11.1 61.87 7.2 61.87 Z" class="st2"/>
					</g>
				</g>
				<g id="group446-12" transform="translate(2.8777E-13,-10.275)" v:mID="446" v:groupContext="group" v:layerMember="0">
					<title>Sheet.446</title>
					<g id="shape447-13" v:mID="447" v:groupContext="shape" v:layerMember="0">
						<title>Sheet.447</title>
						<path d="M0 61.87 L0.15 59.47 C0.3 57.07 0.9 52.2 1.43 49.87 C2.02 47.17 2.92 45.3 5.55 43.8 L6.37 43.35
									 C8.1 42.37 9 41.85 10.12 41.85 C10.8 41.85 11.4 42 11.93 42.3 L12.15 42.45 L12.37 42.6 C12.82
									 42.97 13.2 43.27 13.65 43.57 C14.03 43.8 14.4 43.95 14.77 44.1 L14.85 44.1 C15.6 44.32 16.35
									 44.47 17.1 44.47 C17.85 44.47 18.6 44.32 19.35 44.1 L19.42 44.1 C19.8 43.95 20.1 43.8 20.47
									 43.65 L20.62 43.57 L21.15 43.12 L21.22 43.12 C21.45 42.97 21.67 42.82 21.82 42.6 L22.05 42.45
									 L22.27 42.3 C22.8 42 23.4 41.85 24.07 41.85 C25.2 41.85 26.17 42.37 27.75 43.27 C28.05 43.42
									 28.35 43.65 28.65 43.8 C31.27 45.3 32.17 47.17 32.77 49.87 C33.3 52.2 33.9 57.07 34.05 59.47
									 L34.2 61.87 C34.2 61.87 0 61.87 0 61.87 Z" class="st1"/>
					</g>
					<g id="shape448-15" v:mID="448" v:groupContext="shape" v:layerMember="0" transform="translate(2.4,-2.4)">
						<title>Sheet.448</title>
						<path d="M28.27 52.72 C27.75 50.32 27.07 49.12 25.28 48.07 C23.47 47.02 22.42 46.35 21.75 46.35 C21.45 46.35
									 21.22 46.42 21 46.5 C20.55 46.87 20.1 47.25 19.57 47.55 C19.5 47.62 19.42 47.62 19.35 47.7 C18.83
									 48 18.3 48.22 17.77 48.37 C16.8 48.67 15.82 48.9 14.77 48.9 C13.72 48.9 12.75 48.75 11.77 48.37
									 C11.25 48.22 10.72 48 10.2 47.7 C9.6 47.32 9 46.95 8.48 46.42 C8.25 46.35 8.03 46.27 7.72 46.27
									 C7.05 46.27 6.37 46.72 4.2 48 C2.4 49.05 1.72 50.17 1.2 52.65 C0.75 54.75 0.15 59.55 0 61.87
									 L29.47 61.87 C29.32 59.7 28.72 54.9 28.27 52.72 Z" class="st2"/>
					</g>
					<g id="shape449-17" v:mID="449" v:groupContext="shape" v:layerMember="0" transform="translate(7.65,-16.125)">
						<title>Sheet.449</title>
						<path d="M9.45 61.87 C4.28 61.87 0 57.3 0 51.67 C0 46.05 4.2 41.47 9.45 41.47 C14.62 41.47 18.9 46.05 18.9
									 51.67 C18.9 57.22 14.7 61.87 9.45 61.87 Z" class="st1"/>
					</g>
					<g id="shape450-19" v:mID="450" v:groupContext="shape" v:layerMember="0" transform="translate(9.9,-18.375)">
						<title>Sheet.450</title>
						<path d="M7.2 61.87 C3.22 61.87 0 58.27 0 53.92 C0 49.5 3.22 45.97 7.2 45.97 C11.18 45.97 14.4 49.57 14.4
									 53.92 C14.4 58.27 11.18 61.87 7.2 61.87 Z" class="st2"/>
					</g>
				</g>
				<g id="group451-21" transform="translate(15.825,0)" v:mID="451" v:groupContext="group" v:layerMember="0">
					<title>Sheet.451</title>
					<g id="shape452-22" v:mID="452" v:groupContext="shape" v:layerMember="0">
						<title>Sheet.452</title>
						<path d="M0 61.87 L0.15 59.47 C0.3 57.07 0.9 52.12 1.43 49.87 C2.03 47.17 2.92 45.3 5.55 43.8 L6.37 43.27
									 C8.1 42.3 9 41.77 10.12 41.77 C10.8 41.77 11.4 41.92 11.93 42.22 L12.15 42.37 L12.37 42.52 C12.75
									 42.9 13.2 43.2 13.65 43.5 C14.03 43.72 14.4 43.87 14.77 44.02 L14.85 44.02 C15.6 44.25 16.35
									 44.4 17.1 44.4 C17.85 44.4 18.6 44.25 19.35 44.02 L19.42 44.02 C19.8 43.87 20.1 43.72 20.47
									 43.57 L20.55 43.5 L21.07 43.05 L21.22 43.05 C21.45 42.9 21.67 42.75 21.82 42.52 L22.05 42.37
									 L22.27 42.22 C22.8 41.92 23.4 41.77 24.07 41.77 C25.2 41.77 26.17 42.3 27.75 43.2 C28.05 43.35
									 28.35 43.57 28.65 43.72 C31.27 45.22 32.17 47.1 32.77 49.8 C33.3 52.05 33.9 57 34.05 59.4 L34.2
									 61.8 L0 61.87 Z" class="st1"/>
					</g>
					<g id="shape453-24" v:mID="453" v:groupContext="shape" v:layerMember="0" transform="translate(2.325,-2.325)">
						<title>Sheet.453</title>
						<path d="M28.27 52.72 C27.75 50.32 27.07 49.12 25.28 48.07 C23.47 47.02 22.42 46.35 21.75 46.35 C21.45 46.35
									 21.22 46.42 21 46.5 C20.55 46.87 20.1 47.25 19.57 47.55 C19.5 47.62 19.42 47.62 19.35 47.7 C18.83
									 48 18.3 48.22 17.77 48.37 C16.8 48.67 15.82 48.9 14.77 48.9 C13.72 48.9 12.75 48.67 11.77 48.37
									 C11.25 48.22 10.72 48 10.2 47.7 C9.6 47.32 9 46.95 8.48 46.42 C8.25 46.35 8.03 46.27 7.72 46.27
									 C7.05 46.27 6.37 46.72 4.2 48 C2.4 49.05 1.72 50.17 1.2 52.65 C0.75 54.75 0.15 59.55 0 61.87
									 L29.47 61.87 C29.32 59.62 28.8 54.82 28.27 52.72 Z" class="st2"/>
					</g>
					<g id="shape454-26" v:mID="454" v:groupContext="shape" v:layerMember="0" transform="translate(7.65,-16.125)">
						<title>Sheet.454</title>
						<path d="M9.45 61.87 C4.28 61.87 0 57.3 0 51.67 C0 46.05 4.2 41.47 9.45 41.47 C14.62 41.47 18.9 46.05 18.9
									 51.67 C18.9 57.3 14.62 61.87 9.45 61.87 Z" class="st1"/>
					</g>
					<g id="shape455-28" v:mID="455" v:groupContext="shape" v:layerMember="0" transform="translate(9.9,-18.375)">
						<title>Sheet.455</title>
						<path d="M7.2 61.87 C3.22 61.87 0 58.27 0 53.92 C0 49.57 3.22 45.97 7.2 45.97 C11.18 45.97 14.4 49.57 14.4
									 53.92 C14.4 58.27 11.18 61.87 7.2 61.87 Z" class="st2"/>
					</g>
				</g>
				<g id="group456-30" transform="translate(2.4,0)" v:mID="456" v:groupContext="group" v:layerMember="0">
					<title>Sheet.456</title>
					<g id="shape457-31" v:mID="457" v:groupContext="shape" v:layerMember="0" transform="translate(7.8,-39)">
						<title>Sheet.457</title>
						<path d="M0 61.87 L5.33 56.47 C2.85 57.15 0.75 59.17 0 61.87 Z" class="st3"/>
					</g>
					<g id="shape458-33" v:mID="458" v:groupContext="shape" v:layerMember="0" transform="translate(7.5,-34.425)">
						<title>Sheet.458</title>
						<path d="M9.75 52.27 C9.23 52.05 8.7 51.9 8.1 51.82 L0 60 C0 60.67 0.15 61.27 0.3 61.87 L9.75 52.27 Z"
								class="st3"/>
					</g>
					<g id="shape459-35" v:mID="459" v:groupContext="shape" v:layerMember="0" transform="translate(8.475,-31.425)">
						<title>Sheet.459</title>
						<path d="M0.82 61.87 L11.4 51.22 C11.1 50.85 10.72 50.47 10.27 50.17 L0 60.6 C0.22 61.05 0.45 61.5 0.82 61.87
									 Z" class="st3"/>
					</g>
					<g id="shape460-37" v:mID="460" v:groupContext="shape" v:layerMember="0" transform="translate(1.8,-23.85)">
						<title>Sheet.460</title>
						<path d="M2.4 59.17 C1.2 59.92 0.45 60.67 0 61.87 L3 58.8 C2.77 58.95 2.62 59.02 2.4 59.17 Z" class="st3"/>
					</g>
					<g id="shape461-39" v:mID="461" v:groupContext="shape" v:layerMember="0" transform="translate(10.35,-29.4)">
						<title>Sheet.461</title>
						<path d="M1.35 61.87 L11.1 52.05 C10.95 51.52 10.72 51 10.42 50.55 L0 61.05 C0.45 61.35 0.9 61.65 1.35 61.87
									 Z" class="st3"/>
					</g>
					<g id="shape462-41" v:mID="462" v:groupContext="shape" v:layerMember="0" transform="translate(0.6,-18.225)">
						<title>Sheet.462</title>
						<path d="M9 52.87 C8.62 52.65 8.25 52.35 7.87 51.97 C7.87 51.97 7.8 51.97 7.8 51.97 L0.37 59.4 C0.22 60.15
									 0.15 60.97 0 61.87 L9 52.87 Z" class="st3"/>
					</g>
					<g id="shape463-43" v:mID="463" v:groupContext="shape" v:layerMember="0" transform="translate(29.925,-43.2)">
						<title>Sheet.463</title>
						<path d="M0 61.27 C0 61.5 0 61.65 0 61.87 L8.4 53.47 C8.03 53.4 7.65 53.32 7.2 53.32 C6.9 53.32 6.6 53.32
									 6.3 53.4 L0.15 59.55 C0.08 60.15 0 60.67 0 61.27 Z" class="st3"/>
					</g>
					<g id="shape464-45" v:mID="464" v:groupContext="shape" v:layerMember="0"
							transform="translate(-2.58793E-13,-13.125)">
						<title>Sheet.464</title>
						<path d="M0 61.87 L12.68 49.05 C12.38 48.97 12 48.9 11.7 48.75 C11.48 48.67 11.25 48.6 11.03 48.52 L0.23
									 59.55 C0.15 60.45 0.08 61.2 0 61.87 Z" class="st3"/>
					</g>
					<g id="shape465-47" v:mID="465" v:groupContext="shape" v:layerMember="0" transform="translate(13.5,-28.65)">
						<title>Sheet.465</title>
						<path d="M1.2 61.87 C1.5 61.87 1.72 61.87 2.03 61.8 L8.25 55.57 C8.33 55.05 8.4 54.52 8.4 53.92 C8.4 53.7
									 8.4 53.55 8.4 53.32 L0 61.72 C0.38 61.8 0.75 61.87 1.2 61.87 Z" class="st3"/>
					</g>
					<g id="shape466-49" v:mID="466" v:groupContext="shape" v:layerMember="0" transform="translate(30.3,-39.675)">
						<title>Sheet.466</title>
						<path d="M0 60.37 C0.15 60.9 0.38 61.42 0.6 61.87 L11.02 51.37 C10.65 51.07 10.2 50.77 9.75 50.55 L0 60.37
									 Z" class="st3"/>
					</g>
					<g id="shape467-51" v:mID="467" v:groupContext="shape" v:layerMember="0" transform="translate(1.95,-12.675)">
						<title>Sheet.467</title>
						<path d="M12.9 48.9 L0 61.87 L2.1 61.87 L15.45 48.45 C14.63 48.75 13.8 48.9 12.9 48.9 Z" class="st3"/>
					</g>
					<g id="shape468-53" v:mID="468" v:groupContext="shape" v:layerMember="0" transform="translate(6.45,-12.675)">
						<title>Sheet.468</title>
						<path d="M14.7 49.2 C14.7 48.9 14.62 48.52 14.62 48.22 C14.62 47.85 14.62 47.47 14.7 47.1 L0 61.87 L2.1 61.87
									 L14.7 49.2 Z" class="st3"/>
					</g>
					<g id="shape469-55" v:mID="469" v:groupContext="shape" v:layerMember="0" transform="translate(23.475,-27.75)">
						<title>Sheet.469</title>
						<path d="M6.53 55.35 C5.33 55.42 4.2 55.87 3.23 56.55 L1.43 58.35 C0.68 59.4 0.23 60.6 0 61.87 L6.53 55.35
									 Z" class="st3"/>
					</g>
					<g id="shape470-57" v:mID="470" v:groupContext="shape" v:layerMember="0" transform="translate(31.95,-37.275)">
						<title>Sheet.470</title>
						<path d="M1.05 61.87 L11.4 51.45 C11.17 51 10.87 50.55 10.57 50.17 L0 60.82 C0.3 61.2 0.67 61.57 1.05 61.87
									 Z" class="st3"/>
					</g>
					<g id="shape471-59" v:mID="471" v:groupContext="shape" v:layerMember="0" transform="translate(34.5,-35.925)">
						<title>Sheet.471</title>
						<path d="M0 61.42 C0.53 61.65 1.05 61.8 1.65 61.87 L9.82 53.7 C9.82 53.02 9.67 52.42 9.52 51.82 L0 61.42 Z"
								class="st3"/>
					</g>
					<g id="shape472-61" v:mID="472" v:groupContext="shape" v:layerMember="0" transform="translate(10.95,-12.675)">
						<title>Sheet.472</title>
						<path d="M2.1 61.87 L11.18 52.8 C10.95 52.27 10.73 51.82 10.58 51.22 L0 61.87 L2.1 61.87 Z" class="st3"/>
					</g>
					<g id="shape473-63" v:mID="473" v:groupContext="shape" v:layerMember="0" transform="translate(23.4,-23.475)">
						<title>Sheet.473</title>
						<path d="M10.28 51.9 C9.83 51.67 9.3 51.45 8.78 51.3 L0 60.15 C0.08 60.75 0.23 61.35 0.38 61.87 L10.28 51.9
									 Z" class="st3"/>
					</g>
					<g id="shape474-65" v:mID="474" v:groupContext="shape" v:layerMember="0" transform="translate(24.6,-20.7)">
						<title>Sheet.474</title>
						<path d="M10.5 50.1 L0 60.67 C0.3 61.12 0.6 61.5 0.9 61.87 L11.55 51.22 C11.17 50.85 10.87 50.47 10.5 50.1
									 Z" class="st3"/>
					</g>
					<g id="shape475-67" v:mID="475" v:groupContext="shape" v:layerMember="0" transform="translate(22.65,-19.95)">
						<title>Sheet.475</title>
						<path d="M0.3 61.57 L0 61.87 C0.15 61.8 0.3 61.8 0.45 61.8 C0.38 61.72 0.38 61.65 0.3 61.57 Z" class="st3"/>
					</g>
					<g id="shape476-69" v:mID="476" v:groupContext="shape" v:layerMember="0" transform="translate(38.625,-36.075)">
						<title>Sheet.476</title>
						<path d="M5.33 56.55 L0 61.87 C2.48 61.27 4.58 59.25 5.33 56.55 Z" class="st3"/>
					</g>
					<g id="shape477-71" v:mID="477" v:groupContext="shape" v:layerMember="0" transform="translate(17.1,-12.3)">
						<title>Sheet.477</title>
						<path d="M2.85 57.97 C1.28 58.95 0.53 59.92 0 61.87 L5.33 56.55 C4.8 56.85 4.05 57.3 2.85 57.97 Z"
								class="st3"/>
					</g>
					<g id="shape478-73" v:mID="478" v:groupContext="shape" v:layerMember="0" transform="translate(26.775,-18.825)">
						<title>Sheet.478</title>
						<path d="M10.72 52.42 C10.57 51.9 10.42 51.37 10.2 50.85 L0 61.12 C0.45 61.42 0.9 61.65 1.35 61.87 L10.72
									 52.42 Z" class="st3"/>
					</g>
					<g id="shape479-75" v:mID="479" v:groupContext="shape" v:layerMember="0" transform="translate(16.2,-6.9)">
						<title>Sheet.479</title>
						<path d="M9.67 52.2 C9.22 51.9 8.85 51.67 8.4 51.3 L0.37 59.4 C0.23 60.15 0.15 61.05 0 61.87 L9.67 52.2 Z"
								class="st3"/>
					</g>
					<g id="shape480-77" v:mID="480" v:groupContext="shape" v:layerMember="0" transform="translate(38.625,-30.075)">
						<title>Sheet.480</title>
						<path d="M5.78 56.77 C5.7 56.77 5.55 56.7 5.48 56.7 C5.18 56.7 4.95 56.77 4.73 56.85 C4.28 57.22 3.83 57.6
									 3.3 57.9 C3.23 57.97 3.15 57.97 3.08 58.05 C2.63 58.27 2.25 58.5 1.8 58.65 L0 60.45 C0.23 60.9
									 0.45 61.42 0.68 61.87 L5.78 56.77 Z" class="st3"/>
					</g>
					<g id="shape481-79" v:mID="481" v:groupContext="shape" v:layerMember="0" transform="translate(15.75,-2.325)">
						<title>Sheet.481</title>
						<path d="M11.92 48.45 L0.15 60.37 C0.07 60.9 0.07 61.42 0 61.87 L0.75 61.87 L13.65 48.82 C13.05 48.75 12.52
									 48.6 11.92 48.45 Z" class="st3"/>
					</g>
					<g id="shape482-81" v:mID="482" v:groupContext="shape" v:layerMember="0" transform="translate(30.3,-18.45)">
						<title>Sheet.482</title>
						<path d="M7.42 54.37 L0 61.87 C0.08 61.87 0.15 61.87 0.23 61.87 C0.97 61.87 1.72 61.72 2.47 61.5 L6.82 57.07
									 C7.2 56.25 7.35 55.35 7.42 54.37 Z" class="st3"/>
					</g>
					<g id="shape483-83" v:mID="483" v:groupContext="shape" v:layerMember="0" transform="translate(13.425,0)">
						<title>Sheet.483</title>
						<path d="M0 61.8 L0 61.87 L0 61.8 Z" class="st3"/>
					</g>
					<g id="shape484-85" v:mID="484" v:groupContext="shape" v:layerMember="0" transform="translate(39.825,-26.1)">
						<title>Sheet.484</title>
						<path d="M0 59.92 C0.07 60.52 0.15 61.05 0.15 61.65 C0.15 61.72 0.15 61.8 0.15 61.87 L7.65 54.3 C7.12 54
									 6.67 53.77 6.3 53.55 L0 59.92 Z" class="st3"/>
					</g>
					<g id="shape485-87" v:mID="485" v:groupContext="shape" v:layerMember="0" transform="translate(18.825,-2.325)">
						<title>Sheet.485</title>
						<path d="M15.98 47.85 C15.53 48.07 15.08 48.3 14.7 48.37 C14.1 48.52 13.58 48.67 12.98 48.82 L0 61.87 L2.1
									 61.87 L15.98 47.85 Z" class="st3"/>
					</g>
					<g id="shape486-89" v:mID="486" v:groupContext="shape" v:layerMember="0" transform="translate(37.95,-20.025)">
						<title>Sheet.486</title>
						<path d="M10.88 49.2 L1.57 58.65 C1.2 59.85 0.68 60.9 0 61.8 C0.15 61.8 0.3 61.87 0.45 61.87 L11.85 50.4
									 C11.55 49.95 11.25 49.57 10.88 49.2 Z" class="st3"/>
					</g>
					<g id="shape487-91" v:mID="487" v:groupContext="shape" v:layerMember="0" transform="translate(40.5,-19.725)">
						<title>Sheet.487</title>
						<path d="M9.9 51.82 L0 61.87 L2.1 61.87 L10.28 53.55 C10.2 53.17 10.13 52.87 10.13 52.65 C10.05 52.35 9.98
									 52.12 9.9 51.82 Z" class="st3"/>
					</g>
					<g id="shape488-93" v:mID="488" v:groupContext="shape" v:layerMember="0" transform="translate(23.325,-2.325)">
						<title>Sheet.488</title>
						<path d="M16.5 47.32 C15.98 47.02 15.53 46.72 15.15 46.57 L0 61.87 L2.1 61.87 L16.5 47.32 Z" class="st3"/>
					</g>
					<g id="shape489-95" v:mID="489" v:groupContext="shape" v:layerMember="0" transform="translate(27.9,-2.325)">
						<title>Sheet.489</title>
						<path d="M14.55 49.2 C14.25 48.82 13.88 48.52 13.35 48.22 L0 61.87 L2.1 61.87 L14.55 49.2 Z" class="st3"/>
					</g>
					<g id="shape490-97" v:mID="490" v:groupContext="shape" v:layerMember="0" transform="translate(45,-19.725)">
						<title>Sheet.490</title>
						<path d="M0 61.87 L2.1 61.87 L6.37 57.52 C6.3 56.92 6.22 56.25 6.15 55.65 L0 61.87 Z" class="st3"/>
					</g>
					<g id="shape491-99" v:mID="491" v:groupContext="shape" v:layerMember="0" transform="translate(32.4,-2.325)">
						<title>Sheet.491</title>
						<path d="M11.03 50.7 L0 61.87 L2.1 61.87 L11.48 52.27 C11.4 51.67 11.18 51.15 11.03 50.7 Z" class="st3"/>
					</g>
					<g id="shape492-101" v:mID="492" v:groupContext="shape" v:layerMember="0" transform="translate(49.5,-19.725)">
						<title>Sheet.492</title>
						<path d="M0 61.87 L2.1 61.87 L2.32 61.65 C2.25 61.12 2.25 60.45 2.17 59.7 L0 61.87 Z" class="st3"/>
					</g>
					<g id="shape493-103" v:mID="493" v:groupContext="shape" v:layerMember="0" transform="translate(36.825,-2.325)">
						<title>Sheet.493</title>
						<path d="M7.8 56.1 C7.72 55.42 7.65 54.82 7.5 54.22 L0 61.87 L2.1 61.87 L7.8 56.1 Z" class="st3"/>
					</g>
					<g id="shape494-105" v:mID="494" v:groupContext="shape" v:layerMember="0" transform="translate(41.325,-2.325)">
						<title>Sheet.494</title>
						<path d="M0 61.87 L2.1 61.87 L3.75 60.22 C3.68 59.62 3.6 58.95 3.53 58.27 L0 61.87 Z" class="st3"/>
					</g>
				</g>
			</g>
		</g>
	</g>
</svg>
