<?xml version="1.0" encoding="UTF-8" standalone="no"?>
<!DOCTYPE svg PUBLIC "-//W3C//DTD SVG 1.1//EN" "http://www.w3.org/Graphics/SVG/1.1/DTD/svg11.dtd">
<!-- Generated by Microsoft Visio, SVG Export User - ghosted.svg Page-1 -->
<svg xmlns="http://www.w3.org/2000/svg" xmlns:xlink="http://www.w3.org/1999/xlink" xmlns:ev="http://www.w3.org/2001/xml-events"
		xmlns:v="http://schemas.microsoft.com/visio/2003/SVGExtensions/" width="0.78125in" height="0.953125in"
		viewBox="0 0 56.25 68.625" xml:space="preserve" color-interpolation-filters="sRGB" class="st4">
	<v:documentProperties v:langID="4108" v:metric="true" v:viewMarkup="false"/>

	<style type="text/css">
	<![CDATA[
		.st1 {fill:#ffffff;stroke:none;stroke-linecap:butt;stroke-width:0.75}
		.st2 {fill:#9b9b9b;stroke:none;stroke-linecap:butt;stroke-width:0.75}
		.st3 {fill:#cccbcb;stroke:none;stroke-linecap:butt;stroke-width:0.75}
		.st4 {fill:none;fill-rule:evenodd;font-size:12px;overflow:visible;stroke-linecap:square;stroke-miterlimit:3}
	]]>
	</style>

	<g v:mID="0" v:index="1" v:groupContext="foregroundPage">
		<title>Page-1</title>
		<v:pageProperties v:drawingScale="0.0393701" v:pageScale="0.0393701" v:drawingUnits="24" v:shadowOffsetX="8.50394"
				v:shadowOffsetY="-8.50394"/>
		<v:layer v:name="symbols" v:index="0"/>
		<g id="group331-1" transform="translate(2.6625,-6.9375)" v:mID="331" v:groupContext="group" v:layerMember="0">
			<title>User - ghosted</title>
			<g id="group332-2" v:mID="332" v:groupContext="group" v:layerMember="0">
				<title>Sheet.332</title>
				<g id="group333-3" v:mID="333" v:groupContext="group" v:layerMember="0">
					<title>Sheet.333</title>
					<g id="shape334-4" v:mID="334" v:groupContext="shape" v:layerMember="0">
						<title>Sheet.334</title>
						<path d="M50.92 68.62 L50.77 66.22 C50.55 62.55 49.65 54.9 48.83 51.37 C47.92 47.47 46.73 44.77 42.97 42.67
									 L41.63 41.92 C39 40.42 37.88 39.75 36.37 39.75 C35.55 39.75 34.87 39.9 34.13 40.27 L33 40.87
									 L33.9 40.12 C36.97 37.42 38.93 33.3 38.93 28.65 C39 20.47 32.93 13.87 25.5 13.87 L25.42 13.87
									 C18 13.87 11.93 20.47 11.93 28.65 C11.93 33.3 13.87 37.42 16.95 40.12 L17.85 40.87 L16.65 40.27
									 C15.97 39.9 15.23 39.75 14.4 39.75 C12.9 39.75 11.7 40.42 9.15 41.92 L7.8 42.67 C4.12 44.77
									 2.85 47.47 1.95 51.37 C1.13 54.9 0.3 62.55 0 66.22 L0 68.62 L50.92 68.62 Z" class="st1"/>
					</g>
					<g id="shape335-6" v:mID="335" v:groupContext="shape" v:layerMember="0" transform="translate(2.55,-2.325)">
						<title>Sheet.335</title>
						<path d="M44.03 54.22 C43.13 50.4 42.15 48.6 39.3 47.02 C36.45 45.37 34.88 44.4 33.82 44.4 C33.38 44.4 33
									 44.47 32.7 44.7 C32.03 45.3 31.27 45.9 30.45 46.35 C30.3 46.42 30.15 46.5 30.07 46.57 C29.25
									 47.1 28.43 47.4 27.68 47.7 C26.18 48.22 24.6 48.52 22.95 48.52 C21.3 48.52 19.72 48.22 18.22
									 47.7 C17.4 47.47 16.65 47.1 15.83 46.57 C14.85 46.05 13.95 45.37 13.2 44.62 C12.9 44.47 12.52
									 44.32 12.08 44.32 C11.02 44.32 9.9 45.07 6.6 46.95 C3.75 48.6 2.7 50.4 1.88 54.15 C1.13 57.45
									 0.23 65.02 0 68.62 L46.13 68.62 C45.67 65.1 44.77 57.52 44.03 54.22 Z" class="st2"/>
					</g>
					<g id="shape336-8" v:mID="336" v:groupContext="shape" v:layerMember="0" transform="translate(14.175,-27.525)">
						<title>Sheet.336</title>
						<path d="M11.25 68.62 C5.02 68.62 0 63 0 56.1 C-0 49.2 5.02 43.65 11.25 43.65 C17.48 43.65 22.5 49.27 22.5
									 56.17 C22.5 63.07 17.48 68.62 11.25 68.62 Z" class="st2"/>
					</g>
				</g>
				<g id="group337-10" transform="translate(2.55,-2.325)" v:mID="337" v:groupContext="group" v:layerMember="0">
					<title>Sheet.337</title>
					<g id="shape338-11" v:mID="338" v:groupContext="shape" v:layerMember="0" transform="translate(11.7,-38.775)">
						<title>Sheet.338</title>
						<path d="M11.17 57.22 C11.17 57.22 11.17 57.22 11.17 57.22 C10.35 57.22 9.52 57.3 8.77 57.52 L0.45 66 C0.23
									 66.82 0.08 67.72 0 68.62 L11.17 57.22 Z" class="st3"/>
					</g>
					<g id="shape339-13" v:mID="339" v:groupContext="shape" v:layerMember="0" transform="translate(11.7,-34.65)">
						<title>Sheet.339</title>
						<path d="M13.35 53.32 L0 66.82 C0.08 67.42 0.15 68.02 0.3 68.62 L15 53.85 C14.47 53.62 13.95 53.47 13.35
									 53.32 Z" class="st3"/>
					</g>
					<g id="shape340-15" v:mID="340" v:groupContext="shape" v:layerMember="0" transform="translate(12.525,-31.425)">
						<title>Sheet.340</title>
						<path d="M16.95 52.27 C16.58 51.97 16.13 51.67 15.75 51.37 L0 67.2 C0.23 67.72 0.45 68.17 0.67 68.62 L16.95
									 52.27 Z" class="st3"/>
					</g>
					<g id="shape341-17" v:mID="341" v:groupContext="shape" v:layerMember="0" transform="translate(14.1,-28.65)">
						<title>Sheet.341</title>
						<path d="M0 67.42 C0.3 67.8 0.6 68.25 0.98 68.62 L17.55 51.9 C17.25 51.45 16.95 51.07 16.57 50.7 L0 67.42
									 Z" class="st3"/>
					</g>
					<g id="shape342-19" v:mID="342" v:groupContext="shape" v:layerMember="0" transform="translate(2.175,-15.75)">
						<title>Sheet.342</title>
						<path d="M7.8 60.82 C6.97 61.27 5.92 61.87 4.42 62.7 C1.95 64.12 0.82 65.7 0 68.62 L7.8 60.82 Z"
								class="st3"/>
					</g>
					<g id="shape343-21" v:mID="343" v:groupContext="shape" v:layerMember="0" transform="translate(16.275,-26.7)">
						<title>Sheet.343</title>
						<path d="M0 67.72 C0.38 68.02 0.82 68.32 1.28 68.62 L16.95 52.8 C16.72 52.27 16.5 51.82 16.28 51.37 L0 67.72
									 Z" class="st3"/>
					</g>
					<g id="shape344-23" v:mID="344" v:groupContext="shape" v:layerMember="0" transform="translate(1.125,-10.125)">
						<title>Sheet.344</title>
						<path d="M12.07 54.75 C12 54.67 11.85 54.67 11.77 54.6 L0.37 66.07 C0.23 66.82 0.07 67.72 0 68.62 L12.97
									 55.57 C12.67 55.27 12.37 55.05 12.07 54.75 Z" class="st3"/>
					</g>
					<g id="shape345-25" v:mID="345" v:groupContext="shape" v:layerMember="0" transform="translate(19.125,-25.425)">
						<title>Sheet.345</title>
						<path d="M1.65 68.62 L14.92 55.27 C14.85 54.67 14.78 54 14.62 53.4 L0 68.1 C0.53 68.32 1.13 68.47 1.65 68.62
									 Z" class="st3"/>
					</g>
					<g id="shape346-27" v:mID="346" v:groupContext="shape" v:layerMember="0" transform="translate(0.45,-5.025)">
						<title>Sheet.346</title>
						<path d="M16.43 52.2 C16.12 52.05 15.75 51.82 15.38 51.6 C15.23 51.52 15.15 51.45 15.07 51.37 L0.3 66.22
									 C0.22 67.05 0.08 67.87 0 68.62 L16.43 52.2 Z" class="st3"/>
					</g>
					<g id="shape347-29" v:mID="347" v:groupContext="shape" v:layerMember="0">
						<title>Sheet.347</title>
						<path d="M0 68.62 L20.25 48.3 C19.65 48.15 19.13 48.07 18.6 47.85 L0.22 66.3 C0.08 67.12 0.08 67.95 0 68.62
									 Z" class="st3"/>
					</g>
					<g id="shape348-31" v:mID="348" v:groupContext="shape" v:layerMember="0" transform="translate(22.95,-25.2)">
						<title>Sheet.348</title>
						<path d="M0 68.62 C0.82 68.62 1.65 68.47 2.4 68.32 L10.65 60.07 C10.87 59.25 11.1 58.35 11.17 57.45 L0 68.62
									 Z" class="st3"/>
					</g>
					<g id="shape349-33" v:mID="349" v:groupContext="shape" v:layerMember="0" transform="translate(2.325,0)">
						<title>Sheet.349</title>
						<path d="M20.63 48.52 C20.4 48.52 20.25 48.52 20.03 48.52 L0 68.62 L2.1 68.62 L22.2 48.45 C21.68 48.45 21.15
									 48.52 20.63 48.52 Z" class="st3"/>
					</g>
					<g id="shape350-35" v:mID="350" v:groupContext="shape" v:layerMember="0"
							transform="translate(6.825,2.55795E-13)">
						<title>Sheet.350</title>
						<path d="M25.95 44.7 C25.95 44.7 25.87 44.7 25.95 44.7 C25.2 45.3 24.45 45.9 23.62 46.35 C23.47 46.42 23.32
									 46.5 23.25 46.57 C22.42 47.1 21.6 47.4 20.85 47.7 C20.85 47.7 20.77 47.7 20.77 47.7 L0 68.62
									 L2.1 68.62 L25.95 44.7 Z" class="st3"/>
					</g>
					<g id="shape351-37" v:mID="351" v:groupContext="shape" v:layerMember="0" transform="translate(11.625,0)">
						<title>Sheet.351</title>
						<path d="M23.55 44.77 L0 68.62 L2.1 68.62 L24.97 45.45 C24.45 45.15 24 44.92 23.55 44.77 Z" class="st3"/>
					</g>
					<g id="shape352-39" v:mID="352" v:groupContext="shape" v:layerMember="0"
							transform="translate(16.05,2.27374E-13)">
						<title>Sheet.352</title>
						<path d="M23.4 47.1 C23.32 47.1 23.32 47.02 23.25 47.02 C22.8 46.8 22.42 46.57 22.05 46.35 L0 68.62 L2.1
									 68.62 L23.4 47.1 Z" class="st3"/>
					</g>
					<g id="shape353-41" v:mID="353" v:groupContext="shape" v:layerMember="0" transform="translate(20.625,0)">
						<title>Sheet.353</title>
						<path d="M21.3 49.12 C21 48.75 20.63 48.37 20.25 48.07 L0 68.62 L2.1 68.62 L21.3 49.12 Z" class="st3"/>
					</g>
					<g id="shape354-43" v:mID="354" v:groupContext="shape" v:layerMember="0"
							transform="translate(25.125,-2.55795E-13)">
						<title>Sheet.354</title>
						<path d="M18.3 52.12 C18.15 51.6 17.93 51.07 17.7 50.62 L0 68.62 L2.1 68.62 L18.3 52.12 Z" class="st3"/>
					</g>
					<g id="shape355-45" v:mID="355" v:groupContext="shape" v:layerMember="0" transform="translate(29.625,0)">
						<title>Sheet.355</title>
						<path d="M14.4 54.22 C14.4 54.15 14.4 54.07 14.33 54 L0 68.62 L2.1 68.62 L14.7 55.8 C14.62 55.2 14.47 54.67
									 14.4 54.22 Z" class="st3"/>
					</g>
					<g id="shape356-47" v:mID="356" v:groupContext="shape" v:layerMember="0"
							transform="translate(34.05,-2.41585E-13)">
						<title>Sheet.356</title>
						<path d="M10.87 59.62 C10.8 58.95 10.72 58.35 10.57 57.75 L0 68.62 L2.1 68.62 L10.87 59.62 Z" class="st3"/>
					</g>
					<g id="shape357-49" v:mID="357" v:groupContext="shape" v:layerMember="0"
							transform="translate(38.55,-9.9476E-14)">
						<title>Sheet.357</title>
						<path d="M6.68 61.8 L0 68.62 L2.1 68.62 L6.9 63.67 C6.9 63.07 6.75 62.4 6.68 61.8 Z" class="st3"/>
					</g>
					<g id="shape358-51" v:mID="358" v:groupContext="shape" v:layerMember="0"
							transform="translate(42.975,-2.84217E-14)">
						<title>Sheet.358</title>
						<path d="M3 67.65 C2.92 67.05 2.85 66.45 2.77 65.77 L0 68.62 L2.1 68.62 L3 67.65 Z" class="st3"/>
					</g>
				</g>
			</g>
		</g>
	</g>
</svg>
