<?xml version="1.0" encoding="UTF-8" standalone="no"?>
<!DOCTYPE svg PUBLIC "-//W3C//DTD SVG 1.1//EN" "http://www.w3.org/Graphics/SVG/1.1/DTD/svg11.dtd">
<!-- Generated by Microsoft Visio, SVG Export User, External.svg Page-1 -->
<svg xmlns="http://www.w3.org/2000/svg" xmlns:xlink="http://www.w3.org/1999/xlink" xmlns:ev="http://www.w3.org/2001/xml-events"
		xmlns:v="http://schemas.microsoft.com/visio/2003/SVGExtensions/" width="1.01172in" height="1.01563in"
		viewBox="0 0 72.8438 73.125" xml:space="preserve" color-interpolation-filters="sRGB" class="st4">
	<v:documentProperties v:langID="4108" v:metric="true" v:viewMarkup="false"/>

	<style type="text/css">
	<![CDATA[
		.st1 {fill:#ffffff;stroke:none;stroke-linecap:butt;stroke-width:0.75}
		.st2 {fill:#505050;stroke:none;stroke-linecap:butt;stroke-width:0.75}
		.st3 {fill:#505150;stroke:none;stroke-linecap:butt;stroke-width:0.75}
		.st4 {fill:none;fill-rule:evenodd;font-size:12px;overflow:visible;stroke-linecap:square;stroke-miterlimit:3}
	]]>
	</style>

	<g v:mID="0" v:index="1" v:groupContext="foregroundPage">
		<title>Page-1</title>
		<v:pageProperties v:drawingScale="0.0393701" v:pageScale="0.0393701" v:drawingUnits="24" v:shadowOffsetX="8.50394"
				v:shadowOffsetY="-8.50394"/>
		<v:layer v:name="symbols" v:index="0"/>
		<g id="group364-1" transform="translate(4.55625,-9.1875)" v:mID="364" v:groupContext="group" v:layerMember="0">
			<title>User, External</title>
			<g id="group365-2" v:mID="365" v:groupContext="group" v:layerMember="0">
				<title>Sheet.365</title>
				<g id="shape366-3" v:mID="366" v:groupContext="shape" v:layerMember="0">
					<title>Sheet.366</title>
					<path d="M50.92 73.12 L50.77 70.72 C50.55 67.05 49.65 59.4 48.82 55.87 C47.92 51.98 46.72 49.28 42.97 47.17 L41.62
								 46.42 C39 44.93 37.87 44.25 36.37 44.25 C35.55 44.25 34.87 44.4 34.12 44.78 L33 45.37 L33.9 44.62
								 C36.97 41.93 38.92 37.8 38.92 33.15 C39 24.98 32.92 18.38 25.5 18.37 L25.42 18.37 C18 18.38 11.93
								 24.98 11.92 33.15 C11.93 37.8 13.87 41.92 16.95 44.62 L17.85 45.37 L16.65 44.78 C15.97 44.4 15.23
								 44.25 14.4 44.25 C12.9 44.25 11.7 44.93 9.15 46.42 L7.8 47.17 C4.12 49.28 2.85 51.98 1.95 55.87
								 C1.13 59.4 0.3 67.05 0 70.72 L0 73.12 L50.92 73.12 Z" class="st1"/>
				</g>
				<g id="shape367-5" v:mID="367" v:groupContext="shape" v:layerMember="0" transform="translate(2.55,-2.325)">
					<title>Sheet.367</title>
					<path d="M44.02 58.72 C43.13 54.9 42.15 53.1 39.3 51.52 C36.45 49.87 34.87 48.9 33.82 48.9 C33.38 48.9 33 48.97
								 32.7 49.2 C32.02 49.8 31.28 50.4 30.45 50.85 C30.3 50.92 30.15 51 30.07 51.07 C29.25 51.6 28.43
								 51.9 27.67 52.2 C26.18 52.72 24.6 53.02 22.95 53.02 C21.3 53.02 19.72 52.72 18.22 52.2 C17.4 51.97
								 16.65 51.6 15.82 51.07 C14.85 50.55 13.95 49.87 13.2 49.12 C12.9 48.97 12.52 48.82 12.07 48.82 C11.02
								 48.82 9.9 49.57 6.6 51.45 C3.75 53.1 2.7 54.9 1.88 58.65 C1.12 61.95 0.22 69.52 0 73.12 L46.12 73.12
								 C45.67 69.6 44.77 62.02 44.02 58.72 Z" class="st2"/>
				</g>
				<g id="shape368-7" v:mID="368" v:groupContext="shape" v:layerMember="0" transform="translate(14.175,-27.525)">
					<title>Sheet.368</title>
					<path d="M11.25 73.12 C5.02 73.12 0 67.5 0 60.6 C0 53.7 5.02 48.15 11.25 48.15 C17.47 48.15 22.5 53.78 22.5 60.68
								 C22.5 67.58 17.47 73.12 11.25 73.12 Z" class="st2"/>
				</g>
			</g>
			<g id="group369-9" transform="translate(42.225,-32.55)" v:mID="369" v:groupContext="group" v:layerMember="0">
				<title>Sheet.369</title>
				<g id="shape370-10" v:mID="370" v:groupContext="shape" v:layerMember="0">
					<title>Sheet.370</title>
					<path d="M13.13 70.87 L15.38 73.13 L21.45 67.05 L21.15 52.05 L6.08 51.67 L0 57.75 L2.25 60 L6.9 60 L0.23 66.6
								 L6.45 72.82 L13.13 66.22 L13.13 70.87 Z" class="st1"/>
				</g>
				<g id="shape371-12" v:mID="371" v:groupContext="shape" v:layerMember="0" transform="translate(3.225,-3.225)">
					<title>Sheet.371</title>
					<path d="M3.22 72.9 L12.15 63.97 L12.15 73.12 L15.98 69.37 L15.75 57.45 L3.75 57.15 L0 60.97 L9.15 60.97 L0.15
								 69.82 L3.22 72.9 Z" class="st3"/>
				</g>
			</g>
		</g>
	</g>
</svg>
