<?xml version="1.0" encoding="UTF-8" standalone="no"?>
<!DOCTYPE svg PUBLIC "-//W3C//DTD SVG 1.1//EN" "http://www.w3.org/Graphics/SVG/1.1/DTD/svg11.dtd">
<!-- Generated by Microsoft Visio, SVG Export Writer.svg Page-1 -->
<svg xmlns="http://www.w3.org/2000/svg" xmlns:xlink="http://www.w3.org/1999/xlink" xmlns:ev="http://www.w3.org/2001/xml-events"
		xmlns:v="http://schemas.microsoft.com/visio/2003/SVGExtensions/" width="0.978125in" height="1.03125in"
		viewBox="0 0 70.425 74.25" xml:space="preserve" color-interpolation-filters="sRGB" class="st4">
	<v:documentProperties v:langID="4108" v:metric="true" v:viewMarkup="false"/>

	<style type="text/css">
	<![CDATA[
		.st1 {fill:#ffffff;stroke:none;stroke-linecap:butt;stroke-width:0.75}
		.st2 {fill:#515251;stroke:none;stroke-linecap:butt;stroke-width:0.75}
		.st3 {fill:#515050;stroke:none;stroke-linecap:butt;stroke-width:0.75}
		.st4 {fill:none;fill-rule:evenodd;font-size:12px;overflow:visible;stroke-linecap:square;stroke-miterlimit:3}
	]]>
	</style>

	<g v:mID="0" v:index="1" v:groupContext="foregroundPage">
		<title>Page-1</title>
		<v:pageProperties v:drawingScale="0.0393701" v:pageScale="0.0393701" v:drawingUnits="24" v:shadowOffsetX="8.50394"
				v:shadowOffsetY="-8.50394"/>
		<v:layer v:name="symbols" v:index="0"/>
		<g id="group606-1" transform="translate(4.575,-5.0625)" v:mID="606" v:groupContext="group" v:layerMember="0">
			<title>Writer</title>
			<g id="group607-2" transform="translate(0,-8.25)" v:mID="607" v:groupContext="group" v:layerMember="0">
				<title>Sheet.607</title>
				<g id="shape608-3" v:mID="608" v:groupContext="shape" v:layerMember="0">
					<title>Sheet.608</title>
					<path d="M50.92 74.25 L50.77 71.85 C50.55 68.18 49.65 60.53 48.83 57 C47.92 53.1 46.73 50.4 42.97 48.3 L41.62
								 47.55 C39 46.05 37.88 45.38 36.37 45.38 C35.55 45.38 34.87 45.53 34.13 45.9 L33 46.5 L33.9 45.75
								 C36.97 43.05 38.93 38.93 38.93 34.28 C39 26.1 32.93 19.5 25.5 19.5 L25.42 19.5 C18 19.5 11.93 26.1
								 11.93 34.28 C11.93 38.93 13.87 43.05 16.95 45.75 L17.85 46.5 L16.65 45.9 C15.97 45.53 15.23 45.38
								 14.4 45.38 C12.9 45.38 11.7 46.05 9.15 47.55 L7.8 48.3 C4.2 50.48 3 53.1 2.1 57 C1.28 60.53 0.45
								 68.18 0.15 71.85 L0 74.25 L50.92 74.25 Z" class="st1"/>
				</g>
				<g id="shape609-5" v:mID="609" v:groupContext="shape" v:layerMember="0" transform="translate(2.475,-2.325)">
					<title>Sheet.609</title>
					<path d="M44.17 59.85 C43.28 56.03 42.3 54.23 39.45 52.65 C36.53 51 34.95 49.95 33.9 49.95 C33.45 49.95 33.08
								 50.03 32.78 50.25 C32.03 50.85 31.28 51.45 30.53 51.9 C30.53 51.9 30.53 51.9 30.53 51.9 C30.37 51.98
								 30.23 52.05 30.15 52.13 C29.33 52.65 28.5 52.95 27.75 53.25 C26.25 53.78 24.68 54.08 23.03 54.08
								 C21.37 54.08 19.8 53.78 18.3 53.25 C17.48 53.03 16.73 52.65 15.9 52.13 C14.93 51.6 14.03 50.93 13.27
								 50.18 C12.9 50.03 12.52 49.95 12.08 49.95 C11.02 49.95 9.9 50.7 6.6 52.58 C3.75 54.23 2.7 56.03
								 1.88 59.78 C1.13 63.08 0.23 70.65 0 74.25 L46.13 74.25 C45.75 70.73 44.93 63.15 44.17 59.85 Z"
							class="st2"/>
				</g>
				<g id="shape610-7" v:mID="610" v:groupContext="shape" v:layerMember="0" transform="translate(14.175,-27.525)">
					<title>Sheet.610</title>
					<path d="M11.25 74.25 C5.02 74.25 0 68.63 0 61.73 C-0 54.83 5.02 49.2 11.25 49.2 C17.48 49.2 22.5 54.83 22.5
								 61.73 C22.5 68.63 17.48 74.25 11.25 74.25 Z" class="st2"/>
				</g>
			</g>
			<g id="group611-9" transform="translate(22.425,3.2685E-13)" v:mID="611" v:groupContext="group" v:layerMember="0">
				<title>Sheet.611</title>
				<g id="shape612-10" v:mID="612" v:groupContext="shape" v:layerMember="0">
					<title>Sheet.612</title>
					<path d="M2.77 74.25 C1.95 74.25 1.2 73.88 0.68 73.28 C0.15 72.68 0 71.78 0.15 70.95 L0.22 70.58 L5.92 61.43
								 L25.13 42.15 L27.97 39.3 C28.65 38.63 29.63 38.18 30.6 38.18 C31.5 38.18 32.4 38.55 33 39.15 L35.03
								 41.18 C35.7 41.85 36 42.68 36 43.58 C36 44.55 35.62 45.53 34.87 46.2 L32.02 49.05 L12.9 68.48 L3.75
								 74.1 L3.37 74.18 C3.15 74.25 3 74.25 2.77 74.25 Z" class="st1"/>
				</g>
				<g id="shape613-12" v:mID="613" v:groupContext="shape" v:layerMember="0" transform="translate(2.25,-2.25)">
					<title>Sheet.613</title>
					<path d="M31.28 45.08 L29.25 43.05 C28.72 42.53 27.9 42.6 27.37 43.2 L25.87 44.7 L24.52 46.05 L5.47 65.1 L0.08
								 73.65 C-0 74.03 0.15 74.25 0.53 74.25 C0.6 74.25 0.6 74.25 0.68 74.25 L9.3 68.93 L28.27 49.88 L29.62
								 48.53 L31.12 47.03 C31.65 46.43 31.72 45.6 31.28 45.08 ZM3.3 71.48 L2.85 71.03 L5.63 66.6 L7.8 68.78
								 L3.3 71.48 Z" class="st3"/>
				</g>
			</g>
		</g>
	</g>
</svg>
