<?xml version="1.0" encoding="UTF-8" standalone="no"?>
<!DOCTYPE svg PUBLIC "-//W3C//DTD SVG 1.1//EN" "http://www.w3.org/Graphics/SVG/1.1/DTD/svg11.dtd">
<!-- Generated by Microsoft Visio, SVG Export Address Book.svg Page-1 -->
<svg xmlns="http://www.w3.org/2000/svg" xmlns:xlink="http://www.w3.org/1999/xlink" xmlns:ev="http://www.w3.org/2001/xml-events"
		xmlns:v="http://schemas.microsoft.com/visio/2003/SVGExtensions/" width="1.01172in" height="0.859375in"
		viewBox="0 0 72.8438 61.875" xml:space="preserve" color-interpolation-filters="sRGB" class="st3">
	<v:documentProperties v:langID="4108" v:metric="true" v:viewMarkup="false"/>

	<style type="text/css">
	<![CDATA[
		.st1 {fill:#ffffff;stroke:none;stroke-linecap:butt;stroke-width:0.75}
		.st2 {fill:#525251;stroke:none;stroke-linecap:butt;stroke-width:0.75}
		.st3 {fill:none;fill-rule:evenodd;font-size:12px;overflow:visible;stroke-linecap:square;stroke-miterlimit:3}
	]]>
	</style>

	<g v:mID="0" v:index="1" v:groupContext="foregroundPage">
		<title>Page-1</title>
		<v:pageProperties v:drawingScale="0.0393701" v:pageScale="0.0393701" v:drawingUnits="24" v:shadowOffsetX="8.50394"
				v:shadowOffsetY="-8.50394"/>
		<v:layer v:name="symbols" v:index="0"/>
		<g id="group1-1" transform="translate(6.79688,-6.9375)" v:mID="1" v:groupContext="group" v:layerMember="0">
			<title>Address Book</title>
			<g id="group2-2" v:mID="2" v:groupContext="group" v:layerMember="0">
				<title>Sheet.2</title>
				<g id="shape3-3" v:mID="3" v:groupContext="shape" v:layerMember="0">
					<title>Sheet.3</title>
					<path d="M54.67 19.2 C54.3 16.2 51.83 13.88 48.75 13.87 L35.25 13.87 C32.7 13.88 30.45 14.85 28.73 16.43 C27
								 14.85 24.82 13.87 22.5 13.87 L9 13.87 C5.78 13.88 3.15 16.43 3 19.65 C1.2 20.48 0 21.52 0 23.62
								 L0 55.87 C0 58.8 2.33 61.12 5.25 61.12 L24.75 61.12 C25.35 61.57 26.1 61.87 26.85 61.87 L30.9 61.87
								 C31.72 61.87 32.4 61.57 33 61.12 L54 61.12 C56.93 61.12 59.25 58.8 59.25 55.87 L59.25 24.38 C59.25
								 21.75 57.3 19.5 54.67 19.2 Z" class="st1"/>
				</g>
				<g id="shape4-5" v:mID="4" v:groupContext="shape" v:layerMember="0" transform="translate(2.25,-2.25)">
					<title>Sheet.4</title>
					<path d="M51.75 23.62 L50.25 23.62 L50.25 22.12 C50.25 20.03 48.6 18.38 46.5 18.37 L45 18.37 L41.25 18.37 L33
								 18.37 C30.23 18.37 27.75 19.95 26.48 22.2 C25.12 19.95 22.87 18.37 20.25 18.37 L12 18.37 L8.25 18.37
								 L6.75 18.37 C4.65 18.38 3 20.03 3 22.12 L3 23.62 C1.35 23.62 0 24.97 0 26.62 L0 58.13 C0 59.78 1.35
								 61.12 3 61.12 L23.4 61.12 C23.63 61.57 24.07 61.87 24.6 61.87 L28.65 61.87 C29.18 61.87 29.55 61.57
								 29.85 61.12 L51.75 61.12 C53.4 61.12 54.75 59.78 54.75 58.13 L54.75 26.62 C54.75 24.97 53.4 23.62
								 51.75 23.62 ZM33 20.62 L46.5 20.62 C47.33 20.62 48 21.3 48 22.12 L48 23.62 L28.27 23.62 C29.1 21.83
								 30.9 20.62 33 20.62 ZM5.25 22.12 C5.25 21.3 5.92 20.62 6.75 20.62 L20.25 20.62 C22.13 20.62 23.78
								 21.9 24.67 23.62 L5.25 23.62 L5.25 22.12 Z" class="st2"/>
				</g>
				<g id="shape5-7" v:mID="5" v:groupContext="shape" v:layerMember="0" transform="translate(7.5,-5.25)">
					<title>Sheet.5</title>
					<path d="M0 58.87 L0 25.13 C0 24.3 0.68 23.62 1.5 23.62 L15 23.62 C17.93 23.63 20.25 26.7 20.25 29.63 L20.25
								 61.87 C18.98 60 17.25 58.87 14.25 58.87 L0 58.87 ZM42.75 58.87 L28.5 58.87 C25.5 58.87 24.07 60
								 22.5 61.87 L22.5 29.63 L22.5 28.87 C22.5 25.95 24.83 23.62 27.75 23.62 L41.25 23.62 C42.07 23.62
								 42.75 24.3 42.75 25.13 L42.75 58.87 Z" class="st1"/>
				</g>
				<g id="shape6-9" v:mID="6" v:groupContext="shape" v:layerMember="0" transform="translate(52.5,-29.25)">
					<title>Sheet.6</title>
					<path d="M0.75 53.62 L0 53.62 L0 61.87 L0.75 61.87 C1.58 61.87 2.25 61.2 2.25 60.38 L2.25 55.12 C2.25 54.3 1.58
								 53.63 0.75 53.62 Z" class="st1"/>
				</g>
				<g id="shape7-11" v:mID="7" v:groupContext="shape" v:layerMember="0" transform="translate(52.5,-19.5)">
					<title>Sheet.7</title>
					<path d="M0.75 53.62 L0 53.62 L0 61.88 L0.75 61.88 C1.58 61.88 2.25 61.2 2.25 60.38 L2.25 55.12 C2.25 54.3 1.58
								 53.63 0.75 53.62 Z" class="st1"/>
				</g>
				<g id="shape8-13" v:mID="8" v:groupContext="shape" v:layerMember="0" transform="translate(52.5,-9.75)">
					<title>Sheet.8</title>
					<path d="M0.75 53.62 L0 53.62 L0 61.88 L0.75 61.88 C1.58 61.88 2.25 61.2 2.25 60.38 L2.25 55.12 C2.25 54.3 1.58
								 53.63 0.75 53.62 Z" class="st1"/>
				</g>
				<g id="group9-15" transform="translate(11.475,-24.75)" v:mID="9" v:groupContext="group" v:layerMember="0">
					<title>Sheet.9</title>
					<g id="shape10-16" v:mID="10" v:groupContext="shape" v:layerMember="0">
						<title>Sheet.10</title>
						<path d="M12 57.9 C11.77 56.85 11.47 56.32 10.72 55.87 C9.9 55.42 9.52 55.12 9.22 55.12 C9.07 55.12 9 55.12
									 8.92 55.2 C8.7 55.35 8.55 55.5 8.33 55.65 C8.32 55.65 8.32 55.65 8.33 55.65 C8.25 55.65 8.25
									 55.72 8.25 55.72 C8.02 55.87 7.8 55.95 7.57 56.02 C7.2 56.17 6.75 56.25 6.3 56.25 C5.85 56.25
									 5.4 56.17 5.02 56.02 C4.8 55.95 4.57 55.87 4.35 55.72 C4.05 55.57 3.82 55.42 3.6 55.2 C3.52
									 55.12 3.37 55.12 3.3 55.12 C3 55.12 2.7 55.35 1.8 55.87 C1.05 56.32 0.75 56.85 0.52 57.9 C0.3
									 58.8 0.08 60.9 0 61.87 L12.75 61.87 C12.45 60.9 12.22 58.8 12 57.9 Z" class="st2"/>
					</g>
					<g id="shape11-18" v:mID="11" v:groupContext="shape" v:layerMember="0" transform="translate(3.075,-6.975)">
						<title>Sheet.11</title>
						<path d="M3.07 61.87 C1.35 61.87 0 60.3 0 58.42 C0 56.55 1.42 54.97 3.07 54.97 C4.8 54.97 6.15 56.55 6.15
									 58.42 C6.15 60.3 4.8 61.87 3.07 61.87 Z" class="st2"/>
					</g>
				</g>
				<g id="shape12-20" v:mID="12" v:groupContext="shape" v:layerMember="0" transform="translate(11.25,-18.75)">
					<title>Sheet.12</title>
					<rect x="0" y="59.625" width="12.75" height="2.25" class="st2"/>
				</g>
				<g id="shape13-22" v:mID="13" v:groupContext="shape" v:layerMember="0" transform="translate(11.25,-14.25)">
					<title>Sheet.13</title>
					<rect x="0" y="59.625" width="12.75" height="2.25" class="st2"/>
				</g>
				<g id="group14-24" transform="translate(33.975,-24.75)" v:mID="14" v:groupContext="group" v:layerMember="0">
					<title>Sheet.14</title>
					<g id="shape15-25" v:mID="15" v:groupContext="shape" v:layerMember="0">
						<title>Sheet.15</title>
						<path d="M12 57.9 C11.77 56.85 11.47 56.32 10.72 55.87 C9.9 55.42 9.52 55.12 9.22 55.12 C9.07 55.12 9 55.12
									 8.92 55.2 C8.7 55.35 8.55 55.5 8.33 55.65 C8.32 55.65 8.32 55.65 8.33 55.65 C8.25 55.65 8.25
									 55.72 8.25 55.72 C8.02 55.87 7.8 55.95 7.57 56.02 C7.2 56.17 6.75 56.25 6.3 56.25 C5.85 56.25
									 5.4 56.17 5.02 56.02 C4.8 55.95 4.58 55.87 4.35 55.72 C4.05 55.57 3.82 55.42 3.6 55.2 C3.52
									 55.12 3.37 55.12 3.3 55.12 C3 55.12 2.7 55.35 1.8 55.87 C1.05 56.32 0.75 56.85 0.52 57.9 C0.3
									 58.8 0.08 60.9 0 61.87 L12.75 61.87 C12.45 60.9 12.22 58.8 12 57.9 Z" class="st2"/>
					</g>
					<g id="shape16-27" v:mID="16" v:groupContext="shape" v:layerMember="0" transform="translate(3.075,-6.975)">
						<title>Sheet.16</title>
						<path d="M3.07 61.87 C1.35 61.87 0 60.3 0 58.42 C0 56.55 1.42 54.97 3.07 54.97 C4.8 54.97 6.15 56.55 6.15
									 58.42 C6.15 60.3 4.8 61.87 3.07 61.87 Z" class="st2"/>
					</g>
				</g>
				<g id="shape17-29" v:mID="17" v:groupContext="shape" v:layerMember="0" transform="translate(33.75,-14.25)">
					<title>Sheet.17</title>
					<rect x="0" y="59.625" width="12.75" height="2.25" class="st2"/>
				</g>
				<g id="shape18-31" v:mID="18" v:groupContext="shape" v:layerMember="0" transform="translate(33.75,-18.75)">
					<title>Sheet.18</title>
					<rect x="0" y="59.625" width="12.75" height="2.25" class="st2"/>
				</g>
			</g>
		</g>
	</g>
</svg>
