<?xml version="1.0" encoding="UTF-8" standalone="no"?>
<!DOCTYPE svg PUBLIC "-//W3C//DTD SVG 1.1//EN" "http://www.w3.org/Graphics/SVG/1.1/DTD/svg11.dtd">
<!-- Generated by Microsoft Visio, SVG Export Anti-Spam.svg Page-1 -->
<svg xmlns="http://www.w3.org/2000/svg" xmlns:xlink="http://www.w3.org/1999/xlink" xmlns:ev="http://www.w3.org/2001/xml-events"
		xmlns:v="http://schemas.microsoft.com/visio/2003/SVGExtensions/" width="0.971094in" height="0.828125in"
		viewBox="0 0 69.9188 59.625" xml:space="preserve" color-interpolation-filters="sRGB" class="st4">
	<v:documentProperties v:langID="4108" v:metric="true" v:viewMarkup="false"/>

	<style type="text/css">
	<![CDATA[
		.st1 {fill:#ffffff;stroke:none;stroke-linecap:butt;stroke-width:0.75}
		.st2 {fill:#515150;stroke:none;stroke-linecap:butt;stroke-width:0.75}
		.st3 {fill:#525352;stroke:none;stroke-linecap:butt;stroke-width:0.75}
		.st4 {fill:none;fill-rule:evenodd;font-size:12px;overflow:visible;stroke-linecap:square;stroke-miterlimit:3}
	]]>
	</style>

	<g v:mID="0" v:index="1" v:groupContext="foregroundPage">
		<title>Page-1</title>
		<v:pageProperties v:drawingScale="0.0393701" v:pageScale="0.0393701" v:drawingUnits="24" v:shadowOffsetX="8.50394"
				v:shadowOffsetY="-8.50394"/>
		<v:layer v:name="symbols" v:index="0"/>
		<g id="group37-1" transform="translate(6.79688,-1.6875)" v:mID="37" v:groupContext="group" v:layerMember="0">
			<title>Anti-Spam</title>
			<g id="group38-2" transform="translate(-3.03757E-13,-10.5)" v:mID="38" v:groupContext="group" v:layerMember="0">
				<title>Sheet.38</title>
				<g id="shape39-3" v:mID="39" v:groupContext="shape" v:layerMember="0">
					<title>Sheet.39</title>
					<rect x="0" y="18.375" width="51.75" height="41.25" class="st1"/>
				</g>
				<g id="shape40-5" v:mID="40" v:groupContext="shape" v:layerMember="0" transform="translate(38.25,-27)">
					<title>Sheet.40</title>
					<rect x="0" y="52.875" width="6" height="6.75" class="st2"/>
				</g>
				<g id="shape41-7" v:mID="41" v:groupContext="shape" v:layerMember="0" transform="translate(11.25,-18)">
					<title>Sheet.41</title>
					<rect x="0" y="57.375" width="19.5" height="2.25" class="st2"/>
				</g>
				<g id="shape42-9" v:mID="42" v:groupContext="shape" v:layerMember="0" transform="translate(11.25,-12)">
					<title>Sheet.42</title>
					<rect x="0" y="57.375" width="25.5" height="2.25" class="st2"/>
				</g>
				<g id="shape43-11" v:mID="43" v:groupContext="shape" v:layerMember="0" transform="translate(2.25,-2.25)">
					<title>Sheet.43</title>
					<path d="M45 25.12 L45 57.37 L2.25 57.37 L2.25 25.12 L45 25.12 ZM47.25 22.87 L0 22.87 L0 59.62 L47.25 59.62 L47.25
								 22.87 Z" class="st3"/>
				</g>
			</g>
			<g id="group44-13" transform="translate(27,7.10543E-15)" v:mID="44" v:groupContext="group" v:layerMember="0">
				<title>Sheet.44</title>
				<g id="shape45-14" v:mID="45" v:groupContext="shape" v:layerMember="0">
					<title>Sheet.45</title>
					<path d="M16.12 59.62 C7.2 59.62 0 52.42 0 43.5 C0 34.57 7.2 27.37 16.12 27.37 C25.05 27.37 32.25 34.57 32.25
								 43.5 C32.25 52.42 25.05 59.62 16.12 59.62 Z" class="st1"/>
				</g>
				<g id="shape46-16" v:mID="46" v:groupContext="shape" v:layerMember="0" transform="translate(2.25,-2.25)">
					<title>Sheet.46</title>
					<path d="M13.87 31.87 C6.22 31.87 0 38.1 0 45.75 C0 53.4 6.22 59.62 13.87 59.62 C21.52 59.62 27.75 53.4 27.75
								 45.75 C27.75 38.1 21.52 31.87 13.87 31.87 ZM24 45.75 C24 47.7 23.47 49.42 22.5 51 L8.62 37.12 C10.12
								 36.22 11.92 35.62 13.87 35.62 C19.42 35.62 24 40.2 24 45.75 ZM3.75 45.75 C3.75 43.42 4.5 41.32 5.85
								 39.6 L20.02 53.77 C18.3 55.12 16.2 55.87 13.87 55.87 C8.32 55.87 3.75 51.3 3.75 45.75 Z"
							class="st2"/>
				</g>
			</g>
		</g>
	</g>
</svg>
