<?xml version="1.0" encoding="UTF-8" standalone="no"?>
<!DOCTYPE svg PUBLIC "-//W3C//DTD SVG 1.1//EN" "http://www.w3.org/Graphics/SVG/1.1/DTD/svg11.dtd">
<!-- Generated by Microsoft Visio, SVG Export App Part.svg Page-1 -->
<svg xmlns="http://www.w3.org/2000/svg" xmlns:xlink="http://www.w3.org/1999/xlink" xmlns:ev="http://www.w3.org/2001/xml-events"
		xmlns:v="http://schemas.microsoft.com/visio/2003/SVGExtensions/" width="0.9375in" height="0.9375in" viewBox="0 0 67.5 67.5"
		xml:space="preserve" color-interpolation-filters="sRGB" class="st3">
	<v:documentProperties v:langID="4108" v:metric="true" v:viewMarkup="false"/>

	<style type="text/css">
	<![CDATA[
		.st1 {fill:#ffffff;stroke:none;stroke-linecap:butt;stroke-width:0.75}
		.st2 {fill:#2072b8;stroke:none;stroke-linecap:butt;stroke-width:0.75}
		.st3 {fill:none;fill-rule:evenodd;font-size:12px;overflow:visible;stroke-linecap:square;stroke-miterlimit:3}
	]]>
	</style>

	<g v:mID="0" v:index="1" v:groupContext="foregroundPage">
		<title>Page-1</title>
		<v:pageProperties v:drawingScale="0.0393701" v:pageScale="0.0393701" v:drawingUnits="24" v:shadowOffsetX="8.50394"
				v:shadowOffsetY="-8.50394"/>
		<v:layer v:name="symbols" v:index="0"/>
		<g id="group65-1" transform="translate(7.875,-7.6125)" v:mID="65" v:groupContext="group" v:layerMember="0">
			<title>App Part</title>
			<g id="shape66-2" v:mID="66" v:groupContext="shape" v:layerMember="0" transform="translate(6.75,-0.525)">
				<title>Sheet.66</title>
				<path d="M0 54.83 L0 29.48 L22.27 16.88 L44.17 29.48 L44.17 54.83 L22.27 67.5 L0 54.83 Z" class="st1"/>
			</g>
			<g id="shape67-4" v:mID="67" v:groupContext="shape" v:layerMember="0" transform="translate(9,-3.15)">
				<title>Sheet.67</title>
				<path d="M39.67 56.18 L19.95 67.5 L0 56.18 L0 33.45 L19.95 22.05 L39.67 33.45 L39.67 56.18 Z" class="st2"/>
			</g>
			<g id="group68-6" v:mID="68" v:groupContext="group" v:layerMember="0">
				<title>Sheet.68</title>
				<g id="shape69-7" v:mID="69" v:groupContext="shape" v:layerMember="0">
					<title>Sheet.69</title>
					<path d="M0 60.3 L0 46.05 L12 38.85 L24 46.05 L24 60.3 L12 67.5 L0 60.3 Z" class="st1"/>
				</g>
				<g id="shape70-9" v:mID="70" v:groupContext="shape" v:layerMember="0" transform="translate(2.25,-2.625)">
					<title>Sheet.70</title>
					<path d="M19.5 61.65 L9.75 67.5 L0 61.65 L0 49.95 L9.75 44.1 L19.5 49.95 L19.5 61.65 Z" class="st2"/>
				</g>
			</g>
		</g>
	</g>
</svg>
