<?xml version="1.0" encoding="UTF-8" standalone="no"?>
<!DOCTYPE svg PUBLIC "-//W3C//DTD SVG 1.1//EN" "http://www.w3.org/Graphics/SVG/1.1/DTD/svg11.dtd">
<!-- Generated by Microsoft Visio, SVG Export App for SharePoint.svg Page-1 -->
<svg xmlns="http://www.w3.org/2000/svg" xmlns:xlink="http://www.w3.org/1999/xlink" xmlns:ev="http://www.w3.org/2001/xml-events"
		xmlns:v="http://schemas.microsoft.com/visio/2003/SVGExtensions/" width="1.01172in" height="0.828125in"
		viewBox="0 0 72.8438 59.625" xml:space="preserve" color-interpolation-filters="sRGB" class="st4">
	<v:documentProperties v:langID="4108" v:metric="true" v:viewMarkup="false"/>

	<style type="text/css">
	<![CDATA[
		.st1 {fill:#ffffff;stroke:none;stroke-linecap:butt;stroke-width:0.75}
		.st2 {fill:#515150;stroke:none;stroke-linecap:butt;stroke-width:0.75}
		.st3 {fill:#2072b8;stroke:none;stroke-linecap:butt;stroke-width:0.75}
		.st4 {fill:none;fill-rule:evenodd;font-size:12px;overflow:visible;stroke-linecap:square;stroke-miterlimit:3}
	]]>
	</style>

	<g v:mID="0" v:index="1" v:groupContext="foregroundPage">
		<title>Page-1</title>
		<v:pageProperties v:drawingScale="0.0393701" v:pageScale="0.0393701" v:drawingUnits="24" v:shadowOffsetX="8.50394"
				v:shadowOffsetY="-8.50394"/>
		<v:layer v:name="symbols" v:index="0"/>
		<g id="group56-1" transform="translate(7.54688,-7.3125)" v:mID="56" v:groupContext="group" v:layerMember="0">
			<title>App for SharePoint</title>
			<g id="group57-2" v:mID="57" v:groupContext="group" v:layerMember="0">
				<title>Sheet.57</title>
				<g id="shape58-3" v:mID="58" v:groupContext="shape" v:layerMember="0">
					<title>Sheet.58</title>
					<path d="M5.25 59.62 C2.32 59.62 0 57.3 0 54.37 L0 19.88 C0 16.95 2.32 14.62 5.25 14.62 L52.5 14.62 C55.42 14.63
								 57.75 16.95 57.75 19.88 L57.75 54.37 C57.75 57.3 55.42 59.62 52.5 59.62 L5.25 59.62 Z" class="st1"/>
				</g>
				<g id="shape59-5" v:mID="59" v:groupContext="shape" v:layerMember="0" transform="translate(2.25,-2.25)">
					<title>Sheet.59</title>
					<path d="M50.25 19.12 L3 19.12 C1.35 19.13 0 20.47 0 22.12 L0 56.62 C0 58.28 1.35 59.62 3 59.62 L50.25 59.62
								 C51.9 59.62 53.25 58.28 53.25 56.62 L53.25 22.12 C53.25 20.47 51.9 19.13 50.25 19.12 ZM44.25 21.38
								 L46.5 21.38 L46.5 23.62 L44.25 23.62 L44.25 21.38 ZM39.75 21.38 L42 21.38 L42 23.62 L39.75 23.62
								 L39.75 21.38 ZM51 56.62 C51 57.07 50.7 57.37 50.25 57.37 L3 57.37 C2.55 57.37 2.25 57.07 2.25 56.62
								 L2.25 26.63 L51 26.63 L51 56.62 ZM51 23.62 L48.75 23.62 L48.75 21.38 L51 21.38 L51 23.62 Z"
							class="st2"/>
				</g>
			</g>
			<g id="group60-7" transform="translate(15,-5.55)" v:mID="60" v:groupContext="group" v:layerMember="0">
				<title>Sheet.60</title>
				<g id="shape61-8" v:mID="61" v:groupContext="shape" v:layerMember="0" transform="translate(5.25,-1.8)">
					<title>Sheet.61</title>
					<path d="M21.75 53.4 L10.95 59.62 L0 53.4 L0 40.95 L10.95 34.73 L21.75 40.95 L21.75 53.4 Z" class="st3"/>
				</g>
				<g id="group62-10" v:mID="62" v:groupContext="group" v:layerMember="0">
					<title>Sheet.62</title>
					<g id="shape63-11" v:mID="63" v:groupContext="shape" v:layerMember="0">
						<title>Sheet.63</title>
						<path d="M0 55.58 L0 47.63 L6.75 43.58 L13.5 47.63 L13.5 55.58 L6.75 59.62 L0 55.58 Z" class="st1"/>
					</g>
					<g id="shape64-13" v:mID="64" v:groupContext="shape" v:layerMember="0" transform="translate(1.5,-1.725)">
						<title>Sheet.64</title>
						<path d="M10.5 56.48 L5.25 59.62 L0 56.48 L0 50.18 L5.25 47.03 L10.5 50.18 L10.5 56.48 Z" class="st3"/>
					</g>
				</g>
			</g>
		</g>
	</g>
</svg>
