<?xml version="1.0" encoding="UTF-8" standalone="no"?>
<!DOCTYPE svg PUBLIC "-//W3C//DTD SVG 1.1//EN" "http://www.w3.org/Graphics/SVG/1.1/DTD/svg11.dtd">
<!-- Generated by Microsoft Visio, SVG Export Application, Web.svg Page-1 -->
<svg xmlns="http://www.w3.org/2000/svg" xmlns:xlink="http://www.w3.org/1999/xlink" xmlns:ev="http://www.w3.org/2001/xml-events"
		xmlns:v="http://schemas.microsoft.com/visio/2003/SVGExtensions/" width="0.971094in" height="0.84375in"
		viewBox="0 0 69.9188 60.75" xml:space="preserve" color-interpolation-filters="sRGB" class="st3">
	<v:documentProperties v:langID="4108" v:metric="true" v:viewMarkup="false"/>

	<style type="text/css">
	<![CDATA[
		.st1 {fill:#ffffff;stroke:none;stroke-linecap:butt;stroke-width:0.75}
		.st2 {fill:#515150;stroke:none;stroke-linecap:butt;stroke-width:0.75}
		.st3 {fill:none;fill-rule:evenodd;font-size:12px;overflow:visible;stroke-linecap:square;stroke-miterlimit:3}
	]]>
	</style>

	<g v:mID="0" v:index="1" v:groupContext="foregroundPage">
		<title>Page-1</title>
		<v:pageProperties v:drawingScale="0.0393701" v:pageScale="0.0393701" v:drawingUnits="24" v:shadowOffsetX="8.50394"
				v:shadowOffsetY="-8.50394"/>
		<v:layer v:name="symbols" v:index="0"/>
		<g id="group117-1" transform="translate(6.12187,-0.975)" v:mID="117" v:groupContext="group" v:layerMember="0">
			<title>Application, Web</title>
			<g id="group118-2" v:mID="118" v:groupContext="group" v:layerMember="0">
				<title>Sheet.118</title>
				<g id="group119-3" transform="translate(7.99361E-15,-8.175)" v:mID="119" v:groupContext="group" v:layerMember="0">
					<title>Sheet.119</title>
					<g id="shape120-4" v:mID="120" v:groupContext="shape" v:layerMember="0">
						<title>Sheet.120</title>
						<path d="M5.25 60.75 C2.32 60.75 0 58.43 0 55.5 L0 21 C0 18.08 2.32 15.75 5.25 15.75 L52.5 15.75 C55.42 15.75
									 57.75 18.08 57.75 21 L57.75 55.5 C57.75 58.43 55.42 60.75 52.5 60.75 L5.25 60.75 Z"
								class="st1"/>
					</g>
					<g id="shape121-6" v:mID="121" v:groupContext="shape" v:layerMember="0" transform="translate(2.25,-2.25)">
						<title>Sheet.121</title>
						<path d="M50.25 20.25 L3 20.25 C1.35 20.25 0 21.6 0 23.25 L0 57.75 C0 59.4 1.35 60.75 3 60.75 L50.25 60.75
									 C51.9 60.75 53.25 59.4 53.25 57.75 L53.25 23.25 C53.25 21.6 51.9 20.25 50.25 20.25 ZM44.25 22.5
									 L46.5 22.5 L46.5 24.75 L44.25 24.75 L44.25 22.5 ZM39.75 22.5 L42 22.5 L42 24.75 L39.75 24.75
									 L39.75 22.5 ZM51 57.75 C51 58.2 50.7 58.5 50.25 58.5 L3 58.5 C2.55 58.5 2.25 58.2 2.25 57.75
									 L2.25 27.75 L51 27.75 L51 57.75 ZM51 24.75 L48.75 24.75 L48.75 22.5 L51 22.5 L51 24.75 Z"
								class="st2"/>
					</g>
				</g>
				<g id="group122-8" transform="translate(27.6,2.77112E-13)" v:mID="122" v:groupContext="group" v:layerMember="0">
					<title>Sheet.122</title>
					<g id="shape123-9" v:mID="123" v:groupContext="shape" v:layerMember="0">
						<title>Sheet.123</title>
						<ellipse cx="16.5" cy="44.25" rx="16.5" ry="16.5" class="st1"/>
					</g>
					<g id="group124-11" transform="translate(2.325,-2.325)" v:mID="124" v:groupContext="group" v:layerMember="0">
						<title>Sheet.124</title>
						<g id="shape125-12" v:mID="125" v:groupContext="shape" v:layerMember="0" transform="translate(15,-14.55)">
							<title>Sheet.125</title>
							<path d="M5.63 53.55 C3.9 54.08 1.95 54.38 0 54.45 L0 60.75 C2.4 60.68 4.73 60.38 6.83 59.78 C6.68 57.45
										 6.3 55.35 5.63 53.55 Z" class="st2"/>
						</g>
						<g id="shape126-14" v:mID="126" v:groupContext="shape" v:layerMember="0"
								transform="translate(4.725,-23.775)">
							<title>Sheet.126</title>
							<path d="M4.5 57 C2.85 57.6 1.35 58.58 0 59.7 C0.68 60.08 1.43 60.45 2.18 60.75 C2.78 59.33 3.6 58.05
										 4.5 57 Z" class="st2"/>
						</g>
						<g id="shape127-16" v:mID="127" v:groupContext="shape" v:layerMember="0"
								transform="translate(8.325,-22.35)">
							<title>Sheet.127</title>
							<path d="M0 59.93 C1.57 60.38 3.3 60.68 5.1 60.75 L5.1 54.75 C4.87 54.75 4.72 54.75 4.5 54.75 C2.77 55.35
										 1.2 57.3 0 59.93 Z" class="st2"/>
						</g>
						<g id="shape128-18" v:mID="128" v:groupContext="shape" v:layerMember="0"
								transform="translate(6.675,-14.625)">
							<title>Sheet.128</title>
							<path d="M0 59.78 C2.1 60.38 4.43 60.68 6.83 60.75 L6.83 54.53 C4.87 54.45 2.93 54.15 1.2 53.63 C0.53
										 55.43 0.15 57.53 0 59.78 Z" class="st2"/>
						</g>
						<g id="shape129-20" v:mID="129" v:groupContext="shape" v:layerMember="0"
								transform="translate(22.65,-8.325)">
							<title>Sheet.129</title>
							<path d="M0.68 54.83 C0.68 56.93 0.45 58.95 0 60.75 C2.02 60 3.9 59.03 5.48 57.83 C5.7 56.85 5.78 55.88
										 5.78 54.9 C5.78 54 5.7 53.1 5.55 52.28 C4.12 53.25 2.48 54 0.6 54.6 C0.68 54.68 0.68 54.75
										 0.68 54.83 Z" class="st2"/>
						</g>
						<g id="shape130-22" v:mID="130" v:groupContext="shape" v:layerMember="0"
								transform="translate(-1.45384E-13,-8.175)">
							<title>Sheet.130</title>
							<path d="M5.17 54.68 C5.17 54.6 5.17 54.53 5.17 54.45 C3.38 53.85 1.65 53.03 0.22 52.13 C0.07 52.95 0
										 53.85 0 54.75 C0 55.95 0.15 57.08 0.45 58.13 C2.1 59.25 3.9 60.15 5.85 60.75 C5.4 58.95
										 5.17 56.85 5.17 54.68 Z" class="st2"/>
						</g>
						<g id="shape131-24" v:mID="131" v:groupContext="shape" v:layerMember="0"
								transform="translate(0.675,-16.05)">
							<title>Sheet.131</title>
							<path d="M3 53.1 C1.65 54.6 0.6 56.4 0 58.43 C1.27 59.4 2.85 60.15 4.57 60.75 C4.73 58.5 5.1 56.33 5.78
										 54.53 C4.73 54.15 3.82 53.63 3 53.1 Z" class="st2"/>
						</g>
						<g id="shape132-26" v:mID="132" v:groupContext="shape" v:layerMember="0"
								transform="translate(14.925,-22.35)">
							<title>Sheet.132</title>
							<path d="M0.07 60.75 C1.87 60.68 3.6 60.38 5.17 59.93 C4.05 57.3 2.4 55.35 0.6 54.75 C0.37 54.75 0.22
										 54.75 0 54.75 L0 60.75 L0.07 60.75 Z" class="st2"/>
						</g>
						<g id="shape133-28" v:mID="133" v:groupContext="shape" v:layerMember="0" transform="translate(1.125,-0.75)">
							<title>Sheet.133</title>
							<path d="M5.17 55.13 C3.3 54.6 1.57 53.85 0 52.95 C1.57 56.55 4.57 59.4 8.32 60.75 C7.05 59.33 5.92 57.38
										 5.17 55.13 Z" class="st2"/>
						</g>
						<g id="shape134-30" v:mID="134" v:groupContext="shape" v:layerMember="0"
								transform="translate(19.275,-23.7)">
							<title>Sheet.134</title>
							<path d="M0 56.93 C0.9 57.98 1.65 59.25 2.25 60.75 C3 60.45 3.75 60.08 4.43 59.7 C3.23 58.5 1.65 57.6
										 0 56.93 Z" class="st2"/>
						</g>
						<g id="shape135-32" v:mID="135" v:groupContext="shape" v:layerMember="0"
								transform="translate(22.125,-16.05)">
							<title>Sheet.135</title>
							<path d="M5.78 58.43 C5.18 56.4 4.12 54.6 2.78 53.1 C1.95 53.63 1.05 54.08 0 54.53 C0.6 56.4 1.05 58.5
										 1.2 60.75 C2.85 60.15 4.43 59.4 5.78 58.43 Z" class="st2"/>
						</g>
						<g id="shape136-34" v:mID="136" v:groupContext="shape" v:layerMember="0" transform="translate(19.05,-0.75)">
							<title>Sheet.136</title>
							<path d="M3.15 54.98 C2.4 57.38 1.35 59.33 0 60.75 C3.82 59.4 6.9 56.4 8.4 52.58 C6.82 53.55 5.03 54.38
										 3.15 54.98 Z" class="st2"/>
						</g>
						<g id="shape137-36" v:mID="137" v:groupContext="shape" v:layerMember="0"
								transform="translate(8.1,1.49214E-13)">
							<title>Sheet.137</title>
							<path d="M5.4 60.75 L5.4 55.43 C3.53 55.43 1.73 55.2 0 54.83 C1.28 58.05 3.23 60.3 5.4 60.75 Z"
									class="st2"/>
						</g>
						<g id="shape138-38" v:mID="138" v:groupContext="shape" v:layerMember="0" transform="translate(15,-6.825)">
							<title>Sheet.138</title>
							<path d="M6.83 53.55 C4.73 54.08 2.4 54.45 0 54.53 L0 60.75 C2.03 60.68 4.05 60.38 6 59.85 C6.53 57.9
										 6.83 55.8 6.83 53.55 Z" class="st2"/>
						</g>
						<g id="shape139-40" v:mID="139" v:groupContext="shape" v:layerMember="0"
								transform="translate(6.675,-6.825)">
							<title>Sheet.139</title>
							<path d="M6.83 60.75 L6.83 54.53 C4.43 54.45 2.1 54.15 0 53.55 C0 55.88 0.38 58.05 0.9 59.93 C2.78 60.45
										 4.8 60.68 6.83 60.75 Z" class="st2"/>
						</g>
						<g id="shape140-42" v:mID="140" v:groupContext="shape" v:layerMember="0" transform="translate(15,-0.075)">
							<title>Sheet.140</title>
							<path d="M0 55.43 L0 60.75 C2.18 60.3 4.2 57.98 5.4 54.68 C3.68 55.2 1.88 55.43 0 55.43 Z" class="st2"/>
						</g>
					</g>
				</g>
			</g>
		</g>
	</g>
</svg>
