<?xml version="1.0" encoding="UTF-8" standalone="no"?>
<!DOCTYPE svg PUBLIC "-//W3C//DTD SVG 1.1//EN" "http://www.w3.org/Graphics/SVG/1.1/DTD/svg11.dtd">
<!-- Generated by Microsoft Visio, SVG Export Application, iOS.svg Page-1 -->
<svg xmlns="http://www.w3.org/2000/svg" xmlns:xlink="http://www.w3.org/1999/xlink" xmlns:ev="http://www.w3.org/2001/xml-events"
		xmlns:v="http://schemas.microsoft.com/visio/2003/SVGExtensions/" width="1.125in" height="0.90625in" viewBox="0 0 81 65.25"
		xml:space="preserve" color-interpolation-filters="sRGB" class="st3">
	<v:documentProperties v:langID="4108" v:metric="true" v:viewMarkup="false"/>

	<style type="text/css">
	<![CDATA[
		.st1 {fill:#ffffff;stroke:none;stroke-linecap:butt;stroke-width:0.75}
		.st2 {fill:#505050;stroke:none;stroke-linecap:butt;stroke-width:0.75}
		.st3 {fill:none;fill-rule:evenodd;font-size:12px;overflow:visible;stroke-linecap:square;stroke-miterlimit:3}
	]]>
	</style>

	<g v:mID="0" v:index="1" v:groupContext="foregroundPage">
		<title>Page-1</title>
		<v:pageProperties v:drawingScale="0.0393701" v:pageScale="0.0393701" v:drawingUnits="24" v:shadowOffsetX="8.50394"
				v:shadowOffsetY="-8.50394"/>
		<v:layer v:name="symbols" v:index="0"/>
		<g id="group107-1" transform="translate(10.0313,-4.21875)" v:mID="107" v:groupContext="group" v:layerMember="0">
			<title>Application, iOS</title>
			<g id="group108-2" v:mID="108" v:groupContext="group" v:layerMember="0">
				<title>Sheet.108</title>
				<g id="group109-3" transform="translate(1.15907E-13,-8.4)" v:mID="109" v:groupContext="group" v:layerMember="0">
					<title>Sheet.109</title>
					<g id="shape110-4" v:mID="110" v:groupContext="shape" v:layerMember="0">
						<title>Sheet.110</title>
						<path d="M5.25 65.25 C2.32 65.25 0 62.92 0 60 L0 25.5 C0 22.58 2.32 20.25 5.25 20.25 L52.5 20.25 C55.43 20.25
									 57.75 22.58 57.75 25.5 L57.75 60 C57.75 62.92 55.43 65.25 52.5 65.25 L5.25 65.25 Z"
								class="st1"/>
					</g>
					<g id="shape111-6" v:mID="111" v:groupContext="shape" v:layerMember="0" transform="translate(2.25,-2.25)">
						<title>Sheet.111</title>
						<path d="M50.25 24.75 L3 24.75 C1.35 24.75 0 26.1 0 27.75 L0 62.25 C-0 63.9 1.35 65.25 3 65.25 L50.25 65.25
									 C51.9 65.25 53.25 63.9 53.25 62.25 L53.25 27.75 C53.25 26.1 51.9 24.75 50.25 24.75 ZM44.25 27
									 L46.5 27 L46.5 29.25 L44.25 29.25 L44.25 27 ZM39.75 27 L42 27 L42 29.25 L39.75 29.25 L39.75
									 27 ZM51 62.25 C51 62.7 50.7 63 50.25 63 L3 63 C2.55 63 2.25 62.7 2.25 62.25 L2.25 32.25 L51
									 32.25 L51 62.25 ZM51 29.25 L48.75 29.25 L48.75 27 L51 27 L51 29.25 Z" class="st2"/>
					</g>
				</g>
				<g id="group112-8" transform="translate(28.95,9.9476E-14)" v:mID="112" v:groupContext="group" v:layerMember="0">
					<title>Sheet.112</title>
					<g id="shape113-9" v:mID="113" v:groupContext="shape" v:layerMember="0">
						<title>Sheet.113</title>
						<path d="M34.73 50.93 L33.53 50.25 C31.2 48.97 30.15 47.4 30.15 45 C30.15 43.05 30.98 41.4 32.48 40.28 L34.8
									 39 L33.08 36.9 C31.58 35.1 29.18 32.7 25.28 32.55 C26.4 30.9 27 28.95 27 26.85 C27 26.4 26.93
									 25.95 26.93 25.5 L26.93 25.2 L26.25 22.65 L24.08 23.25 C19.13 24.6 15.9 28.5 15.9 33.23 C15.9
									 33.38 15.9 33.53 15.9 33.68 C15.07 33.23 13.95 32.78 12.53 32.78 C5.7 32.78 0 38.63 0 45.6 C0
									 48.68 0.97 54.08 3.68 58.95 C6.53 64.12 9.6 65.25 11.78 65.25 C12.98 65.25 14.1 64.8 15.15 64.35
									 C16.13 63.97 16.95 63.6 17.85 63.6 C18.45 63.6 19.28 63.9 20.1 64.28 C21.15 64.72 22.43 65.17
									 23.78 65.17 C29.85 65.17 34.73 57.9 34.73 53.18 C34.73 52.95 34.73 52.73 34.65 52.58 L34.65
									 50.93 L34.73 50.93 Z" class="st1"/>
					</g>
					<g id="shape114-11" v:mID="114" v:groupContext="shape" v:layerMember="0" transform="translate(2.4,-2.4)">
						<title>Sheet.114</title>
						<path d="M29.03 40.73 C27.6 38.93 25.65 37.2 22.65 37.2 C20.55 37.2 18.83 39.3 15.98 39.3 C13.65 39.3 12.75
									 37.28 10.28 37.28 C5.1 37.28 0 41.85 0 47.85 C-0 51 1.05 55.88 3.38 60.15 C5.1 63.23 7.13 65.25
									 9.53 65.25 C11.25 65.25 13.2 63.52 15.6 63.53 C17.7 63.52 19.65 65.1 21.53 65.1 C26.03 65.1
									 30.23 59.25 30.23 55.35 C30.23 55.13 30.15 54.98 30.15 54.83 L30.15 54.6 C27.23 53.03 25.65
									 50.7 25.65 47.33 C25.65 44.63 26.85 42.23 29.03 40.73 Z" class="st2"/>
					</g>
					<g id="shape115-13" v:mID="115" v:groupContext="shape" v:layerMember="0" transform="translate(18.225,-30.45)">
						<title>Sheet.115</title>
						<path d="M0.3 65.25 C3.68 64.2 6.68 61.73 6.68 57.3 C6.68 56.93 6.6 56.48 6.6 56.03 L6.53 55.8 C3.08 56.78
									 0 59.4 0 63.6 C0 63.98 0.15 64.5 0.3 65.03 L0.3 65.25 Z" class="st2"/>
					</g>
				</g>
				<g id="shape116-15" v:mID="116" v:groupContext="shape" v:layerMember="0" transform="translate(53.85,-32.1)">
					<title>Sheet.116</title>
					<rect x="0" y="61.8" width="1.8" height="3.45" class="st1"/>
				</g>
			</g>
		</g>
	</g>
</svg>
