<?xml version="1.0" encoding="UTF-8" standalone="no"?>
<!DOCTYPE svg PUBLIC "-//W3C//DTD SVG 1.1//EN" "http://www.w3.org/Graphics/SVG/1.1/DTD/svg11.dtd">
<!-- Generated by Microsoft Visio, SVG Export Application, Windows.svg Page-1 -->
<svg xmlns="http://www.w3.org/2000/svg" xmlns:xlink="http://www.w3.org/1999/xlink" xmlns:ev="http://www.w3.org/2001/xml-events"
		xmlns:v="http://schemas.microsoft.com/visio/2003/SVGExtensions/" width="1.15625in" height="0.90625in"
		viewBox="0 0 83.25 65.25" xml:space="preserve" color-interpolation-filters="sRGB" class="st3">
	<v:documentProperties v:langID="4108" v:metric="true" v:viewMarkup="false"/>

	<style type="text/css">
	<![CDATA[
		.st1 {fill:#ffffff;stroke:none;stroke-linecap:butt;stroke-width:0.75}
		.st2 {fill:#505050;stroke:none;stroke-linecap:butt;stroke-width:0.75}
		.st3 {fill:none;fill-rule:evenodd;font-size:12px;overflow:visible;stroke-linecap:square;stroke-miterlimit:3}
	]]>
	</style>

	<g v:mID="0" v:index="1" v:groupContext="foregroundPage">
		<title>Page-1</title>
		<v:pageProperties v:drawingScale="0.0393701" v:pageScale="0.0393701" v:drawingUnits="24" v:shadowOffsetX="8.50394"
				v:shadowOffsetY="-8.50394"/>
		<v:layer v:name="symbols" v:index="0"/>
		<g id="group141-1" transform="translate(10.2188,-3.46875)" v:mID="141" v:groupContext="group" v:layerMember="0">
			<title>Application, Windows</title>
			<g id="group142-2" transform="translate(1.15907E-13,-9.75)" v:mID="142" v:groupContext="group" v:layerMember="0">
				<title>Sheet.142</title>
				<g id="shape143-3" v:mID="143" v:groupContext="shape" v:layerMember="0">
					<title>Sheet.143</title>
					<path d="M5.25 65.25 C2.32 65.25 0 62.92 0 60 L0 25.5 C0 22.58 2.32 20.25 5.25 20.25 L52.5 20.25 C55.43 20.25
								 57.75 22.58 57.75 25.5 L57.75 60 C57.75 62.92 55.43 65.25 52.5 65.25 L5.25 65.25 Z" class="st1"/>
				</g>
				<g id="shape144-5" v:mID="144" v:groupContext="shape" v:layerMember="0" transform="translate(2.25,-2.25)">
					<title>Sheet.144</title>
					<path d="M50.25 24.75 L3 24.75 C1.35 24.75 0 26.1 0 27.75 L0 62.25 C-0 63.9 1.35 65.25 3 65.25 L50.25 65.25 C51.9
								 65.25 53.25 63.9 53.25 62.25 L53.25 27.75 C53.25 26.1 51.9 24.75 50.25 24.75 ZM44.25 27 L46.5 27
								 L46.5 29.25 L44.25 29.25 L44.25 27 ZM39.75 27 L42 27 L42 29.25 L39.75 29.25 L39.75 27 ZM51 62.25
								 C51 62.7 50.7 63 50.25 63 L3 63 C2.55 63 2.25 62.7 2.25 62.25 L2.25 32.25 L51 32.25 L51 62.25 ZM51
								 29.25 L48.75 29.25 L48.75 27 L51 27 L51 29.25 Z" class="st2"/>
				</g>
			</g>
			<g id="group145-7" transform="translate(25.5,0)" v:mID="145" v:groupContext="group" v:layerMember="0">
				<title>Sheet.145</title>
				<g id="shape146-8" v:mID="146" v:groupContext="shape" v:layerMember="0">
					<title>Sheet.146</title>
					<path d="M37.43 65.25 L0 59.93 L0 32.33 L37.43 27 L38.25 27 L38.25 65.25 L37.43 65.25 Z" class="st1"/>
				</g>
				<g id="group147-10" transform="translate(2.25,-2.25)" v:mID="147" v:groupContext="group" v:layerMember="0">
					<title>Sheet.147</title>
					<g id="shape148-11" v:mID="148" v:groupContext="shape" v:layerMember="0"
							transform="translate(-3.9968E-15,-17.25)">
						<title>Sheet.148</title>
						<rect x="13.5" y="51.6" width="13.5" height="13.65" class="st2"/>
					</g>
					<g id="shape149-13" v:mID="149" v:groupContext="shape" v:layerMember="0" transform="translate(14.25,-17.25)">
						<title>Sheet.149</title>
						<path d="M0 65.25 L19.5 65.25 L19.5 48.75 L0 51.52 L0 65.25 Z" class="st2"/>
					</g>
					<g id="shape150-15" v:mID="150" v:groupContext="shape" v:layerMember="0"
							transform="translate(-3.9968E-15,-2.85)">
						<title>Sheet.150</title>
						<path d="M13.5 51.6 L0 51.6 L0 63.3 L13.5 65.25 L13.5 51.6 Z" class="st2"/>
					</g>
					<g id="shape151-17" v:mID="151" v:groupContext="shape" v:layerMember="0"
							transform="translate(14.25,1.7053E-13)">
						<title>Sheet.151</title>
						<rect x="0" y="48.75" width="19.5" height="13.725" class="st2"/>
					</g>
				</g>
			</g>
		</g>
	</g>
</svg>
