<?xml version="1.0" encoding="UTF-8" standalone="no"?>
<!DOCTYPE svg PUBLIC "-//W3C//DTD SVG 1.1//EN" "http://www.w3.org/Graphics/SVG/1.1/DTD/svg11.dtd">
<!-- Generated by Microsoft Visio, SVG Export Application, Android.svg Page-1 -->
<svg xmlns="http://www.w3.org/2000/svg" xmlns:xlink="http://www.w3.org/1999/xlink" xmlns:ev="http://www.w3.org/2001/xml-events"
		xmlns:v="http://schemas.microsoft.com/visio/2003/SVGExtensions/" width="2.625in" height="0.96875in" viewBox="0 0 189 69.75"
		xml:space="preserve" color-interpolation-filters="sRGB" class="st3">
	<v:documentProperties v:langID="4108" v:metric="true" v:viewMarkup="false"/>

	<style type="text/css">
	<![CDATA[
		.st1 {fill:#ffffff;stroke:none;stroke-linecap:butt;stroke-width:0.75}
		.st2 {fill:#505050;stroke:none;stroke-linecap:butt;stroke-width:0.75}
		.st3 {fill:none;fill-rule:evenodd;font-size:12px;overflow:visible;stroke-linecap:square;stroke-miterlimit:3}
	]]>
	</style>

	<g v:mID="0" v:index="1" v:groupContext="foregroundPage">
		<title>Page-1</title>
		<v:pageProperties v:drawingScale="0.0393701" v:pageScale="0.0393701" v:drawingUnits="24" v:shadowOffsetX="8.50394"
				v:shadowOffsetY="-8.50394"/>
		<v:layer v:name="symbols" v:index="0"/>
		<g id="group71-1" transform="translate(9.43125,-5.34375)" v:mID="71" v:groupContext="group" v:layerMember="0">
			<title>Application, Android</title>
			<g id="group72-2" transform="translate(6.79456E-14,-10.575)" v:mID="72" v:groupContext="group" v:layerMember="0">
				<title>Sheet.72</title>
				<g id="shape73-3" v:mID="73" v:groupContext="shape" v:layerMember="0">
					<title>Sheet.73</title>
					<path d="M5.25 69.75 C2.32 69.75 0 67.42 0 64.5 L0 30 C0 27.08 2.32 24.75 5.25 24.75 L52.5 24.75 C55.43 24.75
								 57.75 27.08 57.75 30 L57.75 64.5 C57.75 67.42 55.43 69.75 52.5 69.75 L5.25 69.75 Z" class="st1"/>
				</g>
				<g id="shape74-5" v:mID="74" v:groupContext="shape" v:layerMember="0" transform="translate(2.25,-2.25)">
					<title>Sheet.74</title>
					<path d="M50.25 29.25 L3 29.25 C1.35 29.25 0 30.6 0 32.25 L0 66.75 C0 68.4 1.35 69.75 3 69.75 L50.25 69.75 C51.9
								 69.75 53.25 68.4 53.25 66.75 L53.25 32.25 C53.25 30.6 51.9 29.25 50.25 29.25 ZM44.25 31.5 L46.5
								 31.5 L46.5 33.75 L44.25 33.75 L44.25 31.5 ZM39.75 31.5 L42 31.5 L42 33.75 L39.75 33.75 L39.75 31.5
								 ZM51 66.75 C51 67.2 50.7 67.5 50.25 67.5 L3 67.5 C2.55 67.5 2.25 67.2 2.25 66.75 L2.25 36.75 L51
								 36.75 L51 66.75 ZM51 33.75 L48.75 33.75 L48.75 31.5 L51 31.5 L51 33.75 Z" class="st2"/>
				</g>
			</g>
			<g id="group75-7" transform="translate(30.075,2.55795E-13)" v:mID="75" v:groupContext="group" v:layerMember="0">
				<title>Sheet.75</title>
				<g id="shape76-8" v:mID="76" v:groupContext="shape" v:layerMember="0">
					<title>Sheet.76</title>
					<path d="M29.85 41.77 C29.62 41.78 29.47 41.78 29.25 41.85 C29.25 41.78 29.25 41.7 29.25 41.62 C29.25 38.48 27.82
								 35.63 25.5 33.6 L26.02 32.62 C26.78 31.35 26.25 29.7 24.97 28.95 C24.6 28.72 24.15 28.57 23.62 28.57
								 C22.65 28.57 21.75 29.1 21.22 30 L20.63 31.05 C19.5 30.67 18.23 30.52 16.95 30.52 C15.67 30.52 14.4
								 30.67 13.27 31.05 L12.82 29.93 C12.37 29.1 11.4 28.57 10.42 28.57 C9.98 28.57 9.52 28.72 9.07 28.95
								 C7.8 29.7 7.35 31.27 8.02 32.62 L8.55 33.6 C6.22 35.63 4.8 38.48 4.8 41.62 C4.8 41.7 4.8 41.78 4.8
								 41.85 C4.58 41.78 4.28 41.78 4.05 41.77 C1.8 41.78 0 43.65 0 45.9 L0 55.35 C0 57.6 1.8 59.47 4.05
								 59.47 C4.58 59.47 5.18 59.33 5.62 59.17 C6.08 61.05 7.5 62.55 9.3 63 L9.3 65.62 C9.3 67.87 11.1
								 69.75 13.27 69.75 C14.85 69.75 16.2 68.78 16.87 67.42 C17.55 68.78 18.9 69.75 20.47 69.75 C22.65
								 69.75 24.45 67.87 24.45 65.62 L24.45 63.07 C26.4 62.85 27.75 61.35 28.2 59.25 C28.65 59.47 29.18
								 59.55 29.7 59.55 C31.95 59.55 33.75 57.68 33.75 55.42 L33.75 45.9 C33.9 43.65 32.1 41.78 29.85 41.77
								 Z" class="st1"/>
				</g>
				<g id="shape77-10" v:mID="77" v:groupContext="shape" v:layerMember="0" transform="translate(2.4,-12.525)">
					<title>Sheet.77</title>
					<path d="M3.6 67.87 C3.6 68.92 2.78 69.75 1.8 69.75 C0.83 69.75 0 68.92 0 67.87 L0 58.42 C0 57.37 0.83 56.55
								 1.8 56.55 C2.85 56.55 3.6 57.37 3.6 58.42 L3.6 67.87 Z" class="st2"/>
				</g>
				<g id="shape78-12" v:mID="78" v:groupContext="shape" v:layerMember="0" transform="translate(28.05,-12.525)">
					<title>Sheet.78</title>
					<path d="M3.6 67.87 C3.6 68.92 2.78 69.75 1.8 69.75 C0.83 69.75 0 68.92 0 67.87 L0 58.42 C-0 57.37 0.83 56.55
								 1.8 56.55 C2.78 56.55 3.6 57.37 3.6 58.42 L3.6 67.87 Z" class="st2"/>
				</g>
				<g id="shape79-14" v:mID="79" v:groupContext="shape" v:layerMember="0" transform="translate(7.8,-2.4)">
					<title>Sheet.79</title>
					<path d="M0 46.28 L0 60.3 C0 61.88 1.2 63.15 2.63 63.15 L3.83 63.15 L3.83 67.87 C3.83 68.93 4.57 69.75 5.55 69.75
								 C6.52 69.75 7.28 68.93 7.28 67.87 L7.28 63.15 L10.95 63.15 L10.95 67.87 C10.95 68.93 11.7 69.75
								 12.68 69.75 C13.65 69.75 14.4 68.93 14.4 67.87 L14.4 63.15 L16.13 63.15 C17.55 63.15 18.23 61.88
								 18.23 60.3 L18.23 46.28 L0 46.28 Z" class="st2"/>
				</g>
				<g id="shape80-16" v:mID="80" v:groupContext="shape" v:layerMember="0" transform="translate(7.05,-27.825)">
					<title>Sheet.80</title>
					<path d="M19.95 69.75 C19.95 69.75 19.95 69.6 19.95 69.45 C19.95 64.5 15.52 60.53 9.98 60.53 C4.5 60.53 0 64.5
								 0 69.45 C0 69.6 0 69.75 0 69.75 L19.95 69.75 Z" class="st2"/>
				</g>
				<g id="shape81-18" v:mID="81" v:groupContext="shape" v:layerMember="0" transform="translate(9.9,-32.925)">
					<title>Sheet.81</title>
					<path d="M3.75 68.92 C3.9 69.15 3.82 69.45 3.6 69.6 C3.37 69.75 3.07 69.67 2.92 69.45 L0.15 64.5 C-0 64.27 0.08
								 63.97 0.3 63.82 C0.52 63.67 0.82 63.75 0.97 63.97 L3.75 68.92 Z" class="st2"/>
				</g>
				<g id="shape82-20" v:mID="82" v:groupContext="shape" v:layerMember="0" transform="translate(20.325,-32.925)">
					<title>Sheet.82</title>
					<path d="M0.15 68.92 C-0 69.15 0.08 69.45 0.3 69.6 C0.52 69.75 0.82 69.67 0.98 69.45 L3.75 64.5 C3.9 64.27 3.82
								 63.97 3.6 63.82 C3.37 63.67 3.07 63.75 2.92 63.97 L0.15 68.92 Z" class="st2"/>
				</g>
				<g id="shape83-22" v:mID="83" v:groupContext="shape" v:layerMember="0" transform="translate(11.625,-31.5)">
					<title>Sheet.83</title>
					<path d="M1.8 68.85 C1.8 69.37 1.42 69.75 0.9 69.75 C0.37 69.75 0 69.37 0 68.85 C0 68.32 0.37 67.95 0.9 67.95
								 C1.35 67.95 1.8 68.32 1.8 68.85 Z" class="st1"/>
				</g>
				<g id="shape84-24" v:mID="84" v:groupContext="shape" v:layerMember="0" transform="translate(20.775,-31.5)">
					<title>Sheet.84</title>
					<path d="M1.8 68.85 C1.8 68.32 1.42 67.95 0.9 67.95 C0.37 67.95 0 68.32 0 68.85 C0 69.37 0.37 69.75 0.9 69.75
								 C1.42 69.75 1.8 69.37 1.8 68.85 Z" class="st1"/>
				</g>
			</g>
		</g>
	</g>
</svg>
