<?xml version="1.0" encoding="UTF-8" standalone="no"?>
<!DOCTYPE svg PUBLIC "-//W3C//DTD SVG 1.1//EN" "http://www.w3.org/Graphics/SVG/1.1/DTD/svg11.dtd">
<!-- Generated by Microsoft Visio, SVG Export Application, Hybrid.svg Page-1 -->
<svg xmlns="http://www.w3.org/2000/svg" xmlns:xlink="http://www.w3.org/1999/xlink" xmlns:ev="http://www.w3.org/2001/xml-events"
		xmlns:v="http://schemas.microsoft.com/visio/2003/SVGExtensions/" width="0.90625in" height="0.708333in"
		viewBox="0 0 65.25 51" xml:space="preserve" color-interpolation-filters="sRGB" class="st3">
	<v:documentProperties v:langID="4108" v:metric="true" v:viewMarkup="false"/>

	<style type="text/css">
	<![CDATA[
		.st1 {fill:#ffffff;stroke:none;stroke-linecap:butt;stroke-width:0.75}
		.st2 {fill:#505050;stroke:none;stroke-linecap:butt;stroke-width:0.75}
		.st3 {fill:none;fill-rule:evenodd;font-size:12px;overflow:visible;stroke-linecap:square;stroke-miterlimit:3}
	]]>
	</style>

	<g v:mID="0" v:index="1" v:groupContext="foregroundPage">
		<title>Page-1</title>
		<v:pageProperties v:drawingScale="0.0393701" v:pageScale="0.0393701" v:drawingUnits="24" v:shadowOffsetX="8.50394"
				v:shadowOffsetY="-8.50394"/>
		<v:layer v:name="symbols" v:index="0"/>
		<g id="group97-1" transform="translate(0.75,-0.75)" v:mID="97" v:groupContext="group" v:layerMember="0">
			<title>Application, Hybrid</title>
			<g id="group98-2" transform="translate(1.15907E-13,-4.5)" v:mID="98" v:groupContext="group" v:layerMember="0">
				<title>Sheet.98</title>
				<g id="shape99-3" v:mID="99" v:groupContext="shape" v:layerMember="0">
					<title>Sheet.99</title>
					<path d="M5.25 51 C2.32 51 0 48.68 0 45.75 L0 11.25 C0 8.33 2.32 6 5.25 6 L52.5 6 C55.43 6 57.75 8.33 57.75 11.25
								 L57.75 45.75 C57.75 48.68 55.43 51 52.5 51 L5.25 51 Z" class="st1"/>
				</g>
				<g id="shape100-5" v:mID="100" v:groupContext="shape" v:layerMember="0" transform="translate(2.25,-2.25)">
					<title>Sheet.100</title>
					<path d="M50.25 10.5 L3 10.5 C1.35 10.5 0 11.85 0 13.5 L0 48 C-0 49.65 1.35 51 3 51 L50.25 51 C51.9 51 53.25
								 49.65 53.25 48 L53.25 13.5 C53.25 11.85 51.9 10.5 50.25 10.5 ZM44.25 12.75 L46.5 12.75 L46.5 15
								 L44.25 15 L44.25 12.75 ZM39.75 12.75 L42 12.75 L42 15 L39.75 15 L39.75 12.75 ZM51 48 C51 48.45 50.7
								 48.75 50.25 48.75 L3 48.75 C2.55 48.75 2.25 48.45 2.25 48 L2.25 18 L51 18 L51 48 ZM51 15 L48.75
								 15 L48.75 12.75 L51 12.75 L51 15 Z" class="st2"/>
				</g>
			</g>
			<g id="group101-7" transform="translate(15.75,-2.20268E-13)" v:mID="101" v:groupContext="group" v:layerMember="0">
				<title>Sheet.101</title>
				<g id="shape102-8" v:mID="102" v:groupContext="shape" v:layerMember="0">
					<title>Sheet.102</title>
					<path d="M0 39.75 L0 34.13 L22.43 21.75 L22.43 31.58 L12.98 36.83 L22.43 41.48 L22.43 51 L0 39.75 Z"
							class="st1"/>
				</g>
				<g id="shape103-10" v:mID="103" v:groupContext="shape" v:layerMember="0" transform="translate(2.25,-3.675)">
					<title>Sheet.103</title>
					<path d="M17.93 46.5 L5.85 40.58 L17.93 33.9 L17.93 29.25 L0 39.15 L0 42 L17.93 51 L17.93 46.5 Z" class="st2"/>
				</g>
				<g id="shape104-12" v:mID="104" v:groupContext="shape" v:layerMember="0" transform="translate(25.575,0)">
					<title>Sheet.104</title>
					<path d="M0 41.48 L9.45 36.83 L0 31.58 L0 21.75 L22.43 34.13 L22.43 39.75 L0 51 L0 41.48 Z" class="st1"/>
				</g>
				<g id="shape105-14" v:mID="105" v:groupContext="shape" v:layerMember="0" transform="translate(27.825,-3.675)">
					<title>Sheet.105</title>
					<path d="M0 29.25 L0 33.9 L12.08 40.58 L0 46.5 L0 51 L17.93 42 L17.93 39.15 L0 29.25 Z" class="st2"/>
				</g>
			</g>
			<g id="shape106-16" v:mID="106" v:groupContext="shape" v:layerMember="0" transform="translate(37.5,-6)">
				<title>Sheet.106</title>
				<rect x="0" y="47.25" width="6" height="3.75" class="st1"/>
			</g>
		</g>
	</g>
</svg>
