<?xml version="1.0" encoding="UTF-8" standalone="no"?>
<!DOCTYPE svg PUBLIC "-//W3C//DTD SVG 1.1//EN" "http://www.w3.org/Graphics/SVG/1.1/DTD/svg11.dtd">
<!-- Generated by Microsoft Visio, SVG Export Attachment.svg Page-1 -->
<svg xmlns="http://www.w3.org/2000/svg" xmlns:xlink="http://www.w3.org/1999/xlink" xmlns:ev="http://www.w3.org/2001/xml-events"
		xmlns:v="http://schemas.microsoft.com/visio/2003/SVGExtensions/" width="0.625in" height="0.9375in" viewBox="0 0 45 67.5"
		xml:space="preserve" color-interpolation-filters="sRGB" class="st3">
	<v:documentProperties v:langID="4108" v:metric="true" v:viewMarkup="false"/>

	<style type="text/css">
	<![CDATA[
		.st1 {fill:#ffffff;stroke:none;stroke-linecap:butt;stroke-width:0.75}
		.st2 {fill:#505050;stroke:none;stroke-linecap:butt;stroke-width:0.75}
		.st3 {fill:none;fill-rule:evenodd;font-size:12px;overflow:visible;stroke-linecap:square;stroke-miterlimit:3}
	]]>
	</style>

	<g v:mID="0" v:index="1" v:groupContext="foregroundPage">
		<title>Page-1</title>
		<v:pageProperties v:drawingScale="0.0393701" v:pageScale="0.0393701" v:drawingUnits="24" v:shadowOffsetX="8.50394"
				v:shadowOffsetY="-8.50394"/>
		<v:layer v:name="symbols" v:index="0"/>
		<g id="group160-1" transform="translate(9,-8.625)" v:mID="160" v:groupContext="group" v:layerMember="0">
			<title>Attachment</title>
			<g id="group161-2" v:mID="161" v:groupContext="group" v:layerMember="0">
				<title>attachments40x40_1_</title>
				<g id="shape162-3" v:mID="162" v:groupContext="shape" v:layerMember="0">
					<title>Sheet.162</title>
					<path d="M13.43 67.5 C6 67.5 0 61.5 0 54.15 L0 29.4 C-0 23.33 4.8 18.38 10.72 18.37 C16.57 18.38 21.3 23.33 21.3
								 29.4 L21.3 29.62 C21.75 29.47 22.2 29.4 22.72 29.4 C25.05 29.4 26.93 31.28 26.92 33.6 L26.92 54.22
								 C26.77 61.65 20.93 67.5 13.43 67.5 Z" class="st1"/>
				</g>
				<g id="shape163-5" v:mID="163" v:groupContext="shape" v:layerMember="0" transform="translate(2.175,-2.325)">
					<title>Sheet.163</title>
					<path d="M20.47 33.98 C19.42 33.98 18.67 34.88 18.67 35.93 L18.67 56.63 C18.67 60.68 15.3 63.9 11.25 63.9 C7.2
								 63.9 3.82 60.68 3.82 56.63 L3.82 31.73 C3.82 29.1 5.92 26.78 8.55 26.78 C11.17 26.78 13.12 29.1
								 13.12 31.73 L13.12 50.85 C13.12 51.9 12.3 52.8 11.25 52.8 C10.2 52.8 9.38 51.9 9.37 50.85 L9.37
								 35.25 C9.38 34.2 8.55 33.3 7.5 33.3 C6.45 33.3 5.7 34.13 5.7 35.25 L5.7 50.78 C5.7 53.93 8.1 56.47
								 11.25 56.47 C14.4 56.47 16.8 53.93 16.8 50.78 L16.8 31.73 C16.8 27 13.2 22.95 8.47 22.95 C3.75 22.95
								 0 27 0 31.73 L0 56.4 C0 62.55 4.95 67.5 11.17 67.5 C17.32 67.5 22.27 62.62 22.35 56.47 C22.35 56.47
								 22.35 35.85 22.35 35.85 C22.42 34.88 21.6 33.98 20.47 33.98 Z" class="st2"/>
				</g>
			</g>
		</g>
	</g>
</svg>
