<?xml version="1.0" encoding="UTF-8" standalone="no"?>
<!DOCTYPE svg PUBLIC "-//W3C//DTD SVG 1.1//EN" "http://www.w3.org/Graphics/SVG/1.1/DTD/svg11.dtd">
<!-- Generated by Microsoft Visio, SVG Export Backup, Local.svg Page-1 -->
<svg xmlns="http://www.w3.org/2000/svg" xmlns:xlink="http://www.w3.org/1999/xlink" xmlns:ev="http://www.w3.org/2001/xml-events"
		xmlns:v="http://schemas.microsoft.com/visio/2003/SVGExtensions/" width="0.828125in" height="0.921875in"
		viewBox="0 0 59.625 66.375" xml:space="preserve" color-interpolation-filters="sRGB" class="st4">
	<v:documentProperties v:langID="4108" v:metric="true" v:viewMarkup="false"/>

	<style type="text/css">
	<![CDATA[
		.st1 {fill:#ffffff;stroke:none;stroke-linecap:butt;stroke-width:0.75}
		.st2 {fill:#515150;stroke:none;stroke-linecap:butt;stroke-width:0.75}
		.st3 {fill:#515050;stroke:none;stroke-linecap:butt;stroke-width:0.75}
		.st4 {fill:none;fill-rule:evenodd;font-size:12px;overflow:visible;stroke-linecap:square;stroke-miterlimit:3}
	]]>
	</style>

	<g v:mID="0" v:index="1" v:groupContext="foregroundPage">
		<title>Page-1</title>
		<v:pageProperties v:drawingScale="0.0393701" v:pageScale="0.0393701" v:drawingUnits="24" v:shadowOffsetX="8.50394"
				v:shadowOffsetY="-8.50394"/>
		<v:layer v:name="symbols" v:index="0"/>
		<g id="group164-1" transform="translate(3.70312,-8.8125)" v:mID="164" v:groupContext="group" v:layerMember="0">
			<title>Backup, Local</title>
			<g id="group165-2" v:mID="165" v:groupContext="group" v:layerMember="0">
				<title>Sheet.165</title>
				<g id="group166-3" transform="translate(13.5,-15.6)" v:mID="166" v:groupContext="group" v:layerMember="0">
					<title>Sheet.166</title>
					<g id="shape167-4" v:mID="167" v:groupContext="shape" v:layerMember="0">
						<title>Sheet.167</title>
						<path d="M22.35 44.47 L17.25 49.57 L17.25 33.22 L8.25 33.22 L8.25 49.57 L3.15 44.47 L0 44.47 L0 53.7 L12.75
									 66.37 L25.5 53.7 L25.5 44.47 L22.35 44.47 Z" class="st1"/>
					</g>
					<g id="shape168-6" v:mID="168" v:groupContext="shape" v:layerMember="0" transform="translate(2.25,-3.15)">
						<title>Sheet.168</title>
						<path d="M8.25 58.12 L0 49.87 L0 55.95 L10.5 66.37 L21 55.95 L21 49.87 L12.75 58.12 L12.75 38.62 L8.25 38.62
									 L8.25 58.12 Z" class="st2"/>
					</g>
				</g>
				<g id="shape169-8" v:mID="169" v:groupContext="shape" v:layerMember="0">
					<title>Sheet.169</title>
					<path d="M0 66.37 L0 53.25 C0 50.32 2.7 47.62 5.7 47.62 L46.72 47.62 C49.73 47.62 52.5 50.32 52.5 53.25 L52.5
								 66.37 L0 66.37 Z" class="st1"/>
				</g>
				<g id="shape170-10" v:mID="170" v:groupContext="shape" v:layerMember="0" transform="translate(2.25,-2.25)">
					<title>Sheet.170</title>
					<path d="M36.45 52.12 L3.52 52.12 C1.8 52.12 0.08 53.85 0.07 55.5 L0 66.37 L48 66.37 L48 55.5 C48 53.77 46.27
								 52.12 44.55 52.12 L36.45 52.12 ZM43.35 58.05 C42.37 58.05 41.62 57.3 41.62 56.32 C41.62 55.42 42.37
								 54.6 43.35 54.6 C44.32 54.6 45.07 55.35 45.07 56.32 C45.15 57.3 44.32 58.05 43.35 58.05 Z"
							class="st3"/>
				</g>
			</g>
		</g>
	</g>
</svg>
