<?xml version="1.0" encoding="UTF-8" standalone="no"?>
<!DOCTYPE svg PUBLIC "-//W3C//DTD SVG 1.1//EN" "http://www.w3.org/Graphics/SVG/1.1/DTD/svg11.dtd">
<!-- Generated by Microsoft Visio, SVG Export Backup, Online.svg Page-1 -->
<svg xmlns="http://www.w3.org/2000/svg" xmlns:xlink="http://www.w3.org/1999/xlink" xmlns:ev="http://www.w3.org/2001/xml-events"
		xmlns:v="http://schemas.microsoft.com/visio/2003/SVGExtensions/" width="1.01172in" height="1.04687in"
		viewBox="0 0 72.8438 75.375" xml:space="preserve" color-interpolation-filters="sRGB" class="st3">
	<v:documentProperties v:langID="4108" v:metric="true" v:viewMarkup="false"/>

	<style type="text/css">
	<![CDATA[
		.st1 {fill:#ffffff;stroke:none;stroke-linecap:butt;stroke-width:0.75}
		.st2 {fill:#515050;stroke:none;stroke-linecap:butt;stroke-width:0.75}
		.st3 {fill:none;fill-rule:evenodd;font-size:12px;overflow:visible;stroke-linecap:square;stroke-miterlimit:3}
	]]>
	</style>

	<g v:mID="0" v:index="1" v:groupContext="foregroundPage">
		<title>Page-1</title>
		<v:pageProperties v:drawingScale="0.0393701" v:pageScale="0.0393701" v:drawingUnits="24" v:shadowOffsetX="8.50394"
				v:shadowOffsetY="-8.50394"/>
		<v:layer v:name="symbols" v:index="0"/>
		<g id="group171-1" transform="translate(7.21875,-5.85)" v:mID="171" v:groupContext="group" v:layerMember="0">
			<title>Backup, Online</title>
			<g id="group172-2" v:mID="172" v:groupContext="group" v:layerMember="0">
				<title>Sheet.172</title>
				<g id="shape173-3" v:mID="173" v:groupContext="shape" v:layerMember="0" transform="translate(17.25,3.12639E-13)">
					<title>Sheet.173</title>
					<path d="M22.35 66.45 L17.25 61.42 L17.25 75.37 L8.25 75.37 L8.25 61.42 L3.15 66.45 L0 66.45 L0 57.22 L12.75
								 44.55 L25.5 57.22 L25.5 66.45 L22.35 66.45 Z" class="st1"/>
				</g>
				<g id="group174-5" transform="translate(0,-27)" v:mID="174" v:groupContext="group" v:layerMember="0">
					<title>Sheet.174</title>
					<g id="shape175-6" v:mID="175" v:groupContext="shape" v:layerMember="0">
						<title>Sheet.175</title>
						<path d="M11.03 75.37 C4.95 75.37 -0 70.2 0 63.82 C0 57.6 4.65 52.57 10.42 52.27 C12.23 50.17 14.62 48.97
									 17.33 48.75 C18.6 42.97 23.55 38.7 29.33 38.7 C33.15 38.7 36.67 40.57 39 43.72 C40.05 43.42
									 41.1 43.27 42.15 43.27 C48.75 43.27 54.15 48.97 54.15 55.87 C56.85 57.9 58.42 61.12 58.42 64.57
									 C58.42 69.52 55.27 73.8 50.7 75 L50.62 75 L49.13 75.3 L11.03 75.3 L11.03 75.37 Z" class="st1"/>
					</g>
					<g id="shape176-8" v:mID="176" v:groupContext="shape" v:layerMember="0" transform="translate(2.25,-2.25)">
						<title>Sheet.176</title>
						<path d="M49.65 59.32 C49.72 58.95 49.72 58.57 49.72 58.2 C49.72 52.42 45.38 47.77 39.98 47.77 C38.55 47.77
									 37.2 48.07 35.93 48.75 C34.05 45.3 30.75 43.2 27.08 43.2 C21.68 43.2 17.32 47.7 16.95 53.32
									 C16.5 53.25 16.12 53.17 15.68 53.17 C13.13 53.17 10.72 54.52 9.22 56.7 C9 56.7 8.85 56.7 8.62
									 56.7 C3.9 56.77 0 60.97 0 66.07 C0 71.17 3.9 75.37 8.77 75.37 L46.73 75.37 L47.92 75.15 C51.53
									 74.17 54 70.8 54 66.9 C54 63.67 52.28 60.75 49.65 59.32 ZM47.4 72.97 L46.5 73.12 L8.77 73.12
									 C5.17 73.12 2.25 69.97 2.25 66.07 C2.25 62.17 5.1 59.02 8.7 59.02 C8.85 59.02 9 59.02 9.15 59.02
									 L10.43 59.1 L11.17 57.97 C12.23 56.32 13.95 55.42 15.75 55.42 C16.05 55.42 16.35 55.42 16.65
									 55.5 L19.13 55.95 L19.27 53.4 C19.5 48.9 22.95 45.37 27.15 45.37 C29.93 45.37 32.55 47.02 33.9
									 49.72 L34.95 51.67 L36.9 50.7 C37.88 50.25 38.92 49.95 39.98 49.95 C44.1 49.95 47.48 53.62 47.48
									 58.12 C47.48 58.42 47.48 58.72 47.4 59.02 L47.25 60.52 L48.6 61.27 C50.55 62.32 51.75 64.5 51.75
									 66.82 C51.75 69.75 49.95 72.22 47.4 72.97 Z" class="st2"/>
					</g>
				</g>
				<g id="shape177-10" v:mID="177" v:groupContext="shape" v:layerMember="0" transform="translate(19.5,-2.25)">
					<title>Sheet.177</title>
					<path d="M8.25 58.2 L0 66.45 L0 60.45 L10.5 49.95 L21 60.45 L21 66.45 L12.75 58.2 L12.75 75.37 L8.25 75.37 L8.25
								 58.2 Z" class="st2"/>
				</g>
			</g>
		</g>
	</g>
</svg>
