<?xml version="1.0" encoding="UTF-8" standalone="no"?>
<!DOCTYPE svg PUBLIC "-//W3C//DTD SVG 1.1//EN" "http://www.w3.org/Graphics/SVG/1.1/DTD/svg11.dtd">
<!-- Generated by Microsoft Visio, SVG Export Bandwidth.svg Page-1 -->
<svg xmlns="http://www.w3.org/2000/svg" xmlns:xlink="http://www.w3.org/1999/xlink" xmlns:ev="http://www.w3.org/2001/xml-events"
		xmlns:v="http://schemas.microsoft.com/visio/2003/SVGExtensions/" width="0.9375in" height="0.9375in" viewBox="0 0 67.5 67.5"
		xml:space="preserve" color-interpolation-filters="sRGB" class="st4">
	<v:documentProperties v:langID="4108" v:metric="true" v:viewMarkup="false"/>

	<style type="text/css">
	<![CDATA[
		.st1 {fill:#ffffff;stroke:none;stroke-linecap:butt;stroke-width:0.75}
		.st2 {fill:#505150;stroke:none;stroke-linecap:butt;stroke-width:0.75}
		.st3 {fill:#505050;stroke:none;stroke-linecap:butt;stroke-width:0.75}
		.st4 {fill:none;fill-rule:evenodd;font-size:12px;overflow:visible;stroke-linecap:square;stroke-miterlimit:3}
	]]>
	</style>

	<g v:mID="0" v:index="1" v:groupContext="foregroundPage">
		<title>Page-1</title>
		<v:pageProperties v:drawingScale="0.0393701" v:pageScale="0.0393701" v:drawingUnits="24" v:shadowOffsetX="8.50394"
				v:shadowOffsetY="-8.50394"/>
		<v:layer v:name="symbols" v:index="0"/>
		<g id="group178-1" transform="translate(9,-8.4375)" v:mID="178" v:groupContext="group" v:layerMember="0">
			<title>Bandwidth</title>
			<g id="group179-2" v:mID="179" v:groupContext="group" v:layerMember="0">
				<title>Sheet.179</title>
				<g id="group180-3" v:mID="180" v:groupContext="group" v:layerMember="0">
					<title>Sheet.180</title>
					<g id="shape181-4" v:mID="181" v:groupContext="shape" v:layerMember="0">
						<title>Sheet.181</title>
						<path d="M24.75 67.5 C11.1 67.5 0 56.4 0 42.75 C0 29.1 11.1 18 24.75 18 C38.4 18 49.5 29.1 49.5 42.75 C49.5
									 56.4 38.4 67.5 24.75 67.5 Z" class="st1"/>
					</g>
					<g id="shape182-6" v:mID="182" v:groupContext="shape" v:layerMember="0" transform="translate(2.25,-2.25)">
						<title>Sheet.182</title>
						<path d="M22.5 22.5 C10.05 22.5 0 32.55 0 45 C0 57.45 10.05 67.5 22.5 67.5 C34.95 67.5 45 57.45 45 45 C45
									 32.55 34.95 22.5 22.5 22.5 ZM22.5 64.5 C11.78 64.5 3 55.72 3 45 C3 34.28 11.78 25.5 22.5 25.5
									 C33.22 25.5 42 34.28 42 45 C42 55.8 33.22 64.5 22.5 64.5 Z" class="st2"/>
					</g>
				</g>
				<g id="shape183-8" v:mID="183" v:groupContext="shape" v:layerMember="0" transform="translate(21.45,-21.3)">
					<title>Sheet.183</title>
					<path d="M11.18 55.8 L3.23 60.75 C1.42 60.82 0 62.25 0 64.12 C-0 66 1.5 67.5 3.38 67.5 C5.18 67.5 6.6 66.08 6.68
								 64.28 L11.55 56.17 C11.7 55.95 11.4 55.65 11.18 55.8 Z" class="st3"/>
				</g>
				<g id="group184-10" transform="translate(3,-23.25)" v:mID="184" v:groupContext="group" v:layerMember="0">
					<title>Sheet.184</title>
					<g id="shape185-11" v:mID="185" v:groupContext="shape" v:layerMember="0" transform="translate(20.25,-14.7)">
						<title>Sheet.185</title>
						<path d="M1.5 67.42 C2.02 67.42 2.47 67.42 3 67.5 L3 58.95 L0 58.95 L0 67.5 C0.52 67.42 0.97 67.42 1.5 67.42
									 Z" class="st2"/>
					</g>
					<g id="shape186-13" v:mID="186" v:groupContext="shape" v:layerMember="0" transform="translate(5.325,-9.825)">
						<title>Sheet.186</title>
						<path d="M8.18 65.4 L2.1 59.32 L0 61.42 L6.08 67.5 C6.68 66.75 7.43 66.08 8.18 65.4 Z" class="st2"/>
					</g>
					<g id="shape187-15" v:mID="187" v:groupContext="shape" v:layerMember="0" transform="translate(30,-9.825)">
						<title>Sheet.187</title>
						<path d="M2.1 67.5 L8.18 61.42 L6.08 59.32 L0 65.4 C0.75 66 1.5 66.75 2.1 67.5 Z" class="st2"/>
					</g>
					<g id="shape188-17" v:mID="188" v:groupContext="shape" v:layerMember="0" transform="translate(34.95,0)">
						<title>Sheet.188</title>
						<path d="M0 64.5 C0.07 65.02 0.07 65.47 0.07 66 C0.07 66.52 0.07 66.97 0 67.5 L8.55 67.5 L8.55 64.5 L0 64.5
									 Z" class="st2"/>
					</g>
					<g id="shape189-19" v:mID="189" v:groupContext="shape" v:layerMember="0">
						<title>Sheet.189</title>
						<path d="M8.47 66 C8.48 65.47 8.48 65.02 8.55 64.5 L0 64.5 L0 67.5 L8.55 67.5 C8.48 66.97 8.48 66.52 8.47
									 66 Z" class="st2"/>
					</g>
				</g>
				<g id="shape190-21" v:mID="190" v:groupContext="shape" v:layerMember="0" transform="translate(19.5,-12.75)">
					<title>Sheet.190</title>
					<rect x="0" y="64.5" width="10.5" height="3" class="st3"/>
				</g>
			</g>
		</g>
	</g>
</svg>
