<?xml version="1.0" encoding="UTF-8" standalone="no"?>
<!DOCTYPE svg PUBLIC "-//W3C//DTD SVG 1.1//EN" "http://www.w3.org/Graphics/SVG/1.1/DTD/svg11.dtd">
<!-- Generated by Microsoft Visio, SVG Export Bandwidth Calculator.svg Page-1 -->
<svg xmlns="http://www.w3.org/2000/svg" xmlns:xlink="http://www.w3.org/1999/xlink" xmlns:ev="http://www.w3.org/2001/xml-events"
		xmlns:v="http://schemas.microsoft.com/visio/2003/SVGExtensions/" width="0.939844in" height="0.96875in"
		viewBox="0 0 67.6688 69.75" xml:space="preserve" color-interpolation-filters="sRGB" class="st4">
	<v:documentProperties v:langID="4108" v:metric="true" v:viewMarkup="false"/>

	<style type="text/css">
	<![CDATA[
		.st1 {fill:#ffffff;stroke:none;stroke-linecap:butt;stroke-width:0.75}
		.st2 {fill:#505050;stroke:none;stroke-linecap:butt;stroke-width:0.75}
		.st3 {fill:#505150;stroke:none;stroke-linecap:butt;stroke-width:0.75}
		.st4 {fill:none;fill-rule:evenodd;font-size:12px;overflow:visible;stroke-linecap:square;stroke-miterlimit:3}
	]]>
	</style>

	<g v:mID="0" v:index="1" v:groupContext="foregroundPage">
		<title>Page-1</title>
		<v:pageProperties v:drawingScale="0.0393701" v:pageScale="0.0393701" v:drawingUnits="24" v:shadowOffsetX="8.50394"
				v:shadowOffsetY="-8.50394"/>
		<v:layer v:name="symbols" v:index="0"/>
		<g id="group191-1" transform="translate(9.91875,-4.6875)" v:mID="191" v:groupContext="group" v:layerMember="0">
			<title>Bandwidth Calculator</title>
			<g id="group192-2" v:mID="192" v:groupContext="group" v:layerMember="0">
				<title>Sheet.192</title>
				<g id="group193-3" transform="translate(-2.3781E-13,-6.75)" v:mID="193" v:groupContext="group" v:layerMember="0">
					<title>Sheet.193</title>
					<g id="shape194-4" v:mID="194" v:groupContext="shape" v:layerMember="0">
						<title>Sheet.194</title>
						<path d="M6 69.75 C2.7 69.75 0 67.05 0 63.75 L0 25.5 C-0 22.2 2.7 19.5 6 19.5 L30 19.5 C33.3 19.5 36 22.2
									 36 25.5 L36 63.75 C36 67.05 33.3 69.75 30 69.75 L6 69.75 Z" class="st1"/>
					</g>
					<g id="shape195-6" v:mID="195" v:groupContext="shape" v:layerMember="0" transform="translate(2.25,-2.25)">
						<title>Sheet.195</title>
						<path d="M27.75 69.75 L3.75 69.75 C1.65 69.75 0 68.1 0 66 L0 27.75 C-0 25.65 1.65 24 3.75 24 L27.75 24 C29.85
									 24 31.5 25.65 31.5 27.75 L31.5 66 C31.5 68.1 29.85 69.75 27.75 69.75 Z" class="st2"/>
					</g>
					<g id="shape196-8" v:mID="196" v:groupContext="shape" v:layerMember="0" transform="translate(6,-34.5)">
						<title>Sheet.196</title>
						<path d="M22.5 69.75 L1.5 69.75 C0.68 69.75 0 69.07 0 68.25 L0 61.5 C-0 60.67 0.68 60 1.5 60 L22.5 60 C23.33
									 60 24 60.67 24 61.5 L24 68.25 C24 69.07 23.33 69.75 22.5 69.75 Z" class="st1"/>
					</g>
					<g id="shape197-10" v:mID="197" v:groupContext="shape" v:layerMember="0" transform="translate(7.5,-9)">
						<title>Sheet.197</title>
						<path d="M3.75 54.75 L0.75 54.75 C0.3 54.75 0 54.45 0 54 L0 51 C-0 50.55 0.3 50.25 0.75 50.25 L3.75 50.25
									 C4.2 50.25 4.5 50.55 4.5 51 L4.5 54 C4.5 54.45 4.2 54.75 3.75 54.75 ZM12.75 54 L12.75 51 C12.75
									 50.55 12.45 50.25 12 50.25 L9 50.25 C8.55 50.25 8.25 50.55 8.25 51 L8.25 54 C8.25 54.45 8.55
									 54.75 9 54.75 L12 54.75 C12.45 54.75 12.75 54.45 12.75 54 ZM21 54 L21 51 C21 50.55 20.7 50.25
									 20.25 50.25 L17.25 50.25 C16.8 50.25 16.5 50.55 16.5 51 L16.5 54 C16.5 54.45 16.8 54.75 17.25
									 54.75 L20.25 54.75 C20.7 54.75 21 54.45 21 54 ZM4.5 61.5 L4.5 58.5 C4.5 58.05 4.2 57.75 3.75
									 57.75 L0.75 57.75 C0.3 57.75 0 58.05 0 58.5 L0 61.5 C-0 61.95 0.3 62.25 0.75 62.25 L3.75 62.25
									 C4.2 62.25 4.5 61.95 4.5 61.5 ZM12.75 61.5 L12.75 58.5 C12.75 58.05 12.45 57.75 12 57.75 L9
									 57.75 C8.55 57.75 8.25 58.05 8.25 58.5 L8.25 61.5 C8.25 61.95 8.55 62.25 9 62.25 L12 62.25 C12.45
									 62.25 12.75 61.95 12.75 61.5 ZM21 61.5 L21 58.5 C21 58.05 20.7 57.75 20.25 57.75 L17.25 57.75
									 C16.8 57.75 16.5 58.05 16.5 58.5 L16.5 61.5 C16.5 61.95 16.8 62.25 17.25 62.25 L20.25 62.25
									 C20.7 62.25 21 61.95 21 61.5 ZM4.5 69 L4.5 66 C4.5 65.55 4.2 65.25 3.75 65.25 L0.75 65.25 C0.3
									 65.25 0 65.55 0 66 L0 69 C-0 69.45 0.3 69.75 0.75 69.75 L3.75 69.75 C4.2 69.75 4.5 69.45 4.5
									 69 ZM12.75 69 L12.75 66 C12.75 65.55 12.45 65.25 12 65.25 L9 65.25 C8.55 65.25 8.25 65.55 8.25
									 66 L8.25 69 C8.25 69.45 8.55 69.75 9 69.75 L12 69.75 C12.45 69.75 12.75 69.45 12.75 69 ZM21
									 69 L21 66 C21 65.55 20.7 65.25 20.25 65.25 L17.25 65.25 C16.8 65.25 16.5 65.55 16.5 66 L16.5
									 69 C16.5 69.45 16.8 69.75 17.25 69.75 L20.25 69.75 C20.7 69.75 21 69.45 21 69 Z" class="st1"/>
					</g>
				</g>
				<g id="group198-12" transform="translate(19.5,-1.56319E-13)" v:mID="198" v:groupContext="group" v:layerMember="0">
					<title>Sheet.198</title>
					<g id="group199-13" v:mID="199" v:groupContext="group" v:layerMember="0">
						<title>Sheet.199</title>
						<g id="shape200-14" v:mID="200" v:groupContext="shape" v:layerMember="0">
							<title>Sheet.200</title>
							<path d="M16.88 69.75 C7.57 69.75 0 62.18 0 52.88 C-0 43.58 7.57 36 16.88 36 C26.18 36 33.75 43.58 33.75
										 52.88 C33.75 62.18 26.18 69.75 16.88 69.75 Z" class="st1"/>
						</g>
						<g id="shape201-16" v:mID="201" v:groupContext="shape" v:layerMember="0" transform="translate(2.25,-2.25)">
							<title>Sheet.201</title>
							<path d="M14.63 40.5 C6.52 40.5 0 47.02 0 55.13 C0 63.23 6.52 69.75 14.63 69.75 C22.73 69.75 29.25 63.23
										 29.25 55.13 C29.25 47.02 22.73 40.5 14.63 40.5 ZM14.63 67.8 C7.65 67.8 1.95 62.1 1.95 55.13
										 C1.95 48.15 7.65 42.45 14.63 42.45 C21.6 42.45 27.3 48.15 27.3 55.13 C27.3 62.1 21.6 67.8
										 14.63 67.8 Z" class="st3"/>
						</g>
					</g>
					<g id="shape202-18" v:mID="202" v:groupContext="shape" v:layerMember="0" transform="translate(14.7,-14.625)">
						<title>Sheet.202</title>
						<path d="M7.28 62.18 L2.1 65.4 C0.9 65.4 0 66.37 0 67.57 C0 68.78 0.98 69.75 2.18 69.75 C3.38 69.75 4.28
									 68.85 4.35 67.65 L7.58 62.48 C7.65 62.25 7.5 62.03 7.28 62.18 Z" class="st2"/>
					</g>
					<g id="group203-20" transform="translate(2.775,-15.9)" v:mID="203" v:groupContext="group" v:layerMember="0">
						<title>Sheet.203</title>
						<g id="shape204-21" v:mID="204" v:groupContext="shape" v:layerMember="0"
								transform="translate(13.125,-9.525)">
							<title>Sheet.204</title>
							<path d="M0.98 69.67 C1.28 69.67 1.65 69.67 1.95 69.75 L1.95 64.2 L0 64.2 L0 69.75 C0.38 69.67 0.68 69.67
										 0.98 69.67 Z" class="st3"/>
						</g>
						<g id="shape205-23" v:mID="205" v:groupContext="shape" v:layerMember="0" transform="translate(3.45,-6.375)">
							<title>Sheet.205</title>
							<path d="M5.32 68.4 L1.35 64.43 L0 65.78 L3.97 69.75 C4.35 69.22 4.8 68.77 5.32 68.4 Z" class="st3"/>
						</g>
						<g id="shape206-25" v:mID="206" v:groupContext="shape" v:layerMember="0" transform="translate(19.5,-6.375)">
							<title>Sheet.206</title>
							<path d="M1.35 69.75 L5.32 65.78 L3.97 64.43 L0 68.4 C0.45 68.77 0.98 69.22 1.35 69.75 Z" class="st3"/>
						</g>
						<g id="shape207-27" v:mID="207" v:groupContext="shape" v:layerMember="0" transform="translate(22.725,0)">
							<title>Sheet.207</title>
							<path d="M0 67.8 C0 68.1 0.07 68.47 0.07 68.77 C0.07 69.07 0.07 69.45 0 69.75 L5.55 69.75 L5.55 67.8
										 L0 67.8 Z" class="st3"/>
						</g>
						<g id="shape208-29" v:mID="208" v:groupContext="shape" v:layerMember="0">
							<title>Sheet.208</title>
							<path d="M5.47 68.77 C5.48 68.47 5.48 68.1 5.55 67.8 L0 67.8 L0 69.75 L5.55 69.75 C5.55 69.45 5.48 69.07
										 5.47 68.77 Z" class="st3"/>
						</g>
					</g>
					<g id="shape209-31" v:mID="209" v:groupContext="shape" v:layerMember="0" transform="translate(13.5,-9.075)">
						<title>Sheet.209</title>
						<rect x="0" y="67.8" width="6.825" height="1.95" class="st2"/>
					</g>
				</g>
			</g>
		</g>
	</g>
</svg>
