<?xml version="1.0" encoding="UTF-8" standalone="no"?>
<!DOCTYPE svg PUBLIC "-//W3C//DTD SVG 1.1//EN" "http://www.w3.org/Graphics/SVG/1.1/DTD/svg11.dtd">
<!-- Generated by Microsoft Visio, SVG Export Best Practices.svg Page-1 -->
<svg xmlns="http://www.w3.org/2000/svg" xmlns:xlink="http://www.w3.org/1999/xlink" xmlns:ev="http://www.w3.org/2001/xml-events"
		xmlns:v="http://schemas.microsoft.com/visio/2003/SVGExtensions/" width="1.01172in" height="1.01563in"
		viewBox="0 0 72.8438 73.125" xml:space="preserve" color-interpolation-filters="sRGB" class="st3">
	<v:documentProperties v:langID="4108" v:metric="true" v:viewMarkup="false"/>

	<style type="text/css">
	<![CDATA[
		.st1 {fill:#ffffff;stroke:none;stroke-linecap:butt;stroke-width:0.75}
		.st2 {fill:#505050;stroke:none;stroke-linecap:butt;stroke-width:0.75}
		.st3 {fill:none;fill-rule:evenodd;font-size:12px;overflow:visible;stroke-linecap:square;stroke-miterlimit:3}
	]]>
	</style>

	<g v:mID="0" v:index="1" v:groupContext="foregroundPage">
		<title>Page-1</title>
		<v:pageProperties v:drawingScale="0.0393701" v:pageScale="0.0393701" v:drawingUnits="24" v:shadowOffsetX="8.50394"
				v:shadowOffsetY="-8.50394"/>
		<v:layer v:name="symbols" v:index="0"/>
		<g id="group210-1" transform="translate(7.74375,-8.4)" v:mID="210" v:groupContext="group" v:layerMember="0">
			<title>Best Practices</title>
			<g id="group211-2" v:mID="211" v:groupContext="group" v:layerMember="0">
				<title>Sheet.211</title>
				<g id="shape212-3" v:mID="212" v:groupContext="shape" v:layerMember="0">
					<title>Sheet.212</title>
					<path d="M28.65 73.12 C27.15 73.12 25.65 72.6 24.52 71.55 L22.72 69.9 C22.43 69.6 22.05 69.45 21.6 69.45 C21.45
								 69.45 21.38 69.45 21.22 69.45 L18.83 69.97 C18.37 70.05 18 70.12 17.55 70.12 C14.85 70.12 12.52
								 68.4 11.7 65.85 L10.95 63.53 C10.8 63 10.43 62.62 9.9 62.47 L7.58 61.72 C4.57 60.75 2.77 57.67 3.45
								 54.6 L3.98 52.2 C4.05 51.67 3.97 51.15 3.6 50.77 L2.1 49.05 C0 46.73 -0 43.2 2.1 40.8 L3.75 39 C4.12
								 38.63 4.28 38.1 4.12 37.57 L3.6 35.17 C2.92 32.1 4.73 29.02 7.73 28.05 L10.05 27.3 C10.58 27.15
								 10.95 26.77 11.1 26.25 L11.85 23.93 C12.68 21.38 15 19.65 17.7 19.65 C18.15 19.65 18.6 19.73 18.98
								 19.8 L21.37 20.33 C21.45 20.32 21.6 20.32 21.75 20.33 C22.12 20.32 22.58 20.17 22.88 19.88 L24.67
								 18.23 C25.72 17.33 27.15 16.8 28.65 16.8 C30.15 16.8 31.65 17.33 32.77 18.37 L34.57 20.02 C34.87
								 20.32 35.25 20.47 35.7 20.48 C35.85 20.47 35.92 20.47 36.07 20.48 L38.47 19.95 C38.93 19.88 39.3
								 19.8 39.75 19.8 C42.45 19.8 44.77 21.53 45.6 24.07 L46.35 26.4 C46.5 26.92 46.87 27.3 47.4 27.45
								 L49.72 28.2 C52.72 29.17 54.53 32.25 53.85 35.32 L53.32 37.73 C53.25 38.25 53.33 38.77 53.7 39.15
								 L55.35 40.95 C57.45 43.27 57.45 46.8 55.35 49.2 L53.7 51 C53.33 51.37 53.17 51.9 53.32 52.42 L53.85
								 54.82 C54.53 57.9 52.72 60.98 49.72 61.95 L47.4 62.7 C46.87 62.85 46.5 63.23 46.35 63.75 L45.6 66.07
								 C44.77 68.63 42.45 70.35 39.75 70.35 C39.3 70.35 38.85 70.28 38.47 70.2 L36.08 69.67 C36 69.67 35.85
								 69.67 35.7 69.67 C35.33 69.67 34.87 69.83 34.58 70.12 L32.77 71.48 C31.65 72.53 30.22 73.12 28.65
								 73.12 Z" class="st1"/>
				</g>
				<g id="shape213-5" v:mID="213" v:groupContext="shape" v:layerMember="0" transform="translate(2.4,-1.95)">
					<title>Sheet.213</title>
					<path d="M28.88 21.97 L30.68 23.62 C31.57 24.45 32.85 24.82 34.05 24.52 L36.45 24 C38.4 23.55 40.35 24.67 40.95
								 26.62 L41.7 28.95 C42.07 30.15 42.98 31.05 44.18 31.42 L46.5 32.17 C48.37 32.77 49.5 34.72 49.13
								 36.67 L48.6 39.07 C48.37 40.27 48.68 41.55 49.5 42.45 L51.15 44.25 C52.5 45.75 52.5 48 51.15 49.42
								 L49.5 51.22 C48.68 52.12 48.3 53.4 48.6 54.6 L49.13 57 C49.57 58.95 48.45 60.9 46.5 61.5 L44.18
								 62.25 C42.98 62.63 42.08 63.52 41.7 64.72 L40.95 67.05 C40.35 68.92 38.4 70.05 36.45 69.67 L34.13
								 69.22 C32.93 69 31.65 69.3 30.75 70.12 L28.88 71.77 C27.37 73.12 25.13 73.12 23.7 71.77 L21.9 70.12
								 C21 69.3 19.73 68.92 18.53 69.22 L16.05 69.75 C14.1 70.2 12.15 69.07 11.55 67.12 L10.8 64.8 C10.43
								 63.6 9.52 62.7 8.33 62.32 L6 61.57 C4.13 60.98 3 59.02 3.37 57.07 L3.9 54.67 C4.13 53.48 3.83 52.2
								 3 51.3 L1.35 49.5 C-0 48 -0 45.75 1.35 44.32 L3 42.52 C3.83 41.63 4.2 40.35 3.9 39.15 L3.38 36.67
								 C2.93 34.72 4.05 32.77 6 32.17 L8.33 31.42 C9.52 31.05 10.43 30.15 10.8 28.95 L11.55 26.62 C12.15
								 24.75 14.1 23.62 16.05 24 L18.45 24.52 C19.65 24.75 20.93 24.45 21.82 23.62 L23.63 21.97 C25.13
								 20.7 27.37 20.7 28.88 21.97 Z" class="st2"/>
				</g>
				<g id="shape214-7" v:mID="214" v:groupContext="shape" v:layerMember="0" transform="translate(10.875,-10.425)">
					<title>Sheet.214</title>
					<path d="M17.78 73.12 C7.95 73.12 0 65.18 0 55.35 C0 45.52 7.95 37.58 17.78 37.57 C27.6 37.58 35.55 45.52 35.55
								 55.35 C35.55 65.18 27.6 73.12 17.78 73.12 Z" class="st1"/>
				</g>
				<g id="shape215-9" v:mID="215" v:groupContext="shape" v:layerMember="0" transform="translate(13.125,-12.675)">
					<title>Sheet.215</title>
					<path d="M15.52 73.12 C6.97 73.12 0 66.15 0 57.6 C0 49.05 6.97 42.08 15.52 42.08 C24.08 42.08 31.05 49.05 31.05
								 57.6 C31.05 66.15 24.08 73.12 15.52 73.12 Z" class="st2"/>
				</g>
				<g id="shape216-11" v:mID="216" v:groupContext="shape" v:layerMember="0" transform="translate(19.5,-19.875)">
					<title>Sheet.216</title>
					<path d="M18.15 58.95 L7.05 73.12 L0.22 65.4 C-0 65.17 0.07 64.87 0.22 64.72 L2.02 63.07 C2.25 62.92 2.55 62.92
								 2.7 63.15 L6.97 67.8 L15.37 56.7 C15.52 56.48 15.9 56.4 16.12 56.62 L18 58.2 C18.22 58.35 18.3 58.73
								 18.15 58.95 Z" class="st1"/>
				</g>
			</g>
		</g>
	</g>
</svg>
