<?xml version="1.0" encoding="UTF-8" standalone="no"?>
<!DOCTYPE svg PUBLIC "-//W3C//DTD SVG 1.1//EN" "http://www.w3.org/Graphics/SVG/1.1/DTD/svg11.dtd">
<!-- Generated by Microsoft Visio, SVG Export Book Journal.svg Page-1 -->
<svg xmlns="http://www.w3.org/2000/svg" xmlns:xlink="http://www.w3.org/1999/xlink" xmlns:ev="http://www.w3.org/2001/xml-events"
		xmlns:v="http://schemas.microsoft.com/visio/2003/SVGExtensions/" width="0.90625in" height="1.01563in"
		viewBox="0 0 65.25 73.125" xml:space="preserve" color-interpolation-filters="sRGB" class="st3">
	<v:documentProperties v:langID="4108" v:metric="true" v:viewMarkup="false"/>

	<style type="text/css">
	<![CDATA[
		.st1 {fill:#ffffff;stroke:none;stroke-linecap:butt;stroke-width:0.75}
		.st2 {fill:#505050;stroke:none;stroke-linecap:butt;stroke-width:0.75}
		.st3 {fill:none;fill-rule:evenodd;font-size:12px;overflow:visible;stroke-linecap:square;stroke-miterlimit:3}
	]]>
	</style>

	<g v:mID="0" v:index="1" v:groupContext="foregroundPage">
		<title>Page-1</title>
		<v:pageProperties v:drawingScale="0.0393701" v:pageScale="0.0393701" v:drawingUnits="24" v:shadowOffsetX="8.50394"
				v:shadowOffsetY="-8.50394"/>
		<v:layer v:name="symbols" v:index="0"/>
		<g id="group217-1" transform="translate(9.375,-9.9375)" v:mID="217" v:groupContext="group" v:layerMember="0">
			<title>Book Journal</title>
			<g id="group218-2" v:mID="218" v:groupContext="group" v:layerMember="0">
				<title>Sheet.218</title>
				<g id="shape219-3" v:mID="219" v:groupContext="shape" v:layerMember="0">
					<title>Sheet.219</title>
					<path d="M45.75 19.88 L6.75 19.88 C3.07 19.88 0 22.95 0 26.63 L0 64.87 C0 70.05 2.77 73.13 7.5 73.13 L45.75 73.13
								 L45.75 19.88 Z" class="st1"/>
				</g>
				<g id="shape220-5" v:mID="220" v:groupContext="shape" v:layerMember="0" transform="translate(2.25,-2.25)">
					<title>Sheet.220</title>
					<path d="M6.75 67.87 L7.5 67.87 L7.5 24.37 L4.5 24.37 C2.1 24.37 0 26.47 0 28.87 L0 67.12 C0 70.28 1.2 73.13
								 5.25 73.13 C5.85 73.13 41.03 73.13 41.25 73.13 L41.25 70.12 L4.5 70.12 C4.27 68.7 4.43 67.87 6.75
								 67.87 Z" class="st2"/>
				</g>
				<g id="shape221-7" v:mID="221" v:groupContext="shape" v:layerMember="0" transform="translate(12,-7.5)">
					<title>Sheet.221</title>
					<rect x="0" y="29.625" width="31.5" height="43.5" class="st2"/>
				</g>
			</g>
		</g>
	</g>
</svg>
