<?xml version="1.0" encoding="UTF-8" standalone="no"?>
<!DOCTYPE svg PUBLIC "-//W3C//DTD SVG 1.1//EN" "http://www.w3.org/Graphics/SVG/1.1/DTD/svg11.dtd">
<!-- Generated by Microsoft Visio, SVG Export Calculator.svg Page-1 -->
<svg xmlns="http://www.w3.org/2000/svg" xmlns:xlink="http://www.w3.org/1999/xlink" xmlns:ev="http://www.w3.org/2001/xml-events"
		xmlns:v="http://schemas.microsoft.com/visio/2003/SVGExtensions/" width="0.78125in" height="0.9375in"
		viewBox="0 0 56.25 67.5" xml:space="preserve" color-interpolation-filters="sRGB" class="st3">
	<v:documentProperties v:langID="4108" v:metric="true" v:viewMarkup="false"/>

	<style type="text/css">
	<![CDATA[
		.st1 {fill:#ffffff;stroke:none;stroke-linecap:butt;stroke-width:0.75}
		.st2 {fill:#505050;stroke:none;stroke-linecap:butt;stroke-width:0.75}
		.st3 {fill:none;fill-rule:evenodd;font-size:12px;overflow:visible;stroke-linecap:square;stroke-miterlimit:3}
	]]>
	</style>

	<g v:mID="0" v:index="1" v:groupContext="foregroundPage">
		<title>Page-1</title>
		<v:pageProperties v:drawingScale="0.0393701" v:pageScale="0.0393701" v:drawingUnits="24" v:shadowOffsetX="8.50394"
				v:shadowOffsetY="-8.50394"/>
		<v:layer v:name="symbols" v:index="0"/>
		<g id="group244-1" transform="translate(10.125,-8.0625)" v:mID="244" v:groupContext="group" v:layerMember="0">
			<title>Calculator</title>
			<g id="group245-2" v:mID="245" v:groupContext="group" v:layerMember="0">
				<title>Sheet.245</title>
				<g id="shape246-3" v:mID="246" v:groupContext="shape" v:layerMember="0">
					<title>Sheet.246</title>
					<path d="M6 67.5 C2.7 67.5 0 64.8 0 61.5 L0 23.25 C0 19.95 2.7 17.25 6 17.25 L30 17.25 C33.3 17.25 36 19.95 36
								 23.25 L36 61.5 C36 64.8 33.3 67.5 30 67.5 L6 67.5 Z" class="st1"/>
				</g>
				<g id="shape247-5" v:mID="247" v:groupContext="shape" v:layerMember="0" transform="translate(2.25,-2.25)">
					<title>Sheet.247</title>
					<path d="M27.75 67.5 L3.75 67.5 C1.65 67.5 0 65.85 0 63.75 L0 25.5 C0 23.4 1.65 21.75 3.75 21.75 L27.75 21.75
								 C29.85 21.75 31.5 23.4 31.5 25.5 L31.5 63.75 C31.5 65.85 29.85 67.5 27.75 67.5 Z" class="st2"/>
				</g>
				<g id="shape248-7" v:mID="248" v:groupContext="shape" v:layerMember="0" transform="translate(6,-34.5)">
					<title>Sheet.248</title>
					<path d="M22.5 67.5 L1.5 67.5 C0.68 67.5 0 66.82 0 66 L0 59.25 C0 58.42 0.68 57.75 1.5 57.75 L22.5 57.75 C23.33
								 57.75 24 58.42 24 59.25 L24 66 C24 66.82 23.33 67.5 22.5 67.5 Z" class="st1"/>
				</g>
				<g id="shape249-9" v:mID="249" v:groupContext="shape" v:layerMember="0" transform="translate(7.5,-9)">
					<title>Sheet.249</title>
					<path d="M3.75 52.5 L0.75 52.5 C0.3 52.5 0 52.2 0 51.75 L0 48.75 C0 48.3 0.3 48 0.75 48 L3.75 48 C4.2 48 4.5
								 48.3 4.5 48.75 L4.5 51.75 C4.5 52.2 4.2 52.5 3.75 52.5 ZM12.75 51.75 L12.75 48.75 C12.75 48.3 12.45
								 48 12 48 L9 48 C8.55 48 8.25 48.3 8.25 48.75 L8.25 51.75 C8.25 52.2 8.55 52.5 9 52.5 L12 52.5 C12.45
								 52.5 12.75 52.2 12.75 51.75 ZM21 51.75 L21 48.75 C21 48.3 20.7 48 20.25 48 L17.25 48 C16.8 48 16.5
								 48.3 16.5 48.75 L16.5 51.75 C16.5 52.2 16.8 52.5 17.25 52.5 L20.25 52.5 C20.7 52.5 21 52.2 21 51.75
								 ZM4.5 59.25 L4.5 56.25 C4.5 55.8 4.2 55.5 3.75 55.5 L0.75 55.5 C0.3 55.5 0 55.8 0 56.25 L0 59.25
								 C0 59.7 0.3 60 0.75 60 L3.75 60 C4.2 60 4.5 59.7 4.5 59.25 ZM12.75 59.25 L12.75 56.25 C12.75 55.8
								 12.45 55.5 12 55.5 L9 55.5 C8.55 55.5 8.25 55.8 8.25 56.25 L8.25 59.25 C8.25 59.7 8.55 60 9 60 L12
								 60 C12.45 60 12.75 59.7 12.75 59.25 ZM21 59.25 L21 56.25 C21 55.8 20.7 55.5 20.25 55.5 L17.25 55.5
								 C16.8 55.5 16.5 55.8 16.5 56.25 L16.5 59.25 C16.5 59.7 16.8 60 17.25 60 L20.25 60 C20.7 60 21 59.7
								 21 59.25 ZM4.5 66.75 L4.5 63.75 C4.5 63.3 4.2 63 3.75 63 L0.75 63 C0.3 63 0 63.3 0 63.75 L0 66.75
								 C0 67.2 0.3 67.5 0.75 67.5 L3.75 67.5 C4.2 67.5 4.5 67.2 4.5 66.75 ZM12.75 66.75 L12.75 63.75 C12.75
								 63.3 12.45 63 12 63 L9 63 C8.55 63 8.25 63.3 8.25 63.75 L8.25 66.75 C8.25 67.2 8.55 67.5 9 67.5
								 L12 67.5 C12.45 67.5 12.75 67.2 12.75 66.75 ZM21 66.75 L21 63.75 C21 63.3 20.7 63 20.25 63 L17.25
								 63 C16.8 63 16.5 63.3 16.5 63.75 L16.5 66.75 C16.5 67.2 16.8 67.5 17.25 67.5 L20.25 67.5 C20.7 67.5
								 21 67.2 21 66.75 Z" class="st1"/>
				</g>
			</g>
		</g>
	</g>
</svg>
