<?xml version="1.0" encoding="UTF-8" standalone="no"?>
<!DOCTYPE svg PUBLIC "-//W3C//DTD SVG 1.1//EN" "http://www.w3.org/Graphics/SVG/1.1/DTD/svg11.dtd">
<!-- Generated by Microsoft Visio, SVG Export Calendar.svg Page-1 -->
<svg xmlns="http://www.w3.org/2000/svg" xmlns:xlink="http://www.w3.org/1999/xlink" xmlns:ev="http://www.w3.org/2001/xml-events"
		xmlns:v="http://schemas.microsoft.com/visio/2003/SVGExtensions/" width="1.01172in" height="0.953125in"
		viewBox="0 0 72.8438 68.625" xml:space="preserve" color-interpolation-filters="sRGB" class="st4">
	<v:documentProperties v:langID="4108" v:metric="true" v:viewMarkup="false"/>

	<style type="text/css">
	<![CDATA[
		.st1 {fill:#ffffff;stroke:none;stroke-linecap:butt;stroke-width:0.75}
		.st2 {fill:#515251;stroke:none;stroke-linecap:butt;stroke-width:0.75}
		.st3 {fill:#515050;stroke:none;stroke-linecap:butt;stroke-width:0.75}
		.st4 {fill:none;fill-rule:evenodd;font-size:12px;overflow:visible;stroke-linecap:square;stroke-miterlimit:3}
	]]>
	</style>

	<g v:mID="0" v:index="1" v:groupContext="foregroundPage">
		<title>Page-1</title>
		<v:pageProperties v:drawingScale="0.0393701" v:pageScale="0.0393701" v:drawingUnits="24" v:shadowOffsetX="8.50394"
				v:shadowOffsetY="-8.50394"/>
		<v:layer v:name="symbols" v:index="0"/>
		<g id="group222-1" transform="translate(7.51875,-7.3125)" v:mID="222" v:groupContext="group" v:layerMember="0">
			<title>Calendar</title>
			<g id="group223-2" v:mID="223" v:groupContext="group" v:layerMember="0">
				<title>Sheet.223</title>
				<g id="shape224-3" v:mID="224" v:groupContext="shape" v:layerMember="0">
					<title>Sheet.224</title>
					<path d="M0 68.63 L0 19.88 C0 16.95 2.32 14.63 5.25 14.63 L52.5 14.63 C55.42 14.63 57.75 16.95 57.75 19.88 L57.75
								 68.63 L0 68.63 Z" class="st1"/>
				</g>
				<g id="shape225-5" v:mID="225" v:groupContext="shape" v:layerMember="0" transform="translate(16.5,-34.5)">
					<title>Sheet.225</title>
					<rect x="0" y="61.875" width="6.75" height="6.75" class="st2"/>
				</g>
				<g id="shape226-7" v:mID="226" v:groupContext="shape" v:layerMember="0" transform="translate(25.5,-34.5)">
					<title>Sheet.226</title>
					<rect x="0" y="61.875" width="6.75" height="6.75" class="st2"/>
				</g>
				<g id="shape227-9" v:mID="227" v:groupContext="shape" v:layerMember="0" transform="translate(34.5,-34.5)">
					<title>Sheet.227</title>
					<rect x="0" y="61.875" width="6.75" height="6.75" class="st2"/>
				</g>
				<g id="shape228-11" v:mID="228" v:groupContext="shape" v:layerMember="0" transform="translate(43.5,-34.5)">
					<title>Sheet.228</title>
					<rect x="0" y="61.875" width="6.75" height="6.75" class="st2"/>
				</g>
				<g id="shape229-13" v:mID="229" v:groupContext="shape" v:layerMember="0" transform="translate(7.5,-25.5)">
					<title>Sheet.229</title>
					<rect x="0" y="61.875" width="6.75" height="6.75" class="st2"/>
				</g>
				<g id="shape230-15" v:mID="230" v:groupContext="shape" v:layerMember="0" transform="translate(16.5,-25.5)">
					<title>Sheet.230</title>
					<rect x="0" y="61.875" width="6.75" height="6.75" class="st2"/>
				</g>
				<g id="shape231-17" v:mID="231" v:groupContext="shape" v:layerMember="0" transform="translate(25.5,-25.5)">
					<title>Sheet.231</title>
					<rect x="0" y="61.875" width="6.75" height="6.75" class="st2"/>
				</g>
				<g id="shape232-19" v:mID="232" v:groupContext="shape" v:layerMember="0" transform="translate(34.5,-25.5)">
					<title>Sheet.232</title>
					<rect x="0" y="61.875" width="6.75" height="6.75" class="st2"/>
				</g>
				<g id="shape233-21" v:mID="233" v:groupContext="shape" v:layerMember="0" transform="translate(43.5,-25.5)">
					<title>Sheet.233</title>
					<rect x="0" y="61.875" width="6.75" height="6.75" class="st2"/>
				</g>
				<g id="shape234-23" v:mID="234" v:groupContext="shape" v:layerMember="0" transform="translate(7.5,-16.5)">
					<title>Sheet.234</title>
					<rect x="0" y="61.875" width="6.75" height="6.75" class="st2"/>
				</g>
				<g id="shape235-25" v:mID="235" v:groupContext="shape" v:layerMember="0" transform="translate(16.5,-16.5)">
					<title>Sheet.235</title>
					<rect x="0" y="61.875" width="6.75" height="6.75" class="st2"/>
				</g>
				<g id="shape236-27" v:mID="236" v:groupContext="shape" v:layerMember="0" transform="translate(25.5,-16.5)">
					<title>Sheet.236</title>
					<rect x="0" y="61.875" width="6.75" height="6.75" class="st2"/>
				</g>
				<g id="shape237-29" v:mID="237" v:groupContext="shape" v:layerMember="0" transform="translate(34.5,-16.5)">
					<title>Sheet.237</title>
					<rect x="0" y="61.875" width="6.75" height="6.75" class="st2"/>
				</g>
				<g id="shape238-31" v:mID="238" v:groupContext="shape" v:layerMember="0" transform="translate(43.5,-16.5)">
					<title>Sheet.238</title>
					<rect x="0" y="61.875" width="6.75" height="6.75" class="st2"/>
				</g>
				<g id="shape239-33" v:mID="239" v:groupContext="shape" v:layerMember="0" transform="translate(7.5,-7.5)">
					<title>Sheet.239</title>
					<rect x="0" y="61.875" width="6.75" height="6.75" class="st2"/>
				</g>
				<g id="shape240-35" v:mID="240" v:groupContext="shape" v:layerMember="0" transform="translate(16.5,-7.5)">
					<title>Sheet.240</title>
					<rect x="0" y="61.875" width="6.75" height="6.75" class="st2"/>
				</g>
				<g id="shape241-37" v:mID="241" v:groupContext="shape" v:layerMember="0" transform="translate(25.5,-7.5)">
					<title>Sheet.241</title>
					<rect x="0" y="61.875" width="6.75" height="6.75" class="st2"/>
				</g>
				<g id="shape242-39" v:mID="242" v:groupContext="shape" v:layerMember="0" transform="translate(34.5,-7.5)">
					<title>Sheet.242</title>
					<rect x="0" y="61.875" width="6.75" height="6.75" class="st2"/>
				</g>
				<g id="shape243-41" v:mID="243" v:groupContext="shape" v:layerMember="0" transform="translate(2.25,-2.25)">
					<title>Sheet.243</title>
					<path d="M50.25 19.13 L3 19.13 C1.35 19.13 0 20.48 0 22.13 L0 68.63 L53.25 68.63 L53.25 22.13 C53.25 20.48 51.9
								 19.13 50.25 19.13 ZM2.25 66.38 L2.25 26.63 L51 26.63 L51 66.38 L2.25 66.38 Z" class="st3"/>
				</g>
			</g>
		</g>
	</g>
</svg>
