<?xml version="1.0" encoding="UTF-8" standalone="no"?>
<!DOCTYPE svg PUBLIC "-//W3C//DTD SVG 1.1//EN" "http://www.w3.org/Graphics/SVG/1.1/DTD/svg11.dtd">
<!-- Generated by Microsoft Visio, SVG Export Clipboard.svg Page-1 -->
<svg xmlns="http://www.w3.org/2000/svg" xmlns:xlink="http://www.w3.org/1999/xlink" xmlns:ev="http://www.w3.org/2001/xml-events"
		xmlns:v="http://schemas.microsoft.com/visio/2003/SVGExtensions/" width="0.859375in" height="1.01563in"
		viewBox="0 0 61.875 73.125" xml:space="preserve" color-interpolation-filters="sRGB" class="st3">
	<v:documentProperties v:langID="4108" v:metric="true" v:viewMarkup="false"/>

	<style type="text/css">
	<![CDATA[
		.st1 {fill:#ffffff;stroke:none;stroke-linecap:butt;stroke-width:0.75}
		.st2 {fill:#515150;stroke:none;stroke-linecap:butt;stroke-width:0.75}
		.st3 {fill:none;fill-rule:evenodd;font-size:12px;overflow:visible;stroke-linecap:square;stroke-miterlimit:3}
	]]>
	</style>

	<g v:mID="0" v:index="1" v:groupContext="foregroundPage">
		<title>Page-1</title>
		<v:pageProperties v:drawingScale="0.0393701" v:pageScale="0.0393701" v:drawingUnits="24" v:shadowOffsetX="8.50394"
				v:shadowOffsetY="-8.50394"/>
		<v:layer v:name="symbols" v:index="0"/>
		<g id="group250-1" transform="translate(8.12813,-8.0625)" v:mID="250" v:groupContext="group" v:layerMember="0">
			<title>Clipboard</title>
			<g id="group251-2" transform="translate(0.309375,0)" v:mID="251" v:groupContext="group" v:layerMember="0">
				<title>Sheet.251</title>
				<g id="shape252-3" v:mID="252" v:groupContext="shape" v:layerMember="0">
					<title>Sheet.252</title>
					<path d="M39.75 22.88 L35.02 22.88 C33.83 21.53 32.03 20.63 30 20.63 L29.62 20.63 C28.72 18 26.18 16.13 23.25
								 16.13 L21.75 16.13 C18.82 16.13 16.35 18 15.38 20.63 L15 20.63 C12.97 20.63 11.25 21.53 9.98 22.88
								 L5.25 22.88 C2.33 22.88 0 25.2 0 28.13 L0 67.88 C0 70.8 2.33 73.13 5.25 73.13 L39.75 73.13 C42.67
								 73.13 45 70.8 45 67.88 L45 28.13 C45 25.2 42.67 22.88 39.75 22.88 Z" class="st1"/>
				</g>
				<g id="shape253-5" v:mID="253" v:groupContext="shape" v:layerMember="0" transform="translate(2.25,-2.25)">
					<title>Sheet.253</title>
					<path d="M37.5 27.38 L34.5 27.38 L34.5 66.38 L6 66.38 L6 27.38 L3 27.38 C1.35 27.38 0 28.73 0 30.38 L0 70.13
								 C0 71.78 1.35 73.13 3 73.13 L37.5 73.13 C39.15 73.13 40.5 71.78 40.5 70.13 L40.5 30.38 C40.5 28.73
								 39.15 27.38 37.5 27.38 Z" class="st2"/>
				</g>
				<g id="shape254-7" v:mID="254" v:groupContext="shape" v:layerMember="0" transform="translate(10.5,-42)">
					<title>Sheet.254</title>
					<path d="M19.5 64.88 L17.25 64.88 C17.25 62.4 15.22 60.38 12.75 60.38 L11.25 60.38 C8.77 60.38 6.75 62.4 6.75
								 64.88 L4.5 64.88 C2.02 64.88 0 66.9 0 69.38 L0 73.13 L24 73.13 L24 69.38 C24 66.9 21.97 64.88 19.5
								 64.88 ZM13.5 66.38 L10.5 66.38 L10.5 63.38 L13.5 63.38 L13.5 66.38 Z" class="st2"/>
				</g>
			</g>
		</g>
	</g>
</svg>
