<?xml version="1.0" encoding="UTF-8" standalone="no"?>
<!DOCTYPE svg PUBLIC "-//W3C//DTD SVG 1.1//EN" "http://www.w3.org/Graphics/SVG/1.1/DTD/svg11.dtd">
<!-- Generated by Microsoft Visio, SVG Export Clock.svg Page-1 -->
<svg xmlns="http://www.w3.org/2000/svg" xmlns:xlink="http://www.w3.org/1999/xlink" xmlns:ev="http://www.w3.org/2001/xml-events"
		xmlns:v="http://schemas.microsoft.com/visio/2003/SVGExtensions/" width="0.921875in" height="0.921875in"
		viewBox="0 0 66.375 66.375" xml:space="preserve" color-interpolation-filters="sRGB" class="st3">
	<v:documentProperties v:langID="4108" v:metric="true" v:viewMarkup="false"/>

	<style type="text/css">
	<![CDATA[
		.st1 {fill:#ffffff;stroke:none;stroke-linecap:butt;stroke-width:0.75}
		.st2 {fill:#515150;stroke:none;stroke-linecap:butt;stroke-width:0.75}
		.st3 {fill:none;fill-rule:evenodd;font-size:12px;overflow:visible;stroke-linecap:square;stroke-miterlimit:3}
	]]>
	</style>

	<g v:mID="0" v:index="1" v:groupContext="foregroundPage">
		<title>Page-1</title>
		<v:pageProperties v:drawingScale="0.0393701" v:pageScale="0.0393701" v:drawingUnits="24" v:shadowOffsetX="8.50394"
				v:shadowOffsetY="-8.50394"/>
		<v:layer v:name="symbols" v:index="0"/>
		<g id="group260-1" transform="translate(8.625,-8.4375)" v:mID="260" v:groupContext="group" v:layerMember="0">
			<title>Clock</title>
			<g id="group261-2" v:mID="261" v:groupContext="group" v:layerMember="0">
				<title>Sheet.261</title>
				<g id="shape262-3" v:mID="262" v:groupContext="shape" v:layerMember="0">
					<title>Sheet.262</title>
					<path d="M24.75 66.37 C11.1 66.37 0 55.27 0 41.62 C0 27.97 11.1 16.87 24.75 16.87 C38.4 16.87 49.5 27.97 49.5
								 41.62 C49.5 55.27 38.4 66.37 24.75 66.37 Z" class="st1"/>
				</g>
				<g id="shape263-5" v:mID="263" v:groupContext="shape" v:layerMember="0" transform="translate(2.25,-2.25)">
					<title>Sheet.263</title>
					<path d="M22.5 21.37 C10.05 21.37 0 31.42 0 43.87 C0 56.32 10.05 66.37 22.5 66.37 C34.95 66.37 45 56.32 45 43.87
								 C45 31.42 34.95 21.37 22.5 21.37 ZM22.5 62.62 C12.15 62.62 3.75 54.22 3.75 43.87 C3.75 33.52 12.15
								 25.12 22.5 25.12 C32.85 25.12 41.25 33.52 41.25 43.87 C41.25 54.22 32.85 62.62 22.5 62.62 Z"
							class="st2"/>
				</g>
				<g id="shape264-7" v:mID="264" v:groupContext="shape" v:layerMember="0" transform="translate(23.25,-15)">
					<title>Sheet.264</title>
					<path d="M10.88 66.37 C10.65 66.37 10.43 66.3 10.2 66.15 L0.45 58.65 C0.15 58.42 0 58.12 0 57.75 L0 41.25 C0
								 40.65 0.53 40.12 1.13 40.12 C1.73 40.12 2.25 40.65 2.25 41.25 L2.25 57.22 L11.55 64.35 C12.08 64.72
								 12.15 65.4 11.78 65.92 C11.55 66.22 11.18 66.37 10.88 66.37 Z" class="st2"/>
				</g>
			</g>
		</g>
	</g>
</svg>
