<?xml version="1.0" encoding="UTF-8" standalone="no"?>
<!DOCTYPE svg PUBLIC "-//W3C//DTD SVG 1.1//EN" "http://www.w3.org/Graphics/SVG/1.1/DTD/svg11.dtd">
<!-- Generated by Microsoft Visio, SVG Export Column.svg Page-1 -->
<svg xmlns="http://www.w3.org/2000/svg" xmlns:xlink="http://www.w3.org/1999/xlink" xmlns:ev="http://www.w3.org/2001/xml-events"
		xmlns:v="http://schemas.microsoft.com/visio/2003/SVGExtensions/" width="0.96875in" height="0.859375in"
		viewBox="0 0 69.75 61.875" xml:space="preserve" color-interpolation-filters="sRGB" class="st3">
	<v:documentProperties v:langID="4108" v:metric="true" v:viewMarkup="false"/>

	<style type="text/css">
	<![CDATA[
		.st1 {fill:#ffffff;stroke:none;stroke-linecap:butt;stroke-width:0.75}
		.st2 {fill:#515150;stroke:none;stroke-linecap:butt;stroke-width:0.75}
		.st3 {fill:none;fill-rule:evenodd;font-size:12px;overflow:visible;stroke-linecap:square;stroke-miterlimit:3}
	]]>
	</style>

	<g v:mID="0" v:index="1" v:groupContext="foregroundPage">
		<title>Page-1</title>
		<v:pageProperties v:drawingScale="0.0393701" v:pageScale="0.0393701" v:drawingUnits="24" v:shadowOffsetX="8.50394"
				v:shadowOffsetY="-8.50394"/>
		<v:layer v:name="symbols" v:index="0"/>
		<g id="group270-1" transform="translate(6.7875,-7.3125)" v:mID="270" v:groupContext="group" v:layerMember="0">
			<title>Column</title>
			<g id="group271-2" v:mID="271" v:groupContext="group" v:layerMember="0">
				<title>Sheet.271</title>
				<g id="group272-3" v:mID="272" v:groupContext="group" v:layerMember="0">
					<title>Sheet.272</title>
					<g id="group273-4" v:mID="273" v:groupContext="group" v:layerMember="0">
						<title>Sheet.273</title>
						<g id="shape274-5" v:mID="274" v:groupContext="shape" v:layerMember="0">
							<title>Sheet.274</title>
							<path d="M51 16.87 L43.5 16.87 L43.5 14.62 L24.75 14.62 L24.75 16.87 L5.25 16.87 C2.32 16.87 0 19.2 0
										 22.12 L0 56.62 C0 59.55 2.32 61.87 5.25 61.87 L24.75 61.87 L43.5 61.87 L51 61.87 C53.93
										 61.87 56.25 59.55 56.25 56.62 L56.25 22.12 C56.25 19.2 53.93 16.87 51 16.87 Z" class="st1"/>
						</g>
						<g id="shape275-7" v:mID="275" v:groupContext="shape" v:layerMember="0" transform="translate(2.25,-2.25)">
							<title>Sheet.275</title>
							<path d="M48.75 21.37 L3 21.37 C1.35 21.37 0 22.72 0 24.37 L0 58.87 C0 60.52 1.35 61.87 3 61.87 L48.75
										 61.87 C50.4 61.87 51.75 60.52 51.75 58.87 L51.75 24.37 C51.75 22.72 50.4 21.37 48.75 21.37
										 ZM42.75 23.62 L45 23.62 L45 25.87 L42.75 25.87 L42.75 23.62 ZM2.25 58.87 L2.25 28.87 L12.75
										 28.87 L12.75 59.62 L3 59.62 C2.55 59.62 2.25 59.32 2.25 58.87 ZM49.5 58.87 C49.5 59.32 49.2
										 59.62 48.75 59.62 L15 59.62 L15 28.87 L49.5 28.87 L49.5 58.87 ZM49.5 25.87 L47.25 25.87
										 L47.25 23.62 L49.5 23.62 L49.5 25.87 Z" class="st2"/>
						</g>
					</g>
					<g id="shape276-9" v:mID="276" v:groupContext="shape" v:layerMember="0" transform="translate(28.5,-3.75)">
						<title>Sheet.276</title>
						<rect x="0" y="22.125" width="11.25" height="39.75" class="st1"/>
					</g>
				</g>
				<g id="shape277-11" v:mID="277" v:groupContext="shape" v:layerMember="0" transform="translate(27,-2.25)">
					<title>Sheet.277</title>
					<path d="M12 21.37 L12 59.62 L2.25 59.62 L2.25 21.37 L12 21.37 ZM14.25 19.12 L0 19.12 L0 61.87 L14.25 61.87 L14.25
								 19.12 Z" class="st2"/>
				</g>
			</g>
		</g>
	</g>
</svg>
