<?xml version="1.0" encoding="UTF-8" standalone="no"?>
<!DOCTYPE svg PUBLIC "-//W3C//DTD SVG 1.1//EN" "http://www.w3.org/Graphics/SVG/1.1/DTD/svg11.dtd">
<!-- Generated by Microsoft Visio, SVG Export Connector.svg Page-1 -->
<svg xmlns="http://www.w3.org/2000/svg" xmlns:xlink="http://www.w3.org/1999/xlink" xmlns:ev="http://www.w3.org/2001/xml-events"
		xmlns:v="http://schemas.microsoft.com/visio/2003/SVGExtensions/" width="0.90625in" height="0.734375in"
		viewBox="0 0 65.25 52.875" xml:space="preserve" color-interpolation-filters="sRGB" class="st3">
	<v:documentProperties v:langID="4108" v:metric="true" v:viewMarkup="false"/>

	<style type="text/css">
	<![CDATA[
		.st1 {fill:#ffffff;stroke:none;stroke-linecap:butt;stroke-width:0.75}
		.st2 {fill:#505050;stroke:none;stroke-linecap:butt;stroke-width:0.75}
		.st3 {fill:none;fill-rule:evenodd;font-size:12px;overflow:visible;stroke-linecap:square;stroke-miterlimit:3}
	]]>
	</style>

	<g v:mID="0" v:index="1" v:groupContext="foregroundPage">
		<title>Page-1</title>
		<v:pageProperties v:drawingScale="0.0393701" v:pageScale="0.0393701" v:drawingUnits="24" v:shadowOffsetX="8.50394"
				v:shadowOffsetY="-8.50394"/>
		<v:layer v:name="symbols" v:index="0"/>
		<g id="group278-1" transform="translate(8.95312,-8.475)" v:mID="278" v:groupContext="group" v:layerMember="0">
			<title>Connector</title>
			<g id="group279-2" v:mID="279" v:groupContext="group" v:layerMember="0">
				<title>Sheet.279</title>
				<g id="shape280-3" v:mID="280" v:groupContext="shape" v:layerMember="0">
					<title>Sheet.280</title>
					<path d="M42.82 29.7 L36.3 29.7 L42.22 23.77 L40.65 22.2 C37.27 18.82 32.7 16.95 27.9 16.95 C23.1 16.95 18.53
								 18.82 15.15 22.2 C13.05 24.3 11.48 26.92 10.65 29.7 L5.25 29.7 C2.32 29.7 0 32.02 0 34.95 C0 37.87
								 2.33 40.12 5.17 40.12 L10.57 40.12 C11.4 42.97 12.97 45.52 15.07 47.62 C18.45 51 23.02 52.87 27.82
								 52.87 C32.62 52.87 37.2 51 40.57 47.62 L42.15 46.05 L36.15 40.05 L42.67 40.05 C45.52 40.05 47.85
								 37.72 47.85 34.87 C47.85 32.02 45.67 29.7 42.82 29.7 Z" class="st1"/>
				</g>
				<g id="shape281-5" v:mID="281" v:groupContext="shape" v:layerMember="0" transform="translate(2.25,-2.175)">
					<title>Sheet.281</title>
					<path d="M25.65 47.92 C22.65 47.92 19.95 46.72 18 44.77 C16.05 42.82 14.85 40.12 14.85 37.12 C14.85 34.12 16.05
								 31.42 18 29.47 C19.95 27.52 22.65 26.32 25.65 26.32 C28.65 26.32 31.35 27.52 33.3 29.47 L36.83 25.95
								 C33.97 23.1 30 21.3 25.65 21.3 C21.3 21.3 17.32 23.1 14.48 25.95 C12.3 28.12 10.73 30.97 10.12 34.12
								 L3.45 34.12 L2.93 34.12 C1.35 34.12 0 35.47 0 37.12 C0 38.77 1.35 40.05 2.93 40.05 L3.45 40.05 L10.12
								 40.05 C10.73 43.2 12.3 46.05 14.48 48.22 C17.32 51.07 21.3 52.87 25.65 52.87 C30 52.87 33.97 51.07
								 36.83 48.22 L33.3 44.7 C31.35 46.72 28.65 47.92 25.65 47.92 Z" class="st2"/>
				</g>
				<g id="shape282-7" v:mID="282" v:groupContext="shape" v:layerMember="0" transform="translate(22.575,-12.6)">
					<title>Sheet.282</title>
					<path d="M20.25 44.55 L19.73 44.55 L9.75 44.55 C8.78 43.12 7.2 42.22 5.33 42.22 C2.4 42.22 0 44.62 0 47.55 C0
								 50.47 2.4 52.87 5.33 52.87 C7.2 52.87 8.78 51.9 9.75 50.47 L9.83 50.47 L19.73 50.47 L20.25 50.47
								 C21.9 50.47 23.18 49.12 23.18 47.55 C23.18 45.9 21.83 44.55 20.25 44.55 Z" class="st2"/>
				</g>
			</g>
		</g>
	</g>
</svg>
