<?xml version="1.0" encoding="UTF-8" standalone="no"?>
<!DOCTYPE svg PUBLIC "-//W3C//DTD SVG 1.1//EN" "http://www.w3.org/Graphics/SVG/1.1/DTD/svg11.dtd">
<!-- Generated by Microsoft Visio, SVG Export Contacts.svg Page-1 -->
<svg xmlns="http://www.w3.org/2000/svg" xmlns:xlink="http://www.w3.org/1999/xlink" xmlns:ev="http://www.w3.org/2001/xml-events"
		xmlns:v="http://schemas.microsoft.com/visio/2003/SVGExtensions/" width="1.04687in" height="0.859375in"
		viewBox="0 0 75.375 61.875" xml:space="preserve" color-interpolation-filters="sRGB" class="st4">
	<v:documentProperties v:langID="4108" v:metric="true" v:viewMarkup="false"/>

	<style type="text/css">
	<![CDATA[
		.st1 {fill:#ffffff;stroke:none;stroke-linecap:butt;stroke-width:0.75}
		.st2 {fill:#525352;stroke:none;stroke-linecap:butt;stroke-width:0.75}
		.st3 {fill:#515050;stroke:none;stroke-linecap:butt;stroke-width:0.75}
		.st4 {fill:none;fill-rule:evenodd;font-size:12px;overflow:visible;stroke-linecap:square;stroke-miterlimit:3}
	]]>
	</style>

	<g v:mID="0" v:index="1" v:groupContext="foregroundPage">
		<title>Page-1</title>
		<v:pageProperties v:drawingScale="0.0393701" v:pageScale="0.0393701" v:drawingUnits="24" v:shadowOffsetX="8.50394"
				v:shadowOffsetY="-8.50394"/>
		<v:layer v:name="symbols" v:index="0"/>
		<g id="group289-1" transform="translate(8.95313,-9.1875)" v:mID="289" v:groupContext="group" v:layerMember="0">
			<title>Contacts</title>
			<g id="group290-2" v:mID="290" v:groupContext="group" v:layerMember="0">
				<title>Sheet.290</title>
				<g id="shape291-3" v:mID="291" v:groupContext="shape" v:layerMember="0">
					<title>Sheet.291</title>
					<path d="M0 61.87 L0 18.37 L57.75 18.37 L57.75 61.87 L0 61.87 Z" class="st1"/>
				</g>
				<g id="group292-5" transform="translate(9.675,-10.5)" v:mID="292" v:groupContext="group" v:layerMember="0">
					<title>Sheet.292</title>
					<g id="shape293-6" v:mID="293" v:groupContext="shape" v:layerMember="0">
						<title>Sheet.293</title>
						<path d="M19.5 54.9 C19.12 53.25 18.67 52.42 17.4 51.75 C16.13 51.07 15.45 50.55 15 50.55 C14.77 50.55 14.62
									 50.62 14.47 50.7 C14.17 51 13.88 51.22 13.5 51.45 C13.5 51.45 13.5 51.45 13.5 51.45 C13.42 51.45
									 13.35 51.52 13.35 51.52 C12.97 51.75 12.68 51.9 12.3 51.97 C11.62 52.2 10.95 52.35 10.2 52.35
									 C9.45 52.35 8.77 52.2 8.1 51.97 C7.72 51.9 7.43 51.67 7.05 51.52 C6.6 51.3 6.23 51 5.85 50.7
									 C5.7 50.62 5.55 50.55 5.32 50.55 C4.87 50.55 4.35 50.85 2.92 51.75 C1.65 52.42 1.2 53.25 0.83
									 54.9 C0.52 56.32 0.08 60.22 0 61.87 L20.25 61.87 C20.25 60.3 19.8 56.4 19.5 54.9 Z"
								class="st2"/>
					</g>
					<g id="shape294-8" v:mID="294" v:groupContext="shape" v:layerMember="0" transform="translate(5.25,-11.7)">
						<title>Sheet.294</title>
						<path d="M4.95 61.87 C2.25 61.87 0 59.4 0 56.4 C-0 53.4 2.25 50.92 4.95 50.92 C7.65 50.92 9.9 53.4 9.9 56.4
									 C9.9 59.4 7.65 61.87 4.95 61.87 Z" class="st2"/>
					</g>
				</g>
				<g id="shape295-10" v:mID="295" v:groupContext="shape" v:layerMember="0" transform="translate(2.25,-2.25)">
					<title>Sheet.295</title>
					<path d="M0 22.87 L0 61.87 L53.25 61.87 L53.25 22.87 L0 22.87 ZM51 59.62 L2.25 59.62 L2.25 25.12 L51 25.12 L51
								 59.62 Z" class="st3"/>
				</g>
				<g id="shape296-12" v:mID="296" v:groupContext="shape" v:layerMember="0" transform="translate(33,-27)">
					<title>Sheet.296</title>
					<rect x="0" y="59.625" width="15" height="2.25" class="st2"/>
				</g>
				<g id="shape297-14" v:mID="297" v:groupContext="shape" v:layerMember="0" transform="translate(33,-20.25)">
					<title>Sheet.297</title>
					<rect x="0" y="59.625" width="15" height="2.25" class="st2"/>
				</g>
				<g id="shape298-16" v:mID="298" v:groupContext="shape" v:layerMember="0" transform="translate(33,-13.5)">
					<title>Sheet.298</title>
					<rect x="0" y="59.625" width="15" height="2.25" class="st2"/>
				</g>
			</g>
		</g>
	</g>
</svg>
