<?xml version="1.0" encoding="UTF-8" standalone="no"?>
<!DOCTYPE svg PUBLIC "-//W3C//DTD SVG 1.1//EN" "http://www.w3.org/Graphics/SVG/1.1/DTD/svg11.dtd">
<!-- Generated by Microsoft Visio, SVG Export Content Type.svg Page-1 -->
<svg xmlns="http://www.w3.org/2000/svg" xmlns:xlink="http://www.w3.org/1999/xlink" xmlns:ev="http://www.w3.org/2001/xml-events"
		xmlns:v="http://schemas.microsoft.com/visio/2003/SVGExtensions/" width="1.01172in" height="0.859375in"
		viewBox="0 0 72.8437 61.875" xml:space="preserve" color-interpolation-filters="sRGB" class="st4">
	<v:documentProperties v:langID="4108" v:metric="true" v:viewMarkup="false"/>

	<style type="text/css">
	<![CDATA[
		.st1 {fill:#ffffff;stroke:none;stroke-linecap:butt;stroke-width:0.75}
		.st2 {fill:#515150;stroke:none;stroke-linecap:butt;stroke-width:0.75}
		.st3 {fill:#515050;stroke:none;stroke-linecap:butt;stroke-width:0.75}
		.st4 {fill:none;fill-rule:evenodd;font-size:12px;overflow:visible;stroke-linecap:square;stroke-miterlimit:3}
	]]>
	</style>

	<g v:mID="0" v:index="1" v:groupContext="foregroundPage">
		<title>Page-1</title>
		<v:pageProperties v:drawingScale="0.0393701" v:pageScale="0.0393701" v:drawingUnits="24" v:shadowOffsetX="8.50394"
				v:shadowOffsetY="-8.50394"/>
		<v:layer v:name="symbols" v:index="0"/>
		<g id="group299-1" transform="translate(7.54688,-8.4375)" v:mID="299" v:groupContext="group" v:layerMember="0">
			<title>Content Type</title>
			<g id="group300-2" v:mID="300" v:groupContext="group" v:layerMember="0">
				<title>Sheet.300</title>
				<g id="group301-3" v:mID="301" v:groupContext="group" v:layerMember="0">
					<title>Sheet.301</title>
					<g id="shape302-4" v:mID="302" v:groupContext="shape" v:layerMember="0">
						<title>Sheet.302</title>
						<path d="M5.25 61.87 C2.32 61.87 0 59.55 0 56.62 L0 22.12 C0 19.2 2.32 16.87 5.25 16.87 L52.5 16.87 C55.42
									 16.87 57.75 19.2 57.75 22.12 L57.75 56.62 C57.75 59.55 55.42 61.87 52.5 61.87 L5.25 61.87 Z"
								class="st1"/>
					</g>
					<g id="shape303-6" v:mID="303" v:groupContext="shape" v:layerMember="0" transform="translate(2.25,-2.25)">
						<title>Sheet.303</title>
						<path d="M50.25 21.37 L3 21.37 C1.35 21.37 0 22.72 0 24.37 L0 58.87 C0 60.52 1.35 61.87 3 61.87 L50.25 61.87
									 C51.9 61.87 53.25 60.52 53.25 58.87 L53.25 24.37 C53.25 22.72 51.9 21.37 50.25 21.37 ZM44.25
									 23.62 L46.5 23.62 L46.5 25.87 L44.25 25.87 L44.25 23.62 ZM39.75 23.62 L42 23.62 L42 25.87 L39.75
									 25.87 L39.75 23.62 ZM51 58.87 C51 59.32 50.7 59.62 50.25 59.62 L3 59.62 C2.55 59.62 2.25 59.32
									 2.25 58.87 L2.25 28.87 L51 28.87 L51 58.87 ZM51 25.87 L48.75 25.87 L48.75 23.62 L51 23.62 L51
									 25.87 Z" class="st2"/>
					</g>
				</g>
				<g id="shape304-8" v:mID="304" v:groupContext="shape" v:layerMember="0" transform="translate(7.5,-8.25)">
					<title>Sheet.304</title>
					<path d="M7.5 40.12 L7.5 60.37 L1.5 60.37 L1.5 40.12 L7.5 40.12 ZM9 38.62 L0 38.62 L0 61.87 L9 61.87 L9 38.62
								 Z" class="st3"/>
				</g>
				<g id="shape305-10" v:mID="305" v:groupContext="shape" v:layerMember="0" transform="translate(18.75,-8.25)">
					<title>Sheet.305</title>
					<path d="M7.5 40.12 L7.5 60.37 L1.5 60.37 L1.5 40.12 L7.5 40.12 ZM9 38.62 L0 38.62 L0 61.87 L9 61.87 L9 38.62
								 Z" class="st3"/>
				</g>
				<g id="shape306-12" v:mID="306" v:groupContext="shape" v:layerMember="0" transform="translate(30,-8.25)">
					<title>Sheet.306</title>
					<path d="M7.5 40.12 L7.5 60.37 L1.5 60.37 L1.5 40.12 L7.5 40.12 ZM9 38.62 L0 38.62 L0 61.87 L9 61.87 L9 38.62
								 Z" class="st3"/>
				</g>
				<g id="shape307-14" v:mID="307" v:groupContext="shape" v:layerMember="0" transform="translate(41.25,-8.25)">
					<title>Sheet.307</title>
					<path d="M7.5 40.12 L7.5 60.37 L1.5 60.37 L1.5 40.12 L7.5 40.12 ZM9 38.62 L0 38.62 L0 61.87 L9 61.87 L9 38.62
								 Z" class="st3"/>
				</g>
			</g>
		</g>
	</g>
</svg>
