<?xml version="1.0" encoding="UTF-8" standalone="no"?>
<!DOCTYPE svg PUBLIC "-//W3C//DTD SVG 1.1//EN" "http://www.w3.org/Graphics/SVG/1.1/DTD/svg11.dtd">
<!-- Generated by Microsoft Visio, SVG Export Credit Card.svg Page-1 -->
<svg xmlns="http://www.w3.org/2000/svg" xmlns:xlink="http://www.w3.org/1999/xlink" xmlns:ev="http://www.w3.org/2001/xml-events"
		xmlns:v="http://schemas.microsoft.com/visio/2003/SVGExtensions/" width="1.01172in" height="0.78125in"
		viewBox="0 0 72.8438 56.25" xml:space="preserve" color-interpolation-filters="sRGB" class="st3">
	<v:documentProperties v:langID="4108" v:metric="true" v:viewMarkup="false"/>

	<style type="text/css">
	<![CDATA[
		.st1 {fill:#ffffff;stroke:none;stroke-linecap:butt;stroke-width:0.75}
		.st2 {fill:#505050;stroke:none;stroke-linecap:butt;stroke-width:0.75}
		.st3 {fill:none;fill-rule:evenodd;font-size:12px;overflow:visible;stroke-linecap:square;stroke-miterlimit:3}
	]]>
	</style>

	<g v:mID="0" v:index="1" v:groupContext="foregroundPage">
		<title>Page-1</title>
		<v:pageProperties v:drawingScale="0.0393701" v:pageScale="0.0393701" v:drawingUnits="24" v:shadowOffsetX="8.50394"
				v:shadowOffsetY="-8.50394"/>
		<v:layer v:name="symbols" v:index="0"/>
		<g id="group308-1" transform="translate(6.73125,-8.4375)" v:mID="308" v:groupContext="group" v:layerMember="0">
			<title>Credit Card</title>
			<g id="group309-2" v:mID="309" v:groupContext="group" v:layerMember="0">
				<title>Sheet.309</title>
				<g id="shape310-3" v:mID="310" v:groupContext="shape" v:layerMember="0">
					<title>Sheet.310</title>
					<path d="M5.25 56.25 C2.33 56.25 0 53.93 0 51 L0 21 C0 18.08 2.33 15.75 5.25 15.75 L54 15.75 C56.93 15.75 59.25
								 18.08 59.25 21 L59.25 51 C59.25 53.93 56.93 56.25 54 56.25 L5.25 56.25 Z" class="st1"/>
				</g>
				<g id="group311-5" transform="translate(2.25,-2.25)" v:mID="311" v:groupContext="group" v:layerMember="0">
					<title>Sheet.311</title>
					<g id="shape312-6" v:mID="312" v:groupContext="shape" v:layerMember="0" transform="translate(0,-30)">
						<title>Sheet.312</title>
						<path d="M54.75 56.25 L54.75 53.25 C54.75 51.6 53.4 50.25 51.75 50.25 L3 50.25 C1.35 50.25 -0 51.6 0 53.25
									 L0 56.25 L54.75 56.25 Z" class="st2"/>
					</g>
					<g id="shape313-8" v:mID="313" v:groupContext="shape" v:layerMember="0">
						<title>Sheet.313</title>
						<path d="M0 31.5 L0 53.25 C0 54.9 1.35 56.25 3 56.25 L51.75 56.25 C53.4 56.25 54.75 54.9 54.75 53.25 L54.75
									 31.5 L0 31.5 Z" class="st2"/>
					</g>
				</g>
			</g>
		</g>
	</g>
</svg>
