<?xml version="1.0" encoding="UTF-8" standalone="no"?>
<!DOCTYPE svg PUBLIC "-//W3C//DTD SVG 1.1//EN" "http://www.w3.org/Graphics/SVG/1.1/DTD/svg11.dtd">
<!-- Generated by Microsoft Visio, SVG Export Document, Shared.svg Page-1 -->
<svg xmlns="http://www.w3.org/2000/svg" xmlns:xlink="http://www.w3.org/1999/xlink" xmlns:ev="http://www.w3.org/2001/xml-events"
		xmlns:v="http://schemas.microsoft.com/visio/2003/SVGExtensions/" width="0.946094in" height="0.96875in"
		viewBox="0 0 68.1187 69.75" xml:space="preserve" color-interpolation-filters="sRGB" class="st3">
	<v:documentProperties v:langID="4108" v:metric="true" v:viewMarkup="false"/>

	<style type="text/css">
	<![CDATA[
		.st1 {fill:#ffffff;stroke:none;stroke-linecap:butt;stroke-width:0.75}
		.st2 {fill:#515150;stroke:none;stroke-linecap:butt;stroke-width:0.75}
		.st3 {fill:none;fill-rule:evenodd;font-size:12px;overflow:visible;stroke-linecap:square;stroke-miterlimit:3}
	]]>
	</style>

	<g v:mID="0" v:index="1" v:groupContext="foregroundPage">
		<title>Page-1</title>
		<v:pageProperties v:drawingScale="0.0393701" v:pageScale="0.0393701" v:drawingUnits="24" v:shadowOffsetX="8.50394"
				v:shadowOffsetY="-8.50394"/>
		<v:layer v:name="symbols" v:index="0"/>
		<g id="group337-1" transform="translate(8.30625,-4.6875)" v:mID="337" v:groupContext="group" v:layerMember="0">
			<title>Document, Shared</title>
			<g id="group338-2" v:mID="338" v:groupContext="group" v:layerMember="0">
				<title>Sheet.338</title>
				<g id="group339-3" transform="translate(-2.83773E-13,-5.25)" v:mID="339" v:groupContext="group" v:layerMember="0">
					<title>Sheet.339</title>
					<g id="shape340-4" v:mID="340" v:groupContext="shape" v:layerMember="0">
						<title>Sheet.340</title>
						<path d="M0 69.75 L0 18 L30.9 18 L44.25 31.35 L44.25 69.75 L0 69.75 Z" class="st1"/>
					</g>
					<g id="shape341-6" v:mID="341" v:groupContext="shape" v:layerMember="0" transform="translate(2.25,-2.25)">
						<title>Sheet.341</title>
						<path d="M39.75 69.75 L39.75 34.5 L27.75 22.5 L0 22.5 L0 69.75 L39.75 69.75 ZM2.25 67.5 L2.25 24.75 L26.25
									 24.75 L26.25 36.75 L37.5 36.75 L37.5 67.5 L2.25 67.5 Z" class="st2"/>
					</g>
					<g id="shape342-8" v:mID="342" v:groupContext="shape" v:layerMember="0" transform="translate(12,-24.75)">
						<title>Sheet.342</title>
						<rect x="0" y="67.5" width="20.25" height="2.25" class="st2"/>
					</g>
					<g id="shape343-10" v:mID="343" v:groupContext="shape" v:layerMember="0" transform="translate(12,-18.75)">
						<title>Sheet.343</title>
						<rect x="0" y="67.5" width="20.25" height="2.25" class="st2"/>
					</g>
					<g id="shape344-12" v:mID="344" v:groupContext="shape" v:layerMember="0" transform="translate(12,-12.75)">
						<title>Sheet.344</title>
						<rect x="0" y="67.5" width="20.25" height="2.25" class="st2"/>
					</g>
				</g>
				<g id="group345-14" transform="translate(24,-2.84217E-13)" v:mID="345" v:groupContext="group" v:layerMember="0">
					<title>Sheet.345</title>
					<g id="shape346-15" v:mID="346" v:groupContext="shape" v:layerMember="0">
						<title>Sheet.346</title>
						<path d="M16.12 69.75 C7.2 69.75 0 62.55 0 53.63 C0 44.7 7.2 37.5 16.12 37.5 C25.05 37.5 32.25 44.7 32.25
									 53.63 C32.25 62.55 25.05 69.75 16.12 69.75 Z" class="st1"/>
					</g>
					<g id="shape347-17" v:mID="347" v:groupContext="shape" v:layerMember="0" transform="translate(2.25,-2.25)">
						<title>Sheet.347</title>
						<path d="M13.87 42 C6.22 42 0 48.23 0 55.88 C0 63.53 6.22 69.75 13.87 69.75 C21.52 69.75 27.75 63.53 27.75
									 55.88 C27.75 48.23 21.53 42 13.87 42 Z" class="st2"/>
					</g>
					<g id="group348-19" transform="translate(5.25,-6.375)" v:mID="348" v:groupContext="group" v:layerMember="0">
						<title>Sheet.348</title>
						<g id="shape349-20" v:mID="349" v:groupContext="shape" v:layerMember="0"
								transform="translate(3.375,-13.125)">
							<title>Sheet.349</title>
							<path d="M9 68.25 C10.05 69.3 11.77 69.3 12.82 68.25 C13.87 67.2 13.87 65.48 12.82 64.43 C11.77 63.38
										 10.05 63.38 9 64.43 C9 64.43 8.92 64.5 8.92 64.5 C8.55 64.43 8.17 64.43 7.72 64.43 C4.35
										 64.43 1.5 66.3 0 69.08 C0.67 69.15 1.27 69.38 1.8 69.75 C3 67.73 5.17 66.38 7.65 66.38 C7.8
										 66.38 7.95 66.38 8.1 66.38 C8.17 67.05 8.47 67.73 9 68.25 Z" class="st1"/>
						</g>
						<g id="shape350-22" v:mID="350" v:groupContext="shape" v:layerMember="0"
								transform="translate(9.99201E-14,-0.975)">
							<title>Sheet.350</title>
							<path d="M10.2 67.73 C7.57 67.35 5.47 65.55 4.65 63.15 C4.72 63.08 4.8 63 4.87 62.93 C5.92 61.88 5.92
										 60.15 4.87 59.1 C3.82 58.05 2.1 58.05 1.05 59.1 C-0 60.15 -0 61.88 1.05 62.93 C1.57 63.45
										 2.18 63.68 2.85 63.75 C3.97 67.13 7.05 69.53 10.65 69.75 C10.35 69.08 10.2 68.48 10.2 67.73
										 C10.2 67.73 10.2 67.73 10.2 67.73 Z" class="st1"/>
						</g>
						<g id="shape351-24" v:mID="351" v:groupContext="shape" v:layerMember="0"
								transform="translate(11.325,1.13687E-13)">
							<title>Sheet.351</title>
							<path d="M8.55 60 C8.55 58.05 7.87 56.18 6.75 54.75 C6.52 55.28 6.22 55.73 5.85 56.1 C5.77 56.18 5.62
										 56.33 5.55 56.4 C6.22 57.45 6.6 58.73 6.6 60 C6.6 61.8 5.85 63.45 4.72 64.73 C3.67 63.83
										 2.1 63.9 1.05 64.88 C-0 65.93 0 67.65 1.05 68.7 C2.1 69.75 3.82 69.75 4.87 68.7 C5.47 68.1
										 5.77 67.2 5.62 66.45 C7.42 64.88 8.55 62.55 8.55 60 Z" class="st1"/>
						</g>
					</g>
				</g>
			</g>
		</g>
	</g>
</svg>
