<?xml version="1.0" encoding="UTF-8" standalone="no"?>
<!DOCTYPE svg PUBLIC "-//W3C//DTD SVG 1.1//EN" "http://www.w3.org/Graphics/SVG/1.1/DTD/svg11.dtd">
<!-- Generated by Microsoft Visio, SVG Export Documents.svg Page-1 -->
<svg xmlns="http://www.w3.org/2000/svg" xmlns:xlink="http://www.w3.org/1999/xlink" xmlns:ev="http://www.w3.org/2001/xml-events"
		xmlns:v="http://schemas.microsoft.com/visio/2003/SVGExtensions/" width="0.9375in" height="1.01563in"
		viewBox="0 0 67.5 73.125" xml:space="preserve" color-interpolation-filters="sRGB" class="st3">
	<v:documentProperties v:langID="4108" v:metric="true" v:viewMarkup="false"/>

	<style type="text/css">
	<![CDATA[
		.st1 {fill:#ffffff;stroke:none;stroke-linecap:butt;stroke-width:0.75}
		.st2 {fill:#515050;stroke:none;stroke-linecap:butt;stroke-width:0.75}
		.st3 {fill:none;fill-rule:evenodd;font-size:12px;overflow:visible;stroke-linecap:square;stroke-miterlimit:3}
	]]>
	</style>

	<g v:mID="0" v:index="1" v:groupContext="foregroundPage">
		<title>Page-1</title>
		<v:pageProperties v:drawingScale="0.0393701" v:pageScale="0.0393701" v:drawingUnits="24" v:shadowOffsetX="8.50394"
				v:shadowOffsetY="-8.50394"/>
		<v:layer v:name="symbols" v:index="0"/>
		<g id="group352-1" transform="translate(8.25,-7.3125)" v:mID="352" v:groupContext="group" v:layerMember="0">
			<title>Documents</title>
			<g id="shape353-2" v:mID="353" v:groupContext="shape" v:layerMember="0" transform="translate(-2.59792E-13,-6.75)">
				<title>Sheet.353</title>
				<path d="M0 73.12 L0 21.38 L30.9 21.38 L44.25 34.73 L44.25 73.12 L0 73.12 Z" class="st1"/>
			</g>
			<g id="shape354-4" v:mID="354" v:groupContext="shape" v:layerMember="0" transform="translate(2.25,-9)">
				<title>Sheet.354</title>
				<path d="M39.75 73.12 L39.75 37.87 L27.75 25.87 L0 25.87 L0 73.12 L39.75 73.12 ZM2.25 70.87 L2.25 28.12 L26.25 28.12
							 L26.25 40.12 L37.5 40.12 L37.5 70.87 L2.25 70.87 Z" class="st2"/>
			</g>
			<g id="shape355-6" v:mID="355" v:groupContext="shape" v:layerMember="0" transform="translate(6.75,0)">
				<title>Sheet.355</title>
				<path d="M0 73.12 L0 21.38 L30.9 21.38 L44.25 34.73 L44.25 73.12 L0 73.12 Z" class="st1"/>
			</g>
			<g id="shape356-8" v:mID="356" v:groupContext="shape" v:layerMember="0" transform="translate(9,-2.25)">
				<title>Sheet.356</title>
				<path d="M39.75 73.12 L39.75 37.87 L27.75 25.87 L0 25.87 L0 73.12 L39.75 73.12 ZM2.25 70.87 L2.25 28.12 L26.25 28.12
							 L26.25 40.12 L37.5 40.12 L37.5 70.87 L2.25 70.87 Z" class="st2"/>
			</g>
			<g id="shape357-10" v:mID="357" v:groupContext="shape" v:layerMember="0" transform="translate(18.75,-24.75)">
				<title>Sheet.357</title>
				<rect x="0" y="70.875" width="20.25" height="2.25" class="st2"/>
			</g>
			<g id="shape358-12" v:mID="358" v:groupContext="shape" v:layerMember="0" transform="translate(18.75,-18.75)">
				<title>Sheet.358</title>
				<rect x="0" y="70.875" width="20.25" height="2.25" class="st2"/>
			</g>
			<g id="shape359-14" v:mID="359" v:groupContext="shape" v:layerMember="0" transform="translate(18.75,-12.75)">
				<title>Sheet.359</title>
				<rect x="0" y="70.875" width="20.25" height="2.25" class="st2"/>
			</g>
		</g>
	</g>
</svg>
