<?xml version="1.0" encoding="UTF-8" standalone="no"?>
<!DOCTYPE svg PUBLIC "-//W3C//DTD SVG 1.1//EN" "http://www.w3.org/Graphics/SVG/1.1/DTD/svg11.dtd">
<!-- Generated by Microsoft Visio, SVG Export Documents, Shared.svg Page-1 -->
<svg xmlns="http://www.w3.org/2000/svg" xmlns:xlink="http://www.w3.org/1999/xlink" xmlns:ev="http://www.w3.org/2001/xml-events"
		xmlns:v="http://schemas.microsoft.com/visio/2003/SVGExtensions/" width="0.993099in" height="0.984375in"
		viewBox="0 0 71.5031 70.875" xml:space="preserve" color-interpolation-filters="sRGB" class="st4">
	<v:documentProperties v:langID="4108" v:metric="true" v:viewMarkup="false"/>

	<style type="text/css">
	<![CDATA[
		.st1 {fill:#ffffff;stroke:none;stroke-linecap:butt;stroke-width:0.75}
		.st2 {fill:#515050;stroke:none;stroke-linecap:butt;stroke-width:0.75}
		.st3 {fill:#515150;stroke:none;stroke-linecap:butt;stroke-width:0.75}
		.st4 {fill:none;fill-rule:evenodd;font-size:12px;overflow:visible;stroke-linecap:square;stroke-miterlimit:3}
	]]>
	</style>

	<g v:mID="0" v:index="1" v:groupContext="foregroundPage">
		<title>Page-1</title>
		<v:pageProperties v:drawingScale="0.0393701" v:pageScale="0.0393701" v:drawingUnits="24" v:shadowOffsetX="8.50394"
				v:shadowOffsetY="-8.50394"/>
		<v:layer v:name="symbols" v:index="0"/>
		<g id="group360-1" transform="translate(8.50313,-3.5625)" v:mID="360" v:groupContext="group" v:layerMember="0">
			<title>Documents, Shared</title>
			<g id="group361-2" v:mID="361" v:groupContext="group" v:layerMember="0">
				<title>Sheet.361</title>
				<g id="group362-3" transform="translate(3.11751E-13,-3)" v:mID="362" v:groupContext="group" v:layerMember="0">
					<title>Sheet.362</title>
					<g id="shape363-4" v:mID="363" v:groupContext="shape" v:layerMember="0"
							transform="translate(-2.55795E-13,-6.75)">
						<title>Sheet.363</title>
						<path d="M0 70.88 L0 19.13 L30.9 19.13 L44.25 32.48 L44.25 70.88 L0 70.88 Z" class="st1"/>
					</g>
					<g id="shape364-6" v:mID="364" v:groupContext="shape" v:layerMember="0" transform="translate(2.25,-9)">
						<title>Sheet.364</title>
						<path d="M39.75 70.88 L39.75 35.63 L27.75 23.63 L0 23.63 L0 70.88 L39.75 70.88 ZM2.25 68.63 L2.25 25.88 L26.25
									 25.88 L26.25 37.88 L37.5 37.88 L37.5 68.63 L2.25 68.63 Z" class="st2"/>
					</g>
					<g id="shape365-8" v:mID="365" v:groupContext="shape" v:layerMember="0" transform="translate(6.75,0)">
						<title>Sheet.365</title>
						<path d="M0 70.88 L0 19.13 L30.9 19.13 L44.25 32.48 L44.25 70.88 L0 70.88 Z" class="st1"/>
					</g>
					<g id="shape366-10" v:mID="366" v:groupContext="shape" v:layerMember="0" transform="translate(9,-2.25)">
						<title>Sheet.366</title>
						<path d="M39.75 70.88 L39.75 35.63 L27.75 23.63 L0 23.63 L0 70.88 L39.75 70.88 ZM2.25 68.63 L2.25 25.88 L26.25
									 25.88 L26.25 37.88 L37.5 37.88 L37.5 68.63 L2.25 68.63 Z" class="st2"/>
					</g>
					<g id="shape367-12" v:mID="367" v:groupContext="shape" v:layerMember="0" transform="translate(18.75,-24.75)">
						<title>Sheet.367</title>
						<rect x="0" y="68.625" width="20.25" height="2.25" class="st2"/>
					</g>
					<g id="shape368-14" v:mID="368" v:groupContext="shape" v:layerMember="0" transform="translate(18.75,-18.75)">
						<title>Sheet.368</title>
						<rect x="0" y="68.625" width="20.25" height="2.25" class="st2"/>
					</g>
					<g id="shape369-16" v:mID="369" v:groupContext="shape" v:layerMember="0" transform="translate(18.75,-12.75)">
						<title>Sheet.369</title>
						<rect x="0" y="68.625" width="20.25" height="2.25" class="st2"/>
					</g>
				</g>
				<g id="group370-18" transform="translate(30,0)" v:mID="370" v:groupContext="group" v:layerMember="0">
					<title>Sheet.370</title>
					<g id="shape371-19" v:mID="371" v:groupContext="shape" v:layerMember="0">
						<title>Sheet.371</title>
						<path d="M16.13 70.88 C7.2 70.88 0 63.68 0 54.75 C0 45.83 7.2 38.63 16.13 38.63 C25.05 38.63 32.25 45.83
									 32.25 54.75 C32.25 63.68 25.05 70.88 16.13 70.88 Z" class="st1"/>
					</g>
					<g id="shape372-21" v:mID="372" v:groupContext="shape" v:layerMember="0" transform="translate(2.25,-2.25)">
						<title>Sheet.372</title>
						<path d="M13.88 43.13 C6.22 43.13 0 49.35 0 57 C0 64.65 6.22 70.88 13.88 70.88 C21.53 70.88 27.75 64.65 27.75
									 57 C27.75 49.35 21.53 43.13 13.88 43.13 Z" class="st3"/>
					</g>
					<g id="group373-23" transform="translate(5.25,-6.375)" v:mID="373" v:groupContext="group" v:layerMember="0">
						<title>Sheet.373</title>
						<g id="shape374-24" v:mID="374" v:groupContext="shape" v:layerMember="0"
								transform="translate(3.375,-13.125)">
							<title>Sheet.374</title>
							<path d="M9 69.38 C10.05 70.43 11.78 70.43 12.82 69.38 C13.88 68.33 13.88 66.6 12.82 65.55 C11.78 64.5
										 10.05 64.5 9 65.55 C9 65.55 8.92 65.63 8.92 65.63 C8.55 65.55 8.18 65.55 7.73 65.55 C4.35
										 65.55 1.5 67.43 0 70.2 C0.67 70.28 1.28 70.5 1.8 70.88 C3 68.85 5.17 67.5 7.65 67.5 C7.8
										 67.5 7.95 67.5 8.1 67.5 C8.18 68.18 8.48 68.85 9 69.38 Z" class="st1"/>
						</g>
						<g id="shape375-26" v:mID="375" v:groupContext="shape" v:layerMember="0"
								transform="translate(9.99201E-14,-0.975)">
							<title>Sheet.375</title>
							<path d="M10.2 68.85 C7.57 68.48 5.47 66.68 4.65 64.28 C4.73 64.2 4.8 64.13 4.87 64.05 C5.92 63 5.92
										 61.28 4.87 60.23 C3.82 59.18 2.1 59.18 1.05 60.23 C-0 61.28 -0 63 1.05 64.05 C1.57 64.58
										 2.18 64.8 2.85 64.88 C3.98 68.25 7.05 70.65 10.65 70.88 C10.35 70.2 10.2 69.6 10.2 68.85
										 C10.2 68.85 10.2 68.85 10.2 68.85 Z" class="st1"/>
						</g>
						<g id="shape376-28" v:mID="376" v:groupContext="shape" v:layerMember="0"
								transform="translate(11.325,1.13687E-13)">
							<title>Sheet.376</title>
							<path d="M8.55 61.13 C8.55 59.18 7.88 57.3 6.75 55.88 C6.52 56.4 6.23 56.85 5.85 57.23 C5.78 57.3 5.63
										 57.45 5.55 57.53 C6.23 58.58 6.6 59.85 6.6 61.13 C6.6 62.93 5.85 64.58 4.73 65.85 C3.68
										 64.95 2.1 65.03 1.05 66 C-0 67.05 0 68.78 1.05 69.83 C2.1 70.88 3.82 70.88 4.87 69.83 C5.47
										 69.23 5.78 68.33 5.62 67.58 C7.43 66 8.55 63.68 8.55 61.13 Z" class="st1"/>
						</g>
					</g>
				</g>
			</g>
		</g>
	</g>
</svg>
