<?xml version="1.0" encoding="UTF-8" standalone="no"?>
<!DOCTYPE svg PUBLIC "-//W3C//DTD SVG 1.1//EN" "http://www.w3.org/Graphics/SVG/1.1/DTD/svg11.dtd">
<!-- Generated by Microsoft Visio, SVG Export Download.svg Page-1 -->
<svg xmlns="http://www.w3.org/2000/svg" xmlns:xlink="http://www.w3.org/1999/xlink" xmlns:ev="http://www.w3.org/2001/xml-events"
		xmlns:v="http://schemas.microsoft.com/visio/2003/SVGExtensions/" width="0.875in" height="0.9375in" viewBox="0 0 63 67.5"
		xml:space="preserve" color-interpolation-filters="sRGB" class="st5">
	<v:documentProperties v:langID="4108" v:metric="true" v:viewMarkup="false"/>

	<style type="text/css">
	<![CDATA[
		.st1 {fill:#ffffff;stroke:none;stroke-linecap:butt;stroke-width:0.75}
		.st2 {fill:#515050;stroke:none;stroke-linecap:butt;stroke-width:0.75}
		.st3 {fill:#ffffff}
		.st4 {stroke:none;stroke-linecap:butt;stroke-width:0.75}
		.st5 {fill:none;fill-rule:evenodd;font-size:12px;overflow:visible;stroke-linecap:square;stroke-miterlimit:3}
	]]>
	</style>

	<g v:mID="0" v:index="1" v:groupContext="foregroundPage">
		<title>Page-1</title>
		<v:pageProperties v:drawingScale="0.0393701" v:pageScale="0.0393701" v:drawingUnits="24" v:shadowOffsetX="8.50394"
				v:shadowOffsetY="-8.50394"/>
		<v:layer v:name="symbols" v:index="0"/>
		<g id="group377-1" transform="translate(8.0625,-0.9375)" v:mID="377" v:groupContext="group" v:layerMember="0">
			<title>Download</title>
			<g id="shape378-2" v:mID="378" v:groupContext="shape" v:layerMember="0" transform="translate(0,-8.25)">
				<title>Sheet.378</title>
				<path d="M0 67.5 L0 15.75 L30.9 15.75 L44.25 29.1 L44.25 67.5 L0 67.5 Z" class="st1"/>
			</g>
			<g id="shape379-4" v:mID="379" v:groupContext="shape" v:layerMember="0" transform="translate(2.25,-10.5)">
				<title>Sheet.379</title>
				<path d="M39.75 67.5 L39.75 32.25 L27.75 20.25 L0 20.25 L0 67.5 L39.75 67.5 ZM2.25 65.25 L2.25 22.5 L26.25 22.5 L26.25
							 34.5 L37.5 34.5 L37.5 65.25 L2.25 65.25 Z" class="st2"/>
			</g>
			<g id="shape380-6" v:mID="380" v:groupContext="shape" v:layerMember="0" transform="translate(12,-33)">
				<title>Sheet.380</title>
				<rect x="0" y="65.25" width="20.25" height="2.25" class="st2"/>
			</g>
			<g id="shape381-8" v:mID="381" v:groupContext="shape" v:layerMember="0" transform="translate(12,-27)">
				<title>Sheet.381</title>
				<rect x="0" y="65.25" width="20.25" height="2.25" class="st2"/>
			</g>
			<g id="shape382-10" v:mID="382" v:groupContext="shape" v:layerMember="0" transform="translate(12,-21)">
				<title>Sheet.382</title>
				<rect x="0" y="65.25" width="20.25" height="2.25" class="st2"/>
			</g>
			<g id="group383-12" transform="translate(31.5,-5.1)" v:mID="383" v:groupContext="group" v:layerMember="0">
				<title>Sheet.383</title>
				<g id="shape384-13" v:mID="384" v:groupContext="shape" v:layerMember="0">
					<title>Sheet.384</title>
					<path d="M0 57 L0.15 46.12 L6 52.12 L6 40.35 L15 40.35 L15 52.2 L21 46.2 L21 57 L10.5 67.5 L0 57 Z" class="st1"/>
				</g>
				<g id="shape385-15" v:mID="385" v:groupContext="shape" v:layerMember="0" transform="translate(2.25,-3.15)">
					<title>Sheet.385</title>
					<path d="M6 60.75 L0.08 54.75 L0 59.25 L8.25 67.5 L16.5 59.25 L16.5 54.75 L10.5 60.75 L10.5 45.75 L6 45.75 L6
								 60.75 Z" class="st2"/>
				</g>
			</g>
			<g id="shape386-17" v:mID="386" v:groupContext="shape" v:layerMember="0" transform="translate(32.25,0)">
				<title>Sheet.386</title>
				<path d="M0 67.5 L0 59.25 L19.5 59.25 L19.5 67.5 L0 67.5 Z" class="st3"/>
				<path d="M0 67.5 L0 59.25 L19.5 59.25 L19.5 67.5" class="st4"/>
			</g>
			<g id="shape387-20" v:mID="387" v:groupContext="shape" v:layerMember="0" transform="translate(34.5,-2.25)">
				<title>Sheet.387</title>
				<rect x="0" y="63.75" width="15" height="3.75" class="st2"/>
			</g>
		</g>
	</g>
</svg>
