<?xml version="1.0" encoding="UTF-8" standalone="no"?>
<!DOCTYPE svg PUBLIC "-//W3C//DTD SVG 1.1//EN" "http://www.w3.org/Graphics/SVG/1.1/DTD/svg11.dtd">
<!-- Generated by Microsoft Visio, SVG Export Email, Approved.svg Page-1 -->
<svg xmlns="http://www.w3.org/2000/svg" xmlns:xlink="http://www.w3.org/1999/xlink" xmlns:ev="http://www.w3.org/2001/xml-events"
		xmlns:v="http://schemas.microsoft.com/visio/2003/SVGExtensions/" width="1.0375in" height="0.828125in"
		viewBox="0 0 74.7 59.625" xml:space="preserve" color-interpolation-filters="sRGB" class="st3">
	<v:documentProperties v:langID="4108" v:metric="true" v:viewMarkup="false"/>

	<style type="text/css">
	<![CDATA[
		.st1 {fill:#ffffff;stroke:none;stroke-linecap:butt;stroke-width:0.75}
		.st2 {fill:#505050;stroke:none;stroke-linecap:butt;stroke-width:0.75}
		.st3 {fill:none;fill-rule:evenodd;font-size:12px;overflow:visible;stroke-linecap:square;stroke-miterlimit:3}
	]]>
	</style>

	<g v:mID="0" v:index="1" v:groupContext="foregroundPage">
		<title>Page-1</title>
		<v:pageProperties v:drawingScale="0.0393701" v:pageScale="0.0393701" v:drawingUnits="24" v:shadowOffsetX="8.50394"
				v:shadowOffsetY="-8.50394"/>
		<v:layer v:name="symbols" v:index="0"/>
		<g id="group404-1" transform="translate(7.9875,-0.75)" v:mID="404" v:groupContext="group" v:layerMember="0">
			<title>Email, Approved</title>
			<g id="group405-2" transform="translate(0,-10.125)" v:mID="405" v:groupContext="group" v:layerMember="0">
				<title>Sheet.405</title>
				<g id="shape406-3" v:mID="406" v:groupContext="shape" v:layerMember="0">
					<title>Sheet.406</title>
					<rect x="0" y="18.375" width="51.75" height="41.25" class="st1"/>
				</g>
				<g id="shape407-5" v:mID="407" v:groupContext="shape" v:layerMember="0" transform="translate(38.25,-27)">
					<title>Sheet.407</title>
					<rect x="0" y="52.875" width="6" height="6.75" class="st2"/>
				</g>
				<g id="shape408-7" v:mID="408" v:groupContext="shape" v:layerMember="0" transform="translate(11.25,-18)">
					<title>Sheet.408</title>
					<rect x="0" y="57.375" width="21" height="2.25" class="st2"/>
				</g>
				<g id="shape409-9" v:mID="409" v:groupContext="shape" v:layerMember="0" transform="translate(11.25,-12)">
					<title>Sheet.409</title>
					<rect x="0" y="57.375" width="25.5" height="2.25" class="st2"/>
				</g>
				<g id="shape410-11" v:mID="410" v:groupContext="shape" v:layerMember="0" transform="translate(2.25,-2.25)">
					<title>Sheet.410</title>
					<path d="M45 25.13 L45 57.38 L2.25 57.38 L2.25 25.13 L45 25.13 ZM47.25 22.88 L0 22.88 L0 59.63 L47.25 59.63 L47.25
								 22.88 Z" class="st2"/>
				</g>
			</g>
			<g id="group411-13" transform="translate(28.05,0)" v:mID="411" v:groupContext="group" v:layerMember="0">
				<title>Sheet.411</title>
				<g id="shape412-14" v:mID="412" v:groupContext="shape" v:layerMember="0">
					<title>Sheet.412</title>
					<path d="M1.13 45.83 C-0 44.63 0.08 42.68 1.28 41.63 L4.05 39.08 C4.58 38.63 5.32 38.33 6 38.33 C6.83 38.33 7.72
								 38.7 8.25 39.38 L12.98 44.55 L24.15 29.78 C24.75 29.03 25.65 28.58 26.55 28.58 C27.23 28.58 27.9
								 28.8 28.43 29.25 L31.35 31.65 C31.95 32.1 32.33 32.85 32.48 33.68 C32.55 34.5 32.33 35.25 31.88
								 35.93 L13.43 59.63 L1.13 45.83 Z" class="st1"/>
				</g>
				<g id="shape413-16" v:mID="413" v:groupContext="shape" v:layerMember="0" transform="translate(2.55,-3.45)">
					<title>Sheet.413</title>
					<path d="M27.75 37.88 L10.8 59.63 L0.3 47.85 C0 47.55 -0 47.03 0.3 46.8 L3.08 44.25 C3.38 43.95 3.83 44.03 4.12
								 44.33 L10.72 51.53 L23.55 34.58 C23.85 34.2 24.3 34.2 24.67 34.43 L27.6 36.83 C27.97 36.98 27.97
								 37.5 27.75 37.88 Z" class="st2"/>
				</g>
			</g>
		</g>
	</g>
</svg>
