<?xml version="1.0" encoding="UTF-8" standalone="no"?>
<!DOCTYPE svg PUBLIC "-//W3C//DTD SVG 1.1//EN" "http://www.w3.org/Graphics/SVG/1.1/DTD/svg11.dtd">
<!-- Generated by Microsoft Visio, SVG Export Email, Rejected.svg Page-1 -->
<svg xmlns="http://www.w3.org/2000/svg" xmlns:xlink="http://www.w3.org/1999/xlink" xmlns:ev="http://www.w3.org/2001/xml-events"
		xmlns:v="http://schemas.microsoft.com/visio/2003/SVGExtensions/" width="1in" height="0.8125in" viewBox="0 0 72 58.5"
		xml:space="preserve" color-interpolation-filters="sRGB" class="st3">
	<v:documentProperties v:langID="4108" v:metric="true" v:viewMarkup="false"/>

	<style type="text/css">
	<![CDATA[
		.st1 {fill:#ffffff;stroke:none;stroke-linecap:butt;stroke-width:0.75}
		.st2 {fill:#505050;stroke:none;stroke-linecap:butt;stroke-width:0.75}
		.st3 {fill:none;fill-rule:evenodd;font-size:12px;overflow:visible;stroke-linecap:square;stroke-miterlimit:3}
	]]>
	</style>

	<g v:mID="0" v:index="1" v:groupContext="foregroundPage">
		<title>Page-1</title>
		<v:pageProperties v:drawingScale="0.0393701" v:pageScale="0.0393701" v:drawingUnits="24" v:shadowOffsetX="8.50394"
				v:shadowOffsetY="-8.50394"/>
		<v:layer v:name="symbols" v:index="0"/>
		<g id="group426-1" transform="translate(7.97813,-1.95)" v:mID="426" v:groupContext="group" v:layerMember="0">
			<title>Email, Rejected</title>
			<g id="group427-2" transform="translate(-2.95763E-13,-7.725)" v:mID="427" v:groupContext="group" v:layerMember="0">
				<title>Sheet.427</title>
				<g id="shape428-3" v:mID="428" v:groupContext="shape" v:layerMember="0">
					<title>Sheet.428</title>
					<rect x="0" y="17.25" width="51.75" height="41.25" class="st1"/>
				</g>
				<g id="shape429-5" v:mID="429" v:groupContext="shape" v:layerMember="0" transform="translate(38.25,-27)">
					<title>Sheet.429</title>
					<rect x="0" y="51.75" width="6" height="6.75" class="st2"/>
				</g>
				<g id="shape430-7" v:mID="430" v:groupContext="shape" v:layerMember="0" transform="translate(11.25,-18)">
					<title>Sheet.430</title>
					<rect x="0" y="56.25" width="21" height="2.25" class="st2"/>
				</g>
				<g id="shape431-9" v:mID="431" v:groupContext="shape" v:layerMember="0" transform="translate(11.25,-12)">
					<title>Sheet.431</title>
					<rect x="0" y="56.25" width="25.5" height="2.25" class="st2"/>
				</g>
				<g id="shape432-11" v:mID="432" v:groupContext="shape" v:layerMember="0" transform="translate(2.25,-2.25)">
					<title>Sheet.432</title>
					<path d="M45 24 L45 56.25 L2.25 56.25 L2.25 24 L45 24 ZM47.25 21.75 L0 21.75 L0 58.5 L47.25 58.5 L47.25 21.75
								 Z" class="st2"/>
				</g>
			</g>
			<g id="group433-13" transform="translate(32.55,7.10543E-15)" v:mID="433" v:groupContext="group" v:layerMember="0">
				<title>Sheet.433</title>
				<g id="shape434-14" v:mID="434" v:groupContext="shape" v:layerMember="0">
					<title>Sheet.434</title>
					<path d="M20.78 58.5 C19.95 58.5 19.2 58.2 18.6 57.6 L13.35 52.35 L8.1 57.6 C7.5 58.2 6.75 58.5 5.93 58.5 C5.1
								 58.5 4.35 58.2 3.75 57.6 L1.2 55.05 C-0 53.85 0 51.9 1.2 50.7 L6.45 45.45 L1.2 40.2 C-0 39 0 37.05
								 1.2 35.85 L3.75 33.3 C4.35 32.7 5.1 32.4 5.93 32.4 C6.75 32.4 7.5 32.7 8.1 33.3 L13.35 38.55 L18.6
								 33.3 C19.2 32.7 19.95 32.4 20.78 32.4 C20.78 32.4 20.78 32.4 20.78 32.4 C21.6 32.4 22.35 32.7 22.95
								 33.3 L25.5 35.85 C26.7 37.05 26.7 39 25.5 40.2 L20.25 45.45 L25.5 50.7 C26.7 51.9 26.7 53.85 25.5
								 55.05 L22.95 57.6 C22.35 58.2 21.6 58.5 20.78 58.5 Z" class="st1"/>
				</g>
				<g id="shape435-16" v:mID="435" v:groupContext="shape" v:layerMember="0" transform="translate(2.4,-2.175)">
					<title>Sheet.435</title>
					<path d="M10.88 51.38 L4.05 58.2 C3.75 58.5 3.23 58.5 2.85 58.2 L0.3 55.65 C-0 55.35 0 54.83 0.3 54.45 L7.13
								 47.63 L0.3 40.73 C-0 40.43 0 39.9 0.3 39.53 L2.85 36.98 C3.15 36.68 3.68 36.68 4.05 36.98 L10.88
								 43.8 L17.7 36.98 C18 36.68 18.53 36.68 18.9 36.98 L21.45 39.53 C21.75 39.83 21.75 40.35 21.45 40.73
								 L14.63 47.55 L21.45 54.38 C21.75 54.68 21.75 55.2 21.45 55.58 L18.98 58.2 C18.68 58.5 18.15 58.5
								 17.78 58.2 L10.88 51.38 Z" class="st2"/>
				</g>
			</g>
		</g>
	</g>
</svg>
