<?xml version="1.0" encoding="UTF-8" standalone="no"?>
<!DOCTYPE svg PUBLIC "-//W3C//DTD SVG 1.1//EN" "http://www.w3.org/Graphics/SVG/1.1/DTD/svg11.dtd">
<!-- Generated by Microsoft Visio, SVG Export Email, Expired.svg Page-1 -->
<svg xmlns="http://www.w3.org/2000/svg" xmlns:xlink="http://www.w3.org/1999/xlink" xmlns:ev="http://www.w3.org/2001/xml-events"
		xmlns:v="http://schemas.microsoft.com/visio/2003/SVGExtensions/" width="1.04062in" height="0.84375in"
		viewBox="0 0 74.925 60.75" xml:space="preserve" color-interpolation-filters="sRGB" class="st3">
	<v:documentProperties v:langID="4108" v:metric="true" v:viewMarkup="false"/>

	<style type="text/css">
	<![CDATA[
		.st1 {fill:#ffffff;stroke:none;stroke-linecap:butt;stroke-width:0.75}
		.st2 {fill:#505050;stroke:none;stroke-linecap:butt;stroke-width:0.75}
		.st3 {fill:none;fill-rule:evenodd;font-size:12px;overflow:visible;stroke-linecap:square;stroke-miterlimit:3}
	]]>
	</style>

	<g v:mID="0" v:index="1" v:groupContext="foregroundPage">
		<title>Page-1</title>
		<v:pageProperties v:drawingScale="0.0393701" v:pageScale="0.0393701" v:drawingUnits="24" v:shadowOffsetX="8.50394"
				v:shadowOffsetY="-8.50394"/>
		<v:layer v:name="symbols" v:index="0"/>
		<g id="group414-1" transform="translate(8.24063,-1.0875)" v:mID="414" v:groupContext="group" v:layerMember="0">
			<title>Email, Expired</title>
			<g id="group415-2" transform="translate(3.03757E-13,-9.45)" v:mID="415" v:groupContext="group" v:layerMember="0">
				<title>Sheet.415</title>
				<g id="shape416-3" v:mID="416" v:groupContext="shape" v:layerMember="0">
					<title>Sheet.416</title>
					<rect x="0" y="19.5" width="51.75" height="41.25" class="st1"/>
				</g>
				<g id="shape417-5" v:mID="417" v:groupContext="shape" v:layerMember="0" transform="translate(38.25,-27)">
					<title>Sheet.417</title>
					<rect x="0" y="54" width="6" height="6.75" class="st2"/>
				</g>
				<g id="shape418-7" v:mID="418" v:groupContext="shape" v:layerMember="0" transform="translate(11.25,-18)">
					<title>Sheet.418</title>
					<rect x="0" y="58.5" width="21" height="2.25" class="st2"/>
				</g>
				<g id="shape419-9" v:mID="419" v:groupContext="shape" v:layerMember="0" transform="translate(11.25,-12)">
					<title>Sheet.419</title>
					<rect x="0" y="58.5" width="25.5" height="2.25" class="st2"/>
				</g>
				<g id="shape420-11" v:mID="420" v:groupContext="shape" v:layerMember="0" transform="translate(2.25,-2.25)">
					<title>Sheet.420</title>
					<path d="M45 26.25 L45 58.5 L2.25 58.5 L2.25 26.25 L45 26.25 ZM47.25 24 L0 24 L0 60.75 L47.25 60.75 L47.25 24
								 Z" class="st2"/>
				</g>
			</g>
			<g id="group421-13" transform="translate(33.75,0)" v:mID="421" v:groupContext="group" v:layerMember="0">
				<title>Sheet.421</title>
				<g id="group422-14" v:mID="422" v:groupContext="group" v:layerMember="0">
					<title>Layer_3_5_</title>
					<g id="shape423-15" v:mID="423" v:groupContext="shape" v:layerMember="0">
						<title>Sheet.423</title>
						<path d="M13.42 60.75 C6.68 60.75 3.97 58.43 3.52 57.9 L2.77 57.15 L0 33.75 L0 33.6 C0 33.53 0 33.15 0 33.15
									 L0 33.08 L0 33 C0.82 28.05 10.27 28.05 13.42 28.05 C16.5 28.05 25.95 28.05 26.77 33 L26.77 33.23
									 L26.77 33.3 C26.77 33.38 26.77 33.68 26.77 33.68 L26.77 33.83 L26.77 33.9 L24 57.23 L23.25 57.98
									 C22.87 58.43 20.17 60.75 13.42 60.75 Z" class="st1"/>
					</g>
					<g id="shape424-17" v:mID="424" v:groupContext="shape" v:layerMember="0" transform="translate(2.175,-2.1)">
						<title>Sheet.424</title>
						<path d="M11.25 60.75 C5.1 60.75 2.92 58.65 2.85 58.58 L2.7 58.43 L0 35.78 C0 35.7 0 35.55 0 35.55 C0.15
									 34.58 1.57 32.33 11.25 32.33 C20.92 32.33 22.35 34.58 22.5 35.48 L22.5 35.55 C22.5 35.63 22.5
									 35.78 22.5 35.78 L19.87 58.35 L19.65 58.58 C19.57 58.65 17.4 60.75 11.25 60.75 ZM3.9 56.18 C4.12
									 56.4 6.07 57.9 11.25 57.9 C16.35 57.9 18.3 56.4 18.6 56.18 L20.77 37.58 C19.35 38.25 16.57 39.08
									 11.25 39.08 C6 39.08 3.15 38.25 1.72 37.58 L3.9 56.18 ZM1.65 35.55 C2.17 36.08 4.2 37.5 11.25
									 37.5 C18.3 37.5 20.32 36.08 20.85 35.55 C20.4 35.03 18.45 33.83 11.25 33.83 C4.05 33.83 2.1
									 35.1 1.65 35.55 Z" class="st2"/>
					</g>
				</g>
				<g id="shape425-19" v:mID="425" v:groupContext="shape" v:layerMember="0" transform="translate(6.825,-8.4)">
					<title>Sheet.425</title>
					<path d="M12.82 54.6 L11.77 52.8 L9.15 54.3 L10.57 56.7 C10.65 56.85 10.57 57 10.35 57 L8.47 57 L8.47 55.95 L6.52
								 58.35 L8.47 60.75 L8.47 59.63 L9.97 59.63 C10.8 59.63 11.17 59.03 11.17 59.03 L12.9 56.1 C13.27
								 55.2 12.82 54.6 12.82 54.6 ZM2.85 57.08 C2.7 57.08 2.62 56.93 2.7 56.78 L3.6 55.13 L4.57 55.65 L3.22
								 52.73 L0 53.1 L0.97 53.7 L0.37 54.83 C0 55.5 0.3 56.18 0.3 56.18 L1.95 59.03 C2.55 59.85 3.3 59.78
								 3.3 59.78 L6 59.78 L6 57.15 L2.85 57.08 ZM6.82 50.25 L7.8 51.9 L6.9 52.43 L10.12 52.73 L11.4 49.8
								 L10.42 50.4 L9.75 49.35 C9.3 48.68 8.62 48.6 8.62 48.6 L4.8 48.6 C3.82 48.68 3.45 49.43 3.45 49.43
								 L2.32 51.23 L4.95 52.73 L6.45 50.33 C6.52 50.1 6.67 50.1 6.82 50.25 Z" class="st2"/>
				</g>
			</g>
		</g>
	</g>
</svg>
