<?xml version="1.0" encoding="UTF-8" standalone="no"?>
<!DOCTYPE svg PUBLIC "-//W3C//DTD SVG 1.1//EN" "http://www.w3.org/Graphics/SVG/1.1/DTD/svg11.dtd">
<!-- Generated by Microsoft Visio, SVG Export File; Key.svg Page-1 -->
<svg xmlns="http://www.w3.org/2000/svg" xmlns:xlink="http://www.w3.org/1999/xlink" xmlns:ev="http://www.w3.org/2001/xml-events"
		xmlns:v="http://schemas.microsoft.com/visio/2003/SVGExtensions/" width="0.96875in" height="0.96875in"
		viewBox="0 0 69.75 69.75" xml:space="preserve" color-interpolation-filters="sRGB" class="st3">
	<v:documentProperties v:langID="4108" v:metric="true" v:viewMarkup="false"/>

	<style type="text/css">
	<![CDATA[
		.st1 {fill:#ffffff;stroke:none;stroke-linecap:butt;stroke-width:0.75}
		.st2 {fill:#505150;stroke:none;stroke-linecap:butt;stroke-width:0.75}
		.st3 {fill:none;fill-rule:evenodd;font-size:12px;overflow:visible;stroke-linecap:square;stroke-miterlimit:3}
	]]>
	</style>

	<g v:mID="0" v:index="1" v:groupContext="foregroundPage">
		<title>Page-1</title>
		<v:pageProperties v:drawingScale="0.0393701" v:pageScale="0.0393701" v:drawingUnits="24" v:shadowOffsetX="8.50394"
				v:shadowOffsetY="-8.50394"/>
		<v:layer v:name="symbols" v:index="0"/>
		<g id="group436-1" transform="translate(8.625,-4.65)" v:mID="436" v:groupContext="group" v:layerMember="0">
			<title>File; Key</title>
			<g id="group437-2" transform="translate(-7.19425E-14,-5.325)" v:mID="437" v:groupContext="group" v:layerMember="0">
				<title>Sheet.437</title>
				<g id="shape438-3" v:mID="438" v:groupContext="shape" v:layerMember="0">
					<title>Sheet.438</title>
					<path d="M0 69.75 L0 18 L30.9 18 L44.25 31.35 L44.25 69.75 L0 69.75 Z" class="st1"/>
				</g>
				<g id="shape439-5" v:mID="439" v:groupContext="shape" v:layerMember="0" transform="translate(2.25,-2.25)">
					<title>Sheet.439</title>
					<path d="M39.75 69.75 L39.75 34.5 L27.75 22.5 L0 22.5 L0 69.75 L39.75 69.75 ZM2.25 67.5 L2.25 24.75 L26.25 24.75
								 L26.25 36.75 L37.5 36.75 L37.5 67.5 L2.25 67.5 Z" class="st2"/>
				</g>
				<g id="shape440-7" v:mID="440" v:groupContext="shape" v:layerMember="0" transform="translate(12,-24.75)">
					<title>Sheet.440</title>
					<rect x="0" y="67.5" width="20.25" height="2.25" class="st2"/>
				</g>
				<g id="shape441-9" v:mID="441" v:groupContext="shape" v:layerMember="0" transform="translate(12,-18.75)">
					<title>Sheet.441</title>
					<rect x="0" y="67.5" width="20.25" height="2.25" class="st2"/>
				</g>
				<g id="shape442-11" v:mID="442" v:groupContext="shape" v:layerMember="0" transform="translate(12,-12.75)">
					<title>Sheet.442</title>
					<rect x="0" y="67.5" width="20.25" height="2.25" class="st2"/>
				</g>
			</g>
			<g id="group443-13" transform="translate(33.75,2.55795E-13)" v:mID="443" v:groupContext="group" v:layerMember="0">
				<title>Sheet.443</title>
				<g id="shape444-14" v:mID="444" v:groupContext="shape" v:layerMember="0">
					<title>Sheet.444</title>
					<path d="M4.65 65.4 L8.63 69.75 L10.58 69.75 L15.75 64.35 L13.58 62.1 L15.08 60.52 L14.85 58.57 L13.28 56.85
								 L14.25 55.65 L14.25 53.32 C17.03 51.67 18.75 48.67 18.75 45.3 C18.75 40.13 14.55 35.92 9.38 35.92
								 C4.2 35.92 0 40.13 0 45.3 C0 48.67 1.73 51.67 4.58 53.32 L4.65 65.4 Z" class="st1"/>
				</g>
				<g id="shape445-16" v:mID="445" v:groupContext="shape" v:layerMember="0" transform="translate(2.4,-2.25)">
					<title>Sheet.445</title>
					<path d="M9.75 56.33 L9.75 54.23 C12.38 53.17 14.25 50.63 14.25 47.63 C14.25 43.73 11.03 40.5 7.13 40.5 C3.22
								 40.5 0 43.73 0 47.63 C0 50.63 1.87 53.25 4.58 54.3 L4.58 66.75 L7.35 69.75 L10.43 66.6 L8.25 64.35
								 L10.5 61.95 L10.5 61.8 L7.95 59.25 L9.68 57.15 L9.75 56.33 ZM7.13 43.5 C8.18 43.5 9 44.33 9 45.38
								 C9 46.43 8.18 47.25 7.13 47.25 C6.07 47.25 5.25 46.43 5.25 45.38 C5.25 44.33 6.07 43.5 7.13 43.5
								 Z" class="st2"/>
				</g>
			</g>
		</g>
	</g>
</svg>
