<?xml version="1.0" encoding="UTF-8" standalone="no"?>
<!DOCTYPE svg PUBLIC "-//W3C//DTD SVG 1.1//EN" "http://www.w3.org/Graphics/SVG/1.1/DTD/svg11.dtd">
<!-- Generated by Microsoft Visio, SVG Export Firewall - ghosted.svg Page-1 -->
<svg xmlns="http://www.w3.org/2000/svg" xmlns:xlink="http://www.w3.org/1999/xlink" xmlns:ev="http://www.w3.org/2001/xml-events"
		xmlns:v="http://schemas.microsoft.com/visio/2003/SVGExtensions/" width="0.9375in" height="0.875in" viewBox="0 0 67.5 63"
		xml:space="preserve" color-interpolation-filters="sRGB" class="st5">
	<v:documentProperties v:langID="4108" v:metric="true" v:viewMarkup="false"/>

	<style type="text/css">
	<![CDATA[
		.st1 {fill:#ffffff;stroke:none;stroke-linecap:butt;stroke-width:0.75}
		.st2 {fill:#9c9c9d;stroke:none;stroke-linecap:butt;stroke-width:0.75}
		.st3 {fill:none;stroke:none;stroke-linecap:butt;stroke-width:0.75}
		.st4 {fill:#cccbcb;stroke:none;stroke-linecap:butt;stroke-width:0.75}
		.st5 {fill:none;fill-rule:evenodd;font-size:12px;overflow:visible;stroke-linecap:square;stroke-miterlimit:3}
	]]>
	</style>

	<g v:mID="0" v:index="1" v:groupContext="foregroundPage">
		<title>Page-1</title>
		<v:pageProperties v:drawingScale="0.0393701" v:pageScale="0.0393701" v:drawingUnits="24" v:shadowOffsetX="8.50394"
				v:shadowOffsetY="-8.50394"/>
		<v:layer v:name="symbols" v:index="0"/>
		<g id="group501-1" transform="translate(8.35312,-8.4375)" v:mID="501" v:groupContext="group" v:layerMember="0">
			<title>Firewall - ghosted</title>
			<g id="group502-2" v:mID="502" v:groupContext="group" v:layerMember="0">
				<title>Sheet.502</title>
				<g id="shape503-3" v:mID="503" v:groupContext="shape" v:layerMember="0">
					<title>Sheet.503</title>
					<rect x="0" y="15.75" width="51.75" height="47.25" class="st1"/>
				</g>
				<g id="group504-5" transform="translate(2.25,-2.25)" v:mID="504" v:groupContext="group" v:layerMember="0">
					<title>Sheet.504</title>
					<g id="shape505-6" v:mID="505" v:groupContext="shape" v:layerMember="0"
							transform="translate(2.9976E-15,-33.75)">
						<title>Sheet.505</title>
						<rect x="0" y="54" width="11.25" height="9" class="st2"/>
					</g>
					<g id="shape506-8" v:mID="506" v:groupContext="shape" v:layerMember="0" transform="translate(36,-33.75)">
						<title>Sheet.506</title>
						<rect x="0" y="54" width="11.25" height="9" class="st2"/>
					</g>
					<g id="shape507-10" v:mID="507" v:groupContext="shape" v:layerMember="0" transform="translate(13.5,-33.75)">
						<title>Sheet.507</title>
						<rect x="0" y="54" width="20.25" height="9" class="st2"/>
					</g>
					<g id="shape508-12" v:mID="508" v:groupContext="shape" v:layerMember="0"
							transform="translate(2.9976E-15,-11.25)">
						<title>Sheet.508</title>
						<rect x="0" y="54" width="11.25" height="9" class="st2"/>
					</g>
					<g id="shape509-14" v:mID="509" v:groupContext="shape" v:layerMember="0" transform="translate(36,-11.25)">
						<title>Sheet.509</title>
						<rect x="0" y="54" width="11.25" height="9" class="st2"/>
					</g>
					<g id="shape510-16" v:mID="510" v:groupContext="shape" v:layerMember="0" transform="translate(13.5,-11.25)">
						<title>Sheet.510</title>
						<rect x="0" y="54" width="20.25" height="9" class="st2"/>
					</g>
					<g id="shape511-18" v:mID="511" v:groupContext="shape" v:layerMember="0" transform="translate(0,-22.5)">
						<title>Sheet.511</title>
						<rect x="0" y="54" width="22.5" height="9" class="st2"/>
					</g>
					<g id="shape512-20" v:mID="512" v:groupContext="shape" v:layerMember="0" transform="translate(24.75,-22.5)">
						<title>Sheet.512</title>
						<rect x="0" y="54" width="22.5" height="9" class="st2"/>
					</g>
					<g id="shape513-22" v:mID="513" v:groupContext="shape" v:layerMember="0">
						<title>Sheet.513</title>
						<rect x="0" y="54" width="22.5" height="9" class="st2"/>
					</g>
					<g id="shape514-24" v:mID="514" v:groupContext="shape" v:layerMember="0"
							transform="translate(24.75,-2.13163E-13)">
						<title>Sheet.514</title>
						<rect x="0" y="54" width="22.5" height="9" class="st2"/>
					</g>
				</g>
				<g id="group515-26" transform="translate(2.25,-2.25)" v:mID="515" v:groupContext="group" v:layerMember="0">
					<title>Sheet.515</title>
					<g id="shape516-27" v:mID="516" v:groupContext="shape" v:layerMember="0" transform="translate(20.325,-33.75)">
						<title>Sheet.516</title>
						<path d="M2.4 63 L11.33 54 L8.93 54 L0 63 L2.4 63 Z" class="st3"/>
					</g>
					<g id="shape517-29" v:mID="517" v:groupContext="shape" v:layerMember="0" transform="translate(29.55,-11.25)">
						<title>Sheet.517</title>
						<path d="M2.4 63 L4.2 61.12 L4.2 58.8 L0 63 L2.4 63 Z" class="st3"/>
					</g>
					<g id="shape518-31" v:mID="518" v:groupContext="shape" v:layerMember="0" transform="translate(24.825,-33.75)">
						<title>Sheet.518</title>
						<path d="M2.4 63 L8.93 56.4 L8.93 54 L0 63 L2.4 63 Z" class="st3"/>
					</g>
					<g id="shape519-33" v:mID="519" v:groupContext="shape" v:layerMember="0" transform="translate(13.5,-38.025)">
						<title>Sheet.519</title>
						<path d="M0 63 L4.73 58.27 L2.32 58.27 L0 60.67 L0 63 Z" class="st3"/>
					</g>
					<g id="shape520-35" v:mID="520" v:groupContext="shape" v:layerMember="0" transform="translate(13.5,-42.525)">
						<title>Sheet.520</title>
						<path d="M0 62.77 L0 63 L0.22 62.77 L0 62.77 Z" class="st3"/>
					</g>
					<g id="shape521-37" v:mID="521" v:groupContext="shape" v:layerMember="0" transform="translate(13.5,-33.75)">
						<title>Sheet.521</title>
						<path d="M0 63 L0.3 63 L9.23 54 L6.83 54 L0 60.9 L0 63 Z" class="st3"/>
					</g>
					<g id="shape522-39" v:mID="522" v:groupContext="shape" v:layerMember="0"
							transform="translate(7.49401E-16,-28.875)">
						<title>Sheet.522</title>
						<path d="M0.23 60.37 L0 60.6 L0 63 L2.63 60.37 L0.23 60.37 Z" class="st3"/>
					</g>
					<g id="shape523-41" v:mID="523" v:groupContext="shape" v:layerMember="0" transform="translate(15.9,-33.75)">
						<title>Sheet.523</title>
						<path d="M2.33 63 L11.25 54 L8.93 54 L0 63 L2.33 63 Z" class="st3"/>
					</g>
					<g id="shape524-43" v:mID="524" v:groupContext="shape" v:layerMember="0"
							transform="translate(1.4988E-15,-24.375)">
						<title>Sheet.524</title>
						<path d="M4.73 55.87 L0 60.6 L0 63 L7.05 55.87 L4.73 55.87 Z" class="st3"/>
					</g>
					<g id="shape525-45" v:mID="525" v:groupContext="shape" v:layerMember="0" transform="translate(24.9,-11.25)">
						<title>Sheet.525</title>
						<path d="M2.55 63 L8.85 56.62 L8.85 54.07 L0 63 L2.55 63 Z" class="st3"/>
					</g>
					<g id="shape526-47" v:mID="526" v:groupContext="shape" v:layerMember="0"
							transform="translate(18.45,-1.42109E-14)">
						<title>Sheet.526</title>
						<path d="M4.05 58.95 L0 63 L2.32 63 L4.05 61.27 L4.05 58.95 Z" class="st3"/>
					</g>
					<g id="shape527-49" v:mID="527" v:groupContext="shape" v:layerMember="0"
							transform="translate(13.725,2.20268E-13)">
						<title>Sheet.527</title>
						<path d="M8.78 54.15 L0 63 L2.63 63 L8.78 56.77 L8.78 54.15 Z" class="st3"/>
					</g>
					<g id="shape528-51" v:mID="528" v:groupContext="shape" v:layerMember="0"
							transform="translate(2.46678E-15,-42.45)">
						<title>Sheet.528</title>
						<path d="M0 62.7 L0 63 L0.3 62.7 L0 62.7 Z" class="st3"/>
					</g>
					<g id="shape529-53" v:mID="529" v:groupContext="shape" v:layerMember="0" transform="translate(13.65,-22.5)">
						<title>Sheet.529</title>
						<path d="M2.4 63 L8.85 56.47 L8.85 54.07 L0 63 L2.4 63 Z" class="st3"/>
					</g>
					<g id="shape530-55" v:mID="530" v:groupContext="shape" v:layerMember="0" transform="translate(2.475,-33.75)">
						<title>Sheet.530</title>
						<path d="M2.33 63 L8.78 56.47 L8.78 54.07 L0 63 L2.33 63 Z" class="st3"/>
					</g>
					<g id="shape531-57" v:mID="531" v:groupContext="shape" v:layerMember="0"
							transform="translate(4.89608E-14,-37.875)">
						<title>Sheet.531</title>
						<path d="M2.4 58.12 L0 60.6 L0 63 L4.8 58.12 L2.4 58.12 Z" class="st3"/>
					</g>
					<g id="shape532-59" v:mID="532" v:groupContext="shape" v:layerMember="0" transform="translate(29.325,-33.75)">
						<title>Sheet.532</title>
						<path d="M2.4 63 L4.43 60.9 L4.43 58.57 L0 63 L2.4 63 Z" class="st3"/>
					</g>
					<g id="shape533-61" v:mID="533" v:groupContext="shape" v:layerMember="0" transform="translate(18.15,-22.5)">
						<title>Sheet.533</title>
						<path d="M2.4 63 L4.35 60.97 L4.35 58.65 L0 63 L2.4 63 Z" class="st3"/>
					</g>
					<g id="shape534-63" v:mID="534" v:groupContext="shape" v:layerMember="0"
							transform="translate(-9.29257E-14,-33.75)">
						<title>Sheet.534</title>
						<path d="M6.9 54 L0 60.97 L0 63 L0.38 63 L9.23 54 L6.9 54 Z" class="st3"/>
					</g>
					<g id="shape535-65" v:mID="535" v:groupContext="shape" v:layerMember="0" transform="translate(36,-15.375)">
						<title>Sheet.535</title>
						<path d="M2.47 58.12 L0 60.6 L0 63 L4.8 58.12 L2.47 58.12 Z" class="st3"/>
					</g>
					<g id="shape536-67" v:mID="536" v:groupContext="shape" v:layerMember="0" transform="translate(40.725,-22.5)">
						<title>Sheet.536</title>
						<path d="M2.33 63 L6.53 58.72 L6.53 56.4 L0 63 L2.33 63 Z" class="st3"/>
					</g>
					<g id="shape537-69" v:mID="537" v:groupContext="shape" v:layerMember="0" transform="translate(15.9,-11.25)">
						<title>Sheet.537</title>
						<path d="M2.4 63 L11.33 54 L9 54 L0 63 L2.4 63 Z" class="st3"/>
					</g>
					<g id="shape538-71" v:mID="538" v:groupContext="shape" v:layerMember="0" transform="translate(24.75,-31.275)">
						<title>Sheet.538</title>
						<path d="M0 62.77 L0 63 L0.22 62.77 L0 62.77 Z" class="st3"/>
					</g>
					<g id="shape539-73" v:mID="539" v:groupContext="shape" v:layerMember="0" transform="translate(36,-42.6)">
						<title>Sheet.539</title>
						<path d="M0 62.85 L0 63 L0.15 62.85 L0 62.85 Z" class="st3"/>
					</g>
					<g id="shape540-75" v:mID="540" v:groupContext="shape" v:layerMember="0" transform="translate(42.975,-11.25)">
						<title>Sheet.540</title>
						<path d="M2.4 63 L4.28 61.05 L4.28 58.65 L0 63 L2.4 63 Z" class="st3"/>
					</g>
					<g id="shape541-77" v:mID="541" v:groupContext="shape" v:layerMember="0" transform="translate(45.15,-22.5)">
						<title>Sheet.541</title>
						<path d="M2.1 63 L2.1 60.9 L0 63 L2.1 63 Z" class="st3"/>
					</g>
					<g id="shape542-79" v:mID="542" v:groupContext="shape" v:layerMember="0" transform="translate(36,-11.25)">
						<title>Sheet.542</title>
						<path d="M6.9 54 L0 60.97 L0 63 L0.38 63 L9.3 54 L6.9 54 Z" class="st3"/>
					</g>
					<g id="shape543-81" v:mID="543" v:groupContext="shape" v:layerMember="0" transform="translate(38.55,-11.25)">
						<title>Sheet.543</title>
						<path d="M2.32 63 L8.7 56.55 L8.7 54.15 L0 63 L2.32 63 Z" class="st3"/>
					</g>
					<g id="shape544-83" v:mID="544" v:groupContext="shape" v:layerMember="0" transform="translate(13.5,-19.95)">
						<title>Sheet.544</title>
						<path d="M0 62.7 L0 63 L0.3 62.7 L0 62.7 Z" class="st3"/>
					</g>
					<g id="shape545-85" v:mID="545" v:groupContext="shape" v:layerMember="0" transform="translate(36,-19.875)">
						<title>Sheet.545</title>
						<path d="M0 62.62 L0 63 L0.38 62.62 L0 62.62 Z" class="st3"/>
					</g>
					<g id="shape546-87" v:mID="546" v:groupContext="shape" v:layerMember="0" transform="translate(36,-38.1)">
						<title>Sheet.546</title>
						<path d="M0 63 L4.65 58.35 L2.25 58.35 L0 60.67 L0 63 Z" class="st3"/>
					</g>
					<g id="shape547-89" v:mID="547" v:groupContext="shape" v:layerMember="0" transform="translate(27.15,-22.5)">
						<title>Sheet.547</title>
						<path d="M8.93 54 L0 63 L2.32 63 L11.33 54 L8.93 54 Z" class="st3"/>
					</g>
					<g id="shape548-91" v:mID="548" v:groupContext="shape" v:layerMember="0" transform="translate(31.575,-22.5)">
						<title>Sheet.548</title>
						<path d="M9 54 L0 63 L2.4 63 L11.33 54 L9 54 Z" class="st3"/>
					</g>
					<g id="shape549-93" v:mID="549" v:groupContext="shape" v:layerMember="0" transform="translate(38.325,-33.75)">
						<title>Sheet.549</title>
						<path d="M2.32 63 L8.93 56.4 L8.93 54 L0 63 L2.32 63 Z" class="st3"/>
					</g>
					<g id="shape550-95" v:mID="550" v:groupContext="shape" v:layerMember="0" transform="translate(20.4,-11.25)">
						<title>Sheet.550</title>
						<path d="M2.4 63 L11.33 54 L9 54 L0 63 L2.4 63 Z" class="st3"/>
					</g>
					<g id="shape551-97" v:mID="551" v:groupContext="shape" v:layerMember="0" transform="translate(13.5,-11.25)">
						<title>Sheet.551</title>
						<path d="M6.9 54 L0 60.9 L0 63 L0.3 63 L9.3 54 L6.9 54 Z" class="st3"/>
					</g>
					<g id="shape552-99" v:mID="552" v:groupContext="shape" v:layerMember="0" transform="translate(36.075,-22.5)">
						<title>Sheet.552</title>
						<path d="M11.18 54 L8.93 54 L0 63 L2.55 63 L11.18 54.22 L11.18 54 Z" class="st3"/>
					</g>
					<g id="shape553-101" v:mID="553" v:groupContext="shape" v:layerMember="0" transform="translate(13.5,-15.45)">
						<title>Sheet.553</title>
						<path d="M2.4 58.2 L0 60.6 L0 63 L4.8 58.2 L2.4 58.2 Z" class="st3"/>
					</g>
					<g id="shape554-103" v:mID="554" v:groupContext="shape" v:layerMember="0" transform="translate(42.825,-33.75)">
						<title>Sheet.554</title>
						<path d="M2.33 63 L4.43 60.9 L4.43 58.5 L0 63 L2.33 63 Z" class="st3"/>
					</g>
					<g id="shape555-105" v:mID="555" v:groupContext="shape" v:layerMember="0" transform="translate(24.75,-26.775)">
						<title>Sheet.555</title>
						<path d="M2.32 58.27 L0 60.67 L0 63 L4.73 58.27 L2.32 58.27 Z" class="st3"/>
					</g>
					<g id="shape556-107" v:mID="556" v:groupContext="shape" v:layerMember="0"
							transform="translate(9.225,-2.13163E-13)">
						<title>Sheet.556</title>
						<path d="M8.93 54 L0 63 L2.32 63 L11.33 54 L8.93 54 Z" class="st3"/>
					</g>
					<g id="shape557-109" v:mID="557" v:groupContext="shape" v:layerMember="0" transform="translate(24.75,-22.5)">
						<title>Sheet.557</title>
						<path d="M6.83 54 L0 60.9 L0 63 L0.23 63 L9.23 54 L6.83 54 Z" class="st3"/>
					</g>
					<g id="shape558-111" v:mID="558" v:groupContext="shape" v:layerMember="0" transform="translate(36,-33.75)">
						<title>Sheet.558</title>
						<path d="M0 63 L0.23 63 L9.15 54 L6.75 54 L0 60.82 L0 63 Z" class="st3"/>
					</g>
					<g id="shape559-113" v:mID="559" v:groupContext="shape" v:layerMember="0" transform="translate(6.9,-33.75)">
						<title>Sheet.559</title>
						<path d="M2.4 63 L4.35 60.97 L4.35 58.65 L0 63 L2.4 63 Z" class="st3"/>
					</g>
					<g id="shape560-115" v:mID="560" v:groupContext="shape" v:layerMember="0"
							transform="translate(2.52923E-15,-19.875)">
						<title>Sheet.560</title>
						<path d="M0 62.62 L0 63 L0.37 62.62 L0 62.62 Z" class="st3"/>
					</g>
					<g id="shape561-117" v:mID="561" v:groupContext="shape" v:layerMember="0"
							transform="translate(40.875,4.26326E-14)">
						<title>Sheet.561</title>
						<path d="M2.4 63 L6.37 58.87 L6.37 56.47 L0 63 L2.4 63 Z" class="st3"/>
					</g>
					<g id="shape562-119" v:mID="562" v:groupContext="shape" v:layerMember="0"
							transform="translate(45.375,-1.42109E-14)">
						<title>Sheet.562</title>
						<path d="M1.88 63 L1.88 61.05 L0 63 L1.88 63 Z" class="st3"/>
					</g>
					<g id="shape563-121" v:mID="563" v:groupContext="shape" v:layerMember="0" transform="translate(0.225,-22.5)">
						<title>Sheet.563</title>
						<path d="M2.4 63 L11.33 54 L8.93 54 L0 63 L2.4 63 Z" class="st3"/>
					</g>
					<g id="shape564-123" v:mID="564" v:groupContext="shape" v:layerMember="0" transform="translate(24.75,-8.475)">
						<title>Sheet.564</title>
						<path d="M0 62.47 L0 63 L0.52 62.47 L0 62.47 Z" class="st3"/>
					</g>
					<g id="shape565-125" v:mID="565" v:groupContext="shape" v:layerMember="0"
							transform="translate(24.75,-2.13163E-13)">
						<title>Sheet.565</title>
						<path d="M7.05 54 L0 61.12 L0 63 L0.6 63 L9.45 54 L7.05 54 Z" class="st3"/>
					</g>
					<g id="shape566-127" v:mID="566" v:groupContext="shape" v:layerMember="0" transform="translate(9.15,-22.5)">
						<title>Sheet.566</title>
						<path d="M2.4 63 L11.33 54 L8.93 54 L0 63 L2.4 63 Z" class="st3"/>
					</g>
					<g id="shape567-129" v:mID="567" v:groupContext="shape" v:layerMember="0"
							transform="translate(4.89608E-14,-15.375)">
						<title>Sheet.567</title>
						<path d="M2.47 58.12 L0 60.6 L0 63 L4.8 58.12 L2.47 58.12 Z" class="st3"/>
					</g>
					<g id="shape568-131" v:mID="568" v:groupContext="shape" v:layerMember="0" transform="translate(24.75,-3.975)">
						<title>Sheet.568</title>
						<path d="M2.62 57.97 L0 60.6 L0 63 L4.95 57.97 L2.62 57.97 Z" class="st3"/>
					</g>
					<g id="shape569-133" v:mID="569" v:groupContext="shape" v:layerMember="0"
							transform="translate(31.95,-2.13163E-13)">
						<title>Sheet.569</title>
						<path d="M8.85 54 L0 63 L2.4 63 L11.25 54 L8.85 54 Z" class="st3"/>
					</g>
					<g id="shape570-135" v:mID="570" v:groupContext="shape" v:layerMember="0"
							transform="translate(36.45,-2.13163E-13)">
						<title>Sheet.570</title>
						<path d="M10.8 54 L8.85 54 L0 63 L2.33 63 L10.8 54.3 L10.8 54 Z" class="st3"/>
					</g>
					<g id="shape571-137" v:mID="571" v:groupContext="shape" v:layerMember="0"
							transform="translate(-9.29257E-14,-11.25)">
						<title>Sheet.571</title>
						<path d="M0 63 L0.38 63 L9.3 54 L6.98 54 L0 60.97 L0 63 Z" class="st3"/>
					</g>
					<g id="shape572-139" v:mID="572" v:groupContext="shape" v:layerMember="0" transform="translate(4.725,-22.5)">
						<title>Sheet.572</title>
						<path d="M2.33 63 L11.25 54 L8.93 54 L0 63 L2.33 63 Z" class="st3"/>
					</g>
					<g id="shape573-141" v:mID="573" v:groupContext="shape" v:layerMember="0"
							transform="translate(2.498E-15,-1.875)">
						<title>Sheet.573</title>
						<path d="M4.72 55.87 L0 60.67 L0 63 L7.12 55.87 L4.72 55.87 Z" class="st3"/>
					</g>
					<g id="shape574-143" v:mID="574" v:groupContext="shape" v:layerMember="0" transform="translate(2.475,-11.25)">
						<title>Sheet.574</title>
						<path d="M2.4 63 L8.78 56.55 L8.78 54.15 L0 63 L2.4 63 Z" class="st3"/>
					</g>
					<g id="shape575-145" v:mID="575" v:groupContext="shape" v:layerMember="0"
							transform="translate(0.3,-2.13163E-13)">
						<title>Sheet.575</title>
						<path d="M8.93 54 L0 63 L2.33 63 L11.25 54 L8.93 54 Z" class="st3"/>
					</g>
					<g id="shape576-147" v:mID="576" v:groupContext="shape" v:layerMember="0"
							transform="translate(7.49401E-16,-6.375)">
						<title>Sheet.576</title>
						<path d="M0.23 60.37 L0 60.67 L0 63 L2.63 60.37 L0.23 60.37 Z" class="st3"/>
					</g>
					<g id="shape577-149" v:mID="577" v:groupContext="shape" v:layerMember="0" transform="translate(6.975,-11.25)">
						<title>Sheet.577</title>
						<path d="M2.33 63 L4.27 61.05 L4.27 58.72 L0 63 L2.33 63 Z" class="st3"/>
					</g>
					<g id="shape578-151" v:mID="578" v:groupContext="shape" v:layerMember="0"
							transform="translate(27.45,-2.13163E-13)">
						<title>Sheet.578</title>
						<path d="M8.85 54 L0 63 L2.4 63 L11.25 54 L8.85 54 Z" class="st3"/>
					</g>
					<g id="shape579-153" v:mID="579" v:groupContext="shape" v:layerMember="0"
							transform="translate(4.725,-2.13163E-13)">
						<title>Sheet.579</title>
						<path d="M9 54 L0 63 L2.4 63 L11.33 54 L9 54 Z" class="st3"/>
					</g>
					<g id="shape580-155" v:mID="580" v:groupContext="shape" v:layerMember="0"
							transform="translate(-2.29816E-14,-40.275)">
						<title>Sheet.580</title>
						<path d="M0.3 60.52 L0 60.82 L0 63 L2.4 60.52 L0.3 60.52 Z" class="st4"/>
					</g>
					<g id="shape581-157" v:mID="581" v:groupContext="shape" v:layerMember="0"
							transform="translate(-9.29257E-14,-35.775)">
						<title>Sheet.581</title>
						<path d="M4.8 56.02 L0 60.9 L0 63 L6.9 56.02 L4.8 56.02 Z" class="st4"/>
					</g>
					<g id="shape582-159" v:mID="582" v:groupContext="shape" v:layerMember="0" transform="translate(0.375,-33.75)">
						<title>Sheet.582</title>
						<path d="M10.87 54.07 L10.87 54 L8.85 54 L0 63 L2.1 63 L10.87 54.07 Z" class="st4"/>
					</g>
					<g id="shape583-161" v:mID="583" v:groupContext="shape" v:layerMember="0"
							transform="translate(7.80626E-17,-31.275)">
						<title>Sheet.583</title>
						<path d="M0 62.77 L0 63 L0.23 62.77 L0 62.77 Z" class="st4"/>
					</g>
					<g id="shape584-163" v:mID="584" v:groupContext="shape" v:layerMember="0" transform="translate(13.5,-40.35)">
						<title>Sheet.584</title>
						<path d="M0 60.82 L0 63 L2.32 60.6 L0.22 60.6 L0 60.82 Z" class="st4"/>
					</g>
					<g id="shape585-165" v:mID="585" v:groupContext="shape" v:layerMember="0" transform="translate(0,-26.775)">
						<title>Sheet.585</title>
						<path d="M2.63 58.27 L0 60.9 L0 63 L4.73 58.27 L2.63 58.27 Z" class="st4"/>
					</g>
					<g id="shape586-167" v:mID="586" v:groupContext="shape" v:layerMember="0" transform="translate(4.8,-33.75)">
						<title>Sheet.586</title>
						<path d="M2.1 63 L6.45 58.65 L6.45 56.47 L0 63 L2.1 63 Z" class="st4"/>
					</g>
					<g id="shape587-169" v:mID="587" v:groupContext="shape" v:layerMember="0"
							transform="translate(9.69225E-14,-22.5)">
						<title>Sheet.587</title>
						<path d="M0.22 63 L9.15 54 L7.05 54 L0 61.12 L0 63 L0.22 63 Z" class="st4"/>
					</g>
					<g id="shape588-171" v:mID="588" v:groupContext="shape" v:layerMember="0" transform="translate(13.5,-35.85)">
						<title>Sheet.588</title>
						<path d="M0 63 L6.82 56.1 L4.72 56.1 L0 60.82 L0 63 Z" class="st4"/>
					</g>
					<g id="shape589-173" v:mID="589" v:groupContext="shape" v:layerMember="0" transform="translate(9.3,-33.75)">
						<title>Sheet.589</title>
						<path d="M1.95 63 L1.95 60.97 L0 63 L1.95 63 Z" class="st4"/>
					</g>
					<g id="shape590-175" v:mID="590" v:groupContext="shape" v:layerMember="0" transform="translate(0,-17.775)">
						<title>Sheet.590</title>
						<path d="M0.37 60.52 L0 60.9 L0 63 L2.47 60.52 L0.37 60.52 Z" class="st4"/>
					</g>
					<g id="shape591-177" v:mID="591" v:groupContext="shape" v:layerMember="0" transform="translate(2.625,-22.5)">
						<title>Sheet.591</title>
						<path d="M2.1 63 L11.02 54 L8.92 54 L0 63 L2.1 63 Z" class="st4"/>
					</g>
					<g id="shape592-179" v:mID="592" v:groupContext="shape" v:layerMember="0" transform="translate(13.8,-33.75)">
						<title>Sheet.592</title>
						<path d="M2.1 63 L11.02 54 L8.92 54 L0 63 L2.1 63 Z" class="st4"/>
					</g>
					<g id="shape593-181" v:mID="593" v:groupContext="shape" v:layerMember="0" transform="translate(18.225,-33.75)">
						<title>Sheet.593</title>
						<path d="M2.1 63 L11.02 54 L8.92 54 L0 63 L2.1 63 Z" class="st4"/>
					</g>
					<g id="shape594-183" v:mID="594" v:groupContext="shape" v:layerMember="0"
							transform="translate(-4.64628E-14,-13.275)">
						<title>Sheet.594</title>
						<path d="M6.98 56.02 L4.8 56.02 L0 60.9 L0 63 L6.98 56.02 Z" class="st4"/>
					</g>
					<g id="shape595-185" v:mID="595" v:groupContext="shape" v:layerMember="0" transform="translate(7.05,-22.5)">
						<title>Sheet.595</title>
						<path d="M2.1 63 L11.02 54 L8.92 54 L0 63 L2.1 63 Z" class="st4"/>
					</g>
					<g id="shape596-187" v:mID="596" v:groupContext="shape" v:layerMember="0" transform="translate(11.55,-22.5)">
						<title>Sheet.596</title>
						<path d="M2.1 63 L10.95 54.07 L10.95 54 L8.92 54 L0 63 L2.1 63 Z" class="st4"/>
					</g>
					<g id="shape597-189" v:mID="597" v:groupContext="shape" v:layerMember="0" transform="translate(22.725,-33.75)">
						<title>Sheet.597</title>
						<path d="M2.1 63 L11.02 54 L8.92 54 L0 63 L2.1 63 Z" class="st4"/>
					</g>
					<g id="shape598-191" v:mID="598" v:groupContext="shape" v:layerMember="0" transform="translate(0.375,-11.25)">
						<title>Sheet.598</title>
						<path d="M2.1 63 L10.87 54.15 L10.87 54 L8.92 54 L0 63 L2.1 63 Z" class="st4"/>
					</g>
					<g id="shape599-193" v:mID="599" v:groupContext="shape" v:layerMember="0"
							transform="translate(7.80626E-17,-8.7)">
						<title>Sheet.599</title>
						<path d="M0 62.7 L0 63 L0.23 62.7 L0 62.7 Z" class="st4"/>
					</g>
					<g id="shape600-195" v:mID="600" v:groupContext="shape" v:layerMember="0" transform="translate(27.225,-33.75)">
						<title>Sheet.600</title>
						<path d="M2.1 63 L6.53 58.57 L6.53 56.4 L0 63 L2.1 63 Z" class="st4"/>
					</g>
					<g id="shape601-197" v:mID="601" v:groupContext="shape" v:layerMember="0" transform="translate(24.75,-29.1)">
						<title>Sheet.601</title>
						<path d="M0.22 60.6 L0 60.82 L0 63 L2.32 60.6 L0.22 60.6 Z" class="st4"/>
					</g>
					<g id="shape602-199" v:mID="602" v:groupContext="shape" v:layerMember="0" transform="translate(4.875,-11.25)">
						<title>Sheet.602</title>
						<path d="M2.1 63 L6.37 58.72 L6.37 56.55 L0 63 L2.1 63 Z" class="st4"/>
					</g>
					<g id="shape603-201" v:mID="603" v:groupContext="shape" v:layerMember="0" transform="translate(13.5,-17.85)">
						<title>Sheet.603</title>
						<path d="M0.3 60.6 L0 60.9 L0 63 L2.4 60.6 L0.3 60.6 Z" class="st4"/>
					</g>
					<g id="shape604-203" v:mID="604" v:groupContext="shape" v:layerMember="0" transform="translate(36,-40.425)">
						<title>Sheet.604</title>
						<path d="M0 60.82 L0 63 L2.25 60.67 L0.15 60.67 L0 60.82 Z" class="st4"/>
					</g>
					<g id="shape605-205" v:mID="605" v:groupContext="shape" v:layerMember="0" transform="translate(0,-4.2)">
						<title>Sheet.605</title>
						<path d="M2.63 58.2 L0 60.82 L0 63 L4.73 58.2 L2.63 58.2 Z" class="st4"/>
					</g>
					<g id="shape606-207" v:mID="606" v:groupContext="shape" v:layerMember="0" transform="translate(16.05,-22.5)">
						<title>Sheet.606</title>
						<path d="M2.1 63 L6.45 58.65 L6.45 56.47 L0 63 L2.1 63 Z" class="st4"/>
					</g>
					<g id="shape607-209" v:mID="607" v:groupContext="shape" v:layerMember="0" transform="translate(13.5,-13.35)">
						<title>Sheet.607</title>
						<path d="M4.8 56.1 L0 60.9 L0 63 L6.9 56.1 L4.8 56.1 Z" class="st4"/>
					</g>
					<g id="shape608-211" v:mID="608" v:groupContext="shape" v:layerMember="0">
						<title>Sheet.608</title>
						<path d="M7.13 54 L0 61.12 L0 63 L0.3 63 L9.23 54 L7.13 54 Z" class="st4"/>
					</g>
					<g id="shape609-213" v:mID="609" v:groupContext="shape" v:layerMember="0" transform="translate(20.55,-22.5)">
						<title>Sheet.609</title>
						<path d="M1.95 63 L1.95 60.97 L0 63 L1.95 63 Z" class="st4"/>
					</g>
					<g id="shape610-215" v:mID="610" v:groupContext="shape" v:layerMember="0" transform="translate(24.75,-24.6)">
						<title>Sheet.610</title>
						<path d="M4.72 56.1 L0 60.82 L0 63 L6.82 56.1 L4.72 56.1 Z" class="st4"/>
					</g>
					<g id="shape611-217" v:mID="611" v:groupContext="shape" v:layerMember="0" transform="translate(31.725,-33.75)">
						<title>Sheet.611</title>
						<path d="M2.03 63 L2.03 60.9 L0 63 L2.03 63 Z" class="st4"/>
					</g>
					<g id="shape612-219" v:mID="612" v:groupContext="shape" v:layerMember="0" transform="translate(9.3,-11.25)">
						<title>Sheet.612</title>
						<path d="M1.95 63 L1.95 61.05 L0 63 L1.95 63 Z" class="st4"/>
					</g>
					<g id="shape613-221" v:mID="613" v:groupContext="shape" v:layerMember="0" transform="translate(36,-35.925)">
						<title>Sheet.613</title>
						<path d="M0 63 L6.75 56.17 L4.65 56.17 L0 60.82 L0 63 Z" class="st4"/>
					</g>
					<g id="shape614-223" v:mID="614" v:groupContext="shape" v:layerMember="0"
							transform="translate(2.625,-2.13163E-13)">
						<title>Sheet.614</title>
						<path d="M8.92 54 L0 63 L2.1 63 L11.1 54 L8.92 54 Z" class="st4"/>
					</g>
					<g id="shape615-225" v:mID="615" v:groupContext="shape" v:layerMember="0" transform="translate(24.975,-22.5)">
						<title>Sheet.615</title>
						<path d="M9 54 L0 63 L2.17 63 L11.1 54 L9 54 Z" class="st4"/>
					</g>
					<g id="shape616-227" v:mID="616" v:groupContext="shape" v:layerMember="0" transform="translate(36.225,-33.75)">
						<title>Sheet.616</title>
						<path d="M2.1 63 L11.02 54 L8.92 54 L0 63 L2.1 63 Z" class="st4"/>
					</g>
					<g id="shape617-229" v:mID="617" v:groupContext="shape" v:layerMember="0" transform="translate(13.8,-11.25)">
						<title>Sheet.617</title>
						<path d="M11.1 54 L9 54 L0 63 L2.1 63 L11.1 54 Z" class="st4"/>
					</g>
					<g id="shape618-231" v:mID="618" v:groupContext="shape" v:layerMember="0" transform="translate(18.3,-11.25)">
						<title>Sheet.618</title>
						<path d="M2.1 63 L11.1 54 L8.93 54 L0 63 L2.1 63 Z" class="st4"/>
					</g>
					<g id="shape619-233" v:mID="619" v:groupContext="shape" v:layerMember="0" transform="translate(29.475,-22.5)">
						<title>Sheet.619</title>
						<path d="M9 54 L0 63 L2.1 63 L11.1 54 L9 54 Z" class="st4"/>
					</g>
					<g id="shape620-235" v:mID="620" v:groupContext="shape" v:layerMember="0" transform="translate(40.65,-33.75)">
						<title>Sheet.620</title>
						<path d="M2.17 63 L6.6 58.5 L6.6 56.4 L0 63 L2.17 63 Z" class="st4"/>
					</g>
					<g id="shape621-237" v:mID="621" v:groupContext="shape" v:layerMember="0"
							transform="translate(7.125,-2.13163E-13)">
						<title>Sheet.621</title>
						<path d="M8.92 54 L0 63 L2.1 63 L11.02 54 L8.92 54 Z" class="st4"/>
					</g>
					<g id="shape622-239" v:mID="622" v:groupContext="shape" v:layerMember="0" transform="translate(33.975,-22.5)">
						<title>Sheet.622</title>
						<path d="M8.92 54 L0 63 L2.1 63 L11.02 54 L8.92 54 Z" class="st4"/>
					</g>
					<g id="shape623-241" v:mID="623" v:groupContext="shape" v:layerMember="0" transform="translate(45.15,-33.75)">
						<title>Sheet.623</title>
						<path d="M2.1 63 L2.1 60.9 L0 63 L2.1 63 Z" class="st4"/>
					</g>
					<g id="shape624-243" v:mID="624" v:groupContext="shape" v:layerMember="0" transform="translate(22.8,-11.25)">
						<title>Sheet.624</title>
						<path d="M2.1 63 L10.95 54.07 L10.95 54 L8.92 54 L0 63 L2.1 63 Z" class="st4"/>
					</g>
					<g id="shape625-245" v:mID="625" v:groupContext="shape" v:layerMember="0"
							transform="translate(11.55,-2.13163E-13)">
						<title>Sheet.625</title>
						<path d="M10.95 54 L9 54 L0 63 L2.17 63 L10.95 54.15 L10.95 54 Z" class="st4"/>
					</g>
					<g id="shape626-247" v:mID="626" v:groupContext="shape" v:layerMember="0" transform="translate(36,-17.775)">
						<title>Sheet.626</title>
						<path d="M0.37 60.52 L0 60.9 L0 63 L2.47 60.52 L0.37 60.52 Z" class="st4"/>
					</g>
					<g id="shape627-249" v:mID="627" v:groupContext="shape" v:layerMember="0" transform="translate(27.45,-11.25)">
						<title>Sheet.627</title>
						<path d="M2.1 63 L6.3 58.8 L6.3 56.62 L0 63 L2.1 63 Z" class="st4"/>
					</g>
					<g id="shape628-251" v:mID="628" v:groupContext="shape" v:layerMember="0"
							transform="translate(16.35,7.10543E-15)">
						<title>Sheet.628</title>
						<path d="M6.15 56.77 L0 63 L2.1 63 L6.15 58.95 L6.15 56.77 Z" class="st4"/>
					</g>
					<g id="shape629-253" v:mID="629" v:groupContext="shape" v:layerMember="0" transform="translate(38.625,-22.5)">
						<title>Sheet.629</title>
						<path d="M0 63 L2.1 63 L8.62 56.4 L8.62 54.22 L0 63 Z" class="st4"/>
					</g>
					<g id="shape630-255" v:mID="630" v:groupContext="shape" v:layerMember="0" transform="translate(24.75,-6.375)">
						<title>Sheet.630</title>
						<path d="M0.53 60.37 L0 60.9 L0 63 L2.63 60.37 L0.53 60.37 Z" class="st4"/>
					</g>
					<g id="shape631-257" v:mID="631" v:groupContext="shape" v:layerMember="0"
							transform="translate(20.775,7.10543E-15)">
						<title>Sheet.631</title>
						<path d="M1.72 61.27 L0 63 L1.72 63 L1.72 61.27 Z" class="st4"/>
					</g>
					<g id="shape632-259" v:mID="632" v:groupContext="shape" v:layerMember="0" transform="translate(36,-13.275)">
						<title>Sheet.632</title>
						<path d="M4.8 56.02 L0 60.9 L0 63 L6.9 56.02 L4.8 56.02 Z" class="st4"/>
					</g>
					<g id="shape633-261" v:mID="633" v:groupContext="shape" v:layerMember="0" transform="translate(31.95,-11.25)">
						<title>Sheet.633</title>
						<path d="M1.8 63 L1.8 61.12 L0 63 L1.8 63 Z" class="st4"/>
					</g>
					<g id="shape634-263" v:mID="634" v:groupContext="shape" v:layerMember="0" transform="translate(24.75,-1.875)">
						<title>Sheet.634</title>
						<path d="M4.95 55.87 L0 60.9 L0 63 L7.05 55.87 L4.95 55.87 Z" class="st4"/>
					</g>
					<g id="shape635-265" v:mID="635" v:groupContext="shape" v:layerMember="0" transform="translate(43.05,-22.5)">
						<title>Sheet.635</title>
						<path d="M2.1 63 L4.2 60.9 L4.2 58.72 L0 63 L2.1 63 Z" class="st4"/>
					</g>
					<g id="shape636-267" v:mID="636" v:groupContext="shape" v:layerMember="0" transform="translate(36.375,-11.25)">
						<title>Sheet.636</title>
						<path d="M8.92 54 L0 63 L2.17 63 L10.87 54.15 L10.87 54 L8.92 54 Z" class="st4"/>
					</g>
					<g id="shape637-269" v:mID="637" v:groupContext="shape" v:layerMember="0"
							transform="translate(25.35,-2.13163E-13)">
						<title>Sheet.637</title>
						<path d="M8.85 54 L0 63 L2.1 63 L10.95 54 L8.85 54 Z" class="st4"/>
					</g>
					<g id="shape638-271" v:mID="638" v:groupContext="shape" v:layerMember="0"
							transform="translate(29.85,-2.13163E-13)">
						<title>Sheet.638</title>
						<path d="M8.85 54 L0 63 L2.1 63 L10.95 54 L8.85 54 Z" class="st4"/>
					</g>
					<g id="shape639-273" v:mID="639" v:groupContext="shape" v:layerMember="0" transform="translate(40.875,-11.25)">
						<title>Sheet.639</title>
						<path d="M2.1 63 L6.37 58.65 L6.37 56.55 L0 63 L2.1 63 Z" class="st4"/>
					</g>
					<g id="shape640-275" v:mID="640" v:groupContext="shape" v:layerMember="0" transform="translate(45.375,-11.25)">
						<title>Sheet.640</title>
						<path d="M1.88 63 L1.88 61.05 L0 63 L1.88 63 Z" class="st4"/>
					</g>
					<g id="shape641-277" v:mID="641" v:groupContext="shape" v:layerMember="0"
							transform="translate(34.35,-2.13163E-13)">
						<title>Sheet.641</title>
						<path d="M8.85 54 L0 63 L2.1 63 L10.95 54 L8.85 54 Z" class="st4"/>
					</g>
					<g id="shape642-279" v:mID="642" v:groupContext="shape" v:layerMember="0"
							transform="translate(38.775,7.10543E-15)">
						<title>Sheet.642</title>
						<path d="M8.48 56.47 L8.48 54.3 L0 63 L2.1 63 L8.48 56.47 Z" class="st4"/>
					</g>
					<g id="shape643-281" v:mID="643" v:groupContext="shape" v:layerMember="0"
							transform="translate(43.275,-1.42109E-14)">
						<title>Sheet.643</title>
						<path d="M2.1 63 L3.97 61.05 L3.97 58.87 L0 63 L2.1 63 Z" class="st4"/>
					</g>
				</g>
			</g>
		</g>
	</g>
</svg>
