<?xml version="1.0" encoding="UTF-8" standalone="no"?>
<!DOCTYPE svg PUBLIC "-//W3C//DTD SVG 1.1//EN" "http://www.w3.org/Graphics/SVG/1.1/DTD/svg11.dtd">
<!-- Generated by Microsoft Visio, SVG Export Folders.svg Page-1 -->
<svg xmlns="http://www.w3.org/2000/svg" xmlns:xlink="http://www.w3.org/1999/xlink" xmlns:ev="http://www.w3.org/2001/xml-events"
		xmlns:v="http://schemas.microsoft.com/visio/2003/SVGExtensions/" width="1.04688in" height="0.984375in"
		viewBox="0 0 75.375 70.875" xml:space="preserve" color-interpolation-filters="sRGB" class="st3">
	<v:documentProperties v:langID="4108" v:metric="true" v:viewMarkup="false"/>

	<style type="text/css">
	<![CDATA[
		.st1 {fill:#ffffff;stroke:none;stroke-linecap:butt;stroke-width:0.75}
		.st2 {fill:#525352;stroke:none;stroke-linecap:butt;stroke-width:0.75}
		.st3 {fill:none;fill-rule:evenodd;font-size:12px;overflow:visible;stroke-linecap:square;stroke-miterlimit:3}
	]]>
	</style>

	<g v:mID="0" v:index="1" v:groupContext="foregroundPage">
		<title>Page-1</title>
		<v:pageProperties v:drawingScale="0.0393701" v:pageScale="0.0393701" v:drawingUnits="24" v:shadowOffsetX="8.50394"
				v:shadowOffsetY="-8.50394"/>
		<v:layer v:name="symbols" v:index="0"/>
		<g id="group699-1" transform="translate(7.30313,-6.5625)" v:mID="699" v:groupContext="group" v:layerMember="0">
			<title>Folders</title>
			<g id="group700-2" v:mID="700" v:groupContext="group" v:layerMember="0">
				<title>Sheet.700</title>
				<g id="group701-3" transform="translate(-3.11751E-13,-15)" v:mID="701" v:groupContext="group" v:layerMember="0">
					<title>Sheet.701</title>
					<g id="shape702-4" v:mID="702" v:groupContext="shape" v:layerMember="0">
						<title>Sheet.702</title>
						<path d="M42.75 28.13 L32.25 28.13 C30.08 28.13 28.95 29.25 27.9 30.23 L22.2 35.63 L5.25 35.63 C2.33 35.63
									 0 37.95 0 40.88 L0 70.88 L48 70.88 L48 37.88 L48 35.63 L48 33.38 C48 30.45 45.68 28.13 42.75
									 28.13 Z" class="st1"/>
					</g>
					<g id="shape703-6" v:mID="703" v:groupContext="shape" v:layerMember="0" transform="translate(25.5,-35.25)">
						<title>Sheet.703</title>
						<path d="M20.25 70.88 L20.25 68.63 C20.25 66.98 18.9 65.63 17.25 65.63 L16.5 65.63 L10.28 65.63 L6.75 65.63
									 C5.47 65.63 4.87 66.23 3.98 67.13 L0 70.88 L20.25 70.88 Z" class="st2"/>
					</g>
					<g id="shape704-8" v:mID="704" v:groupContext="shape" v:layerMember="0" transform="translate(2.25,-2.25)">
						<title>Sheet.704</title>
						<path d="M3 40.13 C1.35 40.13 0 41.48 0 43.13 L0 70.88 L43.5 70.88 L43.5 45.38 L43.5 43.13 L43.5 40.13 L3
									 40.13 Z" class="st2"/>
					</g>
				</g>
				<g id="group705-10" transform="translate(6.75,-7.5)" v:mID="705" v:groupContext="group" v:layerMember="0">
					<title>Sheet.705</title>
					<g id="shape706-11" v:mID="706" v:groupContext="shape" v:layerMember="0">
						<title>Sheet.706</title>
						<path d="M42.75 28.13 L32.25 28.13 C30.08 28.13 28.95 29.25 27.9 30.23 L22.2 35.63 L5.25 35.63 C2.33 35.63
									 0 37.95 0 40.88 L0 70.88 L48 70.88 L48 37.88 L48 35.63 L48 33.38 C48 30.45 45.68 28.13 42.75
									 28.13 Z" class="st1"/>
					</g>
					<g id="shape707-13" v:mID="707" v:groupContext="shape" v:layerMember="0" transform="translate(25.5,-35.25)">
						<title>Sheet.707</title>
						<path d="M20.25 70.88 L20.25 68.63 C20.25 66.98 18.9 65.63 17.25 65.63 L16.5 65.63 L10.28 65.63 L6.75 65.63
									 C5.47 65.63 4.87 66.23 3.98 67.13 L0 70.88 L20.25 70.88 Z" class="st2"/>
					</g>
					<g id="shape708-15" v:mID="708" v:groupContext="shape" v:layerMember="0" transform="translate(2.25,-2.25)">
						<title>Sheet.708</title>
						<path d="M3 40.13 C1.35 40.13 0 41.48 0 43.13 L0 70.88 L43.5 70.88 L43.5 45.38 L43.5 43.13 L43.5 40.13 L3
									 40.13 Z" class="st2"/>
					</g>
				</g>
				<g id="group709-17" transform="translate(13.5,0)" v:mID="709" v:groupContext="group" v:layerMember="0">
					<title>Sheet.709</title>
					<g id="shape710-18" v:mID="710" v:groupContext="shape" v:layerMember="0">
						<title>Sheet.710</title>
						<path d="M42.75 28.13 L32.25 28.13 C30.08 28.13 28.95 29.25 27.9 30.23 L22.2 35.63 L5.25 35.63 C2.33 35.63
									 0 37.95 0 40.88 L0 70.88 L48 70.88 L48 37.88 L48 35.63 L48 33.38 C48 30.45 45.68 28.13 42.75
									 28.13 Z" class="st1"/>
					</g>
					<g id="shape711-20" v:mID="711" v:groupContext="shape" v:layerMember="0" transform="translate(25.5,-35.25)">
						<title>Sheet.711</title>
						<path d="M20.25 70.88 L20.25 68.63 C20.25 66.98 18.9 65.63 17.25 65.63 L16.5 65.63 L10.28 65.63 L6.75 65.63
									 C5.47 65.63 4.87 66.23 3.98 67.13 L0 70.88 L20.25 70.88 Z" class="st2"/>
					</g>
					<g id="shape712-22" v:mID="712" v:groupContext="shape" v:layerMember="0" transform="translate(2.25,-2.25)">
						<title>Sheet.712</title>
						<path d="M3 40.13 C1.35 40.13 0 41.48 0 43.13 L0 70.88 L43.5 70.88 L43.5 45.38 L43.5 43.13 L43.5 40.13 L3
									 40.13 Z" class="st2"/>
					</g>
				</g>
			</g>
		</g>
	</g>
</svg>
