<?xml version="1.0" encoding="UTF-8" standalone="no"?>
<!DOCTYPE svg PUBLIC "-//W3C//DTD SVG 1.1//EN" "http://www.w3.org/Graphics/SVG/1.1/DTD/svg11.dtd">
<!-- Generated by Microsoft Visio, SVG Export Folder, Public.svg Page-1 -->
<svg xmlns="http://www.w3.org/2000/svg" xmlns:xlink="http://www.w3.org/1999/xlink" xmlns:ev="http://www.w3.org/2001/xml-events"
		xmlns:v="http://schemas.microsoft.com/visio/2003/SVGExtensions/" width="1.07812in" height="0.921875in"
		viewBox="0 0 77.625 66.375" xml:space="preserve" color-interpolation-filters="sRGB" class="st4">
	<v:documentProperties v:langID="4108" v:metric="true" v:viewMarkup="false"/>

	<style type="text/css">
	<![CDATA[
		.st1 {fill:#ffffff;stroke:none;stroke-linecap:butt;stroke-width:0.75}
		.st2 {fill:#535352;stroke:none;stroke-linecap:butt;stroke-width:0.75}
		.st3 {fill:#515050;stroke:none;stroke-linecap:butt;stroke-width:0.75}
		.st4 {fill:none;fill-rule:evenodd;font-size:12px;overflow:visible;stroke-linecap:square;stroke-miterlimit:3}
	]]>
	</style>

	<g v:mID="0" v:index="1" v:groupContext="foregroundPage">
		<title>Page-1</title>
		<v:pageProperties v:drawingScale="0.0393701" v:pageScale="0.0393701" v:drawingUnits="24" v:shadowOffsetX="8.50394"
				v:shadowOffsetY="-8.50394"/>
		<v:layer v:name="symbols" v:index="0"/>
		<g id="group731-1" transform="translate(8.72812,-2.8125)" v:mID="731" v:groupContext="group" v:layerMember="0">
			<title>Folder, Public</title>
			<g id="group732-2" v:mID="732" v:groupContext="group" v:layerMember="0">
				<title>Sheet.732</title>
				<g id="group733-3" transform="translate(3.15747E-13,-9)" v:mID="733" v:groupContext="group" v:layerMember="0">
					<title>Sheet.733</title>
					<g id="shape734-4" v:mID="734" v:groupContext="shape" v:layerMember="0">
						<title>Sheet.734</title>
						<path d="M45.75 19.12 L33.15 19.12 C30.97 19.12 29.85 20.25 28.8 21.22 L22.2 27.37 L5.25 27.37 C2.33 27.37
									 0 29.7 0 32.62 L0 66.37 L51 66.37 L51 29.62 L51 27.37 L51 24.37 C51 21.45 48.67 19.12 45.75
									 19.12 Z" class="st1"/>
					</g>
					<g id="shape735-6" v:mID="735" v:groupContext="shape" v:layerMember="0" transform="translate(25.5,-39)">
						<title>Sheet.735</title>
						<path d="M23.25 66.37 L23.25 63.37 C23.25 61.72 21.9 60.37 20.25 60.37 L19.5 60.37 L13.27 60.37 L7.65 60.37
									 C6.38 60.37 5.77 60.97 4.88 61.87 L0 66.37 L23.25 66.37 Z" class="st2"/>
					</g>
					<g id="shape736-8" v:mID="736" v:groupContext="shape" v:layerMember="0" transform="translate(2.25,-2.25)">
						<title>Sheet.736</title>
						<path d="M3 31.87 C1.35 31.87 0 33.22 0 34.87 L0 66.37 L46.5 66.37 L46.5 37.12 L46.5 34.87 L46.5 31.87 L3
									 31.87 Z" class="st2"/>
					</g>
				</g>
				<g id="group737-10" transform="translate(32.25,-2.70006E-13)" v:mID="737" v:groupContext="group" v:layerMember="0">
					<title>Sheet.737</title>
					<g id="group738-11" v:mID="738" v:groupContext="group" v:layerMember="0">
						<title>Sheet.738</title>
						<g id="shape739-12" v:mID="739" v:groupContext="shape" v:layerMember="0">
							<title>Sheet.739</title>
							<path d="M4.5 66.37 C2.02 66.37 0 64.35 0 61.87 L0 40.87 C0 38.4 2.02 36.37 4.5 36.37 L25.5 36.37 C27.97
										 36.37 30 38.4 30 40.87 L30 61.87 C30 64.35 27.97 66.37 25.5 66.37 L4.5 66.37 Z"
									class="st1"/>
						</g>
						<g id="shape740-14" v:mID="740" v:groupContext="shape" v:layerMember="0" transform="translate(2.25,-2.25)">
							<title>Sheet.740</title>
							<path d="M25.5 64.12 C25.5 65.4 24.52 66.37 23.25 66.37 L2.25 66.37 C0.97 66.37 0 65.4 0 64.12 L0 43.12
										 C0 41.85 0.97 40.87 2.25 40.87 L23.25 40.87 C24.52 40.87 25.5 41.85 25.5 43.12 L25.5 64.12
										 Z" class="st3"/>
						</g>
					</g>
					<g id="shape741-16" v:mID="741" v:groupContext="shape" v:layerMember="0" transform="translate(6.75,-9.6)">
						<title>Sheet.741</title>
						<path d="M12.22 56.47 L10.65 58.05 L13.8 58.05 L9.52 62.32 C9.15 62.02 8.7 61.87 8.18 61.87 C7.65 61.87 7.2
									 62.02 6.82 62.32 L2.55 58.05 L5.7 58.05 L4.27 56.47 L0 56.47 L0 60.75 L1.57 62.32 L1.57 59.17
									 L6.07 63.67 C6 63.75 6 63.9 6 64.12 C6 65.4 6.97 66.37 8.25 66.37 C9.52 66.37 10.5 65.4 10.5
									 64.12 C10.5 63.97 10.5 63.75 10.42 63.6 L14.92 59.1 L14.92 62.25 L16.5 60.67 L16.5 56.47 L12.22
									 56.47 Z" class="st1"/>
					</g>
				</g>
			</g>
		</g>
	</g>
</svg>
