<?xml version="1.0" encoding="UTF-8" standalone="no"?>
<!DOCTYPE svg PUBLIC "-//W3C//DTD SVG 1.1//EN" "http://www.w3.org/Graphics/SVG/1.1/DTD/svg11.dtd">
<!-- Generated by Microsoft Visio, SVG Export Folder, Open.svg Page-1 -->
<svg xmlns="http://www.w3.org/2000/svg" xmlns:xlink="http://www.w3.org/1999/xlink" xmlns:ev="http://www.w3.org/2001/xml-events"
		xmlns:v="http://schemas.microsoft.com/visio/2003/SVGExtensions/" width="1.0375in" height="0.859375in"
		viewBox="0 0 74.7 61.875" xml:space="preserve" color-interpolation-filters="sRGB" class="st3">
	<v:documentProperties v:langID="4108" v:metric="true" v:viewMarkup="false"/>

	<style type="text/css">
	<![CDATA[
		.st1 {fill:#ffffff;stroke:none;stroke-linecap:butt;stroke-width:0.75}
		.st2 {fill:#525352;stroke:none;stroke-linecap:butt;stroke-width:0.75}
		.st3 {fill:none;fill-rule:evenodd;font-size:12px;overflow:visible;stroke-linecap:square;stroke-miterlimit:3}
	]]>
	</style>

	<g v:mID="0" v:index="1" v:groupContext="foregroundPage">
		<title>Page-1</title>
		<v:pageProperties v:drawingScale="0.0393701" v:pageScale="0.0393701" v:drawingUnits="24" v:shadowOffsetX="8.50394"
				v:shadowOffsetY="-8.50394"/>
		<v:layer v:name="symbols" v:index="0"/>
		<g id="group713-1" transform="translate(8.175,-8.4375)" v:mID="713" v:groupContext="group" v:layerMember="0">
			<title>Folder, Open</title>
			<g id="group714-2" v:mID="714" v:groupContext="group" v:layerMember="0">
				<title>Sheet.714</title>
				<g id="shape715-3" v:mID="715" v:groupContext="shape" v:layerMember="0">
					<title>Sheet.715</title>
					<path d="M59.4 33.38 C58.58 32.03 57.07 31.13 55.5 31.13 L54 31.13 L54 19.88 C54 16.95 51.67 14.63 48.75 14.63
								 L34.5 14.63 C32.93 14.63 31.13 15.6 30.07 17.03 L27.45 20.63 L5.25 20.63 C2.32 20.63 0 22.95 0 25.88
								 L0 61.88 L49.5 61.88 L59.4 37.88 C60.22 36.38 60.22 34.73 59.4 33.38 Z" class="st1"/>
				</g>
				<g id="group716-5" transform="translate(2.25,-2.25)" v:mID="716" v:groupContext="group" v:layerMember="0">
					<title>Sheet.716</title>
					<g id="shape717-6" v:mID="717" v:groupContext="shape" v:layerMember="0"
							transform="translate(-2.8777E-13,-2.325)">
						<title>Sheet.717</title>
						<path d="M9.9 39.53 C10.88 37.35 13.5 35.7 15.9 35.7 L49.5 35.7 L49.5 32.7 L49.5 30.45 L49.5 24.45 C49.5
									 22.8 48.15 21.45 46.5 21.45 L45.75 21.45 L36 21.45 L32.25 21.45 C31.42 21.45 30.22 22.13 29.63
									 22.95 L26.32 27.45 L3 27.45 C1.35 27.45 0 28.8 0 30.45 L0 61.88 L0.07 61.8 L9.9 39.53 Z"
								class="st2"/>
					</g>
					<g id="shape718-8" v:mID="718" v:groupContext="shape" v:layerMember="0" transform="translate(1.5,0)">
						<title>Sheet.718</title>
						<path d="M0 61.88 L10.43 38.1 C11.03 36.75 12.83 35.63 14.32 35.63 L51.75 35.63 C53.25 35.63 54.68 37.28
									 53.63 39.23 L44.25 61.88 L0 61.88 Z" class="st2"/>
					</g>
				</g>
			</g>
		</g>
	</g>
</svg>
