<?xml version="1.0" encoding="UTF-8" standalone="no"?>
<!DOCTYPE svg PUBLIC "-//W3C//DTD SVG 1.1//EN" "http://www.w3.org/Graphics/SVG/1.1/DTD/svg11.dtd">
<!-- Generated by Microsoft Visio, SVG Export Folder.svg Page-1 -->
<svg xmlns="http://www.w3.org/2000/svg" xmlns:xlink="http://www.w3.org/1999/xlink" xmlns:ev="http://www.w3.org/2001/xml-events"
		xmlns:v="http://schemas.microsoft.com/visio/2003/SVGExtensions/" width="0.984375in" height="0.859375in"
		viewBox="0 0 70.875 61.875" xml:space="preserve" color-interpolation-filters="sRGB" class="st3">
	<v:documentProperties v:langID="4108" v:metric="true" v:viewMarkup="false"/>

	<style type="text/css">
	<![CDATA[
		.st1 {fill:#ffffff;stroke:none;stroke-linecap:butt;stroke-width:0.75}
		.st2 {fill:#525352;stroke:none;stroke-linecap:butt;stroke-width:0.75}
		.st3 {fill:none;fill-rule:evenodd;font-size:12px;overflow:visible;stroke-linecap:square;stroke-miterlimit:3}
	]]>
	</style>

	<g v:mID="0" v:index="1" v:groupContext="foregroundPage">
		<title>Page-1</title>
		<v:pageProperties v:drawingScale="0.0393701" v:pageScale="0.0393701" v:drawingUnits="24" v:shadowOffsetX="8.50394"
				v:shadowOffsetY="-8.50394"/>
		<v:layer v:name="symbols" v:index="0"/>
		<g id="group644-1" transform="translate(8.57813,-8.4375)" v:mID="644" v:groupContext="group" v:layerMember="0">
			<title>Folder</title>
			<g id="group645-2" v:mID="645" v:groupContext="group" v:layerMember="0">
				<title>Sheet.645</title>
				<g id="shape646-3" v:mID="646" v:groupContext="shape" v:layerMember="0">
					<title>Sheet.646</title>
					<path d="M48.75 12.38 L36.15 12.38 C33.98 12.38 32.85 13.5 31.8 14.48 L25.2 20.63 L5.25 20.63 C2.33 20.63 0 22.95
								 0 25.88 L0 61.88 L54 61.88 L54 22.88 L54 20.63 L54 17.63 C54 14.7 51.67 12.38 48.75 12.38 Z"
							class="st1"/>
				</g>
				<g id="shape647-5" v:mID="647" v:groupContext="shape" v:layerMember="0" transform="translate(28.5,-41.25)">
					<title>Sheet.647</title>
					<path d="M23.25 61.88 L23.25 58.88 C23.25 57.23 21.9 55.88 20.25 55.88 L19.5 55.88 L13.28 55.88 L7.65 55.88 C6.38
								 55.88 5.77 56.48 4.88 57.38 L0 61.88 L23.25 61.88 Z" class="st2"/>
				</g>
				<g id="shape648-7" v:mID="648" v:groupContext="shape" v:layerMember="0" transform="translate(2.25,-2.25)">
					<title>Sheet.648</title>
					<path d="M3 25.13 C1.35 25.13 0 26.48 0 28.13 L0 61.88 L49.5 61.88 L49.5 30.38 L49.5 28.13 L49.5 25.13 L3 25.13
								 Z" class="st2"/>
				</g>
			</g>
		</g>
	</g>
</svg>
