<?xml version="1.0" encoding="UTF-8" standalone="no"?>
<!DOCTYPE svg PUBLIC "-//W3C//DTD SVG 1.1//EN" "http://www.w3.org/Graphics/SVG/1.1/DTD/svg11.dtd">
<!-- Generated by Microsoft Visio, SVG Export Folder, Shared.svg Page-1 -->
<svg xmlns="http://www.w3.org/2000/svg" xmlns:xlink="http://www.w3.org/1999/xlink" xmlns:ev="http://www.w3.org/2001/xml-events"
		xmlns:v="http://schemas.microsoft.com/visio/2003/SVGExtensions/" width="1in" height="0.859375in" viewBox="0 0 72 61.875"
		xml:space="preserve" color-interpolation-filters="sRGB" class="st4">
	<v:documentProperties v:langID="4108" v:metric="true" v:viewMarkup="false"/>

	<style type="text/css">
	<![CDATA[
		.st1 {fill:#ffffff;stroke:none;stroke-linecap:butt;stroke-width:0.75}
		.st2 {fill:#525352;stroke:none;stroke-linecap:butt;stroke-width:0.75}
		.st3 {fill:#515150;stroke:none;stroke-linecap:butt;stroke-width:0.75}
		.st4 {fill:none;fill-rule:evenodd;font-size:12px;overflow:visible;stroke-linecap:square;stroke-miterlimit:3}
	]]>
	</style>

	<g v:mID="0" v:index="1" v:groupContext="foregroundPage">
		<title>Page-1</title>
		<v:pageProperties v:drawingScale="0.0393701" v:pageScale="0.0393701" v:drawingUnits="24" v:shadowOffsetX="8.50394"
				v:shadowOffsetY="-8.50394"/>
		<v:layer v:name="symbols" v:index="0"/>
		<g id="group719-1" transform="translate(9.25313,-1.3125)" v:mID="719" v:groupContext="group" v:layerMember="0">
			<title>Folder, Shared</title>
			<g id="group720-2" transform="translate(0,-7.5)" v:mID="720" v:groupContext="group" v:layerMember="0">
				<title>Sheet.720</title>
				<g id="shape721-3" v:mID="721" v:groupContext="shape" v:layerMember="0">
					<title>Sheet.721</title>
					<path d="M48.75 12.37 L36.15 12.37 C33.98 12.37 32.85 13.5 31.8 14.47 L25.2 20.62 L5.25 20.62 C2.33 20.62 0 22.95
								 0 25.87 L0 61.87 L54 61.87 L54 22.87 L54 20.62 L54 17.62 C54 14.7 51.67 12.37 48.75 12.37 Z"
							class="st1"/>
				</g>
				<g id="shape722-5" v:mID="722" v:groupContext="shape" v:layerMember="0" transform="translate(28.5,-41.25)">
					<title>Sheet.722</title>
					<path d="M23.25 61.87 L23.25 58.87 C23.25 57.22 21.9 55.87 20.25 55.87 L19.5 55.87 L13.27 55.87 L7.65 55.87 C6.38
								 55.87 5.77 56.47 4.88 57.37 L0 61.87 L23.25 61.87 Z" class="st2"/>
				</g>
				<g id="shape723-7" v:mID="723" v:groupContext="shape" v:layerMember="0" transform="translate(2.25,-2.25)">
					<title>Sheet.723</title>
					<path d="M3 25.12 C1.35 25.12 0 26.47 0 28.12 L0 61.87 L49.5 61.87 L49.5 30.37 L49.5 28.12 L49.5 25.12 L3 25.12
								 Z" class="st2"/>
				</g>
			</g>
			<g id="group724-9" transform="translate(26.25,-2.84217E-13)" v:mID="724" v:groupContext="group" v:layerMember="0">
				<title>Sheet.724</title>
				<g id="shape725-10" v:mID="725" v:groupContext="shape" v:layerMember="0">
					<title>Sheet.725</title>
					<path d="M16.12 61.87 C7.2 61.87 0 54.67 0 45.75 C0 36.82 7.2 29.62 16.12 29.62 C25.05 29.62 32.25 36.82 32.25
								 45.75 C32.25 54.67 25.05 61.87 16.12 61.87 Z" class="st1"/>
				</g>
				<g id="shape726-12" v:mID="726" v:groupContext="shape" v:layerMember="0" transform="translate(2.25,-2.25)">
					<title>Sheet.726</title>
					<path d="M13.87 34.12 C6.22 34.12 0 40.35 0 48 C0 55.65 6.22 61.87 13.87 61.87 C21.53 61.87 27.75 55.65 27.75
								 48 C27.75 40.35 21.53 34.12 13.87 34.12 Z" class="st3"/>
				</g>
				<g id="group727-14" transform="translate(5.25,-6.375)" v:mID="727" v:groupContext="group" v:layerMember="0">
					<title>Sheet.727</title>
					<g id="shape728-15" v:mID="728" v:groupContext="shape" v:layerMember="0" transform="translate(3.375,-13.125)">
						<title>Sheet.728</title>
						<path d="M9 60.37 C10.05 61.42 11.77 61.42 12.82 60.37 C13.87 59.32 13.87 57.6 12.82 56.55 C11.77 55.5 10.05
									 55.5 9 56.55 C9 56.55 8.92 56.62 8.92 56.62 C8.55 56.55 8.17 56.55 7.73 56.55 C4.35 56.55 1.5
									 58.42 0 61.2 C0.68 61.27 1.27 61.5 1.8 61.87 C3 59.85 5.17 58.5 7.65 58.5 C7.8 58.5 7.95 58.5
									 8.1 58.5 C8.17 59.17 8.47 59.85 9 60.37 Z" class="st1"/>
					</g>
					<g id="shape729-17" v:mID="729" v:groupContext="shape" v:layerMember="0"
							transform="translate(9.89209E-14,-0.975)">
						<title>Sheet.729</title>
						<path d="M10.2 59.85 C7.57 59.47 5.47 57.67 4.65 55.27 C4.72 55.2 4.8 55.12 4.87 55.05 C5.92 54 5.92 52.27
									 4.87 51.22 C3.82 50.17 2.1 50.17 1.05 51.22 C-0 52.27 -0 54 1.05 55.05 C1.57 55.57 2.18 55.8
									 2.85 55.87 C3.97 59.25 7.05 61.65 10.65 61.87 C10.35 61.2 10.2 60.6 10.2 59.85 C10.2 59.85 10.2
									 59.85 10.2 59.85 Z" class="st1"/>
					</g>
					<g id="shape730-19" v:mID="730" v:groupContext="shape" v:layerMember="0"
							transform="translate(11.325,1.06581E-13)">
						<title>Sheet.730</title>
						<path d="M8.55 52.12 C8.55 50.17 7.87 48.3 6.75 46.87 C6.52 47.4 6.22 47.85 5.85 48.22 C5.77 48.3 5.62 48.45
									 5.55 48.52 C6.22 49.57 6.6 50.85 6.6 52.12 C6.6 53.92 5.85 55.57 4.72 56.85 C3.67 55.95 2.1
									 56.02 1.05 57 C-0 58.05 -0 59.77 1.05 60.82 C2.1 61.87 3.82 61.87 4.87 60.82 C5.47 60.22 5.77
									 59.32 5.62 58.57 C7.42 57 8.55 54.67 8.55 52.12 Z" class="st1"/>
					</g>
				</g>
			</g>
		</g>
	</g>
</svg>
