<?xml version="1.0" encoding="UTF-8" standalone="no"?>
<!DOCTYPE svg PUBLIC "-//W3C//DTD SVG 1.1//EN" "http://www.w3.org/Graphics/SVG/1.1/DTD/svg11.dtd">
<!-- Generated by Microsoft Visio, SVG Export Folder - ghosted.svg Page-1 -->
<svg xmlns="http://www.w3.org/2000/svg" xmlns:xlink="http://www.w3.org/1999/xlink" xmlns:ev="http://www.w3.org/2001/xml-events"
		xmlns:v="http://schemas.microsoft.com/visio/2003/SVGExtensions/" width="0.96875in" height="0.859375in"
		viewBox="0 0 69.75 61.875" xml:space="preserve" color-interpolation-filters="sRGB" class="st4">
	<v:documentProperties v:langID="4108" v:metric="true" v:viewMarkup="false"/>

	<style type="text/css">
	<![CDATA[
		.st1 {fill:#ffffff;stroke:none;stroke-linecap:butt;stroke-width:0.75}
		.st2 {fill:#9c9c9d;stroke:none;stroke-linecap:butt;stroke-width:0.75}
		.st3 {fill:#cccbcb;stroke:none;stroke-linecap:butt;stroke-width:0.75}
		.st4 {fill:none;fill-rule:evenodd;font-size:12px;overflow:visible;stroke-linecap:square;stroke-miterlimit:3}
	]]>
	</style>

	<g v:mID="0" v:index="1" v:groupContext="foregroundPage">
		<title>Page-1</title>
		<v:pageProperties v:drawingScale="0.0393701" v:pageScale="0.0393701" v:drawingUnits="24" v:shadowOffsetX="8.50394"
				v:shadowOffsetY="-8.50394"/>
		<v:layer v:name="symbols" v:index="0"/>
		<g id="group664-1" transform="translate(8.4375,-8.4375)" v:mID="664" v:groupContext="group" v:layerMember="0">
			<title>Folder - ghosted</title>
			<g id="group665-2" v:mID="665" v:groupContext="group" v:layerMember="0">
				<title>Sheet.665</title>
				<g id="group666-3" v:mID="666" v:groupContext="group" v:layerMember="0">
					<title>Sheet.666</title>
					<g id="shape667-4" v:mID="667" v:groupContext="shape" v:layerMember="0">
						<title>Sheet.667</title>
						<path d="M48.75 12.38 L36.15 12.38 C33.98 12.38 32.85 13.5 31.8 14.48 L25.2 20.63 L5.25 20.63 C2.33 20.63
									 0 22.95 0 25.88 L0 61.88 L54 61.88 L54 22.88 L54 20.63 L54 17.63 C54 14.7 51.67 12.38 48.75
									 12.38 Z" class="st1"/>
					</g>
					<g id="shape668-6" v:mID="668" v:groupContext="shape" v:layerMember="0" transform="translate(28.5,-41.25)">
						<title>Sheet.668</title>
						<path d="M23.25 61.88 L23.25 58.88 C23.25 57.23 21.9 55.88 20.25 55.88 L19.5 55.88 L13.28 55.88 L7.65 55.88
									 C6.38 55.88 5.77 56.48 4.88 57.38 L0 61.88 L23.25 61.88 Z" class="st2"/>
					</g>
					<g id="shape669-8" v:mID="669" v:groupContext="shape" v:layerMember="0" transform="translate(2.25,-2.25)">
						<title>Sheet.669</title>
						<path d="M3 25.13 C1.35 25.13 0 26.48 0 28.13 L0 61.88 L49.5 61.88 L49.5 30.38 L49.5 28.13 L49.5 25.13 L3
									 25.13 Z" class="st2"/>
					</g>
				</g>
				<g id="group670-10" transform="translate(2.25,-2.25)" v:mID="670" v:groupContext="group" v:layerMember="0">
					<title>Sheet.670</title>
					<g id="shape671-11" v:mID="671" v:groupContext="shape" v:layerMember="0" transform="translate(0,-31.275)">
						<title>Sheet.671</title>
						<path d="M5.4 56.4 L3.3 56.4 L0 59.78 L0 61.88 L5.4 56.4 Z" class="st3"/>
					</g>
					<g id="shape672-13" v:mID="672" v:groupContext="shape" v:layerMember="0" transform="translate(0,-26.775)">
						<title>Sheet.672</title>
						<path d="M7.8 51.9 L0 59.78 L0 61.88 L9.9 51.9 L7.8 51.9 Z" class="st3"/>
					</g>
					<g id="shape673-15" v:mID="673" v:groupContext="shape" v:layerMember="0"
							transform="translate(2.51799E-13,-22.275)">
						<title>Sheet.673</title>
						<path d="M14.4 47.4 L12.22 47.4 L0 59.78 L0 61.88 L14.4 47.4 Z" class="st3"/>
					</g>
					<g id="shape674-17" v:mID="674" v:groupContext="shape" v:layerMember="0"
							transform="translate(2.51799E-13,-17.775)">
						<title>Sheet.674</title>
						<path d="M16.73 42.9 L0 59.78 L0 61.88 L18.83 42.9 L16.73 42.9 Z" class="st3"/>
					</g>
					<g id="shape675-19" v:mID="675" v:groupContext="shape" v:layerMember="0" transform="translate(0,-13.275)">
						<title>Sheet.675</title>
						<path d="M23.33 38.4 L21.22 38.4 L0 59.78 L0 61.88 L23.33 38.4 Z" class="st3"/>
					</g>
					<g id="shape676-21" v:mID="676" v:groupContext="shape" v:layerMember="0" transform="translate(27.975,-39)">
						<title>Sheet.676</title>
						<path d="M0 61.88 L2.1 61.88 L8.02 55.88 L5.92 55.88 L0 61.88 Z" class="st3"/>
					</g>
					<g id="shape677-23" v:mID="677" v:groupContext="shape" v:layerMember="0"
							transform="translate(2.51799E-13,-8.7)">
						<title>Sheet.677</title>
						<path d="M25.72 33.83 L0 59.7 L0 61.88 L27.82 33.83 L25.72 33.83 Z" class="st3"/>
					</g>
					<g id="shape678-25" v:mID="678" v:groupContext="shape" v:layerMember="0" transform="translate(0,-4.2)">
						<title>Sheet.678</title>
						<path d="M30.22 29.33 L0 59.7 L0 61.88 L32.32 29.33 L30.22 29.33 Z" class="st3"/>
					</g>
					<g id="shape679-27" v:mID="679" v:groupContext="shape" v:layerMember="0" transform="translate(32.475,-39)">
						<title>Sheet.679</title>
						<path d="M2.1 61.88 L8.02 55.88 L7.05 55.88 L5.92 55.88 L0 61.88 L2.1 61.88 Z" class="st3"/>
					</g>
					<g id="shape680-29" v:mID="680" v:groupContext="shape" v:layerMember="0">
						<title>Sheet.680</title>
						<path d="M0.3 61.88 L36.82 25.13 L34.65 25.13 L0 60 L0 61.88 L0.3 61.88 Z" class="st3"/>
					</g>
					<g id="shape681-31" v:mID="681" v:groupContext="shape" v:layerMember="0" transform="translate(36.9,-39)">
						<title>Sheet.681</title>
						<path d="M2.1 61.88 L8.1 55.88 L6 55.88 L0 61.88 L2.1 61.88 Z" class="st3"/>
					</g>
					<g id="shape682-33" v:mID="682" v:groupContext="shape" v:layerMember="0" transform="translate(41.4,-39)">
						<title>Sheet.682</title>
						<path d="M2.18 61.88 L7.28 56.78 C6.9 56.4 6.45 56.18 5.93 56.03 L0 61.88 L2.18 61.88 Z" class="st3"/>
					</g>
					<g id="shape683-35" v:mID="683" v:groupContext="shape" v:layerMember="0"
							transform="translate(2.625,2.20268E-13)">
						<title>Sheet.683</title>
						<path d="M36.6 25.13 L0 61.88 L2.1 61.88 L38.7 25.13 L36.6 25.13 Z" class="st3"/>
					</g>
					<g id="shape684-37" v:mID="684" v:groupContext="shape" v:layerMember="0"
							transform="translate(7.125,2.20268E-13)">
						<title>Sheet.684</title>
						<path d="M36.53 25.13 L0 61.88 L2.1 61.88 L38.63 25.13 L36.53 25.13 Z" class="st3"/>
					</g>
					<g id="shape685-39" v:mID="685" v:groupContext="shape" v:layerMember="0" transform="translate(45.9,-39)">
						<title>Sheet.685</title>
						<path d="M3.6 58.88 C3.6 58.65 3.6 58.5 3.53 58.35 L0 61.88 L2.1 61.88 L3.6 60.38 L3.6 58.88 Z" class="st3"/>
					</g>
					<g id="shape686-41" v:mID="686" v:groupContext="shape" v:layerMember="0"
							transform="translate(11.55,2.20268E-13)">
						<title>Sheet.686</title>
						<path d="M37.95 25.88 L37.95 25.13 L36.6 25.13 L0 61.88 L2.18 61.88 L37.95 25.88 Z" class="st3"/>
					</g>
					<g id="shape687-43" v:mID="687" v:groupContext="shape" v:layerMember="0" transform="translate(16.35,0)">
						<title>Sheet.687</title>
						<path d="M33.15 30.38 L33.15 28.35 L0 61.88 L2.1 61.88 L33.15 30.53 L33.15 30.38 Z" class="st3"/>
					</g>
					<g id="shape688-45" v:mID="688" v:groupContext="shape" v:layerMember="0" transform="translate(20.85,0)">
						<title>Sheet.688</title>
						<path d="M28.65 35.03 L28.65 32.85 L0 61.88 L2.1 61.88 L28.65 35.03 Z" class="st3"/>
					</g>
					<g id="shape689-47" v:mID="689" v:groupContext="shape" v:layerMember="0" transform="translate(25.35,0)">
						<title>Sheet.689</title>
						<path d="M24.15 39.53 L24.15 37.35 L0 61.88 L2.1 61.88 L24.15 39.53 Z" class="st3"/>
					</g>
					<g id="shape690-49" v:mID="690" v:groupContext="shape" v:layerMember="0"
							transform="translate(29.85,-2.20268E-13)">
						<title>Sheet.690</title>
						<path d="M19.65 44.03 L19.65 41.93 L0 61.88 L2.1 61.88 L19.65 44.03 Z" class="st3"/>
					</g>
					<g id="shape691-51" v:mID="691" v:groupContext="shape" v:layerMember="0"
							transform="translate(34.35,-2.20268E-13)">
						<title>Sheet.691</title>
						<path d="M15.15 46.43 L0 61.88 L2.1 61.88 L15.15 48.6 L15.15 46.43 Z" class="st3"/>
					</g>
					<g id="shape692-53" v:mID="692" v:groupContext="shape" v:layerMember="0"
							transform="translate(38.775,-2.20268E-13)">
						<title>Sheet.692</title>
						<path d="M10.73 53.1 L10.73 50.93 L0 61.88 L2.1 61.88 L10.73 53.1 Z" class="st3"/>
					</g>
					<g id="shape693-55" v:mID="693" v:groupContext="shape" v:layerMember="0"
							transform="translate(43.275,8.52651E-14)">
						<title>Sheet.693</title>
						<path d="M6.23 55.5 L0 61.88 L2.1 61.88 L6.23 57.68 L6.23 55.5 Z" class="st3"/>
					</g>
					<g id="shape694-57" v:mID="694" v:groupContext="shape" v:layerMember="0"
							transform="translate(47.625,2.13163E-14)">
						<title>Sheet.694</title>
						<path d="M1.88 60 L0 61.88 L1.88 61.88 L1.88 60 Z" class="st3"/>
					</g>
				</g>
			</g>
		</g>
	</g>
</svg>
