<?xml version="1.0" encoding="UTF-8" standalone="no"?>
<!DOCTYPE svg PUBLIC "-//W3C//DTD SVG 1.1//EN" "http://www.w3.org/Graphics/SVG/1.1/DTD/svg11.dtd">
<!-- Generated by Microsoft Visio, SVG Export Form.svg Page-1 -->
<svg xmlns="http://www.w3.org/2000/svg" xmlns:xlink="http://www.w3.org/1999/xlink" xmlns:ev="http://www.w3.org/2001/xml-events"
		xmlns:v="http://schemas.microsoft.com/visio/2003/SVGExtensions/" width="1.03125in" height="0.890625in"
		viewBox="0 0 74.25 64.125" xml:space="preserve" color-interpolation-filters="sRGB" class="st3">
	<v:documentProperties v:langID="4108" v:metric="true" v:viewMarkup="false"/>

	<style type="text/css">
	<![CDATA[
		.st1 {fill:#ffffff;stroke:none;stroke-linecap:butt;stroke-width:0.75}
		.st2 {fill:#515150;stroke:none;stroke-linecap:butt;stroke-width:0.75}
		.st3 {fill:none;fill-rule:evenodd;font-size:12px;overflow:visible;stroke-linecap:square;stroke-miterlimit:3}
	]]>
	</style>

	<g v:mID="0" v:index="1" v:groupContext="foregroundPage">
		<title>Page-1</title>
		<v:pageProperties v:drawingScale="0.0393701" v:pageScale="0.0393701" v:drawingUnits="24" v:shadowOffsetX="8.50394"
				v:shadowOffsetY="-8.50394"/>
		<v:layer v:name="symbols" v:index="0"/>
		<g id="group742-1" transform="translate(7.79063,-3.075)" v:mID="742" v:groupContext="group" v:layerMember="0">
			<title>Form</title>
			<g id="group743-2" transform="translate(0,-8.475)" v:mID="743" v:groupContext="group" v:layerMember="0">
				<title>Sheet.743</title>
				<g id="group744-3" v:mID="744" v:groupContext="group" v:layerMember="0">
					<title>Sheet.744</title>
					<g id="shape745-4" v:mID="745" v:groupContext="shape" v:layerMember="0">
						<title>Sheet.745</title>
						<path d="M5.25 64.12 C2.32 64.12 0 61.8 0 58.87 L0 24.37 C0 21.45 2.32 19.12 5.25 19.12 L51 19.12 C53.93
									 19.12 56.25 21.45 56.25 24.37 L56.25 58.87 C56.25 61.8 53.93 64.12 51 64.12 L5.25 64.12 Z"
								class="st1"/>
					</g>
					<g id="shape746-6" v:mID="746" v:groupContext="shape" v:layerMember="0" transform="translate(2.25,-2.25)">
						<title>Sheet.746</title>
						<path d="M48.75 23.62 L3 23.62 C1.35 23.62 0 24.97 0 26.62 L0 61.12 C0 62.77 1.35 64.12 3 64.12 L48.75 64.12
									 C50.4 64.12 51.75 62.77 51.75 61.12 L51.75 26.62 C51.75 24.97 50.4 23.62 48.75 23.62 ZM42.75
									 25.87 L45 25.87 L45 28.12 L42.75 28.12 L42.75 25.87 ZM38.25 25.87 L40.5 25.87 L40.5 28.12 L38.25
									 28.12 L38.25 25.87 ZM49.5 61.12 C49.5 61.57 49.2 61.87 48.75 61.87 L3 61.87 C2.55 61.87 2.25
									 61.57 2.25 61.12 L2.25 31.12 L49.5 31.12 L49.5 61.12 ZM49.5 28.12 L47.25 28.12 L47.25 25.87
									 L49.5 25.87 L49.5 28.12 Z" class="st2"/>
					</g>
				</g>
				<g id="shape747-8" v:mID="747" v:groupContext="shape" v:layerMember="0" transform="translate(8.25,-9)">
					<title>Sheet.747</title>
					<path d="M38.25 48.37 L38.25 62.62 L1.5 62.62 L1.5 48.37 L38.25 48.37 ZM39.75 46.87 L0 46.87 L0 64.12 L39.75
								 64.12 L39.75 46.87 Z" class="st2"/>
				</g>
				<g id="shape748-10" v:mID="748" v:groupContext="shape" v:layerMember="0" transform="translate(8.25,-29.25)">
					<title>Sheet.748</title>
					<rect x="0" y="62.625" width="14.25" height="1.5" class="st2"/>
				</g>
			</g>
			<g id="group749-12" transform="translate(26.7,2.70006E-13)" v:mID="749" v:groupContext="group" v:layerMember="0">
				<title>Sheet.749</title>
				<g id="shape750-13" v:mID="750" v:groupContext="shape" v:layerMember="0">
					<title>Sheet.750</title>
					<path d="M2.78 64.12 C1.95 64.12 1.2 63.75 0.68 63.15 C0.15 62.55 0 61.72 0.15 60.9 L0.22 60.52 L5.63 51.9 L22.8
								 34.65 L25.5 31.95 C26.18 31.27 27.15 30.9 28.05 30.9 C28.95 30.9 29.78 31.27 30.45 31.87 L32.4 33.82
								 C33 34.42 33.38 35.32 33.38 36.22 C33.38 37.2 33 38.1 32.33 38.77 L29.55 41.4 L12.37 58.65 L3.75
								 63.97 L3.38 64.05 C3.15 64.12 3 64.12 2.78 64.12 Z" class="st1"/>
				</g>
				<g id="shape751-15" v:mID="751" v:groupContext="shape" v:layerMember="0" transform="translate(2.325,-2.25)">
					<title>Sheet.751</title>
					<path d="M28.43 37.65 L26.48 35.7 C26.03 35.25 25.2 35.32 24.75 35.77 L23.33 37.2 L22.05 38.47 L5.1 55.57 L0.08
								 63.6 C0 63.9 0.15 64.12 0.45 64.12 C0.52 64.12 0.52 64.12 0.6 64.12 L8.63 59.17 L25.65 42.07 L26.93
								 40.8 L28.35 39.37 C28.8 38.85 28.88 38.1 28.43 37.65 ZM3.08 61.57 L2.63 61.12 L5.25 56.92 L7.27
								 58.95 L3.08 61.57 Z" class="st2"/>
				</g>
			</g>
		</g>
	</g>
</svg>
