<?xml version="1.0" encoding="UTF-8" standalone="no"?>
<!DOCTYPE svg PUBLIC "-//W3C//DTD SVG 1.1//EN" "http://www.w3.org/Graphics/SVG/1.1/DTD/svg11.dtd">
<!-- Generated by Microsoft Visio, SVG Export Get Started.svg Page-1 -->
<svg xmlns="http://www.w3.org/2000/svg" xmlns:xlink="http://www.w3.org/1999/xlink" xmlns:ev="http://www.w3.org/2001/xml-events"
		xmlns:v="http://schemas.microsoft.com/visio/2003/SVGExtensions/" width="0.859375in" height="0.984375in"
		viewBox="0 0 61.875 70.875" xml:space="preserve" color-interpolation-filters="sRGB" class="st3">
	<v:documentProperties v:langID="4108" v:metric="true" v:viewMarkup="false"/>

	<style type="text/css">
	<![CDATA[
		.st1 {fill:#ffffff;stroke:none;stroke-linecap:butt;stroke-width:0.75}
		.st2 {fill:#505050;stroke:none;stroke-linecap:butt;stroke-width:0.75}
		.st3 {fill:none;fill-rule:evenodd;font-size:12px;overflow:visible;stroke-linecap:square;stroke-miterlimit:3}
	]]>
	</style>

	<g v:mID="0" v:index="1" v:groupContext="foregroundPage">
		<title>Page-1</title>
		<v:pageProperties v:drawingScale="0.0393701" v:pageScale="0.0393701" v:drawingUnits="24" v:shadowOffsetX="8.50394"
				v:shadowOffsetY="-8.50394"/>
		<v:layer v:name="symbols" v:index="0"/>
		<g id="group752-1" transform="translate(8.95312,-5.4375)" v:mID="752" v:groupContext="group" v:layerMember="0">
			<title>Get Started</title>
			<g id="group753-2" v:mID="753" v:groupContext="group" v:layerMember="0">
				<title>Sheet.753</title>
				<g id="group754-3" v:mID="754" v:groupContext="group" v:layerMember="0">
					<title>Sheet.754</title>
					<g id="shape755-4" v:mID="755" v:groupContext="shape" v:layerMember="0">
						<title>Sheet.755</title>
						<path d="M49.2 56.03 L32.55 39.3 L48 30.9 L44.62 23.55 L32.93 27.98 L36.45 15.98 L28.87 13.13 L23.7 24.53
									 L17.78 13.5 L10.43 16.88 L14.85 28.58 L2.85 25.05 L0 32.63 L11.4 37.8 L0.38 43.73 L3.75 51.08
									 L20.17 44.93 L20.1 67.35 L28.42 59.1 L33.75 70.88 L42.37 66.98 L37.42 55.95 L49.2 56.03 Z"
								class="st1"/>
					</g>
					<g id="shape756-6" v:mID="756" v:groupContext="shape" v:layerMember="0" transform="translate(24.225,-39.975)">
						<title>Sheet.756</title>
						<path d="M2.93 69.38 C3.9 69.75 4.72 70.28 5.48 70.88 L9.53 57.3 L5.85 55.95 L0 68.85 C0.98 68.85 1.95 69
									 2.93 69.38 Z" class="st2"/>
					</g>
					<g id="shape757-8" v:mID="757" v:groupContext="shape" v:layerMember="0" transform="translate(13.275,-39.45)">
						<title>Sheet.757</title>
						<path d="M10.27 68.4 L3.52 55.95 L0 57.6 L5.02 70.88 C6.37 69.38 8.25 68.55 10.27 68.4 Z" class="st2"/>
					</g>
					<g id="shape758-10" v:mID="758" v:groupContext="shape" v:layerMember="0" transform="translate(2.85,-33.6)">
						<title>Sheet.758</title>
						<path d="M13.43 67.95 C13.8 66.98 14.33 66.15 14.93 65.4 L1.35 61.35 L0 65.03 L12.9 70.88 C12.9 69.9 13.05
									 68.93 13.43 67.95 Z" class="st2"/>
					</g>
					<g id="shape759-12" v:mID="759" v:groupContext="shape" v:layerMember="0" transform="translate(30.075,-34.2)">
						<title>Sheet.759</title>
						<path d="M2.48 70.88 L14.93 64.13 L13.28 60.6 L0 65.63 C1.5 66.98 2.33 68.93 2.48 70.88 Z" class="st2"/>
					</g>
					<g id="shape760-14" v:mID="760" v:groupContext="shape" v:layerMember="0" transform="translate(3.3,-22.65)">
						<title>Sheet.760</title>
						<path d="M12.45 60.6 L0 67.35 L1.65 70.88 L14.93 65.85 C13.5 64.5 12.6 62.63 12.45 60.6 Z" class="st2"/>
					</g>
				</g>
				<g id="shape761-16" v:mID="761" v:groupContext="shape" v:layerMember="0" transform="translate(22.35,-3)">
					<title>Sheet.761</title>
					<path d="M21.38 56.78 L0.15 35.4 L0 64.88 L6.6 58.35 L6.9 58.28 L12.53 70.88 L17.03 68.85 L11.55 56.78 L21.38
								 56.78 Z" class="st2"/>
				</g>
			</g>
		</g>
	</g>
</svg>
