<?xml version="1.0" encoding="UTF-8" standalone="no"?>
<!DOCTYPE svg PUBLIC "-//W3C//DTD SVG 1.1//EN" "http://www.w3.org/Graphics/SVG/1.1/DTD/svg11.dtd">
<!-- Generated by Microsoft Visio, SVG Export Globe; Internet.svg Page-1 -->
<svg xmlns="http://www.w3.org/2000/svg" xmlns:xlink="http://www.w3.org/1999/xlink" xmlns:ev="http://www.w3.org/2001/xml-events"
		xmlns:v="http://schemas.microsoft.com/visio/2003/SVGExtensions/" width="0.96875in" height="0.953125in"
		viewBox="0 0 69.75 68.625" xml:space="preserve" color-interpolation-filters="sRGB" class="st3">
	<v:documentProperties v:langID="4108" v:metric="true" v:viewMarkup="false"/>

	<style type="text/css">
	<![CDATA[
		.st1 {fill:#ffffff;stroke:none;stroke-linecap:butt;stroke-width:0.75}
		.st2 {fill:#515150;stroke:none;stroke-linecap:butt;stroke-width:0.75}
		.st3 {fill:none;fill-rule:evenodd;font-size:12px;overflow:visible;stroke-linecap:square;stroke-miterlimit:3}
	]]>
	</style>

	<g v:mID="0" v:index="1" v:groupContext="foregroundPage">
		<title>Page-1</title>
		<v:pageProperties v:drawingScale="0.0393701" v:pageScale="0.0393701" v:drawingUnits="24" v:shadowOffsetX="8.50394"
				v:shadowOffsetY="-8.50394"/>
		<v:layer v:name="symbols" v:index="0"/>
		<g id="group762-1" transform="translate(8.25,-7.6875)" v:mID="762" v:groupContext="group" v:layerMember="0">
			<title>Globe; Internet</title>
			<g id="group763-2" v:mID="763" v:groupContext="group" v:layerMember="0">
				<title>Sheet.763</title>
				<g id="shape764-3" v:mID="764" v:groupContext="shape" v:layerMember="0">
					<title>Sheet.764</title>
					<path d="M26.62 68.62 C11.92 68.62 0 56.7 0 42 C0 27.3 11.92 15.37 26.62 15.37 C41.33 15.37 53.25 27.3 53.25
								 42 C53.25 56.7 41.33 68.62 26.62 68.62 Z" class="st1"/>
				</g>
				<g id="group765-5" transform="translate(2.25,-2.7)" v:mID="765" v:groupContext="group" v:layerMember="0">
					<title>Sheet.765</title>
					<g id="shape766-6" v:mID="766" v:groupContext="shape" v:layerMember="0" transform="translate(25.5,-24.3)">
						<title>Sheet.766</title>
						<path d="M0 68.62 C4.05 68.55 8.03 67.95 11.55 66.97 C11.4 63.15 10.73 59.55 9.68 56.4 C6.68 57.3 3.38 57.9
									 0 57.97 L0 68.62 Z" class="st2"/>
					</g>
					<g id="shape767-8" v:mID="767" v:groupContext="shape" v:layerMember="0" transform="translate(25.5,-37.275)">
						<title>Sheet.767</title>
						<path d="M0 58.05 L0 68.62 C3.15 68.55 6.15 68.02 8.92 67.2 C6.82 62.1 3.6 58.65 0 58.05 Z" class="st2"/>
					</g>
					<g id="shape768-10" v:mID="768" v:groupContext="shape" v:layerMember="0" transform="translate(14.325,-37.35)">
						<title>Sheet.768</title>
						<path d="M8.92 58.12 C5.32 58.72 2.18 62.17 0 67.2 C2.77 68.02 5.77 68.55 8.92 68.62 L8.92 58.12 Z"
								class="st2"/>
					</g>
					<g id="shape769-12" v:mID="769" v:groupContext="shape" v:layerMember="0" transform="translate(1.05,-26.625)">
						<title>Sheet.769</title>
						<path d="M5.18 55.12 C2.85 57.75 1.05 60.82 0 64.27 C2.33 66.07 5.18 67.5 8.4 68.62 C8.63 64.72 9.3 61.12
									 10.35 57.97 C8.48 57.15 6.68 56.17 5.18 55.12 Z" class="st2"/>
					</g>
					<g id="shape770-14" v:mID="770" v:groupContext="shape" v:layerMember="0" transform="translate(38.25,-13.725)">
						<title>Sheet.770</title>
						<path d="M1.12 58.42 C1.12 62.02 0.75 65.47 0 68.62 C3.75 67.35 7.12 65.55 10.05 63.3 C10.35 61.72 10.57
									 60.07 10.57 58.42 C10.57 56.77 10.42 55.2 10.12 53.7 C7.57 55.5 4.57 56.92 1.2 58.05 C1.12 58.12
									 1.12 58.27 1.12 58.42 Z" class="st2"/>
					</g>
					<g id="shape771-16" v:mID="771" v:groupContext="shape" v:layerMember="0" transform="translate(7.725,-39.525)">
						<title>Sheet.771</title>
						<path d="M9.67 60.82 C6 61.87 2.78 63.82 0 66.3 C1.35 67.2 2.78 67.95 4.42 68.62 C5.85 65.4 7.65 62.7 9.67
									 60.82 Z" class="st2"/>
					</g>
					<g id="shape772-18" v:mID="772" v:groupContext="shape" v:layerMember="0"
							transform="translate(2.43805E-13,-13.65)">
						<title>Sheet.772</title>
						<path d="M9.37 58.35 C9.37 58.2 9.37 58.05 9.37 57.9 C6 56.77 3 55.35 0.45 53.55 C0.15 55.12 0 56.7 0 58.27
									 C0 60.07 0.22 61.87 0.6 63.6 C3.52 65.7 6.97 67.42 10.57 68.62 C9.82 65.55 9.37 62.02 9.37 58.35
									 Z" class="st2"/>
					</g>
					<g id="shape773-20" v:mID="773" v:groupContext="shape" v:layerMember="0" transform="translate(11.7,-24.3)">
						<title>Sheet.773</title>
						<path d="M0 66.97 C3.6 67.95 7.5 68.55 11.55 68.62 L11.55 57.9 C8.18 57.82 4.88 57.22 1.87 56.32 C0.83 59.47
									 0.15 63.07 0 66.97 Z" class="st2"/>
					</g>
					<g id="shape774-22" v:mID="774" v:groupContext="shape" v:layerMember="0" transform="translate(37.35,-26.7)">
						<title>Sheet.774</title>
						<path d="M10.35 64.27 C9.3 60.9 7.58 57.82 5.25 55.2 C3.68 56.32 1.88 57.22 0 57.97 C1.05 61.12 1.73 64.72
									 1.95 68.62 C5.18 67.5 8.03 66.07 10.35 64.27 Z" class="st2"/>
					</g>
					<g id="shape775-24" v:mID="775" v:groupContext="shape" v:layerMember="0" transform="translate(31.275,-39.45)">
						<title>Sheet.775</title>
						<path d="M0 60.75 C2.1 62.62 3.9 65.32 5.25 68.62 C6.9 67.95 8.4 67.2 9.75 66.3 C7.05 63.82 3.67 61.87 0
									 60.75 Z" class="st2"/>
					</g>
					<g id="shape776-26" v:mID="776" v:groupContext="shape" v:layerMember="0" transform="translate(11.625,-11.4)">
						<title>Sheet.776</title>
						<path d="M11.63 68.62 L11.63 57.97 C7.58 57.9 3.6 57.3 0 56.4 C0 60.3 0.52 64.05 1.43 67.27 C4.73 68.1 8.1
									 68.55 11.63 68.62 Z" class="st2"/>
					</g>
					<g id="shape777-28" v:mID="777" v:groupContext="shape" v:layerMember="0" transform="translate(31.275,-0.525)">
						<title>Sheet.777</title>
						<path d="M6.23 58.05 C4.8 62.55 2.63 66.22 0 68.62 C7.43 66.45 13.35 60.82 15.98 53.55 C13.05 55.42 9.75
									 57 6.23 58.05 Z" class="st2"/>
					</g>
					<g id="shape778-30" v:mID="778" v:groupContext="shape" v:layerMember="0" transform="translate(1.575,-0.6)">
						<title>Sheet.778</title>
						<path d="M9.67 58.27 C6.22 57.22 2.92 55.8 0 54 C2.7 61.05 8.55 66.52 15.82 68.62 C13.27 66.37 11.1 62.7
									 9.67 58.27 Z" class="st2"/>
					</g>
					<g id="shape779-32" v:mID="779" v:groupContext="shape" v:layerMember="0"
							transform="translate(13.875,2.41585E-13)">
						<title>Sheet.779</title>
						<path d="M9.37 68.62 L9.37 59.47 C6.15 59.4 3 59.02 0 58.35 C2.1 64.05 5.47 67.95 9.37 68.62 Z" class="st2"/>
					</g>
					<g id="shape780-34" v:mID="780" v:groupContext="shape" v:layerMember="0" transform="translate(25.5,-11.475)">
						<title>Sheet.780</title>
						<path d="M11.63 56.4 C8.03 57.37 4.05 57.9 0 57.97 L0 68.62 C3.52 68.55 6.98 68.02 10.2 67.12 C11.1 63.9
									 11.63 60.3 11.63 56.4 Z" class="st2"/>
					</g>
					<g id="shape781-36" v:mID="781" v:groupContext="shape" v:layerMember="0"
							transform="translate(25.5,-2.41585E-13)">
						<title>Sheet.781</title>
						<path d="M0 59.47 L0 68.62 C3.9 67.95 7.27 64.05 9.37 58.27 C6.37 58.95 3.22 59.32 0 59.47 Z" class="st2"/>
					</g>
				</g>
			</g>
		</g>
	</g>
</svg>
