<?xml version="1.0" encoding="UTF-8" standalone="no"?>
<!DOCTYPE svg PUBLIC "-//W3C//DTD SVG 1.1//EN" "http://www.w3.org/Graphics/SVG/1.1/DTD/svg11.dtd">
<!-- Generated by Microsoft Visio, SVG Export Help.svg Page-1 -->
<svg xmlns="http://www.w3.org/2000/svg" xmlns:xlink="http://www.w3.org/1999/xlink" xmlns:ev="http://www.w3.org/2001/xml-events"
		xmlns:v="http://schemas.microsoft.com/visio/2003/SVGExtensions/" width="0.96875in" height="0.953125in"
		viewBox="0 0 69.75 68.625" xml:space="preserve" color-interpolation-filters="sRGB" class="st3">
	<v:documentProperties v:langID="4108" v:metric="true" v:viewMarkup="false"/>

	<style type="text/css">
	<![CDATA[
		.st1 {fill:#ffffff;stroke:none;stroke-linecap:butt;stroke-width:0.75}
		.st2 {fill:#515150;stroke:none;stroke-linecap:butt;stroke-width:0.75}
		.st3 {fill:none;fill-rule:evenodd;font-size:12px;overflow:visible;stroke-linecap:square;stroke-miterlimit:3}
	]]>
	</style>

	<g v:mID="0" v:index="1" v:groupContext="foregroundPage">
		<title>Page-1</title>
		<v:pageProperties v:drawingScale="0.0393701" v:pageScale="0.0393701" v:drawingUnits="24" v:shadowOffsetX="8.50394"
				v:shadowOffsetY="-8.50394"/>
		<v:layer v:name="symbols" v:index="0"/>
		<g id="group782-1" transform="translate(8.50313,-7.6875)" v:mID="782" v:groupContext="group" v:layerMember="0">
			<title>Help</title>
			<g id="group783-2" v:mID="783" v:groupContext="group" v:layerMember="0">
				<title>Sheet.783</title>
				<g id="group784-3" v:mID="784" v:groupContext="group" v:layerMember="0">
					<title>Sheet.784</title>
					<g id="shape785-4" v:mID="785" v:groupContext="shape" v:layerMember="0">
						<title>Sheet.785</title>
						<path d="M26.62 68.62 C11.92 68.62 0 56.7 0 42 C0 27.3 11.92 15.37 26.62 15.37 C41.33 15.37 53.25 27.3 53.25
									 42 C53.25 56.7 41.33 68.62 26.62 68.62 Z" class="st1"/>
					</g>
					<g id="shape786-6" v:mID="786" v:groupContext="shape" v:layerMember="0" transform="translate(2.25,-2.25)">
						<title>Sheet.786</title>
						<ellipse cx="24.375" cy="44.25" rx="24.375" ry="24.375" class="st2"/>
					</g>
				</g>
				<g id="shape787-8" v:mID="787" v:groupContext="shape" v:layerMember="0" transform="translate(19.35,-11.55)">
					<title>Sheet.787</title>
					<path d="M4.12 59.92 C3.97 59.55 3.9 59.17 3.82 58.57 C3.75 58.05 3.67 57.52 3.67 56.92 C3.67 56.1 3.82 55.35
								 4.2 54.67 C4.5 54 4.95 53.4 5.47 52.8 C6 52.2 6.52 51.67 7.12 51.07 C7.72 50.55 8.25 50.02 8.77
								 49.5 C9.3 48.97 9.67 48.45 10.05 47.85 C10.35 47.25 10.57 46.65 10.57 45.97 C10.57 45.37 10.42 44.85
								 10.2 44.4 C9.97 43.95 9.6 43.57 9.15 43.27 C8.7 42.97 8.25 42.75 7.65 42.6 C7.12 42.45 6.52 42.37
								 5.85 42.37 C3.82 42.37 1.87 43.27 0 45.07 L0 40.35 C2.25 39.07 4.57 38.4 6.97 38.4 C8.1 38.4 9.15
								 38.55 10.12 38.85 C11.1 39.15 12 39.52 12.67 40.12 C13.42 40.65 14.02 41.4 14.4 42.22 C14.85 43.05
								 15 44.02 15 45.15 C15 46.2 14.85 47.1 14.47 47.92 C14.1 48.75 13.65 49.5 13.12 50.17 C12.6 50.85
								 12 51.45 11.4 51.97 C10.8 52.5 10.2 53.02 9.67 53.55 C9.15 54.07 8.7 54.6 8.33 55.2 C7.95 55.8 7.8
								 56.4 7.8 57.07 C7.8 57.67 7.87 58.2 8.02 58.65 C8.17 59.1 8.32 59.55 8.47 59.85 L4.12 59.85 L4.12
								 59.92 ZM6.45 68.62 C5.7 68.62 4.95 68.32 4.35 67.8 C3.75 67.27 3.52 66.67 3.52 65.85 C3.52 65.1
								 3.82 64.42 4.35 63.9 C4.95 63.37 5.62 63.07 6.45 63.07 C7.2 63.07 7.87 63.37 8.47 63.9 C9.07 64.42
								 9.3 65.02 9.3 65.85 C9.3 66.6 9 67.27 8.47 67.8 C7.87 68.32 7.2 68.62 6.45 68.62 Z" class="st1"/>
				</g>
			</g>
		</g>
	</g>
</svg>
