<?xml version="1.0" encoding="UTF-8" standalone="no"?>
<!DOCTYPE svg PUBLIC "-//W3C//DTD SVG 1.1//EN" "http://www.w3.org/Graphics/SVG/1.1/DTD/svg11.dtd">
<!-- Generated by Microsoft Visio, SVG Export Home Page - orange.svg Page-1 -->
<svg xmlns="http://www.w3.org/2000/svg" xmlns:xlink="http://www.w3.org/1999/xlink" xmlns:ev="http://www.w3.org/2001/xml-events"
		xmlns:v="http://schemas.microsoft.com/visio/2003/SVGExtensions/" width="1.01172in" height="0.890625in"
		viewBox="0 0 72.8438 64.125" xml:space="preserve" color-interpolation-filters="sRGB" class="st3">
	<v:documentProperties v:langID="4108" v:metric="true" v:viewMarkup="false"/>

	<style type="text/css">
	<![CDATA[
		.st1 {fill:#ffffff;stroke:none;stroke-linecap:butt;stroke-width:0.75}
		.st2 {fill:#da4026;stroke:none;stroke-linecap:butt;stroke-width:0.75}
		.st3 {fill:none;fill-rule:evenodd;font-size:12px;overflow:visible;stroke-linecap:square;stroke-miterlimit:3}
	]]>
	</style>

	<g v:mID="0" v:index="1" v:groupContext="foregroundPage">
		<title>Page-1</title>
		<v:pageProperties v:drawingScale="0.0393701" v:pageScale="0.0393701" v:drawingUnits="24" v:shadowOffsetX="8.50394"
				v:shadowOffsetY="-8.50394"/>
		<v:layer v:name="symbols" v:index="0"/>
		<g id="group857-1" transform="translate(7.92187,-8.4375)" v:mID="857" v:groupContext="group" v:layerMember="0">
			<title>Home Page - orange</title>
			<g id="group858-2" v:mID="858" v:groupContext="group" v:layerMember="0">
				<title>Sheet.858</title>
				<g id="group859-3" v:mID="859" v:groupContext="group" v:layerMember="0">
					<title>Layer_2_3_</title>
					<g id="group860-4" v:mID="860" v:groupContext="group" v:layerMember="0">
						<title>Sheet.860</title>
						<g id="shape861-5" v:mID="861" v:groupContext="shape" v:layerMember="0">
							<title>Sheet.861</title>
							<rect x="0" y="16.875" width="57" height="47.25" class="st1"/>
						</g>
						<g id="shape862-7" v:mID="862" v:groupContext="shape" v:layerMember="0" transform="translate(2.25,-2.25)">
							<title>Sheet.862</title>
							<rect x="0" y="21.375" width="52.5" height="42.75" class="st2"/>
						</g>
					</g>
					<g id="shape863-9" v:mID="863" v:groupContext="shape" v:layerMember="0" transform="translate(4.5,-4.5)">
						<title>Sheet.863</title>
						<rect x="0" y="25.875" width="48" height="38.25" class="st1"/>
					</g>
				</g>
				<g id="shape864-11" v:mID="864" v:groupContext="shape" v:layerMember="0" transform="translate(14.25,-9)">
					<title>Sheet.864</title>
					<path d="M11.25 53.62 L11.25 64.12 L2.25 64.12 L2.25 50.32 L1.05 50.32 C0.45 50.32 0 49.95 0 49.35 C-0 49.05
								 0.07 48.82 0.3 48.67 L13.27 36.07 C13.42 35.92 13.95 35.55 14.32 35.55 C14.7 35.55 15.22 35.92 15.38
								 36.07 L21.22 41.7 L21.22 38.25 C21.22 37.8 21.6 37.35 22.12 37.35 L24.75 37.35 C25.2 37.35 25.65
								 37.72 25.65 38.25 L25.65 46.05 L28.42 48.75 C28.57 48.9 28.72 49.2 28.72 49.42 C28.72 50.02 28.27
								 50.4 27.67 50.4 L26.25 50.4 L26.25 64.12 L17.25 64.12 L17.25 53.62 L11.25 53.62 Z" class="st2"/>
				</g>
			</g>
		</g>
	</g>
</svg>
