<?xml version="1.0" encoding="UTF-8" standalone="no"?>
<!DOCTYPE svg PUBLIC "-//W3C//DTD SVG 1.1//EN" "http://www.w3.org/Graphics/SVG/1.1/DTD/svg11.dtd">
<!-- Generated by Microsoft Visio, SVG Export Home - green.svg Page-1 -->
<svg xmlns="http://www.w3.org/2000/svg" xmlns:xlink="http://www.w3.org/1999/xlink" xmlns:ev="http://www.w3.org/2001/xml-events"
		xmlns:v="http://schemas.microsoft.com/visio/2003/SVGExtensions/" width="0.96875in" height="0.953125in"
		viewBox="0 0 69.75 68.625" xml:space="preserve" color-interpolation-filters="sRGB" class="st3">
	<v:documentProperties v:langID="4108" v:metric="true" v:viewMarkup="false"/>

	<style type="text/css">
	<![CDATA[
		.st1 {fill:#ffffff;stroke:none;stroke-linecap:butt;stroke-width:0.75}
		.st2 {fill:#7fba42;stroke:none;stroke-linecap:butt;stroke-width:0.75}
		.st3 {fill:none;fill-rule:evenodd;font-size:12px;overflow:visible;stroke-linecap:square;stroke-miterlimit:3}
	]]>
	</style>

	<g v:mID="0" v:index="1" v:groupContext="foregroundPage">
		<title>Page-1</title>
		<v:pageProperties v:drawingScale="0.0393701" v:pageScale="0.0393701" v:drawingUnits="24" v:shadowOffsetX="8.50394"
				v:shadowOffsetY="-8.50394"/>
		<v:layer v:name="symbols" v:index="0"/>
		<g id="group806-1" transform="translate(8.12812,-7.2375)" v:mID="806" v:groupContext="group" v:layerMember="0">
			<title>Home - green</title>
			<g id="group807-2" v:mID="807" v:groupContext="group" v:layerMember="0">
				<title>Sheet.807</title>
				<g id="shape808-3" v:mID="808" v:groupContext="shape" v:layerMember="0">
					<title>Sheet.808</title>
					<path d="M3.75 68.63 L3.75 44.63 C1.65 44.48 0 42.83 0 40.73 C0 39.68 0.37 38.78 1.05 38.03 L1.12 37.88 L23.62
								 15.98 C24 15.6 25.5 14.48 27 14.48 C28.5 14.48 29.93 15.6 30.37 15.98 L36.75 22.13 L36.75 21.38
								 C36.75 19.28 38.4 17.63 40.5 17.63 L45 17.63 C47.1 17.63 48.75 19.28 48.75 21.38 L48.75 33.9 L52.88
								 37.88 L52.95 37.95 C53.63 38.7 54 39.68 54 40.65 C54 42.75 52.35 44.4 50.25 44.55 L50.25 68.55 L3.75
								 68.55 L3.75 68.63 Z" class="st1"/>
				</g>
				<g id="shape809-5" v:mID="809" v:groupContext="shape" v:layerMember="0" transform="translate(2.25,-2.25)">
					<title>Sheet.809</title>
					<path d="M19.5 50.63 L19.5 68.63 L3.75 68.63 L3.75 44.63 L1.8 44.63 C0.83 44.63 0 43.95 0 42.98 C-0 42.53 0.15
								 42.08 0.45 41.78 L22.95 19.88 C23.25 19.58 24.15 18.98 24.75 18.98 C25.35 18.98 26.25 19.58 26.55
								 19.88 L36.75 29.63 L36.75 23.63 C36.75 22.8 37.43 22.13 38.25 22.13 L42.75 22.13 C43.58 22.13 44.25
								 22.8 44.25 23.63 L44.25 37.13 L49.05 41.78 C49.35 42.08 49.5 42.53 49.5 42.98 C49.5 43.95 48.68
								 44.63 47.7 44.63 L45.75 44.63 L45.75 68.63 L30 68.63 L30 50.63 L19.5 50.63 Z" class="st2"/>
				</g>
			</g>
		</g>
	</g>
</svg>
