<?xml version="1.0" encoding="UTF-8" standalone="no"?>
<!DOCTYPE svg PUBLIC "-//W3C//DTD SVG 1.1//EN" "http://www.w3.org/Graphics/SVG/1.1/DTD/svg11.dtd">
<!-- Generated by Microsoft Visio, SVG Export Home Page - ghosted.svg Page-1 -->
<svg xmlns="http://www.w3.org/2000/svg" xmlns:xlink="http://www.w3.org/1999/xlink" xmlns:ev="http://www.w3.org/2001/xml-events"
		xmlns:v="http://schemas.microsoft.com/visio/2003/SVGExtensions/" width="1.01172in" height="0.890625in"
		viewBox="0 0 72.8438 64.125" xml:space="preserve" color-interpolation-filters="sRGB" class="st4">
	<v:documentProperties v:langID="4108" v:metric="true" v:viewMarkup="false"/>

	<style type="text/css">
	<![CDATA[
		.st1 {fill:#ffffff;stroke:none;stroke-linecap:butt;stroke-width:0.75}
		.st2 {fill:#9b9b9b;stroke:none;stroke-linecap:butt;stroke-width:0.75}
		.st3 {fill:#cccbcb;stroke:none;stroke-linecap:butt;stroke-width:0.75}
		.st4 {fill:none;fill-rule:evenodd;font-size:12px;overflow:visible;stroke-linecap:square;stroke-miterlimit:3}
	]]>
	</style>

	<g v:mID="0" v:index="1" v:groupContext="foregroundPage">
		<title>Page-1</title>
		<v:pageProperties v:drawingScale="0.0393701" v:pageScale="0.0393701" v:drawingUnits="24" v:shadowOffsetX="8.50394"
				v:shadowOffsetY="-8.50394"/>
		<v:layer v:name="symbols" v:index="0"/>
		<g id="group873-1" transform="translate(7.92188,-8.4375)" v:mID="873" v:groupContext="group" v:layerMember="0">
			<title>Home Page - ghosted</title>
			<g id="group874-2" v:mID="874" v:groupContext="group" v:layerMember="0">
				<title>Sheet.874</title>
				<g id="group875-3" v:mID="875" v:groupContext="group" v:layerMember="0">
					<title>Sheet.875</title>
					<g id="group876-4" v:mID="876" v:groupContext="group" v:layerMember="0">
						<title>Layer_2_5_</title>
						<g id="group877-5" v:mID="877" v:groupContext="group" v:layerMember="0">
							<title>Sheet.877</title>
							<g id="shape878-6" v:mID="878" v:groupContext="shape" v:layerMember="0">
								<title>Sheet.878</title>
								<rect x="0" y="16.875" width="57" height="47.25" class="st1"/>
							</g>
							<g id="shape879-8" v:mID="879" v:groupContext="shape" v:layerMember="0"
									transform="translate(2.25,-2.25)">
								<title>Sheet.879</title>
								<rect x="0" y="21.375" width="52.5" height="42.75" class="st2"/>
							</g>
						</g>
						<g id="shape880-10" v:mID="880" v:groupContext="shape" v:layerMember="0" transform="translate(4.5,-4.5)">
							<title>Sheet.880</title>
							<rect x="0" y="25.875" width="48" height="38.25" class="st1"/>
						</g>
					</g>
					<g id="shape881-12" v:mID="881" v:groupContext="shape" v:layerMember="0" transform="translate(14.25,-9)">
						<title>Sheet.881</title>
						<path d="M11.25 53.62 L11.25 64.12 L2.25 64.12 L2.25 50.32 L1.05 50.32 C0.45 50.32 0 49.95 0 49.35 C-0 49.05
									 0.07 48.82 0.3 48.67 L13.27 36.07 C13.42 35.92 13.95 35.55 14.32 35.55 C14.7 35.55 15.22 35.92
									 15.38 36.07 L21.22 41.7 L21.22 38.25 C21.22 37.8 21.6 37.35 22.12 37.35 L24.75 37.35 C25.2 37.35
									 25.65 37.72 25.65 38.25 L25.65 46.05 L28.42 48.75 C28.57 48.9 28.72 49.2 28.72 49.42 C28.72
									 50.02 28.27 50.4 27.67 50.4 L26.25 50.4 L26.25 64.12 L17.25 64.12 L17.25 53.62 L11.25 53.62
									 Z" class="st2"/>
					</g>
				</g>
				<g id="group882-14" transform="translate(2.25,-2.25)" v:mID="882" v:groupContext="group" v:layerMember="0">
					<title>Sheet.882</title>
					<g id="shape883-15" v:mID="883" v:groupContext="shape" v:layerMember="0"
							transform="translate(2.59168E-15,-42.525)">
						<title>Sheet.883</title>
						<path d="M0.23 63.9 L0 63.9 L0 64.12 L0.23 63.9 Z" class="st3"/>
					</g>
					<g id="shape884-17" v:mID="884" v:groupContext="shape" v:layerMember="0" transform="translate(0,-38.025)">
						<title>Sheet.884</title>
						<path d="M2.25 61.87 L2.25 61.65 L2.47 61.65 L4.73 59.4 L2.55 59.4 L0 62.02 L0 64.12 L2.25 61.87 Z"
								class="st3"/>
					</g>
					<g id="shape885-19" v:mID="885" v:groupContext="shape" v:layerMember="0"
							transform="translate(-2.67286E-14,-33.45)">
						<title>Sheet.885</title>
						<path d="M2.25 59.7 L0 61.95 L0 64.12 L2.25 61.8 L2.25 59.7 Z" class="st3"/>
					</g>
					<g id="shape886-21" v:mID="886" v:groupContext="shape" v:layerMember="0" transform="translate(4.8,-40.5)">
						<title>Sheet.886</title>
						<path d="M0 64.12 L2.18 64.12 L4.35 61.87 L2.25 61.87 L0 64.12 Z" class="st3"/>
					</g>
					<g id="shape887-23" v:mID="887" v:groupContext="shape" v:layerMember="0"
							transform="translate(-2.67286E-14,-28.95)">
						<title>Sheet.887</title>
						<path d="M2.25 61.8 L2.25 59.7 L0 61.95 L0 64.12 L2.25 61.8 Z" class="st3"/>
					</g>
					<g id="shape888-25" v:mID="888" v:groupContext="shape" v:layerMember="0" transform="translate(9.3,-40.5)">
						<title>Sheet.888</title>
						<path d="M2.1 64.12 L4.35 61.87 L2.18 61.87 L0 64.12 L2.1 64.12 Z" class="st3"/>
					</g>
					<g id="shape889-27" v:mID="889" v:groupContext="shape" v:layerMember="0" transform="translate(13.8,-40.5)">
						<title>Sheet.889</title>
						<path d="M0 64.12 L2.1 64.12 L4.27 61.87 L2.17 61.87 L0 64.12 Z" class="st3"/>
					</g>
					<g id="shape890-29" v:mID="890" v:groupContext="shape" v:layerMember="0"
							transform="translate(-2.67286E-14,-24.45)">
						<title>Sheet.890</title>
						<path d="M2.25 59.7 L0 61.95 L0 64.12 L2.25 61.8 L2.25 59.7 Z" class="st3"/>
					</g>
					<g id="shape891-31" v:mID="891" v:groupContext="shape" v:layerMember="0" transform="translate(18.225,-40.5)">
						<title>Sheet.891</title>
						<path d="M2.1 64.12 L4.35 61.87 L2.25 61.87 L0 64.12 L2.1 64.12 Z" class="st3"/>
					</g>
					<g id="shape892-33" v:mID="892" v:groupContext="shape" v:layerMember="0"
							transform="translate(-2.67286E-14,-19.95)">
						<title>Sheet.892</title>
						<path d="M2.25 61.8 L2.25 59.7 L0 61.95 L0 64.12 L2.25 61.8 Z" class="st3"/>
					</g>
					<g id="shape893-35" v:mID="893" v:groupContext="shape" v:layerMember="0" transform="translate(22.725,-40.5)">
						<title>Sheet.893</title>
						<path d="M0 64.12 L2.1 64.12 L4.35 61.87 L2.25 61.87 L0 64.12 Z" class="st3"/>
					</g>
					<g id="shape894-37" v:mID="894" v:groupContext="shape" v:layerMember="0"
							transform="translate(-2.67286E-14,-15.45)">
						<title>Sheet.894</title>
						<path d="M2.25 59.7 L0 61.95 L0 64.12 L2.25 61.87 L2.25 59.7 Z" class="st3"/>
					</g>
					<g id="shape895-39" v:mID="895" v:groupContext="shape" v:layerMember="0"
							transform="translate(-2.67286E-14,-10.95)">
						<title>Sheet.895</title>
						<path d="M2.25 61.87 L2.25 59.7 L0 61.95 L0 64.12 L2.25 61.87 Z" class="st3"/>
					</g>
					<g id="shape896-41" v:mID="896" v:groupContext="shape" v:layerMember="0" transform="translate(27.225,-40.5)">
						<title>Sheet.896</title>
						<path d="M2.1 64.12 L4.28 61.87 L2.18 61.87 L0 64.12 L2.1 64.12 Z" class="st3"/>
					</g>
					<g id="shape897-43" v:mID="897" v:groupContext="shape" v:layerMember="0"
							transform="translate(-2.67286E-14,-6.45)">
						<title>Sheet.897</title>
						<path d="M0 64.12 L2.25 61.87 L2.25 59.7 L0 61.95 L0 64.12 Z" class="st3"/>
					</g>
					<g id="shape898-45" v:mID="898" v:groupContext="shape" v:layerMember="0" transform="translate(31.725,-40.5)">
						<title>Sheet.898</title>
						<path d="M0 64.12 L2.1 64.12 L4.35 61.87 L2.18 61.87 L0 64.12 Z" class="st3"/>
					</g>
					<g id="shape899-47" v:mID="899" v:groupContext="shape" v:layerMember="0" transform="translate(12.3,-20.55)">
						<title>Sheet.899</title>
						<path d="M0.75 64.12 L1.72 64.12 L15.45 50.25 L15.07 49.87 C14.92 49.72 14.55 49.5 14.25 49.42 L0 63.82 C0.15
									 63.97 0.37 64.12 0.75 64.12 Z" class="st3"/>
					</g>
					<g id="shape900-49" v:mID="900" v:groupContext="shape" v:layerMember="0" transform="translate(36.225,-40.5)">
						<title>Sheet.900</title>
						<path d="M0 64.12 L2.1 64.12 L4.35 61.87 L2.18 61.87 L0 64.12 Z" class="st3"/>
					</g>
					<g id="shape901-51" v:mID="901" v:groupContext="shape" v:layerMember="0"
							transform="translate(-2.67286E-14,-1.95)">
						<title>Sheet.901</title>
						<path d="M0 62.02 L0 64.12 L2.25 61.87 L2.25 59.7 L0 62.02 Z" class="st3"/>
					</g>
					<g id="shape902-53" v:mID="902" v:groupContext="shape" v:layerMember="0" transform="translate(14.25,-16.275)">
						<title>Sheet.902</title>
						<path d="M14.7 47.17 L0 61.95 L0 64.12 L15.82 48.22 L14.7 47.17 Z" class="st3"/>
					</g>
					<g id="shape903-55" v:mID="903" v:groupContext="shape" v:layerMember="0" transform="translate(33.225,-30.9)">
						<title>Sheet.903</title>
						<path d="M0 62.4 L0 64.12 L2.63 61.5 L0.9 61.5 C0.37 61.5 0 61.95 0 62.4 Z" class="st3"/>
					</g>
					<g id="shape904-57" v:mID="904" v:groupContext="shape" v:layerMember="0" transform="translate(14.25,-11.775)">
						<title>Sheet.904</title>
						<path d="M18.07 45.9 L17.02 44.85 L0 61.95 L0 64.12 L18.07 45.9 Z" class="st3"/>
					</g>
					<g id="shape905-59" v:mID="905" v:groupContext="shape" v:layerMember="0" transform="translate(40.65,-40.5)">
						<title>Sheet.905</title>
						<path d="M2.1 64.12 L4.35 61.87 L2.25 61.87 L0 64.12 L2.1 64.12 Z" class="st3"/>
					</g>
					<g id="shape906-61" v:mID="906" v:groupContext="shape" v:layerMember="0" transform="translate(0.375,0)">
						<title>Sheet.906</title>
						<path d="M4.35 61.87 L2.25 61.87 L0 64.12 L2.18 64.12 L4.35 61.87 Z" class="st3"/>
					</g>
					<g id="shape907-63" v:mID="907" v:groupContext="shape" v:layerMember="0" transform="translate(14.25,-7.275)">
						<title>Sheet.907</title>
						<path d="M9 55.05 L9 54.15 L9.9 54.15 L23.4 40.57 L23.4 38.77 C23.4 38.7 23.4 38.62 23.33 38.55 L0 62.02
									 L0 64.12 L9 55.05 Z" class="st3"/>
					</g>
					<g id="shape908-65" v:mID="908" v:groupContext="shape" v:layerMember="0" transform="translate(4.875,0)">
						<title>Sheet.908</title>
						<path d="M2.1 64.12 L4.35 61.87 L2.25 61.87 L0 64.12 L2.1 64.12 Z" class="st3"/>
					</g>
					<g id="shape909-67" v:mID="909" v:groupContext="shape" v:layerMember="0" transform="translate(45.15,-40.5)">
						<title>Sheet.909</title>
						<path d="M0 64.12 L2.18 64.12 L4.35 61.87 L2.25 61.87 L0 64.12 Z" class="st3"/>
					</g>
					<g id="shape910-69" v:mID="910" v:groupContext="shape" v:layerMember="0" transform="translate(16.05,-6.75)">
						<title>Sheet.910</title>
						<path d="M7.2 56.92 L0 64.12 L2.18 64.12 L7.2 59.02 L7.2 56.92 Z" class="st3"/>
					</g>
					<g id="shape911-71" v:mID="911" v:groupContext="shape" v:layerMember="0" transform="translate(26.55,-17.25)">
						<title>Sheet.911</title>
						<path d="M2.1 64.12 L11.1 55.05 L11.1 52.95 L0 64.12 L2.1 64.12 Z" class="st3"/>
					</g>
					<g id="shape912-73" v:mID="912" v:groupContext="shape" v:layerMember="0" transform="translate(49.65,-39)">
						<title>Sheet.912</title>
						<path d="M0.6 62.62 L0.6 64.12 L2.85 61.87 L2.85 60.37 L2.25 60.37 L0 62.62 L0.6 62.62 Z" class="st3"/>
					</g>
					<g id="shape913-75" v:mID="913" v:groupContext="shape" v:layerMember="0" transform="translate(9.375,0)">
						<title>Sheet.913</title>
						<path d="M2.25 61.87 L0 64.12 L2.1 64.12 L4.35 61.87 L2.25 61.87 Z" class="st3"/>
					</g>
					<g id="shape914-77" v:mID="914" v:groupContext="shape" v:layerMember="0" transform="translate(20.55,-6.75)">
						<title>Sheet.914</title>
						<path d="M2.7 63.52 L2.7 61.42 L0 64.12 L2.1 64.12 L2.7 63.52 Z" class="st3"/>
					</g>
					<g id="shape915-79" v:mID="915" v:groupContext="shape" v:layerMember="0" transform="translate(13.875,0)">
						<title>Sheet.915</title>
						<path d="M4.35 61.87 L2.18 61.87 L0 64.12 L2.1 64.12 L4.35 61.87 Z" class="st3"/>
					</g>
					<g id="shape916-81" v:mID="916" v:groupContext="shape" v:layerMember="0" transform="translate(29.25,-13.35)">
						<title>Sheet.916</title>
						<path d="M0 61.95 L0 64.12 L9.9 54.15 L8.85 53.1 L0 61.95 Z" class="st3"/>
					</g>
					<g id="shape917-83" v:mID="917" v:groupContext="shape" v:layerMember="0" transform="translate(50.25,-34.5)">
						<title>Sheet.917</title>
						<path d="M2.25 59.77 L0 62.02 L0 64.12 L2.25 61.87 L2.25 59.77 Z" class="st3"/>
					</g>
					<g id="shape918-85" v:mID="918" v:groupContext="shape" v:layerMember="0" transform="translate(18.6,0)">
						<title>Sheet.918</title>
						<path d="M2.25 61.87 L0 64.12 L2.18 64.12 L4.35 61.87 L2.25 61.87 Z" class="st3"/>
					</g>
					<g id="shape919-87" v:mID="919" v:groupContext="shape" v:layerMember="0" transform="translate(38.85,-20.475)">
						<title>Sheet.919</title>
						<path d="M0.83 64.12 C1.43 64.12 1.88 63.75 1.88 63.15 C1.88 62.92 1.73 62.7 1.58 62.47 L0 64.12 L0.83 64.12
									 Z" class="st3"/>
					</g>
					<g id="shape920-89" v:mID="920" v:groupContext="shape" v:layerMember="0" transform="translate(50.25,-29.85)">
						<title>Sheet.920</title>
						<path d="M0 61.95 L0 64.12 L2.25 61.8 L2.25 59.7 L0 61.95 Z" class="st3"/>
					</g>
					<g id="shape921-91" v:mID="921" v:groupContext="shape" v:layerMember="0" transform="translate(29.25,-8.625)">
						<title>Sheet.921</title>
						<path d="M9 52.87 L0 62.02 L0 64.12 L9 55.05 L9 52.87 Z" class="st3"/>
					</g>
					<g id="shape922-93" v:mID="922" v:groupContext="shape" v:layerMember="0" transform="translate(23.1,0)">
						<title>Sheet.922</title>
						<path d="M4.27 61.87 L2.17 61.87 L0 64.12 L2.1 64.12 L4.27 61.87 Z" class="st3"/>
					</g>
					<g id="shape923-95" v:mID="923" v:groupContext="shape" v:layerMember="0" transform="translate(29.775,-6.75)">
						<title>Sheet.923</title>
						<path d="M8.47 57.67 L8.47 55.5 L0 64.12 L2.1 64.12 L8.47 57.67 Z" class="st3"/>
					</g>
					<g id="shape924-97" v:mID="924" v:groupContext="shape" v:layerMember="0" transform="translate(50.25,-25.35)">
						<title>Sheet.924</title>
						<path d="M0 64.12 L2.25 61.8 L2.25 59.7 L0 61.95 L0 64.12 Z" class="st3"/>
					</g>
					<g id="shape925-99" v:mID="925" v:groupContext="shape" v:layerMember="0" transform="translate(34.275,-6.75)">
						<title>Sheet.925</title>
						<path d="M3.98 62.17 L3.98 60.07 L0 64.12 L2.1 64.12 L3.98 62.17 Z" class="st3"/>
					</g>
					<g id="shape926-101" v:mID="926" v:groupContext="shape" v:layerMember="0" transform="translate(27.6,0)">
						<title>Sheet.926</title>
						<path d="M4.27 61.87 L2.17 61.87 L0 64.12 L2.1 64.12 L4.27 61.87 Z" class="st3"/>
					</g>
					<g id="shape927-103" v:mID="927" v:groupContext="shape" v:layerMember="0" transform="translate(50.25,-20.85)">
						<title>Sheet.927</title>
						<path d="M0 62.02 L0 64.12 L2.25 61.87 L2.25 59.7 L0 62.02 Z" class="st3"/>
					</g>
					<g id="shape928-105" v:mID="928" v:groupContext="shape" v:layerMember="0" transform="translate(32.1,0)">
						<title>Sheet.928</title>
						<path d="M4.35 61.87 L2.18 61.87 L0 64.12 L2.1 64.12 L4.35 61.87 Z" class="st3"/>
					</g>
					<g id="shape929-107" v:mID="929" v:groupContext="shape" v:layerMember="0" transform="translate(50.25,-16.275)">
						<title>Sheet.929</title>
						<path d="M0 61.95 L0 64.12 L2.25 61.8 L2.25 59.7 L0 61.95 Z" class="st3"/>
					</g>
					<g id="shape930-109" v:mID="930" v:groupContext="shape" v:layerMember="0" transform="translate(36.6,0)">
						<title>Sheet.930</title>
						<path d="M2.25 61.87 L0 64.12 L2.1 64.12 L4.35 61.87 L2.25 61.87 Z" class="st3"/>
					</g>
					<g id="shape931-111" v:mID="931" v:groupContext="shape" v:layerMember="0" transform="translate(50.25,-11.775)">
						<title>Sheet.931</title>
						<path d="M0 62.02 L0 64.12 L2.25 61.87 L2.25 59.7 L0 62.02 Z" class="st3"/>
					</g>
					<g id="shape932-113" v:mID="932" v:groupContext="shape" v:layerMember="0" transform="translate(50.25,-7.275)">
						<title>Sheet.932</title>
						<path d="M0 64.12 L2.25 61.87 L2.25 59.7 L0 62.02 L0 64.12 Z" class="st3"/>
					</g>
					<g id="shape933-115" v:mID="933" v:groupContext="shape" v:layerMember="0" transform="translate(41.025,0)">
						<title>Sheet.933</title>
						<path d="M4.28 61.87 L2.18 61.87 L0 64.12 L2.1 64.12 L4.28 61.87 Z" class="st3"/>
					</g>
					<g id="shape934-117" v:mID="934" v:groupContext="shape" v:layerMember="0" transform="translate(50.25,-2.7)">
						<title>Sheet.934</title>
						<path d="M2.25 59.7 L0 62.02 L0 64.12 L2.25 61.8 L2.25 59.7 Z" class="st3"/>
					</g>
					<g id="shape935-119" v:mID="935" v:groupContext="shape" v:layerMember="0" transform="translate(45.525,0)">
						<title>Sheet.935</title>
						<path d="M2.18 61.87 L0 64.12 L2.1 64.12 L4.28 61.87 L2.18 61.87 Z" class="st3"/>
					</g>
					<g id="shape936-121" v:mID="936" v:groupContext="shape" v:layerMember="0" transform="translate(49.95,0)">
						<title>Sheet.936</title>
						<path d="M2.55 63.6 L2.55 61.5 L0 64.12 L2.1 64.12 L2.55 63.6 Z" class="st3"/>
					</g>
				</g>
			</g>
		</g>
	</g>
</svg>
