<?xml version="1.0" encoding="UTF-8" standalone="no"?>
<!DOCTYPE svg PUBLIC "-//W3C//DTD SVG 1.1//EN" "http://www.w3.org/Graphics/SVG/1.1/DTD/svg11.dtd">
<!-- Generated by Microsoft Visio, SVG Export Home - ghosted.svg Page-1 -->
<svg xmlns="http://www.w3.org/2000/svg" xmlns:xlink="http://www.w3.org/1999/xlink" xmlns:ev="http://www.w3.org/2001/xml-events"
		xmlns:v="http://schemas.microsoft.com/visio/2003/SVGExtensions/" width="0.96875in" height="0.953125in"
		viewBox="0 0 69.75 68.625" xml:space="preserve" color-interpolation-filters="sRGB" class="st4">
	<v:documentProperties v:langID="4108" v:metric="true" v:viewMarkup="false"/>

	<style type="text/css">
	<![CDATA[
		.st1 {fill:#ffffff;stroke:none;stroke-linecap:butt;stroke-width:0.75}
		.st2 {fill:#9b9b9b;stroke:none;stroke-linecap:butt;stroke-width:0.75}
		.st3 {fill:#cccbcb;stroke:none;stroke-linecap:butt;stroke-width:0.75}
		.st4 {fill:none;fill-rule:evenodd;font-size:12px;overflow:visible;stroke-linecap:square;stroke-miterlimit:3}
	]]>
	</style>

	<g v:mID="0" v:index="1" v:groupContext="foregroundPage">
		<title>Page-1</title>
		<v:pageProperties v:drawingScale="0.0393701" v:pageScale="0.0393701" v:drawingUnits="24" v:shadowOffsetX="8.50394"
				v:shadowOffsetY="-8.50394"/>
		<v:layer v:name="symbols" v:index="0"/>
		<g id="group810-1" transform="translate(8.4375,-7.2375)" v:mID="810" v:groupContext="group" v:layerMember="0">
			<title>Home - ghosted</title>
			<g id="group811-2" v:mID="811" v:groupContext="group" v:layerMember="0">
				<title>Sheet.811</title>
				<g id="shape812-3" v:mID="812" v:groupContext="shape" v:layerMember="0">
					<title>Sheet.812</title>
					<path d="M3.75 68.63 L3.75 44.63 C1.65 44.48 0 42.83 0 40.73 C0 39.68 0.37 38.78 1.05 38.03 L1.12 37.88 L23.62
								 15.98 C24 15.6 25.5 14.48 27 14.48 C28.5 14.48 29.93 15.6 30.37 15.98 L36.75 22.13 L36.75 21.38
								 C36.75 19.28 38.4 17.63 40.5 17.63 L45 17.63 C47.1 17.63 48.75 19.28 48.75 21.38 L48.75 33.9 L52.88
								 37.88 L52.95 37.95 C53.63 38.7 54 39.68 54 40.65 C54 42.75 52.35 44.4 50.25 44.55 L50.25 68.55 L3.75
								 68.55 L3.75 68.63 Z" class="st1"/>
				</g>
				<g id="shape813-5" v:mID="813" v:groupContext="shape" v:layerMember="0" transform="translate(2.25,-2.25)">
					<title>Sheet.813</title>
					<path d="M19.5 50.63 L19.5 68.63 L3.75 68.63 L3.75 44.63 L1.8 44.63 C0.83 44.63 0 43.95 0 42.98 C-0 42.53 0.15
								 42.08 0.45 41.78 L22.95 19.88 C23.25 19.58 24.15 18.98 24.75 18.98 C25.35 18.98 26.25 19.58 26.55
								 19.88 L36.75 29.63 L36.75 23.63 C36.75 22.8 37.43 22.13 38.25 22.13 L42.75 22.13 C43.58 22.13 44.25
								 22.8 44.25 23.63 L44.25 37.13 L49.05 41.78 C49.35 42.08 49.5 42.53 49.5 42.98 C49.5 43.95 48.68
								 44.63 47.7 44.63 L45.75 44.63 L45.75 68.63 L30 68.63 L30 50.63 L19.5 50.63 Z" class="st2"/>
				</g>
				<g id="group814-7" transform="translate(2.325,-2.25)" v:mID="814" v:groupContext="group" v:layerMember="0">
					<title>Sheet.814</title>
					<g id="shape815-8" v:mID="815" v:groupContext="shape" v:layerMember="0"
							transform="translate(2.45803E-13,-24.15)">
						<title>Sheet.815</title>
						<path d="M1.05 68.63 L25.87 43.58 C25.5 43.35 25.05 43.13 24.67 43.13 C24.45 43.13 24.3 43.2 24.07 43.28
									 L0 67.58 C0.15 68.1 0.53 68.48 1.05 68.63 Z" class="st3"/>
					</g>
					<g id="shape816-10" v:mID="816" v:groupContext="shape" v:layerMember="0" transform="translate(3.3,-22.275)">
						<title>Sheet.816</title>
						<path d="M24.97 43.88 L23.85 42.83 L0 66.9 L0.37 66.9 L0.37 68.63 L24.97 43.88 Z" class="st3"/>
					</g>
					<g id="shape817-12" v:mID="817" v:groupContext="shape" v:layerMember="0" transform="translate(3.675,-17.775)">
						<title>Sheet.817</title>
						<path d="M26.85 41.55 L25.8 40.5 L0 66.53 L0 68.63 L26.85 41.55 Z" class="st3"/>
					</g>
					<g id="shape818-14" v:mID="818" v:groupContext="shape" v:layerMember="0" transform="translate(3.675,-13.275)">
						<title>Sheet.818</title>
						<path d="M0 66.53 L0 68.63 L29.18 39.23 L28.13 38.25 L0 66.53 Z" class="st3"/>
					</g>
					<g id="shape819-16" v:mID="819" v:groupContext="shape" v:layerMember="0" transform="translate(3.675,-8.775)">
						<title>Sheet.819</title>
						<path d="M30.45 35.93 L0 66.53 L0 68.63 L31.5 36.98 L30.45 35.93 Z" class="st3"/>
					</g>
					<g id="shape820-18" v:mID="820" v:groupContext="shape" v:layerMember="0" transform="translate(36.675,-41.925)">
						<title>Sheet.820</title>
						<path d="M2.4 64.05 L0 66.45 L0 68.63 L4.5 64.05 L2.4 64.05 Z" class="st3"/>
					</g>
					<g id="shape821-20" v:mID="821" v:groupContext="shape" v:layerMember="0" transform="translate(3.675,-4.275)">
						<title>Sheet.821</title>
						<path d="M40.5 27.9 C40.5 27.3 40.2 26.85 39.68 26.55 L33 33.3 L33 33.9 L32.7 33.6 L0 66.53 L0 68.63 L40.5
									 27.9 Z" class="st3"/>
					</g>
					<g id="shape822-22" v:mID="822" v:groupContext="shape" v:layerMember="0" transform="translate(19.725,-18)">
						<title>Sheet.822</title>
						<path d="M0 68.63 L2.1 68.63 L24.45 46.2 L24.45 44.03 L0 68.63 Z" class="st3"/>
					</g>
					<g id="shape823-24" v:mID="823" v:groupContext="shape" v:layerMember="0"
							transform="translate(3.675,2.55795E-13)">
						<title>Sheet.823</title>
						<path d="M15.75 50.93 L0 66.75 L0 68.63 L0.22 68.63 L15.75 53.03 L15.75 50.93 Z" class="st3"/>
					</g>
					<g id="shape824-26" v:mID="824" v:groupContext="shape" v:layerMember="0" transform="translate(24.225,-18)">
						<title>Sheet.824</title>
						<path d="M19.95 48.53 L0 68.63 L2.1 68.63 L19.95 50.7 L19.95 48.53 Z" class="st3"/>
					</g>
					<g id="shape825-28" v:mID="825" v:groupContext="shape" v:layerMember="0"
							transform="translate(6.3,-2.41585E-13)">
						<title>Sheet.825</title>
						<path d="M13.12 55.43 L0 68.63 L2.1 68.63 L13.12 57.53 L13.12 55.43 Z" class="st3"/>
					</g>
					<g id="shape826-30" v:mID="826" v:groupContext="shape" v:layerMember="0" transform="translate(10.8,0)">
						<title>Sheet.826</title>
						<path d="M8.62 62.03 L8.62 59.93 L0 68.63 L2.1 68.63 L8.62 62.03 Z" class="st3"/>
					</g>
					<g id="shape827-32" v:mID="827" v:groupContext="shape" v:layerMember="0" transform="translate(28.65,-17.1)">
						<title>Sheet.827</title>
						<path d="M1.28 68.63 L15.53 54.23 L15.53 52.13 L0 67.73 L1.28 67.73 L1.28 68.63 Z" class="st3"/>
					</g>
					<g id="shape828-34" v:mID="828" v:groupContext="shape" v:layerMember="0" transform="translate(29.925,-12.375)">
						<title>Sheet.828</title>
						<path d="M15.52 50.78 L0 66.45 L0 68.63 L16.65 51.75 L15.52 50.78 Z" class="st3"/>
					</g>
					<g id="shape829-36" v:mID="829" v:groupContext="shape" v:layerMember="0" transform="translate(15.6,0)">
						<title>Sheet.829</title>
						<path d="M0 68.63 L2.1 68.63 L3.83 66.83 L3.83 64.73 L0 68.63 Z" class="st3"/>
					</g>
					<g id="shape830-38" v:mID="830" v:groupContext="shape" v:layerMember="0" transform="translate(29.925,-7.875)">
						<title>Sheet.830</title>
						<path d="M15.75 52.65 L15.75 52.5 L15.9 52.5 L18.9 49.5 L17.78 48.45 L0 66.45 L0 68.63 L15.75 52.65 Z"
								class="st3"/>
					</g>
					<g id="shape831-40" v:mID="831" v:groupContext="shape" v:layerMember="0" transform="translate(48.3,-24.15)">
						<title>Sheet.831</title>
						<path d="M1.05 67.58 L0 68.63 C0.53 68.48 0.9 68.1 1.05 67.58 Z" class="st3"/>
					</g>
					<g id="shape832-42" v:mID="832" v:groupContext="shape" v:layerMember="0" transform="translate(29.925,-3.375)">
						<title>Sheet.832</title>
						<path d="M15.75 52.73 L15.75 50.55 L0 66.53 L0 68.63 L15.75 52.73 Z" class="st3"/>
					</g>
					<g id="shape833-44" v:mID="833" v:groupContext="shape" v:layerMember="0"
							transform="translate(29.925,2.27374E-13)">
						<title>Sheet.833</title>
						<path d="M15.75 51.75 L0 67.73 L0 68.63 L1.2 68.63 L15.75 53.85 L15.75 51.75 Z" class="st3"/>
					</g>
					<g id="shape834-46" v:mID="834" v:groupContext="shape" v:layerMember="0" transform="translate(33.525,0)">
						<title>Sheet.834</title>
						<path d="M12.15 56.25 L0 68.63 L2.1 68.63 L12.15 58.43 L12.15 56.25 Z" class="st3"/>
					</g>
					<g id="shape835-48" v:mID="835" v:groupContext="shape" v:layerMember="0"
							transform="translate(37.95,-8.52651E-14)">
						<title>Sheet.835</title>
						<path d="M7.72 62.93 L7.72 60.75 L0 68.63 L2.1 68.63 L7.72 62.93 Z" class="st3"/>
					</g>
					<g id="shape836-50" v:mID="836" v:groupContext="shape" v:layerMember="0"
							transform="translate(42.45,-1.42109E-14)">
						<title>Sheet.836</title>
						<path d="M0 68.63 L2.1 68.63 L3.22 67.5 L3.22 65.33 L0 68.63 Z" class="st3"/>
					</g>
				</g>
			</g>
		</g>
	</g>
</svg>
