<?xml version="1.0" encoding="UTF-8" standalone="no"?>
<!DOCTYPE svg PUBLIC "-//W3C//DTD SVG 1.1//EN" "http://www.w3.org/Graphics/SVG/1.1/DTD/svg11.dtd">
<!-- Generated by Microsoft Visio, SVG Export Hybrid.svg Page-1 -->
<svg xmlns="http://www.w3.org/2000/svg" xmlns:xlink="http://www.w3.org/1999/xlink" xmlns:ev="http://www.w3.org/2001/xml-events"
		xmlns:v="http://schemas.microsoft.com/visio/2003/SVGExtensions/" width="1.02227in" height="0.953125in"
		viewBox="0 0 73.6031 68.625" xml:space="preserve" color-interpolation-filters="sRGB" class="st3">
	<v:documentProperties v:langID="4108" v:metric="true" v:viewMarkup="false"/>

	<style type="text/css">
	<![CDATA[
		.st1 {fill:#ffffff;stroke:none;stroke-linecap:butt;stroke-width:0.75}
		.st2 {fill:#515050;stroke:none;stroke-linecap:butt;stroke-width:0.75}
		.st3 {fill:none;fill-rule:evenodd;font-size:12px;overflow:visible;stroke-linecap:square;stroke-miterlimit:3}
	]]>
	</style>

	<g v:mID="0" v:index="1" v:groupContext="foregroundPage">
		<title>Page-1</title>
		<v:pageProperties v:drawingScale="0.0393701" v:pageScale="0.0393701" v:drawingUnits="24" v:shadowOffsetX="8.50394"
				v:shadowOffsetY="-8.50394"/>
		<v:layer v:name="symbols" v:index="0"/>
		<g id="group967-1" transform="translate(9.10313,-7.3125)" v:mID="967" v:groupContext="group" v:layerMember="0">
			<title>Hybrid</title>
			<g id="group968-2" v:mID="968" v:groupContext="group" v:layerMember="0">
				<title>Sheet.968</title>
				<g id="shape969-3" v:mID="969" v:groupContext="shape" v:layerMember="0">
					<title>Sheet.969</title>
					<path d="M54.3 45.67 C52.95 44.4 51.38 43.5 49.58 43.05 C48.98 41.32 48 39.82 46.8 38.62 L51.53 38.62 L60.07
								 29.7 L54.38 23.62 L54.75 23.62 L54.75 14.62 L45.52 14.62 L46.5 13.65 L46.5 10.12 L37.72 10.12 L30
								 18.15 L30 16.2 L21 16.2 L21 22.12 L21 13.12 L0 13.12 L0 68.62 L15 68.62 L21 68.62 L22.2 68.62 L36.75
								 68.62 L52.72 68.62 C58.8 68.62 63.75 63.45 63.75 57.07 C63.75 51.3 59.63 46.5 54.3 45.67 Z"
							class="st1"/>
				</g>
				<g id="shape970-5" v:mID="970" v:groupContext="shape" v:layerMember="0" transform="translate(15.825,-3)">
					<title>Sheet.970</title>
					<path d="M36.9 68.62 L6.75 68.62 L5.63 68.32 C2.32 67.42 0 64.27 0 60.67 C0 57.97 1.27 55.57 3.37 54.15 C3.37
								 54.07 3.37 53.92 3.37 53.85 C3.37 48.67 7.35 44.47 12.22 44.47 C13.13 44.47 14.1 44.62 15 44.92
								 C16.72 42.37 19.43 40.87 22.35 40.87 C26.77 40.87 30.52 44.25 31.35 48.82 C31.35 48.82 31.35 48.82
								 31.35 48.82 C33.52 48.82 35.63 49.87 36.97 51.6 C41.4 51.6 44.92 55.42 44.92 60.07 C44.92 64.72
								 41.33 68.62 36.9 68.62 Z" class="st2"/>
				</g>
				<g id="shape971-7" v:mID="971" v:groupContext="shape" v:layerMember="0" transform="translate(18.15,-5.25)">
					<title>Sheet.971</title>
					<path d="M4.72 68.62 L3.9 68.4 C1.58 67.8 0 65.55 0 62.92 C-0 60.97 0.9 59.25 2.4 58.2 L3.45 57.52 L3.38 56.25
								 C3.38 56.17 3.38 56.1 3.38 56.02 C3.38 52.12 6.3 48.9 9.98 48.9 C10.65 48.9 11.32 49.05 12 49.27
								 L13.65 49.87 L14.62 48.45 C15.9 46.5 18 45.37 20.1 45.37 C23.4 45.37 26.25 47.92 26.85 51.45 L27.15
								 53.32 L29.03 53.32 C30.53 53.32 31.95 54 32.92 55.27 L33.6 56.1 L34.65 56.1 C37.8 56.1 40.35 58.95
								 40.35 62.32 C40.35 65.77 37.73 68.62 34.57 68.62 L4.72 68.62 Z" class="st1"/>
				</g>
				<g id="shape972-9" v:mID="972" v:groupContext="shape" v:layerMember="0" transform="translate(33.3,-43.5)">
					<title>Sheet.972</title>
					<path d="M18.45 61.12 L8.7 61.12 L4.95 61.12 L9.45 56.62 L5.7 56.62 L0 62.62 L5.7 68.62 L9.45 68.62 L4.95 64.12
								 L8.7 64.12 L18.45 64.12 L18.45 61.12 Z" class="st2"/>
				</g>
				<g id="shape973-11" v:mID="973" v:groupContext="shape" v:layerMember="0" transform="translate(37.5,-33)">
					<title>Sheet.973</title>
					<path d="M0 64.12 L9.75 64.12 L13.5 64.12 L9 68.62 L12.75 68.62 L18.45 62.62 L12.75 56.62 L9 56.62 L13.5 61.12
								 L9.75 61.12 L0 61.12 L0 64.12 Z" class="st2"/>
				</g>
				<g id="shape974-13" v:mID="974" v:groupContext="shape" v:layerMember="0" transform="translate(3,-3)">
					<title>Sheet.974</title>
					<path d="M28.5 38.62 L28.5 33.37 L26.25 33.37 L26.25 28.12 L24 28.12 L24 22.2 L21.75 22.2 L21.75 28.12 L19.5
								 28.12 L19.5 33.37 L17.25 33.37 L17.25 38.62 L15 38.62 L15 19.12 L0 19.12 L0 68.62 L15 68.62 L30.75
								 68.62 L30.75 38.62 L28.5 38.62 Z" class="st2"/>
				</g>
				<g id="group975-15" transform="translate(6,-15.75)" v:mID="975" v:groupContext="group" v:layerMember="0">
					<title>Sheet.975</title>
					<g id="group976-16" transform="translate(-9.99201E-16,-30)" v:mID="976" v:groupContext="group"
							v:layerMember="0">
						<title>Sheet.976</title>
						<g id="shape977-17" v:mID="977" v:groupContext="shape" v:layerMember="0">
							<title>Sheet.977</title>
							<rect x="0" y="65.625" width="3" height="3" class="st1"/>
						</g>
						<g id="shape978-19" v:mID="978" v:groupContext="shape" v:layerMember="0" transform="translate(6,0)">
							<title>Sheet.978</title>
							<rect x="0" y="65.625" width="3" height="3" class="st1"/>
						</g>
					</g>
					<g id="group979-21" transform="translate(-9.99201E-16,-24)" v:mID="979" v:groupContext="group"
							v:layerMember="0">
						<title>Sheet.979</title>
						<g id="shape980-22" v:mID="980" v:groupContext="shape" v:layerMember="0">
							<title>Sheet.980</title>
							<rect x="0" y="65.625" width="3" height="3" class="st1"/>
						</g>
						<g id="shape981-24" v:mID="981" v:groupContext="shape" v:layerMember="0" transform="translate(6,0)">
							<title>Sheet.981</title>
							<rect x="0" y="65.625" width="3" height="3" class="st1"/>
						</g>
					</g>
					<g id="group982-26" transform="translate(-9.99201E-16,-18)" v:mID="982" v:groupContext="group"
							v:layerMember="0">
						<title>Sheet.982</title>
						<g id="shape983-27" v:mID="983" v:groupContext="shape" v:layerMember="0">
							<title>Sheet.983</title>
							<rect x="0" y="65.625" width="3" height="3" class="st1"/>
						</g>
						<g id="shape984-29" v:mID="984" v:groupContext="shape" v:layerMember="0" transform="translate(6,0)">
							<title>Sheet.984</title>
							<rect x="0" y="65.625" width="3" height="3" class="st1"/>
						</g>
					</g>
					<g id="group985-31" transform="translate(-9.99201E-16,-12)" v:mID="985" v:groupContext="group"
							v:layerMember="0">
						<title>Sheet.985</title>
						<g id="shape986-32" v:mID="986" v:groupContext="shape" v:layerMember="0">
							<title>Sheet.986</title>
							<rect x="0" y="65.625" width="3" height="3" class="st1"/>
						</g>
						<g id="shape987-34" v:mID="987" v:groupContext="shape" v:layerMember="0" transform="translate(6,0)">
							<title>Sheet.987</title>
							<rect x="0" y="65.625" width="3" height="3" class="st1"/>
						</g>
					</g>
					<g id="group988-36" transform="translate(-9.99201E-16,-6)" v:mID="988" v:groupContext="group" v:layerMember="0">
						<title>Sheet.988</title>
						<g id="shape989-37" v:mID="989" v:groupContext="shape" v:layerMember="0">
							<title>Sheet.989</title>
							<rect x="0" y="65.625" width="3" height="3" class="st1"/>
						</g>
						<g id="shape990-39" v:mID="990" v:groupContext="shape" v:layerMember="0" transform="translate(6,0)">
							<title>Sheet.990</title>
							<rect x="0" y="65.625" width="3" height="3" class="st1"/>
						</g>
					</g>
					<g id="group991-41" v:mID="991" v:groupContext="group" v:layerMember="0">
						<title>Sheet.991</title>
						<g id="shape992-42" v:mID="992" v:groupContext="shape" v:layerMember="0">
							<title>Sheet.992</title>
							<rect x="0" y="65.625" width="3" height="3" class="st1"/>
						</g>
						<g id="shape993-44" v:mID="993" v:groupContext="shape" v:layerMember="0" transform="translate(6,0)">
							<title>Sheet.993</title>
							<rect x="0" y="65.625" width="3" height="3" class="st1"/>
						</g>
					</g>
				</g>
				<g id="group994-46" transform="translate(21.75,-18)" v:mID="994" v:groupContext="group" v:layerMember="0">
					<title>Sheet.994</title>
					<g id="shape995-47" v:mID="995" v:groupContext="shape" v:layerMember="0"
							transform="translate(-7.49401E-16,-9.75)">
						<title>Sheet.995</title>
						<rect x="0" y="65.625" width="3" height="3" class="st1"/>
					</g>
					<g id="shape996-49" v:mID="996" v:groupContext="shape" v:layerMember="0" transform="translate(5.25,-5.25)">
						<title>Sheet.996</title>
						<rect x="0" y="65.625" width="3" height="3" class="st1"/>
					</g>
					<g id="shape997-51" v:mID="997" v:groupContext="shape" v:layerMember="0">
						<title>Sheet.997</title>
						<rect x="0" y="65.625" width="3" height="3" class="st1"/>
					</g>
				</g>
			</g>
		</g>
	</g>
</svg>
