<?xml version="1.0" encoding="UTF-8" standalone="no"?>
<!DOCTYPE svg PUBLIC "-//W3C//DTD SVG 1.1//EN" "http://www.w3.org/Graphics/SVG/1.1/DTD/svg11.dtd">
<!-- Generated by Microsoft Visio, SVG Export Install.svg Page-1 -->
<svg xmlns="http://www.w3.org/2000/svg" xmlns:xlink="http://www.w3.org/1999/xlink" xmlns:ev="http://www.w3.org/2001/xml-events"
		xmlns:v="http://schemas.microsoft.com/visio/2003/SVGExtensions/" width="0.875in" height="0.984375in"
		viewBox="0 0 63 70.875" xml:space="preserve" color-interpolation-filters="sRGB" class="st4">
	<v:documentProperties v:langID="4108" v:metric="true" v:viewMarkup="false"/>

	<style type="text/css">
	<![CDATA[
		.st1 {fill:#ffffff;stroke:none;stroke-linecap:butt;stroke-width:0.75}
		.st2 {fill:#515251;stroke:none;stroke-linecap:butt;stroke-width:0.75}
		.st3 {fill:#515050;stroke:none;stroke-linecap:butt;stroke-width:0.75}
		.st4 {fill:none;fill-rule:evenodd;font-size:12px;overflow:visible;stroke-linecap:square;stroke-miterlimit:3}
	]]>
	</style>

	<g v:mID="0" v:index="1" v:groupContext="foregroundPage">
		<title>Page-1</title>
		<v:pageProperties v:drawingScale="0.0393701" v:pageScale="0.0393701" v:drawingUnits="24" v:shadowOffsetX="8.50394"
				v:shadowOffsetY="-8.50394"/>
		<v:layer v:name="symbols" v:index="0"/>
		<g id="group955-1" transform="translate(4.37813,-6.9375)" v:mID="955" v:groupContext="group" v:layerMember="0">
			<title>Install</title>
			<g id="group956-2" transform="translate(18.75,0)" v:mID="956" v:groupContext="group" v:layerMember="0">
				<title>Sheet.956</title>
				<g id="shape957-3" v:mID="957" v:groupContext="shape" v:layerMember="0">
					<title>Sheet.957</title>
					<path d="M0 70.88 L0 19.13 C0 16.2 2.33 13.88 5.25 13.88 L26.25 13.88 C29.18 13.88 31.5 16.2 31.5 19.13 L31.5
								 70.88 L0 70.88 Z" class="st1"/>
				</g>
				<g id="shape958-5" v:mID="958" v:groupContext="shape" v:layerMember="0" transform="translate(2.25,-2.25)">
					<title>Sheet.958</title>
					<path d="M24 18.38 L3 18.38 C1.35 18.38 0 19.73 0 21.38 L0 70.88 L27 70.88 L27 21.38 C27 19.73 25.65 18.38 24
								 18.38 ZM21.75 64.88 L5.25 64.88 L5.25 62.63 L21.75 62.63 L21.75 64.88 ZM21.75 58.13 L5.25 58.13
								 L5.25 55.88 L21.75 55.88 L21.75 58.13 ZM21.75 27.38 L5.25 27.38 L5.25 25.13 L21.75 25.13 L21.75
								 27.38 Z" class="st2"/>
				</g>
			</g>
			<g id="group959-7" transform="translate(2.43805E-13,-10.5)" v:mID="959" v:groupContext="group" v:layerMember="0">
				<title>Sheet.959</title>
				<g id="shape960-8" v:mID="960" v:groupContext="shape" v:layerMember="0">
					<title>Sheet.960</title>
					<path d="M21.6 49.88 L12.45 49.88 L12.45 52.73 L15.52 55.88 L13.8 55.88 C12.08 55.88 10.2 53.93 9.45 51.53 L9
								 49.88 L0 49.88 L0.53 52.58 C1.87 59.55 7.58 64.88 13.8 64.88 L15.52 64.88 L12.45 68.03 L12.45 70.88
								 L21.6 70.88 L32.1 60.3 L21.6 49.88 Z" class="st1"/>
				</g>
				<g id="shape961-10" v:mID="961" v:groupContext="shape" v:layerMember="0" transform="translate(2.55,-2.25)">
					<title>Sheet.961</title>
					<path d="M18.15 54.38 L12.45 54.38 L18.22 60.38 L11.17 60.38 C8.33 60.38 5.62 57.75 4.65 54.38 L0 54.38 C1.13
								 60.23 5.85 64.88 11.1 64.88 L18.15 64.88 L12.45 70.88 L18.08 70.88 L26.32 62.55 L18.15 54.38 Z"
							class="st3"/>
				</g>
			</g>
		</g>
	</g>
</svg>
