<?xml version="1.0" encoding="UTF-8" standalone="no"?>
<!DOCTYPE svg PUBLIC "-//W3C//DTD SVG 1.1//EN" "http://www.w3.org/Graphics/SVG/1.1/DTD/svg11.dtd">
<!-- Generated by Microsoft Visio, SVG Export Lab.svg Page-1 -->
<svg xmlns="http://www.w3.org/2000/svg" xmlns:xlink="http://www.w3.org/1999/xlink" xmlns:ev="http://www.w3.org/2001/xml-events"
		xmlns:v="http://schemas.microsoft.com/visio/2003/SVGExtensions/" width="0.90625in" height="0.9375in"
		viewBox="0 0 65.25 67.5" xml:space="preserve" color-interpolation-filters="sRGB" class="st3">
	<v:documentProperties v:langID="4108" v:metric="true" v:viewMarkup="false"/>

	<style type="text/css">
	<![CDATA[
		.st1 {fill:#ffffff;stroke:none;stroke-linecap:butt;stroke-width:0.75}
		.st2 {fill:#505150;stroke:none;stroke-linecap:butt;stroke-width:0.75}
		.st3 {fill:none;fill-rule:evenodd;font-size:12px;overflow:visible;stroke-linecap:square;stroke-miterlimit:3}
	]]>
	</style>

	<g v:mID="0" v:index="1" v:groupContext="foregroundPage">
		<title>Page-1</title>
		<v:pageProperties v:drawingScale="0.0393701" v:pageScale="0.0393701" v:drawingUnits="24" v:shadowOffsetX="8.50394"
				v:shadowOffsetY="-8.50394"/>
		<v:layer v:name="symbols" v:index="0"/>
		<g id="group998-1" transform="translate(5.625,-3.975)" v:mID="998" v:groupContext="group" v:layerMember="0">
			<title>Lab</title>
			<g id="group999-2" v:mID="999" v:groupContext="group" v:layerMember="0">
				<title>Sheet.999</title>
				<g id="shape1000-3" v:mID="1000" v:groupContext="shape" v:layerMember="0" transform="translate(-2.39808E-13,-6)">
					<title>Sheet.1000</title>
					<path d="M5.62 67.5 C3.75 67.5 2.02 66.52 1.05 64.95 C0.08 63.38 0 61.35 0.83 59.7 L0.9 59.62 L14.78 37.72 C14.77
								 37.65 14.77 37.65 14.78 37.57 L14.78 28.42 C14.77 27.97 14.7 27.53 14.55 27.15 C14.48 26.92 14.25
								 26.62 13.88 26.4 C12.9 25.73 12.38 24.6 12.37 23.4 L12.37 23.25 C12.38 21.23 14.03 19.57 16.05 19.57
								 L27.9 19.57 C29.92 19.57 31.57 21.23 31.58 23.25 L31.58 23.4 C31.57 24.6 30.98 25.73 30.08 26.4
								 C29.7 26.7 29.47 26.92 29.4 27.15 C29.25 27.6 29.18 28.05 29.18 28.42 L29.18 37.5 C29.18 37.57 29.18
								 37.57 29.18 37.65 L43.05 59.55 L43.13 59.62 C43.95 61.27 43.87 63.3 42.9 64.87 C41.93 66.45 40.13
								 67.5 38.25 67.5 L5.62 67.5 Z" class="st1"/>
				</g>
				<g id="shape1001-5" v:mID="1001" v:groupContext="shape" v:layerMember="0" transform="translate(32.475,2.55795E-13)">
					<title>Sheet.1001</title>
					<path d="M9 67.5 C4.87 67.5 1.5 63.82 1.5 59.25 L1.5 35.47 C0.6 34.87 0 33.82 0 32.62 C-0 30.75 1.42 29.25 3.22
								 29.25 L14.7 29.25 C16.5 29.25 17.92 30.75 17.92 32.62 C17.92 33.82 17.32 34.87 16.42 35.47 L16.42
								 59.25 C16.5 63.82 13.12 67.5 9 67.5 Z" class="st1"/>
				</g>
				<g id="shape1002-7" v:mID="1002" v:groupContext="shape" v:layerMember="0" transform="translate(1.725,-8.25)">
					<title>Sheet.1002</title>
					<path d="M29.47 51.6 L37.35 63.98 C37.5 64.35 37.35 64.65 37.27 64.8 C37.2 64.95 36.97 65.25 36.52 65.25 L3.9
								 65.25 C3.45 65.25 3.22 64.95 3.15 64.8 C3.08 64.65 2.92 64.35 3.07 63.98 L10.95 51.53 L29.47 51.6
								 ZM25.57 28.5 C25.87 27.83 26.4 27.23 27 26.78 C27.37 26.48 27.6 26.1 27.6 25.58 L27.6 25.43 C27.6
								 24.6 26.92 24 26.17 24 L14.32 24 C13.5 24 12.9 24.68 12.9 25.43 L12.9 25.58 C12.9 26.03 13.12 26.48
								 13.5 26.78 C14.1 27.23 14.62 27.75 14.92 28.5 C15.23 29.18 15.3 29.93 15.3 30.6 L15.3 39.75 C15.3
								 40.2 15.23 40.58 15 41.03 L1.12 62.93 C-0 65.03 1.57 67.5 3.9 67.5 L36.52 67.5 C38.85 67.5 40.42
								 65.03 39.3 62.93 L25.42 41.03 C25.2 40.65 25.12 40.2 25.12 39.75 L25.12 30.68 C25.12 29.93 25.28
								 29.18 25.57 28.5 Z" class="st2"/>
				</g>
				<g id="shape1003-9" v:mID="1003" v:groupContext="shape" v:layerMember="0" transform="translate(34.725,-2.25)">
					<title>Sheet.1003</title>
					<path d="M12.52 33.75 L0.97 33.75 C0.45 33.75 0 34.28 0 34.87 C0 35.47 0.45 36 0.97 36 L1.5 36 L1.5 61.5 C1.5
								 64.8 3.82 67.5 6.75 67.5 C9.67 67.5 12 64.8 12 61.5 L12 58.5 L7.5 58.5 L7.5 57 L12 57 L12 51 L7.5
								 51 L7.5 49.5 L12 49.5 L12 43.5 L7.5 43.5 L7.5 42 L12 42 L12 36 L12.52 36 C13.05 36 13.5 35.47 13.5
								 34.87 C13.5 34.28 13.05 33.75 12.52 33.75 Z" class="st2"/>
				</g>
			</g>
		</g>
	</g>
</svg>
