<?xml version="1.0" encoding="UTF-8" standalone="no"?>
<!DOCTYPE svg PUBLIC "-//W3C//DTD SVG 1.1//EN" "http://www.w3.org/Graphics/SVG/1.1/DTD/svg11.dtd">
<!-- Generated by Microsoft Visio, SVG Export Learn.svg Page-1 -->
<svg xmlns="http://www.w3.org/2000/svg" xmlns:xlink="http://www.w3.org/1999/xlink" xmlns:ev="http://www.w3.org/2001/xml-events"
		xmlns:v="http://schemas.microsoft.com/visio/2003/SVGExtensions/" width="0.9375in" height="1.01563in"
		viewBox="0 0 67.5 73.125" xml:space="preserve" color-interpolation-filters="sRGB" class="st3">
	<v:documentProperties v:langID="4108" v:metric="true" v:viewMarkup="false"/>

	<style type="text/css">
	<![CDATA[
		.st1 {fill:#ffffff;stroke:none;stroke-linecap:butt;stroke-width:0.75}
		.st2 {fill:#505050;stroke:none;stroke-linecap:butt;stroke-width:0.75}
		.st3 {fill:none;fill-rule:evenodd;font-size:12px;overflow:visible;stroke-linecap:square;stroke-miterlimit:3}
	]]>
	</style>

	<g v:mID="0" v:index="1" v:groupContext="foregroundPage">
		<title>Page-1</title>
		<v:pageProperties v:drawingScale="0.0393701" v:pageScale="0.0393701" v:drawingUnits="24" v:shadowOffsetX="8.50394"
				v:shadowOffsetY="-8.50394"/>
		<v:layer v:name="symbols" v:index="0"/>
		<g id="group1004-1" transform="translate(2.8125,-5.8125)" v:mID="1004" v:groupContext="group" v:layerMember="0">
			<title>Learn</title>
			<g id="group1005-2" v:mID="1005" v:groupContext="group" v:layerMember="0">
				<title>Sheet.1005</title>
				<g id="group1006-3" transform="translate(2.55795E-13,-6.75)" v:mID="1006" v:groupContext="group" v:layerMember="0">
					<title>Sheet.1006</title>
					<g id="shape1007-4" v:mID="1007" v:groupContext="shape" v:layerMember="0">
						<title>Sheet.1007</title>
						<path d="M50.92 73.12 L50.77 70.73 C50.55 67.05 49.65 59.4 48.82 55.88 C47.92 51.98 46.73 49.28 42.97 47.18
									 L41.62 46.43 C39 44.93 37.88 44.25 36.37 44.25 C35.55 44.25 34.87 44.4 34.12 44.78 L33 45.38
									 L33.9 44.63 C36.97 41.93 38.93 37.8 38.92 33.15 C39 24.98 32.93 18.38 25.5 18.38 L25.42 18.38
									 C18 18.38 11.93 24.98 11.92 33.15 C11.93 37.8 13.87 41.93 16.95 44.63 L17.85 45.38 L16.65 44.78
									 C15.97 44.4 15.23 44.25 14.4 44.25 C12.9 44.25 11.7 44.93 9.15 46.43 L7.8 47.18 C4.12 49.28
									 2.85 51.98 1.95 55.88 C1.13 59.4 0.3 67.05 0 70.73 L0 73.12 L50.92 73.12 Z" class="st1"/>
					</g>
					<g id="shape1008-6" v:mID="1008" v:groupContext="shape" v:layerMember="0" transform="translate(2.55,-2.325)">
						<title>Sheet.1008</title>
						<path d="M44.03 58.72 C43.13 54.9 42.15 53.1 39.3 51.52 C36.45 49.87 34.88 48.9 33.83 48.9 C33.38 48.9 33
									 48.97 32.7 49.2 C32.02 49.8 31.27 50.4 30.45 50.85 C30.3 50.92 30.15 51 30.08 51.07 C29.25 51.6
									 28.43 51.9 27.68 52.2 C26.18 52.72 24.6 53.02 22.95 53.02 C21.3 53.02 19.72 52.72 18.22 52.2
									 C17.4 51.97 16.65 51.6 15.83 51.07 C14.85 50.55 13.95 49.87 13.2 49.12 C12.9 48.97 12.52 48.82
									 12.08 48.82 C11.02 48.82 9.9 49.57 6.6 51.45 C3.75 53.1 2.7 54.9 1.88 58.65 C1.12 61.95 0.23
									 69.52 0 73.12 L46.13 73.12 C45.67 69.6 44.77 62.02 44.03 58.72 Z" class="st2"/>
					</g>
					<g id="shape1009-8" v:mID="1009" v:groupContext="shape" v:layerMember="0" transform="translate(14.175,-27.525)">
						<title>Sheet.1009</title>
						<path d="M11.25 73.12 C5.02 73.12 0 67.5 0 60.6 C0 53.7 5.02 48.15 11.25 48.15 C17.47 48.15 22.5 53.78 22.5
									 60.68 C22.5 67.58 17.47 73.12 11.25 73.12 Z" class="st2"/>
					</g>
				</g>
				<g id="group1010-10" transform="translate(27.75,5.68434E-14)" v:mID="1010" v:groupContext="group" v:layerMember="0">
					<title>Sheet.1010</title>
					<g id="shape1011-11" v:mID="1011" v:groupContext="shape" v:layerMember="0">
						<title>Sheet.1011</title>
						<path d="M15 73.12 C14.25 73.12 13.58 72.82 13.05 72.38 L3.75 72.38 C1.65 72.38 0 70.73 0 68.7 L0 52.13 C0
									 50.03 1.65 48.38 3.75 48.38 L29.25 48.38 C31.35 48.38 33 50.03 33 52.13 L33 68.7 C33 70.8 31.35
									 72.38 29.25 72.38 L19.95 72.38 C19.42 72.82 18.67 73.12 18 73.12 L15 73.12 Z" class="st1"/>
					</g>
					<g id="shape1012-13" v:mID="1012" v:groupContext="shape" v:layerMember="0" transform="translate(1.5,-1.35)">
						<title>Sheet.1012</title>
						<path d="M14.4 73.12 L13.13 72.45 L12.98 72.22 C12.9 72.23 12.75 72.23 12.6 72.22 C12.6 72.23 11.78 72.23
									 11.7 72.22 L0 72.22 L0 50.85 C0 48.6 1.88 46.73 4.13 46.73 L11.92 46.73 C12.98 46.73 14.03 47.1
									 15 47.85 C15.98 47.1 17.03 46.73 18.08 46.73 L25.87 46.73 C28.13 46.73 30 48.6 30 50.85 L30
									 72.22 L18.38 72.22 C18.3 72.23 17.48 72.23 17.48 72.22 C17.33 72.23 17.18 72.23 17.1 72.22 L16.95
									 72.45 L15.68 73.12 L14.4 73.12 Z" class="st1"/>
					</g>
					<g id="shape1013-15" v:mID="1013" v:groupContext="shape" v:layerMember="0" transform="translate(2.25,-2.25)">
						<title>Sheet.1013</title>
						<path d="M27 52.88 L1.5 52.88 C0.68 52.88 0 53.55 0 54.38 L0 70.95 C0 71.78 0.68 72.37 1.5 72.37 L12 72.37
									 C12 72.82 12.3 73.12 12.75 73.12 L15.75 73.12 C16.2 73.12 16.5 72.82 16.5 72.37 L27 72.37 C27.82
									 72.37 28.5 71.78 28.5 70.95 L28.5 54.38 C28.5 53.55 27.82 52.88 27 52.88 Z" class="st2"/>
					</g>
					<g id="shape1014-17" v:mID="1014" v:groupContext="shape" v:layerMember="0" transform="translate(3.75,-3.6)">
						<title>Sheet.1014</title>
						<path d="M12.75 53.48 C12.08 52.35 10.95 51.23 9.67 51.23 L1.87 51.23 C0.83 51.23 0 52.05 0 53.1 L0 69.68
									 L0 72.22 L5.25 72.22 L9.37 72.22 C10.57 72.22 11.7 72.07 12.37 72.97 L12.75 73.12 L13.12 72.97
									 C13.8 72.07 14.92 72.22 16.12 72.22 L20.25 72.22 L25.5 72.22 L25.5 69.68 L25.5 53.1 C25.5 52.05
									 24.67 51.23 23.62 51.23 L15.82 51.23 C14.55 51.23 13.42 52.35 12.75 53.48 Z" class="st2"/>
					</g>
					<g id="shape1015-19" v:mID="1015" v:groupContext="shape" v:layerMember="0" transform="translate(5.25,-5.25)">
						<title>Sheet.1015</title>
						<path d="M12 57.37 C12 56.02 13.2 54.37 15.07 54.37 L22.12 54.37 C22.35 54.37 22.5 54.52 22.5 54.75 L22.5
									 72.37 L14.62 72.37 C13.5 72.37 12.6 72.9 12 73.12 L12 57.37 ZM10.5 73.12 C9.9 72.9 9.22 72.37
									 7.87 72.37 L0 72.37 L0 54.75 C0 54.52 0.15 54.37 0.38 54.37 L7.42 54.37 C9.38 54.37 10.5 56.1
									 10.5 57.37 L10.5 73.12 Z" class="st1"/>
					</g>
					<g id="group1016-21" transform="translate(7.5,-10.5)" v:mID="1016" v:groupContext="group" v:layerMember="0">
						<title>Sheet.1016</title>
						<g id="shape1017-22" v:mID="1017" v:groupContext="shape" v:layerMember="0"
								transform="translate(-3.09752E-14,-3.75)">
							<title>Sheet.1017</title>
							<rect x="0" y="71.625" width="6" height="1.5" class="st2"/>
						</g>
						<g id="shape1018-24" v:mID="1018" v:groupContext="shape" v:layerMember="0">
							<title>Sheet.1018</title>
							<rect x="0" y="71.625" width="6" height="1.5" class="st2"/>
						</g>
					</g>
					<g id="group1019-26" transform="translate(7.5,-10.5)" v:mID="1019" v:groupContext="group" v:layerMember="0">
						<title>Sheet.1019</title>
						<g id="shape1020-27" v:mID="1020" v:groupContext="shape" v:layerMember="0" transform="translate(12,-3.75)">
							<title>Sheet.1020</title>
							<rect x="0" y="71.625" width="6" height="1.5" class="st2"/>
						</g>
						<g id="shape1021-29" v:mID="1021" v:groupContext="shape" v:layerMember="0"
								transform="translate(8.34333E-14,-7.5)">
							<title>Sheet.1021</title>
							<rect x="0" y="71.625" width="6" height="1.5" class="st2"/>
						</g>
						<g id="shape1022-31" v:mID="1022" v:groupContext="shape" v:layerMember="0" transform="translate(12,-7.5)">
							<title>Sheet.1022</title>
							<rect x="0" y="71.625" width="6" height="1.5" class="st2"/>
						</g>
						<g id="shape1023-33" v:mID="1023" v:groupContext="shape" v:layerMember="0"
								transform="translate(12,1.42109E-14)">
							<title>Sheet.1023</title>
							<rect x="0" y="71.625" width="6" height="1.5" class="st2"/>
						</g>
					</g>
				</g>
			</g>
		</g>
	</g>
</svg>
