<?xml version="1.0" encoding="UTF-8" standalone="no"?>
<!DOCTYPE svg PUBLIC "-//W3C//DTD SVG 1.1//EN" "http://www.w3.org/Graphics/SVG/1.1/DTD/svg11.dtd">
<!-- Generated by Microsoft Visio, SVG Export License.svg Page-1 -->
<svg xmlns="http://www.w3.org/2000/svg" xmlns:xlink="http://www.w3.org/1999/xlink" xmlns:ev="http://www.w3.org/2001/xml-events"
		xmlns:v="http://schemas.microsoft.com/visio/2003/SVGExtensions/" width="0.9375in" height="0.96875in"
		viewBox="0 0 67.5 69.75" xml:space="preserve" color-interpolation-filters="sRGB" class="st4">
	<v:documentProperties v:langID="4108" v:metric="true" v:viewMarkup="false"/>

	<style type="text/css">
	<![CDATA[
		.st1 {fill:#ffffff;stroke:none;stroke-linecap:butt;stroke-width:0.75}
		.st2 {fill:#505050;stroke:none;stroke-linecap:butt;stroke-width:0.75}
		.st3 {fill:#505150;stroke:none;stroke-linecap:butt;stroke-width:0.75}
		.st4 {fill:none;fill-rule:evenodd;font-size:12px;overflow:visible;stroke-linecap:square;stroke-miterlimit:3}
	]]>
	</style>

	<g v:mID="0" v:index="1" v:groupContext="foregroundPage">
		<title>Page-1</title>
		<v:pageProperties v:drawingScale="0.0393701" v:pageScale="0.0393701" v:drawingUnits="24" v:shadowOffsetX="8.50394"
				v:shadowOffsetY="-8.50394"/>
		<v:layer v:name="symbols" v:index="0"/>
		<g id="group1024-1" transform="translate(9.4875,-5.025)" v:mID="1024" v:groupContext="group" v:layerMember="0">
			<title>License</title>
			<g id="group1025-2" v:mID="1025" v:groupContext="group" v:layerMember="0">
				<title>Sheet.1025</title>
				<g id="shape1026-3" v:mID="1026" v:groupContext="shape" v:layerMember="0" transform="translate(0,-2.175)">
					<title>Sheet.1026</title>
					<path d="M28.8 69.67 L24.07 69.67 L23.4 68.62 C23.32 68.55 22.58 68.18 21.45 68.17 C20.32 68.18 19.58 68.55 19.42
								 68.7 L18.75 69.75 L17.55 69.67 L12.82 69.67 L12.15 68.62 C12.07 68.55 11.32 68.18 10.2 68.17 C9.07
								 68.18 8.32 68.55 8.18 68.7 L7.5 69.75 L6.3 69.67 L0.07 69.67 L0.07 62.25 L1.12 61.57 C1.2 61.42
								 1.58 60.68 1.57 59.55 C1.58 58.42 1.2 57.68 1.05 57.53 L0 56.85 L0.07 55.65 L0.07 50.93 L1.12 50.25
								 C1.2 50.17 1.58 49.43 1.57 48.3 C1.58 47.17 1.2 46.43 1.05 46.28 L0 45.6 L0.07 44.4 L0.07 39.68
								 L1.12 39 C1.2 38.92 1.58 38.18 1.57 37.05 C1.58 35.92 1.2 35.18 1.05 35.03 L0 34.35 L0.07 33.15
								 L0.07 28.43 L1.12 27.75 C1.2 27.67 1.58 26.93 1.57 25.8 C1.58 24.67 1.2 23.93 1.05 23.78 L0 23.1
								 L0.07 21.9 L0.07 15.68 L7.5 15.68 L8.17 16.73 C8.32 16.8 9.07 17.18 10.2 17.18 C11.32 17.18 12.07
								 16.8 12.22 16.65 L12.9 15.6 L14.1 15.68 L18.83 15.68 L19.5 16.73 C19.58 16.8 20.32 17.18 21.45 17.18
								 C22.58 17.18 23.32 16.8 23.47 16.65 L24.15 15.6 L25.35 15.68 L30.07 15.68 L30.75 16.73 C30.83 16.8
								 31.58 17.18 32.7 17.18 C33.83 17.18 34.58 16.8 34.72 16.65 L35.4 15.6 L36.6 15.68 L42.82 15.68 L42.82
								 23.1 L41.77 23.78 C41.7 23.93 41.32 24.67 41.32 25.8 C41.32 26.93 41.7 27.67 41.85 27.83 L42.9 28.5
								 L42.82 29.7 L42.82 34.43 L41.77 35.1 C41.7 35.18 41.32 35.92 41.32 37.05 C41.32 38.18 41.7 38.92
								 41.85 39.08 L42.9 39.75 L42.82 40.95 L42.82 45.67 L41.77 46.35 C41.7 46.43 41.32 47.17 41.32 48.3
								 C41.32 49.43 41.7 50.17 41.85 50.33 L42.9 51 L42.82 52.2 L42.82 56.92 L41.77 57.6 C41.7 57.68 41.32
								 58.42 41.32 59.55 C41.32 60.68 41.7 61.42 41.85 61.57 L42.9 62.25 L42.82 63.45 L42.82 69.67 L35.4
								 69.67 L34.72 68.62 C34.58 68.55 33.83 68.18 32.7 68.17 C31.58 68.18 30.83 68.55 30.67 68.7 L30 69.75
								 L28.8 69.67 Z" class="st1"/>
				</g>
				<g id="shape1027-5" v:mID="1027" v:groupContext="shape" v:layerMember="0" transform="translate(0.075,-5.25)">
					<title>Sheet.1027</title>
					<rect x="0" y="18.75" width="42.75" height="51" class="st1"/>
				</g>
				<g id="group1028-7" transform="translate(12.075,-16.5)" v:mID="1028" v:groupContext="group" v:layerMember="0">
					<title>Sheet.1028</title>
					<g id="shape1029-8" v:mID="1029" v:groupContext="shape" v:layerMember="0" transform="translate(0,-12)">
						<title>Sheet.1029</title>
						<rect x="0" y="67.5" width="18.75" height="2.25" class="st2"/>
					</g>
					<g id="shape1030-10" v:mID="1030" v:groupContext="shape" v:layerMember="0" transform="translate(0,-18)">
						<title>Sheet.1030</title>
						<rect x="0" y="67.5" width="18.75" height="2.25" class="st2"/>
					</g>
					<g id="shape1031-12" v:mID="1031" v:groupContext="shape" v:layerMember="0" transform="translate(0,-24)">
						<title>Sheet.1031</title>
						<rect x="0" y="67.5" width="18.75" height="2.25" class="st2"/>
					</g>
					<g id="shape1032-14" v:mID="1032" v:groupContext="shape" v:layerMember="0" transform="translate(0,-6)">
						<title>Sheet.1032</title>
						<rect x="0" y="67.5" width="18.75" height="2.25" class="st2"/>
					</g>
					<g id="shape1033-16" v:mID="1033" v:groupContext="shape" v:layerMember="0">
						<title>Sheet.1033</title>
						<rect x="0" y="67.5" width="18.75" height="2.25" class="st2"/>
					</g>
				</g>
				<g id="shape1034-18" v:mID="1034" v:groupContext="shape" v:layerMember="0" transform="translate(2.325,-4.5)">
					<title>Sheet.1034</title>
					<path d="M36.75 61.87 C36.75 60.07 37.35 58.57 38.25 57.98 L38.25 54.53 C37.35 53.93 36.75 52.43 36.75 50.63
								 C36.75 48.83 37.35 47.33 38.25 46.73 L38.25 43.28 C37.35 42.67 36.75 41.17 36.75 39.38 C36.75 37.58
								 37.35 36.08 38.25 35.48 L38.25 32.03 C37.35 31.43 36.75 29.93 36.75 28.13 C36.75 26.33 37.35 24.82
								 38.25 24.23 L38.25 20.25 L34.28 20.25 C33.68 21.15 32.18 21.75 30.38 21.75 C28.58 21.75 27.08 21.15
								 26.48 20.25 L23.03 20.25 C22.43 21.15 20.92 21.75 19.13 21.75 C17.33 21.75 15.83 21.15 15.23 20.25
								 L11.78 20.25 C11.18 21.15 9.68 21.75 7.87 21.75 C6.07 21.75 4.57 21.15 3.98 20.25 L0 20.25 L0 24.23
								 C0.9 24.83 1.5 26.33 1.5 28.13 C1.5 29.93 0.9 31.43 0 32.03 L0 35.48 C0.9 36.08 1.5 37.58 1.5 39.38
								 C1.5 41.17 0.9 42.67 0 43.28 L0 46.73 C0.9 47.33 1.5 48.83 1.5 50.63 C1.5 52.43 0.9 53.93 0 54.53
								 L0 57.98 C0.9 58.57 1.5 60.07 1.5 61.87 C1.5 63.68 0.9 65.18 0 65.78 L0 69.75 L3.98 69.75 C4.58
								 68.85 6.07 68.25 7.87 68.25 C9.68 68.25 11.18 68.85 11.78 69.75 L15.23 69.75 C15.83 68.85 17.33
								 68.25 19.13 68.25 C20.92 68.25 22.43 68.85 23.03 69.75 L26.48 69.75 C27.08 68.85 28.58 68.25 30.38
								 68.25 C32.18 68.25 33.68 68.85 34.28 69.75 L38.25 69.75 L38.25 65.78 C37.35 65.17 36.75 63.68 36.75
								 61.87 ZM33 63.75 L5.25 63.75 L5.25 25.5 L33 25.5 L33 63.75 Z" class="st2"/>
				</g>
				<g id="group1035-20" transform="translate(30.825,-4.26326E-14)" v:mID="1035" v:groupContext="group"
						v:layerMember="0">
					<title>Sheet.1035</title>
					<g id="shape1036-21" v:mID="1036" v:groupContext="shape" v:layerMember="0">
						<title>Sheet.1036</title>
						<path d="M4.57 65.4 L8.55 69.75 L10.5 69.75 L15.67 64.35 L13.5 62.1 L15 60.52 L14.77 58.57 L13.2 56.85 L14.17
									 55.65 L14.17 53.32 C16.95 51.67 18.67 48.68 18.67 45.3 C18.75 40.2 14.55 36 9.37 36 C4.2 36
									 0 40.2 0 45.37 C-0 48.75 1.72 51.75 4.57 53.4 L4.57 65.4 Z" class="st1"/>
					</g>
					<g id="shape1037-23" v:mID="1037" v:groupContext="shape" v:layerMember="0" transform="translate(2.25,-2.25)">
						<title>Sheet.1037</title>
						<path d="M9.75 56.32 L9.75 54.22 C12.38 53.17 14.25 50.62 14.25 47.62 C14.25 43.72 11.03 40.5 7.12 40.5 C3.22
									 40.5 0 43.72 0 47.62 C0 50.62 1.87 53.25 4.57 54.3 L4.57 66.75 L7.35 69.75 L10.42 66.6 L8.25
									 64.35 L10.5 61.95 L10.5 61.8 L8.02 59.25 L9.75 57.15 L9.75 56.32 ZM7.12 43.5 C8.18 43.5 9 44.32
									 9 45.37 C9 46.42 8.18 47.25 7.12 47.25 C6.07 47.25 5.25 46.42 5.25 45.37 C5.25 44.32 6.07 43.5
									 7.12 43.5 Z" class="st3"/>
					</g>
				</g>
			</g>
		</g>
	</g>
</svg>
