<?xml version="1.0" encoding="UTF-8" standalone="no"?>
<!DOCTYPE svg PUBLIC "-//W3C//DTD SVG 1.1//EN" "http://www.w3.org/Graphics/SVG/1.1/DTD/svg11.dtd">
<!-- Generated by Microsoft Visio, SVG Export Link.svg Page-1 -->
<svg xmlns="http://www.w3.org/2000/svg" xmlns:xlink="http://www.w3.org/1999/xlink" xmlns:ev="http://www.w3.org/2001/xml-events"
		xmlns:v="http://schemas.microsoft.com/visio/2003/SVGExtensions/" width="1.10938in" height="0.5625in"
		viewBox="0 0 79.875 40.5" xml:space="preserve" color-interpolation-filters="sRGB" class="st3">
	<v:documentProperties v:langID="4108" v:metric="true" v:viewMarkup="false"/>

	<style type="text/css">
	<![CDATA[
		.st1 {fill:#ffffff;stroke:none;stroke-linecap:butt;stroke-width:0.75}
		.st2 {fill:#515050;stroke:none;stroke-linecap:butt;stroke-width:0.75}
		.st3 {fill:none;fill-rule:evenodd;font-size:12px;overflow:visible;stroke-linecap:square;stroke-miterlimit:3}
	]]>
	</style>

	<g v:mID="0" v:index="1" v:groupContext="foregroundPage">
		<title>Page-1</title>
		<v:pageProperties v:drawingScale="0.0393701" v:pageScale="0.0393701" v:drawingUnits="24" v:shadowOffsetX="8.50394"
				v:shadowOffsetY="-8.50394"/>
		<v:layer v:name="symbols" v:index="0"/>
		<g id="group1038-1" transform="translate(8.20312,-7.9875)" v:mID="1038" v:groupContext="group" v:layerMember="0">
			<title>Link</title>
			<g id="group1039-2" v:mID="1039" v:groupContext="group" v:layerMember="0">
				<title>Sheet.1039</title>
				<g id="shape1040-3" v:mID="1040" v:groupContext="shape" v:layerMember="0">
					<title>Sheet.1040</title>
					<path d="M50.92 14.85 L44.62 14.85 C39.75 14.85 35.25 17.7 33.07 22.12 L32.62 23.1 L31.13 23.1 L30.68 22.12 C28.5
								 17.7 24 14.85 19.12 14.85 L12.83 14.85 C5.78 14.85 0 20.62 0 27.67 C0 34.72 5.78 40.5 12.83 40.5
								 L19.12 40.5 C24.08 40.5 28.58 37.57 30.68 33.07 L31.13 32.1 L32.55 32.1 L33 33.07 C35.1 37.57 39.67
								 40.5 44.55 40.5 L50.85 40.5 C57.9 40.5 63.67 34.72 63.67 27.67 C63.75 20.62 57.97 14.85 50.92 14.85
								 ZM8.7 27.67 C8.7 25.42 10.5 23.62 12.75 23.62 L15.9 23.62 C14.47 24.37 13.43 25.95 13.43 27.67 C13.43
								 29.47 14.47 31.05 16.05 31.72 L12.75 31.72 C10.58 31.72 8.7 29.92 8.7 27.67 ZM50.92 31.72 L47.62
								 31.72 C49.2 31.05 50.25 29.47 50.25 27.67 C50.25 25.87 49.2 24.37 47.77 23.62 L50.92 23.62 C53.17
								 23.62 54.97 25.42 54.97 27.67 C54.97 29.92 53.17 31.72 50.92 31.72 Z" class="st1"/>
				</g>
				<g id="shape1041-5" v:mID="1041" v:groupContext="shape" v:layerMember="0" transform="translate(15.75,-10.65)">
					<title>Sheet.1041</title>
					<path d="M32.25 38.32 C32.25 39.52 31.28 40.5 30.15 40.5 L2.1 40.5 C0.9 40.5 0 39.45 0 38.32 C-0 37.12 0.98 36
								 2.1 36 L30.15 36 C31.28 36 32.25 37.12 32.25 38.32 Z" class="st2"/>
				</g>
				<g id="shape1042-7" v:mID="1042" v:groupContext="shape" v:layerMember="0" transform="translate(2.25,-2.25)">
					<title>Sheet.1042</title>
					<path d="M21.37 34.35 C20.25 35.47 18.67 36.22 16.95 36.22 L10.65 36.22 C7.12 36.22 4.35 33.37 4.35 29.92 C4.35
								 26.4 7.2 23.62 10.65 23.62 L16.95 23.62 C18.67 23.62 20.17 24.3 21.3 25.42 L26.4 25.42 C24.67 21.9
								 21.07 19.42 16.87 19.42 L10.57 19.42 C4.72 19.35 0 24.07 0 29.92 C0 35.77 4.72 40.5 10.57 40.5 L16.87
								 40.5 C21.07 40.5 24.75 38.02 26.4 34.42 L21.37 34.42 L21.37 34.35 Z" class="st2"/>
				</g>
				<g id="shape1043-9" v:mID="1043" v:groupContext="shape" v:layerMember="0" transform="translate(35.025,-2.4)">
					<title>Sheet.1043</title>
					<path d="M15.9 19.5 L9.6 19.5 C5.4 19.5 1.8 21.97 0.07 25.5 L5.18 25.5 C6.3 24.37 7.8 23.7 9.53 23.7 L15.83 23.7
								 C19.35 23.7 22.13 26.55 22.13 30 C22.13 33.52 19.28 36.3 15.83 36.3 L9.53 36.3 C7.8 36.3 6.22 35.55
								 5.1 34.42 L0 34.42 C1.65 38.02 5.32 40.5 9.53 40.5 L15.83 40.5 C21.68 40.5 26.4 35.77 26.4 29.92
								 C26.48 24.22 21.75 19.5 15.9 19.5 Z" class="st2"/>
				</g>
			</g>
		</g>
	</g>
</svg>
