<?xml version="1.0" encoding="UTF-8" standalone="no"?>
<!DOCTYPE svg PUBLIC "-//W3C//DTD SVG 1.1//EN" "http://www.w3.org/Graphics/SVG/1.1/DTD/svg11.dtd">
<!-- Generated by Microsoft Visio, SVG Export List; Library.svg Page-1 -->
<svg xmlns="http://www.w3.org/2000/svg" xmlns:xlink="http://www.w3.org/1999/xlink" xmlns:ev="http://www.w3.org/2001/xml-events"
		xmlns:v="http://schemas.microsoft.com/visio/2003/SVGExtensions/" width="1.01172in" height="0.953125in"
		viewBox="0 0 72.8438 68.625" xml:space="preserve" color-interpolation-filters="sRGB" class="st4">
	<v:documentProperties v:langID="4108" v:metric="true" v:viewMarkup="false"/>

	<style type="text/css">
	<![CDATA[
		.st1 {fill:#ffffff;stroke:none;stroke-linecap:butt;stroke-width:0.75}
		.st2 {fill:#515150;stroke:none;stroke-linecap:butt;stroke-width:0.75}
		.st3 {fill:#525352;stroke:none;stroke-linecap:butt;stroke-width:0.75}
		.st4 {fill:none;fill-rule:evenodd;font-size:12px;overflow:visible;stroke-linecap:square;stroke-miterlimit:3}
	]]>
	</style>

	<g v:mID="0" v:index="1" v:groupContext="foregroundPage">
		<title>Page-1</title>
		<v:pageProperties v:drawingScale="0.0393701" v:pageScale="0.0393701" v:drawingUnits="24" v:shadowOffsetX="8.50394"
				v:shadowOffsetY="-8.50394"/>
		<v:layer v:name="symbols" v:index="0"/>
		<g id="group1044-1" transform="translate(7.93125,-8.0625)" v:mID="1044" v:groupContext="group" v:layerMember="0">
			<title>List; Library</title>
			<g id="group1045-2" v:mID="1045" v:groupContext="group" v:layerMember="0">
				<title>Sheet.1045</title>
				<g id="group1046-3" transform="translate(-2.8777E-13,-8.25)" v:mID="1046" v:groupContext="group" v:layerMember="0">
					<title>Sheet.1046</title>
					<g id="shape1047-4" v:mID="1047" v:groupContext="shape" v:layerMember="0">
						<title>Sheet.1047</title>
						<path d="M5.25 68.62 C2.33 68.62 0 66.3 0 63.37 L0 29.62 C0 26.7 2.33 24.37 5.25 24.37 L48 24.37 C50.92 24.37
									 53.25 26.7 53.25 29.62 L53.25 63.37 C53.25 66.3 50.92 68.62 48 68.62 L5.25 68.62 Z"
								class="st1"/>
					</g>
					<g id="shape1048-6" v:mID="1048" v:groupContext="shape" v:layerMember="0" transform="translate(2.25,-2.25)">
						<title>Sheet.1048</title>
						<path d="M45.75 28.87 L3 28.87 C1.35 28.87 0 30.22 0 31.87 L0 65.62 C0 67.27 1.35 68.62 3 68.62 L45.75 68.62
									 C47.4 68.62 48.75 67.27 48.75 65.62 L48.75 31.87 C48.75 30.22 47.4 28.87 45.75 28.87 ZM39.75
									 31.12 L42 31.12 L42 33.37 L39.75 33.37 L39.75 31.12 ZM35.25 31.12 L37.5 31.12 L37.5 33.37 L35.25
									 33.37 L35.25 31.12 ZM25.5 36.37 L34.5 36.37 L34.5 66.37 L25.5 66.37 L25.5 36.37 ZM23.25 66.37
									 L14.25 66.37 L14.25 36.37 L23.25 36.37 L23.25 66.37 ZM2.25 65.62 L2.25 36.37 L12 36.37 L12 66.37
									 L3 66.37 C2.55 66.37 2.25 66.07 2.25 65.62 ZM46.5 65.62 C46.5 66.07 46.2 66.37 45.75 66.37 L36.75
									 66.37 L36.75 36.37 L46.5 36.37 L46.5 65.62 ZM46.5 33.37 L44.25 33.37 L44.25 31.12 L46.5 31.12
									 L46.5 33.37 Z" class="st2"/>
					</g>
				</g>
				<g id="group1049-8" transform="translate(23.25,0)" v:mID="1049" v:groupContext="group" v:layerMember="0">
					<title>Sheet.1049</title>
					<g id="shape1050-9" v:mID="1050" v:groupContext="shape" v:layerMember="0">
						<title>Sheet.1050</title>
						<path d="M29.7 37.12 L22.57 37.12 C20.92 37.12 19.95 38.02 19.05 38.85 L15.15 42.45 L4.05 42.45 C1.8 42.45
									 0 44.25 0 46.5 L0 68.62 L33.75 68.62 L33.75 45.37 L33.75 42.45 L33.75 41.4 C33.75 39.07 31.87
									 37.12 29.7 37.12 Z" class="st1"/>
					</g>
					<g id="shape1051-11" v:mID="1051" v:groupContext="shape" v:layerMember="0" transform="translate(17.775,-25.5)">
						<title>Sheet.1051</title>
						<path d="M4.8 64.87 C4.12 64.87 3.6 65.17 2.85 66 L0 68.62 L13.72 68.62 L13.72 66.82 C13.72 65.85 12.97 64.87
									 11.92 64.87 L4.8 64.87 Z" class="st3"/>
					</g>
					<g id="shape1052-13" v:mID="1052" v:groupContext="shape" v:layerMember="0" transform="translate(2.25,-2.25)">
						<title>Sheet.1052</title>
						<path d="M1.8 46.95 C0.82 46.95 0 47.77 0 48.75 L0 68.62 L29.25 68.62 L29.25 50.02 L29.25 48.67 L29.25 46.87
									 L1.8 46.87 L1.8 46.95 Z" class="st3"/>
					</g>
				</g>
			</g>
		</g>
	</g>
</svg>
