<?xml version="1.0" encoding="UTF-8" standalone="no"?>
<!DOCTYPE svg PUBLIC "-//W3C//DTD SVG 1.1//EN" "http://www.w3.org/Graphics/SVG/1.1/DTD/svg11.dtd">
<!-- Generated by Microsoft Visio, SVG Export Mailbox2.svg Page-1 -->
<svg xmlns="http://www.w3.org/2000/svg" xmlns:xlink="http://www.w3.org/1999/xlink" xmlns:ev="http://www.w3.org/2001/xml-events"
		xmlns:v="http://schemas.microsoft.com/visio/2003/SVGExtensions/" width="0.953125in" height="0.953125in"
		viewBox="0 0 68.625 68.625" xml:space="preserve" color-interpolation-filters="sRGB" class="st3">
	<v:documentProperties v:langID="4108" v:metric="true" v:viewMarkup="false"/>

	<style type="text/css">
	<![CDATA[
		.st1 {fill:#ffffff;stroke:none;stroke-linecap:butt;stroke-width:0.75}
		.st2 {fill:#515150;stroke:none;stroke-linecap:butt;stroke-width:0.75}
		.st3 {fill:none;fill-rule:evenodd;font-size:12px;overflow:visible;stroke-linecap:square;stroke-miterlimit:3}
	]]>
	</style>

	<g v:mID="0" v:index="1" v:groupContext="foregroundPage">
		<title>Page-1</title>
		<v:pageProperties v:drawingScale="0.0393701" v:pageScale="0.0393701" v:drawingUnits="24" v:shadowOffsetX="8.50394"
				v:shadowOffsetY="-8.50394"/>
		<v:layer v:name="symbols" v:index="0"/>
		<g id="group1073-1" transform="translate(5.8125,-6.9375)" v:mID="1073" v:groupContext="group" v:layerMember="0">
			<title>Mailbox2</title>
			<g id="group1074-2" v:mID="1074" v:groupContext="group" v:layerMember="0">
				<title>Sheet.1074</title>
				<g id="group1075-3" v:mID="1075" v:groupContext="group" v:layerMember="0">
					<title>Sheet.1075</title>
					<g id="group1076-4" v:mID="1076" v:groupContext="group" v:layerMember="0">
						<title>Sheet.1076</title>
						<g id="shape1077-5" v:mID="1077" v:groupContext="shape" v:layerMember="0">
							<title>Sheet.1077</title>
							<path d="M0 52.12 L0 68.62 L57 68.62 L57 52.12 L57 49.57 L56.55 47.62 L52.8 31.95 L51.75 31.95 L51.75
										 19.87 L50.25 19.87 L50.25 13.87 L6.75 13.87 L6.75 19.87 L5.25 19.87 L5.25 31.95 L4.2 31.95
										 L0.45 47.62 L0 49.57 L0 52.12 Z" class="st1"/>
						</g>
						<g id="group1078-7" transform="translate(15,-23.25)" v:mID="1078" v:groupContext="group" v:layerMember="0">
							<title>Sheet.1078</title>
							<g id="shape1079-8" v:mID="1079" v:groupContext="shape" v:layerMember="0"
									transform="translate(23.25,-11.25)">
								<title>Sheet.1079</title>
								<rect x="0" y="61.875" width="6" height="6.75" class="st2"/>
							</g>
							<g id="shape1080-10" v:mID="1080" v:groupContext="shape" v:layerMember="0"
									transform="translate(0,-5.25)">
								<title>Sheet.1080</title>
								<rect x="0" y="66.375" width="15.75" height="2.25" class="st2"/>
							</g>
							<g id="shape1081-12" v:mID="1081" v:groupContext="shape" v:layerMember="0">
								<title>Sheet.1081</title>
								<rect x="0" y="66.375" width="20.25" height="2.25" class="st2"/>
							</g>
						</g>
						<g id="shape1082-14" v:mID="1082" v:groupContext="shape" v:layerMember="0" transform="translate(9,-48.75)">
							<title>Sheet.1082</title>
							<path d="M0 64.87 L0 68.62 L2.25 68.62 L2.25 67.12 L36.75 67.12 L36.75 68.62 L39 68.62 L39 64.87 L0 64.87
										 Z" class="st2"/>
						</g>
					</g>
					<g id="shape1083-16" v:mID="1083" v:groupContext="shape" v:layerMember="0" transform="translate(2.25,-2.25)">
						<title>Sheet.1083</title>
						<path d="M48.75 36.45 L47.25 36.45 L47.25 24.37 L5.25 24.37 L5.25 36.45 L3.75 36.45 L0 52.12 L0 68.62 L52.5
									 68.62 L52.5 52.12 L48.75 36.45 ZM45 36.45 L45 52.12 L7.5 52.12 L7.5 36.45 L7.5 26.62 L45 26.62
									 L45 36.45 Z" class="st2"/>
					</g>
				</g>
				<g id="shape1084-18" v:mID="1084" v:groupContext="shape" v:layerMember="0" transform="translate(4.5,-4.5)">
					<title>Sheet.1084</title>
					<rect x="0" y="56.625" width="48" height="12" class="st1"/>
				</g>
			</g>
		</g>
	</g>
</svg>
