<?xml version="1.0" encoding="UTF-8" standalone="no"?>
<!DOCTYPE svg PUBLIC "-//W3C//DTD SVG 1.1//EN" "http://www.w3.org/Graphics/SVG/1.1/DTD/svg11.dtd">
<!-- Generated by Microsoft Visio, SVG Export Mailbox.svg Page-1 -->
<svg xmlns="http://www.w3.org/2000/svg" xmlns:xlink="http://www.w3.org/1999/xlink" xmlns:ev="http://www.w3.org/2001/xml-events"
		xmlns:v="http://schemas.microsoft.com/visio/2003/SVGExtensions/" width="0.96875in" height="0.953125in"
		viewBox="0 0 69.75 68.625" xml:space="preserve" color-interpolation-filters="sRGB" class="st3">
	<v:documentProperties v:langID="4108" v:metric="true" v:viewMarkup="false"/>

	<style type="text/css">
	<![CDATA[
		.st1 {fill:#ffffff;stroke:none;stroke-linecap:butt;stroke-width:0.75}
		.st2 {fill:#515150;stroke:none;stroke-linecap:butt;stroke-width:0.75}
		.st3 {fill:none;fill-rule:evenodd;font-size:12px;overflow:visible;stroke-linecap:square;stroke-miterlimit:3}
	]]>
	</style>

	<g v:mID="0" v:index="1" v:groupContext="foregroundPage">
		<title>Page-1</title>
		<v:pageProperties v:drawingScale="0.0393701" v:pageScale="0.0393701" v:drawingUnits="24" v:shadowOffsetX="8.50394"
				v:shadowOffsetY="-8.50394"/>
		<v:layer v:name="symbols" v:index="0"/>
		<g id="group1053-1" transform="translate(6.375,-7.6875)" v:mID="1053" v:groupContext="group" v:layerMember="0">
			<title>Mailbox</title>
			<g id="group1054-2" v:mID="1054" v:groupContext="group" v:layerMember="0">
				<title>Sheet.1054</title>
				<g id="group1055-3" v:mID="1055" v:groupContext="group" v:layerMember="0">
					<title>Sheet.1055</title>
					<g id="shape1056-4" v:mID="1056" v:groupContext="shape" v:layerMember="0">
						<title>Sheet.1056</title>
						<path d="M0 53.63 L0 68.63 L57 68.63 L57 53.63 L57 51.08 L56.55 49.13 L52.8 33.45 L51.75 33.45 L51.75 21.38
									 L50.25 21.38 L50.25 15.38 L6.75 15.38 L6.75 21.38 L5.25 21.38 L5.25 33.45 L4.2 33.45 L0.45 49.13
									 L0 51.08 L0 53.63 Z" class="st1"/>
					</g>
					<g id="group1057-6" transform="translate(15,-21.75)" v:mID="1057" v:groupContext="group" v:layerMember="0">
						<title>Sheet.1057</title>
						<g id="shape1058-7" v:mID="1058" v:groupContext="shape" v:layerMember="0"
								transform="translate(23.25,-11.25)">
							<title>Sheet.1058</title>
							<rect x="0" y="61.875" width="6" height="6.75" class="st2"/>
						</g>
						<g id="shape1059-9" v:mID="1059" v:groupContext="shape" v:layerMember="0" transform="translate(0,-5.25)">
							<title>Sheet.1059</title>
							<rect x="0" y="66.375" width="15.75" height="2.25" class="st2"/>
						</g>
						<g id="shape1060-11" v:mID="1060" v:groupContext="shape" v:layerMember="0">
							<title>Sheet.1060</title>
							<rect x="0" y="66.375" width="20.25" height="2.25" class="st2"/>
						</g>
					</g>
					<g id="shape1061-13" v:mID="1061" v:groupContext="shape" v:layerMember="0" transform="translate(9,-47.25)">
						<title>Sheet.1061</title>
						<path d="M0 64.88 L0 68.63 L2.25 68.63 L2.25 67.13 L36.75 67.13 L36.75 68.63 L39 68.63 L39 64.88 L0 64.88
									 Z" class="st2"/>
					</g>
				</g>
				<g id="shape1062-15" v:mID="1062" v:groupContext="shape" v:layerMember="0" transform="translate(2.25,-2.25)">
					<title>Sheet.1062</title>
					<path d="M48.75 37.95 L47.25 37.95 L47.25 25.88 L5.25 25.88 L5.25 37.95 L3.75 37.95 L0 53.62 L0 68.63 L52.5 68.63
								 L52.5 53.62 L48.75 37.95 ZM45 37.95 L45 53.62 L7.5 53.62 L7.5 37.95 L7.5 28.13 L45 28.13 L45 37.95
								 Z" class="st2"/>
				</g>
			</g>
		</g>
	</g>
</svg>
