<?xml version="1.0" encoding="UTF-8" standalone="no"?>
<!DOCTYPE svg PUBLIC "-//W3C//DTD SVG 1.1//EN" "http://www.w3.org/Graphics/SVG/1.1/DTD/svg11.dtd">
<!-- Generated by Microsoft Visio, SVG Export Maintenance.svg Page-1 -->
<svg xmlns="http://www.w3.org/2000/svg" xmlns:xlink="http://www.w3.org/1999/xlink" xmlns:ev="http://www.w3.org/2001/xml-events"
		xmlns:v="http://schemas.microsoft.com/visio/2003/SVGExtensions/" width="0.828125in" height="1.03125in"
		viewBox="0 0 59.625 74.25" xml:space="preserve" color-interpolation-filters="sRGB" class="st3">
	<v:documentProperties v:langID="4108" v:metric="true" v:viewMarkup="false"/>

	<style type="text/css">
	<![CDATA[
		.st1 {fill:#ffffff;stroke:none;stroke-linecap:butt;stroke-width:0.75}
		.st2 {fill:#515150;stroke:none;stroke-linecap:butt;stroke-width:0.75}
		.st3 {fill:none;fill-rule:evenodd;font-size:12px;overflow:visible;stroke-linecap:square;stroke-miterlimit:3}
	]]>
	</style>

	<g v:mID="0" v:index="1" v:groupContext="foregroundPage">
		<title>Page-1</title>
		<v:pageProperties v:drawingScale="0.0393701" v:pageScale="0.0393701" v:drawingUnits="24" v:shadowOffsetX="8.50394"
				v:shadowOffsetY="-8.50394"/>
		<v:layer v:name="symbols" v:index="0"/>
		<g id="group1095-1" transform="translate(8.42813,-6.1875)" v:mID="1095" v:groupContext="group" v:layerMember="0">
			<title>Maintenance</title>
			<g id="group1096-2" v:mID="1096" v:groupContext="group" v:layerMember="0">
				<title>Sheet.1096</title>
				<g id="shape1097-3" v:mID="1097" v:groupContext="shape" v:layerMember="0">
					<title>Sheet.1097</title>
					<path d="M3.75 74.25 C1.65 74.25 0 72.6 0 70.5 L0 50.25 C0 48.45 1.28 46.95 3 46.58 L3 27.9 L2.25 22.65 L2.25
								 13.5 L11.25 13.5 L11.25 22.65 L10.5 27.9 L10.5 46.58 C12.23 46.95 13.5 48.38 13.5 50.25 L13.5 70.5
								 C13.5 72.6 11.85 74.25 9.75 74.25 L3.75 74.25 Z" class="st1"/>
				</g>
				<g id="shape1098-5" v:mID="1098" v:groupContext="shape" v:layerMember="0" transform="translate(2.25,-2.25)">
					<title>Sheet.1098</title>
					<path d="M7.5 51 L6 51 L6 30 L6.75 24.75 L6.75 18 L2.25 18 L2.25 24.75 L3 30 L3 51 L1.58 51 C0.75 51 0 51.68
								 0 52.5 L0 72.75 C0 73.58 0.68 74.25 1.5 74.25 L5.18 74.25 L6.23 74.25 L7.5 74.25 C8.33 74.25 9 73.58
								 9 72.75 L9 52.5 C9 51.68 8.33 51 7.5 51 Z" class="st2"/>
				</g>
			</g>
			<g id="group1099-7" transform="translate(16.425,-0.075)" v:mID="1099" v:groupContext="group" v:layerMember="0">
				<title>Sheet.1099</title>
				<g id="shape1100-8" v:mID="1100" v:groupContext="shape" v:layerMember="0">
					<title>Sheet.1100</title>
					<path d="M23.02 16.5 C22.13 15.6 21.07 14.78 19.87 14.18 L18.75 13.58 L16.58 13.58 L16.58 24.38 L13.58 26.33
								 L10.57 24.38 L10.57 13.58 L8.4 13.58 L7.28 14.18 C6 14.85 4.95 15.68 4.05 16.5 C1.42 19.05 0 22.5
								 0 26.18 C0 29.85 1.42 33.3 3.97 35.85 C4.58 36.45 5.25 37.13 6.15 37.73 L6.15 66.9 C6.15 70.88 9.07
								 74.25 13.65 74.25 C15 74.25 17.4 73.5 18.75 72.15 C20.18 70.73 20.93 68.85 20.93 66.9 L20.93 37.8
								 C21.68 37.28 22.35 36.68 23.1 35.93 C25.65 33.3 27.08 29.85 27.08 26.25 C27.08 22.58 25.65 19.13
								 23.02 16.5 Z" class="st1"/>
				</g>
				<g id="shape1101-10" v:mID="1101" v:groupContext="shape" v:layerMember="0" transform="translate(1.125,-2.175)">
					<title>Sheet.1101</title>
					<path d="M7.28 38.7 L7.28 39.38 L7.28 69.15 C7.28 71.93 9.53 74.25 12.37 74.25 C15.15 74.25 17.55 71.93 17.55
								 69.15 L17.55 38.7 C18.68 38.18 19.43 37.43 20.33 36.53 C24.83 32.03 24.75 24.75 20.33 20.33 C19.5
								 19.5 18.68 18.9 17.7 18.38 L17.7 18.75 L17.7 27.75 L12.45 31.2 L7.2 27.75 L7.2 18.83 L7.2 18.38
								 C6.22 18.9 5.33 19.5 4.5 20.33 C-0 24.83 -0 32.03 4.5 36.53 C5.25 37.28 5.93 37.88 6.68 38.33 L7.28
								 38.7 ZM12.45 71.18 C11.33 71.18 10.42 70.28 10.42 69.15 C10.42 68.03 11.33 67.13 12.45 67.13 C13.57
								 67.13 14.48 68.03 14.48 69.15 C14.48 70.28 13.57 71.18 12.45 71.18 Z" class="st2"/>
				</g>
			</g>
		</g>
	</g>
</svg>
