<?xml version="1.0" encoding="UTF-8" standalone="no"?>
<!DOCTYPE svg PUBLIC "-//W3C//DTD SVG 1.1//EN" "http://www.w3.org/Graphics/SVG/1.1/DTD/svg11.dtd">
<!-- Generated by Microsoft Visio, SVG Export Marketplace, Shopping Bag.svg Page-1 -->
<svg xmlns="http://www.w3.org/2000/svg" xmlns:xlink="http://www.w3.org/1999/xlink" xmlns:ev="http://www.w3.org/2001/xml-events"
		xmlns:v="http://schemas.microsoft.com/visio/2003/SVGExtensions/" width="0.78125in" height="0.921875in"
		viewBox="0 0 56.25 66.375" xml:space="preserve" color-interpolation-filters="sRGB" class="st3">
	<v:documentProperties v:langID="4108" v:metric="true" v:viewMarkup="false"/>

	<style type="text/css">
	<![CDATA[
		.st1 {fill:#ffffff;stroke:none;stroke-linecap:butt;stroke-width:0.75}
		.st2 {fill:#505050;stroke:none;stroke-linecap:butt;stroke-width:0.75}
		.st3 {fill:none;fill-rule:evenodd;font-size:12px;overflow:visible;stroke-linecap:square;stroke-miterlimit:3}
	]]>
	</style>

	<g v:mID="0" v:index="1" v:groupContext="foregroundPage">
		<title>Page-1</title>
		<v:pageProperties v:drawingScale="0.0393701" v:pageScale="0.0393701" v:drawingUnits="24" v:shadowOffsetX="8.50394"
				v:shadowOffsetY="-8.50394"/>
		<v:layer v:name="symbols" v:index="0"/>
		<g id="group1102-1" transform="translate(7.65,-8.0625)" v:mID="1102" v:groupContext="group" v:layerMember="0">
			<title>Marketplace, Shopping Bag</title>
			<g id="shape1103-2" v:mID="1103" v:groupContext="shape" v:layerMember="0">
				<title>Sheet.1103</title>
				<path d="M0 66.37 L3.6 28.12 L10.88 28.12 L10.88 25.5 C10.88 20.33 15.07 16.12 20.25 16.12 C25.42 16.12 29.63 20.33
							 29.63 25.5 L29.63 28.12 L36.9 28.12 L40.72 66.37 L0 66.37 ZM23.62 28.12 L23.62 25.5 C23.63 23.62 22.13
							 22.13 20.25 22.13 C18.38 22.13 16.88 23.62 16.87 25.5 L16.87 28.12 L23.62 28.12 Z" class="st1"/>
			</g>
			<g id="shape1104-4" v:mID="1104" v:groupContext="shape" v:layerMember="0" transform="translate(2.475,-2.25)">
				<title>Sheet.1104</title>
				<path d="M32.4 32.62 L24.9 32.62 L24.9 27.75 C24.9 23.85 21.67 20.62 17.77 20.62 C13.87 20.63 10.65 23.85 10.65 27.75
							 L10.65 32.62 L3.15 32.62 L0 66.37 L35.77 66.37 L32.4 32.62 ZM12.15 32.62 L12.15 27.75 C12.15 24.67 14.7
							 22.12 17.77 22.12 C20.85 22.12 23.4 24.67 23.4 27.75 L23.4 32.62 L12.15 32.62 Z" class="st2"/>
			</g>
		</g>
	</g>
</svg>
