<?xml version="1.0" encoding="UTF-8" standalone="no"?>
<!DOCTYPE svg PUBLIC "-//W3C//DTD SVG 1.1//EN" "http://www.w3.org/Graphics/SVG/1.1/DTD/svg11.dtd">
<!-- Generated by Microsoft Visio, SVG Export Meets Requirements.svg Page-1 -->
<svg xmlns="http://www.w3.org/2000/svg" xmlns:xlink="http://www.w3.org/1999/xlink" xmlns:ev="http://www.w3.org/2001/xml-events"
		xmlns:v="http://schemas.microsoft.com/visio/2003/SVGExtensions/" width="0.921875in" height="0.96875in"
		viewBox="0 0 66.375 69.75" xml:space="preserve" color-interpolation-filters="sRGB" class="st3">
	<v:documentProperties v:langID="4108" v:metric="true" v:viewMarkup="false"/>

	<style type="text/css">
	<![CDATA[
		.st1 {fill:#ffffff;stroke:none;stroke-linecap:butt;stroke-width:0.75}
		.st2 {fill:#515150;stroke:none;stroke-linecap:butt;stroke-width:0.75}
		.st3 {fill:none;fill-rule:evenodd;font-size:12px;overflow:visible;stroke-linecap:square;stroke-miterlimit:3}
	]]>
	</style>

	<g v:mID="0" v:index="1" v:groupContext="foregroundPage">
		<title>Page-1</title>
		<v:pageProperties v:drawingScale="0.0393701" v:pageScale="0.0393701" v:drawingUnits="24" v:shadowOffsetX="8.50394"
				v:shadowOffsetY="-8.50394"/>
		<v:layer v:name="symbols" v:index="0"/>
		<g id="group1105-1" transform="translate(2.475,-4.3125)" v:mID="1105" v:groupContext="group" v:layerMember="0">
			<title>Meets Requirements</title>
			<g id="group1106-2" transform="translate(0,-4.5)" v:mID="1106" v:groupContext="group" v:layerMember="0">
				<title>Sheet.1106</title>
				<g id="shape1107-3" v:mID="1107" v:groupContext="shape" v:layerMember="0">
					<title>Sheet.1107</title>
					<path d="M8.17 69.75 C8.17 69.75 8.17 69.75 8.17 69.75 L8.4 69.75 L39.38 69.75 C44.02 69.38 47.63 65.48 47.62
								 60.83 L47.62 32.25 L48.37 32.25 L48.98 32.25 C53.25 32.1 56.62 28.65 56.62 24.38 C56.62 20.1 53.17
								 16.58 48.9 16.5 L48.82 16.5 L16.87 16.5 C11.93 16.5 7.88 20.55 7.87 25.5 L7.87 53.25 C3.52 53.48
								 0 57.08 0 61.5 C0 65.78 3.3 69.3 7.5 69.68 L8.17 69.75 Z" class="st1"/>
				</g>
				<g id="shape1108-5" v:mID="1108" v:groupContext="shape" v:layerMember="0" transform="translate(47.625,-39.375)">
					<title>Sheet.1108</title>
					<path d="M6.23 60.45 L3.9 60.45 C1.73 60.45 0 62.18 0 64.35 L0 69.75 L0.82 69.75 C4.28 69.75 7.05 66.98 7.05
								 63.53 C7.05 62.4 6.75 61.35 6.23 60.45 Z" class="st2"/>
				</g>
				<g id="shape1109-7" v:mID="1109" v:groupContext="shape" v:layerMember="0" transform="translate(10.125,-2.175)">
					<title>Sheet.1109</title>
					<path d="M35.25 26.78 C35.4 23.93 37.57 21.53 40.42 21.15 C40.42 21.15 40.5 21.15 40.5 21.15 C40.05 21 39.52
								 21 39.07 21 C38.92 21 38.85 21 38.77 21 C38.77 21 38.7 21 38.7 21 L36.75 21 L34.5 21 L13.12 21 L6.75
								 21 C3 21 0 24 0 27.75 L0 55.43 L25.5 55.43 C26.55 55.43 27.38 56.33 27.38 57.38 C27.38 58.13 26.92
								 58.43 26.92 58.43 C24.98 59.4 23.62 61.43 23.62 63.75 C23.62 66.98 26.18 69.6 29.4 69.75 C32.7 69.3
								 35.25 66.53 35.32 63.08 L35.32 26.78 L35.25 26.78 Z" class="st2"/>
				</g>
				<g id="shape1110-9" v:mID="1110" v:groupContext="shape" v:layerMember="0" transform="translate(2.175,-2.25)">
					<title>Sheet.1110</title>
					<path d="M31.87 69.75 C30.3 68.25 29.32 66.15 29.32 63.75 C29.32 61.43 30.3 59.33 31.87 57.75 L6 57.75 C2.7 57.75
								 0 60.45 0 63.75 C-0 67.05 2.7 69.75 6 69.75 L31.87 69.75 Z" class="st2"/>
				</g>
			</g>
			<g id="group1111-11" transform="translate(28.125,0)" v:mID="1111" v:groupContext="group" v:layerMember="0">
				<title>Sheet.1111</title>
				<g id="shape1112-12" v:mID="1112" v:groupContext="shape" v:layerMember="0">
					<title>Sheet.1112</title>
					<path d="M16.13 69.75 C7.2 69.75 0 62.55 0 53.63 C0 44.7 7.2 37.5 16.13 37.5 C25.05 37.5 32.25 44.7 32.25 53.63
								 C32.25 62.55 25.05 69.75 16.13 69.75 Z" class="st1"/>
				</g>
				<g id="shape1113-14" v:mID="1113" v:groupContext="shape" v:layerMember="0" transform="translate(2.25,-2.25)">
					<title>Sheet.1113</title>
					<path d="M13.88 42 C6.22 42 0 48.23 0 55.88 C0 63.53 6.22 69.75 13.88 69.75 C21.53 69.75 27.75 63.53 27.75 55.88
								 C27.75 48.23 21.53 42 13.88 42 ZM22.57 50.18 L11.92 63.75 L5.4 56.33 C5.25 56.1 5.25 55.8 5.4 55.65
								 L7.13 54.08 C7.27 53.93 7.57 53.93 7.8 54.15 L11.92 58.65 L19.95 48 C20.1 47.78 20.4 47.78 20.62
								 47.93 L22.43 49.43 C22.73 49.65 22.73 49.95 22.57 50.18 Z" class="st2"/>
				</g>
			</g>
		</g>
	</g>
</svg>
