<?xml version="1.0" encoding="UTF-8" standalone="no"?>
<!DOCTYPE svg PUBLIC "-//W3C//DTD SVG 1.1//EN" "http://www.w3.org/Graphics/SVG/1.1/DTD/svg11.dtd">
<!-- Generated by Microsoft Visio, SVG Export Migration.svg Page-1 -->
<svg xmlns="http://www.w3.org/2000/svg" xmlns:xlink="http://www.w3.org/1999/xlink" xmlns:ev="http://www.w3.org/2001/xml-events"
		xmlns:v="http://schemas.microsoft.com/visio/2003/SVGExtensions/" width="1.125in" height="0.765625in"
		viewBox="0 0 81 55.125" xml:space="preserve" color-interpolation-filters="sRGB" class="st5">
	<v:documentProperties v:langID="4108" v:metric="true" v:viewMarkup="false"/>

	<style type="text/css">
	<![CDATA[
		.st1 {fill:#ffffff}
		.st2 {stroke:none;stroke-linecap:butt;stroke-width:0.75}
		.st3 {fill:#515050;stroke:none;stroke-linecap:butt;stroke-width:0.75}
		.st4 {fill:#ffffff;stroke:none;stroke-linecap:butt;stroke-width:0.75}
		.st5 {fill:none;fill-rule:evenodd;font-size:12px;overflow:visible;stroke-linecap:square;stroke-miterlimit:3}
	]]>
	</style>

	<g v:mID="0" v:index="1" v:groupContext="foregroundPage">
		<title>Page-1</title>
		<v:pageProperties v:drawingScale="0.0393701" v:pageScale="0.0393701" v:drawingUnits="24" v:shadowOffsetX="8.50394"
				v:shadowOffsetY="-8.50394"/>
		<v:layer v:name="symbols" v:index="0"/>
		<g id="group1114-1" transform="translate(8.87812,-8.0625)" v:mID="1114" v:groupContext="group" v:layerMember="0">
			<title>Migration</title>
			<g id="shape1115-2" v:mID="1115" v:groupContext="shape" v:layerMember="0">
				<title>Sheet.1115</title>
				<path d="M63.75 27.23 L52.65 16.13 L32.25 16.13 L32.25 26.48 L21.9 16.13 L0 16.13 L0 55.13 L32.25 55.13 L63.75 55.13
							 L63.75 27.23 Z" class="st1"/>
				<path d="M63.75 27.23 L52.65 16.13 L32.25 16.13 L32.25 26.48 L21.9 16.13 L0 16.13 L0 55.13 L32.25 55.13 L63.75 55.13"
						class="st2"/>
			</g>
			<g id="shape1116-5" v:mID="1116" v:groupContext="shape" v:layerMember="0" transform="translate(2.25,-2.25)">
				<title>Sheet.1116</title>
				<path d="M27.75 55.13 L27.75 29.63 L18.75 20.63 L0 20.63 L0 55.13 L27.75 55.13 ZM2.25 52.88 L2.25 22.88 L17.25 22.88
							 L17.25 31.88 L25.5 31.88 L25.5 52.88 L2.25 52.88 Z" class="st3"/>
			</g>
			<g id="shape1117-7" v:mID="1117" v:groupContext="shape" v:layerMember="0" transform="translate(34.5,-2.25)">
				<title>Sheet.1117</title>
				<path d="M15 20.63 L0 20.63 L0 55.13 L27 55.13 L27 32.63 L15 32.63 L15 20.63 Z" class="st3"/>
			</g>
			<g id="shape1118-9" v:mID="1118" v:groupContext="shape" v:layerMember="0" transform="translate(51.75,-27)">
				<title>Sheet.1118</title>
				<path d="M0 45.38 L0 55.13 L9.75 55.13 L0 45.38 Z" class="st3"/>
			</g>
			<g id="group1119-11" transform="translate(17.25,-6.75)" v:mID="1119" v:groupContext="group" v:layerMember="0">
				<title>Sheet.1119</title>
				<g id="shape1120-12" v:mID="1120" v:groupContext="shape" v:layerMember="0">
					<title>Sheet.1120</title>
					<path d="M21.98 34.13 L12.75 34.13 L12.75 37.28 L15.53 40.13 L0 40.13 L0 49.13 L15.53 49.13 L12.75 51.98 L12.75
								 55.13 L21.98 55.13 L32.25 44.63 L21.98 34.13 Z" class="st4"/>
				</g>
				<g id="shape1121-14" v:mID="1121" v:groupContext="shape" v:layerMember="0" transform="translate(2.25,-2.25)">
					<title>Sheet.1121</title>
					<path d="M12.75 55.13 L18.75 55.13 L26.85 46.88 L18.75 38.63 L12.75 38.63 L18.6 44.63 L0 44.63 L0 49.13 L18.6
								 49.13 L12.75 55.13 Z" class="st3"/>
				</g>
			</g>
		</g>
	</g>
</svg>
