<?xml version="1.0" encoding="UTF-8" standalone="no"?>
<!DOCTYPE svg PUBLIC "-//W3C//DTD SVG 1.1//EN" "http://www.w3.org/Graphics/SVG/1.1/DTD/svg11.dtd">
<!-- Generated by Microsoft Visio, SVG Export MOEs.svg Page-1 -->
<svg xmlns="http://www.w3.org/2000/svg" xmlns:xlink="http://www.w3.org/1999/xlink" xmlns:ev="http://www.w3.org/2001/xml-events"
		xmlns:v="http://schemas.microsoft.com/visio/2003/SVGExtensions/" width="0.828125in" height="0.921875in"
		viewBox="0 0 59.625 66.375" xml:space="preserve" color-interpolation-filters="sRGB" class="st3">
	<v:documentProperties v:langID="4108" v:metric="true" v:viewMarkup="false"/>

	<style type="text/css">
	<![CDATA[
		.st1 {fill:#ffffff;stroke:none;stroke-linecap:butt;stroke-width:0.75}
		.st2 {fill:#515050;stroke:none;stroke-linecap:butt;stroke-width:0.75}
		.st3 {fill:none;fill-rule:evenodd;font-size:12px;overflow:visible;stroke-linecap:square;stroke-miterlimit:3}
	]]>
	</style>

	<g v:mID="0" v:index="1" v:groupContext="foregroundPage">
		<title>Page-1</title>
		<v:pageProperties v:drawingScale="0.0393701" v:pageScale="0.0393701" v:drawingUnits="24" v:shadowOffsetX="8.50394"
				v:shadowOffsetY="-8.50394"/>
		<v:layer v:name="symbols" v:index="0"/>
		<g id="group1122-1" transform="translate(7.60312,-7.3125)" v:mID="1122" v:groupContext="group" v:layerMember="0">
			<title>MOEs</title>
			<g id="group1123-2" v:mID="1123" v:groupContext="group" v:layerMember="0">
				<title>Sheet.1123</title>
				<g id="group1124-3" v:mID="1124" v:groupContext="group" v:layerMember="0">
					<title>Sheet.1124</title>
					<g id="shape1125-4" v:mID="1125" v:groupContext="shape" v:layerMember="0">
						<title>Sheet.1125</title>
						<path d="M0 66.38 L0 14.63 L30.9 14.63 L44.25 27.98 L44.25 66.38 L0 66.38 Z" class="st1"/>
					</g>
					<g id="shape1126-6" v:mID="1126" v:groupContext="shape" v:layerMember="0" transform="translate(2.25,-2.25)">
						<title>Sheet.1126</title>
						<path d="M39.75 66.38 L39.75 31.13 L27.75 19.13 L0 19.13 L0 66.38 L39.75 66.38 ZM2.25 64.13 L2.25 21.38 L26.25
									 21.38 L26.25 33.38 L37.5 33.38 L37.5 64.13 L2.25 64.13 Z" class="st2"/>
					</g>
				</g>
				<g id="group1127-8" transform="translate(8.25,-16.95)" v:mID="1127" v:groupContext="group" v:layerMember="0">
					<title>Sheet.1127</title>
					<g id="shape1128-9" v:mID="1128" v:groupContext="shape" v:layerMember="0" transform="translate(6,-4.125)">
						<title>Sheet.1128</title>
						<path d="M15.83 65.4 C15.83 65.93 15.38 66.38 14.85 66.38 L0.98 66.38 C0.45 66.38 0 65.93 0 65.4 C-0 64.88
									 0.45 64.43 0.98 64.43 L14.85 64.43 C15.38 64.43 15.83 64.88 15.83 65.4 Z" class="st2"/>
					</g>
					<g id="group1129-11" v:mID="1129" v:groupContext="group" v:layerMember="0">
						<title>Sheet.1129</title>
						<g id="shape1130-12" v:mID="1130" v:groupContext="shape" v:layerMember="0"
								transform="translate(-1.38889E-13,-0.15)">
							<title>Sheet.1130</title>
							<path d="M7.95 64.43 L4.95 64.43 C3.3 64.43 1.95 63.08 1.95 61.43 C1.95 59.78 3.3 58.43 4.95 58.43 L7.95
										 58.43 C8.85 58.43 9.6 58.8 10.13 59.4 L12.45 59.4 C11.7 57.68 9.98 56.4 7.95 56.4 L4.95
										 56.4 C2.25 56.48 0 58.73 0 61.43 C0 64.13 2.25 66.38 4.95 66.38 L7.95 66.38 C9.98 66.38
										 11.7 65.18 12.45 63.38 L10.13 63.38 C9.6 63.98 8.85 64.43 7.95 64.43 Z" class="st2"/>
						</g>
						<g id="shape1131-14" v:mID="1131" v:groupContext="shape" v:layerMember="0"
								transform="translate(15.3,-4.26326E-14)">
							<title>Sheet.1131</title>
							<path d="M7.5 56.33 L4.5 56.33 C2.47 56.33 0.75 57.53 0 59.33 L2.33 59.33 C2.85 58.73 3.68 58.35 4.5
										 58.35 L7.5 58.35 C9.15 58.35 10.5 59.7 10.5 61.35 C10.5 63 9.15 64.35 7.5 64.35 L4.5 64.35
										 C3.6 64.35 2.85 63.98 2.33 63.38 L0 63.38 C0.75 65.1 2.47 66.38 4.5 66.38 L7.5 66.38 C10.2
										 66.38 12.45 64.13 12.45 61.43 C12.45 58.58 10.2 56.33 7.5 56.33 Z" class="st2"/>
						</g>
					</g>
				</g>
			</g>
		</g>
	</g>
</svg>
