<?xml version="1.0" encoding="UTF-8" standalone="no"?>
<!DOCTYPE svg PUBLIC "-//W3C//DTD SVG 1.1//EN" "http://www.w3.org/Graphics/SVG/1.1/DTD/svg11.dtd">
<!-- Generated by Microsoft Visio, SVG Export Navigation.svg Page-1 -->
<svg xmlns="http://www.w3.org/2000/svg" xmlns:xlink="http://www.w3.org/1999/xlink" xmlns:ev="http://www.w3.org/2001/xml-events"
		xmlns:v="http://schemas.microsoft.com/visio/2003/SVGExtensions/" width="1.01172in" height="0.828125in"
		viewBox="0 0 72.8437 59.625" xml:space="preserve" color-interpolation-filters="sRGB" class="st3">
	<v:documentProperties v:langID="4108" v:metric="true" v:viewMarkup="false"/>

	<style type="text/css">
	<![CDATA[
		.st1 {fill:#ffffff;stroke:none;stroke-linecap:butt;stroke-width:0.75}
		.st2 {fill:#515150;stroke:none;stroke-linecap:butt;stroke-width:0.75}
		.st3 {fill:none;fill-rule:evenodd;font-size:12px;overflow:visible;stroke-linecap:square;stroke-miterlimit:3}
	]]>
	</style>

	<g v:mID="0" v:index="1" v:groupContext="foregroundPage">
		<title>Page-1</title>
		<v:pageProperties v:drawingScale="0.0393701" v:pageScale="0.0393701" v:drawingUnits="24" v:shadowOffsetX="8.50394"
				v:shadowOffsetY="-8.50394"/>
		<v:layer v:name="symbols" v:index="0"/>
		<g id="group1132-1" transform="translate(7.54688,-7.3125)" v:mID="1132" v:groupContext="group" v:layerMember="0">
			<title>Navigation</title>
			<g id="group1133-2" v:mID="1133" v:groupContext="group" v:layerMember="0">
				<title>Sheet.1133</title>
				<g id="shape1134-3" v:mID="1134" v:groupContext="shape" v:layerMember="0">
					<title>Sheet.1134</title>
					<path d="M5.25 59.62 C2.32 59.62 0 57.3 0 54.37 L0 19.88 C0 16.95 2.32 14.62 5.25 14.62 L52.5 14.62 C55.42 14.63
								 57.75 16.95 57.75 19.88 L57.75 54.37 C57.75 57.3 55.42 59.62 52.5 59.62 L5.25 59.62 Z" class="st1"/>
				</g>
				<g id="shape1135-5" v:mID="1135" v:groupContext="shape" v:layerMember="0" transform="translate(2.25,-2.25)">
					<title>Sheet.1135</title>
					<path d="M50.25 19.12 L3 19.12 C1.35 19.13 0 20.47 0 22.12 L0 56.62 C0 58.28 1.35 59.62 3 59.62 L50.25 59.62
								 C51.9 59.62 53.25 58.28 53.25 56.62 L53.25 22.12 C53.25 20.47 51.9 19.13 50.25 19.12 ZM44.25 21.38
								 L46.5 21.38 L46.5 23.62 L44.25 23.62 L44.25 21.38 ZM39.75 21.38 L42 21.38 L42 23.62 L39.75 23.62
								 L39.75 21.38 ZM51 56.62 C51 57.07 50.7 57.37 50.25 57.37 L3 57.37 C2.55 57.37 2.25 57.07 2.25 56.62
								 L2.25 26.63 L51 26.63 L51 56.62 ZM51 23.62 L48.75 23.62 L48.75 21.38 L51 21.38 L51 23.62 Z"
							class="st2"/>
				</g>
			</g>
			<g id="shape1136-7" v:mID="1136" v:groupContext="shape" v:layerMember="0" transform="translate(3.75,-25.5)">
				<title>Sheet.1136</title>
				<rect x="0" y="57.375" width="50.25" height="2.25" class="st2"/>
			</g>
			<g id="shape1137-9" v:mID="1137" v:groupContext="shape" v:layerMember="0" transform="translate(18,-3.75)">
				<title>Sheet.1137</title>
				<rect x="0" y="37.125" width="2.25" height="22.5" class="st2"/>
			</g>
			<g id="shape1138-11" v:mID="1138" v:groupContext="shape" v:layerMember="0" transform="translate(8.25,-30)">
				<title>Sheet.1138</title>
				<rect x="0" y="56.625" width="3" height="3" class="st2"/>
			</g>
			<g id="shape1139-13" v:mID="1139" v:groupContext="shape" v:layerMember="0" transform="translate(14.25,-30)">
				<title>Sheet.1139</title>
				<rect x="0" y="56.625" width="3" height="3" class="st2"/>
			</g>
			<g id="shape1140-15" v:mID="1140" v:groupContext="shape" v:layerMember="0" transform="translate(20.25,-30)">
				<title>Sheet.1140</title>
				<rect x="0" y="56.625" width="3" height="3" class="st2"/>
			</g>
			<g id="shape1141-17" v:mID="1141" v:groupContext="shape" v:layerMember="0" transform="translate(26.25,-30)">
				<title>Sheet.1141</title>
				<rect x="0" y="56.625" width="3" height="3" class="st2"/>
			</g>
			<g id="shape1142-19" v:mID="1142" v:groupContext="shape" v:layerMember="0" transform="translate(32.25,-30)">
				<title>Sheet.1142</title>
				<rect x="0" y="56.625" width="3" height="3" class="st2"/>
			</g>
			<g id="group1143-21" transform="translate(6.75,-7.5)" v:mID="1143" v:groupContext="group" v:layerMember="0">
				<title>Sheet.1143</title>
				<g id="shape1144-22" v:mID="1144" v:groupContext="shape" v:layerMember="0" transform="translate(0,-13.5)">
					<title>Sheet.1144</title>
					<rect x="0" y="58.125" width="8.25" height="1.5" class="st2"/>
				</g>
				<g id="shape1145-24" v:mID="1145" v:groupContext="shape" v:layerMember="0" transform="translate(3,-9)">
					<title>Sheet.1145</title>
					<rect x="0" y="58.125" width="5.25" height="1.5" class="st2"/>
				</g>
				<g id="shape1146-26" v:mID="1146" v:groupContext="shape" v:layerMember="0" transform="translate(3,-4.5)">
					<title>Sheet.1146</title>
					<rect x="0" y="58.125" width="5.25" height="1.5" class="st2"/>
				</g>
				<g id="shape1147-28" v:mID="1147" v:groupContext="shape" v:layerMember="0">
					<title>Sheet.1147</title>
					<rect x="0" y="58.125" width="8.25" height="1.5" class="st2"/>
				</g>
			</g>
		</g>
	</g>
</svg>
