<?xml version="1.0" encoding="UTF-8" standalone="no"?>
<!DOCTYPE svg PUBLIC "-//W3C//DTD SVG 1.1//EN" "http://www.w3.org/Graphics/SVG/1.1/DTD/svg11.dtd">
<!-- Generated by Microsoft Visio, SVG Export Node, Generic - ghosted.svg Page-1 -->
<svg xmlns="http://www.w3.org/2000/svg" xmlns:xlink="http://www.w3.org/1999/xlink" xmlns:ev="http://www.w3.org/2001/xml-events"
		xmlns:v="http://schemas.microsoft.com/visio/2003/SVGExtensions/" width="0.921875in" height="1.01563in"
		viewBox="0 0 66.375 73.125" xml:space="preserve" color-interpolation-filters="sRGB" class="st4">
	<v:documentProperties v:langID="4108" v:metric="true" v:viewMarkup="false"/>

	<style type="text/css">
	<![CDATA[
		.st1 {fill:#ffffff;stroke:none;stroke-linecap:butt;stroke-width:0.75}
		.st2 {fill:#9b9b9b;stroke:none;stroke-linecap:butt;stroke-width:0.75}
		.st3 {fill:#cccbcb;stroke:none;stroke-linecap:butt;stroke-width:0.75}
		.st4 {fill:none;fill-rule:evenodd;font-size:12px;overflow:visible;stroke-linecap:square;stroke-miterlimit:3}
	]]>
	</style>

	<g v:mID="0" v:index="1" v:groupContext="foregroundPage">
		<title>Page-1</title>
		<v:pageProperties v:drawingScale="0.0393701" v:pageScale="0.0393701" v:drawingUnits="24" v:shadowOffsetX="8.50394"
				v:shadowOffsetY="-8.50394"/>
		<v:layer v:name="symbols" v:index="0"/>
		<g id="group1172-1" transform="translate(8.20313,-7.6875)" v:mID="1172" v:groupContext="group" v:layerMember="0">
			<title>Node, Generic - ghosted</title>
			<g id="group1173-2" v:mID="1173" v:groupContext="group" v:layerMember="0">
				<title>Sheet.1173</title>
				<g id="group1174-3" v:mID="1174" v:groupContext="group" v:layerMember="0">
					<title>Sheet.1174</title>
					<g id="shape1175-4" v:mID="1175" v:groupContext="shape" v:layerMember="0">
						<title>Sheet.1175</title>
						<path d="M25.12 73.13 L50.25 58.58 L50.25 29.93 L25.12 15.38 L0 29.85 L0 58.58 L25.12 73.13 Z" class="st1"/>
					</g>
					<g id="shape1176-6" v:mID="1176" v:groupContext="shape" v:layerMember="0" transform="translate(4.05,-30.75)">
						<title>Sheet.1176</title>
						<path d="M0 60.9 L21.08 48.68 L42.07 60.9 L21.08 73.13 L0 60.9 Z" class="st2"/>
					</g>
					<g id="shape1177-8" v:mID="1177" v:groupContext="shape" v:layerMember="0" transform="translate(2.25,-3.225)">
						<title>Sheet.1177</title>
						<path d="M0 60.53 L0 35.25 L21.75 47.85 L21.75 73.13 L0 60.53 Z" class="st2"/>
					</g>
					<g id="shape1178-10" v:mID="1178" v:groupContext="shape" v:layerMember="0" transform="translate(26.25,-3.225)">
						<title>Sheet.1178</title>
						<path d="M0 47.7 L21.75 35.1 L21.75 60.53 L0 73.13 L0 47.7 Z" class="st2"/>
					</g>
				</g>
				<g id="group1179-12" transform="translate(2.25,-3.225)" v:mID="1179" v:groupContext="group" v:layerMember="0">
					<title>Sheet.1179</title>
					<g id="shape1180-13" v:mID="1180" v:groupContext="shape" v:layerMember="0" transform="translate(1.8,-39.675)">
						<title>Sheet.1180</title>
						<path d="M0.07 73.13 L0.37 72.83 L0 73.05 L0.07 73.13 Z" class="st3"/>
					</g>
					<g id="shape1181-15" v:mID="1181" v:groupContext="shape" v:layerMember="0"
							transform="translate(-4.52763E-16,-37.725)">
						<title>Sheet.1181</title>
						<path d="M0.08 73.05 L0 72.98 L0 73.13 L0.08 73.05 Z" class="st3"/>
					</g>
					<g id="shape1182-17" v:mID="1182" v:groupContext="shape" v:layerMember="0" transform="translate(3.375,-38.025)">
						<title>Sheet.1182</title>
						<path d="M1.35 73.13 L9.23 65.1 L4.28 68.03 L0 72.3 L1.35 73.13 Z" class="st3"/>
					</g>
					<g id="shape1183-19" v:mID="1183" v:groupContext="shape" v:layerMember="0" transform="translate(0,-33.225)">
						<title>Sheet.1183</title>
						<path d="M2.92 70.13 L1.57 69.38 L0 70.95 L0 73.13 L2.92 70.13 Z" class="st3"/>
					</g>
					<g id="shape1184-21" v:mID="1184" v:groupContext="shape" v:layerMember="0" transform="translate(6.225,-36.375)">
						<title>Sheet.1184</title>
						<path d="M1.35 73.13 L16.72 57.6 L16.65 57.53 L12 60.23 L0 72.3 L1.35 73.13 Z" class="st3"/>
					</g>
					<g id="shape1185-23" v:mID="1185" v:groupContext="shape" v:layerMember="0"
							transform="translate(4.64628E-14,-28.725)">
						<title>Sheet.1185</title>
						<path d="M4.42 66.53 L0 70.95 L0 73.13 L5.77 67.28 L4.42 66.53 Z" class="st3"/>
					</g>
					<g id="shape1186-25" v:mID="1186" v:groupContext="shape" v:layerMember="0" transform="translate(9.075,-34.725)">
						<title>Sheet.1186</title>
						<path d="M1.35 73.13 L16.72 57.6 L15.37 56.78 L0 72.3 L1.35 73.13 Z" class="st3"/>
					</g>
					<g id="shape1187-27" v:mID="1187" v:groupContext="shape" v:layerMember="0" transform="translate(0,-24.225)">
						<title>Sheet.1187</title>
						<path d="M8.55 64.43 L7.2 63.68 L0 70.95 L0 73.13 L8.55 64.43 Z" class="st3"/>
					</g>
					<g id="shape1188-29" v:mID="1188" v:groupContext="shape" v:layerMember="0"
							transform="translate(11.925,-33.075)">
						<title>Sheet.1188</title>
						<path d="M0 72.3 L1.35 73.13 L16.72 57.6 L15.37 56.78 L0 72.3 Z" class="st3"/>
					</g>
					<g id="shape1189-31" v:mID="1189" v:groupContext="shape" v:layerMember="0"
							transform="translate(2.27818E-13,-19.725)">
						<title>Sheet.1189</title>
						<path d="M10.05 60.83 L0 70.95 L0 73.13 L11.4 61.58 L10.05 60.83 Z" class="st3"/>
					</g>
					<g id="shape1190-33" v:mID="1190" v:groupContext="shape" v:layerMember="0"
							transform="translate(14.775,-31.425)">
						<title>Sheet.1190</title>
						<path d="M1.35 73.13 L16.72 57.6 L15.37 56.78 L0 72.3 L1.35 73.13 Z" class="st3"/>
					</g>
					<g id="shape1191-35" v:mID="1191" v:groupContext="shape" v:layerMember="0"
							transform="translate(-2.29816E-13,-15.225)">
						<title>Sheet.1191</title>
						<path d="M14.25 58.73 L12.9 57.98 L0 70.95 L0 73.13 L14.25 58.73 Z" class="st3"/>
					</g>
					<g id="shape1192-37" v:mID="1192" v:groupContext="shape" v:layerMember="0"
							transform="translate(17.625,-29.775)">
						<title>Sheet.1192</title>
						<path d="M0 72.3 L1.27 73.13 L16.72 57.6 L15.37 56.85 L0 72.3 Z" class="st3"/>
					</g>
					<g id="shape1193-39" v:mID="1193" v:groupContext="shape" v:layerMember="0" transform="translate(0,-11.925)">
						<title>Sheet.1193</title>
						<path d="M15.75 56.33 L0 72.15 L0 72.45 L1.2 73.13 L17.1 57.08 L15.75 56.33 Z" class="st3"/>
					</g>
					<g id="shape1194-41" v:mID="1194" v:groupContext="shape" v:layerMember="0"
							transform="translate(20.475,-28.125)">
						<title>Sheet.1194</title>
						<path d="M0 72.3 L1.27 73.13 L16.72 57.6 L15.37 56.85 L0 72.3 Z" class="st3"/>
					</g>
					<g id="shape1195-43" v:mID="1195" v:groupContext="shape" v:layerMember="0" transform="translate(2.7,-10.275)">
						<title>Sheet.1195</title>
						<path d="M15.9 56.33 L0 72.38 L1.35 73.13 L17.25 57.08 L15.9 56.33 Z" class="st3"/>
					</g>
					<g id="shape1196-45" v:mID="1196" v:groupContext="shape" v:layerMember="0" transform="translate(5.475,-8.625)">
						<title>Sheet.1196</title>
						<path d="M16.27 58.13 L16.27 56.48 L15.97 56.33 L0 72.38 L1.35 73.13 L16.27 58.13 Z" class="st3"/>
					</g>
					<g id="shape1197-47" v:mID="1197" v:groupContext="shape" v:layerMember="0"
							transform="translate(24.375,-28.425)">
						<title>Sheet.1197</title>
						<path d="M5.03 70.2 L15.67 59.55 L14.32 58.8 L0 73.13 L5.03 70.2 Z" class="st3"/>
					</g>
					<g id="shape1198-49" v:mID="1198" v:groupContext="shape" v:layerMember="0" transform="translate(35.1,-34.65)">
						<title>Sheet.1198</title>
						<path d="M0 73.13 L5.03 70.2 L7.8 67.43 L6.45 66.68 L0 73.13 Z" class="st3"/>
					</g>
					<g id="shape1199-51" v:mID="1199" v:groupContext="shape" v:layerMember="0" transform="translate(8.325,-6.975)">
						<title>Sheet.1199</title>
						<path d="M1.35 73.13 L13.43 60.98 L13.43 58.88 L0 72.38 L1.35 73.13 Z" class="st3"/>
					</g>
					<g id="shape1200-53" v:mID="1200" v:groupContext="shape" v:layerMember="0" transform="translate(24,-21.375)">
						<title>Sheet.1200</title>
						<path d="M9.53 63.53 L4.5 66.45 L0 71.03 L0 73.13 L9.53 63.53 Z" class="st3"/>
					</g>
					<g id="shape1201-55" v:mID="1201" v:groupContext="shape" v:layerMember="0" transform="translate(11.175,-5.325)">
						<title>Sheet.1201</title>
						<path d="M10.58 61.73 L0 72.3 L1.35 73.13 L10.58 63.83 L10.58 61.73 Z" class="st3"/>
					</g>
					<g id="shape1202-57" v:mID="1202" v:groupContext="shape" v:layerMember="0" transform="translate(24,-16.875)">
						<title>Sheet.1202</title>
						<path d="M15.07 55.8 L0 71.03 L0 73.13 L20.1 52.95 L15.07 55.8 Z" class="st3"/>
					</g>
					<g id="shape1203-59" v:mID="1203" v:groupContext="shape" v:layerMember="0" transform="translate(24,-12.375)">
						<title>Sheet.1203</title>
						<path d="M21.75 51.3 L21.75 49.13 L0 71.03 L0 73.13 L21.75 51.3 Z" class="st3"/>
					</g>
					<g id="shape1204-61" v:mID="1204" v:groupContext="shape" v:layerMember="0" transform="translate(14.025,-3.675)">
						<title>Sheet.1204</title>
						<path d="M7.72 66.68 L7.72 64.58 L0 72.3 L1.35 73.13 L7.72 66.68 Z" class="st3"/>
					</g>
					<g id="shape1205-63" v:mID="1205" v:groupContext="shape" v:layerMember="0" transform="translate(17.1,-1.95)">
						<title>Sheet.1205</title>
						<path d="M4.65 67.65 L0 72.38 L1.35 73.13 L4.65 69.75 L4.65 67.65 Z" class="st3"/>
					</g>
					<g id="shape1206-65" v:mID="1206" v:groupContext="shape" v:layerMember="0" transform="translate(24,-7.575)">
						<title>Sheet.1206</title>
						<path d="M0 70.95 L0 73.13 L21.75 51.08 L21.75 48.98 L0 70.95 Z" class="st3"/>
					</g>
					<g id="shape1207-67" v:mID="1207" v:groupContext="shape" v:layerMember="0" transform="translate(19.875,-0.3)">
						<title>Sheet.1207</title>
						<path d="M1.87 72.6 L1.87 70.5 L0 72.38 L1.35 73.13 L1.87 72.6 Z" class="st3"/>
					</g>
					<g id="shape1208-69" v:mID="1208" v:groupContext="shape" v:layerMember="0" transform="translate(24,-3.075)">
						<title>Sheet.1208</title>
						<path d="M0 73.13 L21.75 51.08 L21.75 48.98 L0 70.95 L0 73.13 Z" class="st3"/>
					</g>
					<g id="shape1209-71" v:mID="1209" v:groupContext="shape" v:layerMember="0" transform="translate(24,0)">
						<title>Sheet.1209</title>
						<path d="M21.75 50.4 L0 72.45 L0 73.13 L3.45 71.18 L21.75 52.58 L21.75 50.4 Z" class="st3"/>
					</g>
					<g id="shape1210-73" v:mID="1210" v:groupContext="shape" v:layerMember="0" transform="translate(33,-5.25)">
						<title>Sheet.1210</title>
						<path d="M12.75 62.33 L12.75 60.23 L0 73.13 L4.95 70.35 L12.75 62.33 Z" class="st3"/>
					</g>
					<g id="shape1211-75" v:mID="1211" v:groupContext="shape" v:layerMember="0" transform="translate(43.5,-11.25)">
						<title>Sheet.1211</title>
						<path d="M0 73.13 L2.25 71.78 L2.25 70.8 L0 73.13 Z" class="st3"/>
					</g>
				</g>
			</g>
		</g>
	</g>
</svg>
