<?xml version="1.0" encoding="UTF-8" standalone="no"?>
<!DOCTYPE svg PUBLIC "-//W3C//DTD SVG 1.1//EN" "http://www.w3.org/Graphics/SVG/1.1/DTD/svg11.dtd">
<!-- Generated by Microsoft Visio, SVG Export On Premises Directory.svg Page-1 -->
<svg xmlns="http://www.w3.org/2000/svg" xmlns:xlink="http://www.w3.org/1999/xlink" xmlns:ev="http://www.w3.org/2001/xml-events"
		xmlns:v="http://schemas.microsoft.com/visio/2003/SVGExtensions/" width="0.924219in" height="1.01563in"
		viewBox="0 0 66.5438 73.125" xml:space="preserve" color-interpolation-filters="sRGB" class="st3">
	<v:documentProperties v:langID="4108" v:metric="true" v:viewMarkup="false"/>

	<style type="text/css">
	<![CDATA[
		.st1 {fill:#ffffff;stroke:none;stroke-linecap:butt;stroke-width:0.75}
		.st2 {fill:#505150;stroke:none;stroke-linecap:butt;stroke-width:0.75}
		.st3 {fill:none;fill-rule:evenodd;font-size:12px;overflow:visible;stroke-linecap:square;stroke-miterlimit:3}
	]]>
	</style>

	<g v:mID="0" v:index="1" v:groupContext="foregroundPage">
		<title>Page-1</title>
		<v:pageProperties v:drawingScale="0.0393701" v:pageScale="0.0393701" v:drawingUnits="24" v:shadowOffsetX="8.50394"
				v:shadowOffsetY="-8.50394"/>
		<v:layer v:name="symbols" v:index="0"/>
		<g id="group1222-1" transform="translate(9.50625,-5.0625)" v:mID="1222" v:groupContext="group" v:layerMember="0">
			<title>On Premises Directory</title>
			<g id="group1223-2" v:mID="1223" v:groupContext="group" v:layerMember="0">
				<title>Sheet.1223</title>
				<g id="group1224-3" transform="translate(2.11831E-13,-3.75)" v:mID="1224" v:groupContext="group" v:layerMember="0">
					<title>Sheet.1224</title>
					<g id="shape1225-4" v:mID="1225" v:groupContext="shape" v:layerMember="0">
						<title>Sheet.1225</title>
						<path d="M21.75 24.38 L21.75 13.88 L0 13.88 L0 73.12 L37.5 73.12 L37.5 36.38 L35.25 36.38 L35.25 30.37 L33
									 30.37 L33 24.38 L30.75 24.38 L30.75 17.63 L24 17.63 L24 24.38 L21.75 24.38 Z" class="st1"/>
					</g>
					<g id="shape1226-6" v:mID="1226" v:groupContext="shape" v:layerMember="0" transform="translate(2.25,-2.25)">
						<title>Sheet.1226</title>
						<path d="M30.75 40.88 L30.75 34.88 L28.5 34.88 L28.5 28.88 L26.25 28.88 L26.25 22.13 L24 22.13 L24 28.88
									 L21.75 28.88 L21.75 34.88 L19.5 34.88 L19.5 40.88 L17.25 40.88 L17.25 18.38 L0 18.38 L0 73.12
									 L33 73.12 L33 40.88 L30.75 40.88 ZM6.75 59.63 L3.75 59.63 L3.75 56.63 L6.75 56.63 L6.75 59.63
									 ZM6.75 52.88 L3.75 52.88 L3.75 49.88 L6.75 49.88 L6.75 52.88 ZM6.75 46.13 L3.75 46.13 L3.75
									 43.13 L6.75 43.13 L6.75 46.13 ZM6.75 39.38 L3.75 39.38 L3.75 36.38 L6.75 36.38 L6.75 39.38 ZM6.75
									 32.63 L3.75 32.63 L3.75 29.63 L6.75 29.63 L6.75 32.63 ZM6.75 25.88 L3.75 25.88 L3.75 22.88 L6.75
									 22.88 L6.75 25.88 ZM13.5 59.63 L10.5 59.63 L10.5 56.63 L13.5 56.63 L13.5 59.63 ZM13.5 52.88
									 L10.5 52.88 L10.5 49.88 L13.5 49.88 L13.5 52.88 ZM13.5 46.13 L10.5 46.13 L10.5 43.13 L13.5 43.13
									 L13.5 46.13 ZM13.5 39.38 L10.5 39.38 L10.5 36.38 L13.5 36.38 L13.5 39.38 ZM13.5 32.63 L10.5
									 32.63 L10.5 29.63 L13.5 29.63 L13.5 32.63 ZM13.5 25.88 L10.5 25.88 L10.5 22.88 L13.5 22.88 L13.5
									 25.88 ZM23.25 57.38 L20.25 57.38 L20.25 54.38 L23.25 54.38 L23.25 57.38 ZM23.25 46.88 L20.25
									 46.88 L20.25 43.88 L23.25 43.88 L23.25 46.88 Z" class="st2"/>
					</g>
				</g>
				<g id="group1227-8" transform="translate(20.1,0)" v:mID="1227" v:groupContext="group" v:layerMember="0">
					<title>Sheet.1227</title>
					<g id="shape1228-9" v:mID="1228" v:groupContext="shape" v:layerMember="0">
						<title>Sheet.1228</title>
						<path d="M3.75 73.12 C2.33 73.12 1.2 72.53 0.6 71.47 C-0 70.42 -0 69.07 0.75 67.87 L13.95 43.57 C14.7 42.3
									 15.82 41.62 17.03 41.62 C18.22 41.63 19.35 42.3 20.1 43.5 L33.38 67.87 C34.05 69.07 34.13 70.35
									 33.45 71.4 C32.85 72.45 31.65 73.05 30.3 73.05 L3.75 73.05 L3.75 73.12 Z" class="st1"/>
					</g>
					<g id="shape1229-11" v:mID="1229" v:groupContext="shape" v:layerMember="0" transform="translate(2.025,-2.25)">
						<title>Sheet.1229</title>
						<path d="M29.4 71.25 L16.05 46.87 C15.45 45.82 14.48 45.82 13.88 46.87 L0.6 71.25 C-0 72.3 0.53 73.12 1.73
									 73.12 L28.28 73.12 C29.48 73.12 30 72.3 29.4 71.25 ZM15 53.32 C16.43 53.32 17.63 54.52 17.63
									 55.95 C17.63 57.37 16.43 58.58 15 58.57 C13.58 58.58 12.38 57.37 12.38 55.95 C12.38 54.52 13.58
									 53.32 15 53.32 ZM20.48 64.57 C19.95 64.65 19.5 64.88 19.13 65.17 L15.9 59.17 C16.43 59.02 16.88
									 58.8 17.25 58.5 L20.48 64.57 ZM12.75 58.5 C13.13 58.8 13.58 59.1 14.1 59.17 L10.8 65.25 C10.43
									 64.95 9.98 64.72 9.45 64.57 L12.75 58.5 ZM8.7 70.5 C7.28 70.5 6.08 69.3 6.08 67.87 C6.08 66.45
									 7.28 65.25 8.7 65.25 C10.13 65.25 11.33 66.45 11.33 67.87 C11.33 69.3 10.2 70.5 8.7 70.5 ZM17.78
									 68.62 L12 68.62 C12.08 68.4 12.08 68.1 12.08 67.87 C12.08 67.65 12.08 67.35 12 67.12 L17.78
									 67.12 C17.7 67.35 17.7 67.65 17.7 67.87 C17.7 68.1 17.7 68.4 17.78 68.62 ZM21.08 70.5 C19.65
									 70.5 18.45 69.3 18.45 67.87 C18.45 66.45 19.65 65.25 21.08 65.25 C22.5 65.25 23.7 66.45 23.7
									 67.87 C23.7 69.3 22.5 70.5 21.08 70.5 Z" class="st2"/>
					</g>
				</g>
			</g>
		</g>
	</g>
</svg>
