<?xml version="1.0" encoding="UTF-8" standalone="no"?>
<!DOCTYPE svg PUBLIC "-//W3C//DTD SVG 1.1//EN" "http://www.w3.org/Graphics/SVG/1.1/DTD/svg11.dtd">
<!-- Generated by Microsoft Visio, SVG Export On Premises.svg Page-1 -->
<svg xmlns="http://www.w3.org/2000/svg" xmlns:xlink="http://www.w3.org/1999/xlink" xmlns:ev="http://www.w3.org/2001/xml-events"
		xmlns:v="http://schemas.microsoft.com/visio/2003/SVGExtensions/" width="0.78125in" height="1.01563in"
		viewBox="0 0 56.25 73.125" xml:space="preserve" color-interpolation-filters="sRGB" class="st3">
	<v:documentProperties v:langID="4108" v:metric="true" v:viewMarkup="false"/>

	<style type="text/css">
	<![CDATA[
		.st1 {fill:#ffffff;stroke:none;stroke-linecap:butt;stroke-width:0.75}
		.st2 {fill:#505150;stroke:none;stroke-linecap:butt;stroke-width:0.75}
		.st3 {fill:none;fill-rule:evenodd;font-size:12px;overflow:visible;stroke-linecap:square;stroke-miterlimit:3}
	]]>
	</style>

	<g v:mID="0" v:index="1" v:groupContext="foregroundPage">
		<title>Page-1</title>
		<v:pageProperties v:drawingScale="0.0393701" v:pageScale="0.0393701" v:drawingUnits="24" v:shadowOffsetX="8.50394"
				v:shadowOffsetY="-8.50394"/>
		<v:layer v:name="symbols" v:index="0"/>
		<g id="group1218-1" transform="translate(9.5625,-6.9375)" v:mID="1218" v:groupContext="group" v:layerMember="0">
			<title>On Premises</title>
			<g id="group1219-2" v:mID="1219" v:groupContext="group" v:layerMember="0">
				<title>Sheet.1219</title>
				<g id="shape1220-3" v:mID="1220" v:groupContext="shape" v:layerMember="0">
					<title>Sheet.1220</title>
					<path d="M21.75 24.38 L21.75 13.87 L0 13.87 L0 73.12 L37.5 73.12 L37.5 36.37 L35.25 36.37 L35.25 30.37 L33 30.37
								 L33 24.38 L30.75 24.38 L30.75 17.63 L24 17.63 L24 24.38 L21.75 24.38 Z" class="st1"/>
				</g>
				<g id="shape1221-5" v:mID="1221" v:groupContext="shape" v:layerMember="0" transform="translate(2.25,-2.25)">
					<title>Sheet.1221</title>
					<path d="M30.75 40.88 L30.75 34.88 L28.5 34.88 L28.5 28.88 L26.25 28.88 L26.25 22.13 L24 22.13 L24 28.88 L21.75
								 28.88 L21.75 34.88 L19.5 34.88 L19.5 40.88 L17.25 40.88 L17.25 18.38 L0 18.38 L0 73.12 L33 73.12
								 L33 40.88 L30.75 40.88 ZM6.75 59.62 L3.75 59.62 L3.75 56.63 L6.75 56.63 L6.75 59.62 ZM6.75 52.88
								 L3.75 52.88 L3.75 49.88 L6.75 49.88 L6.75 52.88 ZM6.75 46.13 L3.75 46.13 L3.75 43.13 L6.75 43.13
								 L6.75 46.13 ZM6.75 39.38 L3.75 39.38 L3.75 36.38 L6.75 36.38 L6.75 39.38 ZM6.75 32.63 L3.75 32.63
								 L3.75 29.63 L6.75 29.63 L6.75 32.63 ZM6.75 25.88 L3.75 25.88 L3.75 22.88 L6.75 22.88 L6.75 25.88
								 ZM13.5 59.62 L10.5 59.62 L10.5 56.63 L13.5 56.63 L13.5 59.62 ZM13.5 52.88 L10.5 52.88 L10.5 49.88
								 L13.5 49.88 L13.5 52.88 ZM13.5 46.13 L10.5 46.13 L10.5 43.13 L13.5 43.13 L13.5 46.13 ZM13.5 39.38
								 L10.5 39.38 L10.5 36.38 L13.5 36.38 L13.5 39.38 ZM13.5 32.63 L10.5 32.63 L10.5 29.63 L13.5 29.63
								 L13.5 32.63 ZM13.5 25.88 L10.5 25.88 L10.5 22.88 L13.5 22.88 L13.5 25.88 ZM23.25 57.37 L20.25 57.37
								 L20.25 54.38 L23.25 54.38 L23.25 57.37 ZM23.25 46.88 L20.25 46.88 L20.25 43.88 L23.25 43.88 L23.25
								 46.88 ZM29.25 52.13 L26.25 52.13 L26.25 49.13 L29.25 49.13 L29.25 52.13 Z" class="st2"/>
				</g>
			</g>
		</g>
	</g>
</svg>
