<?xml version="1.0" encoding="UTF-8" standalone="no"?>
<!DOCTYPE svg PUBLIC "-//W3C//DTD SVG 1.1//EN" "http://www.w3.org/Graphics/SVG/1.1/DTD/svg11.dtd">
<!-- Generated by Microsoft Visio, SVG Export Phishing.svg Page-1 -->
<svg xmlns="http://www.w3.org/2000/svg" xmlns:xlink="http://www.w3.org/1999/xlink" xmlns:ev="http://www.w3.org/2001/xml-events"
		xmlns:v="http://schemas.microsoft.com/visio/2003/SVGExtensions/" width="1.10938in" height="0.829167in"
		viewBox="0 0 79.875 59.7" xml:space="preserve" color-interpolation-filters="sRGB" class="st3">
	<v:documentProperties v:langID="4108" v:metric="true" v:viewMarkup="false"/>

	<style type="text/css">
	<![CDATA[
		.st1 {fill:#ffffff;stroke:none;stroke-linecap:butt;stroke-width:0.75}
		.st2 {fill:#515150;stroke:none;stroke-linecap:butt;stroke-width:0.75}
		.st3 {fill:none;fill-rule:evenodd;font-size:12px;overflow:visible;stroke-linecap:square;stroke-miterlimit:3}
	]]>
	</style>

	<g v:mID="0" v:index="1" v:groupContext="foregroundPage">
		<title>Page-1</title>
		<v:pageProperties v:drawingScale="0.0393701" v:pageScale="0.0393701" v:drawingUnits="24" v:shadowOffsetX="8.50394"
				v:shadowOffsetY="-8.50394"/>
		<v:layer v:name="symbols" v:index="0"/>
		<g id="group1230-1" transform="translate(8.7375,-0.75)" v:mID="1230" v:groupContext="group" v:layerMember="0">
			<title>Phishing</title>
			<g id="group1231-2" v:mID="1231" v:groupContext="group" v:layerMember="0">
				<title>Sheet.1231</title>
				<g id="group1232-3" transform="translate(0,-12.525)" v:mID="1232" v:groupContext="group" v:layerMember="0">
					<title>Sheet.1232</title>
					<g id="shape1233-4" v:mID="1233" v:groupContext="shape" v:layerMember="0">
						<title>Sheet.1233</title>
						<rect x="0" y="20.7" width="49.5" height="39" class="st1"/>
					</g>
					<g id="shape1234-6" v:mID="1234" v:groupContext="shape" v:layerMember="0" transform="translate(2.25,-16.425)">
						<title>Sheet.1234</title>
						<path d="M0 43.73 L20.25 58.8 C21.52 59.7 23.48 59.7 24.75 58.8 L45 43.73 L45 39.38 L0 39.38 L0 43.73 Z"
								class="st2"/>
					</g>
					<g id="shape1235-8" v:mID="1235" v:groupContext="shape" v:layerMember="0" transform="translate(2.25,-2.25)">
						<title>Sheet.1235</title>
						<path d="M45 32.33 L26.1 46.43 C25.12 47.18 23.85 47.55 22.5 47.55 C21.15 47.55 19.88 47.18 18.9 46.43 L0
									 32.33 L0 59.7 L45 59.7 L45 32.33 Z" class="st2"/>
					</g>
				</g>
				<g id="group1236-10" transform="translate(34.425,0)" v:mID="1236" v:groupContext="group" v:layerMember="0">
					<title>Sheet.1236</title>
					<g id="group1237-11" v:mID="1237" v:groupContext="group" v:layerMember="0">
						<title>Sheet.1237</title>
						<g id="shape1238-12" v:mID="1238" v:groupContext="shape" v:layerMember="0">
							<title>Sheet.1238</title>
							<path d="M14.55 59.7 C13.43 59.7 12.23 59.33 11.33 58.65 C4.42 53.25 0.45 45.68 0.08 36.68 C0 34.73 1.13
										 32.93 2.85 32.4 C5.7 31.43 8.18 30.45 11.33 26.93 C12.15 26.03 13.28 25.5 14.55 25.5 C15.83
										 25.5 17.03 26.03 17.78 27 C20.63 30.45 23.33 31.43 26.25 32.48 C27.98 33.08 29.1 34.88 29.03
										 36.75 C28.65 45.75 24.75 53.33 17.7 58.73 C16.88 59.33 15.75 59.7 14.55 59.7 Z"
									class="st1"/>
						</g>
						<g id="shape1239-14" v:mID="1239" v:groupContext="shape" v:layerMember="0"
								transform="translate(2.325,-1.95)">
							<title>Sheet.1239</title>
							<path d="M10.73 30.3 C7.27 34.2 4.43 35.4 1.28 36.45 C0.45 36.75 0 37.65 0 38.55 C0.38 47.4 4.43 54.23
										 10.43 58.88 C11.48 59.7 13.05 59.7 14.1 58.88 C20.1 54.23 24.15 47.48 24.53 38.55 C24.6
										 37.73 24.15 36.75 23.25 36.45 C20.1 35.33 17.03 34.2 13.8 30.3 C13.05 29.4 11.48 29.4 10.73
										 30.3 Z" class="st2"/>
						</g>
					</g>
					<g id="shape1240-16" v:mID="1240" v:groupContext="shape" v:layerMember="0" transform="translate(9.45,-12.3)">
						<title>Sheet.1240</title>
						<path d="M9.9 57.9 L8.1 59.7 L4.95 56.55 L1.8 59.7 L0 57.9 L3.15 54.75 L0 51.6 L1.8 49.8 L4.95 52.95 L8.1
									 49.8 L9.9 51.6 L6.75 54.75 L9.9 57.9 Z" class="st1"/>
					</g>
				</g>
			</g>
		</g>
	</g>
</svg>
