<?xml version="1.0" encoding="UTF-8" standalone="no"?>
<!DOCTYPE svg PUBLIC "-//W3C//DTD SVG 1.1//EN" "http://www.w3.org/Graphics/SVG/1.1/DTD/svg11.dtd">
<!-- Generated by Microsoft Visio, SVG Export Pin.svg Page-1 -->
<svg xmlns="http://www.w3.org/2000/svg" xmlns:xlink="http://www.w3.org/1999/xlink" xmlns:ev="http://www.w3.org/2001/xml-events"
		xmlns:v="http://schemas.microsoft.com/visio/2003/SVGExtensions/" width="0.71875in" height="0.9375in"
		viewBox="0 0 51.75 67.5" xml:space="preserve" color-interpolation-filters="sRGB" class="st3">
	<v:documentProperties v:langID="4108" v:metric="true" v:viewMarkup="false"/>

	<style type="text/css">
	<![CDATA[
		.st1 {fill:#ffffff;stroke:none;stroke-linecap:butt;stroke-width:0.75}
		.st2 {fill:#515050;stroke:none;stroke-linecap:butt;stroke-width:0.75}
		.st3 {fill:none;fill-rule:evenodd;font-size:12px;overflow:visible;stroke-linecap:square;stroke-miterlimit:3}
	]]>
	</style>

	<g v:mID="0" v:index="1" v:groupContext="foregroundPage">
		<title>Page-1</title>
		<v:pageProperties v:drawingScale="0.0393701" v:pageScale="0.0393701" v:drawingUnits="24" v:shadowOffsetX="8.50394"
				v:shadowOffsetY="-8.50394"/>
		<v:layer v:name="symbols" v:index="0"/>
		<g id="group1241-1" transform="translate(11.8781,-10.0125)" v:mID="1241" v:groupContext="group" v:layerMember="0">
			<title>Pin</title>
			<g id="group1242-2" v:mID="1242" v:groupContext="group" v:layerMember="0">
				<title>Sheet.1242</title>
				<g id="shape1243-3" v:mID="1243" v:groupContext="shape" v:layerMember="0">
					<title>Sheet.1243</title>
					<path d="M12.08 66.3 C11.32 64.73 10.58 60.9 9.9 50.48 L0 50.48 L0 48.23 C0 43.73 2.7 39.6 6.75 37.65 L6.75 28.58
								 C3.98 26.93 2.25 24.23 2.25 21.15 L2.25 18.9 L26.25 18.9 L26.25 21.15 C26.25 24.15 24.52 26.93 21.75
								 28.58 L21.75 37.65 C25.8 39.6 28.5 43.73 28.5 48.23 L28.5 50.48 L18.6 50.48 C17.85 60.98 17.18 64.8
								 16.42 66.3 C16.05 67.05 15.3 67.5 14.48 67.5 L14.02 67.5 C13.2 67.5 12.45 67.05 12.08 66.3 Z"
							class="st1"/>
				</g>
				<g id="shape1244-5" v:mID="1244" v:groupContext="shape" v:layerMember="0" transform="translate(2.25,-2.025)">
					<title>Sheet.1244</title>
					<path d="M12 67.5 C11.32 67.2 10.42 60.75 9.75 50.25 L0 50.25 C0 46.13 2.92 42.38 6.75 41.18 L6.75 29.25 C4.35
								 28.28 2.25 26.1 2.25 23.25 L21.75 23.25 C21.75 26.1 19.65 28.28 17.25 29.25 L17.25 41.18 C21.07
								 42.38 24 46.05 24 50.25 L14.25 50.25 C13.57 60.75 12.67 67.2 12 67.5 Z" class="st2"/>
				</g>
			</g>
		</g>
	</g>
</svg>
