<?xml version="1.0" encoding="UTF-8" standalone="no"?>
<!DOCTYPE svg PUBLIC "-//W3C//DTD SVG 1.1//EN" "http://www.w3.org/Graphics/SVG/1.1/DTD/svg11.dtd">
<!-- Generated by Microsoft Visio, SVG Export Platform Options.svg Page-1 -->
<svg xmlns="http://www.w3.org/2000/svg" xmlns:xlink="http://www.w3.org/1999/xlink" xmlns:ev="http://www.w3.org/2001/xml-events"
		xmlns:v="http://schemas.microsoft.com/visio/2003/SVGExtensions/" width="1.09062in" height="0.921875in"
		viewBox="0 0 78.525 66.375" xml:space="preserve" color-interpolation-filters="sRGB" class="st3">
	<v:documentProperties v:langID="4108" v:metric="true" v:viewMarkup="false"/>

	<style type="text/css">
	<![CDATA[
		.st1 {fill:#ffffff;stroke:none;stroke-linecap:butt;stroke-width:0.75}
		.st2 {fill:#505150;stroke:none;stroke-linecap:butt;stroke-width:0.75}
		.st3 {fill:none;fill-rule:evenodd;font-size:12px;overflow:visible;stroke-linecap:square;stroke-miterlimit:3}
	]]>
	</style>

	<g v:mID="0" v:index="1" v:groupContext="foregroundPage">
		<title>Page-1</title>
		<v:pageProperties v:drawingScale="0.0393701" v:pageScale="0.0393701" v:drawingUnits="24" v:shadowOffsetX="8.50394"
				v:shadowOffsetY="-8.50394"/>
		<v:layer v:name="symbols" v:index="0"/>
		<g id="group1245-1" transform="translate(11.0625,-8.0625)" v:mID="1245" v:groupContext="group" v:layerMember="0">
			<title>Platform Options</title>
			<g id="group1246-2" v:mID="1246" v:groupContext="group" v:layerMember="0">
				<title>Sheet.1246</title>
				<g id="shape1247-3" v:mID="1247" v:groupContext="shape" v:layerMember="0" transform="translate(42.75,-29.625)">
					<title>Sheet.1247</title>
					<path d="M16.5 44.55 C15.6 41.02 12.38 39 7.95 39 C5.48 39 2.93 39.67 1.05 40.8 L0 41.4 L0 49.5 L3.23 49.5 L3.75
								 49.05 C4.8 48.15 6.08 47.55 7.2 47.55 C7.35 47.55 7.35 47.55 7.35 47.55 C7.35 47.55 7.35 47.7 7.28
								 47.85 C7.05 48.3 6.53 48.75 5.93 49.27 C5.33 49.8 4.65 50.4 4.05 51.15 C2.62 53.1 2.25 55.87 3.15
								 58.2 L3.38 58.72 C2.78 59.55 2.4 60.52 2.4 61.57 C2.4 64.27 4.65 66.37 7.5 66.37 C10.35 66.37 12.6
								 64.27 12.6 61.57 C12.6 60.9 12.45 60.22 12.15 59.62 L11.18 56.17 C11.25 56.1 11.25 56.02 11.25 56.02
								 C11.25 55.57 12.53 54.52 13.05 54 C13.43 53.7 13.8 53.4 14.03 53.1 C16.43 50.77 17.33 47.62 16.5
								 44.55 Z" class="st1"/>
				</g>
				<g id="group1248-5" v:mID="1248" v:groupContext="group" v:layerMember="0">
					<title>Sheet.1248</title>
					<g id="shape1249-6" v:mID="1249" v:groupContext="shape" v:layerMember="0">
						<title>Sheet.1249</title>
						<path d="M0 66.37 L0 12.38 L19.5 12.38 L19.5 26.63 L19.5 21.38 L21.75 21.38 L21.75 15.45 L28.5 15.45 L28.5
									 21.38 L30.75 21.38 L30.75 26.63 L33 26.63 L33 31.88 L35.25 31.88 L35.25 66.37 L0 66.37 Z"
								class="st1"/>
					</g>
					<g id="shape1250-8" v:mID="1250" v:groupContext="shape" v:layerMember="0"
							transform="translate(12.825,8.52651E-14)">
						<title>Sheet.1250</title>
						<path d="M8.7 66.37 L7.28 66 C3 64.8 0 60.83 0 56.18 C0 53.17 1.28 50.4 3.38 48.53 C3.75 42.53 8.62 37.73
									 14.48 37.73 C15.07 37.73 15.75 37.8 16.35 37.88 C18.45 35.48 21.45 34.13 24.6 34.13 C29.55 34.13
									 33.83 37.43 35.4 42.23 C37.28 42.6 38.93 43.5 40.28 44.85 C45.45 45.45 49.43 50.02 49.43 55.58
									 C49.43 61.5 44.85 66.37 39.15 66.37 L8.7 66.37 Z" class="st1"/>
					</g>
					<g id="shape1251-10" v:mID="1251" v:groupContext="shape" v:layerMember="0" transform="translate(15.075,-2.25)">
						<title>Sheet.1251</title>
						<path d="M36.9 66.37 L6.75 66.37 L5.62 66.07 C2.32 65.18 0 62.02 0 58.42 C0 55.73 1.27 53.32 3.37 51.9 C3.37
									 51.83 3.37 51.67 3.37 51.6 C3.37 46.42 7.35 42.22 12.22 42.22 C13.13 42.22 14.1 42.37 15 42.67
									 C16.72 40.12 19.43 38.62 22.35 38.62 C26.77 38.62 30.52 42 31.35 46.57 C33.52 46.58 35.63 47.62
									 36.97 49.35 C41.4 49.35 44.92 53.17 44.92 57.82 C44.92 62.48 41.33 66.37 36.9 66.37 Z"
								class="st2"/>
					</g>
					<g id="shape1252-12" v:mID="1252" v:groupContext="shape" v:layerMember="0" transform="translate(17.4,-4.5)">
						<title>Sheet.1252</title>
						<path d="M4.73 66.37 L3.9 66.15 C1.58 65.55 0 63.3 0 60.67 C-0 58.72 0.9 57 2.4 55.95 L3.45 55.27 L3.38 54
									 C3.38 53.92 3.38 53.85 3.38 53.77 C3.38 49.87 6.3 46.65 9.98 46.65 C10.65 46.65 11.32 46.8 12
									 47.02 L13.65 47.62 L14.63 46.2 C15.9 44.25 18 43.12 20.1 43.12 C23.4 43.12 26.25 45.67 26.85
									 49.2 L27.15 51.07 L29.03 51.07 C30.53 51.07 31.95 51.75 32.93 53.02 L33.6 53.85 L34.65 53.85
									 C37.8 53.85 40.35 56.7 40.35 60.07 C40.35 63.52 37.73 66.37 34.58 66.37 L4.73 66.37 Z"
								class="st1"/>
					</g>
					<g id="shape1253-14" v:mID="1253" v:groupContext="shape" v:layerMember="0" transform="translate(2.25,-2.25)">
						<title>Sheet.1253</title>
						<path d="M28.5 36.37 L28.5 31.12 L26.25 31.12 L26.25 25.87 L24 25.87 L24 19.95 L21.75 19.95 L21.75 25.87
									 L19.5 25.87 L19.5 31.12 L17.25 31.12 L17.25 36.37 L15 36.37 L15 16.87 L0 16.87 L0 66.37 L15
									 66.37 L30.75 66.37 L30.75 36.37 L28.5 36.37 Z" class="st2"/>
					</g>
					<g id="group1254-16" transform="translate(5.25,-15)" v:mID="1254" v:groupContext="group" v:layerMember="0">
						<title>Sheet.1254</title>
						<g id="group1255-17" transform="translate(-6.39488E-14,-30)" v:mID="1255" v:groupContext="group"
								v:layerMember="0">
							<title>Sheet.1255</title>
							<g id="shape1256-18" v:mID="1256" v:groupContext="shape" v:layerMember="0">
								<title>Sheet.1256</title>
								<rect x="0" y="63.375" width="3" height="3" class="st1"/>
							</g>
							<g id="shape1257-20" v:mID="1257" v:groupContext="shape" v:layerMember="0" transform="translate(6,0)">
								<title>Sheet.1257</title>
								<rect x="0" y="63.375" width="3" height="3" class="st1"/>
							</g>
						</g>
						<g id="group1258-22" transform="translate(-6.39488E-14,-24)" v:mID="1258" v:groupContext="group"
								v:layerMember="0">
							<title>Sheet.1258</title>
							<g id="shape1259-23" v:mID="1259" v:groupContext="shape" v:layerMember="0">
								<title>Sheet.1259</title>
								<rect x="0" y="63.375" width="3" height="3" class="st1"/>
							</g>
							<g id="shape1260-25" v:mID="1260" v:groupContext="shape" v:layerMember="0" transform="translate(6,0)">
								<title>Sheet.1260</title>
								<rect x="0" y="63.375" width="3" height="3" class="st1"/>
							</g>
						</g>
						<g id="group1261-27" transform="translate(-6.39488E-14,-18)" v:mID="1261" v:groupContext="group"
								v:layerMember="0">
							<title>Sheet.1261</title>
							<g id="shape1262-28" v:mID="1262" v:groupContext="shape" v:layerMember="0">
								<title>Sheet.1262</title>
								<rect x="0" y="63.375" width="3" height="3" class="st1"/>
							</g>
							<g id="shape1263-30" v:mID="1263" v:groupContext="shape" v:layerMember="0" transform="translate(6,0)">
								<title>Sheet.1263</title>
								<rect x="0" y="63.375" width="3" height="3" class="st1"/>
							</g>
						</g>
						<g id="group1264-32" transform="translate(-6.39488E-14,-12)" v:mID="1264" v:groupContext="group"
								v:layerMember="0">
							<title>Sheet.1264</title>
							<g id="shape1265-33" v:mID="1265" v:groupContext="shape" v:layerMember="0">
								<title>Sheet.1265</title>
								<rect x="0" y="63.375" width="3" height="3" class="st1"/>
							</g>
							<g id="shape1266-35" v:mID="1266" v:groupContext="shape" v:layerMember="0"
									transform="translate(6,1.42109E-14)">
								<title>Sheet.1266</title>
								<rect x="0" y="63.375" width="3" height="3" class="st1"/>
							</g>
						</g>
						<g id="group1267-37" transform="translate(-6.39488E-14,-6)" v:mID="1267" v:groupContext="group"
								v:layerMember="0">
							<title>Sheet.1267</title>
							<g id="shape1268-38" v:mID="1268" v:groupContext="shape" v:layerMember="0">
								<title>Sheet.1268</title>
								<rect x="0" y="63.375" width="3" height="3" class="st1"/>
							</g>
							<g id="shape1269-40" v:mID="1269" v:groupContext="shape" v:layerMember="0"
									transform="translate(6,1.42109E-14)">
								<title>Sheet.1269</title>
								<rect x="0" y="63.375" width="3" height="3" class="st1"/>
							</g>
						</g>
						<g id="group1270-42" v:mID="1270" v:groupContext="group" v:layerMember="0">
							<title>Sheet.1270</title>
							<g id="shape1271-43" v:mID="1271" v:groupContext="shape" v:layerMember="0">
								<title>Sheet.1271</title>
								<rect x="0" y="63.375" width="3" height="3" class="st1"/>
							</g>
							<g id="shape1272-45" v:mID="1272" v:groupContext="shape" v:layerMember="0"
									transform="translate(6,1.42109E-14)">
								<title>Sheet.1272</title>
								<rect x="0" y="63.375" width="3" height="3" class="st1"/>
							</g>
						</g>
					</g>
					<g id="group1273-47" transform="translate(21,-17.25)" v:mID="1273" v:groupContext="group" v:layerMember="0">
						<title>Sheet.1273</title>
						<g id="shape1274-48" v:mID="1274" v:groupContext="shape" v:layerMember="0"
								transform="translate(9.99201E-15,-9.75)">
							<title>Sheet.1274</title>
							<rect x="0" y="63.375" width="3" height="3" class="st1"/>
						</g>
						<g id="shape1275-50" v:mID="1275" v:groupContext="shape" v:layerMember="0"
								transform="translate(5.25,-5.25)">
							<title>Sheet.1275</title>
							<rect x="0" y="63.375" width="3" height="3" class="st1"/>
						</g>
						<g id="shape1276-52" v:mID="1276" v:groupContext="shape" v:layerMember="0">
							<title>Sheet.1276</title>
							<rect x="0" y="63.375" width="3" height="3" class="st1"/>
						</g>
					</g>
				</g>
				<g id="shape1277-54" v:mID="1277" v:groupContext="shape" v:layerMember="0" transform="translate(45.075,-31.8)">
					<title>Sheet.1277</title>
					<path d="M3.07 59.55 C2.48 57.97 2.7 56.02 3.67 54.67 C4.65 53.32 6.45 52.5 7.12 50.92 C7.87 49.2 6.82 47.47
								 4.95 47.47 C3.08 47.47 1.35 48.3 0 49.5 C0 47.92 0 46.42 0 44.85 C3.52 42.75 10.8 42.37 12.07 47.32
								 C12.75 49.72 11.92 52.05 10.2 53.7 C8.7 55.12 5.47 57.07 7.12 59.62 C5.77 59.55 4.42 59.55 3.07
								 59.55 ZM5.32 66.37 C3.9 66.37 2.48 65.4 2.47 63.82 C2.48 62.25 3.9 61.27 5.32 61.27 C6.75 61.27
								 8.17 62.25 8.17 63.82 C8.1 65.4 6.82 66.37 5.32 66.37 Z" class="st2"/>
				</g>
			</g>
		</g>
	</g>
</svg>
