<?xml version="1.0" encoding="UTF-8" standalone="no"?>
<!DOCTYPE svg PUBLIC "-//W3C//DTD SVG 1.1//EN" "http://www.w3.org/Graphics/SVG/1.1/DTD/svg11.dtd">
<!-- Generated by Microsoft Visio, SVG Export Properties.svg Page-1 -->
<svg xmlns="http://www.w3.org/2000/svg" xmlns:xlink="http://www.w3.org/1999/xlink" xmlns:ev="http://www.w3.org/2001/xml-events"
		xmlns:v="http://schemas.microsoft.com/visio/2003/SVGExtensions/" width="1.01172in" height="1.01562in"
		viewBox="0 0 72.8438 73.125" xml:space="preserve" color-interpolation-filters="sRGB" class="st4">
	<v:documentProperties v:langID="4108" v:metric="true" v:viewMarkup="false"/>

	<style type="text/css">
	<![CDATA[
		.st1 {fill:#ffffff;stroke:none;stroke-linecap:butt;stroke-width:0.75}
		.st2 {fill:#515150;stroke:none;stroke-linecap:butt;stroke-width:0.75}
		.st3 {fill:#515050;stroke:none;stroke-linecap:butt;stroke-width:0.75}
		.st4 {fill:none;fill-rule:evenodd;font-size:12px;overflow:visible;stroke-linecap:square;stroke-miterlimit:3}
	]]>
	</style>

	<g v:mID="0" v:index="1" v:groupContext="foregroundPage">
		<title>Page-1</title>
		<v:pageProperties v:drawingScale="0.0393701" v:pageScale="0.0393701" v:drawingUnits="24" v:shadowOffsetX="8.50394"
				v:shadowOffsetY="-8.50394"/>
		<v:layer v:name="symbols" v:index="0"/>
		<g id="group1278-1" transform="translate(9.13125,-9.5625)" v:mID="1278" v:groupContext="group" v:layerMember="0">
			<title>Properties</title>
			<g id="group1279-2" v:mID="1279" v:groupContext="group" v:layerMember="0">
				<title>Sheet.1279</title>
				<g id="group1280-3" v:mID="1280" v:groupContext="group" v:layerMember="0">
					<title>Sheet.1280</title>
					<g id="shape1281-4" v:mID="1281" v:groupContext="shape" v:layerMember="0">
						<title>Sheet.1281</title>
						<path d="M5.25 73.12 C2.33 73.12 0 70.8 0 67.87 L0 24.37 C-0 21.45 2.33 19.12 5.25 19.12 L49.5 19.12 C52.42
									 19.12 54.75 21.45 54.75 24.37 L54.75 67.87 C54.75 70.8 52.42 73.12 49.5 73.12 L5.25 73.12 Z"
								class="st1"/>
					</g>
					<g id="shape1282-6" v:mID="1282" v:groupContext="shape" v:layerMember="0" transform="translate(2.25,-2.25)">
						<title>Sheet.1282</title>
						<path d="M47.25 23.62 L3 23.62 C1.35 23.62 0 24.97 0 26.62 L0 70.12 C0 71.77 1.35 73.12 3 73.12 L47.25 73.12
									 C48.9 73.12 50.25 71.77 50.25 70.12 L50.25 26.62 C50.25 24.97 48.9 23.62 47.25 23.62 ZM41.25
									 25.87 L43.5 25.87 L43.5 28.12 L41.25 28.12 L41.25 25.87 ZM36.75 25.87 L39 25.87 L39 28.12 L36.75
									 28.12 L36.75 25.87 ZM48 70.12 C48 70.57 47.7 70.87 47.25 70.87 L3 70.87 C2.55 70.87 2.25 70.57
									 2.25 70.12 L2.25 31.12 L48 31.12 L48 70.12 ZM48 28.12 L45.75 28.12 L45.75 25.87 L48 25.87 L48
									 28.12 Z" class="st2"/>
					</g>
				</g>
				<g id="shape1283-8" v:mID="1283" v:groupContext="shape" v:layerMember="0" transform="translate(12,-30.75)">
					<title>Sheet.1283</title>
					<ellipse cx="2.625" cy="70.5" rx="2.625" ry="2.625" class="st3"/>
				</g>
				<g id="group1284-10" transform="translate(12,-21.75)" v:mID="1284" v:groupContext="group" v:layerMember="0">
					<title>Sheet.1284</title>
					<g id="shape1285-11" v:mID="1285" v:groupContext="shape" v:layerMember="0">
						<title>Sheet.1285</title>
						<ellipse cx="2.625" cy="70.5" rx="2.625" ry="2.625" class="st1"/>
					</g>
					<g id="shape1286-13" v:mID="1286" v:groupContext="shape" v:layerMember="0">
						<title>Sheet.1286</title>
						<path d="M2.62 68.62 C3.67 68.62 4.5 69.45 4.5 70.5 C4.5 71.55 3.67 72.37 2.62 72.37 C1.57 72.37 0.75 71.55
									 0.75 70.5 C0.75 69.45 1.57 68.62 2.62 68.62 ZM2.62 67.87 C1.2 67.87 0 69.07 0 70.5 C0 71.92
									 1.2 73.12 2.62 73.12 C4.05 73.12 5.25 71.92 5.25 70.5 C5.25 69.07 4.05 67.87 2.62 67.87 Z"
								class="st3"/>
					</g>
				</g>
				<g id="group1287-15" transform="translate(12,-12.75)" v:mID="1287" v:groupContext="group" v:layerMember="0">
					<title>Sheet.1287</title>
					<g id="shape1288-16" v:mID="1288" v:groupContext="shape" v:layerMember="0">
						<title>Sheet.1288</title>
						<ellipse cx="2.625" cy="70.5" rx="2.625" ry="2.625" class="st1"/>
					</g>
					<g id="shape1289-18" v:mID="1289" v:groupContext="shape" v:layerMember="0">
						<title>Sheet.1289</title>
						<path d="M2.62 68.62 C3.67 68.62 4.5 69.45 4.5 70.5 C4.5 71.55 3.67 72.37 2.62 72.37 C1.57 72.37 0.75 71.55
									 0.75 70.5 C0.75 69.45 1.57 68.62 2.62 68.62 ZM2.62 67.87 C1.2 67.87 0 69.07 0 70.5 C0 71.92
									 1.2 73.12 2.62 73.12 C4.05 73.12 5.25 71.92 5.25 70.5 C5.25 69.07 4.05 67.87 2.62 67.87 Z"
								class="st3"/>
					</g>
				</g>
				<g id="shape1290-20" v:mID="1290" v:groupContext="shape" v:layerMember="0" transform="translate(21,-32.25)">
					<title>Sheet.1290</title>
					<rect x="0" y="70.875" width="21.75" height="2.25" class="st3"/>
				</g>
				<g id="shape1291-22" v:mID="1291" v:groupContext="shape" v:layerMember="0" transform="translate(21,-23.25)">
					<title>Sheet.1291</title>
					<rect x="0" y="70.875" width="21.75" height="2.25" class="st3"/>
				</g>
				<g id="shape1292-24" v:mID="1292" v:groupContext="shape" v:layerMember="0" transform="translate(21,-14.25)">
					<title>Sheet.1292</title>
					<rect x="0" y="70.875" width="21.75" height="2.25" class="st3"/>
				</g>
			</g>
		</g>
	</g>
</svg>
