<?xml version="1.0" encoding="UTF-8" standalone="no"?>
<!DOCTYPE svg PUBLIC "-//W3C//DTD SVG 1.1//EN" "http://www.w3.org/Graphics/SVG/1.1/DTD/svg11.dtd">
<!-- Generated by Microsoft Visio, SVG Export Publish.svg Page-1 -->
<svg xmlns="http://www.w3.org/2000/svg" xmlns:xlink="http://www.w3.org/1999/xlink" xmlns:ev="http://www.w3.org/2001/xml-events"
		xmlns:v="http://schemas.microsoft.com/visio/2003/SVGExtensions/" width="1.07812in" height="0.921875in"
		viewBox="0 0 77.625 66.375" xml:space="preserve" color-interpolation-filters="sRGB" class="st3">
	<v:documentProperties v:langID="4108" v:metric="true" v:viewMarkup="false"/>

	<style type="text/css">
	<![CDATA[
		.st1 {fill:#ffffff;stroke:none;stroke-linecap:butt;stroke-width:0.75}
		.st2 {fill:#515150;stroke:none;stroke-linecap:butt;stroke-width:0.75}
		.st3 {fill:none;fill-rule:evenodd;font-size:12px;overflow:visible;stroke-linecap:square;stroke-miterlimit:3}
	]]>
	</style>

	<g v:mID="0" v:index="1" v:groupContext="foregroundPage">
		<title>Page-1</title>
		<v:pageProperties v:drawingScale="0.0393701" v:pageScale="0.0393701" v:drawingUnits="24" v:shadowOffsetX="8.50394"
				v:shadowOffsetY="-8.50394"/>
		<v:layer v:name="symbols" v:index="0"/>
		<g id="group1293-1" transform="translate(11.625,-3.5625)" v:mID="1293" v:groupContext="group" v:layerMember="0">
			<title>Publish</title>
			<g id="group1294-2" v:mID="1294" v:groupContext="group" v:layerMember="0">
				<title>Sheet.1294</title>
				<g id="group1295-3" transform="translate(0,-7.5)" v:mID="1295" v:groupContext="group" v:layerMember="0">
					<title>Sheet.1295</title>
					<g id="group1296-4" v:mID="1296" v:groupContext="group" v:layerMember="0">
						<title>Sheet.1296</title>
						<g id="shape1297-5" v:mID="1297" v:groupContext="shape" v:layerMember="0">
							<title>Sheet.1297</title>
							<path d="M5.25 66.38 C2.32 66.38 0 64.05 0 61.13 L0 26.63 C0 23.7 2.32 21.38 5.25 21.38 L50.25 21.38
										 C53.17 21.38 55.5 23.7 55.5 26.63 L55.5 61.13 C55.5 64.05 53.17 66.38 50.25 66.38 L5.25
										 66.38 Z" class="st1"/>
						</g>
						<g id="shape1298-7" v:mID="1298" v:groupContext="shape" v:layerMember="0" transform="translate(2.25,-2.25)">
							<title>Sheet.1298</title>
							<path d="M48 25.88 L3 25.88 C1.35 25.88 0 27.23 0 28.88 L0 63.38 C0 65.03 1.35 66.38 3 66.38 L48 66.38
										 C49.65 66.38 51 65.03 51 63.38 L51 28.88 C51 27.23 49.65 25.88 48 25.88 ZM42 28.13 L44.25
										 28.13 L44.25 30.38 L42 30.38 L42 28.13 ZM37.5 28.13 L39.75 28.13 L39.75 30.38 L37.5 30.38
										 L37.5 28.13 ZM48.75 63.38 C48.75 63.83 48.45 64.13 48 64.13 L3 64.13 C2.55 64.13 2.25 63.83
										 2.25 63.38 L2.25 33.38 L48.75 33.38 L48.75 63.38 ZM48.75 30.38 L46.5 30.38 L46.5 28.13 L48.75
										 28.13 L48.75 30.38 Z" class="st2"/>
						</g>
					</g>
					<g id="group1299-9" transform="translate(12,-8.25)" v:mID="1299" v:groupContext="group" v:layerMember="0">
						<title>Sheet.1299</title>
						<g id="group1300-10" v:mID="1300" v:groupContext="group" v:layerMember="0">
							<title>Sheet.1300</title>
							<g id="shape1301-11" v:mID="1301" v:groupContext="shape" v:layerMember="0"
									transform="translate(10.5,-16.5)">
								<title>Sheet.1301</title>
								<rect x="0" y="59.625" width="10.5" height="6.75" class="st2"/>
							</g>
							<g id="shape1302-13" v:mID="1302" v:groupContext="shape" v:layerMember="0"
									transform="translate(11.25,-1.13687E-13)">
								<title>Sheet.1302</title>
								<rect x="0" y="60.375" width="9" height="6" class="st2"/>
							</g>
							<g id="shape1303-15" v:mID="1303" v:groupContext="shape" v:layerMember="0"
									transform="translate(22.5,-1.13687E-13)">
								<title>Sheet.1303</title>
								<rect x="0" y="60.375" width="9" height="6" class="st2"/>
							</g>
							<g id="shape1304-17" v:mID="1304" v:groupContext="shape" v:layerMember="0">
								<title>Sheet.1304</title>
								<rect x="0" y="60.375" width="9" height="6" class="st2"/>
							</g>
							<g id="shape1305-19" v:mID="1305" v:groupContext="shape" v:layerMember="0" transform="translate(15,-6)">
								<title>Sheet.1305</title>
								<rect x="0" y="55.125" width="1.5" height="11.25" class="st2"/>
							</g>
							<g id="shape1306-21" v:mID="1306" v:groupContext="shape" v:layerMember="0"
									transform="translate(4.5,-10.5)">
								<title>Sheet.1306</title>
								<rect x="0" y="64.875" width="22.5" height="1.5" class="st2"/>
							</g>
						</g>
						<g id="shape1307-23" v:mID="1307" v:groupContext="shape" v:layerMember="0"
								transform="translate(3.75,-5.25)">
							<title>Sheet.1307</title>
							<rect x="0" y="59.625" width="1.5" height="6.75" class="st2"/>
						</g>
						<g id="shape1308-25" v:mID="1308" v:groupContext="shape" v:layerMember="0"
								transform="translate(26.25,-5.25)">
							<title>Sheet.1308</title>
							<rect x="0" y="59.625" width="1.5" height="6.75" class="st2"/>
						</g>
					</g>
				</g>
				<g id="group1309-27" transform="translate(29.25,2.55795E-13)" v:mID="1309" v:groupContext="group" v:layerMember="0">
					<title>Sheet.1309</title>
					<g id="shape1310-28" v:mID="1310" v:groupContext="shape" v:layerMember="0">
						<title>Sheet.1310</title>
						<path d="M32.25 56.63 L32.25 49.73 L24 41.48 L23.17 42.3 L23.1 42.23 C20.55 39.98 17.25 38.7 13.88 38.7 C6.22
									 38.63 0 44.85 0 52.5 C0 60.15 6.22 66.38 13.88 66.38 C20.63 66.38 26.32 61.5 27.52 55.05 L29.1
									 56.63 L32.25 56.63 Z" class="st1"/>
					</g>
					<g id="shape1311-30" v:mID="1311" v:groupContext="shape" v:layerMember="0" transform="translate(2.25,-2.25)">
						<title>Sheet.1311</title>
						<path d="M21.75 46.88 L15.75 52.88 L15.75 56.63 L20.25 52.13 L20.25 54.75 C20.25 59.48 16.35 63.38 11.63
									 63.38 C6.9 63.38 3 59.48 3 54.75 C3 50.03 6.9 46.13 11.63 46.13 C13.8 46.13 15.75 46.95 17.25
									 48.23 L19.35 46.13 C17.32 44.33 14.63 43.2 11.63 43.2 C5.18 43.13 0 48.3 0 54.75 C-0 61.2 5.18
									 66.38 11.63 66.38 C18 66.38 23.18 61.2 23.25 54.83 L23.25 52.13 L27.75 56.63 L27.75 52.88 L21.75
									 46.88 Z" class="st2"/>
					</g>
				</g>
			</g>
		</g>
	</g>
</svg>
