<?xml version="1.0" encoding="UTF-8" standalone="no"?>
<!DOCTYPE svg PUBLIC "-//W3C//DTD SVG 1.1//EN" "http://www.w3.org/Graphics/SVG/1.1/DTD/svg11.dtd">
<!-- Generated by Microsoft Visio, SVG Export Remote Access.svg Page-1 -->
<svg xmlns="http://www.w3.org/2000/svg" xmlns:xlink="http://www.w3.org/1999/xlink" xmlns:ev="http://www.w3.org/2001/xml-events"
		xmlns:v="http://schemas.microsoft.com/visio/2003/SVGExtensions/" width="1.05547in" height="0.8125in"
		viewBox="0 0 75.9937 58.5" xml:space="preserve" color-interpolation-filters="sRGB" class="st3">
	<v:documentProperties v:langID="4108" v:metric="true" v:viewMarkup="false"/>

	<style type="text/css">
	<![CDATA[
		.st1 {fill:#ffffff;stroke:none;stroke-linecap:butt;stroke-width:0.75}
		.st2 {fill:#515251;stroke:none;stroke-linecap:butt;stroke-width:0.75}
		.st3 {fill:none;fill-rule:evenodd;font-size:12px;overflow:visible;stroke-linecap:square;stroke-miterlimit:3}
	]]>
	</style>

	<g v:mID="0" v:index="1" v:groupContext="foregroundPage">
		<title>Page-1</title>
		<v:pageProperties v:drawingScale="0.0393701" v:pageScale="0.0393701" v:drawingUnits="24" v:shadowOffsetX="8.50394"
				v:shadowOffsetY="-8.50394"/>
		<v:layer v:name="symbols" v:index="0"/>
		<g id="group1312-1" transform="translate(4.80938,-3.75)" v:mID="1312" v:groupContext="group" v:layerMember="0">
			<title>Remote Access</title>
			<g id="group1313-2" v:mID="1313" v:groupContext="group" v:layerMember="0">
				<title>Sheet.1313</title>
				<g id="group1314-3" transform="translate(3.19744E-13,-6.375)" v:mID="1314" v:groupContext="group" v:layerMember="0">
					<title>Sheet.1314</title>
					<g id="shape1315-4" v:mID="1315" v:groupContext="shape" v:layerMember="0">
						<title>Sheet.1315</title>
						<path d="M5.55 58.5 C3.08 58.5 1.2 57.52 0.52 55.8 C0 54.52 0.3 53.1 1.28 52.12 C2.18 51.22 3.67 49.72 4.72
									 48.6 L4.72 24.75 C4.72 21.82 7.05 19.5 9.98 19.5 L51.22 19.5 C54.15 19.5 56.47 21.82 56.47 24.75
									 L56.47 48.6 C57.6 49.72 59.1 51.22 59.92 52.12 C60.97 53.17 61.27 54.52 60.67 55.8 C60.07 57.52
									 58.2 58.5 55.8 58.5 L5.55 58.5 Z" class="st1"/>
					</g>
					<g id="shape1316-6" v:mID="1316" v:groupContext="shape" v:layerMember="0" transform="translate(1.95,-2.25)">
						<title>Sheet.1316</title>
						<path d="M56.47 55.95 C55.42 54.9 53.4 52.87 52.35 51.75 C52.35 51.75 52.35 51.75 52.35 51.75 L52.35 27 C52.35
									 25.35 51 24 49.35 24 L8.1 24 C6.45 24 5.1 25.35 5.1 27 L5.1 51.75 C5.1 51.75 5.1 51.75 5.1 51.75
									 C4.05 52.87 2.03 54.9 0.97 55.95 C0 57 0.97 58.5 3.6 58.5 L53.85 58.5 C56.47 58.5 57.52 57 56.47
									 55.95 ZM8.1 27 L49.35 27 L49.35 51 L8.1 51 L8.1 27 ZM33.22 56.32 C24.3 56.32 24.3 56.32 24.3
									 56.32 C23.85 56.32 23.4 56.17 23.4 55.95 C24.45 54.3 24.45 54.3 24.45 54.3 C24.45 54.15 24.82
									 54 25.2 54 C32.1 54 32.32 54 32.32 54 C32.7 54 33 54.15 33 54.3 C34.12 55.95 34.12 55.95 34.12
									 55.95 C34.05 56.17 33.67 56.32 33.22 56.32 Z" class="st2"/>
					</g>
				</g>
				<g id="group1317-8" transform="translate(44.55,2.34479E-13)" v:mID="1317" v:groupContext="group" v:layerMember="0">
					<title>Sheet.1317</title>
					<g id="shape1318-9" v:mID="1318" v:groupContext="shape" v:layerMember="0">
						<title>Sheet.1318</title>
						<path d="M4.57 54.15 L8.55 58.5 L10.5 58.5 L15.68 53.1 L13.5 50.85 L15 49.27 L14.78 47.32 L13.2 45.6 L14.18
									 44.4 L14.18 42.07 C16.95 40.42 18.68 37.42 18.68 34.05 C18.68 28.87 14.48 24.67 9.3 24.67 C4.2
									 24.75 0 28.95 0 34.12 C-0 37.5 1.73 40.5 4.57 42.15 L4.57 54.15 Z" class="st1"/>
					</g>
					<g id="shape1319-11" v:mID="1319" v:groupContext="shape" v:layerMember="0" transform="translate(2.25,-2.175)">
						<title>Sheet.1319</title>
						<path d="M9.75 45 L9.75 42.9 C12.38 41.85 14.25 39.3 14.25 36.3 C14.25 32.4 11.03 29.17 7.13 29.17 C3.22
									 29.17 0 32.4 0 36.3 C0 39.3 1.87 41.92 4.58 42.97 L4.58 55.5 L7.35 58.5 L10.43 55.35 L8.25 53.1
									 L10.5 50.7 L10.5 50.55 L8.03 47.92 L9.75 45.82 L9.75 45 ZM7.13 32.17 C8.18 32.17 9 33 9 34.05
									 C9 35.1 8.18 35.92 7.13 35.92 C6.07 35.92 5.25 35.1 5.25 34.05 C5.25 33 6.07 32.17 7.13 32.17
									 Z" class="st2"/>
					</g>
				</g>
				<g id="group1320-13" transform="translate(21.9,-21.75)" v:mID="1320" v:groupContext="group" v:layerMember="0">
					<title>Sheet.1320</title>
					<g id="shape1321-14" v:mID="1321" v:groupContext="shape" v:layerMember="0" transform="translate(3.3,-5.175)">
						<title>Sheet.1321</title>
						<path d="M9.9 58.5 L10.95 57.45 C9.75 55.8 7.72 54.67 5.48 54.67 C3.23 54.67 1.2 55.8 0 57.45 L1.05 58.5
									 C2.02 57.07 3.6 56.1 5.48 56.1 C7.35 56.17 9 57.15 9.9 58.5 Z" class="st2"/>
					</g>
					<g id="shape1322-16" v:mID="1322" v:groupContext="shape" v:layerMember="0" transform="translate(0,-8.325)">
						<title>Sheet.1322</title>
						<path d="M1.2 58.5 C3 56.25 5.7 54.82 8.78 54.82 C11.85 54.82 14.55 56.25 16.35 58.5 L17.4 57.45 C15.3 54.97
									 12.22 53.4 8.7 53.4 C5.18 53.4 2.1 54.97 0 57.45 L1.2 58.5 Z" class="st2"/>
					</g>
					<g id="shape1323-18" v:mID="1323" v:groupContext="shape" v:layerMember="0" transform="translate(6.6,0)">
						<title>Sheet.1323</title>
						<ellipse cx="2.25" cy="56.25" rx="2.25" ry="2.25" class="st2"/>
					</g>
				</g>
			</g>
		</g>
	</g>
</svg>
