<?xml version="1.0" encoding="UTF-8" standalone="no"?>
<!DOCTYPE svg PUBLIC "-//W3C//DTD SVG 1.1//EN" "http://www.w3.org/Graphics/SVG/1.1/DTD/svg11.dtd">
<!-- Generated by Microsoft Visio, SVG Export Script.svg Page-1 -->
<svg xmlns="http://www.w3.org/2000/svg" xmlns:xlink="http://www.w3.org/1999/xlink" xmlns:ev="http://www.w3.org/2001/xml-events"
		xmlns:v="http://schemas.microsoft.com/visio/2003/SVGExtensions/" width="0.828125in" height="0.984375in"
		viewBox="0 0 59.625 70.875" xml:space="preserve" color-interpolation-filters="sRGB" class="st3">
	<v:documentProperties v:langID="4108" v:metric="true" v:viewMarkup="false"/>

	<style type="text/css">
	<![CDATA[
		.st1 {fill:#ffffff;stroke:none;stroke-linecap:butt;stroke-width:0.75}
		.st2 {fill:#515150;stroke:none;stroke-linecap:butt;stroke-width:0.75}
		.st3 {fill:none;fill-rule:evenodd;font-size:12px;overflow:visible;stroke-linecap:square;stroke-miterlimit:3}
	]]>
	</style>

	<g v:mID="0" v:index="1" v:groupContext="foregroundPage">
		<title>Page-1</title>
		<v:pageProperties v:drawingScale="0.0393701" v:pageScale="0.0393701" v:drawingUnits="24" v:shadowOffsetX="8.50394"
				v:shadowOffsetY="-8.50394"/>
		<v:layer v:name="symbols" v:index="0"/>
		<g id="group1324-1" transform="translate(2.1,-8.8125)" v:mID="1324" v:groupContext="group" v:layerMember="0">
			<title>Script</title>
			<g id="group1325-2" v:mID="1325" v:groupContext="group" v:layerMember="0">
				<title>Sheet.1325</title>
				<g id="shape1326-3" v:mID="1326" v:groupContext="shape" v:layerMember="0">
					<title>Sheet.1326</title>
					<path d="M8.17 70.88 C8.17 70.88 8.17 70.88 8.17 70.88 L8.4 70.88 L39.38 70.88 C44.03 70.5 47.63 66.6 47.63 61.95
								 L47.63 33.38 L48.37 33.38 L48.98 33.38 C53.25 33.23 56.62 29.78 56.62 25.5 C56.62 21.23 53.18 17.7
								 48.9 17.63 L48.83 17.63 L16.87 17.63 C11.93 17.63 7.88 21.68 7.88 26.63 L7.88 54.38 C3.52 54.6 0
								 58.2 0 62.63 C0 66.9 3.3 70.43 7.5 70.8 L8.17 70.88 Z" class="st1"/>
				</g>
				<g id="shape1327-5" v:mID="1327" v:groupContext="shape" v:layerMember="0" transform="translate(47.625,-39.375)">
					<title>Sheet.1327</title>
					<path d="M6.23 61.58 L3.9 61.58 C1.73 61.58 0 63.3 0 65.48 L0 70.88 L0.82 70.88 C4.28 70.88 7.05 68.1 7.05 64.65
								 C7.05 63.53 6.75 62.48 6.23 61.58 Z" class="st2"/>
				</g>
				<g id="shape1328-7" v:mID="1328" v:groupContext="shape" v:layerMember="0" transform="translate(10.125,-2.175)">
					<title>Sheet.1328</title>
					<path d="M35.25 27.9 C35.4 25.05 37.58 22.65 40.43 22.28 C40.43 22.28 40.5 22.28 40.5 22.28 C40.05 22.13 39.53
								 22.13 39.07 22.13 C38.92 22.13 38.85 22.13 38.78 22.13 C38.78 22.13 38.7 22.13 38.7 22.13 L36.75
								 22.13 L34.5 22.13 L13.12 22.13 L6.75 22.13 C3 22.13 0 25.13 0 28.88 L0 56.55 L25.5 56.55 C26.55
								 56.55 27.38 57.45 27.38 58.5 C27.38 59.25 26.92 59.55 26.92 59.55 C24.98 60.53 23.62 62.55 23.62
								 64.88 C23.62 68.1 26.18 70.73 29.4 70.88 C32.7 70.43 35.25 67.65 35.32 64.2 L35.32 27.9 L35.25 27.9
								 Z" class="st2"/>
				</g>
				<g id="shape1329-9" v:mID="1329" v:groupContext="shape" v:layerMember="0" transform="translate(2.175,-2.25)">
					<title>Sheet.1329</title>
					<path d="M31.88 70.88 C30.3 69.38 29.33 67.28 29.33 64.88 C29.33 62.55 30.3 60.45 31.88 58.88 L6 58.88 C2.7 58.88
								 0 61.58 0 64.88 C0 68.18 2.7 70.88 6 70.88 L31.88 70.88 Z" class="st2"/>
				</g>
			</g>
			<g id="group1330-11" transform="translate(17.625,-23.25)" v:mID="1330" v:groupContext="group" v:layerMember="0">
				<title>Sheet.1330</title>
				<g id="shape1331-12" v:mID="1331" v:groupContext="shape" v:layerMember="0" transform="translate(0,-12)">
					<title>Sheet.1331</title>
					<rect x="0" y="68.625" width="20.25" height="2.25" class="st1"/>
				</g>
				<g id="shape1332-14" v:mID="1332" v:groupContext="shape" v:layerMember="0" transform="translate(0,-6)">
					<title>Sheet.1332</title>
					<rect x="0" y="68.625" width="20.25" height="2.25" class="st1"/>
				</g>
				<g id="shape1333-16" v:mID="1333" v:groupContext="shape" v:layerMember="0">
					<title>Sheet.1333</title>
					<rect x="0" y="68.625" width="20.25" height="2.25" class="st1"/>
				</g>
			</g>
		</g>
	</g>
</svg>
