<?xml version="1.0" encoding="UTF-8" standalone="no"?>
<!DOCTYPE svg PUBLIC "-//W3C//DTD SVG 1.1//EN" "http://www.w3.org/Graphics/SVG/1.1/DTD/svg11.dtd">
<!-- Generated by Microsoft Visio, SVG Export Search.svg Page-1 -->
<svg xmlns="http://www.w3.org/2000/svg" xmlns:xlink="http://www.w3.org/1999/xlink" xmlns:ev="http://www.w3.org/2001/xml-events"
		xmlns:v="http://schemas.microsoft.com/visio/2003/SVGExtensions/" width="0.884375in" height="0.875in"
		viewBox="0 0 63.675 63" xml:space="preserve" color-interpolation-filters="sRGB" class="st3">
	<v:documentProperties v:langID="4108" v:metric="true" v:viewMarkup="false"/>

	<style type="text/css">
	<![CDATA[
		.st1 {fill:#ffffff;stroke:none;stroke-linecap:butt;stroke-width:0.75}
		.st2 {fill:#515150;stroke:none;stroke-linecap:butt;stroke-width:0.75}
		.st3 {fill:none;fill-rule:evenodd;font-size:12px;overflow:visible;stroke-linecap:square;stroke-miterlimit:3}
	]]>
	</style>

	<g v:mID="0" v:index="1" v:groupContext="foregroundPage">
		<title>Page-1</title>
		<v:pageProperties v:drawingScale="0.0393701" v:pageScale="0.0393701" v:drawingUnits="24" v:shadowOffsetX="8.50394"
				v:shadowOffsetY="-8.50394"/>
		<v:layer v:name="symbols" v:index="0"/>
		<g id="group1334-1" transform="translate(0.853125,-1.3125)" v:mID="1334" v:groupContext="group" v:layerMember="0">
			<title>Search</title>
			<g id="group1335-2" v:mID="1335" v:groupContext="group" v:layerMember="0">
				<title>Sheet.1335</title>
				<g id="shape1336-3" v:mID="1336" v:groupContext="shape" v:layerMember="0">
					<title>Sheet.1336</title>
					<path d="M6 63 C4.42 63 3 62.4 1.88 61.35 C0.6 60.07 0 58.27 0.22 56.47 C0.37 54.97 1.12 53.47 2.18 52.5 L13.57
								 41.1 C14.55 40.12 15.9 39.45 17.32 39.22 C15.6 36.3 14.7 33 14.7 29.55 C14.7 19.05 23.25 10.5 33.75
								 10.5 C44.25 10.5 52.8 19.05 52.8 29.55 C52.8 40.05 44.25 48.45 33.82 48.45 C30.37 48.45 27.07 47.55
								 24.15 45.82 C23.92 47.25 23.25 48.6 22.27 49.57 L10.8 61.05 C9.6 62.25 7.8 63 6 63 Z" class="st1"/>
				</g>
				<g id="shape1337-5" v:mID="1337" v:groupContext="shape" v:layerMember="0" transform="translate(2.4,-2.175)">
					<title>Sheet.1337</title>
					<path d="M31.42 14.85 C22.12 14.85 14.62 22.35 14.62 31.65 C14.62 35.47 15.98 39.07 18.15 41.92 L16.5 43.57 C16.35
								 43.57 16.2 43.5 16.05 43.5 C14.85 43.5 13.65 44.02 12.82 44.77 L1.42 56.17 C0.75 56.85 0.22 57.9
								 0.15 58.87 C0 60.07 0.37 61.12 1.13 61.95 C1.8 62.62 2.7 63 3.67 63 C4.8 63 6.07 62.47 6.9 61.65
								 L18.22 50.17 C18.98 49.42 19.42 48.45 19.5 47.4 C19.5 47.1 19.5 46.8 19.5 46.5 L21.15 44.85 C24
								 47.02 27.52 48.37 31.42 48.37 C40.72 48.37 48.22 40.87 48.22 31.57 C48.15 22.35 40.65 14.85 31.42
								 14.85 ZM31.35 45.37 C23.77 45.37 17.55 39.22 17.55 31.57 C17.55 23.92 23.7 17.77 31.35 17.77 C38.92
								 17.77 45.15 23.92 45.15 31.57 C45.15 39.22 39 45.37 31.35 45.37 Z" class="st2"/>
				</g>
			</g>
		</g>
	</g>
</svg>
