<?xml version="1.0" encoding="UTF-8" standalone="no"?>
<!DOCTYPE svg PUBLIC "-//W3C//DTD SVG 1.1//EN" "http://www.w3.org/Graphics/SVG/1.1/DTD/svg11.dtd">
<!-- Generated by Microsoft Visio, SVG Export Service Application.svg Page-1 -->
<svg xmlns="http://www.w3.org/2000/svg" xmlns:xlink="http://www.w3.org/1999/xlink" xmlns:ev="http://www.w3.org/2001/xml-events"
		xmlns:v="http://schemas.microsoft.com/visio/2003/SVGExtensions/" width="1.14062in" height="0.890625in"
		viewBox="0 0 82.125 64.125" xml:space="preserve" color-interpolation-filters="sRGB" class="st3">
	<v:documentProperties v:langID="4108" v:metric="true" v:viewMarkup="false"/>

	<style type="text/css">
	<![CDATA[
		.st1 {fill:#ffffff;stroke:none;stroke-linecap:butt;stroke-width:0.75}
		.st2 {fill:#515150;stroke:none;stroke-linecap:butt;stroke-width:0.75}
		.st3 {fill:none;fill-rule:evenodd;font-size:12px;overflow:visible;stroke-linecap:square;stroke-miterlimit:3}
	]]>
	</style>

	<g v:mID="0" v:index="1" v:groupContext="foregroundPage">
		<title>Page-1</title>
		<v:pageProperties v:drawingScale="0.0393701" v:pageScale="0.0393701" v:drawingUnits="24" v:shadowOffsetX="8.50394"
				v:shadowOffsetY="-8.50394"/>
		<v:layer v:name="symbols" v:index="0"/>
		<g id="group1342-1" transform="translate(10.3781,-2.4375)" v:mID="1342" v:groupContext="group" v:layerMember="0">
			<title>Service Application</title>
			<g id="group1343-2" v:mID="1343" v:groupContext="group" v:layerMember="0">
				<title>Sheet.1343</title>
				<g id="group1344-3" transform="translate(0,-7.5)" v:mID="1344" v:groupContext="group" v:layerMember="0">
					<title>Sheet.1344</title>
					<g id="shape1345-4" v:mID="1345" v:groupContext="shape" v:layerMember="0">
						<title>Sheet.1345</title>
						<path d="M5.25 64.12 C2.32 64.12 0 61.8 0 58.87 L0 24.37 C0 21.45 2.32 19.12 5.25 19.12 L52.5 19.12 C55.42
									 19.12 57.75 21.45 57.75 24.37 L57.75 58.87 C57.75 61.8 55.42 64.12 52.5 64.12 L5.25 64.12 Z"
								class="st1"/>
					</g>
					<g id="shape1346-6" v:mID="1346" v:groupContext="shape" v:layerMember="0" transform="translate(2.25,-2.25)">
						<title>Sheet.1346</title>
						<path d="M50.25 23.62 L3 23.62 C1.35 23.62 0 24.97 0 26.62 L0 61.12 C-0 62.77 1.35 64.12 3 64.12 L50.25 64.12
									 C51.9 64.12 53.25 62.77 53.25 61.12 L53.25 26.62 C53.25 24.97 51.9 23.62 50.25 23.62 ZM44.25
									 25.87 L46.5 25.87 L46.5 28.12 L44.25 28.12 L44.25 25.87 ZM39.75 25.87 L42 25.87 L42 28.12 L39.75
									 28.12 L39.75 25.87 ZM51 61.12 C51 61.57 50.7 61.87 50.25 61.87 L3 61.87 C2.55 61.87 2.25 61.57
									 2.25 61.12 L2.25 31.12 L51 31.12 L51 61.12 ZM51 28.12 L48.75 28.12 L48.75 25.87 L51 25.87 L51
									 28.12 Z" class="st2"/>
					</g>
				</g>
				<g id="group1347-8" transform="translate(30.075,-2.55795E-13)" v:mID="1347" v:groupContext="group"
						v:layerMember="0">
					<title>Sheet.1347</title>
					<g id="shape1348-9" v:mID="1348" v:groupContext="shape" v:layerMember="0">
						<title>Sheet.1348</title>
						<path d="M20.85 64.12 C19.65 64.12 18.52 63.37 18.07 62.25 L17.4 60.67 C17.25 60.67 17.02 60.67 16.8 60.67
									 C16.57 60.67 16.35 60.67 16.12 60.67 L15.45 62.25 C15.07 63.37 13.95 64.12 12.75 64.12 C12.38
									 64.12 11.93 64.05 11.62 63.9 L8.77 62.7 C8.03 62.4 7.42 61.8 7.12 61.05 C6.83 60.3 6.83 59.47
									 7.12 58.72 L7.8 57.15 L6.97 56.32 L5.4 57 C5.03 57.15 4.65 57.22 4.27 57.22 C3.07 57.22 1.95
									 56.47 1.5 55.35 L0.3 52.5 C-0 51.75 -0 50.92 0.3 50.17 C0.6 49.42 1.2 48.82 1.95 48.52 L3.52
									 47.85 L3.52 46.65 L1.95 45.97 C1.2 45.68 0.6 45.07 0.3 44.32 C-0 43.57 -0 42.75 0.3 42 L1.5
									 39.15 C1.95 38.02 3.07 37.27 4.27 37.27 C4.65 37.27 5.03 37.35 5.4 37.5 L6.97 38.17 L7.8 37.35
									 L7.12 35.77 C6.83 35.02 6.83 34.2 7.12 33.45 C7.42 32.7 8.03 32.1 8.77 31.8 L11.62 30.6 C12
									 30.45 12.38 30.37 12.75 30.37 C13.95 30.37 15.07 31.12 15.52 32.25 L16.12 33.75 C16.28 33.75
									 16.5 33.75 16.72 33.75 C16.95 33.75 17.17 33.75 17.4 33.75 L18 32.17 C18.45 31.05 19.57 30.3
									 20.77 30.3 C21.15 30.3 21.52 30.37 21.9 30.52 L24.75 31.72 C25.5 32.02 26.1 32.62 26.4 33.37
									 C26.7 34.12 26.7 34.95 26.4 35.7 L25.72 37.27 L26.55 38.1 L28.12 37.42 C28.5 37.27 28.87 37.2
									 29.25 37.2 C30.45 37.2 31.57 37.95 32.02 39.07 L33.22 41.92 C33.52 42.68 33.52 43.5 33.22 44.25
									 C32.92 45 32.32 45.6 31.57 45.9 L30 46.57 L30 47.77 L31.57 48.45 C33.15 49.12 33.82 50.85 33.22
									 52.42 L32.02 55.27 C31.57 56.4 30.45 57.15 29.25 57.15 C28.87 57.15 28.42 57.07 28.05 56.92
									 L26.47 56.25 L25.65 57.07 L26.32 58.65 C26.62 59.4 26.62 60.22 26.32 60.97 C26.02 61.72 25.42
									 62.32 24.67 62.62 L21.82 63.82 C21.67 64.05 21.22 64.12 20.85 64.12 Z" class="st1"/>
					</g>
					<g id="shape1349-11" v:mID="1349" v:groupContext="shape" v:layerMember="0" transform="translate(2.025,-2.1)">
						<title>Sheet.1349</title>
						<path d="M28.95 52.72 L26.55 51.75 C26.17 51.6 25.87 51.37 25.87 51.3 C25.87 51.22 25.95 50.77 25.95 50.4
									 L25.95 48.45 C25.95 48 25.87 47.62 25.87 47.55 C25.87 47.47 26.17 47.25 26.55 47.1 L28.95 46.12
									 C29.32 45.97 29.55 45.52 29.4 45.07 L28.2 42.22 C28.05 41.85 27.6 41.63 27.15 41.77 L24.75 42.75
									 C24.37 42.9 24 42.97 23.92 42.9 C23.85 42.82 23.62 42.52 23.32 42.15 L21.9 40.8 C21.6 40.5 21.22
									 40.27 21.22 40.2 C21.15 40.12 21.22 39.82 21.37 39.37 L22.35 36.97 C22.5 36.6 22.35 36.15 21.9
									 35.92 L19.05 34.72 C18.67 34.57 18.22 34.72 18 35.17 L17.02 37.57 C16.87 37.95 16.65 38.25 16.57
									 38.25 C16.5 38.25 16.05 38.17 15.67 38.1 C15.67 38.1 15.3 38.02 14.7 38.02 C14.1 38.02 13.72
									 38.1 13.72 38.1 C13.27 38.17 12.9 38.17 12.82 38.25 C12.75 38.25 12.52 37.95 12.37 37.57 L11.4
									 35.17 C11.25 34.8 10.8 34.57 10.35 34.72 L7.5 35.92 C7.13 36.08 6.9 36.53 7.05 36.97 L8.02 39.37
									 C8.17 39.75 8.25 40.12 8.17 40.2 C8.1 40.27 7.8 40.5 7.5 40.8 L6.07 42.22 C5.77 42.52 5.55 42.9
									 5.47 42.97 C5.4 43.05 5.1 42.97 4.65 42.82 L2.4 41.7 C2.02 41.55 1.57 41.7 1.35 42.15 L0.15
									 45 C0 45.37 0.15 45.82 0.6 46.05 L3 47.02 C3.37 47.17 3.67 47.4 3.67 47.47 C3.67 47.55 3.6 48
									 3.6 48.37 L3.6 50.32 C3.6 50.77 3.67 51.15 3.67 51.22 C3.67 51.3 3.37 51.52 3 51.67 L0.6 52.72
									 C0.23 52.87 0 53.32 0.15 53.77 L1.35 56.62 C1.5 57 1.95 57.22 2.4 57.07 L4.8 56.1 C5.17 55.95
									 5.55 55.87 5.62 55.95 C5.7 56.02 5.92 56.32 6.22 56.7 L7.65 58.05 C7.95 58.35 8.32 58.57 8.4
									 58.65 C8.47 58.72 8.4 59.1 8.25 59.47 L7.12 61.72 C6.98 62.1 7.13 62.55 7.57 62.77 L10.42 63.97
									 C10.8 64.12 11.25 63.97 11.47 63.52 L12.45 61.12 C12.6 60.75 12.82 60.45 12.9 60.45 C12.97 60.45
									 13.42 60.52 13.8 60.6 C13.8 60.6 14.17 60.67 14.77 60.67 C15.37 60.67 15.75 60.6 15.75 60.6
									 C16.2 60.52 16.57 60.52 16.65 60.45 C16.72 60.45 16.95 60.75 17.1 61.12 L18.07 63.52 C18.22
									 63.9 18.67 64.12 19.12 63.97 L21.97 62.77 C22.35 62.62 22.57 62.17 22.42 61.72 L21.45 59.32
									 C21.3 58.95 21.22 58.57 21.3 58.5 C21.37 58.42 21.67 58.2 22.05 57.9 L23.47 56.47 C23.77 56.17
									 24 55.8 24.07 55.72 C24.15 55.65 24.45 55.72 24.9 55.87 L27.3 56.85 C27.67 57 28.12 56.85 28.35
									 56.4 L29.55 53.55 C29.47 53.32 29.32 52.87 28.95 52.72 ZM14.77 57.07 C10.5 57.07 7.05 53.62
									 7.05 49.35 C7.05 45.07 10.5 41.63 14.77 41.62 C19.05 41.63 22.5 45.07 22.5 49.35 C22.5 53.62
									 19.05 57.07 14.77 57.07 Z" class="st2"/>
					</g>
				</g>
			</g>
		</g>
	</g>
</svg>
