<?xml version="1.0" encoding="UTF-8" standalone="no"?>
<!DOCTYPE svg PUBLIC "-//W3C//DTD SVG 1.1//EN" "http://www.w3.org/Graphics/SVG/1.1/DTD/svg11.dtd">
<!-- Generated by Microsoft Visio, SVG Export Settings, Office 365.svg Page-1 -->
<svg xmlns="http://www.w3.org/2000/svg" xmlns:xlink="http://www.w3.org/1999/xlink" xmlns:ev="http://www.w3.org/2001/xml-events"
		xmlns:v="http://schemas.microsoft.com/visio/2003/SVGExtensions/" width="0.9375in" height="0.953125in"
		viewBox="0 0 67.5 68.625" xml:space="preserve" color-interpolation-filters="sRGB" class="st3">
	<v:documentProperties v:langID="4108" v:metric="true" v:viewMarkup="false"/>

	<style type="text/css">
	<![CDATA[
		.st1 {fill:#ffffff;stroke:none;stroke-linecap:butt;stroke-width:0.75}
		.st2 {fill:#505050;stroke:none;stroke-linecap:butt;stroke-width:0.75}
		.st3 {fill:none;fill-rule:evenodd;font-size:12px;overflow:visible;stroke-linecap:square;stroke-miterlimit:3}
	]]>
	</style>

	<g v:mID="0" v:index="1" v:groupContext="foregroundPage">
		<title>Page-1</title>
		<v:pageProperties v:drawingScale="0.0393701" v:pageScale="0.0393701" v:drawingUnits="24" v:shadowOffsetX="8.50394"
				v:shadowOffsetY="-8.50394"/>
		<v:layer v:name="symbols" v:index="0"/>
		<g id="group1354-1" transform="translate(7.05,-7.6125)" v:mID="1354" v:groupContext="group" v:layerMember="0">
			<title>Settings, Office 365</title>
			<g id="group1355-2" v:mID="1355" v:groupContext="group" v:layerMember="0">
				<title>Sheet.1355</title>
				<g id="shape1356-3" v:mID="1356" v:groupContext="shape" v:layerMember="0">
					<title>Sheet.1356</title>
					<path d="M25.2 61.95 C24.6 61.88 24 61.8 23.33 61.73 L19.12 67.58 L8.62 61.58 L11.47 54.9 C11.1 54.45 10.72 54
								 10.43 53.55 L3.15 54.75 L0 43.13 L6.75 40.43 C6.82 39.83 6.82 39.3 6.97 38.7 L0.98 34.43 L6.97 23.93
								 L13.65 26.78 C14.18 26.33 14.7 25.95 15.22 25.5 L14.1 18.38 L25.72 15.23 L28.35 21.9 C28.95 21.98
								 29.63 22.05 30.22 22.13 L34.43 16.43 L44.92 22.43 L42.07 28.95 C42.52 29.48 42.9 30 43.28 30.53
								 L50.25 29.48 L53.4 41.03 L46.8 43.58 C46.72 44.25 46.65 44.93 46.5 45.6 L52.12 49.73 L46.12 60.23
								 L39.6 57.38 C39.15 57.75 38.7 58.13 38.25 58.43 L39.37 65.48 L27.75 68.63 L25.2 61.95 Z"
							class="st1"/>
				</g>
				<g id="shape1357-5" v:mID="1357" v:groupContext="shape" v:layerMember="0" transform="translate(22.725,-22.65)">
					<title>Sheet.1357</title>
					<path d="M3.97 68.55 C1.8 68.55 0 66.75 0 64.5 C0 62.33 1.8 60.53 4.05 60.53 C6.22 60.53 8.02 62.33 8.02 64.58
								 C7.95 66.83 6.15 68.63 3.97 68.55 Z" class="st2"/>
				</g>
				<g id="shape1358-7" v:mID="1358" v:groupContext="shape" v:layerMember="0" transform="translate(2.7,-2.775)">
					<title>Sheet.1358</title>
					<path d="M41.92 44.85 C41.92 44.85 41.92 44.85 41.92 44.85 L48 42.45 L46.95 38.63 L45.9 34.73 L39.45 35.7 C38.7
								 34.43 37.72 33.23 36.67 32.1 L39.3 26.1 L35.85 24.15 L32.4 22.2 L28.5 27.53 C27.15 27.15 25.72 27
								 24.22 27 C24.22 27 24.15 27 24.15 27 L21.75 20.78 L17.85 21.75 L13.95 22.8 L14.92 29.4 C13.65 30.15
								 12.45 31.13 11.4 32.18 L5.25 29.55 L3.3 33 L1.35 36.45 L6.9 40.43 C6.6 41.78 6.37 43.13 6.37 44.55
								 C6.37 44.63 6.37 44.63 6.37 44.7 L0 47.25 L1.05 51.15 L2.1 55.05 L8.77 53.93 C9.52 55.13 10.42 56.33
								 11.4 57.3 L8.77 63.45 L12.22 65.4 L15.67 67.35 L19.57 61.95 C20.92 62.33 22.42 62.48 23.92 62.48
								 C23.92 62.48 23.92 62.48 24 62.48 L26.47 68.63 L30.37 67.58 L34.27 66.53 L33.22 60 C34.5 59.25 35.62
								 58.43 36.6 57.38 L42.6 60 L44.55 56.55 L46.5 53.1 L41.32 49.28 C41.7 47.93 41.92 46.43 41.92 44.85
								 ZM24 55.43 C18 55.43 13.2 50.55 13.27 44.63 C13.35 38.7 18.15 33.9 24 33.9 C30 33.9 34.8 38.78 34.72
								 44.7 C34.72 50.7 29.92 55.43 24 55.43 Z" class="st2"/>
				</g>
			</g>
		</g>
	</g>
</svg>
