<?xml version="1.0" encoding="UTF-8" standalone="no"?>
<!DOCTYPE svg PUBLIC "-//W3C//DTD SVG 1.1//EN" "http://www.w3.org/Graphics/SVG/1.1/DTD/svg11.dtd">
<!-- Generated by Microsoft Visio, SVG Export Settings.svg Page-1 -->
<svg xmlns="http://www.w3.org/2000/svg" xmlns:xlink="http://www.w3.org/1999/xlink" xmlns:ev="http://www.w3.org/2001/xml-events"
		xmlns:v="http://schemas.microsoft.com/visio/2003/SVGExtensions/" width="0.9375in" height="0.921875in"
		viewBox="0 0 67.5 66.375" xml:space="preserve" color-interpolation-filters="sRGB" class="st3">
	<v:documentProperties v:langID="4108" v:metric="true" v:viewMarkup="false"/>

	<style type="text/css">
	<![CDATA[
		.st1 {fill:#ffffff;stroke:none;stroke-linecap:butt;stroke-width:0.75}
		.st2 {fill:#515150;stroke:none;stroke-linecap:butt;stroke-width:0.75}
		.st3 {fill:none;fill-rule:evenodd;font-size:12px;overflow:visible;stroke-linecap:square;stroke-miterlimit:3}
	]]>
	</style>

	<g v:mID="0" v:index="1" v:groupContext="foregroundPage">
		<title>Page-1</title>
		<v:pageProperties v:drawingScale="0.0393701" v:pageScale="0.0393701" v:drawingUnits="24" v:shadowOffsetX="8.50394"
				v:shadowOffsetY="-8.50394"/>
		<v:layer v:name="symbols" v:index="0"/>
		<g id="group1350-1" transform="translate(7.41562,-7.275)" v:mID="1350" v:groupContext="group" v:layerMember="0">
			<title>Settings</title>
			<g id="group1351-2" v:mID="1351" v:groupContext="group" v:layerMember="0">
				<title>Sheet.1351</title>
				<g id="shape1352-3" v:mID="1352" v:groupContext="shape" v:layerMember="0">
					<title>Sheet.1352</title>
					<path d="M32.48 66.3 C31.05 66.3 29.78 65.48 29.25 64.13 L27.82 60.75 C27.82 60.75 27.82 60.75 27.75 60.75 C27.67
								 60.75 26.92 60.83 25.95 60.83 C24.9 60.83 24.15 60.75 24.07 60.75 C24.07 60.75 24.07 60.75 24 60.75
								 L22.58 64.2 C22.05 65.48 20.77 66.38 19.35 66.38 C18.9 66.38 18.45 66.3 18 66.08 L13.35 64.13 C12.45
								 63.75 11.77 63.08 11.47 62.25 C11.1 61.35 11.1 60.45 11.47 59.55 L12.9 56.1 C12.9 56.1 12.75 55.95
								 12.75 55.95 L10.43 53.55 C10.43 53.55 10.35 53.4 10.28 53.4 L6.83 54.83 C6.38 54.98 5.92 55.13 5.47
								 55.13 C4.05 55.13 2.78 54.3 2.25 52.95 L0.38 48.3 C-0 47.48 -0 46.5 0.38 45.6 C0.75 44.7 1.43 44.03
								 2.25 43.73 L5.7 42.3 C5.7 42.23 5.7 42.08 5.7 42.08 L5.7 38.7 C5.7 38.7 5.7 38.55 5.7 38.48 L2.25
								 37.05 C1.35 36.68 0.67 36 0.38 35.18 C-0 34.28 -0 33.38 0.38 32.48 L2.32 27.83 C2.85 26.48 4.12
								 25.65 5.55 25.65 C6 25.65 6.45 25.73 6.9 25.95 L10.35 27.38 C10.35 27.38 10.5 27.23 10.5 27.23 L12.9
								 24.83 C12.9 24.83 13.05 24.75 13.05 24.68 L11.55 21.3 C11.17 20.48 11.17 19.5 11.55 18.6 C11.92
								 17.7 12.6 17.03 13.43 16.73 L18.07 14.85 C18.45 14.63 18.9 14.55 19.43 14.55 C20.85 14.55 22.12
								 15.38 22.65 16.73 L24.07 20.1 C24.07 20.1 24.07 20.1 24.15 20.1 C24.22 20.1 24.97 20.03 25.95 20.03
								 C27 20.03 27.75 20.1 27.82 20.1 C27.82 20.1 27.82 20.1 27.9 20.1 L29.33 16.65 C29.85 15.38 31.05
								 14.55 32.48 14.55 C32.93 14.55 33.37 14.63 33.82 14.85 L38.48 16.8 C39.37 17.18 40.05 17.85 40.35
								 18.68 C40.72 19.58 40.72 20.48 40.35 21.38 L38.93 24.83 C38.93 24.83 39.08 24.98 39.08 24.98 L41.48
								 27.3 C41.48 27.3 41.55 27.45 41.63 27.45 L45.08 26.03 C45.53 25.88 45.97 25.73 46.42 25.73 C47.85
								 25.73 49.12 26.55 49.65 27.9 L51.6 32.55 C51.98 33.45 51.98 34.35 51.6 35.25 C51.23 36.15 50.55
								 36.83 49.72 37.13 L46.2 38.55 C46.2 38.63 46.2 38.78 46.2 38.78 L46.2 42.15 C46.2 42.15 46.2 42.3
								 46.2 42.38 L49.65 43.8 C51.45 44.55 52.27 46.58 51.53 48.38 L49.57 53.03 C49.05 54.38 47.78 55.2
								 46.35 55.2 C45.9 55.2 45.45 55.13 45 54.9 L41.55 53.48 C41.48 53.55 41.4 53.63 41.4 53.63 L39.08
								 55.95 C39.08 55.95 38.93 56.03 38.93 56.1 L40.35 59.55 C40.72 60.45 40.72 61.35 40.35 62.25 C39.97
								 63.15 39.3 63.83 38.48 64.13 L33.82 66 C33.45 66.23 33 66.3 32.48 66.3 ZM25.95 30.15 C20.25 30.15
								 15.67 34.73 15.67 40.43 C15.67 46.13 20.25 50.7 25.95 50.7 C31.65 50.7 36.23 46.13 36.22 40.43 C36.23
								 34.73 31.65 30.15 25.95 30.15 Z" class="st1"/>
				</g>
				<g id="shape1353-5" v:mID="1353" v:groupContext="shape" v:layerMember="0" transform="translate(2.1,-2.025)">
					<title>Sheet.1353</title>
					<path d="M46.72 47.85 L42.9 46.28 C42.3 45.98 41.77 45.68 41.77 45.53 C41.77 45.38 41.85 44.7 41.92 44.03 L41.92
								 40.88 C41.85 40.2 41.77 39.53 41.77 39.38 C41.77 39.23 42.22 38.93 42.9 38.63 L46.72 37.05 C47.32
								 36.75 47.7 36.08 47.4 35.4 L45.45 30.75 C45.22 30.15 44.48 29.85 43.8 30.08 L39.98 31.73 C39.38
								 32.03 38.78 32.1 38.7 32.03 C38.63 31.95 38.18 31.43 37.72 30.9 L35.48 28.65 C34.95 28.2 34.43 27.75
								 34.35 27.68 C34.28 27.6 34.35 27 34.65 26.4 L36.22 22.58 C36.52 21.98 36.15 21.23 35.55 20.93 L30.9
								 18.98 C30.23 18.68 29.48 18.98 29.25 19.58 L27.67 23.4 C27.45 24.08 27.07 24.53 26.92 24.53 C26.77
								 24.53 26.1 24.45 25.43 24.3 C25.43 24.3 24.75 24.23 23.78 24.23 C22.8 24.23 22.2 24.3 22.2 24.3
								 C21.52 24.38 20.85 24.45 20.7 24.45 C20.55 24.45 20.25 24 19.95 23.33 L18.45 19.58 C18.22 18.9 17.47
								 18.6 16.8 18.9 L12.15 20.85 C11.55 21.08 11.25 21.83 11.48 22.5 L13.05 26.33 C13.35 26.93 13.42
								 27.53 13.35 27.6 C13.27 27.68 12.75 28.13 12.22 28.58 L9.98 30.83 C9.53 31.35 9.07 31.88 9 31.95
								 C8.92 32.03 8.32 31.95 7.72 31.65 L3.9 30.08 C3.3 29.78 2.55 30.15 2.25 30.75 L0.3 35.4 C0.08 36.08
								 0.38 36.83 0.97 37.05 L4.8 38.63 C5.48 38.93 5.93 39.23 5.93 39.38 C5.93 39.53 5.85 40.2 5.78 40.88
								 L5.78 44.03 C5.85 44.7 5.93 45.38 5.93 45.53 C5.93 45.68 5.48 45.98 4.8 46.28 L0.97 47.85 C0.3 48.15
								 0 48.83 0.3 49.5 L2.25 54.15 C2.55 54.75 3.23 55.13 3.9 54.83 L7.72 53.25 C8.32 53.03 8.92 52.88
								 9 52.95 C9.07 53.03 9.53 53.55 9.98 54.08 L12.22 56.33 C12.75 56.78 13.27 57.23 13.35 57.3 C13.42
								 57.38 13.35 57.98 13.05 58.58 L11.48 62.4 C11.18 63 11.55 63.75 12.15 64.05 L16.8 66 C17.4 66.3
								 18.15 65.93 18.45 65.33 L20.03 61.5 C20.33 60.83 20.63 60.38 20.78 60.38 C20.93 60.38 21.6 60.45
								 22.27 60.6 C22.27 60.6 22.95 60.68 23.93 60.68 C24.83 60.68 25.5 60.6 25.5 60.6 C26.17 60.53 26.85
								 60.45 27 60.45 C27.15 60.45 27.45 60.9 27.75 61.58 L29.33 65.4 C29.63 66 30.3 66.38 30.97 66.08
								 L35.62 64.13 C36.3 63.9 36.6 63.15 36.3 62.48 L34.58 58.58 C34.35 57.9 34.2 57.38 34.28 57.3 C34.35
								 57.23 34.88 56.78 35.4 56.33 L37.65 54.08 C38.1 53.55 38.55 53.03 38.63 52.95 C38.7 52.88 39.3 52.95
								 39.9 53.25 L43.73 54.83 C44.33 55.13 45.07 54.75 45.37 54.15 L47.32 49.5 C47.63 48.83 47.32 48.08
								 46.72 47.85 ZM23.85 54.98 C16.95 54.98 11.33 49.35 11.33 42.45 C11.33 35.55 16.95 29.93 23.85 29.93
								 C30.75 29.93 36.37 35.55 36.37 42.45 C36.37 49.35 30.75 54.98 23.85 54.98 Z" class="st2"/>
				</g>
			</g>
		</g>
	</g>
</svg>
