<?xml version="1.0" encoding="UTF-8" standalone="no"?>
<!DOCTYPE svg PUBLIC "-//W3C//DTD SVG 1.1//EN" "http://www.w3.org/Graphics/SVG/1.1/DTD/svg11.dtd">
<!-- Generated by Microsoft Visio, SVG Export Sign up.svg Page-1 -->
<svg xmlns="http://www.w3.org/2000/svg" xmlns:xlink="http://www.w3.org/1999/xlink" xmlns:ev="http://www.w3.org/2001/xml-events"
		xmlns:v="http://schemas.microsoft.com/visio/2003/SVGExtensions/" width="0.921875in" height="0.953125in"
		viewBox="0 0 66.375 68.625" xml:space="preserve" color-interpolation-filters="sRGB" class="st3">
	<v:documentProperties v:langID="4108" v:metric="true" v:viewMarkup="false"/>

	<style type="text/css">
	<![CDATA[
		.st1 {fill:#ffffff;stroke:none;stroke-linecap:butt;stroke-width:0.75}
		.st2 {fill:#515150;stroke:none;stroke-linecap:butt;stroke-width:0.75}
		.st3 {fill:none;fill-rule:evenodd;font-size:12px;overflow:visible;stroke-linecap:square;stroke-miterlimit:3}
	]]>
	</style>

	<g v:mID="0" v:index="1" v:groupContext="foregroundPage">
		<title>Page-1</title>
		<v:pageProperties v:drawingScale="0.0393701" v:pageScale="0.0393701" v:drawingUnits="24" v:shadowOffsetX="8.50394"
				v:shadowOffsetY="-8.50394"/>
		<v:layer v:name="symbols" v:index="0"/>
		<g id="group1364-1" transform="translate(9.77812,-8.4375)" v:mID="1364" v:groupContext="group" v:layerMember="0">
			<title>Sign up</title>
			<g id="group1365-2" v:mID="1365" v:groupContext="group" v:layerMember="0">
				<title>Sheet.1365</title>
				<g id="group1366-3" v:mID="1366" v:groupContext="group" v:layerMember="0">
					<title>Sheet.1366</title>
					<g id="shape1367-4" v:mID="1367" v:groupContext="shape" v:layerMember="0">
						<title>Sheet.1367</title>
						<path d="M0 68.63 L0 16.88 L30.9 16.88 L44.25 30.23 L44.25 68.63 L0 68.63 Z" class="st1"/>
					</g>
					<g id="shape1368-6" v:mID="1368" v:groupContext="shape" v:layerMember="0" transform="translate(2.25,-2.25)">
						<title>Sheet.1368</title>
						<path d="M39.75 68.63 L39.75 33.38 L27.75 21.38 L0 21.38 L0 68.63 L39.75 68.63 ZM2.25 66.38 L2.25 23.63 L26.25
									 23.63 L26.25 35.63 L37.5 35.63 L37.5 66.38 L2.25 66.38 Z" class="st2"/>
					</g>
					<g id="shape1369-8" v:mID="1369" v:groupContext="shape" v:layerMember="0" transform="translate(12,-27)">
						<title>Sheet.1369</title>
						<rect x="0" y="66.375" width="20.25" height="2.25" class="st2"/>
					</g>
					<g id="shape1370-10" v:mID="1370" v:groupContext="shape" v:layerMember="0" transform="translate(12,-21)">
						<title>Sheet.1370</title>
						<rect x="0" y="66.375" width="20.25" height="2.25" class="st2"/>
					</g>
					<g id="shape1371-12" v:mID="1371" v:groupContext="shape" v:layerMember="0" transform="translate(12,-11.25)">
						<title>Sheet.1371</title>
						<rect x="0" y="66.375" width="9.75" height="2.25" class="st2"/>
					</g>
				</g>
				<g id="group1372-14" transform="translate(22.05,-9.6)" v:mID="1372" v:groupContext="group" v:layerMember="0">
					<title>Sheet.1372</title>
					<g id="shape1373-15" v:mID="1373" v:groupContext="shape" v:layerMember="0">
						<title>Sheet.1373</title>
						<path d="M31.8 36.83 C30.97 36 29.77 35.48 28.57 35.48 C27.9 35.48 27.23 35.63 26.62 35.93 C26.1 35.55 25.5
									 35.33 24.83 35.33 C24.08 35.33 23.33 35.63 22.8 36.15 L13.05 45.9 L14.7 47.55 L14.17 48.08 L14.47
									 48.38 L2.55 60.45 L2.85 60.75 L2.02 61.58 C1.42 62.18 1.05 63.08 0.97 63.9 L0.37 65.18 C-0 66
									 -0 66.83 0.45 67.58 C0.9 68.25 1.65 68.63 2.4 68.63 C2.78 68.63 3.15 68.55 3.52 68.4 L4.8 67.8
									 C5.7 67.73 6.53 67.35 7.12 66.75 L7.95 65.93 L8.25 66.23 L20.18 54.23 L20.4 54.45 L31.87 42.98
									 C33.6 41.33 33.53 38.55 31.8 36.83 Z" class="st1"/>
					</g>
					<g id="shape1374-17" v:mID="1374" v:groupContext="shape" v:layerMember="0" transform="translate(16.2,-17.325)">
						<title>Sheet.1374</title>
						<path d="M14.03 55.73 C13.12 54.9 11.85 54.83 11.02 55.58 L10.35 56.25 L9.15 55.05 C8.92 54.83 8.48 54.83
									 8.25 55.05 L0 63.23 L0.75 63.98 L0.83 63.98 C0.9 63.98 0.9 63.98 0.98 63.98 C1.35 63.98 1.8
									 63.75 2.17 63.45 C2.55 63.08 2.7 62.7 2.7 62.33 L8.7 56.33 L9.53 57.15 L1.13 65.48 L4.28 68.63
									 L14.1 58.8 C14.93 57.98 14.85 56.63 14.03 55.73 Z" class="st2"/>
					</g>
					<g id="shape1375-19" v:mID="1375" v:groupContext="shape" v:layerMember="0" transform="translate(2.25,-2.25)">
						<title>Sheet.1375</title>
						<path d="M3.45 62.63 L3.75 62.93 L3.15 63.53 L1.28 65.4 C0.98 65.7 0.83 66.23 0.9 66.6 L0.08 68.33 C0 68.55
									 0.08 68.63 0.3 68.55 L2.02 67.73 C2.48 67.8 2.92 67.65 3.22 67.35 L5.1 65.48 L5.7 64.88 L6 65.18
									 L17.03 54.15 L14.48 51.6 L3.45 62.63 Z" class="st2"/>
					</g>
				</g>
			</g>
		</g>
	</g>
</svg>
