<?xml version="1.0" encoding="UTF-8" standalone="no"?>
<!DOCTYPE svg PUBLIC "-//W3C//DTD SVG 1.1//EN" "http://www.w3.org/Graphics/SVG/1.1/DTD/svg11.dtd">
<!-- Generated by Microsoft Visio, SVG Export Sound File.svg Page-1 -->
<svg xmlns="http://www.w3.org/2000/svg" xmlns:xlink="http://www.w3.org/1999/xlink" xmlns:ev="http://www.w3.org/2001/xml-events"
		xmlns:v="http://schemas.microsoft.com/visio/2003/SVGExtensions/" width="0.859375in" height="0.984375in"
		viewBox="0 0 61.875 70.875" xml:space="preserve" color-interpolation-filters="sRGB" class="st3">
	<v:documentProperties v:langID="4108" v:metric="true" v:viewMarkup="false"/>

	<style type="text/css">
	<![CDATA[
		.st1 {fill:#ffffff;stroke:none;stroke-linecap:butt;stroke-width:0.75}
		.st2 {fill:#515050;stroke:none;stroke-linecap:butt;stroke-width:0.75}
		.st3 {fill:none;fill-rule:evenodd;font-size:12px;overflow:visible;stroke-linecap:square;stroke-miterlimit:3}
	]]>
	</style>

	<g v:mID="0" v:index="1" v:groupContext="foregroundPage">
		<title>Page-1</title>
		<v:pageProperties v:drawingScale="0.0393701" v:pageScale="0.0393701" v:drawingUnits="24" v:shadowOffsetX="8.50394"
				v:shadowOffsetY="-8.50394"/>
		<v:layer v:name="symbols" v:index="0"/>
		<g id="group1376-1" transform="translate(8.95313,-8.0625)" v:mID="1376" v:groupContext="group" v:layerMember="0">
			<title>Sound File</title>
			<g id="group1377-2" v:mID="1377" v:groupContext="group" v:layerMember="0">
				<title>Sheet.1377</title>
				<g id="shape1378-3" v:mID="1378" v:groupContext="shape" v:layerMember="0">
					<title>Sheet.1378</title>
					<path d="M0 70.87 L0 16.12 L30.9 16.12 L44.25 29.47 L44.25 70.87 L0 70.87 Z" class="st1"/>
				</g>
				<g id="shape1379-5" v:mID="1379" v:groupContext="shape" v:layerMember="0" transform="translate(2.25,-2.25)">
					<title>Sheet.1379</title>
					<path d="M39.75 70.87 L39.75 32.62 L27.75 20.62 L0 20.62 L0 70.87 L39.75 70.87 ZM2.25 68.62 L2.25 22.88 L26.25
								 22.88 L26.25 34.87 L37.5 34.87 L37.5 68.62 L2.25 68.62 Z" class="st2"/>
				</g>
			</g>
			<g id="group1380-7" transform="translate(12.75,-12.225)" v:mID="1380" v:groupContext="group" v:layerMember="0">
				<title>Sheet.1380</title>
				<g id="group1381-8" v:mID="1381" v:groupContext="group" v:layerMember="0">
					<title>speaker_8_</title>
					<g id="shape1382-9" v:mID="1382" v:groupContext="shape" v:layerMember="0" transform="translate(0,-5.775)">
						<title>Sheet.1382</title>
						<path d="M3.75 70.12 C3.75 70.5 3.38 70.87 3 70.87 L0.75 70.87 C0.38 70.87 0 70.5 0 70.12 L0 62.62 C0 62.25
									 0.38 61.87 0.75 61.87 L3 61.87 C3.38 61.87 3.75 62.25 3.75 62.62 L3.75 70.12 Z" class="st2"/>
					</g>
					<g id="shape1383-11" v:mID="1383" v:groupContext="shape" v:layerMember="0" transform="translate(5.25,0)">
						<title>Sheet.1383</title>
						<path d="M0.53 56.32 C0.22 56.62 0 57.22 0 57.6 L0 63.6 C-0 63.97 0.22 64.57 0.53 64.87 L6.23 70.57 C6.53
									 70.87 6.75 70.8 6.75 70.35 L6.75 50.85 C6.75 50.47 6.53 50.32 6.23 50.63 L0.53 56.32 Z"
								class="st2"/>
					</g>
				</g>
				<g id="shape1384-13" v:mID="1384" v:groupContext="shape" v:layerMember="0" transform="translate(13.95,-6.6)">
					<title>Sheet.1384</title>
					<path d="M0.6 63.6 L0 64.87 C0.75 65.47 1.2 66.45 1.2 67.2 C1.2 68.17 0.75 69.07 0 69.67 L0.6 70.87 C1.72 70.05
								 2.47 68.7 2.47 67.2 C2.47 65.7 1.72 64.42 0.6 63.6 Z" class="st2"/>
				</g>
				<g id="shape1385-15" v:mID="1385" v:groupContext="shape" v:layerMember="0" transform="translate(15.525,-3.225)">
					<title>Sheet.1385</title>
					<path d="M0.67 56.85 L0 58.27 C1.87 59.47 3.15 61.57 3.15 63.82 C3.15 66.22 1.87 68.32 0 69.52 L0.67 70.87 C3.07
								 69.45 4.65 66.82 4.65 63.82 C4.65 60.82 3.07 58.27 0.67 56.85 Z" class="st2"/>
				</g>
			</g>
		</g>
	</g>
</svg>
