<?xml version="1.0" encoding="UTF-8" standalone="no"?>
<!DOCTYPE svg PUBLIC "-//W3C//DTD SVG 1.1//EN" "http://www.w3.org/Graphics/SVG/1.1/DTD/svg11.dtd">
<!-- Generated by Microsoft Visio, SVG Export Technical Diagram.svg Page-1 -->
<svg xmlns="http://www.w3.org/2000/svg" xmlns:xlink="http://www.w3.org/1999/xlink" xmlns:ev="http://www.w3.org/2001/xml-events"
		xmlns:v="http://schemas.microsoft.com/visio/2003/SVGExtensions/" width="0.9375in" height="1.01563in"
		viewBox="0 0 67.5 73.125" xml:space="preserve" color-interpolation-filters="sRGB" class="st5">
	<v:documentProperties v:langID="4108" v:metric="true" v:viewMarkup="false"/>

	<style type="text/css">
	<![CDATA[
		.st1 {fill:#ffffff;stroke:none;stroke-linecap:butt;stroke-width:0.75}
		.st2 {fill:#515251;stroke:none;stroke-linecap:butt;stroke-width:0.75}
		.st3 {fill:#505150;stroke:none;stroke-linecap:butt;stroke-width:0.75}
		.st4 {fill:#525251;stroke:none;stroke-linecap:butt;stroke-width:0.75}
		.st5 {fill:none;fill-rule:evenodd;font-size:12px;overflow:visible;stroke-linecap:square;stroke-miterlimit:3}
	]]>
	</style>

	<g v:mID="0" v:index="1" v:groupContext="foregroundPage">
		<title>Page-1</title>
		<v:pageProperties v:drawingScale="0.0393701" v:pageScale="0.0393701" v:drawingUnits="24" v:shadowOffsetX="8.50394"
				v:shadowOffsetY="-8.50394"/>
		<v:layer v:name="symbols" v:index="0"/>
		<g id="group1392-1" transform="translate(6.075,-6.45)" v:mID="1392" v:groupContext="group" v:layerMember="0">
			<title>Technical Diagram</title>
			<g id="group1393-2" v:mID="1393" v:groupContext="group" v:layerMember="0">
				<title>Sheet.1393</title>
				<g id="shape1394-3" v:mID="1394" v:groupContext="shape" v:layerMember="0" transform="translate(10.5,-38.25)">
					<title>Sheet.1394</title>
					<path d="M6.98 73.12 C3.15 73.12 0 69.83 0 65.85 C-0 62.1 2.7 59.02 6.15 58.57 C7.05 57.6 8.25 57 9.53 56.7 C10.57
								 53.47 13.42 51.15 16.88 51.15 C19.05 51.15 21.07 52.12 22.5 53.77 C22.95 53.7 23.4 53.62 23.78 53.62
								 C27.75 53.62 31.05 56.85 31.28 60.97 C32.78 62.25 33.6 64.13 33.6 66.22 C33.6 69.38 31.57 72.07
								 28.65 72.9 L28.5 72.9 L27.75 73.12 L6.98 73.12 Z" class="st1"/>
				</g>
				<g id="shape1395-5" v:mID="1395" v:groupContext="shape" v:layerMember="0">
					<title>Sheet.1395</title>
					<path d="M0 73.12 L0 51.08 C0 49.2 1.57 47.63 3.45 47.63 L12.23 47.63 C14.1 47.63 15.68 49.2 15.68 51.08 L15.68
								 73.12 L0 73.12 Z" class="st1"/>
				</g>
				<g id="shape1396-7" v:mID="1396" v:groupContext="shape" v:layerMember="0" transform="translate(19.575,5.68434E-14)">
					<title>Sheet.1396</title>
					<path d="M0 73.12 L0 51.08 C0 49.2 1.57 47.63 3.45 47.63 L12.23 47.63 C14.1 47.63 15.68 49.2 15.68 51.08 L15.68
								 73.12 L0 73.12 Z" class="st1"/>
				</g>
				<g id="shape1397-9" v:mID="1397" v:groupContext="shape" v:layerMember="0" transform="translate(39,5.68434E-14)">
					<title>Sheet.1397</title>
					<path d="M0 73.12 L0 51.08 C0 49.2 1.57 47.63 3.45 47.63 L12.23 47.63 C14.1 47.63 15.68 49.2 15.68 51.08 L15.68
								 73.12 L0 73.12 Z" class="st1"/>
				</g>
				<g id="group1398-11" transform="translate(4.5,-20.25)" v:mID="1398" v:groupContext="group" v:layerMember="0">
					<title>Sheet.1398</title>
					<g id="shape1399-12" v:mID="1399" v:groupContext="shape" v:layerMember="0">
						<title>Sheet.1399</title>
						<path d="M39 73.12 L39 65.62 L26.25 65.62 L26.25 73.12 L19.5 73.12 L19.5 65.62 L6.75 65.62 L6.75 73.12 L0
									 73.12 L0 58.88 L19.5 58.88 L19.5 50.62 L26.25 50.62 L26.25 58.88 L45.75 58.88 L45.75 73.12 L39
									 73.12 Z" class="st1"/>
					</g>
					<g id="shape1400-14" v:mID="1400" v:groupContext="shape" v:layerMember="0" transform="translate(2.25,-2.25)">
						<title>Sheet.1400</title>
						<path d="M39 63.38 L21.75 63.38 L21.75 55.12 L19.5 55.12 L19.5 63.38 L21.75 63.38 L19.5 63.38 L2.25 63.38
									 L0 63.38 L0 65.62 L0 73.12 L2.25 73.12 L2.25 65.62 L19.5 65.62 L19.5 73.12 L21.75 73.12 L21.75
									 65.62 L39 65.62 L39 73.12 L41.25 73.12 L41.25 65.62 L41.25 63.38 L39 63.38 Z" class="st2"/>
					</g>
				</g>
				<g id="shape1401-16" v:mID="1401" v:groupContext="shape" v:layerMember="0" transform="translate(12.75,-40.5)">
					<title>Sheet.1401</title>
					<path d="M26.85 64.42 C26.85 64.2 26.85 63.97 26.85 63.82 C26.85 60.75 24.45 58.2 21.6 58.2 C20.85 58.2 20.1
								 58.35 19.42 58.72 C18.45 56.92 16.65 55.72 14.7 55.72 C11.77 55.72 9.45 58.12 9.22 61.2 C9 61.2
								 8.7 61.12 8.47 61.12 C7.05 61.12 5.78 61.87 5.02 63.07 C4.95 63.07 4.8 63.07 4.72 63.07 C2.1 63.07
								 0 65.32 0 68.1 C-0 70.87 2.1 73.12 4.72 73.12 L25.27 73.12 L25.95 72.97 C27.9 72.45 29.25 70.65
								 29.25 68.47 C29.17 66.82 28.27 65.25 26.85 64.42 ZM25.57 71.55 L25.12 71.62 L4.72 71.62 C2.92 71.62
								 1.5 70.05 1.5 68.1 C1.5 66.15 2.92 64.57 4.72 64.57 C4.8 64.57 4.88 64.57 4.95 64.57 L5.85 64.65
								 L6.3 63.9 C6.82 63.07 7.65 62.62 8.55 62.62 C8.7 62.62 8.85 62.62 9 62.7 L10.65 63 L10.72 61.27
								 C10.87 59.02 12.6 57.22 14.7 57.22 C16.12 57.22 17.4 58.05 18.07 59.4 L18.75 60.67 L20.1 60 C20.55
								 59.77 21.15 59.62 21.67 59.62 C23.77 59.62 25.42 61.5 25.42 63.75 C25.42 63.9 25.42 64.05 25.42
								 64.2 L25.35 65.17 L26.25 65.62 C27.22 66.15 27.82 67.2 27.82 68.4 C27.67 69.97 26.85 71.17 25.57
								 71.55 Z" class="st3"/>
				</g>
				<g id="shape1402-18" v:mID="1402" v:groupContext="shape" v:layerMember="0" transform="translate(2.25,-2.25)">
					<title>Sheet.1402</title>
					<path d="M9.98 52.13 L1.2 52.13 C0.53 52.13 0 52.65 0 53.33 L0 73.12 L11.18 73.12 L11.18 53.33 C11.18 52.65 10.65
								 52.13 9.98 52.13 ZM9 70.13 L2.25 70.13 L2.25 69.38 L9 69.38 L9 70.13 ZM9 67.88 L2.25 67.88 L2.25
								 67.13 L9 67.13 L9 67.88 ZM9 55.88 L2.25 55.88 L2.25 55.13 L9 55.13 L9 55.88 Z" class="st4"/>
				</g>
				<g id="shape1403-20" v:mID="1403" v:groupContext="shape" v:layerMember="0" transform="translate(21.825,-2.25)">
					<title>Sheet.1403</title>
					<path d="M9.98 52.13 L1.2 52.13 C0.53 52.13 0 52.65 0 53.33 L0 73.12 L11.18 73.12 L11.18 53.33 C11.18 52.65 10.65
								 52.13 9.98 52.13 ZM9 70.13 L2.25 70.13 L2.25 69.38 L9 69.38 L9 70.13 ZM9 67.88 L2.25 67.88 L2.25
								 67.13 L9 67.13 L9 67.88 ZM9 55.88 L2.25 55.88 L2.25 55.13 L9 55.13 L9 55.88 Z" class="st4"/>
				</g>
				<g id="shape1404-22" v:mID="1404" v:groupContext="shape" v:layerMember="0" transform="translate(41.25,-2.25)">
					<title>Sheet.1404</title>
					<path d="M9.98 52.13 L1.2 52.13 C0.53 52.13 0 52.65 0 53.33 L0 73.12 L11.18 73.12 L11.18 53.33 C11.18 52.65 10.65
								 52.13 9.98 52.13 ZM9 70.13 L2.25 70.13 L2.25 69.38 L9 69.38 L9 70.13 ZM9 67.88 L2.25 67.88 L2.25
								 67.13 L9 67.13 L9 67.88 ZM9 55.88 L2.25 55.88 L2.25 55.13 L9 55.13 L9 55.88 Z" class="st4"/>
				</g>
			</g>
		</g>
	</g>
</svg>
