<?xml version="1.0" encoding="UTF-8" standalone="no"?>
<!DOCTYPE svg PUBLIC "-//W3C//DTD SVG 1.1//EN" "http://www.w3.org/Graphics/SVG/1.1/DTD/svg11.dtd">
<!-- Generated by Microsoft Visio, SVG Export Upgrade Site.svg Page-1 -->
<svg xmlns="http://www.w3.org/2000/svg" xmlns:xlink="http://www.w3.org/1999/xlink" xmlns:ev="http://www.w3.org/2001/xml-events"
		xmlns:v="http://schemas.microsoft.com/visio/2003/SVGExtensions/" width="1.09375in" height="0.859375in"
		viewBox="0 0 78.75 61.875" xml:space="preserve" color-interpolation-filters="sRGB" class="st3">
	<v:documentProperties v:langID="4108" v:metric="true" v:viewMarkup="false"/>

	<style type="text/css">
	<![CDATA[
		.st1 {fill:#ffffff;stroke:none;stroke-linecap:butt;stroke-width:0.75}
		.st2 {fill:#515150;stroke:none;stroke-linecap:butt;stroke-width:0.75}
		.st3 {fill:none;fill-rule:evenodd;font-size:12px;overflow:visible;stroke-linecap:square;stroke-miterlimit:3}
	]]>
	</style>

	<g v:mID="0" v:index="1" v:groupContext="foregroundPage">
		<title>Page-1</title>
		<v:pageProperties v:drawingScale="0.0393701" v:pageScale="0.0393701" v:drawingUnits="24" v:shadowOffsetX="8.50394"
				v:shadowOffsetY="-8.50394"/>
		<v:layer v:name="symbols" v:index="0"/>
		<g id="group1419-1" transform="translate(9.1875,-1.0125)" v:mID="1419" v:groupContext="group" v:layerMember="0">
			<title>Upgrade Site</title>
			<g id="group1420-2" transform="translate(0,-8.1)" v:mID="1420" v:groupContext="group" v:layerMember="0">
				<title>Sheet.1420</title>
				<g id="group1421-3" v:mID="1421" v:groupContext="group" v:layerMember="0">
					<title>Sheet.1421</title>
					<g id="shape1422-4" v:mID="1422" v:groupContext="shape" v:layerMember="0">
						<title>Sheet.1422</title>
						<path d="M5.25 61.88 C2.33 61.88 0 59.55 0 56.63 L0 22.13 C0 19.2 2.33 16.88 5.25 16.88 L50.25 16.88 C53.18
									 16.88 55.5 19.2 55.5 22.13 L55.5 56.63 C55.5 59.55 53.18 61.88 50.25 61.88 L5.25 61.88 Z"
								class="st1"/>
					</g>
					<g id="shape1423-6" v:mID="1423" v:groupContext="shape" v:layerMember="0" transform="translate(2.25,-2.25)">
						<title>Sheet.1423</title>
						<path d="M48 21.38 L3 21.38 C1.35 21.38 0 22.73 0 24.38 L0 58.88 C0 60.53 1.35 61.88 3 61.88 L48 61.88 C49.65
									 61.88 51 60.53 51 58.88 L51 24.38 C51 22.73 49.65 21.38 48 21.38 ZM42 23.63 L44.25 23.63 L44.25
									 25.88 L42 25.88 L42 23.63 ZM37.5 23.63 L39.75 23.63 L39.75 25.88 L37.5 25.88 L37.5 23.63 ZM48.75
									 58.88 C48.75 59.33 48.45 59.63 48 59.63 L3 59.63 C2.55 59.63 2.25 59.33 2.25 58.88 L2.25 28.88
									 L48.75 28.88 L48.75 58.88 ZM48.75 25.88 L46.5 25.88 L46.5 23.63 L48.75 23.63 L48.75 25.88 Z"
								class="st2"/>
					</g>
				</g>
				<g id="group1424-8" transform="translate(12,-8.25)" v:mID="1424" v:groupContext="group" v:layerMember="0">
					<title>Sheet.1424</title>
					<g id="group1425-9" v:mID="1425" v:groupContext="group" v:layerMember="0">
						<title>Sheet.1425</title>
						<g id="shape1426-10" v:mID="1426" v:groupContext="shape" v:layerMember="0"
								transform="translate(10.5,-16.5)">
							<title>Sheet.1426</title>
							<rect x="0" y="55.125" width="10.5" height="6.75" class="st2"/>
						</g>
						<g id="shape1427-12" v:mID="1427" v:groupContext="shape" v:layerMember="0"
								transform="translate(11.25,-1.20792E-13)">
							<title>Sheet.1427</title>
							<rect x="0" y="55.875" width="9" height="6" class="st2"/>
						</g>
						<g id="shape1428-14" v:mID="1428" v:groupContext="shape" v:layerMember="0"
								transform="translate(22.5,-1.20792E-13)">
							<title>Sheet.1428</title>
							<rect x="0" y="55.875" width="9" height="6" class="st2"/>
						</g>
						<g id="shape1429-16" v:mID="1429" v:groupContext="shape" v:layerMember="0">
							<title>Sheet.1429</title>
							<rect x="0" y="55.875" width="9" height="6" class="st2"/>
						</g>
						<g id="shape1430-18" v:mID="1430" v:groupContext="shape" v:layerMember="0" transform="translate(15,-6)">
							<title>Sheet.1430</title>
							<rect x="0" y="50.625" width="1.5" height="11.25" class="st2"/>
						</g>
						<g id="shape1431-20" v:mID="1431" v:groupContext="shape" v:layerMember="0" transform="translate(4.5,-10.5)">
							<title>Sheet.1431</title>
							<rect x="0" y="60.375" width="22.5" height="1.5" class="st2"/>
						</g>
					</g>
					<g id="shape1432-22" v:mID="1432" v:groupContext="shape" v:layerMember="0" transform="translate(3.75,-5.25)">
						<title>Sheet.1432</title>
						<rect x="0" y="55.125" width="1.5" height="6.75" class="st2"/>
					</g>
					<g id="shape1433-24" v:mID="1433" v:groupContext="shape" v:layerMember="0" transform="translate(26.25,-5.25)">
						<title>Sheet.1433</title>
						<rect x="0" y="55.125" width="1.5" height="6.75" class="st2"/>
					</g>
				</g>
			</g>
			<g id="group1434-26" transform="translate(42.75,-2.62901E-13)" v:mID="1434" v:groupContext="group" v:layerMember="0">
				<title>Sheet.1434</title>
				<g id="shape1435-27" v:mID="1435" v:groupContext="shape" v:layerMember="0">
					<title>Sheet.1435</title>
					<path d="M0 38.03 L0 47.03 L2.85 47.03 L6 44.18 L6 48.15 C6 49.88 4.05 51.75 1.65 52.5 L0 52.88 L0 61.88 L2.7
								 61.35 C9.68 60.08 15 54.38 15 48.08 L15 44.1 L18.15 47.18 L21 47.18 L21 38.03 L10.42 27.53 L0 38.03
								 Z" class="st1"/>
				</g>
				<g id="shape1436-29" v:mID="1436" v:groupContext="shape" v:layerMember="0" transform="translate(2.25,-2.55)">
					<title>Sheet.1436</title>
					<path d="M0 41.55 L0 47.18 L6 41.4 L6 50.7 C6 53.55 3.37 56.25 0 57.23 L0 61.88 C5.85 60.75 10.5 56.03 10.5 50.78
								 L10.5 41.4 L16.5 47.25 L16.5 41.63 L8.18 33.38 L0 41.55 Z" class="st2"/>
				</g>
			</g>
		</g>
	</g>
</svg>
