<?xml version="1.0" encoding="UTF-8" standalone="no"?>
<!DOCTYPE svg PUBLIC "-//W3C//DTD SVG 1.1//EN" "http://www.w3.org/Graphics/SVG/1.1/DTD/svg11.dtd">
<!-- Generated by Microsoft Visio, SVG Export Upgrade Server.svg Page-1 -->
<svg xmlns="http://www.w3.org/2000/svg" xmlns:xlink="http://www.w3.org/1999/xlink" xmlns:ev="http://www.w3.org/2001/xml-events"
		xmlns:v="http://schemas.microsoft.com/visio/2003/SVGExtensions/" width="0.796875in" height="1.01563in"
		viewBox="0 0 57.375 73.125" xml:space="preserve" color-interpolation-filters="sRGB" class="st4">
	<v:documentProperties v:langID="4108" v:metric="true" v:viewMarkup="false"/>

	<style type="text/css">
	<![CDATA[
		.st1 {fill:#ffffff;stroke:none;stroke-linecap:butt;stroke-width:0.75}
		.st2 {fill:#515150;stroke:none;stroke-linecap:butt;stroke-width:0.75}
		.st3 {fill:#515251;stroke:none;stroke-linecap:butt;stroke-width:0.75}
		.st4 {fill:none;fill-rule:evenodd;font-size:12px;overflow:visible;stroke-linecap:square;stroke-miterlimit:3}
	]]>
	</style>

	<g v:mID="0" v:index="1" v:groupContext="foregroundPage">
		<title>Page-1</title>
		<v:pageProperties v:drawingScale="0.0393701" v:pageScale="0.0393701" v:drawingUnits="24" v:shadowOffsetX="8.50394"
				v:shadowOffsetY="-8.50394"/>
		<v:layer v:name="symbols" v:index="0"/>
		<g id="group1412-1" transform="translate(8.87813,-8.0625)" v:mID="1412" v:groupContext="group" v:layerMember="0">
			<title>Upgrade Server</title>
			<g id="group1413-2" v:mID="1413" v:groupContext="group" v:layerMember="0">
				<title>Sheet.1413</title>
				<g id="shape1414-3" v:mID="1414" v:groupContext="shape" v:layerMember="0">
					<title>Sheet.1414</title>
					<path d="M0 73.13 L0 21.38 C-0 18.45 2.32 16.13 5.25 16.13 L26.25 16.13 C29.17 16.13 31.5 18.45 31.5 21.38 L31.5
								 73.13 L0 73.13 Z" class="st1"/>
				</g>
				<g id="shape1415-5" v:mID="1415" v:groupContext="shape" v:layerMember="0" transform="translate(2.25,-2.25)">
					<title>Sheet.1415</title>
					<path d="M24 20.63 L3 20.63 C1.35 20.63 0 21.98 0 23.63 L0 73.13 L27 73.13 L27 23.63 C27 21.98 25.65 20.63 24
								 20.63 ZM21.75 67.13 L5.25 67.13 L5.25 64.88 L21.75 64.88 L21.75 67.13 ZM21.75 60.38 L5.25 60.38
								 L5.25 58.13 L21.75 58.13 L21.75 60.38 ZM21.75 29.63 L5.25 29.63 L5.25 27.38 L21.75 27.38 L21.75
								 29.63 Z" class="st2"/>
				</g>
			</g>
			<g id="group1416-7" transform="translate(22.5,-0.15)" v:mID="1416" v:groupContext="group" v:layerMember="0">
				<title>Sheet.1416</title>
				<g id="shape1417-8" v:mID="1417" v:groupContext="shape" v:layerMember="0">
					<title>Sheet.1417</title>
					<path d="M0 49.28 L0 58.28 L2.85 58.28 L6 55.43 L6 59.4 C6 61.13 4.05 63 1.65 63.75 L0 64.13 L0 73.13 L2.7 72.6
								 C9.68 71.33 15 65.63 15 59.33 L15 55.35 L18.15 58.43 L21 58.43 L21 49.28 L10.43 38.78 L0 49.28 Z"
							class="st1"/>
				</g>
				<g id="shape1418-10" v:mID="1418" v:groupContext="shape" v:layerMember="0" transform="translate(2.25,-2.55)">
					<title>Sheet.1418</title>
					<path d="M0 52.8 L0 58.43 L6 52.65 L6 61.95 C6 64.8 3.37 67.5 0 68.48 L0 73.13 C5.85 72 10.5 67.28 10.5 62.03
								 L10.5 52.65 L16.5 58.5 L16.5 52.88 L8.18 44.63 L0 52.8 Z" class="st3"/>
				</g>
			</g>
		</g>
	</g>
</svg>
