<?xml version="1.0" encoding="UTF-8" standalone="no"?>
<!DOCTYPE svg PUBLIC "-//W3C//DTD SVG 1.1//EN" "http://www.w3.org/Graphics/SVG/1.1/DTD/svg11.dtd">
<!-- Generated by Microsoft Visio, SVG Export Upgrade Application.svg Page-1 -->
<svg xmlns="http://www.w3.org/2000/svg" xmlns:xlink="http://www.w3.org/1999/xlink" xmlns:ev="http://www.w3.org/2001/xml-events"
		xmlns:v="http://schemas.microsoft.com/visio/2003/SVGExtensions/" width="1.125in" height="0.84375in" viewBox="0 0 81 60.75"
		xml:space="preserve" color-interpolation-filters="sRGB" class="st3">
	<v:documentProperties v:langID="4108" v:metric="true" v:viewMarkup="false"/>

	<style type="text/css">
	<![CDATA[
		.st1 {fill:#ffffff;stroke:none;stroke-linecap:butt;stroke-width:0.75}
		.st2 {fill:#515251;stroke:none;stroke-linecap:butt;stroke-width:0.75}
		.st3 {fill:none;fill-rule:evenodd;font-size:12px;overflow:visible;stroke-linecap:square;stroke-miterlimit:3}
	]]>
	</style>

	<g v:mID="0" v:index="1" v:groupContext="foregroundPage">
		<title>Page-1</title>
		<v:pageProperties v:drawingScale="0.0393701" v:pageScale="0.0393701" v:drawingUnits="24" v:shadowOffsetX="8.50394"
				v:shadowOffsetY="-8.50394"/>
		<v:layer v:name="symbols" v:index="0"/>
		<g id="group1405-1" transform="translate(10.125,-5.1375)" v:mID="1405" v:groupContext="group" v:layerMember="0">
			<title>Upgrade Application</title>
			<g id="group1406-2" transform="translate(3.15747E-13,-4.35)" v:mID="1406" v:groupContext="group" v:layerMember="0">
				<title>Sheet.1406</title>
				<g id="shape1407-3" v:mID="1407" v:groupContext="shape" v:layerMember="0">
					<title>Sheet.1407</title>
					<path d="M5.25 60.75 C2.32 60.75 0 58.42 0 55.5 L0 23.25 C0 20.32 2.32 18 5.25 18 L47.25 18 C50.17 18 52.5 20.32
								 52.5 23.25 L52.5 55.5 C52.5 58.42 50.18 60.75 47.25 60.75 L5.25 60.75 Z" class="st1"/>
				</g>
				<g id="shape1408-5" v:mID="1408" v:groupContext="shape" v:layerMember="0" transform="translate(2.25,-2.25)">
					<title>Sheet.1408</title>
					<path d="M45 22.5 L3 22.5 C1.35 22.5 0 23.85 0 25.5 L0 57.75 C-0 59.4 1.35 60.75 3 60.75 L45 60.75 C46.65 60.75
								 48 59.4 48 57.75 L48 25.5 C48 23.85 46.65 22.5 45 22.5 ZM39 24.75 L41.25 24.75 L41.25 27 L39 27
								 L39 24.75 ZM34.5 24.75 L36.75 24.75 L36.75 27 L34.5 27 L34.5 24.75 ZM45.75 57.75 C45.75 58.2 45.45
								 58.5 45 58.5 L3 58.5 C2.55 58.5 2.25 58.2 2.25 57.75 L2.25 30 L45.75 30 L45.75 57.75 ZM45.75 27
								 L43.5 27 L43.5 24.75 L45.75 24.75 L45.75 27 Z" class="st2"/>
				</g>
			</g>
			<g id="group1409-7" transform="translate(42,0)" v:mID="1409" v:groupContext="group" v:layerMember="0">
				<title>Sheet.1409</title>
				<g id="shape1410-8" v:mID="1410" v:groupContext="shape" v:layerMember="0">
					<title>Sheet.1410</title>
					<path d="M0 36.9 L0 45.9 L2.85 45.9 L6 43.05 L6 47.02 C6 48.75 4.05 50.62 1.65 51.37 L0 51.75 L0 60.75 L2.7 60.22
								 C9.67 58.95 15 53.25 15 46.95 L15 42.97 L18.15 46.05 L21 46.05 L21 36.9 L10.42 26.4 L0 36.9 Z"
							class="st1"/>
				</g>
				<g id="shape1411-10" v:mID="1411" v:groupContext="shape" v:layerMember="0" transform="translate(2.25,-2.55)">
					<title>Sheet.1411</title>
					<path d="M0 40.42 L0 46.05 L6 40.27 L6 49.57 C6 52.42 3.37 55.12 0 56.1 L0 60.75 C5.85 59.62 10.5 54.9 10.5 49.65
								 L10.5 40.27 L16.5 46.12 L16.5 40.5 L8.18 32.25 L0 40.42 Z" class="st2"/>
				</g>
			</g>
		</g>
	</g>
</svg>
