<?xml version="1.0" encoding="UTF-8" standalone="no"?>
<!DOCTYPE svg PUBLIC "-//W3C//DTD SVG 1.1//EN" "http://www.w3.org/Graphics/SVG/1.1/DTD/svg11.dtd">
<!-- Generated by Microsoft Visio, SVG Export Upload.svg Page-1 -->
<svg xmlns="http://www.w3.org/2000/svg" xmlns:xlink="http://www.w3.org/1999/xlink" xmlns:ev="http://www.w3.org/2001/xml-events"
		xmlns:v="http://schemas.microsoft.com/visio/2003/SVGExtensions/" width="0.875in" height="0.984375in"
		viewBox="0 0 63 70.875" xml:space="preserve" color-interpolation-filters="sRGB" class="st3">
	<v:documentProperties v:langID="4108" v:metric="true" v:viewMarkup="false"/>

	<style type="text/css">
	<![CDATA[
		.st1 {fill:#ffffff;stroke:none;stroke-linecap:butt;stroke-width:0.75}
		.st2 {fill:#515050;stroke:none;stroke-linecap:butt;stroke-width:0.75}
		.st3 {fill:none;fill-rule:evenodd;font-size:12px;overflow:visible;stroke-linecap:square;stroke-miterlimit:3}
	]]>
	</style>

	<g v:mID="0" v:index="1" v:groupContext="foregroundPage">
		<title>Page-1</title>
		<v:pageProperties v:drawingScale="0.0393701" v:pageScale="0.0393701" v:drawingUnits="24" v:shadowOffsetX="8.50394"
				v:shadowOffsetY="-8.50394"/>
		<v:layer v:name="symbols" v:index="0"/>
		<g id="group1437-1" transform="translate(2.625,-7.6875)" v:mID="1437" v:groupContext="group" v:layerMember="0">
			<title>Upload</title>
			<g id="group1438-2" v:mID="1438" v:groupContext="group" v:layerMember="0">
				<title>Sheet.1438</title>
				<g id="shape1439-3" v:mID="1439" v:groupContext="shape" v:layerMember="0" transform="translate(8.25,0)">
					<title>Sheet.1439</title>
					<path d="M0 70.87 L0 19.12 L30.9 19.12 L44.25 32.47 L44.25 70.87 L0 70.87 Z" class="st1"/>
				</g>
				<g id="shape1440-5" v:mID="1440" v:groupContext="shape" v:layerMember="0" transform="translate(10.5,-2.25)">
					<title>Sheet.1440</title>
					<path d="M39.75 70.87 L39.75 35.62 L27.75 23.62 L0 23.62 L0 70.87 L39.75 70.87 ZM2.25 68.62 L2.25 25.88 L26.25
								 25.88 L26.25 37.87 L37.5 37.87 L37.5 68.62 L2.25 68.62 Z" class="st2"/>
				</g>
				<g id="group1441-7" transform="translate(0,-27.75)" v:mID="1441" v:groupContext="group" v:layerMember="0">
					<title>Sheet.1441</title>
					<g id="shape1442-8" v:mID="1442" v:groupContext="shape" v:layerMember="0">
						<title>Sheet.1442</title>
						<path d="M21 61.87 L17.85 61.87 L15 59.02 L15 70.87 L6 70.87 L6 59.1 L3.3 61.87 L0 61.87 L0 54.23 L7.35 46.87
									 L0.75 46.87 L0.75 38.63 L20.25 38.63 L20.25 46.87 L13.65 46.87 L21 54.23 L21 61.87 Z"
								class="st1"/>
					</g>
					<g id="shape1443-10" v:mID="1443" v:groupContext="shape" v:layerMember="0" transform="translate(2.25,-2.25)">
						<title>Sheet.1443</title>
						<path d="M6 55.88 L0 61.87 L0 57.38 L8.25 49.13 L16.5 57.38 L16.5 61.87 L10.5 55.88 L10.5 70.87 L6 70.87
									 L6 55.88 Z" class="st2"/>
					</g>
					<g id="shape1444-12" v:mID="1444" v:groupContext="shape" v:layerMember="0" transform="translate(3,-26.25)">
						<title>Sheet.1444</title>
						<rect x="0" y="67.125" width="15" height="3.75" class="st2"/>
					</g>
				</g>
				<g id="group1445-14" transform="translate(20.25,-12.75)" v:mID="1445" v:groupContext="group" v:layerMember="0">
					<title>Sheet.1445</title>
					<g id="shape1446-15" v:mID="1446" v:groupContext="shape" v:layerMember="0" transform="translate(0,-12)">
						<title>Sheet.1446</title>
						<rect x="0" y="68.625" width="20.25" height="2.25" class="st2"/>
					</g>
					<g id="shape1447-17" v:mID="1447" v:groupContext="shape" v:layerMember="0" transform="translate(0,-6)">
						<title>Sheet.1447</title>
						<rect x="0" y="68.625" width="20.25" height="2.25" class="st2"/>
					</g>
					<g id="shape1448-19" v:mID="1448" v:groupContext="shape" v:layerMember="0">
						<title>Sheet.1448</title>
						<rect x="0" y="68.625" width="20.25" height="2.25" class="st2"/>
					</g>
				</g>
			</g>
		</g>
	</g>
</svg>
