<?xml version="1.0" encoding="UTF-8" standalone="no"?>
<!DOCTYPE svg PUBLIC "-//W3C//DTD SVG 1.1//EN" "http://www.w3.org/Graphics/SVG/1.1/DTD/svg11.dtd">
<!-- Generated by Microsoft Visio, SVG Export Video, Play.svg Page-1 -->
<svg xmlns="http://www.w3.org/2000/svg" xmlns:xlink="http://www.w3.org/1999/xlink" xmlns:ev="http://www.w3.org/2001/xml-events"
		xmlns:v="http://schemas.microsoft.com/visio/2003/SVGExtensions/" width="1.01172in" height="0.890625in"
		viewBox="0 0 72.8438 64.125" xml:space="preserve" color-interpolation-filters="sRGB" class="st3">
	<v:documentProperties v:langID="4108" v:metric="true" v:viewMarkup="false"/>

	<style type="text/css">
	<![CDATA[
		.st1 {fill:#ffffff;stroke:none;stroke-linecap:butt;stroke-width:0.75}
		.st2 {fill:#505050;stroke:none;stroke-linecap:butt;stroke-width:0.75}
		.st3 {fill:none;fill-rule:evenodd;font-size:12px;overflow:visible;stroke-linecap:square;stroke-miterlimit:3}
	]]>
	</style>

	<g v:mID="0" v:index="1" v:groupContext="foregroundPage">
		<title>Page-1</title>
		<v:pageProperties v:drawingScale="0.0393701" v:pageScale="0.0393701" v:drawingUnits="24" v:shadowOffsetX="8.50394"
				v:shadowOffsetY="-8.50394"/>
		<v:layer v:name="symbols" v:index="0"/>
		<g id="group1449-1" transform="translate(9.08438,-9.6)" v:mID="1449" v:groupContext="group" v:layerMember="0">
			<title>Video, Play</title>
			<g id="group1450-2" v:mID="1450" v:groupContext="group" v:layerMember="0">
				<title>Sheet.1450</title>
				<g id="shape1451-3" v:mID="1451" v:groupContext="shape" v:layerMember="0">
					<title>Sheet.1451</title>
					<path d="M5.17 64.13 C2.32 64.13 0 61.8 0 58.95 L0 24.38 C-0 21.53 2.32 19.2 5.17 19.2 L49.5 19.2 C52.35 19.2
								 54.68 21.53 54.67 24.38 L54.67 58.95 C54.67 61.8 52.35 64.13 49.5 64.13 L5.18 64.13 Z" class="st1"/>
				</g>
				<g id="shape1452-5" v:mID="1452" v:groupContext="shape" v:layerMember="0" transform="translate(2.25,-2.25)">
					<title>Sheet.1452</title>
					<path d="M47.25 64.13 L2.93 64.13 C1.28 64.13 0 62.78 0 61.2 L0 26.63 C-0 24.98 1.35 23.7 2.93 23.7 L47.25 23.7
								 C48.9 23.7 50.18 25.05 50.18 26.63 L50.18 61.2 C50.18 62.78 48.9 64.13 47.25 64.13 Z" class="st2"/>
				</g>
			</g>
			<g id="shape1453-7" v:mID="1453" v:groupContext="shape" v:layerMember="0" transform="translate(20.25,-12.525)">
				<title>Sheet.1453</title>
				<path d="M0 44.4 L17.25 54.23 L0 64.13 L0 44.4 Z" class="st1"/>
			</g>
		</g>
	</g>
</svg>
