<?xml version="1.0" encoding="UTF-8" standalone="no"?>
<!DOCTYPE svg PUBLIC "-//W3C//DTD SVG 1.1//EN" "http://www.w3.org/Graphics/SVG/1.1/DTD/svg11.dtd">
<!-- Generated by Microsoft Visio, SVG Export View Form.svg Page-1 -->
<svg xmlns="http://www.w3.org/2000/svg" xmlns:xlink="http://www.w3.org/1999/xlink" xmlns:ev="http://www.w3.org/2001/xml-events"
		xmlns:v="http://schemas.microsoft.com/visio/2003/SVGExtensions/" width="1.10937in" height="0.875in" viewBox="0 0 79.875 63"
		xml:space="preserve" color-interpolation-filters="sRGB" class="st3">
	<v:documentProperties v:langID="4108" v:metric="true" v:viewMarkup="false"/>

	<style type="text/css">
	<![CDATA[
		.st1 {fill:#ffffff;stroke:none;stroke-linecap:butt;stroke-width:0.75}
		.st2 {fill:#515150;stroke:none;stroke-linecap:butt;stroke-width:0.75}
		.st3 {fill:none;fill-rule:evenodd;font-size:12px;overflow:visible;stroke-linecap:square;stroke-miterlimit:3}
	]]>
	</style>

	<g v:mID="0" v:index="1" v:groupContext="foregroundPage">
		<title>Page-1</title>
		<v:pageProperties v:drawingScale="0.0393701" v:pageScale="0.0393701" v:drawingUnits="24" v:shadowOffsetX="8.50394"
				v:shadowOffsetY="-8.50394"/>
		<v:layer v:name="symbols" v:index="0"/>
		<g id="group1454-1" transform="translate(10.2,-1.6875)" v:mID="1454" v:groupContext="group" v:layerMember="0">
			<title>View Form</title>
			<g id="group1455-2" v:mID="1455" v:groupContext="group" v:layerMember="0">
				<title>Sheet.1455</title>
				<g id="group1456-3" transform="translate(-3.07754E-13,-9)" v:mID="1456" v:groupContext="group" v:layerMember="0">
					<title>Sheet.1456</title>
					<g id="group1457-4" v:mID="1457" v:groupContext="group" v:layerMember="0">
						<title>Sheet.1457</title>
						<g id="shape1458-5" v:mID="1458" v:groupContext="shape" v:layerMember="0">
							<title>Sheet.1458</title>
							<path d="M5.25 63 C2.32 63 0 60.68 0 57.75 L0 23.25 C0 20.33 2.32 18 5.25 18 L51 18 C53.93 18 56.25 20.33
										 56.25 23.25 L56.25 57.75 C56.25 60.68 53.93 63 51 63 L5.25 63 Z" class="st1"/>
						</g>
						<g id="shape1459-7" v:mID="1459" v:groupContext="shape" v:layerMember="0" transform="translate(2.25,-2.25)">
							<title>Sheet.1459</title>
							<path d="M48.75 22.5 L3 22.5 C1.35 22.5 0 23.85 0 25.5 L0 60 C0 61.65 1.35 63 3 63 L48.75 63 C50.4 63
										 51.75 61.65 51.75 60 L51.75 25.5 C51.75 23.85 50.4 22.5 48.75 22.5 ZM42.75 24.75 L45 24.75
										 L45 27 L42.75 27 L42.75 24.75 ZM38.25 24.75 L40.5 24.75 L40.5 27 L38.25 27 L38.25 24.75
										 ZM49.5 60 C49.5 60.45 49.2 60.75 48.75 60.75 L3 60.75 C2.55 60.75 2.25 60.45 2.25 60 L2.25
										 30 L49.5 30 L49.5 60 ZM49.5 27 L47.25 27 L47.25 24.75 L49.5 24.75 L49.5 27 Z" class="st2"/>
						</g>
					</g>
					<g id="shape1460-9" v:mID="1460" v:groupContext="shape" v:layerMember="0" transform="translate(8.25,-9)">
						<title>Sheet.1460</title>
						<path d="M38.25 47.25 L38.25 61.5 L1.5 61.5 L1.5 47.25 L38.25 47.25 ZM39.75 45.75 L0 45.75 L0 63 L39.75 63
									 L39.75 45.75 Z" class="st2"/>
					</g>
					<g id="shape1461-11" v:mID="1461" v:groupContext="shape" v:layerMember="0" transform="translate(8.25,-29.25)">
						<title>Sheet.1461</title>
						<rect x="0" y="61.5" width="14.25" height="1.5" class="st2"/>
					</g>
				</g>
				<g id="group1462-13" transform="translate(29.325,0)" v:mID="1462" v:groupContext="group" v:layerMember="0">
					<title>Sheet.1462</title>
					<g id="shape1463-14" v:mID="1463" v:groupContext="shape" v:layerMember="0">
						<title>Sheet.1463</title>
						<path d="M16.8 63 C7.58 63 0 55.5 0 46.2 C0 36.9 7.5 29.4 16.8 29.4 C26.03 29.4 33.6 36.9 33.6 46.2 C33.6
									 55.5 26.03 63 16.8 63 Z" class="st1"/>
					</g>
					<g id="shape1464-16" v:mID="1464" v:groupContext="shape" v:layerMember="0" transform="translate(3.825,-3.825)">
						<title>Sheet.1464</title>
						<ellipse cx="12.975" cy="50.025" rx="12.975" ry="12.975" class="st1"/>
					</g>
					<g id="group1465-18" transform="translate(3.675,-10.425)" v:mID="1465" v:groupContext="group" v:layerMember="0">
						<title>Sheet.1465</title>
						<g id="shape1466-19" v:mID="1466" v:groupContext="shape" v:layerMember="0" transform="translate(0,-6.075)">
							<title>Sheet.1466</title>
							<path d="M15.75 49.5 L8.25 49.5 L0 63 L15.75 63 L15.75 49.5 ZM14.25 61.5 L2.1 61.5 L6 51 L14.25 51 L14.25
										 61.5 Z" class="st2"/>
						</g>
						<g id="shape1467-21" v:mID="1467" v:groupContext="shape" v:layerMember="0"
								transform="translate(2.25,7.10543E-14)">
							<title>Sheet.1467</title>
							<path d="M17.25 47.25 L17.25 60 C17.25 60.45 16.95 60.75 16.5 60.75 L0 60.75 L1.5 63 L16.5 63 C18.15
										 63 19.5 61.65 19.5 60 L19.5 48.75 L17.25 47.25 Z" class="st2"/>
						</g>
					</g>
					<g id="shape1468-23" v:mID="1468" v:groupContext="shape" v:layerMember="0" transform="translate(2.25,-2.25)">
						<title>Sheet.1468</title>
						<path d="M14.55 33.98 C6.53 33.98 0 40.5 0 48.53 C0 56.55 6.53 63 14.55 63 C22.58 63 29.1 56.48 29.1 48.45
									 C29.1 40.43 22.58 33.98 14.55 33.98 ZM14.55 59.85 C8.25 59.85 3.15 54.75 3.15 48.45 C3.15 42.15
									 8.25 37.05 14.55 37.05 C20.85 37.05 25.95 42.15 25.95 48.45 C25.95 54.75 20.85 59.85 14.55 59.85
									 Z" class="st2"/>
					</g>
					<g id="shape1469-25" v:mID="1469" v:groupContext="shape" v:layerMember="0" transform="translate(5.175,-5.175)">
						<title>Sheet.1469</title>
						<path d="M11.63 41.25 C17.18 41.25 21.75 45.83 21.75 51.38 C21.75 56.93 17.18 61.5 11.63 61.5 C6.08 61.5
									 1.5 56.93 1.5 51.38 C1.5 45.83 6.08 41.25 11.63 41.25 ZM11.63 39.75 C5.25 39.75 0 45 0 51.38
									 C0 57.75 5.25 63 11.63 63 C18 63 23.25 57.83 23.25 51.38 C23.25 44.93 18 39.75 11.63 39.75 Z"
								class="st1"/>
					</g>
				</g>
			</g>
		</g>
	</g>
</svg>
