<?xml version="1.0" encoding="UTF-8" standalone="no"?>
<!DOCTYPE svg PUBLIC "-//W3C//DTD SVG 1.1//EN" "http://www.w3.org/Graphics/SVG/1.1/DTD/svg11.dtd">
<!-- Generated by Microsoft Visio, SVG Export Voicemail.svg Page-1 -->
<svg xmlns="http://www.w3.org/2000/svg" xmlns:xlink="http://www.w3.org/1999/xlink" xmlns:ev="http://www.w3.org/2001/xml-events"
		xmlns:v="http://schemas.microsoft.com/visio/2003/SVGExtensions/" width="1.0625in" height="0.78125in"
		viewBox="0 0 76.5 56.25" xml:space="preserve" color-interpolation-filters="sRGB" class="st3">
	<v:documentProperties v:langID="4108" v:metric="true" v:viewMarkup="false"/>

	<style type="text/css">
	<![CDATA[
		.st1 {fill:#ffffff;stroke:none;stroke-linecap:butt;stroke-width:0.75}
		.st2 {fill:#515150;stroke:none;stroke-linecap:butt;stroke-width:0.75}
		.st3 {fill:none;fill-rule:evenodd;font-size:12px;overflow:visible;stroke-linecap:square;stroke-miterlimit:3}
	]]>
	</style>

	<g v:mID="0" v:index="1" v:groupContext="foregroundPage">
		<title>Page-1</title>
		<v:pageProperties v:drawingScale="0.0393701" v:pageScale="0.0393701" v:drawingUnits="24" v:shadowOffsetX="8.50394"
				v:shadowOffsetY="-8.50394"/>
		<v:layer v:name="symbols" v:index="0"/>
		<g id="group1470-1" transform="translate(9.29063,-9.5625)" v:mID="1470" v:groupContext="group" v:layerMember="0">
			<title>Voicemail</title>
			<g id="group1471-2" v:mID="1471" v:groupContext="group" v:layerMember="0">
				<title>Sheet.1471</title>
				<g id="group1472-3" v:mID="1472" v:groupContext="group" v:layerMember="0">
					<title>Sheet.1472</title>
					<g id="shape1473-4" v:mID="1473" v:groupContext="shape" v:layerMember="0">
						<title>Sheet.1473</title>
						<path d="M4.95 56.25 C2.25 56.25 0 54 0 51.3 L0 22.95 C0 20.25 2.25 18 4.95 18 L53.47 18 C56.25 18 58.42
									 20.25 58.42 22.95 L58.42 51.22 C58.42 54 56.18 56.17 53.47 56.17 L4.95 56.17 L4.95 56.25 Z"
								class="st1"/>
					</g>
					<g id="shape1474-6" v:mID="1474" v:groupContext="shape" v:layerMember="0" transform="translate(2.25,-2.325)">
						<title>Sheet.1474</title>
						<path d="M51.3 22.57 L2.7 22.57 C1.2 22.57 0 23.77 0 25.27 L0 53.55 C0 55.05 1.2 56.25 2.7 56.25 L51.22 56.25
									 C52.73 56.25 53.92 55.05 53.92 53.55 L53.92 25.27 C54 23.77 52.8 22.57 51.3 22.57 Z"
								class="st2"/>
					</g>
				</g>
				<g id="shape1475-8" v:mID="1475" v:groupContext="shape" v:layerMember="0" transform="translate(8.1,-10.5)">
					<title>Sheet.1475</title>
					<path d="M9.67 56.25 C4.65 56.25 0.45 52.5 0.15 47.62 C-0 45.07 0.9 42.67 2.62 40.8 C4.35 38.92 6.75 37.95 9.3
								 37.95 C9.67 37.95 10.13 37.95 10.5 38.02 C14.17 38.47 17.33 41.25 18.15 44.85 C18.67 47.02 18.45
								 49.2 17.47 51.15 C17.25 51.52 17.33 51.97 17.55 52.35 C17.77 52.72 18.15 52.95 18.6 52.95 L23.62
								 52.95 C24.08 52.95 24.45 52.72 24.67 52.35 C24.9 51.97 24.9 51.52 24.75 51.15 C23.77 49.2 23.55
								 46.95 24.08 44.85 C24.97 41.25 28.05 38.55 31.72 38.02 C32.1 37.95 32.55 37.95 32.92 37.95 C35.47
								 37.95 37.8 39 39.6 40.8 C41.32 42.67 42.22 45.07 42.07 47.62 C41.77 52.5 37.65 56.25 32.62 56.25
								 L9.67 56.25 ZM32.92 41.92 C30.07 41.92 27.75 44.25 27.75 47.1 C27.75 49.95 30.08 52.27 32.92 52.27
								 C35.78 52.27 38.1 49.95 38.1 47.1 C38.1 44.25 35.78 41.92 32.92 41.92 ZM9.3 41.92 C6.45 41.92 4.12
								 44.25 4.12 47.1 C4.12 49.95 6.45 52.27 9.3 52.27 C12.15 52.27 14.47 49.95 14.47 47.1 C14.47 44.25
								 12.15 41.92 9.3 41.92 Z" class="st1"/>
				</g>
			</g>
		</g>
	</g>
</svg>
