<?xml version="1.0" encoding="UTF-8" standalone="no"?>
<!DOCTYPE svg PUBLIC "-//W3C//DTD SVG 1.1//EN" "http://www.w3.org/Graphics/SVG/1.1/DTD/svg11.dtd">
<!-- Generated by Microsoft Visio, SVG Export Voicemail Preview.svg Page-1 -->
<svg xmlns="http://www.w3.org/2000/svg" xmlns:xlink="http://www.w3.org/1999/xlink" xmlns:ev="http://www.w3.org/2001/xml-events"
		xmlns:v="http://schemas.microsoft.com/visio/2003/SVGExtensions/" width="1.07813in" height="0.908854in"
		viewBox="0 0 77.625 65.4375" xml:space="preserve" color-interpolation-filters="sRGB" class="st3">
	<v:documentProperties v:langID="4108" v:metric="true" v:viewMarkup="false"/>

	<style type="text/css">
	<![CDATA[
		.st1 {fill:#ffffff;stroke:none;stroke-linecap:butt;stroke-width:0.75}
		.st2 {fill:#515150;stroke:none;stroke-linecap:butt;stroke-width:0.75}
		.st3 {fill:none;fill-rule:evenodd;font-size:12px;overflow:visible;stroke-linecap:square;stroke-miterlimit:3}
	]]>
	</style>

	<g v:mID="0" v:index="1" v:groupContext="foregroundPage">
		<title>Page-1</title>
		<v:pageProperties v:drawingScale="0.0393701" v:pageScale="0.0393701" v:drawingUnits="24" v:shadowOffsetX="8.50394"
				v:shadowOffsetY="-8.50394"/>
		<v:layer v:name="symbols" v:index="0"/>
		<g id="group1476-1" transform="translate(9.06563,-0.75)" v:mID="1476" v:groupContext="group" v:layerMember="0">
			<title>Voicemail Preview</title>
			<g id="group1477-2" transform="translate(-2.8777E-13,-18)" v:mID="1477" v:groupContext="group" v:layerMember="0">
				<title>Sheet.1477</title>
				<g id="group1478-3" v:mID="1478" v:groupContext="group" v:layerMember="0">
					<title>Sheet.1478</title>
					<g id="shape1479-4" v:mID="1479" v:groupContext="shape" v:layerMember="0">
						<title>Sheet.1479</title>
						<path d="M4.95 65.44 C2.25 65.44 0 63.19 0 60.49 L0 32.14 C0 29.44 2.25 27.19 4.95 27.19 L53.47 27.19 C56.25
									 27.19 58.5 29.44 58.5 32.14 L58.5 60.41 C58.5 63.19 56.25 65.36 53.55 65.36 L4.95 65.36 L4.95
									 65.44 Z" class="st1"/>
					</g>
					<g id="shape1480-6" v:mID="1480" v:groupContext="shape" v:layerMember="0" transform="translate(2.25,-2.325)">
						<title>Sheet.1480</title>
						<path d="M51.3 31.76 L2.7 31.76 C1.2 31.76 0 32.96 0 34.46 L0 62.74 C0 64.24 1.2 65.44 2.7 65.44 L51.22 65.44
									 C52.72 65.44 53.92 64.24 53.92 62.74 L53.92 34.46 C54 32.96 52.8 31.76 51.3 31.76 Z"
								class="st2"/>
					</g>
				</g>
				<g id="shape1481-8" v:mID="1481" v:groupContext="shape" v:layerMember="0" transform="translate(8.1,-10.5)">
					<title>Sheet.1481</title>
					<path d="M9.67 65.44 C4.65 65.44 0.45 61.69 0.15 56.81 C0 54.26 0.9 51.86 2.62 49.99 C4.35 48.11 6.75 47.14 9.3
								 47.14 C9.67 47.14 10.13 47.14 10.5 47.21 C14.17 47.66 17.33 50.44 18.15 54.04 C18.67 56.21 18.45
								 58.39 17.48 60.34 C17.25 60.71 17.33 61.16 17.55 61.54 C17.77 61.91 18.15 62.14 18.6 62.14 L23.62
								 62.14 C24.08 62.14 24.45 61.91 24.67 61.54 C24.9 61.16 24.9 60.71 24.75 60.34 C23.77 58.39 23.55
								 56.14 24.08 54.04 C24.97 50.44 28.05 47.74 31.72 47.21 C32.1 47.14 32.55 47.14 32.92 47.14 C35.47
								 47.14 37.8 48.19 39.6 49.99 C41.32 51.86 42.22 54.26 42.07 56.81 C41.78 61.69 37.65 65.44 32.62
								 65.44 L9.67 65.44 ZM32.92 51.11 C30.08 51.11 27.75 53.44 27.75 56.29 C27.75 59.14 30.08 61.46 32.92
								 61.46 C35.77 61.46 38.1 59.14 38.1 56.29 C38.1 53.44 35.77 51.11 32.92 51.11 ZM9.3 51.11 C6.45 51.11
								 4.12 53.44 4.12 56.29 C4.12 59.14 6.45 61.46 9.3 61.46 C12.15 61.46 14.47 59.14 14.47 56.29 C14.47
								 53.44 12.15 51.11 9.3 51.11 Z" class="st1"/>
				</g>
			</g>
			<g id="group1482-10" transform="translate(22.425,2.84217E-13)" v:mID="1482" v:groupContext="group" v:layerMember="0">
				<title>Sheet.1482</title>
				<g id="shape1483-11" v:mID="1483" v:groupContext="shape" v:layerMember="0">
					<title>Sheet.1483</title>
					<path d="M34.28 65.44 C32.85 65.44 31.35 64.84 30.37 63.79 L22.2 55.61 C21.6 55.01 21.15 54.26 20.85 53.44 C18.82
								 54.41 16.58 55.01 14.32 55.01 C6.45 55.01 0 48.56 0 40.69 C0 32.81 6.38 26.36 14.32 26.36 C22.2
								 26.36 28.65 32.81 28.65 40.69 C28.65 43.01 28.12 45.19 27.07 47.21 C27.9 47.51 28.65 47.96 29.25
								 48.56 L37.42 56.74 C38.25 57.56 38.85 58.76 39 59.96 C39.15 61.46 38.7 62.96 37.65 64.01 C36.75
								 64.91 35.55 65.44 34.28 65.44 ZM14.32 33.04 C10.12 33.04 6.68 36.49 6.68 40.69 C6.68 44.89 10.05
								 48.34 14.32 48.34 C18.52 48.34 21.98 44.89 21.98 40.69 C21.98 36.49 18.52 33.04 14.32 33.04 Z"
							class="st1"/>
				</g>
				<g id="shape1484-13" v:mID="1484" v:groupContext="shape" v:layerMember="0" transform="translate(2.25,-2.25)">
					<title>Sheet.1484</title>
					<path d="M0 42.94 C0 49.61 5.4 55.01 12.08 55.01 C14.85 55.01 17.4 54.04 19.42 52.46 L20.63 53.66 C20.63 53.89
								 20.63 54.04 20.63 54.26 C20.7 55.01 21 55.76 21.52 56.29 L29.7 64.46 C30.3 65.06 31.2 65.44 32.02
								 65.44 C32.7 65.44 33.37 65.21 33.83 64.69 C34.42 64.09 34.65 63.34 34.58 62.51 C34.5 61.76 34.13
								 61.09 33.67 60.56 L25.42 52.39 C24.83 51.79 23.92 51.41 23.1 51.41 C22.95 51.41 22.87 51.41 22.8
								 51.41 L21.6 50.21 C23.18 48.19 24.15 45.64 24.15 42.86 C24.15 36.19 18.75 30.79 12.08 30.79 C5.4
								 30.86 0 36.26 0 42.94 ZM2.18 42.94 C2.18 37.46 6.6 33.04 12.08 33.04 C17.55 33.04 21.97 37.46 21.97
								 42.94 C21.97 48.41 17.55 52.84 12.08 52.84 C6.6 52.84 2.18 48.41 2.18 42.94 Z" class="st2"/>
				</g>
			</g>
		</g>
	</g>
</svg>
