<?xml version="1.0" encoding="UTF-8" standalone="no"?>
<!DOCTYPE svg PUBLIC "-//W3C//DTD SVG 1.1//EN" "http://www.w3.org/Graphics/SVG/1.1/DTD/svg11.dtd">
<!-- Generated by Microsoft Visio, SVG Export Walkthrough.svg Page-1 -->
<svg xmlns="http://www.w3.org/2000/svg" xmlns:xlink="http://www.w3.org/1999/xlink" xmlns:ev="http://www.w3.org/2001/xml-events"
		xmlns:v="http://schemas.microsoft.com/visio/2003/SVGExtensions/" width="0.90625in" height="1.01563in"
		viewBox="0 0 65.25 73.125" xml:space="preserve" color-interpolation-filters="sRGB" class="st3">
	<v:documentProperties v:langID="4108" v:metric="true" v:viewMarkup="false"/>

	<style type="text/css">
	<![CDATA[
		.st1 {fill:#ffffff;stroke:none;stroke-linecap:butt;stroke-width:0.75}
		.st2 {fill:#505050;stroke:none;stroke-linecap:butt;stroke-width:0.75}
		.st3 {fill:none;fill-rule:evenodd;font-size:12px;overflow:visible;stroke-linecap:square;stroke-miterlimit:3}
	]]>
	</style>

	<g v:mID="0" v:index="1" v:groupContext="foregroundPage">
		<title>Page-1</title>
		<v:pageProperties v:drawingScale="0.0393701" v:pageScale="0.0393701" v:drawingUnits="24" v:shadowOffsetX="8.50394"
				v:shadowOffsetY="-8.50394"/>
		<v:layer v:name="symbols" v:index="0"/>
		<g id="group1485-1" transform="translate(9,-5.4375)" v:mID="1485" v:groupContext="group" v:layerMember="0">
			<title>Walkthrough</title>
			<g id="group1486-2" v:mID="1486" v:groupContext="group" v:layerMember="0">
				<title>Sheet.1486</title>
				<g id="shape1487-3" v:mID="1487" v:groupContext="shape" v:layerMember="0" transform="translate(7.5,-28.875)">
					<title>Sheet.1487</title>
					<path d="M21.3 73.12 C13.95 72.75 8.47 70.27 5.03 65.85 C-0 59.47 1.12 51.15 1.57 48.75 C1.5 49.05 1.5 49.72
								 1.8 50.55 L8.02 48 C8.4 48.9 8.25 49.72 8.18 50.02 C7.87 51.75 7.05 57.6 10.27 61.72 C12.45 64.5
								 16.27 66.07 21.6 66.37 L21.3 73.12 Z" class="st1"/>
				</g>
				<g id="shape1488-5" v:mID="1488" v:groupContext="shape" v:layerMember="0" transform="translate(12.9,-6)">
					<title>Sheet.1488</title>
					<path d="M6.45 73.12 C3.75 73.12 1.5 72.68 0.45 72.45 C0.75 72.53 1.42 72.6 2.25 72.3 L0 65.93 C0.9 65.63 1.72
								 65.78 2.02 65.85 C3.68 66.23 9.52 67.35 13.8 64.28 C16.72 62.18 18.45 58.5 19.05 53.25 L25.8 53.93
								 C25.05 61.2 22.35 66.6 17.77 69.83 C14.02 72.45 9.82 73.12 6.45 73.12 Z" class="st1"/>
				</g>
				<g id="group1489-7" transform="translate(10.875,-31.125)" v:mID="1489" v:groupContext="group" v:layerMember="0">
					<title>Sheet.1489</title>
					<g id="shape1490-8" v:mID="1490" v:groupContext="shape" v:layerMember="0" transform="translate(0.15,-19.65)">
						<title>Sheet.1490</title>
						<path d="M2.25 73.12 L0 72.9 C0.08 72 0.22 71.32 0.3 71.1 L1.35 71.25 L2.47 70.8 C2.62 71.1 2.55 71.32 2.55
									 71.55 C2.4 71.7 2.32 72.3 2.25 73.12 Z" class="st2"/>
					</g>
					<g id="shape1491-10" v:mID="1491" v:groupContext="shape" v:layerMember="0"
							transform="translate(1.9984E-15,-0.525)">
						<title>Sheet.1491</title>
						<path d="M13.65 73.12 C12.23 72.82 10.95 72.45 9.75 72 L10.58 69.9 C11.63 70.35 12.83 70.65 14.03 70.95 L13.65
									 73.12 ZM7.58 70.88 C6.38 70.12 5.25 69.3 4.35 68.33 L6 66.75 C6.83 67.58 7.73 68.33 8.78 68.93
									 L7.58 70.88 ZM2.78 66.38 C2.03 65.25 1.43 63.98 0.98 62.63 L3.08 61.95 C3.45 63.07 3.98 64.2
									 4.58 65.1 L2.78 66.38 ZM0.38 60.23 C0.15 58.95 0 57.67 0 56.33 L2.25 56.25 L2.25 56.33 C2.25
									 57.6 2.33 58.8 2.55 59.93 L0.38 60.23 Z" class="st2"/>
					</g>
					<g id="shape1492-12" v:mID="1492" v:groupContext="shape" v:layerMember="0"
							transform="translate(16.05,1.42109E-14)">
						<title>Sheet.1492</title>
						<path d="M1.95 73.12 C1.28 73.12 0.68 73.05 0 72.97 L0.23 70.72 C0.83 70.8 1.43 70.87 2.03 70.87 L1.95 73.12
									 Z" class="st2"/>
					</g>
				</g>
				<g id="group1493-14" transform="translate(13.65,-8.25)" v:mID="1493" v:groupContext="group" v:layerMember="0">
					<title>Sheet.1493</title>
					<g id="shape1494-15" v:mID="1494" v:groupContext="shape" v:layerMember="0"
							transform="translate(4.2466E-15,-0.225)">
						<title>Sheet.1494</title>
						<path d="M2.03 73.12 C1.13 72.97 0.45 72.82 0.23 72.75 L0.38 71.7 L0 70.57 C0.3 70.5 0.6 70.5 0.75 70.57
									 C0.98 70.65 1.58 70.8 2.4 70.87 L2.03 73.12 Z" class="st2"/>
					</g>
					<g id="shape1495-17" v:mID="1495" v:groupContext="shape" v:layerMember="0"
							transform="translate(4.425,-1.56319E-13)">
						<title>Sheet.1495</title>
						<path d="M1.27 73.12 C0.82 73.12 0.45 73.12 0 73.12 L0.15 70.87 C1.28 70.95 2.62 70.87 3.75 70.72 L4.05 72.97
									 C3.15 73.05 2.17 73.12 1.27 73.12 ZM6.45 72.45 L5.85 70.27 C7.05 69.97 8.1 69.52 9.07 68.92
									 L10.2 70.87 C9.08 71.55 7.8 72.07 6.45 72.45 ZM12.3 69.37 L10.8 67.65 C11.7 66.9 12.45 66 13.12
									 65.02 L15 66.22 C14.25 67.42 13.35 68.47 12.3 69.37 ZM16.2 64.12 L14.17 63.15 C14.62 62.1 15.07
									 60.97 15.37 59.7 L17.55 60.22 C17.17 61.65 16.72 62.92 16.2 64.12 Z" class="st2"/>
					</g>
					<g id="shape1496-19" v:mID="1496" v:groupContext="shape" v:layerMember="0" transform="translate(20.25,-15.225)">
						<title>Sheet.1496</title>
						<path d="M2.25 73.12 L0 72.75 C0.08 72.15 0.15 71.55 0.22 70.95 L2.48 71.17 C2.4 71.85 2.33 72.52 2.25 73.12
									 Z" class="st2"/>
					</g>
				</g>
				<g id="shape1497-21" v:mID="1497" v:groupContext="shape" v:layerMember="0" transform="translate(3.75,4.26326E-14)">
					<title>Sheet.1497</title>
					<path d="M10.5 73.13 C4.73 73.13 0 68.4 0 62.63 C0 56.85 4.73 52.13 10.5 52.13 C16.28 52.13 21 56.85 21 62.63
								 C21 68.4 16.28 73.13 10.5 73.13 Z" class="st1"/>
				</g>
				<g id="shape1498-23" v:mID="1498" v:groupContext="shape" v:layerMember="0" transform="translate(6,-2.25)">
					<title>Sheet.1498</title>
					<ellipse cx="8.25" cy="64.875" rx="8.25" ry="8.25" class="st2"/>
				</g>
				<g id="shape1499-25" v:mID="1499" v:groupContext="shape" v:layerMember="0"
						transform="translate(-1.43885E-13,-41.25)">
					<title>Sheet.1499</title>
					<path d="M10.5 73.13 C4.73 73.13 0 68.4 0 62.63 C0 56.85 4.73 52.13 10.5 52.13 C16.28 52.13 21 56.85 21 62.63
								 C21 68.4 16.28 73.13 10.5 73.13 Z" class="st1"/>
				</g>
				<g id="shape1500-27" v:mID="1500" v:groupContext="shape" v:layerMember="0" transform="translate(2.25,-43.5)">
					<title>Sheet.1500</title>
					<ellipse cx="8.25" cy="64.875" rx="8.25" ry="8.25" class="st2"/>
				</g>
				<g id="shape1501-29" v:mID="1501" v:groupContext="shape" v:layerMember="0" transform="translate(24,-21)">
					<title>Sheet.1501</title>
					<path d="M10.5 73.12 C4.73 73.12 0 68.4 0 62.63 C0 56.85 4.73 52.13 10.5 52.13 C16.28 52.13 21 56.85 21 62.63
								 C21 68.4 16.28 73.12 10.5 73.12 Z" class="st1"/>
				</g>
				<g id="shape1502-31" v:mID="1502" v:groupContext="shape" v:layerMember="0" transform="translate(26.25,-23.25)">
					<title>Sheet.1502</title>
					<ellipse cx="8.25" cy="64.875" rx="8.25" ry="8.25" class="st2"/>
				</g>
				<g id="shape1503-33" v:mID="1503" v:groupContext="shape" v:layerMember="0" transform="translate(8.625,-48)">
					<title>Sheet.1503</title>
					<path d="M2.55 73.12 L1.73 73.12 L1.73 66.75 C1.28 67.2 0.6 67.5 0 67.65 C0 67.35 0 67.05 0 66.83 C0.75 66.6
								 1.5 66.23 2.1 65.78 C2.33 65.63 2.55 65.55 2.55 65.85 L2.55 73.12 Z" class="st1"/>
				</g>
				<g id="shape1504-35" v:mID="1504" v:groupContext="shape" v:layerMember="0" transform="translate(32.025,-27.75)">
					<title>Sheet.1504</title>
					<path d="M3.45 67.72 C3.45 65.85 1.2 66.3 0.37 67.27 C0.37 66.97 0.37 66.67 0.37 66.37 C1.8 64.95 4.5 65.7 4.35
								 67.95 C4.27 69.15 3.37 69.82 2.55 70.42 C1.87 70.95 0.97 71.47 0.97 72.37 C2.17 72.37 3.45 72.37
								 4.65 72.37 L4.65 73.12 L0.15 73.12 L0.15 72.75 C-0 70.27 3.45 70.05 3.45 67.72 Z" class="st1"/>
				</g>
				<g id="shape1505-37" v:mID="1505" v:groupContext="shape" v:layerMember="0" transform="translate(12.6,-6.6)">
					<title>Sheet.1505</title>
					<path d="M4.27 70.88 C4.28 72.45 2.85 73.12 1.42 73.05 C1.2 73.05 0 72.9 0 72.6 C0 72.3 0 72 0 71.7 C1.12 72.6
								 3.75 72.53 3.37 70.58 C3.15 69.38 1.65 69.45 0.75 69.45 L0.75 68.7 L1.35 68.7 C2.4 68.7 3.37 68.18
								 3.15 66.98 C2.92 65.7 1.12 66 0.3 66.6 C0.3 66.3 0.3 66.08 0.3 65.78 C1.35 65.18 3.3 65.1 3.82 66.38
								 C4.42 67.65 3.53 68.48 2.47 69 C3.53 69.23 4.28 69.9 4.27 70.88 Z" class="st1"/>
				</g>
			</g>
		</g>
	</g>
</svg>
