<?xml version="1.0" encoding="UTF-8" standalone="no"?>
<!DOCTYPE svg PUBLIC "-//W3C//DTD SVG 1.1//EN" "http://www.w3.org/Graphics/SVG/1.1/DTD/svg11.dtd">
<!-- Generated by Microsoft Visio, SVG Export Web Page.svg Page-1 -->
<svg xmlns="http://www.w3.org/2000/svg" xmlns:xlink="http://www.w3.org/1999/xlink" xmlns:ev="http://www.w3.org/2001/xml-events"
		xmlns:v="http://schemas.microsoft.com/visio/2003/SVGExtensions/" width="0.946094in" height="0.984375in"
		viewBox="0 0 68.1188 70.875" xml:space="preserve" color-interpolation-filters="sRGB" class="st3">
	<v:documentProperties v:langID="4108" v:metric="true" v:viewMarkup="false"/>

	<style type="text/css">
	<![CDATA[
		.st1 {fill:#ffffff;stroke:none;stroke-linecap:butt;stroke-width:0.75}
		.st2 {fill:#515050;stroke:none;stroke-linecap:butt;stroke-width:0.75}
		.st3 {fill:none;fill-rule:evenodd;font-size:12px;overflow:visible;stroke-linecap:square;stroke-miterlimit:3}
	]]>
	</style>

	<g v:mID="0" v:index="1" v:groupContext="foregroundPage">
		<title>Page-1</title>
		<v:pageProperties v:drawingScale="0.0393701" v:pageScale="0.0393701" v:drawingUnits="24" v:shadowOffsetX="8.50394"
				v:shadowOffsetY="-8.50394"/>
		<v:layer v:name="symbols" v:index="0"/>
		<g id="group1530-1" transform="translate(9.42188,-5.0625)" v:mID="1530" v:groupContext="group" v:layerMember="0">
			<title>Web Page</title>
			<g id="group1531-2" v:mID="1531" v:groupContext="group" v:layerMember="0">
				<title>Sheet.1531</title>
				<g id="group1532-3" transform="translate(0,-6.75)" v:mID="1532" v:groupContext="group" v:layerMember="0">
					<title>Sheet.1532</title>
					<g id="shape1533-4" v:mID="1533" v:groupContext="shape" v:layerMember="0">
						<title>Sheet.1533</title>
						<path d="M0 70.87 L0 19.12 L30.9 19.12 L44.25 32.47 L44.25 70.87 L0 70.87 Z" class="st1"/>
					</g>
					<g id="shape1534-6" v:mID="1534" v:groupContext="shape" v:layerMember="0" transform="translate(2.25,-2.25)">
						<title>Sheet.1534</title>
						<path d="M39.75 70.87 L39.75 35.62 L27.75 23.62 L0 23.62 L0 70.87 L39.75 70.87 ZM2.25 68.62 L2.25 25.88 L26.25
									 25.88 L26.25 37.87 L37.5 37.87 L37.5 68.62 L2.25 68.62 Z" class="st2"/>
					</g>
				</g>
				<g id="group1535-8" transform="translate(21,0)" v:mID="1535" v:groupContext="group" v:layerMember="0">
					<title>Sheet.1535</title>
					<g id="shape1536-9" v:mID="1536" v:groupContext="shape" v:layerMember="0">
						<title>Sheet.1536</title>
						<ellipse cx="16.5" cy="54.375" rx="16.5" ry="16.5" class="st1"/>
					</g>
					<g id="group1537-11" transform="translate(2.325,-2.325)" v:mID="1537" v:groupContext="group" v:layerMember="0">
						<title>Sheet.1537</title>
						<g id="shape1538-12" v:mID="1538" v:groupContext="shape" v:layerMember="0"
								transform="translate(15.075,-14.625)">
							<title>Sheet.1538</title>
							<path d="M5.63 63.67 C3.9 64.2 1.95 64.5 0 64.57 L0 70.87 C2.4 70.8 4.73 70.5 6.83 69.9 C6.6 67.65 6.23
										 65.55 5.63 63.67 Z" class="st2"/>
						</g>
						<g id="shape1539-14" v:mID="1539" v:groupContext="shape" v:layerMember="0"
								transform="translate(4.725,-23.775)">
							<title>Sheet.1539</title>
							<path d="M4.5 67.12 C2.85 67.72 1.35 68.7 0 69.82 C0.68 70.2 1.43 70.57 2.18 70.87 C2.85 69.45 3.6 68.17
										 4.5 67.12 Z" class="st2"/>
						</g>
						<g id="shape1540-16" v:mID="1540" v:groupContext="shape" v:layerMember="0"
								transform="translate(8.4,-22.35)">
							<title>Sheet.1540</title>
							<path d="M0 70.05 C1.57 70.5 3.3 70.8 5.1 70.87 L5.1 64.87 C4.87 64.87 4.72 64.87 4.5 64.87 C2.7 65.47
										 1.12 67.35 0 70.05 Z" class="st2"/>
						</g>
						<g id="shape1541-18" v:mID="1541" v:groupContext="shape" v:layerMember="0"
								transform="translate(6.75,-14.625)">
							<title>Sheet.1541</title>
							<path d="M0 69.9 C2.1 70.5 4.43 70.8 6.83 70.87 L6.83 64.57 C4.88 64.5 2.93 64.2 1.2 63.67 C0.45 65.55
										 0.08 67.65 0 69.9 Z" class="st2"/>
						</g>
						<g id="shape1542-20" v:mID="1542" v:groupContext="shape" v:layerMember="0"
								transform="translate(22.65,-8.4)">
							<title>Sheet.1542</title>
							<path d="M0.68 64.95 C0.68 67.05 0.45 69.07 0 70.87 C2.03 70.12 3.9 69.15 5.48 67.95 C5.7 66.97 5.78
										 66 5.78 65.02 C5.78 64.12 5.7 63.22 5.55 62.4 C4.13 63.37 2.48 64.12 0.6 64.72 C0.68 64.87
										 0.68 64.87 0.68 64.95 Z" class="st2"/>
						</g>
						<g id="shape1543-22" v:mID="1543" v:groupContext="shape" v:layerMember="0"
								transform="translate(-1.42886E-13,-8.25)">
							<title>Sheet.1543</title>
							<path d="M5.17 64.8 C5.17 64.72 5.18 64.65 5.17 64.57 C3.38 63.97 1.65 63.15 0.22 62.25 C0.07 63.07 0
										 63.97 0 64.87 C0 66.07 0.15 67.2 0.45 68.25 C2.1 69.37 3.9 70.27 5.85 70.87 C5.4 69.07 5.18
										 67.05 5.17 64.8 Z" class="st2"/>
						</g>
						<g id="shape1544-24" v:mID="1544" v:groupContext="shape" v:layerMember="0"
								transform="translate(0.675,-16.05)">
							<title>Sheet.1544</title>
							<path d="M3 63.22 C1.65 64.72 0.6 66.52 0 68.55 C1.28 69.52 2.85 70.27 4.58 70.87 C4.73 68.62 5.1 66.45
										 5.78 64.65 C4.73 64.2 3.83 63.75 3 63.22 Z" class="st2"/>
						</g>
						<g id="shape1545-26" v:mID="1545" v:groupContext="shape" v:layerMember="0"
								transform="translate(14.925,-22.425)">
							<title>Sheet.1545</title>
							<path d="M0.07 70.87 C1.87 70.8 3.6 70.5 5.17 70.05 C4.05 67.42 2.4 65.47 0.6 64.87 C0.37 64.87 0.22
										 64.87 0 64.87 L0 70.87 L0.07 70.87 Z" class="st2"/>
						</g>
						<g id="shape1546-28" v:mID="1546" v:groupContext="shape" v:layerMember="0"
								transform="translate(1.2,-0.825)">
							<title>Sheet.1546</title>
							<path d="M5.17 65.25 C3.3 64.72 1.58 63.97 0 63.07 C1.58 66.67 4.58 69.52 8.33 70.87 C6.98 69.52 5.92
										 67.57 5.17 65.25 Z" class="st2"/>
						</g>
						<g id="shape1547-30" v:mID="1547" v:groupContext="shape" v:layerMember="0"
								transform="translate(19.275,-23.7)">
							<title>Sheet.1547</title>
							<path d="M0 67.05 C0.9 68.1 1.65 69.37 2.25 70.87 C3 70.57 3.75 70.2 4.43 69.82 C3.23 68.62 1.73 67.65
										 0 67.05 Z" class="st2"/>
						</g>
						<g id="shape1548-32" v:mID="1548" v:groupContext="shape" v:layerMember="0"
								transform="translate(22.125,-16.05)">
							<title>Sheet.1548</title>
							<path d="M5.78 68.55 C5.18 66.52 4.13 64.72 2.78 63.22 C1.95 63.75 1.05 64.2 0 64.65 C0.6 66.52 1.05
										 68.62 1.2 70.87 C2.93 70.27 4.43 69.45 5.78 68.55 Z" class="st2"/>
						</g>
						<g id="shape1549-34" v:mID="1549" v:groupContext="shape" v:layerMember="0"
								transform="translate(19.05,-0.825)">
							<title>Sheet.1549</title>
							<path d="M3.15 65.1 C2.4 67.5 1.35 69.45 0 70.87 C3.82 69.52 6.9 66.52 8.4 62.7 C6.82 63.75 5.1 64.5
										 3.15 65.1 Z" class="st2"/>
						</g>
						<g id="shape1550-36" v:mID="1550" v:groupContext="shape" v:layerMember="0"
								transform="translate(8.1,1.42109E-13)">
							<title>Sheet.1550</title>
							<path d="M5.4 70.87 L5.4 65.55 C3.53 65.55 1.73 65.32 0 64.95 C1.28 68.17 3.23 70.42 5.4 70.87 Z"
									class="st2"/>
						</g>
						<g id="shape1551-38" v:mID="1551" v:groupContext="shape" v:layerMember="0" transform="translate(15,-6.825)">
							<title>Sheet.1551</title>
							<path d="M6.83 63.67 C4.73 64.2 2.4 64.57 0 64.65 L0 70.87 C2.03 70.8 4.05 70.5 6 69.97 C6.53 68.02 6.83
										 65.85 6.83 63.67 Z" class="st2"/>
						</g>
						<g id="shape1552-40" v:mID="1552" v:groupContext="shape" v:layerMember="0"
								transform="translate(6.675,-6.9)">
							<title>Sheet.1552</title>
							<path d="M6.83 70.87 L6.83 64.65 C4.43 64.57 2.1 64.27 0 63.67 C0 66 0.38 68.17 0.9 70.05 C2.78 70.57
										 4.8 70.87 6.83 70.87 Z" class="st2"/>
						</g>
						<g id="shape1553-42" v:mID="1553" v:groupContext="shape" v:layerMember="0" transform="translate(15,-0.075)">
							<title>Sheet.1553</title>
							<path d="M0 65.55 L0 70.87 C2.18 70.42 4.2 68.1 5.4 64.8 C3.68 65.25 1.88 65.47 0 65.55 Z" class="st2"/>
						</g>
					</g>
				</g>
			</g>
		</g>
	</g>
</svg>
