<?xml version="1.0" encoding="UTF-8" standalone="no"?>
<!DOCTYPE svg PUBLIC "-//W3C//DTD SVG 1.1//EN" "http://www.w3.org/Graphics/SVG/1.1/DTD/svg11.dtd">
<!-- Generated by Microsoft Visio, SVG Export Web Conferencing.svg Page-1 -->
<svg xmlns="http://www.w3.org/2000/svg" xmlns:xlink="http://www.w3.org/1999/xlink" xmlns:ev="http://www.w3.org/2001/xml-events"
		xmlns:v="http://schemas.microsoft.com/visio/2003/SVGExtensions/" width="1.03125in" height="0.984375in"
		viewBox="0 0 74.25 70.875" xml:space="preserve" color-interpolation-filters="sRGB" class="st3">
	<v:documentProperties v:langID="4108" v:metric="true" v:viewMarkup="false"/>

	<style type="text/css">
	<![CDATA[
		.st1 {fill:#ffffff;stroke:none;stroke-linecap:butt;stroke-width:0.75}
		.st2 {fill:#515150;stroke:none;stroke-linecap:butt;stroke-width:0.75}
		.st3 {fill:none;fill-rule:evenodd;font-size:12px;overflow:visible;stroke-linecap:square;stroke-miterlimit:3}
	]]>
	</style>

	<g v:mID="0" v:index="1" v:groupContext="foregroundPage">
		<title>Page-1</title>
		<v:pageProperties v:drawingScale="0.0393701" v:pageScale="0.0393701" v:drawingUnits="24" v:shadowOffsetX="8.50394"
				v:shadowOffsetY="-8.50394"/>
		<v:layer v:name="symbols" v:index="0"/>
		<g id="group1506-1" transform="translate(9.29062,-3.2625)" v:mID="1506" v:groupContext="group" v:layerMember="0">
			<title>Web Conferencing</title>
			<g id="group1507-2" v:mID="1507" v:groupContext="group" v:layerMember="0">
				<title>Sheet.1507</title>
				<g id="group1508-3" transform="translate(-3.23741E-13,-6.6)" v:mID="1508" v:groupContext="group" v:layerMember="0">
					<title>Sheet.1508</title>
					<g id="shape1509-4" v:mID="1509" v:groupContext="shape" v:layerMember="0">
						<title>Sheet.1509</title>
						<path d="M26.63 70.87 C11.92 70.87 0 58.95 0 44.25 C0 29.55 11.92 17.62 26.63 17.62 C41.33 17.62 53.25 29.55
									 53.25 44.25 C53.25 58.95 41.33 70.87 26.63 70.87 Z" class="st1"/>
					</g>
					<g id="group1510-6" transform="translate(2.25,-2.7)" v:mID="1510" v:groupContext="group" v:layerMember="0">
						<title>Sheet.1510</title>
						<g id="shape1511-7" v:mID="1511" v:groupContext="shape" v:layerMember="0" transform="translate(25.5,-24.3)">
							<title>Sheet.1511</title>
							<path d="M0 70.87 C4.05 70.8 8.03 70.2 11.55 69.22 C11.4 65.4 10.73 61.8 9.68 58.65 C6.68 59.55 3.38
										 60.15 0 60.22 L0 70.87 Z" class="st2"/>
						</g>
						<g id="shape1512-9" v:mID="1512" v:groupContext="shape" v:layerMember="0"
								transform="translate(25.5,-37.275)">
							<title>Sheet.1512</title>
							<path d="M0 60.3 L0 70.87 C3.15 70.8 6.15 70.27 8.92 69.45 C6.82 64.35 3.6 60.9 0 60.3 Z" class="st2"/>
						</g>
						<g id="shape1513-11" v:mID="1513" v:groupContext="shape" v:layerMember="0"
								transform="translate(14.325,-37.35)">
							<title>Sheet.1513</title>
							<path d="M8.92 60.37 C5.32 60.97 2.18 64.42 0 69.45 C2.77 70.27 5.77 70.8 8.92 70.87 L8.92 60.37 Z"
									class="st2"/>
						</g>
						<g id="shape1514-13" v:mID="1514" v:groupContext="shape" v:layerMember="0"
								transform="translate(1.05,-26.7)">
							<title>Sheet.1514</title>
							<path d="M5.18 57.45 C2.85 60 1.05 63.15 0 66.52 C2.33 68.32 5.18 69.75 8.4 70.87 C8.63 66.97 9.3 63.38
										 10.35 60.22 C8.48 59.48 6.68 58.5 5.18 57.45 Z" class="st2"/>
						</g>
						<g id="shape1515-15" v:mID="1515" v:groupContext="shape" v:layerMember="0"
								transform="translate(38.25,-13.725)">
							<title>Sheet.1515</title>
							<path d="M1.12 60.67 C1.12 64.27 0.75 67.72 0 70.87 C3.75 69.6 7.12 67.8 10.05 65.55 C10.35 63.97 10.57
										 62.32 10.57 60.67 C10.57 59.02 10.42 57.45 10.12 55.95 C7.57 57.75 4.57 59.17 1.2 60.3 C1.12
										 60.37 1.12 60.52 1.12 60.67 Z" class="st2"/>
						</g>
						<g id="shape1516-17" v:mID="1516" v:groupContext="shape" v:layerMember="0"
								transform="translate(7.725,-39.525)">
							<title>Sheet.1516</title>
							<path d="M9.67 63.08 C6 64.13 2.78 66.08 0 68.55 C1.35 69.45 2.78 70.2 4.42 70.87 C5.85 67.65 7.65 64.95
										 9.67 63.08 Z" class="st2"/>
						</g>
						<g id="shape1517-19" v:mID="1517" v:groupContext="shape" v:layerMember="0"
								transform="translate(2.43805E-13,-13.575)">
							<title>Sheet.1517</title>
							<path d="M9.37 60.53 C9.37 60.38 9.37 60.23 9.37 60.08 C6 59.03 3 57.53 0.45 55.8 C0.15 57.3 0 58.88
										 0 60.53 C0 62.32 0.22 64.12 0.6 65.85 C3.52 67.95 6.97 69.67 10.57 70.87 C9.82 67.72 9.37
										 64.2 9.37 60.53 Z" class="st2"/>
						</g>
						<g id="shape1518-21" v:mID="1518" v:groupContext="shape" v:layerMember="0"
								transform="translate(11.7,-24.3)">
							<title>Sheet.1518</title>
							<path d="M0 69.22 C3.6 70.2 7.5 70.8 11.55 70.87 L11.55 60.15 C8.18 60.07 4.88 59.47 1.87 58.57 C0.83
										 61.72 0.15 65.32 0 69.22 Z" class="st2"/>
						</g>
						<g id="shape1519-23" v:mID="1519" v:groupContext="shape" v:layerMember="0"
								transform="translate(37.35,-26.7)">
							<title>Sheet.1519</title>
							<path d="M10.35 66.52 C9.3 63.15 7.58 60.07 5.25 57.45 C3.68 58.58 1.87 59.48 0 60.23 C1.05 63.38 1.73
										 66.97 1.95 70.87 C5.18 69.75 8.03 68.32 10.35 66.52 Z" class="st2"/>
						</g>
						<g id="shape1520-25" v:mID="1520" v:groupContext="shape" v:layerMember="0"
								transform="translate(31.275,-39.45)">
							<title>Sheet.1520</title>
							<path d="M0 63 C2.1 64.87 3.9 67.57 5.25 70.87 C6.9 70.2 8.4 69.45 9.75 68.55 C7.05 66.07 3.67 64.12
										 0 63 Z" class="st2"/>
						</g>
						<g id="shape1521-27" v:mID="1521" v:groupContext="shape" v:layerMember="0"
								transform="translate(11.625,-11.4)">
							<title>Sheet.1521</title>
							<path d="M11.63 70.87 L11.63 60.22 C7.58 60.15 3.6 59.55 0 58.65 C-0 62.55 0.53 66.3 1.43 69.52 C4.73
										 70.35 8.1 70.8 11.63 70.87 Z" class="st2"/>
						</g>
						<g id="shape1522-29" v:mID="1522" v:groupContext="shape" v:layerMember="0"
								transform="translate(31.275,-0.525)">
							<title>Sheet.1522</title>
							<path d="M6.23 60.3 C4.8 64.8 2.63 68.47 0 70.87 C7.43 68.7 13.35 63.07 15.98 55.8 C13.05 57.68 9.75
										 59.25 6.23 60.3 Z" class="st2"/>
						</g>
						<g id="shape1523-31" v:mID="1523" v:groupContext="shape" v:layerMember="0"
								transform="translate(1.575,-0.6)">
							<title>Sheet.1523</title>
							<path d="M9.67 60.52 C6.22 59.47 2.92 58.05 0 56.25 C2.7 63.3 8.55 68.77 15.82 70.87 C13.27 68.62 11.1
										 64.95 9.67 60.52 Z" class="st2"/>
						</g>
						<g id="shape1524-33" v:mID="1524" v:groupContext="shape" v:layerMember="0"
								transform="translate(13.875,2.41585E-13)">
							<title>Sheet.1524</title>
							<path d="M9.37 70.87 L9.37 61.72 C6.15 61.65 3 61.27 0 60.6 C2.1 66.3 5.47 70.2 9.37 70.87 Z"
									class="st2"/>
						</g>
						<g id="shape1525-35" v:mID="1525" v:groupContext="shape" v:layerMember="0"
								transform="translate(25.5,-11.475)">
							<title>Sheet.1525</title>
							<path d="M11.63 58.65 C8.03 59.62 4.05 60.15 0 60.22 L0 70.87 C3.52 70.8 6.98 70.27 10.2 69.37 C11.1
										 66.15 11.63 62.55 11.63 58.65 Z" class="st2"/>
						</g>
						<g id="shape1526-37" v:mID="1526" v:groupContext="shape" v:layerMember="0"
								transform="translate(25.5,-2.41585E-13)">
							<title>Sheet.1526</title>
							<path d="M0 61.72 L0 70.87 C3.9 70.2 7.27 66.3 9.37 60.52 C6.37 61.2 3.22 61.57 0 61.72 Z" class="st2"/>
						</g>
					</g>
				</g>
				<g id="group1527-39" transform="translate(35.1,2.98428E-13)" v:mID="1527" v:groupContext="group" v:layerMember="0">
					<title>Sheet.1527</title>
					<g id="shape1528-40" v:mID="1528" v:groupContext="shape" v:layerMember="0">
						<title>Sheet.1528</title>
						<path d="M14.33 70.87 C-0 70.87 0 67.8 0 66.45 L0 66.22 C0 64.27 1.87 63.37 2.93 63 C2.93 62.92 3 62.85 3
									 62.77 C4.35 56.02 6.75 51.9 8.78 49.2 C8.47 48.67 8.33 48.15 8.33 47.55 L8.33 42.3 C8.33 41.32
									 8.93 39 14.33 39 C19.72 39 20.32 41.32 20.32 42.3 L20.32 47.25 C20.32 47.85 20.18 48.82 19.27
									 49.65 L19.2 49.72 C18.67 50.17 18.07 50.4 16.8 50.92 C15.98 51.22 14.1 51.97 13.65 52.42 C12.45
									 54.07 10.8 56.62 9.6 60.75 C10.95 60.22 12.45 59.77 14.4 59.77 C16.5 59.77 18.15 60.37 19.72
									 60.97 C20.4 61.2 21.07 61.5 21.75 61.65 C22.12 61.72 22.42 61.87 22.8 61.95 C26.1 62.92 28.72
									 63.67 28.72 66.07 L28.72 66.3 C28.65 67.8 28.65 70.87 14.33 70.87 Z" class="st1"/>
					</g>
					<g id="shape1529-42" v:mID="1529" v:groupContext="shape" v:layerMember="0" transform="translate(2.325,-2.325)">
						<title>Sheet.1529</title>
						<path d="M18.75 66.3 C16.27 65.55 14.55 64.5 12 64.5 C9.15 64.5 7.43 65.7 4.88 66.37 C4.88 66.37 4.88 66.37
									 4.8 66.37 C4.27 66.45 4.2 66.22 4.2 65.85 C5.4 59.7 7.57 55.95 9.52 53.32 C10.65 51.97 14.77
									 50.85 15.37 50.32 C15.6 50.1 15.75 49.87 15.75 49.5 L15.75 44.55 C15.75 44.02 14.32 43.5 12
									 43.5 C9.67 43.5 8.25 44.1 8.25 44.55 L8.25 49.8 C8.25 49.95 8.25 50.17 8.4 50.32 C8.63 50.7
									 9.52 51 9.15 51.67 C6.9 54.45 4.35 58.5 2.92 65.55 C2.78 66.07 2.48 67.05 1.8 67.27 C1.8 67.27
									 1.72 67.27 1.72 67.27 C0.75 67.65 0 68.02 0 68.47 L0 68.7 C-0 70.12 6.22 70.87 12.07 70.87 C17.92
									 70.87 24.15 70.12 24.15 68.7 L24.15 68.47 C24.07 67.65 21.22 66.97 18.75 66.3 Z" class="st2"/>
					</g>
				</g>
			</g>
		</g>
	</g>
</svg>
