<?xml version="1.0" encoding="UTF-8" standalone="no"?>
<!DOCTYPE svg PUBLIC "-//W3C//DTD SVG 1.1//EN" "http://www.w3.org/Graphics/SVG/1.1/DTD/svg11.dtd">
<!-- Generated by Microsoft Visio, SVG Export Web Part.svg Page-1 -->
<svg xmlns="http://www.w3.org/2000/svg" xmlns:xlink="http://www.w3.org/1999/xlink" xmlns:ev="http://www.w3.org/2001/xml-events"
		xmlns:v="http://schemas.microsoft.com/visio/2003/SVGExtensions/" width="0.921875in" height="1.01563in"
		viewBox="0 0 66.375 73.125" xml:space="preserve" color-interpolation-filters="sRGB" class="st3">
	<v:documentProperties v:langID="4108" v:metric="true" v:viewMarkup="false"/>

	<style type="text/css">
	<![CDATA[
		.st1 {fill:#ffffff;stroke:none;stroke-linecap:butt;stroke-width:0.75}
		.st2 {fill:#515050;stroke:none;stroke-linecap:butt;stroke-width:0.75}
		.st3 {fill:none;fill-rule:evenodd;font-size:12px;overflow:visible;stroke-linecap:square;stroke-miterlimit:3}
	]]>
	</style>

	<g v:mID="0" v:index="1" v:groupContext="foregroundPage">
		<title>Page-1</title>
		<v:pageProperties v:drawingScale="0.0393701" v:pageScale="0.0393701" v:drawingUnits="24" v:shadowOffsetX="8.50394"
				v:shadowOffsetY="-8.50394"/>
		<v:layer v:name="symbols" v:index="0"/>
		<g id="group1554-1" transform="translate(9,-8.4)" v:mID="1554" v:groupContext="group" v:layerMember="0">
			<title>Web Part</title>
			<g id="group1555-2" v:mID="1555" v:groupContext="group" v:layerMember="0">
				<title>Sheet.1555</title>
				<g id="shape1556-3" v:mID="1556" v:groupContext="shape" v:layerMember="0">
					<title>Sheet.1556</title>
					<path d="M24.75 73.05 C23.55 73.05 22.42 72.53 21.75 71.62 L18.68 68.55 L0 68.55 L0 16.8 L30.9 16.8 L44.25 30.15
								 L44.25 42.3 L48.38 46.35 C49.12 47.02 49.5 48 49.5 49.12 L49.5 69.37 C49.5 71.48 47.85 73.12 45.75
								 73.12 L24.75 73.12 L24.75 73.05 Z" class="st1"/>
				</g>
				<g id="shape1557-5" v:mID="1557" v:groupContext="shape" v:layerMember="0" transform="translate(2.25,-2.325)">
					<title>Sheet.1557</title>
					<path d="M44.55 50.25 L39.75 45.53 L39.75 33.37 L27.75 21.38 L0 21.38 L0 68.62 L17.4 68.62 L21.23 72.45 C21.45
								 72.82 21.9 73.12 22.5 73.12 L43.5 73.12 C44.4 73.12 45 72.52 45 71.62 L45 51.38 C45 50.92 44.85
								 50.55 44.55 50.25 ZM2.25 23.63 L26.25 23.63 L26.25 35.63 L37.5 35.63 L37.5 45.45 L42 49.88 L22.5
								 49.88 C21.6 49.88 21 50.48 21 51.38 L21 70.12 L17.25 66.37 L2.25 66.37 L2.25 23.63 ZM43.5 71.62
								 L22.5 71.62 L22.5 54.38 L43.5 54.38 L43.5 71.62 Z" class="st2"/>
				</g>
				<g id="group1558-7" transform="translate(17.25,-11.325)" v:mID="1558" v:groupContext="group" v:layerMember="0">
					<title>Sheet.1558</title>
					<g id="shape1559-8" v:mID="1559" v:groupContext="shape" v:layerMember="0" transform="translate(18,-18)">
						<title>Sheet.1559</title>
						<rect x="0" y="70.875" width="2.25" height="2.25" class="st2"/>
					</g>
					<g id="shape1560-10" v:mID="1560" v:groupContext="shape" v:layerMember="0" transform="translate(13.5,-18)">
						<title>Sheet.1560</title>
						<rect x="0" y="70.875" width="2.25" height="2.25" class="st2"/>
					</g>
					<g id="shape1561-12" v:mID="1561" v:groupContext="shape" v:layerMember="0" transform="translate(9,-18)">
						<title>Sheet.1561</title>
						<rect x="0" y="70.875" width="2.25" height="2.25" class="st2"/>
					</g>
					<g id="shape1562-14" v:mID="1562" v:groupContext="shape" v:layerMember="0" transform="translate(4.5,-18)">
						<title>Sheet.1562</title>
						<rect x="0" y="70.875" width="2.25" height="2.25" class="st2"/>
					</g>
					<g id="shape1563-16" v:mID="1563" v:groupContext="shape" v:layerMember="0"
							transform="translate(2.01089E-14,-18)">
						<title>Sheet.1563</title>
						<rect x="0" y="70.875" width="2.25" height="2.25" class="st2"/>
					</g>
					<g id="shape1564-18" v:mID="1564" v:groupContext="shape" v:layerMember="0"
							transform="translate(2.01089E-14,-13.5)">
						<title>Sheet.1564</title>
						<rect x="0" y="70.875" width="2.25" height="2.25" class="st2"/>
					</g>
					<g id="shape1565-20" v:mID="1565" v:groupContext="shape" v:layerMember="0"
							transform="translate(2.01089E-14,-9)">
						<title>Sheet.1565</title>
						<rect x="0" y="70.875" width="2.25" height="2.25" class="st2"/>
					</g>
					<g id="shape1566-22" v:mID="1566" v:groupContext="shape" v:layerMember="0"
							transform="translate(2.01089E-14,-4.5)">
						<title>Sheet.1566</title>
						<rect x="0" y="70.875" width="2.25" height="2.25" class="st2"/>
					</g>
					<g id="shape1567-24" v:mID="1567" v:groupContext="shape" v:layerMember="0">
						<title>Sheet.1567</title>
						<rect x="0" y="70.875" width="2.25" height="2.25" class="st2"/>
					</g>
				</g>
			</g>
		</g>
	</g>
</svg>
