<?xml version="1.0" encoding="UTF-8" standalone="no"?>
<!DOCTYPE svg PUBLIC "-//W3C//DTD SVG 1.1//EN" "http://www.w3.org/Graphics/SVG/1.1/DTD/svg11.dtd">
<!-- Generated by Microsoft Visio, SVG Export Web Services.svg Page-1 -->
<svg xmlns="http://www.w3.org/2000/svg" xmlns:xlink="http://www.w3.org/1999/xlink" xmlns:ev="http://www.w3.org/2001/xml-events"
		xmlns:v="http://schemas.microsoft.com/visio/2003/SVGExtensions/" width="1.03125in" height="0.96875in"
		viewBox="0 0 74.25 69.75" xml:space="preserve" color-interpolation-filters="sRGB" class="st3">
	<v:documentProperties v:langID="4108" v:metric="true" v:viewMarkup="false"/>

	<style type="text/css">
	<![CDATA[
		.st1 {fill:#ffffff;stroke:none;stroke-linecap:butt;stroke-width:0.75}
		.st2 {fill:#515150;stroke:none;stroke-linecap:butt;stroke-width:0.75}
		.st3 {fill:none;fill-rule:evenodd;font-size:12px;overflow:visible;stroke-linecap:square;stroke-miterlimit:3}
	]]>
	</style>

	<g v:mID="0" v:index="1" v:groupContext="foregroundPage">
		<title>Page-1</title>
		<v:pageProperties v:drawingScale="0.0393701" v:pageScale="0.0393701" v:drawingUnits="24" v:shadowOffsetX="8.50394"
				v:shadowOffsetY="-8.50394"/>
		<v:layer v:name="symbols" v:index="0"/>
		<g id="group1568-1" transform="translate(8.91562,-1.9125)" v:mID="1568" v:groupContext="group" v:layerMember="0">
			<title>Web Services</title>
			<g id="group1569-2" transform="translate(0,-7.05)" v:mID="1569" v:groupContext="group" v:layerMember="0">
				<title>Sheet.1569</title>
				<g id="shape1570-3" v:mID="1570" v:groupContext="shape" v:layerMember="0">
					<title>Sheet.1570</title>
					<path d="M26.62 69.75 C11.92 69.75 0 57.82 0 43.12 C-0 28.42 11.92 16.5 26.62 16.5 C41.32 16.5 53.25 28.42 53.25
								 43.12 C53.25 57.82 41.32 69.75 26.62 69.75 Z" class="st1"/>
				</g>
				<g id="group1571-5" transform="translate(2.25,-2.7)" v:mID="1571" v:groupContext="group" v:layerMember="0">
					<title>Sheet.1571</title>
					<g id="shape1572-6" v:mID="1572" v:groupContext="shape" v:layerMember="0" transform="translate(25.5,-24.3)">
						<title>Sheet.1572</title>
						<path d="M0 69.75 C4.05 69.67 8.03 69.07 11.55 68.1 C11.4 64.27 10.73 60.67 9.68 57.52 C6.68 58.42 3.38 59.02
									 0 59.1 L0 69.75 Z" class="st2"/>
					</g>
					<g id="shape1573-8" v:mID="1573" v:groupContext="shape" v:layerMember="0" transform="translate(25.5,-37.275)">
						<title>Sheet.1573</title>
						<path d="M0 59.17 L0 69.75 C3.15 69.67 6.15 69.15 8.92 68.32 C6.82 63.22 3.6 59.77 0 59.17 Z" class="st2"/>
					</g>
					<g id="shape1574-10" v:mID="1574" v:groupContext="shape" v:layerMember="0" transform="translate(14.325,-37.35)">
						<title>Sheet.1574</title>
						<path d="M8.92 59.25 C5.32 59.85 2.18 63.3 0 68.32 C2.77 69.15 5.77 69.67 8.92 69.75 L8.92 59.25 Z"
								class="st2"/>
					</g>
					<g id="shape1575-12" v:mID="1575" v:groupContext="shape" v:layerMember="0" transform="translate(1.05,-26.7)">
						<title>Sheet.1575</title>
						<path d="M5.18 56.33 C2.85 58.88 1.05 62.02 0 65.4 C2.33 67.2 5.18 68.62 8.4 69.75 C8.63 65.85 9.3 62.25
									 10.35 59.1 C8.48 58.35 6.68 57.38 5.18 56.33 Z" class="st2"/>
					</g>
					<g id="shape1576-14" v:mID="1576" v:groupContext="shape" v:layerMember="0" transform="translate(38.25,-13.725)">
						<title>Sheet.1576</title>
						<path d="M1.12 59.55 C1.12 63.15 0.75 66.6 0 69.75 C3.75 68.47 7.12 66.67 10.05 64.42 C10.35 62.85 10.57
									 61.2 10.57 59.55 C10.57 57.9 10.42 56.32 10.12 54.82 C7.57 56.62 4.57 58.05 1.2 59.17 C1.12
									 59.25 1.12 59.4 1.12 59.55 Z" class="st2"/>
					</g>
					<g id="shape1577-16" v:mID="1577" v:groupContext="shape" v:layerMember="0" transform="translate(7.725,-39.525)">
						<title>Sheet.1577</title>
						<path d="M9.67 61.95 C6 63 2.78 64.95 0 67.42 C1.35 68.32 2.78 69.07 4.42 69.75 C5.85 66.52 7.65 63.83 9.67
									 61.95 Z" class="st2"/>
					</g>
					<g id="shape1578-18" v:mID="1578" v:groupContext="shape" v:layerMember="0"
							transform="translate(2.43805E-13,-13.575)">
						<title>Sheet.1578</title>
						<path d="M9.37 59.4 C9.37 59.25 9.37 59.1 9.37 58.95 C6 57.9 3 56.4 0.45 54.68 C0.15 56.18 0 57.75 0 59.4
									 C0 61.2 0.22 63 0.6 64.73 C3.52 66.82 6.97 68.55 10.57 69.75 C9.82 66.6 9.37 63.08 9.37 59.4
									 Z" class="st2"/>
					</g>
					<g id="shape1579-20" v:mID="1579" v:groupContext="shape" v:layerMember="0" transform="translate(11.7,-24.3)">
						<title>Sheet.1579</title>
						<path d="M0 68.1 C3.6 69.07 7.5 69.67 11.55 69.75 L11.55 59.03 C8.18 58.95 4.88 58.35 1.87 57.45 C0.83 60.6
									 0.15 64.2 0 68.1 Z" class="st2"/>
					</g>
					<g id="shape1580-22" v:mID="1580" v:groupContext="shape" v:layerMember="0" transform="translate(37.35,-26.7)">
						<title>Sheet.1580</title>
						<path d="M10.35 65.4 C9.3 62.02 7.58 58.95 5.25 56.33 C3.68 57.45 1.87 58.35 0 59.1 C1.05 62.25 1.73 65.85
									 1.95 69.75 C5.18 68.62 8.03 67.2 10.35 65.4 Z" class="st2"/>
					</g>
					<g id="shape1581-24" v:mID="1581" v:groupContext="shape" v:layerMember="0" transform="translate(31.275,-39.45)">
						<title>Sheet.1581</title>
						<path d="M0 61.87 C2.1 63.75 3.9 66.45 5.25 69.75 C6.9 69.07 8.4 68.32 9.75 67.42 C7.05 64.95 3.67 63 0 61.87
									 Z" class="st2"/>
					</g>
					<g id="shape1582-26" v:mID="1582" v:groupContext="shape" v:layerMember="0" transform="translate(11.625,-11.4)">
						<title>Sheet.1582</title>
						<path d="M11.63 69.75 L11.63 59.1 C7.58 59.02 3.6 58.42 0 57.52 C-0 61.42 0.53 65.17 1.42 68.4 C4.73 69.22
									 8.1 69.67 11.63 69.75 Z" class="st2"/>
					</g>
					<g id="shape1583-28" v:mID="1583" v:groupContext="shape" v:layerMember="0" transform="translate(31.275,-0.525)">
						<title>Sheet.1583</title>
						<path d="M6.23 59.18 C4.8 63.67 2.63 67.35 0 69.75 C7.43 67.57 13.35 61.95 15.98 54.68 C13.05 56.55 9.75
									 58.13 6.23 59.18 Z" class="st2"/>
					</g>
					<g id="shape1584-30" v:mID="1584" v:groupContext="shape" v:layerMember="0" transform="translate(1.575,-0.6)">
						<title>Sheet.1584</title>
						<path d="M9.67 59.4 C6.22 58.35 2.92 56.92 0 55.12 C2.7 62.17 8.55 67.65 15.82 69.75 C13.27 67.5 11.1 63.82
									 9.67 59.4 Z" class="st2"/>
					</g>
					<g id="shape1585-32" v:mID="1585" v:groupContext="shape" v:layerMember="0"
							transform="translate(13.875,2.41585E-13)">
						<title>Sheet.1585</title>
						<path d="M9.37 69.75 L9.37 60.6 C6.15 60.52 3 60.15 0 59.47 C2.1 65.17 5.47 69.07 9.37 69.75 Z" class="st2"/>
					</g>
					<g id="shape1586-34" v:mID="1586" v:groupContext="shape" v:layerMember="0" transform="translate(25.5,-11.475)">
						<title>Sheet.1586</title>
						<path d="M11.63 57.52 C8.02 58.5 4.05 59.02 0 59.1 L0 69.75 C3.52 69.67 6.98 69.15 10.2 68.25 C11.1 65.02
									 11.63 61.42 11.63 57.52 Z" class="st2"/>
					</g>
					<g id="shape1587-36" v:mID="1587" v:groupContext="shape" v:layerMember="0"
							transform="translate(25.5,-2.41585E-13)">
						<title>Sheet.1587</title>
						<path d="M0 60.6 L0 69.75 C3.9 69.07 7.27 65.17 9.37 59.4 C6.37 60.08 3.22 60.45 0 60.6 Z" class="st2"/>
					</g>
				</g>
			</g>
			<g id="group1588-38" transform="translate(29.85,3.12639E-13)" v:mID="1588" v:groupContext="group" v:layerMember="0">
				<title>Sheet.1588</title>
				<g id="shape1589-39" v:mID="1589" v:groupContext="shape" v:layerMember="0">
					<title>Sheet.1589</title>
					<path d="M20.92 69.75 C19.73 69.75 18.6 69 18.15 67.87 L17.47 66.3 C17.33 66.3 17.1 66.3 16.88 66.3 C16.65 66.3
								 16.43 66.3 16.2 66.3 L15.53 67.87 C15.08 69 13.95 69.75 12.75 69.75 C12.38 69.75 11.93 69.67 11.63
								 69.52 L8.77 68.32 C8.03 68.02 7.43 67.42 7.12 66.67 C6.83 65.92 6.83 65.1 7.12 64.35 L7.8 62.77
								 L6.98 61.95 L5.4 62.55 C5.03 62.7 4.65 62.77 4.28 62.77 C3.08 62.77 1.95 62.02 1.5 60.9 L0.3 58.05
								 C-0 57.3 0 56.47 0.3 55.72 C0.6 54.97 1.2 54.37 1.95 54.07 L3.52 53.4 L3.52 52.2 L1.95 51.52 C1.2
								 51.22 0.6 50.62 0.3 49.87 C-0 49.12 0 48.3 0.3 47.55 L1.5 44.7 C1.95 43.57 3.08 42.82 4.28 42.82
								 C4.65 42.82 5.03 42.9 5.4 43.05 L6.98 43.72 L7.8 42.9 L7.12 41.32 C6.83 40.57 6.83 39.75 7.12 39
								 C7.42 38.25 8.03 37.65 8.77 37.35 L11.63 36.15 C12 36 12.38 35.92 12.75 35.92 C13.95 35.92 15.08
								 36.67 15.53 37.8 L16.13 39.3 C16.28 39.3 16.5 39.3 16.73 39.3 C16.95 39.3 17.18 39.3 17.4 39.3 L18
								 37.72 C18.45 36.6 19.58 35.85 20.78 35.85 C21.15 35.85 21.53 35.92 21.9 36.07 L24.75 37.27 C25.5
								 37.57 26.1 38.17 26.4 38.92 C26.7 39.67 26.7 40.5 26.4 41.25 L25.73 42.82 L26.55 43.65 L28.13 42.97
								 C28.5 42.82 28.88 42.75 29.25 42.75 C30.45 42.75 31.58 43.5 32.03 44.62 L33.23 47.47 C33.53 48.22
								 33.53 49.05 33.23 49.8 C32.93 50.55 32.33 51.15 31.58 51.45 L30 52.12 L30 53.32 L31.58 54 C33.15
								 54.67 33.83 56.4 33.23 57.97 L32.03 60.82 C31.58 61.95 30.45 62.7 29.25 62.7 C28.88 62.7 28.43 62.62
								 28.05 62.48 L26.48 61.8 L25.65 62.62 L26.33 64.2 C26.62 64.95 26.63 65.77 26.33 66.52 C26.03 67.27
								 25.43 67.87 24.68 68.17 L21.82 69.37 C21.75 69.67 21.38 69.75 20.92 69.75 Z" class="st1"/>
				</g>
				<g id="shape1590-41" v:mID="1590" v:groupContext="shape" v:layerMember="0" transform="translate(2.025,-1.875)">
					<title>Sheet.1590</title>
					<path d="M29.03 58.05 L26.63 57.07 C26.25 56.92 25.95 56.7 25.95 56.62 C25.95 56.55 26.03 56.1 26.03 55.72 L26.03
								 53.77 C26.03 53.32 25.95 52.95 25.95 52.87 C25.95 52.8 26.25 52.57 26.63 52.42 L29.03 51.45 C29.4
								 51.3 29.63 50.85 29.47 50.4 L28.27 47.55 C28.13 47.17 27.67 46.95 27.23 47.1 L24.83 48.07 C24.45
								 48.22 24.07 48.3 24 48.22 C23.93 48.15 23.7 47.85 23.4 47.47 L21.97 46.12 C21.67 45.82 21.3 45.6
								 21.3 45.52 C21.23 45.45 21.3 45.15 21.45 44.7 L22.43 42.3 C22.57 41.92 22.43 41.47 21.97 41.25 L19.12
								 40.05 C18.75 39.9 18.3 40.05 18.08 40.5 L17.1 42.9 C16.95 43.27 16.72 43.57 16.65 43.57 C16.58 43.57
								 16.12 43.5 15.75 43.42 C15.75 43.42 15.38 43.35 14.78 43.35 C14.25 43.5 13.88 43.57 13.88 43.57
								 C13.42 43.65 13.05 43.65 12.98 43.72 C12.9 43.72 12.68 43.42 12.52 43.05 L11.55 40.57 C11.4 40.2
								 10.95 39.97 10.5 40.12 L7.65 41.32 C7.28 41.47 7.05 41.92 7.2 42.37 L8.18 44.77 C8.32 45.15 8.4
								 45.52 8.33 45.6 C8.25 45.67 7.95 45.9 7.65 46.2 L6.23 47.62 C5.93 47.92 5.7 48.3 5.63 48.37 C5.55
								 48.45 5.25 48.37 4.8 48.22 L2.4 47.25 C2.02 47.1 1.57 47.25 1.35 47.7 L0.15 50.55 C0 50.92 0.15
								 51.37 0.6 51.6 L3 52.57 C3.37 52.72 3.67 52.95 3.67 53.02 C3.67 53.1 3.6 53.55 3.6 53.92 L3.6 55.87
								 C3.6 56.32 3.67 56.7 3.67 56.77 C3.67 56.85 3.37 57.07 3 57.22 L0.6 58.2 C0.23 58.35 0 58.8 0.15
								 59.25 L1.35 62.1 C1.5 62.47 1.95 62.7 2.4 62.55 L4.8 61.57 C5.17 61.42 5.55 61.35 5.63 61.42 C5.7
								 61.5 5.93 61.8 6.23 62.17 L7.65 63.52 C7.95 63.82 8.32 64.05 8.4 64.12 C8.48 64.2 8.4 64.57 8.25
								 64.95 L7.28 67.35 C7.12 67.72 7.28 68.17 7.72 68.4 L10.58 69.6 C10.95 69.75 11.4 69.6 11.62 69.15
								 L12.6 66.75 C12.75 66.37 12.98 66.07 13.05 66.07 C13.12 66.07 13.58 66.15 13.95 66.22 C13.95 66.22
								 14.32 66.3 14.92 66.3 C15.52 66.3 15.9 66.22 15.9 66.22 C16.35 66.15 16.72 66.15 16.8 66.07 C16.88
								 66.07 17.1 66.37 17.25 66.75 L18.22 69.15 C18.38 69.52 18.82 69.75 19.28 69.6 L22.12 68.4 C22.5
								 68.25 22.73 67.8 22.57 67.35 L21.6 64.95 C21.45 64.57 21.38 64.2 21.45 64.12 C21.52 64.05 21.82
								 63.82 22.2 63.52 L23.63 62.1 C23.93 61.8 24.15 61.42 24.23 61.35 C24.3 61.27 24.6 61.35 25.05 61.5
								 L27.45 62.47 C27.83 62.62 28.27 62.47 28.5 62.02 L29.7 59.17 C29.55 58.65 29.4 58.2 29.03 58.05
								 ZM14.85 62.47 C10.58 62.47 7.13 59.02 7.13 54.75 C7.13 50.47 10.58 47.02 14.85 47.02 C19.12 47.02
								 22.57 50.47 22.57 54.75 C22.57 59.02 19.12 62.47 14.85 62.47 Z" class="st2"/>
				</g>
			</g>
		</g>
	</g>
</svg>
