<?xml version="1.0" encoding="UTF-8" standalone="no"?>
<!DOCTYPE svg PUBLIC "-//W3C//DTD SVG 1.1//EN" "http://www.w3.org/Graphics/SVG/1.1/DTD/svg11.dtd">
<!-- Generated by Microsoft Visio, SVG Export Website.svg Page-1 -->
<svg xmlns="http://www.w3.org/2000/svg" xmlns:xlink="http://www.w3.org/1999/xlink" xmlns:ev="http://www.w3.org/2001/xml-events"
		xmlns:v="http://schemas.microsoft.com/visio/2003/SVGExtensions/" width="1.125in" height="0.890625in"
		viewBox="0 0 81 64.125" xml:space="preserve" color-interpolation-filters="sRGB" class="st3">
	<v:documentProperties v:langID="4108" v:metric="true" v:viewMarkup="false"/>

	<style type="text/css">
	<![CDATA[
		.st1 {fill:#ffffff;stroke:none;stroke-linecap:butt;stroke-width:0.75}
		.st2 {fill:#505050;stroke:none;stroke-linecap:butt;stroke-width:0.75}
		.st3 {fill:none;fill-rule:evenodd;font-size:12px;overflow:visible;stroke-linecap:square;stroke-miterlimit:3}
	]]>
	</style>

	<g v:mID="0" v:index="1" v:groupContext="foregroundPage">
		<title>Page-1</title>
		<v:pageProperties v:drawingScale="0.0393701" v:pageScale="0.0393701" v:drawingUnits="24" v:shadowOffsetX="8.50394"
				v:shadowOffsetY="-8.50394"/>
		<v:layer v:name="symbols" v:index="0"/>
		<g id="group1591-1" transform="translate(10.2281,-1.6875)" v:mID="1591" v:groupContext="group" v:layerMember="0">
			<title>Website</title>
			<g id="group1592-2" v:mID="1592" v:groupContext="group" v:layerMember="0">
				<title>Sheet.1592</title>
				<g id="group1593-3" transform="translate(0,-9)" v:mID="1593" v:groupContext="group" v:layerMember="0">
					<title>Sheet.1593</title>
					<g id="group1594-4" v:mID="1594" v:groupContext="group" v:layerMember="0">
						<title>Sheet.1594</title>
						<g id="shape1595-5" v:mID="1595" v:groupContext="shape" v:layerMember="0">
							<title>Sheet.1595</title>
							<path d="M5.25 64.12 C2.33 64.12 0 61.8 0 58.87 L0 24.38 C0 21.45 2.33 19.13 5.25 19.13 L50.25 19.13
										 C53.18 19.13 55.5 21.45 55.5 24.38 L55.5 58.87 C55.5 61.8 53.18 64.12 50.25 64.12 L5.25
										 64.12 Z" class="st1"/>
						</g>
						<g id="shape1596-7" v:mID="1596" v:groupContext="shape" v:layerMember="0" transform="translate(2.25,-2.25)">
							<title>Sheet.1596</title>
							<path d="M48 23.63 L3 23.63 C1.35 23.63 0 24.97 0 26.63 L0 61.12 C0 62.77 1.35 64.12 3 64.12 L48 64.12
										 C49.65 64.12 51 62.77 51 61.12 L51 26.63 C51 24.97 49.65 23.63 48 23.63 ZM42 25.88 L44.25
										 25.88 L44.25 28.13 L42 28.13 L42 25.88 ZM37.5 25.88 L39.75 25.88 L39.75 28.13 L37.5 28.13
										 L37.5 25.88 ZM48.75 61.12 C48.75 61.57 48.45 61.87 48 61.87 L3 61.87 C2.55 61.87 2.25 61.57
										 2.25 61.12 L2.25 31.13 L48.75 31.13 L48.75 61.12 ZM48.75 28.13 L46.5 28.13 L46.5 25.88 L48.75
										 25.88 L48.75 28.13 Z" class="st2"/>
						</g>
					</g>
					<g id="group1597-9" transform="translate(12,-8.25)" v:mID="1597" v:groupContext="group" v:layerMember="0">
						<title>Sheet.1597</title>
						<g id="shape1598-10" v:mID="1598" v:groupContext="shape" v:layerMember="0">
							<title>Sheet.1598</title>
							<path d="M27 53.62 L27 52.12 L16.5 52.12 L16.5 47.62 L21 47.62 L21 40.87 L10.5 40.87 L10.5 47.62 L15
										 47.62 L15 52.12 L5.25 52.12 L4.5 52.12 L3.75 52.12 L3.75 58.12 L0 58.12 L0 64.12 L9 64.12
										 L9 58.12 L5.25 58.12 L5.25 53.62 L15 53.62 L15 58.12 L11.25 58.12 L11.25 64.12 L20.25 64.12
										 L20.25 58.12 L16.5 58.12 L16.5 53.62 L27 53.62 Z" class="st2"/>
						</g>
						<g id="shape1599-12" v:mID="1599" v:groupContext="shape" v:layerMember="0"
								transform="translate(26.25,-5.25)">
							<title>Sheet.1599</title>
							<rect x="0" y="57.375" width="1.5" height="6.75" class="st2"/>
						</g>
					</g>
				</g>
				<g id="group1600-14" transform="translate(30.75,-2.55795E-13)" v:mID="1600" v:groupContext="group"
						v:layerMember="0">
					<title>Sheet.1600</title>
					<g id="shape1601-15" v:mID="1601" v:groupContext="shape" v:layerMember="0">
						<title>Sheet.1601</title>
						<ellipse cx="16.5" cy="47.625" rx="16.5" ry="16.5" class="st1"/>
					</g>
					<g id="group1602-17" transform="translate(2.325,-2.325)" v:mID="1602" v:groupContext="group" v:layerMember="0">
						<title>Sheet.1602</title>
						<g id="shape1603-18" v:mID="1603" v:groupContext="shape" v:layerMember="0"
								transform="translate(15.075,-14.625)">
							<title>Sheet.1603</title>
							<path d="M5.63 56.92 C3.9 57.45 1.95 57.75 0 57.82 L0 64.12 C2.4 64.05 4.73 63.75 6.83 63.15 C6.6 60.9
										 6.23 58.8 5.63 56.92 Z" class="st2"/>
						</g>
						<g id="shape1604-20" v:mID="1604" v:groupContext="shape" v:layerMember="0"
								transform="translate(4.725,-23.775)">
							<title>Sheet.1604</title>
							<path d="M4.5 60.37 C2.85 60.97 1.35 61.95 0 63.07 C0.68 63.45 1.43 63.82 2.18 64.12 C2.85 62.7 3.6 61.42
										 4.5 60.37 Z" class="st2"/>
						</g>
						<g id="shape1605-22" v:mID="1605" v:groupContext="shape" v:layerMember="0"
								transform="translate(8.4,-22.35)">
							<title>Sheet.1605</title>
							<path d="M0 63.3 C1.58 63.75 3.3 64.05 5.1 64.12 L5.1 58.12 C4.87 58.12 4.72 58.12 4.5 58.12 C2.7 58.72
										 1.12 60.6 0 63.3 Z" class="st2"/>
						</g>
						<g id="shape1606-24" v:mID="1606" v:groupContext="shape" v:layerMember="0"
								transform="translate(6.75,-14.625)">
							<title>Sheet.1606</title>
							<path d="M0 63.15 C2.1 63.75 4.43 64.05 6.83 64.12 L6.83 57.82 C4.88 57.75 2.93 57.45 1.2 56.92 C0.45
										 58.8 0.08 60.9 0 63.15 Z" class="st2"/>
						</g>
						<g id="shape1607-26" v:mID="1607" v:groupContext="shape" v:layerMember="0"
								transform="translate(22.65,-8.4)">
							<title>Sheet.1607</title>
							<path d="M0.68 58.2 C0.68 60.3 0.45 62.32 0 64.12 C2.03 63.37 3.9 62.4 5.48 61.2 C5.7 60.22 5.78 59.25
										 5.78 58.27 C5.78 57.37 5.7 56.47 5.55 55.65 C4.13 56.62 2.48 57.37 0.6 57.97 C0.68 58.12
										 0.68 58.12 0.68 58.2 Z" class="st2"/>
						</g>
						<g id="shape1608-28" v:mID="1608" v:groupContext="shape" v:layerMember="0"
								transform="translate(-1.42886E-13,-8.25)">
							<title>Sheet.1608</title>
							<path d="M5.18 58.05 C5.18 57.97 5.18 57.9 5.18 57.82 C3.38 57.22 1.65 56.4 0.23 55.5 C0.07 56.32 0 57.22
										 0 58.12 C0 59.32 0.15 60.45 0.45 61.5 C2.1 62.62 3.9 63.52 5.85 64.12 C5.4 62.32 5.18 60.3
										 5.18 58.05 Z" class="st2"/>
						</g>
						<g id="shape1609-30" v:mID="1609" v:groupContext="shape" v:layerMember="0"
								transform="translate(0.675,-16.05)">
							<title>Sheet.1609</title>
							<path d="M3 56.47 C1.65 57.97 0.6 59.77 0 61.8 C1.28 62.77 2.85 63.52 4.58 64.12 C4.73 61.87 5.1 59.7
										 5.78 57.9 C4.73 57.45 3.83 57 3 56.47 Z" class="st2"/>
						</g>
						<g id="shape1610-32" v:mID="1610" v:groupContext="shape" v:layerMember="0"
								transform="translate(14.925,-22.425)">
							<title>Sheet.1610</title>
							<path d="M0.07 64.12 C1.87 64.05 3.6 63.75 5.17 63.3 C4.05 60.67 2.4 58.72 0.6 58.12 C0.37 58.12 0.22
										 58.12 0 58.12 L0 64.12 L0.07 64.12 Z" class="st2"/>
						</g>
						<g id="shape1611-34" v:mID="1611" v:groupContext="shape" v:layerMember="0"
								transform="translate(1.2,-0.825)">
							<title>Sheet.1611</title>
							<path d="M5.18 58.5 C3.3 57.97 1.58 57.22 0 56.32 C1.58 59.92 4.58 62.77 8.33 64.12 C6.98 62.77 5.93
										 60.82 5.18 58.5 Z" class="st2"/>
						</g>
						<g id="shape1612-36" v:mID="1612" v:groupContext="shape" v:layerMember="0"
								transform="translate(19.275,-23.7)">
							<title>Sheet.1612</title>
							<path d="M0 60.3 C0.9 61.35 1.65 62.62 2.25 64.12 C3 63.82 3.75 63.45 4.43 63.07 C3.23 61.87 1.73 60.9
										 0 60.3 Z" class="st2"/>
						</g>
						<g id="shape1613-38" v:mID="1613" v:groupContext="shape" v:layerMember="0"
								transform="translate(22.125,-16.05)">
							<title>Sheet.1613</title>
							<path d="M5.78 61.8 C5.18 59.77 4.13 57.97 2.78 56.47 C1.95 57 1.05 57.45 0 57.9 C0.6 59.77 1.05 61.87
										 1.2 64.12 C2.93 63.52 4.43 62.7 5.78 61.8 Z" class="st2"/>
						</g>
						<g id="shape1614-40" v:mID="1614" v:groupContext="shape" v:layerMember="0"
								transform="translate(19.05,-0.825)">
							<title>Sheet.1614</title>
							<path d="M3.15 58.35 C2.4 60.75 1.35 62.7 0 64.12 C3.82 62.77 6.9 59.77 8.4 55.95 C6.83 57 5.1 57.75
										 3.15 58.35 Z" class="st2"/>
						</g>
						<g id="shape1615-42" v:mID="1615" v:groupContext="shape" v:layerMember="0"
								transform="translate(8.1,1.56319E-13)">
							<title>Sheet.1615</title>
							<path d="M5.4 64.12 L5.4 58.8 C3.53 58.8 1.73 58.57 0 58.2 C1.28 61.42 3.23 63.67 5.4 64.12 Z"
									class="st2"/>
						</g>
						<g id="shape1616-44" v:mID="1616" v:groupContext="shape" v:layerMember="0" transform="translate(15,-6.825)">
							<title>Sheet.1616</title>
							<path d="M6.83 56.92 C4.73 57.45 2.4 57.82 0 57.9 L0 64.12 C2.03 64.05 4.05 63.75 6 63.22 C6.53 61.27
										 6.83 59.1 6.83 56.92 Z" class="st2"/>
						</g>
						<g id="shape1617-46" v:mID="1617" v:groupContext="shape" v:layerMember="0"
								transform="translate(6.675,-6.9)">
							<title>Sheet.1617</title>
							<path d="M6.83 64.12 L6.83 57.9 C4.43 57.82 2.1 57.52 0 56.92 C0 59.25 0.38 61.42 0.9 63.3 C2.78 63.82
										 4.8 64.12 6.83 64.12 Z" class="st2"/>
						</g>
						<g id="shape1618-48" v:mID="1618" v:groupContext="shape" v:layerMember="0" transform="translate(15,-0.075)">
							<title>Sheet.1618</title>
							<path d="M0 58.8 L0 64.12 C2.18 63.67 4.2 61.35 5.4 58.05 C3.68 58.5 1.88 58.72 0 58.8 Z" class="st2"/>
						</g>
					</g>
				</g>
			</g>
		</g>
	</g>
</svg>
