<?xml version="1.0" encoding="UTF-8" standalone="no"?>
<!DOCTYPE svg PUBLIC "-//W3C//DTD SVG 1.1//EN" "http://www.w3.org/Graphics/SVG/1.1/DTD/svg11.dtd">
<!-- Generated by Microsoft Visio, SVG Export Whats New.svg Page-1 -->
<svg xmlns="http://www.w3.org/2000/svg" xmlns:xlink="http://www.w3.org/1999/xlink" xmlns:ev="http://www.w3.org/2001/xml-events"
		xmlns:v="http://schemas.microsoft.com/visio/2003/SVGExtensions/" width="1.01172in" height="0.78125in"
		viewBox="0 0 72.8438 56.25" xml:space="preserve" color-interpolation-filters="sRGB" class="st3">
	<v:documentProperties v:langID="4108" v:metric="true" v:viewMarkup="false"/>

	<style type="text/css">
	<![CDATA[
		.st1 {fill:#ffffff;stroke:none;stroke-linecap:butt;stroke-width:0.75}
		.st2 {fill:#505050;stroke:none;stroke-linecap:butt;stroke-width:0.75}
		.st3 {fill:none;fill-rule:evenodd;font-size:12px;overflow:visible;stroke-linecap:square;stroke-miterlimit:3}
	]]>
	</style>

	<g v:mID="0" v:index="1" v:groupContext="foregroundPage">
		<title>Page-1</title>
		<v:pageProperties v:drawingScale="0.0393701" v:pageScale="0.0393701" v:drawingUnits="24" v:shadowOffsetX="8.50394"
				v:shadowOffsetY="-8.50394"/>
		<v:layer v:name="symbols" v:index="0"/>
		<g id="group1619-1" transform="translate(8.08125,-5.4)" v:mID="1619" v:groupContext="group" v:layerMember="0">
			<title>Whats New</title>
			<g id="group1620-2" v:mID="1620" v:groupContext="group" v:layerMember="0">
				<title>Sheet.1620</title>
				<g id="shape1621-3" v:mID="1621" v:groupContext="shape" v:layerMember="0">
					<title>Sheet.1621</title>
					<path d="M51 18.68 L49.2 17.1 L45.3 22.35 L45.37 22.43 L44.1 24.15 L44.1 17.48 C44.1 15.68 42.53 14.18 40.72
								 14.18 C39.9 14.18 39.07 14.55 38.47 15.15 C32.93 21 24 22.35 21 22.35 L9.82 22.35 L9.67 22.35 C7.87
								 22.43 6.3 23.32 5.32 24.75 C2.33 25.27 0 28.42 0 32.25 L0 32.33 C0 36.22 2.33 39.3 5.4 39.9 C6.15
								 41.02 7.35 41.77 8.7 42.07 L9.3 43.35 C9.45 43.8 9.67 44.4 10.12 45.53 C10.57 46.65 11.18 48.23
								 11.33 48.75 C11.47 49.35 11.7 50.02 11.92 50.62 C12.15 51.22 12.45 52.05 12.45 52.35 C12.45 55.05
								 13.95 56.25 15.45 56.25 C17.17 56.25 21.45 53.85 21.9 51.97 C22.2 50.48 21.38 49.5 20.85 48.97 C20.85
								 47.62 20.55 46.28 20.25 45.15 C20.55 44.85 20.92 44.47 21.08 43.87 C21.3 43.28 21.3 42.67 21.22
								 42.15 C23.4 42.15 33.08 42.6 38.7 48.75 C39.22 49.35 40.05 49.73 40.87 49.72 C42.68 49.73 44.18
								 48.15 44.17 46.27 L44.17 39 L46.87 42.15 L50.17 45.98 L51.9 44.25 C55.12 41.02 57 36.6 57 31.88
								 C57 26.77 54.83 21.9 51 18.68 Z" class="st1"/>
				</g>
				<g id="shape1622-5" v:mID="1622" v:groupContext="shape" v:layerMember="0" transform="translate(2.25,-2.25)">
					<title>Sheet.1622</title>
					<path d="M39.6 29.7 L39.6 19.65 C39.6 18.83 38.47 18.23 37.95 18.83 C31.72 25.5 21.98 26.85 18.75 26.85 C16.5
								 26.85 7.57 26.85 7.58 26.85 C6.15 26.93 4.95 27.82 4.5 29.1 L4.13 29.1 C1.87 29.1 0 31.5 0 34.5
								 L0 34.58 C0 37.58 1.87 39.98 4.13 39.98 L4.5 39.98 C4.95 41.25 6.15 42.15 7.5 42.15 C7.5 42.15 7.65
								 42.15 7.87 42.15 L9.08 44.77 C9.3 45.53 10.8 49.2 11.18 50.4 C11.62 51.83 12.45 53.85 12.45 54.53
								 C12.45 55.28 12.68 56.25 13.2 56.25 C14.32 56.25 17.32 54.15 17.48 53.78 C17.7 52.88 16.2 52.65
								 16.35 51.9 C16.58 49.95 15.6 47.48 15.45 46.65 C15.38 46.42 15.45 46.2 15.75 46.12 C16.05 46.05
								 16.58 45.9 16.65 45.53 C16.95 44.7 16.2 43.8 16.13 43.28 C16.05 42.75 17.02 42.45 17.4 42.38 C17.77
								 42.3 18.15 42.3 18.6 42.3 C18.68 42.3 18.83 42.3 18.9 42.3 C21.97 42.3 32.1 42.9 38.18 49.65 C38.7
								 50.25 39.75 49.57 39.75 48.75 L39.75 38.25 L40.2 38.25 C41.47 37.35 42.38 35.85 42.38 34.13 C42.23
								 32.17 41.25 30.68 39.6 29.7 Z" class="st2"/>
				</g>
				<g id="shape1623-7" v:mID="1623" v:groupContext="shape" v:layerMember="0" transform="translate(45.225,-17.475)">
					<title>Sheet.1623</title>
					<path d="M1.27 42.07 L0 43.8 C1.35 45.22 2.17 47.25 2.17 49.27 C2.17 51.3 1.42 53.25 0.23 54.67 L1.57 56.25 C3.23
								 54.38 4.28 51.97 4.27 49.27 C4.35 46.5 3.15 43.95 1.27 42.07 Z" class="st2"/>
				</g>
				<g id="shape1624-9" v:mID="1624" v:groupContext="shape" v:layerMember="0" transform="translate(48.3,-13.575)">
					<title>Sheet.1624</title>
					<path d="M1.27 33.9 L0 35.55 C2.7 38.02 4.35 41.47 4.35 45.37 C4.35 48.97 2.92 52.2 0.6 54.67 L1.95 56.25 C4.72
								 53.48 6.37 49.65 6.37 45.37 C6.45 40.87 4.42 36.67 1.27 33.9 Z" class="st2"/>
				</g>
			</g>
		</g>
	</g>
</svg>
