<?xml version="1.0" encoding="UTF-8" standalone="no"?>
<!DOCTYPE svg PUBLIC "-//W3C//DTD SVG 1.1//EN" "http://www.w3.org/Graphics/SVG/1.1/DTD/svg11.dtd">
<!-- Generated by Microsoft Visio, SVG Export Windows PowerShell.svg Page-1 -->
<svg xmlns="http://www.w3.org/2000/svg" xmlns:xlink="http://www.w3.org/1999/xlink" xmlns:ev="http://www.w3.org/2001/xml-events"
		xmlns:v="http://schemas.microsoft.com/visio/2003/SVGExtensions/" width="1.01172in" height="0.953125in"
		viewBox="0 0 72.8438 68.625" xml:space="preserve" color-interpolation-filters="sRGB" class="st3">
	<v:documentProperties v:langID="4108" v:metric="true" v:viewMarkup="false"/>

	<style type="text/css">
	<![CDATA[
		.st1 {fill:#ffffff;stroke:none;stroke-linecap:butt;stroke-width:0.75}
		.st2 {fill:#515050;stroke:none;stroke-linecap:butt;stroke-width:0.75}
		.st3 {fill:none;fill-rule:evenodd;font-size:12px;overflow:visible;stroke-linecap:square;stroke-miterlimit:3}
	]]>
	</style>

	<g v:mID="0" v:index="1" v:groupContext="foregroundPage">
		<title>Page-1</title>
		<v:pageProperties v:drawingScale="0.0393701" v:pageScale="0.0393701" v:drawingUnits="24" v:shadowOffsetX="8.50394"
				v:shadowOffsetY="-8.50394"/>
		<v:layer v:name="symbols" v:index="0"/>
		<g id="group1625-1" transform="translate(11.7094,-9.6)" v:mID="1625" v:groupContext="group" v:layerMember="0">
			<title>Windows PowerShell</title>
			<g id="group1626-2" v:mID="1626" v:groupContext="group" v:layerMember="0">
				<title>Sheet.1626</title>
				<g id="group1627-3" v:mID="1627" v:groupContext="group" v:layerMember="0">
					<title>Sheet.1627</title>
					<g id="shape1628-4" v:mID="1628" v:groupContext="shape" v:layerMember="0">
						<title>Sheet.1628</title>
						<path d="M5.17 68.63 C2.32 68.63 0 66.3 0 63.45 L0 24.38 C0 21.53 2.32 19.2 5.17 19.2 L44.25 19.2 C47.1 19.2
									 49.42 21.53 49.42 24.38 L49.42 63.45 C49.42 66.3 47.1 68.63 44.25 68.63 L5.17 68.63 Z"
								class="st1"/>
					</g>
					<g id="shape1629-6" v:mID="1629" v:groupContext="shape" v:layerMember="0" transform="translate(2.25,-2.25)">
						<title>Sheet.1629</title>
						<path d="M42 68.63 L2.92 68.63 C1.27 68.63 0 67.28 0 65.7 L0 26.63 C0 24.98 1.35 23.7 2.92 23.7 L42 23.7
									 C43.65 23.7 44.92 25.05 44.92 26.63 L44.92 65.7 C44.92 67.35 43.65 68.63 42 68.63 Z"
								class="st2"/>
					</g>
				</g>
				<g id="group1630-8" transform="translate(11.7,-11.325)" v:mID="1630" v:groupContext="group" v:layerMember="0">
					<title>Sheet.1630</title>
					<g id="shape1631-9" v:mID="1631" v:groupContext="shape" v:layerMember="0"
							transform="translate(1.29896E-13,-0.075)">
						<title>Sheet.1631</title>
						<path d="M2.7 68.63 C2.02 68.63 1.28 68.33 0.83 67.73 C-0 66.68 0.22 65.18 1.2 64.28 L11.55 55.13 L1.2 45.3
									 C0.22 44.4 0.08 42.9 0.9 41.93 C1.8 40.88 3.37 40.8 4.42 41.7 L17.55 54.15 C18.15 54.75 18.15
									 55.73 17.55 56.25 L16.73 57 L4.35 68.03 C3.9 68.4 3.3 68.63 2.7 68.63 Z" class="st1"/>
					</g>
					<g id="shape1632-11" v:mID="1632" v:groupContext="shape" v:layerMember="0"
							transform="translate(12.375,2.84217E-14)">
						<title>Sheet.1632</title>
						<path d="M12.22 68.63 L1.88 68.63 C0.82 68.63 0 67.8 0 66.75 C0 65.7 0.82 64.88 1.88 64.88 L12.22 64.88 C13.28
									 64.88 14.1 65.7 14.1 66.75 C14.1 67.8 13.28 68.63 12.22 68.63 Z" class="st1"/>
					</g>
				</g>
			</g>
		</g>
	</g>
</svg>
