<?xml version="1.0" encoding="UTF-8" standalone="no"?>
<!DOCTYPE svg PUBLIC "-//W3C//DTD SVG 1.1//EN" "http://www.w3.org/Graphics/SVG/1.1/DTD/svg11.dtd">
<!-- Generated by Microsoft Visio, SVG Export Writing, Pencil.svg Page-1 -->
<svg xmlns="http://www.w3.org/2000/svg" xmlns:xlink="http://www.w3.org/1999/xlink" xmlns:ev="http://www.w3.org/2001/xml-events"
		xmlns:v="http://schemas.microsoft.com/visio/2003/SVGExtensions/" width="0.84375in" height="0.875in" viewBox="0 0 60.75 63"
		xml:space="preserve" color-interpolation-filters="sRGB" class="st3">
	<v:documentProperties v:langID="4108" v:metric="true" v:viewMarkup="false"/>

	<style type="text/css">
	<![CDATA[
		.st1 {fill:#ffffff;stroke:none;stroke-linecap:butt;stroke-width:0.75}
		.st2 {fill:#515150;stroke:none;stroke-linecap:butt;stroke-width:0.75}
		.st3 {fill:none;fill-rule:evenodd;font-size:12px;overflow:visible;stroke-linecap:square;stroke-miterlimit:3}
	]]>
	</style>

	<g v:mID="0" v:index="1" v:groupContext="foregroundPage">
		<title>Page-1</title>
		<v:pageProperties v:drawingScale="0.0393701" v:pageScale="0.0393701" v:drawingUnits="24" v:shadowOffsetX="8.50394"
				v:shadowOffsetY="-8.50394"/>
		<v:layer v:name="symbols" v:index="0"/>
		<g id="group1638-1" transform="translate(2.925,-3.525)" v:mID="1638" v:groupContext="group" v:layerMember="0">
			<title>Writing, Pencil</title>
			<g id="group1639-2" v:mID="1639" v:groupContext="group" v:layerMember="0">
				<title>Sheet.1639</title>
				<g id="shape1640-3" v:mID="1640" v:groupContext="shape" v:layerMember="0">
					<title>Sheet.1640</title>
					<path d="M3.08 63 C2.18 63 1.35 62.62 0.75 61.95 C0.15 61.27 0 60.3 0.15 59.4 L0.22 59.02 L9.15 44.77 L39.6 14.17
								 L44.18 9.6 C45.07 8.7 46.28 8.17 47.48 8.17 C48.6 8.17 49.65 8.62 50.4 9.37 L53.7 12.67 C54.45 13.42
								 54.9 14.47 54.9 15.6 C54.9 16.8 54.38 18 53.55 18.82 L48.97 23.4 L18.52 54 L4.2 62.85 L3.75 62.92
								 C3.52 63 3.3 63 3.08 63 Z" class="st1"/>
				</g>
				<g id="shape1641-5" v:mID="1641" v:groupContext="shape" v:layerMember="0" transform="translate(2.25,-2.325)">
					<title>Sheet.1641</title>
					<path d="M49.88 16.57 L46.57 13.27 C45.83 12.52 44.47 12.6 43.57 13.42 L41.1 15.9 L39 18 L8.7 48.45 L0.15 62.1
								 C0 62.62 0.3 63 0.82 63 C0.9 63 0.97 63 1.05 63 L14.77 54.52 L45.15 24.15 L47.25 22.05 L49.72 19.57
								 C50.55 18.67 50.62 17.32 49.88 16.57 ZM5.25 58.72 L4.5 57.97 L8.93 50.85 L12.37 54.3 L5.25 58.72
								 Z" class="st2"/>
				</g>
			</g>
		</g>
	</g>
</svg>
