<?xml version="1.0" encoding="UTF-8" standalone="no"?>
<!DOCTYPE svg PUBLIC "-//W3C//DTD SVG 1.1//EN" "http://www.w3.org/Graphics/SVG/1.1/DTD/svg11.dtd">
<!-- Generated by Microsoft Visio, SVG Export Writing, Pen.svg Page-1 -->
<svg xmlns="http://www.w3.org/2000/svg" xmlns:xlink="http://www.w3.org/1999/xlink" xmlns:ev="http://www.w3.org/2001/xml-events"
		xmlns:v="http://schemas.microsoft.com/visio/2003/SVGExtensions/" width="0.890625in" height="0.890625in"
		viewBox="0 0 64.125 64.125" xml:space="preserve" color-interpolation-filters="sRGB" class="st3">
	<v:documentProperties v:langID="4108" v:metric="true" v:viewMarkup="false"/>

	<style type="text/css">
	<![CDATA[
		.st1 {fill:#ffffff;stroke:none;stroke-linecap:butt;stroke-width:0.75}
		.st2 {fill:#515150;stroke:none;stroke-linecap:butt;stroke-width:0.75}
		.st3 {fill:none;fill-rule:evenodd;font-size:12px;overflow:visible;stroke-linecap:square;stroke-miterlimit:3}
	]]>
	</style>

	<g v:mID="0" v:index="1" v:groupContext="foregroundPage">
		<title>Page-1</title>
		<v:pageProperties v:drawingScale="0.0393701" v:pageScale="0.0393701" v:drawingUnits="24" v:shadowOffsetX="8.50394"
				v:shadowOffsetY="-8.50394"/>
		<v:layer v:name="symbols" v:index="0"/>
		<g id="group1633-1" transform="translate(1.95,-1.8)" v:mID="1633" v:groupContext="group" v:layerMember="0">
			<title>Writing, Pen</title>
			<g id="group1634-2" v:mID="1634" v:groupContext="group" v:layerMember="0">
				<title>Sheet.1634</title>
				<g id="shape1635-3" v:mID="1635" v:groupContext="shape" v:layerMember="0">
					<title>Sheet.1635</title>
					<path d="M56.17 8.03 C54.98 6.83 53.25 6.08 51.6 6.08 C50.18 6.08 48.82 6.6 47.7 7.5 L47.02 6.83 C46.35 6.15
								 45.45 5.85 44.55 5.85 C43.65 5.85 42.75 6.23 42.07 6.83 L25.27 23.63 L28.43 26.78 L27.38 27.83 L27.98
								 28.43 L5.55 50.78 L6.08 51.3 L3.15 54.23 C2.25 55.13 1.73 56.4 1.73 57.68 L0.45 60.45 C0 61.35 0.08
								 62.25 0.52 63 C0.98 63.68 1.73 64.13 2.62 64.13 C2.62 64.13 2.62 64.13 2.62 64.13 C3 64.13 3.45
								 64.05 3.9 63.83 L6.68 62.55 C6.68 62.55 6.68 62.55 6.68 62.55 C7.95 62.55 9.22 62.03 10.13 61.13
								 L13.05 58.2 L13.58 58.73 L35.85 36.38 L36.3 36.83 L56.4 16.8 C58.72 14.48 58.65 10.5 56.17 8.03
								 Z" class="st1"/>
				</g>
				<g id="shape1636-5" v:mID="1636" v:groupContext="shape" v:layerMember="0" transform="translate(28.425,-30.45)">
					<title>Sheet.1636</title>
					<path d="M26.18 40.05 C24.52 38.48 22.05 38.33 20.55 39.83 L19.27 41.1 L17.02 38.85 C16.58 38.4 15.75 38.4 15.3
								 38.85 L0 54.08 L1.35 55.43 L1.5 55.43 C1.58 55.43 1.65 55.43 1.72 55.43 C2.4 55.43 3.3 54.98 3.9
								 54.38 C4.57 53.7 4.95 52.95 4.95 52.28 L16.12 41.18 L17.7 42.75 L2.1 58.28 L7.95 64.13 L26.4 45.68
								 C27.83 44.18 27.75 41.7 26.18 40.05 Z" class="st2"/>
				</g>
				<g id="shape1637-7" v:mID="1637" v:groupContext="shape" v:layerMember="0" transform="translate(2.175,-2.1)">
					<title>Sheet.1637</title>
					<path d="M6.52 52.88 L7.05 53.4 L6 54.45 L2.55 57.9 C1.95 58.5 1.65 59.4 1.8 60.23 L0.23 63.53 C-0 63.98 0.23
								 64.13 0.6 63.9 L3.9 62.33 C4.73 62.48 5.55 62.25 6.22 61.58 L9.68 58.13 L10.73 57.08 L11.25 57.6
								 L32.03 36.98 L27.23 32.18 L6.52 52.88 Z" class="st2"/>
				</g>
			</g>
		</g>
	</g>
</svg>
