<svg xmlns="http://www.w3.org/2000/svg" xmlns:v="http://schemas.microsoft.com/visio/2003/SVGExtensions/" width="46.5" height="63" viewBox="0 0 34.875 47.25" color-interpolation-filters="sRGB" fill="none" fill-rule="evenodd" font-size="12" overflow="visible" stroke-linecap="square" stroke-miterlimit="3">
  <v:documentProperties v:langID="4108" v:metric="true" v:viewMarkup="false"/>
  <style>
    .st1{fill:#fff;stroke:none;stroke-linecap:butt;stroke-width:.75}
  </style>
  <g v:mID="0" v:index="1" v:groupContext="foregroundPage">
    <v:pageProperties v:drawingScale=".039" v:pageScale=".039" v:drawingUnits="24" v:shadowOffsetX="8.504" v:shadowOffsetY="-8.504"/>
    <v:layer v:name="symbols" v:index="0"/>
    <g id="group15-1" transform="translate(6.412 -5.438)" v:mID="15" v:groupContext="group" v:layerMember="0">
      <g id="group16-2" v:mID="16" v:groupContext="group" v:layerMember="0">
        <g id="shape17-3" v:mID="17" v:groupContext="shape" v:layerMember="0">
          <path d="M10.88 47.25c-2.86 0-5.41-.3-6.9-.82C1.58 45.6 0 43.35 0 40.8V18.45c0-2.47 1.58-4.72 3.98-5.62 1.49-.53 4.04-.83 6.9-.83 2.84 0 5.47.3 6.9.83 2.32.82 3.9 3.07 3.9 5.62V40.8c-.01 2.48-1.58 4.73-3.9 5.63-1.43.52-4.06.82-6.9.82z" class="st1"/>
        </g>
        <g id="shape18-5" v:mID="18" v:groupContext="shape" v:layerMember="0" transform="translate(2.25 -2.25)">
          <path d="M17.25 43.05c0 1.73-1.13 3-2.47 3.45-.9.3-2.93.75-6.16.75-3.22 0-5.25-.37-6.14-.75C1.13 46.05 0 44.7 0 43.05V20.7c0-1.72 1.13-3 2.48-3.45.89-.3 2.92-.75 6.14-.75 3.23 0 5.26.38 6.16.75 1.34.45 2.47 1.8 2.47 3.45v22.35z" fill="#515150" stroke-linecap="butt" stroke-width=".75"/>
        </g>
        <g id="shape19-7" v:mID="19" v:groupContext="shape" v:layerMember="0" transform="translate(3.75 -7.5)">
          <path class="st1" d="M0 26.25h14.25v21H0z"/>
        </g>
        <g id="shape20-9" v:mID="20" v:groupContext="shape" v:layerMember="0" transform="translate(8.25 -4.5)">
          <path d="M5.25 46.5c0 .45-.3.75-.75.75H.75c-.45 0-.75-.3-.75-.75s.3-.75.75-.75H4.5c.45 0 .75.3.75.75z" class="st1"/>
        </g>
        <g id="shape21-11" v:mID="21" v:groupContext="shape" v:layerMember="0" transform="translate(9 -30)">
          <path d="M3.75 46.88c0 .22-.15.37-.37.37h-3c-.23 0-.38-.15-.38-.37 0-.23.15-.38.38-.38h3c.22 0 .37.15.37.38z" class="st1"/>
        </g>
      </g>
    </g>
  </g>
</svg>
