<svg xmlns="http://www.w3.org/2000/svg" xmlns:v="http://schemas.microsoft.com/visio/2003/SVGExtensions/" width="39" height="55.5" viewBox="0 0 29.25 41.625" color-interpolation-filters="sRGB" fill="none" fill-rule="evenodd" font-size="12" overflow="visible" stroke-linecap="square" stroke-miterlimit="3">
  <v:documentProperties v:langID="4108" v:metric="true" v:viewMarkup="false"/>
  <style>
    .st1{fill:#fff;stroke:none;stroke-linecap:butt;stroke-width:.75}
  </style>
  <g v:mID="0" v:index="1" v:groupContext="foregroundPage">
    <v:pageProperties v:drawingScale=".039" v:pageScale=".039" v:drawingUnits="24" v:shadowOffsetX="8.504" v:shadowOffsetY="-8.504"/>
    <v:layer v:name="symbols" v:index="0"/>
    <g id="group44-1" transform="translate(4.313 -3.938)" v:mID="44" v:groupContext="group" v:layerMember="0">
      <g id="group45-2" v:mID="45" v:groupContext="group" v:layerMember="0">
        <g id="shape46-3" v:mID="46" v:groupContext="shape" v:layerMember="0">
          <path d="M3.75 41.63c-2.1 0-3.75-1.65-3.75-3.75V11.63c0-2.1 1.65-3.75 3.75-3.75h13.5c2.1 0 3.75 1.65 3.75 3.75v26.25c0 2.1-1.65 3.75-3.75 3.75H3.75z" class="st1"/>
        </g>
        <g id="shape47-5" v:mID="47" v:groupContext="shape" v:layerMember="0" transform="translate(2.25 -2.25)">
          <path d="M16.5 40.13c0 .82-.67 1.5-1.5 1.5H1.5c-.82 0-1.5-.68-1.5-1.5V13.88c0-.83.68-1.5 1.5-1.5H15c.83 0 1.5.67 1.5 1.5v26.25z" fill="#515150" stroke-linecap="butt" stroke-width=".75"/>
        </g>
        <g id="shape48-7" v:mID="48" v:groupContext="shape" v:layerMember="0" transform="translate(4.5 -6.75)">
          <path class="st1" d="M0 21.375h12v20.25H0z"/>
        </g>
        <g id="shape49-9" v:mID="49" v:groupContext="shape" v:layerMember="0" transform="translate(9 -29.25)">
          <path d="M3 41.25c0 .23-.08.38-.15.38H.15c-.07 0-.15-.15-.15-.38 0-.22.08-.37.15-.37h2.7c.07 0 .15.15.15.37z" class="st1"/>
        </g>
        <g id="shape50-11" v:mID="50" v:groupContext="shape" v:layerMember="0" transform="translate(6 -3.75)">
          <ellipse cx=".75" cy="40.875" rx=".75" ry=".75" class="st1"/>
        </g>
        <g id="shape51-13" v:mID="51" v:groupContext="shape" v:layerMember="0" transform="translate(9.75 -3.75)">
          <ellipse cx=".75" cy="40.875" rx=".75" ry=".75" class="st1"/>
        </g>
        <g id="shape52-15" v:mID="52" v:groupContext="shape" v:layerMember="0" transform="translate(13.5 -3.75)">
          <ellipse cx=".75" cy="40.875" rx=".75" ry=".75" class="st1"/>
        </g>
      </g>
    </g>
  </g>
</svg>
