<svg xmlns="http://www.w3.org/2000/svg" xmlns:v="http://schemas.microsoft.com/visio/2003/SVGExtensions/" width="42" height="58.5" viewBox="0 0 31.5 43.875" color-interpolation-filters="sRGB" fill="none" fill-rule="evenodd" font-size="12" overflow="visible" stroke-linecap="square" stroke-miterlimit="3">
  <v:documentProperties v:langID="4108" v:metric="true" v:viewMarkup="false"/>
  <style>
    .st1{fill:#fff;stroke:none;stroke-linecap:butt;stroke-width:.75}
  </style>
  <g v:mID="0" v:index="1" v:groupContext="foregroundPage">
    <v:pageProperties v:drawingScale=".039" v:pageScale=".039" v:drawingUnits="24" v:shadowOffsetX="8.504" v:shadowOffsetY="-8.504"/>
    <v:layer v:name="symbols" v:index="0"/>
    <g id="group29-1" transform="translate(4.688 -5.063)" v:mID="29" v:groupContext="group" v:layerMember="0">
      <g id="group30-2" v:mID="30" v:groupContext="group" v:layerMember="0">
        <g id="group31-3" v:mID="31" v:groupContext="group" v:layerMember="0">
          <g id="group32-4" v:mID="32" v:groupContext="group" v:layerMember="0">
            <g id="shape33-5" v:mID="33" v:groupContext="shape" v:layerMember="0">
              <path d="M4.5 43.87c-2.32 0-4.5-2.17-4.5-4.49V14.62c0-2.32 2.17-4.5 4.5-4.5h12.75c2.33.01 4.5 2.18 4.5 4.5v24.76c0 2.32-2.17 4.49-4.5 4.49H4.5z" class="st1"/>
            </g>
            <g id="shape34-7" v:mID="34" v:groupContext="shape" v:layerMember="0" transform="translate(2.25 -2.25)">
              <path d="M14.92 14.62H2.25C.97 14.62 0 15.6 0 16.87v24.75c0 1.28.97 2.25 2.25 2.25h12.67c1.28 0 2.25-.97 2.25-2.25V16.87c0-1.27-1.05-2.25-2.25-2.25zm.08 24H2.25v-19.5H15v19.5z" fill="#515150" stroke-linecap="butt" stroke-width=".75"/>
            </g>
          </g>
          <g id="shape35-9" v:mID="35" v:groupContext="shape" v:layerMember="0" transform="translate(8.85 -29.325)">
            <path d="M4.05 43.65c0 .15-.08.22-.23.22H.22c-.15 0-.22-.15-.22-.22 0-.15.08-.23.22-.23h3.6c.08-.07.23.08.23.23z" class="st1"/>
          </g>
        </g>
        <g id="shape36-11" v:mID="36" v:groupContext="shape" v:layerMember="0" transform="translate(9.75 -3.75)">
          <ellipse cx="1.125" cy="42.75" rx="1.125" ry="1.125" class="st1"/>
        </g>
      </g>
    </g>
  </g>
</svg>
