<svg xmlns="http://www.w3.org/2000/svg" xmlns:v="http://schemas.microsoft.com/visio/2003/SVGExtensions/" width="57" height="85.5" viewBox="0 0 42.75 64.125" color-interpolation-filters="sRGB" fill="none" fill-rule="evenodd" font-size="12" overflow="visible" stroke-linecap="square" stroke-miterlimit="3">
  <v:documentProperties v:langID="4108" v:metric="true" v:viewMarkup="false"/>
  <g v:mID="0" v:index="1" v:groupContext="foregroundPage">
    <v:pageProperties v:drawingScale=".039" v:pageScale=".039" v:drawingUnits="24" v:shadowOffsetX="8.504" v:shadowOffsetY="-8.504"/>
    <v:layer v:name="symbols" v:index="0"/>
    <g transform="translate(6 -6.188)" v:mID="7" v:groupContext="group" v:layerMember="0">
      <g v:mID="8" v:groupContext="group" v:layerMember="0">
        <g v:mID="9" v:groupContext="shape" v:layerMember="0">
          <path d="M5.25 64.12C2.32 64.12 0 61.8 0 58.87V17.62c0-2.92 2.33-5.25 5.25-5.25H25.5c2.93 0 5.25 2.33 5.25 5.25v41.25c0 2.93-2.32 5.25-5.25 5.25H5.25z" fill="#fff" stroke-linecap="butt" stroke-width=".75"/>
        </g>
        <g v:mID="10" v:groupContext="shape" v:layerMember="0" transform="translate(2.25 -2.25)">
          <path d="M23.25 16.87H3c-1.65 0-3 1.35-3 3v41.25c0 1.65 1.35 3 3 3h20.25c1.65 0 3-1.35 3-3V19.87c0-1.65-1.35-3-3-3zm-7.5 42.75c0 .45-.3.75-.75.75h-3.75c-.45 0-.75-.3-.75-.75v-1.5c0-.45.3-.75.75-.75H15c.45 0 .75.3.75.75v1.5zm7.5-5.25H3v-31.5h20.25v31.5z" fill="#515050" stroke-linecap="butt" stroke-width=".75"/>
        </g>
      </g>
    </g>
  </g>
</svg>
