<svg xmlns="http://www.w3.org/2000/svg" xmlns:v="http://schemas.microsoft.com/visio/2003/SVGExtensions/" width="48" height="75" viewBox="0 0 36 56.25" color-interpolation-filters="sRGB" fill="none" fill-rule="evenodd" font-size="12" overflow="visible" stroke-linecap="square" stroke-miterlimit="3">
  <v:documentProperties v:langID="4108" v:metric="true" v:viewMarkup="false"/>
  <style>
    .st1{fill:#fff;stroke:none;stroke-linecap:butt;stroke-width:.75}
  </style>
  <g v:mID="0" v:index="1" v:groupContext="foregroundPage">
    <v:pageProperties v:drawingScale=".039" v:pageScale=".039" v:drawingUnits="24" v:shadowOffsetX="8.504" v:shadowOffsetY="-8.504"/>
    <v:layer v:name="symbols" v:index="0"/>
    <g id="group37-1" transform="translate(4.125 -5.063)" v:mID="37" v:groupContext="group" v:layerMember="0">
      <g id="group38-2" v:mID="38" v:groupContext="group" v:layerMember="0">
        <g id="group39-3" v:mID="39" v:groupContext="group" v:layerMember="0">
          <g id="shape40-4" v:mID="40" v:groupContext="shape" v:layerMember="0">
            <path d="M5.25 56.25C2.33 56.25 0 53.92 0 51V14.25C0 11.32 2.33 9 5.25 9H22.5c2.93 0 5.25 2.32 5.25 5.25V51c0 2.92-2.32 5.25-5.25 5.25H5.25z" class="st1"/>
          </g>
          <g id="shape41-6" v:mID="41" v:groupContext="shape" v:layerMember="0" transform="translate(2.25 -2.25)">
            <path d="M20.25 13.5H3c-1.65 0-3 1.35-3 3v36.75c0 1.65 1.35 3 3 3h17.25c1.65 0 3-1.35 3-3V16.5c0-1.65-1.35-3-3-3zM21 48H2.25V19.5H21V48z" fill="#515251" stroke-linecap="butt" stroke-width=".75"/>
          </g>
        </g>
        <g id="shape42-8" v:mID="42" v:groupContext="shape" v:layerMember="0" transform="translate(12 -4.5)">
          <ellipse cx="1.875" cy="54.375" rx="1.875" ry="1.875" class="st1"/>
        </g>
        <g id="shape43-10" v:mID="43" v:groupContext="shape" v:layerMember="0" transform="translate(10.95 -42)">
          <path d="M5.92 55.87c0 .23-.15.38-.3.38H.3c-.15 0-.3-.15-.3-.38 0-.22.15-.37.3-.37h5.32c.15 0 .3.15.3.37z" class="st1"/>
        </g>
      </g>
    </g>
  </g>
</svg>
