<svg xmlns="http://www.w3.org/2000/svg" xmlns:v="http://schemas.microsoft.com/visio/2003/SVGExtensions/" width="52.5" height="76.5" viewBox="0 0 39.375 57.375" color-interpolation-filters="sRGB" fill="none" fill-rule="evenodd" font-size="12" overflow="visible" stroke-linecap="square" stroke-miterlimit="3">
  <v:documentProperties v:langID="4108" v:metric="true" v:viewMarkup="false"/>
  <style>
    .st1{fill:#fff;stroke:none;stroke-linecap:butt;stroke-width:.75}
  </style>
  <g v:mID="0" v:index="1" v:groupContext="foregroundPage">
    <v:pageProperties v:drawingScale=".039" v:pageScale=".039" v:drawingUnits="24" v:shadowOffsetX="8.504" v:shadowOffsetY="-8.504"/>
    <v:layer v:name="symbols" v:index="0"/>
    <g id="group22-1" transform="translate(5.55 -4.688)" v:mID="22" v:groupContext="group" v:layerMember="0">
      <g id="group23-2" v:mID="23" v:groupContext="group" v:layerMember="0">
        <g id="shape24-3" v:mID="24" v:groupContext="shape" v:layerMember="0">
          <path d="M0 49.2V17.55l.37-2.25a7.505 7.505 0 0 1 4.58-4.8c.75-.3 3.6-1.12 9.37-1.12 5.78 0 8.63.9 9.38 1.12 2.17.83 3.82 2.63 4.58 4.8l.37 2.25V49.2l-.37 2.25a7.46 7.46 0 0 1-4.58 4.8c-.75.3-3.6 1.13-9.38 1.13-5.77 0-8.62-.9-9.37-1.13-2.17-.82-3.83-2.62-4.58-4.8L0 49.2z" class="st1"/>
        </g>
        <g id="shape25-5" v:mID="25" v:groupContext="shape" v:layerMember="0" transform="translate(2.325 -2.25)">
          <path d="M23.92 51.45c0 2.4-1.57 4.28-3.45 4.95-1.2.38-4.12.98-8.55.98-4.42 0-7.34-.6-8.55-1.05C1.5 55.65 0 53.85 0 51.38V19.8c0-2.4 1.57-4.27 3.37-4.95 1.21-.37 4.13-.97 8.55-.97 4.43 0 7.35.6 8.55 1.04 1.88.68 3.38 2.48 3.38 4.96v31.57h.07z" fill="#515150" stroke-linecap="butt" stroke-width=".75"/>
        </g>
        <g id="shape26-7" v:mID="26" v:groupContext="shape" v:layerMember="0" transform="translate(4.5 -9)">
          <path class="st1" d="M0 26.625h19.5v30.75H0z"/>
        </g>
        <g id="shape27-9" v:mID="27" v:groupContext="shape" v:layerMember="0" transform="translate(11.25 -5.25)">
          <path d="M6 56.85c0 .3-.3.53-.75.53H.75c-.45 0-.75-.23-.75-.53v-.52c0-.3.3-.53.75-.53h4.5c.45 0 .75.23.75.53v.52z" class="st1"/>
        </g>
        <g id="shape28-11" v:mID="28" v:groupContext="shape" v:layerMember="0" transform="translate(11.325 -42)">
          <path d="M5.92 57c0 .23-.15.38-.3.38H.3c-.15 0-.3-.15-.3-.38 0-.22.15-.37.3-.37h5.32c.15 0 .3.15.3.37z" class="st1"/>
        </g>
      </g>
    </g>
  </g>
</svg>
