<svg xmlns="http://www.w3.org/2000/svg" xmlns:v="http://schemas.microsoft.com/visio/2003/SVGExtensions/" width="103.5" height="88.5" viewBox="0 0 77.625 66.375" color-interpolation-filters="sRGB" fill="none" fill-rule="evenodd" font-size="12" overflow="visible" stroke-linecap="square" stroke-miterlimit="3">
  <v:documentProperties v:langID="4108" v:metric="true" v:viewMarkup="false"/>
  <g v:mID="0" v:index="1" v:groupContext="foregroundPage">
    <v:pageProperties v:drawingScale=".039" v:pageScale=".039" v:drawingUnits="24" v:shadowOffsetX="8.504" v:shadowOffsetY="-8.504"/>
    <v:layer v:name="symbols" v:index="0"/>
    <g transform="translate(7.875 -6.938)" v:mID="91" v:groupContext="group" v:layerMember="0">
      <g v:mID="92" v:groupContext="shape" v:layerMember="0">
        <path d="M16.12 66.38c-2.25 0-4.04-1.8-4.04-4.05s1.79-4.13 4.04-4.13c5.33-.07 6.53-.6 6.75-.9 0 0 .23-.15-.07-1.42H5.18C2.4 55.88 0 53.48 0 50.63v-31.5c0-2.85 2.4-5.25 5.18-5.25h51.9c2.77 0 5.17 2.4 5.17 5.25v31.5c0 2.85-2.4 5.25-5.17 5.25H39.45c-.23 1.27-.07 1.35-.07 1.42.22.3 1.42.83 6.75.9 2.17 0 4.04 1.8 4.04 4.13 0 2.25-1.79 4.05-4.04 4.05H16.12z" fill="#fff" stroke-linecap="butt" stroke-width=".75"/>
      </g>
      <g v:mID="93" v:groupContext="shape" v:layerMember="0" transform="translate(2.25 -2.25)">
        <path d="M54.82 18.38H2.93c-1.58 0-2.93 1.42-2.93 3v31.5c0 1.57 1.35 3 2.93 3h19.35c1.64 5.77.29 6.75-8.48 6.82-.98 0-1.8.83-1.8 1.88 0 .97.82 1.8 1.8 1.8h30c.98 0 1.8-.83 1.8-1.8 0-.98-.82-1.88-1.8-1.88-8.63-.07-9.97-1.05-8.33-6.82h19.35c1.65 0 2.93-1.43 2.93-3v-31.5c0-1.58-1.35-3-2.93-3zM54 52.13H3.75v-30H54v30z" fill="#515050" stroke-linecap="butt" stroke-width=".75"/>
      </g>
    </g>
  </g>
</svg>
