<svg xmlns="http://www.w3.org/2000/svg" xmlns:v="http://schemas.microsoft.com/visio/2003/SVGExtensions/" width="102" height="85.5" viewBox="0 0 76.5 64.125" color-interpolation-filters="sRGB" fill="none" fill-rule="evenodd" font-size="12" overflow="visible" stroke-linecap="square" stroke-miterlimit="3">
  <v:documentProperties v:langID="4108" v:metric="true" v:viewMarkup="false"/>
  <style>
    .st2{fill:#515150;stroke:none;stroke-linecap:butt;stroke-width:.75}
  </style>
  <g v:mID="0" v:index="1" v:groupContext="foregroundPage">
    <v:pageProperties v:drawingScale=".039" v:pageScale=".039" v:drawingUnits="24" v:shadowOffsetX="8.504" v:shadowOffsetY="-8.504"/>
    <v:layer v:name="symbols" v:index="0"/>
    <g id="group74-1" transform="translate(7.463 -6.225)" v:mID="74" v:groupContext="group" v:layerMember="0">
      <g id="group75-2" v:mID="75" v:groupContext="group" v:layerMember="0">
        <g id="shape76-3" v:mID="76" v:groupContext="shape" v:layerMember="0">
          <path d="M61.57 40.5c0-4.42-3.3-8.1-7.72-8.55H49.58V17.7c0-2.92-2.33-5.25-5.25-5.25H21.82c-2.92 0-5.24 2.33-5.24 5.25v14.25h-2.63c0-.37 0-.67-.08-.97-.15-1.2-.82-3.23-3.82-3.98-1.05-.22-1.57-.3-3.07-.3-1.43 0-2.03.08-3.08.3-3.07.75-3.67 2.78-3.83 3.98-.07.67 0 1.42 0 2.77.08 1.8.23 4.73.23 9.83 0 4.05-.15 6.6-.23 8.47v3.23c.08.97.61 3.37 3.91 4.05 1.04.22 1.94.3 2.92.3 1.05 0 2.1-.15 3.08-.3 2.17-.45 3.15-1.65 3.52-2.7h3v2.25c0 2.92 2.32 5.25 5.25 5.25h22.5c2.92 0 5.25-2.33 5.25-5.25v-2.25h12V40.95v-.22c.07-.08.08-.15.07-.23z" fill="#fff" stroke-linecap="butt" stroke-width=".75"/>
        </g>
        <g id="group77-5" transform="translate(24.825 -33.675)" v:mID="77" v:groupContext="group" v:layerMember="0">
          <g id="shape78-6" v:mID="78" v:groupContext="shape" v:layerMember="0" transform="translate(0 -7.5)">
            <path class="st2" d="M0 62.625h8.25v1.5H0z"/>
          </g>
          <g id="shape79-8" v:mID="79" v:groupContext="shape" v:layerMember="0" transform="translate(0 -3.75)">
            <path class="st2" d="M0 62.625h16.5v1.5H0z"/>
          </g>
          <g id="shape80-10" v:mID="80" v:groupContext="shape" v:layerMember="0">
            <path class="st2" d="M0 62.625h16.5v1.5H0z"/>
          </g>
        </g>
        <g id="shape81-12" v:mID="81" v:groupContext="shape" v:layerMember="0" transform="translate(2.025 -6.675)">
          <path d="M9.45 37.88c-.15-1.13-.82-1.73-2.1-2.03-.82-.15-1.2-.22-2.55-.22-1.35 0-1.72.07-2.55.22-1.2.3-1.95.9-2.1 2.03-.15 1.2.3 3.75.3 12.3 0 7.27-.37 9.9-.3 11.62.08 1.13.9 1.8 2.1 2.03.83.22 1.58.3 2.48.3.9 0 1.8-.08 2.62-.3 1.28-.3 2.03-.9 2.1-2.03.15-1.72-.22-4.2-.22-11.47 0-8.55.37-11.18.22-12.45z" class="st2"/>
        </g>
        <g id="shape82-14" v:mID="82" v:groupContext="shape" v:layerMember="0" transform="translate(13.725 -2.1)">
          <path d="M45.6 42.6c0-3.3-2.55-6-5.78-6.3H33.6V19.8c0-1.65-1.35-3-3-3H8.1c-1.65 0-3 1.35-3 3v16.5H.22.15C.07 38.25 0 41.1 0 45.83c0 3.97.08 6.45.15 8.25.08 1.05.07 1.8.07 2.55H5.1v4.5c0 1.65 1.35 3 3 3h22.5c1.65 0 3-1.35 3-3v-4.5h12V43.05v-.15-.3zM31.35 61.8h-24v-9h24v9zm0-25.5h-24V19.05h24V36.3zm9 6.75c-.83 0-1.5-.67-1.5-1.5 0-.82.67-1.5 1.5-1.5.82 0 1.5.68 1.5 1.5 0 .83-.68 1.5-1.5 1.5z" class="st2"/>
        </g>
      </g>
    </g>
  </g>
</svg>
