<svg xmlns="http://www.w3.org/2000/svg" xmlns:v="http://schemas.microsoft.com/visio/2003/SVGExtensions/" width="75" height="87" viewBox="0 0 56.25 65.25" color-interpolation-filters="sRGB" fill="none" fill-rule="evenodd" font-size="12" overflow="visible" stroke-linecap="square" stroke-miterlimit="3">
  <v:documentProperties v:langID="4108" v:metric="true" v:viewMarkup="false"/>
  <g v:mID="0" v:index="1" v:groupContext="foregroundPage">
    <v:pageProperties v:drawingScale=".039" v:pageScale=".039" v:drawingUnits="24" v:shadowOffsetX="8.504" v:shadowOffsetY="-8.504"/>
    <v:layer v:name="symbols" v:index="0"/>
    <g transform="translate(8.063 -7.275)" v:mID="83" v:groupContext="group" v:layerMember="0">
      <g v:mID="84" v:groupContext="group" v:layerMember="0">
        <g v:mID="85" v:groupContext="shape" v:layerMember="0">
          <path d="M20.25 13.42C7.8 13.42 0 21.9 0 35.55v6.37c0 1.2.6 2.48 1.65 3.23v1.72c0 13.13 6.38 16.35 11.18 16.88.97.9 2.4 1.5 3.82 1.5h7.27c2.48 0 5.18-1.8 5.18-4.43 0-2.4-2.4-4.57-5.18-4.57h-7.27c-1.35 0-2.7.52-3.6 1.35-2.17-.38-4.05-1.65-4.8-5.78.75.3 1.5.53 2.25.53 3.6 0 3.75-3.68 3.75-4.88V38.4c0-1.35 0-3.08-1.2-4.28-.45-.45-1.28-1.05-2.62-1.05-.9 0-1.73.15-2.63.38.53-8.25 4.58-12.23 12.45-12.23 7.87 0 11.92 4.05 12.45 12.3-.82-.3-1.72-.45-2.63-.45-1.65 0-2.99.98-3.52 2.55-.3.9-.3 1.95-.3 2.93v8.77c.07 1.2.15 5.03 3.82 5.03 3.23 0 6.83-3.23 8.18-6.9.45-.23.82-.53 1.12-.75 1.13-1.13 1.13-2.63 1.13-2.85v-6.23c0-13.72-7.72-22.2-20.25-22.2z" fill="#fff" stroke-linecap="butt" stroke-width=".75"/>
        </g>
        <g v:mID="86" v:groupContext="shape" v:layerMember="0" transform="translate(2.25 -2.25)">
          <path d="M18 17.92c-11.78 0-18 8.1-18 19.88v6.37s0 1.65 1.65 1.65v3.3c0 9.53 3.37 14.48 10.05 14.7.45.83 1.58 1.43 2.7 1.43h7.27c1.43 0 2.93-.98 2.93-2.18 0-1.2-1.43-2.32-2.93-2.32H14.4c-1.12 0-2.18.6-2.7 1.5-5.7-.38-8.4-4.58-8.4-13.2v-.38c1.35 2.03 3.3 3.6 4.95 3.6 1.65 0 1.5-1.65 1.58-3.3v-8.1c0-1.65.07-3.3-1.58-3.3-1.8 0-3.68.68-4.95 2.03v-2.03c0-11.02 5.4-16.35 14.77-16.35 9.3 0 14.78 5.33 14.78 16.35v2.33c-1.28-1.5-3.08-2.33-4.95-2.33-1.65 0-1.58 1.65-1.58 3.3v8.18c.08 1.57 0 3.3 1.58 3.3 2.47 0 5.77-3.38 6.45-6.6h.15c1.65 0 1.57-1.73 1.57-1.73V37.8C36 26.02 29.85 17.92 18 17.92z" fill="#515150" stroke-linecap="butt" stroke-width=".75"/>
        </g>
      </g>
    </g>
  </g>
</svg>
