<svg xmlns="http://www.w3.org/2000/svg" xmlns:v="http://schemas.microsoft.com/visio/2003/SVGExtensions/" width="85.5" height="79.5" viewBox="0 0 64.125 59.625" color-interpolation-filters="sRGB" fill="none" fill-rule="evenodd" font-size="12" overflow="visible" stroke-linecap="square" stroke-miterlimit="3">
  <v:documentProperties v:langID="4108" v:metric="true" v:viewMarkup="false"/>
  <style>
    .st1{fill:#fff;stroke:none;stroke-linecap:butt;stroke-width:.75}
  </style>
  <g v:mID="0" v:index="1" v:groupContext="foregroundPage">
    <v:pageProperties v:drawingScale=".039" v:pageScale=".039" v:drawingUnits="24" v:shadowOffsetX="8.504" v:shadowOffsetY="-8.504"/>
    <v:layer v:name="symbols" v:index="0"/>
    <g id="group106-1" transform="translate(5.737 -7.688)" v:mID="106" v:groupContext="group" v:layerMember="0">
      <g id="group107-2" v:mID="107" v:groupContext="group" v:layerMember="0">
        <g id="shape108-3" v:mID="108" v:groupContext="shape" v:layerMember="0">
          <path d="M52.27 30.3c-.07-2.55-.82-4.95-2.32-7.05-2.78-3.9-7.65-6.53-13.58-7.13-.67-.07-4.27-.67-9.3-.75h-1.95c-4.79.08-8.32.6-9.37.75-5.85.68-10.72 3.23-13.43 7.13C.83 25.35.07 27.67 0 30.3v.6c0 .9.3 1.72.75 2.47l.08.08c.97 1.42 2.92 2.32 4.79 2.32l3.45.08L5.4 48.6v5.02c0 3.45 2.85 6 6.67 6h27.75c3.83 0 6.75-2.55 6.75-6v-4.8L42.82 36l3.68-.08c1.95 0 3.82-.9 4.8-2.32l.08-.08c.45-.75.75-1.57.75-2.47v-.38l.14-.37z" class="st1"/>
        </g>
        <g id="shape109-5" v:mID="109" v:groupContext="shape" v:layerMember="0" transform="translate(7.725 -2.25)">
          <path d="M36.67 55.87c0 2.33-2.17 3.75-4.5 3.75H4.43C2.1 59.62 0 58.2 0 55.87v-4.5l7.8-27h21l7.87 27v4.5z" fill="#515050" stroke-linecap="butt" stroke-width=".75"/>
        </g>
        <g id="group110-7" transform="translate(18.9 -12.75)" v:mID="110" v:groupContext="group" v:layerMember="0">
          <g id="shape111-8" v:mID="111" v:groupContext="shape" v:layerMember="0" transform="translate(0 -10.5)">
            <path d="M3.75 58.87c0 .45-.3.75-.75.75H.75c-.45 0-.75-.3-.75-.75v-2.25c0-.45.3-.75.75-.75H3c.45 0 .75.3.75.75v2.25z" class="st1"/>
          </g>
          <g id="shape112-10" v:mID="112" v:groupContext="shape" v:layerMember="0" transform="translate(5.25 -10.5)">
            <path d="M3.75 58.87c0 .45-.3.75-.75.75H.75c-.45 0-.75-.3-.75-.75v-2.25c0-.45.3-.75.75-.75H3c.45 0 .75.3.75.75v2.25z" class="st1"/>
          </g>
          <g id="shape113-12" v:mID="113" v:groupContext="shape" v:layerMember="0" transform="translate(10.5 -10.5)">
            <path d="M3.75 58.87c0 .45-.3.75-.75.75H.75c-.45 0-.75-.3-.75-.75v-2.25c0-.45.3-.75.75-.75H3c.45 0 .75.3.75.75v2.25z" class="st1"/>
          </g>
          <g id="shape114-14" v:mID="114" v:groupContext="shape" v:layerMember="0" transform="translate(0 -5.25)">
            <path d="M3.75 58.87c0 .45-.3.75-.75.75H.75c-.45 0-.75-.3-.75-.75v-2.25c0-.45.3-.75.75-.75H3c.45 0 .75.3.75.75v2.25z" class="st1"/>
          </g>
          <g id="shape115-16" v:mID="115" v:groupContext="shape" v:layerMember="0" transform="translate(5.25 -5.25)">
            <path d="M3.75 58.87c0 .45-.3.75-.75.75H.75c-.45 0-.75-.3-.75-.75v-2.25c0-.45.3-.75.75-.75H3c.45 0 .75.3.75.75v2.25z" class="st1"/>
          </g>
          <g id="shape116-18" v:mID="116" v:groupContext="shape" v:layerMember="0" transform="translate(10.5 -5.25)">
            <path d="M3.75 58.87c0 .45-.3.75-.75.75H.75c-.45 0-.75-.3-.75-.75v-2.25c0-.45.3-.75.75-.75H3c.45 0 .75.3.75.75v2.25z" class="st1"/>
          </g>
          <g id="shape117-20" v:mID="117" v:groupContext="shape" v:layerMember="0">
            <path d="M3.75 58.87c0 .45-.3.75-.75.75H.75c-.45 0-.75-.3-.75-.75v-2.25c0-.45.3-.75.75-.75H3c.45 0 .75.3.75.75v2.25z" class="st1"/>
          </g>
          <g id="shape118-22" v:mID="118" v:groupContext="shape" v:layerMember="0" transform="translate(5.25)">
            <path d="M3.75 58.87c0 .45-.3.75-.75.75H.75c-.45 0-.75-.3-.75-.75v-2.25c0-.45.3-.75.75-.75H3c.45 0 .75.3.75.75v2.25z" class="st1"/>
          </g>
          <g id="shape119-24" v:mID="119" v:groupContext="shape" v:layerMember="0" transform="translate(10.5)">
            <path d="M3.75 58.87c0 .45-.3.75-.75.75H.75c-.45 0-.75-.3-.75-.75v-2.25c0-.45.3-.75.75-.75H3c.45 0 .75.3.75.75v2.25z" class="st1"/>
          </g>
        </g>
        <g id="shape120-26" v:mID="120" v:groupContext="shape" v:layerMember="0" transform="translate(.75 -24.3)">
          <path d="M4.95 59.47c-1.65 0-3.3-.82-4.2-2.02l-.07-.08c-.45-.6-.61-1.35-.68-2.1v-.6c.07-2.47.75-4.65 2.17-6.6 2.63-3.75 7.36-6.22 12.98-6.82.97-.15 4.5-.68 9.3-.75h1.95c5.03.07 8.63.67 9.22.75 5.63.6 10.43 3.07 13.06 6.82 1.35 1.95 2.09 4.2 2.17 6.6V55.35c0 .75-.22 1.42-.68 2.02l-.07.08c-.82 1.2-2.55 2.02-4.2 2.02l-5.1.15c-2.03 0-3.82-.9-4.42-2.25-.23-.52-.3-.97-.3-1.5V52.8c0-1.43-1.21-2.63-2.56-2.63H17.4c-1.42 0-2.55 1.2-2.55 2.63v3.07c0 .53-.08.98-.3 1.43-.6 1.35-2.33 2.25-4.42 2.25l-5.18-.08z" class="st1"/>
        </g>
        <g id="shape121-28" v:mID="121" v:groupContext="shape" v:layerMember="0" transform="translate(2.325 -25.8)">
          <path d="M3.45 59.47c-1.2 0-2.4-.6-3-1.35l-.07-.07c-.23-.38-.38-.83-.38-1.28v-.52c.08-2.1.68-4.05 1.87-5.78 2.41-3.37 6.75-5.62 11.93-6.22.98-.15 4.35-.68 9.08-.75h1.87c5.03.07 8.63.67 9 .75 5.25.6 9.6 2.85 12 6.22 1.2 1.73 1.88 3.68 1.88 5.78v.52c0 .45-.15.9-.38 1.28v.07c-.6.83-1.8 1.35-2.92 1.35l-5.11.15c-1.34 0-2.62-.6-2.99-1.35-.23-.3-.23-.6-.23-.9V54.3c0-2.25-1.8-4.13-4.05-4.13H15.83c-2.25 0-4.05 1.88-4.05 4.13v3.07c0 .3-.08.53-.15.83-.38.82-1.65 1.35-3.01 1.42l-5.17-.15z" fill="#515150" stroke-linecap="butt" stroke-width=".75"/>
        </g>
      </g>
    </g>
  </g>
</svg>
