<svg xmlns="http://www.w3.org/2000/svg" xmlns:v="http://schemas.microsoft.com/visio/2003/SVGExtensions/" width="93" height="82.5" viewBox="0 0 69.75 61.875" color-interpolation-filters="sRGB" fill="none" fill-rule="evenodd" font-size="12" overflow="visible" stroke-linecap="square" stroke-miterlimit="3">
  <v:documentProperties v:langID="4108" v:metric="true" v:viewMarkup="false"/>
  <g v:mID="0" v:index="1" v:groupContext="foregroundPage">
    <v:pageProperties v:drawingScale=".039" v:pageScale=".039" v:drawingUnits="24" v:shadowOffsetX="8.504" v:shadowOffsetY="-8.504"/>
    <v:layer v:name="symbols" v:index="0"/>
    <g transform="translate(7.8 -7.725)" v:mID="122" v:groupContext="group" v:layerMember="0">
      <g v:mID="123" v:groupContext="group" v:layerMember="0">
        <g v:mID="124" v:groupContext="shape" v:layerMember="0">
          <path d="M48.07 15.45H18.08c-1.73 0-3.3.83-4.28 2.18-.68-.75-1.58-1.35-2.7-1.73-1.2-.37-1.88-.45-3.52-.45-1.65 0-2.33.08-3.53.45-2.4.75-3.83 2.48-3.97 4.95-.08.83 0 1.88.07 3.83.07 2.62.23 6.97.23 14.47 0 6-.16 9.98-.23 12.53-.07 2.1-.15 3.52-.07 4.65.14 2.55 1.65 4.35 4.05 5.02 1.2.38 2.24.53 3.37.53 1.2 0 2.4-.15 3.6-.53 1.12-.3 2.1-.9 2.78-1.72.97 1.35 2.47 2.17 4.27 2.17h30c2.92 0 5.25-2.32 5.25-5.25V20.7c-.07-2.92-2.4-5.25-5.33-5.25z" fill="#fff" stroke-linecap="butt" stroke-width=".75"/>
        </g>
        <g v:mID="125" v:groupContext="shape" v:layerMember="0" transform="translate(2.175 -2.175)">
          <path d="M10.65 23.25c-.15-1.65-.97-2.55-2.4-3-.9-.3-1.35-.37-2.85-.37s-1.95.07-2.85.37c-1.42.45-2.32 1.35-2.4 3-.15 1.8.3 5.48.3 18.15 0 10.73-.45 14.63-.3 17.1.08 1.65.98 2.63 2.4 3 .9.23 1.8.38 2.78.38.97 0 2.02-.15 3-.38 1.42-.37 2.32-1.35 2.4-3 .15-2.47-.23-6.15-.23-16.87-.07-12.68.3-16.58.15-18.38z" fill="#515050" stroke-linecap="butt" stroke-width=".75"/>
        </g>
        <g v:mID="126" v:groupContext="shape" v:layerMember="0" transform="translate(15.075 -2.175)">
          <path d="M33 19.88H3c-1.65 0-3 1.35-3 3v36c0 1.65 1.35 3 3 3h30c1.65 0 3-1.35 3-3v-36c0-1.65-1.35-3-3-3zM12.75 52.13c0 .45-.3.75-.75.75H8.25c-.45 0-.75-.3-.75-.75v-1.5c0-.45.3-.75.75-.75H12c.45 0 .75.3.75.75v1.5zm0-5.25c0 .45-.3.75-.75.75H8.25c-.45 0-.75-.3-.75-.75v-1.5c0-.45.3-.75.75-.75H12c.45 0 .75.3.75.75v1.5zm0-5.25c0 .45-.3.75-.75.75H8.25c-.45 0-.75-.3-.75-.75v-1.5c0-.45.3-.75.75-.75H12c.45 0 .75.3.75.75v1.5zm7.5 10.5c0 .45-.3.75-.75.75h-3.75c-.45 0-.75-.3-.75-.75v-1.5c0-.45.3-.75.75-.75h3.75c.45 0 .75.3.75.75v1.5zm0-5.25c0 .45-.3.75-.75.75h-3.75c-.45 0-.75-.3-.75-.75v-1.5c0-.45.3-.75.75-.75h3.75c.45 0 .75.3.75.75v1.5zm0-5.25c0 .45-.3.75-.75.75h-3.75c-.45 0-.75-.3-.75-.75v-1.5c0-.45.3-.75.75-.75h3.75c.45 0 .75.3.75.75v1.5zm7.5 10.5c0 .45-.3.75-.75.75h-3.75c-.45 0-.75-.3-.75-.75v-1.5c0-.45.3-.75.75-.75H27c.45 0 .75.3.75.75v1.5zm0-5.25c0 .45-.3.75-.75.75h-3.75c-.45 0-.75-.3-.75-.75v-1.5c0-.45.3-.75.75-.75H27c.45 0 .75.3.75.75v1.5zm0-5.25c0 .45-.3.75-.75.75h-3.75c-.45 0-.75-.3-.75-.75v-1.5c0-.45.3-.75.75-.75H27c.45 0 .75.3.75.75v1.5zM30 33.38c0 .45-.3.75-.75.75H6.75c-.45 0-.75-.3-.75-.75v-8.25c0-.45.3-.75.75-.75h22.5c.45 0 .75.3.75.75v8.25z" fill="#515251" stroke-linecap="butt" stroke-width=".75"/>
        </g>
      </g>
    </g>
  </g>
</svg>
