<svg xmlns="http://www.w3.org/2000/svg" xmlns:v="http://schemas.microsoft.com/visio/2003/SVGExtensions/" width="76.5" height="91.5" viewBox="0 0 57.375 68.625" color-interpolation-filters="sRGB" fill="none" fill-rule="evenodd" font-size="12" overflow="visible" stroke-linecap="square" stroke-miterlimit="3">
  <v:documentProperties v:langID="4108" v:metric="true" v:viewMarkup="false"/>
  <style>
    .st1{fill:#fff;stroke:none;stroke-linecap:butt;stroke-width:.75}
  </style>
  <g v:mID="0" v:index="1" v:groupContext="foregroundPage">
    <v:pageProperties v:drawingScale=".039" v:pageScale=".039" v:drawingUnits="24" v:shadowOffsetX="8.504" v:shadowOffsetY="-8.504"/>
    <v:layer v:name="symbols" v:index="0"/>
    <g id="group202-1" transform="translate(9.75 -8.438)" v:mID="202" v:groupContext="group" v:layerMember="0">
      <g id="group203-2" v:mID="203" v:groupContext="group" v:layerMember="0">
        <g id="shape204-3" v:mID="204" v:groupContext="shape" v:layerMember="0">
          <path d="M3.75 68.63c-2.1 0-3.75-1.65-3.75-3.75V20.63c0-2.1 1.65-3.75 3.75-3.75H34.5c2.1 0 3.75 1.65 3.75 3.75v44.25c0 2.1-1.65 3.75-3.75 3.75H3.75z" class="st1"/>
        </g>
        <g id="shape205-5" v:mID="205" v:groupContext="shape" v:layerMember="0" transform="translate(2.25 -2.25)">
          <path d="M33.75 67.13c0 .82-.67 1.5-1.5 1.5H1.5c-.83 0-1.5-.68-1.5-1.5V22.88c0-.83.67-1.5 1.5-1.5h30.75c.82 0 1.5.67 1.5 1.5v44.25z" fill="#515150" stroke-linecap="butt" stroke-width=".75"/>
        </g>
        <g id="shape206-7" v:mID="206" v:groupContext="shape" v:layerMember="0" transform="translate(6 -6)">
          <path class="st1" d="M0 28.875h26.25v39.75H0z"/>
        </g>
      </g>
    </g>
  </g>
</svg>
