<svg xmlns="http://www.w3.org/2000/svg" xmlns:v="http://schemas.microsoft.com/visio/2003/SVGExtensions/" width="103.5" height="83.25" viewBox="0 0 77.625 62.438" color-interpolation-filters="sRGB" fill="none" fill-rule="evenodd" font-size="12" overflow="visible" stroke-linecap="square" stroke-miterlimit="3">
  <v:documentProperties v:langID="4108" v:metric="true" v:viewMarkup="false"/>
  <style>
    .st1,.st2{fill:#fff;stroke:none;stroke-linecap:butt;stroke-width:.75}.st2{fill:#515150}
  </style>
  <g v:mID="0" v:index="1" v:groupContext="foregroundPage">
    <v:pageProperties v:drawingScale=".039" v:pageScale=".039" v:drawingUnits="24" v:shadowOffsetX="8.504" v:shadowOffsetY="-8.504"/>
    <v:layer v:name="symbols" v:index="0"/>
    <g id="group127-1" transform="translate(7.987 -.75)" v:mID="127" v:groupContext="group" v:layerMember="0">
      <g id="group128-2" v:mID="128" v:groupContext="group" v:layerMember="0">
        <g id="group129-3" transform="translate(0 -8.325)" v:mID="129" v:groupContext="group" v:layerMember="0">
          <g id="shape130-4" v:mID="130" v:groupContext="shape" v:layerMember="0">
            <path d="M48.15 16.01h-30c-1.73 0-3.3.83-4.27 2.18-.68-.75-1.58-1.35-2.7-1.73-1.2-.37-1.88-.45-3.53-.45-1.72 0-2.32.08-3.6.45-2.4.75-3.83 2.48-3.97 4.95-.08.83 0 1.88.07 3.83.07 2.62.23 6.97.23 14.47 0 6-.16 9.98-.23 12.53-.07 2.1-.15 3.52-.07 4.65.14 2.55 1.65 4.35 4.04 5.02 1.21.38 2.25.53 3.38.53 1.2 0 2.4-.15 3.6-.53 1.12-.3 2.1-.9 2.78-1.72.97 1.35 2.47 2.17 4.27 2.17h30c2.92 0 5.25-2.32 5.25-5.25V21.26c0-2.92-2.33-5.25-5.25-5.25z" class="st1"/>
          </g>
          <g id="shape131-6" v:mID="131" v:groupContext="shape" v:layerMember="0" transform="translate(2.175 -2.175)">
            <path d="M10.73 23.81c-.15-1.65-.98-2.55-2.4-3-.9-.3-1.35-.37-2.85-.37-1.58 0-1.96.07-2.93.37-1.42.45-2.32 1.35-2.4 3-.15 1.8.3 5.48.3 18.15 0 10.73-.45 14.63-.3 17.1.08 1.65.98 2.63 2.4 3 .9.23 1.8.38 2.78.38.97 0 2.02-.15 3-.38 1.42-.37 2.32-1.35 2.4-3 .15-2.47-.23-6.15-.23-16.87 0-12.68.38-16.58.23-18.38z" class="st2"/>
          </g>
          <g id="shape132-8" v:mID="132" v:groupContext="shape" v:layerMember="0" transform="translate(15.15 -2.175)">
            <path d="M33 20.44H3c-1.65 0-3 1.35-3 3v36c0 1.65 1.35 3 3 3h30c1.65 0 3-1.35 3-3v-36c0-1.65-1.35-3-3-3zM12.75 52.69c0 .45-.3.75-.75.75H8.25c-.45 0-.75-.3-.75-.75v-1.5c0-.45.3-.75.75-.75H12c.45 0 .75.3.75.75v1.5zm0-5.25c0 .45-.3.75-.75.75H8.25c-.45 0-.75-.3-.75-.75v-1.5c0-.45.3-.75.75-.75H12c.45 0 .75.3.75.75v1.5zm0-5.25c0 .45-.3.75-.75.75H8.25c-.45 0-.75-.3-.75-.75v-1.5c0-.45.3-.75.75-.75H12c.45 0 .75.3.75.75v1.5zm7.5 10.5c0 .45-.3.75-.75.75h-3.75c-.45 0-.75-.3-.75-.75v-1.5c0-.45.3-.75.75-.75h3.75c.45 0 .75.3.75.75v1.5zm0-5.25c0 .45-.3.75-.75.75h-3.75c-.45 0-.75-.3-.75-.75v-1.5c0-.45.3-.75.75-.75h3.75c.45 0 .75.3.75.75v1.5zm0-5.25c0 .45-.3.75-.75.75h-3.75c-.45 0-.75-.3-.75-.75v-1.5c0-.45.3-.75.75-.75h3.75c.45 0 .75.3.75.75v1.5zm7.5 10.5c0 .45-.3.75-.75.75h-3.75c-.45 0-.75-.3-.75-.75v-1.5c0-.45.3-.75.75-.75H27c.45 0 .75.3.75.75v1.5zm0-5.25c0 .45-.3.75-.75.75h-3.75c-.45 0-.75-.3-.75-.75v-1.5c0-.45.3-.75.75-.75H27c.45 0 .75.3.75.75v1.5zm0-5.25c0 .45-.3.75-.75.75h-3.75c-.45 0-.75-.3-.75-.75v-1.5c0-.45.3-.75.75-.75H27c.45 0 .75.3.75.75v1.5zM30 33.94c0 .45-.3.75-.75.75H6.75c-.45 0-.75-.3-.75-.75v-8.25c0-.45.3-.75.75-.75h22.5c.45 0 .75.3.75.75v8.25z" class="st2"/>
          </g>
        </g>
        <g id="group133-10" transform="translate(40.65)" v:mID="133" v:groupContext="group" v:layerMember="0">
          <g id="shape134-11" v:mID="134" v:groupContext="shape" v:layerMember="0">
            <path d="M10.87 62.44c-3.29 0-6-2.7-6-6 0-2.03.98-3.83 2.63-4.95v-.15l-3.6-3.6c-.53-.53-2.4-2.55-2.4-5.1v-1.58C.53 40.24 0 39.04 0 37.69c0-2.48 2.02-4.5 4.5-4.5 1.12 0 2.18.45 3 1.12v-3.37H4.35l6.52-11.25 5.7 9.75h5.18v9h-1.58c-.3 2.25-1.95 4.05-2.32 4.35l-3.6 3.6v5.1a5.903 5.903 0 0 1 2.62 4.95c0 3.3-2.7 6-6 6z" class="st1"/>
          </g>
          <g id="shape135-13" v:mID="135" v:groupContext="shape" v:layerMember="0" transform="translate(2.25 -2.25)">
            <path d="M17.25 33.94h-4.5v4.5h1.5v1.5c0 .97-.9 2.1-1.28 2.47l-3.22 3.23v-14.7h1.5l-2.63-4.5L6 30.94h1.5v19.65l-3.23-3.15C3.9 47.06 3 45.94 3 44.96v-2.85c.82-.3 1.5-1.12 1.5-2.1 0-1.27-.97-2.25-2.25-2.25S0 38.74 0 40.01c0 .98.67 1.8 1.5 2.1v2.85c0 1.73 1.58 3.38 1.72 3.53l4.28 4.2v2.47c-1.5.45-2.63 1.88-2.63 3.53 0 2.1 1.65 3.75 3.75 3.75s3.75-1.65 3.75-3.75c0-1.65-1.12-3.08-2.62-3.53v-7.35l4.27-4.27c.15-.15 1.73-1.8 1.73-3.53v-1.5h1.5v-4.57z" fill="#515050" stroke-linecap="butt" stroke-width=".75"/>
          </g>
        </g>
      </g>
    </g>
  </g>
</svg>
