<svg xmlns="http://www.w3.org/2000/svg" xmlns:v="http://schemas.microsoft.com/visio/2003/SVGExtensions/" width="75" height="91.5" viewBox="0 0 56.25 68.625" color-interpolation-filters="sRGB" fill="none" fill-rule="evenodd" font-size="12" overflow="visible" stroke-linecap="square" stroke-miterlimit="3">
  <v:documentProperties v:langID="4108" v:metric="true" v:viewMarkup="false"/>
  <style>
    .st1{fill:#fff;stroke:none;stroke-linecap:butt;stroke-width:.75}
  </style>
  <g v:mID="0" v:index="1" v:groupContext="foregroundPage">
    <v:pageProperties v:drawingScale=".039" v:pageScale=".039" v:drawingUnits="24" v:shadowOffsetX="8.504" v:shadowOffsetY="-8.504"/>
    <v:layer v:name="symbols" v:index="0"/>
    <g id="group191-1" transform="translate(9.563 -8.438)" v:mID="191" v:groupContext="group" v:layerMember="0">
      <g id="group192-2" v:mID="192" v:groupContext="group" v:layerMember="0">
        <g id="shape193-3" v:mID="193" v:groupContext="shape" v:layerMember="0">
          <path d="M5.25 68.63C2.32 68.63 0 66.3 0 63.38V22.13c0-2.93 2.32-5.25 5.25-5.25h27c2.92 0 5.25 2.32 5.25 5.25v41.25c0 2.92-2.33 5.25-5.25 5.25h-27z" class="st1"/>
        </g>
        <g id="shape194-5" v:mID="194" v:groupContext="shape" v:layerMember="0" transform="translate(2.25 -2.25)">
          <path d="M33 65.63c0 1.65-1.35 3-3 3H3c-1.65 0-3-1.35-3-3V24.38c0-1.65 1.35-3 3-3h27c1.65 0 3 1.35 3 3v41.25z" fill="#4c4a4c" stroke-linecap="butt" stroke-width=".75"/>
        </g>
        <g id="shape195-7" v:mID="195" v:groupContext="shape" v:layerMember="0" transform="translate(4.5 -8.25)">
          <path class="st1" d="M0 33.375h28.5v35.25H0z"/>
        </g>
        <g id="shape196-9" v:mID="196" v:groupContext="shape" v:layerMember="0" transform="translate(18 -45.75)">
          <ellipse cx=".75" cy="67.875" rx=".75" ry=".75" class="st1"/>
        </g>
        <g id="shape197-11" v:mID="197" v:groupContext="shape" v:layerMember="0" transform="translate(17.25 -3.75)">
          <ellipse cx="1.5" cy="67.125" rx="1.5" ry="1.5" class="st1"/>
        </g>
      </g>
    </g>
  </g>
</svg>
