<svg xmlns="http://www.w3.org/2000/svg" xmlns:v="http://schemas.microsoft.com/visio/2003/SVGExtensions/" width="111" height="72" viewBox="0 0 83.25 54" color-interpolation-filters="sRGB" fill="none" fill-rule="evenodd" font-size="12" overflow="visible" stroke-linecap="square" stroke-miterlimit="3">
  <v:documentProperties v:langID="4108" v:metric="true" v:viewMarkup="false"/>
  <style>
    .st1,.st2{fill:#fff;stroke:none;stroke-linecap:butt;stroke-width:.75}.st2{fill:#515050}
  </style>
  <g v:mID="0" v:index="1" v:groupContext="foregroundPage">
    <v:pageProperties v:drawingScale=".039" v:pageScale=".039" v:drawingUnits="24" v:shadowOffsetX="8.504" v:shadowOffsetY="-8.504"/>
    <v:layer v:name="symbols" v:index="0"/>
    <g id="group261-1" transform="translate(9.563 -2.438)" v:mID="261" v:groupContext="group" v:layerMember="0">
      <g id="group262-2" v:mID="262" v:groupContext="group" v:layerMember="0">
        <g id="group263-3" transform="translate(0 -21.75)" v:mID="263" v:groupContext="group" v:layerMember="0">
          <g id="group264-4" v:mID="264" v:groupContext="group" v:layerMember="0">
            <g id="shape265-5" v:mID="265" v:groupContext="shape" v:layerMember="0">
              <path d="M0 54V37.87c0-2.92 2.78-5.62 5.78-5.62h47.77c3 0 5.78 2.7 5.78 5.62V54H0z" class="st1"/>
            </g>
            <g id="shape266-7" v:mID="266" v:groupContext="shape" v:layerMember="0" transform="translate(2.25 -2.25)">
              <path d="M39.45 36.75H3.53c-1.8 0-3.53 1.72-3.53 3.37V54h54.75V40.12c0-1.72-1.72-3.37-3.45-3.37H39.45z" class="st2"/>
            </g>
            <g id="shape267-9" v:mID="267" v:groupContext="shape" v:layerMember="0" transform="translate(4.5 -4.5)">
              <path d="M0 54V42.37c0-.45.75-1.12 1.27-1.12h47.78c.52 0 1.2.67 1.2 1.12V54H0z" class="st1"/>
            </g>
            <g id="group268-11" transform="translate(23.25 -8.25)" v:mID="268" v:groupContext="group" v:layerMember="0">
              <g id="shape269-12" v:mID="269" v:groupContext="shape" v:layerMember="0" transform="translate(20.25)">
                <path d="M5.25 48.75H0v3.75h1.5V54h2.25v-1.5h1.5v-3.75z" class="st2"/>
              </g>
              <g id="shape270-14" v:mID="270" v:groupContext="shape" v:layerMember="0" transform="translate(13.5)">
                <path d="M5.25 48.75H0v3.75h1.5V54h2.25v-1.5h1.5v-3.75z" class="st2"/>
              </g>
              <g id="shape271-16" v:mID="271" v:groupContext="shape" v:layerMember="0" transform="translate(6.75)">
                <path d="M5.25 48.75H0v3.75h1.5V54h2.25v-1.5h1.5v-3.75z" class="st2"/>
              </g>
              <g id="shape272-18" v:mID="272" v:groupContext="shape" v:layerMember="0">
                <path d="M5.25 48.75H0v3.75h1.5V54h2.25v-1.5h1.5v-3.75z" class="st2"/>
              </g>
            </g>
          </g>
          <g id="shape273-20" v:mID="273" v:groupContext="shape" v:layerMember="0" transform="translate(7.5 -9.75)">
            <path d="M3 52.5c0 .82-.68 1.5-1.5 1.5-.83 0-1.5-.68-1.5-1.5 0-.83.67-1.5 1.5-1.5.82 0 1.5.67 1.5 1.5z" class="st2"/>
          </g>
          <g id="shape274-22" v:mID="274" v:groupContext="shape" v:layerMember="0" transform="translate(12 -9.75)">
            <path d="M3 52.5c0 .82-.68 1.5-1.5 1.5-.83 0-1.5-.68-1.5-1.5 0-.83.67-1.5 1.5-1.5.82 0 1.5.67 1.5 1.5z" class="st2"/>
          </g>
          <g id="shape275-24" v:mID="275" v:groupContext="shape" v:layerMember="0" transform="translate(16.5 -9.75)">
            <path d="M3 52.5c0 .82-.68 1.5-1.5 1.5-.83 0-1.5-.68-1.5-1.5 0-.83.67-1.5 1.5-1.5.82 0 1.5.67 1.5 1.5z" class="st2"/>
          </g>
        </g>
        <g id="group276-26" transform="translate(33.75)" v:mID="276" v:groupContext="group" v:layerMember="0">
          <g id="group277-27" v:mID="277" v:groupContext="group" v:layerMember="0">
            <g id="shape278-28" v:mID="278" v:groupContext="shape" v:layerMember="0">
              <path d="M4.5 54C2.03 54 0 51.97 0 49.5v-21C0 26.02 2.03 24 4.5 24h21c2.48 0 4.5 2.02 4.5 4.5v21c0 2.47-2.02 4.5-4.5 4.5h-21z" class="st1"/>
            </g>
            <g id="shape279-30" v:mID="279" v:groupContext="shape" v:layerMember="0" transform="translate(2.25 -2.25)">
              <path d="M25.5 51.75c0 1.27-.97 2.25-2.25 2.25h-21C.98 54 0 53.02 0 51.75v-21c0-1.28.98-2.25 2.25-2.25h21c1.28 0 2.25.97 2.25 2.25v21z" class="st2"/>
            </g>
          </g>
          <g id="shape280-32" v:mID="280" v:groupContext="shape" v:layerMember="0" transform="translate(12 -17.25)">
            <path d="M3.75 54v-4.95L6 51.3v-2.25l-3-3-3 3v2.25l2.25-2.25V54h1.5z" class="st1"/>
          </g>
          <g id="shape281-34" v:mID="281" v:groupContext="shape" v:layerMember="0" transform="translate(12 -4.8)">
            <path d="M2.25 46.05V51L0 48.75V51l3 3 3-3v-2.25L3.75 51v-4.95h-1.5z" class="st1"/>
          </g>
          <g id="shape282-36" v:mID="282" v:groupContext="shape" v:layerMember="0" transform="translate(17.55 -12)">
            <path d="M7.95 51.75H3L5.25 54H3l-3-3 3-3h2.25L3 50.25h4.95v1.5z" class="st1"/>
          </g>
          <g id="shape283-38" v:mID="283" v:groupContext="shape" v:layerMember="0" transform="translate(4.5 -12)">
            <path d="M0 50.25h4.95L2.7 48h2.25l3 3-3 3H2.7l2.25-2.25H0v-1.5z" class="st1"/>
          </g>
        </g>
      </g>
    </g>
  </g>
</svg>
