<svg xmlns="http://www.w3.org/2000/svg" xmlns:v="http://schemas.microsoft.com/visio/2003/SVGExtensions/" width="111" height="73.5" viewBox="0 0 83.25 55.125" color-interpolation-filters="sRGB" fill="none" fill-rule="evenodd" font-size="12" overflow="visible" stroke-linecap="square" stroke-miterlimit="3">
  <v:documentProperties v:langID="4108" v:metric="true" v:viewMarkup="false"/>
  <style>
    .st1,.st2{fill:#fff;stroke:none;stroke-linecap:butt;stroke-width:.75}.st2{fill:#515050}
  </style>
  <g v:mID="0" v:index="1" v:groupContext="foregroundPage">
    <v:pageProperties v:drawingScale=".039" v:pageScale=".039" v:drawingUnits="24" v:shadowOffsetX="8.504" v:shadowOffsetY="-8.504"/>
    <v:layer v:name="symbols" v:index="0"/>
    <g id="group307-1" transform="translate(9.938 -2.438)" v:mID="307" v:groupContext="group" v:layerMember="0">
      <g id="group308-2" transform="translate(0 -21.75)" v:mID="308" v:groupContext="group" v:layerMember="0">
        <g id="shape309-3" v:mID="309" v:groupContext="shape" v:layerMember="0">
          <path d="M0 55.12V39c0-2.93 2.78-5.63 5.78-5.63h47.77c3 0 5.78 2.7 5.78 5.63v16.12H0z" class="st1"/>
        </g>
        <g id="shape310-5" v:mID="310" v:groupContext="shape" v:layerMember="0" transform="translate(2.25 -2.25)">
          <path d="M39.45 37.87H3.53C1.73 37.87 0 39.6 0 41.25v13.87h54.75V41.25c0-1.73-1.72-3.38-3.45-3.38H39.45z" class="st2"/>
        </g>
        <g id="shape311-7" v:mID="311" v:groupContext="shape" v:layerMember="0" transform="translate(4.5 -4.5)">
          <path d="M0 55.12V43.5c0-.45.75-1.13 1.27-1.13h47.78c.52 0 1.2.68 1.2 1.13v11.62H0z" class="st1"/>
        </g>
        <g id="group312-9" transform="translate(23.25 -8.25)" v:mID="312" v:groupContext="group" v:layerMember="0">
          <g id="shape313-10" v:mID="313" v:groupContext="shape" v:layerMember="0" transform="translate(20.25)">
            <path d="M5.25 49.87H0v3.75h1.5v1.5h2.25v-1.5h1.5v-3.75z" class="st2"/>
          </g>
          <g id="shape314-12" v:mID="314" v:groupContext="shape" v:layerMember="0" transform="translate(13.5)">
            <path d="M5.25 49.87H0v3.75h1.5v1.5h2.25v-1.5h1.5v-3.75z" class="st2"/>
          </g>
          <g id="shape315-14" v:mID="315" v:groupContext="shape" v:layerMember="0" transform="translate(6.75)">
            <path d="M5.25 49.87H0v3.75h1.5v1.5h2.25v-1.5h1.5v-3.75z" class="st2"/>
          </g>
          <g id="shape316-16" v:mID="316" v:groupContext="shape" v:layerMember="0">
            <path d="M5.25 49.87H0v3.75h1.5v1.5h2.25v-1.5h1.5v-3.75z" class="st2"/>
          </g>
        </g>
        <g id="group317-18" transform="translate(7.5 -7.5)" v:mID="317" v:groupContext="group" v:layerMember="0">
          <g id="shape318-19" v:mID="318" v:groupContext="shape" v:layerMember="0" transform="translate(3.75 -2.25)">
            <path class="st2" d="M0 52.875h6v2.25H0z"/>
          </g>
          <g id="shape319-21" v:mID="319" v:groupContext="shape" v:layerMember="0" transform="translate(0 -3.75)">
            <path class="st2" d="M0 52.875h2.25v2.25H0z"/>
          </g>
          <g id="shape320-23" v:mID="320" v:groupContext="shape" v:layerMember="0">
            <path class="st2" d="M0 52.875h2.25v2.25H0z"/>
          </g>
        </g>
      </g>
      <g id="group321-25" transform="translate(33.75)" v:mID="321" v:groupContext="group" v:layerMember="0">
        <g id="shape322-26" v:mID="322" v:groupContext="shape" v:layerMember="0">
          <path d="M4.5 55.12c-2.47 0-4.5-2.02-4.5-4.5v-21c0-2.47 2.03-4.5 4.5-4.5h21c2.48 0 4.5 2.03 4.5 4.5v21c0 2.48-2.02 4.5-4.5 4.5h-21z" class="st1"/>
        </g>
        <g id="shape323-28" v:mID="323" v:groupContext="shape" v:layerMember="0" transform="translate(2.25 -2.25)">
          <path d="M25.5 52.87c0 1.28-.97 2.25-2.25 2.25h-21C.98 55.12 0 54.15 0 52.87v-21c0-1.27.98-2.25 2.25-2.25h21c1.28 0 2.25.98 2.25 2.25v21z" class="st2"/>
        </g>
        <g id="shape324-30" v:mID="324" v:groupContext="shape" v:layerMember="0" transform="translate(6 -4.5)">
          <path d="M16.43 44.02v3.3l-6.38-6.45h-.3v-2.4c.9-.3 1.5-1.12 1.5-2.1 0-1.27-.98-2.25-2.25-2.25s-2.25.98-2.25 2.25c0 .98.6 1.8 1.5 2.1v2.4h-.3l-6.37 6.45v-3.3L0 45.6v4.27h4.28l1.57-1.57H2.7l5.63-5.63v9.53L6 49.87v2.25l3 3 3-3v-2.25l-2.25 2.25v-9.45l5.63 5.63h-3.15l1.57 1.57H18V45.6l-1.57-1.58z" class="st1"/>
        </g>
      </g>
    </g>
  </g>
</svg>
