<svg xmlns="http://www.w3.org/2000/svg" xmlns:v="http://schemas.microsoft.com/visio/2003/SVGExtensions/" width="106.5" height="91.5" viewBox="0 0 79.875 68.625" color-interpolation-filters="sRGB" fill="none" fill-rule="evenodd" font-size="12" overflow="visible" stroke-linecap="square" stroke-miterlimit="3">
  <v:documentProperties v:langID="4108" v:metric="true" v:viewMarkup="false"/>
  <style>
    .st3{fill:#515050;stroke:none;stroke-linecap:butt;stroke-width:.75}
  </style>
  <g v:mID="0" v:index="1" v:groupContext="foregroundPage">
    <v:pageProperties v:drawingScale=".039" v:pageScale=".039" v:drawingUnits="24" v:shadowOffsetX="8.504" v:shadowOffsetY="-8.504"/>
    <v:layer v:name="symbols" v:index="0"/>
    <g id="group325-1" transform="translate(8.813 -8.063)" v:mID="325" v:groupContext="group" v:layerMember="0">
      <g id="group326-2" v:mID="326" v:groupContext="group" v:layerMember="0">
        <g id="group327-3" v:mID="327" v:groupContext="group" v:layerMember="0">
          <g id="shape328-4" v:mID="328" v:groupContext="shape" v:layerMember="0">
            <path d="M16.12 68.62c-2.25 0-4.04-1.8-4.04-4.05s1.79-4.12 4.04-4.12c5.33-.08 6.53-.6 6.75-.9 0 0 .23-.15-.07-1.43H5.18C2.4 58.12 0 55.72 0 52.87v-31.5c0-2.85 2.4-5.25 5.18-5.25h51.9c2.77 0 5.17 2.4 5.17 5.25v31.5c0 2.85-2.4 5.25-5.17 5.25H39.45c-.23 1.28-.07 1.35-.07 1.43.22.3 1.42.82 6.75.9 2.17 0 4.04 1.8 4.04 4.12 0 2.25-1.79 4.05-4.04 4.05H16.12z" fill="#fff" stroke-linecap="butt" stroke-width=".75"/>
          </g>
          <g id="shape329-6" v:mID="329" v:groupContext="shape" v:layerMember="0" transform="translate(2.25 -2.25)">
            <path d="M54.82 20.62H2.93c-1.58 0-2.93 1.43-2.93 3v31.5c0 1.58 1.35 3 2.93 3h19.35c1.64 5.78.29 6.75-8.48 6.83-.98 0-1.8.82-1.8 1.87 0 1.05.82 1.8 1.8 1.8h30c.98 0 1.8-.82 1.8-1.8 0-.97-.82-1.87-1.8-1.87-8.63-.08-9.97-1.05-8.33-6.83h19.35c1.65 0 2.93-1.42 2.93-3v-31.5c0-1.57-1.35-3-2.93-3zM54 54.37H3.75v-30H54v30z" fill="#515150" stroke-linecap="butt" stroke-width=".75"/>
          </g>
        </g>
        <g id="shape330-8" v:mID="330" v:groupContext="shape" v:layerMember="0" transform="translate(13.5 -34.5)">
          <path class="st3" d="M0 60.375h8.25v8.25H0z"/>
        </g>
        <g id="shape331-10" v:mID="331" v:groupContext="shape" v:layerMember="0" transform="translate(27 -34.5)">
          <path class="st3" d="M0 60.375h8.25v8.25H0z"/>
        </g>
        <g id="shape332-12" v:mID="332" v:groupContext="shape" v:layerMember="0" transform="translate(40.5 -34.5)">
          <path class="st3" d="M0 60.375h8.25v8.25H0z"/>
        </g>
        <g id="shape333-14" v:mID="333" v:groupContext="shape" v:layerMember="0" transform="translate(13.5 -21)">
          <path class="st3" d="M0 60.375h8.25v8.25H0z"/>
        </g>
        <g id="shape334-16" v:mID="334" v:groupContext="shape" v:layerMember="0" transform="translate(27 -21)">
          <path class="st3" d="M0 60.375h8.25v8.25H0z"/>
        </g>
        <g id="shape335-18" v:mID="335" v:groupContext="shape" v:layerMember="0" transform="translate(40.5 -21)">
          <path class="st3" d="M0 60.375h8.25v8.25H0z"/>
        </g>
      </g>
    </g>
  </g>
</svg>
