<svg xmlns="http://www.w3.org/2000/svg" xmlns:v="http://schemas.microsoft.com/visio/2003/SVGExtensions/" width="108" height="96" viewBox="0 0 81 72" color-interpolation-filters="sRGB" fill="none" fill-rule="evenodd" font-size="12" overflow="visible" stroke-linecap="square" stroke-miterlimit="3">
  <v:documentProperties v:langID="4108" v:metric="true" v:viewMarkup="false"/>
  <style>
    .st1,.st2{fill:#fff;stroke:none;stroke-linecap:butt;stroke-width:.75}.st2{fill:#515050}
  </style>
  <g v:mID="0" v:index="1" v:groupContext="foregroundPage">
    <v:pageProperties v:drawingScale=".039" v:pageScale=".039" v:drawingUnits="24" v:shadowOffsetX="8.504" v:shadowOffsetY="-8.504"/>
    <v:layer v:name="symbols" v:index="0"/>
    <g id="group366-1" transform="translate(9.938 -6.938)" v:mID="366" v:groupContext="group" v:layerMember="0">
      <g id="group367-2" transform="translate(0 -25.5)" v:mID="367" v:groupContext="group" v:layerMember="0">
        <g id="shape368-3" v:mID="368" v:groupContext="shape" v:layerMember="0">
          <path d="M48 72c-1.13 0-2.1-.6-2.63-1.5H10.05c-.52.9-1.5 1.5-2.63 1.5H3c-1.65 0-3-1.43-3-3.08V56.77c0-2.55 2.55-3.3 6-3.82v-10.2h.75v-9h6v9h.75v9.15c4.57-.38 8.92-.53 13.5-.53 7.05 0 13.72.38 18.75 1.05 6.75.9 9 2.03 9 4.28v12.15c0 1.72-1.35 3.07-3.08 3.07H48V72z" class="st1"/>
        </g>
        <g id="shape369-5" v:mID="369" v:groupContext="shape" v:layerMember="0" transform="translate(2.25 -2.25)">
          <path d="M24.75 55.87c-5.48 0-10.5.23-15.75.75v-9.37h-.75v-9h-1.5v9H6v9.82c-3.15.53-6 .9-6 1.95v12.15c0 .45.37.83.75.83h4.5c.45 0 .75-.38.75-.83v-.67h39v.67c0 .45.37.83.75.83h3.6c.45 0 .82-.38.82-.83V59.02c0-1.35-10.2-3.15-25.42-3.15z" class="st2"/>
        </g>
        <g id="shape370-7" v:mID="370" v:groupContext="shape" v:layerMember="0" transform="translate(15 -9.75)">
          <ellipse cx="1.5" cy="70.5" rx="1.5" ry="1.5" class="st1"/>
        </g>
      </g>
      <g id="group371-9" transform="translate(6 -16.5)" v:mID="371" v:groupContext="group" v:layerMember="0">
        <g id="shape372-10" v:mID="372" v:groupContext="shape" v:layerMember="0">
          <path d="M48 72c-1.13 0-2.1-.6-2.63-1.5H10.05c-.52.9-1.5 1.5-2.63 1.5H3c-1.65 0-3-1.43-3-3.08V56.77c0-2.55 2.55-3.3 6-3.82v-10.2h.75v-9h6v9h.75v9.15c4.57-.38 8.92-.53 13.5-.53 7.05 0 13.72.38 18.75 1.05 6.75.9 9 2.03 9 4.28v12.15c0 1.72-1.35 3.07-3.08 3.07H48V72z" class="st1"/>
        </g>
        <g id="shape373-12" v:mID="373" v:groupContext="shape" v:layerMember="0" transform="translate(2.25 -2.25)">
          <path d="M24.75 55.87c-5.48 0-10.5.23-15.75.75v-9.37h-.75v-9h-1.5v9H6v9.82c-3.15.53-6 .9-6 1.95v12.15c0 .45.37.83.75.83h4.5c.45 0 .75-.38.75-.83v-.67h39v.67c0 .45.37.83.75.83h3.6c.45 0 .82-.38.82-.83V59.02c0-1.35-10.2-3.15-25.42-3.15z" class="st2"/>
        </g>
        <g id="group374-14" transform="translate(15 -9.75)" v:mID="374" v:groupContext="group" v:layerMember="0">
          <g id="shape375-15" v:mID="375" v:groupContext="shape" v:layerMember="0">
            <ellipse cx="1.5" cy="70.5" rx="1.5" ry="1.5" class="st1"/>
          </g>
          <g id="shape376-17" v:mID="376" v:groupContext="shape" v:layerMember="0" transform="translate(7.5)">
            <ellipse cx="1.5" cy="70.5" rx="1.5" ry="1.5" class="st1"/>
          </g>
          <g id="shape377-19" v:mID="377" v:groupContext="shape" v:layerMember="0" transform="translate(15)">
            <ellipse cx="1.5" cy="70.5" rx="1.5" ry="1.5" class="st1"/>
          </g>
          <g id="shape378-21" v:mID="378" v:groupContext="shape" v:layerMember="0" transform="translate(22.5)">
            <ellipse cx="1.5" cy="70.5" rx="1.5" ry="1.5" class="st1"/>
          </g>
        </g>
      </g>
      <g id="group379-23" transform="translate(33.75)" v:mID="379" v:groupContext="group" v:layerMember="0">
        <g id="group380-24" v:mID="380" v:groupContext="group" v:layerMember="0">
          <g id="shape381-25" v:mID="381" v:groupContext="shape" v:layerMember="0">
            <path d="M4.5 72C2.03 72 0 69.97 0 67.5v-21C0 44.02 2.03 42 4.5 42h21c2.48 0 4.5 2.02 4.5 4.5v21c0 2.47-2.02 4.5-4.5 4.5h-21z" class="st1"/>
          </g>
          <g id="shape382-27" v:mID="382" v:groupContext="shape" v:layerMember="0" transform="translate(2.25 -2.25)">
            <path d="M25.5 69.75c0 1.27-.97 2.25-2.25 2.25h-21C.98 72 0 71.02 0 69.75v-21c0-1.28.98-2.25 2.25-2.25h21c1.28 0 2.25.97 2.25 2.25v21z" class="st2"/>
          </g>
        </g>
        <g id="shape383-29" v:mID="383" v:groupContext="shape" v:layerMember="0" transform="translate(12 -17.25)">
          <path d="M3.75 72v-4.95L6 69.3v-2.25l-3-3-3 3v2.25l2.25-2.25V72h1.5z" class="st1"/>
        </g>
        <g id="shape384-31" v:mID="384" v:groupContext="shape" v:layerMember="0" transform="translate(12 -4.8)">
          <path d="M2.25 64.05V69L0 66.75V69l3 3 3-3v-2.25L3.75 69v-4.95h-1.5z" class="st1"/>
        </g>
        <g id="shape385-33" v:mID="385" v:groupContext="shape" v:layerMember="0" transform="translate(17.55 -12)">
          <path d="M7.95 69.75H3L5.25 72H3l-3-3 3-3h2.25L3 68.25h4.95v1.5z" class="st1"/>
        </g>
        <g id="shape386-35" v:mID="386" v:groupContext="shape" v:layerMember="0" transform="translate(4.5 -12)">
          <path d="M0 68.25h4.95L2.7 66h2.25l3 3-3 3H2.7l2.25-2.25H0v-1.5z" class="st1"/>
        </g>
      </g>
    </g>
  </g>
</svg>
