<svg xmlns="http://www.w3.org/2000/svg" xmlns:v="http://schemas.microsoft.com/visio/2003/SVGExtensions/" width="98.7" height="102" viewBox="0 0 74.025 76.5" color-interpolation-filters="sRGB" fill="none" fill-rule="evenodd" font-size="12" overflow="visible" stroke-linecap="square" stroke-miterlimit="3">
  <v:documentProperties v:langID="4108" v:metric="true" v:viewMarkup="false"/>
  <style>
    .st1,.st4{fill:#fff;stroke:none;stroke-linecap:butt;stroke-width:.75}.st4{fill:#27ace2}
  </style>
  <g v:mID="0" v:index="1" v:groupContext="foregroundPage">
    <v:pageProperties v:drawingScale=".039" v:pageScale=".039" v:drawingUnits="24" v:shadowOffsetX="8.504" v:shadowOffsetY="-8.504"/>
    <v:layer v:name="symbols" v:index="0"/>
    <g id="group465-1" transform="translate(8.625 -8.063)" v:mID="465" v:groupContext="group" v:layerMember="0">
      <g id="group466-2" transform="translate(0 -3.75)" v:mID="466" v:groupContext="group" v:layerMember="0">
        <g id="shape467-3" v:mID="467" v:groupContext="shape" v:layerMember="0">
          <path d="M0 76.5V24.75c0-2.93 2.33-5.25 5.25-5.25h21c2.93 0 5.25 2.32 5.25 5.25V76.5H0z" class="st1"/>
        </g>
        <g id="shape468-5" v:mID="468" v:groupContext="shape" v:layerMember="0" transform="translate(2.25 -2.25)">
          <path d="M24 24H3c-1.65 0-3 1.35-3 3v49.5h27V27c0-1.65-1.35-3-3-3zm-2.25 46.5H5.25v-2.25h16.5v2.25zm0-6.75H5.25V61.5h16.5v2.25zm0-30.75H5.25v-2.25h16.5V33z" fill="#515251" stroke-linecap="butt" stroke-width=".75"/>
        </g>
      </g>
      <g id="group469-7" transform="translate(12.75)" v:mID="469" v:groupContext="group" v:layerMember="0">
        <g id="shape470-8" v:mID="470" v:groupContext="shape" v:layerMember="0">
          <path d="M11.7 76.5a3.69 3.69 0 0 1-3.68-3.68c0-2.02 1.66-3.67 3.68-3.67 2.62 0 3.83-.23 4.27-.38.01-.15-.07-.3-.07-.52H4.5c-2.47 0-4.5-2.03-4.5-4.5V42c0-2.48 2.03-4.5 4.5-4.5h36c2.48 0 4.5 2.02 4.5 4.5v21.75c0 2.47-2.02 4.5-4.5 4.5H29.1c-.07.22-.07.37-.07.52.52.15 1.65.3 4.35.38 2.02 0 3.67 1.65 3.67 3.67 0 2.03-1.65 3.68-3.67 3.68H11.7z" class="st1"/>
        </g>
        <g id="shape471-10" v:mID="471" v:groupContext="shape" v:layerMember="0" transform="translate(2.25 -2.25)">
          <path d="M38.25 42h-36C.97 42 0 42.97 0 44.25V66c0 1.27.97 2.25 2.25 2.25h13.2c1.27 4.5.98 5.25-5.92 5.4-.83 0-1.43.67-1.43 1.42 0 .83.68 1.43 1.43 1.43h21.52c.83 0 1.42-.6 1.42-1.43 0-.82-.67-1.42-1.42-1.42-6.9-.15-7.27-.9-6-5.4h13.2c1.28 0 2.25-.98 2.25-2.25V44.25c0-1.28-.97-2.25-2.25-2.25zm-.75 23.25H3V45h34.5v20.25z" fill="#515150" stroke-linecap="butt" stroke-width=".75"/>
        </g>
      </g>
      <g id="group472-12" transform="translate(31.5 -37.5)" v:mID="472" v:groupContext="group" v:layerMember="0">
        <g id="shape473-13" v:mID="473" v:groupContext="shape" v:layerMember="0">
          <path d="M25.5 76.5V50.25h-2.4L0 53.55V73.2l23.1 3.3h2.4z" class="st1"/>
        </g>
        <g id="group474-15" transform="translate(2.25 -2.25)" v:mID="474" v:groupContext="group" v:layerMember="0">
          <g id="shape475-16" v:mID="475" v:groupContext="shape" v:layerMember="0" transform="translate(0 -1.725)">
            <path d="M0 75.22l9 1.28v-8.78H0v7.5z" class="st4"/>
          </g>
          <g id="shape476-18" v:mID="476" v:groupContext="shape" v:layerMember="0" transform="translate(0 -11.25)">
            <path d="M0 69v7.5h9v-8.78L0 69z" class="st4"/>
          </g>
          <g id="shape477-20" v:mID="477" v:groupContext="shape" v:layerMember="0" transform="translate(9.75)">
            <path class="st4" d="M0 66h11.25v8.85H0z"/>
          </g>
          <g id="shape478-22" v:mID="478" v:groupContext="shape" v:layerMember="0" transform="translate(9.75 -11.25)">
            <path d="M11.25 66L0 67.57v8.93h11.25V66z" class="st4"/>
          </g>
        </g>
      </g>
    </g>
  </g>
</svg>
