<svg xmlns="http://www.w3.org/2000/svg" xmlns:v="http://schemas.microsoft.com/visio/2003/SVGExtensions/" width="98.4" height="100.5" viewBox="0 0 73.8 75.375" color-interpolation-filters="sRGB" fill="none" fill-rule="evenodd" font-size="12" overflow="visible" stroke-linecap="square" stroke-miterlimit="3">
  <v:documentProperties v:langID="4108" v:metric="true" v:viewMarkup="false"/>
  <style>
    .st1{fill:#fff;stroke:none;stroke-linecap:butt;stroke-width:.75}
  </style>
  <g v:mID="0" v:index="1" v:groupContext="foregroundPage">
    <v:pageProperties v:drawingScale=".039" v:pageScale=".039" v:drawingUnits="24" v:shadowOffsetX="8.504" v:shadowOffsetY="-8.504"/>
    <v:layer v:name="symbols" v:index="0"/>
    <g id="group457-1" transform="translate(8.325 -7.313)" v:mID="457" v:groupContext="group" v:layerMember="0">
      <g id="group458-2" v:mID="458" v:groupContext="group" v:layerMember="0">
        <g id="group459-3" transform="translate(0 -3.75)" v:mID="459" v:groupContext="group" v:layerMember="0">
          <g id="shape460-4" v:mID="460" v:groupContext="shape" v:layerMember="0">
            <path d="M0 75.38V23.63c0-2.93 2.33-5.25 5.25-5.25h21c2.93 0 5.25 2.32 5.25 5.25v51.75H0z" class="st1"/>
          </g>
          <g id="shape461-6" v:mID="461" v:groupContext="shape" v:layerMember="0" transform="translate(2.25 -2.25)">
            <path d="M24 22.88H3c-1.65 0-3 1.35-3 3v49.5h27v-49.5c0-1.65-1.35-3-3-3zm-2.25 46.5H5.25v-2.25h16.5v2.25zm0-6.75H5.25v-2.25h16.5v2.25zm0-30.75H5.25v-2.25h16.5v2.25z" fill="#515251" stroke-linecap="butt" stroke-width=".75"/>
          </g>
        </g>
        <g id="group462-8" transform="translate(12.75)" v:mID="462" v:groupContext="group" v:layerMember="0">
          <g id="shape463-9" v:mID="463" v:groupContext="shape" v:layerMember="0">
            <path d="M11.7 75.38a3.69 3.69 0 0 1-3.68-3.68c0-2.02 1.66-3.67 3.68-3.67 2.62 0 3.83-.23 4.27-.38.01-.15-.07-.3-.07-.52H4.5c-2.47 0-4.5-2.03-4.5-4.5V40.88c0-2.48 2.03-4.5 4.5-4.5h36c2.48 0 4.5 2.02 4.5 4.5v21.75c0 2.47-2.02 4.5-4.5 4.5H29.1c-.07.22-.07.37-.07.52.52.15 1.65.3 4.35.38 2.02 0 3.67 1.65 3.67 3.67 0 2.03-1.65 3.68-3.67 3.68H11.7z" class="st1"/>
          </g>
          <g id="shape464-11" v:mID="464" v:groupContext="shape" v:layerMember="0" transform="translate(2.25 -2.25)">
            <path d="M38.25 40.88h-36c-1.28 0-2.25.97-2.25 2.25v21.75c0 1.27.97 2.25 2.25 2.25h13.2c1.27 4.5.98 5.25-5.92 5.4-.83 0-1.43.67-1.43 1.42 0 .83.68 1.43 1.43 1.43h21.52c.83 0 1.42-.6 1.42-1.43 0-.82-.67-1.42-1.42-1.42-6.9-.15-7.27-.9-6-5.4h13.2c1.28 0 2.25-.98 2.25-2.25V43.13c0-1.28-.97-2.25-2.25-2.25zm-.75 23.25H3V43.88h34.5v20.25z" fill="#515150" stroke-linecap="butt" stroke-width=".75"/>
          </g>
        </g>
      </g>
    </g>
  </g>
</svg>
