<?xml version="1.0" encoding="UTF-8" standalone="no"?>
<!DOCTYPE svg PUBLIC "-//W3C//DTD SVG 1.1//EN" "http://www.w3.org/Graphics/SVG/1.1/DTD/svg11.dtd">
<!-- Generated by Microsoft Visio, SVG Export 3rd Party Service.svg Page-1 -->
<svg xmlns="http://www.w3.org/2000/svg" xmlns:xlink="http://www.w3.org/1999/xlink" xmlns:ev="http://www.w3.org/2001/xml-events"
		xmlns:v="http://schemas.microsoft.com/visio/2003/SVGExtensions/" width="1.01172in" height="1.01563in"
		viewBox="0 0 72.8438 73.125" xml:space="preserve" color-interpolation-filters="sRGB" class="st4">
	<v:documentProperties v:langID="4108" v:metric="true" v:viewMarkup="false"/>

	<style type="text/css">
	<![CDATA[
		.st1 {fill:#ffffff;stroke:none;stroke-linecap:butt;stroke-width:0.75}
		.st2 {fill:#535352;stroke:none;stroke-linecap:butt;stroke-width:0.75}
		.st3 {fill:#515050;stroke:none;stroke-linecap:butt;stroke-width:0.75}
		.st4 {fill:none;fill-rule:evenodd;font-size:12px;overflow:visible;stroke-linecap:square;stroke-miterlimit:3}
	]]>
	</style>

	<g v:mID="0" v:index="1" v:groupContext="foregroundPage">
		<title>Page-1</title>
		<v:pageProperties v:drawingScale="0.0393701" v:pageScale="0.0393701" v:drawingUnits="24" v:shadowOffsetX="8.50394"
				v:shadowOffsetY="-8.50394"/>
		<v:layer v:name="symbols" v:index="0"/>
		<g id="group1-1" transform="translate(7.59375,-7.3125)" v:mID="1" v:groupContext="group" v:layerMember="0">
			<title>3rd Party Service</title>
			<g id="group2-2" v:mID="2" v:groupContext="group" v:layerMember="0">
				<title>Sheet.2</title>
				<g id="group3-3" transform="translate(0,-6.675)" v:mID="3" v:groupContext="group" v:layerMember="0">
					<title>Sheet.3</title>
					<g id="shape4-4" v:mID="4" v:groupContext="shape" v:layerMember="0">
						<title>Sheet.4</title>
						<path d="M32.48 73.05 C31.05 73.05 29.78 72.23 29.25 70.87 L27.82 67.5 C27.82 67.5 27.82 67.5 27.75 67.5
									 C27.67 67.5 26.93 67.58 25.95 67.58 C24.9 67.58 24.15 67.5 24.07 67.5 C24.07 67.5 24.07 67.5
									 24 67.5 L22.58 70.95 C22.05 72.23 20.77 73.12 19.35 73.12 C18.9 73.12 18.45 73.05 18 72.82 L13.35
									 70.87 C12.45 70.5 11.77 69.82 11.47 69 C11.1 68.1 11.1 67.2 11.47 66.3 L12.9 62.85 C12.9 62.85
									 12.75 62.7 12.75 62.7 L10.43 60.3 C10.43 60.3 10.35 60.15 10.28 60.15 L6.83 61.57 C6.38 61.73
									 5.92 61.88 5.47 61.88 C4.05 61.88 2.78 61.05 2.25 59.7 L0.38 55.05 C0 54.22 -0 53.25 0.38 52.35
									 C0.75 51.45 1.43 50.77 2.25 50.47 L5.7 49.05 C5.7 48.98 5.7 48.82 5.7 48.82 L5.7 45.45 C5.7
									 45.45 5.7 45.3 5.7 45.22 L2.25 43.8 C1.35 43.43 0.67 42.75 0.38 41.92 C0 41.03 -0 40.12 0.38
									 39.22 L2.32 34.57 C2.85 33.22 4.13 32.4 5.55 32.4 C6 32.4 6.45 32.47 6.9 32.7 L10.35 34.12 C10.35
									 34.12 10.5 33.98 10.5 33.97 L12.9 31.57 C12.9 31.58 13.05 31.5 13.05 31.42 L11.55 28.05 C11.17
									 27.22 11.17 26.25 11.55 25.35 C11.92 24.45 12.6 23.77 13.43 23.47 L18.07 21.6 C18.45 21.37 18.9
									 21.3 19.43 21.3 C20.85 21.3 22.12 22.12 22.65 23.47 L24.07 26.85 C24.07 26.85 24.07 26.85 24.15
									 26.85 C24.22 26.85 24.97 26.77 25.95 26.77 C27 26.77 27.75 26.85 27.82 26.85 C27.82 26.85 27.82
									 26.85 27.9 26.85 L29.33 23.4 C29.85 22.12 31.05 21.3 32.48 21.3 C32.93 21.3 33.37 21.37 33.82
									 21.6 L38.48 23.55 C39.38 23.92 40.05 24.6 40.35 25.42 C40.72 26.32 40.72 27.22 40.35 28.12 L38.93
									 31.57 C38.93 31.57 39.08 31.73 39.08 31.73 L41.48 34.05 C41.48 34.05 41.55 34.2 41.63 34.2 L45.08
									 32.77 C45.53 32.62 45.98 32.47 46.42 32.47 C47.85 32.47 49.13 33.3 49.65 34.65 L51.6 39.3 C51.98
									 40.2 51.98 41.1 51.6 42 C51.23 42.9 50.55 43.57 49.72 43.87 L46.2 45.3 C46.2 45.37 46.2 45.53
									 46.2 45.53 L46.2 48.9 C46.2 48.9 46.2 49.05 46.2 49.13 L49.65 50.55 C51.45 51.3 52.28 53.32
									 51.53 55.12 L49.57 59.77 C49.05 61.12 47.78 61.95 46.35 61.95 C45.9 61.95 45.45 61.88 45 61.65
									 L41.55 60.22 C41.48 60.3 41.4 60.37 41.4 60.37 L39.08 62.7 C39.08 62.7 38.93 62.78 38.93 62.85
									 L40.35 66.3 C40.72 67.2 40.72 68.1 40.35 69 C39.97 69.9 39.3 70.57 38.48 70.87 L33.82 72.75
									 C33.45 72.98 33 73.05 32.48 73.05 ZM25.95 36.9 C20.25 36.9 15.67 41.47 15.67 47.17 C15.67 52.87
									 20.25 57.45 25.95 57.45 C31.65 57.45 36.23 52.87 36.23 47.17 C36.23 41.47 31.65 36.9 25.95 36.9
									 Z" class="st1"/>
					</g>
					<g id="shape5-6" v:mID="5" v:groupContext="shape" v:layerMember="0" transform="translate(2.175,-2.025)">
						<title>Sheet.5</title>
						<path d="M46.65 54.6 L42.83 53.03 C42.23 52.73 41.7 52.43 41.7 52.28 C41.7 52.13 41.78 51.45 41.85 50.77
									 L41.85 47.63 C41.78 46.95 41.7 46.27 41.7 46.12 C41.7 45.97 42.15 45.67 42.83 45.37 L46.65 43.8
									 C47.25 43.5 47.63 42.83 47.33 42.15 L45.38 37.5 C45.15 36.9 44.4 36.6 43.73 36.82 L39.9 38.47
									 C39.3 38.77 38.7 38.85 38.63 38.77 C38.55 38.7 38.1 38.18 37.65 37.65 L35.4 35.4 C34.88 34.95
									 34.35 34.5 34.28 34.42 C34.2 34.35 34.28 33.75 34.58 33.15 L36.15 29.32 C36.45 28.72 36.08 27.98
									 35.48 27.67 L30.83 25.72 C30.15 25.42 29.48 25.72 29.18 26.32 L27.6 30.15 C27.38 30.82 27 31.27
									 26.85 31.27 C26.7 31.27 26.03 31.2 25.35 31.05 C25.35 31.05 24.68 30.97 23.7 30.97 C22.73 30.97
									 22.13 31.05 22.13 31.05 C21.45 31.12 20.78 31.2 20.63 31.2 C20.48 31.2 20.17 30.75 19.88 30.07
									 L18.37 26.32 C18.15 25.72 17.4 25.42 16.72 25.65 L12.07 27.6 C11.47 27.82 11.18 28.57 11.4 29.25
									 L12.98 33.07 C13.27 33.67 13.35 34.27 13.27 34.35 C13.2 34.42 12.67 34.87 12.15 35.32 L9.9 37.58
									 C9.45 38.1 9 38.62 8.93 38.7 C8.85 38.77 8.25 38.7 7.65 38.4 L3.83 36.82 C3.23 36.52 2.48 36.9
									 2.18 37.5 L0.23 42.15 C0 42.83 0.3 43.57 0.9 43.8 L4.73 45.37 C5.4 45.67 5.85 45.97 5.85 46.12
									 C5.85 46.27 5.78 46.95 5.7 47.63 L5.7 50.77 C5.78 51.45 5.85 52.13 5.85 52.28 C5.85 52.43 5.4
									 52.73 4.73 53.03 L0.9 54.6 C0.3 54.82 0 55.57 0.23 56.25 L2.18 60.9 C2.48 61.5 3.15 61.88 3.83
									 61.58 L7.65 60 C8.25 59.77 8.85 59.62 8.93 59.7 C9 59.77 9.45 60.3 9.9 60.82 L12.15 63.08 C12.67
									 63.52 13.2 63.97 13.27 64.05 C13.35 64.12 13.27 64.72 12.98 65.32 L11.4 69.15 C11.1 69.75 11.47
									 70.5 12.07 70.8 L16.72 72.75 C17.33 73.05 18.08 72.68 18.37 72.07 L19.95 68.25 C20.25 67.58
									 20.55 67.13 20.7 67.13 C20.85 67.13 21.53 67.2 22.2 67.35 C22.2 67.35 22.88 67.43 23.85 67.43
									 C24.75 67.43 25.43 67.35 25.43 67.35 C26.1 67.28 26.78 67.2 26.93 67.2 C27.07 67.2 27.38 67.65
									 27.67 68.32 L29.25 72.15 C29.55 72.75 30.23 73.12 30.9 72.82 L35.55 70.87 C36.23 70.65 36.53
									 69.9 36.23 69.22 L34.5 65.32 C34.28 64.65 34.13 64.12 34.2 64.05 C34.28 63.97 34.8 63.52 35.33
									 63.08 L37.58 60.82 C38.03 60.3 38.48 59.77 38.55 59.7 C38.62 59.62 39.23 59.7 39.83 60 L43.65
									 61.58 C44.25 61.88 45 61.5 45.3 60.9 L47.25 56.25 C47.55 55.57 47.25 54.82 46.65 54.6 ZM23.78
									 61.73 C16.88 61.73 11.25 56.1 11.25 49.2 C11.25 42.3 16.88 36.67 23.78 36.67 C30.68 36.67 36.3
									 42.3 36.3 49.2 C36.3 56.1 30.68 61.73 23.78 61.73 Z" class="st2"/>
					</g>
				</g>
				<g id="group6-8" transform="translate(27.825,-2.84217E-13)" v:mID="6" v:groupContext="group" v:layerMember="0">
					<title>Sheet.6</title>
					<g id="group7-9" v:mID="7" v:groupContext="group" v:layerMember="0">
						<title>Sheet.7</title>
						<g id="shape8-10" v:mID="8" v:groupContext="shape" v:layerMember="0">
							<title>Sheet.8</title>
							<path d="M4.5 73.12 C2.03 73.12 0 71.1 0 68.63 L0 47.63 C0 45.15 2.03 43.13 4.5 43.13 L25.5 43.13 C27.98
										 43.13 30 45.15 30 47.63 L30 68.63 C30 71.1 27.98 73.12 25.5 73.12 L4.5 73.12 Z"
									class="st1"/>
						</g>
						<g id="shape9-12" v:mID="9" v:groupContext="shape" v:layerMember="0" transform="translate(2.25,-2.25)">
							<title>Sheet.9</title>
							<path d="M25.5 70.88 C25.5 72.15 24.52 73.12 23.25 73.12 L2.25 73.12 C0.98 73.12 0 72.15 0 70.88 L0 49.88
										 C-0 48.6 0.98 47.63 2.25 47.63 L23.25 47.63 C24.52 47.63 25.5 48.6 25.5 49.88 L25.5 70.88
										 Z" class="st3"/>
						</g>
					</g>
					<g id="group10-14" transform="translate(7.65,-8.25)" v:mID="10" v:groupContext="group" v:layerMember="0">
						<title>Sheet.10</title>
						<g id="shape11-15" v:mID="11" v:groupContext="shape" v:layerMember="0">
							<title>Sheet.11</title>
							<path d="M6.67 72.07 C5.85 72.75 4.65 73.12 3.15 73.12 C1.87 73.12 0.82 72.9 0 72.53 L0 70.13 C0.82 70.72
										 1.8 71.02 2.93 71.03 C3.6 71.03 4.2 70.87 4.57 70.58 C4.95 70.28 5.18 69.82 5.18 69.3 C5.18
										 68.7 4.95 68.33 4.43 68.03 C3.9 67.72 3.3 67.58 2.4 67.58 L1.2 67.58 L1.2 65.48 L2.25 65.48
										 C3.9 65.48 4.72 64.95 4.72 63.83 C4.72 62.78 4.12 62.25 2.85 62.25 C2.03 62.25 1.2 62.55
										 0.37 63.08 L0.37 60.83 C1.28 60.38 2.32 60.15 3.45 60.15 C4.72 60.15 5.77 60.45 6.45 61.05
										 C7.12 61.65 7.5 62.4 7.5 63.3 C7.5 64.95 6.67 66 5.02 66.38 C5.92 66.45 6.6 66.82 7.12 67.35
										 C7.65 67.87 7.87 68.55 7.87 69.3 C7.95 70.5 7.57 71.4 6.67 72.07 Z" class="st1"/>
						</g>
						<g id="group12-17" transform="translate(9.375,-7.2)" v:mID="12" v:groupContext="group" v:layerMember="0">
							<title>Sheet.12</title>
							<g id="shape13-18" v:mID="13" v:groupContext="shape" v:layerMember="0">
								<title>Sheet.13</title>
								<path d="M1.95 70.43 C1.87 70.35 1.72 70.35 1.57 70.35 C1.35 70.35 1.12 70.43 0.97 70.65 C0.82 70.88
											 0.75 71.1 0.75 71.48 L0.75 73.12 L0 73.12 L0 69.75 L0.75 69.75 L0.75 70.43 C0.82 70.2
											 0.97 69.98 1.12 69.9 C1.27 69.75 1.42 69.68 1.65 69.68 C1.8 69.68 1.87 69.68 1.95 69.75
											 L1.95 70.43 Z" class="st1"/>
							</g>
							<g id="shape14-20" v:mID="14" v:groupContext="shape" v:layerMember="0" transform="translate(2.25,0)">
								<title>Sheet.14</title>
								<path d="M3.22 73.05 L2.47 73.05 L2.47 72.45 C2.25 72.9 1.87 73.12 1.35 73.12 C0.9 73.12 0.6 72.97
											 0.37 72.67 C0.15 72.38 0 71.92 0 71.47 C0 70.95 0.15 70.5 0.45 70.12 C0.75 69.83 1.12
											 69.6 1.57 69.6 C2.02 69.6 2.32 69.75 2.55 70.12 L2.55 68.03 L3.3 68.03 L3.3 73.05 L3.22
											 73.05 ZM2.47 71.55 L2.47 71.1 C2.47 70.87 2.4 70.65 2.25 70.5 C2.1 70.35 1.87 70.28
											 1.65 70.28 C1.35 70.28 1.12 70.35 0.97 70.57 C0.82 70.8 0.75 71.1 0.75 71.47 C0.75 71.85
											 0.82 72.07 0.97 72.3 C1.12 72.53 1.35 72.6 1.57 72.6 C1.8 72.6 2.02 72.52 2.17 72.3
											 C2.32 72.07 2.47 71.85 2.47 71.55 Z" class="st1"/>
							</g>
						</g>
					</g>
				</g>
			</g>
		</g>
	</g>
</svg>
