<?xml version="1.0" encoding="UTF-8" standalone="no"?>
<!DOCTYPE svg PUBLIC "-//W3C//DTD SVG 1.1//EN" "http://www.w3.org/Graphics/SVG/1.1/DTD/svg11.dtd">
<!-- Generated by Microsoft Visio, SVG Export Access Services.svg Page-1 -->
<svg xmlns="http://www.w3.org/2000/svg" xmlns:xlink="http://www.w3.org/1999/xlink" xmlns:ev="http://www.w3.org/2001/xml-events"
		xmlns:v="http://schemas.microsoft.com/visio/2003/SVGExtensions/" width="1.05313in" height="0.953125in"
		viewBox="0 0 75.825 68.625" xml:space="preserve" color-interpolation-filters="sRGB" class="st4">
	<v:documentProperties v:langID="4108" v:metric="true" v:viewMarkup="false"/>

	<style type="text/css">
	<![CDATA[
		.st1 {fill:#ffffff;stroke:none;stroke-linecap:butt;stroke-width:0.75}
		.st2 {fill:#515251;stroke:none;stroke-linecap:butt;stroke-width:0.75}
		.st3 {fill:#b92025;stroke:none;stroke-linecap:butt;stroke-width:0.75}
		.st4 {fill:none;fill-rule:evenodd;font-size:12px;overflow:visible;stroke-linecap:square;stroke-miterlimit:3}
	]]>
	</style>

	<g v:mID="0" v:index="1" v:groupContext="foregroundPage">
		<title>Page-1</title>
		<v:pageProperties v:drawingScale="0.0393701" v:pageScale="0.0393701" v:drawingUnits="24" v:shadowOffsetX="8.50394"
				v:shadowOffsetY="-8.50394"/>
		<v:layer v:name="symbols" v:index="0"/>
		<g id="group15-1" transform="translate(7.5375,-7.5375)" v:mID="15" v:groupContext="group" v:layerMember="0">
			<title>Access Services</title>
			<g id="group16-2" v:mID="16" v:groupContext="group" v:layerMember="0">
				<title>Sheet.16</title>
				<g id="shape17-3" v:mID="17" v:groupContext="shape" v:layerMember="0">
					<title>Sheet.17</title>
					<path d="M37.43 66.52 C36 66.75 34.65 66.07 33.9 64.87 L31.95 61.72 C31.95 61.72 31.95 61.72 31.88 61.72 C31.8
								 61.72 31.13 61.95 30.08 62.1 C29.03 62.32 28.28 62.32 28.2 62.32 L28.13 62.32 L27.3 65.92 C27 67.27
								 25.87 68.32 24.45 68.55 C24 68.62 23.55 68.62 23.1 68.47 L18.22 67.35 C17.32 67.12 16.57 66.6 16.05
								 65.77 C15.52 64.95 15.37 64.05 15.6 63.15 L16.42 59.47 L16.27 59.4 L13.57 57.45 C13.57 57.45 13.42
								 57.37 13.42 57.3 L10.27 59.32 C9.9 59.55 9.45 59.7 9 59.77 C7.57 60 6.15 59.4 5.4 58.2 L2.78 53.92
								 C2.25 53.1 2.1 52.2 2.32 51.3 C2.55 50.4 3.15 49.57 3.9 49.12 L7.05 47.17 C7.05 47.1 6.97 46.95
								 6.97 46.95 L6.45 43.65 C6.45 43.65 6.45 43.5 6.45 43.42 L2.78 42.6 C1.87 42.37 1.12 41.85 0.6 41.02
								 C0.15 40.2 0 39.22 0.22 38.32 L1.35 33.45 C1.65 32.1 2.78 31.05 4.2 30.82 C4.65 30.75 5.1 30.75
								 5.55 30.9 L9.22 31.72 L9.3 31.57 L11.25 28.87 C11.25 28.87 11.32 28.72 11.4 28.72 L9.45 25.57 C8.92
								 24.75 8.77 23.85 9 22.95 C9.22 22.05 9.75 21.3 10.57 20.77 L14.85 18.15 C15.22 17.92 15.67 17.77
								 16.12 17.7 C17.55 17.48 18.9 18.07 19.65 19.35 L21.6 22.5 C21.6 22.5 21.6 22.5 21.67 22.5 C21.75
								 22.5 22.42 22.27 23.47 22.12 C24.52 21.97 25.27 21.9 25.35 21.9 C25.35 21.9 25.35 21.9 25.42 21.9
								 L26.25 18.3 C26.55 16.95 27.68 15.9 29.1 15.67 C29.55 15.6 30 15.6 30.45 15.75 L35.33 16.87 C36.23
								 17.1 36.98 17.62 37.5 18.45 C38.03 19.27 38.18 20.17 37.95 21.07 L37.13 24.75 C37.2 24.75 37.28
								 24.82 37.28 24.82 L39.98 26.77 C39.98 26.77 40.13 26.85 40.13 26.92 L43.28 24.97 C43.65 24.75 44.1
								 24.6 44.55 24.52 C45.98 24.3 47.33 24.9 48.08 26.17 L50.7 30.45 C51.23 31.27 51.38 32.17 51.15 33.07
								 C50.93 33.97 50.4 34.72 49.58 35.25 L46.43 37.2 C46.43 37.27 46.5 37.42 46.5 37.42 L47.03 40.72
								 C47.03 40.72 47.03 40.87 47.03 40.95 L50.7 41.77 C52.58 42.22 53.78 44.1 53.33 45.97 L52.2 50.85
								 C51.9 52.2 50.78 53.25 49.35 53.47 C48.9 53.55 48.45 53.55 48 53.4 L44.33 52.57 C44.33 52.65 44.25
								 52.72 44.25 52.72 L42.3 55.42 C42.3 55.42 42.23 55.57 42.15 55.57 L44.1 58.72 C44.63 59.55 44.78
								 60.45 44.55 61.35 C44.33 62.25 43.8 63 42.98 63.52 L38.7 66.15 C38.33 66.22 37.88 66.45 37.43 66.52
								 ZM25.12 31.87 C19.5 32.77 15.75 38.1 16.65 43.65 C17.55 49.27 22.87 53.02 28.43 52.12 C34.05 51.22
								 37.8 45.9 36.9 40.35 C36 34.8 30.75 30.97 25.12 31.87 Z" class="st1"/>
				</g>
				<g id="shape18-5" v:mID="18" v:groupContext="shape" v:layerMember="0" transform="translate(2.25,-2.1)">
					<title>Sheet.18</title>
					<path d="M47.93 45.75 L43.88 44.77 C43.2 44.63 42.68 44.4 42.68 44.25 C42.68 44.1 42.6 43.42 42.6 42.75 L42.07
								 39.67 C41.93 39 41.77 38.33 41.7 38.25 C41.63 38.1 42.07 37.72 42.68 37.35 L46.2 35.17 C46.8 34.8
								 46.95 34.05 46.58 33.45 L43.95 29.17 C43.58 28.57 42.83 28.42 42.23 28.8 L38.7 30.97 C38.1 31.35
								 37.58 31.58 37.42 31.42 C37.35 31.35 36.82 30.9 36.3 30.45 L33.75 28.57 C33.15 28.2 32.55 27.9 32.47
								 27.82 C32.33 27.75 32.4 27.15 32.55 26.47 L33.53 22.42 C33.68 21.75 33.3 21.07 32.63 20.92 L27.75
								 19.8 C27.08 19.65 26.4 20.03 26.25 20.7 L25.28 24.75 C25.13 25.42 24.9 25.95 24.75 25.95 C24.6 25.95
								 23.93 25.95 23.25 26.03 C23.25 26.03 22.57 26.03 21.67 26.17 C20.78 26.32 20.18 26.47 20.18 26.47
								 C19.5 26.7 18.9 26.85 18.75 26.92 C18.6 27 18.22 26.55 17.85 25.95 L15.53 22.42 C15.15 21.82 14.4
								 21.67 13.8 22.05 L9.52 24.67 C8.92 25.05 8.78 25.8 9.15 26.4 L11.33 29.92 C11.7 30.53 11.93 31.05
								 11.78 31.2 C11.7 31.28 11.25 31.8 10.8 32.33 L8.92 34.87 C8.55 35.47 8.25 36.08 8.18 36.15 C8.1
								 36.3 7.5 36.22 6.83 36.08 L2.85 35.17 C2.18 35.02 1.5 35.4 1.35 36.08 L0.15 40.95 C-0 41.63 0.38
								 42.3 1.05 42.45 L5.17 43.42 C5.85 43.57 6.37 43.8 6.37 43.95 C6.37 44.1 6.45 44.77 6.45 45.45 L6.98
								 48.6 C7.12 49.27 7.28 49.95 7.35 50.02 C7.42 50.17 6.98 50.55 6.37 50.92 L2.85 53.1 C2.25 53.47
								 2.1 54.22 2.47 54.82 L5.1 59.1 C5.47 59.7 6.23 59.85 6.83 59.47 L10.35 57.3 C10.95 56.92 11.48 56.7
								 11.63 56.85 C11.7 56.92 12.23 57.37 12.75 57.82 L15.3 59.7 C15.9 60.07 16.5 60.37 16.58 60.45 C16.72
								 60.52 16.65 61.12 16.5 61.8 L15.53 65.85 C15.37 66.52 15.75 67.2 16.42 67.35 L21.3 68.47 C21.97
								 68.62 22.65 68.25 22.8 67.57 L23.77 63.52 C23.93 62.85 24.15 62.32 24.3 62.32 C24.45 62.32 25.13
								 62.32 25.8 62.25 C25.8 62.25 26.48 62.25 27.38 62.1 C28.28 61.95 28.88 61.8 28.88 61.8 C29.55 61.57
								 30.15 61.42 30.3 61.35 C30.45 61.27 30.83 61.72 31.2 62.32 L33.37 65.85 C33.75 66.45 34.5 66.6 35.1
								 66.22 L39.38 63.6 C39.98 63.22 40.13 62.47 39.75 61.87 L37.58 58.35 C37.2 57.75 36.98 57.22 37.12
								 57.07 C37.2 57 37.65 56.47 38.1 55.95 L39.98 53.4 C40.35 52.8 40.65 52.2 40.73 52.12 C40.8 51.97
								 41.4 52.05 42.07 52.2 L46.12 53.17 C46.8 53.32 47.48 52.95 47.63 52.27 L48.75 47.4 C49.05 46.57
								 48.6 45.9 47.93 45.75 ZM26.55 56.47 C19.72 57.6 13.27 52.95 12.15 46.12 C11.02 39.3 15.68 32.85
								 22.5 31.72 C29.33 30.6 35.78 35.25 36.9 42.07 C38.03 48.9 33.37 55.35 26.55 56.47 Z" class="st2"/>
				</g>
			</g>
			<g id="group19-7" transform="translate(34.65,-25.05)" v:mID="19" v:groupContext="group" v:layerMember="0">
				<title>Sheet.19</title>
				<g id="shape20-8" v:mID="20" v:groupContext="shape" v:layerMember="0">
					<title>Sheet.20</title>
					<path d="M20.02 42.67 C19.58 42.67 19.2 42.67 18.75 42.75 L18.75 40.12 L16.35 40.12 L0 42.67 L0 66 L16.35 68.62
								 L18.75 68.62 L18.75 66 C19.2 66 19.58 66.07 20.02 66.07 C25.73 66.07 29.25 63.97 29.25 60.67 L29.25
								 48.07 C29.25 44.77 25.73 42.67 20.02 42.67 Z" class="st1"/>
				</g>
				<g id="shape21-10" v:mID="21" v:groupContext="shape" v:layerMember="0" transform="translate(13.05,-4.8)">
					<title>Sheet.21</title>
					<path d="M6.98 49.72 C3.53 49.72 0 50.7 0 52.87 L0 65.47 C0 67.65 3.53 68.62 6.98 68.62 C10.43 68.62 13.95 67.65
								 13.95 65.47 L13.95 52.87 C13.95 50.7 10.43 49.72 6.98 49.72 ZM1.05 52.87 C1.05 51.67 3.67 50.77
								 6.98 50.77 C10.28 50.77 12.9 51.67 12.9 52.87 C12.9 54 10.28 54.97 6.98 54.97 C3.67 54.97 1.05 54.07
								 1.05 52.87 ZM1.05 53.92 C1.05 55.05 3.67 56.02 6.98 56.02 C10.28 56.02 12.9 55.12 12.9 53.92 L12.9
								 57.07 C12.9 58.2 10.28 59.17 6.98 59.17 C3.67 59.17 1.05 58.27 1.05 57.07 L1.05 53.92 ZM1.05 58.12
								 C1.05 59.25 3.67 60.22 6.98 60.22 C10.28 60.22 12.9 59.32 12.9 58.12 L12.9 61.27 C12.9 62.4 10.28
								 63.37 6.98 63.37 C3.67 63.37 1.05 62.47 1.05 61.27 L1.05 58.12 ZM6.98 67.57 C3.67 67.57 1.05 66.67
								 1.05 65.47 L1.05 62.32 C1.05 63.45 3.67 64.42 6.98 64.42 C10.28 64.42 12.9 63.52 12.9 62.32 L12.9
								 65.47 C12.9 66.6 10.28 67.57 6.98 67.57 Z" class="st3"/>
				</g>
				<g id="shape22-12" v:mID="22" v:groupContext="shape" v:layerMember="0" transform="translate(2.25,-2.25)">
					<title>Sheet.22</title>
					<path d="M14.25 44.62 L0 46.87 L0 66.37 L14.25 68.62 L14.25 44.62 Z" class="st3"/>
				</g>
				<g id="shape23-14" v:mID="23" v:groupContext="shape" v:layerMember="0" transform="translate(5.475,-9.225)">
					<title>Sheet.23</title>
					<path d="M2.55 64.72 L3.38 61.65 C3.38 61.57 3.38 61.5 3.45 61.42 C3.45 61.35 3.45 61.27 3.45 61.2 C3.45 61.12
								 3.45 61.05 3.45 60.97 C3.45 60.9 3.45 60.82 3.45 60.75 L3.53 60.75 C3.53 60.82 3.53 60.9 3.53 60.97
								 C3.53 61.05 3.53 61.12 3.53 61.2 C3.53 61.27 3.53 61.35 3.53 61.42 C3.53 61.5 3.53 61.57 3.6 61.65
								 L4.43 64.72 L2.55 64.72 ZM4.5 59.1 L2.55 59.25 L0 68.17 L1.65 68.25 L2.18 66.3 L4.8 66.37 L5.33
								 68.47 L7.28 68.62 L4.5 59.1 Z" class="st1"/>
				</g>
			</g>
		</g>
	</g>
</svg>
