<?xml version="1.0" encoding="UTF-8" standalone="no"?>
<!DOCTYPE svg PUBLIC "-//W3C//DTD SVG 1.1//EN" "http://www.w3.org/Graphics/SVG/1.1/DTD/svg11.dtd">
<!-- Generated by Microsoft Visio, SVG Export Business Connectivity Services.svg Page-1 -->
<svg xmlns="http://www.w3.org/2000/svg" xmlns:xlink="http://www.w3.org/1999/xlink" xmlns:ev="http://www.w3.org/2001/xml-events"
		xmlns:v="http://schemas.microsoft.com/visio/2003/SVGExtensions/" width="0.75in" height="0.984375in" viewBox="0 0 54 70.875"
		xml:space="preserve" color-interpolation-filters="sRGB" class="st3">
	<v:documentProperties v:langID="4108" v:metric="true" v:viewMarkup="false"/>

	<style type="text/css">
	<![CDATA[
		.st1 {fill:#ffffff;stroke:none;stroke-linecap:butt;stroke-width:0.75}
		.st2 {fill:#515251;stroke:none;stroke-linecap:butt;stroke-width:0.75}
		.st3 {fill:none;fill-rule:evenodd;font-size:12px;overflow:visible;stroke-linecap:square;stroke-miterlimit:3}
	]]>
	</style>

	<g v:mID="0" v:index="1" v:groupContext="foregroundPage">
		<title>Page-1</title>
		<v:pageProperties v:drawingScale="0.0393701" v:pageScale="0.0393701" v:drawingUnits="24" v:shadowOffsetX="8.50394"
				v:shadowOffsetY="-8.50394"/>
		<v:layer v:name="symbols" v:index="0"/>
		<g id="group24-1" transform="translate(7.9875,-7.6875)" v:mID="24" v:groupContext="group" v:layerMember="0">
			<title>Business Connectivity Services</title>
			<g id="group25-2" v:mID="25" v:groupContext="group" v:layerMember="0">
				<title>Sheet.25</title>
				<g id="shape26-3" v:mID="26" v:groupContext="shape" v:layerMember="0">
					<title>Sheet.26</title>
					<path d="M38.25 61.12 L26.25 61.12 L26.25 59.62 L23.25 59.62 L23.25 53.62 L15 53.62 L15 59.62 L12 59.62 L12 61.12
								 L0 61.12 L0 69.37 L12 69.37 L12 70.87 L26.25 70.87 L26.25 69.37 L38.25 69.37 L38.25 61.12 Z"
							class="st1"/>
				</g>
				<g id="group27-5" transform="translate(0,-14.25)" v:mID="27" v:groupContext="group" v:layerMember="0">
					<title>Sheet.27</title>
					<g id="shape28-6" v:mID="28" v:groupContext="shape" v:layerMember="0">
						<title>Sheet.28</title>
						<path d="M0 70.87 L0.15 68.32 C0.3 65.62 0.97 60 1.58 57.45 C2.25 54.52 3.22 52.35 6.15 50.7 L7.2 50.1 L7.27
									 50.1 C8.7 49.65 9.53 49.27 10.2 48.9 C10.5 48.75 10.73 48.67 11.02 48.52 C11.1 48.52 11.1 48.52
									 11.17 48.45 C9.6 46.42 8.7 43.8 8.7 41.1 C8.7 34.8 13.5 29.62 19.27 29.62 C25.13 29.62 29.85
									 34.8 29.85 41.1 C29.85 43.8 28.95 46.42 27.38 48.45 C28.57 48.52 29.55 49.05 31.42 50.1 L32.4
									 50.62 C35.32 52.27 36.3 54.45 36.98 57.37 C37.58 60 38.18 65.55 38.4 68.25 L38.55 70.8 L0 70.8
									 L0 70.87 Z" class="st1"/>
					</g>
					<g id="shape29-8" v:mID="29" v:groupContext="shape" v:layerMember="0" transform="translate(2.55,-2.475)">
						<title>Sheet.29</title>
						<path d="M32.1 60.45 C31.5 57.67 30.75 56.4 28.65 55.2 C26.55 54 25.42 53.25 24.68 53.25 C24.3 53.25 24.08
									 53.32 23.85 53.47 C23.32 53.92 22.8 54.37 22.2 54.67 C22.2 54.67 22.2 54.67 22.2 54.67 C22.13
									 54.75 21.97 54.82 21.9 54.82 C21.3 55.2 20.7 55.42 20.18 55.65 C19.13 56.02 17.92 56.25 16.72
									 56.25 C15.53 56.25 14.4 56.02 13.28 55.65 C12.67 55.5 12.07 55.2 11.55 54.82 C10.88 54.45 10.2
									 53.92 9.6 53.4 C9.37 53.25 9.07 53.17 8.77 53.17 C8.03 53.17 7.2 53.7 4.8 55.12 C2.77 56.32
									 1.95 57.6 1.35 60.37 C0.83 62.77 0.15 68.25 0 70.87 L33.45 70.87 C33.3 68.32 32.7 62.85 32.1
									 60.45 Z" class="st2"/>
					</g>
					<g id="shape30-10" v:mID="30" v:groupContext="shape" v:layerMember="0" transform="translate(11.1,-20.7)">
						<title>Sheet.30</title>
						<path d="M8.18 70.87 C3.67 70.87 0 66.82 0 61.8 C0 56.77 3.67 52.72 8.18 52.72 C12.68 52.72 16.35 56.77 16.35
									 61.8 C16.35 66.82 12.68 70.87 8.18 70.87 Z" class="st2"/>
					</g>
				</g>
				<g id="group31-12" transform="translate(2.25,-2.25)" v:mID="31" v:groupContext="group" v:layerMember="0">
					<title>Sheet.31</title>
					<g id="shape32-13" v:mID="32" v:groupContext="shape" v:layerMember="0" transform="translate(15,-8.25)">
						<title>Sheet.32</title>
						<rect x="0" y="66.375" width="3.75" height="4.5" class="st2"/>
					</g>
					<g id="shape33-15" v:mID="33" v:groupContext="shape" v:layerMember="0" transform="translate(12,1.42109E-14)">
						<title>Sheet.33</title>
						<rect x="0" y="64.125" width="9.75" height="6.75" class="st2"/>
					</g>
					<g id="shape34-17" v:mID="34" v:groupContext="shape" v:layerMember="0" transform="translate(23.25,-1.5)">
						<title>Sheet.34</title>
						<rect x="0" y="67.125" width="10.5" height="3.75" class="st2"/>
					</g>
					<g id="shape35-19" v:mID="35" v:groupContext="shape" v:layerMember="0" transform="translate(1.68865E-13,-1.5)">
						<title>Sheet.35</title>
						<rect x="0" y="67.125" width="10.5" height="3.75" class="st2"/>
					</g>
				</g>
			</g>
		</g>
	</g>
</svg>
