<?xml version="1.0" encoding="UTF-8" standalone="no"?>
<!DOCTYPE svg PUBLIC "-//W3C//DTD SVG 1.1//EN" "http://www.w3.org/Graphics/SVG/1.1/DTD/svg11.dtd">
<!-- Generated by Microsoft Visio, SVG Export Call Admission Control Service.svg Page-1 -->
<svg xmlns="http://www.w3.org/2000/svg" xmlns:xlink="http://www.w3.org/1999/xlink" xmlns:ev="http://www.w3.org/2001/xml-events"
		xmlns:v="http://schemas.microsoft.com/visio/2003/SVGExtensions/" width="0.967969in" height="1.0625in"
		viewBox="0 0 69.6937 76.5" xml:space="preserve" color-interpolation-filters="sRGB" class="st5">
	<v:documentProperties v:langID="4108" v:metric="true" v:viewMarkup="false"/>

	<style type="text/css">
	<![CDATA[
		.st1 {fill:#ffffff;stroke:none;stroke-linecap:butt;stroke-width:0.75}
		.st2 {fill:#515251;stroke:none;stroke-linecap:butt;stroke-width:0.75}
		.st3 {fill:#525352;stroke:none;stroke-linecap:butt;stroke-width:0.75}
		.st4 {fill:#515150;stroke:none;stroke-linecap:butt;stroke-width:0.75}
		.st5 {fill:none;fill-rule:evenodd;font-size:12px;overflow:visible;stroke-linecap:square;stroke-miterlimit:3}
	]]>
	</style>

	<g v:mID="0" v:index="1" v:groupContext="foregroundPage">
		<title>Page-1</title>
		<v:pageProperties v:drawingScale="0.0393701" v:pageScale="0.0393701" v:drawingUnits="24" v:shadowOffsetX="8.50394"
				v:shadowOffsetY="-8.50394"/>
		<v:layer v:name="symbols" v:index="0"/>
		<g id="group36-1" transform="translate(9.20625,-5.8125)" v:mID="36" v:groupContext="group" v:layerMember="0">
			<title>Call Admission Control Service</title>
			<g id="group37-2" v:mID="37" v:groupContext="group" v:layerMember="0">
				<title>Sheet.37</title>
				<g id="group38-3" transform="translate(-2.65787E-13,-3)" v:mID="38" v:groupContext="group" v:layerMember="0">
					<title>Sheet.38</title>
					<g id="shape39-4" v:mID="39" v:groupContext="shape" v:layerMember="0">
						<title>Sheet.39</title>
						<path d="M0 76.5 L0 24.75 C0 21.83 2.33 19.5 5.25 19.5 L26.25 19.5 C29.18 19.5 31.5 21.83 31.5 24.75 L31.5
									 76.5 L0 76.5 Z" class="st1"/>
					</g>
					<g id="shape40-6" v:mID="40" v:groupContext="shape" v:layerMember="0" transform="translate(2.25,-2.25)">
						<title>Sheet.40</title>
						<path d="M24 24 L3 24 C1.35 24 0 25.35 0 27 L0 76.5 L27 76.5 L27 27 C27 25.35 25.65 24 24 24 ZM21.75 70.5
									 L5.25 70.5 L5.25 68.25 L21.75 68.25 L21.75 70.5 ZM21.75 63.75 L5.25 63.75 L5.25 61.5 L21.75
									 61.5 L21.75 63.75 ZM21.75 33 L5.25 33 L5.25 30.75 L21.75 30.75 L21.75 33 Z" class="st2"/>
					</g>
				</g>
				<g id="group41-8" transform="translate(20.325,1.42109E-14)" v:mID="41" v:groupContext="group" v:layerMember="0">
					<title>Sheet.41</title>
					<g id="shape42-9" v:mID="42" v:groupContext="shape" v:layerMember="0">
						<title>Sheet.42</title>
						<path d="M20.85 76.5 C19.65 76.5 18.53 75.75 18.08 74.63 L17.4 73.05 C17.25 73.05 17.02 73.05 16.8 73.05
									 C16.57 73.05 16.35 73.05 16.12 73.05 L15.45 74.63 C15.08 75.75 13.95 76.5 12.75 76.5 C12.38
									 76.5 11.93 76.43 11.63 76.28 L8.77 75.08 C8.03 74.78 7.42 74.18 7.12 73.43 C6.83 72.68 6.83
									 71.85 7.12 71.1 L7.8 69.53 L6.97 68.7 L5.4 69.38 C5.03 69.53 4.65 69.6 4.28 69.6 C3.08 69.6
									 1.95 68.85 1.5 67.73 L0.3 64.88 C-0 64.13 -0 63.3 0.3 62.55 C0.6 61.8 1.2 61.2 1.95 60.9 L3.52
									 60.23 L3.52 59.03 L1.95 58.35 C1.2 58.05 0.6 57.45 0.3 56.7 C-0 55.95 -0 55.13 0.3 54.38 L1.5
									 51.53 C1.95 50.4 3.08 49.65 4.28 49.65 C4.65 49.65 5.03 49.73 5.4 49.88 L6.97 50.55 L7.8 49.73
									 L7.12 48.15 C6.83 47.4 6.83 46.58 7.12 45.83 C7.42 45.08 8.03 44.48 8.77 44.18 L11.63 42.98
									 C12 42.83 12.38 42.75 12.75 42.75 C13.95 42.75 15.08 43.5 15.53 44.63 L16.12 46.13 C16.28 46.13
									 16.5 46.13 16.73 46.13 C16.95 46.13 17.18 46.13 17.4 46.13 L18 44.55 C18.45 43.43 19.57 42.68
									 20.78 42.68 C21.15 42.68 21.53 42.75 21.9 42.9 L24.75 44.1 C25.5 44.4 26.1 45 26.4 45.75 C26.7
									 46.5 26.7 47.33 26.4 48.08 L25.72 49.65 L26.55 50.48 L28.13 49.8 C28.5 49.65 28.88 49.58 29.25
									 49.58 C30.45 49.58 31.58 50.33 32.03 51.45 L33.23 54.3 C33.52 55.05 33.52 55.88 33.23 56.63
									 C32.93 57.38 32.33 57.98 31.58 58.28 L30 58.95 L30 60.15 L31.58 60.83 C33.15 61.5 33.83 63.23
									 33.23 64.8 L32.03 67.65 C31.58 68.78 30.45 69.53 29.25 69.53 C28.88 69.53 28.43 69.45 28.05
									 69.3 L26.48 68.63 L25.65 69.45 L26.33 71.03 C26.62 71.78 26.62 72.6 26.33 73.35 C26.03 74.1
									 25.43 74.7 24.68 75 L21.82 76.2 C21.68 76.43 21.23 76.5 20.85 76.5 ZM16.8 54.15 C13.8 54.15
									 11.32 56.63 11.32 59.63 C11.32 62.63 13.8 65.1 16.8 65.1 C19.8 65.1 22.27 62.63 22.27 59.63
									 C22.27 56.63 19.8 54.15 16.8 54.15 Z" class="st1"/>
					</g>
					<g id="shape43-11" v:mID="43" v:groupContext="shape" v:layerMember="0" transform="translate(2.025,-2.1)">
						<title>Sheet.43</title>
						<path d="M28.95 65.1 L26.55 64.13 C26.18 63.98 25.88 63.75 25.88 63.68 C25.88 63.6 25.95 63.15 25.95 62.78
									 L25.95 60.83 C25.95 60.38 25.88 60 25.88 59.93 C25.88 59.85 26.18 59.63 26.55 59.48 L28.95 58.5
									 C29.32 58.35 29.55 57.9 29.4 57.45 L28.2 54.6 C28.05 54.23 27.6 54 27.15 54.15 L24.75 55.13
									 C24.37 55.28 24 55.35 23.92 55.28 C23.85 55.2 23.62 54.9 23.32 54.53 L21.9 53.18 C21.6 52.88
									 21.23 52.65 21.23 52.58 C21.15 52.5 21.23 52.2 21.38 51.75 L22.35 49.35 C22.5 48.98 22.35 48.53
									 21.9 48.3 L19.05 47.1 C18.67 46.95 18.22 47.1 18 47.55 L17.03 49.95 C16.88 50.33 16.65 50.63
									 16.58 50.63 C16.5 50.63 16.05 50.55 15.68 50.48 C15.68 50.48 15.3 50.4 14.7 50.4 C14.1 50.4
									 13.72 50.48 13.72 50.48 C13.27 50.55 12.9 50.55 12.82 50.63 C12.75 50.63 12.52 50.33 12.38 49.95
									 L11.4 47.55 C11.25 47.18 10.8 46.95 10.35 47.1 L7.5 48.3 C7.13 48.45 6.9 48.9 7.05 49.35 L8.02
									 51.75 C8.17 52.13 8.25 52.5 8.17 52.58 C8.1 52.65 7.8 52.88 7.5 53.18 L6.08 54.6 C5.78 54.9
									 5.55 55.28 5.48 55.35 C5.4 55.43 5.1 55.35 4.65 55.2 L2.4 54.08 C2.03 53.93 1.58 54.08 1.35
									 54.53 L0.15 57.38 C-0 57.75 0.15 58.2 0.6 58.43 L3 59.4 C3.37 59.55 3.67 59.78 3.67 59.85 C3.67
									 59.93 3.6 60.38 3.6 60.75 L3.6 62.7 C3.6 63.15 3.67 63.53 3.67 63.6 C3.67 63.68 3.37 63.9 3
									 64.05 L0.6 65.1 C0.23 65.25 0 65.7 0.15 66.15 L1.35 69 C1.5 69.38 1.95 69.6 2.4 69.45 L4.8 68.48
									 C5.18 68.33 5.55 68.25 5.63 68.33 C5.7 68.4 5.93 68.7 6.23 69.08 L7.65 70.43 C7.95 70.73 8.32
									 70.95 8.4 71.03 C8.47 71.1 8.4 71.48 8.25 71.85 L7.13 74.1 C6.98 74.48 7.13 74.93 7.57 75.15
									 L10.43 76.35 C10.8 76.5 11.25 76.35 11.48 75.9 L12.45 73.5 C12.6 73.13 12.82 72.83 12.9 72.83
									 C12.97 72.83 13.42 72.9 13.8 72.98 C13.8 72.98 14.17 73.05 14.78 73.05 C15.38 73.05 15.75 72.98
									 15.75 72.98 C16.2 72.9 16.58 72.9 16.65 72.83 C16.73 72.83 16.95 73.13 17.1 73.5 L18.07 75.9
									 C18.22 76.28 18.67 76.5 19.12 76.35 L21.98 75.15 C22.35 75 22.57 74.55 22.42 74.1 L21.45 71.7
									 C21.3 71.33 21.23 70.95 21.3 70.88 C21.38 70.8 21.68 70.58 22.05 70.28 L23.47 68.85 C23.77 68.55
									 24 68.18 24.07 68.1 C24.15 68.03 24.45 68.1 24.9 68.25 L27.3 69.23 C27.67 69.38 28.12 69.23
									 28.35 68.78 L29.55 65.93 C29.48 65.7 29.33 65.25 28.95 65.1 ZM14.78 69.45 C10.5 69.45 7.05 66
									 7.05 61.73 C7.05 57.45 10.5 54 14.78 54 C19.05 54 22.5 57.45 22.5 61.73 C22.5 66 19.05 69.45
									 14.78 69.45 Z" class="st3"/>
					</g>
				</g>
				<g id="group44-13" transform="translate(19.5,-33.75)" v:mID="44" v:groupContext="group" v:layerMember="0">
					<title>Sheet.44</title>
					<g id="group45-14" v:mID="45" v:groupContext="group" v:layerMember="0">
						<title>Sheet.45</title>
						<g id="shape46-15" v:mID="46" v:groupContext="shape" v:layerMember="0">
							<title>Sheet.46</title>
							<rect x="0" y="46.5" width="34.5" height="30" class="st1"/>
						</g>
						<g id="group47-17" transform="translate(2.25,-2.25)" v:mID="47" v:groupContext="group" v:layerMember="0">
							<title>Sheet.47</title>
							<g id="shape48-18" v:mID="48" v:groupContext="shape" v:layerMember="0">
								<title>Sheet.48</title>
								<rect x="0" y="51" width="30" height="25.5" class="st1"/>
							</g>
							<g id="shape49-20" v:mID="49" v:groupContext="shape" v:layerMember="0">
								<title>Sheet.49</title>
								<path d="M28.5 52.5 L28.5 75 L1.5 75 L1.5 52.5 L28.5 52.5 ZM30 51 L0 51 L0 76.5 L30 76.5 L30 51 Z"
										class="st2"/>
							</g>
						</g>
					</g>
					<g id="shape50-22" v:mID="50" v:groupContext="shape" v:layerMember="0" transform="translate(9,-6.75)">
						<title>Sheet.50</title>
						<path d="M13.88 64.8 L13.88 71.1 L16.5 68.48 L16.35 60.23 L8.03 60 L5.4 62.63 L11.7 62.63 L2.63 71.7 L2.63
									 65.4 L0 68.03 L0.15 76.28 L8.48 76.5 L11.1 73.88 L4.8 73.88 L13.88 64.8 Z" class="st4"/>
					</g>
				</g>
			</g>
		</g>
	</g>
</svg>
