<?xml version="1.0" encoding="UTF-8" standalone="no"?>
<!DOCTYPE svg PUBLIC "-//W3C//DTD SVG 1.1//EN" "http://www.w3.org/Graphics/SVG/1.1/DTD/svg11.dtd">
<!-- Generated by Microsoft Visio, SVG Export Central Management Service.svg Page-1 -->
<svg xmlns="http://www.w3.org/2000/svg" xmlns:xlink="http://www.w3.org/1999/xlink" xmlns:ev="http://www.w3.org/2001/xml-events"
		xmlns:v="http://schemas.microsoft.com/visio/2003/SVGExtensions/" width="0.933594in" height="0.984375in"
		viewBox="0 0 67.2187 70.875" xml:space="preserve" color-interpolation-filters="sRGB" class="st3">
	<v:documentProperties v:langID="4108" v:metric="true" v:viewMarkup="false"/>

	<style type="text/css">
	<![CDATA[
		.st1 {fill:#ffffff;stroke:none;stroke-linecap:butt;stroke-width:0.75}
		.st2 {fill:#515150;stroke:none;stroke-linecap:butt;stroke-width:0.75}
		.st3 {fill:none;fill-rule:evenodd;font-size:12px;overflow:visible;stroke-linecap:square;stroke-miterlimit:3}
	]]>
	</style>

	<g v:mID="0" v:index="1" v:groupContext="foregroundPage">
		<title>Page-1</title>
		<v:pageProperties v:drawingScale="0.0393701" v:pageScale="0.0393701" v:drawingUnits="24" v:shadowOffsetX="8.50394"
				v:shadowOffsetY="-8.50394"/>
		<v:layer v:name="symbols" v:index="0"/>
		<g id="group51-1" transform="translate(8.60625,-4.95)" v:mID="51" v:groupContext="group" v:layerMember="0">
			<title>Central Management Service</title>
			<g id="group52-2" v:mID="52" v:groupContext="group" v:layerMember="0">
				<title>Sheet.52</title>
				<g id="group53-3" transform="translate(2.71783E-13,-5.475)" v:mID="53" v:groupContext="group" v:layerMember="0">
					<title>Sheet.53</title>
					<g id="shape54-4" v:mID="54" v:groupContext="shape" v:layerMember="0">
						<title>Sheet.54</title>
						<path d="M39.75 27 L39.75 60.38 L39.75 62.03 L39.75 62.1 C39.07 69.75 27 70.88 19.87 70.88 C12.75 70.88 0.68
									 69.75 0 62.1 L0 62.03 L0 60.45 L0 27 L0 25.5 C-0 20.1 9.98 17.63 19.87 17.63 C29.77 17.63 39.75
									 20.1 39.75 25.5 L39.75 27 Z" class="st1"/>
					</g>
					<g id="shape55-6" v:mID="55" v:groupContext="shape" v:layerMember="0" transform="translate(2.25,-2.25)">
						<title>Sheet.55</title>
						<path d="M17.62 35.63 C10.57 35.63 3.52 34.43 0 31.73 L0 62.63 L0 64.13 C0.53 70.35 13.2 70.88 17.62 70.88
									 C22.05 70.88 34.65 70.35 35.25 64.13 L35.25 62.63 L35.25 31.73 C31.72 34.43 24.67 35.63 17.62
									 35.63 Z" class="st2"/>
					</g>
					<g id="shape56-8" v:mID="56" v:groupContext="shape" v:layerMember="0" transform="translate(2.25,-39.75)">
						<title>Sheet.56</title>
						<ellipse cx="17.625" cy="65.25" rx="17.625" ry="5.625" class="st2"/>
					</g>
				</g>
				<g id="group57-10" transform="translate(21.825,-2.84217E-13)" v:mID="57" v:groupContext="group" v:layerMember="0">
					<title>Sheet.57</title>
					<g id="shape58-11" v:mID="58" v:groupContext="shape" v:layerMember="0">
						<title>Sheet.58</title>
						<path d="M20.85 70.88 C19.65 70.88 18.53 70.13 18.08 69 L17.4 67.43 C17.25 67.43 17.03 67.43 16.8 67.43 C16.58
									 67.43 16.35 67.43 16.13 67.43 L15.45 69 C15.08 70.13 13.95 70.88 12.75 70.88 C12.38 70.88 11.93
									 70.8 11.63 70.65 L8.77 69.45 C8.03 69.15 7.43 68.55 7.12 67.8 C6.83 67.05 6.83 66.23 7.12 65.48
									 L7.8 63.9 L6.98 63.08 L5.4 63.75 C5.03 63.9 4.65 63.98 4.28 63.98 C3.08 63.98 1.95 63.23 1.5
									 62.1 L0.3 59.25 C-0 58.5 0 57.68 0.3 56.93 C0.6 56.18 1.2 55.58 1.95 55.28 L3.52 54.6 L3.52
									 53.4 L1.95 52.73 C1.2 52.43 0.6 51.83 0.3 51.08 C-0 50.33 0 49.5 0.3 48.75 L1.5 45.9 C1.95 44.78
									 3.08 44.03 4.28 44.03 C4.65 44.03 5.03 44.1 5.4 44.25 L6.98 44.93 L7.8 44.1 L7.12 42.53 C6.83
									 41.78 6.83 40.95 7.12 40.2 C7.42 39.45 8.03 38.85 8.77 38.55 L11.63 37.35 C12 37.2 12.38 37.13
									 12.75 37.13 C13.95 37.13 15.08 37.88 15.53 39 L16.13 40.5 C16.28 40.5 16.5 40.5 16.73 40.5 C16.95
									 40.5 17.18 40.5 17.4 40.5 L18 38.93 C18.45 37.8 19.58 37.05 20.78 37.05 C21.15 37.05 21.53 37.13
									 21.9 37.28 L24.75 38.48 C25.5 38.78 26.1 39.38 26.4 40.13 C26.7 40.88 26.7 41.7 26.4 42.45 L25.73
									 44.03 L26.55 44.85 L28.13 44.18 C28.5 44.03 28.88 43.95 29.25 43.95 C30.45 43.95 31.58 44.7
									 32.03 45.83 L33.23 48.68 C33.53 49.43 33.53 50.25 33.23 51 C32.93 51.75 32.33 52.35 31.58 52.65
									 L30 53.33 L30 54.53 L31.58 55.2 C33.15 55.88 33.83 57.6 33.23 59.18 L32.03 62.03 C31.58 63.15
									 30.45 63.9 29.25 63.9 C28.88 63.9 28.43 63.83 28.05 63.68 L26.48 63 L25.65 63.83 L26.33 65.4
									 C26.62 66.15 26.63 66.98 26.33 67.73 C26.03 68.48 25.43 69.08 24.68 69.38 L21.82 70.58 C21.68
									 70.8 21.23 70.88 20.85 70.88 Z" class="st1"/>
					</g>
					<g id="shape59-13" v:mID="59" v:groupContext="shape" v:layerMember="0" transform="translate(2.025,-2.1)">
						<title>Sheet.59</title>
						<path d="M28.95 59.48 L26.55 58.5 C26.18 58.35 25.88 58.13 25.88 58.05 C25.88 57.98 25.95 57.53 25.95 57.15
									 L25.95 55.2 C25.95 54.75 25.88 54.38 25.88 54.3 C25.88 54.23 26.18 54 26.55 53.85 L28.95 52.88
									 C29.33 52.73 29.55 52.28 29.4 51.83 L28.2 48.98 C28.05 48.6 27.6 48.38 27.15 48.53 L24.75 49.5
									 C24.38 49.65 24 49.73 23.93 49.65 C23.85 49.58 23.63 49.28 23.33 48.9 L21.9 47.55 C21.6 47.25
									 21.23 47.03 21.23 46.95 C21.15 46.88 21.23 46.58 21.38 46.13 L22.35 43.73 C22.5 43.35 22.35
									 42.9 21.9 42.68 L19.05 41.48 C18.68 41.33 18.22 41.48 18 41.93 L17.03 44.33 C16.88 44.7 16.65
									 45 16.58 45 C16.5 45 16.05 44.93 15.68 44.85 C15.68 44.85 15.3 44.78 14.7 44.78 C14.1 44.78
									 13.72 44.85 13.72 44.85 C13.27 44.93 12.9 44.93 12.82 45 C12.75 45 12.52 44.7 12.37 44.33 L11.4
									 41.93 C11.25 41.55 10.8 41.33 10.35 41.48 L7.5 42.68 C7.13 42.83 6.9 43.28 7.05 43.73 L8.02
									 46.13 C8.17 46.5 8.25 46.88 8.17 46.95 C8.1 47.03 7.8 47.25 7.5 47.55 L6.08 48.98 C5.78 49.28
									 5.55 49.65 5.48 49.73 C5.4 49.8 5.1 49.73 4.65 49.58 L2.4 48.45 C2.03 48.3 1.58 48.45 1.35 48.9
									 L0.15 51.75 C0 52.13 0.15 52.58 0.6 52.8 L3 53.78 C3.37 53.93 3.67 54.15 3.67 54.23 C3.67 54.3
									 3.6 54.75 3.6 55.13 L3.6 57.08 C3.6 57.53 3.67 57.9 3.67 57.98 C3.67 58.05 3.37 58.28 3 58.43
									 L0.6 59.48 C0.23 59.63 0 60.08 0.15 60.53 L1.35 63.38 C1.5 63.75 1.95 63.98 2.4 63.83 L4.8 62.85
									 C5.18 62.7 5.55 62.63 5.63 62.7 C5.7 62.78 5.93 63.08 6.23 63.45 L7.65 64.8 C7.95 65.1 8.32
									 65.33 8.4 65.4 C8.47 65.48 8.4 65.85 8.25 66.23 L7.13 68.48 C6.98 68.85 7.13 69.3 7.57 69.53
									 L10.43 70.73 C10.8 70.88 11.25 70.73 11.48 70.28 L12.45 67.88 C12.6 67.5 12.82 67.2 12.9 67.2
									 C12.97 67.2 13.42 67.28 13.8 67.35 C13.8 67.35 14.18 67.43 14.78 67.43 C15.38 67.43 15.75 67.35
									 15.75 67.35 C16.2 67.28 16.58 67.28 16.65 67.2 C16.73 67.2 16.95 67.5 17.1 67.88 L18.07 70.28
									 C18.22 70.65 18.68 70.88 19.13 70.73 L21.98 69.53 C22.35 69.38 22.57 68.93 22.42 68.48 L21.45
									 66.08 C21.3 65.7 21.23 65.33 21.3 65.25 C21.38 65.18 21.68 64.95 22.05 64.65 L23.48 63.23 C23.78
									 62.93 24 62.55 24.08 62.48 C24.15 62.4 24.45 62.48 24.9 62.63 L27.3 63.6 C27.67 63.75 28.13
									 63.6 28.35 63.15 L29.55 60.3 C29.48 60.08 29.33 59.63 28.95 59.48 ZM14.78 63.83 C10.5 63.83
									 7.05 60.38 7.05 56.1 C7.05 51.83 10.5 48.38 14.78 48.38 C19.05 48.38 22.5 51.83 22.5 56.1 C22.5
									 60.38 19.05 63.83 14.78 63.83 Z" class="st2"/>
					</g>
				</g>
			</g>
		</g>
	</g>
</svg>
