<?xml version="1.0" encoding="UTF-8" standalone="no"?>
<!DOCTYPE svg PUBLIC "-//W3C//DTD SVG 1.1//EN" "http://www.w3.org/Graphics/SVG/1.1/DTD/svg11.dtd">
<!-- Generated by Microsoft Visio, SVG Export Conference Announcement Service.svg Page-1 -->
<svg xmlns="http://www.w3.org/2000/svg" xmlns:xlink="http://www.w3.org/1999/xlink" xmlns:ev="http://www.w3.org/2001/xml-events"
		xmlns:v="http://schemas.microsoft.com/visio/2003/SVGExtensions/" width="1.03125in" height="1in" viewBox="0 0 74.25 72"
		xml:space="preserve" color-interpolation-filters="sRGB" class="st4">
	<v:documentProperties v:langID="4108" v:metric="true" v:viewMarkup="false"/>

	<style type="text/css">
	<![CDATA[
		.st1 {fill:#ffffff;stroke:none;stroke-linecap:butt;stroke-width:0.75}
		.st2 {fill:#515150;stroke:none;stroke-linecap:butt;stroke-width:0.75}
		.st3 {fill:#515251;stroke:none;stroke-linecap:butt;stroke-width:0.75}
		.st4 {fill:none;fill-rule:evenodd;font-size:12px;overflow:visible;stroke-linecap:square;stroke-miterlimit:3}
	]]>
	</style>

	<g v:mID="0" v:index="1" v:groupContext="foregroundPage">
		<title>Page-1</title>
		<v:pageProperties v:drawingScale="0.0393701" v:pageScale="0.0393701" v:drawingUnits="24" v:shadowOffsetX="8.50394"
				v:shadowOffsetY="-8.50394"/>
		<v:layer v:name="symbols" v:index="0"/>
		<g id="group60-1" transform="translate(8.4375,-1.3125)" v:mID="60" v:groupContext="group" v:layerMember="0">
			<title>Conference Announcement Service</title>
			<g id="group61-2" transform="translate(0,-16.5)" v:mID="61" v:groupContext="group" v:layerMember="0">
				<title>Layer_2_7_</title>
				<g id="group62-3" v:mID="62" v:groupContext="group" v:layerMember="0">
					<title>Sheet.62</title>
					<g id="shape63-4" v:mID="63" v:groupContext="shape" v:layerMember="0">
						<title>Sheet.63</title>
						<rect x="0" y="24.75" width="57" height="47.25" class="st1"/>
					</g>
					<g id="shape64-6" v:mID="64" v:groupContext="shape" v:layerMember="0" transform="translate(2.25,-2.25)">
						<title>Sheet.64</title>
						<rect x="0" y="29.25" width="52.5" height="42.75" class="st2"/>
					</g>
				</g>
				<g id="shape65-8" v:mID="65" v:groupContext="shape" v:layerMember="0" transform="translate(4.5,-4.5)">
					<title>Sheet.65</title>
					<rect x="0" y="33.75" width="48" height="38.25" class="st1"/>
				</g>
			</g>
			<g id="group66-10" transform="translate(30.075,1.42109E-14)" v:mID="66" v:groupContext="group" v:layerMember="0">
				<title>Sheet.66</title>
				<g id="shape67-11" v:mID="67" v:groupContext="shape" v:layerMember="0">
					<title>Sheet.67</title>
					<path d="M20.85 72 C19.65 72 18.52 71.25 18.07 70.13 L17.4 68.55 C17.25 68.55 17.02 68.55 16.8 68.55 C16.57 68.55
								 16.35 68.55 16.12 68.55 L15.45 70.13 C15.07 71.25 13.95 72 12.75 72 C12.38 72 11.93 71.93 11.62
								 71.78 L8.77 70.58 C8.03 70.28 7.42 69.68 7.12 68.93 C6.83 68.18 6.83 67.35 7.12 66.6 L7.8 65.03
								 L6.97 64.2 L5.4 64.88 C5.03 65.03 4.65 65.1 4.28 65.1 C3.07 65.1 1.95 64.35 1.5 63.23 L0.3 60.38
								 C-0 59.63 0 58.8 0.3 58.05 C0.6 57.3 1.2 56.7 1.95 56.4 L3.52 55.73 L3.52 54.53 L1.95 53.85 C1.2
								 53.55 0.6 52.95 0.3 52.2 C-0 51.45 0 50.63 0.3 49.88 L1.5 47.03 C1.95 45.9 3.07 45.15 4.28 45.15
								 C4.65 45.15 5.03 45.23 5.4 45.38 L6.97 46.05 L7.8 45.23 L7.12 43.65 C6.83 42.9 6.83 42.08 7.12 41.33
								 C7.42 40.58 8.03 39.98 8.77 39.68 L11.62 38.48 C12 38.33 12.38 38.25 12.75 38.25 C13.95 38.25 15.07
								 39 15.52 40.13 L16.12 41.63 C16.27 41.63 16.5 41.63 16.72 41.63 C16.95 41.63 17.17 41.63 17.4 41.63
								 L18 40.05 C18.45 38.93 19.57 38.18 20.77 38.18 C21.15 38.18 21.52 38.25 21.9 38.4 L24.75 39.6 C25.5
								 39.9 26.1 40.5 26.4 41.25 C26.7 42 26.7 42.83 26.4 43.58 L25.72 45.15 L26.55 45.98 L28.12 45.3 C28.5
								 45.15 28.87 45.08 29.25 45.08 C30.45 45.08 31.57 45.83 32.02 46.95 L33.22 49.8 C33.52 50.55 33.52
								 51.38 33.22 52.13 C32.92 52.88 32.32 53.48 31.57 53.78 L30 54.45 L30 55.65 L31.57 56.33 C33.15 57
								 33.82 58.73 33.22 60.3 L32.02 63.15 C31.57 64.28 30.45 65.03 29.25 65.03 C28.87 65.03 28.42 64.95
								 28.05 64.8 L26.47 64.13 L25.65 64.95 L26.32 66.53 C26.62 67.28 26.62 68.1 26.32 68.85 C26.02 69.6
								 25.42 70.2 24.67 70.5 L21.82 71.7 C21.67 71.93 21.22 72 20.85 72 Z" class="st1"/>
				</g>
				<g id="shape68-13" v:mID="68" v:groupContext="shape" v:layerMember="0" transform="translate(2.025,-2.1)">
					<title>Sheet.68</title>
					<path d="M28.95 60.6 L26.55 59.63 C26.17 59.48 25.87 59.25 25.87 59.18 C25.87 59.1 25.95 58.65 25.95 58.28 L25.95
								 56.33 C25.95 55.88 25.87 55.5 25.87 55.43 C25.87 55.35 26.17 55.13 26.55 54.98 L28.95 54 C29.32
								 53.85 29.55 53.4 29.4 52.95 L28.2 50.1 C28.05 49.73 27.6 49.5 27.15 49.65 L24.75 50.63 C24.37 50.78
								 24 50.85 23.92 50.78 C23.85 50.7 23.62 50.4 23.32 50.03 L21.9 48.68 C21.6 48.38 21.22 48.15 21.22
								 48.08 C21.15 48 21.22 47.7 21.37 47.25 L22.35 44.85 C22.5 44.48 22.35 44.03 21.9 43.8 L19.05 42.6
								 C18.67 42.45 18.22 42.6 18 43.05 L17.02 45.45 C16.87 45.83 16.65 46.13 16.57 46.13 C16.5 46.13 16.05
								 46.05 15.67 45.98 C15.67 45.98 15.3 45.9 14.7 45.9 C14.1 45.9 13.72 45.98 13.72 45.98 C13.27 46.05
								 12.9 46.05 12.82 46.13 C12.75 46.13 12.52 45.83 12.37 45.45 L11.4 43.05 C11.25 42.68 10.8 42.45
								 10.35 42.6 L7.5 43.8 C7.13 43.95 6.9 44.4 7.05 44.85 L8.02 47.25 C8.17 47.63 8.25 48 8.17 48.08
								 C8.1 48.15 7.8 48.38 7.5 48.68 L6.08 50.1 C5.77 50.4 5.55 50.78 5.47 50.85 C5.4 50.93 5.1 50.85
								 4.65 50.7 L2.4 49.58 C2.02 49.43 1.57 49.58 1.35 50.03 L0.15 52.88 C0 53.25 0.15 53.7 0.6 53.93
								 L3 54.9 C3.37 55.05 3.67 55.28 3.67 55.35 C3.67 55.43 3.6 55.88 3.6 56.25 L3.6 58.2 C3.6 58.65 3.67
								 59.03 3.67 59.1 C3.67 59.18 3.37 59.4 3 59.55 L0.6 60.6 C0.23 60.75 0 61.2 0.15 61.65 L1.35 64.5
								 C1.5 64.88 1.95 65.1 2.4 64.95 L4.8 63.98 C5.17 63.83 5.55 63.75 5.62 63.83 C5.7 63.9 5.92 64.2
								 6.23 64.58 L7.65 65.93 C7.95 66.23 8.32 66.45 8.4 66.53 C8.47 66.6 8.4 66.98 8.25 67.35 L7.13 69.6
								 C6.98 69.98 7.13 70.43 7.57 70.65 L10.42 71.85 C10.8 72 11.25 71.85 11.47 71.4 L12.45 69 C12.6 68.63
								 12.82 68.33 12.9 68.33 C12.97 68.33 13.42 68.4 13.8 68.48 C13.8 68.48 14.17 68.55 14.77 68.55 C15.37
								 68.55 15.75 68.48 15.75 68.48 C16.2 68.4 16.57 68.4 16.65 68.33 C16.72 68.33 16.95 68.63 17.1 69
								 L18.07 71.4 C18.22 71.78 18.67 72 19.12 71.85 L21.97 70.65 C22.35 70.5 22.57 70.05 22.42 69.6 L21.45
								 67.2 C21.3 66.83 21.22 66.45 21.3 66.38 C21.37 66.3 21.67 66.08 22.05 65.78 L23.47 64.35 C23.77
								 64.05 24 63.68 24.07 63.6 C24.15 63.53 24.45 63.6 24.9 63.75 L27.3 64.73 C27.67 64.88 28.12 64.73
								 28.35 64.28 L29.55 61.43 C29.47 61.2 29.32 60.75 28.95 60.6 ZM14.77 64.95 C10.5 64.95 7.05 61.5
								 7.05 57.23 C7.05 52.95 10.5 49.5 14.77 49.5 C19.05 49.5 22.5 52.95 22.5 57.23 C22.5 61.5 19.05 64.95
								 14.77 64.95 Z" class="st3"/>
				</g>
			</g>
			<g id="group69-15" transform="translate(9.525,-28.2)" v:mID="69" v:groupContext="group" v:layerMember="0">
				<title>Sheet.69</title>
				<g id="shape70-16" v:mID="70" v:groupContext="shape" v:layerMember="0" transform="translate(3.15,-4.425)">
					<title>Sheet.70</title>
					<path d="M10.42 55.13 C8.77 55.13 2.32 55.13 2.32 55.13 C1.05 55.2 0 56.18 0 57.45 L0 63.9 C0 65.25 1.05 66.23
								 2.32 66.23 C2.32 66.23 8.7 66.23 10.42 66.23 C12.67 66.23 19.95 66.68 24.37 71.55 C24.75 72 25.5
								 71.48 25.5 70.88 L25.5 49.95 C25.5 49.35 24.67 48.9 24.3 49.35 C19.8 54.15 12.75 55.13 10.42 55.13
								 Z" class="st3"/>
				</g>
				<g id="shape71-18" v:mID="71" v:groupContext="shape" v:layerMember="0" transform="translate(0,-11.775)">
					<title>Sheet.71</title>
					<path d="M3 72 L4.87 72 C6.52 72 7.87 70.28 7.87 68.1 L7.87 68.03 C7.87 65.78 6.52 64.13 4.87 64.13 L3 64.13
								 C1.35 64.13 0 65.85 0 68.03 L0 68.1 C-0 70.28 1.35 72 3 72 Z" class="st3"/>
				</g>
				<g id="shape72-20" v:mID="72" v:groupContext="shape" v:layerMember="0" transform="translate(5.55,1.42109E-14)">
					<title>Sheet.72</title>
					<path d="M1.05 63.68 C1.2 64.2 2.32 66.9 2.55 67.73 C2.85 68.78 3.45 70.2 3.45 70.73 C3.45 71.25 3.6 72 3.97
								 72 C4.8 72 6.97 70.5 7.05 70.2 C7.2 69.53 6.15 69.38 6.22 68.85 C6.37 67.43 5.7 65.63 5.55 65.03
								 C5.47 64.88 5.55 64.73 5.77 64.65 C6 64.58 6.37 64.5 6.45 64.2 C6.67 63.6 6.15 62.93 6.07 62.55
								 C6 62.18 6.75 61.95 6.97 61.88 C7.72 61.8 8.55 61.73 9.37 61.73 C9.6 61.73 8.32 61.2 8.32 61.2 L5.77
								 60.75 L0.9 60.75 C0.9 60.75 0.6 59.7 0.3 60.15 C-0 60.75 0.15 61.73 0.15 61.73 L1.05 63.68 Z"
							class="st3"/>
				</g>
				<g id="group73-22" transform="translate(22.95,-8.175)" v:mID="73" v:groupContext="group" v:layerMember="0">
					<title>Sheet.73</title>
					<g id="shape74-23" v:mID="74" v:groupContext="shape" v:layerMember="0" transform="translate(-4.996E-16,-4.875)">
						<title>Sheet.74</title>
						<path d="M0 69 C0 70.2 0.6 71.33 1.58 72 L6 72 C6.9 71.33 7.58 70.28 7.58 69 C7.57 67.58 6.82 66.45 5.62
									 65.78 L2.7 65.48 C1.13 66 0 67.35 0 69 Z" class="st3"/>
					</g>
					<g id="shape75-25" v:mID="75" v:groupContext="shape" v:layerMember="0" transform="translate(8.175,-2.85)">
						<title>Sheet.75</title>
						<path d="M0.9 61.73 L0 63 C0.98 64.05 1.58 65.48 1.57 66.98 C1.58 68.48 1.05 69.83 0.15 70.88 L1.13 72 C2.33
									 70.65 3.08 68.93 3.08 66.98 C3.08 64.95 2.25 63.08 0.9 61.73 Z" class="st3"/>
					</g>
					<g id="shape76-27" v:mID="76" v:groupContext="shape" v:layerMember="0" transform="translate(10.35,1.42109E-14)">
						<title>Sheet.76</title>
						<path d="M0.9 55.8 L0 57 C1.95 58.8 3.15 61.28 3.15 64.13 C3.15 66.75 2.1 69.08 0.45 70.88 L1.43 72 C3.45
									 69.98 4.65 67.2 4.65 64.13 C4.65 60.83 3.22 57.83 0.9 55.8 Z" class="st3"/>
					</g>
				</g>
			</g>
		</g>
	</g>
</svg>
