<?xml version="1.0" encoding="UTF-8" standalone="no"?>
<!DOCTYPE svg PUBLIC "-//W3C//DTD SVG 1.1//EN" "http://www.w3.org/Graphics/SVG/1.1/DTD/svg11.dtd">
<!-- Generated by Microsoft Visio, SVG Export Device Update Service.svg Page-1 -->
<svg xmlns="http://www.w3.org/2000/svg" xmlns:xlink="http://www.w3.org/1999/xlink" xmlns:ev="http://www.w3.org/2001/xml-events"
		xmlns:v="http://schemas.microsoft.com/visio/2003/SVGExtensions/" width="0.911719in" height="1.01563in"
		viewBox="0 0 65.6438 73.125" xml:space="preserve" color-interpolation-filters="sRGB" class="st6">
	<v:documentProperties v:langID="4108" v:metric="true" v:viewMarkup="false"/>

	<style type="text/css">
	<![CDATA[
		.st1 {fill:#ffffff;stroke:none;stroke-linecap:butt;stroke-width:0.75}
		.st2 {fill:#515150;stroke:none;stroke-linecap:butt;stroke-width:0.75}
		.st3 {fill:#515050}
		.st4 {stroke:none;stroke-linecap:butt;stroke-width:0.75}
		.st5 {fill:#515050;stroke:none;stroke-linecap:butt;stroke-width:0.75}
		.st6 {fill:none;fill-rule:evenodd;font-size:12px;overflow:visible;stroke-linecap:square;stroke-miterlimit:3}
	]]>
	</style>

	<g v:mID="0" v:index="1" v:groupContext="foregroundPage">
		<title>Page-1</title>
		<v:pageProperties v:drawingScale="0.0393701" v:pageScale="0.0393701" v:drawingUnits="24" v:shadowOffsetX="8.50394"
				v:shadowOffsetY="-8.50394"/>
		<v:layer v:name="symbols" v:index="0"/>
		<g id="group77-1" transform="translate(9.01875,-7.3125)" v:mID="77" v:groupContext="group" v:layerMember="0">
			<title>Device Update Service</title>
			<g id="group78-2" transform="translate(0,-6)" v:mID="78" v:groupContext="group" v:layerMember="0">
				<title>Sheet.78</title>
				<g id="shape79-3" v:mID="79" v:groupContext="shape" v:layerMember="0">
					<title>Sheet.79</title>
					<path d="M5.25 73.12 C2.33 73.12 0 70.8 0 67.87 L0 26.63 C0 23.7 2.33 21.38 5.25 21.38 L25.5 21.38 C28.43 21.38
								 30.75 23.7 30.75 26.63 L30.75 67.87 C30.75 70.8 28.43 73.12 25.5 73.12 L5.25 73.12 Z" class="st1"/>
				</g>
				<g id="shape80-5" v:mID="80" v:groupContext="shape" v:layerMember="0" transform="translate(2.25,-2.25)">
					<title>Sheet.80</title>
					<path d="M23.25 25.88 L3 25.88 C1.35 25.88 0 27.23 0 28.88 L0 70.13 C-0 71.78 1.35 73.12 3 73.12 L23.25 73.12
								 C24.9 73.12 26.25 71.78 26.25 70.13 L26.25 28.88 C26.25 27.23 24.9 25.88 23.25 25.88 ZM15.75 68.63
								 C15.75 69.07 15.45 69.38 15 69.38 L11.25 69.38 C10.8 69.38 10.5 69.07 10.5 68.63 L10.5 67.12 C10.5
								 66.67 10.8 66.38 11.25 66.38 L15 66.38 C15.45 66.38 15.75 66.67 15.75 67.12 L15.75 68.63 ZM23.25
								 63.37 L3 63.37 L3 31.88 L23.25 31.88 L23.25 63.37 Z" class="st2"/>
				</g>
			</g>
			<g id="group81-7" transform="translate(15.825,2.84217E-13)" v:mID="81" v:groupContext="group" v:layerMember="0">
				<title>Sheet.81</title>
				<g id="shape82-8" v:mID="82" v:groupContext="shape" v:layerMember="0">
					<title>Sheet.82</title>
					<path d="M20.85 73.12 C19.65 73.12 18.53 72.38 18.08 71.25 L17.4 69.67 C17.25 69.67 17.02 69.67 16.8 69.67 C16.57
								 69.67 16.35 69.67 16.12 69.67 L15.45 71.25 C15.08 72.38 13.95 73.12 12.75 73.12 C12.38 73.12 11.93
								 73.05 11.63 72.9 L8.77 71.7 C8.03 71.4 7.42 70.8 7.12 70.05 C6.83 69.3 6.83 68.47 7.12 67.73 L7.8
								 66.15 L6.97 65.32 L5.4 66 C5.03 66.15 4.65 66.22 4.28 66.22 C3.07 66.22 1.95 65.47 1.5 64.35 L0.3
								 61.5 C-0 60.75 0 59.93 0.3 59.17 C0.6 58.42 1.2 57.83 1.95 57.52 L3.52 56.85 L3.52 55.65 L1.95 54.97
								 C1.2 54.67 0.6 54.07 0.3 53.32 C-0 52.58 0 51.75 0.3 51 L1.5 48.15 C1.95 47.02 3.07 46.27 4.28 46.27
								 C4.65 46.27 5.03 46.35 5.4 46.5 L6.97 47.17 L7.8 46.35 L7.12 44.78 C6.83 44.02 6.83 43.2 7.12 42.45
								 C7.42 41.7 8.03 41.1 8.77 40.8 L11.63 39.6 C12 39.45 12.38 39.37 12.75 39.37 C13.95 39.37 15.08
								 40.12 15.52 41.25 L16.12 42.75 C16.28 42.75 16.5 42.75 16.73 42.75 C16.95 42.75 17.18 42.75 17.4
								 42.75 L18 41.17 C18.45 40.05 19.57 39.3 20.77 39.3 C21.15 39.3 21.53 39.37 21.9 39.52 L24.75 40.72
								 C25.5 41.02 26.1 41.62 26.4 42.37 C26.7 43.12 26.7 43.95 26.4 44.7 L25.72 46.27 L26.55 47.1 L28.12
								 46.42 C28.5 46.27 28.88 46.2 29.25 46.2 C30.45 46.2 31.57 46.95 32.02 48.07 L33.23 50.92 C33.52
								 51.68 33.52 52.5 33.23 53.25 C32.92 54 32.33 54.6 31.57 54.9 L30 55.58 L30 56.77 L31.57 57.45 C33.15
								 58.12 33.82 59.85 33.23 61.42 L32.02 64.28 C31.57 65.4 30.45 66.15 29.25 66.15 C28.88 66.15 28.43
								 66.08 28.05 65.92 L26.47 65.25 L25.65 66.08 L26.32 67.65 C26.62 68.4 26.62 69.22 26.32 69.97 C26.02
								 70.72 25.43 71.32 24.67 71.62 L21.82 72.82 C21.67 73.05 21.22 73.12 20.85 73.12 Z" class="st1"/>
				</g>
				<g id="shape83-10" v:mID="83" v:groupContext="shape" v:layerMember="0" transform="translate(2.025,-2.1)">
					<title>Sheet.83</title>
					<path d="M28.95 61.72 L26.55 60.75 C26.17 60.6 25.87 60.38 25.87 60.3 C25.87 60.23 25.95 59.78 25.95 59.4 L25.95
								 57.45 C25.95 57 25.87 56.62 25.87 56.55 C25.87 56.47 26.17 56.25 26.55 56.1 L28.95 55.13 C29.32
								 54.98 29.55 54.53 29.4 54.07 L28.2 51.22 C28.05 50.85 27.6 50.63 27.15 50.78 L24.75 51.75 C24.37
								 51.9 24 51.97 23.92 51.9 C23.85 51.82 23.62 51.52 23.32 51.15 L21.9 49.8 C21.6 49.5 21.22 49.28
								 21.22 49.2 C21.15 49.12 21.22 48.82 21.37 48.37 L22.35 45.98 C22.5 45.6 22.35 45.15 21.9 44.93 L19.05
								 43.72 C18.67 43.57 18.22 43.72 18 44.17 L17.03 46.57 C16.88 46.95 16.65 47.25 16.58 47.25 C16.5
								 47.25 16.05 47.17 15.67 47.1 C15.67 47.1 15.3 47.02 14.7 47.02 C14.1 47.02 13.72 47.1 13.72 47.1
								 C13.27 47.17 12.9 47.17 12.82 47.25 C12.75 47.25 12.52 46.95 12.37 46.57 L11.4 44.17 C11.25 43.8
								 10.8 43.57 10.35 43.72 L7.5 44.93 C7.13 45.08 6.9 45.53 7.05 45.98 L8.02 48.37 C8.17 48.75 8.25
								 49.13 8.17 49.2 C8.1 49.28 7.8 49.5 7.5 49.8 L6.08 51.22 C5.78 51.52 5.55 51.9 5.48 51.97 C5.4 52.05
								 5.1 51.97 4.65 51.82 L2.4 50.7 C2.02 50.55 1.57 50.7 1.35 51.15 L0.15 54 C-0 54.38 0.15 54.83 0.6
								 55.05 L3 56.02 C3.37 56.17 3.67 56.4 3.67 56.47 C3.67 56.55 3.6 57 3.6 57.37 L3.6 59.33 C3.6 59.78
								 3.67 60.15 3.67 60.23 C3.67 60.3 3.37 60.53 3 60.68 L0.6 61.72 C0.22 61.87 0 62.32 0.15 62.77 L1.35
								 65.63 C1.5 66 1.95 66.22 2.4 66.07 L4.8 65.1 C5.17 64.95 5.55 64.88 5.63 64.95 C5.7 65.03 5.93 65.33
								 6.23 65.7 L7.65 67.05 C7.95 67.35 8.32 67.57 8.4 67.65 C8.47 67.72 8.4 68.1 8.25 68.48 L7.13 70.72
								 C6.98 71.1 7.13 71.55 7.57 71.78 L10.42 72.97 C10.8 73.12 11.25 72.97 11.48 72.52 L12.45 70.13 C12.6
								 69.75 12.82 69.45 12.9 69.45 C12.97 69.45 13.42 69.53 13.8 69.6 C13.8 69.6 14.17 69.68 14.77 69.68
								 C15.37 69.68 15.75 69.6 15.75 69.6 C16.2 69.53 16.58 69.53 16.65 69.45 C16.73 69.45 16.95 69.75
								 17.1 70.13 L18.07 72.52 C18.22 72.9 18.67 73.12 19.12 72.97 L21.98 71.78 C22.35 71.62 22.57 71.17
								 22.42 70.72 L21.45 68.32 C21.3 67.95 21.22 67.57 21.3 67.5 C21.37 67.42 21.68 67.2 22.05 66.9 L23.47
								 65.48 C23.77 65.18 24 64.8 24.07 64.73 C24.15 64.65 24.45 64.73 24.9 64.88 L27.3 65.85 C27.67 66
								 28.12 65.85 28.35 65.4 L29.55 62.55 C29.47 62.32 29.32 61.87 28.95 61.72 ZM14.77 66.07 C10.5 66.07
								 7.05 62.62 7.05 58.35 C7.05 54.08 10.5 50.63 14.77 50.63 C19.05 50.63 22.5 54.08 22.5 58.35 C22.5
								 62.62 19.05 66.07 14.77 66.07 Z" class="st2"/>
				</g>
			</g>
			<g id="group84-12" transform="translate(28.5,-38.25)" v:mID="84" v:groupContext="group" v:layerMember="0">
				<title>Sheet.84</title>
				<g id="shape85-13" v:mID="85" v:groupContext="shape" v:layerMember="0">
					<title>Sheet.85</title>
					<path d="M26.25 61.12 L23.1 61.12 C22.2 56.4 18.08 52.87 13.12 52.87 C11.18 52.87 9.3 53.4 7.65 54.52 L7.42 54.67
								 L6.75 53.92 L0 61.8 L0 64.87 L3.15 64.87 C4.05 69.6 8.17 73.12 13.12 73.12 C15.07 73.12 16.95 72.6
								 18.6 71.47 L18.83 71.32 L19.5 72.07 L26.25 64.2 L26.25 61.12 Z" class="st1"/>
				</g>
				<g id="group86-15" transform="translate(2.25,-2.25)" v:mID="86" v:groupContext="group" v:layerMember="0">
					<title>Sheet.86</title>
					<g id="shape87-16" v:mID="87" v:groupContext="shape" v:layerMember="0" transform="translate(9.99201E-16,-8.25)">
						<title>Sheet.87</title>
						<path d="M5.25 73.12 L9 73.12 L4.5 67.87 L0 73.12 L5.25 73.12 Z" class="st3"/>
						<path d="M5.25 73.12 L9 73.12 L4.5 67.87 L0 73.12" class="st4"/>
					</g>
					<g id="shape88-19" v:mID="88" v:groupContext="shape" v:layerMember="0" transform="translate(6.6,-2.25)">
						<title>Sheet.88</title>
						<path d="M12.15 67.87 C12.15 67.72 12.15 67.65 12.15 67.5 C12.15 63.15 8.63 59.62 4.27 59.62 C2.7 59.62 1.27
									 60.07 0 60.9 L1.5 62.62 C2.32 62.17 3.22 61.87 4.27 61.87 C7.35 61.87 9.9 64.42 9.9 67.5 C9.9
									 67.65 9.9 67.72 9.9 67.87 L6.15 67.87 L10.65 73.12 L15.15 67.87 L12.15 67.87 Z" class="st5"/>
					</g>
					<g id="shape89-21" v:mID="89" v:groupContext="shape" v:layerMember="0" transform="translate(12.75,-2.25)">
						<title>Sheet.89</title>
						<path d="M3.75 67.87 L0 67.87 L4.5 73.12 L9 67.87 L3.75 67.87 Z" class="st3"/>
						<path d="M3.75 67.87 L0 67.87 L4.5 73.12 L9 67.87" class="st4"/>
					</g>
					<g id="shape90-24" v:mID="90" v:groupContext="shape" v:layerMember="0">
						<title>Sheet.90</title>
						<path d="M13.65 70.12 C12.83 70.57 11.93 70.87 10.88 70.87 C7.8 70.87 5.25 68.32 5.25 65.25 C5.25 65.1 5.25
									 65.02 5.25 64.87 L9 64.87 L4.5 59.62 L0 64.87 L3 64.87 C3 65.02 3 65.1 3 65.25 C3 69.6 6.52
									 73.12 10.88 73.12 C12.45 73.12 13.88 72.67 15.15 71.85 L13.65 70.12 Z" class="st5"/>
					</g>
				</g>
			</g>
		</g>
	</g>
</svg>
