<?xml version="1.0" encoding="UTF-8" standalone="no"?>
<!DOCTYPE svg PUBLIC "-//W3C//DTD SVG 1.1//EN" "http://www.w3.org/Graphics/SVG/1.1/DTD/svg11.dtd">
<!-- Generated by Microsoft Visio, SVG Export Email Service.svg Page-1 -->
<svg xmlns="http://www.w3.org/2000/svg" xmlns:xlink="http://www.w3.org/1999/xlink" xmlns:ev="http://www.w3.org/2001/xml-events"
		xmlns:v="http://schemas.microsoft.com/visio/2003/SVGExtensions/" width="1.0625in" height="0.90625in"
		viewBox="0 0 76.5 65.25" xml:space="preserve" color-interpolation-filters="sRGB" class="st5">
	<v:documentProperties v:langID="4108" v:metric="true" v:viewMarkup="false"/>

	<style type="text/css">
	<![CDATA[
		.st1 {fill:#ffffff;stroke:none;stroke-linecap:butt;stroke-width:0.75}
		.st2 {fill:#515150;stroke:none;stroke-linecap:butt;stroke-width:0.75}
		.st3 {fill:#525352;stroke:none;stroke-linecap:butt;stroke-width:0.75}
		.st4 {fill:#505150;stroke:none;stroke-linecap:butt;stroke-width:0.75}
		.st5 {fill:none;fill-rule:evenodd;font-size:12px;overflow:visible;stroke-linecap:square;stroke-miterlimit:3}
	]]>
	</style>

	<g v:mID="0" v:index="1" v:groupContext="foregroundPage">
		<title>Page-1</title>
		<v:pageProperties v:drawingScale="0.0393701" v:pageScale="0.0393701" v:drawingUnits="24" v:shadowOffsetX="8.50394"
				v:shadowOffsetY="-8.50394"/>
		<v:layer v:name="symbols" v:index="0"/>
		<g id="group91-1" transform="translate(8.175,-4.6875)" v:mID="91" v:groupContext="group" v:layerMember="0">
			<title>Email Service</title>
			<g id="group92-2" transform="translate(-9.99201E-14,-11.25)" v:mID="92" v:groupContext="group" v:layerMember="0">
				<title>Sheet.92</title>
				<g id="shape93-3" v:mID="93" v:groupContext="shape" v:layerMember="0">
					<title>Sheet.93</title>
					<rect x="0" y="24" width="51.75" height="41.25" class="st1"/>
				</g>
				<g id="shape94-5" v:mID="94" v:groupContext="shape" v:layerMember="0" transform="translate(38.25,-27)">
					<title>Sheet.94</title>
					<rect x="0" y="58.5" width="6" height="6.75" class="st2"/>
				</g>
				<g id="shape95-7" v:mID="95" v:groupContext="shape" v:layerMember="0" transform="translate(11.25,-18)">
					<title>Sheet.95</title>
					<rect x="0" y="63" width="21" height="2.25" class="st2"/>
				</g>
				<g id="shape96-9" v:mID="96" v:groupContext="shape" v:layerMember="0" transform="translate(11.25,-12)">
					<title>Sheet.96</title>
					<rect x="0" y="63" width="25.5" height="2.25" class="st2"/>
				</g>
				<g id="shape97-11" v:mID="97" v:groupContext="shape" v:layerMember="0" transform="translate(2.25,-2.25)">
					<title>Sheet.97</title>
					<path d="M45 30.75 L45 63 L2.25 63 L2.25 30.75 L45 30.75 ZM47.25 28.5 L0 28.5 L0 65.25 L47.25 65.25 L47.25 28.5
								 Z" class="st3"/>
				</g>
			</g>
			<g id="group98-13" transform="translate(28.575,-1.56319E-13)" v:mID="98" v:groupContext="group" v:layerMember="0">
				<title>Sheet.98</title>
				<g id="shape99-14" v:mID="99" v:groupContext="shape" v:layerMember="0">
					<title>Sheet.99</title>
					<path d="M20.85 65.25 C19.65 65.25 18.53 64.5 18.08 63.38 L17.4 61.8 C17.25 61.8 17.02 61.8 16.8 61.8 C16.57
								 61.8 16.35 61.8 16.13 61.8 L15.45 63.38 C15.08 64.5 13.95 65.25 12.75 65.25 C12.38 65.25 11.93 65.18
								 11.63 65.03 L8.78 63.83 C8.03 63.53 7.42 62.92 7.13 62.18 C6.83 61.42 6.83 60.6 7.13 59.85 L7.8
								 58.28 L6.98 57.45 L5.4 58.13 C5.03 58.28 4.65 58.35 4.28 58.35 C3.08 58.35 1.95 57.6 1.5 56.48 L0.3
								 53.63 C-0 52.88 0 52.05 0.3 51.3 C0.6 50.55 1.2 49.95 1.95 49.65 L3.53 48.98 L3.53 47.78 L1.95 47.1
								 C1.2 46.8 0.6 46.2 0.3 45.45 C-0 44.7 0 43.88 0.3 43.13 L1.5 40.28 C1.95 39.15 3.08 38.4 4.28 38.4
								 C4.65 38.4 5.03 38.48 5.4 38.63 L6.98 39.3 L7.8 38.48 L7.13 36.9 C6.83 36.15 6.83 35.33 7.13 34.58
								 C7.42 33.83 8.03 33.23 8.78 32.93 L11.63 31.73 C12 31.58 12.38 31.5 12.75 31.5 C13.95 31.5 15.08
								 32.25 15.53 33.38 L16.13 34.88 C16.28 34.88 16.5 34.88 16.73 34.88 C16.95 34.88 17.18 34.88 17.4
								 34.88 L18 33.3 C18.45 32.18 19.58 31.43 20.78 31.43 C21.15 31.43 21.53 31.5 21.9 31.65 L24.75 32.85
								 C25.5 33.15 26.1 33.75 26.4 34.5 C26.7 35.25 26.7 36.08 26.4 36.83 L25.73 38.4 L26.55 39.23 L28.13
								 38.55 C28.5 38.4 28.88 38.33 29.25 38.33 C30.45 38.33 31.58 39.08 32.03 40.2 L33.23 43.05 C33.53
								 43.8 33.53 44.62 33.23 45.38 C32.93 46.13 32.33 46.73 31.58 47.03 L30 47.7 L30 48.9 L31.58 49.58
								 C33.15 50.25 33.83 51.97 33.23 53.55 L32.03 56.4 C31.58 57.52 30.45 58.28 29.25 58.28 C28.88 58.28
								 28.43 58.2 28.05 58.05 L26.48 57.38 L25.65 58.2 L26.33 59.78 C26.62 60.52 26.62 61.35 26.33 62.1
								 C26.03 62.85 25.43 63.45 24.68 63.75 L21.83 64.95 C21.68 65.18 21.23 65.25 20.85 65.25 Z"
							class="st1"/>
				</g>
				<g id="shape100-16" v:mID="100" v:groupContext="shape" v:layerMember="0" transform="translate(2.025,-2.1)">
					<title>Sheet.100</title>
					<path d="M28.95 53.85 L26.55 52.88 C26.18 52.73 25.88 52.5 25.88 52.43 C25.88 52.35 25.95 51.9 25.95 51.53 L25.95
								 49.58 C25.95 49.13 25.88 48.75 25.88 48.68 C25.88 48.6 26.18 48.38 26.55 48.23 L28.95 47.25 C29.33
								 47.1 29.55 46.65 29.4 46.2 L28.2 43.35 C28.05 42.98 27.6 42.75 27.15 42.9 L24.75 43.88 C24.38 44.03
								 24 44.1 23.93 44.03 C23.85 43.95 23.62 43.65 23.33 43.28 L21.9 41.93 C21.6 41.63 21.23 41.4 21.23
								 41.33 C21.15 41.25 21.23 40.95 21.38 40.5 L22.35 38.1 C22.5 37.73 22.35 37.28 21.9 37.05 L19.05
								 35.85 C18.67 35.7 18.22 35.85 18 36.3 L17.03 38.7 C16.88 39.08 16.65 39.38 16.58 39.38 C16.5 39.38
								 16.05 39.3 15.68 39.23 C15.68 39.23 15.3 39.15 14.7 39.15 C14.1 39.15 13.72 39.23 13.72 39.23 C13.27
								 39.3 12.9 39.3 12.83 39.38 C12.75 39.38 12.52 39.08 12.37 38.7 L11.4 36.3 C11.25 35.93 10.8 35.7
								 10.35 35.85 L7.5 37.05 C7.13 37.2 6.9 37.65 7.05 38.1 L8.03 40.5 C8.17 40.88 8.25 41.25 8.18 41.33
								 C8.1 41.4 7.8 41.63 7.5 41.93 L6.08 43.35 C5.78 43.65 5.55 44.03 5.48 44.1 C5.4 44.18 5.1 44.1 4.65
								 43.95 L2.4 42.83 C2.03 42.68 1.58 42.83 1.35 43.28 L0.15 46.13 C0 46.5 0.15 46.95 0.6 47.18 L3 48.15
								 C3.37 48.3 3.67 48.53 3.68 48.6 C3.67 48.68 3.6 49.13 3.6 49.5 L3.6 51.45 C3.6 51.9 3.67 52.28 3.68
								 52.35 C3.67 52.43 3.37 52.65 3 52.8 L0.6 53.85 C0.23 54 0 54.45 0.15 54.9 L1.35 57.75 C1.5 58.12
								 1.95 58.35 2.4 58.2 L4.8 57.23 C5.18 57.08 5.55 57 5.63 57.08 C5.7 57.15 5.93 57.45 6.23 57.83 L7.65
								 59.18 C7.95 59.47 8.32 59.7 8.4 59.78 C8.47 59.85 8.4 60.23 8.25 60.6 L7.13 62.85 C6.98 63.23 7.13
								 63.67 7.58 63.9 L10.43 65.1 C10.8 65.25 11.25 65.1 11.47 64.65 L12.45 62.25 C12.6 61.88 12.82 61.58
								 12.9 61.58 C12.97 61.58 13.42 61.65 13.8 61.73 C13.8 61.73 14.18 61.8 14.78 61.8 C15.38 61.8 15.75
								 61.73 15.75 61.73 C16.2 61.65 16.58 61.65 16.65 61.58 C16.73 61.58 16.95 61.88 17.1 62.25 L18.08
								 64.65 C18.22 65.03 18.67 65.25 19.13 65.1 L21.98 63.9 C22.35 63.75 22.57 63.3 22.43 62.85 L21.45
								 60.45 C21.3 60.08 21.23 59.7 21.3 59.63 C21.38 59.55 21.68 59.32 22.05 59.03 L23.48 57.6 C23.77
								 57.3 24 56.93 24.08 56.85 C24.15 56.78 24.45 56.85 24.9 57 L27.3 57.98 C27.67 58.12 28.12 57.97
								 28.35 57.53 L29.55 54.68 C29.48 54.45 29.33 54 28.95 53.85 ZM14.78 58.2 C10.5 58.2 7.05 54.75 7.05
								 50.48 C7.05 46.2 10.5 42.75 14.78 42.75 C19.05 42.75 22.5 46.2 22.5 50.48 C22.5 54.75 19.05 58.2
								 14.78 58.2 Z" class="st4"/>
				</g>
			</g>
		</g>
	</g>
</svg>
