<?xml version="1.0" encoding="UTF-8" standalone="no"?>
<!DOCTYPE svg PUBLIC "-//W3C//DTD SVG 1.1//EN" "http://www.w3.org/Graphics/SVG/1.1/DTD/svg11.dtd">
<!-- Generated by Microsoft Visio, SVG Export Excel Services.svg Page-1 -->
<svg xmlns="http://www.w3.org/2000/svg" xmlns:xlink="http://www.w3.org/1999/xlink" xmlns:ev="http://www.w3.org/2001/xml-events"
		xmlns:v="http://schemas.microsoft.com/visio/2003/SVGExtensions/" width="1.125in" height="0.9375in" viewBox="0 0 81 67.5"
		xml:space="preserve" color-interpolation-filters="sRGB" class="st4">
	<v:documentProperties v:langID="4108" v:metric="true" v:viewMarkup="false"/>

	<style type="text/css">
	<![CDATA[
		.st1 {fill:#ffffff;stroke:none;stroke-linecap:butt;stroke-width:0.75}
		.st2 {fill:#525352;stroke:none;stroke-linecap:butt;stroke-width:0.75}
		.st3 {fill:#02723b;stroke:none;stroke-linecap:butt;stroke-width:0.75}
		.st4 {fill:none;fill-rule:evenodd;font-size:12px;overflow:visible;stroke-linecap:square;stroke-miterlimit:3}
	]]>
	</style>

	<g v:mID="0" v:index="1" v:groupContext="foregroundPage">
		<title>Page-1</title>
		<v:pageProperties v:drawingScale="0.0393701" v:pageScale="0.0393701" v:drawingUnits="24" v:shadowOffsetX="8.50394"
				v:shadowOffsetY="-8.50394"/>
		<v:layer v:name="symbols" v:index="0"/>
		<g id="group101-1" transform="translate(8.4375,-6.3375)" v:mID="101" v:groupContext="group" v:layerMember="0">
			<title>Excel Services</title>
			<g id="group102-2" v:mID="102" v:groupContext="group" v:layerMember="0">
				<title>Sheet.102</title>
				<g id="shape103-3" v:mID="103" v:groupContext="shape" v:layerMember="0">
					<title>Sheet.103</title>
					<path d="M37.42 65.4 C36 65.62 34.65 64.95 33.9 63.75 L31.95 60.6 C31.95 60.6 31.95 60.6 31.88 60.6 C31.8 60.6
								 31.13 60.82 30.08 60.97 C29.03 61.2 28.28 61.2 28.2 61.2 L28.13 61.2 L27.3 64.8 C27 66.15 25.87
								 67.2 24.45 67.42 C24 67.5 23.55 67.5 23.1 67.35 L18.22 66.22 C17.32 66 16.57 65.47 16.05 64.65 C15.52
								 63.82 15.37 62.92 15.6 62.02 L16.42 58.35 L16.27 58.27 L13.57 56.32 C13.57 56.32 13.42 56.25 13.42
								 56.17 L10.27 58.2 C9.9 58.42 9.45 58.57 9 58.65 C7.57 58.87 6.15 58.27 5.4 57.07 L2.78 52.8 C2.25
								 51.97 2.1 51.07 2.32 50.17 C2.55 49.27 3.15 48.45 3.9 48 L7.05 46.05 C7.05 45.97 6.97 45.82 6.97
								 45.82 L6.45 42.52 C6.45 42.52 6.45 42.37 6.45 42.3 L2.78 41.47 C1.87 41.25 1.12 40.72 0.6 39.9 C0.15
								 39.07 0 38.1 0.22 37.2 L1.35 32.32 C1.65 30.97 2.78 29.92 4.2 29.7 C4.65 29.62 5.1 29.62 5.55 29.77
								 L9.22 30.6 L9.3 30.45 L11.25 27.75 C11.25 27.75 11.32 27.6 11.4 27.6 L9.45 24.45 C8.92 23.62 8.77
								 22.72 9 21.82 C9.22 20.92 9.75 20.17 10.57 19.65 L14.85 17.02 C15.22 16.8 15.67 16.65 16.12 16.57
								 C17.55 16.35 18.9 16.95 19.65 18.22 L21.6 21.37 C21.6 21.37 21.6 21.37 21.67 21.37 C21.75 21.37
								 22.42 21.15 23.47 21 C24.52 20.85 25.27 20.77 25.35 20.77 C25.35 20.77 25.35 20.77 25.42 20.77 L26.25
								 17.17 C26.55 15.82 27.68 14.77 29.1 14.55 C29.55 14.47 30 14.47 30.45 14.62 L35.32 15.75 C36.23
								 15.97 36.97 16.5 37.5 17.32 C38.02 18.15 38.17 19.05 37.95 19.95 L37.12 23.62 C37.2 23.62 37.28
								 23.7 37.27 23.7 L39.97 25.65 C39.97 25.65 40.12 25.72 40.12 25.8 L43.27 23.85 C43.65 23.62 44.1
								 23.47 44.55 23.4 C45.97 23.17 47.32 23.77 48.07 25.05 L50.7 29.32 C51.22 30.15 51.37 31.05 51.15
								 31.95 C50.92 32.85 50.4 33.6 49.57 34.12 L46.42 36.07 C46.42 36.15 46.5 36.3 46.5 36.3 L47.02 39.6
								 C47.02 39.6 47.02 39.75 47.02 39.82 L50.7 40.65 C52.57 41.1 53.77 42.97 53.32 44.85 L52.2 49.72
								 C51.9 51.07 50.77 52.12 49.35 52.35 C48.9 52.42 48.45 52.42 48 52.27 L44.32 51.45 C44.32 51.52 44.25
								 51.6 44.25 51.6 L42.3 54.3 C42.3 54.3 42.22 54.45 42.15 54.45 L44.1 57.6 C44.62 58.42 44.77 59.32
								 44.55 60.22 C44.32 61.12 43.8 61.87 42.97 62.4 L38.7 65.02 C38.32 65.1 37.88 65.32 37.42 65.4 ZM25.12
								 30.75 C19.5 31.65 15.75 36.97 16.65 42.52 C17.55 48.15 22.87 51.9 28.43 51 C34.05 50.1 37.8 44.77
								 36.9 39.22 C36 33.67 30.75 29.85 25.12 30.75 Z" class="st1"/>
				</g>
				<g id="shape104-5" v:mID="104" v:groupContext="shape" v:layerMember="0" transform="translate(2.25,-2.1)">
					<title>Sheet.104</title>
					<path d="M47.92 44.62 L43.87 43.65 C43.2 43.5 42.68 43.27 42.68 43.12 C42.68 42.97 42.6 42.3 42.6 41.62 L42.07
								 38.55 C41.92 37.87 41.77 37.2 41.7 37.12 C41.62 36.97 42.07 36.6 42.68 36.22 L46.2 34.05 C46.8 33.67
								 46.95 32.92 46.57 32.32 L43.95 28.05 C43.57 27.45 42.82 27.3 42.22 27.67 L38.7 29.85 C38.1 30.22
								 37.57 30.45 37.42 30.3 C37.35 30.22 36.82 29.77 36.3 29.32 L33.75 27.45 C33.15 27.07 32.55 26.77
								 32.47 26.7 C32.32 26.62 32.4 26.02 32.55 25.35 L33.52 21.3 C33.68 20.62 33.3 19.95 32.62 19.8 L27.75
								 18.67 C27.07 18.52 26.4 18.9 26.25 19.57 L25.28 23.62 C25.12 24.3 24.9 24.82 24.75 24.82 C24.6 24.82
								 23.92 24.82 23.25 24.9 C23.25 24.9 22.57 24.9 21.67 25.05 C20.77 25.2 20.17 25.35 20.17 25.35 C19.5
								 25.57 18.9 25.72 18.75 25.8 C18.6 25.87 18.22 25.42 17.85 24.82 L15.52 21.3 C15.15 20.7 14.4 20.55
								 13.8 20.92 L9.52 23.55 C8.92 23.92 8.78 24.67 9.15 25.27 L11.32 28.8 C11.7 29.4 11.93 29.92 11.77
								 30.07 C11.7 30.15 11.25 30.67 10.8 31.2 L8.92 33.75 C8.55 34.35 8.25 34.95 8.18 35.02 C8.1 35.17
								 7.5 35.1 6.82 34.95 L2.85 34.05 C2.17 33.9 1.5 34.27 1.35 34.95 L0.15 39.82 C0 40.5 0.37 41.17 1.05
								 41.32 L5.17 42.3 C5.85 42.45 6.37 42.67 6.37 42.82 C6.37 42.97 6.45 43.65 6.45 44.32 L6.98 47.47
								 C7.12 48.15 7.28 48.82 7.35 48.9 C7.42 49.05 6.98 49.42 6.37 49.8 L2.85 51.97 C2.25 52.35 2.1 53.1
								 2.47 53.7 L5.1 57.97 C5.47 58.57 6.23 58.72 6.82 58.35 L10.35 56.17 C10.95 55.8 11.47 55.57 11.63
								 55.72 C11.7 55.8 12.23 56.25 12.75 56.7 L15.3 58.57 C15.9 58.95 16.5 59.25 16.58 59.32 C16.72 59.4
								 16.65 60 16.5 60.67 L15.52 64.72 C15.37 65.4 15.75 66.07 16.42 66.22 L21.3 67.35 C21.97 67.5 22.65
								 67.12 22.8 66.45 L23.77 62.4 C23.92 61.72 24.15 61.2 24.3 61.2 C24.45 61.2 25.12 61.2 25.8 61.12
								 C25.8 61.12 26.48 61.12 27.37 60.97 C28.27 60.82 28.87 60.67 28.87 60.67 C29.55 60.45 30.15 60.3
								 30.3 60.22 C30.45 60.15 30.83 60.6 31.2 61.2 L33.37 64.72 C33.75 65.32 34.5 65.47 35.1 65.1 L39.37
								 62.47 C39.97 62.1 40.12 61.35 39.75 60.75 L37.57 57.22 C37.2 56.62 36.97 56.1 37.12 55.95 C37.2
								 55.87 37.65 55.35 38.1 54.82 L39.97 52.27 C40.35 51.67 40.65 51.07 40.72 51 C40.8 50.85 41.4 50.92
								 42.07 51.07 L46.12 52.05 C46.8 52.2 47.47 51.82 47.63 51.15 L48.75 46.27 C49.05 45.45 48.6 44.77
								 47.92 44.62 ZM26.55 55.35 C19.72 56.47 13.27 51.82 12.15 45 C11.02 38.17 15.68 31.72 22.5 30.6 C29.33
								 29.47 35.77 34.12 36.9 40.95 C38.03 47.77 33.37 54.22 26.55 55.35 Z" class="st2"/>
				</g>
			</g>
			<g id="group105-7" transform="translate(34.65,-25.2)" v:mID="105" v:groupContext="group" v:layerMember="0">
				<title>Sheet.105</title>
				<g id="shape106-8" v:mID="106" v:groupContext="shape" v:layerMember="0">
					<title>Sheet.106</title>
					<path d="M26.63 41.25 L18.75 41.25 L18.75 39 L16.35 39 L0 41.55 L0 64.87 L16.35 67.5 L18.75 67.5 L18.75 66 L26.63
								 66 C28.5 66 30 64.5 30 62.62 L30 44.62 C30 42.75 28.5 41.25 26.63 41.25 Z" class="st1"/>
				</g>
				<g id="group107-10" transform="translate(11.25,-3.75)" v:mID="107" v:groupContext="group" v:layerMember="0">
					<title>Sheet.107</title>
					<g id="shape108-11" v:mID="108" v:groupContext="shape" v:layerMember="0">
						<title>Sheet.108</title>
						<path d="M15.38 48.37 L15.38 66.37 L1.12 66.37 L1.12 48.37 L15.38 48.37 ZM15.38 47.25 L1.12 47.25 C0.53 47.25
									 0 47.77 0 48.37 L0 66.37 C0 66.97 0.53 67.5 1.12 67.5 L15.38 67.5 C15.98 67.5 16.5 66.97 16.5
									 66.37 L16.5 48.37 C16.5 47.77 15.98 47.25 15.38 47.25 Z" class="st3"/>
					</g>
					<g id="group109-13" transform="translate(9,-3)" v:mID="109" v:groupContext="group" v:layerMember="0">
						<title>Sheet.109</title>
						<g id="shape110-14" v:mID="110" v:groupContext="shape" v:layerMember="0" transform="translate(0,-12)">
							<title>Sheet.110</title>
							<rect x="0" y="65.25" width="4.5" height="2.25" class="st3"/>
						</g>
						<g id="shape111-16" v:mID="111" v:groupContext="shape" v:layerMember="0" transform="translate(0,-9)">
							<title>Sheet.111</title>
							<rect x="0" y="65.25" width="4.5" height="2.25" class="st3"/>
						</g>
						<g id="shape112-18" v:mID="112" v:groupContext="shape" v:layerMember="0" transform="translate(0,-6)">
							<title>Sheet.112</title>
							<rect x="0" y="65.25" width="4.5" height="2.25" class="st3"/>
						</g>
						<g id="shape113-20" v:mID="113" v:groupContext="shape" v:layerMember="0" transform="translate(0,-3)">
							<title>Sheet.113</title>
							<rect x="0" y="65.25" width="4.5" height="2.25" class="st3"/>
						</g>
						<g id="shape114-22" v:mID="114" v:groupContext="shape" v:layerMember="0">
							<title>Sheet.114</title>
							<rect x="0" y="65.25" width="4.5" height="2.25" class="st3"/>
						</g>
					</g>
					<g id="group115-24" transform="translate(3,-3)" v:mID="115" v:groupContext="group" v:layerMember="0">
						<title>Sheet.115</title>
						<g id="shape116-25" v:mID="116" v:groupContext="shape" v:layerMember="0"
								transform="translate(4.996E-16,-12)">
							<title>Sheet.116</title>
							<rect x="0" y="65.25" width="5.25" height="2.25" class="st3"/>
						</g>
						<g id="shape117-27" v:mID="117" v:groupContext="shape" v:layerMember="0"
								transform="translate(4.996E-16,-9)">
							<title>Sheet.117</title>
							<rect x="0" y="65.25" width="5.25" height="2.25" class="st3"/>
						</g>
						<g id="shape118-29" v:mID="118" v:groupContext="shape" v:layerMember="0"
								transform="translate(4.996E-16,-6)">
							<title>Sheet.118</title>
							<rect x="0" y="65.25" width="5.25" height="2.25" class="st3"/>
						</g>
						<g id="shape119-31" v:mID="119" v:groupContext="shape" v:layerMember="0"
								transform="translate(4.996E-16,-3)">
							<title>Sheet.119</title>
							<rect x="0" y="65.25" width="5.25" height="2.25" class="st3"/>
						</g>
						<g id="shape120-33" v:mID="120" v:groupContext="shape" v:layerMember="0">
							<title>Sheet.120</title>
							<rect x="0" y="65.25" width="5.25" height="2.25" class="st3"/>
						</g>
					</g>
				</g>
				<g id="shape121-35" v:mID="121" v:groupContext="shape" v:layerMember="0" transform="translate(2.25,-2.25)">
					<title>Sheet.121</title>
					<path d="M14.25 43.5 L0 45.75 L0 65.25 L14.25 67.5 L14.25 43.5 Z" class="st3"/>
				</g>
				<g id="shape122-37" v:mID="122" v:groupContext="shape" v:layerMember="0" transform="translate(5.55,-9.225)">
					<title>Sheet.122</title>
					<path d="M6.98 57.82 L5.03 57.97 L3.82 60.82 C3.82 60.9 3.75 60.97 3.75 61.05 C3.75 61.12 3.68 61.2 3.68 61.27
								 C3.68 61.35 3.68 61.42 3.6 61.42 C3.6 61.5 3.6 61.5 3.53 61.57 C3.53 61.5 3.53 61.42 3.45 61.35
								 C3.45 61.27 3.45 61.2 3.37 61.12 C3.37 61.05 3.3 60.97 3.3 60.97 C3.3 60.9 3.23 60.82 3.23 60.82
								 L2.18 58.12 L0.23 58.27 L2.25 62.7 L0 67.12 L1.88 67.27 L3.15 64.35 C3.15 64.27 3.23 64.2 3.23 64.12
								 C3.23 64.05 3.23 63.97 3.3 63.97 C3.3 63.9 3.3 63.9 3.3 63.82 C3.3 63.75 3.3 63.75 3.3 63.67 C3.3
								 63.75 3.3 63.82 3.37 63.9 C3.37 63.97 3.37 64.05 3.45 64.05 C3.45 64.12 3.45 64.12 3.45 64.2 C3.45
								 64.27 3.45 64.27 3.45 64.27 L4.73 67.35 L6.83 67.5 L4.43 62.62 L6.98 57.82 Z" class="st1"/>
				</g>
			</g>
		</g>
	</g>
</svg>
