<?xml version="1.0" encoding="UTF-8" standalone="no"?>
<!DOCTYPE svg PUBLIC "-//W3C//DTD SVG 1.1//EN" "http://www.w3.org/Graphics/SVG/1.1/DTD/svg11.dtd">
<!-- Generated by Microsoft Visio, SVG Export Federation Service.svg Page-1 -->
<svg xmlns="http://www.w3.org/2000/svg" xmlns:xlink="http://www.w3.org/1999/xlink" xmlns:ev="http://www.w3.org/2001/xml-events"
		xmlns:v="http://schemas.microsoft.com/visio/2003/SVGExtensions/" width="1.03125in" height="1in" viewBox="0 0 74.25 72"
		xml:space="preserve" color-interpolation-filters="sRGB" class="st4">
	<v:documentProperties v:langID="4108" v:metric="true" v:viewMarkup="false"/>

	<style type="text/css">
	<![CDATA[
		.st1 {fill:#ffffff;stroke:none;stroke-linecap:butt;stroke-width:0.75}
		.st2 {fill:#535352;stroke:none;stroke-linecap:butt;stroke-width:0.75}
		.st3 {fill:#515150;stroke:none;stroke-linecap:butt;stroke-width:0.75}
		.st4 {fill:none;fill-rule:evenodd;font-size:12px;overflow:visible;stroke-linecap:square;stroke-miterlimit:3}
	]]>
	</style>

	<g v:mID="0" v:index="1" v:groupContext="foregroundPage">
		<title>Page-1</title>
		<v:pageProperties v:drawingScale="0.0393701" v:pageScale="0.0393701" v:drawingUnits="24" v:shadowOffsetX="8.50394"
				v:shadowOffsetY="-8.50394"/>
		<v:layer v:name="symbols" v:index="0"/>
		<g id="group123-1" transform="translate(9.8625,-3.5625)" v:mID="123" v:groupContext="group" v:layerMember="0">
			<title>Federation Service</title>
			<g id="group124-2" transform="translate(0,-5.25)" v:mID="124" v:groupContext="group" v:layerMember="0">
				<title>Sheet.124</title>
				<g id="shape125-3" v:mID="125" v:groupContext="shape" v:layerMember="0">
					<title>Sheet.125</title>
					<path d="M21.75 24 L21.75 13.5 L0 13.5 L0 72 L37.5 72 L37.5 36 L35.25 36 L35.25 30 L33 30 L33 24 L30.75 24 L30.75
								 17.25 L24 17.25 L24 24 L21.75 24 Z" class="st1"/>
				</g>
				<g id="shape126-5" v:mID="126" v:groupContext="shape" v:layerMember="0" transform="translate(2.25,-2.25)">
					<title>Sheet.126</title>
					<path d="M30.75 40.5 L30.75 34.5 L28.5 34.5 L28.5 28.5 L26.25 28.5 L26.25 21.75 L24 21.75 L24 28.5 L21.75 28.5
								 L21.75 34.5 L19.5 34.5 L19.5 40.5 L17.25 40.5 L17.25 18 L0 18 L0 72 L33 72 L33 40.5 L30.75 40.5
								 ZM6.75 59.25 L3.75 59.25 L3.75 56.25 L6.75 56.25 L6.75 59.25 ZM6.75 52.5 L3.75 52.5 L3.75 49.5 L6.75
								 49.5 L6.75 52.5 ZM6.75 45.75 L3.75 45.75 L3.75 42.75 L6.75 42.75 L6.75 45.75 ZM6.75 39 L3.75 39
								 L3.75 36 L6.75 36 L6.75 39 ZM6.75 32.25 L3.75 32.25 L3.75 29.25 L6.75 29.25 L6.75 32.25 ZM6.75 25.5
								 L3.75 25.5 L3.75 22.5 L6.75 22.5 L6.75 25.5 ZM13.5 59.25 L10.5 59.25 L10.5 56.25 L13.5 56.25 L13.5
								 59.25 ZM13.5 52.5 L10.5 52.5 L10.5 49.5 L13.5 49.5 L13.5 52.5 ZM13.5 45.75 L10.5 45.75 L10.5 42.75
								 L13.5 42.75 L13.5 45.75 ZM13.5 39 L10.5 39 L10.5 36 L13.5 36 L13.5 39 ZM13.5 32.25 L10.5 32.25 L10.5
								 29.25 L13.5 29.25 L13.5 32.25 ZM13.5 25.5 L10.5 25.5 L10.5 22.5 L13.5 22.5 L13.5 25.5 ZM23.25 57
								 L20.25 57 L20.25 54 L23.25 54 L23.25 57 ZM23.25 46.5 L20.25 46.5 L20.25 43.5 L23.25 43.5 L23.25
								 46.5 ZM29.25 51.75 L26.25 51.75 L26.25 48.75 L29.25 48.75 L29.25 51.75 Z" class="st2"/>
				</g>
			</g>
			<g id="group127-7" transform="translate(33,-35.25)" v:mID="127" v:groupContext="group" v:layerMember="0">
				<title>Sheet.127</title>
				<g id="shape128-8" v:mID="128" v:groupContext="shape" v:layerMember="0">
					<title>Sheet.128</title>
					<path d="M22.5 57 L24 57 L24 49.5 L13.5 49.5 L14.85 48.15 L14.85 45 L7.87 45 L0 53.17 L6.45 60 L5.25 60 L5.25
								 67.5 L15.37 67.5 L14.1 68.85 L14.1 72 L21 72 L28.87 63.82 L22.5 57 Z" class="st1"/>
				</g>
				<g id="shape129-10" v:mID="129" v:groupContext="shape" v:layerMember="0" transform="translate(3.075,-12.75)">
					<title>Sheet.129</title>
					<path d="M18.67 64.5 L8.77 64.5 L5.02 64.5 L9.52 60 L5.77 60 L0 66 L5.77 72 L9.52 72 L5.02 67.5 L8.77 67.5 L18.67
								 67.5 L18.67 64.5 Z" class="st3"/>
				</g>
				<g id="shape130-12" v:mID="130" v:groupContext="shape" v:layerMember="0" transform="translate(7.5,-2.25)">
					<title>Sheet.130</title>
					<path d="M0 67.5 L9.6 67.5 L13.35 67.5 L8.85 72 L12.6 72 L18.3 66 L12.6 60 L8.85 60 L13.35 64.5 L9.6 64.5 L0
								 64.5 L0 67.5 Z" class="st3"/>
				</g>
			</g>
			<g id="group131-14" transform="translate(28.575,0)" v:mID="131" v:groupContext="group" v:layerMember="0">
				<title>Sheet.131</title>
				<g id="shape132-15" v:mID="132" v:groupContext="shape" v:layerMember="0">
					<title>Sheet.132</title>
					<path d="M20.85 72 C19.65 72 18.53 71.25 18.08 70.12 L17.4 68.55 C17.25 68.55 17.02 68.55 16.8 68.55 C16.57 68.55
								 16.35 68.55 16.12 68.55 L15.45 70.12 C15.08 71.25 13.95 72 12.75 72 C12.38 72 11.93 71.92 11.63
								 71.77 L8.77 70.57 C8.03 70.27 7.42 69.67 7.12 68.92 C6.83 68.17 6.83 67.35 7.12 66.6 L7.8 65.02
								 L6.97 64.2 L5.4 64.87 C5.03 65.02 4.65 65.1 4.28 65.1 C3.08 65.1 1.95 64.35 1.5 63.22 L0.3 60.37
								 C-0 59.62 0 58.8 0.3 58.05 C0.6 57.3 1.2 56.7 1.95 56.4 L3.52 55.72 L3.52 54.52 L1.95 53.85 C1.2
								 53.55 0.6 52.95 0.3 52.2 C-0 51.45 0 50.62 0.3 49.87 L1.5 47.02 C1.95 45.9 3.08 45.15 4.28 45.15
								 C4.65 45.15 5.03 45.22 5.4 45.37 L6.97 46.05 L7.8 45.22 L7.12 43.65 C6.83 42.9 6.83 42.07 7.12 41.32
								 C7.42 40.57 8.03 39.97 8.77 39.67 L11.63 38.47 C12 38.32 12.38 38.25 12.75 38.25 C13.95 38.25 15.08
								 39 15.53 40.12 L16.12 41.62 C16.28 41.62 16.5 41.62 16.73 41.62 C16.95 41.62 17.18 41.62 17.4 41.62
								 L18 40.05 C18.45 38.92 19.58 38.17 20.78 38.17 C21.15 38.17 21.53 38.25 21.9 38.4 L24.75 39.6 C25.5
								 39.9 26.1 40.5 26.4 41.25 C26.7 42 26.7 42.82 26.4 43.57 L25.72 45.15 L26.55 45.97 L28.13 45.3 C28.5
								 45.15 28.88 45.07 29.25 45.07 C30.45 45.07 31.58 45.82 32.03 46.95 L33.23 49.8 C33.53 50.55 33.53
								 51.37 33.23 52.12 C32.93 52.87 32.33 53.47 31.58 53.77 L30 54.45 L30 55.65 L31.58 56.32 C33.15 57
								 33.83 58.72 33.23 60.3 L32.03 63.15 C31.58 64.27 30.45 65.02 29.25 65.02 C28.88 65.02 28.43 64.95
								 28.05 64.8 L26.48 64.12 L25.65 64.95 L26.33 66.52 C26.62 67.27 26.62 68.1 26.33 68.85 C26.03 69.6
								 25.43 70.2 24.68 70.5 L21.82 71.7 C21.68 71.92 21.23 72 20.85 72 ZM16.8 49.65 C13.8 49.65 11.33
								 52.12 11.33 55.12 C11.32 58.12 13.8 60.6 16.8 60.6 C19.8 60.6 22.27 58.12 22.27 55.12 C22.27 52.12
								 19.8 49.65 16.8 49.65 Z" class="st1"/>
				</g>
				<g id="shape133-17" v:mID="133" v:groupContext="shape" v:layerMember="0" transform="translate(2.025,-2.1)">
					<title>Sheet.133</title>
					<path d="M28.95 60.6 L26.55 59.62 C26.18 59.47 25.88 59.25 25.88 59.17 C25.88 59.1 25.95 58.65 25.95 58.27 L25.95
								 56.32 C25.95 55.87 25.88 55.5 25.88 55.42 C25.88 55.35 26.18 55.12 26.55 54.97 L28.95 54 C29.33
								 53.85 29.55 53.4 29.4 52.95 L28.2 50.1 C28.05 49.72 27.6 49.5 27.15 49.65 L24.75 50.62 C24.38 50.77
								 24 50.85 23.93 50.77 C23.85 50.7 23.62 50.4 23.32 50.02 L21.9 48.67 C21.6 48.37 21.23 48.15 21.23
								 48.07 C21.15 48 21.23 47.7 21.38 47.25 L22.35 44.85 C22.5 44.47 22.35 44.02 21.9 43.8 L19.05 42.6
								 C18.67 42.45 18.22 42.6 18 43.05 L17.03 45.45 C16.88 45.82 16.65 46.12 16.58 46.12 C16.5 46.12 16.05
								 46.05 15.68 45.97 C15.68 45.97 15.3 45.9 14.7 45.9 C14.1 45.9 13.72 45.97 13.72 45.97 C13.27 46.05
								 12.9 46.05 12.82 46.12 C12.75 46.12 12.52 45.82 12.37 45.45 L11.4 43.05 C11.25 42.67 10.8 42.45
								 10.35 42.6 L7.5 43.8 C7.13 43.95 6.9 44.4 7.05 44.85 L8.02 47.25 C8.17 47.62 8.25 48 8.17 48.07
								 C8.1 48.15 7.8 48.37 7.5 48.67 L6.08 50.1 C5.78 50.4 5.55 50.77 5.48 50.85 C5.4 50.92 5.1 50.85
								 4.65 50.7 L2.4 49.57 C2.03 49.42 1.58 49.57 1.35 50.02 L0.15 52.87 C0 53.25 0.15 53.7 0.6 53.92
								 L3 54.9 C3.37 55.05 3.67 55.27 3.67 55.35 C3.67 55.42 3.6 55.87 3.6 56.25 L3.6 58.2 C3.6 58.65 3.67
								 59.02 3.67 59.1 C3.67 59.17 3.37 59.4 3 59.55 L0.6 60.6 C0.23 60.75 0 61.2 0.15 61.65 L1.35 64.5
								 C1.5 64.87 1.95 65.1 2.4 64.95 L4.8 63.97 C5.18 63.82 5.55 63.75 5.63 63.82 C5.7 63.9 5.93 64.2
								 6.23 64.57 L7.65 65.92 C7.95 66.22 8.32 66.45 8.4 66.52 C8.47 66.6 8.4 66.97 8.25 67.35 L7.13 69.6
								 C6.98 69.97 7.13 70.42 7.57 70.65 L10.43 71.85 C10.8 72 11.25 71.85 11.48 71.4 L12.45 69 C12.6 68.62
								 12.82 68.32 12.9 68.32 C12.97 68.32 13.42 68.4 13.8 68.47 C13.8 68.47 14.17 68.55 14.78 68.55 C15.38
								 68.55 15.75 68.47 15.75 68.47 C16.2 68.4 16.58 68.4 16.65 68.32 C16.73 68.32 16.95 68.62 17.1 69
								 L18.07 71.4 C18.22 71.77 18.67 72 19.12 71.85 L21.98 70.65 C22.35 70.5 22.57 70.05 22.42 69.6 L21.45
								 67.2 C21.3 66.82 21.23 66.45 21.3 66.37 C21.38 66.3 21.68 66.07 22.05 65.77 L23.47 64.35 C23.77
								 64.05 24 63.67 24.07 63.6 C24.15 63.52 24.45 63.6 24.9 63.75 L27.3 64.72 C27.67 64.87 28.12 64.72
								 28.35 64.27 L29.55 61.42 C29.48 61.2 29.33 60.75 28.95 60.6 ZM14.78 64.95 C10.5 64.95 7.05 61.5
								 7.05 57.22 C7.05 52.95 10.5 49.5 14.78 49.5 C19.05 49.5 22.5 52.95 22.5 57.22 C22.5 61.5 19.05 64.95
								 14.78 64.95 Z" class="st3"/>
				</g>
			</g>
		</g>
	</g>
</svg>
