<?xml version="1.0" encoding="UTF-8" standalone="no"?>
<!DOCTYPE svg PUBLIC "-//W3C//DTD SVG 1.1//EN" "http://www.w3.org/Graphics/SVG/1.1/DTD/svg11.dtd">
<!-- Generated by Microsoft Visio, SVG Export Lync Web App Client.svg Page-1 -->
<svg xmlns="http://www.w3.org/2000/svg" xmlns:xlink="http://www.w3.org/1999/xlink" xmlns:ev="http://www.w3.org/2001/xml-events"
		xmlns:v="http://schemas.microsoft.com/visio/2003/SVGExtensions/" width="1.24063in" height="0.789583in"
		viewBox="0 0 89.325 56.85" xml:space="preserve" color-interpolation-filters="sRGB" class="st5">
	<v:documentProperties v:langID="4108" v:metric="true" v:viewMarkup="false"/>

	<style type="text/css">
	<![CDATA[
		.st1 {fill:#ffffff;stroke:none;stroke-linecap:butt;stroke-width:0.75}
		.st2 {fill:#515251;stroke:none;stroke-linecap:butt;stroke-width:0.75}
		.st3 {fill:#2372ba;stroke:none;stroke-linecap:butt;stroke-width:0.75}
		.st4 {fill:#0773b8;stroke:none;stroke-linecap:butt;stroke-width:0.75}
		.st5 {fill:none;fill-rule:evenodd;font-size:12px;overflow:visible;stroke-linecap:square;stroke-miterlimit:3}
	]]>
	</style>

	<g v:mID="0" v:index="1" v:groupContext="foregroundPage">
		<title>Page-1</title>
		<v:pageProperties v:drawingScale="0.0393701" v:pageScale="0.0393701" v:drawingUnits="24" v:shadowOffsetX="8.50394"
				v:shadowOffsetY="-8.50394"/>
		<g id="group150-1" transform="translate(0.75,-0.75)" v:mID="150" v:groupContext="group">
			<title>Lync Web App Client</title>
			<g id="group151-2" v:mID="151" v:groupContext="group">
				<title>Sheet.151</title>
				<g id="group152-3" transform="translate(-7.19425E-14,-8.175)" v:mID="152" v:groupContext="group">
					<title>Sheet.152</title>
					<g id="shape153-4" v:mID="153" v:groupContext="shape">
						<title>Sheet.153</title>
						<path d="M5.25 56.85 C2.32 56.85 0 54.53 0 51.6 L0 17.1 C0 14.18 2.32 11.85 5.25 11.85 L52.5 11.85 C55.42
									 11.85 57.75 14.18 57.75 17.1 L57.75 51.6 C57.75 54.53 55.42 56.85 52.5 56.85 L5.25 56.85 Z"
								class="st1"/>
					</g>
					<g id="shape154-6" v:mID="154" v:groupContext="shape" transform="translate(2.25,-2.25)">
						<title>Sheet.154</title>
						<path d="M50.25 16.35 L3 16.35 C1.35 16.35 0 17.7 0 19.35 L0 53.85 C-0 55.5 1.35 56.85 3 56.85 L50.25 56.85
									 C51.9 56.85 53.25 55.5 53.25 53.85 L53.25 19.35 C53.25 17.7 51.9 16.35 50.25 16.35 ZM44.25 18.6
									 L46.5 18.6 L46.5 20.85 L44.25 20.85 L44.25 18.6 ZM39.75 18.6 L42 18.6 L42 20.85 L39.75 20.85
									 L39.75 18.6 ZM51 53.85 C51 54.3 50.7 54.6 50.25 54.6 L3 54.6 C2.55 54.6 2.25 54.3 2.25 53.85
									 L2.25 23.85 L51 23.85 L51 53.85 ZM51 20.85 L48.75 20.85 L48.75 18.6 L51 18.6 L51 20.85 Z"
								class="st2"/>
					</g>
				</g>
				<g id="group155-8" transform="translate(27.6,2.27374E-13)" v:mID="155" v:groupContext="group">
					<title>Sheet.155</title>
					<g id="shape156-9" v:mID="156" v:groupContext="shape">
						<title>Sheet.156</title>
						<ellipse cx="16.5" cy="40.35" rx="16.5" ry="16.5" class="st1"/>
					</g>
					<g id="group157-11" transform="translate(2.325,-2.325)" v:mID="157" v:groupContext="group">
						<title>Sheet.157</title>
						<g id="shape158-12" v:mID="158" v:groupContext="shape" transform="translate(15,-14.55)">
							<title>Sheet.158</title>
							<path d="M5.63 49.65 C3.9 50.18 1.95 50.48 0 50.55 L0 56.85 C2.4 56.78 4.73 56.48 6.83 55.88 C6.68 53.55
										 6.3 51.45 5.63 49.65 Z" class="st2"/>
						</g>
						<g id="shape159-14" v:mID="159" v:groupContext="shape" transform="translate(4.725,-23.775)">
							<title>Sheet.159</title>
							<path d="M4.5 53.1 C2.85 53.7 1.35 54.68 0 55.8 C0.68 56.18 1.43 56.55 2.18 56.85 C2.78 55.43 3.6 54.15
										 4.5 53.1 Z" class="st2"/>
						</g>
						<g id="shape160-16" v:mID="160" v:groupContext="shape" transform="translate(8.325,-22.35)">
							<title>Sheet.160</title>
							<path d="M0 56.03 C1.57 56.48 3.3 56.78 5.1 56.85 L5.1 50.85 C4.87 50.85 4.72 50.85 4.5 50.85 C2.77 51.45
										 1.2 53.4 0 56.03 Z" class="st2"/>
						</g>
						<g id="shape161-18" v:mID="161" v:groupContext="shape" transform="translate(6.675,-14.625)">
							<title>Sheet.161</title>
							<path d="M0 55.88 C2.1 56.48 4.43 56.78 6.83 56.85 L6.83 50.63 C4.87 50.55 2.93 50.25 1.2 49.73 C0.53
										 51.53 0.15 53.63 0 55.88 Z" class="st2"/>
						</g>
						<g id="shape162-20" v:mID="162" v:groupContext="shape" transform="translate(22.65,-8.325)">
							<title>Sheet.162</title>
							<path d="M0.68 50.93 C0.68 53.03 0.45 55.05 0 56.85 C2.03 56.1 3.9 55.13 5.48 53.93 C5.7 52.95 5.78 51.98
										 5.78 51 C5.78 50.1 5.7 49.2 5.55 48.38 C4.12 49.35 2.48 50.1 0.6 50.7 C0.68 50.78 0.68 50.85
										 0.68 50.93 Z" class="st2"/>
						</g>
						<g id="shape163-22" v:mID="163" v:groupContext="shape" transform="translate(-1.43885E-13,-8.175)">
							<title>Sheet.163</title>
							<path d="M5.17 50.78 C5.17 50.7 5.17 50.63 5.17 50.55 C3.38 49.95 1.65 49.13 0.22 48.23 C0.07 49.05 0
										 49.95 0 50.85 C-0 52.05 0.15 53.18 0.45 54.23 C2.1 55.35 3.9 56.25 5.85 56.85 C5.4 55.05
										 5.17 52.95 5.17 50.78 Z" class="st2"/>
						</g>
						<g id="shape164-24" v:mID="164" v:groupContext="shape" transform="translate(0.675,-16.05)">
							<title>Sheet.164</title>
							<path d="M3 49.2 C1.65 50.7 0.6 52.5 0 54.53 C1.27 55.5 2.85 56.25 4.58 56.85 C4.73 54.6 5.1 52.43 5.78
										 50.63 C4.73 50.25 3.82 49.73 3 49.2 Z" class="st2"/>
						</g>
						<g id="shape165-26" v:mID="165" v:groupContext="shape" transform="translate(14.925,-22.35)">
							<title>Sheet.165</title>
							<path d="M0.07 56.85 C1.87 56.78 3.6 56.48 5.17 56.03 C4.05 53.4 2.4 51.45 0.6 50.85 C0.37 50.85 0.22
										 50.85 0 50.85 L0.07 56.85 Z" class="st2"/>
						</g>
						<g id="shape166-28" v:mID="166" v:groupContext="shape" transform="translate(1.125,-0.75)">
							<title>Sheet.166</title>
							<path d="M5.17 51.23 C3.3 50.7 1.58 49.95 0 49.05 C1.58 52.65 4.58 55.5 8.33 56.85 C7.05 55.43 5.92 53.48
										 5.17 51.23 Z" class="st2"/>
						</g>
						<g id="shape167-30" v:mID="167" v:groupContext="shape" transform="translate(19.275,-23.7)">
							<title>Sheet.167</title>
							<path d="M0 53.03 C0.9 54.08 1.65 55.35 2.25 56.85 C3 56.55 3.75 56.18 4.43 55.8 C3.23 54.6 1.65 53.7
										 0 53.03 Z" class="st2"/>
						</g>
						<g id="shape168-32" v:mID="168" v:groupContext="shape" transform="translate(22.125,-16.05)">
							<title>Sheet.168</title>
							<path d="M5.78 54.53 C5.18 52.5 4.12 50.7 2.78 49.2 C1.95 49.73 1.05 50.18 0 50.63 C0.6 52.5 1.05 54.6
										 1.2 56.85 C2.85 56.25 4.43 55.5 5.78 54.53 Z" class="st2"/>
						</g>
						<g id="shape169-34" v:mID="169" v:groupContext="shape" transform="translate(19.05,-0.75)">
							<title>Sheet.169</title>
							<path d="M3.15 51.08 C2.4 53.48 1.35 55.43 0 56.85 C3.82 55.5 6.9 52.5 8.4 48.68 C6.82 49.65 5.03 50.48
										 3.15 51.08 Z" class="st2"/>
						</g>
						<g id="shape170-36" v:mID="170" v:groupContext="shape" transform="translate(8.1,1.13687E-13)">
							<title>Sheet.170</title>
							<path d="M5.4 56.85 L5.4 51.53 C3.53 51.53 1.73 51.3 0 50.93 C1.28 54.15 3.23 56.4 5.4 56.85 Z"
									class="st2"/>
						</g>
						<g id="shape171-38" v:mID="171" v:groupContext="shape" transform="translate(15,-6.825)">
							<title>Sheet.171</title>
							<path d="M6.83 49.65 C4.73 50.18 2.4 50.55 0 50.63 L0 56.85 C2.03 56.78 4.05 56.48 6 55.95 C6.53 54 6.83
										 51.9 6.83 49.65 Z" class="st2"/>
						</g>
						<g id="shape172-40" v:mID="172" v:groupContext="shape" transform="translate(6.675,-6.825)">
							<title>Sheet.172</title>
							<path d="M6.83 56.85 L6.83 50.63 C4.43 50.55 2.1 50.25 0 49.65 C0 51.98 0.37 54.15 0.9 56.03 C2.78 56.55
										 4.8 56.78 6.83 56.85 Z" class="st2"/>
						</g>
						<g id="shape173-42" v:mID="173" v:groupContext="shape" transform="translate(15,-0.075)">
							<title>Sheet.173</title>
							<path d="M0 51.53 L0 56.85 C2.18 56.4 4.2 54.08 5.4 50.78 C3.68 51.3 1.88 51.53 0 51.53 Z" class="st2"/>
						</g>
					</g>
				</g>
			</g>
			<g id="group174-44" transform="translate(57.75,-26.925)" v:mID="174" v:groupContext="group">
				<title>Sheet.174</title>
				<g id="shape175-45" v:mID="175" v:groupContext="shape">
					<title>Sheet.175</title>
					<path d="M30.07 43.05 C30.07 38.93 26.7 35.55 22.57 35.55 L22.2 35.55 L21.37 34.5 C20.7 33.6 19.8 33.07 18.75
								 33 L18.75 28.42 L16.35 28.42 L0 30.97 L0 54.3 L16.35 56.85 L18.75 56.85 L18.75 50.4 C19.12 50.48
								 19.42 50.48 19.8 50.48 L20.17 50.48 L21 51.53 C21.67 52.5 22.72 53.03 23.85 53.03 C25.8 53.03 27.3
								 51.45 27.3 49.58 C27.3 49.35 27.3 49.12 27.22 48.9 C28.95 47.55 30.07 45.45 30.07 43.05 Z"
							class="st1"/>
				</g>
				<g id="shape176-47" v:mID="176" v:groupContext="shape" transform="translate(2.25,-2.175)">
					<title>Sheet.176</title>
					<path d="M14.25 32.85 L0 35.1 L0 54.6 L14.25 56.85 L14.25 32.85 Z" class="st3"/>
				</g>
				<g id="shape177-49" v:mID="177" v:groupContext="shape" transform="translate(7.575,-9.15)">
					<title>Sheet.177</title>
					<path d="M1.8 46.95 L0 47.03 L0 56.55 L4.95 56.85 L4.95 54.9 L1.8 54.83 L1.8 46.95 Z" class="st1"/>
				</g>
				<g id="shape178-51" v:mID="178" v:groupContext="shape" transform="translate(17.25,-15.15)">
					<title>Sheet.178</title>
					<path d="M0.9 53.18 C0.6 53.25 0.3 53.4 0 53.55 L0 56.85 C0.45 55.95 1.42 55.28 2.55 55.28 L5.32 55.28 C5.47
								 55.28 5.7 55.28 5.7 55.28 L3.82 52.88 L2.32 51 C2.1 50.63 1.72 50.4 1.27 50.4 C0.6 50.4 0.08 50.93
								 0.08 51.6 C0.08 51.83 0.15 52.05 0.23 52.28 L0.9 53.18 Z" class="st4"/>
				</g>
				<g id="shape179-53" v:mID="179" v:groupContext="shape" transform="translate(17.25,-8.55)">
					<title>Sheet.179</title>
					<path d="M0 52.88 L0 56.18 C0.75 56.55 1.57 56.85 2.47 56.85 L3 56.85 L0.3 53.55 C0.23 53.33 0.07 53.18 0 52.88
								 Z" class="st4"/>
				</g>
				<g id="shape180-55" v:mID="180" v:groupContext="shape" transform="translate(19.425,-6.075)">
					<title>Sheet.180</title>
					<path d="M8.4 49.13 C8.4 46.2 6.07 43.88 3.15 43.88 L2.62 43.88 L5.32 47.18 C5.7 47.63 6 48.38 6 49.13 C6 50.7
								 4.72 51.98 3.15 51.98 L0.37 51.98 C0.22 51.98 0 51.98 0 51.98 L1.87 54.38 L3.37 56.25 C3.6 56.63
								 3.97 56.85 4.42 56.85 C5.1 56.85 5.62 56.33 5.62 55.65 C5.62 55.43 5.55 55.2 5.47 54.98 L4.8 54.08
								 C6.9 53.48 8.4 51.45 8.4 49.13 Z" class="st4"/>
				</g>
			</g>
		</g>
	</g>
</svg>
