<?xml version="1.0" encoding="UTF-8" standalone="no"?>
<!DOCTYPE svg PUBLIC "-//W3C//DTD SVG 1.1//EN" "http://www.w3.org/Graphics/SVG/1.1/DTD/svg11.dtd">
<!-- Generated by Microsoft Visio, SVG Export Mobility Service.svg Page-1 -->
<svg xmlns="http://www.w3.org/2000/svg" xmlns:xlink="http://www.w3.org/1999/xlink" xmlns:ev="http://www.w3.org/2001/xml-events"
		xmlns:v="http://schemas.microsoft.com/visio/2003/SVGExtensions/" width="0.875in" height="1.01563in" viewBox="0 0 63 73.125"
		xml:space="preserve" color-interpolation-filters="sRGB" class="st3">
	<v:documentProperties v:langID="4108" v:metric="true" v:viewMarkup="false"/>

	<style type="text/css">
	<![CDATA[
		.st1 {fill:#ffffff;stroke:none;stroke-linecap:butt;stroke-width:0.75}
		.st2 {fill:#515150;stroke:none;stroke-linecap:butt;stroke-width:0.75}
		.st3 {fill:none;fill-rule:evenodd;font-size:12px;overflow:visible;stroke-linecap:square;stroke-miterlimit:3}
	]]>
	</style>

	<g v:mID="0" v:index="1" v:groupContext="foregroundPage">
		<title>Page-1</title>
		<v:pageProperties v:drawingScale="0.0393701" v:pageScale="0.0393701" v:drawingUnits="24" v:shadowOffsetX="8.50394"
				v:shadowOffsetY="-8.50394"/>
		<v:layer v:name="symbols" v:index="0"/>
		<g id="group181-1" transform="translate(9,-7.6875)" v:mID="181" v:groupContext="group" v:layerMember="0">
			<title>Mobility Service</title>
			<g id="group182-2" transform="translate(0,-6)" v:mID="182" v:groupContext="group" v:layerMember="0">
				<title>Sheet.182</title>
				<g id="shape183-3" v:mID="183" v:groupContext="shape" v:layerMember="0">
					<title>Sheet.183</title>
					<path d="M5.25 73.13 C2.32 73.13 0 70.8 0 67.88 L0 26.63 C0 23.7 2.32 21.38 5.25 21.38 L25.5 21.38 C28.42 21.38
								 30.75 23.7 30.75 26.63 L30.75 67.88 C30.75 70.8 28.42 73.13 25.5 73.13 L5.25 73.13 Z" class="st1"/>
				</g>
				<g id="shape184-5" v:mID="184" v:groupContext="shape" v:layerMember="0" transform="translate(2.25,-2.25)">
					<title>Sheet.184</title>
					<path d="M23.25 25.88 L3 25.88 C1.35 25.88 0 27.23 0 28.88 L0 70.13 C0 71.78 1.35 73.13 3 73.13 L23.25 73.13
								 C24.9 73.13 26.25 71.78 26.25 70.13 L26.25 28.88 C26.25 27.23 24.9 25.88 23.25 25.88 ZM15.75 68.63
								 C15.75 69.08 15.45 69.38 15 69.38 L11.25 69.38 C10.8 69.38 10.5 69.08 10.5 68.63 L10.5 67.13 C10.5
								 66.68 10.8 66.38 11.25 66.38 L15 66.38 C15.45 66.38 15.75 66.68 15.75 67.13 L15.75 68.63 ZM23.25
								 63.38 L3 63.38 L3 31.88 L23.25 31.88 L23.25 63.38 Z" class="st2"/>
				</g>
			</g>
			<g id="group185-7" transform="translate(15.825,2.84217E-13)" v:mID="185" v:groupContext="group" v:layerMember="0">
				<title>Sheet.185</title>
				<g id="shape186-8" v:mID="186" v:groupContext="shape" v:layerMember="0">
					<title>Sheet.186</title>
					<path d="M20.85 73.13 C19.65 73.13 18.53 72.38 18.08 71.25 L17.4 69.68 C17.25 69.68 17.02 69.68 16.8 69.68 C16.57
								 69.68 16.35 69.68 16.13 69.68 L15.45 71.25 C15.08 72.38 13.95 73.13 12.75 73.13 C12.38 73.13 11.93
								 73.05 11.63 72.9 L8.77 71.7 C8.03 71.4 7.42 70.8 7.12 70.05 C6.83 69.3 6.83 68.48 7.12 67.73 L7.8
								 66.15 L6.97 65.33 L5.4 66 C5.03 66.15 4.65 66.23 4.28 66.23 C3.08 66.23 1.95 65.48 1.5 64.35 L0.3
								 61.5 C0 60.75 -0 59.93 0.3 59.18 C0.6 58.43 1.2 57.83 1.95 57.53 L3.52 56.85 L3.52 55.65 L1.95 54.98
								 C1.2 54.68 0.6 54.08 0.3 53.33 C0 52.58 -0 51.75 0.3 51 L1.5 48.15 C1.95 47.03 3.08 46.28 4.28 46.28
								 C4.65 46.28 5.03 46.35 5.4 46.5 L6.97 47.18 L7.8 46.35 L7.12 44.78 C6.83 44.03 6.83 43.2 7.12 42.45
								 C7.42 41.7 8.03 41.1 8.77 40.8 L11.63 39.6 C12 39.45 12.38 39.38 12.75 39.38 C13.95 39.38 15.08
								 40.13 15.53 41.25 L16.13 42.75 C16.28 42.75 16.5 42.75 16.73 42.75 C16.95 42.75 17.18 42.75 17.4
								 42.75 L18 41.18 C18.45 40.05 19.58 39.3 20.78 39.3 C21.15 39.3 21.53 39.38 21.9 39.53 L24.75 40.73
								 C25.5 41.03 26.1 41.63 26.4 42.38 C26.7 43.13 26.7 43.95 26.4 44.7 L25.72 46.28 L26.55 47.1 L28.13
								 46.43 C28.5 46.28 28.88 46.2 29.25 46.2 C30.45 46.2 31.58 46.95 32.03 48.08 L33.23 50.93 C33.53
								 51.68 33.53 52.5 33.23 53.25 C32.93 54 32.33 54.6 31.58 54.9 L30 55.58 L30 56.78 L31.58 57.45 C33.15
								 58.13 33.83 59.85 33.23 61.43 L32.03 64.28 C31.58 65.4 30.45 66.15 29.25 66.15 C28.88 66.15 28.43
								 66.08 28.05 65.93 L26.48 65.25 L25.65 66.08 L26.33 67.65 C26.62 68.4 26.62 69.23 26.33 69.98 C26.03
								 70.73 25.43 71.33 24.68 71.63 L21.82 72.83 C21.68 73.05 21.23 73.13 20.85 73.13 Z" class="st1"/>
				</g>
				<g id="shape187-10" v:mID="187" v:groupContext="shape" v:layerMember="0" transform="translate(2.025,-2.1)">
					<title>Sheet.187</title>
					<path d="M28.95 61.73 L26.55 60.75 C26.18 60.6 25.88 60.38 25.88 60.3 C25.88 60.23 25.95 59.78 25.95 59.4 L25.95
								 57.45 C25.95 57 25.88 56.63 25.88 56.55 C25.88 56.48 26.18 56.25 26.55 56.1 L28.95 55.13 C29.33
								 54.98 29.55 54.53 29.4 54.08 L28.2 51.23 C28.05 50.85 27.6 50.63 27.15 50.78 L24.75 51.75 C24.38
								 51.9 24 51.98 23.93 51.9 C23.85 51.83 23.63 51.53 23.32 51.15 L21.9 49.8 C21.6 49.5 21.23 49.28
								 21.23 49.2 C21.15 49.13 21.23 48.83 21.38 48.38 L22.35 45.98 C22.5 45.6 22.35 45.15 21.9 44.93 L19.05
								 43.73 C18.67 43.58 18.22 43.73 18 44.18 L17.03 46.58 C16.88 46.95 16.65 47.25 16.58 47.25 C16.5
								 47.25 16.05 47.18 15.68 47.1 C15.68 47.1 15.3 47.03 14.7 47.03 C14.1 47.03 13.72 47.1 13.72 47.1
								 C13.27 47.18 12.9 47.18 12.82 47.25 C12.75 47.25 12.52 46.95 12.38 46.58 L11.4 44.18 C11.25 43.8
								 10.8 43.58 10.35 43.73 L7.5 44.93 C7.13 45.08 6.9 45.53 7.05 45.98 L8.02 48.38 C8.17 48.75 8.25
								 49.13 8.17 49.2 C8.1 49.28 7.8 49.5 7.5 49.8 L6.08 51.23 C5.78 51.53 5.55 51.9 5.48 51.98 C5.4 52.05
								 5.1 51.98 4.65 51.83 L2.4 50.7 C2.03 50.55 1.58 50.7 1.35 51.15 L0.15 54 C0 54.38 0.15 54.83 0.6
								 55.05 L3 56.03 C3.37 56.18 3.67 56.4 3.67 56.48 C3.67 56.55 3.6 57 3.6 57.38 L3.6 59.33 C3.6 59.78
								 3.67 60.15 3.67 60.23 C3.67 60.3 3.37 60.53 3 60.68 L0.6 61.73 C0.23 61.88 0 62.33 0.15 62.78 L1.35
								 65.63 C1.5 66 1.95 66.23 2.4 66.08 L4.8 65.1 C5.18 64.95 5.55 64.88 5.63 64.95 C5.7 65.03 5.93 65.33
								 6.23 65.7 L7.65 67.05 C7.95 67.35 8.32 67.58 8.4 67.65 C8.47 67.73 8.4 68.1 8.25 68.48 L7.13 70.73
								 C6.98 71.1 7.13 71.55 7.57 71.78 L10.43 72.98 C10.8 73.13 11.25 72.98 11.48 72.53 L12.45 70.13 C12.6
								 69.75 12.82 69.45 12.9 69.45 C12.97 69.45 13.42 69.53 13.8 69.6 C13.8 69.6 14.18 69.68 14.78 69.68
								 C15.38 69.68 15.75 69.6 15.75 69.6 C16.2 69.53 16.58 69.53 16.65 69.45 C16.73 69.45 16.95 69.75
								 17.1 70.13 L18.07 72.53 C18.22 72.9 18.67 73.13 19.12 72.98 L21.98 71.78 C22.35 71.63 22.57 71.18
								 22.42 70.73 L21.45 68.33 C21.3 67.95 21.23 67.58 21.3 67.5 C21.38 67.43 21.68 67.2 22.05 66.9 L23.47
								 65.48 C23.77 65.18 24 64.8 24.08 64.73 C24.15 64.65 24.45 64.73 24.9 64.88 L27.3 65.85 C27.67 66
								 28.12 65.85 28.35 65.4 L29.55 62.55 C29.48 62.33 29.33 61.88 28.95 61.73 ZM14.78 66.08 C10.5 66.08
								 7.05 62.63 7.05 58.35 C7.05 54.08 10.5 50.63 14.78 50.63 C19.05 50.63 22.5 54.08 22.5 58.35 C22.5
								 62.63 19.05 66.08 14.78 66.08 Z" class="st2"/>
				</g>
			</g>
		</g>
	</g>
</svg>
