<?xml version="1.0" encoding="UTF-8" standalone="no"?>
<!DOCTYPE svg PUBLIC "-//W3C//DTD SVG 1.1//EN" "http://www.w3.org/Graphics/SVG/1.1/DTD/svg11.dtd">
<!-- Generated by Microsoft Visio, SVG Export Network File Share Service.svg Page-1 -->
<svg xmlns="http://www.w3.org/2000/svg" xmlns:xlink="http://www.w3.org/1999/xlink" xmlns:ev="http://www.w3.org/2001/xml-events"
		xmlns:v="http://schemas.microsoft.com/visio/2003/SVGExtensions/" width="1.04687in" height="0.921875in"
		viewBox="0 0 75.375 66.375" xml:space="preserve" color-interpolation-filters="sRGB" class="st3">
	<v:documentProperties v:langID="4108" v:metric="true" v:viewMarkup="false"/>

	<style type="text/css">
	<![CDATA[
		.st1 {fill:#ffffff;stroke:none;stroke-linecap:butt;stroke-width:0.75}
		.st2 {fill:#525352;stroke:none;stroke-linecap:butt;stroke-width:0.75}
		.st3 {fill:none;fill-rule:evenodd;font-size:12px;overflow:visible;stroke-linecap:square;stroke-miterlimit:3}
	]]>
	</style>

	<g v:mID="0" v:index="1" v:groupContext="foregroundPage">
		<title>Page-1</title>
		<v:pageProperties v:drawingScale="0.0393701" v:pageScale="0.0393701" v:drawingUnits="24" v:shadowOffsetX="8.50394"
				v:shadowOffsetY="-8.50394"/>
		<v:layer v:name="symbols" v:index="0"/>
		<g id="group188-1" transform="translate(10.725,-3.1875)" v:mID="188" v:groupContext="group" v:layerMember="0">
			<title>Network File Share Service</title>
			<g id="group189-2" transform="translate(-2.67786E-13,-8.25)" v:mID="189" v:groupContext="group" v:layerMember="0">
				<title>Sheet.189</title>
				<g id="shape190-3" v:mID="190" v:groupContext="shape" v:layerMember="0">
					<title>Sheet.190</title>
					<path d="M48.75 16.87 L36.15 16.87 C33.98 16.87 32.85 18 31.8 18.97 L25.2 25.12 L5.25 25.12 C2.33 25.12 0 27.45
								 0 30.37 L0 66.37 L54 66.37 L54 27.37 L54 25.12 L54 22.12 C54 19.2 51.67 16.87 48.75 16.87 Z"
							class="st1"/>
				</g>
				<g id="shape191-5" v:mID="191" v:groupContext="shape" v:layerMember="0" transform="translate(28.5,-41.25)">
					<title>Sheet.191</title>
					<path d="M23.25 66.37 L23.25 63.37 C23.25 61.72 21.9 60.37 20.25 60.37 L19.5 60.37 L13.28 60.37 L7.65 60.37 C6.38
								 60.37 5.77 60.97 4.88 61.87 L0 66.37 L23.25 66.37 Z" class="st2"/>
				</g>
				<g id="shape192-7" v:mID="192" v:groupContext="shape" v:layerMember="0" transform="translate(2.25,-2.25)">
					<title>Sheet.192</title>
					<path d="M3 29.62 C1.35 29.62 0 30.97 0 32.62 L0 66.37 L49.5 66.37 L49.5 34.87 L49.5 32.62 L49.5 29.62 L3 29.62
								 Z" class="st2"/>
				</g>
			</g>
			<g id="group193-9" transform="translate(26.325,2.98428E-13)" v:mID="193" v:groupContext="group" v:layerMember="0">
				<title>Sheet.193</title>
				<g id="shape194-10" v:mID="194" v:groupContext="shape" v:layerMember="0">
					<title>Sheet.194</title>
					<path d="M20.85 66.37 C19.65 66.37 18.52 65.62 18.08 64.5 L17.4 62.92 C17.25 62.92 17.02 62.92 16.8 62.92 C16.57
								 62.92 16.35 62.92 16.12 62.92 L15.45 64.5 C15.08 65.62 13.95 66.37 12.75 66.37 C12.38 66.37 11.93
								 66.3 11.63 66.15 L8.77 64.95 C8.03 64.65 7.42 64.05 7.12 63.3 C6.83 62.55 6.83 61.72 7.12 60.97
								 L7.8 59.4 L6.97 58.57 L5.4 59.25 C5.03 59.4 4.65 59.47 4.28 59.47 C3.07 59.47 1.95 58.72 1.5 57.6
								 L0.3 54.75 C-0 54 0 53.17 0.3 52.42 C0.6 51.67 1.2 51.07 1.95 50.77 L3.52 50.1 L3.52 48.9 L1.95
								 48.22 C1.2 47.92 0.6 47.32 0.3 46.57 C-0 45.82 0 45 0.3 44.25 L1.5 41.4 C1.95 40.27 3.07 39.52 4.28
								 39.52 C4.65 39.52 5.03 39.6 5.4 39.75 L6.97 40.42 L7.8 39.6 L7.12 38.02 C6.83 37.27 6.83 36.45 7.12
								 35.7 C7.42 34.95 8.03 34.35 8.77 34.05 L11.63 32.85 C12 32.7 12.38 32.62 12.75 32.62 C13.95 32.62
								 15.07 33.37 15.52 34.5 L16.12 36 C16.28 36 16.5 36 16.73 36 C16.95 36 17.18 36 17.4 36 L18 34.42
								 C18.45 33.3 19.57 32.55 20.77 32.55 C21.15 32.55 21.52 32.62 21.9 32.77 L24.75 33.97 C25.5 34.27
								 26.1 34.87 26.4 35.62 C26.7 36.37 26.7 37.2 26.4 37.95 L25.72 39.52 L26.55 40.35 L28.12 39.67 C28.5
								 39.52 28.87 39.45 29.25 39.45 C30.45 39.45 31.57 40.2 32.02 41.32 L33.22 44.17 C33.52 44.92 33.52
								 45.75 33.22 46.5 C32.92 47.25 32.32 47.85 31.57 48.15 L30 48.82 L30 50.02 L31.57 50.7 C33.15 51.37
								 33.82 53.1 33.22 54.67 L32.02 57.52 C31.57 58.65 30.45 59.4 29.25 59.4 C28.87 59.4 28.43 59.32 28.05
								 59.17 L26.47 58.5 L25.65 59.32 L26.32 60.9 C26.62 61.65 26.62 62.47 26.32 63.22 C26.02 63.97 25.42
								 64.57 24.67 64.87 L21.82 66.07 C21.67 66.3 21.22 66.37 20.85 66.37 Z" class="st1"/>
				</g>
				<g id="shape195-12" v:mID="195" v:groupContext="shape" v:layerMember="0" transform="translate(2.025,-2.1)">
					<title>Sheet.195</title>
					<path d="M28.95 54.97 L26.55 54 C26.17 53.85 25.87 53.62 25.87 53.55 C25.87 53.47 25.95 53.02 25.95 52.65 L25.95
								 50.7 C25.95 50.25 25.87 49.87 25.87 49.8 C25.87 49.72 26.17 49.5 26.55 49.35 L28.95 48.37 C29.32
								 48.22 29.55 47.77 29.4 47.32 L28.2 44.47 C28.05 44.1 27.6 43.87 27.15 44.02 L24.75 45 C24.37 45.15
								 24 45.22 23.92 45.15 C23.85 45.07 23.62 44.77 23.32 44.4 L21.9 43.05 C21.6 42.75 21.22 42.52 21.22
								 42.45 C21.15 42.37 21.22 42.07 21.37 41.62 L22.35 39.22 C22.5 38.85 22.35 38.4 21.9 38.17 L19.05
								 36.97 C18.67 36.82 18.22 36.97 18 37.42 L17.03 39.82 C16.88 40.2 16.65 40.5 16.57 40.5 C16.5 40.5
								 16.05 40.42 15.67 40.35 C15.67 40.35 15.3 40.27 14.7 40.27 C14.1 40.27 13.72 40.35 13.72 40.35 C13.27
								 40.42 12.9 40.42 12.82 40.5 C12.75 40.5 12.52 40.2 12.37 39.82 L11.4 37.42 C11.25 37.05 10.8 36.82
								 10.35 36.97 L7.5 38.17 C7.13 38.32 6.9 38.77 7.05 39.22 L8.02 41.62 C8.17 42 8.25 42.37 8.17 42.45
								 C8.1 42.52 7.8 42.75 7.5 43.05 L6.08 44.47 C5.78 44.77 5.55 45.15 5.47 45.22 C5.4 45.3 5.1 45.22
								 4.65 45.07 L2.4 43.95 C2.02 43.8 1.57 43.95 1.35 44.4 L0.15 47.25 C0 47.62 0.15 48.07 0.6 48.3 L3
								 49.27 C3.37 49.42 3.67 49.65 3.67 49.72 C3.67 49.8 3.6 50.25 3.6 50.62 L3.6 52.57 C3.6 53.02 3.67
								 53.4 3.67 53.47 C3.67 53.55 3.37 53.77 3 53.92 L0.6 54.97 C0.23 55.12 0 55.57 0.15 56.02 L1.35 58.87
								 C1.5 59.25 1.95 59.47 2.4 59.32 L4.8 58.35 C5.17 58.2 5.55 58.12 5.62 58.2 C5.7 58.27 5.93 58.57
								 6.23 58.95 L7.65 60.3 C7.95 60.6 8.32 60.82 8.4 60.9 C8.47 60.97 8.4 61.35 8.25 61.72 L7.13 63.97
								 C6.98 64.35 7.13 64.8 7.57 65.02 L10.42 66.22 C10.8 66.37 11.25 66.22 11.47 65.77 L12.45 63.37 C12.6
								 63 12.82 62.7 12.9 62.7 C12.97 62.7 13.42 62.77 13.8 62.85 C13.8 62.85 14.17 62.92 14.77 62.92 C15.37
								 62.92 15.75 62.85 15.75 62.85 C16.2 62.77 16.57 62.77 16.65 62.7 C16.72 62.7 16.95 63 17.1 63.37
								 L18.07 65.77 C18.22 66.15 18.67 66.37 19.12 66.22 L21.97 65.02 C22.35 64.87 22.57 64.42 22.42 63.97
								 L21.45 61.57 C21.3 61.2 21.22 60.82 21.3 60.75 C21.37 60.67 21.67 60.45 22.05 60.15 L23.47 58.72
								 C23.77 58.42 24 58.05 24.07 57.97 C24.15 57.9 24.45 57.97 24.9 58.12 L27.3 59.1 C27.67 59.25 28.12
								 59.1 28.35 58.65 L29.55 55.8 C29.47 55.57 29.32 55.12 28.95 54.97 ZM14.77 59.32 C10.5 59.32 7.05
								 55.87 7.05 51.6 C7.05 47.32 10.5 43.87 14.77 43.87 C19.05 43.87 22.5 47.32 22.5 51.6 C22.5 55.87
								 19.05 59.32 14.77 59.32 Z" class="st2"/>
				</g>
			</g>
		</g>
	</g>
</svg>
