<?xml version="1.0" encoding="UTF-8" standalone="no"?>
<!DOCTYPE svg PUBLIC "-//W3C//DTD SVG 1.1//EN" "http://www.w3.org/Graphics/SVG/1.1/DTD/svg11.dtd">
<!-- Generated by Microsoft Visio, SVG Export Online Hosted Services.svg Page-1 -->
<svg xmlns="http://www.w3.org/2000/svg" xmlns:xlink="http://www.w3.org/1999/xlink" xmlns:ev="http://www.w3.org/2001/xml-events"
		xmlns:v="http://schemas.microsoft.com/visio/2003/SVGExtensions/" width="1.05938in" height="0.9375in"
		viewBox="0 0 76.275 67.5" xml:space="preserve" color-interpolation-filters="sRGB" class="st4">
	<v:documentProperties v:langID="4108" v:metric="true" v:viewMarkup="false"/>

	<style type="text/css">
	<![CDATA[
		.st1 {fill:#ffffff;stroke:none;stroke-linecap:butt;stroke-width:0.75}
		.st2 {fill:#515150;stroke:none;stroke-linecap:butt;stroke-width:0.75}
		.st3 {fill:#535352;stroke:none;stroke-linecap:butt;stroke-width:0.75}
		.st4 {fill:none;fill-rule:evenodd;font-size:12px;overflow:visible;stroke-linecap:square;stroke-miterlimit:3}
	]]>
	</style>

	<g v:mID="0" v:index="1" v:groupContext="foregroundPage">
		<title>Page-1</title>
		<v:pageProperties v:drawingScale="0.0393701" v:pageScale="0.0393701" v:drawingUnits="24" v:shadowOffsetX="8.50394"
				v:shadowOffsetY="-8.50394"/>
		<v:layer v:name="symbols" v:index="0"/>
		<g id="group196-1" transform="translate(9.8625,-2.8125)" v:mID="196" v:groupContext="group" v:layerMember="0">
			<title>Online Hosted Services</title>
			<g id="group197-2" v:mID="197" v:groupContext="group" v:layerMember="0">
				<title>Sheet.197</title>
				<g id="group198-3" transform="translate(0,-11.25)" v:mID="198" v:groupContext="group" v:layerMember="0">
					<title>Sheet.198</title>
					<g id="group199-4" v:mID="199" v:groupContext="group" v:layerMember="0">
						<title>Sheet.199</title>
						<g id="shape200-5" v:mID="200" v:groupContext="shape" v:layerMember="0">
							<title>Sheet.200</title>
							<path d="M5.25 67.5 C2.32 67.5 0 65.17 0 62.25 L0 27.75 C0 24.83 2.32 22.5 5.25 22.5 L52.5 22.5 C55.42
										 22.5 57.75 24.83 57.75 27.75 L57.75 62.25 C57.75 65.17 55.42 67.5 52.5 67.5 L5.25 67.5 Z"
									class="st1"/>
						</g>
						<g id="shape201-7" v:mID="201" v:groupContext="shape" v:layerMember="0" transform="translate(2.25,-2.25)">
							<title>Sheet.201</title>
							<path d="M50.25 27 L3 27 C1.35 27 0 28.35 0 30 L0 64.5 C-0 66.15 1.35 67.5 3 67.5 L50.25 67.5 C51.9 67.5
										 53.25 66.15 53.25 64.5 L53.25 30 C53.25 28.35 51.9 27 50.25 27 ZM44.25 29.25 L46.5 29.25
										 L46.5 31.5 L44.25 31.5 L44.25 29.25 ZM39.75 29.25 L42 29.25 L42 31.5 L39.75 31.5 L39.75
										 29.25 ZM51 64.5 C51 64.95 50.7 65.25 50.25 65.25 L3 65.25 C2.55 65.25 2.25 64.95 2.25 64.5
										 L2.25 34.5 L51 34.5 L51 64.5 ZM51 31.5 L48.75 31.5 L48.75 29.25 L51 29.25 L51 31.5 Z"
									class="st2"/>
						</g>
					</g>
					<g id="group202-9" transform="translate(16.425,-8.25)" v:mID="202" v:groupContext="group" v:layerMember="0">
						<title>Sheet.202</title>
						<g id="shape203-10" v:mID="203" v:groupContext="shape" v:layerMember="0"
								transform="translate(12.3,-11.925)">
							<title>Sheet.203</title>
							<path d="M4.65 61.65 C3.23 62.1 1.65 62.33 0 62.4 L0 67.5 C1.95 67.43 3.83 67.2 5.55 66.67 C5.48 64.87
										 5.1 63.15 4.65 61.65 Z" class="st2"/>
						</g>
						<g id="shape204-12" v:mID="204" v:groupContext="shape" v:layerMember="0" transform="translate(3.9,-19.275)">
							<title>Sheet.204</title>
							<path d="M3.67 64.35 C2.32 64.87 1.12 65.62 0 66.6 C0.52 66.9 1.12 67.2 1.8 67.5 C2.32 66.22 2.92 65.17
										 3.67 64.35 Z" class="st2"/>
						</g>
						<g id="shape205-14" v:mID="205" v:groupContext="shape" v:layerMember="0" transform="translate(6.9,-18.225)">
							<title>Sheet.205</title>
							<path d="M0 66.82 C1.27 67.2 2.7 67.43 4.2 67.5 L4.2 62.55 C4.05 62.55 3.9 62.55 3.75 62.55 C2.25 63.07
										 0.9 64.65 0 66.82 Z" class="st2"/>
						</g>
						<g id="shape206-16" v:mID="206" v:groupContext="shape" v:layerMember="0" transform="translate(5.55,-11.85)">
							<title>Sheet.206</title>
							<path d="M0 66.67 C1.73 67.12 3.6 67.42 5.55 67.5 L5.55 62.4 C3.9 62.33 2.4 62.1 0.9 61.65 C0.45 63.07
										 0.07 64.8 0 66.67 Z" class="st2"/>
						</g>
						<g id="shape207-18" v:mID="207" v:groupContext="shape" v:layerMember="0" transform="translate(18.6,-6.75)">
							<title>Sheet.207</title>
							<path d="M0.52 62.62 C0.52 64.35 0.3 66 0 67.5 C1.65 66.9 3.15 66.07 4.5 65.1 C4.65 64.35 4.72 63.52
										 4.72 62.7 C4.72 61.95 4.65 61.27 4.5 60.6 C3.3 61.35 1.95 62.02 0.45 62.47 C0.52 62.47 0.52
										 62.55 0.52 62.62 Z" class="st2"/>
						</g>
						<g id="shape208-20" v:mID="208" v:groupContext="shape" v:layerMember="0"
								transform="translate(4.996E-16,-6.6)">
							<title>Sheet.208</title>
							<path d="M4.27 62.47 C4.27 62.4 4.27 62.4 4.27 62.32 C2.77 61.8 1.42 61.2 0.22 60.45 C0.07 61.12 0 61.88
										 0 62.55 C0 63.53 0.15 64.42 0.37 65.33 C1.72 66.22 3.22 66.97 4.8 67.5 C4.5 65.92 4.27 64.27
										 4.27 62.47 Z" class="st2"/>
						</g>
						<g id="shape209-22" v:mID="209" v:groupContext="shape" v:layerMember="0" transform="translate(0.6,-13.125)">
							<title>Sheet.209</title>
							<path d="M2.47 61.28 C1.35 62.55 0.52 63.98 0 65.62 C1.05 66.38 2.32 67.05 3.75 67.5 C3.82 65.62 4.2
										 63.9 4.72 62.4 C3.9 62.1 3.15 61.73 2.47 61.28 Z" class="st2"/>
						</g>
						<g id="shape210-24" v:mID="210" v:groupContext="shape" v:layerMember="0"
								transform="translate(12.3,-18.225)">
							<title>Sheet.210</title>
							<path d="M0 67.5 C1.5 67.42 2.92 67.2 4.2 66.82 C3.3 64.65 1.95 63.07 0.45 62.62 C0.3 62.62 0.15 62.62
										 0 62.62 L0 67.5 Z" class="st2"/>
						</g>
						<g id="shape211-26" v:mID="211" v:groupContext="shape" v:layerMember="0" transform="translate(1.05,-0.675)">
							<title>Sheet.211</title>
							<path d="M4.2 62.92 C2.7 62.47 1.28 61.87 0 61.12 C1.28 64.05 3.75 66.38 6.75 67.5 C5.7 66.45 4.8 64.87
										 4.2 62.92 Z" class="st2"/>
						</g>
						<g id="shape212-28" v:mID="212" v:groupContext="shape" v:layerMember="0"
								transform="translate(15.825,-19.35)">
							<title>Sheet.212</title>
							<path d="M0 64.43 C0.75 65.25 1.35 66.3 1.87 67.5 C2.47 67.28 3.07 66.98 3.67 66.6 C2.55 65.7 1.35 64.95
										 0 64.43 Z" class="st2"/>
						</g>
						<g id="shape213-30" v:mID="213" v:groupContext="shape" v:layerMember="0"
								transform="translate(18.075,-13.125)">
							<title>Sheet.213</title>
							<path d="M4.72 65.62 C4.2 63.98 3.37 62.55 2.25 61.28 C1.57 61.73 0.82 62.1 0 62.4 C0.52 63.9 0.82 65.62
										 0.97 67.5 C2.4 67.05 3.67 66.45 4.72 65.62 Z" class="st2"/>
						</g>
						<g id="shape214-32" v:mID="214" v:groupContext="shape" v:layerMember="0" transform="translate(15.675,-0.6)">
							<title>Sheet.214</title>
							<path d="M2.55 62.77 C1.95 64.72 1.05 66.3 0 67.5 C3.15 66.37 5.62 63.9 6.9 60.82 C5.47 61.65 4.05 62.25
										 2.55 62.77 Z" class="st2"/>
						</g>
						<g id="shape215-34" v:mID="215" v:groupContext="shape" v:layerMember="0" transform="translate(6.75,0)">
							<title>Sheet.215</title>
							<path d="M4.35 67.5 L4.35 63.15 C2.85 63.15 1.35 62.92 0 62.62 C0.97 65.32 2.55 67.12 4.35 67.5 Z"
									class="st2"/>
						</g>
						<g id="shape216-36" v:mID="216" v:groupContext="shape" v:layerMember="0" transform="translate(12.3,-5.55)">
							<title>Sheet.216</title>
							<path d="M5.55 61.65 C3.83 62.1 1.95 62.4 0 62.4 L0 67.5 C1.65 67.42 3.3 67.2 4.88 66.75 C5.33 65.17
										 5.55 63.45 5.55 61.65 Z" class="st2"/>
						</g>
						<g id="shape217-38" v:mID="217" v:groupContext="shape" v:layerMember="0" transform="translate(5.55,-5.55)">
							<title>Sheet.217</title>
							<path d="M5.55 67.5 L5.55 62.4 C3.6 62.33 1.73 62.1 0 61.65 C-0 63.52 0.3 65.32 0.75 66.9 C2.25 67.2
										 3.9 67.43 5.55 67.5 Z" class="st2"/>
						</g>
						<g id="shape218-40" v:mID="218" v:groupContext="shape" v:layerMember="0"
								transform="translate(12.3,1.13687E-13)">
							<title>Sheet.218</title>
							<path d="M0 63.15 L0 67.5 C1.8 67.12 3.38 65.25 4.43 62.55 C3 62.92 1.5 63.07 0 63.15 Z" class="st2"/>
						</g>
					</g>
				</g>
				<g id="group219-42" transform="translate(26.325,-2.84217E-13)" v:mID="219" v:groupContext="group" v:layerMember="0">
					<title>Sheet.219</title>
					<g id="shape220-43" v:mID="220" v:groupContext="shape" v:layerMember="0">
						<title>Sheet.220</title>
						<path d="M20.85 67.5 C19.65 67.5 18.52 66.75 18.08 65.63 L17.4 64.05 C17.25 64.05 17.02 64.05 16.8 64.05
									 C16.57 64.05 16.35 64.05 16.12 64.05 L15.45 65.63 C15.08 66.75 13.95 67.5 12.75 67.5 C12.38
									 67.5 11.93 67.43 11.63 67.28 L8.77 66.07 C8.03 65.78 7.42 65.17 7.12 64.43 C6.83 63.67 6.83
									 62.85 7.12 62.1 L7.8 60.53 L6.97 59.7 L5.4 60.38 C5.03 60.53 4.65 60.6 4.28 60.6 C3.07 60.6
									 1.95 59.85 1.5 58.73 L0.3 55.87 C-0 55.13 -0 54.3 0.3 53.55 C0.6 52.8 1.2 52.2 1.95 51.9 L3.52
									 51.23 L3.52 50.03 L1.95 49.35 C1.2 49.05 0.6 48.45 0.3 47.7 C-0 46.95 -0 46.13 0.3 45.38 L1.5
									 42.53 C1.95 41.4 3.07 40.65 4.28 40.65 C4.65 40.65 5.03 40.73 5.4 40.88 L6.97 41.55 L7.8 40.73
									 L7.12 39.15 C6.83 38.4 6.83 37.58 7.12 36.83 C7.42 36.08 8.03 35.48 8.77 35.18 L11.63 33.98
									 C12 33.83 12.38 33.75 12.75 33.75 C13.95 33.75 15.07 34.5 15.52 35.63 L16.12 37.13 C16.28 37.13
									 16.5 37.13 16.73 37.13 C16.95 37.13 17.18 37.13 17.4 37.13 L18 35.55 C18.45 34.43 19.57 33.68
									 20.77 33.68 C21.15 33.68 21.52 33.75 21.9 33.9 L24.75 35.1 C25.5 35.4 26.1 36 26.4 36.75 C26.7
									 37.5 26.7 38.33 26.4 39.08 L25.72 40.65 L26.55 41.48 L28.12 40.8 C28.5 40.65 28.87 40.58 29.25
									 40.58 C30.45 40.58 31.57 41.33 32.02 42.45 L33.22 45.3 C33.52 46.05 33.52 46.87 33.22 47.63
									 C32.92 48.38 32.32 48.98 31.57 49.28 L30 49.95 L30 51.15 L31.57 51.83 C33.15 52.5 33.82 54.22
									 33.22 55.8 L32.02 58.65 C31.57 59.77 30.45 60.53 29.25 60.53 C28.87 60.53 28.42 60.45 28.05
									 60.3 L26.47 59.63 L25.65 60.45 L26.32 62.02 C26.62 62.77 26.62 63.6 26.32 64.35 C26.02 65.1
									 25.42 65.7 24.67 66 L21.82 67.2 C21.67 67.43 21.22 67.5 20.85 67.5 Z" class="st1"/>
					</g>
					<g id="shape221-45" v:mID="221" v:groupContext="shape" v:layerMember="0" transform="translate(2.025,-2.1)">
						<title>Sheet.221</title>
						<path d="M28.95 56.1 L26.55 55.13 C26.17 54.98 25.87 54.75 25.87 54.68 C25.87 54.6 25.95 54.15 25.95 53.78
									 L25.95 51.83 C25.95 51.38 25.87 51 25.87 50.93 C25.87 50.85 26.17 50.62 26.55 50.47 L28.95 49.5
									 C29.32 49.35 29.55 48.9 29.4 48.45 L28.2 45.6 C28.05 45.23 27.6 45 27.15 45.15 L24.75 46.13
									 C24.37 46.28 24 46.35 23.92 46.28 C23.85 46.2 23.62 45.9 23.32 45.53 L21.9 44.18 C21.6 43.88
									 21.22 43.65 21.22 43.58 C21.15 43.5 21.22 43.2 21.37 42.75 L22.35 40.35 C22.5 39.98 22.35 39.53
									 21.9 39.3 L19.05 38.1 C18.67 37.95 18.22 38.1 18 38.55 L17.03 40.95 C16.87 41.33 16.65 41.63
									 16.57 41.63 C16.5 41.63 16.05 41.55 15.67 41.48 C15.67 41.48 15.3 41.4 14.7 41.4 C14.1 41.4
									 13.72 41.48 13.72 41.48 C13.27 41.55 12.9 41.55 12.82 41.63 C12.75 41.63 12.52 41.33 12.37 40.95
									 L11.4 38.55 C11.25 38.18 10.8 37.95 10.35 38.1 L7.5 39.3 C7.13 39.45 6.9 39.9 7.05 40.35 L8.02
									 42.75 C8.17 43.13 8.25 43.5 8.17 43.58 C8.1 43.65 7.8 43.88 7.43 44.18 L6 45.6 C5.7 45.9 5.47
									 46.28 5.4 46.35 C5.32 46.43 5.02 46.35 4.57 46.2 L2.4 45.08 C2.02 44.93 1.57 45.08 1.35 45.53
									 L0.15 48.38 C0 48.75 0.15 49.2 0.6 49.43 L3 50.4 C3.37 50.55 3.67 50.78 3.67 50.85 C3.67 50.93
									 3.6 51.38 3.6 51.75 L3.6 53.7 C3.6 54.15 3.67 54.53 3.67 54.6 C3.67 54.68 3.37 54.9 3 55.05
									 L0.6 56.1 C0.23 56.25 0 56.7 0.15 57.15 L1.35 60 C1.5 60.37 1.95 60.6 2.32 60.45 L4.72 59.48
									 C5.1 59.33 5.47 59.25 5.55 59.33 C5.63 59.4 5.85 59.7 6.15 60.07 L7.57 61.42 C7.87 61.72 8.25
									 61.95 8.32 62.03 C8.4 62.1 8.32 62.48 8.17 62.85 L7.13 65.1 C6.98 65.48 7.13 65.93 7.57 66.15
									 L10.42 67.35 C10.8 67.5 11.25 67.35 11.47 66.9 L12.45 64.5 C12.6 64.13 12.82 63.83 12.9 63.83
									 C12.97 63.83 13.42 63.9 13.8 63.98 C13.8 63.98 14.17 64.05 14.77 64.05 C15.37 64.05 15.75 63.98
									 15.75 63.98 C16.2 63.9 16.57 63.9 16.65 63.83 C16.72 63.83 16.95 64.13 17.1 64.5 L18.07 66.9
									 C18.22 67.28 18.67 67.5 19.12 67.35 L21.97 66.15 C22.35 66 22.57 65.55 22.42 65.1 L21.45 62.7
									 C21.3 62.33 21.22 61.95 21.3 61.87 C21.37 61.8 21.67 61.57 22.05 61.27 L23.47 59.85 C23.77 59.55
									 24 59.18 24.07 59.1 C24.15 59.03 24.45 59.1 24.9 59.25 L27.3 60.22 C27.67 60.37 28.12 60.22
									 28.35 59.78 L29.55 56.92 C29.47 56.7 29.32 56.25 28.95 56.1 ZM14.77 60.45 C10.5 60.45 7.05 57
									 7.05 52.73 C7.05 48.45 10.5 45 14.77 45 C19.05 45 22.5 48.45 22.5 52.73 C22.5 57 19.05 60.45
									 14.77 60.45 Z" class="st3"/>
					</g>
				</g>
			</g>
		</g>
	</g>
</svg>
