<?xml version="1.0" encoding="UTF-8" standalone="no"?>
<!DOCTYPE svg PUBLIC "-//W3C//DTD SVG 1.1//EN" "http://www.w3.org/Graphics/SVG/1.1/DTD/svg11.dtd">
<!-- Generated by Microsoft Visio, SVG Export Outlook Web App.svg Page-1 -->
<svg xmlns="http://www.w3.org/2000/svg" xmlns:xlink="http://www.w3.org/1999/xlink" xmlns:ev="http://www.w3.org/2001/xml-events"
		xmlns:v="http://schemas.microsoft.com/visio/2003/SVGExtensions/" width="1.35938in" height="0.984375in"
		viewBox="0 0 97.875 70.875" xml:space="preserve" color-interpolation-filters="sRGB" class="st4">
	<v:documentProperties v:langID="4108" v:metric="true" v:viewMarkup="false"/>

	<style type="text/css">
	<![CDATA[
		.st1 {fill:#ffffff;stroke:none;stroke-linecap:butt;stroke-width:0.75}
		.st2 {fill:#515251;stroke:none;stroke-linecap:butt;stroke-width:0.75}
		.st3 {fill:#2372ba;stroke:none;stroke-linecap:butt;stroke-width:0.75}
		.st4 {fill:none;fill-rule:evenodd;font-size:12px;overflow:visible;stroke-linecap:square;stroke-miterlimit:3}
	]]>
	</style>

	<g v:mID="0" v:index="1" v:groupContext="foregroundPage">
		<title>Page-1</title>
		<v:pageProperties v:drawingScale="0.0393701" v:pageScale="0.0393701" v:drawingUnits="24" v:shadowOffsetX="8.50394"
				v:shadowOffsetY="-8.50394"/>
		<v:layer v:name="symbols" v:index="0"/>
		<g id="group222-1" transform="translate(10.125,-8.85)" v:mID="222" v:groupContext="group" v:layerMember="0">
			<title>Outlook Web App</title>
			<g id="group223-2" v:mID="223" v:groupContext="group" v:layerMember="0">
				<title>Sheet.223</title>
				<g id="group224-3" transform="translate(0,-8.175)" v:mID="224" v:groupContext="group" v:layerMember="0">
					<title>Sheet.224</title>
					<g id="shape225-4" v:mID="225" v:groupContext="shape" v:layerMember="0">
						<title>Sheet.225</title>
						<path d="M5.25 70.87 C2.32 70.87 0 68.55 0 65.62 L0 31.12 C0 28.2 2.32 25.87 5.25 25.87 L52.5 25.87 C55.42
									 25.87 57.75 28.2 57.75 31.12 L57.75 65.62 C57.75 68.55 55.42 70.87 52.5 70.87 L5.25 70.87 Z"
								class="st1"/>
					</g>
					<g id="shape226-6" v:mID="226" v:groupContext="shape" v:layerMember="0" transform="translate(2.25,-2.25)">
						<title>Sheet.226</title>
						<path d="M50.25 30.37 L3 30.37 C1.35 30.37 0 31.72 0 33.37 L0 67.87 C0 69.52 1.35 70.87 3 70.87 L50.25 70.87
									 C51.9 70.87 53.25 69.52 53.25 67.87 L53.25 33.37 C53.25 31.72 51.9 30.37 50.25 30.37 ZM44.25
									 32.62 L46.5 32.62 L46.5 34.87 L44.25 34.87 L44.25 32.62 ZM39.75 32.62 L42 32.62 L42 34.87 L39.75
									 34.87 L39.75 32.62 ZM51 67.87 C51 68.32 50.7 68.62 50.25 68.62 L3 68.62 C2.55 68.62 2.25 68.32
									 2.25 67.87 L2.25 37.87 L51 37.87 L51 67.87 ZM51 34.87 L48.75 34.87 L48.75 32.62 L51 32.62 L51
									 34.87 Z" class="st2"/>
					</g>
				</g>
				<g id="group227-8" transform="translate(27.6,2.70006E-13)" v:mID="227" v:groupContext="group" v:layerMember="0">
					<title>Sheet.227</title>
					<g id="shape228-9" v:mID="228" v:groupContext="shape" v:layerMember="0">
						<title>Sheet.228</title>
						<ellipse cx="16.5" cy="54.375" rx="16.5" ry="16.5" class="st1"/>
					</g>
					<g id="group229-11" transform="translate(2.325,-2.325)" v:mID="229" v:groupContext="group" v:layerMember="0">
						<title>Sheet.229</title>
						<g id="shape230-12" v:mID="230" v:groupContext="shape" v:layerMember="0" transform="translate(15,-14.55)">
							<title>Sheet.230</title>
							<path d="M5.62 63.67 C3.9 64.2 1.95 64.5 0 64.57 L0 70.87 C2.4 70.8 4.73 70.5 6.83 69.9 C6.68 67.57 6.3
										 65.47 5.62 63.67 Z" class="st2"/>
						</g>
						<g id="shape231-14" v:mID="231" v:groupContext="shape" v:layerMember="0"
								transform="translate(4.725,-23.775)">
							<title>Sheet.231</title>
							<path d="M4.5 67.12 C2.85 67.72 1.35 68.7 0 69.82 C0.68 70.2 1.43 70.57 2.17 70.87 C2.78 69.45 3.6 68.17
										 4.5 67.12 Z" class="st2"/>
						</g>
						<g id="shape232-16" v:mID="232" v:groupContext="shape" v:layerMember="0"
								transform="translate(8.325,-22.35)">
							<title>Sheet.232</title>
							<path d="M0 70.05 C1.57 70.5 3.3 70.8 5.1 70.87 L5.1 64.87 C4.87 64.87 4.72 64.87 4.5 64.87 C2.77 65.47
										 1.2 67.42 0 70.05 Z" class="st2"/>
						</g>
						<g id="shape233-18" v:mID="233" v:groupContext="shape" v:layerMember="0"
								transform="translate(6.675,-14.625)">
							<title>Sheet.233</title>
							<path d="M0 69.9 C2.1 70.5 4.43 70.8 6.83 70.87 L6.83 64.65 C4.87 64.57 2.93 64.27 1.2 63.75 C0.53 65.55
										 0.15 67.65 0 69.9 Z" class="st2"/>
						</g>
						<g id="shape234-20" v:mID="234" v:groupContext="shape" v:layerMember="0"
								transform="translate(22.65,-8.325)">
							<title>Sheet.234</title>
							<path d="M0.68 64.95 C0.68 67.05 0.45 69.07 0 70.87 C2.02 70.12 3.9 69.15 5.48 67.95 C5.7 66.97 5.78
										 66 5.78 65.02 C5.78 64.12 5.7 63.22 5.55 62.4 C4.12 63.37 2.48 64.12 0.6 64.72 C0.68 64.8
										 0.68 64.87 0.68 64.95 Z" class="st2"/>
						</g>
						<g id="shape235-22" v:mID="235" v:groupContext="shape" v:layerMember="0"
								transform="translate(-1.41887E-13,-8.175)">
							<title>Sheet.235</title>
							<path d="M5.17 64.8 C5.17 64.72 5.17 64.65 5.17 64.57 C3.38 63.97 1.65 63.15 0.22 62.25 C0.07 63.07 0
										 63.97 0 64.87 C-0 66.07 0.15 67.2 0.45 68.25 C2.1 69.37 3.9 70.27 5.85 70.87 C5.4 69.07
										 5.17 66.97 5.17 64.8 Z" class="st2"/>
						</g>
						<g id="shape236-24" v:mID="236" v:groupContext="shape" v:layerMember="0"
								transform="translate(0.675,-16.05)">
							<title>Sheet.236</title>
							<path d="M3 63.22 C1.65 64.72 0.6 66.52 0 68.55 C1.27 69.52 2.85 70.27 4.57 70.87 C4.73 68.62 5.1 66.45
										 5.78 64.65 C4.73 64.27 3.82 63.75 3 63.22 Z" class="st2"/>
						</g>
						<g id="shape237-26" v:mID="237" v:groupContext="shape" v:layerMember="0"
								transform="translate(14.925,-22.35)">
							<title>Sheet.237</title>
							<path d="M0.07 70.87 C1.87 70.8 3.6 70.5 5.17 70.05 C4.05 67.42 2.4 65.47 0.6 64.87 C0.37 64.87 0.22
										 64.87 0 64.87 L0.07 70.87 Z" class="st2"/>
						</g>
						<g id="shape238-28" v:mID="238" v:groupContext="shape" v:layerMember="0" transform="translate(1.125,-0.75)">
							<title>Sheet.238</title>
							<path d="M5.17 65.25 C3.3 64.72 1.57 63.97 0 63.07 C1.57 66.67 4.57 69.52 8.32 70.87 C7.05 69.45 5.92
										 67.5 5.17 65.25 Z" class="st2"/>
						</g>
						<g id="shape239-30" v:mID="239" v:groupContext="shape" v:layerMember="0"
								transform="translate(19.275,-23.7)">
							<title>Sheet.239</title>
							<path d="M0 67.05 C0.9 68.1 1.65 69.37 2.25 70.87 C3 70.57 3.75 70.2 4.43 69.82 C3.23 68.62 1.65 67.72
										 0 67.05 Z" class="st2"/>
						</g>
						<g id="shape240-32" v:mID="240" v:groupContext="shape" v:layerMember="0"
								transform="translate(22.125,-16.05)">
							<title>Sheet.240</title>
							<path d="M5.78 68.55 C5.18 66.52 4.12 64.72 2.77 63.22 C1.95 63.75 1.05 64.2 0 64.65 C0.6 66.52 1.05
										 68.62 1.2 70.87 C2.85 70.27 4.43 69.52 5.78 68.55 Z" class="st2"/>
						</g>
						<g id="shape241-34" v:mID="241" v:groupContext="shape" v:layerMember="0" transform="translate(19.05,-0.75)">
							<title>Sheet.241</title>
							<path d="M3.15 65.1 C2.4 67.5 1.35 69.45 0 70.87 C3.82 69.52 6.9 66.52 8.4 62.7 C6.82 63.67 5.02 64.5
										 3.15 65.1 Z" class="st2"/>
						</g>
						<g id="shape242-36" v:mID="242" v:groupContext="shape" v:layerMember="0"
								transform="translate(8.1,1.42109E-13)">
							<title>Sheet.242</title>
							<path d="M5.4 70.87 L5.4 65.55 C3.53 65.55 1.73 65.32 0 64.95 C1.28 68.17 3.23 70.42 5.4 70.87 Z"
									class="st2"/>
						</g>
						<g id="shape243-38" v:mID="243" v:groupContext="shape" v:layerMember="0" transform="translate(15,-6.825)">
							<title>Sheet.243</title>
							<path d="M6.83 63.67 C4.73 64.2 2.4 64.57 0 64.65 L0 70.87 C2.03 70.8 4.05 70.5 6 69.97 C6.53 68.02 6.83
										 65.92 6.83 63.67 Z" class="st2"/>
						</g>
						<g id="shape244-40" v:mID="244" v:groupContext="shape" v:layerMember="0"
								transform="translate(6.675,-6.825)">
							<title>Sheet.244</title>
							<path d="M6.83 70.87 L6.83 64.65 C4.43 64.57 2.1 64.27 0 63.67 C-0 66 0.37 68.17 0.9 70.05 C2.78 70.57
										 4.8 70.8 6.83 70.87 Z" class="st2"/>
						</g>
						<g id="shape245-42" v:mID="245" v:groupContext="shape" v:layerMember="0" transform="translate(15,-0.075)">
							<title>Sheet.245</title>
							<path d="M0 65.55 L0 70.87 C2.18 70.42 4.2 68.1 5.4 64.8 C3.68 65.32 1.88 65.55 0 65.55 Z" class="st2"/>
						</g>
					</g>
				</g>
			</g>
			<g id="group246-44" transform="translate(57.75,-26.925)" v:mID="246" v:groupContext="group" v:layerMember="0">
				<title>Sheet.246</title>
				<g id="shape247-45" v:mID="247" v:groupContext="shape" v:layerMember="0">
					<title>Sheet.247</title>
					<path d="M25.5 47.62 L18.75 47.62 L18.75 42.37 L16.35 42.37 L0 44.92 L0 68.25 L16.35 70.87 L18.75 70.87 L18.75
								 65.62 L25.5 65.62 C27.6 65.62 29.25 63.97 29.25 61.87 L29.25 51.37 C29.25 49.27 27.6 47.62 25.5
								 47.62 Z" class="st1"/>
				</g>
				<g id="shape248-47" v:mID="248" v:groupContext="shape" v:layerMember="0" transform="translate(2.25,-2.25)">
					<title>Sheet.248</title>
					<path d="M23.25 52.12 L14.25 52.12 L14.25 46.87 L0 49.12 L0 68.62 L14.25 70.87 L14.25 65.62 L23.25 65.62 C24.07
								 65.62 24.75 64.95 24.75 64.12 L24.75 53.62 C24.75 52.8 24.07 52.12 23.25 52.12 ZM23.62 64.12 C23.62
								 64.35 23.47 64.5 23.25 64.5 L14.25 64.5 L14.25 57.67 L17.17 60.82 C17.25 60.9 17.4 60.97 17.55 60.97
								 C17.55 60.97 17.55 60.97 17.55 60.97 C17.7 60.97 17.85 60.9 17.92 60.82 L23.62 55.5 L23.62 64.12
								 ZM23.62 54 L17.55 59.62 L14.25 55.95 L14.25 53.25 L23.25 53.25 C23.47 53.25 23.62 53.4 23.62 53.62
								 L23.62 54 Z" class="st3"/>
				</g>
				<g id="shape249-49" v:mID="249" v:groupContext="shape" v:layerMember="0" transform="translate(4.275,-9.375)">
					<title>Sheet.249</title>
					<path d="M4.72 68.85 C2.18 68.77 2.25 63.3 4.8 63.15 C7.35 63.07 7.35 68.92 4.72 68.85 ZM4.8 61.42 C0.23 61.72
								 -0 70.2 4.65 70.5 C9.67 70.87 9.82 61.12 4.8 61.42 Z" class="st1"/>
				</g>
			</g>
		</g>
	</g>
</svg>
