<?xml version="1.0" encoding="UTF-8" standalone="no"?>
<!DOCTYPE svg PUBLIC "-//W3C//DTD SVG 1.1//EN" "http://www.w3.org/Graphics/SVG/1.1/DTD/svg11.dtd">
<!-- Generated by Microsoft Visio, SVG Export PowerPoint Automation Services.svg Page-1 -->
<svg xmlns="http://www.w3.org/2000/svg" xmlns:xlink="http://www.w3.org/1999/xlink" xmlns:ev="http://www.w3.org/2001/xml-events"
		xmlns:v="http://schemas.microsoft.com/visio/2003/SVGExtensions/" width="1.06563in" height="0.921875in"
		viewBox="0 0 76.725 66.375" xml:space="preserve" color-interpolation-filters="sRGB" class="st4">
	<v:documentProperties v:langID="4108" v:metric="true" v:viewMarkup="false"/>

	<style type="text/css">
	<![CDATA[
		.st1 {fill:#ffffff;stroke:none;stroke-linecap:butt;stroke-width:0.75}
		.st2 {fill:#535352;stroke:none;stroke-linecap:butt;stroke-width:0.75}
		.st3 {fill:#dc5b26;stroke:none;stroke-linecap:butt;stroke-width:0.75}
		.st4 {fill:none;fill-rule:evenodd;font-size:12px;overflow:visible;stroke-linecap:square;stroke-miterlimit:3}
	]]>
	</style>

	<g v:mID="0" v:index="1" v:groupContext="foregroundPage">
		<title>Page-1</title>
		<v:pageProperties v:drawingScale="0.0393701" v:pageScale="0.0393701" v:drawingUnits="24" v:shadowOffsetX="8.50394"
				v:shadowOffsetY="-8.50394"/>
		<v:layer v:name="symbols" v:index="0"/>
		<g id="group250-1" transform="translate(8.4375,-5.4375)" v:mID="250" v:groupContext="group" v:layerMember="0">
			<title>PowerPoint Automation Services</title>
			<g id="group251-2" v:mID="251" v:groupContext="group" v:layerMember="0">
				<title>Sheet.251</title>
				<g id="group252-3" v:mID="252" v:groupContext="group" v:layerMember="0">
					<title>Sheet.252</title>
					<g id="shape253-4" v:mID="253" v:groupContext="shape" v:layerMember="0">
						<title>Sheet.253</title>
						<path d="M37.43 64.27 C36 64.5 34.65 63.82 33.9 62.62 L31.95 59.47 C31.95 59.47 31.95 59.47 31.88 59.47 C31.8
									 59.47 31.13 59.7 30.08 59.85 C29.03 60.07 28.28 60.07 28.2 60.07 L28.13 60.07 L27.3 63.67 C27
									 65.02 25.87 66.07 24.45 66.3 C24 66.37 23.55 66.37 23.1 66.22 L18.22 65.1 C17.32 64.87 16.57
									 64.35 16.05 63.52 C15.52 62.7 15.37 61.8 15.6 60.9 L16.42 57.22 L16.27 57.15 L13.57 55.2 C13.57
									 55.2 13.42 55.12 13.42 55.05 L10.27 57.07 C9.9 57.3 9.45 57.45 9 57.52 C7.57 57.75 6.15 57.15
									 5.4 55.95 L2.78 51.67 C2.25 50.85 2.1 49.95 2.32 49.05 C2.55 48.15 3.15 47.32 3.9 46.87 L7.05
									 44.92 C7.05 44.85 6.97 44.7 6.97 44.7 L6.45 41.4 C6.45 41.4 6.45 41.25 6.45 41.17 L2.78 40.35
									 C1.87 40.13 1.12 39.6 0.6 38.77 C0.15 37.95 0 36.97 0.22 36.07 L1.35 31.2 C1.65 29.85 2.78 28.8
									 4.2 28.57 C4.65 28.5 5.1 28.5 5.55 28.65 L9.22 29.47 L9.3 29.32 L11.25 26.62 C11.25 26.62 11.32
									 26.47 11.4 26.47 L9.45 23.32 C8.92 22.5 8.77 21.6 9 20.7 C9.22 19.8 9.75 19.05 10.57 18.52 L14.85
									 15.9 C15.22 15.67 15.67 15.52 16.12 15.45 C17.55 15.23 18.9 15.83 19.65 17.1 L21.6 20.25 C21.6
									 20.25 21.6 20.25 21.67 20.25 C21.75 20.25 22.42 20.03 23.47 19.87 C24.52 19.72 25.27 19.65 25.35
									 19.65 C25.35 19.65 25.35 19.65 25.42 19.65 L26.25 16.05 C26.55 14.7 27.68 13.65 29.1 13.42 C29.55
									 13.35 30 13.35 30.45 13.5 L35.33 14.62 C36.23 14.85 36.98 15.37 37.5 16.2 C38.03 17.02 38.18
									 17.93 37.95 18.82 L37.13 22.5 C37.2 22.5 37.28 22.57 37.28 22.57 L39.98 24.52 C39.98 24.52 40.13
									 24.6 40.13 24.67 L43.28 22.72 C43.65 22.5 44.1 22.35 44.55 22.27 C45.98 22.05 47.33 22.65 48.08
									 23.92 L50.7 28.2 C51.23 29.03 51.38 29.92 51.15 30.82 C50.93 31.72 50.4 32.47 49.58 33 L46.43
									 34.95 C46.43 35.02 46.5 35.17 46.5 35.17 L47.03 38.47 C47.03 38.47 47.03 38.62 47.03 38.7 L50.7
									 39.52 C52.58 39.97 53.78 41.85 53.33 43.72 L52.2 48.6 C51.9 49.95 50.78 51 49.35 51.22 C48.9
									 51.3 48.45 51.3 48 51.15 L44.33 50.32 C44.33 50.4 44.25 50.47 44.25 50.47 L42.3 53.17 C42.3
									 53.17 42.23 53.32 42.15 53.32 L44.1 56.47 C44.63 57.3 44.78 58.2 44.55 59.1 C44.33 60 43.8 60.75
									 42.98 61.27 L38.7 63.9 C38.33 63.97 37.88 64.2 37.43 64.27 ZM25.12 29.62 C19.5 30.52 15.75 35.85
									 16.65 41.4 C17.55 47.02 22.87 50.77 28.43 49.87 C34.05 48.97 37.8 43.65 36.9 38.1 C36 32.55
									 30.75 28.72 25.12 29.62 Z" class="st1"/>
					</g>
					<g id="shape254-6" v:mID="254" v:groupContext="shape" v:layerMember="0" transform="translate(2.25,-2.1)">
						<title>Sheet.254</title>
						<path d="M47.93 43.5 L43.88 42.52 C43.2 42.38 42.68 42.15 42.68 42 C42.68 41.85 42.6 41.17 42.6 40.5 L42.07
									 37.42 C41.93 36.75 41.77 36.08 41.7 36 C41.63 35.85 42.07 35.47 42.68 35.1 L46.2 32.92 C46.8
									 32.55 46.95 31.8 46.58 31.2 L43.95 26.92 C43.58 26.32 42.83 26.17 42.23 26.55 L38.7 28.72 C38.1
									 29.1 37.58 29.33 37.42 29.17 C37.35 29.1 36.82 28.65 36.3 28.2 L33.75 26.32 C33.15 25.95 32.55
									 25.65 32.47 25.57 C32.33 25.5 32.4 24.9 32.55 24.23 L33.53 20.18 C33.68 19.5 33.3 18.82 32.63
									 18.68 L27.75 17.55 C27.08 17.4 26.4 17.77 26.25 18.45 L25.28 22.5 C25.13 23.18 24.9 23.7 24.75
									 23.7 C24.6 23.7 23.93 23.7 23.25 23.78 C23.25 23.78 22.57 23.78 21.67 23.92 C20.78 24.07 20.18
									 24.23 20.18 24.23 C19.5 24.45 18.9 24.6 18.75 24.67 C18.6 24.75 18.22 24.3 17.85 23.7 L15.53
									 20.18 C15.15 19.57 14.4 19.43 13.8 19.8 L9.52 22.42 C8.92 22.8 8.78 23.55 9.15 24.15 L11.33
									 27.67 C11.7 28.28 11.93 28.8 11.78 28.95 C11.7 29.03 11.25 29.55 10.8 30.08 L8.92 32.62 C8.55
									 33.22 8.25 33.83 8.18 33.9 C8.1 34.05 7.5 33.97 6.83 33.83 L2.85 32.92 C2.18 32.78 1.5 33.15
									 1.35 33.83 L0.15 38.7 C-0 39.37 0.38 40.05 1.05 40.2 L5.17 41.17 C5.85 41.32 6.37 41.55 6.37
									 41.7 C6.37 41.85 6.45 42.52 6.45 43.2 L6.98 46.35 C7.12 47.02 7.28 47.7 7.35 47.77 C7.42 47.92
									 6.98 48.3 6.37 48.67 L2.85 50.85 C2.25 51.22 2.1 51.97 2.47 52.57 L5.1 56.85 C5.47 57.45 6.23
									 57.6 6.83 57.22 L10.35 55.05 C10.95 54.67 11.48 54.45 11.63 54.6 C11.7 54.67 12.23 55.12 12.75
									 55.57 L15.3 57.45 C15.9 57.82 16.5 58.12 16.58 58.2 C16.72 58.27 16.65 58.87 16.5 59.55 L15.53
									 63.6 C15.37 64.27 15.75 64.95 16.42 65.1 L21.3 66.22 C21.97 66.37 22.65 66 22.8 65.32 L23.77
									 61.27 C23.93 60.6 24.15 60.07 24.3 60.07 C24.45 60.07 25.13 60.07 25.8 60 C25.8 60 26.48 60
									 27.38 59.85 C28.28 59.7 28.88 59.55 28.88 59.55 C29.55 59.32 30.15 59.17 30.3 59.1 C30.45 59.02
									 30.83 59.47 31.2 60.07 L33.37 63.6 C33.75 64.2 34.5 64.35 35.1 63.97 L39.38 61.35 C39.98 60.97
									 40.13 60.22 39.75 59.62 L37.58 56.1 C37.2 55.5 36.98 54.97 37.12 54.82 C37.2 54.75 37.65 54.22
									 38.1 53.7 L39.98 51.15 C40.35 50.55 40.65 49.95 40.73 49.87 C40.8 49.72 41.4 49.8 42.07 49.95
									 L46.12 50.92 C46.8 51.07 47.48 50.7 47.63 50.02 L48.75 45.15 C49.05 44.32 48.6 43.65 47.93 43.5
									 ZM26.55 54.22 C19.72 55.35 13.27 50.7 12.15 43.88 C11.02 37.05 15.68 30.6 22.5 29.47 C29.33
									 28.35 35.78 33 36.9 39.83 C38.03 46.65 33.37 53.1 26.55 54.22 Z" class="st2"/>
					</g>
				</g>
				<g id="group255-8" transform="translate(34.65,-24.75)" v:mID="255" v:groupContext="group" v:layerMember="0">
					<title>Sheet.255</title>
					<g id="shape256-9" v:mID="256" v:groupContext="shape" v:layerMember="0">
						<title>Sheet.256</title>
						<path d="M25.5 40.12 L18.75 40.12 L18.75 37.87 L16.35 37.87 L0 40.42 L0 63.75 L16.35 66.37 L18.75 66.37 L18.75
									 64.12 L25.5 64.12 C27.6 64.12 29.25 62.47 29.25 60.37 L29.25 43.87 C29.25 41.77 27.6 40.12 25.5
									 40.12 Z" class="st1"/>
					</g>
					<g id="group257-11" transform="translate(11.25,-4.5)" v:mID="257" v:groupContext="group" v:layerMember="0">
						<title>Sheet.257</title>
						<g id="shape258-12" v:mID="258" v:groupContext="shape" v:layerMember="0">
							<title>Sheet.258</title>
							<path d="M14.25 48 C14.48 48 14.63 48.15 14.63 48.37 L14.63 64.87 C14.63 65.1 14.48 65.25 14.25 65.25
										 L1.5 65.25 C1.28 65.25 1.12 65.1 1.12 64.87 L1.12 48.37 C1.12 48.15 1.28 48 1.5 48 L14.25
										 48 ZM14.25 46.87 L1.5 46.87 C0.68 46.87 0 47.55 0 48.37 L0 64.87 C0 65.7 0.68 66.37 1.5
										 66.37 L14.25 66.37 C15.08 66.37 15.75 65.7 15.75 64.87 L15.75 48.37 C15.75 47.55 15.08 46.87
										 14.25 46.87 Z" class="st3"/>
						</g>
						<g id="group259-14" transform="translate(2.25,-6.75)" v:mID="259" v:groupContext="group" v:layerMember="0">
							<title>Sheet.259</title>
							<g id="shape260-15" v:mID="260" v:groupContext="shape" v:layerMember="0">
								<title>Sheet.260</title>
								<path d="M4.5 57.37 C2.02 57.37 0 59.4 0 61.87 C-0 64.35 2.03 66.37 4.5 66.37 C6.97 66.37 9 64.35
											 9 61.87 L4.5 61.87 L4.5 57.37 Z" class="st3"/>
							</g>
							<g id="shape261-17" v:mID="261" v:groupContext="shape" v:layerMember="0"
									transform="translate(5.25,-5.25)">
								<title>Sheet.261</title>
								<path d="M0 66.37 L4.5 66.37 C4.5 63.9 2.48 61.87 0 61.87 L0 66.37 Z" class="st3"/>
							</g>
						</g>
						<g id="shape262-19" v:mID="262" v:groupContext="shape" v:layerMember="0" transform="translate(3,-3.375)">
							<title>Sheet.262</title>
							<rect x="0" y="65.25" width="9" height="1.125" class="st3"/>
						</g>
					</g>
					<g id="shape263-21" v:mID="263" v:groupContext="shape" v:layerMember="0" transform="translate(2.25,-2.25)">
						<title>Sheet.263</title>
						<path d="M14.25 42.37 L0 44.62 L0 64.12 L14.25 66.37 L14.25 42.37 Z" class="st3"/>
					</g>
					<g id="shape264-23" v:mID="264" v:groupContext="shape" v:layerMember="0" transform="translate(7.05,-9.3)">
						<title>Sheet.264</title>
						<path d="M1.8 61.12 C1.8 60.6 1.8 60.15 1.8 59.62 C1.8 59.32 1.8 58.95 1.8 58.65 C1.8 58.42 1.72 58.35 1.95
									 58.27 C2.32 58.2 2.7 58.12 3.07 58.27 C3.67 58.5 3.75 59.17 3.75 59.77 C3.75 60.37 3.52 60.97
									 2.85 61.12 C2.55 61.27 2.17 61.2 1.8 61.12 ZM2.7 56.55 C1.87 56.62 1.05 56.62 0.15 56.7 C-0
									 56.7 0 56.7 0 56.92 C0 57.22 0 57.45 0 57.75 C0 59.85 0 61.95 0 64.05 C0 64.72 0 65.4 0 66.07
									 C-0 66.22 0.3 66.22 0.45 66.22 C0.9 66.3 1.35 66.3 1.72 66.37 C1.72 65.25 1.72 64.05 1.72 62.92
									 C2.4 63 3.07 63 3.67 62.77 C4.65 62.4 5.25 61.5 5.47 60.52 C5.62 59.62 5.55 58.42 5.02 57.67
									 C4.57 56.62 3.6 56.55 2.7 56.55 Z" class="st1"/>
					</g>
				</g>
			</g>
		</g>
	</g>
</svg>
