<?xml version="1.0" encoding="UTF-8" standalone="no"?>
<!DOCTYPE svg PUBLIC "-//W3C//DTD SVG 1.1//EN" "http://www.w3.org/Graphics/SVG/1.1/DTD/svg11.dtd">
<!-- Generated by Microsoft Visio, SVG Export Registrar Service.svg Page-1 -->
<svg xmlns="http://www.w3.org/2000/svg" xmlns:xlink="http://www.w3.org/1999/xlink" xmlns:ev="http://www.w3.org/2001/xml-events"
		xmlns:v="http://schemas.microsoft.com/visio/2003/SVGExtensions/" width="1.07188in" height="0.921875in"
		viewBox="0 0 77.175 66.375" xml:space="preserve" color-interpolation-filters="sRGB" class="st5">
	<v:documentProperties v:langID="4108" v:metric="true" v:viewMarkup="false"/>

	<style type="text/css">
	<![CDATA[
		.st1 {fill:#ffffff;stroke:none;stroke-linecap:butt;stroke-width:0.75}
		.st2 {fill:#515150;stroke:none;stroke-linecap:butt;stroke-width:0.75}
		.st3 {fill:#535352;stroke:none;stroke-linecap:butt;stroke-width:0.75}
		.st4 {fill:#515050;stroke:none;stroke-linecap:butt;stroke-width:0.75}
		.st5 {fill:none;fill-rule:evenodd;font-size:12px;overflow:visible;stroke-linecap:square;stroke-miterlimit:3}
	]]>
	</style>

	<g v:mID="0" v:index="1" v:groupContext="foregroundPage">
		<title>Page-1</title>
		<v:pageProperties v:drawingScale="0.0393701" v:pageScale="0.0393701" v:drawingUnits="24" v:shadowOffsetX="8.50394"
				v:shadowOffsetY="-8.50394"/>
		<v:layer v:name="symbols" v:index="0"/>
		<g id="group276-1" transform="translate(10.6875,-2.8125)" v:mID="276" v:groupContext="group" v:layerMember="0">
			<title>Registrar Service</title>
			<g id="group277-2" v:mID="277" v:groupContext="group" v:layerMember="0">
				<title>Sheet.277</title>
				<g id="group278-3" transform="translate(0,-11.25)" v:mID="278" v:groupContext="group" v:layerMember="0">
					<title>Sheet.278</title>
					<g id="shape279-4" v:mID="279" v:groupContext="shape" v:layerMember="0">
						<title>Sheet.279</title>
						<path d="M5.25 66.37 C2.32 66.37 0 64.05 0 61.12 L0 26.62 C0 23.7 2.32 21.37 5.25 21.37 L52.5 21.37 C55.42
									 21.37 57.75 23.7 57.75 26.62 L57.75 61.12 C57.75 64.05 55.42 66.37 52.5 66.37 L5.25 66.37 Z"
								class="st1"/>
					</g>
					<g id="shape280-6" v:mID="280" v:groupContext="shape" v:layerMember="0" transform="translate(2.25,-2.25)">
						<title>Sheet.280</title>
						<path d="M50.25 25.87 L3 25.87 C1.35 25.87 0 27.22 0 28.87 L0 63.37 C-0 65.02 1.35 66.37 3 66.37 L50.25 66.37
									 C51.9 66.37 53.25 65.02 53.25 63.37 L53.25 28.87 C53.25 27.22 51.9 25.87 50.25 25.87 ZM44.25
									 28.12 L46.5 28.12 L46.5 30.37 L44.25 30.37 L44.25 28.12 ZM39.75 28.12 L42 28.12 L42 30.37 L39.75
									 30.37 L39.75 28.12 ZM51 63.37 C51 63.82 50.7 64.12 50.25 64.12 L3 64.12 C2.55 64.12 2.25 63.82
									 2.25 63.37 L2.25 33.37 L51 33.37 L51 63.37 ZM51 30.37 L48.75 30.37 L48.75 28.12 L51 28.12 L51
									 30.37 Z" class="st2"/>
					</g>
				</g>
				<g id="group281-8" transform="translate(26.325,-2.84217E-13)" v:mID="281" v:groupContext="group" v:layerMember="0">
					<title>Sheet.281</title>
					<g id="shape282-9" v:mID="282" v:groupContext="shape" v:layerMember="0">
						<title>Sheet.282</title>
						<path d="M20.85 66.37 C19.65 66.37 18.52 65.62 18.08 64.5 L17.4 62.92 C17.25 62.92 17.02 62.92 16.8 62.92
									 C16.57 62.92 16.35 62.92 16.12 62.92 L15.45 64.5 C15.08 65.62 13.95 66.37 12.75 66.37 C12.38
									 66.37 11.93 66.3 11.63 66.15 L8.77 64.95 C8.03 64.65 7.42 64.05 7.12 63.3 C6.83 62.55 6.83 61.72
									 7.12 60.97 L7.8 59.4 L6.97 58.57 L5.4 59.25 C5.03 59.4 4.65 59.47 4.28 59.47 C3.07 59.47 1.95
									 58.72 1.5 57.6 L0.3 54.75 C-0 54 -0 53.17 0.3 52.42 C0.6 51.67 1.2 51.07 1.95 50.77 L3.52 50.1
									 L3.52 48.9 L1.95 48.22 C1.2 47.93 0.6 47.32 0.3 46.57 C-0 45.82 -0 45 0.3 44.25 L1.5 41.4 C1.95
									 40.27 3.07 39.52 4.28 39.52 C4.65 39.52 5.03 39.6 5.4 39.75 L6.97 40.42 L7.8 39.6 L7.12 38.03
									 C6.83 37.27 6.83 36.45 7.12 35.7 C7.42 34.95 8.03 34.35 8.77 34.05 L11.63 32.85 C12 32.7 12.38
									 32.62 12.75 32.62 C13.95 32.62 15.07 33.37 15.52 34.5 L16.12 36 C16.28 36 16.5 36 16.73 36 C16.95
									 36 17.18 36 17.4 36 L18 34.42 C18.45 33.3 19.57 32.55 20.77 32.55 C21.15 32.55 21.52 32.62 21.9
									 32.78 L24.75 33.97 C25.5 34.27 26.1 34.87 26.4 35.62 C26.7 36.37 26.7 37.2 26.4 37.95 L25.72
									 39.52 L26.55 40.35 L28.12 39.67 C28.5 39.52 28.87 39.45 29.25 39.45 C30.45 39.45 31.57 40.2
									 32.02 41.32 L33.22 44.17 C33.52 44.92 33.52 45.75 33.22 46.5 C32.92 47.25 32.32 47.85 31.57
									 48.15 L30 48.82 L30 50.02 L31.57 50.7 C33.15 51.37 33.82 53.1 33.22 54.67 L32.02 57.52 C31.57
									 58.65 30.45 59.4 29.25 59.4 C28.87 59.4 28.42 59.32 28.05 59.17 L26.47 58.5 L25.65 59.32 L26.32
									 60.9 C26.62 61.65 26.62 62.47 26.32 63.22 C26.02 63.97 25.42 64.57 24.67 64.87 L21.82 66.07
									 C21.67 66.3 21.22 66.37 20.85 66.37 Z" class="st1"/>
					</g>
					<g id="shape283-11" v:mID="283" v:groupContext="shape" v:layerMember="0" transform="translate(2.025,-2.1)">
						<title>Sheet.283</title>
						<path d="M28.95 54.97 L26.55 54 C26.17 53.85 25.87 53.62 25.87 53.55 C25.87 53.47 25.95 53.02 25.95 52.65
									 L25.95 50.7 C25.95 50.25 25.87 49.87 25.87 49.8 C25.87 49.72 26.17 49.5 26.55 49.35 L28.95 48.37
									 C29.32 48.22 29.55 47.77 29.4 47.32 L28.2 44.47 C28.05 44.1 27.6 43.87 27.15 44.03 L24.75 45
									 C24.37 45.15 24 45.22 23.92 45.15 C23.85 45.07 23.62 44.77 23.32 44.4 L21.9 43.05 C21.6 42.75
									 21.22 42.52 21.22 42.45 C21.15 42.37 21.22 42.07 21.37 41.62 L22.35 39.23 C22.5 38.85 22.35
									 38.4 21.9 38.17 L19.05 36.97 C18.67 36.82 18.22 36.97 18 37.42 L17.03 39.82 C16.87 40.2 16.65
									 40.5 16.57 40.5 C16.5 40.5 16.05 40.42 15.67 40.35 C15.67 40.35 15.3 40.27 14.7 40.27 C14.1
									 40.27 13.72 40.35 13.72 40.35 C13.27 40.42 12.9 40.42 12.82 40.5 C12.75 40.5 12.52 40.2 12.37
									 39.82 L11.4 37.42 C11.25 37.05 10.8 36.82 10.35 36.97 L7.5 38.17 C7.13 38.33 6.9 38.78 7.05
									 39.23 L8.02 41.62 C8.17 42 8.25 42.37 8.17 42.45 C8.1 42.52 7.8 42.75 7.43 43.05 L6 44.47 C5.7
									 44.77 5.47 45.15 5.4 45.22 C5.32 45.3 5.02 45.22 4.57 45.07 L2.4 43.95 C2.02 43.8 1.57 43.95
									 1.35 44.4 L0.15 47.25 C0 47.62 0.15 48.07 0.6 48.3 L3 49.27 C3.37 49.42 3.67 49.65 3.67 49.72
									 C3.67 49.8 3.6 50.25 3.6 50.62 L3.6 52.57 C3.6 53.02 3.67 53.4 3.67 53.47 C3.67 53.55 3.37 53.77
									 3 53.92 L0.6 54.97 C0.23 55.12 0 55.57 0.15 56.02 L1.35 58.87 C1.5 59.25 1.95 59.47 2.32 59.32
									 L4.72 58.35 C5.1 58.2 5.47 58.12 5.55 58.2 C5.63 58.27 5.85 58.57 6.15 58.95 L7.57 60.3 C7.87
									 60.6 8.25 60.82 8.32 60.9 C8.4 60.97 8.32 61.35 8.17 61.72 L7.13 63.97 C6.98 64.35 7.13 64.8
									 7.57 65.02 L10.42 66.22 C10.8 66.37 11.25 66.22 11.47 65.77 L12.45 63.37 C12.6 63 12.82 62.7
									 12.9 62.7 C12.97 62.7 13.42 62.77 13.8 62.85 C13.8 62.85 14.17 62.92 14.77 62.92 C15.37 62.92
									 15.75 62.85 15.75 62.85 C16.2 62.77 16.57 62.77 16.65 62.7 C16.72 62.7 16.95 63 17.1 63.37 L18.07
									 65.77 C18.22 66.15 18.67 66.37 19.12 66.22 L21.97 65.02 C22.35 64.87 22.57 64.42 22.42 63.97
									 L21.45 61.57 C21.3 61.2 21.22 60.82 21.3 60.75 C21.37 60.67 21.67 60.45 22.05 60.15 L23.47 58.72
									 C23.77 58.42 24 58.05 24.07 57.97 C24.15 57.9 24.45 57.97 24.9 58.12 L27.3 59.1 C27.67 59.25
									 28.12 59.1 28.35 58.65 L29.55 55.8 C29.47 55.57 29.32 55.12 28.95 54.97 ZM14.77 59.32 C10.5
									 59.32 7.05 55.87 7.05 51.6 C7.05 47.32 10.5 43.87 14.77 43.87 C19.05 43.88 22.5 47.32 22.5 51.6
									 C22.5 55.87 19.05 59.32 14.77 59.32 Z" class="st3"/>
					</g>
				</g>
				<g id="group284-13" transform="translate(10.5,-34.5)" v:mID="284" v:groupContext="group" v:layerMember="0">
					<title>Sheet.284</title>
					<g id="shape285-14" v:mID="285" v:groupContext="shape" v:layerMember="0">
						<title>Sheet.285</title>
						<path d="M3.97 66.37 L5.55 60.6 C5.62 60.37 5.7 60.07 5.7 59.77 C5.7 60.07 5.77 60.37 5.85 60.6 L7.42 66.37
									 L9 66.37 L11.25 58.12 L9.82 58.12 L8.32 64.27 C8.25 64.57 8.17 64.87 8.17 65.02 C8.17 64.72
									 8.1 64.5 8.02 64.27 L6.45 58.12 L5.02 58.12 L3.3 64.27 C3.22 64.65 3.15 64.87 3.15 65.1 C3.15
									 64.8 3.07 64.57 3 64.27 L1.5 58.12 L0 58.12 L2.33 66.37 L3.97 66.37 Z" class="st4"/>
					</g>
					<g id="shape286-16" v:mID="286" v:groupContext="shape" v:layerMember="0" transform="translate(25.425,0)">
						<title>Sheet.286</title>
						<path d="M3.97 66.37 L5.55 60.6 C5.62 60.37 5.7 60.07 5.7 59.77 C5.7 60.07 5.77 60.37 5.85 60.6 L7.42 66.37
									 L9.07 66.37 L11.32 58.12 L9.82 58.12 L8.32 64.27 C8.25 64.57 8.17 64.87 8.17 65.02 C8.17 64.72
									 8.1 64.5 8.02 64.27 L6.45 58.12 L5.02 58.12 L3.3 64.27 C3.22 64.65 3.15 64.87 3.15 65.1 C3.15
									 64.8 3.07 64.57 3 64.27 L1.5 58.12 L0 58.12 L2.32 66.37 L3.97 66.37 Z" class="st4"/>
					</g>
					<g id="shape287-18" v:mID="287" v:groupContext="shape" v:layerMember="0" transform="translate(12.75,0)">
						<title>Sheet.287</title>
						<path d="M3.9 66.37 L5.47 60.6 C5.55 60.37 5.62 60.07 5.62 59.77 C5.62 60.07 5.7 60.37 5.77 60.6 L7.35 66.37
									 L9 66.37 L11.25 58.12 L9.82 58.12 L8.32 64.27 C8.25 64.57 8.17 64.87 8.17 65.02 C8.17 64.72
									 8.1 64.5 8.02 64.27 L6.45 58.12 L5.02 58.12 L3.3 64.27 C3.22 64.65 3.15 64.87 3.15 65.1 C3.15
									 64.8 3.07 64.57 3 64.27 L1.5 58.12 L0 58.12 L2.25 66.37 L3.9 66.37 Z" class="st4"/>
					</g>
				</g>
				<g id="shape288-20" v:mID="288" v:groupContext="shape" v:layerMember="0" transform="translate(11.25,-27)">
					<title>Sheet.288</title>
					<rect x="0" y="64.125" width="15.75" height="2.25" class="st2"/>
				</g>
				<g id="shape289-22" v:mID="289" v:groupContext="shape" v:layerMember="0" transform="translate(11.25,-21.75)">
					<title>Sheet.289</title>
					<rect x="0" y="64.125" width="13.5" height="2.25" class="st2"/>
				</g>
			</g>
		</g>
	</g>
</svg>
