<?xml version="1.0" encoding="UTF-8" standalone="no"?>
<!DOCTYPE svg PUBLIC "-//W3C//DTD SVG 1.1//EN" "http://www.w3.org/Graphics/SVG/1.1/DTD/svg11.dtd">
<!-- Generated by Microsoft Visio, SVG Export Skype for Business Storage Service.svg Page-1 -->
<svg xmlns="http://www.w3.org/2000/svg" xmlns:xlink="http://www.w3.org/1999/xlink" xmlns:ev="http://www.w3.org/2001/xml-events"
		xmlns:v="http://schemas.microsoft.com/visio/2003/SVGExtensions/" width="1.02734in" height="1.0625in"
		viewBox="0 0 73.9687 76.5" xml:space="preserve" color-interpolation-filters="sRGB" class="st4">
	<v:documentProperties v:langID="4108" v:metric="true" v:viewMarkup="false"/>

	<style type="text/css">
	<![CDATA[
		.st1 {fill:#ffffff;stroke:none;stroke-linecap:butt;stroke-width:0.75}
		.st2 {fill:#00adeb;stroke:none;stroke-linecap:butt;stroke-width:0.75}
		.st3 {fill:#505150;stroke:none;stroke-linecap:butt;stroke-width:0.75}
		.st4 {fill:none;fill-rule:evenodd;font-size:12px;overflow:visible;stroke-linecap:square;stroke-miterlimit:3}
	]]>
	</style>

	<g v:mID="0" v:index="1" v:groupContext="foregroundPage">
		<title>Page-1</title>
		<v:pageProperties v:drawingScale="0.0393701" v:pageScale="0.0393701" v:drawingUnits="24" v:shadowOffsetX="8.50394"
				v:shadowOffsetY="-8.50394"/>
		<v:layer v:name="symbols" v:index="0"/>
		<g id="group302-1" transform="translate(7.21875,-8.8125)" v:mID="302" v:groupContext="group" v:layerMember="0">
			<title>Skype for Business Storage Service</title>
			<g id="group303-2" transform="translate(39.75,-36)" v:mID="303" v:groupContext="group" v:layerMember="0">
				<title>Sheet.303</title>
				<g id="shape304-3" v:mID="304" v:groupContext="shape" v:layerMember="0">
					<title>Sheet.304</title>
					<path d="M17.92 76.5 C16.72 76.5 15.6 76.28 14.55 75.75 C14.1 75.83 13.65 75.83 13.12 75.82 C6.23 75.83 0.68
								 70.2 0.67 63.38 C0.68 62.92 0.68 62.48 0.75 61.95 C0.3 60.9 0 59.7 0 58.58 C-0 54 3.75 50.25 8.32
								 50.25 C9.52 50.25 10.65 50.48 11.7 51 C12.15 50.93 12.6 50.93 13.12 50.93 C20.02 50.93 25.57 56.55
								 25.57 63.38 C25.57 63.83 25.57 64.27 25.5 64.8 C25.95 65.85 26.25 67.05 26.25 68.18 C26.25 72.75
								 22.5 76.5 17.92 76.5 Z" class="st1"/>
				</g>
				<g id="shape305-5" v:mID="305" v:groupContext="shape" v:layerMember="0" transform="translate(2.25,-2.25)">
					<title>Sheet.305</title>
					<path d="M20.92 67.43 C21 66.82 21.07 66.22 21.07 65.63 C21.07 60 16.5 55.43 10.87 55.43 C10.27 55.43 9.68 55.5
								 9.07 55.58 C8.18 55.05 7.12 54.75 6.07 54.75 C2.7 54.75 0 57.45 0 60.83 C0 61.95 0.3 62.93 0.82
								 63.83 C0.75 64.43 0.68 65.03 0.67 65.63 C0.68 71.25 5.25 75.83 10.87 75.82 C11.47 75.83 12.07 75.75
								 12.67 75.68 C13.57 76.2 14.62 76.5 15.67 76.5 C19.05 76.5 21.75 73.8 21.75 70.43 C21.75 69.3 21.45
								 68.32 20.92 67.43 ZM15.67 74.93 C14.85 74.93 14.1 74.7 13.42 74.32 L12.9 74.03 L12.37 74.1 C11.93
								 74.17 11.4 74.25 10.87 74.25 C6.08 74.25 2.17 70.35 2.17 65.55 C2.17 65.03 2.25 64.5 2.32 64.05
								 L2.4 63.53 L2.1 63.08 C1.72 62.4 1.5 61.65 1.5 60.83 C1.5 58.35 3.52 56.33 6 56.33 C6.83 56.33 7.58
								 56.55 8.25 56.93 L8.77 57.23 L9.3 57.15 C9.82 57.08 10.27 57 10.8 57 C15.6 57 19.5 60.9 19.5 65.7
								 C19.5 66.22 19.42 66.75 19.35 67.2 L19.27 67.72 L19.57 68.25 C19.95 68.92 20.17 69.67 20.17 70.5
								 C20.17 72.9 18.15 74.93 15.67 74.93 Z" class="st2"/>
				</g>
				<g id="shape306-7" v:mID="306" v:groupContext="shape" v:layerMember="0" transform="translate(7.95,-6.9)">
					<title>Sheet.306</title>
					<path d="M7.05 69.3 L4.72 68.77 C3.82 68.55 2.85 68.33 2.85 67.42 C2.85 66.6 3.53 66 4.8 66 C7.35 66 7.13 67.8
								 8.4 67.8 C9.07 67.8 9.68 67.43 9.67 66.75 C9.68 65.17 7.13 63.97 4.95 63.97 C2.62 63.97 0.15 64.95
								 0.15 67.57 C0.15 68.85 0.6 70.2 3.07 70.87 L6.15 71.62 C7.13 71.85 7.35 72.37 7.35 72.9 C7.35 73.72
								 6.52 74.55 5.1 74.55 C2.33 74.55 2.7 72.3 1.2 72.3 C0.52 72.3 0 72.75 0 73.42 C0 74.7 1.57 76.5
								 5.1 76.5 C8.4 76.5 10.12 74.85 10.12 72.67 C10.2 71.32 9.52 69.9 7.05 69.3 Z" class="st2"/>
				</g>
			</g>
			<g id="group307-9" transform="translate(-2.35811E-13,-5.475)" v:mID="307" v:groupContext="group" v:layerMember="0">
				<title>Sheet.307</title>
				<g id="shape308-10" v:mID="308" v:groupContext="shape" v:layerMember="0">
					<title>Sheet.308</title>
					<path d="M39.75 32.62 L39.75 66 L39.75 67.65 L39.75 67.72 C39.08 75.38 27 76.5 19.88 76.5 C12.75 76.5 0.68 75.38
								 0 67.72 L0 67.65 L0 66.07 L0 32.62 L0 31.12 C0 25.73 9.98 23.25 19.88 23.25 C29.78 23.25 39.75 25.73
								 39.75 31.12 L39.75 32.62 Z" class="st1"/>
				</g>
				<g id="shape309-12" v:mID="309" v:groupContext="shape" v:layerMember="0" transform="translate(2.25,-2.25)">
					<title>Sheet.309</title>
					<path d="M17.63 41.25 C10.58 41.25 3.53 40.05 0 37.35 L0 68.25 L0 69.75 C0.53 75.97 13.2 76.5 17.63 76.5 C22.05
								 76.5 34.65 75.97 35.25 69.75 L35.25 68.25 L35.25 37.35 C31.73 40.05 24.68 41.25 17.63 41.25 Z"
							class="st3"/>
				</g>
				<g id="shape310-14" v:mID="310" v:groupContext="shape" v:layerMember="0" transform="translate(2.25,-39.75)">
					<title>Sheet.310</title>
					<ellipse cx="17.625" cy="70.875" rx="17.625" ry="5.625" class="st3"/>
				</g>
			</g>
			<g id="group311-16" transform="translate(21.825,-1.56319E-13)" v:mID="311" v:groupContext="group" v:layerMember="0">
				<title>Sheet.311</title>
				<g id="shape312-17" v:mID="312" v:groupContext="shape" v:layerMember="0">
					<title>Sheet.312</title>
					<path d="M20.85 76.5 C19.65 76.5 18.52 75.75 18.07 74.63 L17.4 73.05 C17.25 73.05 17.02 73.05 16.8 73.05 C16.58
								 73.05 16.35 73.05 16.12 73.05 L15.45 74.63 C15.08 75.75 13.95 76.5 12.75 76.5 C12.37 76.5 11.92
								 76.43 11.62 76.28 L8.77 75.08 C8.02 74.78 7.43 74.18 7.12 73.43 C6.82 72.68 6.82 71.85 7.12 71.1
								 L7.8 69.53 L6.97 68.7 L5.4 69.38 C5.03 69.52 4.65 69.6 4.27 69.6 C3.07 69.6 1.95 68.85 1.5 67.73
								 L0.3 64.88 C0 64.12 -0 63.3 0.3 62.55 C0.6 61.8 1.2 61.2 1.95 60.9 L3.52 60.23 L3.52 59.03 L1.95
								 58.35 C1.2 58.05 0.6 57.45 0.3 56.7 C0 55.95 -0 55.13 0.3 54.38 L1.5 51.53 C1.95 50.4 3.07 49.65
								 4.27 49.65 C4.65 49.65 5.03 49.73 5.4 49.88 L6.97 50.55 L7.8 49.73 L7.12 48.15 C6.82 47.4 6.82 46.58
								 7.12 45.83 C7.43 45.08 8.02 44.48 8.77 44.18 L11.62 42.98 C12 42.83 12.37 42.75 12.75 42.75 C13.95
								 42.75 15.08 43.5 15.52 44.63 L16.12 46.13 C16.27 46.13 16.5 46.13 16.72 46.13 C16.95 46.13 17.17
								 46.13 17.4 46.13 L18 44.55 C18.52 43.5 19.65 42.75 20.85 42.75 C21.22 42.75 21.6 42.83 21.97 42.98
								 L24.82 44.18 C25.57 44.48 26.17 45.08 26.47 45.83 C26.77 46.58 26.77 47.4 26.47 48.15 L25.8 49.73
								 L26.62 50.55 L28.2 49.88 C28.57 49.73 28.95 49.65 29.32 49.65 C30.52 49.65 31.65 50.4 32.1 51.53
								 L33.3 54.38 C33.6 55.13 33.6 55.95 33.3 56.7 C33 57.45 32.4 58.05 31.65 58.35 L30.07 59.03 L30.07
								 60.23 L31.65 60.9 C33.22 61.58 33.9 63.3 33.3 64.88 L32.1 67.73 C31.65 68.85 30.52 69.6 29.32 69.6
								 C28.95 69.6 28.5 69.52 28.12 69.38 L26.55 68.7 L25.72 69.53 L26.4 71.1 C26.7 71.85 26.7 72.68 26.4
								 73.43 C26.1 74.18 25.5 74.78 24.75 75.08 L21.9 76.28 C21.6 76.43 21.22 76.5 20.85 76.5 Z"
							class="st1"/>
				</g>
				<g id="shape313-19" v:mID="313" v:groupContext="shape" v:layerMember="0" transform="translate(1.8,-2.1)">
					<title>Sheet.313</title>
					<path d="M29.1 65.1 L26.7 64.13 C26.32 63.98 26.02 63.75 26.02 63.68 C26.02 63.6 26.1 63.15 26.1 62.78 L26.1
								 60.83 C26.1 60.37 26.02 60 26.02 59.93 C26.02 59.85 26.32 59.62 26.7 59.48 L29.1 58.5 C29.47 58.35
								 29.7 57.9 29.55 57.45 L28.35 54.6 C28.2 54.23 27.75 54 27.3 54.15 L24.9 55.13 C24.52 55.28 24.15
								 55.35 24.07 55.28 C24 55.2 23.78 54.9 23.47 54.53 L22.05 53.18 C21.75 52.88 21.38 52.65 21.37 52.58
								 C21.3 52.5 21.38 52.2 21.52 51.75 L22.5 49.35 C22.65 48.98 22.5 48.53 22.05 48.3 L19.2 47.1 C18.83
								 46.95 18.37 47.1 18.15 47.55 L17.17 49.95 C17.03 50.33 16.8 50.63 16.72 50.63 C16.65 50.63 16.2
								 50.55 15.82 50.48 C15.83 50.48 15.45 50.4 14.85 50.4 C14.25 50.4 13.88 50.48 13.87 50.48 C13.42
								 50.55 13.05 50.55 12.97 50.63 C12.9 50.63 12.68 50.33 12.52 49.95 L11.55 47.55 C11.4 47.18 10.95
								 46.95 10.5 47.1 L7.65 48.3 C7.27 48.45 7.05 48.9 7.2 49.35 L8.17 51.75 C8.33 52.13 8.4 52.5 8.33
								 52.58 C8.25 52.65 7.95 52.88 7.65 53.18 L6.22 54.6 C5.93 54.9 5.7 55.27 5.62 55.35 C5.55 55.43 5.25
								 55.35 4.8 55.2 L2.4 54.23 C2.03 54.08 1.57 54.23 1.35 54.68 L0.15 57.53 C0 57.9 0.15 58.35 0.6 58.58
								 L3 59.55 C3.37 59.7 3.67 59.92 3.67 60 C3.67 60.07 3.6 60.52 3.6 60.9 L3.6 62.85 C3.6 63.3 3.67
								 63.68 3.67 63.75 C3.67 63.83 3.37 64.05 3 64.2 L0.83 65.1 C0.45 65.25 0.23 65.7 0.38 66.15 L1.57
								 69 C1.72 69.37 2.18 69.6 2.62 69.45 L5.02 68.48 C5.4 68.33 5.77 68.25 5.85 68.33 C5.93 68.4 6.15
								 68.7 6.45 69.08 L7.87 70.43 C8.17 70.72 8.55 70.95 8.62 71.03 C8.7 71.1 8.62 71.48 8.47 71.85 L7.35
								 74.1 C7.2 74.48 7.35 74.92 7.8 75.15 L10.65 76.35 C11.02 76.5 11.48 76.35 11.7 75.9 L12.67 73.5
								 C12.82 73.13 13.05 72.83 13.12 72.83 C13.2 72.83 13.65 72.9 14.02 72.98 C14.02 72.98 14.4 73.05
								 15 73.05 C15.6 73.05 15.97 72.98 15.97 72.98 C16.43 72.9 16.8 72.9 16.87 72.83 C16.95 72.83 17.17
								 73.13 17.32 73.5 L18.3 75.9 C18.45 76.28 18.9 76.5 19.35 76.35 L22.2 75.15 C22.58 75 22.8 74.55
								 22.65 74.1 L21.67 71.7 C21.52 71.32 21.45 70.95 21.52 70.88 C21.6 70.8 21.9 70.57 22.27 70.28 L23.7
								 68.85 C24 68.55 24.22 68.18 24.3 68.1 C24.38 68.03 24.67 68.1 25.12 68.25 L27.52 69.23 C27.9 69.37
								 28.35 69.22 28.57 68.78 L29.77 65.93 C29.7 65.7 29.55 65.25 29.1 65.1 ZM15 69.45 C10.72 69.45 7.27
								 66 7.27 61.73 C7.27 57.45 10.72 54 15 54 C19.27 54 22.72 57.45 22.72 61.73 C22.72 66 19.27 69.45
								 15 69.45 Z" class="st3"/>
				</g>
			</g>
		</g>
	</g>
</svg>
