<?xml version="1.0" encoding="UTF-8" standalone="no"?>
<!DOCTYPE svg PUBLIC "-//W3C//DTD SVG 1.1//EN" "http://www.w3.org/Graphics/SVG/1.1/DTD/svg11.dtd">
<!-- Generated by Microsoft Visio, SVG Export User Services.svg Page-1 -->
<svg xmlns="http://www.w3.org/2000/svg" xmlns:xlink="http://www.w3.org/1999/xlink" xmlns:ev="http://www.w3.org/2001/xml-events"
		xmlns:v="http://schemas.microsoft.com/visio/2003/SVGExtensions/" width="1.01563in" height="1in" viewBox="0 0 73.125 72"
		xml:space="preserve" color-interpolation-filters="sRGB" class="st4">
	<v:documentProperties v:langID="4108" v:metric="true" v:viewMarkup="false"/>

	<style type="text/css">
	<![CDATA[
		.st1 {fill:#ffffff;stroke:none;stroke-linecap:butt;stroke-width:0.75}
		.st2 {fill:#515251;stroke:none;stroke-linecap:butt;stroke-width:0.75}
		.st3 {fill:#525352;stroke:none;stroke-linecap:butt;stroke-width:0.75}
		.st4 {fill:none;fill-rule:evenodd;font-size:12px;overflow:visible;stroke-linecap:square;stroke-miterlimit:3}
	]]>
	</style>

	<g v:mID="0" v:index="1" v:groupContext="foregroundPage">
		<title>Page-1</title>
		<v:pageProperties v:drawingScale="0.0393701" v:pageScale="0.0393701" v:drawingUnits="24" v:shadowOffsetX="8.50394"
				v:shadowOffsetY="-8.50394"/>
		<v:layer v:name="symbols" v:index="0"/>
		<g id="group314-1" transform="translate(7.05,-2.4375)" v:mID="314" v:groupContext="group" v:layerMember="0">
			<title>User Services</title>
			<g id="group315-2" transform="translate(0,-9)" v:mID="315" v:groupContext="group" v:layerMember="0">
				<title>Sheet.315</title>
				<g id="shape316-3" v:mID="316" v:groupContext="shape" v:layerMember="0">
					<title>Sheet.316</title>
					<path d="M50.92 72 L50.77 69.6 C50.55 65.92 49.65 58.27 48.82 54.75 C47.92 50.85 46.73 48.15 42.97 46.05 L41.62
								 45.3 C39 43.8 37.88 43.12 36.37 43.12 C35.55 43.12 34.87 43.27 34.13 43.65 L33 44.25 L33.9 43.5
								 C36.97 40.8 38.92 36.67 38.93 32.02 C39 23.85 32.93 17.25 25.5 17.25 L25.42 17.25 C18 17.25 11.93
								 23.85 11.93 32.02 C11.93 36.67 13.87 40.8 16.95 43.5 L17.85 44.25 L16.65 43.65 C15.97 43.27 15.23
								 43.12 14.4 43.12 C12.9 43.12 11.7 43.8 9.15 45.3 L7.8 46.05 C4.2 48.22 3 50.85 2.1 54.75 C1.28 58.27
								 0.45 65.92 0.15 69.6 L0 72 L50.92 72 Z" class="st1"/>
				</g>
				<g id="shape317-5" v:mID="317" v:groupContext="shape" v:layerMember="0" transform="translate(2.625,-2.325)">
					<title>Sheet.317</title>
					<path d="M44.03 57.6 C43.13 53.77 42.15 51.97 39.3 50.4 C36.45 48.75 34.88 47.77 33.82 47.77 C33.38 47.77 33
								 47.85 32.7 48.07 C32.02 48.67 31.27 49.27 30.45 49.72 C30.45 49.72 30.45 49.72 30.45 49.72 C30.3
								 49.8 30.15 49.87 30.07 49.95 C29.25 50.47 28.43 50.77 27.67 51.07 C26.18 51.6 24.6 51.9 22.95 51.9
								 C21.3 51.9 19.72 51.6 18.22 51.07 C17.4 50.85 16.65 50.47 15.83 49.95 C14.85 49.42 13.95 48.75 13.2
								 48 C12.9 47.85 12.52 47.7 12.08 47.7 C11.02 47.7 9.9 48.45 6.6 50.32 C3.75 51.97 2.7 53.77 1.87
								 57.52 C1.12 60.82 0.23 68.4 0 72 L46.12 72 C45.6 68.47 44.77 60.9 44.03 57.6 Z" class="st2"/>
				</g>
				<g id="shape318-7" v:mID="318" v:groupContext="shape" v:layerMember="0" transform="translate(14.175,-27.525)">
					<title>Sheet.318</title>
					<path d="M11.25 72 C5.02 72 0 66.37 0 59.47 C0 52.57 5.1 47.02 11.25 47.02 C17.47 47.02 22.5 52.65 22.5 59.55
								 C22.5 66.45 17.47 72 11.25 72 Z" class="st2"/>
				</g>
			</g>
			<g id="group319-9" transform="translate(30,0)" v:mID="319" v:groupContext="group" v:layerMember="0">
				<title>Sheet.319</title>
				<g id="shape320-10" v:mID="320" v:groupContext="shape" v:layerMember="0">
					<title>Sheet.320</title>
					<path d="M20.92 72 C19.73 72 18.6 71.25 18.15 70.12 L17.47 68.55 C17.32 68.55 17.1 68.55 16.87 68.55 C16.65 68.55
								 16.42 68.55 16.2 68.55 L15.52 70.12 C15.08 71.25 14.02 72 12.75 72 C12.38 72 11.93 71.92 11.63 71.77
								 L8.77 70.57 C8.03 70.27 7.42 69.67 7.12 68.92 C6.83 68.17 6.83 67.35 7.12 66.6 L7.8 65.02 L6.97
								 64.2 L5.4 64.87 C5.03 65.02 4.65 65.1 4.28 65.1 C3.07 65.1 1.95 64.35 1.5 63.22 L0.3 60.37 C-0 59.62
								 0 58.8 0.3 58.05 C0.6 57.3 1.2 56.7 1.95 56.4 L3.52 55.72 L3.52 54.52 L1.95 53.85 C1.2 53.55 0.6
								 52.95 0.3 52.2 C-0 51.45 0 50.62 0.3 49.87 L1.5 47.02 C1.95 45.9 3.07 45.15 4.28 45.15 C4.65 45.15
								 5.03 45.22 5.4 45.37 L6.97 46.05 L7.8 45.22 L7.12 43.65 C6.83 42.9 6.83 42.07 7.12 41.32 C7.42 40.57
								 8.03 39.97 8.77 39.67 L11.63 38.47 C12 38.32 12.38 38.25 12.75 38.25 C13.95 38.25 15.08 39 15.52
								 40.12 L16.12 41.62 C16.28 41.62 16.5 41.62 16.73 41.62 C16.95 41.62 17.18 41.62 17.4 41.62 L18 40.05
								 C18.45 38.92 19.57 38.17 20.77 38.17 C21.15 38.17 21.53 38.25 21.9 38.4 L24.75 39.6 C25.5 39.9 26.1
								 40.5 26.4 41.25 C26.7 42 26.7 42.82 26.4 43.57 L25.72 45.15 L26.55 45.97 L28.12 45.3 C28.5 45.15
								 28.88 45.07 29.25 45.07 C30.45 45.07 31.57 45.82 32.02 46.95 L33.23 49.8 C33.52 50.55 33.52 51.37
								 33.23 52.12 C32.92 52.87 32.33 53.47 31.57 53.77 L30 54.45 L30 55.65 L31.57 56.32 C33.15 57 33.82
								 58.72 33.23 60.3 L32.25 63.22 C31.8 64.35 30.67 65.1 29.47 65.1 C29.1 65.1 28.65 65.02 28.27 64.87
								 L26.7 64.2 L25.87 65.02 L26.55 66.6 C26.85 67.35 26.85 68.17 26.55 68.92 C26.25 69.67 25.65 70.27
								 24.9 70.57 L22.05 71.77 C21.67 71.92 21.3 72 20.92 72 Z" class="st1"/>
				</g>
				<g id="shape321-12" v:mID="321" v:groupContext="shape" v:layerMember="0" transform="translate(2.1,-2.1)">
					<title>Sheet.321</title>
					<path d="M28.87 60.6 L26.47 59.62 C26.1 59.47 25.8 59.25 25.8 59.17 C25.8 59.1 25.87 58.65 25.87 58.27 L25.87
								 56.32 C25.87 55.87 25.8 55.5 25.8 55.42 C25.8 55.35 26.1 55.12 26.47 54.97 L28.87 54 C29.25 53.85
								 29.47 53.4 29.32 52.95 L28.12 50.1 C27.97 49.72 27.52 49.5 27.08 49.65 L24.67 50.62 C24.3 50.77
								 23.92 50.85 23.85 50.77 C23.77 50.7 23.55 50.4 23.25 50.02 L21.9 48.67 C21.6 48.37 21.22 48.15 21.22
								 48.07 C21.15 48 21.22 47.7 21.37 47.25 L22.35 44.85 C22.5 44.47 22.35 44.02 21.9 43.8 L19.05 42.6
								 C18.67 42.45 18.22 42.6 18 43.05 L17.03 45.45 C16.88 45.82 16.65 46.12 16.58 46.12 C16.5 46.12 16.05
								 46.05 15.67 45.97 C15.67 45.97 15.3 45.9 14.7 45.9 C14.1 45.9 13.72 45.97 13.72 45.97 C13.27 46.05
								 12.9 46.05 12.82 46.12 C12.75 46.12 12.53 45.82 12.38 45.45 L11.4 43.05 C11.25 42.67 10.8 42.45
								 10.35 42.6 L7.5 43.8 C7.13 43.95 6.9 44.4 7.05 44.85 L8.02 47.25 C8.17 47.62 8.25 48 8.17 48.07
								 C8.1 48.15 7.8 48.37 7.5 48.67 L6.15 50.02 C5.85 50.32 5.63 50.7 5.55 50.77 C5.48 50.85 5.17 50.77
								 4.72 50.62 L2.4 49.57 C2.02 49.42 1.57 49.57 1.35 50.02 L0.15 52.87 C-0 53.25 0.15 53.7 0.6 53.92
								 L3 54.9 C3.37 55.05 3.67 55.27 3.67 55.35 C3.67 55.42 3.6 55.87 3.6 56.25 L3.6 58.2 C3.6 58.65 3.67
								 59.02 3.67 59.1 C3.67 59.17 3.37 59.4 3 59.55 L0.6 60.6 C0.23 60.75 0 61.2 0.15 61.65 L1.35 64.5
								 C1.5 64.87 1.95 65.1 2.4 64.95 L4.8 63.97 C5.17 63.82 5.55 63.75 5.63 63.82 C5.7 63.9 5.93 64.2
								 6.23 64.57 L7.65 65.92 C7.95 66.22 8.32 66.45 8.4 66.52 C8.47 66.6 8.4 66.97 8.25 67.35 L7.13 69.6
								 C6.98 69.97 7.13 70.42 7.57 70.65 L10.42 71.85 C10.8 72 11.25 71.85 11.48 71.4 L12.45 69 C12.6 68.62
								 12.82 68.32 12.9 68.32 C12.97 68.32 13.42 68.4 13.8 68.47 C13.8 68.47 14.17 68.55 14.77 68.55 C15.37
								 68.55 15.75 68.47 15.75 68.47 C16.2 68.4 16.58 68.4 16.65 68.32 C16.73 68.32 16.95 68.62 17.1 69
								 L18.07 71.4 C18.22 71.77 18.67 72 19.12 71.85 L21.98 70.65 C22.35 70.5 22.57 70.05 22.42 69.6 L21.45
								 67.2 C21.3 66.82 21.22 66.45 21.3 66.37 C21.37 66.3 21.68 66.07 22.05 65.77 L23.47 64.35 C23.77
								 64.05 24 63.67 24.07 63.6 C24.15 63.52 24.45 63.6 24.9 63.75 L27.3 64.72 C27.67 64.87 28.12 64.72
								 28.35 64.27 L29.55 61.42 C29.47 61.2 29.25 60.75 28.87 60.6 ZM14.7 64.95 C10.42 64.95 6.98 61.5
								 6.98 57.22 C6.98 52.95 10.42 49.5 14.7 49.5 C18.97 49.5 22.42 52.95 22.42 57.22 C22.5 61.5 19.05
								 64.95 14.7 64.95 Z" class="st3"/>
				</g>
			</g>
		</g>
	</g>
</svg>
