<?xml version="1.0" encoding="UTF-8" standalone="no"?>
<!DOCTYPE svg PUBLIC "-//W3C//DTD SVG 1.1//EN" "http://www.w3.org/Graphics/SVG/1.1/DTD/svg11.dtd">
<!-- Generated by Microsoft Visio, SVG Export Visio Services.svg Page-1 -->
<svg xmlns="http://www.w3.org/2000/svg" xmlns:xlink="http://www.w3.org/1999/xlink" xmlns:ev="http://www.w3.org/2001/xml-events"
		xmlns:v="http://schemas.microsoft.com/visio/2003/SVGExtensions/" width="1.08437in" height="0.921875in"
		viewBox="0 0 78.075 66.375" xml:space="preserve" color-interpolation-filters="sRGB" class="st4">
	<v:documentProperties v:langID="4108" v:metric="true" v:viewMarkup="false"/>

	<style type="text/css">
	<![CDATA[
		.st1 {fill:#ffffff;stroke:none;stroke-linecap:butt;stroke-width:0.75}
		.st2 {fill:#535352;stroke:none;stroke-linecap:butt;stroke-width:0.75}
		.st3 {fill:#4c69b1;stroke:none;stroke-linecap:butt;stroke-width:0.75}
		.st4 {fill:none;fill-rule:evenodd;font-size:12px;overflow:visible;stroke-linecap:square;stroke-miterlimit:3}
	]]>
	</style>

	<g v:mID="0" v:index="1" v:groupContext="foregroundPage">
		<title>Page-1</title>
		<v:pageProperties v:drawingScale="0.0393701" v:pageScale="0.0393701" v:drawingUnits="24" v:shadowOffsetX="8.50394"
				v:shadowOffsetY="-8.50394"/>
		<v:layer v:name="symbols" v:index="0"/>
		<g id="group330-1" transform="translate(9.4125,-5.4375)" v:mID="330" v:groupContext="group" v:layerMember="0">
			<title>Visio Services</title>
			<g id="shape331-2" v:mID="331" v:groupContext="shape" v:layerMember="0">
				<title>Sheet.331</title>
				<path d="M50.48 39.52 L46.8 38.7 C46.8 38.62 46.8 38.47 46.8 38.47 L46.28 35.17 C46.28 35.17 46.2 35.02 46.2 34.95
							 L49.35 33 C50.18 32.47 50.7 31.72 50.93 30.82 C51.15 29.92 51 29.03 50.48 28.2 L47.85 23.92 C47.1 22.65
							 45.75 22.05 44.32 22.27 C43.88 22.35 43.43 22.5 43.05 22.72 L39.9 24.67 C39.9 24.6 39.75 24.52 39.75
							 24.52 L37.05 22.57 C37.05 22.57 36.98 22.5 36.9 22.5 L37.73 18.82 C37.95 17.93 37.8 17.02 37.28 16.2
							 C36.75 15.37 36 14.85 35.1 14.62 L30.22 13.5 C29.78 13.35 29.33 13.35 28.88 13.42 C27.45 13.65 26.32
							 14.7 26.02 16.05 L25.2 19.65 C25.13 19.65 25.13 19.65 25.13 19.65 C25.05 19.65 24.3 19.72 23.25 19.87
							 C22.2 20.03 21.53 20.25 21.45 20.25 C21.38 20.25 21.38 20.25 21.38 20.25 L19.43 17.1 C18.68 15.83 17.33
							 15.23 15.9 15.45 C15.45 15.52 15 15.67 14.63 15.9 L10.35 18.52 C9.52 19.05 9 19.8 8.78 20.7 C8.55 21.6
							 8.7 22.5 9.23 23.32 L11.18 26.47 C11.1 26.47 11.03 26.62 11.03 26.62 L9.08 29.32 L9 29.47 L5.33 28.65
							 C4.87 28.5 4.43 28.5 3.98 28.57 C2.55 28.8 1.43 29.85 1.13 31.2 L0 36.07 L0.38 38.77 C0.9 39.6 1.65
							 40.12 2.55 40.35 L6.23 41.17 C6.23 41.25 6.23 41.4 6.23 41.4 L6.75 44.7 C6.75 44.7 6.83 44.85 6.83 44.92
							 L3.68 46.87 C2.93 47.32 2.33 48.15 2.1 49.05 C1.88 49.95 2.02 50.85 2.55 51.67 L5.18 55.95 C5.92 57.15
							 7.35 57.75 8.78 57.52 C9.23 57.45 9.67 57.3 10.05 57.07 L13.2 55.05 C13.2 55.12 13.35 55.2 13.35 55.2
							 L16.05 57.15 L16.2 57.22 L15.38 60.9 C15.15 61.8 15.3 62.7 15.82 63.52 C16.35 64.35 17.1 64.87 18 65.1
							 L22.88 66.22 C23.33 66.37 23.77 66.37 24.22 66.3 C25.65 66.07 26.78 65.02 27.08 63.67 L27.9 60.07 L27.97
							 60.07 C28.05 60.07 28.8 60.07 29.85 59.85 C30.9 59.7 31.58 59.47 31.65 59.47 C31.73 59.47 31.73 59.47
							 31.73 59.47 L33.68 62.62 C34.42 63.82 35.78 64.5 37.2 64.27 C37.65 64.2 38.1 63.97 38.47 63.9 L42.75
							 61.27 C43.58 60.75 44.1 60 44.32 59.1 C44.55 58.2 44.4 57.3 43.88 56.47 L41.93 53.32 C42 53.32 42.08
							 53.17 42.08 53.17 L44.03 50.47 C44.03 50.47 44.1 50.4 44.1 50.32 L47.78 51.15 C48.23 51.3 48.67 51.3
							 49.13 51.22 C50.55 51 51.68 49.95 51.98 48.6 L53.1 43.72 C53.55 41.85 52.35 39.97 50.48 39.52 ZM28.2
							 49.87 C22.65 50.77 17.33 47.02 16.43 41.4 C15.52 35.85 19.28 30.52 24.9 29.62 C30.53 28.72 35.78 32.55
							 36.68 38.1 C37.58 43.65 33.83 48.97 28.2 49.87 Z" class="st1"/>
			</g>
			<g id="shape332-4" v:mID="332" v:groupContext="shape" v:layerMember="0" transform="translate(2.025,-2.1)">
				<title>Sheet.332</title>
				<path d="M47.92 43.5 L43.87 42.52 C43.2 42.37 42.67 42.15 42.67 42 C42.67 41.85 42.6 41.17 42.6 40.5 L42.07 37.42
							 C41.92 36.75 41.77 36.07 41.7 36 C41.62 35.85 42.07 35.47 42.67 35.1 L46.2 32.92 C46.8 32.55 46.95 31.8
							 46.57 31.2 L43.95 26.92 C43.57 26.32 42.82 26.17 42.22 26.55 L38.7 28.72 C38.1 29.1 37.57 29.32 37.42
							 29.17 C37.35 29.1 36.82 28.65 36.3 28.2 L33.75 26.32 C33.15 25.95 32.55 25.65 32.47 25.57 C32.32 25.5
							 32.4 24.9 32.55 24.22 L33.52 20.17 C33.68 19.5 33.3 18.82 32.62 18.67 L27.75 17.55 C27.07 17.4 26.4
							 17.77 26.25 18.45 L25.28 22.5 C25.12 23.17 24.9 23.7 24.75 23.7 C24.6 23.7 23.92 23.7 23.25 23.77 C23.25
							 23.77 22.57 23.77 21.67 23.92 C20.77 24.07 20.17 24.22 20.17 24.22 C19.5 24.45 18.9 24.6 18.75 24.67
							 C18.6 24.75 18.22 24.3 17.85 23.7 L15.52 20.17 C15.15 19.57 14.4 19.42 13.8 19.8 L9.52 22.42 C8.92 22.8
							 8.78 23.55 9.15 24.15 L11.33 27.67 C11.7 28.27 11.93 28.8 11.77 28.95 C11.7 29.02 11.25 29.55 10.8 30.07
							 L8.92 32.62 C8.55 33.22 8.25 33.82 8.18 33.9 C8.1 34.05 7.5 33.97 6.82 33.82 L2.85 32.92 C2.17 32.77
							 1.5 33.15 1.35 33.82 L0.15 38.7 C0 39.37 0.37 40.05 1.05 40.2 L5.17 41.17 C5.85 41.32 6.37 41.55 6.37
							 41.7 C6.37 41.85 6.45 42.52 6.45 43.2 L6.98 46.35 C7.12 47.02 7.28 47.7 7.35 47.77 C7.42 47.92 6.98
							 48.3 6.37 48.67 L2.85 50.85 C2.25 51.22 2.1 51.97 2.47 52.57 L5.1 56.85 C5.47 57.45 6.22 57.6 6.82 57.22
							 L10.35 55.05 C10.95 54.67 11.47 54.45 11.63 54.6 C11.7 54.67 12.23 55.12 12.75 55.57 L15.3 57.45 C15.9
							 57.82 16.5 58.12 16.58 58.2 C16.72 58.27 16.65 58.87 16.5 59.55 L15.52 63.6 C15.37 64.27 15.75 64.95
							 16.42 65.1 L21.3 66.22 C21.97 66.37 22.65 66 22.8 65.32 L23.77 61.27 C23.92 60.6 24.15 60.07 24.3 60.07
							 C24.45 60.07 25.12 60.07 25.8 60 C25.8 60 26.47 60 27.37 59.85 C28.27 59.7 28.87 59.55 28.87 59.55 C29.55
							 59.32 30.15 59.17 30.3 59.1 C30.45 59.02 30.82 59.47 31.2 60.07 L33.37 63.6 C33.75 64.2 34.5 64.35 35.1
							 63.97 L39.37 61.35 C39.97 60.97 40.12 60.22 39.75 59.62 L37.57 56.1 C37.2 55.5 36.97 54.97 37.12 54.82
							 C37.2 54.75 37.65 54.22 38.1 53.7 L39.97 51.15 C40.35 50.55 40.65 49.95 40.72 49.87 C40.8 49.72 41.4
							 49.8 42.07 49.95 L46.12 50.92 C46.8 51.07 47.47 50.7 47.62 50.02 L48.75 45.15 C49.05 44.32 48.6 43.65
							 47.92 43.5 ZM26.55 54.22 C19.72 55.35 13.27 50.7 12.15 43.87 C11.02 37.05 15.68 30.6 22.5 29.47 C29.33
							 28.35 35.77 33 36.9 39.82 C38.03 46.65 33.37 53.1 26.55 54.22 Z" class="st2"/>
			</g>
			<g id="group333-6" transform="translate(34.425,-24.75)" v:mID="333" v:groupContext="group" v:layerMember="0">
				<title>Sheet.333</title>
				<g id="shape334-7" v:mID="334" v:groupContext="shape" v:layerMember="0">
					<title>Sheet.334</title>
					<path d="M26.25 40.12 L18.75 40.12 L18.75 37.87 L16.35 37.87 L0 40.42 L0 63.75 L16.35 66.37 L18.75 66.37 L18.75
								 64.12 L26.25 64.12 C28.35 64.12 30 62.47 30 60.37 L30 43.87 C30 41.77 28.35 40.12 26.25 40.12 Z"
							class="st1"/>
				</g>
				<g id="group335-9" transform="translate(10.5,-4.5)" v:mID="335" v:groupContext="group" v:layerMember="0">
					<title>Sheet.335</title>
					<g id="shape336-10" v:mID="336" v:groupContext="shape" v:layerMember="0" transform="translate(0.75,0)">
						<title>Sheet.336</title>
						<path d="M15 48 C15.22 48 15.37 48.15 15.37 48.37 L15.37 64.87 C15.37 65.1 15.22 65.25 15 65.25 L1.5 65.25
									 C1.27 65.25 1.12 65.1 1.12 64.87 L1.12 48.37 C1.12 48.15 1.27 48 1.5 48 L15 48 ZM15 46.87 L1.5
									 46.87 C0.67 46.87 0 47.55 0 48.37 L0 64.87 C0 65.7 0.67 66.37 1.5 66.37 L15 66.37 C15.82 66.37
									 16.5 65.7 16.5 64.87 L16.5 48.37 C16.5 47.55 15.82 46.87 15 46.87 Z" class="st3"/>
					</g>
					<g id="shape337-12" v:mID="337" v:groupContext="shape" v:layerMember="0" transform="translate(7.875,-10.425)">
						<title>Sheet.337</title>
						<path d="M4.05 66.37 L4.27 66.15 L6.75 63.67 L6.9 63.52 L6.9 62.32 L6.75 62.17 L4.27 59.7 L4.12 59.55 L2.85
									 59.55 L2.7 59.7 L0.22 62.17 L0 62.4 L0 63.45 L0.22 63.67 L2.7 66.15 L2.92 66.37 L4.05 66.37
									 ZM3.52 65.4 L1.05 62.92 L3.52 60.45 L6 62.92 L3.52 65.4 Z" class="st3"/>
					</g>
					<g id="shape338-14" v:mID="338" v:groupContext="shape" v:layerMember="0" transform="translate(0,-2.25)">
						<title>Sheet.338</title>
						<path d="M7.87 60.75 L7.87 65.25 L1.12 65.25 L1.12 60.75 L7.87 60.75 ZM7.87 59.62 L1.12 59.62 C0.52 59.62
									 0 60.15 0 60.75 L0 65.25 C0 65.85 0.52 66.37 1.12 66.37 L7.87 66.37 C8.47 66.37 9 65.85 9 65.25
									 L9 60.75 C9 60.15 8.47 59.62 7.87 59.62 Z" class="st3"/>
					</g>
					<g id="shape339-16" v:mID="339" v:groupContext="shape" v:layerMember="0" transform="translate(8.25,-5.25)">
						<title>Sheet.339</title>
						<path d="M2.55 60.52 L2.55 65.25 L0 65.25 L0 66.37 L2.55 66.37 C3.15 66.37 3.67 65.85 3.67 65.25 L3.67 60.52
									 L2.55 60.52 Z" class="st3"/>
					</g>
					<g id="shape340-18" v:mID="340" v:groupContext="shape" v:layerMember="0" transform="translate(3.75,-13.35)">
						<title>Sheet.340</title>
						<rect x="0" y="65.25" width="4.5" height="1.125" class="st3"/>
					</g>
				</g>
				<g id="shape341-20" v:mID="341" v:groupContext="shape" v:layerMember="0" transform="translate(2.25,-2.25)">
					<title>Sheet.341</title>
					<path d="M14.25 42.37 L0 44.62 L0 64.12 L14.25 66.37 L14.25 42.37 Z" class="st3"/>
				</g>
				<g id="shape342-22" v:mID="342" v:groupContext="shape" v:layerMember="0" transform="translate(5.325,-9)">
					<title>Sheet.342</title>
					<path d="M7.12 57.07 L4.5 66.37 L2.55 66.3 L0 56.92 L1.8 56.92 L3.38 63.45 C3.45 63.82 3.52 64.12 3.52 64.35
								 C3.52 64.05 3.6 63.75 3.67 63.37 L5.25 56.92 L7.12 57.07 Z" class="st1"/>
				</g>
			</g>
		</g>
	</g>
</svg>
