<?xml version="1.0" encoding="UTF-8" standalone="no"?>
<!DOCTYPE svg PUBLIC "-//W3C//DTD SVG 1.1//EN" "http://www.w3.org/Graphics/SVG/1.1/DTD/svg11.dtd">
<!-- Generated by Microsoft Visio, SVG Export Web Services.svg Page-1 -->
<svg xmlns="http://www.w3.org/2000/svg" xmlns:xlink="http://www.w3.org/1999/xlink" xmlns:ev="http://www.w3.org/2001/xml-events"
		xmlns:v="http://schemas.microsoft.com/visio/2003/SVGExtensions/" width="1.0625in" height="1in" viewBox="0 0 76.5 72"
		xml:space="preserve" color-interpolation-filters="sRGB" class="st3">
	<v:documentProperties v:langID="4108" v:metric="true" v:viewMarkup="false"/>

	<style type="text/css">
	<![CDATA[
		.st1 {fill:#ffffff;stroke:none;stroke-linecap:butt;stroke-width:0.75}
		.st2 {fill:#515150;stroke:none;stroke-linecap:butt;stroke-width:0.75}
		.st3 {fill:none;fill-rule:evenodd;font-size:12px;overflow:visible;stroke-linecap:square;stroke-miterlimit:3}
	]]>
	</style>

	<g v:mID="0" v:index="1" v:groupContext="foregroundPage">
		<title>Page-1</title>
		<v:pageProperties v:drawingScale="0.0393701" v:pageScale="0.0393701" v:drawingUnits="24" v:shadowOffsetX="8.50394"
				v:shadowOffsetY="-8.50394"/>
		<v:layer v:name="symbols" v:index="0"/>
		<g id="group343-1" transform="translate(10.05,-3.0375)" v:mID="343" v:groupContext="group" v:layerMember="0">
			<title>Web Services</title>
			<g id="group344-2" transform="translate(0,-7.05)" v:mID="344" v:groupContext="group" v:layerMember="0">
				<title>Sheet.344</title>
				<g id="shape345-3" v:mID="345" v:groupContext="shape" v:layerMember="0">
					<title>Sheet.345</title>
					<path d="M26.62 72 C11.92 72 0 60.07 0 45.37 C-0 30.67 11.92 18.75 26.62 18.75 C41.32 18.75 53.25 30.67 53.25
								 45.37 C53.25 60.07 41.32 72 26.62 72 Z" class="st1"/>
				</g>
				<g id="group346-5" transform="translate(2.25,-2.7)" v:mID="346" v:groupContext="group" v:layerMember="0">
					<title>Sheet.346</title>
					<g id="shape347-6" v:mID="347" v:groupContext="shape" v:layerMember="0" transform="translate(25.5,-24.3)">
						<title>Sheet.347</title>
						<path d="M0 72 C4.05 71.92 8.03 71.32 11.55 70.35 C11.4 66.52 10.73 62.92 9.68 59.77 C6.68 60.67 3.38 61.27
									 0 61.35 L0 72 Z" class="st2"/>
					</g>
					<g id="shape348-8" v:mID="348" v:groupContext="shape" v:layerMember="0" transform="translate(25.5,-37.275)">
						<title>Sheet.348</title>
						<path d="M0 61.42 L0 72 C3.15 71.92 6.15 71.4 8.92 70.57 C6.82 65.47 3.6 62.02 0 61.42 Z" class="st2"/>
					</g>
					<g id="shape349-10" v:mID="349" v:groupContext="shape" v:layerMember="0" transform="translate(14.325,-37.35)">
						<title>Sheet.349</title>
						<path d="M8.92 61.5 C5.32 62.1 2.18 65.55 0 70.57 C2.77 71.4 5.77 71.92 8.92 72 L8.92 61.5 Z" class="st2"/>
					</g>
					<g id="shape350-12" v:mID="350" v:groupContext="shape" v:layerMember="0" transform="translate(1.05,-26.7)">
						<title>Sheet.350</title>
						<path d="M5.18 58.57 C2.85 61.12 1.05 64.27 0 67.65 C2.33 69.45 5.18 70.87 8.4 72 C8.63 68.1 9.3 64.5 10.35
									 61.35 C8.48 60.6 6.68 59.62 5.18 58.57 Z" class="st2"/>
					</g>
					<g id="shape351-14" v:mID="351" v:groupContext="shape" v:layerMember="0" transform="translate(38.25,-13.725)">
						<title>Sheet.351</title>
						<path d="M1.12 61.8 C1.12 65.4 0.75 68.85 0 72 C3.75 70.72 7.12 68.92 10.05 66.67 C10.35 65.1 10.57 63.45
									 10.57 61.8 C10.57 60.15 10.42 58.57 10.12 57.07 C7.57 58.87 4.57 60.3 1.2 61.42 C1.12 61.5 1.12
									 61.65 1.12 61.8 Z" class="st2"/>
					</g>
					<g id="shape352-16" v:mID="352" v:groupContext="shape" v:layerMember="0" transform="translate(7.725,-39.525)">
						<title>Sheet.352</title>
						<path d="M9.67 64.2 C6 65.25 2.78 67.2 0 69.67 C1.35 70.57 2.78 71.32 4.42 72 C5.85 68.77 7.65 66.07 9.67
									 64.2 Z" class="st2"/>
					</g>
					<g id="shape353-18" v:mID="353" v:groupContext="shape" v:layerMember="0"
							transform="translate(2.43805E-13,-13.575)">
						<title>Sheet.353</title>
						<path d="M9.37 61.65 C9.37 61.5 9.37 61.35 9.37 61.2 C6 60.15 3 58.65 0.45 56.92 C0.15 58.42 0 60 0 61.65
									 C0 63.45 0.22 65.25 0.6 66.97 C3.52 69.07 6.97 70.8 10.57 72 C9.82 68.85 9.37 65.32 9.37 61.65
									 Z" class="st2"/>
					</g>
					<g id="shape354-20" v:mID="354" v:groupContext="shape" v:layerMember="0" transform="translate(11.7,-24.3)">
						<title>Sheet.354</title>
						<path d="M0 70.35 C3.6 71.32 7.5 71.92 11.55 72 L11.55 61.27 C8.18 61.2 4.88 60.6 1.87 59.7 C0.83 62.85 0.15
									 66.45 0 70.35 Z" class="st2"/>
					</g>
					<g id="shape355-22" v:mID="355" v:groupContext="shape" v:layerMember="0" transform="translate(37.35,-26.7)">
						<title>Sheet.355</title>
						<path d="M10.35 67.65 C9.3 64.27 7.58 61.2 5.25 58.57 C3.68 59.7 1.87 60.6 0 61.35 C1.05 64.5 1.73 68.1 1.95
									 72 C5.18 70.87 8.03 69.45 10.35 67.65 Z" class="st2"/>
					</g>
					<g id="shape356-24" v:mID="356" v:groupContext="shape" v:layerMember="0" transform="translate(31.275,-39.45)">
						<title>Sheet.356</title>
						<path d="M0 64.12 C2.1 66 3.9 68.7 5.25 72 C6.9 71.32 8.4 70.57 9.75 69.67 C7.05 67.2 3.67 65.25 0 64.12 Z"
								class="st2"/>
					</g>
					<g id="shape357-26" v:mID="357" v:groupContext="shape" v:layerMember="0" transform="translate(11.625,-11.4)">
						<title>Sheet.357</title>
						<path d="M11.63 72 L11.63 61.35 C7.58 61.27 3.6 60.67 0 59.77 C-0 63.67 0.53 67.42 1.42 70.65 C4.73 71.47
									 8.1 71.92 11.63 72 Z" class="st2"/>
					</g>
					<g id="shape358-28" v:mID="358" v:groupContext="shape" v:layerMember="0" transform="translate(31.275,-0.525)">
						<title>Sheet.358</title>
						<path d="M6.23 61.42 C4.8 65.92 2.63 69.6 0 72 C7.43 69.82 13.35 64.2 15.98 56.92 C13.05 58.8 9.75 60.37
									 6.23 61.42 Z" class="st2"/>
					</g>
					<g id="shape359-30" v:mID="359" v:groupContext="shape" v:layerMember="0" transform="translate(1.575,-0.6)">
						<title>Sheet.359</title>
						<path d="M9.67 61.65 C6.22 60.6 2.92 59.17 0 57.37 C2.7 64.42 8.55 69.9 15.82 72 C13.27 69.75 11.1 66.07
									 9.67 61.65 Z" class="st2"/>
					</g>
					<g id="shape360-32" v:mID="360" v:groupContext="shape" v:layerMember="0"
							transform="translate(13.875,2.41585E-13)">
						<title>Sheet.360</title>
						<path d="M9.37 72 L9.37 62.85 C6.15 62.77 3 62.4 0 61.72 C2.1 67.42 5.47 71.32 9.37 72 Z" class="st2"/>
					</g>
					<g id="shape361-34" v:mID="361" v:groupContext="shape" v:layerMember="0" transform="translate(25.5,-11.475)">
						<title>Sheet.361</title>
						<path d="M11.63 59.77 C8.02 60.75 4.05 61.27 0 61.35 L0 72 C3.52 71.92 6.98 71.4 10.2 70.5 C11.1 67.27 11.63
									 63.67 11.63 59.77 Z" class="st2"/>
					</g>
					<g id="shape362-36" v:mID="362" v:groupContext="shape" v:layerMember="0"
							transform="translate(25.5,-2.27374E-13)">
						<title>Sheet.362</title>
						<path d="M0 62.85 L0 72 C3.9 71.32 7.27 67.42 9.37 61.65 C6.37 62.32 3.22 62.7 0 62.85 Z" class="st2"/>
					</g>
				</g>
			</g>
			<g id="group363-38" transform="translate(29.85,3.12639E-13)" v:mID="363" v:groupContext="group" v:layerMember="0">
				<title>Sheet.363</title>
				<g id="shape364-39" v:mID="364" v:groupContext="shape" v:layerMember="0">
					<title>Sheet.364</title>
					<path d="M20.92 72 C19.73 72 18.6 71.25 18.15 70.12 L17.47 68.55 C17.33 68.55 17.1 68.55 16.88 68.55 C16.65 68.55
								 16.43 68.55 16.2 68.55 L15.53 70.12 C15.08 71.25 13.95 72 12.75 72 C12.38 72 11.93 71.92 11.63 71.77
								 L8.77 70.57 C8.03 70.27 7.43 69.67 7.12 68.92 C6.83 68.17 6.83 67.35 7.12 66.6 L7.8 65.02 L6.98
								 64.2 L5.4 64.8 C5.03 64.95 4.65 65.02 4.28 65.02 C3.08 65.02 1.95 64.27 1.5 63.15 L0.3 60.3 C-0
								 59.55 0 58.72 0.3 57.97 C0.6 57.22 1.2 56.62 1.95 56.32 L3.52 55.65 L3.52 54.45 L1.95 53.77 C1.2
								 53.47 0.6 52.87 0.3 52.12 C-0 51.37 0 50.55 0.3 49.8 L1.5 46.95 C1.95 45.82 3.08 45.07 4.28 45.07
								 C4.65 45.07 5.03 45.15 5.4 45.3 L6.98 45.97 L7.8 45.15 L7.12 43.57 C6.83 42.82 6.83 42 7.12 41.25
								 C7.42 40.5 8.03 39.9 8.77 39.6 L11.63 38.4 C12 38.25 12.38 38.17 12.75 38.17 C13.95 38.17 15.08
								 38.92 15.53 40.05 L16.13 41.55 C16.28 41.55 16.5 41.55 16.73 41.55 C16.95 41.55 17.18 41.55 17.4
								 41.55 L18 39.97 C18.45 38.85 19.58 38.1 20.78 38.1 C21.15 38.1 21.53 38.17 21.9 38.32 L24.75 39.52
								 C25.5 39.82 26.1 40.42 26.4 41.17 C26.7 41.92 26.7 42.75 26.4 43.5 L25.73 45.07 L26.55 45.9 L28.13
								 45.22 C28.5 45.07 28.88 45 29.25 45 C30.45 45 31.58 45.75 32.03 46.87 L33.23 49.72 C33.53 50.47
								 33.53 51.3 33.23 52.05 C32.93 52.8 32.33 53.4 31.58 53.7 L30 54.37 L30 55.57 L31.58 56.25 C33.15
								 56.92 33.83 58.65 33.23 60.22 L32.03 63.07 C31.58 64.2 30.45 64.95 29.25 64.95 C28.88 64.95 28.43
								 64.87 28.05 64.72 L26.48 64.05 L25.65 64.87 L26.33 66.45 C26.62 67.2 26.63 68.02 26.33 68.77 C26.03
								 69.52 25.43 70.12 24.68 70.42 L21.82 71.62 C21.75 71.92 21.38 72 20.92 72 Z" class="st1"/>
				</g>
				<g id="shape365-41" v:mID="365" v:groupContext="shape" v:layerMember="0" transform="translate(2.025,-1.875)">
					<title>Sheet.365</title>
					<path d="M29.03 60.3 L26.63 59.32 C26.25 59.17 25.95 58.95 25.95 58.87 C25.95 58.8 26.03 58.35 26.03 57.97 L26.03
								 56.02 C26.03 55.57 25.95 55.2 25.95 55.12 C25.95 55.05 26.25 54.82 26.63 54.67 L29.03 53.7 C29.4
								 53.55 29.63 53.1 29.47 52.65 L28.27 49.8 C28.13 49.42 27.67 49.2 27.23 49.35 L24.83 50.32 C24.45
								 50.47 24.07 50.55 24 50.47 C23.93 50.4 23.7 50.1 23.4 49.72 L21.97 48.37 C21.67 48.07 21.3 47.85
								 21.3 47.77 C21.23 47.7 21.3 47.4 21.45 46.95 L22.43 44.55 C22.57 44.17 22.43 43.72 21.97 43.5 L19.12
								 42.3 C18.75 42.15 18.3 42.3 18.08 42.75 L17.1 45.15 C16.95 45.52 16.72 45.82 16.65 45.82 C16.58
								 45.82 16.12 45.75 15.75 45.67 C15.75 45.67 15.38 45.6 14.78 45.6 C14.25 45.75 13.88 45.82 13.88
								 45.82 C13.42 45.9 13.05 45.9 12.98 45.97 C12.9 45.97 12.68 45.67 12.52 45.3 L11.55 42.82 C11.4 42.45
								 10.95 42.22 10.5 42.37 L7.65 43.57 C7.28 43.72 7.05 44.17 7.2 44.62 L8.18 47.02 C8.32 47.4 8.4 47.77
								 8.33 47.85 C8.25 47.92 7.95 48.15 7.65 48.45 L6.23 49.87 C5.93 50.17 5.7 50.55 5.63 50.62 C5.55
								 50.7 5.25 50.62 4.8 50.47 L2.4 49.5 C2.02 49.35 1.57 49.5 1.35 49.95 L0.15 52.8 C0 53.17 0.15 53.62
								 0.6 53.85 L3 54.82 C3.37 54.97 3.67 55.2 3.67 55.27 C3.67 55.35 3.6 55.8 3.6 56.17 L3.6 58.12 C3.6
								 58.57 3.67 58.95 3.67 59.02 C3.67 59.1 3.37 59.32 3 59.47 L0.6 60.45 C0.23 60.6 0 61.05 0.15 61.5
								 L1.35 64.35 C1.5 64.72 1.95 64.95 2.4 64.8 L4.8 63.82 C5.17 63.67 5.55 63.6 5.63 63.67 C5.7 63.75
								 5.93 64.05 6.23 64.42 L7.65 65.77 C7.95 66.07 8.32 66.3 8.4 66.37 C8.48 66.45 8.4 66.82 8.25 67.2
								 L7.28 69.6 C7.12 69.97 7.28 70.42 7.72 70.65 L10.58 71.85 C10.95 72 11.4 71.85 11.62 71.4 L12.6
								 69 C12.75 68.62 12.98 68.32 13.05 68.32 C13.12 68.32 13.58 68.4 13.95 68.47 C13.95 68.47 14.32 68.55
								 14.92 68.55 C15.52 68.55 15.9 68.47 15.9 68.47 C16.35 68.4 16.72 68.4 16.8 68.32 C16.88 68.32 17.1
								 68.62 17.25 69 L18.22 71.4 C18.38 71.77 18.82 72 19.28 71.85 L22.12 70.65 C22.5 70.5 22.73 70.05
								 22.57 69.6 L21.6 67.2 C21.45 66.82 21.38 66.45 21.45 66.37 C21.52 66.3 21.82 66.07 22.2 65.77 L23.63
								 64.35 C23.93 64.05 24.15 63.67 24.23 63.6 C24.3 63.52 24.6 63.6 25.05 63.75 L27.45 64.72 C27.83
								 64.87 28.27 64.72 28.5 64.27 L29.7 61.42 C29.55 60.9 29.4 60.45 29.03 60.3 ZM14.85 64.72 C10.58
								 64.72 7.13 61.27 7.13 57 C7.13 52.72 10.58 49.27 14.85 49.27 C19.12 49.27 22.57 52.72 22.57 57 C22.57
								 61.27 19.12 64.72 14.85 64.72 Z" class="st2"/>
				</g>
			</g>
		</g>
	</g>
</svg>
