<?xml version="1.0" encoding="UTF-8" standalone="no"?>
<!DOCTYPE svg PUBLIC "-//W3C//DTD SVG 1.1//EN" "http://www.w3.org/Graphics/SVG/1.1/DTD/svg11.dtd">
<!-- Generated by Microsoft Visio, SVG Export Word Automation Services.svg Page-1 -->
<svg xmlns="http://www.w3.org/2000/svg" xmlns:xlink="http://www.w3.org/1999/xlink" xmlns:ev="http://www.w3.org/2001/xml-events"
		xmlns:v="http://schemas.microsoft.com/visio/2003/SVGExtensions/" width="1.05937in" height="0.921875in"
		viewBox="0 0 76.275 66.375" xml:space="preserve" color-interpolation-filters="sRGB" class="st4">
	<v:documentProperties v:langID="4108" v:metric="true" v:viewMarkup="false"/>

	<style type="text/css">
	<![CDATA[
		.st1 {fill:#ffffff;stroke:none;stroke-linecap:butt;stroke-width:0.75}
		.st2 {fill:#535352;stroke:none;stroke-linecap:butt;stroke-width:0.75}
		.st3 {fill:#2c3580;stroke:none;stroke-linecap:butt;stroke-width:0.75}
		.st4 {fill:none;fill-rule:evenodd;font-size:12px;overflow:visible;stroke-linecap:square;stroke-miterlimit:3}
	]]>
	</style>

	<g v:mID="0" v:index="1" v:groupContext="foregroundPage">
		<title>Page-1</title>
		<v:pageProperties v:drawingScale="0.0393701" v:pageScale="0.0393701" v:drawingUnits="24" v:shadowOffsetX="8.50394"
				v:shadowOffsetY="-8.50394"/>
		<v:layer v:name="symbols" v:index="0"/>
		<g id="group366-1" transform="translate(7.6125,-5.55)" v:mID="366" v:groupContext="group" v:layerMember="0">
			<title>Word Automation Services</title>
			<g id="group367-2" v:mID="367" v:groupContext="group" v:layerMember="0">
				<title>Sheet.367</title>
				<g id="group368-3" v:mID="368" v:groupContext="group" v:layerMember="0">
					<title>Sheet.368</title>
					<g id="shape369-4" v:mID="369" v:groupContext="shape" v:layerMember="0">
						<title>Sheet.369</title>
						<path d="M37.42 64.28 C36 64.5 34.65 63.83 33.9 62.63 L31.95 59.48 C31.95 59.48 31.95 59.48 31.88 59.48 C31.8
									 59.48 31.13 59.7 30.08 59.85 C29.03 60.08 28.28 60.08 28.2 60.08 L28.13 60.08 L27.3 63.68 C27
									 65.03 25.87 66.08 24.45 66.3 C24 66.38 23.55 66.38 23.1 66.23 L18.22 65.1 C17.32 64.88 16.57
									 64.35 16.05 63.53 C15.52 62.7 15.37 61.8 15.6 60.9 L16.42 57.23 L16.27 57.15 L13.57 55.2 C13.57
									 55.2 13.42 55.13 13.42 55.05 L10.27 57.08 C9.9 57.3 9.45 57.45 9 57.53 C7.57 57.75 6.15 57.15
									 5.4 55.95 L2.78 51.68 C2.25 50.85 2.1 49.95 2.32 49.05 C2.55 48.15 3.15 47.33 3.9 46.88 L7.05
									 44.93 C7.05 44.85 6.97 44.7 6.97 44.7 L6.45 41.4 C6.45 41.4 6.45 41.25 6.45 41.18 L2.78 40.35
									 C1.87 40.13 1.12 39.6 0.6 38.78 C0.15 37.95 0 36.98 0.22 36.08 L1.35 31.2 C1.65 29.85 2.78 28.8
									 4.2 28.58 C4.65 28.5 5.1 28.5 5.55 28.65 L9.22 29.48 L9.3 29.33 L11.25 26.63 C11.25 26.63 11.32
									 26.48 11.4 26.48 L9.45 23.33 C8.92 22.5 8.77 21.6 9 20.7 C9.22 19.8 9.75 19.05 10.57 18.53 L14.85
									 15.9 C15.22 15.68 15.67 15.53 16.12 15.45 C17.55 15.23 18.9 15.83 19.65 17.1 L21.6 20.25 C21.6
									 20.25 21.6 20.25 21.67 20.25 C21.75 20.25 22.42 20.03 23.47 19.88 C24.52 19.73 25.27 19.65 25.35
									 19.65 C25.35 19.65 25.35 19.65 25.42 19.65 L26.25 16.05 C26.55 14.7 27.68 13.65 29.1 13.43 C29.55
									 13.35 30 13.35 30.45 13.5 L35.32 14.63 C36.23 14.85 36.97 15.38 37.5 16.2 C38.02 17.03 38.17
									 17.93 37.95 18.83 L37.12 22.5 C37.2 22.5 37.28 22.58 37.27 22.58 L39.97 24.53 C39.97 24.53 40.12
									 24.6 40.12 24.68 L43.27 22.73 C43.65 22.5 44.1 22.35 44.55 22.28 C45.97 22.05 47.32 22.65 48.07
									 23.93 L50.7 28.2 C51.22 29.03 51.37 29.93 51.15 30.83 C50.92 31.73 50.4 32.48 49.57 33 L46.42
									 34.95 C46.42 35.03 46.5 35.18 46.5 35.18 L47.02 38.48 C47.02 38.48 47.02 38.63 47.02 38.7 L50.7
									 39.53 C52.57 39.98 53.77 41.85 53.32 43.73 L52.2 48.6 C51.9 49.95 50.77 51 49.35 51.23 C48.9
									 51.3 48.45 51.3 48 51.15 L44.32 50.33 C44.32 50.4 44.25 50.48 44.25 50.48 L42.3 53.18 C42.3
									 53.18 42.22 53.33 42.15 53.33 L44.1 56.48 C44.62 57.3 44.77 58.2 44.55 59.1 C44.32 60 43.8 60.75
									 42.97 61.28 L38.7 63.9 C38.32 63.98 37.88 64.2 37.42 64.28 ZM25.12 29.63 C19.5 30.53 15.75 35.85
									 16.65 41.4 C17.55 47.03 22.87 50.78 28.43 49.88 C34.05 48.98 37.8 43.65 36.9 38.1 C36 32.55
									 30.75 28.73 25.12 29.63 Z" class="st1"/>
					</g>
					<g id="shape370-6" v:mID="370" v:groupContext="shape" v:layerMember="0" transform="translate(2.25,-2.1)">
						<title>Sheet.370</title>
						<path d="M47.92 43.5 L43.87 42.53 C43.2 42.38 42.68 42.15 42.68 42 C42.68 41.85 42.6 41.18 42.6 40.5 L42.07
									 37.43 C41.92 36.75 41.77 36.08 41.7 36 C41.62 35.85 42.07 35.48 42.68 35.1 L46.2 32.93 C46.8
									 32.55 46.95 31.8 46.57 31.2 L43.95 26.93 C43.57 26.33 42.82 26.18 42.22 26.55 L38.7 28.73 C38.1
									 29.1 37.57 29.33 37.42 29.18 C37.35 29.1 36.82 28.65 36.3 28.2 L33.75 26.33 C33.15 25.95 32.55
									 25.65 32.47 25.58 C32.32 25.5 32.4 24.9 32.55 24.23 L33.52 20.18 C33.68 19.5 33.3 18.83 32.62
									 18.68 L27.75 17.55 C27.07 17.4 26.4 17.78 26.25 18.45 L25.28 22.5 C25.12 23.18 24.9 23.7 24.75
									 23.7 C24.6 23.7 23.92 23.7 23.25 23.78 C23.25 23.78 22.57 23.78 21.67 23.93 C20.77 24.08 20.17
									 24.23 20.17 24.23 C19.5 24.45 18.9 24.6 18.75 24.68 C18.6 24.75 18.22 24.3 17.85 23.7 L15.52
									 20.18 C15.15 19.58 14.4 19.43 13.8 19.8 L9.52 22.43 C8.92 22.8 8.78 23.55 9.15 24.15 L11.33
									 27.68 C11.7 28.28 11.93 28.8 11.77 28.95 C11.7 29.03 11.25 29.55 10.8 30.08 L8.92 32.63 C8.55
									 33.23 8.25 33.83 8.18 33.9 C8.1 34.05 7.5 33.98 6.82 33.83 L2.85 32.93 C2.17 32.78 1.5 33.15
									 1.35 33.83 L0.15 38.7 C0 39.38 0.37 40.05 1.05 40.2 L5.17 41.18 C5.85 41.33 6.37 41.55 6.37
									 41.7 C6.37 41.85 6.45 42.53 6.45 43.2 L6.98 46.35 C7.12 47.03 7.28 47.7 7.35 47.78 C7.42 47.93
									 6.98 48.3 6.37 48.68 L2.85 50.85 C2.25 51.23 2.1 51.98 2.47 52.58 L5.1 56.85 C5.47 57.45 6.23
									 57.6 6.82 57.23 L10.35 55.05 C10.95 54.68 11.47 54.45 11.63 54.6 C11.7 54.68 12.23 55.13 12.75
									 55.58 L15.3 57.45 C15.9 57.83 16.5 58.13 16.58 58.2 C16.72 58.28 16.65 58.88 16.5 59.55 L15.52
									 63.6 C15.37 64.28 15.75 64.95 16.42 65.1 L21.3 66.23 C21.97 66.38 22.65 66 22.8 65.33 L23.77
									 61.28 C23.92 60.6 24.15 60.08 24.3 60.08 C24.45 60.08 25.12 60.08 25.8 60 C25.8 60 26.48 60
									 27.37 59.85 C28.27 59.7 28.87 59.55 28.87 59.55 C29.55 59.33 30.15 59.18 30.3 59.1 C30.45 59.03
									 30.83 59.48 31.2 60.08 L33.37 63.6 C33.75 64.2 34.5 64.35 35.1 63.98 L39.37 61.35 C39.97 60.98
									 40.12 60.23 39.75 59.63 L37.57 56.1 C37.2 55.5 36.97 54.98 37.12 54.83 C37.2 54.75 37.65 54.23
									 38.1 53.7 L39.97 51.15 C40.35 50.55 40.65 49.95 40.72 49.88 C40.8 49.73 41.4 49.8 42.07 49.95
									 L46.12 50.93 C46.8 51.08 47.47 50.7 47.63 50.03 L48.75 45.15 C49.05 44.33 48.6 43.65 47.92 43.5
									 ZM26.55 54.23 C19.72 55.35 13.27 50.7 12.15 43.88 C11.02 37.05 15.68 30.6 22.5 29.48 C29.33
									 28.35 35.77 33 36.9 39.83 C38.03 46.65 33.37 53.1 26.55 54.23 Z" class="st2"/>
					</g>
				</g>
				<g id="group371-8" transform="translate(34.65,-24.525)" v:mID="371" v:groupContext="group" v:layerMember="0">
					<title>Sheet.371</title>
					<g id="shape372-9" v:mID="372" v:groupContext="shape" v:layerMember="0">
						<title>Sheet.372</title>
						<path d="M26.25 40.13 L18.75 40.13 L18.75 37.88 L15.98 37.88 L0 40.43 L0 63.75 L16.65 66.38 L18.75 66.38
									 L18.75 64.13 L26.25 64.13 C28.35 64.13 30 62.48 30 60.38 L30 43.88 C30 41.78 28.35 40.13 26.25
									 40.13 Z" class="st1"/>
					</g>
					<g id="group373-11" transform="translate(11.25,-4.5)" v:mID="373" v:groupContext="group" v:layerMember="0">
						<title>Sheet.373</title>
						<g id="shape374-12" v:mID="374" v:groupContext="shape" v:layerMember="0">
							<title>Sheet.374</title>
							<path d="M15 48 C15.23 48 15.38 48.15 15.38 48.38 L15.38 64.88 C15.38 65.1 15.23 65.25 15 65.25 L1.5
										 65.25 C1.28 65.25 1.13 65.1 1.12 64.88 L1.12 48.38 C1.13 48.15 1.28 48 1.5 48 L15 48 ZM15
										 46.88 L1.5 46.88 C0.68 46.88 0 47.55 0 48.38 L0 64.88 C0 65.7 0.68 66.38 1.5 66.38 L15 66.38
										 C15.83 66.38 16.5 65.7 16.5 64.88 L16.5 48.38 C16.5 47.55 15.83 46.88 15 46.88 Z"
									class="st3"/>
						</g>
						<g id="group375-14" transform="translate(3,-3.375)" v:mID="375" v:groupContext="group" v:layerMember="0">
							<title>Sheet.375</title>
							<g id="shape376-15" v:mID="376" v:groupContext="shape" v:layerMember="0">
								<title>Sheet.376</title>
								<rect x="0" y="65.25" width="10.5" height="1.125" class="st3"/>
							</g>
							<g id="shape377-17" v:mID="377" v:groupContext="shape" v:layerMember="0"
									transform="translate(1.9984E-15,-3)">
								<title>Sheet.377</title>
								<rect x="0" y="65.25" width="10.5" height="1.125" class="st3"/>
							</g>
							<g id="shape378-19" v:mID="378" v:groupContext="shape" v:layerMember="0"
									transform="translate(1.9984E-15,-6)">
								<title>Sheet.378</title>
								<rect x="0" y="65.25" width="10.5" height="1.125" class="st3"/>
							</g>
							<g id="shape379-21" v:mID="379" v:groupContext="shape" v:layerMember="0"
									transform="translate(1.9984E-15,-9)">
								<title>Sheet.379</title>
								<rect x="0" y="65.25" width="10.5" height="1.125" class="st3"/>
							</g>
							<g id="shape380-23" v:mID="380" v:groupContext="shape" v:layerMember="0"
									transform="translate(1.9984E-15,-12)">
								<title>Sheet.380</title>
								<rect x="0" y="65.25" width="10.5" height="1.125" class="st3"/>
							</g>
						</g>
					</g>
					<g id="shape381-25" v:mID="381" v:groupContext="shape" v:layerMember="0" transform="translate(2.25,-2.325)">
						<title>Sheet.381</title>
						<path d="M14.25 42.38 L0 44.63 L0 64.13 L14.25 66.38 L14.25 42.38 Z" class="st3"/>
					</g>
					<g id="shape382-27" v:mID="382" v:groupContext="shape" v:layerMember="0" transform="translate(4.575,-10.425)">
						<title>Sheet.382</title>
						<path d="M8.63 58.28 L7.05 58.35 L6.15 63.68 C6.15 63.75 6.15 63.83 6.15 63.9 C6.15 63.98 6.15 64.05 6.15
									 64.13 C6.15 64.2 6.15 64.28 6.15 64.35 C6.15 64.43 6.15 64.5 6.15 64.58 C6.15 64.5 6.15 64.43
									 6.15 64.28 C6.15 64.2 6.15 64.13 6.15 64.05 C6.15 63.98 6.15 63.9 6.15 63.83 C6.15 63.75 6.15
									 63.75 6.15 63.68 L5.1 58.43 L3.6 58.5 L2.55 63.53 C2.55 63.6 2.55 63.68 2.48 63.75 C2.48 63.83
									 2.48 63.9 2.48 63.98 C2.48 64.05 2.48 64.13 2.48 64.2 C2.48 64.28 2.48 64.35 2.48 64.43 C2.48
									 64.35 2.48 64.28 2.48 64.2 C2.48 64.13 2.48 64.05 2.48 63.98 C2.48 63.9 2.48 63.83 2.48 63.75
									 C2.48 63.68 2.48 63.6 2.48 63.6 L1.65 58.73 L0 58.8 L1.43 66.08 L2.93 66.15 L3.98 61.35 C3.98
									 61.28 3.98 61.2 3.98 61.2 C3.98 61.13 3.98 61.05 3.98 60.98 C3.98 60.9 3.98 60.83 3.98 60.75
									 C3.98 60.68 3.98 60.6 3.98 60.53 C3.98 60.6 3.98 60.68 3.98 60.75 C3.98 60.83 3.98 60.9 3.98
									 60.98 C3.98 61.05 3.98 61.13 3.98 61.2 C3.98 61.28 3.98 61.35 3.98 61.43 L5.18 66.3 L6.83 66.38
									 L8.63 58.28 Z" class="st1"/>
					</g>
				</g>
			</g>
		</g>
	</g>
</svg>
