<?xml version="1.0" encoding="UTF-8" standalone="no"?>
<!DOCTYPE svg PUBLIC "-//W3C//DTD SVG 1.1//EN" "http://www.w3.org/Graphics/SVG/1.1/DTD/svg11.dtd">
<!-- Generated by Microsoft Visio, SVG Export XMPP Service.svg Page-1 -->
<svg xmlns="http://www.w3.org/2000/svg" xmlns:xlink="http://www.w3.org/1999/xlink" xmlns:ev="http://www.w3.org/2001/xml-events"
		xmlns:v="http://schemas.microsoft.com/visio/2003/SVGExtensions/" width="1.10938in" height="0.9375in"
		viewBox="0 0 79.875 67.5" xml:space="preserve" color-interpolation-filters="sRGB" class="st4">
	<v:documentProperties v:langID="4108" v:metric="true" v:viewMarkup="false"/>

	<style type="text/css">
	<![CDATA[
		.st1 {fill:#ffffff;stroke:none;stroke-linecap:butt;stroke-width:0.75}
		.st2 {fill:#515050;stroke:none;stroke-linecap:butt;stroke-width:0.75}
		.st3 {fill:#515150;stroke:none;stroke-linecap:butt;stroke-width:0.75}
		.st4 {fill:none;fill-rule:evenodd;font-size:12px;overflow:visible;stroke-linecap:square;stroke-miterlimit:3}
	]]>
	</style>

	<g v:mID="0" v:index="1" v:groupContext="foregroundPage">
		<title>Page-1</title>
		<v:pageProperties v:drawingScale="0.0393701" v:pageScale="0.0393701" v:drawingUnits="24" v:shadowOffsetX="8.50394"
				v:shadowOffsetY="-8.50394"/>
		<v:layer v:name="symbols" v:index="0"/>
		<g id="group383-1" transform="translate(9.8625,-3.9375)" v:mID="383" v:groupContext="group" v:layerMember="0">
			<title>XMPP Service</title>
			<g id="group384-2" v:mID="384" v:groupContext="group" v:layerMember="0">
				<title>Sheet.384</title>
				<g id="group385-3" transform="translate(3.19744E-13,-21)" v:mID="385" v:groupContext="group" v:layerMember="0">
					<title>Sheet.385</title>
					<g id="shape386-4" v:mID="386" v:groupContext="shape" v:layerMember="0">
						<title>Sheet.386</title>
						<path d="M0 67.5 L0 32.25 L60.75 32.25 L60.75 67.5 L0 67.5 Z" class="st1"/>
					</g>
					<g id="group387-6" transform="translate(9.15,-12)" v:mID="387" v:groupContext="group" v:layerMember="0">
						<title>Sheet.387</title>
						<g id="shape388-7" v:mID="388" v:groupContext="shape" v:layerMember="0">
							<title>Sheet.388</title>
							<path d="M7.42 67.5 L5.1 63.45 C5.02 63.37 5.02 63.3 5.02 63.15 L4.95 62.85 C4.87 62.92 4.87 63.07 4.87
										 63.15 C4.87 63.22 4.8 63.3 4.72 63.45 L2.25 67.5 L0 67.5 L3.67 61.95 L0.3 56.47 L2.55 56.47
										 L4.5 60.07 C4.65 60.37 4.8 60.67 4.87 60.9 C4.95 60.75 4.95 60.67 5.02 60.52 C5.1 60.37
										 5.17 60.22 5.25 60.07 L7.35 56.47 L9.37 56.47 L5.92 61.95 L9.6 67.5 L7.42 67.5 Z"
									class="st2"/>
						</g>
						<g id="shape389-9" v:mID="389" v:groupContext="shape" v:layerMember="0" transform="translate(11.1,0)">
							<title>Sheet.389</title>
							<path d="M10.13 67.5 L10.13 60.45 C10.13 59.7 10.13 59.02 10.2 58.42 L10.2 58.05 C10.13 58.65 9.97 59.02
										 9.9 59.25 L6.53 67.5 L5.33 67.5 L1.95 59.4 C1.88 59.25 1.8 58.87 1.65 58.12 L1.57 58.12
										 C1.65 58.72 1.65 59.62 1.65 60.75 L1.65 67.5 L0 67.5 L0 56.47 L2.62 56.47 L5.4 63.45 C5.7
										 64.12 5.85 64.65 5.93 64.95 L6 64.95 C6.22 64.35 6.45 63.82 6.6 63.37 L9.45 56.4 L11.92
										 56.4 L11.92 67.5 L10.13 67.5 Z" class="st2"/>
						</g>
						<g id="shape390-11" v:mID="390" v:groupContext="shape" v:layerMember="0" transform="translate(25.725,0)">
							<title>Sheet.390</title>
							<path d="M1.8 63.52 L1.8 67.5 L0 67.5 L0 56.47 L3.38 56.47 C4.65 56.47 5.63 56.77 6.3 57.37 C6.97 57.97
										 7.35 58.8 7.35 59.92 C7.35 60.97 6.97 61.87 6.22 62.55 C5.47 63.22 4.43 63.6 3.15 63.6 L1.8
										 63.6 L1.8 63.52 ZM1.8 58.05 L1.8 62.02 L3 62.02 C3.75 62.02 4.35 61.87 4.8 61.5 C5.25 61.12
										 5.47 60.67 5.47 60 C5.47 59.4 5.25 58.87 4.88 58.57 C4.5 58.27 3.9 58.05 3.15 58.05 L1.8
										 58.05 Z" class="st2"/>
						</g>
						<g id="shape391-13" v:mID="391" v:groupContext="shape" v:layerMember="0" transform="translate(34.5,0)">
							<title>Sheet.391</title>
							<path d="M1.8 63.52 L1.8 67.5 L0 67.5 L0 56.47 L3.38 56.47 C4.65 56.47 5.63 56.77 6.3 57.37 C6.97 57.97
										 7.35 58.8 7.35 59.92 C7.35 60.97 6.97 61.87 6.22 62.55 C5.47 63.22 4.43 63.6 3.15 63.6 L1.8
										 63.6 L1.8 63.52 ZM1.8 58.05 L1.8 62.02 L3 62.02 C3.75 62.02 4.35 61.87 4.8 61.5 C5.25 61.12
										 5.47 60.67 5.47 60 C5.47 59.4 5.25 58.87 4.88 58.57 C4.5 58.27 3.9 58.05 3.15 58.05 L1.8
										 58.05 Z" class="st2"/>
						</g>
					</g>
					<g id="shape392-15" v:mID="392" v:groupContext="shape" v:layerMember="0" transform="translate(2.25,-2.25)">
						<title>Sheet.392</title>
						<path d="M0 36.75 L0 67.5 L56.25 67.5 L56.25 36.75 L0 36.75 ZM54 65.25 L2.25 65.25 L2.25 39 L54 39 L54 65.25
									 Z" class="st2"/>
					</g>
				</g>
				<g id="group393-17" transform="translate(28.575,-2.84217E-13)" v:mID="393" v:groupContext="group" v:layerMember="0">
					<title>Sheet.393</title>
					<g id="shape394-18" v:mID="394" v:groupContext="shape" v:layerMember="0">
						<title>Sheet.394</title>
						<path d="M20.85 67.5 C19.65 67.5 18.53 66.75 18.08 65.62 L17.4 64.05 C17.25 64.05 17.02 64.05 16.8 64.05
									 C16.57 64.05 16.35 64.05 16.13 64.05 L15.45 65.62 C15.08 66.75 13.95 67.5 12.75 67.5 C12.38
									 67.5 11.93 67.42 11.63 67.27 L8.77 66.07 C8.03 65.77 7.42 65.17 7.12 64.42 C6.83 63.67 6.83
									 62.85 7.12 62.1 L7.8 60.52 L6.97 59.7 L5.4 60.37 C5.03 60.52 4.65 60.6 4.28 60.6 C3.08 60.6
									 1.95 59.85 1.5 58.72 L0.3 55.87 C-0 55.12 0 54.3 0.3 53.55 C0.6 52.8 1.2 52.2 1.95 51.9 L3.52
									 51.22 L3.52 50.02 L1.95 49.35 C1.2 49.05 0.6 48.45 0.3 47.7 C-0 46.95 0 46.12 0.3 45.37 L1.5
									 42.52 C1.95 41.4 3.08 40.65 4.28 40.65 C4.65 40.65 5.03 40.72 5.4 40.87 L6.97 41.55 L7.8 40.72
									 L7.12 39.15 C6.83 38.4 6.83 37.57 7.12 36.82 C7.42 36.08 8.03 35.47 8.77 35.17 L11.63 33.98
									 C12 33.82 12.38 33.75 12.75 33.75 C13.95 33.75 15.08 34.5 15.53 35.62 L16.13 37.12 C16.28 37.12
									 16.5 37.12 16.73 37.12 C16.95 37.12 17.18 37.12 17.4 37.12 L18 35.55 C18.45 34.43 19.58 33.67
									 20.78 33.67 C21.15 33.67 21.53 33.75 21.9 33.9 L24.75 35.1 C25.5 35.4 26.1 36 26.4 36.75 C26.7
									 37.5 26.7 38.32 26.4 39.07 L25.72 40.65 L26.55 41.47 L28.13 40.8 C28.5 40.65 28.88 40.57 29.25
									 40.57 C30.45 40.57 31.58 41.32 32.03 42.45 L33.23 45.3 C33.53 46.05 33.53 46.87 33.23 47.62
									 C32.93 48.37 32.33 48.97 31.58 49.27 L30 49.95 L30 51.15 L31.58 51.82 C33.15 52.5 33.83 54.22
									 33.23 55.8 L32.03 58.65 C31.58 59.77 30.45 60.52 29.25 60.52 C28.88 60.52 28.43 60.45 28.05
									 60.3 L26.48 59.62 L25.65 60.45 L26.33 62.02 C26.62 62.77 26.62 63.6 26.33 64.35 C26.03 65.1
									 25.43 65.7 24.68 66 L21.82 67.2 C21.68 67.42 21.23 67.5 20.85 67.5 ZM16.8 45.15 C13.8 45.15
									 11.33 47.62 11.33 50.62 C11.32 53.62 13.8 56.1 16.8 56.1 C19.8 56.1 22.27 53.62 22.27 50.62
									 C22.27 47.62 19.8 45.15 16.8 45.15 Z" class="st1"/>
					</g>
					<g id="shape395-20" v:mID="395" v:groupContext="shape" v:layerMember="0" transform="translate(2.025,-2.1)">
						<title>Sheet.395</title>
						<path d="M28.95 56.1 L26.55 55.12 C26.18 54.97 25.88 54.75 25.88 54.67 C25.88 54.6 25.95 54.15 25.95 53.77
									 L25.95 51.82 C25.95 51.37 25.88 51 25.88 50.92 C25.88 50.85 26.18 50.62 26.55 50.47 L28.95 49.5
									 C29.33 49.35 29.55 48.9 29.4 48.45 L28.2 45.6 C28.05 45.23 27.6 45 27.15 45.15 L24.75 46.12
									 C24.38 46.27 24 46.35 23.93 46.27 C23.85 46.2 23.62 45.9 23.32 45.52 L21.9 44.17 C21.6 43.87
									 21.23 43.65 21.23 43.57 C21.15 43.5 21.23 43.2 21.38 42.75 L22.35 40.35 C22.5 39.98 22.35 39.53
									 21.9 39.3 L19.05 38.1 C18.67 37.95 18.22 38.1 18 38.55 L17.03 40.95 C16.88 41.32 16.65 41.62
									 16.58 41.62 C16.5 41.62 16.05 41.55 15.68 41.47 C15.68 41.47 15.3 41.4 14.7 41.4 C14.1 41.4
									 13.72 41.47 13.72 41.47 C13.27 41.55 12.9 41.55 12.82 41.62 C12.75 41.62 12.52 41.32 12.37 40.95
									 L11.4 38.55 C11.25 38.17 10.8 37.95 10.35 38.1 L7.5 39.3 C7.13 39.45 6.9 39.9 7.05 40.35 L8.02
									 42.75 C8.17 43.12 8.25 43.5 8.17 43.57 C8.1 43.65 7.8 43.87 7.5 44.17 L6.08 45.6 C5.78 45.9
									 5.55 46.27 5.48 46.35 C5.4 46.42 5.1 46.35 4.65 46.2 L2.4 45.08 C2.03 44.93 1.58 45.07 1.35
									 45.52 L0.15 48.37 C0 48.75 0.15 49.2 0.6 49.42 L3 50.4 C3.37 50.55 3.67 50.77 3.67 50.85 C3.67
									 50.92 3.6 51.37 3.6 51.75 L3.6 53.7 C3.6 54.15 3.67 54.52 3.67 54.6 C3.67 54.67 3.37 54.9 3
									 55.05 L0.6 56.1 C0.23 56.25 0 56.7 0.15 57.15 L1.35 60 C1.5 60.37 1.95 60.6 2.4 60.45 L4.8 59.47
									 C5.18 59.32 5.55 59.25 5.63 59.32 C5.7 59.4 5.93 59.7 6.23 60.07 L7.65 61.42 C7.95 61.72 8.32
									 61.95 8.4 62.02 C8.47 62.1 8.4 62.47 8.25 62.85 L7.13 65.1 C6.98 65.47 7.13 65.92 7.57 66.15
									 L10.43 67.35 C10.8 67.5 11.25 67.35 11.48 66.9 L12.45 64.5 C12.6 64.12 12.82 63.82 12.9 63.82
									 C12.97 63.82 13.42 63.9 13.8 63.97 C13.8 63.97 14.18 64.05 14.78 64.05 C15.38 64.05 15.75 63.97
									 15.75 63.97 C16.2 63.9 16.58 63.9 16.65 63.82 C16.73 63.82 16.95 64.12 17.1 64.5 L18.07 66.9
									 C18.22 67.27 18.67 67.5 19.12 67.35 L21.98 66.15 C22.35 66 22.57 65.55 22.42 65.1 L21.45 62.7
									 C21.3 62.32 21.23 61.95 21.3 61.87 C21.38 61.8 21.68 61.57 22.05 61.27 L23.47 59.85 C23.77 59.55
									 24 59.17 24.07 59.1 C24.15 59.02 24.45 59.1 24.9 59.25 L27.3 60.22 C27.67 60.37 28.12 60.22
									 28.35 59.77 L29.55 56.92 C29.48 56.7 29.33 56.25 28.95 56.1 ZM14.78 60.45 C10.5 60.45 7.05 57
									 7.05 52.72 C7.05 48.45 10.5 45 14.78 45 C19.05 45 22.5 48.45 22.5 52.72 C22.5 57 19.05 60.45
									 14.78 60.45 Z" class="st3"/>
					</g>
				</g>
			</g>
		</g>
	</g>
</svg>
